G75*
%MOIN*%
%OFA0B0*%
%FSLAX24Y24*%
%IPPOS*%
%LPD*%
%AMOC8*
5,1,8,0,0,1.08239X$1,22.5*
%
%ADD10C,0.0986*%
%ADD11C,0.0560*%
%ADD12C,0.0640*%
%ADD13R,0.0560X0.0560*%
%ADD14R,0.0640X0.0640*%
%ADD15R,0.0336X0.0552*%
%ADD16R,0.0474X0.0395*%
%ADD17R,0.0710X0.0946*%
%ADD18R,0.0356X0.0789*%
%ADD19OC8,0.0554*%
%ADD20OC8,0.0634*%
%ADD21R,0.0867X0.1104*%
%ADD22C,0.0396*%
%ADD23C,0.0476*%
%ADD24R,0.0396X0.0396*%
%ADD25R,0.0476X0.0476*%
D10*
X009527Y004043D03*
X009527Y019791D03*
D11*
X005197Y010933D03*
X005197Y010145D03*
X005197Y009358D03*
X005197Y008570D03*
X005197Y007783D03*
X005197Y006996D03*
X005197Y006208D03*
X005197Y005421D03*
X005197Y004633D03*
X005197Y003846D03*
X013858Y004633D03*
X013858Y005421D03*
X013858Y006208D03*
X013858Y006996D03*
X013858Y007783D03*
X013858Y008570D03*
X013858Y009358D03*
X013858Y010145D03*
X013858Y010933D03*
D12*
X005197Y003846D03*
X005197Y004633D03*
X005197Y005421D03*
X005197Y006208D03*
X005197Y006996D03*
X005197Y007783D03*
X005197Y008570D03*
X005197Y009358D03*
X005197Y010145D03*
X005197Y010933D03*
X013858Y010933D03*
X013858Y010145D03*
X013858Y009358D03*
X013858Y008570D03*
X013858Y007783D03*
X013858Y006996D03*
X013858Y006208D03*
X013858Y005421D03*
X013858Y004633D03*
D13*
X013858Y003846D03*
D14*
X013858Y003846D03*
D15*
X005423Y014446D03*
X004576Y014446D03*
X004576Y016474D03*
X005423Y016474D03*
X005423Y017793D03*
X004576Y017793D03*
X004576Y019820D03*
X005423Y019820D03*
D16*
X005984Y013196D03*
X005984Y012606D03*
X006968Y005303D03*
X006968Y004752D03*
D17*
X007244Y017350D03*
X014882Y017350D03*
D18*
X013769Y018413D03*
X013277Y018413D03*
X012785Y018413D03*
X012293Y018413D03*
X011801Y018413D03*
X011309Y018413D03*
X010817Y018413D03*
X010324Y018413D03*
X009832Y018413D03*
X009340Y018413D03*
X008848Y018413D03*
X008356Y018413D03*
D19*
X007943Y016838D03*
X014183Y016838D03*
D20*
X014183Y016838D03*
X007943Y016838D03*
D21*
X008189Y015657D03*
X006929Y015657D03*
D22*
X007952Y012704D03*
X010708Y012901D03*
X012086Y011917D03*
X012480Y013492D03*
X011102Y009752D03*
X012086Y008570D03*
X008937Y006996D03*
X006968Y004240D03*
X012677Y019397D03*
X014252Y019397D03*
D23*
X014252Y019397D03*
X012677Y019397D03*
X012480Y013492D03*
X012086Y011917D03*
X010708Y012901D03*
X011102Y009752D03*
X012086Y008570D03*
X008937Y006996D03*
X006968Y004240D03*
X007952Y012704D03*
D24*
X008346Y014476D03*
X010315Y016641D03*
X005984Y017429D03*
D25*
X005984Y017429D03*
X008346Y014476D03*
X010315Y016641D03*
M02*
