%
M48
M72
T01C0.0236
T02C0.0276
T03C0.0354
T04C0.0906
%
T01
X6968Y4240
X8937Y6996
X11102Y9752
X12086Y8570
X12086Y11917
X12480Y13492
X10708Y12901
X8346Y14476
X7952Y12704
X10315Y16641
X12677Y19397
X14252Y19397
X5984Y17429
T02
X5197Y3846
X5197Y4633
X5197Y5421
X5197Y6208
X5197Y6996
X5197Y7783
X5197Y8570
X5197Y9358
X5197Y10145
X5197Y10933
X13858Y10933
X13858Y10145
X13858Y9358
X13858Y8570
X13858Y7783
X13858Y6996
X13858Y6208
X13858Y5421
X13858Y4633
X13858Y3846
T03
X14183Y16838
X7943Y16838
T04
X9527Y19791
X9527Y4043
M30
