G75*
%MOIN*%
%OFA0B0*%
%FSLAX24Y24*%
%IPPOS*%
%LPD*%
%AMOC8*
5,1,8,0,0,1.08239X$1,22.5*
%
%ADD10C,0.0560*%
%ADD11R,0.0560X0.0560*%
%ADD12R,0.0256X0.0472*%
%ADD13R,0.0394X0.0315*%
%ADD14R,0.0630X0.0866*%
%ADD15R,0.0276X0.0709*%
%ADD16OC8,0.0554*%
%ADD17R,0.0787X0.1024*%
%ADD18C,0.0396*%
%ADD19C,0.0157*%
%ADD20C,0.0160*%
%ADD21R,0.0396X0.0396*%
D10*
X005197Y003846D03*
X005197Y004633D03*
X005197Y005421D03*
X005197Y006208D03*
X005197Y006996D03*
X005197Y007783D03*
X005197Y008570D03*
X005197Y009358D03*
X005197Y010145D03*
X005197Y010933D03*
X013858Y010933D03*
X013858Y010145D03*
X013858Y009358D03*
X013858Y008570D03*
X013858Y007783D03*
X013858Y006996D03*
X013858Y006208D03*
X013858Y005421D03*
X013858Y004633D03*
D11*
X013858Y003846D03*
D12*
X005423Y014446D03*
X004576Y014446D03*
X004576Y016474D03*
X005423Y016474D03*
X005423Y017793D03*
X004576Y017793D03*
X004576Y019820D03*
X005423Y019820D03*
D13*
X005984Y013196D03*
X005984Y012606D03*
X006968Y005303D03*
X006968Y004752D03*
D14*
X007244Y017350D03*
X014882Y017350D03*
D15*
X013769Y018413D03*
X013277Y018413D03*
X012785Y018413D03*
X012293Y018413D03*
X011801Y018413D03*
X011309Y018413D03*
X010817Y018413D03*
X010324Y018413D03*
X009832Y018413D03*
X009340Y018413D03*
X008848Y018413D03*
X008356Y018413D03*
D16*
X007943Y016838D03*
X014183Y016838D03*
D17*
X008189Y015657D03*
X006929Y015657D03*
D18*
X007952Y012704D03*
X010708Y012901D03*
X012086Y011917D03*
X012480Y013492D03*
X011102Y009752D03*
X012086Y008570D03*
X008937Y006996D03*
X006968Y004240D03*
X012677Y019397D03*
X014252Y019397D03*
D19*
X004055Y020342D02*
X004055Y003492D01*
X004930Y003492D01*
X004825Y003598D01*
X004758Y003759D01*
X004758Y003933D01*
X004825Y004095D01*
X004948Y004218D01*
X005001Y004240D01*
X004948Y004262D01*
X004825Y004385D01*
X004758Y004546D01*
X004758Y004721D01*
X004825Y004882D01*
X004948Y005005D01*
X005001Y005027D01*
X004948Y005049D01*
X004825Y005172D01*
X004758Y005334D01*
X004758Y005508D01*
X004825Y005669D01*
X004948Y005793D01*
X005001Y005815D01*
X004948Y005836D01*
X004825Y005960D01*
X004758Y006121D01*
X004758Y006296D01*
X004825Y006457D01*
X004948Y006580D01*
X005001Y006602D01*
X004948Y006624D01*
X004825Y006747D01*
X004758Y006908D01*
X004758Y007083D01*
X004825Y007244D01*
X004948Y007368D01*
X005001Y007389D01*
X004948Y007411D01*
X004825Y007535D01*
X004758Y007696D01*
X004758Y007870D01*
X004825Y008032D01*
X004948Y008155D01*
X005001Y008177D01*
X004948Y008199D01*
X004825Y008322D01*
X004758Y008483D01*
X004758Y008658D01*
X004825Y008819D01*
X004948Y008942D01*
X005001Y008964D01*
X004948Y008986D01*
X004825Y009109D01*
X004758Y009271D01*
X004758Y009445D01*
X004825Y009606D01*
X004948Y009730D01*
X005001Y009752D01*
X004948Y009773D01*
X004825Y009897D01*
X004758Y010058D01*
X004758Y010233D01*
X004825Y010394D01*
X004948Y010517D01*
X005001Y010539D01*
X004948Y010561D01*
X004825Y010684D01*
X004758Y010845D01*
X004758Y011020D01*
X004825Y011181D01*
X004948Y011305D01*
X005109Y011371D01*
X005284Y011371D01*
X005445Y011305D01*
X005568Y011181D01*
X005635Y011020D01*
X005635Y010845D01*
X005568Y010684D01*
X005445Y010561D01*
X005393Y010539D01*
X005445Y010517D01*
X005568Y010394D01*
X005635Y010233D01*
X005635Y010058D01*
X005568Y009897D01*
X005445Y009773D01*
X005393Y009752D01*
X005445Y009730D01*
X005568Y009606D01*
X005635Y009445D01*
X005635Y009271D01*
X005568Y009109D01*
X005445Y008986D01*
X006611Y008986D01*
X006767Y008830D02*
X005558Y008830D01*
X005568Y008819D02*
X005445Y008942D01*
X005393Y008964D01*
X005445Y008986D01*
X005582Y009142D02*
X006455Y009142D01*
X006299Y009298D02*
X005635Y009298D01*
X005632Y009454D02*
X006143Y009454D01*
X005987Y009610D02*
X005565Y009610D01*
X005427Y009766D02*
X005831Y009766D01*
X005886Y009711D02*
X008580Y007017D01*
X008580Y006925D01*
X008634Y006794D01*
X008735Y006693D01*
X008866Y006639D01*
X009008Y006639D01*
X009139Y006693D01*
X009239Y006794D01*
X009294Y006925D01*
X009294Y007067D01*
X009239Y007198D01*
X009139Y007298D01*
X009008Y007353D01*
X008916Y007353D01*
X006221Y010047D01*
X006221Y012290D01*
X006247Y012290D01*
X006340Y012383D01*
X006340Y012829D01*
X006267Y012901D01*
X006340Y012973D01*
X006340Y013420D01*
X006247Y013513D01*
X006005Y013513D01*
X005662Y013856D01*
X005662Y014097D01*
X005710Y014144D01*
X005710Y014748D01*
X005662Y014796D01*
X005662Y016124D01*
X005710Y016172D01*
X005710Y016776D01*
X005617Y016869D01*
X005229Y016869D01*
X005136Y016776D01*
X005136Y016172D01*
X005184Y016124D01*
X005184Y014796D01*
X005136Y014748D01*
X005136Y014144D01*
X005184Y014097D01*
X005184Y013659D01*
X005324Y013519D01*
X005628Y013214D01*
X005628Y012973D01*
X005700Y012901D01*
X005628Y012829D01*
X005628Y012383D01*
X005721Y012290D01*
X005746Y012290D01*
X005746Y009850D01*
X005886Y009711D01*
X005746Y009922D02*
X005579Y009922D01*
X005635Y010078D02*
X005746Y010078D01*
X005746Y010234D02*
X005635Y010234D01*
X005570Y010390D02*
X005746Y010390D01*
X005746Y010546D02*
X005409Y010546D01*
X005576Y010702D02*
X005746Y010702D01*
X005746Y010858D02*
X005635Y010858D01*
X005635Y011014D02*
X005746Y011014D01*
X005746Y011170D02*
X005573Y011170D01*
X005746Y011326D02*
X005394Y011326D01*
X005746Y011482D02*
X004055Y011482D01*
X004055Y011638D02*
X005746Y011638D01*
X005746Y011794D02*
X004055Y011794D01*
X004055Y011950D02*
X005746Y011950D01*
X005746Y012106D02*
X004055Y012106D01*
X004055Y012262D02*
X005746Y012262D01*
X005628Y012417D02*
X004055Y012417D01*
X004055Y012573D02*
X005628Y012573D01*
X005628Y012729D02*
X004055Y012729D01*
X004055Y012885D02*
X005685Y012885D01*
X005628Y013041D02*
X004055Y013041D01*
X004055Y013197D02*
X005628Y013197D01*
X005489Y013353D02*
X004055Y013353D01*
X004055Y013509D02*
X005333Y013509D01*
X005184Y013665D02*
X004055Y013665D01*
X004055Y013821D02*
X005184Y013821D01*
X005184Y013977D02*
X004055Y013977D01*
X004055Y014133D02*
X004287Y014133D01*
X004282Y014141D02*
X004305Y014100D01*
X004339Y014067D01*
X004379Y014044D01*
X004425Y014031D01*
X004576Y014031D01*
X004576Y014446D01*
X004576Y014446D01*
X004270Y014446D01*
X004270Y014187D01*
X004282Y014141D01*
X004270Y014289D02*
X004055Y014289D01*
X004055Y014445D02*
X004270Y014445D01*
X004270Y014446D02*
X004576Y014446D01*
X004576Y014446D01*
X004576Y014031D01*
X004728Y014031D01*
X004773Y014044D01*
X004814Y014067D01*
X004847Y014100D01*
X004871Y014141D01*
X004883Y014187D01*
X004883Y014446D01*
X004576Y014446D01*
X004576Y014446D01*
X004576Y014861D01*
X004425Y014861D01*
X004379Y014849D01*
X004339Y014826D01*
X004305Y014792D01*
X004282Y014752D01*
X004270Y014706D01*
X004270Y014446D01*
X004270Y014601D02*
X004055Y014601D01*
X004055Y014757D02*
X004285Y014757D01*
X004055Y014913D02*
X005184Y014913D01*
X005184Y015069D02*
X004055Y015069D01*
X004055Y015225D02*
X005184Y015225D01*
X005184Y015381D02*
X004055Y015381D01*
X004055Y015537D02*
X005184Y015537D01*
X005184Y015693D02*
X004055Y015693D01*
X004055Y015849D02*
X005184Y015849D01*
X005184Y016005D02*
X004055Y016005D01*
X004055Y016161D02*
X004286Y016161D01*
X004282Y016169D02*
X004305Y016128D01*
X004339Y016095D01*
X004379Y016071D01*
X004425Y016059D01*
X004576Y016059D01*
X004576Y016474D01*
X004270Y016474D01*
X004270Y016214D01*
X004282Y016169D01*
X004270Y016317D02*
X004055Y016317D01*
X004055Y016473D02*
X004270Y016473D01*
X004270Y016474D02*
X004576Y016474D01*
X004576Y016474D01*
X004576Y016474D01*
X004576Y016889D01*
X004425Y016889D01*
X004379Y016877D01*
X004339Y016853D01*
X004305Y016820D01*
X004282Y016779D01*
X004270Y016734D01*
X004270Y016474D01*
X004270Y016629D02*
X004055Y016629D01*
X004055Y016785D02*
X004285Y016785D01*
X004055Y016941D02*
X006750Y016941D01*
X006750Y016893D02*
X006762Y016848D01*
X006786Y016807D01*
X006819Y016774D01*
X006860Y016750D01*
X006905Y016738D01*
X007165Y016738D01*
X007165Y017271D01*
X007323Y017271D01*
X007323Y017429D01*
X007737Y017429D01*
X007737Y017807D01*
X007725Y017852D01*
X007702Y017893D01*
X007668Y017926D01*
X007628Y017950D01*
X007582Y017962D01*
X007323Y017962D01*
X007323Y017429D01*
X007165Y017429D01*
X007165Y017962D01*
X006905Y017962D01*
X006860Y017950D01*
X006819Y017926D01*
X006786Y017893D01*
X006762Y017852D01*
X006750Y017807D01*
X006750Y017429D01*
X007165Y017429D01*
X007165Y017271D01*
X006750Y017271D01*
X006750Y016893D01*
X006808Y016785D02*
X005701Y016785D01*
X005710Y016629D02*
X008502Y016629D01*
X008502Y016785D02*
X007680Y016785D01*
X007668Y016774D02*
X007702Y016807D01*
X007725Y016848D01*
X007737Y016893D01*
X007737Y017271D01*
X007323Y017271D01*
X007323Y016738D01*
X007582Y016738D01*
X007628Y016750D01*
X007668Y016774D01*
X007737Y016941D02*
X008502Y016941D01*
X008502Y017097D02*
X007737Y017097D01*
X007737Y017253D02*
X008502Y017253D01*
X008502Y017330D02*
X008502Y016328D01*
X007729Y016328D01*
X007636Y016235D01*
X007636Y015080D01*
X007729Y014987D01*
X008109Y014987D01*
X008109Y014833D01*
X008082Y014833D01*
X007989Y014740D01*
X007989Y014212D01*
X008082Y014119D01*
X008610Y014119D01*
X008703Y014212D01*
X008703Y014740D01*
X008610Y014833D01*
X008584Y014833D01*
X008584Y014987D01*
X008648Y014987D01*
X008741Y015080D01*
X008741Y015716D01*
X008838Y015813D01*
X008977Y015952D01*
X008977Y017527D01*
X008593Y017911D01*
X008593Y017923D01*
X008601Y017916D01*
X008641Y017892D01*
X008687Y017880D01*
X008848Y017880D01*
X008848Y018413D01*
X008848Y018946D01*
X008687Y018946D01*
X008641Y018934D01*
X008601Y018910D01*
X008588Y018898D01*
X008560Y018926D01*
X008152Y018926D01*
X008059Y018833D01*
X008059Y017993D01*
X008118Y017934D01*
X008118Y017714D01*
X008258Y017575D01*
X008502Y017330D01*
X008424Y017409D02*
X007323Y017409D01*
X007323Y017565D02*
X007165Y017565D01*
X007165Y017721D02*
X007323Y017721D01*
X007323Y017877D02*
X007165Y017877D01*
X006777Y017877D02*
X005710Y017877D01*
X005720Y017786D02*
X005710Y017776D01*
X005710Y017776D01*
X005710Y018095D01*
X005660Y018144D01*
X005660Y019469D01*
X005710Y019518D01*
X005710Y020122D01*
X005617Y020215D01*
X005229Y020215D01*
X005136Y020122D01*
X005136Y019518D01*
X005185Y019469D01*
X005185Y018144D01*
X005136Y018095D01*
X005136Y017491D01*
X005229Y017398D01*
X005375Y017398D01*
X005374Y017379D01*
X005424Y017319D01*
X005464Y017252D01*
X005487Y017246D01*
X005502Y017228D01*
X005580Y017222D01*
X005627Y017210D01*
X005627Y017165D01*
X005720Y017072D01*
X006248Y017072D01*
X006341Y017165D01*
X006341Y017693D01*
X006248Y017786D01*
X005720Y017786D01*
X005710Y018033D02*
X008059Y018033D01*
X008059Y018189D02*
X005660Y018189D01*
X005660Y018345D02*
X008059Y018345D01*
X008059Y018501D02*
X005660Y018501D01*
X005660Y018657D02*
X008059Y018657D01*
X008059Y018813D02*
X005660Y018813D01*
X005660Y018969D02*
X009198Y018969D01*
X009137Y018926D02*
X009108Y018898D01*
X009096Y018910D01*
X009055Y018934D01*
X009009Y018946D01*
X008848Y018946D01*
X008848Y018413D01*
X008848Y018413D01*
X008848Y018413D01*
X008848Y017880D01*
X009009Y017880D01*
X009055Y017892D01*
X009096Y017916D01*
X009103Y017923D01*
X009103Y009053D01*
X013424Y004732D01*
X013419Y004721D01*
X013419Y004546D01*
X013486Y004385D01*
X013586Y004285D01*
X013512Y004285D01*
X013419Y004192D01*
X013419Y004084D01*
X011594Y004084D01*
X010158Y005519D01*
X010019Y005658D01*
X008444Y005658D01*
X005631Y008472D01*
X005635Y008483D01*
X005635Y008658D01*
X005568Y008819D01*
X005629Y008674D02*
X006923Y008674D01*
X007079Y008518D02*
X005635Y008518D01*
X005741Y008362D02*
X007234Y008362D01*
X007390Y008206D02*
X005897Y008206D01*
X006053Y008050D02*
X007546Y008050D01*
X007702Y007894D02*
X006209Y007894D01*
X006365Y007738D02*
X007858Y007738D01*
X008014Y007582D02*
X006521Y007582D01*
X006677Y007426D02*
X008170Y007426D01*
X008326Y007270D02*
X006833Y007270D01*
X006989Y007114D02*
X008482Y007114D01*
X008580Y006958D02*
X007145Y006958D01*
X007301Y006802D02*
X008631Y006802D01*
X008848Y006646D02*
X007457Y006646D01*
X007613Y006490D02*
X011665Y006490D01*
X011509Y006646D02*
X009026Y006646D01*
X009243Y006802D02*
X011353Y006802D01*
X011197Y006958D02*
X009294Y006958D01*
X009274Y007114D02*
X011041Y007114D01*
X010885Y007270D02*
X009167Y007270D01*
X008937Y006996D02*
X005984Y009948D01*
X005984Y012606D01*
X006221Y012262D02*
X009103Y012262D01*
X009103Y012417D02*
X006340Y012417D01*
X006340Y012573D02*
X009103Y012573D01*
X009103Y012729D02*
X006340Y012729D01*
X006283Y012885D02*
X009103Y012885D01*
X009103Y013041D02*
X006340Y013041D01*
X006340Y013197D02*
X009103Y013197D01*
X009103Y013353D02*
X006340Y013353D01*
X006250Y013509D02*
X009103Y013509D01*
X009103Y013665D02*
X005853Y013665D01*
X005697Y013821D02*
X009103Y013821D01*
X009103Y013977D02*
X005662Y013977D01*
X005698Y014133D02*
X008068Y014133D01*
X007989Y014289D02*
X005710Y014289D01*
X005710Y014445D02*
X007989Y014445D01*
X007989Y014601D02*
X005710Y014601D01*
X005701Y014757D02*
X008007Y014757D01*
X008109Y014913D02*
X005662Y014913D01*
X005662Y015069D02*
X006373Y015069D01*
X006369Y015076D02*
X006392Y015036D01*
X006425Y015002D01*
X006466Y014979D01*
X006512Y014967D01*
X006850Y014967D01*
X006850Y015578D01*
X007008Y015578D01*
X007008Y015736D01*
X007501Y015736D01*
X007501Y016192D01*
X007489Y016238D01*
X007466Y016279D01*
X007432Y016312D01*
X007391Y016335D01*
X007346Y016348D01*
X007008Y016348D01*
X007008Y015736D01*
X006850Y015736D01*
X006850Y016348D01*
X006512Y016348D01*
X006466Y016335D01*
X006425Y016312D01*
X006392Y016279D01*
X006369Y016238D01*
X006356Y016192D01*
X006356Y015736D01*
X006850Y015736D01*
X006850Y015578D01*
X006356Y015578D01*
X006356Y015122D01*
X006369Y015076D01*
X006356Y015225D02*
X005662Y015225D01*
X005662Y015381D02*
X006356Y015381D01*
X006356Y015537D02*
X005662Y015537D01*
X005662Y015693D02*
X006850Y015693D01*
X006850Y015537D02*
X007008Y015537D01*
X007008Y015578D02*
X007008Y014967D01*
X007346Y014967D01*
X007391Y014979D01*
X007432Y015002D01*
X007466Y015036D01*
X007489Y015076D01*
X007501Y015122D01*
X007501Y015578D01*
X007008Y015578D01*
X007008Y015693D02*
X007636Y015693D01*
X007636Y015537D02*
X007501Y015537D01*
X007501Y015381D02*
X007636Y015381D01*
X007636Y015225D02*
X007501Y015225D01*
X007485Y015069D02*
X007647Y015069D01*
X007636Y015849D02*
X007501Y015849D01*
X007501Y016005D02*
X007636Y016005D01*
X007636Y016161D02*
X007501Y016161D01*
X007423Y016317D02*
X007719Y016317D01*
X007323Y016785D02*
X007165Y016785D01*
X007165Y016941D02*
X007323Y016941D01*
X007323Y017097D02*
X007165Y017097D01*
X007165Y017253D02*
X007323Y017253D01*
X007165Y017409D02*
X006341Y017409D01*
X006341Y017565D02*
X006750Y017565D01*
X006750Y017721D02*
X006313Y017721D01*
X006341Y017253D02*
X006750Y017253D01*
X006750Y017097D02*
X006273Y017097D01*
X006434Y016317D02*
X005710Y016317D01*
X005710Y016473D02*
X008502Y016473D01*
X008740Y016051D02*
X008740Y017429D01*
X008356Y017813D01*
X008356Y018413D01*
X008118Y017877D02*
X007711Y017877D01*
X007737Y017721D02*
X008118Y017721D01*
X008268Y017565D02*
X007737Y017565D01*
X007008Y016317D02*
X006850Y016317D01*
X006850Y016161D02*
X007008Y016161D01*
X007008Y016005D02*
X006850Y016005D01*
X006850Y015849D02*
X007008Y015849D01*
X007008Y015381D02*
X006850Y015381D01*
X006850Y015225D02*
X007008Y015225D01*
X007008Y015069D02*
X006850Y015069D01*
X006356Y015849D02*
X005662Y015849D01*
X005662Y016005D02*
X006356Y016005D01*
X006356Y016161D02*
X005699Y016161D01*
X005695Y017097D02*
X004055Y017097D01*
X004055Y017253D02*
X005464Y017253D01*
X005218Y017409D02*
X004806Y017409D01*
X004814Y017414D02*
X004847Y017447D01*
X004871Y017488D01*
X004883Y017533D01*
X004883Y017793D01*
X004883Y018053D01*
X004871Y018098D01*
X004847Y018139D01*
X004814Y018172D01*
X004773Y018196D01*
X004728Y018208D01*
X004576Y018208D01*
X004425Y018208D01*
X004379Y018196D01*
X004339Y018172D01*
X004305Y018139D01*
X004282Y018098D01*
X004270Y018053D01*
X004270Y017793D01*
X004576Y017793D01*
X004576Y017793D01*
X004270Y017793D01*
X004270Y017533D01*
X004282Y017488D01*
X004305Y017447D01*
X004339Y017414D01*
X004379Y017390D01*
X004425Y017378D01*
X004576Y017378D01*
X004576Y017793D01*
X004576Y018208D01*
X004576Y017793D01*
X004576Y017793D01*
X004576Y017793D01*
X004576Y017378D01*
X004728Y017378D01*
X004773Y017390D01*
X004814Y017414D01*
X004883Y017565D02*
X005136Y017565D01*
X005136Y017721D02*
X004883Y017721D01*
X004883Y017793D02*
X004576Y017793D01*
X004883Y017793D01*
X004883Y017877D02*
X005136Y017877D01*
X005136Y018033D02*
X004883Y018033D01*
X004785Y018189D02*
X005185Y018189D01*
X005185Y018345D02*
X004055Y018345D01*
X004055Y018501D02*
X005185Y018501D01*
X005185Y018657D02*
X004055Y018657D01*
X004055Y018813D02*
X005185Y018813D01*
X005185Y018969D02*
X004055Y018969D01*
X004055Y019125D02*
X005185Y019125D01*
X005185Y019281D02*
X004055Y019281D01*
X004055Y019437D02*
X004347Y019437D01*
X004339Y019441D02*
X004379Y019418D01*
X004425Y019406D01*
X004576Y019406D01*
X004576Y019820D01*
X004576Y019820D01*
X004270Y019820D01*
X004270Y019561D01*
X004282Y019515D01*
X004305Y019475D01*
X004339Y019441D01*
X004270Y019593D02*
X004055Y019593D01*
X004055Y019749D02*
X004270Y019749D01*
X004270Y019820D02*
X004576Y019820D01*
X004576Y019820D01*
X004576Y019406D01*
X004728Y019406D01*
X004773Y019418D01*
X004814Y019441D01*
X004847Y019475D01*
X004871Y019515D01*
X004883Y019561D01*
X004883Y019820D01*
X004576Y019820D01*
X004576Y019820D01*
X004576Y020235D01*
X004425Y020235D01*
X004379Y020223D01*
X004339Y020200D01*
X004305Y020166D01*
X004282Y020126D01*
X004270Y020080D01*
X004270Y019820D01*
X004270Y019905D02*
X004055Y019905D01*
X004055Y020061D02*
X004270Y020061D01*
X004368Y020217D02*
X004055Y020217D01*
X004055Y020342D02*
X008826Y020342D01*
X008776Y020293D01*
X008641Y019967D01*
X008641Y019615D01*
X008776Y019289D01*
X009025Y019040D01*
X009300Y018926D01*
X009137Y018926D01*
X008941Y019125D02*
X005660Y019125D01*
X005660Y019281D02*
X008785Y019281D01*
X008715Y019437D02*
X005660Y019437D01*
X005710Y019593D02*
X008651Y019593D01*
X008641Y019749D02*
X005710Y019749D01*
X005710Y019905D02*
X008641Y019905D01*
X008680Y020061D02*
X005710Y020061D01*
X005423Y019820D02*
X005423Y017793D01*
X005145Y016785D02*
X004868Y016785D01*
X004871Y016779D02*
X004847Y016820D01*
X004814Y016853D01*
X004773Y016877D01*
X004728Y016889D01*
X004576Y016889D01*
X004576Y016474D01*
X004576Y016474D01*
X004576Y016059D01*
X004728Y016059D01*
X004773Y016071D01*
X004814Y016095D01*
X004847Y016128D01*
X004871Y016169D01*
X004883Y016214D01*
X004883Y016474D01*
X004576Y016474D01*
X004883Y016474D01*
X004883Y016734D01*
X004871Y016779D01*
X004883Y016629D02*
X005136Y016629D01*
X005136Y016473D02*
X004883Y016473D01*
X004883Y016317D02*
X005136Y016317D01*
X005147Y016161D02*
X004866Y016161D01*
X004576Y016161D02*
X004576Y016161D01*
X004576Y016317D02*
X004576Y016317D01*
X004576Y016473D02*
X004576Y016473D01*
X004576Y016474D02*
X004576Y016474D01*
X004576Y016629D02*
X004576Y016629D01*
X004576Y016785D02*
X004576Y016785D01*
X004576Y017409D02*
X004576Y017409D01*
X004576Y017565D02*
X004576Y017565D01*
X004576Y017721D02*
X004576Y017721D01*
X004576Y017793D02*
X004576Y017793D01*
X004576Y017877D02*
X004576Y017877D01*
X004576Y018033D02*
X004576Y018033D01*
X004576Y018189D02*
X004576Y018189D01*
X004368Y018189D02*
X004055Y018189D01*
X004055Y018033D02*
X004270Y018033D01*
X004270Y017877D02*
X004055Y017877D01*
X004055Y017721D02*
X004270Y017721D01*
X004270Y017565D02*
X004055Y017565D01*
X004055Y017409D02*
X004347Y017409D01*
X004576Y019437D02*
X004576Y019437D01*
X004576Y019593D02*
X004576Y019593D01*
X004576Y019749D02*
X004576Y019749D01*
X004576Y019820D02*
X004883Y019820D01*
X004883Y020080D01*
X004871Y020126D01*
X004847Y020166D01*
X004814Y020200D01*
X004773Y020223D01*
X004728Y020235D01*
X004576Y020235D01*
X004576Y019820D01*
X004576Y019820D01*
X004576Y019905D02*
X004576Y019905D01*
X004576Y020061D02*
X004576Y020061D01*
X004576Y020217D02*
X004576Y020217D01*
X004785Y020217D02*
X008745Y020217D01*
X008848Y018813D02*
X008848Y018813D01*
X008848Y018657D02*
X008848Y018657D01*
X008848Y018501D02*
X008848Y018501D01*
X008848Y018345D02*
X008848Y018345D01*
X008848Y018189D02*
X008848Y018189D01*
X008848Y018033D02*
X008848Y018033D01*
X008628Y017877D02*
X009103Y017877D01*
X009103Y017721D02*
X008784Y017721D01*
X008940Y017565D02*
X009103Y017565D01*
X009103Y017409D02*
X008977Y017409D01*
X008977Y017253D02*
X009103Y017253D01*
X009103Y017097D02*
X008977Y017097D01*
X008977Y016941D02*
X009103Y016941D01*
X009103Y016785D02*
X008977Y016785D01*
X008977Y016629D02*
X009103Y016629D01*
X009103Y016473D02*
X008977Y016473D01*
X008977Y016317D02*
X009103Y016317D01*
X009103Y016161D02*
X008977Y016161D01*
X008977Y016005D02*
X009103Y016005D01*
X009103Y015849D02*
X008874Y015849D01*
X008741Y015693D02*
X009103Y015693D01*
X009103Y015537D02*
X008741Y015537D01*
X008741Y015381D02*
X009103Y015381D01*
X009103Y015225D02*
X008741Y015225D01*
X008731Y015069D02*
X009103Y015069D01*
X009103Y014913D02*
X008584Y014913D01*
X008686Y014757D02*
X009103Y014757D01*
X009103Y014601D02*
X008703Y014601D01*
X008703Y014445D02*
X009103Y014445D01*
X009103Y014289D02*
X008703Y014289D01*
X008624Y014133D02*
X009103Y014133D01*
X008346Y014476D02*
X008346Y015657D01*
X008189Y015657D01*
X008346Y015657D02*
X008740Y016051D01*
X010070Y016005D02*
X010579Y016005D01*
X010579Y015849D02*
X010070Y015849D01*
X010070Y015693D02*
X010579Y015693D01*
X010579Y015537D02*
X010070Y015537D01*
X010070Y015381D02*
X010579Y015381D01*
X010579Y015225D02*
X010070Y015225D01*
X010070Y015069D02*
X010579Y015069D01*
X010579Y014913D02*
X010070Y014913D01*
X010070Y014757D02*
X010579Y014757D01*
X010579Y014601D02*
X010070Y014601D01*
X010070Y014445D02*
X010579Y014445D01*
X010579Y014289D02*
X010070Y014289D01*
X010070Y014133D02*
X010579Y014133D01*
X010579Y013977D02*
X010070Y013977D01*
X010070Y013821D02*
X010579Y013821D01*
X010579Y013665D02*
X010070Y013665D01*
X010070Y013509D02*
X010579Y013509D01*
X010579Y013353D02*
X010070Y013353D01*
X010070Y013197D02*
X010500Y013197D01*
X010506Y013204D02*
X010406Y013103D01*
X010351Y012972D01*
X010351Y012830D01*
X010406Y012699D01*
X010506Y012599D01*
X010637Y012544D01*
X010779Y012544D01*
X010910Y012599D01*
X011011Y012699D01*
X011065Y012830D01*
X011065Y012972D01*
X011054Y012999D01*
X011054Y017934D01*
X011063Y017942D01*
X011071Y017934D01*
X011071Y010108D01*
X011031Y010108D01*
X010900Y010054D01*
X010800Y009954D01*
X010745Y009823D01*
X010745Y009681D01*
X010800Y009549D01*
X010900Y009449D01*
X011031Y009395D01*
X011173Y009395D01*
X011304Y009449D01*
X011405Y009549D01*
X011459Y009681D01*
X011459Y009773D01*
X011546Y009860D01*
X011546Y017934D01*
X011555Y017942D01*
X011563Y017934D01*
X011563Y012104D01*
X011702Y011965D01*
X011729Y011938D01*
X011729Y011846D01*
X011784Y011715D01*
X011884Y011614D01*
X012015Y011560D01*
X012157Y011560D01*
X012288Y011614D01*
X012389Y011715D01*
X012443Y011846D01*
X012443Y011988D01*
X012389Y012119D01*
X012288Y012219D01*
X012157Y012274D01*
X012065Y012274D01*
X012038Y012301D01*
X012038Y017934D01*
X012047Y017942D01*
X012055Y017934D01*
X012055Y013580D01*
X012123Y013513D01*
X012123Y013421D01*
X012177Y013290D01*
X012278Y013189D01*
X012409Y013135D01*
X012551Y013135D01*
X012682Y013189D01*
X012783Y013290D01*
X012837Y013421D01*
X012837Y013563D01*
X012783Y013694D01*
X012682Y013794D01*
X012551Y013849D01*
X012530Y013849D01*
X012530Y017934D01*
X012539Y017942D01*
X012582Y017900D01*
X012989Y017900D01*
X013031Y017942D01*
X013040Y017934D01*
X013040Y009053D01*
X013179Y008914D01*
X013424Y008669D01*
X013419Y008658D01*
X013419Y008483D01*
X013486Y008322D01*
X013609Y008199D01*
X013662Y008177D01*
X013609Y008155D01*
X013486Y008032D01*
X013419Y007870D01*
X013419Y007696D01*
X013486Y007535D01*
X013609Y007411D01*
X013662Y007389D01*
X013609Y007368D01*
X013486Y007244D01*
X013419Y007083D01*
X013419Y006908D01*
X013486Y006747D01*
X013609Y006624D01*
X013662Y006602D01*
X013609Y006580D01*
X013486Y006457D01*
X013419Y006296D01*
X013419Y006195D01*
X010070Y009545D01*
X010070Y016284D01*
X010578Y016284D01*
X010579Y016285D01*
X010579Y013234D01*
X010506Y013204D01*
X010380Y013041D02*
X010070Y013041D01*
X010070Y012885D02*
X010351Y012885D01*
X010393Y012729D02*
X010070Y012729D01*
X010070Y012573D02*
X010567Y012573D01*
X010850Y012573D02*
X011071Y012573D01*
X011071Y012417D02*
X010070Y012417D01*
X010070Y012262D02*
X011071Y012262D01*
X011071Y012106D02*
X010070Y012106D01*
X010070Y011950D02*
X011071Y011950D01*
X011071Y011794D02*
X010070Y011794D01*
X010070Y011638D02*
X011071Y011638D01*
X011071Y011482D02*
X010070Y011482D01*
X010070Y011326D02*
X011071Y011326D01*
X011071Y011170D02*
X010070Y011170D01*
X010070Y011014D02*
X011071Y011014D01*
X011071Y010858D02*
X010070Y010858D01*
X010070Y010702D02*
X011071Y010702D01*
X011071Y010546D02*
X010070Y010546D01*
X010070Y010390D02*
X011071Y010390D01*
X011071Y010234D02*
X010070Y010234D01*
X010070Y010078D02*
X010957Y010078D01*
X010786Y009922D02*
X010070Y009922D01*
X010070Y009766D02*
X010745Y009766D01*
X010774Y009610D02*
X010070Y009610D01*
X010161Y009454D02*
X010895Y009454D01*
X011102Y009752D02*
X011309Y009958D01*
X011309Y018413D01*
X011555Y018884D02*
X011512Y018926D01*
X011105Y018926D01*
X011063Y018884D01*
X011020Y018926D01*
X010613Y018926D01*
X010571Y018884D01*
X010528Y018926D01*
X010121Y018926D01*
X010078Y018884D01*
X010036Y018926D01*
X009754Y018926D01*
X010029Y019040D01*
X010278Y019289D01*
X010413Y019615D01*
X010413Y019967D01*
X010278Y020293D01*
X010229Y020342D01*
X015000Y020342D01*
X015000Y017962D01*
X014960Y017962D01*
X014960Y017429D01*
X014803Y017429D01*
X014803Y017962D01*
X014543Y017962D01*
X014498Y017950D01*
X014457Y017926D01*
X014424Y017893D01*
X014400Y017852D01*
X014388Y017807D01*
X014388Y017429D01*
X014803Y017429D01*
X014803Y017271D01*
X014960Y017271D01*
X014960Y016738D01*
X015000Y016738D01*
X015000Y003492D01*
X014288Y003492D01*
X014297Y003500D01*
X014297Y004192D01*
X014204Y004285D01*
X014130Y004285D01*
X014230Y004385D01*
X014297Y004546D01*
X014297Y004721D01*
X014230Y004882D01*
X014106Y005005D01*
X014054Y005027D01*
X014106Y005049D01*
X014230Y005172D01*
X014297Y005334D01*
X014297Y005508D01*
X014230Y005669D01*
X014106Y005793D01*
X014054Y005815D01*
X014106Y005836D01*
X014230Y005960D01*
X014297Y006121D01*
X014297Y006296D01*
X014230Y006457D01*
X014106Y006580D01*
X014054Y006602D01*
X014106Y006624D01*
X014230Y006747D01*
X014297Y006908D01*
X014297Y007083D01*
X014230Y007244D01*
X014106Y007368D01*
X014054Y007389D01*
X014106Y007411D01*
X014230Y007535D01*
X014297Y007696D01*
X014297Y007870D01*
X014230Y008032D01*
X014106Y008155D01*
X014054Y008177D01*
X014106Y008199D01*
X014230Y008322D01*
X014297Y008483D01*
X014297Y008658D01*
X014230Y008819D01*
X014106Y008942D01*
X014054Y008964D01*
X014106Y008986D01*
X015000Y008986D01*
X015000Y009142D02*
X014243Y009142D01*
X014230Y009109D02*
X014297Y009271D01*
X014297Y009445D01*
X014230Y009606D01*
X014106Y009730D01*
X014054Y009752D01*
X014106Y009773D01*
X014230Y009897D01*
X014297Y010058D01*
X014297Y010233D01*
X014230Y010394D01*
X014106Y010517D01*
X014077Y010529D01*
X014098Y010540D01*
X014157Y010583D01*
X014208Y010634D01*
X014250Y010692D01*
X014283Y010757D01*
X014305Y010825D01*
X014317Y010897D01*
X014317Y010933D01*
X014317Y010969D01*
X014305Y011040D01*
X014283Y011109D01*
X014250Y011173D01*
X014208Y011232D01*
X014157Y011283D01*
X014098Y011325D01*
X014034Y011358D01*
X013965Y011380D01*
X013894Y011391D01*
X013858Y011391D01*
X013858Y010933D01*
X013858Y010933D01*
X013858Y011391D01*
X013822Y011391D01*
X013751Y011380D01*
X013682Y011358D01*
X013618Y011325D01*
X013559Y011283D01*
X013515Y011238D01*
X013515Y017934D01*
X013523Y017942D01*
X013566Y017900D01*
X013973Y017900D01*
X014066Y017993D01*
X014066Y018833D01*
X014045Y018854D01*
X014231Y019040D01*
X014323Y019040D01*
X014454Y019095D01*
X014554Y019195D01*
X014608Y019326D01*
X014608Y019468D01*
X014554Y019599D01*
X014454Y019700D01*
X014323Y019754D01*
X014181Y019754D01*
X014050Y019700D01*
X013949Y019599D01*
X013895Y019468D01*
X013895Y019376D01*
X013532Y019013D01*
X013532Y018892D01*
X013523Y018884D01*
X013481Y018926D01*
X013074Y018926D01*
X013031Y018884D01*
X013023Y018892D01*
X013023Y019299D01*
X013034Y019326D01*
X013034Y019468D01*
X012979Y019599D01*
X012879Y019700D01*
X012748Y019754D01*
X012606Y019754D01*
X012475Y019700D01*
X012374Y019599D01*
X012320Y019468D01*
X012320Y019326D01*
X012374Y019195D01*
X012475Y019095D01*
X012548Y019065D01*
X012548Y018892D01*
X012539Y018884D01*
X012497Y018926D01*
X012089Y018926D01*
X012047Y018884D01*
X012004Y018926D01*
X011597Y018926D01*
X011555Y018884D01*
X011801Y018413D02*
X011801Y012202D01*
X012086Y011917D01*
X012187Y012262D02*
X013040Y012262D01*
X013040Y012417D02*
X012038Y012417D01*
X012038Y012573D02*
X013040Y012573D01*
X013040Y012729D02*
X012038Y012729D01*
X012038Y012885D02*
X013040Y012885D01*
X013040Y013041D02*
X012038Y013041D01*
X012038Y013197D02*
X012270Y013197D01*
X012151Y013353D02*
X012038Y013353D01*
X012038Y013509D02*
X012123Y013509D01*
X012055Y013665D02*
X012038Y013665D01*
X012038Y013821D02*
X012055Y013821D01*
X012038Y013977D02*
X012055Y013977D01*
X012038Y014133D02*
X012055Y014133D01*
X012038Y014289D02*
X012055Y014289D01*
X012038Y014445D02*
X012055Y014445D01*
X012038Y014601D02*
X012055Y014601D01*
X012038Y014757D02*
X012055Y014757D01*
X012038Y014913D02*
X012055Y014913D01*
X012038Y015069D02*
X012055Y015069D01*
X012038Y015225D02*
X012055Y015225D01*
X012038Y015381D02*
X012055Y015381D01*
X012038Y015537D02*
X012055Y015537D01*
X012038Y015693D02*
X012055Y015693D01*
X012038Y015849D02*
X012055Y015849D01*
X012038Y016005D02*
X012055Y016005D01*
X012038Y016161D02*
X012055Y016161D01*
X012038Y016317D02*
X012055Y016317D01*
X012038Y016473D02*
X012055Y016473D01*
X012038Y016629D02*
X012055Y016629D01*
X012038Y016785D02*
X012055Y016785D01*
X012038Y016941D02*
X012055Y016941D01*
X012038Y017097D02*
X012055Y017097D01*
X012038Y017253D02*
X012055Y017253D01*
X012038Y017409D02*
X012055Y017409D01*
X012038Y017565D02*
X012055Y017565D01*
X012038Y017721D02*
X012055Y017721D01*
X012038Y017877D02*
X012055Y017877D01*
X012293Y018413D02*
X012293Y013679D01*
X012480Y013492D01*
X012617Y013821D02*
X013040Y013821D01*
X013040Y013665D02*
X012794Y013665D01*
X012837Y013509D02*
X013040Y013509D01*
X013040Y013353D02*
X012809Y013353D01*
X012690Y013197D02*
X013040Y013197D01*
X013515Y013197D02*
X015000Y013197D01*
X015000Y013041D02*
X013515Y013041D01*
X013515Y012885D02*
X015000Y012885D01*
X015000Y012729D02*
X013515Y012729D01*
X013515Y012573D02*
X015000Y012573D01*
X015000Y012417D02*
X013515Y012417D01*
X013515Y012262D02*
X015000Y012262D01*
X015000Y012106D02*
X013515Y012106D01*
X013515Y011950D02*
X015000Y011950D01*
X015000Y011794D02*
X013515Y011794D01*
X013515Y011638D02*
X015000Y011638D01*
X015000Y011482D02*
X013515Y011482D01*
X013515Y011326D02*
X013619Y011326D01*
X013858Y011326D02*
X013858Y011326D01*
X013858Y011170D02*
X013858Y011170D01*
X013858Y011014D02*
X013858Y011014D01*
X013858Y010933D02*
X014317Y010933D01*
X013858Y010933D01*
X013858Y010933D01*
X014097Y011326D02*
X015000Y011326D01*
X015000Y011170D02*
X014252Y011170D01*
X014310Y011014D02*
X015000Y011014D01*
X015000Y010858D02*
X014311Y010858D01*
X014255Y010702D02*
X015000Y010702D01*
X015000Y010546D02*
X014106Y010546D01*
X014232Y010390D02*
X015000Y010390D01*
X015000Y010234D02*
X014296Y010234D01*
X014297Y010078D02*
X015000Y010078D01*
X015000Y009922D02*
X014240Y009922D01*
X014088Y009766D02*
X015000Y009766D01*
X015000Y009610D02*
X014226Y009610D01*
X014293Y009454D02*
X015000Y009454D01*
X015000Y009298D02*
X014297Y009298D01*
X014230Y009109D02*
X014106Y008986D01*
X014219Y008830D02*
X015000Y008830D01*
X015000Y008674D02*
X014290Y008674D01*
X014297Y008518D02*
X015000Y008518D01*
X015000Y008362D02*
X014246Y008362D01*
X014114Y008206D02*
X015000Y008206D01*
X015000Y008050D02*
X014211Y008050D01*
X014287Y007894D02*
X015000Y007894D01*
X015000Y007738D02*
X014297Y007738D01*
X014250Y007582D02*
X015000Y007582D01*
X015000Y007426D02*
X014121Y007426D01*
X014204Y007270D02*
X015000Y007270D01*
X015000Y007114D02*
X014284Y007114D01*
X014297Y006958D02*
X015000Y006958D01*
X015000Y006802D02*
X014253Y006802D01*
X014129Y006646D02*
X015000Y006646D01*
X015000Y006490D02*
X014196Y006490D01*
X014281Y006334D02*
X015000Y006334D01*
X015000Y006178D02*
X014297Y006178D01*
X014256Y006022D02*
X015000Y006022D01*
X015000Y005866D02*
X014136Y005866D01*
X014189Y005710D02*
X015000Y005710D01*
X015000Y005554D02*
X014278Y005554D01*
X014297Y005398D02*
X015000Y005398D01*
X015000Y005242D02*
X014259Y005242D01*
X014144Y005086D02*
X015000Y005086D01*
X015000Y004930D02*
X014181Y004930D01*
X014274Y004774D02*
X015000Y004774D01*
X015000Y004618D02*
X014297Y004618D01*
X014262Y004462D02*
X015000Y004462D01*
X015000Y004307D02*
X014151Y004307D01*
X014297Y004151D02*
X015000Y004151D01*
X015000Y003995D02*
X014297Y003995D01*
X014297Y003839D02*
X015000Y003839D01*
X015000Y003683D02*
X014297Y003683D01*
X014297Y003527D02*
X015000Y003527D01*
X013858Y003846D02*
X011496Y003846D01*
X009921Y005421D01*
X008346Y005421D01*
X006968Y005421D01*
X006968Y005303D01*
X006830Y005619D02*
X006706Y005619D01*
X006613Y005526D01*
X006613Y005080D01*
X006651Y005041D01*
X006628Y005019D01*
X006605Y004978D01*
X006593Y004933D01*
X006593Y004752D01*
X006968Y004752D01*
X006968Y004752D01*
X007344Y004752D01*
X007344Y004933D01*
X007332Y004978D01*
X007308Y005019D01*
X007286Y005041D01*
X007324Y005080D01*
X007324Y005183D01*
X009823Y005183D01*
X011397Y003609D01*
X013419Y003609D01*
X013419Y003500D01*
X013428Y003492D01*
X010229Y003492D01*
X010278Y003541D01*
X010413Y003867D01*
X010413Y004219D01*
X010278Y004545D01*
X010029Y004794D01*
X009703Y004929D01*
X009351Y004929D01*
X009025Y004794D01*
X008776Y004545D01*
X008641Y004219D01*
X008641Y003867D01*
X008776Y003541D01*
X008826Y003492D01*
X005463Y003492D01*
X005568Y003598D01*
X005635Y003759D01*
X005635Y003933D01*
X005568Y004095D01*
X005445Y004218D01*
X005393Y004240D01*
X005445Y004262D01*
X005568Y004385D01*
X005635Y004546D01*
X005635Y004721D01*
X005568Y004882D01*
X005445Y005005D01*
X005393Y005027D01*
X005445Y005049D01*
X005568Y005172D01*
X005635Y005334D01*
X005635Y005508D01*
X005568Y005669D01*
X005445Y005793D01*
X005393Y005815D01*
X005445Y005836D01*
X005568Y005960D01*
X005635Y006121D01*
X005635Y006296D01*
X005568Y006457D01*
X005445Y006580D01*
X005393Y006602D01*
X005445Y006624D01*
X005568Y006747D01*
X005635Y006908D01*
X005635Y007083D01*
X005568Y007244D01*
X005445Y007368D01*
X005393Y007389D01*
X005445Y007411D01*
X005568Y007535D01*
X005635Y007696D01*
X005635Y007796D01*
X007773Y005658D01*
X006870Y005658D01*
X006830Y005619D01*
X006641Y005554D02*
X005616Y005554D01*
X005635Y005398D02*
X006613Y005398D01*
X006613Y005242D02*
X005597Y005242D01*
X005483Y005086D02*
X006613Y005086D01*
X006593Y004930D02*
X005520Y004930D01*
X005613Y004774D02*
X006593Y004774D01*
X006593Y004752D02*
X006593Y004571D01*
X006605Y004525D01*
X006628Y004484D01*
X006662Y004451D01*
X006702Y004428D01*
X006748Y004415D01*
X006968Y004415D01*
X006968Y004752D01*
X006968Y004752D01*
X006593Y004752D01*
X006593Y004618D02*
X005635Y004618D01*
X005601Y004462D02*
X006650Y004462D01*
X006968Y004462D02*
X006968Y004462D01*
X006968Y004415D02*
X007189Y004415D01*
X007234Y004428D01*
X007275Y004451D01*
X007308Y004484D01*
X007332Y004525D01*
X007344Y004571D01*
X007344Y004752D01*
X006968Y004752D01*
X006968Y004752D01*
X006968Y004415D01*
X006968Y004618D02*
X006968Y004618D01*
X007286Y004462D02*
X008742Y004462D01*
X008678Y004307D02*
X005490Y004307D01*
X005513Y004151D02*
X008641Y004151D01*
X008641Y003995D02*
X005610Y003995D01*
X005635Y003839D02*
X008653Y003839D01*
X008718Y003683D02*
X005604Y003683D01*
X005498Y003527D02*
X008791Y003527D01*
X008850Y004618D02*
X007344Y004618D01*
X007344Y004774D02*
X009006Y004774D01*
X008346Y005421D02*
X005197Y008570D01*
X004941Y008206D02*
X004055Y008206D01*
X004055Y008050D02*
X004843Y008050D01*
X004768Y007894D02*
X004055Y007894D01*
X004055Y007738D02*
X004758Y007738D01*
X004805Y007582D02*
X004055Y007582D01*
X004055Y007426D02*
X004933Y007426D01*
X004851Y007270D02*
X004055Y007270D01*
X004055Y007114D02*
X004771Y007114D01*
X004758Y006958D02*
X004055Y006958D01*
X004055Y006802D02*
X004802Y006802D01*
X004926Y006646D02*
X004055Y006646D01*
X004055Y006490D02*
X004858Y006490D01*
X004774Y006334D02*
X004055Y006334D01*
X004055Y006178D02*
X004758Y006178D01*
X004799Y006022D02*
X004055Y006022D01*
X004055Y005866D02*
X004918Y005866D01*
X004866Y005710D02*
X004055Y005710D01*
X004055Y005554D02*
X004777Y005554D01*
X004758Y005398D02*
X004055Y005398D01*
X004055Y005242D02*
X004796Y005242D01*
X004911Y005086D02*
X004055Y005086D01*
X004055Y004930D02*
X004873Y004930D01*
X004780Y004774D02*
X004055Y004774D01*
X004055Y004618D02*
X004758Y004618D01*
X004792Y004462D02*
X004055Y004462D01*
X004055Y004307D02*
X004903Y004307D01*
X004881Y004151D02*
X004055Y004151D01*
X004055Y003995D02*
X004783Y003995D01*
X004758Y003839D02*
X004055Y003839D01*
X004055Y003683D02*
X004789Y003683D01*
X004896Y003527D02*
X004055Y003527D01*
X005528Y005710D02*
X007721Y005710D01*
X007565Y005866D02*
X005475Y005866D01*
X005594Y006022D02*
X007409Y006022D01*
X007253Y006178D02*
X005635Y006178D01*
X005619Y006334D02*
X007097Y006334D01*
X006941Y006490D02*
X005535Y006490D01*
X005468Y006646D02*
X006785Y006646D01*
X006629Y006802D02*
X005591Y006802D01*
X005635Y006958D02*
X006473Y006958D01*
X006317Y007114D02*
X005622Y007114D01*
X005543Y007270D02*
X006161Y007270D01*
X006005Y007426D02*
X005460Y007426D01*
X005588Y007582D02*
X005849Y007582D01*
X005693Y007738D02*
X005635Y007738D01*
X004948Y008986D02*
X004055Y008986D01*
X004055Y009142D02*
X004811Y009142D01*
X004758Y009298D02*
X004055Y009298D01*
X004055Y009454D02*
X004761Y009454D01*
X004828Y009610D02*
X004055Y009610D01*
X004055Y009766D02*
X004966Y009766D01*
X004814Y009922D02*
X004055Y009922D01*
X004055Y010078D02*
X004758Y010078D01*
X004758Y010234D02*
X004055Y010234D01*
X004055Y010390D02*
X004823Y010390D01*
X004984Y010546D02*
X004055Y010546D01*
X004055Y010702D02*
X004817Y010702D01*
X004758Y010858D02*
X004055Y010858D01*
X004055Y011014D02*
X004758Y011014D01*
X004820Y011170D02*
X004055Y011170D01*
X004055Y011326D02*
X004999Y011326D01*
X006221Y011326D02*
X009103Y011326D01*
X009103Y011482D02*
X006221Y011482D01*
X006221Y011638D02*
X009103Y011638D01*
X009103Y011794D02*
X006221Y011794D01*
X006221Y011950D02*
X009103Y011950D01*
X009103Y012106D02*
X006221Y012106D01*
X006221Y011170D02*
X009103Y011170D01*
X009103Y011014D02*
X006221Y011014D01*
X006221Y010858D02*
X009103Y010858D01*
X009103Y010702D02*
X006221Y010702D01*
X006221Y010546D02*
X009103Y010546D01*
X009103Y010390D02*
X006221Y010390D01*
X006221Y010234D02*
X009103Y010234D01*
X009103Y010078D02*
X006221Y010078D01*
X006346Y009922D02*
X009103Y009922D01*
X009103Y009766D02*
X006502Y009766D01*
X006658Y009610D02*
X009103Y009610D01*
X009103Y009454D02*
X006814Y009454D01*
X006970Y009298D02*
X009103Y009298D01*
X009103Y009142D02*
X007126Y009142D01*
X007282Y008986D02*
X009170Y008986D01*
X009326Y008830D02*
X007438Y008830D01*
X007594Y008674D02*
X009482Y008674D01*
X009638Y008518D02*
X007750Y008518D01*
X007906Y008362D02*
X009794Y008362D01*
X009950Y008206D02*
X008062Y008206D01*
X008218Y008050D02*
X010106Y008050D01*
X010261Y007894D02*
X008374Y007894D01*
X008530Y007738D02*
X010417Y007738D01*
X010573Y007582D02*
X008686Y007582D01*
X008842Y007426D02*
X010729Y007426D01*
X011253Y008362D02*
X013469Y008362D01*
X013419Y008518D02*
X011097Y008518D01*
X010941Y008674D02*
X013419Y008674D01*
X013263Y008830D02*
X010785Y008830D01*
X010629Y008986D02*
X013107Y008986D01*
X013040Y009142D02*
X010473Y009142D01*
X010317Y009298D02*
X013040Y009298D01*
X013040Y009454D02*
X011309Y009454D01*
X011430Y009610D02*
X013040Y009610D01*
X013040Y009766D02*
X011459Y009766D01*
X011546Y009922D02*
X013040Y009922D01*
X013040Y010078D02*
X011546Y010078D01*
X011546Y010234D02*
X013040Y010234D01*
X013040Y010390D02*
X011546Y010390D01*
X011546Y010546D02*
X013040Y010546D01*
X013040Y010702D02*
X011546Y010702D01*
X011546Y010858D02*
X013040Y010858D01*
X013040Y011014D02*
X011546Y011014D01*
X011546Y011170D02*
X013040Y011170D01*
X013040Y011326D02*
X011546Y011326D01*
X011546Y011482D02*
X013040Y011482D01*
X013040Y011638D02*
X012312Y011638D01*
X012421Y011794D02*
X013040Y011794D01*
X013040Y011950D02*
X012443Y011950D01*
X012394Y012106D02*
X013040Y012106D01*
X013515Y013353D02*
X015000Y013353D01*
X015000Y013509D02*
X013515Y013509D01*
X013515Y013665D02*
X015000Y013665D01*
X015000Y013821D02*
X013515Y013821D01*
X013515Y013977D02*
X015000Y013977D01*
X015000Y014133D02*
X013515Y014133D01*
X013515Y014289D02*
X015000Y014289D01*
X015000Y014445D02*
X013515Y014445D01*
X013515Y014601D02*
X015000Y014601D01*
X015000Y014757D02*
X013515Y014757D01*
X013515Y014913D02*
X015000Y014913D01*
X015000Y015069D02*
X013515Y015069D01*
X013515Y015225D02*
X015000Y015225D01*
X015000Y015381D02*
X013515Y015381D01*
X013515Y015537D02*
X015000Y015537D01*
X015000Y015693D02*
X013515Y015693D01*
X013515Y015849D02*
X015000Y015849D01*
X015000Y016005D02*
X013515Y016005D01*
X013515Y016161D02*
X015000Y016161D01*
X015000Y016317D02*
X013515Y016317D01*
X013515Y016473D02*
X015000Y016473D01*
X015000Y016629D02*
X013515Y016629D01*
X013515Y016785D02*
X014446Y016785D01*
X014457Y016774D02*
X014498Y016750D01*
X014543Y016738D01*
X014803Y016738D01*
X014803Y017271D01*
X014388Y017271D01*
X014388Y016893D01*
X014400Y016848D01*
X014424Y016807D01*
X014457Y016774D01*
X014388Y016941D02*
X013515Y016941D01*
X013515Y017097D02*
X014388Y017097D01*
X014388Y017253D02*
X013515Y017253D01*
X013515Y017409D02*
X014803Y017409D01*
X014803Y017565D02*
X014960Y017565D01*
X014960Y017721D02*
X014803Y017721D01*
X014803Y017877D02*
X014960Y017877D01*
X015000Y018033D02*
X014066Y018033D01*
X014066Y018189D02*
X015000Y018189D01*
X015000Y018345D02*
X014066Y018345D01*
X014066Y018501D02*
X015000Y018501D01*
X015000Y018657D02*
X014066Y018657D01*
X014066Y018813D02*
X015000Y018813D01*
X015000Y018969D02*
X014159Y018969D01*
X014484Y019125D02*
X015000Y019125D01*
X015000Y019281D02*
X014590Y019281D01*
X014608Y019437D02*
X015000Y019437D01*
X015000Y019593D02*
X014557Y019593D01*
X014336Y019749D02*
X015000Y019749D01*
X015000Y019905D02*
X010413Y019905D01*
X010413Y019749D02*
X012593Y019749D01*
X012761Y019749D02*
X014167Y019749D01*
X013946Y019593D02*
X012982Y019593D01*
X013034Y019437D02*
X013895Y019437D01*
X013799Y019281D02*
X013023Y019281D01*
X013023Y019125D02*
X013643Y019125D01*
X013532Y018969D02*
X013023Y018969D01*
X012785Y019289D02*
X012785Y018413D01*
X012530Y017877D02*
X013040Y017877D01*
X013040Y017721D02*
X012530Y017721D01*
X012530Y017565D02*
X013040Y017565D01*
X013040Y017409D02*
X012530Y017409D01*
X012530Y017253D02*
X013040Y017253D01*
X013040Y017097D02*
X012530Y017097D01*
X012530Y016941D02*
X013040Y016941D01*
X013040Y016785D02*
X012530Y016785D01*
X012530Y016629D02*
X013040Y016629D01*
X013040Y016473D02*
X012530Y016473D01*
X012530Y016317D02*
X013040Y016317D01*
X013040Y016161D02*
X012530Y016161D01*
X012530Y016005D02*
X013040Y016005D01*
X013040Y015849D02*
X012530Y015849D01*
X012530Y015693D02*
X013040Y015693D01*
X013040Y015537D02*
X012530Y015537D01*
X012530Y015381D02*
X013040Y015381D01*
X013040Y015225D02*
X012530Y015225D01*
X012530Y015069D02*
X013040Y015069D01*
X013040Y014913D02*
X012530Y014913D01*
X012530Y014757D02*
X013040Y014757D01*
X013040Y014601D02*
X012530Y014601D01*
X012530Y014445D02*
X013040Y014445D01*
X013040Y014289D02*
X012530Y014289D01*
X012530Y014133D02*
X013040Y014133D01*
X013040Y013977D02*
X012530Y013977D01*
X011563Y013977D02*
X011546Y013977D01*
X011546Y013821D02*
X011563Y013821D01*
X011546Y013665D02*
X011563Y013665D01*
X011546Y013509D02*
X011563Y013509D01*
X011546Y013353D02*
X011563Y013353D01*
X011546Y013197D02*
X011563Y013197D01*
X011546Y013041D02*
X011563Y013041D01*
X011546Y012885D02*
X011563Y012885D01*
X011546Y012729D02*
X011563Y012729D01*
X011546Y012573D02*
X011563Y012573D01*
X011546Y012417D02*
X011563Y012417D01*
X011546Y012262D02*
X011563Y012262D01*
X011546Y012106D02*
X011563Y012106D01*
X011546Y011950D02*
X011718Y011950D01*
X011751Y011794D02*
X011546Y011794D01*
X011546Y011638D02*
X011861Y011638D01*
X011071Y012729D02*
X011023Y012729D01*
X011065Y012885D02*
X011071Y012885D01*
X011054Y013041D02*
X011071Y013041D01*
X011054Y013197D02*
X011071Y013197D01*
X011054Y013353D02*
X011071Y013353D01*
X011054Y013509D02*
X011071Y013509D01*
X011054Y013665D02*
X011071Y013665D01*
X011054Y013821D02*
X011071Y013821D01*
X011054Y013977D02*
X011071Y013977D01*
X011054Y014133D02*
X011071Y014133D01*
X011054Y014289D02*
X011071Y014289D01*
X011054Y014445D02*
X011071Y014445D01*
X011054Y014601D02*
X011071Y014601D01*
X011054Y014757D02*
X011071Y014757D01*
X011054Y014913D02*
X011071Y014913D01*
X011054Y015069D02*
X011071Y015069D01*
X011054Y015225D02*
X011071Y015225D01*
X011054Y015381D02*
X011071Y015381D01*
X011054Y015537D02*
X011071Y015537D01*
X011054Y015693D02*
X011071Y015693D01*
X011054Y015849D02*
X011071Y015849D01*
X011054Y016005D02*
X011071Y016005D01*
X011054Y016161D02*
X011071Y016161D01*
X011054Y016317D02*
X011071Y016317D01*
X011054Y016473D02*
X011071Y016473D01*
X011054Y016629D02*
X011071Y016629D01*
X011054Y016785D02*
X011071Y016785D01*
X011054Y016941D02*
X011071Y016941D01*
X011054Y017097D02*
X011071Y017097D01*
X011054Y017253D02*
X011071Y017253D01*
X011054Y017409D02*
X011071Y017409D01*
X011054Y017565D02*
X011071Y017565D01*
X011054Y017721D02*
X011071Y017721D01*
X011054Y017877D02*
X011071Y017877D01*
X010817Y018413D02*
X010817Y013009D01*
X010708Y012901D01*
X011546Y014133D02*
X011563Y014133D01*
X011546Y014289D02*
X011563Y014289D01*
X011546Y014445D02*
X011563Y014445D01*
X011546Y014601D02*
X011563Y014601D01*
X011546Y014757D02*
X011563Y014757D01*
X011546Y014913D02*
X011563Y014913D01*
X011546Y015069D02*
X011563Y015069D01*
X011546Y015225D02*
X011563Y015225D01*
X011546Y015381D02*
X011563Y015381D01*
X011546Y015537D02*
X011563Y015537D01*
X011546Y015693D02*
X011563Y015693D01*
X011546Y015849D02*
X011563Y015849D01*
X011546Y016005D02*
X011563Y016005D01*
X011546Y016161D02*
X011563Y016161D01*
X011546Y016317D02*
X011563Y016317D01*
X011546Y016473D02*
X011563Y016473D01*
X011546Y016629D02*
X011563Y016629D01*
X011546Y016785D02*
X011563Y016785D01*
X011546Y016941D02*
X011563Y016941D01*
X011546Y017097D02*
X011563Y017097D01*
X011546Y017253D02*
X011563Y017253D01*
X011546Y017409D02*
X011563Y017409D01*
X011546Y017565D02*
X011563Y017565D01*
X011546Y017721D02*
X011563Y017721D01*
X011546Y017877D02*
X011563Y017877D01*
X012445Y019125D02*
X010114Y019125D01*
X010270Y019281D02*
X012339Y019281D01*
X012320Y019437D02*
X010339Y019437D01*
X010404Y019593D02*
X012372Y019593D01*
X012677Y019397D02*
X012785Y019289D01*
X012548Y018969D02*
X009857Y018969D01*
X009832Y018413D02*
X009832Y009446D01*
X013858Y005421D01*
X013858Y004633D02*
X009340Y009151D01*
X009340Y018413D01*
X010315Y018413D02*
X010315Y016641D01*
X010070Y016161D02*
X010579Y016161D01*
X010374Y020061D02*
X015000Y020061D01*
X015000Y020217D02*
X010310Y020217D01*
X013277Y018413D02*
X013277Y009151D01*
X013858Y008570D01*
X013602Y008206D02*
X011409Y008206D01*
X011565Y008050D02*
X013504Y008050D01*
X013429Y007894D02*
X011721Y007894D01*
X011877Y007738D02*
X013419Y007738D01*
X013466Y007582D02*
X012033Y007582D01*
X012189Y007426D02*
X013594Y007426D01*
X013512Y007270D02*
X012345Y007270D01*
X012500Y007114D02*
X013432Y007114D01*
X013419Y006958D02*
X012656Y006958D01*
X012812Y006802D02*
X013463Y006802D01*
X013587Y006646D02*
X012968Y006646D01*
X013124Y006490D02*
X013519Y006490D01*
X013435Y006334D02*
X013280Y006334D01*
X012757Y005398D02*
X010279Y005398D01*
X010435Y005242D02*
X012913Y005242D01*
X013069Y005086D02*
X010591Y005086D01*
X010747Y004930D02*
X013225Y004930D01*
X013381Y004774D02*
X010903Y004774D01*
X011059Y004618D02*
X013419Y004618D01*
X013454Y004462D02*
X011215Y004462D01*
X011371Y004307D02*
X013564Y004307D01*
X013419Y004151D02*
X011527Y004151D01*
X011167Y003839D02*
X010401Y003839D01*
X010413Y003995D02*
X011011Y003995D01*
X010855Y004151D02*
X010413Y004151D01*
X010377Y004307D02*
X010699Y004307D01*
X010543Y004462D02*
X010312Y004462D01*
X010387Y004618D02*
X010204Y004618D01*
X010232Y004774D02*
X010048Y004774D01*
X010076Y004930D02*
X007344Y004930D01*
X007324Y005086D02*
X009920Y005086D01*
X010123Y005554D02*
X012601Y005554D01*
X012445Y005710D02*
X008393Y005710D01*
X008237Y005866D02*
X012289Y005866D01*
X012133Y006022D02*
X008081Y006022D01*
X007925Y006178D02*
X011977Y006178D01*
X011821Y006334D02*
X007769Y006334D01*
X010264Y003527D02*
X013419Y003527D01*
X011323Y003683D02*
X010337Y003683D01*
X004808Y008362D02*
X004055Y008362D01*
X004055Y008518D02*
X004758Y008518D01*
X004765Y008674D02*
X004055Y008674D01*
X004055Y008830D02*
X004836Y008830D01*
X007559Y012507D02*
X007952Y012704D01*
X005147Y014133D02*
X004866Y014133D01*
X004883Y014289D02*
X005136Y014289D01*
X005136Y014445D02*
X004883Y014445D01*
X004883Y014446D02*
X004883Y014706D01*
X004871Y014752D01*
X004847Y014792D01*
X004814Y014826D01*
X004773Y014849D01*
X004728Y014861D01*
X004576Y014861D01*
X004576Y014446D01*
X004576Y014446D01*
X004883Y014446D01*
X004883Y014601D02*
X005136Y014601D01*
X005145Y014757D02*
X004868Y014757D01*
X004576Y014757D02*
X004576Y014757D01*
X004576Y014601D02*
X004576Y014601D01*
X004576Y014445D02*
X004576Y014445D01*
X004576Y014289D02*
X004576Y014289D01*
X004576Y014133D02*
X004576Y014133D01*
X004806Y019437D02*
X005185Y019437D01*
X005136Y019593D02*
X004883Y019593D01*
X004883Y019749D02*
X005136Y019749D01*
X005136Y019905D02*
X004883Y019905D01*
X004883Y020061D02*
X005136Y020061D01*
X013515Y017877D02*
X014414Y017877D01*
X014388Y017721D02*
X013515Y017721D01*
X013515Y017565D02*
X014388Y017565D01*
X014803Y017253D02*
X014960Y017253D01*
X014960Y017097D02*
X014803Y017097D01*
X014803Y016941D02*
X014960Y016941D01*
X014960Y016785D02*
X014803Y016785D01*
X013769Y018413D02*
X013769Y018915D01*
X014252Y019397D01*
D20*
X010324Y018413D02*
X010315Y018413D01*
X005984Y017429D02*
X005620Y017458D01*
X005423Y017793D01*
X005423Y016474D02*
X005423Y014446D01*
X005423Y013757D01*
X005984Y013196D01*
D21*
X008346Y014476D03*
X010315Y016641D03*
X005984Y017429D03*
M02*
