G75*
G70*
%OFA0B0*%
%FSLAX24Y24*%
%IPPOS*%
%LPD*%
%AMOC8*
5,1,8,0,0,1.08239X$1,22.5*
%
%ADD10C,0.0000*%
%ADD11C,0.1182*%
%ADD12C,0.0513*%
%ADD13C,0.1340*%
%ADD14R,0.6299X0.6299*%
%ADD15R,0.0984X0.2362*%
%ADD16R,0.0660X0.0190*%
%ADD17R,0.0190X0.0660*%
%ADD18R,0.0277X0.0395*%
%ADD19R,0.0749X0.0749*%
%ADD20R,0.0474X0.0513*%
%ADD21R,0.0513X0.0474*%
%ADD22R,0.0474X0.0552*%
%ADD23R,0.0552X0.0474*%
%ADD24R,0.0867X0.0867*%
%ADD25R,0.0674X0.0674*%
%ADD26OC8,0.0674*%
%ADD27R,0.0434X0.0356*%
%ADD28R,0.0356X0.0434*%
%ADD29R,0.2836X0.2442*%
%ADD30R,0.0634X0.0634*%
%ADD31R,0.0867X0.1261*%
%ADD32R,0.0476X0.0476*%
%ADD33C,0.0476*%
%ADD34R,0.0437X0.0437*%
%ADD35C,0.0437*%
D10*
X000297Y000100D02*
X000297Y030415D01*
X040454Y030415D01*
X040454Y000100D01*
X000297Y000100D01*
X002048Y002069D02*
X002050Y002098D01*
X002056Y002126D01*
X002065Y002154D01*
X002078Y002180D01*
X002095Y002203D01*
X002114Y002225D01*
X002136Y002244D01*
X002161Y002259D01*
X002187Y002272D01*
X002215Y002280D01*
X002243Y002285D01*
X002272Y002286D01*
X002301Y002283D01*
X002329Y002276D01*
X002356Y002266D01*
X002382Y002252D01*
X002405Y002235D01*
X002426Y002215D01*
X002444Y002192D01*
X002459Y002167D01*
X002470Y002140D01*
X002478Y002112D01*
X002482Y002083D01*
X002482Y002055D01*
X002478Y002026D01*
X002470Y001998D01*
X002459Y001971D01*
X002444Y001946D01*
X002426Y001923D01*
X002405Y001903D01*
X002382Y001886D01*
X002356Y001872D01*
X002329Y001862D01*
X002301Y001855D01*
X002272Y001852D01*
X002243Y001853D01*
X002215Y001858D01*
X002187Y001866D01*
X002161Y001879D01*
X002136Y001894D01*
X002114Y001913D01*
X002095Y001935D01*
X002078Y001958D01*
X002065Y001984D01*
X002056Y002012D01*
X002050Y002040D01*
X002048Y002069D01*
X000927Y011517D02*
X000929Y011564D01*
X000935Y011610D01*
X000945Y011656D01*
X000958Y011701D01*
X000976Y011744D01*
X000997Y011786D01*
X001021Y011826D01*
X001049Y011863D01*
X001080Y011898D01*
X001114Y011931D01*
X001150Y011960D01*
X001189Y011986D01*
X001230Y012009D01*
X001273Y012028D01*
X001317Y012044D01*
X001362Y012056D01*
X001408Y012064D01*
X001455Y012068D01*
X001501Y012068D01*
X001548Y012064D01*
X001594Y012056D01*
X001639Y012044D01*
X001683Y012028D01*
X001726Y012009D01*
X001767Y011986D01*
X001806Y011960D01*
X001842Y011931D01*
X001876Y011898D01*
X001907Y011863D01*
X001935Y011826D01*
X001959Y011786D01*
X001980Y011744D01*
X001998Y011701D01*
X002011Y011656D01*
X002021Y011610D01*
X002027Y011564D01*
X002029Y011517D01*
X002027Y011470D01*
X002021Y011424D01*
X002011Y011378D01*
X001998Y011333D01*
X001980Y011290D01*
X001959Y011248D01*
X001935Y011208D01*
X001907Y011171D01*
X001876Y011136D01*
X001842Y011103D01*
X001806Y011074D01*
X001767Y011048D01*
X001726Y011025D01*
X001683Y011006D01*
X001639Y010990D01*
X001594Y010978D01*
X001548Y010970D01*
X001501Y010966D01*
X001455Y010966D01*
X001408Y010970D01*
X001362Y010978D01*
X001317Y010990D01*
X001273Y011006D01*
X001230Y011025D01*
X001189Y011048D01*
X001150Y011074D01*
X001114Y011103D01*
X001080Y011136D01*
X001049Y011171D01*
X001021Y011208D01*
X000997Y011248D01*
X000976Y011290D01*
X000958Y011333D01*
X000945Y011378D01*
X000935Y011424D01*
X000929Y011470D01*
X000927Y011517D01*
X000927Y015257D02*
X000929Y015304D01*
X000935Y015350D01*
X000945Y015396D01*
X000958Y015441D01*
X000976Y015484D01*
X000997Y015526D01*
X001021Y015566D01*
X001049Y015603D01*
X001080Y015638D01*
X001114Y015671D01*
X001150Y015700D01*
X001189Y015726D01*
X001230Y015749D01*
X001273Y015768D01*
X001317Y015784D01*
X001362Y015796D01*
X001408Y015804D01*
X001455Y015808D01*
X001501Y015808D01*
X001548Y015804D01*
X001594Y015796D01*
X001639Y015784D01*
X001683Y015768D01*
X001726Y015749D01*
X001767Y015726D01*
X001806Y015700D01*
X001842Y015671D01*
X001876Y015638D01*
X001907Y015603D01*
X001935Y015566D01*
X001959Y015526D01*
X001980Y015484D01*
X001998Y015441D01*
X002011Y015396D01*
X002021Y015350D01*
X002027Y015304D01*
X002029Y015257D01*
X002027Y015210D01*
X002021Y015164D01*
X002011Y015118D01*
X001998Y015073D01*
X001980Y015030D01*
X001959Y014988D01*
X001935Y014948D01*
X001907Y014911D01*
X001876Y014876D01*
X001842Y014843D01*
X001806Y014814D01*
X001767Y014788D01*
X001726Y014765D01*
X001683Y014746D01*
X001639Y014730D01*
X001594Y014718D01*
X001548Y014710D01*
X001501Y014706D01*
X001455Y014706D01*
X001408Y014710D01*
X001362Y014718D01*
X001317Y014730D01*
X001273Y014746D01*
X001230Y014765D01*
X001189Y014788D01*
X001150Y014814D01*
X001114Y014843D01*
X001080Y014876D01*
X001049Y014911D01*
X001021Y014948D01*
X000997Y014988D01*
X000976Y015030D01*
X000958Y015073D01*
X000945Y015118D01*
X000935Y015164D01*
X000929Y015210D01*
X000927Y015257D01*
X000927Y018998D02*
X000929Y019045D01*
X000935Y019091D01*
X000945Y019137D01*
X000958Y019182D01*
X000976Y019225D01*
X000997Y019267D01*
X001021Y019307D01*
X001049Y019344D01*
X001080Y019379D01*
X001114Y019412D01*
X001150Y019441D01*
X001189Y019467D01*
X001230Y019490D01*
X001273Y019509D01*
X001317Y019525D01*
X001362Y019537D01*
X001408Y019545D01*
X001455Y019549D01*
X001501Y019549D01*
X001548Y019545D01*
X001594Y019537D01*
X001639Y019525D01*
X001683Y019509D01*
X001726Y019490D01*
X001767Y019467D01*
X001806Y019441D01*
X001842Y019412D01*
X001876Y019379D01*
X001907Y019344D01*
X001935Y019307D01*
X001959Y019267D01*
X001980Y019225D01*
X001998Y019182D01*
X002011Y019137D01*
X002021Y019091D01*
X002027Y019045D01*
X002029Y018998D01*
X002027Y018951D01*
X002021Y018905D01*
X002011Y018859D01*
X001998Y018814D01*
X001980Y018771D01*
X001959Y018729D01*
X001935Y018689D01*
X001907Y018652D01*
X001876Y018617D01*
X001842Y018584D01*
X001806Y018555D01*
X001767Y018529D01*
X001726Y018506D01*
X001683Y018487D01*
X001639Y018471D01*
X001594Y018459D01*
X001548Y018451D01*
X001501Y018447D01*
X001455Y018447D01*
X001408Y018451D01*
X001362Y018459D01*
X001317Y018471D01*
X001273Y018487D01*
X001230Y018506D01*
X001189Y018529D01*
X001150Y018555D01*
X001114Y018584D01*
X001080Y018617D01*
X001049Y018652D01*
X001021Y018689D01*
X000997Y018729D01*
X000976Y018771D01*
X000958Y018814D01*
X000945Y018859D01*
X000935Y018905D01*
X000929Y018951D01*
X000927Y018998D01*
X006439Y018998D02*
X006441Y019045D01*
X006447Y019091D01*
X006457Y019137D01*
X006470Y019182D01*
X006488Y019225D01*
X006509Y019267D01*
X006533Y019307D01*
X006561Y019344D01*
X006592Y019379D01*
X006626Y019412D01*
X006662Y019441D01*
X006701Y019467D01*
X006742Y019490D01*
X006785Y019509D01*
X006829Y019525D01*
X006874Y019537D01*
X006920Y019545D01*
X006967Y019549D01*
X007013Y019549D01*
X007060Y019545D01*
X007106Y019537D01*
X007151Y019525D01*
X007195Y019509D01*
X007238Y019490D01*
X007279Y019467D01*
X007318Y019441D01*
X007354Y019412D01*
X007388Y019379D01*
X007419Y019344D01*
X007447Y019307D01*
X007471Y019267D01*
X007492Y019225D01*
X007510Y019182D01*
X007523Y019137D01*
X007533Y019091D01*
X007539Y019045D01*
X007541Y018998D01*
X007539Y018951D01*
X007533Y018905D01*
X007523Y018859D01*
X007510Y018814D01*
X007492Y018771D01*
X007471Y018729D01*
X007447Y018689D01*
X007419Y018652D01*
X007388Y018617D01*
X007354Y018584D01*
X007318Y018555D01*
X007279Y018529D01*
X007238Y018506D01*
X007195Y018487D01*
X007151Y018471D01*
X007106Y018459D01*
X007060Y018451D01*
X007013Y018447D01*
X006967Y018447D01*
X006920Y018451D01*
X006874Y018459D01*
X006829Y018471D01*
X006785Y018487D01*
X006742Y018506D01*
X006701Y018529D01*
X006662Y018555D01*
X006626Y018584D01*
X006592Y018617D01*
X006561Y018652D01*
X006533Y018689D01*
X006509Y018729D01*
X006488Y018771D01*
X006470Y018814D01*
X006457Y018859D01*
X006447Y018905D01*
X006441Y018951D01*
X006439Y018998D01*
X008801Y018998D02*
X008803Y019045D01*
X008809Y019091D01*
X008819Y019137D01*
X008832Y019182D01*
X008850Y019225D01*
X008871Y019267D01*
X008895Y019307D01*
X008923Y019344D01*
X008954Y019379D01*
X008988Y019412D01*
X009024Y019441D01*
X009063Y019467D01*
X009104Y019490D01*
X009147Y019509D01*
X009191Y019525D01*
X009236Y019537D01*
X009282Y019545D01*
X009329Y019549D01*
X009375Y019549D01*
X009422Y019545D01*
X009468Y019537D01*
X009513Y019525D01*
X009557Y019509D01*
X009600Y019490D01*
X009641Y019467D01*
X009680Y019441D01*
X009716Y019412D01*
X009750Y019379D01*
X009781Y019344D01*
X009809Y019307D01*
X009833Y019267D01*
X009854Y019225D01*
X009872Y019182D01*
X009885Y019137D01*
X009895Y019091D01*
X009901Y019045D01*
X009903Y018998D01*
X009901Y018951D01*
X009895Y018905D01*
X009885Y018859D01*
X009872Y018814D01*
X009854Y018771D01*
X009833Y018729D01*
X009809Y018689D01*
X009781Y018652D01*
X009750Y018617D01*
X009716Y018584D01*
X009680Y018555D01*
X009641Y018529D01*
X009600Y018506D01*
X009557Y018487D01*
X009513Y018471D01*
X009468Y018459D01*
X009422Y018451D01*
X009375Y018447D01*
X009329Y018447D01*
X009282Y018451D01*
X009236Y018459D01*
X009191Y018471D01*
X009147Y018487D01*
X009104Y018506D01*
X009063Y018529D01*
X009024Y018555D01*
X008988Y018584D01*
X008954Y018617D01*
X008923Y018652D01*
X008895Y018689D01*
X008871Y018729D01*
X008850Y018771D01*
X008832Y018814D01*
X008819Y018859D01*
X008809Y018905D01*
X008803Y018951D01*
X008801Y018998D01*
X008801Y015257D02*
X008803Y015304D01*
X008809Y015350D01*
X008819Y015396D01*
X008832Y015441D01*
X008850Y015484D01*
X008871Y015526D01*
X008895Y015566D01*
X008923Y015603D01*
X008954Y015638D01*
X008988Y015671D01*
X009024Y015700D01*
X009063Y015726D01*
X009104Y015749D01*
X009147Y015768D01*
X009191Y015784D01*
X009236Y015796D01*
X009282Y015804D01*
X009329Y015808D01*
X009375Y015808D01*
X009422Y015804D01*
X009468Y015796D01*
X009513Y015784D01*
X009557Y015768D01*
X009600Y015749D01*
X009641Y015726D01*
X009680Y015700D01*
X009716Y015671D01*
X009750Y015638D01*
X009781Y015603D01*
X009809Y015566D01*
X009833Y015526D01*
X009854Y015484D01*
X009872Y015441D01*
X009885Y015396D01*
X009895Y015350D01*
X009901Y015304D01*
X009903Y015257D01*
X009901Y015210D01*
X009895Y015164D01*
X009885Y015118D01*
X009872Y015073D01*
X009854Y015030D01*
X009833Y014988D01*
X009809Y014948D01*
X009781Y014911D01*
X009750Y014876D01*
X009716Y014843D01*
X009680Y014814D01*
X009641Y014788D01*
X009600Y014765D01*
X009557Y014746D01*
X009513Y014730D01*
X009468Y014718D01*
X009422Y014710D01*
X009375Y014706D01*
X009329Y014706D01*
X009282Y014710D01*
X009236Y014718D01*
X009191Y014730D01*
X009147Y014746D01*
X009104Y014765D01*
X009063Y014788D01*
X009024Y014814D01*
X008988Y014843D01*
X008954Y014876D01*
X008923Y014911D01*
X008895Y014948D01*
X008871Y014988D01*
X008850Y015030D01*
X008832Y015073D01*
X008819Y015118D01*
X008809Y015164D01*
X008803Y015210D01*
X008801Y015257D01*
X006439Y015257D02*
X006441Y015304D01*
X006447Y015350D01*
X006457Y015396D01*
X006470Y015441D01*
X006488Y015484D01*
X006509Y015526D01*
X006533Y015566D01*
X006561Y015603D01*
X006592Y015638D01*
X006626Y015671D01*
X006662Y015700D01*
X006701Y015726D01*
X006742Y015749D01*
X006785Y015768D01*
X006829Y015784D01*
X006874Y015796D01*
X006920Y015804D01*
X006967Y015808D01*
X007013Y015808D01*
X007060Y015804D01*
X007106Y015796D01*
X007151Y015784D01*
X007195Y015768D01*
X007238Y015749D01*
X007279Y015726D01*
X007318Y015700D01*
X007354Y015671D01*
X007388Y015638D01*
X007419Y015603D01*
X007447Y015566D01*
X007471Y015526D01*
X007492Y015484D01*
X007510Y015441D01*
X007523Y015396D01*
X007533Y015350D01*
X007539Y015304D01*
X007541Y015257D01*
X007539Y015210D01*
X007533Y015164D01*
X007523Y015118D01*
X007510Y015073D01*
X007492Y015030D01*
X007471Y014988D01*
X007447Y014948D01*
X007419Y014911D01*
X007388Y014876D01*
X007354Y014843D01*
X007318Y014814D01*
X007279Y014788D01*
X007238Y014765D01*
X007195Y014746D01*
X007151Y014730D01*
X007106Y014718D01*
X007060Y014710D01*
X007013Y014706D01*
X006967Y014706D01*
X006920Y014710D01*
X006874Y014718D01*
X006829Y014730D01*
X006785Y014746D01*
X006742Y014765D01*
X006701Y014788D01*
X006662Y014814D01*
X006626Y014843D01*
X006592Y014876D01*
X006561Y014911D01*
X006533Y014948D01*
X006509Y014988D01*
X006488Y015030D01*
X006470Y015073D01*
X006457Y015118D01*
X006447Y015164D01*
X006441Y015210D01*
X006439Y015257D01*
X006439Y011517D02*
X006441Y011564D01*
X006447Y011610D01*
X006457Y011656D01*
X006470Y011701D01*
X006488Y011744D01*
X006509Y011786D01*
X006533Y011826D01*
X006561Y011863D01*
X006592Y011898D01*
X006626Y011931D01*
X006662Y011960D01*
X006701Y011986D01*
X006742Y012009D01*
X006785Y012028D01*
X006829Y012044D01*
X006874Y012056D01*
X006920Y012064D01*
X006967Y012068D01*
X007013Y012068D01*
X007060Y012064D01*
X007106Y012056D01*
X007151Y012044D01*
X007195Y012028D01*
X007238Y012009D01*
X007279Y011986D01*
X007318Y011960D01*
X007354Y011931D01*
X007388Y011898D01*
X007419Y011863D01*
X007447Y011826D01*
X007471Y011786D01*
X007492Y011744D01*
X007510Y011701D01*
X007523Y011656D01*
X007533Y011610D01*
X007539Y011564D01*
X007541Y011517D01*
X007539Y011470D01*
X007533Y011424D01*
X007523Y011378D01*
X007510Y011333D01*
X007492Y011290D01*
X007471Y011248D01*
X007447Y011208D01*
X007419Y011171D01*
X007388Y011136D01*
X007354Y011103D01*
X007318Y011074D01*
X007279Y011048D01*
X007238Y011025D01*
X007195Y011006D01*
X007151Y010990D01*
X007106Y010978D01*
X007060Y010970D01*
X007013Y010966D01*
X006967Y010966D01*
X006920Y010970D01*
X006874Y010978D01*
X006829Y010990D01*
X006785Y011006D01*
X006742Y011025D01*
X006701Y011048D01*
X006662Y011074D01*
X006626Y011103D01*
X006592Y011136D01*
X006561Y011171D01*
X006533Y011208D01*
X006509Y011248D01*
X006488Y011290D01*
X006470Y011333D01*
X006457Y011378D01*
X006447Y011424D01*
X006441Y011470D01*
X006439Y011517D01*
X008801Y011517D02*
X008803Y011564D01*
X008809Y011610D01*
X008819Y011656D01*
X008832Y011701D01*
X008850Y011744D01*
X008871Y011786D01*
X008895Y011826D01*
X008923Y011863D01*
X008954Y011898D01*
X008988Y011931D01*
X009024Y011960D01*
X009063Y011986D01*
X009104Y012009D01*
X009147Y012028D01*
X009191Y012044D01*
X009236Y012056D01*
X009282Y012064D01*
X009329Y012068D01*
X009375Y012068D01*
X009422Y012064D01*
X009468Y012056D01*
X009513Y012044D01*
X009557Y012028D01*
X009600Y012009D01*
X009641Y011986D01*
X009680Y011960D01*
X009716Y011931D01*
X009750Y011898D01*
X009781Y011863D01*
X009809Y011826D01*
X009833Y011786D01*
X009854Y011744D01*
X009872Y011701D01*
X009885Y011656D01*
X009895Y011610D01*
X009901Y011564D01*
X009903Y011517D01*
X009901Y011470D01*
X009895Y011424D01*
X009885Y011378D01*
X009872Y011333D01*
X009854Y011290D01*
X009833Y011248D01*
X009809Y011208D01*
X009781Y011171D01*
X009750Y011136D01*
X009716Y011103D01*
X009680Y011074D01*
X009641Y011048D01*
X009600Y011025D01*
X009557Y011006D01*
X009513Y010990D01*
X009468Y010978D01*
X009422Y010970D01*
X009375Y010966D01*
X009329Y010966D01*
X009282Y010970D01*
X009236Y010978D01*
X009191Y010990D01*
X009147Y011006D01*
X009104Y011025D01*
X009063Y011048D01*
X009024Y011074D01*
X008988Y011103D01*
X008954Y011136D01*
X008923Y011171D01*
X008895Y011208D01*
X008871Y011248D01*
X008850Y011290D01*
X008832Y011333D01*
X008819Y011378D01*
X008809Y011424D01*
X008803Y011470D01*
X008801Y011517D01*
X014313Y011517D02*
X014315Y011564D01*
X014321Y011610D01*
X014331Y011656D01*
X014344Y011701D01*
X014362Y011744D01*
X014383Y011786D01*
X014407Y011826D01*
X014435Y011863D01*
X014466Y011898D01*
X014500Y011931D01*
X014536Y011960D01*
X014575Y011986D01*
X014616Y012009D01*
X014659Y012028D01*
X014703Y012044D01*
X014748Y012056D01*
X014794Y012064D01*
X014841Y012068D01*
X014887Y012068D01*
X014934Y012064D01*
X014980Y012056D01*
X015025Y012044D01*
X015069Y012028D01*
X015112Y012009D01*
X015153Y011986D01*
X015192Y011960D01*
X015228Y011931D01*
X015262Y011898D01*
X015293Y011863D01*
X015321Y011826D01*
X015345Y011786D01*
X015366Y011744D01*
X015384Y011701D01*
X015397Y011656D01*
X015407Y011610D01*
X015413Y011564D01*
X015415Y011517D01*
X015413Y011470D01*
X015407Y011424D01*
X015397Y011378D01*
X015384Y011333D01*
X015366Y011290D01*
X015345Y011248D01*
X015321Y011208D01*
X015293Y011171D01*
X015262Y011136D01*
X015228Y011103D01*
X015192Y011074D01*
X015153Y011048D01*
X015112Y011025D01*
X015069Y011006D01*
X015025Y010990D01*
X014980Y010978D01*
X014934Y010970D01*
X014887Y010966D01*
X014841Y010966D01*
X014794Y010970D01*
X014748Y010978D01*
X014703Y010990D01*
X014659Y011006D01*
X014616Y011025D01*
X014575Y011048D01*
X014536Y011074D01*
X014500Y011103D01*
X014466Y011136D01*
X014435Y011171D01*
X014407Y011208D01*
X014383Y011248D01*
X014362Y011290D01*
X014344Y011333D01*
X014331Y011378D01*
X014321Y011424D01*
X014315Y011470D01*
X014313Y011517D01*
X014313Y015257D02*
X014315Y015304D01*
X014321Y015350D01*
X014331Y015396D01*
X014344Y015441D01*
X014362Y015484D01*
X014383Y015526D01*
X014407Y015566D01*
X014435Y015603D01*
X014466Y015638D01*
X014500Y015671D01*
X014536Y015700D01*
X014575Y015726D01*
X014616Y015749D01*
X014659Y015768D01*
X014703Y015784D01*
X014748Y015796D01*
X014794Y015804D01*
X014841Y015808D01*
X014887Y015808D01*
X014934Y015804D01*
X014980Y015796D01*
X015025Y015784D01*
X015069Y015768D01*
X015112Y015749D01*
X015153Y015726D01*
X015192Y015700D01*
X015228Y015671D01*
X015262Y015638D01*
X015293Y015603D01*
X015321Y015566D01*
X015345Y015526D01*
X015366Y015484D01*
X015384Y015441D01*
X015397Y015396D01*
X015407Y015350D01*
X015413Y015304D01*
X015415Y015257D01*
X015413Y015210D01*
X015407Y015164D01*
X015397Y015118D01*
X015384Y015073D01*
X015366Y015030D01*
X015345Y014988D01*
X015321Y014948D01*
X015293Y014911D01*
X015262Y014876D01*
X015228Y014843D01*
X015192Y014814D01*
X015153Y014788D01*
X015112Y014765D01*
X015069Y014746D01*
X015025Y014730D01*
X014980Y014718D01*
X014934Y014710D01*
X014887Y014706D01*
X014841Y014706D01*
X014794Y014710D01*
X014748Y014718D01*
X014703Y014730D01*
X014659Y014746D01*
X014616Y014765D01*
X014575Y014788D01*
X014536Y014814D01*
X014500Y014843D01*
X014466Y014876D01*
X014435Y014911D01*
X014407Y014948D01*
X014383Y014988D01*
X014362Y015030D01*
X014344Y015073D01*
X014331Y015118D01*
X014321Y015164D01*
X014315Y015210D01*
X014313Y015257D01*
X014313Y018998D02*
X014315Y019045D01*
X014321Y019091D01*
X014331Y019137D01*
X014344Y019182D01*
X014362Y019225D01*
X014383Y019267D01*
X014407Y019307D01*
X014435Y019344D01*
X014466Y019379D01*
X014500Y019412D01*
X014536Y019441D01*
X014575Y019467D01*
X014616Y019490D01*
X014659Y019509D01*
X014703Y019525D01*
X014748Y019537D01*
X014794Y019545D01*
X014841Y019549D01*
X014887Y019549D01*
X014934Y019545D01*
X014980Y019537D01*
X015025Y019525D01*
X015069Y019509D01*
X015112Y019490D01*
X015153Y019467D01*
X015192Y019441D01*
X015228Y019412D01*
X015262Y019379D01*
X015293Y019344D01*
X015321Y019307D01*
X015345Y019267D01*
X015366Y019225D01*
X015384Y019182D01*
X015397Y019137D01*
X015407Y019091D01*
X015413Y019045D01*
X015415Y018998D01*
X015413Y018951D01*
X015407Y018905D01*
X015397Y018859D01*
X015384Y018814D01*
X015366Y018771D01*
X015345Y018729D01*
X015321Y018689D01*
X015293Y018652D01*
X015262Y018617D01*
X015228Y018584D01*
X015192Y018555D01*
X015153Y018529D01*
X015112Y018506D01*
X015069Y018487D01*
X015025Y018471D01*
X014980Y018459D01*
X014934Y018451D01*
X014887Y018447D01*
X014841Y018447D01*
X014794Y018451D01*
X014748Y018459D01*
X014703Y018471D01*
X014659Y018487D01*
X014616Y018506D01*
X014575Y018529D01*
X014536Y018555D01*
X014500Y018584D01*
X014466Y018617D01*
X014435Y018652D01*
X014407Y018689D01*
X014383Y018729D01*
X014362Y018771D01*
X014344Y018814D01*
X014331Y018859D01*
X014321Y018905D01*
X014315Y018951D01*
X014313Y018998D01*
X025336Y018998D02*
X025338Y019045D01*
X025344Y019091D01*
X025354Y019137D01*
X025367Y019182D01*
X025385Y019225D01*
X025406Y019267D01*
X025430Y019307D01*
X025458Y019344D01*
X025489Y019379D01*
X025523Y019412D01*
X025559Y019441D01*
X025598Y019467D01*
X025639Y019490D01*
X025682Y019509D01*
X025726Y019525D01*
X025771Y019537D01*
X025817Y019545D01*
X025864Y019549D01*
X025910Y019549D01*
X025957Y019545D01*
X026003Y019537D01*
X026048Y019525D01*
X026092Y019509D01*
X026135Y019490D01*
X026176Y019467D01*
X026215Y019441D01*
X026251Y019412D01*
X026285Y019379D01*
X026316Y019344D01*
X026344Y019307D01*
X026368Y019267D01*
X026389Y019225D01*
X026407Y019182D01*
X026420Y019137D01*
X026430Y019091D01*
X026436Y019045D01*
X026438Y018998D01*
X026436Y018951D01*
X026430Y018905D01*
X026420Y018859D01*
X026407Y018814D01*
X026389Y018771D01*
X026368Y018729D01*
X026344Y018689D01*
X026316Y018652D01*
X026285Y018617D01*
X026251Y018584D01*
X026215Y018555D01*
X026176Y018529D01*
X026135Y018506D01*
X026092Y018487D01*
X026048Y018471D01*
X026003Y018459D01*
X025957Y018451D01*
X025910Y018447D01*
X025864Y018447D01*
X025817Y018451D01*
X025771Y018459D01*
X025726Y018471D01*
X025682Y018487D01*
X025639Y018506D01*
X025598Y018529D01*
X025559Y018555D01*
X025523Y018584D01*
X025489Y018617D01*
X025458Y018652D01*
X025430Y018689D01*
X025406Y018729D01*
X025385Y018771D01*
X025367Y018814D01*
X025354Y018859D01*
X025344Y018905D01*
X025338Y018951D01*
X025336Y018998D01*
X025336Y015257D02*
X025338Y015304D01*
X025344Y015350D01*
X025354Y015396D01*
X025367Y015441D01*
X025385Y015484D01*
X025406Y015526D01*
X025430Y015566D01*
X025458Y015603D01*
X025489Y015638D01*
X025523Y015671D01*
X025559Y015700D01*
X025598Y015726D01*
X025639Y015749D01*
X025682Y015768D01*
X025726Y015784D01*
X025771Y015796D01*
X025817Y015804D01*
X025864Y015808D01*
X025910Y015808D01*
X025957Y015804D01*
X026003Y015796D01*
X026048Y015784D01*
X026092Y015768D01*
X026135Y015749D01*
X026176Y015726D01*
X026215Y015700D01*
X026251Y015671D01*
X026285Y015638D01*
X026316Y015603D01*
X026344Y015566D01*
X026368Y015526D01*
X026389Y015484D01*
X026407Y015441D01*
X026420Y015396D01*
X026430Y015350D01*
X026436Y015304D01*
X026438Y015257D01*
X026436Y015210D01*
X026430Y015164D01*
X026420Y015118D01*
X026407Y015073D01*
X026389Y015030D01*
X026368Y014988D01*
X026344Y014948D01*
X026316Y014911D01*
X026285Y014876D01*
X026251Y014843D01*
X026215Y014814D01*
X026176Y014788D01*
X026135Y014765D01*
X026092Y014746D01*
X026048Y014730D01*
X026003Y014718D01*
X025957Y014710D01*
X025910Y014706D01*
X025864Y014706D01*
X025817Y014710D01*
X025771Y014718D01*
X025726Y014730D01*
X025682Y014746D01*
X025639Y014765D01*
X025598Y014788D01*
X025559Y014814D01*
X025523Y014843D01*
X025489Y014876D01*
X025458Y014911D01*
X025430Y014948D01*
X025406Y014988D01*
X025385Y015030D01*
X025367Y015073D01*
X025354Y015118D01*
X025344Y015164D01*
X025338Y015210D01*
X025336Y015257D01*
X025336Y011517D02*
X025338Y011564D01*
X025344Y011610D01*
X025354Y011656D01*
X025367Y011701D01*
X025385Y011744D01*
X025406Y011786D01*
X025430Y011826D01*
X025458Y011863D01*
X025489Y011898D01*
X025523Y011931D01*
X025559Y011960D01*
X025598Y011986D01*
X025639Y012009D01*
X025682Y012028D01*
X025726Y012044D01*
X025771Y012056D01*
X025817Y012064D01*
X025864Y012068D01*
X025910Y012068D01*
X025957Y012064D01*
X026003Y012056D01*
X026048Y012044D01*
X026092Y012028D01*
X026135Y012009D01*
X026176Y011986D01*
X026215Y011960D01*
X026251Y011931D01*
X026285Y011898D01*
X026316Y011863D01*
X026344Y011826D01*
X026368Y011786D01*
X026389Y011744D01*
X026407Y011701D01*
X026420Y011656D01*
X026430Y011610D01*
X026436Y011564D01*
X026438Y011517D01*
X026436Y011470D01*
X026430Y011424D01*
X026420Y011378D01*
X026407Y011333D01*
X026389Y011290D01*
X026368Y011248D01*
X026344Y011208D01*
X026316Y011171D01*
X026285Y011136D01*
X026251Y011103D01*
X026215Y011074D01*
X026176Y011048D01*
X026135Y011025D01*
X026092Y011006D01*
X026048Y010990D01*
X026003Y010978D01*
X025957Y010970D01*
X025910Y010966D01*
X025864Y010966D01*
X025817Y010970D01*
X025771Y010978D01*
X025726Y010990D01*
X025682Y011006D01*
X025639Y011025D01*
X025598Y011048D01*
X025559Y011074D01*
X025523Y011103D01*
X025489Y011136D01*
X025458Y011171D01*
X025430Y011208D01*
X025406Y011248D01*
X025385Y011290D01*
X025367Y011333D01*
X025354Y011378D01*
X025344Y011424D01*
X025338Y011470D01*
X025336Y011517D01*
X030848Y011517D02*
X030850Y011564D01*
X030856Y011610D01*
X030866Y011656D01*
X030879Y011701D01*
X030897Y011744D01*
X030918Y011786D01*
X030942Y011826D01*
X030970Y011863D01*
X031001Y011898D01*
X031035Y011931D01*
X031071Y011960D01*
X031110Y011986D01*
X031151Y012009D01*
X031194Y012028D01*
X031238Y012044D01*
X031283Y012056D01*
X031329Y012064D01*
X031376Y012068D01*
X031422Y012068D01*
X031469Y012064D01*
X031515Y012056D01*
X031560Y012044D01*
X031604Y012028D01*
X031647Y012009D01*
X031688Y011986D01*
X031727Y011960D01*
X031763Y011931D01*
X031797Y011898D01*
X031828Y011863D01*
X031856Y011826D01*
X031880Y011786D01*
X031901Y011744D01*
X031919Y011701D01*
X031932Y011656D01*
X031942Y011610D01*
X031948Y011564D01*
X031950Y011517D01*
X031948Y011470D01*
X031942Y011424D01*
X031932Y011378D01*
X031919Y011333D01*
X031901Y011290D01*
X031880Y011248D01*
X031856Y011208D01*
X031828Y011171D01*
X031797Y011136D01*
X031763Y011103D01*
X031727Y011074D01*
X031688Y011048D01*
X031647Y011025D01*
X031604Y011006D01*
X031560Y010990D01*
X031515Y010978D01*
X031469Y010970D01*
X031422Y010966D01*
X031376Y010966D01*
X031329Y010970D01*
X031283Y010978D01*
X031238Y010990D01*
X031194Y011006D01*
X031151Y011025D01*
X031110Y011048D01*
X031071Y011074D01*
X031035Y011103D01*
X031001Y011136D01*
X030970Y011171D01*
X030942Y011208D01*
X030918Y011248D01*
X030897Y011290D01*
X030879Y011333D01*
X030866Y011378D01*
X030856Y011424D01*
X030850Y011470D01*
X030848Y011517D01*
X033210Y011517D02*
X033212Y011564D01*
X033218Y011610D01*
X033228Y011656D01*
X033241Y011701D01*
X033259Y011744D01*
X033280Y011786D01*
X033304Y011826D01*
X033332Y011863D01*
X033363Y011898D01*
X033397Y011931D01*
X033433Y011960D01*
X033472Y011986D01*
X033513Y012009D01*
X033556Y012028D01*
X033600Y012044D01*
X033645Y012056D01*
X033691Y012064D01*
X033738Y012068D01*
X033784Y012068D01*
X033831Y012064D01*
X033877Y012056D01*
X033922Y012044D01*
X033966Y012028D01*
X034009Y012009D01*
X034050Y011986D01*
X034089Y011960D01*
X034125Y011931D01*
X034159Y011898D01*
X034190Y011863D01*
X034218Y011826D01*
X034242Y011786D01*
X034263Y011744D01*
X034281Y011701D01*
X034294Y011656D01*
X034304Y011610D01*
X034310Y011564D01*
X034312Y011517D01*
X034310Y011470D01*
X034304Y011424D01*
X034294Y011378D01*
X034281Y011333D01*
X034263Y011290D01*
X034242Y011248D01*
X034218Y011208D01*
X034190Y011171D01*
X034159Y011136D01*
X034125Y011103D01*
X034089Y011074D01*
X034050Y011048D01*
X034009Y011025D01*
X033966Y011006D01*
X033922Y010990D01*
X033877Y010978D01*
X033831Y010970D01*
X033784Y010966D01*
X033738Y010966D01*
X033691Y010970D01*
X033645Y010978D01*
X033600Y010990D01*
X033556Y011006D01*
X033513Y011025D01*
X033472Y011048D01*
X033433Y011074D01*
X033397Y011103D01*
X033363Y011136D01*
X033332Y011171D01*
X033304Y011208D01*
X033280Y011248D01*
X033259Y011290D01*
X033241Y011333D01*
X033228Y011378D01*
X033218Y011424D01*
X033212Y011470D01*
X033210Y011517D01*
X033210Y015257D02*
X033212Y015304D01*
X033218Y015350D01*
X033228Y015396D01*
X033241Y015441D01*
X033259Y015484D01*
X033280Y015526D01*
X033304Y015566D01*
X033332Y015603D01*
X033363Y015638D01*
X033397Y015671D01*
X033433Y015700D01*
X033472Y015726D01*
X033513Y015749D01*
X033556Y015768D01*
X033600Y015784D01*
X033645Y015796D01*
X033691Y015804D01*
X033738Y015808D01*
X033784Y015808D01*
X033831Y015804D01*
X033877Y015796D01*
X033922Y015784D01*
X033966Y015768D01*
X034009Y015749D01*
X034050Y015726D01*
X034089Y015700D01*
X034125Y015671D01*
X034159Y015638D01*
X034190Y015603D01*
X034218Y015566D01*
X034242Y015526D01*
X034263Y015484D01*
X034281Y015441D01*
X034294Y015396D01*
X034304Y015350D01*
X034310Y015304D01*
X034312Y015257D01*
X034310Y015210D01*
X034304Y015164D01*
X034294Y015118D01*
X034281Y015073D01*
X034263Y015030D01*
X034242Y014988D01*
X034218Y014948D01*
X034190Y014911D01*
X034159Y014876D01*
X034125Y014843D01*
X034089Y014814D01*
X034050Y014788D01*
X034009Y014765D01*
X033966Y014746D01*
X033922Y014730D01*
X033877Y014718D01*
X033831Y014710D01*
X033784Y014706D01*
X033738Y014706D01*
X033691Y014710D01*
X033645Y014718D01*
X033600Y014730D01*
X033556Y014746D01*
X033513Y014765D01*
X033472Y014788D01*
X033433Y014814D01*
X033397Y014843D01*
X033363Y014876D01*
X033332Y014911D01*
X033304Y014948D01*
X033280Y014988D01*
X033259Y015030D01*
X033241Y015073D01*
X033228Y015118D01*
X033218Y015164D01*
X033212Y015210D01*
X033210Y015257D01*
X030848Y015257D02*
X030850Y015304D01*
X030856Y015350D01*
X030866Y015396D01*
X030879Y015441D01*
X030897Y015484D01*
X030918Y015526D01*
X030942Y015566D01*
X030970Y015603D01*
X031001Y015638D01*
X031035Y015671D01*
X031071Y015700D01*
X031110Y015726D01*
X031151Y015749D01*
X031194Y015768D01*
X031238Y015784D01*
X031283Y015796D01*
X031329Y015804D01*
X031376Y015808D01*
X031422Y015808D01*
X031469Y015804D01*
X031515Y015796D01*
X031560Y015784D01*
X031604Y015768D01*
X031647Y015749D01*
X031688Y015726D01*
X031727Y015700D01*
X031763Y015671D01*
X031797Y015638D01*
X031828Y015603D01*
X031856Y015566D01*
X031880Y015526D01*
X031901Y015484D01*
X031919Y015441D01*
X031932Y015396D01*
X031942Y015350D01*
X031948Y015304D01*
X031950Y015257D01*
X031948Y015210D01*
X031942Y015164D01*
X031932Y015118D01*
X031919Y015073D01*
X031901Y015030D01*
X031880Y014988D01*
X031856Y014948D01*
X031828Y014911D01*
X031797Y014876D01*
X031763Y014843D01*
X031727Y014814D01*
X031688Y014788D01*
X031647Y014765D01*
X031604Y014746D01*
X031560Y014730D01*
X031515Y014718D01*
X031469Y014710D01*
X031422Y014706D01*
X031376Y014706D01*
X031329Y014710D01*
X031283Y014718D01*
X031238Y014730D01*
X031194Y014746D01*
X031151Y014765D01*
X031110Y014788D01*
X031071Y014814D01*
X031035Y014843D01*
X031001Y014876D01*
X030970Y014911D01*
X030942Y014948D01*
X030918Y014988D01*
X030897Y015030D01*
X030879Y015073D01*
X030866Y015118D01*
X030856Y015164D01*
X030850Y015210D01*
X030848Y015257D01*
X030848Y018998D02*
X030850Y019045D01*
X030856Y019091D01*
X030866Y019137D01*
X030879Y019182D01*
X030897Y019225D01*
X030918Y019267D01*
X030942Y019307D01*
X030970Y019344D01*
X031001Y019379D01*
X031035Y019412D01*
X031071Y019441D01*
X031110Y019467D01*
X031151Y019490D01*
X031194Y019509D01*
X031238Y019525D01*
X031283Y019537D01*
X031329Y019545D01*
X031376Y019549D01*
X031422Y019549D01*
X031469Y019545D01*
X031515Y019537D01*
X031560Y019525D01*
X031604Y019509D01*
X031647Y019490D01*
X031688Y019467D01*
X031727Y019441D01*
X031763Y019412D01*
X031797Y019379D01*
X031828Y019344D01*
X031856Y019307D01*
X031880Y019267D01*
X031901Y019225D01*
X031919Y019182D01*
X031932Y019137D01*
X031942Y019091D01*
X031948Y019045D01*
X031950Y018998D01*
X031948Y018951D01*
X031942Y018905D01*
X031932Y018859D01*
X031919Y018814D01*
X031901Y018771D01*
X031880Y018729D01*
X031856Y018689D01*
X031828Y018652D01*
X031797Y018617D01*
X031763Y018584D01*
X031727Y018555D01*
X031688Y018529D01*
X031647Y018506D01*
X031604Y018487D01*
X031560Y018471D01*
X031515Y018459D01*
X031469Y018451D01*
X031422Y018447D01*
X031376Y018447D01*
X031329Y018451D01*
X031283Y018459D01*
X031238Y018471D01*
X031194Y018487D01*
X031151Y018506D01*
X031110Y018529D01*
X031071Y018555D01*
X031035Y018584D01*
X031001Y018617D01*
X030970Y018652D01*
X030942Y018689D01*
X030918Y018729D01*
X030897Y018771D01*
X030879Y018814D01*
X030866Y018859D01*
X030856Y018905D01*
X030850Y018951D01*
X030848Y018998D01*
X033210Y018998D02*
X033212Y019045D01*
X033218Y019091D01*
X033228Y019137D01*
X033241Y019182D01*
X033259Y019225D01*
X033280Y019267D01*
X033304Y019307D01*
X033332Y019344D01*
X033363Y019379D01*
X033397Y019412D01*
X033433Y019441D01*
X033472Y019467D01*
X033513Y019490D01*
X033556Y019509D01*
X033600Y019525D01*
X033645Y019537D01*
X033691Y019545D01*
X033738Y019549D01*
X033784Y019549D01*
X033831Y019545D01*
X033877Y019537D01*
X033922Y019525D01*
X033966Y019509D01*
X034009Y019490D01*
X034050Y019467D01*
X034089Y019441D01*
X034125Y019412D01*
X034159Y019379D01*
X034190Y019344D01*
X034218Y019307D01*
X034242Y019267D01*
X034263Y019225D01*
X034281Y019182D01*
X034294Y019137D01*
X034304Y019091D01*
X034310Y019045D01*
X034312Y018998D01*
X034310Y018951D01*
X034304Y018905D01*
X034294Y018859D01*
X034281Y018814D01*
X034263Y018771D01*
X034242Y018729D01*
X034218Y018689D01*
X034190Y018652D01*
X034159Y018617D01*
X034125Y018584D01*
X034089Y018555D01*
X034050Y018529D01*
X034009Y018506D01*
X033966Y018487D01*
X033922Y018471D01*
X033877Y018459D01*
X033831Y018451D01*
X033784Y018447D01*
X033738Y018447D01*
X033691Y018451D01*
X033645Y018459D01*
X033600Y018471D01*
X033556Y018487D01*
X033513Y018506D01*
X033472Y018529D01*
X033433Y018555D01*
X033397Y018584D01*
X033363Y018617D01*
X033332Y018652D01*
X033304Y018689D01*
X033280Y018729D01*
X033259Y018771D01*
X033241Y018814D01*
X033228Y018859D01*
X033218Y018905D01*
X033212Y018951D01*
X033210Y018998D01*
X038722Y018998D02*
X038724Y019045D01*
X038730Y019091D01*
X038740Y019137D01*
X038753Y019182D01*
X038771Y019225D01*
X038792Y019267D01*
X038816Y019307D01*
X038844Y019344D01*
X038875Y019379D01*
X038909Y019412D01*
X038945Y019441D01*
X038984Y019467D01*
X039025Y019490D01*
X039068Y019509D01*
X039112Y019525D01*
X039157Y019537D01*
X039203Y019545D01*
X039250Y019549D01*
X039296Y019549D01*
X039343Y019545D01*
X039389Y019537D01*
X039434Y019525D01*
X039478Y019509D01*
X039521Y019490D01*
X039562Y019467D01*
X039601Y019441D01*
X039637Y019412D01*
X039671Y019379D01*
X039702Y019344D01*
X039730Y019307D01*
X039754Y019267D01*
X039775Y019225D01*
X039793Y019182D01*
X039806Y019137D01*
X039816Y019091D01*
X039822Y019045D01*
X039824Y018998D01*
X039822Y018951D01*
X039816Y018905D01*
X039806Y018859D01*
X039793Y018814D01*
X039775Y018771D01*
X039754Y018729D01*
X039730Y018689D01*
X039702Y018652D01*
X039671Y018617D01*
X039637Y018584D01*
X039601Y018555D01*
X039562Y018529D01*
X039521Y018506D01*
X039478Y018487D01*
X039434Y018471D01*
X039389Y018459D01*
X039343Y018451D01*
X039296Y018447D01*
X039250Y018447D01*
X039203Y018451D01*
X039157Y018459D01*
X039112Y018471D01*
X039068Y018487D01*
X039025Y018506D01*
X038984Y018529D01*
X038945Y018555D01*
X038909Y018584D01*
X038875Y018617D01*
X038844Y018652D01*
X038816Y018689D01*
X038792Y018729D01*
X038771Y018771D01*
X038753Y018814D01*
X038740Y018859D01*
X038730Y018905D01*
X038724Y018951D01*
X038722Y018998D01*
X038722Y015257D02*
X038724Y015304D01*
X038730Y015350D01*
X038740Y015396D01*
X038753Y015441D01*
X038771Y015484D01*
X038792Y015526D01*
X038816Y015566D01*
X038844Y015603D01*
X038875Y015638D01*
X038909Y015671D01*
X038945Y015700D01*
X038984Y015726D01*
X039025Y015749D01*
X039068Y015768D01*
X039112Y015784D01*
X039157Y015796D01*
X039203Y015804D01*
X039250Y015808D01*
X039296Y015808D01*
X039343Y015804D01*
X039389Y015796D01*
X039434Y015784D01*
X039478Y015768D01*
X039521Y015749D01*
X039562Y015726D01*
X039601Y015700D01*
X039637Y015671D01*
X039671Y015638D01*
X039702Y015603D01*
X039730Y015566D01*
X039754Y015526D01*
X039775Y015484D01*
X039793Y015441D01*
X039806Y015396D01*
X039816Y015350D01*
X039822Y015304D01*
X039824Y015257D01*
X039822Y015210D01*
X039816Y015164D01*
X039806Y015118D01*
X039793Y015073D01*
X039775Y015030D01*
X039754Y014988D01*
X039730Y014948D01*
X039702Y014911D01*
X039671Y014876D01*
X039637Y014843D01*
X039601Y014814D01*
X039562Y014788D01*
X039521Y014765D01*
X039478Y014746D01*
X039434Y014730D01*
X039389Y014718D01*
X039343Y014710D01*
X039296Y014706D01*
X039250Y014706D01*
X039203Y014710D01*
X039157Y014718D01*
X039112Y014730D01*
X039068Y014746D01*
X039025Y014765D01*
X038984Y014788D01*
X038945Y014814D01*
X038909Y014843D01*
X038875Y014876D01*
X038844Y014911D01*
X038816Y014948D01*
X038792Y014988D01*
X038771Y015030D01*
X038753Y015073D01*
X038740Y015118D01*
X038730Y015164D01*
X038724Y015210D01*
X038722Y015257D01*
X038722Y011517D02*
X038724Y011564D01*
X038730Y011610D01*
X038740Y011656D01*
X038753Y011701D01*
X038771Y011744D01*
X038792Y011786D01*
X038816Y011826D01*
X038844Y011863D01*
X038875Y011898D01*
X038909Y011931D01*
X038945Y011960D01*
X038984Y011986D01*
X039025Y012009D01*
X039068Y012028D01*
X039112Y012044D01*
X039157Y012056D01*
X039203Y012064D01*
X039250Y012068D01*
X039296Y012068D01*
X039343Y012064D01*
X039389Y012056D01*
X039434Y012044D01*
X039478Y012028D01*
X039521Y012009D01*
X039562Y011986D01*
X039601Y011960D01*
X039637Y011931D01*
X039671Y011898D01*
X039702Y011863D01*
X039730Y011826D01*
X039754Y011786D01*
X039775Y011744D01*
X039793Y011701D01*
X039806Y011656D01*
X039816Y011610D01*
X039822Y011564D01*
X039824Y011517D01*
X039822Y011470D01*
X039816Y011424D01*
X039806Y011378D01*
X039793Y011333D01*
X039775Y011290D01*
X039754Y011248D01*
X039730Y011208D01*
X039702Y011171D01*
X039671Y011136D01*
X039637Y011103D01*
X039601Y011074D01*
X039562Y011048D01*
X039521Y011025D01*
X039478Y011006D01*
X039434Y010990D01*
X039389Y010978D01*
X039343Y010970D01*
X039296Y010966D01*
X039250Y010966D01*
X039203Y010970D01*
X039157Y010978D01*
X039112Y010990D01*
X039068Y011006D01*
X039025Y011025D01*
X038984Y011048D01*
X038945Y011074D01*
X038909Y011103D01*
X038875Y011136D01*
X038844Y011171D01*
X038816Y011208D01*
X038792Y011248D01*
X038771Y011290D01*
X038753Y011333D01*
X038740Y011378D01*
X038730Y011424D01*
X038724Y011470D01*
X038722Y011517D01*
X037856Y002069D02*
X037858Y002119D01*
X037864Y002169D01*
X037874Y002218D01*
X037888Y002266D01*
X037905Y002313D01*
X037926Y002358D01*
X037951Y002402D01*
X037979Y002443D01*
X038011Y002482D01*
X038045Y002519D01*
X038082Y002553D01*
X038122Y002583D01*
X038164Y002610D01*
X038208Y002634D01*
X038254Y002655D01*
X038301Y002671D01*
X038349Y002684D01*
X038399Y002693D01*
X038448Y002698D01*
X038499Y002699D01*
X038549Y002696D01*
X038598Y002689D01*
X038647Y002678D01*
X038695Y002663D01*
X038741Y002645D01*
X038786Y002623D01*
X038829Y002597D01*
X038870Y002568D01*
X038909Y002536D01*
X038945Y002501D01*
X038977Y002463D01*
X039007Y002423D01*
X039034Y002380D01*
X039057Y002336D01*
X039076Y002290D01*
X039092Y002242D01*
X039104Y002193D01*
X039112Y002144D01*
X039116Y002094D01*
X039116Y002044D01*
X039112Y001994D01*
X039104Y001945D01*
X039092Y001896D01*
X039076Y001848D01*
X039057Y001802D01*
X039034Y001758D01*
X039007Y001715D01*
X038977Y001675D01*
X038945Y001637D01*
X038909Y001602D01*
X038870Y001570D01*
X038829Y001541D01*
X038786Y001515D01*
X038741Y001493D01*
X038695Y001475D01*
X038647Y001460D01*
X038598Y001449D01*
X038549Y001442D01*
X038499Y001439D01*
X038448Y001440D01*
X038399Y001445D01*
X038349Y001454D01*
X038301Y001467D01*
X038254Y001483D01*
X038208Y001504D01*
X038164Y001528D01*
X038122Y001555D01*
X038082Y001585D01*
X038045Y001619D01*
X038011Y001656D01*
X037979Y001695D01*
X037951Y001736D01*
X037926Y001780D01*
X037905Y001825D01*
X037888Y001872D01*
X037874Y001920D01*
X037864Y001969D01*
X037858Y002019D01*
X037856Y002069D01*
X037856Y028446D02*
X037858Y028496D01*
X037864Y028546D01*
X037874Y028595D01*
X037888Y028643D01*
X037905Y028690D01*
X037926Y028735D01*
X037951Y028779D01*
X037979Y028820D01*
X038011Y028859D01*
X038045Y028896D01*
X038082Y028930D01*
X038122Y028960D01*
X038164Y028987D01*
X038208Y029011D01*
X038254Y029032D01*
X038301Y029048D01*
X038349Y029061D01*
X038399Y029070D01*
X038448Y029075D01*
X038499Y029076D01*
X038549Y029073D01*
X038598Y029066D01*
X038647Y029055D01*
X038695Y029040D01*
X038741Y029022D01*
X038786Y029000D01*
X038829Y028974D01*
X038870Y028945D01*
X038909Y028913D01*
X038945Y028878D01*
X038977Y028840D01*
X039007Y028800D01*
X039034Y028757D01*
X039057Y028713D01*
X039076Y028667D01*
X039092Y028619D01*
X039104Y028570D01*
X039112Y028521D01*
X039116Y028471D01*
X039116Y028421D01*
X039112Y028371D01*
X039104Y028322D01*
X039092Y028273D01*
X039076Y028225D01*
X039057Y028179D01*
X039034Y028135D01*
X039007Y028092D01*
X038977Y028052D01*
X038945Y028014D01*
X038909Y027979D01*
X038870Y027947D01*
X038829Y027918D01*
X038786Y027892D01*
X038741Y027870D01*
X038695Y027852D01*
X038647Y027837D01*
X038598Y027826D01*
X038549Y027819D01*
X038499Y027816D01*
X038448Y027817D01*
X038399Y027822D01*
X038349Y027831D01*
X038301Y027844D01*
X038254Y027860D01*
X038208Y027881D01*
X038164Y027905D01*
X038122Y027932D01*
X038082Y027962D01*
X038045Y027996D01*
X038011Y028033D01*
X037979Y028072D01*
X037951Y028113D01*
X037926Y028157D01*
X037905Y028202D01*
X037888Y028249D01*
X037874Y028297D01*
X037864Y028346D01*
X037858Y028396D01*
X037856Y028446D01*
X001635Y028446D02*
X001637Y028496D01*
X001643Y028546D01*
X001653Y028595D01*
X001667Y028643D01*
X001684Y028690D01*
X001705Y028735D01*
X001730Y028779D01*
X001758Y028820D01*
X001790Y028859D01*
X001824Y028896D01*
X001861Y028930D01*
X001901Y028960D01*
X001943Y028987D01*
X001987Y029011D01*
X002033Y029032D01*
X002080Y029048D01*
X002128Y029061D01*
X002178Y029070D01*
X002227Y029075D01*
X002278Y029076D01*
X002328Y029073D01*
X002377Y029066D01*
X002426Y029055D01*
X002474Y029040D01*
X002520Y029022D01*
X002565Y029000D01*
X002608Y028974D01*
X002649Y028945D01*
X002688Y028913D01*
X002724Y028878D01*
X002756Y028840D01*
X002786Y028800D01*
X002813Y028757D01*
X002836Y028713D01*
X002855Y028667D01*
X002871Y028619D01*
X002883Y028570D01*
X002891Y028521D01*
X002895Y028471D01*
X002895Y028421D01*
X002891Y028371D01*
X002883Y028322D01*
X002871Y028273D01*
X002855Y028225D01*
X002836Y028179D01*
X002813Y028135D01*
X002786Y028092D01*
X002756Y028052D01*
X002724Y028014D01*
X002688Y027979D01*
X002649Y027947D01*
X002608Y027918D01*
X002565Y027892D01*
X002520Y027870D01*
X002474Y027852D01*
X002426Y027837D01*
X002377Y027826D01*
X002328Y027819D01*
X002278Y027816D01*
X002227Y027817D01*
X002178Y027822D01*
X002128Y027831D01*
X002080Y027844D01*
X002033Y027860D01*
X001987Y027881D01*
X001943Y027905D01*
X001901Y027932D01*
X001861Y027962D01*
X001824Y027996D01*
X001790Y028033D01*
X001758Y028072D01*
X001730Y028113D01*
X001705Y028157D01*
X001684Y028202D01*
X001667Y028249D01*
X001653Y028297D01*
X001643Y028346D01*
X001637Y028396D01*
X001635Y028446D01*
D11*
X001478Y018998D03*
X001478Y015257D03*
X001478Y011517D03*
X006990Y011517D03*
X009352Y011517D03*
X009352Y015257D03*
X006990Y015257D03*
X006990Y018998D03*
X009352Y018998D03*
X014864Y018998D03*
X014864Y015257D03*
X014864Y011517D03*
X025887Y011517D03*
X025887Y015257D03*
X025887Y018998D03*
X031399Y018998D03*
X033761Y018998D03*
X033761Y015257D03*
X031399Y015257D03*
X031399Y011517D03*
X033761Y011517D03*
X039273Y011517D03*
X039273Y015257D03*
X039273Y018998D03*
D12*
X002265Y002069D03*
D13*
X002265Y028446D03*
X038486Y028446D03*
X038486Y002069D03*
D14*
X020376Y015257D03*
D15*
X020277Y024116D03*
D16*
X017716Y017127D03*
X017716Y016927D03*
X017716Y016737D03*
X017716Y016537D03*
X017716Y016337D03*
X017716Y016147D03*
X017716Y015947D03*
X017716Y015747D03*
X017716Y015557D03*
X017716Y015357D03*
X017716Y015157D03*
X017716Y014957D03*
X017716Y014767D03*
X017716Y014567D03*
X017716Y014367D03*
X017716Y014177D03*
X017716Y013977D03*
X017716Y013777D03*
X017716Y013587D03*
X017716Y013387D03*
X023036Y013387D03*
X023036Y013587D03*
X023036Y013777D03*
X023036Y013977D03*
X023036Y014177D03*
X023036Y014367D03*
X023036Y014567D03*
X023036Y014767D03*
X023036Y014957D03*
X023036Y015157D03*
X023036Y015357D03*
X023036Y015557D03*
X023036Y015747D03*
X023036Y015947D03*
X023036Y016147D03*
X023036Y016337D03*
X023036Y016537D03*
X023036Y016737D03*
X023036Y016927D03*
X023036Y017127D03*
D17*
X022246Y017917D03*
X022046Y017917D03*
X021856Y017917D03*
X021656Y017917D03*
X021456Y017917D03*
X021266Y017917D03*
X021066Y017917D03*
X020866Y017917D03*
X020676Y017917D03*
X020476Y017917D03*
X020276Y017917D03*
X020076Y017917D03*
X019886Y017917D03*
X019686Y017917D03*
X019486Y017917D03*
X019296Y017917D03*
X019096Y017917D03*
X018896Y017917D03*
X018706Y017917D03*
X018506Y017917D03*
X018506Y012597D03*
X018706Y012597D03*
X018896Y012597D03*
X019096Y012597D03*
X019296Y012597D03*
X019486Y012597D03*
X019686Y012597D03*
X019886Y012597D03*
X020076Y012597D03*
X020276Y012597D03*
X020476Y012597D03*
X020676Y012597D03*
X020866Y012597D03*
X021066Y012597D03*
X021266Y012597D03*
X021456Y012597D03*
X021656Y012597D03*
X021856Y012597D03*
X022046Y012597D03*
X022246Y012597D03*
D18*
X016616Y007147D03*
X016242Y007147D03*
X015868Y007147D03*
X015868Y006045D03*
X016616Y006045D03*
X014057Y006045D03*
X013309Y006045D03*
X013309Y007147D03*
X013683Y007147D03*
X014057Y007147D03*
X013860Y024352D03*
X013486Y024352D03*
X013112Y024352D03*
X013112Y025454D03*
X013860Y025454D03*
X026891Y025454D03*
X027639Y025454D03*
X027639Y024352D03*
X027265Y024352D03*
X026891Y024352D03*
D19*
X029080Y026257D03*
X030080Y026257D03*
X031080Y026257D03*
X032080Y026257D03*
X033080Y026257D03*
X034080Y026257D03*
X035080Y026257D03*
X036080Y026257D03*
X036080Y029257D03*
X035080Y029257D03*
X034080Y029257D03*
X033080Y029257D03*
X032080Y029257D03*
X031080Y029257D03*
X030080Y029257D03*
X029080Y029257D03*
X011671Y029257D03*
X010671Y029257D03*
X009671Y029257D03*
X008671Y029257D03*
X007671Y029257D03*
X006671Y029257D03*
X005671Y029257D03*
X004671Y029257D03*
X004671Y026257D03*
X005671Y026257D03*
X006671Y026257D03*
X007671Y026257D03*
X008671Y026257D03*
X009671Y026257D03*
X010671Y026257D03*
X011671Y026257D03*
X011671Y004257D03*
X010671Y004257D03*
X009671Y004257D03*
X008671Y004257D03*
X007671Y004257D03*
X006671Y004257D03*
X005671Y004257D03*
X004671Y004257D03*
X004671Y001257D03*
X005671Y001257D03*
X006671Y001257D03*
X007671Y001257D03*
X008671Y001257D03*
X009671Y001257D03*
X010671Y001257D03*
X011671Y001257D03*
X029080Y001257D03*
X030080Y001257D03*
X031080Y001257D03*
X032080Y001257D03*
X033080Y001257D03*
X034080Y001257D03*
X035080Y001257D03*
X036080Y001257D03*
X036080Y004257D03*
X035080Y004257D03*
X034080Y004257D03*
X033080Y004257D03*
X032080Y004257D03*
X031080Y004257D03*
X030080Y004257D03*
X029080Y004257D03*
D20*
X021104Y010828D03*
X020435Y010828D03*
G36*
X017396Y008362D02*
X017731Y008027D01*
X017370Y007666D01*
X017035Y008001D01*
X017396Y008362D01*
G37*
G36*
X016662Y007783D02*
X016327Y008118D01*
X016688Y008479D01*
X017023Y008144D01*
X016662Y007783D01*
G37*
G36*
X016189Y008256D02*
X015854Y008591D01*
X016215Y008952D01*
X016550Y008617D01*
X016189Y008256D01*
G37*
G36*
X015507Y009070D02*
X015842Y008735D01*
X015481Y008374D01*
X015146Y008709D01*
X015507Y009070D01*
G37*
G36*
X015034Y009543D02*
X015369Y009208D01*
X015008Y008847D01*
X014673Y009182D01*
X015034Y009543D01*
G37*
G36*
X014300Y008964D02*
X013965Y009299D01*
X014326Y009660D01*
X014661Y009325D01*
X014300Y008964D01*
G37*
G36*
X013827Y009437D02*
X013492Y009772D01*
X013853Y010133D01*
X014188Y009798D01*
X013827Y009437D01*
G37*
G36*
X017869Y007889D02*
X018204Y007554D01*
X017843Y007193D01*
X017508Y007528D01*
X017869Y007889D01*
G37*
G36*
X015540Y005468D02*
X015875Y005803D01*
X016236Y005442D01*
X015901Y005107D01*
X015540Y005468D01*
G37*
G36*
X015067Y004994D02*
X015402Y005329D01*
X015763Y004968D01*
X015428Y004633D01*
X015067Y004994D01*
G37*
G36*
X015252Y005442D02*
X014917Y005107D01*
X014556Y005468D01*
X014891Y005803D01*
X015252Y005442D01*
G37*
G36*
X014778Y004968D02*
X014443Y004633D01*
X014082Y004994D01*
X014417Y005329D01*
X014778Y004968D01*
G37*
X011883Y002069D03*
X011214Y002069D03*
X007883Y002069D03*
X007214Y002069D03*
X022206Y021163D03*
X022876Y021163D03*
X028868Y028446D03*
X029537Y028446D03*
X032868Y028446D03*
X033537Y028446D03*
X011883Y028446D03*
X011214Y028446D03*
X007883Y028446D03*
X007214Y028446D03*
D21*
X005218Y024057D03*
X005218Y023387D03*
X011124Y023387D03*
X011124Y024057D03*
X013092Y023663D03*
X013092Y022994D03*
X013880Y022994D03*
X013880Y023663D03*
X026872Y023663D03*
X026872Y022994D03*
X027659Y022994D03*
X027659Y023663D03*
X029628Y023387D03*
X029628Y024057D03*
X035533Y024057D03*
X035533Y023387D03*
X018604Y010474D03*
X018013Y010474D03*
X018013Y009805D03*
X018604Y009805D03*
X017620Y011380D03*
X017029Y011380D03*
X017029Y012049D03*
X017620Y012049D03*
X011124Y007128D03*
X011124Y006458D03*
X005218Y006458D03*
X005218Y007128D03*
X029628Y007128D03*
X029628Y006458D03*
X035533Y006458D03*
X035533Y007128D03*
D22*
X034895Y003446D03*
X034265Y003446D03*
X030895Y003446D03*
X030265Y003446D03*
X024431Y016439D03*
X023801Y016439D03*
X017344Y022541D03*
X016714Y022541D03*
X010486Y027069D03*
X009856Y027069D03*
X006486Y027069D03*
X005856Y027069D03*
X020061Y028840D03*
X020691Y028840D03*
X023407Y025691D03*
X024037Y025691D03*
X030265Y027069D03*
X030895Y027069D03*
X034265Y027069D03*
X034895Y027069D03*
X010486Y003446D03*
X009856Y003446D03*
X006486Y003446D03*
X005856Y003446D03*
D23*
X019293Y018683D03*
X019293Y019313D03*
D24*
X016242Y023328D03*
X016242Y024903D03*
X024509Y024903D03*
X024509Y023328D03*
X023860Y012324D03*
X023860Y011065D03*
D25*
X021376Y010336D03*
X021376Y009336D03*
X019376Y009336D03*
X019376Y010336D03*
X016848Y003250D03*
X016848Y002250D03*
X014848Y002250D03*
X014848Y003250D03*
X023903Y003250D03*
X023903Y002250D03*
X025903Y002250D03*
X025903Y003250D03*
X021376Y020179D03*
X021376Y021179D03*
X019376Y021179D03*
X019376Y020179D03*
X016848Y027265D03*
X016848Y028265D03*
X014848Y028265D03*
X014848Y027265D03*
X023903Y027265D03*
X023903Y028265D03*
X025903Y028265D03*
X025903Y027265D03*
D26*
X024903Y027265D03*
X024903Y028265D03*
X015848Y028265D03*
X015848Y027265D03*
X020376Y021179D03*
X020376Y020179D03*
X020376Y010336D03*
X020376Y009336D03*
X024903Y003250D03*
X024903Y002250D03*
X015848Y002250D03*
X015848Y003250D03*
D27*
X020277Y011360D03*
X020277Y011872D03*
D28*
X016793Y015750D03*
X016281Y015750D03*
X020317Y018998D03*
X020828Y018998D03*
D29*
X022147Y024116D03*
X018604Y024116D03*
D30*
X019876Y028053D03*
X020876Y028053D03*
D31*
X019824Y026084D03*
X018565Y026084D03*
X022502Y022147D03*
X023761Y022147D03*
D32*
X019982Y018604D03*
X013880Y021557D03*
X013880Y021557D03*
X018604Y027265D03*
X030415Y021557D03*
X030415Y021557D03*
X038289Y021557D03*
X038289Y021557D03*
X034746Y008958D03*
X034746Y008958D03*
X026872Y008958D03*
X026872Y008958D03*
X010336Y008958D03*
X002462Y008958D03*
X006006Y021557D03*
X006006Y021557D03*
D33*
X006990Y018998D03*
X009352Y018998D03*
X009352Y015257D03*
X006990Y015257D03*
X006990Y011517D03*
X009352Y011517D03*
X010336Y008958D03*
X014864Y011517D03*
X019785Y011911D03*
X014864Y015257D03*
X014864Y018998D03*
X025887Y018998D03*
X025887Y015257D03*
X025887Y011517D03*
X031399Y011517D03*
X033761Y011517D03*
X033761Y015257D03*
X031399Y015257D03*
X031399Y018998D03*
X033761Y018998D03*
X039273Y018998D03*
X039273Y015257D03*
X039273Y011517D03*
X038486Y002069D03*
X014076Y001478D03*
X013486Y001478D03*
X002265Y002069D03*
X002462Y008958D03*
X001478Y011517D03*
X001478Y015257D03*
X001478Y018998D03*
X002265Y028446D03*
X038486Y028446D03*
D34*
X024116Y015946D03*
X024116Y015356D03*
X024116Y014470D03*
X023722Y013781D03*
X023722Y013191D03*
X017029Y014864D03*
D35*
X017029Y013880D03*
M02*
