G75*
G70*
%OFA0B0*%
%FSLAX24Y24*%
%IPPOS*%
%LPD*%
%AMOC8*
5,1,8,0,0,1.08239X$1,22.5*
%
%ADD10R,0.0580X0.0110*%
%ADD11R,0.0110X0.0580*%
%ADD12R,0.0197X0.0315*%
%ADD13R,0.0394X0.0433*%
%ADD14R,0.0433X0.0394*%
%ADD15R,0.0394X0.0472*%
%ADD16R,0.0472X0.0394*%
%ADD17R,0.0787X0.0787*%
%ADD18R,0.0354X0.0276*%
%ADD19R,0.0276X0.0354*%
%ADD20R,0.2756X0.2362*%
%ADD21R,0.0787X0.1181*%
D10*
X017716Y013387D03*
X017716Y013587D03*
X017716Y013777D03*
X017716Y013977D03*
X017716Y014177D03*
X017716Y014367D03*
X017716Y014567D03*
X017716Y014767D03*
X017716Y014957D03*
X017716Y015157D03*
X017716Y015357D03*
X017716Y015557D03*
X017716Y015747D03*
X017716Y015947D03*
X017716Y016147D03*
X017716Y016337D03*
X017716Y016537D03*
X017716Y016737D03*
X017716Y016927D03*
X017716Y017127D03*
X023036Y017127D03*
X023036Y016927D03*
X023036Y016737D03*
X023036Y016537D03*
X023036Y016337D03*
X023036Y016147D03*
X023036Y015947D03*
X023036Y015747D03*
X023036Y015557D03*
X023036Y015357D03*
X023036Y015157D03*
X023036Y014957D03*
X023036Y014767D03*
X023036Y014567D03*
X023036Y014367D03*
X023036Y014177D03*
X023036Y013977D03*
X023036Y013777D03*
X023036Y013587D03*
X023036Y013387D03*
D11*
X022246Y012597D03*
X022046Y012597D03*
X021856Y012597D03*
X021656Y012597D03*
X021456Y012597D03*
X021266Y012597D03*
X021066Y012597D03*
X020866Y012597D03*
X020676Y012597D03*
X020476Y012597D03*
X020276Y012597D03*
X020076Y012597D03*
X019886Y012597D03*
X019686Y012597D03*
X019486Y012597D03*
X019296Y012597D03*
X019096Y012597D03*
X018896Y012597D03*
X018706Y012597D03*
X018506Y012597D03*
X018506Y017917D03*
X018706Y017917D03*
X018896Y017917D03*
X019096Y017917D03*
X019296Y017917D03*
X019486Y017917D03*
X019686Y017917D03*
X019886Y017917D03*
X020076Y017917D03*
X020276Y017917D03*
X020476Y017917D03*
X020676Y017917D03*
X020866Y017917D03*
X021066Y017917D03*
X021266Y017917D03*
X021456Y017917D03*
X021656Y017917D03*
X021856Y017917D03*
X022046Y017917D03*
X022246Y017917D03*
D12*
X026891Y024352D03*
X027265Y024352D03*
X027639Y024352D03*
X027639Y025454D03*
X026891Y025454D03*
X013860Y025454D03*
X013112Y025454D03*
X013112Y024352D03*
X013486Y024352D03*
X013860Y024352D03*
X013683Y007147D03*
X014057Y007147D03*
X013309Y007147D03*
X013309Y006045D03*
X014057Y006045D03*
X015868Y006045D03*
X016616Y006045D03*
X016616Y007147D03*
X016242Y007147D03*
X015868Y007147D03*
D13*
G36*
X016662Y007839D02*
X016383Y008118D01*
X016688Y008423D01*
X016967Y008144D01*
X016662Y007839D01*
G37*
G36*
X017396Y008306D02*
X017675Y008027D01*
X017370Y007722D01*
X017091Y008001D01*
X017396Y008306D01*
G37*
G36*
X017869Y007833D02*
X018148Y007554D01*
X017843Y007249D01*
X017564Y007528D01*
X017869Y007833D01*
G37*
G36*
X016189Y008312D02*
X015910Y008591D01*
X016215Y008896D01*
X016494Y008617D01*
X016189Y008312D01*
G37*
G36*
X015507Y009014D02*
X015786Y008735D01*
X015481Y008430D01*
X015202Y008709D01*
X015507Y009014D01*
G37*
G36*
X015034Y009487D02*
X015313Y009208D01*
X015008Y008903D01*
X014729Y009182D01*
X015034Y009487D01*
G37*
G36*
X014300Y009020D02*
X014021Y009299D01*
X014326Y009604D01*
X014605Y009325D01*
X014300Y009020D01*
G37*
G36*
X013827Y009493D02*
X013548Y009772D01*
X013853Y010077D01*
X014132Y009798D01*
X013827Y009493D01*
G37*
G36*
X015196Y005442D02*
X014917Y005163D01*
X014612Y005468D01*
X014891Y005747D01*
X015196Y005442D01*
G37*
G36*
X015123Y004994D02*
X015402Y005273D01*
X015707Y004968D01*
X015428Y004689D01*
X015123Y004994D01*
G37*
G36*
X014722Y004968D02*
X014443Y004689D01*
X014138Y004994D01*
X014417Y005273D01*
X014722Y004968D01*
G37*
G36*
X015596Y005468D02*
X015875Y005747D01*
X016180Y005442D01*
X015901Y005163D01*
X015596Y005468D01*
G37*
X011883Y002069D03*
X011214Y002069D03*
X007883Y002069D03*
X007214Y002069D03*
X020435Y010828D03*
X021104Y010828D03*
X022206Y021163D03*
X022876Y021163D03*
X028868Y028446D03*
X029537Y028446D03*
X032868Y028446D03*
X033537Y028446D03*
X011883Y028446D03*
X011214Y028446D03*
X007883Y028446D03*
X007214Y028446D03*
D14*
X005218Y024057D03*
X005218Y023387D03*
X011124Y023387D03*
X011124Y024057D03*
X013092Y023663D03*
X013092Y022994D03*
X013880Y022994D03*
X013880Y023663D03*
X026872Y023663D03*
X026872Y022994D03*
X027659Y022994D03*
X027659Y023663D03*
X029628Y023387D03*
X029628Y024057D03*
X035533Y024057D03*
X035533Y023387D03*
X018604Y010474D03*
X018013Y010474D03*
X018013Y009805D03*
X018604Y009805D03*
X017620Y011380D03*
X017029Y011380D03*
X017029Y012049D03*
X017620Y012049D03*
X011124Y007128D03*
X011124Y006458D03*
X005218Y006458D03*
X005218Y007128D03*
X029628Y007128D03*
X029628Y006458D03*
X035533Y006458D03*
X035533Y007128D03*
D15*
X005856Y003446D03*
X006486Y003446D03*
X009856Y003446D03*
X010486Y003446D03*
X023801Y016439D03*
X024431Y016439D03*
X017344Y022541D03*
X016714Y022541D03*
X010486Y027069D03*
X009856Y027069D03*
X006486Y027069D03*
X005856Y027069D03*
X020061Y028840D03*
X020691Y028840D03*
X023407Y025691D03*
X024037Y025691D03*
X030265Y027069D03*
X030895Y027069D03*
X034265Y027069D03*
X034895Y027069D03*
X034895Y003446D03*
X034265Y003446D03*
X030895Y003446D03*
X030265Y003446D03*
D16*
X019293Y018683D03*
X019293Y019313D03*
D17*
X016242Y023328D03*
X016242Y024903D03*
X024509Y024903D03*
X024509Y023328D03*
X023860Y012324D03*
X023860Y011065D03*
D18*
X020277Y011360D03*
X020277Y011872D03*
D19*
X016793Y015750D03*
X016281Y015750D03*
X020317Y018998D03*
X020828Y018998D03*
D20*
X022147Y024116D03*
X018604Y024116D03*
D21*
X018565Y026084D03*
X019824Y026084D03*
X022502Y022147D03*
X023761Y022147D03*
M02*
