%
M48
M72
T01C0.0197
T02C0.0236
T03C0.0315
T04C0.0394
%
T01
X1774Y4194
X1695Y4667
X2050Y5257
X1774Y6320
X1616Y6793
X1892Y7128
X2187Y6596
X3073Y6911
X3624Y3683
X4254Y3289
X2798Y2738
X5239Y7738
X5396Y7029
X4884Y8171
X6065Y6242
X6380Y6754
X6380Y4391
X6380Y2502
T02
X4018Y13604
X3270Y13604
T03
X1557Y1714
X2148Y1714
X2739Y1714
X3329Y1714
X3920Y1714
X4510Y1714
X5101Y1714
X5691Y1714
X4569Y13604
X2719Y13604
T04
X2050Y13604
X2050Y10572
X2050Y9982
X987Y9667
X987Y9076
X5199Y9982
X5199Y10572
X6262Y9667
X6262Y9076
X5239Y13604
M30
