G75*
G70*
%OFA0B0*%
%FSLAX24Y24*%
%IPPOS*%
%LPD*%
%AMOC8*
5,1,8,0,0,1.08239X$1,22.5*
%
%ADD10C,0.0000*%
D10*
X000100Y000100D02*
X000100Y030415D01*
X040257Y030415D01*
X040257Y000100D01*
X000100Y000100D01*
X001439Y002069D02*
X001441Y002119D01*
X001447Y002169D01*
X001457Y002218D01*
X001471Y002266D01*
X001488Y002313D01*
X001509Y002358D01*
X001534Y002402D01*
X001562Y002443D01*
X001594Y002482D01*
X001628Y002519D01*
X001665Y002553D01*
X001705Y002583D01*
X001747Y002610D01*
X001791Y002634D01*
X001837Y002655D01*
X001884Y002671D01*
X001932Y002684D01*
X001982Y002693D01*
X002031Y002698D01*
X002082Y002699D01*
X002132Y002696D01*
X002181Y002689D01*
X002230Y002678D01*
X002278Y002663D01*
X002324Y002645D01*
X002369Y002623D01*
X002412Y002597D01*
X002453Y002568D01*
X002492Y002536D01*
X002528Y002501D01*
X002560Y002463D01*
X002590Y002423D01*
X002617Y002380D01*
X002640Y002336D01*
X002659Y002290D01*
X002675Y002242D01*
X002687Y002193D01*
X002695Y002144D01*
X002699Y002094D01*
X002699Y002044D01*
X002695Y001994D01*
X002687Y001945D01*
X002675Y001896D01*
X002659Y001848D01*
X002640Y001802D01*
X002617Y001758D01*
X002590Y001715D01*
X002560Y001675D01*
X002528Y001637D01*
X002492Y001602D01*
X002453Y001570D01*
X002412Y001541D01*
X002369Y001515D01*
X002324Y001493D01*
X002278Y001475D01*
X002230Y001460D01*
X002181Y001449D01*
X002132Y001442D01*
X002082Y001439D01*
X002031Y001440D01*
X001982Y001445D01*
X001932Y001454D01*
X001884Y001467D01*
X001837Y001483D01*
X001791Y001504D01*
X001747Y001528D01*
X001705Y001555D01*
X001665Y001585D01*
X001628Y001619D01*
X001594Y001656D01*
X001562Y001695D01*
X001534Y001736D01*
X001509Y001780D01*
X001488Y001825D01*
X001471Y001872D01*
X001457Y001920D01*
X001447Y001969D01*
X001441Y002019D01*
X001439Y002069D01*
X000730Y011517D02*
X000732Y011564D01*
X000738Y011610D01*
X000748Y011656D01*
X000761Y011701D01*
X000779Y011744D01*
X000800Y011786D01*
X000824Y011826D01*
X000852Y011863D01*
X000883Y011898D01*
X000917Y011931D01*
X000953Y011960D01*
X000992Y011986D01*
X001033Y012009D01*
X001076Y012028D01*
X001120Y012044D01*
X001165Y012056D01*
X001211Y012064D01*
X001258Y012068D01*
X001304Y012068D01*
X001351Y012064D01*
X001397Y012056D01*
X001442Y012044D01*
X001486Y012028D01*
X001529Y012009D01*
X001570Y011986D01*
X001609Y011960D01*
X001645Y011931D01*
X001679Y011898D01*
X001710Y011863D01*
X001738Y011826D01*
X001762Y011786D01*
X001783Y011744D01*
X001801Y011701D01*
X001814Y011656D01*
X001824Y011610D01*
X001830Y011564D01*
X001832Y011517D01*
X001830Y011470D01*
X001824Y011424D01*
X001814Y011378D01*
X001801Y011333D01*
X001783Y011290D01*
X001762Y011248D01*
X001738Y011208D01*
X001710Y011171D01*
X001679Y011136D01*
X001645Y011103D01*
X001609Y011074D01*
X001570Y011048D01*
X001529Y011025D01*
X001486Y011006D01*
X001442Y010990D01*
X001397Y010978D01*
X001351Y010970D01*
X001304Y010966D01*
X001258Y010966D01*
X001211Y010970D01*
X001165Y010978D01*
X001120Y010990D01*
X001076Y011006D01*
X001033Y011025D01*
X000992Y011048D01*
X000953Y011074D01*
X000917Y011103D01*
X000883Y011136D01*
X000852Y011171D01*
X000824Y011208D01*
X000800Y011248D01*
X000779Y011290D01*
X000761Y011333D01*
X000748Y011378D01*
X000738Y011424D01*
X000732Y011470D01*
X000730Y011517D01*
X000730Y015257D02*
X000732Y015304D01*
X000738Y015350D01*
X000748Y015396D01*
X000761Y015441D01*
X000779Y015484D01*
X000800Y015526D01*
X000824Y015566D01*
X000852Y015603D01*
X000883Y015638D01*
X000917Y015671D01*
X000953Y015700D01*
X000992Y015726D01*
X001033Y015749D01*
X001076Y015768D01*
X001120Y015784D01*
X001165Y015796D01*
X001211Y015804D01*
X001258Y015808D01*
X001304Y015808D01*
X001351Y015804D01*
X001397Y015796D01*
X001442Y015784D01*
X001486Y015768D01*
X001529Y015749D01*
X001570Y015726D01*
X001609Y015700D01*
X001645Y015671D01*
X001679Y015638D01*
X001710Y015603D01*
X001738Y015566D01*
X001762Y015526D01*
X001783Y015484D01*
X001801Y015441D01*
X001814Y015396D01*
X001824Y015350D01*
X001830Y015304D01*
X001832Y015257D01*
X001830Y015210D01*
X001824Y015164D01*
X001814Y015118D01*
X001801Y015073D01*
X001783Y015030D01*
X001762Y014988D01*
X001738Y014948D01*
X001710Y014911D01*
X001679Y014876D01*
X001645Y014843D01*
X001609Y014814D01*
X001570Y014788D01*
X001529Y014765D01*
X001486Y014746D01*
X001442Y014730D01*
X001397Y014718D01*
X001351Y014710D01*
X001304Y014706D01*
X001258Y014706D01*
X001211Y014710D01*
X001165Y014718D01*
X001120Y014730D01*
X001076Y014746D01*
X001033Y014765D01*
X000992Y014788D01*
X000953Y014814D01*
X000917Y014843D01*
X000883Y014876D01*
X000852Y014911D01*
X000824Y014948D01*
X000800Y014988D01*
X000779Y015030D01*
X000761Y015073D01*
X000748Y015118D01*
X000738Y015164D01*
X000732Y015210D01*
X000730Y015257D01*
X000730Y018998D02*
X000732Y019045D01*
X000738Y019091D01*
X000748Y019137D01*
X000761Y019182D01*
X000779Y019225D01*
X000800Y019267D01*
X000824Y019307D01*
X000852Y019344D01*
X000883Y019379D01*
X000917Y019412D01*
X000953Y019441D01*
X000992Y019467D01*
X001033Y019490D01*
X001076Y019509D01*
X001120Y019525D01*
X001165Y019537D01*
X001211Y019545D01*
X001258Y019549D01*
X001304Y019549D01*
X001351Y019545D01*
X001397Y019537D01*
X001442Y019525D01*
X001486Y019509D01*
X001529Y019490D01*
X001570Y019467D01*
X001609Y019441D01*
X001645Y019412D01*
X001679Y019379D01*
X001710Y019344D01*
X001738Y019307D01*
X001762Y019267D01*
X001783Y019225D01*
X001801Y019182D01*
X001814Y019137D01*
X001824Y019091D01*
X001830Y019045D01*
X001832Y018998D01*
X001830Y018951D01*
X001824Y018905D01*
X001814Y018859D01*
X001801Y018814D01*
X001783Y018771D01*
X001762Y018729D01*
X001738Y018689D01*
X001710Y018652D01*
X001679Y018617D01*
X001645Y018584D01*
X001609Y018555D01*
X001570Y018529D01*
X001529Y018506D01*
X001486Y018487D01*
X001442Y018471D01*
X001397Y018459D01*
X001351Y018451D01*
X001304Y018447D01*
X001258Y018447D01*
X001211Y018451D01*
X001165Y018459D01*
X001120Y018471D01*
X001076Y018487D01*
X001033Y018506D01*
X000992Y018529D01*
X000953Y018555D01*
X000917Y018584D01*
X000883Y018617D01*
X000852Y018652D01*
X000824Y018689D01*
X000800Y018729D01*
X000779Y018771D01*
X000761Y018814D01*
X000748Y018859D01*
X000738Y018905D01*
X000732Y018951D01*
X000730Y018998D01*
X006242Y018998D02*
X006244Y019045D01*
X006250Y019091D01*
X006260Y019137D01*
X006273Y019182D01*
X006291Y019225D01*
X006312Y019267D01*
X006336Y019307D01*
X006364Y019344D01*
X006395Y019379D01*
X006429Y019412D01*
X006465Y019441D01*
X006504Y019467D01*
X006545Y019490D01*
X006588Y019509D01*
X006632Y019525D01*
X006677Y019537D01*
X006723Y019545D01*
X006770Y019549D01*
X006816Y019549D01*
X006863Y019545D01*
X006909Y019537D01*
X006954Y019525D01*
X006998Y019509D01*
X007041Y019490D01*
X007082Y019467D01*
X007121Y019441D01*
X007157Y019412D01*
X007191Y019379D01*
X007222Y019344D01*
X007250Y019307D01*
X007274Y019267D01*
X007295Y019225D01*
X007313Y019182D01*
X007326Y019137D01*
X007336Y019091D01*
X007342Y019045D01*
X007344Y018998D01*
X007342Y018951D01*
X007336Y018905D01*
X007326Y018859D01*
X007313Y018814D01*
X007295Y018771D01*
X007274Y018729D01*
X007250Y018689D01*
X007222Y018652D01*
X007191Y018617D01*
X007157Y018584D01*
X007121Y018555D01*
X007082Y018529D01*
X007041Y018506D01*
X006998Y018487D01*
X006954Y018471D01*
X006909Y018459D01*
X006863Y018451D01*
X006816Y018447D01*
X006770Y018447D01*
X006723Y018451D01*
X006677Y018459D01*
X006632Y018471D01*
X006588Y018487D01*
X006545Y018506D01*
X006504Y018529D01*
X006465Y018555D01*
X006429Y018584D01*
X006395Y018617D01*
X006364Y018652D01*
X006336Y018689D01*
X006312Y018729D01*
X006291Y018771D01*
X006273Y018814D01*
X006260Y018859D01*
X006250Y018905D01*
X006244Y018951D01*
X006242Y018998D01*
X008604Y018998D02*
X008606Y019045D01*
X008612Y019091D01*
X008622Y019137D01*
X008635Y019182D01*
X008653Y019225D01*
X008674Y019267D01*
X008698Y019307D01*
X008726Y019344D01*
X008757Y019379D01*
X008791Y019412D01*
X008827Y019441D01*
X008866Y019467D01*
X008907Y019490D01*
X008950Y019509D01*
X008994Y019525D01*
X009039Y019537D01*
X009085Y019545D01*
X009132Y019549D01*
X009178Y019549D01*
X009225Y019545D01*
X009271Y019537D01*
X009316Y019525D01*
X009360Y019509D01*
X009403Y019490D01*
X009444Y019467D01*
X009483Y019441D01*
X009519Y019412D01*
X009553Y019379D01*
X009584Y019344D01*
X009612Y019307D01*
X009636Y019267D01*
X009657Y019225D01*
X009675Y019182D01*
X009688Y019137D01*
X009698Y019091D01*
X009704Y019045D01*
X009706Y018998D01*
X009704Y018951D01*
X009698Y018905D01*
X009688Y018859D01*
X009675Y018814D01*
X009657Y018771D01*
X009636Y018729D01*
X009612Y018689D01*
X009584Y018652D01*
X009553Y018617D01*
X009519Y018584D01*
X009483Y018555D01*
X009444Y018529D01*
X009403Y018506D01*
X009360Y018487D01*
X009316Y018471D01*
X009271Y018459D01*
X009225Y018451D01*
X009178Y018447D01*
X009132Y018447D01*
X009085Y018451D01*
X009039Y018459D01*
X008994Y018471D01*
X008950Y018487D01*
X008907Y018506D01*
X008866Y018529D01*
X008827Y018555D01*
X008791Y018584D01*
X008757Y018617D01*
X008726Y018652D01*
X008698Y018689D01*
X008674Y018729D01*
X008653Y018771D01*
X008635Y018814D01*
X008622Y018859D01*
X008612Y018905D01*
X008606Y018951D01*
X008604Y018998D01*
X008604Y015257D02*
X008606Y015304D01*
X008612Y015350D01*
X008622Y015396D01*
X008635Y015441D01*
X008653Y015484D01*
X008674Y015526D01*
X008698Y015566D01*
X008726Y015603D01*
X008757Y015638D01*
X008791Y015671D01*
X008827Y015700D01*
X008866Y015726D01*
X008907Y015749D01*
X008950Y015768D01*
X008994Y015784D01*
X009039Y015796D01*
X009085Y015804D01*
X009132Y015808D01*
X009178Y015808D01*
X009225Y015804D01*
X009271Y015796D01*
X009316Y015784D01*
X009360Y015768D01*
X009403Y015749D01*
X009444Y015726D01*
X009483Y015700D01*
X009519Y015671D01*
X009553Y015638D01*
X009584Y015603D01*
X009612Y015566D01*
X009636Y015526D01*
X009657Y015484D01*
X009675Y015441D01*
X009688Y015396D01*
X009698Y015350D01*
X009704Y015304D01*
X009706Y015257D01*
X009704Y015210D01*
X009698Y015164D01*
X009688Y015118D01*
X009675Y015073D01*
X009657Y015030D01*
X009636Y014988D01*
X009612Y014948D01*
X009584Y014911D01*
X009553Y014876D01*
X009519Y014843D01*
X009483Y014814D01*
X009444Y014788D01*
X009403Y014765D01*
X009360Y014746D01*
X009316Y014730D01*
X009271Y014718D01*
X009225Y014710D01*
X009178Y014706D01*
X009132Y014706D01*
X009085Y014710D01*
X009039Y014718D01*
X008994Y014730D01*
X008950Y014746D01*
X008907Y014765D01*
X008866Y014788D01*
X008827Y014814D01*
X008791Y014843D01*
X008757Y014876D01*
X008726Y014911D01*
X008698Y014948D01*
X008674Y014988D01*
X008653Y015030D01*
X008635Y015073D01*
X008622Y015118D01*
X008612Y015164D01*
X008606Y015210D01*
X008604Y015257D01*
X006242Y015257D02*
X006244Y015304D01*
X006250Y015350D01*
X006260Y015396D01*
X006273Y015441D01*
X006291Y015484D01*
X006312Y015526D01*
X006336Y015566D01*
X006364Y015603D01*
X006395Y015638D01*
X006429Y015671D01*
X006465Y015700D01*
X006504Y015726D01*
X006545Y015749D01*
X006588Y015768D01*
X006632Y015784D01*
X006677Y015796D01*
X006723Y015804D01*
X006770Y015808D01*
X006816Y015808D01*
X006863Y015804D01*
X006909Y015796D01*
X006954Y015784D01*
X006998Y015768D01*
X007041Y015749D01*
X007082Y015726D01*
X007121Y015700D01*
X007157Y015671D01*
X007191Y015638D01*
X007222Y015603D01*
X007250Y015566D01*
X007274Y015526D01*
X007295Y015484D01*
X007313Y015441D01*
X007326Y015396D01*
X007336Y015350D01*
X007342Y015304D01*
X007344Y015257D01*
X007342Y015210D01*
X007336Y015164D01*
X007326Y015118D01*
X007313Y015073D01*
X007295Y015030D01*
X007274Y014988D01*
X007250Y014948D01*
X007222Y014911D01*
X007191Y014876D01*
X007157Y014843D01*
X007121Y014814D01*
X007082Y014788D01*
X007041Y014765D01*
X006998Y014746D01*
X006954Y014730D01*
X006909Y014718D01*
X006863Y014710D01*
X006816Y014706D01*
X006770Y014706D01*
X006723Y014710D01*
X006677Y014718D01*
X006632Y014730D01*
X006588Y014746D01*
X006545Y014765D01*
X006504Y014788D01*
X006465Y014814D01*
X006429Y014843D01*
X006395Y014876D01*
X006364Y014911D01*
X006336Y014948D01*
X006312Y014988D01*
X006291Y015030D01*
X006273Y015073D01*
X006260Y015118D01*
X006250Y015164D01*
X006244Y015210D01*
X006242Y015257D01*
X006242Y011517D02*
X006244Y011564D01*
X006250Y011610D01*
X006260Y011656D01*
X006273Y011701D01*
X006291Y011744D01*
X006312Y011786D01*
X006336Y011826D01*
X006364Y011863D01*
X006395Y011898D01*
X006429Y011931D01*
X006465Y011960D01*
X006504Y011986D01*
X006545Y012009D01*
X006588Y012028D01*
X006632Y012044D01*
X006677Y012056D01*
X006723Y012064D01*
X006770Y012068D01*
X006816Y012068D01*
X006863Y012064D01*
X006909Y012056D01*
X006954Y012044D01*
X006998Y012028D01*
X007041Y012009D01*
X007082Y011986D01*
X007121Y011960D01*
X007157Y011931D01*
X007191Y011898D01*
X007222Y011863D01*
X007250Y011826D01*
X007274Y011786D01*
X007295Y011744D01*
X007313Y011701D01*
X007326Y011656D01*
X007336Y011610D01*
X007342Y011564D01*
X007344Y011517D01*
X007342Y011470D01*
X007336Y011424D01*
X007326Y011378D01*
X007313Y011333D01*
X007295Y011290D01*
X007274Y011248D01*
X007250Y011208D01*
X007222Y011171D01*
X007191Y011136D01*
X007157Y011103D01*
X007121Y011074D01*
X007082Y011048D01*
X007041Y011025D01*
X006998Y011006D01*
X006954Y010990D01*
X006909Y010978D01*
X006863Y010970D01*
X006816Y010966D01*
X006770Y010966D01*
X006723Y010970D01*
X006677Y010978D01*
X006632Y010990D01*
X006588Y011006D01*
X006545Y011025D01*
X006504Y011048D01*
X006465Y011074D01*
X006429Y011103D01*
X006395Y011136D01*
X006364Y011171D01*
X006336Y011208D01*
X006312Y011248D01*
X006291Y011290D01*
X006273Y011333D01*
X006260Y011378D01*
X006250Y011424D01*
X006244Y011470D01*
X006242Y011517D01*
X008604Y011517D02*
X008606Y011564D01*
X008612Y011610D01*
X008622Y011656D01*
X008635Y011701D01*
X008653Y011744D01*
X008674Y011786D01*
X008698Y011826D01*
X008726Y011863D01*
X008757Y011898D01*
X008791Y011931D01*
X008827Y011960D01*
X008866Y011986D01*
X008907Y012009D01*
X008950Y012028D01*
X008994Y012044D01*
X009039Y012056D01*
X009085Y012064D01*
X009132Y012068D01*
X009178Y012068D01*
X009225Y012064D01*
X009271Y012056D01*
X009316Y012044D01*
X009360Y012028D01*
X009403Y012009D01*
X009444Y011986D01*
X009483Y011960D01*
X009519Y011931D01*
X009553Y011898D01*
X009584Y011863D01*
X009612Y011826D01*
X009636Y011786D01*
X009657Y011744D01*
X009675Y011701D01*
X009688Y011656D01*
X009698Y011610D01*
X009704Y011564D01*
X009706Y011517D01*
X009704Y011470D01*
X009698Y011424D01*
X009688Y011378D01*
X009675Y011333D01*
X009657Y011290D01*
X009636Y011248D01*
X009612Y011208D01*
X009584Y011171D01*
X009553Y011136D01*
X009519Y011103D01*
X009483Y011074D01*
X009444Y011048D01*
X009403Y011025D01*
X009360Y011006D01*
X009316Y010990D01*
X009271Y010978D01*
X009225Y010970D01*
X009178Y010966D01*
X009132Y010966D01*
X009085Y010970D01*
X009039Y010978D01*
X008994Y010990D01*
X008950Y011006D01*
X008907Y011025D01*
X008866Y011048D01*
X008827Y011074D01*
X008791Y011103D01*
X008757Y011136D01*
X008726Y011171D01*
X008698Y011208D01*
X008674Y011248D01*
X008653Y011290D01*
X008635Y011333D01*
X008622Y011378D01*
X008612Y011424D01*
X008606Y011470D01*
X008604Y011517D01*
X014116Y011517D02*
X014118Y011564D01*
X014124Y011610D01*
X014134Y011656D01*
X014147Y011701D01*
X014165Y011744D01*
X014186Y011786D01*
X014210Y011826D01*
X014238Y011863D01*
X014269Y011898D01*
X014303Y011931D01*
X014339Y011960D01*
X014378Y011986D01*
X014419Y012009D01*
X014462Y012028D01*
X014506Y012044D01*
X014551Y012056D01*
X014597Y012064D01*
X014644Y012068D01*
X014690Y012068D01*
X014737Y012064D01*
X014783Y012056D01*
X014828Y012044D01*
X014872Y012028D01*
X014915Y012009D01*
X014956Y011986D01*
X014995Y011960D01*
X015031Y011931D01*
X015065Y011898D01*
X015096Y011863D01*
X015124Y011826D01*
X015148Y011786D01*
X015169Y011744D01*
X015187Y011701D01*
X015200Y011656D01*
X015210Y011610D01*
X015216Y011564D01*
X015218Y011517D01*
X015216Y011470D01*
X015210Y011424D01*
X015200Y011378D01*
X015187Y011333D01*
X015169Y011290D01*
X015148Y011248D01*
X015124Y011208D01*
X015096Y011171D01*
X015065Y011136D01*
X015031Y011103D01*
X014995Y011074D01*
X014956Y011048D01*
X014915Y011025D01*
X014872Y011006D01*
X014828Y010990D01*
X014783Y010978D01*
X014737Y010970D01*
X014690Y010966D01*
X014644Y010966D01*
X014597Y010970D01*
X014551Y010978D01*
X014506Y010990D01*
X014462Y011006D01*
X014419Y011025D01*
X014378Y011048D01*
X014339Y011074D01*
X014303Y011103D01*
X014269Y011136D01*
X014238Y011171D01*
X014210Y011208D01*
X014186Y011248D01*
X014165Y011290D01*
X014147Y011333D01*
X014134Y011378D01*
X014124Y011424D01*
X014118Y011470D01*
X014116Y011517D01*
X014116Y015257D02*
X014118Y015304D01*
X014124Y015350D01*
X014134Y015396D01*
X014147Y015441D01*
X014165Y015484D01*
X014186Y015526D01*
X014210Y015566D01*
X014238Y015603D01*
X014269Y015638D01*
X014303Y015671D01*
X014339Y015700D01*
X014378Y015726D01*
X014419Y015749D01*
X014462Y015768D01*
X014506Y015784D01*
X014551Y015796D01*
X014597Y015804D01*
X014644Y015808D01*
X014690Y015808D01*
X014737Y015804D01*
X014783Y015796D01*
X014828Y015784D01*
X014872Y015768D01*
X014915Y015749D01*
X014956Y015726D01*
X014995Y015700D01*
X015031Y015671D01*
X015065Y015638D01*
X015096Y015603D01*
X015124Y015566D01*
X015148Y015526D01*
X015169Y015484D01*
X015187Y015441D01*
X015200Y015396D01*
X015210Y015350D01*
X015216Y015304D01*
X015218Y015257D01*
X015216Y015210D01*
X015210Y015164D01*
X015200Y015118D01*
X015187Y015073D01*
X015169Y015030D01*
X015148Y014988D01*
X015124Y014948D01*
X015096Y014911D01*
X015065Y014876D01*
X015031Y014843D01*
X014995Y014814D01*
X014956Y014788D01*
X014915Y014765D01*
X014872Y014746D01*
X014828Y014730D01*
X014783Y014718D01*
X014737Y014710D01*
X014690Y014706D01*
X014644Y014706D01*
X014597Y014710D01*
X014551Y014718D01*
X014506Y014730D01*
X014462Y014746D01*
X014419Y014765D01*
X014378Y014788D01*
X014339Y014814D01*
X014303Y014843D01*
X014269Y014876D01*
X014238Y014911D01*
X014210Y014948D01*
X014186Y014988D01*
X014165Y015030D01*
X014147Y015073D01*
X014134Y015118D01*
X014124Y015164D01*
X014118Y015210D01*
X014116Y015257D01*
X014116Y018998D02*
X014118Y019045D01*
X014124Y019091D01*
X014134Y019137D01*
X014147Y019182D01*
X014165Y019225D01*
X014186Y019267D01*
X014210Y019307D01*
X014238Y019344D01*
X014269Y019379D01*
X014303Y019412D01*
X014339Y019441D01*
X014378Y019467D01*
X014419Y019490D01*
X014462Y019509D01*
X014506Y019525D01*
X014551Y019537D01*
X014597Y019545D01*
X014644Y019549D01*
X014690Y019549D01*
X014737Y019545D01*
X014783Y019537D01*
X014828Y019525D01*
X014872Y019509D01*
X014915Y019490D01*
X014956Y019467D01*
X014995Y019441D01*
X015031Y019412D01*
X015065Y019379D01*
X015096Y019344D01*
X015124Y019307D01*
X015148Y019267D01*
X015169Y019225D01*
X015187Y019182D01*
X015200Y019137D01*
X015210Y019091D01*
X015216Y019045D01*
X015218Y018998D01*
X015216Y018951D01*
X015210Y018905D01*
X015200Y018859D01*
X015187Y018814D01*
X015169Y018771D01*
X015148Y018729D01*
X015124Y018689D01*
X015096Y018652D01*
X015065Y018617D01*
X015031Y018584D01*
X014995Y018555D01*
X014956Y018529D01*
X014915Y018506D01*
X014872Y018487D01*
X014828Y018471D01*
X014783Y018459D01*
X014737Y018451D01*
X014690Y018447D01*
X014644Y018447D01*
X014597Y018451D01*
X014551Y018459D01*
X014506Y018471D01*
X014462Y018487D01*
X014419Y018506D01*
X014378Y018529D01*
X014339Y018555D01*
X014303Y018584D01*
X014269Y018617D01*
X014238Y018652D01*
X014210Y018689D01*
X014186Y018729D01*
X014165Y018771D01*
X014147Y018814D01*
X014134Y018859D01*
X014124Y018905D01*
X014118Y018951D01*
X014116Y018998D01*
X025140Y018998D02*
X025142Y019045D01*
X025148Y019091D01*
X025158Y019137D01*
X025171Y019182D01*
X025189Y019225D01*
X025210Y019267D01*
X025234Y019307D01*
X025262Y019344D01*
X025293Y019379D01*
X025327Y019412D01*
X025363Y019441D01*
X025402Y019467D01*
X025443Y019490D01*
X025486Y019509D01*
X025530Y019525D01*
X025575Y019537D01*
X025621Y019545D01*
X025668Y019549D01*
X025714Y019549D01*
X025761Y019545D01*
X025807Y019537D01*
X025852Y019525D01*
X025896Y019509D01*
X025939Y019490D01*
X025980Y019467D01*
X026019Y019441D01*
X026055Y019412D01*
X026089Y019379D01*
X026120Y019344D01*
X026148Y019307D01*
X026172Y019267D01*
X026193Y019225D01*
X026211Y019182D01*
X026224Y019137D01*
X026234Y019091D01*
X026240Y019045D01*
X026242Y018998D01*
X026240Y018951D01*
X026234Y018905D01*
X026224Y018859D01*
X026211Y018814D01*
X026193Y018771D01*
X026172Y018729D01*
X026148Y018689D01*
X026120Y018652D01*
X026089Y018617D01*
X026055Y018584D01*
X026019Y018555D01*
X025980Y018529D01*
X025939Y018506D01*
X025896Y018487D01*
X025852Y018471D01*
X025807Y018459D01*
X025761Y018451D01*
X025714Y018447D01*
X025668Y018447D01*
X025621Y018451D01*
X025575Y018459D01*
X025530Y018471D01*
X025486Y018487D01*
X025443Y018506D01*
X025402Y018529D01*
X025363Y018555D01*
X025327Y018584D01*
X025293Y018617D01*
X025262Y018652D01*
X025234Y018689D01*
X025210Y018729D01*
X025189Y018771D01*
X025171Y018814D01*
X025158Y018859D01*
X025148Y018905D01*
X025142Y018951D01*
X025140Y018998D01*
X025140Y015257D02*
X025142Y015304D01*
X025148Y015350D01*
X025158Y015396D01*
X025171Y015441D01*
X025189Y015484D01*
X025210Y015526D01*
X025234Y015566D01*
X025262Y015603D01*
X025293Y015638D01*
X025327Y015671D01*
X025363Y015700D01*
X025402Y015726D01*
X025443Y015749D01*
X025486Y015768D01*
X025530Y015784D01*
X025575Y015796D01*
X025621Y015804D01*
X025668Y015808D01*
X025714Y015808D01*
X025761Y015804D01*
X025807Y015796D01*
X025852Y015784D01*
X025896Y015768D01*
X025939Y015749D01*
X025980Y015726D01*
X026019Y015700D01*
X026055Y015671D01*
X026089Y015638D01*
X026120Y015603D01*
X026148Y015566D01*
X026172Y015526D01*
X026193Y015484D01*
X026211Y015441D01*
X026224Y015396D01*
X026234Y015350D01*
X026240Y015304D01*
X026242Y015257D01*
X026240Y015210D01*
X026234Y015164D01*
X026224Y015118D01*
X026211Y015073D01*
X026193Y015030D01*
X026172Y014988D01*
X026148Y014948D01*
X026120Y014911D01*
X026089Y014876D01*
X026055Y014843D01*
X026019Y014814D01*
X025980Y014788D01*
X025939Y014765D01*
X025896Y014746D01*
X025852Y014730D01*
X025807Y014718D01*
X025761Y014710D01*
X025714Y014706D01*
X025668Y014706D01*
X025621Y014710D01*
X025575Y014718D01*
X025530Y014730D01*
X025486Y014746D01*
X025443Y014765D01*
X025402Y014788D01*
X025363Y014814D01*
X025327Y014843D01*
X025293Y014876D01*
X025262Y014911D01*
X025234Y014948D01*
X025210Y014988D01*
X025189Y015030D01*
X025171Y015073D01*
X025158Y015118D01*
X025148Y015164D01*
X025142Y015210D01*
X025140Y015257D01*
X025140Y011517D02*
X025142Y011564D01*
X025148Y011610D01*
X025158Y011656D01*
X025171Y011701D01*
X025189Y011744D01*
X025210Y011786D01*
X025234Y011826D01*
X025262Y011863D01*
X025293Y011898D01*
X025327Y011931D01*
X025363Y011960D01*
X025402Y011986D01*
X025443Y012009D01*
X025486Y012028D01*
X025530Y012044D01*
X025575Y012056D01*
X025621Y012064D01*
X025668Y012068D01*
X025714Y012068D01*
X025761Y012064D01*
X025807Y012056D01*
X025852Y012044D01*
X025896Y012028D01*
X025939Y012009D01*
X025980Y011986D01*
X026019Y011960D01*
X026055Y011931D01*
X026089Y011898D01*
X026120Y011863D01*
X026148Y011826D01*
X026172Y011786D01*
X026193Y011744D01*
X026211Y011701D01*
X026224Y011656D01*
X026234Y011610D01*
X026240Y011564D01*
X026242Y011517D01*
X026240Y011470D01*
X026234Y011424D01*
X026224Y011378D01*
X026211Y011333D01*
X026193Y011290D01*
X026172Y011248D01*
X026148Y011208D01*
X026120Y011171D01*
X026089Y011136D01*
X026055Y011103D01*
X026019Y011074D01*
X025980Y011048D01*
X025939Y011025D01*
X025896Y011006D01*
X025852Y010990D01*
X025807Y010978D01*
X025761Y010970D01*
X025714Y010966D01*
X025668Y010966D01*
X025621Y010970D01*
X025575Y010978D01*
X025530Y010990D01*
X025486Y011006D01*
X025443Y011025D01*
X025402Y011048D01*
X025363Y011074D01*
X025327Y011103D01*
X025293Y011136D01*
X025262Y011171D01*
X025234Y011208D01*
X025210Y011248D01*
X025189Y011290D01*
X025171Y011333D01*
X025158Y011378D01*
X025148Y011424D01*
X025142Y011470D01*
X025140Y011517D01*
X030651Y011517D02*
X030653Y011564D01*
X030659Y011610D01*
X030669Y011656D01*
X030682Y011701D01*
X030700Y011744D01*
X030721Y011786D01*
X030745Y011826D01*
X030773Y011863D01*
X030804Y011898D01*
X030838Y011931D01*
X030874Y011960D01*
X030913Y011986D01*
X030954Y012009D01*
X030997Y012028D01*
X031041Y012044D01*
X031086Y012056D01*
X031132Y012064D01*
X031179Y012068D01*
X031225Y012068D01*
X031272Y012064D01*
X031318Y012056D01*
X031363Y012044D01*
X031407Y012028D01*
X031450Y012009D01*
X031491Y011986D01*
X031530Y011960D01*
X031566Y011931D01*
X031600Y011898D01*
X031631Y011863D01*
X031659Y011826D01*
X031683Y011786D01*
X031704Y011744D01*
X031722Y011701D01*
X031735Y011656D01*
X031745Y011610D01*
X031751Y011564D01*
X031753Y011517D01*
X031751Y011470D01*
X031745Y011424D01*
X031735Y011378D01*
X031722Y011333D01*
X031704Y011290D01*
X031683Y011248D01*
X031659Y011208D01*
X031631Y011171D01*
X031600Y011136D01*
X031566Y011103D01*
X031530Y011074D01*
X031491Y011048D01*
X031450Y011025D01*
X031407Y011006D01*
X031363Y010990D01*
X031318Y010978D01*
X031272Y010970D01*
X031225Y010966D01*
X031179Y010966D01*
X031132Y010970D01*
X031086Y010978D01*
X031041Y010990D01*
X030997Y011006D01*
X030954Y011025D01*
X030913Y011048D01*
X030874Y011074D01*
X030838Y011103D01*
X030804Y011136D01*
X030773Y011171D01*
X030745Y011208D01*
X030721Y011248D01*
X030700Y011290D01*
X030682Y011333D01*
X030669Y011378D01*
X030659Y011424D01*
X030653Y011470D01*
X030651Y011517D01*
X033014Y011517D02*
X033016Y011564D01*
X033022Y011610D01*
X033032Y011656D01*
X033045Y011701D01*
X033063Y011744D01*
X033084Y011786D01*
X033108Y011826D01*
X033136Y011863D01*
X033167Y011898D01*
X033201Y011931D01*
X033237Y011960D01*
X033276Y011986D01*
X033317Y012009D01*
X033360Y012028D01*
X033404Y012044D01*
X033449Y012056D01*
X033495Y012064D01*
X033542Y012068D01*
X033588Y012068D01*
X033635Y012064D01*
X033681Y012056D01*
X033726Y012044D01*
X033770Y012028D01*
X033813Y012009D01*
X033854Y011986D01*
X033893Y011960D01*
X033929Y011931D01*
X033963Y011898D01*
X033994Y011863D01*
X034022Y011826D01*
X034046Y011786D01*
X034067Y011744D01*
X034085Y011701D01*
X034098Y011656D01*
X034108Y011610D01*
X034114Y011564D01*
X034116Y011517D01*
X034114Y011470D01*
X034108Y011424D01*
X034098Y011378D01*
X034085Y011333D01*
X034067Y011290D01*
X034046Y011248D01*
X034022Y011208D01*
X033994Y011171D01*
X033963Y011136D01*
X033929Y011103D01*
X033893Y011074D01*
X033854Y011048D01*
X033813Y011025D01*
X033770Y011006D01*
X033726Y010990D01*
X033681Y010978D01*
X033635Y010970D01*
X033588Y010966D01*
X033542Y010966D01*
X033495Y010970D01*
X033449Y010978D01*
X033404Y010990D01*
X033360Y011006D01*
X033317Y011025D01*
X033276Y011048D01*
X033237Y011074D01*
X033201Y011103D01*
X033167Y011136D01*
X033136Y011171D01*
X033108Y011208D01*
X033084Y011248D01*
X033063Y011290D01*
X033045Y011333D01*
X033032Y011378D01*
X033022Y011424D01*
X033016Y011470D01*
X033014Y011517D01*
X033014Y015257D02*
X033016Y015304D01*
X033022Y015350D01*
X033032Y015396D01*
X033045Y015441D01*
X033063Y015484D01*
X033084Y015526D01*
X033108Y015566D01*
X033136Y015603D01*
X033167Y015638D01*
X033201Y015671D01*
X033237Y015700D01*
X033276Y015726D01*
X033317Y015749D01*
X033360Y015768D01*
X033404Y015784D01*
X033449Y015796D01*
X033495Y015804D01*
X033542Y015808D01*
X033588Y015808D01*
X033635Y015804D01*
X033681Y015796D01*
X033726Y015784D01*
X033770Y015768D01*
X033813Y015749D01*
X033854Y015726D01*
X033893Y015700D01*
X033929Y015671D01*
X033963Y015638D01*
X033994Y015603D01*
X034022Y015566D01*
X034046Y015526D01*
X034067Y015484D01*
X034085Y015441D01*
X034098Y015396D01*
X034108Y015350D01*
X034114Y015304D01*
X034116Y015257D01*
X034114Y015210D01*
X034108Y015164D01*
X034098Y015118D01*
X034085Y015073D01*
X034067Y015030D01*
X034046Y014988D01*
X034022Y014948D01*
X033994Y014911D01*
X033963Y014876D01*
X033929Y014843D01*
X033893Y014814D01*
X033854Y014788D01*
X033813Y014765D01*
X033770Y014746D01*
X033726Y014730D01*
X033681Y014718D01*
X033635Y014710D01*
X033588Y014706D01*
X033542Y014706D01*
X033495Y014710D01*
X033449Y014718D01*
X033404Y014730D01*
X033360Y014746D01*
X033317Y014765D01*
X033276Y014788D01*
X033237Y014814D01*
X033201Y014843D01*
X033167Y014876D01*
X033136Y014911D01*
X033108Y014948D01*
X033084Y014988D01*
X033063Y015030D01*
X033045Y015073D01*
X033032Y015118D01*
X033022Y015164D01*
X033016Y015210D01*
X033014Y015257D01*
X030651Y015257D02*
X030653Y015304D01*
X030659Y015350D01*
X030669Y015396D01*
X030682Y015441D01*
X030700Y015484D01*
X030721Y015526D01*
X030745Y015566D01*
X030773Y015603D01*
X030804Y015638D01*
X030838Y015671D01*
X030874Y015700D01*
X030913Y015726D01*
X030954Y015749D01*
X030997Y015768D01*
X031041Y015784D01*
X031086Y015796D01*
X031132Y015804D01*
X031179Y015808D01*
X031225Y015808D01*
X031272Y015804D01*
X031318Y015796D01*
X031363Y015784D01*
X031407Y015768D01*
X031450Y015749D01*
X031491Y015726D01*
X031530Y015700D01*
X031566Y015671D01*
X031600Y015638D01*
X031631Y015603D01*
X031659Y015566D01*
X031683Y015526D01*
X031704Y015484D01*
X031722Y015441D01*
X031735Y015396D01*
X031745Y015350D01*
X031751Y015304D01*
X031753Y015257D01*
X031751Y015210D01*
X031745Y015164D01*
X031735Y015118D01*
X031722Y015073D01*
X031704Y015030D01*
X031683Y014988D01*
X031659Y014948D01*
X031631Y014911D01*
X031600Y014876D01*
X031566Y014843D01*
X031530Y014814D01*
X031491Y014788D01*
X031450Y014765D01*
X031407Y014746D01*
X031363Y014730D01*
X031318Y014718D01*
X031272Y014710D01*
X031225Y014706D01*
X031179Y014706D01*
X031132Y014710D01*
X031086Y014718D01*
X031041Y014730D01*
X030997Y014746D01*
X030954Y014765D01*
X030913Y014788D01*
X030874Y014814D01*
X030838Y014843D01*
X030804Y014876D01*
X030773Y014911D01*
X030745Y014948D01*
X030721Y014988D01*
X030700Y015030D01*
X030682Y015073D01*
X030669Y015118D01*
X030659Y015164D01*
X030653Y015210D01*
X030651Y015257D01*
X030651Y018998D02*
X030653Y019045D01*
X030659Y019091D01*
X030669Y019137D01*
X030682Y019182D01*
X030700Y019225D01*
X030721Y019267D01*
X030745Y019307D01*
X030773Y019344D01*
X030804Y019379D01*
X030838Y019412D01*
X030874Y019441D01*
X030913Y019467D01*
X030954Y019490D01*
X030997Y019509D01*
X031041Y019525D01*
X031086Y019537D01*
X031132Y019545D01*
X031179Y019549D01*
X031225Y019549D01*
X031272Y019545D01*
X031318Y019537D01*
X031363Y019525D01*
X031407Y019509D01*
X031450Y019490D01*
X031491Y019467D01*
X031530Y019441D01*
X031566Y019412D01*
X031600Y019379D01*
X031631Y019344D01*
X031659Y019307D01*
X031683Y019267D01*
X031704Y019225D01*
X031722Y019182D01*
X031735Y019137D01*
X031745Y019091D01*
X031751Y019045D01*
X031753Y018998D01*
X031751Y018951D01*
X031745Y018905D01*
X031735Y018859D01*
X031722Y018814D01*
X031704Y018771D01*
X031683Y018729D01*
X031659Y018689D01*
X031631Y018652D01*
X031600Y018617D01*
X031566Y018584D01*
X031530Y018555D01*
X031491Y018529D01*
X031450Y018506D01*
X031407Y018487D01*
X031363Y018471D01*
X031318Y018459D01*
X031272Y018451D01*
X031225Y018447D01*
X031179Y018447D01*
X031132Y018451D01*
X031086Y018459D01*
X031041Y018471D01*
X030997Y018487D01*
X030954Y018506D01*
X030913Y018529D01*
X030874Y018555D01*
X030838Y018584D01*
X030804Y018617D01*
X030773Y018652D01*
X030745Y018689D01*
X030721Y018729D01*
X030700Y018771D01*
X030682Y018814D01*
X030669Y018859D01*
X030659Y018905D01*
X030653Y018951D01*
X030651Y018998D01*
X033014Y018998D02*
X033016Y019045D01*
X033022Y019091D01*
X033032Y019137D01*
X033045Y019182D01*
X033063Y019225D01*
X033084Y019267D01*
X033108Y019307D01*
X033136Y019344D01*
X033167Y019379D01*
X033201Y019412D01*
X033237Y019441D01*
X033276Y019467D01*
X033317Y019490D01*
X033360Y019509D01*
X033404Y019525D01*
X033449Y019537D01*
X033495Y019545D01*
X033542Y019549D01*
X033588Y019549D01*
X033635Y019545D01*
X033681Y019537D01*
X033726Y019525D01*
X033770Y019509D01*
X033813Y019490D01*
X033854Y019467D01*
X033893Y019441D01*
X033929Y019412D01*
X033963Y019379D01*
X033994Y019344D01*
X034022Y019307D01*
X034046Y019267D01*
X034067Y019225D01*
X034085Y019182D01*
X034098Y019137D01*
X034108Y019091D01*
X034114Y019045D01*
X034116Y018998D01*
X034114Y018951D01*
X034108Y018905D01*
X034098Y018859D01*
X034085Y018814D01*
X034067Y018771D01*
X034046Y018729D01*
X034022Y018689D01*
X033994Y018652D01*
X033963Y018617D01*
X033929Y018584D01*
X033893Y018555D01*
X033854Y018529D01*
X033813Y018506D01*
X033770Y018487D01*
X033726Y018471D01*
X033681Y018459D01*
X033635Y018451D01*
X033588Y018447D01*
X033542Y018447D01*
X033495Y018451D01*
X033449Y018459D01*
X033404Y018471D01*
X033360Y018487D01*
X033317Y018506D01*
X033276Y018529D01*
X033237Y018555D01*
X033201Y018584D01*
X033167Y018617D01*
X033136Y018652D01*
X033108Y018689D01*
X033084Y018729D01*
X033063Y018771D01*
X033045Y018814D01*
X033032Y018859D01*
X033022Y018905D01*
X033016Y018951D01*
X033014Y018998D01*
X038525Y018998D02*
X038527Y019045D01*
X038533Y019091D01*
X038543Y019137D01*
X038556Y019182D01*
X038574Y019225D01*
X038595Y019267D01*
X038619Y019307D01*
X038647Y019344D01*
X038678Y019379D01*
X038712Y019412D01*
X038748Y019441D01*
X038787Y019467D01*
X038828Y019490D01*
X038871Y019509D01*
X038915Y019525D01*
X038960Y019537D01*
X039006Y019545D01*
X039053Y019549D01*
X039099Y019549D01*
X039146Y019545D01*
X039192Y019537D01*
X039237Y019525D01*
X039281Y019509D01*
X039324Y019490D01*
X039365Y019467D01*
X039404Y019441D01*
X039440Y019412D01*
X039474Y019379D01*
X039505Y019344D01*
X039533Y019307D01*
X039557Y019267D01*
X039578Y019225D01*
X039596Y019182D01*
X039609Y019137D01*
X039619Y019091D01*
X039625Y019045D01*
X039627Y018998D01*
X039625Y018951D01*
X039619Y018905D01*
X039609Y018859D01*
X039596Y018814D01*
X039578Y018771D01*
X039557Y018729D01*
X039533Y018689D01*
X039505Y018652D01*
X039474Y018617D01*
X039440Y018584D01*
X039404Y018555D01*
X039365Y018529D01*
X039324Y018506D01*
X039281Y018487D01*
X039237Y018471D01*
X039192Y018459D01*
X039146Y018451D01*
X039099Y018447D01*
X039053Y018447D01*
X039006Y018451D01*
X038960Y018459D01*
X038915Y018471D01*
X038871Y018487D01*
X038828Y018506D01*
X038787Y018529D01*
X038748Y018555D01*
X038712Y018584D01*
X038678Y018617D01*
X038647Y018652D01*
X038619Y018689D01*
X038595Y018729D01*
X038574Y018771D01*
X038556Y018814D01*
X038543Y018859D01*
X038533Y018905D01*
X038527Y018951D01*
X038525Y018998D01*
X038525Y015257D02*
X038527Y015304D01*
X038533Y015350D01*
X038543Y015396D01*
X038556Y015441D01*
X038574Y015484D01*
X038595Y015526D01*
X038619Y015566D01*
X038647Y015603D01*
X038678Y015638D01*
X038712Y015671D01*
X038748Y015700D01*
X038787Y015726D01*
X038828Y015749D01*
X038871Y015768D01*
X038915Y015784D01*
X038960Y015796D01*
X039006Y015804D01*
X039053Y015808D01*
X039099Y015808D01*
X039146Y015804D01*
X039192Y015796D01*
X039237Y015784D01*
X039281Y015768D01*
X039324Y015749D01*
X039365Y015726D01*
X039404Y015700D01*
X039440Y015671D01*
X039474Y015638D01*
X039505Y015603D01*
X039533Y015566D01*
X039557Y015526D01*
X039578Y015484D01*
X039596Y015441D01*
X039609Y015396D01*
X039619Y015350D01*
X039625Y015304D01*
X039627Y015257D01*
X039625Y015210D01*
X039619Y015164D01*
X039609Y015118D01*
X039596Y015073D01*
X039578Y015030D01*
X039557Y014988D01*
X039533Y014948D01*
X039505Y014911D01*
X039474Y014876D01*
X039440Y014843D01*
X039404Y014814D01*
X039365Y014788D01*
X039324Y014765D01*
X039281Y014746D01*
X039237Y014730D01*
X039192Y014718D01*
X039146Y014710D01*
X039099Y014706D01*
X039053Y014706D01*
X039006Y014710D01*
X038960Y014718D01*
X038915Y014730D01*
X038871Y014746D01*
X038828Y014765D01*
X038787Y014788D01*
X038748Y014814D01*
X038712Y014843D01*
X038678Y014876D01*
X038647Y014911D01*
X038619Y014948D01*
X038595Y014988D01*
X038574Y015030D01*
X038556Y015073D01*
X038543Y015118D01*
X038533Y015164D01*
X038527Y015210D01*
X038525Y015257D01*
X038525Y011517D02*
X038527Y011564D01*
X038533Y011610D01*
X038543Y011656D01*
X038556Y011701D01*
X038574Y011744D01*
X038595Y011786D01*
X038619Y011826D01*
X038647Y011863D01*
X038678Y011898D01*
X038712Y011931D01*
X038748Y011960D01*
X038787Y011986D01*
X038828Y012009D01*
X038871Y012028D01*
X038915Y012044D01*
X038960Y012056D01*
X039006Y012064D01*
X039053Y012068D01*
X039099Y012068D01*
X039146Y012064D01*
X039192Y012056D01*
X039237Y012044D01*
X039281Y012028D01*
X039324Y012009D01*
X039365Y011986D01*
X039404Y011960D01*
X039440Y011931D01*
X039474Y011898D01*
X039505Y011863D01*
X039533Y011826D01*
X039557Y011786D01*
X039578Y011744D01*
X039596Y011701D01*
X039609Y011656D01*
X039619Y011610D01*
X039625Y011564D01*
X039627Y011517D01*
X039625Y011470D01*
X039619Y011424D01*
X039609Y011378D01*
X039596Y011333D01*
X039578Y011290D01*
X039557Y011248D01*
X039533Y011208D01*
X039505Y011171D01*
X039474Y011136D01*
X039440Y011103D01*
X039404Y011074D01*
X039365Y011048D01*
X039324Y011025D01*
X039281Y011006D01*
X039237Y010990D01*
X039192Y010978D01*
X039146Y010970D01*
X039099Y010966D01*
X039053Y010966D01*
X039006Y010970D01*
X038960Y010978D01*
X038915Y010990D01*
X038871Y011006D01*
X038828Y011025D01*
X038787Y011048D01*
X038748Y011074D01*
X038712Y011103D01*
X038678Y011136D01*
X038647Y011171D01*
X038619Y011208D01*
X038595Y011248D01*
X038574Y011290D01*
X038556Y011333D01*
X038543Y011378D01*
X038533Y011424D01*
X038527Y011470D01*
X038525Y011517D01*
X037659Y002069D02*
X037661Y002119D01*
X037667Y002169D01*
X037677Y002218D01*
X037691Y002266D01*
X037708Y002313D01*
X037729Y002358D01*
X037754Y002402D01*
X037782Y002443D01*
X037814Y002482D01*
X037848Y002519D01*
X037885Y002553D01*
X037925Y002583D01*
X037967Y002610D01*
X038011Y002634D01*
X038057Y002655D01*
X038104Y002671D01*
X038152Y002684D01*
X038202Y002693D01*
X038251Y002698D01*
X038302Y002699D01*
X038352Y002696D01*
X038401Y002689D01*
X038450Y002678D01*
X038498Y002663D01*
X038544Y002645D01*
X038589Y002623D01*
X038632Y002597D01*
X038673Y002568D01*
X038712Y002536D01*
X038748Y002501D01*
X038780Y002463D01*
X038810Y002423D01*
X038837Y002380D01*
X038860Y002336D01*
X038879Y002290D01*
X038895Y002242D01*
X038907Y002193D01*
X038915Y002144D01*
X038919Y002094D01*
X038919Y002044D01*
X038915Y001994D01*
X038907Y001945D01*
X038895Y001896D01*
X038879Y001848D01*
X038860Y001802D01*
X038837Y001758D01*
X038810Y001715D01*
X038780Y001675D01*
X038748Y001637D01*
X038712Y001602D01*
X038673Y001570D01*
X038632Y001541D01*
X038589Y001515D01*
X038544Y001493D01*
X038498Y001475D01*
X038450Y001460D01*
X038401Y001449D01*
X038352Y001442D01*
X038302Y001439D01*
X038251Y001440D01*
X038202Y001445D01*
X038152Y001454D01*
X038104Y001467D01*
X038057Y001483D01*
X038011Y001504D01*
X037967Y001528D01*
X037925Y001555D01*
X037885Y001585D01*
X037848Y001619D01*
X037814Y001656D01*
X037782Y001695D01*
X037754Y001736D01*
X037729Y001780D01*
X037708Y001825D01*
X037691Y001872D01*
X037677Y001920D01*
X037667Y001969D01*
X037661Y002019D01*
X037659Y002069D01*
X037659Y028446D02*
X037661Y028496D01*
X037667Y028546D01*
X037677Y028595D01*
X037691Y028643D01*
X037708Y028690D01*
X037729Y028735D01*
X037754Y028779D01*
X037782Y028820D01*
X037814Y028859D01*
X037848Y028896D01*
X037885Y028930D01*
X037925Y028960D01*
X037967Y028987D01*
X038011Y029011D01*
X038057Y029032D01*
X038104Y029048D01*
X038152Y029061D01*
X038202Y029070D01*
X038251Y029075D01*
X038302Y029076D01*
X038352Y029073D01*
X038401Y029066D01*
X038450Y029055D01*
X038498Y029040D01*
X038544Y029022D01*
X038589Y029000D01*
X038632Y028974D01*
X038673Y028945D01*
X038712Y028913D01*
X038748Y028878D01*
X038780Y028840D01*
X038810Y028800D01*
X038837Y028757D01*
X038860Y028713D01*
X038879Y028667D01*
X038895Y028619D01*
X038907Y028570D01*
X038915Y028521D01*
X038919Y028471D01*
X038919Y028421D01*
X038915Y028371D01*
X038907Y028322D01*
X038895Y028273D01*
X038879Y028225D01*
X038860Y028179D01*
X038837Y028135D01*
X038810Y028092D01*
X038780Y028052D01*
X038748Y028014D01*
X038712Y027979D01*
X038673Y027947D01*
X038632Y027918D01*
X038589Y027892D01*
X038544Y027870D01*
X038498Y027852D01*
X038450Y027837D01*
X038401Y027826D01*
X038352Y027819D01*
X038302Y027816D01*
X038251Y027817D01*
X038202Y027822D01*
X038152Y027831D01*
X038104Y027844D01*
X038057Y027860D01*
X038011Y027881D01*
X037967Y027905D01*
X037925Y027932D01*
X037885Y027962D01*
X037848Y027996D01*
X037814Y028033D01*
X037782Y028072D01*
X037754Y028113D01*
X037729Y028157D01*
X037708Y028202D01*
X037691Y028249D01*
X037677Y028297D01*
X037667Y028346D01*
X037661Y028396D01*
X037659Y028446D01*
X001439Y028446D02*
X001441Y028496D01*
X001447Y028546D01*
X001457Y028595D01*
X001471Y028643D01*
X001488Y028690D01*
X001509Y028735D01*
X001534Y028779D01*
X001562Y028820D01*
X001594Y028859D01*
X001628Y028896D01*
X001665Y028930D01*
X001705Y028960D01*
X001747Y028987D01*
X001791Y029011D01*
X001837Y029032D01*
X001884Y029048D01*
X001932Y029061D01*
X001982Y029070D01*
X002031Y029075D01*
X002082Y029076D01*
X002132Y029073D01*
X002181Y029066D01*
X002230Y029055D01*
X002278Y029040D01*
X002324Y029022D01*
X002369Y029000D01*
X002412Y028974D01*
X002453Y028945D01*
X002492Y028913D01*
X002528Y028878D01*
X002560Y028840D01*
X002590Y028800D01*
X002617Y028757D01*
X002640Y028713D01*
X002659Y028667D01*
X002675Y028619D01*
X002687Y028570D01*
X002695Y028521D01*
X002699Y028471D01*
X002699Y028421D01*
X002695Y028371D01*
X002687Y028322D01*
X002675Y028273D01*
X002659Y028225D01*
X002640Y028179D01*
X002617Y028135D01*
X002590Y028092D01*
X002560Y028052D01*
X002528Y028014D01*
X002492Y027979D01*
X002453Y027947D01*
X002412Y027918D01*
X002369Y027892D01*
X002324Y027870D01*
X002278Y027852D01*
X002230Y027837D01*
X002181Y027826D01*
X002132Y027819D01*
X002082Y027816D01*
X002031Y027817D01*
X001982Y027822D01*
X001932Y027831D01*
X001884Y027844D01*
X001837Y027860D01*
X001791Y027881D01*
X001747Y027905D01*
X001705Y027932D01*
X001665Y027962D01*
X001628Y027996D01*
X001594Y028033D01*
X001562Y028072D01*
X001534Y028113D01*
X001509Y028157D01*
X001488Y028202D01*
X001471Y028249D01*
X001457Y028297D01*
X001447Y028346D01*
X001441Y028396D01*
X001439Y028446D01*
M02*
