G75*
%MOIN*%
%OFA0B0*%
%FSLAX25Y25*%
%IPPOS*%
%LPD*%
%AMOC8*
5,1,8,0,0,1.08239X$1,22.5*
%
%ADD10C,0.05200*%
%ADD11R,0.05543X0.05543*%
%ADD12C,0.05543*%
%ADD13R,0.03937X0.03150*%
%ADD14C,0.05937*%
%ADD15C,0.01000*%
%ADD16C,0.04000*%
%ADD17C,0.00984*%
%ADD18C,0.03962*%
D10*
X0069720Y0044719D02*
X0069720Y0049919D01*
X0079720Y0049919D02*
X0079720Y0044719D01*
X0089720Y0044719D02*
X0089720Y0049919D01*
X0099720Y0049919D02*
X0099720Y0044719D01*
X0109720Y0044719D02*
X0109720Y0049919D01*
X0109720Y0074719D02*
X0109720Y0079919D01*
X0099720Y0079919D02*
X0099720Y0074719D01*
X0089720Y0074719D02*
X0089720Y0079919D01*
X0079720Y0079919D02*
X0079720Y0074719D01*
X0069720Y0074719D02*
X0069720Y0079919D01*
X0058462Y0132909D02*
X0053262Y0132909D01*
X0053262Y0142909D02*
X0058462Y0142909D01*
X0058462Y0152909D02*
X0053262Y0152909D01*
X0053262Y0162909D02*
X0058462Y0162909D01*
X0058462Y0172909D02*
X0053262Y0172909D01*
X0053262Y0182909D02*
X0058462Y0182909D01*
X0058462Y0192909D02*
X0053262Y0192909D01*
X0028462Y0192909D02*
X0023262Y0192909D01*
X0023262Y0182909D02*
X0028462Y0182909D01*
X0028462Y0172909D02*
X0023262Y0172909D01*
X0023262Y0162909D02*
X0028462Y0162909D01*
X0028462Y0152909D02*
X0023262Y0152909D01*
X0023262Y0142909D02*
X0028462Y0142909D01*
X0028462Y0132909D02*
X0023262Y0132909D01*
X0086254Y0132909D02*
X0091454Y0132909D01*
X0091454Y0142909D02*
X0086254Y0142909D01*
X0086254Y0152909D02*
X0091454Y0152909D01*
X0091454Y0162909D02*
X0086254Y0162909D01*
X0086254Y0172909D02*
X0091454Y0172909D01*
X0091454Y0182909D02*
X0086254Y0182909D01*
X0086254Y0192909D02*
X0091454Y0192909D01*
X0116254Y0192909D02*
X0121454Y0192909D01*
X0121454Y0182909D02*
X0116254Y0182909D01*
X0116254Y0172909D02*
X0121454Y0172909D01*
X0121454Y0162909D02*
X0116254Y0162909D01*
X0116254Y0152909D02*
X0121454Y0152909D01*
X0121454Y0142909D02*
X0116254Y0142909D01*
X0116254Y0132909D02*
X0121454Y0132909D01*
X0149246Y0132909D02*
X0154446Y0132909D01*
X0154446Y0142909D02*
X0149246Y0142909D01*
X0149246Y0152909D02*
X0154446Y0152909D01*
X0154446Y0162909D02*
X0149246Y0162909D01*
X0149246Y0172909D02*
X0154446Y0172909D01*
X0154446Y0182909D02*
X0149246Y0182909D01*
X0149246Y0192909D02*
X0154446Y0192909D01*
X0179246Y0192909D02*
X0184446Y0192909D01*
X0184446Y0182909D02*
X0179246Y0182909D01*
X0179246Y0172909D02*
X0184446Y0172909D01*
X0184446Y0162909D02*
X0179246Y0162909D01*
X0179246Y0152909D02*
X0184446Y0152909D01*
X0184446Y0142909D02*
X0179246Y0142909D01*
X0179246Y0132909D02*
X0184446Y0132909D01*
X0212239Y0132909D02*
X0217439Y0132909D01*
X0217439Y0142909D02*
X0212239Y0142909D01*
X0212239Y0152909D02*
X0217439Y0152909D01*
X0217439Y0162909D02*
X0212239Y0162909D01*
X0212239Y0172909D02*
X0217439Y0172909D01*
X0217439Y0182909D02*
X0212239Y0182909D01*
X0212239Y0192909D02*
X0217439Y0192909D01*
X0242239Y0192909D02*
X0247439Y0192909D01*
X0247439Y0182909D02*
X0242239Y0182909D01*
X0242239Y0172909D02*
X0247439Y0172909D01*
X0247439Y0162909D02*
X0242239Y0162909D01*
X0242239Y0152909D02*
X0247439Y0152909D01*
X0247439Y0142909D02*
X0242239Y0142909D01*
X0242239Y0132909D02*
X0247439Y0132909D01*
X0275231Y0132909D02*
X0280431Y0132909D01*
X0280431Y0142909D02*
X0275231Y0142909D01*
X0275231Y0152909D02*
X0280431Y0152909D01*
X0280431Y0162909D02*
X0275231Y0162909D01*
X0275231Y0172909D02*
X0280431Y0172909D01*
X0280431Y0182909D02*
X0275231Y0182909D01*
X0275231Y0192909D02*
X0280431Y0192909D01*
X0305231Y0192909D02*
X0310431Y0192909D01*
X0310431Y0182909D02*
X0305231Y0182909D01*
X0305231Y0172909D02*
X0310431Y0172909D01*
X0310431Y0162909D02*
X0305231Y0162909D01*
X0305231Y0152909D02*
X0310431Y0152909D01*
X0310431Y0142909D02*
X0305231Y0142909D01*
X0305231Y0132909D02*
X0310431Y0132909D01*
X0338223Y0132909D02*
X0343423Y0132909D01*
X0343423Y0142909D02*
X0338223Y0142909D01*
X0338223Y0152909D02*
X0343423Y0152909D01*
X0343423Y0162909D02*
X0338223Y0162909D01*
X0338223Y0172909D02*
X0343423Y0172909D01*
X0343423Y0182909D02*
X0338223Y0182909D01*
X0338223Y0192909D02*
X0343423Y0192909D01*
X0368223Y0192909D02*
X0373423Y0192909D01*
X0373423Y0182909D02*
X0368223Y0182909D01*
X0368223Y0172909D02*
X0373423Y0172909D01*
X0373423Y0162909D02*
X0368223Y0162909D01*
X0368223Y0152909D02*
X0373423Y0152909D01*
X0373423Y0142909D02*
X0368223Y0142909D01*
X0368223Y0132909D02*
X0373423Y0132909D01*
D11*
X0269209Y0257398D03*
X0072358Y0257398D03*
X0170783Y0040862D03*
D12*
X0178657Y0040862D03*
X0186531Y0040862D03*
X0194406Y0040862D03*
X0202280Y0040862D03*
X0210154Y0040862D03*
X0218028Y0040862D03*
X0225902Y0040862D03*
X0221965Y0048736D03*
X0214091Y0048736D03*
X0206217Y0048736D03*
X0198343Y0048736D03*
X0190469Y0048736D03*
X0182594Y0048736D03*
X0174720Y0048736D03*
X0127476Y0257398D03*
X0119602Y0257398D03*
X0111728Y0257398D03*
X0103854Y0257398D03*
X0095980Y0257398D03*
X0088106Y0257398D03*
X0080232Y0257398D03*
X0076295Y0265272D03*
X0084169Y0265272D03*
X0092043Y0265272D03*
X0099917Y0265272D03*
X0107791Y0265272D03*
X0115665Y0265272D03*
X0123539Y0265272D03*
X0273146Y0265272D03*
X0281020Y0265272D03*
X0288894Y0265272D03*
X0296768Y0265272D03*
X0304642Y0265272D03*
X0312516Y0265272D03*
X0320390Y0265272D03*
X0324327Y0257398D03*
X0316453Y0257398D03*
X0308579Y0257398D03*
X0300705Y0257398D03*
X0292831Y0257398D03*
X0284957Y0257398D03*
X0277083Y0257398D03*
D13*
X0080232Y0098736D03*
X0080232Y0093224D03*
X0068421Y0093224D03*
X0068421Y0098736D03*
D14*
X0219996Y0084169D03*
X0229839Y0084169D03*
X0239681Y0084169D03*
X0249524Y0084169D03*
X0259366Y0084169D03*
X0269209Y0084169D03*
X0279051Y0084169D03*
X0288894Y0084169D03*
X0298736Y0084169D03*
X0308579Y0084169D03*
X0318421Y0084169D03*
X0328264Y0084169D03*
X0338106Y0084169D03*
X0347949Y0084169D03*
X0357791Y0084169D03*
D15*
X0356815Y0083961D01*
X0337722Y0064868D01*
X0336217Y0063362D01*
X0332354Y0068512D02*
X0347803Y0083961D01*
X0347949Y0084169D01*
X0347803Y0085248D01*
X0343941Y0089110D01*
X0311756Y0089110D01*
X0271846Y0129020D01*
X0257685Y0129020D01*
X0258972Y0120008D02*
X0246098Y0132882D01*
X0244839Y0132909D01*
X0249961Y0138031D02*
X0239661Y0138031D01*
X0237087Y0135457D01*
X0237087Y0094260D01*
X0244811Y0086535D01*
X0244811Y0073661D01*
X0257685Y0073661D01*
X0267984Y0083961D01*
X0269209Y0084169D01*
X0259366Y0084169D02*
X0258972Y0085248D01*
X0258972Y0120008D01*
X0249961Y0138031D02*
X0252535Y0140606D01*
X0252535Y0156055D01*
X0246098Y0162492D01*
X0244839Y0162909D01*
X0244811Y0172791D02*
X0244839Y0172909D01*
X0246098Y0172791D01*
X0244839Y0172909D02*
X0244811Y0174079D01*
X0244811Y0181803D01*
X0244839Y0182909D01*
X0244839Y0192909D02*
X0244811Y0193390D01*
X0239661Y0198539D01*
X0210051Y0198539D01*
X0204902Y0193390D01*
X0183016Y0193390D01*
X0181846Y0192909D01*
X0181728Y0193390D01*
X0179154Y0193390D01*
X0171429Y0201114D01*
X0146969Y0201114D01*
X0139244Y0193390D01*
X0119933Y0193390D01*
X0118854Y0192909D01*
X0118646Y0192102D01*
X0107059Y0180516D01*
X0098047Y0180516D01*
X0094185Y0183091D02*
X0126370Y0215276D01*
X0125083Y0220425D02*
X0132807Y0220425D01*
X0141819Y0211413D01*
X0181728Y0211413D01*
X0199752Y0229437D01*
X0192028Y0228150D02*
X0248673Y0284795D01*
X0293732Y0284795D01*
X0295020Y0289945D02*
X0301457Y0283508D01*
X0316906Y0283508D01*
X0349091Y0251323D01*
X0349091Y0190815D01*
X0341366Y0183091D01*
X0340823Y0182909D01*
X0341366Y0174079D02*
X0340823Y0172909D01*
X0341366Y0174079D02*
X0351665Y0184378D01*
X0351665Y0252610D01*
X0318193Y0286083D01*
X0302744Y0286083D01*
X0296307Y0292520D01*
X0169835Y0292520D01*
X0143480Y0266165D01*
X0142724Y0251323D02*
X0125083Y0251323D01*
X0119933Y0256472D01*
X0119602Y0257398D01*
X0105772Y0251323D02*
X0086461Y0251323D01*
X0081311Y0256472D01*
X0080232Y0257398D01*
X0076161Y0264197D02*
X0069724Y0264197D01*
X0067150Y0261622D01*
X0067150Y0194677D01*
X0083886Y0177941D01*
X0094185Y0177941D01*
X0104484Y0167642D01*
X0186878Y0167642D01*
X0201039Y0181803D01*
X0213913Y0181803D01*
X0214839Y0182909D01*
X0198465Y0208839D02*
X0269272Y0279646D01*
X0316906Y0279646D01*
X0340079Y0256472D01*
X0340079Y0193390D01*
X0340823Y0192909D01*
X0324630Y0210126D02*
X0307894Y0193390D01*
X0307831Y0192909D01*
X0307894Y0192102D01*
X0332354Y0167642D01*
X0345228Y0167642D01*
X0369689Y0192102D01*
X0370823Y0192909D01*
X0370823Y0182909D02*
X0369689Y0181803D01*
X0341366Y0153480D01*
X0340823Y0152909D01*
X0340079Y0153480D01*
X0327205Y0153480D01*
X0307894Y0172791D01*
X0307831Y0172909D01*
X0307894Y0174079D01*
X0307894Y0181803D01*
X0307831Y0182909D01*
X0300169Y0180516D02*
X0276996Y0203689D01*
X0276996Y0193390D02*
X0277831Y0192909D01*
X0278283Y0192102D01*
X0297594Y0172791D01*
X0297594Y0156055D01*
X0300169Y0159917D02*
X0300169Y0180516D01*
X0286008Y0174079D02*
X0282146Y0177941D01*
X0269272Y0177941D01*
X0246098Y0201114D01*
X0183016Y0201114D01*
X0181728Y0199827D01*
X0176579Y0202402D02*
X0180441Y0206264D01*
X0253823Y0206264D01*
X0298882Y0251323D01*
X0310469Y0251323D01*
X0315618Y0256472D01*
X0316453Y0257398D01*
X0324327Y0257398D02*
X0324630Y0256472D01*
X0324630Y0210126D01*
X0319480Y0242311D02*
X0293732Y0242311D01*
X0258972Y0207551D01*
X0258972Y0201114D01*
X0276996Y0183091D01*
X0277831Y0182909D01*
X0286008Y0174079D02*
X0286008Y0161205D01*
X0304031Y0143181D01*
X0306606Y0143181D01*
X0307831Y0142909D01*
X0297594Y0143181D02*
X0278283Y0162492D01*
X0277831Y0162909D01*
X0276996Y0153480D02*
X0277831Y0152909D01*
X0278283Y0152193D01*
X0278283Y0143181D01*
X0277831Y0142909D01*
X0276996Y0153480D02*
X0265409Y0153480D01*
X0244839Y0142909D02*
X0244811Y0141894D01*
X0230650Y0141894D01*
X0222925Y0134169D01*
X0222925Y0131594D01*
X0219063Y0127732D01*
X0146969Y0127732D01*
X0131520Y0143181D01*
X0131520Y0157343D01*
X0132807Y0162492D02*
X0130232Y0162492D01*
X0126370Y0158630D01*
X0126370Y0140606D01*
X0123795Y0138031D01*
X0113496Y0138031D01*
X0110921Y0135457D01*
X0110921Y0122583D01*
X0082598Y0094260D01*
X0081311Y0094260D01*
X0080232Y0093224D01*
X0080024Y0092972D01*
X0080024Y0077524D01*
X0079720Y0077319D01*
X0069720Y0077319D02*
X0068437Y0077524D01*
X0068437Y0092972D01*
X0068421Y0093224D01*
X0068421Y0098736D02*
X0068437Y0099409D01*
X0080024Y0099409D01*
X0080232Y0098736D01*
X0081311Y0099409D01*
X0081311Y0114858D01*
X0083886Y0117433D01*
X0082598Y0122583D02*
X0063287Y0103272D01*
X0063287Y0073661D01*
X0081311Y0055638D01*
X0139244Y0055638D01*
X0175291Y0019591D01*
X0216488Y0019591D01*
X0231937Y0035039D01*
X0226787Y0041476D02*
X0225902Y0040862D01*
X0218028Y0040862D02*
X0217776Y0040189D01*
X0217776Y0027315D01*
X0226256Y0017016D02*
X0259579Y0050339D01*
X0244811Y0073661D02*
X0220350Y0073661D01*
X0201039Y0054350D01*
X0195890Y0054350D01*
X0190740Y0049201D01*
X0190469Y0048736D01*
X0183016Y0056925D02*
X0175291Y0049201D01*
X0174720Y0048736D01*
X0174004Y0049201D01*
X0164992Y0058213D01*
X0159843Y0042764D02*
X0159843Y0122583D01*
X0146969Y0138031D02*
X0210051Y0138031D01*
X0213913Y0141894D01*
X0214839Y0142909D01*
X0215201Y0143181D01*
X0215201Y0152193D01*
X0214839Y0152909D01*
X0215201Y0153480D01*
X0225500Y0153480D01*
X0230650Y0135457D02*
X0230650Y0094260D01*
X0239661Y0085248D01*
X0239681Y0084169D01*
X0229839Y0084169D02*
X0229362Y0083961D01*
X0226787Y0083961D01*
X0199752Y0056925D01*
X0183016Y0056925D01*
X0178657Y0040862D02*
X0179154Y0040189D01*
X0181728Y0037614D01*
X0181728Y0029890D01*
X0177866Y0024740D02*
X0159843Y0042764D01*
X0177866Y0024740D02*
X0185591Y0024740D01*
X0201039Y0040189D01*
X0202280Y0040862D01*
X0210051Y0040189D02*
X0210154Y0040862D01*
X0210051Y0040189D02*
X0192028Y0022165D01*
X0176579Y0022165D01*
X0119933Y0078811D01*
X0119933Y0132882D01*
X0118854Y0132909D01*
X0110921Y0147043D02*
X0096760Y0132882D01*
X0096760Y0131594D01*
X0087748Y0122583D01*
X0082598Y0122583D01*
X0068437Y0122583D02*
X0068437Y0114858D01*
X0063287Y0107134D02*
X0060713Y0104559D01*
X0060713Y0065937D01*
X0074874Y0051776D01*
X0074874Y0042764D01*
X0100622Y0017016D01*
X0226256Y0017016D01*
X0221965Y0048736D02*
X0222925Y0049201D01*
X0215201Y0049201D02*
X0214091Y0048736D01*
X0314331Y0071087D02*
X0327205Y0083961D01*
X0328264Y0084169D01*
X0307831Y0152909D02*
X0306606Y0153480D01*
X0300169Y0159917D01*
X0276996Y0193390D02*
X0264122Y0206264D01*
X0215201Y0219138D02*
X0270559Y0274496D01*
X0276996Y0274496D02*
X0318193Y0274496D01*
X0329780Y0262909D01*
X0329780Y0252610D01*
X0304031Y0291232D02*
X0292445Y0302819D01*
X0104484Y0302819D01*
X0064575Y0262909D01*
X0076161Y0264197D02*
X0076295Y0265272D01*
X0099917Y0265272D02*
X0100622Y0265484D01*
X0132807Y0297669D01*
X0253823Y0297669D01*
X0295020Y0289945D02*
X0179378Y0289945D01*
X0142724Y0251323D01*
X0139244Y0228150D02*
X0192028Y0228150D01*
X0171429Y0216563D02*
X0140531Y0216563D01*
X0105772Y0251323D01*
X0104484Y0256472D02*
X0103854Y0257398D01*
X0104484Y0256472D02*
X0139244Y0221713D01*
X0149543Y0221713D01*
X0164992Y0206264D02*
X0174004Y0206264D01*
X0176579Y0208839D01*
X0198465Y0208839D01*
X0181846Y0182909D02*
X0181728Y0181803D01*
X0161130Y0181803D01*
X0157268Y0177941D01*
X0119933Y0177941D01*
X0119933Y0174079D01*
X0118854Y0172909D01*
X0119933Y0177941D02*
X0119933Y0181803D01*
X0118854Y0182909D01*
X0132807Y0183091D02*
X0148256Y0198539D01*
X0155980Y0198539D01*
X0167567Y0186953D01*
X0132807Y0162492D02*
X0144394Y0150906D01*
X0144394Y0140606D01*
X0146969Y0138031D01*
X0118854Y0152909D02*
X0118646Y0153480D01*
X0108346Y0153480D01*
X0094185Y0167642D01*
X0083886Y0167642D01*
X0088854Y0182909D02*
X0089035Y0183091D01*
X0094185Y0183091D01*
X0088854Y0192909D02*
X0089035Y0193390D01*
X0098047Y0193390D01*
X0125083Y0220425D01*
X0056850Y0181803D02*
X0056850Y0174079D01*
X0055862Y0172909D01*
X0056850Y0172791D01*
X0076161Y0153480D01*
X0087748Y0153480D01*
X0088854Y0152909D01*
X0089035Y0152193D01*
X0089035Y0143181D01*
X0088854Y0142909D01*
X0087748Y0141894D01*
X0068437Y0122583D01*
X0063287Y0107134D02*
X0063287Y0156055D01*
X0056850Y0162492D01*
X0055862Y0162909D01*
X0055563Y0172791D02*
X0055862Y0172909D01*
X0055563Y0172791D02*
X0036252Y0153480D01*
X0025953Y0153480D01*
X0025862Y0152909D01*
X0025953Y0152193D01*
X0025953Y0143181D01*
X0025862Y0142909D01*
X0056850Y0181803D02*
X0055862Y0182909D01*
D16*
X0098047Y0180516D03*
X0132807Y0183091D03*
X0131520Y0157343D03*
X0110921Y0147043D03*
X0083886Y0117433D03*
X0068437Y0114858D03*
X0159843Y0122583D03*
X0230650Y0135457D03*
X0257685Y0129020D03*
X0297594Y0143181D03*
X0297594Y0156055D03*
X0276996Y0203689D03*
X0264122Y0206264D03*
X0215201Y0219138D03*
X0199752Y0229437D03*
X0171429Y0216563D03*
X0164992Y0206264D03*
X0176579Y0202402D03*
X0181728Y0199827D03*
X0167567Y0186953D03*
X0149543Y0221713D03*
X0139244Y0228150D03*
X0126370Y0215276D03*
X0137500Y0270559D03*
X0253823Y0297669D03*
X0270559Y0274496D03*
X0276996Y0274496D03*
X0293732Y0284795D03*
X0304031Y0291232D03*
X0329780Y0252610D03*
X0319480Y0242311D03*
X0164992Y0058213D03*
X0181728Y0029890D03*
X0217776Y0027315D03*
X0231937Y0035039D03*
X0259579Y0050339D03*
D17*
X0005984Y0009921D02*
X0005984Y0315898D01*
X0390701Y0315898D01*
X0390701Y0009921D01*
X0005984Y0009921D01*
X0005984Y0010343D02*
X0390701Y0010343D01*
X0390701Y0011326D02*
X0005984Y0011326D01*
X0005984Y0012308D02*
X0390701Y0012308D01*
X0390701Y0013291D02*
X0005984Y0013291D01*
X0005984Y0014274D02*
X0390701Y0014274D01*
X0390701Y0015257D02*
X0228127Y0015257D01*
X0227710Y0014840D02*
X0259142Y0046272D01*
X0260388Y0046272D01*
X0261882Y0046891D01*
X0263027Y0048035D01*
X0263646Y0049530D01*
X0263646Y0051148D01*
X0263258Y0052083D01*
X0328005Y0052083D01*
X0328946Y0052472D01*
X0337652Y0061178D01*
X0337671Y0061186D01*
X0339176Y0062692D01*
X0355961Y0079477D01*
X0356790Y0079134D01*
X0358793Y0079134D01*
X0360644Y0079900D01*
X0362060Y0081317D01*
X0362827Y0083168D01*
X0362827Y0085171D01*
X0362060Y0087022D01*
X0360644Y0088438D01*
X0358793Y0089205D01*
X0356790Y0089205D01*
X0354939Y0088438D01*
X0353523Y0087022D01*
X0352870Y0085447D01*
X0352218Y0087022D01*
X0350801Y0088438D01*
X0348950Y0089205D01*
X0347477Y0089205D01*
X0345395Y0091286D01*
X0344452Y0091677D01*
X0312819Y0091677D01*
X0275679Y0128817D01*
X0277523Y0128817D01*
X0277523Y0132601D01*
X0278139Y0132601D01*
X0278139Y0128817D01*
X0280753Y0128817D01*
X0281389Y0128918D01*
X0282002Y0129117D01*
X0282575Y0129410D01*
X0283097Y0129788D01*
X0283552Y0130244D01*
X0283931Y0130765D01*
X0284223Y0131339D01*
X0284422Y0131951D01*
X0284523Y0132587D01*
X0284523Y0132602D01*
X0278139Y0132602D01*
X0278139Y0133217D01*
X0284523Y0133217D01*
X0284523Y0133232D01*
X0284422Y0133868D01*
X0284223Y0134480D01*
X0283931Y0135054D01*
X0283552Y0135575D01*
X0283097Y0136031D01*
X0282575Y0136409D01*
X0282002Y0136702D01*
X0281389Y0136901D01*
X0280753Y0137002D01*
X0278139Y0137002D01*
X0278139Y0133217D01*
X0277523Y0133217D01*
X0277523Y0132602D01*
X0271139Y0132602D01*
X0271139Y0132587D01*
X0271239Y0131951D01*
X0271358Y0131587D01*
X0260870Y0131587D01*
X0259989Y0132467D01*
X0258494Y0133087D01*
X0256876Y0133087D01*
X0255381Y0132467D01*
X0254237Y0131323D01*
X0253618Y0129829D01*
X0253618Y0128992D01*
X0251673Y0130937D01*
X0252105Y0131981D01*
X0252105Y0133838D01*
X0251395Y0135553D01*
X0251187Y0135761D01*
X0251415Y0135855D01*
X0252137Y0136577D01*
X0254712Y0139152D01*
X0255102Y0140096D01*
X0255102Y0156566D01*
X0254712Y0157509D01*
X0253989Y0158231D01*
X0251559Y0160662D01*
X0252105Y0161981D01*
X0252105Y0163838D01*
X0251395Y0165553D01*
X0250082Y0166866D01*
X0248367Y0167576D01*
X0241310Y0167576D01*
X0239595Y0166866D01*
X0238282Y0165553D01*
X0237572Y0163838D01*
X0237572Y0161981D01*
X0238282Y0160266D01*
X0239595Y0158953D01*
X0241310Y0158243D01*
X0246718Y0158243D01*
X0247384Y0157576D01*
X0241310Y0157576D01*
X0239595Y0156866D01*
X0238282Y0155553D01*
X0237572Y0153838D01*
X0237572Y0151981D01*
X0238282Y0150266D01*
X0239595Y0148953D01*
X0241310Y0148243D01*
X0248367Y0148243D01*
X0249969Y0148906D01*
X0249969Y0146913D01*
X0248367Y0147576D01*
X0241310Y0147576D01*
X0239595Y0146866D01*
X0238282Y0145553D01*
X0237830Y0144461D01*
X0230139Y0144461D01*
X0229196Y0144070D01*
X0221471Y0136345D01*
X0220749Y0135623D01*
X0220668Y0135427D01*
X0220560Y0135575D01*
X0220104Y0136031D01*
X0219583Y0136409D01*
X0219009Y0136702D01*
X0218397Y0136901D01*
X0217761Y0137002D01*
X0215146Y0137002D01*
X0215146Y0133217D01*
X0214531Y0133217D01*
X0214531Y0132602D01*
X0208146Y0132602D01*
X0208146Y0132587D01*
X0208247Y0131951D01*
X0208446Y0131339D01*
X0208739Y0130765D01*
X0209077Y0130299D01*
X0188417Y0130299D01*
X0189113Y0131981D01*
X0189113Y0133838D01*
X0188440Y0135465D01*
X0209037Y0135465D01*
X0208739Y0135054D01*
X0208446Y0134480D01*
X0208247Y0133868D01*
X0208146Y0133232D01*
X0208146Y0133217D01*
X0214531Y0133217D01*
X0214531Y0137002D01*
X0212651Y0137002D01*
X0213892Y0138243D01*
X0218367Y0138243D01*
X0220082Y0138953D01*
X0221395Y0140266D01*
X0222105Y0141981D01*
X0222105Y0143838D01*
X0221395Y0145553D01*
X0220082Y0146866D01*
X0218367Y0147576D01*
X0217768Y0147576D01*
X0217768Y0148243D01*
X0218367Y0148243D01*
X0220082Y0148953D01*
X0221395Y0150266D01*
X0221663Y0150913D01*
X0226011Y0150913D01*
X0226954Y0151304D01*
X0227676Y0152026D01*
X0227684Y0152045D01*
X0231288Y0155649D01*
X0232008Y0156369D01*
X0232398Y0157310D01*
X0232398Y0161849D01*
X0239548Y0169000D01*
X0239595Y0168953D01*
X0241310Y0168243D01*
X0248367Y0168243D01*
X0250082Y0168953D01*
X0251361Y0170232D01*
X0252361Y0170232D01*
X0258776Y0163818D01*
X0258776Y0157046D01*
X0259165Y0156106D01*
X0263225Y0152045D01*
X0263233Y0152026D01*
X0263955Y0151304D01*
X0264899Y0150913D01*
X0271006Y0150913D01*
X0271274Y0150266D01*
X0272587Y0148953D01*
X0274302Y0148243D01*
X0275717Y0148243D01*
X0275717Y0147576D01*
X0274302Y0147576D01*
X0272587Y0146866D01*
X0271274Y0145553D01*
X0270564Y0143838D01*
X0270564Y0141981D01*
X0271274Y0140266D01*
X0272587Y0138953D01*
X0274302Y0138243D01*
X0281359Y0138243D01*
X0283074Y0138953D01*
X0284387Y0140266D01*
X0285098Y0141981D01*
X0285098Y0143838D01*
X0284387Y0145553D01*
X0283074Y0146866D01*
X0281359Y0147576D01*
X0280850Y0147576D01*
X0280850Y0148243D01*
X0281359Y0148243D01*
X0283074Y0148953D01*
X0284387Y0150266D01*
X0285098Y0151981D01*
X0285098Y0152048D01*
X0293528Y0143618D01*
X0293528Y0142372D01*
X0294147Y0140877D01*
X0295291Y0139733D01*
X0296786Y0139114D01*
X0298403Y0139114D01*
X0299898Y0139733D01*
X0301027Y0140862D01*
X0301274Y0140266D01*
X0302587Y0138953D01*
X0304302Y0138243D01*
X0311359Y0138243D01*
X0313074Y0138953D01*
X0314387Y0140266D01*
X0315098Y0141981D01*
X0315098Y0143838D01*
X0314387Y0145553D01*
X0313074Y0146866D01*
X0311359Y0147576D01*
X0304302Y0147576D01*
X0303570Y0147273D01*
X0298722Y0152120D01*
X0299898Y0152607D01*
X0300564Y0153273D01*
X0300564Y0151981D01*
X0301274Y0150266D01*
X0302587Y0148953D01*
X0304302Y0148243D01*
X0311359Y0148243D01*
X0313074Y0148953D01*
X0314387Y0150266D01*
X0315098Y0151981D01*
X0315098Y0153838D01*
X0314387Y0155553D01*
X0313074Y0156866D01*
X0311359Y0157576D01*
X0306140Y0157576D01*
X0305474Y0158243D01*
X0311359Y0158243D01*
X0313074Y0158953D01*
X0314387Y0160266D01*
X0315091Y0161964D01*
X0325751Y0151304D01*
X0326694Y0150913D01*
X0333998Y0150913D01*
X0334266Y0150266D01*
X0335579Y0148953D01*
X0337295Y0148243D01*
X0344351Y0148243D01*
X0346066Y0148953D01*
X0347379Y0150266D01*
X0348090Y0151981D01*
X0348090Y0153838D01*
X0347379Y0155553D01*
X0347224Y0155708D01*
X0363556Y0172040D01*
X0363556Y0171981D01*
X0364266Y0170266D01*
X0365579Y0168953D01*
X0367295Y0168243D01*
X0374351Y0168243D01*
X0376066Y0168953D01*
X0377379Y0170266D01*
X0378090Y0171981D01*
X0378090Y0173838D01*
X0377379Y0175553D01*
X0376066Y0176866D01*
X0374351Y0177576D01*
X0369092Y0177576D01*
X0369759Y0178243D01*
X0374351Y0178243D01*
X0376066Y0178953D01*
X0377379Y0180266D01*
X0378090Y0181981D01*
X0378090Y0183838D01*
X0377379Y0185553D01*
X0376066Y0186866D01*
X0374351Y0187576D01*
X0368793Y0187576D01*
X0369459Y0188243D01*
X0374351Y0188243D01*
X0376066Y0188953D01*
X0377379Y0190266D01*
X0378090Y0191981D01*
X0378090Y0193838D01*
X0377379Y0195553D01*
X0376066Y0196866D01*
X0374351Y0197576D01*
X0367295Y0197576D01*
X0365579Y0196866D01*
X0364266Y0195553D01*
X0363556Y0193838D01*
X0363556Y0191981D01*
X0364253Y0190297D01*
X0348003Y0174047D01*
X0347379Y0175553D01*
X0346925Y0176007D01*
X0353119Y0182202D01*
X0353841Y0182924D01*
X0354232Y0183867D01*
X0354232Y0253121D01*
X0353841Y0254064D01*
X0320369Y0287537D01*
X0319647Y0288259D01*
X0318704Y0288650D01*
X0307200Y0288650D01*
X0307479Y0288929D01*
X0308098Y0290423D01*
X0308098Y0292041D01*
X0307479Y0293536D01*
X0306335Y0294680D01*
X0304840Y0295299D01*
X0303595Y0295299D01*
X0293899Y0304995D01*
X0292955Y0305386D01*
X0103974Y0305386D01*
X0103030Y0304995D01*
X0102308Y0304273D01*
X0062399Y0264363D01*
X0062391Y0264344D01*
X0062315Y0264268D01*
X0061925Y0263328D01*
X0061925Y0196046D01*
X0061106Y0196866D01*
X0059391Y0197576D01*
X0052334Y0197576D01*
X0050619Y0196866D01*
X0049306Y0195553D01*
X0048595Y0193838D01*
X0048595Y0191981D01*
X0049306Y0190266D01*
X0050619Y0188953D01*
X0052334Y0188243D01*
X0059391Y0188243D01*
X0061106Y0188953D01*
X0061980Y0189827D01*
X0062315Y0189019D01*
X0063035Y0188299D01*
X0069799Y0181534D01*
X0069799Y0178660D01*
X0070189Y0177720D01*
X0070909Y0177000D01*
X0081702Y0166207D01*
X0081710Y0166188D01*
X0082321Y0165576D01*
X0082298Y0165553D01*
X0081587Y0163838D01*
X0081587Y0161981D01*
X0082298Y0160266D01*
X0083611Y0158953D01*
X0085326Y0158243D01*
X0092383Y0158243D01*
X0094098Y0158953D01*
X0095411Y0160266D01*
X0096121Y0161981D01*
X0096121Y0162075D01*
X0106892Y0151304D01*
X0107836Y0150913D01*
X0109637Y0150913D01*
X0108618Y0150491D01*
X0107473Y0149347D01*
X0106854Y0147852D01*
X0106854Y0146607D01*
X0095306Y0135058D01*
X0095072Y0134824D01*
X0094954Y0135054D01*
X0094576Y0135575D01*
X0094120Y0136031D01*
X0093599Y0136409D01*
X0093025Y0136702D01*
X0092413Y0136901D01*
X0091776Y0137002D01*
X0089162Y0137002D01*
X0089162Y0133217D01*
X0088546Y0133217D01*
X0082702Y0133217D01*
X0071004Y0121519D01*
X0071004Y0118043D01*
X0071885Y0117162D01*
X0072372Y0115986D01*
X0081144Y0124759D01*
X0082088Y0125150D01*
X0086685Y0125150D01*
X0090353Y0128817D01*
X0089162Y0128817D01*
X0089162Y0132601D01*
X0088546Y0132601D01*
X0088546Y0128817D01*
X0085932Y0128817D01*
X0085296Y0128918D01*
X0084683Y0129117D01*
X0084110Y0129410D01*
X0083588Y0129788D01*
X0083133Y0130244D01*
X0082754Y0130765D01*
X0082462Y0131339D01*
X0082263Y0131951D01*
X0082162Y0132587D01*
X0082162Y0132602D01*
X0088546Y0132602D01*
X0088546Y0133217D01*
X0088546Y0137002D01*
X0086486Y0137002D01*
X0087727Y0138243D01*
X0092383Y0138243D01*
X0094098Y0138953D01*
X0095411Y0140266D01*
X0096121Y0141981D01*
X0096121Y0143838D01*
X0095411Y0145553D01*
X0094098Y0146866D01*
X0092383Y0147576D01*
X0091602Y0147576D01*
X0091602Y0148243D01*
X0092383Y0148243D01*
X0094098Y0148953D01*
X0095411Y0150266D01*
X0096121Y0151981D01*
X0096121Y0153838D01*
X0095411Y0155553D01*
X0094098Y0156866D01*
X0092383Y0157576D01*
X0085326Y0157576D01*
X0083611Y0156866D01*
X0082792Y0156047D01*
X0077225Y0156047D01*
X0062591Y0170681D01*
X0063129Y0171981D01*
X0063129Y0173838D01*
X0062419Y0175553D01*
X0061106Y0176866D01*
X0059417Y0177565D01*
X0059417Y0178254D01*
X0061106Y0178953D01*
X0062419Y0180266D01*
X0063129Y0181981D01*
X0063129Y0183838D01*
X0062419Y0185553D01*
X0061106Y0186866D01*
X0059391Y0187576D01*
X0052334Y0187576D01*
X0050619Y0186866D01*
X0049306Y0185553D01*
X0048595Y0183838D01*
X0048595Y0181981D01*
X0049306Y0180266D01*
X0050619Y0178953D01*
X0052334Y0178243D01*
X0054283Y0178243D01*
X0054283Y0177576D01*
X0052334Y0177576D01*
X0050619Y0176866D01*
X0049306Y0175553D01*
X0048595Y0173838D01*
X0048595Y0171981D01*
X0049306Y0170266D01*
X0049357Y0170215D01*
X0035189Y0156047D01*
X0031924Y0156047D01*
X0031106Y0156866D01*
X0029391Y0157576D01*
X0022334Y0157576D01*
X0020619Y0156866D01*
X0019306Y0155553D01*
X0018595Y0153838D01*
X0018595Y0151981D01*
X0019306Y0150266D01*
X0020619Y0148953D01*
X0022334Y0148243D01*
X0023386Y0148243D01*
X0023386Y0147576D01*
X0022334Y0147576D01*
X0020619Y0146866D01*
X0019306Y0145553D01*
X0018595Y0143838D01*
X0018595Y0141981D01*
X0019306Y0140266D01*
X0020619Y0138953D01*
X0022334Y0138243D01*
X0029391Y0138243D01*
X0031106Y0138953D01*
X0032419Y0140266D01*
X0033129Y0141981D01*
X0033129Y0143838D01*
X0032419Y0145553D01*
X0031106Y0146866D01*
X0029391Y0147576D01*
X0028520Y0147576D01*
X0028520Y0148243D01*
X0029391Y0148243D01*
X0031106Y0148953D01*
X0032419Y0150266D01*
X0032687Y0150913D01*
X0036763Y0150913D01*
X0037706Y0151304D01*
X0048595Y0162193D01*
X0048595Y0161981D01*
X0049306Y0160266D01*
X0050619Y0158953D01*
X0052334Y0158243D01*
X0057470Y0158243D01*
X0058136Y0157576D01*
X0052334Y0157576D01*
X0050619Y0156866D01*
X0049306Y0155553D01*
X0048595Y0153838D01*
X0048595Y0151981D01*
X0049306Y0150266D01*
X0050619Y0148953D01*
X0052334Y0148243D01*
X0059391Y0148243D01*
X0060720Y0148793D01*
X0060720Y0147025D01*
X0059391Y0147576D01*
X0052334Y0147576D01*
X0050619Y0146866D01*
X0049306Y0145553D01*
X0048595Y0143838D01*
X0048595Y0141981D01*
X0049306Y0140266D01*
X0050619Y0138953D01*
X0052334Y0138243D01*
X0059391Y0138243D01*
X0060720Y0138793D01*
X0060720Y0137025D01*
X0059391Y0137576D01*
X0052334Y0137576D01*
X0050619Y0136866D01*
X0049306Y0135553D01*
X0048595Y0133838D01*
X0048595Y0131981D01*
X0049306Y0130266D01*
X0050619Y0128953D01*
X0052334Y0128243D01*
X0059391Y0128243D01*
X0060720Y0128793D01*
X0060720Y0108197D01*
X0059259Y0106735D01*
X0058536Y0106013D01*
X0058146Y0105070D01*
X0058146Y0065426D01*
X0058536Y0064483D01*
X0069062Y0053958D01*
X0068762Y0053910D01*
X0068150Y0053711D01*
X0067576Y0053419D01*
X0067055Y0053040D01*
X0066599Y0052585D01*
X0066221Y0052064D01*
X0065928Y0051490D01*
X0065729Y0050877D01*
X0065628Y0050241D01*
X0065628Y0047627D01*
X0069413Y0047627D01*
X0069413Y0047011D01*
X0070028Y0047011D01*
X0070028Y0040627D01*
X0070043Y0040627D01*
X0070679Y0040728D01*
X0071291Y0040927D01*
X0071865Y0041219D01*
X0072386Y0041598D01*
X0072522Y0041734D01*
X0072698Y0041310D01*
X0073420Y0040588D01*
X0098446Y0015562D01*
X0098446Y0015562D01*
X0099168Y0014840D01*
X0100111Y0014449D01*
X0226766Y0014449D01*
X0227710Y0014840D01*
X0229110Y0016240D02*
X0390701Y0016240D01*
X0390701Y0017222D02*
X0230093Y0017222D01*
X0231075Y0018205D02*
X0390701Y0018205D01*
X0390701Y0019188D02*
X0232058Y0019188D01*
X0233041Y0020171D02*
X0390701Y0020171D01*
X0390701Y0021153D02*
X0234024Y0021153D01*
X0235006Y0022136D02*
X0390701Y0022136D01*
X0390701Y0023119D02*
X0235989Y0023119D01*
X0236972Y0024102D02*
X0390701Y0024102D01*
X0390701Y0025084D02*
X0237955Y0025084D01*
X0238937Y0026067D02*
X0390701Y0026067D01*
X0390701Y0027050D02*
X0239920Y0027050D01*
X0240903Y0028033D02*
X0390701Y0028033D01*
X0390701Y0029015D02*
X0241886Y0029015D01*
X0242869Y0029998D02*
X0390701Y0029998D01*
X0390701Y0030981D02*
X0243851Y0030981D01*
X0244834Y0031964D02*
X0390701Y0031964D01*
X0390701Y0032947D02*
X0245817Y0032947D01*
X0246800Y0033929D02*
X0390701Y0033929D01*
X0390701Y0034912D02*
X0247782Y0034912D01*
X0248765Y0035895D02*
X0390701Y0035895D01*
X0390701Y0036878D02*
X0249748Y0036878D01*
X0250731Y0037860D02*
X0390701Y0037860D01*
X0390701Y0038843D02*
X0251713Y0038843D01*
X0252696Y0039826D02*
X0390701Y0039826D01*
X0390701Y0040809D02*
X0253679Y0040809D01*
X0254662Y0041791D02*
X0390701Y0041791D01*
X0390701Y0042774D02*
X0255644Y0042774D01*
X0256627Y0043757D02*
X0390701Y0043757D01*
X0390701Y0044740D02*
X0257610Y0044740D01*
X0258593Y0045722D02*
X0390701Y0045722D01*
X0390701Y0046705D02*
X0261434Y0046705D01*
X0262680Y0047688D02*
X0390701Y0047688D01*
X0390701Y0048671D02*
X0263290Y0048671D01*
X0263646Y0049653D02*
X0390701Y0049653D01*
X0390701Y0050636D02*
X0263646Y0050636D01*
X0263450Y0051619D02*
X0390701Y0051619D01*
X0390701Y0052602D02*
X0329075Y0052602D01*
X0330058Y0053585D02*
X0390701Y0053585D01*
X0390701Y0054567D02*
X0331041Y0054567D01*
X0332023Y0055550D02*
X0390701Y0055550D01*
X0390701Y0056533D02*
X0333006Y0056533D01*
X0333989Y0057516D02*
X0390701Y0057516D01*
X0390701Y0058498D02*
X0334972Y0058498D01*
X0335954Y0059481D02*
X0390701Y0059481D01*
X0390701Y0060464D02*
X0336937Y0060464D01*
X0337931Y0061447D02*
X0390701Y0061447D01*
X0390701Y0062429D02*
X0338914Y0062429D01*
X0339897Y0063412D02*
X0390701Y0063412D01*
X0390701Y0064395D02*
X0340879Y0064395D01*
X0341862Y0065378D02*
X0390701Y0065378D01*
X0390701Y0066360D02*
X0342845Y0066360D01*
X0343828Y0067343D02*
X0390701Y0067343D01*
X0390701Y0068326D02*
X0344810Y0068326D01*
X0345793Y0069309D02*
X0390701Y0069309D01*
X0390701Y0070292D02*
X0346776Y0070292D01*
X0347759Y0071274D02*
X0390701Y0071274D01*
X0390701Y0072257D02*
X0348742Y0072257D01*
X0349724Y0073240D02*
X0390701Y0073240D01*
X0390701Y0074223D02*
X0350707Y0074223D01*
X0351690Y0075205D02*
X0390701Y0075205D01*
X0390701Y0076188D02*
X0352673Y0076188D01*
X0353655Y0077171D02*
X0390701Y0077171D01*
X0390701Y0078154D02*
X0354638Y0078154D01*
X0355621Y0079136D02*
X0356784Y0079136D01*
X0358799Y0079136D02*
X0390701Y0079136D01*
X0390701Y0080119D02*
X0360862Y0080119D01*
X0361845Y0081102D02*
X0390701Y0081102D01*
X0390701Y0082085D02*
X0362378Y0082085D01*
X0362785Y0083067D02*
X0390701Y0083067D01*
X0390701Y0084050D02*
X0362827Y0084050D01*
X0362827Y0085033D02*
X0390701Y0085033D01*
X0390701Y0086016D02*
X0362477Y0086016D01*
X0362070Y0086998D02*
X0390701Y0086998D01*
X0390701Y0087981D02*
X0361101Y0087981D01*
X0359374Y0088964D02*
X0390701Y0088964D01*
X0390701Y0089947D02*
X0346735Y0089947D01*
X0345752Y0090930D02*
X0390701Y0090930D01*
X0390701Y0091912D02*
X0312584Y0091912D01*
X0311601Y0092895D02*
X0390701Y0092895D01*
X0390701Y0093878D02*
X0310618Y0093878D01*
X0309636Y0094861D02*
X0390701Y0094861D01*
X0390701Y0095843D02*
X0308653Y0095843D01*
X0307670Y0096826D02*
X0390701Y0096826D01*
X0390701Y0097809D02*
X0306687Y0097809D01*
X0305705Y0098792D02*
X0390701Y0098792D01*
X0390701Y0099774D02*
X0304722Y0099774D01*
X0303739Y0100757D02*
X0390701Y0100757D01*
X0390701Y0101740D02*
X0302756Y0101740D01*
X0301774Y0102723D02*
X0390701Y0102723D01*
X0390701Y0103705D02*
X0300791Y0103705D01*
X0299808Y0104688D02*
X0390701Y0104688D01*
X0390701Y0105671D02*
X0298825Y0105671D01*
X0297843Y0106654D02*
X0390701Y0106654D01*
X0390701Y0107637D02*
X0296860Y0107637D01*
X0295877Y0108619D02*
X0390701Y0108619D01*
X0390701Y0109602D02*
X0294894Y0109602D01*
X0293912Y0110585D02*
X0390701Y0110585D01*
X0390701Y0111568D02*
X0292929Y0111568D01*
X0291946Y0112550D02*
X0390701Y0112550D01*
X0390701Y0113533D02*
X0290963Y0113533D01*
X0289980Y0114516D02*
X0390701Y0114516D01*
X0390701Y0115499D02*
X0288998Y0115499D01*
X0288015Y0116481D02*
X0390701Y0116481D01*
X0390701Y0117464D02*
X0287032Y0117464D01*
X0286049Y0118447D02*
X0390701Y0118447D01*
X0390701Y0119430D02*
X0285067Y0119430D01*
X0284084Y0120412D02*
X0390701Y0120412D01*
X0390701Y0121395D02*
X0283101Y0121395D01*
X0282118Y0122378D02*
X0390701Y0122378D01*
X0390701Y0123361D02*
X0281136Y0123361D01*
X0280153Y0124343D02*
X0390701Y0124343D01*
X0390701Y0125326D02*
X0279170Y0125326D01*
X0278187Y0126309D02*
X0390701Y0126309D01*
X0390701Y0127292D02*
X0277205Y0127292D01*
X0276222Y0128275D02*
X0304225Y0128275D01*
X0304302Y0128243D02*
X0311359Y0128243D01*
X0313074Y0128953D01*
X0314387Y0130266D01*
X0315098Y0131981D01*
X0315098Y0133838D01*
X0314387Y0135553D01*
X0313074Y0136866D01*
X0311359Y0137576D01*
X0304302Y0137576D01*
X0302587Y0136866D01*
X0301274Y0135553D01*
X0300564Y0133838D01*
X0300564Y0131981D01*
X0301274Y0130266D01*
X0302587Y0128953D01*
X0304302Y0128243D01*
X0302283Y0129257D02*
X0282277Y0129257D01*
X0283548Y0130240D02*
X0301300Y0130240D01*
X0300878Y0131223D02*
X0284164Y0131223D01*
X0284462Y0132206D02*
X0300564Y0132206D01*
X0300564Y0133188D02*
X0278139Y0133188D01*
X0277523Y0133188D02*
X0252105Y0133188D01*
X0252105Y0132206D02*
X0255119Y0132206D01*
X0254196Y0131223D02*
X0251791Y0131223D01*
X0252370Y0130240D02*
X0253789Y0130240D01*
X0253618Y0129257D02*
X0253353Y0129257D01*
X0251967Y0134171D02*
X0271338Y0134171D01*
X0271239Y0133868D02*
X0271139Y0133232D01*
X0271139Y0133217D01*
X0277523Y0133217D01*
X0277523Y0137002D01*
X0274909Y0137002D01*
X0274272Y0136901D01*
X0273660Y0136702D01*
X0273086Y0136409D01*
X0272565Y0136031D01*
X0272109Y0135575D01*
X0271731Y0135054D01*
X0271438Y0134480D01*
X0271239Y0133868D01*
X0271803Y0135154D02*
X0251560Y0135154D01*
X0251696Y0136137D02*
X0272711Y0136137D01*
X0272455Y0139085D02*
X0254644Y0139085D01*
X0255091Y0140068D02*
X0271472Y0140068D01*
X0270949Y0141050D02*
X0255102Y0141050D01*
X0255102Y0142033D02*
X0270564Y0142033D01*
X0270564Y0143016D02*
X0255102Y0143016D01*
X0255102Y0143999D02*
X0270630Y0143999D01*
X0271038Y0144982D02*
X0255102Y0144982D01*
X0255102Y0145964D02*
X0271686Y0145964D01*
X0272783Y0146947D02*
X0255102Y0146947D01*
X0255102Y0147930D02*
X0275717Y0147930D01*
X0272685Y0148913D02*
X0255102Y0148913D01*
X0255102Y0149895D02*
X0271645Y0149895D01*
X0271021Y0150878D02*
X0255102Y0150878D01*
X0255102Y0151861D02*
X0263399Y0151861D01*
X0262427Y0152844D02*
X0255102Y0152844D01*
X0255102Y0153826D02*
X0261444Y0153826D01*
X0260462Y0154809D02*
X0255102Y0154809D01*
X0255102Y0155792D02*
X0259479Y0155792D01*
X0258888Y0156775D02*
X0255016Y0156775D01*
X0254463Y0157757D02*
X0258776Y0157757D01*
X0258776Y0158740D02*
X0253481Y0158740D01*
X0252498Y0159723D02*
X0258776Y0159723D01*
X0258776Y0160706D02*
X0251577Y0160706D01*
X0251984Y0161688D02*
X0258776Y0161688D01*
X0258776Y0162671D02*
X0252105Y0162671D01*
X0252105Y0163654D02*
X0258776Y0163654D01*
X0257957Y0164637D02*
X0251775Y0164637D01*
X0251328Y0165620D02*
X0256974Y0165620D01*
X0255991Y0166602D02*
X0250346Y0166602D01*
X0249152Y0168568D02*
X0254026Y0168568D01*
X0255008Y0167585D02*
X0238133Y0167585D01*
X0237150Y0166602D02*
X0239331Y0166602D01*
X0238349Y0165620D02*
X0236168Y0165620D01*
X0235185Y0164637D02*
X0237903Y0164637D01*
X0237572Y0163654D02*
X0234202Y0163654D01*
X0233219Y0162671D02*
X0237572Y0162671D01*
X0237693Y0161688D02*
X0232398Y0161688D01*
X0232398Y0160706D02*
X0238100Y0160706D01*
X0238825Y0159723D02*
X0232398Y0159723D01*
X0232398Y0158740D02*
X0240109Y0158740D01*
X0239504Y0156775D02*
X0232176Y0156775D01*
X0232398Y0157757D02*
X0247203Y0157757D01*
X0238521Y0155792D02*
X0231431Y0155792D01*
X0230448Y0154809D02*
X0237974Y0154809D01*
X0237572Y0153826D02*
X0229465Y0153826D01*
X0228482Y0152844D02*
X0237572Y0152844D01*
X0237621Y0151861D02*
X0227511Y0151861D01*
X0225500Y0153480D02*
X0229839Y0157819D01*
X0229839Y0162909D01*
X0239839Y0172909D01*
X0244839Y0172909D01*
X0246098Y0172791D02*
X0253421Y0172791D01*
X0261335Y0164878D01*
X0261335Y0157555D01*
X0265409Y0153480D01*
X0249969Y0147930D02*
X0217768Y0147930D01*
X0219886Y0146947D02*
X0239791Y0146947D01*
X0238693Y0145964D02*
X0220984Y0145964D01*
X0221632Y0144982D02*
X0238045Y0144982D01*
X0239693Y0148913D02*
X0219985Y0148913D01*
X0221024Y0149895D02*
X0238653Y0149895D01*
X0238029Y0150878D02*
X0221649Y0150878D01*
X0222039Y0143999D02*
X0229124Y0143999D01*
X0228142Y0143016D02*
X0222105Y0143016D01*
X0222105Y0142033D02*
X0227159Y0142033D01*
X0226176Y0141050D02*
X0221720Y0141050D01*
X0221197Y0140068D02*
X0225193Y0140068D01*
X0224211Y0139085D02*
X0220214Y0139085D01*
X0222245Y0137119D02*
X0212769Y0137119D01*
X0213752Y0138102D02*
X0223228Y0138102D01*
X0221262Y0136137D02*
X0219959Y0136137D01*
X0215146Y0136137D02*
X0214531Y0136137D01*
X0214531Y0135154D02*
X0215146Y0135154D01*
X0215146Y0134171D02*
X0214531Y0134171D01*
X0214531Y0133188D02*
X0189113Y0133188D01*
X0189113Y0132206D02*
X0208207Y0132206D01*
X0208505Y0131223D02*
X0188799Y0131223D01*
X0188975Y0134171D02*
X0208346Y0134171D01*
X0208811Y0135154D02*
X0188568Y0135154D01*
X0175253Y0135465D02*
X0174580Y0133838D01*
X0174580Y0131981D01*
X0175276Y0130299D01*
X0157608Y0130299D01*
X0157946Y0130765D01*
X0158239Y0131339D01*
X0158438Y0131951D01*
X0158539Y0132587D01*
X0158539Y0132602D01*
X0152154Y0132602D01*
X0152154Y0133217D01*
X0158539Y0133217D01*
X0158539Y0133232D01*
X0158438Y0133868D01*
X0158239Y0134480D01*
X0157946Y0135054D01*
X0157648Y0135465D01*
X0175253Y0135465D01*
X0175125Y0135154D02*
X0157874Y0135154D01*
X0158339Y0134171D02*
X0174718Y0134171D01*
X0174580Y0133188D02*
X0152154Y0133188D01*
X0151538Y0133188D02*
X0145143Y0133188D01*
X0145154Y0133217D02*
X0151538Y0133217D01*
X0151538Y0132602D01*
X0145729Y0132602D01*
X0134087Y0144244D01*
X0134087Y0154158D01*
X0134967Y0155039D01*
X0135454Y0156215D01*
X0141827Y0149842D01*
X0141827Y0140096D01*
X0142218Y0139152D01*
X0144792Y0136577D01*
X0145514Y0135855D01*
X0146144Y0135594D01*
X0146125Y0135575D01*
X0145747Y0135054D01*
X0145454Y0134480D01*
X0145255Y0133868D01*
X0145154Y0133232D01*
X0145154Y0133217D01*
X0145354Y0134171D02*
X0144160Y0134171D01*
X0143177Y0135154D02*
X0145819Y0135154D01*
X0145233Y0136137D02*
X0142194Y0136137D01*
X0141212Y0137119D02*
X0144250Y0137119D01*
X0143268Y0138102D02*
X0140229Y0138102D01*
X0139246Y0139085D02*
X0142285Y0139085D01*
X0141838Y0140068D02*
X0138263Y0140068D01*
X0137280Y0141050D02*
X0141827Y0141050D01*
X0141827Y0142033D02*
X0136298Y0142033D01*
X0135315Y0143016D02*
X0141827Y0143016D01*
X0141827Y0143999D02*
X0134332Y0143999D01*
X0134087Y0144982D02*
X0141827Y0144982D01*
X0141827Y0145964D02*
X0134087Y0145964D01*
X0134087Y0146947D02*
X0141827Y0146947D01*
X0141827Y0147930D02*
X0134087Y0147930D01*
X0134087Y0148913D02*
X0141827Y0148913D01*
X0141774Y0149895D02*
X0134087Y0149895D01*
X0134087Y0150878D02*
X0140791Y0150878D01*
X0139808Y0151861D02*
X0134087Y0151861D01*
X0134087Y0152844D02*
X0138825Y0152844D01*
X0137843Y0153826D02*
X0134087Y0153826D01*
X0134738Y0154809D02*
X0136860Y0154809D01*
X0135877Y0155792D02*
X0135279Y0155792D01*
X0128953Y0154158D02*
X0128937Y0154174D01*
X0128937Y0140096D01*
X0128546Y0139152D01*
X0127824Y0138430D01*
X0125249Y0135855D01*
X0125150Y0135814D01*
X0125411Y0135553D01*
X0126121Y0133838D01*
X0126121Y0131981D01*
X0125411Y0130266D01*
X0124098Y0128953D01*
X0122500Y0128291D01*
X0122500Y0079874D01*
X0157276Y0045099D01*
X0157276Y0119398D01*
X0156395Y0120279D01*
X0155776Y0121774D01*
X0155776Y0123392D01*
X0156395Y0124886D01*
X0156674Y0125165D01*
X0146458Y0125165D01*
X0145514Y0125556D01*
X0130066Y0141005D01*
X0129344Y0141727D01*
X0128953Y0142670D01*
X0128953Y0154158D01*
X0128937Y0153826D02*
X0128953Y0153826D01*
X0128937Y0152844D02*
X0128953Y0152844D01*
X0128937Y0151861D02*
X0128953Y0151861D01*
X0128937Y0150878D02*
X0128953Y0150878D01*
X0128937Y0149895D02*
X0128953Y0149895D01*
X0128937Y0148913D02*
X0128953Y0148913D01*
X0128937Y0147930D02*
X0128953Y0147930D01*
X0128937Y0146947D02*
X0128953Y0146947D01*
X0128937Y0145964D02*
X0128953Y0145964D01*
X0128937Y0144982D02*
X0128953Y0144982D01*
X0128937Y0143999D02*
X0128953Y0143999D01*
X0128937Y0143016D02*
X0128953Y0143016D01*
X0128937Y0142033D02*
X0129217Y0142033D01*
X0128937Y0141050D02*
X0130020Y0141050D01*
X0131003Y0140068D02*
X0128925Y0140068D01*
X0128479Y0139085D02*
X0131986Y0139085D01*
X0132968Y0138102D02*
X0127496Y0138102D01*
X0126513Y0137119D02*
X0133951Y0137119D01*
X0134934Y0136137D02*
X0125531Y0136137D01*
X0125576Y0135154D02*
X0135917Y0135154D01*
X0136899Y0134171D02*
X0125983Y0134171D01*
X0126121Y0133188D02*
X0137882Y0133188D01*
X0138865Y0132206D02*
X0126121Y0132206D01*
X0125807Y0131223D02*
X0139848Y0131223D01*
X0140831Y0130240D02*
X0125385Y0130240D01*
X0124402Y0129257D02*
X0141813Y0129257D01*
X0142796Y0128275D02*
X0122500Y0128275D01*
X0122500Y0127292D02*
X0143779Y0127292D01*
X0144762Y0126309D02*
X0122500Y0126309D01*
X0122500Y0125326D02*
X0146069Y0125326D01*
X0155776Y0123361D02*
X0122500Y0123361D01*
X0122500Y0124343D02*
X0156170Y0124343D01*
X0155776Y0122378D02*
X0122500Y0122378D01*
X0122500Y0121395D02*
X0155932Y0121395D01*
X0156339Y0120412D02*
X0122500Y0120412D01*
X0122500Y0119430D02*
X0157244Y0119430D01*
X0157276Y0118447D02*
X0122500Y0118447D01*
X0122500Y0117464D02*
X0157276Y0117464D01*
X0157276Y0116481D02*
X0122500Y0116481D01*
X0122500Y0115499D02*
X0157276Y0115499D01*
X0157276Y0114516D02*
X0122500Y0114516D01*
X0122500Y0113533D02*
X0157276Y0113533D01*
X0157276Y0112550D02*
X0122500Y0112550D01*
X0122500Y0111568D02*
X0157276Y0111568D01*
X0157276Y0110585D02*
X0122500Y0110585D01*
X0122500Y0109602D02*
X0157276Y0109602D01*
X0157276Y0108619D02*
X0122500Y0108619D01*
X0122500Y0107637D02*
X0157276Y0107637D01*
X0157276Y0106654D02*
X0122500Y0106654D01*
X0122500Y0105671D02*
X0157276Y0105671D01*
X0157276Y0104688D02*
X0122500Y0104688D01*
X0122500Y0103705D02*
X0157276Y0103705D01*
X0157276Y0102723D02*
X0122500Y0102723D01*
X0122500Y0101740D02*
X0157276Y0101740D01*
X0157276Y0100757D02*
X0122500Y0100757D01*
X0122500Y0099774D02*
X0157276Y0099774D01*
X0157276Y0098792D02*
X0122500Y0098792D01*
X0122500Y0097809D02*
X0157276Y0097809D01*
X0157276Y0096826D02*
X0122500Y0096826D01*
X0122500Y0095843D02*
X0157276Y0095843D01*
X0157276Y0094861D02*
X0122500Y0094861D01*
X0122500Y0093878D02*
X0157276Y0093878D01*
X0157276Y0092895D02*
X0122500Y0092895D01*
X0122500Y0091912D02*
X0157276Y0091912D01*
X0157276Y0090930D02*
X0122500Y0090930D01*
X0122500Y0089947D02*
X0157276Y0089947D01*
X0157276Y0088964D02*
X0122500Y0088964D01*
X0122500Y0087981D02*
X0157276Y0087981D01*
X0157276Y0086998D02*
X0122500Y0086998D01*
X0122500Y0086016D02*
X0157276Y0086016D01*
X0157276Y0085033D02*
X0122500Y0085033D01*
X0122500Y0084050D02*
X0157276Y0084050D01*
X0157276Y0083067D02*
X0122500Y0083067D01*
X0122500Y0082085D02*
X0157276Y0082085D01*
X0157276Y0081102D02*
X0122500Y0081102D01*
X0122500Y0080119D02*
X0157276Y0080119D01*
X0157276Y0079136D02*
X0123238Y0079136D01*
X0124221Y0078154D02*
X0157276Y0078154D01*
X0157276Y0077171D02*
X0125203Y0077171D01*
X0126186Y0076188D02*
X0157276Y0076188D01*
X0157276Y0075205D02*
X0127169Y0075205D01*
X0128152Y0074223D02*
X0157276Y0074223D01*
X0157276Y0073240D02*
X0129134Y0073240D01*
X0130117Y0072257D02*
X0157276Y0072257D01*
X0157276Y0071274D02*
X0131100Y0071274D01*
X0132083Y0070292D02*
X0157276Y0070292D01*
X0157276Y0069309D02*
X0133066Y0069309D01*
X0134048Y0068326D02*
X0157276Y0068326D01*
X0157276Y0067343D02*
X0135031Y0067343D01*
X0136014Y0066360D02*
X0157276Y0066360D01*
X0157276Y0065378D02*
X0136997Y0065378D01*
X0137979Y0064395D02*
X0157276Y0064395D01*
X0157276Y0063412D02*
X0138962Y0063412D01*
X0139945Y0062429D02*
X0157276Y0062429D01*
X0157276Y0061447D02*
X0140928Y0061447D01*
X0141910Y0060464D02*
X0157276Y0060464D01*
X0157276Y0059481D02*
X0142893Y0059481D01*
X0143876Y0058498D02*
X0157276Y0058498D01*
X0157276Y0057516D02*
X0144859Y0057516D01*
X0145841Y0056533D02*
X0157276Y0056533D01*
X0157276Y0055550D02*
X0146824Y0055550D01*
X0147807Y0054567D02*
X0157276Y0054567D01*
X0157276Y0053585D02*
X0148790Y0053585D01*
X0149772Y0052602D02*
X0157276Y0052602D01*
X0157276Y0051619D02*
X0150755Y0051619D01*
X0151738Y0050636D02*
X0157276Y0050636D01*
X0157276Y0049653D02*
X0152721Y0049653D01*
X0153704Y0048671D02*
X0157276Y0048671D01*
X0157276Y0047688D02*
X0154686Y0047688D01*
X0155669Y0046705D02*
X0157276Y0046705D01*
X0157276Y0045722D02*
X0156652Y0045722D01*
X0162409Y0045722D02*
X0170891Y0045722D01*
X0170619Y0045995D02*
X0171488Y0045126D01*
X0171177Y0045126D01*
X0171177Y0041256D01*
X0170390Y0041256D01*
X0170390Y0045126D01*
X0167815Y0045126D01*
X0167436Y0045024D01*
X0167096Y0044828D01*
X0166818Y0044550D01*
X0166621Y0044210D01*
X0166520Y0043830D01*
X0166520Y0041256D01*
X0170390Y0041256D01*
X0170390Y0040468D01*
X0171177Y0040468D01*
X0171177Y0036598D01*
X0173752Y0036598D01*
X0174131Y0036700D01*
X0174471Y0036897D01*
X0174749Y0037174D01*
X0174946Y0037515D01*
X0174991Y0037686D01*
X0175917Y0036760D01*
X0177695Y0036024D01*
X0179161Y0036024D01*
X0179161Y0033074D01*
X0178281Y0032193D01*
X0177661Y0030699D01*
X0177661Y0029081D01*
X0178019Y0028217D01*
X0169638Y0036598D01*
X0170390Y0036598D01*
X0170390Y0040468D01*
X0166520Y0040468D01*
X0166520Y0039717D01*
X0162409Y0043827D01*
X0162409Y0055044D01*
X0162688Y0054765D01*
X0164183Y0054146D01*
X0165429Y0054146D01*
X0169882Y0049693D01*
X0169882Y0047774D01*
X0170619Y0045995D01*
X0170324Y0046705D02*
X0162409Y0046705D01*
X0162409Y0047688D02*
X0169917Y0047688D01*
X0169882Y0048671D02*
X0162409Y0048671D01*
X0162409Y0049653D02*
X0169882Y0049653D01*
X0168938Y0050636D02*
X0162409Y0050636D01*
X0162409Y0051619D02*
X0167956Y0051619D01*
X0166973Y0052602D02*
X0162409Y0052602D01*
X0162409Y0053585D02*
X0165990Y0053585D01*
X0163165Y0054567D02*
X0162409Y0054567D01*
X0169059Y0057776D02*
X0169059Y0059022D01*
X0168440Y0060516D01*
X0167296Y0061660D01*
X0165801Y0062280D01*
X0164183Y0062280D01*
X0162688Y0061660D01*
X0162409Y0061381D01*
X0162409Y0119398D01*
X0163290Y0120279D01*
X0163909Y0121774D01*
X0163909Y0123392D01*
X0163290Y0124886D01*
X0163011Y0125165D01*
X0219574Y0125165D01*
X0220517Y0125556D01*
X0221239Y0126278D01*
X0225101Y0130140D01*
X0225492Y0131084D01*
X0225492Y0133106D01*
X0226715Y0134329D01*
X0227202Y0133153D01*
X0228083Y0132272D01*
X0228083Y0093749D01*
X0228473Y0092806D01*
X0235074Y0086205D01*
X0234760Y0085447D01*
X0234107Y0087022D01*
X0232691Y0088438D01*
X0230840Y0089205D01*
X0228837Y0089205D01*
X0226986Y0088438D01*
X0225570Y0087022D01*
X0225111Y0085915D01*
X0224356Y0085159D01*
X0224347Y0085214D01*
X0224130Y0085882D01*
X0223811Y0086507D01*
X0223398Y0087075D01*
X0222902Y0087572D01*
X0222334Y0087984D01*
X0221708Y0088303D01*
X0221041Y0088520D01*
X0220488Y0088608D01*
X0220488Y0084661D01*
X0219504Y0084661D01*
X0219504Y0083677D01*
X0215558Y0083677D01*
X0215645Y0083125D01*
X0215862Y0082457D01*
X0216181Y0081831D01*
X0216594Y0081263D01*
X0217090Y0080767D01*
X0217658Y0080354D01*
X0218284Y0080035D01*
X0218952Y0079818D01*
X0219006Y0079810D01*
X0198689Y0059492D01*
X0182505Y0059492D01*
X0181562Y0059101D01*
X0175932Y0053472D01*
X0175683Y0053575D01*
X0173758Y0053575D01*
X0173406Y0053429D01*
X0169059Y0057776D01*
X0169319Y0057516D02*
X0179976Y0057516D01*
X0180959Y0058498D02*
X0169059Y0058498D01*
X0168869Y0059481D02*
X0182479Y0059481D01*
X0178993Y0056533D02*
X0170302Y0056533D01*
X0171285Y0055550D02*
X0178010Y0055550D01*
X0177028Y0054567D02*
X0172268Y0054567D01*
X0173250Y0053585D02*
X0176045Y0053585D01*
X0182201Y0052480D02*
X0182201Y0049130D01*
X0182988Y0049130D01*
X0182988Y0052991D01*
X0183593Y0052895D01*
X0184231Y0052688D01*
X0184829Y0052383D01*
X0185372Y0051988D01*
X0185847Y0051514D01*
X0186188Y0051045D01*
X0186367Y0051477D01*
X0187728Y0052838D01*
X0189506Y0053575D01*
X0191431Y0053575D01*
X0191468Y0053559D01*
X0192267Y0054358D01*
X0184079Y0054358D01*
X0182201Y0052480D01*
X0182322Y0052602D02*
X0182988Y0052602D01*
X0182988Y0051619D02*
X0182201Y0051619D01*
X0182201Y0050636D02*
X0182988Y0050636D01*
X0182988Y0049653D02*
X0182201Y0049653D01*
X0182594Y0048736D02*
X0194406Y0040862D01*
X0206217Y0048736D01*
X0206610Y0048342D02*
X0205823Y0048342D01*
X0205823Y0044482D01*
X0205443Y0044542D01*
X0206217Y0043768D01*
X0206990Y0044542D01*
X0206610Y0044482D01*
X0206610Y0048342D01*
X0206610Y0047688D02*
X0205823Y0047688D01*
X0205823Y0046705D02*
X0206610Y0046705D01*
X0206610Y0045722D02*
X0205823Y0045722D01*
X0205823Y0044740D02*
X0206610Y0044740D01*
X0206610Y0049130D02*
X0205823Y0049130D01*
X0205823Y0052991D01*
X0205218Y0052895D01*
X0204580Y0052688D01*
X0203982Y0052383D01*
X0203439Y0051988D01*
X0202964Y0051514D01*
X0202623Y0051045D01*
X0202444Y0051477D01*
X0201966Y0051956D01*
X0202493Y0052174D01*
X0203216Y0052896D01*
X0221414Y0071094D01*
X0258196Y0071094D01*
X0259139Y0071485D01*
X0259861Y0072207D01*
X0267203Y0079550D01*
X0268207Y0079134D01*
X0270210Y0079134D01*
X0272061Y0079900D01*
X0273477Y0081317D01*
X0274244Y0083168D01*
X0274244Y0085171D01*
X0273477Y0087022D01*
X0272061Y0088438D01*
X0270210Y0089205D01*
X0268207Y0089205D01*
X0266356Y0088438D01*
X0264940Y0087022D01*
X0264287Y0085447D01*
X0263635Y0087022D01*
X0262218Y0088438D01*
X0261539Y0088719D01*
X0261539Y0120518D01*
X0261149Y0121462D01*
X0257658Y0124953D01*
X0258494Y0124953D01*
X0259989Y0125572D01*
X0260870Y0126453D01*
X0270783Y0126453D01*
X0309071Y0088165D01*
X0309071Y0084661D01*
X0313017Y0084661D01*
X0312930Y0085214D01*
X0312713Y0085882D01*
X0312394Y0086507D01*
X0312368Y0086543D01*
X0313954Y0086543D01*
X0313386Y0085171D01*
X0313386Y0083168D01*
X0314152Y0081317D01*
X0315569Y0079900D01*
X0317420Y0079134D01*
X0318748Y0079134D01*
X0312155Y0072541D01*
X0312147Y0072522D01*
X0304700Y0065075D01*
X0228007Y0065075D01*
X0227066Y0064685D01*
X0226346Y0063965D01*
X0215691Y0053310D01*
X0215053Y0053575D01*
X0213128Y0053575D01*
X0211350Y0052838D01*
X0209989Y0051477D01*
X0209810Y0051045D01*
X0209469Y0051514D01*
X0208994Y0051988D01*
X0208451Y0052383D01*
X0207853Y0052688D01*
X0207215Y0052895D01*
X0206610Y0052991D01*
X0206610Y0049130D01*
X0206610Y0049653D02*
X0205823Y0049653D01*
X0205823Y0050636D02*
X0206610Y0050636D01*
X0206610Y0051619D02*
X0205823Y0051619D01*
X0205823Y0052602D02*
X0206610Y0052602D01*
X0208022Y0052602D02*
X0211113Y0052602D01*
X0210131Y0051619D02*
X0209364Y0051619D01*
X0204411Y0052602D02*
X0202921Y0052602D01*
X0203069Y0051619D02*
X0202303Y0051619D01*
X0203904Y0053585D02*
X0215965Y0053585D01*
X0216948Y0054567D02*
X0204886Y0054567D01*
X0205869Y0055550D02*
X0217931Y0055550D01*
X0218914Y0056533D02*
X0206852Y0056533D01*
X0207835Y0057516D02*
X0219897Y0057516D01*
X0220879Y0058498D02*
X0208818Y0058498D01*
X0209800Y0059481D02*
X0221862Y0059481D01*
X0222845Y0060464D02*
X0210783Y0060464D01*
X0211766Y0061447D02*
X0223828Y0061447D01*
X0224810Y0062429D02*
X0212749Y0062429D01*
X0213731Y0063412D02*
X0225793Y0063412D01*
X0226776Y0064395D02*
X0214714Y0064395D01*
X0215697Y0065378D02*
X0305003Y0065378D01*
X0305986Y0066360D02*
X0216680Y0066360D01*
X0217662Y0067343D02*
X0306968Y0067343D01*
X0307951Y0068326D02*
X0218645Y0068326D01*
X0219628Y0069309D02*
X0308934Y0069309D01*
X0309917Y0070292D02*
X0220611Y0070292D01*
X0215385Y0076188D02*
X0162409Y0076188D01*
X0162409Y0075205D02*
X0214402Y0075205D01*
X0213419Y0074223D02*
X0162409Y0074223D01*
X0162409Y0073240D02*
X0212436Y0073240D01*
X0211454Y0072257D02*
X0162409Y0072257D01*
X0162409Y0071274D02*
X0210471Y0071274D01*
X0209488Y0070292D02*
X0162409Y0070292D01*
X0162409Y0069309D02*
X0208505Y0069309D01*
X0207523Y0068326D02*
X0162409Y0068326D01*
X0162409Y0067343D02*
X0206540Y0067343D01*
X0205557Y0066360D02*
X0162409Y0066360D01*
X0162409Y0065378D02*
X0204574Y0065378D01*
X0203592Y0064395D02*
X0162409Y0064395D01*
X0162409Y0063412D02*
X0202609Y0063412D01*
X0201626Y0062429D02*
X0162409Y0062429D01*
X0162409Y0061447D02*
X0162475Y0061447D01*
X0167510Y0061447D02*
X0200643Y0061447D01*
X0199660Y0060464D02*
X0168462Y0060464D01*
X0182201Y0048342D02*
X0182988Y0048342D01*
X0182988Y0044482D01*
X0183368Y0044542D01*
X0182594Y0043768D01*
X0181821Y0044542D01*
X0182201Y0044482D01*
X0182201Y0048342D01*
X0182594Y0048736D02*
X0170783Y0040862D01*
X0170390Y0040809D02*
X0165428Y0040809D01*
X0164445Y0041791D02*
X0166520Y0041791D01*
X0166520Y0042774D02*
X0163462Y0042774D01*
X0162480Y0043757D02*
X0166520Y0043757D01*
X0167007Y0044740D02*
X0162409Y0044740D01*
X0166411Y0039826D02*
X0166520Y0039826D01*
X0170390Y0039826D02*
X0171177Y0039826D01*
X0171177Y0038843D02*
X0170390Y0038843D01*
X0170390Y0037860D02*
X0171177Y0037860D01*
X0171177Y0036878D02*
X0170390Y0036878D01*
X0170342Y0035895D02*
X0179161Y0035895D01*
X0179161Y0034912D02*
X0171324Y0034912D01*
X0172307Y0033929D02*
X0179161Y0033929D01*
X0179034Y0032947D02*
X0173290Y0032947D01*
X0174273Y0031964D02*
X0178185Y0031964D01*
X0177778Y0030981D02*
X0175255Y0030981D01*
X0176238Y0029998D02*
X0177661Y0029998D01*
X0177688Y0029015D02*
X0177221Y0029015D01*
X0175799Y0036878D02*
X0174438Y0036878D01*
X0171177Y0041791D02*
X0170390Y0041791D01*
X0170390Y0042774D02*
X0171177Y0042774D01*
X0171177Y0043757D02*
X0170390Y0043757D01*
X0170390Y0044740D02*
X0171177Y0044740D01*
X0182201Y0044740D02*
X0182988Y0044740D01*
X0182988Y0045722D02*
X0182201Y0045722D01*
X0182201Y0046705D02*
X0182988Y0046705D01*
X0182988Y0047688D02*
X0182201Y0047688D01*
X0185742Y0051619D02*
X0186509Y0051619D01*
X0187491Y0052602D02*
X0184400Y0052602D01*
X0183305Y0053585D02*
X0191494Y0053585D01*
X0194405Y0045830D02*
X0195179Y0045057D01*
X0194799Y0045117D01*
X0194799Y0041256D01*
X0194012Y0041256D01*
X0194012Y0045117D01*
X0193632Y0045057D01*
X0194405Y0045830D01*
X0194297Y0045722D02*
X0194514Y0045722D01*
X0194799Y0044740D02*
X0194012Y0044740D01*
X0194012Y0043757D02*
X0194799Y0043757D01*
X0194799Y0042774D02*
X0194012Y0042774D01*
X0194012Y0041791D02*
X0194799Y0041791D01*
X0215201Y0049201D02*
X0228516Y0062516D01*
X0305760Y0062516D01*
X0314331Y0071087D01*
X0312854Y0073240D02*
X0260894Y0073240D01*
X0261876Y0074223D02*
X0313836Y0074223D01*
X0314819Y0075205D02*
X0262859Y0075205D01*
X0263842Y0076188D02*
X0315802Y0076188D01*
X0316785Y0077171D02*
X0264825Y0077171D01*
X0265807Y0078154D02*
X0317768Y0078154D01*
X0317414Y0079136D02*
X0299744Y0079136D01*
X0299738Y0079134D02*
X0301589Y0079900D01*
X0303005Y0081317D01*
X0303772Y0083168D01*
X0303772Y0085171D01*
X0303005Y0087022D01*
X0301589Y0088438D01*
X0299738Y0089205D01*
X0297735Y0089205D01*
X0295884Y0088438D01*
X0294467Y0087022D01*
X0293815Y0085447D01*
X0293163Y0087022D01*
X0291746Y0088438D01*
X0289895Y0089205D01*
X0287892Y0089205D01*
X0286041Y0088438D01*
X0284625Y0087022D01*
X0283858Y0085171D01*
X0283858Y0083168D01*
X0284625Y0081317D01*
X0286041Y0079900D01*
X0287892Y0079134D01*
X0289895Y0079134D01*
X0291746Y0079900D01*
X0293163Y0081317D01*
X0293815Y0082892D01*
X0294467Y0081317D01*
X0295884Y0079900D01*
X0297735Y0079134D01*
X0299738Y0079134D01*
X0297729Y0079136D02*
X0289901Y0079136D01*
X0287886Y0079136D02*
X0270216Y0079136D01*
X0268201Y0079136D02*
X0266790Y0079136D01*
X0272280Y0080119D02*
X0277175Y0080119D01*
X0277339Y0080035D02*
X0278007Y0079818D01*
X0278559Y0079731D01*
X0278559Y0083677D01*
X0279543Y0083677D01*
X0279543Y0079731D01*
X0280096Y0079818D01*
X0280763Y0080035D01*
X0281389Y0080354D01*
X0281957Y0080767D01*
X0282454Y0081263D01*
X0282866Y0081831D01*
X0283185Y0082457D01*
X0283402Y0083125D01*
X0283489Y0083677D01*
X0279543Y0083677D01*
X0279543Y0084661D01*
X0283489Y0084661D01*
X0283402Y0085214D01*
X0283185Y0085882D01*
X0282866Y0086507D01*
X0282454Y0087075D01*
X0281957Y0087572D01*
X0281389Y0087984D01*
X0280763Y0088303D01*
X0280096Y0088520D01*
X0279543Y0088608D01*
X0279543Y0084661D01*
X0278559Y0084661D01*
X0278559Y0083677D01*
X0274613Y0083677D01*
X0274700Y0083125D01*
X0274917Y0082457D01*
X0275236Y0081831D01*
X0275649Y0081263D01*
X0276145Y0080767D01*
X0276713Y0080354D01*
X0277339Y0080035D01*
X0278559Y0080119D02*
X0279543Y0080119D01*
X0279543Y0081102D02*
X0278559Y0081102D01*
X0278559Y0082085D02*
X0279543Y0082085D01*
X0279543Y0083067D02*
X0278559Y0083067D01*
X0278559Y0084050D02*
X0274244Y0084050D01*
X0274613Y0084661D02*
X0278559Y0084661D01*
X0278559Y0088608D01*
X0278007Y0088520D01*
X0277339Y0088303D01*
X0276713Y0087984D01*
X0276145Y0087572D01*
X0275649Y0087075D01*
X0275236Y0086507D01*
X0274917Y0085882D01*
X0274700Y0085214D01*
X0274613Y0084661D01*
X0274672Y0085033D02*
X0274244Y0085033D01*
X0273894Y0086016D02*
X0274986Y0086016D01*
X0275593Y0086998D02*
X0273487Y0086998D01*
X0272518Y0087981D02*
X0276709Y0087981D01*
X0278559Y0087981D02*
X0279543Y0087981D01*
X0279543Y0086998D02*
X0278559Y0086998D01*
X0278559Y0086016D02*
X0279543Y0086016D01*
X0279543Y0085033D02*
X0278559Y0085033D01*
X0279543Y0084050D02*
X0283858Y0084050D01*
X0283858Y0085033D02*
X0283431Y0085033D01*
X0283117Y0086016D02*
X0284208Y0086016D01*
X0284615Y0086998D02*
X0282509Y0086998D01*
X0281393Y0087981D02*
X0285584Y0087981D01*
X0287311Y0088964D02*
X0270791Y0088964D01*
X0267626Y0088964D02*
X0261539Y0088964D01*
X0261539Y0089947D02*
X0307289Y0089947D01*
X0306306Y0090930D02*
X0261539Y0090930D01*
X0261539Y0091912D02*
X0305324Y0091912D01*
X0304341Y0092895D02*
X0261539Y0092895D01*
X0261539Y0093878D02*
X0303358Y0093878D01*
X0302375Y0094861D02*
X0261539Y0094861D01*
X0261539Y0095843D02*
X0301393Y0095843D01*
X0300410Y0096826D02*
X0261539Y0096826D01*
X0261539Y0097809D02*
X0299427Y0097809D01*
X0298444Y0098792D02*
X0261539Y0098792D01*
X0261539Y0099774D02*
X0297462Y0099774D01*
X0296479Y0100757D02*
X0261539Y0100757D01*
X0261539Y0101740D02*
X0295496Y0101740D01*
X0294513Y0102723D02*
X0261539Y0102723D01*
X0261539Y0103705D02*
X0293530Y0103705D01*
X0292548Y0104688D02*
X0261539Y0104688D01*
X0261539Y0105671D02*
X0291565Y0105671D01*
X0290582Y0106654D02*
X0261539Y0106654D01*
X0261539Y0107637D02*
X0289599Y0107637D01*
X0288617Y0108619D02*
X0261539Y0108619D01*
X0261539Y0109602D02*
X0287634Y0109602D01*
X0286651Y0110585D02*
X0261539Y0110585D01*
X0261539Y0111568D02*
X0285668Y0111568D01*
X0284686Y0112550D02*
X0261539Y0112550D01*
X0261539Y0113533D02*
X0283703Y0113533D01*
X0282720Y0114516D02*
X0261539Y0114516D01*
X0261539Y0115499D02*
X0281737Y0115499D01*
X0280755Y0116481D02*
X0261539Y0116481D01*
X0261539Y0117464D02*
X0279772Y0117464D01*
X0278789Y0118447D02*
X0261539Y0118447D01*
X0261539Y0119430D02*
X0277806Y0119430D01*
X0276824Y0120412D02*
X0261539Y0120412D01*
X0261176Y0121395D02*
X0275841Y0121395D01*
X0274858Y0122378D02*
X0260233Y0122378D01*
X0259250Y0123361D02*
X0273875Y0123361D01*
X0272892Y0124343D02*
X0258267Y0124343D01*
X0259396Y0125326D02*
X0271910Y0125326D01*
X0270927Y0126309D02*
X0260726Y0126309D01*
X0260251Y0132206D02*
X0271199Y0132206D01*
X0277523Y0132206D02*
X0278139Y0132206D01*
X0278139Y0131223D02*
X0277523Y0131223D01*
X0277523Y0130240D02*
X0278139Y0130240D01*
X0278139Y0129257D02*
X0277523Y0129257D01*
X0277523Y0134171D02*
X0278139Y0134171D01*
X0278139Y0135154D02*
X0277523Y0135154D01*
X0277523Y0136137D02*
X0278139Y0136137D01*
X0282951Y0136137D02*
X0301858Y0136137D01*
X0301109Y0135154D02*
X0283858Y0135154D01*
X0284323Y0134171D02*
X0300702Y0134171D01*
X0303199Y0137119D02*
X0252679Y0137119D01*
X0253661Y0138102D02*
X0390701Y0138102D01*
X0390701Y0137119D02*
X0375454Y0137119D01*
X0376066Y0136866D02*
X0374351Y0137576D01*
X0367295Y0137576D01*
X0365579Y0136866D01*
X0364266Y0135553D01*
X0363556Y0133838D01*
X0363556Y0131981D01*
X0364266Y0130266D01*
X0365579Y0128953D01*
X0367295Y0128243D01*
X0374351Y0128243D01*
X0376066Y0128953D01*
X0377379Y0130266D01*
X0378090Y0131981D01*
X0378090Y0133838D01*
X0377379Y0135553D01*
X0376066Y0136866D01*
X0376796Y0136137D02*
X0390701Y0136137D01*
X0390701Y0135154D02*
X0377545Y0135154D01*
X0377952Y0134171D02*
X0390701Y0134171D01*
X0390701Y0133188D02*
X0378090Y0133188D01*
X0378090Y0132206D02*
X0390701Y0132206D01*
X0390701Y0131223D02*
X0377776Y0131223D01*
X0377353Y0130240D02*
X0390701Y0130240D01*
X0390701Y0129257D02*
X0376371Y0129257D01*
X0374428Y0128275D02*
X0390701Y0128275D01*
X0390701Y0139085D02*
X0376198Y0139085D01*
X0376066Y0138953D02*
X0377379Y0140266D01*
X0378090Y0141981D01*
X0378090Y0143838D01*
X0377379Y0145553D01*
X0376066Y0146866D01*
X0374351Y0147576D01*
X0367295Y0147576D01*
X0365579Y0146866D01*
X0364266Y0145553D01*
X0363556Y0143838D01*
X0363556Y0141981D01*
X0364266Y0140266D01*
X0365579Y0138953D01*
X0367295Y0138243D01*
X0374351Y0138243D01*
X0376066Y0138953D01*
X0377181Y0140068D02*
X0390701Y0140068D01*
X0390701Y0141050D02*
X0377704Y0141050D01*
X0378090Y0142033D02*
X0390701Y0142033D01*
X0390701Y0143016D02*
X0378090Y0143016D01*
X0378023Y0143999D02*
X0390701Y0143999D01*
X0390701Y0144982D02*
X0377616Y0144982D01*
X0376968Y0145964D02*
X0390701Y0145964D01*
X0390701Y0146947D02*
X0375870Y0146947D01*
X0375969Y0148913D02*
X0390701Y0148913D01*
X0390701Y0149895D02*
X0377009Y0149895D01*
X0377379Y0150266D02*
X0378090Y0151981D01*
X0378090Y0153838D01*
X0377379Y0155553D01*
X0376066Y0156866D01*
X0374351Y0157576D01*
X0367295Y0157576D01*
X0365579Y0156866D01*
X0364266Y0155553D01*
X0363556Y0153838D01*
X0363556Y0151981D01*
X0364266Y0150266D01*
X0365579Y0148953D01*
X0367295Y0148243D01*
X0374351Y0148243D01*
X0376066Y0148953D01*
X0377379Y0150266D01*
X0377633Y0150878D02*
X0390701Y0150878D01*
X0390701Y0151861D02*
X0378040Y0151861D01*
X0378090Y0152844D02*
X0390701Y0152844D01*
X0390701Y0153826D02*
X0378090Y0153826D01*
X0377687Y0154809D02*
X0390701Y0154809D01*
X0390701Y0155792D02*
X0377140Y0155792D01*
X0376158Y0156775D02*
X0390701Y0156775D01*
X0390701Y0157757D02*
X0349273Y0157757D01*
X0348291Y0156775D02*
X0365488Y0156775D01*
X0364505Y0155792D02*
X0347308Y0155792D01*
X0347687Y0154809D02*
X0363958Y0154809D01*
X0363556Y0153826D02*
X0348090Y0153826D01*
X0348090Y0152844D02*
X0363556Y0152844D01*
X0363606Y0151861D02*
X0348040Y0151861D01*
X0347633Y0150878D02*
X0364013Y0150878D01*
X0364637Y0149895D02*
X0347009Y0149895D01*
X0345969Y0148913D02*
X0365677Y0148913D01*
X0365775Y0146947D02*
X0345870Y0146947D01*
X0346066Y0146866D02*
X0344351Y0147576D01*
X0337295Y0147576D01*
X0335579Y0146866D01*
X0334266Y0145553D01*
X0333556Y0143838D01*
X0333556Y0141981D01*
X0334266Y0140266D01*
X0335579Y0138953D01*
X0337295Y0138243D01*
X0344351Y0138243D01*
X0346066Y0138953D01*
X0347379Y0140266D01*
X0348090Y0141981D01*
X0348090Y0143838D01*
X0347379Y0145553D01*
X0346066Y0146866D01*
X0346968Y0145964D02*
X0364678Y0145964D01*
X0364030Y0144982D02*
X0347616Y0144982D01*
X0348023Y0143999D02*
X0363623Y0143999D01*
X0363556Y0143016D02*
X0348090Y0143016D01*
X0348090Y0142033D02*
X0363556Y0142033D01*
X0363941Y0141050D02*
X0347704Y0141050D01*
X0347181Y0140068D02*
X0364465Y0140068D01*
X0365447Y0139085D02*
X0346198Y0139085D01*
X0344994Y0136702D02*
X0344381Y0136901D01*
X0343745Y0137002D01*
X0341131Y0137002D01*
X0341131Y0133217D01*
X0347515Y0133217D01*
X0347515Y0133232D01*
X0347414Y0133868D01*
X0347215Y0134480D01*
X0346923Y0135054D01*
X0346544Y0135575D01*
X0346089Y0136031D01*
X0345568Y0136409D01*
X0344994Y0136702D01*
X0345943Y0136137D02*
X0364850Y0136137D01*
X0364101Y0135154D02*
X0346850Y0135154D01*
X0347316Y0134171D02*
X0363694Y0134171D01*
X0363556Y0133188D02*
X0341131Y0133188D01*
X0341131Y0133217D02*
X0341131Y0132602D01*
X0347515Y0132602D01*
X0347515Y0132587D01*
X0347414Y0131951D01*
X0347215Y0131339D01*
X0346923Y0130765D01*
X0346544Y0130244D01*
X0346089Y0129788D01*
X0345568Y0129410D01*
X0344994Y0129117D01*
X0344381Y0128918D01*
X0343745Y0128817D01*
X0341131Y0128817D01*
X0341131Y0132601D01*
X0340515Y0132601D01*
X0340515Y0128817D01*
X0337901Y0128817D01*
X0337265Y0128918D01*
X0336652Y0129117D01*
X0336078Y0129410D01*
X0335557Y0129788D01*
X0335102Y0130244D01*
X0334723Y0130765D01*
X0334431Y0131339D01*
X0334231Y0131951D01*
X0334131Y0132587D01*
X0334131Y0132602D01*
X0340515Y0132602D01*
X0340515Y0133217D01*
X0334131Y0133217D01*
X0334131Y0133232D01*
X0334231Y0133868D01*
X0334431Y0134480D01*
X0334723Y0135054D01*
X0335102Y0135575D01*
X0335557Y0136031D01*
X0336078Y0136409D01*
X0336652Y0136702D01*
X0337265Y0136901D01*
X0337901Y0137002D01*
X0340515Y0137002D01*
X0340515Y0133217D01*
X0341131Y0133217D01*
X0340515Y0133188D02*
X0315098Y0133188D01*
X0315098Y0132206D02*
X0334191Y0132206D01*
X0334489Y0131223D02*
X0314784Y0131223D01*
X0314361Y0130240D02*
X0335105Y0130240D01*
X0336377Y0129257D02*
X0313379Y0129257D01*
X0311436Y0128275D02*
X0367217Y0128275D01*
X0365275Y0129257D02*
X0345269Y0129257D01*
X0346541Y0130240D02*
X0364292Y0130240D01*
X0363870Y0131223D02*
X0347156Y0131223D01*
X0347454Y0132206D02*
X0363556Y0132206D01*
X0366191Y0137119D02*
X0312462Y0137119D01*
X0313804Y0136137D02*
X0335703Y0136137D01*
X0334795Y0135154D02*
X0314552Y0135154D01*
X0314960Y0134171D02*
X0334330Y0134171D01*
X0340515Y0134171D02*
X0341131Y0134171D01*
X0341131Y0135154D02*
X0340515Y0135154D01*
X0340515Y0136137D02*
X0341131Y0136137D01*
X0341131Y0132206D02*
X0340515Y0132206D01*
X0340515Y0131223D02*
X0341131Y0131223D01*
X0341131Y0130240D02*
X0340515Y0130240D01*
X0340515Y0129257D02*
X0341131Y0129257D01*
X0335447Y0139085D02*
X0313206Y0139085D01*
X0314189Y0140068D02*
X0334465Y0140068D01*
X0333941Y0141050D02*
X0314712Y0141050D01*
X0315098Y0142033D02*
X0333556Y0142033D01*
X0333556Y0143016D02*
X0315098Y0143016D01*
X0315031Y0143999D02*
X0333623Y0143999D01*
X0334030Y0144982D02*
X0314624Y0144982D01*
X0313976Y0145964D02*
X0334678Y0145964D01*
X0335775Y0146947D02*
X0312878Y0146947D01*
X0312977Y0148913D02*
X0335677Y0148913D01*
X0334637Y0149895D02*
X0314017Y0149895D01*
X0314641Y0150878D02*
X0334013Y0150878D01*
X0325194Y0151861D02*
X0315048Y0151861D01*
X0315098Y0152844D02*
X0324211Y0152844D01*
X0323228Y0153826D02*
X0315098Y0153826D01*
X0314695Y0154809D02*
X0322246Y0154809D01*
X0321263Y0155792D02*
X0314148Y0155792D01*
X0313165Y0156775D02*
X0320280Y0156775D01*
X0319297Y0157757D02*
X0305959Y0157757D01*
X0312561Y0158740D02*
X0318315Y0158740D01*
X0317332Y0159723D02*
X0313844Y0159723D01*
X0314569Y0160706D02*
X0316349Y0160706D01*
X0315366Y0161688D02*
X0314976Y0161688D01*
X0300564Y0152844D02*
X0300134Y0152844D01*
X0300614Y0151861D02*
X0298982Y0151861D01*
X0299965Y0150878D02*
X0301021Y0150878D01*
X0300947Y0149895D02*
X0301645Y0149895D01*
X0301930Y0148913D02*
X0302685Y0148913D01*
X0302913Y0147930D02*
X0390701Y0147930D01*
X0390701Y0158740D02*
X0375553Y0158740D01*
X0376066Y0158953D02*
X0377379Y0160266D01*
X0378090Y0161981D01*
X0378090Y0163838D01*
X0377379Y0165553D01*
X0376066Y0166866D01*
X0374351Y0167576D01*
X0367295Y0167576D01*
X0365579Y0166866D01*
X0364266Y0165553D01*
X0363556Y0163838D01*
X0363556Y0161981D01*
X0364266Y0160266D01*
X0365579Y0158953D01*
X0367295Y0158243D01*
X0374351Y0158243D01*
X0376066Y0158953D01*
X0376836Y0159723D02*
X0390701Y0159723D01*
X0390701Y0160706D02*
X0377561Y0160706D01*
X0377969Y0161688D02*
X0390701Y0161688D01*
X0390701Y0162671D02*
X0378090Y0162671D01*
X0378090Y0163654D02*
X0390701Y0163654D01*
X0390701Y0164637D02*
X0377759Y0164637D01*
X0377313Y0165620D02*
X0390701Y0165620D01*
X0390701Y0166602D02*
X0376330Y0166602D01*
X0375137Y0168568D02*
X0390701Y0168568D01*
X0390701Y0169551D02*
X0376664Y0169551D01*
X0377490Y0170533D02*
X0390701Y0170533D01*
X0390701Y0171516D02*
X0377897Y0171516D01*
X0378090Y0172499D02*
X0390701Y0172499D01*
X0390701Y0173482D02*
X0378090Y0173482D01*
X0377830Y0174464D02*
X0390701Y0174464D01*
X0390701Y0175447D02*
X0377423Y0175447D01*
X0376502Y0176430D02*
X0390701Y0176430D01*
X0390701Y0177413D02*
X0374746Y0177413D01*
X0374720Y0178395D02*
X0390701Y0178395D01*
X0390701Y0179378D02*
X0376492Y0179378D01*
X0377419Y0180361D02*
X0390701Y0180361D01*
X0390701Y0181344D02*
X0377826Y0181344D01*
X0378090Y0182327D02*
X0390701Y0182327D01*
X0390701Y0183309D02*
X0378090Y0183309D01*
X0377902Y0184292D02*
X0390701Y0184292D01*
X0390701Y0185275D02*
X0377495Y0185275D01*
X0376675Y0186258D02*
X0390701Y0186258D01*
X0390701Y0187240D02*
X0375162Y0187240D01*
X0376319Y0189206D02*
X0390701Y0189206D01*
X0390701Y0190189D02*
X0377302Y0190189D01*
X0377754Y0191171D02*
X0390701Y0191171D01*
X0390701Y0192154D02*
X0378090Y0192154D01*
X0378090Y0193137D02*
X0390701Y0193137D01*
X0390701Y0194120D02*
X0377973Y0194120D01*
X0377566Y0195102D02*
X0390701Y0195102D01*
X0390701Y0196085D02*
X0376847Y0196085D01*
X0375579Y0197068D02*
X0390701Y0197068D01*
X0390701Y0198051D02*
X0354232Y0198051D01*
X0354232Y0199034D02*
X0390701Y0199034D01*
X0390701Y0200016D02*
X0354232Y0200016D01*
X0354232Y0200999D02*
X0390701Y0200999D01*
X0390701Y0201982D02*
X0354232Y0201982D01*
X0354232Y0202965D02*
X0390701Y0202965D01*
X0390701Y0203947D02*
X0354232Y0203947D01*
X0354232Y0204930D02*
X0390701Y0204930D01*
X0390701Y0205913D02*
X0354232Y0205913D01*
X0354232Y0206896D02*
X0390701Y0206896D01*
X0390701Y0207878D02*
X0354232Y0207878D01*
X0354232Y0208861D02*
X0390701Y0208861D01*
X0390701Y0209844D02*
X0354232Y0209844D01*
X0354232Y0210827D02*
X0390701Y0210827D01*
X0390701Y0211809D02*
X0354232Y0211809D01*
X0354232Y0212792D02*
X0390701Y0212792D01*
X0390701Y0213775D02*
X0354232Y0213775D01*
X0354232Y0214758D02*
X0390701Y0214758D01*
X0390701Y0215740D02*
X0354232Y0215740D01*
X0354232Y0216723D02*
X0390701Y0216723D01*
X0390701Y0217706D02*
X0354232Y0217706D01*
X0354232Y0218689D02*
X0390701Y0218689D01*
X0390701Y0219672D02*
X0354232Y0219672D01*
X0354232Y0220654D02*
X0390701Y0220654D01*
X0390701Y0221637D02*
X0354232Y0221637D01*
X0354232Y0222620D02*
X0390701Y0222620D01*
X0390701Y0223603D02*
X0354232Y0223603D01*
X0354232Y0224585D02*
X0390701Y0224585D01*
X0390701Y0225568D02*
X0354232Y0225568D01*
X0354232Y0226551D02*
X0390701Y0226551D01*
X0390701Y0227534D02*
X0354232Y0227534D01*
X0354232Y0228516D02*
X0390701Y0228516D01*
X0390701Y0229499D02*
X0354232Y0229499D01*
X0354232Y0230482D02*
X0390701Y0230482D01*
X0390701Y0231465D02*
X0354232Y0231465D01*
X0354232Y0232447D02*
X0390701Y0232447D01*
X0390701Y0233430D02*
X0354232Y0233430D01*
X0354232Y0234413D02*
X0390701Y0234413D01*
X0390701Y0235396D02*
X0354232Y0235396D01*
X0354232Y0236379D02*
X0390701Y0236379D01*
X0390701Y0237361D02*
X0354232Y0237361D01*
X0354232Y0238344D02*
X0390701Y0238344D01*
X0390701Y0239327D02*
X0354232Y0239327D01*
X0354232Y0240310D02*
X0390701Y0240310D01*
X0390701Y0241292D02*
X0354232Y0241292D01*
X0354232Y0242275D02*
X0390701Y0242275D01*
X0390701Y0243258D02*
X0354232Y0243258D01*
X0354232Y0244241D02*
X0390701Y0244241D01*
X0390701Y0245223D02*
X0354232Y0245223D01*
X0354232Y0246206D02*
X0390701Y0246206D01*
X0390701Y0247189D02*
X0354232Y0247189D01*
X0354232Y0248172D02*
X0390701Y0248172D01*
X0390701Y0249154D02*
X0354232Y0249154D01*
X0354232Y0250137D02*
X0390701Y0250137D01*
X0390701Y0251120D02*
X0354232Y0251120D01*
X0354232Y0252103D02*
X0390701Y0252103D01*
X0390701Y0253085D02*
X0354232Y0253085D01*
X0353838Y0254068D02*
X0390701Y0254068D01*
X0390701Y0255051D02*
X0352855Y0255051D01*
X0351872Y0256034D02*
X0390701Y0256034D01*
X0390701Y0257017D02*
X0350889Y0257017D01*
X0349906Y0257999D02*
X0390701Y0257999D01*
X0390701Y0258982D02*
X0348924Y0258982D01*
X0347941Y0259965D02*
X0390701Y0259965D01*
X0390701Y0260948D02*
X0346958Y0260948D01*
X0345975Y0261930D02*
X0390701Y0261930D01*
X0390701Y0262913D02*
X0344993Y0262913D01*
X0344010Y0263896D02*
X0390701Y0263896D01*
X0390701Y0264879D02*
X0343027Y0264879D01*
X0342044Y0265861D02*
X0390701Y0265861D01*
X0390701Y0266844D02*
X0341062Y0266844D01*
X0340079Y0267827D02*
X0390701Y0267827D01*
X0390701Y0268810D02*
X0339096Y0268810D01*
X0338113Y0269792D02*
X0390701Y0269792D01*
X0390701Y0270775D02*
X0337131Y0270775D01*
X0336148Y0271758D02*
X0390701Y0271758D01*
X0390701Y0272741D02*
X0335165Y0272741D01*
X0334182Y0273724D02*
X0390701Y0273724D01*
X0390701Y0274706D02*
X0333199Y0274706D01*
X0332217Y0275689D02*
X0390701Y0275689D01*
X0390701Y0276672D02*
X0331234Y0276672D01*
X0330251Y0277655D02*
X0390701Y0277655D01*
X0390701Y0278637D02*
X0329268Y0278637D01*
X0328286Y0279620D02*
X0390701Y0279620D01*
X0390701Y0280603D02*
X0327303Y0280603D01*
X0326320Y0281586D02*
X0390701Y0281586D01*
X0390701Y0282568D02*
X0325337Y0282568D01*
X0324355Y0283551D02*
X0390701Y0283551D01*
X0390701Y0284534D02*
X0323372Y0284534D01*
X0322389Y0285517D02*
X0390701Y0285517D01*
X0390701Y0286499D02*
X0321406Y0286499D01*
X0320424Y0287482D02*
X0390701Y0287482D01*
X0390701Y0288465D02*
X0319149Y0288465D01*
X0308098Y0290430D02*
X0390701Y0290430D01*
X0390701Y0289448D02*
X0307694Y0289448D01*
X0308098Y0291413D02*
X0390701Y0291413D01*
X0390701Y0292396D02*
X0307951Y0292396D01*
X0307544Y0293379D02*
X0390701Y0293379D01*
X0390701Y0294362D02*
X0306654Y0294362D01*
X0303550Y0295344D02*
X0390701Y0295344D01*
X0390701Y0296327D02*
X0302567Y0296327D01*
X0301584Y0297310D02*
X0390701Y0297310D01*
X0390701Y0298293D02*
X0300601Y0298293D01*
X0299619Y0299275D02*
X0390701Y0299275D01*
X0390701Y0300258D02*
X0298636Y0300258D01*
X0297653Y0301241D02*
X0390701Y0301241D01*
X0390701Y0302224D02*
X0296670Y0302224D01*
X0295688Y0303206D02*
X0390701Y0303206D01*
X0390701Y0304189D02*
X0294705Y0304189D01*
X0293472Y0305172D02*
X0390701Y0305172D01*
X0390701Y0306155D02*
X0005984Y0306155D01*
X0005984Y0307137D02*
X0390701Y0307137D01*
X0390701Y0308120D02*
X0005984Y0308120D01*
X0005984Y0309103D02*
X0390701Y0309103D01*
X0390701Y0310086D02*
X0005984Y0310086D01*
X0005984Y0311069D02*
X0390701Y0311069D01*
X0390701Y0312051D02*
X0005984Y0312051D01*
X0005984Y0313034D02*
X0390701Y0313034D01*
X0390701Y0314017D02*
X0005984Y0314017D01*
X0005984Y0315000D02*
X0390701Y0315000D01*
X0333939Y0258982D02*
X0332346Y0258982D01*
X0332346Y0257999D02*
X0334922Y0257999D01*
X0335904Y0257017D02*
X0332346Y0257017D01*
X0332346Y0256034D02*
X0336887Y0256034D01*
X0337512Y0255409D02*
X0332346Y0260575D01*
X0332346Y0255795D01*
X0333227Y0254914D01*
X0333846Y0253419D01*
X0333846Y0251801D01*
X0333227Y0250306D01*
X0332083Y0249162D01*
X0330588Y0248543D01*
X0328971Y0248543D01*
X0327476Y0249162D01*
X0327197Y0249441D01*
X0327197Y0209615D01*
X0326806Y0208672D01*
X0314037Y0195903D01*
X0314387Y0195553D01*
X0315098Y0193838D01*
X0315098Y0191981D01*
X0314387Y0190266D01*
X0313874Y0189752D01*
X0333418Y0170209D01*
X0334324Y0170209D01*
X0334266Y0170266D01*
X0333556Y0171981D01*
X0333556Y0173838D01*
X0334266Y0175553D01*
X0335579Y0176866D01*
X0337295Y0177576D01*
X0341234Y0177576D01*
X0341900Y0178243D01*
X0337295Y0178243D01*
X0335579Y0178953D01*
X0334266Y0180266D01*
X0333556Y0181981D01*
X0333556Y0183838D01*
X0334266Y0185553D01*
X0335579Y0186866D01*
X0337295Y0187576D01*
X0342222Y0187576D01*
X0342888Y0188243D01*
X0337295Y0188243D01*
X0335579Y0188953D01*
X0334266Y0190266D01*
X0333556Y0191981D01*
X0333556Y0193838D01*
X0334266Y0195553D01*
X0335579Y0196866D01*
X0337295Y0197576D01*
X0337512Y0197576D01*
X0337512Y0255409D01*
X0337512Y0255051D02*
X0333090Y0255051D01*
X0333578Y0254068D02*
X0337512Y0254068D01*
X0337512Y0253085D02*
X0333846Y0253085D01*
X0333846Y0252103D02*
X0337512Y0252103D01*
X0337512Y0251120D02*
X0333564Y0251120D01*
X0333058Y0250137D02*
X0337512Y0250137D01*
X0337512Y0249154D02*
X0332064Y0249154D01*
X0327495Y0249154D02*
X0327197Y0249154D01*
X0327197Y0248172D02*
X0337512Y0248172D01*
X0337512Y0247189D02*
X0327197Y0247189D01*
X0327197Y0246206D02*
X0337512Y0246206D01*
X0337512Y0245223D02*
X0327197Y0245223D01*
X0327197Y0244241D02*
X0337512Y0244241D01*
X0337512Y0243258D02*
X0327197Y0243258D01*
X0327197Y0242275D02*
X0337512Y0242275D01*
X0337512Y0241292D02*
X0327197Y0241292D01*
X0327197Y0240310D02*
X0337512Y0240310D01*
X0337512Y0239327D02*
X0327197Y0239327D01*
X0327197Y0238344D02*
X0337512Y0238344D01*
X0337512Y0237361D02*
X0327197Y0237361D01*
X0327197Y0236379D02*
X0337512Y0236379D01*
X0337512Y0235396D02*
X0327197Y0235396D01*
X0327197Y0234413D02*
X0337512Y0234413D01*
X0337512Y0233430D02*
X0327197Y0233430D01*
X0327197Y0232447D02*
X0337512Y0232447D01*
X0337512Y0231465D02*
X0327197Y0231465D01*
X0327197Y0230482D02*
X0337512Y0230482D01*
X0337512Y0229499D02*
X0327197Y0229499D01*
X0327197Y0228516D02*
X0337512Y0228516D01*
X0337512Y0227534D02*
X0327197Y0227534D01*
X0327197Y0226551D02*
X0337512Y0226551D01*
X0337512Y0225568D02*
X0327197Y0225568D01*
X0327197Y0224585D02*
X0337512Y0224585D01*
X0337512Y0223603D02*
X0327197Y0223603D01*
X0327197Y0222620D02*
X0337512Y0222620D01*
X0337512Y0221637D02*
X0327197Y0221637D01*
X0327197Y0220654D02*
X0337512Y0220654D01*
X0337512Y0219672D02*
X0327197Y0219672D01*
X0327197Y0218689D02*
X0337512Y0218689D01*
X0337512Y0217706D02*
X0327197Y0217706D01*
X0327197Y0216723D02*
X0337512Y0216723D01*
X0337512Y0215740D02*
X0327197Y0215740D01*
X0327197Y0214758D02*
X0337512Y0214758D01*
X0337512Y0213775D02*
X0327197Y0213775D01*
X0327197Y0212792D02*
X0337512Y0212792D01*
X0337512Y0211809D02*
X0327197Y0211809D01*
X0327197Y0210827D02*
X0337512Y0210827D01*
X0337512Y0209844D02*
X0327197Y0209844D01*
X0326884Y0208861D02*
X0337512Y0208861D01*
X0337512Y0207878D02*
X0326012Y0207878D01*
X0325030Y0206896D02*
X0337512Y0206896D01*
X0337512Y0205913D02*
X0324047Y0205913D01*
X0323064Y0204930D02*
X0337512Y0204930D01*
X0337512Y0203947D02*
X0322081Y0203947D01*
X0321099Y0202965D02*
X0337512Y0202965D01*
X0337512Y0201982D02*
X0320116Y0201982D01*
X0319133Y0200999D02*
X0337512Y0200999D01*
X0337512Y0200016D02*
X0318150Y0200016D01*
X0317168Y0199034D02*
X0337512Y0199034D01*
X0337512Y0198051D02*
X0316185Y0198051D01*
X0315202Y0197068D02*
X0336067Y0197068D01*
X0334799Y0196085D02*
X0314219Y0196085D01*
X0314574Y0195102D02*
X0334080Y0195102D01*
X0333673Y0194120D02*
X0314981Y0194120D01*
X0315098Y0193137D02*
X0333556Y0193137D01*
X0333556Y0192154D02*
X0315098Y0192154D01*
X0314762Y0191171D02*
X0333891Y0191171D01*
X0334344Y0190189D02*
X0314310Y0190189D01*
X0314420Y0189206D02*
X0335326Y0189206D01*
X0336483Y0187240D02*
X0316386Y0187240D01*
X0317369Y0186258D02*
X0334971Y0186258D01*
X0334151Y0185275D02*
X0318351Y0185275D01*
X0319334Y0184292D02*
X0333744Y0184292D01*
X0333556Y0183309D02*
X0320317Y0183309D01*
X0321300Y0182327D02*
X0333556Y0182327D01*
X0333820Y0181344D02*
X0322282Y0181344D01*
X0323265Y0180361D02*
X0334227Y0180361D01*
X0335154Y0179378D02*
X0324248Y0179378D01*
X0325231Y0178395D02*
X0336925Y0178395D01*
X0336899Y0177413D02*
X0326214Y0177413D01*
X0327196Y0176430D02*
X0335143Y0176430D01*
X0334223Y0175447D02*
X0328179Y0175447D01*
X0329162Y0174464D02*
X0333815Y0174464D01*
X0333556Y0173482D02*
X0330145Y0173482D01*
X0331127Y0172499D02*
X0333556Y0172499D01*
X0333749Y0171516D02*
X0332110Y0171516D01*
X0333093Y0170533D02*
X0334156Y0170533D01*
X0347423Y0175447D02*
X0349404Y0175447D01*
X0350386Y0176430D02*
X0347348Y0176430D01*
X0348330Y0177413D02*
X0351369Y0177413D01*
X0352352Y0178395D02*
X0349313Y0178395D01*
X0350296Y0179378D02*
X0353335Y0179378D01*
X0354317Y0180361D02*
X0351279Y0180361D01*
X0352261Y0181344D02*
X0355300Y0181344D01*
X0356283Y0182327D02*
X0353244Y0182327D01*
X0354001Y0183309D02*
X0357266Y0183309D01*
X0358248Y0184292D02*
X0354232Y0184292D01*
X0354232Y0185275D02*
X0359231Y0185275D01*
X0360214Y0186258D02*
X0354232Y0186258D01*
X0354232Y0187240D02*
X0361197Y0187240D01*
X0362180Y0188223D02*
X0354232Y0188223D01*
X0354232Y0189206D02*
X0363162Y0189206D01*
X0364145Y0190189D02*
X0354232Y0190189D01*
X0354232Y0191171D02*
X0363891Y0191171D01*
X0363556Y0192154D02*
X0354232Y0192154D01*
X0354232Y0193137D02*
X0363556Y0193137D01*
X0363673Y0194120D02*
X0354232Y0194120D01*
X0354232Y0195102D02*
X0364080Y0195102D01*
X0364799Y0196085D02*
X0354232Y0196085D01*
X0354232Y0197068D02*
X0366067Y0197068D01*
X0369440Y0188223D02*
X0390701Y0188223D01*
X0390701Y0167585D02*
X0359101Y0167585D01*
X0358118Y0166602D02*
X0365316Y0166602D01*
X0364333Y0165620D02*
X0357136Y0165620D01*
X0356153Y0164637D02*
X0363887Y0164637D01*
X0363556Y0163654D02*
X0355170Y0163654D01*
X0354187Y0162671D02*
X0363556Y0162671D01*
X0363677Y0161688D02*
X0353204Y0161688D01*
X0352222Y0160706D02*
X0364084Y0160706D01*
X0364809Y0159723D02*
X0351239Y0159723D01*
X0350256Y0158740D02*
X0366093Y0158740D01*
X0366509Y0168568D02*
X0360084Y0168568D01*
X0361067Y0169551D02*
X0364982Y0169551D01*
X0364156Y0170533D02*
X0362049Y0170533D01*
X0363032Y0171516D02*
X0363749Y0171516D01*
X0348421Y0174464D02*
X0347830Y0174464D01*
X0342869Y0188223D02*
X0315403Y0188223D01*
X0308790Y0187576D02*
X0304302Y0187576D01*
X0302587Y0186866D01*
X0301274Y0185553D01*
X0300564Y0183838D01*
X0300564Y0183751D01*
X0281063Y0203252D01*
X0281063Y0204498D01*
X0280444Y0205993D01*
X0279300Y0207137D01*
X0277805Y0207756D01*
X0276187Y0207756D01*
X0274692Y0207137D01*
X0273548Y0205993D01*
X0272929Y0204498D01*
X0272929Y0202880D01*
X0273548Y0201385D01*
X0274692Y0200241D01*
X0276187Y0199622D01*
X0277433Y0199622D01*
X0279478Y0197576D01*
X0276440Y0197576D01*
X0268189Y0205827D01*
X0268189Y0207073D01*
X0267570Y0208568D01*
X0266426Y0209712D01*
X0265250Y0210199D01*
X0294796Y0239744D01*
X0316296Y0239744D01*
X0317177Y0238863D01*
X0318671Y0238244D01*
X0320289Y0238244D01*
X0321784Y0238863D01*
X0322063Y0239142D01*
X0322063Y0211189D01*
X0308450Y0197576D01*
X0304302Y0197576D01*
X0302587Y0196866D01*
X0301274Y0195553D01*
X0300564Y0193838D01*
X0300564Y0191981D01*
X0301274Y0190266D01*
X0302587Y0188953D01*
X0304302Y0188243D01*
X0308123Y0188243D01*
X0308790Y0187576D01*
X0308143Y0188223D02*
X0296092Y0188223D01*
X0297075Y0187240D02*
X0303491Y0187240D01*
X0301979Y0186258D02*
X0298058Y0186258D01*
X0299040Y0185275D02*
X0301159Y0185275D01*
X0300752Y0184292D02*
X0300023Y0184292D01*
X0302334Y0189206D02*
X0295109Y0189206D01*
X0294127Y0190189D02*
X0301351Y0190189D01*
X0300899Y0191171D02*
X0293144Y0191171D01*
X0292161Y0192154D02*
X0300564Y0192154D01*
X0300564Y0193137D02*
X0291178Y0193137D01*
X0290196Y0194120D02*
X0300681Y0194120D01*
X0301088Y0195102D02*
X0289213Y0195102D01*
X0288230Y0196085D02*
X0301806Y0196085D01*
X0303075Y0197068D02*
X0287247Y0197068D01*
X0286264Y0198051D02*
X0308925Y0198051D01*
X0309907Y0199034D02*
X0285282Y0199034D01*
X0284299Y0200016D02*
X0310890Y0200016D01*
X0311873Y0200999D02*
X0283316Y0200999D01*
X0282333Y0201982D02*
X0312856Y0201982D01*
X0313838Y0202965D02*
X0281351Y0202965D01*
X0281063Y0203947D02*
X0314821Y0203947D01*
X0315804Y0204930D02*
X0280884Y0204930D01*
X0280477Y0205913D02*
X0316787Y0205913D01*
X0317769Y0206896D02*
X0279541Y0206896D01*
X0274451Y0206896D02*
X0268189Y0206896D01*
X0268189Y0205913D02*
X0273515Y0205913D01*
X0273108Y0204930D02*
X0269086Y0204930D01*
X0270069Y0203947D02*
X0272929Y0203947D01*
X0272929Y0202965D02*
X0271051Y0202965D01*
X0272034Y0201982D02*
X0273301Y0201982D01*
X0273017Y0200999D02*
X0273934Y0200999D01*
X0274000Y0200016D02*
X0275235Y0200016D01*
X0274982Y0199034D02*
X0278021Y0199034D01*
X0279004Y0198051D02*
X0275965Y0198051D01*
X0267855Y0207878D02*
X0318752Y0207878D01*
X0319735Y0208861D02*
X0267276Y0208861D01*
X0266106Y0209844D02*
X0320718Y0209844D01*
X0321700Y0210827D02*
X0265878Y0210827D01*
X0266861Y0211809D02*
X0322063Y0211809D01*
X0322063Y0212792D02*
X0267844Y0212792D01*
X0268826Y0213775D02*
X0322063Y0213775D01*
X0322063Y0214758D02*
X0269809Y0214758D01*
X0270792Y0215740D02*
X0322063Y0215740D01*
X0322063Y0216723D02*
X0271775Y0216723D01*
X0272757Y0217706D02*
X0322063Y0217706D01*
X0322063Y0218689D02*
X0273740Y0218689D01*
X0274723Y0219672D02*
X0322063Y0219672D01*
X0322063Y0220654D02*
X0275706Y0220654D01*
X0276688Y0221637D02*
X0322063Y0221637D01*
X0322063Y0222620D02*
X0277671Y0222620D01*
X0278654Y0223603D02*
X0322063Y0223603D01*
X0322063Y0224585D02*
X0279637Y0224585D01*
X0280620Y0225568D02*
X0322063Y0225568D01*
X0322063Y0226551D02*
X0281602Y0226551D01*
X0282585Y0227534D02*
X0322063Y0227534D01*
X0322063Y0228516D02*
X0283568Y0228516D01*
X0284551Y0229499D02*
X0322063Y0229499D01*
X0322063Y0230482D02*
X0285533Y0230482D01*
X0286516Y0231465D02*
X0322063Y0231465D01*
X0322063Y0232447D02*
X0287499Y0232447D01*
X0288482Y0233430D02*
X0322063Y0233430D01*
X0322063Y0234413D02*
X0289464Y0234413D01*
X0290447Y0235396D02*
X0322063Y0235396D01*
X0322063Y0236379D02*
X0291430Y0236379D01*
X0292413Y0237361D02*
X0322063Y0237361D01*
X0322063Y0238344D02*
X0320531Y0238344D01*
X0318430Y0238344D02*
X0293395Y0238344D01*
X0294378Y0239327D02*
X0316713Y0239327D01*
X0297663Y0253596D02*
X0297428Y0253499D01*
X0296706Y0252777D01*
X0252760Y0208831D01*
X0202087Y0208831D01*
X0211266Y0218010D01*
X0211753Y0216834D01*
X0212897Y0215690D01*
X0214392Y0215071D01*
X0216010Y0215071D01*
X0217505Y0215690D01*
X0218649Y0216834D01*
X0219268Y0218329D01*
X0219268Y0219575D01*
X0270122Y0270429D01*
X0271368Y0270429D01*
X0272863Y0271048D01*
X0273778Y0271963D01*
X0274692Y0271048D01*
X0276187Y0270429D01*
X0277805Y0270429D01*
X0279300Y0271048D01*
X0280181Y0271929D01*
X0317130Y0271929D01*
X0319089Y0269970D01*
X0317649Y0269374D01*
X0316453Y0268177D01*
X0315257Y0269374D01*
X0313478Y0270110D01*
X0311553Y0270110D01*
X0309775Y0269374D01*
X0308414Y0268012D01*
X0308235Y0267580D01*
X0307894Y0268049D01*
X0307419Y0268524D01*
X0306876Y0268918D01*
X0306278Y0269223D01*
X0305640Y0269430D01*
X0305035Y0269526D01*
X0305035Y0265665D01*
X0304248Y0265665D01*
X0304248Y0269526D01*
X0303643Y0269430D01*
X0303005Y0269223D01*
X0302407Y0268918D01*
X0301864Y0268524D01*
X0301390Y0268049D01*
X0301049Y0267580D01*
X0300870Y0268012D01*
X0299509Y0269374D01*
X0297730Y0270110D01*
X0295805Y0270110D01*
X0294027Y0269374D01*
X0292831Y0268177D01*
X0291635Y0269374D01*
X0289856Y0270110D01*
X0287931Y0270110D01*
X0286153Y0269374D01*
X0284792Y0268012D01*
X0284613Y0267580D01*
X0284272Y0268049D01*
X0283797Y0268524D01*
X0283254Y0268918D01*
X0282656Y0269223D01*
X0282018Y0269430D01*
X0281413Y0269526D01*
X0281413Y0265665D01*
X0280626Y0265665D01*
X0280626Y0269526D01*
X0280021Y0269430D01*
X0279383Y0269223D01*
X0278785Y0268918D01*
X0278242Y0268524D01*
X0277767Y0268049D01*
X0277427Y0267580D01*
X0277248Y0268012D01*
X0275887Y0269374D01*
X0274108Y0270110D01*
X0272183Y0270110D01*
X0270405Y0269374D01*
X0269044Y0268012D01*
X0268307Y0266234D01*
X0268307Y0264309D01*
X0269044Y0262531D01*
X0269913Y0261661D01*
X0269602Y0261661D01*
X0269602Y0257791D01*
X0268815Y0257791D01*
X0268815Y0257004D01*
X0264945Y0257004D01*
X0264945Y0254430D01*
X0265047Y0254050D01*
X0265243Y0253710D01*
X0265521Y0253432D01*
X0265861Y0253236D01*
X0266241Y0253134D01*
X0268815Y0253134D01*
X0268815Y0257004D01*
X0269602Y0257004D01*
X0269602Y0253134D01*
X0272177Y0253134D01*
X0272556Y0253236D01*
X0272896Y0253432D01*
X0273174Y0253710D01*
X0273371Y0254050D01*
X0273417Y0254221D01*
X0274342Y0253296D01*
X0276120Y0252559D01*
X0278045Y0252559D01*
X0279824Y0253296D01*
X0281020Y0254492D01*
X0282216Y0253296D01*
X0283994Y0252559D01*
X0285919Y0252559D01*
X0287698Y0253296D01*
X0289059Y0254657D01*
X0289238Y0255089D01*
X0289578Y0254620D01*
X0290053Y0254145D01*
X0290596Y0253751D01*
X0291194Y0253446D01*
X0291832Y0253239D01*
X0292437Y0253143D01*
X0292437Y0257004D01*
X0293224Y0257004D01*
X0293224Y0253143D01*
X0293829Y0253239D01*
X0294467Y0253446D01*
X0295065Y0253751D01*
X0295608Y0254145D01*
X0296083Y0254620D01*
X0296424Y0255089D01*
X0296603Y0254657D01*
X0297663Y0253596D01*
X0297191Y0254068D02*
X0295502Y0254068D01*
X0296396Y0255051D02*
X0296439Y0255051D01*
X0297014Y0253085D02*
X0287190Y0253085D01*
X0288470Y0254068D02*
X0290159Y0254068D01*
X0289265Y0255051D02*
X0289222Y0255051D01*
X0292437Y0255051D02*
X0293224Y0255051D01*
X0293224Y0254068D02*
X0292437Y0254068D01*
X0292437Y0256034D02*
X0293224Y0256034D01*
X0293224Y0257791D02*
X0292437Y0257791D01*
X0292437Y0261652D01*
X0292057Y0261592D01*
X0292831Y0262366D01*
X0293605Y0261592D01*
X0293224Y0261652D01*
X0293224Y0257791D01*
X0293224Y0257999D02*
X0292437Y0257999D01*
X0292437Y0258982D02*
X0293224Y0258982D01*
X0293224Y0259965D02*
X0292437Y0259965D01*
X0292437Y0260948D02*
X0293224Y0260948D01*
X0293266Y0261930D02*
X0292395Y0261930D01*
X0292198Y0268810D02*
X0293463Y0268810D01*
X0295038Y0269792D02*
X0290623Y0269792D01*
X0287164Y0269792D02*
X0274875Y0269792D01*
X0275352Y0270775D02*
X0272204Y0270775D01*
X0271416Y0269792D02*
X0269486Y0269792D01*
X0269841Y0268810D02*
X0268503Y0268810D01*
X0268967Y0267827D02*
X0267520Y0267827D01*
X0266537Y0266844D02*
X0268560Y0266844D01*
X0268307Y0265861D02*
X0265555Y0265861D01*
X0264572Y0264879D02*
X0268307Y0264879D01*
X0268478Y0263896D02*
X0263589Y0263896D01*
X0262606Y0262913D02*
X0268885Y0262913D01*
X0269644Y0261930D02*
X0261624Y0261930D01*
X0260641Y0260948D02*
X0265163Y0260948D01*
X0265243Y0261085D02*
X0265047Y0260745D01*
X0264945Y0260366D01*
X0264945Y0257791D01*
X0268815Y0257791D01*
X0268815Y0261661D01*
X0266241Y0261661D01*
X0265861Y0261560D01*
X0265521Y0261363D01*
X0265243Y0261085D01*
X0264945Y0259965D02*
X0259658Y0259965D01*
X0258675Y0258982D02*
X0264945Y0258982D01*
X0264945Y0257999D02*
X0257692Y0257999D01*
X0256710Y0257017D02*
X0268815Y0257017D01*
X0268815Y0257999D02*
X0269602Y0257999D01*
X0269602Y0258982D02*
X0268815Y0258982D01*
X0268815Y0259965D02*
X0269602Y0259965D01*
X0269602Y0260948D02*
X0268815Y0260948D01*
X0268815Y0256034D02*
X0269602Y0256034D01*
X0269602Y0255051D02*
X0268815Y0255051D01*
X0268815Y0254068D02*
X0269602Y0254068D01*
X0273376Y0254068D02*
X0273569Y0254068D01*
X0274849Y0253085D02*
X0252779Y0253085D01*
X0251796Y0252103D02*
X0296032Y0252103D01*
X0295049Y0251120D02*
X0250813Y0251120D01*
X0249830Y0250137D02*
X0294066Y0250137D01*
X0293083Y0249154D02*
X0248848Y0249154D01*
X0247865Y0248172D02*
X0292101Y0248172D01*
X0291118Y0247189D02*
X0246882Y0247189D01*
X0245899Y0246206D02*
X0290135Y0246206D01*
X0289152Y0245223D02*
X0244917Y0245223D01*
X0243934Y0244241D02*
X0288169Y0244241D01*
X0287187Y0243258D02*
X0242951Y0243258D01*
X0241968Y0242275D02*
X0286204Y0242275D01*
X0285221Y0241292D02*
X0240985Y0241292D01*
X0240003Y0240310D02*
X0284238Y0240310D01*
X0283256Y0239327D02*
X0239020Y0239327D01*
X0238037Y0238344D02*
X0282273Y0238344D01*
X0281290Y0237361D02*
X0237054Y0237361D01*
X0236072Y0236379D02*
X0280307Y0236379D01*
X0279325Y0235396D02*
X0235089Y0235396D01*
X0234106Y0234413D02*
X0278342Y0234413D01*
X0277359Y0233430D02*
X0233123Y0233430D01*
X0232141Y0232447D02*
X0276376Y0232447D01*
X0275394Y0231465D02*
X0231158Y0231465D01*
X0230175Y0230482D02*
X0274411Y0230482D01*
X0273428Y0229499D02*
X0229192Y0229499D01*
X0228210Y0228516D02*
X0272445Y0228516D01*
X0271463Y0227534D02*
X0227227Y0227534D01*
X0226244Y0226551D02*
X0270480Y0226551D01*
X0269497Y0225568D02*
X0225261Y0225568D01*
X0224279Y0224585D02*
X0268514Y0224585D01*
X0267531Y0223603D02*
X0223296Y0223603D01*
X0222313Y0222620D02*
X0266549Y0222620D01*
X0265566Y0221637D02*
X0221330Y0221637D01*
X0220347Y0220654D02*
X0264583Y0220654D01*
X0263600Y0219672D02*
X0219365Y0219672D01*
X0219268Y0218689D02*
X0262618Y0218689D01*
X0261635Y0217706D02*
X0219010Y0217706D01*
X0218538Y0216723D02*
X0260652Y0216723D01*
X0259669Y0215740D02*
X0217555Y0215740D01*
X0212847Y0215740D02*
X0208997Y0215740D01*
X0208014Y0214758D02*
X0258687Y0214758D01*
X0257704Y0213775D02*
X0207031Y0213775D01*
X0206048Y0212792D02*
X0256721Y0212792D01*
X0255738Y0211809D02*
X0205066Y0211809D01*
X0204083Y0210827D02*
X0254756Y0210827D01*
X0253773Y0209844D02*
X0203100Y0209844D01*
X0202117Y0208861D02*
X0252790Y0208861D01*
X0220409Y0234413D02*
X0201921Y0234413D01*
X0200938Y0233430D02*
X0219426Y0233430D01*
X0218443Y0232447D02*
X0202493Y0232447D01*
X0202056Y0232885D02*
X0203200Y0231741D01*
X0203819Y0230246D01*
X0203819Y0228628D01*
X0203200Y0227133D01*
X0202056Y0225989D01*
X0200561Y0225370D01*
X0199315Y0225370D01*
X0185351Y0211405D01*
X0197401Y0211405D01*
X0267096Y0281100D01*
X0267818Y0281822D01*
X0268761Y0282213D01*
X0290563Y0282213D01*
X0290548Y0282228D01*
X0249736Y0282228D01*
X0200880Y0233372D01*
X0202056Y0232885D01*
X0203314Y0231465D02*
X0217460Y0231465D01*
X0216478Y0230482D02*
X0203721Y0230482D01*
X0203819Y0229499D02*
X0215495Y0229499D01*
X0214512Y0228516D02*
X0203773Y0228516D01*
X0203366Y0227534D02*
X0213529Y0227534D01*
X0212547Y0226551D02*
X0202617Y0226551D01*
X0201039Y0225568D02*
X0211564Y0225568D01*
X0210581Y0224585D02*
X0198530Y0224585D01*
X0197548Y0223603D02*
X0209598Y0223603D01*
X0208616Y0222620D02*
X0196565Y0222620D01*
X0195582Y0221637D02*
X0207633Y0221637D01*
X0206650Y0220654D02*
X0194599Y0220654D01*
X0193617Y0219672D02*
X0205667Y0219672D01*
X0204685Y0218689D02*
X0192634Y0218689D01*
X0191651Y0217706D02*
X0203702Y0217706D01*
X0202719Y0216723D02*
X0190668Y0216723D01*
X0189686Y0215740D02*
X0201736Y0215740D01*
X0200754Y0214758D02*
X0188703Y0214758D01*
X0187720Y0213775D02*
X0199771Y0213775D01*
X0198788Y0212792D02*
X0186737Y0212792D01*
X0185755Y0211809D02*
X0197805Y0211809D01*
X0209979Y0216723D02*
X0211864Y0216723D01*
X0211392Y0217706D02*
X0210962Y0217706D01*
X0194661Y0234413D02*
X0130174Y0234413D01*
X0131157Y0233430D02*
X0193678Y0233430D01*
X0192695Y0232447D02*
X0132139Y0232447D01*
X0133122Y0231465D02*
X0136808Y0231465D01*
X0136940Y0231597D02*
X0135796Y0230453D01*
X0135309Y0229278D01*
X0112028Y0252559D01*
X0112691Y0252559D01*
X0114469Y0253296D01*
X0115665Y0254492D01*
X0116862Y0253296D01*
X0118640Y0252559D01*
X0120216Y0252559D01*
X0123629Y0249147D01*
X0124572Y0248756D01*
X0142249Y0248756D01*
X0142281Y0248743D01*
X0142758Y0248756D01*
X0143235Y0248756D01*
X0143267Y0248769D01*
X0143302Y0248770D01*
X0143738Y0248964D01*
X0144178Y0249147D01*
X0144203Y0249171D01*
X0144235Y0249185D01*
X0144563Y0249532D01*
X0144901Y0249869D01*
X0144914Y0249901D01*
X0180481Y0287378D01*
X0290563Y0287378D01*
X0290548Y0287362D01*
X0248163Y0287362D01*
X0247219Y0286971D01*
X0246497Y0286249D01*
X0190964Y0230717D01*
X0142429Y0230717D01*
X0141548Y0231597D01*
X0140053Y0232217D01*
X0138435Y0232217D01*
X0136940Y0231597D01*
X0135825Y0230482D02*
X0134105Y0230482D01*
X0135088Y0229499D02*
X0135401Y0229499D01*
X0141680Y0231465D02*
X0191712Y0231465D01*
X0195644Y0235396D02*
X0129191Y0235396D01*
X0128208Y0236379D02*
X0196626Y0236379D01*
X0197609Y0237361D02*
X0127226Y0237361D01*
X0126243Y0238344D02*
X0198592Y0238344D01*
X0199575Y0239327D02*
X0125260Y0239327D01*
X0124277Y0240310D02*
X0200557Y0240310D01*
X0201540Y0241292D02*
X0123295Y0241292D01*
X0122312Y0242275D02*
X0202523Y0242275D01*
X0203506Y0243258D02*
X0121329Y0243258D01*
X0120346Y0244241D02*
X0204488Y0244241D01*
X0205471Y0245223D02*
X0119363Y0245223D01*
X0118381Y0246206D02*
X0206454Y0246206D01*
X0207437Y0247189D02*
X0117398Y0247189D01*
X0116415Y0248172D02*
X0208419Y0248172D01*
X0209402Y0249154D02*
X0144186Y0249154D01*
X0145138Y0250137D02*
X0210385Y0250137D01*
X0211368Y0251120D02*
X0146071Y0251120D01*
X0147003Y0252103D02*
X0212350Y0252103D01*
X0213333Y0253085D02*
X0147936Y0253085D01*
X0148869Y0254068D02*
X0214316Y0254068D01*
X0215299Y0255051D02*
X0149801Y0255051D01*
X0150734Y0256034D02*
X0216282Y0256034D01*
X0217264Y0257017D02*
X0151667Y0257017D01*
X0152599Y0257999D02*
X0218247Y0257999D01*
X0219230Y0258982D02*
X0153532Y0258982D01*
X0154465Y0259965D02*
X0220213Y0259965D01*
X0221195Y0260948D02*
X0155397Y0260948D01*
X0156330Y0261930D02*
X0222178Y0261930D01*
X0223161Y0262913D02*
X0157263Y0262913D01*
X0158195Y0263896D02*
X0224144Y0263896D01*
X0225126Y0264879D02*
X0159128Y0264879D01*
X0160061Y0265861D02*
X0226109Y0265861D01*
X0227092Y0266844D02*
X0160994Y0266844D01*
X0161926Y0267827D02*
X0228075Y0267827D01*
X0229057Y0268810D02*
X0162859Y0268810D01*
X0163792Y0269792D02*
X0230040Y0269792D01*
X0231023Y0270775D02*
X0164724Y0270775D01*
X0165657Y0271758D02*
X0232006Y0271758D01*
X0232989Y0272741D02*
X0166590Y0272741D01*
X0167522Y0273724D02*
X0233971Y0273724D01*
X0234954Y0274706D02*
X0168455Y0274706D01*
X0169388Y0275689D02*
X0235937Y0275689D01*
X0236920Y0276672D02*
X0170320Y0276672D01*
X0171253Y0277655D02*
X0237902Y0277655D01*
X0238885Y0278637D02*
X0172186Y0278637D01*
X0173118Y0279620D02*
X0239868Y0279620D01*
X0240851Y0280603D02*
X0174051Y0280603D01*
X0174984Y0281586D02*
X0241833Y0281586D01*
X0242816Y0282568D02*
X0175916Y0282568D01*
X0176849Y0283551D02*
X0243799Y0283551D01*
X0244782Y0284534D02*
X0177782Y0284534D01*
X0178714Y0285517D02*
X0245764Y0285517D01*
X0246747Y0286499D02*
X0179647Y0286499D01*
X0169324Y0295087D02*
X0168381Y0294696D01*
X0167659Y0293974D01*
X0141515Y0267831D01*
X0140523Y0267831D01*
X0140948Y0268255D01*
X0141567Y0269750D01*
X0141567Y0271368D01*
X0140948Y0272863D01*
X0139804Y0274007D01*
X0138309Y0274626D01*
X0136691Y0274626D01*
X0135196Y0274007D01*
X0134308Y0273118D01*
X0120444Y0273118D01*
X0119503Y0272729D01*
X0118783Y0272009D01*
X0116810Y0270035D01*
X0116628Y0270110D01*
X0114703Y0270110D01*
X0112925Y0269374D01*
X0111563Y0268012D01*
X0111384Y0267580D01*
X0111044Y0268049D01*
X0110569Y0268524D01*
X0110026Y0268918D01*
X0109428Y0269223D01*
X0108790Y0269430D01*
X0108279Y0269511D01*
X0133870Y0295102D01*
X0250638Y0295102D01*
X0250654Y0295087D01*
X0169324Y0295087D01*
X0168046Y0294362D02*
X0133130Y0294362D01*
X0132147Y0293379D02*
X0167064Y0293379D01*
X0167659Y0293974D02*
X0167659Y0293974D01*
X0166081Y0292396D02*
X0131164Y0292396D01*
X0130181Y0291413D02*
X0165098Y0291413D01*
X0164115Y0290430D02*
X0129198Y0290430D01*
X0128216Y0289448D02*
X0163133Y0289448D01*
X0162150Y0288465D02*
X0127233Y0288465D01*
X0126250Y0287482D02*
X0161167Y0287482D01*
X0160184Y0286499D02*
X0125267Y0286499D01*
X0124285Y0285517D02*
X0159201Y0285517D01*
X0158219Y0284534D02*
X0123302Y0284534D01*
X0122319Y0283551D02*
X0157236Y0283551D01*
X0156253Y0282568D02*
X0121336Y0282568D01*
X0120354Y0281586D02*
X0155270Y0281586D01*
X0154288Y0280603D02*
X0119371Y0280603D01*
X0118388Y0279620D02*
X0153305Y0279620D01*
X0152322Y0278637D02*
X0117405Y0278637D01*
X0116423Y0277655D02*
X0151339Y0277655D01*
X0150357Y0276672D02*
X0115440Y0276672D01*
X0114457Y0275689D02*
X0149374Y0275689D01*
X0148391Y0274706D02*
X0113474Y0274706D01*
X0112491Y0273724D02*
X0134913Y0273724D01*
X0137500Y0270559D02*
X0120953Y0270559D01*
X0115665Y0265272D01*
X0113936Y0269792D02*
X0108560Y0269792D01*
X0109543Y0270775D02*
X0117550Y0270775D01*
X0118533Y0271758D02*
X0110526Y0271758D01*
X0111509Y0272741D02*
X0119533Y0272741D01*
X0112361Y0268810D02*
X0110176Y0268810D01*
X0111205Y0267827D02*
X0111487Y0267827D01*
X0108185Y0264878D02*
X0108185Y0261017D01*
X0108565Y0261077D01*
X0107791Y0260303D01*
X0107017Y0261077D01*
X0107398Y0261017D01*
X0107398Y0264878D01*
X0108185Y0264878D01*
X0107791Y0265272D02*
X0095980Y0257398D01*
X0084169Y0265272D01*
X0072358Y0257398D01*
X0071965Y0257004D02*
X0072752Y0257004D01*
X0072752Y0253134D01*
X0075326Y0253134D01*
X0075706Y0253236D01*
X0076046Y0253432D01*
X0076324Y0253710D01*
X0076520Y0254050D01*
X0076566Y0254221D01*
X0077491Y0253296D01*
X0079270Y0252559D01*
X0081195Y0252559D01*
X0081477Y0252676D01*
X0085007Y0249147D01*
X0085950Y0248756D01*
X0104708Y0248756D01*
X0130472Y0222992D01*
X0124572Y0222992D01*
X0123629Y0222601D01*
X0122907Y0221879D01*
X0096984Y0195957D01*
X0095007Y0195957D01*
X0094098Y0196866D01*
X0092383Y0197576D01*
X0085326Y0197576D01*
X0083611Y0196866D01*
X0082298Y0195553D01*
X0081587Y0193838D01*
X0081587Y0191981D01*
X0082298Y0190266D01*
X0083611Y0188953D01*
X0085326Y0188243D01*
X0092383Y0188243D01*
X0094098Y0188953D01*
X0095411Y0190266D01*
X0095641Y0190823D01*
X0098287Y0190823D01*
X0094214Y0186750D01*
X0094098Y0186866D01*
X0092383Y0187576D01*
X0085326Y0187576D01*
X0083611Y0186866D01*
X0082298Y0185553D01*
X0081597Y0183860D01*
X0069717Y0195740D01*
X0069717Y0253134D01*
X0071965Y0253134D01*
X0071965Y0257004D01*
X0071965Y0256034D02*
X0072752Y0256034D01*
X0072752Y0255051D02*
X0071965Y0255051D01*
X0071965Y0254068D02*
X0072752Y0254068D01*
X0069717Y0253085D02*
X0077999Y0253085D01*
X0076719Y0254068D02*
X0076525Y0254068D01*
X0082051Y0252103D02*
X0069717Y0252103D01*
X0069717Y0251120D02*
X0083033Y0251120D01*
X0084016Y0250137D02*
X0069717Y0250137D01*
X0069717Y0249154D02*
X0084999Y0249154D01*
X0084169Y0260303D02*
X0083395Y0261077D01*
X0083776Y0261017D01*
X0083776Y0264878D01*
X0084563Y0264878D01*
X0084563Y0261017D01*
X0084943Y0261077D01*
X0084169Y0260303D01*
X0083525Y0260948D02*
X0084813Y0260948D01*
X0084563Y0261930D02*
X0083776Y0261930D01*
X0083776Y0262913D02*
X0084563Y0262913D01*
X0084563Y0263896D02*
X0083776Y0263896D01*
X0083776Y0265665D02*
X0083776Y0269526D01*
X0083171Y0269430D01*
X0082533Y0269223D01*
X0081935Y0268918D01*
X0081392Y0268524D01*
X0080917Y0268049D01*
X0080576Y0267580D01*
X0080397Y0268012D01*
X0079036Y0269374D01*
X0077258Y0270110D01*
X0075406Y0270110D01*
X0105548Y0300252D01*
X0250654Y0300252D01*
X0250638Y0300236D01*
X0133318Y0300236D01*
X0132296Y0300236D01*
X0131353Y0299845D01*
X0101402Y0269894D01*
X0100880Y0270110D01*
X0098955Y0270110D01*
X0097176Y0269374D01*
X0095980Y0268177D01*
X0094784Y0269374D01*
X0093006Y0270110D01*
X0091081Y0270110D01*
X0089302Y0269374D01*
X0087941Y0268012D01*
X0087762Y0267580D01*
X0087422Y0268049D01*
X0086947Y0268524D01*
X0086404Y0268918D01*
X0085806Y0269223D01*
X0085168Y0269430D01*
X0084563Y0269526D01*
X0084563Y0265665D01*
X0083776Y0265665D01*
X0083776Y0265861D02*
X0084563Y0265861D01*
X0084563Y0266844D02*
X0083776Y0266844D01*
X0083776Y0267827D02*
X0084563Y0267827D01*
X0084563Y0268810D02*
X0083776Y0268810D01*
X0081785Y0268810D02*
X0079600Y0268810D01*
X0080474Y0267827D02*
X0080755Y0267827D01*
X0078025Y0269792D02*
X0090314Y0269792D01*
X0088739Y0268810D02*
X0086554Y0268810D01*
X0087583Y0267827D02*
X0087865Y0267827D01*
X0093773Y0269792D02*
X0098188Y0269792D01*
X0096613Y0268810D02*
X0095348Y0268810D01*
X0102283Y0270775D02*
X0076071Y0270775D01*
X0077054Y0271758D02*
X0103266Y0271758D01*
X0104248Y0272741D02*
X0078036Y0272741D01*
X0079019Y0273724D02*
X0105231Y0273724D01*
X0106214Y0274706D02*
X0080002Y0274706D01*
X0080985Y0275689D02*
X0107197Y0275689D01*
X0108179Y0276672D02*
X0081967Y0276672D01*
X0082950Y0277655D02*
X0109162Y0277655D01*
X0110145Y0278637D02*
X0083933Y0278637D01*
X0084916Y0279620D02*
X0111128Y0279620D01*
X0112110Y0280603D02*
X0085898Y0280603D01*
X0086881Y0281586D02*
X0113093Y0281586D01*
X0114076Y0282568D02*
X0087864Y0282568D01*
X0088847Y0283551D02*
X0115059Y0283551D01*
X0116042Y0284534D02*
X0089829Y0284534D01*
X0090812Y0285517D02*
X0117024Y0285517D01*
X0118007Y0286499D02*
X0091795Y0286499D01*
X0092778Y0287482D02*
X0118990Y0287482D01*
X0119973Y0288465D02*
X0093760Y0288465D01*
X0094743Y0289448D02*
X0120955Y0289448D01*
X0121938Y0290430D02*
X0095726Y0290430D01*
X0096709Y0291413D02*
X0122921Y0291413D01*
X0123904Y0292396D02*
X0097692Y0292396D01*
X0098674Y0293379D02*
X0124886Y0293379D01*
X0125869Y0294362D02*
X0099657Y0294362D01*
X0100640Y0295344D02*
X0126852Y0295344D01*
X0127835Y0296327D02*
X0101623Y0296327D01*
X0102605Y0297310D02*
X0128817Y0297310D01*
X0129800Y0298293D02*
X0103588Y0298293D01*
X0104571Y0299275D02*
X0130783Y0299275D01*
X0103457Y0305172D02*
X0005984Y0305172D01*
X0005984Y0304189D02*
X0102224Y0304189D01*
X0101242Y0303206D02*
X0005984Y0303206D01*
X0005984Y0302224D02*
X0100259Y0302224D01*
X0099276Y0301241D02*
X0005984Y0301241D01*
X0005984Y0300258D02*
X0098293Y0300258D01*
X0097311Y0299275D02*
X0005984Y0299275D01*
X0005984Y0298293D02*
X0096328Y0298293D01*
X0095345Y0297310D02*
X0005984Y0297310D01*
X0005984Y0296327D02*
X0094362Y0296327D01*
X0093379Y0295344D02*
X0005984Y0295344D01*
X0005984Y0294362D02*
X0092397Y0294362D01*
X0091414Y0293379D02*
X0005984Y0293379D01*
X0005984Y0292396D02*
X0090431Y0292396D01*
X0089448Y0291413D02*
X0005984Y0291413D01*
X0005984Y0290430D02*
X0088466Y0290430D01*
X0087483Y0289448D02*
X0005984Y0289448D01*
X0005984Y0288465D02*
X0086500Y0288465D01*
X0085517Y0287482D02*
X0005984Y0287482D01*
X0005984Y0286499D02*
X0084535Y0286499D01*
X0083552Y0285517D02*
X0005984Y0285517D01*
X0005984Y0284534D02*
X0082569Y0284534D01*
X0081586Y0283551D02*
X0005984Y0283551D01*
X0005984Y0282568D02*
X0080604Y0282568D01*
X0079621Y0281586D02*
X0005984Y0281586D01*
X0005984Y0280603D02*
X0078638Y0280603D01*
X0077655Y0279620D02*
X0005984Y0279620D01*
X0005984Y0278637D02*
X0076673Y0278637D01*
X0075690Y0277655D02*
X0005984Y0277655D01*
X0005984Y0276672D02*
X0074707Y0276672D01*
X0073724Y0275689D02*
X0005984Y0275689D01*
X0005984Y0274706D02*
X0072741Y0274706D01*
X0071759Y0273724D02*
X0005984Y0273724D01*
X0005984Y0272741D02*
X0070776Y0272741D01*
X0069793Y0271758D02*
X0005984Y0271758D01*
X0005984Y0270775D02*
X0068810Y0270775D01*
X0067828Y0269792D02*
X0005984Y0269792D01*
X0005984Y0268810D02*
X0066845Y0268810D01*
X0065862Y0267827D02*
X0005984Y0267827D01*
X0005984Y0266844D02*
X0064879Y0266844D01*
X0063897Y0265861D02*
X0005984Y0265861D01*
X0005984Y0264879D02*
X0062914Y0264879D01*
X0062160Y0263896D02*
X0005984Y0263896D01*
X0005984Y0262913D02*
X0061925Y0262913D01*
X0061925Y0261930D02*
X0005984Y0261930D01*
X0005984Y0260948D02*
X0061925Y0260948D01*
X0061925Y0259965D02*
X0005984Y0259965D01*
X0005984Y0258982D02*
X0061925Y0258982D01*
X0061925Y0257999D02*
X0005984Y0257999D01*
X0005984Y0257017D02*
X0061925Y0257017D01*
X0061925Y0256034D02*
X0005984Y0256034D01*
X0005984Y0255051D02*
X0061925Y0255051D01*
X0061925Y0254068D02*
X0005984Y0254068D01*
X0005984Y0253085D02*
X0061925Y0253085D01*
X0061925Y0252103D02*
X0005984Y0252103D01*
X0005984Y0251120D02*
X0061925Y0251120D01*
X0061925Y0250137D02*
X0005984Y0250137D01*
X0005984Y0249154D02*
X0061925Y0249154D01*
X0061925Y0248172D02*
X0005984Y0248172D01*
X0005984Y0247189D02*
X0061925Y0247189D01*
X0061925Y0246206D02*
X0005984Y0246206D01*
X0005984Y0245223D02*
X0061925Y0245223D01*
X0061925Y0244241D02*
X0005984Y0244241D01*
X0005984Y0243258D02*
X0061925Y0243258D01*
X0061925Y0242275D02*
X0005984Y0242275D01*
X0005984Y0241292D02*
X0061925Y0241292D01*
X0061925Y0240310D02*
X0005984Y0240310D01*
X0005984Y0239327D02*
X0061925Y0239327D01*
X0061925Y0238344D02*
X0005984Y0238344D01*
X0005984Y0237361D02*
X0061925Y0237361D01*
X0061925Y0236379D02*
X0005984Y0236379D01*
X0005984Y0235396D02*
X0061925Y0235396D01*
X0061925Y0234413D02*
X0005984Y0234413D01*
X0005984Y0233430D02*
X0061925Y0233430D01*
X0061925Y0232447D02*
X0005984Y0232447D01*
X0005984Y0231465D02*
X0061925Y0231465D01*
X0061925Y0230482D02*
X0005984Y0230482D01*
X0005984Y0229499D02*
X0061925Y0229499D01*
X0061925Y0228516D02*
X0005984Y0228516D01*
X0005984Y0227534D02*
X0061925Y0227534D01*
X0061925Y0226551D02*
X0005984Y0226551D01*
X0005984Y0225568D02*
X0061925Y0225568D01*
X0061925Y0224585D02*
X0005984Y0224585D01*
X0005984Y0223603D02*
X0061925Y0223603D01*
X0061925Y0222620D02*
X0005984Y0222620D01*
X0005984Y0221637D02*
X0061925Y0221637D01*
X0061925Y0220654D02*
X0005984Y0220654D01*
X0005984Y0219672D02*
X0061925Y0219672D01*
X0061925Y0218689D02*
X0005984Y0218689D01*
X0005984Y0217706D02*
X0061925Y0217706D01*
X0061925Y0216723D02*
X0005984Y0216723D01*
X0005984Y0215740D02*
X0061925Y0215740D01*
X0061925Y0214758D02*
X0005984Y0214758D01*
X0005984Y0213775D02*
X0061925Y0213775D01*
X0061925Y0212792D02*
X0005984Y0212792D01*
X0005984Y0211809D02*
X0061925Y0211809D01*
X0061925Y0210827D02*
X0005984Y0210827D01*
X0005984Y0209844D02*
X0061925Y0209844D01*
X0061925Y0208861D02*
X0005984Y0208861D01*
X0005984Y0207878D02*
X0061925Y0207878D01*
X0061925Y0206896D02*
X0005984Y0206896D01*
X0005984Y0205913D02*
X0061925Y0205913D01*
X0061925Y0204930D02*
X0005984Y0204930D01*
X0005984Y0203947D02*
X0061925Y0203947D01*
X0061925Y0202965D02*
X0005984Y0202965D01*
X0005984Y0201982D02*
X0061925Y0201982D01*
X0061925Y0200999D02*
X0005984Y0200999D01*
X0005984Y0200016D02*
X0061925Y0200016D01*
X0061925Y0199034D02*
X0005984Y0199034D01*
X0005984Y0198051D02*
X0061925Y0198051D01*
X0061925Y0197068D02*
X0060618Y0197068D01*
X0061886Y0196085D02*
X0061925Y0196085D01*
X0064484Y0190469D02*
X0064484Y0262819D01*
X0064575Y0262909D01*
X0069717Y0248172D02*
X0105293Y0248172D01*
X0106275Y0247189D02*
X0069717Y0247189D01*
X0069717Y0246206D02*
X0107258Y0246206D01*
X0108241Y0245223D02*
X0069717Y0245223D01*
X0069717Y0244241D02*
X0109224Y0244241D01*
X0110206Y0243258D02*
X0069717Y0243258D01*
X0069717Y0242275D02*
X0111189Y0242275D01*
X0112172Y0241292D02*
X0069717Y0241292D01*
X0069717Y0240310D02*
X0113155Y0240310D01*
X0114137Y0239327D02*
X0069717Y0239327D01*
X0069717Y0238344D02*
X0115120Y0238344D01*
X0116103Y0237361D02*
X0069717Y0237361D01*
X0069717Y0236379D02*
X0117086Y0236379D01*
X0118069Y0235396D02*
X0069717Y0235396D01*
X0069717Y0234413D02*
X0119051Y0234413D01*
X0120034Y0233430D02*
X0069717Y0233430D01*
X0069717Y0232447D02*
X0121017Y0232447D01*
X0122000Y0231465D02*
X0069717Y0231465D01*
X0069717Y0230482D02*
X0122982Y0230482D01*
X0123965Y0229499D02*
X0069717Y0229499D01*
X0069717Y0228516D02*
X0124948Y0228516D01*
X0125931Y0227534D02*
X0069717Y0227534D01*
X0069717Y0226551D02*
X0126913Y0226551D01*
X0127896Y0225568D02*
X0069717Y0225568D01*
X0069717Y0224585D02*
X0128879Y0224585D01*
X0129862Y0223603D02*
X0069717Y0223603D01*
X0069717Y0222620D02*
X0123673Y0222620D01*
X0122664Y0221637D02*
X0069717Y0221637D01*
X0069717Y0220654D02*
X0121682Y0220654D01*
X0120699Y0219672D02*
X0069717Y0219672D01*
X0069717Y0218689D02*
X0119716Y0218689D01*
X0118733Y0217706D02*
X0069717Y0217706D01*
X0069717Y0216723D02*
X0117751Y0216723D01*
X0116768Y0215740D02*
X0069717Y0215740D01*
X0069717Y0214758D02*
X0115785Y0214758D01*
X0114802Y0213775D02*
X0069717Y0213775D01*
X0069717Y0212792D02*
X0113819Y0212792D01*
X0112837Y0211809D02*
X0069717Y0211809D01*
X0069717Y0210827D02*
X0111854Y0210827D01*
X0110871Y0209844D02*
X0069717Y0209844D01*
X0069717Y0208861D02*
X0109888Y0208861D01*
X0108906Y0207878D02*
X0069717Y0207878D01*
X0069717Y0206896D02*
X0107923Y0206896D01*
X0106940Y0205913D02*
X0069717Y0205913D01*
X0069717Y0204930D02*
X0105957Y0204930D01*
X0104975Y0203947D02*
X0069717Y0203947D01*
X0069717Y0202965D02*
X0103992Y0202965D01*
X0103009Y0201982D02*
X0069717Y0201982D01*
X0069717Y0200999D02*
X0102026Y0200999D01*
X0101044Y0200016D02*
X0069717Y0200016D01*
X0069717Y0199034D02*
X0100061Y0199034D01*
X0099078Y0198051D02*
X0069717Y0198051D01*
X0069717Y0197068D02*
X0084099Y0197068D01*
X0082830Y0196085D02*
X0069717Y0196085D01*
X0070354Y0195102D02*
X0082111Y0195102D01*
X0081704Y0194120D02*
X0071337Y0194120D01*
X0072320Y0193137D02*
X0081587Y0193137D01*
X0081587Y0192154D02*
X0073303Y0192154D01*
X0074286Y0191171D02*
X0081923Y0191171D01*
X0082375Y0190189D02*
X0075268Y0190189D01*
X0076251Y0189206D02*
X0083358Y0189206D01*
X0084515Y0187240D02*
X0078217Y0187240D01*
X0079199Y0186258D02*
X0083002Y0186258D01*
X0082183Y0185275D02*
X0080182Y0185275D01*
X0081165Y0184292D02*
X0081776Y0184292D01*
X0077234Y0188223D02*
X0095687Y0188223D01*
X0094705Y0187240D02*
X0093194Y0187240D01*
X0094351Y0189206D02*
X0096670Y0189206D01*
X0097653Y0190189D02*
X0095334Y0190189D01*
X0094879Y0196085D02*
X0097113Y0196085D01*
X0098095Y0197068D02*
X0093610Y0197068D01*
X0072358Y0182594D02*
X0064484Y0190469D01*
X0062237Y0189206D02*
X0061359Y0189206D01*
X0063111Y0188223D02*
X0005984Y0188223D01*
X0005984Y0187240D02*
X0021523Y0187240D01*
X0022334Y0187576D02*
X0020619Y0186866D01*
X0019306Y0185553D01*
X0018595Y0183838D01*
X0018595Y0181981D01*
X0019306Y0180266D01*
X0020619Y0178953D01*
X0022334Y0178243D01*
X0029391Y0178243D01*
X0031106Y0178953D01*
X0032419Y0180266D01*
X0033129Y0181981D01*
X0033129Y0183838D01*
X0032419Y0185553D01*
X0031106Y0186866D01*
X0029391Y0187576D01*
X0022334Y0187576D01*
X0022334Y0188243D02*
X0029391Y0188243D01*
X0031106Y0188953D01*
X0032419Y0190266D01*
X0033129Y0191981D01*
X0033129Y0193838D01*
X0032419Y0195553D01*
X0031106Y0196866D01*
X0029391Y0197576D01*
X0022334Y0197576D01*
X0020619Y0196866D01*
X0019306Y0195553D01*
X0018595Y0193838D01*
X0018595Y0191981D01*
X0019306Y0190266D01*
X0020619Y0188953D01*
X0022334Y0188243D01*
X0020366Y0189206D02*
X0005984Y0189206D01*
X0005984Y0190189D02*
X0019383Y0190189D01*
X0018931Y0191171D02*
X0005984Y0191171D01*
X0005984Y0192154D02*
X0018595Y0192154D01*
X0018595Y0193137D02*
X0005984Y0193137D01*
X0005984Y0194120D02*
X0018712Y0194120D01*
X0019119Y0195102D02*
X0005984Y0195102D01*
X0005984Y0196085D02*
X0019838Y0196085D01*
X0021107Y0197068D02*
X0005984Y0197068D01*
X0005984Y0186258D02*
X0020010Y0186258D01*
X0019191Y0185275D02*
X0005984Y0185275D01*
X0005984Y0184292D02*
X0018783Y0184292D01*
X0018595Y0183309D02*
X0005984Y0183309D01*
X0005984Y0182327D02*
X0018595Y0182327D01*
X0018859Y0181344D02*
X0005984Y0181344D01*
X0005984Y0180361D02*
X0019266Y0180361D01*
X0020193Y0179378D02*
X0005984Y0179378D01*
X0005984Y0178395D02*
X0021965Y0178395D01*
X0022334Y0177576D02*
X0020619Y0176866D01*
X0019306Y0175553D01*
X0018595Y0173838D01*
X0018595Y0171981D01*
X0019306Y0170266D01*
X0020619Y0168953D01*
X0022334Y0168243D01*
X0029391Y0168243D01*
X0031106Y0168953D01*
X0032419Y0170266D01*
X0033129Y0171981D01*
X0033129Y0173838D01*
X0032419Y0175553D01*
X0031106Y0176866D01*
X0029391Y0177576D01*
X0022334Y0177576D01*
X0021939Y0177413D02*
X0005984Y0177413D01*
X0005984Y0176430D02*
X0020183Y0176430D01*
X0019262Y0175447D02*
X0005984Y0175447D01*
X0005984Y0174464D02*
X0018855Y0174464D01*
X0018595Y0173482D02*
X0005984Y0173482D01*
X0005984Y0172499D02*
X0018595Y0172499D01*
X0018788Y0171516D02*
X0005984Y0171516D01*
X0005984Y0170533D02*
X0019195Y0170533D01*
X0020021Y0169551D02*
X0005984Y0169551D01*
X0005984Y0168568D02*
X0021548Y0168568D01*
X0022334Y0167576D02*
X0020619Y0166866D01*
X0019306Y0165553D01*
X0018595Y0163838D01*
X0018595Y0161981D01*
X0019306Y0160266D01*
X0020619Y0158953D01*
X0022334Y0158243D01*
X0029391Y0158243D01*
X0031106Y0158953D01*
X0032419Y0160266D01*
X0033129Y0161981D01*
X0033129Y0163838D01*
X0032419Y0165553D01*
X0031106Y0166866D01*
X0029391Y0167576D01*
X0022334Y0167576D01*
X0020355Y0166602D02*
X0005984Y0166602D01*
X0005984Y0165620D02*
X0019372Y0165620D01*
X0018926Y0164637D02*
X0005984Y0164637D01*
X0005984Y0163654D02*
X0018595Y0163654D01*
X0018595Y0162671D02*
X0005984Y0162671D01*
X0005984Y0161688D02*
X0018716Y0161688D01*
X0019124Y0160706D02*
X0005984Y0160706D01*
X0005984Y0159723D02*
X0019849Y0159723D01*
X0021132Y0158740D02*
X0005984Y0158740D01*
X0005984Y0157757D02*
X0036899Y0157757D01*
X0035916Y0156775D02*
X0031197Y0156775D01*
X0030592Y0158740D02*
X0037882Y0158740D01*
X0038864Y0159723D02*
X0031876Y0159723D01*
X0032601Y0160706D02*
X0039847Y0160706D01*
X0040830Y0161688D02*
X0033008Y0161688D01*
X0033129Y0162671D02*
X0041813Y0162671D01*
X0042796Y0163654D02*
X0033129Y0163654D01*
X0032798Y0164637D02*
X0043778Y0164637D01*
X0044761Y0165620D02*
X0032352Y0165620D01*
X0031369Y0166602D02*
X0045744Y0166602D01*
X0046727Y0167585D02*
X0005984Y0167585D01*
X0005984Y0156775D02*
X0020527Y0156775D01*
X0019545Y0155792D02*
X0005984Y0155792D01*
X0005984Y0154809D02*
X0018998Y0154809D01*
X0018595Y0153826D02*
X0005984Y0153826D01*
X0005984Y0152844D02*
X0018595Y0152844D01*
X0018645Y0151861D02*
X0005984Y0151861D01*
X0005984Y0150878D02*
X0019052Y0150878D01*
X0019676Y0149895D02*
X0005984Y0149895D01*
X0005984Y0148913D02*
X0020716Y0148913D01*
X0020815Y0146947D02*
X0005984Y0146947D01*
X0005984Y0145964D02*
X0019717Y0145964D01*
X0019069Y0144982D02*
X0005984Y0144982D01*
X0005984Y0143999D02*
X0018662Y0143999D01*
X0018595Y0143016D02*
X0005984Y0143016D01*
X0005984Y0142033D02*
X0018595Y0142033D01*
X0018981Y0141050D02*
X0005984Y0141050D01*
X0005984Y0140068D02*
X0019504Y0140068D01*
X0020487Y0139085D02*
X0005984Y0139085D01*
X0005984Y0138102D02*
X0060720Y0138102D01*
X0060720Y0137119D02*
X0060494Y0137119D01*
X0060720Y0128275D02*
X0059468Y0128275D01*
X0060720Y0127292D02*
X0005984Y0127292D01*
X0005984Y0128275D02*
X0052257Y0128275D01*
X0050314Y0129257D02*
X0030308Y0129257D01*
X0030033Y0129117D02*
X0030607Y0129410D01*
X0031128Y0129788D01*
X0031583Y0130244D01*
X0031962Y0130765D01*
X0032255Y0131339D01*
X0032454Y0131951D01*
X0032554Y0132587D01*
X0032554Y0132602D01*
X0026170Y0132602D01*
X0026170Y0133217D01*
X0032554Y0133217D01*
X0032554Y0133232D01*
X0032454Y0133868D01*
X0032255Y0134480D01*
X0031962Y0135054D01*
X0031583Y0135575D01*
X0031128Y0136031D01*
X0030607Y0136409D01*
X0030033Y0136702D01*
X0029420Y0136901D01*
X0028784Y0137002D01*
X0026170Y0137002D01*
X0026170Y0133217D01*
X0025554Y0133217D01*
X0025554Y0132602D01*
X0019170Y0132602D01*
X0019170Y0132587D01*
X0019271Y0131951D01*
X0019470Y0131339D01*
X0019762Y0130765D01*
X0020141Y0130244D01*
X0020596Y0129788D01*
X0021117Y0129410D01*
X0021691Y0129117D01*
X0022304Y0128918D01*
X0022940Y0128817D01*
X0025554Y0128817D01*
X0025554Y0132601D01*
X0026170Y0132601D01*
X0026170Y0128817D01*
X0028784Y0128817D01*
X0029420Y0128918D01*
X0030033Y0129117D01*
X0031580Y0130240D02*
X0049332Y0130240D01*
X0048909Y0131223D02*
X0032196Y0131223D01*
X0032494Y0132206D02*
X0048595Y0132206D01*
X0048595Y0133188D02*
X0026170Y0133188D01*
X0025554Y0133188D02*
X0005984Y0133188D01*
X0005984Y0132206D02*
X0019231Y0132206D01*
X0019170Y0133217D02*
X0025554Y0133217D01*
X0025554Y0137002D01*
X0022940Y0137002D01*
X0022304Y0136901D01*
X0021691Y0136702D01*
X0021117Y0136409D01*
X0020596Y0136031D01*
X0020141Y0135575D01*
X0019762Y0135054D01*
X0019470Y0134480D01*
X0019271Y0133868D01*
X0019170Y0133232D01*
X0019170Y0133217D01*
X0019369Y0134171D02*
X0005984Y0134171D01*
X0005984Y0135154D02*
X0019835Y0135154D01*
X0020742Y0136137D02*
X0005984Y0136137D01*
X0005984Y0137119D02*
X0051231Y0137119D01*
X0049889Y0136137D02*
X0030982Y0136137D01*
X0031890Y0135154D02*
X0049140Y0135154D01*
X0048733Y0134171D02*
X0032355Y0134171D01*
X0031238Y0139085D02*
X0050487Y0139085D01*
X0049504Y0140068D02*
X0032220Y0140068D01*
X0032744Y0141050D02*
X0048981Y0141050D01*
X0048595Y0142033D02*
X0033129Y0142033D01*
X0033129Y0143016D02*
X0048595Y0143016D01*
X0048662Y0143999D02*
X0033062Y0143999D01*
X0032655Y0144982D02*
X0049069Y0144982D01*
X0049717Y0145964D02*
X0032007Y0145964D01*
X0030910Y0146947D02*
X0050815Y0146947D01*
X0050716Y0148913D02*
X0031008Y0148913D01*
X0032048Y0149895D02*
X0049676Y0149895D01*
X0049052Y0150878D02*
X0032672Y0150878D01*
X0028520Y0147930D02*
X0060720Y0147930D01*
X0048645Y0151861D02*
X0038263Y0151861D01*
X0039245Y0152844D02*
X0048595Y0152844D01*
X0048595Y0153826D02*
X0040228Y0153826D01*
X0041211Y0154809D02*
X0048998Y0154809D01*
X0049545Y0155792D02*
X0042194Y0155792D01*
X0043177Y0156775D02*
X0050527Y0156775D01*
X0051132Y0158740D02*
X0045142Y0158740D01*
X0044159Y0157757D02*
X0057955Y0157757D01*
X0049849Y0159723D02*
X0046125Y0159723D01*
X0047108Y0160706D02*
X0049124Y0160706D01*
X0048716Y0161688D02*
X0048090Y0161688D01*
X0047709Y0168568D02*
X0030176Y0168568D01*
X0031703Y0169551D02*
X0048692Y0169551D01*
X0049195Y0170533D02*
X0032529Y0170533D01*
X0032937Y0171516D02*
X0048788Y0171516D01*
X0048595Y0172499D02*
X0033129Y0172499D01*
X0033129Y0173482D02*
X0048595Y0173482D01*
X0048855Y0174464D02*
X0032870Y0174464D01*
X0032462Y0175447D02*
X0049262Y0175447D01*
X0050183Y0176430D02*
X0031542Y0176430D01*
X0029786Y0177413D02*
X0051939Y0177413D01*
X0051965Y0178395D02*
X0029760Y0178395D01*
X0031531Y0179378D02*
X0050193Y0179378D01*
X0049266Y0180361D02*
X0032458Y0180361D01*
X0032865Y0181344D02*
X0048859Y0181344D01*
X0048595Y0182327D02*
X0033129Y0182327D01*
X0033129Y0183309D02*
X0048595Y0183309D01*
X0048783Y0184292D02*
X0032941Y0184292D01*
X0032534Y0185275D02*
X0049191Y0185275D01*
X0050010Y0186258D02*
X0031714Y0186258D01*
X0030202Y0187240D02*
X0051523Y0187240D01*
X0050366Y0189206D02*
X0031359Y0189206D01*
X0032341Y0190189D02*
X0049383Y0190189D01*
X0048931Y0191171D02*
X0032794Y0191171D01*
X0033129Y0192154D02*
X0048595Y0192154D01*
X0048595Y0193137D02*
X0033129Y0193137D01*
X0033012Y0194120D02*
X0048712Y0194120D01*
X0049119Y0195102D02*
X0032605Y0195102D01*
X0031886Y0196085D02*
X0049838Y0196085D01*
X0051107Y0197068D02*
X0030618Y0197068D01*
X0060202Y0187240D02*
X0064093Y0187240D01*
X0065076Y0186258D02*
X0061714Y0186258D01*
X0062534Y0185275D02*
X0066059Y0185275D01*
X0067042Y0184292D02*
X0062941Y0184292D01*
X0063129Y0183309D02*
X0068024Y0183309D01*
X0069007Y0182327D02*
X0063129Y0182327D01*
X0062865Y0181344D02*
X0069799Y0181344D01*
X0069799Y0180361D02*
X0062458Y0180361D01*
X0061531Y0179378D02*
X0069799Y0179378D01*
X0069909Y0178395D02*
X0059760Y0178395D01*
X0059786Y0177413D02*
X0070496Y0177413D01*
X0071479Y0176430D02*
X0061542Y0176430D01*
X0062462Y0175447D02*
X0072461Y0175447D01*
X0073444Y0174464D02*
X0062870Y0174464D01*
X0063129Y0173482D02*
X0074427Y0173482D01*
X0075410Y0172499D02*
X0063129Y0172499D01*
X0062937Y0171516D02*
X0076392Y0171516D01*
X0077375Y0170533D02*
X0062739Y0170533D01*
X0063721Y0169551D02*
X0078358Y0169551D01*
X0079341Y0168568D02*
X0064704Y0168568D01*
X0065687Y0167585D02*
X0080323Y0167585D01*
X0081306Y0166602D02*
X0066670Y0166602D01*
X0067652Y0165620D02*
X0082278Y0165620D01*
X0081918Y0164637D02*
X0068635Y0164637D01*
X0069618Y0163654D02*
X0081587Y0163654D01*
X0081587Y0162671D02*
X0070601Y0162671D01*
X0071583Y0161688D02*
X0081709Y0161688D01*
X0082116Y0160706D02*
X0072566Y0160706D01*
X0073549Y0159723D02*
X0082841Y0159723D01*
X0084124Y0158740D02*
X0074532Y0158740D01*
X0075514Y0157757D02*
X0100439Y0157757D01*
X0101422Y0156775D02*
X0094189Y0156775D01*
X0095172Y0155792D02*
X0102405Y0155792D01*
X0103387Y0154809D02*
X0095719Y0154809D01*
X0096121Y0153826D02*
X0104370Y0153826D01*
X0105353Y0152844D02*
X0096121Y0152844D01*
X0096071Y0151861D02*
X0106336Y0151861D01*
X0108022Y0149895D02*
X0095040Y0149895D01*
X0095664Y0150878D02*
X0109552Y0150878D01*
X0107294Y0148913D02*
X0094000Y0148913D01*
X0093902Y0146947D02*
X0106854Y0146947D01*
X0106886Y0147930D02*
X0091602Y0147930D01*
X0095000Y0145964D02*
X0106212Y0145964D01*
X0105229Y0144982D02*
X0095647Y0144982D01*
X0096055Y0143999D02*
X0104247Y0143999D01*
X0103264Y0143016D02*
X0096121Y0143016D01*
X0096121Y0142033D02*
X0102281Y0142033D01*
X0101298Y0141050D02*
X0095736Y0141050D01*
X0095213Y0140068D02*
X0100315Y0140068D01*
X0099333Y0139085D02*
X0094230Y0139085D01*
X0093974Y0136137D02*
X0096384Y0136137D01*
X0095402Y0135154D02*
X0094882Y0135154D01*
X0097367Y0137119D02*
X0086604Y0137119D01*
X0087587Y0138102D02*
X0098350Y0138102D01*
X0089162Y0136137D02*
X0088546Y0136137D01*
X0088546Y0135154D02*
X0089162Y0135154D01*
X0089162Y0134171D02*
X0088546Y0134171D01*
X0088546Y0133188D02*
X0082673Y0133188D01*
X0082223Y0132206D02*
X0081690Y0132206D01*
X0082521Y0131223D02*
X0080707Y0131223D01*
X0079725Y0130240D02*
X0083137Y0130240D01*
X0084408Y0129257D02*
X0078742Y0129257D01*
X0077759Y0128275D02*
X0089810Y0128275D01*
X0089162Y0129257D02*
X0088546Y0129257D01*
X0088546Y0130240D02*
X0089162Y0130240D01*
X0089162Y0131223D02*
X0088546Y0131223D01*
X0088546Y0132206D02*
X0089162Y0132206D01*
X0088827Y0127292D02*
X0076776Y0127292D01*
X0075794Y0126309D02*
X0087844Y0126309D01*
X0086861Y0125326D02*
X0074811Y0125326D01*
X0073828Y0124343D02*
X0080729Y0124343D01*
X0079746Y0123361D02*
X0072845Y0123361D01*
X0071862Y0122378D02*
X0078764Y0122378D01*
X0077781Y0121395D02*
X0071004Y0121395D01*
X0071004Y0120412D02*
X0076798Y0120412D01*
X0075815Y0119430D02*
X0071004Y0119430D01*
X0071004Y0118447D02*
X0074832Y0118447D01*
X0073850Y0117464D02*
X0071583Y0117464D01*
X0072167Y0116481D02*
X0072867Y0116481D01*
X0060720Y0116481D02*
X0005984Y0116481D01*
X0005984Y0115499D02*
X0060720Y0115499D01*
X0060720Y0114516D02*
X0005984Y0114516D01*
X0005984Y0113533D02*
X0060720Y0113533D01*
X0060720Y0112550D02*
X0005984Y0112550D01*
X0005984Y0111568D02*
X0060720Y0111568D01*
X0060720Y0110585D02*
X0005984Y0110585D01*
X0005984Y0109602D02*
X0060720Y0109602D01*
X0060720Y0108619D02*
X0005984Y0108619D01*
X0005984Y0107637D02*
X0060160Y0107637D01*
X0059177Y0106654D02*
X0005984Y0106654D01*
X0005984Y0105671D02*
X0058395Y0105671D01*
X0058146Y0104688D02*
X0005984Y0104688D01*
X0005984Y0103705D02*
X0058146Y0103705D01*
X0058146Y0102723D02*
X0005984Y0102723D01*
X0005984Y0101740D02*
X0058146Y0101740D01*
X0058146Y0100757D02*
X0005984Y0100757D01*
X0005984Y0099774D02*
X0058146Y0099774D01*
X0058146Y0098792D02*
X0005984Y0098792D01*
X0005984Y0097809D02*
X0058146Y0097809D01*
X0058146Y0096826D02*
X0005984Y0096826D01*
X0005984Y0095843D02*
X0058146Y0095843D01*
X0058146Y0094861D02*
X0005984Y0094861D01*
X0005984Y0093878D02*
X0058146Y0093878D01*
X0058146Y0092895D02*
X0005984Y0092895D01*
X0005984Y0091912D02*
X0058146Y0091912D01*
X0058146Y0090930D02*
X0005984Y0090930D01*
X0005984Y0089947D02*
X0058146Y0089947D01*
X0058146Y0088964D02*
X0005984Y0088964D01*
X0005984Y0087981D02*
X0058146Y0087981D01*
X0058146Y0086998D02*
X0005984Y0086998D01*
X0005984Y0086016D02*
X0058146Y0086016D01*
X0058146Y0085033D02*
X0005984Y0085033D01*
X0005984Y0084050D02*
X0058146Y0084050D01*
X0058146Y0083067D02*
X0005984Y0083067D01*
X0005984Y0082085D02*
X0058146Y0082085D01*
X0058146Y0081102D02*
X0005984Y0081102D01*
X0005984Y0080119D02*
X0058146Y0080119D01*
X0058146Y0079136D02*
X0005984Y0079136D01*
X0005984Y0078154D02*
X0058146Y0078154D01*
X0058146Y0077171D02*
X0005984Y0077171D01*
X0005984Y0076188D02*
X0058146Y0076188D01*
X0058146Y0075205D02*
X0005984Y0075205D01*
X0005984Y0074223D02*
X0058146Y0074223D01*
X0058146Y0073240D02*
X0005984Y0073240D01*
X0005984Y0072257D02*
X0058146Y0072257D01*
X0058146Y0071274D02*
X0005984Y0071274D01*
X0005984Y0070292D02*
X0058146Y0070292D01*
X0058146Y0069309D02*
X0005984Y0069309D01*
X0005984Y0068326D02*
X0058146Y0068326D01*
X0058146Y0067343D02*
X0005984Y0067343D01*
X0005984Y0066360D02*
X0058146Y0066360D01*
X0058166Y0065378D02*
X0005984Y0065378D01*
X0005984Y0064395D02*
X0058624Y0064395D01*
X0059607Y0063412D02*
X0005984Y0063412D01*
X0005984Y0062429D02*
X0060590Y0062429D01*
X0061573Y0061447D02*
X0005984Y0061447D01*
X0005984Y0060464D02*
X0062556Y0060464D01*
X0063538Y0059481D02*
X0005984Y0059481D01*
X0005984Y0058498D02*
X0064521Y0058498D01*
X0065504Y0057516D02*
X0005984Y0057516D01*
X0005984Y0056533D02*
X0066487Y0056533D01*
X0067469Y0055550D02*
X0005984Y0055550D01*
X0005984Y0054567D02*
X0068452Y0054567D01*
X0067901Y0053585D02*
X0005984Y0053585D01*
X0005984Y0052602D02*
X0066616Y0052602D01*
X0065994Y0051619D02*
X0005984Y0051619D01*
X0005984Y0050636D02*
X0065691Y0050636D01*
X0065628Y0049653D02*
X0005984Y0049653D01*
X0005984Y0048671D02*
X0065628Y0048671D01*
X0065628Y0047688D02*
X0005984Y0047688D01*
X0005984Y0046705D02*
X0065628Y0046705D01*
X0065628Y0047011D02*
X0065628Y0044397D01*
X0065729Y0043761D01*
X0065928Y0043148D01*
X0066221Y0042574D01*
X0066599Y0042053D01*
X0067055Y0041598D01*
X0067576Y0041219D01*
X0068150Y0040927D01*
X0068762Y0040728D01*
X0069398Y0040627D01*
X0069413Y0040627D01*
X0069413Y0047011D01*
X0065628Y0047011D01*
X0065628Y0045722D02*
X0005984Y0045722D01*
X0005984Y0044740D02*
X0065628Y0044740D01*
X0065730Y0043757D02*
X0005984Y0043757D01*
X0005984Y0042774D02*
X0066119Y0042774D01*
X0066861Y0041791D02*
X0005984Y0041791D01*
X0005984Y0040809D02*
X0068513Y0040809D01*
X0069413Y0040809D02*
X0070028Y0040809D01*
X0070928Y0040809D02*
X0073199Y0040809D01*
X0073420Y0040588D02*
X0073420Y0040588D01*
X0074182Y0039826D02*
X0005984Y0039826D01*
X0005984Y0038843D02*
X0075165Y0038843D01*
X0076147Y0037860D02*
X0005984Y0037860D01*
X0005984Y0036878D02*
X0077130Y0036878D01*
X0078113Y0035895D02*
X0005984Y0035895D01*
X0005984Y0034912D02*
X0079096Y0034912D01*
X0080078Y0033929D02*
X0005984Y0033929D01*
X0005984Y0032947D02*
X0081061Y0032947D01*
X0082044Y0031964D02*
X0005984Y0031964D01*
X0005984Y0030981D02*
X0083027Y0030981D01*
X0084009Y0029998D02*
X0005984Y0029998D01*
X0005984Y0029015D02*
X0084992Y0029015D01*
X0085975Y0028033D02*
X0005984Y0028033D01*
X0005984Y0027050D02*
X0086958Y0027050D01*
X0087940Y0026067D02*
X0005984Y0026067D01*
X0005984Y0025084D02*
X0088923Y0025084D01*
X0089906Y0024102D02*
X0005984Y0024102D01*
X0005984Y0023119D02*
X0090889Y0023119D01*
X0091872Y0022136D02*
X0005984Y0022136D01*
X0005984Y0021153D02*
X0092854Y0021153D01*
X0093837Y0020171D02*
X0005984Y0020171D01*
X0005984Y0019188D02*
X0094820Y0019188D01*
X0095803Y0018205D02*
X0005984Y0018205D01*
X0005984Y0017222D02*
X0096785Y0017222D01*
X0097768Y0016240D02*
X0005984Y0016240D01*
X0005984Y0015257D02*
X0098751Y0015257D01*
X0101685Y0019583D02*
X0171669Y0019583D01*
X0138181Y0053071D01*
X0113169Y0053071D01*
X0113677Y0052562D01*
X0114387Y0050847D01*
X0114387Y0043791D01*
X0113677Y0042075D01*
X0112364Y0040762D01*
X0110649Y0040052D01*
X0108792Y0040052D01*
X0107077Y0040762D01*
X0105764Y0042075D01*
X0105054Y0043791D01*
X0105054Y0050847D01*
X0105764Y0052562D01*
X0106272Y0053071D01*
X0103169Y0053071D01*
X0103677Y0052562D01*
X0104387Y0050847D01*
X0104387Y0043791D01*
X0103677Y0042075D01*
X0102364Y0040762D01*
X0100649Y0040052D01*
X0098792Y0040052D01*
X0097077Y0040762D01*
X0095764Y0042075D01*
X0095054Y0043791D01*
X0095054Y0050847D01*
X0095764Y0052562D01*
X0096272Y0053071D01*
X0093169Y0053071D01*
X0093677Y0052562D01*
X0094387Y0050847D01*
X0094387Y0043791D01*
X0093677Y0042075D01*
X0092364Y0040762D01*
X0090649Y0040052D01*
X0088792Y0040052D01*
X0087077Y0040762D01*
X0085764Y0042075D01*
X0085054Y0043791D01*
X0085054Y0050847D01*
X0085764Y0052562D01*
X0086272Y0053071D01*
X0082344Y0053071D01*
X0082386Y0053040D01*
X0082842Y0052585D01*
X0083220Y0052064D01*
X0083513Y0051490D01*
X0083712Y0050877D01*
X0083813Y0050241D01*
X0083813Y0047627D01*
X0080028Y0047627D01*
X0080028Y0047011D01*
X0083813Y0047011D01*
X0083813Y0044397D01*
X0083712Y0043761D01*
X0083513Y0043148D01*
X0083220Y0042574D01*
X0082842Y0042053D01*
X0082386Y0041598D01*
X0081865Y0041219D01*
X0081291Y0040927D01*
X0080679Y0040728D01*
X0080559Y0040709D01*
X0101685Y0019583D01*
X0101097Y0020171D02*
X0171081Y0020171D01*
X0170098Y0021153D02*
X0100115Y0021153D01*
X0099132Y0022136D02*
X0169116Y0022136D01*
X0168133Y0023119D02*
X0098149Y0023119D01*
X0097166Y0024102D02*
X0167150Y0024102D01*
X0166167Y0025084D02*
X0096184Y0025084D01*
X0095201Y0026067D02*
X0165185Y0026067D01*
X0164202Y0027050D02*
X0094218Y0027050D01*
X0093235Y0028033D02*
X0163219Y0028033D01*
X0162236Y0029015D02*
X0092252Y0029015D01*
X0091270Y0029998D02*
X0161253Y0029998D01*
X0160271Y0030981D02*
X0090287Y0030981D01*
X0089304Y0031964D02*
X0159288Y0031964D01*
X0158305Y0032947D02*
X0088321Y0032947D01*
X0087339Y0033929D02*
X0157322Y0033929D01*
X0156340Y0034912D02*
X0086356Y0034912D01*
X0085373Y0035895D02*
X0155357Y0035895D01*
X0154374Y0036878D02*
X0084390Y0036878D01*
X0083408Y0037860D02*
X0153391Y0037860D01*
X0152409Y0038843D02*
X0082425Y0038843D01*
X0081442Y0039826D02*
X0151426Y0039826D01*
X0150443Y0040809D02*
X0112410Y0040809D01*
X0113393Y0041791D02*
X0149460Y0041791D01*
X0148478Y0042774D02*
X0113966Y0042774D01*
X0114373Y0043757D02*
X0147495Y0043757D01*
X0146512Y0044740D02*
X0114387Y0044740D01*
X0114387Y0045722D02*
X0145529Y0045722D01*
X0144547Y0046705D02*
X0114387Y0046705D01*
X0114387Y0047688D02*
X0143564Y0047688D01*
X0142581Y0048671D02*
X0114387Y0048671D01*
X0114387Y0049653D02*
X0141598Y0049653D01*
X0140615Y0050636D02*
X0114387Y0050636D01*
X0114068Y0051619D02*
X0139633Y0051619D01*
X0138650Y0052602D02*
X0113638Y0052602D01*
X0105803Y0052602D02*
X0103638Y0052602D01*
X0104068Y0051619D02*
X0105373Y0051619D01*
X0105054Y0050636D02*
X0104387Y0050636D01*
X0104387Y0049653D02*
X0105054Y0049653D01*
X0105054Y0048671D02*
X0104387Y0048671D01*
X0104387Y0047688D02*
X0105054Y0047688D01*
X0105054Y0046705D02*
X0104387Y0046705D01*
X0104387Y0045722D02*
X0105054Y0045722D01*
X0105054Y0044740D02*
X0104387Y0044740D01*
X0104373Y0043757D02*
X0105067Y0043757D01*
X0105475Y0042774D02*
X0103966Y0042774D01*
X0103393Y0041791D02*
X0106048Y0041791D01*
X0107031Y0040809D02*
X0102410Y0040809D01*
X0097031Y0040809D02*
X0092410Y0040809D01*
X0093393Y0041791D02*
X0096048Y0041791D01*
X0095475Y0042774D02*
X0093966Y0042774D01*
X0094373Y0043757D02*
X0095067Y0043757D01*
X0095054Y0044740D02*
X0094387Y0044740D01*
X0094387Y0045722D02*
X0095054Y0045722D01*
X0095054Y0046705D02*
X0094387Y0046705D01*
X0094387Y0047688D02*
X0095054Y0047688D01*
X0095054Y0048671D02*
X0094387Y0048671D01*
X0094387Y0049653D02*
X0095054Y0049653D01*
X0095054Y0050636D02*
X0094387Y0050636D01*
X0094068Y0051619D02*
X0095373Y0051619D01*
X0095803Y0052602D02*
X0093638Y0052602D01*
X0085803Y0052602D02*
X0082825Y0052602D01*
X0083447Y0051619D02*
X0085373Y0051619D01*
X0085054Y0050636D02*
X0083750Y0050636D01*
X0083813Y0049653D02*
X0085054Y0049653D01*
X0085054Y0048671D02*
X0083813Y0048671D01*
X0083813Y0047688D02*
X0085054Y0047688D01*
X0085054Y0046705D02*
X0083813Y0046705D01*
X0083813Y0045722D02*
X0085054Y0045722D01*
X0085054Y0044740D02*
X0083813Y0044740D01*
X0083711Y0043757D02*
X0085067Y0043757D01*
X0085475Y0042774D02*
X0083322Y0042774D01*
X0082580Y0041791D02*
X0086048Y0041791D01*
X0087031Y0040809D02*
X0080928Y0040809D01*
X0070028Y0041791D02*
X0069413Y0041791D01*
X0069413Y0042774D02*
X0070028Y0042774D01*
X0070028Y0043757D02*
X0069413Y0043757D01*
X0069413Y0044740D02*
X0070028Y0044740D01*
X0070028Y0045722D02*
X0069413Y0045722D01*
X0069413Y0046705D02*
X0070028Y0046705D01*
X0082081Y0058498D02*
X0136616Y0058498D01*
X0136909Y0058205D02*
X0082374Y0058205D01*
X0070527Y0070052D01*
X0070649Y0070052D01*
X0072364Y0070762D01*
X0073677Y0072075D01*
X0074387Y0073791D01*
X0074387Y0080847D01*
X0073677Y0082562D01*
X0072364Y0083875D01*
X0071004Y0084439D01*
X0071004Y0089583D01*
X0071246Y0089583D01*
X0072457Y0090793D01*
X0072457Y0095655D01*
X0072132Y0095980D01*
X0072457Y0096305D01*
X0072457Y0096843D01*
X0076197Y0096843D01*
X0076197Y0096305D01*
X0076522Y0095980D01*
X0076197Y0095655D01*
X0076197Y0090793D01*
X0077408Y0089583D01*
X0077457Y0089583D01*
X0077457Y0084033D01*
X0077077Y0083875D01*
X0075764Y0082562D01*
X0075054Y0080847D01*
X0075054Y0073791D01*
X0075764Y0072075D01*
X0077077Y0070762D01*
X0078792Y0070052D01*
X0080649Y0070052D01*
X0082364Y0070762D01*
X0083677Y0072075D01*
X0084387Y0073791D01*
X0084387Y0080847D01*
X0083677Y0082562D01*
X0082591Y0083649D01*
X0082591Y0089583D01*
X0083057Y0089583D01*
X0084268Y0090793D01*
X0084268Y0092299D01*
X0112375Y0120407D01*
X0113097Y0121129D01*
X0113488Y0122072D01*
X0113488Y0129076D01*
X0113611Y0128953D01*
X0115326Y0128243D01*
X0117366Y0128243D01*
X0117366Y0078300D01*
X0117757Y0077357D01*
X0136909Y0058205D01*
X0135633Y0059481D02*
X0081098Y0059481D01*
X0080115Y0060464D02*
X0134650Y0060464D01*
X0133667Y0061447D02*
X0079132Y0061447D01*
X0078150Y0062429D02*
X0132684Y0062429D01*
X0131702Y0063412D02*
X0077167Y0063412D01*
X0076184Y0064395D02*
X0130719Y0064395D01*
X0129736Y0065378D02*
X0075201Y0065378D01*
X0074219Y0066360D02*
X0128753Y0066360D01*
X0127771Y0067343D02*
X0073236Y0067343D01*
X0072253Y0068326D02*
X0126788Y0068326D01*
X0125805Y0069309D02*
X0071270Y0069309D01*
X0071227Y0070292D02*
X0078214Y0070292D01*
X0076565Y0071274D02*
X0072876Y0071274D01*
X0073752Y0072257D02*
X0075689Y0072257D01*
X0075282Y0073240D02*
X0074159Y0073240D01*
X0074387Y0074223D02*
X0075054Y0074223D01*
X0075054Y0075205D02*
X0074387Y0075205D01*
X0074387Y0076188D02*
X0075054Y0076188D01*
X0075054Y0077171D02*
X0074387Y0077171D01*
X0074387Y0078154D02*
X0075054Y0078154D01*
X0075054Y0079136D02*
X0074387Y0079136D01*
X0074387Y0080119D02*
X0075054Y0080119D01*
X0075159Y0081102D02*
X0074282Y0081102D01*
X0073875Y0082085D02*
X0075566Y0082085D01*
X0076269Y0083067D02*
X0073172Y0083067D01*
X0071942Y0084050D02*
X0077457Y0084050D01*
X0077457Y0085033D02*
X0071004Y0085033D01*
X0071004Y0086016D02*
X0077457Y0086016D01*
X0077457Y0086998D02*
X0071004Y0086998D01*
X0071004Y0087981D02*
X0077457Y0087981D01*
X0077457Y0088964D02*
X0071004Y0088964D01*
X0071610Y0089947D02*
X0077044Y0089947D01*
X0076197Y0090930D02*
X0072457Y0090930D01*
X0072457Y0091912D02*
X0076197Y0091912D01*
X0076197Y0092895D02*
X0072457Y0092895D01*
X0072457Y0093878D02*
X0076197Y0093878D01*
X0076197Y0094861D02*
X0072457Y0094861D01*
X0072269Y0095843D02*
X0076385Y0095843D01*
X0076197Y0096826D02*
X0072457Y0096826D01*
X0084268Y0091912D02*
X0117366Y0091912D01*
X0117366Y0090930D02*
X0084268Y0090930D01*
X0083421Y0089947D02*
X0117366Y0089947D01*
X0117366Y0088964D02*
X0082591Y0088964D01*
X0082591Y0087981D02*
X0117366Y0087981D01*
X0117366Y0086998D02*
X0082591Y0086998D01*
X0082591Y0086016D02*
X0117366Y0086016D01*
X0117366Y0085033D02*
X0082591Y0085033D01*
X0082591Y0084050D02*
X0087499Y0084050D01*
X0087077Y0083875D02*
X0088792Y0084586D01*
X0090649Y0084586D01*
X0092364Y0083875D01*
X0093677Y0082562D01*
X0094387Y0080847D01*
X0094387Y0073791D01*
X0093677Y0072075D01*
X0092364Y0070762D01*
X0090649Y0070052D01*
X0088792Y0070052D01*
X0087077Y0070762D01*
X0085764Y0072075D01*
X0085054Y0073791D01*
X0085054Y0080847D01*
X0085764Y0082562D01*
X0087077Y0083875D01*
X0086269Y0083067D02*
X0083172Y0083067D01*
X0083875Y0082085D02*
X0085566Y0082085D01*
X0085159Y0081102D02*
X0084282Y0081102D01*
X0084387Y0080119D02*
X0085054Y0080119D01*
X0085054Y0079136D02*
X0084387Y0079136D01*
X0084387Y0078154D02*
X0085054Y0078154D01*
X0085054Y0077171D02*
X0084387Y0077171D01*
X0084387Y0076188D02*
X0085054Y0076188D01*
X0085054Y0075205D02*
X0084387Y0075205D01*
X0084387Y0074223D02*
X0085054Y0074223D01*
X0085282Y0073240D02*
X0084159Y0073240D01*
X0083752Y0072257D02*
X0085689Y0072257D01*
X0086565Y0071274D02*
X0082876Y0071274D01*
X0081227Y0070292D02*
X0088214Y0070292D01*
X0091227Y0070292D02*
X0098214Y0070292D01*
X0098792Y0070052D02*
X0100649Y0070052D01*
X0102364Y0070762D01*
X0103677Y0072075D01*
X0104387Y0073791D01*
X0104387Y0080847D01*
X0103677Y0082562D01*
X0102364Y0083875D01*
X0100649Y0084586D01*
X0098792Y0084586D01*
X0097077Y0083875D01*
X0095764Y0082562D01*
X0095054Y0080847D01*
X0095054Y0073791D01*
X0095764Y0072075D01*
X0097077Y0070762D01*
X0098792Y0070052D01*
X0101227Y0070292D02*
X0108214Y0070292D01*
X0108792Y0070052D02*
X0110649Y0070052D01*
X0112364Y0070762D01*
X0113677Y0072075D01*
X0114387Y0073791D01*
X0114387Y0080847D01*
X0113677Y0082562D01*
X0112364Y0083875D01*
X0110649Y0084586D01*
X0108792Y0084586D01*
X0107077Y0083875D01*
X0105764Y0082562D01*
X0105054Y0080847D01*
X0105054Y0073791D01*
X0105764Y0072075D01*
X0107077Y0070762D01*
X0108792Y0070052D01*
X0111227Y0070292D02*
X0124822Y0070292D01*
X0123840Y0071274D02*
X0112876Y0071274D01*
X0113752Y0072257D02*
X0122857Y0072257D01*
X0121874Y0073240D02*
X0114159Y0073240D01*
X0114387Y0074223D02*
X0120891Y0074223D01*
X0119909Y0075205D02*
X0114387Y0075205D01*
X0114387Y0076188D02*
X0118926Y0076188D01*
X0117943Y0077171D02*
X0114387Y0077171D01*
X0114387Y0078154D02*
X0117427Y0078154D01*
X0117366Y0079136D02*
X0114387Y0079136D01*
X0114387Y0080119D02*
X0117366Y0080119D01*
X0117366Y0081102D02*
X0114282Y0081102D01*
X0113875Y0082085D02*
X0117366Y0082085D01*
X0117366Y0083067D02*
X0113172Y0083067D01*
X0111942Y0084050D02*
X0117366Y0084050D01*
X0117366Y0092895D02*
X0084864Y0092895D01*
X0085847Y0093878D02*
X0117366Y0093878D01*
X0117366Y0094861D02*
X0086829Y0094861D01*
X0087812Y0095843D02*
X0117366Y0095843D01*
X0117366Y0096826D02*
X0088795Y0096826D01*
X0089778Y0097809D02*
X0117366Y0097809D01*
X0117366Y0098792D02*
X0090760Y0098792D01*
X0091743Y0099774D02*
X0117366Y0099774D01*
X0117366Y0100757D02*
X0092726Y0100757D01*
X0093709Y0101740D02*
X0117366Y0101740D01*
X0117366Y0102723D02*
X0094691Y0102723D01*
X0095674Y0103705D02*
X0117366Y0103705D01*
X0117366Y0104688D02*
X0096657Y0104688D01*
X0097640Y0105671D02*
X0117366Y0105671D01*
X0117366Y0106654D02*
X0098623Y0106654D01*
X0099605Y0107637D02*
X0117366Y0107637D01*
X0117366Y0108619D02*
X0100588Y0108619D01*
X0101571Y0109602D02*
X0117366Y0109602D01*
X0117366Y0110585D02*
X0102554Y0110585D01*
X0103536Y0111568D02*
X0117366Y0111568D01*
X0117366Y0112550D02*
X0104519Y0112550D01*
X0105502Y0113533D02*
X0117366Y0113533D01*
X0117366Y0114516D02*
X0106485Y0114516D01*
X0107467Y0115499D02*
X0117366Y0115499D01*
X0117366Y0116481D02*
X0108450Y0116481D01*
X0109433Y0117464D02*
X0117366Y0117464D01*
X0117366Y0118447D02*
X0110416Y0118447D01*
X0111398Y0119430D02*
X0117366Y0119430D01*
X0117366Y0120412D02*
X0112381Y0120412D01*
X0113208Y0121395D02*
X0117366Y0121395D01*
X0117366Y0122378D02*
X0113488Y0122378D01*
X0113488Y0123361D02*
X0117366Y0123361D01*
X0117366Y0124343D02*
X0113488Y0124343D01*
X0113488Y0125326D02*
X0117366Y0125326D01*
X0117366Y0126309D02*
X0113488Y0126309D01*
X0113488Y0127292D02*
X0117366Y0127292D01*
X0115249Y0128275D02*
X0113488Y0128275D01*
X0083520Y0156775D02*
X0076497Y0156775D01*
X0083886Y0167642D02*
X0072358Y0179169D01*
X0072358Y0182594D01*
X0096000Y0161688D02*
X0096508Y0161688D01*
X0095593Y0160706D02*
X0097491Y0160706D01*
X0098474Y0159723D02*
X0094868Y0159723D01*
X0093584Y0158740D02*
X0099456Y0158740D01*
X0060720Y0126309D02*
X0005984Y0126309D01*
X0005984Y0125326D02*
X0060720Y0125326D01*
X0060720Y0124343D02*
X0005984Y0124343D01*
X0005984Y0123361D02*
X0060720Y0123361D01*
X0060720Y0122378D02*
X0005984Y0122378D01*
X0005984Y0121395D02*
X0060720Y0121395D01*
X0060720Y0120412D02*
X0005984Y0120412D01*
X0005984Y0119430D02*
X0060720Y0119430D01*
X0060720Y0118447D02*
X0005984Y0118447D01*
X0005984Y0117464D02*
X0060720Y0117464D01*
X0026170Y0129257D02*
X0025554Y0129257D01*
X0025554Y0130240D02*
X0026170Y0130240D01*
X0026170Y0131223D02*
X0025554Y0131223D01*
X0025554Y0132206D02*
X0026170Y0132206D01*
X0026170Y0134171D02*
X0025554Y0134171D01*
X0025554Y0135154D02*
X0026170Y0135154D01*
X0026170Y0136137D02*
X0025554Y0136137D01*
X0019529Y0131223D02*
X0005984Y0131223D01*
X0005984Y0130240D02*
X0020144Y0130240D01*
X0021416Y0129257D02*
X0005984Y0129257D01*
X0005984Y0147930D02*
X0023386Y0147930D01*
X0091942Y0084050D02*
X0097499Y0084050D01*
X0096269Y0083067D02*
X0093172Y0083067D01*
X0093875Y0082085D02*
X0095566Y0082085D01*
X0095159Y0081102D02*
X0094282Y0081102D01*
X0094387Y0080119D02*
X0095054Y0080119D01*
X0095054Y0079136D02*
X0094387Y0079136D01*
X0094387Y0078154D02*
X0095054Y0078154D01*
X0095054Y0077171D02*
X0094387Y0077171D01*
X0094387Y0076188D02*
X0095054Y0076188D01*
X0095054Y0075205D02*
X0094387Y0075205D01*
X0094387Y0074223D02*
X0095054Y0074223D01*
X0095282Y0073240D02*
X0094159Y0073240D01*
X0093752Y0072257D02*
X0095689Y0072257D01*
X0096565Y0071274D02*
X0092876Y0071274D01*
X0102876Y0071274D02*
X0106565Y0071274D01*
X0105689Y0072257D02*
X0103752Y0072257D01*
X0104159Y0073240D02*
X0105282Y0073240D01*
X0105054Y0074223D02*
X0104387Y0074223D01*
X0104387Y0075205D02*
X0105054Y0075205D01*
X0105054Y0076188D02*
X0104387Y0076188D01*
X0104387Y0077171D02*
X0105054Y0077171D01*
X0105054Y0078154D02*
X0104387Y0078154D01*
X0104387Y0079136D02*
X0105054Y0079136D01*
X0105054Y0080119D02*
X0104387Y0080119D01*
X0104282Y0081102D02*
X0105159Y0081102D01*
X0105566Y0082085D02*
X0103875Y0082085D01*
X0103172Y0083067D02*
X0106269Y0083067D01*
X0107499Y0084050D02*
X0101942Y0084050D01*
X0158180Y0131223D02*
X0174894Y0131223D01*
X0174580Y0132206D02*
X0158478Y0132206D01*
X0163515Y0124343D02*
X0228083Y0124343D01*
X0228083Y0123361D02*
X0163909Y0123361D01*
X0163909Y0122378D02*
X0228083Y0122378D01*
X0228083Y0121395D02*
X0163753Y0121395D01*
X0163346Y0120412D02*
X0228083Y0120412D01*
X0228083Y0119430D02*
X0162441Y0119430D01*
X0162409Y0118447D02*
X0228083Y0118447D01*
X0228083Y0117464D02*
X0162409Y0117464D01*
X0162409Y0116481D02*
X0228083Y0116481D01*
X0228083Y0115499D02*
X0162409Y0115499D01*
X0162409Y0114516D02*
X0228083Y0114516D01*
X0228083Y0113533D02*
X0162409Y0113533D01*
X0162409Y0112550D02*
X0228083Y0112550D01*
X0228083Y0111568D02*
X0162409Y0111568D01*
X0162409Y0110585D02*
X0228083Y0110585D01*
X0228083Y0109602D02*
X0162409Y0109602D01*
X0162409Y0108619D02*
X0228083Y0108619D01*
X0228083Y0107637D02*
X0162409Y0107637D01*
X0162409Y0106654D02*
X0228083Y0106654D01*
X0228083Y0105671D02*
X0162409Y0105671D01*
X0162409Y0104688D02*
X0228083Y0104688D01*
X0228083Y0103705D02*
X0162409Y0103705D01*
X0162409Y0102723D02*
X0228083Y0102723D01*
X0228083Y0101740D02*
X0162409Y0101740D01*
X0162409Y0100757D02*
X0228083Y0100757D01*
X0228083Y0099774D02*
X0162409Y0099774D01*
X0162409Y0098792D02*
X0228083Y0098792D01*
X0228083Y0097809D02*
X0162409Y0097809D01*
X0162409Y0096826D02*
X0228083Y0096826D01*
X0228083Y0095843D02*
X0162409Y0095843D01*
X0162409Y0094861D02*
X0228083Y0094861D01*
X0228083Y0093878D02*
X0162409Y0093878D01*
X0162409Y0092895D02*
X0228436Y0092895D01*
X0229367Y0091912D02*
X0162409Y0091912D01*
X0162409Y0090930D02*
X0230350Y0090930D01*
X0231332Y0089947D02*
X0162409Y0089947D01*
X0162409Y0088964D02*
X0228256Y0088964D01*
X0226529Y0087981D02*
X0222338Y0087981D01*
X0223454Y0086998D02*
X0225560Y0086998D01*
X0225153Y0086016D02*
X0224062Y0086016D01*
X0220488Y0086016D02*
X0219504Y0086016D01*
X0219504Y0086998D02*
X0220488Y0086998D01*
X0220488Y0087981D02*
X0219504Y0087981D01*
X0219504Y0088608D02*
X0218952Y0088520D01*
X0218284Y0088303D01*
X0217658Y0087984D01*
X0217090Y0087572D01*
X0216594Y0087075D01*
X0216181Y0086507D01*
X0215862Y0085882D01*
X0215645Y0085214D01*
X0215558Y0084661D01*
X0219504Y0084661D01*
X0219504Y0088608D01*
X0217654Y0087981D02*
X0162409Y0087981D01*
X0162409Y0086998D02*
X0216538Y0086998D01*
X0215931Y0086016D02*
X0162409Y0086016D01*
X0162409Y0085033D02*
X0215617Y0085033D01*
X0215664Y0083067D02*
X0162409Y0083067D01*
X0162409Y0082085D02*
X0216052Y0082085D01*
X0216755Y0081102D02*
X0162409Y0081102D01*
X0162409Y0080119D02*
X0218120Y0080119D01*
X0218333Y0079136D02*
X0162409Y0079136D01*
X0162409Y0078154D02*
X0217350Y0078154D01*
X0216367Y0077171D02*
X0162409Y0077171D01*
X0162409Y0084050D02*
X0219504Y0084050D01*
X0219504Y0085033D02*
X0220488Y0085033D01*
X0231421Y0088964D02*
X0232315Y0088964D01*
X0233148Y0087981D02*
X0233298Y0087981D01*
X0234117Y0086998D02*
X0234281Y0086998D01*
X0234524Y0086016D02*
X0234996Y0086016D01*
X0242082Y0092895D02*
X0256406Y0092895D01*
X0256406Y0091912D02*
X0243064Y0091912D01*
X0244047Y0090930D02*
X0256406Y0090930D01*
X0256406Y0089947D02*
X0245030Y0089947D01*
X0246013Y0088964D02*
X0256406Y0088964D01*
X0256406Y0088330D02*
X0255097Y0087022D01*
X0254331Y0085171D01*
X0254331Y0083168D01*
X0255097Y0081317D01*
X0256514Y0079900D01*
X0258365Y0079134D01*
X0259527Y0079134D01*
X0256622Y0076228D01*
X0247378Y0076228D01*
X0247378Y0080256D01*
X0247811Y0080035D01*
X0248479Y0079818D01*
X0249031Y0079731D01*
X0249031Y0083677D01*
X0250016Y0083677D01*
X0250016Y0084661D01*
X0253962Y0084661D01*
X0253874Y0085214D01*
X0253657Y0085882D01*
X0253339Y0086507D01*
X0252926Y0087075D01*
X0252430Y0087572D01*
X0251861Y0087984D01*
X0251236Y0088303D01*
X0250568Y0088520D01*
X0250016Y0088608D01*
X0250016Y0084661D01*
X0249031Y0084661D01*
X0249031Y0088608D01*
X0248479Y0088520D01*
X0247811Y0088303D01*
X0247186Y0087984D01*
X0247035Y0087875D01*
X0246987Y0087989D01*
X0246265Y0088712D01*
X0239654Y0095323D01*
X0239654Y0128929D01*
X0241310Y0128243D01*
X0247108Y0128243D01*
X0256406Y0118945D01*
X0256406Y0088330D01*
X0256057Y0087981D02*
X0251866Y0087981D01*
X0252982Y0086998D02*
X0255088Y0086998D01*
X0254681Y0086016D02*
X0253589Y0086016D01*
X0253903Y0085033D02*
X0254331Y0085033D01*
X0254331Y0084050D02*
X0250016Y0084050D01*
X0250016Y0083677D02*
X0253962Y0083677D01*
X0253874Y0083125D01*
X0253657Y0082457D01*
X0253339Y0081831D01*
X0252926Y0081263D01*
X0252430Y0080767D01*
X0251861Y0080354D01*
X0251236Y0080035D01*
X0250568Y0079818D01*
X0250016Y0079731D01*
X0250016Y0083677D01*
X0250016Y0083067D02*
X0249031Y0083067D01*
X0249031Y0082085D02*
X0250016Y0082085D01*
X0250016Y0081102D02*
X0249031Y0081102D01*
X0249031Y0080119D02*
X0250016Y0080119D01*
X0251400Y0080119D02*
X0256295Y0080119D01*
X0255312Y0081102D02*
X0252765Y0081102D01*
X0253468Y0082085D02*
X0254779Y0082085D01*
X0254372Y0083067D02*
X0253856Y0083067D01*
X0250016Y0085033D02*
X0249031Y0085033D01*
X0249031Y0086016D02*
X0250016Y0086016D01*
X0250016Y0086998D02*
X0249031Y0086998D01*
X0249031Y0087981D02*
X0250016Y0087981D01*
X0247181Y0087981D02*
X0246991Y0087981D01*
X0241099Y0093878D02*
X0256406Y0093878D01*
X0256406Y0094861D02*
X0240116Y0094861D01*
X0239654Y0095843D02*
X0256406Y0095843D01*
X0256406Y0096826D02*
X0239654Y0096826D01*
X0239654Y0097809D02*
X0256406Y0097809D01*
X0256406Y0098792D02*
X0239654Y0098792D01*
X0239654Y0099774D02*
X0256406Y0099774D01*
X0256406Y0100757D02*
X0239654Y0100757D01*
X0239654Y0101740D02*
X0256406Y0101740D01*
X0256406Y0102723D02*
X0239654Y0102723D01*
X0239654Y0103705D02*
X0256406Y0103705D01*
X0256406Y0104688D02*
X0239654Y0104688D01*
X0239654Y0105671D02*
X0256406Y0105671D01*
X0256406Y0106654D02*
X0239654Y0106654D01*
X0239654Y0107637D02*
X0256406Y0107637D01*
X0256406Y0108619D02*
X0239654Y0108619D01*
X0239654Y0109602D02*
X0256406Y0109602D01*
X0256406Y0110585D02*
X0239654Y0110585D01*
X0239654Y0111568D02*
X0256406Y0111568D01*
X0256406Y0112550D02*
X0239654Y0112550D01*
X0239654Y0113533D02*
X0256406Y0113533D01*
X0256406Y0114516D02*
X0239654Y0114516D01*
X0239654Y0115499D02*
X0256406Y0115499D01*
X0256406Y0116481D02*
X0239654Y0116481D01*
X0239654Y0117464D02*
X0256406Y0117464D01*
X0256406Y0118447D02*
X0239654Y0118447D01*
X0239654Y0119430D02*
X0255920Y0119430D01*
X0254938Y0120412D02*
X0239654Y0120412D01*
X0239654Y0121395D02*
X0253955Y0121395D01*
X0252972Y0122378D02*
X0239654Y0122378D01*
X0239654Y0123361D02*
X0251989Y0123361D01*
X0251007Y0124343D02*
X0239654Y0124343D01*
X0239654Y0125326D02*
X0250024Y0125326D01*
X0249041Y0126309D02*
X0239654Y0126309D01*
X0239654Y0127292D02*
X0248058Y0127292D01*
X0241233Y0128275D02*
X0239654Y0128275D01*
X0228083Y0128275D02*
X0223235Y0128275D01*
X0224218Y0129257D02*
X0228083Y0129257D01*
X0228083Y0130240D02*
X0225143Y0130240D01*
X0225492Y0131223D02*
X0228083Y0131223D01*
X0228083Y0132206D02*
X0225492Y0132206D01*
X0225574Y0133188D02*
X0227187Y0133188D01*
X0226780Y0134171D02*
X0226557Y0134171D01*
X0228083Y0127292D02*
X0222253Y0127292D01*
X0221270Y0126309D02*
X0228083Y0126309D01*
X0228083Y0125326D02*
X0219962Y0125326D01*
X0249886Y0146947D02*
X0249969Y0146947D01*
X0250680Y0169551D02*
X0253043Y0169551D01*
X0240525Y0168568D02*
X0239116Y0168568D01*
X0280850Y0147930D02*
X0289216Y0147930D01*
X0290198Y0146947D02*
X0282878Y0146947D01*
X0283976Y0145964D02*
X0291181Y0145964D01*
X0292164Y0144982D02*
X0284624Y0144982D01*
X0285031Y0143999D02*
X0293147Y0143999D01*
X0293528Y0143016D02*
X0285098Y0143016D01*
X0285098Y0142033D02*
X0293668Y0142033D01*
X0294075Y0141050D02*
X0284712Y0141050D01*
X0284189Y0140068D02*
X0294956Y0140068D01*
X0300233Y0140068D02*
X0301472Y0140068D01*
X0302455Y0139085D02*
X0283206Y0139085D01*
X0282977Y0148913D02*
X0288233Y0148913D01*
X0287250Y0149895D02*
X0284017Y0149895D01*
X0284641Y0150878D02*
X0286267Y0150878D01*
X0285285Y0151861D02*
X0285048Y0151861D01*
X0290476Y0088964D02*
X0297154Y0088964D01*
X0295427Y0087981D02*
X0292203Y0087981D01*
X0293172Y0086998D02*
X0294458Y0086998D01*
X0294051Y0086016D02*
X0293579Y0086016D01*
X0293481Y0082085D02*
X0294149Y0082085D01*
X0294682Y0081102D02*
X0292947Y0081102D01*
X0291965Y0080119D02*
X0295665Y0080119D01*
X0301807Y0080119D02*
X0306702Y0080119D01*
X0306866Y0080035D02*
X0307534Y0079818D01*
X0308087Y0079731D01*
X0308087Y0083677D01*
X0309071Y0083677D01*
X0309071Y0084661D01*
X0308087Y0084661D01*
X0308087Y0083677D01*
X0304140Y0083677D01*
X0304228Y0083125D01*
X0304445Y0082457D01*
X0304764Y0081831D01*
X0305176Y0081263D01*
X0305673Y0080767D01*
X0306241Y0080354D01*
X0306866Y0080035D01*
X0308087Y0080119D02*
X0309071Y0080119D01*
X0309071Y0079731D02*
X0309623Y0079818D01*
X0310291Y0080035D01*
X0310917Y0080354D01*
X0311485Y0080767D01*
X0311981Y0081263D01*
X0312394Y0081831D01*
X0312713Y0082457D01*
X0312930Y0083125D01*
X0313017Y0083677D01*
X0309071Y0083677D01*
X0309071Y0079731D01*
X0309071Y0081102D02*
X0308087Y0081102D01*
X0308087Y0082085D02*
X0309071Y0082085D01*
X0309071Y0083067D02*
X0308087Y0083067D01*
X0308087Y0084050D02*
X0303772Y0084050D01*
X0304140Y0084661D02*
X0308087Y0084661D01*
X0308087Y0088608D01*
X0307534Y0088520D01*
X0306866Y0088303D01*
X0306241Y0087984D01*
X0305673Y0087572D01*
X0305176Y0087075D01*
X0304764Y0086507D01*
X0304445Y0085882D01*
X0304228Y0085214D01*
X0304140Y0084661D01*
X0304199Y0085033D02*
X0303772Y0085033D01*
X0303422Y0086016D02*
X0304513Y0086016D01*
X0305121Y0086998D02*
X0303015Y0086998D01*
X0302045Y0087981D02*
X0306237Y0087981D01*
X0308087Y0087981D02*
X0309071Y0087981D01*
X0309071Y0086998D02*
X0308087Y0086998D01*
X0308087Y0086016D02*
X0309071Y0086016D01*
X0309071Y0085033D02*
X0308087Y0085033D01*
X0309071Y0084050D02*
X0313386Y0084050D01*
X0313386Y0085033D02*
X0312958Y0085033D01*
X0312644Y0086016D02*
X0313736Y0086016D01*
X0313427Y0083067D02*
X0312911Y0083067D01*
X0312523Y0082085D02*
X0313834Y0082085D01*
X0314367Y0081102D02*
X0311820Y0081102D01*
X0310455Y0080119D02*
X0315350Y0080119D01*
X0311882Y0072257D02*
X0259911Y0072257D01*
X0258630Y0071274D02*
X0310899Y0071274D01*
X0305338Y0081102D02*
X0302790Y0081102D01*
X0303323Y0082085D02*
X0304635Y0082085D01*
X0304247Y0083067D02*
X0303730Y0083067D01*
X0300319Y0088964D02*
X0308272Y0088964D01*
X0285823Y0080119D02*
X0280928Y0080119D01*
X0282292Y0081102D02*
X0284840Y0081102D01*
X0284307Y0082085D02*
X0282995Y0082085D01*
X0283383Y0083067D02*
X0283900Y0083067D01*
X0275810Y0081102D02*
X0273262Y0081102D01*
X0273795Y0082085D02*
X0275107Y0082085D01*
X0274719Y0083067D02*
X0274203Y0083067D01*
X0265899Y0087981D02*
X0262675Y0087981D01*
X0263645Y0086998D02*
X0264930Y0086998D01*
X0264523Y0086016D02*
X0264052Y0086016D01*
X0258358Y0079136D02*
X0247378Y0079136D01*
X0247378Y0078154D02*
X0258547Y0078154D01*
X0257564Y0077171D02*
X0247378Y0077171D01*
X0247378Y0080119D02*
X0247647Y0080119D01*
X0249524Y0058579D02*
X0322421Y0058579D01*
X0332354Y0068512D01*
X0337722Y0064868D02*
X0327496Y0054642D01*
X0251492Y0054642D01*
X0238327Y0041476D01*
X0226787Y0041476D01*
X0222925Y0049201D02*
X0240146Y0049201D01*
X0249524Y0058579D01*
X0349532Y0088964D02*
X0356209Y0088964D01*
X0354482Y0087981D02*
X0351258Y0087981D01*
X0352227Y0086998D02*
X0353513Y0086998D01*
X0353106Y0086016D02*
X0352634Y0086016D01*
X0221392Y0235396D02*
X0202904Y0235396D01*
X0203887Y0236379D02*
X0222374Y0236379D01*
X0223357Y0237361D02*
X0204869Y0237361D01*
X0205852Y0238344D02*
X0224340Y0238344D01*
X0225323Y0239327D02*
X0206835Y0239327D01*
X0207818Y0240310D02*
X0226305Y0240310D01*
X0227288Y0241292D02*
X0208800Y0241292D01*
X0209783Y0242275D02*
X0228271Y0242275D01*
X0229254Y0243258D02*
X0210766Y0243258D01*
X0211749Y0244241D02*
X0230236Y0244241D01*
X0231219Y0245223D02*
X0212731Y0245223D01*
X0213714Y0246206D02*
X0232202Y0246206D01*
X0233185Y0247189D02*
X0214697Y0247189D01*
X0215680Y0248172D02*
X0234167Y0248172D01*
X0235150Y0249154D02*
X0216663Y0249154D01*
X0217645Y0250137D02*
X0236133Y0250137D01*
X0237116Y0251120D02*
X0218628Y0251120D01*
X0219611Y0252103D02*
X0238099Y0252103D01*
X0239081Y0253085D02*
X0220594Y0253085D01*
X0221576Y0254068D02*
X0240064Y0254068D01*
X0241047Y0255051D02*
X0222559Y0255051D01*
X0223542Y0256034D02*
X0242030Y0256034D01*
X0243012Y0257017D02*
X0224525Y0257017D01*
X0225507Y0257999D02*
X0243995Y0257999D01*
X0244978Y0258982D02*
X0226490Y0258982D01*
X0227473Y0259965D02*
X0245961Y0259965D01*
X0246943Y0260948D02*
X0228456Y0260948D01*
X0229438Y0261930D02*
X0247926Y0261930D01*
X0248909Y0262913D02*
X0230421Y0262913D01*
X0231404Y0263896D02*
X0249892Y0263896D01*
X0250874Y0264879D02*
X0232387Y0264879D01*
X0233370Y0265861D02*
X0251857Y0265861D01*
X0252840Y0266844D02*
X0234352Y0266844D01*
X0235335Y0267827D02*
X0253823Y0267827D01*
X0254805Y0268810D02*
X0236318Y0268810D01*
X0237301Y0269792D02*
X0255788Y0269792D01*
X0256771Y0270775D02*
X0238283Y0270775D01*
X0239266Y0271758D02*
X0257754Y0271758D01*
X0258737Y0272741D02*
X0240249Y0272741D01*
X0241232Y0273724D02*
X0259719Y0273724D01*
X0260702Y0274706D02*
X0242214Y0274706D01*
X0243197Y0275689D02*
X0261685Y0275689D01*
X0262668Y0276672D02*
X0244180Y0276672D01*
X0245163Y0277655D02*
X0263650Y0277655D01*
X0264633Y0278637D02*
X0246145Y0278637D01*
X0247128Y0279620D02*
X0265616Y0279620D01*
X0266599Y0280603D02*
X0248111Y0280603D01*
X0249094Y0281586D02*
X0267581Y0281586D01*
X0273572Y0271758D02*
X0273983Y0271758D01*
X0276450Y0268810D02*
X0278635Y0268810D01*
X0277606Y0267827D02*
X0277324Y0267827D01*
X0278641Y0270775D02*
X0318284Y0270775D01*
X0318660Y0269792D02*
X0314245Y0269792D01*
X0315820Y0268810D02*
X0317085Y0268810D01*
X0317301Y0271758D02*
X0280009Y0271758D01*
X0280626Y0268810D02*
X0281413Y0268810D01*
X0281413Y0267827D02*
X0280626Y0267827D01*
X0280626Y0266844D02*
X0281413Y0266844D01*
X0281413Y0265861D02*
X0280626Y0265861D01*
X0280626Y0264878D02*
X0281413Y0264878D01*
X0281413Y0261017D01*
X0281794Y0261077D01*
X0281020Y0260303D01*
X0280246Y0261077D01*
X0280626Y0261017D01*
X0280626Y0264878D01*
X0280626Y0263896D02*
X0281413Y0263896D01*
X0281413Y0262913D02*
X0280626Y0262913D01*
X0280626Y0261930D02*
X0281413Y0261930D01*
X0281664Y0260948D02*
X0280376Y0260948D01*
X0284433Y0267827D02*
X0284715Y0267827D01*
X0285589Y0268810D02*
X0283404Y0268810D01*
X0298497Y0269792D02*
X0310786Y0269792D01*
X0309211Y0268810D02*
X0307026Y0268810D01*
X0308056Y0267827D02*
X0308337Y0267827D01*
X0305035Y0267827D02*
X0304248Y0267827D01*
X0304248Y0268810D02*
X0305035Y0268810D01*
X0305035Y0266844D02*
X0304248Y0266844D01*
X0304248Y0265861D02*
X0305035Y0265861D01*
X0305035Y0264878D02*
X0305035Y0261017D01*
X0305416Y0261077D01*
X0304642Y0260303D01*
X0303868Y0261077D01*
X0304248Y0261017D01*
X0304248Y0264878D01*
X0305035Y0264878D01*
X0305035Y0263896D02*
X0304248Y0263896D01*
X0304248Y0262913D02*
X0305035Y0262913D01*
X0305035Y0261930D02*
X0304248Y0261930D01*
X0303998Y0260948D02*
X0305286Y0260948D01*
X0301228Y0267827D02*
X0300947Y0267827D01*
X0300072Y0268810D02*
X0302257Y0268810D01*
X0282723Y0253085D02*
X0279316Y0253085D01*
X0280596Y0254068D02*
X0281443Y0254068D01*
X0265042Y0254068D02*
X0253761Y0254068D01*
X0254744Y0255051D02*
X0264945Y0255051D01*
X0264945Y0256034D02*
X0255727Y0256034D01*
X0332346Y0259965D02*
X0332956Y0259965D01*
X0147408Y0273724D02*
X0140087Y0273724D01*
X0140998Y0272741D02*
X0146426Y0272741D01*
X0145443Y0271758D02*
X0141405Y0271758D01*
X0141567Y0270775D02*
X0144460Y0270775D01*
X0143477Y0269792D02*
X0141567Y0269792D01*
X0141177Y0268810D02*
X0142494Y0268810D01*
X0143480Y0266165D02*
X0142587Y0265272D01*
X0123539Y0265272D01*
X0116089Y0254068D02*
X0115242Y0254068D01*
X0113962Y0253085D02*
X0117369Y0253085D01*
X0120673Y0252103D02*
X0112484Y0252103D01*
X0113467Y0251120D02*
X0121655Y0251120D01*
X0122638Y0250137D02*
X0114450Y0250137D01*
X0115432Y0249154D02*
X0123621Y0249154D01*
X0108436Y0260948D02*
X0107147Y0260948D01*
X0107398Y0261930D02*
X0108185Y0261930D01*
X0108185Y0262913D02*
X0107398Y0262913D01*
X0107398Y0263896D02*
X0108185Y0263896D01*
X0096754Y0261592D02*
X0096374Y0261652D01*
X0096374Y0257791D01*
X0095587Y0257791D01*
X0095587Y0261652D01*
X0095206Y0261592D01*
X0095980Y0262366D01*
X0096754Y0261592D01*
X0096416Y0261930D02*
X0095545Y0261930D01*
X0095587Y0260948D02*
X0096374Y0260948D01*
X0096374Y0259965D02*
X0095587Y0259965D01*
X0095587Y0258982D02*
X0096374Y0258982D01*
X0096374Y0257999D02*
X0095587Y0257999D01*
D18*
X0072358Y0219996D03*
X0086138Y0210154D03*
X0056610Y0219996D03*
X0145193Y0275114D03*
X0172752Y0251492D03*
X0221965Y0245587D03*
X0298736Y0214091D03*
X0334169Y0223933D03*
X0147161Y0094012D03*
X0139287Y0074327D03*
X0107791Y0099917D03*
M02*
