G75*
%MOIN*%
%OFA0B0*%
%FSLAX25Y25*%
%IPPOS*%
%LPD*%
%AMOC8*
5,1,8,0,0,1.08239X$1,22.5*
%
%ADD10C,0.01200*%
%ADD11R,0.03150X0.04724*%
%ADD12R,0.02165X0.03937*%
%ADD13OC8,0.06600*%
%ADD14R,0.03937X0.03150*%
%ADD15R,0.03150X0.03937*%
%ADD16R,0.04724X0.03150*%
%ADD17C,0.05906*%
%ADD18R,0.04803X0.03602*%
%ADD19C,0.04724*%
%ADD20R,0.06500X0.06500*%
%ADD21C,0.06500*%
%ADD22C,0.01600*%
%ADD23OC8,0.04724*%
%ADD24C,0.01575*%
D10*
X0205631Y0025301D02*
X0207933Y0022999D01*
X0214839Y0022999D01*
X0214839Y0018395D02*
X0214839Y0032207D01*
X0207933Y0032207D01*
X0205631Y0029905D01*
X0205631Y0025301D01*
X0219443Y0032207D02*
X0221745Y0032207D01*
X0226349Y0027603D01*
X0226349Y0022999D02*
X0226349Y0032207D01*
X0230953Y0029905D02*
X0233255Y0032207D01*
X0237859Y0032207D01*
X0240161Y0029905D01*
X0240161Y0025301D01*
X0237859Y0022999D01*
X0233255Y0022999D01*
X0230953Y0025301D01*
X0230953Y0029905D01*
X0244765Y0032207D02*
X0251671Y0032207D01*
X0253973Y0029905D01*
X0253973Y0025301D01*
X0251671Y0022999D01*
X0244765Y0022999D01*
X0272388Y0025301D02*
X0274690Y0022999D01*
X0281596Y0022999D01*
X0286200Y0025301D02*
X0286200Y0029905D01*
X0288502Y0032207D01*
X0293106Y0032207D01*
X0295408Y0029905D01*
X0295408Y0025301D01*
X0293106Y0022999D01*
X0288502Y0022999D01*
X0286200Y0025301D01*
X0281596Y0032207D02*
X0274690Y0032207D01*
X0272388Y0029905D01*
X0272388Y0025301D01*
X0281596Y0018395D02*
X0281596Y0032207D01*
X0300012Y0036810D02*
X0309220Y0036810D01*
X0316126Y0036810D02*
X0316126Y0022999D01*
X0318428Y0022999D02*
X0313824Y0022999D01*
X0323032Y0022999D02*
X0327635Y0022999D01*
X0325334Y0022999D02*
X0325334Y0036810D01*
X0327635Y0036810D01*
X0334541Y0036810D02*
X0334541Y0039112D01*
X0341447Y0036810D02*
X0341447Y0022999D01*
X0336843Y0022999D02*
X0332239Y0022999D01*
X0334541Y0022999D02*
X0334541Y0032207D01*
X0336843Y0032207D01*
X0341447Y0029905D02*
X0350655Y0029905D01*
X0350655Y0036810D02*
X0350655Y0022999D01*
X0318428Y0036810D02*
X0316126Y0036810D01*
X0304616Y0036810D02*
X0304616Y0022999D01*
D11*
X0146334Y0095627D03*
X0138854Y0095627D03*
X0142594Y0086966D03*
X0128617Y0095627D03*
X0121137Y0095627D03*
X0124877Y0086966D03*
X0095350Y0070036D03*
X0099090Y0061375D03*
X0091609Y0061375D03*
X0081373Y0063344D03*
X0073893Y0063344D03*
X0077633Y0072005D03*
D12*
X0152633Y0074761D03*
X0156373Y0074761D03*
X0160113Y0074761D03*
X0160113Y0064525D03*
X0152633Y0064525D03*
X0237279Y0062556D03*
X0241019Y0062556D03*
X0244759Y0062556D03*
X0244759Y0072792D03*
X0237279Y0072792D03*
D13*
X0181964Y0028304D03*
X0174090Y0028304D03*
D14*
X0199680Y0041296D03*
X0199680Y0046808D03*
X0199680Y0064918D03*
X0205586Y0064918D03*
X0205586Y0070430D03*
X0199680Y0070430D03*
X0211491Y0070430D03*
X0217397Y0070430D03*
X0217397Y0064918D03*
X0211491Y0064918D03*
X0223302Y0082635D03*
X0223302Y0088147D03*
X0258735Y0082241D03*
X0258735Y0076729D03*
X0274483Y0094446D03*
X0274483Y0099958D03*
X0160310Y0090115D03*
X0160310Y0084603D03*
X0160310Y0058619D03*
X0160310Y0053107D03*
X0152436Y0053107D03*
X0152436Y0058619D03*
D15*
X0139050Y0073580D03*
X0133539Y0073580D03*
X0139838Y0103107D03*
X0145350Y0103107D03*
X0192987Y0111375D03*
X0198499Y0111375D03*
X0198499Y0116887D03*
X0192987Y0116887D03*
X0238263Y0083422D03*
X0243775Y0083422D03*
X0088263Y0040115D03*
X0082751Y0040115D03*
X0074483Y0040115D03*
X0068972Y0040115D03*
X0074877Y0055076D03*
X0080389Y0055076D03*
X0054798Y0124761D03*
X0049287Y0124761D03*
D16*
X0258342Y0097202D03*
X0267003Y0100942D03*
X0267003Y0093462D03*
D17*
X0095507Y0105981D03*
X0085507Y0105981D03*
X0075507Y0105981D03*
X0075507Y0115981D03*
X0085507Y0115981D03*
X0095507Y0115981D03*
D18*
X0052830Y0103265D03*
X0052830Y0090351D03*
D19*
X0107948Y0049958D03*
X0128814Y0030273D03*
X0090665Y0026336D03*
X0080665Y0026336D03*
X0070665Y0026336D03*
X0060665Y0026336D03*
X0298106Y0050548D03*
X0298106Y0100548D03*
D20*
X0042200Y0110548D03*
D21*
X0042200Y0100548D03*
X0042200Y0090548D03*
X0042200Y0080548D03*
X0042200Y0070548D03*
X0042200Y0060548D03*
X0042200Y0050548D03*
X0042200Y0040548D03*
D22*
X0012404Y0014256D02*
X0012404Y0136840D01*
X0402705Y0136840D01*
X0402705Y0014256D01*
X0012404Y0014256D01*
X0012404Y0015753D02*
X0054255Y0015753D01*
X0054188Y0015781D02*
X0055351Y0015299D01*
X0164876Y0015299D01*
X0166038Y0015781D01*
X0173281Y0023023D01*
X0176277Y0023023D01*
X0178155Y0024901D01*
X0179851Y0023204D01*
X0181964Y0023204D01*
X0184076Y0023204D01*
X0187064Y0026192D01*
X0187064Y0028304D01*
X0181964Y0028304D01*
X0181964Y0028304D01*
X0181964Y0023204D01*
X0181964Y0028304D01*
X0181964Y0028304D01*
X0187064Y0028304D01*
X0187064Y0030417D01*
X0184076Y0033404D01*
X0181964Y0033404D01*
X0181964Y0028304D01*
X0181964Y0028304D01*
X0181964Y0033404D01*
X0179851Y0033404D01*
X0179220Y0032773D01*
X0179220Y0064396D01*
X0192519Y0077694D01*
X0193000Y0078856D01*
X0193000Y0088018D01*
X0203766Y0098784D01*
X0203787Y0098764D01*
X0207385Y0098764D01*
X0209929Y0101308D01*
X0209929Y0104906D01*
X0207385Y0107451D01*
X0203787Y0107451D01*
X0202335Y0105999D01*
X0201826Y0105788D01*
X0200937Y0104899D01*
X0198118Y0102080D01*
X0198118Y0104906D01*
X0196564Y0106460D01*
X0196421Y0107678D01*
X0196687Y0107607D01*
X0198499Y0107607D01*
X0198499Y0111375D01*
X0198499Y0111375D01*
X0198499Y0107607D01*
X0200311Y0107607D01*
X0200769Y0107729D01*
X0201179Y0107966D01*
X0201514Y0108301D01*
X0201751Y0108712D01*
X0201874Y0109170D01*
X0201874Y0111375D01*
X0198499Y0111375D01*
X0201874Y0111375D01*
X0201874Y0113580D01*
X0201835Y0113725D01*
X0229867Y0113725D01*
X0240613Y0102979D01*
X0240613Y0087372D01*
X0235868Y0087372D01*
X0234707Y0086211D01*
X0234707Y0084338D01*
X0234598Y0084229D01*
X0234117Y0083067D01*
X0234117Y0076346D01*
X0233551Y0076676D01*
X0233551Y0077347D01*
X0231007Y0079892D01*
X0227409Y0079892D01*
X0224865Y0077347D01*
X0224865Y0073749D01*
X0227409Y0071205D01*
X0230378Y0071205D01*
X0231986Y0070267D01*
X0232141Y0070112D01*
X0232524Y0069953D01*
X0232882Y0069744D01*
X0233100Y0069714D01*
X0233303Y0069630D01*
X0233718Y0069630D01*
X0234129Y0069574D01*
X0234341Y0069630D01*
X0234588Y0069630D01*
X0235375Y0068843D01*
X0239182Y0068843D01*
X0240343Y0070003D01*
X0240343Y0071926D01*
X0240441Y0072163D01*
X0240441Y0079473D01*
X0240658Y0079473D01*
X0241019Y0079833D01*
X0241379Y0079473D01*
X0241597Y0079473D01*
X0241597Y0072163D01*
X0241695Y0071926D01*
X0241695Y0070003D01*
X0242856Y0068843D01*
X0246662Y0068843D01*
X0247823Y0070003D01*
X0247823Y0071926D01*
X0247921Y0072163D01*
X0247921Y0079079D01*
X0255136Y0079079D01*
X0255090Y0078999D01*
X0254967Y0078541D01*
X0254967Y0076729D01*
X0254967Y0074918D01*
X0255090Y0074460D01*
X0255327Y0074049D01*
X0255662Y0073714D01*
X0256072Y0073477D01*
X0256530Y0073355D01*
X0258735Y0073355D01*
X0258735Y0076729D01*
X0254967Y0076729D01*
X0258735Y0076729D01*
X0258735Y0076729D01*
X0258735Y0076729D01*
X0258735Y0073355D01*
X0260941Y0073355D01*
X0261399Y0073477D01*
X0261479Y0073523D01*
X0261479Y0063079D01*
X0252701Y0054301D01*
X0251031Y0054301D01*
X0248487Y0051757D01*
X0248487Y0048159D01*
X0251031Y0045614D01*
X0254629Y0045614D01*
X0257173Y0048159D01*
X0257173Y0049829D01*
X0266432Y0059088D01*
X0267322Y0059977D01*
X0267803Y0061140D01*
X0267803Y0082083D01*
X0267322Y0083245D01*
X0266534Y0084032D01*
X0265645Y0084922D01*
X0264483Y0085403D01*
X0261918Y0085403D01*
X0261898Y0085424D01*
X0261898Y0094019D01*
X0262660Y0094781D01*
X0262660Y0091066D01*
X0263820Y0089906D01*
X0269353Y0089906D01*
X0269353Y0088371D01*
X0268172Y0087190D01*
X0268172Y0083592D01*
X0270716Y0081047D01*
X0274314Y0081047D01*
X0276858Y0083592D01*
X0276858Y0087190D01*
X0275677Y0088371D01*
X0275677Y0090890D01*
X0277273Y0090890D01*
X0278433Y0092050D01*
X0278433Y0096841D01*
X0278073Y0097202D01*
X0278257Y0097386D01*
X0295125Y0097386D01*
X0295645Y0096866D01*
X0297242Y0096205D01*
X0298969Y0096205D01*
X0300566Y0096866D01*
X0301788Y0098088D01*
X0302449Y0099684D01*
X0302449Y0101412D01*
X0301788Y0103009D01*
X0300566Y0104230D01*
X0298969Y0104892D01*
X0297242Y0104892D01*
X0295645Y0104230D01*
X0295125Y0103710D01*
X0274445Y0103710D01*
X0273970Y0103514D01*
X0271694Y0103514D01*
X0271346Y0103166D01*
X0271346Y0103337D01*
X0270186Y0104498D01*
X0263820Y0104498D01*
X0263803Y0104480D01*
X0240779Y0127504D01*
X0320418Y0127504D01*
X0350849Y0097073D01*
X0350849Y0095403D01*
X0353393Y0092858D01*
X0356991Y0092858D01*
X0359535Y0095403D01*
X0359535Y0099001D01*
X0356991Y0101545D01*
X0355321Y0101545D01*
X0324408Y0132458D01*
X0323519Y0133347D01*
X0322357Y0133829D01*
X0041571Y0133829D01*
X0040409Y0133347D01*
X0039519Y0132458D01*
X0017866Y0110804D01*
X0017384Y0109642D01*
X0017384Y0108384D01*
X0017384Y0092831D01*
X0017384Y0091573D01*
X0017866Y0090411D01*
X0036969Y0071307D01*
X0036969Y0069508D01*
X0037765Y0067585D01*
X0039237Y0066114D01*
X0040602Y0065548D01*
X0039237Y0064983D01*
X0037765Y0063511D01*
X0036969Y0061589D01*
X0036969Y0059508D01*
X0037765Y0057585D01*
X0039237Y0056114D01*
X0040602Y0055548D01*
X0039237Y0054983D01*
X0037765Y0053511D01*
X0036969Y0051589D01*
X0036969Y0049508D01*
X0037765Y0047585D01*
X0039237Y0046114D01*
X0040602Y0045548D01*
X0039237Y0044983D01*
X0037765Y0043511D01*
X0036969Y0041589D01*
X0036969Y0039508D01*
X0037765Y0037585D01*
X0039237Y0036114D01*
X0041159Y0035317D01*
X0043241Y0035317D01*
X0045163Y0036114D01*
X0046635Y0037585D01*
X0047431Y0039508D01*
X0047431Y0041589D01*
X0046635Y0043511D01*
X0045163Y0044983D01*
X0043798Y0045548D01*
X0045163Y0046114D01*
X0046635Y0047585D01*
X0047431Y0049508D01*
X0047431Y0051589D01*
X0046635Y0053511D01*
X0045163Y0054983D01*
X0043798Y0055548D01*
X0045163Y0056114D01*
X0046635Y0057585D01*
X0047431Y0059508D01*
X0047431Y0061589D01*
X0046635Y0063511D01*
X0045163Y0064983D01*
X0043798Y0065548D01*
X0045163Y0066114D01*
X0046635Y0067585D01*
X0047431Y0069508D01*
X0047431Y0071589D01*
X0046635Y0073511D01*
X0045163Y0074983D01*
X0043515Y0075666D01*
X0044139Y0075868D01*
X0044847Y0076229D01*
X0045490Y0076696D01*
X0046052Y0077258D01*
X0046519Y0077901D01*
X0046880Y0078610D01*
X0047126Y0079366D01*
X0047250Y0080151D01*
X0047250Y0080473D01*
X0042275Y0080473D01*
X0042275Y0080623D01*
X0047250Y0080623D01*
X0047250Y0080946D01*
X0047126Y0081731D01*
X0046880Y0082487D01*
X0046519Y0083195D01*
X0046052Y0083838D01*
X0045490Y0084400D01*
X0044847Y0084867D01*
X0044139Y0085228D01*
X0043515Y0085431D01*
X0045163Y0086114D01*
X0046635Y0087585D01*
X0047431Y0089508D01*
X0047431Y0091589D01*
X0046635Y0093511D01*
X0045163Y0094983D01*
X0043798Y0095548D01*
X0045163Y0096114D01*
X0046635Y0097585D01*
X0047431Y0099508D01*
X0047431Y0101589D01*
X0046635Y0103511D01*
X0045163Y0104983D01*
X0044356Y0105317D01*
X0046271Y0105317D01*
X0046288Y0105335D01*
X0048447Y0103175D01*
X0048447Y0100643D01*
X0049608Y0099483D01*
X0051986Y0099483D01*
X0059015Y0091707D01*
X0059047Y0091631D01*
X0059435Y0091242D01*
X0059804Y0090835D01*
X0059878Y0090800D01*
X0060944Y0089734D01*
X0060086Y0089734D01*
X0057542Y0087190D01*
X0057542Y0083592D01*
X0060086Y0081047D01*
X0062173Y0081047D01*
X0071230Y0073553D01*
X0074077Y0070964D01*
X0074077Y0068822D01*
X0075212Y0067687D01*
X0071498Y0067687D01*
X0070337Y0066526D01*
X0070337Y0064260D01*
X0050251Y0044174D01*
X0049362Y0043284D01*
X0048880Y0042122D01*
X0048880Y0028629D01*
X0048603Y0029299D01*
X0047131Y0030770D01*
X0045209Y0031566D01*
X0043128Y0031566D01*
X0041206Y0030770D01*
X0039734Y0029299D01*
X0038938Y0027376D01*
X0038938Y0025295D01*
X0039734Y0023373D01*
X0041206Y0021901D01*
X0043128Y0021105D01*
X0045209Y0021105D01*
X0047131Y0021901D01*
X0048603Y0023373D01*
X0048880Y0024043D01*
X0048880Y0021770D01*
X0049362Y0020607D01*
X0053299Y0016670D01*
X0054188Y0015781D01*
X0052617Y0017352D02*
X0024391Y0017352D01*
X0023947Y0017168D02*
X0026593Y0018264D01*
X0028618Y0020289D01*
X0029714Y0022935D01*
X0029714Y0025799D01*
X0028618Y0028445D01*
X0026593Y0030470D01*
X0023947Y0031566D01*
X0021083Y0031566D01*
X0018437Y0030470D01*
X0016412Y0028445D01*
X0015316Y0025799D01*
X0015316Y0022935D01*
X0016412Y0020289D01*
X0018437Y0018264D01*
X0021083Y0017168D01*
X0023947Y0017168D01*
X0020639Y0017352D02*
X0012404Y0017352D01*
X0012404Y0018950D02*
X0017751Y0018950D01*
X0016304Y0020549D02*
X0012404Y0020549D01*
X0012404Y0022147D02*
X0015642Y0022147D01*
X0015316Y0023746D02*
X0012404Y0023746D01*
X0012404Y0025344D02*
X0015316Y0025344D01*
X0015789Y0026943D02*
X0012404Y0026943D01*
X0012404Y0028541D02*
X0016508Y0028541D01*
X0018106Y0030140D02*
X0012404Y0030140D01*
X0012404Y0031738D02*
X0048880Y0031738D01*
X0048880Y0030140D02*
X0047762Y0030140D01*
X0048880Y0033337D02*
X0012404Y0033337D01*
X0012404Y0034935D02*
X0048880Y0034935D01*
X0048880Y0036534D02*
X0045583Y0036534D01*
X0046861Y0038132D02*
X0048880Y0038132D01*
X0048880Y0039731D02*
X0047431Y0039731D01*
X0047431Y0041329D02*
X0048880Y0041329D01*
X0049214Y0042928D02*
X0046876Y0042928D01*
X0045620Y0044526D02*
X0050604Y0044526D01*
X0052202Y0046125D02*
X0045175Y0046125D01*
X0046692Y0047723D02*
X0053801Y0047723D01*
X0055399Y0049322D02*
X0047354Y0049322D01*
X0047431Y0050920D02*
X0056998Y0050920D01*
X0058596Y0052519D02*
X0047046Y0052519D01*
X0046029Y0054117D02*
X0060195Y0054117D01*
X0061793Y0055716D02*
X0044203Y0055716D01*
X0046364Y0057314D02*
X0063392Y0057314D01*
X0064990Y0058913D02*
X0047185Y0058913D01*
X0047431Y0060511D02*
X0066589Y0060511D01*
X0068187Y0062110D02*
X0047215Y0062110D01*
X0046438Y0063708D02*
X0069786Y0063708D01*
X0070337Y0065307D02*
X0044381Y0065307D01*
X0045955Y0066906D02*
X0070716Y0066906D01*
X0074395Y0068504D02*
X0047015Y0068504D01*
X0047431Y0070103D02*
X0074077Y0070103D01*
X0073266Y0071701D02*
X0060243Y0071701D01*
X0059747Y0071205D02*
X0062291Y0073749D01*
X0062291Y0077347D01*
X0059747Y0079892D01*
X0058077Y0079892D01*
X0055992Y0081976D01*
X0055992Y0086569D01*
X0056052Y0086569D01*
X0057213Y0087730D01*
X0057213Y0092973D01*
X0056052Y0094134D01*
X0049608Y0094134D01*
X0048447Y0092973D01*
X0048447Y0087730D01*
X0049608Y0086569D01*
X0049668Y0086569D01*
X0049668Y0080037D01*
X0050149Y0078875D01*
X0053605Y0075420D01*
X0053605Y0073749D01*
X0056149Y0071205D01*
X0059747Y0071205D01*
X0061842Y0073300D02*
X0071508Y0073300D01*
X0069604Y0074898D02*
X0062291Y0074898D01*
X0062291Y0076497D02*
X0067672Y0076497D01*
X0065741Y0078095D02*
X0061544Y0078095D01*
X0059945Y0079694D02*
X0063809Y0079694D01*
X0059841Y0081292D02*
X0056676Y0081292D01*
X0055992Y0082891D02*
X0058243Y0082891D01*
X0057542Y0084489D02*
X0055992Y0084489D01*
X0055992Y0086088D02*
X0057542Y0086088D01*
X0057169Y0087686D02*
X0058038Y0087686D01*
X0057213Y0089285D02*
X0059637Y0089285D01*
X0059760Y0090883D02*
X0057213Y0090883D01*
X0057213Y0092482D02*
X0058315Y0092482D01*
X0056870Y0094080D02*
X0056106Y0094080D01*
X0055425Y0095679D02*
X0044113Y0095679D01*
X0046066Y0094080D02*
X0049554Y0094080D01*
X0048447Y0092482D02*
X0047061Y0092482D01*
X0047431Y0090883D02*
X0048447Y0090883D01*
X0048447Y0089285D02*
X0047339Y0089285D01*
X0046677Y0087686D02*
X0048491Y0087686D01*
X0049668Y0086088D02*
X0045101Y0086088D01*
X0045367Y0084489D02*
X0049668Y0084489D01*
X0049668Y0082891D02*
X0046674Y0082891D01*
X0047195Y0081292D02*
X0049668Y0081292D01*
X0049810Y0079694D02*
X0047178Y0079694D01*
X0046618Y0078095D02*
X0050929Y0078095D01*
X0052528Y0076497D02*
X0045215Y0076497D01*
X0045248Y0074898D02*
X0053605Y0074898D01*
X0054054Y0073300D02*
X0046722Y0073300D01*
X0047385Y0071701D02*
X0055653Y0071701D01*
X0042125Y0080473D02*
X0037150Y0080473D01*
X0037150Y0080151D01*
X0037165Y0080055D01*
X0023709Y0093512D01*
X0023709Y0107703D01*
X0029195Y0113190D01*
X0029195Y0106415D01*
X0029677Y0105253D01*
X0030566Y0104364D01*
X0037062Y0097867D01*
X0037780Y0097570D01*
X0039237Y0096114D01*
X0040602Y0095548D01*
X0039237Y0094983D01*
X0037765Y0093511D01*
X0036969Y0091589D01*
X0036969Y0089508D01*
X0037765Y0087585D01*
X0039237Y0086114D01*
X0040885Y0085431D01*
X0040261Y0085228D01*
X0039553Y0084867D01*
X0038910Y0084400D01*
X0038348Y0083838D01*
X0037881Y0083195D01*
X0037520Y0082487D01*
X0037274Y0081731D01*
X0037150Y0080946D01*
X0037150Y0080623D01*
X0042125Y0080623D01*
X0042125Y0080473D01*
X0037205Y0081292D02*
X0035928Y0081292D01*
X0034330Y0082891D02*
X0037726Y0082891D01*
X0039033Y0084489D02*
X0032731Y0084489D01*
X0031133Y0086088D02*
X0039299Y0086088D01*
X0037723Y0087686D02*
X0029534Y0087686D01*
X0027936Y0089285D02*
X0037061Y0089285D01*
X0036969Y0090883D02*
X0026337Y0090883D01*
X0024739Y0092482D02*
X0037339Y0092482D01*
X0038334Y0094080D02*
X0023709Y0094080D01*
X0023709Y0095679D02*
X0040287Y0095679D01*
X0038073Y0097277D02*
X0023709Y0097277D01*
X0023709Y0098876D02*
X0036054Y0098876D01*
X0034455Y0100474D02*
X0023709Y0100474D01*
X0023709Y0102073D02*
X0032857Y0102073D01*
X0031258Y0103671D02*
X0023709Y0103671D01*
X0023709Y0105270D02*
X0029670Y0105270D01*
X0029195Y0106868D02*
X0023709Y0106868D01*
X0024472Y0108467D02*
X0029195Y0108467D01*
X0029195Y0110065D02*
X0026071Y0110065D01*
X0027669Y0111664D02*
X0029195Y0111664D01*
X0035520Y0111664D02*
X0036969Y0111664D01*
X0036969Y0113262D02*
X0035520Y0113262D01*
X0035520Y0113608D02*
X0035520Y0108354D01*
X0036969Y0106905D01*
X0036969Y0114619D01*
X0038129Y0115779D01*
X0046271Y0115779D01*
X0047431Y0114619D01*
X0047431Y0113136D01*
X0048227Y0112339D01*
X0053520Y0107047D01*
X0056052Y0107047D01*
X0057213Y0105887D01*
X0057213Y0103132D01*
X0064020Y0095602D01*
X0076974Y0082647D01*
X0084077Y0082647D01*
X0083132Y0083592D01*
X0083132Y0085262D01*
X0073716Y0094678D01*
X0072826Y0095568D01*
X0072345Y0096730D01*
X0072345Y0102166D01*
X0071324Y0103187D01*
X0070573Y0105000D01*
X0070573Y0106963D01*
X0071324Y0108776D01*
X0072712Y0110164D01*
X0074526Y0110915D01*
X0076488Y0110915D01*
X0078302Y0110164D01*
X0079690Y0108776D01*
X0080441Y0106963D01*
X0080441Y0105000D01*
X0079690Y0103187D01*
X0078669Y0102166D01*
X0078669Y0098669D01*
X0087604Y0089734D01*
X0089275Y0089734D01*
X0091819Y0087190D01*
X0091819Y0083592D01*
X0090875Y0082647D01*
X0097947Y0082647D01*
X0099109Y0082166D01*
X0099999Y0081277D01*
X0099999Y0081276D01*
X0111810Y0069465D01*
X0112291Y0068303D01*
X0112291Y0061110D01*
X0118313Y0055088D01*
X0145191Y0055088D01*
X0146353Y0054607D01*
X0148668Y0052293D01*
X0148668Y0053107D01*
X0152436Y0053107D01*
X0152436Y0053107D01*
X0152436Y0049732D01*
X0151228Y0049733D01*
X0153148Y0047812D01*
X0153630Y0046650D01*
X0153630Y0041546D01*
X0154574Y0042490D01*
X0158172Y0042490D01*
X0160717Y0039946D01*
X0160717Y0038275D01*
X0162101Y0036890D01*
X0162991Y0036001D01*
X0163472Y0034839D01*
X0163472Y0026965D01*
X0163472Y0025707D01*
X0162991Y0024544D01*
X0161023Y0022576D01*
X0160133Y0021686D01*
X0159982Y0021624D01*
X0162937Y0021624D01*
X0168809Y0027495D01*
X0168809Y0030492D01*
X0171902Y0033585D01*
X0172896Y0033585D01*
X0172896Y0036716D01*
X0171952Y0035772D01*
X0168354Y0035772D01*
X0165809Y0038316D01*
X0165809Y0041914D01*
X0166991Y0043095D01*
X0166991Y0054553D01*
X0166874Y0054670D01*
X0164079Y0054670D01*
X0164079Y0053107D01*
X0160310Y0053107D01*
X0160310Y0053107D01*
X0160310Y0049732D01*
X0158105Y0049733D01*
X0157647Y0049855D01*
X0157237Y0050092D01*
X0156901Y0050427D01*
X0156664Y0050838D01*
X0156542Y0051296D01*
X0156542Y0053107D01*
X0160310Y0053107D01*
X0160310Y0053107D01*
X0160310Y0049733D01*
X0162516Y0049733D01*
X0162974Y0049855D01*
X0163384Y0050092D01*
X0163719Y0050427D01*
X0163956Y0050838D01*
X0164079Y0051296D01*
X0164079Y0053107D01*
X0160310Y0053107D01*
X0156542Y0053107D01*
X0156542Y0054919D01*
X0156664Y0055377D01*
X0156863Y0055721D01*
X0156373Y0056211D01*
X0155883Y0055721D01*
X0156082Y0055377D01*
X0156205Y0054919D01*
X0156205Y0053107D01*
X0152436Y0053107D01*
X0152436Y0053107D01*
X0152436Y0049733D01*
X0154642Y0049733D01*
X0155099Y0049855D01*
X0155510Y0050092D01*
X0155845Y0050427D01*
X0156082Y0050838D01*
X0156205Y0051296D01*
X0156205Y0053107D01*
X0152436Y0053107D01*
X0148668Y0053107D01*
X0148668Y0054919D01*
X0148790Y0055377D01*
X0148989Y0055721D01*
X0148487Y0056224D01*
X0148487Y0059551D01*
X0148330Y0059394D01*
X0144732Y0059394D01*
X0142187Y0061938D01*
X0142187Y0065536D01*
X0144732Y0068081D01*
X0145470Y0068081D01*
X0149471Y0074662D01*
X0149471Y0075390D01*
X0149569Y0075627D01*
X0149569Y0077550D01*
X0150730Y0078710D01*
X0154536Y0078710D01*
X0154788Y0078458D01*
X0155054Y0078529D01*
X0156373Y0078529D01*
X0156373Y0074761D01*
X0156373Y0074761D01*
X0156373Y0078529D01*
X0157148Y0078529D01*
X0157148Y0081421D01*
X0156361Y0082208D01*
X0156361Y0086999D01*
X0156863Y0087501D01*
X0156664Y0087846D01*
X0156542Y0088303D01*
X0156542Y0090115D01*
X0160310Y0090115D01*
X0160310Y0090115D01*
X0156542Y0090115D01*
X0156542Y0091927D01*
X0156664Y0092385D01*
X0156901Y0092795D01*
X0157237Y0093130D01*
X0157647Y0093367D01*
X0158105Y0093490D01*
X0160310Y0093490D01*
X0160310Y0090115D01*
X0160310Y0090115D01*
X0160310Y0090115D01*
X0164079Y0090115D01*
X0164079Y0088303D01*
X0163956Y0087846D01*
X0163757Y0087501D01*
X0164260Y0086999D01*
X0164260Y0082208D01*
X0163472Y0081421D01*
X0163472Y0077923D01*
X0167632Y0077923D01*
X0168794Y0077442D01*
X0169684Y0076552D01*
X0176058Y0070178D01*
X0186676Y0080795D01*
X0186676Y0088018D01*
X0166874Y0107819D01*
X0132093Y0107819D01*
X0131780Y0107506D01*
X0131780Y0099203D01*
X0132173Y0098810D01*
X0132173Y0093419D01*
X0135298Y0096543D01*
X0135298Y0098810D01*
X0136458Y0099970D01*
X0136630Y0099970D01*
X0136282Y0100318D01*
X0136282Y0105896D01*
X0137442Y0107057D01*
X0142233Y0107057D01*
X0142736Y0106554D01*
X0143080Y0106753D01*
X0143538Y0106876D01*
X0145350Y0106876D01*
X0145350Y0103107D01*
X0145350Y0103107D01*
X0148724Y0103107D01*
X0148724Y0100902D01*
X0148602Y0100444D01*
X0148365Y0100034D01*
X0148120Y0099789D01*
X0148146Y0099789D01*
X0148603Y0099667D01*
X0149014Y0099430D01*
X0149349Y0099094D01*
X0149586Y0098684D01*
X0149709Y0098226D01*
X0149709Y0095627D01*
X0146334Y0095627D01*
X0146334Y0095627D01*
X0149709Y0095627D01*
X0149709Y0093028D01*
X0149586Y0092570D01*
X0149349Y0092160D01*
X0149014Y0091824D01*
X0148603Y0091587D01*
X0148146Y0091465D01*
X0146334Y0091465D01*
X0146334Y0095627D01*
X0146334Y0095627D01*
X0146334Y0091465D01*
X0144522Y0091465D01*
X0144064Y0091587D01*
X0143654Y0091824D01*
X0143319Y0092160D01*
X0143082Y0092570D01*
X0142959Y0093028D01*
X0142959Y0095627D01*
X0146334Y0095627D01*
X0146334Y0095627D01*
X0142959Y0095627D01*
X0142959Y0095883D01*
X0142519Y0094820D01*
X0142409Y0094711D01*
X0142409Y0092444D01*
X0141274Y0091309D01*
X0144989Y0091309D01*
X0146150Y0090148D01*
X0146150Y0083783D01*
X0145756Y0083389D01*
X0145756Y0079892D01*
X0146361Y0079892D01*
X0148905Y0077347D01*
X0148905Y0073749D01*
X0146361Y0071205D01*
X0142763Y0071205D01*
X0142606Y0071362D01*
X0142606Y0070791D01*
X0141446Y0069630D01*
X0136655Y0069630D01*
X0136294Y0069991D01*
X0135934Y0069630D01*
X0131143Y0069630D01*
X0130356Y0070418D01*
X0124248Y0070418D01*
X0123086Y0070899D01*
X0122196Y0071788D01*
X0120811Y0073173D01*
X0119141Y0073173D01*
X0116597Y0075718D01*
X0116597Y0079316D01*
X0119141Y0081860D01*
X0122739Y0081860D01*
X0125283Y0079316D01*
X0125283Y0077645D01*
X0126187Y0076742D01*
X0130356Y0076742D01*
X0131143Y0077529D01*
X0135934Y0077529D01*
X0136294Y0077169D01*
X0136655Y0077529D01*
X0138528Y0077529D01*
X0139431Y0078433D01*
X0139431Y0083389D01*
X0139038Y0083783D01*
X0139038Y0090148D01*
X0140173Y0091284D01*
X0138982Y0091284D01*
X0131983Y0084285D01*
X0130821Y0083803D01*
X0128433Y0083803D01*
X0128433Y0083783D01*
X0127273Y0082622D01*
X0122482Y0082622D01*
X0121321Y0083783D01*
X0121321Y0090148D01*
X0122457Y0091284D01*
X0118742Y0091284D01*
X0117581Y0092444D01*
X0117581Y0098810D01*
X0117975Y0099203D01*
X0117975Y0111807D01*
X0118456Y0112969D01*
X0121180Y0115693D01*
X0116374Y0115693D01*
X0115212Y0116175D01*
X0111756Y0119630D01*
X0098836Y0119630D01*
X0099690Y0118776D01*
X0100441Y0116963D01*
X0100441Y0115519D01*
X0108952Y0107009D01*
X0109841Y0106119D01*
X0110323Y0104957D01*
X0110323Y0080795D01*
X0121652Y0069465D01*
X0121863Y0068956D01*
X0123315Y0067505D01*
X0123315Y0063907D01*
X0120771Y0061362D01*
X0117173Y0061362D01*
X0114628Y0063907D01*
X0114628Y0067505D01*
X0114649Y0067525D01*
X0104480Y0077694D01*
X0103998Y0078856D01*
X0103998Y0103018D01*
X0100184Y0106832D01*
X0100260Y0106355D01*
X0100260Y0106166D01*
X0095691Y0106166D01*
X0095323Y0106166D01*
X0095323Y0110734D01*
X0095133Y0110734D01*
X0094394Y0110617D01*
X0093683Y0110386D01*
X0093016Y0110046D01*
X0092411Y0109607D01*
X0091882Y0109078D01*
X0091442Y0108472D01*
X0091103Y0107806D01*
X0090871Y0107094D01*
X0090754Y0106355D01*
X0090754Y0106166D01*
X0095323Y0106166D01*
X0095323Y0105797D01*
X0095691Y0105797D01*
X0095691Y0101229D01*
X0095881Y0101229D01*
X0096620Y0101346D01*
X0097332Y0101577D01*
X0097998Y0101916D01*
X0098603Y0102356D01*
X0099132Y0102885D01*
X0099572Y0103490D01*
X0099912Y0104157D01*
X0100143Y0104868D01*
X0100260Y0105607D01*
X0100260Y0105797D01*
X0095691Y0105797D01*
X0095691Y0106166D01*
X0095691Y0110734D01*
X0095881Y0110734D01*
X0096358Y0110659D01*
X0095969Y0111047D01*
X0094526Y0111047D01*
X0092712Y0111799D01*
X0091324Y0113187D01*
X0090573Y0115000D01*
X0090573Y0116963D01*
X0091324Y0118776D01*
X0092178Y0119630D01*
X0088836Y0119630D01*
X0089690Y0118776D01*
X0090441Y0116963D01*
X0090441Y0115000D01*
X0089690Y0113187D01*
X0088302Y0111799D01*
X0086488Y0111047D01*
X0084526Y0111047D01*
X0082712Y0111799D01*
X0081324Y0113187D01*
X0080573Y0115000D01*
X0080573Y0116963D01*
X0081324Y0118776D01*
X0082178Y0119630D01*
X0078836Y0119630D01*
X0079690Y0118776D01*
X0080441Y0116963D01*
X0080441Y0115000D01*
X0079690Y0113187D01*
X0078302Y0111799D01*
X0076488Y0111047D01*
X0074526Y0111047D01*
X0072712Y0111799D01*
X0071324Y0113187D01*
X0070573Y0115000D01*
X0070573Y0116963D01*
X0070717Y0117310D01*
X0064260Y0110853D01*
X0064260Y0109182D01*
X0061716Y0106638D01*
X0058117Y0106638D01*
X0055573Y0109182D01*
X0055573Y0112780D01*
X0058117Y0115325D01*
X0059788Y0115325D01*
X0068030Y0123567D01*
X0058354Y0123567D01*
X0058354Y0121972D01*
X0057194Y0120811D01*
X0052403Y0120811D01*
X0052043Y0121172D01*
X0051682Y0120811D01*
X0046891Y0120811D01*
X0046104Y0121599D01*
X0043510Y0121599D01*
X0035520Y0113608D01*
X0036772Y0114861D02*
X0037211Y0114861D01*
X0038371Y0116459D02*
X0060923Y0116459D01*
X0062521Y0118058D02*
X0039969Y0118058D01*
X0041568Y0119656D02*
X0064120Y0119656D01*
X0065718Y0121255D02*
X0057637Y0121255D01*
X0058354Y0122853D02*
X0067317Y0122853D01*
X0069867Y0116459D02*
X0070573Y0116459D01*
X0070631Y0114861D02*
X0068268Y0114861D01*
X0066670Y0113262D02*
X0071293Y0113262D01*
X0073038Y0111664D02*
X0065071Y0111664D01*
X0064260Y0110065D02*
X0072614Y0110065D01*
X0071196Y0108467D02*
X0063544Y0108467D01*
X0061946Y0106868D02*
X0070573Y0106868D01*
X0070573Y0105270D02*
X0057213Y0105270D01*
X0057213Y0103671D02*
X0071124Y0103671D01*
X0072345Y0102073D02*
X0058170Y0102073D01*
X0059615Y0100474D02*
X0072345Y0100474D01*
X0072345Y0098876D02*
X0061060Y0098876D01*
X0062505Y0097277D02*
X0072345Y0097277D01*
X0072780Y0095679D02*
X0063951Y0095679D01*
X0065542Y0094080D02*
X0074314Y0094080D01*
X0075913Y0092482D02*
X0067140Y0092482D01*
X0068739Y0090883D02*
X0077511Y0090883D01*
X0079110Y0089285D02*
X0070337Y0089285D01*
X0071936Y0087686D02*
X0080708Y0087686D01*
X0082307Y0086088D02*
X0073534Y0086088D01*
X0075133Y0084489D02*
X0083132Y0084489D01*
X0083833Y0082891D02*
X0076731Y0082891D01*
X0080054Y0076323D02*
X0096008Y0076323D01*
X0105967Y0066364D01*
X0105967Y0059171D01*
X0106448Y0058009D01*
X0107338Y0057119D01*
X0114322Y0050135D01*
X0115212Y0049245D01*
X0116374Y0048764D01*
X0143252Y0048764D01*
X0144802Y0047214D01*
X0143157Y0047214D01*
X0140613Y0044670D01*
X0140613Y0043277D01*
X0091446Y0043277D01*
X0090658Y0044065D01*
X0085868Y0044065D01*
X0085507Y0043704D01*
X0085147Y0044065D01*
X0080356Y0044065D01*
X0079568Y0043277D01*
X0077666Y0043277D01*
X0076879Y0044065D01*
X0072088Y0044065D01*
X0071586Y0043562D01*
X0071241Y0043761D01*
X0070783Y0043884D01*
X0068972Y0043884D01*
X0068972Y0040115D01*
X0068972Y0036347D01*
X0069393Y0036347D01*
X0068449Y0035403D01*
X0065941Y0035403D01*
X0064779Y0034922D01*
X0060536Y0030679D01*
X0059801Y0030679D01*
X0058204Y0030018D01*
X0056982Y0028796D01*
X0056321Y0027200D01*
X0056321Y0025472D01*
X0056982Y0023875D01*
X0058204Y0022654D01*
X0059801Y0021992D01*
X0061529Y0021992D01*
X0063125Y0022654D01*
X0064347Y0023875D01*
X0065008Y0025472D01*
X0065008Y0026207D01*
X0066548Y0027747D01*
X0066321Y0027200D01*
X0066321Y0025472D01*
X0066982Y0023875D01*
X0068204Y0022654D01*
X0069801Y0021992D01*
X0071529Y0021992D01*
X0073125Y0022654D01*
X0074347Y0023875D01*
X0075008Y0025472D01*
X0075008Y0027200D01*
X0074347Y0028796D01*
X0073125Y0030018D01*
X0072335Y0030345D01*
X0072440Y0030450D01*
X0077164Y0035174D01*
X0077646Y0036337D01*
X0077646Y0036932D01*
X0077666Y0036953D01*
X0079568Y0036953D01*
X0080356Y0036166D01*
X0083289Y0036166D01*
X0081164Y0034040D01*
X0081164Y0030471D01*
X0080992Y0030498D01*
X0080665Y0030498D01*
X0080665Y0026336D01*
X0084827Y0026336D01*
X0084827Y0026663D01*
X0084724Y0027310D01*
X0084533Y0027898D01*
X0086611Y0027898D01*
X0086321Y0027200D01*
X0086321Y0025472D01*
X0086982Y0023875D01*
X0088204Y0022654D01*
X0089801Y0021992D01*
X0091529Y0021992D01*
X0093125Y0022654D01*
X0094347Y0023875D01*
X0095008Y0025472D01*
X0095008Y0027200D01*
X0094347Y0028796D01*
X0093393Y0029750D01*
X0094691Y0031047D01*
X0104867Y0031047D01*
X0104198Y0030770D01*
X0102726Y0029299D01*
X0101930Y0027376D01*
X0101930Y0025295D01*
X0102726Y0023373D01*
X0104198Y0021901D01*
X0104867Y0021624D01*
X0057289Y0021624D01*
X0055205Y0023708D01*
X0055205Y0040183D01*
X0071321Y0056300D01*
X0071321Y0052287D01*
X0072482Y0051126D01*
X0077273Y0051126D01*
X0077633Y0051487D01*
X0077994Y0051126D01*
X0082784Y0051126D01*
X0083945Y0052287D01*
X0083945Y0056731D01*
X0084413Y0059073D01*
X0084535Y0059368D01*
X0084535Y0059684D01*
X0084556Y0059788D01*
X0084929Y0060161D01*
X0084929Y0062427D01*
X0089376Y0066874D01*
X0091794Y0066874D01*
X0091794Y0066854D01*
X0092954Y0065693D01*
X0096669Y0065693D01*
X0095534Y0064558D01*
X0095534Y0058192D01*
X0095928Y0057799D01*
X0095928Y0057400D01*
X0095984Y0057264D01*
X0095997Y0057118D01*
X0096223Y0056687D01*
X0096409Y0056237D01*
X0096513Y0056134D01*
X0096912Y0055371D01*
X0096912Y0052096D01*
X0099456Y0049551D01*
X0103054Y0049551D01*
X0103605Y0050102D01*
X0103605Y0049094D01*
X0104266Y0047497D01*
X0105488Y0046276D01*
X0107084Y0045614D01*
X0108812Y0045614D01*
X0110408Y0046276D01*
X0111630Y0047497D01*
X0112291Y0049094D01*
X0112291Y0050822D01*
X0111630Y0052418D01*
X0110408Y0053640D01*
X0108812Y0054301D01*
X0107084Y0054301D01*
X0105598Y0053686D01*
X0105598Y0055694D01*
X0103054Y0058238D01*
X0102646Y0058238D01*
X0102646Y0064558D01*
X0101485Y0065718D01*
X0097770Y0065718D01*
X0098905Y0066854D01*
X0098905Y0073219D01*
X0097745Y0074380D01*
X0092954Y0074380D01*
X0091794Y0073219D01*
X0091794Y0073199D01*
X0087437Y0073199D01*
X0086275Y0072717D01*
X0081244Y0067687D01*
X0080054Y0067687D01*
X0081189Y0068822D01*
X0081189Y0075188D01*
X0080054Y0076323D01*
X0081189Y0074898D02*
X0097433Y0074898D01*
X0098825Y0073300D02*
X0099032Y0073300D01*
X0098905Y0071701D02*
X0100630Y0071701D01*
X0102229Y0070103D02*
X0098905Y0070103D01*
X0098905Y0068504D02*
X0103827Y0068504D01*
X0105426Y0066906D02*
X0098905Y0066906D01*
X0096283Y0065307D02*
X0094065Y0065307D01*
X0093879Y0065415D02*
X0093421Y0065537D01*
X0091609Y0065537D01*
X0089798Y0065537D01*
X0089340Y0065415D01*
X0088929Y0065178D01*
X0088594Y0064842D01*
X0088357Y0064432D01*
X0088235Y0063974D01*
X0088235Y0061375D01*
X0088235Y0058776D01*
X0088357Y0058318D01*
X0088594Y0057908D01*
X0088929Y0057572D01*
X0089340Y0057335D01*
X0089798Y0057213D01*
X0091609Y0057213D01*
X0091609Y0061375D01*
X0088235Y0061375D01*
X0091609Y0061375D01*
X0091609Y0061375D01*
X0091609Y0061375D01*
X0091609Y0065537D01*
X0091609Y0061375D01*
X0091609Y0061375D01*
X0091609Y0057213D01*
X0093421Y0057213D01*
X0093879Y0057335D01*
X0094289Y0057572D01*
X0094625Y0057908D01*
X0094862Y0058318D01*
X0094984Y0058776D01*
X0094984Y0061375D01*
X0094984Y0063974D01*
X0094862Y0064432D01*
X0094625Y0064842D01*
X0094289Y0065178D01*
X0093879Y0065415D01*
X0094984Y0063708D02*
X0095534Y0063708D01*
X0095534Y0062110D02*
X0094984Y0062110D01*
X0094984Y0061375D02*
X0091610Y0061375D01*
X0091610Y0061375D01*
X0094984Y0061375D01*
X0094984Y0060511D02*
X0095534Y0060511D01*
X0095534Y0058913D02*
X0094984Y0058913D01*
X0095963Y0057314D02*
X0093800Y0057314D01*
X0091609Y0057314D02*
X0091609Y0057314D01*
X0091609Y0058913D02*
X0091609Y0058913D01*
X0091609Y0060511D02*
X0091609Y0060511D01*
X0091609Y0062110D02*
X0091609Y0062110D01*
X0091609Y0063708D02*
X0091609Y0063708D01*
X0091609Y0065307D02*
X0091609Y0065307D01*
X0089154Y0065307D02*
X0087809Y0065307D01*
X0088235Y0063708D02*
X0086210Y0063708D01*
X0084929Y0062110D02*
X0088235Y0062110D01*
X0088235Y0060511D02*
X0084929Y0060511D01*
X0084381Y0058913D02*
X0088235Y0058913D01*
X0089418Y0057314D02*
X0084062Y0057314D01*
X0083945Y0055716D02*
X0096731Y0055716D01*
X0096912Y0054117D02*
X0083945Y0054117D01*
X0083945Y0052519D02*
X0096912Y0052519D01*
X0098087Y0050920D02*
X0065942Y0050920D01*
X0064343Y0049322D02*
X0103605Y0049322D01*
X0104172Y0047723D02*
X0062745Y0047723D01*
X0061146Y0046125D02*
X0105852Y0046125D01*
X0110044Y0046125D02*
X0142067Y0046125D01*
X0140613Y0044526D02*
X0059548Y0044526D01*
X0057949Y0042928D02*
X0065806Y0042928D01*
X0065720Y0042778D02*
X0065597Y0042321D01*
X0065597Y0040115D01*
X0065597Y0037910D01*
X0065720Y0037452D01*
X0065956Y0037041D01*
X0066292Y0036706D01*
X0066702Y0036469D01*
X0067160Y0036347D01*
X0068972Y0036347D01*
X0068972Y0040115D01*
X0068972Y0040115D01*
X0068972Y0040115D01*
X0065597Y0040115D01*
X0068972Y0040115D01*
X0068972Y0040115D01*
X0068972Y0043884D01*
X0067160Y0043884D01*
X0066702Y0043761D01*
X0066292Y0043524D01*
X0065956Y0043189D01*
X0065720Y0042778D01*
X0065597Y0041329D02*
X0056351Y0041329D01*
X0055205Y0039731D02*
X0065597Y0039731D01*
X0065597Y0038132D02*
X0055205Y0038132D01*
X0055205Y0036534D02*
X0066590Y0036534D01*
X0068972Y0036534D02*
X0068972Y0036534D01*
X0068972Y0038132D02*
X0068972Y0038132D01*
X0068972Y0039731D02*
X0068972Y0039731D01*
X0068972Y0041329D02*
X0068972Y0041329D01*
X0068972Y0042928D02*
X0068972Y0042928D01*
X0064811Y0034935D02*
X0055205Y0034935D01*
X0055205Y0033337D02*
X0063194Y0033337D01*
X0061595Y0031738D02*
X0055205Y0031738D01*
X0055205Y0030140D02*
X0058499Y0030140D01*
X0056877Y0028541D02*
X0055205Y0028541D01*
X0055205Y0026943D02*
X0056321Y0026943D01*
X0056374Y0025344D02*
X0055205Y0025344D01*
X0055205Y0023746D02*
X0057112Y0023746D01*
X0056766Y0022147D02*
X0059427Y0022147D01*
X0061902Y0022147D02*
X0069427Y0022147D01*
X0071902Y0022147D02*
X0089427Y0022147D01*
X0091902Y0022147D02*
X0103952Y0022147D01*
X0102572Y0023746D02*
X0094217Y0023746D01*
X0094955Y0025344D02*
X0101930Y0025344D01*
X0101930Y0026943D02*
X0095008Y0026943D01*
X0094452Y0028541D02*
X0102413Y0028541D01*
X0103567Y0030140D02*
X0093783Y0030140D01*
X0086321Y0026943D02*
X0084782Y0026943D01*
X0084827Y0026336D02*
X0080665Y0026336D01*
X0080665Y0026336D01*
X0080664Y0026336D01*
X0080664Y0026336D01*
X0076502Y0026336D01*
X0076502Y0026663D01*
X0076605Y0027310D01*
X0076807Y0027933D01*
X0077105Y0028517D01*
X0077490Y0029047D01*
X0077953Y0029510D01*
X0078483Y0029895D01*
X0079067Y0030193D01*
X0079690Y0030395D01*
X0080337Y0030498D01*
X0080664Y0030498D01*
X0080664Y0026336D01*
X0076502Y0026336D01*
X0076502Y0026008D01*
X0076605Y0025361D01*
X0076807Y0024738D01*
X0077105Y0024154D01*
X0077490Y0023624D01*
X0077953Y0023161D01*
X0078483Y0022776D01*
X0079067Y0022478D01*
X0079690Y0022276D01*
X0080337Y0022173D01*
X0080664Y0022173D01*
X0080664Y0026336D01*
X0080665Y0026336D01*
X0080665Y0022173D01*
X0080992Y0022173D01*
X0081639Y0022276D01*
X0082262Y0022478D01*
X0082846Y0022776D01*
X0083376Y0023161D01*
X0083839Y0023624D01*
X0084224Y0024154D01*
X0084522Y0024738D01*
X0084724Y0025361D01*
X0084827Y0026008D01*
X0084827Y0026336D01*
X0084719Y0025344D02*
X0086374Y0025344D01*
X0087112Y0023746D02*
X0083928Y0023746D01*
X0080665Y0023746D02*
X0080664Y0023746D01*
X0080664Y0025344D02*
X0080665Y0025344D01*
X0080664Y0026943D02*
X0080665Y0026943D01*
X0080664Y0028541D02*
X0080665Y0028541D01*
X0080664Y0030140D02*
X0080665Y0030140D01*
X0081164Y0031738D02*
X0073728Y0031738D01*
X0072830Y0030140D02*
X0078963Y0030140D01*
X0077122Y0028541D02*
X0074452Y0028541D01*
X0075008Y0026943D02*
X0076547Y0026943D01*
X0076610Y0025344D02*
X0074955Y0025344D01*
X0074217Y0023746D02*
X0077401Y0023746D01*
X0067112Y0023746D02*
X0064217Y0023746D01*
X0064955Y0025344D02*
X0066374Y0025344D01*
X0066321Y0026943D02*
X0065744Y0026943D01*
X0075327Y0033337D02*
X0081164Y0033337D01*
X0082059Y0034935D02*
X0076925Y0034935D01*
X0077646Y0036534D02*
X0079988Y0036534D01*
X0071321Y0052519D02*
X0067540Y0052519D01*
X0069139Y0054117D02*
X0071321Y0054117D01*
X0071321Y0055716D02*
X0070737Y0055716D01*
X0080871Y0068504D02*
X0082062Y0068504D01*
X0081189Y0070103D02*
X0083660Y0070103D01*
X0085259Y0071701D02*
X0081189Y0071701D01*
X0081189Y0073300D02*
X0091874Y0073300D01*
X0091118Y0082891D02*
X0103998Y0082891D01*
X0103998Y0084489D02*
X0091819Y0084489D01*
X0091819Y0086088D02*
X0103998Y0086088D01*
X0103998Y0087686D02*
X0091323Y0087686D01*
X0089724Y0089285D02*
X0103998Y0089285D01*
X0103998Y0090883D02*
X0086455Y0090883D01*
X0084857Y0092482D02*
X0103998Y0092482D01*
X0103998Y0094080D02*
X0083258Y0094080D01*
X0081660Y0095679D02*
X0103998Y0095679D01*
X0103998Y0097277D02*
X0080061Y0097277D01*
X0078669Y0098876D02*
X0103998Y0098876D01*
X0103998Y0100474D02*
X0078669Y0100474D01*
X0078669Y0102073D02*
X0082438Y0102073D01*
X0082712Y0101799D02*
X0084526Y0101047D01*
X0086488Y0101047D01*
X0088302Y0101799D01*
X0089690Y0103187D01*
X0090441Y0105000D01*
X0090441Y0106963D01*
X0089690Y0108776D01*
X0088302Y0110164D01*
X0086488Y0110915D01*
X0084526Y0110915D01*
X0082712Y0110164D01*
X0081324Y0108776D01*
X0080573Y0106963D01*
X0080573Y0105000D01*
X0081324Y0103187D01*
X0082712Y0101799D01*
X0081124Y0103671D02*
X0079891Y0103671D01*
X0080441Y0105270D02*
X0080573Y0105270D01*
X0080573Y0106868D02*
X0080441Y0106868D01*
X0079818Y0108467D02*
X0081196Y0108467D01*
X0082614Y0110065D02*
X0078401Y0110065D01*
X0077977Y0111664D02*
X0083038Y0111664D01*
X0081293Y0113262D02*
X0079721Y0113262D01*
X0080383Y0114861D02*
X0080631Y0114861D01*
X0080573Y0116459D02*
X0080441Y0116459D01*
X0079987Y0118058D02*
X0081027Y0118058D01*
X0087977Y0111664D02*
X0093038Y0111664D01*
X0093054Y0110065D02*
X0088401Y0110065D01*
X0089818Y0108467D02*
X0091439Y0108467D01*
X0090836Y0106868D02*
X0090441Y0106868D01*
X0090754Y0105797D02*
X0090754Y0105607D01*
X0090871Y0104868D01*
X0091103Y0104157D01*
X0091442Y0103490D01*
X0091882Y0102885D01*
X0092411Y0102356D01*
X0093016Y0101916D01*
X0093683Y0101577D01*
X0094394Y0101346D01*
X0095133Y0101229D01*
X0095323Y0101229D01*
X0095323Y0105797D01*
X0090754Y0105797D01*
X0090808Y0105270D02*
X0090441Y0105270D01*
X0089891Y0103671D02*
X0091350Y0103671D01*
X0092801Y0102073D02*
X0088576Y0102073D01*
X0095323Y0102073D02*
X0095691Y0102073D01*
X0095691Y0103671D02*
X0095323Y0103671D01*
X0095323Y0105270D02*
X0095691Y0105270D01*
X0095691Y0106868D02*
X0095323Y0106868D01*
X0095323Y0108467D02*
X0095691Y0108467D01*
X0095691Y0110065D02*
X0095323Y0110065D01*
X0091293Y0113262D02*
X0089721Y0113262D01*
X0090383Y0114861D02*
X0090631Y0114861D01*
X0090573Y0116459D02*
X0090441Y0116459D01*
X0089987Y0118058D02*
X0091027Y0118058D01*
X0099987Y0118058D02*
X0113329Y0118058D01*
X0114927Y0116459D02*
X0100441Y0116459D01*
X0101100Y0114861D02*
X0120348Y0114861D01*
X0118749Y0113262D02*
X0102698Y0113262D01*
X0104297Y0111664D02*
X0117975Y0111664D01*
X0117975Y0110065D02*
X0105895Y0110065D01*
X0107494Y0108467D02*
X0117975Y0108467D01*
X0117975Y0106868D02*
X0109092Y0106868D01*
X0110193Y0105270D02*
X0117975Y0105270D01*
X0117975Y0103671D02*
X0110323Y0103671D01*
X0110323Y0102073D02*
X0117975Y0102073D01*
X0117975Y0100474D02*
X0110323Y0100474D01*
X0110323Y0098876D02*
X0117647Y0098876D01*
X0117581Y0097277D02*
X0110323Y0097277D01*
X0110323Y0095679D02*
X0117581Y0095679D01*
X0117581Y0094080D02*
X0110323Y0094080D01*
X0110323Y0092482D02*
X0117581Y0092482D01*
X0122056Y0090883D02*
X0110323Y0090883D01*
X0110323Y0089285D02*
X0121321Y0089285D01*
X0121321Y0087686D02*
X0110323Y0087686D01*
X0110323Y0086088D02*
X0121321Y0086088D01*
X0121321Y0084489D02*
X0110323Y0084489D01*
X0110323Y0082891D02*
X0122213Y0082891D01*
X0123307Y0081292D02*
X0139431Y0081292D01*
X0139431Y0079694D02*
X0124906Y0079694D01*
X0125283Y0078095D02*
X0139094Y0078095D01*
X0139431Y0082891D02*
X0127541Y0082891D01*
X0132188Y0084489D02*
X0139038Y0084489D01*
X0139038Y0086088D02*
X0133786Y0086088D01*
X0135385Y0087686D02*
X0139038Y0087686D01*
X0139038Y0089285D02*
X0136983Y0089285D01*
X0138582Y0090883D02*
X0139773Y0090883D01*
X0142409Y0092482D02*
X0143133Y0092482D01*
X0142959Y0094080D02*
X0142409Y0094080D01*
X0142874Y0095679D02*
X0142959Y0095679D01*
X0146334Y0094080D02*
X0146334Y0094080D01*
X0146334Y0092482D02*
X0146334Y0092482D01*
X0145415Y0090883D02*
X0156542Y0090883D01*
X0156542Y0089285D02*
X0146150Y0089285D01*
X0146150Y0087686D02*
X0156756Y0087686D01*
X0156361Y0086088D02*
X0146150Y0086088D01*
X0146150Y0084489D02*
X0156361Y0084489D01*
X0156361Y0082891D02*
X0145756Y0082891D01*
X0145756Y0081292D02*
X0157148Y0081292D01*
X0157148Y0079694D02*
X0146559Y0079694D01*
X0148158Y0078095D02*
X0150114Y0078095D01*
X0149569Y0076497D02*
X0148905Y0076497D01*
X0148905Y0074898D02*
X0149471Y0074898D01*
X0148643Y0073300D02*
X0148456Y0073300D01*
X0147671Y0071701D02*
X0146857Y0071701D01*
X0146699Y0070103D02*
X0141918Y0070103D01*
X0143557Y0066906D02*
X0123315Y0066906D01*
X0123315Y0065307D02*
X0142187Y0065307D01*
X0142187Y0063708D02*
X0123117Y0063708D01*
X0121518Y0062110D02*
X0142187Y0062110D01*
X0143614Y0060511D02*
X0112890Y0060511D01*
X0112291Y0062110D02*
X0116425Y0062110D01*
X0114827Y0063708D02*
X0112291Y0063708D01*
X0112291Y0065307D02*
X0114628Y0065307D01*
X0114628Y0066906D02*
X0112291Y0066906D01*
X0112208Y0068504D02*
X0113670Y0068504D01*
X0112071Y0070103D02*
X0111173Y0070103D01*
X0110473Y0071701D02*
X0109574Y0071701D01*
X0108874Y0073300D02*
X0107976Y0073300D01*
X0107276Y0074898D02*
X0106377Y0074898D01*
X0105677Y0076497D02*
X0104779Y0076497D01*
X0104314Y0078095D02*
X0103180Y0078095D01*
X0103998Y0079694D02*
X0101582Y0079694D01*
X0099983Y0081292D02*
X0103998Y0081292D01*
X0110323Y0081292D02*
X0118573Y0081292D01*
X0116975Y0079694D02*
X0111424Y0079694D01*
X0113023Y0078095D02*
X0116597Y0078095D01*
X0116597Y0076497D02*
X0114621Y0076497D01*
X0116220Y0074898D02*
X0117416Y0074898D01*
X0117818Y0073300D02*
X0119015Y0073300D01*
X0119417Y0071701D02*
X0122284Y0071701D01*
X0121015Y0070103D02*
X0130671Y0070103D01*
X0122316Y0068504D02*
X0145728Y0068504D01*
X0153111Y0068474D02*
X0154531Y0070811D01*
X0154536Y0070811D01*
X0154788Y0071063D01*
X0155054Y0070992D01*
X0156373Y0070992D01*
X0156373Y0074761D01*
X0156373Y0074761D01*
X0156373Y0070992D01*
X0157693Y0070992D01*
X0157958Y0071063D01*
X0158210Y0070811D01*
X0162017Y0070811D01*
X0162804Y0071599D01*
X0165693Y0071599D01*
X0172896Y0064396D01*
X0172896Y0057503D01*
X0172834Y0057654D01*
X0171944Y0058544D01*
X0169975Y0060512D01*
X0168813Y0060994D01*
X0164260Y0060994D01*
X0164260Y0061015D01*
X0163276Y0061999D01*
X0163276Y0065154D01*
X0163177Y0065391D01*
X0163177Y0067314D01*
X0162017Y0068474D01*
X0158210Y0068474D01*
X0157050Y0067314D01*
X0157050Y0065391D01*
X0156951Y0065154D01*
X0156951Y0061605D01*
X0156373Y0061027D01*
X0155795Y0061605D01*
X0155795Y0065154D01*
X0155697Y0065391D01*
X0155697Y0067314D01*
X0154536Y0068474D01*
X0153111Y0068474D01*
X0153129Y0068504D02*
X0168788Y0068504D01*
X0170386Y0066906D02*
X0163177Y0066906D01*
X0163212Y0065307D02*
X0171985Y0065307D01*
X0172896Y0063708D02*
X0163276Y0063708D01*
X0163276Y0062110D02*
X0172896Y0062110D01*
X0172896Y0060511D02*
X0169977Y0060511D01*
X0171575Y0058913D02*
X0172896Y0058913D01*
X0166991Y0054117D02*
X0164079Y0054117D01*
X0164079Y0052519D02*
X0166991Y0052519D01*
X0166991Y0050920D02*
X0163978Y0050920D01*
X0166991Y0049322D02*
X0151639Y0049322D01*
X0152436Y0050920D02*
X0152436Y0050920D01*
X0152436Y0052519D02*
X0152436Y0052519D01*
X0152436Y0053107D02*
X0152436Y0053107D01*
X0148668Y0052519D02*
X0148442Y0052519D01*
X0148668Y0054117D02*
X0146843Y0054117D01*
X0148986Y0055716D02*
X0117685Y0055716D01*
X0116087Y0057314D02*
X0148487Y0057314D01*
X0148487Y0058913D02*
X0114488Y0058913D01*
X0110340Y0054117D02*
X0109255Y0054117D01*
X0108741Y0055716D02*
X0105576Y0055716D01*
X0105598Y0054117D02*
X0106641Y0054117D01*
X0107338Y0057119D02*
X0107338Y0057119D01*
X0107143Y0057314D02*
X0103978Y0057314D01*
X0102646Y0058913D02*
X0106074Y0058913D01*
X0105967Y0060511D02*
X0102646Y0060511D01*
X0102646Y0062110D02*
X0105967Y0062110D01*
X0105967Y0063708D02*
X0102646Y0063708D01*
X0101896Y0065307D02*
X0105967Y0065307D01*
X0111529Y0052519D02*
X0111938Y0052519D01*
X0112250Y0050920D02*
X0113537Y0050920D01*
X0114322Y0050135D02*
X0114322Y0050135D01*
X0115135Y0049322D02*
X0112291Y0049322D01*
X0111724Y0047723D02*
X0144293Y0047723D01*
X0153185Y0047723D02*
X0166991Y0047723D01*
X0166991Y0046125D02*
X0153630Y0046125D01*
X0153630Y0044526D02*
X0166991Y0044526D01*
X0166823Y0042928D02*
X0153630Y0042928D01*
X0147306Y0039078D02*
X0147306Y0037190D01*
X0146124Y0036009D01*
X0146124Y0032411D01*
X0148669Y0029866D01*
X0152267Y0029866D01*
X0154811Y0032411D01*
X0154811Y0033803D01*
X0156244Y0033803D01*
X0157148Y0032900D01*
X0157148Y0027645D01*
X0157032Y0027529D01*
X0132213Y0027529D01*
X0132496Y0027812D01*
X0133157Y0029409D01*
X0133157Y0031137D01*
X0132496Y0032733D01*
X0131274Y0033955D01*
X0129678Y0034616D01*
X0127950Y0034616D01*
X0126354Y0033955D01*
X0125132Y0032733D01*
X0124471Y0031137D01*
X0124471Y0029409D01*
X0124586Y0029130D01*
X0117715Y0036001D01*
X0116826Y0036890D01*
X0116675Y0036953D01*
X0142829Y0036953D01*
X0143991Y0037434D01*
X0145085Y0038528D01*
X0146755Y0038528D01*
X0147306Y0039078D01*
X0147306Y0038132D02*
X0144689Y0038132D01*
X0146649Y0036534D02*
X0117183Y0036534D01*
X0118781Y0034935D02*
X0146124Y0034935D01*
X0146124Y0033337D02*
X0131892Y0033337D01*
X0132908Y0031738D02*
X0146797Y0031738D01*
X0148395Y0030140D02*
X0133157Y0030140D01*
X0132798Y0028541D02*
X0157148Y0028541D01*
X0157148Y0030140D02*
X0152540Y0030140D01*
X0154139Y0031738D02*
X0157148Y0031738D01*
X0156711Y0033337D02*
X0154811Y0033337D01*
X0162458Y0036534D02*
X0167592Y0036534D01*
X0165993Y0038132D02*
X0160860Y0038132D01*
X0160717Y0039731D02*
X0165809Y0039731D01*
X0165809Y0041329D02*
X0159333Y0041329D01*
X0163432Y0034935D02*
X0172896Y0034935D01*
X0172896Y0036534D02*
X0172714Y0036534D01*
X0171654Y0033337D02*
X0163472Y0033337D01*
X0163472Y0031738D02*
X0170055Y0031738D01*
X0168809Y0030140D02*
X0163472Y0030140D01*
X0163472Y0028541D02*
X0168809Y0028541D01*
X0168256Y0026943D02*
X0163472Y0026943D01*
X0163322Y0025344D02*
X0166658Y0025344D01*
X0165059Y0023746D02*
X0162192Y0023746D01*
X0163461Y0022147D02*
X0160594Y0022147D01*
X0167609Y0017352D02*
X0188742Y0017352D01*
X0190007Y0016087D02*
X0187463Y0018631D01*
X0187463Y0022229D01*
X0188644Y0023410D01*
X0188644Y0036837D01*
X0185772Y0039709D01*
X0184102Y0039709D01*
X0181557Y0042253D01*
X0181557Y0045851D01*
X0184102Y0048395D01*
X0187700Y0048395D01*
X0190244Y0045851D01*
X0190244Y0044181D01*
X0193598Y0040827D01*
X0194487Y0039938D01*
X0194968Y0038776D01*
X0194968Y0023410D01*
X0196150Y0022229D01*
X0196150Y0018631D01*
X0193605Y0016087D01*
X0190007Y0016087D01*
X0194870Y0017352D02*
X0212051Y0017352D01*
X0211864Y0017803D02*
X0212317Y0016710D01*
X0213154Y0015873D01*
X0214247Y0015420D01*
X0215431Y0015420D01*
X0216524Y0015873D01*
X0217361Y0016710D01*
X0217814Y0017803D01*
X0217814Y0029661D01*
X0218851Y0029232D01*
X0220513Y0029232D01*
X0223374Y0026370D01*
X0223374Y0022407D01*
X0223827Y0021314D01*
X0224664Y0020477D01*
X0225757Y0020024D01*
X0226941Y0020024D01*
X0228034Y0020477D01*
X0228871Y0021314D01*
X0229324Y0022407D01*
X0229324Y0022723D01*
X0230733Y0021314D01*
X0230733Y0021314D01*
X0231570Y0020477D01*
X0232632Y0020037D01*
X0232663Y0020024D01*
X0238451Y0020024D01*
X0239544Y0020477D01*
X0241790Y0022723D01*
X0241790Y0022407D01*
X0242243Y0021314D01*
X0243080Y0020477D01*
X0244173Y0020024D01*
X0252262Y0020024D01*
X0253356Y0020477D01*
X0254192Y0021314D01*
X0256494Y0023616D01*
X0256947Y0024709D01*
X0256947Y0030496D01*
X0256494Y0031590D01*
X0255658Y0032426D01*
X0255658Y0032426D01*
X0254192Y0033892D01*
X0253356Y0034728D01*
X0252592Y0035045D01*
X0252262Y0035181D01*
X0244173Y0035181D01*
X0243080Y0034728D01*
X0242243Y0033892D01*
X0241790Y0032798D01*
X0241790Y0032482D01*
X0240381Y0033892D01*
X0239544Y0034728D01*
X0238780Y0035045D01*
X0238451Y0035181D01*
X0232663Y0035181D01*
X0231570Y0034728D01*
X0230733Y0033892D01*
X0229324Y0032482D01*
X0229324Y0032798D01*
X0228871Y0033892D01*
X0228034Y0034728D01*
X0226941Y0035181D01*
X0225757Y0035181D01*
X0224664Y0034728D01*
X0224047Y0034112D01*
X0223430Y0034728D01*
X0222648Y0035052D01*
X0222337Y0035181D01*
X0218851Y0035181D01*
X0217758Y0034728D01*
X0217141Y0034112D01*
X0216524Y0034728D01*
X0215431Y0035181D01*
X0207341Y0035181D01*
X0206248Y0034728D01*
X0203946Y0032426D01*
X0203109Y0031590D01*
X0202656Y0030496D01*
X0202656Y0024709D01*
X0202793Y0024380D01*
X0203109Y0023616D01*
X0203946Y0022779D01*
X0203946Y0022779D01*
X0205411Y0021314D01*
X0205411Y0021314D01*
X0206248Y0020477D01*
X0207341Y0020024D01*
X0211864Y0020024D01*
X0211864Y0017803D01*
X0211864Y0018950D02*
X0196150Y0018950D01*
X0196150Y0020549D02*
X0206176Y0020549D01*
X0204578Y0022147D02*
X0196150Y0022147D01*
X0194968Y0023746D02*
X0203055Y0023746D01*
X0202656Y0025344D02*
X0194968Y0025344D01*
X0194968Y0026943D02*
X0202656Y0026943D01*
X0202656Y0028541D02*
X0194968Y0028541D01*
X0194968Y0030140D02*
X0202656Y0030140D01*
X0203258Y0031738D02*
X0194968Y0031738D01*
X0194968Y0033337D02*
X0204856Y0033337D01*
X0206748Y0034935D02*
X0194968Y0034935D01*
X0194968Y0036534D02*
X0297037Y0036534D01*
X0297037Y0036219D02*
X0297490Y0035125D01*
X0298327Y0034289D01*
X0299420Y0033836D01*
X0301641Y0033836D01*
X0301641Y0022407D01*
X0302094Y0021314D01*
X0302931Y0020477D01*
X0304024Y0020024D01*
X0305208Y0020024D01*
X0306301Y0020477D01*
X0307138Y0021314D01*
X0307591Y0022407D01*
X0307591Y0033836D01*
X0309811Y0033836D01*
X0310905Y0034289D01*
X0311742Y0035125D01*
X0312195Y0036219D01*
X0312195Y0037402D01*
X0311742Y0038496D01*
X0310905Y0039332D01*
X0309811Y0039785D01*
X0299420Y0039785D01*
X0298327Y0039332D01*
X0297490Y0038496D01*
X0297037Y0037402D01*
X0297037Y0036219D01*
X0297680Y0034935D02*
X0294292Y0034935D01*
X0294027Y0035045D02*
X0293698Y0035181D01*
X0287910Y0035181D01*
X0286817Y0034728D01*
X0285980Y0033892D01*
X0284571Y0032482D01*
X0284571Y0032798D01*
X0284118Y0033892D01*
X0283281Y0034728D01*
X0282188Y0035181D01*
X0274099Y0035181D01*
X0273005Y0034728D01*
X0270703Y0032426D01*
X0269866Y0031590D01*
X0269413Y0030496D01*
X0269413Y0024709D01*
X0269550Y0024380D01*
X0269866Y0023616D01*
X0270703Y0022779D01*
X0270703Y0022779D01*
X0272168Y0021314D01*
X0272168Y0021314D01*
X0273005Y0020477D01*
X0274099Y0020024D01*
X0278621Y0020024D01*
X0278621Y0017803D01*
X0279074Y0016710D01*
X0279911Y0015873D01*
X0281004Y0015420D01*
X0282188Y0015420D01*
X0283281Y0015873D01*
X0284118Y0016710D01*
X0284571Y0017803D01*
X0284571Y0022723D01*
X0285980Y0021314D01*
X0285980Y0021314D01*
X0286817Y0020477D01*
X0287879Y0020037D01*
X0287910Y0020024D01*
X0293698Y0020024D01*
X0294791Y0020477D01*
X0297930Y0023616D01*
X0298383Y0024709D01*
X0298383Y0025892D01*
X0298383Y0030496D01*
X0297930Y0031590D01*
X0297093Y0032426D01*
X0295628Y0033892D01*
X0294791Y0034728D01*
X0294027Y0035045D01*
X0295628Y0033892D02*
X0295628Y0033892D01*
X0296183Y0033337D02*
X0301641Y0033337D01*
X0301641Y0031738D02*
X0297781Y0031738D01*
X0297093Y0032426D02*
X0297093Y0032426D01*
X0298383Y0030140D02*
X0301641Y0030140D01*
X0301641Y0028541D02*
X0298383Y0028541D01*
X0298383Y0026943D02*
X0301641Y0026943D01*
X0301641Y0025344D02*
X0298383Y0025344D01*
X0297984Y0023746D02*
X0301641Y0023746D01*
X0301749Y0022147D02*
X0296462Y0022147D01*
X0294863Y0020549D02*
X0302859Y0020549D01*
X0306373Y0020549D02*
X0312067Y0020549D01*
X0312139Y0020477D02*
X0313232Y0020024D01*
X0319019Y0020024D01*
X0320113Y0020477D01*
X0320730Y0021094D01*
X0321346Y0020477D01*
X0322440Y0020024D01*
X0328227Y0020024D01*
X0329321Y0020477D01*
X0329937Y0021094D01*
X0330554Y0020477D01*
X0331648Y0020024D01*
X0337435Y0020024D01*
X0338528Y0020477D01*
X0339145Y0021094D01*
X0339762Y0020477D01*
X0340856Y0020024D01*
X0342039Y0020024D01*
X0343132Y0020477D01*
X0343969Y0021314D01*
X0344422Y0022407D01*
X0344422Y0026930D01*
X0347680Y0026930D01*
X0347680Y0022407D01*
X0348133Y0021314D01*
X0348970Y0020477D01*
X0350063Y0020024D01*
X0351247Y0020024D01*
X0352340Y0020477D01*
X0353177Y0021314D01*
X0353630Y0022407D01*
X0353630Y0037402D01*
X0353177Y0038496D01*
X0352340Y0039332D01*
X0351247Y0039785D01*
X0350063Y0039785D01*
X0348970Y0039332D01*
X0348133Y0038496D01*
X0347680Y0037402D01*
X0347680Y0032879D01*
X0344422Y0032879D01*
X0344422Y0037402D01*
X0343969Y0038496D01*
X0343132Y0039332D01*
X0342039Y0039785D01*
X0340856Y0039785D01*
X0339762Y0039332D01*
X0338925Y0038496D01*
X0338472Y0037402D01*
X0338472Y0034752D01*
X0337435Y0035181D01*
X0337086Y0035181D01*
X0337516Y0036219D01*
X0337516Y0039704D01*
X0337063Y0040798D01*
X0336226Y0041634D01*
X0335133Y0042087D01*
X0333950Y0042087D01*
X0332856Y0041634D01*
X0332019Y0040798D01*
X0331567Y0039704D01*
X0331567Y0036219D01*
X0332019Y0035125D01*
X0332636Y0034508D01*
X0332019Y0033892D01*
X0331567Y0032798D01*
X0331567Y0025940D01*
X0330554Y0025521D01*
X0329937Y0024904D01*
X0329321Y0025521D01*
X0328308Y0025940D01*
X0328308Y0033869D01*
X0329321Y0034289D01*
X0330157Y0035125D01*
X0330610Y0036219D01*
X0330610Y0037402D01*
X0330157Y0038496D01*
X0329321Y0039332D01*
X0328227Y0039785D01*
X0324742Y0039785D01*
X0323648Y0039332D01*
X0322812Y0038496D01*
X0322359Y0037402D01*
X0322359Y0025940D01*
X0321346Y0025521D01*
X0320730Y0024904D01*
X0320113Y0025521D01*
X0319100Y0025940D01*
X0319100Y0033869D01*
X0320113Y0034289D01*
X0320950Y0035125D01*
X0321402Y0036219D01*
X0321402Y0037402D01*
X0320950Y0038496D01*
X0320113Y0039332D01*
X0319019Y0039785D01*
X0315534Y0039785D01*
X0314441Y0039332D01*
X0313604Y0038496D01*
X0313151Y0037402D01*
X0313151Y0025940D01*
X0312139Y0025521D01*
X0311302Y0024684D01*
X0310849Y0023590D01*
X0310849Y0022407D01*
X0311302Y0021314D01*
X0312139Y0020477D01*
X0310956Y0022147D02*
X0307483Y0022147D01*
X0307591Y0023746D02*
X0310913Y0023746D01*
X0311962Y0025344D02*
X0307591Y0025344D01*
X0307591Y0026943D02*
X0313151Y0026943D01*
X0313151Y0028541D02*
X0307591Y0028541D01*
X0307591Y0030140D02*
X0313151Y0030140D01*
X0313151Y0031738D02*
X0307591Y0031738D01*
X0307591Y0033337D02*
X0313151Y0033337D01*
X0313151Y0034935D02*
X0311552Y0034935D01*
X0312195Y0036534D02*
X0313151Y0036534D01*
X0313453Y0038132D02*
X0311892Y0038132D01*
X0309943Y0039731D02*
X0315403Y0039731D01*
X0319151Y0039731D02*
X0324610Y0039731D01*
X0322661Y0038132D02*
X0321100Y0038132D01*
X0321402Y0036534D02*
X0322359Y0036534D01*
X0322359Y0034935D02*
X0320759Y0034935D01*
X0322359Y0033337D02*
X0319100Y0033337D01*
X0319100Y0031738D02*
X0322359Y0031738D01*
X0322359Y0030140D02*
X0319100Y0030140D01*
X0319100Y0028541D02*
X0322359Y0028541D01*
X0322359Y0026943D02*
X0319100Y0026943D01*
X0320289Y0025344D02*
X0321170Y0025344D01*
X0328308Y0026943D02*
X0331567Y0026943D01*
X0331567Y0028541D02*
X0328308Y0028541D01*
X0328308Y0030140D02*
X0331567Y0030140D01*
X0331567Y0031738D02*
X0328308Y0031738D01*
X0328308Y0033337D02*
X0331790Y0033337D01*
X0332209Y0034935D02*
X0329967Y0034935D01*
X0330610Y0036534D02*
X0331567Y0036534D01*
X0331567Y0038132D02*
X0330308Y0038132D01*
X0331578Y0039731D02*
X0328359Y0039731D01*
X0332551Y0041329D02*
X0203449Y0041329D01*
X0203449Y0041296D02*
X0203449Y0043108D01*
X0203326Y0043566D01*
X0203127Y0043910D01*
X0203630Y0044413D01*
X0203630Y0049203D01*
X0202843Y0049991D01*
X0202843Y0056638D01*
X0218026Y0056638D01*
X0219188Y0057119D01*
X0220078Y0058009D01*
X0220559Y0059171D01*
X0220559Y0059394D01*
X0234588Y0059394D01*
X0235375Y0058607D01*
X0239182Y0058607D01*
X0239434Y0058859D01*
X0239699Y0058788D01*
X0241019Y0058788D01*
X0242339Y0058788D01*
X0242604Y0058859D01*
X0242856Y0058607D01*
X0246662Y0058607D01*
X0247823Y0059767D01*
X0247823Y0060575D01*
X0251818Y0060575D01*
X0252999Y0059394D01*
X0256597Y0059394D01*
X0259142Y0061938D01*
X0259142Y0065536D01*
X0256597Y0068081D01*
X0252999Y0068081D01*
X0251818Y0066899D01*
X0245311Y0066899D01*
X0244361Y0066506D01*
X0242856Y0066506D01*
X0242604Y0066254D01*
X0242339Y0066325D01*
X0241019Y0066325D01*
X0241019Y0062556D01*
X0241019Y0058788D01*
X0241019Y0062556D01*
X0241019Y0062556D01*
X0241019Y0062556D01*
X0241019Y0066325D01*
X0239699Y0066325D01*
X0239434Y0066254D01*
X0239182Y0066506D01*
X0235375Y0066506D01*
X0234588Y0065718D01*
X0221346Y0065718D01*
X0221346Y0067314D01*
X0220986Y0067674D01*
X0221346Y0068035D01*
X0221346Y0072826D01*
X0220186Y0073986D01*
X0214654Y0073986D01*
X0214654Y0074355D01*
X0218813Y0074355D01*
X0219975Y0074836D01*
X0220865Y0075726D01*
X0224218Y0079079D01*
X0226091Y0079079D01*
X0227252Y0080239D01*
X0227252Y0085030D01*
X0226749Y0085533D01*
X0226948Y0085877D01*
X0227071Y0086335D01*
X0227071Y0088147D01*
X0227071Y0089958D01*
X0226948Y0090416D01*
X0226711Y0090827D01*
X0226376Y0091162D01*
X0225966Y0091399D01*
X0225508Y0091521D01*
X0223302Y0091521D01*
X0221097Y0091521D01*
X0220639Y0091399D01*
X0220229Y0091162D01*
X0219893Y0090827D01*
X0219657Y0090416D01*
X0219534Y0089958D01*
X0219534Y0088147D01*
X0223302Y0088147D01*
X0223302Y0088147D01*
X0223302Y0091521D01*
X0223302Y0088147D01*
X0223302Y0088147D01*
X0219534Y0088147D01*
X0219534Y0086335D01*
X0219657Y0085877D01*
X0219855Y0085533D01*
X0219353Y0085030D01*
X0219353Y0083157D01*
X0216874Y0080679D01*
X0214890Y0080679D01*
X0215835Y0081623D01*
X0215835Y0085221D01*
X0213290Y0087766D01*
X0209692Y0087766D01*
X0207148Y0085221D01*
X0207148Y0081623D01*
X0208329Y0080442D01*
X0208329Y0073986D01*
X0202797Y0073986D01*
X0202633Y0073822D01*
X0202469Y0073986D01*
X0196891Y0073986D01*
X0195731Y0072826D01*
X0195731Y0068035D01*
X0196091Y0067674D01*
X0195731Y0067314D01*
X0195731Y0062523D01*
X0196518Y0061736D01*
X0196518Y0049991D01*
X0195731Y0049203D01*
X0195731Y0044413D01*
X0196233Y0043910D01*
X0196034Y0043566D01*
X0195912Y0043108D01*
X0195912Y0041296D01*
X0195912Y0039484D01*
X0196034Y0039027D01*
X0196271Y0038616D01*
X0196607Y0038281D01*
X0197017Y0038044D01*
X0197475Y0037921D01*
X0199680Y0037921D01*
X0199680Y0041296D01*
X0195912Y0041296D01*
X0199680Y0041296D01*
X0199680Y0041296D01*
X0199680Y0041296D01*
X0199680Y0037921D01*
X0201886Y0037921D01*
X0202344Y0038044D01*
X0202754Y0038281D01*
X0203089Y0038616D01*
X0203326Y0039027D01*
X0203449Y0039484D01*
X0203449Y0041296D01*
X0199680Y0041296D01*
X0199680Y0041296D01*
X0203449Y0041296D01*
X0203449Y0039731D02*
X0299289Y0039731D01*
X0297340Y0038132D02*
X0202496Y0038132D01*
X0199680Y0038132D02*
X0199680Y0038132D01*
X0199680Y0039731D02*
X0199680Y0039731D01*
X0196864Y0038132D02*
X0194968Y0038132D01*
X0194573Y0039731D02*
X0195912Y0039731D01*
X0195912Y0041329D02*
X0193096Y0041329D01*
X0191497Y0042928D02*
X0195912Y0042928D01*
X0195731Y0044526D02*
X0190244Y0044526D01*
X0189970Y0046125D02*
X0195731Y0046125D01*
X0195731Y0047723D02*
X0188372Y0047723D01*
X0183430Y0047723D02*
X0179220Y0047723D01*
X0179220Y0046125D02*
X0181831Y0046125D01*
X0181557Y0044526D02*
X0179220Y0044526D01*
X0179220Y0042928D02*
X0181557Y0042928D01*
X0182481Y0041329D02*
X0179220Y0041329D01*
X0179220Y0039731D02*
X0184080Y0039731D01*
X0187349Y0038132D02*
X0179220Y0038132D01*
X0179220Y0036534D02*
X0188644Y0036534D01*
X0188644Y0034935D02*
X0179220Y0034935D01*
X0179220Y0033337D02*
X0179784Y0033337D01*
X0181964Y0033337D02*
X0181964Y0033337D01*
X0181964Y0031738D02*
X0181964Y0031738D01*
X0181964Y0030140D02*
X0181964Y0030140D01*
X0181964Y0028541D02*
X0181964Y0028541D01*
X0181964Y0026943D02*
X0181964Y0026943D01*
X0181964Y0025344D02*
X0181964Y0025344D01*
X0181964Y0023746D02*
X0181964Y0023746D01*
X0184618Y0023746D02*
X0188644Y0023746D01*
X0188644Y0025344D02*
X0186216Y0025344D01*
X0187064Y0026943D02*
X0188644Y0026943D01*
X0188644Y0028541D02*
X0187064Y0028541D01*
X0187064Y0030140D02*
X0188644Y0030140D01*
X0188644Y0031738D02*
X0185742Y0031738D01*
X0184144Y0033337D02*
X0188644Y0033337D01*
X0187463Y0022147D02*
X0172405Y0022147D01*
X0170806Y0020549D02*
X0187463Y0020549D01*
X0187463Y0018950D02*
X0169208Y0018950D01*
X0165972Y0015753D02*
X0213443Y0015753D01*
X0216235Y0015753D02*
X0280200Y0015753D01*
X0278808Y0017352D02*
X0217627Y0017352D01*
X0217814Y0018950D02*
X0278621Y0018950D01*
X0272933Y0020549D02*
X0253428Y0020549D01*
X0255026Y0022147D02*
X0271335Y0022147D01*
X0269812Y0023746D02*
X0256548Y0023746D01*
X0256947Y0025344D02*
X0269413Y0025344D01*
X0269413Y0026943D02*
X0256947Y0026943D01*
X0256947Y0028541D02*
X0269413Y0028541D01*
X0269413Y0030140D02*
X0256947Y0030140D01*
X0256346Y0031738D02*
X0270015Y0031738D01*
X0271613Y0033337D02*
X0254747Y0033337D01*
X0254192Y0033892D02*
X0254192Y0033892D01*
X0252856Y0034935D02*
X0273505Y0034935D01*
X0282782Y0034935D02*
X0287316Y0034935D01*
X0285425Y0033337D02*
X0284348Y0033337D01*
X0284571Y0022147D02*
X0285146Y0022147D01*
X0284571Y0020549D02*
X0286745Y0020549D01*
X0284571Y0018950D02*
X0387829Y0018950D01*
X0388516Y0018264D02*
X0386491Y0020289D01*
X0385394Y0022935D01*
X0385394Y0025799D01*
X0386491Y0028445D01*
X0388516Y0030470D01*
X0391162Y0031566D01*
X0394026Y0031566D01*
X0396672Y0030470D01*
X0398697Y0028445D01*
X0399793Y0025799D01*
X0399793Y0022935D01*
X0398697Y0020289D01*
X0396672Y0018264D01*
X0394026Y0017168D01*
X0391162Y0017168D01*
X0388516Y0018264D01*
X0390718Y0017352D02*
X0284384Y0017352D01*
X0282992Y0015753D02*
X0402705Y0015753D01*
X0402705Y0017352D02*
X0394469Y0017352D01*
X0397358Y0018950D02*
X0402705Y0018950D01*
X0402705Y0020549D02*
X0398804Y0020549D01*
X0399467Y0022147D02*
X0402705Y0022147D01*
X0402705Y0023746D02*
X0399793Y0023746D01*
X0399793Y0025344D02*
X0402705Y0025344D01*
X0402705Y0026943D02*
X0399319Y0026943D01*
X0398601Y0028541D02*
X0402705Y0028541D01*
X0402705Y0030140D02*
X0397002Y0030140D01*
X0402705Y0031738D02*
X0353630Y0031738D01*
X0353630Y0030140D02*
X0388185Y0030140D01*
X0386587Y0028541D02*
X0353630Y0028541D01*
X0353630Y0026943D02*
X0385868Y0026943D01*
X0385394Y0025344D02*
X0353630Y0025344D01*
X0353630Y0023746D02*
X0385394Y0023746D01*
X0385721Y0022147D02*
X0353522Y0022147D01*
X0352412Y0020549D02*
X0386383Y0020549D01*
X0402705Y0033337D02*
X0353630Y0033337D01*
X0353630Y0034935D02*
X0402705Y0034935D01*
X0402705Y0036534D02*
X0353630Y0036534D01*
X0353327Y0038132D02*
X0402705Y0038132D01*
X0402705Y0039731D02*
X0351378Y0039731D01*
X0349932Y0039731D02*
X0342170Y0039731D01*
X0340724Y0039731D02*
X0337505Y0039731D01*
X0337516Y0038132D02*
X0338775Y0038132D01*
X0338472Y0036534D02*
X0337516Y0036534D01*
X0338029Y0034935D02*
X0338472Y0034935D01*
X0344422Y0034935D02*
X0347680Y0034935D01*
X0347680Y0033337D02*
X0344422Y0033337D01*
X0344422Y0036534D02*
X0347680Y0036534D01*
X0347983Y0038132D02*
X0344120Y0038132D01*
X0336531Y0041329D02*
X0402705Y0041329D01*
X0402705Y0042928D02*
X0203449Y0042928D01*
X0203630Y0044526D02*
X0402705Y0044526D01*
X0402705Y0046125D02*
X0255139Y0046125D01*
X0256738Y0047723D02*
X0295044Y0047723D01*
X0294931Y0047837D02*
X0295394Y0047373D01*
X0295924Y0046988D01*
X0296508Y0046691D01*
X0297131Y0046489D01*
X0297778Y0046386D01*
X0298105Y0046386D01*
X0298105Y0050548D01*
X0293943Y0050548D01*
X0293943Y0050221D01*
X0294046Y0049574D01*
X0294248Y0048951D01*
X0294546Y0048367D01*
X0294931Y0047837D01*
X0294128Y0049322D02*
X0257173Y0049322D01*
X0258265Y0050920D02*
X0293950Y0050920D01*
X0293943Y0050876D02*
X0293943Y0050548D01*
X0298105Y0050548D01*
X0298105Y0050548D01*
X0298106Y0050548D01*
X0298106Y0050548D01*
X0302268Y0050548D01*
X0302268Y0050221D01*
X0302165Y0049574D01*
X0301963Y0048951D01*
X0301665Y0048367D01*
X0301280Y0047837D01*
X0300817Y0047373D01*
X0300287Y0046988D01*
X0299703Y0046691D01*
X0299080Y0046489D01*
X0298433Y0046386D01*
X0298106Y0046386D01*
X0298106Y0050548D01*
X0302268Y0050548D01*
X0302268Y0050876D01*
X0302165Y0051523D01*
X0301963Y0052146D01*
X0301665Y0052730D01*
X0301280Y0053260D01*
X0300817Y0053723D01*
X0300287Y0054108D01*
X0299703Y0054406D01*
X0299080Y0054608D01*
X0298433Y0054710D01*
X0298106Y0054710D01*
X0298106Y0050548D01*
X0298105Y0050548D01*
X0298105Y0054710D01*
X0297778Y0054710D01*
X0297131Y0054608D01*
X0296508Y0054406D01*
X0295924Y0054108D01*
X0295394Y0053723D01*
X0294931Y0053260D01*
X0294546Y0052730D01*
X0294248Y0052146D01*
X0294046Y0051523D01*
X0293943Y0050876D01*
X0294438Y0052519D02*
X0259863Y0052519D01*
X0261462Y0054117D02*
X0295942Y0054117D01*
X0298105Y0054117D02*
X0298106Y0054117D01*
X0298105Y0052519D02*
X0298106Y0052519D01*
X0298105Y0050920D02*
X0298106Y0050920D01*
X0298105Y0049322D02*
X0298106Y0049322D01*
X0298105Y0047723D02*
X0298106Y0047723D01*
X0301167Y0047723D02*
X0402705Y0047723D01*
X0402705Y0049322D02*
X0302083Y0049322D01*
X0302261Y0050920D02*
X0402705Y0050920D01*
X0402705Y0052519D02*
X0301773Y0052519D01*
X0300269Y0054117D02*
X0402705Y0054117D01*
X0402705Y0055716D02*
X0263060Y0055716D01*
X0264659Y0057314D02*
X0402705Y0057314D01*
X0402705Y0058913D02*
X0266257Y0058913D01*
X0267543Y0060511D02*
X0402705Y0060511D01*
X0402705Y0062110D02*
X0267803Y0062110D01*
X0267803Y0063708D02*
X0402705Y0063708D01*
X0402705Y0065307D02*
X0267803Y0065307D01*
X0267803Y0066906D02*
X0402705Y0066906D01*
X0402705Y0068504D02*
X0267803Y0068504D01*
X0267803Y0070103D02*
X0402705Y0070103D01*
X0402705Y0071701D02*
X0267803Y0071701D01*
X0267803Y0073300D02*
X0402705Y0073300D01*
X0402705Y0074898D02*
X0267803Y0074898D01*
X0267803Y0076497D02*
X0402705Y0076497D01*
X0402705Y0078095D02*
X0267803Y0078095D01*
X0267803Y0079694D02*
X0402705Y0079694D01*
X0402705Y0081292D02*
X0274559Y0081292D01*
X0276157Y0082891D02*
X0402705Y0082891D01*
X0402705Y0084489D02*
X0276858Y0084489D01*
X0276858Y0086088D02*
X0402705Y0086088D01*
X0402705Y0087686D02*
X0276362Y0087686D01*
X0275677Y0089285D02*
X0402705Y0089285D01*
X0402705Y0090883D02*
X0275677Y0090883D01*
X0278433Y0092482D02*
X0402705Y0092482D01*
X0402705Y0094080D02*
X0358213Y0094080D01*
X0359535Y0095679D02*
X0402705Y0095679D01*
X0402705Y0097277D02*
X0359535Y0097277D01*
X0359535Y0098876D02*
X0402705Y0098876D01*
X0402705Y0100474D02*
X0358062Y0100474D01*
X0354793Y0102073D02*
X0402705Y0102073D01*
X0402705Y0103671D02*
X0353195Y0103671D01*
X0351596Y0105270D02*
X0402705Y0105270D01*
X0402705Y0106868D02*
X0349998Y0106868D01*
X0348399Y0108467D02*
X0402705Y0108467D01*
X0402705Y0110065D02*
X0346801Y0110065D01*
X0345202Y0111664D02*
X0402705Y0111664D01*
X0402705Y0113262D02*
X0343604Y0113262D01*
X0342005Y0114861D02*
X0402705Y0114861D01*
X0402705Y0116459D02*
X0340407Y0116459D01*
X0338808Y0118058D02*
X0402705Y0118058D01*
X0402705Y0119656D02*
X0394330Y0119656D01*
X0394026Y0119530D02*
X0396672Y0120626D01*
X0398697Y0122651D01*
X0399793Y0125297D01*
X0399793Y0128161D01*
X0398697Y0130807D01*
X0396672Y0132833D01*
X0394026Y0133929D01*
X0391162Y0133929D01*
X0388516Y0132833D01*
X0386491Y0130807D01*
X0385394Y0128161D01*
X0385394Y0125297D01*
X0386491Y0122651D01*
X0388516Y0120626D01*
X0391162Y0119530D01*
X0394026Y0119530D01*
X0390857Y0119656D02*
X0337210Y0119656D01*
X0335611Y0121255D02*
X0387887Y0121255D01*
X0386407Y0122853D02*
X0334013Y0122853D01*
X0332414Y0124452D02*
X0385745Y0124452D01*
X0385394Y0126050D02*
X0330816Y0126050D01*
X0329217Y0127649D02*
X0385394Y0127649D01*
X0385844Y0129247D02*
X0327618Y0129247D01*
X0326020Y0130846D02*
X0386529Y0130846D01*
X0388128Y0132444D02*
X0324421Y0132444D01*
X0321871Y0126050D02*
X0242233Y0126050D01*
X0243831Y0124452D02*
X0323470Y0124452D01*
X0325068Y0122853D02*
X0245430Y0122853D01*
X0247028Y0121255D02*
X0326667Y0121255D01*
X0328265Y0119656D02*
X0248627Y0119656D01*
X0250225Y0118058D02*
X0329864Y0118058D01*
X0331463Y0116459D02*
X0251824Y0116459D01*
X0253422Y0114861D02*
X0333061Y0114861D01*
X0334660Y0113262D02*
X0255021Y0113262D01*
X0256619Y0111664D02*
X0336258Y0111664D01*
X0337857Y0110065D02*
X0258218Y0110065D01*
X0259816Y0108467D02*
X0339455Y0108467D01*
X0341054Y0106868D02*
X0261415Y0106868D01*
X0263013Y0105270D02*
X0342652Y0105270D01*
X0344251Y0103671D02*
X0301125Y0103671D01*
X0302175Y0102073D02*
X0345849Y0102073D01*
X0347448Y0100474D02*
X0302449Y0100474D01*
X0302114Y0098876D02*
X0349046Y0098876D01*
X0350645Y0097277D02*
X0300977Y0097277D01*
X0295234Y0097277D02*
X0278148Y0097277D01*
X0278433Y0095679D02*
X0350849Y0095679D01*
X0352171Y0094080D02*
X0278433Y0094080D01*
X0269353Y0089285D02*
X0261898Y0089285D01*
X0261898Y0090883D02*
X0262843Y0090883D01*
X0262660Y0092482D02*
X0261898Y0092482D01*
X0261959Y0094080D02*
X0262660Y0094080D01*
X0261898Y0087686D02*
X0268668Y0087686D01*
X0268172Y0086088D02*
X0261898Y0086088D01*
X0266078Y0084489D02*
X0268172Y0084489D01*
X0268873Y0082891D02*
X0267469Y0082891D01*
X0267803Y0081292D02*
X0270471Y0081292D01*
X0261479Y0073300D02*
X0247921Y0073300D01*
X0247921Y0074898D02*
X0254972Y0074898D01*
X0254967Y0076497D02*
X0247921Y0076497D01*
X0247921Y0078095D02*
X0254967Y0078095D01*
X0258735Y0076497D02*
X0258735Y0076497D01*
X0258735Y0074898D02*
X0258735Y0074898D01*
X0261479Y0071701D02*
X0247823Y0071701D01*
X0247823Y0070103D02*
X0261479Y0070103D01*
X0261479Y0068504D02*
X0221346Y0068504D01*
X0221346Y0066906D02*
X0251824Y0066906D01*
X0257772Y0066906D02*
X0261479Y0066906D01*
X0261479Y0065307D02*
X0259142Y0065307D01*
X0259142Y0063708D02*
X0261479Y0063708D01*
X0260510Y0062110D02*
X0259142Y0062110D01*
X0258912Y0060511D02*
X0257715Y0060511D01*
X0257313Y0058913D02*
X0246969Y0058913D01*
X0247823Y0060511D02*
X0251882Y0060511D01*
X0255715Y0057314D02*
X0219383Y0057314D01*
X0220452Y0058913D02*
X0235069Y0058913D01*
X0241019Y0058913D02*
X0241019Y0058913D01*
X0241019Y0060511D02*
X0241019Y0060511D01*
X0241019Y0062110D02*
X0241019Y0062110D01*
X0241019Y0063708D02*
X0241019Y0063708D01*
X0241019Y0065307D02*
X0241019Y0065307D01*
X0240343Y0070103D02*
X0241695Y0070103D01*
X0241695Y0071701D02*
X0240343Y0071701D01*
X0240441Y0073300D02*
X0241597Y0073300D01*
X0241597Y0074898D02*
X0240441Y0074898D01*
X0240441Y0076497D02*
X0241597Y0076497D01*
X0241597Y0078095D02*
X0240441Y0078095D01*
X0240879Y0079694D02*
X0241158Y0079694D01*
X0234117Y0079694D02*
X0231205Y0079694D01*
X0232803Y0078095D02*
X0234117Y0078095D01*
X0234117Y0076497D02*
X0233858Y0076497D01*
X0234117Y0081292D02*
X0227252Y0081292D01*
X0227252Y0082891D02*
X0234117Y0082891D01*
X0234707Y0084489D02*
X0227252Y0084489D01*
X0227005Y0086088D02*
X0234707Y0086088D01*
X0240613Y0087686D02*
X0227071Y0087686D01*
X0227071Y0088147D02*
X0223302Y0088147D01*
X0227071Y0088147D01*
X0227071Y0089285D02*
X0240613Y0089285D01*
X0240613Y0090883D02*
X0226655Y0090883D01*
X0223302Y0090883D02*
X0223302Y0090883D01*
X0223302Y0089285D02*
X0223302Y0089285D01*
X0223302Y0088147D02*
X0223302Y0088147D01*
X0219534Y0087686D02*
X0213370Y0087686D01*
X0214968Y0086088D02*
X0219600Y0086088D01*
X0219353Y0084489D02*
X0215835Y0084489D01*
X0215835Y0082891D02*
X0219086Y0082891D01*
X0217488Y0081292D02*
X0215504Y0081292D01*
X0208329Y0079694D02*
X0193000Y0079694D01*
X0193000Y0081292D02*
X0207479Y0081292D01*
X0207148Y0082891D02*
X0193000Y0082891D01*
X0193000Y0084489D02*
X0207148Y0084489D01*
X0208014Y0086088D02*
X0193000Y0086088D01*
X0193000Y0087686D02*
X0209613Y0087686D01*
X0199062Y0094080D02*
X0240613Y0094080D01*
X0240613Y0092482D02*
X0197464Y0092482D01*
X0195865Y0090883D02*
X0219950Y0090883D01*
X0219534Y0089285D02*
X0194267Y0089285D01*
X0189838Y0093800D02*
X0194802Y0098764D01*
X0191976Y0098764D01*
X0189431Y0101308D01*
X0189431Y0104906D01*
X0190279Y0105754D01*
X0190015Y0108003D01*
X0189431Y0108586D01*
X0189431Y0119630D01*
X0169494Y0119630D01*
X0168007Y0118143D01*
X0166845Y0117662D01*
X0159353Y0117662D01*
X0158172Y0116481D01*
X0154574Y0116481D01*
X0152030Y0119025D01*
X0152030Y0122048D01*
X0144126Y0114144D01*
X0168813Y0114144D01*
X0169975Y0113662D01*
X0189838Y0093800D01*
X0190118Y0094080D02*
X0189557Y0094080D01*
X0187959Y0095679D02*
X0191717Y0095679D01*
X0193315Y0097277D02*
X0186360Y0097277D01*
X0184762Y0098876D02*
X0191864Y0098876D01*
X0190266Y0100474D02*
X0183163Y0100474D01*
X0181565Y0102073D02*
X0189431Y0102073D01*
X0189431Y0103671D02*
X0179966Y0103671D01*
X0178368Y0105270D02*
X0189795Y0105270D01*
X0190148Y0106868D02*
X0176769Y0106868D01*
X0175171Y0108467D02*
X0189551Y0108467D01*
X0189431Y0110065D02*
X0173572Y0110065D01*
X0171974Y0111664D02*
X0189431Y0111664D01*
X0189431Y0113262D02*
X0170375Y0113262D01*
X0167801Y0118058D02*
X0189431Y0118058D01*
X0189431Y0116459D02*
X0146441Y0116459D01*
X0144843Y0114861D02*
X0189431Y0114861D01*
X0198499Y0111375D02*
X0198499Y0111375D01*
X0198499Y0110065D02*
X0198499Y0110065D01*
X0198499Y0108467D02*
X0198499Y0108467D01*
X0196516Y0106868D02*
X0203204Y0106868D01*
X0201610Y0108467D02*
X0235124Y0108467D01*
X0233526Y0110065D02*
X0201874Y0110065D01*
X0201874Y0111664D02*
X0231927Y0111664D01*
X0230329Y0113262D02*
X0201874Y0113262D01*
X0207967Y0106868D02*
X0236723Y0106868D01*
X0238321Y0105270D02*
X0209566Y0105270D01*
X0209929Y0103671D02*
X0239920Y0103671D01*
X0240613Y0102073D02*
X0209929Y0102073D01*
X0209095Y0100474D02*
X0240613Y0100474D01*
X0240613Y0098876D02*
X0207497Y0098876D01*
X0202259Y0097277D02*
X0240613Y0097277D01*
X0240613Y0095679D02*
X0200661Y0095679D01*
X0199709Y0103671D02*
X0198118Y0103671D01*
X0197755Y0105270D02*
X0201308Y0105270D01*
X0200937Y0104899D02*
X0200937Y0104899D01*
X0185409Y0089285D02*
X0164079Y0089285D01*
X0164079Y0090115D02*
X0164079Y0091927D01*
X0163956Y0092385D01*
X0163719Y0092795D01*
X0163384Y0093130D01*
X0162974Y0093367D01*
X0162516Y0093490D01*
X0160310Y0093490D01*
X0160310Y0090115D01*
X0164079Y0090115D01*
X0164079Y0090883D02*
X0183810Y0090883D01*
X0182212Y0092482D02*
X0163900Y0092482D01*
X0160310Y0092482D02*
X0160310Y0092482D01*
X0160310Y0090883D02*
X0160310Y0090883D01*
X0156720Y0092482D02*
X0149535Y0092482D01*
X0149709Y0094080D02*
X0180613Y0094080D01*
X0179015Y0095679D02*
X0149709Y0095679D01*
X0149709Y0097277D02*
X0177416Y0097277D01*
X0175818Y0098876D02*
X0149475Y0098876D01*
X0148610Y0100474D02*
X0174219Y0100474D01*
X0172621Y0102073D02*
X0148724Y0102073D01*
X0148724Y0103107D02*
X0145350Y0103107D01*
X0145350Y0103107D01*
X0145350Y0106876D01*
X0147161Y0106876D01*
X0147619Y0106753D01*
X0148030Y0106516D01*
X0148365Y0106181D01*
X0148602Y0105771D01*
X0148724Y0105313D01*
X0148724Y0103107D01*
X0148724Y0103671D02*
X0171022Y0103671D01*
X0169424Y0105270D02*
X0148724Y0105270D01*
X0147189Y0106868D02*
X0167825Y0106868D01*
X0152997Y0118058D02*
X0148040Y0118058D01*
X0149638Y0119656D02*
X0152030Y0119656D01*
X0152030Y0121255D02*
X0151237Y0121255D01*
X0145350Y0106868D02*
X0145350Y0106868D01*
X0145350Y0105270D02*
X0145350Y0105270D01*
X0145350Y0103671D02*
X0145350Y0103671D01*
X0143510Y0106868D02*
X0142422Y0106868D01*
X0137254Y0106868D02*
X0131780Y0106868D01*
X0131780Y0105270D02*
X0136282Y0105270D01*
X0136282Y0103671D02*
X0131780Y0103671D01*
X0131780Y0102073D02*
X0136282Y0102073D01*
X0136282Y0100474D02*
X0131780Y0100474D01*
X0132107Y0098876D02*
X0135364Y0098876D01*
X0135298Y0097277D02*
X0132173Y0097277D01*
X0132173Y0095679D02*
X0134433Y0095679D01*
X0132835Y0094080D02*
X0132173Y0094080D01*
X0156373Y0078095D02*
X0156373Y0078095D01*
X0156373Y0076497D02*
X0156373Y0076497D01*
X0156373Y0074898D02*
X0156373Y0074898D01*
X0156373Y0073300D02*
X0156373Y0073300D01*
X0156373Y0071701D02*
X0156373Y0071701D01*
X0154100Y0070103D02*
X0167189Y0070103D01*
X0174535Y0071701D02*
X0177582Y0071701D01*
X0179180Y0073300D02*
X0172936Y0073300D01*
X0171338Y0074898D02*
X0180779Y0074898D01*
X0182377Y0076497D02*
X0169739Y0076497D01*
X0163472Y0078095D02*
X0183976Y0078095D01*
X0185574Y0079694D02*
X0163472Y0079694D01*
X0163472Y0081292D02*
X0186676Y0081292D01*
X0186676Y0082891D02*
X0164260Y0082891D01*
X0164260Y0084489D02*
X0186676Y0084489D01*
X0186676Y0086088D02*
X0164260Y0086088D01*
X0163864Y0087686D02*
X0186676Y0087686D01*
X0192685Y0078095D02*
X0208329Y0078095D01*
X0208329Y0076497D02*
X0191321Y0076497D01*
X0189723Y0074898D02*
X0208329Y0074898D01*
X0220038Y0074898D02*
X0224865Y0074898D01*
X0224865Y0076497D02*
X0221636Y0076497D01*
X0223235Y0078095D02*
X0225612Y0078095D01*
X0226706Y0079694D02*
X0227211Y0079694D01*
X0225314Y0073300D02*
X0220872Y0073300D01*
X0221346Y0071701D02*
X0226913Y0071701D01*
X0232163Y0070103D02*
X0221346Y0070103D01*
X0202843Y0055716D02*
X0254116Y0055716D01*
X0250847Y0054117D02*
X0202843Y0054117D01*
X0202843Y0052519D02*
X0249249Y0052519D01*
X0248487Y0050920D02*
X0202843Y0050920D01*
X0203512Y0049322D02*
X0248487Y0049322D01*
X0248922Y0047723D02*
X0203630Y0047723D01*
X0203630Y0046125D02*
X0250520Y0046125D01*
X0243579Y0034935D02*
X0239044Y0034935D01*
X0240381Y0033892D02*
X0240381Y0033892D01*
X0240935Y0033337D02*
X0242013Y0033337D01*
X0232069Y0034935D02*
X0227535Y0034935D01*
X0229101Y0033337D02*
X0230178Y0033337D01*
X0225163Y0034935D02*
X0222931Y0034935D01*
X0218257Y0034935D02*
X0216025Y0034935D01*
X0217814Y0028541D02*
X0221203Y0028541D01*
X0222802Y0026943D02*
X0217814Y0026943D01*
X0217814Y0025344D02*
X0223374Y0025344D01*
X0223374Y0023746D02*
X0217814Y0023746D01*
X0217814Y0022147D02*
X0223482Y0022147D01*
X0224592Y0020549D02*
X0217814Y0020549D01*
X0228106Y0020549D02*
X0231498Y0020549D01*
X0229899Y0022147D02*
X0229216Y0022147D01*
X0239616Y0020549D02*
X0243008Y0020549D01*
X0241897Y0022147D02*
X0241214Y0022147D01*
X0195849Y0049322D02*
X0179220Y0049322D01*
X0179220Y0050920D02*
X0196518Y0050920D01*
X0196518Y0052519D02*
X0179220Y0052519D01*
X0179220Y0054117D02*
X0196518Y0054117D01*
X0196518Y0055716D02*
X0179220Y0055716D01*
X0179220Y0057314D02*
X0196518Y0057314D01*
X0196518Y0058913D02*
X0179220Y0058913D01*
X0179220Y0060511D02*
X0196518Y0060511D01*
X0196144Y0062110D02*
X0179220Y0062110D01*
X0179220Y0063708D02*
X0195731Y0063708D01*
X0195731Y0065307D02*
X0180132Y0065307D01*
X0181730Y0066906D02*
X0195731Y0066906D01*
X0195731Y0068504D02*
X0183329Y0068504D01*
X0184927Y0070103D02*
X0195731Y0070103D01*
X0195731Y0071701D02*
X0186526Y0071701D01*
X0188124Y0073300D02*
X0196205Y0073300D01*
X0160310Y0053107D02*
X0160310Y0053107D01*
X0160310Y0052519D02*
X0160310Y0052519D01*
X0160310Y0050920D02*
X0160310Y0050920D01*
X0156642Y0050920D02*
X0156104Y0050920D01*
X0156205Y0052519D02*
X0156542Y0052519D01*
X0156542Y0054117D02*
X0156205Y0054117D01*
X0155886Y0055716D02*
X0156860Y0055716D01*
X0156951Y0062110D02*
X0155795Y0062110D01*
X0155795Y0063708D02*
X0156951Y0063708D01*
X0157015Y0065307D02*
X0155732Y0065307D01*
X0155697Y0066906D02*
X0157050Y0066906D01*
X0125736Y0033337D02*
X0120380Y0033337D01*
X0121978Y0031738D02*
X0124720Y0031738D01*
X0124471Y0030140D02*
X0123577Y0030140D01*
X0177000Y0023746D02*
X0179310Y0023746D01*
X0247331Y0085403D02*
X0247331Y0086211D01*
X0246937Y0086605D01*
X0246937Y0104917D01*
X0246456Y0106080D01*
X0232968Y0119568D01*
X0231805Y0120049D01*
X0201682Y0120049D01*
X0201661Y0120070D01*
X0201661Y0120665D01*
X0201180Y0121828D01*
X0200290Y0122717D01*
X0199441Y0123567D01*
X0235772Y0123567D01*
X0258582Y0100758D01*
X0255159Y0100758D01*
X0253998Y0099597D01*
X0253998Y0094806D01*
X0255159Y0093646D01*
X0255573Y0093646D01*
X0255573Y0085424D01*
X0255553Y0085403D01*
X0247331Y0085403D01*
X0247331Y0086088D02*
X0255573Y0086088D01*
X0255573Y0087686D02*
X0246937Y0087686D01*
X0246937Y0089285D02*
X0255573Y0089285D01*
X0255573Y0090883D02*
X0246937Y0090883D01*
X0246937Y0092482D02*
X0255573Y0092482D01*
X0254725Y0094080D02*
X0246937Y0094080D01*
X0246937Y0095679D02*
X0253998Y0095679D01*
X0253998Y0097277D02*
X0246937Y0097277D01*
X0246937Y0098876D02*
X0253998Y0098876D01*
X0254875Y0100474D02*
X0246937Y0100474D01*
X0246937Y0102073D02*
X0257266Y0102073D01*
X0255668Y0103671D02*
X0246937Y0103671D01*
X0246791Y0105270D02*
X0254069Y0105270D01*
X0252471Y0106868D02*
X0245667Y0106868D01*
X0244068Y0108467D02*
X0250872Y0108467D01*
X0249274Y0110065D02*
X0242470Y0110065D01*
X0240871Y0111664D02*
X0247675Y0111664D01*
X0246077Y0113262D02*
X0239273Y0113262D01*
X0237674Y0114861D02*
X0244478Y0114861D01*
X0242880Y0116459D02*
X0236076Y0116459D01*
X0234477Y0118058D02*
X0241281Y0118058D01*
X0239683Y0119656D02*
X0232753Y0119656D01*
X0236486Y0122853D02*
X0200154Y0122853D01*
X0201417Y0121255D02*
X0238084Y0121255D01*
X0271013Y0103671D02*
X0274350Y0103671D01*
X0329497Y0025344D02*
X0330378Y0025344D01*
X0330482Y0020549D02*
X0329393Y0020549D01*
X0321274Y0020549D02*
X0320185Y0020549D01*
X0338600Y0020549D02*
X0339690Y0020549D01*
X0343204Y0020549D02*
X0348898Y0020549D01*
X0347788Y0022147D02*
X0344314Y0022147D01*
X0344422Y0023746D02*
X0347680Y0023746D01*
X0347680Y0025344D02*
X0344422Y0025344D01*
X0397300Y0121255D02*
X0402705Y0121255D01*
X0402705Y0122853D02*
X0398781Y0122853D01*
X0399443Y0124452D02*
X0402705Y0124452D01*
X0402705Y0126050D02*
X0399793Y0126050D01*
X0399793Y0127649D02*
X0402705Y0127649D01*
X0402705Y0129247D02*
X0399343Y0129247D01*
X0398658Y0130846D02*
X0402705Y0130846D01*
X0402705Y0132444D02*
X0397060Y0132444D01*
X0402705Y0134043D02*
X0012404Y0134043D01*
X0012404Y0135641D02*
X0402705Y0135641D01*
X0103998Y0102073D02*
X0098213Y0102073D01*
X0099664Y0103671D02*
X0103345Y0103671D01*
X0101747Y0105270D02*
X0100206Y0105270D01*
X0057887Y0106868D02*
X0056231Y0106868D01*
X0056289Y0108467D02*
X0052100Y0108467D01*
X0050501Y0110065D02*
X0055573Y0110065D01*
X0055573Y0111664D02*
X0048903Y0111664D01*
X0047431Y0113262D02*
X0056055Y0113262D01*
X0057654Y0114861D02*
X0047189Y0114861D01*
X0046448Y0121255D02*
X0043166Y0121255D01*
X0033112Y0126050D02*
X0029714Y0126050D01*
X0029714Y0125297D02*
X0028618Y0122651D01*
X0026593Y0120626D01*
X0023947Y0119530D01*
X0021083Y0119530D01*
X0018437Y0120626D01*
X0016412Y0122651D01*
X0015316Y0125297D01*
X0015316Y0128161D01*
X0016412Y0130807D01*
X0018437Y0132833D01*
X0021083Y0133929D01*
X0023947Y0133929D01*
X0026593Y0132833D01*
X0028618Y0130807D01*
X0029714Y0128161D01*
X0029714Y0125297D01*
X0029364Y0124452D02*
X0031514Y0124452D01*
X0029915Y0122853D02*
X0028702Y0122853D01*
X0028316Y0121255D02*
X0027222Y0121255D01*
X0026718Y0119656D02*
X0024252Y0119656D01*
X0025119Y0118058D02*
X0012404Y0118058D01*
X0012404Y0119656D02*
X0020778Y0119656D01*
X0017808Y0121255D02*
X0012404Y0121255D01*
X0012404Y0122853D02*
X0016328Y0122853D01*
X0015666Y0124452D02*
X0012404Y0124452D01*
X0012404Y0126050D02*
X0015316Y0126050D01*
X0015316Y0127649D02*
X0012404Y0127649D01*
X0012404Y0129247D02*
X0015766Y0129247D01*
X0016450Y0130846D02*
X0012404Y0130846D01*
X0012404Y0132444D02*
X0018049Y0132444D01*
X0026981Y0132444D02*
X0039506Y0132444D01*
X0037908Y0130846D02*
X0028580Y0130846D01*
X0029264Y0129247D02*
X0036309Y0129247D01*
X0034711Y0127649D02*
X0029714Y0127649D01*
X0023521Y0116459D02*
X0012404Y0116459D01*
X0012404Y0114861D02*
X0021922Y0114861D01*
X0020324Y0113262D02*
X0012404Y0113262D01*
X0012404Y0111664D02*
X0018725Y0111664D01*
X0017560Y0110065D02*
X0012404Y0110065D01*
X0012404Y0108467D02*
X0017384Y0108467D01*
X0017384Y0106868D02*
X0012404Y0106868D01*
X0012404Y0105270D02*
X0017384Y0105270D01*
X0017384Y0103671D02*
X0012404Y0103671D01*
X0012404Y0102073D02*
X0017384Y0102073D01*
X0017384Y0100474D02*
X0012404Y0100474D01*
X0012404Y0098876D02*
X0017384Y0098876D01*
X0017384Y0097277D02*
X0012404Y0097277D01*
X0012404Y0095679D02*
X0017384Y0095679D01*
X0017384Y0094080D02*
X0012404Y0094080D01*
X0012404Y0092482D02*
X0017384Y0092482D01*
X0017670Y0090883D02*
X0012404Y0090883D01*
X0012404Y0089285D02*
X0018992Y0089285D01*
X0020590Y0087686D02*
X0012404Y0087686D01*
X0012404Y0086088D02*
X0022189Y0086088D01*
X0023787Y0084489D02*
X0012404Y0084489D01*
X0012404Y0082891D02*
X0025386Y0082891D01*
X0026984Y0081292D02*
X0012404Y0081292D01*
X0012404Y0079694D02*
X0028583Y0079694D01*
X0030181Y0078095D02*
X0012404Y0078095D01*
X0012404Y0076497D02*
X0031780Y0076497D01*
X0033378Y0074898D02*
X0012404Y0074898D01*
X0012404Y0073300D02*
X0034977Y0073300D01*
X0036575Y0071701D02*
X0012404Y0071701D01*
X0012404Y0070103D02*
X0036969Y0070103D01*
X0037385Y0068504D02*
X0012404Y0068504D01*
X0012404Y0066906D02*
X0038445Y0066906D01*
X0040019Y0065307D02*
X0012404Y0065307D01*
X0012404Y0063708D02*
X0037962Y0063708D01*
X0037185Y0062110D02*
X0012404Y0062110D01*
X0012404Y0060511D02*
X0036969Y0060511D01*
X0037215Y0058913D02*
X0012404Y0058913D01*
X0012404Y0057314D02*
X0038036Y0057314D01*
X0040197Y0055716D02*
X0012404Y0055716D01*
X0012404Y0054117D02*
X0038371Y0054117D01*
X0037354Y0052519D02*
X0012404Y0052519D01*
X0012404Y0050920D02*
X0036969Y0050920D01*
X0037046Y0049322D02*
X0012404Y0049322D01*
X0012404Y0047723D02*
X0037708Y0047723D01*
X0039225Y0046125D02*
X0012404Y0046125D01*
X0012404Y0044526D02*
X0038780Y0044526D01*
X0037524Y0042928D02*
X0012404Y0042928D01*
X0012404Y0041329D02*
X0036969Y0041329D01*
X0036969Y0039731D02*
X0012404Y0039731D01*
X0012404Y0038132D02*
X0037539Y0038132D01*
X0038817Y0036534D02*
X0012404Y0036534D01*
X0026924Y0030140D02*
X0040575Y0030140D01*
X0039420Y0028541D02*
X0028522Y0028541D01*
X0029240Y0026943D02*
X0038938Y0026943D01*
X0038938Y0025344D02*
X0029714Y0025344D01*
X0029714Y0023746D02*
X0039580Y0023746D01*
X0040960Y0022147D02*
X0029388Y0022147D01*
X0028726Y0020549D02*
X0049420Y0020549D01*
X0048880Y0022147D02*
X0047377Y0022147D01*
X0048757Y0023746D02*
X0048880Y0023746D01*
X0051019Y0018950D02*
X0027279Y0018950D01*
X0046327Y0097277D02*
X0053980Y0097277D01*
X0052535Y0098876D02*
X0047169Y0098876D01*
X0047431Y0100474D02*
X0048616Y0100474D01*
X0048447Y0102073D02*
X0047231Y0102073D01*
X0047951Y0103671D02*
X0046475Y0103671D01*
X0046353Y0105270D02*
X0044471Y0105270D01*
X0036969Y0108467D02*
X0035520Y0108467D01*
X0035520Y0110065D02*
X0036969Y0110065D01*
D23*
X0059917Y0110981D03*
X0061885Y0085391D03*
X0057948Y0075548D03*
X0087476Y0085391D03*
X0120940Y0077517D03*
X0118972Y0065706D03*
X0122909Y0057044D03*
X0101255Y0053895D03*
X0087476Y0047989D03*
X0085507Y0032241D03*
X0134720Y0032241D03*
X0144956Y0042871D03*
X0150468Y0034210D03*
X0156373Y0038147D03*
X0162279Y0040115D03*
X0170153Y0040115D03*
X0185901Y0044052D03*
X0189838Y0061769D03*
X0211491Y0083422D03*
X0229208Y0075548D03*
X0254798Y0063737D03*
X0252830Y0049958D03*
X0272515Y0085391D03*
X0244956Y0110981D03*
X0205586Y0103107D03*
X0193775Y0103107D03*
X0185901Y0112950D03*
X0156373Y0106257D03*
X0156373Y0120824D03*
X0142594Y0124761D03*
X0132751Y0124761D03*
X0111098Y0114918D03*
X0144562Y0075548D03*
X0146531Y0063737D03*
X0191806Y0020430D03*
X0355192Y0097202D03*
D24*
X0321728Y0130666D01*
X0044169Y0130666D01*
X0042200Y0130666D01*
X0020546Y0109013D01*
X0020546Y0092202D01*
X0042200Y0070548D01*
X0052830Y0080666D02*
X0057948Y0075548D01*
X0058735Y0076336D01*
X0052830Y0080666D02*
X0052830Y0090351D01*
X0061728Y0093422D02*
X0075665Y0079485D01*
X0097318Y0079485D01*
X0109129Y0067674D01*
X0109129Y0059800D01*
X0117003Y0051926D01*
X0144562Y0051926D01*
X0150468Y0046021D01*
X0150468Y0034210D01*
X0156373Y0038147D02*
X0160310Y0034210D01*
X0160310Y0026336D01*
X0158342Y0024367D01*
X0124877Y0024367D01*
X0115035Y0034210D01*
X0093381Y0034210D01*
X0091413Y0032241D01*
X0085507Y0032241D01*
X0082751Y0040115D02*
X0074483Y0040115D01*
X0074483Y0036966D01*
X0069759Y0032241D01*
X0066570Y0032241D01*
X0060665Y0026336D01*
X0055980Y0018462D02*
X0052043Y0022399D01*
X0052043Y0041493D01*
X0073893Y0063344D01*
X0073893Y0059997D01*
X0074877Y0055076D01*
X0080389Y0055076D02*
X0081373Y0059997D01*
X0081373Y0063344D01*
X0088066Y0070036D01*
X0095350Y0070036D01*
X0099090Y0061572D02*
X0099090Y0061375D01*
X0099090Y0058029D01*
X0101255Y0053895D01*
X0088263Y0040115D02*
X0142200Y0040115D01*
X0144956Y0042871D01*
X0152633Y0056847D02*
X0152633Y0064525D01*
X0146531Y0063737D02*
X0152633Y0073777D01*
X0152633Y0074761D01*
X0160113Y0074761D02*
X0167003Y0074761D01*
X0176058Y0065706D01*
X0176058Y0030273D01*
X0174090Y0028304D01*
X0164247Y0018462D01*
X0055980Y0018462D01*
X0118972Y0065706D02*
X0118972Y0067674D01*
X0107161Y0079485D01*
X0107161Y0104328D01*
X0095507Y0115981D01*
X0113066Y0122792D02*
X0071728Y0122792D01*
X0059917Y0110981D01*
X0052830Y0103265D02*
X0045546Y0110548D01*
X0042200Y0110548D01*
X0042200Y0100548D02*
X0038854Y0100548D01*
X0032357Y0107044D01*
X0032357Y0114918D01*
X0042200Y0124761D01*
X0049287Y0124761D01*
X0054798Y0124761D02*
X0056767Y0126729D01*
X0130783Y0126729D01*
X0132751Y0124761D01*
X0134720Y0118855D02*
X0140625Y0124761D01*
X0142594Y0124761D01*
X0152239Y0126729D02*
X0140428Y0114918D01*
X0124877Y0114918D01*
X0121137Y0111178D01*
X0121137Y0095627D01*
X0128617Y0095627D02*
X0128617Y0108816D01*
X0130783Y0110981D01*
X0168184Y0110981D01*
X0189838Y0089328D01*
X0203617Y0103107D01*
X0205586Y0103107D01*
X0193775Y0103107D02*
X0192987Y0109800D01*
X0192987Y0111375D01*
X0192987Y0116887D01*
X0198499Y0116887D02*
X0198499Y0120036D01*
X0195743Y0122792D01*
X0168184Y0122792D01*
X0166216Y0120824D01*
X0156373Y0120824D01*
X0152239Y0126729D02*
X0237082Y0126729D01*
X0262869Y0100942D01*
X0267003Y0100942D01*
X0267987Y0099958D01*
X0274483Y0099958D01*
X0275074Y0100548D01*
X0298106Y0100548D01*
X0274483Y0094446D02*
X0272515Y0094446D01*
X0272515Y0085391D01*
X0264641Y0081454D02*
X0263854Y0082241D01*
X0258735Y0082241D01*
X0244956Y0082241D01*
X0244759Y0082438D01*
X0244759Y0072792D01*
X0237279Y0072792D02*
X0237279Y0082438D01*
X0238263Y0083422D01*
X0243775Y0083422D02*
X0244759Y0082438D01*
X0243775Y0083422D02*
X0243775Y0104288D01*
X0231176Y0116887D01*
X0198499Y0116887D01*
X0189838Y0089328D02*
X0189838Y0079485D01*
X0176058Y0065706D01*
X0168184Y0057832D02*
X0170153Y0055863D01*
X0170153Y0040115D01*
X0185901Y0044052D02*
X0191806Y0038147D01*
X0191806Y0020430D01*
X0199680Y0046808D02*
X0199680Y0064918D01*
X0199680Y0059800D01*
X0217397Y0059800D01*
X0217397Y0064918D01*
X0219759Y0062556D01*
X0237279Y0062556D01*
X0244759Y0062556D02*
X0245940Y0063737D01*
X0254798Y0063737D01*
X0264641Y0061769D02*
X0264641Y0081454D01*
X0258735Y0082241D02*
X0258735Y0096808D01*
X0258342Y0097202D01*
X0267003Y0093462D02*
X0267987Y0094446D01*
X0272515Y0094446D01*
X0237279Y0072792D02*
X0233932Y0072792D01*
X0229208Y0075548D01*
X0223302Y0082635D02*
X0218184Y0077517D01*
X0211491Y0077517D01*
X0211491Y0070430D01*
X0217397Y0070430D01*
X0211491Y0064918D02*
X0205586Y0064918D01*
X0205586Y0070430D02*
X0199680Y0070430D01*
X0211491Y0077517D02*
X0211491Y0083422D01*
X0168184Y0057832D02*
X0161098Y0057832D01*
X0160113Y0056847D01*
X0160113Y0064525D01*
X0160310Y0058619D02*
X0160113Y0056847D01*
X0152633Y0056847D02*
X0152436Y0058619D01*
X0160113Y0074761D02*
X0160310Y0074958D01*
X0160310Y0084603D01*
X0142594Y0086966D02*
X0142594Y0077123D01*
X0144169Y0075548D01*
X0144562Y0075548D01*
X0142594Y0077123D02*
X0139050Y0073580D01*
X0133539Y0073580D02*
X0124877Y0073580D01*
X0120940Y0077517D01*
X0124877Y0086966D02*
X0130192Y0086966D01*
X0138854Y0095627D01*
X0139838Y0096611D01*
X0139838Y0103107D01*
X0134720Y0118855D02*
X0117003Y0118855D01*
X0113066Y0122792D01*
X0075507Y0105981D02*
X0075507Y0097359D01*
X0087476Y0085391D01*
X0077633Y0072005D02*
X0073302Y0075942D01*
X0061885Y0085391D01*
X0061728Y0093422D02*
X0052830Y0103265D01*
X0252830Y0049958D02*
X0264641Y0061769D01*
M02*
