%
M48
M72
T01C0.02362
T02C0.03150
T03C0.03500
T04C0.03937
T05C0.08661
T06C0.12598
%
T01
X85507Y32241
X87476Y47989
X101255Y53895
X118972Y65706
X122909Y57044
X146531Y63737
X144562Y75548
X120940Y77517
X87476Y85391
X61885Y85391
X57948Y75548
X59917Y110981
X111098Y114918
X132751Y124761
X142594Y124761
X156373Y120824
X156373Y106257
X185901Y112950
X193775Y103107
X205586Y103107
X211491Y83422
X229208Y75548
X254798Y63737
X252830Y49958
X272515Y85391
X244956Y110981
X189838Y61769
X185901Y44052
X170153Y40115
X162279Y40115
X156373Y38147
X150468Y34210
X144956Y42871
X134720Y32241
X191806Y20430
X355192Y97202
T02
X298106Y100548
X298106Y50548
X181964Y28304
X174090Y28304
X128814Y30273
X107948Y49958
X90665Y26336
X80665Y26336
X70665Y26336
X60665Y26336
T03
X42200Y40548
X42200Y50548
X42200Y60548
X42200Y70548
X42200Y80548
X42200Y90548
X42200Y100548
X42200Y110548
T04
X75507Y105981
X85507Y105981
X95507Y105981
X95507Y115981
X85507Y115981
X75507Y115981
T05
X44169Y26336
X107161Y26336
T06
X22515Y24367
X22515Y126729
X392594Y126729
X392594Y24367
M30
