G75*
%MOIN*%
%OFA0B0*%
%FSLAX25Y25*%
%IPPOS*%
%LPD*%
%AMOC8*
5,1,8,0,0,1.08239X$1,22.5*
%
%ADD10C,0.00600*%
%ADD11OC8,0.06600*%
%ADD12R,0.03602X0.04803*%
%ADD13R,0.05906X0.01969*%
%ADD14R,0.01969X0.05906*%
%ADD15R,0.03150X0.03937*%
%ADD16C,0.05906*%
%ADD17R,0.03937X0.03150*%
%ADD18R,0.07874X0.11811*%
%ADD19R,0.03543X0.05906*%
%ADD20R,0.03150X0.04724*%
%ADD21C,0.04724*%
%ADD22R,0.04724X0.02559*%
%ADD23R,0.03937X0.04724*%
%ADD24R,0.03150X0.01969*%
%ADD25R,0.06500X0.06500*%
%ADD26C,0.06500*%
%ADD27R,0.10236X0.06299*%
%ADD28R,0.06299X0.10236*%
%ADD29C,0.01600*%
%ADD30OC8,0.04724*%
%ADD31C,0.01575*%
%ADD32C,0.02362*%
D10*
X0286594Y0024667D02*
X0286594Y0031073D01*
X0290865Y0031073D01*
X0288730Y0027870D02*
X0286594Y0027870D01*
X0293040Y0027870D02*
X0293040Y0025735D01*
X0294108Y0024667D01*
X0296243Y0024667D01*
X0297310Y0025735D01*
X0297310Y0027870D01*
X0296243Y0028937D01*
X0294108Y0028937D01*
X0293040Y0027870D01*
X0299485Y0027870D02*
X0299485Y0025735D01*
X0300553Y0024667D01*
X0302688Y0024667D01*
X0303756Y0025735D01*
X0303756Y0027870D01*
X0302688Y0028937D01*
X0300553Y0028937D01*
X0299485Y0027870D01*
X0305931Y0028937D02*
X0306999Y0030005D01*
X0306999Y0032140D01*
X0310221Y0028937D02*
X0313424Y0028937D01*
X0312356Y0026802D02*
X0310221Y0026802D01*
X0309154Y0027870D01*
X0310221Y0028937D01*
X0312356Y0026802D02*
X0313424Y0025735D01*
X0312356Y0024667D01*
X0309154Y0024667D01*
X0322045Y0024667D02*
X0326315Y0024667D01*
X0328490Y0025735D02*
X0329558Y0026802D01*
X0332761Y0026802D01*
X0332761Y0027870D02*
X0332761Y0024667D01*
X0329558Y0024667D01*
X0328490Y0025735D01*
X0329558Y0028937D02*
X0331693Y0028937D01*
X0332761Y0027870D01*
X0334936Y0028937D02*
X0338138Y0028937D01*
X0339206Y0027870D01*
X0339206Y0025735D01*
X0338138Y0024667D01*
X0334936Y0024667D01*
X0334936Y0031073D01*
X0322045Y0031073D02*
X0322045Y0024667D01*
X0332938Y0115218D02*
X0331870Y0116286D01*
X0331870Y0120556D01*
X0332938Y0121624D01*
X0335073Y0121624D01*
X0336140Y0120556D01*
X0336140Y0116286D01*
X0335073Y0115218D01*
X0332938Y0115218D01*
X0334005Y0117353D02*
X0336140Y0115218D01*
X0338316Y0116286D02*
X0339383Y0115218D01*
X0341518Y0115218D01*
X0342586Y0116286D01*
X0342586Y0121624D01*
X0344761Y0119489D02*
X0346896Y0121624D01*
X0349031Y0119489D01*
X0349031Y0115218D01*
X0351207Y0115218D02*
X0351207Y0121624D01*
X0355477Y0115218D01*
X0355477Y0121624D01*
X0357652Y0121624D02*
X0361922Y0121624D01*
X0359787Y0121624D02*
X0359787Y0115218D01*
X0364098Y0116286D02*
X0365165Y0115218D01*
X0367300Y0115218D01*
X0368368Y0116286D01*
X0368368Y0121624D01*
X0370543Y0121624D02*
X0372678Y0119489D01*
X0374813Y0121624D01*
X0374813Y0115218D01*
X0370543Y0115218D02*
X0370543Y0121624D01*
X0364098Y0121624D02*
X0364098Y0116286D01*
X0349031Y0118421D02*
X0344761Y0118421D01*
X0344761Y0119489D02*
X0344761Y0115218D01*
X0338316Y0116286D02*
X0338316Y0121624D01*
D11*
X0181964Y0028304D03*
X0174090Y0028304D03*
D12*
X0232594Y0093265D03*
X0245507Y0093265D03*
D13*
G36*
X0185047Y0067754D02*
X0180872Y0071929D01*
X0182263Y0073320D01*
X0186438Y0069145D01*
X0185047Y0067754D01*
G37*
G36*
X0182820Y0065527D02*
X0178645Y0069702D01*
X0180036Y0071093D01*
X0184211Y0066918D01*
X0182820Y0065527D01*
G37*
G36*
X0180593Y0063300D02*
X0176418Y0067475D01*
X0177809Y0068866D01*
X0181984Y0064691D01*
X0180593Y0063300D01*
G37*
G36*
X0178366Y0061073D02*
X0174191Y0065248D01*
X0175582Y0066639D01*
X0179757Y0062464D01*
X0178366Y0061073D01*
G37*
G36*
X0176139Y0058846D02*
X0171964Y0063021D01*
X0173355Y0064412D01*
X0177530Y0060237D01*
X0176139Y0058846D01*
G37*
G36*
X0173912Y0056619D02*
X0169737Y0060794D01*
X0171128Y0062185D01*
X0175303Y0058010D01*
X0173912Y0056619D01*
G37*
G36*
X0171685Y0054392D02*
X0167510Y0058567D01*
X0168901Y0059958D01*
X0173076Y0055783D01*
X0171685Y0054392D01*
G37*
G36*
X0169458Y0052165D02*
X0165283Y0056340D01*
X0166674Y0057731D01*
X0170849Y0053556D01*
X0169458Y0052165D01*
G37*
G36*
X0167230Y0049937D02*
X0163055Y0054112D01*
X0164446Y0055503D01*
X0168621Y0051328D01*
X0167230Y0049937D01*
G37*
G36*
X0165003Y0047710D02*
X0160828Y0051885D01*
X0162219Y0053276D01*
X0166394Y0049101D01*
X0165003Y0047710D01*
G37*
G36*
X0162776Y0045483D02*
X0158601Y0049658D01*
X0159992Y0051049D01*
X0164167Y0046874D01*
X0162776Y0045483D01*
G37*
G36*
X0130483Y0077776D02*
X0126308Y0081951D01*
X0127699Y0083342D01*
X0131874Y0079167D01*
X0130483Y0077776D01*
G37*
G36*
X0132710Y0080003D02*
X0128535Y0084178D01*
X0129926Y0085569D01*
X0134101Y0081394D01*
X0132710Y0080003D01*
G37*
G36*
X0134937Y0082230D02*
X0130762Y0086405D01*
X0132153Y0087796D01*
X0136328Y0083621D01*
X0134937Y0082230D01*
G37*
G36*
X0137164Y0084458D02*
X0132989Y0088633D01*
X0134380Y0090024D01*
X0138555Y0085849D01*
X0137164Y0084458D01*
G37*
G36*
X0139392Y0086685D02*
X0135217Y0090860D01*
X0136608Y0092251D01*
X0140783Y0088076D01*
X0139392Y0086685D01*
G37*
G36*
X0141619Y0088912D02*
X0137444Y0093087D01*
X0138835Y0094478D01*
X0143010Y0090303D01*
X0141619Y0088912D01*
G37*
G36*
X0143846Y0091139D02*
X0139671Y0095314D01*
X0141062Y0096705D01*
X0145237Y0092530D01*
X0143846Y0091139D01*
G37*
G36*
X0146073Y0093366D02*
X0141898Y0097541D01*
X0143289Y0098932D01*
X0147464Y0094757D01*
X0146073Y0093366D01*
G37*
G36*
X0148300Y0095593D02*
X0144125Y0099768D01*
X0145516Y0101159D01*
X0149691Y0096984D01*
X0148300Y0095593D01*
G37*
G36*
X0150527Y0097820D02*
X0146352Y0101995D01*
X0147743Y0103386D01*
X0151918Y0099211D01*
X0150527Y0097820D01*
G37*
G36*
X0152754Y0100047D02*
X0148579Y0104222D01*
X0149970Y0105613D01*
X0154145Y0101438D01*
X0152754Y0100047D01*
G37*
D14*
G36*
X0159992Y0100047D02*
X0158601Y0101438D01*
X0162776Y0105613D01*
X0164167Y0104222D01*
X0159992Y0100047D01*
G37*
G36*
X0162219Y0097820D02*
X0160828Y0099211D01*
X0165003Y0103386D01*
X0166394Y0101995D01*
X0162219Y0097820D01*
G37*
G36*
X0164446Y0095593D02*
X0163055Y0096984D01*
X0167230Y0101159D01*
X0168621Y0099768D01*
X0164446Y0095593D01*
G37*
G36*
X0166674Y0093366D02*
X0165283Y0094757D01*
X0169458Y0098932D01*
X0170849Y0097541D01*
X0166674Y0093366D01*
G37*
G36*
X0168901Y0091139D02*
X0167510Y0092530D01*
X0171685Y0096705D01*
X0173076Y0095314D01*
X0168901Y0091139D01*
G37*
G36*
X0171128Y0088912D02*
X0169737Y0090303D01*
X0173912Y0094478D01*
X0175303Y0093087D01*
X0171128Y0088912D01*
G37*
G36*
X0173355Y0086685D02*
X0171964Y0088076D01*
X0176139Y0092251D01*
X0177530Y0090860D01*
X0173355Y0086685D01*
G37*
G36*
X0175582Y0084458D02*
X0174191Y0085849D01*
X0178366Y0090024D01*
X0179757Y0088633D01*
X0175582Y0084458D01*
G37*
G36*
X0177809Y0082230D02*
X0176418Y0083621D01*
X0180593Y0087796D01*
X0181984Y0086405D01*
X0177809Y0082230D01*
G37*
G36*
X0180036Y0080003D02*
X0178645Y0081394D01*
X0182820Y0085569D01*
X0184211Y0084178D01*
X0180036Y0080003D01*
G37*
G36*
X0182263Y0077776D02*
X0180872Y0079167D01*
X0185047Y0083342D01*
X0186438Y0081951D01*
X0182263Y0077776D01*
G37*
G36*
X0145516Y0049937D02*
X0144125Y0051328D01*
X0148300Y0055503D01*
X0149691Y0054112D01*
X0145516Y0049937D01*
G37*
G36*
X0147743Y0047710D02*
X0146352Y0049101D01*
X0150527Y0053276D01*
X0151918Y0051885D01*
X0147743Y0047710D01*
G37*
G36*
X0149970Y0045483D02*
X0148579Y0046874D01*
X0152754Y0051049D01*
X0154145Y0049658D01*
X0149970Y0045483D01*
G37*
G36*
X0143289Y0052165D02*
X0141898Y0053556D01*
X0146073Y0057731D01*
X0147464Y0056340D01*
X0143289Y0052165D01*
G37*
G36*
X0141062Y0054392D02*
X0139671Y0055783D01*
X0143846Y0059958D01*
X0145237Y0058567D01*
X0141062Y0054392D01*
G37*
G36*
X0138835Y0056619D02*
X0137444Y0058010D01*
X0141619Y0062185D01*
X0143010Y0060794D01*
X0138835Y0056619D01*
G37*
G36*
X0136608Y0058846D02*
X0135217Y0060237D01*
X0139392Y0064412D01*
X0140783Y0063021D01*
X0136608Y0058846D01*
G37*
G36*
X0134380Y0061073D02*
X0132989Y0062464D01*
X0137164Y0066639D01*
X0138555Y0065248D01*
X0134380Y0061073D01*
G37*
G36*
X0132153Y0063300D02*
X0130762Y0064691D01*
X0134937Y0068866D01*
X0136328Y0067475D01*
X0132153Y0063300D01*
G37*
G36*
X0129926Y0065527D02*
X0128535Y0066918D01*
X0132710Y0071093D01*
X0134101Y0069702D01*
X0129926Y0065527D01*
G37*
G36*
X0127699Y0067754D02*
X0126308Y0069145D01*
X0130483Y0073320D01*
X0131874Y0071929D01*
X0127699Y0067754D01*
G37*
D15*
X0176452Y0103501D03*
X0181964Y0103501D03*
G36*
X0172678Y0111905D02*
X0170450Y0109677D01*
X0167668Y0112459D01*
X0169896Y0114687D01*
X0172678Y0111905D01*
G37*
G36*
X0176575Y0115803D02*
X0174347Y0113575D01*
X0171565Y0116357D01*
X0173793Y0118585D01*
X0176575Y0115803D01*
G37*
X0072515Y0053895D03*
X0067003Y0053895D03*
X0060704Y0042084D03*
X0055192Y0042084D03*
X0055192Y0120430D03*
X0060704Y0120430D03*
D16*
X0075507Y0115981D03*
X0075507Y0105981D03*
X0085507Y0105981D03*
X0095507Y0105981D03*
X0095507Y0115981D03*
X0085507Y0115981D03*
D17*
X0119365Y0115706D03*
X0119365Y0110194D03*
X0085507Y0070430D03*
X0085507Y0064918D03*
X0107161Y0042871D03*
X0107161Y0037359D03*
X0122909Y0027123D03*
X0122909Y0021611D03*
X0139838Y0022399D03*
X0139838Y0027910D03*
X0028814Y0051926D03*
X0028814Y0057438D03*
X0335901Y0028304D03*
X0335901Y0022792D03*
D18*
X0268972Y0033422D03*
X0237476Y0033422D03*
D19*
X0366413Y0065903D03*
X0379405Y0065903D03*
X0379405Y0085194D03*
X0366413Y0085194D03*
D20*
X0207357Y0041690D03*
X0199877Y0041690D03*
X0203617Y0050351D03*
D21*
X0128814Y0030273D03*
X0107948Y0049958D03*
X0090665Y0026336D03*
X0080665Y0026336D03*
X0070665Y0026336D03*
X0060665Y0026336D03*
X0298106Y0050548D03*
X0298106Y0100548D03*
D22*
X0293873Y0116592D03*
X0293873Y0125056D03*
X0314149Y0125056D03*
X0314149Y0116592D03*
X0233440Y0067970D03*
X0233440Y0059505D03*
X0213165Y0059505D03*
X0213165Y0067970D03*
D23*
X0122909Y0046021D03*
X0115035Y0046021D03*
X0115035Y0034210D03*
X0122909Y0034210D03*
D24*
X0073302Y0063934D03*
X0073302Y0071414D03*
X0062279Y0071414D03*
X0062279Y0067674D03*
X0062279Y0063934D03*
D25*
X0042200Y0110548D03*
D26*
X0042200Y0100548D03*
X0042200Y0090548D03*
X0042200Y0080548D03*
X0042200Y0070548D03*
X0042200Y0060548D03*
X0042200Y0050548D03*
X0042200Y0040548D03*
D27*
X0026452Y0073580D03*
X0026452Y0087753D03*
D28*
X0205192Y0024367D03*
X0219365Y0024367D03*
D29*
X0012404Y0014256D02*
X0012404Y0136840D01*
X0402705Y0136840D01*
X0402705Y0014256D01*
X0347763Y0014256D01*
X0392632Y0058751D01*
X0392639Y0058754D01*
X0393134Y0059248D01*
X0393631Y0059742D01*
X0393634Y0059749D01*
X0393640Y0059754D01*
X0393907Y0060401D01*
X0394178Y0061047D01*
X0394178Y0061054D01*
X0394181Y0061061D01*
X0394181Y0061761D01*
X0394184Y0062461D01*
X0394181Y0062468D01*
X0394181Y0074681D01*
X0393640Y0075988D01*
X0392639Y0076988D01*
X0383157Y0086470D01*
X0383157Y0088967D01*
X0381997Y0090128D01*
X0376812Y0090128D01*
X0375652Y0088967D01*
X0375652Y0081421D01*
X0376812Y0080260D01*
X0379310Y0080260D01*
X0387069Y0072501D01*
X0387069Y0063250D01*
X0341917Y0018474D01*
X0339063Y0018474D01*
X0339063Y0019610D01*
X0339850Y0020397D01*
X0339850Y0022596D01*
X0340406Y0023152D01*
X0340721Y0023467D01*
X0340721Y0023467D01*
X0341474Y0024220D01*
X0341717Y0024807D01*
X0341881Y0025203D01*
X0341881Y0028402D01*
X0341474Y0029385D01*
X0340406Y0030453D01*
X0339654Y0031205D01*
X0338670Y0031612D01*
X0338355Y0031612D01*
X0338106Y0031679D01*
X0337580Y0031679D01*
X0337203Y0032588D01*
X0336451Y0033340D01*
X0335468Y0033747D01*
X0334404Y0033747D01*
X0333421Y0033340D01*
X0332668Y0032588D01*
X0332261Y0031605D01*
X0332261Y0031597D01*
X0332225Y0031612D01*
X0329026Y0031612D01*
X0328043Y0031205D01*
X0327290Y0030453D01*
X0326883Y0029470D01*
X0326883Y0028405D01*
X0327028Y0028055D01*
X0326975Y0028002D01*
X0326315Y0027342D01*
X0324720Y0027342D01*
X0324720Y0031605D01*
X0324312Y0032588D01*
X0323560Y0033340D01*
X0322577Y0033747D01*
X0321513Y0033747D01*
X0320530Y0033340D01*
X0319777Y0032588D01*
X0319370Y0031605D01*
X0319370Y0024135D01*
X0319777Y0023152D01*
X0320530Y0022400D01*
X0321513Y0021992D01*
X0326847Y0021992D01*
X0327830Y0022400D01*
X0327936Y0022506D01*
X0328043Y0022400D01*
X0329026Y0021992D01*
X0331951Y0021992D01*
X0331951Y0020397D01*
X0332739Y0019610D01*
X0332739Y0018474D01*
X0224496Y0018474D01*
X0224496Y0038805D01*
X0226581Y0040890D01*
X0229837Y0040890D01*
X0230999Y0041371D01*
X0231889Y0042261D01*
X0243700Y0054072D01*
X0244181Y0055234D01*
X0244181Y0085469D01*
X0243700Y0086631D01*
X0236376Y0093955D01*
X0236376Y0096487D01*
X0235215Y0097647D01*
X0229972Y0097647D01*
X0228811Y0096487D01*
X0228811Y0096427D01*
X0220705Y0096427D01*
X0219543Y0095946D01*
X0218653Y0095056D01*
X0211363Y0087766D01*
X0209692Y0087766D01*
X0208511Y0086584D01*
X0185889Y0086584D01*
X0184802Y0086134D01*
X0184789Y0086147D01*
X0184758Y0086116D01*
X0184757Y0086116D01*
X0184789Y0086147D01*
X0184734Y0086202D01*
X0196032Y0097938D01*
X0196456Y0098362D01*
X0196468Y0098390D01*
X0196489Y0098413D01*
X0196708Y0098970D01*
X0196937Y0099524D01*
X0196937Y0099555D01*
X0196948Y0099584D01*
X0196938Y0100128D01*
X0198118Y0101308D01*
X0198118Y0104906D01*
X0195574Y0107451D01*
X0191976Y0107451D01*
X0189431Y0104906D01*
X0189431Y0101308D01*
X0189975Y0100765D01*
X0180387Y0090805D01*
X0179187Y0092006D01*
X0179186Y0092006D02*
X0177285Y0093907D01*
X0177285Y0093907D01*
X0174732Y0096460D01*
X0172831Y0098362D01*
X0171563Y0099629D01*
X0172273Y0100339D01*
X0173269Y0100339D01*
X0174057Y0099551D01*
X0178847Y0099551D01*
X0179350Y0100054D01*
X0179694Y0099855D01*
X0180152Y0099733D01*
X0181964Y0099732D01*
X0181964Y0099733D02*
X0183776Y0099733D01*
X0184233Y0099855D01*
X0184644Y0100092D01*
X0184979Y0100427D01*
X0185216Y0100838D01*
X0185339Y0101296D01*
X0185339Y0103501D01*
X0185339Y0105706D01*
X0185216Y0106164D01*
X0184979Y0106575D01*
X0184644Y0106910D01*
X0184233Y0107147D01*
X0183776Y0107270D01*
X0181964Y0107270D01*
X0181964Y0103501D01*
X0185339Y0103501D01*
X0181964Y0103501D01*
X0181964Y0103501D01*
X0181964Y0103501D01*
X0181964Y0099733D01*
X0181964Y0099732D02*
X0181964Y0103501D01*
X0181964Y0103501D01*
X0181964Y0107270D01*
X0180152Y0107270D01*
X0179694Y0107147D01*
X0179350Y0106948D01*
X0178847Y0107451D01*
X0174057Y0107451D01*
X0173269Y0106663D01*
X0170334Y0106663D01*
X0169233Y0106207D01*
X0170722Y0107696D01*
X0171272Y0107696D01*
X0174659Y0111083D01*
X0174659Y0111794D01*
X0175043Y0111897D01*
X0175454Y0112134D01*
X0176735Y0113415D01*
X0178016Y0114696D01*
X0178253Y0115106D01*
X0178375Y0115564D01*
X0178375Y0116038D01*
X0178253Y0116496D01*
X0178016Y0116906D01*
X0176456Y0118466D01*
X0174897Y0120025D01*
X0174486Y0120262D01*
X0174029Y0120385D01*
X0173555Y0120385D01*
X0173097Y0120262D01*
X0172686Y0120025D01*
X0171405Y0118744D01*
X0170124Y0117463D01*
X0169887Y0117053D01*
X0169784Y0116669D01*
X0169074Y0116669D01*
X0165686Y0113281D01*
X0165686Y0111640D01*
X0165704Y0111622D01*
X0158703Y0104622D01*
X0156550Y0102469D01*
X0156127Y0102045D01*
X0156127Y0102259D01*
X0154240Y0104146D01*
X0154043Y0104622D01*
X0151661Y0107003D01*
X0151661Y0107703D01*
X0153746Y0109788D01*
X0158971Y0109788D01*
X0160133Y0110269D01*
X0171463Y0121599D01*
X0255457Y0121599D01*
X0295425Y0081631D01*
X0296314Y0080741D01*
X0297477Y0080260D01*
X0338134Y0080260D01*
X0345527Y0072867D01*
X0346689Y0072386D01*
X0367662Y0072386D01*
X0375652Y0064396D01*
X0375652Y0062129D01*
X0376812Y0060969D01*
X0381997Y0060969D01*
X0383157Y0062129D01*
X0383157Y0069676D01*
X0381997Y0070836D01*
X0378155Y0070836D01*
X0371652Y0077339D01*
X0370763Y0078229D01*
X0369601Y0078710D01*
X0348628Y0078710D01*
X0341235Y0086103D01*
X0340073Y0086584D01*
X0299415Y0086584D01*
X0258558Y0127442D01*
X0257396Y0127923D01*
X0169524Y0127923D01*
X0168362Y0127442D01*
X0167472Y0126552D01*
X0160717Y0119797D01*
X0160717Y0122623D01*
X0158172Y0125167D01*
X0156502Y0125167D01*
X0155117Y0126552D01*
X0154227Y0127442D01*
X0153065Y0127923D01*
X0145574Y0127923D01*
X0144393Y0129104D01*
X0140795Y0129104D01*
X0138250Y0126560D01*
X0138250Y0122962D01*
X0140795Y0120418D01*
X0144393Y0120418D01*
X0145574Y0121599D01*
X0151126Y0121599D01*
X0152030Y0120695D01*
X0152030Y0119025D01*
X0154574Y0116481D01*
X0157400Y0116481D01*
X0157032Y0116112D01*
X0151807Y0116112D01*
X0150645Y0115631D01*
X0149755Y0114741D01*
X0146708Y0111694D01*
X0145818Y0110804D01*
X0145337Y0109642D01*
X0145337Y0105064D01*
X0145712Y0104158D01*
X0145655Y0104101D01*
X0137882Y0111874D01*
X0137882Y0123421D01*
X0137400Y0124584D01*
X0137094Y0124890D01*
X0137094Y0126560D01*
X0134550Y0129104D01*
X0130952Y0129104D01*
X0128408Y0126560D01*
X0128408Y0123734D01*
X0120763Y0131379D01*
X0119601Y0131860D01*
X0068343Y0131860D01*
X0067180Y0131379D01*
X0066291Y0130489D01*
X0060181Y0124380D01*
X0058309Y0124380D01*
X0057948Y0124019D01*
X0057588Y0124380D01*
X0052797Y0124380D01*
X0052009Y0123592D01*
X0037240Y0123592D01*
X0036078Y0123111D01*
X0035188Y0122221D01*
X0031645Y0118678D01*
X0031164Y0117516D01*
X0031164Y0097793D01*
X0031645Y0096631D01*
X0032535Y0095741D01*
X0036969Y0091307D01*
X0036969Y0089508D01*
X0037765Y0087585D01*
X0039237Y0086114D01*
X0040885Y0085431D01*
X0040261Y0085228D01*
X0039553Y0084867D01*
X0038910Y0084400D01*
X0038348Y0083838D01*
X0037881Y0083195D01*
X0037520Y0082487D01*
X0037274Y0081731D01*
X0037150Y0080946D01*
X0037150Y0080623D01*
X0042125Y0080623D01*
X0042125Y0080473D01*
X0037150Y0080473D01*
X0037150Y0080151D01*
X0037274Y0079366D01*
X0037520Y0078610D01*
X0037881Y0077901D01*
X0038348Y0077258D01*
X0038910Y0076696D01*
X0039553Y0076229D01*
X0040261Y0075868D01*
X0040885Y0075666D01*
X0039237Y0074983D01*
X0037765Y0073511D01*
X0036969Y0071589D01*
X0036969Y0069508D01*
X0037765Y0067585D01*
X0039237Y0066114D01*
X0040602Y0065548D01*
X0039237Y0064983D01*
X0037964Y0063710D01*
X0033234Y0063710D01*
X0029614Y0067331D01*
X0029614Y0068449D01*
X0032391Y0068449D01*
X0033551Y0069610D01*
X0033551Y0077550D01*
X0032391Y0078710D01*
X0020513Y0078710D01*
X0019353Y0077550D01*
X0019353Y0069610D01*
X0020513Y0068449D01*
X0023290Y0068449D01*
X0023290Y0065392D01*
X0023771Y0064229D01*
X0027007Y0060994D01*
X0026025Y0060994D01*
X0024865Y0059833D01*
X0024865Y0055043D01*
X0025367Y0054540D01*
X0025168Y0054196D01*
X0025046Y0053738D01*
X0025046Y0051926D01*
X0025046Y0050114D01*
X0025168Y0049657D01*
X0025405Y0049246D01*
X0025740Y0048911D01*
X0026151Y0048674D01*
X0026609Y0048551D01*
X0028814Y0048551D01*
X0028814Y0051926D01*
X0028814Y0051926D01*
X0025046Y0051926D01*
X0028814Y0051926D01*
X0028814Y0051926D01*
X0028814Y0048551D01*
X0031020Y0048551D01*
X0031477Y0048674D01*
X0031888Y0048911D01*
X0032223Y0049246D01*
X0032460Y0049657D01*
X0032583Y0050114D01*
X0032583Y0051926D01*
X0028814Y0051926D01*
X0028814Y0051926D01*
X0032583Y0051926D01*
X0032583Y0053738D01*
X0032460Y0054196D01*
X0032261Y0054540D01*
X0032764Y0055043D01*
X0032764Y0056916D01*
X0033234Y0057386D01*
X0037964Y0057386D01*
X0039237Y0056114D01*
X0040602Y0055548D01*
X0039237Y0054983D01*
X0037765Y0053511D01*
X0036969Y0051589D01*
X0036969Y0049508D01*
X0037765Y0047585D01*
X0039237Y0046114D01*
X0040602Y0045548D01*
X0039237Y0044983D01*
X0037765Y0043511D01*
X0036969Y0041589D01*
X0036969Y0039508D01*
X0037765Y0037585D01*
X0039237Y0036114D01*
X0041159Y0035317D01*
X0043241Y0035317D01*
X0045163Y0036114D01*
X0046635Y0037585D01*
X0047431Y0039508D01*
X0047431Y0041589D01*
X0046635Y0043511D01*
X0045163Y0044983D01*
X0043798Y0045548D01*
X0045163Y0046114D01*
X0046635Y0047585D01*
X0047431Y0049508D01*
X0047431Y0051589D01*
X0046635Y0053511D01*
X0045163Y0054983D01*
X0043798Y0055548D01*
X0045163Y0056114D01*
X0046436Y0057386D01*
X0047819Y0057386D01*
X0050849Y0054357D01*
X0050849Y0019005D01*
X0050820Y0018924D01*
X0050849Y0018378D01*
X0050849Y0017833D01*
X0050882Y0017753D01*
X0050886Y0017667D01*
X0051121Y0017175D01*
X0051330Y0016670D01*
X0051391Y0016610D01*
X0051428Y0016532D01*
X0051834Y0016167D01*
X0052220Y0015781D01*
X0052299Y0015748D01*
X0053957Y0014256D01*
X0012404Y0014256D01*
X0012404Y0015753D02*
X0052287Y0015753D01*
X0051037Y0017352D02*
X0024391Y0017352D01*
X0023947Y0017168D02*
X0026593Y0018264D01*
X0028618Y0020289D01*
X0029714Y0022935D01*
X0029714Y0025799D01*
X0028618Y0028445D01*
X0026593Y0030470D01*
X0023947Y0031566D01*
X0021083Y0031566D01*
X0018437Y0030470D01*
X0016412Y0028445D01*
X0015316Y0025799D01*
X0015316Y0022935D01*
X0016412Y0020289D01*
X0018437Y0018264D01*
X0021083Y0017168D01*
X0023947Y0017168D01*
X0020639Y0017352D02*
X0012404Y0017352D01*
X0012404Y0018950D02*
X0017751Y0018950D01*
X0016304Y0020549D02*
X0012404Y0020549D01*
X0012404Y0022147D02*
X0015642Y0022147D01*
X0015316Y0023746D02*
X0012404Y0023746D01*
X0012404Y0025344D02*
X0015316Y0025344D01*
X0015789Y0026943D02*
X0012404Y0026943D01*
X0012404Y0028541D02*
X0016508Y0028541D01*
X0018106Y0030140D02*
X0012404Y0030140D01*
X0012404Y0031738D02*
X0050849Y0031738D01*
X0050849Y0030140D02*
X0047762Y0030140D01*
X0047131Y0030770D02*
X0045209Y0031566D01*
X0043128Y0031566D01*
X0041206Y0030770D01*
X0039734Y0029299D01*
X0038938Y0027376D01*
X0038938Y0025295D01*
X0039734Y0023373D01*
X0041206Y0021901D01*
X0043128Y0021105D01*
X0045209Y0021105D01*
X0047131Y0021901D01*
X0048603Y0023373D01*
X0049399Y0025295D01*
X0049399Y0027376D01*
X0048603Y0029299D01*
X0047131Y0030770D01*
X0048917Y0028541D02*
X0050849Y0028541D01*
X0050849Y0026943D02*
X0049399Y0026943D01*
X0049399Y0025344D02*
X0050849Y0025344D01*
X0050849Y0023746D02*
X0048757Y0023746D01*
X0047377Y0022147D02*
X0050849Y0022147D01*
X0050849Y0020549D02*
X0028726Y0020549D01*
X0029388Y0022147D02*
X0040960Y0022147D01*
X0039580Y0023746D02*
X0029714Y0023746D01*
X0029714Y0025344D02*
X0038938Y0025344D01*
X0038938Y0026943D02*
X0029240Y0026943D01*
X0028522Y0028541D02*
X0039420Y0028541D01*
X0040575Y0030140D02*
X0026924Y0030140D01*
X0037539Y0038132D02*
X0012404Y0038132D01*
X0012404Y0036534D02*
X0038817Y0036534D01*
X0036969Y0039731D02*
X0012404Y0039731D01*
X0012404Y0041329D02*
X0036969Y0041329D01*
X0037524Y0042928D02*
X0012404Y0042928D01*
X0012404Y0044526D02*
X0038780Y0044526D01*
X0039225Y0046125D02*
X0012404Y0046125D01*
X0012404Y0047723D02*
X0037708Y0047723D01*
X0037046Y0049322D02*
X0032267Y0049322D01*
X0032583Y0050920D02*
X0036969Y0050920D01*
X0037354Y0052519D02*
X0032583Y0052519D01*
X0032481Y0054117D02*
X0038371Y0054117D01*
X0040197Y0055716D02*
X0032764Y0055716D01*
X0033163Y0057314D02*
X0038036Y0057314D01*
X0044203Y0055716D02*
X0049489Y0055716D01*
X0050849Y0054117D02*
X0046029Y0054117D01*
X0047046Y0052519D02*
X0050849Y0052519D01*
X0050849Y0050920D02*
X0047431Y0050920D01*
X0047354Y0049322D02*
X0050849Y0049322D01*
X0050849Y0047723D02*
X0046692Y0047723D01*
X0045175Y0046125D02*
X0050849Y0046125D01*
X0050849Y0044526D02*
X0045620Y0044526D01*
X0046876Y0042928D02*
X0050849Y0042928D01*
X0050849Y0041329D02*
X0047431Y0041329D01*
X0047431Y0039731D02*
X0050849Y0039731D01*
X0050849Y0038132D02*
X0046861Y0038132D01*
X0045583Y0036534D02*
X0050849Y0036534D01*
X0050849Y0034935D02*
X0012404Y0034935D01*
X0012404Y0033337D02*
X0050849Y0033337D01*
X0057173Y0033337D02*
X0073194Y0033337D01*
X0074779Y0034922D02*
X0070536Y0030679D01*
X0069801Y0030679D01*
X0068204Y0030018D01*
X0066982Y0028796D01*
X0066321Y0027200D01*
X0066321Y0025472D01*
X0066982Y0023875D01*
X0068204Y0022654D01*
X0069801Y0021992D01*
X0071529Y0021992D01*
X0073125Y0022654D01*
X0074347Y0023875D01*
X0075008Y0025472D01*
X0075008Y0026207D01*
X0076883Y0028082D01*
X0076807Y0027933D01*
X0076605Y0027310D01*
X0076502Y0026663D01*
X0076502Y0026336D01*
X0080664Y0026336D01*
X0080664Y0026336D01*
X0076502Y0026336D01*
X0076502Y0026008D01*
X0076605Y0025361D01*
X0076807Y0024738D01*
X0077105Y0024154D01*
X0077490Y0023624D01*
X0077953Y0023161D01*
X0078483Y0022776D01*
X0079067Y0022478D01*
X0079690Y0022276D01*
X0080337Y0022173D01*
X0080664Y0022173D01*
X0080664Y0026336D01*
X0080665Y0026336D01*
X0084827Y0026336D01*
X0084827Y0026663D01*
X0084724Y0027310D01*
X0084533Y0027898D01*
X0086610Y0027898D01*
X0086321Y0027200D01*
X0086321Y0025472D01*
X0086982Y0023875D01*
X0088204Y0022654D01*
X0089801Y0021992D01*
X0091529Y0021992D01*
X0093125Y0022654D01*
X0094347Y0023875D01*
X0095008Y0025472D01*
X0095008Y0026207D01*
X0096062Y0027261D01*
X0096543Y0028423D01*
X0096543Y0068303D01*
X0096062Y0069465D01*
X0095172Y0070355D01*
X0092416Y0073111D01*
X0091254Y0073592D01*
X0088690Y0073592D01*
X0088296Y0073986D01*
X0086423Y0073986D01*
X0086314Y0074095D01*
X0085152Y0074577D01*
X0072673Y0074577D01*
X0072198Y0074380D01*
X0070907Y0074380D01*
X0069746Y0073219D01*
X0069746Y0069610D01*
X0070907Y0068449D01*
X0072198Y0068449D01*
X0072673Y0068252D01*
X0081557Y0068252D01*
X0081557Y0068035D01*
X0082060Y0067532D01*
X0081861Y0067188D01*
X0081739Y0066730D01*
X0081739Y0064918D01*
X0081739Y0063107D01*
X0081861Y0062649D01*
X0082098Y0062238D01*
X0082433Y0061903D01*
X0082844Y0061666D01*
X0083302Y0061544D01*
X0085507Y0061544D01*
X0087713Y0061544D01*
X0088170Y0061666D01*
X0088581Y0061903D01*
X0088916Y0062238D01*
X0089153Y0062649D01*
X0089276Y0063107D01*
X0089276Y0064918D01*
X0085507Y0064918D01*
X0085507Y0064918D01*
X0085507Y0061544D01*
X0085507Y0064918D01*
X0081739Y0064918D01*
X0085507Y0064918D01*
X0085507Y0064918D01*
X0085507Y0064918D01*
X0089276Y0064918D01*
X0089276Y0066730D01*
X0089153Y0067188D01*
X0089107Y0067268D01*
X0089315Y0067268D01*
X0090219Y0066364D01*
X0090219Y0030679D01*
X0089850Y0030679D01*
X0089850Y0034040D01*
X0087306Y0036584D01*
X0083708Y0036584D01*
X0082527Y0035403D01*
X0075941Y0035403D01*
X0074779Y0034922D01*
X0074811Y0034935D02*
X0057173Y0034935D01*
X0057173Y0036534D02*
X0083657Y0036534D01*
X0087357Y0036534D02*
X0090219Y0036534D01*
X0090219Y0038132D02*
X0057173Y0038132D01*
X0057173Y0038134D02*
X0057588Y0038134D01*
X0058090Y0038637D01*
X0058434Y0038438D01*
X0058892Y0038315D01*
X0060704Y0038315D01*
X0062516Y0038315D01*
X0062974Y0038438D01*
X0063384Y0038675D01*
X0063719Y0039010D01*
X0063956Y0039420D01*
X0064079Y0039878D01*
X0064079Y0042084D01*
X0064079Y0044289D01*
X0063956Y0044747D01*
X0063719Y0045157D01*
X0063384Y0045493D01*
X0062974Y0045730D01*
X0062516Y0045852D01*
X0060704Y0045852D01*
X0060704Y0042084D01*
X0060704Y0042084D01*
X0060704Y0045852D01*
X0058892Y0045852D01*
X0058434Y0045730D01*
X0058090Y0045531D01*
X0057588Y0046033D01*
X0057173Y0046033D01*
X0057173Y0054357D01*
X0063785Y0060969D01*
X0064674Y0060969D01*
X0065835Y0062129D01*
X0065835Y0065739D01*
X0065541Y0066033D01*
X0065654Y0066453D01*
X0065654Y0067674D01*
X0062279Y0067674D01*
X0062279Y0067674D01*
X0065654Y0067674D01*
X0065654Y0068895D01*
X0065541Y0069316D01*
X0065835Y0069610D01*
X0065835Y0073219D01*
X0064674Y0074380D01*
X0063383Y0074380D01*
X0062908Y0074577D01*
X0062291Y0074577D01*
X0062291Y0075420D01*
X0063195Y0076323D01*
X0070388Y0076323D01*
X0071550Y0076804D01*
X0076974Y0082229D01*
X0084495Y0082229D01*
X0085677Y0081047D01*
X0089275Y0081047D01*
X0090456Y0082229D01*
X0111756Y0082229D01*
X0115274Y0078710D01*
X0112437Y0078710D01*
X0111275Y0078229D01*
X0098574Y0065528D01*
X0098093Y0064366D01*
X0098093Y0056875D01*
X0096912Y0055694D01*
X0096912Y0052096D01*
X0099456Y0049551D01*
X0103054Y0049551D01*
X0103605Y0050102D01*
X0103605Y0049094D01*
X0104266Y0047497D01*
X0105336Y0046427D01*
X0104372Y0046427D01*
X0103211Y0045266D01*
X0103211Y0040476D01*
X0103714Y0039973D01*
X0103515Y0039629D01*
X0103392Y0039171D01*
X0103392Y0037359D01*
X0103392Y0035547D01*
X0103515Y0035090D01*
X0103752Y0034679D01*
X0104087Y0034344D01*
X0104497Y0034107D01*
X0104955Y0033984D01*
X0107161Y0033984D01*
X0109366Y0033984D01*
X0109824Y0034107D01*
X0110234Y0034344D01*
X0110569Y0034679D01*
X0110806Y0035090D01*
X0110929Y0035547D01*
X0110929Y0037359D01*
X0107161Y0037359D01*
X0107161Y0037359D01*
X0107161Y0033984D01*
X0107161Y0037359D01*
X0107161Y0037359D01*
X0110929Y0037359D01*
X0110929Y0039171D01*
X0110806Y0039629D01*
X0110608Y0039973D01*
X0111110Y0040476D01*
X0111110Y0042349D01*
X0111342Y0042581D01*
X0112246Y0041677D01*
X0117824Y0041677D01*
X0118984Y0042838D01*
X0118984Y0048764D01*
X0119179Y0048764D01*
X0119140Y0048620D01*
X0119140Y0046205D01*
X0122724Y0046205D01*
X0122724Y0045836D01*
X0123093Y0045836D01*
X0123093Y0041858D01*
X0125114Y0041858D01*
X0125572Y0041981D01*
X0125652Y0042027D01*
X0125652Y0041425D01*
X0122780Y0038553D01*
X0120120Y0038553D01*
X0118959Y0037392D01*
X0118959Y0031027D01*
X0119713Y0030273D01*
X0118959Y0029518D01*
X0118959Y0024728D01*
X0119462Y0024225D01*
X0119263Y0023881D01*
X0119140Y0023423D01*
X0119140Y0021611D01*
X0119140Y0019799D01*
X0119263Y0019342D01*
X0119500Y0018931D01*
X0119835Y0018596D01*
X0120046Y0018474D01*
X0058724Y0018474D01*
X0057173Y0019870D01*
X0057173Y0023685D01*
X0058204Y0022654D01*
X0059801Y0021992D01*
X0061529Y0021992D01*
X0063125Y0022654D01*
X0064347Y0023875D01*
X0065008Y0025472D01*
X0065008Y0027200D01*
X0064347Y0028796D01*
X0063125Y0030018D01*
X0061529Y0030679D01*
X0059801Y0030679D01*
X0058204Y0030018D01*
X0057173Y0028987D01*
X0057173Y0038134D01*
X0060704Y0038315D02*
X0060704Y0042084D01*
X0064079Y0042084D01*
X0060704Y0042084D01*
X0060704Y0042084D01*
X0060704Y0038315D01*
X0060704Y0039731D02*
X0060704Y0039731D01*
X0060704Y0041329D02*
X0060704Y0041329D01*
X0060704Y0042084D02*
X0060704Y0042084D01*
X0060704Y0042928D02*
X0060704Y0042928D01*
X0060704Y0044526D02*
X0060704Y0044526D01*
X0064015Y0044526D02*
X0090219Y0044526D01*
X0090219Y0042928D02*
X0064079Y0042928D01*
X0064079Y0041329D02*
X0090219Y0041329D01*
X0090219Y0039731D02*
X0064039Y0039731D01*
X0057173Y0046125D02*
X0090219Y0046125D01*
X0090219Y0047723D02*
X0057173Y0047723D01*
X0057173Y0049322D02*
X0090219Y0049322D01*
X0090219Y0050920D02*
X0075886Y0050920D01*
X0076071Y0051106D02*
X0076071Y0053103D01*
X0076465Y0054053D01*
X0076465Y0061736D01*
X0076858Y0062129D01*
X0076858Y0065739D01*
X0075698Y0066899D01*
X0074407Y0066899D01*
X0073931Y0067096D01*
X0072673Y0067096D01*
X0072198Y0066899D01*
X0070907Y0066899D01*
X0069746Y0065739D01*
X0069746Y0062129D01*
X0070140Y0061736D01*
X0070140Y0057844D01*
X0070120Y0057844D01*
X0069617Y0057342D01*
X0069273Y0057541D01*
X0068815Y0057663D01*
X0067003Y0057663D01*
X0065191Y0057663D01*
X0064734Y0057541D01*
X0064323Y0057304D01*
X0063988Y0056968D01*
X0063751Y0056558D01*
X0063628Y0056100D01*
X0063628Y0053895D01*
X0067003Y0053895D01*
X0067003Y0057663D01*
X0067003Y0053895D01*
X0067003Y0053895D01*
X0067003Y0053895D01*
X0063628Y0053895D01*
X0063628Y0051689D01*
X0063751Y0051231D01*
X0063988Y0050821D01*
X0064323Y0050486D01*
X0064734Y0050249D01*
X0065191Y0050126D01*
X0067003Y0050126D01*
X0067003Y0053895D01*
X0067003Y0053895D01*
X0067003Y0050126D01*
X0068815Y0050126D01*
X0069273Y0050249D01*
X0069617Y0050448D01*
X0070120Y0049945D01*
X0074910Y0049945D01*
X0076071Y0051106D01*
X0076071Y0052519D02*
X0090219Y0052519D01*
X0090219Y0054117D02*
X0076465Y0054117D01*
X0076465Y0055716D02*
X0090219Y0055716D01*
X0090219Y0057314D02*
X0076465Y0057314D01*
X0076465Y0058913D02*
X0090219Y0058913D01*
X0090219Y0060511D02*
X0076465Y0060511D01*
X0076839Y0062110D02*
X0082227Y0062110D01*
X0081739Y0063708D02*
X0076858Y0063708D01*
X0076858Y0065307D02*
X0081739Y0065307D01*
X0081786Y0066906D02*
X0074392Y0066906D01*
X0072213Y0066906D02*
X0065654Y0066906D01*
X0065654Y0068504D02*
X0070852Y0068504D01*
X0069746Y0070103D02*
X0065835Y0070103D01*
X0065835Y0071701D02*
X0069746Y0071701D01*
X0069827Y0073300D02*
X0065754Y0073300D01*
X0062291Y0074898D02*
X0107944Y0074898D01*
X0106345Y0073300D02*
X0091961Y0073300D01*
X0093826Y0071701D02*
X0104747Y0071701D01*
X0103148Y0070103D02*
X0095425Y0070103D01*
X0096460Y0068504D02*
X0101550Y0068504D01*
X0099951Y0066906D02*
X0096543Y0066906D01*
X0096543Y0065307D02*
X0098483Y0065307D01*
X0098093Y0063708D02*
X0096543Y0063708D01*
X0096543Y0062110D02*
X0098093Y0062110D01*
X0098093Y0060511D02*
X0096543Y0060511D01*
X0096543Y0058913D02*
X0098093Y0058913D01*
X0098093Y0057314D02*
X0096543Y0057314D01*
X0096543Y0055716D02*
X0096934Y0055716D01*
X0096912Y0054117D02*
X0096543Y0054117D01*
X0096543Y0052519D02*
X0096912Y0052519D01*
X0096543Y0050920D02*
X0098087Y0050920D01*
X0096543Y0049322D02*
X0103605Y0049322D01*
X0104172Y0047723D02*
X0096543Y0047723D01*
X0096543Y0046125D02*
X0104069Y0046125D01*
X0103211Y0044526D02*
X0096543Y0044526D01*
X0096543Y0042928D02*
X0103211Y0042928D01*
X0103211Y0041329D02*
X0096543Y0041329D01*
X0096543Y0039731D02*
X0103574Y0039731D01*
X0103392Y0038132D02*
X0096543Y0038132D01*
X0096543Y0036534D02*
X0103392Y0036534D01*
X0103392Y0037359D02*
X0107160Y0037359D01*
X0107160Y0037359D01*
X0103392Y0037359D01*
X0103604Y0034935D02*
X0096543Y0034935D01*
X0096543Y0033337D02*
X0111266Y0033337D01*
X0111266Y0034025D02*
X0111266Y0031610D01*
X0111389Y0031153D01*
X0111626Y0030742D01*
X0111961Y0030407D01*
X0112371Y0030170D01*
X0112829Y0030047D01*
X0114850Y0030047D01*
X0114850Y0034025D01*
X0115219Y0034025D01*
X0115219Y0030047D01*
X0117240Y0030047D01*
X0117698Y0030170D01*
X0118108Y0030407D01*
X0118444Y0030742D01*
X0118680Y0031153D01*
X0118803Y0031610D01*
X0118803Y0034025D01*
X0115219Y0034025D01*
X0115219Y0034394D01*
X0118803Y0034394D01*
X0118803Y0036809D01*
X0118680Y0037267D01*
X0118444Y0037677D01*
X0118108Y0038012D01*
X0117698Y0038249D01*
X0117240Y0038372D01*
X0115219Y0038372D01*
X0115219Y0034394D01*
X0114850Y0034394D01*
X0114850Y0034025D01*
X0111266Y0034025D01*
X0111266Y0034394D02*
X0114850Y0034394D01*
X0114850Y0038372D01*
X0112829Y0038372D01*
X0112371Y0038249D01*
X0111961Y0038012D01*
X0111626Y0037677D01*
X0111389Y0037267D01*
X0111266Y0036809D01*
X0111266Y0034394D01*
X0111266Y0034935D02*
X0110717Y0034935D01*
X0110929Y0036534D02*
X0111266Y0036534D01*
X0110929Y0038132D02*
X0112169Y0038132D01*
X0110748Y0039731D02*
X0123958Y0039731D01*
X0125556Y0041329D02*
X0111110Y0041329D01*
X0114850Y0038132D02*
X0115219Y0038132D01*
X0115219Y0036534D02*
X0114850Y0036534D01*
X0114850Y0034935D02*
X0115219Y0034935D01*
X0115219Y0033337D02*
X0114850Y0033337D01*
X0114850Y0031738D02*
X0115219Y0031738D01*
X0115219Y0030140D02*
X0114850Y0030140D01*
X0112485Y0030140D02*
X0110754Y0030140D01*
X0110124Y0030770D02*
X0108201Y0031566D01*
X0106120Y0031566D01*
X0104198Y0030770D01*
X0102726Y0029299D01*
X0101930Y0027376D01*
X0101930Y0025295D01*
X0102726Y0023373D01*
X0104198Y0021901D01*
X0106120Y0021105D01*
X0108201Y0021105D01*
X0110124Y0021901D01*
X0111595Y0023373D01*
X0112391Y0025295D01*
X0112391Y0027376D01*
X0111595Y0029299D01*
X0110124Y0030770D01*
X0111266Y0031738D02*
X0096543Y0031738D01*
X0096543Y0030140D02*
X0103567Y0030140D01*
X0102413Y0028541D02*
X0096543Y0028541D01*
X0095744Y0026943D02*
X0101930Y0026943D01*
X0101930Y0025344D02*
X0094955Y0025344D01*
X0094217Y0023746D02*
X0102572Y0023746D01*
X0103952Y0022147D02*
X0091902Y0022147D01*
X0089427Y0022147D02*
X0071902Y0022147D01*
X0069427Y0022147D02*
X0061902Y0022147D01*
X0059427Y0022147D02*
X0057173Y0022147D01*
X0057173Y0020549D02*
X0119140Y0020549D01*
X0119140Y0021611D02*
X0122909Y0021611D01*
X0122909Y0021611D01*
X0126677Y0021611D01*
X0126677Y0019799D01*
X0126554Y0019342D01*
X0126318Y0018931D01*
X0125982Y0018596D01*
X0125771Y0018474D01*
X0187620Y0018474D01*
X0187463Y0018631D01*
X0187463Y0022229D01*
X0190007Y0024773D01*
X0193605Y0024773D01*
X0196150Y0022229D01*
X0196150Y0018631D01*
X0195993Y0018474D01*
X0200411Y0018474D01*
X0200365Y0018554D01*
X0200243Y0019012D01*
X0200243Y0023592D01*
X0204417Y0023592D01*
X0204417Y0025142D01*
X0200243Y0025142D01*
X0200243Y0029722D01*
X0200365Y0030180D01*
X0200602Y0030590D01*
X0200937Y0030926D01*
X0201348Y0031163D01*
X0201806Y0031285D01*
X0204417Y0031285D01*
X0204417Y0025142D01*
X0205967Y0025142D01*
X0210142Y0025142D01*
X0210142Y0029722D01*
X0210019Y0030180D01*
X0209782Y0030590D01*
X0209447Y0030926D01*
X0209037Y0031163D01*
X0208579Y0031285D01*
X0205967Y0031285D01*
X0205967Y0025142D01*
X0205967Y0023592D01*
X0210142Y0023592D01*
X0210142Y0019012D01*
X0210019Y0018554D01*
X0209973Y0018474D01*
X0214235Y0018474D01*
X0214235Y0030306D01*
X0215395Y0031466D01*
X0218172Y0031466D01*
X0218172Y0040744D01*
X0218653Y0041906D01*
X0219543Y0042796D01*
X0223480Y0046733D01*
X0224642Y0047214D01*
X0227898Y0047214D01*
X0237857Y0057173D01*
X0237857Y0083530D01*
X0232504Y0088882D01*
X0229972Y0088882D01*
X0228811Y0090043D01*
X0228811Y0090103D01*
X0222644Y0090103D01*
X0215835Y0083294D01*
X0215835Y0081623D01*
X0213290Y0079079D01*
X0209692Y0079079D01*
X0208511Y0080260D01*
X0187828Y0080260D01*
X0186336Y0078768D01*
X0186336Y0078768D01*
X0182870Y0075302D01*
X0183084Y0075302D01*
X0188420Y0069966D01*
X0188420Y0068325D01*
X0185868Y0065772D01*
X0183966Y0063870D01*
X0183966Y0063870D01*
X0181414Y0061318D01*
X0181414Y0061318D01*
X0180472Y0060376D01*
X0181822Y0059025D01*
X0194433Y0059025D01*
X0206058Y0070650D01*
X0207221Y0071132D01*
X0209883Y0071132D01*
X0209982Y0071230D01*
X0216347Y0071230D01*
X0217508Y0070070D01*
X0217508Y0065869D01*
X0216347Y0064709D01*
X0209982Y0064709D01*
X0209883Y0064807D01*
X0209159Y0064807D01*
X0198424Y0054072D01*
X0197535Y0053182D01*
X0196372Y0052701D01*
X0179883Y0052701D01*
X0178721Y0053182D01*
X0176000Y0055904D01*
X0174732Y0054637D01*
X0174732Y0054637D01*
X0172505Y0052410D01*
X0170603Y0050508D01*
X0170603Y0050508D01*
X0169336Y0049241D01*
X0169394Y0049183D01*
X0184561Y0049183D01*
X0185724Y0048701D01*
X0186030Y0048395D01*
X0187700Y0048395D01*
X0190244Y0045851D01*
X0190244Y0042253D01*
X0187700Y0039709D01*
X0184102Y0039709D01*
X0181557Y0042253D01*
X0181557Y0042858D01*
X0173552Y0042858D01*
X0174496Y0041914D01*
X0174496Y0039340D01*
X0188498Y0039340D01*
X0189661Y0038859D01*
X0190446Y0038073D01*
X0196321Y0042869D01*
X0196321Y0044873D01*
X0197482Y0046033D01*
X0201197Y0046033D01*
X0200061Y0047169D01*
X0200061Y0053534D01*
X0201222Y0054695D01*
X0206013Y0054695D01*
X0207173Y0053534D01*
X0207173Y0053514D01*
X0218449Y0053514D01*
X0220140Y0055205D01*
X0220140Y0067449D01*
X0220083Y0067850D01*
X0220140Y0068073D01*
X0220140Y0068303D01*
X0220295Y0068677D01*
X0220395Y0069068D01*
X0220533Y0069253D01*
X0220622Y0069465D01*
X0220907Y0069751D01*
X0224865Y0075028D01*
X0224865Y0077347D01*
X0227409Y0079892D01*
X0231007Y0079892D01*
X0233551Y0077347D01*
X0233551Y0073749D01*
X0231032Y0071230D01*
X0236623Y0071230D01*
X0237783Y0070070D01*
X0237783Y0065869D01*
X0236623Y0064709D01*
X0230257Y0064709D01*
X0229097Y0065869D01*
X0229097Y0070070D01*
X0230232Y0071205D01*
X0229903Y0071205D01*
X0226465Y0066620D01*
X0226465Y0053266D01*
X0225983Y0052103D01*
X0225094Y0051214D01*
X0225094Y0051214D01*
X0221550Y0047671D01*
X0220388Y0047189D01*
X0207173Y0047189D01*
X0207173Y0047169D01*
X0206013Y0046008D01*
X0202298Y0046008D01*
X0203433Y0044873D01*
X0203433Y0038507D01*
X0202273Y0037347D01*
X0199557Y0037347D01*
X0192355Y0031467D01*
X0192023Y0031135D01*
X0191871Y0031072D01*
X0191744Y0030969D01*
X0191294Y0030833D01*
X0190860Y0030654D01*
X0190696Y0030654D01*
X0190539Y0030607D01*
X0190072Y0030654D01*
X0189602Y0030654D01*
X0189451Y0030717D01*
X0189288Y0030733D01*
X0188874Y0030955D01*
X0188440Y0031135D01*
X0188324Y0031251D01*
X0188180Y0031329D01*
X0187883Y0031693D01*
X0186559Y0033016D01*
X0184464Y0033016D01*
X0187064Y0030417D01*
X0187064Y0028304D01*
X0181964Y0028304D01*
X0181964Y0028304D01*
X0181964Y0023204D01*
X0184076Y0023204D01*
X0187064Y0026192D01*
X0187064Y0028304D01*
X0181964Y0028304D01*
X0181964Y0028304D01*
X0181964Y0023204D01*
X0179851Y0023204D01*
X0178155Y0024901D01*
X0176277Y0023023D01*
X0171902Y0023023D01*
X0168809Y0026117D01*
X0168809Y0030492D01*
X0171333Y0033016D01*
X0167526Y0033016D01*
X0160629Y0026119D01*
X0159739Y0025230D01*
X0158577Y0024748D01*
X0143437Y0024748D01*
X0143484Y0024668D01*
X0143606Y0024210D01*
X0143606Y0022399D01*
X0139838Y0022399D01*
X0139838Y0022399D01*
X0143606Y0022399D01*
X0143606Y0020587D01*
X0143484Y0020129D01*
X0143247Y0019719D01*
X0142912Y0019383D01*
X0142501Y0019147D01*
X0142043Y0019024D01*
X0139838Y0019024D01*
X0139838Y0022399D01*
X0139838Y0022399D01*
X0136069Y0022399D01*
X0136069Y0024210D01*
X0136192Y0024668D01*
X0136391Y0025013D01*
X0135888Y0025515D01*
X0135888Y0030306D01*
X0136676Y0031093D01*
X0136676Y0032506D01*
X0133322Y0035860D01*
X0133322Y0035860D01*
X0132433Y0036749D01*
X0131951Y0037911D01*
X0131951Y0039425D01*
X0131495Y0038324D01*
X0130605Y0037434D01*
X0130605Y0037434D01*
X0127672Y0034501D01*
X0127950Y0034616D01*
X0129678Y0034616D01*
X0131274Y0033955D01*
X0132496Y0032733D01*
X0133157Y0031137D01*
X0133157Y0029409D01*
X0132496Y0027812D01*
X0131274Y0026591D01*
X0129678Y0025929D01*
X0127950Y0025929D01*
X0126858Y0026382D01*
X0126858Y0024728D01*
X0126356Y0024225D01*
X0126554Y0023881D01*
X0126677Y0023423D01*
X0126677Y0021611D01*
X0122909Y0021611D01*
X0122909Y0021611D01*
X0119140Y0021611D01*
X0119140Y0022147D02*
X0110370Y0022147D01*
X0111750Y0023746D02*
X0119227Y0023746D01*
X0118959Y0025344D02*
X0112391Y0025344D01*
X0112391Y0026943D02*
X0118959Y0026943D01*
X0118959Y0028541D02*
X0111909Y0028541D01*
X0117585Y0030140D02*
X0119580Y0030140D01*
X0118959Y0031738D02*
X0118803Y0031738D01*
X0118803Y0033337D02*
X0118959Y0033337D01*
X0118959Y0034935D02*
X0118803Y0034935D01*
X0118803Y0036534D02*
X0118959Y0036534D01*
X0119699Y0038132D02*
X0117900Y0038132D01*
X0120245Y0041981D02*
X0120703Y0041858D01*
X0122724Y0041858D01*
X0122724Y0045836D01*
X0119140Y0045836D01*
X0119140Y0043422D01*
X0119263Y0042964D01*
X0119500Y0042553D01*
X0119835Y0042218D01*
X0120245Y0041981D01*
X0119284Y0042928D02*
X0118984Y0042928D01*
X0118984Y0044526D02*
X0119140Y0044526D01*
X0118984Y0046125D02*
X0122724Y0046125D01*
X0122724Y0044526D02*
X0123093Y0044526D01*
X0123093Y0042928D02*
X0122724Y0042928D01*
X0119140Y0047723D02*
X0118984Y0047723D01*
X0113243Y0052638D02*
X0112354Y0051749D01*
X0112131Y0051210D01*
X0111630Y0052418D01*
X0110408Y0053640D01*
X0108812Y0054301D01*
X0107084Y0054301D01*
X0105598Y0053686D01*
X0105598Y0055694D01*
X0104417Y0056875D01*
X0104417Y0062427D01*
X0114050Y0072060D01*
X0116617Y0069494D01*
X0114628Y0067505D01*
X0114628Y0063907D01*
X0117173Y0061362D01*
X0120771Y0061362D01*
X0121952Y0062544D01*
X0129343Y0062544D01*
X0129883Y0062767D01*
X0131333Y0061318D01*
X0131589Y0061318D01*
X0132403Y0060504D01*
X0126987Y0055088D01*
X0117632Y0055088D01*
X0116374Y0055088D01*
X0115212Y0054607D01*
X0113243Y0052638D01*
X0113124Y0052519D02*
X0111529Y0052519D01*
X0109255Y0054117D02*
X0114722Y0054117D01*
X0106641Y0054117D02*
X0105598Y0054117D01*
X0105576Y0055716D02*
X0127615Y0055716D01*
X0129213Y0057314D02*
X0104417Y0057314D01*
X0104417Y0058913D02*
X0130812Y0058913D01*
X0132396Y0060511D02*
X0104417Y0060511D01*
X0104417Y0062110D02*
X0116425Y0062110D01*
X0114827Y0063708D02*
X0105698Y0063708D01*
X0107297Y0065307D02*
X0114628Y0065307D01*
X0114628Y0066906D02*
X0108895Y0066906D01*
X0110494Y0068504D02*
X0115628Y0068504D01*
X0116008Y0070103D02*
X0112092Y0070103D01*
X0113691Y0071701D02*
X0114410Y0071701D01*
X0109542Y0076497D02*
X0070807Y0076497D01*
X0072841Y0078095D02*
X0111141Y0078095D01*
X0114291Y0079694D02*
X0074439Y0079694D01*
X0076038Y0081292D02*
X0085432Y0081292D01*
X0089519Y0081292D02*
X0112693Y0081292D01*
X0128951Y0094080D02*
X0133369Y0094080D01*
X0134502Y0092948D02*
X0133560Y0092006D01*
X0132293Y0090738D01*
X0106386Y0116645D01*
X0106386Y0119484D01*
X0105904Y0120647D01*
X0105015Y0121536D01*
X0105015Y0121536D01*
X0101015Y0125536D01*
X0117662Y0125536D01*
X0127620Y0115577D01*
X0127620Y0109418D01*
X0128077Y0108317D01*
X0124408Y0111985D01*
X0123519Y0112875D01*
X0122848Y0113153D01*
X0123011Y0113436D01*
X0123134Y0113894D01*
X0123134Y0115706D01*
X0123134Y0117518D01*
X0123011Y0117975D01*
X0122774Y0118386D01*
X0122439Y0118721D01*
X0122029Y0118958D01*
X0121571Y0119081D01*
X0119365Y0119081D01*
X0117160Y0119081D01*
X0116702Y0118958D01*
X0116292Y0118721D01*
X0115956Y0118386D01*
X0115720Y0117975D01*
X0115597Y0117518D01*
X0115597Y0115706D01*
X0119365Y0115706D01*
X0119365Y0115706D01*
X0119365Y0119081D01*
X0119365Y0115706D01*
X0119365Y0115706D01*
X0115597Y0115706D01*
X0115597Y0113894D01*
X0115720Y0113436D01*
X0115918Y0113092D01*
X0115416Y0112589D01*
X0115416Y0107799D01*
X0116576Y0106638D01*
X0120811Y0106638D01*
X0134502Y0092948D01*
X0134036Y0092482D02*
X0130549Y0092482D01*
X0132148Y0090883D02*
X0132438Y0090883D01*
X0131771Y0095679D02*
X0127352Y0095679D01*
X0125754Y0097277D02*
X0130172Y0097277D01*
X0128574Y0098876D02*
X0124155Y0098876D01*
X0122557Y0100474D02*
X0126975Y0100474D01*
X0125377Y0102073D02*
X0120958Y0102073D01*
X0119360Y0103671D02*
X0123778Y0103671D01*
X0122180Y0105270D02*
X0117761Y0105270D01*
X0116346Y0106868D02*
X0116163Y0106868D01*
X0115416Y0108467D02*
X0114564Y0108467D01*
X0115416Y0110065D02*
X0112966Y0110065D01*
X0111367Y0111664D02*
X0115416Y0111664D01*
X0115820Y0113262D02*
X0109769Y0113262D01*
X0108170Y0114861D02*
X0115597Y0114861D01*
X0115597Y0116459D02*
X0106571Y0116459D01*
X0106386Y0118058D02*
X0115767Y0118058D01*
X0119365Y0118058D02*
X0119365Y0118058D01*
X0119365Y0116459D02*
X0119365Y0116459D01*
X0119365Y0115706D02*
X0123134Y0115706D01*
X0119365Y0115706D01*
X0119365Y0115706D01*
X0123134Y0116459D02*
X0126738Y0116459D01*
X0127620Y0114861D02*
X0123134Y0114861D01*
X0122911Y0113262D02*
X0127620Y0113262D01*
X0127620Y0111664D02*
X0124730Y0111664D01*
X0124408Y0111985D02*
X0124408Y0111985D01*
X0126328Y0110065D02*
X0127620Y0110065D01*
X0127927Y0108467D02*
X0128015Y0108467D01*
X0138092Y0111664D02*
X0146678Y0111664D01*
X0146708Y0111694D02*
X0146708Y0111694D01*
X0145512Y0110065D02*
X0139691Y0110065D01*
X0141289Y0108467D02*
X0145337Y0108467D01*
X0145337Y0106868D02*
X0142888Y0106868D01*
X0144486Y0105270D02*
X0145337Y0105270D01*
X0151796Y0106868D02*
X0160950Y0106868D01*
X0159352Y0105270D02*
X0153395Y0105270D01*
X0154715Y0103671D02*
X0157753Y0103671D01*
X0156155Y0102073D02*
X0156127Y0102073D01*
X0152425Y0108467D02*
X0162549Y0108467D01*
X0164147Y0110065D02*
X0159641Y0110065D01*
X0161528Y0111664D02*
X0165686Y0111664D01*
X0165686Y0113262D02*
X0163126Y0113262D01*
X0164725Y0114861D02*
X0167266Y0114861D01*
X0166323Y0116459D02*
X0168864Y0116459D01*
X0167922Y0118058D02*
X0170719Y0118058D01*
X0171405Y0118744D02*
X0174070Y0116080D01*
X0176456Y0118466D01*
X0174070Y0116080D01*
X0174070Y0116080D01*
X0174070Y0116080D01*
X0171405Y0118744D01*
X0172092Y0118058D02*
X0172092Y0118058D01*
X0172317Y0119656D02*
X0169520Y0119656D01*
X0171119Y0121255D02*
X0255801Y0121255D01*
X0257399Y0119656D02*
X0175266Y0119656D01*
X0176048Y0118058D02*
X0176048Y0118058D01*
X0176864Y0118058D02*
X0258998Y0118058D01*
X0260596Y0116459D02*
X0178263Y0116459D01*
X0178111Y0114861D02*
X0262195Y0114861D01*
X0263793Y0113262D02*
X0176582Y0113262D01*
X0176735Y0113415D02*
X0174070Y0116079D01*
X0174070Y0116080D01*
X0176735Y0113415D01*
X0175289Y0114861D02*
X0175289Y0114861D01*
X0174450Y0116459D02*
X0174450Y0116459D01*
X0173690Y0116459D02*
X0173690Y0116459D01*
X0174659Y0111664D02*
X0265392Y0111664D01*
X0266990Y0110065D02*
X0173641Y0110065D01*
X0172043Y0108467D02*
X0268589Y0108467D01*
X0270187Y0106868D02*
X0207967Y0106868D01*
X0207385Y0107451D02*
X0208566Y0106270D01*
X0257396Y0106270D01*
X0258558Y0105788D01*
X0274306Y0090040D01*
X0275196Y0089151D01*
X0275407Y0088641D01*
X0276858Y0087190D01*
X0276858Y0083592D01*
X0274314Y0081047D01*
X0270716Y0081047D01*
X0268172Y0083592D01*
X0268172Y0087190D01*
X0268192Y0087210D01*
X0255457Y0099945D01*
X0208566Y0099945D01*
X0207385Y0098764D01*
X0203787Y0098764D01*
X0201243Y0101308D01*
X0201243Y0104906D01*
X0203787Y0107451D01*
X0207385Y0107451D01*
X0203204Y0106868D02*
X0196156Y0106868D01*
X0197755Y0105270D02*
X0201606Y0105270D01*
X0201243Y0103671D02*
X0198118Y0103671D01*
X0198118Y0102073D02*
X0201243Y0102073D01*
X0202077Y0100474D02*
X0197284Y0100474D01*
X0196671Y0098876D02*
X0203675Y0098876D01*
X0207497Y0098876D02*
X0256526Y0098876D01*
X0258125Y0097277D02*
X0248499Y0097277D01*
X0248129Y0097647D02*
X0249289Y0096487D01*
X0249289Y0093955D01*
X0265747Y0077497D01*
X0266228Y0076335D01*
X0266228Y0065047D01*
X0271652Y0059623D01*
X0272134Y0058461D01*
X0272134Y0041309D01*
X0273729Y0041309D01*
X0274890Y0040148D01*
X0274890Y0026696D01*
X0273729Y0025536D01*
X0264214Y0025536D01*
X0263054Y0026696D01*
X0263054Y0040148D01*
X0264214Y0041309D01*
X0265809Y0041309D01*
X0265809Y0056522D01*
X0261756Y0060575D01*
X0257779Y0060575D01*
X0256597Y0059394D01*
X0252999Y0059394D01*
X0250455Y0061938D01*
X0250455Y0065536D01*
X0252999Y0068081D01*
X0256597Y0068081D01*
X0257779Y0066899D01*
X0259904Y0066899D01*
X0259904Y0074396D01*
X0245418Y0088882D01*
X0242885Y0088882D01*
X0241725Y0090043D01*
X0241725Y0096487D01*
X0242885Y0097647D01*
X0248129Y0097647D01*
X0249289Y0095679D02*
X0259723Y0095679D01*
X0261322Y0094080D02*
X0249289Y0094080D01*
X0250762Y0092482D02*
X0262920Y0092482D01*
X0264519Y0090883D02*
X0252361Y0090883D01*
X0253959Y0089285D02*
X0266118Y0089285D01*
X0267716Y0087686D02*
X0255558Y0087686D01*
X0257156Y0086088D02*
X0268172Y0086088D01*
X0268172Y0084489D02*
X0258755Y0084489D01*
X0260353Y0082891D02*
X0268873Y0082891D01*
X0270471Y0081292D02*
X0261952Y0081292D01*
X0263550Y0079694D02*
X0338701Y0079694D01*
X0340299Y0078095D02*
X0265149Y0078095D01*
X0266161Y0076497D02*
X0341898Y0076497D01*
X0343496Y0074898D02*
X0266228Y0074898D01*
X0266228Y0073300D02*
X0345095Y0073300D01*
X0347645Y0079694D02*
X0379876Y0079694D01*
X0381475Y0078095D02*
X0370897Y0078095D01*
X0372495Y0076497D02*
X0383073Y0076497D01*
X0384672Y0074898D02*
X0374094Y0074898D01*
X0375692Y0073300D02*
X0386270Y0073300D01*
X0387069Y0071701D02*
X0377291Y0071701D01*
X0371544Y0068504D02*
X0369984Y0068504D01*
X0369984Y0069092D02*
X0369862Y0069550D01*
X0369625Y0069961D01*
X0369289Y0070296D01*
X0368879Y0070533D01*
X0368421Y0070655D01*
X0366498Y0070655D01*
X0366498Y0065988D01*
X0366327Y0065988D01*
X0366327Y0065817D01*
X0366498Y0065817D01*
X0366498Y0061150D01*
X0368421Y0061150D01*
X0368879Y0061272D01*
X0369289Y0061509D01*
X0369625Y0061845D01*
X0369862Y0062255D01*
X0369984Y0062713D01*
X0369984Y0065817D01*
X0366498Y0065817D01*
X0366498Y0065988D01*
X0369984Y0065988D01*
X0369984Y0069092D01*
X0369945Y0070103D02*
X0369483Y0070103D01*
X0368347Y0071701D02*
X0266228Y0071701D01*
X0266228Y0070103D02*
X0363343Y0070103D01*
X0363201Y0069961D02*
X0362964Y0069550D01*
X0362841Y0069092D01*
X0362841Y0065988D01*
X0366327Y0065988D01*
X0366327Y0070655D01*
X0364404Y0070655D01*
X0363946Y0070533D01*
X0363536Y0070296D01*
X0363201Y0069961D01*
X0362841Y0068504D02*
X0266228Y0068504D01*
X0266228Y0066906D02*
X0362841Y0066906D01*
X0362841Y0065817D02*
X0362841Y0062713D01*
X0362964Y0062255D01*
X0363201Y0061845D01*
X0363536Y0061509D01*
X0363946Y0061272D01*
X0364404Y0061150D01*
X0366327Y0061150D01*
X0366327Y0065817D01*
X0362841Y0065817D01*
X0362841Y0065307D02*
X0266228Y0065307D01*
X0267567Y0063708D02*
X0362841Y0063708D01*
X0363047Y0062110D02*
X0269165Y0062110D01*
X0270764Y0060511D02*
X0384307Y0060511D01*
X0383138Y0062110D02*
X0385919Y0062110D01*
X0387069Y0063708D02*
X0383157Y0063708D01*
X0383157Y0065307D02*
X0387069Y0065307D01*
X0387069Y0066906D02*
X0383157Y0066906D01*
X0383157Y0068504D02*
X0387069Y0068504D01*
X0387069Y0070103D02*
X0382731Y0070103D01*
X0374741Y0065307D02*
X0369984Y0065307D01*
X0369984Y0066906D02*
X0373142Y0066906D01*
X0375652Y0063708D02*
X0369984Y0063708D01*
X0369778Y0062110D02*
X0375671Y0062110D01*
X0381084Y0057314D02*
X0272134Y0057314D01*
X0272134Y0055716D02*
X0379472Y0055716D01*
X0377860Y0054117D02*
X0300269Y0054117D01*
X0300287Y0054108D02*
X0299703Y0054406D01*
X0299080Y0054608D01*
X0298433Y0054710D01*
X0298106Y0054710D01*
X0298106Y0050548D01*
X0298106Y0050548D01*
X0302268Y0050548D01*
X0302268Y0050221D01*
X0302165Y0049574D01*
X0301963Y0048951D01*
X0301665Y0048367D01*
X0301280Y0047837D01*
X0300817Y0047373D01*
X0300287Y0046988D01*
X0299703Y0046691D01*
X0299080Y0046489D01*
X0298433Y0046386D01*
X0298106Y0046386D01*
X0298106Y0050548D01*
X0298105Y0050548D01*
X0293943Y0050548D01*
X0293943Y0050221D01*
X0294046Y0049574D01*
X0294248Y0048951D01*
X0294546Y0048367D01*
X0294931Y0047837D01*
X0295394Y0047373D01*
X0295924Y0046988D01*
X0296508Y0046691D01*
X0297131Y0046489D01*
X0297778Y0046386D01*
X0298105Y0046386D01*
X0298105Y0050548D01*
X0298105Y0050548D01*
X0293943Y0050548D01*
X0293943Y0050876D01*
X0294046Y0051523D01*
X0294248Y0052146D01*
X0294546Y0052730D01*
X0294931Y0053260D01*
X0295394Y0053723D01*
X0295924Y0054108D01*
X0296508Y0054406D01*
X0297131Y0054608D01*
X0297778Y0054710D01*
X0298105Y0054710D01*
X0298105Y0050548D01*
X0298106Y0050548D01*
X0302268Y0050548D01*
X0302268Y0050876D01*
X0302165Y0051523D01*
X0301963Y0052146D01*
X0301665Y0052730D01*
X0301280Y0053260D01*
X0300817Y0053723D01*
X0300287Y0054108D01*
X0301773Y0052519D02*
X0376248Y0052519D01*
X0374636Y0050920D02*
X0302261Y0050920D01*
X0302083Y0049322D02*
X0373024Y0049322D01*
X0371412Y0047723D02*
X0301167Y0047723D01*
X0298106Y0047723D02*
X0298105Y0047723D01*
X0298105Y0049322D02*
X0298106Y0049322D01*
X0298105Y0050920D02*
X0298106Y0050920D01*
X0298105Y0052519D02*
X0298106Y0052519D01*
X0298105Y0054117D02*
X0298106Y0054117D01*
X0295942Y0054117D02*
X0272134Y0054117D01*
X0272134Y0052519D02*
X0294438Y0052519D01*
X0293950Y0050920D02*
X0272134Y0050920D01*
X0272134Y0049322D02*
X0294128Y0049322D01*
X0295044Y0047723D02*
X0272134Y0047723D01*
X0272134Y0046125D02*
X0369800Y0046125D01*
X0368188Y0044526D02*
X0272134Y0044526D01*
X0272134Y0042928D02*
X0366576Y0042928D01*
X0364964Y0041329D02*
X0272134Y0041329D01*
X0274890Y0039731D02*
X0363352Y0039731D01*
X0361740Y0038132D02*
X0274890Y0038132D01*
X0274890Y0036534D02*
X0360128Y0036534D01*
X0358516Y0034935D02*
X0274890Y0034935D01*
X0274890Y0033337D02*
X0285076Y0033337D01*
X0285079Y0033340D02*
X0284327Y0032588D01*
X0283920Y0031605D01*
X0283920Y0027338D01*
X0283920Y0024135D01*
X0284327Y0023152D01*
X0285079Y0022400D01*
X0286062Y0021992D01*
X0287127Y0021992D01*
X0288110Y0022400D01*
X0288862Y0023152D01*
X0289269Y0024135D01*
X0289269Y0025198D01*
X0290245Y0025602D01*
X0290365Y0025723D01*
X0290365Y0025203D01*
X0290772Y0024220D01*
X0292592Y0022400D01*
X0293575Y0021992D01*
X0296775Y0021992D01*
X0297758Y0022400D01*
X0298398Y0023040D01*
X0299038Y0022400D01*
X0300021Y0021992D01*
X0303220Y0021992D01*
X0304203Y0022400D01*
X0304956Y0023152D01*
X0305271Y0023467D01*
X0306023Y0024220D01*
X0306267Y0024807D01*
X0306431Y0025203D01*
X0306431Y0026263D01*
X0306463Y0026263D01*
X0306857Y0026426D01*
X0306886Y0026355D01*
X0306886Y0026355D01*
X0306972Y0026269D01*
X0306886Y0026182D01*
X0306479Y0025199D01*
X0306479Y0024135D01*
X0306886Y0023152D01*
X0307639Y0022400D01*
X0308622Y0021992D01*
X0312889Y0021992D01*
X0313872Y0022400D01*
X0314624Y0023152D01*
X0314939Y0023467D01*
X0314939Y0023467D01*
X0315692Y0024220D01*
X0315935Y0024807D01*
X0316099Y0025203D01*
X0316099Y0026267D01*
X0315692Y0027250D01*
X0315605Y0027336D01*
X0315692Y0027422D01*
X0316099Y0028405D01*
X0316099Y0029470D01*
X0315692Y0030453D01*
X0314939Y0031205D01*
X0313956Y0031612D01*
X0309689Y0031612D01*
X0309673Y0031606D01*
X0309673Y0032672D01*
X0309266Y0033655D01*
X0308514Y0034408D01*
X0307531Y0034815D01*
X0306466Y0034815D01*
X0305483Y0034408D01*
X0304731Y0033655D01*
X0304324Y0032672D01*
X0304324Y0031113D01*
X0304310Y0031099D01*
X0304203Y0031205D01*
X0303220Y0031612D01*
X0300021Y0031612D01*
X0299602Y0031439D01*
X0299038Y0031205D01*
X0299038Y0031205D01*
X0299024Y0031191D01*
X0298398Y0030565D01*
X0297758Y0031205D01*
X0296775Y0031612D01*
X0293575Y0031612D01*
X0293540Y0031597D01*
X0293540Y0031605D01*
X0293132Y0032588D01*
X0292380Y0033340D01*
X0291397Y0033747D01*
X0286062Y0033747D01*
X0285079Y0033340D01*
X0283975Y0031738D02*
X0274890Y0031738D01*
X0274890Y0030140D02*
X0283920Y0030140D01*
X0283920Y0028541D02*
X0274890Y0028541D01*
X0274890Y0026943D02*
X0283920Y0026943D01*
X0283920Y0025344D02*
X0224496Y0025344D01*
X0224496Y0023746D02*
X0284081Y0023746D01*
X0285689Y0022147D02*
X0224496Y0022147D01*
X0224496Y0020549D02*
X0331951Y0020549D01*
X0332739Y0018950D02*
X0224496Y0018950D01*
X0224496Y0026943D02*
X0231557Y0026943D01*
X0231557Y0026696D02*
X0232718Y0025536D01*
X0242233Y0025536D01*
X0243394Y0026696D01*
X0243394Y0036049D01*
X0252959Y0045614D01*
X0254629Y0045614D01*
X0257173Y0048159D01*
X0257173Y0051757D01*
X0254629Y0054301D01*
X0251031Y0054301D01*
X0248487Y0051757D01*
X0248487Y0050086D01*
X0239709Y0041309D01*
X0232718Y0041309D01*
X0231557Y0040148D01*
X0231557Y0026696D01*
X0231557Y0028541D02*
X0224496Y0028541D01*
X0224496Y0030140D02*
X0231557Y0030140D01*
X0231557Y0031738D02*
X0224496Y0031738D01*
X0224496Y0033337D02*
X0231557Y0033337D01*
X0231557Y0034935D02*
X0224496Y0034935D01*
X0224496Y0036534D02*
X0231557Y0036534D01*
X0231557Y0038132D02*
X0224496Y0038132D01*
X0225422Y0039731D02*
X0231557Y0039731D01*
X0230898Y0041329D02*
X0239730Y0041329D01*
X0241328Y0042928D02*
X0232556Y0042928D01*
X0234154Y0044526D02*
X0242927Y0044526D01*
X0244525Y0046125D02*
X0235753Y0046125D01*
X0237351Y0047723D02*
X0246124Y0047723D01*
X0247722Y0049322D02*
X0238950Y0049322D01*
X0240548Y0050920D02*
X0248487Y0050920D01*
X0249249Y0052519D02*
X0242147Y0052519D01*
X0243719Y0054117D02*
X0250847Y0054117D01*
X0254813Y0054117D02*
X0265809Y0054117D01*
X0265809Y0052519D02*
X0256411Y0052519D01*
X0257173Y0050920D02*
X0265809Y0050920D01*
X0265809Y0049322D02*
X0257173Y0049322D01*
X0256738Y0047723D02*
X0265809Y0047723D01*
X0265809Y0046125D02*
X0255139Y0046125D01*
X0251871Y0044526D02*
X0265809Y0044526D01*
X0265809Y0042928D02*
X0250272Y0042928D01*
X0248674Y0041329D02*
X0265809Y0041329D01*
X0263054Y0039731D02*
X0247075Y0039731D01*
X0245477Y0038132D02*
X0263054Y0038132D01*
X0263054Y0036534D02*
X0243878Y0036534D01*
X0243394Y0034935D02*
X0263054Y0034935D01*
X0263054Y0033337D02*
X0243394Y0033337D01*
X0243394Y0031738D02*
X0263054Y0031738D01*
X0263054Y0030140D02*
X0243394Y0030140D01*
X0243394Y0028541D02*
X0263054Y0028541D01*
X0263054Y0026943D02*
X0243394Y0026943D01*
X0218172Y0031738D02*
X0192687Y0031738D01*
X0194645Y0033337D02*
X0218172Y0033337D01*
X0218172Y0034935D02*
X0196603Y0034935D01*
X0198561Y0036534D02*
X0218172Y0036534D01*
X0218172Y0038132D02*
X0210282Y0038132D01*
X0210373Y0038223D02*
X0210610Y0038633D01*
X0210732Y0039091D01*
X0210732Y0041690D01*
X0210732Y0044289D01*
X0210610Y0044747D01*
X0210373Y0045157D01*
X0210037Y0045493D01*
X0209627Y0045730D01*
X0209169Y0045852D01*
X0207358Y0045852D01*
X0207358Y0041690D01*
X0210732Y0041690D01*
X0207358Y0041690D01*
X0207358Y0041690D01*
X0207358Y0037528D01*
X0209169Y0037528D01*
X0209627Y0037650D01*
X0210037Y0037887D01*
X0210373Y0038223D01*
X0210732Y0039731D02*
X0218172Y0039731D01*
X0218414Y0041329D02*
X0210732Y0041329D01*
X0210732Y0042928D02*
X0219674Y0042928D01*
X0221273Y0044526D02*
X0210669Y0044526D01*
X0207358Y0044526D02*
X0207357Y0044526D01*
X0207357Y0045852D02*
X0205546Y0045852D01*
X0205088Y0045730D01*
X0204677Y0045493D01*
X0204342Y0045157D01*
X0204105Y0044747D01*
X0203983Y0044289D01*
X0203983Y0041690D01*
X0203983Y0039091D01*
X0204105Y0038633D01*
X0204342Y0038223D01*
X0204677Y0037887D01*
X0205088Y0037650D01*
X0205546Y0037528D01*
X0207357Y0037528D01*
X0207357Y0041690D01*
X0203983Y0041690D01*
X0207357Y0041690D01*
X0207357Y0041690D01*
X0207357Y0045852D01*
X0206129Y0046125D02*
X0222872Y0046125D01*
X0221603Y0047723D02*
X0228407Y0047723D01*
X0230006Y0049322D02*
X0223202Y0049322D01*
X0224800Y0050920D02*
X0231604Y0050920D01*
X0233203Y0052519D02*
X0226155Y0052519D01*
X0226465Y0054117D02*
X0234801Y0054117D01*
X0236400Y0055716D02*
X0226465Y0055716D01*
X0226465Y0057314D02*
X0229187Y0057314D01*
X0229097Y0057405D02*
X0230257Y0056244D01*
X0236623Y0056244D01*
X0237783Y0057405D01*
X0237783Y0061605D01*
X0236623Y0062766D01*
X0230257Y0062766D01*
X0229097Y0061605D01*
X0229097Y0057405D01*
X0229097Y0058913D02*
X0226465Y0058913D01*
X0226465Y0060511D02*
X0229097Y0060511D01*
X0229602Y0062110D02*
X0226465Y0062110D01*
X0226465Y0063708D02*
X0237857Y0063708D01*
X0237857Y0062110D02*
X0237279Y0062110D01*
X0237783Y0060511D02*
X0237857Y0060511D01*
X0237857Y0058913D02*
X0237783Y0058913D01*
X0237857Y0057314D02*
X0237693Y0057314D01*
X0244181Y0057314D02*
X0265017Y0057314D01*
X0265809Y0055716D02*
X0244181Y0055716D01*
X0244181Y0058913D02*
X0263418Y0058913D01*
X0261820Y0060511D02*
X0257715Y0060511D01*
X0251882Y0060511D02*
X0244181Y0060511D01*
X0244181Y0062110D02*
X0250455Y0062110D01*
X0250455Y0063708D02*
X0244181Y0063708D01*
X0244181Y0065307D02*
X0250455Y0065307D01*
X0251824Y0066906D02*
X0244181Y0066906D01*
X0244181Y0068504D02*
X0259904Y0068504D01*
X0259904Y0066906D02*
X0257772Y0066906D01*
X0259904Y0070103D02*
X0244181Y0070103D01*
X0244181Y0071701D02*
X0259904Y0071701D01*
X0259904Y0073300D02*
X0244181Y0073300D01*
X0244181Y0074898D02*
X0259402Y0074898D01*
X0257803Y0076497D02*
X0244181Y0076497D01*
X0244181Y0078095D02*
X0256205Y0078095D01*
X0254606Y0079694D02*
X0244181Y0079694D01*
X0244181Y0081292D02*
X0253008Y0081292D01*
X0251409Y0082891D02*
X0244181Y0082891D01*
X0244181Y0084489D02*
X0249811Y0084489D01*
X0248212Y0086088D02*
X0243925Y0086088D01*
X0242644Y0087686D02*
X0246614Y0087686D01*
X0242483Y0089285D02*
X0241046Y0089285D01*
X0241725Y0090883D02*
X0239447Y0090883D01*
X0237849Y0092482D02*
X0241725Y0092482D01*
X0241725Y0094080D02*
X0236376Y0094080D01*
X0236376Y0095679D02*
X0241725Y0095679D01*
X0242515Y0097277D02*
X0235586Y0097277D01*
X0229602Y0097277D02*
X0195396Y0097277D01*
X0193857Y0095679D02*
X0219276Y0095679D01*
X0217677Y0094080D02*
X0192318Y0094080D01*
X0190780Y0092482D02*
X0216079Y0092482D01*
X0214480Y0090883D02*
X0189241Y0090883D01*
X0187702Y0089285D02*
X0212882Y0089285D01*
X0209613Y0087686D02*
X0186163Y0087686D01*
X0180462Y0090883D02*
X0180309Y0090883D01*
X0179187Y0092006D02*
X0179186Y0092006D01*
X0178710Y0092482D02*
X0182001Y0092482D01*
X0183540Y0094080D02*
X0177112Y0094080D01*
X0175513Y0095679D02*
X0185079Y0095679D01*
X0186617Y0097277D02*
X0173915Y0097277D01*
X0174732Y0096460D02*
X0174732Y0096460D01*
X0172316Y0098876D02*
X0188156Y0098876D01*
X0189695Y0100474D02*
X0185006Y0100474D01*
X0185339Y0102073D02*
X0189431Y0102073D01*
X0189431Y0103671D02*
X0185339Y0103671D01*
X0185339Y0105270D02*
X0189795Y0105270D01*
X0191393Y0106868D02*
X0184685Y0106868D01*
X0181964Y0106868D02*
X0181964Y0106868D01*
X0181964Y0105270D02*
X0181964Y0105270D01*
X0181964Y0103671D02*
X0181964Y0103671D01*
X0181964Y0102073D02*
X0181964Y0102073D01*
X0181964Y0100474D02*
X0181964Y0100474D01*
X0173474Y0106868D02*
X0169894Y0106868D01*
X0157379Y0116459D02*
X0137882Y0116459D01*
X0137882Y0114861D02*
X0149875Y0114861D01*
X0148277Y0113262D02*
X0137882Y0113262D01*
X0137882Y0118058D02*
X0152997Y0118058D01*
X0152030Y0119656D02*
X0137882Y0119656D01*
X0137882Y0121255D02*
X0139957Y0121255D01*
X0138359Y0122853D02*
X0137882Y0122853D01*
X0138250Y0124452D02*
X0137455Y0124452D01*
X0137094Y0126050D02*
X0138250Y0126050D01*
X0139339Y0127649D02*
X0136005Y0127649D01*
X0129497Y0127649D02*
X0124493Y0127649D01*
X0126091Y0126050D02*
X0128408Y0126050D01*
X0128408Y0124452D02*
X0127690Y0124452D01*
X0122894Y0129247D02*
X0385844Y0129247D01*
X0385394Y0128161D02*
X0385394Y0125297D01*
X0386491Y0122651D01*
X0388516Y0120626D01*
X0391162Y0119530D01*
X0394026Y0119530D01*
X0396672Y0120626D01*
X0398697Y0122651D01*
X0399793Y0125297D01*
X0399793Y0128161D01*
X0398697Y0130807D01*
X0396672Y0132833D01*
X0394026Y0133929D01*
X0391162Y0133929D01*
X0388516Y0132833D01*
X0386491Y0130807D01*
X0385394Y0128161D01*
X0385394Y0127649D02*
X0317999Y0127649D01*
X0318492Y0127156D02*
X0317332Y0128317D01*
X0310966Y0128317D01*
X0309806Y0127156D01*
X0309806Y0122956D01*
X0310966Y0121795D01*
X0317332Y0121795D01*
X0318492Y0122956D01*
X0318492Y0127156D01*
X0318492Y0126050D02*
X0385394Y0126050D01*
X0385745Y0124452D02*
X0318492Y0124452D01*
X0318390Y0122853D02*
X0330385Y0122853D01*
X0330670Y0123139D02*
X0329602Y0122071D01*
X0329195Y0121088D01*
X0329195Y0115754D01*
X0329602Y0114771D01*
X0331422Y0112951D01*
X0332406Y0112544D01*
X0333470Y0112544D01*
X0335605Y0112544D01*
X0335607Y0112544D01*
X0335608Y0112544D01*
X0336672Y0112544D01*
X0337656Y0112951D01*
X0337762Y0113057D01*
X0337868Y0112951D01*
X0338851Y0112544D01*
X0342050Y0112544D01*
X0343033Y0112951D01*
X0343140Y0113057D01*
X0343246Y0112951D01*
X0344229Y0112544D01*
X0345293Y0112544D01*
X0346276Y0112951D01*
X0346896Y0113571D01*
X0347516Y0112951D01*
X0348499Y0112544D01*
X0349563Y0112544D01*
X0350119Y0112774D01*
X0350675Y0112544D01*
X0351739Y0112544D01*
X0352722Y0112951D01*
X0353342Y0113571D01*
X0353398Y0113514D01*
X0353546Y0113292D01*
X0353771Y0113142D01*
X0353962Y0112951D01*
X0354209Y0112848D01*
X0354431Y0112700D01*
X0354695Y0112647D01*
X0354945Y0112544D01*
X0355212Y0112544D01*
X0355474Y0112491D01*
X0355739Y0112544D01*
X0356009Y0112544D01*
X0356256Y0112646D01*
X0356518Y0112698D01*
X0356743Y0112847D01*
X0356992Y0112951D01*
X0357181Y0113140D01*
X0357403Y0113288D01*
X0357554Y0113512D01*
X0357632Y0113591D01*
X0358272Y0112951D01*
X0359255Y0112544D01*
X0360319Y0112544D01*
X0361302Y0112951D01*
X0362055Y0113703D01*
X0362302Y0114299D01*
X0362898Y0113703D01*
X0363650Y0112951D01*
X0364633Y0112544D01*
X0367832Y0112544D01*
X0368815Y0112951D01*
X0368922Y0113057D01*
X0369028Y0112951D01*
X0370011Y0112544D01*
X0371075Y0112544D01*
X0372058Y0112951D01*
X0372678Y0113571D01*
X0373298Y0112951D01*
X0374281Y0112544D01*
X0375345Y0112544D01*
X0376329Y0112951D01*
X0377081Y0113703D01*
X0377488Y0114686D01*
X0377488Y0122156D01*
X0377081Y0123139D01*
X0376329Y0123891D01*
X0375741Y0124135D01*
X0375345Y0124299D01*
X0374281Y0124299D01*
X0373298Y0123891D01*
X0373254Y0123847D01*
X0372678Y0123271D01*
X0372058Y0123891D01*
X0371075Y0124299D01*
X0370011Y0124299D01*
X0369455Y0124068D01*
X0368900Y0124299D01*
X0367836Y0124299D01*
X0366853Y0123891D01*
X0366233Y0123271D01*
X0365613Y0123891D01*
X0364630Y0124299D01*
X0363566Y0124299D01*
X0363010Y0124068D01*
X0362454Y0124299D01*
X0357120Y0124299D01*
X0356564Y0124068D01*
X0356009Y0124299D01*
X0354945Y0124299D01*
X0353962Y0123891D01*
X0353342Y0123271D01*
X0353285Y0123328D01*
X0353137Y0123550D01*
X0352913Y0123700D01*
X0352722Y0123891D01*
X0352475Y0123994D01*
X0352253Y0124142D01*
X0351988Y0124195D01*
X0351739Y0124299D01*
X0351471Y0124299D01*
X0351209Y0124351D01*
X0350945Y0124299D01*
X0350675Y0124299D01*
X0350428Y0124196D01*
X0350166Y0124144D01*
X0349941Y0123995D01*
X0349691Y0123891D01*
X0349502Y0123702D01*
X0349280Y0123554D01*
X0349130Y0123330D01*
X0349051Y0123251D01*
X0348411Y0123891D01*
X0348383Y0123903D01*
X0347428Y0124299D01*
X0346364Y0124299D01*
X0345945Y0124125D01*
X0345381Y0123891D01*
X0344741Y0123251D01*
X0344101Y0123891D01*
X0343118Y0124299D01*
X0342054Y0124299D01*
X0341071Y0123891D01*
X0340451Y0123271D01*
X0339831Y0123891D01*
X0338848Y0124299D01*
X0337784Y0124299D01*
X0336800Y0123891D01*
X0336694Y0123785D01*
X0336588Y0123891D01*
X0335605Y0124299D01*
X0332406Y0124299D01*
X0331422Y0123891D01*
X0330670Y0123139D01*
X0329264Y0121255D02*
X0305205Y0121255D01*
X0305205Y0121453D02*
X0304723Y0122615D01*
X0303834Y0123505D01*
X0299601Y0127737D01*
X0298439Y0128218D01*
X0297154Y0128218D01*
X0297056Y0128317D01*
X0290690Y0128317D01*
X0289530Y0127156D01*
X0289530Y0122956D01*
X0290690Y0121795D01*
X0296599Y0121795D01*
X0298880Y0119514D01*
X0298880Y0105795D01*
X0297977Y0104892D01*
X0297242Y0104892D01*
X0295645Y0104230D01*
X0294423Y0103009D01*
X0293762Y0101412D01*
X0293762Y0099684D01*
X0294423Y0098088D01*
X0295645Y0096866D01*
X0297242Y0096205D01*
X0298969Y0096205D01*
X0300566Y0096866D01*
X0301788Y0098088D01*
X0302449Y0099684D01*
X0302449Y0100420D01*
X0304723Y0102694D01*
X0305205Y0103856D01*
X0305205Y0121453D01*
X0304485Y0122853D02*
X0309908Y0122853D01*
X0309806Y0124452D02*
X0302886Y0124452D01*
X0301288Y0126050D02*
X0309806Y0126050D01*
X0310298Y0127649D02*
X0299689Y0127649D01*
X0290023Y0127649D02*
X0258058Y0127649D01*
X0259949Y0126050D02*
X0289530Y0126050D01*
X0289530Y0124452D02*
X0261548Y0124452D01*
X0263146Y0122853D02*
X0289633Y0122853D01*
X0290816Y0119548D02*
X0290406Y0119311D01*
X0290071Y0118976D01*
X0289834Y0118566D01*
X0289711Y0118108D01*
X0289711Y0116592D01*
X0293873Y0116592D01*
X0293873Y0119671D01*
X0291274Y0119671D01*
X0290816Y0119548D01*
X0291219Y0119656D02*
X0266343Y0119656D01*
X0264745Y0121255D02*
X0297139Y0121255D01*
X0296527Y0119656D02*
X0298738Y0119656D01*
X0297676Y0118976D02*
X0297341Y0119311D01*
X0296930Y0119548D01*
X0296472Y0119671D01*
X0293873Y0119671D01*
X0293873Y0116592D01*
X0293873Y0116592D01*
X0293873Y0116591D01*
X0293873Y0116591D01*
X0293873Y0113512D01*
X0291274Y0113512D01*
X0290816Y0113635D01*
X0290406Y0113872D01*
X0290071Y0114207D01*
X0289834Y0114617D01*
X0289711Y0115075D01*
X0289711Y0116591D01*
X0293873Y0116591D01*
X0293873Y0113512D01*
X0296472Y0113512D01*
X0296930Y0113635D01*
X0297341Y0113872D01*
X0297676Y0114207D01*
X0297913Y0114617D01*
X0298035Y0115075D01*
X0298035Y0116591D01*
X0293873Y0116591D01*
X0293873Y0116592D01*
X0298035Y0116592D01*
X0298035Y0118108D01*
X0297913Y0118566D01*
X0297676Y0118976D01*
X0298035Y0118058D02*
X0298880Y0118058D01*
X0298880Y0116459D02*
X0298035Y0116459D01*
X0297978Y0114861D02*
X0298880Y0114861D01*
X0298880Y0113262D02*
X0272737Y0113262D01*
X0271139Y0114861D02*
X0289768Y0114861D01*
X0289711Y0116459D02*
X0269540Y0116459D01*
X0267942Y0118058D02*
X0289711Y0118058D01*
X0293873Y0118058D02*
X0293873Y0118058D01*
X0293873Y0119656D02*
X0293873Y0119656D01*
X0293873Y0116459D02*
X0293873Y0116459D01*
X0293873Y0114861D02*
X0293873Y0114861D01*
X0298880Y0111664D02*
X0274336Y0111664D01*
X0275934Y0110065D02*
X0298880Y0110065D01*
X0298880Y0108467D02*
X0277533Y0108467D01*
X0279132Y0106868D02*
X0298880Y0106868D01*
X0298355Y0105270D02*
X0280730Y0105270D01*
X0282329Y0103671D02*
X0295086Y0103671D01*
X0294036Y0102073D02*
X0283927Y0102073D01*
X0285526Y0100474D02*
X0293762Y0100474D01*
X0294097Y0098876D02*
X0287124Y0098876D01*
X0288723Y0097277D02*
X0295234Y0097277D01*
X0291920Y0094080D02*
X0352171Y0094080D01*
X0353393Y0092858D02*
X0354276Y0092858D01*
X0362660Y0084475D01*
X0362660Y0081421D01*
X0363820Y0080260D01*
X0369005Y0080260D01*
X0370165Y0081421D01*
X0370165Y0088967D01*
X0369005Y0090128D01*
X0365951Y0090128D01*
X0359535Y0096543D01*
X0359535Y0099001D01*
X0356991Y0101545D01*
X0353393Y0101545D01*
X0350849Y0099001D01*
X0350849Y0095403D01*
X0353393Y0092858D01*
X0354653Y0092482D02*
X0293518Y0092482D01*
X0295117Y0090883D02*
X0356251Y0090883D01*
X0357850Y0089285D02*
X0296715Y0089285D01*
X0298314Y0087686D02*
X0359448Y0087686D01*
X0361047Y0086088D02*
X0341251Y0086088D01*
X0342849Y0084489D02*
X0362645Y0084489D01*
X0362660Y0082891D02*
X0344448Y0082891D01*
X0346046Y0081292D02*
X0362788Y0081292D01*
X0370037Y0081292D02*
X0375780Y0081292D01*
X0375652Y0082891D02*
X0370165Y0082891D01*
X0370165Y0084489D02*
X0375652Y0084489D01*
X0375652Y0086088D02*
X0370165Y0086088D01*
X0370165Y0087686D02*
X0375652Y0087686D01*
X0375969Y0089285D02*
X0369848Y0089285D01*
X0365195Y0090883D02*
X0402705Y0090883D01*
X0402705Y0089285D02*
X0382840Y0089285D01*
X0383157Y0087686D02*
X0402705Y0087686D01*
X0402705Y0086088D02*
X0383540Y0086088D01*
X0385138Y0084489D02*
X0402705Y0084489D01*
X0402705Y0082891D02*
X0386737Y0082891D01*
X0388335Y0081292D02*
X0402705Y0081292D01*
X0402705Y0079694D02*
X0389934Y0079694D01*
X0391532Y0078095D02*
X0402705Y0078095D01*
X0402705Y0076497D02*
X0393131Y0076497D01*
X0394091Y0074898D02*
X0402705Y0074898D01*
X0402705Y0073300D02*
X0394181Y0073300D01*
X0394181Y0071701D02*
X0402705Y0071701D01*
X0402705Y0070103D02*
X0394181Y0070103D01*
X0394181Y0068504D02*
X0402705Y0068504D01*
X0402705Y0066906D02*
X0394181Y0066906D01*
X0394181Y0065307D02*
X0402705Y0065307D01*
X0402705Y0063708D02*
X0394181Y0063708D01*
X0394183Y0062110D02*
X0402705Y0062110D01*
X0402705Y0060511D02*
X0393954Y0060511D01*
X0392798Y0058913D02*
X0402705Y0058913D01*
X0402705Y0057314D02*
X0391183Y0057314D01*
X0389572Y0055716D02*
X0402705Y0055716D01*
X0402705Y0054117D02*
X0387960Y0054117D01*
X0386348Y0052519D02*
X0402705Y0052519D01*
X0402705Y0050920D02*
X0384736Y0050920D01*
X0383124Y0049322D02*
X0402705Y0049322D01*
X0402705Y0047723D02*
X0381512Y0047723D01*
X0379900Y0046125D02*
X0402705Y0046125D01*
X0402705Y0044526D02*
X0378288Y0044526D01*
X0376676Y0042928D02*
X0402705Y0042928D01*
X0402705Y0041329D02*
X0375064Y0041329D01*
X0373452Y0039731D02*
X0402705Y0039731D01*
X0402705Y0038132D02*
X0371840Y0038132D01*
X0370228Y0036534D02*
X0402705Y0036534D01*
X0402705Y0034935D02*
X0368616Y0034935D01*
X0367004Y0033337D02*
X0402705Y0033337D01*
X0402705Y0031738D02*
X0365392Y0031738D01*
X0363780Y0030140D02*
X0388185Y0030140D01*
X0388516Y0030470D02*
X0386491Y0028445D01*
X0385394Y0025799D01*
X0385394Y0022935D01*
X0386491Y0020289D01*
X0388516Y0018264D01*
X0391162Y0017168D01*
X0394026Y0017168D01*
X0396672Y0018264D01*
X0398697Y0020289D01*
X0399793Y0022935D01*
X0399793Y0025799D01*
X0398697Y0028445D01*
X0396672Y0030470D01*
X0394026Y0031566D01*
X0391162Y0031566D01*
X0388516Y0030470D01*
X0386587Y0028541D02*
X0362168Y0028541D01*
X0360557Y0026943D02*
X0385868Y0026943D01*
X0385394Y0025344D02*
X0358945Y0025344D01*
X0357333Y0023746D02*
X0385394Y0023746D01*
X0385721Y0022147D02*
X0355721Y0022147D01*
X0354109Y0020549D02*
X0386383Y0020549D01*
X0387829Y0018950D02*
X0352497Y0018950D01*
X0350885Y0017352D02*
X0390718Y0017352D01*
X0394469Y0017352D02*
X0402705Y0017352D01*
X0402705Y0018950D02*
X0397358Y0018950D01*
X0398804Y0020549D02*
X0402705Y0020549D01*
X0402705Y0022147D02*
X0399467Y0022147D01*
X0399793Y0023746D02*
X0402705Y0023746D01*
X0402705Y0025344D02*
X0399793Y0025344D01*
X0399319Y0026943D02*
X0402705Y0026943D01*
X0402705Y0028541D02*
X0398601Y0028541D01*
X0397002Y0030140D02*
X0402705Y0030140D01*
X0402705Y0015753D02*
X0349273Y0015753D01*
X0344009Y0020549D02*
X0339850Y0020549D01*
X0339850Y0022147D02*
X0345621Y0022147D01*
X0347233Y0023746D02*
X0341000Y0023746D01*
X0340406Y0023152D02*
X0340406Y0023152D01*
X0341881Y0025344D02*
X0348845Y0025344D01*
X0350457Y0026943D02*
X0341881Y0026943D01*
X0341823Y0028541D02*
X0352069Y0028541D01*
X0353680Y0030140D02*
X0340719Y0030140D01*
X0337555Y0031738D02*
X0355292Y0031738D01*
X0356904Y0033337D02*
X0336454Y0033337D01*
X0333417Y0033337D02*
X0323563Y0033337D01*
X0324664Y0031738D02*
X0332316Y0031738D01*
X0327161Y0030140D02*
X0324720Y0030140D01*
X0324720Y0028541D02*
X0326883Y0028541D01*
X0326975Y0028002D02*
X0326975Y0028002D01*
X0327221Y0022147D02*
X0328652Y0022147D01*
X0321139Y0022147D02*
X0313262Y0022147D01*
X0314624Y0023152D02*
X0314624Y0023152D01*
X0315218Y0023746D02*
X0319531Y0023746D01*
X0319370Y0025344D02*
X0316099Y0025344D01*
X0315819Y0026943D02*
X0319370Y0026943D01*
X0319370Y0028541D02*
X0316099Y0028541D01*
X0315821Y0030140D02*
X0319370Y0030140D01*
X0319425Y0031738D02*
X0309673Y0031738D01*
X0309398Y0033337D02*
X0320526Y0033337D01*
X0306539Y0025344D02*
X0306431Y0025344D01*
X0306640Y0023746D02*
X0305550Y0023746D01*
X0305271Y0023467D02*
X0305271Y0023467D01*
X0304956Y0023152D02*
X0304956Y0023152D01*
X0303594Y0022147D02*
X0308248Y0022147D01*
X0299647Y0022147D02*
X0297149Y0022147D01*
X0293202Y0022147D02*
X0287500Y0022147D01*
X0289108Y0023746D02*
X0291246Y0023746D01*
X0290365Y0025344D02*
X0289622Y0025344D01*
X0293484Y0031738D02*
X0304324Y0031738D01*
X0304599Y0033337D02*
X0292383Y0033337D01*
X0271947Y0058913D02*
X0382695Y0058913D01*
X0366498Y0062110D02*
X0366327Y0062110D01*
X0366327Y0063708D02*
X0366498Y0063708D01*
X0366498Y0065307D02*
X0366327Y0065307D01*
X0366327Y0066906D02*
X0366498Y0066906D01*
X0366498Y0068504D02*
X0366327Y0068504D01*
X0366327Y0070103D02*
X0366498Y0070103D01*
X0363597Y0092482D02*
X0402705Y0092482D01*
X0402705Y0094080D02*
X0361998Y0094080D01*
X0360400Y0095679D02*
X0402705Y0095679D01*
X0402705Y0097277D02*
X0359535Y0097277D01*
X0359535Y0098876D02*
X0402705Y0098876D01*
X0402705Y0100474D02*
X0358062Y0100474D01*
X0352322Y0100474D02*
X0302504Y0100474D01*
X0302114Y0098876D02*
X0350849Y0098876D01*
X0350849Y0097277D02*
X0300977Y0097277D01*
X0304102Y0102073D02*
X0402705Y0102073D01*
X0402705Y0103671D02*
X0305128Y0103671D01*
X0305205Y0105270D02*
X0402705Y0105270D01*
X0402705Y0106868D02*
X0305205Y0106868D01*
X0305205Y0108467D02*
X0402705Y0108467D01*
X0402705Y0110065D02*
X0305205Y0110065D01*
X0305205Y0111664D02*
X0402705Y0111664D01*
X0402705Y0113262D02*
X0376640Y0113262D01*
X0377488Y0114861D02*
X0402705Y0114861D01*
X0402705Y0116459D02*
X0377488Y0116459D01*
X0377488Y0118058D02*
X0402705Y0118058D01*
X0402705Y0119656D02*
X0394330Y0119656D01*
X0397300Y0121255D02*
X0402705Y0121255D01*
X0402705Y0122853D02*
X0398781Y0122853D01*
X0399443Y0124452D02*
X0402705Y0124452D01*
X0402705Y0126050D02*
X0399793Y0126050D01*
X0399793Y0127649D02*
X0402705Y0127649D01*
X0402705Y0129247D02*
X0399343Y0129247D01*
X0398658Y0130846D02*
X0402705Y0130846D01*
X0402705Y0132444D02*
X0397060Y0132444D01*
X0402705Y0134043D02*
X0012404Y0134043D01*
X0012404Y0135641D02*
X0402705Y0135641D01*
X0388128Y0132444D02*
X0026981Y0132444D01*
X0026593Y0132833D02*
X0023947Y0133929D01*
X0021083Y0133929D01*
X0018437Y0132833D01*
X0016412Y0130807D01*
X0015316Y0128161D01*
X0015316Y0125297D01*
X0016412Y0122651D01*
X0018437Y0120626D01*
X0021083Y0119530D01*
X0023947Y0119530D01*
X0026593Y0120626D01*
X0028618Y0122651D01*
X0029714Y0125297D01*
X0029714Y0128161D01*
X0028618Y0130807D01*
X0026593Y0132833D01*
X0028580Y0130846D02*
X0066648Y0130846D01*
X0065049Y0129247D02*
X0029264Y0129247D01*
X0029714Y0127649D02*
X0063451Y0127649D01*
X0061852Y0126050D02*
X0029714Y0126050D01*
X0029364Y0124452D02*
X0060254Y0124452D01*
X0064402Y0119656D02*
X0072205Y0119656D01*
X0072712Y0120164D02*
X0071324Y0118776D01*
X0070573Y0116963D01*
X0070573Y0116268D01*
X0064260Y0109954D01*
X0064260Y0112780D01*
X0061716Y0115325D01*
X0058117Y0115325D01*
X0055573Y0112780D01*
X0055573Y0109182D01*
X0056754Y0108001D01*
X0056754Y0086730D01*
X0057236Y0085568D01*
X0057542Y0085262D01*
X0057542Y0083592D01*
X0059531Y0081603D01*
X0057819Y0079892D01*
X0056149Y0079892D01*
X0053605Y0077347D01*
X0053605Y0073749D01*
X0054609Y0072745D01*
X0053299Y0071434D01*
X0052817Y0070272D01*
X0052817Y0065077D01*
X0053299Y0063914D01*
X0054188Y0063025D01*
X0055543Y0061670D01*
X0054011Y0060138D01*
X0051810Y0062339D01*
X0050920Y0063229D01*
X0049758Y0063710D01*
X0046436Y0063710D01*
X0045163Y0064983D01*
X0043798Y0065548D01*
X0045163Y0066114D01*
X0046635Y0067585D01*
X0047431Y0069508D01*
X0047431Y0071589D01*
X0046635Y0073511D01*
X0045163Y0074983D01*
X0043515Y0075666D01*
X0044139Y0075868D01*
X0044847Y0076229D01*
X0045490Y0076696D01*
X0046052Y0077258D01*
X0046519Y0077901D01*
X0046880Y0078610D01*
X0047126Y0079366D01*
X0047250Y0080151D01*
X0047250Y0080473D01*
X0042275Y0080473D01*
X0042275Y0080623D01*
X0047250Y0080623D01*
X0047250Y0080946D01*
X0047126Y0081731D01*
X0046880Y0082487D01*
X0046519Y0083195D01*
X0046052Y0083838D01*
X0045490Y0084400D01*
X0044847Y0084867D01*
X0044139Y0085228D01*
X0043515Y0085431D01*
X0045163Y0086114D01*
X0046635Y0087585D01*
X0047431Y0089508D01*
X0047431Y0091589D01*
X0046635Y0093511D01*
X0045163Y0094983D01*
X0043798Y0095548D01*
X0045163Y0096114D01*
X0046635Y0097585D01*
X0047431Y0099508D01*
X0047431Y0101589D01*
X0046635Y0103511D01*
X0045163Y0104983D01*
X0044356Y0105317D01*
X0046271Y0105317D01*
X0047431Y0106478D01*
X0047431Y0114619D01*
X0046271Y0115779D01*
X0038129Y0115779D01*
X0037488Y0115138D01*
X0037488Y0115577D01*
X0039179Y0117268D01*
X0052009Y0117268D01*
X0052797Y0116481D01*
X0057588Y0116481D01*
X0057948Y0116841D01*
X0058309Y0116481D01*
X0063099Y0116481D01*
X0064260Y0117641D01*
X0064260Y0119514D01*
X0070281Y0125536D01*
X0087715Y0125536D01*
X0083716Y0121536D01*
X0082826Y0120647D01*
X0082566Y0120017D01*
X0081324Y0118776D01*
X0080573Y0116963D01*
X0080573Y0115000D01*
X0081324Y0113187D01*
X0082712Y0111799D01*
X0084526Y0111047D01*
X0086488Y0111047D01*
X0088302Y0111799D01*
X0089690Y0113187D01*
X0090441Y0115000D01*
X0090441Y0116963D01*
X0089751Y0118628D01*
X0092722Y0121599D01*
X0096008Y0121599D01*
X0096836Y0120771D01*
X0096488Y0120915D01*
X0094526Y0120915D01*
X0092712Y0120164D01*
X0091324Y0118776D01*
X0090573Y0116963D01*
X0090573Y0115000D01*
X0091324Y0113187D01*
X0092712Y0111799D01*
X0094526Y0111047D01*
X0096488Y0111047D01*
X0098302Y0111799D01*
X0099690Y0113187D01*
X0100190Y0114395D01*
X0100543Y0113544D01*
X0101432Y0112654D01*
X0113723Y0100364D01*
X0095596Y0100364D01*
X0094656Y0101304D01*
X0095133Y0101229D01*
X0095323Y0101229D01*
X0095323Y0105797D01*
X0095691Y0105797D01*
X0095691Y0101229D01*
X0095881Y0101229D01*
X0096620Y0101346D01*
X0097332Y0101577D01*
X0097998Y0101916D01*
X0098603Y0102356D01*
X0099132Y0102885D01*
X0099572Y0103490D01*
X0099912Y0104157D01*
X0100143Y0104868D01*
X0100260Y0105607D01*
X0100260Y0105797D01*
X0095691Y0105797D01*
X0095691Y0106166D01*
X0095323Y0106166D01*
X0095323Y0110734D01*
X0095133Y0110734D01*
X0094394Y0110617D01*
X0093683Y0110386D01*
X0093016Y0110046D01*
X0092411Y0109607D01*
X0091882Y0109078D01*
X0091442Y0108472D01*
X0091103Y0107806D01*
X0090871Y0107094D01*
X0090754Y0106355D01*
X0090754Y0106166D01*
X0095323Y0106166D01*
X0095323Y0105797D01*
X0090754Y0105797D01*
X0090754Y0105607D01*
X0090830Y0105131D01*
X0090441Y0105519D01*
X0090441Y0106963D01*
X0089690Y0108776D01*
X0088302Y0110164D01*
X0086488Y0110915D01*
X0084526Y0110915D01*
X0082712Y0110164D01*
X0081324Y0108776D01*
X0080573Y0106963D01*
X0080573Y0105000D01*
X0081324Y0103187D01*
X0082712Y0101799D01*
X0084526Y0101047D01*
X0085969Y0101047D01*
X0090589Y0096427D01*
X0073037Y0096427D01*
X0068984Y0100480D01*
X0068984Y0105734D01*
X0070828Y0107579D01*
X0070573Y0106963D01*
X0070573Y0105000D01*
X0071324Y0103187D01*
X0072712Y0101799D01*
X0074526Y0101047D01*
X0076488Y0101047D01*
X0078302Y0101799D01*
X0079690Y0103187D01*
X0080441Y0105000D01*
X0080441Y0106963D01*
X0079690Y0108776D01*
X0078302Y0110164D01*
X0076488Y0110915D01*
X0074526Y0110915D01*
X0073910Y0110660D01*
X0074364Y0111114D01*
X0074526Y0111047D01*
X0076488Y0111047D01*
X0078302Y0111799D01*
X0079690Y0113187D01*
X0080441Y0115000D01*
X0080441Y0116963D01*
X0079690Y0118776D01*
X0078302Y0120164D01*
X0076488Y0120915D01*
X0074526Y0120915D01*
X0072712Y0120164D01*
X0071027Y0118058D02*
X0064260Y0118058D01*
X0066001Y0121255D02*
X0083435Y0121255D01*
X0082205Y0119656D02*
X0078810Y0119656D01*
X0079987Y0118058D02*
X0081027Y0118058D01*
X0080573Y0116459D02*
X0080441Y0116459D01*
X0080383Y0114861D02*
X0080631Y0114861D01*
X0081293Y0113262D02*
X0079721Y0113262D01*
X0077977Y0111664D02*
X0083038Y0111664D01*
X0082614Y0110065D02*
X0078401Y0110065D01*
X0079818Y0108467D02*
X0081196Y0108467D01*
X0080573Y0106868D02*
X0080441Y0106868D01*
X0080441Y0105270D02*
X0080573Y0105270D01*
X0081124Y0103671D02*
X0079891Y0103671D01*
X0078576Y0102073D02*
X0082438Y0102073D01*
X0086542Y0100474D02*
X0068990Y0100474D01*
X0068984Y0102073D02*
X0072438Y0102073D01*
X0071124Y0103671D02*
X0068984Y0103671D01*
X0068984Y0105270D02*
X0070573Y0105270D01*
X0070573Y0106868D02*
X0070118Y0106868D01*
X0065970Y0111664D02*
X0064260Y0111664D01*
X0064260Y0110065D02*
X0064371Y0110065D01*
X0063778Y0113262D02*
X0067568Y0113262D01*
X0069167Y0114861D02*
X0062179Y0114861D01*
X0057654Y0114861D02*
X0047189Y0114861D01*
X0047431Y0113262D02*
X0056055Y0113262D01*
X0055573Y0111664D02*
X0047431Y0111664D01*
X0047431Y0110065D02*
X0055573Y0110065D01*
X0056289Y0108467D02*
X0047431Y0108467D01*
X0047431Y0106868D02*
X0056754Y0106868D01*
X0056754Y0105270D02*
X0044471Y0105270D01*
X0046475Y0103671D02*
X0056754Y0103671D01*
X0056754Y0102073D02*
X0047231Y0102073D01*
X0047431Y0100474D02*
X0056754Y0100474D01*
X0056754Y0098876D02*
X0047169Y0098876D01*
X0046327Y0097277D02*
X0056754Y0097277D01*
X0056754Y0095679D02*
X0044113Y0095679D01*
X0046066Y0094080D02*
X0056754Y0094080D01*
X0056754Y0092482D02*
X0047061Y0092482D01*
X0047431Y0090883D02*
X0056754Y0090883D01*
X0056754Y0089285D02*
X0047339Y0089285D01*
X0046677Y0087686D02*
X0056754Y0087686D01*
X0057020Y0086088D02*
X0045101Y0086088D01*
X0045367Y0084489D02*
X0057542Y0084489D01*
X0058243Y0082891D02*
X0046674Y0082891D01*
X0047195Y0081292D02*
X0059220Y0081292D01*
X0055951Y0079694D02*
X0047178Y0079694D01*
X0046618Y0078095D02*
X0054353Y0078095D01*
X0053605Y0076497D02*
X0045215Y0076497D01*
X0045248Y0074898D02*
X0053605Y0074898D01*
X0054054Y0073300D02*
X0046722Y0073300D01*
X0047385Y0071701D02*
X0053566Y0071701D01*
X0052817Y0070103D02*
X0047431Y0070103D01*
X0047015Y0068504D02*
X0052817Y0068504D01*
X0052817Y0066906D02*
X0045955Y0066906D01*
X0044381Y0065307D02*
X0052817Y0065307D01*
X0053505Y0063708D02*
X0049763Y0063708D01*
X0052039Y0062110D02*
X0055103Y0062110D01*
X0054384Y0060511D02*
X0053638Y0060511D01*
X0060131Y0057314D02*
X0064342Y0057314D01*
X0063628Y0055716D02*
X0058533Y0055716D01*
X0057173Y0054117D02*
X0063628Y0054117D01*
X0063628Y0052519D02*
X0057173Y0052519D01*
X0057173Y0050920D02*
X0063931Y0050920D01*
X0067003Y0050920D02*
X0067003Y0050920D01*
X0067003Y0052519D02*
X0067003Y0052519D01*
X0067003Y0054117D02*
X0067003Y0054117D01*
X0067003Y0055716D02*
X0067003Y0055716D01*
X0067003Y0057314D02*
X0067003Y0057314D01*
X0070140Y0058913D02*
X0061730Y0058913D01*
X0063328Y0060511D02*
X0070140Y0060511D01*
X0069766Y0062110D02*
X0065815Y0062110D01*
X0065835Y0063708D02*
X0069746Y0063708D01*
X0069746Y0065307D02*
X0065835Y0065307D01*
X0047891Y0057314D02*
X0046364Y0057314D01*
X0040019Y0065307D02*
X0031638Y0065307D01*
X0030039Y0066906D02*
X0038445Y0066906D01*
X0037385Y0068504D02*
X0032446Y0068504D01*
X0033551Y0070103D02*
X0036969Y0070103D01*
X0037015Y0071701D02*
X0033551Y0071701D01*
X0033551Y0073300D02*
X0037678Y0073300D01*
X0039152Y0074898D02*
X0033551Y0074898D01*
X0033551Y0076497D02*
X0039185Y0076497D01*
X0037782Y0078095D02*
X0033006Y0078095D01*
X0037222Y0079694D02*
X0012404Y0079694D01*
X0012404Y0081292D02*
X0037205Y0081292D01*
X0037726Y0082891D02*
X0032133Y0082891D01*
X0032265Y0082926D02*
X0032675Y0083163D01*
X0033010Y0083498D01*
X0033247Y0083909D01*
X0033370Y0084366D01*
X0033370Y0086978D01*
X0027227Y0086978D01*
X0027227Y0088528D01*
X0025677Y0088528D01*
X0025677Y0092703D01*
X0021097Y0092703D01*
X0020639Y0092580D01*
X0020229Y0092343D01*
X0019893Y0092008D01*
X0019657Y0091597D01*
X0019534Y0091140D01*
X0019534Y0088528D01*
X0025677Y0088528D01*
X0025677Y0086978D01*
X0019534Y0086978D01*
X0019534Y0084366D01*
X0019657Y0083909D01*
X0019893Y0083498D01*
X0020229Y0083163D01*
X0020639Y0082926D01*
X0021097Y0082803D01*
X0025677Y0082803D01*
X0025677Y0086978D01*
X0027227Y0086978D01*
X0027227Y0082803D01*
X0031807Y0082803D01*
X0032265Y0082926D01*
X0033370Y0084489D02*
X0039033Y0084489D01*
X0039299Y0086088D02*
X0033370Y0086088D01*
X0033370Y0088528D02*
X0033370Y0091140D01*
X0033247Y0091597D01*
X0033010Y0092008D01*
X0032675Y0092343D01*
X0032265Y0092580D01*
X0031807Y0092703D01*
X0027227Y0092703D01*
X0027227Y0088528D01*
X0033370Y0088528D01*
X0033370Y0089285D02*
X0037061Y0089285D01*
X0036969Y0090883D02*
X0033370Y0090883D01*
X0032435Y0092482D02*
X0035795Y0092482D01*
X0034196Y0094080D02*
X0012404Y0094080D01*
X0012404Y0092482D02*
X0020469Y0092482D01*
X0019534Y0090883D02*
X0012404Y0090883D01*
X0012404Y0089285D02*
X0019534Y0089285D01*
X0025677Y0087686D02*
X0012404Y0087686D01*
X0012404Y0086088D02*
X0019534Y0086088D01*
X0019534Y0084489D02*
X0012404Y0084489D01*
X0012404Y0082891D02*
X0020771Y0082891D01*
X0025677Y0082891D02*
X0027227Y0082891D01*
X0027227Y0084489D02*
X0025677Y0084489D01*
X0025677Y0086088D02*
X0027227Y0086088D01*
X0027227Y0087686D02*
X0037723Y0087686D01*
X0032597Y0095679D02*
X0012404Y0095679D01*
X0012404Y0097277D02*
X0031378Y0097277D01*
X0031164Y0098876D02*
X0012404Y0098876D01*
X0012404Y0100474D02*
X0031164Y0100474D01*
X0031164Y0102073D02*
X0012404Y0102073D01*
X0012404Y0103671D02*
X0031164Y0103671D01*
X0031164Y0105270D02*
X0012404Y0105270D01*
X0012404Y0106868D02*
X0031164Y0106868D01*
X0031164Y0108467D02*
X0012404Y0108467D01*
X0012404Y0110065D02*
X0031164Y0110065D01*
X0031164Y0111664D02*
X0012404Y0111664D01*
X0012404Y0113262D02*
X0031164Y0113262D01*
X0031164Y0114861D02*
X0012404Y0114861D01*
X0012404Y0116459D02*
X0031164Y0116459D01*
X0031388Y0118058D02*
X0012404Y0118058D01*
X0012404Y0119656D02*
X0020778Y0119656D01*
X0017808Y0121255D02*
X0012404Y0121255D01*
X0012404Y0122853D02*
X0016328Y0122853D01*
X0015666Y0124452D02*
X0012404Y0124452D01*
X0012404Y0126050D02*
X0015316Y0126050D01*
X0015316Y0127649D02*
X0012404Y0127649D01*
X0012404Y0129247D02*
X0015766Y0129247D01*
X0016450Y0130846D02*
X0012404Y0130846D01*
X0012404Y0132444D02*
X0018049Y0132444D01*
X0028702Y0122853D02*
X0035821Y0122853D01*
X0034222Y0121255D02*
X0027222Y0121255D01*
X0024252Y0119656D02*
X0032623Y0119656D01*
X0038371Y0116459D02*
X0070573Y0116459D01*
X0067599Y0122853D02*
X0085033Y0122853D01*
X0086632Y0124452D02*
X0069198Y0124452D01*
X0089987Y0118058D02*
X0091027Y0118058D01*
X0090780Y0119656D02*
X0092205Y0119656D01*
X0092379Y0121255D02*
X0096352Y0121255D01*
X0090573Y0116459D02*
X0090441Y0116459D01*
X0090383Y0114861D02*
X0090631Y0114861D01*
X0091293Y0113262D02*
X0089721Y0113262D01*
X0087977Y0111664D02*
X0093038Y0111664D01*
X0093054Y0110065D02*
X0088401Y0110065D01*
X0089818Y0108467D02*
X0091439Y0108467D01*
X0090836Y0106868D02*
X0090441Y0106868D01*
X0090691Y0105270D02*
X0090808Y0105270D01*
X0095323Y0105270D02*
X0095691Y0105270D01*
X0095691Y0106166D02*
X0100260Y0106166D01*
X0100260Y0106355D01*
X0100143Y0107094D01*
X0099912Y0107806D01*
X0099572Y0108472D01*
X0099132Y0109078D01*
X0098603Y0109607D01*
X0097998Y0110046D01*
X0097332Y0110386D01*
X0096620Y0110617D01*
X0095881Y0110734D01*
X0095691Y0110734D01*
X0095691Y0106166D01*
X0095691Y0106868D02*
X0095323Y0106868D01*
X0095323Y0108467D02*
X0095691Y0108467D01*
X0095691Y0110065D02*
X0095323Y0110065D01*
X0097961Y0110065D02*
X0104021Y0110065D01*
X0102423Y0111664D02*
X0097977Y0111664D01*
X0099721Y0113262D02*
X0100824Y0113262D01*
X0099575Y0108467D02*
X0105620Y0108467D01*
X0107218Y0106868D02*
X0100179Y0106868D01*
X0100206Y0105270D02*
X0108817Y0105270D01*
X0110416Y0103671D02*
X0099664Y0103671D01*
X0098213Y0102073D02*
X0112014Y0102073D01*
X0113613Y0100474D02*
X0095486Y0100474D01*
X0095323Y0102073D02*
X0095691Y0102073D01*
X0095691Y0103671D02*
X0095323Y0103671D01*
X0088141Y0098876D02*
X0070589Y0098876D01*
X0072187Y0097277D02*
X0089739Y0097277D01*
X0122964Y0118058D02*
X0125140Y0118058D01*
X0123541Y0119656D02*
X0106315Y0119656D01*
X0105296Y0121255D02*
X0121943Y0121255D01*
X0120344Y0122853D02*
X0103698Y0122853D01*
X0102099Y0124452D02*
X0118746Y0124452D01*
X0121296Y0130846D02*
X0386529Y0130846D01*
X0386407Y0122853D02*
X0377199Y0122853D01*
X0377488Y0121255D02*
X0387887Y0121255D01*
X0390857Y0119656D02*
X0377488Y0119656D01*
X0372987Y0113262D02*
X0372370Y0113262D01*
X0363338Y0113262D02*
X0361614Y0113262D01*
X0357960Y0113262D02*
X0357365Y0113262D01*
X0353591Y0113262D02*
X0353033Y0113262D01*
X0347205Y0113262D02*
X0346588Y0113262D01*
X0345381Y0123891D02*
X0345381Y0123891D01*
X0329195Y0119656D02*
X0317527Y0119656D01*
X0317332Y0119852D02*
X0310966Y0119852D01*
X0309806Y0118692D01*
X0309806Y0114491D01*
X0310966Y0113331D01*
X0317332Y0113331D01*
X0318492Y0114491D01*
X0318492Y0118692D01*
X0317332Y0119852D01*
X0318492Y0118058D02*
X0329195Y0118058D01*
X0329195Y0116459D02*
X0318492Y0116459D01*
X0318492Y0114861D02*
X0329565Y0114861D01*
X0331111Y0113262D02*
X0305205Y0113262D01*
X0305205Y0114861D02*
X0309806Y0114861D01*
X0309806Y0116459D02*
X0305205Y0116459D01*
X0305205Y0118058D02*
X0309806Y0118058D01*
X0310770Y0119656D02*
X0305205Y0119656D01*
X0276581Y0100474D02*
X0263872Y0100474D01*
X0265471Y0098876D02*
X0278180Y0098876D01*
X0279779Y0097277D02*
X0267069Y0097277D01*
X0268668Y0095679D02*
X0281377Y0095679D01*
X0282976Y0094080D02*
X0270266Y0094080D01*
X0271865Y0092482D02*
X0284574Y0092482D01*
X0286173Y0090883D02*
X0273463Y0090883D01*
X0275062Y0089285D02*
X0287771Y0089285D01*
X0289370Y0087686D02*
X0276362Y0087686D01*
X0276858Y0086088D02*
X0290968Y0086088D01*
X0292567Y0084489D02*
X0276858Y0084489D01*
X0276157Y0082891D02*
X0294165Y0082891D01*
X0295764Y0081292D02*
X0274559Y0081292D01*
X0290321Y0095679D02*
X0350849Y0095679D01*
X0274983Y0102073D02*
X0262273Y0102073D01*
X0260675Y0103671D02*
X0273384Y0103671D01*
X0271786Y0105270D02*
X0259076Y0105270D01*
X0233700Y0087686D02*
X0220227Y0087686D01*
X0218629Y0086088D02*
X0235299Y0086088D01*
X0236897Y0084489D02*
X0217030Y0084489D01*
X0215835Y0082891D02*
X0237857Y0082891D01*
X0237857Y0081292D02*
X0215504Y0081292D01*
X0213905Y0079694D02*
X0227211Y0079694D01*
X0225612Y0078095D02*
X0185663Y0078095D01*
X0184065Y0076497D02*
X0224865Y0076497D01*
X0224767Y0074898D02*
X0183488Y0074898D01*
X0185087Y0073300D02*
X0223569Y0073300D01*
X0222370Y0071701D02*
X0186685Y0071701D01*
X0188284Y0070103D02*
X0205511Y0070103D01*
X0203912Y0068504D02*
X0188420Y0068504D01*
X0187001Y0066906D02*
X0202314Y0066906D01*
X0200715Y0065307D02*
X0185403Y0065307D01*
X0183804Y0063708D02*
X0199117Y0063708D01*
X0197518Y0062110D02*
X0182206Y0062110D01*
X0180607Y0060511D02*
X0195920Y0060511D01*
X0201667Y0057314D02*
X0209250Y0057314D01*
X0209362Y0057120D02*
X0209697Y0056785D01*
X0210108Y0056548D01*
X0210565Y0056425D01*
X0213164Y0056425D01*
X0213164Y0059505D01*
X0213164Y0059505D01*
X0209002Y0059505D01*
X0209002Y0061021D01*
X0209125Y0061479D01*
X0209362Y0061890D01*
X0209697Y0062225D01*
X0210108Y0062462D01*
X0210565Y0062584D01*
X0213164Y0062584D01*
X0213164Y0059505D01*
X0209002Y0059505D01*
X0209002Y0057988D01*
X0209125Y0057531D01*
X0209362Y0057120D01*
X0209002Y0058913D02*
X0203265Y0058913D01*
X0204864Y0060511D02*
X0209002Y0060511D01*
X0209582Y0062110D02*
X0206462Y0062110D01*
X0208061Y0063708D02*
X0220140Y0063708D01*
X0220140Y0062110D02*
X0216747Y0062110D01*
X0216632Y0062225D02*
X0216967Y0061890D01*
X0217204Y0061479D01*
X0217327Y0061021D01*
X0217327Y0059505D01*
X0213165Y0059505D01*
X0213165Y0059505D01*
X0217327Y0059505D01*
X0217327Y0057988D01*
X0217204Y0057531D01*
X0216967Y0057120D01*
X0216632Y0056785D01*
X0216222Y0056548D01*
X0215764Y0056425D01*
X0213165Y0056425D01*
X0213165Y0059505D01*
X0213164Y0059505D01*
X0213165Y0059505D01*
X0213165Y0062584D01*
X0215764Y0062584D01*
X0216222Y0062462D01*
X0216632Y0062225D01*
X0217327Y0060511D02*
X0220140Y0060511D01*
X0220140Y0058913D02*
X0217327Y0058913D01*
X0217079Y0057314D02*
X0220140Y0057314D01*
X0220140Y0055716D02*
X0200068Y0055716D01*
X0200645Y0054117D02*
X0198470Y0054117D01*
X0200061Y0052519D02*
X0172614Y0052519D01*
X0171016Y0050920D02*
X0200061Y0050920D01*
X0200061Y0049322D02*
X0169417Y0049322D01*
X0164736Y0044897D02*
X0165403Y0044229D01*
X0166293Y0043340D01*
X0166959Y0043064D01*
X0165809Y0041914D01*
X0165809Y0039340D01*
X0165587Y0039340D01*
X0164424Y0038859D01*
X0156638Y0031073D01*
X0153630Y0031073D01*
X0153630Y0031230D01*
X0154811Y0032411D01*
X0154811Y0033803D01*
X0158172Y0033803D01*
X0160717Y0036348D01*
X0160717Y0039946D01*
X0158172Y0042490D01*
X0156502Y0042490D01*
X0156196Y0042796D01*
X0155034Y0043277D01*
X0149299Y0043277D01*
X0149299Y0043501D01*
X0150791Y0043501D01*
X0156127Y0048838D01*
X0156127Y0050479D01*
X0153575Y0053031D01*
X0151348Y0055258D01*
X0151348Y0055258D01*
X0149446Y0057160D01*
X0148179Y0058427D01*
X0148322Y0058571D01*
X0149211Y0059460D01*
X0149693Y0060623D01*
X0149693Y0060757D01*
X0150874Y0061938D01*
X0150874Y0065536D01*
X0148885Y0067525D01*
X0149211Y0067851D01*
X0149483Y0068123D01*
X0151243Y0066364D01*
X0151243Y0059071D01*
X0151724Y0057909D01*
X0158015Y0051618D01*
X0157160Y0050763D01*
X0156923Y0050353D01*
X0156800Y0049895D01*
X0156800Y0049421D01*
X0156923Y0048963D01*
X0157160Y0048553D01*
X0159415Y0046297D01*
X0161375Y0048257D01*
X0161375Y0048257D01*
X0159415Y0046297D01*
X0161671Y0044042D01*
X0162081Y0043805D01*
X0162539Y0043682D01*
X0163013Y0043682D01*
X0163471Y0043805D01*
X0163881Y0044042D01*
X0164736Y0044897D01*
X0164366Y0044526D02*
X0165106Y0044526D01*
X0166823Y0042928D02*
X0155878Y0042928D01*
X0159333Y0041329D02*
X0165809Y0041329D01*
X0165809Y0039731D02*
X0160717Y0039731D01*
X0160717Y0038132D02*
X0163698Y0038132D01*
X0162099Y0036534D02*
X0160717Y0036534D01*
X0160501Y0034935D02*
X0159304Y0034935D01*
X0158902Y0033337D02*
X0154811Y0033337D01*
X0154139Y0031738D02*
X0157304Y0031738D01*
X0161452Y0026943D02*
X0168809Y0026943D01*
X0168809Y0028541D02*
X0163051Y0028541D01*
X0164649Y0030140D02*
X0168809Y0030140D01*
X0170055Y0031738D02*
X0166248Y0031738D01*
X0169581Y0025344D02*
X0159854Y0025344D01*
X0171180Y0023746D02*
X0143606Y0023746D01*
X0143606Y0022147D02*
X0187463Y0022147D01*
X0187463Y0020549D02*
X0143596Y0020549D01*
X0139838Y0020549D02*
X0139838Y0020549D01*
X0139838Y0019024D02*
X0139838Y0022399D01*
X0139838Y0022399D01*
X0136069Y0022399D01*
X0136069Y0020587D01*
X0136192Y0020129D01*
X0136429Y0019719D01*
X0136764Y0019383D01*
X0137175Y0019147D01*
X0137632Y0019024D01*
X0139838Y0019024D01*
X0139838Y0022147D02*
X0139838Y0022147D01*
X0136069Y0022147D02*
X0126677Y0022147D01*
X0126677Y0020549D02*
X0136080Y0020549D01*
X0136069Y0023746D02*
X0126591Y0023746D01*
X0126858Y0025344D02*
X0136059Y0025344D01*
X0135888Y0026943D02*
X0131627Y0026943D01*
X0132798Y0028541D02*
X0135888Y0028541D01*
X0135888Y0030140D02*
X0133157Y0030140D01*
X0132908Y0031738D02*
X0136676Y0031738D01*
X0135845Y0033337D02*
X0131892Y0033337D01*
X0134246Y0034935D02*
X0128106Y0034935D01*
X0129705Y0036534D02*
X0132648Y0036534D01*
X0131951Y0038132D02*
X0131303Y0038132D01*
X0151816Y0044526D02*
X0161186Y0044526D01*
X0159588Y0046125D02*
X0153415Y0046125D01*
X0155013Y0047723D02*
X0157989Y0047723D01*
X0156827Y0049322D02*
X0156127Y0049322D01*
X0155686Y0050920D02*
X0157317Y0050920D01*
X0157114Y0052519D02*
X0154087Y0052519D01*
X0155515Y0054117D02*
X0152488Y0054117D01*
X0153917Y0055716D02*
X0150890Y0055716D01*
X0149446Y0057160D02*
X0149446Y0057160D01*
X0149291Y0057314D02*
X0152318Y0057314D01*
X0151308Y0058913D02*
X0148664Y0058913D01*
X0149647Y0060511D02*
X0151243Y0060511D01*
X0151243Y0062110D02*
X0150874Y0062110D01*
X0150874Y0063708D02*
X0151243Y0063708D01*
X0151243Y0065307D02*
X0150874Y0065307D01*
X0150701Y0066906D02*
X0149505Y0066906D01*
X0130541Y0062110D02*
X0121518Y0062110D01*
X0090219Y0062110D02*
X0088788Y0062110D01*
X0089276Y0063708D02*
X0090219Y0063708D01*
X0090219Y0065307D02*
X0089276Y0065307D01*
X0089229Y0066906D02*
X0089678Y0066906D01*
X0085507Y0063708D02*
X0085507Y0063708D01*
X0085507Y0062110D02*
X0085507Y0062110D01*
X0107161Y0036534D02*
X0107161Y0036534D01*
X0107161Y0034935D02*
X0107161Y0034935D01*
X0090219Y0034935D02*
X0088955Y0034935D01*
X0089850Y0033337D02*
X0090219Y0033337D01*
X0090219Y0031738D02*
X0089850Y0031738D01*
X0086321Y0026943D02*
X0084782Y0026943D01*
X0084827Y0026336D02*
X0080665Y0026336D01*
X0080665Y0026336D01*
X0080665Y0022173D01*
X0080992Y0022173D01*
X0081639Y0022276D01*
X0082262Y0022478D01*
X0082846Y0022776D01*
X0083376Y0023161D01*
X0083839Y0023624D01*
X0084224Y0024154D01*
X0084522Y0024738D01*
X0084724Y0025361D01*
X0084827Y0026008D01*
X0084827Y0026336D01*
X0084719Y0025344D02*
X0086374Y0025344D01*
X0087112Y0023746D02*
X0083928Y0023746D01*
X0080665Y0023746D02*
X0080664Y0023746D01*
X0080664Y0025344D02*
X0080665Y0025344D01*
X0077401Y0023746D02*
X0074217Y0023746D01*
X0074955Y0025344D02*
X0076610Y0025344D01*
X0076547Y0026943D02*
X0075744Y0026943D01*
X0071595Y0031738D02*
X0057173Y0031738D01*
X0057173Y0030140D02*
X0058499Y0030140D01*
X0062830Y0030140D02*
X0068499Y0030140D01*
X0066877Y0028541D02*
X0064452Y0028541D01*
X0065008Y0026943D02*
X0066321Y0026943D01*
X0066374Y0025344D02*
X0064955Y0025344D01*
X0064217Y0023746D02*
X0067112Y0023746D01*
X0058195Y0018950D02*
X0119489Y0018950D01*
X0126328Y0018950D02*
X0187463Y0018950D01*
X0188980Y0023746D02*
X0184618Y0023746D01*
X0186216Y0025344D02*
X0200243Y0025344D01*
X0200243Y0026943D02*
X0187064Y0026943D01*
X0187064Y0028541D02*
X0200243Y0028541D01*
X0200354Y0030140D02*
X0187064Y0030140D01*
X0187837Y0031738D02*
X0185742Y0031738D01*
X0181964Y0026943D02*
X0181964Y0026943D01*
X0181964Y0025344D02*
X0181964Y0025344D01*
X0181964Y0023746D02*
X0181964Y0023746D01*
X0179310Y0023746D02*
X0177000Y0023746D01*
X0194633Y0023746D02*
X0204417Y0023746D01*
X0205967Y0023746D02*
X0214235Y0023746D01*
X0214235Y0025344D02*
X0210142Y0025344D01*
X0210142Y0026943D02*
X0214235Y0026943D01*
X0214235Y0028541D02*
X0210142Y0028541D01*
X0210030Y0030140D02*
X0214235Y0030140D01*
X0205967Y0030140D02*
X0204417Y0030140D01*
X0204417Y0028541D02*
X0205967Y0028541D01*
X0205967Y0026943D02*
X0204417Y0026943D01*
X0204417Y0025344D02*
X0205967Y0025344D01*
X0210142Y0022147D02*
X0214235Y0022147D01*
X0214235Y0020549D02*
X0210142Y0020549D01*
X0210125Y0018950D02*
X0214235Y0018950D01*
X0200259Y0018950D02*
X0196150Y0018950D01*
X0196150Y0020549D02*
X0200243Y0020549D01*
X0200243Y0022147D02*
X0196150Y0022147D01*
X0190519Y0038132D02*
X0190387Y0038132D01*
X0192477Y0039731D02*
X0187722Y0039731D01*
X0189320Y0041329D02*
X0194435Y0041329D01*
X0196321Y0042928D02*
X0190244Y0042928D01*
X0190244Y0044526D02*
X0196321Y0044526D01*
X0200061Y0047723D02*
X0188372Y0047723D01*
X0189970Y0046125D02*
X0201105Y0046125D01*
X0203433Y0044526D02*
X0204046Y0044526D01*
X0203983Y0042928D02*
X0203433Y0042928D01*
X0203433Y0041329D02*
X0203983Y0041329D01*
X0203983Y0039731D02*
X0203433Y0039731D01*
X0203058Y0038132D02*
X0204433Y0038132D01*
X0207357Y0038132D02*
X0207358Y0038132D01*
X0207357Y0039731D02*
X0207358Y0039731D01*
X0207357Y0041329D02*
X0207358Y0041329D01*
X0207357Y0041690D02*
X0207358Y0041690D01*
X0207357Y0041690D01*
X0207357Y0042928D02*
X0207358Y0042928D01*
X0206590Y0054117D02*
X0219053Y0054117D01*
X0213165Y0057314D02*
X0213164Y0057314D01*
X0213164Y0058913D02*
X0213165Y0058913D01*
X0213164Y0060511D02*
X0213165Y0060511D01*
X0213164Y0062110D02*
X0213165Y0062110D01*
X0216945Y0065307D02*
X0220140Y0065307D01*
X0220140Y0066906D02*
X0217508Y0066906D01*
X0217508Y0068504D02*
X0220223Y0068504D01*
X0221171Y0070103D02*
X0217475Y0070103D01*
X0226679Y0066906D02*
X0229097Y0066906D01*
X0229097Y0068504D02*
X0227877Y0068504D01*
X0229076Y0070103D02*
X0229130Y0070103D01*
X0231503Y0071701D02*
X0237857Y0071701D01*
X0237857Y0070103D02*
X0237751Y0070103D01*
X0237783Y0068504D02*
X0237857Y0068504D01*
X0237857Y0066906D02*
X0237783Y0066906D01*
X0237857Y0065307D02*
X0237221Y0065307D01*
X0229659Y0065307D02*
X0226465Y0065307D01*
X0233102Y0073300D02*
X0237857Y0073300D01*
X0237857Y0074898D02*
X0233551Y0074898D01*
X0233551Y0076497D02*
X0237857Y0076497D01*
X0237857Y0078095D02*
X0232803Y0078095D01*
X0231205Y0079694D02*
X0237857Y0079694D01*
X0229569Y0089285D02*
X0221826Y0089285D01*
X0209078Y0079694D02*
X0187262Y0079694D01*
X0176188Y0055716D02*
X0175811Y0055716D01*
X0174213Y0054117D02*
X0177786Y0054117D01*
X0160842Y0047723D02*
X0160841Y0047723D01*
X0174496Y0041329D02*
X0182481Y0041329D01*
X0184080Y0039731D02*
X0174496Y0039731D01*
X0162175Y0121255D02*
X0160717Y0121255D01*
X0160486Y0122853D02*
X0163773Y0122853D01*
X0165372Y0124452D02*
X0158887Y0124452D01*
X0155619Y0126050D02*
X0166970Y0126050D01*
X0168862Y0127649D02*
X0153727Y0127649D01*
X0151470Y0121255D02*
X0145230Y0121255D01*
X0028814Y0050920D02*
X0028814Y0050920D01*
X0028814Y0049322D02*
X0028814Y0049322D01*
X0025362Y0049322D02*
X0012404Y0049322D01*
X0012404Y0050920D02*
X0025046Y0050920D01*
X0025046Y0052519D02*
X0012404Y0052519D01*
X0012404Y0054117D02*
X0025147Y0054117D01*
X0024865Y0055716D02*
X0012404Y0055716D01*
X0012404Y0057314D02*
X0024865Y0057314D01*
X0024865Y0058913D02*
X0012404Y0058913D01*
X0012404Y0060511D02*
X0025543Y0060511D01*
X0025891Y0062110D02*
X0012404Y0062110D01*
X0012404Y0063708D02*
X0024292Y0063708D01*
X0023325Y0065307D02*
X0012404Y0065307D01*
X0012404Y0066906D02*
X0023290Y0066906D01*
X0020458Y0068504D02*
X0012404Y0068504D01*
X0012404Y0070103D02*
X0019353Y0070103D01*
X0019353Y0071701D02*
X0012404Y0071701D01*
X0012404Y0073300D02*
X0019353Y0073300D01*
X0019353Y0074898D02*
X0012404Y0074898D01*
X0012404Y0076497D02*
X0019353Y0076497D01*
X0019898Y0078095D02*
X0012404Y0078095D01*
X0025677Y0089285D02*
X0027227Y0089285D01*
X0027227Y0090883D02*
X0025677Y0090883D01*
X0025677Y0092482D02*
X0027227Y0092482D01*
X0027279Y0018950D02*
X0050830Y0018950D01*
X0339063Y0018950D02*
X0342397Y0018950D01*
D30*
X0252830Y0049958D03*
X0254798Y0063737D03*
X0229208Y0075548D03*
X0211491Y0083422D03*
X0205586Y0103107D03*
X0193775Y0103107D03*
X0185901Y0112950D03*
X0156373Y0106257D03*
X0156373Y0120824D03*
X0142594Y0124761D03*
X0132751Y0124761D03*
X0111098Y0114918D03*
X0087476Y0085391D03*
X0061885Y0085391D03*
X0057948Y0075548D03*
X0087476Y0047989D03*
X0101255Y0053895D03*
X0118972Y0065706D03*
X0122909Y0057044D03*
X0146531Y0063737D03*
X0144562Y0075548D03*
X0120940Y0077517D03*
X0144956Y0042871D03*
X0150468Y0034210D03*
X0156373Y0038147D03*
X0162279Y0040115D03*
X0170153Y0040115D03*
X0185901Y0044052D03*
X0189838Y0061769D03*
X0134720Y0032241D03*
X0085507Y0032241D03*
X0191806Y0020430D03*
X0272515Y0085391D03*
X0244956Y0110981D03*
X0355192Y0097202D03*
X0059917Y0110981D03*
D31*
X0059917Y0087359D01*
X0061885Y0085391D01*
X0061885Y0079485D02*
X0069759Y0079485D01*
X0075665Y0085391D01*
X0087476Y0085391D01*
X0113066Y0085391D01*
X0120940Y0077517D01*
X0115035Y0075548D02*
X0113066Y0075548D01*
X0101255Y0063737D01*
X0101255Y0053895D01*
X0107948Y0049958D02*
X0110310Y0047595D01*
X0110310Y0046021D01*
X0115035Y0046021D01*
X0115035Y0049958D01*
X0117003Y0051926D01*
X0128297Y0051926D01*
X0138000Y0061629D01*
X0140227Y0059402D02*
X0128814Y0047989D01*
X0128814Y0040115D01*
X0122909Y0034210D01*
X0122909Y0030273D01*
X0128814Y0030273D01*
X0122909Y0030273D02*
X0122909Y0027123D01*
X0135113Y0038540D02*
X0135113Y0045380D01*
X0144681Y0054948D01*
X0142454Y0057175D02*
X0146531Y0061252D01*
X0146531Y0063737D01*
X0146531Y0069643D02*
X0137105Y0069643D01*
X0133545Y0066083D01*
X0131318Y0068310D02*
X0128714Y0065706D01*
X0118972Y0065706D01*
X0118972Y0071611D02*
X0115035Y0075548D01*
X0118972Y0071611D02*
X0124877Y0071611D01*
X0128814Y0075548D01*
X0136688Y0075548D01*
X0142594Y0081454D01*
X0163830Y0081454D01*
X0179201Y0066083D01*
X0176974Y0063856D02*
X0165282Y0075548D01*
X0144562Y0075548D01*
X0148499Y0071611D02*
X0146531Y0069643D01*
X0148499Y0071611D02*
X0150468Y0071611D01*
X0154405Y0067674D01*
X0154405Y0059700D01*
X0163611Y0050493D01*
X0168084Y0046021D01*
X0183932Y0046021D01*
X0185901Y0044052D01*
X0187869Y0036178D02*
X0170153Y0036178D01*
X0170153Y0040115D01*
X0170153Y0036178D02*
X0166216Y0036178D01*
X0157948Y0027910D01*
X0150468Y0027910D01*
X0150468Y0034210D01*
X0146531Y0038147D02*
X0142594Y0038147D01*
X0140625Y0040115D01*
X0140625Y0046438D01*
X0146908Y0052720D01*
X0149135Y0050493D02*
X0144956Y0046314D01*
X0144956Y0042871D01*
X0148499Y0040115D02*
X0146531Y0038147D01*
X0148499Y0040115D02*
X0154405Y0040115D01*
X0156373Y0038147D01*
X0150468Y0027910D02*
X0139838Y0027910D01*
X0139838Y0033816D01*
X0135113Y0038540D01*
X0110310Y0046021D02*
X0107161Y0042871D01*
X0093381Y0029052D02*
X0090665Y0026336D01*
X0093381Y0029052D02*
X0093381Y0067674D01*
X0090625Y0070430D01*
X0085507Y0070430D01*
X0084523Y0071414D01*
X0073302Y0071414D01*
X0073302Y0063934D02*
X0073302Y0054682D01*
X0072515Y0053895D01*
X0062279Y0063934D02*
X0057751Y0063934D01*
X0055980Y0065706D01*
X0055980Y0069643D01*
X0057751Y0071414D01*
X0057948Y0071611D01*
X0057948Y0075548D01*
X0061885Y0079485D01*
X0062279Y0071414D02*
X0057751Y0071414D01*
X0062279Y0063934D02*
X0054011Y0055666D01*
X0049129Y0060548D01*
X0042200Y0060548D01*
X0031924Y0060548D01*
X0026452Y0066021D01*
X0026452Y0073580D01*
X0031924Y0060548D02*
X0028814Y0057438D01*
X0054011Y0055666D02*
X0054011Y0042084D01*
X0054011Y0018462D01*
X0057948Y0014918D01*
X0070665Y0026336D02*
X0076570Y0032241D01*
X0085507Y0032241D01*
X0055192Y0042084D02*
X0054011Y0042084D01*
X0122909Y0057044D02*
X0128961Y0057044D01*
X0135772Y0063856D01*
X0129091Y0080559D02*
X0116386Y0093265D01*
X0071728Y0093265D01*
X0065822Y0099170D01*
X0065822Y0107044D01*
X0074759Y0115981D01*
X0075507Y0115981D01*
X0085507Y0115981D02*
X0085507Y0118855D01*
X0091413Y0124761D01*
X0097318Y0124761D01*
X0103224Y0118855D01*
X0103224Y0115335D01*
X0133545Y0085013D01*
X0131318Y0082786D02*
X0116903Y0097202D01*
X0094287Y0097202D01*
X0085507Y0105981D01*
X0068972Y0128698D02*
X0060704Y0120430D01*
X0055192Y0120430D02*
X0037869Y0120430D01*
X0034326Y0116887D01*
X0034326Y0098422D01*
X0042200Y0090548D01*
X0068972Y0128698D02*
X0118972Y0128698D01*
X0130783Y0116887D01*
X0130783Y0110047D01*
X0144681Y0096149D01*
X0146908Y0098376D02*
X0134720Y0110564D01*
X0134720Y0122792D01*
X0132751Y0124761D01*
X0142594Y0124761D02*
X0152436Y0124761D01*
X0156373Y0120824D01*
X0158342Y0112950D02*
X0152436Y0112950D01*
X0148499Y0109013D01*
X0148499Y0105693D01*
X0151362Y0102830D01*
X0149135Y0100603D02*
X0154405Y0095334D01*
X0154405Y0095233D01*
X0144562Y0085391D01*
X0142076Y0085391D01*
X0138000Y0089468D01*
X0140227Y0091695D02*
X0121728Y0110194D01*
X0119365Y0110194D01*
X0124877Y0111499D02*
X0124877Y0112950D01*
X0124877Y0111499D02*
X0142454Y0093922D01*
X0149135Y0100603D02*
X0154505Y0095233D01*
X0158342Y0095233D01*
X0176058Y0077517D01*
X0180613Y0077517D01*
X0183655Y0080559D01*
X0186518Y0083422D01*
X0211491Y0083422D01*
X0221334Y0093265D01*
X0232594Y0093265D01*
X0241019Y0084840D01*
X0241019Y0055863D01*
X0229208Y0044052D01*
X0225271Y0044052D01*
X0221334Y0040115D01*
X0221334Y0022399D01*
X0219365Y0024367D01*
X0221334Y0022399D02*
X0221334Y0014918D01*
X0237476Y0033422D02*
X0237476Y0034603D01*
X0252830Y0049958D01*
X0263066Y0063737D02*
X0268972Y0057832D01*
X0268972Y0033422D01*
X0263066Y0063737D02*
X0254798Y0063737D01*
X0263066Y0063737D02*
X0263066Y0075706D01*
X0245507Y0093265D01*
X0256767Y0103107D02*
X0272515Y0087359D01*
X0272515Y0085391D01*
X0298106Y0083422D02*
X0339444Y0083422D01*
X0347318Y0075548D01*
X0368972Y0075548D01*
X0378617Y0065903D01*
X0379405Y0065903D01*
X0366413Y0085194D02*
X0355192Y0096414D01*
X0355192Y0097202D01*
X0302043Y0104485D02*
X0298106Y0100548D01*
X0302043Y0104485D02*
X0302043Y0120824D01*
X0297810Y0125056D01*
X0293873Y0125056D01*
X0256767Y0124761D02*
X0298106Y0083422D01*
X0256767Y0103107D02*
X0205586Y0103107D01*
X0193775Y0103107D02*
X0193775Y0100153D01*
X0179201Y0085013D01*
X0181428Y0082786D02*
X0187869Y0089227D01*
X0187869Y0089328D01*
X0176452Y0103501D02*
X0170963Y0103501D01*
X0165838Y0098376D01*
X0163611Y0100603D02*
X0170052Y0107044D01*
X0172121Y0107044D01*
X0170173Y0111619D02*
X0170173Y0112182D01*
X0170173Y0111619D02*
X0161384Y0102830D01*
X0158342Y0099788D01*
X0158342Y0095233D01*
X0158342Y0112950D02*
X0170153Y0124761D01*
X0256767Y0124761D01*
X0229208Y0075548D02*
X0223302Y0067674D01*
X0223302Y0053895D01*
X0219759Y0050351D01*
X0203617Y0050351D01*
X0195743Y0055863D02*
X0180512Y0055863D01*
X0174747Y0061629D01*
X0195743Y0055863D02*
X0207850Y0067970D01*
X0213165Y0067970D01*
X0199877Y0041690D02*
X0190231Y0033816D01*
X0187869Y0036178D01*
X0191806Y0020430D02*
X0191806Y0014918D01*
X0335507Y0014918D02*
X0335901Y0014918D01*
X0335901Y0022792D01*
D32*
X0335507Y0014918D02*
X0221334Y0014918D01*
X0191806Y0014918D01*
X0057948Y0014918D01*
X0335507Y0014918D02*
X0343381Y0014918D01*
X0390625Y0061769D01*
X0390625Y0073973D01*
X0379405Y0085194D01*
M02*
