G75*
%MOIN*%
%OFA0B0*%
%FSLAX24Y24*%
%IPPOS*%
%LPD*%
%AMOC8*
5,1,8,0,0,1.08239X$1,22.5*
%
%ADD10C,0.0000*%
%ADD11C,0.1300*%
%ADD12R,0.0434X0.0355*%
%ADD13OC8,0.0600*%
%ADD14C,0.0516*%
%ADD15C,0.1024*%
%ADD16C,0.1221*%
%ADD17C,0.0594*%
%ADD18C,0.0560*%
%ADD19R,0.0516X0.0516*%
%ADD20OC8,0.0555*%
%ADD21R,0.0555X0.0555*%
%ADD22OC8,0.0700*%
%ADD23R,0.0594X0.0594*%
%ADD24C,0.0555*%
%ADD25C,0.0142*%
%ADD26C,0.0177*%
%ADD27C,0.0106*%
%ADD28C,0.0118*%
%ADD29C,0.0130*%
%ADD30R,0.0827X0.0276*%
%ADD31R,0.0355X0.0434*%
%ADD32C,0.0740*%
D10*
X000179Y000847D02*
X000179Y032343D01*
X039549Y032343D01*
X039549Y000847D01*
X000179Y000847D01*
X001517Y002816D02*
X001519Y002866D01*
X001525Y002916D01*
X001535Y002965D01*
X001549Y003013D01*
X001566Y003060D01*
X001587Y003105D01*
X001612Y003149D01*
X001640Y003190D01*
X001672Y003229D01*
X001706Y003266D01*
X001743Y003300D01*
X001783Y003330D01*
X001825Y003357D01*
X001869Y003381D01*
X001915Y003402D01*
X001962Y003418D01*
X002010Y003431D01*
X002060Y003440D01*
X002109Y003445D01*
X002160Y003446D01*
X002210Y003443D01*
X002259Y003436D01*
X002308Y003425D01*
X002356Y003410D01*
X002402Y003392D01*
X002447Y003370D01*
X002490Y003344D01*
X002531Y003315D01*
X002570Y003283D01*
X002606Y003248D01*
X002638Y003210D01*
X002668Y003170D01*
X002695Y003127D01*
X002718Y003083D01*
X002737Y003037D01*
X002753Y002989D01*
X002765Y002940D01*
X002773Y002891D01*
X002777Y002841D01*
X002777Y002791D01*
X002773Y002741D01*
X002765Y002692D01*
X002753Y002643D01*
X002737Y002595D01*
X002718Y002549D01*
X002695Y002505D01*
X002668Y002462D01*
X002638Y002422D01*
X002606Y002384D01*
X002570Y002349D01*
X002531Y002317D01*
X002490Y002288D01*
X002447Y002262D01*
X002402Y002240D01*
X002356Y002222D01*
X002308Y002207D01*
X002259Y002196D01*
X002210Y002189D01*
X002160Y002186D01*
X002109Y002187D01*
X002060Y002192D01*
X002010Y002201D01*
X001962Y002214D01*
X001915Y002230D01*
X001869Y002251D01*
X001825Y002275D01*
X001783Y002302D01*
X001743Y002332D01*
X001706Y002366D01*
X001672Y002403D01*
X001640Y002442D01*
X001612Y002483D01*
X001587Y002527D01*
X001566Y002572D01*
X001549Y002619D01*
X001535Y002667D01*
X001525Y002716D01*
X001519Y002766D01*
X001517Y002816D01*
X019234Y014627D02*
X019236Y014677D01*
X019242Y014727D01*
X019252Y014776D01*
X019266Y014824D01*
X019283Y014871D01*
X019304Y014916D01*
X019329Y014960D01*
X019357Y015001D01*
X019389Y015040D01*
X019423Y015077D01*
X019460Y015111D01*
X019500Y015141D01*
X019542Y015168D01*
X019586Y015192D01*
X019632Y015213D01*
X019679Y015229D01*
X019727Y015242D01*
X019777Y015251D01*
X019826Y015256D01*
X019877Y015257D01*
X019927Y015254D01*
X019976Y015247D01*
X020025Y015236D01*
X020073Y015221D01*
X020119Y015203D01*
X020164Y015181D01*
X020207Y015155D01*
X020248Y015126D01*
X020287Y015094D01*
X020323Y015059D01*
X020355Y015021D01*
X020385Y014981D01*
X020412Y014938D01*
X020435Y014894D01*
X020454Y014848D01*
X020470Y014800D01*
X020482Y014751D01*
X020490Y014702D01*
X020494Y014652D01*
X020494Y014602D01*
X020490Y014552D01*
X020482Y014503D01*
X020470Y014454D01*
X020454Y014406D01*
X020435Y014360D01*
X020412Y014316D01*
X020385Y014273D01*
X020355Y014233D01*
X020323Y014195D01*
X020287Y014160D01*
X020248Y014128D01*
X020207Y014099D01*
X020164Y014073D01*
X020119Y014051D01*
X020073Y014033D01*
X020025Y014018D01*
X019976Y014007D01*
X019927Y014000D01*
X019877Y013997D01*
X019826Y013998D01*
X019777Y014003D01*
X019727Y014012D01*
X019679Y014025D01*
X019632Y014041D01*
X019586Y014062D01*
X019542Y014086D01*
X019500Y014113D01*
X019460Y014143D01*
X019423Y014177D01*
X019389Y014214D01*
X019357Y014253D01*
X019329Y014294D01*
X019304Y014338D01*
X019283Y014383D01*
X019266Y014430D01*
X019252Y014478D01*
X019242Y014527D01*
X019236Y014577D01*
X019234Y014627D01*
X036950Y002816D02*
X036952Y002866D01*
X036958Y002916D01*
X036968Y002965D01*
X036982Y003013D01*
X036999Y003060D01*
X037020Y003105D01*
X037045Y003149D01*
X037073Y003190D01*
X037105Y003229D01*
X037139Y003266D01*
X037176Y003300D01*
X037216Y003330D01*
X037258Y003357D01*
X037302Y003381D01*
X037348Y003402D01*
X037395Y003418D01*
X037443Y003431D01*
X037493Y003440D01*
X037542Y003445D01*
X037593Y003446D01*
X037643Y003443D01*
X037692Y003436D01*
X037741Y003425D01*
X037789Y003410D01*
X037835Y003392D01*
X037880Y003370D01*
X037923Y003344D01*
X037964Y003315D01*
X038003Y003283D01*
X038039Y003248D01*
X038071Y003210D01*
X038101Y003170D01*
X038128Y003127D01*
X038151Y003083D01*
X038170Y003037D01*
X038186Y002989D01*
X038198Y002940D01*
X038206Y002891D01*
X038210Y002841D01*
X038210Y002791D01*
X038206Y002741D01*
X038198Y002692D01*
X038186Y002643D01*
X038170Y002595D01*
X038151Y002549D01*
X038128Y002505D01*
X038101Y002462D01*
X038071Y002422D01*
X038039Y002384D01*
X038003Y002349D01*
X037964Y002317D01*
X037923Y002288D01*
X037880Y002262D01*
X037835Y002240D01*
X037789Y002222D01*
X037741Y002207D01*
X037692Y002196D01*
X037643Y002189D01*
X037593Y002186D01*
X037542Y002187D01*
X037493Y002192D01*
X037443Y002201D01*
X037395Y002214D01*
X037348Y002230D01*
X037302Y002251D01*
X037258Y002275D01*
X037216Y002302D01*
X037176Y002332D01*
X037139Y002366D01*
X037105Y002403D01*
X037073Y002442D01*
X037045Y002483D01*
X037020Y002527D01*
X036999Y002572D01*
X036982Y002619D01*
X036968Y002667D01*
X036958Y002716D01*
X036952Y002766D01*
X036950Y002816D01*
X036950Y030375D02*
X036952Y030425D01*
X036958Y030475D01*
X036968Y030524D01*
X036982Y030572D01*
X036999Y030619D01*
X037020Y030664D01*
X037045Y030708D01*
X037073Y030749D01*
X037105Y030788D01*
X037139Y030825D01*
X037176Y030859D01*
X037216Y030889D01*
X037258Y030916D01*
X037302Y030940D01*
X037348Y030961D01*
X037395Y030977D01*
X037443Y030990D01*
X037493Y030999D01*
X037542Y031004D01*
X037593Y031005D01*
X037643Y031002D01*
X037692Y030995D01*
X037741Y030984D01*
X037789Y030969D01*
X037835Y030951D01*
X037880Y030929D01*
X037923Y030903D01*
X037964Y030874D01*
X038003Y030842D01*
X038039Y030807D01*
X038071Y030769D01*
X038101Y030729D01*
X038128Y030686D01*
X038151Y030642D01*
X038170Y030596D01*
X038186Y030548D01*
X038198Y030499D01*
X038206Y030450D01*
X038210Y030400D01*
X038210Y030350D01*
X038206Y030300D01*
X038198Y030251D01*
X038186Y030202D01*
X038170Y030154D01*
X038151Y030108D01*
X038128Y030064D01*
X038101Y030021D01*
X038071Y029981D01*
X038039Y029943D01*
X038003Y029908D01*
X037964Y029876D01*
X037923Y029847D01*
X037880Y029821D01*
X037835Y029799D01*
X037789Y029781D01*
X037741Y029766D01*
X037692Y029755D01*
X037643Y029748D01*
X037593Y029745D01*
X037542Y029746D01*
X037493Y029751D01*
X037443Y029760D01*
X037395Y029773D01*
X037348Y029789D01*
X037302Y029810D01*
X037258Y029834D01*
X037216Y029861D01*
X037176Y029891D01*
X037139Y029925D01*
X037105Y029962D01*
X037073Y030001D01*
X037045Y030042D01*
X037020Y030086D01*
X036999Y030131D01*
X036982Y030178D01*
X036968Y030226D01*
X036958Y030275D01*
X036952Y030325D01*
X036950Y030375D01*
X001517Y030375D02*
X001519Y030425D01*
X001525Y030475D01*
X001535Y030524D01*
X001549Y030572D01*
X001566Y030619D01*
X001587Y030664D01*
X001612Y030708D01*
X001640Y030749D01*
X001672Y030788D01*
X001706Y030825D01*
X001743Y030859D01*
X001783Y030889D01*
X001825Y030916D01*
X001869Y030940D01*
X001915Y030961D01*
X001962Y030977D01*
X002010Y030990D01*
X002060Y030999D01*
X002109Y031004D01*
X002160Y031005D01*
X002210Y031002D01*
X002259Y030995D01*
X002308Y030984D01*
X002356Y030969D01*
X002402Y030951D01*
X002447Y030929D01*
X002490Y030903D01*
X002531Y030874D01*
X002570Y030842D01*
X002606Y030807D01*
X002638Y030769D01*
X002668Y030729D01*
X002695Y030686D01*
X002718Y030642D01*
X002737Y030596D01*
X002753Y030548D01*
X002765Y030499D01*
X002773Y030450D01*
X002777Y030400D01*
X002777Y030350D01*
X002773Y030300D01*
X002765Y030251D01*
X002753Y030202D01*
X002737Y030154D01*
X002718Y030108D01*
X002695Y030064D01*
X002668Y030021D01*
X002638Y029981D01*
X002606Y029943D01*
X002570Y029908D01*
X002531Y029876D01*
X002490Y029847D01*
X002447Y029821D01*
X002402Y029799D01*
X002356Y029781D01*
X002308Y029766D01*
X002259Y029755D01*
X002210Y029748D01*
X002160Y029745D01*
X002109Y029746D01*
X002060Y029751D01*
X002010Y029760D01*
X001962Y029773D01*
X001915Y029789D01*
X001869Y029810D01*
X001825Y029834D01*
X001783Y029861D01*
X001743Y029891D01*
X001706Y029925D01*
X001672Y029962D01*
X001640Y030001D01*
X001612Y030042D01*
X001587Y030086D01*
X001566Y030131D01*
X001549Y030178D01*
X001535Y030226D01*
X001525Y030275D01*
X001519Y030325D01*
X001517Y030375D01*
D11*
X002147Y030375D03*
X019864Y014627D03*
X037580Y002816D03*
X037580Y030375D03*
X002147Y002816D03*
D12*
X005191Y002831D03*
X005191Y003383D03*
X025376Y003091D03*
X025376Y002540D03*
X029116Y006654D03*
X029116Y007245D03*
X003328Y025355D03*
X003328Y025946D03*
D13*
X003041Y019776D03*
X002041Y019776D03*
X002041Y018776D03*
X003041Y018776D03*
X003041Y017776D03*
X002041Y017776D03*
X002041Y016776D03*
X003041Y016776D03*
X003041Y015776D03*
X002041Y015776D03*
X007553Y015776D03*
X008553Y015776D03*
X008553Y016776D03*
X007553Y016776D03*
X007553Y017776D03*
X008553Y017776D03*
X008553Y018776D03*
X007553Y018776D03*
X007553Y019776D03*
X008553Y019776D03*
X008265Y003709D03*
X007265Y003709D03*
X007265Y002709D03*
X008265Y002709D03*
X006265Y002709D03*
X006265Y003709D03*
X036687Y012414D03*
X037687Y012414D03*
X037687Y013414D03*
X036687Y013414D03*
X036687Y014414D03*
X037687Y014414D03*
X037687Y015414D03*
X036687Y015414D03*
X036687Y016414D03*
X037687Y016414D03*
X037687Y017414D03*
X036687Y017414D03*
X036687Y018414D03*
X037687Y018414D03*
X037687Y023863D03*
X036687Y023863D03*
X036687Y024863D03*
X037687Y024863D03*
X037687Y025863D03*
X036687Y025863D03*
D14*
X031970Y030965D03*
X031380Y030965D03*
X030789Y030965D03*
X030198Y030965D03*
X029608Y030965D03*
X025474Y030965D03*
X024883Y030965D03*
X024293Y030965D03*
X023702Y030965D03*
X020159Y030965D03*
X019569Y030965D03*
X018978Y030965D03*
X018387Y030965D03*
X017797Y030965D03*
X001950Y025749D03*
X001950Y025158D03*
X001950Y024568D03*
X001950Y023977D03*
X001950Y011182D03*
X001950Y010591D03*
X001950Y010001D03*
X001950Y009410D03*
X004903Y009410D03*
X004903Y010001D03*
X004903Y010591D03*
X004903Y011182D03*
X007856Y011182D03*
X007856Y010591D03*
X007856Y010001D03*
X007856Y009410D03*
X034329Y002197D03*
X034919Y002197D03*
D15*
X037187Y006261D02*
X037187Y007245D01*
X036399Y008643D02*
X035415Y008643D01*
D16*
X034726Y007343D02*
X034726Y006162D01*
D17*
X027364Y006371D03*
X026364Y006371D03*
X026364Y007371D03*
X027364Y007371D03*
X027364Y008371D03*
X026364Y008371D03*
X026364Y009371D03*
X027364Y009371D03*
X027364Y010371D03*
X026364Y010371D03*
X026364Y011371D03*
X027364Y011371D03*
X027364Y012371D03*
X026364Y012371D03*
X026364Y013371D03*
X027364Y013371D03*
X027364Y014371D03*
X026364Y014371D03*
X026364Y015371D03*
X027364Y015371D03*
X027364Y016371D03*
X026364Y016371D03*
X026364Y017371D03*
X027364Y017371D03*
X027364Y018371D03*
X026364Y018371D03*
X026364Y019371D03*
X027364Y019371D03*
X027364Y020371D03*
X026364Y020371D03*
X026364Y021371D03*
X027364Y021371D03*
X028206Y024863D03*
X029206Y024863D03*
X030206Y024863D03*
X031206Y024863D03*
X032206Y024863D03*
X021970Y024863D03*
X020970Y024863D03*
X019970Y024863D03*
X018970Y024863D03*
X017970Y024863D03*
X013364Y021371D03*
X013364Y020371D03*
X013364Y019371D03*
X013364Y018371D03*
X013364Y017371D03*
X013364Y016371D03*
X013364Y015371D03*
X013364Y014371D03*
X013364Y013371D03*
X013364Y012371D03*
X012364Y012371D03*
X012364Y013371D03*
X012364Y014371D03*
X012364Y015371D03*
X012364Y016371D03*
X012364Y017371D03*
X012364Y018371D03*
X012364Y019371D03*
X012364Y020371D03*
X012364Y021371D03*
X012364Y011371D03*
X013364Y011371D03*
X013364Y010371D03*
X013364Y009371D03*
X013364Y008371D03*
X013364Y007371D03*
X013364Y006371D03*
X013364Y005371D03*
X013364Y004371D03*
X013364Y003371D03*
X013364Y002371D03*
X012364Y002371D03*
X012364Y003371D03*
X012364Y004371D03*
X012364Y005371D03*
X012364Y006371D03*
X012364Y007371D03*
X012364Y008371D03*
X012364Y009371D03*
X012364Y010371D03*
X009675Y006950D03*
X008675Y006950D03*
X007675Y006950D03*
X006675Y006950D03*
X005675Y006950D03*
X004675Y006950D03*
X026364Y005371D03*
X027364Y005371D03*
X027364Y004371D03*
X026364Y004371D03*
X026364Y003371D03*
X027364Y003371D03*
X027364Y002371D03*
X026364Y002371D03*
D18*
X013494Y026406D02*
X012974Y026406D01*
X012974Y027406D02*
X013494Y027406D01*
X013494Y028406D02*
X012974Y028406D01*
X012974Y029406D02*
X013494Y029406D01*
X013494Y030406D02*
X012974Y030406D01*
X005494Y030406D02*
X004974Y030406D01*
X004974Y029406D02*
X005494Y029406D01*
X005494Y028406D02*
X004974Y028406D01*
X004974Y027406D02*
X005494Y027406D01*
X005494Y026406D02*
X004974Y026406D01*
D19*
X017206Y030965D03*
X029017Y030965D03*
D20*
X028919Y028209D03*
X029706Y028209D03*
X030494Y028209D03*
X031281Y028209D03*
X032069Y028209D03*
X021045Y028209D03*
X020257Y028209D03*
X019470Y028209D03*
X018683Y028209D03*
X017895Y028209D03*
D21*
X017108Y028209D03*
X028131Y028209D03*
X031929Y005897D03*
D22*
X031862Y002265D03*
X031075Y002265D03*
D23*
X027206Y024863D03*
X016970Y024863D03*
D24*
X010415Y029981D03*
X007856Y029981D03*
X001754Y028406D03*
X001754Y027225D03*
X001557Y022501D03*
X002935Y022501D03*
X003131Y007540D03*
X001754Y007540D03*
X024194Y026241D03*
X026163Y027619D03*
X030929Y005897D03*
D25*
X022608Y006091D02*
X022278Y006091D01*
X022608Y006091D02*
X022608Y005721D01*
X022278Y005721D01*
X022278Y006091D01*
X022278Y005862D02*
X022608Y005862D01*
X022608Y006003D02*
X022278Y006003D01*
X022278Y002381D02*
X022608Y002381D01*
X022608Y001381D01*
X022278Y001381D01*
X022278Y002381D01*
X022278Y001522D02*
X022608Y001522D01*
X022608Y001663D02*
X022278Y001663D01*
X022278Y001804D02*
X022608Y001804D01*
X022608Y001945D02*
X022278Y001945D01*
X022278Y002086D02*
X022608Y002086D01*
X022608Y002227D02*
X022278Y002227D01*
X022278Y002368D02*
X022608Y002368D01*
D26*
X017216Y001980D02*
X016802Y001980D01*
X017216Y001980D02*
X017216Y001368D01*
X016802Y001368D01*
X016802Y001980D01*
X016802Y001544D02*
X017216Y001544D01*
X017216Y001720D02*
X016802Y001720D01*
X016802Y001896D02*
X017216Y001896D01*
D27*
X022260Y003589D02*
X022626Y003589D01*
X022626Y003341D01*
X022260Y003341D01*
X022260Y003589D01*
X022260Y003446D02*
X022626Y003446D01*
X022626Y003551D02*
X022260Y003551D01*
D28*
X022098Y007993D02*
X021920Y007993D01*
X022098Y007993D02*
X022098Y007521D01*
X021920Y007521D01*
X021920Y007993D01*
X021920Y007638D02*
X022098Y007638D01*
X022098Y007755D02*
X021920Y007755D01*
X021920Y007872D02*
X022098Y007872D01*
X022098Y007989D02*
X021920Y007989D01*
X021724Y007993D02*
X021546Y007993D01*
X021724Y007993D02*
X021724Y007521D01*
X021546Y007521D01*
X021546Y007993D01*
X021546Y007638D02*
X021724Y007638D01*
X021724Y007755D02*
X021546Y007755D01*
X021546Y007872D02*
X021724Y007872D01*
X021724Y007989D02*
X021546Y007989D01*
X021291Y007993D02*
X021113Y007993D01*
X021291Y007993D02*
X021291Y007521D01*
X021113Y007521D01*
X021113Y007993D01*
X021113Y007638D02*
X021291Y007638D01*
X021291Y007755D02*
X021113Y007755D01*
X021113Y007872D02*
X021291Y007872D01*
X021291Y007989D02*
X021113Y007989D01*
X020858Y007993D02*
X020680Y007993D01*
X020858Y007993D02*
X020858Y007521D01*
X020680Y007521D01*
X020680Y007993D01*
X020680Y007638D02*
X020858Y007638D01*
X020858Y007755D02*
X020680Y007755D01*
X020680Y007872D02*
X020858Y007872D01*
X020858Y007989D02*
X020680Y007989D01*
X020425Y007993D02*
X020247Y007993D01*
X020425Y007993D02*
X020425Y007521D01*
X020247Y007521D01*
X020247Y007993D01*
X020247Y007638D02*
X020425Y007638D01*
X020425Y007755D02*
X020247Y007755D01*
X020247Y007872D02*
X020425Y007872D01*
X020425Y007989D02*
X020247Y007989D01*
X019992Y007993D02*
X019814Y007993D01*
X019992Y007993D02*
X019992Y007521D01*
X019814Y007521D01*
X019814Y007993D01*
X019814Y007638D02*
X019992Y007638D01*
X019992Y007755D02*
X019814Y007755D01*
X019814Y007872D02*
X019992Y007872D01*
X019992Y007989D02*
X019814Y007989D01*
X019559Y007993D02*
X019381Y007993D01*
X019559Y007993D02*
X019559Y007521D01*
X019381Y007521D01*
X019381Y007993D01*
X019381Y007638D02*
X019559Y007638D01*
X019559Y007755D02*
X019381Y007755D01*
X019381Y007872D02*
X019559Y007872D01*
X019559Y007989D02*
X019381Y007989D01*
X019126Y007993D02*
X018948Y007993D01*
X019126Y007993D02*
X019126Y007521D01*
X018948Y007521D01*
X018948Y007993D01*
X018948Y007638D02*
X019126Y007638D01*
X019126Y007755D02*
X018948Y007755D01*
X018948Y007872D02*
X019126Y007872D01*
X019126Y007989D02*
X018948Y007989D01*
X018693Y007993D02*
X018515Y007993D01*
X018693Y007993D02*
X018693Y007521D01*
X018515Y007521D01*
X018515Y007993D01*
X018515Y007638D02*
X018693Y007638D01*
X018693Y007755D02*
X018515Y007755D01*
X018515Y007872D02*
X018693Y007872D01*
X018693Y007989D02*
X018515Y007989D01*
D29*
X018146Y007987D02*
X017842Y007987D01*
X018146Y007987D02*
X018146Y007527D01*
X017842Y007527D01*
X017842Y007987D01*
X017842Y007656D02*
X018146Y007656D01*
X018146Y007785D02*
X017842Y007785D01*
X017842Y007914D02*
X018146Y007914D01*
D30*
X005927Y022932D03*
X005927Y023432D03*
X005927Y023932D03*
X005927Y024432D03*
X003880Y024432D03*
X003880Y023932D03*
X003880Y023432D03*
X003880Y022932D03*
D31*
X035730Y005572D03*
X036281Y005572D03*
D32*
X033175Y008509D03*
X033175Y009509D03*
X033175Y010509D03*
X032175Y010509D03*
X031175Y010509D03*
X030175Y010509D03*
X030175Y009509D03*
X031175Y009509D03*
X032175Y009509D03*
X032175Y008509D03*
X031175Y008509D03*
X030175Y008509D03*
M02*
