%
M48
M72
T01C0.0157
T02C0.0197
T03C0.0236
T04C0.0276
T05C0.0315
T06C0.0320
T07C0.0354
T08C0.0360
T09C0.0394
T10C0.0400
T11C0.1260
%
T01
X18683Y9902
X19864Y9115
X20651Y10296
T02
X7679Y23603
X17265Y13052
X22620Y8328
X16517Y7225
X9549Y8839
X30691Y20926
X33840Y23485
X34431Y20532
X34431Y17383
T03
X16714Y20926
T04
X1950Y9410
X1950Y10001
X1950Y10591
X1950Y11182
X4903Y11182
X4903Y10591
X4903Y10001
X4903Y9410
X7856Y9410
X7856Y10001
X7856Y10591
X7856Y11182
X34329Y2197
X34919Y2197
X31970Y30965
X31380Y30965
X30789Y30965
X30198Y30965
X29608Y30965
X29017Y30965
X25474Y30965
X24883Y30965
X24293Y30965
X23702Y30965
X20159Y30965
X19569Y30965
X18978Y30965
X18387Y30965
X17797Y30965
X17206Y30965
X1950Y25749
X1950Y25158
X1950Y24568
X1950Y23977
T05
X1754Y28406
X1754Y27225
X1557Y22501
X2935Y22501
X7856Y29981
X10415Y29981
X17108Y28209
X17895Y28209
X18683Y28209
X19470Y28209
X20257Y28209
X21045Y28209
X24194Y26241
X26163Y27619
X28131Y28209
X28919Y28209
X29706Y28209
X30494Y28209
X31281Y28209
X32069Y28209
X30929Y5897
X31929Y5897
X35907Y8643
X37187Y6753
X3131Y7540
X1754Y7540
T06
X13234Y26406
X13234Y27406
X13234Y28406
X13234Y29406
X13234Y30406
X5234Y30406
X5234Y29406
X5234Y28406
X5234Y27406
X5234Y26406
X31075Y2265
X31862Y2265
T07
X12364Y21371
X13364Y21371
X13364Y20371
X13364Y19371
X13364Y18371
X13364Y17371
X13364Y16371
X13364Y15371
X13364Y14371
X13364Y13371
X13364Y12371
X12364Y12371
X12364Y13371
X12364Y14371
X12364Y15371
X12364Y16371
X12364Y17371
X12364Y18371
X12364Y19371
X12364Y20371
X16970Y24863
X17970Y24863
X18970Y24863
X19970Y24863
X20970Y24863
X21970Y24863
X26364Y21371
X27364Y21371
X27364Y20371
X26364Y20371
X26364Y19371
X27364Y19371
X27364Y18371
X26364Y18371
X26364Y17371
X27364Y17371
X27364Y16371
X26364Y16371
X26364Y15371
X27364Y15371
X27364Y14371
X26364Y14371
X26364Y13371
X27364Y13371
X27364Y12371
X26364Y12371
X26364Y11371
X27364Y11371
X27364Y10371
X26364Y10371
X26364Y9371
X27364Y9371
X27364Y8371
X26364Y8371
X26364Y7371
X27364Y7371
X27364Y6371
X26364Y6371
X26364Y5371
X27364Y5371
X27364Y4371
X26364Y4371
X26364Y3371
X27364Y3371
X27364Y2371
X26364Y2371
X13364Y11371
X13364Y10371
X13364Y9371
X13364Y8371
X13364Y7371
X13364Y6371
X13364Y5371
X13364Y4371
X13364Y3371
X13364Y2371
X12364Y2371
X12364Y3371
X12364Y4371
X12364Y5371
X12364Y6371
X12364Y7371
X12364Y8371
X12364Y9371
X12364Y10371
X12364Y11371
X9675Y6950
X8675Y6950
X7675Y6950
X6675Y6950
X5675Y6950
X4675Y6950
X27206Y24863
X28206Y24863
X29206Y24863
X30206Y24863
X31206Y24863
X32206Y24863
T08
X2041Y19776
X3041Y19776
X3041Y18776
X2041Y18776
X2041Y17776
X3041Y17776
X3041Y16776
X2041Y16776
X2041Y15776
X3041Y15776
X7553Y15776
X8553Y15776
X8553Y16776
X7553Y16776
X7553Y17776
X8553Y17776
X8553Y18776
X7553Y18776
X7553Y19776
X8553Y19776
X8265Y3709
X7265Y3709
X7265Y2709
X8265Y2709
X6265Y2709
X6265Y3709
X36687Y12414
X37687Y12414
X37687Y13414
X36687Y13414
X36687Y14414
X37687Y14414
X37687Y15414
X36687Y15414
X36687Y16414
X37687Y16414
X37687Y17414
X36687Y17414
X36687Y18414
X37687Y18414
X37687Y23863
X36687Y23863
X36687Y24863
X37687Y24863
X37687Y25863
X36687Y25863
T09
X34726Y6753
T10
X30175Y10509
X31175Y10509
X32175Y10509
X33175Y10509
X33175Y9509
X32175Y9509
X31175Y9509
X30175Y9509
X30175Y8509
X31175Y8509
X32175Y8509
X33175Y8509
T11
X2147Y2816
X19864Y14627
X37580Y2816
X37580Y30375
X2147Y30375
M30
