G75*
%MOIN*%
%OFA0B0*%
%FSLAX24Y24*%
%IPPOS*%
%LPD*%
%AMOC8*
5,1,8,0,0,1.08239X$1,22.5*
%
%ADD10C,0.0000*%
%ADD11R,0.0394X0.0315*%
%ADD12C,0.0130*%
%ADD13C,0.0165*%
%ADD14C,0.0094*%
%ADD15C,0.0102*%
%ADD16C,0.0118*%
%ADD17R,0.0787X0.0236*%
%ADD18R,0.0315X0.0394*%
D10*
X000179Y000847D02*
X000179Y032343D01*
X039549Y032343D01*
X039549Y000847D01*
X000179Y000847D01*
X001517Y002816D02*
X001519Y002866D01*
X001525Y002916D01*
X001535Y002965D01*
X001549Y003013D01*
X001566Y003060D01*
X001587Y003105D01*
X001612Y003149D01*
X001640Y003190D01*
X001672Y003229D01*
X001706Y003266D01*
X001743Y003300D01*
X001783Y003330D01*
X001825Y003357D01*
X001869Y003381D01*
X001915Y003402D01*
X001962Y003418D01*
X002010Y003431D01*
X002060Y003440D01*
X002109Y003445D01*
X002160Y003446D01*
X002210Y003443D01*
X002259Y003436D01*
X002308Y003425D01*
X002356Y003410D01*
X002402Y003392D01*
X002447Y003370D01*
X002490Y003344D01*
X002531Y003315D01*
X002570Y003283D01*
X002606Y003248D01*
X002638Y003210D01*
X002668Y003170D01*
X002695Y003127D01*
X002718Y003083D01*
X002737Y003037D01*
X002753Y002989D01*
X002765Y002940D01*
X002773Y002891D01*
X002777Y002841D01*
X002777Y002791D01*
X002773Y002741D01*
X002765Y002692D01*
X002753Y002643D01*
X002737Y002595D01*
X002718Y002549D01*
X002695Y002505D01*
X002668Y002462D01*
X002638Y002422D01*
X002606Y002384D01*
X002570Y002349D01*
X002531Y002317D01*
X002490Y002288D01*
X002447Y002262D01*
X002402Y002240D01*
X002356Y002222D01*
X002308Y002207D01*
X002259Y002196D01*
X002210Y002189D01*
X002160Y002186D01*
X002109Y002187D01*
X002060Y002192D01*
X002010Y002201D01*
X001962Y002214D01*
X001915Y002230D01*
X001869Y002251D01*
X001825Y002275D01*
X001783Y002302D01*
X001743Y002332D01*
X001706Y002366D01*
X001672Y002403D01*
X001640Y002442D01*
X001612Y002483D01*
X001587Y002527D01*
X001566Y002572D01*
X001549Y002619D01*
X001535Y002667D01*
X001525Y002716D01*
X001519Y002766D01*
X001517Y002816D01*
X019234Y014627D02*
X019236Y014677D01*
X019242Y014727D01*
X019252Y014776D01*
X019266Y014824D01*
X019283Y014871D01*
X019304Y014916D01*
X019329Y014960D01*
X019357Y015001D01*
X019389Y015040D01*
X019423Y015077D01*
X019460Y015111D01*
X019500Y015141D01*
X019542Y015168D01*
X019586Y015192D01*
X019632Y015213D01*
X019679Y015229D01*
X019727Y015242D01*
X019777Y015251D01*
X019826Y015256D01*
X019877Y015257D01*
X019927Y015254D01*
X019976Y015247D01*
X020025Y015236D01*
X020073Y015221D01*
X020119Y015203D01*
X020164Y015181D01*
X020207Y015155D01*
X020248Y015126D01*
X020287Y015094D01*
X020323Y015059D01*
X020355Y015021D01*
X020385Y014981D01*
X020412Y014938D01*
X020435Y014894D01*
X020454Y014848D01*
X020470Y014800D01*
X020482Y014751D01*
X020490Y014702D01*
X020494Y014652D01*
X020494Y014602D01*
X020490Y014552D01*
X020482Y014503D01*
X020470Y014454D01*
X020454Y014406D01*
X020435Y014360D01*
X020412Y014316D01*
X020385Y014273D01*
X020355Y014233D01*
X020323Y014195D01*
X020287Y014160D01*
X020248Y014128D01*
X020207Y014099D01*
X020164Y014073D01*
X020119Y014051D01*
X020073Y014033D01*
X020025Y014018D01*
X019976Y014007D01*
X019927Y014000D01*
X019877Y013997D01*
X019826Y013998D01*
X019777Y014003D01*
X019727Y014012D01*
X019679Y014025D01*
X019632Y014041D01*
X019586Y014062D01*
X019542Y014086D01*
X019500Y014113D01*
X019460Y014143D01*
X019423Y014177D01*
X019389Y014214D01*
X019357Y014253D01*
X019329Y014294D01*
X019304Y014338D01*
X019283Y014383D01*
X019266Y014430D01*
X019252Y014478D01*
X019242Y014527D01*
X019236Y014577D01*
X019234Y014627D01*
X036950Y002816D02*
X036952Y002866D01*
X036958Y002916D01*
X036968Y002965D01*
X036982Y003013D01*
X036999Y003060D01*
X037020Y003105D01*
X037045Y003149D01*
X037073Y003190D01*
X037105Y003229D01*
X037139Y003266D01*
X037176Y003300D01*
X037216Y003330D01*
X037258Y003357D01*
X037302Y003381D01*
X037348Y003402D01*
X037395Y003418D01*
X037443Y003431D01*
X037493Y003440D01*
X037542Y003445D01*
X037593Y003446D01*
X037643Y003443D01*
X037692Y003436D01*
X037741Y003425D01*
X037789Y003410D01*
X037835Y003392D01*
X037880Y003370D01*
X037923Y003344D01*
X037964Y003315D01*
X038003Y003283D01*
X038039Y003248D01*
X038071Y003210D01*
X038101Y003170D01*
X038128Y003127D01*
X038151Y003083D01*
X038170Y003037D01*
X038186Y002989D01*
X038198Y002940D01*
X038206Y002891D01*
X038210Y002841D01*
X038210Y002791D01*
X038206Y002741D01*
X038198Y002692D01*
X038186Y002643D01*
X038170Y002595D01*
X038151Y002549D01*
X038128Y002505D01*
X038101Y002462D01*
X038071Y002422D01*
X038039Y002384D01*
X038003Y002349D01*
X037964Y002317D01*
X037923Y002288D01*
X037880Y002262D01*
X037835Y002240D01*
X037789Y002222D01*
X037741Y002207D01*
X037692Y002196D01*
X037643Y002189D01*
X037593Y002186D01*
X037542Y002187D01*
X037493Y002192D01*
X037443Y002201D01*
X037395Y002214D01*
X037348Y002230D01*
X037302Y002251D01*
X037258Y002275D01*
X037216Y002302D01*
X037176Y002332D01*
X037139Y002366D01*
X037105Y002403D01*
X037073Y002442D01*
X037045Y002483D01*
X037020Y002527D01*
X036999Y002572D01*
X036982Y002619D01*
X036968Y002667D01*
X036958Y002716D01*
X036952Y002766D01*
X036950Y002816D01*
X036950Y030375D02*
X036952Y030425D01*
X036958Y030475D01*
X036968Y030524D01*
X036982Y030572D01*
X036999Y030619D01*
X037020Y030664D01*
X037045Y030708D01*
X037073Y030749D01*
X037105Y030788D01*
X037139Y030825D01*
X037176Y030859D01*
X037216Y030889D01*
X037258Y030916D01*
X037302Y030940D01*
X037348Y030961D01*
X037395Y030977D01*
X037443Y030990D01*
X037493Y030999D01*
X037542Y031004D01*
X037593Y031005D01*
X037643Y031002D01*
X037692Y030995D01*
X037741Y030984D01*
X037789Y030969D01*
X037835Y030951D01*
X037880Y030929D01*
X037923Y030903D01*
X037964Y030874D01*
X038003Y030842D01*
X038039Y030807D01*
X038071Y030769D01*
X038101Y030729D01*
X038128Y030686D01*
X038151Y030642D01*
X038170Y030596D01*
X038186Y030548D01*
X038198Y030499D01*
X038206Y030450D01*
X038210Y030400D01*
X038210Y030350D01*
X038206Y030300D01*
X038198Y030251D01*
X038186Y030202D01*
X038170Y030154D01*
X038151Y030108D01*
X038128Y030064D01*
X038101Y030021D01*
X038071Y029981D01*
X038039Y029943D01*
X038003Y029908D01*
X037964Y029876D01*
X037923Y029847D01*
X037880Y029821D01*
X037835Y029799D01*
X037789Y029781D01*
X037741Y029766D01*
X037692Y029755D01*
X037643Y029748D01*
X037593Y029745D01*
X037542Y029746D01*
X037493Y029751D01*
X037443Y029760D01*
X037395Y029773D01*
X037348Y029789D01*
X037302Y029810D01*
X037258Y029834D01*
X037216Y029861D01*
X037176Y029891D01*
X037139Y029925D01*
X037105Y029962D01*
X037073Y030001D01*
X037045Y030042D01*
X037020Y030086D01*
X036999Y030131D01*
X036982Y030178D01*
X036968Y030226D01*
X036958Y030275D01*
X036952Y030325D01*
X036950Y030375D01*
X001517Y030375D02*
X001519Y030425D01*
X001525Y030475D01*
X001535Y030524D01*
X001549Y030572D01*
X001566Y030619D01*
X001587Y030664D01*
X001612Y030708D01*
X001640Y030749D01*
X001672Y030788D01*
X001706Y030825D01*
X001743Y030859D01*
X001783Y030889D01*
X001825Y030916D01*
X001869Y030940D01*
X001915Y030961D01*
X001962Y030977D01*
X002010Y030990D01*
X002060Y030999D01*
X002109Y031004D01*
X002160Y031005D01*
X002210Y031002D01*
X002259Y030995D01*
X002308Y030984D01*
X002356Y030969D01*
X002402Y030951D01*
X002447Y030929D01*
X002490Y030903D01*
X002531Y030874D01*
X002570Y030842D01*
X002606Y030807D01*
X002638Y030769D01*
X002668Y030729D01*
X002695Y030686D01*
X002718Y030642D01*
X002737Y030596D01*
X002753Y030548D01*
X002765Y030499D01*
X002773Y030450D01*
X002777Y030400D01*
X002777Y030350D01*
X002773Y030300D01*
X002765Y030251D01*
X002753Y030202D01*
X002737Y030154D01*
X002718Y030108D01*
X002695Y030064D01*
X002668Y030021D01*
X002638Y029981D01*
X002606Y029943D01*
X002570Y029908D01*
X002531Y029876D01*
X002490Y029847D01*
X002447Y029821D01*
X002402Y029799D01*
X002356Y029781D01*
X002308Y029766D01*
X002259Y029755D01*
X002210Y029748D01*
X002160Y029745D01*
X002109Y029746D01*
X002060Y029751D01*
X002010Y029760D01*
X001962Y029773D01*
X001915Y029789D01*
X001869Y029810D01*
X001825Y029834D01*
X001783Y029861D01*
X001743Y029891D01*
X001706Y029925D01*
X001672Y029962D01*
X001640Y030001D01*
X001612Y030042D01*
X001587Y030086D01*
X001566Y030131D01*
X001549Y030178D01*
X001535Y030226D01*
X001525Y030275D01*
X001519Y030325D01*
X001517Y030375D01*
D11*
X003328Y025946D03*
X003328Y025355D03*
X029116Y007245D03*
X029116Y006654D03*
X025376Y003091D03*
X025376Y002540D03*
X005191Y002831D03*
X005191Y003383D03*
D12*
X022292Y002367D02*
X022594Y002367D01*
X022594Y001395D01*
X022292Y001395D01*
X022292Y002367D01*
X022292Y001524D02*
X022594Y001524D01*
X022594Y001653D02*
X022292Y001653D01*
X022292Y001782D02*
X022594Y001782D01*
X022594Y001911D02*
X022292Y001911D01*
X022292Y002040D02*
X022594Y002040D01*
X022594Y002169D02*
X022292Y002169D01*
X022292Y002298D02*
X022594Y002298D01*
X022594Y006077D02*
X022292Y006077D01*
X022594Y006077D02*
X022594Y005735D01*
X022292Y005735D01*
X022292Y006077D01*
X022292Y005864D02*
X022594Y005864D01*
X022594Y005993D02*
X022292Y005993D01*
D13*
X017202Y001966D02*
X016816Y001966D01*
X017202Y001966D02*
X017202Y001382D01*
X016816Y001382D01*
X016816Y001966D01*
X016816Y001546D02*
X017202Y001546D01*
X017202Y001710D02*
X016816Y001710D01*
X016816Y001874D02*
X017202Y001874D01*
D14*
X022274Y003575D02*
X022612Y003575D01*
X022612Y003355D01*
X022274Y003355D01*
X022274Y003575D01*
X022274Y003448D02*
X022612Y003448D01*
X022612Y003541D02*
X022274Y003541D01*
D15*
X022086Y007981D02*
X021932Y007981D01*
X022086Y007981D02*
X022086Y007533D01*
X021932Y007533D01*
X021932Y007981D01*
X021932Y007634D02*
X022086Y007634D01*
X022086Y007735D02*
X021932Y007735D01*
X021932Y007836D02*
X022086Y007836D01*
X022086Y007937D02*
X021932Y007937D01*
X021712Y007981D02*
X021558Y007981D01*
X021712Y007981D02*
X021712Y007533D01*
X021558Y007533D01*
X021558Y007981D01*
X021558Y007634D02*
X021712Y007634D01*
X021712Y007735D02*
X021558Y007735D01*
X021558Y007836D02*
X021712Y007836D01*
X021712Y007937D02*
X021558Y007937D01*
X021279Y007981D02*
X021125Y007981D01*
X021279Y007981D02*
X021279Y007533D01*
X021125Y007533D01*
X021125Y007981D01*
X021125Y007634D02*
X021279Y007634D01*
X021279Y007735D02*
X021125Y007735D01*
X021125Y007836D02*
X021279Y007836D01*
X021279Y007937D02*
X021125Y007937D01*
X020846Y007981D02*
X020692Y007981D01*
X020846Y007981D02*
X020846Y007533D01*
X020692Y007533D01*
X020692Y007981D01*
X020692Y007634D02*
X020846Y007634D01*
X020846Y007735D02*
X020692Y007735D01*
X020692Y007836D02*
X020846Y007836D01*
X020846Y007937D02*
X020692Y007937D01*
X020413Y007981D02*
X020259Y007981D01*
X020413Y007981D02*
X020413Y007533D01*
X020259Y007533D01*
X020259Y007981D01*
X020259Y007634D02*
X020413Y007634D01*
X020413Y007735D02*
X020259Y007735D01*
X020259Y007836D02*
X020413Y007836D01*
X020413Y007937D02*
X020259Y007937D01*
X019980Y007981D02*
X019826Y007981D01*
X019980Y007981D02*
X019980Y007533D01*
X019826Y007533D01*
X019826Y007981D01*
X019826Y007634D02*
X019980Y007634D01*
X019980Y007735D02*
X019826Y007735D01*
X019826Y007836D02*
X019980Y007836D01*
X019980Y007937D02*
X019826Y007937D01*
X019547Y007981D02*
X019393Y007981D01*
X019547Y007981D02*
X019547Y007533D01*
X019393Y007533D01*
X019393Y007981D01*
X019393Y007634D02*
X019547Y007634D01*
X019547Y007735D02*
X019393Y007735D01*
X019393Y007836D02*
X019547Y007836D01*
X019547Y007937D02*
X019393Y007937D01*
X019114Y007981D02*
X018960Y007981D01*
X019114Y007981D02*
X019114Y007533D01*
X018960Y007533D01*
X018960Y007981D01*
X018960Y007634D02*
X019114Y007634D01*
X019114Y007735D02*
X018960Y007735D01*
X018960Y007836D02*
X019114Y007836D01*
X019114Y007937D02*
X018960Y007937D01*
X018681Y007981D02*
X018527Y007981D01*
X018681Y007981D02*
X018681Y007533D01*
X018527Y007533D01*
X018527Y007981D01*
X018527Y007634D02*
X018681Y007634D01*
X018681Y007735D02*
X018527Y007735D01*
X018527Y007836D02*
X018681Y007836D01*
X018681Y007937D02*
X018527Y007937D01*
D16*
X018132Y007973D02*
X017856Y007973D01*
X018132Y007973D02*
X018132Y007541D01*
X017856Y007541D01*
X017856Y007973D01*
X017856Y007658D02*
X018132Y007658D01*
X018132Y007775D02*
X017856Y007775D01*
X017856Y007892D02*
X018132Y007892D01*
D17*
X005927Y022932D03*
X005927Y023432D03*
X005927Y023932D03*
X005927Y024432D03*
X003880Y024432D03*
X003880Y023932D03*
X003880Y023432D03*
X003880Y022932D03*
D18*
X035730Y005572D03*
X036281Y005572D03*
M02*
