G75*
%MOIN*%
%OFA0B0*%
%FSLAX24Y24*%
%IPPOS*%
%LPD*%
%AMOC8*
5,1,8,0,0,1.08239X$1,22.5*
%
%ADD10C,0.0000*%
%ADD11C,0.0050*%
%ADD12C,0.0039*%
%ADD13C,0.0118*%
%ADD14C,0.0020*%
%ADD15C,0.0070*%
%ADD16C,0.0040*%
%ADD17C,0.0060*%
%ADD18C,0.0080*%
%ADD19C,0.0030*%
%ADD20C,0.0063*%
D10*
X000179Y000847D02*
X000179Y032343D01*
X039549Y032343D01*
X039549Y000847D01*
X000179Y000847D01*
X001517Y002816D02*
X001519Y002866D01*
X001525Y002916D01*
X001535Y002965D01*
X001549Y003013D01*
X001566Y003060D01*
X001587Y003105D01*
X001612Y003149D01*
X001640Y003190D01*
X001672Y003229D01*
X001706Y003266D01*
X001743Y003300D01*
X001783Y003330D01*
X001825Y003357D01*
X001869Y003381D01*
X001915Y003402D01*
X001962Y003418D01*
X002010Y003431D01*
X002060Y003440D01*
X002109Y003445D01*
X002160Y003446D01*
X002210Y003443D01*
X002259Y003436D01*
X002308Y003425D01*
X002356Y003410D01*
X002402Y003392D01*
X002447Y003370D01*
X002490Y003344D01*
X002531Y003315D01*
X002570Y003283D01*
X002606Y003248D01*
X002638Y003210D01*
X002668Y003170D01*
X002695Y003127D01*
X002718Y003083D01*
X002737Y003037D01*
X002753Y002989D01*
X002765Y002940D01*
X002773Y002891D01*
X002777Y002841D01*
X002777Y002791D01*
X002773Y002741D01*
X002765Y002692D01*
X002753Y002643D01*
X002737Y002595D01*
X002718Y002549D01*
X002695Y002505D01*
X002668Y002462D01*
X002638Y002422D01*
X002606Y002384D01*
X002570Y002349D01*
X002531Y002317D01*
X002490Y002288D01*
X002447Y002262D01*
X002402Y002240D01*
X002356Y002222D01*
X002308Y002207D01*
X002259Y002196D01*
X002210Y002189D01*
X002160Y002186D01*
X002109Y002187D01*
X002060Y002192D01*
X002010Y002201D01*
X001962Y002214D01*
X001915Y002230D01*
X001869Y002251D01*
X001825Y002275D01*
X001783Y002302D01*
X001743Y002332D01*
X001706Y002366D01*
X001672Y002403D01*
X001640Y002442D01*
X001612Y002483D01*
X001587Y002527D01*
X001566Y002572D01*
X001549Y002619D01*
X001535Y002667D01*
X001525Y002716D01*
X001519Y002766D01*
X001517Y002816D01*
X019234Y014627D02*
X019236Y014677D01*
X019242Y014727D01*
X019252Y014776D01*
X019266Y014824D01*
X019283Y014871D01*
X019304Y014916D01*
X019329Y014960D01*
X019357Y015001D01*
X019389Y015040D01*
X019423Y015077D01*
X019460Y015111D01*
X019500Y015141D01*
X019542Y015168D01*
X019586Y015192D01*
X019632Y015213D01*
X019679Y015229D01*
X019727Y015242D01*
X019777Y015251D01*
X019826Y015256D01*
X019877Y015257D01*
X019927Y015254D01*
X019976Y015247D01*
X020025Y015236D01*
X020073Y015221D01*
X020119Y015203D01*
X020164Y015181D01*
X020207Y015155D01*
X020248Y015126D01*
X020287Y015094D01*
X020323Y015059D01*
X020355Y015021D01*
X020385Y014981D01*
X020412Y014938D01*
X020435Y014894D01*
X020454Y014848D01*
X020470Y014800D01*
X020482Y014751D01*
X020490Y014702D01*
X020494Y014652D01*
X020494Y014602D01*
X020490Y014552D01*
X020482Y014503D01*
X020470Y014454D01*
X020454Y014406D01*
X020435Y014360D01*
X020412Y014316D01*
X020385Y014273D01*
X020355Y014233D01*
X020323Y014195D01*
X020287Y014160D01*
X020248Y014128D01*
X020207Y014099D01*
X020164Y014073D01*
X020119Y014051D01*
X020073Y014033D01*
X020025Y014018D01*
X019976Y014007D01*
X019927Y014000D01*
X019877Y013997D01*
X019826Y013998D01*
X019777Y014003D01*
X019727Y014012D01*
X019679Y014025D01*
X019632Y014041D01*
X019586Y014062D01*
X019542Y014086D01*
X019500Y014113D01*
X019460Y014143D01*
X019423Y014177D01*
X019389Y014214D01*
X019357Y014253D01*
X019329Y014294D01*
X019304Y014338D01*
X019283Y014383D01*
X019266Y014430D01*
X019252Y014478D01*
X019242Y014527D01*
X019236Y014577D01*
X019234Y014627D01*
X036950Y002816D02*
X036952Y002866D01*
X036958Y002916D01*
X036968Y002965D01*
X036982Y003013D01*
X036999Y003060D01*
X037020Y003105D01*
X037045Y003149D01*
X037073Y003190D01*
X037105Y003229D01*
X037139Y003266D01*
X037176Y003300D01*
X037216Y003330D01*
X037258Y003357D01*
X037302Y003381D01*
X037348Y003402D01*
X037395Y003418D01*
X037443Y003431D01*
X037493Y003440D01*
X037542Y003445D01*
X037593Y003446D01*
X037643Y003443D01*
X037692Y003436D01*
X037741Y003425D01*
X037789Y003410D01*
X037835Y003392D01*
X037880Y003370D01*
X037923Y003344D01*
X037964Y003315D01*
X038003Y003283D01*
X038039Y003248D01*
X038071Y003210D01*
X038101Y003170D01*
X038128Y003127D01*
X038151Y003083D01*
X038170Y003037D01*
X038186Y002989D01*
X038198Y002940D01*
X038206Y002891D01*
X038210Y002841D01*
X038210Y002791D01*
X038206Y002741D01*
X038198Y002692D01*
X038186Y002643D01*
X038170Y002595D01*
X038151Y002549D01*
X038128Y002505D01*
X038101Y002462D01*
X038071Y002422D01*
X038039Y002384D01*
X038003Y002349D01*
X037964Y002317D01*
X037923Y002288D01*
X037880Y002262D01*
X037835Y002240D01*
X037789Y002222D01*
X037741Y002207D01*
X037692Y002196D01*
X037643Y002189D01*
X037593Y002186D01*
X037542Y002187D01*
X037493Y002192D01*
X037443Y002201D01*
X037395Y002214D01*
X037348Y002230D01*
X037302Y002251D01*
X037258Y002275D01*
X037216Y002302D01*
X037176Y002332D01*
X037139Y002366D01*
X037105Y002403D01*
X037073Y002442D01*
X037045Y002483D01*
X037020Y002527D01*
X036999Y002572D01*
X036982Y002619D01*
X036968Y002667D01*
X036958Y002716D01*
X036952Y002766D01*
X036950Y002816D01*
X036950Y030375D02*
X036952Y030425D01*
X036958Y030475D01*
X036968Y030524D01*
X036982Y030572D01*
X036999Y030619D01*
X037020Y030664D01*
X037045Y030708D01*
X037073Y030749D01*
X037105Y030788D01*
X037139Y030825D01*
X037176Y030859D01*
X037216Y030889D01*
X037258Y030916D01*
X037302Y030940D01*
X037348Y030961D01*
X037395Y030977D01*
X037443Y030990D01*
X037493Y030999D01*
X037542Y031004D01*
X037593Y031005D01*
X037643Y031002D01*
X037692Y030995D01*
X037741Y030984D01*
X037789Y030969D01*
X037835Y030951D01*
X037880Y030929D01*
X037923Y030903D01*
X037964Y030874D01*
X038003Y030842D01*
X038039Y030807D01*
X038071Y030769D01*
X038101Y030729D01*
X038128Y030686D01*
X038151Y030642D01*
X038170Y030596D01*
X038186Y030548D01*
X038198Y030499D01*
X038206Y030450D01*
X038210Y030400D01*
X038210Y030350D01*
X038206Y030300D01*
X038198Y030251D01*
X038186Y030202D01*
X038170Y030154D01*
X038151Y030108D01*
X038128Y030064D01*
X038101Y030021D01*
X038071Y029981D01*
X038039Y029943D01*
X038003Y029908D01*
X037964Y029876D01*
X037923Y029847D01*
X037880Y029821D01*
X037835Y029799D01*
X037789Y029781D01*
X037741Y029766D01*
X037692Y029755D01*
X037643Y029748D01*
X037593Y029745D01*
X037542Y029746D01*
X037493Y029751D01*
X037443Y029760D01*
X037395Y029773D01*
X037348Y029789D01*
X037302Y029810D01*
X037258Y029834D01*
X037216Y029861D01*
X037176Y029891D01*
X037139Y029925D01*
X037105Y029962D01*
X037073Y030001D01*
X037045Y030042D01*
X037020Y030086D01*
X036999Y030131D01*
X036982Y030178D01*
X036968Y030226D01*
X036958Y030275D01*
X036952Y030325D01*
X036950Y030375D01*
X001517Y030375D02*
X001519Y030425D01*
X001525Y030475D01*
X001535Y030524D01*
X001549Y030572D01*
X001566Y030619D01*
X001587Y030664D01*
X001612Y030708D01*
X001640Y030749D01*
X001672Y030788D01*
X001706Y030825D01*
X001743Y030859D01*
X001783Y030889D01*
X001825Y030916D01*
X001869Y030940D01*
X001915Y030961D01*
X001962Y030977D01*
X002010Y030990D01*
X002060Y030999D01*
X002109Y031004D01*
X002160Y031005D01*
X002210Y031002D01*
X002259Y030995D01*
X002308Y030984D01*
X002356Y030969D01*
X002402Y030951D01*
X002447Y030929D01*
X002490Y030903D01*
X002531Y030874D01*
X002570Y030842D01*
X002606Y030807D01*
X002638Y030769D01*
X002668Y030729D01*
X002695Y030686D01*
X002718Y030642D01*
X002737Y030596D01*
X002753Y030548D01*
X002765Y030499D01*
X002773Y030450D01*
X002777Y030400D01*
X002777Y030350D01*
X002773Y030300D01*
X002765Y030251D01*
X002753Y030202D01*
X002737Y030154D01*
X002718Y030108D01*
X002695Y030064D01*
X002668Y030021D01*
X002638Y029981D01*
X002606Y029943D01*
X002570Y029908D01*
X002531Y029876D01*
X002490Y029847D01*
X002447Y029821D01*
X002402Y029799D01*
X002356Y029781D01*
X002308Y029766D01*
X002259Y029755D01*
X002210Y029748D01*
X002160Y029745D01*
X002109Y029746D01*
X002060Y029751D01*
X002010Y029760D01*
X001962Y029773D01*
X001915Y029789D01*
X001869Y029810D01*
X001825Y029834D01*
X001783Y029861D01*
X001743Y029891D01*
X001706Y029925D01*
X001672Y029962D01*
X001640Y030001D01*
X001612Y030042D01*
X001587Y030086D01*
X001566Y030131D01*
X001549Y030178D01*
X001535Y030226D01*
X001525Y030275D01*
X001519Y030325D01*
X001517Y030375D01*
D11*
X002305Y026162D02*
X002307Y026174D01*
X002312Y026185D01*
X002321Y026194D01*
X002332Y026199D01*
X002344Y026201D01*
X002356Y026199D01*
X002367Y026194D01*
X002376Y026185D01*
X002381Y026174D01*
X002383Y026162D01*
X002381Y026150D01*
X002376Y026139D01*
X002367Y026130D01*
X002356Y026125D01*
X002344Y026123D01*
X002332Y026125D01*
X002321Y026130D01*
X002312Y026139D01*
X002307Y026150D01*
X002305Y026162D01*
X000791Y021776D02*
X000791Y020026D01*
X000841Y020026D01*
X000841Y019526D01*
X000791Y019526D01*
X000791Y018576D01*
X001191Y018576D01*
X001291Y018576D01*
X001291Y021276D01*
X003791Y021276D01*
X003791Y014276D01*
X001291Y014276D01*
X001291Y015976D01*
X001291Y016576D01*
X001291Y016976D01*
X001191Y016976D01*
X000791Y016976D01*
X000791Y018576D01*
X001291Y018576D02*
X001591Y018576D01*
X001591Y016976D01*
X001291Y016976D01*
X001416Y017281D02*
X001416Y017581D01*
X001416Y017431D02*
X000966Y017431D01*
X001116Y017281D01*
X000791Y016976D02*
X000791Y016926D01*
X000991Y016776D01*
X000991Y016576D01*
X000991Y015976D01*
X001191Y015976D01*
X001291Y015976D01*
X000991Y015976D02*
X000991Y015776D01*
X000791Y015626D01*
X000791Y013776D01*
X004291Y013776D01*
X004291Y014276D01*
X004391Y014276D01*
X004391Y014776D01*
X004291Y014776D01*
X004291Y017526D01*
X004391Y017526D01*
X004391Y018026D01*
X004291Y018026D01*
X004291Y020776D01*
X004391Y020776D01*
X004391Y021276D01*
X004291Y021276D01*
X004291Y021776D01*
X000791Y021776D01*
X001816Y020491D02*
X002266Y020491D01*
X002266Y020341D02*
X002266Y020641D01*
X001966Y020341D02*
X001816Y020491D01*
X002816Y020416D02*
X002891Y020341D01*
X002816Y020416D02*
X002816Y020566D01*
X002891Y020641D01*
X002966Y020641D01*
X003266Y020341D01*
X003266Y020641D01*
X006303Y020026D02*
X006303Y021776D01*
X009803Y021776D01*
X009803Y021276D01*
X009903Y021276D01*
X009903Y020776D01*
X009803Y020776D01*
X009803Y018026D01*
X009903Y018026D01*
X009903Y017526D01*
X009803Y017526D01*
X009803Y014776D01*
X009903Y014776D01*
X009903Y014276D01*
X009803Y014276D01*
X009803Y013776D01*
X006303Y013776D01*
X006303Y015626D01*
X006503Y015776D01*
X006503Y015976D01*
X006503Y016576D01*
X006503Y016776D01*
X006303Y016926D01*
X006303Y016976D01*
X006703Y016976D01*
X006803Y016976D01*
X006803Y016576D01*
X006803Y015976D01*
X006703Y015976D01*
X006503Y015976D01*
X006803Y015976D02*
X006803Y014276D01*
X009303Y014276D01*
X009303Y021276D01*
X006803Y021276D01*
X006803Y018576D01*
X006703Y018576D01*
X006303Y018576D01*
X006303Y019526D01*
X006353Y019526D01*
X006353Y020026D01*
X006303Y020026D01*
X007327Y020491D02*
X007478Y020341D01*
X007327Y020491D02*
X007778Y020491D01*
X007778Y020341D02*
X007778Y020641D01*
X008327Y020566D02*
X008327Y020416D01*
X008402Y020341D01*
X008327Y020566D02*
X008402Y020641D01*
X008478Y020641D01*
X008778Y020341D01*
X008778Y020641D01*
X007103Y018576D02*
X006803Y018576D01*
X007103Y018576D02*
X007103Y016976D01*
X006803Y016976D01*
X006928Y017281D02*
X006928Y017581D01*
X006928Y017431D02*
X006477Y017431D01*
X006628Y017281D01*
X006303Y016976D02*
X006303Y018576D01*
X006552Y018041D02*
X006853Y017741D01*
X006928Y017816D01*
X006928Y017966D01*
X006853Y018041D01*
X006552Y018041D01*
X006477Y017966D01*
X006477Y017816D01*
X006552Y017741D01*
X006853Y017741D01*
X006803Y016576D02*
X006703Y016576D01*
X006503Y016576D01*
X001291Y016576D02*
X001191Y016576D01*
X000991Y016576D01*
X001041Y017741D02*
X000966Y017816D01*
X000966Y017966D01*
X001041Y018041D01*
X001341Y017741D01*
X001416Y017816D01*
X001416Y017966D01*
X001341Y018041D01*
X001041Y018041D01*
X001041Y017741D02*
X001341Y017741D01*
X002305Y011595D02*
X002307Y011607D01*
X002312Y011618D01*
X002321Y011627D01*
X002332Y011632D01*
X002344Y011634D01*
X002356Y011632D01*
X002367Y011627D01*
X002376Y011618D01*
X002381Y011607D01*
X002383Y011595D01*
X002381Y011583D01*
X002376Y011572D01*
X002367Y011563D01*
X002356Y011558D01*
X002344Y011556D01*
X002332Y011558D01*
X002321Y011563D01*
X002312Y011572D01*
X002307Y011583D01*
X002305Y011595D01*
X005258Y011595D02*
X005260Y011607D01*
X005265Y011618D01*
X005274Y011627D01*
X005285Y011632D01*
X005297Y011634D01*
X005309Y011632D01*
X005320Y011627D01*
X005329Y011618D01*
X005334Y011607D01*
X005336Y011595D01*
X005334Y011583D01*
X005329Y011572D01*
X005320Y011563D01*
X005309Y011558D01*
X005297Y011556D01*
X005285Y011558D01*
X005274Y011563D01*
X005265Y011572D01*
X005260Y011583D01*
X005258Y011595D01*
X008211Y011595D02*
X008213Y011607D01*
X008218Y011618D01*
X008227Y011627D01*
X008238Y011632D01*
X008250Y011634D01*
X008262Y011632D01*
X008273Y011627D01*
X008282Y011618D01*
X008287Y011607D01*
X008289Y011595D01*
X008287Y011583D01*
X008282Y011572D01*
X008273Y011563D01*
X008262Y011558D01*
X008250Y011556D01*
X008238Y011558D01*
X008227Y011563D01*
X008218Y011572D01*
X008213Y011583D01*
X008211Y011595D01*
X010175Y007450D02*
X004175Y007450D01*
X004175Y006450D01*
X010175Y006450D01*
X010175Y007450D01*
X009765Y005059D02*
X009265Y005059D01*
X009265Y004959D01*
X007515Y004959D01*
X007515Y005059D01*
X007015Y005059D01*
X007015Y004959D01*
X005265Y004959D01*
X005265Y005059D01*
X004765Y005059D01*
X004765Y004959D01*
X004265Y004959D01*
X004265Y001459D01*
X005765Y001459D01*
X005765Y001509D01*
X006265Y001509D01*
X006265Y001459D01*
X006465Y001459D01*
X006465Y001859D01*
X006465Y001959D01*
X004765Y001959D01*
X004765Y004459D01*
X009765Y004459D01*
X009765Y001959D01*
X008065Y001959D01*
X008065Y001859D01*
X008065Y001459D01*
X006465Y001459D01*
X007140Y001710D02*
X007215Y001634D01*
X007366Y001634D01*
X007441Y001710D01*
X007441Y001785D01*
X007366Y001860D01*
X007140Y001860D01*
X007140Y001710D01*
X007140Y001860D02*
X007290Y002010D01*
X007441Y002085D01*
X008065Y001959D02*
X008065Y002259D01*
X006465Y002259D01*
X006465Y001959D01*
X005591Y002484D02*
X005290Y002484D01*
X005440Y002484D02*
X005440Y002935D01*
X005290Y002785D01*
X005290Y003484D02*
X005591Y003785D01*
X005591Y003860D01*
X005516Y003935D01*
X005365Y003935D01*
X005290Y003860D01*
X005290Y003484D02*
X005591Y003484D01*
X008065Y001459D02*
X010265Y001459D01*
X010265Y004959D01*
X009765Y004959D01*
X009765Y005059D01*
X011006Y001044D02*
X011006Y022698D01*
X028722Y022698D01*
X028722Y001044D01*
X011006Y001044D01*
X015364Y000871D02*
X015364Y003371D01*
X017364Y003371D01*
X017364Y000871D01*
X015364Y000871D01*
X022364Y000871D02*
X022364Y003371D01*
X024364Y003371D01*
X024364Y000871D01*
X022364Y000871D01*
X029964Y004972D02*
X029964Y007236D01*
X032893Y007236D01*
X032893Y004972D01*
X029964Y004972D01*
X030240Y005248D02*
X030240Y006397D01*
X032618Y006397D01*
X032618Y005248D01*
X030240Y005248D01*
X030240Y006397D02*
X030240Y006960D01*
X032618Y006960D01*
X032618Y006397D01*
X032630Y003368D02*
X030307Y003368D01*
X030307Y002502D01*
X030543Y002502D01*
X030543Y002147D01*
X030307Y002147D01*
X030307Y001596D01*
X031311Y001596D01*
X031311Y001832D01*
X030543Y001832D01*
X030543Y002147D01*
X030307Y002147D02*
X030307Y002502D01*
X030543Y002502D02*
X030543Y003131D01*
X032394Y003131D01*
X032394Y002502D01*
X032630Y002502D01*
X032630Y002147D01*
X032394Y002147D01*
X032394Y001832D01*
X031626Y001832D01*
X031626Y001596D01*
X032630Y001596D01*
X032630Y002147D01*
X032394Y002147D02*
X032394Y002502D01*
X032630Y002502D02*
X032630Y003368D01*
X033738Y003063D02*
X035510Y003063D01*
X035510Y001685D01*
X033738Y001685D01*
X033738Y003063D01*
X031626Y001596D02*
X031311Y001596D01*
X035760Y009435D02*
X035669Y009525D01*
X035760Y009435D02*
X035940Y009435D01*
X036030Y009525D01*
X036030Y009616D01*
X035940Y009706D01*
X035850Y009706D01*
X035940Y009706D02*
X036030Y009796D01*
X036030Y009886D01*
X035940Y009976D01*
X035760Y009976D01*
X035669Y009886D01*
X036213Y009525D02*
X036303Y009525D01*
X036303Y009435D01*
X036213Y009435D01*
X036213Y009525D01*
X036485Y009525D02*
X036575Y009435D01*
X036756Y009435D01*
X036846Y009525D01*
X036846Y009616D01*
X036756Y009706D01*
X036665Y009706D01*
X036756Y009706D02*
X036846Y009796D01*
X036846Y009886D01*
X036756Y009976D01*
X036575Y009976D01*
X036485Y009886D01*
X037029Y009976D02*
X037029Y009616D01*
X037209Y009435D01*
X037390Y009616D01*
X037390Y009976D01*
X038437Y010914D02*
X035937Y010914D01*
X035937Y019914D01*
X038437Y019914D01*
X038437Y018214D01*
X038437Y017614D01*
X038437Y016214D01*
X038537Y016214D01*
X038937Y016214D01*
X038937Y014614D01*
X038937Y012714D01*
X038887Y012714D01*
X038887Y012114D01*
X038937Y012114D01*
X038937Y010414D01*
X035437Y010414D01*
X035437Y010914D01*
X035337Y010914D01*
X035337Y011414D01*
X035437Y011414D01*
X035437Y015164D01*
X035337Y015164D01*
X035337Y015664D01*
X035437Y015664D01*
X035437Y019414D01*
X035337Y019414D01*
X035337Y019914D01*
X035437Y019914D01*
X035437Y020414D01*
X038937Y020414D01*
X038937Y018564D01*
X038737Y018414D01*
X038737Y018214D01*
X038737Y017614D01*
X038737Y017414D01*
X038937Y017264D01*
X038937Y016214D01*
X038437Y016214D02*
X038137Y016214D01*
X038137Y014614D01*
X038437Y014614D01*
X038537Y014614D01*
X038937Y014614D01*
X038437Y014614D02*
X038437Y010914D01*
X037912Y011439D02*
X037912Y011739D01*
X037912Y011589D02*
X037461Y011589D01*
X037611Y011439D01*
X036912Y011439D02*
X036611Y011739D01*
X036536Y011739D01*
X036461Y011664D01*
X036461Y011514D01*
X036536Y011439D01*
X036912Y011439D02*
X036912Y011739D01*
X035083Y013569D02*
X035264Y013930D01*
X034903Y013930D02*
X035083Y013569D01*
X034720Y013659D02*
X034630Y013569D01*
X034449Y013569D01*
X034359Y013659D01*
X034720Y014020D01*
X034720Y013659D01*
X034359Y013659D02*
X034359Y014020D01*
X034449Y014110D01*
X034630Y014110D01*
X034720Y014020D01*
X034177Y013659D02*
X034177Y013569D01*
X034087Y013569D01*
X034087Y013659D01*
X034177Y013659D01*
X033904Y013569D02*
X033544Y013569D01*
X033724Y013569D02*
X033724Y014110D01*
X033544Y013930D01*
X032817Y013840D02*
X032817Y013749D01*
X032456Y013749D01*
X032456Y013659D02*
X032456Y013840D01*
X032546Y013930D01*
X032727Y013930D01*
X032817Y013840D01*
X032727Y013569D02*
X032546Y013569D01*
X032456Y013659D01*
X032274Y013569D02*
X032184Y013659D01*
X032184Y014020D01*
X032093Y013930D02*
X032274Y013930D01*
X031821Y013930D02*
X031821Y013569D01*
X031731Y013569D02*
X031911Y013569D01*
X031549Y013569D02*
X031459Y013659D01*
X031459Y014020D01*
X031368Y013930D02*
X031549Y013930D01*
X031731Y013930D02*
X031821Y013930D01*
X031821Y014110D02*
X031821Y014200D01*
X031866Y014553D02*
X031595Y014553D01*
X031412Y014553D02*
X031141Y014553D01*
X031051Y014644D01*
X031051Y014824D01*
X031141Y014914D01*
X031412Y014914D01*
X031412Y015094D02*
X031412Y014553D01*
X031595Y014824D02*
X031685Y014914D01*
X031956Y014914D01*
X031866Y014734D02*
X031685Y014734D01*
X031595Y014824D01*
X031866Y014734D02*
X031956Y014644D01*
X031866Y014553D01*
X032139Y014553D02*
X032139Y015094D01*
X032409Y014914D02*
X032139Y014734D01*
X032409Y014553D01*
X032592Y014644D02*
X032682Y014553D01*
X032953Y014553D01*
X032953Y014463D02*
X032862Y014373D01*
X032772Y014373D01*
X032953Y014463D02*
X032953Y014914D01*
X032592Y014914D02*
X032592Y014644D01*
X032727Y015538D02*
X032637Y015628D01*
X032727Y015538D02*
X032908Y015538D01*
X032998Y015628D01*
X032998Y015808D01*
X032908Y015898D01*
X032818Y015898D01*
X032637Y015808D01*
X032637Y016079D01*
X032998Y016079D01*
X033181Y016079D02*
X033181Y015538D01*
X033542Y015538D01*
X033725Y015538D02*
X033725Y016079D01*
X033995Y016079D01*
X034085Y015988D01*
X034085Y015808D01*
X033995Y015718D01*
X033725Y015718D01*
X031910Y015628D02*
X031820Y015538D01*
X031640Y015538D01*
X031550Y015628D01*
X031550Y015988D01*
X031640Y016079D01*
X031820Y016079D01*
X031910Y015988D01*
X031367Y015808D02*
X031276Y015898D01*
X031096Y015898D01*
X031006Y015808D01*
X031006Y015628D01*
X031096Y015538D01*
X031276Y015538D01*
X031367Y015628D01*
X031367Y015808D01*
X030823Y015718D02*
X030823Y015628D01*
X030733Y015538D01*
X030552Y015538D01*
X030462Y015628D01*
X030552Y015808D02*
X030733Y015808D01*
X030823Y015718D01*
X030823Y015988D02*
X030733Y016079D01*
X030552Y016079D01*
X030462Y015988D01*
X030462Y015898D01*
X030552Y015808D01*
X030279Y015808D02*
X030189Y015718D01*
X029918Y015718D01*
X029918Y015538D02*
X029918Y016079D01*
X030189Y016079D01*
X030279Y015988D01*
X030279Y015808D01*
X029101Y014110D02*
X028740Y014110D01*
X028921Y014110D02*
X028921Y013569D01*
X029284Y013569D02*
X029284Y013930D01*
X029464Y013930D02*
X029284Y013749D01*
X029464Y013930D02*
X029555Y013930D01*
X029737Y013840D02*
X029737Y013659D01*
X029827Y013569D01*
X030008Y013569D01*
X030098Y013659D01*
X030098Y013840D01*
X030008Y013930D01*
X029827Y013930D01*
X029737Y013840D01*
X030281Y013840D02*
X030281Y013659D01*
X030371Y013569D01*
X030551Y013569D01*
X030642Y013659D01*
X030642Y013840D01*
X030551Y013930D01*
X030371Y013930D01*
X030281Y013840D01*
X030825Y013840D02*
X030915Y013930D01*
X031185Y013930D01*
X031095Y013749D02*
X030915Y013749D01*
X030825Y013840D01*
X030825Y013569D02*
X031095Y013569D01*
X031185Y013659D01*
X031095Y013749D01*
X031155Y011945D02*
X030974Y011945D01*
X030884Y011855D01*
X030884Y011494D01*
X030974Y011404D01*
X031155Y011404D01*
X031245Y011494D01*
X031245Y011674D01*
X031064Y011674D01*
X031245Y011855D02*
X031155Y011945D01*
X031428Y011945D02*
X031789Y011404D01*
X031789Y011945D01*
X031972Y011945D02*
X031972Y011404D01*
X032242Y011404D01*
X032332Y011494D01*
X032332Y011855D01*
X032242Y011945D01*
X031972Y011945D01*
X031428Y011945D02*
X031428Y011404D01*
X038311Y015189D02*
X038762Y015189D01*
X038762Y015039D02*
X038762Y015339D01*
X038536Y015500D02*
X038536Y015800D01*
X038311Y015725D02*
X038536Y015500D01*
X038762Y015725D02*
X038311Y015725D01*
X038311Y015189D02*
X038461Y015039D01*
X038437Y017614D02*
X038537Y017614D01*
X038737Y017614D01*
X038737Y018214D02*
X038537Y018214D01*
X038437Y018214D01*
X038937Y021863D02*
X035437Y021863D01*
X035437Y022363D01*
X035337Y022363D01*
X035337Y022863D01*
X035437Y022863D01*
X035437Y024613D01*
X035337Y024613D01*
X035337Y025113D01*
X035437Y025113D01*
X035437Y026863D01*
X035337Y026863D01*
X035337Y027363D01*
X035437Y027363D01*
X035437Y027863D01*
X038937Y027863D01*
X038937Y025663D01*
X038537Y025663D01*
X038437Y025663D01*
X038437Y027363D01*
X035937Y027363D01*
X035937Y022363D01*
X038437Y022363D01*
X038437Y024063D01*
X038537Y024063D01*
X038937Y024063D01*
X038937Y023863D01*
X038887Y023863D01*
X038887Y023363D01*
X038937Y023363D01*
X038937Y021863D01*
X037912Y022888D02*
X037912Y023188D01*
X037912Y023038D02*
X037461Y023038D01*
X037611Y022888D01*
X036912Y022888D02*
X036611Y023188D01*
X036536Y023188D01*
X036461Y023113D01*
X036461Y022963D01*
X036536Y022888D01*
X036912Y022888D02*
X036912Y023188D01*
X038137Y024063D02*
X038437Y024063D01*
X038137Y024063D02*
X038137Y025663D01*
X038437Y025663D01*
X038937Y025663D02*
X038937Y024063D01*
X038687Y024738D02*
X038536Y024738D01*
X038536Y024963D01*
X038611Y025038D01*
X038687Y025038D01*
X038762Y024963D01*
X038762Y024813D01*
X038687Y024738D01*
X038536Y024738D02*
X038386Y024888D01*
X038311Y025038D01*
X033171Y025788D02*
X033171Y023524D01*
X026242Y023524D01*
X026242Y025788D01*
X033171Y025788D01*
X032895Y025513D02*
X032895Y024363D01*
X026517Y024363D01*
X026517Y025513D01*
X032895Y025513D01*
X032895Y024363D02*
X032895Y023800D01*
X026517Y023800D01*
X026517Y024363D01*
X026383Y025650D02*
X026385Y025664D01*
X026391Y025678D01*
X026399Y025690D01*
X026411Y025698D01*
X026425Y025704D01*
X026439Y025706D01*
X026453Y025704D01*
X026467Y025698D01*
X026479Y025690D01*
X026487Y025678D01*
X026493Y025664D01*
X026495Y025650D01*
X026493Y025636D01*
X026487Y025622D01*
X026479Y025610D01*
X026467Y025602D01*
X026453Y025596D01*
X026439Y025594D01*
X026425Y025596D01*
X026411Y025602D01*
X026399Y025610D01*
X026391Y025622D01*
X026385Y025636D01*
X026383Y025650D01*
X027364Y027107D02*
X027364Y027973D01*
X027600Y027973D01*
X027600Y028328D01*
X027364Y028328D01*
X027364Y028879D01*
X028545Y028879D01*
X028545Y028643D01*
X027600Y028643D01*
X027600Y028328D01*
X027364Y028328D02*
X027364Y027973D01*
X027600Y027973D02*
X027600Y027343D01*
X032600Y027343D01*
X032600Y027973D01*
X032836Y027973D01*
X032836Y028328D01*
X032600Y028328D01*
X032600Y028643D01*
X031655Y028643D01*
X031655Y028879D01*
X028545Y028879D01*
X027541Y028761D02*
X027543Y028773D01*
X027548Y028784D01*
X027557Y028793D01*
X027568Y028798D01*
X027580Y028800D01*
X027592Y028798D01*
X027603Y028793D01*
X027612Y028784D01*
X027617Y028773D01*
X027619Y028761D01*
X027617Y028749D01*
X027612Y028738D01*
X027603Y028729D01*
X027592Y028724D01*
X027580Y028722D01*
X027568Y028724D01*
X027557Y028729D01*
X027548Y028738D01*
X027543Y028749D01*
X027541Y028761D01*
X028427Y030099D02*
X028427Y031477D01*
X032561Y031477D01*
X032561Y030099D01*
X028427Y030099D01*
X028509Y031359D02*
X028511Y031373D01*
X028517Y031387D01*
X028525Y031399D01*
X028537Y031407D01*
X028551Y031413D01*
X028565Y031415D01*
X028579Y031413D01*
X028593Y031407D01*
X028605Y031399D01*
X028613Y031387D01*
X028619Y031373D01*
X028621Y031359D01*
X028619Y031345D01*
X028613Y031331D01*
X028605Y031319D01*
X028593Y031311D01*
X028579Y031305D01*
X028565Y031303D01*
X028551Y031305D01*
X028537Y031311D01*
X028525Y031319D01*
X028517Y031331D01*
X028511Y031345D01*
X028509Y031359D01*
X031655Y028879D02*
X032836Y028879D01*
X032836Y028328D01*
X032600Y028328D02*
X032600Y027973D01*
X032836Y027973D02*
X032836Y027107D01*
X027364Y027107D01*
X022935Y025788D02*
X022935Y023524D01*
X016006Y023524D01*
X016006Y025788D01*
X022935Y025788D01*
X022659Y025513D02*
X022659Y024363D01*
X016281Y024363D01*
X016281Y025513D01*
X022659Y025513D01*
X022659Y024363D02*
X022659Y023800D01*
X016281Y023800D01*
X016281Y024363D01*
X016146Y025650D02*
X016148Y025664D01*
X016154Y025678D01*
X016162Y025690D01*
X016174Y025698D01*
X016188Y025704D01*
X016202Y025706D01*
X016216Y025704D01*
X016230Y025698D01*
X016242Y025690D01*
X016250Y025678D01*
X016256Y025664D01*
X016258Y025650D01*
X016256Y025636D01*
X016250Y025622D01*
X016242Y025610D01*
X016230Y025602D01*
X016216Y025596D01*
X016202Y025594D01*
X016188Y025596D01*
X016174Y025602D01*
X016162Y025610D01*
X016154Y025622D01*
X016148Y025636D01*
X016146Y025650D01*
X016340Y027107D02*
X016340Y027973D01*
X016576Y027973D01*
X016576Y028328D01*
X016340Y028328D01*
X016340Y028879D01*
X017521Y028879D01*
X017521Y028643D01*
X016576Y028643D01*
X016576Y028328D01*
X016340Y028328D02*
X016340Y027973D01*
X016576Y027973D02*
X016576Y027343D01*
X021576Y027343D01*
X021576Y027973D01*
X021813Y027973D01*
X021813Y028328D01*
X021576Y028328D01*
X021576Y028643D01*
X020631Y028643D01*
X020631Y028879D01*
X017521Y028879D01*
X016518Y028761D02*
X016520Y028773D01*
X016525Y028784D01*
X016534Y028793D01*
X016545Y028798D01*
X016557Y028800D01*
X016569Y028798D01*
X016580Y028793D01*
X016589Y028784D01*
X016594Y028773D01*
X016596Y028761D01*
X016594Y028749D01*
X016589Y028738D01*
X016580Y028729D01*
X016569Y028724D01*
X016557Y028722D01*
X016545Y028724D01*
X016534Y028729D01*
X016525Y028738D01*
X016520Y028749D01*
X016518Y028761D01*
X016616Y030099D02*
X016616Y031477D01*
X020750Y031477D01*
X020750Y030099D01*
X016616Y030099D01*
X016698Y031359D02*
X016700Y031373D01*
X016706Y031387D01*
X016714Y031399D01*
X016726Y031407D01*
X016740Y031413D01*
X016754Y031415D01*
X016768Y031413D01*
X016782Y031407D01*
X016794Y031399D01*
X016802Y031387D01*
X016808Y031373D01*
X016810Y031359D01*
X016808Y031345D01*
X016802Y031331D01*
X016794Y031319D01*
X016782Y031311D01*
X016768Y031305D01*
X016754Y031303D01*
X016740Y031305D01*
X016726Y031311D01*
X016714Y031319D01*
X016706Y031331D01*
X016700Y031345D01*
X016698Y031359D01*
X020631Y028879D02*
X021813Y028879D01*
X021813Y028328D01*
X021576Y028328D02*
X021576Y027973D01*
X021813Y027973D02*
X021813Y027107D01*
X016340Y027107D01*
X009559Y030681D02*
X009259Y030681D01*
X009409Y030681D02*
X009409Y031132D01*
X009259Y030982D01*
X009099Y031132D02*
X009099Y030681D01*
X008798Y030681D02*
X008798Y031132D01*
X008949Y030982D01*
X009099Y031132D01*
X017502Y021320D02*
X022226Y021320D01*
X022226Y019942D01*
X022226Y017973D02*
X022226Y016595D01*
X017502Y016595D01*
X017502Y017973D01*
X017502Y019942D02*
X017502Y021320D01*
X023250Y031359D02*
X023252Y031371D01*
X023257Y031382D01*
X023266Y031391D01*
X023277Y031396D01*
X023289Y031398D01*
X023301Y031396D01*
X023312Y031391D01*
X023321Y031382D01*
X023326Y031371D01*
X023328Y031359D01*
X023326Y031347D01*
X023321Y031336D01*
X023312Y031327D01*
X023301Y031322D01*
X023289Y031320D01*
X023277Y031322D01*
X023266Y031327D01*
X023257Y031336D01*
X023252Y031347D01*
X023250Y031359D01*
D12*
X023151Y031477D02*
X026025Y031477D01*
X026025Y030099D01*
X023151Y030099D01*
X023151Y031477D01*
X002462Y026300D02*
X002462Y023426D01*
X001084Y023426D01*
X001084Y026300D01*
X002462Y026300D01*
X002462Y011733D02*
X001084Y011733D01*
X001084Y008859D01*
X002462Y008859D01*
X002462Y011733D01*
X004037Y011733D02*
X005415Y011733D01*
X005415Y008859D01*
X004037Y008859D01*
X004037Y011733D01*
X006990Y011733D02*
X008368Y011733D01*
X008368Y008859D01*
X006990Y008859D01*
X006990Y011733D01*
X029509Y010887D02*
X029509Y010296D01*
X029706Y010060D01*
X033643Y010060D01*
X033840Y010296D01*
X033840Y010887D01*
X033643Y011083D01*
X029706Y011083D01*
X029509Y010887D01*
X029706Y008957D02*
X033643Y008957D01*
X033840Y008721D01*
X033840Y008524D01*
X033840Y008131D01*
X033643Y007934D01*
X029706Y007934D01*
X029509Y008131D01*
X029509Y008721D01*
X029706Y008957D01*
D13*
X033840Y008524D02*
X034037Y008524D01*
X035218Y009706D01*
X035415Y009706D01*
D14*
X035837Y010814D02*
X038537Y010814D01*
X038537Y014614D01*
X038537Y016214D02*
X038537Y017614D01*
X038537Y018214D02*
X038537Y020014D01*
X035837Y020014D01*
X035837Y010814D01*
X035837Y022263D02*
X038537Y022263D01*
X038537Y024063D01*
X038537Y025663D02*
X038537Y027463D01*
X035837Y027463D01*
X035837Y022263D01*
X009865Y004559D02*
X009865Y001859D01*
X008065Y001859D01*
X006465Y001859D02*
X004665Y001859D01*
X004665Y004559D01*
X009865Y004559D01*
X009403Y014176D02*
X006703Y014176D01*
X006703Y015976D01*
X006703Y016576D02*
X006703Y016976D01*
X006703Y018576D02*
X006703Y021376D01*
X009403Y021376D01*
X009403Y014176D01*
X003891Y014176D02*
X003891Y021376D01*
X001191Y021376D01*
X001191Y018576D01*
X001191Y016976D02*
X001191Y016576D01*
X001191Y015976D02*
X001191Y014176D01*
X003891Y014176D01*
D15*
X004680Y019878D02*
X004786Y019878D01*
X004891Y019983D01*
X004891Y020193D01*
X004996Y020298D01*
X005101Y020298D01*
X005206Y020193D01*
X005206Y019983D01*
X005101Y019878D01*
X004680Y019878D02*
X004575Y019983D01*
X004575Y020193D01*
X004680Y020298D01*
X004575Y020522D02*
X004996Y020522D01*
X005206Y020732D01*
X004996Y020943D01*
X004575Y020943D01*
X004680Y021167D02*
X004575Y021272D01*
X004575Y021482D01*
X004680Y021587D01*
X004786Y021587D01*
X005206Y021167D01*
X005206Y021587D01*
X010087Y021377D02*
X010718Y021377D01*
X010718Y021167D02*
X010718Y021587D01*
X010297Y021167D02*
X010087Y021377D01*
X010087Y020943D02*
X010508Y020943D01*
X010718Y020732D01*
X010508Y020522D01*
X010087Y020522D01*
X010192Y020298D02*
X010087Y020193D01*
X010087Y019983D01*
X010192Y019878D01*
X010297Y019878D01*
X010402Y019983D01*
X010402Y020193D01*
X010508Y020298D01*
X010613Y020298D01*
X010718Y020193D01*
X010718Y019983D01*
X010613Y019878D01*
X005905Y005875D02*
X006010Y005770D01*
X006010Y005665D01*
X005905Y005560D01*
X006010Y005455D01*
X006010Y005350D01*
X005905Y005244D01*
X005695Y005244D01*
X005589Y005350D01*
X005365Y005455D02*
X005365Y005875D01*
X005589Y005770D02*
X005695Y005875D01*
X005905Y005875D01*
X005905Y005560D02*
X005800Y005560D01*
X005365Y005455D02*
X005155Y005244D01*
X004945Y005455D01*
X004945Y005875D01*
X004721Y005770D02*
X004616Y005875D01*
X004405Y005875D01*
X004300Y005770D01*
X004300Y005665D01*
X004405Y005560D01*
X004616Y005560D01*
X004721Y005455D01*
X004721Y005350D01*
X004616Y005244D01*
X004405Y005244D01*
X004300Y005350D01*
X034521Y010554D02*
X034626Y010449D01*
X034731Y010449D01*
X034836Y010554D01*
X034836Y010764D01*
X034941Y010870D01*
X035047Y010870D01*
X035152Y010764D01*
X035152Y010554D01*
X035047Y010449D01*
X034521Y010554D02*
X034521Y010764D01*
X034626Y010870D01*
X034521Y011094D02*
X034941Y011094D01*
X035152Y011304D01*
X034941Y011514D01*
X034521Y011514D01*
X034521Y011738D02*
X034836Y011738D01*
X034731Y011948D01*
X034731Y012054D01*
X034836Y012159D01*
X035047Y012159D01*
X035152Y012054D01*
X035152Y011843D01*
X035047Y011738D01*
X034521Y011738D02*
X034521Y012159D01*
X034626Y021898D02*
X034731Y021898D01*
X034836Y022003D01*
X034836Y022213D01*
X034941Y022318D01*
X035047Y022318D01*
X035152Y022213D01*
X035152Y022003D01*
X035047Y021898D01*
X034626Y021898D02*
X034521Y022003D01*
X034521Y022213D01*
X034626Y022318D01*
X034521Y022543D02*
X034941Y022543D01*
X035152Y022753D01*
X034941Y022963D01*
X034521Y022963D01*
X034836Y023187D02*
X034836Y023607D01*
X034521Y023502D02*
X034836Y023187D01*
X034521Y023502D02*
X035152Y023502D01*
D16*
X033037Y023310D02*
X032961Y023387D01*
X032807Y023387D01*
X032730Y023310D01*
X032730Y023003D01*
X032807Y022926D01*
X032961Y022926D01*
X033037Y023003D01*
X032577Y022926D02*
X032270Y022926D01*
X032577Y023233D01*
X032577Y023310D01*
X032500Y023387D01*
X032347Y023387D01*
X032270Y023310D01*
X032117Y023387D02*
X032117Y022926D01*
X031810Y023387D01*
X031810Y022926D01*
X031656Y023003D02*
X031579Y022926D01*
X031426Y022926D01*
X031349Y023003D01*
X031349Y023310D01*
X031426Y023387D01*
X031579Y023387D01*
X031656Y023310D01*
X031802Y026548D02*
X031802Y027009D01*
X031955Y026932D02*
X032032Y027009D01*
X032185Y027009D01*
X032262Y026932D01*
X032262Y026855D01*
X031955Y026548D01*
X032262Y026548D01*
X032416Y026548D02*
X032646Y026548D01*
X032722Y026625D01*
X032722Y026702D01*
X032646Y026779D01*
X032416Y026779D01*
X032416Y027009D02*
X032416Y026548D01*
X032646Y026779D02*
X032722Y026855D01*
X032722Y026932D01*
X032646Y027009D01*
X032416Y027009D01*
X031802Y026548D02*
X031495Y027009D01*
X031495Y026548D01*
X031341Y026625D02*
X031265Y026548D01*
X031111Y026548D01*
X031034Y026625D01*
X031034Y026932D01*
X031111Y027009D01*
X031265Y027009D01*
X031341Y026932D01*
X031219Y029501D02*
X031219Y029961D01*
X031526Y029501D01*
X031526Y029961D01*
X031680Y029885D02*
X031756Y029961D01*
X031910Y029961D01*
X031986Y029885D01*
X031986Y029808D01*
X031680Y029501D01*
X031986Y029501D01*
X032140Y029501D02*
X032140Y029808D01*
X032293Y029961D01*
X032447Y029808D01*
X032447Y029501D01*
X032447Y029731D02*
X032140Y029731D01*
X031066Y029578D02*
X030989Y029501D01*
X030835Y029501D01*
X030759Y029578D01*
X030759Y029885D01*
X030835Y029961D01*
X030989Y029961D01*
X031066Y029885D01*
X028171Y029477D02*
X028171Y029017D01*
X028171Y029247D02*
X027864Y029247D01*
X027710Y029247D02*
X027710Y029401D01*
X027634Y029477D01*
X027403Y029477D01*
X027403Y029017D01*
X027403Y029170D02*
X027634Y029170D01*
X027710Y029247D01*
X027864Y029017D02*
X027864Y029477D01*
X025911Y029578D02*
X025911Y029885D01*
X025835Y029961D01*
X025681Y029961D01*
X025604Y029885D01*
X025604Y029808D01*
X025681Y029731D01*
X025911Y029731D01*
X025911Y029578D02*
X025835Y029501D01*
X025681Y029501D01*
X025604Y029578D01*
X025451Y029501D02*
X025144Y029961D01*
X025451Y029961D02*
X025144Y029501D01*
X026262Y026406D02*
X026569Y025946D01*
X026722Y025946D02*
X026722Y026406D01*
X026569Y026406D02*
X026262Y025946D01*
X026722Y026176D02*
X027029Y026176D01*
X027029Y026406D02*
X027029Y025946D01*
X022801Y023310D02*
X022724Y023387D01*
X022571Y023387D01*
X022494Y023310D01*
X022494Y023003D01*
X022571Y022926D01*
X022724Y022926D01*
X022801Y023003D01*
X022341Y022926D02*
X022034Y022926D01*
X022187Y022926D02*
X022187Y023387D01*
X022034Y023233D01*
X021880Y023387D02*
X021880Y022926D01*
X021573Y023387D01*
X021573Y022926D01*
X021420Y023003D02*
X021343Y022926D01*
X021190Y022926D01*
X021113Y023003D01*
X021113Y023310D01*
X021190Y023387D01*
X021343Y023387D01*
X021420Y023310D01*
X021392Y026548D02*
X021622Y026548D01*
X021699Y026625D01*
X021699Y026702D01*
X021622Y026779D01*
X021392Y026779D01*
X021392Y027009D02*
X021392Y026548D01*
X021238Y026548D02*
X020931Y026548D01*
X020778Y026548D02*
X020778Y027009D01*
X020931Y026855D02*
X021085Y027009D01*
X021085Y026548D01*
X020778Y026548D02*
X020471Y027009D01*
X020471Y026548D01*
X020318Y026625D02*
X020241Y026548D01*
X020087Y026548D01*
X020011Y026625D01*
X020011Y026932D01*
X020087Y027009D01*
X020241Y027009D01*
X020318Y026932D01*
X021392Y027009D02*
X021622Y027009D01*
X021699Y026932D01*
X021699Y026855D01*
X021622Y026779D01*
X020636Y029501D02*
X020636Y029808D01*
X020482Y029961D01*
X020329Y029808D01*
X020329Y029501D01*
X020175Y029501D02*
X019869Y029501D01*
X020022Y029501D02*
X020022Y029961D01*
X019869Y029808D01*
X019715Y029961D02*
X019715Y029501D01*
X019408Y029961D01*
X019408Y029501D01*
X019255Y029578D02*
X019178Y029501D01*
X019024Y029501D01*
X018948Y029578D01*
X018948Y029885D01*
X019024Y029961D01*
X019178Y029961D01*
X019255Y029885D01*
X020329Y029731D02*
X020636Y029731D01*
X017147Y029477D02*
X017147Y029017D01*
X017147Y029247D02*
X016840Y029247D01*
X016687Y029247D02*
X016610Y029170D01*
X016380Y029170D01*
X016380Y029017D02*
X016380Y029477D01*
X016610Y029477D01*
X016687Y029401D01*
X016687Y029247D01*
X016840Y029017D02*
X016840Y029477D01*
X016793Y026406D02*
X016793Y025946D01*
X016793Y026176D02*
X016486Y026176D01*
X016486Y025946D02*
X016486Y026406D01*
X016332Y026406D02*
X016026Y025946D01*
X016332Y025946D02*
X016026Y026406D01*
X000946Y024117D02*
X000486Y024117D01*
X000716Y023887D01*
X000716Y024194D01*
X000946Y023733D02*
X000486Y023426D01*
X000486Y023733D02*
X000946Y023426D01*
X000946Y009627D02*
X000946Y009320D01*
X000946Y009473D02*
X000486Y009473D01*
X000639Y009320D01*
X000486Y009166D02*
X000946Y008859D01*
X000946Y009166D02*
X000486Y008859D01*
X003439Y008859D02*
X003899Y009166D01*
X003899Y009320D02*
X003592Y009627D01*
X003515Y009627D01*
X003439Y009550D01*
X003439Y009396D01*
X003515Y009320D01*
X003439Y009166D02*
X003899Y008859D01*
X003899Y009320D02*
X003899Y009627D01*
X006391Y009550D02*
X006391Y009396D01*
X006468Y009320D01*
X006391Y009166D02*
X006852Y008859D01*
X006852Y009166D02*
X006391Y008859D01*
X006775Y009320D02*
X006852Y009396D01*
X006852Y009550D01*
X006775Y009627D01*
X006698Y009627D01*
X006621Y009550D01*
X006621Y009473D01*
X006621Y009550D02*
X006545Y009627D01*
X006468Y009627D01*
X006391Y009550D01*
X029988Y007799D02*
X030295Y007339D01*
X030449Y007339D02*
X030449Y007799D01*
X030295Y007799D02*
X029988Y007339D01*
X030449Y007569D02*
X030755Y007569D01*
X030909Y007722D02*
X030986Y007799D01*
X031139Y007799D01*
X031216Y007722D01*
X031216Y007645D01*
X030909Y007339D01*
X031216Y007339D01*
X030755Y007339D02*
X030755Y007799D01*
X030768Y003927D02*
X030768Y003466D01*
X030768Y003697D02*
X031075Y003697D01*
X031228Y003850D02*
X031305Y003927D01*
X031458Y003927D01*
X031535Y003850D01*
X031535Y003773D01*
X031228Y003466D01*
X031535Y003466D01*
X031075Y003466D02*
X031075Y003927D01*
X030614Y003850D02*
X030614Y003697D01*
X030538Y003620D01*
X030307Y003620D01*
X030307Y003466D02*
X030307Y003927D01*
X030538Y003927D01*
X030614Y003850D01*
X033758Y003623D02*
X034065Y003623D01*
X034065Y003546D01*
X033758Y003239D01*
X033758Y003162D01*
X034065Y003162D01*
X034219Y003162D02*
X034219Y003623D01*
X034219Y003392D02*
X034526Y003392D01*
X034679Y003546D02*
X034756Y003623D01*
X034909Y003623D01*
X034986Y003546D01*
X034986Y003469D01*
X034679Y003162D01*
X034986Y003162D01*
X034526Y003162D02*
X034526Y003623D01*
X037101Y004474D02*
X037177Y004397D01*
X037254Y004397D01*
X037331Y004474D01*
X037331Y004857D01*
X037407Y004857D02*
X037254Y004857D01*
X037561Y004704D02*
X037714Y004857D01*
X037714Y004397D01*
X037561Y004397D02*
X037868Y004397D01*
D17*
X014234Y023906D02*
X009634Y023906D01*
X009632Y023945D01*
X009626Y023984D01*
X009617Y024022D01*
X009604Y024059D01*
X009587Y024095D01*
X009567Y024128D01*
X009543Y024160D01*
X009517Y024189D01*
X009488Y024215D01*
X009456Y024239D01*
X009423Y024259D01*
X009387Y024276D01*
X009350Y024289D01*
X009312Y024298D01*
X009273Y024304D01*
X009234Y024306D01*
X009195Y024304D01*
X009156Y024298D01*
X009118Y024289D01*
X009081Y024276D01*
X009045Y024259D01*
X009012Y024239D01*
X008980Y024215D01*
X008951Y024189D01*
X008925Y024160D01*
X008901Y024128D01*
X008881Y024095D01*
X008864Y024059D01*
X008851Y024022D01*
X008842Y023984D01*
X008836Y023945D01*
X008834Y023906D01*
X004234Y023906D01*
X004234Y031906D01*
X013234Y031906D01*
X014234Y031906D01*
X014234Y023906D01*
D18*
X012383Y025076D02*
X012383Y025666D01*
X011793Y025863D01*
X011793Y029288D01*
X011793Y029288D01*
X011675Y029288D01*
X011655Y029290D01*
X011635Y029295D01*
X011616Y029304D01*
X011599Y029316D01*
X011585Y029330D01*
X011573Y029347D01*
X011564Y029366D01*
X011559Y029386D01*
X011557Y029406D01*
X006911Y029406D01*
X006909Y029386D01*
X006904Y029366D01*
X006895Y029347D01*
X006883Y029330D01*
X006869Y029316D01*
X006852Y029304D01*
X006833Y029295D01*
X006814Y029290D01*
X006793Y029288D01*
X006675Y029288D01*
X006675Y025863D01*
X006084Y025666D01*
X006084Y025076D01*
X006675Y024879D01*
X006675Y023934D01*
X011793Y023934D01*
X011793Y024879D01*
X012383Y025076D01*
X011793Y024879D02*
X011793Y025863D01*
X011202Y026257D02*
X010809Y028619D01*
X010415Y028619D01*
X010021Y026257D01*
X008446Y026257D02*
X008053Y028619D01*
X007659Y028619D01*
X007265Y026257D01*
X006675Y025863D02*
X006675Y024879D01*
X006675Y029288D02*
X006673Y029308D01*
X006668Y029328D01*
X006659Y029347D01*
X006647Y029364D01*
X006633Y029378D01*
X006616Y029390D01*
X006597Y029399D01*
X006577Y029404D01*
X006557Y029406D01*
X006478Y029406D01*
X011911Y029406D02*
X011990Y029406D01*
X011911Y029406D02*
X011891Y029404D01*
X011871Y029399D01*
X011852Y029390D01*
X011835Y029378D01*
X011821Y029364D01*
X011809Y029347D01*
X011800Y029328D01*
X011795Y029308D01*
X011793Y029288D01*
D19*
X023453Y029179D02*
X023453Y028815D01*
X023453Y028936D02*
X023635Y028936D01*
X023696Y028997D01*
X023696Y029118D01*
X023635Y029179D01*
X023453Y029179D01*
X023575Y028936D02*
X023696Y028815D01*
X023816Y028815D02*
X023816Y028876D01*
X024058Y029118D01*
X024058Y029179D01*
X023816Y029179D01*
X023635Y027998D02*
X023696Y027937D01*
X023696Y027816D01*
X023635Y027755D01*
X023453Y027755D01*
X023453Y027634D02*
X023453Y027998D01*
X023635Y027998D01*
X023575Y027755D02*
X023696Y027634D01*
X023816Y027695D02*
X023876Y027634D01*
X023998Y027634D01*
X024058Y027695D01*
X024058Y027755D01*
X023998Y027816D01*
X023816Y027816D01*
X023816Y027695D01*
X023816Y027816D02*
X023937Y027937D01*
X024058Y027998D01*
X031162Y022880D02*
X031162Y022516D01*
X031404Y022516D01*
X031524Y022516D02*
X031524Y022880D01*
X031767Y022880D01*
X031887Y022880D02*
X031887Y022516D01*
X032069Y022516D01*
X032129Y022576D01*
X032129Y022819D01*
X032069Y022880D01*
X031887Y022880D01*
X031645Y022698D02*
X031524Y022698D01*
X031524Y022516D02*
X031767Y022516D01*
X032249Y022516D02*
X032492Y022516D01*
X032371Y022516D02*
X032371Y022880D01*
X032249Y022758D01*
X032736Y022637D02*
X032918Y022637D01*
X032979Y022698D01*
X032979Y022819D01*
X032918Y022880D01*
X032736Y022880D01*
X032736Y022516D01*
X032858Y022637D02*
X032979Y022516D01*
X033099Y022455D02*
X033342Y022455D01*
X033461Y022516D02*
X033461Y022880D01*
X033461Y022516D02*
X033704Y022516D01*
X033824Y022516D02*
X034067Y022516D01*
X033945Y022516D02*
X033945Y022880D01*
X033824Y022758D01*
X033885Y021305D02*
X033824Y021244D01*
X033885Y021305D02*
X034006Y021305D01*
X034067Y021244D01*
X034067Y021184D01*
X033824Y020941D01*
X034067Y020941D01*
X033704Y020941D02*
X033461Y020941D01*
X033461Y021305D01*
X033342Y020880D02*
X033099Y020880D01*
X032979Y020941D02*
X032858Y021062D01*
X032918Y021062D02*
X032736Y021062D01*
X032736Y020941D02*
X032736Y021305D01*
X032918Y021305D01*
X032979Y021244D01*
X032979Y021123D01*
X032918Y021062D01*
X032492Y020941D02*
X032249Y020941D01*
X032492Y021184D01*
X032492Y021244D01*
X032431Y021305D01*
X032310Y021305D01*
X032249Y021244D01*
X032129Y021244D02*
X032129Y021002D01*
X032069Y020941D01*
X031887Y020941D01*
X031887Y021305D01*
X032069Y021305D01*
X032129Y021244D01*
X031767Y021305D02*
X031524Y021305D01*
X031524Y020941D01*
X031767Y020941D01*
X031645Y021123D02*
X031524Y021123D01*
X031404Y020941D02*
X031162Y020941D01*
X031162Y021305D01*
X031162Y019730D02*
X031162Y019366D01*
X031404Y019366D01*
X031524Y019366D02*
X031524Y019730D01*
X031767Y019730D01*
X031887Y019730D02*
X031887Y019366D01*
X032069Y019366D01*
X032129Y019427D01*
X032129Y019670D01*
X032069Y019730D01*
X031887Y019730D01*
X031645Y019548D02*
X031524Y019548D01*
X031524Y019366D02*
X031767Y019366D01*
X032249Y019427D02*
X032310Y019366D01*
X032431Y019366D01*
X032492Y019427D01*
X032492Y019488D01*
X032431Y019548D01*
X032371Y019548D01*
X032431Y019548D02*
X032492Y019609D01*
X032492Y019670D01*
X032431Y019730D01*
X032310Y019730D01*
X032249Y019670D01*
X032736Y019730D02*
X032736Y019366D01*
X032736Y019488D02*
X032918Y019488D01*
X032979Y019548D01*
X032979Y019670D01*
X032918Y019730D01*
X032736Y019730D01*
X032858Y019488D02*
X032979Y019366D01*
X033099Y019306D02*
X033342Y019306D01*
X033461Y019366D02*
X033461Y019730D01*
X033461Y019366D02*
X033704Y019366D01*
X033824Y019427D02*
X033885Y019366D01*
X034006Y019366D01*
X034067Y019427D01*
X034067Y019488D01*
X034006Y019548D01*
X033945Y019548D01*
X034006Y019548D02*
X034067Y019609D01*
X034067Y019670D01*
X034006Y019730D01*
X033885Y019730D01*
X033824Y019670D01*
X034006Y018155D02*
X033824Y017973D01*
X034067Y017973D01*
X034006Y017791D02*
X034006Y018155D01*
X033704Y017791D02*
X033461Y017791D01*
X033461Y018155D01*
X033342Y017731D02*
X033099Y017731D01*
X032979Y017791D02*
X032858Y017913D01*
X032918Y017913D02*
X032736Y017913D01*
X032736Y017791D02*
X032736Y018155D01*
X032918Y018155D01*
X032979Y018095D01*
X032979Y017973D01*
X032918Y017913D01*
X032492Y017973D02*
X032249Y017973D01*
X032431Y018155D01*
X032431Y017791D01*
X032129Y017852D02*
X032129Y018095D01*
X032069Y018155D01*
X031887Y018155D01*
X031887Y017791D01*
X032069Y017791D01*
X032129Y017852D01*
X031767Y017791D02*
X031524Y017791D01*
X031524Y018155D01*
X031767Y018155D01*
X031645Y017973D02*
X031524Y017973D01*
X031404Y017791D02*
X031162Y017791D01*
X031162Y018155D01*
X022605Y011674D02*
X022605Y011553D01*
X022544Y011492D01*
X022605Y011372D02*
X022483Y011251D01*
X022483Y011312D02*
X022483Y011130D01*
X022605Y011130D02*
X022241Y011130D01*
X022241Y011312D01*
X022301Y011372D01*
X022423Y011372D01*
X022483Y011312D01*
X022301Y011492D02*
X022241Y011553D01*
X022241Y011674D01*
X022301Y011735D01*
X022362Y011735D01*
X022423Y011674D01*
X022483Y011735D01*
X022544Y011735D01*
X022605Y011674D01*
X022423Y011674D02*
X022423Y011614D01*
X021030Y011735D02*
X021030Y011492D01*
X020787Y011735D01*
X020727Y011735D01*
X020666Y011674D01*
X020666Y011553D01*
X020727Y011492D01*
X020727Y011372D02*
X020848Y011372D01*
X020909Y011312D01*
X020909Y011130D01*
X021030Y011130D02*
X020666Y011130D01*
X020666Y011312D01*
X020727Y011372D01*
X020909Y011251D02*
X021030Y011372D01*
X019455Y011372D02*
X019334Y011251D01*
X019334Y011312D02*
X019334Y011130D01*
X019455Y011130D02*
X019091Y011130D01*
X019091Y011312D01*
X019152Y011372D01*
X019273Y011372D01*
X019334Y011312D01*
X019455Y011492D02*
X019455Y011735D01*
X019455Y011614D02*
X019091Y011614D01*
X019212Y011492D01*
X017329Y010178D02*
X017329Y010057D01*
X017268Y009996D01*
X017268Y009876D02*
X017329Y009816D01*
X017329Y009694D01*
X017268Y009634D01*
X017026Y009634D01*
X016965Y009694D01*
X016965Y009816D01*
X017026Y009876D01*
X016965Y009996D02*
X017147Y009996D01*
X017086Y010117D01*
X017086Y010178D01*
X017147Y010239D01*
X017268Y010239D01*
X017329Y010178D01*
X016965Y010239D02*
X016965Y009996D01*
X016517Y013421D02*
X016517Y013785D01*
X016335Y013603D01*
X016578Y013603D01*
X016216Y013482D02*
X016155Y013421D01*
X016034Y013421D01*
X015973Y013482D01*
X015973Y013725D01*
X016034Y013785D01*
X016155Y013785D01*
X016216Y013725D01*
X016124Y018185D02*
X016002Y018185D01*
X015942Y018246D01*
X015942Y018306D01*
X016002Y018367D01*
X016124Y018367D01*
X016184Y018306D01*
X016184Y018246D01*
X016124Y018185D01*
X016124Y018367D02*
X016184Y018428D01*
X016184Y018488D01*
X016124Y018549D01*
X016002Y018549D01*
X015942Y018488D01*
X015942Y018428D01*
X016002Y018367D01*
X015822Y018367D02*
X015761Y018306D01*
X015579Y018306D01*
X015579Y018185D02*
X015579Y018549D01*
X015761Y018549D01*
X015822Y018488D01*
X015822Y018367D01*
X015701Y018306D02*
X015822Y018185D01*
X024571Y010163D02*
X024753Y010163D01*
X024814Y010103D01*
X024814Y009981D01*
X024753Y009921D01*
X024571Y009921D01*
X024693Y009921D02*
X024814Y009799D01*
X024934Y009799D02*
X025176Y009799D01*
X025296Y009799D02*
X025539Y010042D01*
X025539Y010103D01*
X025478Y010163D01*
X025357Y010163D01*
X025296Y010103D01*
X025055Y010163D02*
X025055Y009799D01*
X025296Y009799D02*
X025539Y009799D01*
X025055Y010163D02*
X024934Y010042D01*
X024571Y010163D02*
X024571Y009799D01*
X024376Y008373D02*
X024376Y008130D01*
X024376Y008010D02*
X024376Y007768D01*
X024376Y007648D02*
X024255Y007526D01*
X024255Y007587D02*
X024255Y007405D01*
X024376Y007405D02*
X024012Y007405D01*
X024012Y007587D01*
X024073Y007648D01*
X024194Y007648D01*
X024255Y007587D01*
X024134Y007768D02*
X024012Y007889D01*
X024376Y007889D01*
X024134Y008130D02*
X024012Y008251D01*
X024376Y008251D01*
X002723Y005769D02*
X002723Y005647D01*
X002662Y005587D01*
X002541Y005587D02*
X002480Y005708D01*
X002480Y005769D01*
X002541Y005829D01*
X002662Y005829D01*
X002723Y005769D01*
X002541Y005587D02*
X002359Y005587D01*
X002359Y005829D01*
X002419Y005467D02*
X002359Y005406D01*
X002359Y005224D01*
X002723Y005224D01*
X002601Y005224D02*
X002601Y005406D01*
X002541Y005467D01*
X002419Y005467D01*
X002601Y005345D02*
X002723Y005467D01*
X001345Y005467D02*
X001224Y005345D01*
X001224Y005406D02*
X001224Y005224D01*
X001345Y005224D02*
X000981Y005224D01*
X000981Y005406D01*
X001041Y005467D01*
X001163Y005467D01*
X001224Y005406D01*
X001163Y005587D02*
X001163Y005829D01*
X001345Y005769D02*
X000981Y005769D01*
X001163Y005587D01*
D20*
X032423Y017186D02*
X032423Y017580D01*
X032423Y018761D02*
X032423Y019154D01*
X032423Y020335D02*
X032423Y020729D01*
X032423Y021910D02*
X032423Y022304D01*
M02*
