G75*
%MOIN*%
%OFA0B0*%
%FSLAX25Y25*%
%IPPOS*%
%LPD*%
%AMOC8*
5,1,8,0,0,1.08239X$1,22.5*
%
%ADD10R,0.05937X0.05937*%
%ADD11R,0.06737X0.06737*%
%ADD12R,0.06500X0.06500*%
%ADD13R,0.07300X0.07300*%
%ADD14C,0.06500*%
%ADD15C,0.07300*%
%ADD16OC8,0.05200*%
%ADD17OC8,0.06000*%
%ADD18R,0.04762X0.04762*%
D10*
X0087351Y0155186D03*
X0087351Y0165186D03*
X0087351Y0175186D03*
X0097351Y0175186D03*
X0097351Y0165186D03*
X0097351Y0155186D03*
D11*
X0097351Y0155186D03*
X0097351Y0165186D03*
X0097351Y0175186D03*
X0087351Y0175186D03*
X0087351Y0165186D03*
X0087351Y0155186D03*
D12*
X0100855Y0080107D03*
X0020855Y0080107D03*
D13*
X0020855Y0080107D03*
X0100855Y0080107D03*
D14*
X0100855Y0070107D03*
X0100855Y0060107D03*
X0100855Y0050107D03*
X0100855Y0040107D03*
X0100855Y0030107D03*
X0100855Y0020107D03*
X0100855Y0010107D03*
X0020855Y0010107D03*
X0020855Y0020107D03*
X0020855Y0030107D03*
X0020855Y0040107D03*
X0020855Y0050107D03*
X0020855Y0060107D03*
X0020855Y0070107D03*
D15*
X0020855Y0010107D03*
X0020855Y0020107D03*
X0020855Y0030107D03*
X0020855Y0040107D03*
X0020855Y0050107D03*
X0020855Y0060107D03*
X0020855Y0070107D03*
X0100855Y0070107D03*
X0100855Y0060107D03*
X0100855Y0050107D03*
X0100855Y0040107D03*
X0100855Y0030107D03*
X0100855Y0020107D03*
X0100855Y0010107D03*
D16*
X0100225Y0105973D03*
X0088414Y0105973D03*
X0088414Y0125973D03*
X0100225Y0125973D03*
X0068729Y0132469D03*
X0056918Y0132469D03*
X0056918Y0162469D03*
X0068729Y0162469D03*
D17*
X0068729Y0162469D03*
X0056918Y0162469D03*
X0056918Y0132469D03*
X0068729Y0132469D03*
X0088414Y0125973D03*
X0100225Y0125973D03*
X0100225Y0105973D03*
X0088414Y0105973D03*
D18*
X0068729Y0180934D03*
X0019517Y0131721D03*
X0013611Y0184871D03*
M02*
