%
M48
M72
T01C0.03150
T02C0.03543
%
T01
X19517Y131721
X56918Y132469
X68729Y132469
X68729Y162469
X56918Y162469
X68729Y180934
X13611Y184871
T02
X20855Y10107
X20855Y20107
X20855Y30107
X20855Y40107
X20855Y50107
X20855Y60107
X20855Y70107
X20855Y80107
X87351Y155186
X87351Y165186
X87351Y175186
X97351Y175186
X97351Y165186
X97351Y155186
X100225Y125973
X88414Y125973
X88414Y105973
X100225Y105973
X100855Y80107
X100855Y70107
X100855Y60107
X100855Y50107
X100855Y40107
X100855Y30107
X100855Y20107
X100855Y10107
M30
