G75*
%MOIN*%
%OFA0B0*%
%FSLAX25Y25*%
%IPPOS*%
%LPD*%
%AMOC8*
5,1,8,0,0,1.08239X$1,22.5*
%
%ADD10C,0.00000*%
%ADD11C,0.05937*%
%ADD12C,0.06496*%
%ADD13C,0.00984*%
%ADD14C,0.01000*%
D10*
X0001492Y0001492D02*
X0001492Y0119602D01*
X0099917Y0119602D01*
X0099917Y0001492D01*
X0001492Y0001492D01*
X0015271Y0021177D02*
X0015273Y0021330D01*
X0015279Y0021484D01*
X0015289Y0021637D01*
X0015303Y0021789D01*
X0015321Y0021942D01*
X0015343Y0022093D01*
X0015368Y0022244D01*
X0015398Y0022395D01*
X0015432Y0022545D01*
X0015469Y0022693D01*
X0015510Y0022841D01*
X0015555Y0022987D01*
X0015604Y0023133D01*
X0015657Y0023277D01*
X0015713Y0023419D01*
X0015773Y0023560D01*
X0015837Y0023700D01*
X0015904Y0023838D01*
X0015975Y0023974D01*
X0016050Y0024108D01*
X0016127Y0024240D01*
X0016209Y0024370D01*
X0016293Y0024498D01*
X0016381Y0024624D01*
X0016472Y0024747D01*
X0016566Y0024868D01*
X0016664Y0024986D01*
X0016764Y0025102D01*
X0016868Y0025215D01*
X0016974Y0025326D01*
X0017083Y0025434D01*
X0017195Y0025539D01*
X0017309Y0025640D01*
X0017427Y0025739D01*
X0017546Y0025835D01*
X0017668Y0025928D01*
X0017793Y0026017D01*
X0017920Y0026104D01*
X0018049Y0026186D01*
X0018180Y0026266D01*
X0018313Y0026342D01*
X0018448Y0026415D01*
X0018585Y0026484D01*
X0018724Y0026549D01*
X0018864Y0026611D01*
X0019006Y0026669D01*
X0019149Y0026724D01*
X0019294Y0026775D01*
X0019440Y0026822D01*
X0019587Y0026865D01*
X0019735Y0026904D01*
X0019884Y0026940D01*
X0020034Y0026971D01*
X0020185Y0026999D01*
X0020336Y0027023D01*
X0020489Y0027043D01*
X0020641Y0027059D01*
X0020794Y0027071D01*
X0020947Y0027079D01*
X0021100Y0027083D01*
X0021254Y0027083D01*
X0021407Y0027079D01*
X0021560Y0027071D01*
X0021713Y0027059D01*
X0021865Y0027043D01*
X0022018Y0027023D01*
X0022169Y0026999D01*
X0022320Y0026971D01*
X0022470Y0026940D01*
X0022619Y0026904D01*
X0022767Y0026865D01*
X0022914Y0026822D01*
X0023060Y0026775D01*
X0023205Y0026724D01*
X0023348Y0026669D01*
X0023490Y0026611D01*
X0023630Y0026549D01*
X0023769Y0026484D01*
X0023906Y0026415D01*
X0024041Y0026342D01*
X0024174Y0026266D01*
X0024305Y0026186D01*
X0024434Y0026104D01*
X0024561Y0026017D01*
X0024686Y0025928D01*
X0024808Y0025835D01*
X0024927Y0025739D01*
X0025045Y0025640D01*
X0025159Y0025539D01*
X0025271Y0025434D01*
X0025380Y0025326D01*
X0025486Y0025215D01*
X0025590Y0025102D01*
X0025690Y0024986D01*
X0025788Y0024868D01*
X0025882Y0024747D01*
X0025973Y0024624D01*
X0026061Y0024498D01*
X0026145Y0024370D01*
X0026227Y0024240D01*
X0026304Y0024108D01*
X0026379Y0023974D01*
X0026450Y0023838D01*
X0026517Y0023700D01*
X0026581Y0023560D01*
X0026641Y0023419D01*
X0026697Y0023277D01*
X0026750Y0023133D01*
X0026799Y0022987D01*
X0026844Y0022841D01*
X0026885Y0022693D01*
X0026922Y0022545D01*
X0026956Y0022395D01*
X0026986Y0022244D01*
X0027011Y0022093D01*
X0027033Y0021942D01*
X0027051Y0021789D01*
X0027065Y0021637D01*
X0027075Y0021484D01*
X0027081Y0021330D01*
X0027083Y0021177D01*
X0027081Y0021024D01*
X0027075Y0020870D01*
X0027065Y0020717D01*
X0027051Y0020565D01*
X0027033Y0020412D01*
X0027011Y0020261D01*
X0026986Y0020110D01*
X0026956Y0019959D01*
X0026922Y0019809D01*
X0026885Y0019661D01*
X0026844Y0019513D01*
X0026799Y0019367D01*
X0026750Y0019221D01*
X0026697Y0019077D01*
X0026641Y0018935D01*
X0026581Y0018794D01*
X0026517Y0018654D01*
X0026450Y0018516D01*
X0026379Y0018380D01*
X0026304Y0018246D01*
X0026227Y0018114D01*
X0026145Y0017984D01*
X0026061Y0017856D01*
X0025973Y0017730D01*
X0025882Y0017607D01*
X0025788Y0017486D01*
X0025690Y0017368D01*
X0025590Y0017252D01*
X0025486Y0017139D01*
X0025380Y0017028D01*
X0025271Y0016920D01*
X0025159Y0016815D01*
X0025045Y0016714D01*
X0024927Y0016615D01*
X0024808Y0016519D01*
X0024686Y0016426D01*
X0024561Y0016337D01*
X0024434Y0016250D01*
X0024305Y0016168D01*
X0024174Y0016088D01*
X0024041Y0016012D01*
X0023906Y0015939D01*
X0023769Y0015870D01*
X0023630Y0015805D01*
X0023490Y0015743D01*
X0023348Y0015685D01*
X0023205Y0015630D01*
X0023060Y0015579D01*
X0022914Y0015532D01*
X0022767Y0015489D01*
X0022619Y0015450D01*
X0022470Y0015414D01*
X0022320Y0015383D01*
X0022169Y0015355D01*
X0022018Y0015331D01*
X0021865Y0015311D01*
X0021713Y0015295D01*
X0021560Y0015283D01*
X0021407Y0015275D01*
X0021254Y0015271D01*
X0021100Y0015271D01*
X0020947Y0015275D01*
X0020794Y0015283D01*
X0020641Y0015295D01*
X0020489Y0015311D01*
X0020336Y0015331D01*
X0020185Y0015355D01*
X0020034Y0015383D01*
X0019884Y0015414D01*
X0019735Y0015450D01*
X0019587Y0015489D01*
X0019440Y0015532D01*
X0019294Y0015579D01*
X0019149Y0015630D01*
X0019006Y0015685D01*
X0018864Y0015743D01*
X0018724Y0015805D01*
X0018585Y0015870D01*
X0018448Y0015939D01*
X0018313Y0016012D01*
X0018180Y0016088D01*
X0018049Y0016168D01*
X0017920Y0016250D01*
X0017793Y0016337D01*
X0017668Y0016426D01*
X0017546Y0016519D01*
X0017427Y0016615D01*
X0017309Y0016714D01*
X0017195Y0016815D01*
X0017083Y0016920D01*
X0016974Y0017028D01*
X0016868Y0017139D01*
X0016764Y0017252D01*
X0016664Y0017368D01*
X0016566Y0017486D01*
X0016472Y0017607D01*
X0016381Y0017730D01*
X0016293Y0017856D01*
X0016209Y0017984D01*
X0016127Y0018114D01*
X0016050Y0018246D01*
X0015975Y0018380D01*
X0015904Y0018516D01*
X0015837Y0018654D01*
X0015773Y0018794D01*
X0015713Y0018935D01*
X0015657Y0019077D01*
X0015604Y0019221D01*
X0015555Y0019367D01*
X0015510Y0019513D01*
X0015469Y0019661D01*
X0015432Y0019809D01*
X0015398Y0019959D01*
X0015368Y0020110D01*
X0015343Y0020261D01*
X0015321Y0020412D01*
X0015303Y0020565D01*
X0015289Y0020717D01*
X0015279Y0020870D01*
X0015273Y0021024D01*
X0015271Y0021177D01*
X0074326Y0021177D02*
X0074328Y0021330D01*
X0074334Y0021484D01*
X0074344Y0021637D01*
X0074358Y0021789D01*
X0074376Y0021942D01*
X0074398Y0022093D01*
X0074423Y0022244D01*
X0074453Y0022395D01*
X0074487Y0022545D01*
X0074524Y0022693D01*
X0074565Y0022841D01*
X0074610Y0022987D01*
X0074659Y0023133D01*
X0074712Y0023277D01*
X0074768Y0023419D01*
X0074828Y0023560D01*
X0074892Y0023700D01*
X0074959Y0023838D01*
X0075030Y0023974D01*
X0075105Y0024108D01*
X0075182Y0024240D01*
X0075264Y0024370D01*
X0075348Y0024498D01*
X0075436Y0024624D01*
X0075527Y0024747D01*
X0075621Y0024868D01*
X0075719Y0024986D01*
X0075819Y0025102D01*
X0075923Y0025215D01*
X0076029Y0025326D01*
X0076138Y0025434D01*
X0076250Y0025539D01*
X0076364Y0025640D01*
X0076482Y0025739D01*
X0076601Y0025835D01*
X0076723Y0025928D01*
X0076848Y0026017D01*
X0076975Y0026104D01*
X0077104Y0026186D01*
X0077235Y0026266D01*
X0077368Y0026342D01*
X0077503Y0026415D01*
X0077640Y0026484D01*
X0077779Y0026549D01*
X0077919Y0026611D01*
X0078061Y0026669D01*
X0078204Y0026724D01*
X0078349Y0026775D01*
X0078495Y0026822D01*
X0078642Y0026865D01*
X0078790Y0026904D01*
X0078939Y0026940D01*
X0079089Y0026971D01*
X0079240Y0026999D01*
X0079391Y0027023D01*
X0079544Y0027043D01*
X0079696Y0027059D01*
X0079849Y0027071D01*
X0080002Y0027079D01*
X0080155Y0027083D01*
X0080309Y0027083D01*
X0080462Y0027079D01*
X0080615Y0027071D01*
X0080768Y0027059D01*
X0080920Y0027043D01*
X0081073Y0027023D01*
X0081224Y0026999D01*
X0081375Y0026971D01*
X0081525Y0026940D01*
X0081674Y0026904D01*
X0081822Y0026865D01*
X0081969Y0026822D01*
X0082115Y0026775D01*
X0082260Y0026724D01*
X0082403Y0026669D01*
X0082545Y0026611D01*
X0082685Y0026549D01*
X0082824Y0026484D01*
X0082961Y0026415D01*
X0083096Y0026342D01*
X0083229Y0026266D01*
X0083360Y0026186D01*
X0083489Y0026104D01*
X0083616Y0026017D01*
X0083741Y0025928D01*
X0083863Y0025835D01*
X0083982Y0025739D01*
X0084100Y0025640D01*
X0084214Y0025539D01*
X0084326Y0025434D01*
X0084435Y0025326D01*
X0084541Y0025215D01*
X0084645Y0025102D01*
X0084745Y0024986D01*
X0084843Y0024868D01*
X0084937Y0024747D01*
X0085028Y0024624D01*
X0085116Y0024498D01*
X0085200Y0024370D01*
X0085282Y0024240D01*
X0085359Y0024108D01*
X0085434Y0023974D01*
X0085505Y0023838D01*
X0085572Y0023700D01*
X0085636Y0023560D01*
X0085696Y0023419D01*
X0085752Y0023277D01*
X0085805Y0023133D01*
X0085854Y0022987D01*
X0085899Y0022841D01*
X0085940Y0022693D01*
X0085977Y0022545D01*
X0086011Y0022395D01*
X0086041Y0022244D01*
X0086066Y0022093D01*
X0086088Y0021942D01*
X0086106Y0021789D01*
X0086120Y0021637D01*
X0086130Y0021484D01*
X0086136Y0021330D01*
X0086138Y0021177D01*
X0086136Y0021024D01*
X0086130Y0020870D01*
X0086120Y0020717D01*
X0086106Y0020565D01*
X0086088Y0020412D01*
X0086066Y0020261D01*
X0086041Y0020110D01*
X0086011Y0019959D01*
X0085977Y0019809D01*
X0085940Y0019661D01*
X0085899Y0019513D01*
X0085854Y0019367D01*
X0085805Y0019221D01*
X0085752Y0019077D01*
X0085696Y0018935D01*
X0085636Y0018794D01*
X0085572Y0018654D01*
X0085505Y0018516D01*
X0085434Y0018380D01*
X0085359Y0018246D01*
X0085282Y0018114D01*
X0085200Y0017984D01*
X0085116Y0017856D01*
X0085028Y0017730D01*
X0084937Y0017607D01*
X0084843Y0017486D01*
X0084745Y0017368D01*
X0084645Y0017252D01*
X0084541Y0017139D01*
X0084435Y0017028D01*
X0084326Y0016920D01*
X0084214Y0016815D01*
X0084100Y0016714D01*
X0083982Y0016615D01*
X0083863Y0016519D01*
X0083741Y0016426D01*
X0083616Y0016337D01*
X0083489Y0016250D01*
X0083360Y0016168D01*
X0083229Y0016088D01*
X0083096Y0016012D01*
X0082961Y0015939D01*
X0082824Y0015870D01*
X0082685Y0015805D01*
X0082545Y0015743D01*
X0082403Y0015685D01*
X0082260Y0015630D01*
X0082115Y0015579D01*
X0081969Y0015532D01*
X0081822Y0015489D01*
X0081674Y0015450D01*
X0081525Y0015414D01*
X0081375Y0015383D01*
X0081224Y0015355D01*
X0081073Y0015331D01*
X0080920Y0015311D01*
X0080768Y0015295D01*
X0080615Y0015283D01*
X0080462Y0015275D01*
X0080309Y0015271D01*
X0080155Y0015271D01*
X0080002Y0015275D01*
X0079849Y0015283D01*
X0079696Y0015295D01*
X0079544Y0015311D01*
X0079391Y0015331D01*
X0079240Y0015355D01*
X0079089Y0015383D01*
X0078939Y0015414D01*
X0078790Y0015450D01*
X0078642Y0015489D01*
X0078495Y0015532D01*
X0078349Y0015579D01*
X0078204Y0015630D01*
X0078061Y0015685D01*
X0077919Y0015743D01*
X0077779Y0015805D01*
X0077640Y0015870D01*
X0077503Y0015939D01*
X0077368Y0016012D01*
X0077235Y0016088D01*
X0077104Y0016168D01*
X0076975Y0016250D01*
X0076848Y0016337D01*
X0076723Y0016426D01*
X0076601Y0016519D01*
X0076482Y0016615D01*
X0076364Y0016714D01*
X0076250Y0016815D01*
X0076138Y0016920D01*
X0076029Y0017028D01*
X0075923Y0017139D01*
X0075819Y0017252D01*
X0075719Y0017368D01*
X0075621Y0017486D01*
X0075527Y0017607D01*
X0075436Y0017730D01*
X0075348Y0017856D01*
X0075264Y0017984D01*
X0075182Y0018114D01*
X0075105Y0018246D01*
X0075030Y0018380D01*
X0074959Y0018516D01*
X0074892Y0018654D01*
X0074828Y0018794D01*
X0074768Y0018935D01*
X0074712Y0019077D01*
X0074659Y0019221D01*
X0074610Y0019367D01*
X0074565Y0019513D01*
X0074524Y0019661D01*
X0074487Y0019809D01*
X0074453Y0019959D01*
X0074423Y0020110D01*
X0074398Y0020261D01*
X0074376Y0020412D01*
X0074358Y0020565D01*
X0074344Y0020717D01*
X0074334Y0020870D01*
X0074328Y0021024D01*
X0074326Y0021177D01*
X0074326Y0099917D02*
X0074328Y0100070D01*
X0074334Y0100224D01*
X0074344Y0100377D01*
X0074358Y0100529D01*
X0074376Y0100682D01*
X0074398Y0100833D01*
X0074423Y0100984D01*
X0074453Y0101135D01*
X0074487Y0101285D01*
X0074524Y0101433D01*
X0074565Y0101581D01*
X0074610Y0101727D01*
X0074659Y0101873D01*
X0074712Y0102017D01*
X0074768Y0102159D01*
X0074828Y0102300D01*
X0074892Y0102440D01*
X0074959Y0102578D01*
X0075030Y0102714D01*
X0075105Y0102848D01*
X0075182Y0102980D01*
X0075264Y0103110D01*
X0075348Y0103238D01*
X0075436Y0103364D01*
X0075527Y0103487D01*
X0075621Y0103608D01*
X0075719Y0103726D01*
X0075819Y0103842D01*
X0075923Y0103955D01*
X0076029Y0104066D01*
X0076138Y0104174D01*
X0076250Y0104279D01*
X0076364Y0104380D01*
X0076482Y0104479D01*
X0076601Y0104575D01*
X0076723Y0104668D01*
X0076848Y0104757D01*
X0076975Y0104844D01*
X0077104Y0104926D01*
X0077235Y0105006D01*
X0077368Y0105082D01*
X0077503Y0105155D01*
X0077640Y0105224D01*
X0077779Y0105289D01*
X0077919Y0105351D01*
X0078061Y0105409D01*
X0078204Y0105464D01*
X0078349Y0105515D01*
X0078495Y0105562D01*
X0078642Y0105605D01*
X0078790Y0105644D01*
X0078939Y0105680D01*
X0079089Y0105711D01*
X0079240Y0105739D01*
X0079391Y0105763D01*
X0079544Y0105783D01*
X0079696Y0105799D01*
X0079849Y0105811D01*
X0080002Y0105819D01*
X0080155Y0105823D01*
X0080309Y0105823D01*
X0080462Y0105819D01*
X0080615Y0105811D01*
X0080768Y0105799D01*
X0080920Y0105783D01*
X0081073Y0105763D01*
X0081224Y0105739D01*
X0081375Y0105711D01*
X0081525Y0105680D01*
X0081674Y0105644D01*
X0081822Y0105605D01*
X0081969Y0105562D01*
X0082115Y0105515D01*
X0082260Y0105464D01*
X0082403Y0105409D01*
X0082545Y0105351D01*
X0082685Y0105289D01*
X0082824Y0105224D01*
X0082961Y0105155D01*
X0083096Y0105082D01*
X0083229Y0105006D01*
X0083360Y0104926D01*
X0083489Y0104844D01*
X0083616Y0104757D01*
X0083741Y0104668D01*
X0083863Y0104575D01*
X0083982Y0104479D01*
X0084100Y0104380D01*
X0084214Y0104279D01*
X0084326Y0104174D01*
X0084435Y0104066D01*
X0084541Y0103955D01*
X0084645Y0103842D01*
X0084745Y0103726D01*
X0084843Y0103608D01*
X0084937Y0103487D01*
X0085028Y0103364D01*
X0085116Y0103238D01*
X0085200Y0103110D01*
X0085282Y0102980D01*
X0085359Y0102848D01*
X0085434Y0102714D01*
X0085505Y0102578D01*
X0085572Y0102440D01*
X0085636Y0102300D01*
X0085696Y0102159D01*
X0085752Y0102017D01*
X0085805Y0101873D01*
X0085854Y0101727D01*
X0085899Y0101581D01*
X0085940Y0101433D01*
X0085977Y0101285D01*
X0086011Y0101135D01*
X0086041Y0100984D01*
X0086066Y0100833D01*
X0086088Y0100682D01*
X0086106Y0100529D01*
X0086120Y0100377D01*
X0086130Y0100224D01*
X0086136Y0100070D01*
X0086138Y0099917D01*
X0086136Y0099764D01*
X0086130Y0099610D01*
X0086120Y0099457D01*
X0086106Y0099305D01*
X0086088Y0099152D01*
X0086066Y0099001D01*
X0086041Y0098850D01*
X0086011Y0098699D01*
X0085977Y0098549D01*
X0085940Y0098401D01*
X0085899Y0098253D01*
X0085854Y0098107D01*
X0085805Y0097961D01*
X0085752Y0097817D01*
X0085696Y0097675D01*
X0085636Y0097534D01*
X0085572Y0097394D01*
X0085505Y0097256D01*
X0085434Y0097120D01*
X0085359Y0096986D01*
X0085282Y0096854D01*
X0085200Y0096724D01*
X0085116Y0096596D01*
X0085028Y0096470D01*
X0084937Y0096347D01*
X0084843Y0096226D01*
X0084745Y0096108D01*
X0084645Y0095992D01*
X0084541Y0095879D01*
X0084435Y0095768D01*
X0084326Y0095660D01*
X0084214Y0095555D01*
X0084100Y0095454D01*
X0083982Y0095355D01*
X0083863Y0095259D01*
X0083741Y0095166D01*
X0083616Y0095077D01*
X0083489Y0094990D01*
X0083360Y0094908D01*
X0083229Y0094828D01*
X0083096Y0094752D01*
X0082961Y0094679D01*
X0082824Y0094610D01*
X0082685Y0094545D01*
X0082545Y0094483D01*
X0082403Y0094425D01*
X0082260Y0094370D01*
X0082115Y0094319D01*
X0081969Y0094272D01*
X0081822Y0094229D01*
X0081674Y0094190D01*
X0081525Y0094154D01*
X0081375Y0094123D01*
X0081224Y0094095D01*
X0081073Y0094071D01*
X0080920Y0094051D01*
X0080768Y0094035D01*
X0080615Y0094023D01*
X0080462Y0094015D01*
X0080309Y0094011D01*
X0080155Y0094011D01*
X0080002Y0094015D01*
X0079849Y0094023D01*
X0079696Y0094035D01*
X0079544Y0094051D01*
X0079391Y0094071D01*
X0079240Y0094095D01*
X0079089Y0094123D01*
X0078939Y0094154D01*
X0078790Y0094190D01*
X0078642Y0094229D01*
X0078495Y0094272D01*
X0078349Y0094319D01*
X0078204Y0094370D01*
X0078061Y0094425D01*
X0077919Y0094483D01*
X0077779Y0094545D01*
X0077640Y0094610D01*
X0077503Y0094679D01*
X0077368Y0094752D01*
X0077235Y0094828D01*
X0077104Y0094908D01*
X0076975Y0094990D01*
X0076848Y0095077D01*
X0076723Y0095166D01*
X0076601Y0095259D01*
X0076482Y0095355D01*
X0076364Y0095454D01*
X0076250Y0095555D01*
X0076138Y0095660D01*
X0076029Y0095768D01*
X0075923Y0095879D01*
X0075819Y0095992D01*
X0075719Y0096108D01*
X0075621Y0096226D01*
X0075527Y0096347D01*
X0075436Y0096470D01*
X0075348Y0096596D01*
X0075264Y0096724D01*
X0075182Y0096854D01*
X0075105Y0096986D01*
X0075030Y0097120D01*
X0074959Y0097256D01*
X0074892Y0097394D01*
X0074828Y0097534D01*
X0074768Y0097675D01*
X0074712Y0097817D01*
X0074659Y0097961D01*
X0074610Y0098107D01*
X0074565Y0098253D01*
X0074524Y0098401D01*
X0074487Y0098549D01*
X0074453Y0098699D01*
X0074423Y0098850D01*
X0074398Y0099001D01*
X0074376Y0099152D01*
X0074358Y0099305D01*
X0074344Y0099457D01*
X0074334Y0099610D01*
X0074328Y0099764D01*
X0074326Y0099917D01*
X0015271Y0099917D02*
X0015273Y0100070D01*
X0015279Y0100224D01*
X0015289Y0100377D01*
X0015303Y0100529D01*
X0015321Y0100682D01*
X0015343Y0100833D01*
X0015368Y0100984D01*
X0015398Y0101135D01*
X0015432Y0101285D01*
X0015469Y0101433D01*
X0015510Y0101581D01*
X0015555Y0101727D01*
X0015604Y0101873D01*
X0015657Y0102017D01*
X0015713Y0102159D01*
X0015773Y0102300D01*
X0015837Y0102440D01*
X0015904Y0102578D01*
X0015975Y0102714D01*
X0016050Y0102848D01*
X0016127Y0102980D01*
X0016209Y0103110D01*
X0016293Y0103238D01*
X0016381Y0103364D01*
X0016472Y0103487D01*
X0016566Y0103608D01*
X0016664Y0103726D01*
X0016764Y0103842D01*
X0016868Y0103955D01*
X0016974Y0104066D01*
X0017083Y0104174D01*
X0017195Y0104279D01*
X0017309Y0104380D01*
X0017427Y0104479D01*
X0017546Y0104575D01*
X0017668Y0104668D01*
X0017793Y0104757D01*
X0017920Y0104844D01*
X0018049Y0104926D01*
X0018180Y0105006D01*
X0018313Y0105082D01*
X0018448Y0105155D01*
X0018585Y0105224D01*
X0018724Y0105289D01*
X0018864Y0105351D01*
X0019006Y0105409D01*
X0019149Y0105464D01*
X0019294Y0105515D01*
X0019440Y0105562D01*
X0019587Y0105605D01*
X0019735Y0105644D01*
X0019884Y0105680D01*
X0020034Y0105711D01*
X0020185Y0105739D01*
X0020336Y0105763D01*
X0020489Y0105783D01*
X0020641Y0105799D01*
X0020794Y0105811D01*
X0020947Y0105819D01*
X0021100Y0105823D01*
X0021254Y0105823D01*
X0021407Y0105819D01*
X0021560Y0105811D01*
X0021713Y0105799D01*
X0021865Y0105783D01*
X0022018Y0105763D01*
X0022169Y0105739D01*
X0022320Y0105711D01*
X0022470Y0105680D01*
X0022619Y0105644D01*
X0022767Y0105605D01*
X0022914Y0105562D01*
X0023060Y0105515D01*
X0023205Y0105464D01*
X0023348Y0105409D01*
X0023490Y0105351D01*
X0023630Y0105289D01*
X0023769Y0105224D01*
X0023906Y0105155D01*
X0024041Y0105082D01*
X0024174Y0105006D01*
X0024305Y0104926D01*
X0024434Y0104844D01*
X0024561Y0104757D01*
X0024686Y0104668D01*
X0024808Y0104575D01*
X0024927Y0104479D01*
X0025045Y0104380D01*
X0025159Y0104279D01*
X0025271Y0104174D01*
X0025380Y0104066D01*
X0025486Y0103955D01*
X0025590Y0103842D01*
X0025690Y0103726D01*
X0025788Y0103608D01*
X0025882Y0103487D01*
X0025973Y0103364D01*
X0026061Y0103238D01*
X0026145Y0103110D01*
X0026227Y0102980D01*
X0026304Y0102848D01*
X0026379Y0102714D01*
X0026450Y0102578D01*
X0026517Y0102440D01*
X0026581Y0102300D01*
X0026641Y0102159D01*
X0026697Y0102017D01*
X0026750Y0101873D01*
X0026799Y0101727D01*
X0026844Y0101581D01*
X0026885Y0101433D01*
X0026922Y0101285D01*
X0026956Y0101135D01*
X0026986Y0100984D01*
X0027011Y0100833D01*
X0027033Y0100682D01*
X0027051Y0100529D01*
X0027065Y0100377D01*
X0027075Y0100224D01*
X0027081Y0100070D01*
X0027083Y0099917D01*
X0027081Y0099764D01*
X0027075Y0099610D01*
X0027065Y0099457D01*
X0027051Y0099305D01*
X0027033Y0099152D01*
X0027011Y0099001D01*
X0026986Y0098850D01*
X0026956Y0098699D01*
X0026922Y0098549D01*
X0026885Y0098401D01*
X0026844Y0098253D01*
X0026799Y0098107D01*
X0026750Y0097961D01*
X0026697Y0097817D01*
X0026641Y0097675D01*
X0026581Y0097534D01*
X0026517Y0097394D01*
X0026450Y0097256D01*
X0026379Y0097120D01*
X0026304Y0096986D01*
X0026227Y0096854D01*
X0026145Y0096724D01*
X0026061Y0096596D01*
X0025973Y0096470D01*
X0025882Y0096347D01*
X0025788Y0096226D01*
X0025690Y0096108D01*
X0025590Y0095992D01*
X0025486Y0095879D01*
X0025380Y0095768D01*
X0025271Y0095660D01*
X0025159Y0095555D01*
X0025045Y0095454D01*
X0024927Y0095355D01*
X0024808Y0095259D01*
X0024686Y0095166D01*
X0024561Y0095077D01*
X0024434Y0094990D01*
X0024305Y0094908D01*
X0024174Y0094828D01*
X0024041Y0094752D01*
X0023906Y0094679D01*
X0023769Y0094610D01*
X0023630Y0094545D01*
X0023490Y0094483D01*
X0023348Y0094425D01*
X0023205Y0094370D01*
X0023060Y0094319D01*
X0022914Y0094272D01*
X0022767Y0094229D01*
X0022619Y0094190D01*
X0022470Y0094154D01*
X0022320Y0094123D01*
X0022169Y0094095D01*
X0022018Y0094071D01*
X0021865Y0094051D01*
X0021713Y0094035D01*
X0021560Y0094023D01*
X0021407Y0094015D01*
X0021254Y0094011D01*
X0021100Y0094011D01*
X0020947Y0094015D01*
X0020794Y0094023D01*
X0020641Y0094035D01*
X0020489Y0094051D01*
X0020336Y0094071D01*
X0020185Y0094095D01*
X0020034Y0094123D01*
X0019884Y0094154D01*
X0019735Y0094190D01*
X0019587Y0094229D01*
X0019440Y0094272D01*
X0019294Y0094319D01*
X0019149Y0094370D01*
X0019006Y0094425D01*
X0018864Y0094483D01*
X0018724Y0094545D01*
X0018585Y0094610D01*
X0018448Y0094679D01*
X0018313Y0094752D01*
X0018180Y0094828D01*
X0018049Y0094908D01*
X0017920Y0094990D01*
X0017793Y0095077D01*
X0017668Y0095166D01*
X0017546Y0095259D01*
X0017427Y0095355D01*
X0017309Y0095454D01*
X0017195Y0095555D01*
X0017083Y0095660D01*
X0016974Y0095768D01*
X0016868Y0095879D01*
X0016764Y0095992D01*
X0016664Y0096108D01*
X0016566Y0096226D01*
X0016472Y0096347D01*
X0016381Y0096470D01*
X0016293Y0096596D01*
X0016209Y0096724D01*
X0016127Y0096854D01*
X0016050Y0096986D01*
X0015975Y0097120D01*
X0015904Y0097256D01*
X0015837Y0097394D01*
X0015773Y0097534D01*
X0015713Y0097675D01*
X0015657Y0097817D01*
X0015604Y0097961D01*
X0015555Y0098107D01*
X0015510Y0098253D01*
X0015469Y0098401D01*
X0015432Y0098549D01*
X0015398Y0098699D01*
X0015368Y0098850D01*
X0015343Y0099001D01*
X0015321Y0099152D01*
X0015303Y0099305D01*
X0015289Y0099457D01*
X0015279Y0099610D01*
X0015273Y0099764D01*
X0015271Y0099917D01*
D11*
X0075232Y0070547D03*
X0075232Y0060547D03*
X0075232Y0050547D03*
X0085232Y0050547D03*
X0085232Y0060547D03*
X0085232Y0070547D03*
D12*
X0026177Y0070547D03*
X0026177Y0060547D03*
X0026177Y0050547D03*
X0016177Y0050547D03*
X0016177Y0060547D03*
X0016177Y0070547D03*
D13*
X0015685Y0070286D02*
X0005984Y0070286D01*
X0005984Y0071268D02*
X0011492Y0071268D01*
X0011456Y0071039D02*
X0015685Y0071039D01*
X0015685Y0070055D01*
X0016669Y0070055D01*
X0016669Y0065826D01*
X0017287Y0065924D01*
X0017997Y0066154D01*
X0018662Y0066493D01*
X0019265Y0066932D01*
X0019793Y0067459D01*
X0020231Y0068063D01*
X0020570Y0068728D01*
X0020801Y0069437D01*
X0020898Y0070055D01*
X0016669Y0070055D01*
X0016669Y0071039D01*
X0020898Y0071039D01*
X0020801Y0071657D01*
X0020570Y0072367D01*
X0020231Y0073032D01*
X0019793Y0073635D01*
X0019265Y0074163D01*
X0018662Y0074601D01*
X0017997Y0074940D01*
X0017287Y0075171D01*
X0016669Y0075269D01*
X0016669Y0071039D01*
X0015685Y0071039D01*
X0015685Y0075269D01*
X0015067Y0075171D01*
X0014358Y0074940D01*
X0013693Y0074601D01*
X0013089Y0074163D01*
X0012562Y0073635D01*
X0012123Y0073032D01*
X0011784Y0072367D01*
X0011554Y0071657D01*
X0011456Y0071039D01*
X0011456Y0070055D02*
X0011554Y0069437D01*
X0011784Y0068728D01*
X0012123Y0068063D01*
X0012562Y0067459D01*
X0013089Y0066932D01*
X0013693Y0066493D01*
X0014358Y0066154D01*
X0015067Y0065924D01*
X0015685Y0065826D01*
X0015685Y0070055D01*
X0011456Y0070055D01*
X0011597Y0069303D02*
X0005984Y0069303D01*
X0005984Y0068320D02*
X0011992Y0068320D01*
X0012684Y0067337D02*
X0005984Y0067337D01*
X0005984Y0066355D02*
X0013965Y0066355D01*
X0015274Y0065087D02*
X0013605Y0064396D01*
X0012328Y0063119D01*
X0011637Y0061450D01*
X0011637Y0059644D01*
X0012328Y0057975D01*
X0013605Y0056698D01*
X0015274Y0056007D01*
X0017080Y0056007D01*
X0018749Y0056698D01*
X0020026Y0057975D01*
X0020717Y0059644D01*
X0020717Y0061450D01*
X0020417Y0062174D01*
X0021919Y0063676D01*
X0022886Y0063676D01*
X0022328Y0063119D01*
X0021637Y0061450D01*
X0021637Y0059644D01*
X0022328Y0057975D01*
X0022886Y0057418D01*
X0020435Y0057418D01*
X0017804Y0054787D01*
X0017080Y0055087D01*
X0015274Y0055087D01*
X0013605Y0054396D01*
X0012328Y0053119D01*
X0011637Y0051450D01*
X0011637Y0049644D01*
X0012328Y0047975D01*
X0013605Y0046698D01*
X0015274Y0046007D01*
X0017080Y0046007D01*
X0018749Y0046698D01*
X0020026Y0047975D01*
X0020717Y0049644D01*
X0020717Y0051450D01*
X0020371Y0052286D01*
X0021919Y0053834D01*
X0023043Y0053834D01*
X0022328Y0053119D01*
X0021637Y0051450D01*
X0021637Y0049644D01*
X0022328Y0047975D01*
X0023605Y0046698D01*
X0025274Y0046007D01*
X0027080Y0046007D01*
X0027916Y0046353D01*
X0030277Y0043991D01*
X0081959Y0043991D01*
X0083009Y0045041D01*
X0084292Y0046325D01*
X0084385Y0046287D01*
X0086080Y0046287D01*
X0087646Y0046935D01*
X0088844Y0048134D01*
X0089493Y0049700D01*
X0089493Y0051395D01*
X0088844Y0052961D01*
X0087646Y0054159D01*
X0086080Y0054808D01*
X0084385Y0054808D01*
X0082819Y0054159D01*
X0081620Y0052961D01*
X0080972Y0051395D01*
X0080972Y0049700D01*
X0081448Y0048549D01*
X0080474Y0047576D01*
X0078286Y0047576D01*
X0078844Y0048134D01*
X0079493Y0049700D01*
X0079493Y0051395D01*
X0078844Y0052961D01*
X0077971Y0053834D01*
X0080975Y0053834D01*
X0082024Y0054884D01*
X0083708Y0056567D01*
X0084385Y0056287D01*
X0086080Y0056287D01*
X0087646Y0056935D01*
X0088844Y0058134D01*
X0089493Y0059700D01*
X0089493Y0061395D01*
X0088844Y0062961D01*
X0087646Y0064159D01*
X0086080Y0064808D01*
X0084385Y0064808D01*
X0082819Y0064159D01*
X0081620Y0062961D01*
X0080972Y0061395D01*
X0080972Y0059700D01*
X0081206Y0059134D01*
X0079490Y0057418D01*
X0078129Y0057418D01*
X0078844Y0058134D01*
X0079493Y0059700D01*
X0079493Y0061395D01*
X0078844Y0062961D01*
X0077646Y0064159D01*
X0076080Y0064808D01*
X0074385Y0064808D01*
X0073123Y0064285D01*
X0071198Y0066211D01*
X0070148Y0067261D01*
X0029311Y0067261D01*
X0030026Y0067975D01*
X0030717Y0069644D01*
X0030717Y0071450D01*
X0030417Y0072174D01*
X0031762Y0073519D01*
X0071896Y0073519D01*
X0071830Y0073453D01*
X0071417Y0072885D01*
X0071098Y0072260D01*
X0070881Y0071592D01*
X0070794Y0071039D01*
X0074740Y0071039D01*
X0074740Y0070055D01*
X0070794Y0070055D01*
X0070881Y0069503D01*
X0071098Y0068835D01*
X0071417Y0068209D01*
X0071830Y0067641D01*
X0072326Y0067145D01*
X0072894Y0066732D01*
X0073520Y0066413D01*
X0074188Y0066196D01*
X0074740Y0066109D01*
X0074740Y0070055D01*
X0075724Y0070055D01*
X0075724Y0066109D01*
X0076277Y0066196D01*
X0076945Y0066413D01*
X0077570Y0066732D01*
X0078138Y0067145D01*
X0078635Y0067641D01*
X0079047Y0068209D01*
X0079366Y0068835D01*
X0079583Y0069503D01*
X0079671Y0070055D01*
X0075724Y0070055D01*
X0075724Y0071039D01*
X0079671Y0071039D01*
X0079583Y0071592D01*
X0079366Y0072260D01*
X0079047Y0072885D01*
X0078635Y0073453D01*
X0078569Y0073519D01*
X0080474Y0073519D01*
X0081448Y0072545D01*
X0080972Y0071395D01*
X0080972Y0069700D01*
X0081620Y0068134D01*
X0082819Y0066935D01*
X0084385Y0066287D01*
X0086080Y0066287D01*
X0087646Y0066935D01*
X0088844Y0068134D01*
X0089493Y0069700D01*
X0089493Y0071395D01*
X0088844Y0072961D01*
X0087646Y0074159D01*
X0086080Y0074808D01*
X0084385Y0074808D01*
X0084292Y0074770D01*
X0083009Y0076053D01*
X0081959Y0077103D01*
X0030277Y0077103D01*
X0027916Y0074741D01*
X0027080Y0075087D01*
X0025274Y0075087D01*
X0023605Y0074396D01*
X0022328Y0073119D01*
X0021637Y0071450D01*
X0021637Y0069644D01*
X0022328Y0067975D01*
X0023043Y0067261D01*
X0020435Y0067261D01*
X0019385Y0066211D01*
X0019385Y0066211D01*
X0017916Y0064741D01*
X0017080Y0065087D01*
X0015274Y0065087D01*
X0015685Y0066355D02*
X0016669Y0066355D01*
X0016669Y0067337D02*
X0015685Y0067337D01*
X0015685Y0068320D02*
X0016669Y0068320D01*
X0016669Y0069303D02*
X0015685Y0069303D01*
X0016669Y0070286D02*
X0021637Y0070286D01*
X0021637Y0071268D02*
X0020862Y0071268D01*
X0020608Y0072251D02*
X0021969Y0072251D01*
X0022443Y0073234D02*
X0020084Y0073234D01*
X0019191Y0074217D02*
X0023426Y0074217D01*
X0028374Y0075199D02*
X0017106Y0075199D01*
X0016669Y0075199D02*
X0015685Y0075199D01*
X0015248Y0075199D02*
X0005984Y0075199D01*
X0005984Y0074217D02*
X0013163Y0074217D01*
X0012270Y0073234D02*
X0005984Y0073234D01*
X0005984Y0072251D02*
X0011747Y0072251D01*
X0015685Y0072251D02*
X0016669Y0072251D01*
X0016669Y0071268D02*
X0015685Y0071268D01*
X0015685Y0073234D02*
X0016669Y0073234D01*
X0016669Y0074217D02*
X0015685Y0074217D01*
X0020757Y0069303D02*
X0021778Y0069303D01*
X0022185Y0068320D02*
X0020362Y0068320D01*
X0019671Y0067337D02*
X0022966Y0067337D01*
X0019529Y0066355D02*
X0018390Y0066355D01*
X0018546Y0065372D02*
X0005984Y0065372D01*
X0005984Y0064389D02*
X0013598Y0064389D01*
X0012615Y0063406D02*
X0005984Y0063406D01*
X0005984Y0062423D02*
X0012040Y0062423D01*
X0011637Y0061441D02*
X0005984Y0061441D01*
X0005984Y0060458D02*
X0011637Y0060458D01*
X0011707Y0059475D02*
X0005984Y0059475D01*
X0005984Y0058492D02*
X0012114Y0058492D01*
X0012794Y0057510D02*
X0005984Y0057510D01*
X0005984Y0056527D02*
X0014019Y0056527D01*
X0014004Y0054561D02*
X0005984Y0054561D01*
X0005984Y0053579D02*
X0012788Y0053579D01*
X0012111Y0052596D02*
X0005984Y0052596D01*
X0005984Y0051613D02*
X0011704Y0051613D01*
X0011637Y0050630D02*
X0005984Y0050630D01*
X0005984Y0049648D02*
X0011637Y0049648D01*
X0012043Y0048665D02*
X0005984Y0048665D01*
X0005984Y0047682D02*
X0012622Y0047682D01*
X0013604Y0046699D02*
X0005984Y0046699D01*
X0005984Y0045716D02*
X0028552Y0045716D01*
X0029535Y0044734D02*
X0005984Y0044734D01*
X0005984Y0043751D02*
X0095425Y0043751D01*
X0095425Y0044734D02*
X0082701Y0044734D01*
X0083684Y0045716D02*
X0095425Y0045716D01*
X0095425Y0046699D02*
X0087076Y0046699D01*
X0088392Y0047682D02*
X0095425Y0047682D01*
X0095425Y0048665D02*
X0089064Y0048665D01*
X0089471Y0049648D02*
X0095425Y0049648D01*
X0095425Y0050630D02*
X0089493Y0050630D01*
X0089402Y0051613D02*
X0095425Y0051613D01*
X0095425Y0052596D02*
X0088995Y0052596D01*
X0088226Y0053579D02*
X0095425Y0053579D01*
X0095425Y0054561D02*
X0086675Y0054561D01*
X0086660Y0056527D02*
X0095425Y0056527D01*
X0095425Y0057510D02*
X0088220Y0057510D01*
X0088993Y0058492D02*
X0095425Y0058492D01*
X0095425Y0059475D02*
X0089400Y0059475D01*
X0089493Y0060458D02*
X0095425Y0060458D01*
X0095425Y0061441D02*
X0089474Y0061441D01*
X0089067Y0062423D02*
X0095425Y0062423D01*
X0095425Y0063406D02*
X0088399Y0063406D01*
X0087091Y0064389D02*
X0095425Y0064389D01*
X0095425Y0065372D02*
X0072037Y0065372D01*
X0073019Y0064389D02*
X0073374Y0064389D01*
X0073701Y0066355D02*
X0071054Y0066355D01*
X0072134Y0067337D02*
X0029388Y0067337D01*
X0030169Y0068320D02*
X0071361Y0068320D01*
X0070946Y0069303D02*
X0030576Y0069303D01*
X0030717Y0070286D02*
X0074740Y0070286D01*
X0074740Y0069303D02*
X0075724Y0069303D01*
X0075724Y0070286D02*
X0080972Y0070286D01*
X0080972Y0071268D02*
X0079634Y0071268D01*
X0079369Y0072251D02*
X0081326Y0072251D01*
X0080759Y0073234D02*
X0078794Y0073234D01*
X0079518Y0069303D02*
X0081136Y0069303D01*
X0081543Y0068320D02*
X0079104Y0068320D01*
X0078331Y0067337D02*
X0082417Y0067337D01*
X0084221Y0066355D02*
X0076763Y0066355D01*
X0075724Y0066355D02*
X0074740Y0066355D01*
X0074740Y0067337D02*
X0075724Y0067337D01*
X0075724Y0068320D02*
X0074740Y0068320D01*
X0077091Y0064389D02*
X0083373Y0064389D01*
X0082066Y0063406D02*
X0078399Y0063406D01*
X0079067Y0062423D02*
X0081398Y0062423D01*
X0080991Y0061441D02*
X0079474Y0061441D01*
X0079493Y0060458D02*
X0080972Y0060458D01*
X0081065Y0059475D02*
X0079400Y0059475D01*
X0078993Y0058492D02*
X0080564Y0058492D01*
X0079581Y0057510D02*
X0078220Y0057510D01*
X0078226Y0053579D02*
X0082238Y0053579D01*
X0081702Y0054561D02*
X0083790Y0054561D01*
X0082685Y0055544D02*
X0095425Y0055544D01*
X0095425Y0066355D02*
X0086244Y0066355D01*
X0088048Y0067337D02*
X0095425Y0067337D01*
X0095425Y0068320D02*
X0088921Y0068320D01*
X0089328Y0069303D02*
X0095425Y0069303D01*
X0095425Y0070286D02*
X0089493Y0070286D01*
X0089493Y0071268D02*
X0095425Y0071268D01*
X0095425Y0072251D02*
X0089138Y0072251D01*
X0088571Y0073234D02*
X0095425Y0073234D01*
X0095425Y0074217D02*
X0087507Y0074217D01*
X0083863Y0075199D02*
X0095425Y0075199D01*
X0095425Y0076182D02*
X0082880Y0076182D01*
X0071671Y0073234D02*
X0031477Y0073234D01*
X0030494Y0072251D02*
X0071096Y0072251D01*
X0070830Y0071268D02*
X0030717Y0071268D01*
X0029356Y0076182D02*
X0005984Y0076182D01*
X0005984Y0077165D02*
X0095425Y0077165D01*
X0095425Y0078148D02*
X0005984Y0078148D01*
X0005984Y0079130D02*
X0095425Y0079130D01*
X0095425Y0080113D02*
X0005984Y0080113D01*
X0005984Y0081096D02*
X0095425Y0081096D01*
X0095425Y0082079D02*
X0005984Y0082079D01*
X0005984Y0083061D02*
X0095425Y0083061D01*
X0095425Y0084044D02*
X0005984Y0084044D01*
X0005984Y0085027D02*
X0095425Y0085027D01*
X0095425Y0086010D02*
X0005984Y0086010D01*
X0005984Y0086993D02*
X0095425Y0086993D01*
X0095425Y0087975D02*
X0005984Y0087975D01*
X0005984Y0088958D02*
X0095425Y0088958D01*
X0095425Y0089941D02*
X0083173Y0089941D01*
X0084246Y0090228D02*
X0086617Y0091597D01*
X0088552Y0093533D01*
X0089921Y0095904D01*
X0090630Y0098548D01*
X0090630Y0101286D01*
X0089921Y0103931D01*
X0088552Y0106302D01*
X0086617Y0108237D01*
X0084246Y0109606D01*
X0081601Y0110315D01*
X0078863Y0110315D01*
X0076219Y0109606D01*
X0073848Y0108237D01*
X0071912Y0106302D01*
X0070543Y0103931D01*
X0069835Y0101286D01*
X0069835Y0098548D01*
X0070543Y0095904D01*
X0071912Y0093533D01*
X0073848Y0091597D01*
X0076219Y0090228D01*
X0078863Y0089520D01*
X0081601Y0089520D01*
X0084246Y0090228D01*
X0085450Y0090924D02*
X0095425Y0090924D01*
X0095425Y0091906D02*
X0086926Y0091906D01*
X0087909Y0092889D02*
X0095425Y0092889D01*
X0095425Y0093872D02*
X0088748Y0093872D01*
X0089315Y0094855D02*
X0095425Y0094855D01*
X0095425Y0095837D02*
X0089883Y0095837D01*
X0090167Y0096820D02*
X0095425Y0096820D01*
X0095425Y0097803D02*
X0090430Y0097803D01*
X0090630Y0098786D02*
X0095425Y0098786D01*
X0095425Y0099768D02*
X0090630Y0099768D01*
X0090630Y0100751D02*
X0095425Y0100751D01*
X0095425Y0101734D02*
X0090510Y0101734D01*
X0090247Y0102717D02*
X0095425Y0102717D01*
X0095425Y0103700D02*
X0089983Y0103700D01*
X0089487Y0104682D02*
X0095425Y0104682D01*
X0095425Y0105665D02*
X0088920Y0105665D01*
X0088206Y0106648D02*
X0095425Y0106648D01*
X0095425Y0107631D02*
X0087224Y0107631D01*
X0085966Y0108613D02*
X0095425Y0108613D01*
X0095425Y0109596D02*
X0084263Y0109596D01*
X0076201Y0109596D02*
X0025208Y0109596D01*
X0025191Y0109606D02*
X0022546Y0110315D01*
X0019808Y0110315D01*
X0017164Y0109606D01*
X0014793Y0108237D01*
X0012857Y0106302D01*
X0011488Y0103931D01*
X0010780Y0101286D01*
X0010780Y0098548D01*
X0011488Y0095904D01*
X0012857Y0093533D01*
X0014793Y0091597D01*
X0017164Y0090228D01*
X0019808Y0089520D01*
X0022546Y0089520D01*
X0025191Y0090228D01*
X0027561Y0091597D01*
X0029497Y0093533D01*
X0030866Y0095904D01*
X0031575Y0098548D01*
X0031575Y0101286D01*
X0030866Y0103931D01*
X0029497Y0106302D01*
X0027561Y0108237D01*
X0025191Y0109606D01*
X0026911Y0108613D02*
X0074499Y0108613D01*
X0073241Y0107631D02*
X0028168Y0107631D01*
X0029151Y0106648D02*
X0072258Y0106648D01*
X0071545Y0105665D02*
X0029865Y0105665D01*
X0030432Y0104682D02*
X0070977Y0104682D01*
X0070481Y0103700D02*
X0030928Y0103700D01*
X0031191Y0102717D02*
X0070218Y0102717D01*
X0069955Y0101734D02*
X0031455Y0101734D01*
X0031575Y0100751D02*
X0069835Y0100751D01*
X0069835Y0099768D02*
X0031575Y0099768D01*
X0031575Y0098786D02*
X0069835Y0098786D01*
X0070034Y0097803D02*
X0031375Y0097803D01*
X0031112Y0096820D02*
X0070298Y0096820D01*
X0070582Y0095837D02*
X0030828Y0095837D01*
X0030260Y0094855D02*
X0071149Y0094855D01*
X0071716Y0093872D02*
X0029693Y0093872D01*
X0028853Y0092889D02*
X0072556Y0092889D01*
X0073539Y0091906D02*
X0027871Y0091906D01*
X0026395Y0090924D02*
X0075015Y0090924D01*
X0077292Y0089941D02*
X0024118Y0089941D01*
X0018237Y0089941D02*
X0005984Y0089941D01*
X0005984Y0090924D02*
X0015959Y0090924D01*
X0014484Y0091906D02*
X0005984Y0091906D01*
X0005984Y0092889D02*
X0013501Y0092889D01*
X0012661Y0093872D02*
X0005984Y0093872D01*
X0005984Y0094855D02*
X0012094Y0094855D01*
X0011527Y0095837D02*
X0005984Y0095837D01*
X0005984Y0096820D02*
X0011243Y0096820D01*
X0010979Y0097803D02*
X0005984Y0097803D01*
X0005984Y0098786D02*
X0010780Y0098786D01*
X0010780Y0099768D02*
X0005984Y0099768D01*
X0005984Y0100751D02*
X0010780Y0100751D01*
X0010900Y0101734D02*
X0005984Y0101734D01*
X0005984Y0102717D02*
X0011163Y0102717D01*
X0011426Y0103700D02*
X0005984Y0103700D01*
X0005984Y0104682D02*
X0011922Y0104682D01*
X0012489Y0105665D02*
X0005984Y0105665D01*
X0005984Y0106648D02*
X0013203Y0106648D01*
X0014186Y0107631D02*
X0005984Y0107631D01*
X0005984Y0108613D02*
X0015444Y0108613D01*
X0017146Y0109596D02*
X0005984Y0109596D01*
X0005984Y0110579D02*
X0095425Y0110579D01*
X0095425Y0111562D02*
X0005984Y0111562D01*
X0005984Y0112544D02*
X0095425Y0112544D01*
X0095425Y0113527D02*
X0005984Y0113527D01*
X0005984Y0114510D02*
X0095425Y0114510D01*
X0095425Y0115110D02*
X0005984Y0115110D01*
X0005984Y0005984D01*
X0095425Y0005984D01*
X0095425Y0115110D01*
X0083805Y0056527D02*
X0083668Y0056527D01*
X0081469Y0052596D02*
X0078995Y0052596D01*
X0079402Y0051613D02*
X0081062Y0051613D01*
X0080972Y0050630D02*
X0079493Y0050630D01*
X0079471Y0049648D02*
X0080993Y0049648D01*
X0081400Y0048665D02*
X0079064Y0048665D01*
X0078392Y0047682D02*
X0080581Y0047682D01*
X0081601Y0031575D02*
X0078863Y0031575D01*
X0076219Y0030866D01*
X0073848Y0029497D01*
X0071912Y0027561D01*
X0070543Y0025191D01*
X0069835Y0022546D01*
X0069835Y0019808D01*
X0070543Y0017164D01*
X0071912Y0014793D01*
X0073848Y0012857D01*
X0076219Y0011488D01*
X0078863Y0010780D01*
X0081601Y0010780D01*
X0084246Y0011488D01*
X0086617Y0012857D01*
X0088552Y0014793D01*
X0089921Y0017164D01*
X0090630Y0019808D01*
X0090630Y0022546D01*
X0089921Y0025191D01*
X0088552Y0027561D01*
X0086617Y0029497D01*
X0084246Y0030866D01*
X0081601Y0031575D01*
X0083840Y0030975D02*
X0095425Y0030975D01*
X0095425Y0029992D02*
X0085759Y0029992D01*
X0087104Y0029009D02*
X0095425Y0029009D01*
X0095425Y0028027D02*
X0088087Y0028027D01*
X0088851Y0027044D02*
X0095425Y0027044D01*
X0095425Y0026061D02*
X0089419Y0026061D01*
X0089951Y0025078D02*
X0095425Y0025078D01*
X0095425Y0024096D02*
X0090215Y0024096D01*
X0090478Y0023113D02*
X0095425Y0023113D01*
X0095425Y0022130D02*
X0090630Y0022130D01*
X0090630Y0021147D02*
X0095425Y0021147D01*
X0095425Y0020165D02*
X0090630Y0020165D01*
X0090462Y0019182D02*
X0095425Y0019182D01*
X0095425Y0018199D02*
X0090199Y0018199D01*
X0089935Y0017216D02*
X0095425Y0017216D01*
X0095425Y0016234D02*
X0089384Y0016234D01*
X0088817Y0015251D02*
X0095425Y0015251D01*
X0095425Y0014268D02*
X0088028Y0014268D01*
X0087045Y0013285D02*
X0095425Y0013285D01*
X0095425Y0012303D02*
X0085656Y0012303D01*
X0083617Y0011320D02*
X0095425Y0011320D01*
X0095425Y0010337D02*
X0005984Y0010337D01*
X0005984Y0009354D02*
X0095425Y0009354D01*
X0095425Y0008371D02*
X0005984Y0008371D01*
X0005984Y0007389D02*
X0095425Y0007389D01*
X0095425Y0006406D02*
X0005984Y0006406D01*
X0005984Y0011320D02*
X0017792Y0011320D01*
X0017164Y0011488D02*
X0019808Y0010780D01*
X0022546Y0010780D01*
X0025191Y0011488D01*
X0027561Y0012857D01*
X0029497Y0014793D01*
X0030866Y0017164D01*
X0031575Y0019808D01*
X0031575Y0022546D01*
X0030866Y0025191D01*
X0029497Y0027561D01*
X0027561Y0029497D01*
X0025191Y0030866D01*
X0022546Y0031575D01*
X0019808Y0031575D01*
X0017164Y0030866D01*
X0014793Y0029497D01*
X0012857Y0027561D01*
X0011488Y0025191D01*
X0010780Y0022546D01*
X0010780Y0019808D01*
X0011488Y0017164D01*
X0012857Y0014793D01*
X0014793Y0012857D01*
X0017164Y0011488D01*
X0015753Y0012303D02*
X0005984Y0012303D01*
X0005984Y0013285D02*
X0014365Y0013285D01*
X0013382Y0014268D02*
X0005984Y0014268D01*
X0005984Y0015251D02*
X0012593Y0015251D01*
X0012025Y0016234D02*
X0005984Y0016234D01*
X0005984Y0017216D02*
X0011474Y0017216D01*
X0011211Y0018199D02*
X0005984Y0018199D01*
X0005984Y0019182D02*
X0010947Y0019182D01*
X0010780Y0020165D02*
X0005984Y0020165D01*
X0005984Y0021147D02*
X0010780Y0021147D01*
X0010780Y0022130D02*
X0005984Y0022130D01*
X0005984Y0023113D02*
X0010931Y0023113D01*
X0011195Y0024096D02*
X0005984Y0024096D01*
X0005984Y0025078D02*
X0011458Y0025078D01*
X0011991Y0026061D02*
X0005984Y0026061D01*
X0005984Y0027044D02*
X0012558Y0027044D01*
X0013322Y0028027D02*
X0005984Y0028027D01*
X0005984Y0029009D02*
X0014305Y0029009D01*
X0015650Y0029992D02*
X0005984Y0029992D01*
X0005984Y0030975D02*
X0017570Y0030975D01*
X0024784Y0030975D02*
X0076625Y0030975D01*
X0074705Y0029992D02*
X0026704Y0029992D01*
X0028049Y0029009D02*
X0073360Y0029009D01*
X0072377Y0028027D02*
X0029032Y0028027D01*
X0029796Y0027044D02*
X0071613Y0027044D01*
X0071046Y0026061D02*
X0030364Y0026061D01*
X0030896Y0025078D02*
X0070513Y0025078D01*
X0070250Y0024096D02*
X0031160Y0024096D01*
X0031423Y0023113D02*
X0069987Y0023113D01*
X0069835Y0022130D02*
X0031575Y0022130D01*
X0031575Y0021147D02*
X0069835Y0021147D01*
X0069835Y0020165D02*
X0031575Y0020165D01*
X0031407Y0019182D02*
X0070002Y0019182D01*
X0070266Y0018199D02*
X0031144Y0018199D01*
X0030880Y0017216D02*
X0070529Y0017216D01*
X0071080Y0016234D02*
X0030329Y0016234D01*
X0029762Y0015251D02*
X0071648Y0015251D01*
X0072437Y0014268D02*
X0028973Y0014268D01*
X0027990Y0013285D02*
X0073420Y0013285D01*
X0074808Y0012303D02*
X0026601Y0012303D01*
X0024562Y0011320D02*
X0076847Y0011320D01*
X0095425Y0031958D02*
X0005984Y0031958D01*
X0005984Y0032941D02*
X0095425Y0032941D01*
X0095425Y0033923D02*
X0005984Y0033923D01*
X0005984Y0034906D02*
X0095425Y0034906D01*
X0095425Y0035889D02*
X0005984Y0035889D01*
X0005984Y0036872D02*
X0095425Y0036872D01*
X0095425Y0037854D02*
X0005984Y0037854D01*
X0005984Y0038837D02*
X0095425Y0038837D01*
X0095425Y0039820D02*
X0005984Y0039820D01*
X0005984Y0040803D02*
X0095425Y0040803D01*
X0095425Y0041785D02*
X0005984Y0041785D01*
X0005984Y0042768D02*
X0095425Y0042768D01*
X0023604Y0046699D02*
X0018750Y0046699D01*
X0019733Y0047682D02*
X0022622Y0047682D01*
X0022043Y0048665D02*
X0020312Y0048665D01*
X0020717Y0049648D02*
X0021637Y0049648D01*
X0021637Y0050630D02*
X0020717Y0050630D01*
X0020650Y0051613D02*
X0021704Y0051613D01*
X0022111Y0052596D02*
X0020681Y0052596D01*
X0021664Y0053579D02*
X0022788Y0053579D01*
X0022794Y0057510D02*
X0019560Y0057510D01*
X0019544Y0056527D02*
X0018335Y0056527D01*
X0018561Y0055544D02*
X0005984Y0055544D01*
X0020240Y0058492D02*
X0022114Y0058492D01*
X0021707Y0059475D02*
X0020647Y0059475D01*
X0020717Y0060458D02*
X0021637Y0060458D01*
X0021637Y0061441D02*
X0020717Y0061441D01*
X0020667Y0062423D02*
X0022040Y0062423D01*
X0021649Y0063406D02*
X0022615Y0063406D01*
D14*
X0021177Y0065469D02*
X0016256Y0060547D01*
X0016177Y0060547D01*
X0021177Y0055626D02*
X0016256Y0050705D01*
X0016177Y0050547D01*
X0021177Y0055626D02*
X0028067Y0055626D01*
X0030035Y0053657D01*
X0071374Y0053657D01*
X0074327Y0050705D01*
X0075232Y0050547D01*
X0080232Y0055626D02*
X0032004Y0055626D01*
X0027083Y0060547D01*
X0026177Y0060547D01*
X0021177Y0065469D02*
X0069406Y0065469D01*
X0074327Y0060547D01*
X0075232Y0060547D01*
X0080232Y0055626D02*
X0085154Y0060547D01*
X0085232Y0060547D01*
X0085232Y0070547D02*
X0085154Y0071374D01*
X0081217Y0075311D01*
X0031020Y0075311D01*
X0027083Y0071374D01*
X0026177Y0070547D01*
X0026177Y0050547D02*
X0027083Y0049720D01*
X0031020Y0045783D01*
X0081217Y0045783D01*
X0085154Y0049720D01*
X0085232Y0050547D01*
M02*
