G75*
%MOIN*%
%OFA0B0*%
%FSLAX24Y24*%
%IPPOS*%
%LPD*%
%AMOC8*
5,1,8,0,0,1.08239X$1,22.5*
%
%ADD10R,0.0866X0.0630*%
%ADD11R,0.0709X0.0276*%
%ADD12OC8,0.0554*%
%ADD13C,0.0476*%
%ADD14R,0.0315X0.0394*%
%ADD15R,0.0394X0.0315*%
%ADD16R,0.0630X0.0866*%
%ADD17R,0.0276X0.0709*%
%ADD18R,0.0554X0.0554*%
%ADD19R,0.0512X0.0472*%
%ADD20C,0.0984*%
%ADD21C,0.1181*%
%ADD22OC8,0.0560*%
%ADD23OC8,0.0600*%
%ADD24C,0.0118*%
%ADD25C,0.0394*%
%ADD26OC8,0.0591*%
%ADD27C,0.0197*%
%ADD28C,0.0157*%
%ADD29R,0.0475X0.0475*%
%ADD30C,0.0475*%
%ADD31R,0.0396X0.0396*%
%ADD32OC8,0.0396*%
D10*
X014574Y001084D03*
X014574Y005179D03*
D11*
X015637Y004116D03*
X015637Y003624D03*
X015637Y003131D03*
X015637Y002639D03*
X015637Y002147D03*
D12*
X014062Y001734D03*
X009052Y002580D03*
X007733Y002580D03*
X014062Y004529D03*
D13*
X018416Y003131D03*
X020385Y003131D03*
D14*
X023255Y001163D03*
X023845Y001163D03*
X010066Y000966D03*
X009475Y000966D03*
X006719Y000966D03*
X006129Y000966D03*
X006523Y003131D03*
X007113Y003131D03*
D15*
X010086Y003151D03*
X010086Y003742D03*
X016464Y003624D03*
X016464Y004214D03*
D16*
X009771Y002069D03*
X007015Y002069D03*
D17*
X008147Y001006D03*
X008639Y001006D03*
D18*
X023550Y002631D03*
X023550Y003631D03*
D19*
X012448Y004116D03*
X010637Y004116D03*
X010637Y003131D03*
X012448Y003131D03*
X012448Y002147D03*
X010637Y002147D03*
D20*
X004849Y001242D02*
X003865Y001242D01*
X003078Y002639D02*
X003078Y003624D01*
D21*
X005538Y003722D02*
X005538Y002541D01*
D22*
X016916Y004706D03*
X021916Y004706D03*
D23*
X022416Y004706D03*
X016416Y004706D03*
D24*
X016956Y003624D02*
X018038Y004706D01*
X018038Y005297D01*
X016601Y004116D02*
X016464Y004214D01*
X016601Y004116D02*
X015637Y004116D01*
X015381Y004116D01*
X014397Y003131D01*
X013412Y003131D01*
X012920Y002639D01*
X011838Y002639D01*
X011739Y002738D01*
X012448Y003131D02*
X010637Y003131D01*
X011070Y003525D01*
X011070Y003604D01*
X010086Y003742D02*
X010086Y003998D01*
X009928Y004155D01*
X009101Y004155D01*
X009062Y004116D01*
X009082Y003230D02*
X008393Y003230D01*
X008344Y003181D01*
X008344Y002492D01*
X008147Y002295D01*
X008147Y001006D01*
X007408Y000966D02*
X006719Y000966D01*
X010066Y000966D02*
X010263Y000769D01*
X010755Y000769D01*
X010558Y001360D02*
X010558Y001399D01*
X010873Y001714D01*
X011660Y001714D01*
X011739Y001635D01*
X012704Y001635D01*
X013708Y002639D01*
X014830Y002639D01*
X014987Y002639D01*
X015637Y002639D01*
X014397Y002147D02*
X014298Y002246D01*
X013806Y002246D01*
X012920Y001360D01*
X011149Y001360D01*
X014397Y002147D02*
X015637Y002147D01*
X010637Y003131D02*
X010105Y003131D01*
X010086Y003151D01*
X008344Y003181D02*
X008294Y003131D01*
X007113Y003131D01*
X015637Y003624D02*
X016956Y003624D01*
X016464Y003624D02*
X015637Y003624D01*
D25*
X014889Y004509D02*
X014338Y003958D01*
X013786Y003958D01*
X013629Y004116D01*
X012448Y004116D01*
X010637Y004116D01*
X009062Y004116D01*
X014889Y004509D02*
X015086Y004509D01*
X015873Y005297D01*
X018038Y005297D01*
X022763Y005297D01*
X023156Y004903D01*
X023156Y004509D01*
X022763Y004116D01*
X022763Y002935D01*
X023050Y002631D01*
X023550Y002631D01*
D26*
X009062Y004116D03*
D27*
X006523Y003131D02*
X005538Y003131D01*
D28*
X001975Y000454D02*
X001975Y005809D01*
X024653Y005809D01*
X024653Y000454D01*
X011061Y000454D01*
X011112Y000505D01*
X011112Y001003D01*
X011412Y001003D01*
X011505Y001096D01*
X011505Y001142D01*
X013010Y001142D01*
X013896Y002028D01*
X014208Y002028D01*
X014306Y001929D01*
X015138Y001929D01*
X015217Y001851D01*
X016057Y001851D01*
X016150Y001944D01*
X016150Y002351D01*
X016107Y002393D01*
X016150Y002436D01*
X016150Y002843D01*
X016122Y002871D01*
X016134Y002884D01*
X016158Y002925D01*
X016170Y002970D01*
X016170Y003131D01*
X015637Y003131D01*
X015637Y003132D01*
X016170Y003132D01*
X016170Y003293D01*
X016158Y003338D01*
X016141Y003368D01*
X016201Y003307D01*
X016726Y003307D01*
X016819Y003400D01*
X016819Y003406D01*
X017046Y003406D01*
X018129Y004489D01*
X018256Y004616D01*
X018256Y004941D01*
X021531Y004941D01*
X021478Y004888D01*
X021478Y004525D01*
X021735Y004268D01*
X022098Y004268D01*
X022152Y004322D01*
X022226Y004248D01*
X022433Y004248D01*
X022407Y004186D01*
X022407Y002939D01*
X022405Y002873D01*
X022407Y002869D01*
X022407Y002864D01*
X022432Y002803D01*
X022456Y002741D01*
X022459Y002738D01*
X022461Y002733D01*
X022508Y002687D01*
X022747Y002435D01*
X022749Y002430D01*
X022795Y002383D01*
X022841Y002336D01*
X022845Y002334D01*
X022849Y002330D01*
X022910Y002305D01*
X022970Y002278D01*
X022975Y002278D01*
X022979Y002276D01*
X023045Y002276D01*
X023111Y002274D01*
X023116Y002276D01*
X023127Y002276D01*
X023207Y002196D01*
X023893Y002196D01*
X023986Y002289D01*
X023986Y002974D01*
X023893Y003067D01*
X023207Y003067D01*
X023166Y003026D01*
X023118Y003076D01*
X023118Y003284D01*
X023207Y003196D01*
X023893Y003196D01*
X023986Y003289D01*
X023986Y003974D01*
X023893Y004067D01*
X023217Y004067D01*
X023458Y004308D01*
X023512Y004439D01*
X023512Y004974D01*
X023458Y005105D01*
X023358Y005205D01*
X022964Y005598D01*
X022834Y005652D01*
X015802Y005652D01*
X015672Y005598D01*
X015173Y005100D01*
X014653Y005100D01*
X014653Y005257D01*
X015186Y005257D01*
X015186Y005517D01*
X015173Y005563D01*
X015150Y005603D01*
X015117Y005637D01*
X015076Y005660D01*
X015030Y005672D01*
X014653Y005672D01*
X014653Y005257D01*
X014495Y005257D01*
X014495Y005100D01*
X013962Y005100D01*
X013962Y004840D01*
X013974Y004795D01*
X013998Y004754D01*
X014031Y004721D01*
X014072Y004697D01*
X014117Y004685D01*
X014495Y004685D01*
X014495Y005100D01*
X014653Y005100D01*
X014653Y004776D01*
X014587Y004711D01*
X014190Y004314D01*
X013934Y004314D01*
X013930Y004317D01*
X013830Y004417D01*
X013700Y004471D01*
X012809Y004471D01*
X012769Y004511D01*
X012126Y004511D01*
X012087Y004471D01*
X010998Y004471D01*
X010958Y004511D01*
X010315Y004511D01*
X010276Y004471D01*
X009348Y004471D01*
X009250Y004570D01*
X008874Y004570D01*
X008608Y004304D01*
X008608Y003928D01*
X008874Y003662D01*
X009250Y003662D01*
X009348Y003760D01*
X009730Y003760D01*
X009730Y003518D01*
X009802Y003446D01*
X009730Y003374D01*
X009730Y002928D01*
X009823Y002835D01*
X010222Y002835D01*
X010222Y002830D01*
X008561Y002830D01*
X008795Y003012D02*
X008934Y002873D01*
X009230Y002873D01*
X009439Y003082D01*
X009439Y003378D01*
X009230Y003587D01*
X008934Y003587D01*
X008795Y003448D01*
X008303Y003448D01*
X008253Y003399D01*
X008204Y003349D01*
X007429Y003349D01*
X007429Y003394D01*
X007336Y003487D01*
X006890Y003487D01*
X006818Y003415D01*
X006746Y003487D01*
X006299Y003487D01*
X006288Y003475D01*
X006288Y003871D01*
X006174Y004146D01*
X005963Y004357D01*
X005687Y004471D01*
X005389Y004471D01*
X005114Y004357D01*
X004903Y004146D01*
X004789Y003871D01*
X004789Y002392D01*
X004903Y002117D01*
X005114Y001906D01*
X005389Y001792D01*
X005687Y001792D01*
X005963Y001906D01*
X006174Y002117D01*
X006288Y002392D01*
X006288Y002788D01*
X006299Y002776D01*
X006746Y002776D01*
X006818Y002848D01*
X006890Y002776D01*
X007336Y002776D01*
X007429Y002869D01*
X007429Y002914D01*
X008126Y002914D01*
X008126Y002582D01*
X007929Y002385D01*
X007929Y001504D01*
X007850Y001426D01*
X007850Y000585D01*
X007943Y000492D01*
X008350Y000492D01*
X008379Y000521D01*
X008391Y000508D01*
X008432Y000485D01*
X008477Y000472D01*
X008639Y000472D01*
X008800Y000472D01*
X008846Y000485D01*
X008886Y000508D01*
X008920Y000541D01*
X008943Y000582D01*
X008955Y000628D01*
X008955Y001006D01*
X008955Y001383D01*
X008943Y001429D01*
X008920Y001470D01*
X008886Y001503D01*
X008846Y001526D01*
X008800Y001539D01*
X008639Y001539D01*
X008639Y001006D01*
X008639Y001006D01*
X008955Y001006D01*
X008639Y001006D01*
X008639Y001006D01*
X008639Y001539D01*
X008477Y001539D01*
X008432Y001526D01*
X008391Y001503D01*
X008379Y001490D01*
X008364Y001504D01*
X008364Y002205D01*
X008434Y002274D01*
X008561Y002402D01*
X008561Y003012D01*
X008795Y003012D01*
X008821Y002986D02*
X008561Y002986D01*
X008126Y002830D02*
X007391Y002830D01*
X006835Y002830D02*
X006800Y002830D01*
X006676Y002680D02*
X006631Y002668D01*
X006590Y002645D01*
X006557Y002611D01*
X006533Y002571D01*
X006521Y002525D01*
X006521Y002147D01*
X006936Y002147D01*
X006936Y001990D01*
X006521Y001990D01*
X006521Y001612D01*
X006533Y001566D01*
X006557Y001526D01*
X006590Y001492D01*
X006631Y001469D01*
X006676Y001457D01*
X006936Y001457D01*
X006936Y001990D01*
X007094Y001990D01*
X007094Y002147D01*
X007508Y002147D01*
X007508Y002525D01*
X007496Y002571D01*
X007473Y002611D01*
X007439Y002645D01*
X007399Y002668D01*
X007353Y002680D01*
X007094Y002680D01*
X007094Y002147D01*
X006936Y002147D01*
X006936Y002680D01*
X006676Y002680D01*
X006654Y002674D02*
X006288Y002674D01*
X006288Y002518D02*
X006521Y002518D01*
X006936Y002518D02*
X007094Y002518D01*
X007508Y002518D02*
X008062Y002518D01*
X008126Y002674D02*
X007375Y002674D01*
X007094Y002674D02*
X006936Y002674D01*
X006936Y002362D02*
X007094Y002362D01*
X007508Y002362D02*
X007929Y002362D01*
X007929Y002206D02*
X007508Y002206D01*
X007094Y002206D02*
X006936Y002206D01*
X006521Y002206D02*
X006211Y002206D01*
X006275Y002362D02*
X006521Y002362D01*
X006108Y002051D02*
X006936Y002051D01*
X007094Y002051D02*
X007929Y002051D01*
X007929Y001895D02*
X007508Y001895D01*
X007508Y001990D02*
X007094Y001990D01*
X007094Y001457D01*
X007353Y001457D01*
X007399Y001469D01*
X007439Y001492D01*
X007473Y001526D01*
X007496Y001566D01*
X007508Y001612D01*
X007508Y001990D01*
X007094Y001895D02*
X006936Y001895D01*
X006521Y001895D02*
X005936Y001895D01*
X006521Y001739D02*
X005273Y001739D01*
X005218Y001794D02*
X004979Y001893D01*
X003736Y001893D01*
X003496Y001794D01*
X003313Y001610D01*
X003214Y001371D01*
X003214Y001112D01*
X003313Y000873D01*
X003496Y000690D01*
X003736Y000591D01*
X004979Y000591D01*
X005218Y000690D01*
X005401Y000873D01*
X005500Y001112D01*
X005500Y001371D01*
X005401Y001610D01*
X005218Y001794D01*
X005141Y001895D02*
X001975Y001895D01*
X001975Y002051D02*
X002756Y002051D01*
X002780Y002036D02*
X002704Y002080D01*
X002634Y002134D01*
X002572Y002196D01*
X002519Y002266D01*
X002475Y002342D01*
X002441Y002423D01*
X002418Y002508D01*
X002407Y002595D01*
X002407Y003131D01*
X002645Y003131D01*
X002645Y003132D01*
X002407Y003132D01*
X002407Y003668D01*
X002418Y003755D01*
X002441Y003840D01*
X002475Y003921D01*
X002519Y003997D01*
X002572Y004067D01*
X002634Y004129D01*
X002704Y004183D01*
X002780Y004227D01*
X002862Y004260D01*
X002947Y004283D01*
X003034Y004294D01*
X003078Y004294D01*
X003078Y004155D01*
X003078Y004155D01*
X003078Y004294D01*
X003122Y004294D01*
X003209Y004283D01*
X003294Y004260D01*
X003375Y004227D01*
X003451Y004183D01*
X003521Y004129D01*
X003583Y004067D01*
X003637Y003997D01*
X003681Y003921D01*
X003714Y003840D01*
X003737Y003755D01*
X003749Y003668D01*
X003749Y003132D01*
X003511Y003132D01*
X003511Y003131D01*
X003749Y003131D01*
X003749Y002595D01*
X003737Y002508D01*
X003714Y002423D01*
X003681Y002342D01*
X003637Y002266D01*
X003583Y002196D01*
X003521Y002134D01*
X003451Y002080D01*
X003375Y002036D01*
X003294Y002003D01*
X003209Y001980D01*
X003122Y001969D01*
X003078Y001969D01*
X003078Y002108D01*
X003078Y002108D01*
X003078Y001969D01*
X003034Y001969D01*
X002947Y001980D01*
X002862Y002003D01*
X002780Y002036D01*
X003078Y002051D02*
X003078Y002051D01*
X003400Y002051D02*
X004969Y002051D01*
X004866Y002206D02*
X003591Y002206D01*
X003689Y002362D02*
X004801Y002362D01*
X004789Y002518D02*
X003738Y002518D01*
X003749Y002674D02*
X004789Y002674D01*
X004789Y002830D02*
X003749Y002830D01*
X003749Y002986D02*
X004789Y002986D01*
X004789Y003142D02*
X003749Y003142D01*
X003749Y003298D02*
X004789Y003298D01*
X004789Y003454D02*
X003749Y003454D01*
X003749Y003610D02*
X004789Y003610D01*
X004789Y003766D02*
X003734Y003766D01*
X003680Y003922D02*
X004810Y003922D01*
X004875Y004078D02*
X003572Y004078D01*
X003357Y004234D02*
X004991Y004234D01*
X005193Y004390D02*
X001975Y004390D01*
X001975Y004546D02*
X007230Y004546D01*
X007201Y004517D02*
X007094Y004257D01*
X007094Y003975D01*
X007201Y003714D01*
X007401Y003515D01*
X007661Y003407D01*
X007943Y003407D01*
X008204Y003515D01*
X008403Y003714D01*
X008511Y003975D01*
X008511Y004257D01*
X008403Y004517D01*
X008204Y004717D01*
X007943Y004824D01*
X007661Y004824D01*
X007401Y004717D01*
X007201Y004517D01*
X007149Y004390D02*
X005883Y004390D01*
X006086Y004234D02*
X007094Y004234D01*
X007094Y004078D02*
X006202Y004078D01*
X006266Y003922D02*
X007115Y003922D01*
X007180Y003766D02*
X006288Y003766D01*
X006288Y003610D02*
X007305Y003610D01*
X007369Y003454D02*
X007547Y003454D01*
X008057Y003454D02*
X008801Y003454D01*
X008299Y003610D02*
X009730Y003610D01*
X009794Y003454D02*
X009362Y003454D01*
X009439Y003298D02*
X009730Y003298D01*
X009730Y003142D02*
X009439Y003142D01*
X009343Y002986D02*
X009730Y002986D01*
X010222Y002830D02*
X010315Y002737D01*
X010958Y002737D01*
X011051Y002830D01*
X011382Y002830D01*
X011382Y002886D02*
X011382Y002590D01*
X011591Y002381D01*
X011887Y002381D01*
X011928Y002422D01*
X012017Y002422D01*
X012013Y002407D01*
X012013Y002187D01*
X012408Y002187D01*
X012408Y002108D01*
X012013Y002108D01*
X012013Y001887D01*
X012022Y001853D01*
X011829Y001853D01*
X011751Y001932D01*
X011071Y001932D01*
X011071Y002108D01*
X010676Y002108D01*
X010676Y002187D01*
X010597Y002187D01*
X010597Y002562D01*
X010357Y002562D01*
X010312Y002550D01*
X010271Y002526D01*
X010264Y002520D01*
X010264Y002525D01*
X010252Y002571D01*
X010229Y002611D01*
X010195Y002645D01*
X010155Y002668D01*
X010109Y002680D01*
X009849Y002680D01*
X009849Y002147D01*
X009692Y002147D01*
X009692Y001990D01*
X009277Y001990D01*
X009277Y001612D01*
X009289Y001566D01*
X009313Y001526D01*
X009346Y001492D01*
X009387Y001469D01*
X009432Y001457D01*
X009692Y001457D01*
X009692Y001990D01*
X009849Y001990D01*
X009849Y001457D01*
X010109Y001457D01*
X010155Y001469D01*
X010195Y001492D01*
X010201Y001498D01*
X010201Y001322D01*
X009843Y001322D01*
X009782Y001261D01*
X009776Y001273D01*
X009743Y001306D01*
X009702Y001330D01*
X009656Y001342D01*
X009475Y001342D01*
X009294Y001342D01*
X009249Y001330D01*
X009208Y001306D01*
X009175Y001273D01*
X009151Y001232D01*
X009139Y001187D01*
X009139Y000966D01*
X009139Y000746D01*
X009151Y000700D01*
X009175Y000660D01*
X009208Y000626D01*
X009249Y000603D01*
X009294Y000591D01*
X009475Y000591D01*
X009475Y000966D01*
X009139Y000966D01*
X009475Y000966D01*
X009475Y000966D01*
X009475Y000966D01*
X009475Y001342D01*
X009475Y000966D01*
X009475Y000966D01*
X009475Y000591D01*
X009656Y000591D01*
X009702Y000603D01*
X009743Y000626D01*
X009776Y000660D01*
X009782Y000671D01*
X009843Y000611D01*
X010114Y000611D01*
X010173Y000551D01*
X010398Y000551D01*
X010398Y000505D01*
X010449Y000454D01*
X001975Y000454D01*
X001975Y000491D02*
X008421Y000491D01*
X008639Y000491D02*
X008639Y000491D01*
X008639Y000472D02*
X008639Y001005D01*
X008639Y001005D01*
X008639Y000472D01*
X008856Y000491D02*
X010413Y000491D01*
X009807Y000647D02*
X009763Y000647D01*
X009475Y000647D02*
X009475Y000647D01*
X009188Y000647D02*
X008955Y000647D01*
X008639Y000647D02*
X008639Y000647D01*
X008639Y000803D02*
X008639Y000803D01*
X008955Y000803D02*
X009139Y000803D01*
X009475Y000803D02*
X009475Y000803D01*
X009475Y000959D02*
X009475Y000959D01*
X009139Y000959D02*
X008955Y000959D01*
X008639Y000959D02*
X008639Y000959D01*
X008639Y001115D02*
X008639Y001115D01*
X008955Y001115D02*
X009139Y001115D01*
X009475Y001115D02*
X009475Y001115D01*
X009475Y001271D02*
X009475Y001271D01*
X009174Y001271D02*
X008955Y001271D01*
X008639Y001271D02*
X008639Y001271D01*
X008639Y001427D02*
X008639Y001427D01*
X008944Y001427D02*
X010201Y001427D01*
X009792Y001271D02*
X009777Y001271D01*
X009849Y001583D02*
X009692Y001583D01*
X009692Y001739D02*
X009849Y001739D01*
X009849Y001895D02*
X009692Y001895D01*
X009849Y001990D02*
X009849Y002147D01*
X010264Y002147D01*
X010264Y002187D01*
X010597Y002187D01*
X010597Y002108D01*
X010202Y002108D01*
X010202Y001990D01*
X009849Y001990D01*
X009849Y002051D02*
X010202Y002051D01*
X010676Y002187D02*
X010676Y002562D01*
X010916Y002562D01*
X010962Y002550D01*
X011002Y002526D01*
X011036Y002493D01*
X011059Y002452D01*
X011071Y002407D01*
X011071Y002187D01*
X010676Y002187D01*
X010676Y002206D02*
X010597Y002206D01*
X010597Y002362D02*
X010676Y002362D01*
X011071Y002362D02*
X012013Y002362D01*
X012013Y002206D02*
X011071Y002206D01*
X011071Y002051D02*
X012013Y002051D01*
X012013Y001895D02*
X011788Y001895D01*
X012487Y002108D02*
X012487Y002187D01*
X012882Y002187D01*
X012882Y002407D01*
X012879Y002422D01*
X013010Y002422D01*
X013503Y002914D01*
X014487Y002914D01*
X015124Y003551D01*
X015124Y003420D01*
X015152Y003392D01*
X015139Y003379D01*
X015116Y003338D01*
X015104Y003293D01*
X015104Y003132D01*
X015637Y003132D01*
X015637Y003131D01*
X015104Y003131D01*
X015104Y002970D01*
X015116Y002925D01*
X015139Y002884D01*
X015152Y002871D01*
X015138Y002857D01*
X013617Y002857D01*
X013490Y002730D01*
X012868Y002108D01*
X012487Y002108D01*
X012882Y002206D02*
X012967Y002206D01*
X012882Y002362D02*
X013123Y002362D01*
X013107Y002518D02*
X013279Y002518D01*
X013263Y002674D02*
X013435Y002674D01*
X013419Y002830D02*
X013591Y002830D01*
X014560Y002986D02*
X015104Y002986D01*
X015104Y003142D02*
X014716Y003142D01*
X014872Y003298D02*
X015105Y003298D01*
X015124Y003454D02*
X015027Y003454D01*
X016168Y003298D02*
X018056Y003298D01*
X018080Y003356D02*
X018020Y003210D01*
X018020Y003053D01*
X018080Y002907D01*
X018192Y002795D01*
X018337Y002735D01*
X018495Y002735D01*
X018641Y002795D01*
X018753Y002907D01*
X018813Y003053D01*
X018813Y003210D01*
X018753Y003356D01*
X018641Y003468D01*
X018495Y003528D01*
X018337Y003528D01*
X018192Y003468D01*
X018080Y003356D01*
X018178Y003454D02*
X017094Y003454D01*
X017250Y003610D02*
X022407Y003610D01*
X022407Y003454D02*
X020623Y003454D01*
X020609Y003468D02*
X020464Y003528D01*
X020306Y003528D01*
X020160Y003468D01*
X020049Y003356D01*
X019988Y003210D01*
X019988Y003053D01*
X020049Y002907D01*
X020160Y002795D01*
X020306Y002735D01*
X020464Y002735D01*
X020609Y002795D01*
X020708Y002894D01*
X021188Y002894D01*
X022939Y001143D01*
X022939Y000900D01*
X023032Y000807D01*
X023478Y000807D01*
X023538Y000868D01*
X023545Y000856D01*
X023578Y000823D01*
X023619Y000800D01*
X023664Y000787D01*
X023845Y000787D01*
X023845Y001163D01*
X023845Y001539D01*
X023664Y001539D01*
X023619Y001526D01*
X023578Y001503D01*
X023545Y001470D01*
X023538Y001458D01*
X023478Y001519D01*
X023235Y001519D01*
X021524Y003230D01*
X021385Y003369D01*
X020708Y003369D01*
X020609Y003468D01*
X020147Y003454D02*
X018654Y003454D01*
X018776Y003298D02*
X020025Y003298D01*
X019988Y003142D02*
X018813Y003142D01*
X018785Y002986D02*
X020016Y002986D01*
X020125Y002830D02*
X018676Y002830D01*
X018157Y002830D02*
X016150Y002830D01*
X016170Y002986D02*
X018047Y002986D01*
X018020Y003142D02*
X016170Y003142D01*
X016150Y002674D02*
X021408Y002674D01*
X021564Y002518D02*
X016150Y002518D01*
X016138Y002362D02*
X021720Y002362D01*
X021876Y002206D02*
X016150Y002206D01*
X016150Y002051D02*
X022032Y002051D01*
X022188Y001895D02*
X016101Y001895D01*
X015173Y001895D02*
X013763Y001895D01*
X013607Y001739D02*
X022344Y001739D01*
X022500Y001583D02*
X013451Y001583D01*
X013974Y001468D02*
X013962Y001423D01*
X013962Y001163D01*
X014495Y001163D01*
X014495Y001006D01*
X013962Y001006D01*
X013962Y000746D01*
X013974Y000700D01*
X013998Y000660D01*
X014031Y000626D01*
X014072Y000603D01*
X014117Y000591D01*
X014495Y000591D01*
X014495Y001006D01*
X014653Y001006D01*
X014653Y001163D01*
X015186Y001163D01*
X015186Y001423D01*
X015173Y001468D01*
X015150Y001509D01*
X015117Y001542D01*
X015076Y001566D01*
X015030Y001578D01*
X014653Y001578D01*
X014653Y001163D01*
X014495Y001163D01*
X014495Y001578D01*
X014117Y001578D01*
X014072Y001566D01*
X014031Y001542D01*
X013998Y001509D01*
X013974Y001468D01*
X013963Y001427D02*
X013295Y001427D01*
X013139Y001271D02*
X013962Y001271D01*
X014495Y001271D02*
X014653Y001271D01*
X014653Y001427D02*
X014495Y001427D01*
X015185Y001427D02*
X022655Y001427D01*
X022811Y001271D02*
X015186Y001271D01*
X014653Y001115D02*
X022939Y001115D01*
X023255Y001163D02*
X021286Y003131D01*
X020385Y003131D01*
X020645Y002830D02*
X021252Y002830D01*
X021767Y002986D02*
X022407Y002986D01*
X022421Y002830D02*
X021923Y002830D01*
X022079Y002674D02*
X022520Y002674D01*
X022667Y002518D02*
X022235Y002518D01*
X022391Y002362D02*
X022815Y002362D01*
X022547Y002206D02*
X023196Y002206D01*
X022703Y002051D02*
X024653Y002051D01*
X024653Y001895D02*
X022859Y001895D01*
X023015Y001739D02*
X024653Y001739D01*
X024653Y001583D02*
X023171Y001583D01*
X023845Y001539D02*
X023845Y001163D01*
X023845Y001163D01*
X023845Y001163D01*
X023845Y000787D01*
X024026Y000787D01*
X024072Y000800D01*
X024113Y000823D01*
X024146Y000856D01*
X024170Y000897D01*
X024182Y000943D01*
X024182Y001163D01*
X024182Y001383D01*
X024170Y001429D01*
X024146Y001470D01*
X024113Y001503D01*
X024072Y001526D01*
X024026Y001539D01*
X023845Y001539D01*
X023845Y001427D02*
X023845Y001427D01*
X023845Y001271D02*
X023845Y001271D01*
X023845Y001163D02*
X024182Y001163D01*
X023845Y001163D01*
X023845Y001163D01*
X023845Y001115D02*
X023845Y001115D01*
X023845Y000959D02*
X023845Y000959D01*
X024182Y000959D02*
X024653Y000959D01*
X024653Y001115D02*
X024182Y001115D01*
X024182Y001271D02*
X024653Y001271D01*
X024653Y001427D02*
X024170Y001427D01*
X022939Y000959D02*
X015186Y000959D01*
X015186Y001006D02*
X014653Y001006D01*
X014653Y000591D01*
X015030Y000591D01*
X015076Y000603D01*
X015117Y000626D01*
X015150Y000660D01*
X015173Y000700D01*
X015186Y000746D01*
X015186Y001006D01*
X014653Y000959D02*
X014495Y000959D01*
X014495Y001115D02*
X011505Y001115D01*
X011112Y000959D02*
X013962Y000959D01*
X013962Y000803D02*
X011112Y000803D01*
X011112Y000647D02*
X014011Y000647D01*
X014495Y000647D02*
X014653Y000647D01*
X014653Y000803D02*
X014495Y000803D01*
X015137Y000647D02*
X024653Y000647D01*
X024653Y000803D02*
X024077Y000803D01*
X023845Y000803D02*
X023845Y000803D01*
X023614Y000803D02*
X015186Y000803D01*
X011097Y000491D02*
X024653Y000491D01*
X024653Y002206D02*
X023904Y002206D01*
X023986Y002362D02*
X024653Y002362D01*
X024653Y002518D02*
X023986Y002518D01*
X023986Y002674D02*
X024653Y002674D01*
X024653Y002830D02*
X023986Y002830D01*
X023974Y002986D02*
X024653Y002986D01*
X024653Y003142D02*
X023118Y003142D01*
X022407Y003142D02*
X021611Y003142D01*
X021524Y003230D02*
X021524Y003230D01*
X021455Y003298D02*
X022407Y003298D01*
X023986Y003298D02*
X024653Y003298D01*
X024653Y003454D02*
X023986Y003454D01*
X023986Y003610D02*
X024653Y003610D01*
X024653Y003766D02*
X023986Y003766D01*
X023986Y003922D02*
X024653Y003922D01*
X024653Y004078D02*
X023228Y004078D01*
X023384Y004234D02*
X024653Y004234D01*
X024653Y004390D02*
X023492Y004390D01*
X023512Y004546D02*
X024653Y004546D01*
X024653Y004702D02*
X023512Y004702D01*
X023512Y004858D02*
X024653Y004858D01*
X024653Y005014D02*
X023495Y005014D01*
X023392Y005170D02*
X024653Y005170D01*
X024653Y005326D02*
X023236Y005326D01*
X023080Y005482D02*
X024653Y005482D01*
X024653Y005638D02*
X022868Y005638D01*
X024653Y005794D02*
X001975Y005794D01*
X001975Y005638D02*
X014033Y005638D01*
X014031Y005637D02*
X013998Y005603D01*
X013974Y005563D01*
X013962Y005517D01*
X013962Y005257D01*
X014495Y005257D01*
X014495Y005672D01*
X014117Y005672D01*
X014072Y005660D01*
X014031Y005637D01*
X014495Y005638D02*
X014653Y005638D01*
X015114Y005638D02*
X015768Y005638D01*
X015555Y005482D02*
X015186Y005482D01*
X015186Y005326D02*
X015399Y005326D01*
X015243Y005170D02*
X014653Y005170D01*
X014495Y005170D02*
X001975Y005170D01*
X001975Y005014D02*
X013962Y005014D01*
X014495Y005014D02*
X014653Y005014D01*
X014653Y004858D02*
X014495Y004858D01*
X014495Y004702D02*
X014579Y004702D01*
X014063Y004702D02*
X008218Y004702D01*
X008374Y004546D02*
X008850Y004546D01*
X009274Y004546D02*
X014423Y004546D01*
X014267Y004390D02*
X013857Y004390D01*
X013962Y004858D02*
X001975Y004858D01*
X001975Y004702D02*
X007386Y004702D01*
X008456Y004390D02*
X008694Y004390D01*
X008608Y004234D02*
X008511Y004234D01*
X008511Y004078D02*
X008608Y004078D01*
X008613Y003922D02*
X008489Y003922D01*
X008424Y003766D02*
X008769Y003766D01*
X006857Y003454D02*
X006779Y003454D01*
X008561Y002674D02*
X009410Y002674D01*
X009432Y002680D02*
X009387Y002668D01*
X009346Y002645D01*
X009313Y002611D01*
X009289Y002571D01*
X009277Y002525D01*
X009277Y002147D01*
X009692Y002147D01*
X009692Y002680D01*
X009432Y002680D01*
X009692Y002674D02*
X009849Y002674D01*
X010131Y002674D02*
X011382Y002674D01*
X011454Y002518D02*
X011011Y002518D01*
X010676Y002518D02*
X010597Y002518D01*
X009849Y002518D02*
X009692Y002518D01*
X009277Y002518D02*
X008561Y002518D01*
X008522Y002362D02*
X009277Y002362D01*
X009277Y002206D02*
X008366Y002206D01*
X008364Y002051D02*
X009692Y002051D01*
X009277Y001895D02*
X008364Y001895D01*
X008364Y001739D02*
X009277Y001739D01*
X009285Y001583D02*
X008364Y001583D01*
X007929Y001583D02*
X007501Y001583D01*
X007094Y001583D02*
X006936Y001583D01*
X006529Y001583D02*
X005413Y001583D01*
X005477Y001427D02*
X007851Y001427D01*
X007672Y001323D02*
X007145Y001323D01*
X007052Y001230D01*
X007052Y001184D01*
X007036Y001184D01*
X007036Y001229D01*
X006943Y001322D01*
X006496Y001322D01*
X006436Y001261D01*
X006429Y001273D01*
X006396Y001306D01*
X006355Y001330D01*
X006310Y001342D01*
X006129Y001342D01*
X006129Y000966D01*
X006129Y000591D01*
X006310Y000591D01*
X006355Y000603D01*
X006396Y000626D01*
X006429Y000660D01*
X006436Y000671D01*
X006496Y000611D01*
X006943Y000611D01*
X007036Y000704D01*
X007036Y000748D01*
X007052Y000748D01*
X007052Y000702D01*
X007145Y000609D01*
X007672Y000609D01*
X007765Y000702D01*
X007765Y001230D01*
X007672Y001323D01*
X007725Y001271D02*
X007850Y001271D01*
X007850Y001115D02*
X007765Y001115D01*
X007765Y000959D02*
X007850Y000959D01*
X007850Y000803D02*
X007765Y000803D01*
X007710Y000647D02*
X007850Y000647D01*
X007107Y000647D02*
X006979Y000647D01*
X006460Y000647D02*
X006417Y000647D01*
X006129Y000647D02*
X006129Y000647D01*
X006129Y000591D02*
X005948Y000591D01*
X005902Y000603D01*
X005862Y000626D01*
X005828Y000660D01*
X005805Y000700D01*
X005793Y000746D01*
X005793Y000966D01*
X006129Y000966D01*
X006129Y000966D01*
X006129Y000591D01*
X005841Y000647D02*
X005114Y000647D01*
X005331Y000803D02*
X005793Y000803D01*
X006129Y000803D02*
X006129Y000803D01*
X006129Y000959D02*
X006129Y000959D01*
X006129Y000966D02*
X006129Y000966D01*
X006129Y000966D01*
X005793Y000966D01*
X005793Y001187D01*
X005805Y001232D01*
X005828Y001273D01*
X005862Y001306D01*
X005902Y001330D01*
X005948Y001342D01*
X006129Y001342D01*
X006129Y000966D01*
X005793Y000959D02*
X005437Y000959D01*
X005500Y001115D02*
X005793Y001115D01*
X006129Y001115D02*
X006129Y001115D01*
X006129Y001271D02*
X006129Y001271D01*
X006431Y001271D02*
X006445Y001271D01*
X006994Y001271D02*
X007092Y001271D01*
X005827Y001271D02*
X005500Y001271D01*
X006936Y001739D02*
X007094Y001739D01*
X007508Y001739D02*
X007929Y001739D01*
X009692Y002206D02*
X009849Y002206D01*
X009849Y002362D02*
X009692Y002362D01*
X011051Y002830D02*
X011051Y002914D01*
X011410Y002914D01*
X011382Y002886D01*
X017406Y003766D02*
X022407Y003766D01*
X022407Y003922D02*
X017562Y003922D01*
X017718Y004078D02*
X022407Y004078D01*
X022427Y004234D02*
X017874Y004234D01*
X018030Y004390D02*
X021612Y004390D01*
X021478Y004546D02*
X018186Y004546D01*
X018256Y004702D02*
X021478Y004702D01*
X021478Y004858D02*
X018256Y004858D01*
X014653Y005326D02*
X014495Y005326D01*
X014495Y005482D02*
X014653Y005482D01*
X013962Y005482D02*
X001975Y005482D01*
X001975Y005326D02*
X013962Y005326D01*
X003078Y004234D02*
X003078Y004234D01*
X002799Y004234D02*
X001975Y004234D01*
X001975Y004078D02*
X002584Y004078D01*
X002476Y003922D02*
X001975Y003922D01*
X001975Y003766D02*
X002421Y003766D01*
X002407Y003610D02*
X001975Y003610D01*
X001975Y003454D02*
X002407Y003454D01*
X002407Y003298D02*
X001975Y003298D01*
X001975Y003142D02*
X002407Y003142D01*
X002407Y002986D02*
X001975Y002986D01*
X001975Y002830D02*
X002407Y002830D01*
X002407Y002674D02*
X001975Y002674D01*
X001975Y002518D02*
X002417Y002518D01*
X002466Y002362D02*
X001975Y002362D01*
X001975Y002206D02*
X002564Y002206D01*
X001975Y001739D02*
X003442Y001739D01*
X003302Y001583D02*
X001975Y001583D01*
X001975Y001427D02*
X003237Y001427D01*
X003214Y001271D02*
X001975Y001271D01*
X001975Y001115D02*
X003214Y001115D01*
X003278Y000959D02*
X001975Y000959D01*
X001975Y000803D02*
X003384Y000803D01*
X003601Y000647D02*
X001975Y000647D01*
D29*
X005676Y005277D03*
D30*
X010460Y005277D03*
D31*
X010558Y001360D03*
X011149Y001360D03*
X010755Y000769D03*
X007408Y000966D03*
D32*
X011739Y002738D03*
X009082Y003230D03*
X011070Y003604D03*
M02*
