G75*
%MOIN*%
%OFA0B0*%
%FSLAX24Y24*%
%IPPOS*%
%LPD*%
%AMOC8*
5,1,8,0,0,1.08239X$1,22.5*
%
%ADD10C,0.0120*%
%ADD11C,0.0050*%
%ADD12C,0.0020*%
%ADD13C,0.0063*%
%ADD14C,0.0030*%
%ADD15C,0.0197*%
%ADD16C,0.0118*%
%ADD17C,0.0040*%
D10*
X013861Y001281D02*
X015279Y001281D01*
X015279Y004982D01*
X013861Y004982D01*
X013861Y001281D01*
D11*
X016921Y003131D02*
X016923Y003230D01*
X016929Y003329D01*
X016939Y003428D01*
X016953Y003526D01*
X016970Y003624D01*
X016992Y003721D01*
X017018Y003817D01*
X017047Y003912D01*
X017080Y004005D01*
X017117Y004097D01*
X017157Y004188D01*
X017202Y004277D01*
X017249Y004364D01*
X017300Y004449D01*
X017355Y004532D01*
X017412Y004613D01*
X017473Y004691D01*
X017537Y004767D01*
X017604Y004840D01*
X017674Y004911D01*
X017746Y004978D01*
X017822Y005043D01*
X017899Y005105D01*
X017980Y005163D01*
X018062Y005219D01*
X018147Y005270D01*
X018233Y005319D01*
X018322Y005364D01*
X018412Y005405D01*
X018504Y005443D01*
X018597Y005477D01*
X018691Y005507D01*
X018787Y005534D01*
X018884Y005556D01*
X018981Y005575D01*
X019079Y005590D01*
X019178Y005601D01*
X019277Y005608D01*
X019376Y005611D01*
X019475Y005610D01*
X019575Y005605D01*
X019673Y005596D01*
X019772Y005583D01*
X019870Y005566D01*
X019967Y005546D01*
X020063Y005521D01*
X020158Y005493D01*
X020252Y005460D01*
X020344Y005425D01*
X020435Y005385D01*
X020525Y005342D01*
X020612Y005295D01*
X020698Y005245D01*
X020781Y005191D01*
X020863Y005134D01*
X020942Y005074D01*
X021018Y005011D01*
X021092Y004945D01*
X021163Y004876D01*
X021232Y004804D01*
X021297Y004729D01*
X021360Y004652D01*
X021419Y004573D01*
X021475Y004491D01*
X021528Y004407D01*
X021577Y004321D01*
X021623Y004233D01*
X021665Y004143D01*
X021704Y004051D01*
X021739Y003958D01*
X021770Y003864D01*
X021798Y003769D01*
X021821Y003672D01*
X021841Y003575D01*
X021857Y003477D01*
X021869Y003379D01*
X021877Y003280D01*
X021881Y003181D01*
X021881Y003081D01*
X021877Y002982D01*
X021869Y002883D01*
X021857Y002785D01*
X021841Y002687D01*
X021821Y002590D01*
X021798Y002493D01*
X021770Y002398D01*
X021739Y002304D01*
X021704Y002211D01*
X021665Y002119D01*
X021623Y002029D01*
X021577Y001941D01*
X021528Y001855D01*
X021475Y001771D01*
X021419Y001689D01*
X021360Y001610D01*
X021297Y001533D01*
X021232Y001458D01*
X021163Y001386D01*
X021092Y001317D01*
X021018Y001251D01*
X020942Y001188D01*
X020863Y001128D01*
X020781Y001071D01*
X020698Y001017D01*
X020612Y000967D01*
X020525Y000920D01*
X020435Y000877D01*
X020344Y000837D01*
X020252Y000802D01*
X020158Y000769D01*
X020063Y000741D01*
X019967Y000716D01*
X019870Y000696D01*
X019772Y000679D01*
X019673Y000666D01*
X019575Y000657D01*
X019475Y000652D01*
X019376Y000651D01*
X019277Y000654D01*
X019178Y000661D01*
X019079Y000672D01*
X018981Y000687D01*
X018884Y000706D01*
X018787Y000728D01*
X018691Y000755D01*
X018597Y000785D01*
X018504Y000819D01*
X018412Y000857D01*
X018322Y000898D01*
X018233Y000943D01*
X018147Y000992D01*
X018062Y001043D01*
X017980Y001099D01*
X017899Y001157D01*
X017822Y001219D01*
X017746Y001284D01*
X017674Y001351D01*
X017604Y001422D01*
X017537Y001495D01*
X017473Y001571D01*
X017412Y001649D01*
X017355Y001730D01*
X017300Y001813D01*
X017249Y001898D01*
X017202Y001985D01*
X017157Y002074D01*
X017117Y002165D01*
X017080Y002257D01*
X017047Y002350D01*
X017018Y002445D01*
X016992Y002541D01*
X016970Y002638D01*
X016953Y002736D01*
X016939Y002834D01*
X016929Y002933D01*
X016923Y003032D01*
X016921Y003131D01*
X023050Y002131D02*
X023050Y004131D01*
X024050Y004131D01*
X024050Y002131D01*
X023050Y002131D01*
D12*
X023152Y001793D02*
X023290Y001793D01*
X023336Y001747D01*
X023336Y001655D01*
X023290Y001609D01*
X023152Y001609D01*
X023152Y001517D02*
X023152Y001793D01*
X023696Y001793D02*
X023834Y001793D01*
X023880Y001747D01*
X023880Y001701D01*
X023834Y001655D01*
X023696Y001655D01*
X023834Y001655D02*
X023880Y001609D01*
X023880Y001563D01*
X023834Y001517D01*
X023696Y001517D01*
X023696Y001793D01*
X023336Y001517D02*
X023244Y001609D01*
X023424Y001472D02*
X023608Y001472D01*
X016746Y002143D02*
X016746Y002327D01*
X016608Y002415D02*
X016424Y002415D01*
X016608Y002415D02*
X016700Y002507D01*
X016608Y002599D01*
X016424Y002599D01*
X016424Y002687D02*
X016424Y002825D01*
X016470Y002871D01*
X016562Y002871D01*
X016608Y002825D01*
X016608Y002687D01*
X016700Y002687D02*
X016424Y002687D01*
X016424Y002959D02*
X016424Y003097D01*
X016470Y003142D01*
X016562Y003142D01*
X016608Y003097D01*
X016608Y002959D01*
X016700Y002959D02*
X016424Y002959D01*
X016470Y002055D02*
X016562Y002055D01*
X016608Y002009D01*
X016608Y001871D01*
X016700Y001871D02*
X016424Y001871D01*
X016424Y002009D01*
X016470Y002055D01*
X016608Y001963D02*
X016700Y002055D01*
X009731Y003185D02*
X009456Y003185D01*
X009456Y003322D01*
X009502Y003368D01*
X009593Y003368D01*
X009639Y003322D01*
X009639Y003185D01*
X009639Y003276D02*
X009731Y003368D01*
X009731Y003456D02*
X009547Y003640D01*
X009502Y003640D01*
X009456Y003594D01*
X009456Y003502D01*
X009502Y003456D01*
X009731Y003456D02*
X009731Y003640D01*
X007012Y003486D02*
X006828Y003486D01*
X006740Y003486D02*
X006648Y003578D01*
X006694Y003578D02*
X006556Y003578D01*
X006694Y003578D02*
X006740Y003624D01*
X006740Y003716D01*
X006694Y003761D01*
X006556Y003761D01*
X006556Y003486D01*
X006920Y003486D02*
X006920Y003761D01*
X006828Y003670D01*
D13*
X005873Y001163D02*
X005873Y000769D01*
X009219Y000769D02*
X009219Y001163D01*
D14*
X005904Y000312D02*
X005714Y000312D01*
X005714Y000597D01*
X006004Y000597D02*
X006004Y000312D01*
X006194Y000312D01*
X006294Y000312D02*
X006437Y000312D01*
X006484Y000359D01*
X006484Y000550D01*
X006437Y000597D01*
X006294Y000597D01*
X006294Y000312D01*
X006584Y000264D02*
X006774Y000264D01*
X006874Y000312D02*
X007017Y000312D01*
X007064Y000359D01*
X007064Y000407D01*
X007017Y000454D01*
X006874Y000454D01*
X007017Y000454D02*
X007064Y000502D01*
X007064Y000550D01*
X007017Y000597D01*
X006874Y000597D01*
X006874Y000312D01*
X006099Y000454D02*
X006004Y000454D01*
X006004Y000597D02*
X006194Y000597D01*
X009061Y000597D02*
X009061Y000312D01*
X009251Y000312D01*
X009351Y000312D02*
X009541Y000312D01*
X009641Y000312D02*
X009783Y000312D01*
X009831Y000359D01*
X009831Y000550D01*
X009783Y000597D01*
X009641Y000597D01*
X009641Y000312D01*
X009351Y000312D02*
X009351Y000597D01*
X009541Y000597D01*
X009446Y000454D02*
X009351Y000454D01*
X009931Y000264D02*
X010121Y000264D01*
X010221Y000359D02*
X010268Y000312D01*
X010363Y000312D01*
X010411Y000359D01*
X010411Y000454D01*
X010316Y000454D01*
X010221Y000359D02*
X010221Y000550D01*
X010268Y000597D01*
X010363Y000597D01*
X010411Y000550D01*
X004517Y005312D02*
X004274Y005312D01*
X004395Y005312D02*
X004395Y005676D01*
X004274Y005555D01*
X004154Y005676D02*
X004033Y005676D01*
X004093Y005676D02*
X004093Y005373D01*
X004033Y005312D01*
X003972Y005312D01*
X003911Y005373D01*
D15*
X010853Y004805D02*
X012231Y004805D01*
X012231Y001458D01*
X010853Y001458D01*
X010853Y004805D01*
X011247Y004017D02*
X011838Y004017D01*
X011838Y003525D01*
X011247Y003525D01*
X011247Y004017D01*
D16*
X011149Y004116D02*
X011936Y004116D01*
X011936Y002147D01*
X011149Y002147D01*
X011149Y004116D01*
D17*
X012809Y003799D02*
X012962Y003952D01*
X012962Y003492D01*
X012809Y003492D02*
X013115Y003492D01*
X013039Y002771D02*
X012885Y002771D01*
X012809Y002695D01*
X013039Y002771D02*
X013115Y002695D01*
X013115Y002618D01*
X012809Y002311D01*
X013115Y002311D01*
M02*
