%
M48
M72
T01C0.0236
T02C0.0276
T03C0.0315
T04C0.0354
T05C0.0360
T06C0.0394
T07C0.0400
T08C0.0866
%
T01
X7408Y966
X10558Y1360
X11149Y1360
X10755Y769
X11739Y2738
X9082Y3230
X11070Y3604
T02
X18416Y3131
X20385Y3131
T03
X3767Y1242
X3806Y1242
X3845Y1242
X3885Y1242
X3924Y1242
X3964Y1242
X4003Y1242
X4042Y1242
X4082Y1242
X4121Y1242
X4160Y1242
X4200Y1242
X4239Y1242
X4279Y1242
X4318Y1242
X4357Y1242
X4357Y1242
X4397Y1242
X4436Y1242
X4475Y1242
X4515Y1242
X4554Y1242
X4594Y1242
X4633Y1242
X4672Y1242
X4712Y1242
X4751Y1242
X4790Y1242
X4830Y1242
X4869Y1242
X4908Y1242
X4948Y1242
X3078Y2541
X3078Y2580
X3078Y2620
X3078Y2659
X3078Y2698
X3078Y2738
X3078Y2777
X3078Y2817
X3078Y2856
X3078Y2895
X3078Y2935
X3078Y2974
X3078Y3013
X3078Y3053
X3078Y3092
X3078Y3131
X3078Y3171
X3078Y3210
X3078Y3250
X3078Y3289
X3078Y3328
X3078Y3368
X3078Y3407
X3078Y3446
X3078Y3486
X3078Y3525
X3078Y3565
X3078Y3604
X3078Y3643
X3078Y3683
X3078Y3722
X5538Y3131
X5676Y5277
X10460Y5277
T04
X14062Y4529
X9052Y2580
X7733Y2580
X14062Y1734
X23550Y2631
X23550Y3631
T05
X21916Y4706
X16916Y4706
T06
X9062Y4116
X5538Y3801
X5538Y3761
X5538Y3722
X5538Y3683
X5538Y3643
X5538Y3604
X5538Y3565
X5538Y3525
X5538Y3486
X5538Y3486
X5538Y3446
X5538Y3407
X5538Y3368
X5538Y3328
X5538Y3289
X5538Y3250
X5538Y3210
X5538Y3171
X5538Y3131
X5538Y3092
X5538Y3053
X5538Y3013
X5538Y2974
X5538Y2935
X5538Y2895
X5538Y2856
X5538Y2817
X5538Y2777
X5538Y2738
X5538Y2698
X5538Y2659
X5538Y2620
X5538Y2580
X5538Y2541
X5538Y2502
X5538Y2462
T07
X16416Y4706
X22416Y4706
T08
X7802Y4116
M30
