%
M48
M72
T01C0.0236
T02C0.0300
T03C0.0315
T04C0.0394
%
T01
X11746Y10730
X19557Y10730
T02
X18352Y12824
X17450Y12824
X16655Y13250
X16254Y13683
X15852Y13250
X15450Y13683
X15049Y13250
X14647Y13683
X14246Y13250
X13852Y12824
X12950Y12824
X17057Y13683
T03
X5600Y2509
X5600Y2549
X5600Y2588
X5600Y2628
X5600Y2667
X5600Y2706
X5600Y2746
X5600Y2785
X5600Y2824
X5600Y2864
X5600Y2903
X5600Y2943
X5600Y2982
X5600Y3021
X5600Y3061
X5600Y3100
X5600Y3139
X5600Y3179
X5600Y3218
X5600Y3257
X5600Y3297
X5600Y3336
X5600Y3376
X5600Y3415
X5600Y3454
X5600Y3494
X5600Y3533
X5600Y3572
X5600Y3612
X5600Y3651
X5600Y3691
X8061Y3100
X7470Y1210
X7431Y1210
X7391Y1210
X7352Y1210
X7313Y1210
X7273Y1210
X7234Y1210
X7194Y1210
X7155Y1210
X7116Y1210
X7076Y1210
X7037Y1210
X6998Y1210
X6958Y1210
X6919Y1210
X6880Y1210
X6880Y1210
X6840Y1210
X6801Y1210
X6761Y1210
X6722Y1210
X6683Y1210
X6643Y1210
X6604Y1210
X6565Y1210
X6525Y1210
X6486Y1210
X6446Y1210
X6407Y1210
X6368Y1210
X6328Y1210
X6289Y1210
T04
X8061Y2431
X8061Y2470
X8061Y2509
X8061Y2549
X8061Y2588
X8061Y2628
X8061Y2667
X8061Y2706
X8061Y2746
X8061Y2785
X8061Y2824
X8061Y2864
X8061Y2903
X8061Y2943
X8061Y2982
X8061Y3021
X8061Y3061
X8061Y3100
X8061Y3139
X8061Y3179
X8061Y3218
X8061Y3257
X8061Y3297
X8061Y3336
X8061Y3376
X8061Y3415
X8061Y3454
X8061Y3454
X8061Y3494
X8061Y3533
X8061Y3572
X8061Y3612
X8061Y3651
X8061Y3691
X8061Y3730
X8061Y3769
M30
