G75*
%MOIN*%
%OFA0B0*%
%FSLAX24Y24*%
%IPPOS*%
%LPD*%
%AMOC8*
5,1,8,0,0,1.08239X$1,22.5*
%
%ADD10R,0.0236X0.0083*%
%ADD11C,0.0600*%
%ADD12R,0.0394X0.0433*%
%ADD13C,0.0110*%
%ADD14C,0.0157*%
%ADD15C,0.0236*%
%ADD16C,0.0396*%
D10*
X004844Y000789D03*
X004844Y001045D03*
X004844Y001301D03*
X005592Y001301D03*
X005592Y000789D03*
X005592Y005120D03*
X005592Y005631D03*
X004844Y005631D03*
X004844Y005376D03*
X004844Y005120D03*
X004844Y009450D03*
X004844Y009706D03*
X004844Y009962D03*
X005592Y009962D03*
X005592Y009450D03*
X005592Y013781D03*
X005592Y014293D03*
X004844Y014293D03*
X004844Y014037D03*
X004844Y013781D03*
D11*
X004718Y014954D03*
X004718Y015954D03*
X005718Y015954D03*
X005718Y014954D03*
X005718Y011624D03*
X005718Y010624D03*
X004718Y010624D03*
X004718Y011624D03*
X004718Y007293D03*
X004718Y006293D03*
X005718Y006293D03*
X005718Y007293D03*
X005718Y002962D03*
X005718Y001962D03*
X004718Y001962D03*
X004718Y002962D03*
D12*
X003978Y003840D03*
X003309Y003840D03*
X003309Y005415D03*
X003978Y005415D03*
X003978Y008171D03*
X003309Y008171D03*
X003309Y009746D03*
X003978Y009746D03*
X003978Y012502D03*
X003309Y012502D03*
X003309Y014076D03*
X003978Y014076D03*
X003978Y016832D03*
X003309Y016832D03*
X006458Y016832D03*
X007128Y016832D03*
X007128Y014076D03*
X006458Y014076D03*
X006458Y012502D03*
X007128Y012502D03*
X007128Y009746D03*
X006458Y009746D03*
X006458Y008171D03*
X007128Y008171D03*
X007128Y005415D03*
X006458Y005415D03*
X006458Y003840D03*
X007128Y003840D03*
X007128Y001084D03*
X006458Y001084D03*
X003978Y001084D03*
X003309Y001084D03*
D13*
X000555Y000555D02*
X000555Y004431D01*
X009881Y004431D01*
X009881Y000555D01*
X006896Y000555D01*
X007053Y000713D01*
X007389Y000713D01*
X007480Y000803D01*
X007480Y001365D01*
X007389Y001456D01*
X007099Y001456D01*
X007190Y001493D01*
X007289Y001593D01*
X007343Y001723D01*
X007343Y001863D01*
X007289Y001993D01*
X007190Y002092D01*
X007105Y002128D01*
X007190Y002163D01*
X007289Y002262D01*
X007343Y002392D01*
X007343Y002532D01*
X007289Y002662D01*
X007190Y002762D01*
X007060Y002815D01*
X006920Y002815D01*
X006790Y002762D01*
X006692Y002664D01*
X006692Y003469D01*
X006719Y003469D01*
X006797Y003546D01*
X006807Y003528D01*
X006835Y003499D01*
X006871Y003479D01*
X006910Y003469D01*
X007084Y003469D01*
X007084Y003797D01*
X007171Y003797D01*
X009881Y003797D01*
X009881Y003688D02*
X007480Y003688D01*
X007480Y003603D02*
X007480Y003797D01*
X007171Y003797D01*
X007171Y003883D01*
X007480Y003883D01*
X007480Y004077D01*
X007469Y004117D01*
X007449Y004152D01*
X007420Y004181D01*
X007384Y004201D01*
X007345Y004212D01*
X007171Y004212D01*
X007171Y003883D01*
X007084Y003883D01*
X007084Y004212D01*
X006910Y004212D01*
X006871Y004201D01*
X006835Y004181D01*
X006807Y004152D01*
X006797Y004135D01*
X006719Y004212D01*
X006197Y004212D01*
X006106Y004121D01*
X006106Y003559D01*
X006197Y003469D01*
X006224Y003469D01*
X006224Y002799D01*
X005833Y002407D01*
X005809Y002417D01*
X005628Y002417D01*
X005460Y002348D01*
X005428Y002316D01*
X005428Y002608D01*
X005460Y002576D01*
X005628Y002507D01*
X005809Y002507D01*
X005976Y002576D01*
X006104Y002704D01*
X006173Y002872D01*
X006173Y003053D01*
X006104Y003220D01*
X005976Y003348D01*
X005809Y003417D01*
X005628Y003417D01*
X005460Y003348D01*
X005348Y003235D01*
X005089Y003235D01*
X004976Y003348D01*
X004809Y003417D01*
X004628Y003417D01*
X004460Y003348D01*
X004332Y003220D01*
X004263Y003053D01*
X004263Y002872D01*
X004332Y002704D01*
X004460Y002576D01*
X004628Y002507D01*
X004809Y002507D01*
X004976Y002576D01*
X005008Y002608D01*
X005008Y002316D01*
X004976Y002348D01*
X004809Y002417D01*
X004628Y002417D01*
X004604Y002407D01*
X004212Y002799D01*
X004212Y003469D01*
X004239Y003469D01*
X004330Y003559D01*
X004330Y004121D01*
X004239Y004212D01*
X003717Y004212D01*
X003640Y004135D01*
X003630Y004152D01*
X003601Y004181D01*
X003565Y004201D01*
X003526Y004212D01*
X003352Y004212D01*
X003352Y003883D01*
X003265Y003883D01*
X003265Y003797D01*
X000555Y003797D01*
X000555Y003688D02*
X002957Y003688D01*
X002957Y003603D02*
X002967Y003564D01*
X002988Y003528D01*
X003017Y003499D01*
X003052Y003479D01*
X003091Y003469D01*
X003265Y003469D01*
X003265Y003797D01*
X002957Y003797D01*
X002957Y003603D01*
X002963Y003580D02*
X000555Y003580D01*
X000555Y003471D02*
X003083Y003471D01*
X003265Y003471D02*
X003352Y003471D01*
X003352Y003469D02*
X003526Y003469D01*
X003565Y003479D01*
X003601Y003499D01*
X003630Y003528D01*
X003640Y003546D01*
X003717Y003469D01*
X003744Y003469D01*
X003744Y002605D01*
X004273Y002077D01*
X004263Y002053D01*
X004263Y001872D01*
X004332Y001704D01*
X004460Y001576D01*
X004508Y001557D01*
X004508Y001340D01*
X004571Y001277D01*
X004571Y001195D01*
X004596Y001171D01*
X004581Y001146D01*
X004571Y001107D01*
X004571Y001045D01*
X004844Y001045D01*
X004844Y001045D01*
X004571Y001045D01*
X004571Y000999D01*
X004360Y000999D01*
X004330Y001030D01*
X004330Y001365D01*
X004239Y001456D01*
X003717Y001456D01*
X003640Y001379D01*
X003630Y001396D01*
X003601Y001425D01*
X003565Y001445D01*
X003526Y001456D01*
X003352Y001456D01*
X003352Y001128D01*
X003265Y001128D01*
X003265Y001456D01*
X003091Y001456D01*
X003052Y001445D01*
X003017Y001425D01*
X002988Y001396D01*
X002967Y001361D01*
X002957Y001321D01*
X002957Y001128D01*
X003265Y001128D01*
X003265Y001041D01*
X002957Y001041D01*
X002957Y000847D01*
X002967Y000808D01*
X002988Y000772D01*
X003017Y000744D01*
X003052Y000723D01*
X003091Y000713D01*
X003265Y000713D01*
X003265Y001041D01*
X003352Y001041D01*
X003352Y000713D01*
X003526Y000713D01*
X003565Y000723D01*
X003601Y000744D01*
X003630Y000772D01*
X003640Y000790D01*
X003717Y000713D01*
X004052Y000713D01*
X004186Y000579D01*
X004836Y000579D01*
X004859Y000555D01*
X000555Y000555D01*
X000555Y000644D02*
X004121Y000644D01*
X004273Y000789D02*
X003978Y001084D01*
X004273Y000789D02*
X004844Y000789D01*
X004923Y000789D01*
X005218Y000494D01*
X006537Y000494D01*
X007128Y001084D01*
X007210Y001514D02*
X009881Y001514D01*
X009881Y001622D02*
X007301Y001622D01*
X007343Y001731D02*
X008566Y001731D01*
X008612Y001712D02*
X008911Y001712D01*
X009186Y001826D01*
X009398Y002037D01*
X009512Y002313D01*
X009512Y002611D01*
X009398Y002887D01*
X009186Y003098D01*
X008911Y003213D01*
X008612Y003213D01*
X008336Y003098D01*
X008125Y002887D01*
X008011Y002611D01*
X008011Y002313D01*
X008125Y002037D01*
X008336Y001826D01*
X008612Y001712D01*
X008323Y001840D02*
X007343Y001840D01*
X007308Y001949D02*
X008214Y001949D01*
X008117Y002057D02*
X007225Y002057D01*
X007193Y002166D02*
X008072Y002166D01*
X008027Y002275D02*
X007294Y002275D01*
X007339Y002383D02*
X008011Y002383D01*
X008011Y002492D02*
X007343Y002492D01*
X007315Y002601D02*
X008011Y002601D01*
X008052Y002710D02*
X007242Y002710D01*
X006990Y002462D02*
X005828Y001301D01*
X005592Y001301D01*
X005588Y001091D02*
X005915Y001091D01*
X006106Y001281D01*
X006106Y001030D01*
X006076Y000999D01*
X005679Y000999D01*
X005588Y001091D01*
X005600Y001079D02*
X006106Y001079D01*
X006106Y001187D02*
X006012Y001187D01*
X006163Y000789D02*
X005592Y000789D01*
X005218Y001163D01*
X005218Y002856D01*
X005324Y002962D01*
X005718Y002962D01*
X005436Y002601D02*
X005428Y002601D01*
X005428Y002492D02*
X005917Y002492D01*
X006000Y002601D02*
X006026Y002601D01*
X006106Y002710D02*
X006135Y002710D01*
X006151Y002818D02*
X006224Y002818D01*
X006224Y002927D02*
X006173Y002927D01*
X006173Y003036D02*
X006224Y003036D01*
X006224Y003145D02*
X006135Y003145D01*
X006071Y003253D02*
X006224Y003253D01*
X006224Y003362D02*
X005942Y003362D01*
X006106Y003580D02*
X004330Y003580D01*
X004330Y003688D02*
X006106Y003688D01*
X006106Y003797D02*
X004330Y003797D01*
X004330Y003906D02*
X006106Y003906D01*
X006106Y004015D02*
X004330Y004015D01*
X004328Y004123D02*
X006109Y004123D01*
X006195Y003471D02*
X004241Y003471D01*
X004212Y003362D02*
X004494Y003362D01*
X004366Y003253D02*
X004212Y003253D01*
X004212Y003145D02*
X004301Y003145D01*
X004263Y003036D02*
X004212Y003036D01*
X004212Y002927D02*
X004263Y002927D01*
X004285Y002818D02*
X004212Y002818D01*
X004301Y002710D02*
X004330Y002710D01*
X004410Y002601D02*
X004436Y002601D01*
X004519Y002492D02*
X005008Y002492D01*
X005008Y002383D02*
X004890Y002383D01*
X005000Y002601D02*
X005008Y002601D01*
X005071Y003253D02*
X005366Y003253D01*
X005494Y003362D02*
X004942Y003362D01*
X005428Y002383D02*
X005546Y002383D01*
X005428Y001608D02*
X005460Y001576D01*
X005618Y001511D01*
X005505Y001511D01*
X005491Y001497D01*
X005428Y001497D01*
X005428Y001608D01*
X005428Y001514D02*
X005612Y001514D01*
X005114Y000970D02*
X005319Y000765D01*
X005319Y000704D01*
X005305Y000704D01*
X005133Y000876D01*
X005117Y000892D01*
X005117Y000895D01*
X005093Y000919D01*
X005107Y000944D01*
X005114Y000970D01*
X005114Y000970D01*
X005148Y000861D02*
X005223Y000861D01*
X005257Y000752D02*
X005319Y000752D01*
X004844Y001301D02*
X004718Y001427D01*
X004718Y001962D01*
X004928Y001557D02*
X004976Y001576D01*
X005008Y001608D01*
X005008Y001497D01*
X004945Y001497D01*
X004928Y001514D01*
X004928Y001557D01*
X004929Y001514D02*
X005008Y001514D01*
X004508Y001514D02*
X000555Y001514D01*
X000555Y001622D02*
X004414Y001622D01*
X004321Y001731D02*
X001871Y001731D01*
X001824Y001712D02*
X002100Y001826D01*
X002311Y002037D01*
X002425Y002313D01*
X002425Y002611D01*
X002311Y002887D01*
X002100Y003098D01*
X001824Y003213D01*
X001526Y003213D01*
X001250Y003098D01*
X001039Y002887D01*
X000924Y002611D01*
X000924Y002313D01*
X001039Y002037D01*
X001250Y001826D01*
X001526Y001712D01*
X001824Y001712D01*
X002114Y001840D02*
X004276Y001840D01*
X004263Y001949D02*
X002222Y001949D01*
X002319Y002057D02*
X004265Y002057D01*
X004184Y002166D02*
X002364Y002166D01*
X002409Y002275D02*
X004075Y002275D01*
X003966Y002383D02*
X002425Y002383D01*
X002425Y002492D02*
X003857Y002492D01*
X003749Y002601D02*
X002425Y002601D01*
X002385Y002710D02*
X003744Y002710D01*
X003744Y002818D02*
X002339Y002818D01*
X002271Y002927D02*
X003744Y002927D01*
X003744Y003036D02*
X002162Y003036D01*
X001988Y003145D02*
X003744Y003145D01*
X003744Y003253D02*
X000555Y003253D01*
X000555Y003145D02*
X001361Y003145D01*
X001187Y003036D02*
X000555Y003036D01*
X000555Y002927D02*
X001079Y002927D01*
X001010Y002818D02*
X000555Y002818D01*
X000555Y002710D02*
X000965Y002710D01*
X000924Y002601D02*
X000555Y002601D01*
X000555Y002492D02*
X000924Y002492D01*
X000924Y002383D02*
X000555Y002383D01*
X000555Y002275D02*
X000940Y002275D01*
X000985Y002166D02*
X000555Y002166D01*
X000555Y002057D02*
X001030Y002057D01*
X001127Y001949D02*
X000555Y001949D01*
X000555Y001840D02*
X001236Y001840D01*
X001479Y001731D02*
X000555Y001731D01*
X000555Y001405D02*
X002996Y001405D01*
X002957Y001296D02*
X000555Y001296D01*
X000555Y001187D02*
X002957Y001187D01*
X002957Y000970D02*
X000555Y000970D01*
X000555Y001079D02*
X003265Y001079D01*
X003265Y001187D02*
X003352Y001187D01*
X003352Y001296D02*
X003265Y001296D01*
X003265Y001405D02*
X003352Y001405D01*
X003621Y001405D02*
X003666Y001405D01*
X003352Y000970D02*
X003265Y000970D01*
X003265Y000861D02*
X003352Y000861D01*
X003352Y000752D02*
X003265Y000752D01*
X003008Y000752D02*
X000555Y000752D01*
X000555Y000861D02*
X002957Y000861D01*
X003610Y000752D02*
X003677Y000752D01*
X004330Y001079D02*
X004571Y001079D01*
X004579Y001187D02*
X004330Y001187D01*
X004330Y001296D02*
X004551Y001296D01*
X004508Y001405D02*
X004290Y001405D01*
X003744Y003362D02*
X000555Y003362D01*
X000555Y003906D02*
X002957Y003906D01*
X002957Y003883D02*
X003265Y003883D01*
X003265Y004212D01*
X003091Y004212D01*
X003052Y004201D01*
X003017Y004181D01*
X002988Y004152D01*
X002967Y004117D01*
X002957Y004077D01*
X002957Y003883D01*
X002957Y004015D02*
X000555Y004015D01*
X000555Y004123D02*
X002971Y004123D01*
X003265Y004123D02*
X003352Y004123D01*
X003352Y004015D02*
X003265Y004015D01*
X003265Y003906D02*
X003352Y003906D01*
X003352Y003797D02*
X003352Y003469D01*
X003352Y003580D02*
X003265Y003580D01*
X003265Y003688D02*
X003352Y003688D01*
X003352Y003797D02*
X003265Y003797D01*
X003535Y003471D02*
X003715Y003471D01*
X004273Y005120D02*
X003978Y005415D01*
X004273Y005120D02*
X004844Y005120D01*
X004923Y005120D01*
X005218Y004824D01*
X006537Y004824D01*
X007128Y005415D01*
X006458Y005592D02*
X006990Y006124D01*
X006990Y006793D02*
X005828Y005631D01*
X005592Y005631D01*
X005592Y005120D02*
X005218Y005120D01*
X005218Y007293D01*
X004718Y006293D02*
X004718Y005757D01*
X004844Y005631D01*
X004844Y005376D02*
X004667Y005376D01*
X004037Y006006D01*
X005592Y005120D02*
X006163Y005120D01*
X006458Y005415D01*
X006458Y005592D01*
X007084Y004123D02*
X007171Y004123D01*
X007171Y004015D02*
X007084Y004015D01*
X007084Y003906D02*
X007171Y003906D01*
X007171Y003797D02*
X007171Y003469D01*
X007345Y003469D01*
X007384Y003479D01*
X007420Y003499D01*
X007449Y003528D01*
X007469Y003564D01*
X007480Y003603D01*
X007473Y003580D02*
X009881Y003580D01*
X009881Y003471D02*
X007354Y003471D01*
X007171Y003471D02*
X007084Y003471D01*
X007084Y003580D02*
X007171Y003580D01*
X007171Y003688D02*
X007084Y003688D01*
X006902Y003471D02*
X006722Y003471D01*
X006692Y003362D02*
X009881Y003362D01*
X009881Y003253D02*
X006692Y003253D01*
X006692Y003145D02*
X008448Y003145D01*
X008274Y003036D02*
X006692Y003036D01*
X006692Y002927D02*
X008165Y002927D01*
X008097Y002818D02*
X006692Y002818D01*
X006692Y002710D02*
X006738Y002710D01*
X006649Y002562D02*
X006637Y002532D01*
X006637Y002406D01*
X006173Y001943D01*
X006173Y002053D01*
X006163Y002077D01*
X006649Y002562D01*
X006637Y002492D02*
X006579Y002492D01*
X006614Y002383D02*
X006470Y002383D01*
X006505Y002275D02*
X006361Y002275D01*
X006396Y002166D02*
X006253Y002166D01*
X006287Y002057D02*
X006171Y002057D01*
X006173Y001949D02*
X006179Y001949D01*
X006447Y001622D02*
X006522Y001622D01*
X006556Y001731D02*
X006631Y001731D01*
X006637Y001737D02*
X006637Y001812D01*
X006281Y001456D01*
X006355Y001456D01*
X006371Y001472D01*
X006371Y001472D01*
X006637Y001737D01*
X006413Y001514D02*
X006338Y001514D01*
X006458Y001261D02*
X006458Y001084D01*
X006163Y000789D01*
X006375Y000704D02*
X006384Y000713D01*
X006459Y000713D01*
X006450Y000704D01*
X006375Y000704D01*
X006458Y001261D02*
X006990Y001793D01*
X007440Y001405D02*
X009881Y001405D01*
X009881Y001296D02*
X007480Y001296D01*
X007480Y001187D02*
X009881Y001187D01*
X009881Y001079D02*
X007480Y001079D01*
X007480Y000970D02*
X009881Y000970D01*
X009881Y000861D02*
X007480Y000861D01*
X007428Y000752D02*
X009881Y000752D01*
X009881Y000644D02*
X006984Y000644D01*
X007480Y003906D02*
X009881Y003906D01*
X009881Y004015D02*
X007480Y004015D01*
X007465Y004123D02*
X009881Y004123D01*
X009881Y004232D02*
X000555Y004232D01*
X000555Y004341D02*
X009881Y004341D01*
X009881Y003145D02*
X009075Y003145D01*
X009249Y003036D02*
X009881Y003036D01*
X009881Y002927D02*
X009358Y002927D01*
X009426Y002818D02*
X009881Y002818D01*
X009881Y002710D02*
X009471Y002710D01*
X009512Y002601D02*
X009881Y002601D01*
X009881Y002492D02*
X009512Y002492D01*
X009512Y002383D02*
X009881Y002383D01*
X009881Y002275D02*
X009496Y002275D01*
X009451Y002166D02*
X009881Y002166D01*
X009881Y002057D02*
X009406Y002057D01*
X009309Y001949D02*
X009881Y001949D01*
X009881Y001840D02*
X009200Y001840D01*
X008957Y001731D02*
X009881Y001731D01*
X006537Y009155D02*
X005139Y009155D01*
X004844Y009450D01*
X004273Y009450D01*
X003978Y009746D01*
X004718Y010088D02*
X004718Y010624D01*
X004718Y010088D02*
X004844Y009962D01*
X005218Y009824D02*
X005218Y011624D01*
X005592Y009962D02*
X005828Y009962D01*
X006990Y011124D01*
X006990Y010454D02*
X006458Y009923D01*
X006458Y009746D01*
X006163Y009450D01*
X005592Y009450D01*
X005218Y009824D01*
X006537Y009155D02*
X007128Y009746D01*
X006834Y013486D02*
X007053Y013705D01*
X007389Y013705D01*
X007480Y013796D01*
X007480Y014357D01*
X007389Y014448D01*
X007099Y014448D01*
X007190Y014486D01*
X007289Y014585D01*
X007343Y014715D01*
X007343Y014855D01*
X007289Y014985D01*
X007190Y015084D01*
X007105Y015120D01*
X007190Y015155D01*
X007289Y015254D01*
X007343Y015384D01*
X007343Y015525D01*
X007289Y015654D01*
X007190Y015754D01*
X007060Y015808D01*
X006920Y015808D01*
X006790Y015754D01*
X006692Y015656D01*
X006692Y016461D01*
X006719Y016461D01*
X006797Y016538D01*
X006807Y016521D01*
X006835Y016492D01*
X006871Y016471D01*
X006910Y016461D01*
X007084Y016461D01*
X007084Y016789D01*
X007171Y016789D01*
X007171Y016876D01*
X007084Y016876D01*
X007084Y017204D01*
X006910Y017204D01*
X006871Y017193D01*
X006835Y017173D01*
X006807Y017144D01*
X006797Y017127D01*
X006719Y017204D01*
X006197Y017204D01*
X006106Y017113D01*
X006106Y016551D01*
X006197Y016461D01*
X006224Y016461D01*
X006224Y015791D01*
X005833Y015400D01*
X005809Y015409D01*
X005628Y015409D01*
X005460Y015340D01*
X005428Y015308D01*
X005428Y015600D01*
X005460Y015569D01*
X005628Y015499D01*
X005809Y015499D01*
X005976Y015569D01*
X006104Y015697D01*
X006173Y015864D01*
X006173Y016045D01*
X006104Y016212D01*
X005976Y016340D01*
X005809Y016409D01*
X005628Y016409D01*
X005460Y016340D01*
X005348Y016228D01*
X005089Y016228D01*
X004976Y016340D01*
X004809Y016409D01*
X004628Y016409D01*
X004460Y016340D01*
X004332Y016212D01*
X004263Y016045D01*
X004263Y015864D01*
X004332Y015697D01*
X004460Y015569D01*
X004628Y015499D01*
X004809Y015499D01*
X004976Y015569D01*
X005008Y015600D01*
X005008Y015308D01*
X004976Y015340D01*
X004809Y015409D01*
X004628Y015409D01*
X004604Y015400D01*
X004212Y015791D01*
X004212Y016461D01*
X004239Y016461D01*
X004330Y016551D01*
X004330Y017113D01*
X004239Y017204D01*
X003717Y017204D01*
X003640Y017127D01*
X003630Y017144D01*
X003601Y017173D01*
X003565Y017193D01*
X003526Y017204D01*
X003352Y017204D01*
X003352Y016876D01*
X003265Y016876D01*
X003265Y017204D01*
X003091Y017204D01*
X003052Y017193D01*
X003017Y017173D01*
X002988Y017144D01*
X002967Y017109D01*
X002957Y017069D01*
X002957Y016876D01*
X003265Y016876D01*
X003265Y016789D01*
X002957Y016789D01*
X002957Y016595D01*
X002967Y016556D01*
X002988Y016521D01*
X003017Y016492D01*
X003052Y016471D01*
X003091Y016461D01*
X003265Y016461D01*
X003265Y016789D01*
X003352Y016789D01*
X003352Y016461D01*
X003526Y016461D01*
X003565Y016471D01*
X003601Y016492D01*
X003630Y016521D01*
X003640Y016538D01*
X003717Y016461D01*
X003744Y016461D01*
X003744Y015598D01*
X004273Y015069D01*
X004263Y015045D01*
X004263Y014864D01*
X004332Y014697D01*
X004460Y014569D01*
X004508Y014549D01*
X004508Y014332D01*
X004571Y014269D01*
X004571Y014187D01*
X004596Y014163D01*
X004581Y014138D01*
X004571Y014099D01*
X004571Y014037D01*
X004571Y013991D01*
X004360Y013991D01*
X004330Y014022D01*
X004330Y014357D01*
X004239Y014448D01*
X003717Y014448D01*
X003640Y014371D01*
X003630Y014388D01*
X003601Y014417D01*
X003565Y014437D01*
X003526Y014448D01*
X003352Y014448D01*
X003352Y014120D01*
X003265Y014120D01*
X003265Y014448D01*
X003091Y014448D01*
X003052Y014437D01*
X003017Y014417D01*
X002988Y014388D01*
X002967Y014353D01*
X002957Y014313D01*
X002957Y014120D01*
X003265Y014120D01*
X003265Y014033D01*
X002957Y014033D01*
X002957Y013839D01*
X002967Y013800D01*
X002988Y013765D01*
X003017Y013736D01*
X003052Y013715D01*
X003091Y013705D01*
X003265Y013705D01*
X003265Y014033D01*
X003352Y014033D01*
X003352Y013705D01*
X003526Y013705D01*
X003565Y013715D01*
X003601Y013736D01*
X003630Y013765D01*
X003640Y013782D01*
X003717Y013705D01*
X004052Y013705D01*
X004186Y013571D01*
X004836Y013571D01*
X004921Y013486D01*
X000555Y013486D01*
X000555Y017361D01*
X009881Y017361D01*
X009881Y013486D01*
X006834Y013486D01*
X006932Y013583D02*
X009881Y013583D01*
X009881Y013692D02*
X007041Y013692D01*
X007128Y014076D02*
X006537Y013486D01*
X005218Y013486D01*
X004923Y013781D01*
X004844Y013781D01*
X004273Y013781D01*
X003978Y014076D01*
X004065Y013692D02*
X000555Y013692D01*
X000555Y013583D02*
X004174Y013583D01*
X004333Y014018D02*
X004571Y014018D01*
X004571Y014037D02*
X004844Y014037D01*
X004844Y014037D01*
X004571Y014037D01*
X004578Y014127D02*
X004330Y014127D01*
X004330Y014236D02*
X004571Y014236D01*
X004508Y014344D02*
X004330Y014344D01*
X004476Y014562D02*
X000555Y014562D01*
X000555Y014671D02*
X004358Y014671D01*
X004298Y014779D02*
X002006Y014779D01*
X002100Y014818D02*
X002311Y015029D01*
X002425Y015305D01*
X002425Y015604D01*
X002311Y015879D01*
X002100Y016090D01*
X001824Y016205D01*
X001526Y016205D01*
X001250Y016090D01*
X001039Y015879D01*
X000924Y015604D01*
X000924Y015305D01*
X001039Y015029D01*
X001250Y014818D01*
X001526Y014704D01*
X001824Y014704D01*
X002100Y014818D01*
X002170Y014888D02*
X004263Y014888D01*
X004263Y014997D02*
X002279Y014997D01*
X002343Y015106D02*
X004236Y015106D01*
X004127Y015214D02*
X002388Y015214D01*
X002425Y015323D02*
X004019Y015323D01*
X003910Y015432D02*
X002425Y015432D01*
X002425Y015541D02*
X003801Y015541D01*
X003744Y015649D02*
X002406Y015649D01*
X002361Y015758D02*
X003744Y015758D01*
X003744Y015867D02*
X002316Y015867D01*
X002215Y015976D02*
X003744Y015976D01*
X003744Y016084D02*
X002106Y016084D01*
X001852Y016193D02*
X003744Y016193D01*
X003744Y016302D02*
X000555Y016302D01*
X000555Y016410D02*
X003744Y016410D01*
X003658Y016519D02*
X003628Y016519D01*
X003352Y016519D02*
X003265Y016519D01*
X003265Y016628D02*
X003352Y016628D01*
X003352Y016737D02*
X003265Y016737D01*
X003265Y016845D02*
X000555Y016845D01*
X000555Y016737D02*
X002957Y016737D01*
X002957Y016628D02*
X000555Y016628D01*
X000555Y016519D02*
X002989Y016519D01*
X002957Y016954D02*
X000555Y016954D01*
X000555Y017063D02*
X002957Y017063D01*
X003015Y017172D02*
X000555Y017172D01*
X000555Y017280D02*
X009881Y017280D01*
X009881Y017172D02*
X007421Y017172D01*
X007420Y017173D02*
X007384Y017193D01*
X007345Y017204D01*
X007171Y017204D01*
X007171Y016876D01*
X007480Y016876D01*
X007480Y017069D01*
X007469Y017109D01*
X007449Y017144D01*
X007420Y017173D01*
X007480Y017063D02*
X009881Y017063D01*
X009881Y016954D02*
X007480Y016954D01*
X007480Y016789D02*
X007171Y016789D01*
X007171Y016461D01*
X007345Y016461D01*
X007384Y016471D01*
X007420Y016492D01*
X007449Y016521D01*
X007469Y016556D01*
X007480Y016595D01*
X007480Y016789D01*
X007480Y016737D02*
X009881Y016737D01*
X009881Y016845D02*
X007171Y016845D01*
X007171Y016737D02*
X007084Y016737D01*
X007084Y016628D02*
X007171Y016628D01*
X007171Y016519D02*
X007084Y016519D01*
X006808Y016519D02*
X006778Y016519D01*
X006692Y016410D02*
X009881Y016410D01*
X009881Y016302D02*
X006692Y016302D01*
X006692Y016193D02*
X008584Y016193D01*
X008612Y016205D02*
X008336Y016090D01*
X008125Y015879D01*
X008011Y015604D01*
X008011Y015305D01*
X008125Y015029D01*
X008336Y014818D01*
X008612Y014704D01*
X008911Y014704D01*
X009186Y014818D01*
X009398Y015029D01*
X009512Y015305D01*
X009512Y015604D01*
X009398Y015879D01*
X009186Y016090D01*
X008911Y016205D01*
X008612Y016205D01*
X008330Y016084D02*
X006692Y016084D01*
X006692Y015976D02*
X008221Y015976D01*
X008120Y015867D02*
X006692Y015867D01*
X006692Y015758D02*
X006800Y015758D01*
X006990Y015454D02*
X005828Y014293D01*
X005592Y014293D01*
X005618Y014503D02*
X005505Y014503D01*
X005491Y014489D01*
X005428Y014489D01*
X005428Y014600D01*
X005460Y014569D01*
X005618Y014503D01*
X005476Y014562D02*
X005428Y014562D01*
X005428Y014096D02*
X005491Y014096D01*
X005505Y014083D01*
X005915Y014083D01*
X006106Y014274D01*
X006106Y014022D01*
X006076Y013991D01*
X005428Y013991D01*
X005428Y014096D01*
X005428Y014018D02*
X006103Y014018D01*
X006106Y014127D02*
X005960Y014127D01*
X006068Y014236D02*
X006106Y014236D01*
X006281Y014448D02*
X006637Y014804D01*
X006637Y014729D01*
X006355Y014448D01*
X006281Y014448D01*
X006286Y014453D02*
X006361Y014453D01*
X006395Y014562D02*
X006469Y014562D01*
X006503Y014671D02*
X006578Y014671D01*
X006612Y014779D02*
X006637Y014779D01*
X006452Y015214D02*
X006309Y015214D01*
X006344Y015106D02*
X006200Y015106D01*
X006163Y015069D02*
X006649Y015554D01*
X006637Y015525D01*
X006637Y015398D01*
X006173Y014935D01*
X006173Y015045D01*
X006163Y015069D01*
X006173Y014997D02*
X006235Y014997D01*
X006418Y015323D02*
X006561Y015323D01*
X006526Y015432D02*
X006637Y015432D01*
X006635Y015541D02*
X006643Y015541D01*
X006191Y015758D02*
X006129Y015758D01*
X006173Y015867D02*
X006224Y015867D01*
X006224Y015976D02*
X006173Y015976D01*
X006157Y016084D02*
X006224Y016084D01*
X006224Y016193D02*
X006112Y016193D01*
X006014Y016302D02*
X006224Y016302D01*
X006224Y016410D02*
X004212Y016410D01*
X004212Y016302D02*
X004422Y016302D01*
X004324Y016193D02*
X004212Y016193D01*
X004212Y016084D02*
X004279Y016084D01*
X004263Y015976D02*
X004212Y015976D01*
X004212Y015867D02*
X004263Y015867D01*
X004245Y015758D02*
X004307Y015758D01*
X004354Y015649D02*
X004379Y015649D01*
X004463Y015541D02*
X004528Y015541D01*
X004571Y015432D02*
X005008Y015432D01*
X005008Y015541D02*
X004909Y015541D01*
X004993Y015323D02*
X005008Y015323D01*
X004718Y014954D02*
X004718Y014419D01*
X004844Y014293D01*
X004945Y014489D02*
X004928Y014506D01*
X004928Y014549D01*
X004976Y014569D01*
X005008Y014600D01*
X005008Y014489D01*
X004945Y014489D01*
X004960Y014562D02*
X005008Y014562D01*
X004508Y014453D02*
X000555Y014453D01*
X000555Y014344D02*
X002965Y014344D01*
X002957Y014236D02*
X000555Y014236D01*
X000555Y014127D02*
X002957Y014127D01*
X002957Y014018D02*
X000555Y014018D01*
X000555Y013910D02*
X002957Y013910D01*
X002967Y013801D02*
X000555Y013801D01*
X000555Y014779D02*
X001343Y014779D01*
X001180Y014888D02*
X000555Y014888D01*
X000555Y014997D02*
X001071Y014997D01*
X001007Y015106D02*
X000555Y015106D01*
X000555Y015214D02*
X000962Y015214D01*
X000924Y015323D02*
X000555Y015323D01*
X000555Y015432D02*
X000924Y015432D01*
X000924Y015541D02*
X000555Y015541D01*
X000555Y015649D02*
X000943Y015649D01*
X000988Y015758D02*
X000555Y015758D01*
X000555Y015867D02*
X001033Y015867D01*
X001135Y015976D02*
X000555Y015976D01*
X000555Y016084D02*
X001244Y016084D01*
X001497Y016193D02*
X000555Y016193D01*
X003265Y016954D02*
X003352Y016954D01*
X003352Y017063D02*
X003265Y017063D01*
X003265Y017172D02*
X003352Y017172D01*
X003602Y017172D02*
X003685Y017172D01*
X004271Y017172D02*
X006165Y017172D01*
X006106Y017063D02*
X004330Y017063D01*
X004330Y016954D02*
X006106Y016954D01*
X006106Y016845D02*
X004330Y016845D01*
X004330Y016737D02*
X006106Y016737D01*
X006106Y016628D02*
X004330Y016628D01*
X004298Y016519D02*
X006139Y016519D01*
X006082Y015649D02*
X006057Y015649D01*
X005974Y015541D02*
X005909Y015541D01*
X005865Y015432D02*
X005428Y015432D01*
X005428Y015541D02*
X005528Y015541D01*
X005443Y015323D02*
X005428Y015323D01*
X005218Y015954D02*
X005218Y013781D01*
X005592Y013781D01*
X006163Y013781D01*
X006458Y014076D01*
X006458Y014254D01*
X006990Y014785D01*
X007112Y014453D02*
X009881Y014453D01*
X009881Y014344D02*
X007480Y014344D01*
X007480Y014236D02*
X009881Y014236D01*
X009881Y014127D02*
X007480Y014127D01*
X007480Y014018D02*
X009881Y014018D01*
X009881Y013910D02*
X007480Y013910D01*
X007480Y013801D02*
X009881Y013801D01*
X009881Y014562D02*
X007266Y014562D01*
X007325Y014671D02*
X009881Y014671D01*
X009881Y014779D02*
X009093Y014779D01*
X009256Y014888D02*
X009881Y014888D01*
X009881Y014997D02*
X009365Y014997D01*
X009429Y015106D02*
X009881Y015106D01*
X009881Y015214D02*
X009474Y015214D01*
X009512Y015323D02*
X009881Y015323D01*
X009881Y015432D02*
X009512Y015432D01*
X009512Y015541D02*
X009881Y015541D01*
X009881Y015649D02*
X009493Y015649D01*
X009448Y015758D02*
X009881Y015758D01*
X009881Y015867D02*
X009403Y015867D01*
X009301Y015976D02*
X009881Y015976D01*
X009881Y016084D02*
X009193Y016084D01*
X008939Y016193D02*
X009881Y016193D01*
X009881Y016519D02*
X007447Y016519D01*
X007480Y016628D02*
X009881Y016628D01*
X008430Y014779D02*
X007343Y014779D01*
X007329Y014888D02*
X008266Y014888D01*
X008158Y014997D02*
X007277Y014997D01*
X007139Y015106D02*
X008094Y015106D01*
X008049Y015214D02*
X007249Y015214D01*
X007318Y015323D02*
X008011Y015323D01*
X008011Y015432D02*
X007343Y015432D01*
X007336Y015541D02*
X008011Y015541D01*
X008030Y015649D02*
X007291Y015649D01*
X007180Y015758D02*
X008075Y015758D01*
X007171Y016954D02*
X007084Y016954D01*
X007084Y017063D02*
X007171Y017063D01*
X007171Y017172D02*
X007084Y017172D01*
X006834Y017172D02*
X006752Y017172D01*
X005422Y016302D02*
X005014Y016302D01*
X006384Y013705D02*
X006375Y013696D01*
X006450Y013696D01*
X006459Y013705D01*
X006384Y013705D01*
X003352Y013801D02*
X003265Y013801D01*
X003265Y013910D02*
X003352Y013910D01*
X003352Y014018D02*
X003265Y014018D01*
X003265Y014127D02*
X003352Y014127D01*
X003352Y014236D02*
X003265Y014236D01*
X003265Y014344D02*
X003352Y014344D01*
D14*
X003978Y015694D02*
X004718Y014954D01*
X003978Y015694D02*
X003978Y016832D01*
X005718Y014954D02*
X006458Y015694D01*
X006458Y016832D01*
X006187Y012897D02*
X006083Y012792D01*
X006083Y012211D01*
X006142Y012152D01*
X006142Y011852D01*
X006124Y011895D01*
X005989Y012029D01*
X005813Y012102D01*
X005623Y012102D01*
X005447Y012029D01*
X005338Y011920D01*
X005098Y011920D01*
X004989Y012029D01*
X004813Y012102D01*
X004623Y012102D01*
X004447Y012029D01*
X004312Y011895D01*
X004239Y011719D01*
X004239Y011528D01*
X004283Y011423D01*
X004235Y011470D01*
X004235Y012106D01*
X004249Y012106D01*
X004354Y012211D01*
X004354Y012792D01*
X004249Y012897D01*
X003707Y012897D01*
X003643Y012833D01*
X003615Y012861D01*
X003575Y012885D01*
X003529Y012897D01*
X003328Y012897D01*
X003328Y012521D01*
X003289Y012521D01*
X003289Y012482D01*
X002933Y012482D01*
X002933Y012262D01*
X002945Y012216D01*
X002969Y012175D01*
X003002Y012142D01*
X003043Y012118D01*
X003088Y012106D01*
X003289Y012106D01*
X003289Y012482D01*
X003328Y012482D01*
X003328Y012106D01*
X003529Y012106D01*
X003575Y012118D01*
X003615Y012142D01*
X003643Y012170D01*
X003707Y012106D01*
X003720Y012106D01*
X003720Y011313D01*
X003760Y011218D01*
X003832Y011145D01*
X004245Y010733D01*
X004239Y010719D01*
X004239Y010528D01*
X004312Y010352D01*
X004447Y010218D01*
X004484Y010202D01*
X004484Y009991D01*
X004547Y009928D01*
X004547Y009847D01*
X004566Y009828D01*
X004559Y009817D01*
X004547Y009771D01*
X004547Y009706D01*
X004547Y009684D01*
X004370Y009684D01*
X004354Y009701D01*
X004354Y010036D01*
X004249Y010141D01*
X003707Y010141D01*
X003643Y010077D01*
X003615Y010105D01*
X003575Y010129D01*
X003529Y010141D01*
X003328Y010141D01*
X003328Y009765D01*
X003289Y009765D01*
X003289Y009726D01*
X003328Y009726D01*
X003328Y009350D01*
X003529Y009350D01*
X003575Y009363D01*
X003615Y009386D01*
X003643Y009414D01*
X003707Y009350D01*
X004043Y009350D01*
X004176Y009217D01*
X004747Y009217D01*
X004809Y009155D01*
X000579Y009155D01*
X000579Y013092D01*
X009857Y013092D01*
X009857Y009155D01*
X006868Y009155D01*
X007063Y009350D01*
X007398Y009350D01*
X007503Y009455D01*
X007503Y010036D01*
X007398Y010141D01*
X007209Y010141D01*
X007309Y010241D01*
X007367Y010379D01*
X007367Y010529D01*
X007309Y010668D01*
X007203Y010774D01*
X007167Y010789D01*
X007203Y010804D01*
X007309Y010910D01*
X007367Y011049D01*
X007367Y011199D01*
X007309Y011337D01*
X007203Y011443D01*
X007065Y011500D01*
X006915Y011500D01*
X006776Y011443D01*
X006670Y011337D01*
X006657Y011304D01*
X006657Y012106D01*
X006729Y012106D01*
X006793Y012170D01*
X006821Y012142D01*
X006862Y012118D01*
X006907Y012106D01*
X007108Y012106D01*
X007108Y012482D01*
X007147Y012482D01*
X007147Y012106D01*
X007348Y012106D01*
X007393Y012118D01*
X007434Y012142D01*
X007467Y012175D01*
X007491Y012216D01*
X007503Y012262D01*
X007503Y012482D01*
X007147Y012482D01*
X007147Y012521D01*
X007108Y012521D01*
X007108Y012897D01*
X006907Y012897D01*
X006862Y012885D01*
X006821Y012861D01*
X006793Y012833D01*
X006729Y012897D01*
X006187Y012897D01*
X006181Y012890D02*
X004255Y012890D01*
X004354Y012734D02*
X006083Y012734D01*
X006083Y012578D02*
X004354Y012578D01*
X004354Y012422D02*
X006083Y012422D01*
X006083Y012266D02*
X004354Y012266D01*
X004253Y012111D02*
X006142Y012111D01*
X006142Y011955D02*
X006064Y011955D01*
X006142Y011395D02*
X006142Y011230D01*
X005955Y011044D01*
X005813Y011102D01*
X005623Y011102D01*
X005452Y011032D01*
X005452Y011216D01*
X005623Y011145D01*
X005813Y011145D01*
X005989Y011218D01*
X006124Y011352D01*
X006142Y011395D01*
X006142Y011331D02*
X006102Y011331D01*
X006086Y011175D02*
X005885Y011175D01*
X005551Y011175D02*
X005452Y011175D01*
X005718Y010624D02*
X005899Y010624D01*
X006399Y011124D01*
X006399Y012443D01*
X006458Y012502D01*
X006736Y012890D02*
X006883Y012890D01*
X007108Y012890D02*
X007147Y012890D01*
X007147Y012897D02*
X007147Y012521D01*
X007503Y012521D01*
X007503Y012742D01*
X007491Y012787D01*
X007467Y012828D01*
X007434Y012861D01*
X007393Y012885D01*
X007348Y012897D01*
X007147Y012897D01*
X007147Y012734D02*
X007108Y012734D01*
X007108Y012578D02*
X007147Y012578D01*
X007147Y012422D02*
X007108Y012422D01*
X007108Y012266D02*
X007147Y012266D01*
X007147Y012111D02*
X007108Y012111D01*
X006891Y012111D02*
X006733Y012111D01*
X006657Y011955D02*
X009857Y011955D01*
X009857Y012111D02*
X007364Y012111D01*
X007503Y012266D02*
X009857Y012266D01*
X009857Y012422D02*
X007503Y012422D01*
X007503Y012578D02*
X009857Y012578D01*
X009857Y012734D02*
X007503Y012734D01*
X007372Y012890D02*
X009857Y012890D01*
X009857Y013046D02*
X000579Y013046D01*
X000579Y012890D02*
X003064Y012890D01*
X003043Y012885D02*
X003002Y012861D01*
X002969Y012828D01*
X002945Y012787D01*
X002933Y012742D01*
X002933Y012521D01*
X003289Y012521D01*
X003289Y012897D01*
X003088Y012897D01*
X003043Y012885D01*
X002933Y012734D02*
X000579Y012734D01*
X000579Y012578D02*
X002933Y012578D01*
X002933Y012422D02*
X000579Y012422D01*
X000579Y012266D02*
X002933Y012266D01*
X003073Y012111D02*
X000579Y012111D01*
X000579Y011955D02*
X003720Y011955D01*
X003703Y012111D02*
X003545Y012111D01*
X003328Y012111D02*
X003289Y012111D01*
X003289Y012266D02*
X003328Y012266D01*
X003328Y012422D02*
X003289Y012422D01*
X003289Y012578D02*
X003328Y012578D01*
X003328Y012734D02*
X003289Y012734D01*
X003289Y012890D02*
X003328Y012890D01*
X003553Y012890D02*
X003701Y012890D01*
X003978Y012502D02*
X003978Y011364D01*
X004718Y010624D01*
X004952Y010202D02*
X004984Y010216D01*
X004984Y010182D01*
X004955Y010182D01*
X004952Y010185D01*
X004952Y010202D01*
X004844Y009706D02*
X004844Y009706D01*
X004547Y009706D01*
X004844Y009706D01*
X005122Y009585D02*
X005124Y009588D01*
X005295Y009417D01*
X005295Y009389D01*
X005236Y009389D01*
X005141Y009484D01*
X005141Y009566D01*
X005122Y009585D01*
X005166Y009459D02*
X005253Y009459D01*
X005645Y009728D02*
X005925Y009728D01*
X006083Y009886D01*
X006083Y009701D01*
X006066Y009684D01*
X005689Y009684D01*
X005645Y009728D01*
X005481Y010182D02*
X005452Y010182D01*
X005452Y010216D01*
X005499Y010196D01*
X005495Y010196D01*
X005481Y010182D01*
X005968Y009771D02*
X006083Y009771D01*
X006338Y010141D02*
X006613Y010416D01*
X006613Y010408D01*
X006346Y010141D01*
X006338Y010141D01*
X006436Y010239D02*
X006443Y010239D01*
X006592Y010395D02*
X006599Y010395D01*
X006990Y011084D02*
X006990Y011124D01*
X007098Y011487D02*
X008074Y011487D01*
X008105Y011562D02*
X007987Y011278D01*
X007987Y010970D01*
X008105Y010685D01*
X008323Y010467D01*
X008607Y010350D01*
X008915Y010350D01*
X009200Y010467D01*
X009418Y010685D01*
X009535Y010970D01*
X009535Y011278D01*
X009418Y011562D01*
X009200Y011780D01*
X008915Y011898D01*
X008607Y011898D01*
X008323Y011780D01*
X008105Y011562D01*
X008186Y011643D02*
X006657Y011643D01*
X006657Y011799D02*
X008368Y011799D01*
X008009Y011331D02*
X007312Y011331D01*
X007367Y011175D02*
X007987Y011175D01*
X007987Y011019D02*
X007354Y011019D01*
X007262Y010863D02*
X008032Y010863D01*
X008096Y010707D02*
X007270Y010707D01*
X007358Y010551D02*
X008240Y010551D01*
X008499Y010395D02*
X007367Y010395D01*
X007307Y010239D02*
X009857Y010239D01*
X009857Y010395D02*
X009024Y010395D01*
X009283Y010551D02*
X009857Y010551D01*
X009857Y010707D02*
X009426Y010707D01*
X009491Y010863D02*
X009857Y010863D01*
X009857Y011019D02*
X009535Y011019D01*
X009535Y011175D02*
X009857Y011175D01*
X009857Y011331D02*
X009513Y011331D01*
X009449Y011487D02*
X009857Y011487D01*
X009857Y011643D02*
X009337Y011643D01*
X009155Y011799D02*
X009857Y011799D01*
X009857Y010083D02*
X007457Y010083D01*
X007503Y009927D02*
X009857Y009927D01*
X009857Y009771D02*
X007503Y009771D01*
X007503Y009615D02*
X009857Y009615D01*
X009857Y009459D02*
X007503Y009459D01*
X007015Y009303D02*
X009857Y009303D01*
X009857Y008761D02*
X009857Y004824D01*
X006868Y004824D01*
X007063Y005020D01*
X007398Y005020D01*
X007503Y005124D01*
X007503Y005706D01*
X007398Y005810D01*
X007209Y005810D01*
X007309Y005910D01*
X007367Y006049D01*
X007367Y006199D01*
X007309Y006337D01*
X007203Y006443D01*
X007167Y006458D01*
X007203Y006473D01*
X007309Y006579D01*
X007367Y006718D01*
X007367Y006868D01*
X007309Y007006D01*
X007203Y007112D01*
X007065Y007170D01*
X006915Y007170D01*
X006776Y007112D01*
X006716Y007052D01*
X006716Y007776D01*
X006729Y007776D01*
X006793Y007839D01*
X006821Y007811D01*
X006862Y007788D01*
X006907Y007776D01*
X007108Y007776D01*
X007108Y008151D01*
X007147Y008151D01*
X007147Y007776D01*
X007348Y007776D01*
X007393Y007788D01*
X007434Y007811D01*
X007467Y007845D01*
X007491Y007885D01*
X007503Y007931D01*
X007503Y008151D01*
X007147Y008151D01*
X007147Y008191D01*
X007108Y008191D01*
X007108Y008566D01*
X006907Y008566D01*
X006862Y008554D01*
X006821Y008530D01*
X006793Y008502D01*
X006729Y008566D01*
X006187Y008566D01*
X006083Y008461D01*
X006083Y007880D01*
X006187Y007776D01*
X006201Y007776D01*
X006201Y007140D01*
X006153Y007092D01*
X006197Y007198D01*
X006197Y007388D01*
X006124Y007564D01*
X005989Y007699D01*
X005813Y007772D01*
X005623Y007772D01*
X005447Y007699D01*
X005338Y007590D01*
X005098Y007590D01*
X004989Y007699D01*
X004813Y007772D01*
X004623Y007772D01*
X004447Y007699D01*
X004312Y007564D01*
X004239Y007388D01*
X004239Y007198D01*
X004283Y007092D01*
X004235Y007140D01*
X004235Y007776D01*
X004249Y007776D01*
X004354Y007880D01*
X004354Y008461D01*
X004249Y008566D01*
X003707Y008566D01*
X003643Y008502D01*
X003615Y008530D01*
X003575Y008554D01*
X003529Y008566D01*
X003328Y008566D01*
X003328Y008191D01*
X003289Y008191D01*
X003289Y008566D01*
X003088Y008566D01*
X003043Y008554D01*
X003002Y008530D01*
X002969Y008497D01*
X002945Y008456D01*
X002933Y008411D01*
X002933Y008191D01*
X003289Y008191D01*
X003289Y008151D01*
X003328Y008151D01*
X003328Y007776D01*
X003529Y007776D01*
X003575Y007788D01*
X003615Y007811D01*
X003643Y007839D01*
X003707Y007776D01*
X003720Y007776D01*
X003720Y006982D01*
X003760Y006887D01*
X003832Y006815D01*
X004245Y006402D01*
X004239Y006388D01*
X004239Y006198D01*
X004312Y006022D01*
X004447Y005887D01*
X004484Y005872D01*
X004484Y005661D01*
X004547Y005598D01*
X004547Y005516D01*
X004566Y005497D01*
X004559Y005486D01*
X004547Y005440D01*
X004547Y005376D01*
X004844Y005376D01*
X004844Y005376D01*
X004547Y005376D01*
X004547Y005354D01*
X004370Y005354D01*
X004354Y005370D01*
X004354Y005706D01*
X004249Y005810D01*
X003707Y005810D01*
X003643Y005746D01*
X003615Y005775D01*
X003575Y005798D01*
X003529Y005810D01*
X003328Y005810D01*
X003328Y005435D01*
X003289Y005435D01*
X003289Y005810D01*
X003088Y005810D01*
X003043Y005798D01*
X003002Y005775D01*
X002969Y005741D01*
X002945Y005700D01*
X002933Y005655D01*
X002933Y005435D01*
X003289Y005435D01*
X003289Y005395D01*
X003328Y005395D01*
X003328Y005020D01*
X003529Y005020D01*
X003575Y005032D01*
X003615Y005055D01*
X003643Y005083D01*
X003707Y005020D01*
X004043Y005020D01*
X004176Y004886D01*
X004826Y004886D01*
X004887Y004824D01*
X000579Y004824D01*
X000579Y008761D01*
X009857Y008761D01*
X009857Y008679D02*
X000579Y008679D01*
X000579Y008523D02*
X002995Y008523D01*
X002933Y008367D02*
X000579Y008367D01*
X000579Y008211D02*
X002933Y008211D01*
X002933Y008151D02*
X002933Y007931D01*
X002945Y007885D01*
X002969Y007845D01*
X003002Y007811D01*
X003043Y007788D01*
X003088Y007776D01*
X003289Y007776D01*
X003289Y008151D01*
X002933Y008151D01*
X002933Y008055D02*
X000579Y008055D01*
X000579Y007899D02*
X002942Y007899D01*
X003289Y007899D02*
X003328Y007899D01*
X003328Y008055D02*
X003289Y008055D01*
X003289Y008211D02*
X003328Y008211D01*
X003328Y008367D02*
X003289Y008367D01*
X003289Y008523D02*
X003328Y008523D01*
X003623Y008523D02*
X003664Y008523D01*
X003978Y008171D02*
X003978Y007033D01*
X004718Y006293D01*
X004609Y006766D02*
X004517Y006858D01*
X004623Y006814D01*
X004813Y006814D01*
X004984Y006885D01*
X004984Y006701D01*
X004813Y006772D01*
X004623Y006772D01*
X004609Y006766D01*
X004568Y006807D02*
X004984Y006807D01*
X005452Y006807D02*
X005868Y006807D01*
X005813Y006814D02*
X005919Y006858D01*
X005827Y006766D01*
X005813Y006772D01*
X005623Y006772D01*
X005452Y006701D01*
X005452Y006885D01*
X005623Y006814D01*
X005813Y006814D01*
X005718Y006293D02*
X006458Y007033D01*
X006458Y008171D01*
X006201Y007743D02*
X005882Y007743D01*
X006083Y007899D02*
X004354Y007899D01*
X004354Y008055D02*
X006083Y008055D01*
X006083Y008211D02*
X004354Y008211D01*
X004354Y008367D02*
X006083Y008367D01*
X006144Y008523D02*
X004292Y008523D01*
X004235Y007743D02*
X004554Y007743D01*
X004335Y007587D02*
X004235Y007587D01*
X004235Y007431D02*
X004257Y007431D01*
X004235Y007275D02*
X004239Y007275D01*
X004256Y007119D02*
X004272Y007119D01*
X003996Y006651D02*
X002449Y006651D01*
X002449Y006639D02*
X002331Y006354D01*
X002113Y006137D01*
X001829Y006019D01*
X001521Y006019D01*
X001236Y006137D01*
X001019Y006354D01*
X000901Y006639D01*
X000901Y006947D01*
X001019Y007231D01*
X001236Y007449D01*
X001521Y007567D01*
X001829Y007567D01*
X002113Y007449D01*
X002331Y007231D01*
X002449Y006947D01*
X002449Y006639D01*
X002389Y006495D02*
X004152Y006495D01*
X004239Y006339D02*
X002316Y006339D01*
X002160Y006183D02*
X004245Y006183D01*
X004310Y006027D02*
X001849Y006027D01*
X001501Y006027D02*
X000579Y006027D01*
X000579Y005871D02*
X004484Y005871D01*
X004484Y005715D02*
X004344Y005715D01*
X004354Y005559D02*
X004547Y005559D01*
X004547Y005403D02*
X004354Y005403D01*
X004127Y004935D02*
X000579Y004935D01*
X000579Y005091D02*
X002967Y005091D01*
X002969Y005089D02*
X003002Y005055D01*
X003043Y005032D01*
X003088Y005020D01*
X003289Y005020D01*
X003289Y005395D01*
X002933Y005395D01*
X002933Y005175D01*
X002945Y005129D01*
X002969Y005089D01*
X002933Y005247D02*
X000579Y005247D01*
X000579Y005403D02*
X003289Y005403D01*
X003289Y005247D02*
X003328Y005247D01*
X003328Y005091D02*
X003289Y005091D01*
X003289Y005559D02*
X003328Y005559D01*
X003328Y005715D02*
X003289Y005715D01*
X002954Y005715D02*
X000579Y005715D01*
X000579Y005559D02*
X002933Y005559D01*
X002449Y006807D02*
X003840Y006807D01*
X003728Y006963D02*
X002442Y006963D01*
X002377Y007119D02*
X003720Y007119D01*
X003720Y007275D02*
X002287Y007275D01*
X002131Y007431D02*
X003720Y007431D01*
X003720Y007587D02*
X000579Y007587D01*
X000579Y007431D02*
X001218Y007431D01*
X001062Y007275D02*
X000579Y007275D01*
X000579Y007119D02*
X000972Y007119D01*
X000908Y006963D02*
X000579Y006963D01*
X000579Y006807D02*
X000901Y006807D01*
X000901Y006651D02*
X000579Y006651D01*
X000579Y006495D02*
X000960Y006495D01*
X001034Y006339D02*
X000579Y006339D01*
X000579Y006183D02*
X001190Y006183D01*
X000579Y007743D02*
X003720Y007743D01*
X004090Y009303D02*
X000579Y009303D01*
X000579Y009459D02*
X002946Y009459D01*
X002945Y009460D02*
X002969Y009419D01*
X003002Y009386D01*
X003043Y009363D01*
X003088Y009350D01*
X003289Y009350D01*
X003289Y009726D01*
X002933Y009726D01*
X002933Y009506D01*
X002945Y009460D01*
X002933Y009615D02*
X000579Y009615D01*
X000579Y009771D02*
X002933Y009771D01*
X002933Y009765D02*
X003289Y009765D01*
X003289Y010141D01*
X003088Y010141D01*
X003043Y010129D01*
X003002Y010105D01*
X002969Y010072D01*
X002945Y010031D01*
X002933Y009986D01*
X002933Y009765D01*
X002933Y009927D02*
X000579Y009927D01*
X000579Y010083D02*
X002980Y010083D01*
X003289Y010083D02*
X003328Y010083D01*
X003328Y009927D02*
X003289Y009927D01*
X003289Y009771D02*
X003328Y009771D01*
X003328Y009615D02*
X003289Y009615D01*
X003289Y009459D02*
X003328Y009459D01*
X003638Y010083D02*
X003649Y010083D01*
X004115Y010863D02*
X002404Y010863D01*
X002449Y010970D02*
X002331Y010685D01*
X002113Y010467D01*
X001829Y010350D01*
X001521Y010350D01*
X001236Y010467D01*
X001019Y010685D01*
X000901Y010970D01*
X000901Y011278D01*
X001019Y011562D01*
X001236Y011780D01*
X001521Y011898D01*
X001829Y011898D01*
X002113Y011780D01*
X002331Y011562D01*
X002449Y011278D01*
X002449Y010970D01*
X002449Y011019D02*
X003959Y011019D01*
X003803Y011175D02*
X002449Y011175D01*
X002427Y011331D02*
X003720Y011331D01*
X003720Y011487D02*
X002362Y011487D01*
X002250Y011643D02*
X003720Y011643D01*
X003720Y011799D02*
X002068Y011799D01*
X002340Y010707D02*
X004239Y010707D01*
X004239Y010551D02*
X002197Y010551D01*
X001938Y010395D02*
X004295Y010395D01*
X004426Y010239D02*
X000579Y010239D01*
X000579Y010395D02*
X001412Y010395D01*
X001153Y010551D02*
X000579Y010551D01*
X000579Y010707D02*
X001010Y010707D01*
X000945Y010863D02*
X000579Y010863D01*
X000579Y011019D02*
X000901Y011019D01*
X000901Y011175D02*
X000579Y011175D01*
X000579Y011331D02*
X000923Y011331D01*
X000987Y011487D02*
X000579Y011487D01*
X000579Y011643D02*
X001099Y011643D01*
X001282Y011799D02*
X000579Y011799D01*
X004235Y011799D02*
X004272Y011799D01*
X004235Y011955D02*
X004372Y011955D01*
X004239Y011643D02*
X004235Y011643D01*
X004235Y011487D02*
X004257Y011487D01*
X004517Y011189D02*
X004623Y011145D01*
X004813Y011145D01*
X004984Y011216D01*
X004984Y011032D01*
X004813Y011102D01*
X004623Y011102D01*
X004609Y011097D01*
X004517Y011189D01*
X004531Y011175D02*
X004551Y011175D01*
X004885Y011175D02*
X004984Y011175D01*
X005064Y011955D02*
X005372Y011955D01*
X004484Y010083D02*
X004307Y010083D01*
X004354Y009927D02*
X004547Y009927D01*
X004547Y009771D02*
X004354Y009771D01*
X004882Y007743D02*
X005554Y007743D01*
X006101Y007587D02*
X006201Y007587D01*
X006201Y007431D02*
X006179Y007431D01*
X006197Y007275D02*
X006201Y007275D01*
X006180Y007119D02*
X006164Y007119D01*
X006441Y006651D02*
X006517Y006651D01*
X006613Y006747D02*
X006613Y006824D01*
X006604Y006815D01*
X006191Y006402D01*
X006197Y006388D01*
X006197Y006331D01*
X006613Y006747D01*
X006613Y006807D02*
X006596Y006807D01*
X006716Y007119D02*
X006793Y007119D01*
X006716Y007275D02*
X008149Y007275D01*
X008105Y007231D02*
X008323Y007449D01*
X008607Y007567D01*
X008915Y007567D01*
X009200Y007449D01*
X009418Y007231D01*
X009535Y006947D01*
X009535Y006639D01*
X009418Y006354D01*
X009200Y006137D01*
X008915Y006019D01*
X008607Y006019D01*
X008323Y006137D01*
X008105Y006354D01*
X007987Y006639D01*
X007987Y006947D01*
X008105Y007231D01*
X008059Y007119D02*
X007187Y007119D01*
X007327Y006963D02*
X007994Y006963D01*
X007987Y006807D02*
X007367Y006807D01*
X007339Y006651D02*
X007987Y006651D01*
X008047Y006495D02*
X007225Y006495D01*
X007307Y006339D02*
X008120Y006339D01*
X008276Y006183D02*
X007367Y006183D01*
X007358Y006027D02*
X008587Y006027D01*
X008936Y006027D02*
X009857Y006027D01*
X009857Y005871D02*
X007270Y005871D01*
X007493Y005715D02*
X009857Y005715D01*
X009857Y005559D02*
X007503Y005559D01*
X007503Y005403D02*
X009857Y005403D01*
X009857Y005247D02*
X007503Y005247D01*
X007470Y005091D02*
X009857Y005091D01*
X009857Y004935D02*
X006979Y004935D01*
X006407Y005871D02*
X006399Y005871D01*
X006361Y005826D02*
X006346Y005810D01*
X006338Y005810D01*
X006613Y006085D01*
X006613Y006077D01*
X006361Y005826D01*
X006555Y006027D02*
X006563Y006027D01*
X006205Y006339D02*
X006197Y006339D01*
X006285Y006495D02*
X006361Y006495D01*
X006083Y005555D02*
X006083Y005370D01*
X006066Y005354D01*
X005452Y005354D01*
X005452Y005411D01*
X005481Y005411D01*
X005495Y005398D01*
X005925Y005398D01*
X006083Y005555D01*
X006083Y005403D02*
X005931Y005403D01*
X005490Y005403D02*
X005452Y005403D01*
X005481Y005852D02*
X005452Y005852D01*
X005452Y005885D01*
X005499Y005865D01*
X005495Y005865D01*
X005481Y005852D01*
X005485Y005871D02*
X005452Y005871D01*
X004984Y005871D02*
X004952Y005871D01*
X004952Y005872D02*
X004984Y005885D01*
X004984Y005852D01*
X004955Y005852D01*
X004952Y005854D01*
X004952Y005872D01*
X003978Y003840D02*
X003978Y002702D01*
X004718Y001962D01*
X005718Y001962D02*
X006458Y002702D01*
X006458Y003840D01*
X006716Y007431D02*
X008305Y007431D01*
X007495Y007899D02*
X009857Y007899D01*
X009857Y007743D02*
X006716Y007743D01*
X006716Y007587D02*
X009857Y007587D01*
X009857Y007431D02*
X009218Y007431D01*
X009374Y007275D02*
X009857Y007275D01*
X009857Y007119D02*
X009464Y007119D01*
X009529Y006963D02*
X009857Y006963D01*
X009857Y006807D02*
X009535Y006807D01*
X009535Y006651D02*
X009857Y006651D01*
X009857Y006495D02*
X009476Y006495D01*
X009402Y006339D02*
X009857Y006339D01*
X009857Y006183D02*
X009246Y006183D01*
X009857Y008055D02*
X007503Y008055D01*
X007503Y008191D02*
X007503Y008411D01*
X007491Y008456D01*
X007467Y008497D01*
X007434Y008530D01*
X007393Y008554D01*
X007348Y008566D01*
X007147Y008566D01*
X007147Y008191D01*
X007503Y008191D01*
X007503Y008211D02*
X009857Y008211D01*
X009857Y008367D02*
X007503Y008367D01*
X007442Y008523D02*
X009857Y008523D01*
X007147Y008523D02*
X007108Y008523D01*
X007108Y008367D02*
X007147Y008367D01*
X007147Y008211D02*
X007108Y008211D01*
X007108Y008055D02*
X007147Y008055D01*
X007147Y007899D02*
X007108Y007899D01*
X006813Y008523D02*
X006772Y008523D01*
X006668Y011331D02*
X006657Y011331D01*
X006657Y011487D02*
X006881Y011487D01*
D15*
X005718Y011624D02*
X005218Y011624D01*
X004718Y011624D01*
X004718Y007293D02*
X005218Y007293D01*
X005718Y007293D01*
X005718Y002962D02*
X004718Y002962D01*
X004718Y015954D02*
X005218Y015954D01*
X005718Y015954D01*
D16*
X006990Y016124D03*
X006990Y015454D03*
X006990Y014785D03*
X006990Y011793D03*
X006990Y011124D03*
X006990Y010454D03*
X006990Y007462D03*
X006990Y006793D03*
X006990Y006124D03*
X006990Y003131D03*
X006990Y002462D03*
X006990Y001793D03*
M02*
