G75*
%MOIN*%
%OFA0B0*%
%FSLAX24Y24*%
%IPPOS*%
%LPD*%
%AMOC8*
5,1,8,0,0,1.08239X$1,22.5*
%
%ADD10C,0.0000*%
%ADD11C,0.0039*%
%ADD12C,0.0010*%
%ADD13C,0.0050*%
%ADD14C,0.0020*%
D10*
X000100Y000100D02*
X000100Y017817D01*
X010336Y017817D01*
X010336Y000100D01*
X000100Y000100D01*
X001380Y002462D02*
X001382Y002496D01*
X001388Y002530D01*
X001398Y002563D01*
X001411Y002594D01*
X001429Y002624D01*
X001449Y002652D01*
X001473Y002677D01*
X001499Y002699D01*
X001527Y002717D01*
X001558Y002733D01*
X001590Y002745D01*
X001624Y002753D01*
X001658Y002757D01*
X001692Y002757D01*
X001726Y002753D01*
X001760Y002745D01*
X001792Y002733D01*
X001822Y002717D01*
X001851Y002699D01*
X001877Y002677D01*
X001901Y002652D01*
X001921Y002624D01*
X001939Y002594D01*
X001952Y002563D01*
X001962Y002530D01*
X001968Y002496D01*
X001970Y002462D01*
X001968Y002428D01*
X001962Y002394D01*
X001952Y002361D01*
X001939Y002330D01*
X001921Y002300D01*
X001901Y002272D01*
X001877Y002247D01*
X001851Y002225D01*
X001823Y002207D01*
X001792Y002191D01*
X001760Y002179D01*
X001726Y002171D01*
X001692Y002167D01*
X001658Y002167D01*
X001624Y002171D01*
X001590Y002179D01*
X001558Y002191D01*
X001527Y002207D01*
X001499Y002225D01*
X001473Y002247D01*
X001449Y002272D01*
X001429Y002300D01*
X001411Y002330D01*
X001398Y002361D01*
X001388Y002394D01*
X001382Y002428D01*
X001380Y002462D01*
X001380Y006793D02*
X001382Y006827D01*
X001388Y006861D01*
X001398Y006894D01*
X001411Y006925D01*
X001429Y006955D01*
X001449Y006983D01*
X001473Y007008D01*
X001499Y007030D01*
X001527Y007048D01*
X001558Y007064D01*
X001590Y007076D01*
X001624Y007084D01*
X001658Y007088D01*
X001692Y007088D01*
X001726Y007084D01*
X001760Y007076D01*
X001792Y007064D01*
X001822Y007048D01*
X001851Y007030D01*
X001877Y007008D01*
X001901Y006983D01*
X001921Y006955D01*
X001939Y006925D01*
X001952Y006894D01*
X001962Y006861D01*
X001968Y006827D01*
X001970Y006793D01*
X001968Y006759D01*
X001962Y006725D01*
X001952Y006692D01*
X001939Y006661D01*
X001921Y006631D01*
X001901Y006603D01*
X001877Y006578D01*
X001851Y006556D01*
X001823Y006538D01*
X001792Y006522D01*
X001760Y006510D01*
X001726Y006502D01*
X001692Y006498D01*
X001658Y006498D01*
X001624Y006502D01*
X001590Y006510D01*
X001558Y006522D01*
X001527Y006538D01*
X001499Y006556D01*
X001473Y006578D01*
X001449Y006603D01*
X001429Y006631D01*
X001411Y006661D01*
X001398Y006692D01*
X001388Y006725D01*
X001382Y006759D01*
X001380Y006793D01*
X001380Y011124D02*
X001382Y011158D01*
X001388Y011192D01*
X001398Y011225D01*
X001411Y011256D01*
X001429Y011286D01*
X001449Y011314D01*
X001473Y011339D01*
X001499Y011361D01*
X001527Y011379D01*
X001558Y011395D01*
X001590Y011407D01*
X001624Y011415D01*
X001658Y011419D01*
X001692Y011419D01*
X001726Y011415D01*
X001760Y011407D01*
X001792Y011395D01*
X001822Y011379D01*
X001851Y011361D01*
X001877Y011339D01*
X001901Y011314D01*
X001921Y011286D01*
X001939Y011256D01*
X001952Y011225D01*
X001962Y011192D01*
X001968Y011158D01*
X001970Y011124D01*
X001968Y011090D01*
X001962Y011056D01*
X001952Y011023D01*
X001939Y010992D01*
X001921Y010962D01*
X001901Y010934D01*
X001877Y010909D01*
X001851Y010887D01*
X001823Y010869D01*
X001792Y010853D01*
X001760Y010841D01*
X001726Y010833D01*
X001692Y010829D01*
X001658Y010829D01*
X001624Y010833D01*
X001590Y010841D01*
X001558Y010853D01*
X001527Y010869D01*
X001499Y010887D01*
X001473Y010909D01*
X001449Y010934D01*
X001429Y010962D01*
X001411Y010992D01*
X001398Y011023D01*
X001388Y011056D01*
X001382Y011090D01*
X001380Y011124D01*
X001380Y015454D02*
X001382Y015488D01*
X001388Y015522D01*
X001398Y015555D01*
X001411Y015586D01*
X001429Y015616D01*
X001449Y015644D01*
X001473Y015669D01*
X001499Y015691D01*
X001527Y015709D01*
X001558Y015725D01*
X001590Y015737D01*
X001624Y015745D01*
X001658Y015749D01*
X001692Y015749D01*
X001726Y015745D01*
X001760Y015737D01*
X001792Y015725D01*
X001822Y015709D01*
X001851Y015691D01*
X001877Y015669D01*
X001901Y015644D01*
X001921Y015616D01*
X001939Y015586D01*
X001952Y015555D01*
X001962Y015522D01*
X001968Y015488D01*
X001970Y015454D01*
X001968Y015420D01*
X001962Y015386D01*
X001952Y015353D01*
X001939Y015322D01*
X001921Y015292D01*
X001901Y015264D01*
X001877Y015239D01*
X001851Y015217D01*
X001823Y015199D01*
X001792Y015183D01*
X001760Y015171D01*
X001726Y015163D01*
X001692Y015159D01*
X001658Y015159D01*
X001624Y015163D01*
X001590Y015171D01*
X001558Y015183D01*
X001527Y015199D01*
X001499Y015217D01*
X001473Y015239D01*
X001449Y015264D01*
X001429Y015292D01*
X001411Y015322D01*
X001398Y015353D01*
X001388Y015386D01*
X001382Y015420D01*
X001380Y015454D01*
X008466Y015454D02*
X008468Y015488D01*
X008474Y015522D01*
X008484Y015555D01*
X008497Y015586D01*
X008515Y015616D01*
X008535Y015644D01*
X008559Y015669D01*
X008585Y015691D01*
X008613Y015709D01*
X008644Y015725D01*
X008676Y015737D01*
X008710Y015745D01*
X008744Y015749D01*
X008778Y015749D01*
X008812Y015745D01*
X008846Y015737D01*
X008878Y015725D01*
X008908Y015709D01*
X008937Y015691D01*
X008963Y015669D01*
X008987Y015644D01*
X009007Y015616D01*
X009025Y015586D01*
X009038Y015555D01*
X009048Y015522D01*
X009054Y015488D01*
X009056Y015454D01*
X009054Y015420D01*
X009048Y015386D01*
X009038Y015353D01*
X009025Y015322D01*
X009007Y015292D01*
X008987Y015264D01*
X008963Y015239D01*
X008937Y015217D01*
X008909Y015199D01*
X008878Y015183D01*
X008846Y015171D01*
X008812Y015163D01*
X008778Y015159D01*
X008744Y015159D01*
X008710Y015163D01*
X008676Y015171D01*
X008644Y015183D01*
X008613Y015199D01*
X008585Y015217D01*
X008559Y015239D01*
X008535Y015264D01*
X008515Y015292D01*
X008497Y015322D01*
X008484Y015353D01*
X008474Y015386D01*
X008468Y015420D01*
X008466Y015454D01*
X008466Y011124D02*
X008468Y011158D01*
X008474Y011192D01*
X008484Y011225D01*
X008497Y011256D01*
X008515Y011286D01*
X008535Y011314D01*
X008559Y011339D01*
X008585Y011361D01*
X008613Y011379D01*
X008644Y011395D01*
X008676Y011407D01*
X008710Y011415D01*
X008744Y011419D01*
X008778Y011419D01*
X008812Y011415D01*
X008846Y011407D01*
X008878Y011395D01*
X008908Y011379D01*
X008937Y011361D01*
X008963Y011339D01*
X008987Y011314D01*
X009007Y011286D01*
X009025Y011256D01*
X009038Y011225D01*
X009048Y011192D01*
X009054Y011158D01*
X009056Y011124D01*
X009054Y011090D01*
X009048Y011056D01*
X009038Y011023D01*
X009025Y010992D01*
X009007Y010962D01*
X008987Y010934D01*
X008963Y010909D01*
X008937Y010887D01*
X008909Y010869D01*
X008878Y010853D01*
X008846Y010841D01*
X008812Y010833D01*
X008778Y010829D01*
X008744Y010829D01*
X008710Y010833D01*
X008676Y010841D01*
X008644Y010853D01*
X008613Y010869D01*
X008585Y010887D01*
X008559Y010909D01*
X008535Y010934D01*
X008515Y010962D01*
X008497Y010992D01*
X008484Y011023D01*
X008474Y011056D01*
X008468Y011090D01*
X008466Y011124D01*
X008466Y006793D02*
X008468Y006827D01*
X008474Y006861D01*
X008484Y006894D01*
X008497Y006925D01*
X008515Y006955D01*
X008535Y006983D01*
X008559Y007008D01*
X008585Y007030D01*
X008613Y007048D01*
X008644Y007064D01*
X008676Y007076D01*
X008710Y007084D01*
X008744Y007088D01*
X008778Y007088D01*
X008812Y007084D01*
X008846Y007076D01*
X008878Y007064D01*
X008908Y007048D01*
X008937Y007030D01*
X008963Y007008D01*
X008987Y006983D01*
X009007Y006955D01*
X009025Y006925D01*
X009038Y006894D01*
X009048Y006861D01*
X009054Y006827D01*
X009056Y006793D01*
X009054Y006759D01*
X009048Y006725D01*
X009038Y006692D01*
X009025Y006661D01*
X009007Y006631D01*
X008987Y006603D01*
X008963Y006578D01*
X008937Y006556D01*
X008909Y006538D01*
X008878Y006522D01*
X008846Y006510D01*
X008812Y006502D01*
X008778Y006498D01*
X008744Y006498D01*
X008710Y006502D01*
X008676Y006510D01*
X008644Y006522D01*
X008613Y006538D01*
X008585Y006556D01*
X008559Y006578D01*
X008535Y006603D01*
X008515Y006631D01*
X008497Y006661D01*
X008484Y006692D01*
X008474Y006725D01*
X008468Y006759D01*
X008466Y006793D01*
X008466Y002462D02*
X008468Y002496D01*
X008474Y002530D01*
X008484Y002563D01*
X008497Y002594D01*
X008515Y002624D01*
X008535Y002652D01*
X008559Y002677D01*
X008585Y002699D01*
X008613Y002717D01*
X008644Y002733D01*
X008676Y002745D01*
X008710Y002753D01*
X008744Y002757D01*
X008778Y002757D01*
X008812Y002753D01*
X008846Y002745D01*
X008878Y002733D01*
X008908Y002717D01*
X008937Y002699D01*
X008963Y002677D01*
X008987Y002652D01*
X009007Y002624D01*
X009025Y002594D01*
X009038Y002563D01*
X009048Y002530D01*
X009054Y002496D01*
X009056Y002462D01*
X009054Y002428D01*
X009048Y002394D01*
X009038Y002361D01*
X009025Y002330D01*
X009007Y002300D01*
X008987Y002272D01*
X008963Y002247D01*
X008937Y002225D01*
X008909Y002207D01*
X008878Y002191D01*
X008846Y002179D01*
X008812Y002171D01*
X008778Y002167D01*
X008744Y002167D01*
X008710Y002171D01*
X008676Y002179D01*
X008644Y002191D01*
X008613Y002207D01*
X008585Y002225D01*
X008559Y002247D01*
X008535Y002272D01*
X008515Y002300D01*
X008497Y002330D01*
X008484Y002361D01*
X008474Y002394D01*
X008468Y002428D01*
X008466Y002462D01*
D11*
X005474Y001439D02*
X005474Y000651D01*
X004962Y000651D01*
X004962Y001439D01*
X005474Y001439D01*
X005474Y004982D02*
X004962Y004982D01*
X004962Y005769D01*
X005474Y005769D01*
X005474Y004982D01*
X005474Y009313D02*
X004962Y009313D01*
X004962Y010100D01*
X005474Y010100D01*
X005474Y009313D01*
X005474Y013643D02*
X004962Y013643D01*
X004962Y014431D01*
X005474Y014431D01*
X005474Y013643D01*
D12*
X005222Y013599D02*
X005192Y013599D01*
X005207Y013599D02*
X005207Y013509D01*
X005222Y013509D02*
X005192Y013509D01*
X005161Y013524D02*
X005146Y013509D01*
X005116Y013509D01*
X005101Y013524D01*
X005069Y013524D02*
X005054Y013509D01*
X005024Y013509D01*
X005009Y013524D01*
X005009Y013554D01*
X005024Y013569D01*
X005039Y013569D01*
X005069Y013554D01*
X005069Y013599D01*
X005009Y013599D01*
X005101Y013584D02*
X005116Y013599D01*
X005146Y013599D01*
X005161Y013584D01*
X005161Y013524D01*
X005146Y009268D02*
X005161Y009253D01*
X005161Y009193D01*
X005146Y009178D01*
X005116Y009178D01*
X005101Y009193D01*
X005069Y009178D02*
X005009Y009238D01*
X005009Y009253D01*
X005024Y009268D01*
X005054Y009268D01*
X005069Y009253D01*
X005101Y009253D02*
X005116Y009268D01*
X005146Y009268D01*
X005192Y009268D02*
X005222Y009268D01*
X005207Y009268D02*
X005207Y009178D01*
X005222Y009178D02*
X005192Y009178D01*
X005069Y009178D02*
X005009Y009178D01*
X005024Y004938D02*
X005009Y004923D01*
X005009Y004908D01*
X005024Y004893D01*
X005009Y004878D01*
X005009Y004863D01*
X005024Y004848D01*
X005054Y004848D01*
X005069Y004863D01*
X005101Y004863D02*
X005116Y004848D01*
X005146Y004848D01*
X005161Y004863D01*
X005161Y004923D01*
X005146Y004938D01*
X005116Y004938D01*
X005101Y004923D01*
X005069Y004923D02*
X005054Y004938D01*
X005024Y004938D01*
X005024Y004893D02*
X005039Y004893D01*
X005192Y004938D02*
X005222Y004938D01*
X005207Y004938D02*
X005207Y004848D01*
X005222Y004848D02*
X005192Y004848D01*
X005222Y000607D02*
X005192Y000607D01*
X005207Y000607D02*
X005207Y000517D01*
X005222Y000517D02*
X005192Y000517D01*
X005161Y000532D02*
X005146Y000517D01*
X005116Y000517D01*
X005101Y000532D01*
X005069Y000532D02*
X005069Y000517D01*
X005069Y000532D02*
X005009Y000592D01*
X005009Y000607D01*
X005069Y000607D01*
X005101Y000592D02*
X005116Y000607D01*
X005146Y000607D01*
X005161Y000592D01*
X005161Y000532D01*
D13*
X004218Y001462D02*
X006418Y001462D01*
X006418Y003462D01*
X004018Y003462D01*
X004018Y001662D01*
X004218Y001462D01*
X004218Y005793D02*
X006418Y005793D01*
X006418Y007793D01*
X004018Y007793D01*
X004018Y005993D01*
X004218Y005793D01*
X004218Y010124D02*
X006418Y010124D01*
X006418Y012124D01*
X004018Y012124D01*
X004018Y010324D01*
X004218Y010124D01*
X004218Y014454D02*
X006418Y014454D01*
X006418Y016454D01*
X004018Y016454D01*
X004018Y014654D01*
X004218Y014454D01*
D14*
X003928Y013797D02*
X003928Y013617D01*
X003988Y013617D02*
X003868Y013617D01*
X003804Y013617D02*
X003774Y013617D01*
X003774Y013647D01*
X003804Y013647D01*
X003804Y013617D01*
X003712Y013617D02*
X003592Y013617D01*
X003652Y013617D02*
X003652Y013797D01*
X003712Y013737D01*
X003528Y013797D02*
X003528Y013617D01*
X003528Y013677D02*
X003408Y013797D01*
X003344Y013767D02*
X003314Y013797D01*
X003254Y013797D01*
X003224Y013767D01*
X003224Y013737D01*
X003344Y013617D01*
X003224Y013617D01*
X003408Y013617D02*
X003498Y013707D01*
X003928Y013797D02*
X003988Y013737D01*
X003468Y012222D02*
X003468Y012042D01*
X003528Y012042D02*
X003408Y012042D01*
X003344Y012042D02*
X003344Y012222D01*
X003314Y012132D02*
X003224Y012042D01*
X003344Y012102D02*
X003224Y012222D01*
X003468Y012222D02*
X003528Y012162D01*
X003468Y009466D02*
X003468Y009286D01*
X003528Y009286D02*
X003408Y009286D01*
X003344Y009286D02*
X003344Y009466D01*
X003314Y009376D02*
X003224Y009286D01*
X003344Y009346D02*
X003224Y009466D01*
X003468Y009466D02*
X003528Y009406D01*
X003590Y009316D02*
X003590Y009286D01*
X003620Y009286D01*
X003620Y009316D01*
X003590Y009316D01*
X003684Y009286D02*
X003804Y009286D01*
X003744Y009286D02*
X003744Y009466D01*
X003804Y009406D01*
X003652Y007891D02*
X003652Y007711D01*
X003712Y007711D02*
X003592Y007711D01*
X003528Y007711D02*
X003528Y007891D01*
X003498Y007801D02*
X003408Y007711D01*
X003344Y007711D02*
X003224Y007711D01*
X003284Y007711D02*
X003284Y007891D01*
X003344Y007831D01*
X003408Y007891D02*
X003528Y007771D01*
X003652Y007891D02*
X003712Y007831D01*
X003652Y005135D02*
X003652Y004955D01*
X003712Y004955D02*
X003592Y004955D01*
X003528Y004955D02*
X003528Y005135D01*
X003498Y005045D02*
X003408Y004955D01*
X003344Y004955D02*
X003224Y004955D01*
X003284Y004955D02*
X003284Y005135D01*
X003344Y005075D01*
X003408Y005135D02*
X003528Y005015D01*
X003652Y005135D02*
X003712Y005075D01*
X003774Y004985D02*
X003774Y004955D01*
X003804Y004955D01*
X003804Y004985D01*
X003774Y004985D01*
X003868Y004955D02*
X003988Y004955D01*
X003928Y004955D02*
X003928Y005135D01*
X003988Y005075D01*
X003652Y003561D02*
X003652Y003380D01*
X003712Y003380D02*
X003592Y003380D01*
X003528Y003380D02*
X003528Y003561D01*
X003498Y003471D02*
X003408Y003380D01*
X003344Y003410D02*
X003314Y003380D01*
X003254Y003380D01*
X003224Y003410D01*
X003224Y003441D01*
X003254Y003471D01*
X003284Y003471D01*
X003254Y003471D02*
X003224Y003501D01*
X003224Y003531D01*
X003254Y003561D01*
X003314Y003561D01*
X003344Y003531D01*
X003408Y003561D02*
X003528Y003441D01*
X003652Y003561D02*
X003712Y003501D01*
X003652Y000805D02*
X003652Y000625D01*
X003712Y000625D02*
X003592Y000625D01*
X003528Y000625D02*
X003528Y000805D01*
X003498Y000715D02*
X003408Y000625D01*
X003344Y000655D02*
X003314Y000625D01*
X003254Y000625D01*
X003224Y000655D01*
X003224Y000685D01*
X003254Y000715D01*
X003284Y000715D01*
X003254Y000715D02*
X003224Y000745D01*
X003224Y000775D01*
X003254Y000805D01*
X003314Y000805D01*
X003344Y000775D01*
X003408Y000805D02*
X003528Y000685D01*
X003652Y000805D02*
X003712Y000745D01*
X003774Y000655D02*
X003774Y000625D01*
X003804Y000625D01*
X003804Y000655D01*
X003774Y000655D01*
X003868Y000625D02*
X003988Y000625D01*
X003928Y000625D02*
X003928Y000805D01*
X003988Y000745D01*
X006584Y001394D02*
X006614Y001364D01*
X006674Y001364D01*
X006704Y001394D01*
X006768Y001364D02*
X006858Y001454D01*
X006888Y001424D02*
X006768Y001544D01*
X006704Y001514D02*
X006674Y001544D01*
X006614Y001544D01*
X006584Y001514D01*
X006584Y001484D01*
X006614Y001454D01*
X006584Y001424D01*
X006584Y001394D01*
X006614Y001454D02*
X006644Y001454D01*
X006888Y001544D02*
X006888Y001364D01*
X006952Y001394D02*
X006982Y001364D01*
X007042Y001364D01*
X007072Y001394D01*
X006952Y001514D01*
X006952Y001394D01*
X006952Y001514D02*
X006982Y001544D01*
X007042Y001544D01*
X007072Y001514D01*
X007072Y001394D01*
X007136Y001364D02*
X007257Y001364D01*
X007196Y001364D02*
X007196Y001544D01*
X007257Y001484D01*
X007227Y004120D02*
X007166Y004120D01*
X007136Y004150D01*
X007136Y004180D01*
X007166Y004210D01*
X007196Y004210D01*
X007166Y004210D02*
X007136Y004240D01*
X007136Y004270D01*
X007166Y004300D01*
X007227Y004300D01*
X007257Y004270D01*
X007257Y004150D02*
X007227Y004120D01*
X007257Y005695D02*
X007136Y005695D01*
X007196Y005695D02*
X007196Y005875D01*
X007257Y005815D01*
X007072Y005845D02*
X007072Y005725D01*
X006952Y005845D01*
X006952Y005725D01*
X006982Y005695D01*
X007042Y005695D01*
X007072Y005725D01*
X007072Y005845D02*
X007042Y005875D01*
X006982Y005875D01*
X006952Y005845D01*
X006888Y005875D02*
X006888Y005695D01*
X006888Y005755D02*
X006768Y005875D01*
X006704Y005815D02*
X006644Y005875D01*
X006644Y005695D01*
X006704Y005695D02*
X006584Y005695D01*
X006768Y005695D02*
X006858Y005785D01*
X007136Y008451D02*
X007257Y008451D01*
X007196Y008451D02*
X007196Y008631D01*
X007257Y008571D01*
X007257Y010025D02*
X007136Y010025D01*
X007196Y010025D02*
X007196Y010206D01*
X007257Y010145D01*
X007072Y010175D02*
X007042Y010206D01*
X006982Y010206D01*
X006952Y010175D01*
X007072Y010055D01*
X007042Y010025D01*
X006982Y010025D01*
X006952Y010055D01*
X006952Y010175D01*
X006888Y010206D02*
X006888Y010025D01*
X006888Y010085D02*
X006768Y010206D01*
X006858Y010115D02*
X006768Y010025D01*
X007072Y010055D02*
X007072Y010175D01*
X007042Y012781D02*
X006982Y012781D01*
X006952Y012811D01*
X006952Y012931D01*
X007072Y012811D01*
X007042Y012781D01*
X007072Y012811D02*
X007072Y012931D01*
X007042Y012961D01*
X006982Y012961D01*
X006952Y012931D01*
X006888Y012931D02*
X006858Y012961D01*
X006798Y012961D01*
X006768Y012931D01*
X006888Y012811D01*
X006858Y012781D01*
X006798Y012781D01*
X006768Y012811D01*
X006768Y012931D01*
X006888Y012931D02*
X006888Y012811D01*
X007136Y012781D02*
X007257Y012781D01*
X007136Y012901D01*
X007136Y012931D01*
X007166Y012961D01*
X007227Y012961D01*
X007257Y012931D01*
X007257Y014356D02*
X007136Y014356D01*
X007196Y014356D02*
X007196Y014536D01*
X007257Y014476D01*
X007072Y014506D02*
X007042Y014536D01*
X006982Y014536D01*
X006952Y014506D01*
X007072Y014386D01*
X007042Y014356D01*
X006982Y014356D01*
X006952Y014386D01*
X006952Y014506D01*
X006888Y014536D02*
X006888Y014356D01*
X006888Y014416D02*
X006768Y014536D01*
X006704Y014506D02*
X006674Y014536D01*
X006614Y014536D01*
X006584Y014506D01*
X006584Y014476D01*
X006704Y014356D01*
X006584Y014356D01*
X006768Y014356D02*
X006858Y014446D01*
X007072Y014386D02*
X007072Y014506D01*
X007136Y017112D02*
X007257Y017112D01*
X007136Y017232D01*
X007136Y017262D01*
X007166Y017292D01*
X007227Y017292D01*
X007257Y017262D01*
X003712Y016493D02*
X003652Y016553D01*
X003652Y016373D01*
X003712Y016373D02*
X003592Y016373D01*
X003528Y016373D02*
X003528Y016553D01*
X003498Y016463D02*
X003408Y016373D01*
X003344Y016373D02*
X003224Y016493D01*
X003224Y016523D01*
X003254Y016553D01*
X003314Y016553D01*
X003344Y016523D01*
X003408Y016553D02*
X003528Y016433D01*
X003344Y016373D02*
X003224Y016373D01*
M02*
