G75*
%MOIN*%
%OFA0B0*%
%FSLAX24Y24*%
%IPPOS*%
%LPD*%
%AMOC8*
5,1,8,0,0,1.08239X$1,22.5*
%
%ADD10C,0.0671*%
%ADD11R,0.0316X0.0163*%
%ADD12C,0.0680*%
%ADD13R,0.0474X0.0513*%
%ADD14C,0.0476*%
D10*
X001675Y002462D03*
X001675Y006793D03*
X001675Y011124D03*
X001675Y015454D03*
X008761Y015454D03*
X008761Y011124D03*
X008761Y006793D03*
X008761Y002462D03*
D11*
X005592Y001301D03*
X005592Y000789D03*
X004844Y000789D03*
X004844Y001045D03*
X004844Y001301D03*
X004844Y005120D03*
X004844Y005376D03*
X004844Y005631D03*
X005592Y005631D03*
X005592Y005120D03*
X005592Y009450D03*
X005592Y009962D03*
X004844Y009962D03*
X004844Y009706D03*
X004844Y009450D03*
X004844Y013781D03*
X004844Y014037D03*
X004844Y014293D03*
X005592Y014293D03*
X005592Y013781D03*
D12*
X005718Y014954D03*
X005718Y015954D03*
X004718Y015954D03*
X004718Y014954D03*
X004718Y011624D03*
X004718Y010624D03*
X005718Y010624D03*
X005718Y011624D03*
X005718Y007293D03*
X005718Y006293D03*
X004718Y006293D03*
X004718Y007293D03*
X004718Y002962D03*
X004718Y001962D03*
X005718Y001962D03*
X005718Y002962D03*
D13*
X006458Y003840D03*
X007128Y003840D03*
X007128Y005415D03*
X006458Y005415D03*
X006458Y008171D03*
X007128Y008171D03*
X007128Y009746D03*
X006458Y009746D03*
X006458Y012502D03*
X007128Y012502D03*
X007128Y014076D03*
X006458Y014076D03*
X006458Y016832D03*
X007128Y016832D03*
X003978Y016832D03*
X003309Y016832D03*
X003309Y014076D03*
X003978Y014076D03*
X003978Y012502D03*
X003309Y012502D03*
X003309Y009746D03*
X003978Y009746D03*
X003978Y008171D03*
X003309Y008171D03*
X003309Y005415D03*
X003978Y005415D03*
X003978Y003840D03*
X003309Y003840D03*
X003309Y001084D03*
X003978Y001084D03*
X006458Y001084D03*
X007128Y001084D03*
D14*
X006990Y001793D03*
X006990Y002462D03*
X006990Y003131D03*
X006990Y006124D03*
X006990Y006793D03*
X006990Y007462D03*
X006990Y010454D03*
X006990Y011124D03*
X006990Y011793D03*
X006990Y014785D03*
X006990Y015454D03*
X006990Y016124D03*
M02*
