G75*
%MOIN*%
%OFA0B0*%
%FSLAX25Y25*%
%IPPOS*%
%LPD*%
%AMOC8*
5,1,8,0,0,1.08239X$1,22.5*
%
%ADD10R,0.08268X0.07874*%
%ADD11R,0.06299X0.07087*%
%ADD12R,0.01575X0.05315*%
%ADD13R,0.05937X0.05937*%
%ADD14R,0.05800X0.02000*%
%ADD15R,0.02000X0.05800*%
%ADD16R,0.06500X0.06500*%
%ADD17C,0.06500*%
%ADD18R,0.07874X0.21654*%
%ADD19R,0.03937X0.03150*%
%ADD20OC8,0.05200*%
%ADD21C,0.01600*%
%ADD22R,0.03962X0.03962*%
D10*
X0048650Y0193335D03*
X0073060Y0193335D03*
D11*
X0076997Y0202391D03*
X0044713Y0202391D03*
D12*
X0055737Y0191269D03*
X0058296Y0191269D03*
X0060855Y0191269D03*
X0063414Y0191269D03*
X0065973Y0191269D03*
D13*
X0087351Y0175186D03*
X0087351Y0165186D03*
X0087351Y0155186D03*
X0097351Y0155186D03*
X0097351Y0165186D03*
X0097351Y0175186D03*
D14*
X0077055Y0099414D03*
X0077055Y0096314D03*
X0077055Y0093114D03*
X0077055Y0090014D03*
X0077055Y0086814D03*
X0077055Y0083714D03*
X0077055Y0080514D03*
X0077055Y0077414D03*
X0044655Y0077414D03*
X0044655Y0080514D03*
X0044655Y0083714D03*
X0044655Y0086814D03*
X0044655Y0090014D03*
X0044655Y0093114D03*
X0044655Y0096314D03*
X0044655Y0099414D03*
D15*
X0049855Y0104614D03*
X0052955Y0104614D03*
X0056155Y0104614D03*
X0059255Y0104614D03*
X0062455Y0104614D03*
X0065555Y0104614D03*
X0068755Y0104614D03*
X0071855Y0104614D03*
X0071855Y0072214D03*
X0068755Y0072214D03*
X0065555Y0072214D03*
X0062455Y0072214D03*
X0059255Y0072214D03*
X0056155Y0072214D03*
X0052955Y0072214D03*
X0049855Y0072214D03*
D16*
X0020855Y0080107D03*
X0100855Y0080107D03*
D17*
X0100855Y0070107D03*
X0100855Y0060107D03*
X0100855Y0050107D03*
X0100855Y0040107D03*
X0100855Y0030107D03*
X0100855Y0020107D03*
X0100855Y0010107D03*
X0020855Y0010107D03*
X0020855Y0020107D03*
X0020855Y0030107D03*
X0020855Y0040107D03*
X0020855Y0050107D03*
X0020855Y0060107D03*
X0020855Y0070107D03*
D18*
X0035265Y0113020D03*
X0035265Y0150422D03*
D19*
X0021485Y0150225D03*
X0021485Y0144713D03*
X0021485Y0118729D03*
X0021485Y0113217D03*
D20*
X0056918Y0132469D03*
X0068729Y0132469D03*
X0088414Y0125973D03*
X0100225Y0125973D03*
X0100225Y0105973D03*
X0088414Y0105973D03*
X0068729Y0162469D03*
X0056918Y0162469D03*
D21*
X0006600Y0205661D02*
X0006600Y0006600D01*
X0017503Y0006600D01*
X0016743Y0007360D01*
X0016005Y0009142D01*
X0016005Y0011072D01*
X0016743Y0012854D01*
X0018108Y0014219D01*
X0019890Y0014957D01*
X0021820Y0014957D01*
X0022167Y0014813D01*
X0023170Y0015817D01*
X0021820Y0015257D01*
X0019890Y0015257D01*
X0018108Y0015995D01*
X0016743Y0017360D01*
X0016005Y0019142D01*
X0016005Y0021072D01*
X0016743Y0022854D01*
X0018108Y0024219D01*
X0019890Y0024957D01*
X0021820Y0024957D01*
X0022167Y0024813D01*
X0023170Y0025817D01*
X0021820Y0025257D01*
X0019890Y0025257D01*
X0018108Y0025995D01*
X0016743Y0027360D01*
X0016005Y0029142D01*
X0016005Y0031072D01*
X0016743Y0032854D01*
X0018108Y0034219D01*
X0019890Y0034957D01*
X0021820Y0034957D01*
X0022167Y0034813D01*
X0023170Y0035817D01*
X0021820Y0035257D01*
X0019890Y0035257D01*
X0018108Y0035995D01*
X0016743Y0037360D01*
X0016005Y0039142D01*
X0016005Y0041072D01*
X0016743Y0042854D01*
X0018108Y0044219D01*
X0019890Y0044957D01*
X0021820Y0044957D01*
X0023602Y0044219D01*
X0024251Y0043570D01*
X0024428Y0043570D01*
X0048572Y0067714D01*
X0048192Y0067714D01*
X0047255Y0068651D01*
X0047255Y0069814D01*
X0043956Y0069814D01*
X0025561Y0051419D01*
X0025705Y0051072D01*
X0025705Y0049142D01*
X0024967Y0047360D01*
X0023602Y0045995D01*
X0021820Y0045257D01*
X0019890Y0045257D01*
X0018108Y0045995D01*
X0016743Y0047360D01*
X0016005Y0049142D01*
X0016005Y0051072D01*
X0016743Y0052854D01*
X0018108Y0054219D01*
X0019890Y0054957D01*
X0021820Y0054957D01*
X0022167Y0054813D01*
X0023170Y0055817D01*
X0021820Y0055257D01*
X0019890Y0055257D01*
X0018108Y0055995D01*
X0016743Y0057360D01*
X0016005Y0059142D01*
X0016005Y0061072D01*
X0016743Y0062854D01*
X0018108Y0064219D01*
X0019890Y0064957D01*
X0021820Y0064957D01*
X0022167Y0064813D01*
X0023170Y0065817D01*
X0021820Y0065257D01*
X0019890Y0065257D01*
X0018108Y0065995D01*
X0016743Y0067360D01*
X0016005Y0069142D01*
X0016005Y0071072D01*
X0016743Y0072854D01*
X0018108Y0074219D01*
X0019890Y0074957D01*
X0021820Y0074957D01*
X0022167Y0074813D01*
X0022611Y0075257D01*
X0016942Y0075257D01*
X0016005Y0076194D01*
X0016005Y0084020D01*
X0016942Y0084957D01*
X0022311Y0084957D01*
X0023103Y0085749D01*
X0023985Y0086114D01*
X0040155Y0086114D01*
X0040155Y0087983D01*
X0021008Y0087983D01*
X0020126Y0088348D01*
X0012252Y0096222D01*
X0011576Y0096897D01*
X0011211Y0097779D01*
X0011211Y0161726D01*
X0011576Y0162608D01*
X0021419Y0172451D01*
X0022094Y0173126D01*
X0022976Y0173491D01*
X0046081Y0173491D01*
X0053337Y0180747D01*
X0053337Y0187798D01*
X0043854Y0187798D01*
X0042917Y0188736D01*
X0042917Y0197247D01*
X0040901Y0197247D01*
X0039964Y0198184D01*
X0039964Y0205661D01*
X0006600Y0205661D01*
X0006600Y0204811D02*
X0039964Y0204811D01*
X0039964Y0203212D02*
X0006600Y0203212D01*
X0006600Y0201614D02*
X0039964Y0201614D01*
X0039964Y0200015D02*
X0006600Y0200015D01*
X0006600Y0198417D02*
X0039964Y0198417D01*
X0042917Y0196818D02*
X0006600Y0196818D01*
X0006600Y0195220D02*
X0042917Y0195220D01*
X0042917Y0193621D02*
X0006600Y0193621D01*
X0006600Y0192023D02*
X0042917Y0192023D01*
X0042917Y0190424D02*
X0006600Y0190424D01*
X0006600Y0188826D02*
X0042917Y0188826D01*
X0049463Y0198872D02*
X0049463Y0205661D01*
X0072247Y0205661D01*
X0072247Y0198872D01*
X0068263Y0198872D01*
X0067326Y0197935D01*
X0067326Y0195638D01*
X0066998Y0195726D01*
X0065973Y0195726D01*
X0064949Y0195726D01*
X0064491Y0195603D01*
X0064357Y0195526D01*
X0054384Y0195526D01*
X0054384Y0197935D01*
X0053447Y0198872D01*
X0049463Y0198872D01*
X0049463Y0200015D02*
X0072247Y0200015D01*
X0072247Y0201614D02*
X0049463Y0201614D01*
X0049463Y0203212D02*
X0072247Y0203212D01*
X0072247Y0204811D02*
X0049463Y0204811D01*
X0053903Y0198417D02*
X0067808Y0198417D01*
X0067326Y0196818D02*
X0054384Y0196818D01*
X0055737Y0191269D02*
X0055737Y0179753D01*
X0047076Y0171091D01*
X0023454Y0171091D01*
X0013611Y0161249D01*
X0013611Y0098257D01*
X0021485Y0090383D01*
X0044287Y0090383D01*
X0044655Y0090014D01*
X0044655Y0093114D02*
X0044655Y0093114D01*
X0039955Y0093114D01*
X0039955Y0092783D01*
X0022479Y0092783D01*
X0016011Y0099251D01*
X0016011Y0147965D01*
X0017990Y0147914D01*
X0018293Y0147611D01*
X0018076Y0147393D01*
X0017839Y0146983D01*
X0017717Y0146525D01*
X0017717Y0144713D01*
X0017717Y0142902D01*
X0017839Y0142444D01*
X0018076Y0142033D01*
X0018411Y0141698D01*
X0018822Y0141461D01*
X0019280Y0141339D01*
X0021485Y0141339D01*
X0023691Y0141339D01*
X0024148Y0141461D01*
X0024559Y0141698D01*
X0024894Y0142033D01*
X0025131Y0142444D01*
X0025254Y0142902D01*
X0025254Y0144713D01*
X0021485Y0144713D01*
X0021485Y0144713D01*
X0021485Y0141339D01*
X0021485Y0144713D01*
X0017717Y0144713D01*
X0021485Y0144713D01*
X0021485Y0144713D01*
X0021485Y0144713D01*
X0019517Y0142745D01*
X0019517Y0131721D01*
X0016011Y0131279D02*
X0042255Y0131279D01*
X0042255Y0129681D02*
X0016011Y0129681D01*
X0016011Y0128082D02*
X0042255Y0128082D01*
X0042255Y0126484D02*
X0016011Y0126484D01*
X0016011Y0124885D02*
X0030103Y0124885D01*
X0029728Y0124510D02*
X0029728Y0115600D01*
X0029677Y0115602D01*
X0029640Y0115617D01*
X0029201Y0115617D01*
X0028762Y0115631D01*
X0028725Y0115617D01*
X0024891Y0115617D01*
X0024677Y0115832D01*
X0024894Y0116049D01*
X0025131Y0116460D01*
X0025254Y0116917D01*
X0025254Y0118729D01*
X0021485Y0118729D01*
X0017717Y0118729D01*
X0017717Y0116917D01*
X0017839Y0116460D01*
X0018076Y0116049D01*
X0018293Y0115832D01*
X0017917Y0115455D01*
X0017917Y0110980D01*
X0018854Y0110043D01*
X0024116Y0110043D01*
X0024891Y0110817D01*
X0029123Y0110817D01*
X0029728Y0110798D01*
X0029728Y0101531D01*
X0030665Y0100594D01*
X0032865Y0100594D01*
X0032865Y0097779D01*
X0033230Y0096897D01*
X0033905Y0096222D01*
X0035874Y0094254D01*
X0036756Y0093888D01*
X0037710Y0093888D01*
X0037773Y0093914D01*
X0039955Y0093914D01*
X0039955Y0093114D01*
X0044655Y0093114D01*
X0044655Y0093114D01*
X0049355Y0093114D01*
X0049355Y0091877D01*
X0049232Y0091419D01*
X0049155Y0091285D01*
X0049155Y0076714D01*
X0072555Y0076714D01*
X0072555Y0100114D01*
X0064284Y0100114D01*
X0064150Y0100037D01*
X0063692Y0099914D01*
X0062455Y0099914D01*
X0061218Y0099914D01*
X0060760Y0100037D01*
X0060626Y0100114D01*
X0049155Y0100114D01*
X0049155Y0094943D01*
X0049232Y0094809D01*
X0049355Y0094351D01*
X0049355Y0093114D01*
X0044655Y0093114D01*
X0044655Y0096314D02*
X0037259Y0096314D01*
X0037233Y0096288D01*
X0035265Y0098257D01*
X0035265Y0113020D01*
X0029162Y0113217D01*
X0021485Y0113217D01*
X0017917Y0113696D02*
X0016011Y0113696D01*
X0016011Y0115294D02*
X0017917Y0115294D01*
X0017723Y0116893D02*
X0016011Y0116893D01*
X0016011Y0118491D02*
X0017717Y0118491D01*
X0017717Y0118729D02*
X0017717Y0120541D01*
X0017839Y0120999D01*
X0018076Y0121409D01*
X0018411Y0121744D01*
X0018822Y0121981D01*
X0019280Y0122104D01*
X0021485Y0122104D01*
X0021485Y0118729D01*
X0021485Y0118729D01*
X0021485Y0118729D01*
X0017717Y0118729D01*
X0017717Y0120090D02*
X0016011Y0120090D01*
X0016011Y0121688D02*
X0018355Y0121688D01*
X0016011Y0123287D02*
X0029728Y0123287D01*
X0029728Y0124510D02*
X0030665Y0125447D01*
X0039864Y0125447D01*
X0040802Y0124510D01*
X0040802Y0101723D01*
X0041092Y0102014D01*
X0042255Y0102014D01*
X0042255Y0133148D01*
X0037407Y0137995D01*
X0030665Y0137995D01*
X0029728Y0138933D01*
X0029728Y0148022D01*
X0025054Y0148022D01*
X0025054Y0147988D01*
X0024677Y0147611D01*
X0024894Y0147393D01*
X0025131Y0146983D01*
X0025254Y0146525D01*
X0025254Y0144713D01*
X0021485Y0144713D01*
X0021485Y0144068D02*
X0021485Y0144068D01*
X0021485Y0142469D02*
X0021485Y0142469D01*
X0017832Y0142469D02*
X0016011Y0142469D01*
X0016011Y0140870D02*
X0029728Y0140870D01*
X0029728Y0139272D02*
X0016011Y0139272D01*
X0016011Y0137673D02*
X0037729Y0137673D01*
X0039328Y0136075D02*
X0016011Y0136075D01*
X0016011Y0134476D02*
X0040926Y0134476D01*
X0042255Y0132878D02*
X0016011Y0132878D01*
X0011211Y0132878D02*
X0006600Y0132878D01*
X0006600Y0134476D02*
X0011211Y0134476D01*
X0011211Y0136075D02*
X0006600Y0136075D01*
X0006600Y0137673D02*
X0011211Y0137673D01*
X0011211Y0139272D02*
X0006600Y0139272D01*
X0006600Y0140870D02*
X0011211Y0140870D01*
X0011211Y0142469D02*
X0006600Y0142469D01*
X0006600Y0144068D02*
X0011211Y0144068D01*
X0011211Y0145666D02*
X0006600Y0145666D01*
X0006600Y0147265D02*
X0011211Y0147265D01*
X0011211Y0148863D02*
X0006600Y0148863D01*
X0006600Y0150462D02*
X0011211Y0150462D01*
X0011211Y0152060D02*
X0006600Y0152060D01*
X0006600Y0153659D02*
X0011211Y0153659D01*
X0011211Y0155257D02*
X0006600Y0155257D01*
X0006600Y0156856D02*
X0011211Y0156856D01*
X0011211Y0158454D02*
X0006600Y0158454D01*
X0006600Y0160053D02*
X0011211Y0160053D01*
X0011211Y0161651D02*
X0006600Y0161651D01*
X0006600Y0163250D02*
X0012218Y0163250D01*
X0013816Y0164848D02*
X0006600Y0164848D01*
X0006600Y0166447D02*
X0015415Y0166447D01*
X0017013Y0168045D02*
X0006600Y0168045D01*
X0006600Y0169644D02*
X0018612Y0169644D01*
X0020210Y0171242D02*
X0006600Y0171242D01*
X0006600Y0172841D02*
X0021809Y0172841D01*
X0006600Y0174439D02*
X0047029Y0174439D01*
X0048628Y0176038D02*
X0006600Y0176038D01*
X0006600Y0177636D02*
X0050226Y0177636D01*
X0051825Y0179235D02*
X0006600Y0179235D01*
X0006600Y0180833D02*
X0053337Y0180833D01*
X0053337Y0182432D02*
X0006600Y0182432D01*
X0006600Y0184030D02*
X0053337Y0184030D01*
X0053337Y0185629D02*
X0006600Y0185629D01*
X0006600Y0187227D02*
X0053337Y0187227D01*
X0058296Y0191269D02*
X0058296Y0163847D01*
X0056918Y0162469D01*
X0052718Y0163250D02*
X0049476Y0163250D01*
X0049476Y0164848D02*
X0053357Y0164848D01*
X0052718Y0164209D02*
X0052718Y0160730D01*
X0055178Y0158269D01*
X0058658Y0158269D01*
X0061118Y0160730D01*
X0061118Y0164209D01*
X0060696Y0164631D01*
X0060696Y0167108D01*
X0064529Y0163275D01*
X0064529Y0160730D01*
X0066989Y0158269D01*
X0070469Y0158269D01*
X0072929Y0160730D01*
X0072929Y0164209D01*
X0070469Y0166669D01*
X0067923Y0166669D01*
X0063255Y0171337D01*
X0063255Y0187011D01*
X0064357Y0187011D01*
X0064491Y0186934D01*
X0064949Y0186811D01*
X0065973Y0186811D01*
X0065973Y0191268D01*
X0065973Y0191268D01*
X0065973Y0186811D01*
X0066998Y0186811D01*
X0067455Y0186934D01*
X0067866Y0187171D01*
X0068201Y0187506D01*
X0068370Y0187798D01*
X0077856Y0187798D01*
X0078794Y0188736D01*
X0078794Y0197247D01*
X0080809Y0197247D01*
X0081746Y0198184D01*
X0081746Y0205661D01*
X0115110Y0205661D01*
X0115110Y0006600D01*
X0104207Y0006600D01*
X0104967Y0007360D01*
X0105705Y0009142D01*
X0105705Y0011072D01*
X0104967Y0012854D01*
X0103602Y0014219D01*
X0101820Y0014957D01*
X0099890Y0014957D01*
X0098108Y0014219D01*
X0096743Y0012854D01*
X0096005Y0011072D01*
X0096005Y0009142D01*
X0096743Y0007360D01*
X0097503Y0006600D01*
X0024207Y0006600D01*
X0024967Y0007360D01*
X0025705Y0009142D01*
X0025705Y0011072D01*
X0025561Y0011419D01*
X0064490Y0050348D01*
X0064855Y0051230D01*
X0064855Y0052184D01*
X0064855Y0067714D01*
X0066355Y0067714D01*
X0066355Y0066257D01*
X0066720Y0065375D01*
X0070632Y0061464D01*
X0071307Y0060789D01*
X0072189Y0060424D01*
X0086923Y0060424D01*
X0087805Y0060789D01*
X0093711Y0066695D01*
X0094386Y0067370D01*
X0094751Y0068252D01*
X0094751Y0081515D01*
X0096005Y0082769D01*
X0096005Y0076194D01*
X0096942Y0075257D01*
X0104768Y0075257D01*
X0105705Y0076194D01*
X0105705Y0082626D01*
X0106197Y0083118D01*
X0106562Y0084000D01*
X0106562Y0097263D01*
X0111427Y0102128D01*
X0112102Y0102803D01*
X0112468Y0103685D01*
X0112468Y0175506D01*
X0112102Y0176388D01*
X0102260Y0186230D01*
X0101585Y0186905D01*
X0100703Y0187271D01*
X0091874Y0187271D01*
X0090992Y0186905D01*
X0087055Y0182968D01*
X0086380Y0182293D01*
X0086014Y0181411D01*
X0086014Y0179754D01*
X0083720Y0179754D01*
X0082783Y0178817D01*
X0082783Y0177428D01*
X0082031Y0177428D01*
X0081149Y0177063D01*
X0075244Y0171157D01*
X0074569Y0170482D01*
X0074203Y0169600D01*
X0074203Y0160274D01*
X0065767Y0151838D01*
X0049476Y0151838D01*
X0049476Y0170097D01*
X0055896Y0176518D01*
X0055896Y0166669D01*
X0055178Y0166669D01*
X0052718Y0164209D01*
X0052718Y0161651D02*
X0049476Y0161651D01*
X0049476Y0160053D02*
X0053395Y0160053D01*
X0054994Y0158454D02*
X0049476Y0158454D01*
X0049476Y0156856D02*
X0070784Y0156856D01*
X0070654Y0158454D02*
X0072383Y0158454D01*
X0072252Y0160053D02*
X0073981Y0160053D01*
X0074203Y0161651D02*
X0072929Y0161651D01*
X0072929Y0163250D02*
X0074203Y0163250D01*
X0074203Y0164848D02*
X0072290Y0164848D01*
X0070691Y0166447D02*
X0074203Y0166447D01*
X0074203Y0168045D02*
X0066547Y0168045D01*
X0064949Y0169644D02*
X0074221Y0169644D01*
X0075328Y0171242D02*
X0063350Y0171242D01*
X0063255Y0172841D02*
X0076927Y0172841D01*
X0078525Y0174439D02*
X0063255Y0174439D01*
X0063255Y0176038D02*
X0080124Y0176038D01*
X0082509Y0175028D02*
X0087194Y0175028D01*
X0087351Y0175186D01*
X0088414Y0176249D01*
X0088414Y0180934D01*
X0092351Y0184871D01*
X0100225Y0184871D01*
X0110068Y0175028D01*
X0110068Y0104162D01*
X0104162Y0098257D01*
X0104162Y0084477D01*
X0100855Y0081170D01*
X0100855Y0080107D01*
X0100780Y0075157D02*
X0100458Y0075157D01*
X0099673Y0075033D01*
X0098917Y0074787D01*
X0098208Y0074426D01*
X0097565Y0073959D01*
X0097003Y0073397D01*
X0096536Y0072754D01*
X0096175Y0072046D01*
X0095929Y0071290D01*
X0095805Y0070505D01*
X0095805Y0070182D01*
X0100780Y0070182D01*
X0100780Y0070032D01*
X0095805Y0070032D01*
X0095805Y0069710D01*
X0095929Y0068925D01*
X0096175Y0068169D01*
X0096536Y0067460D01*
X0097003Y0066817D01*
X0097565Y0066255D01*
X0098208Y0065788D01*
X0098917Y0065427D01*
X0099673Y0065181D01*
X0100458Y0065057D01*
X0100780Y0065057D01*
X0100780Y0070032D01*
X0100930Y0070032D01*
X0100930Y0065057D01*
X0101253Y0065057D01*
X0102038Y0065181D01*
X0102794Y0065427D01*
X0103502Y0065788D01*
X0104145Y0066255D01*
X0104707Y0066817D01*
X0105174Y0067460D01*
X0105535Y0068169D01*
X0105781Y0068925D01*
X0105905Y0069710D01*
X0105905Y0070032D01*
X0100930Y0070032D01*
X0100930Y0070182D01*
X0100780Y0070182D01*
X0100780Y0075157D01*
X0100930Y0075157D02*
X0101253Y0075157D01*
X0102038Y0075033D01*
X0102794Y0074787D01*
X0103502Y0074426D01*
X0104145Y0073959D01*
X0104707Y0073397D01*
X0105174Y0072754D01*
X0105535Y0072046D01*
X0105781Y0071290D01*
X0105905Y0070505D01*
X0105905Y0070182D01*
X0100930Y0070182D01*
X0100930Y0075157D01*
X0100930Y0073733D02*
X0100780Y0073733D01*
X0100780Y0072134D02*
X0100930Y0072134D01*
X0100930Y0070536D02*
X0100780Y0070536D01*
X0100780Y0068937D02*
X0100930Y0068937D01*
X0100930Y0067339D02*
X0100780Y0067339D01*
X0100780Y0065740D02*
X0100930Y0065740D01*
X0101820Y0064957D02*
X0099890Y0064957D01*
X0098108Y0064219D01*
X0096743Y0062854D01*
X0096005Y0061072D01*
X0096005Y0059142D01*
X0096743Y0057360D01*
X0098108Y0055995D01*
X0099890Y0055257D01*
X0101820Y0055257D01*
X0103602Y0055995D01*
X0104967Y0057360D01*
X0105705Y0059142D01*
X0105705Y0061072D01*
X0104967Y0062854D01*
X0103602Y0064219D01*
X0101820Y0064957D01*
X0103409Y0065740D02*
X0115110Y0065740D01*
X0115110Y0064142D02*
X0103679Y0064142D01*
X0105096Y0062543D02*
X0115110Y0062543D01*
X0115110Y0060945D02*
X0105705Y0060945D01*
X0105705Y0059346D02*
X0115110Y0059346D01*
X0115110Y0057748D02*
X0105127Y0057748D01*
X0103756Y0056149D02*
X0115110Y0056149D01*
X0115110Y0054551D02*
X0102801Y0054551D01*
X0103602Y0054219D02*
X0101820Y0054957D01*
X0099890Y0054957D01*
X0098108Y0054219D01*
X0096743Y0052854D01*
X0096005Y0051072D01*
X0096005Y0049142D01*
X0096743Y0047360D01*
X0098108Y0045995D01*
X0099890Y0045257D01*
X0101820Y0045257D01*
X0103602Y0045995D01*
X0104967Y0047360D01*
X0105705Y0049142D01*
X0105705Y0051072D01*
X0104967Y0052854D01*
X0103602Y0054219D01*
X0104869Y0052952D02*
X0115110Y0052952D01*
X0115110Y0051354D02*
X0105588Y0051354D01*
X0105705Y0049755D02*
X0115110Y0049755D01*
X0115110Y0048157D02*
X0105297Y0048157D01*
X0104165Y0046558D02*
X0115110Y0046558D01*
X0115110Y0044960D02*
X0059102Y0044960D01*
X0060700Y0046558D02*
X0097545Y0046558D01*
X0096413Y0048157D02*
X0062299Y0048157D01*
X0063897Y0049755D02*
X0096005Y0049755D01*
X0096122Y0051354D02*
X0064855Y0051354D01*
X0064855Y0052952D02*
X0096841Y0052952D01*
X0098910Y0054551D02*
X0064855Y0054551D01*
X0064855Y0056149D02*
X0097954Y0056149D01*
X0096583Y0057748D02*
X0064855Y0057748D01*
X0064855Y0059346D02*
X0096005Y0059346D01*
X0096005Y0060945D02*
X0087961Y0060945D01*
X0089560Y0062543D02*
X0096615Y0062543D01*
X0098031Y0064142D02*
X0091158Y0064142D01*
X0092757Y0065740D02*
X0098302Y0065740D01*
X0096624Y0067339D02*
X0094355Y0067339D01*
X0094751Y0068937D02*
X0095927Y0068937D01*
X0095810Y0070536D02*
X0094751Y0070536D01*
X0094751Y0072134D02*
X0096220Y0072134D01*
X0097339Y0073733D02*
X0094751Y0073733D01*
X0094751Y0075332D02*
X0096868Y0075332D01*
X0096005Y0076930D02*
X0094751Y0076930D01*
X0094751Y0078529D02*
X0096005Y0078529D01*
X0096005Y0080127D02*
X0094751Y0080127D01*
X0094962Y0081726D02*
X0096005Y0081726D01*
X0092351Y0082509D02*
X0098257Y0088414D01*
X0098257Y0104005D01*
X0100225Y0105973D01*
X0104162Y0112036D02*
X0106131Y0114005D01*
X0106131Y0166406D01*
X0097351Y0175186D01*
X0098526Y0170617D02*
X0093720Y0170617D01*
X0092783Y0171555D01*
X0092783Y0178817D01*
X0093720Y0179754D01*
X0100982Y0179754D01*
X0101920Y0178817D01*
X0101920Y0174011D01*
X0107668Y0168263D01*
X0107668Y0174034D01*
X0099231Y0182471D01*
X0093345Y0182471D01*
X0090814Y0179940D01*
X0090814Y0179754D01*
X0090982Y0179754D01*
X0091920Y0178817D01*
X0091920Y0171555D01*
X0090982Y0170617D01*
X0083720Y0170617D01*
X0082783Y0171555D01*
X0082783Y0171908D01*
X0079003Y0168129D01*
X0079003Y0158803D01*
X0078638Y0157921D01*
X0077963Y0157246D01*
X0077963Y0157246D01*
X0068795Y0148078D01*
X0068795Y0148078D01*
X0068120Y0147403D01*
X0067238Y0147038D01*
X0049476Y0147038D01*
X0049476Y0142558D01*
X0051215Y0140819D01*
X0051890Y0140144D01*
X0052255Y0139262D01*
X0052255Y0109114D01*
X0053755Y0109114D01*
X0053755Y0129693D01*
X0052718Y0130730D01*
X0052718Y0134209D01*
X0055178Y0136669D01*
X0058658Y0136669D01*
X0061118Y0134209D01*
X0061118Y0130730D01*
X0058658Y0128269D01*
X0058555Y0128269D01*
X0058555Y0125689D01*
X0064529Y0131663D01*
X0064529Y0134209D01*
X0066989Y0136669D01*
X0070469Y0136669D01*
X0072929Y0134209D01*
X0072929Y0130730D01*
X0070469Y0128269D01*
X0067923Y0128269D01*
X0061655Y0122001D01*
X0061655Y0109314D01*
X0062455Y0109314D01*
X0062455Y0104614D01*
X0062455Y0104614D01*
X0062455Y0099914D01*
X0062455Y0104614D01*
X0062455Y0104614D01*
X0062455Y0109314D01*
X0063692Y0109314D01*
X0064150Y0109191D01*
X0064284Y0109114D01*
X0073518Y0109114D01*
X0074455Y0108177D01*
X0074455Y0102014D01*
X0074655Y0102014D01*
X0074655Y0107060D01*
X0075020Y0107942D01*
X0084411Y0117333D01*
X0085086Y0118008D01*
X0085968Y0118373D01*
X0091357Y0118373D01*
X0091920Y0118936D01*
X0091920Y0123539D01*
X0090154Y0121773D01*
X0086674Y0121773D01*
X0084214Y0124234D01*
X0084214Y0126779D01*
X0080474Y0130519D01*
X0080109Y0131401D01*
X0080109Y0161726D01*
X0080474Y0162608D01*
X0081149Y0163283D01*
X0082783Y0164917D01*
X0082783Y0168817D01*
X0083720Y0169754D01*
X0090982Y0169754D01*
X0091920Y0168817D01*
X0091920Y0161555D01*
X0090982Y0160617D01*
X0085271Y0160617D01*
X0084909Y0160255D01*
X0084909Y0159954D01*
X0087167Y0159954D01*
X0087167Y0155370D01*
X0087535Y0155370D01*
X0087535Y0159954D01*
X0090557Y0159954D01*
X0091014Y0159832D01*
X0091425Y0159595D01*
X0091760Y0159260D01*
X0091997Y0158849D01*
X0092120Y0158391D01*
X0092120Y0155370D01*
X0087536Y0155370D01*
X0087536Y0155002D01*
X0092120Y0155002D01*
X0092120Y0153115D01*
X0092285Y0153514D01*
X0092783Y0154011D01*
X0092783Y0158817D01*
X0093720Y0159754D01*
X0099389Y0159754D01*
X0098526Y0160617D01*
X0093720Y0160617D01*
X0092783Y0161555D01*
X0092783Y0168817D01*
X0093720Y0169754D01*
X0099389Y0169754D01*
X0098526Y0170617D01*
X0101920Y0174439D02*
X0107263Y0174439D01*
X0107668Y0172841D02*
X0103090Y0172841D01*
X0104689Y0171242D02*
X0107668Y0171242D01*
X0107668Y0169644D02*
X0106287Y0169644D01*
X0105664Y0176038D02*
X0101920Y0176038D01*
X0101920Y0177636D02*
X0104066Y0177636D01*
X0102467Y0179235D02*
X0101502Y0179235D01*
X0100869Y0180833D02*
X0091708Y0180833D01*
X0091502Y0179235D02*
X0093200Y0179235D01*
X0092783Y0177636D02*
X0091920Y0177636D01*
X0091920Y0176038D02*
X0092783Y0176038D01*
X0092783Y0174439D02*
X0091920Y0174439D01*
X0091920Y0172841D02*
X0092783Y0172841D01*
X0093095Y0171242D02*
X0091607Y0171242D01*
X0091093Y0169644D02*
X0093609Y0169644D01*
X0092783Y0168045D02*
X0091920Y0168045D01*
X0091920Y0166447D02*
X0092783Y0166447D01*
X0092783Y0164848D02*
X0091920Y0164848D01*
X0091920Y0163250D02*
X0092783Y0163250D01*
X0092783Y0161651D02*
X0091920Y0161651D01*
X0092103Y0158454D02*
X0092783Y0158454D01*
X0092783Y0156856D02*
X0092120Y0156856D01*
X0092783Y0155257D02*
X0087536Y0155257D01*
X0087535Y0155001D02*
X0087535Y0150417D01*
X0090557Y0150417D01*
X0091014Y0150540D01*
X0091425Y0150777D01*
X0091760Y0151112D01*
X0091920Y0151389D01*
X0091920Y0128407D01*
X0090154Y0130173D01*
X0087608Y0130173D01*
X0084909Y0132873D01*
X0084909Y0150417D01*
X0087167Y0150417D01*
X0087167Y0155001D01*
X0087535Y0155001D01*
X0087535Y0153659D02*
X0087167Y0153659D01*
X0087167Y0152060D02*
X0087535Y0152060D01*
X0087535Y0150462D02*
X0087167Y0150462D01*
X0084909Y0148863D02*
X0091920Y0148863D01*
X0091920Y0147265D02*
X0084909Y0147265D01*
X0084909Y0145666D02*
X0091920Y0145666D01*
X0091920Y0144068D02*
X0084909Y0144068D01*
X0084909Y0142469D02*
X0091920Y0142469D01*
X0091920Y0140870D02*
X0084909Y0140870D01*
X0084909Y0139272D02*
X0091920Y0139272D01*
X0091920Y0137673D02*
X0084909Y0137673D01*
X0084909Y0136075D02*
X0091920Y0136075D01*
X0091920Y0134476D02*
X0084909Y0134476D01*
X0084909Y0132878D02*
X0091920Y0132878D01*
X0091920Y0131279D02*
X0086502Y0131279D01*
X0082509Y0131879D02*
X0088414Y0125973D01*
X0085161Y0123287D02*
X0062941Y0123287D01*
X0061655Y0121688D02*
X0091920Y0121688D01*
X0091920Y0120090D02*
X0061655Y0120090D01*
X0061655Y0118491D02*
X0091475Y0118491D01*
X0092351Y0115973D02*
X0094320Y0117942D01*
X0094320Y0152154D01*
X0097351Y0155186D01*
X0099090Y0160053D02*
X0084909Y0160053D01*
X0082509Y0161249D02*
X0082509Y0131879D01*
X0081312Y0129681D02*
X0071880Y0129681D01*
X0072929Y0131279D02*
X0080159Y0131279D01*
X0080109Y0132878D02*
X0072929Y0132878D01*
X0072662Y0134476D02*
X0080109Y0134476D01*
X0080109Y0136075D02*
X0071063Y0136075D01*
X0068729Y0132469D02*
X0059255Y0122995D01*
X0059255Y0104614D01*
X0056155Y0104614D02*
X0056155Y0131706D01*
X0056918Y0132469D01*
X0060069Y0129681D02*
X0062547Y0129681D01*
X0061118Y0131279D02*
X0064145Y0131279D01*
X0064529Y0132878D02*
X0061118Y0132878D01*
X0060851Y0134476D02*
X0064797Y0134476D01*
X0066395Y0136075D02*
X0059252Y0136075D01*
X0054584Y0136075D02*
X0052255Y0136075D01*
X0052255Y0137673D02*
X0080109Y0137673D01*
X0080109Y0139272D02*
X0052251Y0139272D01*
X0051163Y0140870D02*
X0080109Y0140870D01*
X0080109Y0142469D02*
X0049564Y0142469D01*
X0049476Y0144068D02*
X0080109Y0144068D01*
X0080109Y0145666D02*
X0049476Y0145666D01*
X0047076Y0149438D02*
X0047076Y0141564D01*
X0049855Y0138784D01*
X0049855Y0104614D01*
X0052955Y0104614D01*
X0052255Y0110499D02*
X0053755Y0110499D01*
X0053755Y0112097D02*
X0052255Y0112097D01*
X0052255Y0113696D02*
X0053755Y0113696D01*
X0053755Y0115294D02*
X0052255Y0115294D01*
X0052255Y0116893D02*
X0053755Y0116893D01*
X0053755Y0118491D02*
X0052255Y0118491D01*
X0052255Y0120090D02*
X0053755Y0120090D01*
X0053755Y0121688D02*
X0052255Y0121688D01*
X0052255Y0123287D02*
X0053755Y0123287D01*
X0053755Y0124885D02*
X0052255Y0124885D01*
X0052255Y0126484D02*
X0053755Y0126484D01*
X0053755Y0128082D02*
X0052255Y0128082D01*
X0052255Y0129681D02*
X0053755Y0129681D01*
X0052718Y0131279D02*
X0052255Y0131279D01*
X0052255Y0132878D02*
X0052718Y0132878D01*
X0052986Y0134476D02*
X0052255Y0134476D01*
X0058555Y0128082D02*
X0060948Y0128082D01*
X0059350Y0126484D02*
X0058555Y0126484D01*
X0064539Y0124885D02*
X0084214Y0124885D01*
X0084214Y0126484D02*
X0066138Y0126484D01*
X0067736Y0128082D02*
X0082911Y0128082D01*
X0090646Y0129681D02*
X0091920Y0129681D01*
X0091920Y0123287D02*
X0091667Y0123287D01*
X0092351Y0115973D02*
X0086446Y0115973D01*
X0077055Y0106583D01*
X0077055Y0099414D01*
X0074655Y0102506D02*
X0074455Y0102506D01*
X0074455Y0104105D02*
X0074655Y0104105D01*
X0074655Y0105703D02*
X0074455Y0105703D01*
X0074455Y0107302D02*
X0074755Y0107302D01*
X0073732Y0108900D02*
X0075979Y0108900D01*
X0077577Y0110499D02*
X0061655Y0110499D01*
X0061655Y0112097D02*
X0079176Y0112097D01*
X0080774Y0113696D02*
X0061655Y0113696D01*
X0061655Y0115294D02*
X0082373Y0115294D01*
X0083971Y0116893D02*
X0061655Y0116893D01*
X0062455Y0108900D02*
X0062455Y0108900D01*
X0062455Y0107302D02*
X0062455Y0107302D01*
X0062455Y0105703D02*
X0062455Y0105703D01*
X0062455Y0104105D02*
X0062455Y0104105D01*
X0062455Y0102506D02*
X0062455Y0102506D01*
X0062455Y0100908D02*
X0062455Y0100908D01*
X0072555Y0099309D02*
X0049155Y0099309D01*
X0049155Y0097711D02*
X0072555Y0097711D01*
X0072555Y0096112D02*
X0049155Y0096112D01*
X0049312Y0094514D02*
X0072555Y0094514D01*
X0072555Y0092915D02*
X0049355Y0092915D01*
X0049173Y0091317D02*
X0072555Y0091317D01*
X0072555Y0089718D02*
X0049155Y0089718D01*
X0049155Y0088120D02*
X0072555Y0088120D01*
X0072555Y0086521D02*
X0049155Y0086521D01*
X0049155Y0084923D02*
X0072555Y0084923D01*
X0072555Y0083324D02*
X0049155Y0083324D01*
X0049155Y0081726D02*
X0072555Y0081726D01*
X0072555Y0080127D02*
X0049155Y0080127D01*
X0049155Y0078529D02*
X0072555Y0078529D01*
X0072555Y0076930D02*
X0049155Y0076930D01*
X0049855Y0072214D02*
X0042962Y0072214D01*
X0020855Y0050107D01*
X0018910Y0054551D02*
X0006600Y0054551D01*
X0006600Y0056149D02*
X0017954Y0056149D01*
X0016583Y0057748D02*
X0006600Y0057748D01*
X0006600Y0059346D02*
X0016005Y0059346D01*
X0016005Y0060945D02*
X0006600Y0060945D01*
X0006600Y0062543D02*
X0016615Y0062543D01*
X0018031Y0064142D02*
X0006600Y0064142D01*
X0006600Y0065740D02*
X0018723Y0065740D01*
X0016764Y0067339D02*
X0006600Y0067339D01*
X0006600Y0068937D02*
X0016090Y0068937D01*
X0016005Y0070536D02*
X0006600Y0070536D01*
X0006600Y0072134D02*
X0016445Y0072134D01*
X0017622Y0073733D02*
X0006600Y0073733D01*
X0006600Y0075332D02*
X0016868Y0075332D01*
X0016005Y0076930D02*
X0006600Y0076930D01*
X0006600Y0078529D02*
X0016005Y0078529D01*
X0016005Y0080127D02*
X0006600Y0080127D01*
X0006600Y0081726D02*
X0016005Y0081726D01*
X0016005Y0083324D02*
X0006600Y0083324D01*
X0006600Y0084923D02*
X0016908Y0084923D01*
X0018755Y0089718D02*
X0006600Y0089718D01*
X0006600Y0088120D02*
X0020677Y0088120D01*
X0017157Y0091317D02*
X0006600Y0091317D01*
X0006600Y0092915D02*
X0015558Y0092915D01*
X0013960Y0094514D02*
X0006600Y0094514D01*
X0006600Y0096112D02*
X0012361Y0096112D01*
X0011239Y0097711D02*
X0006600Y0097711D01*
X0006600Y0099309D02*
X0011211Y0099309D01*
X0011211Y0100908D02*
X0006600Y0100908D01*
X0006600Y0102506D02*
X0011211Y0102506D01*
X0011211Y0104105D02*
X0006600Y0104105D01*
X0006600Y0105703D02*
X0011211Y0105703D01*
X0011211Y0107302D02*
X0006600Y0107302D01*
X0006600Y0108900D02*
X0011211Y0108900D01*
X0011211Y0110499D02*
X0006600Y0110499D01*
X0006600Y0112097D02*
X0011211Y0112097D01*
X0011211Y0113696D02*
X0006600Y0113696D01*
X0006600Y0115294D02*
X0011211Y0115294D01*
X0011211Y0116893D02*
X0006600Y0116893D01*
X0006600Y0118491D02*
X0011211Y0118491D01*
X0011211Y0120090D02*
X0006600Y0120090D01*
X0006600Y0121688D02*
X0011211Y0121688D01*
X0011211Y0123287D02*
X0006600Y0123287D01*
X0006600Y0124885D02*
X0011211Y0124885D01*
X0011211Y0126484D02*
X0006600Y0126484D01*
X0006600Y0128082D02*
X0011211Y0128082D01*
X0011211Y0129681D02*
X0006600Y0129681D01*
X0006600Y0131279D02*
X0011211Y0131279D01*
X0016011Y0144068D02*
X0017717Y0144068D01*
X0017717Y0145666D02*
X0016011Y0145666D01*
X0016011Y0147265D02*
X0018002Y0147265D01*
X0021485Y0150225D02*
X0013808Y0150422D01*
X0035265Y0150422D01*
X0037233Y0148454D01*
X0037233Y0141564D01*
X0044655Y0134142D01*
X0044655Y0099414D01*
X0042255Y0102506D02*
X0040802Y0102506D01*
X0040802Y0104105D02*
X0042255Y0104105D01*
X0042255Y0105703D02*
X0040802Y0105703D01*
X0040802Y0107302D02*
X0042255Y0107302D01*
X0042255Y0108900D02*
X0040802Y0108900D01*
X0040802Y0110499D02*
X0042255Y0110499D01*
X0042255Y0112097D02*
X0040802Y0112097D01*
X0040802Y0113696D02*
X0042255Y0113696D01*
X0042255Y0115294D02*
X0040802Y0115294D01*
X0040802Y0116893D02*
X0042255Y0116893D01*
X0042255Y0118491D02*
X0040802Y0118491D01*
X0040802Y0120090D02*
X0042255Y0120090D01*
X0042255Y0121688D02*
X0040802Y0121688D01*
X0040802Y0123287D02*
X0042255Y0123287D01*
X0042255Y0124885D02*
X0040426Y0124885D01*
X0029728Y0121688D02*
X0024615Y0121688D01*
X0024559Y0121744D02*
X0024148Y0121981D01*
X0023691Y0122104D01*
X0021485Y0122104D01*
X0021485Y0118729D01*
X0025254Y0118729D01*
X0025254Y0120541D01*
X0025131Y0120999D01*
X0024894Y0121409D01*
X0024559Y0121744D01*
X0025254Y0120090D02*
X0029728Y0120090D01*
X0029728Y0118491D02*
X0025254Y0118491D01*
X0025247Y0116893D02*
X0029728Y0116893D01*
X0029728Y0110499D02*
X0024573Y0110499D01*
X0029728Y0108900D02*
X0016011Y0108900D01*
X0016011Y0107302D02*
X0029728Y0107302D01*
X0029728Y0105703D02*
X0016011Y0105703D01*
X0016011Y0104105D02*
X0029728Y0104105D01*
X0029728Y0102506D02*
X0016011Y0102506D01*
X0016011Y0100908D02*
X0030351Y0100908D01*
X0032865Y0099309D02*
X0016011Y0099309D01*
X0017551Y0097711D02*
X0032893Y0097711D01*
X0034015Y0096112D02*
X0019150Y0096112D01*
X0020748Y0094514D02*
X0035613Y0094514D01*
X0039955Y0092915D02*
X0022347Y0092915D01*
X0024462Y0083714D02*
X0020855Y0080107D01*
X0024462Y0083714D02*
X0044655Y0083714D01*
X0044655Y0080514D02*
X0031262Y0080514D01*
X0020855Y0070107D01*
X0022987Y0065740D02*
X0023094Y0065740D01*
X0020855Y0060107D02*
X0038162Y0077414D01*
X0044655Y0077414D01*
X0043080Y0068937D02*
X0047255Y0068937D01*
X0048197Y0067339D02*
X0041481Y0067339D01*
X0039883Y0065740D02*
X0046598Y0065740D01*
X0045000Y0064142D02*
X0038284Y0064142D01*
X0036686Y0062543D02*
X0043401Y0062543D01*
X0041803Y0060945D02*
X0035087Y0060945D01*
X0033489Y0059346D02*
X0040204Y0059346D01*
X0038606Y0057748D02*
X0031890Y0057748D01*
X0030292Y0056149D02*
X0037007Y0056149D01*
X0035409Y0054551D02*
X0028693Y0054551D01*
X0027094Y0052952D02*
X0033810Y0052952D01*
X0032212Y0051354D02*
X0025588Y0051354D01*
X0025705Y0049755D02*
X0030613Y0049755D01*
X0029015Y0048157D02*
X0025297Y0048157D01*
X0024165Y0046558D02*
X0027416Y0046558D01*
X0025818Y0044960D02*
X0006600Y0044960D01*
X0006600Y0046558D02*
X0017545Y0046558D01*
X0016413Y0048157D02*
X0006600Y0048157D01*
X0006600Y0049755D02*
X0016005Y0049755D01*
X0016122Y0051354D02*
X0006600Y0051354D01*
X0006600Y0052952D02*
X0016841Y0052952D01*
X0017250Y0043361D02*
X0006600Y0043361D01*
X0006600Y0041763D02*
X0016291Y0041763D01*
X0016005Y0040164D02*
X0006600Y0040164D01*
X0006600Y0038566D02*
X0016244Y0038566D01*
X0017136Y0036967D02*
X0006600Y0036967D01*
X0006600Y0035369D02*
X0019621Y0035369D01*
X0017659Y0033770D02*
X0006600Y0033770D01*
X0006600Y0032172D02*
X0016461Y0032172D01*
X0016005Y0030573D02*
X0006600Y0030573D01*
X0006600Y0028975D02*
X0016075Y0028975D01*
X0016737Y0027376D02*
X0006600Y0027376D01*
X0006600Y0025778D02*
X0018634Y0025778D01*
X0018068Y0024179D02*
X0006600Y0024179D01*
X0006600Y0022581D02*
X0016630Y0022581D01*
X0016005Y0020982D02*
X0006600Y0020982D01*
X0006600Y0019384D02*
X0016005Y0019384D01*
X0016567Y0017785D02*
X0006600Y0017785D01*
X0006600Y0016187D02*
X0017917Y0016187D01*
X0019000Y0014588D02*
X0006600Y0014588D01*
X0006600Y0012990D02*
X0016879Y0012990D01*
X0016137Y0011391D02*
X0006600Y0011391D01*
X0006600Y0009793D02*
X0016005Y0009793D01*
X0016398Y0008194D02*
X0006600Y0008194D01*
X0020855Y0010107D02*
X0062455Y0051707D01*
X0062455Y0072214D01*
X0059255Y0072214D02*
X0059255Y0058507D01*
X0020855Y0020107D01*
X0023077Y0025778D02*
X0023132Y0025778D01*
X0020855Y0030107D02*
X0056155Y0065407D01*
X0056155Y0072214D01*
X0052955Y0072214D02*
X0052955Y0068703D01*
X0025422Y0041170D01*
X0021918Y0041170D01*
X0020855Y0040107D01*
X0022089Y0035369D02*
X0022723Y0035369D01*
X0033526Y0019384D02*
X0096005Y0019384D01*
X0096005Y0019142D02*
X0096005Y0021072D01*
X0096743Y0022854D01*
X0098108Y0024219D01*
X0099890Y0024957D01*
X0101820Y0024957D01*
X0103602Y0024219D01*
X0104967Y0022854D01*
X0105705Y0021072D01*
X0105705Y0019142D01*
X0104967Y0017360D01*
X0103602Y0015995D01*
X0101820Y0015257D01*
X0099890Y0015257D01*
X0098108Y0015995D01*
X0096743Y0017360D01*
X0096005Y0019142D01*
X0096567Y0017785D02*
X0031927Y0017785D01*
X0030329Y0016187D02*
X0097917Y0016187D01*
X0099000Y0014588D02*
X0028730Y0014588D01*
X0027132Y0012990D02*
X0096879Y0012990D01*
X0096137Y0011391D02*
X0025573Y0011391D01*
X0025705Y0009793D02*
X0096005Y0009793D01*
X0096398Y0008194D02*
X0025312Y0008194D01*
X0035124Y0020982D02*
X0096005Y0020982D01*
X0096630Y0022581D02*
X0036723Y0022581D01*
X0038321Y0024179D02*
X0098068Y0024179D01*
X0098634Y0025778D02*
X0039920Y0025778D01*
X0041518Y0027376D02*
X0096737Y0027376D01*
X0096743Y0027360D02*
X0098108Y0025995D01*
X0099890Y0025257D01*
X0101820Y0025257D01*
X0103602Y0025995D01*
X0104967Y0027360D01*
X0105705Y0029142D01*
X0105705Y0031072D01*
X0104967Y0032854D01*
X0103602Y0034219D01*
X0101820Y0034957D01*
X0099890Y0034957D01*
X0098108Y0034219D01*
X0096743Y0032854D01*
X0096005Y0031072D01*
X0096005Y0029142D01*
X0096743Y0027360D01*
X0096075Y0028975D02*
X0043117Y0028975D01*
X0044715Y0030573D02*
X0096005Y0030573D01*
X0096461Y0032172D02*
X0046314Y0032172D01*
X0047912Y0033770D02*
X0097659Y0033770D01*
X0098108Y0035995D02*
X0099890Y0035257D01*
X0101820Y0035257D01*
X0103602Y0035995D01*
X0104967Y0037360D01*
X0105705Y0039142D01*
X0105705Y0041072D01*
X0104967Y0042854D01*
X0103602Y0044219D01*
X0101820Y0044957D01*
X0099890Y0044957D01*
X0098108Y0044219D01*
X0096743Y0042854D01*
X0096005Y0041072D01*
X0096005Y0039142D01*
X0096743Y0037360D01*
X0098108Y0035995D01*
X0097136Y0036967D02*
X0051109Y0036967D01*
X0049511Y0035369D02*
X0099621Y0035369D01*
X0102089Y0035369D02*
X0115110Y0035369D01*
X0115110Y0036967D02*
X0104574Y0036967D01*
X0105466Y0038566D02*
X0115110Y0038566D01*
X0115110Y0040164D02*
X0105705Y0040164D01*
X0105419Y0041763D02*
X0115110Y0041763D01*
X0115110Y0043361D02*
X0104460Y0043361D01*
X0097250Y0043361D02*
X0057503Y0043361D01*
X0055905Y0041763D02*
X0096291Y0041763D01*
X0096005Y0040164D02*
X0054306Y0040164D01*
X0052708Y0038566D02*
X0096244Y0038566D01*
X0104051Y0033770D02*
X0115110Y0033770D01*
X0115110Y0032172D02*
X0105250Y0032172D01*
X0105705Y0030573D02*
X0115110Y0030573D01*
X0115110Y0028975D02*
X0105636Y0028975D01*
X0104974Y0027376D02*
X0115110Y0027376D01*
X0115110Y0025778D02*
X0103077Y0025778D01*
X0103642Y0024179D02*
X0115110Y0024179D01*
X0115110Y0022581D02*
X0105080Y0022581D01*
X0105705Y0020982D02*
X0115110Y0020982D01*
X0115110Y0019384D02*
X0105705Y0019384D01*
X0105143Y0017785D02*
X0115110Y0017785D01*
X0115110Y0016187D02*
X0103794Y0016187D01*
X0102711Y0014588D02*
X0115110Y0014588D01*
X0115110Y0012990D02*
X0104832Y0012990D01*
X0105573Y0011391D02*
X0115110Y0011391D01*
X0115110Y0009793D02*
X0105705Y0009793D01*
X0105312Y0008194D02*
X0115110Y0008194D01*
X0086446Y0062824D02*
X0092351Y0068729D01*
X0092351Y0082509D01*
X0088414Y0076603D02*
X0088414Y0105973D01*
X0084477Y0102194D02*
X0082509Y0104162D01*
X0082509Y0108099D01*
X0086446Y0112036D01*
X0104162Y0112036D01*
X0112468Y0112097D02*
X0115110Y0112097D01*
X0115110Y0110499D02*
X0112468Y0110499D01*
X0112468Y0108900D02*
X0115110Y0108900D01*
X0115110Y0107302D02*
X0112468Y0107302D01*
X0112468Y0105703D02*
X0115110Y0105703D01*
X0115110Y0104105D02*
X0112468Y0104105D01*
X0111806Y0102506D02*
X0115110Y0102506D01*
X0115110Y0100908D02*
X0110207Y0100908D01*
X0108609Y0099309D02*
X0115110Y0099309D01*
X0115110Y0097711D02*
X0107010Y0097711D01*
X0106562Y0096112D02*
X0115110Y0096112D01*
X0115110Y0094514D02*
X0106562Y0094514D01*
X0106562Y0092915D02*
X0115110Y0092915D01*
X0115110Y0091317D02*
X0106562Y0091317D01*
X0106562Y0089718D02*
X0115110Y0089718D01*
X0115110Y0088120D02*
X0106562Y0088120D01*
X0106562Y0086521D02*
X0115110Y0086521D01*
X0115110Y0084923D02*
X0106562Y0084923D01*
X0106282Y0083324D02*
X0115110Y0083324D01*
X0115110Y0081726D02*
X0105705Y0081726D01*
X0105705Y0080127D02*
X0115110Y0080127D01*
X0115110Y0078529D02*
X0105705Y0078529D01*
X0105705Y0076930D02*
X0115110Y0076930D01*
X0115110Y0075332D02*
X0104842Y0075332D01*
X0104371Y0073733D02*
X0115110Y0073733D01*
X0115110Y0072134D02*
X0105490Y0072134D01*
X0105900Y0070536D02*
X0115110Y0070536D01*
X0115110Y0068937D02*
X0105783Y0068937D01*
X0105086Y0067339D02*
X0115110Y0067339D01*
X0088414Y0076603D02*
X0084025Y0072214D01*
X0071855Y0072214D01*
X0068755Y0072214D02*
X0068755Y0066735D01*
X0072666Y0062824D01*
X0086446Y0062824D01*
X0081351Y0077414D02*
X0077055Y0077414D01*
X0081351Y0077414D02*
X0084477Y0080540D01*
X0084477Y0102194D01*
X0100225Y0125973D02*
X0100225Y0145501D01*
X0102194Y0147469D01*
X0102194Y0160343D01*
X0097351Y0165186D01*
X0092430Y0153659D02*
X0092120Y0153659D01*
X0091920Y0150462D02*
X0090722Y0150462D01*
X0087535Y0156856D02*
X0087167Y0156856D01*
X0087167Y0158454D02*
X0087535Y0158454D01*
X0082509Y0161249D02*
X0086446Y0165186D01*
X0087351Y0165186D01*
X0082714Y0164848D02*
X0079003Y0164848D01*
X0079003Y0163250D02*
X0081115Y0163250D01*
X0080109Y0161651D02*
X0079003Y0161651D01*
X0079003Y0160053D02*
X0080109Y0160053D01*
X0080109Y0158454D02*
X0078859Y0158454D01*
X0080109Y0156856D02*
X0077573Y0156856D01*
X0075974Y0155257D02*
X0080109Y0155257D01*
X0080109Y0153659D02*
X0074376Y0153659D01*
X0072777Y0152060D02*
X0080109Y0152060D01*
X0080109Y0150462D02*
X0071178Y0150462D01*
X0069580Y0148863D02*
X0080109Y0148863D01*
X0080109Y0147265D02*
X0067785Y0147265D01*
X0066761Y0149438D02*
X0047076Y0149438D01*
X0047076Y0171091D01*
X0049476Y0169644D02*
X0055896Y0169644D01*
X0055896Y0171242D02*
X0050621Y0171242D01*
X0052219Y0172841D02*
X0055896Y0172841D01*
X0055896Y0174439D02*
X0053818Y0174439D01*
X0055416Y0176038D02*
X0055896Y0176038D01*
X0060855Y0170343D02*
X0060855Y0191269D01*
X0065973Y0191269D02*
X0065973Y0195726D01*
X0065973Y0191269D01*
X0065973Y0191269D01*
X0065973Y0183690D01*
X0068729Y0180934D01*
X0067923Y0187227D02*
X0091769Y0187227D01*
X0089715Y0185629D02*
X0063255Y0185629D01*
X0063255Y0184030D02*
X0088116Y0184030D01*
X0086518Y0182432D02*
X0063255Y0182432D01*
X0063255Y0180833D02*
X0086014Y0180833D01*
X0083200Y0179235D02*
X0063255Y0179235D01*
X0063255Y0177636D02*
X0082783Y0177636D01*
X0082509Y0175028D02*
X0076603Y0169123D01*
X0076603Y0159280D01*
X0066761Y0149438D01*
X0065989Y0152060D02*
X0049476Y0152060D01*
X0049476Y0153659D02*
X0067587Y0153659D01*
X0069186Y0155257D02*
X0049476Y0155257D01*
X0049476Y0166447D02*
X0054956Y0166447D01*
X0055896Y0168045D02*
X0049476Y0168045D01*
X0058843Y0158454D02*
X0066805Y0158454D01*
X0065206Y0160053D02*
X0060441Y0160053D01*
X0061118Y0161651D02*
X0064529Y0161651D01*
X0064529Y0163250D02*
X0061118Y0163250D01*
X0060696Y0164848D02*
X0062956Y0164848D01*
X0061358Y0166447D02*
X0060696Y0166447D01*
X0060855Y0170343D02*
X0068729Y0162469D01*
X0079003Y0166447D02*
X0082783Y0166447D01*
X0082783Y0168045D02*
X0079003Y0168045D01*
X0080518Y0169644D02*
X0083609Y0169644D01*
X0083095Y0171242D02*
X0082117Y0171242D01*
X0093306Y0182432D02*
X0099270Y0182432D01*
X0102861Y0185629D02*
X0115110Y0185629D01*
X0115110Y0187227D02*
X0100808Y0187227D01*
X0104460Y0184030D02*
X0115110Y0184030D01*
X0115110Y0182432D02*
X0106058Y0182432D01*
X0107657Y0180833D02*
X0115110Y0180833D01*
X0115110Y0179235D02*
X0109255Y0179235D01*
X0110854Y0177636D02*
X0115110Y0177636D01*
X0115110Y0176038D02*
X0112247Y0176038D01*
X0112468Y0174439D02*
X0115110Y0174439D01*
X0115110Y0172841D02*
X0112468Y0172841D01*
X0112468Y0171242D02*
X0115110Y0171242D01*
X0115110Y0169644D02*
X0112468Y0169644D01*
X0112468Y0168045D02*
X0115110Y0168045D01*
X0115110Y0166447D02*
X0112468Y0166447D01*
X0112468Y0164848D02*
X0115110Y0164848D01*
X0115110Y0163250D02*
X0112468Y0163250D01*
X0112468Y0161651D02*
X0115110Y0161651D01*
X0115110Y0160053D02*
X0112468Y0160053D01*
X0112468Y0158454D02*
X0115110Y0158454D01*
X0115110Y0156856D02*
X0112468Y0156856D01*
X0112468Y0155257D02*
X0115110Y0155257D01*
X0115110Y0153659D02*
X0112468Y0153659D01*
X0112468Y0152060D02*
X0115110Y0152060D01*
X0115110Y0150462D02*
X0112468Y0150462D01*
X0112468Y0148863D02*
X0115110Y0148863D01*
X0115110Y0147265D02*
X0112468Y0147265D01*
X0112468Y0145666D02*
X0115110Y0145666D01*
X0115110Y0144068D02*
X0112468Y0144068D01*
X0112468Y0142469D02*
X0115110Y0142469D01*
X0115110Y0140870D02*
X0112468Y0140870D01*
X0112468Y0139272D02*
X0115110Y0139272D01*
X0115110Y0137673D02*
X0112468Y0137673D01*
X0112468Y0136075D02*
X0115110Y0136075D01*
X0115110Y0134476D02*
X0112468Y0134476D01*
X0112468Y0132878D02*
X0115110Y0132878D01*
X0115110Y0131279D02*
X0112468Y0131279D01*
X0112468Y0129681D02*
X0115110Y0129681D01*
X0115110Y0128082D02*
X0112468Y0128082D01*
X0112468Y0126484D02*
X0115110Y0126484D01*
X0115110Y0124885D02*
X0112468Y0124885D01*
X0112468Y0123287D02*
X0115110Y0123287D01*
X0115110Y0121688D02*
X0112468Y0121688D01*
X0112468Y0120090D02*
X0115110Y0120090D01*
X0115110Y0118491D02*
X0112468Y0118491D01*
X0112468Y0116893D02*
X0115110Y0116893D01*
X0115110Y0115294D02*
X0112468Y0115294D01*
X0112468Y0113696D02*
X0115110Y0113696D01*
X0070632Y0061464D02*
X0070632Y0061464D01*
X0071151Y0060945D02*
X0064855Y0060945D01*
X0064855Y0062543D02*
X0069552Y0062543D01*
X0067954Y0064142D02*
X0064855Y0064142D01*
X0064855Y0065740D02*
X0066569Y0065740D01*
X0066355Y0067339D02*
X0064855Y0067339D01*
X0040155Y0086521D02*
X0006600Y0086521D01*
X0016011Y0110499D02*
X0018398Y0110499D01*
X0017917Y0112097D02*
X0016011Y0112097D01*
X0021485Y0118729D02*
X0021485Y0118729D01*
X0021485Y0120090D02*
X0021485Y0120090D01*
X0021485Y0121688D02*
X0021485Y0121688D01*
X0025138Y0142469D02*
X0029728Y0142469D01*
X0029728Y0144068D02*
X0025254Y0144068D01*
X0025254Y0145666D02*
X0029728Y0145666D01*
X0029728Y0147265D02*
X0024968Y0147265D01*
X0065973Y0187227D02*
X0065973Y0187227D01*
X0065973Y0188826D02*
X0065973Y0188826D01*
X0065973Y0190424D02*
X0065973Y0190424D01*
X0065973Y0192023D02*
X0065973Y0192023D01*
X0065973Y0193621D02*
X0065973Y0193621D01*
X0065973Y0195220D02*
X0065973Y0195220D01*
X0078794Y0195220D02*
X0115110Y0195220D01*
X0115110Y0196818D02*
X0078794Y0196818D01*
X0078794Y0193621D02*
X0115110Y0193621D01*
X0115110Y0192023D02*
X0078794Y0192023D01*
X0078794Y0190424D02*
X0115110Y0190424D01*
X0115110Y0188826D02*
X0078794Y0188826D01*
X0081746Y0198417D02*
X0115110Y0198417D01*
X0115110Y0200015D02*
X0081746Y0200015D01*
X0081746Y0201614D02*
X0115110Y0201614D01*
X0115110Y0203212D02*
X0081746Y0203212D01*
X0081746Y0204811D02*
X0115110Y0204811D01*
D22*
X0068729Y0180934D03*
X0019517Y0131721D03*
X0013611Y0184871D03*
M02*
