G75*
%MOIN*%
%OFA0B0*%
%FSLAX25Y25*%
%IPPOS*%
%LPD*%
%AMOC8*
5,1,8,0,0,1.08239X$1,22.5*
%
%ADD10C,0.00600*%
%ADD11C,0.00300*%
%ADD12R,0.03150X0.04724*%
%ADD13R,0.03937X0.02165*%
%ADD14OC8,0.06600*%
%ADD15R,0.07874X0.08268*%
%ADD16R,0.07087X0.06299*%
%ADD17R,0.05315X0.01575*%
%ADD18R,0.03937X0.03150*%
%ADD19R,0.03150X0.03937*%
%ADD20R,0.05906X0.05906*%
%ADD21C,0.03937*%
%ADD22R,0.06693X0.03150*%
%ADD23R,0.03937X0.03937*%
%ADD24C,0.03937*%
%ADD25R,0.04724X0.03150*%
%ADD26C,0.01575*%
%ADD27C,0.05512*%
%ADD28C,0.00787*%
%ADD29C,0.04331*%
%ADD30C,0.01181*%
%ADD31C,0.04724*%
%ADD32C,0.05118*%
D10*
X0051300Y0167442D02*
X0057705Y0167442D01*
X0051300Y0171712D01*
X0057705Y0171712D01*
X0054503Y0173887D02*
X0052368Y0173887D01*
X0051300Y0174955D01*
X0051300Y0177090D01*
X0052368Y0178158D01*
X0054503Y0178158D01*
X0055570Y0177090D01*
X0055570Y0174955D01*
X0054503Y0173887D01*
X0052368Y0180333D02*
X0052368Y0181400D01*
X0051300Y0181400D01*
X0051300Y0180333D01*
X0052368Y0180333D01*
X0051300Y0183555D02*
X0051300Y0187826D01*
X0051300Y0185691D02*
X0057705Y0185691D01*
X0055570Y0183555D01*
X0055570Y0190001D02*
X0057705Y0192136D01*
X0051300Y0192136D01*
X0051300Y0190001D02*
X0051300Y0194271D01*
X0052368Y0196446D02*
X0053435Y0196446D01*
X0054503Y0197514D01*
X0054503Y0199649D01*
X0053435Y0200717D01*
X0052368Y0200717D01*
X0051300Y0199649D01*
X0051300Y0197514D01*
X0052368Y0196446D01*
X0054503Y0197514D02*
X0055570Y0196446D01*
X0056638Y0196446D01*
X0057705Y0197514D01*
X0057705Y0199649D01*
X0056638Y0200717D01*
X0055570Y0200717D01*
X0054503Y0199649D01*
X0054503Y0202892D02*
X0055570Y0205027D01*
X0055570Y0206095D01*
X0054503Y0207162D01*
X0052368Y0207162D01*
X0051300Y0206095D01*
X0051300Y0203960D01*
X0052368Y0202892D01*
X0054503Y0202892D02*
X0057705Y0202892D01*
X0057705Y0207162D01*
X0065954Y0208768D02*
X0067021Y0207700D01*
X0068089Y0208768D01*
X0068089Y0211971D01*
X0069156Y0211971D02*
X0065954Y0211971D01*
X0065954Y0208768D01*
X0065954Y0205525D02*
X0065954Y0201255D01*
X0072359Y0201255D01*
X0070224Y0208768D02*
X0070224Y0210903D01*
X0069156Y0211971D01*
X0070224Y0214146D02*
X0070224Y0217348D01*
X0069156Y0218416D01*
X0067021Y0218416D01*
X0065954Y0217348D01*
X0065954Y0214146D01*
X0072359Y0214146D01*
X0070224Y0192634D02*
X0070224Y0189431D01*
X0069156Y0188364D01*
X0068089Y0189431D01*
X0068089Y0191566D01*
X0067021Y0192634D01*
X0065954Y0191566D01*
X0065954Y0188364D01*
X0070224Y0185141D02*
X0071291Y0186209D01*
X0073427Y0186209D01*
X0069156Y0182966D02*
X0070224Y0181898D01*
X0070224Y0179763D01*
X0069156Y0178696D01*
X0067021Y0178696D01*
X0065954Y0179763D01*
X0065954Y0181898D01*
X0067021Y0182966D01*
X0069156Y0182966D01*
X0069156Y0176520D02*
X0070224Y0175453D01*
X0070224Y0173318D01*
X0069156Y0172250D01*
X0067021Y0172250D01*
X0065954Y0173318D01*
X0065954Y0175453D01*
X0067021Y0176520D01*
X0069156Y0176520D01*
X0072359Y0170075D02*
X0072359Y0165805D01*
X0065954Y0165805D01*
X0069156Y0165805D02*
X0069156Y0167940D01*
D11*
X0057514Y0157613D02*
X0056907Y0158219D01*
X0055087Y0158219D01*
X0055087Y0155793D02*
X0057514Y0155793D01*
X0057514Y0157613D01*
X0056907Y0154594D02*
X0055087Y0154594D01*
X0055087Y0152774D01*
X0055694Y0152167D01*
X0056300Y0152774D01*
X0056300Y0154594D01*
X0056907Y0154594D02*
X0057514Y0153987D01*
X0057514Y0152774D01*
X0056907Y0150964D02*
X0056907Y0149751D01*
X0058120Y0150357D02*
X0058727Y0150964D01*
X0058120Y0150357D02*
X0055087Y0150357D01*
X0199339Y0165930D02*
X0199339Y0167143D01*
X0199946Y0167750D01*
X0201159Y0167750D01*
X0201766Y0167143D01*
X0201766Y0165930D01*
X0201159Y0165323D01*
X0199946Y0165323D01*
X0199339Y0165930D01*
X0202964Y0167143D02*
X0202964Y0168357D01*
X0203571Y0168963D01*
X0205391Y0168963D01*
X0205391Y0165323D01*
X0206595Y0165323D02*
X0207808Y0165323D01*
X0207201Y0165323D02*
X0207201Y0167750D01*
X0207808Y0167750D01*
X0207201Y0168963D02*
X0207201Y0169570D01*
X0205391Y0166537D02*
X0203571Y0166537D01*
X0202964Y0167143D01*
X0209006Y0165323D02*
X0211433Y0165323D01*
X0211433Y0168963D01*
D12*
X0195094Y0108244D03*
X0191354Y0099583D03*
X0198835Y0099583D03*
D13*
X0206118Y0122457D03*
X0206118Y0126197D03*
X0206118Y0129937D03*
X0216354Y0129937D03*
X0216354Y0122457D03*
X0213205Y0183087D03*
X0213205Y0190567D03*
X0223441Y0190567D03*
X0223441Y0186827D03*
X0223441Y0183087D03*
D14*
X0206512Y0155331D03*
X0206512Y0147457D03*
D15*
G36*
X0174869Y0052337D02*
X0176506Y0044636D01*
X0168419Y0042917D01*
X0166782Y0050618D01*
X0174869Y0052337D01*
G37*
G36*
X0150993Y0047262D02*
X0152630Y0039561D01*
X0144543Y0037842D01*
X0142906Y0045543D01*
X0150993Y0047262D01*
G37*
D16*
G36*
X0148143Y0036996D02*
X0149616Y0030066D01*
X0143457Y0028756D01*
X0141984Y0035686D01*
X0148143Y0036996D01*
G37*
G36*
X0179721Y0043708D02*
X0181194Y0036778D01*
X0175035Y0035468D01*
X0173562Y0042398D01*
X0179721Y0043708D01*
G37*
D17*
G36*
X0164500Y0050937D02*
X0165605Y0045740D01*
X0164066Y0045413D01*
X0162961Y0050610D01*
X0164500Y0050937D01*
G37*
G36*
X0161997Y0050405D02*
X0163102Y0045208D01*
X0161563Y0044881D01*
X0160458Y0050078D01*
X0161997Y0050405D01*
G37*
G36*
X0159494Y0049873D02*
X0160599Y0044676D01*
X0159060Y0044349D01*
X0157955Y0049546D01*
X0159494Y0049873D01*
G37*
G36*
X0156990Y0049341D02*
X0158095Y0044144D01*
X0156556Y0043817D01*
X0155451Y0049014D01*
X0156990Y0049341D01*
G37*
G36*
X0154487Y0048809D02*
X0155592Y0043612D01*
X0154053Y0043285D01*
X0152948Y0048482D01*
X0154487Y0048809D01*
G37*
D18*
X0153362Y0067929D03*
X0153362Y0073441D03*
X0158874Y0073441D03*
X0158874Y0067929D03*
X0117535Y0080528D03*
X0117535Y0086039D03*
X0198244Y0123047D03*
X0198244Y0128559D03*
X0213992Y0106512D03*
X0213992Y0101000D03*
X0226984Y0112417D03*
X0226984Y0117929D03*
D19*
X0227378Y0141551D03*
X0232890Y0141551D03*
X0232890Y0147457D03*
X0238402Y0147457D03*
X0243913Y0147457D03*
X0232890Y0153362D03*
X0227378Y0153362D03*
X0227378Y0147457D03*
X0227378Y0163205D03*
X0232890Y0163205D03*
X0218323Y0175016D03*
X0212811Y0175016D03*
X0215567Y0201787D03*
X0221079Y0201787D03*
X0173835Y0098244D03*
X0173835Y0092732D03*
X0168323Y0092732D03*
X0168323Y0098244D03*
X0186039Y0061236D03*
X0191551Y0061236D03*
D20*
X0077654Y0109898D03*
X0077654Y0119898D03*
X0067654Y0119898D03*
X0067654Y0109898D03*
X0067654Y0129898D03*
X0077654Y0129898D03*
D21*
X0023441Y0132201D02*
X0019504Y0132201D01*
X0019504Y0137122D02*
X0023441Y0137122D01*
X0023441Y0142043D02*
X0019504Y0142043D01*
X0019504Y0146965D02*
X0023441Y0146965D01*
X0255724Y0146965D02*
X0259661Y0146965D01*
X0259661Y0142043D02*
X0255724Y0142043D01*
X0255724Y0137122D02*
X0259661Y0137122D01*
X0259661Y0132201D02*
X0255724Y0132201D01*
D22*
G36*
X0102918Y0036532D02*
X0105425Y0042736D01*
X0108344Y0041556D01*
X0105837Y0035352D01*
X0102918Y0036532D01*
G37*
G36*
X0090507Y0041546D02*
X0093014Y0047750D01*
X0095933Y0046570D01*
X0093426Y0040366D01*
X0090507Y0041546D01*
G37*
D23*
X0072654Y0147457D03*
D24*
X0072654Y0155331D03*
D25*
X0127772Y0062614D03*
X0127772Y0055134D03*
X0136433Y0058874D03*
D26*
X0075803Y0071013D02*
X0071487Y0071013D01*
X0072987Y0069440D02*
X0075803Y0069440D01*
X0075803Y0069430D02*
X0076462Y0067838D01*
X0077681Y0066620D01*
X0079272Y0065961D01*
X0080995Y0065961D01*
X0082587Y0066620D01*
X0083502Y0067535D01*
X0101000Y0067535D01*
X0101000Y0051990D01*
X0109814Y0043176D01*
X0109661Y0042806D01*
X0109661Y0042774D01*
X0109608Y0042843D01*
X0109232Y0043126D01*
X0107554Y0043804D01*
X0105631Y0039044D01*
X0108748Y0037785D01*
X0109874Y0040571D01*
X0110321Y0039492D01*
X0111539Y0038273D01*
X0112241Y0037983D01*
X0111630Y0036507D01*
X0111630Y0034804D01*
X0108650Y0035521D01*
X0107929Y0035757D01*
X0108748Y0037784D01*
X0105631Y0039044D01*
X0105631Y0039044D01*
X0105631Y0039044D01*
X0107554Y0043804D01*
X0105876Y0044482D01*
X0105409Y0044539D01*
X0104942Y0044474D01*
X0104509Y0044290D01*
X0104138Y0044000D01*
X0103855Y0043624D01*
X0102513Y0040304D01*
X0105631Y0039044D01*
X0105631Y0039044D01*
X0102513Y0040303D01*
X0101552Y0037923D01*
X0099179Y0038820D01*
X0095217Y0040595D01*
X0097638Y0046586D01*
X0097128Y0047787D01*
X0092998Y0049456D01*
X0091797Y0048946D01*
X0091762Y0048857D01*
X0090670Y0049949D01*
X0090657Y0050081D01*
X0089990Y0050628D01*
X0089380Y0051239D01*
X0089247Y0051239D01*
X0089189Y0051287D01*
X0089189Y0052649D01*
X0088530Y0054241D01*
X0087311Y0055459D01*
X0085720Y0056118D01*
X0083997Y0056118D01*
X0082405Y0055459D01*
X0082202Y0055256D01*
X0082202Y0057118D01*
X0081069Y0060903D01*
X0078899Y0064203D01*
X0078899Y0064203D01*
X0077386Y0065473D01*
X0077385Y0065474D01*
X0073372Y0069036D01*
X0065968Y0076801D01*
X0062009Y0082001D01*
X0062205Y0082102D01*
X0078146Y0082102D01*
X0079106Y0082087D01*
X0079122Y0082102D01*
X0079144Y0082102D01*
X0079823Y0082781D01*
X0089907Y0092550D01*
X0089941Y0092535D01*
X0091586Y0092535D01*
X0093105Y0093165D01*
X0094268Y0094328D01*
X0094898Y0095847D01*
X0094898Y0097492D01*
X0094268Y0099011D01*
X0093105Y0100174D01*
X0091586Y0100803D01*
X0089941Y0100803D01*
X0088422Y0100174D01*
X0087259Y0099011D01*
X0086630Y0097492D01*
X0086630Y0095953D01*
X0077209Y0086827D01*
X0063068Y0086827D01*
X0052021Y0108183D01*
X0047440Y0123759D01*
X0047295Y0124253D01*
X0046890Y0125628D01*
X0046679Y0126347D01*
X0046679Y0126347D01*
X0044924Y0129304D01*
X0042493Y0131735D01*
X0042493Y0131735D01*
X0039536Y0133490D01*
X0038465Y0133805D01*
X0038199Y0134071D01*
X0037561Y0134071D01*
X0036948Y0134251D01*
X0036618Y0134071D01*
X0026502Y0134071D01*
X0026445Y0134208D01*
X0025991Y0134661D01*
X0026090Y0134760D01*
X0049518Y0134760D01*
X0059852Y0145094D01*
X0069110Y0145094D01*
X0069110Y0144836D01*
X0070033Y0143913D01*
X0075274Y0143913D01*
X0076197Y0144836D01*
X0076197Y0150077D01*
X0075274Y0151000D01*
X0070033Y0151000D01*
X0069110Y0150077D01*
X0069110Y0149819D01*
X0060021Y0149819D01*
X0060452Y0150250D01*
X0060452Y0151678D01*
X0059442Y0152689D01*
X0059239Y0152689D01*
X0059239Y0154702D01*
X0059050Y0154890D01*
X0059239Y0155078D01*
X0059239Y0158327D01*
X0058632Y0158934D01*
X0057621Y0159944D01*
X0054373Y0159944D01*
X0053362Y0158934D01*
X0053362Y0157505D01*
X0053861Y0157006D01*
X0053362Y0156507D01*
X0053362Y0152060D01*
X0053856Y0151566D01*
X0053362Y0151072D01*
X0053362Y0149643D01*
X0054373Y0148633D01*
X0055586Y0148633D01*
X0056148Y0148071D01*
X0047561Y0139484D01*
X0026194Y0139484D01*
X0026358Y0139649D01*
X0026769Y0140264D01*
X0027052Y0140948D01*
X0027197Y0141673D01*
X0027197Y0142043D01*
X0021473Y0142043D01*
X0021473Y0142043D01*
X0027197Y0142043D01*
X0027197Y0142413D01*
X0027052Y0143139D01*
X0026769Y0143822D01*
X0026358Y0144438D01*
X0026142Y0144654D01*
X0026445Y0144957D01*
X0026984Y0146260D01*
X0026984Y0147669D01*
X0026445Y0148972D01*
X0025448Y0149968D01*
X0024146Y0150508D01*
X0023510Y0150508D01*
X0024180Y0150918D01*
X0024180Y0150918D01*
X0026764Y0153752D01*
X0026764Y0153752D01*
X0028455Y0157194D01*
X0028667Y0158399D01*
X0028741Y0158821D01*
X0028787Y0159082D01*
X0029954Y0164831D01*
X0033178Y0176106D01*
X0037559Y0186985D01*
X0043048Y0197348D01*
X0049425Y0206845D01*
X0049425Y0203183D01*
X0050804Y0201804D01*
X0050493Y0201493D01*
X0050158Y0201158D01*
X0049425Y0200426D01*
X0049425Y0196737D01*
X0050270Y0195893D01*
X0049425Y0195048D01*
X0049425Y0189224D01*
X0049736Y0188913D01*
X0049425Y0188602D01*
X0049425Y0182779D01*
X0049726Y0182478D01*
X0049425Y0182177D01*
X0049425Y0179556D01*
X0050270Y0178711D01*
X0050137Y0178578D01*
X0049425Y0177867D01*
X0049425Y0174178D01*
X0050200Y0173404D01*
X0050171Y0173398D01*
X0049843Y0172906D01*
X0049425Y0172489D01*
X0049425Y0172280D01*
X0049309Y0172106D01*
X0049425Y0171526D01*
X0049425Y0170935D01*
X0049573Y0170788D01*
X0049614Y0170583D01*
X0050106Y0170255D01*
X0050523Y0169837D01*
X0050732Y0169837D01*
X0051513Y0169317D01*
X0050523Y0169317D01*
X0049425Y0168218D01*
X0049425Y0166665D01*
X0050523Y0165567D01*
X0057138Y0165567D01*
X0057312Y0165451D01*
X0057891Y0165567D01*
X0058482Y0165567D01*
X0058630Y0165715D01*
X0058835Y0165756D01*
X0059162Y0166247D01*
X0059580Y0166665D01*
X0059580Y0166874D01*
X0059696Y0167048D01*
X0059580Y0167627D01*
X0059580Y0168218D01*
X0059433Y0168366D01*
X0059392Y0168571D01*
X0058900Y0168899D01*
X0058482Y0169317D01*
X0058273Y0169317D01*
X0057492Y0169837D01*
X0058482Y0169837D01*
X0059580Y0170935D01*
X0059580Y0172489D01*
X0058482Y0173587D01*
X0056854Y0173587D01*
X0057445Y0174178D01*
X0057445Y0177867D01*
X0056347Y0178965D01*
X0055279Y0180032D01*
X0054242Y0180032D01*
X0054242Y0182177D01*
X0053175Y0183244D01*
X0053175Y0183816D01*
X0053696Y0183816D01*
X0053696Y0182779D01*
X0054794Y0181681D01*
X0056347Y0181681D01*
X0058482Y0183816D01*
X0059580Y0184914D01*
X0059580Y0186467D01*
X0058482Y0187565D01*
X0053175Y0187565D01*
X0053175Y0188602D01*
X0052864Y0188913D01*
X0053175Y0189224D01*
X0053175Y0190261D01*
X0053696Y0190261D01*
X0053696Y0189224D01*
X0054794Y0188126D01*
X0056347Y0188126D01*
X0058482Y0190261D01*
X0059580Y0191360D01*
X0059580Y0192913D01*
X0058482Y0194011D01*
X0053175Y0194011D01*
X0053175Y0194572D01*
X0054212Y0194572D01*
X0054503Y0194863D01*
X0054794Y0194572D01*
X0057414Y0194572D01*
X0058513Y0195670D01*
X0059580Y0196737D01*
X0059580Y0200426D01*
X0058869Y0201137D01*
X0058735Y0201271D01*
X0059580Y0202115D01*
X0059580Y0207939D01*
X0058482Y0209037D01*
X0056929Y0209037D01*
X0056104Y0208212D01*
X0055279Y0209037D01*
X0051591Y0209037D01*
X0050859Y0208305D01*
X0050493Y0207939D01*
X0050158Y0207604D01*
X0049479Y0206925D01*
X0049586Y0207084D01*
X0057102Y0216086D01*
X0061201Y0220281D01*
X0061201Y0220281D01*
X0061202Y0220282D01*
X0062191Y0221126D01*
X0064453Y0222403D01*
X0066965Y0223063D01*
X0068263Y0223147D01*
X0078560Y0223147D01*
X0080145Y0223022D01*
X0083161Y0222042D01*
X0085726Y0220178D01*
X0087590Y0217612D01*
X0088570Y0214596D01*
X0088695Y0213010D01*
X0088695Y0210210D01*
X0088615Y0208937D01*
X0087981Y0206471D01*
X0086752Y0204242D01*
X0085006Y0202388D01*
X0083973Y0201641D01*
X0082225Y0200537D01*
X0079552Y0197383D01*
X0077946Y0193573D01*
X0077555Y0189458D01*
X0077841Y0188114D01*
X0077848Y0188081D01*
X0077830Y0188051D01*
X0077991Y0187407D01*
X0088474Y0138089D01*
X0088640Y0137042D01*
X0088695Y0135982D01*
X0088695Y0121745D01*
X0089695Y0118177D01*
X0089695Y0118177D01*
X0091619Y0115010D01*
X0092466Y0114219D01*
X0092466Y0114219D01*
X0092973Y0113745D01*
X0093864Y0112798D01*
X0094626Y0111745D01*
X0094626Y0111745D01*
X0095729Y0109995D01*
X0095729Y0109995D01*
X0098884Y0107317D01*
X0102188Y0105922D01*
X0102173Y0105907D01*
X0101883Y0105841D01*
X0101504Y0105238D01*
X0101000Y0104734D01*
X0101000Y0104436D01*
X0100841Y0104184D01*
X0101000Y0103490D01*
X0101000Y0072260D01*
X0084006Y0072260D01*
X0083805Y0072744D01*
X0082587Y0073963D01*
X0080995Y0074622D01*
X0079272Y0074622D01*
X0077681Y0073963D01*
X0076462Y0072744D01*
X0075803Y0071153D01*
X0075803Y0069430D01*
X0076451Y0067867D02*
X0074690Y0067867D01*
X0076462Y0066293D02*
X0078469Y0066293D01*
X0078283Y0064720D02*
X0101000Y0064720D01*
X0101000Y0066293D02*
X0081798Y0066293D01*
X0079594Y0063147D02*
X0101000Y0063147D01*
X0101000Y0061573D02*
X0080629Y0061573D01*
X0081069Y0060903D02*
X0081069Y0060903D01*
X0081340Y0060000D02*
X0101000Y0060000D01*
X0101000Y0058427D02*
X0081811Y0058427D01*
X0082202Y0056853D02*
X0101000Y0056853D01*
X0101000Y0055280D02*
X0087490Y0055280D01*
X0088751Y0053707D02*
X0101000Y0053707D01*
X0101000Y0052133D02*
X0089189Y0052133D01*
X0090073Y0050560D02*
X0102430Y0050560D01*
X0104003Y0048987D02*
X0094158Y0048987D01*
X0091894Y0048987D02*
X0091632Y0048987D01*
X0088402Y0048876D02*
X0084858Y0051787D01*
X0082226Y0055280D02*
X0082202Y0055280D01*
X0088402Y0048876D02*
X0093220Y0044058D01*
X0096065Y0042694D02*
X0103479Y0042694D01*
X0102843Y0041120D02*
X0095429Y0041120D01*
X0097556Y0039547D02*
X0102208Y0039547D01*
X0101572Y0037974D02*
X0101417Y0037974D01*
X0104386Y0039547D02*
X0104386Y0039547D01*
X0105834Y0039547D02*
X0105834Y0039547D01*
X0106470Y0041120D02*
X0106470Y0041120D01*
X0107105Y0042694D02*
X0107105Y0042694D01*
X0106408Y0044267D02*
X0108723Y0044267D01*
X0107150Y0045840D02*
X0097336Y0045840D01*
X0097287Y0047414D02*
X0105577Y0047414D01*
X0104480Y0044267D02*
X0096701Y0044267D01*
X0103362Y0052969D02*
X0103362Y0069898D01*
X0080528Y0069898D01*
X0080134Y0070291D01*
X0082111Y0074160D02*
X0101000Y0074160D01*
X0101000Y0075733D02*
X0066986Y0075733D01*
X0065583Y0077306D02*
X0101000Y0077306D01*
X0101000Y0078880D02*
X0064386Y0078880D01*
X0063188Y0080453D02*
X0101000Y0080453D01*
X0101000Y0082026D02*
X0062058Y0082026D01*
X0061630Y0084465D02*
X0049819Y0107299D01*
X0044898Y0124031D01*
X0047220Y0124506D02*
X0058480Y0124506D01*
X0058480Y0124813D02*
X0058480Y0097659D01*
X0059864Y0096276D01*
X0063636Y0092504D01*
X0063598Y0092413D01*
X0063598Y0090690D01*
X0064258Y0089098D01*
X0065476Y0087880D01*
X0067068Y0087220D01*
X0068791Y0087220D01*
X0070382Y0087880D01*
X0071601Y0089098D01*
X0072260Y0090690D01*
X0072260Y0092413D01*
X0071601Y0094004D01*
X0070382Y0095223D01*
X0068791Y0095882D01*
X0067068Y0095882D01*
X0066977Y0095844D01*
X0065389Y0097432D01*
X0066280Y0097063D01*
X0068003Y0097063D01*
X0069595Y0097722D01*
X0070813Y0098941D01*
X0070851Y0099031D01*
X0082687Y0099031D01*
X0084656Y0101000D01*
X0086039Y0102384D01*
X0086039Y0106177D01*
X0086847Y0105370D01*
X0088367Y0104740D01*
X0090011Y0104740D01*
X0091531Y0105370D01*
X0092693Y0106532D01*
X0093323Y0108052D01*
X0093323Y0109696D01*
X0092693Y0111216D01*
X0091531Y0112379D01*
X0090011Y0113008D01*
X0089976Y0113008D01*
X0089976Y0115364D01*
X0088593Y0116748D01*
X0088402Y0116939D01*
X0088402Y0133081D01*
X0087018Y0134465D01*
X0081506Y0139976D01*
X0065339Y0139976D01*
X0065301Y0140067D01*
X0064083Y0141286D01*
X0062491Y0141945D01*
X0060768Y0141945D01*
X0059177Y0141286D01*
X0057959Y0140067D01*
X0057299Y0138476D01*
X0057299Y0136753D01*
X0057959Y0135161D01*
X0059177Y0133943D01*
X0060768Y0133283D01*
X0062491Y0133283D01*
X0063201Y0133577D01*
X0063126Y0133503D01*
X0063126Y0129459D01*
X0059864Y0126197D01*
X0058480Y0124813D01*
X0059746Y0126079D02*
X0046758Y0126079D01*
X0045904Y0127653D02*
X0061320Y0127653D01*
X0062893Y0129226D02*
X0044970Y0129226D01*
X0044924Y0129304D02*
X0044924Y0129304D01*
X0043428Y0130799D02*
X0063126Y0130799D01*
X0063126Y0132373D02*
X0041418Y0132373D01*
X0039536Y0133490D02*
X0039536Y0133490D01*
X0038324Y0133946D02*
X0059174Y0133946D01*
X0057810Y0135519D02*
X0050277Y0135519D01*
X0051850Y0137092D02*
X0057299Y0137092D01*
X0057378Y0138666D02*
X0053424Y0138666D01*
X0054997Y0140239D02*
X0058130Y0140239D01*
X0056570Y0141812D02*
X0060449Y0141812D01*
X0062811Y0141812D02*
X0087682Y0141812D01*
X0088017Y0140239D02*
X0065130Y0140239D01*
X0061630Y0137614D02*
X0080528Y0137614D01*
X0086039Y0132102D01*
X0086039Y0115961D01*
X0087614Y0114386D01*
X0087614Y0111236D01*
X0089189Y0108874D01*
X0091787Y0105626D02*
X0101748Y0105626D01*
X0100871Y0104053D02*
X0086039Y0104053D01*
X0086039Y0105626D02*
X0086591Y0105626D01*
X0086039Y0102480D02*
X0101000Y0102480D01*
X0101000Y0100906D02*
X0084562Y0100906D01*
X0082989Y0099333D02*
X0087581Y0099333D01*
X0086741Y0097760D02*
X0069632Y0097760D01*
X0066635Y0096186D02*
X0086630Y0096186D01*
X0085246Y0094613D02*
X0070992Y0094613D01*
X0072000Y0093040D02*
X0083622Y0093040D01*
X0081998Y0091466D02*
X0072260Y0091466D01*
X0071930Y0089893D02*
X0080374Y0089893D01*
X0078750Y0088320D02*
X0070822Y0088320D01*
X0067929Y0091551D02*
X0060843Y0098638D01*
X0060843Y0123835D01*
X0066906Y0129898D01*
X0067654Y0129898D01*
X0072181Y0129226D02*
X0072913Y0129226D01*
X0072913Y0129701D02*
X0072913Y0126710D01*
X0073035Y0126255D01*
X0073271Y0125847D01*
X0073603Y0125515D01*
X0074011Y0125279D01*
X0074465Y0125157D01*
X0077457Y0125157D01*
X0077457Y0129701D01*
X0077850Y0129701D01*
X0077850Y0125157D01*
X0080842Y0125157D01*
X0081296Y0125279D01*
X0081704Y0125515D01*
X0082037Y0125847D01*
X0082272Y0126255D01*
X0082394Y0126710D01*
X0082394Y0129701D01*
X0077850Y0129701D01*
X0077850Y0130094D01*
X0082394Y0130094D01*
X0082394Y0132407D01*
X0083677Y0131124D01*
X0083677Y0116545D01*
X0082181Y0118041D01*
X0082181Y0123503D01*
X0081259Y0124425D01*
X0074048Y0124425D01*
X0073126Y0123503D01*
X0073126Y0116293D01*
X0074048Y0115370D01*
X0078171Y0115370D01*
X0079116Y0114425D01*
X0074048Y0114425D01*
X0073126Y0113503D01*
X0073126Y0106293D01*
X0074048Y0105370D01*
X0081259Y0105370D01*
X0081315Y0105426D01*
X0081315Y0104341D01*
X0080730Y0103756D01*
X0070851Y0103756D01*
X0070813Y0103847D01*
X0069595Y0105065D01*
X0068859Y0105370D01*
X0071259Y0105370D01*
X0072181Y0106293D01*
X0072181Y0113503D01*
X0071259Y0114425D01*
X0064048Y0114425D01*
X0063205Y0113581D01*
X0063205Y0116214D01*
X0064048Y0115370D01*
X0071259Y0115370D01*
X0072181Y0116293D01*
X0072181Y0123503D01*
X0071259Y0124425D01*
X0064774Y0124425D01*
X0065719Y0125370D01*
X0071259Y0125370D01*
X0072181Y0126293D01*
X0072181Y0133503D01*
X0071259Y0134425D01*
X0064565Y0134425D01*
X0065301Y0135161D01*
X0065339Y0135252D01*
X0079549Y0135252D01*
X0080163Y0134638D01*
X0077850Y0134638D01*
X0077850Y0130095D01*
X0077457Y0130095D01*
X0077457Y0134638D01*
X0074465Y0134638D01*
X0074011Y0134516D01*
X0073603Y0134281D01*
X0073271Y0133948D01*
X0073035Y0133540D01*
X0072913Y0133086D01*
X0072913Y0130094D01*
X0077457Y0130094D01*
X0077457Y0129701D01*
X0072913Y0129701D01*
X0072913Y0130799D02*
X0072181Y0130799D01*
X0072181Y0132373D02*
X0072913Y0132373D01*
X0073269Y0133946D02*
X0071738Y0133946D01*
X0077457Y0133946D02*
X0077850Y0133946D01*
X0077850Y0132373D02*
X0077457Y0132373D01*
X0077457Y0130799D02*
X0077850Y0130799D01*
X0077850Y0129226D02*
X0077457Y0129226D01*
X0077457Y0127653D02*
X0077850Y0127653D01*
X0077850Y0126079D02*
X0077457Y0126079D01*
X0073137Y0126079D02*
X0071968Y0126079D01*
X0072181Y0127653D02*
X0072913Y0127653D01*
X0073126Y0122933D02*
X0072181Y0122933D01*
X0072181Y0121359D02*
X0073126Y0121359D01*
X0073126Y0119786D02*
X0072181Y0119786D01*
X0072181Y0118213D02*
X0073126Y0118213D01*
X0073126Y0116639D02*
X0072181Y0116639D01*
X0072181Y0113493D02*
X0073126Y0113493D01*
X0073126Y0111919D02*
X0072181Y0111919D01*
X0072181Y0110346D02*
X0073126Y0110346D01*
X0073126Y0108773D02*
X0072181Y0108773D01*
X0072181Y0107199D02*
X0073126Y0107199D01*
X0073792Y0105626D02*
X0071515Y0105626D01*
X0070607Y0104053D02*
X0081027Y0104053D01*
X0083677Y0103362D02*
X0083677Y0113205D01*
X0077654Y0119228D01*
X0077654Y0119898D01*
X0078475Y0115066D02*
X0063205Y0115066D01*
X0058480Y0115066D02*
X0049997Y0115066D01*
X0050460Y0113493D02*
X0058480Y0113493D01*
X0058480Y0111919D02*
X0050922Y0111919D01*
X0051385Y0110346D02*
X0058480Y0110346D01*
X0058480Y0108773D02*
X0051848Y0108773D01*
X0052530Y0107199D02*
X0058480Y0107199D01*
X0058480Y0105626D02*
X0053344Y0105626D01*
X0054158Y0104053D02*
X0058480Y0104053D01*
X0058480Y0102480D02*
X0054971Y0102480D01*
X0055785Y0100906D02*
X0058480Y0100906D01*
X0058480Y0099333D02*
X0056599Y0099333D01*
X0057413Y0097760D02*
X0058480Y0097760D01*
X0058226Y0096186D02*
X0059953Y0096186D01*
X0059040Y0094613D02*
X0061527Y0094613D01*
X0063100Y0093040D02*
X0059854Y0093040D01*
X0060668Y0091466D02*
X0063598Y0091466D01*
X0063928Y0089893D02*
X0061482Y0089893D01*
X0062295Y0088320D02*
X0065036Y0088320D01*
X0061630Y0084465D02*
X0078165Y0084465D01*
X0090764Y0096669D01*
X0093946Y0099333D02*
X0101000Y0099333D01*
X0101000Y0097760D02*
X0094787Y0097760D01*
X0094898Y0096186D02*
X0101000Y0096186D01*
X0101000Y0094613D02*
X0094386Y0094613D01*
X0092803Y0093040D02*
X0101000Y0093040D01*
X0101000Y0091466D02*
X0088788Y0091466D01*
X0087164Y0089893D02*
X0101000Y0089893D01*
X0101000Y0088320D02*
X0085540Y0088320D01*
X0083916Y0086746D02*
X0101000Y0086746D01*
X0101000Y0085173D02*
X0082292Y0085173D01*
X0080668Y0083600D02*
X0101000Y0083600D01*
X0108874Y0083600D02*
X0114205Y0083600D01*
X0114371Y0083434D02*
X0114137Y0083200D01*
X0113901Y0082792D01*
X0113780Y0082338D01*
X0113780Y0080528D01*
X0117535Y0080528D01*
X0117535Y0080527D01*
X0117535Y0080527D01*
X0117535Y0077165D01*
X0115332Y0077165D01*
X0114877Y0077287D01*
X0114469Y0077522D01*
X0114137Y0077855D01*
X0113901Y0078263D01*
X0113780Y0078717D01*
X0113780Y0080527D01*
X0117535Y0080527D01*
X0117535Y0077165D01*
X0119739Y0077165D01*
X0120194Y0077287D01*
X0120601Y0077522D01*
X0120934Y0077855D01*
X0121170Y0078263D01*
X0121291Y0078717D01*
X0121291Y0080527D01*
X0117536Y0080527D01*
X0117536Y0080528D01*
X0121291Y0080528D01*
X0121291Y0082338D01*
X0121170Y0082792D01*
X0120934Y0083200D01*
X0120700Y0083434D01*
X0121079Y0083812D01*
X0121079Y0085029D01*
X0121580Y0085252D01*
X0122057Y0085252D01*
X0122439Y0085634D01*
X0122932Y0085853D01*
X0123104Y0086298D01*
X0124575Y0087769D01*
X0126448Y0087329D01*
X0126856Y0086342D01*
X0126923Y0086275D01*
X0125712Y0085774D01*
X0124494Y0084555D01*
X0123835Y0082964D01*
X0123835Y0081241D01*
X0124494Y0079649D01*
X0125712Y0078431D01*
X0127304Y0077772D01*
X0129027Y0077772D01*
X0129118Y0077809D01*
X0135848Y0071079D01*
X0149954Y0071079D01*
X0150348Y0070685D01*
X0149819Y0070156D01*
X0149819Y0065702D01*
X0150741Y0064780D01*
X0151394Y0064780D01*
X0151394Y0061455D01*
X0150304Y0062545D01*
X0148712Y0063205D01*
X0146989Y0063205D01*
X0145397Y0062545D01*
X0144179Y0061327D01*
X0143520Y0059735D01*
X0143520Y0058013D01*
X0144179Y0056421D01*
X0145397Y0055203D01*
X0146989Y0054543D01*
X0148712Y0054543D01*
X0148803Y0054581D01*
X0149679Y0053705D01*
X0150978Y0049053D01*
X0150852Y0049059D01*
X0147348Y0048315D01*
X0148375Y0043486D01*
X0146834Y0043158D01*
X0147162Y0041618D01*
X0142140Y0040550D01*
X0142751Y0037678D01*
X0141381Y0037386D01*
X0140961Y0037173D01*
X0140612Y0036858D01*
X0140355Y0036463D01*
X0140210Y0036015D01*
X0140185Y0035545D01*
X0140807Y0032620D01*
X0144866Y0033482D01*
X0145193Y0031942D01*
X0141204Y0031094D01*
X0131082Y0031355D01*
X0126298Y0031985D01*
X0126325Y0032011D01*
X0126984Y0033603D01*
X0126984Y0035230D01*
X0128297Y0036433D01*
X0128356Y0036433D01*
X0129012Y0037089D01*
X0129695Y0037715D01*
X0129698Y0037775D01*
X0129740Y0037817D01*
X0129740Y0038744D01*
X0129780Y0039670D01*
X0129740Y0039714D01*
X0129740Y0047266D01*
X0130325Y0047850D01*
X0131900Y0047850D01*
X0137412Y0053362D01*
X0138795Y0054746D01*
X0138795Y0055724D01*
X0139448Y0055724D01*
X0140370Y0056647D01*
X0140370Y0061101D01*
X0139448Y0062024D01*
X0133419Y0062024D01*
X0132496Y0061101D01*
X0132496Y0056647D01*
X0133255Y0055887D01*
X0131709Y0054341D01*
X0131709Y0057361D01*
X0130786Y0058283D01*
X0124757Y0058283D01*
X0123835Y0057361D01*
X0123835Y0055522D01*
X0123441Y0055128D01*
X0123441Y0058289D01*
X0124687Y0059535D01*
X0124757Y0059465D01*
X0130786Y0059465D01*
X0131709Y0060387D01*
X0131709Y0064841D01*
X0130786Y0065764D01*
X0124757Y0065764D01*
X0123970Y0064976D01*
X0123447Y0064976D01*
X0122063Y0063593D01*
X0118717Y0060246D01*
X0118717Y0051613D01*
X0118020Y0052309D01*
X0116428Y0052968D01*
X0114705Y0052968D01*
X0113579Y0052502D01*
X0108874Y0057455D01*
X0108874Y0097591D01*
X0140667Y0105724D01*
X0142649Y0105724D01*
X0142142Y0104500D01*
X0142142Y0103012D01*
X0142711Y0101637D01*
X0143763Y0100585D01*
X0145138Y0100016D01*
X0146626Y0100016D01*
X0148001Y0100585D01*
X0148809Y0101394D01*
X0155533Y0101394D01*
X0158124Y0098803D01*
X0158087Y0098712D01*
X0158087Y0096989D01*
X0158746Y0095397D01*
X0159964Y0094179D01*
X0161556Y0093520D01*
X0163279Y0093520D01*
X0164870Y0094179D01*
X0165173Y0094482D01*
X0165173Y0091512D01*
X0164819Y0090732D01*
X0151134Y0090447D01*
X0151128Y0090461D01*
X0149910Y0091679D01*
X0148318Y0092339D01*
X0146595Y0092339D01*
X0145004Y0091679D01*
X0143785Y0090461D01*
X0143126Y0088869D01*
X0143126Y0087146D01*
X0143785Y0085555D01*
X0145004Y0084336D01*
X0146595Y0083677D01*
X0148318Y0083677D01*
X0149910Y0084336D01*
X0151128Y0085555D01*
X0151198Y0085723D01*
X0165866Y0086029D01*
X0166268Y0085846D01*
X0166806Y0086048D01*
X0167382Y0086060D01*
X0167687Y0086378D01*
X0168100Y0086533D01*
X0168338Y0087057D01*
X0168736Y0087473D01*
X0168727Y0087913D01*
X0169307Y0089189D01*
X0170550Y0089189D01*
X0170928Y0089567D01*
X0171162Y0089334D01*
X0171570Y0089098D01*
X0172025Y0088976D01*
X0173835Y0088976D01*
X0175645Y0088976D01*
X0176099Y0089098D01*
X0176507Y0089334D01*
X0176840Y0089666D01*
X0177075Y0090074D01*
X0177161Y0090396D01*
X0177581Y0089976D01*
X0177671Y0089976D01*
X0177740Y0089917D01*
X0178638Y0089976D01*
X0181543Y0089976D01*
X0181581Y0089885D01*
X0182799Y0088667D01*
X0184391Y0088008D01*
X0186113Y0088008D01*
X0187705Y0088667D01*
X0188923Y0089885D01*
X0189583Y0091477D01*
X0189583Y0093200D01*
X0188923Y0094792D01*
X0187705Y0096010D01*
X0186113Y0096669D01*
X0184391Y0096669D01*
X0182799Y0096010D01*
X0181581Y0094792D01*
X0181543Y0094701D01*
X0180769Y0094701D01*
X0180528Y0098323D01*
X0180528Y0099223D01*
X0180463Y0099287D01*
X0180457Y0099378D01*
X0179780Y0099970D01*
X0179144Y0100606D01*
X0179053Y0100606D01*
X0178985Y0100666D01*
X0178087Y0100606D01*
X0176984Y0100606D01*
X0176984Y0100865D01*
X0176197Y0101652D01*
X0176197Y0104341D01*
X0174813Y0105724D01*
X0170876Y0109661D01*
X0183868Y0109661D01*
X0190461Y0116254D01*
X0190370Y0116035D01*
X0190370Y0114312D01*
X0191029Y0112720D01*
X0192218Y0111532D01*
X0191945Y0111259D01*
X0191945Y0105230D01*
X0192867Y0104307D01*
X0197322Y0104307D01*
X0198244Y0105230D01*
X0198244Y0111259D01*
X0197577Y0111925D01*
X0198372Y0112720D01*
X0199031Y0114312D01*
X0199031Y0116035D01*
X0198372Y0117626D01*
X0197154Y0118845D01*
X0195562Y0119504D01*
X0193839Y0119504D01*
X0193520Y0119372D01*
X0193520Y0124825D01*
X0194864Y0126169D01*
X0195079Y0125953D01*
X0194845Y0125720D01*
X0194610Y0125312D01*
X0194488Y0124857D01*
X0194488Y0123047D01*
X0194488Y0121237D01*
X0194610Y0120783D01*
X0194845Y0120375D01*
X0195178Y0120042D01*
X0195586Y0119807D01*
X0196040Y0119685D01*
X0198244Y0119685D01*
X0198244Y0123047D01*
X0198244Y0123047D01*
X0194488Y0123047D01*
X0198244Y0123047D01*
X0198244Y0123047D01*
X0198244Y0119685D01*
X0200448Y0119685D01*
X0200903Y0119807D01*
X0201310Y0120042D01*
X0201643Y0120375D01*
X0201878Y0120783D01*
X0202000Y0121237D01*
X0202000Y0123047D01*
X0198244Y0123047D01*
X0198244Y0123047D01*
X0202000Y0123047D01*
X0202000Y0124857D01*
X0201878Y0125312D01*
X0201643Y0125720D01*
X0201409Y0125953D01*
X0201787Y0126332D01*
X0201787Y0127575D01*
X0202378Y0127575D01*
X0202362Y0127515D01*
X0202362Y0126197D01*
X0206118Y0126197D01*
X0206118Y0126197D01*
X0202362Y0126197D01*
X0202362Y0124879D01*
X0202484Y0124424D01*
X0202602Y0124219D01*
X0202575Y0124192D01*
X0202575Y0120722D01*
X0203497Y0119799D01*
X0203953Y0119799D01*
X0203953Y0100300D01*
X0201984Y0098261D01*
X0201984Y0102597D01*
X0201062Y0103520D01*
X0196608Y0103520D01*
X0195685Y0102597D01*
X0195685Y0096568D01*
X0196228Y0096025D01*
X0187029Y0086827D01*
X0180693Y0086827D01*
X0180656Y0086918D01*
X0179437Y0088136D01*
X0177846Y0088795D01*
X0176123Y0088795D01*
X0174531Y0088136D01*
X0173313Y0086918D01*
X0172654Y0085326D01*
X0172654Y0083603D01*
X0173313Y0082011D01*
X0174531Y0080793D01*
X0176123Y0080134D01*
X0177846Y0080134D01*
X0179437Y0080793D01*
X0180656Y0082011D01*
X0180693Y0082102D01*
X0186383Y0082102D01*
X0162625Y0057496D01*
X0161280Y0057496D01*
X0160055Y0056989D01*
X0160055Y0061833D01*
X0161236Y0063014D01*
X0161236Y0064780D01*
X0161495Y0064780D01*
X0162417Y0065702D01*
X0162417Y0070156D01*
X0161889Y0070685D01*
X0162417Y0071214D01*
X0162417Y0075668D01*
X0161495Y0076591D01*
X0161236Y0076591D01*
X0161236Y0077175D01*
X0160055Y0078356D01*
X0160055Y0078356D01*
X0158671Y0079740D01*
X0149223Y0079740D01*
X0142695Y0086268D01*
X0142732Y0086359D01*
X0142732Y0088082D01*
X0142073Y0089674D01*
X0140855Y0090892D01*
X0139263Y0091551D01*
X0137540Y0091551D01*
X0135948Y0090892D01*
X0134816Y0089759D01*
X0134199Y0091248D01*
X0132981Y0092467D01*
X0131389Y0093126D01*
X0129666Y0093126D01*
X0128074Y0092467D01*
X0127534Y0091926D01*
X0125030Y0092516D01*
X0124813Y0092732D01*
X0124109Y0092732D01*
X0123423Y0092894D01*
X0123163Y0092732D01*
X0122856Y0092732D01*
X0122358Y0092234D01*
X0121759Y0091864D01*
X0121689Y0091565D01*
X0119719Y0089595D01*
X0118806Y0089189D01*
X0114915Y0089189D01*
X0113992Y0088266D01*
X0113992Y0083812D01*
X0114371Y0083434D01*
X0113780Y0082026D02*
X0108874Y0082026D01*
X0108874Y0080453D02*
X0113780Y0080453D01*
X0113780Y0078880D02*
X0108874Y0078880D01*
X0108874Y0077306D02*
X0114844Y0077306D01*
X0117535Y0077306D02*
X0117535Y0077306D01*
X0117535Y0078880D02*
X0117535Y0078880D01*
X0117535Y0080453D02*
X0117535Y0080453D01*
X0121291Y0080453D02*
X0124161Y0080453D01*
X0123835Y0082026D02*
X0121291Y0082026D01*
X0120866Y0083600D02*
X0124098Y0083600D01*
X0125112Y0085173D02*
X0121402Y0085173D01*
X0121079Y0087614D02*
X0117535Y0086039D01*
X0121079Y0087614D02*
X0123835Y0090370D01*
X0130528Y0088795D01*
X0126689Y0086746D02*
X0123552Y0086746D01*
X0121590Y0091466D02*
X0108874Y0091466D01*
X0108874Y0089893D02*
X0120017Y0089893D01*
X0114045Y0088320D02*
X0108874Y0088320D01*
X0108874Y0086746D02*
X0113992Y0086746D01*
X0113992Y0085173D02*
X0108874Y0085173D01*
X0108874Y0093040D02*
X0129458Y0093040D01*
X0131597Y0093040D02*
X0165173Y0093040D01*
X0165153Y0091466D02*
X0150123Y0091466D01*
X0147457Y0088008D02*
X0166354Y0088402D01*
X0168323Y0092732D01*
X0168323Y0098244D01*
X0173835Y0098244D02*
X0173835Y0103362D01*
X0169110Y0108087D01*
X0140370Y0108087D01*
X0106512Y0099425D01*
X0106512Y0056512D01*
X0113992Y0048638D01*
X0115567Y0048638D01*
X0118196Y0052133D02*
X0118717Y0052133D01*
X0118717Y0053707D02*
X0112435Y0053707D01*
X0110940Y0055280D02*
X0118717Y0055280D01*
X0118717Y0056853D02*
X0109445Y0056853D01*
X0108874Y0058427D02*
X0118717Y0058427D01*
X0118717Y0060000D02*
X0108874Y0060000D01*
X0108874Y0061573D02*
X0120044Y0061573D01*
X0121617Y0063147D02*
X0108874Y0063147D01*
X0108874Y0064720D02*
X0123190Y0064720D01*
X0124425Y0062614D02*
X0127772Y0062614D01*
X0124425Y0062614D02*
X0121079Y0059268D01*
X0121079Y0045488D01*
X0118717Y0043126D01*
X0115173Y0043126D01*
X0113992Y0042339D01*
X0113992Y0041945D01*
X0113992Y0042339D02*
X0103362Y0052969D01*
X0109460Y0039547D02*
X0110298Y0039547D01*
X0108825Y0037974D02*
X0112237Y0037974D01*
X0111630Y0036400D02*
X0108189Y0036400D01*
X0108280Y0037974D02*
X0108280Y0037974D01*
X0111534Y0034827D02*
X0111630Y0034827D01*
X0115961Y0035646D02*
X0119110Y0039189D01*
X0120291Y0039189D01*
X0124622Y0043520D01*
X0124622Y0052969D01*
X0126787Y0055134D01*
X0127772Y0055134D01*
X0123593Y0055280D02*
X0123441Y0055280D01*
X0123441Y0056853D02*
X0123835Y0056853D01*
X0123578Y0058427D02*
X0132496Y0058427D01*
X0132496Y0060000D02*
X0131322Y0060000D01*
X0131709Y0061573D02*
X0132968Y0061573D01*
X0131709Y0063147D02*
X0146849Y0063147D01*
X0148852Y0063147D02*
X0151394Y0063147D01*
X0151394Y0064720D02*
X0131709Y0064720D01*
X0136433Y0058874D02*
X0136433Y0055724D01*
X0130921Y0050213D01*
X0129346Y0050213D01*
X0127378Y0048244D01*
X0127378Y0038795D01*
X0122654Y0034465D01*
X0126984Y0034827D02*
X0140338Y0034827D01*
X0140335Y0036400D02*
X0128261Y0036400D01*
X0129740Y0037974D02*
X0142688Y0037974D01*
X0142353Y0039547D02*
X0129775Y0039547D01*
X0129740Y0041120D02*
X0144821Y0041120D01*
X0144649Y0042694D02*
X0146933Y0042694D01*
X0146834Y0043158D02*
X0141813Y0042091D01*
X0141109Y0045402D01*
X0141134Y0045872D01*
X0141279Y0046319D01*
X0141535Y0046714D01*
X0141885Y0047029D01*
X0142304Y0047243D01*
X0145808Y0047987D01*
X0146834Y0043158D01*
X0146599Y0044267D02*
X0148209Y0044267D01*
X0147874Y0045840D02*
X0146264Y0045840D01*
X0145930Y0047414D02*
X0147540Y0047414D01*
X0150511Y0048987D02*
X0133036Y0048987D01*
X0134609Y0050560D02*
X0150557Y0050560D01*
X0150118Y0052133D02*
X0136183Y0052133D01*
X0137412Y0053362D02*
X0137412Y0053362D01*
X0137756Y0053707D02*
X0149677Y0053707D01*
X0151787Y0054937D02*
X0154270Y0046047D01*
X0156512Y0034465D01*
X0158141Y0038477D02*
X0157386Y0042382D01*
X0158748Y0042672D01*
X0158748Y0042672D01*
X0161565Y0043270D01*
X0161565Y0043270D01*
X0163564Y0043695D01*
X0163737Y0043639D01*
X0164207Y0043615D01*
X0165207Y0043827D01*
X0164283Y0048175D01*
X0165207Y0043827D01*
X0166207Y0044040D01*
X0166339Y0044107D01*
X0166720Y0042314D01*
X0166934Y0041895D01*
X0167249Y0041545D01*
X0167643Y0041289D01*
X0168091Y0041144D01*
X0168561Y0041119D01*
X0171856Y0041819D01*
X0172385Y0039332D01*
X0176444Y0040194D01*
X0176771Y0038654D01*
X0172713Y0037791D01*
X0173004Y0036421D01*
X0165120Y0034068D01*
X0160692Y0033240D01*
X0160843Y0033603D01*
X0160843Y0035326D01*
X0160183Y0036918D01*
X0158965Y0038136D01*
X0158141Y0038477D01*
X0157934Y0039547D02*
X0172339Y0039547D01*
X0173398Y0039547D02*
X0176582Y0039547D01*
X0176444Y0040194D02*
X0175915Y0042682D01*
X0177108Y0042936D01*
X0177436Y0043103D01*
X0177984Y0040522D01*
X0176444Y0040194D01*
X0176247Y0041120D02*
X0177857Y0041120D01*
X0177985Y0040522D02*
X0182043Y0041385D01*
X0181421Y0044310D01*
X0181208Y0044730D01*
X0180893Y0045080D01*
X0180498Y0045336D01*
X0180051Y0045481D01*
X0179581Y0045506D01*
X0178211Y0045215D01*
X0177600Y0048088D01*
X0172578Y0047020D01*
X0172251Y0048561D01*
X0170710Y0048233D01*
X0169684Y0053062D01*
X0166180Y0052318D01*
X0165826Y0052137D01*
X0165671Y0052309D01*
X0165515Y0052411D01*
X0165764Y0053012D01*
X0165764Y0054500D01*
X0165760Y0054509D01*
X0193446Y0083184D01*
X0192807Y0081965D01*
X0192807Y0079090D01*
X0194143Y0076545D01*
X0196508Y0074912D01*
X0199362Y0074566D01*
X0202049Y0075585D01*
X0202049Y0075585D01*
X0203955Y0077737D01*
X0204643Y0080528D01*
X0204490Y0081149D01*
X0205633Y0080006D01*
X0207225Y0079346D01*
X0207647Y0079346D01*
X0199289Y0071396D01*
X0199106Y0071472D01*
X0197383Y0071472D01*
X0195791Y0070813D01*
X0194573Y0069595D01*
X0193913Y0068003D01*
X0193913Y0066280D01*
X0194146Y0065719D01*
X0193331Y0064780D01*
X0189324Y0064780D01*
X0188946Y0064401D01*
X0188712Y0064635D01*
X0188304Y0064870D01*
X0187849Y0064992D01*
X0186039Y0064992D01*
X0184229Y0064992D01*
X0183775Y0064870D01*
X0183367Y0064635D01*
X0183034Y0064302D01*
X0182799Y0063895D01*
X0182677Y0063440D01*
X0182677Y0061236D01*
X0182677Y0059032D01*
X0182799Y0058578D01*
X0183034Y0058170D01*
X0183367Y0057837D01*
X0183775Y0057602D01*
X0184229Y0057480D01*
X0186039Y0057480D01*
X0186039Y0061236D01*
X0182677Y0061236D01*
X0186039Y0061236D01*
X0186039Y0061236D01*
X0186039Y0061236D01*
X0186039Y0057480D01*
X0187849Y0057480D01*
X0188304Y0057602D01*
X0188712Y0057837D01*
X0188946Y0058071D01*
X0189324Y0057693D01*
X0193778Y0057693D01*
X0194701Y0058615D01*
X0194701Y0059747D01*
X0194712Y0059760D01*
X0195291Y0060339D01*
X0195291Y0060428D01*
X0197363Y0062819D01*
X0197383Y0062811D01*
X0199106Y0062811D01*
X0199443Y0062951D01*
X0198096Y0060903D01*
X0196963Y0057118D01*
X0196963Y0053931D01*
X0196963Y0053237D01*
X0196872Y0051885D01*
X0196158Y0049278D01*
X0194779Y0046952D01*
X0192835Y0045073D01*
X0191692Y0044345D01*
X0186609Y0041735D01*
X0181774Y0039717D01*
X0178312Y0038982D01*
X0177985Y0040522D01*
X0178192Y0039547D02*
X0180972Y0039547D01*
X0180800Y0041120D02*
X0185135Y0041120D01*
X0188475Y0042694D02*
X0181765Y0042694D01*
X0181431Y0044267D02*
X0191540Y0044267D01*
X0191692Y0044345D02*
X0191692Y0044345D01*
X0191692Y0044345D01*
X0192835Y0045073D02*
X0192835Y0045073D01*
X0193628Y0045840D02*
X0178078Y0045840D01*
X0177743Y0047414D02*
X0195053Y0047414D01*
X0195985Y0048987D02*
X0174256Y0048987D01*
X0174429Y0047414D02*
X0172495Y0047414D01*
X0171644Y0047627D02*
X0172654Y0057299D01*
X0171062Y0060000D02*
X0182677Y0060000D01*
X0182677Y0061573D02*
X0172581Y0061573D01*
X0174100Y0063147D02*
X0182677Y0063147D01*
X0183514Y0064720D02*
X0175620Y0064720D01*
X0177139Y0066293D02*
X0193913Y0066293D01*
X0193913Y0067867D02*
X0178658Y0067867D01*
X0180177Y0069440D02*
X0194509Y0069440D01*
X0196274Y0071013D02*
X0181696Y0071013D01*
X0183215Y0072587D02*
X0200541Y0072587D01*
X0202195Y0074160D02*
X0184734Y0074160D01*
X0186253Y0075733D02*
X0195319Y0075733D01*
X0194143Y0076545D02*
X0194143Y0076545D01*
X0194143Y0076545D01*
X0193743Y0077306D02*
X0187772Y0077306D01*
X0189291Y0078880D02*
X0192917Y0078880D01*
X0192807Y0080453D02*
X0190810Y0080453D01*
X0192329Y0082026D02*
X0192839Y0082026D01*
X0195895Y0085719D02*
X0207663Y0097908D01*
X0208283Y0098528D01*
X0208283Y0098550D01*
X0208299Y0098566D01*
X0208283Y0099444D01*
X0208283Y0119799D01*
X0208739Y0119799D01*
X0209661Y0120722D01*
X0209661Y0124192D01*
X0209634Y0124219D01*
X0209752Y0124424D01*
X0209874Y0124879D01*
X0209874Y0126197D01*
X0209874Y0127515D01*
X0209752Y0127969D01*
X0209634Y0128174D01*
X0209661Y0128202D01*
X0209661Y0131672D01*
X0208739Y0132594D01*
X0206801Y0132594D01*
X0205724Y0133671D01*
X0205724Y0134639D01*
X0206421Y0133943D01*
X0208013Y0133283D01*
X0209735Y0133283D01*
X0211327Y0133943D01*
X0212545Y0135161D01*
X0212746Y0135646D01*
X0219313Y0135646D01*
X0226024Y0128935D01*
X0225409Y0127452D01*
X0225409Y0125729D01*
X0226069Y0124137D01*
X0227287Y0122919D01*
X0228879Y0122260D01*
X0230602Y0122260D01*
X0232193Y0122919D01*
X0233412Y0124137D01*
X0234071Y0125729D01*
X0234071Y0127452D01*
X0233412Y0129044D01*
X0232193Y0130262D01*
X0230602Y0130921D01*
X0230528Y0130921D01*
X0230528Y0131112D01*
X0230146Y0131494D01*
X0229927Y0131987D01*
X0229481Y0132159D01*
X0222654Y0138986D01*
X0221270Y0140370D01*
X0212243Y0140370D01*
X0211327Y0141286D01*
X0209735Y0141945D01*
X0208013Y0141945D01*
X0206421Y0141286D01*
X0205724Y0140589D01*
X0205724Y0142582D01*
X0208531Y0142582D01*
X0211387Y0145437D01*
X0211387Y0149476D01*
X0209619Y0151243D01*
X0211599Y0153223D01*
X0211599Y0155331D01*
X0211599Y0157438D01*
X0208619Y0160418D01*
X0206512Y0160418D01*
X0206512Y0155331D01*
X0206512Y0155331D01*
X0211599Y0155331D01*
X0206512Y0155331D01*
X0206512Y0155331D01*
X0206512Y0160418D01*
X0204405Y0160418D01*
X0201424Y0157438D01*
X0201424Y0155331D01*
X0206512Y0155331D01*
X0206512Y0155331D01*
X0201424Y0155331D01*
X0201424Y0153223D01*
X0203404Y0151243D01*
X0201637Y0149476D01*
X0201637Y0147104D01*
X0201000Y0146467D01*
X0201000Y0132299D01*
X0198644Y0132299D01*
X0198053Y0131709D01*
X0195623Y0131709D01*
X0194836Y0130921D01*
X0192935Y0130921D01*
X0191551Y0129538D01*
X0190470Y0128456D01*
X0190470Y0213010D01*
X0190595Y0214596D01*
X0191575Y0217612D01*
X0193439Y0220178D01*
X0196005Y0222042D01*
X0199021Y0223022D01*
X0200606Y0223147D01*
X0210902Y0223147D01*
X0212200Y0223063D01*
X0214712Y0222403D01*
X0216974Y0221126D01*
X0217964Y0220281D01*
X0217965Y0220281D01*
X0222064Y0216086D01*
X0229580Y0207084D01*
X0236118Y0197348D01*
X0241607Y0186985D01*
X0245987Y0176106D01*
X0249211Y0164831D01*
X0250378Y0159083D01*
X0250378Y0159082D01*
X0250711Y0157194D01*
X0252402Y0153752D01*
X0254985Y0150918D01*
X0255655Y0150508D01*
X0255020Y0150508D01*
X0253717Y0149968D01*
X0252721Y0148972D01*
X0252181Y0147669D01*
X0252181Y0146260D01*
X0252721Y0144957D01*
X0253174Y0144504D01*
X0252721Y0144050D01*
X0252181Y0142748D01*
X0252181Y0141338D01*
X0252721Y0140036D01*
X0253024Y0139733D01*
X0252807Y0139516D01*
X0252396Y0138901D01*
X0252113Y0138218D01*
X0251969Y0137492D01*
X0251969Y0137122D01*
X0251969Y0136752D01*
X0252113Y0136026D01*
X0252396Y0135343D01*
X0252807Y0134728D01*
X0253024Y0134511D01*
X0252721Y0134208D01*
X0252181Y0132906D01*
X0252181Y0131496D01*
X0252622Y0130431D01*
X0245619Y0130431D01*
X0242054Y0129433D01*
X0242054Y0129433D01*
X0238889Y0127512D01*
X0236359Y0124810D01*
X0234651Y0121526D01*
X0234651Y0121526D01*
X0234414Y0120393D01*
X0234413Y0120393D01*
X0234271Y0119714D01*
X0233024Y0114494D01*
X0229671Y0104302D01*
X0225210Y0094543D01*
X0219697Y0085339D01*
X0213198Y0076801D01*
X0205793Y0069036D01*
X0202509Y0066121D01*
X0202575Y0066280D01*
X0202575Y0068001D01*
X0215563Y0080355D01*
X0215908Y0080442D01*
X0216246Y0081006D01*
X0216723Y0081459D01*
X0216732Y0081815D01*
X0222167Y0090874D01*
X0222654Y0091360D01*
X0222654Y0091684D01*
X0222820Y0091962D01*
X0222654Y0092629D01*
X0222654Y0113014D01*
X0223228Y0113588D01*
X0223228Y0112417D01*
X0223228Y0110607D01*
X0223350Y0110153D01*
X0223585Y0109745D01*
X0223918Y0109412D01*
X0224326Y0109177D01*
X0224780Y0109055D01*
X0226984Y0109055D01*
X0226984Y0112417D01*
X0226984Y0112417D01*
X0223228Y0112417D01*
X0226984Y0112417D01*
X0226984Y0112417D01*
X0226984Y0109055D01*
X0229188Y0109055D01*
X0229643Y0109177D01*
X0230050Y0109412D01*
X0230383Y0109745D01*
X0230618Y0110153D01*
X0230740Y0110607D01*
X0230740Y0112417D01*
X0226984Y0112417D01*
X0226984Y0112417D01*
X0230740Y0112417D01*
X0230740Y0114227D01*
X0230618Y0114682D01*
X0230383Y0115090D01*
X0230149Y0115324D01*
X0230528Y0115702D01*
X0230528Y0120156D01*
X0229605Y0121079D01*
X0225016Y0121079D01*
X0225016Y0125601D01*
X0223632Y0126984D01*
X0219898Y0130719D01*
X0219898Y0131672D01*
X0218975Y0132594D01*
X0213734Y0132594D01*
X0212811Y0131672D01*
X0212811Y0128202D01*
X0213734Y0127280D01*
X0216655Y0127280D01*
X0218821Y0125114D01*
X0213734Y0125114D01*
X0212811Y0124192D01*
X0212811Y0122254D01*
X0211439Y0120882D01*
X0210055Y0119498D01*
X0210055Y0107196D01*
X0209888Y0106529D01*
X0210055Y0106251D01*
X0210055Y0105927D01*
X0210449Y0105533D01*
X0210449Y0104285D01*
X0210827Y0103906D01*
X0210593Y0103672D01*
X0210358Y0103265D01*
X0210236Y0102810D01*
X0210236Y0101000D01*
X0213992Y0101000D01*
X0213992Y0101000D01*
X0210236Y0101000D01*
X0210236Y0099190D01*
X0210358Y0098735D01*
X0210593Y0098328D01*
X0210677Y0098244D01*
X0209587Y0098244D01*
X0207996Y0097585D01*
X0206777Y0096367D01*
X0206118Y0094775D01*
X0206118Y0094297D01*
X0206022Y0094008D01*
X0205724Y0093711D01*
X0205724Y0093116D01*
X0205536Y0092551D01*
X0205724Y0092175D01*
X0205724Y0087386D01*
X0205633Y0087349D01*
X0204415Y0086130D01*
X0203756Y0084539D01*
X0203756Y0083544D01*
X0202049Y0085470D01*
X0199362Y0086489D01*
X0196508Y0086143D01*
X0195895Y0085719D01*
X0196508Y0086143D02*
X0196508Y0086143D01*
X0196886Y0086746D02*
X0205031Y0086746D01*
X0205724Y0088320D02*
X0198405Y0088320D01*
X0199362Y0086489D02*
X0199362Y0086489D01*
X0202049Y0085470D02*
X0202049Y0085470D01*
X0202312Y0085173D02*
X0204019Y0085173D01*
X0203756Y0083600D02*
X0203706Y0083600D01*
X0204625Y0080453D02*
X0205186Y0080453D01*
X0204237Y0078880D02*
X0207157Y0078880D01*
X0205503Y0077306D02*
X0203574Y0077306D01*
X0203955Y0077737D02*
X0203955Y0077737D01*
X0203849Y0075733D02*
X0202180Y0075733D01*
X0199362Y0074566D02*
X0199362Y0074566D01*
X0196508Y0074912D02*
X0196508Y0074912D01*
X0198244Y0067142D02*
X0214386Y0082496D01*
X0220291Y0092339D01*
X0220291Y0113992D01*
X0224228Y0117929D01*
X0222654Y0119504D01*
X0222654Y0124622D01*
X0217339Y0129937D01*
X0216354Y0129937D01*
X0212811Y0129226D02*
X0209661Y0129226D01*
X0209661Y0130799D02*
X0212811Y0130799D01*
X0213512Y0132373D02*
X0208961Y0132373D01*
X0211330Y0133946D02*
X0221013Y0133946D01*
X0222586Y0132373D02*
X0219197Y0132373D01*
X0219898Y0130799D02*
X0224159Y0130799D01*
X0225733Y0129226D02*
X0221390Y0129226D01*
X0222964Y0127653D02*
X0225493Y0127653D01*
X0225409Y0126079D02*
X0224537Y0126079D01*
X0225016Y0124506D02*
X0225916Y0124506D01*
X0225016Y0122933D02*
X0227274Y0122933D01*
X0225016Y0121359D02*
X0234616Y0121359D01*
X0234286Y0119786D02*
X0230528Y0119786D01*
X0230528Y0118213D02*
X0233912Y0118213D01*
X0233536Y0116639D02*
X0230528Y0116639D01*
X0230397Y0115066D02*
X0233160Y0115066D01*
X0232694Y0113493D02*
X0230740Y0113493D01*
X0230740Y0111919D02*
X0232177Y0111919D01*
X0231659Y0110346D02*
X0230670Y0110346D01*
X0231142Y0108773D02*
X0222654Y0108773D01*
X0222654Y0110346D02*
X0223298Y0110346D01*
X0223228Y0111919D02*
X0222654Y0111919D01*
X0223133Y0113493D02*
X0223228Y0113493D01*
X0219598Y0116639D02*
X0214780Y0116639D01*
X0214780Y0117541D02*
X0217038Y0119799D01*
X0218975Y0119799D01*
X0219898Y0120722D01*
X0219898Y0124037D01*
X0220291Y0123644D01*
X0220291Y0118525D01*
X0220888Y0117929D01*
X0217929Y0114971D01*
X0217929Y0092993D01*
X0212525Y0083987D01*
X0212417Y0083884D01*
X0212417Y0084539D01*
X0211758Y0086130D01*
X0210540Y0087349D01*
X0210449Y0087386D01*
X0210449Y0089583D01*
X0211310Y0089583D01*
X0212902Y0090242D01*
X0214120Y0091460D01*
X0214780Y0093052D01*
X0214780Y0094775D01*
X0214120Y0096367D01*
X0212902Y0097585D01*
X0212774Y0097638D01*
X0213992Y0097638D01*
X0213992Y0101000D01*
X0213992Y0101000D01*
X0213992Y0097638D01*
X0216196Y0097638D01*
X0216651Y0097760D01*
X0217058Y0097995D01*
X0217391Y0098328D01*
X0217626Y0098735D01*
X0217748Y0099190D01*
X0217748Y0101000D01*
X0217748Y0102810D01*
X0217626Y0103265D01*
X0217391Y0103672D01*
X0217157Y0103906D01*
X0217535Y0104285D01*
X0217535Y0108739D01*
X0216613Y0109661D01*
X0214780Y0109661D01*
X0214780Y0117541D01*
X0215451Y0118213D02*
X0220604Y0118213D01*
X0220291Y0119786D02*
X0217024Y0119786D01*
X0216354Y0122457D02*
X0212417Y0118520D01*
X0212417Y0106906D01*
X0213992Y0106512D01*
X0217535Y0107199D02*
X0217929Y0107199D01*
X0217929Y0105626D02*
X0217535Y0105626D01*
X0217304Y0104053D02*
X0217929Y0104053D01*
X0217929Y0102480D02*
X0217748Y0102480D01*
X0217748Y0101000D02*
X0213992Y0101000D01*
X0213992Y0101000D01*
X0217748Y0101000D01*
X0217748Y0100906D02*
X0217929Y0100906D01*
X0217929Y0099333D02*
X0217748Y0099333D01*
X0217929Y0097760D02*
X0216650Y0097760D01*
X0217929Y0096186D02*
X0214195Y0096186D01*
X0213992Y0097760D02*
X0213992Y0097760D01*
X0213992Y0099333D02*
X0213992Y0099333D01*
X0213992Y0100906D02*
X0213992Y0100906D01*
X0210236Y0100906D02*
X0208283Y0100906D01*
X0208285Y0099333D02*
X0210236Y0099333D01*
X0208418Y0097760D02*
X0207520Y0097760D01*
X0206703Y0096186D02*
X0206001Y0096186D01*
X0206118Y0094613D02*
X0204482Y0094613D01*
X0205699Y0093040D02*
X0202963Y0093040D01*
X0201444Y0091466D02*
X0205724Y0091466D01*
X0205724Y0089893D02*
X0199925Y0089893D01*
X0198835Y0095291D02*
X0198835Y0099583D01*
X0201984Y0099333D02*
X0203019Y0099333D01*
X0203953Y0100906D02*
X0201984Y0100906D01*
X0201984Y0102480D02*
X0203953Y0102480D01*
X0203953Y0104053D02*
X0176197Y0104053D01*
X0176197Y0102480D02*
X0188072Y0102480D01*
X0188114Y0102635D02*
X0187992Y0102180D01*
X0187992Y0099583D01*
X0191354Y0099583D01*
X0191354Y0103732D01*
X0189544Y0103732D01*
X0189090Y0103610D01*
X0188682Y0103375D01*
X0188349Y0103042D01*
X0188114Y0102635D01*
X0187992Y0100906D02*
X0176943Y0100906D01*
X0178165Y0098244D02*
X0173835Y0098244D01*
X0178165Y0098244D02*
X0178559Y0092339D01*
X0185252Y0092339D01*
X0187279Y0096186D02*
X0188313Y0096186D01*
X0188349Y0096123D02*
X0188682Y0095790D01*
X0189090Y0095555D01*
X0189544Y0095433D01*
X0191354Y0095433D01*
X0191354Y0099583D01*
X0191354Y0099583D01*
X0191354Y0099583D01*
X0191354Y0103732D01*
X0193164Y0103732D01*
X0193619Y0103610D01*
X0194027Y0103375D01*
X0194359Y0103042D01*
X0194595Y0102635D01*
X0194717Y0102180D01*
X0194717Y0099583D01*
X0191354Y0099583D01*
X0187992Y0099583D01*
X0187992Y0096985D01*
X0188114Y0096531D01*
X0188349Y0096123D01*
X0188997Y0094613D02*
X0194816Y0094613D01*
X0194027Y0095790D02*
X0194359Y0096123D01*
X0194595Y0096531D01*
X0194717Y0096985D01*
X0194717Y0099583D01*
X0191354Y0099583D01*
X0191354Y0099583D01*
X0191354Y0099583D01*
X0191354Y0095433D01*
X0193164Y0095433D01*
X0193619Y0095555D01*
X0194027Y0095790D01*
X0194396Y0096186D02*
X0196067Y0096186D01*
X0195685Y0097760D02*
X0194717Y0097760D01*
X0194717Y0099333D02*
X0195685Y0099333D01*
X0195685Y0100906D02*
X0194717Y0100906D01*
X0194636Y0102480D02*
X0195685Y0102480D01*
X0198244Y0105626D02*
X0203953Y0105626D01*
X0203953Y0107199D02*
X0198244Y0107199D01*
X0198244Y0108773D02*
X0203953Y0108773D01*
X0203953Y0110346D02*
X0198244Y0110346D01*
X0197583Y0111919D02*
X0203953Y0111919D01*
X0203953Y0113493D02*
X0198692Y0113493D01*
X0199031Y0115066D02*
X0203953Y0115066D01*
X0203953Y0116639D02*
X0198781Y0116639D01*
X0197786Y0118213D02*
X0203953Y0118213D01*
X0203953Y0119786D02*
X0200825Y0119786D01*
X0202000Y0121359D02*
X0202575Y0121359D01*
X0202575Y0122933D02*
X0202000Y0122933D01*
X0202000Y0124506D02*
X0202462Y0124506D01*
X0202362Y0126079D02*
X0201535Y0126079D01*
X0198244Y0128559D02*
X0199622Y0129937D01*
X0206118Y0129937D01*
X0203362Y0132693D01*
X0203362Y0145488D01*
X0205331Y0147457D01*
X0206512Y0147457D01*
X0201637Y0148106D02*
X0190470Y0148106D01*
X0190470Y0149679D02*
X0201840Y0149679D01*
X0203396Y0151252D02*
X0190470Y0151252D01*
X0190470Y0152826D02*
X0201822Y0152826D01*
X0201424Y0154399D02*
X0190470Y0154399D01*
X0190470Y0155972D02*
X0201424Y0155972D01*
X0201532Y0157546D02*
X0190470Y0157546D01*
X0190470Y0159119D02*
X0203105Y0159119D01*
X0206512Y0159119D02*
X0206512Y0159119D01*
X0206512Y0157546D02*
X0206512Y0157546D01*
X0206512Y0155972D02*
X0206512Y0155972D01*
X0209918Y0159119D02*
X0217929Y0159119D01*
X0217929Y0158406D02*
X0218588Y0156815D01*
X0219807Y0155596D01*
X0221398Y0154937D01*
X0222887Y0154937D01*
X0224228Y0153390D01*
X0224228Y0150741D01*
X0224560Y0150409D01*
X0224228Y0150077D01*
X0224228Y0144836D01*
X0224560Y0144504D01*
X0224228Y0144172D01*
X0224228Y0138930D01*
X0225151Y0138008D01*
X0229605Y0138008D01*
X0230134Y0138537D01*
X0230663Y0138008D01*
X0235117Y0138008D01*
X0236039Y0138930D01*
X0236039Y0139386D01*
X0237724Y0139386D01*
X0239298Y0140961D01*
X0240567Y0142229D01*
X0240567Y0143913D01*
X0240629Y0143913D01*
X0241007Y0144292D01*
X0241241Y0144058D01*
X0241649Y0143823D01*
X0242103Y0143701D01*
X0243913Y0143701D01*
X0243913Y0147457D01*
X0243913Y0151213D01*
X0242103Y0151213D01*
X0241649Y0151091D01*
X0241241Y0150855D01*
X0241007Y0150622D01*
X0240629Y0151000D01*
X0240567Y0151000D01*
X0240567Y0158590D01*
X0236039Y0163117D01*
X0236039Y0165826D01*
X0235117Y0166748D01*
X0235055Y0166748D01*
X0235055Y0174535D01*
X0226984Y0182606D01*
X0226984Y0184822D01*
X0226957Y0184849D01*
X0227075Y0185054D01*
X0227197Y0185509D01*
X0227197Y0186827D01*
X0227197Y0188145D01*
X0227075Y0188599D01*
X0226957Y0188804D01*
X0226984Y0188832D01*
X0226984Y0189404D01*
X0229511Y0190380D01*
X0229649Y0190242D01*
X0231241Y0189583D01*
X0232964Y0189583D01*
X0234555Y0190242D01*
X0235774Y0191460D01*
X0236433Y0193052D01*
X0236433Y0194775D01*
X0235774Y0196367D01*
X0234555Y0197585D01*
X0232964Y0198244D01*
X0231241Y0198244D01*
X0229649Y0197585D01*
X0228431Y0196367D01*
X0227772Y0194775D01*
X0227772Y0194773D01*
X0223765Y0193224D01*
X0220820Y0193224D01*
X0219898Y0192302D01*
X0219898Y0188832D01*
X0219925Y0188804D01*
X0219807Y0188599D01*
X0219766Y0188446D01*
X0216748Y0191464D01*
X0216748Y0192302D01*
X0215826Y0193224D01*
X0215567Y0193224D01*
X0215567Y0198244D01*
X0217794Y0198244D01*
X0218173Y0198623D01*
X0218406Y0198389D01*
X0218814Y0198153D01*
X0219269Y0198031D01*
X0221079Y0198031D01*
X0222889Y0198031D01*
X0223343Y0198153D01*
X0223751Y0198389D01*
X0224084Y0198721D01*
X0224319Y0199129D01*
X0224441Y0199584D01*
X0224441Y0201787D01*
X0221079Y0201787D01*
X0221079Y0198031D01*
X0221079Y0201787D01*
X0221079Y0201787D01*
X0221079Y0201787D01*
X0224441Y0201787D01*
X0224441Y0203991D01*
X0224319Y0204446D01*
X0224084Y0204853D01*
X0223751Y0205186D01*
X0223343Y0205421D01*
X0222889Y0205543D01*
X0221079Y0205543D01*
X0221079Y0201788D01*
X0221079Y0201788D01*
X0221079Y0205543D01*
X0219269Y0205543D01*
X0218814Y0205421D01*
X0218406Y0205186D01*
X0218173Y0204952D01*
X0217794Y0205331D01*
X0213340Y0205331D01*
X0212417Y0204408D01*
X0212417Y0201978D01*
X0210843Y0200404D01*
X0210843Y0193224D01*
X0210584Y0193224D01*
X0209661Y0192302D01*
X0209661Y0188832D01*
X0210584Y0187909D01*
X0214178Y0187909D01*
X0216157Y0185930D01*
X0216157Y0185412D01*
X0215826Y0185744D01*
X0210584Y0185744D01*
X0209661Y0184822D01*
X0209661Y0181352D01*
X0210584Y0180429D01*
X0211039Y0180429D01*
X0211039Y0178559D01*
X0210584Y0178559D01*
X0209661Y0177637D01*
X0209661Y0172395D01*
X0210584Y0171472D01*
X0215038Y0171472D01*
X0215567Y0172001D01*
X0215961Y0171608D01*
X0215961Y0170851D01*
X0215870Y0170813D01*
X0214651Y0169595D01*
X0213992Y0168003D01*
X0213992Y0166280D01*
X0214651Y0164689D01*
X0215870Y0163470D01*
X0217461Y0162811D01*
X0219184Y0162811D01*
X0220776Y0163470D01*
X0221994Y0164689D01*
X0222654Y0166280D01*
X0222654Y0168003D01*
X0221994Y0169595D01*
X0220776Y0170813D01*
X0220685Y0170851D01*
X0220685Y0171608D01*
X0221472Y0172395D01*
X0221472Y0177637D01*
X0220550Y0178559D01*
X0220488Y0178559D01*
X0220488Y0180761D01*
X0220820Y0180429D01*
X0223036Y0180429D01*
X0230724Y0172741D01*
X0230724Y0166748D01*
X0230663Y0166748D01*
X0230134Y0166219D01*
X0229605Y0166748D01*
X0225151Y0166748D01*
X0224228Y0165826D01*
X0224228Y0163762D01*
X0223702Y0163358D01*
X0223121Y0163598D01*
X0221398Y0163598D01*
X0219807Y0162939D01*
X0218588Y0161721D01*
X0217929Y0160129D01*
X0217929Y0158406D01*
X0218286Y0157546D02*
X0211492Y0157546D01*
X0211599Y0155972D02*
X0219431Y0155972D01*
X0223354Y0154399D02*
X0211599Y0154399D01*
X0211201Y0152826D02*
X0224228Y0152826D01*
X0224228Y0151252D02*
X0209628Y0151252D01*
X0211184Y0149679D02*
X0224228Y0149679D01*
X0224228Y0148106D02*
X0211387Y0148106D01*
X0211387Y0146532D02*
X0224228Y0146532D01*
X0224228Y0144959D02*
X0210908Y0144959D01*
X0209335Y0143386D02*
X0224228Y0143386D01*
X0224228Y0141812D02*
X0210055Y0141812D01*
X0207693Y0141812D02*
X0205724Y0141812D01*
X0201000Y0141812D02*
X0190470Y0141812D01*
X0190470Y0140239D02*
X0201000Y0140239D01*
X0201000Y0138666D02*
X0190470Y0138666D01*
X0190470Y0137092D02*
X0201000Y0137092D01*
X0201000Y0135519D02*
X0190470Y0135519D01*
X0190470Y0133946D02*
X0201000Y0133946D01*
X0201000Y0132373D02*
X0190470Y0132373D01*
X0190470Y0130799D02*
X0192813Y0130799D01*
X0191240Y0129226D02*
X0190470Y0129226D01*
X0191157Y0125803D02*
X0193913Y0128559D01*
X0198244Y0128559D01*
X0194953Y0126079D02*
X0194774Y0126079D01*
X0194488Y0124506D02*
X0193520Y0124506D01*
X0193520Y0122933D02*
X0194488Y0122933D01*
X0194488Y0121359D02*
X0193520Y0121359D01*
X0193520Y0119786D02*
X0195664Y0119786D01*
X0198244Y0119786D02*
X0198244Y0119786D01*
X0198244Y0121359D02*
X0198244Y0121359D01*
X0198244Y0122933D02*
X0198244Y0122933D01*
X0206118Y0126197D02*
X0206118Y0126197D01*
X0209874Y0126197D01*
X0206118Y0126197D01*
X0209874Y0126079D02*
X0217856Y0126079D01*
X0219898Y0122933D02*
X0220291Y0122933D01*
X0220291Y0121359D02*
X0219898Y0121359D01*
X0224228Y0117929D02*
X0226984Y0117929D01*
X0226984Y0111919D02*
X0226984Y0111919D01*
X0226984Y0110346D02*
X0226984Y0110346D01*
X0230624Y0107199D02*
X0222654Y0107199D01*
X0222654Y0105626D02*
X0230107Y0105626D01*
X0229557Y0104053D02*
X0222654Y0104053D01*
X0222654Y0102480D02*
X0228838Y0102480D01*
X0228119Y0100906D02*
X0222654Y0100906D01*
X0222654Y0099333D02*
X0227400Y0099333D01*
X0226680Y0097760D02*
X0222654Y0097760D01*
X0222654Y0096186D02*
X0225961Y0096186D01*
X0225242Y0094613D02*
X0222654Y0094613D01*
X0222654Y0093040D02*
X0224310Y0093040D01*
X0223367Y0091466D02*
X0222654Y0091466D01*
X0222425Y0089893D02*
X0221579Y0089893D01*
X0221482Y0088320D02*
X0220635Y0088320D01*
X0220540Y0086746D02*
X0219691Y0086746D01*
X0219570Y0085173D02*
X0218747Y0085173D01*
X0218373Y0083600D02*
X0217803Y0083600D01*
X0217175Y0082026D02*
X0216859Y0082026D01*
X0215977Y0080453D02*
X0215915Y0080453D01*
X0214780Y0078880D02*
X0214011Y0078880D01*
X0213582Y0077306D02*
X0212357Y0077306D01*
X0212179Y0075733D02*
X0210703Y0075733D01*
X0210679Y0074160D02*
X0209050Y0074160D01*
X0209179Y0072587D02*
X0207396Y0072587D01*
X0207678Y0071013D02*
X0205742Y0071013D01*
X0206178Y0069440D02*
X0204088Y0069440D01*
X0204476Y0067867D02*
X0202575Y0067867D01*
X0202575Y0066293D02*
X0202703Y0066293D01*
X0198537Y0061573D02*
X0196284Y0061573D01*
X0198096Y0060903D02*
X0198096Y0060903D01*
X0197826Y0060000D02*
X0194952Y0060000D01*
X0194512Y0058427D02*
X0197355Y0058427D01*
X0196963Y0056853D02*
X0168024Y0056853D01*
X0166505Y0055280D02*
X0196963Y0055280D01*
X0196963Y0053931D02*
X0196963Y0053931D01*
X0196963Y0053707D02*
X0176041Y0053707D01*
X0176040Y0053708D02*
X0175645Y0053964D01*
X0175198Y0054110D01*
X0174728Y0054134D01*
X0171224Y0053390D01*
X0172251Y0048561D01*
X0177272Y0049628D01*
X0176569Y0052939D01*
X0176355Y0053358D01*
X0176040Y0053708D01*
X0176740Y0052133D02*
X0196889Y0052133D01*
X0196509Y0050560D02*
X0177074Y0050560D01*
X0172160Y0048987D02*
X0170550Y0048987D01*
X0170216Y0050560D02*
X0171826Y0050560D01*
X0171491Y0052133D02*
X0169881Y0052133D01*
X0172716Y0053707D02*
X0165764Y0053707D01*
X0163523Y0058427D02*
X0160055Y0058427D01*
X0160055Y0060000D02*
X0165043Y0060000D01*
X0166562Y0061573D02*
X0160055Y0061573D01*
X0161236Y0063147D02*
X0168081Y0063147D01*
X0169600Y0064720D02*
X0161236Y0064720D01*
X0162417Y0066293D02*
X0171119Y0066293D01*
X0172638Y0067867D02*
X0162417Y0067867D01*
X0162417Y0069440D02*
X0174157Y0069440D01*
X0175676Y0071013D02*
X0162217Y0071013D01*
X0162417Y0072587D02*
X0177195Y0072587D01*
X0178714Y0074160D02*
X0162417Y0074160D01*
X0162352Y0075733D02*
X0180233Y0075733D01*
X0181752Y0077306D02*
X0161105Y0077306D01*
X0159532Y0078880D02*
X0183271Y0078880D01*
X0184790Y0080453D02*
X0178616Y0080453D01*
X0180662Y0082026D02*
X0186309Y0082026D01*
X0188008Y0084465D02*
X0198835Y0095291D01*
X0193242Y0093040D02*
X0189583Y0093040D01*
X0189578Y0091466D02*
X0191669Y0091466D01*
X0190096Y0089893D02*
X0188926Y0089893D01*
X0188522Y0088320D02*
X0186866Y0088320D01*
X0183638Y0088320D02*
X0178994Y0088320D01*
X0176971Y0089893D02*
X0181577Y0089893D01*
X0180670Y0096186D02*
X0183224Y0096186D01*
X0180565Y0097760D02*
X0187992Y0097760D01*
X0187992Y0099333D02*
X0180460Y0099333D01*
X0174911Y0105626D02*
X0191945Y0105626D01*
X0191945Y0107199D02*
X0173338Y0107199D01*
X0171765Y0108773D02*
X0191945Y0108773D01*
X0191945Y0110346D02*
X0184553Y0110346D01*
X0186126Y0111919D02*
X0191830Y0111919D01*
X0190709Y0113493D02*
X0187700Y0113493D01*
X0189273Y0115066D02*
X0190370Y0115066D01*
X0194701Y0115173D02*
X0194701Y0108638D01*
X0195094Y0108244D01*
X0191354Y0102480D02*
X0191354Y0102480D01*
X0191354Y0100906D02*
X0191354Y0100906D01*
X0191354Y0099333D02*
X0191354Y0099333D01*
X0191354Y0097760D02*
X0191354Y0097760D01*
X0191354Y0096186D02*
X0191354Y0096186D01*
X0188008Y0084465D02*
X0176984Y0084465D01*
X0174975Y0088320D02*
X0168912Y0088320D01*
X0168197Y0086746D02*
X0173242Y0086746D01*
X0172654Y0085173D02*
X0150746Y0085173D01*
X0146936Y0082026D02*
X0173307Y0082026D01*
X0172655Y0083600D02*
X0145363Y0083600D01*
X0144167Y0085173D02*
X0143790Y0085173D01*
X0143292Y0086746D02*
X0142732Y0086746D01*
X0142634Y0088320D02*
X0143126Y0088320D01*
X0143550Y0089893D02*
X0141854Y0089893D01*
X0139468Y0091466D02*
X0144791Y0091466D01*
X0137335Y0091466D02*
X0133981Y0091466D01*
X0134760Y0089893D02*
X0134950Y0089893D01*
X0138402Y0087220D02*
X0148244Y0077378D01*
X0157693Y0077378D01*
X0158874Y0076197D01*
X0158874Y0073441D01*
X0153362Y0073441D02*
X0136827Y0073441D01*
X0128165Y0082102D01*
X0125263Y0078880D02*
X0121291Y0078880D01*
X0120227Y0077306D02*
X0129621Y0077306D01*
X0131194Y0075733D02*
X0108874Y0075733D01*
X0108874Y0074160D02*
X0132767Y0074160D01*
X0134340Y0072587D02*
X0108874Y0072587D01*
X0108874Y0071013D02*
X0150019Y0071013D01*
X0149819Y0069440D02*
X0108874Y0069440D01*
X0108874Y0067867D02*
X0149819Y0067867D01*
X0149819Y0066293D02*
X0108874Y0066293D01*
X0103362Y0069898D02*
X0103362Y0103756D01*
X0139583Y0112024D01*
X0182890Y0112024D01*
X0191157Y0120291D01*
X0191157Y0125803D01*
X0205724Y0133946D02*
X0206418Y0133946D01*
X0208874Y0137614D02*
X0210055Y0138008D01*
X0220291Y0138008D01*
X0228165Y0130134D01*
X0229740Y0126591D01*
X0233564Y0124506D02*
X0236201Y0124506D01*
X0236359Y0124810D02*
X0236359Y0124810D01*
X0237548Y0126079D02*
X0234071Y0126079D01*
X0233988Y0127653D02*
X0239120Y0127653D01*
X0238889Y0127512D02*
X0238889Y0127512D01*
X0241712Y0129226D02*
X0233229Y0129226D01*
X0230896Y0130799D02*
X0252470Y0130799D01*
X0252181Y0132373D02*
X0229267Y0132373D01*
X0227694Y0133946D02*
X0252612Y0133946D01*
X0252323Y0135519D02*
X0226121Y0135519D01*
X0224547Y0137092D02*
X0251969Y0137092D01*
X0251969Y0137122D02*
X0257693Y0137122D01*
X0257693Y0137122D01*
X0263417Y0137122D01*
X0263417Y0136752D01*
X0263273Y0136026D01*
X0262990Y0135343D01*
X0262579Y0134728D01*
X0262362Y0134511D01*
X0262665Y0134208D01*
X0263205Y0132906D01*
X0263205Y0132421D01*
X0264249Y0133197D01*
X0265923Y0135579D01*
X0266764Y0138366D01*
X0266687Y0141276D01*
X0265700Y0144014D01*
X0263904Y0146305D01*
X0263205Y0146769D01*
X0263205Y0146260D01*
X0262665Y0144957D01*
X0262212Y0144504D01*
X0262665Y0144050D01*
X0263205Y0142748D01*
X0263205Y0141338D01*
X0262665Y0140036D01*
X0262362Y0139733D01*
X0262579Y0139516D01*
X0262990Y0138901D01*
X0263273Y0138218D01*
X0263417Y0137492D01*
X0263417Y0137122D01*
X0257693Y0137122D01*
X0257693Y0137122D01*
X0251969Y0137122D01*
X0252298Y0138666D02*
X0235775Y0138666D01*
X0238577Y0140239D02*
X0252636Y0140239D01*
X0252181Y0141812D02*
X0240150Y0141812D01*
X0240567Y0143386D02*
X0252445Y0143386D01*
X0252720Y0144959D02*
X0247197Y0144959D01*
X0247154Y0144798D02*
X0247276Y0145253D01*
X0247276Y0147457D01*
X0247276Y0149661D01*
X0247154Y0150115D01*
X0246918Y0150523D01*
X0246586Y0150855D01*
X0246178Y0151091D01*
X0245723Y0151213D01*
X0243913Y0151213D01*
X0243913Y0147457D01*
X0243913Y0147457D01*
X0243913Y0147457D01*
X0243914Y0147457D02*
X0247276Y0147457D01*
X0243914Y0147457D01*
X0243914Y0147457D01*
X0243913Y0147457D02*
X0243913Y0143701D01*
X0245723Y0143701D01*
X0246178Y0143823D01*
X0246586Y0144058D01*
X0246918Y0144391D01*
X0247154Y0144798D01*
X0247276Y0146532D02*
X0252181Y0146532D01*
X0252362Y0148106D02*
X0247276Y0148106D01*
X0247271Y0149679D02*
X0253428Y0149679D01*
X0254985Y0150918D02*
X0254985Y0150918D01*
X0254680Y0151252D02*
X0240567Y0151252D01*
X0240567Y0152826D02*
X0253246Y0152826D01*
X0252402Y0153752D02*
X0252402Y0153752D01*
X0252084Y0154399D02*
X0240567Y0154399D01*
X0240567Y0155972D02*
X0251311Y0155972D01*
X0250711Y0157194D02*
X0250711Y0157194D01*
X0250649Y0157546D02*
X0240567Y0157546D01*
X0240038Y0159119D02*
X0250371Y0159119D01*
X0250051Y0160692D02*
X0238465Y0160692D01*
X0236891Y0162265D02*
X0249732Y0162265D01*
X0249413Y0163839D02*
X0236039Y0163839D01*
X0236039Y0165412D02*
X0249045Y0165412D01*
X0248595Y0166985D02*
X0235055Y0166985D01*
X0235055Y0168559D02*
X0248145Y0168559D01*
X0247695Y0170132D02*
X0235055Y0170132D01*
X0235055Y0171705D02*
X0247246Y0171705D01*
X0246796Y0173279D02*
X0235055Y0173279D01*
X0234738Y0174852D02*
X0246346Y0174852D01*
X0245859Y0176425D02*
X0233165Y0176425D01*
X0231591Y0177999D02*
X0245225Y0177999D01*
X0244592Y0179572D02*
X0230018Y0179572D01*
X0228445Y0181145D02*
X0243958Y0181145D01*
X0243325Y0182719D02*
X0226984Y0182719D01*
X0226984Y0184292D02*
X0242691Y0184292D01*
X0242058Y0185865D02*
X0227197Y0185865D01*
X0227197Y0186827D02*
X0223441Y0186827D01*
X0227197Y0186827D01*
X0227197Y0187439D02*
X0241367Y0187439D01*
X0240533Y0189012D02*
X0226984Y0189012D01*
X0223441Y0190567D02*
X0232102Y0193913D01*
X0236063Y0192158D02*
X0238867Y0192158D01*
X0239700Y0190585D02*
X0234899Y0190585D01*
X0236433Y0193732D02*
X0238033Y0193732D01*
X0237200Y0195305D02*
X0236213Y0195305D01*
X0236367Y0196878D02*
X0235262Y0196878D01*
X0235377Y0198452D02*
X0223814Y0198452D01*
X0224441Y0200025D02*
X0234320Y0200025D01*
X0233264Y0201598D02*
X0224441Y0201598D01*
X0224441Y0203172D02*
X0232207Y0203172D01*
X0231151Y0204745D02*
X0224146Y0204745D01*
X0221079Y0204745D02*
X0221079Y0204745D01*
X0221079Y0203172D02*
X0221079Y0203172D01*
X0221079Y0201598D02*
X0221079Y0201598D01*
X0221079Y0200025D02*
X0221079Y0200025D01*
X0221079Y0198452D02*
X0221079Y0198452D01*
X0218343Y0198452D02*
X0218002Y0198452D01*
X0215567Y0196878D02*
X0228943Y0196878D01*
X0227991Y0195305D02*
X0215567Y0195305D01*
X0215567Y0193732D02*
X0225078Y0193732D01*
X0219898Y0192158D02*
X0216748Y0192158D01*
X0217627Y0190585D02*
X0219898Y0190585D01*
X0219898Y0189012D02*
X0219200Y0189012D01*
X0216157Y0185865D02*
X0190470Y0185865D01*
X0190470Y0184292D02*
X0209661Y0184292D01*
X0209661Y0182719D02*
X0190470Y0182719D01*
X0190470Y0181145D02*
X0209868Y0181145D01*
X0211039Y0179572D02*
X0190470Y0179572D01*
X0190470Y0177999D02*
X0210023Y0177999D01*
X0209661Y0176425D02*
X0190470Y0176425D01*
X0190470Y0174852D02*
X0209661Y0174852D01*
X0209661Y0173279D02*
X0190470Y0173279D01*
X0190470Y0171705D02*
X0210351Y0171705D01*
X0210719Y0170688D02*
X0209708Y0169678D01*
X0209708Y0167048D01*
X0209533Y0167048D01*
X0209533Y0168464D01*
X0208926Y0169071D01*
X0208926Y0170284D01*
X0207916Y0171295D01*
X0206487Y0171295D01*
X0205880Y0170688D01*
X0202857Y0170688D01*
X0202250Y0170081D01*
X0201643Y0169475D01*
X0199232Y0169475D01*
X0198221Y0168464D01*
X0197615Y0167858D01*
X0197615Y0165215D01*
X0198625Y0164205D01*
X0199232Y0163598D01*
X0201874Y0163598D01*
X0203087Y0164812D01*
X0203666Y0164812D01*
X0203666Y0164609D01*
X0204677Y0163598D01*
X0212148Y0163598D01*
X0213158Y0164609D01*
X0213158Y0166038D01*
X0213158Y0169678D01*
X0212148Y0170688D01*
X0210719Y0170688D01*
X0210163Y0170132D02*
X0208926Y0170132D01*
X0209438Y0168559D02*
X0209708Y0168559D01*
X0212704Y0170132D02*
X0215189Y0170132D01*
X0215271Y0171705D02*
X0215863Y0171705D01*
X0214222Y0168559D02*
X0213158Y0168559D01*
X0213158Y0166985D02*
X0213992Y0166985D01*
X0214352Y0165412D02*
X0213158Y0165412D01*
X0212388Y0163839D02*
X0215501Y0163839D01*
X0219133Y0162265D02*
X0190470Y0162265D01*
X0190470Y0160692D02*
X0218162Y0160692D01*
X0221144Y0163839D02*
X0224228Y0163839D01*
X0224228Y0165412D02*
X0222294Y0165412D01*
X0222654Y0166985D02*
X0230724Y0166985D01*
X0230724Y0168559D02*
X0222423Y0168559D01*
X0221457Y0170132D02*
X0230724Y0170132D01*
X0230724Y0171705D02*
X0220783Y0171705D01*
X0221472Y0173279D02*
X0230187Y0173279D01*
X0228613Y0174852D02*
X0221472Y0174852D01*
X0221472Y0176425D02*
X0227040Y0176425D01*
X0225467Y0177999D02*
X0221110Y0177999D01*
X0220488Y0179572D02*
X0223893Y0179572D01*
X0218323Y0175016D02*
X0218323Y0167142D01*
X0222260Y0159268D02*
X0227378Y0163205D01*
X0222260Y0159268D02*
X0227378Y0153362D01*
X0224228Y0140239D02*
X0221401Y0140239D01*
X0222974Y0138666D02*
X0224493Y0138666D01*
X0219439Y0135519D02*
X0212694Y0135519D01*
X0213360Y0127653D02*
X0209837Y0127653D01*
X0209774Y0124506D02*
X0213125Y0124506D01*
X0212811Y0122933D02*
X0209661Y0122933D01*
X0209661Y0121359D02*
X0211916Y0121359D01*
X0210343Y0119786D02*
X0208283Y0119786D01*
X0208283Y0118213D02*
X0210055Y0118213D01*
X0210055Y0116639D02*
X0208283Y0116639D01*
X0208283Y0115066D02*
X0210055Y0115066D01*
X0210055Y0113493D02*
X0208283Y0113493D01*
X0208283Y0111919D02*
X0210055Y0111919D01*
X0210055Y0110346D02*
X0208283Y0110346D01*
X0208283Y0108773D02*
X0210055Y0108773D01*
X0210055Y0107199D02*
X0208283Y0107199D01*
X0208283Y0105626D02*
X0210356Y0105626D01*
X0210681Y0104053D02*
X0208283Y0104053D01*
X0208283Y0102480D02*
X0210236Y0102480D01*
X0217502Y0108773D02*
X0217929Y0108773D01*
X0217929Y0110346D02*
X0214780Y0110346D01*
X0214780Y0111919D02*
X0217929Y0111919D01*
X0217929Y0113493D02*
X0214780Y0113493D01*
X0214780Y0115066D02*
X0218025Y0115066D01*
X0232207Y0122933D02*
X0235383Y0122933D01*
X0243913Y0144959D02*
X0243913Y0144959D01*
X0243913Y0146532D02*
X0243913Y0146532D01*
X0243913Y0148106D02*
X0243913Y0148106D01*
X0243913Y0149679D02*
X0243913Y0149679D01*
X0262666Y0144959D02*
X0264959Y0144959D01*
X0265927Y0143386D02*
X0262941Y0143386D01*
X0263205Y0141812D02*
X0266494Y0141812D01*
X0266714Y0140239D02*
X0262749Y0140239D01*
X0263087Y0138666D02*
X0266756Y0138666D01*
X0266379Y0137092D02*
X0263417Y0137092D01*
X0263063Y0135519D02*
X0265881Y0135519D01*
X0264775Y0133946D02*
X0262774Y0133946D01*
X0263205Y0146532D02*
X0263561Y0146532D01*
X0223441Y0186827D02*
X0223441Y0186827D01*
X0214649Y0187439D02*
X0190470Y0187439D01*
X0190470Y0189012D02*
X0209661Y0189012D01*
X0209661Y0190585D02*
X0190470Y0190585D01*
X0190470Y0192158D02*
X0209661Y0192158D01*
X0210843Y0193732D02*
X0202082Y0193732D01*
X0202049Y0193695D02*
X0203955Y0195847D01*
X0204643Y0198638D01*
X0204643Y0198638D01*
X0203955Y0201429D01*
X0202049Y0203580D01*
X0199362Y0204600D01*
X0199362Y0204600D01*
X0196508Y0204253D01*
X0194143Y0202620D01*
X0192807Y0200075D01*
X0192807Y0197201D01*
X0194143Y0194655D01*
X0196508Y0193023D01*
X0196508Y0193023D01*
X0199362Y0192676D01*
X0202049Y0193695D01*
X0202049Y0193695D01*
X0202049Y0193695D01*
X0203475Y0195305D02*
X0210843Y0195305D01*
X0210843Y0196878D02*
X0204210Y0196878D01*
X0204597Y0198452D02*
X0210843Y0198452D01*
X0210843Y0200025D02*
X0204301Y0200025D01*
X0203955Y0201429D02*
X0203955Y0201429D01*
X0203805Y0201598D02*
X0212037Y0201598D01*
X0212417Y0203172D02*
X0202411Y0203172D01*
X0202049Y0203580D02*
X0202049Y0203580D01*
X0196508Y0204253D02*
X0196508Y0204253D01*
X0194942Y0203172D02*
X0190470Y0203172D01*
X0190470Y0204745D02*
X0212754Y0204745D01*
X0215567Y0201787D02*
X0213205Y0199425D01*
X0213205Y0190567D01*
X0199362Y0192676D02*
X0199362Y0192676D01*
X0195481Y0193732D02*
X0190470Y0193732D01*
X0190470Y0195305D02*
X0193802Y0195305D01*
X0194143Y0194655D02*
X0194143Y0194655D01*
X0194143Y0194655D01*
X0192976Y0196878D02*
X0190470Y0196878D01*
X0190470Y0198452D02*
X0192807Y0198452D01*
X0192807Y0200025D02*
X0190470Y0200025D01*
X0190470Y0201598D02*
X0193606Y0201598D01*
X0194143Y0202620D02*
X0194143Y0202620D01*
X0190470Y0206318D02*
X0230094Y0206318D01*
X0228905Y0207892D02*
X0190470Y0207892D01*
X0190470Y0209465D02*
X0227592Y0209465D01*
X0226278Y0211038D02*
X0190470Y0211038D01*
X0190470Y0212612D02*
X0224965Y0212612D01*
X0223651Y0214185D02*
X0190562Y0214185D01*
X0190972Y0215758D02*
X0222338Y0215758D01*
X0220847Y0217331D02*
X0191484Y0217331D01*
X0192514Y0218905D02*
X0219309Y0218905D01*
X0217733Y0220478D02*
X0193852Y0220478D01*
X0196034Y0222051D02*
X0215335Y0222051D01*
X0202301Y0170132D02*
X0190470Y0170132D01*
X0190470Y0168559D02*
X0198316Y0168559D01*
X0197615Y0166985D02*
X0190470Y0166985D01*
X0190470Y0165412D02*
X0197615Y0165412D01*
X0198625Y0164205D02*
X0198625Y0164205D01*
X0198991Y0163839D02*
X0190470Y0163839D01*
X0202114Y0163839D02*
X0204436Y0163839D01*
X0201066Y0146532D02*
X0190470Y0146532D01*
X0190470Y0144959D02*
X0201000Y0144959D01*
X0201000Y0143386D02*
X0190470Y0143386D01*
X0156512Y0103756D02*
X0162417Y0097850D01*
X0158419Y0096186D02*
X0108874Y0096186D01*
X0108874Y0094613D02*
X0159530Y0094613D01*
X0158087Y0097760D02*
X0109532Y0097760D01*
X0111630Y0094307D02*
X0113205Y0094307D01*
X0115682Y0099333D02*
X0157594Y0099333D01*
X0156021Y0100906D02*
X0148322Y0100906D01*
X0145882Y0103756D02*
X0156512Y0103756D01*
X0143442Y0100906D02*
X0121833Y0100906D01*
X0127983Y0102480D02*
X0142362Y0102480D01*
X0142142Y0104053D02*
X0134133Y0104053D01*
X0140283Y0105626D02*
X0142608Y0105626D01*
X0138402Y0087220D02*
X0138402Y0086039D01*
X0148510Y0080453D02*
X0175352Y0080453D01*
X0173835Y0088976D02*
X0173835Y0092732D01*
X0173835Y0092732D01*
X0173835Y0088976D01*
X0173835Y0089893D02*
X0173835Y0089893D01*
X0173835Y0091466D02*
X0173835Y0091466D01*
X0158874Y0067929D02*
X0158874Y0063992D01*
X0157693Y0062811D01*
X0157693Y0053362D01*
X0159277Y0047111D01*
X0156773Y0046579D02*
X0153756Y0060055D01*
X0153756Y0067535D01*
X0153362Y0067929D01*
X0151394Y0061573D02*
X0151276Y0061573D01*
X0147850Y0058874D02*
X0151787Y0054937D01*
X0145320Y0055280D02*
X0138795Y0055280D01*
X0140370Y0056853D02*
X0144000Y0056853D01*
X0143520Y0058427D02*
X0140370Y0058427D01*
X0140370Y0060000D02*
X0143629Y0060000D01*
X0144425Y0061573D02*
X0139898Y0061573D01*
X0132496Y0056853D02*
X0131709Y0056853D01*
X0131709Y0055280D02*
X0132648Y0055280D01*
X0129888Y0047414D02*
X0143109Y0047414D01*
X0141132Y0045840D02*
X0129740Y0045840D01*
X0129740Y0044267D02*
X0141350Y0044267D01*
X0141685Y0042694D02*
X0129740Y0042694D01*
X0139189Y0039583D02*
X0139386Y0038795D01*
X0140672Y0033254D02*
X0126839Y0033254D01*
X0128610Y0031680D02*
X0143963Y0031680D01*
X0143791Y0033254D02*
X0144915Y0033254D01*
X0146407Y0033810D02*
X0150465Y0034672D01*
X0149937Y0037160D01*
X0153232Y0037861D01*
X0153429Y0037961D01*
X0153503Y0037580D01*
X0152840Y0036918D01*
X0152181Y0035326D01*
X0152181Y0033603D01*
X0152840Y0032011D01*
X0152958Y0031894D01*
X0151088Y0031745D01*
X0150793Y0033132D01*
X0146734Y0032269D01*
X0146407Y0033810D01*
X0146525Y0033254D02*
X0152326Y0033254D01*
X0152181Y0034827D02*
X0150433Y0034827D01*
X0150098Y0036400D02*
X0152626Y0036400D01*
X0157630Y0041120D02*
X0168536Y0041120D01*
X0168567Y0041120D02*
X0172005Y0041120D01*
X0173570Y0037974D02*
X0159127Y0037974D01*
X0160398Y0036400D02*
X0172934Y0036400D01*
X0167664Y0034827D02*
X0160843Y0034827D01*
X0160766Y0033254D02*
X0160698Y0033254D01*
X0158851Y0042694D02*
X0166639Y0042694D01*
X0165114Y0044267D02*
X0165113Y0044267D01*
X0164779Y0045840D02*
X0164779Y0045840D01*
X0164445Y0047414D02*
X0164445Y0047414D01*
X0164283Y0048175D02*
X0164283Y0048175D01*
X0171644Y0047627D02*
X0177378Y0041893D01*
X0177378Y0039588D01*
X0177523Y0042694D02*
X0175969Y0042694D01*
X0169543Y0058427D02*
X0182886Y0058427D01*
X0186039Y0058427D02*
X0186039Y0058427D01*
X0186039Y0060000D02*
X0186039Y0060000D01*
X0186039Y0061236D02*
X0186039Y0064992D01*
X0186039Y0061236D01*
X0186039Y0061236D01*
X0186039Y0061573D02*
X0186039Y0061573D01*
X0186039Y0063147D02*
X0186039Y0063147D01*
X0186039Y0064720D02*
X0186039Y0064720D01*
X0188564Y0064720D02*
X0189265Y0064720D01*
X0208087Y0083677D02*
X0208087Y0092732D01*
X0210449Y0093913D01*
X0212059Y0089893D02*
X0216069Y0089893D01*
X0215125Y0088320D02*
X0210449Y0088320D01*
X0211142Y0086746D02*
X0214181Y0086746D01*
X0213237Y0085173D02*
X0212155Y0085173D01*
X0214123Y0091466D02*
X0217013Y0091466D01*
X0217929Y0093040D02*
X0214774Y0093040D01*
X0214780Y0094613D02*
X0217929Y0094613D01*
X0101000Y0072587D02*
X0083871Y0072587D01*
X0078157Y0074160D02*
X0068487Y0074160D01*
X0069987Y0072587D02*
X0076397Y0072587D01*
X0081709Y0101394D02*
X0067142Y0101394D01*
X0081709Y0101394D02*
X0083677Y0103362D01*
X0089976Y0113493D02*
X0093210Y0113493D01*
X0092973Y0113745D02*
X0092973Y0113745D01*
X0091619Y0115010D02*
X0091619Y0115010D01*
X0091585Y0115066D02*
X0089976Y0115066D01*
X0090629Y0116639D02*
X0088701Y0116639D01*
X0088402Y0118213D02*
X0089684Y0118213D01*
X0089244Y0119786D02*
X0088402Y0119786D01*
X0088402Y0121359D02*
X0088803Y0121359D01*
X0088695Y0122933D02*
X0088402Y0122933D01*
X0088402Y0124506D02*
X0088695Y0124506D01*
X0088695Y0126079D02*
X0088402Y0126079D01*
X0088402Y0127653D02*
X0088695Y0127653D01*
X0088695Y0129226D02*
X0088402Y0129226D01*
X0088402Y0130799D02*
X0088695Y0130799D01*
X0088695Y0132373D02*
X0088402Y0132373D01*
X0088695Y0133946D02*
X0087537Y0133946D01*
X0088695Y0135519D02*
X0085963Y0135519D01*
X0084390Y0137092D02*
X0088632Y0137092D01*
X0088351Y0138666D02*
X0082817Y0138666D01*
X0082429Y0132373D02*
X0082394Y0132373D01*
X0082394Y0130799D02*
X0083677Y0130799D01*
X0083677Y0129226D02*
X0082394Y0129226D01*
X0082394Y0127653D02*
X0083677Y0127653D01*
X0083677Y0126079D02*
X0082170Y0126079D01*
X0083677Y0124506D02*
X0064854Y0124506D01*
X0058480Y0122933D02*
X0047683Y0122933D01*
X0047440Y0123759D02*
X0047440Y0123759D01*
X0048146Y0121359D02*
X0058480Y0121359D01*
X0058480Y0119786D02*
X0048609Y0119786D01*
X0049071Y0118213D02*
X0058480Y0118213D01*
X0058480Y0116639D02*
X0049534Y0116639D01*
X0044898Y0124032D02*
X0044817Y0124296D01*
X0044730Y0124558D01*
X0044636Y0124817D01*
X0044536Y0125075D01*
X0044429Y0125330D01*
X0044317Y0125582D01*
X0044198Y0125831D01*
X0044073Y0126077D01*
X0043942Y0126321D01*
X0043806Y0126561D01*
X0043663Y0126797D01*
X0043515Y0127030D01*
X0043361Y0127260D01*
X0043202Y0127485D01*
X0043037Y0127707D01*
X0042867Y0127924D01*
X0042692Y0128138D01*
X0042511Y0128347D01*
X0042326Y0128551D01*
X0042136Y0128751D01*
X0041940Y0128947D01*
X0041740Y0129137D01*
X0041536Y0129322D01*
X0041327Y0129503D01*
X0041113Y0129678D01*
X0040896Y0129848D01*
X0040674Y0130013D01*
X0040449Y0130172D01*
X0040219Y0130326D01*
X0039986Y0130474D01*
X0039750Y0130617D01*
X0039510Y0130753D01*
X0039266Y0130884D01*
X0039020Y0131009D01*
X0038771Y0131128D01*
X0038519Y0131240D01*
X0038264Y0131347D01*
X0038006Y0131447D01*
X0037747Y0131541D01*
X0037485Y0131628D01*
X0037221Y0131709D01*
X0037220Y0131709D02*
X0021472Y0131709D01*
X0021472Y0132201D01*
X0016954Y0134661D02*
X0016500Y0134208D01*
X0015961Y0132906D01*
X0015961Y0132421D01*
X0014916Y0133197D01*
X0013243Y0135579D01*
X0012402Y0138366D01*
X0012478Y0141276D01*
X0013465Y0144014D01*
X0015262Y0146305D01*
X0015961Y0146769D01*
X0015961Y0146260D01*
X0016500Y0144957D01*
X0016803Y0144654D01*
X0016587Y0144438D01*
X0016175Y0143822D01*
X0015892Y0143139D01*
X0015748Y0142413D01*
X0015748Y0142043D01*
X0015748Y0141673D01*
X0015892Y0140948D01*
X0016175Y0140264D01*
X0016587Y0139649D01*
X0016803Y0139432D01*
X0016500Y0139129D01*
X0015961Y0137827D01*
X0015961Y0136417D01*
X0016500Y0135115D01*
X0016954Y0134661D01*
X0016392Y0133946D02*
X0014390Y0133946D01*
X0013285Y0135519D02*
X0016333Y0135519D01*
X0015961Y0137092D02*
X0012786Y0137092D01*
X0012410Y0138666D02*
X0016308Y0138666D01*
X0016192Y0140239D02*
X0012451Y0140239D01*
X0012672Y0141812D02*
X0015748Y0141812D01*
X0015748Y0142043D02*
X0021472Y0142043D01*
X0021472Y0142043D01*
X0015748Y0142043D01*
X0015995Y0143386D02*
X0013239Y0143386D01*
X0014206Y0144959D02*
X0016499Y0144959D01*
X0015961Y0146532D02*
X0015605Y0146532D01*
X0024485Y0151252D02*
X0053543Y0151252D01*
X0053362Y0149679D02*
X0025738Y0149679D01*
X0026804Y0148106D02*
X0056113Y0148106D01*
X0054609Y0146532D02*
X0026984Y0146532D01*
X0026445Y0144959D02*
X0053036Y0144959D01*
X0051462Y0143386D02*
X0026950Y0143386D01*
X0027197Y0141812D02*
X0049889Y0141812D01*
X0048316Y0140239D02*
X0026753Y0140239D01*
X0021472Y0137122D02*
X0048539Y0137122D01*
X0058874Y0147457D01*
X0072654Y0147457D01*
X0076197Y0148106D02*
X0086345Y0148106D01*
X0086010Y0149679D02*
X0076197Y0149679D01*
X0074661Y0152327D02*
X0075657Y0153324D01*
X0076197Y0154626D01*
X0076197Y0156036D01*
X0075657Y0157338D01*
X0074661Y0158335D01*
X0073358Y0158874D01*
X0071949Y0158874D01*
X0070646Y0158335D01*
X0069650Y0157338D01*
X0069110Y0156036D01*
X0069110Y0154626D01*
X0069650Y0153324D01*
X0070646Y0152327D01*
X0071949Y0151787D01*
X0073358Y0151787D01*
X0074661Y0152327D01*
X0075159Y0152826D02*
X0085342Y0152826D01*
X0085007Y0154399D02*
X0076103Y0154399D01*
X0076197Y0155972D02*
X0084673Y0155972D01*
X0084338Y0157546D02*
X0075450Y0157546D01*
X0069857Y0157546D02*
X0059239Y0157546D01*
X0059239Y0155972D02*
X0069110Y0155972D01*
X0069204Y0154399D02*
X0059239Y0154399D01*
X0059239Y0152826D02*
X0070148Y0152826D01*
X0076197Y0146532D02*
X0086679Y0146532D01*
X0087014Y0144959D02*
X0076197Y0144959D01*
X0069110Y0144959D02*
X0059717Y0144959D01*
X0058144Y0143386D02*
X0087348Y0143386D01*
X0085676Y0151252D02*
X0060452Y0151252D01*
X0053362Y0152826D02*
X0025919Y0152826D01*
X0027081Y0154399D02*
X0053362Y0154399D01*
X0053362Y0155972D02*
X0027854Y0155972D01*
X0028455Y0157194D02*
X0028455Y0157194D01*
X0028517Y0157546D02*
X0053362Y0157546D01*
X0053547Y0159119D02*
X0028794Y0159119D01*
X0028667Y0158399D02*
X0028667Y0158399D01*
X0029114Y0160692D02*
X0083669Y0160692D01*
X0084004Y0159119D02*
X0058447Y0159119D01*
X0059654Y0166985D02*
X0064483Y0166985D01*
X0064079Y0166581D02*
X0065177Y0167679D01*
X0067281Y0167679D01*
X0067281Y0168716D01*
X0068380Y0169814D01*
X0069933Y0169814D01*
X0070484Y0169263D01*
X0070484Y0170851D01*
X0071582Y0171950D01*
X0073136Y0171950D01*
X0074234Y0170851D01*
X0074234Y0165028D01*
X0073136Y0163930D01*
X0065177Y0163930D01*
X0064079Y0165028D01*
X0064079Y0166581D01*
X0064079Y0165412D02*
X0030120Y0165412D01*
X0029753Y0163839D02*
X0083001Y0163839D01*
X0082666Y0165412D02*
X0074234Y0165412D01*
X0074234Y0166985D02*
X0082332Y0166985D01*
X0081997Y0168559D02*
X0074234Y0168559D01*
X0074234Y0170132D02*
X0081663Y0170132D01*
X0081329Y0171705D02*
X0073380Y0171705D01*
X0072099Y0172541D02*
X0072099Y0176229D01*
X0071000Y0177328D01*
X0070720Y0177608D01*
X0071000Y0177888D01*
X0071000Y0177888D01*
X0071366Y0178254D01*
X0072099Y0178986D01*
X0072099Y0182675D01*
X0071254Y0183520D01*
X0072068Y0184334D01*
X0074203Y0184334D01*
X0075301Y0185432D01*
X0075301Y0186985D01*
X0074203Y0188083D01*
X0071527Y0188083D01*
X0072099Y0188655D01*
X0072099Y0193411D01*
X0071000Y0194509D01*
X0069447Y0194509D01*
X0068622Y0193684D01*
X0068355Y0193952D01*
X0067798Y0194509D01*
X0066245Y0194509D01*
X0065533Y0193797D01*
X0065146Y0193411D01*
X0064790Y0193054D01*
X0064079Y0192343D01*
X0064079Y0187587D01*
X0065177Y0186489D01*
X0066730Y0186489D01*
X0067555Y0187314D01*
X0067751Y0187117D01*
X0068380Y0186489D01*
X0068920Y0186489D01*
X0068349Y0185918D01*
X0068349Y0184841D01*
X0066245Y0184841D01*
X0065533Y0184129D01*
X0065146Y0183742D01*
X0064790Y0183386D01*
X0064079Y0182675D01*
X0064079Y0178987D01*
X0065457Y0177608D01*
X0065146Y0177297D01*
X0064790Y0176941D01*
X0064079Y0176229D01*
X0064079Y0172541D01*
X0066245Y0170375D01*
X0069933Y0170375D01*
X0070665Y0171108D01*
X0071000Y0171443D01*
X0071000Y0171443D01*
X0071366Y0171809D01*
X0072099Y0172541D01*
X0072099Y0173279D02*
X0080994Y0173279D01*
X0080660Y0174852D02*
X0072099Y0174852D01*
X0071903Y0176425D02*
X0080325Y0176425D01*
X0079991Y0177999D02*
X0071111Y0177999D01*
X0072099Y0179572D02*
X0079656Y0179572D01*
X0079322Y0181145D02*
X0072099Y0181145D01*
X0072055Y0182719D02*
X0078988Y0182719D01*
X0078653Y0184292D02*
X0072026Y0184292D01*
X0075301Y0185865D02*
X0078319Y0185865D01*
X0077983Y0187439D02*
X0074848Y0187439D01*
X0077841Y0188114D02*
X0077841Y0188114D01*
X0077650Y0189012D02*
X0072099Y0189012D01*
X0072099Y0190585D02*
X0077662Y0190585D01*
X0077812Y0192158D02*
X0072099Y0192158D01*
X0071778Y0193732D02*
X0078013Y0193732D01*
X0078676Y0195305D02*
X0058148Y0195305D01*
X0058513Y0195670D02*
X0058513Y0195670D01*
X0059580Y0196878D02*
X0079340Y0196878D01*
X0080458Y0198452D02*
X0059580Y0198452D01*
X0059580Y0200025D02*
X0064532Y0200025D01*
X0064079Y0200478D02*
X0065177Y0199380D01*
X0073136Y0199380D01*
X0074234Y0200478D01*
X0074234Y0202031D01*
X0073136Y0203130D01*
X0067828Y0203130D01*
X0067828Y0205856D01*
X0068509Y0206537D01*
X0068865Y0206893D01*
X0068865Y0206893D01*
X0069156Y0207184D01*
X0069447Y0206893D01*
X0071000Y0206893D01*
X0072099Y0207991D01*
X0072099Y0211680D01*
X0071507Y0212271D01*
X0073136Y0212271D01*
X0074234Y0213369D01*
X0074234Y0214922D01*
X0073136Y0216021D01*
X0072099Y0216021D01*
X0072099Y0218125D01*
X0071000Y0219223D01*
X0069933Y0220291D01*
X0066245Y0220291D01*
X0065533Y0219579D01*
X0065146Y0219193D01*
X0065146Y0219193D01*
X0064790Y0218836D01*
X0064079Y0218125D01*
X0064079Y0213369D01*
X0064390Y0213058D01*
X0064079Y0212747D01*
X0064079Y0207991D01*
X0064924Y0207146D01*
X0064079Y0206302D01*
X0064079Y0200478D01*
X0064079Y0201598D02*
X0059063Y0201598D01*
X0059580Y0203172D02*
X0064079Y0203172D01*
X0064079Y0204745D02*
X0059580Y0204745D01*
X0059580Y0206318D02*
X0064095Y0206318D01*
X0064178Y0207892D02*
X0059580Y0207892D01*
X0064079Y0209465D02*
X0051573Y0209465D01*
X0050493Y0207939D02*
X0050493Y0207939D01*
X0050446Y0207892D02*
X0050260Y0207892D01*
X0049425Y0206318D02*
X0049071Y0206318D01*
X0049425Y0204745D02*
X0048015Y0204745D01*
X0046958Y0203172D02*
X0049437Y0203172D01*
X0050598Y0201598D02*
X0045902Y0201598D01*
X0044845Y0200025D02*
X0049425Y0200025D01*
X0049425Y0198452D02*
X0043789Y0198452D01*
X0042799Y0196878D02*
X0049425Y0196878D01*
X0049682Y0195305D02*
X0041965Y0195305D01*
X0041132Y0193732D02*
X0049425Y0193732D01*
X0049425Y0192158D02*
X0040299Y0192158D01*
X0039465Y0190585D02*
X0049425Y0190585D01*
X0049638Y0189012D02*
X0038632Y0189012D01*
X0037799Y0187439D02*
X0049425Y0187439D01*
X0049425Y0185865D02*
X0037108Y0185865D01*
X0036474Y0184292D02*
X0049425Y0184292D01*
X0049486Y0182719D02*
X0035841Y0182719D01*
X0035207Y0181145D02*
X0049425Y0181145D01*
X0049425Y0179572D02*
X0034574Y0179572D01*
X0033940Y0177999D02*
X0049557Y0177999D01*
X0049425Y0176425D02*
X0033307Y0176425D01*
X0032819Y0174852D02*
X0049425Y0174852D01*
X0050091Y0173279D02*
X0032370Y0173279D01*
X0031920Y0171705D02*
X0049389Y0171705D01*
X0050229Y0170132D02*
X0031470Y0170132D01*
X0031020Y0168559D02*
X0049766Y0168559D01*
X0049425Y0166985D02*
X0030570Y0166985D01*
X0029433Y0162265D02*
X0083335Y0162265D01*
X0070484Y0170132D02*
X0058777Y0170132D01*
X0059394Y0168559D02*
X0067281Y0168559D01*
X0064914Y0171705D02*
X0059580Y0171705D01*
X0058790Y0173279D02*
X0064079Y0173279D01*
X0064079Y0174852D02*
X0057445Y0174852D01*
X0057445Y0176425D02*
X0064275Y0176425D01*
X0065146Y0177297D02*
X0065146Y0177297D01*
X0065067Y0177999D02*
X0057313Y0177999D01*
X0055740Y0179572D02*
X0064079Y0179572D01*
X0064079Y0181145D02*
X0054242Y0181145D01*
X0053756Y0182719D02*
X0053701Y0182719D01*
X0057385Y0182719D02*
X0064123Y0182719D01*
X0065146Y0183742D02*
X0065146Y0183742D01*
X0065696Y0184292D02*
X0058958Y0184292D01*
X0059580Y0185865D02*
X0068349Y0185865D01*
X0064227Y0187439D02*
X0058609Y0187439D01*
X0057233Y0189012D02*
X0064079Y0189012D01*
X0064079Y0190585D02*
X0058806Y0190585D01*
X0059580Y0192158D02*
X0064079Y0192158D01*
X0065146Y0193411D02*
X0065146Y0193411D01*
X0065467Y0193732D02*
X0058761Y0193732D01*
X0053908Y0189012D02*
X0052962Y0189012D01*
X0050493Y0201493D02*
X0050493Y0201493D01*
X0052887Y0211038D02*
X0064079Y0211038D01*
X0064079Y0212612D02*
X0054201Y0212612D01*
X0055514Y0214185D02*
X0064079Y0214185D01*
X0064079Y0215758D02*
X0056828Y0215758D01*
X0058319Y0217331D02*
X0064079Y0217331D01*
X0064859Y0218905D02*
X0059856Y0218905D01*
X0061432Y0220478D02*
X0085313Y0220478D01*
X0086651Y0218905D02*
X0071319Y0218905D01*
X0072099Y0217331D02*
X0087682Y0217331D01*
X0088193Y0215758D02*
X0082972Y0215758D01*
X0083939Y0215391D02*
X0081251Y0216411D01*
X0078398Y0216064D01*
X0076032Y0214431D01*
X0074697Y0211886D01*
X0074697Y0209012D01*
X0076032Y0206466D01*
X0078398Y0204834D01*
X0081251Y0204487D01*
X0081251Y0204487D01*
X0083939Y0205506D01*
X0085845Y0207658D01*
X0086533Y0210449D01*
X0085845Y0213240D01*
X0083939Y0215391D01*
X0085008Y0214185D02*
X0088603Y0214185D01*
X0088695Y0212612D02*
X0086000Y0212612D01*
X0085845Y0213240D02*
X0085845Y0213240D01*
X0086388Y0211038D02*
X0088695Y0211038D01*
X0088648Y0209465D02*
X0086291Y0209465D01*
X0086533Y0210449D02*
X0086533Y0210449D01*
X0085903Y0207892D02*
X0088346Y0207892D01*
X0087896Y0206318D02*
X0084658Y0206318D01*
X0083939Y0205506D02*
X0083939Y0205506D01*
X0081931Y0204745D02*
X0087029Y0204745D01*
X0085744Y0203172D02*
X0067828Y0203172D01*
X0067828Y0204745D02*
X0079128Y0204745D01*
X0078398Y0204834D02*
X0078398Y0204834D01*
X0076247Y0206318D02*
X0068291Y0206318D01*
X0071999Y0207892D02*
X0075284Y0207892D01*
X0076032Y0206466D02*
X0076032Y0206466D01*
X0076032Y0206466D01*
X0074234Y0201598D02*
X0083906Y0201598D01*
X0083973Y0201641D02*
X0083973Y0201641D01*
X0082225Y0200537D02*
X0082225Y0200537D01*
X0081792Y0200025D02*
X0073781Y0200025D01*
X0068670Y0193732D02*
X0068575Y0193732D01*
X0072099Y0209465D02*
X0074697Y0209465D01*
X0074697Y0211038D02*
X0072099Y0211038D01*
X0073476Y0212612D02*
X0075077Y0212612D01*
X0075903Y0214185D02*
X0074234Y0214185D01*
X0073398Y0215758D02*
X0077955Y0215758D01*
X0076032Y0214431D02*
X0076032Y0214431D01*
X0076032Y0214431D01*
X0083131Y0222051D02*
X0063830Y0222051D01*
X0085845Y0207658D02*
X0085845Y0207658D01*
X0071338Y0171705D02*
X0071263Y0171705D01*
X0082181Y0122933D02*
X0083677Y0122933D01*
X0083677Y0121359D02*
X0082181Y0121359D01*
X0082181Y0119786D02*
X0083677Y0119786D01*
X0083677Y0118213D02*
X0082181Y0118213D01*
X0083583Y0116639D02*
X0083677Y0116639D01*
X0091990Y0111919D02*
X0094500Y0111919D01*
X0095508Y0110346D02*
X0093054Y0110346D01*
X0093323Y0108773D02*
X0097168Y0108773D01*
X0098884Y0107317D02*
X0098884Y0107317D01*
X0099161Y0107199D02*
X0092970Y0107199D01*
D27*
X0097850Y0105724D03*
X0113205Y0094307D03*
X0128165Y0082102D03*
X0130528Y0088795D03*
X0138402Y0087220D03*
X0147457Y0088008D03*
X0162417Y0097850D03*
X0176984Y0084465D03*
X0185252Y0092339D03*
X0191157Y0073047D03*
X0198244Y0067142D03*
X0208087Y0083677D03*
X0210449Y0093913D03*
X0194701Y0115173D03*
X0208874Y0137614D03*
X0229740Y0126591D03*
X0236827Y0134465D03*
X0222260Y0159268D03*
X0218323Y0167142D03*
X0232102Y0193913D03*
X0228165Y0201000D03*
X0147063Y0067929D03*
X0147850Y0058874D03*
X0172654Y0057299D03*
X0156512Y0034465D03*
X0122654Y0034465D03*
X0115961Y0035646D03*
X0113992Y0041945D03*
X0115567Y0048638D03*
X0091551Y0064780D03*
X0080134Y0070291D03*
X0084858Y0051787D03*
X0067929Y0091551D03*
X0067142Y0101394D03*
X0061630Y0137614D03*
D28*
X0198244Y0123047D02*
X0201394Y0126197D01*
X0206118Y0126197D01*
D29*
X0145882Y0103756D03*
X0098244Y0087220D03*
X0139386Y0038795D03*
X0162024Y0053756D03*
D30*
X0206118Y0099425D01*
X0206118Y0122457D01*
X0227378Y0141551D02*
X0227378Y0147457D01*
X0232890Y0147457D02*
X0232890Y0153362D01*
X0238402Y0157693D02*
X0238402Y0147457D01*
X0238402Y0143126D01*
X0236827Y0141551D01*
X0232890Y0141551D01*
X0238402Y0157693D02*
X0232890Y0163205D01*
X0232890Y0173638D01*
X0223441Y0183087D01*
X0218323Y0186827D02*
X0214583Y0190567D01*
X0213205Y0190567D01*
X0218323Y0186827D02*
X0218323Y0175016D01*
X0213205Y0175409D02*
X0213205Y0183087D01*
X0213205Y0175409D02*
X0212811Y0175016D01*
X0198244Y0067142D02*
X0193126Y0061236D01*
X0191551Y0061236D01*
X0171644Y0047627D02*
X0164831Y0047627D01*
X0164283Y0048175D01*
X0147768Y0042552D02*
X0145800Y0040583D01*
X0145800Y0032876D01*
D31*
X0216354Y0112811D03*
D32*
X0090764Y0096669D03*
X0089189Y0108874D03*
M02*
