G75*
%MOIN*%
%OFA0B0*%
%FSLAX25Y25*%
%IPPOS*%
%LPD*%
%AMOC8*
5,1,8,0,0,1.08239X$1,22.5*
%
%ADD10C,0.00600*%
%ADD11R,0.04724X0.03150*%
%ADD12R,0.03150X0.04724*%
%ADD13OC8,0.06600*%
%ADD14R,0.04803X0.03602*%
%ADD15R,0.03937X0.03150*%
%ADD16R,0.03150X0.03937*%
%ADD17R,0.05906X0.01969*%
%ADD18R,0.01969X0.05906*%
%ADD19R,0.05906X0.05906*%
%ADD20C,0.03937*%
%ADD21R,0.07874X0.11811*%
%ADD22R,0.03937X0.03937*%
%ADD23C,0.03937*%
%ADD24R,0.07480X0.01969*%
%ADD25C,0.01575*%
%ADD26C,0.05512*%
%ADD27C,0.04331*%
%ADD28C,0.04724*%
%ADD29C,0.05118*%
%ADD30C,0.01181*%
D10*
X0041449Y0175753D02*
X0041449Y0180023D01*
X0043584Y0182158D01*
X0045719Y0180023D01*
X0045719Y0175753D01*
X0047894Y0175753D02*
X0051097Y0175753D01*
X0052165Y0176820D01*
X0052165Y0181091D01*
X0051097Y0182158D01*
X0047894Y0182158D01*
X0047894Y0175753D01*
X0045719Y0178955D02*
X0041449Y0178955D01*
X0047351Y0187564D02*
X0046283Y0188631D01*
X0047351Y0187564D02*
X0049486Y0187564D01*
X0050553Y0188631D01*
X0050553Y0189699D01*
X0049486Y0190767D01*
X0047351Y0190767D01*
X0046283Y0191834D01*
X0046283Y0192902D01*
X0047351Y0193969D01*
X0049486Y0193969D01*
X0050553Y0192902D01*
X0052729Y0193969D02*
X0052729Y0187564D01*
X0052729Y0189699D02*
X0056999Y0193969D01*
X0059174Y0190767D02*
X0063444Y0190767D01*
X0065620Y0190767D02*
X0067755Y0190767D01*
X0069890Y0193969D02*
X0065620Y0193969D01*
X0065620Y0187564D01*
X0069890Y0187564D01*
X0067211Y0182158D02*
X0065076Y0182158D01*
X0064008Y0181091D01*
X0064008Y0176820D01*
X0068278Y0181091D01*
X0068278Y0176820D01*
X0067211Y0175753D01*
X0065076Y0175753D01*
X0064008Y0176820D01*
X0061853Y0176820D02*
X0061853Y0175753D01*
X0060785Y0175753D01*
X0060785Y0176820D01*
X0061853Y0176820D01*
X0058610Y0175753D02*
X0054340Y0175753D01*
X0058610Y0180023D01*
X0058610Y0181091D01*
X0057543Y0182158D01*
X0055407Y0182158D01*
X0054340Y0181091D01*
X0056999Y0187564D02*
X0053796Y0190767D01*
X0067211Y0182158D02*
X0068278Y0181091D01*
X0070454Y0180023D02*
X0072589Y0175753D01*
X0074724Y0180023D01*
D11*
X0195528Y0101236D03*
X0204189Y0097496D03*
X0204189Y0104976D03*
D12*
X0200803Y0123441D03*
X0208283Y0123441D03*
X0204543Y0132102D03*
X0104346Y0045488D03*
X0096866Y0045488D03*
X0100606Y0054150D03*
X0051827Y0144071D03*
X0044346Y0144071D03*
X0048087Y0152732D03*
D13*
X0206512Y0155331D03*
X0206512Y0147457D03*
D14*
X0239976Y0146906D03*
X0239976Y0159819D03*
X0179740Y0057850D03*
X0179740Y0044937D03*
D15*
X0178953Y0067535D03*
X0178953Y0073047D03*
X0210449Y0099425D03*
X0210449Y0104937D03*
X0230134Y0140764D03*
X0230134Y0146276D03*
X0084465Y0062811D03*
X0084465Y0057299D03*
D16*
G36*
X0105821Y0076468D02*
X0103593Y0078696D01*
X0106375Y0081478D01*
X0108603Y0079250D01*
X0105821Y0076468D01*
G37*
G36*
X0101924Y0080365D02*
X0099696Y0082593D01*
X0102478Y0085375D01*
X0104706Y0083147D01*
X0101924Y0080365D01*
G37*
X0201787Y0117142D03*
X0207299Y0117142D03*
D17*
X0162417Y0089189D03*
X0162417Y0086039D03*
X0162417Y0082890D03*
X0162417Y0079740D03*
X0162417Y0076591D03*
X0162417Y0073441D03*
X0162417Y0070291D03*
X0162417Y0067142D03*
X0162417Y0063992D03*
X0162417Y0060843D03*
X0162417Y0057693D03*
X0116748Y0057693D03*
X0116748Y0060843D03*
X0116748Y0063992D03*
X0116748Y0067142D03*
X0116748Y0070291D03*
X0116748Y0073441D03*
X0116748Y0076591D03*
X0116748Y0079740D03*
X0116748Y0082890D03*
X0116748Y0086039D03*
X0116748Y0089189D03*
D18*
X0123835Y0096276D03*
X0126984Y0096276D03*
X0130134Y0096276D03*
X0133283Y0096276D03*
X0136433Y0096276D03*
X0139583Y0096276D03*
X0142732Y0096276D03*
X0145882Y0096276D03*
X0149031Y0096276D03*
X0152181Y0096276D03*
X0155331Y0096276D03*
X0155331Y0050606D03*
X0152181Y0050606D03*
X0149031Y0050606D03*
X0145882Y0050606D03*
X0142732Y0050606D03*
X0139583Y0050606D03*
X0136433Y0050606D03*
X0133283Y0050606D03*
X0130134Y0050606D03*
X0126984Y0050606D03*
X0123835Y0050606D03*
D19*
X0077654Y0109898D03*
X0077654Y0119898D03*
X0067654Y0119898D03*
X0067654Y0109898D03*
X0067654Y0129898D03*
X0077654Y0129898D03*
D20*
X0023441Y0132201D02*
X0019504Y0132201D01*
X0019504Y0137122D02*
X0023441Y0137122D01*
X0023441Y0142043D02*
X0019504Y0142043D01*
X0019504Y0146965D02*
X0023441Y0146965D01*
X0255724Y0146965D02*
X0259661Y0146965D01*
X0259661Y0142043D02*
X0255724Y0142043D01*
X0255724Y0137122D02*
X0259661Y0137122D01*
X0259661Y0132201D02*
X0255724Y0132201D01*
D21*
X0234465Y0176197D03*
X0202969Y0176197D03*
D22*
X0072654Y0147457D03*
D23*
X0072654Y0155331D03*
D24*
X0132299Y0042535D03*
X0132299Y0038795D03*
X0132299Y0035055D03*
D25*
X0075803Y0071013D02*
X0071487Y0071013D01*
X0072987Y0069440D02*
X0075803Y0069440D01*
X0075803Y0069430D02*
X0076462Y0067838D01*
X0077681Y0066620D01*
X0079272Y0065961D01*
X0079912Y0065961D01*
X0080921Y0064217D01*
X0080921Y0061128D01*
X0078899Y0064203D01*
X0078899Y0064203D01*
X0077386Y0065473D01*
X0077385Y0065474D01*
X0073372Y0069036D01*
X0065968Y0076801D01*
X0059469Y0085339D01*
X0053955Y0094543D01*
X0049494Y0104302D01*
X0046142Y0114494D01*
X0044894Y0119714D01*
X0044894Y0119714D01*
X0044872Y0119819D01*
X0044752Y0120393D01*
X0044752Y0120393D01*
X0044514Y0121526D01*
X0042806Y0124810D01*
X0040276Y0127512D01*
X0037112Y0129433D01*
X0033547Y0130431D01*
X0032390Y0130431D01*
X0032390Y0130431D01*
X0026543Y0130431D01*
X0026984Y0131496D01*
X0026984Y0132906D01*
X0026445Y0134208D01*
X0025991Y0134661D01*
X0026445Y0135115D01*
X0026984Y0136417D01*
X0026984Y0137827D01*
X0026445Y0139129D01*
X0026142Y0139432D01*
X0026358Y0139649D01*
X0026769Y0140264D01*
X0027052Y0140948D01*
X0027197Y0141673D01*
X0027197Y0142043D01*
X0021473Y0142043D01*
X0021473Y0142043D01*
X0027197Y0142043D01*
X0027197Y0142413D01*
X0027052Y0143139D01*
X0026769Y0143822D01*
X0026358Y0144438D01*
X0026142Y0144654D01*
X0026445Y0144957D01*
X0026984Y0146260D01*
X0026984Y0147669D01*
X0026445Y0148972D01*
X0025448Y0149968D01*
X0024146Y0150508D01*
X0023510Y0150508D01*
X0024180Y0150918D01*
X0024180Y0150918D01*
X0026764Y0153752D01*
X0026764Y0153752D01*
X0028455Y0157194D01*
X0028667Y0158399D01*
X0028741Y0158821D01*
X0028787Y0159082D01*
X0029954Y0164831D01*
X0033178Y0176106D01*
X0037559Y0186985D01*
X0043048Y0197348D01*
X0049586Y0207084D01*
X0057102Y0216086D01*
X0061201Y0220281D01*
X0061201Y0220281D01*
X0061202Y0220282D01*
X0062191Y0221126D01*
X0064453Y0222403D01*
X0066965Y0223063D01*
X0068263Y0223147D01*
X0078560Y0223147D01*
X0080145Y0223022D01*
X0083161Y0222042D01*
X0085726Y0220178D01*
X0087590Y0217612D01*
X0088570Y0214596D01*
X0088695Y0213010D01*
X0088695Y0210210D01*
X0088615Y0208937D01*
X0087981Y0206471D01*
X0086752Y0204242D01*
X0085006Y0202388D01*
X0083973Y0201641D01*
X0082225Y0200537D01*
X0079552Y0197383D01*
X0077946Y0193573D01*
X0077555Y0189458D01*
X0077841Y0188114D01*
X0077848Y0188081D01*
X0077830Y0188051D01*
X0077991Y0187407D01*
X0088474Y0138089D01*
X0088640Y0137042D01*
X0088695Y0135982D01*
X0088695Y0121745D01*
X0089695Y0118177D01*
X0089695Y0118177D01*
X0091619Y0115010D01*
X0092466Y0114219D01*
X0092466Y0114219D01*
X0092973Y0113745D01*
X0093864Y0112798D01*
X0094626Y0111745D01*
X0094626Y0111745D01*
X0095729Y0109995D01*
X0095729Y0109995D01*
X0098884Y0107317D01*
X0102696Y0105707D01*
X0106815Y0105315D01*
X0108838Y0105745D01*
X0109517Y0105889D01*
X0109517Y0105889D01*
X0138717Y0112096D01*
X0139765Y0112262D01*
X0140824Y0112317D01*
X0179120Y0112317D01*
X0183183Y0113637D01*
X0186639Y0116148D01*
X0186639Y0116148D01*
X0186639Y0116148D01*
X0189150Y0119604D01*
X0189150Y0119604D01*
X0190470Y0123667D01*
X0190470Y0213010D01*
X0190595Y0214596D01*
X0191575Y0217612D01*
X0193439Y0220178D01*
X0196005Y0222042D01*
X0199021Y0223022D01*
X0200606Y0223147D01*
X0210902Y0223147D01*
X0212200Y0223063D01*
X0214712Y0222403D01*
X0216974Y0221126D01*
X0217964Y0220281D01*
X0217965Y0220281D01*
X0222064Y0216086D01*
X0229580Y0207084D01*
X0236118Y0197348D01*
X0241607Y0186985D01*
X0245987Y0176106D01*
X0249211Y0164831D01*
X0250378Y0159083D01*
X0250378Y0159082D01*
X0250711Y0157194D01*
X0252402Y0153752D01*
X0254985Y0150918D01*
X0255655Y0150508D01*
X0255020Y0150508D01*
X0253717Y0149968D01*
X0252721Y0148972D01*
X0252181Y0147669D01*
X0252181Y0146260D01*
X0252721Y0144957D01*
X0253174Y0144504D01*
X0253076Y0144405D01*
X0245817Y0144405D01*
X0243953Y0146270D01*
X0243953Y0149359D01*
X0243030Y0150281D01*
X0236922Y0150281D01*
X0236066Y0149425D01*
X0234667Y0149425D01*
X0233880Y0148638D01*
X0233542Y0148638D01*
X0232755Y0149425D01*
X0227513Y0149425D01*
X0227344Y0149256D01*
X0224622Y0151978D01*
X0224622Y0155559D01*
X0224713Y0155596D01*
X0225931Y0156815D01*
X0226591Y0158406D01*
X0226591Y0160129D01*
X0225931Y0161721D01*
X0224713Y0162939D01*
X0223121Y0163598D01*
X0221398Y0163598D01*
X0219807Y0162939D01*
X0218588Y0161721D01*
X0217929Y0160129D01*
X0217929Y0158406D01*
X0218588Y0156815D01*
X0219807Y0155596D01*
X0219898Y0155559D01*
X0219898Y0150022D01*
X0223644Y0146276D01*
X0219110Y0141742D01*
X0219110Y0125601D01*
X0210449Y0116939D01*
X0210449Y0117738D01*
X0210646Y0117935D01*
X0210646Y0118301D01*
X0210824Y0118622D01*
X0210646Y0119244D01*
X0210646Y0119639D01*
X0211433Y0120426D01*
X0211433Y0122429D01*
X0212607Y0123047D01*
X0213002Y0123047D01*
X0213441Y0123486D01*
X0213990Y0123775D01*
X0214107Y0124152D01*
X0215364Y0125409D01*
X0216748Y0126793D01*
X0216748Y0140329D01*
X0216842Y0140446D01*
X0216748Y0141288D01*
X0216748Y0142136D01*
X0216642Y0142242D01*
X0216626Y0142391D01*
X0215964Y0142920D01*
X0215364Y0143520D01*
X0215214Y0143520D01*
X0211387Y0146582D01*
X0211387Y0149476D01*
X0209619Y0151243D01*
X0211599Y0153223D01*
X0211599Y0155331D01*
X0211599Y0157438D01*
X0208619Y0160418D01*
X0206512Y0160418D01*
X0206512Y0155331D01*
X0206512Y0155331D01*
X0211599Y0155331D01*
X0206512Y0155331D01*
X0206512Y0155331D01*
X0206512Y0160418D01*
X0204405Y0160418D01*
X0201424Y0157438D01*
X0201424Y0155331D01*
X0206512Y0155331D01*
X0206512Y0155331D01*
X0201424Y0155331D01*
X0201424Y0153223D01*
X0203404Y0151243D01*
X0201637Y0149476D01*
X0201637Y0145437D01*
X0204493Y0142582D01*
X0208531Y0142582D01*
X0208661Y0142712D01*
X0209620Y0141945D01*
X0208013Y0141945D01*
X0206421Y0141286D01*
X0205203Y0140067D01*
X0204543Y0138476D01*
X0204543Y0137018D01*
X0201000Y0140561D01*
X0201000Y0168717D01*
X0205560Y0168717D01*
X0207299Y0166363D01*
X0207299Y0166163D01*
X0207867Y0165596D01*
X0208343Y0164951D01*
X0208541Y0164921D01*
X0208683Y0164780D01*
X0209485Y0164780D01*
X0210279Y0164661D01*
X0210440Y0164780D01*
X0214614Y0164780D01*
X0214651Y0164689D01*
X0215870Y0163470D01*
X0217461Y0162811D01*
X0219184Y0162811D01*
X0220776Y0163470D01*
X0221994Y0164689D01*
X0222654Y0166280D01*
X0222654Y0168003D01*
X0221994Y0169595D01*
X0220776Y0170813D01*
X0219184Y0171472D01*
X0217461Y0171472D01*
X0215870Y0170813D01*
X0214651Y0169595D01*
X0214614Y0169504D01*
X0210853Y0169504D01*
X0208480Y0172714D01*
X0208480Y0182755D01*
X0207558Y0183677D01*
X0198379Y0183677D01*
X0197457Y0182755D01*
X0197457Y0172027D01*
X0196791Y0170997D01*
X0196276Y0170482D01*
X0196276Y0170202D01*
X0196123Y0169966D01*
X0196276Y0169254D01*
X0196276Y0138604D01*
X0197659Y0137220D01*
X0201394Y0133486D01*
X0201394Y0129088D01*
X0202316Y0128165D01*
X0206770Y0128165D01*
X0207693Y0129088D01*
X0207693Y0132288D01*
X0208475Y0133283D01*
X0209735Y0133283D01*
X0211327Y0133943D01*
X0212024Y0134639D01*
X0212024Y0128750D01*
X0210607Y0127333D01*
X0210573Y0127315D01*
X0210511Y0127378D01*
X0206056Y0127378D01*
X0205134Y0126455D01*
X0205134Y0120685D01*
X0205072Y0120685D01*
X0204543Y0120156D01*
X0204015Y0120685D01*
X0203953Y0120685D01*
X0203953Y0126455D01*
X0203030Y0127378D01*
X0198576Y0127378D01*
X0197654Y0126455D01*
X0197654Y0120426D01*
X0198441Y0119639D01*
X0198441Y0119504D01*
X0195691Y0119504D01*
X0195653Y0119466D01*
X0195562Y0119504D01*
X0193839Y0119504D01*
X0192248Y0118845D01*
X0191029Y0117626D01*
X0190370Y0116035D01*
X0190370Y0114312D01*
X0191029Y0112720D01*
X0192120Y0111630D01*
X0191754Y0111630D01*
X0190370Y0110246D01*
X0186242Y0106118D01*
X0158289Y0106118D01*
X0156906Y0104734D01*
X0153187Y0101016D01*
X0152181Y0101016D01*
X0150962Y0101016D01*
X0150507Y0100894D01*
X0150350Y0100803D01*
X0148218Y0100803D01*
X0149053Y0101637D01*
X0149622Y0103012D01*
X0149622Y0104500D01*
X0149053Y0105875D01*
X0148001Y0106927D01*
X0146626Y0107496D01*
X0145138Y0107496D01*
X0143763Y0106927D01*
X0142955Y0106118D01*
X0119317Y0106118D01*
X0118557Y0106252D01*
X0118366Y0106118D01*
X0118132Y0106118D01*
X0117586Y0105572D01*
X0113961Y0103035D01*
X0113828Y0102968D01*
X0107108Y0102968D01*
X0105724Y0101585D01*
X0105140Y0101000D01*
X0098435Y0101000D01*
X0092755Y0106680D01*
X0093323Y0108052D01*
X0093323Y0109696D01*
X0092693Y0111216D01*
X0091531Y0112379D01*
X0090011Y0113008D01*
X0088367Y0113008D01*
X0086847Y0112379D01*
X0085684Y0111216D01*
X0085055Y0109696D01*
X0085055Y0108052D01*
X0085684Y0106532D01*
X0086847Y0105370D01*
X0087764Y0104990D01*
X0092209Y0100545D01*
X0091586Y0100803D01*
X0089941Y0100803D01*
X0088422Y0100174D01*
X0087259Y0099011D01*
X0086630Y0097492D01*
X0086630Y0095847D01*
X0086888Y0095225D01*
X0080016Y0102097D01*
X0080016Y0105370D01*
X0081259Y0105370D01*
X0082181Y0106293D01*
X0082181Y0108762D01*
X0082339Y0108919D01*
X0086827Y0113407D01*
X0086827Y0136624D01*
X0085443Y0138008D01*
X0076197Y0147254D01*
X0076197Y0150077D01*
X0075274Y0151000D01*
X0070033Y0151000D01*
X0069110Y0150077D01*
X0069110Y0144836D01*
X0070033Y0143913D01*
X0072856Y0143913D01*
X0082102Y0134667D01*
X0082102Y0133834D01*
X0082037Y0133948D01*
X0081704Y0134281D01*
X0081296Y0134516D01*
X0080842Y0134638D01*
X0077850Y0134638D01*
X0077850Y0130095D01*
X0077457Y0130095D01*
X0077457Y0134638D01*
X0074465Y0134638D01*
X0074011Y0134516D01*
X0073603Y0134281D01*
X0073271Y0133948D01*
X0073035Y0133540D01*
X0072913Y0133086D01*
X0072913Y0130094D01*
X0077457Y0130094D01*
X0077457Y0129701D01*
X0077850Y0129701D01*
X0077850Y0125157D01*
X0080842Y0125157D01*
X0081296Y0125279D01*
X0081704Y0125515D01*
X0082037Y0125847D01*
X0082102Y0125961D01*
X0082102Y0123581D01*
X0081259Y0124425D01*
X0074048Y0124425D01*
X0073126Y0123503D01*
X0073126Y0117766D01*
X0072181Y0118711D01*
X0072181Y0123503D01*
X0071259Y0124425D01*
X0064048Y0124425D01*
X0063126Y0123503D01*
X0063126Y0116293D01*
X0064048Y0115370D01*
X0068840Y0115370D01*
X0069785Y0114425D01*
X0064048Y0114425D01*
X0063126Y0113503D01*
X0063126Y0110167D01*
X0059661Y0106703D01*
X0059661Y0096478D01*
X0061045Y0095094D01*
X0062226Y0093913D01*
X0064220Y0093913D01*
X0063598Y0092413D01*
X0063598Y0090690D01*
X0064258Y0089098D01*
X0065476Y0087880D01*
X0067068Y0087220D01*
X0068791Y0087220D01*
X0070382Y0087880D01*
X0071093Y0088590D01*
X0101596Y0058087D01*
X0098379Y0058087D01*
X0097457Y0057164D01*
X0097457Y0051135D01*
X0098379Y0050213D01*
X0102531Y0050213D01*
X0103825Y0049425D01*
X0102119Y0049425D01*
X0101197Y0048503D01*
X0101197Y0042474D01*
X0101986Y0041685D01*
X0100182Y0042243D01*
X0100016Y0042852D01*
X0100016Y0048503D01*
X0099093Y0049425D01*
X0094639Y0049425D01*
X0093911Y0048697D01*
X0089189Y0051780D01*
X0089189Y0052649D01*
X0088530Y0054241D01*
X0087853Y0054917D01*
X0088008Y0055072D01*
X0088008Y0059526D01*
X0087479Y0060055D01*
X0088008Y0060584D01*
X0088008Y0065038D01*
X0087085Y0065961D01*
X0085371Y0065961D01*
X0084005Y0068320D01*
X0084465Y0069430D01*
X0084465Y0071153D01*
X0083805Y0072744D01*
X0082587Y0073963D01*
X0080995Y0074622D01*
X0079272Y0074622D01*
X0077681Y0073963D01*
X0076462Y0072744D01*
X0075803Y0071153D01*
X0075803Y0069430D01*
X0076451Y0067867D02*
X0074690Y0067867D01*
X0076462Y0066293D02*
X0078469Y0066293D01*
X0078283Y0064720D02*
X0080630Y0064720D01*
X0080921Y0063147D02*
X0079594Y0063147D01*
X0080629Y0061573D02*
X0080921Y0061573D01*
X0084465Y0062811D02*
X0080134Y0070291D01*
X0082111Y0074160D02*
X0085523Y0074160D01*
X0083950Y0075733D02*
X0066986Y0075733D01*
X0065583Y0077306D02*
X0082376Y0077306D01*
X0080803Y0078880D02*
X0064386Y0078880D01*
X0063188Y0080453D02*
X0079230Y0080453D01*
X0077657Y0082026D02*
X0061990Y0082026D01*
X0060793Y0083600D02*
X0076083Y0083600D01*
X0074510Y0085173D02*
X0059595Y0085173D01*
X0058626Y0086746D02*
X0072937Y0086746D01*
X0071363Y0088320D02*
X0070822Y0088320D01*
X0071472Y0091551D02*
X0067929Y0091551D01*
X0071472Y0091551D02*
X0109268Y0053756D01*
X0117929Y0053756D01*
X0120685Y0051000D01*
X0120685Y0045882D01*
X0121866Y0044701D01*
X0125803Y0044701D01*
X0126984Y0045882D01*
X0126984Y0050606D01*
X0130134Y0050606D02*
X0130134Y0056512D01*
X0129740Y0056906D01*
X0123835Y0056906D01*
X0123835Y0070291D01*
X0116748Y0070291D01*
X0108480Y0070291D01*
X0087220Y0091551D01*
X0105331Y0091551D01*
X0110843Y0086039D01*
X0116748Y0086039D01*
X0123441Y0086039D01*
X0123835Y0086433D01*
X0123835Y0096276D01*
X0121276Y0096186D02*
X0107973Y0096186D01*
X0107490Y0096669D02*
X0107490Y0096669D01*
X0109065Y0098244D01*
X0114002Y0098244D01*
X0114567Y0098056D01*
X0114943Y0098244D01*
X0115364Y0098244D01*
X0115639Y0098519D01*
X0115726Y0098504D01*
X0116385Y0098965D01*
X0117105Y0099325D01*
X0117167Y0099512D01*
X0119855Y0101394D01*
X0142955Y0101394D01*
X0143545Y0100803D01*
X0128816Y0100803D01*
X0128658Y0100894D01*
X0128204Y0101016D01*
X0126984Y0101016D01*
X0125765Y0101016D01*
X0125310Y0100894D01*
X0125153Y0100803D01*
X0122198Y0100803D01*
X0121276Y0099881D01*
X0121276Y0092671D01*
X0121472Y0092474D01*
X0121472Y0088402D01*
X0121276Y0088402D01*
X0121276Y0090826D01*
X0120353Y0091748D01*
X0113143Y0091748D01*
X0112946Y0091551D01*
X0112608Y0091551D01*
X0108874Y0095286D01*
X0107490Y0096669D01*
X0108581Y0097760D02*
X0121276Y0097760D01*
X0121276Y0099333D02*
X0117107Y0099333D01*
X0115173Y0101000D02*
X0114386Y0100606D01*
X0108087Y0100606D01*
X0106118Y0098638D01*
X0097457Y0098638D01*
X0089189Y0106906D01*
X0089583Y0107299D01*
X0089189Y0108874D01*
X0085408Y0107199D02*
X0082181Y0107199D01*
X0082192Y0108773D02*
X0085055Y0108773D01*
X0085324Y0110346D02*
X0083766Y0110346D01*
X0085339Y0111919D02*
X0086388Y0111919D01*
X0086827Y0113493D02*
X0093210Y0113493D01*
X0092973Y0113745D02*
X0092973Y0113745D01*
X0091619Y0115010D02*
X0091619Y0115010D01*
X0091585Y0115066D02*
X0086827Y0115066D01*
X0086827Y0116639D02*
X0090629Y0116639D01*
X0089684Y0118213D02*
X0086827Y0118213D01*
X0086827Y0119786D02*
X0089244Y0119786D01*
X0088803Y0121359D02*
X0086827Y0121359D01*
X0086827Y0122933D02*
X0088695Y0122933D01*
X0088695Y0124506D02*
X0086827Y0124506D01*
X0086827Y0126079D02*
X0088695Y0126079D01*
X0088695Y0127653D02*
X0086827Y0127653D01*
X0086827Y0129226D02*
X0088695Y0129226D01*
X0088695Y0130799D02*
X0086827Y0130799D01*
X0086827Y0132373D02*
X0088695Y0132373D01*
X0088695Y0133946D02*
X0086827Y0133946D01*
X0086827Y0135519D02*
X0088695Y0135519D01*
X0088632Y0137092D02*
X0086358Y0137092D01*
X0084785Y0138666D02*
X0088351Y0138666D01*
X0088017Y0140239D02*
X0083212Y0140239D01*
X0081638Y0141812D02*
X0087682Y0141812D01*
X0087348Y0143386D02*
X0080065Y0143386D01*
X0078492Y0144959D02*
X0087014Y0144959D01*
X0086679Y0146532D02*
X0076919Y0146532D01*
X0076197Y0148106D02*
X0086345Y0148106D01*
X0086010Y0149679D02*
X0076197Y0149679D01*
X0074661Y0152327D02*
X0075657Y0153324D01*
X0076197Y0154626D01*
X0076197Y0156036D01*
X0075657Y0157338D01*
X0074661Y0158335D01*
X0073358Y0158874D01*
X0071949Y0158874D01*
X0070646Y0158335D01*
X0070005Y0157693D01*
X0049707Y0157693D01*
X0048683Y0156669D01*
X0045859Y0156669D01*
X0044937Y0155747D01*
X0044937Y0149718D01*
X0045859Y0148795D01*
X0050314Y0148795D01*
X0051236Y0149718D01*
X0051236Y0152541D01*
X0051663Y0152969D01*
X0070005Y0152969D01*
X0070646Y0152327D01*
X0071949Y0151787D01*
X0073358Y0151787D01*
X0074661Y0152327D01*
X0075159Y0152826D02*
X0085342Y0152826D01*
X0085007Y0154399D02*
X0076103Y0154399D01*
X0076197Y0155972D02*
X0084673Y0155972D01*
X0084338Y0157546D02*
X0075450Y0157546D01*
X0072654Y0155331D02*
X0050685Y0155331D01*
X0048087Y0152732D01*
X0044937Y0152826D02*
X0025919Y0152826D01*
X0027081Y0154399D02*
X0044937Y0154399D01*
X0045162Y0155972D02*
X0027854Y0155972D01*
X0028455Y0157194D02*
X0028455Y0157194D01*
X0028517Y0157546D02*
X0049559Y0157546D01*
X0051521Y0152826D02*
X0070148Y0152826D01*
X0069110Y0149679D02*
X0051197Y0149679D01*
X0051236Y0151252D02*
X0085676Y0151252D01*
X0084004Y0159119D02*
X0028794Y0159119D01*
X0028667Y0158399D02*
X0028667Y0158399D01*
X0029114Y0160692D02*
X0083669Y0160692D01*
X0083335Y0162265D02*
X0029433Y0162265D01*
X0029753Y0163839D02*
X0083001Y0163839D01*
X0082666Y0165412D02*
X0030120Y0165412D01*
X0030570Y0166985D02*
X0082332Y0166985D01*
X0081997Y0168559D02*
X0031020Y0168559D01*
X0031470Y0170132D02*
X0081663Y0170132D01*
X0081329Y0171705D02*
X0031920Y0171705D01*
X0032370Y0173279D02*
X0080994Y0173279D01*
X0080660Y0174852D02*
X0074265Y0174852D01*
X0074325Y0175033D02*
X0076748Y0179879D01*
X0076257Y0181353D01*
X0074868Y0182047D01*
X0073394Y0181556D01*
X0072589Y0179945D01*
X0071783Y0181556D01*
X0070310Y0182047D01*
X0070085Y0181935D01*
X0069484Y0182537D01*
X0069055Y0182965D01*
X0068699Y0183322D01*
X0067987Y0184033D01*
X0064299Y0184033D01*
X0063201Y0182935D01*
X0062133Y0181867D01*
X0062133Y0178695D01*
X0060009Y0178695D01*
X0058941Y0177628D01*
X0058866Y0177628D01*
X0059387Y0178148D01*
X0060485Y0179246D01*
X0060485Y0181867D01*
X0059753Y0182600D01*
X0059387Y0182965D01*
X0059387Y0182965D01*
X0059052Y0183301D01*
X0058319Y0184033D01*
X0054631Y0184033D01*
X0053252Y0182654D01*
X0052941Y0182965D01*
X0052606Y0183301D01*
X0051874Y0184033D01*
X0047118Y0184033D01*
X0046020Y0182935D01*
X0046020Y0182374D01*
X0044361Y0184033D01*
X0042807Y0184033D01*
X0041709Y0182935D01*
X0039574Y0180800D01*
X0039574Y0178179D01*
X0039574Y0174976D01*
X0040672Y0173878D01*
X0042225Y0173878D01*
X0043324Y0174976D01*
X0043324Y0177081D01*
X0043844Y0177081D01*
X0043844Y0174976D01*
X0044943Y0173878D01*
X0046496Y0173878D01*
X0046807Y0174189D01*
X0047118Y0173878D01*
X0051874Y0173878D01*
X0052585Y0174589D01*
X0052718Y0174723D01*
X0053563Y0173878D01*
X0059387Y0173878D01*
X0059698Y0174189D01*
X0060009Y0173878D01*
X0062629Y0173878D01*
X0063464Y0174713D01*
X0064299Y0173878D01*
X0067987Y0173878D01*
X0068720Y0174610D01*
X0069055Y0174946D01*
X0069421Y0175311D01*
X0070153Y0176044D01*
X0070153Y0176432D01*
X0070852Y0175033D01*
X0071056Y0174423D01*
X0071191Y0174355D01*
X0071259Y0174220D01*
X0071869Y0174016D01*
X0072445Y0173729D01*
X0072589Y0173777D01*
X0072733Y0173729D01*
X0073308Y0174016D01*
X0073918Y0174220D01*
X0073986Y0174355D01*
X0074122Y0174423D01*
X0074325Y0175033D01*
X0075021Y0176425D02*
X0080325Y0176425D01*
X0079991Y0177999D02*
X0075808Y0177999D01*
X0076594Y0179572D02*
X0079656Y0179572D01*
X0079322Y0181145D02*
X0076326Y0181145D01*
X0078988Y0182719D02*
X0069302Y0182719D01*
X0069055Y0182965D02*
X0069055Y0182965D01*
X0070666Y0185689D02*
X0064843Y0185689D01*
X0063745Y0186787D01*
X0063745Y0188892D01*
X0058397Y0188892D01*
X0057299Y0189990D01*
X0057299Y0191543D01*
X0058397Y0192641D01*
X0063745Y0192641D01*
X0063745Y0194746D01*
X0064843Y0195844D01*
X0070666Y0195844D01*
X0071765Y0194746D01*
X0071765Y0193193D01*
X0070666Y0192094D01*
X0069078Y0192094D01*
X0069629Y0191543D01*
X0069629Y0189990D01*
X0069078Y0189439D01*
X0070666Y0189439D01*
X0071765Y0188340D01*
X0071765Y0186787D01*
X0070666Y0185689D01*
X0070843Y0185865D02*
X0078319Y0185865D01*
X0078653Y0184292D02*
X0036474Y0184292D01*
X0037108Y0185865D02*
X0046398Y0185865D01*
X0046574Y0185689D02*
X0050262Y0185689D01*
X0050995Y0186421D01*
X0051107Y0186534D01*
X0051952Y0185689D01*
X0053505Y0185689D01*
X0054603Y0186787D01*
X0054603Y0187308D01*
X0056222Y0185689D01*
X0057775Y0185689D01*
X0058874Y0186787D01*
X0058874Y0188340D01*
X0056447Y0190766D01*
X0058874Y0193193D01*
X0058874Y0194746D01*
X0057775Y0195844D01*
X0056222Y0195844D01*
X0054603Y0194225D01*
X0054603Y0194746D01*
X0053505Y0195844D01*
X0051952Y0195844D01*
X0051107Y0194999D01*
X0050995Y0195112D01*
X0050262Y0195844D01*
X0046574Y0195844D01*
X0045506Y0194776D01*
X0044408Y0193678D01*
X0044408Y0191058D01*
X0045120Y0190346D01*
X0045233Y0190233D01*
X0044408Y0189408D01*
X0044408Y0187855D01*
X0046574Y0185689D01*
X0044824Y0187439D02*
X0037799Y0187439D01*
X0038632Y0189012D02*
X0044408Y0189012D01*
X0044881Y0190585D02*
X0039465Y0190585D01*
X0040299Y0192158D02*
X0044408Y0192158D01*
X0044462Y0193732D02*
X0041132Y0193732D01*
X0041965Y0195305D02*
X0046035Y0195305D01*
X0042799Y0196878D02*
X0079340Y0196878D01*
X0078676Y0195305D02*
X0071205Y0195305D01*
X0071765Y0193732D02*
X0078013Y0193732D01*
X0077812Y0192158D02*
X0070730Y0192158D01*
X0069629Y0190585D02*
X0077662Y0190585D01*
X0077650Y0189012D02*
X0071093Y0189012D01*
X0071765Y0187439D02*
X0077983Y0187439D01*
X0077841Y0188114D02*
X0077841Y0188114D01*
X0073189Y0181145D02*
X0071989Y0181145D01*
X0070156Y0176425D02*
X0070153Y0176425D01*
X0070913Y0174852D02*
X0068961Y0174852D01*
X0069055Y0174946D02*
X0069055Y0174946D01*
X0062133Y0179572D02*
X0060485Y0179572D01*
X0060485Y0181145D02*
X0062133Y0181145D01*
X0062985Y0182719D02*
X0059634Y0182719D01*
X0057952Y0185865D02*
X0064667Y0185865D01*
X0063745Y0187439D02*
X0058874Y0187439D01*
X0058277Y0189012D02*
X0058202Y0189012D01*
X0057299Y0190585D02*
X0056629Y0190585D01*
X0057839Y0192158D02*
X0057915Y0192158D01*
X0058874Y0193732D02*
X0063745Y0193732D01*
X0064304Y0195305D02*
X0058314Y0195305D01*
X0055683Y0195305D02*
X0054044Y0195305D01*
X0051413Y0195305D02*
X0050801Y0195305D01*
X0044845Y0200025D02*
X0081792Y0200025D01*
X0082225Y0200537D02*
X0082225Y0200537D01*
X0083906Y0201598D02*
X0045902Y0201598D01*
X0046958Y0203172D02*
X0085744Y0203172D01*
X0087029Y0204745D02*
X0081931Y0204745D01*
X0081251Y0204487D02*
X0083939Y0205506D01*
X0085845Y0207658D01*
X0086533Y0210449D01*
X0085845Y0213240D01*
X0083939Y0215391D01*
X0081251Y0216411D01*
X0078398Y0216064D01*
X0076032Y0214431D01*
X0074697Y0211886D01*
X0074697Y0209012D01*
X0076032Y0206466D01*
X0078398Y0204834D01*
X0081251Y0204487D01*
X0081251Y0204487D01*
X0079128Y0204745D02*
X0048015Y0204745D01*
X0049071Y0206318D02*
X0076247Y0206318D01*
X0076032Y0206466D02*
X0076032Y0206466D01*
X0076032Y0206466D01*
X0075284Y0207892D02*
X0050260Y0207892D01*
X0051573Y0209465D02*
X0074697Y0209465D01*
X0074697Y0211038D02*
X0052887Y0211038D01*
X0054201Y0212612D02*
X0075077Y0212612D01*
X0075903Y0214185D02*
X0055514Y0214185D01*
X0056828Y0215758D02*
X0077955Y0215758D01*
X0076032Y0214431D02*
X0076032Y0214431D01*
X0076032Y0214431D01*
X0082972Y0215758D02*
X0088193Y0215758D01*
X0088603Y0214185D02*
X0085008Y0214185D01*
X0085845Y0213240D02*
X0085845Y0213240D01*
X0086000Y0212612D02*
X0088695Y0212612D01*
X0088695Y0211038D02*
X0086388Y0211038D01*
X0086533Y0210449D02*
X0086533Y0210449D01*
X0086291Y0209465D02*
X0088648Y0209465D01*
X0088346Y0207892D02*
X0085903Y0207892D01*
X0085845Y0207658D02*
X0085845Y0207658D01*
X0084658Y0206318D02*
X0087896Y0206318D01*
X0083939Y0205506D02*
X0083939Y0205506D01*
X0083973Y0201641D02*
X0083973Y0201641D01*
X0080458Y0198452D02*
X0043789Y0198452D01*
X0050439Y0185865D02*
X0051776Y0185865D01*
X0053681Y0185865D02*
X0056046Y0185865D01*
X0053316Y0182719D02*
X0053188Y0182719D01*
X0052941Y0182965D02*
X0052941Y0182965D01*
X0046020Y0182719D02*
X0045675Y0182719D01*
X0041493Y0182719D02*
X0035841Y0182719D01*
X0035207Y0181145D02*
X0039920Y0181145D01*
X0039574Y0179572D02*
X0034574Y0179572D01*
X0033940Y0177999D02*
X0039574Y0177999D01*
X0039574Y0176425D02*
X0033307Y0176425D01*
X0032819Y0174852D02*
X0039698Y0174852D01*
X0043199Y0174852D02*
X0043969Y0174852D01*
X0043844Y0176425D02*
X0043324Y0176425D01*
X0059237Y0177999D02*
X0059312Y0177999D01*
X0044937Y0151252D02*
X0024485Y0151252D01*
X0025738Y0149679D02*
X0044976Y0149679D01*
X0046574Y0148008D02*
X0042119Y0148008D01*
X0041197Y0147085D01*
X0041197Y0141056D01*
X0041984Y0140269D01*
X0041984Y0138959D01*
X0045488Y0135455D01*
X0046872Y0134071D01*
X0059049Y0134071D01*
X0059177Y0133943D01*
X0060768Y0133283D01*
X0062491Y0133283D01*
X0063201Y0133577D01*
X0063126Y0133503D01*
X0063126Y0126293D01*
X0064048Y0125370D01*
X0071259Y0125370D01*
X0072181Y0126293D01*
X0072181Y0133503D01*
X0071259Y0134425D01*
X0064565Y0134425D01*
X0065301Y0135161D01*
X0065961Y0136753D01*
X0065961Y0138476D01*
X0065301Y0140067D01*
X0064083Y0141286D01*
X0062491Y0141945D01*
X0060768Y0141945D01*
X0059177Y0141286D01*
X0057959Y0140067D01*
X0057432Y0138795D01*
X0048829Y0138795D01*
X0047032Y0140592D01*
X0047496Y0141056D01*
X0047496Y0147085D01*
X0046574Y0148008D01*
X0047496Y0146532D02*
X0048465Y0146532D01*
X0048465Y0146668D02*
X0048465Y0144071D01*
X0051827Y0144071D01*
X0055189Y0144071D01*
X0055189Y0146668D01*
X0055067Y0147123D01*
X0054832Y0147531D01*
X0054499Y0147863D01*
X0054091Y0148099D01*
X0053637Y0148220D01*
X0051827Y0148220D01*
X0051827Y0144071D01*
X0051827Y0144071D01*
X0051827Y0144071D01*
X0055189Y0144071D01*
X0055189Y0141473D01*
X0055067Y0141019D01*
X0054832Y0140611D01*
X0054499Y0140278D01*
X0054091Y0140043D01*
X0053637Y0139921D01*
X0051827Y0139921D01*
X0051827Y0144071D01*
X0051827Y0148220D01*
X0050017Y0148220D01*
X0049562Y0148099D01*
X0049154Y0147863D01*
X0048822Y0147531D01*
X0048586Y0147123D01*
X0048465Y0146668D01*
X0048465Y0144959D02*
X0047496Y0144959D01*
X0048465Y0144071D02*
X0048465Y0141473D01*
X0048586Y0141019D01*
X0048822Y0140611D01*
X0049154Y0140278D01*
X0049562Y0140043D01*
X0050017Y0139921D01*
X0051827Y0139921D01*
X0051827Y0144071D01*
X0051827Y0144071D01*
X0051827Y0144071D01*
X0048465Y0144071D01*
X0048465Y0143386D02*
X0047496Y0143386D01*
X0047496Y0141812D02*
X0048465Y0141812D01*
X0049223Y0140239D02*
X0047385Y0140239D01*
X0044346Y0139937D02*
X0044346Y0144071D01*
X0041197Y0143386D02*
X0026950Y0143386D01*
X0027197Y0141812D02*
X0041197Y0141812D01*
X0041984Y0140239D02*
X0026753Y0140239D01*
X0026637Y0138666D02*
X0042277Y0138666D01*
X0043850Y0137092D02*
X0026984Y0137092D01*
X0026612Y0135519D02*
X0045424Y0135519D01*
X0047850Y0136433D02*
X0060449Y0136433D01*
X0061630Y0137614D01*
X0065450Y0135519D02*
X0081250Y0135519D01*
X0082038Y0133946D02*
X0082102Y0133946D01*
X0084465Y0135646D02*
X0084465Y0114386D01*
X0079976Y0109898D01*
X0077654Y0109898D01*
X0077654Y0101118D01*
X0087220Y0091551D01*
X0086630Y0096186D02*
X0085926Y0096186D01*
X0086741Y0097760D02*
X0084353Y0097760D01*
X0082779Y0099333D02*
X0087581Y0099333D01*
X0090274Y0102480D02*
X0080016Y0102480D01*
X0080016Y0104053D02*
X0088701Y0104053D01*
X0086591Y0105626D02*
X0081515Y0105626D01*
X0081206Y0100906D02*
X0091848Y0100906D01*
X0093809Y0105626D02*
X0103548Y0105626D01*
X0102696Y0105707D02*
X0102696Y0105707D01*
X0099161Y0107199D02*
X0092970Y0107199D01*
X0093323Y0108773D02*
X0097168Y0108773D01*
X0098884Y0107317D02*
X0098884Y0107317D01*
X0095508Y0110346D02*
X0093054Y0110346D01*
X0091990Y0111919D02*
X0094500Y0111919D01*
X0095382Y0104053D02*
X0115415Y0104053D01*
X0117640Y0105626D02*
X0108279Y0105626D01*
X0106815Y0105315D02*
X0106815Y0105315D01*
X0106619Y0102480D02*
X0096956Y0102480D01*
X0092339Y0096669D02*
X0090764Y0096669D01*
X0092339Y0096669D02*
X0094701Y0094307D01*
X0106512Y0094307D01*
X0111630Y0089189D01*
X0116748Y0089189D01*
X0120635Y0091466D02*
X0121472Y0091466D01*
X0121472Y0089893D02*
X0121276Y0089893D01*
X0121276Y0093040D02*
X0111120Y0093040D01*
X0109547Y0094613D02*
X0121276Y0094613D01*
X0126984Y0094613D02*
X0126984Y0094613D01*
X0126984Y0096186D02*
X0126984Y0096186D01*
X0126984Y0096275D02*
X0126984Y0091535D01*
X0126984Y0096275D01*
X0126984Y0096275D01*
X0126984Y0096276D02*
X0126984Y0101016D01*
X0126984Y0096276D01*
X0126984Y0096276D01*
X0126984Y0097760D02*
X0126984Y0097760D01*
X0126984Y0099333D02*
X0126984Y0099333D01*
X0126984Y0100906D02*
X0126984Y0100906D01*
X0125356Y0100906D02*
X0119158Y0100906D01*
X0119110Y0103756D02*
X0145882Y0103756D01*
X0147342Y0107199D02*
X0187323Y0107199D01*
X0188897Y0108773D02*
X0123083Y0108773D01*
X0119110Y0103756D02*
X0115173Y0101000D01*
X0115681Y0107199D02*
X0144422Y0107199D01*
X0149156Y0105626D02*
X0157797Y0105626D01*
X0156224Y0104053D02*
X0149622Y0104053D01*
X0149402Y0102480D02*
X0154651Y0102480D01*
X0155331Y0099819D02*
X0159268Y0103756D01*
X0187220Y0103756D01*
X0192732Y0109268D01*
X0208874Y0109268D01*
X0211236Y0111630D01*
X0211236Y0114386D01*
X0221472Y0124622D01*
X0221472Y0140764D01*
X0226984Y0146276D01*
X0230134Y0146276D01*
X0234858Y0146276D01*
X0235646Y0147063D01*
X0239189Y0147063D01*
X0239976Y0146906D01*
X0244839Y0142043D01*
X0257693Y0142043D01*
X0257693Y0137122D02*
X0263417Y0137122D01*
X0257693Y0137122D01*
X0257693Y0137122D01*
X0251969Y0137122D01*
X0251969Y0136752D01*
X0252113Y0136026D01*
X0252396Y0135343D01*
X0252807Y0134728D01*
X0253024Y0134511D01*
X0252721Y0134208D01*
X0252181Y0132906D01*
X0252181Y0131496D01*
X0252622Y0130431D01*
X0245619Y0130431D01*
X0242054Y0129433D01*
X0242054Y0129433D01*
X0238889Y0127512D01*
X0236359Y0124810D01*
X0234651Y0121526D01*
X0234651Y0121526D01*
X0234414Y0120393D01*
X0234413Y0120393D01*
X0234271Y0119714D01*
X0233024Y0114494D01*
X0229671Y0104302D01*
X0225210Y0094543D01*
X0219697Y0085339D01*
X0213198Y0076801D01*
X0205793Y0069036D01*
X0202509Y0066121D01*
X0202575Y0066280D01*
X0202575Y0068003D01*
X0201915Y0069595D01*
X0200697Y0070813D01*
X0199106Y0071472D01*
X0197383Y0071472D01*
X0195791Y0070813D01*
X0194573Y0069595D01*
X0193913Y0068003D01*
X0193913Y0066280D01*
X0194573Y0064689D01*
X0195480Y0063781D01*
X0194903Y0063205D01*
X0193520Y0061821D01*
X0193520Y0055522D01*
X0188903Y0050905D01*
X0185100Y0049475D01*
X0185283Y0049659D01*
X0187307Y0051394D01*
X0187412Y0051394D01*
X0188039Y0052021D01*
X0188713Y0052599D01*
X0188721Y0052703D01*
X0188795Y0052777D01*
X0188795Y0053665D01*
X0188863Y0054550D01*
X0188795Y0054630D01*
X0188795Y0078762D01*
X0193700Y0083666D01*
X0192807Y0081965D01*
X0192807Y0079090D01*
X0194143Y0076545D01*
X0196508Y0074912D01*
X0199362Y0074566D01*
X0202049Y0075585D01*
X0202049Y0075585D01*
X0203955Y0077737D01*
X0204643Y0080528D01*
X0204490Y0081149D01*
X0205633Y0080006D01*
X0207225Y0079346D01*
X0208948Y0079346D01*
X0210540Y0080006D01*
X0211758Y0081224D01*
X0212417Y0082816D01*
X0212417Y0084539D01*
X0211758Y0086130D01*
X0211455Y0086433D01*
X0211856Y0086433D01*
X0212658Y0086318D01*
X0212811Y0086433D01*
X0213002Y0086433D01*
X0213575Y0087006D01*
X0215961Y0088795D01*
X0216152Y0088795D01*
X0216725Y0089368D01*
X0217373Y0089855D01*
X0217400Y0090044D01*
X0217535Y0090179D01*
X0217535Y0090990D01*
X0217650Y0091792D01*
X0217535Y0091945D01*
X0217535Y0098487D01*
X0229765Y0111458D01*
X0230397Y0111957D01*
X0230420Y0112153D01*
X0230555Y0112296D01*
X0230532Y0113101D01*
X0231661Y0122699D01*
X0232193Y0122919D01*
X0233412Y0124137D01*
X0234071Y0125729D01*
X0234071Y0127452D01*
X0233412Y0129044D01*
X0232193Y0130262D01*
X0230602Y0130921D01*
X0228879Y0130921D01*
X0227287Y0130262D01*
X0226069Y0129044D01*
X0225409Y0127452D01*
X0225409Y0125729D01*
X0226069Y0124137D01*
X0226967Y0123239D01*
X0225911Y0114257D01*
X0213992Y0101616D01*
X0213992Y0101652D01*
X0213614Y0102031D01*
X0213848Y0102265D01*
X0214083Y0102672D01*
X0214205Y0103127D01*
X0214205Y0104937D01*
X0214205Y0106747D01*
X0214083Y0107202D01*
X0213848Y0107609D01*
X0213515Y0107942D01*
X0213107Y0108177D01*
X0212653Y0108299D01*
X0211246Y0108299D01*
X0212215Y0109268D01*
X0213598Y0110651D01*
X0213598Y0113407D01*
X0223835Y0123644D01*
X0223835Y0139785D01*
X0226378Y0142329D01*
X0226378Y0140764D01*
X0230134Y0140764D01*
X0233890Y0140764D01*
X0233890Y0142574D01*
X0233768Y0143028D01*
X0233533Y0143436D01*
X0233299Y0143670D01*
X0233542Y0143913D01*
X0235837Y0143913D01*
X0236188Y0144264D01*
X0236922Y0143530D01*
X0240012Y0143530D01*
X0243860Y0139681D01*
X0252972Y0139681D01*
X0252807Y0139516D01*
X0252396Y0138901D01*
X0252113Y0138218D01*
X0251969Y0137492D01*
X0251969Y0137122D01*
X0257693Y0137122D01*
X0257693Y0137122D01*
X0262362Y0134511D02*
X0262579Y0134728D01*
X0262990Y0135343D01*
X0263273Y0136026D01*
X0263417Y0136752D01*
X0263417Y0137122D01*
X0263417Y0137492D01*
X0263273Y0138218D01*
X0262990Y0138901D01*
X0262579Y0139516D01*
X0262362Y0139733D01*
X0262665Y0140036D01*
X0263205Y0141338D01*
X0263205Y0142748D01*
X0262665Y0144050D01*
X0262212Y0144504D01*
X0262665Y0144957D01*
X0263205Y0146260D01*
X0263205Y0146769D01*
X0263904Y0146305D01*
X0265700Y0144014D01*
X0266687Y0141276D01*
X0266764Y0138366D01*
X0265923Y0135579D01*
X0264249Y0133197D01*
X0263205Y0132421D01*
X0263205Y0132906D01*
X0262665Y0134208D01*
X0262362Y0134511D01*
X0262774Y0133946D02*
X0264775Y0133946D01*
X0265881Y0135519D02*
X0263063Y0135519D01*
X0263417Y0137092D02*
X0266379Y0137092D01*
X0266756Y0138666D02*
X0263087Y0138666D01*
X0262749Y0140239D02*
X0266714Y0140239D01*
X0266494Y0141812D02*
X0263205Y0141812D01*
X0262941Y0143386D02*
X0265927Y0143386D01*
X0264959Y0144959D02*
X0262666Y0144959D01*
X0263205Y0146532D02*
X0263561Y0146532D01*
X0254985Y0150918D02*
X0254985Y0150918D01*
X0254680Y0151252D02*
X0225348Y0151252D01*
X0224622Y0152826D02*
X0253246Y0152826D01*
X0252402Y0153752D02*
X0252402Y0153752D01*
X0252084Y0154399D02*
X0224622Y0154399D01*
X0225089Y0155972D02*
X0251311Y0155972D01*
X0250711Y0157194D02*
X0250711Y0157194D01*
X0250649Y0157546D02*
X0243953Y0157546D01*
X0243953Y0157365D02*
X0243953Y0162272D01*
X0243030Y0163195D01*
X0242339Y0163195D01*
X0242339Y0168116D01*
X0242473Y0168876D01*
X0242339Y0169067D01*
X0242339Y0169301D01*
X0241793Y0169847D01*
X0239976Y0172442D01*
X0239976Y0182755D01*
X0239054Y0183677D01*
X0234465Y0183677D01*
X0234465Y0190204D01*
X0234555Y0190242D01*
X0235774Y0191460D01*
X0236433Y0193052D01*
X0236433Y0194775D01*
X0235774Y0196367D01*
X0234555Y0197585D01*
X0232964Y0198244D01*
X0231241Y0198244D01*
X0229649Y0197585D01*
X0228431Y0196367D01*
X0227772Y0194775D01*
X0227772Y0193052D01*
X0228431Y0191460D01*
X0229649Y0190242D01*
X0229740Y0190204D01*
X0229740Y0183542D01*
X0228953Y0182755D01*
X0228953Y0169639D01*
X0229875Y0168717D01*
X0236817Y0168717D01*
X0237614Y0167578D01*
X0237614Y0163195D01*
X0236922Y0163195D01*
X0236000Y0162272D01*
X0236000Y0157365D01*
X0236922Y0156443D01*
X0243030Y0156443D01*
X0243953Y0157365D01*
X0243953Y0159119D02*
X0250371Y0159119D01*
X0250051Y0160692D02*
X0243953Y0160692D01*
X0243953Y0162265D02*
X0249732Y0162265D01*
X0249413Y0163839D02*
X0242339Y0163839D01*
X0242339Y0165412D02*
X0249045Y0165412D01*
X0248595Y0166985D02*
X0242339Y0166985D01*
X0242417Y0168559D02*
X0248145Y0168559D01*
X0247695Y0170132D02*
X0241593Y0170132D01*
X0240492Y0171705D02*
X0247246Y0171705D01*
X0246796Y0173279D02*
X0239976Y0173279D01*
X0239976Y0174852D02*
X0246346Y0174852D01*
X0245859Y0176425D02*
X0239976Y0176425D01*
X0239976Y0177999D02*
X0245225Y0177999D01*
X0244592Y0179572D02*
X0239976Y0179572D01*
X0239976Y0181145D02*
X0243958Y0181145D01*
X0243325Y0182719D02*
X0239976Y0182719D01*
X0242691Y0184292D02*
X0234465Y0184292D01*
X0234465Y0185865D02*
X0242058Y0185865D01*
X0241367Y0187439D02*
X0234465Y0187439D01*
X0234465Y0189012D02*
X0240533Y0189012D01*
X0239700Y0190585D02*
X0234899Y0190585D01*
X0236063Y0192158D02*
X0238867Y0192158D01*
X0238033Y0193732D02*
X0236433Y0193732D01*
X0236213Y0195305D02*
X0237200Y0195305D01*
X0236367Y0196878D02*
X0235262Y0196878D01*
X0235377Y0198452D02*
X0204597Y0198452D01*
X0204643Y0198638D02*
X0203955Y0201429D01*
X0202049Y0203580D01*
X0199362Y0204600D01*
X0199362Y0204600D01*
X0196508Y0204253D01*
X0194143Y0202620D01*
X0192807Y0200075D01*
X0192807Y0197201D01*
X0194143Y0194655D01*
X0196508Y0193023D01*
X0196508Y0193023D01*
X0199362Y0192676D01*
X0202049Y0193695D01*
X0202049Y0193695D01*
X0202049Y0193695D01*
X0203955Y0195847D01*
X0204643Y0198638D01*
X0204643Y0198638D01*
X0204301Y0200025D02*
X0234320Y0200025D01*
X0233264Y0201598D02*
X0203805Y0201598D01*
X0203955Y0201429D02*
X0203955Y0201429D01*
X0202411Y0203172D02*
X0232207Y0203172D01*
X0231151Y0204745D02*
X0190470Y0204745D01*
X0190470Y0206318D02*
X0230094Y0206318D01*
X0228905Y0207892D02*
X0190470Y0207892D01*
X0190470Y0209465D02*
X0227592Y0209465D01*
X0226278Y0211038D02*
X0190470Y0211038D01*
X0190470Y0212612D02*
X0224965Y0212612D01*
X0223651Y0214185D02*
X0190562Y0214185D01*
X0190972Y0215758D02*
X0222338Y0215758D01*
X0220847Y0217331D02*
X0191484Y0217331D01*
X0192514Y0218905D02*
X0219309Y0218905D01*
X0217733Y0220478D02*
X0193852Y0220478D01*
X0196034Y0222051D02*
X0215335Y0222051D01*
X0202049Y0203580D02*
X0202049Y0203580D01*
X0196508Y0204253D02*
X0196508Y0204253D01*
X0194942Y0203172D02*
X0190470Y0203172D01*
X0190470Y0201598D02*
X0193606Y0201598D01*
X0194143Y0202620D02*
X0194143Y0202620D01*
X0192807Y0200025D02*
X0190470Y0200025D01*
X0190470Y0198452D02*
X0192807Y0198452D01*
X0192976Y0196878D02*
X0190470Y0196878D01*
X0190470Y0195305D02*
X0193802Y0195305D01*
X0194143Y0194655D02*
X0194143Y0194655D01*
X0194143Y0194655D01*
X0195481Y0193732D02*
X0190470Y0193732D01*
X0190470Y0192158D02*
X0228142Y0192158D01*
X0227772Y0193732D02*
X0202082Y0193732D01*
X0203475Y0195305D02*
X0227991Y0195305D01*
X0228943Y0196878D02*
X0204210Y0196878D01*
X0199362Y0192676D02*
X0199362Y0192676D01*
X0190470Y0190585D02*
X0229306Y0190585D01*
X0229740Y0189012D02*
X0190470Y0189012D01*
X0190470Y0187439D02*
X0229740Y0187439D01*
X0229740Y0185865D02*
X0190470Y0185865D01*
X0190470Y0184292D02*
X0229740Y0184292D01*
X0228953Y0182719D02*
X0208480Y0182719D01*
X0208480Y0181145D02*
X0228953Y0181145D01*
X0228953Y0179572D02*
X0208480Y0179572D01*
X0208480Y0177999D02*
X0228953Y0177999D01*
X0228953Y0176425D02*
X0208480Y0176425D01*
X0208480Y0174852D02*
X0228953Y0174852D01*
X0228953Y0173279D02*
X0208480Y0173279D01*
X0209226Y0171705D02*
X0228953Y0171705D01*
X0228953Y0170132D02*
X0221457Y0170132D01*
X0222423Y0168559D02*
X0236928Y0168559D01*
X0237614Y0166985D02*
X0222654Y0166985D01*
X0222294Y0165412D02*
X0237614Y0165412D01*
X0237614Y0163839D02*
X0221144Y0163839D01*
X0219133Y0162265D02*
X0201000Y0162265D01*
X0201000Y0160692D02*
X0218162Y0160692D01*
X0217929Y0159119D02*
X0209918Y0159119D01*
X0211492Y0157546D02*
X0218286Y0157546D01*
X0219431Y0155972D02*
X0211599Y0155972D01*
X0211599Y0154399D02*
X0219898Y0154399D01*
X0219898Y0152826D02*
X0211201Y0152826D01*
X0209628Y0151252D02*
X0219898Y0151252D01*
X0220240Y0149679D02*
X0211184Y0149679D01*
X0211387Y0148106D02*
X0221814Y0148106D01*
X0223387Y0146532D02*
X0211449Y0146532D01*
X0213415Y0144959D02*
X0222327Y0144959D01*
X0220754Y0143386D02*
X0215498Y0143386D01*
X0216748Y0141812D02*
X0219180Y0141812D01*
X0219110Y0140239D02*
X0216748Y0140239D01*
X0216748Y0138666D02*
X0219110Y0138666D01*
X0219110Y0137092D02*
X0216748Y0137092D01*
X0216748Y0135519D02*
X0219110Y0135519D01*
X0219110Y0133946D02*
X0216748Y0133946D01*
X0216748Y0132373D02*
X0219110Y0132373D01*
X0219110Y0130799D02*
X0216748Y0130799D01*
X0216748Y0129226D02*
X0219110Y0129226D01*
X0219110Y0127653D02*
X0216748Y0127653D01*
X0216034Y0126079D02*
X0219110Y0126079D01*
X0218016Y0124506D02*
X0214461Y0124506D01*
X0216442Y0122933D02*
X0212389Y0122933D01*
X0211433Y0121359D02*
X0214869Y0121359D01*
X0213296Y0119786D02*
X0210793Y0119786D01*
X0210646Y0118213D02*
X0211722Y0118213D01*
X0208283Y0118913D02*
X0207299Y0117142D01*
X0208283Y0118913D02*
X0208283Y0123441D01*
X0212024Y0125409D01*
X0214386Y0127772D01*
X0214386Y0141157D01*
X0206512Y0147457D01*
X0201637Y0148106D02*
X0201000Y0148106D01*
X0201000Y0149679D02*
X0201840Y0149679D01*
X0201000Y0151252D02*
X0203396Y0151252D01*
X0201822Y0152826D02*
X0201000Y0152826D01*
X0201000Y0154399D02*
X0201424Y0154399D01*
X0201424Y0155972D02*
X0201000Y0155972D01*
X0201000Y0157546D02*
X0201532Y0157546D01*
X0201000Y0159119D02*
X0203105Y0159119D01*
X0206512Y0159119D02*
X0206512Y0159119D01*
X0206512Y0157546D02*
X0206512Y0157546D01*
X0206512Y0155972D02*
X0206512Y0155972D01*
X0201000Y0163839D02*
X0215501Y0163839D01*
X0218323Y0167142D02*
X0209661Y0167142D01*
X0202969Y0176197D01*
X0198638Y0169504D01*
X0198638Y0139583D01*
X0204150Y0134071D01*
X0204543Y0132102D01*
X0208874Y0137614D01*
X0207693Y0141812D02*
X0201000Y0141812D01*
X0201000Y0143386D02*
X0203689Y0143386D01*
X0202115Y0144959D02*
X0201000Y0144959D01*
X0201000Y0146532D02*
X0201637Y0146532D01*
X0196276Y0146532D02*
X0190470Y0146532D01*
X0190470Y0144959D02*
X0196276Y0144959D01*
X0196276Y0143386D02*
X0190470Y0143386D01*
X0190470Y0141812D02*
X0196276Y0141812D01*
X0196276Y0140239D02*
X0190470Y0140239D01*
X0190470Y0138666D02*
X0196276Y0138666D01*
X0197787Y0137092D02*
X0190470Y0137092D01*
X0190470Y0135519D02*
X0199361Y0135519D01*
X0200934Y0133946D02*
X0190470Y0133946D01*
X0190470Y0132373D02*
X0201394Y0132373D01*
X0201394Y0130799D02*
X0190470Y0130799D01*
X0190470Y0129226D02*
X0201394Y0129226D01*
X0203953Y0126079D02*
X0205134Y0126079D01*
X0205134Y0124506D02*
X0203953Y0124506D01*
X0203953Y0122933D02*
X0205134Y0122933D01*
X0205134Y0121359D02*
X0203953Y0121359D01*
X0200803Y0123441D02*
X0200803Y0118913D01*
X0201787Y0117142D01*
X0196669Y0117142D01*
X0194701Y0115173D01*
X0190709Y0113493D02*
X0182738Y0113493D01*
X0183183Y0113637D02*
X0183183Y0113637D01*
X0185149Y0115066D02*
X0190370Y0115066D01*
X0190621Y0116639D02*
X0186996Y0116639D01*
X0188139Y0118213D02*
X0191616Y0118213D01*
X0189209Y0119786D02*
X0198294Y0119786D01*
X0197654Y0121359D02*
X0189720Y0121359D01*
X0190231Y0122933D02*
X0197654Y0122933D01*
X0197654Y0124506D02*
X0190470Y0124506D01*
X0190470Y0126079D02*
X0197654Y0126079D01*
X0190470Y0127653D02*
X0210926Y0127653D01*
X0212024Y0129226D02*
X0207693Y0129226D01*
X0207693Y0130799D02*
X0212024Y0130799D01*
X0212024Y0132373D02*
X0207760Y0132373D01*
X0211330Y0133946D02*
X0212024Y0133946D01*
X0204543Y0137092D02*
X0204469Y0137092D01*
X0204622Y0138666D02*
X0202895Y0138666D01*
X0201322Y0140239D02*
X0205374Y0140239D01*
X0196276Y0148106D02*
X0190470Y0148106D01*
X0190470Y0149679D02*
X0196276Y0149679D01*
X0196276Y0151252D02*
X0190470Y0151252D01*
X0190470Y0152826D02*
X0196276Y0152826D01*
X0196276Y0154399D02*
X0190470Y0154399D01*
X0190470Y0155972D02*
X0196276Y0155972D01*
X0196276Y0157546D02*
X0190470Y0157546D01*
X0190470Y0159119D02*
X0196276Y0159119D01*
X0196276Y0160692D02*
X0190470Y0160692D01*
X0190470Y0162265D02*
X0196276Y0162265D01*
X0196276Y0163839D02*
X0190470Y0163839D01*
X0190470Y0165412D02*
X0196276Y0165412D01*
X0196276Y0166985D02*
X0190470Y0166985D01*
X0190470Y0168559D02*
X0196276Y0168559D01*
X0196231Y0170132D02*
X0190470Y0170132D01*
X0190470Y0171705D02*
X0197249Y0171705D01*
X0197457Y0173279D02*
X0190470Y0173279D01*
X0190470Y0174852D02*
X0197457Y0174852D01*
X0197457Y0176425D02*
X0190470Y0176425D01*
X0190470Y0177999D02*
X0197457Y0177999D01*
X0197457Y0179572D02*
X0190470Y0179572D01*
X0190470Y0181145D02*
X0197457Y0181145D01*
X0197457Y0182719D02*
X0190470Y0182719D01*
X0201000Y0168559D02*
X0205677Y0168559D01*
X0206840Y0166985D02*
X0201000Y0166985D01*
X0201000Y0165412D02*
X0208002Y0165412D01*
X0210389Y0170132D02*
X0215189Y0170132D01*
X0225387Y0162265D02*
X0236000Y0162265D01*
X0236000Y0160692D02*
X0226357Y0160692D01*
X0226591Y0159119D02*
X0236000Y0159119D01*
X0236000Y0157546D02*
X0226234Y0157546D01*
X0222260Y0159268D02*
X0222260Y0151000D01*
X0226984Y0146276D01*
X0226922Y0149679D02*
X0236320Y0149679D01*
X0233562Y0143386D02*
X0240156Y0143386D01*
X0241729Y0141812D02*
X0233890Y0141812D01*
X0233890Y0140764D02*
X0230134Y0140764D01*
X0230134Y0140764D01*
X0230134Y0140764D01*
X0230134Y0137402D01*
X0232338Y0137402D01*
X0232792Y0137523D01*
X0233200Y0137759D01*
X0233533Y0138091D01*
X0233768Y0138499D01*
X0233890Y0138954D01*
X0233890Y0140764D01*
X0233890Y0140239D02*
X0243302Y0140239D01*
X0245264Y0144959D02*
X0252720Y0144959D01*
X0252181Y0146532D02*
X0243953Y0146532D01*
X0243953Y0148106D02*
X0252362Y0148106D01*
X0253428Y0149679D02*
X0243633Y0149679D01*
X0239976Y0159819D02*
X0239976Y0168323D01*
X0234465Y0176197D01*
X0232102Y0176197D01*
X0232102Y0193913D01*
X0226378Y0141812D02*
X0225862Y0141812D01*
X0226378Y0140764D02*
X0226378Y0138954D01*
X0226500Y0138499D01*
X0226735Y0138091D01*
X0227068Y0137759D01*
X0227475Y0137523D01*
X0227930Y0137402D01*
X0230134Y0137402D01*
X0230134Y0140764D01*
X0230134Y0140764D01*
X0226378Y0140764D01*
X0226378Y0140239D02*
X0224288Y0140239D01*
X0223835Y0138666D02*
X0226455Y0138666D01*
X0223835Y0137092D02*
X0251969Y0137092D01*
X0252298Y0138666D02*
X0233813Y0138666D01*
X0230134Y0138666D02*
X0230134Y0138666D01*
X0230134Y0140239D02*
X0230134Y0140239D01*
X0223835Y0135519D02*
X0252323Y0135519D01*
X0252612Y0133946D02*
X0223835Y0133946D01*
X0223835Y0132373D02*
X0252181Y0132373D01*
X0252470Y0130799D02*
X0230896Y0130799D01*
X0228584Y0130799D02*
X0223835Y0130799D01*
X0223835Y0129226D02*
X0226251Y0129226D01*
X0225493Y0127653D02*
X0223835Y0127653D01*
X0223835Y0126079D02*
X0225409Y0126079D01*
X0225916Y0124506D02*
X0223835Y0124506D01*
X0223124Y0122933D02*
X0226931Y0122933D01*
X0226746Y0121359D02*
X0221550Y0121359D01*
X0219977Y0119786D02*
X0226561Y0119786D01*
X0226376Y0118213D02*
X0218404Y0118213D01*
X0216830Y0116639D02*
X0226191Y0116639D01*
X0226006Y0115066D02*
X0215257Y0115066D01*
X0213684Y0113493D02*
X0225190Y0113493D01*
X0223707Y0111919D02*
X0213598Y0111919D01*
X0213293Y0110346D02*
X0222223Y0110346D01*
X0220740Y0108773D02*
X0211720Y0108773D01*
X0214084Y0107199D02*
X0219257Y0107199D01*
X0217773Y0105626D02*
X0214205Y0105626D01*
X0214205Y0104937D02*
X0210449Y0104937D01*
X0210449Y0104937D01*
X0214205Y0104937D01*
X0214205Y0104053D02*
X0216290Y0104053D01*
X0214806Y0102480D02*
X0213972Y0102480D01*
X0215173Y0099425D02*
X0215173Y0091157D01*
X0212024Y0088795D01*
X0208480Y0088795D01*
X0205331Y0092339D01*
X0185252Y0092339D01*
X0187833Y0095882D02*
X0190561Y0095882D01*
X0192766Y0098087D01*
X0198542Y0098087D01*
X0199465Y0099009D01*
X0199465Y0103463D01*
X0198542Y0104386D01*
X0192513Y0104386D01*
X0191883Y0103756D01*
X0191754Y0103756D01*
X0190370Y0102372D01*
X0188604Y0100606D01*
X0183517Y0100606D01*
X0182787Y0100752D01*
X0182568Y0100606D01*
X0182305Y0100606D01*
X0181779Y0100080D01*
X0179025Y0098244D01*
X0178762Y0098244D01*
X0178235Y0097718D01*
X0177616Y0097305D01*
X0177564Y0097046D01*
X0177378Y0096860D01*
X0177378Y0096116D01*
X0177232Y0095386D01*
X0177378Y0095167D01*
X0177378Y0090850D01*
X0177310Y0090771D01*
X0177378Y0089886D01*
X0177378Y0088998D01*
X0177452Y0088924D01*
X0177460Y0088820D01*
X0177488Y0088795D01*
X0176123Y0088795D01*
X0174531Y0088136D01*
X0173313Y0086918D01*
X0172654Y0085326D01*
X0172654Y0085252D01*
X0171270Y0085252D01*
X0173441Y0087423D01*
X0173441Y0089491D01*
X0173506Y0089567D01*
X0173441Y0090456D01*
X0173441Y0091349D01*
X0173370Y0091419D01*
X0173363Y0091518D01*
X0172688Y0092101D01*
X0172057Y0092732D01*
X0171958Y0092732D01*
X0166748Y0097231D01*
X0166748Y0098712D01*
X0166089Y0100304D01*
X0164999Y0101394D01*
X0188199Y0101394D01*
X0189583Y0102777D01*
X0189583Y0102777D01*
X0193711Y0106906D01*
X0200071Y0106906D01*
X0200039Y0106786D01*
X0200039Y0104976D01*
X0200039Y0103166D01*
X0200161Y0102712D01*
X0200396Y0102304D01*
X0200729Y0101971D01*
X0201137Y0101736D01*
X0201591Y0101614D01*
X0204189Y0101614D01*
X0206786Y0101614D01*
X0206906Y0101646D01*
X0206906Y0100646D01*
X0201174Y0100646D01*
X0200252Y0099723D01*
X0200252Y0095269D01*
X0200820Y0094701D01*
X0188961Y0094701D01*
X0188923Y0094792D01*
X0187833Y0095882D01*
X0189583Y0098244D02*
X0192732Y0101394D01*
X0195370Y0101394D01*
X0195528Y0101236D01*
X0199465Y0100906D02*
X0206906Y0100906D01*
X0204189Y0101614D02*
X0204189Y0104976D01*
X0204189Y0104976D01*
X0204189Y0101614D01*
X0204189Y0102480D02*
X0204189Y0102480D01*
X0204189Y0104053D02*
X0204189Y0104053D01*
X0204622Y0104543D02*
X0204189Y0104976D01*
X0200039Y0104976D01*
X0204189Y0104976D01*
X0204189Y0104976D01*
X0204622Y0104543D02*
X0210449Y0104937D01*
X0210449Y0099425D02*
X0210449Y0097063D01*
X0210016Y0097496D01*
X0204189Y0097496D01*
X0200252Y0097760D02*
X0192439Y0097760D01*
X0190866Y0096186D02*
X0200252Y0096186D01*
X0200252Y0099333D02*
X0199465Y0099333D01*
X0199465Y0102480D02*
X0200295Y0102480D01*
X0200039Y0104053D02*
X0198875Y0104053D01*
X0200039Y0105626D02*
X0192431Y0105626D01*
X0192180Y0104053D02*
X0190858Y0104053D01*
X0190477Y0102480D02*
X0189285Y0102480D01*
X0188904Y0100906D02*
X0165486Y0100906D01*
X0166491Y0099333D02*
X0180658Y0099333D01*
X0183283Y0098244D02*
X0179740Y0095882D01*
X0179740Y0089976D01*
X0182496Y0087614D01*
X0182496Y0083283D01*
X0178953Y0079740D01*
X0178953Y0073047D01*
X0182496Y0072587D02*
X0184071Y0072587D01*
X0184071Y0074160D02*
X0182496Y0074160D01*
X0182496Y0075274D02*
X0181574Y0076197D01*
X0181315Y0076197D01*
X0181315Y0078762D01*
X0183475Y0080921D01*
X0184858Y0082305D01*
X0184858Y0086740D01*
X0184926Y0086820D01*
X0184858Y0087705D01*
X0184858Y0088008D01*
X0186113Y0088008D01*
X0187705Y0088667D01*
X0188923Y0089885D01*
X0188961Y0089976D01*
X0193329Y0089976D01*
X0193126Y0089774D01*
X0184071Y0080719D01*
X0184071Y0054842D01*
X0182803Y0053756D01*
X0176881Y0053756D01*
X0176214Y0053923D01*
X0175936Y0053756D01*
X0175612Y0053756D01*
X0175126Y0053270D01*
X0158365Y0043213D01*
X0163002Y0047850D01*
X0164386Y0049234D01*
X0164386Y0050829D01*
X0165194Y0051637D01*
X0165764Y0053012D01*
X0165764Y0054500D01*
X0165589Y0054921D01*
X0165605Y0054921D01*
X0166060Y0055043D01*
X0166468Y0055278D01*
X0166800Y0055611D01*
X0167036Y0056019D01*
X0167157Y0056473D01*
X0167157Y0057693D01*
X0167157Y0058480D01*
X0168887Y0058480D01*
X0169629Y0058339D01*
X0169837Y0058480D01*
X0170089Y0058480D01*
X0170623Y0059015D01*
X0176927Y0063301D01*
X0177096Y0061226D01*
X0176686Y0061226D01*
X0175764Y0060304D01*
X0175764Y0055397D01*
X0176686Y0054474D01*
X0182794Y0054474D01*
X0183717Y0055397D01*
X0183717Y0060304D01*
X0182794Y0061226D01*
X0181836Y0061226D01*
X0181578Y0064391D01*
X0182496Y0065308D01*
X0182496Y0069763D01*
X0181967Y0070291D01*
X0182496Y0070820D01*
X0182496Y0075274D01*
X0182037Y0075733D02*
X0184071Y0075733D01*
X0184071Y0077306D02*
X0181315Y0077306D01*
X0181433Y0078880D02*
X0184071Y0078880D01*
X0184071Y0080453D02*
X0183006Y0080453D01*
X0183475Y0080921D02*
X0183475Y0080921D01*
X0184580Y0082026D02*
X0185379Y0082026D01*
X0184858Y0083600D02*
X0186952Y0083600D01*
X0188525Y0085173D02*
X0184858Y0085173D01*
X0184863Y0086746D02*
X0190099Y0086746D01*
X0191672Y0088320D02*
X0186866Y0088320D01*
X0188926Y0089893D02*
X0193245Y0089893D01*
X0195488Y0088795D02*
X0204543Y0088795D01*
X0208087Y0083677D01*
X0212090Y0082026D02*
X0217175Y0082026D01*
X0215977Y0080453D02*
X0210987Y0080453D01*
X0212417Y0083600D02*
X0218373Y0083600D01*
X0219570Y0085173D02*
X0212155Y0085173D01*
X0213315Y0086746D02*
X0220540Y0086746D01*
X0221482Y0088320D02*
X0215327Y0088320D01*
X0217379Y0089893D02*
X0222425Y0089893D01*
X0223367Y0091466D02*
X0217604Y0091466D01*
X0217535Y0093040D02*
X0224310Y0093040D01*
X0225242Y0094613D02*
X0217535Y0094613D01*
X0217535Y0096186D02*
X0225961Y0096186D01*
X0226680Y0097760D02*
X0217535Y0097760D01*
X0218333Y0099333D02*
X0227400Y0099333D01*
X0228119Y0100906D02*
X0219816Y0100906D01*
X0221300Y0102480D02*
X0228838Y0102480D01*
X0229557Y0104053D02*
X0222783Y0104053D01*
X0224266Y0105626D02*
X0230107Y0105626D01*
X0230624Y0107199D02*
X0225750Y0107199D01*
X0227233Y0108773D02*
X0231142Y0108773D01*
X0231659Y0110346D02*
X0228717Y0110346D01*
X0230349Y0111919D02*
X0232177Y0111919D01*
X0232694Y0113493D02*
X0230578Y0113493D01*
X0230763Y0115066D02*
X0233160Y0115066D01*
X0233536Y0116639D02*
X0230948Y0116639D01*
X0231133Y0118213D02*
X0233912Y0118213D01*
X0234286Y0119786D02*
X0231318Y0119786D01*
X0231503Y0121359D02*
X0234616Y0121359D01*
X0235383Y0122933D02*
X0232207Y0122933D01*
X0233564Y0124506D02*
X0236201Y0124506D01*
X0236359Y0124810D02*
X0236359Y0124810D01*
X0237548Y0126079D02*
X0234071Y0126079D01*
X0233988Y0127653D02*
X0239120Y0127653D01*
X0238889Y0127512D02*
X0238889Y0127512D01*
X0241712Y0129226D02*
X0233229Y0129226D01*
X0229740Y0126591D02*
X0228165Y0113205D01*
X0215173Y0099425D01*
X0210449Y0097063D02*
X0210449Y0093913D01*
X0205186Y0080453D02*
X0204625Y0080453D01*
X0204237Y0078880D02*
X0214780Y0078880D01*
X0213582Y0077306D02*
X0203574Y0077306D01*
X0203955Y0077737D02*
X0203955Y0077737D01*
X0202180Y0075733D02*
X0212179Y0075733D01*
X0210679Y0074160D02*
X0188795Y0074160D01*
X0188795Y0075733D02*
X0195319Y0075733D01*
X0194143Y0076545D02*
X0194143Y0076545D01*
X0194143Y0076545D01*
X0193743Y0077306D02*
X0188795Y0077306D01*
X0188913Y0078880D02*
X0192917Y0078880D01*
X0192807Y0080453D02*
X0190487Y0080453D01*
X0192060Y0082026D02*
X0192839Y0082026D01*
X0193633Y0083600D02*
X0193665Y0083600D01*
X0195488Y0088795D02*
X0186433Y0079740D01*
X0186433Y0053756D01*
X0183677Y0051394D01*
X0176591Y0051394D01*
X0156906Y0039583D01*
X0152969Y0039583D01*
X0145094Y0031709D01*
X0131315Y0031709D01*
X0132299Y0035055D02*
X0135449Y0035055D01*
X0136039Y0034465D01*
X0141945Y0034465D01*
X0143520Y0036039D01*
X0143520Y0041157D01*
X0139583Y0045094D01*
X0139583Y0050606D01*
X0142732Y0050606D02*
X0142732Y0046276D01*
X0145094Y0043913D01*
X0155724Y0043913D01*
X0162024Y0050213D01*
X0162024Y0053756D01*
X0165764Y0053707D02*
X0175563Y0053707D01*
X0175881Y0055280D02*
X0166469Y0055280D01*
X0167157Y0056853D02*
X0175764Y0056853D01*
X0175764Y0058427D02*
X0169758Y0058427D01*
X0169169Y0058427D02*
X0167157Y0058427D01*
X0167157Y0057693D02*
X0162417Y0057693D01*
X0162417Y0057693D01*
X0157677Y0057693D01*
X0157677Y0058480D01*
X0154352Y0058480D01*
X0152384Y0060449D01*
X0152384Y0060449D01*
X0151533Y0061299D01*
X0152181Y0059735D01*
X0152181Y0058013D01*
X0151522Y0056421D01*
X0150304Y0055203D01*
X0150137Y0055134D01*
X0156967Y0055134D01*
X0157890Y0054211D01*
X0157890Y0049419D01*
X0159480Y0051010D01*
X0158853Y0051637D01*
X0158283Y0053012D01*
X0158283Y0054500D01*
X0158560Y0055167D01*
X0158367Y0055278D01*
X0158034Y0055611D01*
X0157799Y0056019D01*
X0157677Y0056473D01*
X0157677Y0057693D01*
X0162417Y0057693D01*
X0172654Y0057299D01*
X0172072Y0060000D02*
X0175764Y0060000D01*
X0177067Y0061573D02*
X0174386Y0061573D01*
X0176700Y0063147D02*
X0176940Y0063147D01*
X0181680Y0063147D02*
X0184071Y0063147D01*
X0184071Y0064720D02*
X0181908Y0064720D01*
X0182496Y0066293D02*
X0184071Y0066293D01*
X0184071Y0067867D02*
X0182496Y0067867D01*
X0182496Y0069440D02*
X0184071Y0069440D01*
X0184071Y0071013D02*
X0182496Y0071013D01*
X0178953Y0067535D02*
X0179740Y0057850D01*
X0183717Y0058427D02*
X0184071Y0058427D01*
X0184071Y0060000D02*
X0183717Y0060000D01*
X0184071Y0061573D02*
X0181807Y0061573D01*
X0183717Y0056853D02*
X0184071Y0056853D01*
X0184071Y0055280D02*
X0183600Y0055280D01*
X0186334Y0050560D02*
X0187985Y0050560D01*
X0188170Y0052133D02*
X0190131Y0052133D01*
X0188798Y0053707D02*
X0191705Y0053707D01*
X0193278Y0055280D02*
X0188795Y0055280D01*
X0188795Y0056853D02*
X0193520Y0056853D01*
X0193520Y0058427D02*
X0188795Y0058427D01*
X0188795Y0060000D02*
X0193520Y0060000D01*
X0193520Y0061573D02*
X0188795Y0061573D01*
X0188795Y0063147D02*
X0194845Y0063147D01*
X0194560Y0064720D02*
X0188795Y0064720D01*
X0188795Y0066293D02*
X0193913Y0066293D01*
X0193913Y0067867D02*
X0188795Y0067867D01*
X0188795Y0069440D02*
X0194509Y0069440D01*
X0196274Y0071013D02*
X0188795Y0071013D01*
X0188795Y0072587D02*
X0209179Y0072587D01*
X0207678Y0071013D02*
X0200214Y0071013D01*
X0201980Y0069440D02*
X0206178Y0069440D01*
X0204476Y0067867D02*
X0202575Y0067867D01*
X0202575Y0066293D02*
X0202703Y0066293D01*
X0198244Y0067142D02*
X0198638Y0063598D01*
X0195882Y0060843D01*
X0195882Y0054543D01*
X0190213Y0048874D01*
X0179740Y0044937D01*
X0156512Y0034465D01*
X0159419Y0044267D02*
X0160121Y0044267D01*
X0160992Y0045840D02*
X0162743Y0045840D01*
X0162565Y0047414D02*
X0165366Y0047414D01*
X0164139Y0048987D02*
X0167988Y0048987D01*
X0170610Y0050560D02*
X0164386Y0050560D01*
X0165400Y0052133D02*
X0173232Y0052133D01*
X0167157Y0057693D02*
X0162417Y0057693D01*
X0162417Y0057693D01*
X0162417Y0060843D02*
X0169110Y0060843D01*
X0178953Y0067535D01*
X0178953Y0079740D02*
X0162417Y0079740D01*
X0162417Y0082890D02*
X0175409Y0082890D01*
X0176984Y0084465D01*
X0174975Y0088320D02*
X0173441Y0088320D01*
X0173482Y0089893D02*
X0177377Y0089893D01*
X0177378Y0091466D02*
X0173367Y0091466D01*
X0171602Y0093040D02*
X0177378Y0093040D01*
X0177378Y0094613D02*
X0169780Y0094613D01*
X0167958Y0096186D02*
X0177378Y0096186D01*
X0178277Y0097760D02*
X0166748Y0097760D01*
X0162417Y0097850D02*
X0171079Y0090370D01*
X0171079Y0088402D01*
X0168717Y0086039D01*
X0162417Y0086039D01*
X0155331Y0082496D02*
X0155331Y0096276D01*
X0155331Y0099819D01*
X0152181Y0099333D02*
X0152181Y0099333D01*
X0152181Y0100906D02*
X0152181Y0100906D01*
X0152181Y0101016D02*
X0152181Y0096276D01*
X0152181Y0101016D01*
X0150553Y0100906D02*
X0148322Y0100906D01*
X0152181Y0097760D02*
X0152181Y0097760D01*
X0152181Y0096276D02*
X0152181Y0096276D01*
X0152181Y0096275D02*
X0152181Y0096275D01*
X0152181Y0091535D01*
X0151394Y0091535D01*
X0151394Y0091080D01*
X0151568Y0090441D01*
X0151394Y0090136D01*
X0151394Y0089820D01*
X0151787Y0088869D01*
X0151787Y0087146D01*
X0151128Y0085555D01*
X0149910Y0084336D01*
X0148318Y0083677D01*
X0146595Y0083677D01*
X0145004Y0084336D01*
X0143785Y0085555D01*
X0143126Y0087146D01*
X0143126Y0088869D01*
X0143785Y0090461D01*
X0145004Y0091679D01*
X0145170Y0091748D01*
X0133699Y0091748D01*
X0134199Y0091248D01*
X0134816Y0089759D01*
X0135948Y0090892D01*
X0137540Y0091551D01*
X0139263Y0091551D01*
X0140855Y0090892D01*
X0142073Y0089674D01*
X0142732Y0088082D01*
X0142732Y0086359D01*
X0142073Y0084767D01*
X0140855Y0083549D01*
X0139263Y0082890D01*
X0137540Y0082890D01*
X0137449Y0082927D01*
X0137220Y0082699D01*
X0137220Y0079549D01*
X0135837Y0078165D01*
X0131900Y0074228D01*
X0124825Y0074228D01*
X0123441Y0075612D01*
X0121675Y0077378D01*
X0121488Y0077378D01*
X0121488Y0076591D01*
X0116748Y0076591D01*
X0116748Y0076590D01*
X0112008Y0076590D01*
X0112008Y0076404D01*
X0109996Y0078416D01*
X0110179Y0078599D01*
X0110179Y0079903D01*
X0107029Y0083053D01*
X0106494Y0083053D01*
X0106494Y0083384D01*
X0106372Y0083838D01*
X0106137Y0084246D01*
X0104857Y0085526D01*
X0102201Y0082870D01*
X0102201Y0082870D01*
X0104857Y0085526D01*
X0103577Y0086806D01*
X0103169Y0087041D01*
X0102715Y0087163D01*
X0102244Y0087163D01*
X0101789Y0087041D01*
X0101382Y0086806D01*
X0099823Y0085247D01*
X0098344Y0083768D01*
X0092923Y0089189D01*
X0104352Y0089189D01*
X0109864Y0083677D01*
X0112220Y0083677D01*
X0112220Y0078422D01*
X0112130Y0078265D01*
X0112008Y0077810D01*
X0112008Y0076591D01*
X0116748Y0076591D01*
X0116748Y0076590D01*
X0121488Y0076590D01*
X0121488Y0075371D01*
X0121366Y0074916D01*
X0121276Y0074759D01*
X0121276Y0072654D01*
X0131518Y0072654D01*
X0133283Y0074419D01*
X0134667Y0075803D01*
X0151000Y0075803D01*
X0151000Y0081506D01*
X0152384Y0082890D01*
X0152384Y0082890D01*
X0152969Y0083475D01*
X0152969Y0091535D01*
X0152181Y0091535D01*
X0152181Y0096275D01*
X0152181Y0096186D02*
X0152181Y0096186D01*
X0152181Y0094613D02*
X0152181Y0094613D01*
X0152181Y0093040D02*
X0152181Y0093040D01*
X0151394Y0091466D02*
X0152969Y0091466D01*
X0152969Y0089893D02*
X0151394Y0089893D01*
X0151787Y0088320D02*
X0152969Y0088320D01*
X0152969Y0086746D02*
X0151622Y0086746D01*
X0150746Y0085173D02*
X0152969Y0085173D01*
X0152969Y0083600D02*
X0140905Y0083600D01*
X0142241Y0085173D02*
X0144167Y0085173D01*
X0143292Y0086746D02*
X0142732Y0086746D01*
X0142634Y0088320D02*
X0143126Y0088320D01*
X0143550Y0089893D02*
X0141854Y0089893D01*
X0139468Y0091466D02*
X0144791Y0091466D01*
X0149031Y0090764D02*
X0147457Y0088008D01*
X0149031Y0090764D02*
X0149031Y0096276D01*
X0143442Y0100906D02*
X0128613Y0100906D01*
X0130134Y0096276D02*
X0130134Y0090764D01*
X0130528Y0088795D01*
X0126689Y0086746D02*
X0126197Y0086746D01*
X0126197Y0085974D02*
X0126923Y0086275D01*
X0126856Y0086342D01*
X0126197Y0087934D01*
X0126197Y0089657D01*
X0126856Y0091248D01*
X0127143Y0091535D01*
X0126984Y0091535D01*
X0126197Y0091535D01*
X0126197Y0085974D01*
X0126197Y0088320D02*
X0126197Y0088320D01*
X0126197Y0089893D02*
X0126295Y0089893D01*
X0126197Y0091466D02*
X0127074Y0091466D01*
X0126984Y0093040D02*
X0126984Y0093040D01*
X0133981Y0091466D02*
X0137335Y0091466D01*
X0134950Y0089893D02*
X0134760Y0089893D01*
X0138402Y0087220D02*
X0134858Y0083677D01*
X0134858Y0080528D01*
X0130921Y0076591D01*
X0125803Y0076591D01*
X0122654Y0079740D01*
X0116748Y0079740D01*
X0116748Y0082890D02*
X0128165Y0082102D01*
X0123320Y0075733D02*
X0121488Y0075733D01*
X0121488Y0077306D02*
X0121747Y0077306D01*
X0121276Y0074160D02*
X0133024Y0074160D01*
X0133405Y0075733D02*
X0134597Y0075733D01*
X0134978Y0077306D02*
X0151000Y0077306D01*
X0151000Y0078880D02*
X0136551Y0078880D01*
X0137220Y0080453D02*
X0151000Y0080453D01*
X0151520Y0082026D02*
X0137220Y0082026D01*
X0135646Y0073441D02*
X0153362Y0073441D01*
X0153362Y0080528D01*
X0155331Y0082496D01*
X0153362Y0073441D02*
X0153362Y0062811D01*
X0155331Y0060843D01*
X0162417Y0060843D01*
X0157677Y0058427D02*
X0152181Y0058427D01*
X0152071Y0060000D02*
X0152833Y0060000D01*
X0151000Y0061849D02*
X0150304Y0062545D01*
X0148712Y0063205D01*
X0146989Y0063205D01*
X0145397Y0062545D01*
X0144179Y0061327D01*
X0143520Y0059735D01*
X0143520Y0058013D01*
X0143557Y0057922D01*
X0143520Y0057884D01*
X0143520Y0055134D01*
X0135115Y0055134D01*
X0134958Y0055225D01*
X0134503Y0055346D01*
X0133284Y0055346D01*
X0133284Y0050606D01*
X0133284Y0045866D01*
X0133799Y0045866D01*
X0132179Y0045094D01*
X0129346Y0045094D01*
X0129346Y0046079D01*
X0131452Y0046079D01*
X0131609Y0045988D01*
X0132064Y0045866D01*
X0133283Y0045866D01*
X0133283Y0050606D01*
X0133284Y0050606D01*
X0133283Y0050606D01*
X0133283Y0055346D01*
X0132496Y0055346D01*
X0132496Y0057490D01*
X0131112Y0058874D01*
X0130719Y0059268D01*
X0126197Y0059268D01*
X0126197Y0067929D01*
X0133475Y0067929D01*
X0134858Y0069313D01*
X0136624Y0071079D01*
X0151000Y0071079D01*
X0151000Y0061849D01*
X0151000Y0063147D02*
X0148852Y0063147D01*
X0146849Y0063147D02*
X0126197Y0063147D01*
X0126197Y0064720D02*
X0151000Y0064720D01*
X0151000Y0066293D02*
X0126197Y0066293D01*
X0126197Y0067867D02*
X0151000Y0067867D01*
X0151000Y0069440D02*
X0134985Y0069440D01*
X0134858Y0069313D02*
X0134858Y0069313D01*
X0136559Y0071013D02*
X0151000Y0071013D01*
X0144425Y0061573D02*
X0126197Y0061573D01*
X0126197Y0060000D02*
X0143629Y0060000D01*
X0143520Y0058427D02*
X0131560Y0058427D01*
X0132496Y0056853D02*
X0143520Y0056853D01*
X0143520Y0055280D02*
X0134751Y0055280D01*
X0133284Y0055280D02*
X0133283Y0055280D01*
X0133283Y0053707D02*
X0133284Y0053707D01*
X0133283Y0052133D02*
X0133284Y0052133D01*
X0133283Y0050560D02*
X0133284Y0050560D01*
X0133283Y0048987D02*
X0133284Y0048987D01*
X0133283Y0047414D02*
X0133284Y0047414D01*
X0133745Y0045840D02*
X0129346Y0045840D01*
X0122654Y0034465D02*
X0122910Y0034273D01*
X0123170Y0034087D01*
X0123435Y0033907D01*
X0123703Y0033734D01*
X0123976Y0033567D01*
X0124253Y0033407D01*
X0124534Y0033253D01*
X0124818Y0033106D01*
X0125106Y0032967D01*
X0125397Y0032834D01*
X0125691Y0032708D01*
X0125988Y0032589D01*
X0126288Y0032478D01*
X0126590Y0032373D01*
X0126895Y0032276D01*
X0127202Y0032187D01*
X0127511Y0032105D01*
X0127822Y0032030D01*
X0128135Y0031963D01*
X0128449Y0031903D01*
X0128764Y0031851D01*
X0129081Y0031806D01*
X0129399Y0031769D01*
X0129717Y0031740D01*
X0130036Y0031718D01*
X0130356Y0031705D01*
X0130676Y0031698D01*
X0130996Y0031700D01*
X0131315Y0031709D01*
X0126984Y0034789D02*
X0126984Y0036692D01*
X0127084Y0036791D01*
X0126893Y0037121D01*
X0126772Y0037576D01*
X0126772Y0038795D01*
X0132299Y0038795D01*
X0132299Y0038795D01*
X0126772Y0038795D01*
X0126772Y0040015D01*
X0126893Y0040469D01*
X0127084Y0040799D01*
X0126984Y0040899D01*
X0126984Y0042541D01*
X0126782Y0042339D01*
X0122845Y0042339D01*
X0120888Y0042339D01*
X0118323Y0044903D01*
X0118323Y0045269D01*
X0118020Y0044966D01*
X0117366Y0044695D01*
X0117664Y0044398D01*
X0118323Y0042806D01*
X0118323Y0041083D01*
X0117712Y0039608D01*
X0118414Y0039317D01*
X0119632Y0038099D01*
X0119788Y0037723D01*
X0120200Y0038136D01*
X0121792Y0038795D01*
X0123515Y0038795D01*
X0125107Y0038136D01*
X0126325Y0036918D01*
X0126984Y0035326D01*
X0126984Y0034789D01*
X0126984Y0034789D01*
X0126984Y0034827D02*
X0126984Y0034827D01*
X0126984Y0036400D02*
X0126539Y0036400D01*
X0126772Y0037974D02*
X0125269Y0037974D01*
X0126772Y0039547D02*
X0117859Y0039547D01*
X0118323Y0041120D02*
X0126984Y0041120D01*
X0132299Y0042535D02*
X0136433Y0044504D01*
X0136433Y0050606D01*
X0138388Y0042949D02*
X0141157Y0040179D01*
X0141157Y0037018D01*
X0140966Y0036827D01*
X0137535Y0036827D01*
X0137705Y0037121D01*
X0137827Y0037576D01*
X0137827Y0038795D01*
X0132299Y0038795D01*
X0139386Y0038795D01*
X0137827Y0038795D02*
X0137827Y0040015D01*
X0137705Y0040469D01*
X0137515Y0040799D01*
X0137614Y0040899D01*
X0137614Y0042344D01*
X0137816Y0042546D01*
X0138332Y0042792D01*
X0138388Y0042949D01*
X0138643Y0042694D02*
X0138126Y0042694D01*
X0137614Y0041120D02*
X0140216Y0041120D01*
X0141157Y0039547D02*
X0137827Y0039547D01*
X0137827Y0038795D02*
X0132299Y0038795D01*
X0132299Y0038795D01*
X0137827Y0037974D02*
X0141157Y0037974D01*
X0145882Y0050606D02*
X0145882Y0056906D01*
X0147850Y0058874D01*
X0151701Y0056853D02*
X0157677Y0056853D01*
X0158365Y0055280D02*
X0150381Y0055280D01*
X0157890Y0053707D02*
X0158283Y0053707D01*
X0158647Y0052133D02*
X0157890Y0052133D01*
X0157890Y0050560D02*
X0159031Y0050560D01*
X0135646Y0073441D02*
X0132496Y0070291D01*
X0123835Y0070291D01*
X0116748Y0073441D02*
X0111630Y0073441D01*
X0106098Y0078973D01*
X0108055Y0082026D02*
X0112220Y0082026D01*
X0112220Y0080453D02*
X0109629Y0080453D01*
X0110179Y0078880D02*
X0112220Y0078880D01*
X0112008Y0077306D02*
X0111105Y0077306D01*
X0112220Y0083600D02*
X0106436Y0083600D01*
X0105209Y0085173D02*
X0108368Y0085173D01*
X0106795Y0086746D02*
X0103636Y0086746D01*
X0104504Y0085173D02*
X0104504Y0085173D01*
X0102931Y0083600D02*
X0102931Y0083600D01*
X0102201Y0082870D02*
X0102201Y0082870D01*
X0099823Y0085247D01*
X0102201Y0082870D01*
X0101471Y0083600D02*
X0101471Y0083600D01*
X0099898Y0085173D02*
X0099898Y0085173D01*
X0099749Y0085173D02*
X0096939Y0085173D01*
X0095366Y0086746D02*
X0101322Y0086746D01*
X0105222Y0088320D02*
X0093793Y0088320D01*
X0087096Y0072587D02*
X0083871Y0072587D01*
X0084465Y0071013D02*
X0088670Y0071013D01*
X0090243Y0069440D02*
X0084465Y0069440D01*
X0084267Y0067867D02*
X0091816Y0067867D01*
X0093390Y0066293D02*
X0085178Y0066293D01*
X0088008Y0064720D02*
X0094963Y0064720D01*
X0096536Y0063147D02*
X0088008Y0063147D01*
X0088008Y0061573D02*
X0098110Y0061573D01*
X0099683Y0060000D02*
X0087534Y0060000D01*
X0088008Y0058427D02*
X0101256Y0058427D01*
X0100606Y0054150D02*
X0109661Y0048638D01*
X0115567Y0048638D01*
X0117718Y0044267D02*
X0118959Y0044267D01*
X0118323Y0042694D02*
X0120533Y0042694D01*
X0120038Y0037974D02*
X0119684Y0037974D01*
X0115961Y0035646D02*
X0114780Y0035252D01*
X0098244Y0040370D01*
X0097654Y0042535D01*
X0096866Y0045488D01*
X0094504Y0045488D01*
X0084858Y0051787D01*
X0084465Y0052969D01*
X0084465Y0057299D01*
X0088008Y0056853D02*
X0097457Y0056853D01*
X0097457Y0055280D02*
X0088008Y0055280D01*
X0088751Y0053707D02*
X0097457Y0053707D01*
X0097457Y0052133D02*
X0089189Y0052133D01*
X0091058Y0050560D02*
X0098032Y0050560D01*
X0099532Y0048987D02*
X0101681Y0048987D01*
X0101197Y0047414D02*
X0100016Y0047414D01*
X0100016Y0045840D02*
X0101197Y0045840D01*
X0101197Y0044267D02*
X0100016Y0044267D01*
X0100059Y0042694D02*
X0101197Y0042694D01*
X0104346Y0045488D02*
X0111039Y0043126D01*
X0113992Y0041945D01*
X0116748Y0057693D02*
X0109268Y0057693D01*
X0070685Y0096276D01*
X0063205Y0096276D01*
X0062024Y0097457D01*
X0062024Y0105724D01*
X0066197Y0109898D01*
X0067654Y0109898D01*
X0063126Y0110346D02*
X0047506Y0110346D01*
X0048024Y0108773D02*
X0061731Y0108773D01*
X0060158Y0107199D02*
X0048541Y0107199D01*
X0049059Y0105626D02*
X0059661Y0105626D01*
X0059661Y0104053D02*
X0049608Y0104053D01*
X0050327Y0102480D02*
X0059661Y0102480D01*
X0059661Y0100906D02*
X0051047Y0100906D01*
X0051766Y0099333D02*
X0059661Y0099333D01*
X0059661Y0097760D02*
X0052485Y0097760D01*
X0053204Y0096186D02*
X0059953Y0096186D01*
X0061527Y0094613D02*
X0053923Y0094613D01*
X0054856Y0093040D02*
X0063858Y0093040D01*
X0063598Y0091466D02*
X0055798Y0091466D01*
X0056741Y0089893D02*
X0063928Y0089893D01*
X0065036Y0088320D02*
X0057683Y0088320D01*
X0067142Y0101394D02*
X0069504Y0101394D01*
X0110055Y0060843D01*
X0116748Y0060843D01*
X0116748Y0063992D02*
X0110843Y0063992D01*
X0072654Y0102181D01*
X0072654Y0114898D01*
X0067654Y0119898D01*
X0072181Y0119786D02*
X0073126Y0119786D01*
X0073126Y0121359D02*
X0072181Y0121359D01*
X0072181Y0122933D02*
X0073126Y0122933D01*
X0074011Y0125279D02*
X0074465Y0125157D01*
X0077457Y0125157D01*
X0077457Y0129701D01*
X0072913Y0129701D01*
X0072913Y0126710D01*
X0073035Y0126255D01*
X0073271Y0125847D01*
X0073603Y0125515D01*
X0074011Y0125279D01*
X0073137Y0126079D02*
X0071968Y0126079D01*
X0072181Y0127653D02*
X0072913Y0127653D01*
X0072913Y0129226D02*
X0072181Y0129226D01*
X0072181Y0130799D02*
X0072913Y0130799D01*
X0072913Y0132373D02*
X0072181Y0132373D01*
X0071738Y0133946D02*
X0073269Y0133946D01*
X0077457Y0133946D02*
X0077850Y0133946D01*
X0077850Y0132373D02*
X0077457Y0132373D01*
X0077457Y0130799D02*
X0077850Y0130799D01*
X0077850Y0129226D02*
X0077457Y0129226D01*
X0077457Y0127653D02*
X0077850Y0127653D01*
X0077850Y0126079D02*
X0077457Y0126079D01*
X0082102Y0124506D02*
X0042964Y0124506D01*
X0042806Y0124810D02*
X0042806Y0124810D01*
X0041618Y0126079D02*
X0063339Y0126079D01*
X0063126Y0127653D02*
X0040045Y0127653D01*
X0040276Y0127512D02*
X0040276Y0127512D01*
X0040276Y0127512D01*
X0037454Y0129226D02*
X0063126Y0129226D01*
X0063126Y0130799D02*
X0026696Y0130799D01*
X0026984Y0132373D02*
X0063126Y0132373D01*
X0059174Y0133946D02*
X0026553Y0133946D01*
X0021472Y0142043D02*
X0015748Y0142043D01*
X0015748Y0141673D01*
X0015892Y0140948D01*
X0016175Y0140264D01*
X0016587Y0139649D01*
X0016803Y0139432D01*
X0016500Y0139129D01*
X0015961Y0137827D01*
X0015961Y0136417D01*
X0016500Y0135115D01*
X0016954Y0134661D01*
X0016500Y0134208D01*
X0015961Y0132906D01*
X0015961Y0132421D01*
X0014916Y0133197D01*
X0013243Y0135579D01*
X0012402Y0138366D01*
X0012478Y0141276D01*
X0013465Y0144014D01*
X0015262Y0146305D01*
X0015961Y0146769D01*
X0015961Y0146260D01*
X0016500Y0144957D01*
X0016803Y0144654D01*
X0016587Y0144438D01*
X0016175Y0143822D01*
X0015892Y0143139D01*
X0015748Y0142413D01*
X0015748Y0142043D01*
X0021472Y0142043D01*
X0021472Y0142043D01*
X0016192Y0140239D02*
X0012451Y0140239D01*
X0012410Y0138666D02*
X0016308Y0138666D01*
X0015961Y0137092D02*
X0012786Y0137092D01*
X0013285Y0135519D02*
X0016333Y0135519D01*
X0016392Y0133946D02*
X0014390Y0133946D01*
X0015748Y0141812D02*
X0012672Y0141812D01*
X0013239Y0143386D02*
X0015995Y0143386D01*
X0016499Y0144959D02*
X0014206Y0144959D01*
X0015605Y0146532D02*
X0015961Y0146532D01*
X0026445Y0144959D02*
X0041197Y0144959D01*
X0041197Y0146532D02*
X0026984Y0146532D01*
X0026804Y0148106D02*
X0049588Y0148106D01*
X0051827Y0148106D02*
X0051827Y0148106D01*
X0051827Y0146532D02*
X0051827Y0146532D01*
X0051827Y0144959D02*
X0051827Y0144959D01*
X0051827Y0143386D02*
X0051827Y0143386D01*
X0051827Y0141812D02*
X0051827Y0141812D01*
X0051827Y0140239D02*
X0051827Y0140239D01*
X0054431Y0140239D02*
X0058130Y0140239D01*
X0060449Y0141812D02*
X0055189Y0141812D01*
X0055189Y0143386D02*
X0073384Y0143386D01*
X0074957Y0141812D02*
X0062811Y0141812D01*
X0065130Y0140239D02*
X0076530Y0140239D01*
X0078104Y0138666D02*
X0065882Y0138666D01*
X0065961Y0137092D02*
X0079677Y0137092D01*
X0084465Y0135646D02*
X0072654Y0147457D01*
X0069110Y0148106D02*
X0054065Y0148106D01*
X0055189Y0146532D02*
X0069110Y0146532D01*
X0069110Y0144959D02*
X0055189Y0144959D01*
X0047850Y0136433D02*
X0044346Y0139937D01*
X0037112Y0129433D02*
X0037112Y0129433D01*
X0043782Y0122933D02*
X0063126Y0122933D01*
X0063126Y0121359D02*
X0044549Y0121359D01*
X0044514Y0121526D02*
X0044514Y0121526D01*
X0044879Y0119786D02*
X0063126Y0119786D01*
X0063126Y0118213D02*
X0045253Y0118213D01*
X0045629Y0116639D02*
X0063126Y0116639D01*
X0063126Y0113493D02*
X0046471Y0113493D01*
X0046005Y0115066D02*
X0069144Y0115066D01*
X0072679Y0118213D02*
X0073126Y0118213D01*
X0063126Y0111919D02*
X0046989Y0111919D01*
X0068487Y0074160D02*
X0078157Y0074160D01*
X0076397Y0072587D02*
X0069987Y0072587D01*
X0093467Y0048987D02*
X0094201Y0048987D01*
X0113205Y0094307D02*
X0114386Y0094307D01*
X0130485Y0110346D02*
X0190470Y0110346D01*
X0190370Y0110246D02*
X0190370Y0110246D01*
X0191830Y0111919D02*
X0137887Y0111919D01*
X0172764Y0086746D02*
X0173242Y0086746D01*
X0183283Y0098244D02*
X0189583Y0098244D01*
X0196508Y0074912D02*
X0196508Y0074912D01*
X0199362Y0074566D02*
X0199362Y0074566D01*
X0078398Y0204834D02*
X0078398Y0204834D01*
X0087682Y0217331D02*
X0058319Y0217331D01*
X0059856Y0218905D02*
X0086651Y0218905D01*
X0085313Y0220478D02*
X0061432Y0220478D01*
X0063830Y0222051D02*
X0083131Y0222051D01*
D26*
X0061630Y0137614D03*
X0067142Y0101394D03*
X0067929Y0091551D03*
X0080134Y0070291D03*
X0091551Y0064780D03*
X0084858Y0051787D03*
X0113992Y0041945D03*
X0115567Y0048638D03*
X0115961Y0035646D03*
X0122654Y0034465D03*
X0147850Y0058874D03*
X0147063Y0067929D03*
X0147457Y0088008D03*
X0138402Y0087220D03*
X0130528Y0088795D03*
X0128165Y0082102D03*
X0113205Y0094307D03*
X0097850Y0105724D03*
X0162417Y0097850D03*
X0176984Y0084465D03*
X0185252Y0092339D03*
X0191157Y0073047D03*
X0198244Y0067142D03*
X0208087Y0083677D03*
X0210449Y0093913D03*
X0194701Y0115173D03*
X0208874Y0137614D03*
X0229740Y0126591D03*
X0236827Y0134465D03*
X0222260Y0159268D03*
X0218323Y0167142D03*
X0232102Y0193913D03*
X0228165Y0201000D03*
X0172654Y0057299D03*
X0156512Y0034465D03*
D27*
X0139386Y0038795D03*
X0162024Y0053756D03*
X0145882Y0103756D03*
X0098244Y0087220D03*
D28*
X0216354Y0112811D03*
D29*
X0090764Y0096669D03*
X0089189Y0108874D03*
D30*
X0162024Y0053756D02*
X0162024Y0050606D01*
M02*
