G75*
%MOIN*%
%OFA0B0*%
%FSLAX24Y24*%
%IPPOS*%
%LPD*%
%AMOC8*
5,1,8,0,0,1.08239X$1,22.5*
%
%ADD10C,0.0030*%
%ADD11C,0.0079*%
%ADD12C,0.0050*%
%ADD13C,0.0080*%
%ADD14C,0.0100*%
%ADD15C,0.0060*%
%ADD16C,0.0063*%
%ADD17C,0.0020*%
%ADD18C,0.0118*%
%ADD19C,0.0040*%
D10*
X002048Y001985D02*
X002290Y001985D01*
X002290Y002349D01*
X002048Y002349D01*
X002169Y002167D02*
X002290Y002167D01*
X002410Y002106D02*
X002410Y002046D01*
X002471Y001985D01*
X002592Y001985D01*
X002653Y002046D01*
X002773Y001985D02*
X002895Y001985D01*
X002834Y001985D02*
X002834Y002349D01*
X002895Y002349D02*
X002773Y002349D01*
X002653Y002288D02*
X002653Y002228D01*
X002592Y002167D01*
X002471Y002167D01*
X002410Y002106D01*
X002410Y002288D02*
X002471Y002349D01*
X002592Y002349D01*
X002653Y002288D01*
X003014Y002288D02*
X003014Y002046D01*
X003075Y001985D01*
X003196Y001985D01*
X003257Y002046D01*
X003257Y002288D01*
X003196Y002349D01*
X003075Y002349D01*
X003014Y002288D01*
X003377Y002349D02*
X003377Y001985D01*
X003620Y002349D01*
X003620Y001985D01*
X003739Y001924D02*
X003982Y001924D01*
X004102Y002046D02*
X004163Y001985D01*
X004284Y001985D01*
X004345Y002046D01*
X004345Y002288D01*
X004284Y002349D01*
X004163Y002349D01*
X004102Y002288D01*
X004938Y003875D02*
X005181Y003875D01*
X004938Y004118D01*
X004938Y004178D01*
X004999Y004239D01*
X005120Y004239D01*
X005181Y004178D01*
X005301Y004178D02*
X005361Y004239D01*
X005483Y004239D01*
X005543Y004178D01*
X005543Y003936D01*
X005483Y003875D01*
X005361Y003875D01*
X005301Y003936D01*
X005664Y003875D02*
X005785Y003875D01*
X005724Y003875D02*
X005724Y004239D01*
X005664Y004239D02*
X005785Y004239D01*
X006007Y006355D02*
X006250Y006355D01*
X006007Y006598D01*
X006007Y006659D01*
X006068Y006719D01*
X006189Y006719D01*
X006250Y006659D01*
X006370Y006719D02*
X006612Y006719D01*
X006732Y006719D02*
X006732Y006416D01*
X006793Y006355D01*
X006914Y006355D01*
X006975Y006416D01*
X006975Y006719D01*
X007095Y006659D02*
X007155Y006719D01*
X007277Y006719D01*
X007337Y006659D01*
X007337Y006416D01*
X007277Y006355D01*
X007155Y006355D01*
X007095Y006416D01*
X007095Y006659D01*
X007457Y006294D02*
X007700Y006294D01*
X007820Y006416D02*
X007880Y006355D01*
X008002Y006355D01*
X008062Y006416D01*
X008062Y006659D01*
X008002Y006719D01*
X007880Y006719D01*
X007820Y006659D01*
X007815Y007300D02*
X008057Y007300D01*
X007815Y007543D01*
X007815Y007603D01*
X007875Y007664D01*
X007997Y007664D01*
X008057Y007603D01*
X008177Y007603D02*
X008238Y007664D01*
X008359Y007664D01*
X008420Y007603D01*
X008420Y007361D01*
X008359Y007300D01*
X008238Y007300D01*
X008177Y007361D01*
X006491Y006719D02*
X006491Y006355D01*
X007679Y003432D02*
X007861Y003250D01*
X007618Y003250D01*
X007679Y003068D02*
X007679Y003432D01*
X007980Y003371D02*
X008041Y003432D01*
X008162Y003432D01*
X008223Y003371D01*
X008223Y003128D01*
X008162Y003068D01*
X008041Y003068D01*
X007980Y003128D01*
X009284Y003136D02*
X009284Y002772D01*
X009527Y003136D01*
X009527Y002772D01*
X009647Y002772D02*
X009769Y002772D01*
X009708Y002772D02*
X009708Y003136D01*
X009769Y003136D02*
X009647Y003136D01*
X009889Y002712D02*
X010131Y002712D01*
X010251Y002833D02*
X010312Y002772D01*
X010433Y002772D01*
X010494Y002833D01*
X010494Y003076D01*
X010433Y003136D01*
X010312Y003136D01*
X010251Y003076D01*
X004121Y007226D02*
X004060Y007166D01*
X003817Y007166D01*
X003757Y007226D01*
X003757Y007348D01*
X003817Y007408D01*
X003696Y007528D02*
X003696Y007771D01*
X003757Y007891D02*
X004121Y008133D01*
X004060Y008253D02*
X004121Y008314D01*
X004121Y008435D01*
X004060Y008496D01*
X003999Y008496D01*
X003757Y008253D01*
X003757Y008496D01*
X003757Y008133D02*
X004121Y007891D01*
X004060Y007408D02*
X004121Y007348D01*
X004121Y007226D01*
X002121Y007891D02*
X002121Y008255D01*
X001939Y008255D01*
X001878Y008194D01*
X001878Y008073D01*
X001939Y008012D01*
X002121Y008012D01*
X001999Y008012D02*
X001878Y007891D01*
X001758Y007951D02*
X001698Y007891D01*
X001576Y007891D01*
X001516Y007951D01*
X001516Y008194D01*
X001576Y008255D01*
X001698Y008255D01*
X001758Y008194D01*
X001758Y008133D01*
X001698Y008073D01*
X001516Y008073D01*
X000955Y009072D02*
X000773Y009072D01*
X000713Y009132D01*
X000713Y009193D01*
X000773Y009254D01*
X000955Y009254D01*
X000955Y009436D02*
X000773Y009436D01*
X000713Y009375D01*
X000713Y009314D01*
X000773Y009254D01*
X000955Y009072D02*
X000955Y009436D01*
X001516Y009723D02*
X001576Y009662D01*
X001698Y009662D01*
X001758Y009723D01*
X001758Y009784D01*
X001698Y009844D01*
X001576Y009844D01*
X001516Y009784D01*
X001516Y009723D01*
X001576Y009844D02*
X001516Y009905D01*
X001516Y009966D01*
X001576Y010026D01*
X001698Y010026D01*
X001758Y009966D01*
X001758Y009905D01*
X001698Y009844D01*
X001878Y009844D02*
X001939Y009784D01*
X002121Y009784D01*
X001999Y009784D02*
X001878Y009662D01*
X001878Y009844D02*
X001878Y009966D01*
X001939Y010026D01*
X002121Y010026D01*
X002121Y009662D01*
X000895Y010843D02*
X000773Y010843D01*
X000713Y010904D01*
X000713Y011025D01*
X000834Y011025D01*
X000955Y010904D02*
X000895Y010843D01*
X000955Y010904D02*
X000955Y011147D01*
X000895Y011207D01*
X000773Y011207D01*
X000713Y011147D01*
X001516Y011737D02*
X001758Y011495D01*
X001758Y011434D01*
X001878Y011434D02*
X001999Y011555D01*
X001939Y011555D02*
X002121Y011555D01*
X002121Y011434D02*
X002121Y011798D01*
X001939Y011798D01*
X001878Y011737D01*
X001878Y011616D01*
X001939Y011555D01*
X001758Y011798D02*
X001516Y011798D01*
X001516Y011737D01*
X000955Y012615D02*
X000955Y012979D01*
X000773Y012979D01*
X000713Y012918D01*
X000713Y012797D01*
X000773Y012736D01*
X000955Y012736D01*
X000834Y012736D02*
X000713Y012615D01*
X002953Y014264D02*
X002953Y014318D01*
X003008Y014372D01*
X003170Y014372D01*
X003170Y014264D01*
X003116Y014209D01*
X003008Y014209D01*
X002953Y014264D01*
X003062Y014480D02*
X003170Y014372D01*
X003062Y014480D02*
X002953Y014534D01*
X003280Y014209D02*
X003496Y014209D01*
X003388Y014209D02*
X003388Y014534D01*
X003496Y014426D01*
X003606Y014480D02*
X003660Y014534D01*
X003768Y014534D01*
X003822Y014480D01*
X003822Y014264D01*
X003768Y014209D01*
X003660Y014209D01*
X003606Y014264D01*
X004938Y014305D02*
X004938Y014183D01*
X004999Y014123D01*
X005241Y014123D01*
X005302Y014183D01*
X005302Y014305D01*
X005241Y014365D01*
X005302Y014485D02*
X005302Y014728D01*
X005241Y014728D01*
X004999Y014485D01*
X004938Y014485D01*
X004999Y014365D02*
X004938Y014305D01*
X005625Y014101D02*
X005625Y013858D01*
X005747Y013739D02*
X005686Y013678D01*
X005686Y013557D01*
X005747Y013496D01*
X005989Y013496D01*
X006050Y013557D01*
X006050Y013678D01*
X005989Y013739D01*
X005989Y014221D02*
X005747Y014221D01*
X005686Y014282D01*
X005686Y014403D01*
X005747Y014464D01*
X005747Y014584D02*
X005686Y014644D01*
X005686Y014766D01*
X005747Y014826D01*
X005989Y014826D01*
X006050Y014766D01*
X006050Y014644D01*
X005989Y014584D01*
X005747Y014584D01*
X005989Y014464D02*
X006050Y014403D01*
X006050Y014282D01*
X005989Y014221D01*
X006050Y014946D02*
X005686Y014946D01*
X005807Y014946D02*
X005807Y015128D01*
X005868Y015189D01*
X005989Y015189D01*
X006050Y015128D01*
X006050Y014946D01*
X005807Y015067D02*
X005686Y015189D01*
X005686Y015309D02*
X005686Y015551D01*
X005868Y015430D02*
X005868Y015309D01*
X006050Y015309D02*
X005686Y015309D01*
X006050Y015309D02*
X006050Y015551D01*
X007792Y014766D02*
X007792Y014644D01*
X007853Y014584D01*
X007974Y014584D01*
X007974Y014766D01*
X007914Y014826D01*
X007853Y014826D01*
X007792Y014766D01*
X007974Y014584D02*
X008096Y014705D01*
X008156Y014826D01*
X008096Y014464D02*
X008156Y014403D01*
X008156Y014282D01*
X008096Y014221D01*
X007853Y014221D01*
X007792Y014282D01*
X007792Y014403D01*
X007853Y014464D01*
X009170Y014403D02*
X009170Y014282D01*
X009231Y014221D01*
X009473Y014221D01*
X009534Y014282D01*
X009534Y014403D01*
X009473Y014464D01*
X009534Y014584D02*
X009352Y014584D01*
X009413Y014705D01*
X009413Y014766D01*
X009352Y014826D01*
X009231Y014826D01*
X009170Y014766D01*
X009170Y014644D01*
X009231Y014584D01*
X009231Y014464D02*
X009170Y014403D01*
X009534Y014584D02*
X009534Y014826D01*
X010495Y012192D02*
X010495Y011828D01*
X010616Y011828D02*
X010374Y011828D01*
X010616Y012070D02*
X010495Y012192D01*
X010736Y011828D02*
X010979Y011828D01*
X010979Y012192D01*
X002468Y003863D02*
X002468Y003621D01*
X002407Y003560D01*
X002286Y003560D01*
X002225Y003621D01*
X002105Y003499D02*
X001862Y003499D01*
X001743Y003621D02*
X001682Y003560D01*
X001561Y003560D01*
X001500Y003621D01*
X001500Y003863D01*
X001561Y003924D01*
X001682Y003924D01*
X001743Y003863D01*
X001743Y003621D01*
X001380Y003621D02*
X001319Y003560D01*
X001198Y003560D01*
X001137Y003621D01*
X001137Y003924D01*
X001018Y003924D02*
X000775Y003924D01*
X000896Y003924D02*
X000896Y003560D01*
X001380Y003621D02*
X001380Y003924D01*
X002225Y003863D02*
X002286Y003924D01*
X002407Y003924D01*
X002468Y003863D01*
D11*
X005011Y003742D02*
X005011Y002561D01*
X005622Y002561D01*
X005622Y003742D01*
X005011Y003742D01*
X005379Y003545D02*
X005381Y003559D01*
X005387Y003573D01*
X005395Y003585D01*
X005407Y003593D01*
X005421Y003599D01*
X005435Y003601D01*
X005449Y003599D01*
X005463Y003593D01*
X005475Y003585D01*
X005483Y003573D01*
X005489Y003559D01*
X005491Y003545D01*
X005489Y003531D01*
X005483Y003517D01*
X005475Y003505D01*
X005463Y003497D01*
X005449Y003491D01*
X005435Y003489D01*
X005421Y003491D01*
X005407Y003497D01*
X005395Y003505D01*
X005387Y003517D01*
X005381Y003531D01*
X005379Y003545D01*
D12*
X005631Y005041D02*
X004608Y005041D01*
X004608Y005592D01*
X005631Y005592D01*
X005631Y005041D01*
X006281Y005513D02*
X007698Y005513D01*
X007698Y006301D01*
X006281Y006301D01*
X006281Y005513D01*
X005750Y005868D02*
X004096Y005868D01*
X004096Y007128D01*
X005750Y007128D01*
X005750Y005868D01*
X006576Y007206D02*
X007600Y007206D01*
X007600Y007757D01*
X006576Y007757D01*
X006576Y007206D01*
X003663Y004017D02*
X003663Y003466D01*
X002639Y003466D01*
X002639Y004017D01*
X003663Y004017D01*
X003663Y003033D02*
X002639Y003033D01*
X002639Y002482D01*
X003663Y002482D01*
X003663Y003033D01*
X003104Y001880D02*
X009104Y001880D01*
X009104Y000880D01*
X003104Y000880D01*
X003104Y001880D01*
X002526Y007182D02*
X002375Y007182D01*
X002451Y007182D02*
X002451Y007632D01*
X002526Y007632D02*
X002375Y007632D01*
X002219Y007632D02*
X001993Y007632D01*
X001918Y007557D01*
X001918Y007407D01*
X001993Y007332D01*
X002219Y007332D01*
X002219Y007182D02*
X002219Y007632D01*
X002069Y007332D02*
X001918Y007182D01*
X002285Y008328D02*
X001261Y008328D01*
X001261Y008801D01*
X002285Y008801D01*
X002285Y008328D01*
X003072Y008387D02*
X003072Y007364D01*
X003624Y007364D01*
X003624Y008387D01*
X003072Y008387D01*
X003033Y009923D02*
X002482Y009923D01*
X002482Y010946D01*
X003033Y010946D01*
X003033Y009923D01*
X002285Y010100D02*
X002285Y010572D01*
X001261Y010572D01*
X001261Y010100D01*
X002285Y010100D01*
X002285Y011872D02*
X001261Y011872D01*
X001261Y012344D01*
X002285Y012344D01*
X002285Y011872D01*
X002797Y013309D02*
X002797Y015435D01*
X003899Y015435D01*
X003899Y013309D01*
X002797Y013309D01*
X004254Y013958D02*
X004805Y013958D01*
X004805Y014982D01*
X004254Y014982D01*
X004254Y013958D01*
X006104Y013860D02*
X006891Y013860D01*
X006891Y015277D01*
X006104Y015277D01*
X006104Y013860D01*
X007108Y014057D02*
X007108Y015080D01*
X007659Y015080D01*
X007659Y014057D01*
X007108Y014057D01*
X008486Y014057D02*
X009037Y014057D01*
X009037Y015080D01*
X008486Y015080D01*
X008486Y014057D01*
X009844Y013191D02*
X009844Y012403D01*
X011419Y012403D01*
X011419Y013191D01*
X009844Y013191D01*
X009490Y011537D02*
X011754Y011537D01*
X011754Y004608D01*
X009490Y004608D01*
X009490Y011537D01*
X009765Y011261D02*
X010328Y011261D01*
X010328Y004883D01*
X011478Y004883D01*
X011478Y011261D01*
X010328Y011261D01*
X009765Y011261D02*
X009765Y004883D01*
X010328Y004883D01*
X010356Y003820D02*
X009332Y003820D01*
X009332Y003269D01*
X010356Y003269D01*
X010356Y003820D01*
X011560Y004805D02*
X011562Y004819D01*
X011568Y004833D01*
X011576Y004845D01*
X011588Y004853D01*
X011602Y004859D01*
X011616Y004861D01*
X011630Y004859D01*
X011644Y004853D01*
X011656Y004845D01*
X011664Y004833D01*
X011670Y004819D01*
X011672Y004805D01*
X011670Y004791D01*
X011664Y004777D01*
X011656Y004765D01*
X011644Y004757D01*
X011630Y004751D01*
X011616Y004749D01*
X011602Y004751D01*
X011588Y004757D01*
X011576Y004765D01*
X011568Y004777D01*
X011562Y004791D01*
X011560Y004805D01*
X008387Y002935D02*
X008387Y002383D01*
X007364Y002383D01*
X007364Y002935D01*
X008387Y002935D01*
D13*
X007836Y008742D02*
X004372Y008742D01*
X004214Y008899D01*
X004214Y012364D01*
X004372Y012521D01*
X007836Y012521D01*
X007994Y012364D01*
X007994Y008899D01*
X007836Y008742D01*
X002917Y006907D02*
X001417Y006907D01*
D14*
X001363Y006864D01*
X001311Y006818D01*
X001262Y006769D01*
X001215Y006717D01*
X001172Y006663D01*
X001131Y006607D01*
X001094Y006548D01*
X001060Y006488D01*
X001030Y006425D01*
X001003Y006362D01*
X000979Y006296D01*
X000959Y006230D01*
X000943Y006162D01*
X000931Y006094D01*
X000923Y006025D01*
X000918Y005956D01*
X000917Y005886D01*
X000920Y005817D01*
X000927Y005748D01*
X000938Y005680D01*
X000952Y005612D01*
X000971Y005545D01*
X000993Y005479D01*
X001018Y005414D01*
X001047Y005351D01*
X001080Y005290D01*
X001116Y005231D01*
X001155Y005174D01*
X001197Y005118D01*
X001242Y005066D01*
X001290Y005016D01*
X001341Y004969D01*
X001395Y004924D01*
X001450Y004883D01*
X001508Y004845D01*
X001568Y004810D01*
X001630Y004778D01*
X001693Y004750D01*
X001758Y004726D01*
X001824Y004705D01*
X001892Y004688D01*
X001960Y004674D01*
X002029Y004665D01*
X002098Y004659D01*
X002167Y004657D01*
X002236Y004659D01*
X002305Y004665D01*
X002374Y004674D01*
X002442Y004688D01*
X002510Y004705D01*
X002576Y004726D01*
X002641Y004750D01*
X002704Y004778D01*
X002766Y004810D01*
X002826Y004845D01*
X002884Y004883D01*
X002939Y004924D01*
X002993Y004969D01*
X003044Y005016D01*
X003092Y005066D01*
X003137Y005118D01*
X003179Y005174D01*
X003218Y005231D01*
X003254Y005290D01*
X003287Y005351D01*
X003316Y005414D01*
X003341Y005479D01*
X003363Y005545D01*
X003382Y005612D01*
X003396Y005680D01*
X003407Y005748D01*
X003414Y005817D01*
X003417Y005886D01*
X003416Y005956D01*
X003411Y006025D01*
X003403Y006094D01*
X003391Y006162D01*
X003375Y006230D01*
X003355Y006296D01*
X003331Y006362D01*
X003304Y006425D01*
X003274Y006488D01*
X003240Y006548D01*
X003203Y006607D01*
X003162Y006663D01*
X003119Y006717D01*
X003072Y006769D01*
X003023Y006818D01*
X002971Y006864D01*
X002917Y006907D01*
X004418Y012206D02*
X004420Y012226D01*
X004425Y012246D01*
X004435Y012264D01*
X004447Y012281D01*
X004462Y012295D01*
X004480Y012305D01*
X004499Y012313D01*
X004519Y012317D01*
X004539Y012317D01*
X004559Y012313D01*
X004578Y012305D01*
X004596Y012295D01*
X004611Y012281D01*
X004623Y012264D01*
X004633Y012246D01*
X004638Y012226D01*
X004640Y012206D01*
X004638Y012186D01*
X004633Y012166D01*
X004623Y012148D01*
X004611Y012131D01*
X004596Y012117D01*
X004578Y012107D01*
X004559Y012099D01*
X004539Y012095D01*
X004519Y012095D01*
X004499Y012099D01*
X004480Y012107D01*
X004462Y012117D01*
X004447Y012131D01*
X004435Y012148D01*
X004425Y012166D01*
X004420Y012186D01*
X004418Y012206D01*
D15*
X005784Y011303D02*
X005784Y010876D01*
X005784Y011090D02*
X006424Y011090D01*
X006211Y010876D01*
X006318Y010659D02*
X006424Y010552D01*
X006424Y010339D01*
X006318Y010232D01*
X005891Y010232D01*
X005784Y010339D01*
X005784Y010552D01*
X005891Y010659D01*
X005784Y010016D02*
X005784Y009802D01*
X005784Y009909D02*
X006424Y009909D01*
X006424Y009802D02*
X006424Y010016D01*
X001167Y005907D02*
X001169Y005970D01*
X001175Y006032D01*
X001185Y006094D01*
X001198Y006156D01*
X001216Y006216D01*
X001237Y006275D01*
X001262Y006333D01*
X001291Y006389D01*
X001323Y006443D01*
X001358Y006495D01*
X001396Y006544D01*
X001438Y006592D01*
X001482Y006636D01*
X001530Y006678D01*
X001579Y006716D01*
X001631Y006751D01*
X001685Y006783D01*
X001741Y006812D01*
X001799Y006837D01*
X001858Y006858D01*
X001918Y006876D01*
X001980Y006889D01*
X002042Y006899D01*
X002104Y006905D01*
X002167Y006907D01*
X002230Y006905D01*
X002292Y006899D01*
X002354Y006889D01*
X002416Y006876D01*
X002476Y006858D01*
X002535Y006837D01*
X002593Y006812D01*
X002649Y006783D01*
X002703Y006751D01*
X002755Y006716D01*
X002804Y006678D01*
X002852Y006636D01*
X002896Y006592D01*
X002938Y006544D01*
X002976Y006495D01*
X003011Y006443D01*
X003043Y006389D01*
X003072Y006333D01*
X003097Y006275D01*
X003118Y006216D01*
X003136Y006156D01*
X003149Y006094D01*
X003159Y006032D01*
X003165Y005970D01*
X003167Y005907D01*
X003165Y005844D01*
X003159Y005782D01*
X003149Y005720D01*
X003136Y005658D01*
X003118Y005598D01*
X003097Y005539D01*
X003072Y005481D01*
X003043Y005425D01*
X003011Y005371D01*
X002976Y005319D01*
X002938Y005270D01*
X002896Y005222D01*
X002852Y005178D01*
X002804Y005136D01*
X002755Y005098D01*
X002703Y005063D01*
X002649Y005031D01*
X002593Y005002D01*
X002535Y004977D01*
X002476Y004956D01*
X002416Y004938D01*
X002354Y004925D01*
X002292Y004915D01*
X002230Y004909D01*
X002167Y004907D01*
X002104Y004909D01*
X002042Y004915D01*
X001980Y004925D01*
X001918Y004938D01*
X001858Y004956D01*
X001799Y004977D01*
X001741Y005002D01*
X001685Y005031D01*
X001631Y005063D01*
X001579Y005098D01*
X001530Y005136D01*
X001482Y005178D01*
X001438Y005222D01*
X001396Y005270D01*
X001358Y005319D01*
X001323Y005371D01*
X001291Y005425D01*
X001262Y005481D01*
X001237Y005539D01*
X001216Y005598D01*
X001198Y005658D01*
X001185Y005720D01*
X001175Y005782D01*
X001169Y005844D01*
X001167Y005907D01*
D16*
X004293Y006439D02*
X004293Y006557D01*
X004785Y006990D02*
X005061Y006990D01*
X005553Y006557D02*
X005553Y006439D01*
X005061Y006006D02*
X004785Y006006D01*
D17*
X004746Y004962D02*
X004746Y004687D01*
X004838Y004687D02*
X004654Y004687D01*
X004838Y004870D02*
X004746Y004962D01*
X004926Y004962D02*
X005110Y004687D01*
X005198Y004641D02*
X005382Y004641D01*
X005470Y004733D02*
X005516Y004687D01*
X005608Y004687D01*
X005653Y004733D01*
X005653Y004916D01*
X005608Y004962D01*
X005516Y004962D01*
X005470Y004916D01*
X005110Y004962D02*
X004926Y004687D01*
X002973Y009510D02*
X002882Y009510D01*
X002836Y009556D01*
X002747Y009556D02*
X002702Y009510D01*
X002610Y009510D01*
X002564Y009556D01*
X002564Y009601D01*
X002610Y009647D01*
X002656Y009647D01*
X002610Y009647D02*
X002564Y009693D01*
X002564Y009739D01*
X002610Y009785D01*
X002702Y009785D01*
X002747Y009739D01*
X002836Y009739D02*
X002882Y009785D01*
X002973Y009785D01*
X003019Y009739D01*
X003019Y009556D01*
X002973Y009510D01*
D18*
X001222Y009450D02*
X001222Y009057D01*
X001222Y010828D02*
X001222Y011222D01*
X001222Y012600D02*
X001222Y012994D01*
D19*
X011057Y004317D02*
X011057Y004010D01*
X011057Y004163D02*
X011517Y004163D01*
X011364Y004010D01*
X011517Y003857D02*
X011057Y003857D01*
X011517Y003550D01*
X011057Y003550D01*
X011134Y003396D02*
X011057Y003319D01*
X011057Y003166D01*
X011134Y003089D01*
X011441Y003089D01*
X011517Y003166D01*
X011517Y003319D01*
X011441Y003396D01*
M02*
