G75*
%MOIN*%
%OFA0B0*%
%FSLAX24Y24*%
%IPPOS*%
%LPD*%
%AMOC8*
5,1,8,0,0,1.08239X$1,22.5*
%
%ADD10C,0.0060*%
%ADD11C,0.0040*%
%ADD12C,0.0079*%
%ADD13C,0.0050*%
%ADD14C,0.0030*%
D10*
X006731Y018528D02*
X006731Y019014D01*
X006731Y018771D02*
X007459Y018771D01*
X007337Y019253D02*
X006852Y019253D01*
X006731Y019375D01*
X006731Y019617D01*
X006852Y019739D01*
X007337Y019739D01*
X007459Y019617D01*
X007459Y019375D01*
X007337Y019253D01*
X007216Y019978D02*
X007216Y020342D01*
X007095Y020464D01*
X006852Y020464D01*
X006731Y020342D01*
X006731Y019978D01*
X007459Y019978D01*
X007459Y021428D02*
X006731Y021428D01*
X006731Y021792D01*
X006852Y021914D01*
X006973Y021914D01*
X007095Y021792D01*
X007095Y021428D01*
X007459Y021428D02*
X007459Y021792D01*
X007337Y021914D01*
X007216Y021914D01*
X007095Y021792D01*
X007095Y022153D02*
X007095Y022396D01*
X006731Y022153D02*
X007459Y022153D01*
X007459Y022639D01*
X007459Y022879D02*
X007459Y023364D01*
X007095Y023121D02*
X007095Y022879D01*
X006731Y022879D02*
X007459Y022879D01*
X006731Y022879D02*
X006731Y023364D01*
X006731Y022639D02*
X006731Y022153D01*
X006731Y024329D02*
X006731Y024693D01*
X006852Y024814D01*
X006973Y024814D01*
X007095Y024693D01*
X007095Y024329D01*
X007095Y024693D02*
X007216Y024814D01*
X007337Y024814D01*
X007459Y024693D01*
X007459Y024329D01*
X006731Y024329D01*
X006973Y025054D02*
X007459Y025054D01*
X007216Y025054D02*
X006973Y025296D01*
X006973Y025418D01*
X007095Y025658D02*
X007337Y025658D01*
X007459Y025779D01*
X007459Y026022D01*
X007337Y026143D01*
X007095Y026143D01*
X006973Y026022D01*
X006973Y025779D01*
X007095Y025658D01*
X006973Y026383D02*
X006973Y026626D01*
X006852Y026504D02*
X007337Y026504D01*
X007459Y026626D01*
X007459Y026866D02*
X006731Y026866D01*
X006973Y026988D02*
X006973Y027230D01*
X007095Y027352D01*
X007459Y027352D01*
X007337Y027591D02*
X007095Y027591D01*
X006973Y027713D01*
X006973Y027955D01*
X007095Y028077D01*
X007216Y028077D01*
X007216Y027591D01*
X007337Y027591D02*
X007459Y027713D01*
X007459Y027955D01*
X007459Y028316D02*
X006973Y028316D01*
X006973Y028559D02*
X006973Y028680D01*
X006973Y028559D02*
X007216Y028316D01*
X006973Y029645D02*
X006731Y029888D01*
X007459Y029888D01*
X007459Y029645D02*
X007459Y030131D01*
X007459Y030370D02*
X007459Y030492D01*
X007337Y030492D01*
X007337Y030370D01*
X007459Y030370D01*
X007459Y030733D02*
X006973Y031218D01*
X006852Y031218D01*
X006731Y031097D01*
X006731Y030854D01*
X006852Y030733D01*
X007459Y030733D02*
X007459Y031218D01*
X007459Y031701D02*
X006973Y031943D01*
X006973Y031458D02*
X007459Y031701D01*
X006973Y026988D02*
X007095Y026866D01*
X011653Y030080D02*
X011653Y030721D01*
X011973Y030721D01*
X012080Y030614D01*
X012080Y030400D01*
X011973Y030294D01*
X011653Y030294D01*
X012297Y030400D02*
X012724Y030400D01*
X012724Y030507D02*
X012724Y030080D01*
X012297Y030080D02*
X012297Y030507D01*
X012511Y030721D01*
X012724Y030507D01*
X012942Y030721D02*
X013369Y030721D01*
X013155Y030721D02*
X013155Y030080D01*
X013586Y030080D02*
X014013Y030080D01*
X014231Y030080D02*
X014444Y030080D01*
X014338Y030080D02*
X014338Y030721D01*
X014444Y030721D02*
X014231Y030721D01*
X014660Y030721D02*
X015088Y030721D01*
X014874Y030721D02*
X014874Y030080D01*
X015305Y030080D02*
X015305Y030721D01*
X015732Y030721D01*
X015519Y030400D02*
X015305Y030400D01*
X015305Y030080D02*
X015732Y030080D01*
X013586Y030080D02*
X013586Y030721D01*
X012601Y024331D02*
X012601Y024225D01*
X012601Y024011D02*
X012601Y023584D01*
X012707Y023584D02*
X012494Y023584D01*
X012276Y023584D02*
X011849Y023584D01*
X011849Y023691D01*
X012276Y024118D01*
X012276Y024225D01*
X011849Y024225D01*
X012494Y024011D02*
X012601Y024011D01*
X012924Y023904D02*
X012924Y023691D01*
X013030Y023584D01*
X013351Y023584D01*
X013351Y023477D02*
X013351Y024011D01*
X013030Y024011D01*
X012924Y023904D01*
X013137Y023371D02*
X013244Y023371D01*
X013351Y023477D01*
X013568Y023584D02*
X013568Y024225D01*
X013888Y024225D01*
X013995Y024118D01*
X013995Y024011D01*
X013888Y023904D01*
X013568Y023904D01*
X013568Y023584D02*
X013888Y023584D01*
X013995Y023691D01*
X013995Y023798D01*
X013888Y023904D01*
X014213Y023904D02*
X014320Y024011D01*
X014533Y024011D01*
X014640Y023904D01*
X014640Y023798D01*
X014213Y023798D01*
X014213Y023904D02*
X014213Y023691D01*
X014320Y023584D01*
X014533Y023584D01*
X014857Y023691D02*
X014857Y023904D01*
X014964Y024011D01*
X015178Y024011D01*
X015284Y023904D01*
X015284Y023798D01*
X014857Y023798D01*
X014857Y023691D02*
X014964Y023584D01*
X015178Y023584D01*
X013029Y020288D02*
X012602Y020288D01*
X012815Y020288D02*
X012815Y019647D01*
X012384Y019647D02*
X012171Y019861D01*
X012278Y019861D02*
X011957Y019861D01*
X011957Y019647D02*
X011957Y020288D01*
X012278Y020288D01*
X012384Y020181D01*
X012384Y019967D01*
X012278Y019861D01*
X011740Y019967D02*
X011313Y019967D01*
X011313Y020074D02*
X011526Y020288D01*
X011740Y020074D01*
X011740Y019647D01*
X011313Y019647D02*
X011313Y020074D01*
X011095Y020288D02*
X011095Y019754D01*
X010989Y019647D01*
X010775Y019647D01*
X010668Y019754D01*
X010668Y020288D01*
X017558Y020288D02*
X017772Y020288D01*
X017665Y020288D02*
X017665Y019647D01*
X017558Y019647D02*
X017772Y019647D01*
X017988Y019647D02*
X018415Y020074D01*
X018415Y020181D01*
X018308Y020288D01*
X018095Y020288D01*
X017988Y020181D01*
X017988Y019647D02*
X018415Y019647D01*
X018632Y019754D02*
X018632Y020181D01*
X018739Y020288D01*
X018953Y020288D01*
X019059Y020181D01*
X019059Y019754D02*
X018953Y019647D01*
X018739Y019647D01*
X018632Y019754D01*
D11*
X019073Y024046D02*
X019073Y024272D01*
X019149Y024347D01*
X019300Y024347D01*
X019375Y024272D01*
X019375Y024046D01*
X019375Y024197D02*
X019526Y024347D01*
X019601Y024499D02*
X019601Y024801D01*
X019450Y024952D02*
X019526Y025027D01*
X019526Y025178D01*
X019450Y025254D01*
X019300Y025405D02*
X019300Y025707D01*
X019526Y025631D02*
X019073Y025631D01*
X019300Y025405D01*
X019149Y025254D02*
X019073Y025178D01*
X019073Y025027D01*
X019149Y024952D01*
X019450Y024952D01*
X019526Y024046D02*
X019073Y024046D01*
X018351Y025882D02*
X018351Y026189D01*
X018351Y026036D02*
X018811Y026036D01*
X018811Y026342D02*
X018351Y026342D01*
X018811Y026342D02*
X018811Y026649D01*
X018811Y026803D02*
X018351Y026803D01*
X018351Y027033D01*
X018428Y027110D01*
X018581Y027110D01*
X018658Y027033D01*
X018658Y026803D01*
X018735Y027263D02*
X018811Y027340D01*
X018811Y027493D01*
X018735Y027570D01*
X018658Y027570D01*
X018581Y027493D01*
X018581Y027417D01*
X018581Y027493D02*
X018504Y027570D01*
X018428Y027570D01*
X018351Y027493D01*
X018351Y027340D01*
X018428Y027263D01*
X019073Y027589D02*
X019073Y027815D01*
X019149Y027891D01*
X019300Y027891D01*
X019375Y027815D01*
X019375Y027589D01*
X019526Y027589D02*
X019073Y027589D01*
X019375Y027740D02*
X019526Y027891D01*
X019601Y028042D02*
X019601Y028344D01*
X019450Y028495D02*
X019526Y028571D01*
X019526Y028722D01*
X019450Y028797D01*
X019450Y028948D02*
X019526Y029024D01*
X019526Y029175D01*
X019450Y029250D01*
X019375Y029250D01*
X019300Y029175D01*
X019300Y029099D01*
X019300Y029175D02*
X019224Y029250D01*
X019149Y029250D01*
X019073Y029175D01*
X019073Y029024D01*
X019149Y028948D01*
X019149Y028797D02*
X019073Y028722D01*
X019073Y028571D01*
X019149Y028495D01*
X019450Y028495D01*
X022288Y027493D02*
X022518Y027263D01*
X022518Y027570D01*
X022748Y027493D02*
X022288Y027493D01*
X022365Y027110D02*
X022518Y027110D01*
X022595Y027033D01*
X022595Y026803D01*
X022748Y026803D02*
X022288Y026803D01*
X022288Y027033D01*
X022365Y027110D01*
X022288Y026342D02*
X022748Y026342D01*
X022748Y026649D01*
X022748Y026036D02*
X022288Y026036D01*
X022288Y026189D02*
X022288Y025882D01*
X023010Y025631D02*
X023237Y025405D01*
X023237Y025707D01*
X023463Y025631D02*
X023010Y025631D01*
X023086Y025254D02*
X023010Y025178D01*
X023010Y024952D01*
X023463Y024952D01*
X023463Y025178D01*
X023387Y025254D01*
X023086Y025254D01*
X023538Y024801D02*
X023538Y024499D01*
X023463Y024347D02*
X023312Y024197D01*
X023312Y024272D02*
X023312Y024046D01*
X023463Y024046D02*
X023010Y024046D01*
X023010Y024272D01*
X023086Y024347D01*
X023237Y024347D01*
X023312Y024272D01*
X023312Y027589D02*
X023312Y027815D01*
X023237Y027891D01*
X023086Y027891D01*
X023010Y027815D01*
X023010Y027589D01*
X023463Y027589D01*
X023312Y027740D02*
X023463Y027891D01*
X023538Y028042D02*
X023538Y028344D01*
X023463Y028495D02*
X023463Y028722D01*
X023387Y028797D01*
X023086Y028797D01*
X023010Y028722D01*
X023010Y028495D01*
X023463Y028495D01*
X023387Y028948D02*
X023463Y029024D01*
X023463Y029175D01*
X023387Y029250D01*
X023312Y029250D01*
X023237Y029175D01*
X023237Y029099D01*
X023237Y029175D02*
X023161Y029250D01*
X023086Y029250D01*
X023010Y029175D01*
X023010Y029024D01*
X023086Y028948D01*
X023090Y032576D02*
X023167Y032653D01*
X023167Y032960D01*
X023090Y033036D01*
X022860Y033036D01*
X022860Y032576D01*
X023090Y032576D01*
X023320Y032653D02*
X023397Y032576D01*
X023550Y032576D01*
X023627Y032653D01*
X023781Y032653D02*
X023857Y032576D01*
X024011Y032576D01*
X024088Y032653D01*
X024241Y032653D02*
X024318Y032576D01*
X024471Y032576D01*
X024548Y032653D01*
X024548Y032960D01*
X024471Y033036D01*
X024318Y033036D01*
X024241Y032960D01*
X024241Y032653D01*
X024088Y032960D02*
X024011Y033036D01*
X023857Y033036D01*
X023781Y032960D01*
X023781Y032653D01*
X023627Y032960D02*
X023550Y033036D01*
X023397Y033036D01*
X023320Y032960D01*
X023320Y032653D01*
X024701Y032576D02*
X024701Y033036D01*
X025008Y032576D01*
X025008Y033036D01*
X025162Y032960D02*
X025239Y033036D01*
X025392Y033036D01*
X025469Y032960D01*
X025469Y032883D01*
X025162Y032576D01*
X025469Y032576D01*
X027918Y024021D02*
X027842Y023944D01*
X027842Y023637D01*
X027918Y023560D01*
X028072Y023560D01*
X028149Y023637D01*
X028302Y023560D02*
X028302Y024021D01*
X028609Y023560D01*
X028609Y024021D01*
X028763Y024021D02*
X028763Y023790D01*
X028916Y023867D01*
X028993Y023867D01*
X029069Y023790D01*
X029069Y023637D01*
X028993Y023560D01*
X028839Y023560D01*
X028763Y023637D01*
X028763Y024021D02*
X029069Y024021D01*
X028149Y023944D02*
X028072Y024021D01*
X027918Y024021D01*
X028053Y021605D02*
X027981Y021533D01*
X027981Y021245D01*
X028053Y021172D01*
X028198Y021172D01*
X028270Y021245D01*
X028270Y021533D01*
X028198Y021605D01*
X028053Y021605D01*
X027835Y021533D02*
X027763Y021605D01*
X027618Y021605D01*
X027546Y021533D01*
X027546Y021245D01*
X027618Y021172D01*
X027763Y021172D01*
X027835Y021245D01*
X027400Y021245D02*
X027328Y021172D01*
X027183Y021172D01*
X027111Y021245D01*
X027111Y021533D01*
X027183Y021605D01*
X027328Y021605D01*
X027400Y021533D01*
X026965Y021533D02*
X026965Y021245D01*
X026893Y021172D01*
X026676Y021172D01*
X026676Y021605D01*
X026893Y021605D01*
X026965Y021533D01*
X028416Y021605D02*
X028416Y021172D01*
X028705Y021172D02*
X028416Y021605D01*
X028705Y021605D02*
X028705Y021172D01*
X028851Y021172D02*
X029140Y021172D01*
X028995Y021172D02*
X028995Y021605D01*
X028851Y021461D01*
X023827Y016887D02*
X023520Y016887D01*
X023674Y016887D02*
X023674Y017347D01*
X023520Y017194D01*
X023367Y017271D02*
X023290Y017347D01*
X023137Y017347D01*
X023060Y017271D01*
X023060Y016964D01*
X023137Y016887D01*
X023290Y016887D01*
X023367Y016964D01*
X023367Y017117D01*
X023213Y017117D01*
X022906Y016887D02*
X022600Y016887D01*
X022600Y017347D01*
X022906Y017347D01*
X022753Y017117D02*
X022600Y017117D01*
X022446Y017117D02*
X022369Y017041D01*
X022139Y017041D01*
X022293Y017041D02*
X022446Y016887D01*
X022446Y017117D02*
X022446Y017271D01*
X022369Y017347D01*
X022139Y017347D01*
X022139Y016887D01*
X015664Y024499D02*
X015664Y024801D01*
X015589Y024952D02*
X015589Y025178D01*
X015513Y025254D01*
X015438Y025254D01*
X015363Y025178D01*
X015363Y024952D01*
X015589Y024952D02*
X015136Y024952D01*
X015136Y025178D01*
X015212Y025254D01*
X015287Y025254D01*
X015363Y025178D01*
X015363Y025405D02*
X015136Y025631D01*
X015589Y025631D01*
X015363Y025707D02*
X015363Y025405D01*
X014874Y026036D02*
X014414Y026036D01*
X014414Y026189D02*
X014414Y025882D01*
X014414Y026342D02*
X014874Y026342D01*
X014874Y026649D01*
X014874Y026803D02*
X014414Y026803D01*
X014414Y027033D01*
X014491Y027110D01*
X014644Y027110D01*
X014721Y027033D01*
X014721Y026803D01*
X014874Y027263D02*
X014567Y027570D01*
X014491Y027570D01*
X014414Y027493D01*
X014414Y027340D01*
X014491Y027263D01*
X014874Y027263D02*
X014874Y027570D01*
X015136Y027589D02*
X015136Y027815D01*
X015212Y027891D01*
X015363Y027891D01*
X015438Y027815D01*
X015438Y027589D01*
X015589Y027589D02*
X015136Y027589D01*
X015438Y027740D02*
X015589Y027891D01*
X015664Y028042D02*
X015664Y028344D01*
X015589Y028495D02*
X015589Y028722D01*
X015513Y028797D01*
X015438Y028797D01*
X015363Y028722D01*
X015363Y028495D01*
X015589Y028495D02*
X015136Y028495D01*
X015136Y028722D01*
X015212Y028797D01*
X015287Y028797D01*
X015363Y028722D01*
X015513Y028948D02*
X015589Y029024D01*
X015589Y029175D01*
X015513Y029250D01*
X015438Y029250D01*
X015363Y029175D01*
X015363Y029099D01*
X015363Y029175D02*
X015287Y029250D01*
X015212Y029250D01*
X015136Y029175D01*
X015136Y029024D01*
X015212Y028948D01*
X015212Y024347D02*
X015363Y024347D01*
X015438Y024272D01*
X015438Y024046D01*
X015438Y024197D02*
X015589Y024347D01*
X015589Y024046D02*
X015136Y024046D01*
X015136Y024272D01*
X015212Y024347D01*
X013961Y022914D02*
X013961Y022462D01*
X013810Y022462D02*
X014112Y022462D01*
X013810Y022764D02*
X013961Y022914D01*
X013659Y022914D02*
X013659Y022462D01*
X013357Y022914D01*
X013357Y022462D01*
X013205Y022537D02*
X013130Y022462D01*
X012979Y022462D01*
X012904Y022537D01*
X012904Y022839D01*
X012979Y022914D01*
X013130Y022914D01*
X013205Y022839D01*
X011652Y024046D02*
X011199Y024046D01*
X011199Y024272D01*
X011275Y024347D01*
X011426Y024347D01*
X011501Y024272D01*
X011501Y024046D01*
X011501Y024197D02*
X011652Y024347D01*
X011727Y024499D02*
X011727Y024801D01*
X011652Y024952D02*
X011350Y024952D01*
X011199Y025103D01*
X011350Y025254D01*
X011652Y025254D01*
X011426Y025254D02*
X011426Y024952D01*
X011426Y025405D02*
X011199Y025631D01*
X011652Y025631D01*
X011426Y025707D02*
X011426Y025405D01*
X010937Y026036D02*
X010477Y026036D01*
X010477Y026189D02*
X010477Y025882D01*
X010477Y026342D02*
X010937Y026342D01*
X010937Y026649D01*
X010937Y026803D02*
X010477Y026803D01*
X010477Y027033D01*
X010554Y027110D01*
X010707Y027110D01*
X010784Y027033D01*
X010784Y026803D01*
X010937Y027263D02*
X010937Y027570D01*
X010937Y027417D02*
X010477Y027417D01*
X010630Y027263D01*
X011199Y027589D02*
X011199Y027815D01*
X011275Y027891D01*
X011426Y027891D01*
X011501Y027815D01*
X011501Y027589D01*
X011652Y027589D02*
X011199Y027589D01*
X011501Y027740D02*
X011652Y027891D01*
X011727Y028042D02*
X011727Y028344D01*
X011652Y028495D02*
X011350Y028495D01*
X011199Y028646D01*
X011350Y028797D01*
X011652Y028797D01*
X011576Y028948D02*
X011652Y029024D01*
X011652Y029175D01*
X011576Y029250D01*
X011501Y029250D01*
X011426Y029175D01*
X011426Y029099D01*
X011426Y029175D02*
X011350Y029250D01*
X011275Y029250D01*
X011199Y029175D01*
X011199Y029024D01*
X011275Y028948D01*
X011426Y028797D02*
X011426Y028495D01*
X009809Y029778D02*
X009658Y029627D01*
X009507Y029778D01*
X009507Y030080D01*
X009280Y030080D02*
X009054Y029853D01*
X009355Y029853D01*
X009280Y029627D02*
X009280Y030080D01*
X008902Y030004D02*
X008827Y030080D01*
X008676Y030080D01*
X008601Y030004D01*
X008902Y030004D02*
X008902Y029929D01*
X008601Y029627D01*
X008902Y029627D01*
X009809Y029778D02*
X009809Y030080D01*
X009598Y030687D02*
X009598Y030989D01*
X009447Y030838D02*
X009749Y030838D01*
X008962Y030838D02*
X008660Y030838D01*
D12*
X008670Y028436D02*
X008670Y024971D01*
X010245Y024971D01*
X010245Y028436D01*
X008670Y028436D01*
X008749Y027530D02*
X010166Y027530D01*
X010166Y025877D01*
X008749Y025877D01*
X008749Y027530D01*
X009842Y027294D02*
X009844Y027312D01*
X009850Y027330D01*
X009859Y027346D01*
X009871Y027359D01*
X009886Y027370D01*
X009903Y027378D01*
X009921Y027382D01*
X009939Y027382D01*
X009957Y027378D01*
X009974Y027370D01*
X009989Y027359D01*
X010001Y027346D01*
X010010Y027330D01*
X010016Y027312D01*
X010018Y027294D01*
X010016Y027276D01*
X010010Y027258D01*
X010001Y027242D01*
X009989Y027229D01*
X009974Y027218D01*
X009957Y027210D01*
X009939Y027206D01*
X009921Y027206D01*
X009903Y027210D01*
X009886Y027218D01*
X009871Y027229D01*
X009859Y027242D01*
X009850Y027258D01*
X009844Y027276D01*
X009842Y027294D01*
X012686Y027530D02*
X012686Y025877D01*
X014103Y025877D01*
X014103Y027530D01*
X012686Y027530D01*
X012607Y028436D02*
X012607Y024971D01*
X014182Y024971D01*
X014182Y028436D01*
X012607Y028436D01*
X013779Y027294D02*
X013781Y027312D01*
X013787Y027330D01*
X013796Y027346D01*
X013808Y027359D01*
X013823Y027370D01*
X013840Y027378D01*
X013858Y027382D01*
X013876Y027382D01*
X013894Y027378D01*
X013911Y027370D01*
X013926Y027359D01*
X013938Y027346D01*
X013947Y027330D01*
X013953Y027312D01*
X013955Y027294D01*
X013953Y027276D01*
X013947Y027258D01*
X013938Y027242D01*
X013926Y027229D01*
X013911Y027218D01*
X013894Y027210D01*
X013876Y027206D01*
X013858Y027206D01*
X013840Y027210D01*
X013823Y027218D01*
X013808Y027229D01*
X013796Y027242D01*
X013787Y027258D01*
X013781Y027276D01*
X013779Y027294D01*
X016623Y027530D02*
X016623Y025877D01*
X018040Y025877D01*
X018040Y027530D01*
X016623Y027530D01*
X016544Y028436D02*
X016544Y024971D01*
X018119Y024971D01*
X018119Y028436D01*
X016544Y028436D01*
X017716Y027294D02*
X017718Y027312D01*
X017724Y027330D01*
X017733Y027346D01*
X017745Y027359D01*
X017760Y027370D01*
X017777Y027378D01*
X017795Y027382D01*
X017813Y027382D01*
X017831Y027378D01*
X017848Y027370D01*
X017863Y027359D01*
X017875Y027346D01*
X017884Y027330D01*
X017890Y027312D01*
X017892Y027294D01*
X017890Y027276D01*
X017884Y027258D01*
X017875Y027242D01*
X017863Y027229D01*
X017848Y027218D01*
X017831Y027210D01*
X017813Y027206D01*
X017795Y027206D01*
X017777Y027210D01*
X017760Y027218D01*
X017745Y027229D01*
X017733Y027242D01*
X017724Y027258D01*
X017718Y027276D01*
X017716Y027294D01*
X020560Y027530D02*
X020560Y025877D01*
X021977Y025877D01*
X021977Y027530D01*
X020560Y027530D01*
X020481Y028436D02*
X020481Y024971D01*
X022056Y024971D01*
X022056Y028436D01*
X020481Y028436D01*
X021653Y027294D02*
X021655Y027312D01*
X021661Y027330D01*
X021670Y027346D01*
X021682Y027359D01*
X021697Y027370D01*
X021714Y027378D01*
X021732Y027382D01*
X021750Y027382D01*
X021768Y027378D01*
X021785Y027370D01*
X021800Y027359D01*
X021812Y027346D01*
X021821Y027330D01*
X021827Y027312D01*
X021829Y027294D01*
X021827Y027276D01*
X021821Y027258D01*
X021812Y027242D01*
X021800Y027229D01*
X021785Y027218D01*
X021768Y027210D01*
X021750Y027206D01*
X021732Y027206D01*
X021714Y027210D01*
X021697Y027218D01*
X021682Y027229D01*
X021670Y027242D01*
X021661Y027258D01*
X021655Y027276D01*
X021653Y027294D01*
X025756Y022570D02*
X025756Y019223D01*
X030245Y019223D01*
X030245Y022570D01*
X025756Y022570D01*
D13*
X008296Y018042D02*
X008296Y017373D01*
X015343Y017373D01*
X015343Y018042D01*
X015107Y018042D01*
X015107Y018397D01*
X015343Y018397D01*
X015343Y019460D01*
X014162Y019460D01*
X014162Y019223D01*
X015107Y019223D01*
X015107Y018397D01*
X015343Y018397D02*
X015343Y018042D01*
X015107Y018042D02*
X015107Y017609D01*
X008532Y017609D01*
X008532Y018042D01*
X008296Y018042D01*
X008296Y018397D01*
X008532Y018397D01*
X008532Y019223D01*
X009477Y019223D01*
X009477Y019460D01*
X008296Y019460D01*
X008296Y018397D01*
X008532Y018397D02*
X008532Y018042D01*
X008631Y018987D02*
X008633Y018999D01*
X008638Y019010D01*
X008647Y019019D01*
X008658Y019024D01*
X008670Y019026D01*
X008682Y019024D01*
X008693Y019019D01*
X008702Y019010D01*
X008707Y018999D01*
X008709Y018987D01*
X008707Y018975D01*
X008702Y018964D01*
X008693Y018955D01*
X008682Y018950D01*
X008670Y018948D01*
X008658Y018950D01*
X008647Y018955D01*
X008638Y018964D01*
X008633Y018975D01*
X008631Y018987D01*
X009477Y019460D02*
X014162Y019460D01*
X015579Y019460D02*
X015579Y018397D01*
X015815Y018397D01*
X015815Y019223D01*
X016760Y019223D01*
X016760Y019460D01*
X015579Y019460D01*
X015914Y018987D02*
X015916Y018999D01*
X015921Y019010D01*
X015930Y019019D01*
X015941Y019024D01*
X015953Y019026D01*
X015965Y019024D01*
X015976Y019019D01*
X015985Y019010D01*
X015990Y018999D01*
X015992Y018987D01*
X015990Y018975D01*
X015985Y018964D01*
X015976Y018955D01*
X015965Y018950D01*
X015953Y018948D01*
X015941Y018950D01*
X015930Y018955D01*
X015921Y018964D01*
X015916Y018975D01*
X015914Y018987D01*
X015815Y018397D02*
X015815Y018042D01*
X015579Y018042D01*
X015579Y018397D01*
X015579Y018042D02*
X015579Y017373D01*
X021052Y017373D01*
X021052Y018042D01*
X020815Y018042D01*
X020815Y018397D01*
X021052Y018397D01*
X021052Y019460D01*
X019871Y019460D01*
X019871Y019223D01*
X020815Y019223D01*
X020815Y018397D01*
X021052Y018397D02*
X021052Y018042D01*
X020815Y018042D02*
X020815Y017609D01*
X015815Y017609D01*
X015815Y018042D01*
X016760Y019460D02*
X019871Y019460D01*
X020441Y020916D02*
X020914Y020916D01*
X020914Y021861D01*
X020441Y021861D01*
X020441Y020916D01*
X021640Y022517D02*
X024640Y022517D01*
X024640Y017717D01*
X021640Y017717D01*
X021640Y022517D01*
X022410Y024420D02*
X022882Y024420D01*
X022882Y025444D01*
X022410Y025444D01*
X022410Y024420D01*
X022410Y027964D02*
X022882Y027964D01*
X022882Y028987D01*
X022410Y028987D01*
X022410Y027964D01*
X025402Y027491D02*
X025402Y027137D01*
X025402Y027491D02*
X025875Y027491D01*
X028001Y027491D02*
X029339Y027491D01*
X029339Y027688D01*
X028001Y027688D01*
X029339Y027688D02*
X031111Y027688D01*
X031111Y024145D01*
X029339Y024145D01*
X029339Y024341D01*
X025993Y024341D01*
X025402Y024341D01*
X025402Y024656D01*
X025993Y024341D02*
X025993Y024145D01*
X029339Y024145D01*
X029339Y024341D02*
X029339Y027491D01*
X028465Y029971D02*
X019890Y029971D01*
X019890Y033593D01*
X027993Y033593D01*
X028001Y033593D01*
X028465Y033593D01*
X028465Y029971D01*
X028040Y018082D02*
X027095Y018082D01*
X027095Y017609D01*
X028040Y017609D01*
X028040Y018082D01*
X018945Y024420D02*
X018473Y024420D01*
X018473Y025444D01*
X018945Y025444D01*
X018945Y024420D01*
X018480Y023200D02*
X018480Y022137D01*
X018243Y022137D01*
X018243Y022964D01*
X017134Y022964D01*
X017134Y023200D01*
X009654Y023200D01*
X009654Y022964D01*
X008526Y022964D01*
X008526Y022137D01*
X008290Y022137D01*
X008290Y023200D01*
X009654Y023200D01*
X008625Y022727D02*
X008627Y022739D01*
X008632Y022750D01*
X008641Y022759D01*
X008652Y022764D01*
X008664Y022766D01*
X008676Y022764D01*
X008687Y022759D01*
X008696Y022750D01*
X008701Y022739D01*
X008703Y022727D01*
X008701Y022715D01*
X008696Y022704D01*
X008687Y022695D01*
X008676Y022690D01*
X008664Y022688D01*
X008652Y022690D01*
X008641Y022695D01*
X008632Y022704D01*
X008627Y022715D01*
X008625Y022727D01*
X008526Y022137D02*
X008526Y021782D01*
X008290Y021782D01*
X008290Y022137D01*
X008290Y021782D02*
X008290Y021113D01*
X018480Y021113D01*
X018480Y021782D01*
X018243Y021782D01*
X018243Y022137D01*
X018480Y022137D02*
X018480Y021782D01*
X018243Y021782D02*
X018243Y021349D01*
X008526Y021349D01*
X008526Y021782D01*
X010599Y024420D02*
X011071Y024420D01*
X011071Y025444D01*
X010599Y025444D01*
X010599Y024420D01*
X010599Y027964D02*
X011071Y027964D01*
X011071Y028987D01*
X010599Y028987D01*
X010599Y027964D01*
X008099Y031152D02*
X008099Y031822D01*
X008335Y031822D01*
X008335Y032176D01*
X008099Y032176D01*
X008099Y033239D01*
X009280Y033239D01*
X009280Y033003D01*
X008335Y033003D01*
X008335Y032176D01*
X008099Y032176D02*
X008099Y031822D01*
X008335Y031822D02*
X008335Y031389D01*
X013335Y031389D01*
X013335Y031822D01*
X013571Y031822D01*
X013571Y032176D01*
X013335Y032176D01*
X013335Y033003D01*
X012390Y033003D01*
X012390Y033239D01*
X009280Y033239D01*
X008434Y032767D02*
X008436Y032779D01*
X008441Y032790D01*
X008450Y032799D01*
X008461Y032804D01*
X008473Y032806D01*
X008485Y032804D01*
X008496Y032799D01*
X008505Y032790D01*
X008510Y032779D01*
X008512Y032767D01*
X008510Y032755D01*
X008505Y032744D01*
X008496Y032735D01*
X008485Y032730D01*
X008473Y032728D01*
X008461Y032730D01*
X008450Y032735D01*
X008441Y032744D01*
X008436Y032755D01*
X008434Y032767D01*
X008099Y031152D02*
X013571Y031152D01*
X013571Y031822D01*
X013335Y031822D02*
X013335Y032176D01*
X013571Y032176D02*
X013571Y033239D01*
X012390Y033239D01*
X013808Y033239D02*
X013808Y032176D01*
X014044Y032176D01*
X014044Y033003D01*
X014989Y033003D01*
X014989Y033239D01*
X013808Y033239D01*
X014143Y032767D02*
X014145Y032779D01*
X014150Y032790D01*
X014159Y032799D01*
X014170Y032804D01*
X014182Y032806D01*
X014194Y032804D01*
X014205Y032799D01*
X014214Y032790D01*
X014219Y032779D01*
X014221Y032767D01*
X014219Y032755D01*
X014214Y032744D01*
X014205Y032735D01*
X014194Y032730D01*
X014182Y032728D01*
X014170Y032730D01*
X014159Y032735D01*
X014150Y032744D01*
X014145Y032755D01*
X014143Y032767D01*
X014044Y032176D02*
X014044Y031822D01*
X013808Y031822D01*
X013808Y032176D01*
X013808Y031822D02*
X013808Y031152D01*
X019280Y031152D01*
X019280Y031822D01*
X019044Y031822D01*
X019044Y032176D01*
X019280Y032176D01*
X019280Y033239D01*
X018099Y033239D01*
X018099Y033003D01*
X019044Y033003D01*
X019044Y032176D01*
X019280Y032176D02*
X019280Y031822D01*
X019044Y031822D02*
X019044Y031389D01*
X014044Y031389D01*
X014044Y031822D01*
X014989Y033239D02*
X018099Y033239D01*
X018473Y028987D02*
X018945Y028987D01*
X018945Y027964D01*
X018473Y027964D01*
X018473Y028987D01*
X015008Y028987D02*
X015008Y027964D01*
X014536Y027964D01*
X014536Y028987D01*
X015008Y028987D01*
X015008Y025444D02*
X014536Y025444D01*
X014536Y024420D01*
X015008Y024420D01*
X015008Y025444D01*
X017134Y023200D02*
X018480Y023200D01*
D14*
X019984Y022190D02*
X019984Y021947D01*
X019984Y021828D02*
X020287Y021828D01*
X020348Y021767D01*
X020348Y021646D01*
X020287Y021585D01*
X019984Y021585D01*
X020044Y021465D02*
X019984Y021404D01*
X019984Y021283D01*
X020044Y021222D01*
X020287Y021222D01*
X020348Y021283D01*
X020348Y021404D01*
X020287Y021465D01*
X020044Y021465D01*
X020408Y021103D02*
X020408Y020860D01*
X020287Y020740D02*
X020348Y020679D01*
X020348Y020558D01*
X020287Y020497D01*
X020044Y020497D01*
X019984Y020558D01*
X019984Y020679D01*
X020044Y020740D01*
X019984Y022069D02*
X020348Y022069D01*
X018694Y019012D02*
X018512Y018830D01*
X018754Y018830D01*
X018694Y018648D02*
X018694Y019012D01*
X018392Y019012D02*
X018392Y018648D01*
X018149Y019012D01*
X018149Y018648D01*
X018029Y018708D02*
X017969Y018648D01*
X017847Y018648D01*
X017787Y018708D01*
X017787Y018951D01*
X017847Y019012D01*
X017969Y019012D01*
X018029Y018951D01*
X012258Y018951D02*
X012258Y018890D01*
X012198Y018830D01*
X012258Y018769D01*
X012258Y018708D01*
X012198Y018648D01*
X012076Y018648D01*
X012016Y018708D01*
X011896Y018648D02*
X011896Y019012D01*
X012016Y018951D02*
X012076Y019012D01*
X012198Y019012D01*
X012258Y018951D01*
X012198Y018830D02*
X012137Y018830D01*
X011896Y018648D02*
X011653Y019012D01*
X011653Y018648D01*
X011533Y018708D02*
X011473Y018648D01*
X011351Y018648D01*
X011291Y018708D01*
X011291Y018951D01*
X011351Y019012D01*
X011473Y019012D01*
X011533Y018951D01*
X011395Y032427D02*
X011273Y032427D01*
X011213Y032488D01*
X011093Y032427D02*
X010850Y032427D01*
X011093Y032670D01*
X011093Y032731D01*
X011032Y032791D01*
X010911Y032791D01*
X010850Y032731D01*
X010730Y032791D02*
X010730Y032427D01*
X010488Y032791D01*
X010488Y032427D01*
X010368Y032488D02*
X010307Y032427D01*
X010186Y032427D01*
X010125Y032488D01*
X010125Y032731D01*
X010186Y032791D01*
X010307Y032791D01*
X010368Y032731D01*
X011213Y032731D02*
X011213Y032670D01*
X011273Y032609D01*
X011395Y032609D01*
X011455Y032549D01*
X011455Y032488D01*
X011395Y032427D01*
X011455Y032731D02*
X011395Y032791D01*
X011273Y032791D01*
X011213Y032731D01*
X016015Y032731D02*
X016015Y032488D01*
X016076Y032427D01*
X016197Y032427D01*
X016258Y032488D01*
X016378Y032427D02*
X016378Y032791D01*
X016620Y032427D01*
X016620Y032791D01*
X016740Y032731D02*
X016801Y032791D01*
X016922Y032791D01*
X016983Y032731D01*
X016983Y032670D01*
X016740Y032427D01*
X016983Y032427D01*
X016258Y032731D02*
X016197Y032791D01*
X016076Y032791D01*
X016015Y032731D01*
X027281Y018539D02*
X027220Y018479D01*
X027220Y018236D01*
X027281Y018175D01*
X027402Y018175D01*
X027463Y018236D01*
X027582Y018175D02*
X027825Y018418D01*
X027825Y018479D01*
X027764Y018539D01*
X027643Y018539D01*
X027582Y018479D01*
X027463Y018479D02*
X027402Y018539D01*
X027281Y018539D01*
X027582Y018175D02*
X027825Y018175D01*
M02*
