%
M48
M72
T01C0.0157
T02C0.0197
T03C0.0236
T04C0.0315
T05C0.0315
T06C0.0394
T07C0.0394
T08C0.1260
%
T01
X12213Y24932
X11229Y26901
X15166Y26901
X16150Y24932
X19103Y26901
X20087Y24932
X23040Y26704
T02
X24418Y27885
X19693Y27885
X15756Y27885
X11819Y27885
X8276Y23160
T03
X16150Y29460
X24221Y22964
T04
X26961Y20011
X27961Y20011
X28961Y20011
X20284Y18239
X19497Y18239
X18709Y18239
X17922Y18239
X17134Y18239
X16347Y18239
X14575Y18239
X13788Y18239
X13001Y18239
X12213Y18239
X11426Y18239
X10638Y18239
X9851Y18239
X9064Y18239
X9058Y21979
X9845Y21979
X10632Y21979
X11420Y21979
X12207Y21979
X12995Y21979
X13782Y21979
X14569Y21979
X15363Y21979
X16150Y21979
X16938Y21979
X17725Y21979
X17725Y32019
X16938Y32019
X16150Y32019
X15363Y32019
X14575Y32019
X12804Y32019
X12016Y32019
X11229Y32019
X10441Y32019
X9654Y32019
X8867Y32019
X18512Y32019
T05
X26878Y27806
X28158Y25916
T06
X27678Y31231
X26678Y31231
X25678Y31231
X23678Y31231
X22678Y31231
X21678Y31231
X20678Y31231
T07
X25697Y25916
T08
X6701Y17649
X6701Y33003
X29930Y33003
X29930Y17649
M30
