G75*
%MOIN*%
%OFA0B0*%
%FSLAX24Y24*%
%IPPOS*%
%LPD*%
%AMOC8*
5,1,8,0,0,1.08239X$1,22.5*
%
%ADD10C,0.1340*%
%ADD11R,0.0395X0.0474*%
%ADD12R,0.0515X0.0515*%
%ADD13R,0.0595X0.0595*%
%ADD14R,0.0395X0.0552*%
%ADD15C,0.0984*%
%ADD16C,0.1064*%
%ADD17C,0.1181*%
%ADD18C,0.1261*%
%ADD19R,0.0710X0.1104*%
%ADD20C,0.0594*%
%ADD21C,0.0674*%
%ADD22OC8,0.0515*%
%ADD23OC8,0.0595*%
%ADD24R,0.0671X0.0474*%
%ADD25R,0.0396X0.0396*%
%ADD26R,0.0476X0.0476*%
%ADD27R,0.0317X0.0317*%
%ADD28R,0.0397X0.0397*%
%ADD29R,0.0357X0.0357*%
%ADD30R,0.0437X0.0437*%
D10*
X006701Y017649D03*
X006701Y033003D03*
X029930Y033003D03*
X029930Y017649D03*
D11*
X023315Y019617D03*
X022764Y019617D03*
X022745Y020995D03*
X023335Y020995D03*
X021150Y024932D03*
X020599Y024932D03*
X020579Y027688D03*
X021170Y027688D03*
X021170Y028672D03*
X020579Y028672D03*
X017233Y028672D03*
X016642Y028672D03*
X016642Y027688D03*
X017233Y027688D03*
X017213Y024932D03*
X016662Y024932D03*
X013276Y024932D03*
X012725Y024932D03*
X012705Y027688D03*
X013296Y027688D03*
X013296Y028672D03*
X012705Y028672D03*
X009359Y028672D03*
X008768Y028672D03*
X008768Y027688D03*
X009359Y027688D03*
X009339Y024932D03*
X008788Y024932D03*
D12*
X009058Y021979D03*
X009064Y018239D03*
X016347Y018239D03*
X014575Y032019D03*
X008867Y032019D03*
X026961Y020011D03*
X027961Y020011D03*
X028961Y020011D03*
D13*
X028961Y020011D03*
X027961Y020011D03*
X026961Y020011D03*
X016347Y018239D03*
X009064Y018239D03*
X009058Y021979D03*
X008867Y032019D03*
X014575Y032019D03*
D14*
X013375Y023987D03*
X012627Y023987D03*
X013001Y023121D03*
X016564Y023987D03*
X017312Y023987D03*
X016938Y023121D03*
X020501Y023987D03*
X021249Y023987D03*
X020875Y023121D03*
X009438Y023987D03*
X008690Y023987D03*
X009064Y023121D03*
D15*
X026386Y027806D02*
X027371Y027806D01*
X028158Y026408D02*
X028158Y025424D01*
D16*
X028158Y026408D01*
X027371Y027806D02*
X026386Y027806D01*
D17*
X025697Y026507D02*
X025697Y025326D01*
D18*
X025697Y026507D01*
D19*
X026465Y023160D03*
X027882Y023160D03*
D20*
X027678Y031231D03*
X026678Y031231D03*
X025678Y031231D03*
X023678Y031231D03*
X022678Y031231D03*
X021678Y031231D03*
X020678Y031231D03*
D21*
X020678Y031231D03*
X021678Y031231D03*
X022678Y031231D03*
X023678Y031231D03*
X025678Y031231D03*
X026678Y031231D03*
X027678Y031231D03*
D22*
X018512Y032019D03*
X017725Y032019D03*
X016938Y032019D03*
X016150Y032019D03*
X015363Y032019D03*
X012804Y032019D03*
X012016Y032019D03*
X011229Y032019D03*
X010441Y032019D03*
X009654Y032019D03*
X009845Y021979D03*
X010632Y021979D03*
X011420Y021979D03*
X012207Y021979D03*
X012995Y021979D03*
X013782Y021979D03*
X014569Y021979D03*
X015363Y021979D03*
X016150Y021979D03*
X016938Y021979D03*
X017725Y021979D03*
X017922Y018239D03*
X018709Y018239D03*
X019497Y018239D03*
X020284Y018239D03*
X017134Y018239D03*
X014575Y018239D03*
X013788Y018239D03*
X013001Y018239D03*
X012213Y018239D03*
X011426Y018239D03*
X010638Y018239D03*
X009851Y018239D03*
D23*
X009851Y018239D03*
X010638Y018239D03*
X011426Y018239D03*
X012213Y018239D03*
X013001Y018239D03*
X013788Y018239D03*
X014575Y018239D03*
X017134Y018239D03*
X017922Y018239D03*
X018709Y018239D03*
X019497Y018239D03*
X020284Y018239D03*
X017725Y021979D03*
X016938Y021979D03*
X016150Y021979D03*
X015363Y021979D03*
X014569Y021979D03*
X013782Y021979D03*
X012995Y021979D03*
X012207Y021979D03*
X011420Y021979D03*
X010632Y021979D03*
X009845Y021979D03*
X009654Y032019D03*
X010441Y032019D03*
X011229Y032019D03*
X012016Y032019D03*
X012804Y032019D03*
X015363Y032019D03*
X016150Y032019D03*
X016938Y032019D03*
X017725Y032019D03*
X018512Y032019D03*
D24*
X016938Y026802D03*
X016938Y025818D03*
X020678Y025818D03*
X020678Y026802D03*
X013001Y026802D03*
X013001Y025818D03*
X009064Y025818D03*
X009064Y026802D03*
D25*
X016150Y029460D03*
X024221Y022964D03*
D26*
X024221Y022964D03*
X016150Y029460D03*
D27*
X015166Y026901D03*
X016150Y024932D03*
X019103Y026901D03*
X020087Y024932D03*
X023040Y026704D03*
X012213Y024932D03*
X011229Y026901D03*
D28*
X011229Y026901D03*
X012213Y024932D03*
X015166Y026901D03*
X016150Y024932D03*
X019103Y026901D03*
X020087Y024932D03*
X023040Y026704D03*
D29*
X024418Y027885D03*
X019693Y027885D03*
X015756Y027885D03*
X011819Y027885D03*
X008276Y023160D03*
D30*
X008276Y023160D03*
X011819Y027885D03*
X015756Y027885D03*
X019693Y027885D03*
X024418Y027885D03*
M02*
