G75*
%MOIN*%
%OFA0B0*%
%FSLAX24Y24*%
%IPPOS*%
%LPD*%
%AMOC8*
5,1,8,0,0,1.08239X$1,22.5*
%
%ADD10C,0.0000*%
D10*
X005520Y016467D02*
X005520Y034184D01*
X031111Y034184D01*
X031111Y016467D01*
X005520Y016467D01*
X006071Y017649D02*
X006073Y017699D01*
X006079Y017749D01*
X006089Y017798D01*
X006103Y017846D01*
X006120Y017893D01*
X006141Y017938D01*
X006166Y017982D01*
X006194Y018023D01*
X006226Y018062D01*
X006260Y018099D01*
X006297Y018133D01*
X006337Y018163D01*
X006379Y018190D01*
X006423Y018214D01*
X006469Y018235D01*
X006516Y018251D01*
X006564Y018264D01*
X006614Y018273D01*
X006663Y018278D01*
X006714Y018279D01*
X006764Y018276D01*
X006813Y018269D01*
X006862Y018258D01*
X006910Y018243D01*
X006956Y018225D01*
X007001Y018203D01*
X007044Y018177D01*
X007085Y018148D01*
X007124Y018116D01*
X007160Y018081D01*
X007192Y018043D01*
X007222Y018003D01*
X007249Y017960D01*
X007272Y017916D01*
X007291Y017870D01*
X007307Y017822D01*
X007319Y017773D01*
X007327Y017724D01*
X007331Y017674D01*
X007331Y017624D01*
X007327Y017574D01*
X007319Y017525D01*
X007307Y017476D01*
X007291Y017428D01*
X007272Y017382D01*
X007249Y017338D01*
X007222Y017295D01*
X007192Y017255D01*
X007160Y017217D01*
X007124Y017182D01*
X007085Y017150D01*
X007044Y017121D01*
X007001Y017095D01*
X006956Y017073D01*
X006910Y017055D01*
X006862Y017040D01*
X006813Y017029D01*
X006764Y017022D01*
X006714Y017019D01*
X006663Y017020D01*
X006614Y017025D01*
X006564Y017034D01*
X006516Y017047D01*
X006469Y017063D01*
X006423Y017084D01*
X006379Y017108D01*
X006337Y017135D01*
X006297Y017165D01*
X006260Y017199D01*
X006226Y017236D01*
X006194Y017275D01*
X006166Y017316D01*
X006141Y017360D01*
X006120Y017405D01*
X006103Y017452D01*
X006089Y017500D01*
X006079Y017549D01*
X006073Y017599D01*
X006071Y017649D01*
X006071Y033003D02*
X006073Y033053D01*
X006079Y033103D01*
X006089Y033152D01*
X006103Y033200D01*
X006120Y033247D01*
X006141Y033292D01*
X006166Y033336D01*
X006194Y033377D01*
X006226Y033416D01*
X006260Y033453D01*
X006297Y033487D01*
X006337Y033517D01*
X006379Y033544D01*
X006423Y033568D01*
X006469Y033589D01*
X006516Y033605D01*
X006564Y033618D01*
X006614Y033627D01*
X006663Y033632D01*
X006714Y033633D01*
X006764Y033630D01*
X006813Y033623D01*
X006862Y033612D01*
X006910Y033597D01*
X006956Y033579D01*
X007001Y033557D01*
X007044Y033531D01*
X007085Y033502D01*
X007124Y033470D01*
X007160Y033435D01*
X007192Y033397D01*
X007222Y033357D01*
X007249Y033314D01*
X007272Y033270D01*
X007291Y033224D01*
X007307Y033176D01*
X007319Y033127D01*
X007327Y033078D01*
X007331Y033028D01*
X007331Y032978D01*
X007327Y032928D01*
X007319Y032879D01*
X007307Y032830D01*
X007291Y032782D01*
X007272Y032736D01*
X007249Y032692D01*
X007222Y032649D01*
X007192Y032609D01*
X007160Y032571D01*
X007124Y032536D01*
X007085Y032504D01*
X007044Y032475D01*
X007001Y032449D01*
X006956Y032427D01*
X006910Y032409D01*
X006862Y032394D01*
X006813Y032383D01*
X006764Y032376D01*
X006714Y032373D01*
X006663Y032374D01*
X006614Y032379D01*
X006564Y032388D01*
X006516Y032401D01*
X006469Y032417D01*
X006423Y032438D01*
X006379Y032462D01*
X006337Y032489D01*
X006297Y032519D01*
X006260Y032553D01*
X006226Y032590D01*
X006194Y032629D01*
X006166Y032670D01*
X006141Y032714D01*
X006120Y032759D01*
X006103Y032806D01*
X006089Y032854D01*
X006079Y032903D01*
X006073Y032953D01*
X006071Y033003D01*
X029300Y033003D02*
X029302Y033053D01*
X029308Y033103D01*
X029318Y033152D01*
X029332Y033200D01*
X029349Y033247D01*
X029370Y033292D01*
X029395Y033336D01*
X029423Y033377D01*
X029455Y033416D01*
X029489Y033453D01*
X029526Y033487D01*
X029566Y033517D01*
X029608Y033544D01*
X029652Y033568D01*
X029698Y033589D01*
X029745Y033605D01*
X029793Y033618D01*
X029843Y033627D01*
X029892Y033632D01*
X029943Y033633D01*
X029993Y033630D01*
X030042Y033623D01*
X030091Y033612D01*
X030139Y033597D01*
X030185Y033579D01*
X030230Y033557D01*
X030273Y033531D01*
X030314Y033502D01*
X030353Y033470D01*
X030389Y033435D01*
X030421Y033397D01*
X030451Y033357D01*
X030478Y033314D01*
X030501Y033270D01*
X030520Y033224D01*
X030536Y033176D01*
X030548Y033127D01*
X030556Y033078D01*
X030560Y033028D01*
X030560Y032978D01*
X030556Y032928D01*
X030548Y032879D01*
X030536Y032830D01*
X030520Y032782D01*
X030501Y032736D01*
X030478Y032692D01*
X030451Y032649D01*
X030421Y032609D01*
X030389Y032571D01*
X030353Y032536D01*
X030314Y032504D01*
X030273Y032475D01*
X030230Y032449D01*
X030185Y032427D01*
X030139Y032409D01*
X030091Y032394D01*
X030042Y032383D01*
X029993Y032376D01*
X029943Y032373D01*
X029892Y032374D01*
X029843Y032379D01*
X029793Y032388D01*
X029745Y032401D01*
X029698Y032417D01*
X029652Y032438D01*
X029608Y032462D01*
X029566Y032489D01*
X029526Y032519D01*
X029489Y032553D01*
X029455Y032590D01*
X029423Y032629D01*
X029395Y032670D01*
X029370Y032714D01*
X029349Y032759D01*
X029332Y032806D01*
X029318Y032854D01*
X029308Y032903D01*
X029302Y032953D01*
X029300Y033003D01*
X029300Y017649D02*
X029302Y017699D01*
X029308Y017749D01*
X029318Y017798D01*
X029332Y017846D01*
X029349Y017893D01*
X029370Y017938D01*
X029395Y017982D01*
X029423Y018023D01*
X029455Y018062D01*
X029489Y018099D01*
X029526Y018133D01*
X029566Y018163D01*
X029608Y018190D01*
X029652Y018214D01*
X029698Y018235D01*
X029745Y018251D01*
X029793Y018264D01*
X029843Y018273D01*
X029892Y018278D01*
X029943Y018279D01*
X029993Y018276D01*
X030042Y018269D01*
X030091Y018258D01*
X030139Y018243D01*
X030185Y018225D01*
X030230Y018203D01*
X030273Y018177D01*
X030314Y018148D01*
X030353Y018116D01*
X030389Y018081D01*
X030421Y018043D01*
X030451Y018003D01*
X030478Y017960D01*
X030501Y017916D01*
X030520Y017870D01*
X030536Y017822D01*
X030548Y017773D01*
X030556Y017724D01*
X030560Y017674D01*
X030560Y017624D01*
X030556Y017574D01*
X030548Y017525D01*
X030536Y017476D01*
X030520Y017428D01*
X030501Y017382D01*
X030478Y017338D01*
X030451Y017295D01*
X030421Y017255D01*
X030389Y017217D01*
X030353Y017182D01*
X030314Y017150D01*
X030273Y017121D01*
X030230Y017095D01*
X030185Y017073D01*
X030139Y017055D01*
X030091Y017040D01*
X030042Y017029D01*
X029993Y017022D01*
X029943Y017019D01*
X029892Y017020D01*
X029843Y017025D01*
X029793Y017034D01*
X029745Y017047D01*
X029698Y017063D01*
X029652Y017084D01*
X029608Y017108D01*
X029566Y017135D01*
X029526Y017165D01*
X029489Y017199D01*
X029455Y017236D01*
X029423Y017275D01*
X029395Y017316D01*
X029370Y017360D01*
X029349Y017405D01*
X029332Y017452D01*
X029318Y017500D01*
X029308Y017549D01*
X029302Y017599D01*
X029300Y017649D01*
M02*
