G75*
%MOIN*%
%OFA0B0*%
%FSLAX24Y24*%
%IPPOS*%
%LPD*%
%AMOC8*
5,1,8,0,0,1.08239X$1,22.5*
%
%ADD10C,0.0030*%
%ADD11C,0.0050*%
%ADD12C,0.0070*%
D10*
X006252Y005341D02*
X006313Y005280D01*
X006434Y005280D01*
X006495Y005341D01*
X006495Y005644D01*
X006615Y005584D02*
X006676Y005644D01*
X006797Y005644D01*
X006858Y005584D01*
X006977Y005523D02*
X007099Y005644D01*
X007099Y005280D01*
X007220Y005280D02*
X006977Y005280D01*
X006858Y005341D02*
X006858Y005402D01*
X006797Y005462D01*
X006676Y005462D01*
X006615Y005523D01*
X006615Y005584D01*
X006736Y005705D02*
X006736Y005220D01*
X006676Y005280D02*
X006797Y005280D01*
X006858Y005341D01*
X006676Y005280D02*
X006615Y005341D01*
X006252Y005341D02*
X006252Y005644D01*
X014916Y012543D02*
X014965Y012495D01*
X015061Y012495D01*
X015110Y012543D01*
X015110Y012592D01*
X015061Y012640D01*
X014916Y012640D01*
X014916Y012543D01*
X014916Y012640D02*
X015013Y012737D01*
X015110Y012785D01*
X013904Y013245D02*
X013711Y013245D01*
X013808Y013245D02*
X013808Y013535D01*
X013711Y013438D01*
X013610Y013245D02*
X013416Y013245D01*
X013513Y013245D02*
X013513Y013535D01*
X013416Y013438D01*
X013154Y013438D02*
X013154Y013487D01*
X013106Y013535D01*
X013009Y013535D01*
X012961Y013487D01*
X013154Y013438D02*
X012961Y013245D01*
X013154Y013245D01*
X012860Y013245D02*
X012666Y013245D01*
X012763Y013245D02*
X012763Y013535D01*
X012666Y013438D01*
X016666Y012737D02*
X016715Y012785D01*
X016811Y012785D01*
X016860Y012737D01*
X016860Y012688D01*
X016666Y012495D01*
X016860Y012495D01*
X017416Y013245D02*
X017610Y013245D01*
X017513Y013245D02*
X017513Y013535D01*
X017416Y013438D01*
X017711Y013487D02*
X017759Y013535D01*
X017856Y013535D01*
X017904Y013487D01*
X017711Y013293D01*
X017759Y013245D01*
X017856Y013245D01*
X017904Y013293D01*
X017904Y013487D01*
X017711Y013487D02*
X017711Y013293D01*
X018416Y013293D02*
X018465Y013245D01*
X018561Y013245D01*
X018610Y013293D01*
X018610Y013487D01*
X018561Y013535D01*
X018465Y013535D01*
X018416Y013487D01*
X018416Y013438D01*
X018465Y013390D01*
X018610Y013390D01*
D11*
X018851Y013330D02*
X012451Y013330D01*
X012451Y013930D01*
X014801Y013930D01*
X015051Y014430D01*
X016251Y014430D01*
X016501Y013930D01*
X018851Y013930D01*
X018851Y013330D01*
X018851Y010130D01*
X019301Y010130D01*
X019301Y008430D01*
X018851Y008430D01*
X018851Y007530D01*
X012451Y007530D01*
X012451Y008430D01*
X012001Y008430D01*
X012001Y010130D01*
X012451Y010130D01*
X012451Y013330D01*
X013276Y012230D02*
X013526Y011980D01*
X013901Y011980D01*
X013526Y011980D02*
X013526Y012230D01*
X013276Y012230D02*
X013276Y011980D01*
X012901Y011980D01*
X013276Y011980D02*
X013276Y011730D01*
X013526Y011980D01*
X013526Y011730D01*
X012451Y010130D02*
X012451Y008430D01*
X017401Y011980D02*
X017776Y011980D01*
X017776Y011730D01*
X018026Y011980D01*
X018401Y011980D01*
X018026Y011980D02*
X018026Y012230D01*
X017776Y012230D02*
X017776Y011980D01*
X017776Y012230D02*
X018026Y011980D01*
X018026Y011730D01*
X018851Y010130D02*
X018851Y008430D01*
D12*
X015251Y014515D02*
X014831Y014515D01*
X015041Y014515D02*
X015041Y015145D01*
X014831Y014935D01*
X014607Y015145D02*
X014396Y015145D01*
X014501Y015145D02*
X014501Y014620D01*
X014396Y014515D01*
X014291Y014515D01*
X014186Y014620D01*
M02*
