G75*
%MOIN*%
%OFA0B0*%
%FSLAX25Y25*%
%IPPOS*%
%LPD*%
%AMOC8*
5,1,8,0,0,1.08239X$1,22.5*
%
%ADD10C,0.01575*%
%ADD11C,0.00500*%
D10*
X0005737Y0009674D02*
X0005737Y0025422D01*
X0005739Y0025546D01*
X0005745Y0025669D01*
X0005754Y0025793D01*
X0005768Y0025915D01*
X0005785Y0026038D01*
X0005807Y0026160D01*
X0005832Y0026281D01*
X0005861Y0026401D01*
X0005893Y0026520D01*
X0005930Y0026639D01*
X0005970Y0026756D01*
X0006013Y0026871D01*
X0006061Y0026986D01*
X0006112Y0027098D01*
X0006166Y0027209D01*
X0006224Y0027319D01*
X0006285Y0027426D01*
X0006350Y0027532D01*
X0006418Y0027635D01*
X0006489Y0027736D01*
X0006563Y0027835D01*
X0006640Y0027932D01*
X0006721Y0028026D01*
X0006804Y0028117D01*
X0006890Y0028206D01*
X0006979Y0028292D01*
X0007070Y0028375D01*
X0007164Y0028456D01*
X0007261Y0028533D01*
X0007360Y0028607D01*
X0007461Y0028678D01*
X0007564Y0028746D01*
X0007670Y0028811D01*
X0007777Y0028872D01*
X0007887Y0028930D01*
X0007998Y0028984D01*
X0008110Y0029035D01*
X0008225Y0029083D01*
X0008340Y0029126D01*
X0008457Y0029166D01*
X0008576Y0029203D01*
X0008695Y0029235D01*
X0008815Y0029264D01*
X0008936Y0029289D01*
X0009058Y0029311D01*
X0009181Y0029328D01*
X0009303Y0029342D01*
X0009427Y0029351D01*
X0009550Y0029357D01*
X0009674Y0029359D01*
X0025422Y0029359D01*
X0025546Y0029357D01*
X0025669Y0029351D01*
X0025793Y0029342D01*
X0025915Y0029328D01*
X0026038Y0029311D01*
X0026160Y0029289D01*
X0026281Y0029264D01*
X0026401Y0029235D01*
X0026520Y0029203D01*
X0026639Y0029166D01*
X0026756Y0029126D01*
X0026871Y0029083D01*
X0026986Y0029035D01*
X0027098Y0028984D01*
X0027209Y0028930D01*
X0027319Y0028872D01*
X0027426Y0028811D01*
X0027532Y0028746D01*
X0027635Y0028678D01*
X0027736Y0028607D01*
X0027835Y0028533D01*
X0027932Y0028456D01*
X0028026Y0028375D01*
X0028117Y0028292D01*
X0028206Y0028206D01*
X0028292Y0028117D01*
X0028375Y0028026D01*
X0028456Y0027932D01*
X0028533Y0027835D01*
X0028607Y0027736D01*
X0028678Y0027635D01*
X0028746Y0027532D01*
X0028811Y0027426D01*
X0028872Y0027319D01*
X0028930Y0027209D01*
X0028984Y0027098D01*
X0029035Y0026986D01*
X0029083Y0026871D01*
X0029126Y0026756D01*
X0029166Y0026639D01*
X0029203Y0026520D01*
X0029235Y0026401D01*
X0029264Y0026281D01*
X0029289Y0026160D01*
X0029311Y0026038D01*
X0029328Y0025915D01*
X0029342Y0025793D01*
X0029351Y0025669D01*
X0029357Y0025546D01*
X0029359Y0025422D01*
X0029359Y0009674D01*
X0029357Y0009550D01*
X0029351Y0009427D01*
X0029342Y0009303D01*
X0029328Y0009181D01*
X0029311Y0009058D01*
X0029289Y0008936D01*
X0029264Y0008815D01*
X0029235Y0008695D01*
X0029203Y0008576D01*
X0029166Y0008457D01*
X0029126Y0008340D01*
X0029083Y0008225D01*
X0029035Y0008110D01*
X0028984Y0007998D01*
X0028930Y0007887D01*
X0028872Y0007777D01*
X0028811Y0007670D01*
X0028746Y0007564D01*
X0028678Y0007461D01*
X0028607Y0007360D01*
X0028533Y0007261D01*
X0028456Y0007164D01*
X0028375Y0007070D01*
X0028292Y0006979D01*
X0028206Y0006890D01*
X0028117Y0006804D01*
X0028026Y0006721D01*
X0027932Y0006640D01*
X0027835Y0006563D01*
X0027736Y0006489D01*
X0027635Y0006418D01*
X0027532Y0006350D01*
X0027426Y0006285D01*
X0027319Y0006224D01*
X0027209Y0006166D01*
X0027098Y0006112D01*
X0026986Y0006061D01*
X0026871Y0006013D01*
X0026756Y0005970D01*
X0026639Y0005930D01*
X0026520Y0005893D01*
X0026401Y0005861D01*
X0026281Y0005832D01*
X0026160Y0005807D01*
X0026038Y0005785D01*
X0025915Y0005768D01*
X0025793Y0005754D01*
X0025669Y0005745D01*
X0025546Y0005739D01*
X0025422Y0005737D01*
X0009674Y0005737D01*
X0009550Y0005739D01*
X0009427Y0005745D01*
X0009303Y0005754D01*
X0009181Y0005768D01*
X0009058Y0005785D01*
X0008936Y0005807D01*
X0008815Y0005832D01*
X0008695Y0005861D01*
X0008576Y0005893D01*
X0008457Y0005930D01*
X0008340Y0005970D01*
X0008225Y0006013D01*
X0008110Y0006061D01*
X0007998Y0006112D01*
X0007887Y0006166D01*
X0007777Y0006224D01*
X0007670Y0006285D01*
X0007564Y0006350D01*
X0007461Y0006418D01*
X0007360Y0006489D01*
X0007261Y0006563D01*
X0007164Y0006640D01*
X0007070Y0006721D01*
X0006979Y0006804D01*
X0006890Y0006890D01*
X0006804Y0006979D01*
X0006721Y0007070D01*
X0006640Y0007164D01*
X0006563Y0007261D01*
X0006489Y0007360D01*
X0006418Y0007461D01*
X0006350Y0007564D01*
X0006285Y0007670D01*
X0006224Y0007777D01*
X0006166Y0007887D01*
X0006112Y0007998D01*
X0006061Y0008110D01*
X0006013Y0008225D01*
X0005970Y0008340D01*
X0005930Y0008457D01*
X0005893Y0008576D01*
X0005861Y0008695D01*
X0005832Y0008815D01*
X0005807Y0008936D01*
X0005785Y0009058D01*
X0005768Y0009181D01*
X0005754Y0009303D01*
X0005745Y0009427D01*
X0005739Y0009550D01*
X0005737Y0009674D01*
D11*
X0014486Y0018940D02*
X0016156Y0020610D01*
X0020610Y0016156D01*
X0018940Y0014486D01*
X0014486Y0018940D01*
M02*
