G75*
%MOIN*%
%OFA0B0*%
%FSLAX24Y24*%
%IPPOS*%
%LPD*%
%AMOC8*
5,1,8,0,0,1.08239X$1,22.5*
%
%ADD10R,0.0157X0.0236*%
%ADD11R,0.0236X0.0787*%
%ADD12R,0.0315X0.0394*%
%ADD13R,0.0433X0.0591*%
%ADD14R,0.0394X0.0315*%
%ADD15R,0.0118X0.0512*%
%ADD16R,0.0709X0.0866*%
%ADD17R,0.0472X0.0472*%
%ADD18OC8,0.0515*%
%ADD19C,0.0079*%
%ADD20OC8,0.0357*%
%ADD21C,0.0236*%
%ADD22R,0.0475X0.0475*%
%ADD23R,0.0591X0.0591*%
%ADD24R,0.0396X0.0396*%
%ADD25C,0.0118*%
D10*
X001727Y011399D03*
X001983Y011399D03*
X002239Y011399D03*
X002495Y011399D03*
X002495Y012502D03*
X002239Y012502D03*
X001983Y012502D03*
X001727Y012502D03*
X004483Y012502D03*
X004739Y012502D03*
X004995Y012502D03*
X005251Y012502D03*
X005251Y011399D03*
X004995Y011399D03*
X004739Y011399D03*
X004483Y011399D03*
D11*
X004239Y009628D03*
X003739Y009628D03*
X003239Y009628D03*
X002739Y009628D03*
X002739Y007580D03*
X003239Y007580D03*
X003739Y007580D03*
X004239Y007580D03*
D12*
X003765Y011754D03*
X003214Y011754D03*
X002170Y009076D03*
X001580Y009076D03*
D13*
X003076Y010809D03*
X003902Y010809D03*
D14*
X002505Y010868D03*
X002505Y010277D03*
X001954Y008309D03*
X001954Y007718D03*
X001442Y007718D03*
X001442Y008309D03*
X000930Y008309D03*
X000930Y007718D03*
X005654Y010277D03*
X005654Y010868D03*
X006206Y010868D03*
X006206Y010277D03*
X005851Y008309D03*
X005851Y007718D03*
X006206Y005631D03*
X006206Y005041D03*
X006206Y003584D03*
X006206Y002994D03*
D15*
X003981Y002777D03*
X003784Y002777D03*
X003588Y002777D03*
X003391Y002777D03*
X003194Y002777D03*
X002997Y002777D03*
D16*
X002249Y004057D03*
X004729Y004057D03*
D17*
X006048Y011596D03*
X006048Y012698D03*
X000930Y012698D03*
X000930Y011596D03*
D18*
X001422Y001714D03*
X002013Y001714D03*
X002603Y001714D03*
X003194Y001714D03*
X003784Y001714D03*
X004375Y001714D03*
X004965Y001714D03*
X005556Y001714D03*
D19*
X000579Y000379D02*
X000579Y007856D01*
X000594Y007856D01*
X000594Y007757D01*
X000891Y007757D01*
X000891Y007679D01*
X000969Y007679D01*
X000969Y007421D01*
X001145Y007421D01*
X001181Y007431D01*
X001201Y007443D01*
X001284Y007443D01*
X001284Y007015D01*
X001185Y006916D01*
X001185Y006670D01*
X001358Y006496D01*
X001395Y006496D01*
X001342Y006443D01*
X001342Y006198D01*
X001481Y006059D01*
X001481Y006019D01*
X001482Y006018D01*
X001482Y006017D01*
X001528Y005972D01*
X001573Y005927D01*
X001575Y005927D01*
X001959Y005554D01*
X001791Y005554D01*
X001618Y005380D01*
X001618Y005135D01*
X001791Y004961D01*
X002037Y004961D01*
X002176Y005100D01*
X002203Y005100D01*
X002662Y004641D01*
X002662Y004617D01*
X002657Y004620D01*
X002622Y004629D01*
X002288Y004629D01*
X002288Y004096D01*
X002210Y004096D01*
X002210Y004629D01*
X001876Y004629D01*
X001857Y004624D01*
X001857Y004790D01*
X001683Y004963D01*
X001437Y004963D01*
X001298Y004824D01*
X001259Y004824D01*
X001166Y004732D01*
X001166Y002594D01*
X001259Y002502D01*
X001764Y001996D01*
X001717Y001950D01*
X001578Y002090D01*
X001267Y002090D01*
X001047Y001870D01*
X001047Y001559D01*
X001267Y001339D01*
X001578Y001339D01*
X001717Y001478D01*
X001857Y001339D01*
X002168Y001339D01*
X002308Y001478D01*
X002448Y001339D01*
X002759Y001339D01*
X002899Y001478D01*
X003038Y001339D01*
X003349Y001339D01*
X003489Y001478D01*
X003629Y001339D01*
X003940Y001339D01*
X004065Y001463D01*
X004211Y001317D01*
X004336Y001317D01*
X004336Y001675D01*
X004414Y001675D01*
X004414Y001317D01*
X004539Y001317D01*
X004685Y001463D01*
X004810Y001339D01*
X005121Y001339D01*
X005261Y001478D01*
X005400Y001339D01*
X005712Y001339D01*
X005932Y001559D01*
X005932Y001870D01*
X005871Y001930D01*
X005871Y002812D01*
X005879Y002782D01*
X005897Y002751D01*
X005923Y002725D01*
X005955Y002706D01*
X005990Y002697D01*
X006166Y002697D01*
X006166Y002954D01*
X006245Y002954D01*
X006245Y002697D01*
X006399Y002697D01*
X006399Y000379D01*
X000579Y000379D01*
X000579Y000448D02*
X006399Y000448D01*
X006399Y000526D02*
X000579Y000526D01*
X000579Y000603D02*
X006399Y000603D01*
X006399Y000680D02*
X000579Y000680D01*
X000579Y000757D02*
X006399Y000757D01*
X006399Y000835D02*
X000579Y000835D01*
X000579Y000912D02*
X006399Y000912D01*
X006399Y000989D02*
X000579Y000989D01*
X000579Y001066D02*
X006399Y001066D01*
X006399Y001143D02*
X000579Y001143D01*
X000579Y001221D02*
X006399Y001221D01*
X006399Y001298D02*
X000579Y001298D01*
X000579Y001375D02*
X001230Y001375D01*
X001153Y001452D02*
X000579Y001452D01*
X000579Y001530D02*
X001075Y001530D01*
X001047Y001607D02*
X000579Y001607D01*
X000579Y001684D02*
X001047Y001684D01*
X001047Y001761D02*
X000579Y001761D01*
X000579Y001839D02*
X001047Y001839D01*
X001093Y001916D02*
X000579Y001916D01*
X000579Y001993D02*
X001170Y001993D01*
X001247Y002070D02*
X000579Y002070D01*
X000579Y002148D02*
X001612Y002148D01*
X001597Y002070D02*
X001690Y002070D01*
X001674Y001993D02*
X001761Y001993D01*
X001535Y002225D02*
X000579Y002225D01*
X000579Y002302D02*
X001458Y002302D01*
X001381Y002379D02*
X000579Y002379D01*
X000579Y002457D02*
X001304Y002457D01*
X001226Y002534D02*
X000579Y002534D01*
X000579Y002611D02*
X001166Y002611D01*
X001166Y002688D02*
X000579Y002688D01*
X000579Y002766D02*
X001166Y002766D01*
X001166Y002843D02*
X000579Y002843D01*
X000579Y002920D02*
X001166Y002920D01*
X001166Y002997D02*
X000579Y002997D01*
X000579Y003075D02*
X001166Y003075D01*
X001166Y003152D02*
X000579Y003152D01*
X000579Y003229D02*
X001166Y003229D01*
X001166Y003306D02*
X000579Y003306D01*
X000579Y003383D02*
X001166Y003383D01*
X001166Y003461D02*
X000579Y003461D01*
X000579Y003538D02*
X001166Y003538D01*
X001166Y003615D02*
X000579Y003615D01*
X000579Y003692D02*
X001166Y003692D01*
X001166Y003770D02*
X000579Y003770D01*
X000579Y003847D02*
X001166Y003847D01*
X001166Y003924D02*
X000579Y003924D01*
X000579Y004001D02*
X001166Y004001D01*
X001166Y004079D02*
X000579Y004079D01*
X000579Y004156D02*
X001166Y004156D01*
X001166Y004233D02*
X000579Y004233D01*
X000579Y004310D02*
X001166Y004310D01*
X001166Y004388D02*
X000579Y004388D01*
X000579Y004465D02*
X001166Y004465D01*
X001166Y004542D02*
X000579Y004542D01*
X000579Y004619D02*
X001166Y004619D01*
X001166Y004697D02*
X000579Y004697D01*
X000579Y004774D02*
X001208Y004774D01*
X001325Y004851D02*
X000579Y004851D01*
X000579Y004928D02*
X001402Y004928D01*
X001324Y004667D02*
X001560Y004667D01*
X001324Y004667D02*
X001324Y002659D01*
X002013Y001970D01*
X002013Y001714D01*
X002205Y001375D02*
X002411Y001375D01*
X002334Y001452D02*
X002282Y001452D01*
X002509Y002090D02*
X001717Y002882D01*
X001717Y003898D01*
X001755Y003898D01*
X001755Y003605D01*
X001765Y003570D01*
X001783Y003538D01*
X001809Y003512D01*
X001841Y003494D01*
X001876Y003484D01*
X002210Y003484D01*
X002210Y004017D01*
X002288Y004017D01*
X002288Y003484D01*
X002622Y003484D01*
X002657Y003494D01*
X002662Y003497D01*
X002662Y003488D01*
X002661Y003425D01*
X002662Y003423D01*
X002662Y003421D01*
X002707Y003376D01*
X002921Y003151D01*
X002889Y003151D01*
X002820Y003082D01*
X002820Y003000D01*
X002785Y003034D01*
X002540Y003034D01*
X002366Y002861D01*
X002366Y002615D01*
X002540Y002441D01*
X002785Y002441D01*
X002820Y002476D01*
X002820Y002472D01*
X002840Y002453D01*
X002840Y002121D01*
X002932Y002029D01*
X002978Y002029D01*
X002899Y001950D01*
X002759Y002090D01*
X002509Y002090D01*
X002452Y002148D02*
X002840Y002148D01*
X002840Y002225D02*
X002374Y002225D01*
X002297Y002302D02*
X002840Y002302D01*
X002840Y002379D02*
X002220Y002379D01*
X002143Y002457D02*
X002524Y002457D01*
X002447Y002534D02*
X002065Y002534D01*
X001988Y002611D02*
X002370Y002611D01*
X002366Y002688D02*
X001911Y002688D01*
X001834Y002766D02*
X002366Y002766D01*
X002366Y002843D02*
X001756Y002843D01*
X001717Y002920D02*
X002425Y002920D01*
X002502Y002997D02*
X001717Y002997D01*
X001717Y003075D02*
X002820Y003075D01*
X002920Y003152D02*
X001717Y003152D01*
X001717Y003229D02*
X002847Y003229D01*
X002773Y003306D02*
X001717Y003306D01*
X001717Y003383D02*
X002699Y003383D01*
X002662Y003461D02*
X001717Y003461D01*
X001717Y003538D02*
X001783Y003538D01*
X001755Y003615D02*
X001717Y003615D01*
X001717Y003692D02*
X001755Y003692D01*
X001755Y003770D02*
X001717Y003770D01*
X001717Y003847D02*
X001755Y003847D01*
X001639Y004194D02*
X001560Y004194D01*
X001560Y002817D01*
X002603Y001773D01*
X002603Y001714D01*
X002778Y002070D02*
X002891Y002070D01*
X002855Y001993D02*
X002942Y001993D01*
X002997Y002187D02*
X004493Y002187D01*
X004965Y001714D01*
X004965Y002187D01*
X004883Y002379D02*
X003154Y002379D01*
X003154Y002403D02*
X003651Y002403D01*
X003672Y002391D01*
X003707Y002382D01*
X003784Y002382D01*
X003784Y002777D01*
X003784Y002777D01*
X003784Y003172D01*
X003730Y003172D01*
X003700Y003202D01*
X003524Y003386D01*
X003612Y003386D01*
X003786Y003560D01*
X003786Y003806D01*
X003612Y003979D01*
X003450Y003979D01*
X003450Y004929D01*
X003357Y005021D01*
X002505Y005874D01*
X002505Y006202D01*
X004657Y006202D01*
X005187Y006733D01*
X005384Y006733D01*
X005557Y006906D01*
X005557Y007152D01*
X005424Y007285D01*
X005523Y007383D01*
X005594Y007454D01*
X005606Y007443D01*
X005615Y007443D01*
X005615Y006851D01*
X005182Y006418D01*
X005182Y004588D01*
X005169Y004601D01*
X005137Y004620D01*
X005102Y004629D01*
X004769Y004629D01*
X004769Y004096D01*
X004690Y004096D01*
X004690Y004629D01*
X004357Y004629D01*
X004321Y004620D01*
X004289Y004601D01*
X004263Y004575D01*
X004245Y004544D01*
X004236Y004508D01*
X004236Y004096D01*
X004690Y004096D01*
X004690Y004017D01*
X004769Y004017D01*
X004769Y003484D01*
X005102Y003484D01*
X005137Y003494D01*
X005169Y003512D01*
X005182Y003525D01*
X005182Y002678D01*
X004848Y002344D01*
X004710Y002206D01*
X004710Y002193D01*
X004558Y002344D01*
X003154Y002344D01*
X003154Y002403D01*
X002997Y002187D02*
X002997Y002777D01*
X002958Y002738D01*
X002662Y002738D01*
X002800Y002457D02*
X002836Y002457D01*
X003194Y002777D02*
X003194Y003092D01*
X002820Y003486D01*
X002820Y004706D01*
X002269Y005257D01*
X001914Y005257D01*
X001747Y005006D02*
X000579Y005006D01*
X000579Y005083D02*
X001670Y005083D01*
X001618Y005160D02*
X000579Y005160D01*
X000579Y005237D02*
X001618Y005237D01*
X001618Y005314D02*
X000579Y005314D01*
X000579Y005392D02*
X001629Y005392D01*
X001706Y005469D02*
X000579Y005469D01*
X000579Y005546D02*
X001784Y005546D01*
X001887Y005623D02*
X000579Y005623D01*
X000579Y005701D02*
X001808Y005701D01*
X001728Y005778D02*
X000579Y005778D01*
X000579Y005855D02*
X001649Y005855D01*
X001568Y005932D02*
X000579Y005932D01*
X000579Y006010D02*
X001489Y006010D01*
X001453Y006087D02*
X000579Y006087D01*
X000579Y006164D02*
X001376Y006164D01*
X001342Y006241D02*
X000579Y006241D01*
X000579Y006319D02*
X001342Y006319D01*
X001342Y006396D02*
X000579Y006396D01*
X000579Y006473D02*
X001372Y006473D01*
X001304Y006550D02*
X000579Y006550D01*
X000579Y006628D02*
X001227Y006628D01*
X001185Y006705D02*
X000579Y006705D01*
X000579Y006782D02*
X001185Y006782D01*
X001185Y006859D02*
X000579Y006859D01*
X000579Y006937D02*
X001205Y006937D01*
X001283Y007014D02*
X000579Y007014D01*
X000579Y007091D02*
X001284Y007091D01*
X001284Y007168D02*
X000579Y007168D01*
X000579Y007245D02*
X001284Y007245D01*
X001284Y007323D02*
X000579Y007323D01*
X000579Y007400D02*
X001284Y007400D01*
X001481Y007502D02*
X001560Y007423D01*
X002151Y007423D01*
X002662Y006911D01*
X002938Y006911D01*
X002780Y006557D02*
X004513Y006557D01*
X004867Y006911D01*
X004867Y007147D01*
X005064Y007344D01*
X005261Y007344D01*
X005458Y007541D01*
X005458Y007895D01*
X005261Y008092D01*
X004946Y008092D01*
X004867Y008013D01*
X004828Y008013D01*
X004867Y008013D02*
X004769Y007915D01*
X004434Y007580D01*
X004239Y007580D01*
X004413Y008171D02*
X003686Y008171D01*
X003686Y008849D01*
X003913Y009076D01*
X003922Y009076D01*
X003989Y009143D01*
X004056Y009076D01*
X004422Y009076D01*
X004515Y009169D01*
X004515Y009175D01*
X005744Y009175D01*
X005871Y009302D01*
X005871Y009962D01*
X005917Y009962D01*
X005948Y009994D01*
X005955Y009990D01*
X005990Y009980D01*
X006166Y009980D01*
X006166Y010238D01*
X006245Y010238D01*
X006245Y009980D01*
X006399Y009980D01*
X006399Y008171D01*
X006188Y008171D01*
X006188Y008269D01*
X005891Y008269D01*
X005891Y008348D01*
X006188Y008348D01*
X006188Y008484D01*
X006178Y008520D01*
X006160Y008552D01*
X006134Y008578D01*
X006102Y008596D01*
X006067Y008606D01*
X005891Y008606D01*
X005891Y008348D01*
X005812Y008348D01*
X005812Y008606D01*
X005636Y008606D01*
X005601Y008596D01*
X005569Y008578D01*
X005543Y008552D01*
X005525Y008520D01*
X005515Y008484D01*
X005515Y008348D01*
X005812Y008348D01*
X005812Y008269D01*
X005515Y008269D01*
X005515Y008171D01*
X005460Y008171D01*
X005458Y008174D01*
X005342Y008289D01*
X005085Y008289D01*
X005085Y008310D01*
X004888Y008507D01*
X004610Y008507D01*
X004413Y008310D01*
X004413Y008171D01*
X004413Y008172D02*
X003686Y008172D01*
X003686Y008250D02*
X004413Y008250D01*
X004430Y008327D02*
X003686Y008327D01*
X003686Y008404D02*
X004507Y008404D01*
X004584Y008481D02*
X003686Y008481D01*
X003686Y008559D02*
X005550Y008559D01*
X005515Y008481D02*
X004914Y008481D01*
X004991Y008404D02*
X005515Y008404D01*
X005515Y008250D02*
X005382Y008250D01*
X005459Y008172D02*
X005515Y008172D01*
X005812Y008327D02*
X005068Y008327D01*
X005103Y007738D02*
X004591Y007226D01*
X004591Y007069D01*
X004434Y006911D01*
X003410Y006911D01*
X003239Y007082D01*
X003239Y007580D01*
X003239Y008210D01*
X002308Y008210D01*
X002308Y007718D01*
X001954Y007718D01*
X001914Y008269D02*
X001481Y008269D01*
X001481Y008348D01*
X001402Y008348D01*
X001402Y008269D01*
X001106Y008269D01*
X000969Y008269D01*
X000969Y008348D01*
X000891Y008348D01*
X000891Y008606D01*
X000715Y008606D01*
X000679Y008596D01*
X000648Y008578D01*
X000622Y008552D01*
X000603Y008520D01*
X000594Y008484D01*
X000594Y008348D01*
X000891Y008348D01*
X000891Y008269D01*
X000594Y008269D01*
X000594Y008210D01*
X000579Y008210D01*
X000579Y011280D01*
X000582Y011274D01*
X000608Y011248D01*
X000640Y011230D01*
X000675Y011220D01*
X000891Y011220D01*
X000891Y011557D01*
X000969Y011557D01*
X000969Y011220D01*
X001185Y011220D01*
X001220Y011230D01*
X001252Y011248D01*
X001278Y011274D01*
X001296Y011306D01*
X001306Y011341D01*
X001306Y011557D01*
X000969Y011557D01*
X000969Y011635D01*
X001306Y011635D01*
X001306Y011851D01*
X001296Y011886D01*
X001278Y011918D01*
X001252Y011944D01*
X001240Y011950D01*
X002917Y011950D01*
X002917Y011793D01*
X003174Y011793D01*
X003174Y011714D01*
X003253Y011714D01*
X003253Y011417D01*
X003292Y011417D01*
X003292Y011243D01*
X003115Y011243D01*
X003115Y010848D01*
X003036Y010848D01*
X003036Y011243D01*
X002841Y011243D01*
X002805Y011234D01*
X002774Y011215D01*
X002748Y011190D01*
X002744Y011183D01*
X002721Y011183D01*
X002721Y011206D01*
X002731Y011216D01*
X002731Y011583D01*
X002639Y011675D01*
X002351Y011675D01*
X002333Y011657D01*
X002239Y011657D01*
X002142Y011657D01*
X002111Y011648D01*
X002080Y011657D01*
X001983Y011657D01*
X001886Y011657D01*
X001855Y011648D01*
X001824Y011657D01*
X001727Y011657D01*
X001630Y011657D01*
X001595Y011647D01*
X001563Y011629D01*
X001537Y011603D01*
X001519Y011571D01*
X001509Y011536D01*
X001509Y011399D01*
X001509Y011263D01*
X001519Y011227D01*
X001537Y011196D01*
X001563Y011170D01*
X001595Y011151D01*
X001630Y011142D01*
X001727Y011142D01*
X001727Y011399D01*
X001509Y011399D01*
X001727Y011399D01*
X001727Y011399D01*
X001727Y011399D01*
X001727Y011142D01*
X001824Y011142D01*
X001855Y011150D01*
X001886Y011142D01*
X001983Y011142D01*
X001983Y011399D01*
X001983Y011399D01*
X001765Y011399D01*
X001727Y011399D01*
X001727Y011657D01*
X001727Y011399D01*
X001727Y011399D01*
X001727Y011399D01*
X001983Y011399D01*
X001983Y011399D01*
X001983Y011142D01*
X002080Y011142D01*
X002111Y011150D01*
X002142Y011142D01*
X002202Y011142D01*
X002151Y011090D01*
X002151Y010645D01*
X002223Y010572D01*
X002151Y010500D01*
X002151Y010054D01*
X002243Y009962D01*
X002464Y009962D01*
X002464Y009360D01*
X002393Y009431D01*
X001947Y009431D01*
X001859Y009342D01*
X001849Y009359D01*
X001823Y009385D01*
X001791Y009403D01*
X001755Y009413D01*
X001619Y009413D01*
X001619Y009116D01*
X001540Y009116D01*
X001540Y009413D01*
X001404Y009413D01*
X001368Y009403D01*
X001337Y009385D01*
X001311Y009359D01*
X001292Y009327D01*
X001283Y009292D01*
X001283Y009116D01*
X001540Y009116D01*
X001540Y009037D01*
X001283Y009037D01*
X001283Y008861D01*
X001292Y008826D01*
X001311Y008794D01*
X001337Y008768D01*
X001368Y008750D01*
X001404Y008740D01*
X001540Y008740D01*
X001540Y009037D01*
X001619Y009037D01*
X001619Y008740D01*
X001755Y008740D01*
X001791Y008750D01*
X001823Y008768D01*
X001849Y008794D01*
X001859Y008811D01*
X001947Y008722D01*
X002393Y008722D01*
X002452Y008781D01*
X003106Y008781D01*
X003292Y008967D01*
X003292Y008407D01*
X002290Y008407D01*
X002290Y008484D01*
X002280Y008520D01*
X002262Y008552D01*
X002236Y008578D01*
X002204Y008596D01*
X002169Y008606D01*
X001993Y008606D01*
X001993Y008348D01*
X001914Y008348D01*
X001914Y008269D01*
X001954Y008309D02*
X001914Y008604D01*
X001914Y008606D02*
X001738Y008606D01*
X001703Y008596D01*
X001698Y008593D01*
X001693Y008596D01*
X001657Y008606D01*
X001481Y008606D01*
X001481Y008348D01*
X001778Y008348D01*
X001914Y008348D01*
X001914Y008606D01*
X001914Y008559D02*
X001993Y008559D01*
X001993Y008481D02*
X001914Y008481D01*
X001914Y008404D02*
X001993Y008404D01*
X001914Y008327D02*
X001481Y008327D01*
X001481Y008404D02*
X001402Y008404D01*
X001402Y008348D02*
X001402Y008606D01*
X001227Y008606D01*
X001191Y008596D01*
X001186Y008593D01*
X001181Y008596D01*
X001145Y008606D01*
X000969Y008606D01*
X000969Y008348D01*
X001402Y008348D01*
X001402Y008327D02*
X000969Y008327D01*
X000969Y008404D02*
X000891Y008404D01*
X000891Y008327D02*
X000579Y008327D01*
X000579Y008404D02*
X000594Y008404D01*
X000594Y008481D02*
X000579Y008481D01*
X000579Y008559D02*
X000629Y008559D01*
X000579Y008636D02*
X003292Y008636D01*
X003292Y008713D02*
X000579Y008713D01*
X000579Y008790D02*
X001314Y008790D01*
X001283Y008868D02*
X000579Y008868D01*
X000579Y008945D02*
X001283Y008945D01*
X001283Y009022D02*
X000579Y009022D01*
X000579Y009099D02*
X001540Y009099D01*
X001540Y009022D02*
X001619Y009022D01*
X001619Y008945D02*
X001540Y008945D01*
X001540Y008868D02*
X001619Y008868D01*
X001619Y008790D02*
X001540Y008790D01*
X001481Y008559D02*
X001402Y008559D01*
X001402Y008481D02*
X001481Y008481D01*
X001845Y008790D02*
X001879Y008790D01*
X001619Y009176D02*
X001540Y009176D01*
X001540Y009254D02*
X001619Y009254D01*
X001619Y009331D02*
X001540Y009331D01*
X001540Y009408D02*
X001619Y009408D01*
X001772Y009408D02*
X001925Y009408D01*
X002179Y010026D02*
X000579Y010026D01*
X000579Y009949D02*
X002464Y009949D01*
X002464Y009872D02*
X000579Y009872D01*
X000579Y009794D02*
X002464Y009794D01*
X002464Y009717D02*
X000579Y009717D01*
X000579Y009640D02*
X002464Y009640D01*
X002464Y009563D02*
X000579Y009563D01*
X000579Y009485D02*
X002464Y009485D01*
X002464Y009408D02*
X002415Y009408D01*
X002151Y010103D02*
X000579Y010103D01*
X000579Y010181D02*
X002151Y010181D01*
X002151Y010258D02*
X000579Y010258D01*
X000579Y010335D02*
X002151Y010335D01*
X002151Y010412D02*
X000579Y010412D01*
X000579Y010490D02*
X002151Y010490D01*
X002217Y010567D02*
X000579Y010567D01*
X000579Y010644D02*
X002151Y010644D01*
X002151Y010721D02*
X000579Y010721D01*
X000579Y010799D02*
X002151Y010799D01*
X002151Y010876D02*
X000579Y010876D01*
X000579Y010953D02*
X002151Y010953D01*
X002151Y011030D02*
X000579Y011030D01*
X000579Y011108D02*
X002168Y011108D01*
X002239Y011399D02*
X002021Y011399D01*
X001983Y011399D01*
X001983Y011657D01*
X001983Y011399D01*
X001983Y011399D01*
X001983Y011399D01*
X002239Y011399D01*
X002239Y011399D01*
X002239Y011657D01*
X002239Y011399D01*
X002239Y011399D01*
X002239Y011416D02*
X002239Y011416D01*
X002239Y011494D02*
X002239Y011494D01*
X002239Y011571D02*
X002239Y011571D01*
X002239Y011648D02*
X002239Y011648D01*
X001983Y011648D02*
X001983Y011648D01*
X001983Y011571D02*
X001983Y011571D01*
X001983Y011494D02*
X001983Y011494D01*
X001983Y011416D02*
X001983Y011416D01*
X001983Y011339D02*
X001983Y011339D01*
X001983Y011262D02*
X001983Y011262D01*
X001983Y011185D02*
X001983Y011185D01*
X001727Y011185D02*
X001727Y011185D01*
X001727Y011262D02*
X001727Y011262D01*
X001727Y011339D02*
X001727Y011339D01*
X001727Y011416D02*
X001727Y011416D01*
X001727Y011494D02*
X001727Y011494D01*
X001727Y011571D02*
X001727Y011571D01*
X001727Y011648D02*
X001727Y011648D01*
X001598Y011648D02*
X001306Y011648D01*
X001306Y011725D02*
X003174Y011725D01*
X003174Y011714D02*
X002917Y011714D01*
X002917Y011538D01*
X002926Y011503D01*
X002945Y011471D01*
X002970Y011445D01*
X003002Y011427D01*
X003038Y011417D01*
X003174Y011417D01*
X003174Y011714D01*
X003174Y011648D02*
X003253Y011648D01*
X003253Y011714D02*
X003253Y011793D01*
X003292Y011793D01*
X003292Y011714D01*
X003253Y011714D01*
X003253Y011725D02*
X003292Y011725D01*
X003253Y011793D02*
X003253Y011950D01*
X003174Y011950D01*
X003174Y011793D01*
X003253Y011793D01*
X003253Y011803D02*
X003174Y011803D01*
X003174Y011880D02*
X003253Y011880D01*
X003253Y011571D02*
X003174Y011571D01*
X003174Y011494D02*
X003253Y011494D01*
X003292Y011416D02*
X002731Y011416D01*
X002731Y011339D02*
X003292Y011339D01*
X003292Y011262D02*
X002731Y011262D01*
X002721Y011185D02*
X002745Y011185D01*
X002731Y011494D02*
X002931Y011494D01*
X002917Y011571D02*
X002731Y011571D01*
X002666Y011648D02*
X002917Y011648D01*
X002917Y011803D02*
X001306Y011803D01*
X001298Y011880D02*
X002917Y011880D01*
X002707Y012344D02*
X002713Y012365D01*
X002713Y012502D01*
X002713Y012638D01*
X002704Y012673D01*
X002685Y012705D01*
X002659Y012731D01*
X002628Y012750D01*
X002592Y012759D01*
X002495Y012759D01*
X002398Y012759D01*
X002367Y012751D01*
X002336Y012759D01*
X002239Y012759D01*
X002142Y012759D01*
X002111Y012751D01*
X002080Y012759D01*
X001983Y012759D01*
X001886Y012759D01*
X001855Y012751D01*
X001824Y012759D01*
X001727Y012759D01*
X001630Y012759D01*
X001595Y012750D01*
X001563Y012731D01*
X001537Y012705D01*
X001519Y012673D01*
X001509Y012638D01*
X001509Y012502D01*
X001727Y012502D01*
X001727Y012759D01*
X001727Y012502D01*
X001727Y012502D01*
X001727Y012502D01*
X001509Y012502D01*
X001509Y012365D01*
X001515Y012344D01*
X001240Y012344D01*
X001252Y012351D01*
X001278Y012377D01*
X001296Y012408D01*
X001306Y012444D01*
X001306Y012659D01*
X000969Y012659D01*
X000969Y012738D01*
X000891Y012738D01*
X000891Y013074D01*
X000675Y013074D01*
X000640Y013065D01*
X000608Y013046D01*
X000582Y013020D01*
X000579Y013014D01*
X000579Y014273D01*
X006399Y014273D01*
X006399Y013014D01*
X006396Y013020D01*
X006370Y013046D01*
X006338Y013065D01*
X006303Y013074D01*
X006088Y013074D01*
X006088Y012738D01*
X006009Y012738D01*
X006009Y013074D01*
X005794Y013074D01*
X005758Y013065D01*
X005726Y013046D01*
X005700Y013020D01*
X005682Y012988D01*
X005673Y012953D01*
X005673Y012738D01*
X006009Y012738D01*
X006009Y012659D01*
X005673Y012659D01*
X005673Y012444D01*
X005682Y012408D01*
X005700Y012377D01*
X005726Y012351D01*
X005738Y012344D01*
X005463Y012344D01*
X005469Y012365D01*
X005469Y012502D01*
X005469Y012638D01*
X005460Y012673D01*
X005441Y012705D01*
X005415Y012731D01*
X005383Y012750D01*
X005348Y012759D01*
X005251Y012759D01*
X005251Y012502D01*
X005251Y012502D01*
X005251Y012759D01*
X005154Y012759D01*
X005123Y012751D01*
X005092Y012759D01*
X004995Y012759D01*
X004898Y012759D01*
X004867Y012751D01*
X004836Y012759D01*
X004739Y012759D01*
X004642Y012759D01*
X004611Y012751D01*
X004580Y012759D01*
X004483Y012759D01*
X004386Y012759D01*
X004351Y012750D01*
X004319Y012731D01*
X004293Y012705D01*
X004275Y012673D01*
X004265Y012638D01*
X004265Y012502D01*
X004483Y012502D01*
X004483Y012759D01*
X004483Y012502D01*
X004483Y012502D01*
X004483Y012502D01*
X004265Y012502D01*
X004265Y012365D01*
X004271Y012344D01*
X002707Y012344D01*
X002713Y012421D02*
X004265Y012421D01*
X004265Y012498D02*
X002713Y012498D01*
X002713Y012502D02*
X002495Y012502D01*
X002495Y012759D01*
X002495Y012502D01*
X002495Y012502D01*
X002713Y012502D01*
X002713Y012575D02*
X004265Y012575D01*
X004269Y012652D02*
X002709Y012652D01*
X002661Y012730D02*
X004317Y012730D01*
X004483Y012730D02*
X004483Y012730D01*
X004483Y012652D02*
X004483Y012652D01*
X004483Y012575D02*
X004483Y012575D01*
X004483Y012502D02*
X004739Y012502D01*
X004739Y012759D01*
X004739Y012502D01*
X004739Y012502D01*
X004739Y012502D01*
X004995Y012502D01*
X004995Y012759D01*
X004995Y012502D01*
X004995Y012502D01*
X004995Y012502D01*
X005251Y012502D01*
X005469Y012502D01*
X005251Y012502D01*
X005251Y012502D01*
X005251Y012502D01*
X005033Y012502D01*
X004995Y012502D01*
X004995Y012502D01*
X004777Y012502D01*
X004739Y012502D01*
X004739Y012502D01*
X004521Y012502D01*
X004483Y012502D01*
X004483Y012502D01*
X004739Y012575D02*
X004739Y012575D01*
X004739Y012652D02*
X004739Y012652D01*
X004739Y012730D02*
X004739Y012730D01*
X004995Y012730D02*
X004995Y012730D01*
X004995Y012652D02*
X004995Y012652D01*
X004995Y012575D02*
X004995Y012575D01*
X005251Y012575D02*
X005251Y012575D01*
X005251Y012652D02*
X005251Y012652D01*
X005251Y012730D02*
X005251Y012730D01*
X005417Y012730D02*
X006009Y012730D01*
X006009Y012807D02*
X006088Y012807D01*
X006088Y012884D02*
X006009Y012884D01*
X006009Y012961D02*
X006088Y012961D01*
X006088Y013039D02*
X006009Y013039D01*
X005719Y013039D02*
X001259Y013039D01*
X001252Y013046D02*
X001220Y013065D01*
X001185Y013074D01*
X000969Y013074D01*
X000969Y012738D01*
X001306Y012738D01*
X001306Y012953D01*
X001296Y012988D01*
X001278Y013020D01*
X001252Y013046D01*
X001303Y012961D02*
X005675Y012961D01*
X005673Y012884D02*
X001306Y012884D01*
X001306Y012807D02*
X005673Y012807D01*
X005673Y012652D02*
X005465Y012652D01*
X005469Y012575D02*
X005673Y012575D01*
X005673Y012498D02*
X005469Y012498D01*
X005469Y012421D02*
X005679Y012421D01*
X005738Y011950D02*
X005726Y011944D01*
X005700Y011918D01*
X005682Y011886D01*
X005673Y011851D01*
X005673Y011635D01*
X006009Y011635D01*
X006009Y011557D01*
X005673Y011557D01*
X005673Y011341D01*
X005682Y011306D01*
X005700Y011274D01*
X005726Y011248D01*
X005758Y011230D01*
X005794Y011220D01*
X006009Y011220D01*
X006009Y011557D01*
X006088Y011557D01*
X006088Y011220D01*
X006303Y011220D01*
X006338Y011230D01*
X006370Y011248D01*
X006396Y011274D01*
X006399Y011280D01*
X006399Y011183D01*
X005944Y011183D01*
X005930Y011169D01*
X005917Y011183D01*
X005774Y011183D01*
X005487Y011469D01*
X005487Y011583D01*
X005395Y011675D01*
X005107Y011675D01*
X005089Y011657D01*
X004995Y011657D01*
X004898Y011657D01*
X004867Y011648D01*
X004836Y011657D01*
X004739Y011657D01*
X004642Y011657D01*
X004611Y011648D01*
X004580Y011657D01*
X004483Y011657D01*
X004386Y011657D01*
X004351Y011647D01*
X004319Y011629D01*
X004293Y011603D01*
X004275Y011571D01*
X004265Y011536D01*
X004265Y011399D01*
X004265Y011263D01*
X004275Y011227D01*
X004293Y011196D01*
X004319Y011170D01*
X004351Y011151D01*
X004386Y011142D01*
X004483Y011142D01*
X004483Y011399D01*
X004483Y011399D01*
X004265Y011399D01*
X004483Y011399D01*
X004483Y011399D01*
X004483Y011142D01*
X004580Y011142D01*
X004611Y011150D01*
X004642Y011142D01*
X004739Y011142D01*
X004739Y011399D01*
X004739Y011399D01*
X004521Y011399D01*
X004483Y011399D01*
X004483Y011657D01*
X004483Y011399D01*
X004483Y011399D01*
X004483Y011399D01*
X004739Y011399D01*
X004739Y011399D01*
X004739Y011142D01*
X004836Y011142D01*
X004867Y011150D01*
X004898Y011142D01*
X004995Y011142D01*
X005089Y011142D01*
X005107Y011124D01*
X005220Y011124D01*
X005300Y011044D01*
X005300Y010645D01*
X005373Y010572D01*
X005300Y010500D01*
X005300Y010054D01*
X005392Y009962D01*
X005438Y009962D01*
X005438Y009608D01*
X004515Y009608D01*
X004515Y010086D01*
X004422Y010179D01*
X004056Y010179D01*
X003989Y010112D01*
X003922Y010179D01*
X003686Y010179D01*
X003686Y010374D01*
X003863Y010374D01*
X003863Y010769D01*
X003942Y010769D01*
X003942Y010374D01*
X004137Y010374D01*
X004173Y010384D01*
X004205Y010402D01*
X004231Y010428D01*
X004249Y010460D01*
X004258Y010495D01*
X004258Y010769D01*
X003942Y010769D01*
X003942Y010848D01*
X004258Y010848D01*
X004258Y011122D01*
X004249Y011158D01*
X004231Y011190D01*
X004205Y011215D01*
X004173Y011234D01*
X004137Y011243D01*
X003942Y011243D01*
X003942Y010848D01*
X003863Y010848D01*
X003863Y011243D01*
X003686Y011243D01*
X003686Y011417D01*
X003725Y011417D01*
X003725Y011714D01*
X003686Y011714D01*
X003686Y011793D01*
X003725Y011793D01*
X003725Y011714D01*
X003804Y011714D01*
X003804Y011417D01*
X003941Y011417D01*
X003976Y011427D01*
X004008Y011445D01*
X004034Y011471D01*
X004052Y011503D01*
X004062Y011538D01*
X004062Y011714D01*
X003804Y011714D01*
X003804Y011793D01*
X003725Y011793D01*
X003725Y011950D01*
X003804Y011950D01*
X003804Y011793D01*
X004062Y011793D01*
X004062Y011950D01*
X005738Y011950D01*
X005680Y011880D02*
X004062Y011880D01*
X004062Y011803D02*
X005673Y011803D01*
X005673Y011725D02*
X003804Y011725D01*
X003804Y011648D02*
X003725Y011648D01*
X003725Y011571D02*
X003804Y011571D01*
X003804Y011494D02*
X003725Y011494D01*
X003686Y011416D02*
X004265Y011416D01*
X004265Y011339D02*
X003686Y011339D01*
X003686Y011262D02*
X004265Y011262D01*
X004233Y011185D02*
X004304Y011185D01*
X004258Y011108D02*
X005236Y011108D01*
X005300Y011030D02*
X004258Y011030D01*
X004258Y010953D02*
X005300Y010953D01*
X005300Y010876D02*
X004258Y010876D01*
X004258Y010721D02*
X005300Y010721D01*
X005301Y010644D02*
X004258Y010644D01*
X004258Y010567D02*
X005367Y010567D01*
X005300Y010490D02*
X004257Y010490D01*
X004215Y010412D02*
X005300Y010412D01*
X005300Y010335D02*
X003686Y010335D01*
X003686Y010258D02*
X005300Y010258D01*
X005300Y010181D02*
X003686Y010181D01*
X003863Y010412D02*
X003942Y010412D01*
X003942Y010490D02*
X003863Y010490D01*
X003863Y010567D02*
X003942Y010567D01*
X003942Y010644D02*
X003863Y010644D01*
X003863Y010721D02*
X003942Y010721D01*
X003942Y010799D02*
X005300Y010799D01*
X004995Y011142D02*
X004995Y011399D01*
X004995Y011399D01*
X004995Y011142D01*
X004995Y011185D02*
X004995Y011185D01*
X004995Y011262D02*
X004995Y011262D01*
X004995Y011339D02*
X004995Y011339D01*
X004995Y011399D02*
X004777Y011399D01*
X004739Y011399D01*
X004739Y011399D01*
X004739Y011657D01*
X004739Y011399D01*
X004739Y011399D01*
X004995Y011399D01*
X004995Y011399D01*
X004995Y011657D01*
X004995Y011399D01*
X004995Y011399D01*
X004995Y011416D02*
X004995Y011416D01*
X004995Y011494D02*
X004995Y011494D01*
X004995Y011571D02*
X004995Y011571D01*
X004995Y011648D02*
X004995Y011648D01*
X004739Y011648D02*
X004739Y011648D01*
X004739Y011571D02*
X004739Y011571D01*
X004739Y011494D02*
X004739Y011494D01*
X004739Y011416D02*
X004739Y011416D01*
X004739Y011339D02*
X004739Y011339D01*
X004739Y011262D02*
X004739Y011262D01*
X004739Y011185D02*
X004739Y011185D01*
X004483Y011185D02*
X004483Y011185D01*
X004483Y011262D02*
X004483Y011262D01*
X004483Y011339D02*
X004483Y011339D01*
X004483Y011416D02*
X004483Y011416D01*
X004483Y011494D02*
X004483Y011494D01*
X004483Y011571D02*
X004483Y011571D01*
X004483Y011648D02*
X004483Y011648D01*
X004354Y011648D02*
X004062Y011648D01*
X004062Y011571D02*
X004275Y011571D01*
X004265Y011494D02*
X004047Y011494D01*
X003942Y011185D02*
X003863Y011185D01*
X003863Y011108D02*
X003942Y011108D01*
X003942Y011030D02*
X003863Y011030D01*
X003863Y010953D02*
X003942Y010953D01*
X003942Y010876D02*
X003863Y010876D01*
X003725Y011725D02*
X003686Y011725D01*
X003725Y011803D02*
X003804Y011803D01*
X003804Y011880D02*
X003725Y011880D01*
X003413Y013171D02*
X003338Y013171D01*
X002277Y013098D01*
X002271Y013092D01*
X002197Y013092D01*
X002122Y013087D01*
X002116Y013092D01*
X001557Y013092D01*
X001442Y013207D01*
X001442Y014000D01*
X001557Y014116D01*
X001720Y014116D01*
X002116Y014116D01*
X002122Y014121D01*
X002197Y014116D01*
X002271Y014116D01*
X002277Y014110D01*
X003338Y014037D01*
X003413Y014037D01*
X003419Y014031D01*
X003427Y014031D01*
X003476Y013975D01*
X003528Y013922D01*
X003528Y013914D01*
X003534Y013908D01*
X003528Y013833D01*
X003528Y013374D01*
X003534Y013300D01*
X003528Y013294D01*
X003528Y013286D01*
X003476Y013233D01*
X003427Y013177D01*
X003419Y013176D01*
X003413Y013171D01*
X003440Y013193D02*
X006399Y013193D01*
X006399Y013270D02*
X003513Y013270D01*
X003530Y013347D02*
X006399Y013347D01*
X006399Y013425D02*
X003528Y013425D01*
X003528Y013502D02*
X006399Y013502D01*
X006399Y013579D02*
X003528Y013579D01*
X003528Y013656D02*
X006399Y013656D01*
X006399Y013734D02*
X003528Y013734D01*
X003528Y013811D02*
X006399Y013811D01*
X006399Y013888D02*
X003532Y013888D01*
X003485Y013965D02*
X006399Y013965D01*
X006399Y014043D02*
X003257Y014043D01*
X003332Y013840D02*
X003332Y013368D01*
X002190Y013289D01*
X001639Y013289D01*
X001639Y013919D01*
X002190Y013919D01*
X003332Y013840D01*
X003332Y013811D02*
X001639Y013811D01*
X001639Y013888D02*
X002636Y013888D01*
X002539Y013116D02*
X006399Y013116D01*
X006399Y013039D02*
X006378Y013039D01*
X006399Y014120D02*
X002137Y014120D01*
X002121Y014120D02*
X000579Y014120D01*
X000579Y014197D02*
X006399Y014197D01*
X005673Y011648D02*
X005421Y011648D01*
X005487Y011571D02*
X006009Y011571D01*
X006009Y011494D02*
X006088Y011494D01*
X006088Y011416D02*
X006009Y011416D01*
X006009Y011339D02*
X006088Y011339D01*
X006088Y011262D02*
X006009Y011262D01*
X005772Y011185D02*
X006399Y011185D01*
X006399Y011262D02*
X006384Y011262D01*
X006245Y010181D02*
X006166Y010181D01*
X006166Y010103D02*
X006245Y010103D01*
X006245Y010026D02*
X006166Y010026D01*
X006399Y009949D02*
X005871Y009949D01*
X005871Y009872D02*
X006399Y009872D01*
X006399Y009794D02*
X005871Y009794D01*
X005871Y009717D02*
X006399Y009717D01*
X006399Y009640D02*
X005871Y009640D01*
X005871Y009563D02*
X006399Y009563D01*
X006399Y009485D02*
X005871Y009485D01*
X005871Y009408D02*
X006399Y009408D01*
X006399Y009331D02*
X005871Y009331D01*
X005823Y009254D02*
X006399Y009254D01*
X006399Y009176D02*
X005746Y009176D01*
X005438Y009640D02*
X004515Y009640D01*
X004515Y009717D02*
X005438Y009717D01*
X005438Y009794D02*
X004515Y009794D01*
X004515Y009872D02*
X005438Y009872D01*
X005438Y009949D02*
X004515Y009949D01*
X004515Y010026D02*
X005328Y010026D01*
X005300Y010103D02*
X004498Y010103D01*
X004445Y009099D02*
X006399Y009099D01*
X006399Y009022D02*
X003859Y009022D01*
X003945Y009099D02*
X004033Y009099D01*
X003782Y008945D02*
X006399Y008945D01*
X006399Y008868D02*
X003705Y008868D01*
X003686Y008790D02*
X006399Y008790D01*
X006399Y008713D02*
X003686Y008713D01*
X003686Y008636D02*
X006399Y008636D01*
X006399Y008559D02*
X006153Y008559D01*
X006188Y008481D02*
X006399Y008481D01*
X006399Y008404D02*
X006188Y008404D01*
X006188Y008250D02*
X006399Y008250D01*
X006399Y008327D02*
X005891Y008327D01*
X005891Y008404D02*
X005812Y008404D01*
X005812Y008481D02*
X005891Y008481D01*
X005891Y008559D02*
X005812Y008559D01*
X006188Y008172D02*
X006399Y008172D01*
X006245Y006754D02*
X006324Y006675D01*
X006324Y006084D01*
X006206Y005966D01*
X006206Y005631D01*
X006245Y005338D02*
X006245Y005080D01*
X006166Y005080D01*
X006166Y005338D01*
X005990Y005338D01*
X005955Y005328D01*
X005923Y005310D01*
X005897Y005284D01*
X005879Y005252D01*
X005871Y005223D01*
X005871Y005945D01*
X006048Y005945D01*
X006048Y005907D01*
X005960Y005907D01*
X005891Y005838D01*
X005891Y005425D01*
X005960Y005356D01*
X006399Y005356D01*
X006399Y005338D01*
X006245Y005338D01*
X006245Y005314D02*
X006166Y005314D01*
X006166Y005237D02*
X006245Y005237D01*
X006245Y005160D02*
X006166Y005160D01*
X006166Y005083D02*
X006245Y005083D01*
X006245Y005002D02*
X006166Y005002D01*
X006166Y004744D01*
X005990Y004744D01*
X005955Y004754D01*
X005923Y004772D01*
X005897Y004798D01*
X005879Y004830D01*
X005871Y004859D01*
X005871Y003175D01*
X005879Y003205D01*
X005897Y003237D01*
X005923Y003263D01*
X005955Y003281D01*
X005990Y003291D01*
X006166Y003291D01*
X006166Y003033D01*
X006245Y003033D01*
X006245Y003291D01*
X006399Y003291D01*
X006399Y003309D01*
X005960Y003309D01*
X005891Y003378D01*
X005891Y003791D01*
X005960Y003860D01*
X006088Y003860D01*
X006088Y004129D01*
X005948Y004269D01*
X005948Y004514D01*
X006122Y004688D01*
X006368Y004688D01*
X006399Y004656D01*
X006399Y004744D01*
X006245Y004744D01*
X006245Y005002D01*
X006245Y004928D02*
X006166Y004928D01*
X006166Y004851D02*
X006245Y004851D01*
X006245Y004774D02*
X006166Y004774D01*
X006054Y004619D02*
X005871Y004619D01*
X005871Y004542D02*
X005976Y004542D01*
X005948Y004465D02*
X005871Y004465D01*
X005871Y004388D02*
X005948Y004388D01*
X005948Y004310D02*
X005871Y004310D01*
X005871Y004233D02*
X005984Y004233D01*
X006061Y004156D02*
X005871Y004156D01*
X005871Y004079D02*
X006088Y004079D01*
X006088Y004001D02*
X005871Y004001D01*
X005871Y003924D02*
X006088Y003924D01*
X005947Y003847D02*
X005871Y003847D01*
X005871Y003770D02*
X005891Y003770D01*
X005891Y003692D02*
X005871Y003692D01*
X005871Y003615D02*
X005891Y003615D01*
X005891Y003538D02*
X005871Y003538D01*
X005871Y003461D02*
X005891Y003461D01*
X005891Y003383D02*
X005871Y003383D01*
X005871Y003306D02*
X006399Y003306D01*
X006245Y003229D02*
X006166Y003229D01*
X006166Y003152D02*
X006245Y003152D01*
X006245Y003075D02*
X006166Y003075D01*
X006166Y002920D02*
X006245Y002920D01*
X006245Y002843D02*
X006166Y002843D01*
X006166Y002766D02*
X006245Y002766D01*
X006399Y002688D02*
X005871Y002688D01*
X005871Y002611D02*
X006399Y002611D01*
X006399Y002534D02*
X005871Y002534D01*
X005871Y002457D02*
X006399Y002457D01*
X006399Y002379D02*
X005871Y002379D01*
X005871Y002302D02*
X006399Y002302D01*
X006399Y002225D02*
X005871Y002225D01*
X005871Y002148D02*
X006399Y002148D01*
X006399Y002070D02*
X005871Y002070D01*
X005871Y001993D02*
X006399Y001993D01*
X006399Y001916D02*
X005885Y001916D01*
X005932Y001839D02*
X006399Y001839D01*
X006399Y001761D02*
X005932Y001761D01*
X005932Y001684D02*
X006399Y001684D01*
X006399Y001607D02*
X005932Y001607D01*
X005903Y001530D02*
X006399Y001530D01*
X006399Y001452D02*
X005825Y001452D01*
X005748Y001375D02*
X006399Y001375D01*
X005714Y001872D02*
X005556Y001714D01*
X005364Y001375D02*
X005158Y001375D01*
X005235Y001452D02*
X005287Y001452D01*
X005714Y001872D02*
X005714Y006025D01*
X005930Y006242D01*
X005871Y005932D02*
X006048Y005932D01*
X005908Y005855D02*
X005871Y005855D01*
X005871Y005778D02*
X005891Y005778D01*
X005891Y005701D02*
X005871Y005701D01*
X005871Y005623D02*
X005891Y005623D01*
X005891Y005546D02*
X005871Y005546D01*
X005871Y005469D02*
X005891Y005469D01*
X005871Y005392D02*
X005924Y005392D01*
X005931Y005314D02*
X005871Y005314D01*
X005871Y005237D02*
X005875Y005237D01*
X005871Y004851D02*
X005873Y004851D01*
X005871Y004774D02*
X005921Y004774D01*
X005871Y004697D02*
X006399Y004697D01*
X006245Y004391D02*
X006245Y003624D01*
X006206Y003584D01*
X005893Y003229D02*
X005871Y003229D01*
X005871Y002766D02*
X005889Y002766D01*
X005182Y002766D02*
X004158Y002766D01*
X004158Y002843D02*
X005182Y002843D01*
X005182Y002920D02*
X004158Y002920D01*
X004158Y002997D02*
X005182Y002997D01*
X005182Y003075D02*
X004158Y003075D01*
X004158Y003082D02*
X004089Y003151D01*
X003918Y003151D01*
X003897Y003163D01*
X003862Y003172D01*
X003784Y003172D01*
X003784Y002777D01*
X003784Y002777D01*
X003784Y002382D01*
X003862Y002382D01*
X003897Y002391D01*
X003918Y002403D01*
X004089Y002403D01*
X004158Y002472D01*
X004158Y003082D01*
X004321Y003494D02*
X004357Y003484D01*
X004690Y003484D01*
X004690Y004017D01*
X004236Y004017D01*
X004236Y003605D01*
X004245Y003570D01*
X004263Y003538D01*
X004289Y003512D01*
X004321Y003494D01*
X004264Y003538D02*
X003764Y003538D01*
X003786Y003615D02*
X004236Y003615D01*
X004236Y003692D02*
X003786Y003692D01*
X003786Y003770D02*
X004236Y003770D01*
X004236Y003847D02*
X003744Y003847D01*
X003667Y003924D02*
X004236Y003924D01*
X004236Y004001D02*
X003450Y004001D01*
X003450Y004079D02*
X004690Y004079D01*
X004690Y004156D02*
X004769Y004156D01*
X004769Y004233D02*
X004690Y004233D01*
X004690Y004310D02*
X004769Y004310D01*
X004769Y004388D02*
X004690Y004388D01*
X004690Y004465D02*
X004769Y004465D01*
X004769Y004542D02*
X004690Y004542D01*
X004690Y004619D02*
X004769Y004619D01*
X004769Y004001D02*
X004690Y004001D01*
X004690Y003924D02*
X004769Y003924D01*
X004769Y003847D02*
X004690Y003847D01*
X004690Y003770D02*
X004769Y003770D01*
X004769Y003692D02*
X004690Y003692D01*
X004690Y003615D02*
X004769Y003615D01*
X004769Y003538D02*
X004690Y003538D01*
X004236Y004156D02*
X003450Y004156D01*
X003450Y004233D02*
X004236Y004233D01*
X004236Y004310D02*
X003450Y004310D01*
X003450Y004388D02*
X004236Y004388D01*
X004236Y004465D02*
X003450Y004465D01*
X003450Y004542D02*
X004245Y004542D01*
X004321Y004619D02*
X003450Y004619D01*
X003450Y004697D02*
X005182Y004697D01*
X005182Y004774D02*
X003450Y004774D01*
X003450Y004851D02*
X005182Y004851D01*
X005182Y004928D02*
X003450Y004928D01*
X003373Y005006D02*
X005182Y005006D01*
X005182Y005083D02*
X003296Y005083D01*
X003357Y005021D02*
X003357Y005021D01*
X003292Y004864D02*
X002347Y005809D01*
X002347Y006360D01*
X004591Y006360D01*
X005261Y007029D01*
X005159Y006705D02*
X005469Y006705D01*
X005433Y006782D02*
X005546Y006782D01*
X005510Y006859D02*
X005615Y006859D01*
X005615Y006937D02*
X005557Y006937D01*
X005557Y007014D02*
X005615Y007014D01*
X005615Y007091D02*
X005557Y007091D01*
X005541Y007168D02*
X005615Y007168D01*
X005615Y007245D02*
X005464Y007245D01*
X005462Y007323D02*
X005615Y007323D01*
X005615Y007400D02*
X005539Y007400D01*
X005391Y006628D02*
X005082Y006628D01*
X005005Y006550D02*
X005314Y006550D01*
X005237Y006473D02*
X004927Y006473D01*
X004850Y006396D02*
X005182Y006396D01*
X005182Y006319D02*
X004773Y006319D01*
X004696Y006241D02*
X005182Y006241D01*
X005182Y006164D02*
X002505Y006164D01*
X002505Y006087D02*
X005182Y006087D01*
X005182Y006010D02*
X002505Y006010D01*
X002505Y005932D02*
X005182Y005932D01*
X005182Y005855D02*
X002524Y005855D01*
X002601Y005778D02*
X005182Y005778D01*
X005182Y005701D02*
X002678Y005701D01*
X002755Y005623D02*
X005182Y005623D01*
X005182Y005546D02*
X002833Y005546D01*
X002910Y005469D02*
X005182Y005469D01*
X005182Y005392D02*
X002987Y005392D01*
X003064Y005314D02*
X005182Y005314D01*
X005182Y005237D02*
X003142Y005237D01*
X003219Y005160D02*
X005182Y005160D01*
X005182Y004619D02*
X005138Y004619D01*
X005182Y003461D02*
X003686Y003461D01*
X003600Y003306D02*
X005182Y003306D01*
X005182Y003229D02*
X003674Y003229D01*
X003588Y003092D02*
X003135Y003565D01*
X003135Y004824D01*
X002052Y005907D01*
X002052Y006596D01*
X001836Y006793D02*
X001954Y006911D01*
X002190Y006911D01*
X002347Y006754D01*
X002347Y006360D01*
X002780Y006557D02*
X002190Y007128D01*
X001757Y007128D01*
X001836Y006793D02*
X001481Y006793D01*
X001639Y006320D02*
X001639Y006084D01*
X002977Y004785D01*
X002977Y003525D01*
X003391Y003092D01*
X003391Y002777D01*
X003588Y002777D02*
X003588Y003092D01*
X003526Y003383D02*
X005182Y003383D01*
X005182Y003152D02*
X003917Y003152D01*
X003784Y003152D02*
X003784Y003152D01*
X003784Y003075D02*
X003784Y003075D01*
X003784Y002997D02*
X003784Y002997D01*
X003784Y002920D02*
X003784Y002920D01*
X003784Y002843D02*
X003784Y002843D01*
X003784Y002766D02*
X003784Y002766D01*
X003784Y002688D02*
X003784Y002688D01*
X003784Y002611D02*
X003784Y002611D01*
X003784Y002534D02*
X003784Y002534D01*
X003784Y002457D02*
X003784Y002457D01*
X004143Y002457D02*
X004960Y002457D01*
X005038Y002534D02*
X004158Y002534D01*
X004158Y002611D02*
X005115Y002611D01*
X005182Y002688D02*
X004158Y002688D01*
X004600Y002302D02*
X004806Y002302D01*
X004729Y002225D02*
X004678Y002225D01*
X004414Y001607D02*
X004336Y001607D01*
X004336Y001530D02*
X004414Y001530D01*
X004414Y001452D02*
X004336Y001452D01*
X004336Y001375D02*
X004414Y001375D01*
X004597Y001375D02*
X004773Y001375D01*
X004696Y001452D02*
X004674Y001452D01*
X004153Y001375D02*
X003977Y001375D01*
X004054Y001452D02*
X004075Y001452D01*
X003592Y001375D02*
X003386Y001375D01*
X003463Y001452D02*
X003515Y001452D01*
X003002Y001375D02*
X002795Y001375D01*
X002873Y001452D02*
X002924Y001452D01*
X002288Y003538D02*
X002210Y003538D01*
X002210Y003615D02*
X002288Y003615D01*
X002288Y003692D02*
X002210Y003692D01*
X002210Y003770D02*
X002288Y003770D01*
X002288Y003847D02*
X002210Y003847D01*
X002210Y003924D02*
X002288Y003924D01*
X002288Y004001D02*
X002210Y004001D01*
X002210Y004156D02*
X002288Y004156D01*
X002288Y004233D02*
X002210Y004233D01*
X002210Y004310D02*
X002288Y004310D01*
X002288Y004388D02*
X002210Y004388D01*
X002210Y004465D02*
X002288Y004465D01*
X002288Y004542D02*
X002210Y004542D01*
X002210Y004619D02*
X002288Y004619D01*
X002452Y004851D02*
X001795Y004851D01*
X001857Y004774D02*
X002530Y004774D01*
X002607Y004697D02*
X001857Y004697D01*
X001718Y004928D02*
X002375Y004928D01*
X002298Y005006D02*
X002082Y005006D01*
X002159Y005083D02*
X002221Y005083D01*
X002658Y004619D02*
X002662Y004619D01*
X003292Y004864D02*
X003292Y003840D01*
X003489Y003643D01*
X003489Y003683D01*
X001821Y001375D02*
X001614Y001375D01*
X001692Y001452D02*
X001743Y001452D01*
X000891Y007421D02*
X000715Y007421D01*
X000679Y007431D01*
X000648Y007449D01*
X000622Y007475D01*
X000603Y007507D01*
X000594Y007542D01*
X000594Y007679D01*
X000891Y007679D01*
X000891Y007421D01*
X000891Y007477D02*
X000969Y007477D01*
X000969Y007554D02*
X000891Y007554D01*
X000891Y007632D02*
X000969Y007632D01*
X000891Y007709D02*
X000579Y007709D01*
X000579Y007786D02*
X000594Y007786D01*
X000579Y007632D02*
X000594Y007632D01*
X000594Y007554D02*
X000579Y007554D01*
X000579Y007477D02*
X000620Y007477D01*
X000594Y008250D02*
X000579Y008250D01*
X000891Y008481D02*
X000969Y008481D01*
X000969Y008559D02*
X000891Y008559D01*
X000579Y009176D02*
X001283Y009176D01*
X001283Y009254D02*
X000579Y009254D01*
X000579Y009331D02*
X001295Y009331D01*
X001387Y009408D02*
X000579Y009408D01*
X000579Y011185D02*
X001548Y011185D01*
X001509Y011262D02*
X001266Y011262D01*
X001305Y011339D02*
X001509Y011339D01*
X001509Y011416D02*
X001306Y011416D01*
X001306Y011494D02*
X001509Y011494D01*
X001519Y011571D02*
X000969Y011571D01*
X000969Y011494D02*
X000891Y011494D01*
X000891Y011416D02*
X000969Y011416D01*
X000969Y011339D02*
X000891Y011339D01*
X000891Y011262D02*
X000969Y011262D01*
X000595Y011262D02*
X000579Y011262D01*
X000969Y012730D02*
X001561Y012730D01*
X001513Y012652D02*
X001306Y012652D01*
X001306Y012575D02*
X001509Y012575D01*
X001509Y012498D02*
X001306Y012498D01*
X001299Y012421D02*
X001509Y012421D01*
X001727Y012502D02*
X001727Y012502D01*
X001983Y012502D01*
X001983Y012759D01*
X001983Y012502D01*
X001983Y012502D01*
X001983Y012502D01*
X002239Y012502D01*
X002239Y012759D01*
X002239Y012502D01*
X002239Y012502D01*
X002239Y012502D01*
X002495Y012502D01*
X002495Y012502D01*
X002495Y012502D01*
X002277Y012502D01*
X002239Y012502D01*
X002239Y012502D01*
X002201Y012502D01*
X001983Y012502D01*
X001983Y012502D01*
X001765Y012502D01*
X001727Y012502D01*
X001727Y012575D02*
X001727Y012575D01*
X001727Y012652D02*
X001727Y012652D01*
X001727Y012730D02*
X001727Y012730D01*
X001983Y012730D02*
X001983Y012730D01*
X001983Y012652D02*
X001983Y012652D01*
X001983Y012575D02*
X001983Y012575D01*
X002239Y012575D02*
X002239Y012575D01*
X002239Y012652D02*
X002239Y012652D01*
X002239Y012730D02*
X002239Y012730D01*
X002495Y012730D02*
X002495Y012730D01*
X002495Y012652D02*
X002495Y012652D01*
X002495Y012575D02*
X002495Y012575D01*
X003038Y013347D02*
X001639Y013347D01*
X001639Y013425D02*
X003332Y013425D01*
X003332Y013502D02*
X001639Y013502D01*
X001639Y013579D02*
X003332Y013579D01*
X003332Y013656D02*
X001639Y013656D01*
X001639Y013734D02*
X003332Y013734D01*
X003115Y011185D02*
X003036Y011185D01*
X003036Y011108D02*
X003115Y011108D01*
X003115Y011030D02*
X003036Y011030D01*
X003036Y010953D02*
X003115Y010953D01*
X003115Y010876D02*
X003036Y010876D01*
X003270Y008945D02*
X003292Y008945D01*
X003292Y008868D02*
X003193Y008868D01*
X003116Y008790D02*
X003292Y008790D01*
X003292Y008559D02*
X002255Y008559D01*
X002290Y008481D02*
X003292Y008481D01*
X004749Y008171D02*
X004749Y007935D01*
X004751Y007927D01*
X004755Y007921D01*
X004761Y007917D01*
X004769Y007915D01*
X005694Y011262D02*
X005713Y011262D01*
X005673Y011339D02*
X005617Y011339D01*
X005673Y011416D02*
X005540Y011416D01*
X005487Y011494D02*
X005673Y011494D01*
X001534Y013116D02*
X000579Y013116D01*
X000579Y013193D02*
X001456Y013193D01*
X001442Y013270D02*
X000579Y013270D01*
X000579Y013347D02*
X001442Y013347D01*
X001442Y013425D02*
X000579Y013425D01*
X000579Y013502D02*
X001442Y013502D01*
X001442Y013579D02*
X000579Y013579D01*
X000579Y013656D02*
X001442Y013656D01*
X001442Y013734D02*
X000579Y013734D01*
X000579Y013811D02*
X001442Y013811D01*
X001442Y013888D02*
X000579Y013888D01*
X000579Y013965D02*
X001442Y013965D01*
X001484Y014043D02*
X000579Y014043D01*
X000579Y013039D02*
X000601Y013039D01*
X000891Y013039D02*
X000969Y013039D01*
X000969Y012961D02*
X000891Y012961D01*
X000891Y012884D02*
X000969Y012884D01*
X000969Y012807D02*
X000891Y012807D01*
X001442Y007718D02*
X001481Y007679D01*
X001481Y007502D01*
D20*
X001757Y007128D03*
X001481Y006793D03*
X001639Y006320D03*
X002052Y006596D03*
X001914Y005257D03*
X001560Y004667D03*
X001639Y004194D03*
X002662Y002738D03*
X003489Y003683D03*
X004119Y003289D03*
X002938Y006911D03*
X004749Y008171D03*
X005103Y007738D03*
X005261Y007029D03*
X005930Y006242D03*
X006245Y006754D03*
X006245Y004391D03*
X006245Y002502D03*
D21*
X005418Y002580D02*
X004946Y002108D01*
X004946Y001734D01*
X004965Y001714D01*
X005418Y002580D02*
X005418Y006320D01*
X005851Y006754D01*
X005851Y007718D01*
D22*
X004434Y013604D03*
X002584Y013604D03*
D23*
X001914Y013604D03*
X001914Y010572D03*
X001914Y009982D03*
X000851Y009667D03*
X000851Y009076D03*
X005064Y009982D03*
X005064Y010572D03*
X006127Y009667D03*
X006127Y009076D03*
X005103Y013604D03*
D24*
X003883Y013604D03*
X003135Y013604D03*
D25*
X002505Y011399D02*
X002495Y011399D01*
X002505Y011399D02*
X002505Y010868D01*
X002505Y010277D02*
X003036Y010277D01*
X003239Y010074D01*
X003239Y009628D01*
X003253Y009614D01*
X003253Y009234D01*
X003017Y008998D01*
X002190Y008998D01*
X002170Y009076D01*
X003214Y008683D02*
X003739Y009208D01*
X003739Y009628D01*
X004239Y009628D02*
X004239Y009429D01*
X004277Y009391D01*
X005654Y009391D01*
X005654Y010277D01*
X005851Y010828D02*
X005654Y010868D01*
X005654Y010996D01*
X005251Y011399D01*
X005851Y010828D02*
X006206Y010828D01*
X006206Y010868D01*
X004277Y008801D02*
X004316Y008328D01*
X003725Y008328D01*
X003725Y007580D01*
X003739Y007580D01*
M02*
