G75*
%MOIN*%
%OFA0B0*%
%FSLAX24Y24*%
%IPPOS*%
%LPD*%
%AMOC8*
5,1,8,0,0,1.08239X$1,22.5*
%
%ADD10R,0.0237X0.0316*%
%ADD11R,0.0316X0.0867*%
%ADD12R,0.0250X0.0400*%
%ADD13R,0.1780X0.1780*%
%ADD14R,0.0395X0.0474*%
%ADD15R,0.0474X0.0395*%
%ADD16R,0.0395X0.0277*%
%ADD17R,0.0513X0.0434*%
%ADD18OC8,0.0595*%
%ADD19R,0.0552X0.0552*%
%ADD20R,0.0513X0.0671*%
%ADD21OC8,0.0437*%
%ADD22R,0.0555X0.0555*%
%ADD23R,0.0671X0.0671*%
%ADD24R,0.0476X0.0476*%
D10*
X001727Y011399D03*
X001983Y011399D03*
X002239Y011399D03*
X002495Y011399D03*
X002495Y012502D03*
X002239Y012502D03*
X001983Y012502D03*
X001727Y012502D03*
X004483Y012502D03*
X004739Y012502D03*
X004995Y012502D03*
X005251Y012502D03*
X005251Y011399D03*
X004995Y011399D03*
X004739Y011399D03*
X004483Y011399D03*
D11*
X004239Y009628D03*
X003739Y009628D03*
X003239Y009628D03*
X002739Y009628D03*
X002739Y007580D03*
X003239Y007580D03*
X003739Y007580D03*
X004239Y007580D03*
D12*
G36*
X003698Y006379D02*
X003522Y006555D01*
X003804Y006837D01*
X003980Y006661D01*
X003698Y006379D01*
G37*
G36*
X003882Y006195D02*
X003706Y006371D01*
X003988Y006653D01*
X004164Y006477D01*
X003882Y006195D01*
G37*
G36*
X004058Y006018D02*
X003882Y006194D01*
X004164Y006476D01*
X004340Y006300D01*
X004058Y006018D01*
G37*
G36*
X004242Y005835D02*
X004066Y006011D01*
X004348Y006293D01*
X004524Y006117D01*
X004242Y005835D01*
G37*
G36*
X004426Y005651D02*
X004250Y005827D01*
X004532Y006109D01*
X004708Y005933D01*
X004426Y005651D01*
G37*
G36*
X004603Y005474D02*
X004427Y005650D01*
X004709Y005932D01*
X004885Y005756D01*
X004603Y005474D01*
G37*
G36*
X004787Y005290D02*
X004611Y005466D01*
X004893Y005748D01*
X005069Y005572D01*
X004787Y005290D01*
G37*
G36*
X004611Y005049D02*
X004787Y005225D01*
X005069Y004943D01*
X004893Y004767D01*
X004611Y005049D01*
G37*
G36*
X004427Y004865D02*
X004603Y005041D01*
X004885Y004759D01*
X004709Y004583D01*
X004427Y004865D01*
G37*
G36*
X004250Y004688D02*
X004426Y004864D01*
X004708Y004582D01*
X004532Y004406D01*
X004250Y004688D01*
G37*
G36*
X004066Y004504D02*
X004242Y004680D01*
X004524Y004398D01*
X004348Y004222D01*
X004066Y004504D01*
G37*
G36*
X003882Y004321D02*
X004058Y004497D01*
X004340Y004215D01*
X004164Y004039D01*
X003882Y004321D01*
G37*
G36*
X003706Y004144D02*
X003882Y004320D01*
X004164Y004038D01*
X003988Y003862D01*
X003706Y004144D01*
G37*
G36*
X003522Y003960D02*
X003698Y004136D01*
X003980Y003854D01*
X003804Y003678D01*
X003522Y003960D01*
G37*
G36*
X003174Y003678D02*
X002998Y003854D01*
X003280Y004136D01*
X003456Y003960D01*
X003174Y003678D01*
G37*
G36*
X002991Y003862D02*
X002815Y004038D01*
X003097Y004320D01*
X003273Y004144D01*
X002991Y003862D01*
G37*
G36*
X002814Y004039D02*
X002638Y004215D01*
X002920Y004497D01*
X003096Y004321D01*
X002814Y004039D01*
G37*
G36*
X002630Y004222D02*
X002454Y004398D01*
X002736Y004680D01*
X002912Y004504D01*
X002630Y004222D01*
G37*
G36*
X002446Y004406D02*
X002270Y004582D01*
X002552Y004864D01*
X002728Y004688D01*
X002446Y004406D01*
G37*
G36*
X002269Y004583D02*
X002093Y004759D01*
X002375Y005041D01*
X002551Y004865D01*
X002269Y004583D01*
G37*
G36*
X002086Y004767D02*
X001910Y004943D01*
X002192Y005225D01*
X002368Y005049D01*
X002086Y004767D01*
G37*
G36*
X001910Y005572D02*
X002086Y005748D01*
X002368Y005466D01*
X002192Y005290D01*
X001910Y005572D01*
G37*
G36*
X002093Y005756D02*
X002269Y005932D01*
X002551Y005650D01*
X002375Y005474D01*
X002093Y005756D01*
G37*
G36*
X002270Y005933D02*
X002446Y006109D01*
X002728Y005827D01*
X002552Y005651D01*
X002270Y005933D01*
G37*
G36*
X002454Y006117D02*
X002630Y006293D01*
X002912Y006011D01*
X002736Y005835D01*
X002454Y006117D01*
G37*
G36*
X002638Y006300D02*
X002814Y006476D01*
X003096Y006194D01*
X002920Y006018D01*
X002638Y006300D01*
G37*
G36*
X002815Y006477D02*
X002991Y006653D01*
X003273Y006371D01*
X003097Y006195D01*
X002815Y006477D01*
G37*
G36*
X002998Y006661D02*
X003174Y006837D01*
X003456Y006555D01*
X003280Y006379D01*
X002998Y006661D01*
G37*
D13*
G36*
X003489Y006515D02*
X004747Y005257D01*
X003489Y003999D01*
X002231Y005257D01*
X003489Y006515D01*
G37*
D14*
X004808Y009076D03*
X005399Y009076D03*
X005635Y007423D03*
X005418Y006557D03*
X005556Y005691D03*
X005556Y005061D03*
X005615Y004293D03*
X005064Y004293D03*
X004119Y002817D03*
X004355Y002305D03*
X004906Y002305D03*
X003568Y002817D03*
X002032Y002305D03*
X001481Y002305D03*
X001304Y005257D03*
X000753Y005257D03*
X003214Y011754D03*
X003765Y011754D03*
X004867Y006557D03*
X006147Y005691D03*
X006147Y005061D03*
X006225Y007423D03*
D15*
X006028Y003761D03*
X006028Y003210D03*
X004473Y010277D03*
X004473Y010868D03*
X001875Y008309D03*
X001875Y007718D03*
X001147Y006281D03*
X001147Y005730D03*
X001009Y007718D03*
X001009Y008309D03*
X000773Y010277D03*
X000773Y010868D03*
X001324Y010868D03*
X001324Y010277D03*
D16*
X000969Y003663D03*
X000969Y002915D03*
X002072Y002915D03*
X002072Y003289D03*
X002072Y003663D03*
D17*
X004788Y003801D03*
X004788Y003250D03*
X005497Y003250D03*
X005497Y003801D03*
D18*
X001422Y001714D03*
X002013Y001714D03*
X002603Y001714D03*
X003194Y001714D03*
X003784Y001714D03*
X004375Y001714D03*
X004965Y001714D03*
X005556Y001714D03*
D19*
X006048Y011596D03*
X006048Y012698D03*
X000930Y012698D03*
X000930Y011596D03*
D20*
X003076Y010809D03*
X003902Y010809D03*
D21*
X004749Y008171D03*
X005103Y007738D03*
X005261Y007029D03*
X005930Y006242D03*
X006245Y006754D03*
X006245Y004391D03*
X006245Y002502D03*
X004119Y003289D03*
X003489Y003683D03*
X002662Y002738D03*
X001639Y004194D03*
X001560Y004667D03*
X001914Y005257D03*
X001639Y006320D03*
X001481Y006793D03*
X001757Y007128D03*
X002052Y006596D03*
X002938Y006911D03*
D22*
X002584Y013604D03*
X004434Y013604D03*
D23*
X005103Y013604D03*
X005064Y010572D03*
X005064Y009982D03*
X006127Y009667D03*
X006127Y009076D03*
X001914Y009982D03*
X001914Y010572D03*
X000851Y009667D03*
X000851Y009076D03*
X001914Y013604D03*
D24*
X003135Y013604D03*
X003883Y013604D03*
M02*
