G75*
%MOIN*%
%OFA0B0*%
%FSLAX24Y24*%
%IPPOS*%
%LPD*%
%AMOC8*
5,1,8,0,0,1.08239X$1,22.5*
%
%ADD10C,0.0000*%
%ADD11C,0.0050*%
%ADD12C,0.0020*%
%ADD13C,0.0059*%
%ADD14C,0.0030*%
%ADD15C,0.0079*%
D10*
X000340Y000139D02*
X000340Y015100D01*
X006639Y015100D01*
X006639Y000139D01*
X000340Y000139D01*
D11*
X004995Y005257D02*
X004997Y005270D01*
X005002Y005283D01*
X005011Y005294D01*
X005022Y005301D01*
X005035Y005306D01*
X005048Y005307D01*
X005062Y005304D01*
X005074Y005298D01*
X005084Y005289D01*
X005091Y005277D01*
X005095Y005264D01*
X005095Y005250D01*
X005091Y005237D01*
X005084Y005225D01*
X005074Y005216D01*
X005062Y005210D01*
X005048Y005207D01*
X005035Y005208D01*
X005022Y005213D01*
X005011Y005220D01*
X005002Y005231D01*
X004997Y005244D01*
X004995Y005257D01*
X005282Y011694D02*
X005284Y011704D01*
X005289Y011713D01*
X005298Y011719D01*
X005307Y011722D01*
X005318Y011721D01*
X005327Y011716D01*
X005334Y011709D01*
X005338Y011699D01*
X005338Y011689D01*
X005334Y011679D01*
X005327Y011672D01*
X005318Y011667D01*
X005307Y011666D01*
X005298Y011669D01*
X005289Y011675D01*
X005284Y011684D01*
X005282Y011694D01*
X002526Y011694D02*
X002528Y011704D01*
X002533Y011713D01*
X002542Y011719D01*
X002551Y011722D01*
X002562Y011721D01*
X002571Y011716D01*
X002578Y011709D01*
X002582Y011699D01*
X002582Y011689D01*
X002578Y011679D01*
X002571Y011672D01*
X002562Y011667D01*
X002551Y011666D01*
X002542Y011669D01*
X002533Y011675D01*
X002528Y011684D01*
X002526Y011694D01*
D12*
X002645Y012679D02*
X002645Y012954D01*
X002461Y012954D01*
X002373Y012954D02*
X002373Y012679D01*
X002189Y012679D01*
X002281Y012817D02*
X002373Y012817D01*
X002373Y012954D02*
X002189Y012954D01*
X002101Y012954D02*
X001917Y012954D01*
X001829Y012908D02*
X001783Y012954D01*
X001692Y012954D01*
X001646Y012908D01*
X001646Y012863D01*
X001829Y012679D01*
X001646Y012679D01*
X002009Y012679D02*
X002009Y012954D01*
X002553Y012817D02*
X002645Y012817D01*
X003295Y012239D02*
X003341Y012285D01*
X003433Y012285D01*
X003479Y012239D01*
X003567Y012239D02*
X003613Y012285D01*
X003705Y012285D01*
X003751Y012239D01*
X003751Y012056D01*
X003705Y012010D01*
X003613Y012010D01*
X003567Y012056D01*
X003479Y012010D02*
X003295Y012193D01*
X003295Y012239D01*
X003295Y012010D02*
X003479Y012010D01*
X003433Y011458D02*
X003341Y011458D01*
X003295Y011412D01*
X003295Y011367D01*
X003341Y011321D01*
X003295Y011275D01*
X003295Y011229D01*
X003341Y011183D01*
X003433Y011183D01*
X003479Y011229D01*
X003567Y011229D02*
X003613Y011183D01*
X003705Y011183D01*
X003751Y011229D01*
X003751Y011412D01*
X003705Y011458D01*
X003613Y011458D01*
X003567Y011412D01*
X003479Y011412D02*
X003433Y011458D01*
X003387Y011321D02*
X003341Y011321D01*
X004402Y012679D02*
X004585Y012679D01*
X004585Y012863D02*
X004493Y012954D01*
X004493Y012679D01*
X004673Y012954D02*
X004857Y012954D01*
X004945Y012954D02*
X005129Y012954D01*
X005129Y012679D01*
X004945Y012679D01*
X005037Y012817D02*
X005129Y012817D01*
X005217Y012954D02*
X005401Y012954D01*
X005401Y012679D01*
X005401Y012817D02*
X005309Y012817D01*
X004765Y012954D02*
X004765Y012679D01*
X004729Y010766D02*
X004729Y010582D01*
X004729Y010494D02*
X004821Y010402D01*
X004821Y010448D02*
X004821Y010311D01*
X004729Y010311D02*
X005005Y010311D01*
X005005Y010448D01*
X004959Y010494D01*
X004867Y010494D01*
X004821Y010448D01*
X004913Y010582D02*
X005005Y010674D01*
X004729Y010674D01*
X004910Y009608D02*
X005093Y009608D01*
X005093Y009470D01*
X005001Y009516D01*
X004956Y009516D01*
X004910Y009470D01*
X004910Y009378D01*
X004956Y009332D01*
X005047Y009332D01*
X005093Y009378D01*
X005181Y009332D02*
X005273Y009424D01*
X005227Y009424D02*
X005365Y009424D01*
X005365Y009332D02*
X005365Y009608D01*
X005227Y009608D01*
X005181Y009562D01*
X005181Y009470D01*
X005227Y009424D01*
X005374Y007994D02*
X005329Y007948D01*
X005329Y007856D01*
X005374Y007810D01*
X005512Y007810D01*
X005512Y007718D02*
X005512Y007994D01*
X005374Y007994D01*
X005600Y007948D02*
X005600Y007856D01*
X005646Y007810D01*
X005784Y007810D01*
X005872Y007810D02*
X005872Y007994D01*
X005784Y007994D02*
X005646Y007994D01*
X005600Y007948D01*
X005784Y007994D02*
X005784Y007718D01*
X005872Y007810D02*
X005964Y007718D01*
X006056Y007810D01*
X006056Y007994D01*
X006144Y007672D02*
X006328Y007672D01*
X006416Y007718D02*
X006508Y007810D01*
X006462Y007810D02*
X006600Y007810D01*
X006600Y007718D02*
X006600Y007994D01*
X006462Y007994D01*
X006416Y007948D01*
X006416Y007856D01*
X006462Y007810D01*
X006249Y006183D02*
X006111Y006183D01*
X006065Y006137D01*
X006065Y006045D01*
X006111Y005999D01*
X006249Y005999D01*
X006157Y005999D02*
X006065Y005907D01*
X005977Y005907D02*
X005794Y005907D01*
X005885Y005907D02*
X005885Y006183D01*
X005977Y006091D01*
X005705Y006045D02*
X005614Y006091D01*
X005568Y006091D01*
X005522Y006045D01*
X005522Y005953D01*
X005568Y005907D01*
X005659Y005907D01*
X005705Y005953D01*
X005705Y006045D02*
X005705Y006183D01*
X005522Y006183D01*
X005359Y006813D02*
X005267Y006813D01*
X005221Y006859D01*
X005221Y007042D02*
X005267Y007088D01*
X005359Y007088D01*
X005405Y007042D01*
X005405Y006859D01*
X005359Y006813D01*
X005133Y006859D02*
X005087Y006813D01*
X004995Y006813D01*
X004949Y006859D01*
X004949Y006905D01*
X004995Y006951D01*
X005133Y006951D01*
X005133Y006859D01*
X005133Y006951D02*
X005041Y007042D01*
X004949Y007088D01*
X005522Y004844D02*
X005614Y004798D01*
X005705Y004706D01*
X005568Y004706D01*
X005522Y004660D01*
X005522Y004615D01*
X005568Y004569D01*
X005659Y004569D01*
X005705Y004615D01*
X005705Y004706D01*
X005794Y004569D02*
X005977Y004569D01*
X005885Y004569D02*
X005885Y004844D01*
X005977Y004752D01*
X006065Y004706D02*
X006111Y004660D01*
X006249Y004660D01*
X006249Y004569D02*
X006249Y004844D01*
X006111Y004844D01*
X006065Y004798D01*
X006065Y004706D01*
X006157Y004660D02*
X006065Y004569D01*
X006122Y004431D02*
X006122Y004155D01*
X006213Y004155D02*
X006030Y004155D01*
X005942Y004155D02*
X005758Y004155D01*
X005850Y004155D02*
X005850Y004431D01*
X005942Y004339D01*
X006122Y004431D02*
X006213Y004339D01*
X006302Y004385D02*
X006348Y004431D01*
X006439Y004431D01*
X006485Y004385D01*
X006485Y004201D01*
X006439Y004155D01*
X006348Y004155D01*
X006302Y004201D01*
X006291Y003815D02*
X006245Y003770D01*
X006245Y003678D01*
X006291Y003632D01*
X006475Y003815D01*
X006291Y003815D01*
X006291Y003632D02*
X006475Y003632D01*
X006521Y003678D01*
X006521Y003770D01*
X006475Y003815D01*
X006245Y003544D02*
X006245Y003360D01*
X006245Y003452D02*
X006521Y003452D01*
X006429Y003360D01*
X006475Y003272D02*
X006521Y003226D01*
X006521Y003134D01*
X006475Y003088D01*
X006291Y003088D01*
X006245Y003134D01*
X006245Y003226D01*
X006291Y003272D01*
X005676Y003073D02*
X005493Y002797D01*
X005313Y002797D02*
X005313Y003073D01*
X005405Y003073D02*
X005221Y003073D01*
X005133Y002981D02*
X005133Y002797D01*
X005133Y002935D02*
X004949Y002935D01*
X004949Y002981D02*
X004949Y002797D01*
X004861Y002797D02*
X004677Y002797D01*
X004861Y002797D02*
X004861Y003073D01*
X004949Y002981D02*
X005041Y003073D01*
X005133Y002981D01*
X005493Y003073D02*
X005676Y002797D01*
X004893Y002042D02*
X004893Y001859D01*
X004847Y001813D01*
X004755Y001813D01*
X004709Y001859D01*
X004621Y001859D02*
X004575Y001813D01*
X004483Y001813D01*
X004437Y001859D01*
X004437Y001951D01*
X004483Y001996D01*
X004529Y001996D01*
X004621Y001951D01*
X004621Y002088D01*
X004437Y002088D01*
X004709Y002042D02*
X004755Y002088D01*
X004847Y002088D01*
X004893Y002042D01*
X004105Y002331D02*
X004059Y002285D01*
X003968Y002285D01*
X003922Y002331D01*
X003833Y002331D02*
X003833Y002285D01*
X003833Y002331D02*
X003650Y002515D01*
X003650Y002561D01*
X003833Y002561D01*
X003922Y002515D02*
X003968Y002561D01*
X004059Y002561D01*
X004105Y002515D01*
X004105Y002331D01*
X003641Y004911D02*
X003576Y004976D01*
X003609Y004943D02*
X003803Y005138D01*
X003836Y005106D02*
X003771Y005171D01*
X003675Y005201D02*
X003545Y005072D01*
X003480Y005072D01*
X003415Y005136D01*
X003415Y005201D01*
X003321Y005231D02*
X003191Y005361D01*
X003256Y005296D02*
X003451Y005491D01*
X003451Y005361D01*
X003545Y005331D02*
X003610Y005331D01*
X003675Y005266D01*
X003675Y005201D01*
X002407Y007616D02*
X002407Y007753D01*
X002361Y007799D01*
X002269Y007799D01*
X002223Y007753D01*
X002223Y007616D01*
X002223Y007707D02*
X002131Y007799D01*
X002131Y007887D02*
X002131Y008071D01*
X002131Y007979D02*
X002407Y007979D01*
X002315Y007887D01*
X002407Y007616D02*
X002131Y007616D01*
X002177Y008159D02*
X002131Y008205D01*
X002131Y008297D01*
X002177Y008343D01*
X002361Y008343D01*
X002177Y008159D01*
X002361Y008159D01*
X002407Y008205D01*
X002407Y008297D01*
X002361Y008343D01*
X001540Y008251D02*
X001265Y008251D01*
X001265Y008159D02*
X001265Y008343D01*
X001265Y008071D02*
X001265Y007887D01*
X001265Y007799D02*
X001357Y007707D01*
X001357Y007753D02*
X001357Y007616D01*
X001357Y007753D02*
X001403Y007799D01*
X001494Y007799D01*
X001540Y007753D01*
X001540Y007616D01*
X001265Y007616D01*
X001265Y007979D02*
X001540Y007979D01*
X001449Y007887D01*
X001449Y008159D02*
X001540Y008251D01*
X000845Y006922D02*
X000891Y006876D01*
X000891Y006738D01*
X000615Y006738D01*
X000615Y006650D02*
X000799Y006650D01*
X000891Y006558D01*
X000799Y006466D01*
X000615Y006466D01*
X000661Y006378D02*
X000615Y006332D01*
X000615Y006240D01*
X000661Y006195D01*
X000845Y006195D01*
X000891Y006240D01*
X000891Y006332D01*
X000845Y006378D01*
X000753Y006466D02*
X000753Y006650D01*
X000707Y006738D02*
X000707Y006876D01*
X000753Y006922D01*
X000845Y006922D01*
X000569Y006106D02*
X000569Y005923D01*
X000661Y005834D02*
X000615Y005789D01*
X000615Y005697D01*
X000661Y005651D01*
X000845Y005651D01*
X000891Y005697D01*
X000891Y005789D01*
X000845Y005834D01*
X000881Y005002D02*
X000835Y004956D01*
X000835Y004910D01*
X000881Y004864D01*
X000835Y004818D01*
X000835Y004772D01*
X000881Y004726D01*
X000973Y004726D01*
X001018Y004772D01*
X001018Y004818D01*
X000973Y004864D01*
X000881Y004864D01*
X000973Y004864D02*
X001018Y004910D01*
X001018Y004956D01*
X000973Y005002D01*
X000881Y005002D01*
X001107Y004956D02*
X001153Y005002D01*
X001244Y005002D01*
X001290Y004956D01*
X001290Y004772D01*
X001244Y004726D01*
X001153Y004726D01*
X001107Y004772D01*
X001282Y004254D02*
X001374Y004254D01*
X001420Y004208D01*
X001236Y004162D02*
X001420Y003978D01*
X001236Y003978D01*
X001236Y004162D02*
X001236Y004208D01*
X001282Y004254D01*
X001508Y004208D02*
X001554Y004254D01*
X001646Y004254D01*
X001692Y004208D01*
X001692Y004024D01*
X001646Y003978D01*
X001554Y003978D01*
X001508Y004024D01*
X001781Y003978D02*
X001873Y003978D01*
X001827Y003978D02*
X001827Y004254D01*
X001873Y004254D02*
X001781Y004254D01*
X001701Y002049D02*
X001609Y002049D01*
X001563Y002003D01*
X001563Y001819D01*
X001609Y001773D01*
X001701Y001773D01*
X001747Y001819D01*
X001835Y001819D02*
X001881Y001773D01*
X001973Y001773D01*
X002019Y001819D01*
X002019Y002003D01*
X001973Y002049D01*
X001881Y002049D01*
X001835Y002003D01*
X001747Y002003D02*
X001747Y001957D01*
X001701Y001911D01*
X001563Y001911D01*
X001701Y002049D02*
X001747Y002003D01*
X001034Y009884D02*
X001034Y010159D01*
X000897Y010159D01*
X000851Y010113D01*
X000851Y010021D01*
X000897Y009975D01*
X001034Y009975D01*
X000943Y009975D02*
X000851Y009884D01*
X000763Y009930D02*
X000717Y009884D01*
X000625Y009884D01*
X000579Y009930D01*
X000579Y009975D01*
X000625Y010021D01*
X000763Y010021D01*
X000763Y009930D01*
X000763Y010021D02*
X000671Y010113D01*
X000579Y010159D01*
X000736Y011025D02*
X000920Y011025D01*
X000736Y011209D01*
X000736Y011255D01*
X000782Y011301D01*
X000874Y011301D01*
X000920Y011255D01*
X001008Y011255D02*
X001008Y011071D01*
X001054Y011025D01*
X001192Y011025D01*
X001192Y011301D01*
X001054Y011301D01*
X001008Y011255D01*
X001580Y010766D02*
X001580Y010582D01*
X001763Y010766D01*
X001809Y010766D01*
X001855Y010720D01*
X001855Y010628D01*
X001809Y010582D01*
X001809Y010494D02*
X001718Y010494D01*
X001672Y010448D01*
X001672Y010311D01*
X001672Y010402D02*
X001580Y010494D01*
X001580Y010311D02*
X001855Y010311D01*
X001855Y010448D01*
X001809Y010494D01*
X005854Y012994D02*
X006038Y012994D01*
X005946Y012994D02*
X005946Y013269D01*
X006038Y013178D01*
X006126Y013223D02*
X006126Y013040D01*
X006172Y012994D01*
X006310Y012994D01*
X006310Y013269D01*
X006172Y013269D01*
X006126Y013223D01*
X006249Y006183D02*
X006249Y005907D01*
D13*
X005448Y011478D02*
X005408Y011478D01*
X005448Y011478D02*
X005448Y012423D01*
X005408Y012423D01*
X005851Y011911D02*
X006245Y011911D01*
X004326Y011478D02*
X004286Y011478D01*
X004286Y012423D01*
X004326Y012423D01*
X002692Y012423D02*
X002692Y011478D01*
X002652Y011478D01*
X002652Y012423D02*
X002692Y012423D01*
X001570Y012423D02*
X001530Y012423D01*
X001530Y011478D01*
X001570Y011478D01*
X001127Y012383D02*
X000733Y012383D01*
D14*
X003219Y008757D02*
X003168Y008706D01*
X003168Y008655D01*
X003219Y008604D01*
X003168Y008553D01*
X003168Y008502D01*
X003219Y008452D01*
X003321Y008452D01*
X003371Y008502D01*
X003476Y008502D02*
X003527Y008452D01*
X003629Y008452D01*
X003680Y008502D01*
X003680Y008706D01*
X003629Y008757D01*
X003527Y008757D01*
X003476Y008706D01*
X003371Y008706D02*
X003321Y008757D01*
X003219Y008757D01*
X003219Y008604D02*
X003270Y008604D01*
X003783Y008452D02*
X003885Y008452D01*
X003834Y008452D02*
X003834Y008757D01*
X003885Y008757D02*
X003783Y008757D01*
D15*
X004102Y008171D02*
X004104Y008185D01*
X004110Y008199D01*
X004118Y008211D01*
X004130Y008219D01*
X004144Y008225D01*
X004158Y008227D01*
X004172Y008225D01*
X004186Y008219D01*
X004198Y008211D01*
X004206Y008199D01*
X004212Y008185D01*
X004214Y008171D01*
X004212Y008157D01*
X004206Y008143D01*
X004198Y008131D01*
X004186Y008123D01*
X004172Y008117D01*
X004158Y008115D01*
X004144Y008117D01*
X004130Y008123D01*
X004118Y008131D01*
X004110Y008143D01*
X004104Y008157D01*
X004102Y008171D01*
X004454Y007856D02*
X004454Y009352D01*
X002525Y009352D02*
X002525Y007856D01*
X001826Y003880D02*
X001215Y003880D01*
X001215Y002698D01*
X001826Y002698D01*
X001826Y003880D01*
X001583Y003683D02*
X001585Y003697D01*
X001591Y003711D01*
X001599Y003723D01*
X001611Y003731D01*
X001625Y003737D01*
X001639Y003739D01*
X001653Y003737D01*
X001667Y003731D01*
X001679Y003723D01*
X001687Y003711D01*
X001693Y003697D01*
X001695Y003683D01*
X001693Y003669D01*
X001687Y003655D01*
X001679Y003643D01*
X001667Y003635D01*
X001653Y003629D01*
X001639Y003627D01*
X001625Y003629D01*
X001611Y003635D01*
X001599Y003643D01*
X001591Y003655D01*
X001585Y003669D01*
X001583Y003683D01*
M02*
