G75*
%MOIN*%
%OFA0B0*%
%FSLAX24Y24*%
%IPPOS*%
%LPD*%
%AMOC8*
5,1,8,0,0,1.08239X$1,22.5*
%
%ADD10C,0.0000*%
%ADD11C,0.0040*%
%ADD12C,0.0050*%
%ADD13C,0.0020*%
%ADD14C,0.0059*%
%ADD15C,0.0079*%
%ADD16C,0.0030*%
D10*
X000340Y000139D02*
X000340Y015100D01*
X006639Y015100D01*
X006639Y000139D01*
X000340Y000139D01*
D11*
X000851Y001654D02*
X000766Y001739D01*
X000766Y001995D01*
X000851Y002161D02*
X000766Y002246D01*
X000766Y002502D01*
X000595Y002669D02*
X001107Y002669D01*
X001022Y002502D02*
X000936Y002417D01*
X000936Y002246D01*
X000851Y002161D01*
X000595Y001995D02*
X001107Y001995D01*
X001107Y001739D01*
X001022Y001654D01*
X000851Y001654D01*
X001107Y002161D02*
X001107Y002417D01*
X001022Y002502D01*
X000936Y002669D02*
X000766Y002924D01*
X000766Y003091D02*
X001022Y003091D01*
X001107Y003177D01*
X001107Y003433D01*
X001192Y003433D02*
X001277Y003347D01*
X001277Y003262D01*
X001192Y003433D02*
X000766Y003433D01*
X001107Y002924D02*
X000936Y002669D01*
X000766Y004107D02*
X000766Y004192D01*
X000851Y004277D01*
X000766Y004362D01*
X000851Y004448D01*
X001107Y004448D01*
X001107Y004277D02*
X000851Y004277D01*
X000766Y004107D02*
X001107Y004107D01*
X001022Y004614D02*
X000851Y004614D01*
X000766Y004699D01*
X000766Y004955D01*
X000595Y004955D02*
X001107Y004955D01*
X001107Y004699D01*
X001022Y004614D01*
X001107Y005629D02*
X000766Y005970D01*
X000681Y005970D01*
X000595Y005885D01*
X000595Y005714D01*
X000681Y005629D01*
X001022Y006137D02*
X001022Y006222D01*
X001107Y006222D01*
X001107Y006137D01*
X001022Y006137D01*
X001107Y005970D02*
X001107Y005629D01*
X001022Y006390D02*
X000681Y006731D01*
X001022Y006731D01*
X001107Y006646D01*
X001107Y006476D01*
X001022Y006390D01*
X000681Y006390D01*
X000595Y006476D01*
X000595Y006646D01*
X000681Y006731D01*
X000766Y006898D02*
X001107Y007068D01*
X000766Y007239D01*
X002895Y004287D02*
X002819Y004210D01*
X002819Y003903D01*
X002895Y003827D01*
X003049Y003827D01*
X003125Y003903D01*
X003279Y003827D02*
X003279Y004287D01*
X003586Y003827D01*
X003586Y004287D01*
X003739Y004134D02*
X003893Y004287D01*
X003893Y003827D01*
X004046Y003827D02*
X003739Y003827D01*
X003125Y004210D02*
X003049Y004287D01*
X002895Y004287D01*
D12*
X006127Y003387D02*
X006206Y003230D01*
X006284Y003387D01*
X006127Y003387D01*
X006124Y003228D02*
X006288Y003228D01*
X006288Y005276D02*
X006124Y005276D01*
X006206Y005277D02*
X006127Y005435D01*
X006284Y005435D01*
X006206Y005277D01*
X004396Y011694D02*
X004398Y011704D01*
X004403Y011713D01*
X004412Y011719D01*
X004421Y011722D01*
X004432Y011721D01*
X004441Y011716D01*
X004448Y011709D01*
X004452Y011699D01*
X004452Y011689D01*
X004448Y011679D01*
X004441Y011672D01*
X004432Y011667D01*
X004421Y011666D01*
X004412Y011669D01*
X004403Y011675D01*
X004398Y011684D01*
X004396Y011694D01*
X001640Y011694D02*
X001642Y011704D01*
X001647Y011713D01*
X001656Y011719D01*
X001665Y011722D01*
X001676Y011721D01*
X001685Y011716D01*
X001692Y011709D01*
X001696Y011699D01*
X001696Y011689D01*
X001692Y011679D01*
X001685Y011672D01*
X001676Y011667D01*
X001665Y011666D01*
X001656Y011669D01*
X001647Y011675D01*
X001642Y011684D01*
X001640Y011694D01*
D13*
X001998Y010723D02*
X002139Y010582D01*
X002139Y010769D01*
X002279Y010723D02*
X001998Y010723D01*
X002045Y010493D02*
X002139Y010493D01*
X002185Y010446D01*
X002185Y010306D01*
X002185Y010400D02*
X002279Y010493D01*
X002279Y010306D02*
X001998Y010306D01*
X001998Y010446D01*
X002045Y010493D01*
X002025Y009622D02*
X001932Y009622D01*
X001885Y009575D01*
X001885Y009529D01*
X001932Y009482D01*
X002025Y009482D01*
X002072Y009435D01*
X002072Y009389D01*
X002025Y009342D01*
X001932Y009342D01*
X001885Y009389D01*
X001885Y009435D01*
X001932Y009482D01*
X002025Y009482D02*
X002072Y009529D01*
X002072Y009575D01*
X002025Y009622D01*
X001796Y009575D02*
X001796Y009482D01*
X001749Y009435D01*
X001609Y009435D01*
X001609Y009342D02*
X001609Y009622D01*
X001749Y009622D01*
X001796Y009575D01*
X001702Y009435D02*
X001796Y009342D01*
X001078Y011025D02*
X001078Y011301D01*
X000940Y011163D01*
X001124Y011163D01*
X000852Y011071D02*
X000852Y011255D01*
X000806Y011301D01*
X000668Y011301D01*
X000668Y011025D01*
X000806Y011025D01*
X000852Y011071D01*
X001577Y012679D02*
X001577Y012954D01*
X001761Y012954D01*
X001849Y012954D02*
X001849Y012679D01*
X002033Y012679D01*
X001941Y012817D02*
X001849Y012817D01*
X001849Y012954D02*
X002033Y012954D01*
X002121Y012954D02*
X002305Y012954D01*
X002213Y012954D02*
X002213Y012679D01*
X002393Y012817D02*
X002577Y012817D01*
X002531Y012954D02*
X002531Y012679D01*
X002393Y012817D02*
X002531Y012954D01*
X003273Y011498D02*
X003227Y011452D01*
X003227Y011268D01*
X003273Y011222D01*
X003365Y011222D01*
X003411Y011268D01*
X003411Y011452D02*
X003365Y011498D01*
X003273Y011498D01*
X003499Y011406D02*
X003591Y011498D01*
X003591Y011222D01*
X003499Y011222D02*
X003683Y011222D01*
X003637Y010435D02*
X003499Y010297D01*
X003683Y010297D01*
X003637Y010159D02*
X003637Y010435D01*
X003411Y010389D02*
X003365Y010435D01*
X003273Y010435D01*
X003227Y010389D01*
X003227Y010205D01*
X003273Y010159D01*
X003365Y010159D01*
X003411Y010205D01*
X004333Y012679D02*
X004333Y012954D01*
X004517Y012954D01*
X004605Y012954D02*
X004605Y012679D01*
X004789Y012679D01*
X004697Y012817D02*
X004605Y012817D01*
X004605Y012954D02*
X004789Y012954D01*
X004877Y012954D02*
X005061Y012954D01*
X004969Y012954D02*
X004969Y012679D01*
X005149Y012725D02*
X005195Y012679D01*
X005287Y012679D01*
X005333Y012725D01*
X005333Y012771D01*
X005287Y012817D01*
X005241Y012817D01*
X005287Y012817D02*
X005333Y012863D01*
X005333Y012908D01*
X005287Y012954D01*
X005195Y012954D01*
X005149Y012908D01*
X005786Y012994D02*
X005924Y012994D01*
X005970Y013040D01*
X005970Y013223D01*
X005924Y013269D01*
X005786Y013269D01*
X005786Y012994D01*
X006058Y013040D02*
X006104Y012994D01*
X006196Y012994D01*
X006242Y013040D01*
X006242Y013086D01*
X006196Y013132D01*
X006150Y013132D01*
X006196Y013132D02*
X006242Y013178D01*
X006242Y013223D01*
X006196Y013269D01*
X006104Y013269D01*
X006058Y013223D01*
X005775Y010100D02*
X005822Y010053D01*
X005822Y009960D01*
X005775Y009913D01*
X005822Y009824D02*
X005729Y009730D01*
X005729Y009777D02*
X005729Y009637D01*
X005822Y009637D02*
X005542Y009637D01*
X005542Y009777D01*
X005588Y009824D01*
X005682Y009824D01*
X005729Y009777D01*
X005682Y010007D02*
X005682Y010053D01*
X005729Y010100D01*
X005775Y010100D01*
X005682Y010053D02*
X005635Y010100D01*
X005588Y010100D01*
X005542Y010053D01*
X005542Y009960D01*
X005588Y009913D01*
X006117Y009874D02*
X006117Y010061D01*
X006163Y010061D01*
X006350Y009874D01*
X006397Y009874D01*
X006397Y009784D02*
X006303Y009691D01*
X006303Y009738D02*
X006303Y009598D01*
X006397Y009598D02*
X006117Y009598D01*
X006117Y009738D01*
X006163Y009784D01*
X006257Y009784D01*
X006303Y009738D01*
X005549Y008343D02*
X005595Y008297D01*
X005595Y008205D01*
X005549Y008159D01*
X005595Y008071D02*
X005595Y007887D01*
X005595Y007799D02*
X005503Y007707D01*
X005503Y007753D02*
X005503Y007616D01*
X005595Y007616D02*
X005320Y007616D01*
X005320Y007753D01*
X005366Y007799D01*
X005457Y007799D01*
X005503Y007753D01*
X005595Y007979D02*
X005320Y007979D01*
X005412Y007887D01*
X005366Y008159D02*
X005320Y008205D01*
X005320Y008297D01*
X005366Y008343D01*
X005412Y008343D01*
X005457Y008297D01*
X005503Y008343D01*
X005549Y008343D01*
X005457Y008297D02*
X005457Y008251D01*
X005846Y005809D02*
X005846Y005622D01*
X005846Y005716D02*
X005565Y005716D01*
X005659Y005622D01*
X005612Y005533D02*
X005565Y005486D01*
X005565Y005346D01*
X005846Y005346D01*
X005846Y005486D01*
X005799Y005533D01*
X005612Y005533D01*
X005565Y005257D02*
X005565Y005070D01*
X005846Y005070D01*
X005846Y005257D01*
X005706Y005163D02*
X005706Y005070D01*
X005846Y004981D02*
X005846Y004794D01*
X005565Y004794D01*
X005612Y003762D02*
X005565Y003715D01*
X005565Y003622D01*
X005612Y003575D01*
X005612Y003486D02*
X005565Y003439D01*
X005565Y003299D01*
X005846Y003299D01*
X005846Y003439D01*
X005799Y003486D01*
X005612Y003486D01*
X005565Y003210D02*
X005565Y003023D01*
X005846Y003023D01*
X005846Y003210D01*
X005706Y003116D02*
X005706Y003023D01*
X005846Y002933D02*
X005846Y002747D01*
X005565Y002747D01*
X005846Y003575D02*
X005659Y003762D01*
X005612Y003762D01*
X005846Y003762D02*
X005846Y003575D01*
X002094Y006822D02*
X001813Y006822D01*
X001813Y006962D01*
X001860Y007008D01*
X001954Y007008D01*
X002000Y006962D01*
X002000Y006822D01*
X002000Y006915D02*
X002094Y007008D01*
X002094Y007098D02*
X002094Y007285D01*
X002094Y007374D02*
X001907Y007561D01*
X001860Y007561D01*
X001813Y007514D01*
X001813Y007421D01*
X001860Y007374D01*
X001813Y007191D02*
X002094Y007191D01*
X002094Y007374D02*
X002094Y007561D01*
X001813Y007191D02*
X001907Y007098D01*
X001582Y007147D02*
X001488Y007053D01*
X001488Y007100D02*
X001488Y006960D01*
X001488Y007100D02*
X001442Y007147D01*
X001348Y007147D01*
X001302Y007100D01*
X001302Y006960D01*
X001582Y006960D01*
X001535Y007236D02*
X001582Y007283D01*
X001582Y007376D01*
X001535Y007423D01*
X001348Y007423D01*
X001302Y007376D01*
X001302Y007283D01*
X001348Y007236D01*
X001395Y007236D01*
X001442Y007283D01*
X001442Y007423D01*
X001070Y007514D02*
X000790Y007514D01*
X000930Y007374D01*
X000930Y007561D01*
X001070Y007285D02*
X001070Y007098D01*
X001070Y007008D02*
X000977Y006915D01*
X000977Y006962D02*
X000977Y006822D01*
X001070Y006822D02*
X000790Y006822D01*
X000790Y006962D01*
X000837Y007008D01*
X000930Y007008D01*
X000977Y006962D01*
X000883Y007098D02*
X000790Y007191D01*
X001070Y007191D01*
X001577Y012817D02*
X001669Y012817D01*
X004333Y012817D02*
X004425Y012817D01*
D14*
X004326Y012423D02*
X004286Y012423D01*
X004286Y011478D01*
X004326Y011478D01*
X005408Y011478D02*
X005448Y011478D01*
X005448Y012423D01*
X005408Y012423D01*
X005851Y011911D02*
X006245Y011911D01*
X002692Y011478D02*
X002692Y012423D01*
X002652Y012423D01*
X002652Y011478D02*
X002692Y011478D01*
X001570Y011478D02*
X001530Y011478D01*
X001530Y012423D01*
X001570Y012423D01*
X001127Y012383D02*
X000733Y012383D01*
D15*
X002525Y009352D02*
X002525Y007856D01*
X002764Y008171D02*
X002766Y008185D01*
X002772Y008199D01*
X002780Y008211D01*
X002792Y008219D01*
X002806Y008225D01*
X002820Y008227D01*
X002834Y008225D01*
X002848Y008219D01*
X002860Y008211D01*
X002868Y008199D01*
X002874Y008185D01*
X002876Y008171D01*
X002874Y008157D01*
X002868Y008143D01*
X002860Y008131D01*
X002848Y008123D01*
X002834Y008117D01*
X002820Y008115D01*
X002806Y008117D01*
X002792Y008123D01*
X002780Y008131D01*
X002772Y008143D01*
X002766Y008157D01*
X002764Y008171D01*
X004454Y007856D02*
X004454Y009352D01*
D16*
X004173Y008874D02*
X003868Y008874D01*
X004020Y008722D01*
X004020Y008925D01*
X003919Y008617D02*
X003868Y008566D01*
X003868Y008464D01*
X003919Y008414D01*
X004122Y008414D01*
X004173Y008464D01*
X004173Y008566D01*
X004122Y008617D01*
X004173Y008310D02*
X004173Y008208D01*
X004173Y008259D02*
X003868Y008259D01*
X003868Y008208D02*
X003868Y008310D01*
M02*
