G75*
%MOIN*%
%OFA0B0*%
%FSLAX25Y25*%
%IPPOS*%
%LPD*%
%AMOC8*
5,1,8,0,0,1.08239X$1,22.5*
%
%ADD10R,0.05543X0.05543*%
%ADD11C,0.05543*%
%ADD12C,0.05200*%
%ADD13C,0.05150*%
%ADD14C,0.01000*%
%ADD15C,0.04000*%
%ADD16C,0.01181*%
D10*
X0170882Y0037024D03*
X0269307Y0273244D03*
X0072457Y0273244D03*
D11*
X0080331Y0273244D03*
X0088205Y0273244D03*
X0096079Y0273244D03*
X0103953Y0273244D03*
X0111827Y0273244D03*
X0119701Y0273244D03*
X0127575Y0273244D03*
X0123638Y0281118D03*
X0115764Y0281118D03*
X0107890Y0281118D03*
X0100016Y0281118D03*
X0092142Y0281118D03*
X0084268Y0281118D03*
X0076394Y0281118D03*
X0273244Y0281118D03*
X0281118Y0281118D03*
X0288992Y0281118D03*
X0296866Y0281118D03*
X0304740Y0281118D03*
X0312614Y0281118D03*
X0320488Y0281118D03*
X0316551Y0273244D03*
X0308677Y0273244D03*
X0300803Y0273244D03*
X0292929Y0273244D03*
X0285055Y0273244D03*
X0277181Y0273244D03*
X0324425Y0273244D03*
X0222063Y0044898D03*
X0214189Y0044898D03*
X0206315Y0044898D03*
X0198441Y0044898D03*
X0190567Y0044898D03*
X0182693Y0044898D03*
X0174819Y0044898D03*
X0178756Y0037024D03*
X0186630Y0037024D03*
X0194504Y0037024D03*
X0202378Y0037024D03*
X0210252Y0037024D03*
X0218126Y0037024D03*
X0226000Y0037024D03*
D12*
X0229937Y0137534D02*
X0229937Y0142734D01*
X0219937Y0142734D02*
X0219937Y0137534D01*
X0209937Y0137534D02*
X0209937Y0142734D01*
X0186945Y0142734D02*
X0186945Y0137534D01*
X0176945Y0137534D02*
X0176945Y0142734D01*
X0166945Y0142734D02*
X0166945Y0137534D01*
X0156945Y0137534D02*
X0156945Y0142734D01*
X0146945Y0142734D02*
X0146945Y0137534D01*
X0123953Y0137534D02*
X0123953Y0142734D01*
X0113953Y0142734D02*
X0113953Y0137534D01*
X0103953Y0137534D02*
X0103953Y0142734D01*
X0093953Y0142734D02*
X0093953Y0137534D01*
X0083953Y0137534D02*
X0083953Y0142734D01*
X0060961Y0142734D02*
X0060961Y0137534D01*
X0050961Y0137534D02*
X0050961Y0142734D01*
X0040961Y0142734D02*
X0040961Y0137534D01*
X0030961Y0137534D02*
X0030961Y0142734D01*
X0020961Y0142734D02*
X0020961Y0137534D01*
X0020961Y0167534D02*
X0020961Y0172734D01*
X0030961Y0172734D02*
X0030961Y0167534D01*
X0040961Y0167534D02*
X0040961Y0172734D01*
X0050961Y0172734D02*
X0050961Y0167534D01*
X0060961Y0167534D02*
X0060961Y0172734D01*
X0083953Y0172734D02*
X0083953Y0167534D01*
X0093953Y0167534D02*
X0093953Y0172734D01*
X0103953Y0172734D02*
X0103953Y0167534D01*
X0113953Y0167534D02*
X0113953Y0172734D01*
X0123953Y0172734D02*
X0123953Y0167534D01*
X0146945Y0167534D02*
X0146945Y0172734D01*
X0156945Y0172734D02*
X0156945Y0167534D01*
X0166945Y0167534D02*
X0166945Y0172734D01*
X0176945Y0172734D02*
X0176945Y0167534D01*
X0186945Y0167534D02*
X0186945Y0172734D01*
X0209937Y0172734D02*
X0209937Y0167534D01*
X0219937Y0167534D02*
X0219937Y0172734D01*
X0229937Y0172734D02*
X0229937Y0167534D01*
X0239937Y0167534D02*
X0239937Y0172734D01*
X0249937Y0172734D02*
X0249937Y0167534D01*
X0272929Y0167534D02*
X0272929Y0172734D01*
X0282929Y0172734D02*
X0282929Y0167534D01*
X0292929Y0167534D02*
X0292929Y0172734D01*
X0302929Y0172734D02*
X0302929Y0167534D01*
X0312929Y0167534D02*
X0312929Y0172734D01*
X0335921Y0172734D02*
X0335921Y0167534D01*
X0345921Y0167534D02*
X0345921Y0172734D01*
X0355921Y0172734D02*
X0355921Y0167534D01*
X0365921Y0167534D02*
X0365921Y0172734D01*
X0375921Y0172734D02*
X0375921Y0167534D01*
X0375921Y0142734D02*
X0375921Y0137534D01*
X0365921Y0137534D02*
X0365921Y0142734D01*
X0355921Y0142734D02*
X0355921Y0137534D01*
X0345921Y0137534D02*
X0345921Y0142734D01*
X0335921Y0142734D02*
X0335921Y0137534D01*
X0312929Y0137534D02*
X0312929Y0142734D01*
X0302929Y0142734D02*
X0302929Y0137534D01*
X0292929Y0137534D02*
X0292929Y0142734D01*
X0282929Y0142734D02*
X0282929Y0137534D01*
X0272929Y0137534D02*
X0272929Y0142734D01*
X0249937Y0142734D02*
X0249937Y0137534D01*
X0239937Y0137534D02*
X0239937Y0142734D01*
D13*
X0245685Y0119701D03*
X0233874Y0119701D03*
X0222063Y0119701D03*
X0210252Y0119701D03*
X0257496Y0119701D03*
X0269307Y0119701D03*
X0281118Y0119701D03*
X0292929Y0119701D03*
X0304740Y0119701D03*
X0316551Y0119701D03*
X0328362Y0119701D03*
X0340173Y0119701D03*
X0351984Y0119701D03*
X0363795Y0119701D03*
X0375606Y0119701D03*
D14*
X0351984Y0119701D02*
X0351260Y0120949D01*
X0346217Y0125992D01*
X0278972Y0125992D01*
X0275610Y0122630D01*
X0275610Y0115906D01*
X0270567Y0110862D01*
X0280654Y0119268D02*
X0281118Y0119701D01*
X0280654Y0119268D02*
X0280654Y0072197D01*
X0231902Y0023445D01*
X0206685Y0023445D01*
X0194917Y0035213D01*
X0194917Y0036894D01*
X0194504Y0037024D01*
X0202378Y0037024D02*
X0203323Y0036894D01*
X0203323Y0035213D01*
X0211728Y0026807D01*
X0230220Y0026807D01*
X0263843Y0060429D01*
X0263843Y0124311D01*
X0270567Y0131035D01*
X0295783Y0131035D01*
X0304189Y0139441D01*
X0302929Y0140134D01*
X0282929Y0140134D02*
X0282335Y0141122D01*
X0270567Y0152890D01*
X0105819Y0152890D01*
X0094051Y0141122D01*
X0093953Y0140134D01*
X0083953Y0140134D02*
X0083965Y0139441D01*
X0159614Y0063791D01*
X0173063Y0063791D01*
X0191555Y0045299D01*
X0190567Y0044898D01*
X0198280Y0045299D02*
X0198441Y0044898D01*
X0198280Y0045299D02*
X0104138Y0139441D01*
X0103953Y0140134D01*
X0113953Y0140134D02*
X0114224Y0141122D01*
X0122630Y0149528D01*
X0252075Y0149528D01*
X0270567Y0131035D01*
X0250394Y0109181D02*
X0257118Y0102457D01*
X0250394Y0109181D02*
X0194917Y0109181D01*
X0188193Y0087327D02*
X0228539Y0046980D01*
X0228539Y0040256D01*
X0226858Y0038575D01*
X0226000Y0037024D01*
X0231902Y0033531D02*
X0228539Y0030169D01*
X0216772Y0030169D01*
X0210047Y0036894D01*
X0210252Y0037024D01*
X0214189Y0044898D02*
X0215091Y0045299D01*
X0157933Y0102457D01*
X0157933Y0139441D01*
X0156945Y0140134D01*
X0176945Y0140134D02*
X0178106Y0139441D01*
X0178106Y0089008D01*
X0221815Y0045299D01*
X0222063Y0044898D01*
X0231902Y0048661D02*
X0241988Y0058748D01*
X0231902Y0048661D02*
X0231902Y0033531D01*
X0231902Y0048661D02*
X0201642Y0078921D01*
X0201642Y0082283D01*
X0188193Y0087327D02*
X0188193Y0139441D01*
X0186945Y0140134D01*
X0201642Y0134398D02*
X0205004Y0131035D01*
X0221815Y0131035D01*
X0228539Y0137760D01*
X0228539Y0139441D01*
X0229937Y0140134D01*
X0208366Y0161295D02*
X0203323Y0166339D01*
X0203323Y0223496D01*
X0267205Y0287378D01*
X0284016Y0287378D01*
X0289059Y0282335D01*
X0288992Y0281118D01*
X0296866Y0281118D02*
X0297465Y0282335D01*
X0302508Y0287378D01*
X0324362Y0287378D01*
X0381520Y0230220D01*
X0381520Y0164657D01*
X0378157Y0161295D01*
X0300827Y0161295D01*
X0297465Y0164657D01*
X0297465Y0166339D01*
X0294102Y0169701D01*
X0292929Y0170134D01*
X0272929Y0170134D02*
X0272248Y0169701D01*
X0260480Y0169701D01*
X0252075Y0161295D01*
X0208366Y0161295D01*
X0219937Y0170134D02*
X0220134Y0171382D01*
X0220134Y0235264D01*
X0265524Y0280654D01*
X0272248Y0280654D01*
X0273244Y0281118D01*
X0320488Y0281118D02*
X0321000Y0280654D01*
X0326043Y0280654D01*
X0364709Y0241988D01*
X0364709Y0171382D01*
X0365921Y0170134D01*
X0206685Y0045299D02*
X0206315Y0044898D01*
X0206685Y0045299D02*
X0124311Y0127673D01*
X0124311Y0139441D01*
X0123953Y0140134D01*
X0102457Y0159614D02*
X0099094Y0159614D01*
X0089008Y0149528D01*
X0070516Y0149528D01*
X0062110Y0141122D01*
X0060961Y0140134D01*
X0060429Y0141122D01*
X0052024Y0149528D01*
X0018402Y0149528D01*
X0015039Y0146165D01*
X0015039Y0134398D01*
X0122630Y0026807D01*
X0178106Y0026807D01*
X0188193Y0036894D01*
X0186630Y0037024D01*
X0178756Y0037024D02*
X0178106Y0036894D01*
X0178106Y0033531D01*
X0174744Y0030169D01*
X0149528Y0030169D01*
X0045299Y0134398D01*
X0045299Y0136079D01*
X0041937Y0139441D01*
X0040961Y0140134D01*
X0050961Y0140134D02*
X0052024Y0139441D01*
X0055386Y0136079D01*
X0055386Y0134398D01*
X0137760Y0052024D01*
X0176425Y0052024D01*
X0183150Y0045299D01*
X0182693Y0044898D01*
X0189874Y0161295D02*
X0144484Y0161295D01*
X0136079Y0169701D01*
X0124311Y0169701D01*
X0123953Y0170134D01*
X0103953Y0170134D02*
X0102457Y0169701D01*
X0102457Y0168020D01*
X0095732Y0161295D01*
X0018402Y0161295D01*
X0015039Y0164657D01*
X0015039Y0231902D01*
X0070516Y0287378D01*
X0094051Y0287378D01*
X0099094Y0282335D01*
X0100016Y0281118D01*
X0107500Y0282335D02*
X0107890Y0281118D01*
X0107500Y0282335D02*
X0112543Y0287378D01*
X0127673Y0287378D01*
X0193236Y0221815D01*
X0193236Y0164657D01*
X0189874Y0161295D01*
X0176945Y0170134D02*
X0176425Y0171382D01*
X0176425Y0233583D01*
X0129354Y0280654D01*
X0124311Y0280654D01*
X0123638Y0281118D01*
X0076394Y0281118D02*
X0075559Y0280654D01*
X0068835Y0280654D01*
X0031850Y0243669D01*
X0031850Y0171382D01*
X0030961Y0170134D01*
D15*
X0102457Y0159614D03*
X0194917Y0109181D03*
X0201642Y0134398D03*
X0257118Y0102457D03*
X0270567Y0110862D03*
X0241988Y0058748D03*
X0201642Y0082283D03*
D16*
X0105985Y0068829D02*
X0085491Y0068829D01*
X0084312Y0070008D02*
X0104806Y0070008D01*
X0103626Y0071188D02*
X0083132Y0071188D01*
X0081953Y0072367D02*
X0102447Y0072367D01*
X0101267Y0073547D02*
X0080773Y0073547D01*
X0079593Y0074727D02*
X0100087Y0074727D01*
X0098908Y0075906D02*
X0078414Y0075906D01*
X0077234Y0077086D02*
X0097728Y0077086D01*
X0096548Y0078265D02*
X0076054Y0078265D01*
X0074875Y0079445D02*
X0095369Y0079445D01*
X0094189Y0080625D02*
X0073695Y0080625D01*
X0072516Y0081804D02*
X0093010Y0081804D01*
X0091830Y0082984D02*
X0071336Y0082984D01*
X0070156Y0084164D02*
X0090650Y0084164D01*
X0089471Y0085343D02*
X0068977Y0085343D01*
X0067797Y0086523D02*
X0088291Y0086523D01*
X0087112Y0087702D02*
X0066618Y0087702D01*
X0065438Y0088882D02*
X0085932Y0088882D01*
X0084752Y0090062D02*
X0064258Y0090062D01*
X0063079Y0091241D02*
X0083573Y0091241D01*
X0082393Y0092421D02*
X0061899Y0092421D01*
X0060720Y0093600D02*
X0081214Y0093600D01*
X0080034Y0094780D02*
X0059540Y0094780D01*
X0058360Y0095960D02*
X0078854Y0095960D01*
X0077675Y0097139D02*
X0057181Y0097139D01*
X0056001Y0098319D02*
X0076495Y0098319D01*
X0075315Y0099498D02*
X0054821Y0099498D01*
X0053642Y0100678D02*
X0074136Y0100678D01*
X0072956Y0101858D02*
X0052462Y0101858D01*
X0051283Y0103037D02*
X0071777Y0103037D01*
X0070597Y0104217D02*
X0050103Y0104217D01*
X0048923Y0105397D02*
X0069417Y0105397D01*
X0068238Y0106576D02*
X0047744Y0106576D01*
X0046564Y0107756D02*
X0067058Y0107756D01*
X0065879Y0108935D02*
X0045385Y0108935D01*
X0044205Y0110115D02*
X0064699Y0110115D01*
X0063519Y0111295D02*
X0043025Y0111295D01*
X0041846Y0112474D02*
X0062340Y0112474D01*
X0061160Y0113654D02*
X0040666Y0113654D01*
X0039486Y0114833D02*
X0059980Y0114833D01*
X0058801Y0116013D02*
X0038307Y0116013D01*
X0037127Y0117193D02*
X0057621Y0117193D01*
X0056442Y0118372D02*
X0035948Y0118372D01*
X0034768Y0119552D02*
X0055262Y0119552D01*
X0054082Y0120732D02*
X0033588Y0120732D01*
X0032409Y0121911D02*
X0052903Y0121911D01*
X0051723Y0123091D02*
X0031229Y0123091D01*
X0030050Y0124270D02*
X0050544Y0124270D01*
X0049364Y0125450D02*
X0028870Y0125450D01*
X0027690Y0126630D02*
X0048184Y0126630D01*
X0047005Y0127809D02*
X0026511Y0127809D01*
X0025331Y0128989D02*
X0045825Y0128989D01*
X0044645Y0130168D02*
X0024151Y0130168D01*
X0022972Y0131348D02*
X0043466Y0131348D01*
X0042608Y0132206D02*
X0144554Y0030260D01*
X0124060Y0030260D01*
X0020751Y0133569D01*
X0020751Y0139924D01*
X0021170Y0139924D01*
X0021170Y0133343D01*
X0021290Y0133343D01*
X0021942Y0133446D01*
X0022569Y0133650D01*
X0023157Y0133950D01*
X0023691Y0134337D01*
X0024157Y0134804D01*
X0024545Y0135338D01*
X0024844Y0135925D01*
X0025048Y0136553D01*
X0025151Y0137204D01*
X0025151Y0139924D01*
X0021170Y0139924D01*
X0021170Y0140343D01*
X0025151Y0140343D01*
X0025151Y0143064D01*
X0025048Y0143715D01*
X0024844Y0144342D01*
X0024545Y0144930D01*
X0024157Y0145464D01*
X0023691Y0145930D01*
X0023492Y0146075D01*
X0026449Y0146075D01*
X0026253Y0145879D01*
X0025408Y0143838D01*
X0025408Y0136429D01*
X0026253Y0134388D01*
X0027815Y0132826D01*
X0029856Y0131981D01*
X0032065Y0131981D01*
X0034106Y0132826D01*
X0035668Y0134388D01*
X0035961Y0135095D01*
X0036253Y0134388D01*
X0037815Y0132826D01*
X0039856Y0131981D01*
X0042065Y0131981D01*
X0042608Y0132206D01*
X0038537Y0132528D02*
X0033385Y0132528D01*
X0034987Y0133707D02*
X0036934Y0133707D01*
X0036047Y0134887D02*
X0035874Y0134887D01*
X0028537Y0132528D02*
X0021792Y0132528D01*
X0021170Y0133707D02*
X0020751Y0133707D01*
X0020751Y0134887D02*
X0021170Y0134887D01*
X0021170Y0136067D02*
X0020751Y0136067D01*
X0020751Y0137246D02*
X0021170Y0137246D01*
X0021170Y0138426D02*
X0020751Y0138426D01*
X0020751Y0139605D02*
X0021170Y0139605D01*
X0025151Y0139605D02*
X0025408Y0139605D01*
X0025408Y0138426D02*
X0025151Y0138426D01*
X0025151Y0137246D02*
X0025408Y0137246D01*
X0025558Y0136067D02*
X0024890Y0136067D01*
X0024217Y0134887D02*
X0026047Y0134887D01*
X0026934Y0133707D02*
X0022681Y0133707D01*
X0025151Y0140785D02*
X0025408Y0140785D01*
X0025408Y0141965D02*
X0025151Y0141965D01*
X0025138Y0143144D02*
X0025408Y0143144D01*
X0025609Y0144324D02*
X0024850Y0144324D01*
X0024117Y0145503D02*
X0026098Y0145503D01*
X0052442Y0132137D02*
X0052669Y0132231D01*
X0134833Y0050068D01*
X0135804Y0049097D01*
X0137073Y0048571D01*
X0170397Y0048571D01*
X0169966Y0048140D01*
X0169094Y0046036D01*
X0169094Y0043759D01*
X0169966Y0041655D01*
X0170235Y0041386D01*
X0167901Y0041386D01*
X0167496Y0041277D01*
X0167134Y0041068D01*
X0166837Y0040772D01*
X0166628Y0040409D01*
X0166520Y0040005D01*
X0166520Y0037319D01*
X0170587Y0037319D01*
X0170587Y0036728D01*
X0166520Y0036728D01*
X0166520Y0034043D01*
X0166628Y0033638D01*
X0166637Y0033622D01*
X0150958Y0033622D01*
X0052442Y0132137D01*
X0053232Y0131348D02*
X0053552Y0131348D01*
X0054411Y0130168D02*
X0054732Y0130168D01*
X0055591Y0128989D02*
X0055912Y0128989D01*
X0056771Y0127809D02*
X0057091Y0127809D01*
X0057950Y0126630D02*
X0058271Y0126630D01*
X0059130Y0125450D02*
X0059451Y0125450D01*
X0060309Y0124270D02*
X0060630Y0124270D01*
X0061489Y0123091D02*
X0061810Y0123091D01*
X0062669Y0121911D02*
X0062989Y0121911D01*
X0063848Y0120732D02*
X0064169Y0120732D01*
X0065028Y0119552D02*
X0065349Y0119552D01*
X0066207Y0118372D02*
X0066528Y0118372D01*
X0067387Y0117193D02*
X0067708Y0117193D01*
X0068567Y0116013D02*
X0068887Y0116013D01*
X0069746Y0114833D02*
X0070067Y0114833D01*
X0070926Y0113654D02*
X0071247Y0113654D01*
X0072106Y0112474D02*
X0072426Y0112474D01*
X0073285Y0111295D02*
X0073606Y0111295D01*
X0074465Y0110115D02*
X0074786Y0110115D01*
X0075644Y0108935D02*
X0075965Y0108935D01*
X0076824Y0107756D02*
X0077145Y0107756D01*
X0078004Y0106576D02*
X0078324Y0106576D01*
X0079183Y0105397D02*
X0079504Y0105397D01*
X0080363Y0104217D02*
X0080684Y0104217D01*
X0081542Y0103037D02*
X0081863Y0103037D01*
X0082722Y0101858D02*
X0083043Y0101858D01*
X0083902Y0100678D02*
X0084222Y0100678D01*
X0085081Y0099498D02*
X0085402Y0099498D01*
X0086261Y0098319D02*
X0086582Y0098319D01*
X0087441Y0097139D02*
X0087761Y0097139D01*
X0088620Y0095960D02*
X0088941Y0095960D01*
X0089800Y0094780D02*
X0090120Y0094780D01*
X0090979Y0093600D02*
X0091300Y0093600D01*
X0092159Y0092421D02*
X0092480Y0092421D01*
X0093339Y0091241D02*
X0093659Y0091241D01*
X0094518Y0090062D02*
X0094839Y0090062D01*
X0095698Y0088882D02*
X0096019Y0088882D01*
X0096877Y0087702D02*
X0097198Y0087702D01*
X0098057Y0086523D02*
X0098378Y0086523D01*
X0099237Y0085343D02*
X0099557Y0085343D01*
X0100416Y0084164D02*
X0100737Y0084164D01*
X0101596Y0082984D02*
X0101917Y0082984D01*
X0102775Y0081804D02*
X0103096Y0081804D01*
X0103955Y0080625D02*
X0104276Y0080625D01*
X0105135Y0079445D02*
X0105455Y0079445D01*
X0106314Y0078265D02*
X0106635Y0078265D01*
X0107494Y0077086D02*
X0107815Y0077086D01*
X0108674Y0075906D02*
X0108994Y0075906D01*
X0109853Y0074727D02*
X0110174Y0074727D01*
X0111033Y0073547D02*
X0111354Y0073547D01*
X0112212Y0072367D02*
X0112533Y0072367D01*
X0113392Y0071188D02*
X0113713Y0071188D01*
X0114572Y0070008D02*
X0114892Y0070008D01*
X0115751Y0068829D02*
X0116072Y0068829D01*
X0116931Y0067649D02*
X0117252Y0067649D01*
X0118110Y0066469D02*
X0118431Y0066469D01*
X0119290Y0065290D02*
X0119611Y0065290D01*
X0120470Y0064110D02*
X0120790Y0064110D01*
X0121649Y0062930D02*
X0121970Y0062930D01*
X0122829Y0061751D02*
X0123150Y0061751D01*
X0124009Y0060571D02*
X0124329Y0060571D01*
X0125188Y0059392D02*
X0125509Y0059392D01*
X0126368Y0058212D02*
X0126689Y0058212D01*
X0127547Y0057032D02*
X0127868Y0057032D01*
X0128727Y0055853D02*
X0129048Y0055853D01*
X0129907Y0054673D02*
X0130227Y0054673D01*
X0131086Y0053494D02*
X0131407Y0053494D01*
X0132266Y0052314D02*
X0132587Y0052314D01*
X0133445Y0051134D02*
X0133766Y0051134D01*
X0134625Y0049955D02*
X0134946Y0049955D01*
X0135805Y0048775D02*
X0136580Y0048775D01*
X0136984Y0047595D02*
X0169740Y0047595D01*
X0169252Y0046416D02*
X0138164Y0046416D01*
X0139344Y0045236D02*
X0169094Y0045236D01*
X0169094Y0044057D02*
X0140523Y0044057D01*
X0141703Y0042877D02*
X0169460Y0042877D01*
X0169948Y0041697D02*
X0142882Y0041697D01*
X0144062Y0040518D02*
X0166691Y0040518D01*
X0166520Y0039338D02*
X0145242Y0039338D01*
X0146421Y0038159D02*
X0166520Y0038159D01*
X0166520Y0035799D02*
X0148780Y0035799D01*
X0147601Y0036979D02*
X0170587Y0036979D01*
X0166520Y0034620D02*
X0149960Y0034620D01*
X0143733Y0031081D02*
X0123239Y0031081D01*
X0122059Y0032261D02*
X0142553Y0032261D01*
X0141374Y0033440D02*
X0120880Y0033440D01*
X0119700Y0034620D02*
X0140194Y0034620D01*
X0139015Y0035799D02*
X0118521Y0035799D01*
X0117341Y0036979D02*
X0137835Y0036979D01*
X0136655Y0038159D02*
X0116161Y0038159D01*
X0114982Y0039338D02*
X0135476Y0039338D01*
X0134296Y0040518D02*
X0113802Y0040518D01*
X0112623Y0041697D02*
X0133117Y0041697D01*
X0131937Y0042877D02*
X0111443Y0042877D01*
X0110263Y0044057D02*
X0130757Y0044057D01*
X0129578Y0045236D02*
X0109084Y0045236D01*
X0107904Y0046416D02*
X0128398Y0046416D01*
X0127218Y0047595D02*
X0106724Y0047595D01*
X0105545Y0048775D02*
X0126039Y0048775D01*
X0124859Y0049955D02*
X0104365Y0049955D01*
X0103186Y0051134D02*
X0123680Y0051134D01*
X0122500Y0052314D02*
X0102006Y0052314D01*
X0100826Y0053494D02*
X0121320Y0053494D01*
X0120141Y0054673D02*
X0099647Y0054673D01*
X0098467Y0055853D02*
X0118961Y0055853D01*
X0117782Y0057032D02*
X0097288Y0057032D01*
X0096108Y0058212D02*
X0116602Y0058212D01*
X0115422Y0059392D02*
X0094928Y0059392D01*
X0093749Y0060571D02*
X0114243Y0060571D01*
X0113063Y0061751D02*
X0092569Y0061751D01*
X0091389Y0062930D02*
X0111883Y0062930D01*
X0110704Y0064110D02*
X0090210Y0064110D01*
X0089030Y0065290D02*
X0109524Y0065290D01*
X0108345Y0066469D02*
X0087851Y0066469D01*
X0086671Y0067649D02*
X0107165Y0067649D01*
X0191646Y0112914D02*
X0191646Y0134382D01*
X0191652Y0134388D01*
X0192498Y0136429D01*
X0192498Y0143838D01*
X0191652Y0145879D01*
X0191457Y0146075D01*
X0207406Y0146075D01*
X0207207Y0145930D01*
X0206741Y0145464D01*
X0206353Y0144930D01*
X0206053Y0144342D01*
X0205850Y0143715D01*
X0205746Y0143064D01*
X0205746Y0140343D01*
X0209727Y0140343D01*
X0209727Y0139924D01*
X0205746Y0139924D01*
X0205746Y0137297D01*
X0204447Y0138596D01*
X0202627Y0139350D01*
X0200657Y0139350D01*
X0198836Y0138596D01*
X0197443Y0137203D01*
X0196689Y0135383D01*
X0196689Y0133412D01*
X0197443Y0131592D01*
X0198836Y0130199D01*
X0200657Y0129445D01*
X0201712Y0129445D01*
X0203048Y0128108D01*
X0204317Y0127583D01*
X0222502Y0127583D01*
X0223771Y0128108D01*
X0224742Y0129080D01*
X0227992Y0132329D01*
X0228832Y0131981D01*
X0231042Y0131981D01*
X0233082Y0132826D01*
X0234644Y0134388D01*
X0234937Y0135095D01*
X0235230Y0134388D01*
X0236792Y0132826D01*
X0238832Y0131981D01*
X0241042Y0131981D01*
X0243082Y0132826D01*
X0244644Y0134388D01*
X0244937Y0135095D01*
X0245230Y0134388D01*
X0246792Y0132826D01*
X0248832Y0131981D01*
X0251042Y0131981D01*
X0253082Y0132826D01*
X0254644Y0134388D01*
X0255490Y0136429D01*
X0255490Y0141230D01*
X0265684Y0131035D01*
X0260915Y0126267D01*
X0260390Y0124998D01*
X0260390Y0124485D01*
X0258596Y0125228D01*
X0256397Y0125228D01*
X0254365Y0124387D01*
X0252810Y0122832D01*
X0251969Y0120800D01*
X0251969Y0118601D01*
X0252810Y0116570D01*
X0254365Y0115015D01*
X0256397Y0114173D01*
X0258596Y0114173D01*
X0260390Y0114916D01*
X0260390Y0106189D01*
X0259924Y0106655D01*
X0258103Y0107409D01*
X0257048Y0107409D01*
X0252350Y0112108D01*
X0251080Y0112634D01*
X0198469Y0112634D01*
X0197723Y0113380D01*
X0195902Y0114134D01*
X0193932Y0114134D01*
X0192112Y0113380D01*
X0191646Y0112914D01*
X0191646Y0113654D02*
X0192773Y0113654D01*
X0191646Y0114833D02*
X0219370Y0114833D01*
X0218932Y0115015D02*
X0220963Y0114173D01*
X0223162Y0114173D01*
X0225194Y0115015D01*
X0226749Y0116570D01*
X0227591Y0118601D01*
X0227591Y0120800D01*
X0226749Y0122832D01*
X0225194Y0124387D01*
X0223162Y0125228D01*
X0220963Y0125228D01*
X0218932Y0124387D01*
X0217377Y0122832D01*
X0216535Y0120800D01*
X0216535Y0118601D01*
X0217377Y0116570D01*
X0218932Y0115015D01*
X0217934Y0116013D02*
X0212189Y0116013D01*
X0212435Y0116138D02*
X0212966Y0116524D01*
X0213429Y0116987D01*
X0213814Y0117518D01*
X0214112Y0118102D01*
X0214315Y0118725D01*
X0214417Y0119373D01*
X0214417Y0119504D01*
X0210449Y0119504D01*
X0210449Y0119898D01*
X0210055Y0119898D01*
X0210055Y0123866D01*
X0209924Y0123866D01*
X0209277Y0123764D01*
X0208653Y0123561D01*
X0208069Y0123263D01*
X0207538Y0122878D01*
X0207075Y0122414D01*
X0206689Y0121884D01*
X0206392Y0121300D01*
X0206189Y0120676D01*
X0206087Y0120029D01*
X0206087Y0119898D01*
X0210055Y0119898D01*
X0210055Y0119504D01*
X0206087Y0119504D01*
X0206087Y0119373D01*
X0206189Y0118725D01*
X0206392Y0118102D01*
X0206689Y0117518D01*
X0207075Y0116987D01*
X0207538Y0116524D01*
X0208069Y0116138D01*
X0208653Y0115841D01*
X0209277Y0115638D01*
X0209924Y0115535D01*
X0210055Y0115535D01*
X0210055Y0119504D01*
X0210449Y0119504D01*
X0210449Y0115535D01*
X0210580Y0115535D01*
X0211227Y0115638D01*
X0211851Y0115841D01*
X0212435Y0116138D01*
X0213578Y0117193D02*
X0217119Y0117193D01*
X0216630Y0118372D02*
X0214200Y0118372D01*
X0214417Y0119898D02*
X0210449Y0119898D01*
X0210449Y0123866D01*
X0210580Y0123866D01*
X0211227Y0123764D01*
X0211851Y0123561D01*
X0212435Y0123263D01*
X0212966Y0122878D01*
X0213429Y0122414D01*
X0213814Y0121884D01*
X0214112Y0121300D01*
X0214315Y0120676D01*
X0214417Y0120029D01*
X0214417Y0119898D01*
X0214297Y0120732D02*
X0216535Y0120732D01*
X0216535Y0119552D02*
X0210449Y0119552D01*
X0210055Y0119552D02*
X0191646Y0119552D01*
X0191646Y0120732D02*
X0206207Y0120732D01*
X0206709Y0121911D02*
X0191646Y0121911D01*
X0191646Y0123091D02*
X0207831Y0123091D01*
X0210055Y0123091D02*
X0210449Y0123091D01*
X0210449Y0121911D02*
X0210055Y0121911D01*
X0210055Y0120732D02*
X0210449Y0120732D01*
X0210449Y0118372D02*
X0210055Y0118372D01*
X0210055Y0117193D02*
X0210449Y0117193D01*
X0210449Y0116013D02*
X0210055Y0116013D01*
X0208314Y0116013D02*
X0191646Y0116013D01*
X0191646Y0117193D02*
X0206926Y0117193D01*
X0206304Y0118372D02*
X0191646Y0118372D01*
X0191646Y0124270D02*
X0218815Y0124270D01*
X0217636Y0123091D02*
X0212673Y0123091D01*
X0213795Y0121911D02*
X0216996Y0121911D01*
X0223049Y0127809D02*
X0262458Y0127809D01*
X0263637Y0128989D02*
X0224651Y0128989D01*
X0225831Y0130168D02*
X0264817Y0130168D01*
X0265371Y0131348D02*
X0227011Y0131348D01*
X0232361Y0132528D02*
X0237513Y0132528D01*
X0235911Y0133707D02*
X0233963Y0133707D01*
X0234851Y0134887D02*
X0235023Y0134887D01*
X0242361Y0132528D02*
X0247513Y0132528D01*
X0245911Y0133707D02*
X0243963Y0133707D01*
X0244851Y0134887D02*
X0245023Y0134887D01*
X0252361Y0132528D02*
X0264192Y0132528D01*
X0263012Y0133707D02*
X0253963Y0133707D01*
X0254851Y0134887D02*
X0261833Y0134887D01*
X0260653Y0136067D02*
X0255339Y0136067D01*
X0255490Y0137246D02*
X0259473Y0137246D01*
X0258294Y0138426D02*
X0255490Y0138426D01*
X0255490Y0139605D02*
X0257114Y0139605D01*
X0255934Y0140785D02*
X0255490Y0140785D01*
X0261278Y0126630D02*
X0191646Y0126630D01*
X0191646Y0127809D02*
X0203770Y0127809D01*
X0202168Y0128989D02*
X0191646Y0128989D01*
X0191646Y0130168D02*
X0198910Y0130168D01*
X0197687Y0131348D02*
X0191646Y0131348D01*
X0191646Y0132528D02*
X0197055Y0132528D01*
X0196689Y0133707D02*
X0191646Y0133707D01*
X0191859Y0134887D02*
X0196689Y0134887D01*
X0196972Y0136067D02*
X0192347Y0136067D01*
X0192498Y0137246D02*
X0197486Y0137246D01*
X0198666Y0138426D02*
X0192498Y0138426D01*
X0192498Y0139605D02*
X0205746Y0139605D01*
X0205746Y0138426D02*
X0204618Y0138426D01*
X0205746Y0140785D02*
X0192498Y0140785D01*
X0192498Y0141965D02*
X0205746Y0141965D01*
X0205759Y0143144D02*
X0192498Y0143144D01*
X0192297Y0144324D02*
X0206047Y0144324D01*
X0206780Y0145503D02*
X0191808Y0145503D01*
X0210147Y0140343D02*
X0210147Y0139924D01*
X0214128Y0139924D01*
X0214128Y0137204D01*
X0214024Y0136553D01*
X0213821Y0135925D01*
X0213521Y0135338D01*
X0213133Y0134804D01*
X0212818Y0134488D01*
X0215188Y0134488D01*
X0214384Y0136429D01*
X0214384Y0143838D01*
X0215230Y0145879D01*
X0215425Y0146075D01*
X0212468Y0146075D01*
X0212667Y0145930D01*
X0213133Y0145464D01*
X0213521Y0144930D01*
X0213821Y0144342D01*
X0214024Y0143715D01*
X0214128Y0143064D01*
X0214128Y0140343D01*
X0210147Y0140343D01*
X0214128Y0140785D02*
X0214384Y0140785D01*
X0214384Y0141965D02*
X0214128Y0141965D01*
X0214115Y0143144D02*
X0214384Y0143144D01*
X0214585Y0144324D02*
X0213827Y0144324D01*
X0213094Y0145503D02*
X0215074Y0145503D01*
X0214384Y0139605D02*
X0214128Y0139605D01*
X0214128Y0138426D02*
X0214384Y0138426D01*
X0214384Y0137246D02*
X0214128Y0137246D01*
X0213866Y0136067D02*
X0214535Y0136067D01*
X0215023Y0134887D02*
X0213194Y0134887D01*
X0225311Y0124270D02*
X0230626Y0124270D01*
X0230743Y0124387D02*
X0229188Y0122832D01*
X0228346Y0120800D01*
X0228346Y0118601D01*
X0229188Y0116570D01*
X0230743Y0115015D01*
X0232775Y0114173D01*
X0234974Y0114173D01*
X0237005Y0115015D01*
X0238560Y0116570D01*
X0239402Y0118601D01*
X0239402Y0120800D01*
X0238560Y0122832D01*
X0237005Y0124387D01*
X0234974Y0125228D01*
X0232775Y0125228D01*
X0230743Y0124387D01*
X0229447Y0123091D02*
X0226490Y0123091D01*
X0227130Y0121911D02*
X0228807Y0121911D01*
X0228346Y0120732D02*
X0227591Y0120732D01*
X0227591Y0119552D02*
X0228346Y0119552D01*
X0228441Y0118372D02*
X0227496Y0118372D01*
X0227007Y0117193D02*
X0228930Y0117193D01*
X0229745Y0116013D02*
X0226192Y0116013D01*
X0224756Y0114833D02*
X0231181Y0114833D01*
X0236567Y0114833D02*
X0242992Y0114833D01*
X0242554Y0115015D02*
X0244586Y0114173D01*
X0246785Y0114173D01*
X0248816Y0115015D01*
X0250371Y0116570D01*
X0251213Y0118601D01*
X0251213Y0120800D01*
X0250371Y0122832D01*
X0248816Y0124387D01*
X0246785Y0125228D01*
X0244586Y0125228D01*
X0242554Y0124387D01*
X0240999Y0122832D01*
X0240157Y0120800D01*
X0240157Y0118601D01*
X0240999Y0116570D01*
X0242554Y0115015D01*
X0241556Y0116013D02*
X0238003Y0116013D01*
X0238818Y0117193D02*
X0240741Y0117193D01*
X0240252Y0118372D02*
X0239307Y0118372D01*
X0239402Y0119552D02*
X0240157Y0119552D01*
X0240157Y0120732D02*
X0239402Y0120732D01*
X0238941Y0121911D02*
X0240618Y0121911D01*
X0241258Y0123091D02*
X0238301Y0123091D01*
X0237122Y0124270D02*
X0242437Y0124270D01*
X0248933Y0124270D02*
X0254249Y0124270D01*
X0253069Y0123091D02*
X0250112Y0123091D01*
X0250752Y0121911D02*
X0252429Y0121911D01*
X0251969Y0120732D02*
X0251213Y0120732D01*
X0251213Y0119552D02*
X0251969Y0119552D01*
X0252063Y0118372D02*
X0251118Y0118372D01*
X0250629Y0117193D02*
X0252552Y0117193D01*
X0253367Y0116013D02*
X0249814Y0116013D01*
X0248378Y0114833D02*
X0254803Y0114833D01*
X0251466Y0112474D02*
X0260390Y0112474D01*
X0260390Y0111295D02*
X0253163Y0111295D01*
X0254343Y0110115D02*
X0260390Y0110115D01*
X0260390Y0108935D02*
X0255522Y0108935D01*
X0256702Y0107756D02*
X0260390Y0107756D01*
X0260390Y0106576D02*
X0260003Y0106576D01*
X0260390Y0113654D02*
X0197061Y0113654D01*
X0191646Y0125450D02*
X0260577Y0125450D01*
X0260390Y0114833D02*
X0260189Y0114833D01*
M02*
