%
M48
M72
T01C0.02400
T02C0.03150
T03C0.03200
T04C0.03543
T05C0.12598
%
T01
X194917Y109181
X201642Y134398
X257118Y102457
X270567Y110862
X241988Y58748
X201642Y82283
X102457Y159614
T02
X210252Y119701
X222063Y119701
X233874Y119701
X245685Y119701
X257496Y119701
X269307Y119701
X281118Y119701
X292929Y119701
X304740Y119701
X316551Y119701
X328362Y119701
X340173Y119701
X351984Y119701
X363795Y119701
X375606Y119701
T03
X375921Y140134
X365921Y140134
X355921Y140134
X345921Y140134
X335921Y140134
X312929Y140134
X302929Y140134
X292929Y140134
X282929Y140134
X272929Y140134
X249937Y140134
X239937Y140134
X229937Y140134
X219937Y140134
X209937Y140134
X186945Y140134
X176945Y140134
X166945Y140134
X156945Y140134
X146945Y140134
X123953Y140134
X113953Y140134
X103953Y140134
X93953Y140134
X83953Y140134
X60961Y140134
X50961Y140134
X40961Y140134
X30961Y140134
X20961Y140134
X20961Y170134
X30961Y170134
X40961Y170134
X50961Y170134
X60961Y170134
X83953Y170134
X93953Y170134
X103953Y170134
X113953Y170134
X123953Y170134
X146945Y170134
X156945Y170134
X166945Y170134
X176945Y170134
X186945Y170134
X209937Y170134
X219937Y170134
X229937Y170134
X239937Y170134
X249937Y170134
X272929Y170134
X282929Y170134
X292929Y170134
X302929Y170134
X312929Y170134
X335921Y170134
X345921Y170134
X355921Y170134
X365921Y170134
X375921Y170134
T04
X324425Y273244
X316551Y273244
X308677Y273244
X300803Y273244
X292929Y273244
X285055Y273244
X277181Y273244
X269307Y273244
X273244Y281118
X281118Y281118
X288992Y281118
X296866Y281118
X304740Y281118
X312614Y281118
X320488Y281118
X127575Y273244
X119701Y273244
X111827Y273244
X103953Y273244
X96079Y273244
X88205Y273244
X80331Y273244
X72457Y273244
X76394Y281118
X84268Y281118
X92142Y281118
X100016Y281118
X107890Y281118
X115764Y281118
X123638Y281118
X174819Y44898
X182693Y44898
X190567Y44898
X198441Y44898
X206315Y44898
X214189Y44898
X222063Y44898
X226000Y37024
X218126Y37024
X210252Y37024
X202378Y37024
X194504Y37024
X186630Y37024
X178756Y37024
X170882Y37024
T05
X13402Y13402
X13402Y304740
X383480Y304740
X383480Y13402
M30
