G75*
%MOIN*%
%OFA0B0*%
%FSLAX24Y24*%
%IPPOS*%
%LPD*%
%AMOC8*
5,1,8,0,0,1.08239X$1,22.5*
%
%ADD10C,0.1340*%
%ADD11R,0.0316X0.0749*%
%ADD12R,0.0474X0.0395*%
%ADD13R,0.0515X0.0515*%
%ADD14R,0.0595X0.0595*%
%ADD15R,0.2836X0.2836*%
%ADD16R,0.0474X0.0710*%
%ADD17C,0.0984*%
%ADD18C,0.1064*%
%ADD19C,0.1181*%
%ADD20C,0.1261*%
%ADD21R,0.0395X0.0474*%
%ADD22C,0.0594*%
%ADD23C,0.0674*%
%ADD24OC8,0.0515*%
%ADD25OC8,0.0595*%
%ADD26R,0.0396X0.0396*%
%ADD27R,0.0476X0.0476*%
%ADD28R,0.0317X0.0317*%
%ADD29R,0.0397X0.0397*%
%ADD30R,0.0357X0.0357*%
%ADD31R,0.0437X0.0437*%
D10*
X003364Y002876D03*
X003364Y018230D03*
X026593Y018230D03*
X026593Y002876D03*
D11*
X018431Y010631D03*
X017431Y010631D03*
X014494Y010631D03*
X013494Y010631D03*
X010557Y010631D03*
X009557Y010631D03*
X006620Y010631D03*
X005620Y010631D03*
X005620Y013230D03*
X006620Y013230D03*
X009557Y013230D03*
X010557Y013230D03*
X013494Y013230D03*
X014494Y013230D03*
X017431Y013230D03*
X018431Y013230D03*
D12*
X019506Y013407D03*
X019506Y013998D03*
X015372Y013998D03*
X015372Y013407D03*
X011435Y013407D03*
X011435Y013998D03*
X007498Y013998D03*
X007498Y013407D03*
X007498Y010454D03*
X007498Y009864D03*
X011435Y009864D03*
X011435Y010454D03*
X015372Y010454D03*
X015372Y009864D03*
X017341Y006891D03*
X017341Y006340D03*
X019309Y009864D03*
X019309Y010454D03*
D13*
X023624Y005238D03*
X024624Y005238D03*
X025624Y005238D03*
X013010Y003466D03*
X005727Y003466D03*
X005721Y007206D03*
X005530Y017246D03*
X011238Y017246D03*
D14*
X011238Y017246D03*
X005530Y017246D03*
X005721Y007206D03*
X005727Y003466D03*
X013010Y003466D03*
X023624Y005238D03*
X024624Y005238D03*
X025624Y005238D03*
D15*
X019798Y004419D03*
D16*
X020695Y007293D03*
X018900Y007293D03*
D17*
X024821Y010651D02*
X024821Y011635D01*
X024034Y013033D02*
X023049Y013033D01*
D18*
X024034Y013033D01*
X024821Y011635D02*
X024821Y010651D01*
D19*
X022360Y010553D02*
X022360Y011734D01*
D20*
X022360Y010553D01*
D21*
X023955Y003072D03*
X024506Y003072D03*
D22*
X024341Y016458D03*
X023341Y016458D03*
X022341Y016458D03*
X020341Y016458D03*
X019341Y016458D03*
X018341Y016458D03*
X017341Y016458D03*
D23*
X017341Y016458D03*
X018341Y016458D03*
X019341Y016458D03*
X020341Y016458D03*
X022341Y016458D03*
X023341Y016458D03*
X024341Y016458D03*
D24*
X015175Y017246D03*
X014388Y017246D03*
X013601Y017246D03*
X012813Y017246D03*
X012026Y017246D03*
X009467Y017246D03*
X008679Y017246D03*
X007892Y017246D03*
X007105Y017246D03*
X006317Y017246D03*
X006508Y007206D03*
X007296Y007206D03*
X008083Y007206D03*
X008870Y007206D03*
X009658Y007206D03*
X010445Y007206D03*
X011233Y007206D03*
X011983Y007206D03*
X012733Y007206D03*
X013483Y007206D03*
X014233Y007206D03*
X014585Y003466D03*
X015372Y003466D03*
X016160Y003466D03*
X016947Y003466D03*
X013798Y003466D03*
X011238Y003466D03*
X010451Y003466D03*
X009664Y003466D03*
X008876Y003466D03*
X008089Y003466D03*
X007301Y003466D03*
X006514Y003466D03*
D25*
X006514Y003466D03*
X007301Y003466D03*
X008089Y003466D03*
X008876Y003466D03*
X009664Y003466D03*
X010451Y003466D03*
X011238Y003466D03*
X013798Y003466D03*
X014585Y003466D03*
X015372Y003466D03*
X016160Y003466D03*
X016947Y003466D03*
X014233Y007206D03*
X013483Y007206D03*
X012733Y007206D03*
X011983Y007206D03*
X011233Y007206D03*
X010445Y007206D03*
X009658Y007206D03*
X008870Y007206D03*
X008083Y007206D03*
X007296Y007206D03*
X006508Y007206D03*
X006317Y017246D03*
X007105Y017246D03*
X007892Y017246D03*
X008679Y017246D03*
X009467Y017246D03*
X012026Y017246D03*
X012813Y017246D03*
X013601Y017246D03*
X014388Y017246D03*
X015175Y017246D03*
D26*
X012813Y014687D03*
X020490Y008387D03*
D27*
X020490Y008387D03*
X012813Y014687D03*
D28*
X011829Y012128D03*
X012813Y010159D03*
X015766Y012128D03*
X016750Y010159D03*
X019703Y011931D03*
X008876Y010159D03*
X007892Y012128D03*
D29*
X007892Y012128D03*
X008876Y010159D03*
X011829Y012128D03*
X012813Y010159D03*
X015766Y012128D03*
X016750Y010159D03*
X019703Y011931D03*
D30*
X021081Y013112D03*
X016357Y013112D03*
X012420Y013112D03*
X008483Y013112D03*
X004939Y008387D03*
D31*
X004939Y008387D03*
X008483Y013112D03*
X012420Y013112D03*
X016357Y013112D03*
X021081Y013112D03*
M02*
