%
M48
M72
T01C0.0157
T02C0.0315
T03C0.0320
T04C0.0354
T05C0.0360
T06C0.0394
T07C0.0400
T08C0.0591
T09C0.1024
T10C0.1260
%
T01
X14944Y4274
X17306Y2818
X17700Y2818
X18093Y2818
X18487Y2818
X21479Y4826
X19904Y5062
X20731Y5771
X21952Y7109
X22306Y8763
X21519Y9314
X21007Y10023
X21007Y10574
X19393Y10574
X16400Y8802
X17149Y7660
X17975Y6755
X17385Y6361
X16046Y6243
X16046Y5849
X12424Y9432
T02
X5731Y8841
X5731Y7345
T03
X12830Y11597
X13830Y11597
T04
X31739Y9452
X32739Y9050
X31739Y8652
X32739Y8251
X31739Y7853
X32739Y7452
X31739Y7054
X32739Y6652
T05
X12204Y5404
X11204Y5404
X10204Y5404
X10204Y4404
X11204Y4404
X12204Y4404
T06
X25058Y5373
X25058Y6373
X25058Y7373
X25058Y8373
X28058Y8373
X28058Y7373
X28058Y6373
X28058Y5373
X24133Y10782
X23133Y10782
X22133Y10782
X22133Y11782
X23133Y11782
X24133Y11782
T07
X16735Y11597
X15751Y11597
T08
X31739Y11253
X31739Y4855
T09
X33645Y5141
X33645Y10967
T10
X5298Y3330
X5298Y12778
X34432Y12778
X34432Y3330
M30
