  0
SECTION
  2
HEADER
  9
$ACADVER
  1
AC1009
  9
$FILLMODE
 70
1
  9
$EXTMIN
 10
-10.2032
 20
-5.2032
 30
0.0000
  9
$EXTMAX
 10
82.6933
 20
38.2032
 30
0.0000
  0
ENDSEC
  0
SECTION
  2
TABLES
  0
TABLE
  2
LTYPE
 70
1
  0
LTYPE
  2
CONTINUOUS
 70
64
  3
Solid line
 72
65
 73
0
 40
0
  0
ENDTAB
  0
TABLE
  2
LAYER
 70
255
  0
LAYER
  2
20
 70
64
 62
7
  6
CONTINUOUS
  0
LAYER
  2
32
 70
64
 62
253
  6
CONTINUOUS
  0
ENDTAB
  0
ENDSEC
  0
SECTION
  2
BLOCKS
  0
BLOCK
  8
0
  2
RECT
 70
64
 10
0.0000
 20
0.0000
 30
0.0000
  3
RECT
  0
SOLID
  8
0
 10
-0.5000
 20
-0.5000
 30
0.0000
 11
0.5000
 21
-0.5000
 31
0.0000
 12
-0.5000
 22
0.5000
 32
0.0000
 13
0.5000
 23
0.5000
 33
0.0000
  0
ENDBLK
  8
0
  0
BLOCK
  8
0
  2
PIE
 70
64
 10
0.0000
 20
0.0000
 30
0.0000
  3
PIE
  0
POLYLINE
  8
0
 66
1
 10
0.0000
 20
0.0000
 30
0.0000
 40
0.5000
 41
0.5000
 70
0
  0
VERTEX
  8
0
 10
0.0000
 20
-0.2500
 30
0.0000
 42
1.0000
  0
VERTEX
  8
0
 10
0.0000
 20
0.2500
 30
0.0000
 42
1.0000
  0
VERTEX
  8
0
 10
0.0000
 20
-0.2500
 30
0.0000
  0
SEQEND
  8
0
  0
ENDBLK
  8
0
  0
BLOCK
  8
0
  2
OCTAGONP
 70
64
 10
0.0000
 20
0.0000
 30
0.0000
  3
OCTAGONP
  0
POLYLINE
  8
0
 66
1
 10
0.0000
 20
0.0000
 30
0.0000
 40
0.5000
 41
0.5000
 70
0
  0
VERTEX
  8
0
 10
-0.2500
 20
-0.1036
 30
0.0000
  0
VERTEX
  8
0
 10
-0.2500
 20
0.1036
 30
0.0000
  0
VERTEX
  8
0
 10
-0.1036
 20
0.2500
 30
0.0000
  0
VERTEX
  8
0
 10
0.1036
 20
0.2500
 30
0.0000
  0
VERTEX
  8
0
 10
0.2500
 20
0.1036
 30
0.0000
  0
VERTEX
  8
0
 10
0.2500
 20
-0.1036
 30
0.0000
  0
VERTEX
  8
0
 10
0.1036
 20
-0.2500
 30
0.0000
  0
VERTEX
  8
0
 10
-0.1036
 20
-0.2500
 30
0.0000
  0
VERTEX
  8
0
 10
-0.2500
 20
-0.1036
 30
0.0000
  0
VERTEX
  8
0
 10
-0.2500
 20
0.1036
 30
0.0000
  0
SEQEND
  8
0
  0
ENDBLK
  8
0
  0
BLOCK
  8
0
  2
SQUAREP
 70
64
 10
0.0000
 20
0.0000
 30
0.0000
  3
SQUAREP
  0
SOLID
  8
0
 10
-0.5000
 20
-0.5000
 30
0.0000
 11
0.5000
 21
-0.5000
 31
0.0000
 12
-0.5000
 22
0.5000
 32
0.0000
 13
0.5000
 23
0.5000
 33
0.0000
  0
ENDBLK
  8
0
  0
BLOCK
  8
0
  2
ROUNDP
 70
64
 10
0.0000
 20
0.0000
 30
0.0000
  3
ROUNDP
  0
POLYLINE
  8
0
 66
1
 10
0.0000
 20
0.0000
 30
0.0000
 40
0.5000
 41
0.5000
 70
0
  0
VERTEX
  8
0
 10
0.0000
 20
-0.2500
 30
0.0000
 42
1.0000
  0
VERTEX
  8
0
 10
0.0000
 20
0.2500
 30
0.0000
 42
1.0000
  0
VERTEX
  8
0
 10
0.0000
 20
-0.2500
 30
0.0000
  0
SEQEND
  8
0
  0
ENDBLK
  8
0
  0
BLOCK
  8
0
  2
ANNULUSP
 70
64
 10
0.0000
 20
0.0000
 30
0.0000
  3
ANNULUSP
  0
POLYLINE
  8
0
 66
1
 10
0.0000
 20
0.0000
 30
0.0000
 40
0.5000
 41
0.5000
 70
0
  0
VERTEX
  8
0
 10
0.0000
 20
-0.2500
 30
0.0000
 42
1.0000
  0
VERTEX
  8
0
 10
0.0000
 20
0.2500
 30
0.0000
 42
1.0000
  0
VERTEX
  8
0
 10
0.0000
 20
-0.2500
 30
0.0000
  0
SEQEND
  8
0
  0
ENDBLK
  8
0
  0
BLOCK
  8
0
  2
THERMALP
 70
64
 10
0.0000
 20
0.0000
 30
0.0000
  3
THERMALP
  0
POLYLINE
  8
0
 66
1
 10
0.0000
 20
0.0000
 30
0.0000
 40
0.1000
 41
0.1000
 70
0
  0
VERTEX
  8
0
 10
-0.2379
 20
0.4500
 30
0.0000
  0
VERTEX
  8
0
 10
0.2379
 20
0.4500
 30
0.0000
  0
SEQEND
  8
0
  0
POLYLINE
  8
0
 66
1
 10
0.0000
 20
0.0000
 30
0.0000
 40
0.0500
 41
0.0500
 70
0
  0
VERTEX
  8
0
 10
0.2379
 20
0.4250
 30
0.0000
 42
1.0000
  0
VERTEX
  8
0
 10
0.2379
 20
0.4750
 30
0.0000
  0
SEQEND
  8
0
  0
POLYLINE
  8
0
 66
1
 10
0.0000
 20
0.0000
 30
0.0000
 40
0.0500
 41
0.0500
 70
0
  0
VERTEX
  8
0
 10
-0.2379
 20
0.4750
 30
0.0000
 42
1.0000
  0
VERTEX
  8
0
 10
-0.2379
 20
0.4250
 30
0.0000
  0
SEQEND
  8
0
  0
POLYLINE
  8
0
 66
1
 10
0.0000
 20
0.0000
 30
0.0000
 40
0.1000
 41
0.1000
 70
0
  0
VERTEX
  8
0
 10
0.4500
 20
0.2379
 30
0.0000
  0
VERTEX
  8
0
 10
0.4500
 20
-0.2379
 30
0.0000
  0
SEQEND
  8
0
  0
POLYLINE
  8
0
 66
1
 10
0.0000
 20
0.0000
 30
0.0000
 40
0.0500
 41
0.0500
 70
0
  0
VERTEX
  8
0
 10
0.4250
 20
-0.2379
 30
0.0000
 42
1.0000
  0
VERTEX
  8
0
 10
0.4750
 20
-0.2379
 30
0.0000
  0
SEQEND
  8
0
  0
POLYLINE
  8
0
 66
1
 10
0.0000
 20
0.0000
 30
0.0000
 40
0.0500
 41
0.0500
 70
0
  0
VERTEX
  8
0
 10
0.4750
 20
0.2379
 30
0.0000
 42
1.0000
  0
VERTEX
  8
0
 10
0.4250
 20
0.2379
 30
0.0000
  0
SEQEND
  8
0
  0
POLYLINE
  8
0
 66
1
 10
0.0000
 20
0.0000
 30
0.0000
 40
0.1000
 41
0.1000
 70
0
  0
VERTEX
  8
0
 10
0.2379
 20
-0.4500
 30
0.0000
  0
VERTEX
  8
0
 10
-0.2379
 20
-0.4500
 30
0.0000
  0
SEQEND
  8
0
  0
POLYLINE
  8
0
 66
1
 10
0.0000
 20
0.0000
 30
0.0000
 40
0.0500
 41
0.0500
 70
0
  0
VERTEX
  8
0
 10
-0.2379
 20
-0.4250
 30
0.0000
 42
1.0000
  0
VERTEX
  8
0
 10
-0.2379
 20
-0.4750
 30
0.0000
  0
SEQEND
  8
0
  0
POLYLINE
  8
0
 66
1
 10
0.0000
 20
0.0000
 30
0.0000
 40
0.0500
 41
0.0500
 70
0
  0
VERTEX
  8
0
 10
0.2379
 20
-0.4750
 30
0.0000
 42
1.0000
  0
VERTEX
  8
0
 10
0.2379
 20
-0.4250
 30
0.0000
  0
SEQEND
  8
0
  0
POLYLINE
  8
0
 66
1
 10
0.0000
 20
0.0000
 30
0.0000
 40
0.1000
 41
0.1000
 70
0
  0
VERTEX
  8
0
 10
-0.4500
 20
-0.2379
 30
0.0000
  0
VERTEX
  8
0
 10
-0.4500
 20
0.2379
 30
0.0000
  0
SEQEND
  8
0
  0
POLYLINE
  8
0
 66
1
 10
0.0000
 20
0.0000
 30
0.0000
 40
0.0500
 41
0.0500
 70
0
  0
VERTEX
  8
0
 10
-0.4250
 20
0.2379
 30
0.0000
 42
1.0000
  0
VERTEX
  8
0
 10
-0.4750
 20
0.2379
 30
0.0000
  0
SEQEND
  8
0
  0
POLYLINE
  8
0
 66
1
 10
0.0000
 20
0.0000
 30
0.0000
 40
0.0500
 41
0.0500
 70
0
  0
VERTEX
  8
0
 10
-0.4750
 20
-0.2379
 30
0.0000
 42
1.0000
  0
VERTEX
  8
0
 10
-0.4250
 20
-0.2379
 30
0.0000
  0
SEQEND
  8
0
  0
ENDBLK
  8
0
  0
BLOCK
  8
0
  2
OCTAGONV
 70
64
 10
0.0000
 20
0.0000
 30
0.0000
  3
OCTAGONV
  0
POLYLINE
  8
0
 66
1
 10
0.0000
 20
0.0000
 30
0.0000
 40
0.5000
 41
0.5000
 70
0
  0
VERTEX
  8
0
 10
-0.2500
 20
-0.1036
 30
0.0000
  0
VERTEX
  8
0
 10
-0.2500
 20
0.1036
 30
0.0000
  0
VERTEX
  8
0
 10
-0.1036
 20
0.2500
 30
0.0000
  0
VERTEX
  8
0
 10
0.1036
 20
0.2500
 30
0.0000
  0
VERTEX
  8
0
 10
0.2500
 20
0.1036
 30
0.0000
  0
VERTEX
  8
0
 10
0.2500
 20
-0.1036
 30
0.0000
  0
VERTEX
  8
0
 10
0.1036
 20
-0.2500
 30
0.0000
  0
VERTEX
  8
0
 10
-0.1036
 20
-0.2500
 30
0.0000
  0
VERTEX
  8
0
 10
-0.2500
 20
-0.1036
 30
0.0000
  0
VERTEX
  8
0
 10
-0.2500
 20
0.1036
 30
0.0000
  0
SEQEND
  8
0
  0
ENDBLK
  8
0
  0
BLOCK
  8
0
  2
SQUAREV
 70
64
 10
0.0000
 20
0.0000
 30
0.0000
  3
SQUAREV
  0
SOLID
  8
0
 10
-0.5000
 20
-0.5000
 30
0.0000
 11
0.5000
 21
-0.5000
 31
0.0000
 12
-0.5000
 22
0.5000
 32
0.0000
 13
0.5000
 23
0.5000
 33
0.0000
  0
ENDBLK
  8
0
  0
BLOCK
  8
0
  2
ROUNDV
 70
64
 10
0.0000
 20
0.0000
 30
0.0000
  3
ROUNDV
  0
POLYLINE
  8
0
 66
1
 10
0.0000
 20
0.0000
 30
0.0000
 40
0.5000
 41
0.5000
 70
0
  0
VERTEX
  8
0
 10
0.0000
 20
-0.2500
 30
0.0000
 42
1.0000
  0
VERTEX
  8
0
 10
0.0000
 20
0.2500
 30
0.0000
 42
1.0000
  0
VERTEX
  8
0
 10
0.0000
 20
-0.2500
 30
0.0000
  0
SEQEND
  8
0
  0
ENDBLK
  8
0
  0
BLOCK
  8
0
  2
ANNULUSV
 70
64
 10
0.0000
 20
0.0000
 30
0.0000
  3
ANNULUSV
  0
POLYLINE
  8
0
 66
1
 10
0.0000
 20
0.0000
 30
0.0000
 40
0.5000
 41
0.5000
 70
0
  0
VERTEX
  8
0
 10
0.0000
 20
-0.2500
 30
0.0000
 42
1.0000
  0
VERTEX
  8
0
 10
0.0000
 20
0.2500
 30
0.0000
 42
1.0000
  0
VERTEX
  8
0
 10
0.0000
 20
-0.2500
 30
0.0000
  0
SEQEND
  8
0
  0
ENDBLK
  8
0
  0
BLOCK
  8
0
  2
THERMALV
 70
64
 10
0.0000
 20
0.0000
 30
0.0000
  3
THERMALV
  0
POLYLINE
  8
0
 66
1
 10
0.0000
 20
0.0000
 30
0.0000
 40
0.1000
 41
0.1000
 70
0
  0
VERTEX
  8
0
 10
-0.2379
 20
0.4500
 30
0.0000
  0
VERTEX
  8
0
 10
0.2379
 20
0.4500
 30
0.0000
  0
SEQEND
  8
0
  0
POLYLINE
  8
0
 66
1
 10
0.0000
 20
0.0000
 30
0.0000
 40
0.0500
 41
0.0500
 70
0
  0
VERTEX
  8
0
 10
0.2379
 20
0.4250
 30
0.0000
 42
1.0000
  0
VERTEX
  8
0
 10
0.2379
 20
0.4750
 30
0.0000
  0
SEQEND
  8
0
  0
POLYLINE
  8
0
 66
1
 10
0.0000
 20
0.0000
 30
0.0000
 40
0.0500
 41
0.0500
 70
0
  0
VERTEX
  8
0
 10
-0.2379
 20
0.4750
 30
0.0000
 42
1.0000
  0
VERTEX
  8
0
 10
-0.2379
 20
0.4250
 30
0.0000
  0
SEQEND
  8
0
  0
POLYLINE
  8
0
 66
1
 10
0.0000
 20
0.0000
 30
0.0000
 40
0.1000
 41
0.1000
 70
0
  0
VERTEX
  8
0
 10
0.4500
 20
0.2379
 30
0.0000
  0
VERTEX
  8
0
 10
0.4500
 20
-0.2379
 30
0.0000
  0
SEQEND
  8
0
  0
POLYLINE
  8
0
 66
1
 10
0.0000
 20
0.0000
 30
0.0000
 40
0.0500
 41
0.0500
 70
0
  0
VERTEX
  8
0
 10
0.4250
 20
-0.2379
 30
0.0000
 42
1.0000
  0
VERTEX
  8
0
 10
0.4750
 20
-0.2379
 30
0.0000
  0
SEQEND
  8
0
  0
POLYLINE
  8
0
 66
1
 10
0.0000
 20
0.0000
 30
0.0000
 40
0.0500
 41
0.0500
 70
0
  0
VERTEX
  8
0
 10
0.4750
 20
0.2379
 30
0.0000
 42
1.0000
  0
VERTEX
  8
0
 10
0.4250
 20
0.2379
 30
0.0000
  0
SEQEND
  8
0
  0
POLYLINE
  8
0
 66
1
 10
0.0000
 20
0.0000
 30
0.0000
 40
0.1000
 41
0.1000
 70
0
  0
VERTEX
  8
0
 10
0.2379
 20
-0.4500
 30
0.0000
  0
VERTEX
  8
0
 10
-0.2379
 20
-0.4500
 30
0.0000
  0
SEQEND
  8
0
  0
POLYLINE
  8
0
 66
1
 10
0.0000
 20
0.0000
 30
0.0000
 40
0.0500
 41
0.0500
 70
0
  0
VERTEX
  8
0
 10
-0.2379
 20
-0.4250
 30
0.0000
 42
1.0000
  0
VERTEX
  8
0
 10
-0.2379
 20
-0.4750
 30
0.0000
  0
SEQEND
  8
0
  0
POLYLINE
  8
0
 66
1
 10
0.0000
 20
0.0000
 30
0.0000
 40
0.0500
 41
0.0500
 70
0
  0
VERTEX
  8
0
 10
0.2379
 20
-0.4750
 30
0.0000
 42
1.0000
  0
VERTEX
  8
0
 10
0.2379
 20
-0.4250
 30
0.0000
  0
SEQEND
  8
0
  0
POLYLINE
  8
0
 66
1
 10
0.0000
 20
0.0000
 30
0.0000
 40
0.1000
 41
0.1000
 70
0
  0
VERTEX
  8
0
 10
-0.4500
 20
-0.2379
 30
0.0000
  0
VERTEX
  8
0
 10
-0.4500
 20
0.2379
 30
0.0000
  0
SEQEND
  8
0
  0
POLYLINE
  8
0
 66
1
 10
0.0000
 20
0.0000
 30
0.0000
 40
0.0500
 41
0.0500
 70
0
  0
VERTEX
  8
0
 10
-0.4250
 20
0.2379
 30
0.0000
 42
1.0000
  0
VERTEX
  8
0
 10
-0.4750
 20
0.2379
 30
0.0000
  0
SEQEND
  8
0
  0
POLYLINE
  8
0
 66
1
 10
0.0000
 20
0.0000
 30
0.0000
 40
0.0500
 41
0.0500
 70
0
  0
VERTEX
  8
0
 10
-0.4750
 20
-0.2379
 30
0.0000
 42
1.0000
  0
VERTEX
  8
0
 10
-0.4250
 20
-0.2379
 30
0.0000
  0
SEQEND
  8
0
  0
ENDBLK
  8
0
  0
ENDSEC
  0
SECTION
  2
ENTITIES
  0
POLYLINE
  8
20
 66
1
 10
0.0000
 20
0.0000
 30
0.0000
 40
0.4064
 41
0.4064
 70
0
  0
VERTEX
  8
20
 10
0.0000
 20
0.0000
 30
0.0000
  0
VERTEX
  8
20
 10
80.0000
 20
0.0000
 30
0.0000
  0
SEQEND
  8
0
  0
POLYLINE
  8
20
 66
1
 10
0.0000
 20
0.0000
 30
0.0000
 40
0.2032
 41
0.2032
 70
0
  0
VERTEX
  8
20
 10
80.0000
 20
-0.1016
 30
0.0000
 42
1.0000
  0
VERTEX
  8
20
 10
80.0000
 20
0.1016
 30
0.0000
  0
SEQEND
  8
0
  0
POLYLINE
  8
20
 66
1
 10
0.0000
 20
0.0000
 30
0.0000
 40
0.2032
 41
0.2032
 70
0
  0
VERTEX
  8
20
 10
0.0000
 20
0.1016
 30
0.0000
 42
1.0000
  0
VERTEX
  8
20
 10
0.0000
 20
-0.1016
 30
0.0000
  0
SEQEND
  8
0
  0
POLYLINE
  8
20
 66
1
 10
0.0000
 20
0.0000
 30
0.0000
 40
0.4064
 41
0.4064
 70
0
  0
VERTEX
  8
20
 10
80.0000
 20
0.0000
 30
0.0000
  0
VERTEX
  8
20
 10
80.0000
 20
30.0000
 30
0.0000
  0
SEQEND
  8
0
  0
POLYLINE
  8
20
 66
1
 10
0.0000
 20
0.0000
 30
0.0000
 40
0.2032
 41
0.2032
 70
0
  0
VERTEX
  8
20
 10
80.1016
 20
30.0000
 30
0.0000
 42
1.0000
  0
VERTEX
  8
20
 10
79.8984
 20
30.0000
 30
0.0000
  0
SEQEND
  8
0
  0
POLYLINE
  8
20
 66
1
 10
0.0000
 20
0.0000
 30
0.0000
 40
0.2032
 41
0.2032
 70
0
  0
VERTEX
  8
20
 10
79.8984
 20
0.0000
 30
0.0000
 42
1.0000
  0
VERTEX
  8
20
 10
80.1016
 20
0.0000
 30
0.0000
  0
SEQEND
  8
0
  0
POLYLINE
  8
20
 66
1
 10
0.0000
 20
0.0000
 30
0.0000
 40
0.4064
 41
0.4064
 70
0
  0
VERTEX
  8
20
 10
80.0000
 20
30.0000
 30
0.0000
  0
VERTEX
  8
20
 10
0.0000
 20
30.0000
 30
0.0000
  0
SEQEND
  8
0
  0
POLYLINE
  8
20
 66
1
 10
0.0000
 20
0.0000
 30
0.0000
 40
0.2032
 41
0.2032
 70
0
  0
VERTEX
  8
20
 10
0.0000
 20
30.1016
 30
0.0000
 42
1.0000
  0
VERTEX
  8
20
 10
0.0000
 20
29.8984
 30
0.0000
  0
SEQEND
  8
0
  0
POLYLINE
  8
20
 66
1
 10
0.0000
 20
0.0000
 30
0.0000
 40
0.2032
 41
0.2032
 70
0
  0
VERTEX
  8
20
 10
80.0000
 20
29.8984
 30
0.0000
 42
1.0000
  0
VERTEX
  8
20
 10
80.0000
 20
30.1016
 30
0.0000
  0
SEQEND
  8
0
  0
POLYLINE
  8
20
 66
1
 10
0.0000
 20
0.0000
 30
0.0000
 40
0.4064
 41
0.4064
 70
0
  0
VERTEX
  8
20
 10
0.0000
 20
30.0000
 30
0.0000
  0
VERTEX
  8
20
 10
0.0000
 20
0.0000
 30
0.0000
  0
SEQEND
  8
0
  0
POLYLINE
  8
20
 66
1
 10
0.0000
 20
0.0000
 30
0.0000
 40
0.2032
 41
0.2032
 70
0
  0
VERTEX
  8
20
 10
-0.1016
 20
0.0000
 30
0.0000
 42
1.0000
  0
VERTEX
  8
20
 10
0.1016
 20
0.0000
 30
0.0000
  0
SEQEND
  8
0
  0
POLYLINE
  8
20
 66
1
 10
0.0000
 20
0.0000
 30
0.0000
 40
0.2032
 41
0.2032
 70
0
  0
VERTEX
  8
20
 10
0.1016
 20
30.0000
 30
0.0000
 42
1.0000
  0
VERTEX
  8
20
 10
-0.1016
 20
30.0000
 30
0.0000
  0
SEQEND
  8
0
  0
CIRCLE
  8
20
 10
3.0000
 20
27.0000
 30
0.0000
 40
1.6000
  0
CIRCLE
  8
20
 10
3.0000
 20
3.0000
 30
0.0000
 40
1.6000
  0
CIRCLE
  8
20
 10
77.0000
 20
27.0000
 30
0.0000
 40
1.6000
  0
CIRCLE
  8
20
 10
77.0000
 20
3.0000
 30
0.0000
 40
1.6000
  0
INSERT
  8
32
  2
RECT
 10
43.6000
 20
4.9500
 30
0.0000
 41
0.5000
 42
0.4000
 43
1.0000
 50
270.0000
  0
INSERT
  8
32
  2
RECT
 10
43.6000
 20
4.0500
 30
0.0000
 41
0.5000
 42
0.4000
 43
1.0000
 50
270.0000
  0
INSERT
  8
32
  2
RECT
 10
49.5000
 20
4.0500
 30
0.0000
 41
0.5000
 42
0.4000
 43
1.0000
 50
90.0000
  0
INSERT
  8
32
  2
RECT
 10
49.5000
 20
4.9500
 30
0.0000
 41
0.5000
 42
0.4000
 43
1.0000
 50
90.0000
  0
INSERT
  8
32
  2
RECT
 10
44.4000
 20
20.1000
 30
0.0000
 41
0.5000
 42
0.4000
 43
1.0000
 50
0.0000
  0
INSERT
  8
32
  2
RECT
 10
45.3000
 20
20.1000
 30
0.0000
 41
0.5000
 42
0.4000
 43
1.0000
 50
0.0000
  0
INSERT
  8
32
  2
RECT
 10
35.3182
 20
20.3818
 30
0.0000
 41
0.5000
 42
0.4000
 43
1.0000
 50
135.0000
  0
INSERT
  8
32
  2
RECT
 10
34.6818
 20
21.0182
 30
0.0000
 41
0.5000
 42
0.4000
 43
1.0000
 50
135.0000
  0
INSERT
  8
32
  2
RECT
 10
36.0682
 20
8.3182
 30
0.0000
 41
0.5000
 42
0.4000
 43
1.0000
 50
225.0000
  0
INSERT
  8
32
  2
RECT
 10
35.4318
 20
7.6818
 30
0.0000
 41
0.5000
 42
0.4000
 43
1.0000
 50
225.0000
  0
INSERT
  8
32
  2
RECT
 10
37.6182
 20
22.4182
 30
0.0000
 41
0.5000
 42
0.4000
 43
1.0000
 50
225.0000
  0
INSERT
  8
32
  2
RECT
 10
36.9818
 20
21.7818
 30
0.0000
 41
0.5000
 42
0.4000
 43
1.0000
 50
225.0000
  0
INSERT
  8
32
  2
RECT
 10
34.0818
 20
17.6818
 30
0.0000
 41
0.5000
 42
0.4000
 43
1.0000
 50
45.0000
  0
INSERT
  8
32
  2
RECT
 10
34.7182
 20
18.3182
 30
0.0000
 41
0.5000
 42
0.4000
 43
1.0000
 50
45.0000
  0
INSERT
  8
32
  2
RECT
 10
46.8000
 20
12.0500
 30
0.0000
 41
0.5000
 42
0.4000
 43
1.0000
 50
270.0000
  0
INSERT
  8
32
  2
RECT
 10
46.8000
 20
11.1500
 30
0.0000
 41
0.5000
 42
0.4000
 43
1.0000
 50
270.0000
  0
INSERT
  8
32
  2
RECT
 10
16.0000
 20
14.7000
 30
0.0000
 41
0.8000
 42
1.0000
 43
1.0000
 50
270.0000
  0
INSERT
  8
32
  2
RECT
 10
16.0000
 20
13.3000
 30
0.0000
 41
0.8000
 42
1.0000
 43
1.0000
 50
270.0000
  0
INSERT
  8
32
  2
RECT
 10
40.6718
 20
19.2073
 30
0.0000
 41
0.9000
 42
0.2500
 43
1.0000
 50
225.0000
  0
INSERT
  8
32
  2
RECT
 10
41.0253
 20
18.8537
 30
0.0000
 41
0.9000
 42
0.2500
 43
1.0000
 50
225.0000
  0
INSERT
  8
32
  2
RECT
 10
41.3789
 20
18.5002
 30
0.0000
 41
0.9000
 42
0.2500
 43
1.0000
 50
225.0000
  0
INSERT
  8
32
  2
RECT
 10
41.7324
 20
18.1466
 30
0.0000
 41
0.9000
 42
0.2500
 43
1.0000
 50
225.0000
  0
INSERT
  8
32
  2
RECT
 10
42.0860
 20
17.7931
 30
0.0000
 41
0.9000
 42
0.2500
 43
1.0000
 50
225.0000
  0
INSERT
  8
32
  2
RECT
 10
42.4395
 20
17.4395
 30
0.0000
 41
0.9000
 42
0.2500
 43
1.0000
 50
225.0000
  0
INSERT
  8
32
  2
RECT
 10
42.7931
 20
17.0860
 30
0.0000
 41
0.9000
 42
0.2500
 43
1.0000
 50
225.0000
  0
INSERT
  8
32
  2
RECT
 10
43.1466
 20
16.7324
 30
0.0000
 41
0.9000
 42
0.2500
 43
1.0000
 50
225.0000
  0
INSERT
  8
32
  2
RECT
 10
43.5002
 20
16.3789
 30
0.0000
 41
0.9000
 42
0.2500
 43
1.0000
 50
225.0000
  0
INSERT
  8
32
  2
RECT
 10
43.8537
 20
16.0253
 30
0.0000
 41
0.9000
 42
0.2500
 43
1.0000
 50
225.0000
  0
INSERT
  8
32
  2
RECT
 10
44.2073
 20
15.6718
 30
0.0000
 41
0.9000
 42
0.2500
 43
1.0000
 50
225.0000
  0
INSERT
  8
32
  2
RECT
 10
44.2073
 20
14.3282
 30
0.0000
 41
0.9000
 42
0.2500
 43
1.0000
 50
135.0000
  0
INSERT
  8
32
  2
RECT
 10
43.8537
 20
13.9747
 30
0.0000
 41
0.9000
 42
0.2500
 43
1.0000
 50
135.0000
  0
INSERT
  8
32
  2
RECT
 10
43.5002
 20
13.6211
 30
0.0000
 41
0.9000
 42
0.2500
 43
1.0000
 50
135.0000
  0
INSERT
  8
32
  2
RECT
 10
43.1466
 20
13.2676
 30
0.0000
 41
0.9000
 42
0.2500
 43
1.0000
 50
135.0000
  0
INSERT
  8
32
  2
RECT
 10
42.7931
 20
12.9140
 30
0.0000
 41
0.9000
 42
0.2500
 43
1.0000
 50
135.0000
  0
INSERT
  8
32
  2
RECT
 10
42.4395
 20
12.5605
 30
0.0000
 41
0.9000
 42
0.2500
 43
1.0000
 50
135.0000
  0
INSERT
  8
32
  2
RECT
 10
42.0860
 20
12.2069
 30
0.0000
 41
0.9000
 42
0.2500
 43
1.0000
 50
135.0000
  0
INSERT
  8
32
  2
RECT
 10
41.7324
 20
11.8534
 30
0.0000
 41
0.9000
 42
0.2500
 43
1.0000
 50
135.0000
  0
INSERT
  8
32
  2
RECT
 10
41.3789
 20
11.4998
 30
0.0000
 41
0.9000
 42
0.2500
 43
1.0000
 50
135.0000
  0
INSERT
  8
32
  2
RECT
 10
41.0253
 20
11.1463
 30
0.0000
 41
0.9000
 42
0.2500
 43
1.0000
 50
135.0000
  0
INSERT
  8
32
  2
RECT
 10
40.6718
 20
10.7927
 30
0.0000
 41
0.9000
 42
0.2500
 43
1.0000
 50
135.0000
  0
INSERT
  8
32
  2
RECT
 10
39.3283
 20
10.7927
 30
0.0000
 41
0.9000
 42
0.2500
 43
1.0000
 50
45.0000
  0
INSERT
  8
32
  2
RECT
 10
38.9747
 20
11.1463
 30
0.0000
 41
0.9000
 42
0.2500
 43
1.0000
 50
45.0000
  0
INSERT
  8
32
  2
RECT
 10
38.6211
 20
11.4998
 30
0.0000
 41
0.9000
 42
0.2500
 43
1.0000
 50
45.0000
  0
INSERT
  8
32
  2
RECT
 10
38.2676
 20
11.8534
 30
0.0000
 41
0.9000
 42
0.2500
 43
1.0000
 50
45.0000
  0
INSERT
  8
32
  2
RECT
 10
37.9140
 20
12.2069
 30
0.0000
 41
0.9000
 42
0.2500
 43
1.0000
 50
45.0000
  0
INSERT
  8
32
  2
RECT
 10
37.5605
 20
12.5605
 30
0.0000
 41
0.9000
 42
0.2500
 43
1.0000
 50
45.0000
  0
INSERT
  8
32
  2
RECT
 10
37.2069
 20
12.9140
 30
0.0000
 41
0.9000
 42
0.2500
 43
1.0000
 50
45.0000
  0
INSERT
  8
32
  2
RECT
 10
36.8534
 20
13.2676
 30
0.0000
 41
0.9000
 42
0.2500
 43
1.0000
 50
45.0000
  0
INSERT
  8
32
  2
RECT
 10
36.4998
 20
13.6211
 30
0.0000
 41
0.9000
 42
0.2500
 43
1.0000
 50
45.0000
  0
INSERT
  8
32
  2
RECT
 10
36.1463
 20
13.9747
 30
0.0000
 41
0.9000
 42
0.2500
 43
1.0000
 50
45.0000
  0
INSERT
  8
32
  2
RECT
 10
35.7927
 20
14.3282
 30
0.0000
 41
0.9000
 42
0.2500
 43
1.0000
 50
45.0000
  0
INSERT
  8
32
  2
RECT
 10
35.7927
 20
15.6718
 30
0.0000
 41
0.9000
 42
0.2500
 43
1.0000
 50
315.0000
  0
INSERT
  8
32
  2
RECT
 10
36.1463
 20
16.0253
 30
0.0000
 41
0.9000
 42
0.2500
 43
1.0000
 50
315.0000
  0
INSERT
  8
32
  2
RECT
 10
36.4998
 20
16.3789
 30
0.0000
 41
0.9000
 42
0.2500
 43
1.0000
 50
315.0000
  0
INSERT
  8
32
  2
RECT
 10
36.8534
 20
16.7324
 30
0.0000
 41
0.9000
 42
0.2500
 43
1.0000
 50
315.0000
  0
INSERT
  8
32
  2
RECT
 10
37.2069
 20
17.0860
 30
0.0000
 41
0.9000
 42
0.2500
 43
1.0000
 50
315.0000
  0
INSERT
  8
32
  2
RECT
 10
37.5605
 20
17.4395
 30
0.0000
 41
0.9000
 42
0.2500
 43
1.0000
 50
315.0000
  0
INSERT
  8
32
  2
RECT
 10
37.9140
 20
17.7931
 30
0.0000
 41
0.9000
 42
0.2500
 43
1.0000
 50
315.0000
  0
INSERT
  8
32
  2
RECT
 10
38.2676
 20
18.1466
 30
0.0000
 41
0.9000
 42
0.2500
 43
1.0000
 50
315.0000
  0
INSERT
  8
32
  2
RECT
 10
38.6211
 20
18.5002
 30
0.0000
 41
0.9000
 42
0.2500
 43
1.0000
 50
315.0000
  0
INSERT
  8
32
  2
RECT
 10
38.9747
 20
18.8537
 30
0.0000
 41
0.9000
 42
0.2500
 43
1.0000
 50
315.0000
  0
INSERT
  8
32
  2
RECT
 10
39.3283
 20
19.2073
 30
0.0000
 41
0.9000
 42
0.2500
 43
1.0000
 50
315.0000
  0
INSERT
  8
32
  2
RECT
 10
40.0000
 20
15.0000
 30
0.0000
 41
4.0000
 42
4.0000
 43
1.0000
 50
225.0000
  0
INSERT
  8
32
  2
RECT
 10
31.2000
 20
15.2000
 30
0.0000
 41
0.4000
 42
0.5000
 43
1.0000
 50
270.0000
  0
INSERT
  8
32
  2
RECT
 10
31.2000
 20
14.2000
 30
0.0000
 41
0.4000
 42
0.5000
 43
1.0000
 50
270.0000
  0
CIRCLE
  8
20
 10
4.1000
 20
17.0000
 30
0.0000
 40
0.4000
  0
CIRCLE
  8
20
 10
4.1000
 20
13.2000
 30
0.0000
 40
0.4000
  0
CIRCLE
  8
20
 10
75.0000
 20
22.4000
 30
0.0000
 40
1.3000
  0
CIRCLE
  8
20
 10
75.0000
 20
7.6000
 30
0.0000
 40
1.3000
  0
INSERT
  8
32
  2
RECT
 10
47.7000
 20
3.7000
 30
0.0000
 41
1.2000
 42
1.0000
 43
1.0000
 50
180.0000
  0
INSERT
  8
32
  2
RECT
 10
45.3000
 20
3.7000
 30
0.0000
 41
1.2000
 42
1.0000
 43
1.0000
 50
180.0000
  0
INSERT
  8
32
  2
RECT
 10
45.3000
 20
5.3000
 30
0.0000
 41
1.2000
 42
1.0000
 43
1.0000
 50
180.0000
  0
INSERT
  8
32
  2
RECT
 10
47.7000
 20
5.3000
 30
0.0000
 41
1.2000
 42
1.0000
 43
1.0000
 50
180.0000
  0
ENDSEC
  0
EOF
