G75*
%MOIN*%
%OFA0B0*%
%FSLAX25Y25*%
%IPPOS*%
%LPD*%
%AMOC8*
5,1,8,0,0,1.08239X$1,22.5*
%
%ADD10OC8,0.06600*%
%ADD11R,0.03937X0.03150*%
%ADD12R,0.03150X0.03937*%
%ADD13C,0.05906*%
%ADD14R,0.04803X0.03602*%
%ADD15R,0.03543X0.05906*%
%ADD16R,0.03150X0.04724*%
%ADD17C,0.05512*%
%ADD18R,0.04724X0.03937*%
%ADD19R,0.03150X0.01969*%
%ADD20R,0.02559X0.04724*%
%ADD21R,0.20276X0.20276*%
%ADD22R,0.04331X0.01181*%
%ADD23R,0.00886X0.00886*%
%ADD24OC8,0.04775*%
%ADD25C,0.01600*%
%ADD26C,0.01181*%
%ADD27C,0.04331*%
D10*
X0119123Y0088020D03*
X0119123Y0095894D03*
D11*
X0140776Y0090776D03*
X0146682Y0090776D03*
X0152587Y0090776D03*
X0152587Y0085265D03*
X0146682Y0085265D03*
X0140776Y0085265D03*
X0158493Y0085265D03*
X0158493Y0090776D03*
X0167154Y0095501D03*
X0167154Y0101013D03*
X0189202Y0082115D03*
X0189202Y0076603D03*
X0231721Y0075028D03*
X0231721Y0080540D03*
X0244713Y0087627D03*
X0244713Y0093139D03*
X0191170Y0029753D03*
X0191170Y0024241D03*
X0261643Y0018335D03*
X0261643Y0012824D03*
X0360068Y0054950D03*
X0360068Y0060461D03*
X0106524Y0068729D03*
X0106524Y0074241D03*
X0076603Y0058887D03*
X0076603Y0053375D03*
D12*
X0199831Y0070698D03*
X0205343Y0070698D03*
X0219123Y0039595D03*
X0224635Y0039595D03*
X0226997Y0031328D03*
X0221485Y0031328D03*
X0225816Y0023847D03*
X0231328Y0023847D03*
X0276997Y0034477D03*
X0282509Y0034477D03*
X0280146Y0061643D03*
X0285658Y0061643D03*
X0304162Y0082509D03*
X0309674Y0082509D03*
X0309674Y0090383D03*
X0304162Y0090383D03*
X0335658Y0082509D03*
X0341170Y0082509D03*
D13*
X0329635Y0037391D03*
X0319635Y0037391D03*
X0319635Y0027391D03*
X0329635Y0027391D03*
X0329635Y0017391D03*
X0319635Y0017391D03*
D14*
X0176603Y0021721D03*
X0176603Y0034635D03*
D15*
X0059477Y0047272D03*
X0046485Y0047272D03*
X0046485Y0066564D03*
X0059477Y0066564D03*
X0377194Y0066564D03*
X0390186Y0066564D03*
X0390186Y0047272D03*
X0377194Y0047272D03*
D16*
X0178769Y0065186D03*
X0171288Y0065186D03*
X0175028Y0073847D03*
D17*
X0293139Y0071918D03*
X0293139Y0061918D03*
X0293139Y0051918D03*
X0293139Y0041918D03*
D18*
X0279359Y0021485D03*
X0267548Y0021485D03*
X0267548Y0013611D03*
X0279359Y0013611D03*
D19*
X0317154Y0082706D03*
X0317154Y0090186D03*
X0328178Y0090186D03*
X0328178Y0086446D03*
X0328178Y0082706D03*
D20*
X0222568Y0067056D03*
X0214103Y0067056D03*
X0214103Y0046780D03*
X0222568Y0046780D03*
D21*
G36*
X0266137Y0056918D02*
X0251800Y0042581D01*
X0237463Y0056918D01*
X0251800Y0071255D01*
X0266137Y0056918D01*
G37*
D22*
G36*
X0267390Y0056082D02*
X0270451Y0053021D01*
X0269616Y0052186D01*
X0266555Y0055247D01*
X0267390Y0056082D01*
G37*
G36*
X0265998Y0054690D02*
X0269059Y0051629D01*
X0268224Y0050794D01*
X0265163Y0053855D01*
X0265998Y0054690D01*
G37*
G36*
X0264606Y0053298D02*
X0267667Y0050237D01*
X0266832Y0049402D01*
X0263771Y0052463D01*
X0264606Y0053298D01*
G37*
G36*
X0263214Y0051906D02*
X0266275Y0048845D01*
X0265440Y0048010D01*
X0262379Y0051071D01*
X0263214Y0051906D01*
G37*
G36*
X0261823Y0050514D02*
X0264884Y0047453D01*
X0264049Y0046618D01*
X0260988Y0049679D01*
X0261823Y0050514D01*
G37*
G36*
X0260431Y0049123D02*
X0263492Y0046062D01*
X0262657Y0045227D01*
X0259596Y0048288D01*
X0260431Y0049123D01*
G37*
G36*
X0259039Y0047731D02*
X0262100Y0044670D01*
X0261265Y0043835D01*
X0258204Y0046896D01*
X0259039Y0047731D01*
G37*
G36*
X0257647Y0046339D02*
X0260708Y0043278D01*
X0259873Y0042443D01*
X0256812Y0045504D01*
X0257647Y0046339D01*
G37*
G36*
X0256255Y0044947D02*
X0259316Y0041886D01*
X0258481Y0041051D01*
X0255420Y0044112D01*
X0256255Y0044947D01*
G37*
G36*
X0254863Y0043555D02*
X0257924Y0040494D01*
X0257089Y0039659D01*
X0254028Y0042720D01*
X0254863Y0043555D01*
G37*
G36*
X0253471Y0042163D02*
X0256532Y0039102D01*
X0255697Y0038267D01*
X0252636Y0041328D01*
X0253471Y0042163D01*
G37*
G36*
X0250964Y0041328D02*
X0247903Y0038267D01*
X0247068Y0039102D01*
X0250129Y0042163D01*
X0250964Y0041328D01*
G37*
G36*
X0249572Y0042720D02*
X0246511Y0039659D01*
X0245676Y0040494D01*
X0248737Y0043555D01*
X0249572Y0042720D01*
G37*
G36*
X0248180Y0044112D02*
X0245119Y0041051D01*
X0244284Y0041886D01*
X0247345Y0044947D01*
X0248180Y0044112D01*
G37*
G36*
X0246788Y0045504D02*
X0243727Y0042443D01*
X0242892Y0043278D01*
X0245953Y0046339D01*
X0246788Y0045504D01*
G37*
G36*
X0245396Y0046896D02*
X0242335Y0043835D01*
X0241500Y0044670D01*
X0244561Y0047731D01*
X0245396Y0046896D01*
G37*
G36*
X0244004Y0048288D02*
X0240943Y0045227D01*
X0240108Y0046062D01*
X0243169Y0049123D01*
X0244004Y0048288D01*
G37*
G36*
X0242612Y0049679D02*
X0239551Y0046618D01*
X0238716Y0047453D01*
X0241777Y0050514D01*
X0242612Y0049679D01*
G37*
G36*
X0241221Y0051071D02*
X0238160Y0048010D01*
X0237325Y0048845D01*
X0240386Y0051906D01*
X0241221Y0051071D01*
G37*
G36*
X0239829Y0052463D02*
X0236768Y0049402D01*
X0235933Y0050237D01*
X0238994Y0053298D01*
X0239829Y0052463D01*
G37*
G36*
X0238437Y0053855D02*
X0235376Y0050794D01*
X0234541Y0051629D01*
X0237602Y0054690D01*
X0238437Y0053855D01*
G37*
G36*
X0237045Y0055247D02*
X0233984Y0052186D01*
X0233149Y0053021D01*
X0236210Y0056082D01*
X0237045Y0055247D01*
G37*
G36*
X0236210Y0057754D02*
X0233149Y0060815D01*
X0233984Y0061650D01*
X0237045Y0058589D01*
X0236210Y0057754D01*
G37*
G36*
X0237602Y0059146D02*
X0234541Y0062207D01*
X0235376Y0063042D01*
X0238437Y0059981D01*
X0237602Y0059146D01*
G37*
G36*
X0238994Y0060538D02*
X0235933Y0063599D01*
X0236768Y0064434D01*
X0239829Y0061373D01*
X0238994Y0060538D01*
G37*
G36*
X0240386Y0061930D02*
X0237325Y0064991D01*
X0238160Y0065826D01*
X0241221Y0062765D01*
X0240386Y0061930D01*
G37*
G36*
X0241777Y0063322D02*
X0238716Y0066383D01*
X0239551Y0067218D01*
X0242612Y0064157D01*
X0241777Y0063322D01*
G37*
G36*
X0243169Y0064714D02*
X0240108Y0067775D01*
X0240943Y0068610D01*
X0244004Y0065549D01*
X0243169Y0064714D01*
G37*
G36*
X0244561Y0066106D02*
X0241500Y0069167D01*
X0242335Y0070002D01*
X0245396Y0066941D01*
X0244561Y0066106D01*
G37*
G36*
X0245953Y0067498D02*
X0242892Y0070559D01*
X0243727Y0071394D01*
X0246788Y0068333D01*
X0245953Y0067498D01*
G37*
G36*
X0247345Y0068890D02*
X0244284Y0071951D01*
X0245119Y0072786D01*
X0248180Y0069725D01*
X0247345Y0068890D01*
G37*
G36*
X0248737Y0070281D02*
X0245676Y0073342D01*
X0246511Y0074177D01*
X0249572Y0071116D01*
X0248737Y0070281D01*
G37*
G36*
X0250129Y0071673D02*
X0247068Y0074734D01*
X0247903Y0075569D01*
X0250964Y0072508D01*
X0250129Y0071673D01*
G37*
G36*
X0252636Y0072508D02*
X0255697Y0075569D01*
X0256532Y0074734D01*
X0253471Y0071673D01*
X0252636Y0072508D01*
G37*
G36*
X0254028Y0071116D02*
X0257089Y0074177D01*
X0257924Y0073342D01*
X0254863Y0070281D01*
X0254028Y0071116D01*
G37*
G36*
X0255420Y0069725D02*
X0258481Y0072786D01*
X0259316Y0071951D01*
X0256255Y0068890D01*
X0255420Y0069725D01*
G37*
G36*
X0256812Y0068333D02*
X0259873Y0071394D01*
X0260708Y0070559D01*
X0257647Y0067498D01*
X0256812Y0068333D01*
G37*
G36*
X0258204Y0066941D02*
X0261265Y0070002D01*
X0262100Y0069167D01*
X0259039Y0066106D01*
X0258204Y0066941D01*
G37*
G36*
X0259596Y0065549D02*
X0262657Y0068610D01*
X0263492Y0067775D01*
X0260431Y0064714D01*
X0259596Y0065549D01*
G37*
G36*
X0260988Y0064157D02*
X0264049Y0067218D01*
X0264884Y0066383D01*
X0261823Y0063322D01*
X0260988Y0064157D01*
G37*
G36*
X0262379Y0062765D02*
X0265440Y0065826D01*
X0266275Y0064991D01*
X0263214Y0061930D01*
X0262379Y0062765D01*
G37*
G36*
X0263771Y0061373D02*
X0266832Y0064434D01*
X0267667Y0063599D01*
X0264606Y0060538D01*
X0263771Y0061373D01*
G37*
G36*
X0265163Y0059981D02*
X0268224Y0063042D01*
X0269059Y0062207D01*
X0265998Y0059146D01*
X0265163Y0059981D01*
G37*
G36*
X0266555Y0058589D02*
X0269616Y0061650D01*
X0270451Y0060815D01*
X0267390Y0057754D01*
X0266555Y0058589D01*
G37*
D23*
G36*
X0234818Y0056918D02*
X0234192Y0056292D01*
X0233566Y0056918D01*
X0234192Y0057544D01*
X0234818Y0056918D01*
G37*
D24*
X0205619Y0056918D03*
X0195619Y0056918D03*
D25*
X0055317Y0030049D02*
X0050849Y0035910D01*
X0047621Y0042339D01*
X0049077Y0042339D01*
X0050238Y0043499D01*
X0050238Y0049981D01*
X0054209Y0053953D01*
X0067501Y0053953D01*
X0069759Y0051695D01*
X0070593Y0050861D01*
X0071683Y0050409D01*
X0073223Y0050409D01*
X0073814Y0049819D01*
X0079392Y0049819D01*
X0079983Y0050409D01*
X0089398Y0050409D01*
X0090488Y0050861D01*
X0097968Y0058341D01*
X0098802Y0059175D01*
X0099254Y0060265D01*
X0099254Y0067501D01*
X0103028Y0071276D01*
X0103038Y0071276D01*
X0102879Y0070999D01*
X0102756Y0070541D01*
X0102756Y0068729D01*
X0102756Y0066917D01*
X0102879Y0066460D01*
X0103116Y0066049D01*
X0103451Y0065714D01*
X0103861Y0065477D01*
X0104319Y0065354D01*
X0106524Y0065354D01*
X0106524Y0068729D01*
X0102756Y0068729D01*
X0106524Y0068729D01*
X0106524Y0068729D01*
X0106524Y0068729D01*
X0106524Y0065354D01*
X0108730Y0065354D01*
X0109188Y0065477D01*
X0109598Y0065714D01*
X0109933Y0066049D01*
X0110170Y0066460D01*
X0110293Y0066917D01*
X0110293Y0068729D01*
X0106525Y0068729D01*
X0106525Y0068729D01*
X0110293Y0068729D01*
X0110293Y0070541D01*
X0110170Y0070999D01*
X0110010Y0071276D01*
X0126000Y0071276D01*
X0126000Y0066564D01*
X0126451Y0065475D01*
X0127286Y0064640D01*
X0152525Y0039401D01*
X0151026Y0038780D01*
X0149860Y0037613D01*
X0149228Y0036089D01*
X0149228Y0034440D01*
X0149860Y0032916D01*
X0151026Y0031749D01*
X0152550Y0031118D01*
X0153328Y0031118D01*
X0165238Y0019207D01*
X0166328Y0018756D01*
X0172564Y0018756D01*
X0173381Y0017939D01*
X0176192Y0017939D01*
X0177522Y0016609D01*
X0177600Y0016576D01*
X0164446Y0016576D01*
X0162929Y0018093D01*
X0161839Y0018545D01*
X0142494Y0018545D01*
X0141944Y0019095D01*
X0140420Y0019726D01*
X0138770Y0019726D01*
X0137246Y0019095D01*
X0136080Y0017928D01*
X0135449Y0016404D01*
X0135449Y0014755D01*
X0136080Y0013231D01*
X0137246Y0012064D01*
X0138770Y0011433D01*
X0140420Y0011433D01*
X0141944Y0012064D01*
X0142494Y0012614D01*
X0160021Y0012614D01*
X0160703Y0011931D01*
X0161538Y0011097D01*
X0162627Y0010646D01*
X0215139Y0010646D01*
X0215822Y0009963D01*
X0216656Y0009129D01*
X0217746Y0008677D01*
X0231524Y0008677D01*
X0232614Y0009129D01*
X0239642Y0016157D01*
X0240420Y0016157D01*
X0240961Y0016381D01*
X0240961Y0015329D01*
X0240411Y0014779D01*
X0239780Y0013255D01*
X0239780Y0011605D01*
X0240411Y0010081D01*
X0241577Y0008915D01*
X0243101Y0008283D01*
X0244751Y0008283D01*
X0246275Y0008915D01*
X0247441Y0010081D01*
X0248072Y0011605D01*
X0248072Y0013255D01*
X0247441Y0014779D01*
X0246891Y0015329D01*
X0246891Y0016269D01*
X0247497Y0014806D01*
X0248664Y0013639D01*
X0250188Y0013008D01*
X0251837Y0013008D01*
X0253361Y0013639D01*
X0254528Y0014806D01*
X0255159Y0016330D01*
X0255159Y0017979D01*
X0254580Y0019377D01*
X0255700Y0018913D01*
X0257349Y0018913D01*
X0257874Y0019131D01*
X0257874Y0018335D01*
X0257874Y0016524D01*
X0257997Y0016066D01*
X0258195Y0015722D01*
X0257693Y0015219D01*
X0257693Y0010428D01*
X0258853Y0009268D01*
X0264432Y0009268D01*
X0264825Y0009661D01*
X0270731Y0009661D01*
X0271891Y0010822D01*
X0271891Y0011792D01*
X0272030Y0011931D01*
X0275197Y0015098D01*
X0275197Y0013795D01*
X0279175Y0013795D01*
X0279175Y0013427D01*
X0279543Y0013427D01*
X0279543Y0009843D01*
X0281958Y0009843D01*
X0282416Y0009965D01*
X0282826Y0010202D01*
X0283162Y0010537D01*
X0283399Y0010948D01*
X0283521Y0011406D01*
X0283521Y0013427D01*
X0279543Y0013427D01*
X0279543Y0013795D01*
X0279175Y0013795D01*
X0279175Y0017380D01*
X0276760Y0017380D01*
X0276419Y0017288D01*
X0276419Y0017535D01*
X0282542Y0017535D01*
X0283702Y0018696D01*
X0283702Y0024274D01*
X0282542Y0025435D01*
X0282324Y0025435D01*
X0282324Y0029949D01*
X0282010Y0030709D01*
X0282509Y0030709D01*
X0284320Y0030709D01*
X0284778Y0030831D01*
X0285189Y0031068D01*
X0285524Y0031403D01*
X0285761Y0031814D01*
X0285883Y0032272D01*
X0285883Y0034477D01*
X0282509Y0034477D01*
X0282509Y0034477D01*
X0285883Y0034477D01*
X0285883Y0036683D01*
X0285761Y0037140D01*
X0285524Y0037551D01*
X0285189Y0037886D01*
X0284778Y0038123D01*
X0284320Y0038246D01*
X0282509Y0038246D01*
X0282509Y0034477D01*
X0282509Y0030709D01*
X0282509Y0034477D01*
X0282509Y0034477D01*
X0282509Y0034477D01*
X0282509Y0038246D01*
X0280697Y0038246D01*
X0280239Y0038123D01*
X0279895Y0037924D01*
X0279392Y0038427D01*
X0274601Y0038427D01*
X0274543Y0038369D01*
X0274514Y0038398D01*
X0274621Y0038442D01*
X0275619Y0039440D01*
X0275829Y0039230D01*
X0277353Y0038598D01*
X0279003Y0038598D01*
X0280527Y0039230D01*
X0281693Y0040396D01*
X0282324Y0041920D01*
X0282324Y0043570D01*
X0281693Y0045094D01*
X0280527Y0046260D01*
X0279306Y0046766D01*
X0282556Y0050016D01*
X0283333Y0050016D01*
X0284857Y0050647D01*
X0285055Y0050845D01*
X0285055Y0046446D01*
X0285507Y0045356D01*
X0286341Y0044522D01*
X0288402Y0042461D01*
X0288402Y0040976D01*
X0289123Y0039235D01*
X0290455Y0037902D01*
X0292196Y0037181D01*
X0294081Y0037181D01*
X0295822Y0037902D01*
X0297154Y0039235D01*
X0297876Y0040976D01*
X0297876Y0042860D01*
X0297154Y0044601D01*
X0295822Y0045934D01*
X0294081Y0046655D01*
X0292595Y0046655D01*
X0291979Y0047271D01*
X0292196Y0047181D01*
X0294081Y0047181D01*
X0295822Y0047902D01*
X0297154Y0049235D01*
X0297876Y0050976D01*
X0297876Y0052860D01*
X0297154Y0054601D01*
X0295822Y0055934D01*
X0294081Y0056655D01*
X0292196Y0056655D01*
X0290986Y0056154D01*
X0290986Y0057806D01*
X0291003Y0057893D01*
X0291390Y0057696D01*
X0292072Y0057474D01*
X0292780Y0057362D01*
X0292954Y0057362D01*
X0292954Y0061734D01*
X0293323Y0061734D01*
X0293323Y0062102D01*
X0297694Y0062102D01*
X0297694Y0062277D01*
X0297582Y0062985D01*
X0297361Y0063667D01*
X0297035Y0064306D01*
X0296614Y0064886D01*
X0296107Y0065393D01*
X0295526Y0065815D01*
X0294887Y0066140D01*
X0294205Y0066362D01*
X0293497Y0066474D01*
X0293323Y0066474D01*
X0293323Y0062102D01*
X0292954Y0062102D01*
X0292954Y0066474D01*
X0292780Y0066474D01*
X0292072Y0066362D01*
X0291390Y0066140D01*
X0290751Y0065815D01*
X0290171Y0065393D01*
X0289664Y0064886D01*
X0289242Y0064306D01*
X0289214Y0064251D01*
X0289214Y0064432D01*
X0288624Y0065022D01*
X0288624Y0066957D01*
X0288172Y0068047D01*
X0287443Y0068776D01*
X0287443Y0069554D01*
X0286811Y0071078D01*
X0285645Y0072244D01*
X0284121Y0072876D01*
X0282471Y0072876D01*
X0280947Y0072244D01*
X0279781Y0071078D01*
X0279150Y0069554D01*
X0279150Y0067904D01*
X0279781Y0066380D01*
X0280569Y0065592D01*
X0277751Y0065592D01*
X0276591Y0064432D01*
X0276591Y0062674D01*
X0274089Y0060173D01*
X0273638Y0059083D01*
X0273638Y0055390D01*
X0272261Y0054014D01*
X0269228Y0057046D01*
X0270194Y0058012D01*
X0271892Y0059710D01*
X0272129Y0060121D01*
X0272252Y0060579D01*
X0272252Y0061053D01*
X0272129Y0061510D01*
X0271980Y0061769D01*
X0272518Y0062307D01*
X0273834Y0062852D01*
X0275000Y0064018D01*
X0275631Y0065542D01*
X0275631Y0067192D01*
X0275000Y0068716D01*
X0274450Y0069266D01*
X0274450Y0083249D01*
X0280587Y0089386D01*
X0283886Y0089386D01*
X0284976Y0089837D01*
X0290430Y0095291D01*
X0323406Y0095291D01*
X0325665Y0093033D01*
X0324622Y0091991D01*
X0324622Y0088381D01*
X0324916Y0088087D01*
X0324803Y0087667D01*
X0324803Y0086446D01*
X0328178Y0086446D01*
X0328178Y0086446D01*
X0324803Y0086446D01*
X0324803Y0085224D01*
X0324916Y0084804D01*
X0324622Y0084510D01*
X0324622Y0080901D01*
X0325783Y0079740D01*
X0332102Y0079740D01*
X0332102Y0079720D01*
X0333263Y0078559D01*
X0333480Y0078559D01*
X0333480Y0070108D01*
X0333932Y0069018D01*
X0343323Y0059627D01*
X0343323Y0035272D01*
X0334568Y0026518D01*
X0334568Y0028372D01*
X0333817Y0030185D01*
X0332429Y0031573D01*
X0330616Y0032324D01*
X0328653Y0032324D01*
X0326840Y0031573D01*
X0325452Y0030185D01*
X0324701Y0028372D01*
X0324701Y0026409D01*
X0325452Y0024596D01*
X0326840Y0023208D01*
X0328653Y0022457D01*
X0330507Y0022457D01*
X0330375Y0022324D01*
X0328653Y0022324D01*
X0326840Y0021573D01*
X0325452Y0020185D01*
X0324701Y0018372D01*
X0324701Y0016409D01*
X0325452Y0014596D01*
X0326840Y0013208D01*
X0328653Y0012457D01*
X0330616Y0012457D01*
X0332429Y0013208D01*
X0333817Y0014596D01*
X0334568Y0016409D01*
X0334568Y0018131D01*
X0348802Y0032364D01*
X0349254Y0033454D01*
X0349254Y0057890D01*
X0356294Y0057890D01*
X0356621Y0057563D01*
X0356422Y0057219D01*
X0356299Y0056761D01*
X0356299Y0054950D01*
X0360068Y0054950D01*
X0363836Y0054950D01*
X0363836Y0056761D01*
X0363811Y0056855D01*
X0366262Y0054404D01*
X0367352Y0053953D01*
X0384280Y0053953D01*
X0385370Y0054404D01*
X0391507Y0060541D01*
X0391845Y0056918D01*
X0391405Y0052206D01*
X0387594Y0052206D01*
X0386433Y0051046D01*
X0386433Y0046139D01*
X0380588Y0040293D01*
X0380133Y0040748D01*
X0378609Y0041380D01*
X0376959Y0041380D01*
X0375435Y0040748D01*
X0374269Y0039582D01*
X0373638Y0038058D01*
X0373638Y0036408D01*
X0374269Y0034884D01*
X0375435Y0033718D01*
X0376959Y0033087D01*
X0378609Y0033087D01*
X0380133Y0033718D01*
X0380683Y0034268D01*
X0382311Y0034268D01*
X0383401Y0034719D01*
X0387063Y0038381D01*
X0385822Y0035910D01*
X0381353Y0030049D01*
X0375877Y0025117D01*
X0369583Y0021284D01*
X0362688Y0018681D01*
X0359090Y0017871D01*
X0359090Y0017871D01*
X0357777Y0017639D01*
X0355639Y0016047D01*
X0354443Y0013665D01*
X0354443Y0013031D01*
X0354443Y0007424D01*
X0082228Y0007424D01*
X0082228Y0013665D01*
X0081031Y0016047D01*
X0078894Y0017639D01*
X0078894Y0017639D01*
X0077581Y0017871D01*
X0073982Y0018681D01*
X0067088Y0021284D01*
X0060793Y0025117D01*
X0055317Y0030049D01*
X0055689Y0029715D02*
X0154731Y0029715D01*
X0156330Y0028116D02*
X0057464Y0028116D01*
X0059239Y0026518D02*
X0157928Y0026518D01*
X0159527Y0024919D02*
X0061119Y0024919D01*
X0063743Y0023321D02*
X0161125Y0023321D01*
X0162724Y0021722D02*
X0066368Y0021722D01*
X0070161Y0020124D02*
X0164322Y0020124D01*
X0161886Y0018525D02*
X0172795Y0018525D01*
X0177204Y0016927D02*
X0164095Y0016927D01*
X0160504Y0012131D02*
X0142011Y0012131D01*
X0137180Y0012131D02*
X0082228Y0012131D01*
X0082228Y0010533D02*
X0215252Y0010533D01*
X0217125Y0008934D02*
X0082228Y0008934D01*
X0082195Y0013730D02*
X0135873Y0013730D01*
X0135449Y0015328D02*
X0081393Y0015328D01*
X0081031Y0016047D02*
X0081031Y0016047D01*
X0079851Y0016927D02*
X0135665Y0016927D01*
X0136677Y0018525D02*
X0074675Y0018525D01*
X0077581Y0017871D02*
X0077581Y0017871D01*
X0054354Y0031313D02*
X0152079Y0031313D01*
X0149864Y0032912D02*
X0053135Y0032912D01*
X0051916Y0034510D02*
X0149228Y0034510D01*
X0149236Y0036109D02*
X0050749Y0036109D01*
X0049946Y0037707D02*
X0149954Y0037707D01*
X0152296Y0039306D02*
X0049144Y0039306D01*
X0048341Y0040904D02*
X0151022Y0040904D01*
X0149423Y0042503D02*
X0062234Y0042503D01*
X0062069Y0042339D02*
X0063230Y0043499D01*
X0063230Y0051046D01*
X0062069Y0052206D01*
X0056885Y0052206D01*
X0055724Y0051046D01*
X0055724Y0043499D01*
X0056885Y0042339D01*
X0062069Y0042339D01*
X0063230Y0044101D02*
X0147825Y0044101D01*
X0146226Y0045700D02*
X0063230Y0045700D01*
X0063230Y0047298D02*
X0144628Y0047298D01*
X0143029Y0048897D02*
X0063230Y0048897D01*
X0063230Y0050495D02*
X0071475Y0050495D01*
X0069360Y0052094D02*
X0062182Y0052094D01*
X0056772Y0052094D02*
X0052350Y0052094D01*
X0050752Y0050495D02*
X0055724Y0050495D01*
X0055724Y0048897D02*
X0050238Y0048897D01*
X0050238Y0047298D02*
X0055724Y0047298D01*
X0055724Y0045700D02*
X0050238Y0045700D01*
X0050238Y0044101D02*
X0055724Y0044101D01*
X0056721Y0042503D02*
X0049241Y0042503D01*
X0045164Y0053295D02*
X0044826Y0056918D01*
X0045266Y0061630D01*
X0049077Y0061630D01*
X0050238Y0062790D01*
X0050238Y0066123D01*
X0057753Y0073638D01*
X0075224Y0073638D01*
X0076314Y0074089D01*
X0105390Y0103165D01*
X0163477Y0103165D01*
X0163386Y0102824D01*
X0163386Y0101013D01*
X0167154Y0101013D01*
X0167154Y0101013D01*
X0163386Y0101013D01*
X0163386Y0099201D01*
X0163508Y0098743D01*
X0163707Y0098399D01*
X0163205Y0097896D01*
X0163205Y0095745D01*
X0162246Y0094786D01*
X0162246Y0096878D01*
X0161794Y0097968D01*
X0160960Y0098802D01*
X0158992Y0100771D01*
X0157902Y0101222D01*
X0142942Y0101222D01*
X0141853Y0100771D01*
X0141018Y0099936D01*
X0138262Y0097181D01*
X0137811Y0096091D01*
X0137811Y0094156D01*
X0136827Y0093172D01*
X0136827Y0088381D01*
X0137187Y0088020D01*
X0136827Y0087660D01*
X0136827Y0082869D01*
X0137987Y0081709D01*
X0143565Y0081709D01*
X0143729Y0081872D01*
X0143893Y0081709D01*
X0149471Y0081709D01*
X0149622Y0081860D01*
X0149622Y0078225D01*
X0148603Y0077206D01*
X0109904Y0077206D01*
X0109314Y0077797D01*
X0103735Y0077797D01*
X0103145Y0077206D01*
X0101210Y0077206D01*
X0100120Y0076755D01*
X0099286Y0075921D01*
X0093774Y0070409D01*
X0093323Y0069319D01*
X0093323Y0062083D01*
X0087580Y0056340D01*
X0080089Y0056340D01*
X0080249Y0056617D01*
X0080372Y0057075D01*
X0080372Y0058887D01*
X0080372Y0060698D01*
X0080249Y0061156D01*
X0080012Y0061567D01*
X0079677Y0061902D01*
X0079266Y0062139D01*
X0078809Y0062261D01*
X0076603Y0062261D01*
X0074398Y0062261D01*
X0073940Y0062139D01*
X0073529Y0061902D01*
X0073194Y0061567D01*
X0072957Y0061156D01*
X0072835Y0060698D01*
X0072835Y0058887D01*
X0076603Y0058887D01*
X0076603Y0062261D01*
X0076603Y0058887D01*
X0076603Y0058887D01*
X0076603Y0058887D01*
X0080372Y0058887D01*
X0076603Y0058887D01*
X0076603Y0058887D01*
X0072835Y0058887D01*
X0072835Y0057075D01*
X0072860Y0056981D01*
X0070409Y0059432D01*
X0069319Y0059883D01*
X0052391Y0059883D01*
X0051301Y0059432D01*
X0050467Y0058598D01*
X0045164Y0053295D01*
X0045127Y0053692D02*
X0045562Y0053692D01*
X0044978Y0055291D02*
X0047160Y0055291D01*
X0048759Y0056889D02*
X0044829Y0056889D01*
X0044972Y0058488D02*
X0050357Y0058488D01*
X0049132Y0061685D02*
X0073313Y0061685D01*
X0072835Y0060086D02*
X0045122Y0060086D01*
X0050238Y0063283D02*
X0055930Y0063283D01*
X0055906Y0063374D02*
X0056028Y0062916D01*
X0056265Y0062506D01*
X0056600Y0062171D01*
X0057011Y0061934D01*
X0057469Y0061811D01*
X0059391Y0061811D01*
X0059391Y0066478D01*
X0055906Y0066478D01*
X0055906Y0063374D01*
X0055906Y0064882D02*
X0050238Y0064882D01*
X0050595Y0066480D02*
X0059391Y0066480D01*
X0059391Y0066478D02*
X0059391Y0066650D01*
X0059391Y0071317D01*
X0057469Y0071317D01*
X0057011Y0071194D01*
X0056600Y0070957D01*
X0056265Y0070622D01*
X0056028Y0070211D01*
X0055906Y0069754D01*
X0055906Y0066650D01*
X0059391Y0066650D01*
X0059563Y0066650D01*
X0059563Y0071317D01*
X0061486Y0071317D01*
X0061944Y0071194D01*
X0062354Y0070957D01*
X0062689Y0070622D01*
X0062926Y0070211D01*
X0063049Y0069754D01*
X0063049Y0066650D01*
X0059563Y0066650D01*
X0059563Y0066478D01*
X0063049Y0066478D01*
X0063049Y0063374D01*
X0062926Y0062916D01*
X0062689Y0062506D01*
X0062354Y0062171D01*
X0061944Y0061934D01*
X0061486Y0061811D01*
X0059563Y0061811D01*
X0059563Y0066478D01*
X0059391Y0066478D01*
X0059563Y0066480D02*
X0093323Y0066480D01*
X0093323Y0064882D02*
X0063049Y0064882D01*
X0063025Y0063283D02*
X0093323Y0063283D01*
X0092924Y0061685D02*
X0079894Y0061685D01*
X0080372Y0060086D02*
X0091326Y0060086D01*
X0089727Y0058488D02*
X0080372Y0058488D01*
X0080322Y0056889D02*
X0088129Y0056889D01*
X0093319Y0053692D02*
X0115739Y0053692D01*
X0115476Y0053955D02*
X0116947Y0052484D01*
X0118870Y0051687D01*
X0120951Y0051687D01*
X0122873Y0052484D01*
X0124345Y0053955D01*
X0125141Y0055878D01*
X0125141Y0057959D01*
X0124345Y0059881D01*
X0122873Y0061352D01*
X0120951Y0062149D01*
X0118870Y0062149D01*
X0116947Y0061352D01*
X0115476Y0059881D01*
X0114680Y0057959D01*
X0114680Y0055878D01*
X0115476Y0053955D01*
X0114923Y0055291D02*
X0094918Y0055291D01*
X0096516Y0056889D02*
X0114680Y0056889D01*
X0114899Y0058488D02*
X0098115Y0058488D01*
X0097968Y0058341D02*
X0097968Y0058341D01*
X0099179Y0060086D02*
X0115681Y0060086D01*
X0117750Y0061685D02*
X0099254Y0061685D01*
X0099254Y0063283D02*
X0128643Y0063283D01*
X0130241Y0061685D02*
X0122071Y0061685D01*
X0124139Y0060086D02*
X0131840Y0060086D01*
X0133438Y0058488D02*
X0124922Y0058488D01*
X0125141Y0056889D02*
X0135037Y0056889D01*
X0136635Y0055291D02*
X0124898Y0055291D01*
X0124082Y0053692D02*
X0138234Y0053692D01*
X0139832Y0052094D02*
X0121932Y0052094D01*
X0117889Y0052094D02*
X0091721Y0052094D01*
X0089605Y0050495D02*
X0141431Y0050495D01*
X0150828Y0053422D02*
X0150828Y0064351D01*
X0158643Y0072166D01*
X0167732Y0064335D01*
X0167732Y0062003D01*
X0168893Y0060843D01*
X0173684Y0060843D01*
X0174844Y0062003D01*
X0174844Y0068369D01*
X0173709Y0069504D01*
X0177424Y0069504D01*
X0178584Y0070664D01*
X0178584Y0070882D01*
X0181122Y0070882D01*
X0181356Y0070317D01*
X0182522Y0069151D01*
X0184046Y0068520D01*
X0185696Y0068520D01*
X0187220Y0069151D01*
X0188386Y0070317D01*
X0189017Y0071841D01*
X0189017Y0073228D01*
X0189202Y0073228D01*
X0191407Y0073228D01*
X0191865Y0073351D01*
X0192275Y0073588D01*
X0192610Y0073923D01*
X0192847Y0074334D01*
X0192970Y0074791D01*
X0192970Y0076603D01*
X0189202Y0076603D01*
X0189202Y0076603D01*
X0192970Y0076603D01*
X0192970Y0078415D01*
X0192847Y0078873D01*
X0192649Y0079217D01*
X0192975Y0079543D01*
X0193783Y0079543D01*
X0194333Y0078993D01*
X0195857Y0078362D01*
X0197507Y0078362D01*
X0199031Y0078993D01*
X0200197Y0080160D01*
X0200828Y0081684D01*
X0200828Y0082043D01*
X0210750Y0072121D01*
X0211840Y0071669D01*
X0221044Y0071669D01*
X0221314Y0071399D01*
X0220468Y0071399D01*
X0219307Y0070239D01*
X0219307Y0063873D01*
X0220468Y0062713D01*
X0223372Y0062713D01*
X0223696Y0061931D01*
X0224425Y0061202D01*
X0224425Y0060424D01*
X0225056Y0058900D01*
X0226042Y0057915D01*
X0217595Y0057915D01*
X0212798Y0062713D01*
X0216203Y0062713D01*
X0217364Y0063873D01*
X0217364Y0070239D01*
X0216203Y0071399D01*
X0212003Y0071399D01*
X0210843Y0070239D01*
X0210843Y0064668D01*
X0208309Y0067202D01*
X0208309Y0067318D01*
X0208899Y0067909D01*
X0208899Y0073487D01*
X0207739Y0074647D01*
X0202948Y0074647D01*
X0202587Y0074287D01*
X0202227Y0074647D01*
X0197436Y0074647D01*
X0196276Y0073487D01*
X0196276Y0071335D01*
X0193939Y0068999D01*
X0193105Y0068165D01*
X0192654Y0067075D01*
X0192654Y0060131D01*
X0191250Y0058728D01*
X0191250Y0055109D01*
X0193809Y0052550D01*
X0197428Y0052550D01*
X0199987Y0055109D01*
X0199987Y0058728D01*
X0198584Y0060131D01*
X0198584Y0065257D01*
X0200076Y0066748D01*
X0202227Y0066748D01*
X0202378Y0066899D01*
X0202378Y0065383D01*
X0202829Y0064293D01*
X0203664Y0063459D01*
X0206017Y0061105D01*
X0205619Y0061105D01*
X0205619Y0056918D01*
X0205619Y0056918D01*
X0209806Y0056918D01*
X0209806Y0055184D01*
X0207353Y0052731D01*
X0205619Y0052731D01*
X0205619Y0056918D01*
X0205619Y0056918D01*
X0209806Y0056918D01*
X0209806Y0057317D01*
X0213853Y0053270D01*
X0213853Y0053270D01*
X0214687Y0052436D01*
X0215777Y0051984D01*
X0226435Y0051984D01*
X0225844Y0051393D01*
X0225335Y0050165D01*
X0225288Y0050248D01*
X0224952Y0050583D01*
X0224542Y0050820D01*
X0224084Y0050943D01*
X0222568Y0050943D01*
X0222568Y0046780D01*
X0222568Y0046780D01*
X0225647Y0046780D01*
X0225647Y0044181D01*
X0225525Y0043723D01*
X0225422Y0043545D01*
X0225881Y0043545D01*
X0227615Y0045278D01*
X0227010Y0045529D01*
X0225844Y0046695D01*
X0225647Y0047170D01*
X0225647Y0046780D01*
X0222568Y0046780D01*
X0219488Y0046780D01*
X0219488Y0044181D01*
X0219611Y0043723D01*
X0219714Y0043545D01*
X0217311Y0043545D01*
X0217364Y0043598D01*
X0217364Y0049963D01*
X0216203Y0051124D01*
X0213301Y0051124D01*
X0213189Y0051393D01*
X0212023Y0052559D01*
X0210499Y0053191D01*
X0208849Y0053191D01*
X0207325Y0052559D01*
X0206159Y0051393D01*
X0205528Y0049869D01*
X0205528Y0049746D01*
X0171040Y0049746D01*
X0161458Y0059327D01*
X0161458Y0060105D01*
X0160827Y0061629D01*
X0159661Y0062795D01*
X0158137Y0063427D01*
X0156487Y0063427D01*
X0154963Y0062795D01*
X0153797Y0061629D01*
X0153165Y0060105D01*
X0153165Y0058456D01*
X0153797Y0056932D01*
X0154963Y0055765D01*
X0156487Y0055134D01*
X0157265Y0055134D01*
X0167298Y0045101D01*
X0167298Y0045101D01*
X0168132Y0044266D01*
X0169222Y0043815D01*
X0210843Y0043815D01*
X0210843Y0043598D01*
X0212003Y0042437D01*
X0215085Y0042437D01*
X0214433Y0042167D01*
X0213574Y0042167D01*
X0212050Y0041536D01*
X0210883Y0040369D01*
X0210252Y0038845D01*
X0210252Y0037196D01*
X0210883Y0035672D01*
X0212050Y0034505D01*
X0212749Y0034216D01*
X0212220Y0032940D01*
X0212220Y0031290D01*
X0212852Y0029766D01*
X0214018Y0028600D01*
X0215542Y0027969D01*
X0217192Y0027969D01*
X0218116Y0028351D01*
X0219090Y0027378D01*
X0223347Y0027378D01*
X0223136Y0027256D01*
X0222801Y0026921D01*
X0222564Y0026511D01*
X0222441Y0026053D01*
X0222441Y0023847D01*
X0222441Y0021642D01*
X0222532Y0021301D01*
X0221448Y0021301D01*
X0221319Y0021247D01*
X0220981Y0021458D01*
X0220803Y0021637D01*
X0220485Y0021768D01*
X0220194Y0021950D01*
X0219946Y0021992D01*
X0219713Y0022088D01*
X0219369Y0022088D01*
X0219031Y0022145D01*
X0218785Y0022088D01*
X0195120Y0022088D01*
X0195120Y0026636D01*
X0194617Y0027139D01*
X0194816Y0027483D01*
X0194939Y0027941D01*
X0194939Y0029753D01*
X0194939Y0031565D01*
X0194816Y0032022D01*
X0194579Y0032433D01*
X0194244Y0032768D01*
X0193833Y0033005D01*
X0193376Y0033128D01*
X0191170Y0033128D01*
X0188965Y0033128D01*
X0188507Y0033005D01*
X0188096Y0032768D01*
X0187761Y0032433D01*
X0187524Y0032022D01*
X0187402Y0031565D01*
X0187402Y0029753D01*
X0191170Y0029753D01*
X0191170Y0033128D01*
X0191170Y0029753D01*
X0191170Y0029753D01*
X0191170Y0029753D01*
X0194939Y0029753D01*
X0191170Y0029753D01*
X0191170Y0029753D01*
X0187402Y0029753D01*
X0187402Y0027941D01*
X0187524Y0027483D01*
X0187723Y0027139D01*
X0187220Y0026636D01*
X0187220Y0022088D01*
X0187049Y0022088D01*
X0187049Y0039004D01*
X0186597Y0040094D01*
X0185763Y0040928D01*
X0183795Y0042897D01*
X0182705Y0043348D01*
X0160902Y0043348D01*
X0150828Y0053422D01*
X0150828Y0053692D02*
X0158706Y0053692D01*
X0160305Y0052094D02*
X0152156Y0052094D01*
X0153755Y0050495D02*
X0161903Y0050495D01*
X0163502Y0048897D02*
X0155354Y0048897D01*
X0156952Y0047298D02*
X0165100Y0047298D01*
X0166699Y0045700D02*
X0158551Y0045700D01*
X0160149Y0044101D02*
X0168531Y0044101D01*
X0170290Y0050495D02*
X0205787Y0050495D01*
X0206860Y0052094D02*
X0168692Y0052094D01*
X0167093Y0053692D02*
X0192667Y0053692D01*
X0191250Y0055291D02*
X0165495Y0055291D01*
X0163896Y0056889D02*
X0191250Y0056889D01*
X0191250Y0058488D02*
X0162298Y0058488D01*
X0161458Y0060086D02*
X0192609Y0060086D01*
X0192654Y0061685D02*
X0181750Y0061685D01*
X0181784Y0061718D02*
X0182021Y0062129D01*
X0182143Y0062587D01*
X0182143Y0065186D01*
X0182143Y0067785D01*
X0182021Y0068243D01*
X0181784Y0068653D01*
X0181449Y0068988D01*
X0181038Y0069225D01*
X0180580Y0069348D01*
X0178769Y0069348D01*
X0178769Y0065186D01*
X0182143Y0065186D01*
X0178769Y0065186D01*
X0178769Y0065186D01*
X0178768Y0065186D01*
X0178768Y0065186D01*
X0175394Y0065186D01*
X0175394Y0067785D01*
X0175516Y0068243D01*
X0175753Y0068653D01*
X0176088Y0068988D01*
X0176499Y0069225D01*
X0176957Y0069348D01*
X0178768Y0069348D01*
X0178768Y0065186D01*
X0175394Y0065186D01*
X0175394Y0062587D01*
X0175516Y0062129D01*
X0175753Y0061718D01*
X0176088Y0061383D01*
X0176499Y0061146D01*
X0176957Y0061024D01*
X0178768Y0061024D01*
X0178768Y0065186D01*
X0178769Y0065186D01*
X0178769Y0061024D01*
X0180580Y0061024D01*
X0181038Y0061146D01*
X0181449Y0061383D01*
X0181784Y0061718D01*
X0182143Y0063283D02*
X0192654Y0063283D01*
X0192654Y0064882D02*
X0182143Y0064882D01*
X0182143Y0066480D02*
X0192654Y0066480D01*
X0193069Y0068079D02*
X0182065Y0068079D01*
X0181996Y0069677D02*
X0177597Y0069677D01*
X0178768Y0068079D02*
X0178769Y0068079D01*
X0178768Y0066480D02*
X0178769Y0066480D01*
X0178768Y0064882D02*
X0178769Y0064882D01*
X0178768Y0063283D02*
X0178769Y0063283D01*
X0178768Y0061685D02*
X0178769Y0061685D01*
X0175787Y0061685D02*
X0174526Y0061685D01*
X0174844Y0063283D02*
X0175394Y0063283D01*
X0175394Y0064882D02*
X0174844Y0064882D01*
X0174844Y0066480D02*
X0175394Y0066480D01*
X0175472Y0068079D02*
X0174844Y0068079D01*
X0167098Y0064882D02*
X0151359Y0064882D01*
X0150828Y0063283D02*
X0156141Y0063283D01*
X0158483Y0063283D02*
X0167732Y0063283D01*
X0168050Y0061685D02*
X0160771Y0061685D01*
X0153852Y0061685D02*
X0150828Y0061685D01*
X0150828Y0060086D02*
X0153165Y0060086D01*
X0153165Y0058488D02*
X0150828Y0058488D01*
X0150828Y0056889D02*
X0153839Y0056889D01*
X0156108Y0055291D02*
X0150828Y0055291D01*
X0152958Y0066480D02*
X0165242Y0066480D01*
X0163387Y0068079D02*
X0154556Y0068079D01*
X0156155Y0069677D02*
X0161532Y0069677D01*
X0159676Y0071276D02*
X0157753Y0071276D01*
X0149067Y0077670D02*
X0109440Y0077670D01*
X0103608Y0077670D02*
X0079895Y0077670D01*
X0078297Y0076072D02*
X0099437Y0076072D01*
X0097838Y0074473D02*
X0076698Y0074473D01*
X0073406Y0079568D02*
X0055935Y0079568D01*
X0054845Y0079117D01*
X0054011Y0078283D01*
X0048020Y0072292D01*
X0050849Y0077926D01*
X0055317Y0083787D01*
X0060793Y0088719D01*
X0067088Y0092553D01*
X0073982Y0095155D01*
X0077581Y0095965D01*
X0077581Y0095965D01*
X0078894Y0096197D01*
X0081031Y0097789D01*
X0081031Y0097789D01*
X0082228Y0100171D01*
X0082228Y0100805D01*
X0082228Y0106412D01*
X0100250Y0106412D01*
X0073406Y0079568D01*
X0074705Y0080867D02*
X0053091Y0080867D01*
X0051872Y0079269D02*
X0055210Y0079269D01*
X0053398Y0077670D02*
X0050720Y0077670D01*
X0049917Y0076072D02*
X0051799Y0076072D01*
X0050201Y0074473D02*
X0049115Y0074473D01*
X0048602Y0072874D02*
X0048312Y0072874D01*
X0053792Y0069677D02*
X0055906Y0069677D01*
X0055906Y0068079D02*
X0052194Y0068079D01*
X0055391Y0071276D02*
X0057317Y0071276D01*
X0056989Y0072874D02*
X0096240Y0072874D01*
X0094641Y0071276D02*
X0061637Y0071276D01*
X0059563Y0071276D02*
X0059391Y0071276D01*
X0059391Y0069677D02*
X0059563Y0069677D01*
X0059563Y0068079D02*
X0059391Y0068079D01*
X0059391Y0064882D02*
X0059563Y0064882D01*
X0059563Y0063283D02*
X0059391Y0063283D01*
X0063049Y0068079D02*
X0093323Y0068079D01*
X0093471Y0069677D02*
X0063049Y0069677D01*
X0076603Y0061685D02*
X0076603Y0061685D01*
X0076603Y0060086D02*
X0076603Y0060086D01*
X0072835Y0058488D02*
X0071353Y0058488D01*
X0067761Y0053692D02*
X0053949Y0053692D01*
X0081494Y0079269D02*
X0149622Y0079269D01*
X0149622Y0080867D02*
X0083092Y0080867D01*
X0084691Y0082466D02*
X0137230Y0082466D01*
X0136827Y0084064D02*
X0122379Y0084064D01*
X0121235Y0082920D02*
X0124223Y0085908D01*
X0124223Y0087935D01*
X0119209Y0087935D01*
X0119209Y0088106D01*
X0124223Y0088106D01*
X0124223Y0090133D01*
X0122526Y0091829D01*
X0124404Y0093707D01*
X0124404Y0098082D01*
X0121310Y0101176D01*
X0116935Y0101176D01*
X0113842Y0098082D01*
X0113842Y0093707D01*
X0115719Y0091829D01*
X0114023Y0090133D01*
X0114023Y0088106D01*
X0119037Y0088106D01*
X0119037Y0087935D01*
X0114023Y0087935D01*
X0114023Y0085908D01*
X0117010Y0082920D01*
X0119037Y0082920D01*
X0119037Y0087935D01*
X0119209Y0087935D01*
X0119209Y0082920D01*
X0121235Y0082920D01*
X0119209Y0084064D02*
X0119037Y0084064D01*
X0119037Y0085663D02*
X0119209Y0085663D01*
X0119209Y0087261D02*
X0119037Y0087261D01*
X0114023Y0087261D02*
X0089486Y0087261D01*
X0087888Y0085663D02*
X0114268Y0085663D01*
X0115867Y0084064D02*
X0086289Y0084064D01*
X0079500Y0085663D02*
X0057400Y0085663D01*
X0059175Y0087261D02*
X0081099Y0087261D01*
X0082697Y0088860D02*
X0061024Y0088860D01*
X0063649Y0090458D02*
X0084296Y0090458D01*
X0085894Y0092057D02*
X0066273Y0092057D01*
X0070008Y0093655D02*
X0087493Y0093655D01*
X0089092Y0095254D02*
X0074420Y0095254D01*
X0078894Y0096197D02*
X0078894Y0096197D01*
X0079774Y0096852D02*
X0090690Y0096852D01*
X0092289Y0098451D02*
X0081364Y0098451D01*
X0081031Y0097789D02*
X0081031Y0097789D01*
X0082166Y0100049D02*
X0093887Y0100049D01*
X0095486Y0101648D02*
X0082228Y0101648D01*
X0082228Y0100805D02*
X0082228Y0100805D01*
X0082228Y0103246D02*
X0097084Y0103246D01*
X0098683Y0104845D02*
X0082228Y0104845D01*
X0095880Y0093655D02*
X0113894Y0093655D01*
X0113842Y0095254D02*
X0097479Y0095254D01*
X0099077Y0096852D02*
X0113842Y0096852D01*
X0114210Y0098451D02*
X0100676Y0098451D01*
X0102274Y0100049D02*
X0115809Y0100049D01*
X0122437Y0100049D02*
X0141131Y0100049D01*
X0139533Y0098451D02*
X0124035Y0098451D01*
X0124404Y0096852D02*
X0138126Y0096852D01*
X0137811Y0095254D02*
X0124404Y0095254D01*
X0124352Y0093655D02*
X0137310Y0093655D01*
X0136827Y0092057D02*
X0122754Y0092057D01*
X0123898Y0090458D02*
X0136827Y0090458D01*
X0136827Y0088860D02*
X0124223Y0088860D01*
X0124223Y0087261D02*
X0136827Y0087261D01*
X0136827Y0085663D02*
X0123977Y0085663D01*
X0114023Y0088860D02*
X0091085Y0088860D01*
X0092683Y0090458D02*
X0114348Y0090458D01*
X0115492Y0092057D02*
X0094282Y0092057D01*
X0103873Y0101648D02*
X0163386Y0101648D01*
X0163386Y0100049D02*
X0159713Y0100049D01*
X0161311Y0098451D02*
X0163677Y0098451D01*
X0163205Y0096852D02*
X0162246Y0096852D01*
X0162246Y0095254D02*
X0162714Y0095254D01*
X0167154Y0101013D02*
X0167154Y0101013D01*
X0170923Y0101013D01*
X0170923Y0102824D01*
X0170831Y0103165D01*
X0336398Y0103165D01*
X0373441Y0066123D01*
X0373441Y0062790D01*
X0374601Y0061630D01*
X0379786Y0061630D01*
X0380946Y0062790D01*
X0380946Y0070337D01*
X0379786Y0071498D01*
X0376453Y0071498D01*
X0341539Y0106412D01*
X0354443Y0106412D01*
X0354443Y0100171D01*
X0355639Y0097789D01*
X0357777Y0096197D01*
X0359090Y0095965D01*
X0362688Y0095155D01*
X0369583Y0092553D01*
X0375877Y0088719D01*
X0381353Y0083787D01*
X0385822Y0077926D01*
X0389050Y0071498D01*
X0387594Y0071498D01*
X0386433Y0070337D01*
X0386433Y0063855D01*
X0382461Y0059883D01*
X0369170Y0059883D01*
X0366912Y0062141D01*
X0366078Y0062975D01*
X0364988Y0063427D01*
X0363447Y0063427D01*
X0362857Y0064017D01*
X0357279Y0064017D01*
X0357082Y0063820D01*
X0347516Y0063820D01*
X0339411Y0071926D01*
X0339411Y0078740D01*
X0341170Y0078740D01*
X0341170Y0082509D01*
X0341170Y0086277D01*
X0339358Y0086277D01*
X0338900Y0086154D01*
X0338556Y0085956D01*
X0338054Y0086458D01*
X0337443Y0086458D01*
X0337443Y0089004D01*
X0336991Y0090094D01*
X0336157Y0090928D01*
X0334385Y0092700D01*
X0333444Y0093090D01*
X0333054Y0094031D01*
X0332220Y0094865D01*
X0326314Y0100771D01*
X0325224Y0101222D01*
X0288612Y0101222D01*
X0287522Y0100771D01*
X0286688Y0099936D01*
X0283026Y0096275D01*
X0283505Y0097432D01*
X0283505Y0099081D01*
X0282874Y0100605D01*
X0281708Y0101772D01*
X0280184Y0102403D01*
X0278534Y0102403D01*
X0277010Y0101772D01*
X0275844Y0100605D01*
X0275213Y0099081D01*
X0275213Y0098304D01*
X0265034Y0088125D01*
X0264583Y0087036D01*
X0264583Y0080919D01*
X0264042Y0081143D01*
X0262393Y0081143D01*
X0262246Y0081082D01*
X0262246Y0090973D01*
X0261794Y0092062D01*
X0260960Y0092897D01*
X0253133Y0100724D01*
X0252299Y0101558D01*
X0251209Y0102009D01*
X0217352Y0102009D01*
X0216262Y0101558D01*
X0215428Y0100724D01*
X0208052Y0093348D01*
X0207274Y0093348D01*
X0205750Y0092717D01*
X0204584Y0091550D01*
X0203953Y0090026D01*
X0203953Y0088377D01*
X0204584Y0086853D01*
X0205750Y0085686D01*
X0207274Y0085055D01*
X0208924Y0085055D01*
X0210448Y0085686D01*
X0211614Y0086853D01*
X0212246Y0088377D01*
X0212246Y0089154D01*
X0219170Y0096079D01*
X0241565Y0096079D01*
X0241305Y0095819D01*
X0241068Y0095408D01*
X0240945Y0094950D01*
X0240945Y0093139D01*
X0244713Y0093139D01*
X0244713Y0093139D01*
X0240945Y0093139D01*
X0240945Y0091327D01*
X0241068Y0090869D01*
X0241266Y0090525D01*
X0240764Y0090022D01*
X0240764Y0085231D01*
X0241748Y0084247D01*
X0241748Y0079515D01*
X0240986Y0080278D01*
X0240986Y0083098D01*
X0240534Y0084188D01*
X0239700Y0085023D01*
X0235763Y0088960D01*
X0234673Y0089411D01*
X0227588Y0089411D01*
X0226498Y0088960D01*
X0225664Y0088125D01*
X0223013Y0085474D01*
X0219266Y0085474D01*
X0218716Y0086024D01*
X0217192Y0086655D01*
X0215542Y0086655D01*
X0214018Y0086024D01*
X0212852Y0084857D01*
X0212220Y0083333D01*
X0212220Y0081684D01*
X0212852Y0080160D01*
X0214018Y0078993D01*
X0215542Y0078362D01*
X0217192Y0078362D01*
X0218716Y0078993D01*
X0219266Y0079543D01*
X0224831Y0079543D01*
X0225921Y0079995D01*
X0227953Y0082027D01*
X0227953Y0080540D01*
X0227953Y0078728D01*
X0228075Y0078271D01*
X0228274Y0077926D01*
X0227772Y0077424D01*
X0227772Y0073329D01*
X0224786Y0076314D01*
X0223952Y0077149D01*
X0222862Y0077600D01*
X0213658Y0077600D01*
X0199647Y0091611D01*
X0199647Y0095358D01*
X0200197Y0095908D01*
X0200828Y0097432D01*
X0200828Y0099081D01*
X0200197Y0100605D01*
X0199031Y0101772D01*
X0197507Y0102403D01*
X0195857Y0102403D01*
X0194333Y0101772D01*
X0193783Y0101222D01*
X0192155Y0101222D01*
X0191065Y0100771D01*
X0190231Y0099936D01*
X0187049Y0096754D01*
X0187049Y0097113D01*
X0186418Y0098637D01*
X0185251Y0099803D01*
X0183727Y0100435D01*
X0182078Y0100435D01*
X0180554Y0099803D01*
X0180004Y0099254D01*
X0170923Y0099254D01*
X0170923Y0101013D01*
X0167154Y0101013D01*
X0170923Y0101648D02*
X0194209Y0101648D01*
X0190344Y0100049D02*
X0184658Y0100049D01*
X0186495Y0098451D02*
X0188745Y0098451D01*
X0187147Y0096852D02*
X0187049Y0096852D01*
X0181147Y0100049D02*
X0170923Y0100049D01*
X0199155Y0101648D02*
X0216479Y0101648D01*
X0214753Y0100049D02*
X0200427Y0100049D01*
X0200828Y0098451D02*
X0213155Y0098451D01*
X0211556Y0096852D02*
X0200588Y0096852D01*
X0199647Y0095254D02*
X0209958Y0095254D01*
X0208359Y0093655D02*
X0199647Y0093655D01*
X0199647Y0092057D02*
X0205090Y0092057D01*
X0204132Y0090458D02*
X0200800Y0090458D01*
X0202399Y0088860D02*
X0203953Y0088860D01*
X0203997Y0087261D02*
X0204415Y0087261D01*
X0205596Y0085663D02*
X0205808Y0085663D01*
X0207194Y0084064D02*
X0212523Y0084064D01*
X0212220Y0082466D02*
X0208793Y0082466D01*
X0210391Y0080867D02*
X0212559Y0080867D01*
X0211990Y0079269D02*
X0213743Y0079269D01*
X0213588Y0077670D02*
X0228018Y0077670D01*
X0227953Y0079269D02*
X0218991Y0079269D01*
X0226793Y0080867D02*
X0227953Y0080867D01*
X0227953Y0080540D02*
X0231721Y0080540D01*
X0227953Y0080540D01*
X0231721Y0080540D02*
X0231721Y0080540D01*
X0227772Y0076072D02*
X0225029Y0076072D01*
X0226628Y0074473D02*
X0227772Y0074473D01*
X0220344Y0071276D02*
X0216327Y0071276D01*
X0217364Y0069677D02*
X0219307Y0069677D01*
X0219307Y0068079D02*
X0217364Y0068079D01*
X0217364Y0066480D02*
X0219307Y0066480D01*
X0219307Y0064882D02*
X0217364Y0064882D01*
X0216774Y0063283D02*
X0219897Y0063283D01*
X0223942Y0061685D02*
X0213825Y0061685D01*
X0215424Y0060086D02*
X0224565Y0060086D01*
X0225469Y0058488D02*
X0217022Y0058488D01*
X0210234Y0056889D02*
X0209806Y0056889D01*
X0209806Y0055291D02*
X0211832Y0055291D01*
X0213431Y0053692D02*
X0208315Y0053692D01*
X0205619Y0053692D02*
X0205619Y0053692D01*
X0205619Y0052731D02*
X0205619Y0056918D01*
X0201431Y0056918D01*
X0201431Y0055184D01*
X0203884Y0052731D01*
X0205619Y0052731D01*
X0205619Y0055291D02*
X0205619Y0055291D01*
X0205619Y0056889D02*
X0205619Y0056889D01*
X0205619Y0056918D02*
X0205619Y0056918D01*
X0205619Y0056918D01*
X0201431Y0056918D01*
X0201431Y0058653D01*
X0203884Y0061105D01*
X0205619Y0061105D01*
X0205619Y0056918D01*
X0205619Y0058488D02*
X0205619Y0058488D01*
X0205619Y0060086D02*
X0205619Y0060086D01*
X0205438Y0061685D02*
X0198584Y0061685D01*
X0198584Y0063283D02*
X0203839Y0063283D01*
X0203664Y0063459D02*
X0203664Y0063459D01*
X0202586Y0064882D02*
X0198584Y0064882D01*
X0199808Y0066480D02*
X0202378Y0066480D01*
X0209030Y0066480D02*
X0210843Y0066480D01*
X0210843Y0064882D02*
X0210628Y0064882D01*
X0210843Y0068079D02*
X0208899Y0068079D01*
X0208899Y0069677D02*
X0210843Y0069677D01*
X0211880Y0071276D02*
X0208899Y0071276D01*
X0208899Y0072874D02*
X0209996Y0072874D01*
X0208398Y0074473D02*
X0207913Y0074473D01*
X0206799Y0076072D02*
X0192970Y0076072D01*
X0192970Y0077670D02*
X0205201Y0077670D01*
X0203602Y0079269D02*
X0199306Y0079269D01*
X0200490Y0080867D02*
X0202004Y0080867D01*
X0202401Y0074473D02*
X0202774Y0074473D01*
X0197262Y0074473D02*
X0192885Y0074473D01*
X0189202Y0074473D02*
X0189202Y0074473D01*
X0189202Y0073228D02*
X0189202Y0076603D01*
X0189202Y0076603D01*
X0189202Y0073228D01*
X0189017Y0072874D02*
X0196276Y0072874D01*
X0196216Y0071276D02*
X0188783Y0071276D01*
X0187746Y0069677D02*
X0194618Y0069677D01*
X0193939Y0068999D02*
X0193939Y0068999D01*
X0189202Y0076072D02*
X0189202Y0076072D01*
X0192700Y0079269D02*
X0194058Y0079269D01*
X0210391Y0085663D02*
X0213657Y0085663D01*
X0211784Y0087261D02*
X0224800Y0087261D01*
X0226398Y0088860D02*
X0212246Y0088860D01*
X0213549Y0090458D02*
X0241200Y0090458D01*
X0240945Y0092057D02*
X0215148Y0092057D01*
X0216746Y0093655D02*
X0240945Y0093655D01*
X0241026Y0095254D02*
X0218345Y0095254D01*
X0219077Y0085663D02*
X0223201Y0085663D01*
X0235863Y0088860D02*
X0240764Y0088860D01*
X0240764Y0087261D02*
X0237462Y0087261D01*
X0239060Y0085663D02*
X0240764Y0085663D01*
X0240586Y0084064D02*
X0241748Y0084064D01*
X0241748Y0082466D02*
X0240986Y0082466D01*
X0240986Y0080867D02*
X0241748Y0080867D01*
X0247679Y0080867D02*
X0256315Y0080867D01*
X0256315Y0079269D02*
X0254999Y0079269D01*
X0255315Y0078952D02*
X0254149Y0080118D01*
X0252625Y0080750D01*
X0250975Y0080750D01*
X0249451Y0080118D01*
X0248285Y0078952D01*
X0248166Y0078665D01*
X0247679Y0079152D01*
X0247679Y0084247D01*
X0248663Y0085231D01*
X0248663Y0090022D01*
X0248160Y0090525D01*
X0248359Y0090869D01*
X0248482Y0091327D01*
X0248482Y0093139D01*
X0248482Y0094950D01*
X0248359Y0095408D01*
X0248122Y0095819D01*
X0247862Y0096079D01*
X0249391Y0096079D01*
X0256315Y0089154D01*
X0256315Y0077551D01*
X0255895Y0077551D01*
X0255315Y0078952D01*
X0255846Y0077670D02*
X0256315Y0077670D01*
X0256315Y0082466D02*
X0247679Y0082466D01*
X0247679Y0084064D02*
X0256315Y0084064D01*
X0256315Y0085663D02*
X0248663Y0085663D01*
X0248663Y0087261D02*
X0256315Y0087261D01*
X0256315Y0088860D02*
X0248663Y0088860D01*
X0248227Y0090458D02*
X0255011Y0090458D01*
X0253413Y0092057D02*
X0248482Y0092057D01*
X0248482Y0093139D02*
X0244714Y0093139D01*
X0248482Y0093139D01*
X0248482Y0093655D02*
X0251814Y0093655D01*
X0250216Y0095254D02*
X0248401Y0095254D01*
X0244714Y0093139D02*
X0244714Y0093139D01*
X0253807Y0100049D02*
X0275613Y0100049D01*
X0275213Y0098451D02*
X0255406Y0098451D01*
X0257004Y0096852D02*
X0273761Y0096852D01*
X0272162Y0095254D02*
X0258603Y0095254D01*
X0260201Y0093655D02*
X0270564Y0093655D01*
X0268965Y0092057D02*
X0261797Y0092057D01*
X0262246Y0090458D02*
X0267367Y0090458D01*
X0265768Y0088860D02*
X0262246Y0088860D01*
X0262246Y0087261D02*
X0264676Y0087261D01*
X0264583Y0085663D02*
X0262246Y0085663D01*
X0262246Y0084064D02*
X0264583Y0084064D01*
X0264583Y0082466D02*
X0262246Y0082466D01*
X0274450Y0082466D02*
X0300787Y0082466D01*
X0300787Y0082509D02*
X0300787Y0080303D01*
X0300910Y0079845D01*
X0301147Y0079435D01*
X0301482Y0079100D01*
X0301893Y0078863D01*
X0302350Y0078740D01*
X0304162Y0078740D01*
X0304162Y0082509D01*
X0304162Y0086277D01*
X0302350Y0086277D01*
X0301893Y0086154D01*
X0301482Y0085918D01*
X0301147Y0085582D01*
X0300910Y0085172D01*
X0300787Y0084714D01*
X0300787Y0082509D01*
X0304162Y0082509D01*
X0304162Y0082509D01*
X0304162Y0082509D01*
X0304162Y0086277D01*
X0305974Y0086277D01*
X0306432Y0086154D01*
X0306776Y0085956D01*
X0307266Y0086446D01*
X0306776Y0086936D01*
X0306432Y0086737D01*
X0305974Y0086614D01*
X0304162Y0086614D01*
X0304162Y0090383D01*
X0304162Y0094151D01*
X0302350Y0094151D01*
X0301893Y0094029D01*
X0301482Y0093792D01*
X0301147Y0093456D01*
X0300910Y0093046D01*
X0300787Y0092588D01*
X0300787Y0090383D01*
X0304162Y0090383D01*
X0304162Y0090383D01*
X0304162Y0090383D01*
X0304162Y0094151D01*
X0305974Y0094151D01*
X0306432Y0094029D01*
X0306776Y0093830D01*
X0307279Y0094332D01*
X0312069Y0094332D01*
X0313054Y0093348D01*
X0317547Y0093348D01*
X0318023Y0093151D01*
X0319550Y0093151D01*
X0320710Y0091991D01*
X0320710Y0088381D01*
X0319550Y0087220D01*
X0314759Y0087220D01*
X0314562Y0087417D01*
X0313054Y0087417D01*
X0312082Y0086446D01*
X0313054Y0085474D01*
X0314562Y0085474D01*
X0314759Y0085671D01*
X0319550Y0085671D01*
X0320710Y0084510D01*
X0320710Y0080901D01*
X0319550Y0079740D01*
X0318023Y0079740D01*
X0317547Y0079543D01*
X0313054Y0079543D01*
X0312639Y0079129D01*
X0312639Y0076801D01*
X0312188Y0075711D01*
X0306715Y0070238D01*
X0305881Y0069404D01*
X0304791Y0068953D01*
X0296872Y0068953D01*
X0295822Y0067902D01*
X0294081Y0067181D01*
X0292196Y0067181D01*
X0290455Y0067902D01*
X0289123Y0069235D01*
X0288402Y0070976D01*
X0288402Y0072860D01*
X0289123Y0074601D01*
X0290455Y0075934D01*
X0292196Y0076655D01*
X0294081Y0076655D01*
X0295822Y0075934D01*
X0296872Y0074883D01*
X0302973Y0074883D01*
X0306709Y0078619D01*
X0306709Y0079023D01*
X0306432Y0078863D01*
X0305974Y0078740D01*
X0304162Y0078740D01*
X0304162Y0082509D01*
X0300787Y0082509D01*
X0300787Y0084064D02*
X0296186Y0084064D01*
X0296102Y0083980D02*
X0297573Y0085451D01*
X0298369Y0087374D01*
X0298369Y0089455D01*
X0297573Y0091377D01*
X0296102Y0092849D01*
X0294179Y0093645D01*
X0292098Y0093645D01*
X0290176Y0092849D01*
X0288704Y0091377D01*
X0287908Y0089455D01*
X0287908Y0087374D01*
X0288704Y0085451D01*
X0290176Y0083980D01*
X0292098Y0083183D01*
X0294179Y0083183D01*
X0296102Y0083980D01*
X0297661Y0085663D02*
X0301227Y0085663D01*
X0301893Y0086737D02*
X0301482Y0086974D01*
X0301147Y0087309D01*
X0300910Y0087719D01*
X0300787Y0088177D01*
X0300787Y0090383D01*
X0304162Y0090383D01*
X0304162Y0090383D01*
X0304162Y0086614D01*
X0302350Y0086614D01*
X0301893Y0086737D01*
X0301195Y0087261D02*
X0298323Y0087261D01*
X0298369Y0088860D02*
X0300787Y0088860D01*
X0300787Y0090458D02*
X0297954Y0090458D01*
X0296893Y0092057D02*
X0300787Y0092057D01*
X0301346Y0093655D02*
X0288794Y0093655D01*
X0289384Y0092057D02*
X0287195Y0092057D01*
X0288324Y0090458D02*
X0285597Y0090458D01*
X0287908Y0088860D02*
X0280061Y0088860D01*
X0278463Y0087261D02*
X0287955Y0087261D01*
X0288617Y0085663D02*
X0276864Y0085663D01*
X0275266Y0084064D02*
X0290091Y0084064D01*
X0300787Y0080867D02*
X0274450Y0080867D01*
X0274450Y0079269D02*
X0301313Y0079269D01*
X0304162Y0079269D02*
X0304162Y0079269D01*
X0304162Y0080867D02*
X0304162Y0080867D01*
X0304162Y0082466D02*
X0304162Y0082466D01*
X0304162Y0082509D02*
X0304162Y0082509D01*
X0304162Y0084064D02*
X0304162Y0084064D01*
X0304162Y0085663D02*
X0304162Y0085663D01*
X0304162Y0087261D02*
X0304162Y0087261D01*
X0304162Y0088860D02*
X0304162Y0088860D01*
X0304162Y0090458D02*
X0304162Y0090458D01*
X0304162Y0092057D02*
X0304162Y0092057D01*
X0304162Y0093655D02*
X0304162Y0093655D01*
X0312747Y0093655D02*
X0325043Y0093655D01*
X0324688Y0092057D02*
X0320644Y0092057D01*
X0320710Y0090458D02*
X0324622Y0090458D01*
X0324622Y0088860D02*
X0320710Y0088860D01*
X0319590Y0087261D02*
X0324803Y0087261D01*
X0324803Y0085663D02*
X0319558Y0085663D01*
X0320710Y0084064D02*
X0324622Y0084064D01*
X0324622Y0082466D02*
X0320710Y0082466D01*
X0320677Y0080867D02*
X0324656Y0080867D01*
X0332553Y0079269D02*
X0312779Y0079269D01*
X0312639Y0077670D02*
X0333480Y0077670D01*
X0333480Y0076072D02*
X0312337Y0076072D01*
X0310950Y0074473D02*
X0333480Y0074473D01*
X0333480Y0072874D02*
X0309352Y0072874D01*
X0307753Y0071276D02*
X0333480Y0071276D01*
X0333659Y0069677D02*
X0306155Y0069677D01*
X0304161Y0076072D02*
X0295490Y0076072D01*
X0290787Y0076072D02*
X0274450Y0076072D01*
X0274450Y0077670D02*
X0305760Y0077670D01*
X0312865Y0085663D02*
X0314751Y0085663D01*
X0314718Y0087261D02*
X0312897Y0087261D01*
X0323444Y0095254D02*
X0290392Y0095254D01*
X0286800Y0100049D02*
X0283105Y0100049D01*
X0283505Y0098451D02*
X0285202Y0098451D01*
X0283603Y0096852D02*
X0283265Y0096852D01*
X0281832Y0101648D02*
X0337916Y0101648D01*
X0339515Y0100049D02*
X0327036Y0100049D01*
X0328634Y0098451D02*
X0341113Y0098451D01*
X0342712Y0096852D02*
X0330233Y0096852D01*
X0331831Y0095254D02*
X0344310Y0095254D01*
X0345909Y0093655D02*
X0333210Y0093655D01*
X0335028Y0092057D02*
X0347507Y0092057D01*
X0349106Y0090458D02*
X0336627Y0090458D01*
X0337443Y0088860D02*
X0350704Y0088860D01*
X0352303Y0087261D02*
X0337443Y0087261D01*
X0341170Y0086277D02*
X0341170Y0082509D01*
X0341170Y0082509D01*
X0344545Y0082509D01*
X0344545Y0084714D01*
X0344422Y0085172D01*
X0344185Y0085582D01*
X0343850Y0085918D01*
X0343440Y0086154D01*
X0342982Y0086277D01*
X0341170Y0086277D01*
X0341170Y0085663D02*
X0341170Y0085663D01*
X0341170Y0084064D02*
X0341170Y0084064D01*
X0341170Y0082509D02*
X0341170Y0082509D01*
X0344545Y0082509D01*
X0344545Y0080303D01*
X0344422Y0079845D01*
X0344185Y0079435D01*
X0343850Y0079100D01*
X0343440Y0078863D01*
X0342982Y0078740D01*
X0341170Y0078740D01*
X0341170Y0082509D01*
X0341170Y0082509D01*
X0341170Y0082466D02*
X0341170Y0082466D01*
X0341170Y0080867D02*
X0341170Y0080867D01*
X0341170Y0079269D02*
X0341170Y0079269D01*
X0339411Y0077670D02*
X0361894Y0077670D01*
X0363492Y0076072D02*
X0339411Y0076072D01*
X0339411Y0074473D02*
X0365091Y0074473D01*
X0366689Y0072874D02*
X0339411Y0072874D01*
X0340061Y0071276D02*
X0368288Y0071276D01*
X0369886Y0069677D02*
X0341659Y0069677D01*
X0343258Y0068079D02*
X0371485Y0068079D01*
X0373083Y0066480D02*
X0344856Y0066480D01*
X0346455Y0064882D02*
X0373441Y0064882D01*
X0373441Y0063283D02*
X0365334Y0063283D01*
X0367369Y0061685D02*
X0374546Y0061685D01*
X0379841Y0061685D02*
X0384263Y0061685D01*
X0385861Y0063283D02*
X0380946Y0063283D01*
X0380946Y0064882D02*
X0386433Y0064882D01*
X0386433Y0066480D02*
X0380946Y0066480D01*
X0380946Y0068079D02*
X0386433Y0068079D01*
X0386433Y0069677D02*
X0380946Y0069677D01*
X0380008Y0071276D02*
X0387372Y0071276D01*
X0388359Y0072874D02*
X0375077Y0072874D01*
X0373478Y0074473D02*
X0387556Y0074473D01*
X0386753Y0076072D02*
X0371880Y0076072D01*
X0370281Y0077670D02*
X0385951Y0077670D01*
X0384799Y0079269D02*
X0368683Y0079269D01*
X0367084Y0080867D02*
X0383580Y0080867D01*
X0382361Y0082466D02*
X0365486Y0082466D01*
X0363887Y0084064D02*
X0381046Y0084064D01*
X0379271Y0085663D02*
X0362289Y0085663D01*
X0360690Y0087261D02*
X0377496Y0087261D01*
X0375647Y0088860D02*
X0359092Y0088860D01*
X0357493Y0090458D02*
X0373022Y0090458D01*
X0370398Y0092057D02*
X0355894Y0092057D01*
X0354296Y0093655D02*
X0366662Y0093655D01*
X0362251Y0095254D02*
X0352697Y0095254D01*
X0351099Y0096852D02*
X0356897Y0096852D01*
X0357777Y0096197D02*
X0357777Y0096197D01*
X0359090Y0095965D02*
X0359090Y0095965D01*
X0355639Y0097789D02*
X0355639Y0097789D01*
X0355307Y0098451D02*
X0349500Y0098451D01*
X0347902Y0100049D02*
X0354504Y0100049D01*
X0354443Y0101648D02*
X0346303Y0101648D01*
X0344705Y0103246D02*
X0354443Y0103246D01*
X0354443Y0104845D02*
X0343106Y0104845D01*
X0344105Y0085663D02*
X0353901Y0085663D01*
X0355500Y0084064D02*
X0344545Y0084064D01*
X0344545Y0082466D02*
X0357098Y0082466D01*
X0358697Y0080867D02*
X0344545Y0080867D01*
X0344019Y0079269D02*
X0360295Y0079269D01*
X0336469Y0066480D02*
X0288624Y0066480D01*
X0288764Y0064882D02*
X0289661Y0064882D01*
X0290279Y0068079D02*
X0288140Y0068079D01*
X0287391Y0069677D02*
X0288939Y0069677D01*
X0288402Y0071276D02*
X0286613Y0071276D01*
X0288407Y0072874D02*
X0284123Y0072874D01*
X0282469Y0072874D02*
X0274450Y0072874D01*
X0274450Y0071276D02*
X0279979Y0071276D01*
X0279201Y0069677D02*
X0274450Y0069677D01*
X0275264Y0068079D02*
X0279150Y0068079D01*
X0279739Y0066480D02*
X0275631Y0066480D01*
X0275358Y0064882D02*
X0277041Y0064882D01*
X0276591Y0063283D02*
X0274265Y0063283D01*
X0275602Y0061685D02*
X0272029Y0061685D01*
X0272109Y0060086D02*
X0274054Y0060086D01*
X0273638Y0058488D02*
X0270670Y0058488D01*
X0270194Y0058012D02*
X0269208Y0058997D01*
X0269208Y0058997D01*
X0270194Y0058012D01*
X0269717Y0058488D02*
X0269717Y0058488D01*
X0269385Y0056889D02*
X0273638Y0056889D01*
X0273538Y0055291D02*
X0270984Y0055291D01*
X0281437Y0048897D02*
X0285055Y0048897D01*
X0285055Y0050495D02*
X0284491Y0050495D01*
X0285055Y0047298D02*
X0279838Y0047298D01*
X0281087Y0045700D02*
X0285364Y0045700D01*
X0286762Y0044101D02*
X0282104Y0044101D01*
X0282324Y0042503D02*
X0288360Y0042503D01*
X0288431Y0040904D02*
X0281904Y0040904D01*
X0280603Y0039306D02*
X0289093Y0039306D01*
X0290926Y0037707D02*
X0285367Y0037707D01*
X0285883Y0036109D02*
X0314825Y0036109D01*
X0314701Y0036409D02*
X0315452Y0034596D01*
X0316840Y0033208D01*
X0318653Y0032457D01*
X0320616Y0032457D01*
X0322429Y0033208D01*
X0323817Y0034596D01*
X0324568Y0036409D01*
X0324568Y0038372D01*
X0323817Y0040185D01*
X0322429Y0041573D01*
X0320616Y0042324D01*
X0318653Y0042324D01*
X0316840Y0041573D01*
X0315452Y0040185D01*
X0314701Y0038372D01*
X0314701Y0036409D01*
X0314701Y0037707D02*
X0295351Y0037707D01*
X0297184Y0039306D02*
X0315088Y0039306D01*
X0316171Y0040904D02*
X0297846Y0040904D01*
X0297876Y0042503D02*
X0343323Y0042503D01*
X0343323Y0044101D02*
X0297362Y0044101D01*
X0296056Y0045700D02*
X0343323Y0045700D01*
X0343323Y0047298D02*
X0294364Y0047298D01*
X0296816Y0048897D02*
X0343323Y0048897D01*
X0343323Y0050495D02*
X0297677Y0050495D01*
X0297876Y0052094D02*
X0314739Y0052094D01*
X0313798Y0052484D02*
X0315720Y0051687D01*
X0317801Y0051687D01*
X0319724Y0052484D01*
X0321195Y0053955D01*
X0321991Y0055878D01*
X0321991Y0057959D01*
X0321195Y0059881D01*
X0319724Y0061352D01*
X0317801Y0062149D01*
X0315720Y0062149D01*
X0313798Y0061352D01*
X0312326Y0059881D01*
X0311530Y0057959D01*
X0311530Y0055878D01*
X0312326Y0053955D01*
X0313798Y0052484D01*
X0312589Y0053692D02*
X0297531Y0053692D01*
X0296465Y0055291D02*
X0311773Y0055291D01*
X0311530Y0056889D02*
X0290986Y0056889D01*
X0293323Y0057362D02*
X0293497Y0057362D01*
X0294205Y0057474D01*
X0294887Y0057696D01*
X0295526Y0058022D01*
X0296107Y0058443D01*
X0296614Y0058950D01*
X0297035Y0059530D01*
X0297361Y0060169D01*
X0297582Y0060851D01*
X0297694Y0061560D01*
X0297694Y0061734D01*
X0293323Y0061734D01*
X0293323Y0057362D01*
X0293323Y0058488D02*
X0292954Y0058488D01*
X0292954Y0060086D02*
X0293323Y0060086D01*
X0293323Y0061685D02*
X0292954Y0061685D01*
X0292954Y0063283D02*
X0293323Y0063283D01*
X0293323Y0064882D02*
X0292954Y0064882D01*
X0296617Y0064882D02*
X0338068Y0064882D01*
X0339666Y0063283D02*
X0297485Y0063283D01*
X0297694Y0061685D02*
X0314600Y0061685D01*
X0312532Y0060086D02*
X0297318Y0060086D01*
X0296151Y0058488D02*
X0311749Y0058488D01*
X0318921Y0061685D02*
X0341265Y0061685D01*
X0342863Y0060086D02*
X0320990Y0060086D01*
X0321772Y0058488D02*
X0343323Y0058488D01*
X0343323Y0056889D02*
X0321991Y0056889D01*
X0321748Y0055291D02*
X0343323Y0055291D01*
X0343323Y0053692D02*
X0320932Y0053692D01*
X0318782Y0052094D02*
X0343323Y0052094D01*
X0349254Y0052094D02*
X0356835Y0052094D01*
X0356994Y0051934D02*
X0357404Y0051697D01*
X0357862Y0051575D01*
X0360068Y0051575D01*
X0362273Y0051575D01*
X0362731Y0051697D01*
X0363141Y0051934D01*
X0363477Y0052270D01*
X0363714Y0052680D01*
X0363836Y0053138D01*
X0363836Y0054950D01*
X0360068Y0054950D01*
X0360068Y0054950D01*
X0360068Y0054950D01*
X0360068Y0054949D02*
X0360068Y0051575D01*
X0360068Y0054949D01*
X0360068Y0054949D01*
X0360068Y0054950D02*
X0356299Y0054950D01*
X0356299Y0053138D01*
X0356422Y0052680D01*
X0356659Y0052270D01*
X0356994Y0051934D01*
X0356299Y0053692D02*
X0349254Y0053692D01*
X0349254Y0055291D02*
X0356299Y0055291D01*
X0356334Y0056889D02*
X0349254Y0056889D01*
X0349254Y0050495D02*
X0373631Y0050495D01*
X0373622Y0050462D02*
X0373622Y0047358D01*
X0377108Y0047358D01*
X0377108Y0047187D01*
X0373622Y0047187D01*
X0373622Y0044083D01*
X0373745Y0043625D01*
X0373982Y0043214D01*
X0374317Y0042879D01*
X0374727Y0042642D01*
X0375185Y0042520D01*
X0377108Y0042520D01*
X0377108Y0047187D01*
X0377280Y0047187D01*
X0377280Y0047358D01*
X0380765Y0047358D01*
X0380765Y0050462D01*
X0380643Y0050920D01*
X0380406Y0051330D01*
X0380071Y0051666D01*
X0379660Y0051903D01*
X0379202Y0052025D01*
X0377280Y0052025D01*
X0377280Y0047358D01*
X0377108Y0047358D01*
X0377108Y0052025D01*
X0375185Y0052025D01*
X0374727Y0051903D01*
X0374317Y0051666D01*
X0373982Y0051330D01*
X0373745Y0050920D01*
X0373622Y0050462D01*
X0373622Y0048897D02*
X0349254Y0048897D01*
X0349254Y0047298D02*
X0377108Y0047298D01*
X0377280Y0047298D02*
X0386433Y0047298D01*
X0386433Y0048897D02*
X0380765Y0048897D01*
X0380756Y0050495D02*
X0386433Y0050495D01*
X0387481Y0052094D02*
X0363301Y0052094D01*
X0363836Y0053692D02*
X0391544Y0053692D01*
X0391693Y0055291D02*
X0386256Y0055291D01*
X0387855Y0056889D02*
X0391842Y0056889D01*
X0391698Y0058488D02*
X0389453Y0058488D01*
X0391052Y0060086D02*
X0391549Y0060086D01*
X0382664Y0060086D02*
X0368967Y0060086D01*
X0365375Y0055291D02*
X0363836Y0055291D01*
X0360068Y0053692D02*
X0360068Y0053692D01*
X0360068Y0052094D02*
X0360068Y0052094D01*
X0349254Y0045700D02*
X0373622Y0045700D01*
X0373622Y0044101D02*
X0349254Y0044101D01*
X0349254Y0042503D02*
X0382797Y0042503D01*
X0381199Y0040904D02*
X0379756Y0040904D01*
X0379202Y0042520D02*
X0379660Y0042642D01*
X0380071Y0042879D01*
X0380406Y0043214D01*
X0380643Y0043625D01*
X0380765Y0044083D01*
X0380765Y0047187D01*
X0377280Y0047187D01*
X0377280Y0042520D01*
X0379202Y0042520D01*
X0380765Y0044101D02*
X0384396Y0044101D01*
X0385994Y0045700D02*
X0380765Y0045700D01*
X0377280Y0045700D02*
X0377108Y0045700D01*
X0377108Y0044101D02*
X0377280Y0044101D01*
X0375812Y0040904D02*
X0349254Y0040904D01*
X0349254Y0039306D02*
X0374155Y0039306D01*
X0373638Y0037707D02*
X0349254Y0037707D01*
X0349254Y0036109D02*
X0373762Y0036109D01*
X0374643Y0034510D02*
X0349254Y0034510D01*
X0349029Y0032912D02*
X0383536Y0032912D01*
X0382897Y0034510D02*
X0384755Y0034510D01*
X0384791Y0036109D02*
X0385922Y0036109D01*
X0386389Y0037707D02*
X0386725Y0037707D01*
X0382317Y0031313D02*
X0347751Y0031313D01*
X0346152Y0029715D02*
X0380982Y0029715D01*
X0379207Y0028116D02*
X0344554Y0028116D01*
X0342955Y0026518D02*
X0377432Y0026518D01*
X0375552Y0024919D02*
X0341357Y0024919D01*
X0339758Y0023321D02*
X0372928Y0023321D01*
X0370303Y0021722D02*
X0338160Y0021722D01*
X0336561Y0020124D02*
X0366510Y0020124D01*
X0361996Y0018525D02*
X0334963Y0018525D01*
X0334568Y0016927D02*
X0356820Y0016927D01*
X0357777Y0017639D02*
X0357777Y0017639D01*
X0355639Y0016047D02*
X0355639Y0016047D01*
X0355639Y0016047D01*
X0355278Y0015328D02*
X0334121Y0015328D01*
X0332951Y0013730D02*
X0354476Y0013730D01*
X0354443Y0013031D02*
X0354443Y0013031D01*
X0354443Y0012131D02*
X0283521Y0012131D01*
X0283157Y0010533D02*
X0354443Y0010533D01*
X0354443Y0008934D02*
X0246294Y0008934D01*
X0247628Y0010533D02*
X0257693Y0010533D01*
X0257693Y0012131D02*
X0248072Y0012131D01*
X0247876Y0013730D02*
X0248573Y0013730D01*
X0247281Y0015328D02*
X0246892Y0015328D01*
X0240960Y0015328D02*
X0238813Y0015328D01*
X0239976Y0013730D02*
X0237215Y0013730D01*
X0235616Y0012131D02*
X0239780Y0012131D01*
X0240224Y0010533D02*
X0234018Y0010533D01*
X0232144Y0008934D02*
X0241558Y0008934D01*
X0232024Y0016927D02*
X0226419Y0016927D01*
X0226419Y0016330D02*
X0226419Y0017979D01*
X0225788Y0019503D01*
X0225212Y0020079D01*
X0225816Y0020079D01*
X0227628Y0020079D01*
X0228085Y0020201D01*
X0228430Y0020400D01*
X0228932Y0019898D01*
X0233723Y0019898D01*
X0234883Y0021058D01*
X0234883Y0026636D01*
X0234687Y0026833D01*
X0234687Y0032456D01*
X0236015Y0031906D01*
X0237664Y0031906D01*
X0238992Y0032456D01*
X0238992Y0024450D01*
X0238770Y0024450D01*
X0237246Y0023819D01*
X0236080Y0022653D01*
X0235449Y0021129D01*
X0235449Y0020351D01*
X0229706Y0014608D01*
X0225590Y0014608D01*
X0225788Y0014806D01*
X0226419Y0016330D01*
X0226004Y0015328D02*
X0230426Y0015328D01*
X0233623Y0018525D02*
X0226193Y0018525D01*
X0225816Y0020079D02*
X0225816Y0023847D01*
X0225816Y0023847D01*
X0225816Y0020079D01*
X0225816Y0020124D02*
X0225816Y0020124D01*
X0225816Y0021722D02*
X0225816Y0021722D01*
X0225816Y0023321D02*
X0225816Y0023321D01*
X0225816Y0023847D02*
X0222441Y0023847D01*
X0225816Y0023847D01*
X0225816Y0023847D01*
X0222441Y0023321D02*
X0195120Y0023321D01*
X0195120Y0024919D02*
X0222441Y0024919D01*
X0222568Y0026518D02*
X0195120Y0026518D01*
X0194939Y0028116D02*
X0215186Y0028116D01*
X0217548Y0028116D02*
X0218351Y0028116D01*
X0212903Y0029715D02*
X0194939Y0029715D01*
X0194939Y0031313D02*
X0212220Y0031313D01*
X0212220Y0032912D02*
X0193995Y0032912D01*
X0191170Y0032912D02*
X0191170Y0032912D01*
X0191170Y0031313D02*
X0191170Y0031313D01*
X0188345Y0032912D02*
X0187049Y0032912D01*
X0187049Y0034510D02*
X0212045Y0034510D01*
X0210702Y0036109D02*
X0187049Y0036109D01*
X0187049Y0037707D02*
X0210252Y0037707D01*
X0210443Y0039306D02*
X0186924Y0039306D01*
X0185787Y0040904D02*
X0211418Y0040904D01*
X0211937Y0042503D02*
X0184188Y0042503D01*
X0198571Y0053692D02*
X0202923Y0053692D01*
X0201431Y0055291D02*
X0199987Y0055291D01*
X0199987Y0056889D02*
X0201431Y0056889D01*
X0201431Y0058488D02*
X0199987Y0058488D01*
X0198629Y0060086D02*
X0202865Y0060086D01*
X0212488Y0052094D02*
X0215513Y0052094D01*
X0216832Y0050495D02*
X0220095Y0050495D01*
X0220183Y0050583D02*
X0219848Y0050248D01*
X0219611Y0049837D01*
X0219488Y0049379D01*
X0219488Y0046780D01*
X0222568Y0046780D01*
X0222568Y0046780D01*
X0222568Y0046780D01*
X0222568Y0050943D01*
X0221051Y0050943D01*
X0220593Y0050820D01*
X0220183Y0050583D01*
X0219488Y0048897D02*
X0217364Y0048897D01*
X0217364Y0047298D02*
X0219488Y0047298D01*
X0219488Y0045700D02*
X0217364Y0045700D01*
X0217364Y0044101D02*
X0219510Y0044101D01*
X0222568Y0047298D02*
X0222568Y0047298D01*
X0222568Y0048897D02*
X0222568Y0048897D01*
X0222568Y0050495D02*
X0222568Y0050495D01*
X0225040Y0050495D02*
X0225472Y0050495D01*
X0225647Y0045700D02*
X0226839Y0045700D01*
X0226438Y0044101D02*
X0225626Y0044101D01*
X0234687Y0031313D02*
X0238992Y0031313D01*
X0238992Y0029715D02*
X0234687Y0029715D01*
X0234687Y0028116D02*
X0238992Y0028116D01*
X0238992Y0026518D02*
X0234883Y0026518D01*
X0234883Y0024919D02*
X0238992Y0024919D01*
X0236748Y0023321D02*
X0234883Y0023321D01*
X0234883Y0021722D02*
X0235695Y0021722D01*
X0235221Y0020124D02*
X0233949Y0020124D01*
X0228706Y0020124D02*
X0227795Y0020124D01*
X0222441Y0021722D02*
X0220596Y0021722D01*
X0250041Y0033737D02*
X0250041Y0037046D01*
X0251530Y0038535D01*
X0251851Y0039311D01*
X0254460Y0036702D01*
X0253797Y0036039D01*
X0253165Y0034515D01*
X0253165Y0032865D01*
X0253797Y0031341D01*
X0254963Y0030175D01*
X0256487Y0029543D01*
X0258137Y0029543D01*
X0259661Y0030175D01*
X0260827Y0031341D01*
X0261039Y0031854D01*
X0261039Y0030503D01*
X0261671Y0028979D01*
X0262837Y0027812D01*
X0264361Y0027181D01*
X0266011Y0027181D01*
X0267535Y0027812D01*
X0268701Y0028979D01*
X0269332Y0030503D01*
X0269332Y0032152D01*
X0269151Y0032589D01*
X0270488Y0031252D01*
X0270488Y0025162D01*
X0270147Y0025254D01*
X0267732Y0025254D01*
X0267732Y0021669D01*
X0267364Y0021669D01*
X0267364Y0025254D01*
X0264949Y0025254D01*
X0264491Y0025131D01*
X0264081Y0024894D01*
X0263745Y0024559D01*
X0263508Y0024148D01*
X0263386Y0023691D01*
X0263386Y0021710D01*
X0261643Y0021710D01*
X0261643Y0018336D01*
X0261642Y0018336D01*
X0261642Y0021710D01*
X0260453Y0021710D01*
X0260671Y0022235D01*
X0260671Y0023885D01*
X0260040Y0025409D01*
X0258873Y0026575D01*
X0257349Y0027206D01*
X0256572Y0027206D01*
X0250041Y0033737D01*
X0250041Y0034510D02*
X0253165Y0034510D01*
X0253165Y0032912D02*
X0250866Y0032912D01*
X0252465Y0031313D02*
X0253824Y0031313D01*
X0254063Y0029715D02*
X0256073Y0029715D01*
X0255662Y0028116D02*
X0262533Y0028116D01*
X0261366Y0029715D02*
X0258550Y0029715D01*
X0260799Y0031313D02*
X0261039Y0031313D01*
X0258931Y0026518D02*
X0270488Y0026518D01*
X0270488Y0028116D02*
X0267838Y0028116D01*
X0269006Y0029715D02*
X0270488Y0029715D01*
X0270427Y0031313D02*
X0269332Y0031313D01*
X0267732Y0024919D02*
X0267364Y0024919D01*
X0267364Y0023321D02*
X0267732Y0023321D01*
X0267732Y0021722D02*
X0267364Y0021722D01*
X0267364Y0021301D02*
X0267732Y0021301D01*
X0267732Y0017717D01*
X0269428Y0017717D01*
X0269273Y0017561D01*
X0265411Y0017561D01*
X0265411Y0017717D01*
X0267364Y0017717D01*
X0267364Y0021301D01*
X0267364Y0020124D02*
X0267732Y0020124D01*
X0267732Y0018525D02*
X0267364Y0018525D01*
X0263386Y0021722D02*
X0260458Y0021722D01*
X0260671Y0023321D02*
X0263386Y0023321D01*
X0264124Y0024919D02*
X0260242Y0024919D01*
X0261642Y0020124D02*
X0261643Y0020124D01*
X0261642Y0018525D02*
X0261643Y0018525D01*
X0261642Y0018335D02*
X0261642Y0018335D01*
X0257874Y0018335D01*
X0261642Y0018335D01*
X0257874Y0018525D02*
X0254933Y0018525D01*
X0255159Y0016927D02*
X0257874Y0016927D01*
X0257802Y0015328D02*
X0254744Y0015328D01*
X0253452Y0013730D02*
X0257693Y0013730D01*
X0271602Y0010533D02*
X0275561Y0010533D01*
X0275556Y0010537D02*
X0275892Y0010202D01*
X0276302Y0009965D01*
X0276760Y0009843D01*
X0279175Y0009843D01*
X0279175Y0013427D01*
X0275197Y0013427D01*
X0275197Y0011406D01*
X0275320Y0010948D01*
X0275556Y0010537D01*
X0275197Y0012131D02*
X0272230Y0012131D01*
X0273829Y0013730D02*
X0279175Y0013730D01*
X0279543Y0013730D02*
X0316318Y0013730D01*
X0316840Y0013208D02*
X0318653Y0012457D01*
X0320616Y0012457D01*
X0322429Y0013208D01*
X0323817Y0014596D01*
X0324568Y0016409D01*
X0324568Y0018372D01*
X0323817Y0020185D01*
X0322429Y0021573D01*
X0320616Y0022324D01*
X0318653Y0022324D01*
X0317187Y0021717D01*
X0306340Y0030913D01*
X0306340Y0031365D01*
X0305709Y0032889D01*
X0304542Y0034055D01*
X0303018Y0034687D01*
X0301369Y0034687D01*
X0299845Y0034055D01*
X0298679Y0032889D01*
X0298047Y0031365D01*
X0298047Y0029715D01*
X0298679Y0028191D01*
X0299845Y0027025D01*
X0301369Y0026394D01*
X0302499Y0026394D01*
X0314930Y0015856D01*
X0315452Y0014596D01*
X0316840Y0013208D01*
X0315149Y0015328D02*
X0283521Y0015328D01*
X0283521Y0015816D02*
X0283521Y0013795D01*
X0279543Y0013795D01*
X0279543Y0017380D01*
X0281958Y0017380D01*
X0282416Y0017257D01*
X0282826Y0017020D01*
X0283162Y0016685D01*
X0283399Y0016274D01*
X0283521Y0015816D01*
X0282920Y0016927D02*
X0313667Y0016927D01*
X0311781Y0018525D02*
X0283532Y0018525D01*
X0283702Y0020124D02*
X0309896Y0020124D01*
X0308010Y0021722D02*
X0296836Y0021722D01*
X0296102Y0020988D02*
X0297573Y0022459D01*
X0298369Y0024382D01*
X0298369Y0026462D01*
X0297573Y0028385D01*
X0296102Y0029856D01*
X0294179Y0030653D01*
X0292098Y0030653D01*
X0290176Y0029856D01*
X0288704Y0028385D01*
X0287908Y0026462D01*
X0287908Y0024382D01*
X0288704Y0022459D01*
X0290176Y0020988D01*
X0292098Y0020191D01*
X0294179Y0020191D01*
X0296102Y0020988D01*
X0297930Y0023321D02*
X0306124Y0023321D01*
X0304239Y0024919D02*
X0298369Y0024919D01*
X0298346Y0026518D02*
X0301070Y0026518D01*
X0298754Y0028116D02*
X0297684Y0028116D01*
X0298048Y0029715D02*
X0296243Y0029715D01*
X0298047Y0031313D02*
X0285434Y0031313D01*
X0285883Y0032912D02*
X0298701Y0032912D01*
X0300943Y0034510D02*
X0285883Y0034510D01*
X0282509Y0034510D02*
X0282509Y0034510D01*
X0282509Y0032912D02*
X0282509Y0032912D01*
X0282509Y0031313D02*
X0282509Y0031313D01*
X0282324Y0029715D02*
X0290034Y0029715D01*
X0288593Y0028116D02*
X0282324Y0028116D01*
X0282324Y0026518D02*
X0287931Y0026518D01*
X0287908Y0024919D02*
X0283057Y0024919D01*
X0283702Y0023321D02*
X0288347Y0023321D01*
X0289441Y0021722D02*
X0283702Y0021722D01*
X0279543Y0016927D02*
X0279175Y0016927D01*
X0279175Y0015328D02*
X0279543Y0015328D01*
X0279543Y0012131D02*
X0279175Y0012131D01*
X0279175Y0010533D02*
X0279543Y0010533D01*
X0309639Y0028116D02*
X0314701Y0028116D01*
X0314701Y0028372D02*
X0314701Y0026409D01*
X0315452Y0024596D01*
X0316840Y0023208D01*
X0318653Y0022457D01*
X0320616Y0022457D01*
X0322429Y0023208D01*
X0323817Y0024596D01*
X0324568Y0026409D01*
X0324568Y0028372D01*
X0323817Y0030185D01*
X0322429Y0031573D01*
X0320616Y0032324D01*
X0318653Y0032324D01*
X0316840Y0031573D01*
X0315452Y0030185D01*
X0314701Y0028372D01*
X0315257Y0029715D02*
X0307753Y0029715D01*
X0306340Y0031313D02*
X0316580Y0031313D01*
X0317555Y0032912D02*
X0305686Y0032912D01*
X0303444Y0034510D02*
X0315537Y0034510D01*
X0321715Y0032912D02*
X0328039Y0032912D01*
X0327810Y0032986D02*
X0328522Y0032755D01*
X0329261Y0032638D01*
X0329450Y0032638D01*
X0329450Y0037206D01*
X0324882Y0037206D01*
X0324882Y0037016D01*
X0324999Y0036278D01*
X0325230Y0035566D01*
X0325570Y0034900D01*
X0326009Y0034294D01*
X0326538Y0033765D01*
X0327144Y0033326D01*
X0327810Y0032986D01*
X0329450Y0032912D02*
X0329819Y0032912D01*
X0329819Y0032638D02*
X0330009Y0032638D01*
X0330748Y0032755D01*
X0331459Y0032986D01*
X0332126Y0033326D01*
X0332731Y0033765D01*
X0333260Y0034294D01*
X0333700Y0034900D01*
X0334039Y0035566D01*
X0334270Y0036278D01*
X0334387Y0037016D01*
X0334387Y0037206D01*
X0329819Y0037206D01*
X0329819Y0032638D01*
X0331230Y0032912D02*
X0340962Y0032912D01*
X0342561Y0034510D02*
X0333417Y0034510D01*
X0334215Y0036109D02*
X0343323Y0036109D01*
X0343323Y0037707D02*
X0334387Y0037707D01*
X0334387Y0037765D02*
X0334270Y0038503D01*
X0334039Y0039215D01*
X0333700Y0039882D01*
X0333260Y0040487D01*
X0332731Y0041016D01*
X0332126Y0041455D01*
X0331459Y0041795D01*
X0330748Y0042026D01*
X0330009Y0042143D01*
X0329819Y0042143D01*
X0329819Y0037575D01*
X0329450Y0037575D01*
X0329450Y0037206D01*
X0329819Y0037206D01*
X0329819Y0037575D01*
X0334387Y0037575D01*
X0334387Y0037765D01*
X0333993Y0039306D02*
X0343323Y0039306D01*
X0343323Y0040904D02*
X0332842Y0040904D01*
X0329819Y0040904D02*
X0329450Y0040904D01*
X0329450Y0042143D02*
X0329261Y0042143D01*
X0328522Y0042026D01*
X0327810Y0041795D01*
X0327144Y0041455D01*
X0326538Y0041016D01*
X0326009Y0040487D01*
X0325570Y0039882D01*
X0325230Y0039215D01*
X0324999Y0038503D01*
X0324882Y0037765D01*
X0324882Y0037575D01*
X0329450Y0037575D01*
X0329450Y0042143D01*
X0329450Y0039306D02*
X0329819Y0039306D01*
X0329819Y0037707D02*
X0329450Y0037707D01*
X0329450Y0036109D02*
X0329819Y0036109D01*
X0329819Y0034510D02*
X0329450Y0034510D01*
X0325853Y0034510D02*
X0323732Y0034510D01*
X0324444Y0036109D02*
X0325054Y0036109D01*
X0324882Y0037707D02*
X0324568Y0037707D01*
X0324182Y0039306D02*
X0325276Y0039306D01*
X0326427Y0040904D02*
X0323098Y0040904D01*
X0322690Y0031313D02*
X0326580Y0031313D01*
X0325257Y0029715D02*
X0324012Y0029715D01*
X0324568Y0028116D02*
X0324701Y0028116D01*
X0324701Y0026518D02*
X0324568Y0026518D01*
X0323951Y0024919D02*
X0325318Y0024919D01*
X0326727Y0023321D02*
X0322542Y0023321D01*
X0322070Y0021722D02*
X0327199Y0021722D01*
X0325426Y0020124D02*
X0323843Y0020124D01*
X0324505Y0018525D02*
X0324764Y0018525D01*
X0324701Y0016927D02*
X0324568Y0016927D01*
X0324121Y0015328D02*
X0325149Y0015328D01*
X0326318Y0013730D02*
X0322951Y0013730D01*
X0317199Y0021722D02*
X0317182Y0021722D01*
X0316727Y0023321D02*
X0315296Y0023321D01*
X0315318Y0024919D02*
X0313410Y0024919D01*
X0314701Y0026518D02*
X0311525Y0026518D01*
X0332690Y0031313D02*
X0339364Y0031313D01*
X0337765Y0029715D02*
X0334012Y0029715D01*
X0334568Y0028116D02*
X0336167Y0028116D01*
X0377108Y0048897D02*
X0377280Y0048897D01*
X0377280Y0050495D02*
X0377108Y0050495D01*
X0334871Y0068079D02*
X0295999Y0068079D01*
X0289070Y0074473D02*
X0274450Y0074473D01*
X0248601Y0079269D02*
X0247679Y0079269D01*
X0252082Y0101648D02*
X0276886Y0101648D01*
X0275753Y0039306D02*
X0275485Y0039306D01*
X0282509Y0037707D02*
X0282509Y0037707D01*
X0282509Y0036109D02*
X0282509Y0036109D01*
X0253867Y0036109D02*
X0250041Y0036109D01*
X0250702Y0037707D02*
X0253455Y0037707D01*
X0251856Y0039306D02*
X0251849Y0039306D01*
X0187402Y0031313D02*
X0187049Y0031313D01*
X0187049Y0029715D02*
X0187402Y0029715D01*
X0187402Y0028116D02*
X0187049Y0028116D01*
X0187049Y0026518D02*
X0187220Y0026518D01*
X0187220Y0024919D02*
X0187049Y0024919D01*
X0187049Y0023321D02*
X0187220Y0023321D01*
X0127044Y0064882D02*
X0099254Y0064882D01*
X0099254Y0066480D02*
X0102873Y0066480D01*
X0102756Y0068079D02*
X0099832Y0068079D01*
X0101430Y0069677D02*
X0102756Y0069677D01*
X0106524Y0068079D02*
X0106524Y0068079D01*
X0106524Y0066480D02*
X0106524Y0066480D01*
X0110176Y0066480D02*
X0126035Y0066480D01*
X0126000Y0068079D02*
X0110293Y0068079D01*
X0110293Y0069677D02*
X0126000Y0069677D01*
X0077902Y0084064D02*
X0055625Y0084064D01*
X0054310Y0082466D02*
X0076303Y0082466D01*
D26*
X0074635Y0076603D02*
X0104162Y0106131D01*
X0337627Y0106131D01*
X0377194Y0066564D01*
X0383690Y0056918D02*
X0390186Y0063414D01*
X0390186Y0066564D01*
X0383690Y0056918D02*
X0367942Y0056918D01*
X0364398Y0060461D01*
X0360068Y0060461D01*
X0359674Y0060855D01*
X0346288Y0060855D01*
X0336446Y0070698D01*
X0336446Y0081721D01*
X0335658Y0082509D01*
X0335461Y0082706D01*
X0332706Y0082706D01*
X0328178Y0082706D01*
X0332706Y0082706D02*
X0334477Y0084477D01*
X0334477Y0088414D01*
X0332706Y0090186D01*
X0330540Y0090186D01*
X0330540Y0092351D01*
X0324635Y0098257D01*
X0289202Y0098257D01*
X0283296Y0092351D01*
X0279359Y0092351D01*
X0271485Y0084477D01*
X0271485Y0066367D01*
X0271485Y0065468D01*
X0267111Y0061094D01*
X0268503Y0059702D02*
X0265719Y0056918D01*
X0257706Y0056918D01*
X0251800Y0056918D02*
X0250619Y0056918D01*
X0249438Y0055737D01*
X0247835Y0055737D01*
X0247455Y0055357D01*
X0245894Y0056918D01*
X0240664Y0056918D01*
X0236489Y0061094D01*
X0237881Y0062486D02*
X0231721Y0068645D01*
X0231721Y0075028D01*
X0226209Y0070698D02*
X0222272Y0074635D01*
X0212430Y0074635D01*
X0196682Y0090383D01*
X0196682Y0098257D01*
X0192745Y0098257D01*
X0184871Y0090383D01*
X0171091Y0090383D01*
X0165186Y0084477D01*
X0159280Y0084477D01*
X0158493Y0085265D01*
X0152587Y0085265D01*
X0152587Y0076997D01*
X0149831Y0074241D01*
X0128965Y0074241D01*
X0128965Y0067154D01*
X0161485Y0034635D01*
X0176603Y0034635D01*
X0182115Y0040383D02*
X0184083Y0038414D01*
X0184083Y0019123D01*
X0179202Y0019123D01*
X0176603Y0021721D01*
X0166918Y0021721D01*
X0153375Y0035265D01*
X0159674Y0040383D02*
X0182115Y0040383D01*
X0169812Y0046780D02*
X0209674Y0046780D01*
X0209674Y0049044D01*
X0209674Y0046780D02*
X0214103Y0046780D01*
X0215973Y0039595D02*
X0214398Y0038020D01*
X0215973Y0039595D02*
X0219123Y0039595D01*
X0224635Y0039595D02*
X0226126Y0039595D01*
X0237881Y0051350D01*
X0239273Y0049958D02*
X0228178Y0038864D01*
X0228178Y0033296D01*
X0226997Y0032115D01*
X0226997Y0031328D01*
X0221485Y0031328D02*
X0218729Y0032115D01*
X0216367Y0032115D01*
X0231328Y0023847D02*
X0231721Y0024241D01*
X0231721Y0036839D01*
X0242056Y0047175D01*
X0240664Y0048566D02*
X0247455Y0055357D01*
X0251800Y0051013D02*
X0252138Y0051013D01*
X0258760Y0044391D01*
X0260152Y0045783D02*
X0273454Y0032481D01*
X0273454Y0017548D01*
X0269517Y0013611D01*
X0267548Y0013611D01*
X0266761Y0012824D01*
X0261643Y0012824D01*
X0251013Y0017154D02*
X0247469Y0020698D01*
X0247469Y0022666D01*
X0244320Y0025816D01*
X0244320Y0038302D01*
X0247624Y0041607D01*
X0246232Y0042999D02*
X0241957Y0038724D01*
X0241957Y0025028D01*
X0244320Y0022666D01*
X0244320Y0017942D01*
X0243926Y0017548D01*
X0243926Y0012430D01*
X0239595Y0020304D02*
X0230934Y0011643D01*
X0218335Y0011643D01*
X0216367Y0013611D01*
X0163217Y0013611D01*
X0161249Y0015580D01*
X0139595Y0015580D01*
X0159674Y0040383D02*
X0147863Y0052194D01*
X0147863Y0065580D01*
X0158493Y0076209D01*
X0171288Y0065186D01*
X0183690Y0073847D02*
X0184871Y0072666D01*
X0183690Y0073847D02*
X0175028Y0073847D01*
X0178965Y0080146D02*
X0170304Y0080146D01*
X0178965Y0080146D02*
X0181328Y0082509D01*
X0188808Y0082509D01*
X0189202Y0082115D01*
X0188808Y0082509D02*
X0196682Y0082509D01*
X0208099Y0089202D02*
X0217942Y0099044D01*
X0250619Y0099044D01*
X0259280Y0090383D01*
X0259280Y0072750D01*
X0257368Y0070838D01*
X0258760Y0069446D02*
X0263217Y0073903D01*
X0263217Y0076997D01*
X0267548Y0069882D02*
X0267548Y0086446D01*
X0279359Y0098257D01*
X0309674Y0090383D02*
X0316957Y0090383D01*
X0317154Y0090186D01*
X0317154Y0082706D02*
X0316957Y0082509D01*
X0309674Y0082509D01*
X0309674Y0077391D01*
X0304202Y0071918D01*
X0293139Y0071918D01*
X0285658Y0066367D02*
X0283296Y0068729D01*
X0284477Y0067548D01*
X0285658Y0066367D02*
X0285658Y0061643D01*
X0288020Y0058099D01*
X0288020Y0047036D01*
X0293139Y0041918D01*
X0302194Y0030540D02*
X0317706Y0017391D01*
X0319635Y0017391D01*
X0329635Y0017391D02*
X0346288Y0034044D01*
X0346288Y0060855D01*
X0377784Y0037233D02*
X0381721Y0037233D01*
X0390186Y0045698D01*
X0390186Y0047272D01*
X0330540Y0090186D02*
X0328178Y0090186D01*
X0280146Y0061643D02*
X0278965Y0060855D01*
X0276603Y0058493D01*
X0276603Y0054162D01*
X0273454Y0051013D01*
X0268841Y0051013D01*
X0267111Y0052742D01*
X0265719Y0051350D02*
X0268026Y0049044D01*
X0268026Y0048960D01*
X0268335Y0048650D01*
X0276997Y0048650D01*
X0282509Y0054162D01*
X0271485Y0057312D02*
X0270893Y0057312D01*
X0268503Y0059702D01*
X0262936Y0065270D02*
X0267548Y0069882D01*
X0251800Y0068054D02*
X0251800Y0062824D01*
X0251800Y0068054D02*
X0247624Y0072229D01*
X0246232Y0070838D02*
X0238020Y0079049D01*
X0238020Y0082509D01*
X0234083Y0086446D01*
X0228178Y0086446D01*
X0224241Y0082509D01*
X0216367Y0082509D01*
X0226209Y0070698D02*
X0226209Y0063611D01*
X0228572Y0061249D01*
X0233156Y0061643D01*
X0235097Y0059702D01*
X0234281Y0054950D02*
X0235097Y0054134D01*
X0234281Y0054950D02*
X0216367Y0054950D01*
X0205343Y0065973D01*
X0205343Y0070698D01*
X0199831Y0070698D02*
X0195619Y0066485D01*
X0195619Y0056918D01*
X0169812Y0046780D02*
X0157312Y0059280D01*
X0128965Y0074241D02*
X0106524Y0074241D01*
X0101800Y0074241D01*
X0096288Y0068729D01*
X0096288Y0060855D01*
X0088808Y0053375D01*
X0076603Y0053375D01*
X0072272Y0053375D01*
X0068729Y0056918D01*
X0052981Y0056918D01*
X0046485Y0050422D01*
X0046485Y0047272D01*
X0046485Y0066564D02*
X0056524Y0076603D01*
X0074635Y0076603D01*
X0140776Y0085265D02*
X0146682Y0085265D01*
X0146682Y0090776D02*
X0152587Y0090776D01*
X0158493Y0090776D02*
X0162430Y0090776D01*
X0167154Y0095501D01*
X0167942Y0096288D01*
X0182902Y0096288D01*
X0159280Y0096288D02*
X0159280Y0091564D01*
X0158493Y0090776D01*
X0159280Y0096288D02*
X0157312Y0098257D01*
X0143532Y0098257D01*
X0140776Y0095501D01*
X0140776Y0090776D01*
X0229359Y0049044D02*
X0232790Y0049044D01*
X0236489Y0052742D01*
X0243448Y0045783D02*
X0236839Y0039174D01*
X0236839Y0036052D01*
X0247076Y0038274D02*
X0247076Y0032509D01*
X0256524Y0023060D01*
X0265186Y0031328D02*
X0265186Y0035181D01*
X0257368Y0042999D01*
X0255976Y0041607D02*
X0258099Y0039483D01*
X0258099Y0034477D01*
X0257312Y0033690D01*
X0249016Y0040215D02*
X0247076Y0038274D01*
X0242351Y0044685D02*
X0243448Y0045783D01*
X0261544Y0047175D02*
X0276997Y0031721D01*
X0278375Y0030343D01*
X0279359Y0029359D01*
X0279359Y0021485D01*
X0276997Y0031721D02*
X0276997Y0034477D01*
X0272272Y0041957D02*
X0271485Y0043139D01*
X0268363Y0043139D01*
X0262936Y0048566D01*
X0264327Y0049958D02*
X0268391Y0045894D01*
X0274635Y0045894D01*
X0278178Y0042745D01*
X0249016Y0073621D02*
X0251800Y0076405D01*
X0251800Y0076603D01*
X0249016Y0073621D02*
X0244713Y0077924D01*
X0244713Y0087627D01*
X0191170Y0024241D02*
X0191170Y0019123D01*
X0184083Y0019123D01*
X0191170Y0019123D02*
X0219123Y0019123D01*
X0222272Y0017154D01*
D27*
X0222272Y0017154D03*
X0239595Y0020304D03*
X0243926Y0012430D03*
X0251013Y0017154D03*
X0256524Y0023060D03*
X0265186Y0031328D03*
X0257312Y0033690D03*
X0272272Y0041957D03*
X0278178Y0042745D03*
X0282509Y0054162D03*
X0271485Y0066367D03*
X0283296Y0068729D03*
X0263217Y0076997D03*
X0251800Y0076603D03*
X0251800Y0062824D03*
X0245894Y0056918D03*
X0251800Y0051013D03*
X0257706Y0056918D03*
X0229359Y0049044D03*
X0214398Y0038020D03*
X0216367Y0032115D03*
X0199438Y0033690D03*
X0209674Y0049044D03*
X0190776Y0050619D03*
X0157312Y0059280D03*
X0154162Y0064792D03*
X0170304Y0080146D03*
X0184871Y0072666D03*
X0196682Y0082509D03*
X0208099Y0089202D03*
X0216367Y0082509D03*
X0196682Y0098257D03*
X0182902Y0096288D03*
X0228572Y0061249D03*
X0236839Y0036052D03*
X0302194Y0030540D03*
X0377784Y0037233D03*
X0279359Y0098257D03*
X0153375Y0035265D03*
X0139595Y0015580D03*
X0121485Y0020698D03*
X0076603Y0092351D03*
M02*
