G75*
%MOIN*%
%OFA0B0*%
%FSLAX24Y24*%
%IPPOS*%
%LPD*%
%AMOC8*
5,1,8,0,0,1.08239X$1,22.5*
%
%ADD10C,0.0000*%
D10*
X006423Y021635D02*
X006423Y027541D01*
X029652Y027541D01*
X029652Y021635D01*
X006423Y021635D01*
X008333Y022698D02*
X008335Y022723D01*
X008341Y022747D01*
X008350Y022769D01*
X008363Y022790D01*
X008379Y022809D01*
X008398Y022825D01*
X008419Y022838D01*
X008441Y022847D01*
X008465Y022853D01*
X008490Y022855D01*
X008515Y022853D01*
X008539Y022847D01*
X008561Y022838D01*
X008582Y022825D01*
X008601Y022809D01*
X008617Y022790D01*
X008630Y022769D01*
X008639Y022747D01*
X008645Y022723D01*
X008647Y022698D01*
X008645Y022673D01*
X008639Y022649D01*
X008630Y022627D01*
X008617Y022606D01*
X008601Y022587D01*
X008582Y022571D01*
X008561Y022558D01*
X008539Y022549D01*
X008515Y022543D01*
X008490Y022541D01*
X008465Y022543D01*
X008441Y022549D01*
X008419Y022558D01*
X008398Y022571D01*
X008379Y022587D01*
X008363Y022606D01*
X008350Y022627D01*
X008341Y022649D01*
X008335Y022673D01*
X008333Y022698D01*
X008373Y022698D02*
X008375Y022723D01*
X008381Y022747D01*
X008390Y022769D01*
X008403Y022790D01*
X008419Y022809D01*
X008438Y022825D01*
X008459Y022838D01*
X008481Y022847D01*
X008505Y022853D01*
X008530Y022855D01*
X008555Y022853D01*
X008579Y022847D01*
X008601Y022838D01*
X008622Y022825D01*
X008641Y022809D01*
X008657Y022790D01*
X008670Y022769D01*
X008679Y022747D01*
X008685Y022723D01*
X008687Y022698D01*
X008685Y022673D01*
X008679Y022649D01*
X008670Y022627D01*
X008657Y022606D01*
X008641Y022587D01*
X008622Y022571D01*
X008601Y022558D01*
X008579Y022549D01*
X008555Y022543D01*
X008530Y022541D01*
X008505Y022543D01*
X008481Y022549D01*
X008459Y022558D01*
X008438Y022571D01*
X008419Y022587D01*
X008403Y022606D01*
X008390Y022627D01*
X008381Y022649D01*
X008375Y022673D01*
X008373Y022698D01*
X008412Y022698D02*
X008414Y022723D01*
X008420Y022747D01*
X008429Y022769D01*
X008442Y022790D01*
X008458Y022809D01*
X008477Y022825D01*
X008498Y022838D01*
X008520Y022847D01*
X008544Y022853D01*
X008569Y022855D01*
X008594Y022853D01*
X008618Y022847D01*
X008640Y022838D01*
X008661Y022825D01*
X008680Y022809D01*
X008696Y022790D01*
X008709Y022769D01*
X008718Y022747D01*
X008724Y022723D01*
X008726Y022698D01*
X008724Y022673D01*
X008718Y022649D01*
X008709Y022627D01*
X008696Y022606D01*
X008680Y022587D01*
X008661Y022571D01*
X008640Y022558D01*
X008618Y022549D01*
X008594Y022543D01*
X008569Y022541D01*
X008544Y022543D01*
X008520Y022549D01*
X008498Y022558D01*
X008477Y022571D01*
X008458Y022587D01*
X008442Y022606D01*
X008429Y022627D01*
X008420Y022649D01*
X008414Y022673D01*
X008412Y022698D01*
X008451Y022698D02*
X008453Y022723D01*
X008459Y022747D01*
X008468Y022769D01*
X008481Y022790D01*
X008497Y022809D01*
X008516Y022825D01*
X008537Y022838D01*
X008559Y022847D01*
X008583Y022853D01*
X008608Y022855D01*
X008633Y022853D01*
X008657Y022847D01*
X008679Y022838D01*
X008700Y022825D01*
X008719Y022809D01*
X008735Y022790D01*
X008748Y022769D01*
X008757Y022747D01*
X008763Y022723D01*
X008765Y022698D01*
X008763Y022673D01*
X008757Y022649D01*
X008748Y022627D01*
X008735Y022606D01*
X008719Y022587D01*
X008700Y022571D01*
X008679Y022558D01*
X008657Y022549D01*
X008633Y022543D01*
X008608Y022541D01*
X008583Y022543D01*
X008559Y022549D01*
X008537Y022558D01*
X008516Y022571D01*
X008497Y022587D01*
X008481Y022606D01*
X008468Y022627D01*
X008459Y022649D01*
X008453Y022673D01*
X008451Y022698D01*
X008491Y022698D02*
X008493Y022723D01*
X008499Y022747D01*
X008508Y022769D01*
X008521Y022790D01*
X008537Y022809D01*
X008556Y022825D01*
X008577Y022838D01*
X008599Y022847D01*
X008623Y022853D01*
X008648Y022855D01*
X008673Y022853D01*
X008697Y022847D01*
X008719Y022838D01*
X008740Y022825D01*
X008759Y022809D01*
X008775Y022790D01*
X008788Y022769D01*
X008797Y022747D01*
X008803Y022723D01*
X008805Y022698D01*
X008803Y022673D01*
X008797Y022649D01*
X008788Y022627D01*
X008775Y022606D01*
X008759Y022587D01*
X008740Y022571D01*
X008719Y022558D01*
X008697Y022549D01*
X008673Y022543D01*
X008648Y022541D01*
X008623Y022543D01*
X008599Y022549D01*
X008577Y022558D01*
X008556Y022571D01*
X008537Y022587D01*
X008521Y022606D01*
X008508Y022627D01*
X008499Y022649D01*
X008493Y022673D01*
X008491Y022698D01*
X008530Y022698D02*
X008532Y022723D01*
X008538Y022747D01*
X008547Y022769D01*
X008560Y022790D01*
X008576Y022809D01*
X008595Y022825D01*
X008616Y022838D01*
X008638Y022847D01*
X008662Y022853D01*
X008687Y022855D01*
X008712Y022853D01*
X008736Y022847D01*
X008758Y022838D01*
X008779Y022825D01*
X008798Y022809D01*
X008814Y022790D01*
X008827Y022769D01*
X008836Y022747D01*
X008842Y022723D01*
X008844Y022698D01*
X008842Y022673D01*
X008836Y022649D01*
X008827Y022627D01*
X008814Y022606D01*
X008798Y022587D01*
X008779Y022571D01*
X008758Y022558D01*
X008736Y022549D01*
X008712Y022543D01*
X008687Y022541D01*
X008662Y022543D01*
X008638Y022549D01*
X008616Y022558D01*
X008595Y022571D01*
X008576Y022587D01*
X008560Y022606D01*
X008547Y022627D01*
X008538Y022649D01*
X008532Y022673D01*
X008530Y022698D01*
X008569Y022698D02*
X008571Y022723D01*
X008577Y022747D01*
X008586Y022769D01*
X008599Y022790D01*
X008615Y022809D01*
X008634Y022825D01*
X008655Y022838D01*
X008677Y022847D01*
X008701Y022853D01*
X008726Y022855D01*
X008751Y022853D01*
X008775Y022847D01*
X008797Y022838D01*
X008818Y022825D01*
X008837Y022809D01*
X008853Y022790D01*
X008866Y022769D01*
X008875Y022747D01*
X008881Y022723D01*
X008883Y022698D01*
X008881Y022673D01*
X008875Y022649D01*
X008866Y022627D01*
X008853Y022606D01*
X008837Y022587D01*
X008818Y022571D01*
X008797Y022558D01*
X008775Y022549D01*
X008751Y022543D01*
X008726Y022541D01*
X008701Y022543D01*
X008677Y022549D01*
X008655Y022558D01*
X008634Y022571D01*
X008615Y022587D01*
X008599Y022606D01*
X008586Y022627D01*
X008577Y022649D01*
X008571Y022673D01*
X008569Y022698D01*
X008609Y022698D02*
X008611Y022723D01*
X008617Y022747D01*
X008626Y022769D01*
X008639Y022790D01*
X008655Y022809D01*
X008674Y022825D01*
X008695Y022838D01*
X008717Y022847D01*
X008741Y022853D01*
X008766Y022855D01*
X008791Y022853D01*
X008815Y022847D01*
X008837Y022838D01*
X008858Y022825D01*
X008877Y022809D01*
X008893Y022790D01*
X008906Y022769D01*
X008915Y022747D01*
X008921Y022723D01*
X008923Y022698D01*
X008921Y022673D01*
X008915Y022649D01*
X008906Y022627D01*
X008893Y022606D01*
X008877Y022587D01*
X008858Y022571D01*
X008837Y022558D01*
X008815Y022549D01*
X008791Y022543D01*
X008766Y022541D01*
X008741Y022543D01*
X008717Y022549D01*
X008695Y022558D01*
X008674Y022571D01*
X008655Y022587D01*
X008639Y022606D01*
X008626Y022627D01*
X008617Y022649D01*
X008611Y022673D01*
X008609Y022698D01*
X008648Y022698D02*
X008650Y022723D01*
X008656Y022747D01*
X008665Y022769D01*
X008678Y022790D01*
X008694Y022809D01*
X008713Y022825D01*
X008734Y022838D01*
X008756Y022847D01*
X008780Y022853D01*
X008805Y022855D01*
X008830Y022853D01*
X008854Y022847D01*
X008876Y022838D01*
X008897Y022825D01*
X008916Y022809D01*
X008932Y022790D01*
X008945Y022769D01*
X008954Y022747D01*
X008960Y022723D01*
X008962Y022698D01*
X008960Y022673D01*
X008954Y022649D01*
X008945Y022627D01*
X008932Y022606D01*
X008916Y022587D01*
X008897Y022571D01*
X008876Y022558D01*
X008854Y022549D01*
X008830Y022543D01*
X008805Y022541D01*
X008780Y022543D01*
X008756Y022549D01*
X008734Y022558D01*
X008713Y022571D01*
X008694Y022587D01*
X008678Y022606D01*
X008665Y022627D01*
X008656Y022649D01*
X008650Y022673D01*
X008648Y022698D01*
X008688Y022698D02*
X008690Y022723D01*
X008696Y022747D01*
X008705Y022769D01*
X008718Y022790D01*
X008734Y022809D01*
X008753Y022825D01*
X008774Y022838D01*
X008796Y022847D01*
X008820Y022853D01*
X008845Y022855D01*
X008870Y022853D01*
X008894Y022847D01*
X008916Y022838D01*
X008937Y022825D01*
X008956Y022809D01*
X008972Y022790D01*
X008985Y022769D01*
X008994Y022747D01*
X009000Y022723D01*
X009002Y022698D01*
X009000Y022673D01*
X008994Y022649D01*
X008985Y022627D01*
X008972Y022606D01*
X008956Y022587D01*
X008937Y022571D01*
X008916Y022558D01*
X008894Y022549D01*
X008870Y022543D01*
X008845Y022541D01*
X008820Y022543D01*
X008796Y022549D01*
X008774Y022558D01*
X008753Y022571D01*
X008734Y022587D01*
X008718Y022606D01*
X008705Y022627D01*
X008696Y022649D01*
X008690Y022673D01*
X008688Y022698D01*
X008727Y022698D02*
X008729Y022723D01*
X008735Y022747D01*
X008744Y022769D01*
X008757Y022790D01*
X008773Y022809D01*
X008792Y022825D01*
X008813Y022838D01*
X008835Y022847D01*
X008859Y022853D01*
X008884Y022855D01*
X008909Y022853D01*
X008933Y022847D01*
X008955Y022838D01*
X008976Y022825D01*
X008995Y022809D01*
X009011Y022790D01*
X009024Y022769D01*
X009033Y022747D01*
X009039Y022723D01*
X009041Y022698D01*
X009039Y022673D01*
X009033Y022649D01*
X009024Y022627D01*
X009011Y022606D01*
X008995Y022587D01*
X008976Y022571D01*
X008955Y022558D01*
X008933Y022549D01*
X008909Y022543D01*
X008884Y022541D01*
X008859Y022543D01*
X008835Y022549D01*
X008813Y022558D01*
X008792Y022571D01*
X008773Y022587D01*
X008757Y022606D01*
X008744Y022627D01*
X008735Y022649D01*
X008729Y022673D01*
X008727Y022698D01*
X008766Y022698D02*
X008768Y022723D01*
X008774Y022747D01*
X008783Y022769D01*
X008796Y022790D01*
X008812Y022809D01*
X008831Y022825D01*
X008852Y022838D01*
X008874Y022847D01*
X008898Y022853D01*
X008923Y022855D01*
X008948Y022853D01*
X008972Y022847D01*
X008994Y022838D01*
X009015Y022825D01*
X009034Y022809D01*
X009050Y022790D01*
X009063Y022769D01*
X009072Y022747D01*
X009078Y022723D01*
X009080Y022698D01*
X009078Y022673D01*
X009072Y022649D01*
X009063Y022627D01*
X009050Y022606D01*
X009034Y022587D01*
X009015Y022571D01*
X008994Y022558D01*
X008972Y022549D01*
X008948Y022543D01*
X008923Y022541D01*
X008898Y022543D01*
X008874Y022549D01*
X008852Y022558D01*
X008831Y022571D01*
X008812Y022587D01*
X008796Y022606D01*
X008783Y022627D01*
X008774Y022649D01*
X008768Y022673D01*
X008766Y022698D01*
X008806Y022698D02*
X008808Y022723D01*
X008814Y022747D01*
X008823Y022769D01*
X008836Y022790D01*
X008852Y022809D01*
X008871Y022825D01*
X008892Y022838D01*
X008914Y022847D01*
X008938Y022853D01*
X008963Y022855D01*
X008988Y022853D01*
X009012Y022847D01*
X009034Y022838D01*
X009055Y022825D01*
X009074Y022809D01*
X009090Y022790D01*
X009103Y022769D01*
X009112Y022747D01*
X009118Y022723D01*
X009120Y022698D01*
X009118Y022673D01*
X009112Y022649D01*
X009103Y022627D01*
X009090Y022606D01*
X009074Y022587D01*
X009055Y022571D01*
X009034Y022558D01*
X009012Y022549D01*
X008988Y022543D01*
X008963Y022541D01*
X008938Y022543D01*
X008914Y022549D01*
X008892Y022558D01*
X008871Y022571D01*
X008852Y022587D01*
X008836Y022606D01*
X008823Y022627D01*
X008814Y022649D01*
X008808Y022673D01*
X008806Y022698D01*
X008845Y022698D02*
X008847Y022723D01*
X008853Y022747D01*
X008862Y022769D01*
X008875Y022790D01*
X008891Y022809D01*
X008910Y022825D01*
X008931Y022838D01*
X008953Y022847D01*
X008977Y022853D01*
X009002Y022855D01*
X009027Y022853D01*
X009051Y022847D01*
X009073Y022838D01*
X009094Y022825D01*
X009113Y022809D01*
X009129Y022790D01*
X009142Y022769D01*
X009151Y022747D01*
X009157Y022723D01*
X009159Y022698D01*
X009157Y022673D01*
X009151Y022649D01*
X009142Y022627D01*
X009129Y022606D01*
X009113Y022587D01*
X009094Y022571D01*
X009073Y022558D01*
X009051Y022549D01*
X009027Y022543D01*
X009002Y022541D01*
X008977Y022543D01*
X008953Y022549D01*
X008931Y022558D01*
X008910Y022571D01*
X008891Y022587D01*
X008875Y022606D01*
X008862Y022627D01*
X008853Y022649D01*
X008847Y022673D01*
X008845Y022698D01*
X008884Y022698D02*
X008886Y022723D01*
X008892Y022747D01*
X008901Y022769D01*
X008914Y022790D01*
X008930Y022809D01*
X008949Y022825D01*
X008970Y022838D01*
X008992Y022847D01*
X009016Y022853D01*
X009041Y022855D01*
X009066Y022853D01*
X009090Y022847D01*
X009112Y022838D01*
X009133Y022825D01*
X009152Y022809D01*
X009168Y022790D01*
X009181Y022769D01*
X009190Y022747D01*
X009196Y022723D01*
X009198Y022698D01*
X009196Y022673D01*
X009190Y022649D01*
X009181Y022627D01*
X009168Y022606D01*
X009152Y022587D01*
X009133Y022571D01*
X009112Y022558D01*
X009090Y022549D01*
X009066Y022543D01*
X009041Y022541D01*
X009016Y022543D01*
X008992Y022549D01*
X008970Y022558D01*
X008949Y022571D01*
X008930Y022587D01*
X008914Y022606D01*
X008901Y022627D01*
X008892Y022649D01*
X008886Y022673D01*
X008884Y022698D01*
X008924Y022698D02*
X008926Y022723D01*
X008932Y022747D01*
X008941Y022769D01*
X008954Y022790D01*
X008970Y022809D01*
X008989Y022825D01*
X009010Y022838D01*
X009032Y022847D01*
X009056Y022853D01*
X009081Y022855D01*
X009106Y022853D01*
X009130Y022847D01*
X009152Y022838D01*
X009173Y022825D01*
X009192Y022809D01*
X009208Y022790D01*
X009221Y022769D01*
X009230Y022747D01*
X009236Y022723D01*
X009238Y022698D01*
X009236Y022673D01*
X009230Y022649D01*
X009221Y022627D01*
X009208Y022606D01*
X009192Y022587D01*
X009173Y022571D01*
X009152Y022558D01*
X009130Y022549D01*
X009106Y022543D01*
X009081Y022541D01*
X009056Y022543D01*
X009032Y022549D01*
X009010Y022558D01*
X008989Y022571D01*
X008970Y022587D01*
X008954Y022606D01*
X008941Y022627D01*
X008932Y022649D01*
X008926Y022673D01*
X008924Y022698D01*
X008963Y022698D02*
X008965Y022723D01*
X008971Y022747D01*
X008980Y022769D01*
X008993Y022790D01*
X009009Y022809D01*
X009028Y022825D01*
X009049Y022838D01*
X009071Y022847D01*
X009095Y022853D01*
X009120Y022855D01*
X009145Y022853D01*
X009169Y022847D01*
X009191Y022838D01*
X009212Y022825D01*
X009231Y022809D01*
X009247Y022790D01*
X009260Y022769D01*
X009269Y022747D01*
X009275Y022723D01*
X009277Y022698D01*
X009275Y022673D01*
X009269Y022649D01*
X009260Y022627D01*
X009247Y022606D01*
X009231Y022587D01*
X009212Y022571D01*
X009191Y022558D01*
X009169Y022549D01*
X009145Y022543D01*
X009120Y022541D01*
X009095Y022543D01*
X009071Y022549D01*
X009049Y022558D01*
X009028Y022571D01*
X009009Y022587D01*
X008993Y022606D01*
X008980Y022627D01*
X008971Y022649D01*
X008965Y022673D01*
X008963Y022698D01*
X009003Y022698D02*
X009005Y022723D01*
X009011Y022747D01*
X009020Y022769D01*
X009033Y022790D01*
X009049Y022809D01*
X009068Y022825D01*
X009089Y022838D01*
X009111Y022847D01*
X009135Y022853D01*
X009160Y022855D01*
X009185Y022853D01*
X009209Y022847D01*
X009231Y022838D01*
X009252Y022825D01*
X009271Y022809D01*
X009287Y022790D01*
X009300Y022769D01*
X009309Y022747D01*
X009315Y022723D01*
X009317Y022698D01*
X009315Y022673D01*
X009309Y022649D01*
X009300Y022627D01*
X009287Y022606D01*
X009271Y022587D01*
X009252Y022571D01*
X009231Y022558D01*
X009209Y022549D01*
X009185Y022543D01*
X009160Y022541D01*
X009135Y022543D01*
X009111Y022549D01*
X009089Y022558D01*
X009068Y022571D01*
X009049Y022587D01*
X009033Y022606D01*
X009020Y022627D01*
X009011Y022649D01*
X009005Y022673D01*
X009003Y022698D01*
X009042Y022698D02*
X009044Y022723D01*
X009050Y022747D01*
X009059Y022769D01*
X009072Y022790D01*
X009088Y022809D01*
X009107Y022825D01*
X009128Y022838D01*
X009150Y022847D01*
X009174Y022853D01*
X009199Y022855D01*
X009224Y022853D01*
X009248Y022847D01*
X009270Y022838D01*
X009291Y022825D01*
X009310Y022809D01*
X009326Y022790D01*
X009339Y022769D01*
X009348Y022747D01*
X009354Y022723D01*
X009356Y022698D01*
X009354Y022673D01*
X009348Y022649D01*
X009339Y022627D01*
X009326Y022606D01*
X009310Y022587D01*
X009291Y022571D01*
X009270Y022558D01*
X009248Y022549D01*
X009224Y022543D01*
X009199Y022541D01*
X009174Y022543D01*
X009150Y022549D01*
X009128Y022558D01*
X009107Y022571D01*
X009088Y022587D01*
X009072Y022606D01*
X009059Y022627D01*
X009050Y022649D01*
X009044Y022673D01*
X009042Y022698D01*
X009081Y022698D02*
X009083Y022723D01*
X009089Y022747D01*
X009098Y022769D01*
X009111Y022790D01*
X009127Y022809D01*
X009146Y022825D01*
X009167Y022838D01*
X009189Y022847D01*
X009213Y022853D01*
X009238Y022855D01*
X009263Y022853D01*
X009287Y022847D01*
X009309Y022838D01*
X009330Y022825D01*
X009349Y022809D01*
X009365Y022790D01*
X009378Y022769D01*
X009387Y022747D01*
X009393Y022723D01*
X009395Y022698D01*
X009393Y022673D01*
X009387Y022649D01*
X009378Y022627D01*
X009365Y022606D01*
X009349Y022587D01*
X009330Y022571D01*
X009309Y022558D01*
X009287Y022549D01*
X009263Y022543D01*
X009238Y022541D01*
X009213Y022543D01*
X009189Y022549D01*
X009167Y022558D01*
X009146Y022571D01*
X009127Y022587D01*
X009111Y022606D01*
X009098Y022627D01*
X009089Y022649D01*
X009083Y022673D01*
X009081Y022698D01*
X009121Y022698D02*
X009123Y022723D01*
X009129Y022747D01*
X009138Y022769D01*
X009151Y022790D01*
X009167Y022809D01*
X009186Y022825D01*
X009207Y022838D01*
X009229Y022847D01*
X009253Y022853D01*
X009278Y022855D01*
X009303Y022853D01*
X009327Y022847D01*
X009349Y022838D01*
X009370Y022825D01*
X009389Y022809D01*
X009405Y022790D01*
X009418Y022769D01*
X009427Y022747D01*
X009433Y022723D01*
X009435Y022698D01*
X009433Y022673D01*
X009427Y022649D01*
X009418Y022627D01*
X009405Y022606D01*
X009389Y022587D01*
X009370Y022571D01*
X009349Y022558D01*
X009327Y022549D01*
X009303Y022543D01*
X009278Y022541D01*
X009253Y022543D01*
X009229Y022549D01*
X009207Y022558D01*
X009186Y022571D01*
X009167Y022587D01*
X009151Y022606D01*
X009138Y022627D01*
X009129Y022649D01*
X009123Y022673D01*
X009121Y022698D01*
X009160Y022698D02*
X009162Y022723D01*
X009168Y022747D01*
X009177Y022769D01*
X009190Y022790D01*
X009206Y022809D01*
X009225Y022825D01*
X009246Y022838D01*
X009268Y022847D01*
X009292Y022853D01*
X009317Y022855D01*
X009342Y022853D01*
X009366Y022847D01*
X009388Y022838D01*
X009409Y022825D01*
X009428Y022809D01*
X009444Y022790D01*
X009457Y022769D01*
X009466Y022747D01*
X009472Y022723D01*
X009474Y022698D01*
X009472Y022673D01*
X009466Y022649D01*
X009457Y022627D01*
X009444Y022606D01*
X009428Y022587D01*
X009409Y022571D01*
X009388Y022558D01*
X009366Y022549D01*
X009342Y022543D01*
X009317Y022541D01*
X009292Y022543D01*
X009268Y022549D01*
X009246Y022558D01*
X009225Y022571D01*
X009206Y022587D01*
X009190Y022606D01*
X009177Y022627D01*
X009168Y022649D01*
X009162Y022673D01*
X009160Y022698D01*
X009199Y022698D02*
X009201Y022723D01*
X009207Y022747D01*
X009216Y022769D01*
X009229Y022790D01*
X009245Y022809D01*
X009264Y022825D01*
X009285Y022838D01*
X009307Y022847D01*
X009331Y022853D01*
X009356Y022855D01*
X009381Y022853D01*
X009405Y022847D01*
X009427Y022838D01*
X009448Y022825D01*
X009467Y022809D01*
X009483Y022790D01*
X009496Y022769D01*
X009505Y022747D01*
X009511Y022723D01*
X009513Y022698D01*
X009511Y022673D01*
X009505Y022649D01*
X009496Y022627D01*
X009483Y022606D01*
X009467Y022587D01*
X009448Y022571D01*
X009427Y022558D01*
X009405Y022549D01*
X009381Y022543D01*
X009356Y022541D01*
X009331Y022543D01*
X009307Y022549D01*
X009285Y022558D01*
X009264Y022571D01*
X009245Y022587D01*
X009229Y022606D01*
X009216Y022627D01*
X009207Y022649D01*
X009201Y022673D01*
X009199Y022698D01*
X009239Y022698D02*
X009241Y022723D01*
X009247Y022747D01*
X009256Y022769D01*
X009269Y022790D01*
X009285Y022809D01*
X009304Y022825D01*
X009325Y022838D01*
X009347Y022847D01*
X009371Y022853D01*
X009396Y022855D01*
X009421Y022853D01*
X009445Y022847D01*
X009467Y022838D01*
X009488Y022825D01*
X009507Y022809D01*
X009523Y022790D01*
X009536Y022769D01*
X009545Y022747D01*
X009551Y022723D01*
X009553Y022698D01*
X009551Y022673D01*
X009545Y022649D01*
X009536Y022627D01*
X009523Y022606D01*
X009507Y022587D01*
X009488Y022571D01*
X009467Y022558D01*
X009445Y022549D01*
X009421Y022543D01*
X009396Y022541D01*
X009371Y022543D01*
X009347Y022549D01*
X009325Y022558D01*
X009304Y022571D01*
X009285Y022587D01*
X009269Y022606D01*
X009256Y022627D01*
X009247Y022649D01*
X009241Y022673D01*
X009239Y022698D01*
X009278Y022698D02*
X009280Y022723D01*
X009286Y022747D01*
X009295Y022769D01*
X009308Y022790D01*
X009324Y022809D01*
X009343Y022825D01*
X009364Y022838D01*
X009386Y022847D01*
X009410Y022853D01*
X009435Y022855D01*
X009460Y022853D01*
X009484Y022847D01*
X009506Y022838D01*
X009527Y022825D01*
X009546Y022809D01*
X009562Y022790D01*
X009575Y022769D01*
X009584Y022747D01*
X009590Y022723D01*
X009592Y022698D01*
X009590Y022673D01*
X009584Y022649D01*
X009575Y022627D01*
X009562Y022606D01*
X009546Y022587D01*
X009527Y022571D01*
X009506Y022558D01*
X009484Y022549D01*
X009460Y022543D01*
X009435Y022541D01*
X009410Y022543D01*
X009386Y022549D01*
X009364Y022558D01*
X009343Y022571D01*
X009324Y022587D01*
X009308Y022606D01*
X009295Y022627D01*
X009286Y022649D01*
X009280Y022673D01*
X009278Y022698D01*
X009317Y022698D02*
X009319Y022723D01*
X009325Y022747D01*
X009334Y022769D01*
X009347Y022790D01*
X009363Y022809D01*
X009382Y022825D01*
X009403Y022838D01*
X009425Y022847D01*
X009449Y022853D01*
X009474Y022855D01*
X009499Y022853D01*
X009523Y022847D01*
X009545Y022838D01*
X009566Y022825D01*
X009585Y022809D01*
X009601Y022790D01*
X009614Y022769D01*
X009623Y022747D01*
X009629Y022723D01*
X009631Y022698D01*
X009629Y022673D01*
X009623Y022649D01*
X009614Y022627D01*
X009601Y022606D01*
X009585Y022587D01*
X009566Y022571D01*
X009545Y022558D01*
X009523Y022549D01*
X009499Y022543D01*
X009474Y022541D01*
X009449Y022543D01*
X009425Y022549D01*
X009403Y022558D01*
X009382Y022571D01*
X009363Y022587D01*
X009347Y022606D01*
X009334Y022627D01*
X009325Y022649D01*
X009319Y022673D01*
X009317Y022698D01*
X009357Y022698D02*
X009359Y022723D01*
X009365Y022747D01*
X009374Y022769D01*
X009387Y022790D01*
X009403Y022809D01*
X009422Y022825D01*
X009443Y022838D01*
X009465Y022847D01*
X009489Y022853D01*
X009514Y022855D01*
X009539Y022853D01*
X009563Y022847D01*
X009585Y022838D01*
X009606Y022825D01*
X009625Y022809D01*
X009641Y022790D01*
X009654Y022769D01*
X009663Y022747D01*
X009669Y022723D01*
X009671Y022698D01*
X009669Y022673D01*
X009663Y022649D01*
X009654Y022627D01*
X009641Y022606D01*
X009625Y022587D01*
X009606Y022571D01*
X009585Y022558D01*
X009563Y022549D01*
X009539Y022543D01*
X009514Y022541D01*
X009489Y022543D01*
X009465Y022549D01*
X009443Y022558D01*
X009422Y022571D01*
X009403Y022587D01*
X009387Y022606D01*
X009374Y022627D01*
X009365Y022649D01*
X009359Y022673D01*
X009357Y022698D01*
X009396Y022698D02*
X009398Y022723D01*
X009404Y022747D01*
X009413Y022769D01*
X009426Y022790D01*
X009442Y022809D01*
X009461Y022825D01*
X009482Y022838D01*
X009504Y022847D01*
X009528Y022853D01*
X009553Y022855D01*
X009578Y022853D01*
X009602Y022847D01*
X009624Y022838D01*
X009645Y022825D01*
X009664Y022809D01*
X009680Y022790D01*
X009693Y022769D01*
X009702Y022747D01*
X009708Y022723D01*
X009710Y022698D01*
X009708Y022673D01*
X009702Y022649D01*
X009693Y022627D01*
X009680Y022606D01*
X009664Y022587D01*
X009645Y022571D01*
X009624Y022558D01*
X009602Y022549D01*
X009578Y022543D01*
X009553Y022541D01*
X009528Y022543D01*
X009504Y022549D01*
X009482Y022558D01*
X009461Y022571D01*
X009442Y022587D01*
X009426Y022606D01*
X009413Y022627D01*
X009404Y022649D01*
X009398Y022673D01*
X009396Y022698D01*
X009436Y022698D02*
X009438Y022723D01*
X009444Y022747D01*
X009453Y022769D01*
X009466Y022790D01*
X009482Y022809D01*
X009501Y022825D01*
X009522Y022838D01*
X009544Y022847D01*
X009568Y022853D01*
X009593Y022855D01*
X009618Y022853D01*
X009642Y022847D01*
X009664Y022838D01*
X009685Y022825D01*
X009704Y022809D01*
X009720Y022790D01*
X009733Y022769D01*
X009742Y022747D01*
X009748Y022723D01*
X009750Y022698D01*
X009748Y022673D01*
X009742Y022649D01*
X009733Y022627D01*
X009720Y022606D01*
X009704Y022587D01*
X009685Y022571D01*
X009664Y022558D01*
X009642Y022549D01*
X009618Y022543D01*
X009593Y022541D01*
X009568Y022543D01*
X009544Y022549D01*
X009522Y022558D01*
X009501Y022571D01*
X009482Y022587D01*
X009466Y022606D01*
X009453Y022627D01*
X009444Y022649D01*
X009438Y022673D01*
X009436Y022698D01*
X009475Y022698D02*
X009477Y022723D01*
X009483Y022747D01*
X009492Y022769D01*
X009505Y022790D01*
X009521Y022809D01*
X009540Y022825D01*
X009561Y022838D01*
X009583Y022847D01*
X009607Y022853D01*
X009632Y022855D01*
X009657Y022853D01*
X009681Y022847D01*
X009703Y022838D01*
X009724Y022825D01*
X009743Y022809D01*
X009759Y022790D01*
X009772Y022769D01*
X009781Y022747D01*
X009787Y022723D01*
X009789Y022698D01*
X009787Y022673D01*
X009781Y022649D01*
X009772Y022627D01*
X009759Y022606D01*
X009743Y022587D01*
X009724Y022571D01*
X009703Y022558D01*
X009681Y022549D01*
X009657Y022543D01*
X009632Y022541D01*
X009607Y022543D01*
X009583Y022549D01*
X009561Y022558D01*
X009540Y022571D01*
X009521Y022587D01*
X009505Y022606D01*
X009492Y022627D01*
X009483Y022649D01*
X009477Y022673D01*
X009475Y022698D01*
X009514Y022698D02*
X009516Y022723D01*
X009522Y022747D01*
X009531Y022769D01*
X009544Y022790D01*
X009560Y022809D01*
X009579Y022825D01*
X009600Y022838D01*
X009622Y022847D01*
X009646Y022853D01*
X009671Y022855D01*
X009696Y022853D01*
X009720Y022847D01*
X009742Y022838D01*
X009763Y022825D01*
X009782Y022809D01*
X009798Y022790D01*
X009811Y022769D01*
X009820Y022747D01*
X009826Y022723D01*
X009828Y022698D01*
X009826Y022673D01*
X009820Y022649D01*
X009811Y022627D01*
X009798Y022606D01*
X009782Y022587D01*
X009763Y022571D01*
X009742Y022558D01*
X009720Y022549D01*
X009696Y022543D01*
X009671Y022541D01*
X009646Y022543D01*
X009622Y022549D01*
X009600Y022558D01*
X009579Y022571D01*
X009560Y022587D01*
X009544Y022606D01*
X009531Y022627D01*
X009522Y022649D01*
X009516Y022673D01*
X009514Y022698D01*
X010065Y023919D02*
X010067Y023946D01*
X010073Y023973D01*
X010082Y023999D01*
X010095Y024023D01*
X010111Y024046D01*
X010130Y024065D01*
X010152Y024082D01*
X010176Y024096D01*
X010201Y024106D01*
X010228Y024113D01*
X010255Y024116D01*
X010283Y024115D01*
X010310Y024110D01*
X010336Y024102D01*
X010360Y024090D01*
X010383Y024074D01*
X010404Y024056D01*
X010421Y024035D01*
X010436Y024011D01*
X010447Y023986D01*
X010455Y023960D01*
X010459Y023933D01*
X010459Y023905D01*
X010455Y023878D01*
X010447Y023852D01*
X010436Y023827D01*
X010421Y023803D01*
X010404Y023782D01*
X010383Y023764D01*
X010361Y023748D01*
X010336Y023736D01*
X010310Y023728D01*
X010283Y023723D01*
X010255Y023722D01*
X010228Y023725D01*
X010201Y023732D01*
X010176Y023742D01*
X010152Y023756D01*
X010130Y023773D01*
X010111Y023792D01*
X010095Y023815D01*
X010082Y023839D01*
X010073Y023865D01*
X010067Y023892D01*
X010065Y023919D01*
X010065Y023958D02*
X010067Y023985D01*
X010073Y024012D01*
X010082Y024038D01*
X010095Y024062D01*
X010111Y024085D01*
X010130Y024104D01*
X010152Y024121D01*
X010176Y024135D01*
X010201Y024145D01*
X010228Y024152D01*
X010255Y024155D01*
X010283Y024154D01*
X010310Y024149D01*
X010336Y024141D01*
X010360Y024129D01*
X010383Y024113D01*
X010404Y024095D01*
X010421Y024074D01*
X010436Y024050D01*
X010447Y024025D01*
X010455Y023999D01*
X010459Y023972D01*
X010459Y023944D01*
X010455Y023917D01*
X010447Y023891D01*
X010436Y023866D01*
X010421Y023842D01*
X010404Y023821D01*
X010383Y023803D01*
X010361Y023787D01*
X010336Y023775D01*
X010310Y023767D01*
X010283Y023762D01*
X010255Y023761D01*
X010228Y023764D01*
X010201Y023771D01*
X010176Y023781D01*
X010152Y023795D01*
X010130Y023812D01*
X010111Y023831D01*
X010095Y023854D01*
X010082Y023878D01*
X010073Y023904D01*
X010067Y023931D01*
X010065Y023958D01*
X010065Y023997D02*
X010067Y024024D01*
X010073Y024051D01*
X010082Y024077D01*
X010095Y024101D01*
X010111Y024124D01*
X010130Y024143D01*
X010152Y024160D01*
X010176Y024174D01*
X010201Y024184D01*
X010228Y024191D01*
X010255Y024194D01*
X010283Y024193D01*
X010310Y024188D01*
X010336Y024180D01*
X010360Y024168D01*
X010383Y024152D01*
X010404Y024134D01*
X010421Y024113D01*
X010436Y024089D01*
X010447Y024064D01*
X010455Y024038D01*
X010459Y024011D01*
X010459Y023983D01*
X010455Y023956D01*
X010447Y023930D01*
X010436Y023905D01*
X010421Y023881D01*
X010404Y023860D01*
X010383Y023842D01*
X010361Y023826D01*
X010336Y023814D01*
X010310Y023806D01*
X010283Y023801D01*
X010255Y023800D01*
X010228Y023803D01*
X010201Y023810D01*
X010176Y023820D01*
X010152Y023834D01*
X010130Y023851D01*
X010111Y023870D01*
X010095Y023893D01*
X010082Y023917D01*
X010073Y023943D01*
X010067Y023970D01*
X010065Y023997D01*
X010065Y024037D02*
X010067Y024064D01*
X010073Y024091D01*
X010082Y024117D01*
X010095Y024141D01*
X010111Y024164D01*
X010130Y024183D01*
X010152Y024200D01*
X010176Y024214D01*
X010201Y024224D01*
X010228Y024231D01*
X010255Y024234D01*
X010283Y024233D01*
X010310Y024228D01*
X010336Y024220D01*
X010360Y024208D01*
X010383Y024192D01*
X010404Y024174D01*
X010421Y024153D01*
X010436Y024129D01*
X010447Y024104D01*
X010455Y024078D01*
X010459Y024051D01*
X010459Y024023D01*
X010455Y023996D01*
X010447Y023970D01*
X010436Y023945D01*
X010421Y023921D01*
X010404Y023900D01*
X010383Y023882D01*
X010361Y023866D01*
X010336Y023854D01*
X010310Y023846D01*
X010283Y023841D01*
X010255Y023840D01*
X010228Y023843D01*
X010201Y023850D01*
X010176Y023860D01*
X010152Y023874D01*
X010130Y023891D01*
X010111Y023910D01*
X010095Y023933D01*
X010082Y023957D01*
X010073Y023983D01*
X010067Y024010D01*
X010065Y024037D01*
X010065Y024076D02*
X010067Y024103D01*
X010073Y024130D01*
X010082Y024156D01*
X010095Y024180D01*
X010111Y024203D01*
X010130Y024222D01*
X010152Y024239D01*
X010176Y024253D01*
X010201Y024263D01*
X010228Y024270D01*
X010255Y024273D01*
X010283Y024272D01*
X010310Y024267D01*
X010336Y024259D01*
X010360Y024247D01*
X010383Y024231D01*
X010404Y024213D01*
X010421Y024192D01*
X010436Y024168D01*
X010447Y024143D01*
X010455Y024117D01*
X010459Y024090D01*
X010459Y024062D01*
X010455Y024035D01*
X010447Y024009D01*
X010436Y023984D01*
X010421Y023960D01*
X010404Y023939D01*
X010383Y023921D01*
X010361Y023905D01*
X010336Y023893D01*
X010310Y023885D01*
X010283Y023880D01*
X010255Y023879D01*
X010228Y023882D01*
X010201Y023889D01*
X010176Y023899D01*
X010152Y023913D01*
X010130Y023930D01*
X010111Y023949D01*
X010095Y023972D01*
X010082Y023996D01*
X010073Y024022D01*
X010067Y024049D01*
X010065Y024076D01*
X010065Y024116D02*
X010067Y024143D01*
X010073Y024170D01*
X010082Y024196D01*
X010095Y024220D01*
X010111Y024243D01*
X010130Y024262D01*
X010152Y024279D01*
X010176Y024293D01*
X010201Y024303D01*
X010228Y024310D01*
X010255Y024313D01*
X010283Y024312D01*
X010310Y024307D01*
X010336Y024299D01*
X010360Y024287D01*
X010383Y024271D01*
X010404Y024253D01*
X010421Y024232D01*
X010436Y024208D01*
X010447Y024183D01*
X010455Y024157D01*
X010459Y024130D01*
X010459Y024102D01*
X010455Y024075D01*
X010447Y024049D01*
X010436Y024024D01*
X010421Y024000D01*
X010404Y023979D01*
X010383Y023961D01*
X010361Y023945D01*
X010336Y023933D01*
X010310Y023925D01*
X010283Y023920D01*
X010255Y023919D01*
X010228Y023922D01*
X010201Y023929D01*
X010176Y023939D01*
X010152Y023953D01*
X010130Y023970D01*
X010111Y023989D01*
X010095Y024012D01*
X010082Y024036D01*
X010073Y024062D01*
X010067Y024089D01*
X010065Y024116D01*
X010065Y024155D02*
X010067Y024182D01*
X010073Y024209D01*
X010082Y024235D01*
X010095Y024259D01*
X010111Y024282D01*
X010130Y024301D01*
X010152Y024318D01*
X010176Y024332D01*
X010201Y024342D01*
X010228Y024349D01*
X010255Y024352D01*
X010283Y024351D01*
X010310Y024346D01*
X010336Y024338D01*
X010360Y024326D01*
X010383Y024310D01*
X010404Y024292D01*
X010421Y024271D01*
X010436Y024247D01*
X010447Y024222D01*
X010455Y024196D01*
X010459Y024169D01*
X010459Y024141D01*
X010455Y024114D01*
X010447Y024088D01*
X010436Y024063D01*
X010421Y024039D01*
X010404Y024018D01*
X010383Y024000D01*
X010361Y023984D01*
X010336Y023972D01*
X010310Y023964D01*
X010283Y023959D01*
X010255Y023958D01*
X010228Y023961D01*
X010201Y023968D01*
X010176Y023978D01*
X010152Y023992D01*
X010130Y024009D01*
X010111Y024028D01*
X010095Y024051D01*
X010082Y024075D01*
X010073Y024101D01*
X010067Y024128D01*
X010065Y024155D01*
X010065Y024194D02*
X010067Y024221D01*
X010073Y024248D01*
X010082Y024274D01*
X010095Y024298D01*
X010111Y024321D01*
X010130Y024340D01*
X010152Y024357D01*
X010176Y024371D01*
X010201Y024381D01*
X010228Y024388D01*
X010255Y024391D01*
X010283Y024390D01*
X010310Y024385D01*
X010336Y024377D01*
X010360Y024365D01*
X010383Y024349D01*
X010404Y024331D01*
X010421Y024310D01*
X010436Y024286D01*
X010447Y024261D01*
X010455Y024235D01*
X010459Y024208D01*
X010459Y024180D01*
X010455Y024153D01*
X010447Y024127D01*
X010436Y024102D01*
X010421Y024078D01*
X010404Y024057D01*
X010383Y024039D01*
X010361Y024023D01*
X010336Y024011D01*
X010310Y024003D01*
X010283Y023998D01*
X010255Y023997D01*
X010228Y024000D01*
X010201Y024007D01*
X010176Y024017D01*
X010152Y024031D01*
X010130Y024048D01*
X010111Y024067D01*
X010095Y024090D01*
X010082Y024114D01*
X010073Y024140D01*
X010067Y024167D01*
X010065Y024194D01*
X010065Y024234D02*
X010067Y024261D01*
X010073Y024288D01*
X010082Y024314D01*
X010095Y024338D01*
X010111Y024361D01*
X010130Y024380D01*
X010152Y024397D01*
X010176Y024411D01*
X010201Y024421D01*
X010228Y024428D01*
X010255Y024431D01*
X010283Y024430D01*
X010310Y024425D01*
X010336Y024417D01*
X010360Y024405D01*
X010383Y024389D01*
X010404Y024371D01*
X010421Y024350D01*
X010436Y024326D01*
X010447Y024301D01*
X010455Y024275D01*
X010459Y024248D01*
X010459Y024220D01*
X010455Y024193D01*
X010447Y024167D01*
X010436Y024142D01*
X010421Y024118D01*
X010404Y024097D01*
X010383Y024079D01*
X010361Y024063D01*
X010336Y024051D01*
X010310Y024043D01*
X010283Y024038D01*
X010255Y024037D01*
X010228Y024040D01*
X010201Y024047D01*
X010176Y024057D01*
X010152Y024071D01*
X010130Y024088D01*
X010111Y024107D01*
X010095Y024130D01*
X010082Y024154D01*
X010073Y024180D01*
X010067Y024207D01*
X010065Y024234D01*
X010065Y024273D02*
X010067Y024300D01*
X010073Y024327D01*
X010082Y024353D01*
X010095Y024377D01*
X010111Y024400D01*
X010130Y024419D01*
X010152Y024436D01*
X010176Y024450D01*
X010201Y024460D01*
X010228Y024467D01*
X010255Y024470D01*
X010283Y024469D01*
X010310Y024464D01*
X010336Y024456D01*
X010360Y024444D01*
X010383Y024428D01*
X010404Y024410D01*
X010421Y024389D01*
X010436Y024365D01*
X010447Y024340D01*
X010455Y024314D01*
X010459Y024287D01*
X010459Y024259D01*
X010455Y024232D01*
X010447Y024206D01*
X010436Y024181D01*
X010421Y024157D01*
X010404Y024136D01*
X010383Y024118D01*
X010361Y024102D01*
X010336Y024090D01*
X010310Y024082D01*
X010283Y024077D01*
X010255Y024076D01*
X010228Y024079D01*
X010201Y024086D01*
X010176Y024096D01*
X010152Y024110D01*
X010130Y024127D01*
X010111Y024146D01*
X010095Y024169D01*
X010082Y024193D01*
X010073Y024219D01*
X010067Y024246D01*
X010065Y024273D01*
X010065Y024312D02*
X010067Y024339D01*
X010073Y024366D01*
X010082Y024392D01*
X010095Y024416D01*
X010111Y024439D01*
X010130Y024458D01*
X010152Y024475D01*
X010176Y024489D01*
X010201Y024499D01*
X010228Y024506D01*
X010255Y024509D01*
X010283Y024508D01*
X010310Y024503D01*
X010336Y024495D01*
X010360Y024483D01*
X010383Y024467D01*
X010404Y024449D01*
X010421Y024428D01*
X010436Y024404D01*
X010447Y024379D01*
X010455Y024353D01*
X010459Y024326D01*
X010459Y024298D01*
X010455Y024271D01*
X010447Y024245D01*
X010436Y024220D01*
X010421Y024196D01*
X010404Y024175D01*
X010383Y024157D01*
X010361Y024141D01*
X010336Y024129D01*
X010310Y024121D01*
X010283Y024116D01*
X010255Y024115D01*
X010228Y024118D01*
X010201Y024125D01*
X010176Y024135D01*
X010152Y024149D01*
X010130Y024166D01*
X010111Y024185D01*
X010095Y024208D01*
X010082Y024232D01*
X010073Y024258D01*
X010067Y024285D01*
X010065Y024312D01*
X010065Y024352D02*
X010067Y024379D01*
X010073Y024406D01*
X010082Y024432D01*
X010095Y024456D01*
X010111Y024479D01*
X010130Y024498D01*
X010152Y024515D01*
X010176Y024529D01*
X010201Y024539D01*
X010228Y024546D01*
X010255Y024549D01*
X010283Y024548D01*
X010310Y024543D01*
X010336Y024535D01*
X010360Y024523D01*
X010383Y024507D01*
X010404Y024489D01*
X010421Y024468D01*
X010436Y024444D01*
X010447Y024419D01*
X010455Y024393D01*
X010459Y024366D01*
X010459Y024338D01*
X010455Y024311D01*
X010447Y024285D01*
X010436Y024260D01*
X010421Y024236D01*
X010404Y024215D01*
X010383Y024197D01*
X010361Y024181D01*
X010336Y024169D01*
X010310Y024161D01*
X010283Y024156D01*
X010255Y024155D01*
X010228Y024158D01*
X010201Y024165D01*
X010176Y024175D01*
X010152Y024189D01*
X010130Y024206D01*
X010111Y024225D01*
X010095Y024248D01*
X010082Y024272D01*
X010073Y024298D01*
X010067Y024325D01*
X010065Y024352D01*
X010065Y024391D02*
X010067Y024418D01*
X010073Y024445D01*
X010082Y024471D01*
X010095Y024495D01*
X010111Y024518D01*
X010130Y024537D01*
X010152Y024554D01*
X010176Y024568D01*
X010201Y024578D01*
X010228Y024585D01*
X010255Y024588D01*
X010283Y024587D01*
X010310Y024582D01*
X010336Y024574D01*
X010360Y024562D01*
X010383Y024546D01*
X010404Y024528D01*
X010421Y024507D01*
X010436Y024483D01*
X010447Y024458D01*
X010455Y024432D01*
X010459Y024405D01*
X010459Y024377D01*
X010455Y024350D01*
X010447Y024324D01*
X010436Y024299D01*
X010421Y024275D01*
X010404Y024254D01*
X010383Y024236D01*
X010361Y024220D01*
X010336Y024208D01*
X010310Y024200D01*
X010283Y024195D01*
X010255Y024194D01*
X010228Y024197D01*
X010201Y024204D01*
X010176Y024214D01*
X010152Y024228D01*
X010130Y024245D01*
X010111Y024264D01*
X010095Y024287D01*
X010082Y024311D01*
X010073Y024337D01*
X010067Y024364D01*
X010065Y024391D01*
X010065Y024431D02*
X010067Y024458D01*
X010073Y024485D01*
X010082Y024511D01*
X010095Y024535D01*
X010111Y024558D01*
X010130Y024577D01*
X010152Y024594D01*
X010176Y024608D01*
X010201Y024618D01*
X010228Y024625D01*
X010255Y024628D01*
X010283Y024627D01*
X010310Y024622D01*
X010336Y024614D01*
X010360Y024602D01*
X010383Y024586D01*
X010404Y024568D01*
X010421Y024547D01*
X010436Y024523D01*
X010447Y024498D01*
X010455Y024472D01*
X010459Y024445D01*
X010459Y024417D01*
X010455Y024390D01*
X010447Y024364D01*
X010436Y024339D01*
X010421Y024315D01*
X010404Y024294D01*
X010383Y024276D01*
X010361Y024260D01*
X010336Y024248D01*
X010310Y024240D01*
X010283Y024235D01*
X010255Y024234D01*
X010228Y024237D01*
X010201Y024244D01*
X010176Y024254D01*
X010152Y024268D01*
X010130Y024285D01*
X010111Y024304D01*
X010095Y024327D01*
X010082Y024351D01*
X010073Y024377D01*
X010067Y024404D01*
X010065Y024431D01*
X010065Y024470D02*
X010067Y024497D01*
X010073Y024524D01*
X010082Y024550D01*
X010095Y024574D01*
X010111Y024597D01*
X010130Y024616D01*
X010152Y024633D01*
X010176Y024647D01*
X010201Y024657D01*
X010228Y024664D01*
X010255Y024667D01*
X010283Y024666D01*
X010310Y024661D01*
X010336Y024653D01*
X010360Y024641D01*
X010383Y024625D01*
X010404Y024607D01*
X010421Y024586D01*
X010436Y024562D01*
X010447Y024537D01*
X010455Y024511D01*
X010459Y024484D01*
X010459Y024456D01*
X010455Y024429D01*
X010447Y024403D01*
X010436Y024378D01*
X010421Y024354D01*
X010404Y024333D01*
X010383Y024315D01*
X010361Y024299D01*
X010336Y024287D01*
X010310Y024279D01*
X010283Y024274D01*
X010255Y024273D01*
X010228Y024276D01*
X010201Y024283D01*
X010176Y024293D01*
X010152Y024307D01*
X010130Y024324D01*
X010111Y024343D01*
X010095Y024366D01*
X010082Y024390D01*
X010073Y024416D01*
X010067Y024443D01*
X010065Y024470D01*
X010065Y024509D02*
X010067Y024536D01*
X010073Y024563D01*
X010082Y024589D01*
X010095Y024613D01*
X010111Y024636D01*
X010130Y024655D01*
X010152Y024672D01*
X010176Y024686D01*
X010201Y024696D01*
X010228Y024703D01*
X010255Y024706D01*
X010283Y024705D01*
X010310Y024700D01*
X010336Y024692D01*
X010360Y024680D01*
X010383Y024664D01*
X010404Y024646D01*
X010421Y024625D01*
X010436Y024601D01*
X010447Y024576D01*
X010455Y024550D01*
X010459Y024523D01*
X010459Y024495D01*
X010455Y024468D01*
X010447Y024442D01*
X010436Y024417D01*
X010421Y024393D01*
X010404Y024372D01*
X010383Y024354D01*
X010361Y024338D01*
X010336Y024326D01*
X010310Y024318D01*
X010283Y024313D01*
X010255Y024312D01*
X010228Y024315D01*
X010201Y024322D01*
X010176Y024332D01*
X010152Y024346D01*
X010130Y024363D01*
X010111Y024382D01*
X010095Y024405D01*
X010082Y024429D01*
X010073Y024455D01*
X010067Y024482D01*
X010065Y024509D01*
X010065Y024549D02*
X010067Y024576D01*
X010073Y024603D01*
X010082Y024629D01*
X010095Y024653D01*
X010111Y024676D01*
X010130Y024695D01*
X010152Y024712D01*
X010176Y024726D01*
X010201Y024736D01*
X010228Y024743D01*
X010255Y024746D01*
X010283Y024745D01*
X010310Y024740D01*
X010336Y024732D01*
X010360Y024720D01*
X010383Y024704D01*
X010404Y024686D01*
X010421Y024665D01*
X010436Y024641D01*
X010447Y024616D01*
X010455Y024590D01*
X010459Y024563D01*
X010459Y024535D01*
X010455Y024508D01*
X010447Y024482D01*
X010436Y024457D01*
X010421Y024433D01*
X010404Y024412D01*
X010383Y024394D01*
X010361Y024378D01*
X010336Y024366D01*
X010310Y024358D01*
X010283Y024353D01*
X010255Y024352D01*
X010228Y024355D01*
X010201Y024362D01*
X010176Y024372D01*
X010152Y024386D01*
X010130Y024403D01*
X010111Y024422D01*
X010095Y024445D01*
X010082Y024469D01*
X010073Y024495D01*
X010067Y024522D01*
X010065Y024549D01*
X010065Y024588D02*
X010067Y024615D01*
X010073Y024642D01*
X010082Y024668D01*
X010095Y024692D01*
X010111Y024715D01*
X010130Y024734D01*
X010152Y024751D01*
X010176Y024765D01*
X010201Y024775D01*
X010228Y024782D01*
X010255Y024785D01*
X010283Y024784D01*
X010310Y024779D01*
X010336Y024771D01*
X010360Y024759D01*
X010383Y024743D01*
X010404Y024725D01*
X010421Y024704D01*
X010436Y024680D01*
X010447Y024655D01*
X010455Y024629D01*
X010459Y024602D01*
X010459Y024574D01*
X010455Y024547D01*
X010447Y024521D01*
X010436Y024496D01*
X010421Y024472D01*
X010404Y024451D01*
X010383Y024433D01*
X010361Y024417D01*
X010336Y024405D01*
X010310Y024397D01*
X010283Y024392D01*
X010255Y024391D01*
X010228Y024394D01*
X010201Y024401D01*
X010176Y024411D01*
X010152Y024425D01*
X010130Y024442D01*
X010111Y024461D01*
X010095Y024484D01*
X010082Y024508D01*
X010073Y024534D01*
X010067Y024561D01*
X010065Y024588D01*
X010065Y024627D02*
X010067Y024654D01*
X010073Y024681D01*
X010082Y024707D01*
X010095Y024731D01*
X010111Y024754D01*
X010130Y024773D01*
X010152Y024790D01*
X010176Y024804D01*
X010201Y024814D01*
X010228Y024821D01*
X010255Y024824D01*
X010283Y024823D01*
X010310Y024818D01*
X010336Y024810D01*
X010360Y024798D01*
X010383Y024782D01*
X010404Y024764D01*
X010421Y024743D01*
X010436Y024719D01*
X010447Y024694D01*
X010455Y024668D01*
X010459Y024641D01*
X010459Y024613D01*
X010455Y024586D01*
X010447Y024560D01*
X010436Y024535D01*
X010421Y024511D01*
X010404Y024490D01*
X010383Y024472D01*
X010361Y024456D01*
X010336Y024444D01*
X010310Y024436D01*
X010283Y024431D01*
X010255Y024430D01*
X010228Y024433D01*
X010201Y024440D01*
X010176Y024450D01*
X010152Y024464D01*
X010130Y024481D01*
X010111Y024500D01*
X010095Y024523D01*
X010082Y024547D01*
X010073Y024573D01*
X010067Y024600D01*
X010065Y024627D01*
X010065Y024667D02*
X010067Y024694D01*
X010073Y024721D01*
X010082Y024747D01*
X010095Y024771D01*
X010111Y024794D01*
X010130Y024813D01*
X010152Y024830D01*
X010176Y024844D01*
X010201Y024854D01*
X010228Y024861D01*
X010255Y024864D01*
X010283Y024863D01*
X010310Y024858D01*
X010336Y024850D01*
X010360Y024838D01*
X010383Y024822D01*
X010404Y024804D01*
X010421Y024783D01*
X010436Y024759D01*
X010447Y024734D01*
X010455Y024708D01*
X010459Y024681D01*
X010459Y024653D01*
X010455Y024626D01*
X010447Y024600D01*
X010436Y024575D01*
X010421Y024551D01*
X010404Y024530D01*
X010383Y024512D01*
X010361Y024496D01*
X010336Y024484D01*
X010310Y024476D01*
X010283Y024471D01*
X010255Y024470D01*
X010228Y024473D01*
X010201Y024480D01*
X010176Y024490D01*
X010152Y024504D01*
X010130Y024521D01*
X010111Y024540D01*
X010095Y024563D01*
X010082Y024587D01*
X010073Y024613D01*
X010067Y024640D01*
X010065Y024667D01*
X010065Y024706D02*
X010067Y024733D01*
X010073Y024760D01*
X010082Y024786D01*
X010095Y024810D01*
X010111Y024833D01*
X010130Y024852D01*
X010152Y024869D01*
X010176Y024883D01*
X010201Y024893D01*
X010228Y024900D01*
X010255Y024903D01*
X010283Y024902D01*
X010310Y024897D01*
X010336Y024889D01*
X010360Y024877D01*
X010383Y024861D01*
X010404Y024843D01*
X010421Y024822D01*
X010436Y024798D01*
X010447Y024773D01*
X010455Y024747D01*
X010459Y024720D01*
X010459Y024692D01*
X010455Y024665D01*
X010447Y024639D01*
X010436Y024614D01*
X010421Y024590D01*
X010404Y024569D01*
X010383Y024551D01*
X010361Y024535D01*
X010336Y024523D01*
X010310Y024515D01*
X010283Y024510D01*
X010255Y024509D01*
X010228Y024512D01*
X010201Y024519D01*
X010176Y024529D01*
X010152Y024543D01*
X010130Y024560D01*
X010111Y024579D01*
X010095Y024602D01*
X010082Y024626D01*
X010073Y024652D01*
X010067Y024679D01*
X010065Y024706D01*
X010065Y024746D02*
X010067Y024773D01*
X010073Y024800D01*
X010082Y024826D01*
X010095Y024850D01*
X010111Y024873D01*
X010130Y024892D01*
X010152Y024909D01*
X010176Y024923D01*
X010201Y024933D01*
X010228Y024940D01*
X010255Y024943D01*
X010283Y024942D01*
X010310Y024937D01*
X010336Y024929D01*
X010360Y024917D01*
X010383Y024901D01*
X010404Y024883D01*
X010421Y024862D01*
X010436Y024838D01*
X010447Y024813D01*
X010455Y024787D01*
X010459Y024760D01*
X010459Y024732D01*
X010455Y024705D01*
X010447Y024679D01*
X010436Y024654D01*
X010421Y024630D01*
X010404Y024609D01*
X010383Y024591D01*
X010361Y024575D01*
X010336Y024563D01*
X010310Y024555D01*
X010283Y024550D01*
X010255Y024549D01*
X010228Y024552D01*
X010201Y024559D01*
X010176Y024569D01*
X010152Y024583D01*
X010130Y024600D01*
X010111Y024619D01*
X010095Y024642D01*
X010082Y024666D01*
X010073Y024692D01*
X010067Y024719D01*
X010065Y024746D01*
X010065Y024785D02*
X010067Y024812D01*
X010073Y024839D01*
X010082Y024865D01*
X010095Y024889D01*
X010111Y024912D01*
X010130Y024931D01*
X010152Y024948D01*
X010176Y024962D01*
X010201Y024972D01*
X010228Y024979D01*
X010255Y024982D01*
X010283Y024981D01*
X010310Y024976D01*
X010336Y024968D01*
X010360Y024956D01*
X010383Y024940D01*
X010404Y024922D01*
X010421Y024901D01*
X010436Y024877D01*
X010447Y024852D01*
X010455Y024826D01*
X010459Y024799D01*
X010459Y024771D01*
X010455Y024744D01*
X010447Y024718D01*
X010436Y024693D01*
X010421Y024669D01*
X010404Y024648D01*
X010383Y024630D01*
X010361Y024614D01*
X010336Y024602D01*
X010310Y024594D01*
X010283Y024589D01*
X010255Y024588D01*
X010228Y024591D01*
X010201Y024598D01*
X010176Y024608D01*
X010152Y024622D01*
X010130Y024639D01*
X010111Y024658D01*
X010095Y024681D01*
X010082Y024705D01*
X010073Y024731D01*
X010067Y024758D01*
X010065Y024785D01*
X010065Y024824D02*
X010067Y024851D01*
X010073Y024878D01*
X010082Y024904D01*
X010095Y024928D01*
X010111Y024951D01*
X010130Y024970D01*
X010152Y024987D01*
X010176Y025001D01*
X010201Y025011D01*
X010228Y025018D01*
X010255Y025021D01*
X010283Y025020D01*
X010310Y025015D01*
X010336Y025007D01*
X010360Y024995D01*
X010383Y024979D01*
X010404Y024961D01*
X010421Y024940D01*
X010436Y024916D01*
X010447Y024891D01*
X010455Y024865D01*
X010459Y024838D01*
X010459Y024810D01*
X010455Y024783D01*
X010447Y024757D01*
X010436Y024732D01*
X010421Y024708D01*
X010404Y024687D01*
X010383Y024669D01*
X010361Y024653D01*
X010336Y024641D01*
X010310Y024633D01*
X010283Y024628D01*
X010255Y024627D01*
X010228Y024630D01*
X010201Y024637D01*
X010176Y024647D01*
X010152Y024661D01*
X010130Y024678D01*
X010111Y024697D01*
X010095Y024720D01*
X010082Y024744D01*
X010073Y024770D01*
X010067Y024797D01*
X010065Y024824D01*
X010065Y024864D02*
X010067Y024891D01*
X010073Y024918D01*
X010082Y024944D01*
X010095Y024968D01*
X010111Y024991D01*
X010130Y025010D01*
X010152Y025027D01*
X010176Y025041D01*
X010201Y025051D01*
X010228Y025058D01*
X010255Y025061D01*
X010283Y025060D01*
X010310Y025055D01*
X010336Y025047D01*
X010360Y025035D01*
X010383Y025019D01*
X010404Y025001D01*
X010421Y024980D01*
X010436Y024956D01*
X010447Y024931D01*
X010455Y024905D01*
X010459Y024878D01*
X010459Y024850D01*
X010455Y024823D01*
X010447Y024797D01*
X010436Y024772D01*
X010421Y024748D01*
X010404Y024727D01*
X010383Y024709D01*
X010361Y024693D01*
X010336Y024681D01*
X010310Y024673D01*
X010283Y024668D01*
X010255Y024667D01*
X010228Y024670D01*
X010201Y024677D01*
X010176Y024687D01*
X010152Y024701D01*
X010130Y024718D01*
X010111Y024737D01*
X010095Y024760D01*
X010082Y024784D01*
X010073Y024810D01*
X010067Y024837D01*
X010065Y024864D01*
X010065Y024903D02*
X010067Y024930D01*
X010073Y024957D01*
X010082Y024983D01*
X010095Y025007D01*
X010111Y025030D01*
X010130Y025049D01*
X010152Y025066D01*
X010176Y025080D01*
X010201Y025090D01*
X010228Y025097D01*
X010255Y025100D01*
X010283Y025099D01*
X010310Y025094D01*
X010336Y025086D01*
X010360Y025074D01*
X010383Y025058D01*
X010404Y025040D01*
X010421Y025019D01*
X010436Y024995D01*
X010447Y024970D01*
X010455Y024944D01*
X010459Y024917D01*
X010459Y024889D01*
X010455Y024862D01*
X010447Y024836D01*
X010436Y024811D01*
X010421Y024787D01*
X010404Y024766D01*
X010383Y024748D01*
X010361Y024732D01*
X010336Y024720D01*
X010310Y024712D01*
X010283Y024707D01*
X010255Y024706D01*
X010228Y024709D01*
X010201Y024716D01*
X010176Y024726D01*
X010152Y024740D01*
X010130Y024757D01*
X010111Y024776D01*
X010095Y024799D01*
X010082Y024823D01*
X010073Y024849D01*
X010067Y024876D01*
X010065Y024903D01*
X010065Y024942D02*
X010067Y024969D01*
X010073Y024996D01*
X010082Y025022D01*
X010095Y025046D01*
X010111Y025069D01*
X010130Y025088D01*
X010152Y025105D01*
X010176Y025119D01*
X010201Y025129D01*
X010228Y025136D01*
X010255Y025139D01*
X010283Y025138D01*
X010310Y025133D01*
X010336Y025125D01*
X010360Y025113D01*
X010383Y025097D01*
X010404Y025079D01*
X010421Y025058D01*
X010436Y025034D01*
X010447Y025009D01*
X010455Y024983D01*
X010459Y024956D01*
X010459Y024928D01*
X010455Y024901D01*
X010447Y024875D01*
X010436Y024850D01*
X010421Y024826D01*
X010404Y024805D01*
X010383Y024787D01*
X010361Y024771D01*
X010336Y024759D01*
X010310Y024751D01*
X010283Y024746D01*
X010255Y024745D01*
X010228Y024748D01*
X010201Y024755D01*
X010176Y024765D01*
X010152Y024779D01*
X010130Y024796D01*
X010111Y024815D01*
X010095Y024838D01*
X010082Y024862D01*
X010073Y024888D01*
X010067Y024915D01*
X010065Y024942D01*
X010067Y024969D01*
X010073Y024996D01*
X010082Y025022D01*
X010095Y025046D01*
X010111Y025069D01*
X010130Y025088D01*
X010152Y025105D01*
X010176Y025119D01*
X010201Y025129D01*
X010228Y025136D01*
X010255Y025139D01*
X010283Y025138D01*
X010310Y025133D01*
X010336Y025125D01*
X010360Y025113D01*
X010383Y025097D01*
X010404Y025079D01*
X010421Y025058D01*
X010436Y025034D01*
X010447Y025009D01*
X010455Y024983D01*
X010459Y024956D01*
X010459Y024928D01*
X010455Y024901D01*
X010447Y024875D01*
X010436Y024850D01*
X010421Y024826D01*
X010404Y024805D01*
X010383Y024787D01*
X010361Y024771D01*
X010336Y024759D01*
X010310Y024751D01*
X010283Y024746D01*
X010255Y024745D01*
X010228Y024748D01*
X010201Y024755D01*
X010176Y024765D01*
X010152Y024779D01*
X010130Y024796D01*
X010111Y024815D01*
X010095Y024838D01*
X010082Y024862D01*
X010073Y024888D01*
X010067Y024915D01*
X010065Y024942D01*
X010065Y024982D02*
X010067Y025009D01*
X010073Y025036D01*
X010082Y025062D01*
X010095Y025086D01*
X010111Y025109D01*
X010130Y025128D01*
X010152Y025145D01*
X010176Y025159D01*
X010201Y025169D01*
X010228Y025176D01*
X010255Y025179D01*
X010283Y025178D01*
X010310Y025173D01*
X010336Y025165D01*
X010360Y025153D01*
X010383Y025137D01*
X010404Y025119D01*
X010421Y025098D01*
X010436Y025074D01*
X010447Y025049D01*
X010455Y025023D01*
X010459Y024996D01*
X010459Y024968D01*
X010455Y024941D01*
X010447Y024915D01*
X010436Y024890D01*
X010421Y024866D01*
X010404Y024845D01*
X010383Y024827D01*
X010361Y024811D01*
X010336Y024799D01*
X010310Y024791D01*
X010283Y024786D01*
X010255Y024785D01*
X010228Y024788D01*
X010201Y024795D01*
X010176Y024805D01*
X010152Y024819D01*
X010130Y024836D01*
X010111Y024855D01*
X010095Y024878D01*
X010082Y024902D01*
X010073Y024928D01*
X010067Y024955D01*
X010065Y024982D01*
X010065Y025021D02*
X010067Y025048D01*
X010073Y025075D01*
X010082Y025101D01*
X010095Y025125D01*
X010111Y025148D01*
X010130Y025167D01*
X010152Y025184D01*
X010176Y025198D01*
X010201Y025208D01*
X010228Y025215D01*
X010255Y025218D01*
X010283Y025217D01*
X010310Y025212D01*
X010336Y025204D01*
X010360Y025192D01*
X010383Y025176D01*
X010404Y025158D01*
X010421Y025137D01*
X010436Y025113D01*
X010447Y025088D01*
X010455Y025062D01*
X010459Y025035D01*
X010459Y025007D01*
X010455Y024980D01*
X010447Y024954D01*
X010436Y024929D01*
X010421Y024905D01*
X010404Y024884D01*
X010383Y024866D01*
X010361Y024850D01*
X010336Y024838D01*
X010310Y024830D01*
X010283Y024825D01*
X010255Y024824D01*
X010228Y024827D01*
X010201Y024834D01*
X010176Y024844D01*
X010152Y024858D01*
X010130Y024875D01*
X010111Y024894D01*
X010095Y024917D01*
X010082Y024941D01*
X010073Y024967D01*
X010067Y024994D01*
X010065Y025021D01*
X010065Y025060D02*
X010067Y025087D01*
X010073Y025114D01*
X010082Y025140D01*
X010095Y025164D01*
X010111Y025187D01*
X010130Y025206D01*
X010152Y025223D01*
X010176Y025237D01*
X010201Y025247D01*
X010228Y025254D01*
X010255Y025257D01*
X010283Y025256D01*
X010310Y025251D01*
X010336Y025243D01*
X010360Y025231D01*
X010383Y025215D01*
X010404Y025197D01*
X010421Y025176D01*
X010436Y025152D01*
X010447Y025127D01*
X010455Y025101D01*
X010459Y025074D01*
X010459Y025046D01*
X010455Y025019D01*
X010447Y024993D01*
X010436Y024968D01*
X010421Y024944D01*
X010404Y024923D01*
X010383Y024905D01*
X010361Y024889D01*
X010336Y024877D01*
X010310Y024869D01*
X010283Y024864D01*
X010255Y024863D01*
X010228Y024866D01*
X010201Y024873D01*
X010176Y024883D01*
X010152Y024897D01*
X010130Y024914D01*
X010111Y024933D01*
X010095Y024956D01*
X010082Y024980D01*
X010073Y025006D01*
X010067Y025033D01*
X010065Y025060D01*
X010065Y025100D02*
X010067Y025127D01*
X010073Y025154D01*
X010082Y025180D01*
X010095Y025204D01*
X010111Y025227D01*
X010130Y025246D01*
X010152Y025263D01*
X010176Y025277D01*
X010201Y025287D01*
X010228Y025294D01*
X010255Y025297D01*
X010283Y025296D01*
X010310Y025291D01*
X010336Y025283D01*
X010360Y025271D01*
X010383Y025255D01*
X010404Y025237D01*
X010421Y025216D01*
X010436Y025192D01*
X010447Y025167D01*
X010455Y025141D01*
X010459Y025114D01*
X010459Y025086D01*
X010455Y025059D01*
X010447Y025033D01*
X010436Y025008D01*
X010421Y024984D01*
X010404Y024963D01*
X010383Y024945D01*
X010361Y024929D01*
X010336Y024917D01*
X010310Y024909D01*
X010283Y024904D01*
X010255Y024903D01*
X010228Y024906D01*
X010201Y024913D01*
X010176Y024923D01*
X010152Y024937D01*
X010130Y024954D01*
X010111Y024973D01*
X010095Y024996D01*
X010082Y025020D01*
X010073Y025046D01*
X010067Y025073D01*
X010065Y025100D01*
X010065Y025139D02*
X010067Y025166D01*
X010073Y025193D01*
X010082Y025219D01*
X010095Y025243D01*
X010111Y025266D01*
X010130Y025285D01*
X010152Y025302D01*
X010176Y025316D01*
X010201Y025326D01*
X010228Y025333D01*
X010255Y025336D01*
X010283Y025335D01*
X010310Y025330D01*
X010336Y025322D01*
X010360Y025310D01*
X010383Y025294D01*
X010404Y025276D01*
X010421Y025255D01*
X010436Y025231D01*
X010447Y025206D01*
X010455Y025180D01*
X010459Y025153D01*
X010459Y025125D01*
X010455Y025098D01*
X010447Y025072D01*
X010436Y025047D01*
X010421Y025023D01*
X010404Y025002D01*
X010383Y024984D01*
X010361Y024968D01*
X010336Y024956D01*
X010310Y024948D01*
X010283Y024943D01*
X010255Y024942D01*
X010228Y024945D01*
X010201Y024952D01*
X010176Y024962D01*
X010152Y024976D01*
X010130Y024993D01*
X010111Y025012D01*
X010095Y025035D01*
X010082Y025059D01*
X010073Y025085D01*
X010067Y025112D01*
X010065Y025139D01*
X010065Y025179D02*
X010067Y025206D01*
X010073Y025233D01*
X010082Y025259D01*
X010095Y025283D01*
X010111Y025306D01*
X010130Y025325D01*
X010152Y025342D01*
X010176Y025356D01*
X010201Y025366D01*
X010228Y025373D01*
X010255Y025376D01*
X010283Y025375D01*
X010310Y025370D01*
X010336Y025362D01*
X010360Y025350D01*
X010383Y025334D01*
X010404Y025316D01*
X010421Y025295D01*
X010436Y025271D01*
X010447Y025246D01*
X010455Y025220D01*
X010459Y025193D01*
X010459Y025165D01*
X010455Y025138D01*
X010447Y025112D01*
X010436Y025087D01*
X010421Y025063D01*
X010404Y025042D01*
X010383Y025024D01*
X010361Y025008D01*
X010336Y024996D01*
X010310Y024988D01*
X010283Y024983D01*
X010255Y024982D01*
X010228Y024985D01*
X010201Y024992D01*
X010176Y025002D01*
X010152Y025016D01*
X010130Y025033D01*
X010111Y025052D01*
X010095Y025075D01*
X010082Y025099D01*
X010073Y025125D01*
X010067Y025152D01*
X010065Y025179D01*
X010065Y025218D02*
X010067Y025245D01*
X010073Y025272D01*
X010082Y025298D01*
X010095Y025322D01*
X010111Y025345D01*
X010130Y025364D01*
X010152Y025381D01*
X010176Y025395D01*
X010201Y025405D01*
X010228Y025412D01*
X010255Y025415D01*
X010283Y025414D01*
X010310Y025409D01*
X010336Y025401D01*
X010360Y025389D01*
X010383Y025373D01*
X010404Y025355D01*
X010421Y025334D01*
X010436Y025310D01*
X010447Y025285D01*
X010455Y025259D01*
X010459Y025232D01*
X010459Y025204D01*
X010455Y025177D01*
X010447Y025151D01*
X010436Y025126D01*
X010421Y025102D01*
X010404Y025081D01*
X010383Y025063D01*
X010361Y025047D01*
X010336Y025035D01*
X010310Y025027D01*
X010283Y025022D01*
X010255Y025021D01*
X010228Y025024D01*
X010201Y025031D01*
X010176Y025041D01*
X010152Y025055D01*
X010130Y025072D01*
X010111Y025091D01*
X010095Y025114D01*
X010082Y025138D01*
X010073Y025164D01*
X010067Y025191D01*
X010065Y025218D01*
X010065Y025257D02*
X010067Y025284D01*
X010073Y025311D01*
X010082Y025337D01*
X010095Y025361D01*
X010111Y025384D01*
X010130Y025403D01*
X010152Y025420D01*
X010176Y025434D01*
X010201Y025444D01*
X010228Y025451D01*
X010255Y025454D01*
X010283Y025453D01*
X010310Y025448D01*
X010336Y025440D01*
X010360Y025428D01*
X010383Y025412D01*
X010404Y025394D01*
X010421Y025373D01*
X010436Y025349D01*
X010447Y025324D01*
X010455Y025298D01*
X010459Y025271D01*
X010459Y025243D01*
X010455Y025216D01*
X010447Y025190D01*
X010436Y025165D01*
X010421Y025141D01*
X010404Y025120D01*
X010383Y025102D01*
X010361Y025086D01*
X010336Y025074D01*
X010310Y025066D01*
X010283Y025061D01*
X010255Y025060D01*
X010228Y025063D01*
X010201Y025070D01*
X010176Y025080D01*
X010152Y025094D01*
X010130Y025111D01*
X010111Y025130D01*
X010095Y025153D01*
X010082Y025177D01*
X010073Y025203D01*
X010067Y025230D01*
X010065Y025257D01*
X007644Y025179D02*
X007646Y025204D01*
X007652Y025228D01*
X007661Y025250D01*
X007674Y025271D01*
X007690Y025290D01*
X007709Y025306D01*
X007730Y025319D01*
X007752Y025328D01*
X007776Y025334D01*
X007801Y025336D01*
X007826Y025334D01*
X007850Y025328D01*
X007872Y025319D01*
X007893Y025306D01*
X007912Y025290D01*
X007928Y025271D01*
X007941Y025250D01*
X007950Y025228D01*
X007956Y025204D01*
X007958Y025179D01*
X007956Y025154D01*
X007950Y025130D01*
X007941Y025108D01*
X007928Y025087D01*
X007912Y025068D01*
X007893Y025052D01*
X007872Y025039D01*
X007850Y025030D01*
X007826Y025024D01*
X007801Y025022D01*
X007776Y025024D01*
X007752Y025030D01*
X007730Y025039D01*
X007709Y025052D01*
X007690Y025068D01*
X007674Y025087D01*
X007661Y025108D01*
X007652Y025130D01*
X007646Y025154D01*
X007644Y025179D01*
X007644Y025139D02*
X007646Y025164D01*
X007652Y025188D01*
X007661Y025210D01*
X007674Y025231D01*
X007690Y025250D01*
X007709Y025266D01*
X007730Y025279D01*
X007752Y025288D01*
X007776Y025294D01*
X007801Y025296D01*
X007826Y025294D01*
X007850Y025288D01*
X007872Y025279D01*
X007893Y025266D01*
X007912Y025250D01*
X007928Y025231D01*
X007941Y025210D01*
X007950Y025188D01*
X007956Y025164D01*
X007958Y025139D01*
X007956Y025114D01*
X007950Y025090D01*
X007941Y025068D01*
X007928Y025047D01*
X007912Y025028D01*
X007893Y025012D01*
X007872Y024999D01*
X007850Y024990D01*
X007826Y024984D01*
X007801Y024982D01*
X007776Y024984D01*
X007752Y024990D01*
X007730Y024999D01*
X007709Y025012D01*
X007690Y025028D01*
X007674Y025047D01*
X007661Y025068D01*
X007652Y025090D01*
X007646Y025114D01*
X007644Y025139D01*
X007644Y025100D02*
X007646Y025125D01*
X007652Y025149D01*
X007661Y025171D01*
X007674Y025192D01*
X007690Y025211D01*
X007709Y025227D01*
X007730Y025240D01*
X007752Y025249D01*
X007776Y025255D01*
X007801Y025257D01*
X007826Y025255D01*
X007850Y025249D01*
X007872Y025240D01*
X007893Y025227D01*
X007912Y025211D01*
X007928Y025192D01*
X007941Y025171D01*
X007950Y025149D01*
X007956Y025125D01*
X007958Y025100D01*
X007956Y025075D01*
X007950Y025051D01*
X007941Y025029D01*
X007928Y025008D01*
X007912Y024989D01*
X007893Y024973D01*
X007872Y024960D01*
X007850Y024951D01*
X007826Y024945D01*
X007801Y024943D01*
X007776Y024945D01*
X007752Y024951D01*
X007730Y024960D01*
X007709Y024973D01*
X007690Y024989D01*
X007674Y025008D01*
X007661Y025029D01*
X007652Y025051D01*
X007646Y025075D01*
X007644Y025100D01*
X007644Y025060D02*
X007646Y025085D01*
X007652Y025109D01*
X007661Y025131D01*
X007674Y025152D01*
X007690Y025171D01*
X007709Y025187D01*
X007730Y025200D01*
X007752Y025209D01*
X007776Y025215D01*
X007801Y025217D01*
X007826Y025215D01*
X007850Y025209D01*
X007872Y025200D01*
X007893Y025187D01*
X007912Y025171D01*
X007928Y025152D01*
X007941Y025131D01*
X007950Y025109D01*
X007956Y025085D01*
X007958Y025060D01*
X007956Y025035D01*
X007950Y025011D01*
X007941Y024989D01*
X007928Y024968D01*
X007912Y024949D01*
X007893Y024933D01*
X007872Y024920D01*
X007850Y024911D01*
X007826Y024905D01*
X007801Y024903D01*
X007776Y024905D01*
X007752Y024911D01*
X007730Y024920D01*
X007709Y024933D01*
X007690Y024949D01*
X007674Y024968D01*
X007661Y024989D01*
X007652Y025011D01*
X007646Y025035D01*
X007644Y025060D01*
X007644Y025021D02*
X007646Y025046D01*
X007652Y025070D01*
X007661Y025092D01*
X007674Y025113D01*
X007690Y025132D01*
X007709Y025148D01*
X007730Y025161D01*
X007752Y025170D01*
X007776Y025176D01*
X007801Y025178D01*
X007826Y025176D01*
X007850Y025170D01*
X007872Y025161D01*
X007893Y025148D01*
X007912Y025132D01*
X007928Y025113D01*
X007941Y025092D01*
X007950Y025070D01*
X007956Y025046D01*
X007958Y025021D01*
X007956Y024996D01*
X007950Y024972D01*
X007941Y024950D01*
X007928Y024929D01*
X007912Y024910D01*
X007893Y024894D01*
X007872Y024881D01*
X007850Y024872D01*
X007826Y024866D01*
X007801Y024864D01*
X007776Y024866D01*
X007752Y024872D01*
X007730Y024881D01*
X007709Y024894D01*
X007690Y024910D01*
X007674Y024929D01*
X007661Y024950D01*
X007652Y024972D01*
X007646Y024996D01*
X007644Y025021D01*
X007644Y024982D02*
X007646Y025007D01*
X007652Y025031D01*
X007661Y025053D01*
X007674Y025074D01*
X007690Y025093D01*
X007709Y025109D01*
X007730Y025122D01*
X007752Y025131D01*
X007776Y025137D01*
X007801Y025139D01*
X007826Y025137D01*
X007850Y025131D01*
X007872Y025122D01*
X007893Y025109D01*
X007912Y025093D01*
X007928Y025074D01*
X007941Y025053D01*
X007950Y025031D01*
X007956Y025007D01*
X007958Y024982D01*
X007956Y024957D01*
X007950Y024933D01*
X007941Y024911D01*
X007928Y024890D01*
X007912Y024871D01*
X007893Y024855D01*
X007872Y024842D01*
X007850Y024833D01*
X007826Y024827D01*
X007801Y024825D01*
X007776Y024827D01*
X007752Y024833D01*
X007730Y024842D01*
X007709Y024855D01*
X007690Y024871D01*
X007674Y024890D01*
X007661Y024911D01*
X007652Y024933D01*
X007646Y024957D01*
X007644Y024982D01*
X007644Y024942D02*
X007646Y024967D01*
X007652Y024991D01*
X007661Y025013D01*
X007674Y025034D01*
X007690Y025053D01*
X007709Y025069D01*
X007730Y025082D01*
X007752Y025091D01*
X007776Y025097D01*
X007801Y025099D01*
X007826Y025097D01*
X007850Y025091D01*
X007872Y025082D01*
X007893Y025069D01*
X007912Y025053D01*
X007928Y025034D01*
X007941Y025013D01*
X007950Y024991D01*
X007956Y024967D01*
X007958Y024942D01*
X007956Y024917D01*
X007950Y024893D01*
X007941Y024871D01*
X007928Y024850D01*
X007912Y024831D01*
X007893Y024815D01*
X007872Y024802D01*
X007850Y024793D01*
X007826Y024787D01*
X007801Y024785D01*
X007776Y024787D01*
X007752Y024793D01*
X007730Y024802D01*
X007709Y024815D01*
X007690Y024831D01*
X007674Y024850D01*
X007661Y024871D01*
X007652Y024893D01*
X007646Y024917D01*
X007644Y024942D01*
X007644Y024903D02*
X007646Y024928D01*
X007652Y024952D01*
X007661Y024974D01*
X007674Y024995D01*
X007690Y025014D01*
X007709Y025030D01*
X007730Y025043D01*
X007752Y025052D01*
X007776Y025058D01*
X007801Y025060D01*
X007826Y025058D01*
X007850Y025052D01*
X007872Y025043D01*
X007893Y025030D01*
X007912Y025014D01*
X007928Y024995D01*
X007941Y024974D01*
X007950Y024952D01*
X007956Y024928D01*
X007958Y024903D01*
X007956Y024878D01*
X007950Y024854D01*
X007941Y024832D01*
X007928Y024811D01*
X007912Y024792D01*
X007893Y024776D01*
X007872Y024763D01*
X007850Y024754D01*
X007826Y024748D01*
X007801Y024746D01*
X007776Y024748D01*
X007752Y024754D01*
X007730Y024763D01*
X007709Y024776D01*
X007690Y024792D01*
X007674Y024811D01*
X007661Y024832D01*
X007652Y024854D01*
X007646Y024878D01*
X007644Y024903D01*
X007644Y024864D02*
X007646Y024889D01*
X007652Y024913D01*
X007661Y024935D01*
X007674Y024956D01*
X007690Y024975D01*
X007709Y024991D01*
X007730Y025004D01*
X007752Y025013D01*
X007776Y025019D01*
X007801Y025021D01*
X007826Y025019D01*
X007850Y025013D01*
X007872Y025004D01*
X007893Y024991D01*
X007912Y024975D01*
X007928Y024956D01*
X007941Y024935D01*
X007950Y024913D01*
X007956Y024889D01*
X007958Y024864D01*
X007956Y024839D01*
X007950Y024815D01*
X007941Y024793D01*
X007928Y024772D01*
X007912Y024753D01*
X007893Y024737D01*
X007872Y024724D01*
X007850Y024715D01*
X007826Y024709D01*
X007801Y024707D01*
X007776Y024709D01*
X007752Y024715D01*
X007730Y024724D01*
X007709Y024737D01*
X007690Y024753D01*
X007674Y024772D01*
X007661Y024793D01*
X007652Y024815D01*
X007646Y024839D01*
X007644Y024864D01*
X007644Y024824D02*
X007646Y024849D01*
X007652Y024873D01*
X007661Y024895D01*
X007674Y024916D01*
X007690Y024935D01*
X007709Y024951D01*
X007730Y024964D01*
X007752Y024973D01*
X007776Y024979D01*
X007801Y024981D01*
X007826Y024979D01*
X007850Y024973D01*
X007872Y024964D01*
X007893Y024951D01*
X007912Y024935D01*
X007928Y024916D01*
X007941Y024895D01*
X007950Y024873D01*
X007956Y024849D01*
X007958Y024824D01*
X007956Y024799D01*
X007950Y024775D01*
X007941Y024753D01*
X007928Y024732D01*
X007912Y024713D01*
X007893Y024697D01*
X007872Y024684D01*
X007850Y024675D01*
X007826Y024669D01*
X007801Y024667D01*
X007776Y024669D01*
X007752Y024675D01*
X007730Y024684D01*
X007709Y024697D01*
X007690Y024713D01*
X007674Y024732D01*
X007661Y024753D01*
X007652Y024775D01*
X007646Y024799D01*
X007644Y024824D01*
X007644Y024785D02*
X007646Y024810D01*
X007652Y024834D01*
X007661Y024856D01*
X007674Y024877D01*
X007690Y024896D01*
X007709Y024912D01*
X007730Y024925D01*
X007752Y024934D01*
X007776Y024940D01*
X007801Y024942D01*
X007826Y024940D01*
X007850Y024934D01*
X007872Y024925D01*
X007893Y024912D01*
X007912Y024896D01*
X007928Y024877D01*
X007941Y024856D01*
X007950Y024834D01*
X007956Y024810D01*
X007958Y024785D01*
X007956Y024760D01*
X007950Y024736D01*
X007941Y024714D01*
X007928Y024693D01*
X007912Y024674D01*
X007893Y024658D01*
X007872Y024645D01*
X007850Y024636D01*
X007826Y024630D01*
X007801Y024628D01*
X007776Y024630D01*
X007752Y024636D01*
X007730Y024645D01*
X007709Y024658D01*
X007690Y024674D01*
X007674Y024693D01*
X007661Y024714D01*
X007652Y024736D01*
X007646Y024760D01*
X007644Y024785D01*
X007644Y024746D02*
X007646Y024771D01*
X007652Y024795D01*
X007661Y024817D01*
X007674Y024838D01*
X007690Y024857D01*
X007709Y024873D01*
X007730Y024886D01*
X007752Y024895D01*
X007776Y024901D01*
X007801Y024903D01*
X007826Y024901D01*
X007850Y024895D01*
X007872Y024886D01*
X007893Y024873D01*
X007912Y024857D01*
X007928Y024838D01*
X007941Y024817D01*
X007950Y024795D01*
X007956Y024771D01*
X007958Y024746D01*
X007956Y024721D01*
X007950Y024697D01*
X007941Y024675D01*
X007928Y024654D01*
X007912Y024635D01*
X007893Y024619D01*
X007872Y024606D01*
X007850Y024597D01*
X007826Y024591D01*
X007801Y024589D01*
X007776Y024591D01*
X007752Y024597D01*
X007730Y024606D01*
X007709Y024619D01*
X007690Y024635D01*
X007674Y024654D01*
X007661Y024675D01*
X007652Y024697D01*
X007646Y024721D01*
X007644Y024746D01*
X007644Y024706D02*
X007646Y024731D01*
X007652Y024755D01*
X007661Y024777D01*
X007674Y024798D01*
X007690Y024817D01*
X007709Y024833D01*
X007730Y024846D01*
X007752Y024855D01*
X007776Y024861D01*
X007801Y024863D01*
X007826Y024861D01*
X007850Y024855D01*
X007872Y024846D01*
X007893Y024833D01*
X007912Y024817D01*
X007928Y024798D01*
X007941Y024777D01*
X007950Y024755D01*
X007956Y024731D01*
X007958Y024706D01*
X007956Y024681D01*
X007950Y024657D01*
X007941Y024635D01*
X007928Y024614D01*
X007912Y024595D01*
X007893Y024579D01*
X007872Y024566D01*
X007850Y024557D01*
X007826Y024551D01*
X007801Y024549D01*
X007776Y024551D01*
X007752Y024557D01*
X007730Y024566D01*
X007709Y024579D01*
X007690Y024595D01*
X007674Y024614D01*
X007661Y024635D01*
X007652Y024657D01*
X007646Y024681D01*
X007644Y024706D01*
X007644Y024667D02*
X007646Y024692D01*
X007652Y024716D01*
X007661Y024738D01*
X007674Y024759D01*
X007690Y024778D01*
X007709Y024794D01*
X007730Y024807D01*
X007752Y024816D01*
X007776Y024822D01*
X007801Y024824D01*
X007826Y024822D01*
X007850Y024816D01*
X007872Y024807D01*
X007893Y024794D01*
X007912Y024778D01*
X007928Y024759D01*
X007941Y024738D01*
X007950Y024716D01*
X007956Y024692D01*
X007958Y024667D01*
X007956Y024642D01*
X007950Y024618D01*
X007941Y024596D01*
X007928Y024575D01*
X007912Y024556D01*
X007893Y024540D01*
X007872Y024527D01*
X007850Y024518D01*
X007826Y024512D01*
X007801Y024510D01*
X007776Y024512D01*
X007752Y024518D01*
X007730Y024527D01*
X007709Y024540D01*
X007690Y024556D01*
X007674Y024575D01*
X007661Y024596D01*
X007652Y024618D01*
X007646Y024642D01*
X007644Y024667D01*
X007644Y024627D02*
X007646Y024652D01*
X007652Y024676D01*
X007661Y024698D01*
X007674Y024719D01*
X007690Y024738D01*
X007709Y024754D01*
X007730Y024767D01*
X007752Y024776D01*
X007776Y024782D01*
X007801Y024784D01*
X007826Y024782D01*
X007850Y024776D01*
X007872Y024767D01*
X007893Y024754D01*
X007912Y024738D01*
X007928Y024719D01*
X007941Y024698D01*
X007950Y024676D01*
X007956Y024652D01*
X007958Y024627D01*
X007956Y024602D01*
X007950Y024578D01*
X007941Y024556D01*
X007928Y024535D01*
X007912Y024516D01*
X007893Y024500D01*
X007872Y024487D01*
X007850Y024478D01*
X007826Y024472D01*
X007801Y024470D01*
X007776Y024472D01*
X007752Y024478D01*
X007730Y024487D01*
X007709Y024500D01*
X007690Y024516D01*
X007674Y024535D01*
X007661Y024556D01*
X007652Y024578D01*
X007646Y024602D01*
X007644Y024627D01*
X007644Y024549D02*
X007646Y024574D01*
X007652Y024598D01*
X007661Y024620D01*
X007674Y024641D01*
X007690Y024660D01*
X007709Y024676D01*
X007730Y024689D01*
X007752Y024698D01*
X007776Y024704D01*
X007801Y024706D01*
X007826Y024704D01*
X007850Y024698D01*
X007872Y024689D01*
X007893Y024676D01*
X007912Y024660D01*
X007928Y024641D01*
X007941Y024620D01*
X007950Y024598D01*
X007956Y024574D01*
X007958Y024549D01*
X007956Y024524D01*
X007950Y024500D01*
X007941Y024478D01*
X007928Y024457D01*
X007912Y024438D01*
X007893Y024422D01*
X007872Y024409D01*
X007850Y024400D01*
X007826Y024394D01*
X007801Y024392D01*
X007776Y024394D01*
X007752Y024400D01*
X007730Y024409D01*
X007709Y024422D01*
X007690Y024438D01*
X007674Y024457D01*
X007661Y024478D01*
X007652Y024500D01*
X007646Y024524D01*
X007644Y024549D01*
X007644Y024509D02*
X007646Y024534D01*
X007652Y024558D01*
X007661Y024580D01*
X007674Y024601D01*
X007690Y024620D01*
X007709Y024636D01*
X007730Y024649D01*
X007752Y024658D01*
X007776Y024664D01*
X007801Y024666D01*
X007826Y024664D01*
X007850Y024658D01*
X007872Y024649D01*
X007893Y024636D01*
X007912Y024620D01*
X007928Y024601D01*
X007941Y024580D01*
X007950Y024558D01*
X007956Y024534D01*
X007958Y024509D01*
X007956Y024484D01*
X007950Y024460D01*
X007941Y024438D01*
X007928Y024417D01*
X007912Y024398D01*
X007893Y024382D01*
X007872Y024369D01*
X007850Y024360D01*
X007826Y024354D01*
X007801Y024352D01*
X007776Y024354D01*
X007752Y024360D01*
X007730Y024369D01*
X007709Y024382D01*
X007690Y024398D01*
X007674Y024417D01*
X007661Y024438D01*
X007652Y024460D01*
X007646Y024484D01*
X007644Y024509D01*
X007644Y024470D02*
X007646Y024495D01*
X007652Y024519D01*
X007661Y024541D01*
X007674Y024562D01*
X007690Y024581D01*
X007709Y024597D01*
X007730Y024610D01*
X007752Y024619D01*
X007776Y024625D01*
X007801Y024627D01*
X007826Y024625D01*
X007850Y024619D01*
X007872Y024610D01*
X007893Y024597D01*
X007912Y024581D01*
X007928Y024562D01*
X007941Y024541D01*
X007950Y024519D01*
X007956Y024495D01*
X007958Y024470D01*
X007956Y024445D01*
X007950Y024421D01*
X007941Y024399D01*
X007928Y024378D01*
X007912Y024359D01*
X007893Y024343D01*
X007872Y024330D01*
X007850Y024321D01*
X007826Y024315D01*
X007801Y024313D01*
X007776Y024315D01*
X007752Y024321D01*
X007730Y024330D01*
X007709Y024343D01*
X007690Y024359D01*
X007674Y024378D01*
X007661Y024399D01*
X007652Y024421D01*
X007646Y024445D01*
X007644Y024470D01*
X007644Y024431D02*
X007646Y024456D01*
X007652Y024480D01*
X007661Y024502D01*
X007674Y024523D01*
X007690Y024542D01*
X007709Y024558D01*
X007730Y024571D01*
X007752Y024580D01*
X007776Y024586D01*
X007801Y024588D01*
X007826Y024586D01*
X007850Y024580D01*
X007872Y024571D01*
X007893Y024558D01*
X007912Y024542D01*
X007928Y024523D01*
X007941Y024502D01*
X007950Y024480D01*
X007956Y024456D01*
X007958Y024431D01*
X007956Y024406D01*
X007950Y024382D01*
X007941Y024360D01*
X007928Y024339D01*
X007912Y024320D01*
X007893Y024304D01*
X007872Y024291D01*
X007850Y024282D01*
X007826Y024276D01*
X007801Y024274D01*
X007776Y024276D01*
X007752Y024282D01*
X007730Y024291D01*
X007709Y024304D01*
X007690Y024320D01*
X007674Y024339D01*
X007661Y024360D01*
X007652Y024382D01*
X007646Y024406D01*
X007644Y024431D01*
X007644Y024391D02*
X007646Y024416D01*
X007652Y024440D01*
X007661Y024462D01*
X007674Y024483D01*
X007690Y024502D01*
X007709Y024518D01*
X007730Y024531D01*
X007752Y024540D01*
X007776Y024546D01*
X007801Y024548D01*
X007826Y024546D01*
X007850Y024540D01*
X007872Y024531D01*
X007893Y024518D01*
X007912Y024502D01*
X007928Y024483D01*
X007941Y024462D01*
X007950Y024440D01*
X007956Y024416D01*
X007958Y024391D01*
X007956Y024366D01*
X007950Y024342D01*
X007941Y024320D01*
X007928Y024299D01*
X007912Y024280D01*
X007893Y024264D01*
X007872Y024251D01*
X007850Y024242D01*
X007826Y024236D01*
X007801Y024234D01*
X007776Y024236D01*
X007752Y024242D01*
X007730Y024251D01*
X007709Y024264D01*
X007690Y024280D01*
X007674Y024299D01*
X007661Y024320D01*
X007652Y024342D01*
X007646Y024366D01*
X007644Y024391D01*
X007644Y024352D02*
X007646Y024377D01*
X007652Y024401D01*
X007661Y024423D01*
X007674Y024444D01*
X007690Y024463D01*
X007709Y024479D01*
X007730Y024492D01*
X007752Y024501D01*
X007776Y024507D01*
X007801Y024509D01*
X007826Y024507D01*
X007850Y024501D01*
X007872Y024492D01*
X007893Y024479D01*
X007912Y024463D01*
X007928Y024444D01*
X007941Y024423D01*
X007950Y024401D01*
X007956Y024377D01*
X007958Y024352D01*
X007956Y024327D01*
X007950Y024303D01*
X007941Y024281D01*
X007928Y024260D01*
X007912Y024241D01*
X007893Y024225D01*
X007872Y024212D01*
X007850Y024203D01*
X007826Y024197D01*
X007801Y024195D01*
X007776Y024197D01*
X007752Y024203D01*
X007730Y024212D01*
X007709Y024225D01*
X007690Y024241D01*
X007674Y024260D01*
X007661Y024281D01*
X007652Y024303D01*
X007646Y024327D01*
X007644Y024352D01*
X007644Y024312D02*
X007646Y024337D01*
X007652Y024361D01*
X007661Y024383D01*
X007674Y024404D01*
X007690Y024423D01*
X007709Y024439D01*
X007730Y024452D01*
X007752Y024461D01*
X007776Y024467D01*
X007801Y024469D01*
X007826Y024467D01*
X007850Y024461D01*
X007872Y024452D01*
X007893Y024439D01*
X007912Y024423D01*
X007928Y024404D01*
X007941Y024383D01*
X007950Y024361D01*
X007956Y024337D01*
X007958Y024312D01*
X007956Y024287D01*
X007950Y024263D01*
X007941Y024241D01*
X007928Y024220D01*
X007912Y024201D01*
X007893Y024185D01*
X007872Y024172D01*
X007850Y024163D01*
X007826Y024157D01*
X007801Y024155D01*
X007776Y024157D01*
X007752Y024163D01*
X007730Y024172D01*
X007709Y024185D01*
X007690Y024201D01*
X007674Y024220D01*
X007661Y024241D01*
X007652Y024263D01*
X007646Y024287D01*
X007644Y024312D01*
X007644Y024273D02*
X007646Y024298D01*
X007652Y024322D01*
X007661Y024344D01*
X007674Y024365D01*
X007690Y024384D01*
X007709Y024400D01*
X007730Y024413D01*
X007752Y024422D01*
X007776Y024428D01*
X007801Y024430D01*
X007826Y024428D01*
X007850Y024422D01*
X007872Y024413D01*
X007893Y024400D01*
X007912Y024384D01*
X007928Y024365D01*
X007941Y024344D01*
X007950Y024322D01*
X007956Y024298D01*
X007958Y024273D01*
X007956Y024248D01*
X007950Y024224D01*
X007941Y024202D01*
X007928Y024181D01*
X007912Y024162D01*
X007893Y024146D01*
X007872Y024133D01*
X007850Y024124D01*
X007826Y024118D01*
X007801Y024116D01*
X007776Y024118D01*
X007752Y024124D01*
X007730Y024133D01*
X007709Y024146D01*
X007690Y024162D01*
X007674Y024181D01*
X007661Y024202D01*
X007652Y024224D01*
X007646Y024248D01*
X007644Y024273D01*
X007644Y024234D02*
X007646Y024259D01*
X007652Y024283D01*
X007661Y024305D01*
X007674Y024326D01*
X007690Y024345D01*
X007709Y024361D01*
X007730Y024374D01*
X007752Y024383D01*
X007776Y024389D01*
X007801Y024391D01*
X007826Y024389D01*
X007850Y024383D01*
X007872Y024374D01*
X007893Y024361D01*
X007912Y024345D01*
X007928Y024326D01*
X007941Y024305D01*
X007950Y024283D01*
X007956Y024259D01*
X007958Y024234D01*
X007956Y024209D01*
X007950Y024185D01*
X007941Y024163D01*
X007928Y024142D01*
X007912Y024123D01*
X007893Y024107D01*
X007872Y024094D01*
X007850Y024085D01*
X007826Y024079D01*
X007801Y024077D01*
X007776Y024079D01*
X007752Y024085D01*
X007730Y024094D01*
X007709Y024107D01*
X007690Y024123D01*
X007674Y024142D01*
X007661Y024163D01*
X007652Y024185D01*
X007646Y024209D01*
X007644Y024234D01*
X007644Y024194D02*
X007646Y024219D01*
X007652Y024243D01*
X007661Y024265D01*
X007674Y024286D01*
X007690Y024305D01*
X007709Y024321D01*
X007730Y024334D01*
X007752Y024343D01*
X007776Y024349D01*
X007801Y024351D01*
X007826Y024349D01*
X007850Y024343D01*
X007872Y024334D01*
X007893Y024321D01*
X007912Y024305D01*
X007928Y024286D01*
X007941Y024265D01*
X007950Y024243D01*
X007956Y024219D01*
X007958Y024194D01*
X007956Y024169D01*
X007950Y024145D01*
X007941Y024123D01*
X007928Y024102D01*
X007912Y024083D01*
X007893Y024067D01*
X007872Y024054D01*
X007850Y024045D01*
X007826Y024039D01*
X007801Y024037D01*
X007776Y024039D01*
X007752Y024045D01*
X007730Y024054D01*
X007709Y024067D01*
X007690Y024083D01*
X007674Y024102D01*
X007661Y024123D01*
X007652Y024145D01*
X007646Y024169D01*
X007644Y024194D01*
X007644Y024155D02*
X007646Y024180D01*
X007652Y024204D01*
X007661Y024226D01*
X007674Y024247D01*
X007690Y024266D01*
X007709Y024282D01*
X007730Y024295D01*
X007752Y024304D01*
X007776Y024310D01*
X007801Y024312D01*
X007826Y024310D01*
X007850Y024304D01*
X007872Y024295D01*
X007893Y024282D01*
X007912Y024266D01*
X007928Y024247D01*
X007941Y024226D01*
X007950Y024204D01*
X007956Y024180D01*
X007958Y024155D01*
X007956Y024130D01*
X007950Y024106D01*
X007941Y024084D01*
X007928Y024063D01*
X007912Y024044D01*
X007893Y024028D01*
X007872Y024015D01*
X007850Y024006D01*
X007826Y024000D01*
X007801Y023998D01*
X007776Y024000D01*
X007752Y024006D01*
X007730Y024015D01*
X007709Y024028D01*
X007690Y024044D01*
X007674Y024063D01*
X007661Y024084D01*
X007652Y024106D01*
X007646Y024130D01*
X007644Y024155D01*
X007644Y024116D02*
X007646Y024141D01*
X007652Y024165D01*
X007661Y024187D01*
X007674Y024208D01*
X007690Y024227D01*
X007709Y024243D01*
X007730Y024256D01*
X007752Y024265D01*
X007776Y024271D01*
X007801Y024273D01*
X007826Y024271D01*
X007850Y024265D01*
X007872Y024256D01*
X007893Y024243D01*
X007912Y024227D01*
X007928Y024208D01*
X007941Y024187D01*
X007950Y024165D01*
X007956Y024141D01*
X007958Y024116D01*
X007956Y024091D01*
X007950Y024067D01*
X007941Y024045D01*
X007928Y024024D01*
X007912Y024005D01*
X007893Y023989D01*
X007872Y023976D01*
X007850Y023967D01*
X007826Y023961D01*
X007801Y023959D01*
X007776Y023961D01*
X007752Y023967D01*
X007730Y023976D01*
X007709Y023989D01*
X007690Y024005D01*
X007674Y024024D01*
X007661Y024045D01*
X007652Y024067D01*
X007646Y024091D01*
X007644Y024116D01*
X007644Y024076D02*
X007646Y024101D01*
X007652Y024125D01*
X007661Y024147D01*
X007674Y024168D01*
X007690Y024187D01*
X007709Y024203D01*
X007730Y024216D01*
X007752Y024225D01*
X007776Y024231D01*
X007801Y024233D01*
X007826Y024231D01*
X007850Y024225D01*
X007872Y024216D01*
X007893Y024203D01*
X007912Y024187D01*
X007928Y024168D01*
X007941Y024147D01*
X007950Y024125D01*
X007956Y024101D01*
X007958Y024076D01*
X007956Y024051D01*
X007950Y024027D01*
X007941Y024005D01*
X007928Y023984D01*
X007912Y023965D01*
X007893Y023949D01*
X007872Y023936D01*
X007850Y023927D01*
X007826Y023921D01*
X007801Y023919D01*
X007776Y023921D01*
X007752Y023927D01*
X007730Y023936D01*
X007709Y023949D01*
X007690Y023965D01*
X007674Y023984D01*
X007661Y024005D01*
X007652Y024027D01*
X007646Y024051D01*
X007644Y024076D01*
X007644Y024037D02*
X007646Y024062D01*
X007652Y024086D01*
X007661Y024108D01*
X007674Y024129D01*
X007690Y024148D01*
X007709Y024164D01*
X007730Y024177D01*
X007752Y024186D01*
X007776Y024192D01*
X007801Y024194D01*
X007826Y024192D01*
X007850Y024186D01*
X007872Y024177D01*
X007893Y024164D01*
X007912Y024148D01*
X007928Y024129D01*
X007941Y024108D01*
X007950Y024086D01*
X007956Y024062D01*
X007958Y024037D01*
X007956Y024012D01*
X007950Y023988D01*
X007941Y023966D01*
X007928Y023945D01*
X007912Y023926D01*
X007893Y023910D01*
X007872Y023897D01*
X007850Y023888D01*
X007826Y023882D01*
X007801Y023880D01*
X007776Y023882D01*
X007752Y023888D01*
X007730Y023897D01*
X007709Y023910D01*
X007690Y023926D01*
X007674Y023945D01*
X007661Y023966D01*
X007652Y023988D01*
X007646Y024012D01*
X007644Y024037D01*
X007644Y023997D02*
X007646Y024022D01*
X007652Y024046D01*
X007661Y024068D01*
X007674Y024089D01*
X007690Y024108D01*
X007709Y024124D01*
X007730Y024137D01*
X007752Y024146D01*
X007776Y024152D01*
X007801Y024154D01*
X007826Y024152D01*
X007850Y024146D01*
X007872Y024137D01*
X007893Y024124D01*
X007912Y024108D01*
X007928Y024089D01*
X007941Y024068D01*
X007950Y024046D01*
X007956Y024022D01*
X007958Y023997D01*
X007956Y023972D01*
X007950Y023948D01*
X007941Y023926D01*
X007928Y023905D01*
X007912Y023886D01*
X007893Y023870D01*
X007872Y023857D01*
X007850Y023848D01*
X007826Y023842D01*
X007801Y023840D01*
X007776Y023842D01*
X007752Y023848D01*
X007730Y023857D01*
X007709Y023870D01*
X007690Y023886D01*
X007674Y023905D01*
X007661Y023926D01*
X007652Y023948D01*
X007646Y023972D01*
X007644Y023997D01*
X012093Y025769D02*
X012095Y025810D01*
X012101Y025851D01*
X012111Y025891D01*
X012124Y025930D01*
X012141Y025967D01*
X012162Y026003D01*
X012186Y026037D01*
X012213Y026068D01*
X012242Y026096D01*
X012275Y026122D01*
X012309Y026144D01*
X012346Y026163D01*
X012384Y026178D01*
X012424Y026190D01*
X012464Y026198D01*
X012505Y026202D01*
X012547Y026202D01*
X012588Y026198D01*
X012628Y026190D01*
X012668Y026178D01*
X012706Y026163D01*
X012742Y026144D01*
X012777Y026122D01*
X012810Y026096D01*
X012839Y026068D01*
X012866Y026037D01*
X012890Y026003D01*
X012911Y025967D01*
X012928Y025930D01*
X012941Y025891D01*
X012951Y025851D01*
X012957Y025810D01*
X012959Y025769D01*
X012957Y025728D01*
X012951Y025687D01*
X012941Y025647D01*
X012928Y025608D01*
X012911Y025571D01*
X012890Y025535D01*
X012866Y025501D01*
X012839Y025470D01*
X012810Y025442D01*
X012777Y025416D01*
X012743Y025394D01*
X012706Y025375D01*
X012668Y025360D01*
X012628Y025348D01*
X012588Y025340D01*
X012547Y025336D01*
X012505Y025336D01*
X012464Y025340D01*
X012424Y025348D01*
X012384Y025360D01*
X012346Y025375D01*
X012310Y025394D01*
X012275Y025416D01*
X012242Y025442D01*
X012213Y025470D01*
X012186Y025501D01*
X012162Y025535D01*
X012141Y025571D01*
X012124Y025608D01*
X012111Y025647D01*
X012101Y025687D01*
X012095Y025728D01*
X012093Y025769D01*
X023923Y026064D02*
X023925Y026093D01*
X023931Y026121D01*
X023940Y026149D01*
X023953Y026175D01*
X023970Y026198D01*
X023989Y026220D01*
X024011Y026239D01*
X024036Y026254D01*
X024062Y026267D01*
X024090Y026275D01*
X024118Y026280D01*
X024147Y026281D01*
X024176Y026278D01*
X024204Y026271D01*
X024231Y026261D01*
X024257Y026247D01*
X024280Y026230D01*
X024301Y026210D01*
X024319Y026187D01*
X024334Y026162D01*
X024345Y026135D01*
X024353Y026107D01*
X024357Y026078D01*
X024357Y026050D01*
X024353Y026021D01*
X024345Y025993D01*
X024334Y025966D01*
X024319Y025941D01*
X024301Y025918D01*
X024280Y025898D01*
X024257Y025881D01*
X024231Y025867D01*
X024204Y025857D01*
X024176Y025850D01*
X024147Y025847D01*
X024118Y025848D01*
X024090Y025853D01*
X024062Y025861D01*
X024036Y025874D01*
X024011Y025889D01*
X023989Y025908D01*
X023970Y025930D01*
X023953Y025953D01*
X023940Y025979D01*
X023931Y026007D01*
X023925Y026035D01*
X023923Y026064D01*
X023923Y023112D02*
X023925Y023141D01*
X023931Y023169D01*
X023940Y023197D01*
X023953Y023223D01*
X023970Y023246D01*
X023989Y023268D01*
X024011Y023287D01*
X024036Y023302D01*
X024062Y023315D01*
X024090Y023323D01*
X024118Y023328D01*
X024147Y023329D01*
X024176Y023326D01*
X024204Y023319D01*
X024231Y023309D01*
X024257Y023295D01*
X024280Y023278D01*
X024301Y023258D01*
X024319Y023235D01*
X024334Y023210D01*
X024345Y023183D01*
X024353Y023155D01*
X024357Y023126D01*
X024357Y023098D01*
X024353Y023069D01*
X024345Y023041D01*
X024334Y023014D01*
X024319Y022989D01*
X024301Y022966D01*
X024280Y022946D01*
X024257Y022929D01*
X024231Y022915D01*
X024204Y022905D01*
X024176Y022898D01*
X024147Y022895D01*
X024118Y022896D01*
X024090Y022901D01*
X024062Y022909D01*
X024036Y022922D01*
X024011Y022937D01*
X023989Y022956D01*
X023970Y022978D01*
X023953Y023001D01*
X023940Y023027D01*
X023931Y023055D01*
X023925Y023083D01*
X023923Y023112D01*
M02*
