G75*
%MOIN*%
%OFA0B0*%
%FSLAX24Y24*%
%IPPOS*%
%LPD*%
%AMOC8*
5,1,8,0,0,1.08239X$1,22.5*
%
%ADD10C,0.0000*%
%ADD11C,0.0060*%
%ADD12C,0.0040*%
%ADD13C,0.0020*%
%ADD14C,0.0079*%
%ADD15C,0.0050*%
D10*
X000198Y000198D02*
X000198Y015946D01*
X012009Y015946D01*
X012009Y000198D01*
X000198Y000198D01*
X000750Y001380D02*
X000752Y001430D01*
X000758Y001480D01*
X000768Y001529D01*
X000782Y001577D01*
X000799Y001624D01*
X000820Y001669D01*
X000845Y001713D01*
X000873Y001754D01*
X000905Y001793D01*
X000939Y001830D01*
X000976Y001864D01*
X001016Y001894D01*
X001058Y001921D01*
X001102Y001945D01*
X001148Y001966D01*
X001195Y001982D01*
X001243Y001995D01*
X001293Y002004D01*
X001342Y002009D01*
X001393Y002010D01*
X001443Y002007D01*
X001492Y002000D01*
X001541Y001989D01*
X001589Y001974D01*
X001635Y001956D01*
X001680Y001934D01*
X001723Y001908D01*
X001764Y001879D01*
X001803Y001847D01*
X001839Y001812D01*
X001871Y001774D01*
X001901Y001734D01*
X001928Y001691D01*
X001951Y001647D01*
X001970Y001601D01*
X001986Y001553D01*
X001998Y001504D01*
X002006Y001455D01*
X002010Y001405D01*
X002010Y001355D01*
X002006Y001305D01*
X001998Y001256D01*
X001986Y001207D01*
X001970Y001159D01*
X001951Y001113D01*
X001928Y001069D01*
X001901Y001026D01*
X001871Y000986D01*
X001839Y000948D01*
X001803Y000913D01*
X001764Y000881D01*
X001723Y000852D01*
X001680Y000826D01*
X001635Y000804D01*
X001589Y000786D01*
X001541Y000771D01*
X001492Y000760D01*
X001443Y000753D01*
X001393Y000750D01*
X001342Y000751D01*
X001293Y000756D01*
X001243Y000765D01*
X001195Y000778D01*
X001148Y000794D01*
X001102Y000815D01*
X001058Y000839D01*
X001016Y000866D01*
X000976Y000896D01*
X000939Y000930D01*
X000905Y000967D01*
X000873Y001006D01*
X000845Y001047D01*
X000820Y001091D01*
X000799Y001136D01*
X000782Y001183D01*
X000768Y001231D01*
X000758Y001280D01*
X000752Y001330D01*
X000750Y001380D01*
X010198Y001380D02*
X010200Y001430D01*
X010206Y001480D01*
X010216Y001529D01*
X010230Y001577D01*
X010247Y001624D01*
X010268Y001669D01*
X010293Y001713D01*
X010321Y001754D01*
X010353Y001793D01*
X010387Y001830D01*
X010424Y001864D01*
X010464Y001894D01*
X010506Y001921D01*
X010550Y001945D01*
X010596Y001966D01*
X010643Y001982D01*
X010691Y001995D01*
X010741Y002004D01*
X010790Y002009D01*
X010841Y002010D01*
X010891Y002007D01*
X010940Y002000D01*
X010989Y001989D01*
X011037Y001974D01*
X011083Y001956D01*
X011128Y001934D01*
X011171Y001908D01*
X011212Y001879D01*
X011251Y001847D01*
X011287Y001812D01*
X011319Y001774D01*
X011349Y001734D01*
X011376Y001691D01*
X011399Y001647D01*
X011418Y001601D01*
X011434Y001553D01*
X011446Y001504D01*
X011454Y001455D01*
X011458Y001405D01*
X011458Y001355D01*
X011454Y001305D01*
X011446Y001256D01*
X011434Y001207D01*
X011418Y001159D01*
X011399Y001113D01*
X011376Y001069D01*
X011349Y001026D01*
X011319Y000986D01*
X011287Y000948D01*
X011251Y000913D01*
X011212Y000881D01*
X011171Y000852D01*
X011128Y000826D01*
X011083Y000804D01*
X011037Y000786D01*
X010989Y000771D01*
X010940Y000760D01*
X010891Y000753D01*
X010841Y000750D01*
X010790Y000751D01*
X010741Y000756D01*
X010691Y000765D01*
X010643Y000778D01*
X010596Y000794D01*
X010550Y000815D01*
X010506Y000839D01*
X010464Y000866D01*
X010424Y000896D01*
X010387Y000930D01*
X010353Y000967D01*
X010321Y001006D01*
X010293Y001047D01*
X010268Y001091D01*
X010247Y001136D01*
X010230Y001183D01*
X010216Y001231D01*
X010206Y001280D01*
X010200Y001330D01*
X010198Y001380D01*
X010198Y014765D02*
X010200Y014815D01*
X010206Y014865D01*
X010216Y014914D01*
X010230Y014962D01*
X010247Y015009D01*
X010268Y015054D01*
X010293Y015098D01*
X010321Y015139D01*
X010353Y015178D01*
X010387Y015215D01*
X010424Y015249D01*
X010464Y015279D01*
X010506Y015306D01*
X010550Y015330D01*
X010596Y015351D01*
X010643Y015367D01*
X010691Y015380D01*
X010741Y015389D01*
X010790Y015394D01*
X010841Y015395D01*
X010891Y015392D01*
X010940Y015385D01*
X010989Y015374D01*
X011037Y015359D01*
X011083Y015341D01*
X011128Y015319D01*
X011171Y015293D01*
X011212Y015264D01*
X011251Y015232D01*
X011287Y015197D01*
X011319Y015159D01*
X011349Y015119D01*
X011376Y015076D01*
X011399Y015032D01*
X011418Y014986D01*
X011434Y014938D01*
X011446Y014889D01*
X011454Y014840D01*
X011458Y014790D01*
X011458Y014740D01*
X011454Y014690D01*
X011446Y014641D01*
X011434Y014592D01*
X011418Y014544D01*
X011399Y014498D01*
X011376Y014454D01*
X011349Y014411D01*
X011319Y014371D01*
X011287Y014333D01*
X011251Y014298D01*
X011212Y014266D01*
X011171Y014237D01*
X011128Y014211D01*
X011083Y014189D01*
X011037Y014171D01*
X010989Y014156D01*
X010940Y014145D01*
X010891Y014138D01*
X010841Y014135D01*
X010790Y014136D01*
X010741Y014141D01*
X010691Y014150D01*
X010643Y014163D01*
X010596Y014179D01*
X010550Y014200D01*
X010506Y014224D01*
X010464Y014251D01*
X010424Y014281D01*
X010387Y014315D01*
X010353Y014352D01*
X010321Y014391D01*
X010293Y014432D01*
X010268Y014476D01*
X010247Y014521D01*
X010230Y014568D01*
X010216Y014616D01*
X010206Y014665D01*
X010200Y014715D01*
X010198Y014765D01*
X000750Y014765D02*
X000752Y014815D01*
X000758Y014865D01*
X000768Y014914D01*
X000782Y014962D01*
X000799Y015009D01*
X000820Y015054D01*
X000845Y015098D01*
X000873Y015139D01*
X000905Y015178D01*
X000939Y015215D01*
X000976Y015249D01*
X001016Y015279D01*
X001058Y015306D01*
X001102Y015330D01*
X001148Y015351D01*
X001195Y015367D01*
X001243Y015380D01*
X001293Y015389D01*
X001342Y015394D01*
X001393Y015395D01*
X001443Y015392D01*
X001492Y015385D01*
X001541Y015374D01*
X001589Y015359D01*
X001635Y015341D01*
X001680Y015319D01*
X001723Y015293D01*
X001764Y015264D01*
X001803Y015232D01*
X001839Y015197D01*
X001871Y015159D01*
X001901Y015119D01*
X001928Y015076D01*
X001951Y015032D01*
X001970Y014986D01*
X001986Y014938D01*
X001998Y014889D01*
X002006Y014840D01*
X002010Y014790D01*
X002010Y014740D01*
X002006Y014690D01*
X001998Y014641D01*
X001986Y014592D01*
X001970Y014544D01*
X001951Y014498D01*
X001928Y014454D01*
X001901Y014411D01*
X001871Y014371D01*
X001839Y014333D01*
X001803Y014298D01*
X001764Y014266D01*
X001723Y014237D01*
X001680Y014211D01*
X001635Y014189D01*
X001589Y014171D01*
X001541Y014156D01*
X001492Y014145D01*
X001443Y014138D01*
X001393Y014135D01*
X001342Y014136D01*
X001293Y014141D01*
X001243Y014150D01*
X001195Y014163D01*
X001148Y014179D01*
X001102Y014200D01*
X001058Y014224D01*
X001016Y014251D01*
X000976Y014281D01*
X000939Y014315D01*
X000905Y014352D01*
X000873Y014391D01*
X000845Y014432D01*
X000820Y014476D01*
X000799Y014521D01*
X000782Y014568D01*
X000768Y014616D01*
X000758Y014665D01*
X000752Y014715D01*
X000750Y014765D01*
D11*
X003772Y007949D02*
X003772Y007616D01*
X004044Y007616D01*
X004631Y007616D02*
X004892Y007616D01*
X004892Y007949D01*
D12*
X004966Y006856D02*
X004966Y006396D01*
X004813Y006396D02*
X005120Y006396D01*
X004813Y006703D02*
X004966Y006856D01*
X004659Y006856D02*
X004352Y006856D01*
X004199Y006856D02*
X003892Y006856D01*
X003892Y006396D01*
X004199Y006396D01*
X004045Y006626D02*
X003892Y006626D01*
X003738Y006856D02*
X003431Y006856D01*
X003431Y006396D01*
X003431Y006626D02*
X003585Y006626D01*
X004506Y006396D02*
X004506Y006856D01*
D13*
X005798Y006688D02*
X005798Y006504D01*
X005844Y006458D01*
X005936Y006458D01*
X005982Y006504D01*
X006070Y006413D02*
X006254Y006413D01*
X006342Y006458D02*
X006342Y006734D01*
X006526Y006458D01*
X006526Y006734D01*
X006614Y006688D02*
X006614Y006504D01*
X006660Y006458D01*
X006752Y006458D01*
X006798Y006504D01*
X006798Y006688D01*
X006752Y006734D01*
X006660Y006734D01*
X006614Y006688D01*
X006886Y006734D02*
X006978Y006734D01*
X006932Y006734D02*
X006932Y006458D01*
X006886Y006458D02*
X006978Y006458D01*
X007067Y006504D02*
X007113Y006458D01*
X007205Y006458D01*
X007251Y006504D01*
X007251Y006550D01*
X007205Y006596D01*
X007113Y006596D01*
X007067Y006642D01*
X007067Y006688D01*
X007113Y006734D01*
X007205Y006734D01*
X007251Y006688D01*
X007339Y006734D02*
X007339Y006458D01*
X007523Y006458D01*
X007431Y006596D02*
X007339Y006596D01*
X007339Y006734D02*
X007523Y006734D01*
X008598Y008427D02*
X008598Y008702D01*
X008736Y008702D01*
X008782Y008657D01*
X008782Y008565D01*
X008736Y008519D01*
X008598Y008519D01*
X008690Y008519D02*
X008782Y008427D01*
X008870Y008427D02*
X009054Y008427D01*
X008962Y008427D02*
X008962Y008702D01*
X008870Y008611D01*
X008870Y009411D02*
X009054Y009595D01*
X009054Y009641D01*
X009008Y009687D01*
X008916Y009687D01*
X008870Y009641D01*
X008782Y009641D02*
X008782Y009549D01*
X008736Y009503D01*
X008598Y009503D01*
X008690Y009503D02*
X008782Y009411D01*
X008870Y009411D02*
X009054Y009411D01*
X008782Y009641D02*
X008736Y009687D01*
X008598Y009687D01*
X008598Y009411D01*
X008598Y010395D02*
X008598Y010671D01*
X008736Y010671D01*
X008782Y010625D01*
X008782Y010533D01*
X008736Y010487D01*
X008598Y010487D01*
X008690Y010487D02*
X008782Y010395D01*
X008870Y010441D02*
X008916Y010395D01*
X009008Y010395D01*
X009054Y010441D01*
X009054Y010487D01*
X009008Y010533D01*
X008962Y010533D01*
X009008Y010533D02*
X009054Y010579D01*
X009054Y010625D01*
X009008Y010671D01*
X008916Y010671D01*
X008870Y010625D01*
X008144Y010789D02*
X007961Y010789D01*
X008052Y010789D02*
X008052Y011065D01*
X007961Y010973D01*
X007872Y011019D02*
X007826Y011065D01*
X007735Y011065D01*
X007689Y011019D01*
X007689Y010835D01*
X007735Y010789D01*
X007826Y010789D01*
X007872Y010835D01*
X007872Y010927D01*
X007781Y010927D01*
X007601Y010743D02*
X007417Y010743D01*
X007329Y010789D02*
X007237Y010881D01*
X007283Y010881D02*
X007145Y010881D01*
X007145Y010789D02*
X007145Y011065D01*
X007283Y011065D01*
X007329Y011019D01*
X007329Y010927D01*
X007283Y010881D01*
X005979Y009641D02*
X005933Y009687D01*
X005841Y009687D01*
X005795Y009641D01*
X005707Y009641D02*
X005661Y009687D01*
X005569Y009687D01*
X005523Y009641D01*
X005523Y009457D01*
X005569Y009411D01*
X005661Y009411D01*
X005707Y009457D01*
X005707Y009549D01*
X005615Y009549D01*
X005435Y009365D02*
X005251Y009365D01*
X005163Y009411D02*
X005071Y009503D01*
X005117Y009503D02*
X004980Y009503D01*
X004980Y009411D02*
X004980Y009687D01*
X005117Y009687D01*
X005163Y009641D01*
X005163Y009549D01*
X005117Y009503D01*
X005795Y009411D02*
X005979Y009595D01*
X005979Y009641D01*
X005979Y009411D02*
X005795Y009411D01*
X005844Y006734D02*
X005798Y006688D01*
X005844Y006734D02*
X005936Y006734D01*
X005982Y006688D01*
X006071Y004175D02*
X006025Y004129D01*
X006025Y003945D01*
X006071Y003899D01*
X006163Y003899D01*
X006208Y003945D01*
X006297Y003853D02*
X006480Y003853D01*
X006569Y003945D02*
X006614Y003899D01*
X006706Y003899D01*
X006752Y003945D01*
X006752Y004129D01*
X006706Y004175D01*
X006614Y004175D01*
X006569Y004129D01*
X006569Y003945D01*
X006840Y003945D02*
X006886Y003899D01*
X006978Y003899D01*
X007024Y003945D01*
X007024Y004175D01*
X007112Y004175D02*
X007296Y004175D01*
X007204Y004175D02*
X007204Y003899D01*
X006840Y003945D02*
X006840Y004175D01*
X006208Y004129D02*
X006163Y004175D01*
X006071Y004175D01*
X004526Y003447D02*
X004342Y003447D01*
X004480Y003584D01*
X004480Y003309D01*
X004254Y003309D02*
X004162Y003401D01*
X004208Y003401D02*
X004070Y003401D01*
X004070Y003309D02*
X004070Y003584D01*
X004208Y003584D01*
X004254Y003538D01*
X004254Y003447D01*
X004208Y003401D01*
X007796Y003401D02*
X007934Y003401D01*
X007980Y003447D01*
X007980Y003538D01*
X007934Y003584D01*
X007796Y003584D01*
X007796Y003309D01*
X007888Y003401D02*
X007980Y003309D01*
X008068Y003263D02*
X008252Y003263D01*
X008340Y003401D02*
X008432Y003309D01*
X008524Y003401D01*
X008524Y003584D01*
X008612Y003584D02*
X008750Y003584D01*
X008796Y003538D01*
X008796Y003447D01*
X008750Y003401D01*
X008612Y003401D01*
X008612Y003309D02*
X008612Y003584D01*
X008340Y003584D02*
X008340Y003401D01*
X008341Y003958D02*
X008295Y004004D01*
X008295Y004188D01*
X008341Y004234D01*
X008433Y004234D01*
X008479Y004188D01*
X008567Y004188D02*
X008613Y004234D01*
X008705Y004234D01*
X008750Y004188D01*
X008750Y004142D01*
X008567Y003958D01*
X008750Y003958D01*
X008479Y004004D02*
X008433Y003958D01*
X008341Y003958D01*
X008205Y003958D02*
X008114Y003958D01*
X008160Y003958D02*
X008160Y004234D01*
X008205Y004234D02*
X008114Y004234D01*
X008884Y003584D02*
X008884Y003309D01*
X008884Y003401D02*
X009022Y003401D01*
X009068Y003447D01*
X009068Y003538D01*
X009022Y003584D01*
X008884Y003584D01*
X010789Y003391D02*
X010789Y003299D01*
X010835Y003253D01*
X011018Y003253D01*
X011064Y003299D01*
X011064Y003391D01*
X011018Y003437D01*
X011110Y003525D02*
X011110Y003709D01*
X011064Y003797D02*
X011064Y003889D01*
X011064Y003843D02*
X010789Y003843D01*
X010789Y003797D02*
X010789Y003889D01*
X010789Y003978D02*
X011064Y004162D01*
X010789Y004162D01*
X010789Y003978D02*
X011064Y003978D01*
X010835Y003437D02*
X010789Y003391D01*
X002300Y009260D02*
X002254Y009214D01*
X002116Y009214D01*
X002116Y009490D01*
X002254Y009490D01*
X002300Y009444D01*
X002300Y009398D01*
X002254Y009352D01*
X002116Y009352D01*
X002254Y009352D02*
X002300Y009306D01*
X002300Y009260D01*
X002028Y009168D02*
X001844Y009168D01*
X001756Y009214D02*
X001664Y009306D01*
X001710Y009306D02*
X001572Y009306D01*
X001572Y009214D02*
X001572Y009490D01*
X001710Y009490D01*
X001756Y009444D01*
X001756Y009352D01*
X001710Y009306D01*
X001844Y010940D02*
X002028Y010940D01*
X002116Y011032D02*
X002162Y010986D01*
X002254Y010986D01*
X002300Y011032D01*
X002300Y011124D01*
X002208Y011124D01*
X002300Y011216D02*
X002254Y011261D01*
X002162Y011261D01*
X002116Y011216D01*
X002116Y011032D01*
X001756Y010986D02*
X001664Y011078D01*
X001710Y011078D02*
X001572Y011078D01*
X001572Y010986D02*
X001572Y011261D01*
X001710Y011261D01*
X001756Y011216D01*
X001756Y011124D01*
X001710Y011078D01*
X001844Y012712D02*
X002028Y012712D01*
X002116Y012758D02*
X002116Y013033D01*
X002254Y013033D01*
X002300Y012987D01*
X002300Y012895D01*
X002254Y012849D01*
X002116Y012849D01*
X002208Y012849D02*
X002300Y012758D01*
X001756Y012758D02*
X001664Y012849D01*
X001710Y012849D02*
X001572Y012849D01*
X001572Y012758D02*
X001572Y013033D01*
X001710Y013033D01*
X001756Y012987D01*
X001756Y012895D01*
X001710Y012849D01*
D14*
X008161Y005513D02*
X008771Y005513D01*
X008771Y004332D01*
X008161Y004332D01*
X008161Y005513D01*
X008528Y004529D02*
X008530Y004543D01*
X008536Y004557D01*
X008544Y004569D01*
X008556Y004577D01*
X008570Y004583D01*
X008584Y004585D01*
X008598Y004583D01*
X008612Y004577D01*
X008624Y004569D01*
X008632Y004557D01*
X008638Y004543D01*
X008640Y004529D01*
X008638Y004515D01*
X008632Y004501D01*
X008624Y004489D01*
X008612Y004481D01*
X008598Y004475D01*
X008584Y004473D01*
X008570Y004475D01*
X008556Y004481D01*
X008544Y004489D01*
X008536Y004501D01*
X008530Y004515D01*
X008528Y004529D01*
D15*
X009391Y002273D02*
X003391Y002273D01*
X003391Y001273D01*
X009391Y001273D01*
X009391Y002273D01*
X010328Y005572D02*
X010328Y010572D01*
X011328Y010572D01*
X011328Y005572D01*
X010328Y005572D01*
M02*
