G75*
%MOIN*%
%OFA0B0*%
%FSLAX24Y24*%
%IPPOS*%
%LPD*%
%AMOC8*
5,1,8,0,0,1.08239X$1,22.5*
%
%ADD10R,0.0394X0.0551*%
%ADD11R,0.0315X0.0197*%
%ADD12C,0.0515*%
%ADD13C,0.0554*%
%ADD14R,0.0315X0.0394*%
%ADD15R,0.0394X0.0315*%
%ADD16OC8,0.0520*%
%ADD17C,0.0118*%
%ADD18R,0.0396X0.0396*%
%ADD19C,0.0396*%
%ADD20C,0.0197*%
%ADD21C,0.0157*%
%ADD22C,0.0475*%
%ADD23C,0.0160*%
D10*
X004332Y007443D03*
X003958Y008309D03*
X004706Y008309D03*
D11*
X007915Y005297D03*
X007915Y004549D03*
X009017Y004549D03*
X009017Y004923D03*
X009017Y005297D03*
D12*
X008891Y001773D03*
X007891Y001773D03*
X006891Y001773D03*
X005891Y001773D03*
X004891Y001773D03*
X003891Y001773D03*
D13*
X010828Y006072D03*
X010828Y007072D03*
X010828Y008072D03*
X010828Y009072D03*
X010828Y010072D03*
D14*
X009155Y010041D03*
X008565Y010041D03*
X008565Y009057D03*
X009155Y009057D03*
X009155Y008072D03*
X008565Y008072D03*
X006970Y005907D03*
X006419Y005907D03*
X006419Y004529D03*
X006970Y004529D03*
X008171Y002954D03*
X008761Y002954D03*
X004628Y003939D03*
X004037Y003939D03*
X002265Y008860D03*
X001675Y008860D03*
X001675Y010631D03*
X002265Y010631D03*
X002265Y012403D03*
X001675Y012403D03*
X005218Y010041D03*
X005809Y010041D03*
X007383Y011419D03*
X007974Y011419D03*
D15*
X010435Y004017D03*
X010435Y003466D03*
D16*
X002167Y005407D03*
X002167Y006407D03*
D17*
X003202Y007443D01*
X004332Y007443D01*
X004706Y008309D02*
X005809Y009411D01*
X005809Y010041D01*
X007187Y011419D01*
X007383Y011419D01*
X007974Y011419D02*
X009254Y011419D01*
X009647Y011813D01*
X009647Y012600D02*
X008466Y013781D01*
X004923Y013781D01*
X008565Y010041D02*
X008565Y009057D01*
X008565Y008072D01*
X008565Y006793D01*
X007876Y006104D01*
X007915Y005297D02*
X007580Y005297D01*
X006970Y005907D01*
X006970Y005120D02*
X006970Y004529D01*
X007895Y004529D01*
X007915Y004549D01*
X007659Y004549D01*
X006970Y005120D02*
X005317Y005120D01*
X004923Y004726D01*
X004923Y002954D02*
X006710Y002954D01*
X007891Y001773D01*
X007891Y002675D01*
X008171Y002954D01*
X008761Y002954D02*
X008891Y002824D01*
X008891Y001773D01*
X009155Y008072D02*
X010828Y008072D01*
X010813Y009057D02*
X009647Y009057D01*
X009647Y010238D01*
X010828Y011419D01*
X010828Y012403D01*
X008860Y014372D01*
X009647Y012600D02*
X009844Y012600D01*
X010435Y012009D01*
X010435Y011616D01*
X009254Y010435D01*
X009254Y010139D01*
X009155Y010041D01*
X009155Y009057D02*
X009647Y009057D01*
X010813Y009057D02*
X010828Y009072D01*
D18*
X004923Y004726D03*
X004923Y002954D03*
X001183Y008072D03*
X001183Y009844D03*
X001183Y011616D03*
D19*
X004923Y013781D03*
X008860Y014372D03*
X009647Y012600D03*
X007876Y006104D03*
D20*
X000697Y002288D02*
X000697Y013857D01*
X000944Y013714D01*
X001231Y013637D01*
X001528Y013637D01*
X001815Y013714D01*
X002072Y013862D01*
X002282Y014073D01*
X002431Y014330D01*
X002508Y014617D01*
X002508Y014914D01*
X002431Y015201D01*
X002288Y015448D01*
X009920Y015448D01*
X009777Y015201D01*
X009700Y014914D01*
X009700Y014617D01*
X009777Y014330D01*
X009925Y014073D01*
X010136Y013862D01*
X010393Y013714D01*
X010680Y013637D01*
X010977Y013637D01*
X011264Y013714D01*
X011511Y013857D01*
X011511Y002288D01*
X011264Y002431D01*
X010977Y002508D01*
X010680Y002508D01*
X010393Y002431D01*
X010136Y002282D01*
X009925Y002072D01*
X009777Y001815D01*
X009700Y001528D01*
X009700Y001231D01*
X009777Y000944D01*
X009920Y000697D01*
X002288Y000697D01*
X002431Y000944D01*
X002508Y001231D01*
X002508Y001528D01*
X002431Y001815D01*
X002282Y002072D01*
X002072Y002282D01*
X001815Y002431D01*
X001528Y002508D01*
X001231Y002508D01*
X000944Y002431D01*
X000697Y002288D01*
X000697Y002347D02*
X000799Y002347D01*
X000697Y002543D02*
X006786Y002543D01*
X006612Y002717D02*
X007459Y001869D01*
X007455Y001860D01*
X007455Y001687D01*
X007522Y001526D01*
X007644Y001404D01*
X007805Y001337D01*
X007978Y001337D01*
X008138Y001404D01*
X008261Y001526D01*
X008327Y001687D01*
X008327Y001860D01*
X008261Y002020D01*
X008138Y002143D01*
X008129Y002147D01*
X008129Y002576D01*
X008131Y002579D01*
X008402Y002579D01*
X008466Y002643D01*
X008530Y002579D01*
X008654Y002579D01*
X008654Y002147D01*
X008644Y002143D01*
X008522Y002020D01*
X008455Y001860D01*
X008455Y001687D01*
X008522Y001526D01*
X008644Y001404D01*
X008805Y001337D01*
X008978Y001337D01*
X009138Y001404D01*
X009261Y001526D01*
X009327Y001687D01*
X009327Y001860D01*
X009261Y002020D01*
X009138Y002143D01*
X009129Y002147D01*
X009129Y002923D01*
X009097Y002954D01*
X009097Y003225D01*
X008993Y003330D01*
X008530Y003330D01*
X008466Y003266D01*
X008402Y003330D01*
X007939Y003330D01*
X007835Y003225D01*
X007835Y002954D01*
X007793Y002912D01*
X007654Y002773D01*
X007654Y002347D01*
X007653Y002347D01*
X007654Y002347D02*
X006948Y003053D01*
X006809Y003192D01*
X005299Y003192D01*
X005299Y003226D01*
X005195Y003331D01*
X004651Y003331D01*
X004546Y003226D01*
X004546Y002682D01*
X004651Y002578D01*
X005195Y002578D01*
X005299Y002682D01*
X005299Y002717D01*
X006612Y002717D01*
X006872Y003129D02*
X007835Y003129D01*
X007814Y002933D02*
X007067Y002933D01*
X007262Y002738D02*
X007654Y002738D01*
X007654Y002543D02*
X007458Y002543D01*
X007177Y002152D02*
X007146Y002152D01*
X007130Y002163D02*
X007066Y002196D01*
X006998Y002218D01*
X006927Y002229D01*
X006891Y002229D01*
X006855Y002229D01*
X006785Y002218D01*
X006716Y002196D01*
X006652Y002163D01*
X006594Y002121D01*
X006544Y002070D01*
X006501Y002012D01*
X006469Y001948D01*
X006447Y001880D01*
X006435Y001809D01*
X006435Y001773D01*
X006435Y001737D01*
X006447Y001666D01*
X006469Y001598D01*
X006501Y001534D01*
X006544Y001476D01*
X006594Y001425D01*
X006652Y001383D01*
X006716Y001351D01*
X006785Y001329D01*
X006855Y001317D01*
X006891Y001317D01*
X006891Y001773D01*
X006435Y001773D01*
X006891Y001773D01*
X006891Y001773D01*
X006891Y001773D01*
X006891Y001317D01*
X006927Y001317D01*
X006998Y001329D01*
X007066Y001351D01*
X007130Y001383D01*
X007188Y001425D01*
X007239Y001476D01*
X007281Y001534D01*
X007314Y001598D01*
X007336Y001666D01*
X007347Y001737D01*
X007347Y001773D01*
X006891Y001773D01*
X006891Y002229D01*
X006891Y001773D01*
X006891Y001773D01*
X006891Y001773D01*
X007347Y001773D01*
X007347Y001809D01*
X007336Y001880D01*
X007314Y001948D01*
X007281Y002012D01*
X007239Y002070D01*
X007188Y002121D01*
X007130Y002163D01*
X006981Y002347D02*
X001960Y002347D01*
X002203Y002152D02*
X003667Y002152D01*
X003644Y002143D02*
X003522Y002020D01*
X003455Y001860D01*
X003455Y001687D01*
X003522Y001526D01*
X003644Y001404D01*
X003805Y001337D01*
X003978Y001337D01*
X004138Y001404D01*
X004261Y001526D01*
X004327Y001687D01*
X004327Y001860D01*
X004261Y002020D01*
X004138Y002143D01*
X003978Y002209D01*
X003805Y002209D01*
X003644Y002143D01*
X003495Y001957D02*
X002349Y001957D01*
X002445Y001761D02*
X003455Y001761D01*
X003505Y001566D02*
X002498Y001566D01*
X002508Y001371D02*
X003724Y001371D01*
X004058Y001371D02*
X004724Y001371D01*
X004644Y001404D02*
X004805Y001337D01*
X004978Y001337D01*
X005138Y001404D01*
X005261Y001526D01*
X005327Y001687D01*
X005327Y001860D01*
X005261Y002020D01*
X005138Y002143D01*
X004978Y002209D01*
X004805Y002209D01*
X004644Y002143D01*
X004522Y002020D01*
X004455Y001860D01*
X004455Y001687D01*
X004522Y001526D01*
X004644Y001404D01*
X004505Y001566D02*
X004277Y001566D01*
X004327Y001761D02*
X004455Y001761D01*
X004495Y001957D02*
X004287Y001957D01*
X004116Y002152D02*
X004667Y002152D01*
X005116Y002152D02*
X005667Y002152D01*
X005644Y002143D02*
X005522Y002020D01*
X005455Y001860D01*
X005455Y001687D01*
X005522Y001526D01*
X005644Y001404D01*
X005805Y001337D01*
X005978Y001337D01*
X006138Y001404D01*
X006261Y001526D01*
X006327Y001687D01*
X006327Y001860D01*
X006261Y002020D01*
X006138Y002143D01*
X005978Y002209D01*
X005805Y002209D01*
X005644Y002143D01*
X005495Y001957D02*
X005287Y001957D01*
X005327Y001761D02*
X005455Y001761D01*
X005505Y001566D02*
X005277Y001566D01*
X005058Y001371D02*
X005724Y001371D01*
X006058Y001371D02*
X006677Y001371D01*
X006485Y001566D02*
X006277Y001566D01*
X006327Y001761D02*
X006435Y001761D01*
X006473Y001957D02*
X006287Y001957D01*
X006116Y002152D02*
X006637Y002152D01*
X006891Y002152D02*
X006891Y002152D01*
X006891Y001957D02*
X006891Y001957D01*
X006891Y001761D02*
X006891Y001761D01*
X006891Y001566D02*
X006891Y001566D01*
X006891Y001371D02*
X006891Y001371D01*
X007105Y001371D02*
X007724Y001371D01*
X007505Y001566D02*
X007297Y001566D01*
X007347Y001761D02*
X007455Y001761D01*
X007372Y001957D02*
X007310Y001957D01*
X007793Y002912D02*
X007793Y002912D01*
X007934Y003324D02*
X005202Y003324D01*
X004859Y003563D02*
X004963Y003668D01*
X004963Y003681D01*
X008517Y003681D01*
X008612Y003721D01*
X009163Y004272D01*
X009698Y004272D01*
X009793Y004311D01*
X010571Y005089D01*
X010571Y004518D01*
X010407Y004353D01*
X010164Y004353D01*
X010059Y004249D01*
X010059Y003786D01*
X010089Y003756D01*
X010079Y003745D01*
X010053Y003700D01*
X010039Y003650D01*
X010039Y003466D01*
X010039Y003283D01*
X010053Y003232D01*
X010079Y003187D01*
X010116Y003150D01*
X010161Y003124D01*
X010212Y003110D01*
X010435Y003110D01*
X010658Y003110D01*
X010708Y003124D01*
X010753Y003150D01*
X010790Y003187D01*
X010816Y003232D01*
X010830Y003283D01*
X010830Y003466D01*
X010435Y003466D01*
X010435Y003466D01*
X010830Y003466D01*
X010830Y003650D01*
X010816Y003700D01*
X010790Y003745D01*
X010780Y003756D01*
X010810Y003786D01*
X010810Y004029D01*
X010974Y004193D01*
X011046Y004265D01*
X011086Y004360D01*
X011086Y005686D01*
X011215Y005814D01*
X011284Y005982D01*
X011284Y006163D01*
X011215Y006331D01*
X011086Y006459D01*
X010919Y006528D01*
X010738Y006528D01*
X010570Y006459D01*
X010442Y006331D01*
X010373Y006163D01*
X010373Y005982D01*
X010442Y005814D01*
X010505Y005751D01*
X009541Y004786D01*
X009370Y004786D01*
X009373Y004798D01*
X009373Y004923D01*
X009373Y005047D01*
X009360Y005098D01*
X009348Y005119D01*
X009353Y005125D01*
X009353Y005469D01*
X009249Y005574D01*
X008786Y005574D01*
X008681Y005469D01*
X008681Y005125D01*
X008687Y005119D01*
X008675Y005098D01*
X008661Y005047D01*
X008661Y004923D01*
X009017Y004923D01*
X009017Y004923D01*
X008661Y004923D01*
X008661Y004798D01*
X008675Y004748D01*
X008687Y004727D01*
X008681Y004721D01*
X008681Y004518D01*
X008360Y004196D01*
X007243Y004196D01*
X007306Y004258D01*
X007306Y004292D01*
X007664Y004292D01*
X007684Y004272D01*
X008146Y004272D01*
X008251Y004376D01*
X008251Y004721D01*
X008146Y004826D01*
X007684Y004826D01*
X007644Y004786D01*
X007561Y004786D01*
X007541Y004767D01*
X007306Y004767D01*
X007306Y004800D01*
X007208Y004898D01*
X007208Y005218D01*
X007068Y005357D01*
X005218Y005357D01*
X004964Y005103D01*
X004651Y005103D01*
X004546Y004998D01*
X004546Y004454D01*
X004651Y004349D01*
X005195Y004349D01*
X005299Y004454D01*
X005299Y004767D01*
X005415Y004882D01*
X006137Y004882D01*
X006103Y004848D01*
X006077Y004803D01*
X006063Y004752D01*
X006063Y004529D01*
X006063Y004306D01*
X006077Y004256D01*
X006103Y004210D01*
X006117Y004196D01*
X004963Y004196D01*
X004963Y004209D01*
X004859Y004314D01*
X004396Y004314D01*
X004332Y004250D01*
X004268Y004314D01*
X003806Y004314D01*
X003715Y004223D01*
X002605Y005332D01*
X002605Y005589D01*
X002349Y005846D01*
X001985Y005846D01*
X001729Y005589D01*
X001729Y005225D01*
X001985Y004969D01*
X002242Y004969D01*
X003417Y003793D01*
X003490Y003721D01*
X003584Y003681D01*
X003701Y003681D01*
X003701Y003668D01*
X003806Y003563D01*
X004268Y003563D01*
X004332Y003627D01*
X004396Y003563D01*
X004859Y003563D01*
X004644Y003324D02*
X000697Y003324D01*
X000697Y003129D02*
X004546Y003129D01*
X004546Y002933D02*
X000697Y002933D01*
X000697Y002738D02*
X004546Y002738D01*
X003504Y003715D02*
X000697Y003715D01*
X000697Y003910D02*
X003300Y003910D01*
X003105Y004105D02*
X000697Y004105D01*
X000697Y004301D02*
X002910Y004301D01*
X002714Y004496D02*
X000697Y004496D01*
X000697Y004691D02*
X002519Y004691D01*
X002323Y004887D02*
X000697Y004887D01*
X000697Y005082D02*
X001872Y005082D01*
X001729Y005278D02*
X000697Y005278D01*
X000697Y005473D02*
X001729Y005473D01*
X001808Y005668D02*
X000697Y005668D01*
X000697Y005864D02*
X006063Y005864D01*
X006063Y005907D02*
X006063Y005684D01*
X006077Y005634D01*
X006103Y005588D01*
X006140Y005551D01*
X006185Y005525D01*
X006235Y005512D01*
X006419Y005512D01*
X006603Y005512D01*
X006653Y005525D01*
X006698Y005551D01*
X006709Y005562D01*
X006739Y005532D01*
X007010Y005532D01*
X007482Y005059D01*
X007644Y005059D01*
X007684Y005020D01*
X008146Y005020D01*
X008251Y005125D01*
X008251Y005469D01*
X008146Y005574D01*
X007684Y005574D01*
X007661Y005552D01*
X007306Y005907D01*
X007306Y006178D01*
X007201Y006282D01*
X006739Y006282D01*
X006709Y006252D01*
X006698Y006263D01*
X006653Y006289D01*
X006603Y006302D01*
X006419Y006302D01*
X006419Y005907D01*
X006419Y005512D01*
X006419Y005907D01*
X006419Y005907D01*
X006419Y005907D01*
X006063Y005907D01*
X006419Y005907D01*
X006419Y005907D01*
X006419Y006302D01*
X006235Y006302D01*
X006185Y006289D01*
X006140Y006263D01*
X006103Y006226D01*
X006077Y006181D01*
X006063Y006130D01*
X006063Y005907D01*
X006063Y006059D02*
X002439Y006059D01*
X002349Y005969D02*
X002605Y006225D01*
X002605Y006510D01*
X003301Y007205D01*
X003957Y007205D01*
X003957Y007093D01*
X004062Y006989D01*
X004603Y006989D01*
X004708Y007093D01*
X004708Y007792D01*
X004645Y007855D01*
X004977Y007855D01*
X005082Y007959D01*
X005082Y008348D01*
X005907Y009174D01*
X006046Y009313D01*
X006046Y009672D01*
X006145Y009770D01*
X006145Y010041D01*
X007150Y011046D01*
X007152Y011044D01*
X007615Y011044D01*
X007679Y011108D01*
X007743Y011044D01*
X008205Y011044D01*
X008310Y011148D01*
X008310Y011181D01*
X009352Y011181D01*
X009567Y011397D01*
X009730Y011397D01*
X009883Y011460D01*
X010000Y011577D01*
X010063Y011730D01*
X010063Y011895D01*
X010000Y012048D01*
X009883Y012165D01*
X009732Y012228D01*
X009837Y012271D01*
X010197Y011911D01*
X010197Y011714D01*
X009155Y010672D01*
X009016Y010533D01*
X009016Y010416D01*
X008924Y010416D01*
X008860Y010352D01*
X008796Y010416D01*
X008333Y010416D01*
X008229Y010312D01*
X008229Y009770D01*
X008327Y009672D01*
X008327Y009426D01*
X008229Y009327D01*
X008229Y008786D01*
X008327Y008688D01*
X008327Y008442D01*
X008229Y008343D01*
X008229Y007802D01*
X008327Y007703D01*
X008327Y006891D01*
X007916Y006480D01*
X007801Y006480D01*
X007662Y006423D01*
X007556Y006317D01*
X007499Y006179D01*
X007499Y006029D01*
X007556Y005891D01*
X007662Y005785D01*
X007801Y005727D01*
X007950Y005727D01*
X008089Y005785D01*
X008195Y005891D01*
X008252Y006029D01*
X008252Y006145D01*
X008663Y006555D01*
X008802Y006695D01*
X008802Y007703D01*
X008860Y007761D01*
X008924Y007697D01*
X009387Y007697D01*
X009491Y007802D01*
X009491Y007835D01*
X010434Y007835D01*
X010442Y007814D01*
X010570Y007686D01*
X010738Y007617D01*
X010919Y007617D01*
X011086Y007686D01*
X011215Y007814D01*
X011284Y007982D01*
X011284Y008163D01*
X011215Y008331D01*
X011086Y008459D01*
X010919Y008528D01*
X010738Y008528D01*
X010570Y008459D01*
X010442Y008331D01*
X010434Y008310D01*
X009491Y008310D01*
X009491Y008343D01*
X009387Y008448D01*
X008924Y008448D01*
X008860Y008384D01*
X008802Y008442D01*
X008802Y008688D01*
X008860Y008745D01*
X008924Y008681D01*
X009387Y008681D01*
X009491Y008786D01*
X009491Y008819D01*
X010440Y008819D01*
X010442Y008814D01*
X010570Y008686D01*
X010738Y008617D01*
X010919Y008617D01*
X011086Y008686D01*
X011215Y008814D01*
X011284Y008982D01*
X011284Y009163D01*
X011215Y009331D01*
X011086Y009459D01*
X010919Y009528D01*
X010738Y009528D01*
X010570Y009459D01*
X010442Y009331D01*
X010427Y009294D01*
X009885Y009294D01*
X009885Y010139D01*
X011066Y011321D01*
X011066Y012502D01*
X010927Y012641D01*
X009236Y014331D01*
X009236Y014447D01*
X009179Y014585D01*
X009073Y014691D01*
X008935Y014748D01*
X008785Y014748D01*
X008647Y014691D01*
X008541Y014585D01*
X008483Y014447D01*
X008483Y014297D01*
X008541Y014158D01*
X008647Y014052D01*
X008785Y013995D01*
X008901Y013995D01*
X010591Y012305D01*
X010591Y012189D01*
X010533Y012247D01*
X009942Y012837D01*
X009861Y012919D01*
X009722Y012977D01*
X009607Y012977D01*
X008565Y014019D01*
X005218Y014019D01*
X005136Y014100D01*
X004998Y014158D01*
X004848Y014158D01*
X004710Y014100D01*
X004604Y013994D01*
X004546Y013856D01*
X004546Y013706D01*
X004604Y013568D01*
X004710Y013462D01*
X004848Y013405D01*
X004998Y013405D01*
X005136Y013462D01*
X005218Y013544D01*
X008368Y013544D01*
X009271Y012641D01*
X009271Y012525D01*
X009328Y012387D01*
X009434Y012281D01*
X009562Y012228D01*
X009412Y012165D01*
X009295Y012048D01*
X009231Y011895D01*
X009231Y011733D01*
X009155Y011656D01*
X008310Y011656D01*
X008310Y011690D01*
X008205Y011794D01*
X007743Y011794D01*
X007679Y011730D01*
X007615Y011794D01*
X007152Y011794D01*
X007048Y011690D01*
X007048Y011616D01*
X006949Y011517D01*
X005848Y010416D01*
X005577Y010416D01*
X005528Y010366D01*
X005497Y010397D01*
X005452Y010423D01*
X005402Y010436D01*
X005218Y010436D01*
X005035Y010436D01*
X004984Y010423D01*
X004939Y010397D01*
X004902Y010360D01*
X004876Y010314D01*
X004862Y010264D01*
X004862Y010041D01*
X005218Y010041D01*
X005218Y010041D01*
X005218Y010436D01*
X005218Y010041D01*
X005218Y010041D01*
X004862Y010041D01*
X004862Y009818D01*
X004876Y009768D01*
X004902Y009722D01*
X004939Y009685D01*
X004984Y009659D01*
X005035Y009646D01*
X005218Y009646D01*
X005218Y010041D01*
X005218Y010041D01*
X005218Y009646D01*
X005402Y009646D01*
X005452Y009659D01*
X005497Y009685D01*
X005528Y009715D01*
X005571Y009672D01*
X005571Y009509D01*
X004824Y008763D01*
X004436Y008763D01*
X004338Y008665D01*
X004314Y008706D01*
X004277Y008743D01*
X004232Y008769D01*
X004181Y008783D01*
X003958Y008783D01*
X003735Y008783D01*
X003685Y008769D01*
X003640Y008743D01*
X003603Y008706D01*
X003577Y008661D01*
X003563Y008610D01*
X003563Y008309D01*
X003958Y008309D01*
X003958Y008783D01*
X003958Y008309D01*
X003958Y008309D01*
X003958Y008309D01*
X003563Y008309D01*
X003563Y008007D01*
X003577Y007956D01*
X003603Y007911D01*
X003640Y007874D01*
X003685Y007848D01*
X003735Y007835D01*
X003958Y007835D01*
X003958Y008309D01*
X003958Y008309D01*
X003958Y007835D01*
X004000Y007835D01*
X003957Y007792D01*
X003957Y007680D01*
X003104Y007680D01*
X002270Y006846D01*
X001985Y006846D01*
X001729Y006589D01*
X001729Y006225D01*
X001985Y005969D01*
X002349Y005969D01*
X002526Y005668D02*
X006067Y005668D01*
X006419Y005668D02*
X006419Y005668D01*
X006419Y005864D02*
X006419Y005864D01*
X006419Y006059D02*
X006419Y006059D01*
X006419Y006254D02*
X006419Y006254D01*
X006707Y006254D02*
X006711Y006254D01*
X006131Y006254D02*
X002605Y006254D01*
X002605Y006450D02*
X007726Y006450D01*
X007530Y006254D02*
X007230Y006254D01*
X007306Y006059D02*
X007499Y006059D01*
X007583Y005864D02*
X007349Y005864D01*
X007545Y005668D02*
X010423Y005668D01*
X010422Y005864D02*
X008168Y005864D01*
X008252Y006059D02*
X010373Y006059D01*
X010411Y006254D02*
X008362Y006254D01*
X008557Y006450D02*
X010561Y006450D01*
X010646Y006632D02*
X010717Y006609D01*
X010791Y006597D01*
X010828Y006597D01*
X010828Y007072D01*
X010828Y007072D01*
X010353Y007072D01*
X010353Y007035D01*
X010364Y006961D01*
X010388Y006890D01*
X010422Y006823D01*
X010466Y006763D01*
X010519Y006710D01*
X010579Y006666D01*
X010646Y006632D01*
X010620Y006645D02*
X008752Y006645D01*
X008802Y006840D02*
X010413Y006840D01*
X010353Y007036D02*
X008802Y007036D01*
X008802Y007231D02*
X010380Y007231D01*
X010388Y007255D02*
X010364Y007184D01*
X010353Y007110D01*
X010353Y007072D01*
X010828Y007072D01*
X010828Y007072D01*
X010828Y006597D01*
X010866Y006597D01*
X010940Y006609D01*
X011011Y006632D01*
X011078Y006666D01*
X011138Y006710D01*
X011191Y006763D01*
X011235Y006823D01*
X011269Y006890D01*
X011292Y006961D01*
X011304Y007035D01*
X011304Y007072D01*
X010828Y007072D01*
X010828Y007072D01*
X010828Y007548D01*
X010791Y007548D01*
X010717Y007536D01*
X010646Y007513D01*
X010579Y007479D01*
X010519Y007435D01*
X010466Y007382D01*
X010422Y007322D01*
X010388Y007255D01*
X010510Y007426D02*
X008802Y007426D01*
X008802Y007622D02*
X010726Y007622D01*
X010828Y007548D02*
X010828Y007072D01*
X010828Y007072D01*
X011304Y007072D01*
X011304Y007110D01*
X011292Y007184D01*
X011269Y007255D01*
X011235Y007322D01*
X011191Y007382D01*
X011138Y007435D01*
X011078Y007479D01*
X011011Y007513D01*
X010940Y007536D01*
X010866Y007548D01*
X010828Y007548D01*
X010828Y007426D02*
X010828Y007426D01*
X010828Y007231D02*
X010828Y007231D01*
X010828Y007036D02*
X010828Y007036D01*
X010828Y006840D02*
X010828Y006840D01*
X010828Y006645D02*
X010828Y006645D01*
X011037Y006645D02*
X011511Y006645D01*
X011511Y006840D02*
X011244Y006840D01*
X011304Y007036D02*
X011511Y007036D01*
X011511Y007231D02*
X011277Y007231D01*
X011147Y007426D02*
X011511Y007426D01*
X011511Y007622D02*
X010931Y007622D01*
X011216Y007817D02*
X011511Y007817D01*
X011511Y008012D02*
X011284Y008012D01*
X011265Y008208D02*
X011511Y008208D01*
X011511Y008403D02*
X011142Y008403D01*
X011194Y008794D02*
X011511Y008794D01*
X011511Y008989D02*
X011284Y008989D01*
X011275Y009185D02*
X011511Y009185D01*
X011511Y009380D02*
X011165Y009380D01*
X011086Y009686D02*
X011215Y009814D01*
X011284Y009982D01*
X011284Y010163D01*
X011215Y010331D01*
X011086Y010459D01*
X010919Y010528D01*
X010738Y010528D01*
X010570Y010459D01*
X010442Y010331D01*
X010373Y010163D01*
X010373Y009982D01*
X010442Y009814D01*
X010570Y009686D01*
X010738Y009617D01*
X010919Y009617D01*
X011086Y009686D01*
X011171Y009771D02*
X011511Y009771D01*
X011511Y009966D02*
X011277Y009966D01*
X011284Y010161D02*
X011511Y010161D01*
X011511Y010357D02*
X011188Y010357D01*
X011511Y010552D02*
X010297Y010552D01*
X010468Y010357D02*
X010102Y010357D01*
X009907Y010161D02*
X010373Y010161D01*
X010379Y009966D02*
X009885Y009966D01*
X009885Y009771D02*
X010486Y009771D01*
X010492Y009380D02*
X009885Y009380D01*
X009885Y009575D02*
X011511Y009575D01*
X011511Y008599D02*
X008802Y008599D01*
X008841Y008403D02*
X008879Y008403D01*
X008327Y008599D02*
X005332Y008599D01*
X005137Y008403D02*
X008289Y008403D01*
X008229Y008208D02*
X005082Y008208D01*
X005082Y008012D02*
X008229Y008012D01*
X008229Y007817D02*
X004682Y007817D01*
X004708Y007622D02*
X008327Y007622D01*
X008327Y007426D02*
X004708Y007426D01*
X004708Y007231D02*
X008327Y007231D01*
X008327Y007036D02*
X004650Y007036D01*
X004014Y007036D02*
X003131Y007036D01*
X002936Y006840D02*
X008276Y006840D01*
X008081Y006645D02*
X002741Y006645D01*
X002460Y007036D02*
X000697Y007036D01*
X000697Y007231D02*
X002655Y007231D01*
X002850Y007426D02*
X000697Y007426D01*
X000697Y007622D02*
X003046Y007622D01*
X003563Y008012D02*
X001559Y008012D01*
X001559Y007817D02*
X003982Y007817D01*
X003958Y008012D02*
X003958Y008012D01*
X003958Y008208D02*
X003958Y008208D01*
X003958Y008403D02*
X003958Y008403D01*
X003958Y008599D02*
X003958Y008599D01*
X003563Y008599D02*
X002611Y008599D01*
X002608Y008586D02*
X002621Y008637D01*
X002621Y008860D01*
X002621Y009083D01*
X002608Y009133D01*
X002582Y009179D01*
X002545Y009215D01*
X002499Y009242D01*
X002449Y009255D01*
X002265Y009255D01*
X002082Y009255D01*
X002031Y009242D01*
X001986Y009215D01*
X001956Y009185D01*
X001906Y009235D01*
X001443Y009235D01*
X001339Y009131D01*
X001339Y008889D01*
X000964Y008514D01*
X000937Y008449D01*
X000911Y008449D01*
X000806Y008344D01*
X000806Y007800D01*
X000911Y007696D01*
X001455Y007696D01*
X001559Y007800D01*
X001559Y008344D01*
X001542Y008362D01*
X001665Y008485D01*
X001906Y008485D01*
X001956Y008534D01*
X001986Y008504D01*
X002031Y008478D01*
X002082Y008465D01*
X002265Y008465D01*
X002265Y008860D01*
X002265Y009255D01*
X002265Y008860D01*
X002265Y008860D01*
X002265Y008860D01*
X002621Y008860D01*
X002265Y008860D01*
X002265Y008860D01*
X002265Y008465D01*
X002449Y008465D01*
X002499Y008478D01*
X002545Y008504D01*
X002582Y008541D01*
X002608Y008586D01*
X002621Y008794D02*
X004856Y008794D01*
X005051Y008989D02*
X002621Y008989D01*
X002576Y009185D02*
X005246Y009185D01*
X005442Y009380D02*
X000697Y009380D01*
X000697Y009575D02*
X000806Y009575D01*
X000806Y009572D02*
X000911Y009468D01*
X001455Y009468D01*
X001559Y009572D01*
X001559Y010116D01*
X001542Y010133D01*
X001665Y010256D01*
X001906Y010256D01*
X001956Y010306D01*
X001986Y010276D01*
X002031Y010250D01*
X002082Y010236D01*
X002265Y010236D01*
X002265Y010631D01*
X002265Y010631D01*
X002265Y010236D01*
X002449Y010236D01*
X002499Y010250D01*
X002545Y010276D01*
X002582Y010313D01*
X002608Y010358D01*
X002621Y010409D01*
X002621Y010631D01*
X002265Y010631D01*
X002265Y010632D01*
X002265Y011027D01*
X002082Y011027D01*
X002031Y011013D01*
X001986Y010987D01*
X001956Y010957D01*
X001906Y011007D01*
X001443Y011007D01*
X001339Y010902D01*
X001339Y010661D01*
X000964Y010286D01*
X000937Y010221D01*
X000911Y010221D01*
X000806Y010116D01*
X000806Y009572D01*
X000806Y009771D02*
X000697Y009771D01*
X000697Y009966D02*
X000806Y009966D01*
X000851Y010161D02*
X000697Y010161D01*
X000697Y010357D02*
X001034Y010357D01*
X001230Y010552D02*
X000697Y010552D01*
X000697Y010747D02*
X001339Y010747D01*
X001379Y010943D02*
X000697Y010943D01*
X000697Y011138D02*
X006570Y011138D01*
X006375Y010943D02*
X002586Y010943D01*
X002582Y010950D02*
X002545Y010987D01*
X002499Y011013D01*
X002449Y011027D01*
X002265Y011027D01*
X002265Y010632D01*
X002265Y010632D01*
X002621Y010632D01*
X002621Y010854D01*
X002608Y010905D01*
X002582Y010950D01*
X002621Y010747D02*
X006179Y010747D01*
X005984Y010552D02*
X002621Y010552D01*
X002607Y010357D02*
X004900Y010357D01*
X004862Y010161D02*
X001570Y010161D01*
X001559Y009966D02*
X004862Y009966D01*
X004875Y009771D02*
X001559Y009771D01*
X001559Y009575D02*
X005571Y009575D01*
X005218Y009771D02*
X005218Y009771D01*
X005218Y009966D02*
X005218Y009966D01*
X005218Y010161D02*
X005218Y010161D01*
X005218Y010357D02*
X005218Y010357D01*
X006046Y009575D02*
X008327Y009575D01*
X008281Y009380D02*
X006046Y009380D01*
X005918Y009185D02*
X008229Y009185D01*
X008229Y008989D02*
X005723Y008989D01*
X005527Y008794D02*
X008229Y008794D01*
X008229Y009771D02*
X006145Y009771D01*
X006145Y009966D02*
X008229Y009966D01*
X008229Y010161D02*
X006265Y010161D01*
X006460Y010357D02*
X008274Y010357D01*
X008300Y011138D02*
X009621Y011138D01*
X009426Y010943D02*
X007046Y010943D01*
X006851Y010747D02*
X009230Y010747D01*
X009035Y010552D02*
X006656Y010552D01*
X006765Y011333D02*
X001549Y011333D01*
X001559Y011344D02*
X001559Y011888D01*
X001542Y011905D01*
X001665Y012028D01*
X001906Y012028D01*
X001956Y012078D01*
X001986Y012048D01*
X002031Y012021D01*
X002082Y012008D01*
X002265Y012008D01*
X002265Y012403D01*
X002265Y012403D01*
X002265Y012798D01*
X002082Y012798D01*
X002031Y012785D01*
X001986Y012759D01*
X001956Y012729D01*
X001906Y012778D01*
X001443Y012778D01*
X001339Y012674D01*
X001339Y012433D01*
X000964Y012057D01*
X000937Y011992D01*
X000911Y011992D01*
X000806Y011888D01*
X000806Y011344D01*
X000911Y011239D01*
X001455Y011239D01*
X001559Y011344D01*
X001559Y011529D02*
X006961Y011529D01*
X007082Y011724D02*
X001559Y011724D01*
X001557Y011919D02*
X009241Y011919D01*
X009223Y011724D02*
X008275Y011724D01*
X009015Y012896D02*
X000697Y012896D01*
X000697Y012701D02*
X001366Y012701D01*
X001339Y012506D02*
X000697Y012506D01*
X000697Y012310D02*
X001216Y012310D01*
X001021Y012115D02*
X000697Y012115D01*
X000697Y011919D02*
X000838Y011919D01*
X000806Y011724D02*
X000697Y011724D01*
X000697Y011529D02*
X000806Y011529D01*
X000816Y011333D02*
X000697Y011333D01*
X000697Y013092D02*
X008820Y013092D01*
X008624Y013287D02*
X000697Y013287D01*
X000697Y013482D02*
X004689Y013482D01*
X004558Y013678D02*
X001680Y013678D01*
X002083Y013873D02*
X004553Y013873D01*
X004678Y014068D02*
X002278Y014068D01*
X002393Y014264D02*
X008497Y014264D01*
X008488Y014459D02*
X002466Y014459D01*
X002508Y014654D02*
X008610Y014654D01*
X008631Y014068D02*
X005168Y014068D01*
X005157Y013482D02*
X008429Y013482D01*
X008710Y013873D02*
X009023Y013873D01*
X008905Y013678D02*
X009218Y013678D01*
X009101Y013482D02*
X009413Y013482D01*
X009296Y013287D02*
X009609Y013287D01*
X009492Y013092D02*
X009804Y013092D01*
X009884Y012896D02*
X009999Y012896D01*
X009942Y012837D02*
X009942Y012837D01*
X010079Y012701D02*
X010195Y012701D01*
X010274Y012506D02*
X010390Y012506D01*
X010470Y012310D02*
X010585Y012310D01*
X010866Y012701D02*
X011511Y012701D01*
X011511Y012896D02*
X010671Y012896D01*
X010476Y013092D02*
X011511Y013092D01*
X011511Y013287D02*
X010280Y013287D01*
X010085Y013482D02*
X011511Y013482D01*
X011511Y013678D02*
X011128Y013678D01*
X010528Y013678D02*
X009890Y013678D01*
X009694Y013873D02*
X010125Y013873D01*
X009930Y014068D02*
X009499Y014068D01*
X009304Y014264D02*
X009815Y014264D01*
X009742Y014459D02*
X009231Y014459D01*
X009110Y014654D02*
X009700Y014654D01*
X009700Y014850D02*
X002508Y014850D01*
X002473Y015045D02*
X009735Y015045D01*
X009800Y015240D02*
X002408Y015240D01*
X002295Y015436D02*
X009913Y015436D01*
X009211Y012701D02*
X002594Y012701D01*
X002582Y012722D02*
X002545Y012759D01*
X002499Y012785D01*
X002449Y012798D01*
X002265Y012798D01*
X002265Y012403D01*
X002265Y012403D01*
X002265Y012008D01*
X002449Y012008D01*
X002499Y012021D01*
X002545Y012048D01*
X002582Y012084D01*
X002608Y012130D01*
X002621Y012180D01*
X002621Y012403D01*
X002265Y012403D01*
X002265Y012403D01*
X002621Y012403D01*
X002621Y012626D01*
X002608Y012677D01*
X002582Y012722D01*
X002621Y012506D02*
X009279Y012506D01*
X009405Y012310D02*
X002621Y012310D01*
X002599Y012115D02*
X009361Y012115D01*
X009933Y012115D02*
X009993Y012115D01*
X010053Y011919D02*
X010189Y011919D01*
X010197Y011724D02*
X010061Y011724D01*
X010012Y011529D02*
X009952Y011529D01*
X009816Y011333D02*
X009504Y011333D01*
X008864Y010357D02*
X008856Y010357D01*
X009491Y008794D02*
X010463Y008794D01*
X010515Y008403D02*
X009431Y008403D01*
X009491Y007817D02*
X010441Y007817D01*
X011095Y006450D02*
X011511Y006450D01*
X011511Y006254D02*
X011246Y006254D01*
X011284Y006059D02*
X011511Y006059D01*
X011511Y005864D02*
X011235Y005864D01*
X011086Y005686D02*
X011086Y005686D01*
X011086Y005668D02*
X011511Y005668D01*
X011511Y005473D02*
X011086Y005473D01*
X011086Y005278D02*
X011511Y005278D01*
X011511Y005082D02*
X011086Y005082D01*
X011086Y004887D02*
X011511Y004887D01*
X011511Y004691D02*
X011086Y004691D01*
X011086Y004496D02*
X011511Y004496D01*
X011511Y004301D02*
X011061Y004301D01*
X010886Y004105D02*
X011511Y004105D01*
X011511Y003910D02*
X010810Y003910D01*
X010808Y003715D02*
X011511Y003715D01*
X011511Y003519D02*
X010830Y003519D01*
X010830Y003324D02*
X011511Y003324D01*
X011511Y003129D02*
X010717Y003129D01*
X010435Y003129D02*
X010435Y003129D01*
X010435Y003110D02*
X010435Y003466D01*
X010435Y003466D01*
X010435Y003110D01*
X010435Y003324D02*
X010435Y003324D01*
X010435Y003466D02*
X010039Y003466D01*
X010435Y003466D01*
X010435Y003466D01*
X010153Y003129D02*
X009097Y003129D01*
X009118Y002933D02*
X011511Y002933D01*
X011511Y002738D02*
X009129Y002738D01*
X009129Y002543D02*
X011511Y002543D01*
X011511Y002347D02*
X011409Y002347D01*
X010248Y002347D02*
X009129Y002347D01*
X009129Y002152D02*
X010005Y002152D01*
X009859Y001957D02*
X009287Y001957D01*
X009327Y001761D02*
X009762Y001761D01*
X009710Y001566D02*
X009277Y001566D01*
X009058Y001371D02*
X009700Y001371D01*
X009715Y001175D02*
X002493Y001175D01*
X002441Y000980D02*
X009767Y000980D01*
X009869Y000784D02*
X002339Y000784D01*
X000697Y003519D02*
X010039Y003519D01*
X010039Y003324D02*
X008998Y003324D01*
X008598Y003715D02*
X010061Y003715D01*
X010059Y003910D02*
X008801Y003910D01*
X008997Y004105D02*
X010059Y004105D01*
X010111Y004301D02*
X009768Y004301D01*
X009978Y004496D02*
X010550Y004496D01*
X010571Y004691D02*
X010173Y004691D01*
X010369Y004887D02*
X010571Y004887D01*
X010564Y005082D02*
X010571Y005082D01*
X010227Y005473D02*
X009350Y005473D01*
X009353Y005278D02*
X010032Y005278D01*
X009837Y005082D02*
X009364Y005082D01*
X009373Y004923D02*
X009017Y004923D01*
X009017Y004923D01*
X009373Y004923D01*
X009373Y004887D02*
X009641Y004887D01*
X009163Y004272D02*
X009163Y004272D01*
X009163Y004272D01*
X008681Y004691D02*
X008251Y004691D01*
X008251Y004496D02*
X008660Y004496D01*
X008465Y004301D02*
X008175Y004301D01*
X008661Y004887D02*
X007219Y004887D01*
X007208Y005082D02*
X007459Y005082D01*
X007264Y005278D02*
X007148Y005278D01*
X007068Y005473D02*
X002605Y005473D01*
X002660Y005278D02*
X005139Y005278D01*
X005299Y004691D02*
X006063Y004691D01*
X006063Y004529D02*
X006419Y004529D01*
X006063Y004529D01*
X006063Y004496D02*
X005299Y004496D01*
X004872Y004301D02*
X006064Y004301D01*
X006419Y004529D02*
X006419Y004529D01*
X008129Y002543D02*
X008654Y002543D01*
X008654Y002347D02*
X008129Y002347D01*
X008129Y002152D02*
X008654Y002152D01*
X008495Y001957D02*
X008287Y001957D01*
X008327Y001761D02*
X008455Y001761D01*
X008505Y001566D02*
X008277Y001566D01*
X008058Y001371D02*
X008724Y001371D01*
X008524Y003324D02*
X008408Y003324D01*
X008209Y005082D02*
X008671Y005082D01*
X008681Y005278D02*
X008251Y005278D01*
X008247Y005473D02*
X008685Y005473D01*
X010493Y010747D02*
X011511Y010747D01*
X011511Y010943D02*
X010688Y010943D01*
X010883Y011138D02*
X011511Y011138D01*
X011511Y011333D02*
X011066Y011333D01*
X011066Y011529D02*
X011511Y011529D01*
X011511Y011724D02*
X011066Y011724D01*
X011066Y011919D02*
X011511Y011919D01*
X011511Y012115D02*
X011066Y012115D01*
X011066Y012310D02*
X011511Y012310D01*
X011511Y012506D02*
X011062Y012506D01*
X004630Y005082D02*
X002856Y005082D01*
X003051Y004887D02*
X004546Y004887D01*
X004546Y004691D02*
X003246Y004691D01*
X003442Y004496D02*
X004546Y004496D01*
X004383Y004301D02*
X004281Y004301D01*
X003793Y004301D02*
X003637Y004301D01*
X001895Y006059D02*
X000697Y006059D01*
X000697Y006254D02*
X001729Y006254D01*
X001729Y006450D02*
X000697Y006450D01*
X000697Y006645D02*
X001785Y006645D01*
X001980Y006840D02*
X000697Y006840D01*
X000697Y007817D02*
X000806Y007817D01*
X000806Y008012D02*
X000697Y008012D01*
X000697Y008208D02*
X000806Y008208D01*
X000865Y008403D02*
X000697Y008403D01*
X000697Y008599D02*
X001048Y008599D01*
X001243Y008794D02*
X000697Y008794D01*
X000697Y008989D02*
X001339Y008989D01*
X001393Y009185D02*
X000697Y009185D01*
X001584Y008403D02*
X003563Y008403D01*
X003563Y008208D02*
X001559Y008208D01*
X002265Y008599D02*
X002265Y008599D01*
X002265Y008794D02*
X002265Y008794D01*
X002265Y008989D02*
X002265Y008989D01*
X002265Y009185D02*
X002265Y009185D01*
X002265Y010357D02*
X002265Y010357D01*
X002265Y010552D02*
X002265Y010552D01*
X002265Y010747D02*
X002265Y010747D01*
X002265Y010943D02*
X002265Y010943D01*
X002265Y012115D02*
X002265Y012115D01*
X002265Y012310D02*
X002265Y012310D01*
X002265Y012506D02*
X002265Y012506D01*
X002265Y012701D02*
X002265Y012701D01*
X001079Y013678D02*
X000697Y013678D01*
D21*
X002167Y005407D02*
X003635Y003939D01*
X004037Y003939D01*
X004628Y003939D02*
X008466Y003939D01*
X009017Y004490D01*
X009057Y004529D01*
X009647Y004529D01*
X010828Y005710D01*
X010828Y006072D01*
X010828Y004411D01*
X010435Y004017D01*
X009017Y004490D02*
X009017Y004549D01*
D22*
X009647Y011813D03*
D23*
X001675Y012403D02*
X001183Y011911D01*
X001183Y011616D01*
X001675Y010631D02*
X001183Y010139D01*
X001183Y009844D01*
X001675Y008860D02*
X001183Y008368D01*
X001183Y008072D01*
M02*
