G75*
%MOIN*%
%OFA0B0*%
%FSLAX24Y24*%
%IPPOS*%
%LPD*%
%AMOC8*
5,1,8,0,0,1.08239X$1,22.5*
%
%ADD10C,0.1340*%
%ADD11R,0.0474X0.0631*%
%ADD12R,0.0395X0.0277*%
%ADD13C,0.0554*%
%ADD14C,0.0634*%
%ADD15R,0.0395X0.0474*%
%ADD16R,0.0474X0.0395*%
%ADD17OC8,0.0520*%
%ADD18OC8,0.0600*%
%ADD19R,0.0396X0.0396*%
%ADD20R,0.0476X0.0476*%
%ADD21C,0.0396*%
%ADD22C,0.0476*%
D10*
X001380Y001380D03*
X010828Y001380D03*
X010828Y014765D03*
X001380Y014765D03*
D11*
X003958Y008309D03*
X004332Y007443D03*
X004706Y008309D03*
D12*
X007915Y005297D03*
X007915Y004549D03*
X009017Y004549D03*
X009017Y004923D03*
X009017Y005297D03*
D13*
X010828Y006072D03*
X010828Y007072D03*
X010828Y008072D03*
X010828Y009072D03*
X010828Y010072D03*
X008891Y001773D03*
X007891Y001773D03*
X006891Y001773D03*
X005891Y001773D03*
X004891Y001773D03*
X003891Y001773D03*
D14*
X003891Y001773D03*
X004891Y001773D03*
X005891Y001773D03*
X006891Y001773D03*
X007891Y001773D03*
X008891Y001773D03*
X010828Y006072D03*
X010828Y007072D03*
X010828Y008072D03*
X010828Y009072D03*
X010828Y010072D03*
D15*
X009155Y010041D03*
X008565Y010041D03*
X008565Y009057D03*
X009155Y009057D03*
X009155Y008072D03*
X008565Y008072D03*
X006970Y005907D03*
X006419Y005907D03*
X006419Y004529D03*
X006970Y004529D03*
X008171Y002954D03*
X008761Y002954D03*
X004628Y003939D03*
X004037Y003939D03*
X002265Y008860D03*
X001675Y008860D03*
X001675Y010631D03*
X002265Y010631D03*
X002265Y012403D03*
X001675Y012403D03*
X005218Y010041D03*
X005809Y010041D03*
X007383Y011419D03*
X007974Y011419D03*
D16*
X010435Y004017D03*
X010435Y003466D03*
D17*
X002167Y005407D03*
X002167Y006407D03*
D18*
X002167Y006407D03*
X002167Y005407D03*
D19*
X001183Y008072D03*
X001183Y009844D03*
X001183Y011616D03*
X004923Y004726D03*
X004923Y002954D03*
D20*
X004923Y002954D03*
X004923Y004726D03*
X001183Y008072D03*
X001183Y009844D03*
X001183Y011616D03*
D21*
X004923Y013781D03*
X008860Y014372D03*
X009844Y012600D03*
X009647Y011813D03*
X007876Y006104D03*
X010828Y004411D03*
D22*
X010828Y004411D03*
X007876Y006104D03*
X009647Y011813D03*
X009844Y012600D03*
X008860Y014372D03*
X004923Y013781D03*
M02*
