G75*
%MOIN*%
%OFA0B0*%
%FSLAX24Y24*%
%IPPOS*%
%LPD*%
%AMOC8*
5,1,8,0,0,1.08239X$1,22.5*
%
%ADD10C,0.1340*%
%ADD11C,0.0554*%
%ADD12C,0.0634*%
%ADD13R,0.0277X0.0671*%
%ADD14R,0.0671X0.0277*%
%ADD15R,0.0552X0.0474*%
%ADD16R,0.0395X0.0474*%
%ADD17R,0.0474X0.0395*%
%ADD18OC8,0.0520*%
%ADD19OC8,0.0600*%
%ADD20R,0.0671X0.0513*%
%ADD21R,0.0396X0.0396*%
%ADD22R,0.0476X0.0476*%
%ADD23C,0.0396*%
%ADD24C,0.0476*%
D10*
X001380Y001380D03*
X010828Y001380D03*
X010828Y014765D03*
X001380Y014765D03*
D11*
X010828Y010072D03*
X010828Y009072D03*
X010828Y008072D03*
X010828Y007072D03*
X010828Y006072D03*
X008891Y001773D03*
X007891Y001773D03*
X006891Y001773D03*
X005891Y001773D03*
X004891Y001773D03*
X003891Y001773D03*
D12*
X003891Y001773D03*
X004891Y001773D03*
X005891Y001773D03*
X006891Y001773D03*
X007891Y001773D03*
X008891Y001773D03*
X010828Y006072D03*
X010828Y007072D03*
X010828Y008072D03*
X010828Y009072D03*
X010828Y010072D03*
D13*
X008072Y008545D03*
X007757Y008545D03*
X007443Y008545D03*
X007128Y008545D03*
X006813Y008545D03*
X006498Y008545D03*
X006183Y008545D03*
X005868Y008545D03*
X005553Y008545D03*
X005238Y008545D03*
X004923Y008545D03*
X004923Y013112D03*
X005238Y013112D03*
X005553Y013112D03*
X005868Y013112D03*
X006183Y013112D03*
X006498Y013112D03*
X006813Y013112D03*
X007128Y013112D03*
X007443Y013112D03*
X007757Y013112D03*
X008072Y013112D03*
D14*
X008781Y012403D03*
X008781Y012088D03*
X008781Y011773D03*
X008781Y011458D03*
X008781Y011143D03*
X008781Y010828D03*
X008781Y010513D03*
X008781Y010198D03*
X008781Y009883D03*
X008781Y009569D03*
X008781Y009254D03*
X004214Y009254D03*
X004214Y009569D03*
X004214Y009883D03*
X004214Y010198D03*
X004214Y010513D03*
X004214Y010828D03*
X004214Y011143D03*
X004214Y011458D03*
X004214Y011773D03*
X004214Y012088D03*
X004214Y012403D03*
D15*
X004844Y007246D03*
X004844Y006537D03*
X005789Y006537D03*
X005789Y007246D03*
D16*
X005592Y005710D03*
X005041Y005710D03*
X007600Y007285D03*
X008151Y007285D03*
X009569Y010828D03*
X010120Y010828D03*
X008545Y002757D03*
X007994Y002757D03*
X002265Y008860D03*
X001675Y008860D03*
X001675Y010631D03*
X002265Y010631D03*
X002265Y012403D03*
X001675Y012403D03*
D17*
X003348Y011301D03*
X003348Y010750D03*
X004135Y007167D03*
X004135Y006616D03*
D18*
X002167Y006407D03*
X002167Y005407D03*
D19*
X002167Y005407D03*
X002167Y006407D03*
D20*
X007088Y014155D03*
X007088Y014982D03*
D21*
X001183Y011616D03*
X001183Y009844D03*
X001183Y008072D03*
X004923Y004726D03*
X004923Y002954D03*
D22*
X004923Y002954D03*
X004923Y004726D03*
X001183Y008072D03*
X001183Y009844D03*
X001183Y011616D03*
D23*
X004923Y013781D03*
X008860Y014372D03*
X009844Y012600D03*
X009647Y011813D03*
X007876Y006104D03*
X010828Y004411D03*
D24*
X010828Y004411D03*
X007876Y006104D03*
X009647Y011813D03*
X009844Y012600D03*
X008860Y014372D03*
X004923Y013781D03*
M02*
