G75*
%MOIN*%
%OFA0B0*%
%FSLAX25Y25*%
%IPPOS*%
%LPD*%
%AMOC8*
5,1,8,0,0,1.08239X$1,22.5*
%
%ADD10R,0.03937X0.02165*%
%ADD11R,0.05150X0.05150*%
%ADD12C,0.05150*%
%ADD13R,0.01969X0.01575*%
%ADD14R,0.01575X0.01969*%
%ADD15C,0.05937*%
%ADD16R,0.04724X0.04724*%
%ADD17R,0.03150X0.03937*%
%ADD18R,0.03150X0.01969*%
%ADD19R,0.02559X0.04134*%
%ADD20OC8,0.05200*%
%ADD21R,0.01378X0.05906*%
%ADD22C,0.03969*%
%ADD23R,0.02756X0.01378*%
%ADD24R,0.06500X0.06500*%
%ADD25C,0.06500*%
%ADD26C,0.04362*%
%ADD27C,0.03969*%
%ADD28C,0.04362*%
%ADD29C,0.01600*%
%ADD30C,0.00984*%
%ADD31C,0.02775*%
%ADD32C,0.01181*%
%ADD33C,0.01575*%
%ADD34C,0.01969*%
D10*
X0095501Y0082706D03*
X0095501Y0086446D03*
X0095501Y0090186D03*
X0105737Y0090186D03*
X0105737Y0082706D03*
D11*
X0087627Y0081328D03*
D12*
X0087627Y0089202D03*
D13*
X0110461Y0090383D03*
X0110461Y0086446D03*
X0102784Y0076603D03*
X0099241Y0076603D03*
X0142351Y0082902D03*
X0142351Y0086839D03*
X0210461Y0095894D03*
X0214005Y0095894D03*
X0166367Y0050225D03*
X0166367Y0046288D03*
X0182509Y0048060D03*
X0182509Y0044123D03*
X0121879Y0036839D03*
X0121879Y0032902D03*
D14*
X0153769Y0048060D03*
X0153769Y0051603D03*
X0199438Y0034083D03*
X0203375Y0034083D03*
X0091170Y0072863D03*
X0091170Y0076406D03*
X0199438Y0085265D03*
X0203375Y0085265D03*
X0203375Y0088808D03*
X0199438Y0088808D03*
D15*
X0230776Y0090265D03*
X0240776Y0090265D03*
X0250776Y0090265D03*
X0250776Y0080265D03*
X0240776Y0080265D03*
X0230776Y0080265D03*
X0174280Y0030422D03*
X0164280Y0030422D03*
X0154280Y0030422D03*
X0144280Y0030422D03*
D16*
X0077784Y0051800D03*
X0066761Y0051800D03*
D17*
X0127587Y0051013D03*
X0133099Y0051013D03*
X0133296Y0044713D03*
X0127784Y0044713D03*
X0129950Y0082509D03*
X0122469Y0082509D03*
X0126209Y0091957D03*
D18*
X0138808Y0051997D03*
X0149831Y0051997D03*
X0149831Y0048257D03*
X0149831Y0044517D03*
X0138808Y0044517D03*
D19*
X0214103Y0056623D03*
X0222568Y0056623D03*
X0222568Y0072961D03*
X0214103Y0072961D03*
D20*
X0152469Y0064792D03*
X0142469Y0064792D03*
D21*
X0121091Y0068040D03*
X0121091Y0068040D03*
X0121091Y0068040D03*
X0118532Y0068040D03*
X0118532Y0068040D03*
X0118532Y0068040D03*
X0115973Y0068040D03*
X0115973Y0068040D03*
X0115973Y0068040D03*
X0113414Y0068040D03*
X0113414Y0068040D03*
X0113414Y0068040D03*
X0110855Y0068040D03*
X0110855Y0068040D03*
X0110855Y0068040D03*
D22*
X0106934Y0069024D02*
X0102965Y0069024D01*
X0106934Y0069024D01*
X0113989Y0060560D02*
X0117957Y0060560D01*
X0113989Y0060560D01*
X0125013Y0069024D02*
X0128981Y0069024D01*
X0125013Y0069024D01*
D23*
X0170304Y0051603D03*
X0170304Y0049044D03*
X0170304Y0046485D03*
X0178178Y0046485D03*
X0178178Y0049044D03*
X0178178Y0051603D03*
D24*
X0269517Y0060855D03*
X0049044Y0068729D03*
D25*
X0049044Y0060855D03*
X0049044Y0052981D03*
X0049044Y0045107D03*
X0269517Y0068729D03*
X0269517Y0076603D03*
X0269517Y0084477D03*
D26*
X0129178Y0069024D02*
X0124816Y0069024D01*
X0118154Y0060560D02*
X0113792Y0060560D01*
X0107131Y0069024D02*
X0102769Y0069024D01*
D27*
X0104950Y0069024D03*
X0126997Y0069024D03*
D28*
X0127391Y0069024D03*
X0127784Y0069024D03*
X0128178Y0069024D03*
X0128572Y0069024D03*
X0126603Y0069024D03*
X0126209Y0069024D03*
X0125816Y0069024D03*
X0125422Y0069024D03*
X0117942Y0060560D03*
X0117548Y0060560D03*
X0117154Y0060560D03*
X0116761Y0060560D03*
X0116367Y0060560D03*
X0115973Y0060560D03*
X0115580Y0060560D03*
X0115186Y0060560D03*
X0114792Y0060560D03*
X0114398Y0060560D03*
X0114005Y0060560D03*
X0106524Y0069024D03*
X0106131Y0069024D03*
X0105737Y0069024D03*
X0105343Y0069024D03*
X0104556Y0069024D03*
X0104162Y0069024D03*
X0103769Y0069024D03*
X0103375Y0069024D03*
D29*
X0067261Y0032376D02*
X0066465Y0032598D01*
X0065671Y0032825D01*
X0064880Y0033056D01*
X0064090Y0033292D01*
X0063302Y0033533D01*
X0062519Y0033778D01*
X0061735Y0034030D01*
X0060954Y0034287D01*
X0060175Y0034549D01*
X0059400Y0034817D01*
X0058626Y0035092D01*
X0057856Y0035372D01*
X0057088Y0035659D01*
X0056324Y0035952D01*
X0055563Y0036252D01*
X0054804Y0036560D01*
X0054050Y0036875D01*
X0053299Y0037198D01*
X0052550Y0037530D01*
X0051807Y0037869D01*
X0051068Y0038218D01*
X0050332Y0038576D01*
X0049604Y0038943D01*
X0048882Y0039319D01*
X0048167Y0039706D01*
X0047469Y0040097D01*
X0048004Y0039876D01*
X0050085Y0039876D01*
X0052007Y0040672D01*
X0053479Y0042144D01*
X0054275Y0044067D01*
X0054275Y0046148D01*
X0053479Y0048070D01*
X0052505Y0049044D01*
X0053479Y0050018D01*
X0053682Y0050508D01*
X0058001Y0050508D01*
X0058910Y0050884D01*
X0061575Y0053550D01*
X0062116Y0053550D01*
X0062417Y0053675D01*
X0062417Y0048617D01*
X0063578Y0047457D01*
X0069943Y0047457D01*
X0071104Y0048617D01*
X0071104Y0054983D01*
X0069943Y0056143D01*
X0069726Y0056143D01*
X0069726Y0059870D01*
X0069275Y0060960D01*
X0068440Y0061794D01*
X0066866Y0063369D01*
X0065776Y0063820D01*
X0053477Y0063820D01*
X0053310Y0063987D01*
X0053399Y0064039D01*
X0053734Y0064374D01*
X0053971Y0064784D01*
X0054094Y0065242D01*
X0054094Y0068654D01*
X0049119Y0068654D01*
X0049119Y0068804D01*
X0054094Y0068804D01*
X0054094Y0072216D01*
X0053971Y0072674D01*
X0053734Y0073084D01*
X0053399Y0073420D01*
X0052989Y0073656D01*
X0052531Y0073779D01*
X0049119Y0073779D01*
X0049119Y0068804D01*
X0048969Y0068804D01*
X0048969Y0068654D01*
X0043994Y0068654D01*
X0043994Y0065242D01*
X0044117Y0064784D01*
X0044354Y0064374D01*
X0044689Y0064039D01*
X0044778Y0063987D01*
X0044609Y0063818D01*
X0043813Y0061896D01*
X0043813Y0059815D01*
X0044609Y0057892D01*
X0045583Y0056918D01*
X0044609Y0055944D01*
X0043813Y0054022D01*
X0043813Y0051941D01*
X0044609Y0050018D01*
X0045583Y0049044D01*
X0044609Y0048070D01*
X0043813Y0046148D01*
X0043813Y0044543D01*
X0043812Y0044553D01*
X0043809Y0044570D01*
X0043807Y0044588D01*
X0043804Y0044605D01*
X0043802Y0044622D01*
X0043800Y0044641D01*
X0043797Y0044659D01*
X0043795Y0044674D01*
X0043793Y0044691D01*
X0043791Y0044712D01*
X0043789Y0044726D01*
X0043788Y0044743D01*
X0043786Y0044761D01*
X0043784Y0044782D01*
X0043782Y0044796D01*
X0043780Y0044816D01*
X0043779Y0044831D01*
X0043778Y0044847D01*
X0043776Y0044868D01*
X0043774Y0044884D01*
X0043773Y0044902D01*
X0043772Y0044917D01*
X0043770Y0044938D01*
X0043770Y0044951D01*
X0043768Y0044973D01*
X0043767Y0044988D01*
X0043766Y0045005D01*
X0043765Y0045022D01*
X0043764Y0045043D01*
X0043763Y0045057D01*
X0043763Y0045070D01*
X0043762Y0045094D01*
X0043761Y0045111D01*
X0043761Y0045126D01*
X0043760Y0045144D01*
X0043760Y0045160D01*
X0043759Y0045180D01*
X0043759Y0045196D01*
X0043758Y0045214D01*
X0043758Y0045229D01*
X0043758Y0045246D01*
X0043758Y0045268D01*
X0043758Y0045280D01*
X0043757Y0045298D01*
X0043757Y0084290D01*
X0043757Y0084306D01*
X0043758Y0084321D01*
X0043758Y0084340D01*
X0043758Y0084356D01*
X0043758Y0084374D01*
X0043759Y0084391D01*
X0043759Y0084411D01*
X0043759Y0084424D01*
X0043760Y0084440D01*
X0043760Y0084461D01*
X0043761Y0084476D01*
X0043762Y0084495D01*
X0043762Y0084511D01*
X0043763Y0084533D01*
X0043764Y0084545D01*
X0043765Y0084566D01*
X0043766Y0084583D01*
X0043767Y0084601D01*
X0043768Y0084616D01*
X0043769Y0084632D01*
X0043770Y0084652D01*
X0043771Y0084669D01*
X0043773Y0084685D01*
X0043774Y0084702D01*
X0043775Y0084717D01*
X0043777Y0084738D01*
X0043778Y0084755D01*
X0043780Y0084774D01*
X0043782Y0084790D01*
X0043783Y0084809D01*
X0043785Y0084823D01*
X0043787Y0084843D01*
X0043789Y0084859D01*
X0043791Y0084880D01*
X0043792Y0084887D01*
X0043795Y0084914D01*
X0043797Y0084930D01*
X0043799Y0084948D01*
X0043801Y0084965D01*
X0043803Y0084981D01*
X0043806Y0085000D01*
X0043809Y0085022D01*
X0043811Y0085036D01*
X0043813Y0085049D01*
X0043816Y0085068D01*
X0043819Y0085087D01*
X0043822Y0085106D01*
X0043824Y0085123D01*
X0043827Y0085139D01*
X0043830Y0085158D01*
X0043833Y0085174D01*
X0043836Y0085195D01*
X0043839Y0085211D01*
X0043843Y0085230D01*
X0043845Y0085244D01*
X0043848Y0085257D01*
X0043852Y0085280D01*
X0043856Y0085301D01*
X0043859Y0085317D01*
X0043862Y0085332D01*
X0043866Y0085350D01*
X0043869Y0085368D01*
X0043873Y0085386D01*
X0043877Y0085403D01*
X0043880Y0085419D01*
X0043884Y0085435D01*
X0043888Y0085455D01*
X0043893Y0085475D01*
X0043896Y0085489D01*
X0043901Y0085508D01*
X0043905Y0085525D01*
X0043909Y0085541D01*
X0043913Y0085561D01*
X0043918Y0085579D01*
X0043923Y0085597D01*
X0043926Y0085610D01*
X0043931Y0085630D01*
X0043936Y0085646D01*
X0043941Y0085665D01*
X0043945Y0085682D01*
X0043949Y0085695D01*
X0043955Y0085718D01*
X0043959Y0085733D01*
X0043964Y0085748D01*
X0043970Y0085769D01*
X0043976Y0085790D01*
X0043980Y0085802D01*
X0043984Y0085817D01*
X0043990Y0085835D01*
X0043995Y0085854D01*
X0044003Y0085877D01*
X0044006Y0085889D01*
X0044009Y0085898D01*
X0044018Y0085925D01*
X0044023Y0085940D01*
X0044029Y0085957D01*
X0044036Y0085979D01*
X0044041Y0085993D01*
X0044046Y0086010D01*
X0044053Y0086029D01*
X0044059Y0086045D01*
X0044064Y0086058D01*
X0044071Y0086080D01*
X0044077Y0086095D01*
X0044083Y0086113D01*
X0044090Y0086131D01*
X0044096Y0086148D01*
X0044101Y0086159D01*
X0044109Y0086182D01*
X0044116Y0086201D01*
X0044122Y0086214D01*
X0044129Y0086231D01*
X0044135Y0086248D01*
X0044143Y0086267D01*
X0044149Y0086283D01*
X0044155Y0086298D01*
X0044171Y0086336D01*
X0044177Y0086350D01*
X0044184Y0086366D01*
X0044190Y0086380D01*
X0044199Y0086400D01*
X0044207Y0086418D01*
X0044215Y0086437D01*
X0044221Y0086451D01*
X0044229Y0086467D01*
X0044235Y0086482D01*
X0044244Y0086501D01*
X0044250Y0086515D01*
X0044259Y0086533D01*
X0044266Y0086549D01*
X0044274Y0086566D01*
X0044280Y0086577D01*
X0044292Y0086603D01*
X0044303Y0086624D01*
X0044307Y0086632D01*
X0044309Y0086638D01*
X0044322Y0086663D01*
X0044336Y0086690D01*
X0044340Y0086698D01*
X0044349Y0086715D01*
X0044352Y0086722D01*
X0044366Y0086748D01*
X0044377Y0086768D01*
X0044381Y0086776D01*
X0044391Y0086796D01*
X0044399Y0086810D01*
X0044411Y0086832D01*
X0044418Y0086844D01*
X0044422Y0086851D01*
X0044433Y0086872D01*
X0044445Y0086893D01*
X0044457Y0086915D01*
X0044463Y0086924D01*
X0044468Y0086933D01*
X0044480Y0086953D01*
X0044499Y0086986D01*
X0044507Y0086999D01*
X0044517Y0087017D01*
X0044536Y0087048D01*
X0044542Y0087057D01*
X0044558Y0087082D01*
X0044565Y0087093D01*
X0044575Y0087109D01*
X0044585Y0087126D01*
X0044596Y0087143D01*
X0044604Y0087156D01*
X0044615Y0087172D01*
X0044624Y0087186D01*
X0044633Y0087200D01*
X0044645Y0087218D01*
X0044655Y0087233D01*
X0044666Y0087249D01*
X0044674Y0087261D01*
X0044687Y0087280D01*
X0044690Y0087284D01*
X0044710Y0087313D01*
X0044727Y0087337D01*
X0044735Y0087349D01*
X0044749Y0087368D01*
X0044760Y0087384D01*
X0044762Y0087386D01*
X0044783Y0087416D01*
X0044789Y0087423D01*
X0044801Y0087440D01*
X0044828Y0087476D01*
X0044833Y0087482D01*
X0044852Y0087506D01*
X0044857Y0087513D01*
X0044868Y0087528D01*
X0044881Y0087544D01*
X0044888Y0087554D01*
X0044904Y0087574D01*
X0044914Y0087586D01*
X0044926Y0087601D01*
X0044936Y0087614D01*
X0044949Y0087629D01*
X0044958Y0087640D01*
X0044967Y0087651D01*
X0044983Y0087670D01*
X0044996Y0087686D01*
X0045018Y0087713D01*
X0045040Y0087738D01*
X0045050Y0087749D01*
X0045063Y0087764D01*
X0045079Y0087783D01*
X0045090Y0087795D01*
X0045091Y0087796D01*
X0045126Y0087835D01*
X0045145Y0087856D01*
X0045147Y0087858D01*
X0045179Y0087893D01*
X0045187Y0087901D01*
X0045195Y0087910D01*
X0045214Y0087930D01*
X0045223Y0087939D01*
X0045235Y0087952D01*
X0045250Y0087967D01*
X0045263Y0087981D01*
X0045273Y0087991D01*
X0045283Y0088001D01*
X0045300Y0088018D01*
X0045312Y0088031D01*
X0045325Y0088043D01*
X0045334Y0088052D01*
X0045355Y0088072D01*
X0045363Y0088080D01*
X0045376Y0088093D01*
X0045386Y0088102D01*
X0045398Y0088114D01*
X0045417Y0088132D01*
X0045427Y0088142D01*
X0045439Y0088153D01*
X0045457Y0088169D01*
X0045467Y0088179D01*
X0045485Y0088195D01*
X0045491Y0088201D01*
X0045503Y0088212D01*
X0045534Y0088239D01*
X0045557Y0088260D01*
X0045575Y0088275D01*
X0045600Y0088296D01*
X0045629Y0088321D01*
X0045633Y0088325D01*
X0045668Y0088354D01*
X0045698Y0088379D01*
X0045700Y0088381D01*
X0045728Y0088403D01*
X0045734Y0088408D01*
X0045781Y0088445D01*
X0045797Y0088458D01*
X0045803Y0088463D01*
X0045814Y0088471D01*
X0045834Y0088486D01*
X0045850Y0088498D01*
X0045876Y0088518D01*
X0045886Y0088525D01*
X0045901Y0088536D01*
X0045926Y0088555D01*
X0045946Y0088569D01*
X0045962Y0088581D01*
X0045973Y0088589D01*
X0045981Y0088594D01*
X0046004Y0088611D01*
X0046044Y0088638D01*
X0046088Y0088669D01*
X0046117Y0088688D01*
X0046129Y0088696D01*
X0046144Y0088706D01*
X0046155Y0088713D01*
X0046170Y0088723D01*
X0046190Y0088736D01*
X0046205Y0088745D01*
X0046216Y0088752D01*
X0046219Y0088754D01*
X0046250Y0088774D01*
X0046265Y0088783D01*
X0046271Y0088787D01*
X0046567Y0088967D01*
X0047274Y0089384D01*
X0047985Y0089787D01*
X0048701Y0090178D01*
X0049426Y0090559D01*
X0050158Y0090931D01*
X0050898Y0091293D01*
X0051644Y0091647D01*
X0052395Y0091992D01*
X0053153Y0092330D01*
X0053916Y0092660D01*
X0054683Y0092982D01*
X0055454Y0093296D01*
X0056230Y0093603D01*
X0057009Y0093903D01*
X0057791Y0094196D01*
X0058577Y0094482D01*
X0059365Y0094762D01*
X0060157Y0095035D01*
X0060949Y0095303D01*
X0061744Y0095564D01*
X0062542Y0095820D01*
X0063341Y0096070D01*
X0064144Y0096315D01*
X0064947Y0096555D01*
X0065475Y0096708D01*
X0063000Y0094247D01*
X0062161Y0092890D01*
X0062161Y0092890D01*
X0061702Y0092148D01*
X0061643Y0092054D01*
X0061643Y0092054D01*
X0060569Y0090319D01*
X0059538Y0089892D01*
X0058590Y0088944D01*
X0058077Y0087706D01*
X0058077Y0086366D01*
X0058590Y0085128D01*
X0059538Y0084181D01*
X0060776Y0083668D01*
X0062116Y0083668D01*
X0063354Y0084181D01*
X0064301Y0085128D01*
X0064814Y0086366D01*
X0064814Y0087706D01*
X0064796Y0087750D01*
X0066108Y0089868D01*
X0066970Y0091095D01*
X0069091Y0093205D01*
X0071644Y0094767D01*
X0073040Y0095315D01*
X0076694Y0096378D01*
X0080408Y0097204D01*
X0080408Y0097204D01*
X0085572Y0098130D01*
X0090752Y0098961D01*
X0094827Y0099525D01*
X0093664Y0098155D01*
X0093028Y0096423D01*
X0093028Y0093250D01*
X0092712Y0093250D01*
X0091551Y0092089D01*
X0091551Y0091136D01*
X0091368Y0091494D01*
X0090964Y0092052D01*
X0090477Y0092538D01*
X0089920Y0092943D01*
X0089306Y0093256D01*
X0088651Y0093469D01*
X0087971Y0093576D01*
X0087627Y0093576D01*
X0087627Y0089202D01*
X0087627Y0089202D01*
X0087627Y0093576D01*
X0087282Y0093576D01*
X0086602Y0093469D01*
X0085947Y0093256D01*
X0085334Y0092943D01*
X0084777Y0092538D01*
X0084290Y0092052D01*
X0083885Y0091494D01*
X0083572Y0090881D01*
X0083360Y0090226D01*
X0083252Y0089546D01*
X0083252Y0089202D01*
X0087627Y0089202D01*
X0087627Y0089202D01*
X0083252Y0089202D01*
X0083252Y0088857D01*
X0083360Y0088177D01*
X0083572Y0087522D01*
X0083885Y0086909D01*
X0084290Y0086352D01*
X0084758Y0085883D01*
X0084231Y0085883D01*
X0083071Y0084723D01*
X0083071Y0080269D01*
X0081790Y0078988D01*
X0081413Y0078079D01*
X0081413Y0073749D01*
X0081790Y0072840D01*
X0082486Y0072144D01*
X0089179Y0065451D01*
X0090088Y0065075D01*
X0094083Y0065075D01*
X0096813Y0062344D01*
X0094642Y0062344D01*
X0094259Y0062727D01*
X0093021Y0063239D01*
X0091681Y0063239D01*
X0090443Y0062727D01*
X0089495Y0061779D01*
X0088983Y0060541D01*
X0088983Y0059201D01*
X0089495Y0057963D01*
X0090443Y0057015D01*
X0091681Y0056502D01*
X0093021Y0056502D01*
X0094259Y0057015D01*
X0094642Y0057398D01*
X0098945Y0057398D01*
X0099855Y0057774D01*
X0100748Y0058668D01*
X0101289Y0058668D01*
X0102527Y0059181D01*
X0103475Y0060128D01*
X0103987Y0061366D01*
X0103987Y0062706D01*
X0103475Y0063944D01*
X0102557Y0064862D01*
X0106071Y0064862D01*
X0105232Y0063409D01*
X0105232Y0056131D01*
X0105177Y0055569D01*
X0104747Y0054530D01*
X0103952Y0053735D01*
X0102913Y0053305D01*
X0102351Y0053250D01*
X0082128Y0053250D01*
X0082128Y0054983D01*
X0080967Y0056143D01*
X0074601Y0056143D01*
X0073441Y0054983D01*
X0073441Y0048617D01*
X0074601Y0047457D01*
X0075988Y0047457D01*
X0077005Y0044120D01*
X0079567Y0039647D01*
X0079567Y0039647D01*
X0083062Y0035855D01*
X0087312Y0032937D01*
X0092105Y0031037D01*
X0097200Y0030251D01*
X0097200Y0030251D01*
X0099684Y0030429D01*
X0119779Y0030429D01*
X0120074Y0030134D01*
X0121150Y0030134D01*
X0127211Y0024072D01*
X0125407Y0024072D01*
X0125393Y0024072D01*
X0125370Y0024073D01*
X0125354Y0024073D01*
X0125335Y0024073D01*
X0125319Y0024073D01*
X0125300Y0024074D01*
X0125283Y0024074D01*
X0125265Y0024075D01*
X0125246Y0024075D01*
X0125230Y0024076D01*
X0125212Y0024077D01*
X0125194Y0024077D01*
X0125175Y0024078D01*
X0125157Y0024079D01*
X0125140Y0024080D01*
X0125123Y0024081D01*
X0125002Y0024088D01*
X0124168Y0024138D01*
X0123333Y0024190D01*
X0122496Y0024243D01*
X0121664Y0024298D01*
X0120826Y0024354D01*
X0119994Y0024411D01*
X0119157Y0024470D01*
X0118323Y0024531D01*
X0117492Y0024593D01*
X0116656Y0024656D01*
X0115825Y0024721D01*
X0114989Y0024788D01*
X0114158Y0024856D01*
X0113325Y0024926D01*
X0112493Y0024998D01*
X0111652Y0025072D01*
X0110826Y0025146D01*
X0109994Y0025223D01*
X0109162Y0025301D01*
X0108324Y0025382D01*
X0107500Y0025463D01*
X0106663Y0025548D01*
X0105836Y0025633D01*
X0104999Y0025721D01*
X0104173Y0025810D01*
X0103337Y0025902D01*
X0102511Y0025995D01*
X0101678Y0026090D01*
X0100851Y0026187D01*
X0100018Y0026286D01*
X0099193Y0026387D01*
X0098363Y0026490D01*
X0097532Y0026596D01*
X0096700Y0026703D01*
X0095874Y0026813D01*
X0095048Y0026924D01*
X0094216Y0027038D01*
X0093391Y0027154D01*
X0092563Y0027273D01*
X0091736Y0027393D01*
X0090908Y0027517D01*
X0090084Y0027642D01*
X0089256Y0027771D01*
X0088431Y0027902D01*
X0087608Y0028035D01*
X0086781Y0028171D01*
X0085956Y0028310D01*
X0085134Y0028451D01*
X0084310Y0028596D01*
X0083488Y0028743D01*
X0082664Y0028894D01*
X0081843Y0029047D01*
X0081020Y0029203D01*
X0080198Y0029363D01*
X0079382Y0029524D01*
X0078563Y0029690D01*
X0077746Y0029858D01*
X0076930Y0030030D01*
X0076118Y0030205D01*
X0075304Y0030384D01*
X0074494Y0030565D01*
X0073684Y0030751D01*
X0072874Y0030941D01*
X0072070Y0031133D01*
X0071263Y0031331D01*
X0070460Y0031531D01*
X0069657Y0031736D01*
X0068859Y0031945D01*
X0068057Y0032159D01*
X0067261Y0032376D01*
X0066197Y0032675D02*
X0087973Y0032675D01*
X0087312Y0032937D02*
X0087312Y0032937D01*
X0085366Y0034273D02*
X0060995Y0034273D01*
X0056533Y0035872D02*
X0083047Y0035872D01*
X0083062Y0035855D02*
X0083062Y0035855D01*
X0083062Y0035855D01*
X0081573Y0037470D02*
X0052685Y0037470D01*
X0049362Y0039069D02*
X0080100Y0039069D01*
X0078983Y0040667D02*
X0051995Y0040667D01*
X0053529Y0042266D02*
X0078067Y0042266D01*
X0077151Y0043864D02*
X0054191Y0043864D01*
X0054275Y0045463D02*
X0076595Y0045463D01*
X0077005Y0044120D02*
X0077005Y0044120D01*
X0081678Y0046141D02*
X0081204Y0047694D01*
X0081814Y0048303D01*
X0103908Y0048303D01*
X0106785Y0049495D01*
X0106785Y0049495D01*
X0108987Y0051697D01*
X0110179Y0054574D01*
X0110179Y0058407D01*
X0110264Y0058202D01*
X0111434Y0057031D01*
X0112964Y0056398D01*
X0118982Y0056398D01*
X0120512Y0057031D01*
X0121683Y0058202D01*
X0122317Y0059732D01*
X0122317Y0061388D01*
X0121683Y0062918D01*
X0121494Y0063106D01*
X0122601Y0063106D01*
X0123761Y0064267D01*
X0123761Y0064956D01*
X0123988Y0064862D01*
X0130006Y0064862D01*
X0131536Y0065496D01*
X0132706Y0066667D01*
X0133266Y0068017D01*
X0133470Y0067814D01*
X0134379Y0067437D01*
X0138636Y0067437D01*
X0137888Y0066690D01*
X0137888Y0062895D01*
X0140572Y0060211D01*
X0144367Y0060211D01*
X0147050Y0062895D01*
X0147050Y0066690D01*
X0146303Y0067437D01*
X0148892Y0067437D01*
X0148069Y0066615D01*
X0148069Y0064792D01*
X0148069Y0062970D01*
X0150647Y0060392D01*
X0152469Y0060392D01*
X0152469Y0064792D01*
X0148069Y0064792D01*
X0152469Y0064792D01*
X0152469Y0064792D01*
X0152469Y0064792D01*
X0152469Y0060392D01*
X0154292Y0060392D01*
X0156869Y0062970D01*
X0156869Y0064792D01*
X0152469Y0064792D01*
X0152469Y0064792D01*
X0156869Y0064792D01*
X0156869Y0066615D01*
X0156047Y0067437D01*
X0178670Y0067437D01*
X0179579Y0067814D01*
X0180275Y0068509D01*
X0194557Y0082791D01*
X0197338Y0082791D01*
X0197830Y0082299D01*
X0201046Y0082299D01*
X0201406Y0082660D01*
X0201767Y0082299D01*
X0204983Y0082299D01*
X0205475Y0082791D01*
X0209319Y0082791D01*
X0209574Y0082175D01*
X0210522Y0081228D01*
X0211760Y0080715D01*
X0213100Y0080715D01*
X0214338Y0081228D01*
X0215286Y0082175D01*
X0215798Y0083413D01*
X0215798Y0084753D01*
X0215286Y0085992D01*
X0214460Y0086817D01*
X0215659Y0086817D01*
X0216897Y0087330D01*
X0217845Y0088278D01*
X0218357Y0089516D01*
X0218357Y0090856D01*
X0217845Y0092094D01*
X0217462Y0092476D01*
X0217462Y0094601D01*
X0217497Y0094979D01*
X0217462Y0095090D01*
X0217462Y0095205D01*
X0217317Y0095556D01*
X0217204Y0095919D01*
X0217130Y0096008D01*
X0217086Y0096114D01*
X0216970Y0096230D01*
X0216970Y0097502D01*
X0215810Y0098663D01*
X0212200Y0098663D01*
X0211948Y0098411D01*
X0211683Y0098482D01*
X0210461Y0098482D01*
X0209240Y0098482D01*
X0208782Y0098359D01*
X0208372Y0098122D01*
X0208037Y0097787D01*
X0207800Y0097377D01*
X0207677Y0096919D01*
X0207677Y0095895D01*
X0210461Y0095895D01*
X0210461Y0098482D01*
X0210461Y0095895D01*
X0210461Y0095895D01*
X0210461Y0095894D01*
X0210461Y0095894D01*
X0210461Y0093307D01*
X0209240Y0093307D01*
X0208782Y0093430D01*
X0208372Y0093667D01*
X0208037Y0094002D01*
X0207800Y0094412D01*
X0207677Y0094870D01*
X0207677Y0095894D01*
X0210461Y0095894D01*
X0210461Y0093307D01*
X0211683Y0093307D01*
X0211948Y0093378D01*
X0212200Y0093126D01*
X0212516Y0093126D01*
X0212516Y0092476D01*
X0212133Y0092094D01*
X0211620Y0090856D01*
X0211620Y0089516D01*
X0212133Y0088278D01*
X0212959Y0087452D01*
X0211760Y0087452D01*
X0211490Y0087340D01*
X0211469Y0087361D01*
X0211095Y0087516D01*
X0210734Y0087697D01*
X0210643Y0087703D01*
X0210560Y0087738D01*
X0210218Y0087738D01*
X0210561Y0088081D01*
X0211074Y0089319D01*
X0211074Y0090659D01*
X0210561Y0091897D01*
X0209614Y0092845D01*
X0208376Y0093357D01*
X0207035Y0093357D01*
X0205797Y0092845D01*
X0204850Y0091897D01*
X0204799Y0091773D01*
X0201767Y0091773D01*
X0201406Y0091413D01*
X0201046Y0091773D01*
X0197830Y0091773D01*
X0196944Y0090887D01*
X0192253Y0090887D01*
X0191344Y0090511D01*
X0175972Y0075139D01*
X0172731Y0075139D01*
X0180366Y0082774D01*
X0181062Y0083470D01*
X0181439Y0084379D01*
X0181439Y0085927D01*
X0181821Y0086309D01*
X0182334Y0087547D01*
X0182334Y0088887D01*
X0181821Y0090125D01*
X0180873Y0091073D01*
X0179635Y0091586D01*
X0178295Y0091586D01*
X0177057Y0091073D01*
X0176110Y0090125D01*
X0175597Y0088887D01*
X0175597Y0087547D01*
X0176110Y0086309D01*
X0176492Y0085927D01*
X0176492Y0085895D01*
X0168295Y0077698D01*
X0161005Y0077698D01*
X0161349Y0078041D01*
X0161861Y0079280D01*
X0161861Y0080620D01*
X0161349Y0081858D01*
X0160966Y0082240D01*
X0160966Y0082607D01*
X0160590Y0083516D01*
X0155865Y0088240D01*
X0155169Y0088936D01*
X0154260Y0089313D01*
X0144451Y0089313D01*
X0144156Y0089608D01*
X0143080Y0089608D01*
X0139723Y0092965D01*
X0139028Y0093660D01*
X0138119Y0094037D01*
X0129765Y0094037D01*
X0129765Y0094747D01*
X0128605Y0095907D01*
X0123814Y0095907D01*
X0122654Y0094747D01*
X0122654Y0089168D01*
X0123814Y0088008D01*
X0128605Y0088008D01*
X0129688Y0089091D01*
X0136602Y0089091D01*
X0139386Y0086307D01*
X0139386Y0085231D01*
X0139746Y0084871D01*
X0139386Y0084510D01*
X0139386Y0084167D01*
X0138475Y0083790D01*
X0137527Y0082842D01*
X0137014Y0081604D01*
X0137014Y0080264D01*
X0137527Y0079026D01*
X0137990Y0078563D01*
X0138106Y0075182D01*
X0138106Y0075139D01*
X0137864Y0075139D01*
X0134303Y0078700D01*
X0133394Y0079076D01*
X0132589Y0079076D01*
X0132630Y0079100D01*
X0132965Y0079435D01*
X0133202Y0079845D01*
X0133324Y0080303D01*
X0133324Y0082509D01*
X0133324Y0084714D01*
X0133202Y0085172D01*
X0132965Y0085582D01*
X0132630Y0085918D01*
X0132219Y0086154D01*
X0131761Y0086277D01*
X0129950Y0086277D01*
X0129950Y0082509D01*
X0133324Y0082509D01*
X0129950Y0082509D01*
X0129950Y0082509D01*
X0129950Y0082509D01*
X0129950Y0086277D01*
X0128138Y0086277D01*
X0127680Y0086154D01*
X0127270Y0085918D01*
X0126934Y0085582D01*
X0126697Y0085172D01*
X0126575Y0084714D01*
X0126575Y0082509D01*
X0129949Y0082509D01*
X0129949Y0082509D01*
X0126575Y0082509D01*
X0126575Y0080303D01*
X0126697Y0079845D01*
X0126934Y0079435D01*
X0127270Y0079100D01*
X0127310Y0079076D01*
X0125382Y0079076D01*
X0126025Y0079720D01*
X0126025Y0085298D01*
X0124865Y0086458D01*
X0120074Y0086458D01*
X0118913Y0085298D01*
X0118913Y0083407D01*
X0115481Y0083407D01*
X0114572Y0083031D01*
X0113877Y0082335D01*
X0109477Y0077935D01*
X0108210Y0079202D01*
X0108210Y0079642D01*
X0108526Y0079642D01*
X0109687Y0080802D01*
X0109687Y0083858D01*
X0110461Y0083858D01*
X0110461Y0086446D01*
X0110461Y0086446D01*
X0107677Y0086446D01*
X0107677Y0087122D01*
X0102948Y0087122D01*
X0101787Y0088283D01*
X0101787Y0092089D01*
X0102948Y0093250D01*
X0108526Y0093250D01*
X0108641Y0093135D01*
X0108657Y0093151D01*
X0112266Y0093151D01*
X0113427Y0091991D01*
X0113427Y0088775D01*
X0112924Y0088272D01*
X0113123Y0087928D01*
X0113246Y0087470D01*
X0113246Y0086446D01*
X0110462Y0086446D01*
X0110462Y0086446D01*
X0113246Y0086446D01*
X0113246Y0085421D01*
X0113123Y0084963D01*
X0112886Y0084553D01*
X0112551Y0084218D01*
X0112140Y0083981D01*
X0111683Y0083858D01*
X0110461Y0083858D01*
X0110461Y0086446D01*
X0107677Y0086446D01*
X0107677Y0085769D01*
X0102948Y0085769D01*
X0101787Y0084609D01*
X0101787Y0080802D01*
X0102637Y0079953D01*
X0102262Y0079579D01*
X0102055Y0079372D01*
X0100979Y0079372D01*
X0100727Y0079120D01*
X0100462Y0079191D01*
X0099241Y0079191D01*
X0099241Y0076603D01*
X0099241Y0074016D01*
X0100462Y0074016D01*
X0100727Y0074087D01*
X0100979Y0073835D01*
X0104589Y0073835D01*
X0105586Y0074831D01*
X0107231Y0073187D01*
X0101941Y0073187D01*
X0100411Y0072553D01*
X0099240Y0071382D01*
X0098606Y0069852D01*
X0098606Y0068196D01*
X0099066Y0067087D01*
X0097204Y0068949D01*
X0096508Y0069645D01*
X0095599Y0070021D01*
X0091604Y0070021D01*
X0091546Y0070079D01*
X0092194Y0070079D01*
X0092652Y0070201D01*
X0093063Y0070438D01*
X0093398Y0070774D01*
X0093635Y0071184D01*
X0093757Y0071642D01*
X0093757Y0072863D01*
X0093757Y0074084D01*
X0093686Y0074349D01*
X0093939Y0074601D01*
X0093939Y0078211D01*
X0093787Y0078362D01*
X0093925Y0078362D01*
X0095015Y0078814D01*
X0095843Y0079642D01*
X0098290Y0079642D01*
X0099450Y0080802D01*
X0099450Y0084609D01*
X0099198Y0084861D01*
X0099269Y0085126D01*
X0099269Y0086446D01*
X0099269Y0087765D01*
X0099198Y0088030D01*
X0099450Y0088283D01*
X0099450Y0092089D01*
X0098290Y0093250D01*
X0097974Y0093250D01*
X0097974Y0095501D01*
X0097978Y0095543D01*
X0098007Y0095622D01*
X0098061Y0095686D01*
X0098096Y0095710D01*
X0098096Y0095710D01*
X0100083Y0096714D01*
X0104293Y0098148D01*
X0106480Y0098564D01*
X0114329Y0099511D01*
X0122163Y0100114D01*
X0189442Y0100114D01*
X0194101Y0095973D01*
X0194101Y0095618D01*
X0194614Y0094380D01*
X0195561Y0093433D01*
X0196799Y0092920D01*
X0198139Y0092920D01*
X0199377Y0093433D01*
X0200325Y0094380D01*
X0200838Y0095618D01*
X0200838Y0096958D01*
X0200325Y0098196D01*
X0199377Y0099144D01*
X0198139Y0099657D01*
X0197402Y0099657D01*
X0194293Y0102421D01*
X0199102Y0102198D01*
X0211149Y0101118D01*
X0223114Y0099343D01*
X0228636Y0098278D01*
X0228664Y0098260D01*
X0229101Y0098187D01*
X0229534Y0098097D01*
X0229563Y0098103D01*
X0235040Y0097087D01*
X0246686Y0094273D01*
X0247532Y0094020D01*
X0246580Y0093068D01*
X0245827Y0091249D01*
X0245827Y0089280D01*
X0246580Y0087461D01*
X0247973Y0086068D01*
X0249792Y0085315D01*
X0251761Y0085315D01*
X0253580Y0086068D01*
X0254811Y0087299D01*
X0254824Y0087299D01*
X0255921Y0086202D01*
X0255921Y0074438D01*
X0256373Y0073349D01*
X0263506Y0066215D01*
X0264596Y0065764D01*
X0265084Y0065764D01*
X0265251Y0065597D01*
X0265161Y0065545D01*
X0264826Y0065210D01*
X0264589Y0064800D01*
X0264467Y0064342D01*
X0264467Y0060930D01*
X0269441Y0060930D01*
X0269441Y0060780D01*
X0264467Y0060780D01*
X0264467Y0057368D01*
X0264589Y0056910D01*
X0264826Y0056500D01*
X0265161Y0056165D01*
X0265572Y0055928D01*
X0266030Y0055805D01*
X0269442Y0055805D01*
X0269442Y0060780D01*
X0269592Y0060780D01*
X0269592Y0060930D01*
X0274567Y0060930D01*
X0274567Y0064342D01*
X0274444Y0064800D01*
X0274207Y0065210D01*
X0273872Y0065545D01*
X0273782Y0065597D01*
X0273951Y0065766D01*
X0274748Y0067689D01*
X0274748Y0069770D01*
X0273951Y0071692D01*
X0272977Y0072666D01*
X0273951Y0073640D01*
X0274748Y0075563D01*
X0274748Y0077644D01*
X0273951Y0079566D01*
X0272977Y0080540D01*
X0273951Y0081514D01*
X0274748Y0083437D01*
X0274748Y0084927D01*
X0274763Y0084827D01*
X0274771Y0084716D01*
X0274769Y0084710D01*
X0274785Y0084501D01*
X0274785Y0084267D01*
X0274793Y0084248D01*
X0274793Y0084138D01*
X0274795Y0084133D01*
X0274795Y0084087D01*
X0274797Y0084082D01*
X0274797Y0084035D01*
X0274799Y0084030D01*
X0274799Y0083984D01*
X0274801Y0083979D01*
X0274801Y0083881D01*
X0274803Y0083876D01*
X0274803Y0045682D01*
X0274801Y0045677D01*
X0274801Y0045605D01*
X0274799Y0045600D01*
X0274799Y0045528D01*
X0274797Y0045523D01*
X0274797Y0045455D01*
X0274793Y0045446D01*
X0274793Y0045378D01*
X0274789Y0045368D01*
X0274789Y0045108D01*
X0274777Y0044942D01*
X0274774Y0044938D01*
X0274755Y0044677D01*
X0274720Y0044447D01*
X0274721Y0044441D01*
X0274711Y0044375D01*
X0274647Y0044093D01*
X0274647Y0044093D01*
X0274603Y0043900D01*
X0274577Y0043811D01*
X0274572Y0043806D01*
X0274501Y0043578D01*
X0274425Y0043379D01*
X0274354Y0043202D01*
X0274264Y0043009D01*
X0274263Y0043009D01*
X0274156Y0042794D01*
X0274060Y0042624D01*
X0274059Y0042622D01*
X0273976Y0042485D01*
X0273834Y0042277D01*
X0273831Y0042262D01*
X0273822Y0042249D01*
X0273670Y0042048D01*
X0273509Y0041850D01*
X0273507Y0041844D01*
X0273506Y0041843D01*
X0273485Y0041817D01*
X0273433Y0041762D01*
X0273239Y0041562D01*
X0273125Y0041447D01*
X0273124Y0041446D01*
X0273094Y0041415D01*
X0273073Y0041396D01*
X0273063Y0041386D01*
X0273009Y0041339D01*
X0272992Y0041325D01*
X0272724Y0041110D01*
X0272461Y0040917D01*
X0272414Y0040885D01*
X0272398Y0040875D01*
X0272384Y0040866D01*
X0272365Y0040854D01*
X0272350Y0040844D01*
X0272337Y0040836D01*
X0272319Y0040825D01*
X0272303Y0040815D01*
X0272288Y0040805D01*
X0272283Y0040802D01*
X0271614Y0040401D01*
X0270910Y0039993D01*
X0270195Y0039597D01*
X0269473Y0039210D01*
X0268745Y0038834D01*
X0268010Y0038467D01*
X0267267Y0038110D01*
X0266517Y0037760D01*
X0265761Y0037419D01*
X0265002Y0037085D01*
X0264237Y0036760D01*
X0263467Y0036441D01*
X0262695Y0036131D01*
X0261916Y0035828D01*
X0261135Y0035532D01*
X0260352Y0035242D01*
X0259563Y0034960D01*
X0258772Y0034683D01*
X0257983Y0034412D01*
X0257190Y0034149D01*
X0256391Y0033889D01*
X0255593Y0033637D01*
X0254793Y0033389D01*
X0253989Y0033147D01*
X0253183Y0032910D01*
X0252375Y0032678D01*
X0251568Y0032450D01*
X0250754Y0032227D01*
X0249943Y0032009D01*
X0249128Y0031795D01*
X0248311Y0031585D01*
X0247491Y0031379D01*
X0246673Y0031178D01*
X0245853Y0030980D01*
X0245031Y0030787D01*
X0244205Y0030597D01*
X0243380Y0030411D01*
X0242557Y0030230D01*
X0241728Y0030051D01*
X0240900Y0029876D01*
X0240070Y0029705D01*
X0239242Y0029537D01*
X0238410Y0029372D01*
X0237578Y0029210D01*
X0236749Y0029053D01*
X0235914Y0028897D01*
X0235083Y0028745D01*
X0234248Y0028596D01*
X0233416Y0028450D01*
X0232582Y0028306D01*
X0231746Y0028166D01*
X0230911Y0028028D01*
X0230077Y0027893D01*
X0229239Y0027761D01*
X0228407Y0027632D01*
X0227570Y0027504D01*
X0226731Y0027380D01*
X0225898Y0027258D01*
X0225058Y0027138D01*
X0224222Y0027021D01*
X0223385Y0026906D01*
X0222544Y0026794D01*
X0221705Y0026683D01*
X0220869Y0026576D01*
X0220029Y0026469D01*
X0219186Y0026365D01*
X0218344Y0026263D01*
X0217509Y0026164D01*
X0216667Y0026066D01*
X0215824Y0025969D01*
X0214986Y0025876D01*
X0214142Y0025784D01*
X0213301Y0025694D01*
X0212463Y0025606D01*
X0211619Y0025520D01*
X0210780Y0025436D01*
X0209938Y0025353D01*
X0209093Y0025272D01*
X0208249Y0025194D01*
X0207407Y0025117D01*
X0206565Y0025041D01*
X0205722Y0024968D01*
X0204879Y0024896D01*
X0204031Y0024826D01*
X0203190Y0024757D01*
X0202346Y0024690D01*
X0201504Y0024625D01*
X0200656Y0024562D01*
X0199812Y0024500D01*
X0198966Y0024439D01*
X0198122Y0024380D01*
X0197273Y0024322D01*
X0196433Y0024267D01*
X0195587Y0024212D01*
X0194741Y0024159D01*
X0193888Y0024107D01*
X0193447Y0024081D01*
X0193432Y0024080D01*
X0193414Y0024079D01*
X0193393Y0024078D01*
X0193378Y0024078D01*
X0193358Y0024077D01*
X0193342Y0024076D01*
X0193324Y0024076D01*
X0193303Y0024075D01*
X0193286Y0024074D01*
X0193268Y0024074D01*
X0193253Y0024074D01*
X0193235Y0024073D01*
X0193213Y0024073D01*
X0193200Y0024073D01*
X0193177Y0024073D01*
X0193162Y0024072D01*
X0193143Y0024072D01*
X0180296Y0024072D01*
X0180323Y0024138D01*
X0182893Y0027280D01*
X0207593Y0027280D01*
X0207972Y0027245D01*
X0208082Y0027280D01*
X0208197Y0027280D01*
X0208548Y0027425D01*
X0208911Y0027538D01*
X0209000Y0027612D01*
X0209106Y0027656D01*
X0209375Y0027925D01*
X0216086Y0033517D01*
X0216193Y0033562D01*
X0216462Y0033830D01*
X0216753Y0034073D01*
X0216807Y0034176D01*
X0216889Y0034257D01*
X0217034Y0034608D01*
X0217211Y0034944D01*
X0217221Y0035060D01*
X0217265Y0035166D01*
X0217265Y0035546D01*
X0217300Y0035924D01*
X0217265Y0036035D01*
X0217265Y0044014D01*
X0217767Y0045224D01*
X0217767Y0046565D01*
X0217254Y0047803D01*
X0216307Y0048750D01*
X0215068Y0049263D01*
X0213728Y0049263D01*
X0212490Y0048750D01*
X0211543Y0047803D01*
X0211030Y0046565D01*
X0211030Y0046223D01*
X0210344Y0046507D01*
X0209060Y0046507D01*
X0215128Y0052575D01*
X0215567Y0052575D01*
X0215567Y0052430D01*
X0215988Y0051413D01*
X0216767Y0050634D01*
X0219917Y0047484D01*
X0220934Y0047063D01*
X0229122Y0047063D01*
X0230140Y0047484D01*
X0230919Y0048263D01*
X0231481Y0048825D01*
X0231604Y0048825D01*
X0232842Y0049338D01*
X0233790Y0050286D01*
X0234302Y0051524D01*
X0234302Y0052864D01*
X0233790Y0054102D01*
X0232842Y0055049D01*
X0231604Y0055562D01*
X0230264Y0055562D01*
X0229026Y0055049D01*
X0228078Y0054102D01*
X0227565Y0052864D01*
X0227565Y0052740D01*
X0227425Y0052600D01*
X0222632Y0052600D01*
X0222476Y0052756D01*
X0222568Y0052756D01*
X0224084Y0052756D01*
X0224542Y0052879D01*
X0224952Y0053116D01*
X0225288Y0053451D01*
X0225525Y0053861D01*
X0225647Y0054319D01*
X0225647Y0056390D01*
X0226327Y0056109D01*
X0227667Y0056109D01*
X0228905Y0056621D01*
X0229853Y0057569D01*
X0230365Y0058807D01*
X0230365Y0059348D01*
X0232177Y0061160D01*
X0232873Y0061856D01*
X0233163Y0062556D01*
X0233491Y0061765D01*
X0234994Y0060262D01*
X0236958Y0059449D01*
X0239083Y0059449D01*
X0241047Y0060262D01*
X0242550Y0061765D01*
X0243364Y0063729D01*
X0243364Y0065855D01*
X0242550Y0067819D01*
X0241047Y0069322D01*
X0239083Y0070135D01*
X0236958Y0070135D01*
X0234994Y0069322D01*
X0233491Y0067819D01*
X0233250Y0067237D01*
X0233250Y0075932D01*
X0233580Y0076068D01*
X0234972Y0077461D01*
X0235726Y0079280D01*
X0235726Y0081249D01*
X0234972Y0083068D01*
X0233580Y0084461D01*
X0231761Y0085214D01*
X0229792Y0085214D01*
X0227973Y0084461D01*
X0226580Y0083068D01*
X0225827Y0081249D01*
X0225827Y0079280D01*
X0226580Y0077461D01*
X0227973Y0076068D01*
X0228303Y0075932D01*
X0228303Y0064281D01*
X0226868Y0062846D01*
X0226327Y0062846D01*
X0225089Y0062333D01*
X0224141Y0061385D01*
X0223770Y0060490D01*
X0222568Y0060490D01*
X0222568Y0056623D01*
X0222568Y0056623D01*
X0222568Y0060490D01*
X0221104Y0060490D01*
X0221104Y0060618D01*
X0220682Y0061636D01*
X0219698Y0062620D01*
X0218919Y0063399D01*
X0217902Y0063820D01*
X0210304Y0063820D01*
X0209287Y0063399D01*
X0207909Y0062021D01*
X0207130Y0061242D01*
X0206709Y0060225D01*
X0206709Y0057277D01*
X0201637Y0052206D01*
X0195849Y0052206D01*
X0194832Y0051785D01*
X0193348Y0050301D01*
X0193348Y0055500D01*
X0192927Y0056518D01*
X0192148Y0057297D01*
X0187817Y0061627D01*
X0186800Y0062049D01*
X0182671Y0062049D01*
X0181743Y0062977D01*
X0181743Y0063100D01*
X0181230Y0064338D01*
X0180283Y0065286D01*
X0179045Y0065798D01*
X0177705Y0065798D01*
X0176467Y0065286D01*
X0175519Y0064338D01*
X0175006Y0063100D01*
X0175006Y0061760D01*
X0175519Y0060522D01*
X0176467Y0059574D01*
X0177705Y0059061D01*
X0177828Y0059061D01*
X0177892Y0058998D01*
X0171722Y0058998D01*
X0170826Y0059894D01*
X0170130Y0060590D01*
X0169221Y0060966D01*
X0162725Y0060966D01*
X0161816Y0060590D01*
X0161121Y0059894D01*
X0160224Y0058998D01*
X0124837Y0058998D01*
X0123141Y0058018D01*
X0122161Y0056322D01*
X0122161Y0056242D01*
X0120288Y0056242D01*
X0118077Y0055326D01*
X0116384Y0053633D01*
X0115469Y0051422D01*
X0115469Y0049831D01*
X0115403Y0049162D01*
X0114890Y0047925D01*
X0113943Y0046978D01*
X0112706Y0046465D01*
X0112036Y0046399D01*
X0092673Y0046399D01*
X0092291Y0046782D01*
X0091053Y0047294D01*
X0089713Y0047294D01*
X0088475Y0046782D01*
X0087527Y0045834D01*
X0087014Y0044596D01*
X0087014Y0043256D01*
X0087527Y0042018D01*
X0088475Y0041070D01*
X0089713Y0040557D01*
X0091053Y0040557D01*
X0092291Y0041070D01*
X0092673Y0041453D01*
X0113703Y0041453D01*
X0116782Y0042728D01*
X0116782Y0042728D01*
X0119139Y0045085D01*
X0120415Y0048165D01*
X0120415Y0050225D01*
X0120436Y0050434D01*
X0120595Y0050820D01*
X0120891Y0051115D01*
X0121276Y0051275D01*
X0121485Y0051295D01*
X0124145Y0051295D01*
X0124213Y0051335D01*
X0124213Y0051013D01*
X0127587Y0051013D01*
X0127587Y0051013D01*
X0124213Y0051013D01*
X0124213Y0048807D01*
X0124335Y0048349D01*
X0124572Y0047939D01*
X0124753Y0047759D01*
X0124532Y0047377D01*
X0124409Y0046919D01*
X0124409Y0044713D01*
X0124409Y0042508D01*
X0124532Y0042050D01*
X0124769Y0041640D01*
X0125104Y0041305D01*
X0125515Y0041068D01*
X0125972Y0040945D01*
X0127784Y0040945D01*
X0127784Y0044713D01*
X0127784Y0044713D01*
X0124409Y0044713D01*
X0127784Y0044713D01*
X0127784Y0044713D01*
X0127784Y0040945D01*
X0129596Y0040945D01*
X0130054Y0041068D01*
X0130398Y0041266D01*
X0130901Y0040764D01*
X0135691Y0040764D01*
X0136335Y0041407D01*
X0136335Y0034314D01*
X0137544Y0031394D01*
X0137544Y0031394D01*
X0139331Y0029607D01*
X0139331Y0029437D01*
X0139970Y0027895D01*
X0130383Y0027895D01*
X0124844Y0033435D01*
X0124844Y0034510D01*
X0124342Y0035013D01*
X0124540Y0035357D01*
X0124663Y0035815D01*
X0124663Y0036839D01*
X0121879Y0036839D01*
X0121879Y0036839D01*
X0124663Y0036839D01*
X0124663Y0037864D01*
X0124540Y0038322D01*
X0124303Y0038732D01*
X0123968Y0039067D01*
X0123558Y0039304D01*
X0123100Y0039427D01*
X0121879Y0039427D01*
X0121879Y0036839D01*
X0119094Y0036839D01*
X0119094Y0035815D01*
X0119212Y0035376D01*
X0099996Y0035376D01*
X0099909Y0035404D01*
X0099507Y0035376D01*
X0099103Y0035376D01*
X0099075Y0035364D01*
X0097408Y0035338D01*
X0093439Y0035950D01*
X0089706Y0037430D01*
X0086395Y0039703D01*
X0083674Y0042656D01*
X0081678Y0046141D01*
X0082066Y0045463D02*
X0087373Y0045463D01*
X0087014Y0043864D02*
X0082982Y0043864D01*
X0084034Y0042266D02*
X0087424Y0042266D01*
X0085507Y0040667D02*
X0089448Y0040667D01*
X0091318Y0040667D02*
X0136335Y0040667D01*
X0136335Y0039069D02*
X0123966Y0039069D01*
X0124663Y0037470D02*
X0136335Y0037470D01*
X0136335Y0035872D02*
X0124663Y0035872D01*
X0124844Y0034273D02*
X0136352Y0034273D01*
X0137014Y0032675D02*
X0125604Y0032675D01*
X0127203Y0031076D02*
X0137862Y0031076D01*
X0139331Y0029478D02*
X0128801Y0029478D01*
X0125003Y0026281D02*
X0100067Y0026281D01*
X0092105Y0031037D02*
X0092105Y0031037D01*
X0092006Y0031076D02*
X0072308Y0031076D01*
X0079618Y0029478D02*
X0121806Y0029478D01*
X0123404Y0027879D02*
X0088573Y0027879D01*
X0093949Y0035872D02*
X0119094Y0035872D01*
X0119094Y0036839D02*
X0121879Y0036839D01*
X0121879Y0036839D01*
X0121879Y0036839D01*
X0121879Y0039427D01*
X0120658Y0039427D01*
X0120200Y0039304D01*
X0119789Y0039067D01*
X0119454Y0038732D01*
X0119217Y0038322D01*
X0119094Y0037864D01*
X0119094Y0036839D01*
X0119094Y0037470D02*
X0089647Y0037470D01*
X0087319Y0039069D02*
X0119792Y0039069D01*
X0121879Y0039069D02*
X0121879Y0039069D01*
X0121879Y0037470D02*
X0121879Y0037470D01*
X0124474Y0042266D02*
X0115665Y0042266D01*
X0117918Y0043864D02*
X0124409Y0043864D01*
X0124409Y0045463D02*
X0119296Y0045463D01*
X0119139Y0045085D02*
X0119139Y0045085D01*
X0119958Y0047061D02*
X0124448Y0047061D01*
X0124252Y0048660D02*
X0120415Y0048660D01*
X0120418Y0050258D02*
X0124213Y0050258D01*
X0116311Y0053455D02*
X0109715Y0053455D01*
X0110179Y0055054D02*
X0117805Y0055054D01*
X0118077Y0055326D02*
X0118077Y0055326D01*
X0119597Y0056652D02*
X0122352Y0056652D01*
X0123141Y0058018D02*
X0123141Y0058018D01*
X0123141Y0058018D01*
X0123543Y0058251D02*
X0121703Y0058251D01*
X0122317Y0059849D02*
X0161076Y0059849D01*
X0161121Y0059894D02*
X0161121Y0059894D01*
X0156869Y0063046D02*
X0175006Y0063046D01*
X0175136Y0061448D02*
X0155348Y0061448D01*
X0152469Y0061448D02*
X0152469Y0061448D01*
X0152469Y0063046D02*
X0152469Y0063046D01*
X0152469Y0064645D02*
X0152469Y0064645D01*
X0148069Y0064645D02*
X0147050Y0064645D01*
X0147050Y0066243D02*
X0148069Y0066243D01*
X0148069Y0063046D02*
X0147050Y0063046D01*
X0145604Y0061448D02*
X0149591Y0061448D01*
X0156869Y0064645D02*
X0175826Y0064645D01*
X0180924Y0064645D02*
X0228303Y0064645D01*
X0228303Y0066243D02*
X0156869Y0066243D01*
X0170870Y0059849D02*
X0176192Y0059849D01*
X0181743Y0063046D02*
X0208934Y0063046D01*
X0207336Y0061448D02*
X0187997Y0061448D01*
X0189595Y0059849D02*
X0206709Y0059849D01*
X0206709Y0058251D02*
X0191194Y0058251D01*
X0192792Y0056652D02*
X0206084Y0056652D01*
X0204485Y0055054D02*
X0193348Y0055054D01*
X0193348Y0053455D02*
X0202886Y0053455D01*
X0195006Y0051857D02*
X0193348Y0051857D01*
X0209614Y0047061D02*
X0211236Y0047061D01*
X0211212Y0048660D02*
X0212400Y0048660D01*
X0212811Y0050258D02*
X0217143Y0050258D01*
X0216397Y0048660D02*
X0218742Y0048660D01*
X0217561Y0047061D02*
X0274803Y0047061D01*
X0274797Y0045463D02*
X0217767Y0045463D01*
X0217265Y0043864D02*
X0274593Y0043864D01*
X0273832Y0042266D02*
X0217265Y0042266D01*
X0217265Y0040667D02*
X0272058Y0040667D01*
X0272414Y0040885D02*
X0272414Y0040885D01*
X0273433Y0041762D02*
X0273433Y0041762D01*
X0269200Y0039069D02*
X0217265Y0039069D01*
X0217265Y0037470D02*
X0265875Y0037470D01*
X0262028Y0035872D02*
X0217295Y0035872D01*
X0216895Y0034273D02*
X0257564Y0034273D01*
X0252364Y0032675D02*
X0215075Y0032675D01*
X0213157Y0031076D02*
X0246251Y0031076D01*
X0238942Y0029478D02*
X0211239Y0029478D01*
X0209329Y0027879D02*
X0229988Y0027879D01*
X0218490Y0026281D02*
X0182076Y0026281D01*
X0180768Y0024682D02*
X0202238Y0024682D01*
X0188177Y0038131D02*
X0170993Y0038131D01*
X0170084Y0037755D01*
X0166987Y0034658D01*
X0165265Y0035372D01*
X0163296Y0035372D01*
X0161477Y0034618D01*
X0160084Y0033226D01*
X0159331Y0031407D01*
X0159331Y0029437D01*
X0159970Y0027895D01*
X0158339Y0027895D01*
X0158359Y0027923D01*
X0158699Y0028592D01*
X0158931Y0029305D01*
X0159049Y0030047D01*
X0159049Y0030238D01*
X0154465Y0030238D01*
X0154465Y0030606D01*
X0159049Y0030606D01*
X0159049Y0030797D01*
X0158931Y0031539D01*
X0158699Y0032253D01*
X0158359Y0032921D01*
X0157918Y0033529D01*
X0157387Y0034059D01*
X0156780Y0034500D01*
X0156111Y0034841D01*
X0155397Y0035073D01*
X0154656Y0035191D01*
X0154465Y0035191D01*
X0154465Y0030606D01*
X0154096Y0030606D01*
X0154096Y0030238D01*
X0149512Y0030238D01*
X0149512Y0030047D01*
X0149629Y0029305D01*
X0149861Y0028592D01*
X0150202Y0027923D01*
X0150222Y0027895D01*
X0148591Y0027895D01*
X0149230Y0029437D01*
X0149230Y0031407D01*
X0148476Y0033226D01*
X0147084Y0034618D01*
X0145265Y0035372D01*
X0143296Y0035372D01*
X0141603Y0034671D01*
X0141339Y0035309D01*
X0141281Y0035894D01*
X0141281Y0041629D01*
X0142364Y0042712D01*
X0142364Y0046321D01*
X0141203Y0047482D01*
X0136852Y0047482D01*
X0136852Y0047502D01*
X0136393Y0047961D01*
X0136655Y0048223D01*
X0136655Y0049031D01*
X0141203Y0049031D01*
X0142364Y0050192D01*
X0142364Y0053802D01*
X0142114Y0054051D01*
X0146525Y0054051D01*
X0146276Y0053802D01*
X0146276Y0050192D01*
X0146569Y0049898D01*
X0146457Y0049478D01*
X0146457Y0048257D01*
X0149831Y0048257D01*
X0149831Y0048257D01*
X0146457Y0048257D01*
X0146457Y0047035D01*
X0146569Y0046615D01*
X0146276Y0046321D01*
X0146276Y0042712D01*
X0147436Y0041551D01*
X0148239Y0041551D01*
X0149540Y0040250D01*
X0151390Y0039484D01*
X0153053Y0039484D01*
X0153435Y0039102D01*
X0154673Y0038589D01*
X0156013Y0038589D01*
X0157251Y0039102D01*
X0158199Y0040049D01*
X0158415Y0040570D01*
X0158595Y0040674D01*
X0158595Y0040674D01*
X0158595Y0040674D01*
X0159785Y0042736D01*
X0159785Y0043449D01*
X0159945Y0043307D01*
X0160242Y0043010D01*
X0160311Y0042982D01*
X0163488Y0040157D01*
X0163785Y0039861D01*
X0163854Y0039832D01*
X0163910Y0039782D01*
X0164307Y0039645D01*
X0164694Y0039484D01*
X0164769Y0039484D01*
X0164840Y0039460D01*
X0165258Y0039484D01*
X0173205Y0039484D01*
X0173645Y0039466D01*
X0173695Y0039484D01*
X0173749Y0039484D01*
X0174156Y0039653D01*
X0174569Y0039804D01*
X0174608Y0039840D01*
X0174658Y0039861D01*
X0174969Y0040172D01*
X0178107Y0043059D01*
X0179139Y0042026D01*
X0180048Y0041650D01*
X0180409Y0041650D01*
X0180704Y0041354D01*
X0184314Y0041354D01*
X0185113Y0042154D01*
X0186317Y0040950D01*
X0187013Y0040254D01*
X0187922Y0039878D01*
X0189924Y0039878D01*
X0188177Y0038131D01*
X0189114Y0039069D02*
X0157171Y0039069D01*
X0158582Y0040667D02*
X0162915Y0040667D01*
X0161116Y0042266D02*
X0159514Y0042266D01*
X0154552Y0045276D02*
X0153435Y0044813D01*
X0153387Y0044765D01*
X0153387Y0045276D01*
X0153768Y0045276D01*
X0153768Y0048060D01*
X0153769Y0048060D01*
X0153769Y0045276D01*
X0154552Y0045276D01*
X0153768Y0045463D02*
X0153769Y0045463D01*
X0153768Y0047061D02*
X0153769Y0047061D01*
X0146457Y0047061D02*
X0141624Y0047061D01*
X0142364Y0045463D02*
X0146276Y0045463D01*
X0146276Y0043864D02*
X0142364Y0043864D01*
X0141918Y0042266D02*
X0146722Y0042266D01*
X0149123Y0040667D02*
X0141281Y0040667D01*
X0141281Y0039069D02*
X0153515Y0039069D01*
X0149540Y0040250D02*
X0149540Y0040250D01*
X0141281Y0037470D02*
X0169799Y0037470D01*
X0168201Y0035872D02*
X0141283Y0035872D01*
X0147429Y0034273D02*
X0151468Y0034273D01*
X0151174Y0034059D02*
X0150643Y0033529D01*
X0150202Y0032921D01*
X0149861Y0032253D01*
X0149629Y0031539D01*
X0149512Y0030797D01*
X0149512Y0030606D01*
X0154096Y0030606D01*
X0154096Y0035191D01*
X0153905Y0035191D01*
X0153164Y0035073D01*
X0152450Y0034841D01*
X0151781Y0034500D01*
X0151174Y0034059D01*
X0150076Y0032675D02*
X0148705Y0032675D01*
X0149230Y0031076D02*
X0149556Y0031076D01*
X0149602Y0029478D02*
X0149230Y0029478D01*
X0154096Y0031076D02*
X0154465Y0031076D01*
X0159005Y0031076D02*
X0159331Y0031076D01*
X0159331Y0029478D02*
X0158959Y0029478D01*
X0158484Y0032675D02*
X0159856Y0032675D01*
X0161132Y0034273D02*
X0157092Y0034273D01*
X0154465Y0034273D02*
X0154096Y0034273D01*
X0154096Y0032675D02*
X0154465Y0032675D01*
X0175507Y0040667D02*
X0186601Y0040667D01*
X0178900Y0042266D02*
X0177245Y0042266D01*
X0166367Y0050225D02*
X0166367Y0050225D01*
X0166367Y0052813D01*
X0167202Y0052813D01*
X0167249Y0052987D01*
X0167486Y0053397D01*
X0167821Y0053732D01*
X0168231Y0053969D01*
X0168689Y0054092D01*
X0170107Y0054092D01*
X0169297Y0054428D01*
X0168601Y0055123D01*
X0167705Y0056020D01*
X0164242Y0056020D01*
X0163346Y0055123D01*
X0163346Y0055123D01*
X0162650Y0054428D01*
X0161741Y0054051D01*
X0157691Y0054051D01*
X0158753Y0053438D01*
X0158753Y0053438D01*
X0159785Y0051651D01*
X0159785Y0051651D01*
X0159785Y0051527D01*
X0160972Y0052019D01*
X0162313Y0052019D01*
X0163551Y0051506D01*
X0163630Y0051427D01*
X0163705Y0051707D01*
X0163942Y0052118D01*
X0164277Y0052453D01*
X0164688Y0052690D01*
X0165146Y0052813D01*
X0166367Y0052813D01*
X0166367Y0050225D01*
X0166367Y0050258D02*
X0166367Y0050258D01*
X0166367Y0051857D02*
X0166367Y0051857D01*
X0167544Y0053455D02*
X0158723Y0053455D01*
X0159666Y0051857D02*
X0160581Y0051857D01*
X0162704Y0051857D02*
X0163792Y0051857D01*
X0163276Y0055054D02*
X0168671Y0055054D01*
X0146276Y0053455D02*
X0142364Y0053455D01*
X0142364Y0051857D02*
X0146276Y0051857D01*
X0146276Y0050258D02*
X0142364Y0050258D01*
X0146457Y0048660D02*
X0136655Y0048660D01*
X0127784Y0043864D02*
X0127784Y0043864D01*
X0127784Y0042266D02*
X0127784Y0042266D01*
X0115195Y0048660D02*
X0104769Y0048660D01*
X0107549Y0050258D02*
X0115469Y0050258D01*
X0115649Y0051857D02*
X0109053Y0051857D01*
X0108987Y0051697D02*
X0108987Y0051697D01*
X0108987Y0051697D01*
X0104964Y0055054D02*
X0082057Y0055054D01*
X0082128Y0053455D02*
X0103276Y0053455D01*
X0105232Y0056652D02*
X0093383Y0056652D01*
X0091319Y0056652D02*
X0069726Y0056652D01*
X0069726Y0058251D02*
X0089376Y0058251D01*
X0088983Y0059849D02*
X0082570Y0059849D01*
X0081603Y0059449D02*
X0083567Y0060262D01*
X0085070Y0061765D01*
X0085883Y0063729D01*
X0085883Y0065855D01*
X0085070Y0067819D01*
X0083567Y0069322D01*
X0081603Y0070135D01*
X0079477Y0070135D01*
X0077513Y0069322D01*
X0076010Y0067819D01*
X0075197Y0065855D01*
X0075197Y0063729D01*
X0076010Y0061765D01*
X0077513Y0060262D01*
X0079477Y0059449D01*
X0081603Y0059449D01*
X0078510Y0059849D02*
X0069726Y0059849D01*
X0068787Y0061448D02*
X0076328Y0061448D01*
X0075480Y0063046D02*
X0067188Y0063046D01*
X0075197Y0064645D02*
X0053891Y0064645D01*
X0054094Y0066243D02*
X0075358Y0066243D01*
X0076033Y0067842D02*
X0054094Y0067842D01*
X0048969Y0068804D02*
X0048969Y0073779D01*
X0045557Y0073779D01*
X0045099Y0073656D01*
X0044689Y0073420D01*
X0044354Y0073084D01*
X0044117Y0072674D01*
X0043994Y0072216D01*
X0043994Y0068804D01*
X0048969Y0068804D01*
X0048969Y0069440D02*
X0049119Y0069440D01*
X0049119Y0071039D02*
X0048969Y0071039D01*
X0048969Y0072637D02*
X0049119Y0072637D01*
X0053981Y0072637D02*
X0081992Y0072637D01*
X0081413Y0074236D02*
X0043757Y0074236D01*
X0043757Y0075834D02*
X0081413Y0075834D01*
X0081413Y0077433D02*
X0043757Y0077433D01*
X0043757Y0079031D02*
X0081833Y0079031D01*
X0083071Y0080630D02*
X0043757Y0080630D01*
X0043757Y0082228D02*
X0083071Y0082228D01*
X0083071Y0083827D02*
X0062500Y0083827D01*
X0060391Y0083827D02*
X0043757Y0083827D01*
X0043882Y0085425D02*
X0058467Y0085425D01*
X0058077Y0087024D02*
X0044522Y0087024D01*
X0046021Y0088623D02*
X0058457Y0088623D01*
X0060332Y0090221D02*
X0048783Y0090221D01*
X0052019Y0091820D02*
X0061498Y0091820D01*
X0066356Y0090221D02*
X0083359Y0090221D01*
X0083289Y0088623D02*
X0065336Y0088623D01*
X0064814Y0087024D02*
X0083826Y0087024D01*
X0083773Y0085425D02*
X0064425Y0085425D01*
X0067698Y0091820D02*
X0084121Y0091820D01*
X0087627Y0091820D02*
X0087627Y0091820D01*
X0087627Y0090221D02*
X0087627Y0090221D01*
X0091132Y0091820D02*
X0091551Y0091820D01*
X0093028Y0093418D02*
X0088807Y0093418D01*
X0087627Y0093418D02*
X0087627Y0093418D01*
X0086447Y0093418D02*
X0069439Y0093418D01*
X0072279Y0095017D02*
X0093028Y0095017D01*
X0093098Y0096615D02*
X0077758Y0096615D01*
X0073040Y0095315D02*
X0073040Y0095315D01*
X0065381Y0096615D02*
X0065155Y0096615D01*
X0063774Y0095017D02*
X0060102Y0095017D01*
X0062488Y0093418D02*
X0055763Y0093418D01*
X0063000Y0094247D02*
X0063000Y0094247D01*
X0086093Y0098214D02*
X0093713Y0098214D01*
X0093664Y0098155D02*
X0093664Y0098155D01*
X0090752Y0098961D02*
X0090752Y0098961D01*
X0097974Y0095017D02*
X0122924Y0095017D01*
X0122654Y0093418D02*
X0097974Y0093418D01*
X0099450Y0091820D02*
X0101787Y0091820D01*
X0101787Y0090221D02*
X0099450Y0090221D01*
X0099450Y0088623D02*
X0101787Y0088623D01*
X0099269Y0087024D02*
X0107677Y0087024D01*
X0110461Y0086446D02*
X0110461Y0086446D01*
X0110461Y0085425D02*
X0110461Y0085425D01*
X0109687Y0083827D02*
X0118913Y0083827D01*
X0119041Y0085425D02*
X0113246Y0085425D01*
X0113246Y0087024D02*
X0138669Y0087024D01*
X0139386Y0085425D02*
X0133055Y0085425D01*
X0133324Y0083827D02*
X0138565Y0083827D01*
X0137273Y0082228D02*
X0133324Y0082228D01*
X0133324Y0080630D02*
X0137014Y0080630D01*
X0137525Y0079031D02*
X0133503Y0079031D01*
X0135570Y0077433D02*
X0138029Y0077433D01*
X0138084Y0075834D02*
X0137169Y0075834D01*
X0126575Y0080630D02*
X0126025Y0080630D01*
X0126025Y0082228D02*
X0126575Y0082228D01*
X0126575Y0083827D02*
X0126025Y0083827D01*
X0125897Y0085425D02*
X0126844Y0085425D01*
X0129950Y0085425D02*
X0129950Y0085425D01*
X0129950Y0083827D02*
X0129950Y0083827D01*
X0129219Y0088623D02*
X0137070Y0088623D01*
X0142467Y0090221D02*
X0176205Y0090221D01*
X0175597Y0088623D02*
X0155483Y0088623D01*
X0157082Y0087024D02*
X0175814Y0087024D01*
X0176022Y0085425D02*
X0158680Y0085425D01*
X0160279Y0083827D02*
X0174424Y0083827D01*
X0172825Y0082228D02*
X0160978Y0082228D01*
X0161857Y0080630D02*
X0171227Y0080630D01*
X0169628Y0079031D02*
X0161759Y0079031D01*
X0173427Y0075834D02*
X0176667Y0075834D01*
X0178266Y0077433D02*
X0175025Y0077433D01*
X0176624Y0079031D02*
X0179864Y0079031D01*
X0181463Y0080630D02*
X0178222Y0080630D01*
X0179821Y0082228D02*
X0183062Y0082228D01*
X0184660Y0083827D02*
X0181210Y0083827D01*
X0181439Y0085425D02*
X0186259Y0085425D01*
X0187857Y0087024D02*
X0182117Y0087024D01*
X0182334Y0088623D02*
X0189456Y0088623D01*
X0191054Y0090221D02*
X0181725Y0090221D01*
X0194350Y0095017D02*
X0129495Y0095017D01*
X0122654Y0091820D02*
X0113427Y0091820D01*
X0113427Y0090221D02*
X0122654Y0090221D01*
X0123199Y0088623D02*
X0113275Y0088623D01*
X0102604Y0085425D02*
X0099269Y0085425D01*
X0099269Y0086446D02*
X0095501Y0086446D01*
X0099269Y0086446D01*
X0099450Y0083827D02*
X0101787Y0083827D01*
X0101787Y0082228D02*
X0099450Y0082228D01*
X0099278Y0080630D02*
X0101960Y0080630D01*
X0099241Y0079191D02*
X0098020Y0079191D01*
X0097562Y0079068D01*
X0097151Y0078831D01*
X0096816Y0078496D01*
X0096579Y0078085D01*
X0096457Y0077628D01*
X0096457Y0076603D01*
X0096457Y0075579D01*
X0096579Y0075121D01*
X0096816Y0074711D01*
X0097151Y0074375D01*
X0097562Y0074138D01*
X0098020Y0074016D01*
X0099241Y0074016D01*
X0099241Y0076603D01*
X0099241Y0076603D01*
X0096457Y0076603D01*
X0099241Y0076603D01*
X0099241Y0076603D01*
X0099241Y0076603D01*
X0099241Y0079191D01*
X0099241Y0079031D02*
X0099241Y0079031D01*
X0099241Y0077433D02*
X0099241Y0077433D01*
X0099241Y0075834D02*
X0099241Y0075834D01*
X0099241Y0074236D02*
X0099241Y0074236D01*
X0097393Y0074236D02*
X0093717Y0074236D01*
X0093757Y0072863D02*
X0091170Y0072863D01*
X0091170Y0072863D01*
X0093757Y0072863D01*
X0093757Y0072637D02*
X0100615Y0072637D01*
X0099098Y0071039D02*
X0093551Y0071039D01*
X0096712Y0069440D02*
X0098606Y0069440D01*
X0097204Y0068949D02*
X0097204Y0068949D01*
X0098311Y0067842D02*
X0098753Y0067842D01*
X0102774Y0064645D02*
X0105946Y0064645D01*
X0105232Y0063046D02*
X0103847Y0063046D01*
X0103987Y0061448D02*
X0105232Y0061448D01*
X0105232Y0059849D02*
X0103196Y0059849D01*
X0105232Y0058251D02*
X0100331Y0058251D01*
X0096111Y0063046D02*
X0093487Y0063046D01*
X0094513Y0064645D02*
X0085883Y0064645D01*
X0085723Y0066243D02*
X0088387Y0066243D01*
X0086788Y0067842D02*
X0085047Y0067842D01*
X0085190Y0069440D02*
X0083281Y0069440D01*
X0083591Y0071039D02*
X0054094Y0071039D01*
X0054094Y0069440D02*
X0077799Y0069440D01*
X0085601Y0063046D02*
X0091215Y0063046D01*
X0089358Y0061448D02*
X0084752Y0061448D01*
X0073512Y0055054D02*
X0071033Y0055054D01*
X0071104Y0053455D02*
X0073441Y0053455D01*
X0073441Y0051857D02*
X0071104Y0051857D01*
X0071104Y0050258D02*
X0073441Y0050258D01*
X0073441Y0048660D02*
X0071104Y0048660D01*
X0076108Y0047061D02*
X0053897Y0047061D01*
X0052889Y0048660D02*
X0062417Y0048660D01*
X0062417Y0050258D02*
X0053578Y0050258D01*
X0059882Y0051857D02*
X0062417Y0051857D01*
X0062417Y0053455D02*
X0061480Y0053455D01*
X0045317Y0056652D02*
X0043757Y0056652D01*
X0043757Y0058251D02*
X0044461Y0058251D01*
X0043813Y0059849D02*
X0043757Y0059849D01*
X0043757Y0061448D02*
X0043813Y0061448D01*
X0043757Y0063046D02*
X0044290Y0063046D01*
X0044197Y0064645D02*
X0043757Y0064645D01*
X0043757Y0066243D02*
X0043994Y0066243D01*
X0043994Y0067842D02*
X0043757Y0067842D01*
X0043757Y0069440D02*
X0043994Y0069440D01*
X0043994Y0071039D02*
X0043757Y0071039D01*
X0043757Y0072637D02*
X0044107Y0072637D01*
X0044241Y0055054D02*
X0043757Y0055054D01*
X0043757Y0053455D02*
X0043813Y0053455D01*
X0043757Y0051857D02*
X0043848Y0051857D01*
X0043757Y0050258D02*
X0044510Y0050258D01*
X0045199Y0048660D02*
X0043757Y0048660D01*
X0043757Y0047061D02*
X0044191Y0047061D01*
X0043813Y0045463D02*
X0043757Y0045463D01*
X0081397Y0047061D02*
X0089150Y0047061D01*
X0091616Y0047061D02*
X0114027Y0047061D01*
X0116384Y0053633D02*
X0116384Y0053633D01*
X0112349Y0056652D02*
X0110179Y0056652D01*
X0110179Y0058251D02*
X0110243Y0058251D01*
X0121554Y0063046D02*
X0137888Y0063046D01*
X0137888Y0064645D02*
X0123761Y0064645D01*
X0122292Y0061448D02*
X0139335Y0061448D01*
X0137888Y0066243D02*
X0132283Y0066243D01*
X0133193Y0067842D02*
X0133442Y0067842D01*
X0110573Y0079031D02*
X0108381Y0079031D01*
X0109514Y0080630D02*
X0112172Y0080630D01*
X0113770Y0082228D02*
X0109687Y0082228D01*
X0097499Y0079031D02*
X0095233Y0079031D01*
X0096457Y0077433D02*
X0093939Y0077433D01*
X0093939Y0075834D02*
X0096457Y0075834D01*
X0104990Y0074236D02*
X0106181Y0074236D01*
X0091732Y0085173D02*
X0091022Y0085883D01*
X0090496Y0085883D01*
X0090964Y0086352D01*
X0091368Y0086909D01*
X0091681Y0087522D01*
X0091732Y0087680D01*
X0091732Y0086446D01*
X0095501Y0086446D01*
X0095501Y0086446D01*
X0095501Y0086446D01*
X0091732Y0086446D01*
X0091732Y0085173D01*
X0091732Y0085425D02*
X0091480Y0085425D01*
X0091427Y0087024D02*
X0091732Y0087024D01*
X0099886Y0096615D02*
X0193379Y0096615D01*
X0191581Y0098214D02*
X0104639Y0098214D01*
X0106480Y0098564D02*
X0106480Y0098564D01*
X0118241Y0099812D02*
X0189782Y0099812D01*
X0195429Y0101411D02*
X0207883Y0101411D01*
X0208530Y0098214D02*
X0200308Y0098214D01*
X0200838Y0096615D02*
X0207677Y0096615D01*
X0207677Y0095017D02*
X0200589Y0095017D01*
X0199342Y0093418D02*
X0208826Y0093418D01*
X0210461Y0093418D02*
X0210461Y0093418D01*
X0210461Y0095017D02*
X0210461Y0095017D01*
X0210461Y0096615D02*
X0210461Y0096615D01*
X0210461Y0098214D02*
X0210461Y0098214D01*
X0216259Y0098214D02*
X0228944Y0098214D01*
X0229660Y0094916D02*
X0228946Y0094684D01*
X0228277Y0094343D01*
X0227670Y0093902D01*
X0227139Y0093371D01*
X0226698Y0092764D01*
X0226357Y0092095D01*
X0226125Y0091381D01*
X0226008Y0090640D01*
X0226008Y0090449D01*
X0230592Y0090449D01*
X0230592Y0095033D01*
X0230401Y0095033D01*
X0229660Y0094916D01*
X0230297Y0095017D02*
X0217485Y0095017D01*
X0217462Y0093418D02*
X0227186Y0093418D01*
X0230592Y0093418D02*
X0230961Y0093418D01*
X0230961Y0095017D02*
X0230592Y0095017D01*
X0230961Y0095033D02*
X0230961Y0090449D01*
X0235545Y0090449D01*
X0235545Y0090640D01*
X0235427Y0091381D01*
X0235196Y0092095D01*
X0234855Y0092764D01*
X0234414Y0093371D01*
X0233883Y0093902D01*
X0233276Y0094343D01*
X0232607Y0094684D01*
X0231893Y0094916D01*
X0231152Y0095033D01*
X0230961Y0095033D01*
X0231256Y0095017D02*
X0239315Y0095017D01*
X0239792Y0095214D02*
X0237973Y0094461D01*
X0236580Y0093068D01*
X0235827Y0091249D01*
X0235827Y0089280D01*
X0236580Y0087461D01*
X0237973Y0086068D01*
X0239792Y0085315D01*
X0241761Y0085315D01*
X0243580Y0086068D01*
X0244972Y0087461D01*
X0245726Y0089280D01*
X0245726Y0091249D01*
X0244972Y0093068D01*
X0243580Y0094461D01*
X0241761Y0095214D01*
X0239792Y0095214D01*
X0242238Y0095017D02*
X0243610Y0095017D01*
X0244623Y0093418D02*
X0246930Y0093418D01*
X0246063Y0091820D02*
X0245490Y0091820D01*
X0245726Y0090221D02*
X0245827Y0090221D01*
X0246099Y0088623D02*
X0245454Y0088623D01*
X0244536Y0087024D02*
X0247017Y0087024D01*
X0247973Y0084461D02*
X0249792Y0085214D01*
X0251761Y0085214D01*
X0253580Y0084461D01*
X0254972Y0083068D01*
X0255726Y0081249D01*
X0255726Y0079280D01*
X0254972Y0077461D01*
X0253580Y0076068D01*
X0251761Y0075315D01*
X0249792Y0075315D01*
X0247973Y0076068D01*
X0246580Y0077461D01*
X0245827Y0079280D01*
X0245827Y0081249D01*
X0246580Y0083068D01*
X0247973Y0084461D01*
X0247339Y0083827D02*
X0244214Y0083827D01*
X0243580Y0084461D02*
X0241761Y0085214D01*
X0239792Y0085214D01*
X0237973Y0084461D01*
X0236580Y0083068D01*
X0235827Y0081249D01*
X0235827Y0079280D01*
X0236580Y0077461D01*
X0237973Y0076068D01*
X0239792Y0075315D01*
X0241761Y0075315D01*
X0243580Y0076068D01*
X0244972Y0077461D01*
X0245726Y0079280D01*
X0245726Y0081249D01*
X0244972Y0083068D01*
X0243580Y0084461D01*
X0242028Y0085425D02*
X0249525Y0085425D01*
X0252028Y0085425D02*
X0255921Y0085425D01*
X0255921Y0083827D02*
X0254214Y0083827D01*
X0255320Y0082228D02*
X0255921Y0082228D01*
X0255921Y0080630D02*
X0255726Y0080630D01*
X0255623Y0079031D02*
X0255921Y0079031D01*
X0255921Y0077433D02*
X0254945Y0077433D01*
X0255921Y0075834D02*
X0253015Y0075834D01*
X0256005Y0074236D02*
X0233250Y0074236D01*
X0233250Y0075834D02*
X0238538Y0075834D01*
X0236608Y0077433D02*
X0234945Y0077433D01*
X0235623Y0079031D02*
X0235930Y0079031D01*
X0235827Y0080630D02*
X0235726Y0080630D01*
X0235320Y0082228D02*
X0236232Y0082228D01*
X0237339Y0083827D02*
X0234214Y0083827D01*
X0233276Y0086186D02*
X0233883Y0086627D01*
X0234414Y0087158D01*
X0234855Y0087765D01*
X0235196Y0088434D01*
X0235427Y0089148D01*
X0235545Y0089889D01*
X0235545Y0090080D01*
X0230961Y0090080D01*
X0230961Y0090449D01*
X0230592Y0090449D01*
X0230592Y0090080D01*
X0230961Y0090080D01*
X0230961Y0085496D01*
X0231152Y0085496D01*
X0231893Y0085613D01*
X0232607Y0085845D01*
X0233276Y0086186D01*
X0234279Y0087024D02*
X0237017Y0087024D01*
X0236099Y0088623D02*
X0235257Y0088623D01*
X0235827Y0090221D02*
X0230961Y0090221D01*
X0230592Y0090221D02*
X0218357Y0090221D01*
X0217987Y0088623D02*
X0226296Y0088623D01*
X0226357Y0088434D02*
X0226698Y0087765D01*
X0227139Y0087158D01*
X0227670Y0086627D01*
X0228277Y0086186D01*
X0228946Y0085845D01*
X0229660Y0085613D01*
X0230401Y0085496D01*
X0230592Y0085496D01*
X0230592Y0090080D01*
X0226008Y0090080D01*
X0226008Y0089889D01*
X0226125Y0089148D01*
X0226357Y0088434D01*
X0227273Y0087024D02*
X0216158Y0087024D01*
X0215520Y0085425D02*
X0239525Y0085425D01*
X0245320Y0082228D02*
X0246232Y0082228D01*
X0245827Y0080630D02*
X0245726Y0080630D01*
X0245623Y0079031D02*
X0245930Y0079031D01*
X0246608Y0077433D02*
X0244945Y0077433D01*
X0243015Y0075834D02*
X0248538Y0075834D01*
X0257084Y0072637D02*
X0233250Y0072637D01*
X0233250Y0071039D02*
X0258682Y0071039D01*
X0260281Y0069440D02*
X0240761Y0069440D01*
X0242527Y0067842D02*
X0261879Y0067842D01*
X0263478Y0066243D02*
X0243203Y0066243D01*
X0243364Y0064645D02*
X0264548Y0064645D01*
X0264467Y0063046D02*
X0243081Y0063046D01*
X0242233Y0061448D02*
X0264467Y0061448D01*
X0264467Y0059849D02*
X0240050Y0059849D01*
X0235991Y0059849D02*
X0230867Y0059849D01*
X0230135Y0058251D02*
X0264467Y0058251D01*
X0264738Y0056652D02*
X0228936Y0056652D01*
X0229036Y0055054D02*
X0225647Y0055054D01*
X0225290Y0053455D02*
X0227810Y0053455D01*
X0222568Y0053455D02*
X0222568Y0053455D01*
X0222568Y0052756D02*
X0222568Y0056623D01*
X0222568Y0056623D01*
X0222568Y0052756D01*
X0222568Y0055054D02*
X0222568Y0055054D01*
X0222568Y0056652D02*
X0222568Y0056652D01*
X0222568Y0058251D02*
X0222568Y0058251D01*
X0222568Y0059849D02*
X0222568Y0059849D01*
X0224204Y0061448D02*
X0220760Y0061448D01*
X0219272Y0063046D02*
X0227068Y0063046D01*
X0232465Y0061448D02*
X0233808Y0061448D01*
X0233514Y0067842D02*
X0233250Y0067842D01*
X0233250Y0069440D02*
X0235280Y0069440D01*
X0228303Y0069440D02*
X0225195Y0069440D01*
X0224668Y0068913D02*
X0225828Y0070074D01*
X0225828Y0075849D01*
X0224668Y0077009D01*
X0220468Y0077009D01*
X0219307Y0075849D01*
X0219307Y0070074D01*
X0220468Y0068913D01*
X0224668Y0068913D01*
X0228303Y0067842D02*
X0179607Y0067842D01*
X0181206Y0069440D02*
X0211476Y0069440D01*
X0212003Y0068913D02*
X0210843Y0070074D01*
X0210843Y0075849D01*
X0212003Y0077009D01*
X0216203Y0077009D01*
X0217364Y0075849D01*
X0217364Y0070074D01*
X0216203Y0068913D01*
X0212003Y0068913D01*
X0210843Y0071039D02*
X0182804Y0071039D01*
X0184403Y0072637D02*
X0210843Y0072637D01*
X0210843Y0074236D02*
X0186001Y0074236D01*
X0187600Y0075834D02*
X0210843Y0075834D01*
X0217364Y0075834D02*
X0219307Y0075834D01*
X0219307Y0074236D02*
X0217364Y0074236D01*
X0217364Y0072637D02*
X0219307Y0072637D01*
X0219307Y0071039D02*
X0217364Y0071039D01*
X0216730Y0069440D02*
X0219941Y0069440D01*
X0225828Y0071039D02*
X0228303Y0071039D01*
X0228303Y0072637D02*
X0225828Y0072637D01*
X0225828Y0074236D02*
X0228303Y0074236D01*
X0228303Y0075834D02*
X0225828Y0075834D01*
X0226608Y0077433D02*
X0189198Y0077433D01*
X0190797Y0079031D02*
X0225930Y0079031D01*
X0225827Y0080630D02*
X0192395Y0080630D01*
X0193994Y0082228D02*
X0209552Y0082228D01*
X0215308Y0082228D02*
X0226232Y0082228D01*
X0227339Y0083827D02*
X0215798Y0083827D01*
X0211990Y0088623D02*
X0210786Y0088623D01*
X0211074Y0090221D02*
X0211620Y0090221D01*
X0212020Y0091820D02*
X0210593Y0091820D01*
X0204818Y0091820D02*
X0140869Y0091820D01*
X0139270Y0093418D02*
X0195596Y0093418D01*
X0197228Y0099812D02*
X0219951Y0099812D01*
X0216970Y0096615D02*
X0236995Y0096615D01*
X0236930Y0093418D02*
X0234367Y0093418D01*
X0235285Y0091820D02*
X0236063Y0091820D01*
X0230961Y0091820D02*
X0230592Y0091820D01*
X0226268Y0091820D02*
X0217958Y0091820D01*
X0230592Y0088623D02*
X0230961Y0088623D01*
X0230961Y0087024D02*
X0230592Y0087024D01*
X0254536Y0087024D02*
X0255099Y0087024D01*
X0273067Y0080630D02*
X0274803Y0080630D01*
X0274803Y0082228D02*
X0274247Y0082228D01*
X0274748Y0083827D02*
X0274803Y0083827D01*
X0274803Y0079031D02*
X0274173Y0079031D01*
X0274748Y0077433D02*
X0274803Y0077433D01*
X0274748Y0075834D02*
X0274803Y0075834D01*
X0274803Y0074236D02*
X0274198Y0074236D01*
X0274803Y0072637D02*
X0273006Y0072637D01*
X0274222Y0071039D02*
X0274803Y0071039D01*
X0274748Y0069440D02*
X0274803Y0069440D01*
X0274748Y0067842D02*
X0274803Y0067842D01*
X0274803Y0066243D02*
X0274149Y0066243D01*
X0274485Y0064645D02*
X0274803Y0064645D01*
X0274803Y0063046D02*
X0274567Y0063046D01*
X0274567Y0061448D02*
X0274803Y0061448D01*
X0274567Y0060780D02*
X0269592Y0060780D01*
X0269592Y0055805D01*
X0273004Y0055805D01*
X0273461Y0055928D01*
X0273872Y0056165D01*
X0274207Y0056500D01*
X0274444Y0056910D01*
X0274567Y0057368D01*
X0274567Y0060780D01*
X0274567Y0059849D02*
X0274803Y0059849D01*
X0274803Y0058251D02*
X0274567Y0058251D01*
X0274803Y0056652D02*
X0274295Y0056652D01*
X0274803Y0055054D02*
X0232831Y0055054D01*
X0234057Y0053455D02*
X0274803Y0053455D01*
X0274803Y0051857D02*
X0234302Y0051857D01*
X0233762Y0050258D02*
X0274803Y0050258D01*
X0274803Y0048660D02*
X0231315Y0048660D01*
X0215805Y0051857D02*
X0214410Y0051857D01*
X0269442Y0056652D02*
X0269592Y0056652D01*
X0269592Y0058251D02*
X0269442Y0058251D01*
X0269442Y0059849D02*
X0269592Y0059849D01*
X0126601Y0024682D02*
X0116326Y0024682D01*
D30*
X0121879Y0032902D02*
X0129359Y0025422D01*
X0178178Y0025422D01*
X0181721Y0029753D01*
X0207706Y0029753D01*
X0214792Y0035658D01*
X0214792Y0045304D01*
X0214398Y0045894D01*
X0209674Y0043139D02*
X0208887Y0042351D01*
X0204162Y0042351D01*
X0199831Y0038020D01*
X0191564Y0038020D01*
X0189202Y0035658D01*
X0171485Y0035658D01*
X0166249Y0030422D01*
X0164280Y0030422D01*
X0144280Y0030422D02*
X0144134Y0030424D01*
X0143989Y0030430D01*
X0143843Y0030439D01*
X0143698Y0030453D01*
X0143554Y0030470D01*
X0143410Y0030492D01*
X0143266Y0030517D01*
X0143123Y0030546D01*
X0142981Y0030578D01*
X0142840Y0030615D01*
X0142700Y0030655D01*
X0142561Y0030699D01*
X0142424Y0030746D01*
X0142287Y0030798D01*
X0142152Y0030853D01*
X0142019Y0030911D01*
X0141887Y0030973D01*
X0141757Y0031038D01*
X0141629Y0031107D01*
X0141502Y0031180D01*
X0141378Y0031255D01*
X0141255Y0031334D01*
X0141135Y0031416D01*
X0141017Y0031502D01*
X0140901Y0031590D01*
X0140788Y0031681D01*
X0140677Y0031776D01*
X0140568Y0031873D01*
X0140463Y0031974D01*
X0140360Y0032077D01*
X0140259Y0032182D01*
X0140162Y0032291D01*
X0140067Y0032402D01*
X0139976Y0032515D01*
X0139888Y0032631D01*
X0139802Y0032749D01*
X0139720Y0032869D01*
X0139641Y0032992D01*
X0139566Y0033116D01*
X0139493Y0033243D01*
X0139424Y0033371D01*
X0139359Y0033501D01*
X0139297Y0033633D01*
X0139239Y0033766D01*
X0139184Y0033901D01*
X0139132Y0034038D01*
X0139085Y0034175D01*
X0139041Y0034314D01*
X0139001Y0034454D01*
X0138964Y0034595D01*
X0138932Y0034737D01*
X0138903Y0034880D01*
X0138878Y0035024D01*
X0138856Y0035168D01*
X0138839Y0035312D01*
X0138825Y0035457D01*
X0138816Y0035603D01*
X0138810Y0035748D01*
X0138808Y0035894D01*
X0138808Y0044517D01*
X0133493Y0044517D01*
X0133296Y0044713D01*
X0127784Y0044713D02*
X0128572Y0052194D01*
X0127587Y0051013D01*
X0133099Y0051013D02*
X0134083Y0051997D01*
X0138808Y0051997D01*
X0148650Y0048650D02*
X0149831Y0048257D01*
X0149833Y0048231D01*
X0149838Y0048206D01*
X0149846Y0048182D01*
X0149857Y0048159D01*
X0149872Y0048137D01*
X0149889Y0048118D01*
X0149908Y0048101D01*
X0149930Y0048086D01*
X0149953Y0048075D01*
X0149977Y0048067D01*
X0150002Y0048062D01*
X0150028Y0048060D01*
X0153769Y0048060D01*
X0157312Y0050619D02*
X0157310Y0050691D01*
X0157304Y0050763D01*
X0157295Y0050835D01*
X0157282Y0050906D01*
X0157265Y0050976D01*
X0157245Y0051045D01*
X0157220Y0051113D01*
X0157193Y0051179D01*
X0157162Y0051245D01*
X0157127Y0051308D01*
X0157090Y0051370D01*
X0157049Y0051429D01*
X0157005Y0051486D01*
X0156958Y0051541D01*
X0156908Y0051593D01*
X0156856Y0051643D01*
X0156801Y0051690D01*
X0156744Y0051734D01*
X0156685Y0051775D01*
X0156623Y0051812D01*
X0156560Y0051847D01*
X0156494Y0051878D01*
X0156428Y0051905D01*
X0156360Y0051930D01*
X0156291Y0051950D01*
X0156221Y0051967D01*
X0156150Y0051980D01*
X0156078Y0051989D01*
X0156006Y0051995D01*
X0155934Y0051997D01*
X0149831Y0051997D01*
X0149833Y0051958D01*
X0149839Y0051920D01*
X0149848Y0051883D01*
X0149861Y0051846D01*
X0149878Y0051811D01*
X0149897Y0051778D01*
X0149920Y0051747D01*
X0149946Y0051718D01*
X0149975Y0051692D01*
X0150006Y0051669D01*
X0150039Y0051650D01*
X0150074Y0051633D01*
X0150111Y0051620D01*
X0150148Y0051611D01*
X0150186Y0051605D01*
X0150225Y0051603D01*
X0153769Y0051603D01*
X0157312Y0050619D02*
X0157312Y0043926D01*
X0157310Y0043840D01*
X0157305Y0043754D01*
X0157295Y0043669D01*
X0157282Y0043584D01*
X0157265Y0043500D01*
X0157245Y0043416D01*
X0157221Y0043334D01*
X0157193Y0043253D01*
X0157162Y0043172D01*
X0157128Y0043094D01*
X0157090Y0043017D01*
X0157048Y0042942D01*
X0157004Y0042868D01*
X0156956Y0042797D01*
X0156905Y0042727D01*
X0156851Y0042660D01*
X0156795Y0042596D01*
X0156735Y0042534D01*
X0156673Y0042474D01*
X0156609Y0042418D01*
X0156542Y0042364D01*
X0156472Y0042313D01*
X0156401Y0042265D01*
X0156328Y0042221D01*
X0156252Y0042179D01*
X0156175Y0042141D01*
X0156097Y0042107D01*
X0156016Y0042076D01*
X0155935Y0042048D01*
X0155853Y0042024D01*
X0155769Y0042004D01*
X0155685Y0041987D01*
X0155600Y0041974D01*
X0155515Y0041964D01*
X0155429Y0041959D01*
X0155343Y0041957D01*
X0152391Y0041957D01*
X0152391Y0041958D02*
X0152291Y0041960D01*
X0152190Y0041966D01*
X0152090Y0041976D01*
X0151991Y0041990D01*
X0151892Y0042007D01*
X0151794Y0042029D01*
X0151696Y0042054D01*
X0151600Y0042083D01*
X0151505Y0042116D01*
X0151412Y0042153D01*
X0151320Y0042193D01*
X0151229Y0042237D01*
X0151141Y0042284D01*
X0151054Y0042335D01*
X0150969Y0042389D01*
X0150887Y0042447D01*
X0150807Y0042507D01*
X0150729Y0042571D01*
X0150654Y0042638D01*
X0150582Y0042708D01*
X0150512Y0042780D01*
X0150445Y0042855D01*
X0150381Y0042933D01*
X0150321Y0043013D01*
X0150263Y0043095D01*
X0150209Y0043180D01*
X0150158Y0043267D01*
X0150111Y0043355D01*
X0150067Y0043446D01*
X0150027Y0043538D01*
X0149990Y0043631D01*
X0149957Y0043726D01*
X0149928Y0043822D01*
X0149903Y0043920D01*
X0149881Y0044018D01*
X0149864Y0044117D01*
X0149850Y0044216D01*
X0149840Y0044316D01*
X0149834Y0044417D01*
X0149832Y0044517D01*
X0161643Y0045107D02*
X0161643Y0048650D01*
X0166367Y0050225D02*
X0166761Y0051406D01*
X0166957Y0051603D01*
X0170304Y0051603D01*
X0166761Y0051406D02*
X0165973Y0054162D01*
X0168729Y0058493D02*
X0170698Y0056524D01*
X0185265Y0056524D01*
X0187233Y0054556D01*
X0187233Y0050225D01*
X0185068Y0048060D01*
X0186446Y0046682D01*
X0186446Y0044320D01*
X0188414Y0042351D01*
X0194320Y0042351D01*
X0197863Y0045894D01*
X0204950Y0045894D01*
X0214103Y0055048D01*
X0214103Y0056623D01*
X0226997Y0059477D02*
X0230776Y0063257D01*
X0230776Y0080265D01*
X0212430Y0084083D02*
X0210068Y0085265D01*
X0203375Y0085265D01*
X0199438Y0085265D02*
X0193532Y0085265D01*
X0178178Y0069910D01*
X0134871Y0069910D01*
X0130934Y0073847D01*
X0117548Y0073847D01*
X0115973Y0072272D01*
X0115973Y0068040D01*
X0113414Y0068040D02*
X0113414Y0074044D01*
X0115973Y0076603D01*
X0132902Y0076603D01*
X0136839Y0072666D01*
X0176997Y0072666D01*
X0192745Y0088414D01*
X0199044Y0088414D01*
X0199438Y0088808D01*
X0203375Y0088808D02*
X0206524Y0088808D01*
X0207706Y0089989D01*
X0214989Y0090186D02*
X0214989Y0094713D01*
X0214005Y0095894D01*
X0197469Y0096288D02*
X0190383Y0102587D01*
X0122076Y0102587D01*
X0125422Y0104950D02*
X0193139Y0104950D01*
X0178965Y0088217D02*
X0178965Y0084871D01*
X0169320Y0075225D01*
X0140580Y0075225D01*
X0140383Y0080934D01*
X0142351Y0082902D01*
X0142351Y0086839D02*
X0153769Y0086839D01*
X0158493Y0082115D01*
X0158493Y0079950D01*
X0142351Y0086839D02*
X0137627Y0091564D01*
X0126209Y0091564D01*
X0126209Y0091957D01*
X0120698Y0087233D02*
X0119517Y0088414D01*
X0120698Y0087233D02*
X0126209Y0087233D01*
X0129950Y0083493D01*
X0129950Y0082509D01*
X0122469Y0082509D02*
X0120501Y0080934D01*
X0115973Y0080934D01*
X0110855Y0075816D01*
X0110855Y0073060D01*
X0110855Y0068040D01*
X0110855Y0065580D01*
X0110855Y0065186D01*
X0110856Y0065580D02*
X0110854Y0065494D01*
X0110849Y0065408D01*
X0110839Y0065323D01*
X0110826Y0065238D01*
X0110809Y0065154D01*
X0110789Y0065070D01*
X0110765Y0064988D01*
X0110737Y0064907D01*
X0110706Y0064826D01*
X0110672Y0064748D01*
X0110634Y0064671D01*
X0110592Y0064596D01*
X0110548Y0064522D01*
X0110500Y0064451D01*
X0110449Y0064381D01*
X0110395Y0064314D01*
X0110339Y0064250D01*
X0110279Y0064188D01*
X0110217Y0064128D01*
X0110153Y0064072D01*
X0110086Y0064018D01*
X0110016Y0063967D01*
X0109945Y0063919D01*
X0109872Y0063875D01*
X0109796Y0063833D01*
X0109719Y0063795D01*
X0109641Y0063761D01*
X0109560Y0063730D01*
X0109479Y0063702D01*
X0109397Y0063678D01*
X0109313Y0063658D01*
X0109229Y0063641D01*
X0109144Y0063628D01*
X0109059Y0063618D01*
X0108973Y0063613D01*
X0108887Y0063611D01*
X0108821Y0063609D01*
X0108755Y0063604D01*
X0108689Y0063594D01*
X0108624Y0063581D01*
X0108560Y0063565D01*
X0108497Y0063545D01*
X0108435Y0063521D01*
X0108375Y0063494D01*
X0108316Y0063464D01*
X0108259Y0063430D01*
X0108204Y0063393D01*
X0108151Y0063353D01*
X0108100Y0063311D01*
X0108052Y0063265D01*
X0108006Y0063217D01*
X0107964Y0063166D01*
X0107924Y0063113D01*
X0107887Y0063058D01*
X0107853Y0063001D01*
X0107823Y0062942D01*
X0107796Y0062882D01*
X0107772Y0062820D01*
X0107752Y0062757D01*
X0107736Y0062693D01*
X0107723Y0062628D01*
X0107713Y0062562D01*
X0107708Y0062496D01*
X0107706Y0062430D01*
X0107706Y0056131D01*
X0107705Y0056131D02*
X0107703Y0055986D01*
X0107697Y0055841D01*
X0107687Y0055696D01*
X0107674Y0055552D01*
X0107656Y0055408D01*
X0107634Y0055265D01*
X0107609Y0055122D01*
X0107580Y0054980D01*
X0107547Y0054839D01*
X0107510Y0054699D01*
X0107469Y0054559D01*
X0107425Y0054421D01*
X0107377Y0054285D01*
X0107325Y0054149D01*
X0107269Y0054015D01*
X0107210Y0053883D01*
X0107148Y0053752D01*
X0107081Y0053623D01*
X0107012Y0053496D01*
X0106939Y0053371D01*
X0106862Y0053248D01*
X0106782Y0053126D01*
X0106699Y0053008D01*
X0106613Y0052891D01*
X0106524Y0052777D01*
X0106432Y0052665D01*
X0106336Y0052556D01*
X0106238Y0052449D01*
X0106137Y0052345D01*
X0106033Y0052244D01*
X0105926Y0052146D01*
X0105817Y0052050D01*
X0105705Y0051958D01*
X0105591Y0051869D01*
X0105474Y0051783D01*
X0105356Y0051700D01*
X0105234Y0051620D01*
X0105111Y0051543D01*
X0104986Y0051470D01*
X0104859Y0051401D01*
X0104730Y0051334D01*
X0104599Y0051272D01*
X0104467Y0051213D01*
X0104333Y0051157D01*
X0104197Y0051105D01*
X0104061Y0051057D01*
X0103923Y0051013D01*
X0103783Y0050972D01*
X0103643Y0050935D01*
X0103502Y0050902D01*
X0103360Y0050873D01*
X0103217Y0050848D01*
X0103074Y0050826D01*
X0102930Y0050808D01*
X0102786Y0050795D01*
X0102641Y0050785D01*
X0102496Y0050779D01*
X0102351Y0050777D01*
X0102351Y0050776D02*
X0081328Y0050776D01*
X0077784Y0051800D01*
X0090383Y0043926D02*
X0112036Y0043926D01*
X0112036Y0043925D02*
X0112188Y0043927D01*
X0112340Y0043933D01*
X0112492Y0043943D01*
X0112643Y0043956D01*
X0112794Y0043974D01*
X0112945Y0043995D01*
X0113095Y0044021D01*
X0113244Y0044050D01*
X0113393Y0044083D01*
X0113540Y0044120D01*
X0113687Y0044160D01*
X0113832Y0044205D01*
X0113976Y0044253D01*
X0114119Y0044305D01*
X0114261Y0044360D01*
X0114401Y0044419D01*
X0114540Y0044482D01*
X0114677Y0044548D01*
X0114812Y0044618D01*
X0114945Y0044691D01*
X0115076Y0044768D01*
X0115206Y0044848D01*
X0115333Y0044931D01*
X0115458Y0045017D01*
X0115581Y0045107D01*
X0115701Y0045200D01*
X0115819Y0045296D01*
X0115935Y0045395D01*
X0116048Y0045497D01*
X0116158Y0045601D01*
X0116266Y0045709D01*
X0116370Y0045819D01*
X0116472Y0045932D01*
X0116571Y0046048D01*
X0116667Y0046166D01*
X0116760Y0046286D01*
X0116850Y0046409D01*
X0116936Y0046534D01*
X0117019Y0046661D01*
X0117099Y0046791D01*
X0117176Y0046922D01*
X0117249Y0047055D01*
X0117319Y0047190D01*
X0117385Y0047327D01*
X0117448Y0047466D01*
X0117507Y0047606D01*
X0117562Y0047748D01*
X0117614Y0047891D01*
X0117662Y0048035D01*
X0117707Y0048180D01*
X0117747Y0048327D01*
X0117784Y0048474D01*
X0117817Y0048623D01*
X0117846Y0048772D01*
X0117872Y0048922D01*
X0117893Y0049073D01*
X0117911Y0049224D01*
X0117924Y0049375D01*
X0117934Y0049527D01*
X0117940Y0049679D01*
X0117942Y0049831D01*
X0117942Y0050225D01*
X0117944Y0050341D01*
X0117950Y0050457D01*
X0117959Y0050572D01*
X0117972Y0050687D01*
X0117989Y0050802D01*
X0118010Y0050916D01*
X0118035Y0051030D01*
X0118063Y0051142D01*
X0118095Y0051253D01*
X0118130Y0051364D01*
X0118169Y0051473D01*
X0118212Y0051581D01*
X0118258Y0051687D01*
X0118307Y0051792D01*
X0118360Y0051895D01*
X0118417Y0051996D01*
X0118476Y0052096D01*
X0118539Y0052193D01*
X0118605Y0052289D01*
X0118674Y0052382D01*
X0118746Y0052473D01*
X0118821Y0052561D01*
X0118899Y0052647D01*
X0118980Y0052730D01*
X0119063Y0052811D01*
X0119149Y0052889D01*
X0119237Y0052964D01*
X0119328Y0053036D01*
X0119421Y0053105D01*
X0119517Y0053171D01*
X0119614Y0053234D01*
X0119714Y0053293D01*
X0119815Y0053350D01*
X0119918Y0053403D01*
X0120023Y0053452D01*
X0120129Y0053498D01*
X0120237Y0053541D01*
X0120346Y0053580D01*
X0120457Y0053615D01*
X0120568Y0053647D01*
X0120680Y0053675D01*
X0120794Y0053700D01*
X0120908Y0053721D01*
X0121023Y0053738D01*
X0121138Y0053751D01*
X0121253Y0053760D01*
X0121369Y0053766D01*
X0121485Y0053768D01*
X0121485Y0053769D02*
X0123060Y0053769D01*
X0123060Y0053768D02*
X0123137Y0053770D01*
X0123214Y0053776D01*
X0123291Y0053785D01*
X0123367Y0053798D01*
X0123443Y0053815D01*
X0123517Y0053836D01*
X0123591Y0053860D01*
X0123663Y0053888D01*
X0123733Y0053919D01*
X0123802Y0053954D01*
X0123870Y0053992D01*
X0123935Y0054033D01*
X0123998Y0054078D01*
X0124059Y0054126D01*
X0124118Y0054176D01*
X0124174Y0054229D01*
X0124227Y0054285D01*
X0124277Y0054344D01*
X0124325Y0054405D01*
X0124370Y0054468D01*
X0124411Y0054533D01*
X0124449Y0054601D01*
X0124484Y0054670D01*
X0124515Y0054740D01*
X0124543Y0054812D01*
X0124567Y0054886D01*
X0124588Y0054960D01*
X0124605Y0055036D01*
X0124618Y0055112D01*
X0124627Y0055189D01*
X0124633Y0055266D01*
X0124635Y0055343D01*
X0124637Y0055409D01*
X0124642Y0055475D01*
X0124652Y0055541D01*
X0124665Y0055606D01*
X0124681Y0055670D01*
X0124701Y0055733D01*
X0124725Y0055795D01*
X0124752Y0055855D01*
X0124782Y0055914D01*
X0124816Y0055971D01*
X0124853Y0056026D01*
X0124893Y0056079D01*
X0124935Y0056130D01*
X0124981Y0056178D01*
X0125029Y0056224D01*
X0125080Y0056266D01*
X0125133Y0056306D01*
X0125188Y0056343D01*
X0125245Y0056377D01*
X0125304Y0056407D01*
X0125364Y0056434D01*
X0125426Y0056458D01*
X0125489Y0056478D01*
X0125553Y0056494D01*
X0125618Y0056507D01*
X0125684Y0056517D01*
X0125750Y0056522D01*
X0125816Y0056524D01*
X0161249Y0056524D01*
X0163217Y0058493D01*
X0168729Y0058493D01*
X0178178Y0051603D02*
X0181524Y0051603D01*
X0182902Y0052194D01*
X0180934Y0049044D02*
X0178178Y0049044D01*
X0180934Y0049044D02*
X0181918Y0048060D01*
X0182509Y0048060D01*
X0185068Y0048060D01*
X0182509Y0044123D02*
X0180540Y0044123D01*
X0178178Y0046485D01*
X0173257Y0041957D01*
X0165186Y0041957D01*
X0161643Y0045107D01*
X0166367Y0046288D02*
X0169517Y0046288D01*
X0169713Y0046485D01*
X0170304Y0046485D01*
X0170304Y0049044D01*
X0195501Y0034083D02*
X0199438Y0034083D01*
X0203375Y0034083D02*
X0205737Y0036446D01*
X0205737Y0038020D01*
X0128178Y0063611D02*
X0126997Y0064792D01*
X0126997Y0069024D01*
X0121091Y0068040D02*
X0121091Y0064989D01*
X0110855Y0073060D02*
X0105737Y0078178D01*
X0104359Y0078178D01*
X0102784Y0076603D01*
X0105737Y0078178D02*
X0105737Y0082706D01*
X0099241Y0076603D02*
X0099241Y0074733D01*
X0091170Y0076406D02*
X0091170Y0077784D01*
X0087627Y0081328D01*
X0083887Y0077587D01*
X0083887Y0074241D01*
X0090580Y0067548D01*
X0095107Y0067548D01*
X0100619Y0062036D01*
X0098454Y0059871D01*
X0092351Y0059871D01*
X0077785Y0051800D02*
X0077826Y0051309D01*
X0077879Y0050819D01*
X0077944Y0050330D01*
X0078021Y0049843D01*
X0078109Y0049358D01*
X0078209Y0048875D01*
X0078321Y0048394D01*
X0078444Y0047917D01*
X0078579Y0047443D01*
X0078725Y0046972D01*
X0078883Y0046504D01*
X0079051Y0046041D01*
X0079231Y0045582D01*
X0079422Y0045127D01*
X0079624Y0044677D01*
X0079837Y0044233D01*
X0080060Y0043793D01*
X0080294Y0043359D01*
X0080539Y0042931D01*
X0080793Y0042508D01*
X0081058Y0042092D01*
X0081333Y0041683D01*
X0081618Y0041280D01*
X0081912Y0040884D01*
X0082216Y0040496D01*
X0082529Y0040115D01*
X0082851Y0039741D01*
X0083182Y0039376D01*
X0083521Y0039019D01*
X0083870Y0038670D01*
X0084226Y0038329D01*
X0084591Y0037997D01*
X0084964Y0037674D01*
X0085344Y0037360D01*
X0085732Y0037056D01*
X0086127Y0036761D01*
X0086529Y0036475D01*
X0086938Y0036200D01*
X0087354Y0035934D01*
X0087775Y0035679D01*
X0088203Y0035433D01*
X0088637Y0035198D01*
X0089076Y0034974D01*
X0089520Y0034760D01*
X0089970Y0034558D01*
X0090424Y0034366D01*
X0090883Y0034185D01*
X0091346Y0034015D01*
X0091813Y0033856D01*
X0092283Y0033709D01*
X0092757Y0033573D01*
X0093235Y0033449D01*
X0093715Y0033336D01*
X0094197Y0033235D01*
X0094682Y0033146D01*
X0095169Y0033068D01*
X0095658Y0033002D01*
X0096148Y0032948D01*
X0096639Y0032906D01*
X0097132Y0032876D01*
X0097624Y0032857D01*
X0098118Y0032851D01*
X0098611Y0032856D01*
X0099103Y0032874D01*
X0099596Y0032903D01*
X0099595Y0032902D02*
X0121879Y0032902D01*
X0079949Y0099634D02*
X0078653Y0099375D01*
X0077363Y0099088D01*
X0076079Y0098774D01*
X0074802Y0098432D01*
X0073533Y0098062D01*
X0072272Y0097666D01*
X0064005Y0091170D02*
X0061446Y0087036D01*
X0064004Y0091170D02*
X0064203Y0091483D01*
X0064409Y0091790D01*
X0064623Y0092093D01*
X0064843Y0092390D01*
X0065071Y0092681D01*
X0065306Y0092967D01*
X0065547Y0093248D01*
X0065796Y0093522D01*
X0066051Y0093790D01*
X0066312Y0094052D01*
X0066580Y0094308D01*
X0066853Y0094557D01*
X0067133Y0094800D01*
X0067418Y0095035D01*
X0067709Y0095264D01*
X0068006Y0095486D01*
X0068308Y0095700D01*
X0068614Y0095907D01*
X0068926Y0096106D01*
X0069243Y0096298D01*
X0069564Y0096482D01*
X0069889Y0096659D01*
X0070218Y0096827D01*
X0070552Y0096988D01*
X0070889Y0097140D01*
X0071230Y0097284D01*
X0071574Y0097420D01*
X0071922Y0097547D01*
X0072272Y0097667D01*
X0095501Y0095501D02*
X0095501Y0090186D01*
X0095501Y0086446D02*
X0091564Y0086446D01*
X0094713Y0082706D02*
X0095501Y0082706D01*
X0090383Y0081328D02*
X0089989Y0081328D01*
X0105737Y0090186D02*
X0110265Y0090186D01*
X0110461Y0090383D01*
X0096879Y0097863D02*
X0096791Y0097811D01*
X0096705Y0097756D01*
X0096621Y0097697D01*
X0096539Y0097636D01*
X0096460Y0097571D01*
X0096383Y0097503D01*
X0096309Y0097433D01*
X0096237Y0097360D01*
X0096169Y0097284D01*
X0096103Y0097205D01*
X0096040Y0097124D01*
X0095980Y0097041D01*
X0095924Y0096956D01*
X0095871Y0096869D01*
X0095821Y0096779D01*
X0095774Y0096688D01*
X0095731Y0096595D01*
X0095692Y0096501D01*
X0095656Y0096405D01*
X0095624Y0096308D01*
X0095595Y0096209D01*
X0095570Y0096110D01*
X0095549Y0096010D01*
X0095532Y0095909D01*
X0095518Y0095807D01*
X0095509Y0095706D01*
X0095503Y0095603D01*
X0095501Y0095501D01*
X0096878Y0097864D02*
X0097417Y0098160D01*
X0097962Y0098443D01*
X0098513Y0098714D01*
X0099071Y0098972D01*
X0099634Y0099217D01*
X0100203Y0099448D01*
X0100778Y0099666D01*
X0101357Y0099871D01*
X0101941Y0100062D01*
X0102529Y0100240D01*
X0103121Y0100404D01*
X0103717Y0100554D01*
X0104316Y0100690D01*
X0104918Y0100812D01*
X0105523Y0100920D01*
X0106130Y0101013D01*
X0061446Y0056918D02*
X0057509Y0052981D01*
X0049044Y0052981D01*
X0106131Y0101012D02*
X0110103Y0101535D01*
X0114086Y0101972D01*
X0118078Y0102322D01*
X0122076Y0102587D01*
X0253178Y0094910D02*
X0262430Y0091957D01*
X0269517Y0084871D02*
X0269517Y0084477D01*
X0269516Y0084477D02*
X0269448Y0084724D01*
X0269375Y0084970D01*
X0269296Y0085213D01*
X0269211Y0085454D01*
X0269120Y0085694D01*
X0269023Y0085931D01*
X0268921Y0086166D01*
X0268813Y0086398D01*
X0268700Y0086627D01*
X0268581Y0086854D01*
X0268457Y0087078D01*
X0268327Y0087299D01*
X0268193Y0087516D01*
X0268053Y0087731D01*
X0267907Y0087942D01*
X0267757Y0088149D01*
X0267602Y0088353D01*
X0267442Y0088553D01*
X0267278Y0088749D01*
X0267109Y0088941D01*
X0266935Y0089129D01*
X0266756Y0089312D01*
X0266574Y0089492D01*
X0266387Y0089667D01*
X0266196Y0089837D01*
X0266001Y0090003D01*
X0265802Y0090164D01*
X0265599Y0090320D01*
X0265393Y0090472D01*
X0265183Y0090618D01*
X0264969Y0090759D01*
X0264752Y0090896D01*
X0264532Y0091026D01*
X0264309Y0091152D01*
X0264083Y0091272D01*
X0263854Y0091387D01*
X0263623Y0091496D01*
X0263389Y0091600D01*
X0263152Y0091698D01*
X0262913Y0091790D01*
X0262672Y0091877D01*
X0262430Y0091957D01*
X0253178Y0094910D02*
X0249301Y0096096D01*
X0245398Y0097189D01*
X0241469Y0098188D01*
X0237518Y0099093D01*
X0233546Y0099903D01*
X0229556Y0100618D01*
X0229556Y0100620D02*
X0225052Y0101505D01*
X0220530Y0102293D01*
X0215993Y0102983D01*
X0211441Y0103574D01*
X0206877Y0104067D01*
X0202304Y0104461D01*
X0197724Y0104755D01*
X0193138Y0104950D01*
X0090383Y0101406D02*
X0085158Y0100568D01*
X0079950Y0099634D01*
X0090382Y0101407D02*
X0099107Y0102615D01*
X0107858Y0103609D01*
X0116632Y0104387D01*
X0125422Y0104950D01*
D31*
X0107706Y0095894D03*
X0102587Y0095894D03*
X0092351Y0098257D03*
X0061446Y0087036D03*
X0100619Y0062036D03*
X0092351Y0059871D03*
X0061446Y0056918D03*
X0090383Y0043926D03*
X0128178Y0063611D03*
X0161643Y0048650D03*
X0165973Y0054162D03*
X0182902Y0052194D03*
X0190580Y0046485D03*
X0205737Y0038020D03*
X0195501Y0034083D03*
X0209674Y0043139D03*
X0214398Y0045894D03*
X0230934Y0052194D03*
X0239595Y0049044D03*
X0250619Y0051209D03*
X0226997Y0059477D03*
X0250816Y0066957D03*
X0212430Y0084083D03*
X0214989Y0090186D03*
X0207706Y0089989D03*
X0197469Y0096288D03*
X0178965Y0088217D03*
X0175225Y0091564D03*
X0167548Y0082312D03*
X0167548Y0078769D03*
X0158493Y0079950D03*
X0140383Y0080934D03*
X0178375Y0062430D03*
X0200619Y0064792D03*
X0155343Y0041957D03*
X0132509Y0037233D03*
X0132509Y0031721D03*
D32*
X0123060Y0063020D02*
X0121091Y0064989D01*
D33*
X0178375Y0062430D02*
X0181524Y0059280D01*
X0186249Y0059280D01*
X0190580Y0054950D01*
X0190580Y0046485D01*
X0193447Y0046485D01*
X0196400Y0049438D01*
X0202784Y0049438D01*
X0209477Y0056131D01*
X0209477Y0059674D01*
X0210855Y0061052D01*
X0217351Y0061052D01*
X0218335Y0060068D01*
X0218335Y0052981D01*
X0221485Y0049831D01*
X0228572Y0049831D01*
X0230934Y0052194D01*
X0193251Y0046288D02*
X0190580Y0046485D01*
D34*
X0258887Y0075028D02*
X0265186Y0068729D01*
X0269517Y0068729D01*
X0258887Y0075028D02*
X0258887Y0087430D01*
X0256052Y0090265D01*
X0250776Y0090265D01*
X0094713Y0082706D02*
X0093335Y0081328D01*
X0090383Y0081328D01*
X0087627Y0081328D01*
X0066761Y0059280D02*
X0065186Y0060855D01*
X0049044Y0060855D01*
X0066761Y0059280D02*
X0066761Y0051800D01*
M02*
