%
M48
M72
T01C0.01575
T02C0.01969
T03C0.02362
T04C0.03150
T05C0.03200
T06C0.03500
T07C0.03937
T08C0.07087
%
T01
X90383Y43926
X61446Y56918
X92351Y59871
X100619Y62036
X128178Y63611
X161643Y48650
X165973Y54162
X182902Y52194
X190580Y46485
X205737Y38020
X195501Y34083
X209674Y43139
X214398Y45894
X230934Y52194
X239595Y49044
X250619Y51209
X226997Y59477
X250816Y66957
X212430Y84083
X214989Y90186
X207706Y89989
X197469Y96288
X178965Y88217
X175225Y91564
X167548Y82312
X167548Y78769
X158493Y79950
X140383Y80934
X107706Y95894
X102587Y95894
X92351Y98257
X61446Y87036
X155343Y41957
X132509Y37233
X132509Y31721
X178375Y62430
X200619Y64792
T02
X126997Y69024
X126997Y69024
X126997Y69024
X115973Y60560
X115973Y60560
X104950Y69024
X104950Y69024
X104950Y69024
T03
X104950Y69024
X105343Y69024
X105737Y69024
X106131Y69024
X106524Y69024
X104556Y69024
X104162Y69024
X103769Y69024
X103375Y69024
X114005Y60560
X114398Y60560
X114792Y60560
X115186Y60560
X115580Y60560
X115973Y60560
X115973Y60560
X116367Y60560
X116761Y60560
X117154Y60560
X117548Y60560
X117942Y60560
X125422Y69024
X125816Y69024
X126209Y69024
X126603Y69024
X126997Y69024
X127391Y69024
X127784Y69024
X128178Y69024
X128572Y69024
T04
X87627Y81328
X87627Y89202
T05
X142469Y64792
X152469Y64792
T06
X49044Y45107
X49044Y52981
X49044Y60855
X49044Y68729
X269517Y68729
X269517Y60855
X269517Y76603
X269517Y84477
T07
X250776Y80265
X240776Y80265
X230776Y80265
X230776Y90265
X240776Y90265
X250776Y90265
X174280Y30422
X164280Y30422
X154280Y30422
X144280Y30422
T08
X80540Y64792
X238020Y64792
M30
