G75*
%MOIN*%
%OFA0B0*%
%FSLAX25Y25*%
%IPPOS*%
%LPD*%
%AMOC8*
5,1,8,0,0,1.08239X$1,22.5*
%
%ADD10C,0.01600*%
%ADD11C,0.00600*%
%ADD12C,0.05200*%
%ADD13C,0.05150*%
%ADD14C,0.05543*%
%ADD15OC8,0.05200*%
D10*
X0070737Y0064753D02*
X0086446Y0049044D01*
X0108099Y0049044D01*
X0119910Y0060855D01*
X0119910Y0104162D01*
X0130973Y0115225D01*
X0134910Y0115225D01*
X0135791Y0157954D02*
X0126583Y0157954D01*
X0129653Y0164093D02*
X0126583Y0167162D01*
X0129653Y0170231D01*
X0138861Y0170231D01*
X0135791Y0164093D02*
X0129653Y0164093D01*
X0135791Y0164093D02*
X0138861Y0161024D01*
X0135791Y0157954D01*
X0120445Y0173301D02*
X0117376Y0170231D01*
X0120445Y0173301D02*
X0120445Y0179439D01*
X0111237Y0167162D02*
X0108168Y0170231D01*
X0102029Y0170231D01*
X0098960Y0167162D01*
X0098960Y0161024D01*
X0102029Y0157954D01*
X0108168Y0157954D01*
X0111237Y0161024D01*
X0111237Y0167162D01*
X0092821Y0167162D02*
X0092821Y0161024D01*
X0089752Y0157954D01*
X0083613Y0157954D01*
X0080544Y0161024D01*
X0080544Y0167162D01*
X0083613Y0170231D01*
X0089752Y0170231D01*
X0092821Y0167162D01*
X0074406Y0176370D02*
X0062128Y0176370D01*
X0062128Y0157954D01*
X0062128Y0167162D02*
X0068267Y0167162D01*
X0163415Y0157954D02*
X0175692Y0157954D01*
X0181831Y0161024D02*
X0184900Y0164093D01*
X0194108Y0164093D01*
X0194108Y0167162D02*
X0194108Y0157954D01*
X0184900Y0157954D01*
X0181831Y0161024D01*
X0184900Y0170231D02*
X0191039Y0170231D01*
X0194108Y0167162D01*
X0200246Y0170231D02*
X0209454Y0170231D01*
X0212524Y0167162D01*
X0212524Y0161024D01*
X0209454Y0157954D01*
X0200246Y0157954D01*
X0200246Y0176370D01*
X0163415Y0176370D02*
X0163415Y0157954D01*
X0070737Y0064753D02*
X0070186Y0064753D01*
D11*
X0034513Y0059645D02*
X0032086Y0057218D01*
X0029659Y0059645D01*
X0029659Y0064498D01*
X0034513Y0064498D02*
X0034513Y0059645D01*
X0036909Y0059645D02*
X0040549Y0059645D01*
X0041763Y0060858D01*
X0041763Y0063285D01*
X0040549Y0064498D01*
X0036909Y0064498D01*
X0036909Y0057218D01*
X0044160Y0057218D02*
X0044160Y0064498D01*
X0047800Y0064498D01*
X0049013Y0063285D01*
X0049013Y0060858D01*
X0047800Y0059645D01*
X0044160Y0059645D01*
D12*
X0102310Y0085225D02*
X0107510Y0085225D01*
X0107510Y0095225D02*
X0102310Y0095225D01*
X0102310Y0105225D02*
X0107510Y0105225D01*
X0107510Y0115225D02*
X0102310Y0115225D01*
X0132310Y0115225D02*
X0137510Y0115225D01*
X0137510Y0105225D02*
X0132310Y0105225D01*
X0132310Y0095225D02*
X0137510Y0095225D01*
X0137510Y0085225D02*
X0132310Y0085225D01*
D13*
X0161091Y0080540D03*
X0181091Y0080540D03*
X0181091Y0104162D03*
X0161091Y0104162D03*
X0090186Y0064753D03*
X0070186Y0064753D03*
D14*
X0041170Y0075225D03*
X0041170Y0085225D03*
X0041170Y0095225D03*
X0041170Y0105225D03*
X0041170Y0115225D03*
X0041170Y0125225D03*
D15*
X0230146Y0113099D03*
X0230146Y0103099D03*
X0230146Y0061918D03*
X0230146Y0051918D03*
M02*
