%
M48
M72
T01C0.03150
T02C0.03200
T03C0.03543
%
T01
X70186Y64753
X90186Y64753
X161091Y80540
X181091Y80540
X181091Y104162
X161091Y104162
T02
X134910Y105225
X134910Y95225
X134910Y85225
X104910Y85225
X104910Y95225
X104910Y105225
X104910Y115225
X134910Y115225
X230146Y113099
X230146Y103099
X230146Y61918
X230146Y51918
T03
X41170Y75225
X41170Y85225
X41170Y95225
X41170Y105225
X41170Y115225
X41170Y125225
M30
