G75*
%MOIN*%
%OFA0B0*%
%FSLAX25Y25*%
%IPPOS*%
%LPD*%
%AMOC8*
5,1,8,0,0,1.08239X$1,22.5*
%
%ADD10C,0.00400*%
%ADD11C,0.00500*%
D10*
X0101980Y0067965D02*
X0101980Y0069473D01*
X0102734Y0070227D01*
X0106505Y0070227D01*
X0105751Y0071742D02*
X0106505Y0072496D01*
X0106505Y0074005D01*
X0105751Y0074759D01*
X0105751Y0076274D02*
X0104997Y0076274D01*
X0104243Y0077028D01*
X0104243Y0079290D01*
X0105751Y0079290D02*
X0106505Y0078536D01*
X0106505Y0077028D01*
X0105751Y0076274D01*
X0103489Y0074759D02*
X0102734Y0074759D01*
X0101980Y0074005D01*
X0101980Y0072496D01*
X0102734Y0071742D01*
X0104243Y0072496D02*
X0104997Y0071742D01*
X0105751Y0071742D01*
X0104243Y0072496D02*
X0104243Y0074005D01*
X0103489Y0074759D01*
X0102734Y0076274D02*
X0101980Y0077028D01*
X0101980Y0078536D01*
X0102734Y0079290D01*
X0105751Y0079290D01*
X0107260Y0073251D02*
X0101226Y0073251D01*
X0101980Y0067965D02*
X0102734Y0067211D01*
X0106505Y0067211D01*
D11*
X0100698Y0069083D02*
X0095973Y0069083D01*
X0095973Y0078532D01*
X0100698Y0078532D01*
X0100698Y0069083D01*
M02*
