  0
SECTION
  2
HEADER
  9
$ACADVER
  1
AC1009
  9
$FILLMODE
 70
1
  9
$EXTMIN
 10
-11.1500
 20
-7.1500
 30
0.0000
  9
$EXTMAX
 10
115.1500
 20
84.1500
 30
0.0000
  0
ENDSEC
  0
SECTION
  2
TABLES
  0
TABLE
  2
LTYPE
 70
1
  0
LTYPE
  2
CONTINUOUS
 70
64
  3
Solid line
 72
65
 73
0
 40
0
  0
ENDTAB
  0
TABLE
  2
LAYER
 70
255
  0
LAYER
  2
19
 70
64
 62
53
  6
CONTINUOUS
  0
LAYER
  2
20
 70
64
 62
7
  6
CONTINUOUS
  0
LAYER
  2
31
 70
64
 62
253
  6
CONTINUOUS
  0
ENDTAB
  0
ENDSEC
  0
SECTION
  2
BLOCKS
  0
BLOCK
  8
0
  2
RECT
 70
64
 10
0.0000
 20
0.0000
 30
0.0000
  3
RECT
  0
SOLID
  8
0
 10
-0.5000
 20
-0.5000
 30
0.0000
 11
0.5000
 21
-0.5000
 31
0.0000
 12
-0.5000
 22
0.5000
 32
0.0000
 13
0.5000
 23
0.5000
 33
0.0000
  0
ENDBLK
  8
0
  0
BLOCK
  8
0
  2
PIE
 70
64
 10
0.0000
 20
0.0000
 30
0.0000
  3
PIE
  0
POLYLINE
  8
0
 66
1
 10
0.0000
 20
0.0000
 30
0.0000
 40
0.5000
 41
0.5000
 70
0
  0
VERTEX
  8
0
 10
0.0000
 20
-0.2500
 30
0.0000
 42
1.0000
  0
VERTEX
  8
0
 10
0.0000
 20
0.2500
 30
0.0000
 42
1.0000
  0
VERTEX
  8
0
 10
0.0000
 20
-0.2500
 30
0.0000
  0
SEQEND
  8
0
  0
ENDBLK
  8
0
  0
BLOCK
  8
0
  2
OCTAGONP
 70
64
 10
0.0000
 20
0.0000
 30
0.0000
  3
OCTAGONP
  0
POLYLINE
  8
0
 66
1
 10
0.0000
 20
0.0000
 30
0.0000
 40
0.5000
 41
0.5000
 70
0
  0
VERTEX
  8
0
 10
-0.2500
 20
-0.1036
 30
0.0000
  0
VERTEX
  8
0
 10
-0.2500
 20
0.1036
 30
0.0000
  0
VERTEX
  8
0
 10
-0.1036
 20
0.2500
 30
0.0000
  0
VERTEX
  8
0
 10
0.1036
 20
0.2500
 30
0.0000
  0
VERTEX
  8
0
 10
0.2500
 20
0.1036
 30
0.0000
  0
VERTEX
  8
0
 10
0.2500
 20
-0.1036
 30
0.0000
  0
VERTEX
  8
0
 10
0.1036
 20
-0.2500
 30
0.0000
  0
VERTEX
  8
0
 10
-0.1036
 20
-0.2500
 30
0.0000
  0
VERTEX
  8
0
 10
-0.2500
 20
-0.1036
 30
0.0000
  0
VERTEX
  8
0
 10
-0.2500
 20
0.1036
 30
0.0000
  0
SEQEND
  8
0
  0
ENDBLK
  8
0
  0
BLOCK
  8
0
  2
SQUAREP
 70
64
 10
0.0000
 20
0.0000
 30
0.0000
  3
SQUAREP
  0
SOLID
  8
0
 10
-0.5000
 20
-0.5000
 30
0.0000
 11
0.5000
 21
-0.5000
 31
0.0000
 12
-0.5000
 22
0.5000
 32
0.0000
 13
0.5000
 23
0.5000
 33
0.0000
  0
ENDBLK
  8
0
  0
BLOCK
  8
0
  2
ROUNDP
 70
64
 10
0.0000
 20
0.0000
 30
0.0000
  3
ROUNDP
  0
POLYLINE
  8
0
 66
1
 10
0.0000
 20
0.0000
 30
0.0000
 40
0.5000
 41
0.5000
 70
0
  0
VERTEX
  8
0
 10
0.0000
 20
-0.2500
 30
0.0000
 42
1.0000
  0
VERTEX
  8
0
 10
0.0000
 20
0.2500
 30
0.0000
 42
1.0000
  0
VERTEX
  8
0
 10
0.0000
 20
-0.2500
 30
0.0000
  0
SEQEND
  8
0
  0
ENDBLK
  8
0
  0
BLOCK
  8
0
  2
ANNULUSP
 70
64
 10
0.0000
 20
0.0000
 30
0.0000
  3
ANNULUSP
  0
POLYLINE
  8
0
 66
1
 10
0.0000
 20
0.0000
 30
0.0000
 40
0.5000
 41
0.5000
 70
0
  0
VERTEX
  8
0
 10
0.0000
 20
-0.2500
 30
0.0000
 42
1.0000
  0
VERTEX
  8
0
 10
0.0000
 20
0.2500
 30
0.0000
 42
1.0000
  0
VERTEX
  8
0
 10
0.0000
 20
-0.2500
 30
0.0000
  0
SEQEND
  8
0
  0
ENDBLK
  8
0
  0
BLOCK
  8
0
  2
THERMALP
 70
64
 10
0.0000
 20
0.0000
 30
0.0000
  3
THERMALP
  0
POLYLINE
  8
0
 66
1
 10
0.0000
 20
0.0000
 30
0.0000
 40
0.1000
 41
0.1000
 70
0
  0
VERTEX
  8
0
 10
-0.2379
 20
0.4500
 30
0.0000
  0
VERTEX
  8
0
 10
0.2379
 20
0.4500
 30
0.0000
  0
SEQEND
  8
0
  0
POLYLINE
  8
0
 66
1
 10
0.0000
 20
0.0000
 30
0.0000
 40
0.0500
 41
0.0500
 70
0
  0
VERTEX
  8
0
 10
0.2379
 20
0.4250
 30
0.0000
 42
1.0000
  0
VERTEX
  8
0
 10
0.2379
 20
0.4750
 30
0.0000
  0
SEQEND
  8
0
  0
POLYLINE
  8
0
 66
1
 10
0.0000
 20
0.0000
 30
0.0000
 40
0.0500
 41
0.0500
 70
0
  0
VERTEX
  8
0
 10
-0.2379
 20
0.4750
 30
0.0000
 42
1.0000
  0
VERTEX
  8
0
 10
-0.2379
 20
0.4250
 30
0.0000
  0
SEQEND
  8
0
  0
POLYLINE
  8
0
 66
1
 10
0.0000
 20
0.0000
 30
0.0000
 40
0.1000
 41
0.1000
 70
0
  0
VERTEX
  8
0
 10
0.4500
 20
0.2379
 30
0.0000
  0
VERTEX
  8
0
 10
0.4500
 20
-0.2379
 30
0.0000
  0
SEQEND
  8
0
  0
POLYLINE
  8
0
 66
1
 10
0.0000
 20
0.0000
 30
0.0000
 40
0.0500
 41
0.0500
 70
0
  0
VERTEX
  8
0
 10
0.4250
 20
-0.2379
 30
0.0000
 42
1.0000
  0
VERTEX
  8
0
 10
0.4750
 20
-0.2379
 30
0.0000
  0
SEQEND
  8
0
  0
POLYLINE
  8
0
 66
1
 10
0.0000
 20
0.0000
 30
0.0000
 40
0.0500
 41
0.0500
 70
0
  0
VERTEX
  8
0
 10
0.4750
 20
0.2379
 30
0.0000
 42
1.0000
  0
VERTEX
  8
0
 10
0.4250
 20
0.2379
 30
0.0000
  0
SEQEND
  8
0
  0
POLYLINE
  8
0
 66
1
 10
0.0000
 20
0.0000
 30
0.0000
 40
0.1000
 41
0.1000
 70
0
  0
VERTEX
  8
0
 10
0.2379
 20
-0.4500
 30
0.0000
  0
VERTEX
  8
0
 10
-0.2379
 20
-0.4500
 30
0.0000
  0
SEQEND
  8
0
  0
POLYLINE
  8
0
 66
1
 10
0.0000
 20
0.0000
 30
0.0000
 40
0.0500
 41
0.0500
 70
0
  0
VERTEX
  8
0
 10
-0.2379
 20
-0.4250
 30
0.0000
 42
1.0000
  0
VERTEX
  8
0
 10
-0.2379
 20
-0.4750
 30
0.0000
  0
SEQEND
  8
0
  0
POLYLINE
  8
0
 66
1
 10
0.0000
 20
0.0000
 30
0.0000
 40
0.0500
 41
0.0500
 70
0
  0
VERTEX
  8
0
 10
0.2379
 20
-0.4750
 30
0.0000
 42
1.0000
  0
VERTEX
  8
0
 10
0.2379
 20
-0.4250
 30
0.0000
  0
SEQEND
  8
0
  0
POLYLINE
  8
0
 66
1
 10
0.0000
 20
0.0000
 30
0.0000
 40
0.1000
 41
0.1000
 70
0
  0
VERTEX
  8
0
 10
-0.4500
 20
-0.2379
 30
0.0000
  0
VERTEX
  8
0
 10
-0.4500
 20
0.2379
 30
0.0000
  0
SEQEND
  8
0
  0
POLYLINE
  8
0
 66
1
 10
0.0000
 20
0.0000
 30
0.0000
 40
0.0500
 41
0.0500
 70
0
  0
VERTEX
  8
0
 10
-0.4250
 20
0.2379
 30
0.0000
 42
1.0000
  0
VERTEX
  8
0
 10
-0.4750
 20
0.2379
 30
0.0000
  0
SEQEND
  8
0
  0
POLYLINE
  8
0
 66
1
 10
0.0000
 20
0.0000
 30
0.0000
 40
0.0500
 41
0.0500
 70
0
  0
VERTEX
  8
0
 10
-0.4750
 20
-0.2379
 30
0.0000
 42
1.0000
  0
VERTEX
  8
0
 10
-0.4250
 20
-0.2379
 30
0.0000
  0
SEQEND
  8
0
  0
ENDBLK
  8
0
  0
BLOCK
  8
0
  2
OCTAGONV
 70
64
 10
0.0000
 20
0.0000
 30
0.0000
  3
OCTAGONV
  0
POLYLINE
  8
0
 66
1
 10
0.0000
 20
0.0000
 30
0.0000
 40
0.5000
 41
0.5000
 70
0
  0
VERTEX
  8
0
 10
-0.2500
 20
-0.1036
 30
0.0000
  0
VERTEX
  8
0
 10
-0.2500
 20
0.1036
 30
0.0000
  0
VERTEX
  8
0
 10
-0.1036
 20
0.2500
 30
0.0000
  0
VERTEX
  8
0
 10
0.1036
 20
0.2500
 30
0.0000
  0
VERTEX
  8
0
 10
0.2500
 20
0.1036
 30
0.0000
  0
VERTEX
  8
0
 10
0.2500
 20
-0.1036
 30
0.0000
  0
VERTEX
  8
0
 10
0.1036
 20
-0.2500
 30
0.0000
  0
VERTEX
  8
0
 10
-0.1036
 20
-0.2500
 30
0.0000
  0
VERTEX
  8
0
 10
-0.2500
 20
-0.1036
 30
0.0000
  0
VERTEX
  8
0
 10
-0.2500
 20
0.1036
 30
0.0000
  0
SEQEND
  8
0
  0
ENDBLK
  8
0
  0
BLOCK
  8
0
  2
SQUAREV
 70
64
 10
0.0000
 20
0.0000
 30
0.0000
  3
SQUAREV
  0
SOLID
  8
0
 10
-0.5000
 20
-0.5000
 30
0.0000
 11
0.5000
 21
-0.5000
 31
0.0000
 12
-0.5000
 22
0.5000
 32
0.0000
 13
0.5000
 23
0.5000
 33
0.0000
  0
ENDBLK
  8
0
  0
BLOCK
  8
0
  2
ROUNDV
 70
64
 10
0.0000
 20
0.0000
 30
0.0000
  3
ROUNDV
  0
POLYLINE
  8
0
 66
1
 10
0.0000
 20
0.0000
 30
0.0000
 40
0.5000
 41
0.5000
 70
0
  0
VERTEX
  8
0
 10
0.0000
 20
-0.2500
 30
0.0000
 42
1.0000
  0
VERTEX
  8
0
 10
0.0000
 20
0.2500
 30
0.0000
 42
1.0000
  0
VERTEX
  8
0
 10
0.0000
 20
-0.2500
 30
0.0000
  0
SEQEND
  8
0
  0
ENDBLK
  8
0
  0
BLOCK
  8
0
  2
ANNULUSV
 70
64
 10
0.0000
 20
0.0000
 30
0.0000
  3
ANNULUSV
  0
POLYLINE
  8
0
 66
1
 10
0.0000
 20
0.0000
 30
0.0000
 40
0.5000
 41
0.5000
 70
0
  0
VERTEX
  8
0
 10
0.0000
 20
-0.2500
 30
0.0000
 42
1.0000
  0
VERTEX
  8
0
 10
0.0000
 20
0.2500
 30
0.0000
 42
1.0000
  0
VERTEX
  8
0
 10
0.0000
 20
-0.2500
 30
0.0000
  0
SEQEND
  8
0
  0
ENDBLK
  8
0
  0
BLOCK
  8
0
  2
THERMALV
 70
64
 10
0.0000
 20
0.0000
 30
0.0000
  3
THERMALV
  0
POLYLINE
  8
0
 66
1
 10
0.0000
 20
0.0000
 30
0.0000
 40
0.1000
 41
0.1000
 70
0
  0
VERTEX
  8
0
 10
-0.2379
 20
0.4500
 30
0.0000
  0
VERTEX
  8
0
 10
0.2379
 20
0.4500
 30
0.0000
  0
SEQEND
  8
0
  0
POLYLINE
  8
0
 66
1
 10
0.0000
 20
0.0000
 30
0.0000
 40
0.0500
 41
0.0500
 70
0
  0
VERTEX
  8
0
 10
0.2379
 20
0.4250
 30
0.0000
 42
1.0000
  0
VERTEX
  8
0
 10
0.2379
 20
0.4750
 30
0.0000
  0
SEQEND
  8
0
  0
POLYLINE
  8
0
 66
1
 10
0.0000
 20
0.0000
 30
0.0000
 40
0.0500
 41
0.0500
 70
0
  0
VERTEX
  8
0
 10
-0.2379
 20
0.4750
 30
0.0000
 42
1.0000
  0
VERTEX
  8
0
 10
-0.2379
 20
0.4250
 30
0.0000
  0
SEQEND
  8
0
  0
POLYLINE
  8
0
 66
1
 10
0.0000
 20
0.0000
 30
0.0000
 40
0.1000
 41
0.1000
 70
0
  0
VERTEX
  8
0
 10
0.4500
 20
0.2379
 30
0.0000
  0
VERTEX
  8
0
 10
0.4500
 20
-0.2379
 30
0.0000
  0
SEQEND
  8
0
  0
POLYLINE
  8
0
 66
1
 10
0.0000
 20
0.0000
 30
0.0000
 40
0.0500
 41
0.0500
 70
0
  0
VERTEX
  8
0
 10
0.4250
 20
-0.2379
 30
0.0000
 42
1.0000
  0
VERTEX
  8
0
 10
0.4750
 20
-0.2379
 30
0.0000
  0
SEQEND
  8
0
  0
POLYLINE
  8
0
 66
1
 10
0.0000
 20
0.0000
 30
0.0000
 40
0.0500
 41
0.0500
 70
0
  0
VERTEX
  8
0
 10
0.4750
 20
0.2379
 30
0.0000
 42
1.0000
  0
VERTEX
  8
0
 10
0.4250
 20
0.2379
 30
0.0000
  0
SEQEND
  8
0
  0
POLYLINE
  8
0
 66
1
 10
0.0000
 20
0.0000
 30
0.0000
 40
0.1000
 41
0.1000
 70
0
  0
VERTEX
  8
0
 10
0.2379
 20
-0.4500
 30
0.0000
  0
VERTEX
  8
0
 10
-0.2379
 20
-0.4500
 30
0.0000
  0
SEQEND
  8
0
  0
POLYLINE
  8
0
 66
1
 10
0.0000
 20
0.0000
 30
0.0000
 40
0.0500
 41
0.0500
 70
0
  0
VERTEX
  8
0
 10
-0.2379
 20
-0.4250
 30
0.0000
 42
1.0000
  0
VERTEX
  8
0
 10
-0.2379
 20
-0.4750
 30
0.0000
  0
SEQEND
  8
0
  0
POLYLINE
  8
0
 66
1
 10
0.0000
 20
0.0000
 30
0.0000
 40
0.0500
 41
0.0500
 70
0
  0
VERTEX
  8
0
 10
0.2379
 20
-0.4750
 30
0.0000
 42
1.0000
  0
VERTEX
  8
0
 10
0.2379
 20
-0.4250
 30
0.0000
  0
SEQEND
  8
0
  0
POLYLINE
  8
0
 66
1
 10
0.0000
 20
0.0000
 30
0.0000
 40
0.1000
 41
0.1000
 70
0
  0
VERTEX
  8
0
 10
-0.4500
 20
-0.2379
 30
0.0000
  0
VERTEX
  8
0
 10
-0.4500
 20
0.2379
 30
0.0000
  0
SEQEND
  8
0
  0
POLYLINE
  8
0
 66
1
 10
0.0000
 20
0.0000
 30
0.0000
 40
0.0500
 41
0.0500
 70
0
  0
VERTEX
  8
0
 10
-0.4250
 20
0.2379
 30
0.0000
 42
1.0000
  0
VERTEX
  8
0
 10
-0.4750
 20
0.2379
 30
0.0000
  0
SEQEND
  8
0
  0
POLYLINE
  8
0
 66
1
 10
0.0000
 20
0.0000
 30
0.0000
 40
0.0500
 41
0.0500
 70
0
  0
VERTEX
  8
0
 10
-0.4750
 20
-0.2379
 30
0.0000
 42
1.0000
  0
VERTEX
  8
0
 10
-0.4250
 20
-0.2379
 30
0.0000
  0
SEQEND
  8
0
  0
ENDBLK
  8
0
  0
ENDSEC
  0
SECTION
  2
ENTITIES
  0
LINE
  8
20
 10
100.0000
 20
60.0000
 30
0.0000
 11
0.0000
 21
60.0000
 31
0.0000
  0
LINE
  8
20
 10
0.0000
 20
60.0000
 30
0.0000
 11
0.0000
 21
0.0000
 31
0.0000
  0
LINE
  8
20
 10
0.0000
 20
0.0000
 30
0.0000
 11
100.0000
 21
0.0000
 31
0.0000
  0
LINE
  8
20
 10
100.0000
 20
0.0000
 30
0.0000
 11
100.0000
 21
60.0000
 31
0.0000
  0
CIRCLE
  8
20
 10
97.0000
 20
3.0000
 30
0.0000
 40
1.6000
  0
CIRCLE
  8
20
 10
97.0000
 20
57.0000
 30
0.0000
 40
1.6000
  0
CIRCLE
  8
20
 10
3.0000
 20
57.0000
 30
0.0000
 40
1.6000
  0
CIRCLE
  8
20
 10
3.0000
 20
3.0000
 30
0.0000
 40
1.6000
  0
INSERT
  8
31
  2
RECT
 10
20.9000
 20
20.3500
 30
0.0000
 41
0.5000
 42
0.4000
 43
1.0000
 50
270.0000
  0
INSERT
  8
31
  2
RECT
 10
20.9000
 20
19.4500
 30
0.0000
 41
0.5000
 42
0.4000
 43
1.0000
 50
270.0000
  0
INSERT
  8
31
  2
RECT
 10
17.7500
 20
17.6000
 30
0.0000
 41
0.5000
 42
0.4000
 43
1.0000
 50
0.0000
  0
INSERT
  8
31
  2
RECT
 10
18.6500
 20
17.6000
 30
0.0000
 41
0.5000
 42
0.4000
 43
1.0000
 50
0.0000
  0
INSERT
  8
31
  2
RECT
 10
7.7000
 20
27.4500
 30
0.0000
 41
0.5000
 42
0.4000
 43
1.0000
 50
270.0000
  0
INSERT
  8
31
  2
RECT
 10
7.7000
 20
26.5500
 30
0.0000
 41
0.5000
 42
0.4000
 43
1.0000
 50
270.0000
  0
INSERT
  8
31
  2
RECT
 10
17.5000
 20
39.0500
 30
0.0000
 41
0.5000
 42
0.4000
 43
1.0000
 50
90.0000
  0
INSERT
  8
31
  2
RECT
 10
17.5000
 20
39.9500
 30
0.0000
 41
0.5000
 42
0.4000
 43
1.0000
 50
90.0000
  0
INSERT
  8
31
  2
RECT
 10
22.6500
 20
35.3000
 30
0.0000
 41
0.5000
 42
0.4000
 43
1.0000
 50
0.0000
  0
INSERT
  8
31
  2
RECT
 10
23.5500
 20
35.3000
 30
0.0000
 41
0.5000
 42
0.4000
 43
1.0000
 50
0.0000
  0
INSERT
  8
31
  2
RECT
 10
24.0000
 20
26.9500
 30
0.0000
 41
0.5000
 42
0.4000
 43
1.0000
 50
270.0000
  0
INSERT
  8
31
  2
RECT
 10
24.0000
 20
26.0500
 30
0.0000
 41
0.5000
 42
0.4000
 43
1.0000
 50
270.0000
  0
INSERT
  8
31
  2
RECT
 10
34.2000
 20
20.1500
 30
0.0000
 41
0.5000
 42
0.4000
 43
1.0000
 50
270.0000
  0
INSERT
  8
31
  2
RECT
 10
34.2000
 20
19.2500
 30
0.0000
 41
0.5000
 42
0.4000
 43
1.0000
 50
270.0000
  0
INSERT
  8
31
  2
RECT
 10
8.3000
 20
14.1500
 30
0.0000
 41
0.5000
 42
0.4000
 43
1.0000
 50
270.0000
  0
INSERT
  8
31
  2
RECT
 10
8.3000
 20
13.2500
 30
0.0000
 41
0.5000
 42
0.4000
 43
1.0000
 50
270.0000
  0
INSERT
  8
31
  2
RECT
 10
11.7000
 20
36.0000
 30
0.0000
 41
0.8000
 42
1.0000
 43
1.0000
 50
0.0000
  0
INSERT
  8
31
  2
RECT
 10
13.1000
 20
36.0000
 30
0.0000
 41
0.8000
 42
1.0000
 43
1.0000
 50
0.0000
  0
INSERT
  8
31
  2
RECT
 10
8.6000
 20
33.2000
 30
0.0000
 41
1.2000
 42
1.2000
 43
1.0000
 50
0.0000
  0
INSERT
  8
31
  2
RECT
 10
11.4000
 20
33.2000
 30
0.0000
 41
1.2000
 42
1.2000
 43
1.0000
 50
0.0000
  0
INSERT
  8
31
  2
RECT
 10
15.5500
 20
32.5000
 30
0.0000
 41
0.9000
 42
0.2500
 43
1.0000
 50
0.0000
  0
INSERT
  8
31
  2
RECT
 10
15.5500
 20
32.0000
 30
0.0000
 41
0.9000
 42
0.2500
 43
1.0000
 50
0.0000
  0
INSERT
  8
31
  2
RECT
 10
15.5500
 20
31.5000
 30
0.0000
 41
0.9000
 42
0.2500
 43
1.0000
 50
0.0000
  0
INSERT
  8
31
  2
RECT
 10
15.5500
 20
31.0000
 30
0.0000
 41
0.9000
 42
0.2500
 43
1.0000
 50
0.0000
  0
INSERT
  8
31
  2
RECT
 10
15.5500
 20
30.5000
 30
0.0000
 41
0.9000
 42
0.2500
 43
1.0000
 50
0.0000
  0
INSERT
  8
31
  2
RECT
 10
15.5500
 20
30.0000
 30
0.0000
 41
0.9000
 42
0.2500
 43
1.0000
 50
0.0000
  0
INSERT
  8
31
  2
RECT
 10
15.5500
 20
29.5000
 30
0.0000
 41
0.9000
 42
0.2500
 43
1.0000
 50
0.0000
  0
INSERT
  8
31
  2
RECT
 10
15.5500
 20
29.0000
 30
0.0000
 41
0.9000
 42
0.2500
 43
1.0000
 50
0.0000
  0
INSERT
  8
31
  2
RECT
 10
15.5500
 20
28.5000
 30
0.0000
 41
0.9000
 42
0.2500
 43
1.0000
 50
0.0000
  0
INSERT
  8
31
  2
RECT
 10
15.5500
 20
28.0000
 30
0.0000
 41
0.9000
 42
0.2500
 43
1.0000
 50
0.0000
  0
INSERT
  8
31
  2
RECT
 10
15.5500
 20
27.5000
 30
0.0000
 41
0.9000
 42
0.2500
 43
1.0000
 50
0.0000
  0
INSERT
  8
31
  2
RECT
 10
16.5000
 20
26.5500
 30
0.0000
 41
0.9000
 42
0.2500
 43
1.0000
 50
90.0000
  0
INSERT
  8
31
  2
RECT
 10
17.0000
 20
26.5500
 30
0.0000
 41
0.9000
 42
0.2500
 43
1.0000
 50
90.0000
  0
INSERT
  8
31
  2
RECT
 10
17.5000
 20
26.5500
 30
0.0000
 41
0.9000
 42
0.2500
 43
1.0000
 50
90.0000
  0
INSERT
  8
31
  2
RECT
 10
18.0000
 20
26.5500
 30
0.0000
 41
0.9000
 42
0.2500
 43
1.0000
 50
90.0000
  0
INSERT
  8
31
  2
RECT
 10
18.5000
 20
26.5500
 30
0.0000
 41
0.9000
 42
0.2500
 43
1.0000
 50
90.0000
  0
INSERT
  8
31
  2
RECT
 10
19.0000
 20
26.5500
 30
0.0000
 41
0.9000
 42
0.2500
 43
1.0000
 50
90.0000
  0
INSERT
  8
31
  2
RECT
 10
19.5000
 20
26.5500
 30
0.0000
 41
0.9000
 42
0.2500
 43
1.0000
 50
90.0000
  0
INSERT
  8
31
  2
RECT
 10
20.0000
 20
26.5500
 30
0.0000
 41
0.9000
 42
0.2500
 43
1.0000
 50
90.0000
  0
INSERT
  8
31
  2
RECT
 10
20.5000
 20
26.5500
 30
0.0000
 41
0.9000
 42
0.2500
 43
1.0000
 50
90.0000
  0
INSERT
  8
31
  2
RECT
 10
21.0000
 20
26.5500
 30
0.0000
 41
0.9000
 42
0.2500
 43
1.0000
 50
90.0000
  0
INSERT
  8
31
  2
RECT
 10
21.5000
 20
26.5500
 30
0.0000
 41
0.9000
 42
0.2500
 43
1.0000
 50
90.0000
  0
INSERT
  8
31
  2
RECT
 10
22.4500
 20
27.5000
 30
0.0000
 41
0.9000
 42
0.2500
 43
1.0000
 50
180.0000
  0
INSERT
  8
31
  2
RECT
 10
22.4500
 20
28.0000
 30
0.0000
 41
0.9000
 42
0.2500
 43
1.0000
 50
180.0000
  0
INSERT
  8
31
  2
RECT
 10
22.4500
 20
28.5000
 30
0.0000
 41
0.9000
 42
0.2500
 43
1.0000
 50
180.0000
  0
INSERT
  8
31
  2
RECT
 10
22.4500
 20
29.0000
 30
0.0000
 41
0.9000
 42
0.2500
 43
1.0000
 50
180.0000
  0
INSERT
  8
31
  2
RECT
 10
22.4500
 20
29.5000
 30
0.0000
 41
0.9000
 42
0.2500
 43
1.0000
 50
180.0000
  0
INSERT
  8
31
  2
RECT
 10
22.4500
 20
30.0000
 30
0.0000
 41
0.9000
 42
0.2500
 43
1.0000
 50
180.0000
  0
INSERT
  8
31
  2
RECT
 10
22.4500
 20
30.5000
 30
0.0000
 41
0.9000
 42
0.2500
 43
1.0000
 50
180.0000
  0
INSERT
  8
31
  2
RECT
 10
22.4500
 20
31.0000
 30
0.0000
 41
0.9000
 42
0.2500
 43
1.0000
 50
180.0000
  0
INSERT
  8
31
  2
RECT
 10
22.4500
 20
31.5000
 30
0.0000
 41
0.9000
 42
0.2500
 43
1.0000
 50
180.0000
  0
INSERT
  8
31
  2
RECT
 10
22.4500
 20
32.0000
 30
0.0000
 41
0.9000
 42
0.2500
 43
1.0000
 50
180.0000
  0
INSERT
  8
31
  2
RECT
 10
22.4500
 20
32.5000
 30
0.0000
 41
0.9000
 42
0.2500
 43
1.0000
 50
180.0000
  0
INSERT
  8
31
  2
RECT
 10
21.5000
 20
33.4500
 30
0.0000
 41
0.9000
 42
0.2500
 43
1.0000
 50
270.0000
  0
INSERT
  8
31
  2
RECT
 10
21.0000
 20
33.4500
 30
0.0000
 41
0.9000
 42
0.2500
 43
1.0000
 50
270.0000
  0
INSERT
  8
31
  2
RECT
 10
20.5000
 20
33.4500
 30
0.0000
 41
0.9000
 42
0.2500
 43
1.0000
 50
270.0000
  0
INSERT
  8
31
  2
RECT
 10
20.0000
 20
33.4500
 30
0.0000
 41
0.9000
 42
0.2500
 43
1.0000
 50
270.0000
  0
INSERT
  8
31
  2
RECT
 10
19.5000
 20
33.4500
 30
0.0000
 41
0.9000
 42
0.2500
 43
1.0000
 50
270.0000
  0
INSERT
  8
31
  2
RECT
 10
19.0000
 20
33.4500
 30
0.0000
 41
0.9000
 42
0.2500
 43
1.0000
 50
270.0000
  0
INSERT
  8
31
  2
RECT
 10
18.5000
 20
33.4500
 30
0.0000
 41
0.9000
 42
0.2500
 43
1.0000
 50
270.0000
  0
INSERT
  8
31
  2
RECT
 10
18.0000
 20
33.4500
 30
0.0000
 41
0.9000
 42
0.2500
 43
1.0000
 50
270.0000
  0
INSERT
  8
31
  2
RECT
 10
17.5000
 20
33.4500
 30
0.0000
 41
0.9000
 42
0.2500
 43
1.0000
 50
270.0000
  0
INSERT
  8
31
  2
RECT
 10
17.0000
 20
33.4500
 30
0.0000
 41
0.9000
 42
0.2500
 43
1.0000
 50
270.0000
  0
INSERT
  8
31
  2
RECT
 10
16.5000
 20
33.4500
 30
0.0000
 41
0.9000
 42
0.2500
 43
1.0000
 50
270.0000
  0
INSERT
  8
31
  2
RECT
 10
19.0000
 20
30.0000
 30
0.0000
 41
4.0000
 42
4.0000
 43
1.0000
 50
0.0000
  0
INSERT
  8
31
  2
RECT
 10
41.7678
 20
17.5250
 30
0.0000
 41
0.4500
 42
1.0500
 43
1.0000
 50
90.0000
  0
INSERT
  8
31
  2
RECT
 10
41.7678
 20
18.1750
 30
0.0000
 41
0.4500
 42
1.0500
 43
1.0000
 50
90.0000
  0
INSERT
  8
31
  2
RECT
 10
41.7678
 20
18.8250
 30
0.0000
 41
0.4500
 42
1.0500
 43
1.0000
 50
90.0000
  0
INSERT
  8
31
  2
RECT
 10
41.7678
 20
19.4750
 30
0.0000
 41
0.4500
 42
1.0500
 43
1.0000
 50
90.0000
  0
INSERT
  8
31
  2
RECT
 10
41.7678
 20
20.1250
 30
0.0000
 41
0.4500
 42
1.0500
 43
1.0000
 50
90.0000
  0
INSERT
  8
31
  2
RECT
 10
41.7678
 20
20.7750
 30
0.0000
 41
0.4500
 42
1.0500
 43
1.0000
 50
90.0000
  0
INSERT
  8
31
  2
RECT
 10
41.7678
 20
21.4250
 30
0.0000
 41
0.4500
 42
1.0500
 43
1.0000
 50
90.0000
  0
INSERT
  8
31
  2
RECT
 10
41.7678
 20
22.0750
 30
0.0000
 41
0.4500
 42
1.0500
 43
1.0000
 50
90.0000
  0
INSERT
  8
31
  2
RECT
 10
36.2322
 20
22.0750
 30
0.0000
 41
0.4500
 42
1.0500
 43
1.0000
 50
90.0000
  0
INSERT
  8
31
  2
RECT
 10
36.2322
 20
21.4250
 30
0.0000
 41
0.4500
 42
1.0500
 43
1.0000
 50
90.0000
  0
INSERT
  8
31
  2
RECT
 10
36.2322
 20
20.7750
 30
0.0000
 41
0.4500
 42
1.0500
 43
1.0000
 50
90.0000
  0
INSERT
  8
31
  2
RECT
 10
36.2322
 20
20.1250
 30
0.0000
 41
0.4500
 42
1.0500
 43
1.0000
 50
90.0000
  0
INSERT
  8
31
  2
RECT
 10
36.2322
 20
19.4750
 30
0.0000
 41
0.4500
 42
1.0500
 43
1.0000
 50
90.0000
  0
INSERT
  8
31
  2
RECT
 10
36.2322
 20
18.8250
 30
0.0000
 41
0.4500
 42
1.0500
 43
1.0000
 50
90.0000
  0
INSERT
  8
31
  2
RECT
 10
36.2322
 20
18.1750
 30
0.0000
 41
0.4500
 42
1.0500
 43
1.0000
 50
90.0000
  0
INSERT
  8
31
  2
RECT
 10
36.2322
 20
17.5250
 30
0.0000
 41
0.4500
 42
1.0500
 43
1.0000
 50
90.0000
  0
INSERT
  8
31
  2
RECT
 10
10.6000
 20
30.5000
 30
0.0000
 41
0.4000
 42
0.5000
 43
1.0000
 50
180.0000
  0
INSERT
  8
31
  2
RECT
 10
9.6000
 20
30.5000
 30
0.0000
 41
0.4000
 42
0.5000
 43
1.0000
 50
180.0000
  0
INSERT
  8
31
  2
RECT
 10
10.6000
 20
29.4000
 30
0.0000
 41
0.4000
 42
0.5000
 43
1.0000
 50
180.0000
  0
INSERT
  8
31
  2
RECT
 10
9.6000
 20
29.4000
 30
0.0000
 41
0.4000
 42
0.5000
 43
1.0000
 50
180.0000
  0
INSERT
  8
31
  2
RECT
 10
4.8750
 20
28.7000
 30
0.0000
 41
1.3500
 42
0.4000
 43
1.0000
 50
0.0000
  0
INSERT
  8
31
  2
RECT
 10
4.8750
 20
29.3500
 30
0.0000
 41
1.3500
 42
0.4000
 43
1.0000
 50
0.0000
  0
INSERT
  8
31
  2
RECT
 10
4.8750
 20
30.0000
 30
0.0000
 41
1.3500
 42
0.4000
 43
1.0000
 50
0.0000
  0
INSERT
  8
31
  2
RECT
 10
4.8750
 20
30.6500
 30
0.0000
 41
1.3500
 42
0.4000
 43
1.0000
 50
0.0000
  0
INSERT
  8
31
  2
RECT
 10
4.8750
 20
31.3000
 30
0.0000
 41
1.3500
 42
0.4000
 43
1.0000
 50
0.0000
  0
INSERT
  8
31
  2
RECT
 10
2.0500
 20
25.9000
 30
0.0000
 41
1.8000
 42
1.6000
 43
1.0000
 50
0.0000
  0
INSERT
  8
31
  2
RECT
 10
2.0500
 20
34.1000
 30
0.0000
 41
1.8000
 42
1.6000
 43
1.0000
 50
0.0000
  0
INSERT
  8
31
  2
RECT
 10
4.3500
 20
33.1000
 30
0.0000
 41
2.0000
 42
2.1000
 43
1.0000
 50
0.0000
  0
INSERT
  8
31
  2
RECT
 10
4.3500
 20
26.9000
 30
0.0000
 41
2.0000
 42
2.1000
 43
1.0000
 50
0.0000
  0
INSERT
  8
31
  2
RECT
 10
17.0000
 20
19.1000
 30
0.0000
 41
1.2000
 42
1.0000
 43
1.0000
 50
0.0000
  0
INSERT
  8
31
  2
RECT
 10
19.4000
 20
19.1000
 30
0.0000
 41
1.2000
 42
1.0000
 43
1.0000
 50
0.0000
  0
INSERT
  8
31
  2
RECT
 10
19.4000
 20
20.7000
 30
0.0000
 41
1.2000
 42
1.0000
 43
1.0000
 50
0.0000
  0
INSERT
  8
31
  2
RECT
 10
17.0000
 20
20.7000
 30
0.0000
 41
1.2000
 42
1.0000
 43
1.0000
 50
0.0000
  0
LINE
  8
19
 10
18.7000
 20
20.2000
 30
0.0000
 11
18.8000
 21
20.2000
 31
0.0000
  0
ENDSEC
  0
EOF
