G75*
%MOIN*%
%OFA0B0*%
%FSLAX25Y25*%
%IPPOS*%
%LPD*%
%AMOC8*
5,1,8,0,0,1.08239X$1,22.5*
%
%ADD10R,0.06000X0.06000*%
%ADD11C,0.06000*%
%ADD12R,0.03937X0.01969*%
%ADD13R,0.03150X0.03937*%
%ADD14R,0.03937X0.03150*%
%ADD15C,0.05937*%
%ADD16OC8,0.05600*%
%ADD17OC8,0.05200*%
%ADD18C,0.01575*%
%ADD19C,0.02775*%
%ADD20C,0.00984*%
%ADD21C,0.03562*%
%ADD22R,0.03562X0.03562*%
%ADD23OC8,0.02775*%
D10*
X0207299Y0052772D03*
X0382496Y0052772D03*
X0382496Y0115764D03*
X0382496Y0178756D03*
X0382496Y0241748D03*
X0122654Y0241748D03*
D11*
X0112811Y0241748D03*
X0102969Y0241748D03*
X0093126Y0241748D03*
X0274228Y0241748D03*
X0284071Y0241748D03*
X0293913Y0241748D03*
X0303756Y0241748D03*
X0313598Y0241748D03*
X0323441Y0241748D03*
X0333283Y0241748D03*
X0343126Y0241748D03*
X0352969Y0241748D03*
X0362811Y0241748D03*
X0372654Y0241748D03*
X0372654Y0178756D03*
X0362811Y0178756D03*
X0352969Y0178756D03*
X0343126Y0178756D03*
X0333283Y0178756D03*
X0323441Y0178756D03*
X0313598Y0178756D03*
X0303756Y0178756D03*
X0293913Y0178756D03*
X0284071Y0178756D03*
X0274228Y0178756D03*
X0274228Y0115764D03*
X0284071Y0115764D03*
X0293913Y0115764D03*
X0303756Y0115764D03*
X0313598Y0115764D03*
X0323441Y0115764D03*
X0333283Y0115764D03*
X0343126Y0115764D03*
X0352969Y0115764D03*
X0362811Y0115764D03*
X0372654Y0115764D03*
X0372654Y0052772D03*
X0362811Y0052772D03*
X0352969Y0052772D03*
X0343126Y0052772D03*
X0333283Y0052772D03*
X0323441Y0052772D03*
X0313598Y0052772D03*
X0303756Y0052772D03*
X0293913Y0052772D03*
X0284071Y0052772D03*
X0274228Y0052772D03*
X0197457Y0052772D03*
D12*
X0184031Y0161650D03*
X0184031Y0166650D03*
X0184031Y0171650D03*
X0184031Y0176650D03*
X0184031Y0181650D03*
X0184031Y0186650D03*
X0184031Y0191650D03*
X0184031Y0196650D03*
X0158520Y0196650D03*
X0158520Y0191650D03*
X0158520Y0186650D03*
X0158520Y0181650D03*
X0158520Y0176650D03*
X0158520Y0171650D03*
X0158520Y0166650D03*
X0158520Y0161650D03*
D13*
X0199622Y0166945D03*
X0205134Y0166945D03*
X0205134Y0176787D03*
X0199622Y0176787D03*
X0199622Y0186630D03*
X0205134Y0186630D03*
X0205134Y0196472D03*
X0199622Y0196472D03*
D14*
X0137811Y0060646D03*
X0137811Y0055134D03*
X0414976Y0065764D03*
X0414976Y0071276D03*
X0414976Y0128756D03*
X0414976Y0134268D03*
X0414976Y0191748D03*
X0414976Y0197260D03*
X0414976Y0223244D03*
X0414976Y0228756D03*
D15*
X0084425Y0104228D03*
X0084425Y0094228D03*
X0074425Y0094228D03*
X0064425Y0094228D03*
X0064425Y0104228D03*
X0074425Y0104228D03*
D16*
X0105764Y0061709D03*
X0115764Y0061709D03*
X0125764Y0061709D03*
X0125764Y0051709D03*
X0115764Y0051709D03*
X0105764Y0051709D03*
D17*
X0398165Y0052772D03*
X0408165Y0052772D03*
X0408165Y0115764D03*
X0398165Y0115764D03*
X0398165Y0178756D03*
X0408165Y0178756D03*
X0408165Y0241748D03*
X0398165Y0241748D03*
D18*
X0436811Y0030937D02*
X0046685Y0030937D01*
X0046685Y0263583D01*
X0436811Y0263583D01*
X0436811Y0030937D01*
X0436811Y0032296D02*
X0046685Y0032296D01*
X0046685Y0033870D02*
X0052697Y0033870D01*
X0052128Y0034105D02*
X0055100Y0032874D01*
X0058317Y0032874D01*
X0061289Y0034105D01*
X0063564Y0036380D01*
X0064795Y0039352D01*
X0064795Y0042569D01*
X0063564Y0045541D01*
X0061289Y0047816D01*
X0058317Y0049047D01*
X0055100Y0049047D01*
X0052128Y0047816D01*
X0049853Y0045541D01*
X0048622Y0042569D01*
X0048622Y0039352D01*
X0049853Y0036380D01*
X0052128Y0034105D01*
X0050790Y0035443D02*
X0046685Y0035443D01*
X0046685Y0037016D02*
X0049590Y0037016D01*
X0048938Y0038589D02*
X0046685Y0038589D01*
X0046685Y0040163D02*
X0048622Y0040163D01*
X0048622Y0041736D02*
X0046685Y0041736D01*
X0046685Y0043309D02*
X0048929Y0043309D01*
X0049580Y0044883D02*
X0046685Y0044883D01*
X0046685Y0046456D02*
X0050768Y0046456D01*
X0052643Y0048029D02*
X0046685Y0048029D01*
X0046685Y0049603D02*
X0101382Y0049603D01*
X0101176Y0049809D02*
X0103864Y0047121D01*
X0105651Y0047121D01*
X0105651Y0051596D01*
X0101176Y0051596D01*
X0101176Y0049809D01*
X0101176Y0051176D02*
X0046685Y0051176D01*
X0046685Y0052749D02*
X0101176Y0052749D01*
X0101176Y0053609D02*
X0101176Y0051821D01*
X0105651Y0051821D01*
X0105651Y0051596D01*
X0105876Y0051596D01*
X0105876Y0047121D01*
X0107664Y0047121D01*
X0110351Y0049809D01*
X0110351Y0051596D01*
X0105876Y0051596D01*
X0105876Y0051821D01*
X0105651Y0051821D01*
X0105651Y0056296D01*
X0103864Y0056296D01*
X0101176Y0053609D01*
X0101890Y0054323D02*
X0046685Y0054323D01*
X0046685Y0055896D02*
X0103464Y0055896D01*
X0103864Y0057121D02*
X0105651Y0057121D01*
X0105651Y0061596D01*
X0101176Y0061596D01*
X0101176Y0059809D01*
X0103864Y0057121D01*
X0103516Y0057469D02*
X0046685Y0057469D01*
X0046685Y0059043D02*
X0101942Y0059043D01*
X0101176Y0060616D02*
X0046685Y0060616D01*
X0046685Y0062189D02*
X0101176Y0062189D01*
X0101176Y0061821D02*
X0105651Y0061821D01*
X0105651Y0061596D01*
X0105876Y0061596D01*
X0105876Y0057121D01*
X0107664Y0057121D01*
X0110351Y0059809D01*
X0110351Y0061596D01*
X0105876Y0061596D01*
X0105876Y0061821D01*
X0105651Y0061821D01*
X0105651Y0066296D01*
X0103864Y0066296D01*
X0101176Y0063609D01*
X0101176Y0061821D01*
X0101330Y0063763D02*
X0046685Y0063763D01*
X0046685Y0065336D02*
X0102903Y0065336D01*
X0105651Y0065336D02*
X0105876Y0065336D01*
X0105876Y0066296D02*
X0107664Y0066296D01*
X0110351Y0063609D01*
X0110351Y0061821D01*
X0105876Y0061821D01*
X0105876Y0066296D01*
X0105876Y0063763D02*
X0105651Y0063763D01*
X0105651Y0062189D02*
X0105876Y0062189D01*
X0105876Y0060616D02*
X0105651Y0060616D01*
X0105651Y0059043D02*
X0105876Y0059043D01*
X0105876Y0057469D02*
X0105651Y0057469D01*
X0105876Y0056296D02*
X0107664Y0056296D01*
X0110351Y0053609D01*
X0110351Y0051821D01*
X0105876Y0051821D01*
X0105876Y0056296D01*
X0105876Y0055896D02*
X0105651Y0055896D01*
X0105651Y0054323D02*
X0105876Y0054323D01*
X0105876Y0052749D02*
X0105651Y0052749D01*
X0105651Y0051176D02*
X0105876Y0051176D01*
X0105876Y0049603D02*
X0105651Y0049603D01*
X0105651Y0048029D02*
X0105876Y0048029D01*
X0108572Y0048029D02*
X0112143Y0048029D01*
X0113626Y0046546D02*
X0110602Y0049570D01*
X0110602Y0053847D01*
X0113463Y0056709D01*
X0110602Y0059570D01*
X0110602Y0063847D01*
X0113626Y0066871D01*
X0116466Y0066871D01*
X0086339Y0089251D01*
X0085486Y0088898D01*
X0083365Y0088898D01*
X0081406Y0089709D01*
X0079906Y0091209D01*
X0079425Y0092370D01*
X0078944Y0091209D01*
X0077445Y0089709D01*
X0075486Y0088898D01*
X0073365Y0088898D01*
X0071406Y0089709D01*
X0069906Y0091209D01*
X0069094Y0093168D01*
X0069094Y0093307D01*
X0069064Y0093115D01*
X0068833Y0092403D01*
X0068493Y0091736D01*
X0068053Y0091130D01*
X0067523Y0090601D01*
X0066918Y0090161D01*
X0066251Y0089821D01*
X0065539Y0089590D01*
X0064799Y0089472D01*
X0064622Y0089472D01*
X0064622Y0094031D01*
X0064228Y0094031D01*
X0064228Y0089472D01*
X0064051Y0089472D01*
X0063312Y0089590D01*
X0062600Y0089821D01*
X0061933Y0090161D01*
X0061327Y0090601D01*
X0060798Y0091130D01*
X0060358Y0091736D01*
X0060018Y0092403D01*
X0059786Y0093115D01*
X0059669Y0093854D01*
X0059669Y0094031D01*
X0064228Y0094031D01*
X0064228Y0094425D01*
X0059669Y0094425D01*
X0059669Y0094603D01*
X0059786Y0095342D01*
X0060018Y0096054D01*
X0060358Y0096721D01*
X0060798Y0097327D01*
X0061327Y0097856D01*
X0061933Y0098296D01*
X0062600Y0098636D01*
X0063312Y0098867D01*
X0063504Y0098898D01*
X0063365Y0098898D01*
X0061406Y0099709D01*
X0059906Y0101209D01*
X0059094Y0103168D01*
X0059094Y0105289D01*
X0059906Y0107248D01*
X0061406Y0108747D01*
X0063365Y0109559D01*
X0065486Y0109559D01*
X0065651Y0109491D01*
X0071588Y0115428D01*
X0072637Y0115862D01*
X0086774Y0115862D01*
X0087433Y0116520D01*
X0088955Y0117151D01*
X0090261Y0117151D01*
X0080667Y0126745D01*
X0080232Y0127794D01*
X0080232Y0136017D01*
X0080667Y0137066D01*
X0081470Y0137869D01*
X0090131Y0146530D01*
X0091180Y0146965D01*
X0095587Y0146965D01*
X0095587Y0154097D01*
X0094928Y0154755D01*
X0094298Y0156278D01*
X0094298Y0157927D01*
X0094928Y0159449D01*
X0096094Y0160615D01*
X0096870Y0160936D01*
X0090525Y0167281D01*
X0089722Y0168084D01*
X0089287Y0169133D01*
X0089287Y0195859D01*
X0089722Y0196908D01*
X0090525Y0197711D01*
X0090525Y0197711D01*
X0144053Y0251239D01*
X0144856Y0252042D01*
X0145905Y0252476D01*
X0296450Y0252476D01*
X0297499Y0252042D01*
X0302506Y0247034D01*
X0302689Y0247110D01*
X0304823Y0247110D01*
X0306793Y0246294D01*
X0308302Y0244785D01*
X0308677Y0243879D01*
X0309053Y0244785D01*
X0310561Y0246294D01*
X0312532Y0247110D01*
X0314665Y0247110D01*
X0316636Y0246294D01*
X0318144Y0244785D01*
X0318520Y0243879D01*
X0318895Y0244785D01*
X0320403Y0246294D01*
X0322374Y0247110D01*
X0324508Y0247110D01*
X0326478Y0246294D01*
X0327987Y0244785D01*
X0328362Y0243879D01*
X0328738Y0244785D01*
X0330246Y0246294D01*
X0332217Y0247110D01*
X0334350Y0247110D01*
X0336321Y0246294D01*
X0337829Y0244785D01*
X0338205Y0243879D01*
X0338580Y0244785D01*
X0340089Y0246294D01*
X0342059Y0247110D01*
X0344193Y0247110D01*
X0346163Y0246294D01*
X0347672Y0244785D01*
X0348047Y0243879D01*
X0348423Y0244785D01*
X0349931Y0246294D01*
X0351902Y0247110D01*
X0354035Y0247110D01*
X0356006Y0246294D01*
X0357514Y0244785D01*
X0358215Y0243095D01*
X0358374Y0243586D01*
X0358716Y0244257D01*
X0359159Y0244867D01*
X0359692Y0245400D01*
X0360302Y0245843D01*
X0360973Y0246185D01*
X0361690Y0246418D01*
X0362434Y0246535D01*
X0362598Y0246535D01*
X0362598Y0241961D01*
X0363024Y0241961D01*
X0363024Y0246535D01*
X0363188Y0246535D01*
X0363932Y0246418D01*
X0364649Y0246185D01*
X0365320Y0245843D01*
X0365930Y0245400D01*
X0366463Y0244867D01*
X0366906Y0244257D01*
X0367248Y0243586D01*
X0367407Y0243095D01*
X0368108Y0244785D01*
X0369616Y0246294D01*
X0371587Y0247110D01*
X0373720Y0247110D01*
X0375691Y0246294D01*
X0377134Y0244851D01*
X0377134Y0245726D01*
X0378518Y0247110D01*
X0386475Y0247110D01*
X0387858Y0245726D01*
X0387858Y0237770D01*
X0386475Y0236386D01*
X0378518Y0236386D01*
X0377134Y0237770D01*
X0377134Y0238645D01*
X0375691Y0237202D01*
X0373720Y0236386D01*
X0371587Y0236386D01*
X0369616Y0237202D01*
X0368108Y0238711D01*
X0367407Y0240402D01*
X0367248Y0239910D01*
X0366906Y0239239D01*
X0366463Y0238629D01*
X0365930Y0238096D01*
X0365320Y0237653D01*
X0364649Y0237311D01*
X0363932Y0237079D01*
X0363188Y0236961D01*
X0363024Y0236961D01*
X0363024Y0241535D01*
X0362598Y0241535D01*
X0362598Y0236961D01*
X0362434Y0236961D01*
X0361690Y0237079D01*
X0360973Y0237311D01*
X0360302Y0237653D01*
X0359692Y0238096D01*
X0359159Y0238629D01*
X0358716Y0239239D01*
X0358374Y0239910D01*
X0358215Y0240402D01*
X0357514Y0238711D01*
X0356006Y0237202D01*
X0354035Y0236386D01*
X0351902Y0236386D01*
X0349931Y0237202D01*
X0348423Y0238711D01*
X0348047Y0239617D01*
X0347672Y0238711D01*
X0346163Y0237202D01*
X0345980Y0237126D01*
X0345980Y0217361D01*
X0345546Y0216312D01*
X0344743Y0215509D01*
X0341003Y0211769D01*
X0339954Y0211335D01*
X0294505Y0211335D01*
X0234474Y0151304D01*
X0234474Y0150373D01*
X0233843Y0148850D01*
X0232678Y0147684D01*
X0231155Y0147054D01*
X0229507Y0147054D01*
X0228075Y0147646D01*
X0241749Y0133972D01*
X0288969Y0133972D01*
X0290018Y0133538D01*
X0290821Y0132735D01*
X0302506Y0121050D01*
X0302689Y0121126D01*
X0304823Y0121126D01*
X0306793Y0120310D01*
X0308302Y0118801D01*
X0308677Y0117895D01*
X0309053Y0118801D01*
X0310561Y0120310D01*
X0312532Y0121126D01*
X0314665Y0121126D01*
X0316636Y0120310D01*
X0318144Y0118801D01*
X0318520Y0117895D01*
X0318895Y0118801D01*
X0320403Y0120310D01*
X0322374Y0121126D01*
X0324508Y0121126D01*
X0326478Y0120310D01*
X0327987Y0118801D01*
X0328362Y0117895D01*
X0328738Y0118801D01*
X0330246Y0120310D01*
X0332217Y0121126D01*
X0334350Y0121126D01*
X0336321Y0120310D01*
X0337829Y0118801D01*
X0338205Y0117895D01*
X0338580Y0118801D01*
X0340089Y0120310D01*
X0342059Y0121126D01*
X0344193Y0121126D01*
X0346163Y0120310D01*
X0347672Y0118801D01*
X0348047Y0117895D01*
X0348423Y0118801D01*
X0349931Y0120310D01*
X0351902Y0121126D01*
X0354035Y0121126D01*
X0356006Y0120310D01*
X0357514Y0118801D01*
X0358215Y0117110D01*
X0358374Y0117602D01*
X0358716Y0118273D01*
X0359159Y0118883D01*
X0359692Y0119415D01*
X0360302Y0119858D01*
X0360973Y0120200D01*
X0361690Y0120433D01*
X0362434Y0120551D01*
X0362598Y0120551D01*
X0362598Y0115976D01*
X0363024Y0115976D01*
X0363024Y0120551D01*
X0363188Y0120551D01*
X0363932Y0120433D01*
X0364649Y0120200D01*
X0365320Y0119858D01*
X0365930Y0119415D01*
X0366463Y0118883D01*
X0366906Y0118273D01*
X0367248Y0117602D01*
X0367407Y0117110D01*
X0368108Y0118801D01*
X0369616Y0120310D01*
X0371587Y0121126D01*
X0373720Y0121126D01*
X0375691Y0120310D01*
X0377134Y0118867D01*
X0377134Y0119742D01*
X0378518Y0121126D01*
X0386475Y0121126D01*
X0387858Y0119742D01*
X0387858Y0111785D01*
X0386475Y0110402D01*
X0378518Y0110402D01*
X0377134Y0111785D01*
X0377134Y0112661D01*
X0375691Y0111218D01*
X0373720Y0110402D01*
X0371587Y0110402D01*
X0369616Y0111218D01*
X0368108Y0112726D01*
X0367407Y0114417D01*
X0367248Y0113926D01*
X0366906Y0113255D01*
X0366463Y0112645D01*
X0365930Y0112112D01*
X0365320Y0111669D01*
X0364649Y0111327D01*
X0363932Y0111094D01*
X0363188Y0110976D01*
X0363024Y0110976D01*
X0363024Y0115551D01*
X0362598Y0115551D01*
X0362598Y0110976D01*
X0362434Y0110976D01*
X0361690Y0111094D01*
X0360973Y0111327D01*
X0360302Y0111669D01*
X0359692Y0112112D01*
X0359159Y0112645D01*
X0358716Y0113255D01*
X0358374Y0113926D01*
X0358215Y0114417D01*
X0357514Y0112726D01*
X0356006Y0111218D01*
X0354035Y0110402D01*
X0351902Y0110402D01*
X0349931Y0111218D01*
X0348423Y0112726D01*
X0348047Y0113633D01*
X0347672Y0112726D01*
X0346163Y0111218D01*
X0344193Y0110402D01*
X0342059Y0110402D01*
X0340089Y0111218D01*
X0338580Y0112726D01*
X0338205Y0113633D01*
X0337829Y0112726D01*
X0336321Y0111218D01*
X0334350Y0110402D01*
X0332217Y0110402D01*
X0330246Y0111218D01*
X0328738Y0112726D01*
X0328362Y0113633D01*
X0327987Y0112726D01*
X0326478Y0111218D01*
X0324508Y0110402D01*
X0322374Y0110402D01*
X0320403Y0111218D01*
X0318895Y0112726D01*
X0318520Y0113633D01*
X0318144Y0112726D01*
X0316636Y0111218D01*
X0314665Y0110402D01*
X0312532Y0110402D01*
X0310561Y0111218D01*
X0309053Y0112726D01*
X0308677Y0113633D01*
X0308302Y0112726D01*
X0306793Y0111218D01*
X0304823Y0110402D01*
X0302689Y0110402D01*
X0300718Y0111218D01*
X0299210Y0112726D01*
X0298835Y0113633D01*
X0298459Y0112726D01*
X0296951Y0111218D01*
X0294980Y0110402D01*
X0292847Y0110402D01*
X0290876Y0111218D01*
X0289368Y0112726D01*
X0288667Y0114417D01*
X0288508Y0113926D01*
X0288165Y0113255D01*
X0287722Y0112645D01*
X0287190Y0112112D01*
X0286580Y0111669D01*
X0285909Y0111327D01*
X0285192Y0111094D01*
X0284448Y0110976D01*
X0284283Y0110976D01*
X0284283Y0115551D01*
X0283858Y0115551D01*
X0283858Y0110976D01*
X0283694Y0110976D01*
X0282950Y0111094D01*
X0282233Y0111327D01*
X0281562Y0111669D01*
X0280952Y0112112D01*
X0280419Y0112645D01*
X0279976Y0113255D01*
X0279634Y0113926D01*
X0279475Y0114417D01*
X0278774Y0112726D01*
X0277266Y0111218D01*
X0275295Y0110402D01*
X0273162Y0110402D01*
X0271191Y0111218D01*
X0269682Y0112726D01*
X0268866Y0114697D01*
X0268866Y0116830D01*
X0269682Y0118801D01*
X0271191Y0120310D01*
X0273162Y0121126D01*
X0275295Y0121126D01*
X0277266Y0120310D01*
X0278774Y0118801D01*
X0279475Y0117110D01*
X0279634Y0117602D01*
X0279976Y0118273D01*
X0280419Y0118883D01*
X0280952Y0119415D01*
X0281562Y0119858D01*
X0282233Y0120200D01*
X0282950Y0120433D01*
X0283694Y0120551D01*
X0283858Y0120551D01*
X0283858Y0115976D01*
X0284283Y0115976D01*
X0284283Y0120551D01*
X0284448Y0120551D01*
X0285192Y0120433D01*
X0285215Y0120426D01*
X0281707Y0123933D01*
X0238031Y0123933D01*
X0236982Y0124368D01*
X0222384Y0138965D01*
X0222048Y0138629D01*
X0220525Y0137998D01*
X0218877Y0137998D01*
X0217354Y0138629D01*
X0216188Y0139795D01*
X0215557Y0141318D01*
X0215557Y0142966D01*
X0216188Y0144489D01*
X0217354Y0145654D01*
X0218877Y0146285D01*
X0220525Y0146285D01*
X0221956Y0145692D01*
X0219414Y0148235D01*
X0218483Y0148235D01*
X0216960Y0148865D01*
X0215795Y0150031D01*
X0215164Y0151554D01*
X0215164Y0153202D01*
X0215795Y0154725D01*
X0216960Y0155890D01*
X0218483Y0156521D01*
X0220131Y0156521D01*
X0221654Y0155890D01*
X0222820Y0154725D01*
X0223450Y0153202D01*
X0223450Y0152271D01*
X0226780Y0148941D01*
X0226187Y0150373D01*
X0226187Y0152021D01*
X0226818Y0153544D01*
X0227984Y0154709D01*
X0229507Y0155340D01*
X0230437Y0155340D01*
X0290903Y0215806D01*
X0291706Y0216609D01*
X0292755Y0217043D01*
X0338204Y0217043D01*
X0340272Y0219111D01*
X0340272Y0237126D01*
X0340089Y0237202D01*
X0338580Y0238711D01*
X0338205Y0239617D01*
X0337829Y0238711D01*
X0336321Y0237202D01*
X0334350Y0236386D01*
X0332217Y0236386D01*
X0330246Y0237202D01*
X0328738Y0238711D01*
X0328362Y0239617D01*
X0327987Y0238711D01*
X0326478Y0237202D01*
X0324508Y0236386D01*
X0322374Y0236386D01*
X0320403Y0237202D01*
X0318895Y0238711D01*
X0318520Y0239617D01*
X0318144Y0238711D01*
X0316636Y0237202D01*
X0314665Y0236386D01*
X0312532Y0236386D01*
X0310561Y0237202D01*
X0309053Y0238711D01*
X0308677Y0239617D01*
X0308302Y0238711D01*
X0306793Y0237202D01*
X0304823Y0236386D01*
X0302689Y0236386D01*
X0300718Y0237202D01*
X0299210Y0238711D01*
X0298835Y0239617D01*
X0298459Y0238711D01*
X0296951Y0237202D01*
X0294980Y0236386D01*
X0292847Y0236386D01*
X0290876Y0237202D01*
X0289368Y0238711D01*
X0288667Y0240402D01*
X0288508Y0239910D01*
X0288165Y0239239D01*
X0287722Y0238629D01*
X0287190Y0238096D01*
X0286580Y0237653D01*
X0285909Y0237311D01*
X0285192Y0237079D01*
X0284448Y0236961D01*
X0284283Y0236961D01*
X0284283Y0241535D01*
X0283858Y0241535D01*
X0283858Y0236961D01*
X0283694Y0236961D01*
X0282950Y0237079D01*
X0282233Y0237311D01*
X0281562Y0237653D01*
X0280952Y0238096D01*
X0280419Y0238629D01*
X0279976Y0239239D01*
X0279634Y0239910D01*
X0279475Y0240402D01*
X0278774Y0238711D01*
X0277266Y0237202D01*
X0275295Y0236386D01*
X0273162Y0236386D01*
X0271191Y0237202D01*
X0269682Y0238711D01*
X0268866Y0240681D01*
X0268866Y0242815D01*
X0269682Y0244785D01*
X0271191Y0246294D01*
X0272335Y0246768D01*
X0147655Y0246768D01*
X0094996Y0194109D01*
X0094996Y0170883D01*
X0096374Y0169505D01*
X0096374Y0189693D01*
X0096050Y0190018D01*
X0095479Y0191396D01*
X0095479Y0192888D01*
X0096050Y0194266D01*
X0097104Y0195320D01*
X0098482Y0195891D01*
X0099974Y0195891D01*
X0101352Y0195320D01*
X0102407Y0194266D01*
X0102978Y0192888D01*
X0102978Y0191396D01*
X0102407Y0190018D01*
X0102083Y0189693D01*
X0102083Y0187615D01*
X0108579Y0194111D01*
X0108579Y0201898D01*
X0107683Y0202793D01*
X0107683Y0205900D01*
X0109880Y0208096D01*
X0112986Y0208096D01*
X0115183Y0205900D01*
X0115183Y0202793D01*
X0114287Y0201898D01*
X0114287Y0192361D01*
X0113853Y0191312D01*
X0113050Y0190509D01*
X0105626Y0183085D01*
X0105626Y0169308D01*
X0106502Y0168432D01*
X0106502Y0168872D01*
X0107073Y0170250D01*
X0108128Y0171305D01*
X0109506Y0171876D01*
X0110998Y0171876D01*
X0112376Y0171305D01*
X0113431Y0170250D01*
X0114002Y0168872D01*
X0114002Y0168413D01*
X0114584Y0167831D01*
X0129432Y0167831D01*
X0130721Y0169120D01*
X0136240Y0169120D01*
X0137624Y0167736D01*
X0137624Y0162217D01*
X0136240Y0160833D01*
X0130721Y0160833D01*
X0129432Y0162122D01*
X0112834Y0162122D01*
X0112797Y0162137D01*
X0138640Y0136294D01*
X0139443Y0135491D01*
X0139878Y0134442D01*
X0139878Y0127794D01*
X0139443Y0126745D01*
X0138640Y0125942D01*
X0134310Y0121612D01*
X0133261Y0121177D01*
X0131598Y0121177D01*
X0130703Y0120282D01*
X0127596Y0120282D01*
X0125400Y0122478D01*
X0125400Y0125585D01*
X0127596Y0127781D01*
X0129940Y0127781D01*
X0129731Y0127990D01*
X0129731Y0129256D01*
X0127574Y0131413D01*
X0123070Y0131413D01*
X0122021Y0131848D01*
X0121218Y0132651D01*
X0120783Y0133700D01*
X0120783Y0141353D01*
X0109563Y0152574D01*
X0109563Y0134748D01*
X0109887Y0134423D01*
X0110458Y0133045D01*
X0110458Y0131553D01*
X0109887Y0130175D01*
X0108833Y0129120D01*
X0107455Y0128550D01*
X0105963Y0128550D01*
X0104585Y0129120D01*
X0103530Y0130175D01*
X0102959Y0131553D01*
X0102959Y0133045D01*
X0103530Y0134423D01*
X0103854Y0134748D01*
X0103854Y0141696D01*
X0102756Y0140598D01*
X0101234Y0139967D01*
X0099585Y0139967D01*
X0098062Y0140598D01*
X0097404Y0141256D01*
X0092930Y0141256D01*
X0089692Y0138017D01*
X0089816Y0138017D01*
X0091339Y0137387D01*
X0092339Y0136387D01*
X0092551Y0136599D01*
X0094073Y0137230D01*
X0095722Y0137230D01*
X0097245Y0136599D01*
X0098410Y0135434D01*
X0099041Y0133911D01*
X0099041Y0132262D01*
X0099020Y0132213D01*
X0115527Y0115706D01*
X0116200Y0115428D01*
X0120096Y0111531D01*
X0134267Y0111531D01*
X0153123Y0130388D01*
X0154172Y0130823D01*
X0172652Y0130823D01*
X0170881Y0132594D01*
X0150889Y0132594D01*
X0150565Y0132270D01*
X0149187Y0131699D01*
X0147695Y0131699D01*
X0146317Y0132270D01*
X0145262Y0133325D01*
X0144691Y0134703D01*
X0144691Y0136195D01*
X0145262Y0137573D01*
X0146317Y0138628D01*
X0147695Y0139198D01*
X0149187Y0139198D01*
X0150565Y0138628D01*
X0150889Y0138303D01*
X0172631Y0138303D01*
X0173680Y0137869D01*
X0183374Y0128175D01*
X0183832Y0128175D01*
X0185211Y0127604D01*
X0186265Y0126549D01*
X0186836Y0125171D01*
X0186836Y0123679D01*
X0186265Y0122301D01*
X0185732Y0121768D01*
X0186804Y0121768D01*
X0187853Y0121333D01*
X0188656Y0120530D01*
X0194004Y0115183D01*
X0194934Y0115183D01*
X0196457Y0114552D01*
X0197623Y0113386D01*
X0198254Y0111864D01*
X0198254Y0110215D01*
X0197623Y0108692D01*
X0196457Y0107527D01*
X0194934Y0106896D01*
X0193286Y0106896D01*
X0191763Y0107527D01*
X0190598Y0108692D01*
X0189967Y0110215D01*
X0189967Y0111146D01*
X0185054Y0116059D01*
X0181909Y0116059D01*
X0182505Y0114619D01*
X0182505Y0112971D01*
X0181875Y0111448D01*
X0180709Y0110283D01*
X0179922Y0109957D01*
X0180143Y0109423D01*
X0180143Y0107931D01*
X0179572Y0106553D01*
X0178518Y0105498D01*
X0177140Y0104928D01*
X0175648Y0104928D01*
X0174270Y0105498D01*
X0173945Y0105823D01*
X0168739Y0105823D01*
X0167690Y0106257D01*
X0160065Y0113883D01*
X0160065Y0113689D01*
X0174033Y0099720D01*
X0175520Y0099720D01*
X0175845Y0100045D01*
X0177223Y0100616D01*
X0178714Y0100616D01*
X0180092Y0100045D01*
X0181147Y0098990D01*
X0181718Y0097612D01*
X0181718Y0096120D01*
X0181147Y0094742D01*
X0180092Y0093687D01*
X0178714Y0093117D01*
X0177223Y0093117D01*
X0175845Y0093687D01*
X0175520Y0094012D01*
X0172283Y0094012D01*
X0171234Y0094446D01*
X0170431Y0095249D01*
X0156028Y0109652D01*
X0155569Y0109652D01*
X0154191Y0110223D01*
X0154051Y0110363D01*
X0154051Y0106710D01*
X0155815Y0104946D01*
X0156273Y0104946D01*
X0157652Y0104376D01*
X0158706Y0103321D01*
X0159277Y0101943D01*
X0159277Y0100451D01*
X0158706Y0099073D01*
X0157652Y0098018D01*
X0156273Y0097447D01*
X0154782Y0097447D01*
X0153404Y0098018D01*
X0152349Y0099073D01*
X0151778Y0100451D01*
X0151778Y0100910D01*
X0149580Y0103108D01*
X0149580Y0103108D01*
X0148777Y0103911D01*
X0148343Y0104960D01*
X0148343Y0111235D01*
X0139034Y0101927D01*
X0137985Y0101492D01*
X0114802Y0101492D01*
X0113753Y0101927D01*
X0112950Y0102730D01*
X0112950Y0102730D01*
X0087375Y0128305D01*
X0087375Y0128305D01*
X0086572Y0129108D01*
X0086138Y0130157D01*
X0086138Y0130869D01*
X0085941Y0131066D01*
X0085941Y0129545D01*
X0096121Y0119365D01*
X0096121Y0119365D01*
X0096924Y0118562D01*
X0097358Y0117513D01*
X0097358Y0103739D01*
X0096924Y0102690D01*
X0089687Y0095454D01*
X0089756Y0095289D01*
X0089756Y0093824D01*
X0126039Y0066871D01*
X0126889Y0066871D01*
X0143950Y0083932D01*
X0144999Y0084366D01*
X0147961Y0084366D01*
X0148285Y0084691D01*
X0149664Y0085261D01*
X0151155Y0085261D01*
X0152533Y0084691D01*
X0153588Y0083636D01*
X0154159Y0082258D01*
X0154159Y0080766D01*
X0153588Y0079388D01*
X0152533Y0078333D01*
X0151155Y0077762D01*
X0149664Y0077762D01*
X0148285Y0078333D01*
X0147961Y0078657D01*
X0146749Y0078657D01*
X0132655Y0064563D01*
X0134844Y0064563D01*
X0134864Y0064583D01*
X0140758Y0064583D01*
X0142142Y0063199D01*
X0142142Y0063106D01*
X0150977Y0063106D01*
X0152026Y0062672D01*
X0152829Y0061869D01*
X0159072Y0055626D01*
X0192835Y0055626D01*
X0192911Y0055809D01*
X0193318Y0056217D01*
X0176613Y0056217D01*
X0175564Y0056651D01*
X0168478Y0063738D01*
X0167675Y0064541D01*
X0167240Y0065590D01*
X0167240Y0081686D01*
X0167634Y0082636D01*
X0167634Y0083231D01*
X0166976Y0083889D01*
X0166345Y0085412D01*
X0166345Y0087060D01*
X0166976Y0088583D01*
X0168141Y0089749D01*
X0169664Y0090380D01*
X0171312Y0090380D01*
X0172835Y0089749D01*
X0174001Y0088583D01*
X0174631Y0087060D01*
X0174631Y0085412D01*
X0174001Y0083889D01*
X0173343Y0083231D01*
X0173343Y0080944D01*
X0172949Y0079994D01*
X0172949Y0067340D01*
X0178363Y0061925D01*
X0184070Y0061925D01*
X0178469Y0067526D01*
X0177538Y0067526D01*
X0176015Y0068157D01*
X0174850Y0069322D01*
X0174219Y0070845D01*
X0174219Y0072493D01*
X0174850Y0074016D01*
X0176015Y0075182D01*
X0177538Y0075813D01*
X0179186Y0075813D01*
X0180709Y0075182D01*
X0181875Y0074016D01*
X0182505Y0072493D01*
X0182505Y0071563D01*
X0188993Y0065075D01*
X0294875Y0065075D01*
X0295924Y0064640D01*
X0296727Y0063837D01*
X0302506Y0058058D01*
X0302689Y0058134D01*
X0304823Y0058134D01*
X0306793Y0057317D01*
X0308302Y0055809D01*
X0308677Y0054903D01*
X0309053Y0055809D01*
X0310561Y0057317D01*
X0312532Y0058134D01*
X0314665Y0058134D01*
X0316636Y0057317D01*
X0318144Y0055809D01*
X0318520Y0054903D01*
X0318895Y0055809D01*
X0320403Y0057317D01*
X0322374Y0058134D01*
X0324508Y0058134D01*
X0326478Y0057317D01*
X0327987Y0055809D01*
X0328362Y0054903D01*
X0328738Y0055809D01*
X0330246Y0057317D01*
X0332217Y0058134D01*
X0334350Y0058134D01*
X0336321Y0057317D01*
X0337829Y0055809D01*
X0338205Y0054903D01*
X0338580Y0055809D01*
X0340089Y0057317D01*
X0342059Y0058134D01*
X0344193Y0058134D01*
X0346163Y0057317D01*
X0347672Y0055809D01*
X0348047Y0054903D01*
X0348423Y0055809D01*
X0349931Y0057317D01*
X0351902Y0058134D01*
X0354035Y0058134D01*
X0356006Y0057317D01*
X0357514Y0055809D01*
X0358215Y0054118D01*
X0358374Y0054609D01*
X0358716Y0055281D01*
X0359159Y0055890D01*
X0359692Y0056423D01*
X0360302Y0056866D01*
X0360973Y0057208D01*
X0361690Y0057441D01*
X0362434Y0057559D01*
X0362598Y0057559D01*
X0362598Y0052984D01*
X0363024Y0052984D01*
X0363024Y0057559D01*
X0363188Y0057559D01*
X0363932Y0057441D01*
X0363955Y0057434D01*
X0338400Y0082988D01*
X0262834Y0082988D01*
X0261785Y0083423D01*
X0260982Y0084226D01*
X0260982Y0084226D01*
X0219700Y0125508D01*
X0202598Y0125508D01*
X0201548Y0125942D01*
X0200746Y0126745D01*
X0200746Y0126745D01*
X0193265Y0134226D01*
X0192831Y0135275D01*
X0192831Y0156314D01*
X0190349Y0158795D01*
X0187471Y0158795D01*
X0186978Y0158303D01*
X0181085Y0158303D01*
X0179701Y0159687D01*
X0179701Y0163612D01*
X0180238Y0164150D01*
X0179701Y0164687D01*
X0179701Y0168612D01*
X0180238Y0169150D01*
X0179701Y0169687D01*
X0179701Y0173612D01*
X0180238Y0174150D01*
X0179701Y0174687D01*
X0179701Y0178612D01*
X0180238Y0179150D01*
X0179701Y0179687D01*
X0179701Y0183612D01*
X0180238Y0184150D01*
X0179701Y0184687D01*
X0179701Y0188612D01*
X0180238Y0189150D01*
X0179701Y0189687D01*
X0179701Y0193612D01*
X0180238Y0194150D01*
X0179701Y0194687D01*
X0179701Y0198612D01*
X0181085Y0199996D01*
X0186978Y0199996D01*
X0187648Y0199327D01*
X0195685Y0199327D01*
X0195685Y0199419D01*
X0197069Y0200803D01*
X0202175Y0200803D01*
X0202378Y0200600D01*
X0202581Y0200803D01*
X0207687Y0200803D01*
X0209071Y0199419D01*
X0209071Y0193525D01*
X0207988Y0192443D01*
X0207988Y0190660D01*
X0209071Y0189577D01*
X0209071Y0183683D01*
X0207988Y0182600D01*
X0207988Y0180817D01*
X0209071Y0179734D01*
X0209071Y0173840D01*
X0207988Y0172758D01*
X0207988Y0170975D01*
X0209071Y0169892D01*
X0209071Y0163998D01*
X0207988Y0162915D01*
X0207988Y0154741D01*
X0208735Y0153995D01*
X0209169Y0152946D01*
X0209169Y0136061D01*
X0209277Y0135801D01*
X0209277Y0134309D01*
X0208706Y0132931D01*
X0207652Y0131876D01*
X0206273Y0131306D01*
X0204782Y0131306D01*
X0203889Y0131675D01*
X0204348Y0131217D01*
X0221450Y0131217D01*
X0222499Y0130782D01*
X0264584Y0088697D01*
X0340150Y0088697D01*
X0341200Y0088262D01*
X0371404Y0058058D01*
X0371587Y0058134D01*
X0373720Y0058134D01*
X0375691Y0057317D01*
X0377134Y0055875D01*
X0377134Y0056750D01*
X0378518Y0058134D01*
X0386475Y0058134D01*
X0387858Y0056750D01*
X0387858Y0048793D01*
X0386475Y0047409D01*
X0378518Y0047409D01*
X0377134Y0048793D01*
X0377134Y0049669D01*
X0375691Y0048226D01*
X0373720Y0047409D01*
X0371587Y0047409D01*
X0369616Y0048226D01*
X0368108Y0049734D01*
X0367407Y0051425D01*
X0367248Y0050934D01*
X0366906Y0050262D01*
X0366463Y0049653D01*
X0365930Y0049120D01*
X0365320Y0048677D01*
X0364649Y0048335D01*
X0363932Y0048102D01*
X0363188Y0047984D01*
X0363024Y0047984D01*
X0363024Y0052559D01*
X0362598Y0052559D01*
X0362598Y0047984D01*
X0362434Y0047984D01*
X0361690Y0048102D01*
X0360973Y0048335D01*
X0360302Y0048677D01*
X0359692Y0049120D01*
X0359159Y0049653D01*
X0358716Y0050262D01*
X0358374Y0050934D01*
X0358215Y0051425D01*
X0357514Y0049734D01*
X0356006Y0048226D01*
X0354035Y0047409D01*
X0351902Y0047409D01*
X0349931Y0048226D01*
X0348423Y0049734D01*
X0348047Y0050641D01*
X0347672Y0049734D01*
X0346163Y0048226D01*
X0344193Y0047409D01*
X0342059Y0047409D01*
X0340089Y0048226D01*
X0338580Y0049734D01*
X0338205Y0050641D01*
X0337829Y0049734D01*
X0336321Y0048226D01*
X0334350Y0047409D01*
X0332217Y0047409D01*
X0330246Y0048226D01*
X0328738Y0049734D01*
X0328362Y0050641D01*
X0327987Y0049734D01*
X0326478Y0048226D01*
X0324508Y0047409D01*
X0322374Y0047409D01*
X0320403Y0048226D01*
X0318895Y0049734D01*
X0318520Y0050641D01*
X0318144Y0049734D01*
X0316636Y0048226D01*
X0314665Y0047409D01*
X0312532Y0047409D01*
X0310561Y0048226D01*
X0309053Y0049734D01*
X0308677Y0050641D01*
X0308302Y0049734D01*
X0306793Y0048226D01*
X0304823Y0047409D01*
X0302689Y0047409D01*
X0300718Y0048226D01*
X0299210Y0049734D01*
X0298835Y0050641D01*
X0298459Y0049734D01*
X0296951Y0048226D01*
X0294980Y0047409D01*
X0292847Y0047409D01*
X0290876Y0048226D01*
X0289368Y0049734D01*
X0288667Y0051425D01*
X0288508Y0050934D01*
X0288165Y0050262D01*
X0287722Y0049653D01*
X0287190Y0049120D01*
X0286580Y0048677D01*
X0285909Y0048335D01*
X0285192Y0048102D01*
X0284448Y0047984D01*
X0284283Y0047984D01*
X0284283Y0052559D01*
X0283858Y0052559D01*
X0283858Y0047984D01*
X0283694Y0047984D01*
X0282950Y0048102D01*
X0282233Y0048335D01*
X0281562Y0048677D01*
X0280952Y0049120D01*
X0280419Y0049653D01*
X0279976Y0050262D01*
X0279634Y0050934D01*
X0279475Y0051425D01*
X0278774Y0049734D01*
X0277266Y0048226D01*
X0275295Y0047409D01*
X0273162Y0047409D01*
X0271191Y0048226D01*
X0269682Y0049734D01*
X0268866Y0051705D01*
X0268866Y0053838D01*
X0269682Y0055809D01*
X0270090Y0056217D01*
X0212030Y0056217D01*
X0212087Y0056007D01*
X0212087Y0052984D01*
X0207512Y0052984D01*
X0207512Y0052559D01*
X0212087Y0052559D01*
X0212087Y0049536D01*
X0211965Y0049082D01*
X0211729Y0048674D01*
X0211397Y0048341D01*
X0210989Y0048106D01*
X0210535Y0047984D01*
X0207512Y0047984D01*
X0207512Y0052559D01*
X0207087Y0052559D01*
X0207087Y0047984D01*
X0204064Y0047984D01*
X0203609Y0048106D01*
X0203202Y0048341D01*
X0202869Y0048674D01*
X0202634Y0049082D01*
X0202512Y0049536D01*
X0202512Y0050964D01*
X0202003Y0049734D01*
X0200494Y0048226D01*
X0198523Y0047409D01*
X0196390Y0047409D01*
X0194419Y0048226D01*
X0192911Y0049734D01*
X0192835Y0049917D01*
X0157322Y0049917D01*
X0156273Y0050352D01*
X0149227Y0057398D01*
X0141447Y0057398D01*
X0141446Y0057396D01*
X0141567Y0056944D01*
X0141567Y0055134D01*
X0137811Y0055134D01*
X0137811Y0055134D01*
X0134055Y0055134D01*
X0134055Y0056944D01*
X0134176Y0057396D01*
X0133480Y0058092D01*
X0133480Y0058854D01*
X0130210Y0058854D01*
X0128618Y0057263D01*
X0128618Y0056155D01*
X0130926Y0053847D01*
X0130926Y0049570D01*
X0127902Y0046546D01*
X0123626Y0046546D01*
X0120764Y0049408D01*
X0117902Y0046546D01*
X0113626Y0046546D01*
X0110602Y0049603D02*
X0110145Y0049603D01*
X0110351Y0051176D02*
X0110602Y0051176D01*
X0110602Y0052749D02*
X0110351Y0052749D01*
X0109637Y0054323D02*
X0111077Y0054323D01*
X0112651Y0055896D02*
X0108064Y0055896D01*
X0108012Y0057469D02*
X0112703Y0057469D01*
X0111129Y0059043D02*
X0109585Y0059043D01*
X0110351Y0060616D02*
X0110602Y0060616D01*
X0110602Y0062189D02*
X0110351Y0062189D01*
X0110197Y0063763D02*
X0110602Y0063763D01*
X0112091Y0065336D02*
X0108624Y0065336D01*
X0112179Y0070056D02*
X0046685Y0070056D01*
X0046685Y0071629D02*
X0110061Y0071629D01*
X0107943Y0073202D02*
X0046685Y0073202D01*
X0046685Y0074776D02*
X0105825Y0074776D01*
X0103707Y0076349D02*
X0046685Y0076349D01*
X0046685Y0077922D02*
X0101589Y0077922D01*
X0099471Y0079496D02*
X0046685Y0079496D01*
X0046685Y0081069D02*
X0097353Y0081069D01*
X0095235Y0082642D02*
X0046685Y0082642D01*
X0046685Y0084216D02*
X0093117Y0084216D01*
X0090999Y0085789D02*
X0046685Y0085789D01*
X0046685Y0087362D02*
X0088881Y0087362D01*
X0086764Y0088936D02*
X0085577Y0088936D01*
X0083273Y0088936D02*
X0075577Y0088936D01*
X0073273Y0088936D02*
X0046685Y0088936D01*
X0046685Y0090509D02*
X0061453Y0090509D01*
X0060181Y0092082D02*
X0046685Y0092082D01*
X0046685Y0093655D02*
X0059701Y0093655D01*
X0059768Y0095229D02*
X0046685Y0095229D01*
X0046685Y0096802D02*
X0060417Y0096802D01*
X0062089Y0098375D02*
X0046685Y0098375D01*
X0046685Y0099949D02*
X0061166Y0099949D01*
X0059776Y0101522D02*
X0046685Y0101522D01*
X0046685Y0103095D02*
X0059125Y0103095D01*
X0059094Y0104669D02*
X0046685Y0104669D01*
X0046685Y0106242D02*
X0059489Y0106242D01*
X0060473Y0107815D02*
X0046685Y0107815D01*
X0046685Y0109389D02*
X0062953Y0109389D01*
X0067122Y0110962D02*
X0046685Y0110962D01*
X0046685Y0112535D02*
X0068696Y0112535D01*
X0070269Y0114109D02*
X0046685Y0114109D01*
X0046685Y0115682D02*
X0072202Y0115682D01*
X0082290Y0125122D02*
X0046685Y0125122D01*
X0046685Y0126695D02*
X0080717Y0126695D01*
X0080232Y0128268D02*
X0046685Y0128268D01*
X0046685Y0129842D02*
X0080232Y0129842D01*
X0080232Y0131415D02*
X0046685Y0131415D01*
X0046685Y0132988D02*
X0080232Y0132988D01*
X0080232Y0134562D02*
X0046685Y0134562D01*
X0046685Y0136135D02*
X0080281Y0136135D01*
X0081309Y0137708D02*
X0046685Y0137708D01*
X0046685Y0139282D02*
X0082883Y0139282D01*
X0084456Y0140855D02*
X0046685Y0140855D01*
X0046685Y0142428D02*
X0086029Y0142428D01*
X0087603Y0144002D02*
X0046685Y0144002D01*
X0046685Y0145575D02*
X0089176Y0145575D01*
X0092529Y0140855D02*
X0097805Y0140855D01*
X0097709Y0136135D02*
X0103854Y0136135D01*
X0103854Y0137708D02*
X0090562Y0137708D01*
X0090956Y0139282D02*
X0103854Y0139282D01*
X0103854Y0140855D02*
X0103014Y0140855D01*
X0103668Y0134562D02*
X0098771Y0134562D01*
X0099041Y0132988D02*
X0102959Y0132988D01*
X0103016Y0131415D02*
X0099818Y0131415D01*
X0101392Y0129842D02*
X0103863Y0129842D01*
X0102965Y0128268D02*
X0129731Y0128268D01*
X0129145Y0129842D02*
X0109554Y0129842D01*
X0110401Y0131415D02*
X0123066Y0131415D01*
X0121078Y0132988D02*
X0110458Y0132988D01*
X0109749Y0134562D02*
X0120783Y0134562D01*
X0120783Y0136135D02*
X0109563Y0136135D01*
X0109563Y0137708D02*
X0120783Y0137708D01*
X0120783Y0139282D02*
X0109563Y0139282D01*
X0109563Y0140855D02*
X0120783Y0140855D01*
X0119708Y0142428D02*
X0109563Y0142428D01*
X0109563Y0144002D02*
X0118135Y0144002D01*
X0116562Y0145575D02*
X0109563Y0145575D01*
X0109563Y0147148D02*
X0114988Y0147148D01*
X0113415Y0148722D02*
X0109563Y0148722D01*
X0109563Y0150295D02*
X0111842Y0150295D01*
X0110268Y0151868D02*
X0109563Y0151868D01*
X0116773Y0158161D02*
X0137734Y0158161D01*
X0137605Y0157848D02*
X0137605Y0156357D01*
X0138176Y0154978D01*
X0138500Y0154654D01*
X0138500Y0152991D01*
X0138935Y0151942D01*
X0147596Y0143281D01*
X0148399Y0142478D01*
X0149448Y0142043D01*
X0162219Y0142043D01*
X0162408Y0141855D01*
X0162408Y0141396D01*
X0162979Y0140018D01*
X0164033Y0138963D01*
X0165412Y0138392D01*
X0166903Y0138392D01*
X0168281Y0138963D01*
X0169336Y0140018D01*
X0169907Y0141396D01*
X0169907Y0142888D01*
X0169336Y0144266D01*
X0168281Y0145320D01*
X0166903Y0145891D01*
X0166445Y0145891D01*
X0165018Y0147317D01*
X0163969Y0147752D01*
X0151198Y0147752D01*
X0144252Y0154698D01*
X0144533Y0154978D01*
X0145104Y0156357D01*
X0145104Y0157848D01*
X0144533Y0159226D01*
X0143478Y0160281D01*
X0142100Y0160852D01*
X0140608Y0160852D01*
X0139230Y0160281D01*
X0138176Y0159226D01*
X0137605Y0157848D01*
X0137605Y0156588D02*
X0118346Y0156588D01*
X0119919Y0155015D02*
X0138160Y0155015D01*
X0138500Y0153441D02*
X0121493Y0153441D01*
X0123066Y0151868D02*
X0139009Y0151868D01*
X0140582Y0150295D02*
X0124639Y0150295D01*
X0126213Y0148722D02*
X0142155Y0148722D01*
X0143729Y0147148D02*
X0127786Y0147148D01*
X0129359Y0145575D02*
X0145302Y0145575D01*
X0146875Y0144002D02*
X0130933Y0144002D01*
X0132506Y0142428D02*
X0148519Y0142428D01*
X0145398Y0137708D02*
X0137226Y0137708D01*
X0138799Y0136135D02*
X0144691Y0136135D01*
X0144750Y0134562D02*
X0139828Y0134562D01*
X0139878Y0132988D02*
X0145599Y0132988D01*
X0139878Y0131415D02*
X0172060Y0131415D01*
X0175413Y0136135D02*
X0192831Y0136135D01*
X0192831Y0137708D02*
X0173840Y0137708D01*
X0176987Y0134562D02*
X0193126Y0134562D01*
X0194503Y0132988D02*
X0178560Y0132988D01*
X0180133Y0131415D02*
X0196076Y0131415D01*
X0197649Y0129842D02*
X0181707Y0129842D01*
X0183280Y0128268D02*
X0199223Y0128268D01*
X0200796Y0126695D02*
X0186119Y0126695D01*
X0186836Y0125122D02*
X0220086Y0125122D01*
X0221659Y0123548D02*
X0186782Y0123548D01*
X0185939Y0121975D02*
X0223232Y0121975D01*
X0224806Y0120402D02*
X0188784Y0120402D01*
X0190358Y0118829D02*
X0226379Y0118829D01*
X0227952Y0117255D02*
X0191931Y0117255D01*
X0193504Y0115682D02*
X0229526Y0115682D01*
X0231099Y0114109D02*
X0196901Y0114109D01*
X0197975Y0112535D02*
X0232672Y0112535D01*
X0234245Y0110962D02*
X0198254Y0110962D01*
X0197911Y0109389D02*
X0235819Y0109389D01*
X0237392Y0107815D02*
X0196746Y0107815D01*
X0191475Y0107815D02*
X0180095Y0107815D01*
X0180143Y0109389D02*
X0190309Y0109389D01*
X0189967Y0110962D02*
X0181388Y0110962D01*
X0182325Y0112535D02*
X0188578Y0112535D01*
X0187004Y0114109D02*
X0182505Y0114109D01*
X0182065Y0115682D02*
X0185431Y0115682D01*
X0179261Y0106242D02*
X0238965Y0106242D01*
X0240539Y0104669D02*
X0169084Y0104669D01*
X0167727Y0106242D02*
X0167511Y0106242D01*
X0166132Y0107815D02*
X0165938Y0107815D01*
X0164559Y0109389D02*
X0164365Y0109389D01*
X0162986Y0110962D02*
X0162791Y0110962D01*
X0161412Y0112535D02*
X0161218Y0112535D01*
X0156291Y0109389D02*
X0154051Y0109389D01*
X0154051Y0107815D02*
X0157865Y0107815D01*
X0159438Y0106242D02*
X0154519Y0106242D01*
X0156944Y0104669D02*
X0161011Y0104669D01*
X0162585Y0103095D02*
X0158800Y0103095D01*
X0159277Y0101522D02*
X0164158Y0101522D01*
X0165731Y0099949D02*
X0159069Y0099949D01*
X0158009Y0098375D02*
X0167304Y0098375D01*
X0168878Y0096802D02*
X0091036Y0096802D01*
X0089756Y0095229D02*
X0170451Y0095229D01*
X0175921Y0093655D02*
X0089983Y0093655D01*
X0092101Y0092082D02*
X0253125Y0092082D01*
X0251552Y0093655D02*
X0180016Y0093655D01*
X0181349Y0095229D02*
X0249979Y0095229D01*
X0248405Y0096802D02*
X0181718Y0096802D01*
X0181402Y0098375D02*
X0246832Y0098375D01*
X0245259Y0099949D02*
X0180189Y0099949D01*
X0175748Y0099949D02*
X0173804Y0099949D01*
X0172231Y0101522D02*
X0243685Y0101522D01*
X0242112Y0103095D02*
X0170658Y0103095D01*
X0173648Y0088936D02*
X0256272Y0088936D01*
X0254699Y0090509D02*
X0094219Y0090509D01*
X0096337Y0088936D02*
X0167328Y0088936D01*
X0166470Y0087362D02*
X0098455Y0087362D01*
X0100572Y0085789D02*
X0166345Y0085789D01*
X0166840Y0084216D02*
X0153008Y0084216D01*
X0154000Y0082642D02*
X0167634Y0082642D01*
X0167240Y0081069D02*
X0154159Y0081069D01*
X0153633Y0079496D02*
X0167240Y0079496D01*
X0167240Y0077922D02*
X0151542Y0077922D01*
X0149277Y0077922D02*
X0146014Y0077922D01*
X0144441Y0076349D02*
X0167240Y0076349D01*
X0167240Y0074776D02*
X0142867Y0074776D01*
X0141294Y0073202D02*
X0167240Y0073202D01*
X0167240Y0071629D02*
X0139721Y0071629D01*
X0138148Y0070056D02*
X0167240Y0070056D01*
X0167240Y0068482D02*
X0136574Y0068482D01*
X0135001Y0066909D02*
X0167240Y0066909D01*
X0167345Y0065336D02*
X0133428Y0065336D01*
X0130074Y0070056D02*
X0121752Y0070056D01*
X0123870Y0068482D02*
X0128501Y0068482D01*
X0126928Y0066909D02*
X0125988Y0066909D01*
X0131648Y0071629D02*
X0119634Y0071629D01*
X0117516Y0073202D02*
X0133221Y0073202D01*
X0134794Y0074776D02*
X0115398Y0074776D01*
X0113280Y0076349D02*
X0136368Y0076349D01*
X0137941Y0077922D02*
X0111162Y0077922D01*
X0109044Y0079496D02*
X0139514Y0079496D01*
X0141087Y0081069D02*
X0106926Y0081069D01*
X0104808Y0082642D02*
X0142661Y0082642D01*
X0144636Y0084216D02*
X0102690Y0084216D01*
X0092609Y0098375D02*
X0153046Y0098375D01*
X0151986Y0099949D02*
X0094182Y0099949D01*
X0095756Y0101522D02*
X0114730Y0101522D01*
X0112585Y0103095D02*
X0097092Y0103095D01*
X0097358Y0104669D02*
X0111011Y0104669D01*
X0109438Y0106242D02*
X0097358Y0106242D01*
X0097358Y0107815D02*
X0107865Y0107815D01*
X0106291Y0109389D02*
X0097358Y0109389D01*
X0097358Y0110962D02*
X0104718Y0110962D01*
X0103145Y0112535D02*
X0097358Y0112535D01*
X0097358Y0114109D02*
X0101571Y0114109D01*
X0099998Y0115682D02*
X0097358Y0115682D01*
X0097358Y0117255D02*
X0098425Y0117255D01*
X0096851Y0118829D02*
X0096657Y0118829D01*
X0095278Y0120402D02*
X0095084Y0120402D01*
X0093705Y0121975D02*
X0093510Y0121975D01*
X0092131Y0123548D02*
X0091937Y0123548D01*
X0090558Y0125122D02*
X0090364Y0125122D01*
X0088985Y0126695D02*
X0088790Y0126695D01*
X0087411Y0128268D02*
X0087217Y0128268D01*
X0086268Y0129842D02*
X0085941Y0129842D01*
X0083864Y0123548D02*
X0046685Y0123548D01*
X0046685Y0121975D02*
X0085437Y0121975D01*
X0087010Y0120402D02*
X0046685Y0120402D01*
X0046685Y0118829D02*
X0088584Y0118829D01*
X0090157Y0117255D02*
X0046685Y0117255D01*
X0064228Y0093655D02*
X0064622Y0093655D01*
X0064622Y0092082D02*
X0064228Y0092082D01*
X0064228Y0090509D02*
X0064622Y0090509D01*
X0067397Y0090509D02*
X0070606Y0090509D01*
X0069544Y0092082D02*
X0068669Y0092082D01*
X0078244Y0090509D02*
X0080606Y0090509D01*
X0079544Y0092082D02*
X0079306Y0092082D01*
X0046685Y0068482D02*
X0114297Y0068482D01*
X0116414Y0066909D02*
X0046685Y0066909D01*
X0060775Y0048029D02*
X0102955Y0048029D01*
X0119385Y0048029D02*
X0122143Y0048029D01*
X0129385Y0048029D02*
X0194893Y0048029D01*
X0193042Y0049603D02*
X0130926Y0049603D01*
X0130926Y0051176D02*
X0155449Y0051176D01*
X0153875Y0052749D02*
X0141376Y0052749D01*
X0141445Y0052869D02*
X0141567Y0053324D01*
X0141567Y0055134D01*
X0137811Y0055134D01*
X0137811Y0055134D01*
X0134055Y0055134D01*
X0134055Y0053324D01*
X0134177Y0052869D01*
X0134412Y0052462D01*
X0134745Y0052129D01*
X0135153Y0051893D01*
X0135607Y0051772D01*
X0137811Y0051772D01*
X0140015Y0051772D01*
X0140469Y0051893D01*
X0140877Y0052129D01*
X0141210Y0052462D01*
X0141445Y0052869D01*
X0141567Y0054323D02*
X0152302Y0054323D01*
X0150729Y0055896D02*
X0141567Y0055896D01*
X0137811Y0055134D02*
X0137811Y0051772D01*
X0137811Y0055134D01*
X0137811Y0055134D01*
X0137811Y0054323D02*
X0137811Y0054323D01*
X0137811Y0052749D02*
X0137811Y0052749D01*
X0134246Y0052749D02*
X0130926Y0052749D01*
X0130450Y0054323D02*
X0134055Y0054323D01*
X0134055Y0055896D02*
X0128877Y0055896D01*
X0128825Y0057469D02*
X0134103Y0057469D01*
X0141578Y0063763D02*
X0168453Y0063763D01*
X0170026Y0062189D02*
X0152509Y0062189D01*
X0154082Y0060616D02*
X0171599Y0060616D01*
X0173173Y0059043D02*
X0155655Y0059043D01*
X0157229Y0057469D02*
X0174746Y0057469D01*
X0178099Y0062189D02*
X0183806Y0062189D01*
X0182232Y0063763D02*
X0176526Y0063763D01*
X0174953Y0065336D02*
X0180659Y0065336D01*
X0179086Y0066909D02*
X0173379Y0066909D01*
X0172949Y0068482D02*
X0175690Y0068482D01*
X0174546Y0070056D02*
X0172949Y0070056D01*
X0172949Y0071629D02*
X0174219Y0071629D01*
X0174513Y0073202D02*
X0172949Y0073202D01*
X0172949Y0074776D02*
X0175609Y0074776D01*
X0172949Y0076349D02*
X0345040Y0076349D01*
X0346613Y0074776D02*
X0181115Y0074776D01*
X0182212Y0073202D02*
X0348186Y0073202D01*
X0349759Y0071629D02*
X0182505Y0071629D01*
X0184012Y0070056D02*
X0351333Y0070056D01*
X0352906Y0068482D02*
X0185586Y0068482D01*
X0187159Y0066909D02*
X0354479Y0066909D01*
X0356053Y0065336D02*
X0188732Y0065336D01*
X0192998Y0055896D02*
X0158802Y0055896D01*
X0172949Y0077922D02*
X0343466Y0077922D01*
X0341893Y0079496D02*
X0172949Y0079496D01*
X0173343Y0081069D02*
X0340320Y0081069D01*
X0338746Y0082642D02*
X0173343Y0082642D01*
X0174136Y0084216D02*
X0260992Y0084216D01*
X0259419Y0085789D02*
X0174631Y0085789D01*
X0174506Y0087362D02*
X0257845Y0087362D01*
X0261199Y0092082D02*
X0332259Y0092082D01*
X0333816Y0090525D02*
X0334619Y0089722D01*
X0335668Y0089287D01*
X0392928Y0089287D01*
X0410646Y0071570D01*
X0410646Y0068722D01*
X0410848Y0068520D01*
X0410646Y0068317D01*
X0410646Y0063211D01*
X0412029Y0061827D01*
X0412122Y0061827D01*
X0412122Y0060765D01*
X0409091Y0057734D01*
X0406110Y0057734D01*
X0403203Y0054827D01*
X0403203Y0050716D01*
X0406110Y0047809D01*
X0410221Y0047809D01*
X0413128Y0050716D01*
X0413128Y0053697D01*
X0416593Y0057163D01*
X0417396Y0057966D01*
X0417831Y0059015D01*
X0417831Y0061827D01*
X0417923Y0061827D01*
X0419307Y0063211D01*
X0419307Y0068317D01*
X0419104Y0068520D01*
X0419307Y0068722D01*
X0419307Y0071570D01*
X0425255Y0077517D01*
X0426058Y0078320D01*
X0426492Y0079369D01*
X0426492Y0215150D01*
X0426058Y0216200D01*
X0419307Y0222950D01*
X0419307Y0225797D01*
X0419104Y0226000D01*
X0419307Y0226203D01*
X0419307Y0231309D01*
X0417923Y0232693D01*
X0417831Y0232693D01*
X0417831Y0235505D01*
X0417396Y0236554D01*
X0416593Y0237357D01*
X0413128Y0240822D01*
X0413128Y0243803D01*
X0410221Y0246710D01*
X0406110Y0246710D01*
X0403203Y0243803D01*
X0403203Y0239693D01*
X0406110Y0236786D01*
X0409091Y0236786D01*
X0412122Y0233755D01*
X0412122Y0232693D01*
X0412029Y0232693D01*
X0410646Y0231309D01*
X0410646Y0226203D01*
X0410848Y0226000D01*
X0410646Y0225797D01*
X0410646Y0220691D01*
X0412029Y0219307D01*
X0414877Y0219307D01*
X0420783Y0213400D01*
X0420783Y0200114D01*
X0419006Y0200114D01*
X0417923Y0201197D01*
X0412029Y0201197D01*
X0410646Y0199813D01*
X0410646Y0194707D01*
X0410848Y0194504D01*
X0410646Y0194301D01*
X0410646Y0189195D01*
X0412029Y0187811D01*
X0412122Y0187811D01*
X0412122Y0186749D01*
X0409091Y0183718D01*
X0406110Y0183718D01*
X0403203Y0180811D01*
X0403203Y0176700D01*
X0406110Y0173794D01*
X0410221Y0173794D01*
X0413128Y0176700D01*
X0413128Y0179681D01*
X0416593Y0183147D01*
X0417396Y0183950D01*
X0417831Y0184999D01*
X0417831Y0187811D01*
X0417923Y0187811D01*
X0419307Y0189195D01*
X0419307Y0194301D01*
X0419203Y0194406D01*
X0420783Y0194406D01*
X0420783Y0137122D01*
X0419006Y0137122D01*
X0417923Y0138205D01*
X0412029Y0138205D01*
X0410646Y0136821D01*
X0410646Y0131714D01*
X0410848Y0131512D01*
X0410646Y0131309D01*
X0410646Y0126203D01*
X0412029Y0124819D01*
X0412122Y0124819D01*
X0412122Y0123757D01*
X0409091Y0120726D01*
X0406110Y0120726D01*
X0403203Y0117819D01*
X0403203Y0113708D01*
X0406110Y0110802D01*
X0410221Y0110802D01*
X0413128Y0113708D01*
X0413128Y0116689D01*
X0416593Y0120155D01*
X0417396Y0120958D01*
X0417831Y0122007D01*
X0417831Y0124819D01*
X0417923Y0124819D01*
X0419307Y0126203D01*
X0419307Y0131309D01*
X0419203Y0131413D01*
X0420783Y0131413D01*
X0420783Y0081119D01*
X0414976Y0075312D01*
X0395727Y0094562D01*
X0394678Y0094996D01*
X0337419Y0094996D01*
X0323680Y0108735D01*
X0322631Y0109169D01*
X0265850Y0109169D01*
X0265526Y0109494D01*
X0264147Y0110065D01*
X0262656Y0110065D01*
X0261278Y0109494D01*
X0260223Y0108439D01*
X0259652Y0107061D01*
X0259652Y0105569D01*
X0260223Y0104191D01*
X0261278Y0103136D01*
X0262656Y0102565D01*
X0264147Y0102565D01*
X0265526Y0103136D01*
X0265850Y0103461D01*
X0320881Y0103461D01*
X0333816Y0090525D01*
X0333832Y0090509D02*
X0262772Y0090509D01*
X0264345Y0088936D02*
X0393280Y0088936D01*
X0394853Y0087362D02*
X0342100Y0087362D01*
X0343673Y0085789D02*
X0396426Y0085789D01*
X0398000Y0084216D02*
X0345246Y0084216D01*
X0346820Y0082642D02*
X0399573Y0082642D01*
X0401146Y0081069D02*
X0348393Y0081069D01*
X0349966Y0079496D02*
X0402720Y0079496D01*
X0404293Y0077922D02*
X0351539Y0077922D01*
X0353113Y0076349D02*
X0405866Y0076349D01*
X0407440Y0074776D02*
X0354686Y0074776D01*
X0356259Y0073202D02*
X0409013Y0073202D01*
X0410586Y0071629D02*
X0357833Y0071629D01*
X0359406Y0070056D02*
X0410646Y0070056D01*
X0410811Y0068482D02*
X0360979Y0068482D01*
X0362553Y0066909D02*
X0410646Y0066909D01*
X0410646Y0065336D02*
X0364126Y0065336D01*
X0365699Y0063763D02*
X0410646Y0063763D01*
X0411667Y0062189D02*
X0367273Y0062189D01*
X0368846Y0060616D02*
X0411973Y0060616D01*
X0410400Y0059043D02*
X0370419Y0059043D01*
X0375325Y0057469D02*
X0377853Y0057469D01*
X0377134Y0055896D02*
X0377113Y0055896D01*
X0377068Y0049603D02*
X0377134Y0049603D01*
X0377898Y0048029D02*
X0375217Y0048029D01*
X0370090Y0048029D02*
X0363473Y0048029D01*
X0363024Y0048029D02*
X0362598Y0048029D01*
X0362149Y0048029D02*
X0355532Y0048029D01*
X0357383Y0049603D02*
X0359210Y0049603D01*
X0358296Y0051176D02*
X0358112Y0051176D01*
X0358130Y0054323D02*
X0358281Y0054323D01*
X0357427Y0055896D02*
X0359165Y0055896D01*
X0361867Y0057469D02*
X0355640Y0057469D01*
X0350297Y0057469D02*
X0345797Y0057469D01*
X0347585Y0055896D02*
X0348510Y0055896D01*
X0340455Y0057469D02*
X0335955Y0057469D01*
X0337742Y0055896D02*
X0338667Y0055896D01*
X0330612Y0057469D02*
X0326112Y0057469D01*
X0327900Y0055896D02*
X0328824Y0055896D01*
X0320770Y0057469D02*
X0316269Y0057469D01*
X0318057Y0055896D02*
X0318982Y0055896D01*
X0310927Y0057469D02*
X0306427Y0057469D01*
X0308215Y0055896D02*
X0309139Y0055896D01*
X0301522Y0059043D02*
X0362346Y0059043D01*
X0362598Y0057469D02*
X0363024Y0057469D01*
X0363755Y0057469D02*
X0363919Y0057469D01*
X0363024Y0055896D02*
X0362598Y0055896D01*
X0362598Y0054323D02*
X0363024Y0054323D01*
X0363024Y0051176D02*
X0362598Y0051176D01*
X0362598Y0049603D02*
X0363024Y0049603D01*
X0366412Y0049603D02*
X0368239Y0049603D01*
X0367510Y0051176D02*
X0367326Y0051176D01*
X0360773Y0060616D02*
X0299948Y0060616D01*
X0298375Y0062189D02*
X0359199Y0062189D01*
X0357626Y0063763D02*
X0296802Y0063763D01*
X0288770Y0051176D02*
X0288586Y0051176D01*
X0289499Y0049603D02*
X0287672Y0049603D01*
X0284733Y0048029D02*
X0291350Y0048029D01*
X0296477Y0048029D02*
X0301193Y0048029D01*
X0299342Y0049603D02*
X0298328Y0049603D01*
X0306319Y0048029D02*
X0311035Y0048029D01*
X0309184Y0049603D02*
X0308170Y0049603D01*
X0316162Y0048029D02*
X0320878Y0048029D01*
X0319027Y0049603D02*
X0318013Y0049603D01*
X0326004Y0048029D02*
X0330720Y0048029D01*
X0328869Y0049603D02*
X0327855Y0049603D01*
X0335847Y0048029D02*
X0340563Y0048029D01*
X0338712Y0049603D02*
X0337698Y0049603D01*
X0345689Y0048029D02*
X0350405Y0048029D01*
X0348554Y0049603D02*
X0347540Y0049603D01*
X0387094Y0048029D02*
X0395890Y0048029D01*
X0396110Y0047809D02*
X0400221Y0047809D01*
X0403128Y0050716D01*
X0403128Y0054827D01*
X0400221Y0057734D01*
X0396110Y0057734D01*
X0393203Y0054827D01*
X0393203Y0050716D01*
X0396110Y0047809D01*
X0394317Y0049603D02*
X0387858Y0049603D01*
X0387858Y0051176D02*
X0393203Y0051176D01*
X0393203Y0052749D02*
X0387858Y0052749D01*
X0387858Y0054323D02*
X0393203Y0054323D01*
X0394272Y0055896D02*
X0387858Y0055896D01*
X0387139Y0057469D02*
X0395845Y0057469D01*
X0400485Y0057469D02*
X0405845Y0057469D01*
X0404272Y0055896D02*
X0402059Y0055896D01*
X0403128Y0054323D02*
X0403203Y0054323D01*
X0403203Y0052749D02*
X0403128Y0052749D01*
X0403128Y0051176D02*
X0403203Y0051176D01*
X0404317Y0049603D02*
X0402014Y0049603D01*
X0400441Y0048029D02*
X0405890Y0048029D01*
X0410441Y0048029D02*
X0422722Y0048029D01*
X0422207Y0047816D02*
X0419932Y0045541D01*
X0418701Y0042569D01*
X0418701Y0039352D01*
X0419932Y0036380D01*
X0422207Y0034105D01*
X0425179Y0032874D01*
X0428396Y0032874D01*
X0431368Y0034105D01*
X0433643Y0036380D01*
X0434874Y0039352D01*
X0434874Y0042569D01*
X0433643Y0045541D01*
X0431368Y0047816D01*
X0428396Y0049047D01*
X0425179Y0049047D01*
X0422207Y0047816D01*
X0420847Y0046456D02*
X0062649Y0046456D01*
X0063837Y0044883D02*
X0419659Y0044883D01*
X0419007Y0043309D02*
X0064489Y0043309D01*
X0064795Y0041736D02*
X0418701Y0041736D01*
X0418701Y0040163D02*
X0064795Y0040163D01*
X0064479Y0038589D02*
X0419017Y0038589D01*
X0419668Y0037016D02*
X0063828Y0037016D01*
X0062627Y0035443D02*
X0420869Y0035443D01*
X0422775Y0033870D02*
X0060721Y0033870D01*
X0138057Y0101522D02*
X0151166Y0101522D01*
X0149592Y0103095D02*
X0140203Y0103095D01*
X0141776Y0104669D02*
X0148463Y0104669D01*
X0148343Y0106242D02*
X0143349Y0106242D01*
X0144923Y0107815D02*
X0148343Y0107815D01*
X0148343Y0109389D02*
X0146496Y0109389D01*
X0148069Y0110962D02*
X0148343Y0110962D01*
X0141564Y0118829D02*
X0112405Y0118829D01*
X0110832Y0120402D02*
X0127477Y0120402D01*
X0125903Y0121975D02*
X0109258Y0121975D01*
X0107685Y0123548D02*
X0125400Y0123548D01*
X0125400Y0125122D02*
X0106112Y0125122D01*
X0104538Y0126695D02*
X0126510Y0126695D01*
X0130823Y0120402D02*
X0143137Y0120402D01*
X0144710Y0121975D02*
X0134673Y0121975D01*
X0136247Y0123548D02*
X0146284Y0123548D01*
X0147857Y0125122D02*
X0137820Y0125122D01*
X0139393Y0126695D02*
X0149430Y0126695D01*
X0151003Y0128268D02*
X0139878Y0128268D01*
X0139878Y0129842D02*
X0152577Y0129842D01*
X0163715Y0139282D02*
X0135653Y0139282D01*
X0134079Y0140855D02*
X0162632Y0140855D01*
X0168600Y0139282D02*
X0192831Y0139282D01*
X0192831Y0140855D02*
X0169683Y0140855D01*
X0169907Y0142428D02*
X0192831Y0142428D01*
X0192831Y0144002D02*
X0169446Y0144002D01*
X0167667Y0145575D02*
X0192831Y0145575D01*
X0192831Y0147148D02*
X0165188Y0147148D01*
X0155777Y0149917D02*
X0180475Y0149917D01*
X0181133Y0149259D01*
X0182656Y0148628D01*
X0184304Y0148628D01*
X0185827Y0149259D01*
X0186993Y0150425D01*
X0187624Y0151947D01*
X0187624Y0153596D01*
X0186993Y0155119D01*
X0185827Y0156284D01*
X0184304Y0156915D01*
X0182656Y0156915D01*
X0181133Y0156284D01*
X0180475Y0155626D01*
X0156564Y0155626D01*
X0155512Y0156678D01*
X0153990Y0157309D01*
X0152341Y0157309D01*
X0150818Y0156678D01*
X0149653Y0155512D01*
X0149022Y0153990D01*
X0149022Y0152341D01*
X0149653Y0150818D01*
X0150818Y0149653D01*
X0152341Y0149022D01*
X0153990Y0149022D01*
X0155512Y0149653D01*
X0155777Y0149917D01*
X0150176Y0150295D02*
X0148655Y0150295D01*
X0149218Y0151868D02*
X0147082Y0151868D01*
X0145509Y0153441D02*
X0149022Y0153441D01*
X0149447Y0155015D02*
X0144548Y0155015D01*
X0145104Y0156588D02*
X0150729Y0156588D01*
X0155602Y0156588D02*
X0181867Y0156588D01*
X0185094Y0156588D02*
X0192556Y0156588D01*
X0192831Y0155015D02*
X0187036Y0155015D01*
X0187624Y0153441D02*
X0192831Y0153441D01*
X0192831Y0151868D02*
X0187591Y0151868D01*
X0186863Y0150295D02*
X0192831Y0150295D01*
X0192831Y0148722D02*
X0184529Y0148722D01*
X0182431Y0148722D02*
X0150228Y0148722D01*
X0144974Y0158161D02*
X0190983Y0158161D01*
X0179933Y0164455D02*
X0162618Y0164455D01*
X0162850Y0164687D02*
X0162850Y0168612D01*
X0161907Y0169556D01*
X0161918Y0169568D01*
X0162154Y0169975D01*
X0162276Y0170430D01*
X0162276Y0171650D01*
X0162276Y0172869D01*
X0162154Y0173324D01*
X0161918Y0173731D01*
X0161907Y0173743D01*
X0162850Y0174687D01*
X0162850Y0178612D01*
X0161907Y0179556D01*
X0161918Y0179568D01*
X0162154Y0179975D01*
X0162276Y0180430D01*
X0162276Y0181650D01*
X0162276Y0182869D01*
X0162154Y0183324D01*
X0161918Y0183731D01*
X0161907Y0183743D01*
X0162850Y0184687D01*
X0162850Y0188612D01*
X0161907Y0189556D01*
X0161918Y0189568D01*
X0162154Y0189975D01*
X0162276Y0190430D01*
X0162276Y0191650D01*
X0162276Y0192869D01*
X0162154Y0193324D01*
X0161918Y0193731D01*
X0161907Y0193743D01*
X0162850Y0194687D01*
X0162850Y0198612D01*
X0161467Y0199996D01*
X0155573Y0199996D01*
X0154189Y0198612D01*
X0154189Y0194687D01*
X0155133Y0193743D01*
X0155121Y0193731D01*
X0154886Y0193324D01*
X0154764Y0192869D01*
X0154764Y0191650D01*
X0158520Y0191650D01*
X0162276Y0191650D01*
X0158520Y0191650D01*
X0158520Y0191650D01*
X0158520Y0191650D01*
X0154764Y0191650D01*
X0154764Y0190430D01*
X0154886Y0189975D01*
X0155121Y0189568D01*
X0155133Y0189556D01*
X0154189Y0188612D01*
X0154189Y0184687D01*
X0155133Y0183743D01*
X0155121Y0183731D01*
X0154886Y0183324D01*
X0154764Y0182869D01*
X0154764Y0181650D01*
X0158520Y0181650D01*
X0162276Y0181650D01*
X0158520Y0181650D01*
X0158520Y0181650D01*
X0158520Y0181650D01*
X0154764Y0181650D01*
X0154764Y0180430D01*
X0154886Y0179975D01*
X0155121Y0179568D01*
X0155133Y0179556D01*
X0154189Y0178612D01*
X0154189Y0174687D01*
X0155133Y0173743D01*
X0155121Y0173731D01*
X0154886Y0173324D01*
X0154764Y0172869D01*
X0154764Y0171650D01*
X0158520Y0171650D01*
X0162276Y0171650D01*
X0158520Y0171650D01*
X0158520Y0171650D01*
X0158520Y0171650D01*
X0154764Y0171650D01*
X0154764Y0170430D01*
X0154886Y0169975D01*
X0155121Y0169568D01*
X0155133Y0169556D01*
X0154189Y0168612D01*
X0154189Y0164687D01*
X0155133Y0163743D01*
X0155121Y0163731D01*
X0154886Y0163324D01*
X0154764Y0162869D01*
X0154764Y0161650D01*
X0158520Y0161650D01*
X0162276Y0161650D01*
X0162276Y0162869D01*
X0162154Y0163324D01*
X0161918Y0163731D01*
X0161907Y0163743D01*
X0162850Y0164687D01*
X0162850Y0166028D02*
X0179701Y0166028D01*
X0179701Y0167601D02*
X0162850Y0167601D01*
X0162288Y0169175D02*
X0180213Y0169175D01*
X0179701Y0170748D02*
X0162276Y0170748D01*
X0162276Y0172321D02*
X0179701Y0172321D01*
X0179983Y0173895D02*
X0162058Y0173895D01*
X0162850Y0175468D02*
X0179701Y0175468D01*
X0179701Y0177041D02*
X0162850Y0177041D01*
X0162848Y0178614D02*
X0179703Y0178614D01*
X0179701Y0180188D02*
X0162211Y0180188D01*
X0162276Y0181761D02*
X0179701Y0181761D01*
X0179701Y0183334D02*
X0162148Y0183334D01*
X0162850Y0184908D02*
X0179701Y0184908D01*
X0179701Y0186481D02*
X0162850Y0186481D01*
X0162850Y0188054D02*
X0179701Y0188054D01*
X0179760Y0189628D02*
X0161953Y0189628D01*
X0162276Y0191201D02*
X0179701Y0191201D01*
X0179701Y0192774D02*
X0162276Y0192774D01*
X0162511Y0194348D02*
X0180040Y0194348D01*
X0179701Y0195921D02*
X0162850Y0195921D01*
X0162850Y0197494D02*
X0179701Y0197494D01*
X0180156Y0199068D02*
X0162395Y0199068D01*
X0154644Y0199068D02*
X0114287Y0199068D01*
X0114287Y0200641D02*
X0196907Y0200641D01*
X0202338Y0200641D02*
X0202418Y0200641D01*
X0207849Y0200641D02*
X0242204Y0200641D01*
X0240631Y0202214D02*
X0114604Y0202214D01*
X0115183Y0203788D02*
X0239058Y0203788D01*
X0237484Y0205361D02*
X0115183Y0205361D01*
X0114148Y0206934D02*
X0235911Y0206934D01*
X0234338Y0208507D02*
X0109394Y0208507D01*
X0108718Y0206934D02*
X0107821Y0206934D01*
X0107683Y0205361D02*
X0106248Y0205361D01*
X0107683Y0203788D02*
X0104675Y0203788D01*
X0103101Y0202214D02*
X0108263Y0202214D01*
X0108579Y0200641D02*
X0101528Y0200641D01*
X0099955Y0199068D02*
X0108579Y0199068D01*
X0108579Y0197494D02*
X0098381Y0197494D01*
X0096808Y0195921D02*
X0108579Y0195921D01*
X0108579Y0194348D02*
X0102325Y0194348D01*
X0102978Y0192774D02*
X0107242Y0192774D01*
X0105668Y0191201D02*
X0102897Y0191201D01*
X0102083Y0189628D02*
X0104095Y0189628D01*
X0102522Y0188054D02*
X0102083Y0188054D01*
X0096374Y0188054D02*
X0094996Y0188054D01*
X0094996Y0186481D02*
X0096374Y0186481D01*
X0096374Y0184908D02*
X0094996Y0184908D01*
X0094996Y0183334D02*
X0096374Y0183334D01*
X0096374Y0181761D02*
X0094996Y0181761D01*
X0094996Y0180188D02*
X0096374Y0180188D01*
X0096374Y0178614D02*
X0094996Y0178614D01*
X0094996Y0177041D02*
X0096374Y0177041D01*
X0096374Y0175468D02*
X0094996Y0175468D01*
X0094996Y0173895D02*
X0096374Y0173895D01*
X0096374Y0172321D02*
X0094996Y0172321D01*
X0095131Y0170748D02*
X0096374Y0170748D01*
X0090205Y0167601D02*
X0046685Y0167601D01*
X0046685Y0166028D02*
X0091778Y0166028D01*
X0093351Y0164455D02*
X0046685Y0164455D01*
X0046685Y0162881D02*
X0094925Y0162881D01*
X0096498Y0161308D02*
X0046685Y0161308D01*
X0046685Y0159735D02*
X0095214Y0159735D01*
X0094395Y0158161D02*
X0046685Y0158161D01*
X0046685Y0156588D02*
X0094298Y0156588D01*
X0094821Y0155015D02*
X0046685Y0155015D01*
X0046685Y0153441D02*
X0095587Y0153441D01*
X0095587Y0151868D02*
X0046685Y0151868D01*
X0046685Y0150295D02*
X0095587Y0150295D01*
X0095587Y0148722D02*
X0046685Y0148722D01*
X0046685Y0147148D02*
X0095587Y0147148D01*
X0113626Y0161308D02*
X0130246Y0161308D01*
X0136715Y0161308D02*
X0154764Y0161308D01*
X0154764Y0161650D02*
X0154764Y0160430D01*
X0154886Y0159975D01*
X0155121Y0159568D01*
X0155454Y0159235D01*
X0155861Y0159000D01*
X0156316Y0158878D01*
X0158520Y0158878D01*
X0160723Y0158878D01*
X0161178Y0159000D01*
X0161586Y0159235D01*
X0161918Y0159568D01*
X0162154Y0159975D01*
X0162276Y0160430D01*
X0162276Y0161650D01*
X0158520Y0161650D01*
X0158520Y0161650D01*
X0158520Y0161650D01*
X0158520Y0161649D02*
X0158520Y0158878D01*
X0158520Y0161649D01*
X0158520Y0161649D01*
X0158520Y0161650D02*
X0154764Y0161650D01*
X0154767Y0162881D02*
X0137624Y0162881D01*
X0137624Y0164455D02*
X0147112Y0164455D01*
X0147301Y0164376D02*
X0148793Y0164376D01*
X0150171Y0164947D01*
X0151226Y0166002D01*
X0151797Y0167380D01*
X0151797Y0168872D01*
X0151226Y0170250D01*
X0150902Y0170574D01*
X0150902Y0192843D01*
X0151226Y0193167D01*
X0151797Y0194545D01*
X0151797Y0196037D01*
X0151226Y0197415D01*
X0150171Y0198470D01*
X0148793Y0199041D01*
X0147301Y0199041D01*
X0145923Y0198470D01*
X0144868Y0197415D01*
X0144298Y0196037D01*
X0144298Y0194545D01*
X0144868Y0193167D01*
X0145193Y0192843D01*
X0145193Y0170574D01*
X0144868Y0170250D01*
X0144298Y0168872D01*
X0144298Y0167380D01*
X0144868Y0166002D01*
X0145923Y0164947D01*
X0147301Y0164376D01*
X0148982Y0164455D02*
X0154421Y0164455D01*
X0154189Y0166028D02*
X0151237Y0166028D01*
X0151797Y0167601D02*
X0154189Y0167601D01*
X0154751Y0169175D02*
X0151671Y0169175D01*
X0150902Y0170748D02*
X0154764Y0170748D01*
X0154764Y0172321D02*
X0150902Y0172321D01*
X0150902Y0173895D02*
X0154981Y0173895D01*
X0154189Y0175468D02*
X0150902Y0175468D01*
X0150902Y0177041D02*
X0154189Y0177041D01*
X0154191Y0178614D02*
X0150902Y0178614D01*
X0150902Y0180188D02*
X0154829Y0180188D01*
X0154764Y0181761D02*
X0150902Y0181761D01*
X0150902Y0183334D02*
X0154892Y0183334D01*
X0154189Y0184908D02*
X0150902Y0184908D01*
X0150902Y0186481D02*
X0154189Y0186481D01*
X0154189Y0188054D02*
X0150902Y0188054D01*
X0150902Y0189628D02*
X0155086Y0189628D01*
X0154764Y0191201D02*
X0150902Y0191201D01*
X0150902Y0192774D02*
X0154764Y0192774D01*
X0154528Y0194348D02*
X0151715Y0194348D01*
X0151797Y0195921D02*
X0154189Y0195921D01*
X0154189Y0197494D02*
X0151147Y0197494D01*
X0144947Y0197494D02*
X0114287Y0197494D01*
X0114287Y0195921D02*
X0144298Y0195921D01*
X0144380Y0194348D02*
X0114287Y0194348D01*
X0114287Y0192774D02*
X0145193Y0192774D01*
X0145193Y0191201D02*
X0113742Y0191201D01*
X0112168Y0189628D02*
X0145193Y0189628D01*
X0145193Y0188054D02*
X0110595Y0188054D01*
X0109022Y0186481D02*
X0145193Y0186481D01*
X0145193Y0184908D02*
X0107448Y0184908D01*
X0105875Y0183334D02*
X0145193Y0183334D01*
X0145193Y0181761D02*
X0105626Y0181761D01*
X0105626Y0180188D02*
X0145193Y0180188D01*
X0145193Y0178614D02*
X0105626Y0178614D01*
X0105626Y0177041D02*
X0145193Y0177041D01*
X0145193Y0175468D02*
X0105626Y0175468D01*
X0105626Y0173895D02*
X0145193Y0173895D01*
X0145193Y0172321D02*
X0105626Y0172321D01*
X0105626Y0170748D02*
X0107571Y0170748D01*
X0106628Y0169175D02*
X0105760Y0169175D01*
X0112933Y0170748D02*
X0145193Y0170748D01*
X0144423Y0169175D02*
X0113876Y0169175D01*
X0115200Y0159735D02*
X0138684Y0159735D01*
X0144025Y0159735D02*
X0155025Y0159735D01*
X0158520Y0159735D02*
X0158520Y0159735D01*
X0158520Y0161308D02*
X0158520Y0161308D01*
X0162276Y0161308D02*
X0179701Y0161308D01*
X0179701Y0159735D02*
X0162015Y0159735D01*
X0162272Y0162881D02*
X0179701Y0162881D01*
X0207988Y0162881D02*
X0237979Y0162881D01*
X0239552Y0164455D02*
X0209071Y0164455D01*
X0209071Y0166028D02*
X0241125Y0166028D01*
X0242699Y0167601D02*
X0209071Y0167601D01*
X0209071Y0169175D02*
X0244272Y0169175D01*
X0245845Y0170748D02*
X0208215Y0170748D01*
X0207988Y0172321D02*
X0247418Y0172321D01*
X0248992Y0173895D02*
X0209071Y0173895D01*
X0209071Y0175468D02*
X0250565Y0175468D01*
X0252138Y0177041D02*
X0209071Y0177041D01*
X0209071Y0178614D02*
X0253712Y0178614D01*
X0255285Y0180188D02*
X0208617Y0180188D01*
X0207988Y0181761D02*
X0252107Y0181761D01*
X0251829Y0181876D02*
X0253207Y0181306D01*
X0254699Y0181306D01*
X0256077Y0181876D01*
X0257132Y0182931D01*
X0257702Y0184309D01*
X0257702Y0185801D01*
X0257132Y0187179D01*
X0256807Y0187504D01*
X0256807Y0193497D01*
X0256373Y0194546D01*
X0255570Y0195349D01*
X0233522Y0217396D01*
X0232473Y0217831D01*
X0196165Y0217831D01*
X0195841Y0218155D01*
X0194462Y0218726D01*
X0192971Y0218726D01*
X0191593Y0218155D01*
X0190538Y0217100D01*
X0189967Y0215722D01*
X0189967Y0214231D01*
X0190538Y0212852D01*
X0191593Y0211798D01*
X0192971Y0211227D01*
X0194462Y0211227D01*
X0195841Y0211798D01*
X0196165Y0212122D01*
X0230723Y0212122D01*
X0251098Y0191747D01*
X0251098Y0187504D01*
X0250774Y0187179D01*
X0250203Y0185801D01*
X0250203Y0184309D01*
X0250774Y0182931D01*
X0251829Y0181876D01*
X0250607Y0183334D02*
X0208722Y0183334D01*
X0209071Y0184908D02*
X0250203Y0184908D01*
X0250485Y0186481D02*
X0209071Y0186481D01*
X0209071Y0188054D02*
X0251098Y0188054D01*
X0251098Y0189628D02*
X0209020Y0189628D01*
X0207988Y0191201D02*
X0251098Y0191201D01*
X0250071Y0192774D02*
X0208320Y0192774D01*
X0209071Y0194348D02*
X0248498Y0194348D01*
X0246924Y0195921D02*
X0209071Y0195921D01*
X0209071Y0197494D02*
X0245351Y0197494D01*
X0243778Y0199068D02*
X0209071Y0199068D01*
X0195494Y0211654D02*
X0231191Y0211654D01*
X0232764Y0210081D02*
X0110968Y0210081D01*
X0112541Y0211654D02*
X0191939Y0211654D01*
X0190382Y0213227D02*
X0114114Y0213227D01*
X0115688Y0214801D02*
X0189967Y0214801D01*
X0190237Y0216374D02*
X0117261Y0216374D01*
X0118834Y0217947D02*
X0191385Y0217947D01*
X0196048Y0217947D02*
X0339108Y0217947D01*
X0340272Y0219521D02*
X0120408Y0219521D01*
X0121981Y0221094D02*
X0340272Y0221094D01*
X0340272Y0222667D02*
X0123554Y0222667D01*
X0125128Y0224241D02*
X0340272Y0224241D01*
X0340272Y0225814D02*
X0126701Y0225814D01*
X0128274Y0227387D02*
X0340272Y0227387D01*
X0340272Y0228961D02*
X0129848Y0228961D01*
X0131421Y0230534D02*
X0340272Y0230534D01*
X0340272Y0232107D02*
X0132994Y0232107D01*
X0134567Y0233680D02*
X0340272Y0233680D01*
X0340272Y0235254D02*
X0136141Y0235254D01*
X0137714Y0236827D02*
X0272096Y0236827D01*
X0269993Y0238400D02*
X0139287Y0238400D01*
X0140861Y0239974D02*
X0269159Y0239974D01*
X0268866Y0241547D02*
X0142434Y0241547D01*
X0144007Y0243120D02*
X0268993Y0243120D01*
X0269644Y0244694D02*
X0145581Y0244694D01*
X0147154Y0246267D02*
X0271164Y0246267D01*
X0276122Y0246768D02*
X0292020Y0246768D01*
X0290876Y0246294D01*
X0289368Y0244785D01*
X0288667Y0243095D01*
X0288508Y0243586D01*
X0288165Y0244257D01*
X0287722Y0244867D01*
X0287190Y0245400D01*
X0286580Y0245843D01*
X0285909Y0246185D01*
X0285192Y0246418D01*
X0284448Y0246535D01*
X0284283Y0246535D01*
X0284283Y0241961D01*
X0283858Y0241961D01*
X0283858Y0246535D01*
X0283694Y0246535D01*
X0282950Y0246418D01*
X0282233Y0246185D01*
X0281562Y0245843D01*
X0280952Y0245400D01*
X0280419Y0244867D01*
X0279976Y0244257D01*
X0279634Y0243586D01*
X0279475Y0243095D01*
X0278774Y0244785D01*
X0277266Y0246294D01*
X0276122Y0246768D01*
X0277293Y0246267D02*
X0282486Y0246267D01*
X0283858Y0246267D02*
X0284283Y0246267D01*
X0285655Y0246267D02*
X0290849Y0246267D01*
X0289330Y0244694D02*
X0287848Y0244694D01*
X0288659Y0243120D02*
X0288678Y0243120D01*
X0288528Y0239974D02*
X0288844Y0239974D01*
X0289678Y0238400D02*
X0287494Y0238400D01*
X0284283Y0238400D02*
X0283858Y0238400D01*
X0283858Y0239974D02*
X0284283Y0239974D01*
X0284283Y0243120D02*
X0283858Y0243120D01*
X0283858Y0244694D02*
X0284283Y0244694D01*
X0280293Y0244694D02*
X0278812Y0244694D01*
X0279464Y0243120D02*
X0279483Y0243120D01*
X0279614Y0239974D02*
X0279297Y0239974D01*
X0278464Y0238400D02*
X0280648Y0238400D01*
X0276360Y0236827D02*
X0291781Y0236827D01*
X0296045Y0236827D02*
X0301624Y0236827D01*
X0299520Y0238400D02*
X0298149Y0238400D01*
X0305888Y0236827D02*
X0311466Y0236827D01*
X0309363Y0238400D02*
X0307992Y0238400D01*
X0308340Y0244694D02*
X0309015Y0244694D01*
X0310534Y0246267D02*
X0306820Y0246267D01*
X0301700Y0247840D02*
X0421070Y0247840D01*
X0422207Y0246704D02*
X0425179Y0245472D01*
X0428396Y0245472D01*
X0431368Y0246704D01*
X0433643Y0248978D01*
X0434874Y0251951D01*
X0434874Y0255168D01*
X0433643Y0258140D01*
X0431368Y0260415D01*
X0428396Y0261646D01*
X0425179Y0261646D01*
X0422207Y0260415D01*
X0419932Y0258140D01*
X0418701Y0255168D01*
X0418701Y0251951D01*
X0419932Y0248978D01*
X0422207Y0246704D01*
X0423261Y0246267D02*
X0410664Y0246267D01*
X0412237Y0244694D02*
X0436811Y0244694D01*
X0436811Y0246267D02*
X0430314Y0246267D01*
X0432505Y0247840D02*
X0436811Y0247840D01*
X0436811Y0249414D02*
X0433823Y0249414D01*
X0434475Y0250987D02*
X0436811Y0250987D01*
X0436811Y0252560D02*
X0434874Y0252560D01*
X0434874Y0254134D02*
X0436811Y0254134D01*
X0436811Y0255707D02*
X0434651Y0255707D01*
X0433999Y0257280D02*
X0436811Y0257280D01*
X0436811Y0258854D02*
X0432929Y0258854D01*
X0431338Y0260427D02*
X0436811Y0260427D01*
X0436811Y0262000D02*
X0046685Y0262000D01*
X0046685Y0260427D02*
X0052158Y0260427D01*
X0052128Y0260415D02*
X0049853Y0258140D01*
X0048622Y0255168D01*
X0048622Y0251951D01*
X0049853Y0248978D01*
X0052128Y0246704D01*
X0055100Y0245472D01*
X0058317Y0245472D01*
X0061289Y0246704D01*
X0063564Y0248978D01*
X0064795Y0251951D01*
X0064795Y0255168D01*
X0063564Y0258140D01*
X0061289Y0260415D01*
X0058317Y0261646D01*
X0055100Y0261646D01*
X0052128Y0260415D01*
X0050567Y0258854D02*
X0046685Y0258854D01*
X0046685Y0257280D02*
X0049497Y0257280D01*
X0048845Y0255707D02*
X0046685Y0255707D01*
X0046685Y0254134D02*
X0048622Y0254134D01*
X0048622Y0252560D02*
X0046685Y0252560D01*
X0046685Y0250987D02*
X0049021Y0250987D01*
X0049673Y0249414D02*
X0046685Y0249414D01*
X0046685Y0247840D02*
X0050991Y0247840D01*
X0053182Y0246267D02*
X0046685Y0246267D01*
X0046685Y0244694D02*
X0088542Y0244694D01*
X0088580Y0244785D02*
X0087764Y0242815D01*
X0087764Y0240681D01*
X0088580Y0238711D01*
X0090089Y0237202D01*
X0092059Y0236386D01*
X0094193Y0236386D01*
X0096163Y0237202D01*
X0097672Y0238711D01*
X0098047Y0239617D01*
X0098423Y0238711D01*
X0099931Y0237202D01*
X0101902Y0236386D01*
X0104035Y0236386D01*
X0106006Y0237202D01*
X0107514Y0238711D01*
X0107890Y0239617D01*
X0108265Y0238711D01*
X0109774Y0237202D01*
X0111744Y0236386D01*
X0113878Y0236386D01*
X0115848Y0237202D01*
X0117357Y0238711D01*
X0117866Y0239940D01*
X0117866Y0238513D01*
X0117988Y0238058D01*
X0118223Y0237651D01*
X0118556Y0237318D01*
X0118964Y0237082D01*
X0119418Y0236961D01*
X0122441Y0236961D01*
X0122441Y0241535D01*
X0122866Y0241535D01*
X0122866Y0236961D01*
X0125889Y0236961D01*
X0126343Y0237082D01*
X0126751Y0237318D01*
X0127084Y0237651D01*
X0127319Y0238058D01*
X0127441Y0238513D01*
X0127441Y0241535D01*
X0122866Y0241535D01*
X0122866Y0241961D01*
X0122441Y0241961D01*
X0122441Y0246535D01*
X0119418Y0246535D01*
X0118964Y0246414D01*
X0118556Y0246178D01*
X0118223Y0245846D01*
X0117988Y0245438D01*
X0117866Y0244983D01*
X0117866Y0243556D01*
X0117357Y0244785D01*
X0115848Y0246294D01*
X0113878Y0247110D01*
X0111744Y0247110D01*
X0109774Y0246294D01*
X0108265Y0244785D01*
X0107890Y0243879D01*
X0107514Y0244785D01*
X0106006Y0246294D01*
X0104035Y0247110D01*
X0101902Y0247110D01*
X0099931Y0246294D01*
X0098423Y0244785D01*
X0098047Y0243879D01*
X0097672Y0244785D01*
X0096163Y0246294D01*
X0094193Y0247110D01*
X0092059Y0247110D01*
X0090089Y0246294D01*
X0088580Y0244785D01*
X0087890Y0243120D02*
X0046685Y0243120D01*
X0046685Y0241547D02*
X0087764Y0241547D01*
X0088057Y0239974D02*
X0046685Y0239974D01*
X0046685Y0238400D02*
X0088890Y0238400D01*
X0090994Y0236827D02*
X0046685Y0236827D01*
X0046685Y0235254D02*
X0128068Y0235254D01*
X0129641Y0236827D02*
X0114943Y0236827D01*
X0117047Y0238400D02*
X0117896Y0238400D01*
X0122441Y0238400D02*
X0122866Y0238400D01*
X0122866Y0239974D02*
X0122441Y0239974D01*
X0122866Y0241547D02*
X0134361Y0241547D01*
X0135934Y0243120D02*
X0127441Y0243120D01*
X0127441Y0241961D02*
X0127441Y0244983D01*
X0127319Y0245438D01*
X0127084Y0245846D01*
X0126751Y0246178D01*
X0126343Y0246414D01*
X0125889Y0246535D01*
X0122866Y0246535D01*
X0122866Y0241961D01*
X0127441Y0241961D01*
X0127441Y0239974D02*
X0132788Y0239974D01*
X0131214Y0238400D02*
X0127411Y0238400D01*
X0126494Y0233680D02*
X0046685Y0233680D01*
X0046685Y0232107D02*
X0124921Y0232107D01*
X0123348Y0230534D02*
X0046685Y0230534D01*
X0046685Y0228961D02*
X0121774Y0228961D01*
X0120201Y0227387D02*
X0046685Y0227387D01*
X0046685Y0225814D02*
X0118628Y0225814D01*
X0117054Y0224241D02*
X0046685Y0224241D01*
X0046685Y0222667D02*
X0115481Y0222667D01*
X0113908Y0221094D02*
X0046685Y0221094D01*
X0046685Y0219521D02*
X0112334Y0219521D01*
X0110761Y0217947D02*
X0046685Y0217947D01*
X0046685Y0216374D02*
X0109188Y0216374D01*
X0107614Y0214801D02*
X0046685Y0214801D01*
X0046685Y0213227D02*
X0106041Y0213227D01*
X0104468Y0211654D02*
X0046685Y0211654D01*
X0046685Y0210081D02*
X0102895Y0210081D01*
X0101321Y0208507D02*
X0046685Y0208507D01*
X0046685Y0206934D02*
X0099748Y0206934D01*
X0098175Y0205361D02*
X0046685Y0205361D01*
X0046685Y0203788D02*
X0096601Y0203788D01*
X0095028Y0202214D02*
X0046685Y0202214D01*
X0046685Y0200641D02*
X0093455Y0200641D01*
X0091881Y0199068D02*
X0046685Y0199068D01*
X0046685Y0197494D02*
X0090308Y0197494D01*
X0089313Y0195921D02*
X0046685Y0195921D01*
X0046685Y0194348D02*
X0089287Y0194348D01*
X0089287Y0192774D02*
X0046685Y0192774D01*
X0046685Y0191201D02*
X0089287Y0191201D01*
X0089287Y0189628D02*
X0046685Y0189628D01*
X0046685Y0188054D02*
X0089287Y0188054D01*
X0089287Y0186481D02*
X0046685Y0186481D01*
X0046685Y0184908D02*
X0089287Y0184908D01*
X0089287Y0183334D02*
X0046685Y0183334D01*
X0046685Y0181761D02*
X0089287Y0181761D01*
X0089287Y0180188D02*
X0046685Y0180188D01*
X0046685Y0178614D02*
X0089287Y0178614D01*
X0089287Y0177041D02*
X0046685Y0177041D01*
X0046685Y0175468D02*
X0089287Y0175468D01*
X0089287Y0173895D02*
X0046685Y0173895D01*
X0046685Y0172321D02*
X0089287Y0172321D01*
X0089287Y0170748D02*
X0046685Y0170748D01*
X0046685Y0169175D02*
X0089287Y0169175D01*
X0094996Y0189628D02*
X0096374Y0189628D01*
X0095559Y0191201D02*
X0094996Y0191201D01*
X0094996Y0192774D02*
X0095479Y0192774D01*
X0095235Y0194348D02*
X0096131Y0194348D01*
X0137624Y0167601D02*
X0144298Y0167601D01*
X0144858Y0166028D02*
X0137624Y0166028D01*
X0139990Y0117255D02*
X0113978Y0117255D01*
X0115586Y0115682D02*
X0138417Y0115682D01*
X0136844Y0114109D02*
X0117519Y0114109D01*
X0119092Y0112535D02*
X0135270Y0112535D01*
X0204149Y0131415D02*
X0204517Y0131415D01*
X0206538Y0131415D02*
X0229934Y0131415D01*
X0228361Y0132988D02*
X0208730Y0132988D01*
X0209277Y0134562D02*
X0226788Y0134562D01*
X0225214Y0136135D02*
X0209169Y0136135D01*
X0209169Y0137708D02*
X0223641Y0137708D01*
X0216701Y0139282D02*
X0209169Y0139282D01*
X0209169Y0140855D02*
X0215749Y0140855D01*
X0215557Y0142428D02*
X0209169Y0142428D01*
X0209169Y0144002D02*
X0215986Y0144002D01*
X0217274Y0145575D02*
X0209169Y0145575D01*
X0209169Y0147148D02*
X0220500Y0147148D01*
X0217308Y0148722D02*
X0209169Y0148722D01*
X0209169Y0150295D02*
X0215685Y0150295D01*
X0215164Y0151868D02*
X0209169Y0151868D01*
X0208964Y0153441D02*
X0215263Y0153441D01*
X0216084Y0155015D02*
X0207988Y0155015D01*
X0207988Y0156588D02*
X0231685Y0156588D01*
X0233259Y0158161D02*
X0207988Y0158161D01*
X0207988Y0159735D02*
X0234832Y0159735D01*
X0236405Y0161308D02*
X0207988Y0161308D01*
X0222530Y0155015D02*
X0228721Y0155015D01*
X0226776Y0153441D02*
X0223351Y0153441D01*
X0223854Y0151868D02*
X0226187Y0151868D01*
X0226220Y0150295D02*
X0225427Y0150295D01*
X0228573Y0147148D02*
X0229278Y0147148D01*
X0230147Y0145575D02*
X0316735Y0145575D01*
X0318308Y0147148D02*
X0231383Y0147148D01*
X0233715Y0148722D02*
X0319882Y0148722D01*
X0321455Y0150295D02*
X0234442Y0150295D01*
X0235039Y0151868D02*
X0323028Y0151868D01*
X0324602Y0153441D02*
X0236612Y0153441D01*
X0238185Y0155015D02*
X0326175Y0155015D01*
X0327748Y0156588D02*
X0239759Y0156588D01*
X0241332Y0158161D02*
X0329322Y0158161D01*
X0330895Y0159735D02*
X0242905Y0159735D01*
X0244479Y0161308D02*
X0332468Y0161308D01*
X0334042Y0162881D02*
X0246052Y0162881D01*
X0247625Y0164455D02*
X0335615Y0164455D01*
X0337188Y0166028D02*
X0249198Y0166028D01*
X0250772Y0167601D02*
X0338762Y0167601D01*
X0340272Y0169111D02*
X0313007Y0141846D01*
X0270344Y0141846D01*
X0269686Y0142505D01*
X0268163Y0143135D01*
X0266514Y0143135D01*
X0264992Y0142505D01*
X0263826Y0141339D01*
X0263195Y0139816D01*
X0263195Y0138168D01*
X0263826Y0136645D01*
X0264992Y0135480D01*
X0266514Y0134849D01*
X0268163Y0134849D01*
X0269686Y0135480D01*
X0270344Y0136138D01*
X0314757Y0136138D01*
X0315806Y0136572D01*
X0344743Y0165509D01*
X0345546Y0166312D01*
X0345980Y0167361D01*
X0345980Y0174134D01*
X0346163Y0174210D01*
X0347672Y0175718D01*
X0348047Y0176625D01*
X0348423Y0175718D01*
X0349931Y0174210D01*
X0351902Y0173394D01*
X0354035Y0173394D01*
X0356006Y0174210D01*
X0357514Y0175718D01*
X0358215Y0177409D01*
X0358374Y0176918D01*
X0358716Y0176247D01*
X0359159Y0175637D01*
X0359692Y0175104D01*
X0360302Y0174661D01*
X0360973Y0174319D01*
X0361690Y0174086D01*
X0362434Y0173969D01*
X0362598Y0173969D01*
X0362598Y0178543D01*
X0363024Y0178543D01*
X0363024Y0173969D01*
X0363188Y0173969D01*
X0363932Y0174086D01*
X0364649Y0174319D01*
X0365320Y0174661D01*
X0365930Y0175104D01*
X0366463Y0175637D01*
X0366906Y0176247D01*
X0367248Y0176918D01*
X0367407Y0177409D01*
X0368108Y0175718D01*
X0369616Y0174210D01*
X0371587Y0173394D01*
X0373720Y0173394D01*
X0375691Y0174210D01*
X0377134Y0175653D01*
X0377134Y0174777D01*
X0378518Y0173394D01*
X0386475Y0173394D01*
X0387858Y0174777D01*
X0387858Y0182734D01*
X0386475Y0184118D01*
X0378518Y0184118D01*
X0377134Y0182734D01*
X0377134Y0181859D01*
X0375691Y0183302D01*
X0373720Y0184118D01*
X0371587Y0184118D01*
X0369616Y0183302D01*
X0368108Y0181793D01*
X0367407Y0180102D01*
X0367248Y0180594D01*
X0366906Y0181265D01*
X0366463Y0181875D01*
X0365930Y0182408D01*
X0365320Y0182850D01*
X0364649Y0183193D01*
X0363932Y0183425D01*
X0363188Y0183543D01*
X0363024Y0183543D01*
X0363024Y0178969D01*
X0362598Y0178969D01*
X0362598Y0183543D01*
X0362434Y0183543D01*
X0361690Y0183425D01*
X0360973Y0183193D01*
X0360302Y0182850D01*
X0359692Y0182408D01*
X0359159Y0181875D01*
X0358716Y0181265D01*
X0358374Y0180594D01*
X0358215Y0180102D01*
X0357514Y0181793D01*
X0356006Y0183302D01*
X0354035Y0184118D01*
X0351902Y0184118D01*
X0349931Y0183302D01*
X0348423Y0181793D01*
X0348047Y0180887D01*
X0347672Y0181793D01*
X0346163Y0183302D01*
X0344193Y0184118D01*
X0342059Y0184118D01*
X0340089Y0183302D01*
X0338580Y0181793D01*
X0338205Y0180887D01*
X0337829Y0181793D01*
X0336321Y0183302D01*
X0334350Y0184118D01*
X0332217Y0184118D01*
X0330246Y0183302D01*
X0328738Y0181793D01*
X0328362Y0180887D01*
X0327987Y0181793D01*
X0326478Y0183302D01*
X0324508Y0184118D01*
X0322374Y0184118D01*
X0320403Y0183302D01*
X0318895Y0181793D01*
X0318520Y0180887D01*
X0318144Y0181793D01*
X0316636Y0183302D01*
X0314665Y0184118D01*
X0312532Y0184118D01*
X0310561Y0183302D01*
X0309053Y0181793D01*
X0308677Y0180887D01*
X0308302Y0181793D01*
X0306793Y0183302D01*
X0304823Y0184118D01*
X0302689Y0184118D01*
X0300718Y0183302D01*
X0299210Y0181793D01*
X0298835Y0180887D01*
X0298459Y0181793D01*
X0296951Y0183302D01*
X0294980Y0184118D01*
X0292847Y0184118D01*
X0290876Y0183302D01*
X0289368Y0181793D01*
X0288667Y0180102D01*
X0288508Y0180594D01*
X0288165Y0181265D01*
X0287722Y0181875D01*
X0287190Y0182408D01*
X0286580Y0182850D01*
X0285909Y0183193D01*
X0285192Y0183425D01*
X0284448Y0183543D01*
X0284283Y0183543D01*
X0284283Y0178969D01*
X0283858Y0178969D01*
X0283858Y0183543D01*
X0283694Y0183543D01*
X0282950Y0183425D01*
X0282233Y0183193D01*
X0281562Y0182850D01*
X0280952Y0182408D01*
X0280419Y0181875D01*
X0279976Y0181265D01*
X0279634Y0180594D01*
X0279475Y0180102D01*
X0278774Y0181793D01*
X0277266Y0183302D01*
X0275295Y0184118D01*
X0273162Y0184118D01*
X0271191Y0183302D01*
X0269682Y0181793D01*
X0268866Y0179823D01*
X0268866Y0177689D01*
X0269682Y0175718D01*
X0271191Y0174210D01*
X0273162Y0173394D01*
X0275295Y0173394D01*
X0277266Y0174210D01*
X0278774Y0175718D01*
X0279475Y0177409D01*
X0279634Y0176918D01*
X0279976Y0176247D01*
X0280419Y0175637D01*
X0280952Y0175104D01*
X0281562Y0174661D01*
X0282233Y0174319D01*
X0282950Y0174086D01*
X0283694Y0173969D01*
X0283858Y0173969D01*
X0283858Y0178543D01*
X0284283Y0178543D01*
X0284283Y0173969D01*
X0284448Y0173969D01*
X0285192Y0174086D01*
X0285909Y0174319D01*
X0286580Y0174661D01*
X0287190Y0175104D01*
X0287722Y0175637D01*
X0288165Y0176247D01*
X0288508Y0176918D01*
X0288667Y0177409D01*
X0289368Y0175718D01*
X0290876Y0174210D01*
X0292847Y0173394D01*
X0294980Y0173394D01*
X0296951Y0174210D01*
X0298459Y0175718D01*
X0298835Y0176625D01*
X0299210Y0175718D01*
X0300718Y0174210D01*
X0302689Y0173394D01*
X0304823Y0173394D01*
X0306793Y0174210D01*
X0308302Y0175718D01*
X0308677Y0176625D01*
X0309053Y0175718D01*
X0310561Y0174210D01*
X0312532Y0173394D01*
X0314665Y0173394D01*
X0316636Y0174210D01*
X0318144Y0175718D01*
X0318520Y0176625D01*
X0318895Y0175718D01*
X0320403Y0174210D01*
X0322374Y0173394D01*
X0324508Y0173394D01*
X0326478Y0174210D01*
X0327987Y0175718D01*
X0328362Y0176625D01*
X0328738Y0175718D01*
X0330246Y0174210D01*
X0332217Y0173394D01*
X0334350Y0173394D01*
X0336321Y0174210D01*
X0337829Y0175718D01*
X0338205Y0176625D01*
X0338580Y0175718D01*
X0340089Y0174210D01*
X0340272Y0174134D01*
X0340272Y0169111D01*
X0340272Y0169175D02*
X0252345Y0169175D01*
X0253918Y0170748D02*
X0340272Y0170748D01*
X0340272Y0172321D02*
X0255492Y0172321D01*
X0257065Y0173895D02*
X0271953Y0173895D01*
X0269933Y0175468D02*
X0258638Y0175468D01*
X0260212Y0177041D02*
X0269135Y0177041D01*
X0268866Y0178614D02*
X0261785Y0178614D01*
X0263358Y0180188D02*
X0269017Y0180188D01*
X0269669Y0181761D02*
X0264932Y0181761D01*
X0266505Y0183334D02*
X0271270Y0183334D01*
X0269652Y0186481D02*
X0411854Y0186481D01*
X0411786Y0188054D02*
X0271225Y0188054D01*
X0272798Y0189628D02*
X0410646Y0189628D01*
X0410646Y0191201D02*
X0274371Y0191201D01*
X0275945Y0192774D02*
X0410646Y0192774D01*
X0410692Y0194348D02*
X0277518Y0194348D01*
X0279091Y0195921D02*
X0410646Y0195921D01*
X0410646Y0197494D02*
X0280665Y0197494D01*
X0282238Y0199068D02*
X0410646Y0199068D01*
X0411473Y0200641D02*
X0283811Y0200641D01*
X0285385Y0202214D02*
X0420783Y0202214D01*
X0420783Y0200641D02*
X0418479Y0200641D01*
X0420783Y0203788D02*
X0286958Y0203788D01*
X0288531Y0205361D02*
X0420783Y0205361D01*
X0420783Y0206934D02*
X0290105Y0206934D01*
X0291678Y0208507D02*
X0420783Y0208507D01*
X0420783Y0210081D02*
X0293251Y0210081D01*
X0289898Y0214801D02*
X0236118Y0214801D01*
X0234544Y0216374D02*
X0291471Y0216374D01*
X0288325Y0213227D02*
X0237691Y0213227D01*
X0239264Y0211654D02*
X0286751Y0211654D01*
X0285178Y0210081D02*
X0240838Y0210081D01*
X0242411Y0208507D02*
X0283605Y0208507D01*
X0282031Y0206934D02*
X0243984Y0206934D01*
X0245558Y0205361D02*
X0280458Y0205361D01*
X0278885Y0203788D02*
X0247131Y0203788D01*
X0248704Y0202214D02*
X0277311Y0202214D01*
X0275738Y0200641D02*
X0250278Y0200641D01*
X0251851Y0199068D02*
X0274165Y0199068D01*
X0272591Y0197494D02*
X0253424Y0197494D01*
X0254998Y0195921D02*
X0271018Y0195921D01*
X0269445Y0194348D02*
X0256455Y0194348D01*
X0256807Y0192774D02*
X0267872Y0192774D01*
X0266298Y0191201D02*
X0256807Y0191201D01*
X0256807Y0189628D02*
X0264725Y0189628D01*
X0263152Y0188054D02*
X0256807Y0188054D01*
X0257421Y0186481D02*
X0261578Y0186481D01*
X0260005Y0184908D02*
X0257702Y0184908D01*
X0257299Y0183334D02*
X0258432Y0183334D01*
X0256858Y0181761D02*
X0255798Y0181761D01*
X0268078Y0184908D02*
X0410281Y0184908D01*
X0405726Y0183334D02*
X0400604Y0183334D01*
X0400221Y0183718D02*
X0396110Y0183718D01*
X0393203Y0180811D01*
X0393203Y0176700D01*
X0396110Y0173794D01*
X0400221Y0173794D01*
X0403128Y0176700D01*
X0403128Y0180811D01*
X0400221Y0183718D01*
X0402178Y0181761D02*
X0404153Y0181761D01*
X0403203Y0180188D02*
X0403128Y0180188D01*
X0403128Y0178614D02*
X0403203Y0178614D01*
X0403203Y0177041D02*
X0403128Y0177041D01*
X0401895Y0175468D02*
X0404436Y0175468D01*
X0406009Y0173895D02*
X0400322Y0173895D01*
X0396009Y0173895D02*
X0386975Y0173895D01*
X0387858Y0175468D02*
X0394436Y0175468D01*
X0393203Y0177041D02*
X0387858Y0177041D01*
X0387858Y0178614D02*
X0393203Y0178614D01*
X0393203Y0180188D02*
X0387858Y0180188D01*
X0387858Y0181761D02*
X0394153Y0181761D01*
X0395726Y0183334D02*
X0387258Y0183334D01*
X0377734Y0183334D02*
X0375612Y0183334D01*
X0369695Y0183334D02*
X0364212Y0183334D01*
X0363024Y0183334D02*
X0362598Y0183334D01*
X0361410Y0183334D02*
X0355927Y0183334D01*
X0357528Y0181761D02*
X0359077Y0181761D01*
X0358243Y0180188D02*
X0358179Y0180188D01*
X0358062Y0177041D02*
X0358334Y0177041D01*
X0359329Y0175468D02*
X0357264Y0175468D01*
X0355244Y0173895D02*
X0370378Y0173895D01*
X0368358Y0175468D02*
X0366293Y0175468D01*
X0367288Y0177041D02*
X0367560Y0177041D01*
X0367443Y0180188D02*
X0367380Y0180188D01*
X0368094Y0181761D02*
X0366545Y0181761D01*
X0363024Y0181761D02*
X0362598Y0181761D01*
X0362598Y0180188D02*
X0363024Y0180188D01*
X0363024Y0177041D02*
X0362598Y0177041D01*
X0362598Y0175468D02*
X0363024Y0175468D01*
X0350693Y0173895D02*
X0345980Y0173895D01*
X0345980Y0172321D02*
X0420783Y0172321D01*
X0420783Y0170748D02*
X0345980Y0170748D01*
X0345980Y0169175D02*
X0420783Y0169175D01*
X0420783Y0167601D02*
X0345980Y0167601D01*
X0345261Y0166028D02*
X0420783Y0166028D01*
X0420783Y0164455D02*
X0343688Y0164455D01*
X0342115Y0162881D02*
X0420783Y0162881D01*
X0420783Y0161308D02*
X0340541Y0161308D01*
X0338968Y0159735D02*
X0420783Y0159735D01*
X0420783Y0158161D02*
X0337395Y0158161D01*
X0335822Y0156588D02*
X0420783Y0156588D01*
X0420783Y0155015D02*
X0334248Y0155015D01*
X0332675Y0153441D02*
X0420783Y0153441D01*
X0420783Y0151868D02*
X0331102Y0151868D01*
X0329528Y0150295D02*
X0420783Y0150295D01*
X0420783Y0148722D02*
X0327955Y0148722D01*
X0326382Y0147148D02*
X0420783Y0147148D01*
X0420783Y0145575D02*
X0324808Y0145575D01*
X0323235Y0144002D02*
X0420783Y0144002D01*
X0420783Y0142428D02*
X0321662Y0142428D01*
X0320088Y0140855D02*
X0420783Y0140855D01*
X0420783Y0139282D02*
X0318515Y0139282D01*
X0316942Y0137708D02*
X0411533Y0137708D01*
X0410646Y0136135D02*
X0270341Y0136135D01*
X0264336Y0136135D02*
X0239587Y0136135D01*
X0241160Y0134562D02*
X0410646Y0134562D01*
X0410646Y0132988D02*
X0290568Y0132988D01*
X0292141Y0131415D02*
X0410752Y0131415D01*
X0410646Y0129842D02*
X0293715Y0129842D01*
X0295288Y0128268D02*
X0410646Y0128268D01*
X0410646Y0126695D02*
X0296861Y0126695D01*
X0298435Y0125122D02*
X0411727Y0125122D01*
X0411913Y0123548D02*
X0300008Y0123548D01*
X0301581Y0121975D02*
X0410340Y0121975D01*
X0405786Y0120402D02*
X0400545Y0120402D01*
X0400221Y0120726D02*
X0396110Y0120726D01*
X0393203Y0117819D01*
X0393203Y0113708D01*
X0396110Y0110802D01*
X0400221Y0110802D01*
X0403128Y0113708D01*
X0403128Y0117819D01*
X0400221Y0120726D01*
X0402118Y0118829D02*
X0404212Y0118829D01*
X0403203Y0117255D02*
X0403128Y0117255D01*
X0403128Y0115682D02*
X0403203Y0115682D01*
X0403203Y0114109D02*
X0403128Y0114109D01*
X0401954Y0112535D02*
X0404376Y0112535D01*
X0405950Y0110962D02*
X0400381Y0110962D01*
X0395950Y0110962D02*
X0387035Y0110962D01*
X0387858Y0112535D02*
X0394376Y0112535D01*
X0393203Y0114109D02*
X0387858Y0114109D01*
X0387858Y0115682D02*
X0393203Y0115682D01*
X0393203Y0117255D02*
X0387858Y0117255D01*
X0387858Y0118829D02*
X0394212Y0118829D01*
X0395786Y0120402D02*
X0387199Y0120402D01*
X0377793Y0120402D02*
X0375468Y0120402D01*
X0369839Y0120402D02*
X0364029Y0120402D01*
X0363024Y0120402D02*
X0362598Y0120402D01*
X0361593Y0120402D02*
X0355783Y0120402D01*
X0357487Y0118829D02*
X0359120Y0118829D01*
X0358262Y0117255D02*
X0358155Y0117255D01*
X0358087Y0114109D02*
X0358315Y0114109D01*
X0359269Y0112535D02*
X0357323Y0112535D01*
X0355388Y0110962D02*
X0370234Y0110962D01*
X0368299Y0112535D02*
X0366353Y0112535D01*
X0367307Y0114109D02*
X0367535Y0114109D01*
X0367467Y0117255D02*
X0367360Y0117255D01*
X0368135Y0118829D02*
X0366502Y0118829D01*
X0363024Y0118829D02*
X0362598Y0118829D01*
X0362598Y0117255D02*
X0363024Y0117255D01*
X0363024Y0114109D02*
X0362598Y0114109D01*
X0362598Y0112535D02*
X0363024Y0112535D01*
X0350549Y0110962D02*
X0345545Y0110962D01*
X0347481Y0112535D02*
X0348614Y0112535D01*
X0348450Y0118829D02*
X0347645Y0118829D01*
X0345941Y0120402D02*
X0350154Y0120402D01*
X0340311Y0120402D02*
X0336098Y0120402D01*
X0337802Y0118829D02*
X0338607Y0118829D01*
X0338771Y0112535D02*
X0337638Y0112535D01*
X0335703Y0110962D02*
X0340706Y0110962D01*
X0330864Y0110962D02*
X0325860Y0110962D01*
X0327796Y0112535D02*
X0328929Y0112535D01*
X0328765Y0118829D02*
X0327959Y0118829D01*
X0326256Y0120402D02*
X0330469Y0120402D01*
X0320626Y0120402D02*
X0316413Y0120402D01*
X0318117Y0118829D02*
X0318922Y0118829D01*
X0319086Y0112535D02*
X0317953Y0112535D01*
X0316018Y0110962D02*
X0321021Y0110962D01*
X0324599Y0107815D02*
X0420783Y0107815D01*
X0420783Y0106242D02*
X0326173Y0106242D01*
X0327746Y0104669D02*
X0420783Y0104669D01*
X0420783Y0103095D02*
X0329319Y0103095D01*
X0330892Y0101522D02*
X0420783Y0101522D01*
X0420783Y0099949D02*
X0332466Y0099949D01*
X0334039Y0098375D02*
X0420783Y0098375D01*
X0420783Y0096802D02*
X0335612Y0096802D01*
X0337186Y0095229D02*
X0420783Y0095229D01*
X0420783Y0093655D02*
X0396633Y0093655D01*
X0398206Y0092082D02*
X0420783Y0092082D01*
X0420783Y0090509D02*
X0399780Y0090509D01*
X0401353Y0088936D02*
X0420783Y0088936D01*
X0420783Y0087362D02*
X0402926Y0087362D01*
X0404500Y0085789D02*
X0420783Y0085789D01*
X0420783Y0084216D02*
X0406073Y0084216D01*
X0407646Y0082642D02*
X0420783Y0082642D01*
X0420733Y0081069D02*
X0409220Y0081069D01*
X0410793Y0079496D02*
X0419160Y0079496D01*
X0417587Y0077922D02*
X0412366Y0077922D01*
X0413940Y0076349D02*
X0416013Y0076349D01*
X0420940Y0073202D02*
X0436811Y0073202D01*
X0436811Y0071629D02*
X0419366Y0071629D01*
X0419307Y0070056D02*
X0436811Y0070056D01*
X0436811Y0068482D02*
X0419142Y0068482D01*
X0419307Y0066909D02*
X0436811Y0066909D01*
X0436811Y0065336D02*
X0419307Y0065336D01*
X0419307Y0063763D02*
X0436811Y0063763D01*
X0436811Y0062189D02*
X0418286Y0062189D01*
X0417831Y0060616D02*
X0436811Y0060616D01*
X0436811Y0059043D02*
X0417831Y0059043D01*
X0416900Y0057469D02*
X0436811Y0057469D01*
X0436811Y0055896D02*
X0415326Y0055896D01*
X0413753Y0054323D02*
X0436811Y0054323D01*
X0436811Y0052749D02*
X0413128Y0052749D01*
X0413128Y0051176D02*
X0436811Y0051176D01*
X0436811Y0049603D02*
X0412014Y0049603D01*
X0430853Y0048029D02*
X0436811Y0048029D01*
X0436811Y0046456D02*
X0432728Y0046456D01*
X0433916Y0044883D02*
X0436811Y0044883D01*
X0436811Y0043309D02*
X0434567Y0043309D01*
X0434874Y0041736D02*
X0436811Y0041736D01*
X0436811Y0040163D02*
X0434874Y0040163D01*
X0434558Y0038589D02*
X0436811Y0038589D01*
X0436811Y0037016D02*
X0433906Y0037016D01*
X0432706Y0035443D02*
X0436811Y0035443D01*
X0436811Y0033870D02*
X0430799Y0033870D01*
X0436811Y0074776D02*
X0422513Y0074776D01*
X0424086Y0076349D02*
X0436811Y0076349D01*
X0436811Y0077922D02*
X0425660Y0077922D01*
X0426492Y0079496D02*
X0436811Y0079496D01*
X0436811Y0081069D02*
X0426492Y0081069D01*
X0426492Y0082642D02*
X0436811Y0082642D01*
X0436811Y0084216D02*
X0426492Y0084216D01*
X0426492Y0085789D02*
X0436811Y0085789D01*
X0436811Y0087362D02*
X0426492Y0087362D01*
X0426492Y0088936D02*
X0436811Y0088936D01*
X0436811Y0090509D02*
X0426492Y0090509D01*
X0426492Y0092082D02*
X0436811Y0092082D01*
X0436811Y0093655D02*
X0426492Y0093655D01*
X0426492Y0095229D02*
X0436811Y0095229D01*
X0436811Y0096802D02*
X0426492Y0096802D01*
X0426492Y0098375D02*
X0436811Y0098375D01*
X0436811Y0099949D02*
X0426492Y0099949D01*
X0426492Y0101522D02*
X0436811Y0101522D01*
X0436811Y0103095D02*
X0426492Y0103095D01*
X0426492Y0104669D02*
X0436811Y0104669D01*
X0436811Y0106242D02*
X0426492Y0106242D01*
X0426492Y0107815D02*
X0436811Y0107815D01*
X0436811Y0109389D02*
X0426492Y0109389D01*
X0426492Y0110962D02*
X0436811Y0110962D01*
X0436811Y0112535D02*
X0426492Y0112535D01*
X0426492Y0114109D02*
X0436811Y0114109D01*
X0436811Y0115682D02*
X0426492Y0115682D01*
X0426492Y0117255D02*
X0436811Y0117255D01*
X0436811Y0118829D02*
X0426492Y0118829D01*
X0426492Y0120402D02*
X0436811Y0120402D01*
X0436811Y0121975D02*
X0426492Y0121975D01*
X0426492Y0123548D02*
X0436811Y0123548D01*
X0436811Y0125122D02*
X0426492Y0125122D01*
X0426492Y0126695D02*
X0436811Y0126695D01*
X0436811Y0128268D02*
X0426492Y0128268D01*
X0426492Y0129842D02*
X0436811Y0129842D01*
X0436811Y0131415D02*
X0426492Y0131415D01*
X0426492Y0132988D02*
X0436811Y0132988D01*
X0436811Y0134562D02*
X0426492Y0134562D01*
X0426492Y0136135D02*
X0436811Y0136135D01*
X0436811Y0137708D02*
X0426492Y0137708D01*
X0426492Y0139282D02*
X0436811Y0139282D01*
X0436811Y0140855D02*
X0426492Y0140855D01*
X0426492Y0142428D02*
X0436811Y0142428D01*
X0436811Y0144002D02*
X0426492Y0144002D01*
X0426492Y0145575D02*
X0436811Y0145575D01*
X0436811Y0147148D02*
X0426492Y0147148D01*
X0426492Y0148722D02*
X0436811Y0148722D01*
X0436811Y0150295D02*
X0426492Y0150295D01*
X0426492Y0151868D02*
X0436811Y0151868D01*
X0436811Y0153441D02*
X0426492Y0153441D01*
X0426492Y0155015D02*
X0436811Y0155015D01*
X0436811Y0156588D02*
X0426492Y0156588D01*
X0426492Y0158161D02*
X0436811Y0158161D01*
X0436811Y0159735D02*
X0426492Y0159735D01*
X0426492Y0161308D02*
X0436811Y0161308D01*
X0436811Y0162881D02*
X0426492Y0162881D01*
X0426492Y0164455D02*
X0436811Y0164455D01*
X0436811Y0166028D02*
X0426492Y0166028D01*
X0426492Y0167601D02*
X0436811Y0167601D01*
X0436811Y0169175D02*
X0426492Y0169175D01*
X0426492Y0170748D02*
X0436811Y0170748D01*
X0436811Y0172321D02*
X0426492Y0172321D01*
X0426492Y0173895D02*
X0436811Y0173895D01*
X0436811Y0175468D02*
X0426492Y0175468D01*
X0426492Y0177041D02*
X0436811Y0177041D01*
X0436811Y0178614D02*
X0426492Y0178614D01*
X0426492Y0180188D02*
X0436811Y0180188D01*
X0436811Y0181761D02*
X0426492Y0181761D01*
X0426492Y0183334D02*
X0436811Y0183334D01*
X0436811Y0184908D02*
X0426492Y0184908D01*
X0426492Y0186481D02*
X0436811Y0186481D01*
X0436811Y0188054D02*
X0426492Y0188054D01*
X0426492Y0189628D02*
X0436811Y0189628D01*
X0436811Y0191201D02*
X0426492Y0191201D01*
X0426492Y0192774D02*
X0436811Y0192774D01*
X0436811Y0194348D02*
X0426492Y0194348D01*
X0426492Y0195921D02*
X0436811Y0195921D01*
X0436811Y0197494D02*
X0426492Y0197494D01*
X0426492Y0199068D02*
X0436811Y0199068D01*
X0436811Y0200641D02*
X0426492Y0200641D01*
X0426492Y0202214D02*
X0436811Y0202214D01*
X0436811Y0203788D02*
X0426492Y0203788D01*
X0426492Y0205361D02*
X0436811Y0205361D01*
X0436811Y0206934D02*
X0426492Y0206934D01*
X0426492Y0208507D02*
X0436811Y0208507D01*
X0436811Y0210081D02*
X0426492Y0210081D01*
X0426492Y0211654D02*
X0436811Y0211654D01*
X0436811Y0213227D02*
X0426492Y0213227D01*
X0426492Y0214801D02*
X0436811Y0214801D01*
X0436811Y0216374D02*
X0425883Y0216374D01*
X0424310Y0217947D02*
X0436811Y0217947D01*
X0436811Y0219521D02*
X0422736Y0219521D01*
X0421163Y0221094D02*
X0436811Y0221094D01*
X0436811Y0222667D02*
X0419590Y0222667D01*
X0419307Y0224241D02*
X0436811Y0224241D01*
X0436811Y0225814D02*
X0419291Y0225814D01*
X0419307Y0227387D02*
X0436811Y0227387D01*
X0436811Y0228961D02*
X0419307Y0228961D01*
X0419307Y0230534D02*
X0436811Y0230534D01*
X0436811Y0232107D02*
X0418509Y0232107D01*
X0417831Y0233680D02*
X0436811Y0233680D01*
X0436811Y0235254D02*
X0417831Y0235254D01*
X0417123Y0236827D02*
X0436811Y0236827D01*
X0436811Y0238400D02*
X0415550Y0238400D01*
X0413976Y0239974D02*
X0436811Y0239974D01*
X0436811Y0241547D02*
X0413128Y0241547D01*
X0413128Y0243120D02*
X0436811Y0243120D01*
X0419752Y0249414D02*
X0300127Y0249414D01*
X0298554Y0250987D02*
X0419100Y0250987D01*
X0418701Y0252560D02*
X0064795Y0252560D01*
X0064795Y0254134D02*
X0418701Y0254134D01*
X0418924Y0255707D02*
X0064572Y0255707D01*
X0063920Y0257280D02*
X0419576Y0257280D01*
X0420646Y0258854D02*
X0062850Y0258854D01*
X0061260Y0260427D02*
X0422236Y0260427D01*
X0436811Y0263573D02*
X0046685Y0263573D01*
X0064396Y0250987D02*
X0143801Y0250987D01*
X0142227Y0249414D02*
X0063744Y0249414D01*
X0062426Y0247840D02*
X0140654Y0247840D01*
X0139081Y0246267D02*
X0126597Y0246267D01*
X0127441Y0244694D02*
X0137507Y0244694D01*
X0122866Y0244694D02*
X0122441Y0244694D01*
X0122441Y0246267D02*
X0122866Y0246267D01*
X0122866Y0243120D02*
X0122441Y0243120D01*
X0117866Y0244694D02*
X0117395Y0244694D01*
X0118710Y0246267D02*
X0115875Y0246267D01*
X0109747Y0246267D02*
X0106033Y0246267D01*
X0107552Y0244694D02*
X0108227Y0244694D01*
X0099904Y0246267D02*
X0096190Y0246267D01*
X0097710Y0244694D02*
X0098385Y0244694D01*
X0090062Y0246267D02*
X0060235Y0246267D01*
X0095258Y0236827D02*
X0100837Y0236827D01*
X0098733Y0238400D02*
X0097362Y0238400D01*
X0105100Y0236827D02*
X0110679Y0236827D01*
X0108575Y0238400D02*
X0107204Y0238400D01*
X0231720Y0144002D02*
X0315162Y0144002D01*
X0313588Y0142428D02*
X0269762Y0142428D01*
X0264915Y0142428D02*
X0233293Y0142428D01*
X0234867Y0140855D02*
X0263626Y0140855D01*
X0263195Y0139282D02*
X0236440Y0139282D01*
X0238013Y0137708D02*
X0263386Y0137708D01*
X0282092Y0123548D02*
X0229732Y0123548D01*
X0231306Y0121975D02*
X0283665Y0121975D01*
X0283858Y0120402D02*
X0284283Y0120402D01*
X0282853Y0120402D02*
X0277043Y0120402D01*
X0278747Y0118829D02*
X0280380Y0118829D01*
X0279522Y0117255D02*
X0279415Y0117255D01*
X0279347Y0114109D02*
X0279575Y0114109D01*
X0280529Y0112535D02*
X0278583Y0112535D01*
X0276648Y0110962D02*
X0291494Y0110962D01*
X0289559Y0112535D02*
X0287613Y0112535D01*
X0288567Y0114109D02*
X0288795Y0114109D01*
X0284283Y0114109D02*
X0283858Y0114109D01*
X0283858Y0112535D02*
X0284283Y0112535D01*
X0284283Y0117255D02*
X0283858Y0117255D01*
X0283858Y0118829D02*
X0284283Y0118829D01*
X0271414Y0120402D02*
X0232879Y0120402D01*
X0234452Y0118829D02*
X0269710Y0118829D01*
X0269042Y0117255D02*
X0236025Y0117255D01*
X0237599Y0115682D02*
X0268866Y0115682D01*
X0269110Y0114109D02*
X0239172Y0114109D01*
X0240745Y0112535D02*
X0269874Y0112535D01*
X0271809Y0110962D02*
X0242319Y0110962D01*
X0243892Y0109389D02*
X0261173Y0109389D01*
X0259965Y0107815D02*
X0245465Y0107815D01*
X0247039Y0106242D02*
X0259652Y0106242D01*
X0260025Y0104669D02*
X0248612Y0104669D01*
X0250185Y0103095D02*
X0261376Y0103095D01*
X0265427Y0103095D02*
X0321246Y0103095D01*
X0322819Y0101522D02*
X0251759Y0101522D01*
X0253332Y0099949D02*
X0324393Y0099949D01*
X0325966Y0098375D02*
X0254905Y0098375D01*
X0256479Y0096802D02*
X0327539Y0096802D01*
X0329113Y0095229D02*
X0258052Y0095229D01*
X0259625Y0093655D02*
X0330686Y0093655D01*
X0311179Y0110962D02*
X0306175Y0110962D01*
X0308111Y0112535D02*
X0309244Y0112535D01*
X0309080Y0118829D02*
X0308274Y0118829D01*
X0306571Y0120402D02*
X0310784Y0120402D01*
X0301336Y0110962D02*
X0296333Y0110962D01*
X0298268Y0112535D02*
X0299401Y0112535D01*
X0265631Y0109389D02*
X0420783Y0109389D01*
X0420783Y0110962D02*
X0410381Y0110962D01*
X0411954Y0112535D02*
X0420783Y0112535D01*
X0420783Y0114109D02*
X0413128Y0114109D01*
X0413128Y0115682D02*
X0420783Y0115682D01*
X0420783Y0117255D02*
X0413693Y0117255D01*
X0415267Y0118829D02*
X0420783Y0118829D01*
X0420783Y0120402D02*
X0416840Y0120402D01*
X0417817Y0121975D02*
X0420783Y0121975D01*
X0420783Y0123548D02*
X0417831Y0123548D01*
X0418226Y0125122D02*
X0420783Y0125122D01*
X0420783Y0126695D02*
X0419307Y0126695D01*
X0419307Y0128268D02*
X0420783Y0128268D01*
X0420783Y0129842D02*
X0419307Y0129842D01*
X0418420Y0137708D02*
X0420783Y0137708D01*
X0377134Y0112535D02*
X0377008Y0112535D01*
X0377957Y0110962D02*
X0375073Y0110962D01*
X0374929Y0173895D02*
X0378017Y0173895D01*
X0377134Y0175468D02*
X0376949Y0175468D01*
X0350010Y0183334D02*
X0346085Y0183334D01*
X0347685Y0181761D02*
X0348409Y0181761D01*
X0340167Y0183334D02*
X0336242Y0183334D01*
X0337843Y0181761D02*
X0338567Y0181761D01*
X0330325Y0183334D02*
X0326399Y0183334D01*
X0328000Y0181761D02*
X0328724Y0181761D01*
X0320482Y0183334D02*
X0316557Y0183334D01*
X0318158Y0181761D02*
X0318882Y0181761D01*
X0310640Y0183334D02*
X0306714Y0183334D01*
X0308315Y0181761D02*
X0309039Y0181761D01*
X0300797Y0183334D02*
X0296872Y0183334D01*
X0298473Y0181761D02*
X0299197Y0181761D01*
X0290955Y0183334D02*
X0285472Y0183334D01*
X0284283Y0183334D02*
X0283858Y0183334D01*
X0282670Y0183334D02*
X0277187Y0183334D01*
X0278788Y0181761D02*
X0280337Y0181761D01*
X0279502Y0180188D02*
X0279439Y0180188D01*
X0279322Y0177041D02*
X0279594Y0177041D01*
X0280589Y0175468D02*
X0278524Y0175468D01*
X0276504Y0173895D02*
X0291638Y0173895D01*
X0289618Y0175468D02*
X0287553Y0175468D01*
X0288547Y0177041D02*
X0288820Y0177041D01*
X0288703Y0180188D02*
X0288639Y0180188D01*
X0289354Y0181761D02*
X0287805Y0181761D01*
X0284283Y0181761D02*
X0283858Y0181761D01*
X0283858Y0180188D02*
X0284283Y0180188D01*
X0284283Y0177041D02*
X0283858Y0177041D01*
X0283858Y0175468D02*
X0284283Y0175468D01*
X0296189Y0173895D02*
X0301480Y0173895D01*
X0299461Y0175468D02*
X0298209Y0175468D01*
X0306032Y0173895D02*
X0311323Y0173895D01*
X0309303Y0175468D02*
X0308051Y0175468D01*
X0315874Y0173895D02*
X0321165Y0173895D01*
X0319146Y0175468D02*
X0317894Y0175468D01*
X0325717Y0173895D02*
X0331008Y0173895D01*
X0328988Y0175468D02*
X0327736Y0175468D01*
X0335559Y0173895D02*
X0340272Y0173895D01*
X0338831Y0175468D02*
X0337579Y0175468D01*
X0347421Y0175468D02*
X0348673Y0175468D01*
X0340725Y0211654D02*
X0420783Y0211654D01*
X0420783Y0213227D02*
X0342461Y0213227D01*
X0344034Y0214801D02*
X0419383Y0214801D01*
X0417810Y0216374D02*
X0345571Y0216374D01*
X0345980Y0217947D02*
X0416236Y0217947D01*
X0411816Y0219521D02*
X0345980Y0219521D01*
X0345980Y0221094D02*
X0410646Y0221094D01*
X0410646Y0222667D02*
X0345980Y0222667D01*
X0345980Y0224241D02*
X0410646Y0224241D01*
X0410662Y0225814D02*
X0345980Y0225814D01*
X0345980Y0227387D02*
X0410646Y0227387D01*
X0410646Y0228961D02*
X0345980Y0228961D01*
X0345980Y0230534D02*
X0410646Y0230534D01*
X0411444Y0232107D02*
X0345980Y0232107D01*
X0345980Y0233680D02*
X0412122Y0233680D01*
X0410623Y0235254D02*
X0345980Y0235254D01*
X0345980Y0236827D02*
X0350837Y0236827D01*
X0348733Y0238400D02*
X0347362Y0238400D01*
X0340272Y0236827D02*
X0335415Y0236827D01*
X0337519Y0238400D02*
X0338890Y0238400D01*
X0331151Y0236827D02*
X0325573Y0236827D01*
X0327677Y0238400D02*
X0329048Y0238400D01*
X0321309Y0236827D02*
X0315730Y0236827D01*
X0317834Y0238400D02*
X0319205Y0238400D01*
X0318857Y0244694D02*
X0318182Y0244694D01*
X0316663Y0246267D02*
X0320377Y0246267D01*
X0326505Y0246267D02*
X0330219Y0246267D01*
X0328700Y0244694D02*
X0328025Y0244694D01*
X0336348Y0246267D02*
X0340062Y0246267D01*
X0338542Y0244694D02*
X0337867Y0244694D01*
X0346190Y0246267D02*
X0349904Y0246267D01*
X0348385Y0244694D02*
X0347710Y0244694D01*
X0356033Y0246267D02*
X0361227Y0246267D01*
X0362598Y0246267D02*
X0363024Y0246267D01*
X0364395Y0246267D02*
X0369589Y0246267D01*
X0368070Y0244694D02*
X0366588Y0244694D01*
X0367399Y0243120D02*
X0367418Y0243120D01*
X0367268Y0239974D02*
X0367584Y0239974D01*
X0368418Y0238400D02*
X0366234Y0238400D01*
X0363024Y0238400D02*
X0362598Y0238400D01*
X0362598Y0239974D02*
X0363024Y0239974D01*
X0363024Y0243120D02*
X0362598Y0243120D01*
X0362598Y0244694D02*
X0363024Y0244694D01*
X0359034Y0244694D02*
X0357552Y0244694D01*
X0358204Y0243120D02*
X0358223Y0243120D01*
X0358354Y0239974D02*
X0358038Y0239974D01*
X0357204Y0238400D02*
X0359388Y0238400D01*
X0355100Y0236827D02*
X0370522Y0236827D01*
X0374786Y0236827D02*
X0378076Y0236827D01*
X0377134Y0238400D02*
X0376889Y0238400D01*
X0386916Y0236827D02*
X0396069Y0236827D01*
X0396110Y0236786D02*
X0400221Y0236786D01*
X0403128Y0239693D01*
X0403128Y0243803D01*
X0400221Y0246710D01*
X0396110Y0246710D01*
X0393203Y0243803D01*
X0393203Y0239693D01*
X0396110Y0236786D01*
X0394495Y0238400D02*
X0387858Y0238400D01*
X0387858Y0239974D02*
X0393203Y0239974D01*
X0393203Y0241547D02*
X0387858Y0241547D01*
X0387858Y0243120D02*
X0393203Y0243120D01*
X0394093Y0244694D02*
X0387858Y0244694D01*
X0387318Y0246267D02*
X0395667Y0246267D01*
X0400664Y0246267D02*
X0405667Y0246267D01*
X0404093Y0244694D02*
X0402237Y0244694D01*
X0403128Y0243120D02*
X0403203Y0243120D01*
X0403203Y0241547D02*
X0403128Y0241547D01*
X0403128Y0239974D02*
X0403203Y0239974D01*
X0404495Y0238400D02*
X0401835Y0238400D01*
X0400262Y0236827D02*
X0406069Y0236827D01*
X0377674Y0246267D02*
X0375718Y0246267D01*
X0419261Y0194348D02*
X0420783Y0194348D01*
X0420783Y0192774D02*
X0419307Y0192774D01*
X0419307Y0191201D02*
X0420783Y0191201D01*
X0420783Y0189628D02*
X0419307Y0189628D01*
X0418167Y0188054D02*
X0420783Y0188054D01*
X0420783Y0186481D02*
X0417831Y0186481D01*
X0417793Y0184908D02*
X0420783Y0184908D01*
X0420783Y0183334D02*
X0416780Y0183334D01*
X0415207Y0181761D02*
X0420783Y0181761D01*
X0420783Y0180188D02*
X0413634Y0180188D01*
X0413128Y0178614D02*
X0420783Y0178614D01*
X0420783Y0177041D02*
X0413128Y0177041D01*
X0411895Y0175468D02*
X0420783Y0175468D01*
X0420783Y0173895D02*
X0410322Y0173895D01*
X0269769Y0055896D02*
X0212087Y0055896D01*
X0212087Y0054323D02*
X0269067Y0054323D01*
X0268866Y0052749D02*
X0207512Y0052749D01*
X0207512Y0051176D02*
X0207087Y0051176D01*
X0207087Y0049603D02*
X0207512Y0049603D01*
X0207512Y0048029D02*
X0207087Y0048029D01*
X0203895Y0048029D02*
X0200020Y0048029D01*
X0201871Y0049603D02*
X0202512Y0049603D01*
X0210703Y0048029D02*
X0271665Y0048029D01*
X0269814Y0049603D02*
X0212087Y0049603D01*
X0212087Y0051176D02*
X0269085Y0051176D01*
X0276792Y0048029D02*
X0283409Y0048029D01*
X0283858Y0048029D02*
X0284283Y0048029D01*
X0284283Y0049603D02*
X0283858Y0049603D01*
X0283858Y0051176D02*
X0284283Y0051176D01*
X0280469Y0049603D02*
X0278643Y0049603D01*
X0279371Y0051176D02*
X0279556Y0051176D01*
X0236227Y0125122D02*
X0228159Y0125122D01*
X0226586Y0126695D02*
X0234654Y0126695D01*
X0233081Y0128268D02*
X0225012Y0128268D01*
X0223439Y0129842D02*
X0231507Y0129842D01*
D19*
X0226394Y0109465D03*
X0205528Y0135055D03*
X0183087Y0124425D03*
X0176394Y0108677D03*
X0177969Y0096866D03*
X0155528Y0101197D03*
X0156315Y0113402D03*
X0148441Y0135449D03*
X0166157Y0142142D03*
X0141354Y0157102D03*
X0148047Y0168126D03*
X0110252Y0168126D03*
X0099228Y0192142D03*
X0148047Y0195291D03*
X0193717Y0214976D03*
X0253953Y0185055D03*
X0263402Y0106315D03*
X0150409Y0081512D03*
X0106709Y0132299D03*
D20*
X0106709Y0155134D01*
X0092142Y0169701D01*
X0092142Y0195291D01*
X0146472Y0249622D01*
X0295882Y0249622D01*
X0303756Y0241748D01*
X0293323Y0214189D02*
X0339386Y0214189D01*
X0343126Y0217929D01*
X0343126Y0241748D01*
X0293323Y0214189D02*
X0230331Y0151197D01*
X0223244Y0142142D02*
X0219701Y0142142D01*
X0223244Y0142142D02*
X0238598Y0126787D01*
X0282890Y0126787D01*
X0293913Y0115764D01*
X0303756Y0115764D02*
X0288402Y0131118D01*
X0240567Y0131118D01*
X0219307Y0152378D01*
X0206315Y0152378D02*
X0206315Y0135843D01*
X0205528Y0135055D01*
X0203165Y0128362D02*
X0220882Y0128362D01*
X0263402Y0085843D01*
X0339583Y0085843D01*
X0372654Y0052772D01*
X0408165Y0052772D02*
X0414976Y0059583D01*
X0414976Y0065764D01*
X0414976Y0071276D02*
X0394110Y0092142D01*
X0336236Y0092142D01*
X0322063Y0106315D01*
X0263402Y0106315D01*
X0267339Y0138992D02*
X0314189Y0138992D01*
X0343126Y0167929D01*
X0343126Y0178756D01*
X0408165Y0178756D02*
X0414976Y0185567D01*
X0414976Y0191748D01*
X0414976Y0197260D02*
X0423638Y0197260D01*
X0423638Y0214583D01*
X0414976Y0223244D01*
X0414976Y0228756D02*
X0414976Y0234937D01*
X0408165Y0241748D01*
X0423638Y0197260D02*
X0423638Y0134268D01*
X0414976Y0134268D01*
X0423638Y0134268D02*
X0423638Y0079937D01*
X0414976Y0071276D01*
X0408165Y0115764D02*
X0414976Y0122575D01*
X0414976Y0128756D01*
X0303756Y0052772D02*
X0294307Y0062220D01*
X0187811Y0062220D01*
X0178362Y0071669D01*
X0170094Y0066157D02*
X0170094Y0081118D01*
X0170488Y0081512D01*
X0170488Y0086236D01*
X0172850Y0096866D02*
X0177969Y0096866D01*
X0172850Y0096866D02*
X0156315Y0113402D01*
X0155134Y0118520D02*
X0151197Y0114583D01*
X0151197Y0105528D01*
X0155528Y0101197D01*
X0169307Y0108677D02*
X0159465Y0118520D01*
X0155134Y0118520D01*
X0155528Y0122457D02*
X0169701Y0122457D01*
X0178362Y0113795D01*
X0176394Y0108677D02*
X0169307Y0108677D01*
X0181906Y0118913D02*
X0172850Y0127969D01*
X0154740Y0127969D01*
X0135449Y0108677D01*
X0118913Y0108677D01*
X0114583Y0113008D01*
X0118520Y0108677D02*
X0094898Y0132299D01*
X0094898Y0133087D01*
X0088992Y0133874D02*
X0088992Y0130724D01*
X0115370Y0104346D01*
X0137417Y0104346D01*
X0155528Y0122457D01*
X0148441Y0135449D02*
X0172063Y0135449D01*
X0183087Y0124425D01*
X0181906Y0118913D02*
X0186236Y0118913D01*
X0194110Y0111039D01*
X0203165Y0128362D02*
X0195685Y0135843D01*
X0195685Y0157496D01*
X0191531Y0161650D01*
X0184031Y0161650D01*
X0184031Y0166650D02*
X0184327Y0166945D01*
X0199622Y0166945D01*
X0191748Y0171669D02*
X0191728Y0171650D01*
X0184031Y0171650D01*
X0184031Y0176650D02*
X0184169Y0176787D01*
X0199622Y0176787D01*
X0205134Y0176787D02*
X0205134Y0166945D01*
X0205134Y0153559D01*
X0206315Y0152378D01*
X0183480Y0152772D02*
X0153559Y0152772D01*
X0153165Y0153165D01*
X0150016Y0144898D02*
X0163402Y0144898D01*
X0166157Y0142142D01*
X0150016Y0144898D02*
X0141354Y0153559D01*
X0141354Y0157102D01*
X0133480Y0164976D02*
X0113402Y0164976D01*
X0110252Y0168126D01*
X0102772Y0168126D02*
X0102772Y0184268D01*
X0111433Y0192929D01*
X0111433Y0204346D01*
X0099228Y0192142D02*
X0099228Y0166945D01*
X0123638Y0142535D01*
X0123638Y0134268D01*
X0128756Y0134268D01*
X0133480Y0129543D01*
X0137024Y0128362D02*
X0132693Y0124031D01*
X0129150Y0124031D01*
X0137024Y0128362D02*
X0137024Y0133874D01*
X0102772Y0168126D01*
X0098441Y0157102D02*
X0098441Y0146079D01*
X0100409Y0144110D01*
X0091748Y0144110D01*
X0083087Y0135449D01*
X0083087Y0128362D01*
X0094504Y0116945D01*
X0094504Y0104307D01*
X0084425Y0094228D01*
X0125764Y0063520D01*
X0125764Y0061709D01*
X0145567Y0081512D01*
X0150409Y0081512D01*
X0170094Y0066157D02*
X0177181Y0059071D01*
X0287614Y0059071D01*
X0293913Y0052772D01*
X0197457Y0052772D02*
X0157890Y0052772D01*
X0150409Y0060252D01*
X0138205Y0060252D01*
X0137811Y0060646D01*
X0136748Y0061709D01*
X0125764Y0061709D01*
X0125764Y0051709D01*
X0073205Y0113008D02*
X0064425Y0104228D01*
X0073205Y0113008D02*
X0089780Y0113008D01*
X0148047Y0168126D02*
X0148047Y0195291D01*
X0184031Y0196650D02*
X0184209Y0196472D01*
X0199622Y0196472D01*
X0192142Y0191748D02*
X0184130Y0191748D01*
X0184031Y0191650D01*
X0184031Y0186650D02*
X0184051Y0186630D01*
X0199622Y0186630D01*
X0192142Y0181906D02*
X0191886Y0181650D01*
X0184031Y0181650D01*
X0205134Y0176787D02*
X0205134Y0186630D01*
X0205134Y0196472D01*
X0193717Y0214976D02*
X0231906Y0214976D01*
X0253953Y0192929D01*
X0253953Y0185055D01*
D21*
X0219307Y0152378D03*
X0219701Y0142142D03*
X0230331Y0151197D03*
X0267339Y0138992D03*
X0194110Y0111039D03*
X0178362Y0113795D03*
X0170488Y0086236D03*
X0178362Y0071669D03*
X0094898Y0133087D03*
X0088992Y0133874D03*
X0100409Y0144110D03*
X0098441Y0157102D03*
X0153165Y0153165D03*
X0183480Y0152772D03*
X0191748Y0171669D03*
X0192142Y0181906D03*
X0192142Y0191748D03*
X0089780Y0113008D03*
D22*
X0133480Y0164976D03*
D23*
X0133480Y0129543D03*
X0129150Y0124031D03*
X0111433Y0204346D03*
M02*
