%
M48
M72
T01C0.0157
T02C0.0236
T03C0.0320
T04C0.0360
T05C0.0394
T06C0.0400
T07C0.1260
%
T01
X15041Y8151
X15553Y10120
X15631Y11340
X17639Y10868
X17797Y9687
X18309Y12443
X16616Y14214
X14844Y13545
X13348Y12954
X12915Y12403
X10671Y13230
X14135Y15710
X14805Y16813
X11025Y16813
X9923Y19214
X11143Y20435
X14805Y19529
X19372Y21498
X25395Y18506
X20553Y13506
X22639Y10946
X26340Y10631
T02
X26734Y13899
X23033Y15120
X21970Y14214
X21931Y15238
X19175Y17167
X19214Y18191
X19214Y19175
X18348Y15277
X15317Y15317
X13348Y16498
X10041Y14411
X9490Y13309
X8899Y13387
X8978Y11301
X9844Y15710
X17836Y11380
X19411Y11104
X17049Y8624
X17836Y7167
T03
X39817Y5277
X40817Y5277
X40817Y11576
X39817Y11576
X39817Y17876
X40817Y17876
X40817Y24175
X39817Y24175
T04
X12576Y6171
X11576Y6171
X10576Y6171
X10576Y5171
X11576Y5171
X12576Y5171
T05
X8443Y9423
X8443Y10423
X7443Y10423
X7443Y9423
X6443Y9423
X6443Y10423
T06
X19746Y5277
X20730Y5277
X27423Y5277
X28407Y5277
X29391Y5277
X30376Y5277
X31360Y5277
X32344Y5277
X33328Y5277
X34313Y5277
X35297Y5277
X36281Y5277
X37265Y5277
X38250Y5277
X38250Y11576
X37265Y11576
X36281Y11576
X35297Y11576
X34313Y11576
X33328Y11576
X32344Y11576
X31360Y11576
X30376Y11576
X29391Y11576
X28407Y11576
X27423Y11576
X27423Y17876
X28407Y17876
X29391Y17876
X30376Y17876
X31360Y17876
X32344Y17876
X33328Y17876
X34313Y17876
X35297Y17876
X36281Y17876
X37265Y17876
X38250Y17876
X38250Y24175
X37265Y24175
X36281Y24175
X35297Y24175
X34313Y24175
X33328Y24175
X32344Y24175
X31360Y24175
X30376Y24175
X29391Y24175
X28407Y24175
X27423Y24175
X12265Y24175
X11281Y24175
X10297Y24175
X9313Y24175
T07
X5671Y4096
X5671Y25356
X42679Y25356
X42679Y4096
M30
