%
M48
M72
T01C0.03150
T02C0.03543
%
T01
X59563Y132469
X71374Y132469
X85902Y143532
X71374Y162469
X59563Y162469
X71374Y180934
X35941Y175028
X35941Y194713
X115902Y143532
T02
X13500Y10107
X13500Y20107
X13500Y30107
X13500Y40107
X13500Y50107
X13500Y60107
X13500Y70107
X13500Y80107
X91059Y105973
X102870Y105973
X102870Y125973
X91059Y125973
X89996Y155186
X89996Y165186
X89996Y175186
X99996Y175186
X99996Y165186
X99996Y155186
X113500Y80107
X113500Y70107
X113500Y60107
X113500Y50107
X113500Y40107
X113500Y30107
X113500Y20107
X113500Y10107
M30
