G75*
%MOIN*%
%OFA0B0*%
%FSLAX24Y24*%
%IPPOS*%
%LPD*%
%AMOC8*
5,1,8,0,0,1.08239X$1,22.5*
%
%ADD10C,0.0515*%
%ADD11R,0.0236X0.0709*%
%ADD12R,0.0394X0.0315*%
%ADD13R,0.0315X0.0394*%
%ADD14R,0.0515X0.0515*%
%ADD15R,0.0394X0.0551*%
%ADD16R,0.2756X0.2756*%
%ADD17R,0.0394X0.0630*%
%ADD18R,0.0630X0.0866*%
%ADD19R,0.0276X0.0709*%
%ADD20OC8,0.0554*%
%ADD21C,0.0984*%
%ADD22C,0.1181*%
%ADD23R,0.1024X0.0787*%
%ADD24C,0.0157*%
%ADD25C,0.0315*%
%ADD26R,0.0396X0.0396*%
%ADD27C,0.0197*%
%ADD28C,0.0236*%
%ADD29C,0.0160*%
D10*
X015738Y003147D03*
X016738Y003147D03*
X018738Y003147D03*
X019738Y003147D03*
X020738Y003147D03*
D11*
X014065Y007147D03*
X013065Y007147D03*
X013065Y009746D03*
X014065Y009746D03*
X009340Y009746D03*
X008340Y009746D03*
X008340Y007147D03*
X009340Y007147D03*
X004616Y007147D03*
X003616Y007147D03*
X003616Y009746D03*
X004616Y009746D03*
D12*
X004509Y005986D03*
X004509Y005395D03*
X016517Y008742D03*
X016517Y009332D03*
X018486Y008525D03*
X018486Y007974D03*
X020257Y007974D03*
X020257Y008525D03*
X021439Y005572D03*
X021439Y005021D03*
X008053Y015238D03*
X008053Y015828D03*
X006084Y015828D03*
X006084Y015238D03*
X004116Y015238D03*
X004116Y015828D03*
D13*
X003624Y013565D03*
X003033Y013565D03*
X005002Y011596D03*
X005592Y011596D03*
X007757Y013565D03*
X008348Y013565D03*
X009726Y011596D03*
X010317Y011596D03*
X012482Y013565D03*
X013072Y013565D03*
X014450Y011596D03*
X015041Y011596D03*
X011891Y005691D03*
X011301Y005691D03*
X009923Y005691D03*
X009332Y005691D03*
D14*
X023982Y005691D03*
X024982Y005691D03*
X025982Y005691D03*
D15*
X013151Y012423D03*
X012403Y012423D03*
X012777Y011557D03*
X008427Y012423D03*
X007679Y012423D03*
X008053Y011557D03*
X003702Y012423D03*
X002954Y012423D03*
X003328Y011557D03*
D16*
X019376Y012415D03*
D17*
X020273Y009541D03*
X018478Y009541D03*
D18*
X010691Y002935D03*
X003053Y002935D03*
X003053Y017108D03*
X010691Y017108D03*
X020257Y017187D03*
X024982Y017187D03*
D19*
X023850Y018250D03*
X023358Y018250D03*
X022866Y018250D03*
X022374Y018250D03*
X021881Y018250D03*
X021389Y018250D03*
X009578Y018171D03*
X009086Y018171D03*
X008594Y018171D03*
X008102Y018171D03*
X007610Y018171D03*
X007118Y018171D03*
X006626Y018171D03*
X006133Y018171D03*
X005641Y018171D03*
X005149Y018171D03*
X004657Y018171D03*
X004165Y018171D03*
X004165Y003998D03*
X004657Y003998D03*
X005149Y003998D03*
X005641Y003998D03*
X006133Y003998D03*
X006626Y003998D03*
X007118Y003998D03*
X007610Y003998D03*
X008102Y003998D03*
X008594Y003998D03*
X009086Y003998D03*
X009578Y003998D03*
D20*
X009992Y002423D03*
X003752Y002423D03*
X003752Y016596D03*
X009992Y016596D03*
X020976Y016517D03*
X024263Y016517D03*
D21*
X023998Y013880D02*
X023013Y013880D01*
X024785Y012482D02*
X024785Y011498D01*
D22*
X022324Y011399D02*
X022324Y012580D01*
D23*
X019470Y005927D03*
X019470Y004667D03*
D24*
X002247Y000679D02*
X002225Y000657D01*
X025691Y000657D01*
X025670Y000679D01*
X025524Y000932D01*
X025448Y001214D01*
X025448Y001506D01*
X025524Y001788D01*
X025670Y002041D01*
X025876Y002247D01*
X026129Y002393D01*
X026411Y002469D01*
X026703Y002469D01*
X026985Y002393D01*
X027237Y002247D01*
X027259Y002225D01*
X027259Y017817D01*
X027237Y017796D01*
X026985Y017650D01*
X026703Y017574D01*
X026411Y017574D01*
X026129Y017650D01*
X025876Y017796D01*
X025670Y018002D01*
X025524Y018255D01*
X025448Y018537D01*
X025448Y018829D01*
X025524Y019111D01*
X025670Y019363D01*
X025691Y019385D01*
X023234Y019385D01*
X023330Y019288D01*
X023675Y018944D01*
X023702Y018880D01*
X023977Y018880D01*
X024082Y018984D01*
X024146Y019011D01*
X024156Y019037D01*
X024234Y019114D01*
X024335Y019156D01*
X024841Y019156D01*
X024942Y019114D01*
X025020Y019037D01*
X025062Y018936D01*
X025062Y018430D01*
X025020Y018328D01*
X024942Y018251D01*
X024841Y018209D01*
X024335Y018209D01*
X024319Y018216D01*
X024263Y018160D01*
X024263Y017840D01*
X024221Y017739D01*
X024144Y017662D01*
X024043Y017620D01*
X023657Y017620D01*
X023604Y017642D01*
X023550Y017620D01*
X023220Y017620D01*
X023220Y016597D01*
X023266Y016597D01*
X023368Y016555D01*
X023445Y016478D01*
X023487Y016377D01*
X023487Y015871D01*
X023445Y015769D01*
X023368Y015692D01*
X023266Y015650D01*
X022760Y015650D01*
X022659Y015692D01*
X022582Y015769D01*
X022540Y015871D01*
X022540Y015881D01*
X021832Y015173D01*
X021832Y013924D01*
X022310Y013446D01*
X022448Y013446D01*
X022376Y013519D01*
X022279Y013753D01*
X022279Y014006D01*
X022376Y014240D01*
X022555Y014419D01*
X022595Y014436D01*
X022623Y014464D01*
X022876Y014569D01*
X024135Y014569D01*
X024388Y014464D01*
X024416Y014436D01*
X024456Y014419D01*
X024635Y014240D01*
X024732Y014006D01*
X024732Y013753D01*
X024635Y013519D01*
X024456Y013340D01*
X024416Y013323D01*
X024388Y013295D01*
X024135Y013191D01*
X022939Y013191D01*
X023059Y013071D01*
X023191Y012753D01*
X023191Y011227D01*
X023059Y010909D01*
X022815Y010665D01*
X022757Y010641D01*
X022757Y008742D01*
X022760Y008706D01*
X022779Y008638D01*
X022796Y008607D01*
X022796Y008607D01*
X022822Y008572D01*
X022889Y008518D01*
X022970Y008489D01*
X023013Y008486D01*
X023235Y008486D01*
X023658Y008349D01*
X023658Y008349D01*
X024017Y008088D01*
X024017Y008088D01*
X024017Y008088D01*
X024278Y007728D01*
X024278Y007728D01*
X024415Y007306D01*
X024415Y007193D01*
X024431Y007155D01*
X024431Y006146D01*
X024473Y006104D01*
X024482Y006083D01*
X024491Y006104D01*
X024549Y006162D01*
X024549Y010765D01*
X024350Y010847D01*
X024134Y011063D01*
X024017Y011345D01*
X024017Y012635D01*
X024134Y012917D01*
X024350Y013133D01*
X024632Y013250D01*
X024938Y013250D01*
X025220Y013133D01*
X025436Y012917D01*
X025553Y012635D01*
X025553Y011345D01*
X025436Y011063D01*
X025415Y011042D01*
X025415Y006162D01*
X025473Y006104D01*
X025515Y006003D01*
X025515Y005378D01*
X025473Y005277D01*
X025415Y005219D01*
X025415Y005211D01*
X025349Y005052D01*
X024955Y004658D01*
X024955Y004658D01*
X024834Y004536D01*
X024674Y004470D01*
X021274Y004470D01*
X021220Y004462D01*
X021188Y004470D01*
X020257Y004470D01*
X020257Y004218D01*
X020216Y004117D01*
X020138Y004040D01*
X020037Y003998D01*
X018903Y003998D01*
X018802Y004040D01*
X018725Y004117D01*
X018683Y004218D01*
X018683Y004470D01*
X018075Y004470D01*
X017171Y003566D01*
X017171Y003468D01*
X017190Y003449D01*
X017271Y003253D01*
X017271Y003041D01*
X017190Y002845D01*
X017040Y002695D01*
X016844Y002614D01*
X016632Y002614D01*
X016436Y002695D01*
X016286Y002845D01*
X016238Y002961D01*
X016190Y002845D01*
X016040Y002695D01*
X015844Y002614D01*
X015632Y002614D01*
X015436Y002695D01*
X015286Y002845D01*
X015205Y003041D01*
X015205Y003253D01*
X015286Y003449D01*
X015305Y003468D01*
X015305Y004013D01*
X015371Y004172D01*
X015492Y004294D01*
X017134Y005936D01*
X017134Y005936D01*
X017256Y006058D01*
X017415Y006124D01*
X018683Y006124D01*
X018683Y006375D01*
X018725Y006477D01*
X018802Y006554D01*
X018856Y006576D01*
X016655Y006576D01*
X016547Y006621D01*
X015017Y008151D01*
X012506Y008151D01*
X011597Y007243D01*
X011597Y006986D01*
X011596Y006984D01*
X011596Y006028D01*
X011596Y006028D01*
X011652Y006084D01*
X012130Y006084D01*
X012246Y005969D01*
X012246Y005726D01*
X012343Y005629D01*
X012420Y005551D01*
X012462Y005450D01*
X012462Y005376D01*
X012860Y005376D01*
X013789Y006305D01*
X013789Y006672D01*
X013750Y006711D01*
X013750Y007583D01*
X013865Y007698D01*
X014264Y007698D01*
X014380Y007583D01*
X014380Y006711D01*
X014340Y006672D01*
X014340Y006136D01*
X014298Y006034D01*
X013208Y004944D01*
X013130Y004866D01*
X013029Y004824D01*
X009348Y004824D01*
X009072Y004549D01*
X009306Y004549D01*
X009332Y004522D01*
X009359Y004549D01*
X009798Y004549D01*
X009913Y004434D01*
X009913Y003562D01*
X009798Y003446D01*
X009359Y003446D01*
X009332Y003473D01*
X009306Y003446D01*
X008867Y003446D01*
X008840Y003473D01*
X008813Y003446D01*
X008375Y003446D01*
X008348Y003473D01*
X008321Y003446D01*
X007883Y003446D01*
X007856Y003473D01*
X007829Y003446D01*
X007391Y003446D01*
X007364Y003473D01*
X007337Y003446D01*
X006898Y003446D01*
X006872Y003473D01*
X006845Y003446D01*
X006406Y003446D01*
X006380Y003473D01*
X006353Y003446D01*
X005914Y003446D01*
X005887Y003473D01*
X005861Y003446D01*
X005422Y003446D01*
X005395Y003473D01*
X005369Y003446D01*
X004930Y003446D01*
X004887Y003490D01*
X004864Y003477D01*
X004818Y003465D01*
X004657Y003465D01*
X004657Y003998D01*
X004657Y004531D01*
X004555Y004531D01*
X004632Y004608D01*
X005311Y004608D01*
X005396Y004523D01*
X005395Y004522D01*
X005369Y004549D01*
X004930Y004549D01*
X004887Y004505D01*
X004864Y004519D01*
X004818Y004531D01*
X004657Y004531D01*
X004657Y003998D01*
X004657Y003998D01*
X004657Y003998D01*
X004657Y003465D01*
X004496Y003465D01*
X004450Y003477D01*
X004428Y003490D01*
X004384Y003446D01*
X003946Y003446D01*
X003830Y003562D01*
X003830Y004434D01*
X003870Y004473D01*
X003870Y004617D01*
X003915Y004726D01*
X004214Y005025D01*
X004214Y005058D01*
X004116Y005156D01*
X004116Y005634D01*
X004172Y005691D01*
X004116Y005747D01*
X004116Y006225D01*
X004231Y006340D01*
X004340Y006340D01*
X004340Y006672D01*
X004301Y006711D01*
X004301Y007583D01*
X004416Y007698D01*
X004815Y007698D01*
X004931Y007583D01*
X004931Y007222D01*
X007274Y004879D01*
X007334Y004818D01*
X007334Y004909D01*
X007376Y005010D01*
X007454Y005088D01*
X009051Y006685D01*
X009025Y006711D01*
X009025Y007583D01*
X009141Y007698D01*
X009540Y007698D01*
X009655Y007583D01*
X009655Y006711D01*
X009616Y006672D01*
X009616Y006040D01*
X009628Y006028D01*
X009684Y006084D01*
X010162Y006084D01*
X010260Y005986D01*
X010963Y005986D01*
X011006Y006028D01*
X011006Y006870D01*
X010923Y006870D01*
X010807Y006986D01*
X010807Y007545D01*
X010923Y007660D01*
X011180Y007660D01*
X012216Y008697D01*
X012325Y008742D01*
X015198Y008742D01*
X015307Y008697D01*
X015390Y008614D01*
X016836Y007167D01*
X018757Y007167D01*
X019372Y007781D01*
X019372Y008308D01*
X019417Y008417D01*
X019692Y008692D01*
X019775Y008776D01*
X019884Y008820D01*
X019919Y008820D01*
X019919Y009105D01*
X019880Y009144D01*
X019880Y009937D01*
X019995Y010053D01*
X020552Y010053D01*
X020667Y009937D01*
X020667Y009144D01*
X020628Y009105D01*
X020628Y008788D01*
X020651Y008764D01*
X020651Y008286D01*
X020601Y008236D01*
X020621Y008200D01*
X020633Y008155D01*
X020633Y007974D01*
X020257Y007974D01*
X020257Y007974D01*
X020257Y007638D01*
X020037Y007638D01*
X019992Y007650D01*
X019962Y007667D01*
X019962Y007600D01*
X019917Y007492D01*
X019130Y006704D01*
X019047Y006621D01*
X018986Y006596D01*
X020037Y006596D01*
X020138Y006554D01*
X020216Y006477D01*
X020257Y006375D01*
X020257Y006124D01*
X021188Y006124D01*
X021220Y006132D01*
X021274Y006124D01*
X023510Y006124D01*
X023565Y006178D01*
X023565Y006960D01*
X023549Y006998D01*
X023549Y007084D01*
X023542Y007168D01*
X023490Y007327D01*
X023392Y007463D01*
X023256Y007561D01*
X023097Y007613D01*
X023013Y007620D01*
X022822Y007620D01*
X022460Y007747D01*
X022460Y007747D01*
X022162Y007987D01*
X022162Y007987D01*
X022162Y007987D01*
X022066Y008140D01*
X022060Y008149D01*
X022055Y008159D01*
X022015Y008223D01*
X022015Y008223D01*
X021978Y008283D01*
X021978Y008283D01*
X021891Y008585D01*
X021891Y010641D01*
X021834Y010665D01*
X021590Y010909D01*
X021458Y011227D01*
X021458Y012753D01*
X021585Y013058D01*
X021216Y013428D01*
X021105Y013538D01*
X021045Y013683D01*
X021045Y015415D01*
X021070Y015474D01*
X008446Y015474D01*
X008446Y015234D01*
X009053Y014628D01*
X012832Y014628D01*
X012933Y014586D01*
X013011Y014508D01*
X013306Y014213D01*
X013348Y014112D01*
X013348Y013922D01*
X013427Y013843D01*
X013427Y012895D01*
X013430Y012895D01*
X013545Y012780D01*
X013545Y012066D01*
X013430Y011950D01*
X013134Y011950D01*
X013171Y011914D01*
X013171Y011553D01*
X013298Y011425D01*
X013340Y011324D01*
X013340Y010221D01*
X013380Y010182D01*
X013380Y009310D01*
X013264Y009194D01*
X012865Y009194D01*
X012750Y009310D01*
X012750Y010182D01*
X012789Y010221D01*
X012789Y011084D01*
X012499Y011084D01*
X012383Y011200D01*
X012383Y011872D01*
X012151Y011872D01*
X012050Y011914D01*
X011973Y011991D01*
X011970Y011997D01*
X011970Y009646D01*
X012028Y009588D01*
X012070Y009487D01*
X012070Y008981D01*
X012028Y008880D01*
X011950Y008802D01*
X011849Y008760D01*
X011343Y008760D01*
X011242Y008802D01*
X011164Y008880D01*
X011122Y008981D01*
X011122Y009487D01*
X011164Y009588D01*
X011222Y009646D01*
X011222Y012759D01*
X011164Y012817D01*
X011122Y012918D01*
X011122Y013424D01*
X011164Y013525D01*
X011242Y013603D01*
X011343Y013645D01*
X011541Y013645D01*
X011673Y013776D01*
X011778Y013882D01*
X011915Y013939D01*
X012112Y013939D01*
X012168Y013995D01*
X012270Y014037D01*
X012694Y014037D01*
X012708Y014031D01*
X012663Y014076D01*
X008884Y014076D01*
X008782Y014118D01*
X008017Y014883D01*
X007774Y014883D01*
X007659Y014999D01*
X007659Y015477D01*
X007660Y015477D01*
X007622Y015515D01*
X007580Y015616D01*
X007580Y015800D01*
X007542Y015838D01*
X007542Y015477D01*
X007500Y015376D01*
X007423Y015298D01*
X007321Y015256D01*
X006816Y015256D01*
X006714Y015298D01*
X006637Y015376D01*
X006596Y015474D01*
X006478Y015474D01*
X006478Y014999D01*
X006363Y014883D01*
X006360Y014883D01*
X006360Y014860D01*
X006592Y014628D01*
X008108Y014628D01*
X008209Y014586D01*
X008286Y014508D01*
X008582Y014213D01*
X008624Y014112D01*
X008624Y013922D01*
X008702Y013843D01*
X008702Y012895D01*
X008705Y012895D01*
X008820Y012780D01*
X008820Y012066D01*
X008705Y011950D01*
X008410Y011950D01*
X008446Y011914D01*
X008446Y011553D01*
X008574Y011425D01*
X008616Y011324D01*
X008616Y010221D01*
X008655Y010182D01*
X008655Y009310D01*
X008540Y009194D01*
X008141Y009194D01*
X008025Y009310D01*
X008025Y010182D01*
X008065Y010221D01*
X008065Y011084D01*
X007774Y011084D01*
X007659Y011200D01*
X007659Y011872D01*
X007427Y011872D01*
X007326Y011914D01*
X007248Y011991D01*
X007206Y012092D01*
X007206Y012731D01*
X007125Y012697D01*
X006619Y012697D01*
X006517Y012739D01*
X006440Y012817D01*
X006398Y012918D01*
X006398Y013424D01*
X006440Y013525D01*
X006517Y013603D01*
X006619Y013645D01*
X006844Y013645D01*
X006965Y013765D01*
X007065Y013865D01*
X007195Y013919D01*
X007368Y013919D01*
X007444Y013995D01*
X007545Y014037D01*
X007970Y014037D01*
X007984Y014031D01*
X007939Y014076D01*
X006423Y014076D01*
X006322Y014118D01*
X005928Y014512D01*
X005851Y014590D01*
X005809Y014691D01*
X005809Y014883D01*
X005806Y014883D01*
X005771Y014919D01*
X005771Y014493D01*
X005729Y014391D01*
X005651Y014314D01*
X005550Y014272D01*
X005044Y014272D01*
X004943Y014314D01*
X004865Y014391D01*
X004823Y014493D01*
X004823Y014999D01*
X004856Y015079D01*
X004509Y015426D01*
X004509Y014999D01*
X004394Y014883D01*
X004151Y014883D01*
X003899Y014632D01*
X003899Y013922D01*
X003978Y013843D01*
X003978Y013286D01*
X003899Y013207D01*
X003899Y012895D01*
X003981Y012895D01*
X004096Y012780D01*
X004096Y012066D01*
X003981Y011950D01*
X003685Y011950D01*
X003722Y011914D01*
X003722Y011553D01*
X003849Y011425D01*
X003891Y011324D01*
X003891Y010221D01*
X003931Y010182D01*
X003931Y009310D01*
X003815Y009194D01*
X003416Y009194D01*
X003301Y009310D01*
X003301Y010182D01*
X003340Y010221D01*
X003340Y011084D01*
X003050Y011084D01*
X002935Y011200D01*
X002935Y011872D01*
X002703Y011872D01*
X002601Y011914D01*
X002524Y011991D01*
X002482Y012092D01*
X002482Y012731D01*
X002400Y012697D01*
X001894Y012697D01*
X001793Y012739D01*
X001715Y012817D01*
X001674Y012918D01*
X001674Y013424D01*
X001715Y013525D01*
X001754Y013563D01*
X001754Y017580D01*
X001782Y017648D01*
X001506Y017574D01*
X001214Y017574D01*
X000932Y017650D01*
X000679Y017796D01*
X000657Y017817D01*
X000657Y002225D01*
X000679Y002247D01*
X000932Y002393D01*
X001214Y002469D01*
X001506Y002469D01*
X001788Y002393D01*
X002041Y002247D01*
X002247Y002041D01*
X002393Y001788D01*
X002469Y001506D01*
X002469Y001214D01*
X002393Y000932D01*
X002247Y000679D01*
X002318Y000803D02*
X025598Y000803D01*
X025516Y000959D02*
X002400Y000959D01*
X002442Y001115D02*
X025475Y001115D01*
X025448Y001271D02*
X002469Y001271D01*
X002469Y001427D02*
X025448Y001427D01*
X025469Y001583D02*
X002448Y001583D01*
X002406Y001739D02*
X025510Y001739D01*
X025585Y001895D02*
X002331Y001895D01*
X002237Y002051D02*
X025679Y002051D01*
X025835Y002206D02*
X002081Y002206D01*
X001841Y002362D02*
X002624Y002362D01*
X002628Y002359D02*
X002669Y002335D01*
X002714Y002323D01*
X002974Y002323D01*
X002974Y002856D01*
X002559Y002856D01*
X002559Y002478D01*
X002571Y002433D01*
X002595Y002392D01*
X002628Y002359D01*
X002559Y002518D02*
X000657Y002518D01*
X000657Y002362D02*
X000879Y002362D01*
X000657Y002674D02*
X002559Y002674D01*
X002559Y002830D02*
X000657Y002830D01*
X000657Y002986D02*
X002974Y002986D01*
X002974Y003013D02*
X002974Y002856D01*
X003131Y002856D01*
X003131Y002323D01*
X003391Y002323D01*
X003437Y002335D01*
X003477Y002359D01*
X003511Y002392D01*
X003534Y002433D01*
X003546Y002478D01*
X003546Y002856D01*
X003131Y002856D01*
X003131Y003013D01*
X002974Y003013D01*
X002559Y003013D01*
X002559Y003391D01*
X002571Y003437D01*
X002595Y003477D01*
X002628Y003511D01*
X002669Y003534D01*
X002714Y003546D01*
X002974Y003546D01*
X002974Y003013D01*
X002974Y003142D02*
X003131Y003142D01*
X003131Y003013D02*
X003131Y003546D01*
X003391Y003546D01*
X003437Y003534D01*
X003477Y003511D01*
X003511Y003477D01*
X003534Y003437D01*
X003546Y003391D01*
X003546Y003013D01*
X003131Y003013D01*
X003131Y002986D02*
X010612Y002986D01*
X010612Y003013D02*
X010612Y002856D01*
X010769Y002856D01*
X010769Y002323D01*
X011029Y002323D01*
X011075Y002335D01*
X011115Y002359D01*
X011149Y002392D01*
X011172Y002433D01*
X011184Y002478D01*
X011184Y002856D01*
X010769Y002856D01*
X010769Y003013D01*
X011184Y003013D01*
X011184Y003391D01*
X011172Y003437D01*
X011149Y003477D01*
X011115Y003511D01*
X011075Y003534D01*
X011029Y003546D01*
X010769Y003546D01*
X010769Y003013D01*
X010612Y003013D01*
X010197Y003013D01*
X010197Y003391D01*
X010209Y003437D01*
X010233Y003477D01*
X010266Y003511D01*
X010307Y003534D01*
X010352Y003546D01*
X010612Y003546D01*
X010612Y003013D01*
X010612Y003142D02*
X010769Y003142D01*
X010769Y002986D02*
X015227Y002986D01*
X015205Y003142D02*
X011184Y003142D01*
X011184Y003298D02*
X015223Y003298D01*
X015291Y003454D02*
X011162Y003454D01*
X010769Y003454D02*
X010612Y003454D01*
X010612Y003298D02*
X010769Y003298D01*
X010769Y002830D02*
X010612Y002830D01*
X010612Y002856D02*
X010612Y002323D01*
X010352Y002323D01*
X010307Y002335D01*
X010266Y002359D01*
X010233Y002392D01*
X010209Y002433D01*
X010197Y002478D01*
X010197Y002856D01*
X010612Y002856D01*
X010612Y002674D02*
X010769Y002674D01*
X010769Y002518D02*
X010612Y002518D01*
X010612Y002362D02*
X010769Y002362D01*
X011119Y002362D02*
X026076Y002362D01*
X027037Y002362D02*
X027259Y002362D01*
X027259Y002518D02*
X011184Y002518D01*
X011184Y002674D02*
X015486Y002674D01*
X015301Y002830D02*
X011184Y002830D01*
X010197Y002830D02*
X003546Y002830D01*
X003546Y002674D02*
X010197Y002674D01*
X010197Y002518D02*
X003546Y002518D01*
X003481Y002362D02*
X010262Y002362D01*
X010197Y003142D02*
X003546Y003142D01*
X003546Y003298D02*
X010197Y003298D01*
X010219Y003454D02*
X009806Y003454D01*
X009913Y003610D02*
X015305Y003610D01*
X015305Y003766D02*
X009913Y003766D01*
X009913Y003922D02*
X015305Y003922D01*
X015332Y004078D02*
X009913Y004078D01*
X009913Y004234D02*
X015433Y004234D01*
X015589Y004390D02*
X009913Y004390D01*
X009800Y004546D02*
X015745Y004546D01*
X015901Y004702D02*
X009226Y004702D01*
X009308Y004546D02*
X009356Y004546D01*
X009234Y005100D02*
X008594Y004460D01*
X008594Y003998D01*
X008102Y003998D02*
X008102Y004165D01*
X007610Y003998D02*
X007610Y004854D01*
X009340Y006584D01*
X009340Y005698D01*
X009332Y005691D01*
X009616Y006106D02*
X011006Y006106D01*
X011006Y006262D02*
X009616Y006262D01*
X009616Y006418D02*
X011006Y006418D01*
X011006Y006574D02*
X009616Y006574D01*
X009655Y006730D02*
X011006Y006730D01*
X010907Y006886D02*
X009655Y006886D01*
X009655Y007042D02*
X010807Y007042D01*
X010807Y007198D02*
X009655Y007198D01*
X009655Y007354D02*
X010807Y007354D01*
X010807Y007510D02*
X009655Y007510D01*
X009572Y007666D02*
X011185Y007666D01*
X011341Y007822D02*
X000657Y007822D01*
X000657Y007978D02*
X011497Y007978D01*
X011653Y008134D02*
X000657Y008134D01*
X000657Y008290D02*
X011809Y008290D01*
X011965Y008446D02*
X000657Y008446D01*
X000657Y008602D02*
X012121Y008602D01*
X012042Y008914D02*
X016124Y008914D01*
X016124Y008981D02*
X016124Y008503D01*
X016239Y008387D01*
X016371Y008387D01*
X016713Y008045D01*
X016713Y007576D01*
X016828Y007461D01*
X017388Y007461D01*
X017503Y007576D01*
X017503Y007750D01*
X017924Y008171D01*
X018114Y008171D01*
X018110Y008155D01*
X018110Y007974D01*
X018486Y007974D01*
X018486Y007974D01*
X018861Y007974D01*
X018861Y008155D01*
X018849Y008200D01*
X018829Y008236D01*
X018880Y008286D01*
X018880Y008764D01*
X018840Y008804D01*
X018840Y009113D01*
X018872Y009144D01*
X018872Y009937D01*
X018756Y010053D01*
X018200Y010053D01*
X018084Y009937D01*
X018084Y009144D01*
X018131Y009097D01*
X018131Y008880D01*
X017707Y008880D01*
X017576Y008826D01*
X017256Y008505D01*
X016911Y008849D01*
X016911Y008981D01*
X016842Y009050D01*
X016857Y009065D01*
X016881Y009106D01*
X016893Y009151D01*
X016893Y009332D01*
X016517Y009332D01*
X016142Y009332D01*
X016142Y009151D01*
X016154Y009106D01*
X016177Y009065D01*
X016193Y009050D01*
X016124Y008981D01*
X016175Y009070D02*
X012070Y009070D01*
X012070Y009226D02*
X012834Y009226D01*
X012750Y009382D02*
X012070Y009382D01*
X012049Y009538D02*
X012750Y009538D01*
X012750Y009694D02*
X011970Y009694D01*
X011970Y009850D02*
X012750Y009850D01*
X012750Y010006D02*
X011970Y010006D01*
X011970Y010161D02*
X012750Y010161D01*
X012789Y010317D02*
X011970Y010317D01*
X011970Y010473D02*
X012789Y010473D01*
X012789Y010629D02*
X011970Y010629D01*
X011970Y010785D02*
X012789Y010785D01*
X012789Y010941D02*
X011970Y010941D01*
X011970Y011097D02*
X012486Y011097D01*
X012383Y011253D02*
X011970Y011253D01*
X011970Y011409D02*
X012383Y011409D01*
X012383Y011565D02*
X011970Y011565D01*
X011970Y011721D02*
X012383Y011721D01*
X012138Y011877D02*
X011970Y011877D01*
X012403Y012423D02*
X012403Y013486D01*
X012482Y013565D01*
X013072Y013565D02*
X013151Y013486D01*
X013151Y012423D01*
X013545Y012345D02*
X019297Y012345D01*
X019297Y012336D02*
X017819Y012336D01*
X017819Y011013D01*
X017831Y010968D01*
X017855Y010927D01*
X017888Y010894D01*
X017929Y010870D01*
X017974Y010858D01*
X019297Y010858D01*
X019297Y012336D01*
X019454Y012336D01*
X019454Y010858D01*
X020777Y010858D01*
X020823Y010870D01*
X020863Y010894D01*
X020897Y010927D01*
X020920Y010968D01*
X020932Y011013D01*
X020932Y012336D01*
X019454Y012336D01*
X019454Y012494D01*
X019297Y012494D01*
X019297Y013972D01*
X017974Y013972D01*
X017929Y013959D01*
X017888Y013936D01*
X017855Y013903D01*
X017831Y013862D01*
X017819Y013816D01*
X017819Y012494D01*
X019297Y012494D01*
X019297Y012336D01*
X019297Y012189D02*
X019454Y012189D01*
X019454Y012033D02*
X019297Y012033D01*
X019297Y011877D02*
X019454Y011877D01*
X019454Y011721D02*
X019297Y011721D01*
X019297Y011565D02*
X019454Y011565D01*
X019454Y011409D02*
X019297Y011409D01*
X019297Y011253D02*
X019454Y011253D01*
X019454Y011097D02*
X019297Y011097D01*
X019297Y010941D02*
X019454Y010941D01*
X019948Y010006D02*
X018804Y010006D01*
X018872Y009850D02*
X019880Y009850D01*
X019880Y009694D02*
X018872Y009694D01*
X018872Y009538D02*
X019880Y009538D01*
X019880Y009382D02*
X018872Y009382D01*
X018872Y009226D02*
X019880Y009226D01*
X019919Y009070D02*
X018840Y009070D01*
X018840Y008914D02*
X019919Y008914D01*
X019757Y008758D02*
X018880Y008758D01*
X018880Y008602D02*
X019601Y008602D01*
X019445Y008446D02*
X018880Y008446D01*
X018880Y008290D02*
X019372Y008290D01*
X019372Y008134D02*
X018861Y008134D01*
X018861Y007978D02*
X019372Y007978D01*
X019372Y007822D02*
X018861Y007822D01*
X018861Y007793D02*
X018861Y007974D01*
X018486Y007974D01*
X018486Y007638D01*
X018706Y007638D01*
X018752Y007650D01*
X018792Y007674D01*
X018826Y007707D01*
X018849Y007748D01*
X018861Y007793D01*
X018779Y007666D02*
X019256Y007666D01*
X019100Y007510D02*
X017436Y007510D01*
X017503Y007666D02*
X018193Y007666D01*
X018179Y007674D02*
X018220Y007650D01*
X018265Y007638D01*
X018486Y007638D01*
X018486Y007974D01*
X018486Y007974D01*
X018110Y007974D01*
X018110Y007793D01*
X018122Y007748D01*
X018146Y007707D01*
X018179Y007674D01*
X018110Y007822D02*
X017575Y007822D01*
X017731Y007978D02*
X018110Y007978D01*
X018110Y008134D02*
X017887Y008134D01*
X018486Y007974D02*
X018486Y007974D01*
X018486Y007822D02*
X018486Y007822D01*
X018486Y007666D02*
X018486Y007666D01*
X018944Y007354D02*
X016650Y007354D01*
X016779Y007510D02*
X016494Y007510D01*
X016338Y007666D02*
X016713Y007666D01*
X016713Y007822D02*
X016182Y007822D01*
X016026Y007978D02*
X016713Y007978D01*
X016624Y008134D02*
X015870Y008134D01*
X015714Y008290D02*
X016468Y008290D01*
X016181Y008446D02*
X015558Y008446D01*
X015402Y008602D02*
X016124Y008602D01*
X016124Y008758D02*
X000657Y008758D01*
X000657Y008914D02*
X011150Y008914D01*
X011122Y009070D02*
X000657Y009070D01*
X000657Y009226D02*
X003385Y009226D01*
X003301Y009382D02*
X000657Y009382D01*
X000657Y009538D02*
X003301Y009538D01*
X003301Y009694D02*
X000657Y009694D01*
X000657Y009850D02*
X003301Y009850D01*
X003301Y010006D02*
X000657Y010006D01*
X000657Y010161D02*
X003301Y010161D01*
X003340Y010317D02*
X000657Y010317D01*
X000657Y010473D02*
X003340Y010473D01*
X003340Y010629D02*
X000657Y010629D01*
X000657Y010785D02*
X003340Y010785D01*
X003340Y010941D02*
X000657Y010941D01*
X000657Y011097D02*
X003037Y011097D01*
X002935Y011253D02*
X000657Y011253D01*
X000657Y011409D02*
X002935Y011409D01*
X002935Y011565D02*
X000657Y011565D01*
X000657Y011721D02*
X002935Y011721D01*
X002689Y011877D02*
X000657Y011877D01*
X000657Y012033D02*
X002506Y012033D01*
X002482Y012189D02*
X000657Y012189D01*
X000657Y012345D02*
X002482Y012345D01*
X002482Y012501D02*
X000657Y012501D01*
X000657Y012657D02*
X002482Y012657D01*
X002954Y012423D02*
X003033Y012502D01*
X003033Y013565D01*
X002541Y013565D01*
X002147Y013171D01*
X001674Y013125D02*
X000657Y013125D01*
X000657Y012969D02*
X001674Y012969D01*
X001719Y012813D02*
X000657Y012813D01*
X000657Y013281D02*
X001674Y013281D01*
X001679Y013437D02*
X000657Y013437D01*
X000657Y013593D02*
X001754Y013593D01*
X001754Y013749D02*
X000657Y013749D01*
X000657Y013905D02*
X001754Y013905D01*
X001754Y014061D02*
X000657Y014061D01*
X000657Y014217D02*
X001754Y014217D01*
X001754Y014373D02*
X000657Y014373D01*
X000657Y014529D02*
X001754Y014529D01*
X001754Y014685D02*
X000657Y014685D01*
X000657Y014841D02*
X001754Y014841D01*
X001754Y014997D02*
X000657Y014997D01*
X000657Y015153D02*
X001754Y015153D01*
X001754Y015309D02*
X000657Y015309D01*
X000657Y015465D02*
X001754Y015465D01*
X001754Y015621D02*
X000657Y015621D01*
X000657Y015777D02*
X001754Y015777D01*
X001754Y015933D02*
X000657Y015933D01*
X000657Y016089D02*
X001754Y016089D01*
X001754Y016245D02*
X000657Y016245D01*
X000657Y016401D02*
X001754Y016401D01*
X001754Y016557D02*
X000657Y016557D01*
X000657Y016713D02*
X001754Y016713D01*
X001754Y016869D02*
X000657Y016869D01*
X000657Y017025D02*
X001754Y017025D01*
X001754Y017181D02*
X000657Y017181D01*
X000657Y017337D02*
X001754Y017337D01*
X001754Y017493D02*
X000657Y017493D01*
X000657Y017649D02*
X000936Y017649D01*
X000670Y017805D02*
X000657Y017805D01*
X002541Y017338D02*
X002559Y017357D01*
X002559Y017187D01*
X002974Y017187D01*
X002974Y017720D01*
X002922Y017720D01*
X003752Y018549D01*
X003752Y017762D01*
X003794Y017660D01*
X003811Y017643D01*
X003811Y017382D01*
X003865Y017252D01*
X003964Y017152D01*
X004155Y016961D01*
X004155Y016261D01*
X003864Y016261D01*
X003763Y016219D01*
X003685Y016142D01*
X003643Y016041D01*
X003643Y015616D01*
X003685Y015515D01*
X003723Y015477D01*
X003722Y015477D01*
X003722Y015234D01*
X003390Y014902D01*
X003348Y014800D01*
X003348Y013994D01*
X003347Y013995D01*
X003245Y014037D01*
X002821Y014037D01*
X002719Y013995D01*
X002643Y013919D01*
X002541Y013919D01*
X002541Y017338D01*
X002541Y017337D02*
X002559Y017337D01*
X002541Y017181D02*
X002974Y017181D01*
X002974Y017187D02*
X002974Y017029D01*
X003131Y017029D01*
X003131Y016496D01*
X003391Y016496D01*
X003437Y016508D01*
X003477Y016532D01*
X003511Y016565D01*
X003534Y016606D01*
X003546Y016651D01*
X003546Y017029D01*
X003131Y017029D01*
X003131Y017187D01*
X002974Y017187D01*
X002974Y017337D02*
X003131Y017337D01*
X003131Y017187D02*
X003131Y017720D01*
X003391Y017720D01*
X003437Y017708D01*
X003477Y017684D01*
X003511Y017651D01*
X003534Y017610D01*
X003546Y017564D01*
X003546Y017187D01*
X003131Y017187D01*
X003131Y017181D02*
X003936Y017181D01*
X003829Y017337D02*
X003546Y017337D01*
X003546Y017493D02*
X003811Y017493D01*
X003805Y017649D02*
X003512Y017649D01*
X003752Y017805D02*
X003007Y017805D01*
X002974Y017649D02*
X003131Y017649D01*
X003131Y017493D02*
X002974Y017493D01*
X003163Y017961D02*
X003752Y017961D01*
X003752Y018117D02*
X003319Y018117D01*
X003475Y018272D02*
X003752Y018272D01*
X003752Y018428D02*
X003631Y018428D01*
X004165Y018171D02*
X004165Y017452D01*
X004509Y017108D01*
X004509Y015927D01*
X004411Y015828D01*
X004116Y015828D01*
X003643Y015777D02*
X002541Y015777D01*
X002541Y015933D02*
X003643Y015933D01*
X003663Y016089D02*
X002541Y016089D01*
X002541Y016245D02*
X003824Y016245D01*
X004155Y016401D02*
X002541Y016401D01*
X002541Y016557D02*
X002603Y016557D01*
X002595Y016565D02*
X002628Y016532D01*
X002669Y016508D01*
X002714Y016496D01*
X002974Y016496D01*
X002974Y017029D01*
X002559Y017029D01*
X002559Y016651D01*
X002571Y016606D01*
X002595Y016565D01*
X002559Y016713D02*
X002541Y016713D01*
X002541Y016869D02*
X002559Y016869D01*
X002559Y017025D02*
X002541Y017025D01*
X002974Y017025D02*
X003131Y017025D01*
X003131Y016869D02*
X002974Y016869D01*
X002974Y016713D02*
X003131Y016713D01*
X003131Y016557D02*
X002974Y016557D01*
X003502Y016557D02*
X004155Y016557D01*
X004155Y016713D02*
X003546Y016713D01*
X003546Y016869D02*
X004155Y016869D01*
X004092Y017025D02*
X003546Y017025D01*
X004657Y017551D02*
X004657Y018171D01*
X005149Y018171D02*
X005149Y017649D01*
X005494Y017305D01*
X006576Y017305D01*
X008053Y015828D01*
X021340Y015828D01*
X021881Y016370D01*
X021881Y018250D01*
X020976Y018272D02*
X016636Y018272D01*
X016480Y018117D02*
X020976Y018117D01*
X020976Y017961D02*
X016308Y017961D01*
X016335Y017972D02*
X016441Y018077D01*
X017066Y018702D01*
X020994Y018702D01*
X020976Y018659D01*
X020976Y017840D01*
X021018Y017739D01*
X021095Y017662D01*
X021197Y017620D01*
X021527Y017620D01*
X021527Y016516D01*
X021193Y016183D01*
X008442Y016183D01*
X008406Y016219D01*
X008304Y016261D01*
X008121Y016261D01*
X006777Y017605D01*
X006742Y017620D01*
X006845Y017620D01*
X006872Y017646D01*
X006898Y017620D01*
X007258Y017620D01*
X007293Y017536D01*
X007398Y017431D01*
X007644Y017184D01*
X007782Y017128D01*
X009899Y017128D01*
X010036Y017184D01*
X010141Y017290D01*
X010197Y017345D01*
X010197Y017187D01*
X010612Y017187D01*
X010612Y017720D01*
X010571Y017720D01*
X010767Y017915D01*
X016198Y017915D01*
X016335Y017972D01*
X016792Y018428D02*
X020976Y018428D01*
X020976Y018584D02*
X016948Y018584D01*
X016202Y018896D02*
X008952Y018896D01*
X008928Y018955D02*
X008817Y019066D01*
X008498Y019385D01*
X016691Y019385D01*
X015969Y018663D01*
X010537Y018663D01*
X010400Y018606D01*
X009913Y018119D01*
X009913Y018607D01*
X009798Y018722D01*
X009359Y018722D01*
X009332Y018695D01*
X009306Y018722D01*
X008988Y018722D01*
X008988Y018810D01*
X008928Y018955D01*
X008830Y019052D02*
X016358Y019052D01*
X016514Y019208D02*
X008674Y019208D01*
X008518Y019364D02*
X016670Y019364D01*
X016046Y018740D02*
X008988Y018740D01*
X009913Y018584D02*
X010378Y018584D01*
X010222Y018428D02*
X009913Y018428D01*
X009913Y018272D02*
X010066Y018272D01*
X010656Y017805D02*
X020991Y017805D01*
X021127Y017649D02*
X020750Y017649D01*
X020751Y017643D02*
X020739Y017689D01*
X020715Y017729D01*
X020682Y017763D01*
X020641Y017786D01*
X020596Y017798D01*
X020336Y017798D01*
X020336Y017265D01*
X020751Y017265D01*
X020751Y017643D01*
X020751Y017493D02*
X021527Y017493D01*
X021527Y017337D02*
X020751Y017337D01*
X020751Y017108D02*
X020336Y017108D01*
X020336Y016575D01*
X020596Y016575D01*
X020641Y016587D01*
X020682Y016611D01*
X020715Y016644D01*
X020739Y016685D01*
X020751Y016730D01*
X020751Y017108D01*
X020751Y017025D02*
X021527Y017025D01*
X021527Y017181D02*
X020336Y017181D01*
X020336Y017108D02*
X020336Y017265D01*
X020179Y017265D01*
X020179Y017108D01*
X020336Y017108D01*
X020336Y017025D02*
X020179Y017025D01*
X020179Y017108D02*
X020179Y016575D01*
X019919Y016575D01*
X019874Y016587D01*
X019833Y016611D01*
X019799Y016644D01*
X019776Y016685D01*
X019764Y016730D01*
X019764Y017108D01*
X020179Y017108D01*
X020179Y017181D02*
X010769Y017181D01*
X010769Y017187D02*
X011184Y017187D01*
X011184Y017564D01*
X011172Y017610D01*
X011149Y017651D01*
X011115Y017684D01*
X011075Y017708D01*
X011029Y017720D01*
X010769Y017720D01*
X010769Y017187D01*
X010612Y017187D01*
X010612Y017029D01*
X010769Y017029D01*
X010769Y016496D01*
X011029Y016496D01*
X011075Y016508D01*
X011115Y016532D01*
X011149Y016565D01*
X011172Y016606D01*
X011184Y016651D01*
X011184Y017029D01*
X010769Y017029D01*
X010769Y017187D01*
X010769Y017337D02*
X010612Y017337D01*
X010612Y017493D02*
X010769Y017493D01*
X010769Y017649D02*
X010612Y017649D01*
X011150Y017649D02*
X019765Y017649D01*
X019764Y017643D02*
X019764Y017265D01*
X020179Y017265D01*
X020179Y017798D01*
X019919Y017798D01*
X019874Y017786D01*
X019833Y017763D01*
X019799Y017729D01*
X019776Y017689D01*
X019764Y017643D01*
X019764Y017493D02*
X011184Y017493D01*
X011184Y017337D02*
X019764Y017337D01*
X019764Y017025D02*
X011184Y017025D01*
X011184Y016869D02*
X019764Y016869D01*
X019768Y016713D02*
X011184Y016713D01*
X011140Y016557D02*
X021527Y016557D01*
X021527Y016713D02*
X020747Y016713D01*
X020751Y016869D02*
X021527Y016869D01*
X021411Y016401D02*
X007981Y016401D01*
X007826Y016557D02*
X010241Y016557D01*
X010233Y016565D02*
X010266Y016532D01*
X010307Y016508D01*
X010352Y016496D01*
X010612Y016496D01*
X010612Y017029D01*
X010197Y017029D01*
X010197Y016651D01*
X010209Y016606D01*
X010233Y016565D01*
X010197Y016713D02*
X007670Y016713D01*
X007514Y016869D02*
X010197Y016869D01*
X010197Y017025D02*
X007358Y017025D01*
X007202Y017181D02*
X007653Y017181D01*
X007492Y017337D02*
X007046Y017337D01*
X006890Y017493D02*
X007336Y017493D01*
X008345Y016245D02*
X021255Y016245D01*
X021066Y015465D02*
X008446Y015465D01*
X008446Y015309D02*
X021045Y015309D01*
X021045Y015153D02*
X008527Y015153D01*
X008683Y014997D02*
X021045Y014997D01*
X021045Y014841D02*
X008839Y014841D01*
X008995Y014685D02*
X021045Y014685D01*
X021045Y014529D02*
X012990Y014529D01*
X013146Y014373D02*
X021045Y014373D01*
X021045Y014217D02*
X013302Y014217D01*
X013348Y014061D02*
X021045Y014061D01*
X021045Y013905D02*
X020894Y013905D01*
X020897Y013903D02*
X020863Y013936D01*
X020823Y013959D01*
X020777Y013972D01*
X019454Y013972D01*
X019454Y012494D01*
X020932Y012494D01*
X020932Y013816D01*
X020920Y013862D01*
X020897Y013903D01*
X020932Y013749D02*
X021045Y013749D01*
X021082Y013593D02*
X020932Y013593D01*
X020932Y013437D02*
X021206Y013437D01*
X021362Y013281D02*
X020932Y013281D01*
X020932Y013125D02*
X021518Y013125D01*
X021548Y012969D02*
X020932Y012969D01*
X020932Y012813D02*
X021483Y012813D01*
X021458Y012657D02*
X020932Y012657D01*
X020932Y012501D02*
X021458Y012501D01*
X021458Y012345D02*
X019454Y012345D01*
X019454Y012501D02*
X019297Y012501D01*
X019297Y012657D02*
X019454Y012657D01*
X019454Y012813D02*
X019297Y012813D01*
X019297Y012969D02*
X019454Y012969D01*
X019454Y013125D02*
X019297Y013125D01*
X019297Y013281D02*
X019454Y013281D01*
X019454Y013437D02*
X019297Y013437D01*
X019297Y013593D02*
X019454Y013593D01*
X019454Y013749D02*
X019297Y013749D01*
X019297Y013905D02*
X019454Y013905D01*
X017857Y013905D02*
X013365Y013905D01*
X013427Y013749D02*
X017819Y013749D01*
X017819Y013593D02*
X013427Y013593D01*
X013427Y013437D02*
X017819Y013437D01*
X017819Y013281D02*
X013427Y013281D01*
X013427Y013125D02*
X017819Y013125D01*
X017819Y012969D02*
X013427Y012969D01*
X013512Y012813D02*
X017819Y012813D01*
X017819Y012657D02*
X013545Y012657D01*
X013545Y012501D02*
X017819Y012501D01*
X017819Y012189D02*
X013545Y012189D01*
X013512Y012033D02*
X017819Y012033D01*
X017819Y011877D02*
X015392Y011877D01*
X015395Y011874D02*
X015280Y011990D01*
X014802Y011990D01*
X014746Y011934D01*
X014689Y011990D01*
X014211Y011990D01*
X014096Y011874D01*
X014096Y011631D01*
X013831Y011366D01*
X013789Y011265D01*
X013789Y010221D01*
X013750Y010182D01*
X013750Y009310D01*
X013865Y009194D01*
X014264Y009194D01*
X014380Y009310D01*
X014380Y010182D01*
X014340Y010221D01*
X014340Y011096D01*
X014446Y011202D01*
X014689Y011202D01*
X014746Y011259D01*
X014802Y011202D01*
X015045Y011202D01*
X015926Y010322D01*
X015926Y010135D01*
X016041Y010020D01*
X016600Y010020D01*
X016715Y010135D01*
X016715Y010695D01*
X016600Y010810D01*
X016217Y010810D01*
X015395Y011631D01*
X015395Y011874D01*
X015395Y011721D02*
X017819Y011721D01*
X017819Y011565D02*
X015461Y011565D01*
X015617Y011409D02*
X017819Y011409D01*
X017819Y011253D02*
X015773Y011253D01*
X015929Y011097D02*
X017819Y011097D01*
X017846Y010941D02*
X016085Y010941D01*
X015618Y010629D02*
X014340Y010629D01*
X014340Y010473D02*
X015774Y010473D01*
X015926Y010317D02*
X014340Y010317D01*
X014380Y010161D02*
X015926Y010161D01*
X016222Y010415D02*
X016320Y010415D01*
X016222Y010415D02*
X015041Y011596D01*
X014751Y011253D02*
X014740Y011253D01*
X014341Y011097D02*
X015150Y011097D01*
X015306Y010941D02*
X014340Y010941D01*
X014340Y010785D02*
X015462Y010785D01*
X016625Y010785D02*
X021713Y010785D01*
X021577Y010941D02*
X020905Y010941D01*
X020932Y011097D02*
X021512Y011097D01*
X021458Y011253D02*
X020932Y011253D01*
X020932Y011409D02*
X021458Y011409D01*
X021458Y011565D02*
X020932Y011565D01*
X020932Y011721D02*
X021458Y011721D01*
X021458Y011877D02*
X020932Y011877D01*
X020932Y012033D02*
X021458Y012033D01*
X021458Y012189D02*
X020932Y012189D01*
X021891Y010629D02*
X016715Y010629D01*
X016715Y010473D02*
X021891Y010473D01*
X021891Y010317D02*
X016715Y010317D01*
X016715Y010161D02*
X021891Y010161D01*
X021891Y010006D02*
X020599Y010006D01*
X020667Y009850D02*
X021891Y009850D01*
X021891Y009694D02*
X020667Y009694D01*
X020667Y009538D02*
X021891Y009538D01*
X021891Y009382D02*
X020667Y009382D01*
X020667Y009226D02*
X021891Y009226D01*
X021891Y009070D02*
X020628Y009070D01*
X020628Y008914D02*
X021891Y008914D01*
X021891Y008758D02*
X020651Y008758D01*
X020651Y008602D02*
X021891Y008602D01*
X021931Y008446D02*
X020651Y008446D01*
X020651Y008290D02*
X021976Y008290D01*
X022070Y008134D02*
X020633Y008134D01*
X020633Y007978D02*
X022173Y007978D01*
X022367Y007822D02*
X020633Y007822D01*
X020633Y007793D02*
X020633Y007974D01*
X020257Y007974D01*
X020257Y007638D01*
X020478Y007638D01*
X020523Y007650D01*
X020564Y007674D01*
X020597Y007707D01*
X020621Y007748D01*
X020633Y007793D01*
X020551Y007666D02*
X022691Y007666D01*
X023327Y007510D02*
X019925Y007510D01*
X019962Y007666D02*
X019964Y007666D01*
X020257Y007666D02*
X020257Y007666D01*
X020257Y007822D02*
X020257Y007822D01*
X020257Y007974D02*
X020257Y007974D01*
X019779Y007354D02*
X023471Y007354D01*
X023533Y007198D02*
X019623Y007198D01*
X019467Y007042D02*
X023549Y007042D01*
X023565Y006886D02*
X019311Y006886D01*
X019155Y006730D02*
X023565Y006730D01*
X023565Y006574D02*
X020090Y006574D01*
X020240Y006418D02*
X023565Y006418D01*
X023565Y006262D02*
X020257Y006262D01*
X018850Y006574D02*
X014340Y006574D01*
X014340Y006418D02*
X018700Y006418D01*
X018683Y006262D02*
X014340Y006262D01*
X014328Y006106D02*
X017373Y006106D01*
X017149Y005950D02*
X014214Y005950D01*
X014058Y005794D02*
X016993Y005794D01*
X016837Y005638D02*
X013902Y005638D01*
X013746Y005482D02*
X016681Y005482D01*
X016525Y005326D02*
X013590Y005326D01*
X013434Y005170D02*
X016369Y005170D01*
X016213Y005014D02*
X013278Y005014D01*
X013110Y004858D02*
X016057Y004858D01*
X017527Y003922D02*
X027259Y003922D01*
X027259Y003766D02*
X017371Y003766D01*
X017215Y003610D02*
X027259Y003610D01*
X027259Y003454D02*
X021073Y003454D01*
X021123Y003405D02*
X020995Y003532D01*
X020828Y003602D01*
X020647Y003602D01*
X020480Y003532D01*
X020353Y003405D01*
X020283Y003238D01*
X020283Y003057D01*
X020353Y002890D01*
X020480Y002762D01*
X020647Y002693D01*
X020828Y002693D01*
X020995Y002762D01*
X021123Y002890D01*
X021192Y003057D01*
X021192Y003238D01*
X021123Y003405D01*
X021167Y003298D02*
X027259Y003298D01*
X027259Y003142D02*
X021192Y003142D01*
X021163Y002986D02*
X027259Y002986D01*
X027259Y002830D02*
X021063Y002830D01*
X020412Y002830D02*
X020063Y002830D01*
X020123Y002890D02*
X019995Y002762D01*
X019828Y002693D01*
X019647Y002693D01*
X019480Y002762D01*
X019353Y002890D01*
X019283Y003057D01*
X019283Y003238D01*
X019353Y003405D01*
X019480Y003532D01*
X019647Y003602D01*
X019828Y003602D01*
X019995Y003532D01*
X020123Y003405D01*
X020192Y003238D01*
X020192Y003057D01*
X020123Y002890D01*
X020163Y002986D02*
X020313Y002986D01*
X020283Y003142D02*
X020192Y003142D01*
X020167Y003298D02*
X020309Y003298D01*
X020402Y003454D02*
X020073Y003454D01*
X019402Y003454D02*
X019048Y003454D01*
X019071Y003431D02*
X019022Y003480D01*
X018966Y003520D01*
X018905Y003552D01*
X018840Y003573D01*
X018772Y003583D01*
X018738Y003583D01*
X018738Y003147D01*
X018738Y003147D01*
X019174Y003147D01*
X019174Y003113D01*
X019163Y003045D01*
X019142Y002980D01*
X019111Y002919D01*
X019071Y002863D01*
X019022Y002815D01*
X018966Y002774D01*
X018905Y002743D01*
X018840Y002722D01*
X018772Y002711D01*
X018738Y002711D01*
X018738Y003147D01*
X018738Y003147D01*
X018738Y002711D01*
X018703Y002711D01*
X018636Y002722D01*
X018570Y002743D01*
X018509Y002774D01*
X018454Y002815D01*
X018405Y002863D01*
X018365Y002919D01*
X018334Y002980D01*
X018312Y003045D01*
X018302Y003113D01*
X018302Y003147D01*
X018738Y003147D01*
X019174Y003147D01*
X019174Y003182D01*
X019163Y003249D01*
X019142Y003315D01*
X019111Y003376D01*
X019071Y003431D01*
X019147Y003298D02*
X019309Y003298D01*
X019283Y003142D02*
X019174Y003142D01*
X019144Y002986D02*
X019313Y002986D01*
X019412Y002830D02*
X019038Y002830D01*
X018738Y002830D02*
X018738Y002830D01*
X018738Y002986D02*
X018738Y002986D01*
X018738Y003142D02*
X018738Y003142D01*
X018738Y003147D02*
X018738Y003147D01*
X018738Y003147D01*
X018302Y003147D01*
X018302Y003182D01*
X018312Y003249D01*
X018334Y003315D01*
X018365Y003376D01*
X018405Y003431D01*
X018454Y003480D01*
X018509Y003520D01*
X018570Y003552D01*
X018636Y003573D01*
X018703Y003583D01*
X018738Y003583D01*
X018738Y003147D01*
X018738Y003298D02*
X018738Y003298D01*
X018738Y003454D02*
X018738Y003454D01*
X018428Y003454D02*
X017185Y003454D01*
X017252Y003298D02*
X018328Y003298D01*
X018302Y003142D02*
X017271Y003142D01*
X017248Y002986D02*
X018331Y002986D01*
X018438Y002830D02*
X017175Y002830D01*
X016989Y002674D02*
X027259Y002674D01*
X027259Y004078D02*
X020177Y004078D01*
X020257Y004234D02*
X027259Y004234D01*
X027259Y004390D02*
X020257Y004390D01*
X018763Y004078D02*
X017683Y004078D01*
X017839Y004234D02*
X018683Y004234D01*
X018683Y004390D02*
X017995Y004390D01*
X016301Y002830D02*
X016175Y002830D01*
X015989Y002674D02*
X016486Y002674D01*
X012974Y005100D02*
X012187Y005100D01*
X012187Y005395D01*
X011891Y005691D01*
X012246Y005794D02*
X013278Y005794D01*
X013122Y005638D02*
X012334Y005638D01*
X012449Y005482D02*
X012966Y005482D01*
X012974Y005100D02*
X014065Y006191D01*
X014065Y007147D01*
X014380Y007198D02*
X015970Y007198D01*
X015814Y007354D02*
X014380Y007354D01*
X014380Y007510D02*
X015658Y007510D01*
X015502Y007666D02*
X014297Y007666D01*
X013832Y007666D02*
X013256Y007666D01*
X013252Y007668D02*
X013206Y007680D01*
X013065Y007680D01*
X013065Y007147D01*
X013065Y007147D01*
X013361Y007147D01*
X013361Y006769D01*
X013349Y006724D01*
X013326Y006683D01*
X013292Y006650D01*
X013252Y006626D01*
X013206Y006614D01*
X013065Y006614D01*
X013065Y007147D01*
X013065Y007147D01*
X013361Y007147D01*
X013361Y007525D01*
X013349Y007571D01*
X013326Y007611D01*
X013292Y007645D01*
X013252Y007668D01*
X013065Y007666D02*
X013065Y007666D01*
X013065Y007680D02*
X012923Y007680D01*
X012877Y007668D01*
X012837Y007645D01*
X012803Y007611D01*
X012780Y007571D01*
X012768Y007525D01*
X012768Y007147D01*
X012768Y006769D01*
X012780Y006724D01*
X012803Y006683D01*
X012837Y006650D01*
X012877Y006626D01*
X012923Y006614D01*
X013065Y006614D01*
X013065Y007147D01*
X013065Y007147D01*
X012768Y007147D01*
X013065Y007147D01*
X013065Y007147D01*
X013065Y007680D01*
X013065Y007510D02*
X013065Y007510D01*
X013065Y007354D02*
X013065Y007354D01*
X013065Y007198D02*
X013065Y007198D01*
X013065Y007042D02*
X013065Y007042D01*
X013065Y006886D02*
X013065Y006886D01*
X013065Y006730D02*
X013065Y006730D01*
X013351Y006730D02*
X013750Y006730D01*
X013750Y006886D02*
X013361Y006886D01*
X013361Y007042D02*
X013750Y007042D01*
X013750Y007198D02*
X013361Y007198D01*
X013361Y007354D02*
X013750Y007354D01*
X013750Y007510D02*
X013361Y007510D01*
X012873Y007666D02*
X012020Y007666D01*
X011864Y007510D02*
X012768Y007510D01*
X012768Y007354D02*
X011708Y007354D01*
X011597Y007198D02*
X012768Y007198D01*
X012768Y007042D02*
X011597Y007042D01*
X011596Y006886D02*
X012768Y006886D01*
X012778Y006730D02*
X011596Y006730D01*
X011596Y006574D02*
X013789Y006574D01*
X013789Y006418D02*
X011596Y006418D01*
X011596Y006262D02*
X013746Y006262D01*
X013590Y006106D02*
X011596Y006106D01*
X012246Y005950D02*
X013434Y005950D01*
X014380Y006730D02*
X016438Y006730D01*
X016282Y006886D02*
X014380Y006886D01*
X014380Y007042D02*
X016126Y007042D01*
X016806Y007198D02*
X018788Y007198D01*
X017353Y008602D02*
X017158Y008602D01*
X017002Y008758D02*
X017509Y008758D01*
X016911Y008914D02*
X018131Y008914D01*
X018131Y009070D02*
X016860Y009070D01*
X016893Y009226D02*
X018084Y009226D01*
X018084Y009382D02*
X016893Y009382D01*
X016893Y009332D02*
X016893Y009513D01*
X016881Y009559D01*
X016857Y009600D01*
X016824Y009633D01*
X016783Y009656D01*
X016738Y009669D01*
X016517Y009669D01*
X016297Y009669D01*
X016251Y009656D01*
X016211Y009633D01*
X016177Y009600D01*
X016154Y009559D01*
X016142Y009513D01*
X016142Y009332D01*
X016517Y009332D01*
X016517Y009332D01*
X016517Y009669D01*
X016517Y009332D01*
X016517Y009332D01*
X016517Y009332D01*
X016893Y009332D01*
X016886Y009538D02*
X018084Y009538D01*
X018084Y009694D02*
X014380Y009694D01*
X014380Y009850D02*
X018084Y009850D01*
X018152Y010006D02*
X014380Y010006D01*
X014065Y009746D02*
X014065Y011210D01*
X014450Y011596D01*
X014096Y011721D02*
X013171Y011721D01*
X013171Y011565D02*
X014030Y011565D01*
X013874Y011409D02*
X013305Y011409D01*
X013340Y011253D02*
X013789Y011253D01*
X013789Y011097D02*
X013340Y011097D01*
X013340Y010941D02*
X013789Y010941D01*
X013789Y010785D02*
X013340Y010785D01*
X013340Y010629D02*
X013789Y010629D01*
X013789Y010473D02*
X013340Y010473D01*
X013340Y010317D02*
X013789Y010317D01*
X013750Y010161D02*
X013380Y010161D01*
X013380Y010006D02*
X013750Y010006D01*
X013750Y009850D02*
X013380Y009850D01*
X013380Y009694D02*
X013750Y009694D01*
X013750Y009538D02*
X013380Y009538D01*
X013380Y009382D02*
X013750Y009382D01*
X013834Y009226D02*
X013295Y009226D01*
X013065Y009746D02*
X013065Y011269D01*
X012777Y011557D01*
X013171Y011877D02*
X014099Y011877D01*
X013072Y013565D02*
X013072Y014057D01*
X012777Y014352D01*
X008939Y014352D01*
X008053Y015238D01*
X007659Y015309D02*
X007433Y015309D01*
X007537Y015465D02*
X007659Y015465D01*
X007580Y015621D02*
X007542Y015621D01*
X007542Y015777D02*
X007580Y015777D01*
X007069Y015730D02*
X006970Y015828D01*
X006084Y015828D01*
X004903Y017009D01*
X004903Y017305D01*
X004657Y017551D01*
X004509Y015927D02*
X005297Y015139D01*
X005297Y014746D01*
X004823Y014685D02*
X003953Y014685D01*
X003899Y014529D02*
X004823Y014529D01*
X004884Y014373D02*
X003899Y014373D01*
X003899Y014217D02*
X006223Y014217D01*
X006067Y014373D02*
X005710Y014373D01*
X005771Y014529D02*
X005911Y014529D01*
X005811Y014685D02*
X005771Y014685D01*
X005771Y014841D02*
X005809Y014841D01*
X006084Y014746D02*
X006084Y015238D01*
X006478Y015309D02*
X006704Y015309D01*
X006600Y015465D02*
X006478Y015465D01*
X006478Y015153D02*
X007659Y015153D01*
X007661Y014997D02*
X006476Y014997D01*
X006379Y014841D02*
X008060Y014841D01*
X008216Y014685D02*
X006535Y014685D01*
X006478Y014352D02*
X006084Y014746D01*
X006478Y014352D02*
X008053Y014352D01*
X008348Y014057D01*
X008348Y013565D01*
X008427Y013486D01*
X008427Y012423D01*
X008820Y012345D02*
X011222Y012345D01*
X011222Y012189D02*
X008820Y012189D01*
X008788Y012033D02*
X011222Y012033D01*
X011222Y011877D02*
X010668Y011877D01*
X010671Y011874D02*
X010556Y011990D01*
X010078Y011990D01*
X010021Y011934D01*
X009965Y011990D01*
X009487Y011990D01*
X009372Y011874D01*
X009372Y011631D01*
X009107Y011366D01*
X009065Y011265D01*
X009065Y010221D01*
X009025Y010182D01*
X009025Y009310D01*
X009141Y009194D01*
X009540Y009194D01*
X009655Y009310D01*
X009655Y010182D01*
X009616Y010221D01*
X009616Y011096D01*
X009722Y011202D01*
X009965Y011202D01*
X010021Y011259D01*
X010078Y011202D01*
X010320Y011202D01*
X010533Y010990D01*
X010533Y010416D01*
X010529Y010416D01*
X010414Y010301D01*
X010414Y009742D01*
X010529Y009626D01*
X011088Y009626D01*
X011204Y009742D01*
X011204Y010301D01*
X011088Y010416D01*
X011084Y010416D01*
X011084Y011159D01*
X011042Y011260D01*
X010965Y011338D01*
X010671Y011631D01*
X010671Y011874D01*
X010671Y011721D02*
X011222Y011721D01*
X011222Y011565D02*
X010737Y011565D01*
X010893Y011409D02*
X011222Y011409D01*
X011222Y011253D02*
X011045Y011253D01*
X011084Y011097D02*
X011222Y011097D01*
X011222Y010941D02*
X011084Y010941D01*
X011084Y010785D02*
X011222Y010785D01*
X011222Y010629D02*
X011084Y010629D01*
X011084Y010473D02*
X011222Y010473D01*
X011222Y010317D02*
X011187Y010317D01*
X011204Y010161D02*
X011222Y010161D01*
X011222Y010006D02*
X011204Y010006D01*
X011204Y009850D02*
X011222Y009850D01*
X011222Y009694D02*
X011156Y009694D01*
X011143Y009538D02*
X009655Y009538D01*
X009655Y009694D02*
X010462Y009694D01*
X010414Y009850D02*
X009655Y009850D01*
X009655Y010006D02*
X010414Y010006D01*
X010414Y010161D02*
X009655Y010161D01*
X009616Y010317D02*
X010430Y010317D01*
X010533Y010473D02*
X009616Y010473D01*
X009616Y010629D02*
X010533Y010629D01*
X010533Y010785D02*
X009616Y010785D01*
X009616Y010941D02*
X010533Y010941D01*
X010425Y011097D02*
X009617Y011097D01*
X009340Y011210D02*
X009726Y011596D01*
X009372Y011721D02*
X008446Y011721D01*
X008446Y011565D02*
X009305Y011565D01*
X009150Y011409D02*
X008580Y011409D01*
X008616Y011253D02*
X009065Y011253D01*
X009065Y011097D02*
X008616Y011097D01*
X008616Y010941D02*
X009065Y010941D01*
X009065Y010785D02*
X008616Y010785D01*
X008616Y010629D02*
X009065Y010629D01*
X009065Y010473D02*
X008616Y010473D01*
X008616Y010317D02*
X009065Y010317D01*
X009025Y010161D02*
X008655Y010161D01*
X008655Y010006D02*
X009025Y010006D01*
X009025Y009850D02*
X008655Y009850D01*
X008655Y009694D02*
X009025Y009694D01*
X009025Y009538D02*
X008655Y009538D01*
X008655Y009382D02*
X009025Y009382D01*
X009109Y009226D02*
X008571Y009226D01*
X008109Y009226D02*
X004847Y009226D01*
X004815Y009194D02*
X004931Y009310D01*
X004931Y010182D01*
X004891Y010221D01*
X004891Y011096D01*
X004998Y011202D01*
X005241Y011202D01*
X005297Y011259D01*
X005317Y011239D01*
X005317Y010852D01*
X005358Y010751D01*
X005689Y010420D01*
X005689Y010135D01*
X005805Y010020D01*
X006364Y010020D01*
X006479Y010135D01*
X006479Y010695D01*
X006364Y010810D01*
X006079Y010810D01*
X005868Y011021D01*
X005868Y011239D01*
X005946Y011318D01*
X005946Y011874D01*
X005831Y011990D01*
X005353Y011990D01*
X005297Y011934D01*
X005241Y011990D01*
X004763Y011990D01*
X004647Y011874D01*
X004647Y011631D01*
X004382Y011366D01*
X004340Y011265D01*
X004340Y010221D01*
X004301Y010182D01*
X004301Y009310D01*
X004416Y009194D01*
X004815Y009194D01*
X004931Y009382D02*
X008025Y009382D01*
X008025Y009538D02*
X004931Y009538D01*
X004931Y009694D02*
X008025Y009694D01*
X008025Y009850D02*
X004931Y009850D01*
X004931Y010006D02*
X008025Y010006D01*
X008025Y010161D02*
X006479Y010161D01*
X006479Y010317D02*
X008065Y010317D01*
X008065Y010473D02*
X006479Y010473D01*
X006479Y010629D02*
X008065Y010629D01*
X008065Y010785D02*
X006388Y010785D01*
X005948Y010941D02*
X008065Y010941D01*
X007761Y011097D02*
X005868Y011097D01*
X005882Y011253D02*
X007659Y011253D01*
X007659Y011409D02*
X005946Y011409D01*
X005946Y011565D02*
X007659Y011565D01*
X007659Y011721D02*
X005946Y011721D01*
X005944Y011877D02*
X007413Y011877D01*
X007231Y012033D02*
X004064Y012033D01*
X004096Y012189D02*
X007206Y012189D01*
X007206Y012345D02*
X004096Y012345D01*
X004096Y012501D02*
X007206Y012501D01*
X007206Y012657D02*
X004096Y012657D01*
X004063Y012813D02*
X006443Y012813D01*
X006398Y012969D02*
X003899Y012969D01*
X003899Y013125D02*
X006398Y013125D01*
X006398Y013281D02*
X003973Y013281D01*
X003978Y013437D02*
X006403Y013437D01*
X006508Y013593D02*
X003978Y013593D01*
X003978Y013749D02*
X006949Y013749D01*
X007161Y013905D02*
X003916Y013905D01*
X003899Y014061D02*
X007954Y014061D01*
X008421Y014373D02*
X008528Y014373D01*
X008577Y014217D02*
X008684Y014217D01*
X008624Y014061D02*
X012678Y014061D01*
X011834Y013905D02*
X008640Y013905D01*
X008702Y013749D02*
X011645Y013749D01*
X011232Y013593D02*
X008702Y013593D01*
X008702Y013437D02*
X011128Y013437D01*
X011122Y013281D02*
X008702Y013281D01*
X008702Y013125D02*
X011122Y013125D01*
X011122Y012969D02*
X008702Y012969D01*
X008787Y012813D02*
X011168Y012813D01*
X011222Y012657D02*
X008820Y012657D01*
X008820Y012501D02*
X011222Y012501D01*
X010317Y011596D02*
X010809Y011104D01*
X010809Y010021D01*
X011122Y009382D02*
X009655Y009382D01*
X009571Y009226D02*
X011122Y009226D01*
X012488Y008134D02*
X015034Y008134D01*
X015190Y007978D02*
X012332Y007978D01*
X012176Y007822D02*
X015346Y007822D01*
X016142Y009226D02*
X014295Y009226D01*
X014380Y009382D02*
X016142Y009382D01*
X016148Y009538D02*
X014380Y009538D01*
X016517Y009538D02*
X016517Y009538D01*
X016517Y009382D02*
X016517Y009382D01*
X018478Y009541D02*
X018486Y009336D01*
X022757Y009382D02*
X024549Y009382D01*
X024549Y009538D02*
X022757Y009538D01*
X022757Y009694D02*
X024549Y009694D01*
X024549Y009850D02*
X022757Y009850D01*
X022757Y010006D02*
X024549Y010006D01*
X024549Y010161D02*
X022757Y010161D01*
X022757Y010317D02*
X024549Y010317D01*
X024549Y010473D02*
X022757Y010473D01*
X022757Y010629D02*
X024549Y010629D01*
X024498Y010785D02*
X022936Y010785D01*
X023072Y010941D02*
X024256Y010941D01*
X024120Y011097D02*
X023137Y011097D01*
X023191Y011253D02*
X024055Y011253D01*
X024017Y011409D02*
X023191Y011409D01*
X023191Y011565D02*
X024017Y011565D01*
X024017Y011721D02*
X023191Y011721D01*
X023191Y011877D02*
X024017Y011877D01*
X024017Y012033D02*
X023191Y012033D01*
X023191Y012189D02*
X024017Y012189D01*
X024017Y012345D02*
X023191Y012345D01*
X023191Y012501D02*
X024017Y012501D01*
X024027Y012657D02*
X023191Y012657D01*
X023165Y012813D02*
X024091Y012813D01*
X024187Y012969D02*
X023101Y012969D01*
X023005Y013125D02*
X024343Y013125D01*
X024353Y013281D02*
X027259Y013281D01*
X027259Y013125D02*
X025228Y013125D01*
X025383Y012969D02*
X027259Y012969D01*
X027259Y012813D02*
X025479Y012813D01*
X025543Y012657D02*
X027259Y012657D01*
X027259Y012501D02*
X025553Y012501D01*
X025553Y012345D02*
X027259Y012345D01*
X027259Y012189D02*
X025553Y012189D01*
X025553Y012033D02*
X027259Y012033D01*
X027259Y011877D02*
X025553Y011877D01*
X025553Y011721D02*
X027259Y011721D01*
X027259Y011565D02*
X025553Y011565D01*
X025553Y011409D02*
X027259Y011409D01*
X027259Y011253D02*
X025515Y011253D01*
X025450Y011097D02*
X027259Y011097D01*
X027259Y010941D02*
X025415Y010941D01*
X025415Y010785D02*
X027259Y010785D01*
X027259Y010629D02*
X025415Y010629D01*
X025415Y010473D02*
X027259Y010473D01*
X027259Y010317D02*
X025415Y010317D01*
X025415Y010161D02*
X027259Y010161D01*
X027259Y010006D02*
X025415Y010006D01*
X025415Y009850D02*
X027259Y009850D01*
X027259Y009694D02*
X025415Y009694D01*
X025415Y009538D02*
X027259Y009538D01*
X027259Y009382D02*
X025415Y009382D01*
X025415Y009226D02*
X027259Y009226D01*
X027259Y009070D02*
X025415Y009070D01*
X025415Y008914D02*
X027259Y008914D01*
X027259Y008758D02*
X025415Y008758D01*
X025415Y008602D02*
X027259Y008602D01*
X027259Y008446D02*
X025415Y008446D01*
X025415Y008290D02*
X027259Y008290D01*
X027259Y008134D02*
X025415Y008134D01*
X025415Y007978D02*
X027259Y007978D01*
X027259Y007822D02*
X025415Y007822D01*
X025415Y007666D02*
X027259Y007666D01*
X027259Y007510D02*
X025415Y007510D01*
X025415Y007354D02*
X027259Y007354D01*
X027259Y007198D02*
X025415Y007198D01*
X025415Y007042D02*
X027259Y007042D01*
X027259Y006886D02*
X025415Y006886D01*
X025415Y006730D02*
X027259Y006730D01*
X027259Y006574D02*
X025415Y006574D01*
X025415Y006418D02*
X027259Y006418D01*
X027259Y006262D02*
X025415Y006262D01*
X025471Y006106D02*
X025604Y006106D01*
X025643Y006145D02*
X025528Y006030D01*
X025528Y005352D01*
X025643Y005236D01*
X026321Y005236D01*
X026436Y005352D01*
X026436Y006030D01*
X026321Y006145D01*
X025643Y006145D01*
X025528Y005950D02*
X025515Y005950D01*
X025515Y005794D02*
X025528Y005794D01*
X025515Y005638D02*
X025528Y005638D01*
X025515Y005482D02*
X025528Y005482D01*
X025553Y005326D02*
X025493Y005326D01*
X025398Y005170D02*
X027259Y005170D01*
X027259Y005014D02*
X025312Y005014D01*
X025156Y004858D02*
X027259Y004858D01*
X027259Y004702D02*
X025000Y004702D01*
X024844Y004546D02*
X027259Y004546D01*
X027259Y005326D02*
X026411Y005326D01*
X026436Y005482D02*
X027259Y005482D01*
X027259Y005638D02*
X026436Y005638D01*
X026436Y005794D02*
X027259Y005794D01*
X027259Y005950D02*
X026436Y005950D01*
X026360Y006106D02*
X027259Y006106D01*
X024549Y006262D02*
X024431Y006262D01*
X024431Y006418D02*
X024549Y006418D01*
X024549Y006574D02*
X024431Y006574D01*
X024431Y006730D02*
X024549Y006730D01*
X024549Y006886D02*
X024431Y006886D01*
X024431Y007042D02*
X024549Y007042D01*
X024549Y007198D02*
X024415Y007198D01*
X024399Y007354D02*
X024549Y007354D01*
X024549Y007510D02*
X024349Y007510D01*
X024298Y007666D02*
X024549Y007666D01*
X024549Y007822D02*
X024210Y007822D01*
X024097Y007978D02*
X024549Y007978D01*
X024549Y008134D02*
X023953Y008134D01*
X023739Y008290D02*
X024549Y008290D01*
X024549Y008446D02*
X023359Y008446D01*
X022800Y008602D02*
X024549Y008602D01*
X024549Y008758D02*
X022757Y008758D01*
X022757Y008914D02*
X024549Y008914D01*
X024549Y009070D02*
X022757Y009070D01*
X022757Y009226D02*
X024549Y009226D01*
X024471Y006106D02*
X024493Y006106D01*
X024553Y013437D02*
X027259Y013437D01*
X027259Y013593D02*
X024666Y013593D01*
X024731Y013749D02*
X027259Y013749D01*
X027259Y013905D02*
X024732Y013905D01*
X024710Y014061D02*
X027259Y014061D01*
X027259Y014217D02*
X024645Y014217D01*
X024502Y014373D02*
X027259Y014373D01*
X027259Y014529D02*
X024230Y014529D01*
X022781Y014529D02*
X021832Y014529D01*
X021832Y014685D02*
X027259Y014685D01*
X027259Y014841D02*
X021832Y014841D01*
X021832Y014997D02*
X027259Y014997D01*
X027259Y015153D02*
X021832Y015153D01*
X021968Y015309D02*
X027259Y015309D01*
X027259Y015465D02*
X022124Y015465D01*
X022280Y015621D02*
X027259Y015621D01*
X027259Y015777D02*
X023448Y015777D01*
X023487Y015933D02*
X027259Y015933D01*
X027259Y016089D02*
X023487Y016089D01*
X023487Y016245D02*
X027259Y016245D01*
X027259Y016401D02*
X023477Y016401D01*
X023364Y016557D02*
X027259Y016557D01*
X027259Y016713D02*
X025471Y016713D01*
X025476Y016730D02*
X025476Y017108D01*
X025061Y017108D01*
X025061Y017265D01*
X025476Y017265D01*
X025476Y017643D01*
X025463Y017689D01*
X025440Y017729D01*
X025407Y017763D01*
X025366Y017786D01*
X025320Y017798D01*
X025061Y017798D01*
X025061Y017265D01*
X024903Y017265D01*
X024903Y017108D01*
X024488Y017108D01*
X024488Y016730D01*
X024500Y016685D01*
X024524Y016644D01*
X024557Y016611D01*
X024598Y016587D01*
X024643Y016575D01*
X024903Y016575D01*
X024903Y017108D01*
X025061Y017108D01*
X025061Y016575D01*
X025320Y016575D01*
X025366Y016587D01*
X025407Y016611D01*
X025440Y016644D01*
X025463Y016685D01*
X025476Y016730D01*
X025476Y016869D02*
X027259Y016869D01*
X027259Y017025D02*
X025476Y017025D01*
X025476Y017337D02*
X027259Y017337D01*
X027259Y017493D02*
X025476Y017493D01*
X025474Y017649D02*
X026133Y017649D01*
X025867Y017805D02*
X024249Y017805D01*
X024263Y017961D02*
X025711Y017961D01*
X025603Y018117D02*
X024263Y018117D01*
X024557Y017763D02*
X024524Y017729D01*
X024500Y017689D01*
X024488Y017643D01*
X024488Y017265D01*
X024903Y017265D01*
X024903Y017798D01*
X024643Y017798D01*
X024598Y017786D01*
X024557Y017763D01*
X024490Y017649D02*
X024112Y017649D01*
X024488Y017493D02*
X023220Y017493D01*
X023220Y017337D02*
X024488Y017337D01*
X024488Y017025D02*
X023220Y017025D01*
X023220Y017181D02*
X024903Y017181D01*
X024903Y017337D02*
X025061Y017337D01*
X025061Y017493D02*
X024903Y017493D01*
X024903Y017649D02*
X025061Y017649D01*
X025061Y017181D02*
X027259Y017181D01*
X027259Y017649D02*
X026981Y017649D01*
X027246Y017805D02*
X027259Y017805D01*
X025519Y018272D02*
X024964Y018272D01*
X025061Y018428D02*
X025477Y018428D01*
X025448Y018584D02*
X025062Y018584D01*
X025062Y018740D02*
X025448Y018740D01*
X025466Y018896D02*
X025062Y018896D01*
X025004Y019052D02*
X025508Y019052D01*
X025580Y019208D02*
X023410Y019208D01*
X023566Y019052D02*
X024172Y019052D01*
X023994Y018896D02*
X023695Y018896D01*
X023254Y019364D02*
X025670Y019364D01*
X022866Y018250D02*
X022866Y016370D01*
X023013Y016124D01*
X022579Y015777D02*
X022436Y015777D01*
X023220Y016713D02*
X024493Y016713D01*
X024488Y016869D02*
X023220Y016869D01*
X024903Y016869D02*
X025061Y016869D01*
X025061Y017025D02*
X024903Y017025D01*
X024903Y016713D02*
X025061Y016713D01*
X022509Y014373D02*
X021832Y014373D01*
X021832Y014217D02*
X022366Y014217D01*
X022301Y014061D02*
X021832Y014061D01*
X021852Y013905D02*
X022279Y013905D01*
X022280Y013749D02*
X022008Y013749D01*
X022164Y013593D02*
X022345Y013593D01*
X020336Y016713D02*
X020179Y016713D01*
X020179Y016869D02*
X020336Y016869D01*
X020336Y017337D02*
X020179Y017337D01*
X020179Y017493D02*
X020336Y017493D01*
X020336Y017649D02*
X020179Y017649D01*
X010769Y017025D02*
X010612Y017025D01*
X010612Y017181D02*
X010027Y017181D01*
X010188Y017337D02*
X010197Y017337D01*
X010612Y016869D02*
X010769Y016869D01*
X010769Y016713D02*
X010612Y016713D01*
X010612Y016557D02*
X010769Y016557D01*
X008372Y014529D02*
X008266Y014529D01*
X007757Y013565D02*
X007265Y013565D01*
X006872Y013171D01*
X007679Y013486D02*
X007757Y013565D01*
X007679Y013486D02*
X007679Y012423D01*
X008446Y011877D02*
X009374Y011877D01*
X010016Y011253D02*
X010027Y011253D01*
X009340Y011210D02*
X009340Y009746D01*
X008340Y009746D02*
X008340Y011269D01*
X008053Y011557D01*
X006084Y010415D02*
X005592Y010907D01*
X005592Y011596D01*
X005302Y011253D02*
X005292Y011253D01*
X005317Y011097D02*
X004893Y011097D01*
X004891Y010941D02*
X005317Y010941D01*
X005344Y010785D02*
X004891Y010785D01*
X004891Y010629D02*
X005480Y010629D01*
X005636Y010473D02*
X004891Y010473D01*
X004891Y010317D02*
X005689Y010317D01*
X005689Y010161D02*
X004931Y010161D01*
X004616Y009746D02*
X004616Y011210D01*
X005002Y011596D01*
X004647Y011721D02*
X003722Y011721D01*
X003722Y011565D02*
X004581Y011565D01*
X004425Y011409D02*
X003856Y011409D01*
X003891Y011253D02*
X004340Y011253D01*
X004340Y011097D02*
X003891Y011097D01*
X003891Y010941D02*
X004340Y010941D01*
X004340Y010785D02*
X003891Y010785D01*
X003891Y010629D02*
X004340Y010629D01*
X004340Y010473D02*
X003891Y010473D01*
X003891Y010317D02*
X004340Y010317D01*
X004301Y010161D02*
X003931Y010161D01*
X003931Y010006D02*
X004301Y010006D01*
X004301Y009850D02*
X003931Y009850D01*
X003931Y009694D02*
X004301Y009694D01*
X004301Y009538D02*
X003931Y009538D01*
X003931Y009382D02*
X004301Y009382D01*
X004385Y009226D02*
X003847Y009226D01*
X003616Y009746D02*
X003616Y011269D01*
X003328Y011557D01*
X003722Y011877D02*
X004650Y011877D01*
X003702Y012423D02*
X003624Y012502D01*
X003624Y013565D01*
X003624Y014746D01*
X004116Y015238D01*
X003722Y015309D02*
X002541Y015309D01*
X002541Y015465D02*
X003722Y015465D01*
X003643Y015621D02*
X002541Y015621D01*
X002541Y015153D02*
X003641Y015153D01*
X003485Y014997D02*
X002541Y014997D01*
X002541Y014841D02*
X003365Y014841D01*
X003348Y014685D02*
X002541Y014685D01*
X002541Y014529D02*
X003348Y014529D01*
X003348Y014373D02*
X002541Y014373D01*
X002541Y014217D02*
X003348Y014217D01*
X003348Y014061D02*
X002541Y014061D01*
X004109Y014841D02*
X004823Y014841D01*
X004823Y014997D02*
X004508Y014997D01*
X004509Y015153D02*
X004782Y015153D01*
X004626Y015309D02*
X004509Y015309D01*
X004383Y007666D02*
X003807Y007666D01*
X003803Y007668D02*
X003757Y007680D01*
X003616Y007680D01*
X003616Y007147D01*
X003616Y007147D01*
X003913Y007147D01*
X003913Y006769D01*
X003900Y006724D01*
X003877Y006683D01*
X003844Y006650D01*
X003803Y006626D01*
X003757Y006614D01*
X003616Y006614D01*
X003616Y007147D01*
X003616Y007147D01*
X003913Y007147D01*
X003913Y007525D01*
X003900Y007571D01*
X003877Y007611D01*
X003844Y007645D01*
X003803Y007668D01*
X003616Y007666D02*
X003616Y007666D01*
X003616Y007680D02*
X003474Y007680D01*
X003429Y007668D01*
X003388Y007645D01*
X003355Y007611D01*
X003331Y007571D01*
X003319Y007525D01*
X003319Y007147D01*
X003319Y006769D01*
X003331Y006724D01*
X003355Y006683D01*
X003388Y006650D01*
X003429Y006626D01*
X003474Y006614D01*
X003616Y006614D01*
X003616Y007147D01*
X003319Y007147D01*
X003616Y007147D01*
X003616Y007147D01*
X003616Y007147D01*
X003616Y007680D01*
X003616Y007510D02*
X003616Y007510D01*
X003616Y007354D02*
X003616Y007354D01*
X003616Y007198D02*
X003616Y007198D01*
X003616Y007042D02*
X003616Y007042D01*
X003616Y006886D02*
X003616Y006886D01*
X003616Y006730D02*
X003616Y006730D01*
X003902Y006730D02*
X004301Y006730D01*
X004301Y006886D02*
X003913Y006886D01*
X003913Y007042D02*
X004301Y007042D01*
X004301Y007198D02*
X003913Y007198D01*
X003913Y007354D02*
X004301Y007354D01*
X004301Y007510D02*
X003913Y007510D01*
X003425Y007666D02*
X000657Y007666D01*
X000657Y007510D02*
X003319Y007510D01*
X003319Y007354D02*
X000657Y007354D01*
X000657Y007198D02*
X003319Y007198D01*
X003319Y007042D02*
X000657Y007042D01*
X000657Y006886D02*
X003319Y006886D01*
X003329Y006730D02*
X000657Y006730D01*
X000657Y006574D02*
X004340Y006574D01*
X004340Y006418D02*
X000657Y006418D01*
X000657Y006262D02*
X004153Y006262D01*
X004116Y006106D02*
X000657Y006106D01*
X000657Y005950D02*
X004116Y005950D01*
X004116Y005794D02*
X000657Y005794D01*
X000657Y005638D02*
X004120Y005638D01*
X004116Y005482D02*
X000657Y005482D01*
X000657Y005326D02*
X004116Y005326D01*
X004116Y005170D02*
X000657Y005170D01*
X000657Y005014D02*
X004203Y005014D01*
X004047Y004858D02*
X000657Y004858D01*
X000657Y004702D02*
X003905Y004702D01*
X003870Y004546D02*
X000657Y004546D01*
X000657Y004390D02*
X003830Y004390D01*
X003830Y004234D02*
X000657Y004234D01*
X000657Y004078D02*
X003830Y004078D01*
X003830Y003922D02*
X000657Y003922D01*
X000657Y003766D02*
X003830Y003766D01*
X003830Y003610D02*
X000657Y003610D01*
X000657Y003454D02*
X002581Y003454D01*
X002559Y003298D02*
X000657Y003298D01*
X000657Y003142D02*
X002559Y003142D01*
X002974Y003298D02*
X003131Y003298D01*
X003131Y003454D02*
X002974Y003454D01*
X003524Y003454D02*
X003938Y003454D01*
X004392Y003454D02*
X004922Y003454D01*
X004657Y003610D02*
X004657Y003610D01*
X004657Y003766D02*
X004657Y003766D01*
X004657Y003922D02*
X004657Y003922D01*
X004657Y004078D02*
X004657Y004078D01*
X004657Y004234D02*
X004657Y004234D01*
X004657Y004390D02*
X004657Y004390D01*
X004570Y004546D02*
X004927Y004546D01*
X005371Y004546D02*
X005373Y004546D01*
X005376Y003454D02*
X005414Y003454D01*
X005869Y003454D02*
X005906Y003454D01*
X006361Y003454D02*
X006398Y003454D01*
X006853Y003454D02*
X006891Y003454D01*
X007345Y003454D02*
X007383Y003454D01*
X007837Y003454D02*
X007875Y003454D01*
X008329Y003454D02*
X008367Y003454D01*
X008821Y003454D02*
X008859Y003454D01*
X009313Y003454D02*
X009351Y003454D01*
X007334Y004858D02*
X007295Y004858D01*
X007380Y005014D02*
X007139Y005014D01*
X006983Y005170D02*
X007536Y005170D01*
X007692Y005326D02*
X006827Y005326D01*
X006671Y005482D02*
X007848Y005482D01*
X008004Y005638D02*
X006515Y005638D01*
X006359Y005794D02*
X008160Y005794D01*
X008316Y005950D02*
X006203Y005950D01*
X006047Y006106D02*
X008472Y006106D01*
X008628Y006262D02*
X005891Y006262D01*
X005735Y006418D02*
X008784Y006418D01*
X008940Y006574D02*
X005579Y006574D01*
X005423Y006730D02*
X008054Y006730D01*
X008055Y006724D02*
X008079Y006683D01*
X008112Y006650D01*
X008153Y006626D01*
X008199Y006614D01*
X008340Y006614D01*
X008340Y007147D01*
X008340Y007147D01*
X008043Y007147D01*
X008043Y006769D01*
X008055Y006724D01*
X008043Y006886D02*
X005267Y006886D01*
X005111Y007042D02*
X008043Y007042D01*
X008043Y007147D02*
X008340Y007147D01*
X008340Y007147D01*
X008340Y006614D01*
X008482Y006614D01*
X008527Y006626D01*
X008568Y006650D01*
X008601Y006683D01*
X008625Y006724D01*
X008637Y006769D01*
X008637Y007147D01*
X008340Y007147D01*
X008340Y007147D01*
X008340Y007680D01*
X008199Y007680D01*
X008153Y007668D01*
X008112Y007645D01*
X008079Y007611D01*
X008055Y007571D01*
X008043Y007525D01*
X008043Y007147D01*
X008043Y007198D02*
X004955Y007198D01*
X004931Y007354D02*
X008043Y007354D01*
X008043Y007510D02*
X004931Y007510D01*
X004848Y007666D02*
X008149Y007666D01*
X008340Y007666D02*
X008340Y007666D01*
X008340Y007680D02*
X008340Y007147D01*
X008340Y007147D01*
X008637Y007147D01*
X008637Y007525D01*
X008625Y007571D01*
X008601Y007611D01*
X008568Y007645D01*
X008527Y007668D01*
X008482Y007680D01*
X008340Y007680D01*
X008340Y007510D02*
X008340Y007510D01*
X008340Y007354D02*
X008340Y007354D01*
X008340Y007198D02*
X008340Y007198D01*
X008340Y007042D02*
X008340Y007042D01*
X008340Y006886D02*
X008340Y006886D01*
X008340Y006730D02*
X008340Y006730D01*
X008626Y006730D02*
X009025Y006730D01*
X009025Y006886D02*
X008637Y006886D01*
X008637Y007042D02*
X009025Y007042D01*
X009025Y007198D02*
X008637Y007198D01*
X008637Y007354D02*
X009025Y007354D01*
X009025Y007510D02*
X008637Y007510D01*
X008531Y007666D02*
X009108Y007666D01*
X009340Y007147D02*
X009340Y006584D01*
X009234Y005100D02*
X012187Y005100D01*
X007118Y004645D02*
X007118Y003998D01*
X007118Y004645D02*
X004616Y007147D01*
X004616Y006092D01*
X004509Y005986D01*
X003131Y002830D02*
X002974Y002830D01*
X002974Y002674D02*
X003131Y002674D01*
X003131Y002518D02*
X002974Y002518D01*
X002974Y002362D02*
X003131Y002362D01*
D25*
X015738Y003147D02*
X015738Y003927D01*
X017502Y005691D01*
X019470Y005691D01*
X019470Y005927D01*
X019470Y005691D02*
X021242Y005691D01*
X021439Y005572D01*
X021242Y005691D02*
X023982Y005691D01*
X023998Y005691D02*
X023998Y007069D01*
X023982Y007084D01*
X023980Y007145D01*
X023974Y007205D01*
X023965Y007266D01*
X023952Y007325D01*
X023935Y007383D01*
X023914Y007441D01*
X023890Y007497D01*
X023862Y007551D01*
X023831Y007603D01*
X023797Y007654D01*
X023760Y007702D01*
X023719Y007747D01*
X023676Y007790D01*
X023631Y007831D01*
X023583Y007868D01*
X023532Y007902D01*
X023480Y007933D01*
X023426Y007961D01*
X023370Y007985D01*
X023312Y008006D01*
X023254Y008023D01*
X023195Y008036D01*
X023134Y008045D01*
X023074Y008051D01*
X023013Y008053D01*
X022428Y008378D02*
X022404Y008420D01*
X022383Y008463D01*
X022365Y008507D01*
X022350Y008553D01*
X022339Y008599D01*
X022331Y008647D01*
X022326Y008694D01*
X022324Y008742D01*
X022324Y011990D01*
X024785Y011990D02*
X024982Y011793D01*
X024982Y005691D01*
X024982Y005297D02*
X024588Y004903D01*
X021242Y004903D01*
X021439Y005021D01*
X021242Y004903D02*
X019470Y004903D01*
X019470Y004667D01*
X019470Y004903D02*
X017895Y004903D01*
X016738Y003746D01*
X016738Y003147D01*
X017108Y007856D02*
X017108Y008151D01*
X016517Y008742D01*
X017108Y007856D02*
X017777Y008525D01*
X018486Y008525D01*
X018486Y009336D01*
X020273Y009541D02*
X020273Y008541D01*
X020257Y008525D01*
X022428Y008378D02*
X022456Y008337D01*
X022487Y008298D01*
X022520Y008261D01*
X022556Y008226D01*
X022595Y008194D01*
X022636Y008166D01*
X022678Y008140D01*
X022723Y008117D01*
X022769Y008098D01*
X022816Y008082D01*
X022864Y008069D01*
X022913Y008060D01*
X022963Y008055D01*
X023013Y008053D01*
X024982Y011793D02*
X024980Y011819D01*
X024975Y011844D01*
X024967Y011868D01*
X024956Y011892D01*
X024941Y011913D01*
X024924Y011932D01*
X024905Y011949D01*
X024884Y011964D01*
X024860Y011975D01*
X024836Y011983D01*
X024811Y011988D01*
X024785Y011990D01*
D26*
X023013Y016124D03*
X024588Y018683D03*
X014943Y017305D03*
X012187Y018880D03*
X007069Y015730D03*
X005297Y014746D03*
X006872Y013171D03*
X006084Y010415D03*
X002147Y013171D03*
X002738Y015336D03*
X010809Y010021D03*
X011596Y009234D03*
X011202Y007265D03*
X016320Y010415D03*
X017108Y007856D03*
X011596Y013171D03*
X005691Y004903D03*
D27*
X004509Y004903D01*
X004509Y005395D01*
X004509Y004903D02*
X004165Y004559D01*
X004165Y003998D01*
X009923Y005691D02*
X011301Y005691D01*
X011301Y007167D01*
X011202Y007265D01*
X012383Y008446D01*
X015139Y008446D01*
X016714Y006872D01*
X018880Y006872D01*
X019667Y007659D01*
X019667Y008250D01*
X019943Y008525D01*
X020257Y008525D01*
X023982Y005691D02*
X023998Y005691D01*
X024982Y005691D02*
X024982Y005297D01*
X022324Y011990D02*
X022324Y012876D01*
X022374Y018250D02*
X022374Y019076D01*
X023013Y019076D01*
X023358Y018732D01*
X023358Y018250D01*
X022374Y019076D02*
X021389Y019076D01*
X016911Y019076D01*
X016124Y018289D01*
X010612Y018289D01*
X009824Y017502D01*
X007856Y017502D01*
X007610Y017748D01*
X007610Y018171D01*
X011990Y013565D02*
X012482Y013565D01*
X011990Y013565D02*
X011596Y013171D01*
X011596Y009234D01*
X021389Y018250D02*
X021389Y019076D01*
D28*
X022374Y018250D02*
X022374Y016271D01*
X021439Y015336D01*
X021439Y013761D01*
X022324Y012876D01*
X008594Y018171D02*
X008594Y018732D01*
X008250Y019076D01*
X003722Y019076D01*
X002147Y017502D01*
X002147Y013171D01*
D29*
X023850Y018250D02*
X024283Y018683D01*
X024588Y018683D01*
M02*
