G75*
%MOIN*%
%OFA0B0*%
%FSLAX24Y24*%
%IPPOS*%
%LPD*%
%AMOC8*
5,1,8,0,0,1.08239X$1,22.5*
%
%ADD10C,0.0000*%
D10*
X000179Y000179D02*
X000179Y019864D01*
X027738Y019864D01*
X027738Y000179D01*
X000179Y000179D01*
X000730Y001360D02*
X000732Y001410D01*
X000738Y001460D01*
X000748Y001509D01*
X000762Y001557D01*
X000779Y001604D01*
X000800Y001649D01*
X000825Y001693D01*
X000853Y001734D01*
X000885Y001773D01*
X000919Y001810D01*
X000956Y001844D01*
X000996Y001874D01*
X001038Y001901D01*
X001082Y001925D01*
X001128Y001946D01*
X001175Y001962D01*
X001223Y001975D01*
X001273Y001984D01*
X001322Y001989D01*
X001373Y001990D01*
X001423Y001987D01*
X001472Y001980D01*
X001521Y001969D01*
X001569Y001954D01*
X001615Y001936D01*
X001660Y001914D01*
X001703Y001888D01*
X001744Y001859D01*
X001783Y001827D01*
X001819Y001792D01*
X001851Y001754D01*
X001881Y001714D01*
X001908Y001671D01*
X001931Y001627D01*
X001950Y001581D01*
X001966Y001533D01*
X001978Y001484D01*
X001986Y001435D01*
X001990Y001385D01*
X001990Y001335D01*
X001986Y001285D01*
X001978Y001236D01*
X001966Y001187D01*
X001950Y001139D01*
X001931Y001093D01*
X001908Y001049D01*
X001881Y001006D01*
X001851Y000966D01*
X001819Y000928D01*
X001783Y000893D01*
X001744Y000861D01*
X001703Y000832D01*
X001660Y000806D01*
X001615Y000784D01*
X001569Y000766D01*
X001521Y000751D01*
X001472Y000740D01*
X001423Y000733D01*
X001373Y000730D01*
X001322Y000731D01*
X001273Y000736D01*
X001223Y000745D01*
X001175Y000758D01*
X001128Y000774D01*
X001082Y000795D01*
X001038Y000819D01*
X000996Y000846D01*
X000956Y000876D01*
X000919Y000910D01*
X000885Y000947D01*
X000853Y000986D01*
X000825Y001027D01*
X000800Y001071D01*
X000779Y001116D01*
X000762Y001163D01*
X000748Y001211D01*
X000738Y001260D01*
X000732Y001310D01*
X000730Y001360D01*
X022127Y011320D02*
X022129Y011347D01*
X022135Y011374D01*
X022144Y011400D01*
X022157Y011424D01*
X022173Y011447D01*
X022192Y011466D01*
X022214Y011483D01*
X022238Y011497D01*
X022263Y011507D01*
X022290Y011514D01*
X022317Y011517D01*
X022345Y011516D01*
X022372Y011511D01*
X022398Y011503D01*
X022422Y011491D01*
X022445Y011475D01*
X022466Y011457D01*
X022483Y011436D01*
X022498Y011412D01*
X022509Y011387D01*
X022517Y011361D01*
X022521Y011334D01*
X022521Y011306D01*
X022517Y011279D01*
X022509Y011253D01*
X022498Y011228D01*
X022483Y011204D01*
X022466Y011183D01*
X022445Y011165D01*
X022423Y011149D01*
X022398Y011137D01*
X022372Y011129D01*
X022345Y011124D01*
X022317Y011123D01*
X022290Y011126D01*
X022263Y011133D01*
X022238Y011143D01*
X022214Y011157D01*
X022192Y011174D01*
X022173Y011193D01*
X022157Y011216D01*
X022144Y011240D01*
X022135Y011266D01*
X022129Y011293D01*
X022127Y011320D01*
X022127Y011360D02*
X022129Y011387D01*
X022135Y011414D01*
X022144Y011440D01*
X022157Y011464D01*
X022173Y011487D01*
X022192Y011506D01*
X022214Y011523D01*
X022238Y011537D01*
X022263Y011547D01*
X022290Y011554D01*
X022317Y011557D01*
X022345Y011556D01*
X022372Y011551D01*
X022398Y011543D01*
X022422Y011531D01*
X022445Y011515D01*
X022466Y011497D01*
X022483Y011476D01*
X022498Y011452D01*
X022509Y011427D01*
X022517Y011401D01*
X022521Y011374D01*
X022521Y011346D01*
X022517Y011319D01*
X022509Y011293D01*
X022498Y011268D01*
X022483Y011244D01*
X022466Y011223D01*
X022445Y011205D01*
X022423Y011189D01*
X022398Y011177D01*
X022372Y011169D01*
X022345Y011164D01*
X022317Y011163D01*
X022290Y011166D01*
X022263Y011173D01*
X022238Y011183D01*
X022214Y011197D01*
X022192Y011214D01*
X022173Y011233D01*
X022157Y011256D01*
X022144Y011280D01*
X022135Y011306D01*
X022129Y011333D01*
X022127Y011360D01*
X022127Y011399D02*
X022129Y011426D01*
X022135Y011453D01*
X022144Y011479D01*
X022157Y011503D01*
X022173Y011526D01*
X022192Y011545D01*
X022214Y011562D01*
X022238Y011576D01*
X022263Y011586D01*
X022290Y011593D01*
X022317Y011596D01*
X022345Y011595D01*
X022372Y011590D01*
X022398Y011582D01*
X022422Y011570D01*
X022445Y011554D01*
X022466Y011536D01*
X022483Y011515D01*
X022498Y011491D01*
X022509Y011466D01*
X022517Y011440D01*
X022521Y011413D01*
X022521Y011385D01*
X022517Y011358D01*
X022509Y011332D01*
X022498Y011307D01*
X022483Y011283D01*
X022466Y011262D01*
X022445Y011244D01*
X022423Y011228D01*
X022398Y011216D01*
X022372Y011208D01*
X022345Y011203D01*
X022317Y011202D01*
X022290Y011205D01*
X022263Y011212D01*
X022238Y011222D01*
X022214Y011236D01*
X022192Y011253D01*
X022173Y011272D01*
X022157Y011295D01*
X022144Y011319D01*
X022135Y011345D01*
X022129Y011372D01*
X022127Y011399D01*
X022127Y011439D02*
X022129Y011466D01*
X022135Y011493D01*
X022144Y011519D01*
X022157Y011543D01*
X022173Y011566D01*
X022192Y011585D01*
X022214Y011602D01*
X022238Y011616D01*
X022263Y011626D01*
X022290Y011633D01*
X022317Y011636D01*
X022345Y011635D01*
X022372Y011630D01*
X022398Y011622D01*
X022422Y011610D01*
X022445Y011594D01*
X022466Y011576D01*
X022483Y011555D01*
X022498Y011531D01*
X022509Y011506D01*
X022517Y011480D01*
X022521Y011453D01*
X022521Y011425D01*
X022517Y011398D01*
X022509Y011372D01*
X022498Y011347D01*
X022483Y011323D01*
X022466Y011302D01*
X022445Y011284D01*
X022423Y011268D01*
X022398Y011256D01*
X022372Y011248D01*
X022345Y011243D01*
X022317Y011242D01*
X022290Y011245D01*
X022263Y011252D01*
X022238Y011262D01*
X022214Y011276D01*
X022192Y011293D01*
X022173Y011312D01*
X022157Y011335D01*
X022144Y011359D01*
X022135Y011385D01*
X022129Y011412D01*
X022127Y011439D01*
X022127Y011478D02*
X022129Y011505D01*
X022135Y011532D01*
X022144Y011558D01*
X022157Y011582D01*
X022173Y011605D01*
X022192Y011624D01*
X022214Y011641D01*
X022238Y011655D01*
X022263Y011665D01*
X022290Y011672D01*
X022317Y011675D01*
X022345Y011674D01*
X022372Y011669D01*
X022398Y011661D01*
X022422Y011649D01*
X022445Y011633D01*
X022466Y011615D01*
X022483Y011594D01*
X022498Y011570D01*
X022509Y011545D01*
X022517Y011519D01*
X022521Y011492D01*
X022521Y011464D01*
X022517Y011437D01*
X022509Y011411D01*
X022498Y011386D01*
X022483Y011362D01*
X022466Y011341D01*
X022445Y011323D01*
X022423Y011307D01*
X022398Y011295D01*
X022372Y011287D01*
X022345Y011282D01*
X022317Y011281D01*
X022290Y011284D01*
X022263Y011291D01*
X022238Y011301D01*
X022214Y011315D01*
X022192Y011332D01*
X022173Y011351D01*
X022157Y011374D01*
X022144Y011398D01*
X022135Y011424D01*
X022129Y011451D01*
X022127Y011478D01*
X022127Y011517D02*
X022129Y011544D01*
X022135Y011571D01*
X022144Y011597D01*
X022157Y011621D01*
X022173Y011644D01*
X022192Y011663D01*
X022214Y011680D01*
X022238Y011694D01*
X022263Y011704D01*
X022290Y011711D01*
X022317Y011714D01*
X022345Y011713D01*
X022372Y011708D01*
X022398Y011700D01*
X022422Y011688D01*
X022445Y011672D01*
X022466Y011654D01*
X022483Y011633D01*
X022498Y011609D01*
X022509Y011584D01*
X022517Y011558D01*
X022521Y011531D01*
X022521Y011503D01*
X022517Y011476D01*
X022509Y011450D01*
X022498Y011425D01*
X022483Y011401D01*
X022466Y011380D01*
X022445Y011362D01*
X022423Y011346D01*
X022398Y011334D01*
X022372Y011326D01*
X022345Y011321D01*
X022317Y011320D01*
X022290Y011323D01*
X022263Y011330D01*
X022238Y011340D01*
X022214Y011354D01*
X022192Y011371D01*
X022173Y011390D01*
X022157Y011413D01*
X022144Y011437D01*
X022135Y011463D01*
X022129Y011490D01*
X022127Y011517D01*
X022127Y011557D02*
X022129Y011584D01*
X022135Y011611D01*
X022144Y011637D01*
X022157Y011661D01*
X022173Y011684D01*
X022192Y011703D01*
X022214Y011720D01*
X022238Y011734D01*
X022263Y011744D01*
X022290Y011751D01*
X022317Y011754D01*
X022345Y011753D01*
X022372Y011748D01*
X022398Y011740D01*
X022422Y011728D01*
X022445Y011712D01*
X022466Y011694D01*
X022483Y011673D01*
X022498Y011649D01*
X022509Y011624D01*
X022517Y011598D01*
X022521Y011571D01*
X022521Y011543D01*
X022517Y011516D01*
X022509Y011490D01*
X022498Y011465D01*
X022483Y011441D01*
X022466Y011420D01*
X022445Y011402D01*
X022423Y011386D01*
X022398Y011374D01*
X022372Y011366D01*
X022345Y011361D01*
X022317Y011360D01*
X022290Y011363D01*
X022263Y011370D01*
X022238Y011380D01*
X022214Y011394D01*
X022192Y011411D01*
X022173Y011430D01*
X022157Y011453D01*
X022144Y011477D01*
X022135Y011503D01*
X022129Y011530D01*
X022127Y011557D01*
X022127Y011596D02*
X022129Y011623D01*
X022135Y011650D01*
X022144Y011676D01*
X022157Y011700D01*
X022173Y011723D01*
X022192Y011742D01*
X022214Y011759D01*
X022238Y011773D01*
X022263Y011783D01*
X022290Y011790D01*
X022317Y011793D01*
X022345Y011792D01*
X022372Y011787D01*
X022398Y011779D01*
X022422Y011767D01*
X022445Y011751D01*
X022466Y011733D01*
X022483Y011712D01*
X022498Y011688D01*
X022509Y011663D01*
X022517Y011637D01*
X022521Y011610D01*
X022521Y011582D01*
X022517Y011555D01*
X022509Y011529D01*
X022498Y011504D01*
X022483Y011480D01*
X022466Y011459D01*
X022445Y011441D01*
X022423Y011425D01*
X022398Y011413D01*
X022372Y011405D01*
X022345Y011400D01*
X022317Y011399D01*
X022290Y011402D01*
X022263Y011409D01*
X022238Y011419D01*
X022214Y011433D01*
X022192Y011450D01*
X022173Y011469D01*
X022157Y011492D01*
X022144Y011516D01*
X022135Y011542D01*
X022129Y011569D01*
X022127Y011596D01*
X022127Y011635D02*
X022129Y011662D01*
X022135Y011689D01*
X022144Y011715D01*
X022157Y011739D01*
X022173Y011762D01*
X022192Y011781D01*
X022214Y011798D01*
X022238Y011812D01*
X022263Y011822D01*
X022290Y011829D01*
X022317Y011832D01*
X022345Y011831D01*
X022372Y011826D01*
X022398Y011818D01*
X022422Y011806D01*
X022445Y011790D01*
X022466Y011772D01*
X022483Y011751D01*
X022498Y011727D01*
X022509Y011702D01*
X022517Y011676D01*
X022521Y011649D01*
X022521Y011621D01*
X022517Y011594D01*
X022509Y011568D01*
X022498Y011543D01*
X022483Y011519D01*
X022466Y011498D01*
X022445Y011480D01*
X022423Y011464D01*
X022398Y011452D01*
X022372Y011444D01*
X022345Y011439D01*
X022317Y011438D01*
X022290Y011441D01*
X022263Y011448D01*
X022238Y011458D01*
X022214Y011472D01*
X022192Y011489D01*
X022173Y011508D01*
X022157Y011531D01*
X022144Y011555D01*
X022135Y011581D01*
X022129Y011608D01*
X022127Y011635D01*
X022129Y011662D01*
X022135Y011689D01*
X022144Y011715D01*
X022157Y011739D01*
X022173Y011762D01*
X022192Y011781D01*
X022214Y011798D01*
X022238Y011812D01*
X022263Y011822D01*
X022290Y011829D01*
X022317Y011832D01*
X022345Y011831D01*
X022372Y011826D01*
X022398Y011818D01*
X022422Y011806D01*
X022445Y011790D01*
X022466Y011772D01*
X022483Y011751D01*
X022498Y011727D01*
X022509Y011702D01*
X022517Y011676D01*
X022521Y011649D01*
X022521Y011621D01*
X022517Y011594D01*
X022509Y011568D01*
X022498Y011543D01*
X022483Y011519D01*
X022466Y011498D01*
X022445Y011480D01*
X022423Y011464D01*
X022398Y011452D01*
X022372Y011444D01*
X022345Y011439D01*
X022317Y011438D01*
X022290Y011441D01*
X022263Y011448D01*
X022238Y011458D01*
X022214Y011472D01*
X022192Y011489D01*
X022173Y011508D01*
X022157Y011531D01*
X022144Y011555D01*
X022135Y011581D01*
X022129Y011608D01*
X022127Y011635D01*
X022127Y011675D02*
X022129Y011702D01*
X022135Y011729D01*
X022144Y011755D01*
X022157Y011779D01*
X022173Y011802D01*
X022192Y011821D01*
X022214Y011838D01*
X022238Y011852D01*
X022263Y011862D01*
X022290Y011869D01*
X022317Y011872D01*
X022345Y011871D01*
X022372Y011866D01*
X022398Y011858D01*
X022422Y011846D01*
X022445Y011830D01*
X022466Y011812D01*
X022483Y011791D01*
X022498Y011767D01*
X022509Y011742D01*
X022517Y011716D01*
X022521Y011689D01*
X022521Y011661D01*
X022517Y011634D01*
X022509Y011608D01*
X022498Y011583D01*
X022483Y011559D01*
X022466Y011538D01*
X022445Y011520D01*
X022423Y011504D01*
X022398Y011492D01*
X022372Y011484D01*
X022345Y011479D01*
X022317Y011478D01*
X022290Y011481D01*
X022263Y011488D01*
X022238Y011498D01*
X022214Y011512D01*
X022192Y011529D01*
X022173Y011548D01*
X022157Y011571D01*
X022144Y011595D01*
X022135Y011621D01*
X022129Y011648D01*
X022127Y011675D01*
X022127Y011714D02*
X022129Y011741D01*
X022135Y011768D01*
X022144Y011794D01*
X022157Y011818D01*
X022173Y011841D01*
X022192Y011860D01*
X022214Y011877D01*
X022238Y011891D01*
X022263Y011901D01*
X022290Y011908D01*
X022317Y011911D01*
X022345Y011910D01*
X022372Y011905D01*
X022398Y011897D01*
X022422Y011885D01*
X022445Y011869D01*
X022466Y011851D01*
X022483Y011830D01*
X022498Y011806D01*
X022509Y011781D01*
X022517Y011755D01*
X022521Y011728D01*
X022521Y011700D01*
X022517Y011673D01*
X022509Y011647D01*
X022498Y011622D01*
X022483Y011598D01*
X022466Y011577D01*
X022445Y011559D01*
X022423Y011543D01*
X022398Y011531D01*
X022372Y011523D01*
X022345Y011518D01*
X022317Y011517D01*
X022290Y011520D01*
X022263Y011527D01*
X022238Y011537D01*
X022214Y011551D01*
X022192Y011568D01*
X022173Y011587D01*
X022157Y011610D01*
X022144Y011634D01*
X022135Y011660D01*
X022129Y011687D01*
X022127Y011714D01*
X022127Y011754D02*
X022129Y011781D01*
X022135Y011808D01*
X022144Y011834D01*
X022157Y011858D01*
X022173Y011881D01*
X022192Y011900D01*
X022214Y011917D01*
X022238Y011931D01*
X022263Y011941D01*
X022290Y011948D01*
X022317Y011951D01*
X022345Y011950D01*
X022372Y011945D01*
X022398Y011937D01*
X022422Y011925D01*
X022445Y011909D01*
X022466Y011891D01*
X022483Y011870D01*
X022498Y011846D01*
X022509Y011821D01*
X022517Y011795D01*
X022521Y011768D01*
X022521Y011740D01*
X022517Y011713D01*
X022509Y011687D01*
X022498Y011662D01*
X022483Y011638D01*
X022466Y011617D01*
X022445Y011599D01*
X022423Y011583D01*
X022398Y011571D01*
X022372Y011563D01*
X022345Y011558D01*
X022317Y011557D01*
X022290Y011560D01*
X022263Y011567D01*
X022238Y011577D01*
X022214Y011591D01*
X022192Y011608D01*
X022173Y011627D01*
X022157Y011650D01*
X022144Y011674D01*
X022135Y011700D01*
X022129Y011727D01*
X022127Y011754D01*
X022127Y011793D02*
X022129Y011820D01*
X022135Y011847D01*
X022144Y011873D01*
X022157Y011897D01*
X022173Y011920D01*
X022192Y011939D01*
X022214Y011956D01*
X022238Y011970D01*
X022263Y011980D01*
X022290Y011987D01*
X022317Y011990D01*
X022345Y011989D01*
X022372Y011984D01*
X022398Y011976D01*
X022422Y011964D01*
X022445Y011948D01*
X022466Y011930D01*
X022483Y011909D01*
X022498Y011885D01*
X022509Y011860D01*
X022517Y011834D01*
X022521Y011807D01*
X022521Y011779D01*
X022517Y011752D01*
X022509Y011726D01*
X022498Y011701D01*
X022483Y011677D01*
X022466Y011656D01*
X022445Y011638D01*
X022423Y011622D01*
X022398Y011610D01*
X022372Y011602D01*
X022345Y011597D01*
X022317Y011596D01*
X022290Y011599D01*
X022263Y011606D01*
X022238Y011616D01*
X022214Y011630D01*
X022192Y011647D01*
X022173Y011666D01*
X022157Y011689D01*
X022144Y011713D01*
X022135Y011739D01*
X022129Y011766D01*
X022127Y011793D01*
X022127Y011832D02*
X022129Y011859D01*
X022135Y011886D01*
X022144Y011912D01*
X022157Y011936D01*
X022173Y011959D01*
X022192Y011978D01*
X022214Y011995D01*
X022238Y012009D01*
X022263Y012019D01*
X022290Y012026D01*
X022317Y012029D01*
X022345Y012028D01*
X022372Y012023D01*
X022398Y012015D01*
X022422Y012003D01*
X022445Y011987D01*
X022466Y011969D01*
X022483Y011948D01*
X022498Y011924D01*
X022509Y011899D01*
X022517Y011873D01*
X022521Y011846D01*
X022521Y011818D01*
X022517Y011791D01*
X022509Y011765D01*
X022498Y011740D01*
X022483Y011716D01*
X022466Y011695D01*
X022445Y011677D01*
X022423Y011661D01*
X022398Y011649D01*
X022372Y011641D01*
X022345Y011636D01*
X022317Y011635D01*
X022290Y011638D01*
X022263Y011645D01*
X022238Y011655D01*
X022214Y011669D01*
X022192Y011686D01*
X022173Y011705D01*
X022157Y011728D01*
X022144Y011752D01*
X022135Y011778D01*
X022129Y011805D01*
X022127Y011832D01*
X022127Y011872D02*
X022129Y011899D01*
X022135Y011926D01*
X022144Y011952D01*
X022157Y011976D01*
X022173Y011999D01*
X022192Y012018D01*
X022214Y012035D01*
X022238Y012049D01*
X022263Y012059D01*
X022290Y012066D01*
X022317Y012069D01*
X022345Y012068D01*
X022372Y012063D01*
X022398Y012055D01*
X022422Y012043D01*
X022445Y012027D01*
X022466Y012009D01*
X022483Y011988D01*
X022498Y011964D01*
X022509Y011939D01*
X022517Y011913D01*
X022521Y011886D01*
X022521Y011858D01*
X022517Y011831D01*
X022509Y011805D01*
X022498Y011780D01*
X022483Y011756D01*
X022466Y011735D01*
X022445Y011717D01*
X022423Y011701D01*
X022398Y011689D01*
X022372Y011681D01*
X022345Y011676D01*
X022317Y011675D01*
X022290Y011678D01*
X022263Y011685D01*
X022238Y011695D01*
X022214Y011709D01*
X022192Y011726D01*
X022173Y011745D01*
X022157Y011768D01*
X022144Y011792D01*
X022135Y011818D01*
X022129Y011845D01*
X022127Y011872D01*
X022127Y011911D02*
X022129Y011938D01*
X022135Y011965D01*
X022144Y011991D01*
X022157Y012015D01*
X022173Y012038D01*
X022192Y012057D01*
X022214Y012074D01*
X022238Y012088D01*
X022263Y012098D01*
X022290Y012105D01*
X022317Y012108D01*
X022345Y012107D01*
X022372Y012102D01*
X022398Y012094D01*
X022422Y012082D01*
X022445Y012066D01*
X022466Y012048D01*
X022483Y012027D01*
X022498Y012003D01*
X022509Y011978D01*
X022517Y011952D01*
X022521Y011925D01*
X022521Y011897D01*
X022517Y011870D01*
X022509Y011844D01*
X022498Y011819D01*
X022483Y011795D01*
X022466Y011774D01*
X022445Y011756D01*
X022423Y011740D01*
X022398Y011728D01*
X022372Y011720D01*
X022345Y011715D01*
X022317Y011714D01*
X022290Y011717D01*
X022263Y011724D01*
X022238Y011734D01*
X022214Y011748D01*
X022192Y011765D01*
X022173Y011784D01*
X022157Y011807D01*
X022144Y011831D01*
X022135Y011857D01*
X022129Y011884D01*
X022127Y011911D01*
X022127Y011950D02*
X022129Y011977D01*
X022135Y012004D01*
X022144Y012030D01*
X022157Y012054D01*
X022173Y012077D01*
X022192Y012096D01*
X022214Y012113D01*
X022238Y012127D01*
X022263Y012137D01*
X022290Y012144D01*
X022317Y012147D01*
X022345Y012146D01*
X022372Y012141D01*
X022398Y012133D01*
X022422Y012121D01*
X022445Y012105D01*
X022466Y012087D01*
X022483Y012066D01*
X022498Y012042D01*
X022509Y012017D01*
X022517Y011991D01*
X022521Y011964D01*
X022521Y011936D01*
X022517Y011909D01*
X022509Y011883D01*
X022498Y011858D01*
X022483Y011834D01*
X022466Y011813D01*
X022445Y011795D01*
X022423Y011779D01*
X022398Y011767D01*
X022372Y011759D01*
X022345Y011754D01*
X022317Y011753D01*
X022290Y011756D01*
X022263Y011763D01*
X022238Y011773D01*
X022214Y011787D01*
X022192Y011804D01*
X022173Y011823D01*
X022157Y011846D01*
X022144Y011870D01*
X022135Y011896D01*
X022129Y011923D01*
X022127Y011950D01*
X022127Y011990D02*
X022129Y012017D01*
X022135Y012044D01*
X022144Y012070D01*
X022157Y012094D01*
X022173Y012117D01*
X022192Y012136D01*
X022214Y012153D01*
X022238Y012167D01*
X022263Y012177D01*
X022290Y012184D01*
X022317Y012187D01*
X022345Y012186D01*
X022372Y012181D01*
X022398Y012173D01*
X022422Y012161D01*
X022445Y012145D01*
X022466Y012127D01*
X022483Y012106D01*
X022498Y012082D01*
X022509Y012057D01*
X022517Y012031D01*
X022521Y012004D01*
X022521Y011976D01*
X022517Y011949D01*
X022509Y011923D01*
X022498Y011898D01*
X022483Y011874D01*
X022466Y011853D01*
X022445Y011835D01*
X022423Y011819D01*
X022398Y011807D01*
X022372Y011799D01*
X022345Y011794D01*
X022317Y011793D01*
X022290Y011796D01*
X022263Y011803D01*
X022238Y011813D01*
X022214Y011827D01*
X022192Y011844D01*
X022173Y011863D01*
X022157Y011886D01*
X022144Y011910D01*
X022135Y011936D01*
X022129Y011963D01*
X022127Y011990D01*
X022127Y012029D02*
X022129Y012056D01*
X022135Y012083D01*
X022144Y012109D01*
X022157Y012133D01*
X022173Y012156D01*
X022192Y012175D01*
X022214Y012192D01*
X022238Y012206D01*
X022263Y012216D01*
X022290Y012223D01*
X022317Y012226D01*
X022345Y012225D01*
X022372Y012220D01*
X022398Y012212D01*
X022422Y012200D01*
X022445Y012184D01*
X022466Y012166D01*
X022483Y012145D01*
X022498Y012121D01*
X022509Y012096D01*
X022517Y012070D01*
X022521Y012043D01*
X022521Y012015D01*
X022517Y011988D01*
X022509Y011962D01*
X022498Y011937D01*
X022483Y011913D01*
X022466Y011892D01*
X022445Y011874D01*
X022423Y011858D01*
X022398Y011846D01*
X022372Y011838D01*
X022345Y011833D01*
X022317Y011832D01*
X022290Y011835D01*
X022263Y011842D01*
X022238Y011852D01*
X022214Y011866D01*
X022192Y011883D01*
X022173Y011902D01*
X022157Y011925D01*
X022144Y011949D01*
X022135Y011975D01*
X022129Y012002D01*
X022127Y012029D01*
X022127Y012069D02*
X022129Y012096D01*
X022135Y012123D01*
X022144Y012149D01*
X022157Y012173D01*
X022173Y012196D01*
X022192Y012215D01*
X022214Y012232D01*
X022238Y012246D01*
X022263Y012256D01*
X022290Y012263D01*
X022317Y012266D01*
X022345Y012265D01*
X022372Y012260D01*
X022398Y012252D01*
X022422Y012240D01*
X022445Y012224D01*
X022466Y012206D01*
X022483Y012185D01*
X022498Y012161D01*
X022509Y012136D01*
X022517Y012110D01*
X022521Y012083D01*
X022521Y012055D01*
X022517Y012028D01*
X022509Y012002D01*
X022498Y011977D01*
X022483Y011953D01*
X022466Y011932D01*
X022445Y011914D01*
X022423Y011898D01*
X022398Y011886D01*
X022372Y011878D01*
X022345Y011873D01*
X022317Y011872D01*
X022290Y011875D01*
X022263Y011882D01*
X022238Y011892D01*
X022214Y011906D01*
X022192Y011923D01*
X022173Y011942D01*
X022157Y011965D01*
X022144Y011989D01*
X022135Y012015D01*
X022129Y012042D01*
X022127Y012069D01*
X022127Y012108D02*
X022129Y012135D01*
X022135Y012162D01*
X022144Y012188D01*
X022157Y012212D01*
X022173Y012235D01*
X022192Y012254D01*
X022214Y012271D01*
X022238Y012285D01*
X022263Y012295D01*
X022290Y012302D01*
X022317Y012305D01*
X022345Y012304D01*
X022372Y012299D01*
X022398Y012291D01*
X022422Y012279D01*
X022445Y012263D01*
X022466Y012245D01*
X022483Y012224D01*
X022498Y012200D01*
X022509Y012175D01*
X022517Y012149D01*
X022521Y012122D01*
X022521Y012094D01*
X022517Y012067D01*
X022509Y012041D01*
X022498Y012016D01*
X022483Y011992D01*
X022466Y011971D01*
X022445Y011953D01*
X022423Y011937D01*
X022398Y011925D01*
X022372Y011917D01*
X022345Y011912D01*
X022317Y011911D01*
X022290Y011914D01*
X022263Y011921D01*
X022238Y011931D01*
X022214Y011945D01*
X022192Y011962D01*
X022173Y011981D01*
X022157Y012004D01*
X022144Y012028D01*
X022135Y012054D01*
X022129Y012081D01*
X022127Y012108D01*
X022127Y012147D02*
X022129Y012174D01*
X022135Y012201D01*
X022144Y012227D01*
X022157Y012251D01*
X022173Y012274D01*
X022192Y012293D01*
X022214Y012310D01*
X022238Y012324D01*
X022263Y012334D01*
X022290Y012341D01*
X022317Y012344D01*
X022345Y012343D01*
X022372Y012338D01*
X022398Y012330D01*
X022422Y012318D01*
X022445Y012302D01*
X022466Y012284D01*
X022483Y012263D01*
X022498Y012239D01*
X022509Y012214D01*
X022517Y012188D01*
X022521Y012161D01*
X022521Y012133D01*
X022517Y012106D01*
X022509Y012080D01*
X022498Y012055D01*
X022483Y012031D01*
X022466Y012010D01*
X022445Y011992D01*
X022423Y011976D01*
X022398Y011964D01*
X022372Y011956D01*
X022345Y011951D01*
X022317Y011950D01*
X022290Y011953D01*
X022263Y011960D01*
X022238Y011970D01*
X022214Y011984D01*
X022192Y012001D01*
X022173Y012020D01*
X022157Y012043D01*
X022144Y012067D01*
X022135Y012093D01*
X022129Y012120D01*
X022127Y012147D01*
X022127Y012187D02*
X022129Y012214D01*
X022135Y012241D01*
X022144Y012267D01*
X022157Y012291D01*
X022173Y012314D01*
X022192Y012333D01*
X022214Y012350D01*
X022238Y012364D01*
X022263Y012374D01*
X022290Y012381D01*
X022317Y012384D01*
X022345Y012383D01*
X022372Y012378D01*
X022398Y012370D01*
X022422Y012358D01*
X022445Y012342D01*
X022466Y012324D01*
X022483Y012303D01*
X022498Y012279D01*
X022509Y012254D01*
X022517Y012228D01*
X022521Y012201D01*
X022521Y012173D01*
X022517Y012146D01*
X022509Y012120D01*
X022498Y012095D01*
X022483Y012071D01*
X022466Y012050D01*
X022445Y012032D01*
X022423Y012016D01*
X022398Y012004D01*
X022372Y011996D01*
X022345Y011991D01*
X022317Y011990D01*
X022290Y011993D01*
X022263Y012000D01*
X022238Y012010D01*
X022214Y012024D01*
X022192Y012041D01*
X022173Y012060D01*
X022157Y012083D01*
X022144Y012107D01*
X022135Y012133D01*
X022129Y012160D01*
X022127Y012187D01*
X022127Y012226D02*
X022129Y012253D01*
X022135Y012280D01*
X022144Y012306D01*
X022157Y012330D01*
X022173Y012353D01*
X022192Y012372D01*
X022214Y012389D01*
X022238Y012403D01*
X022263Y012413D01*
X022290Y012420D01*
X022317Y012423D01*
X022345Y012422D01*
X022372Y012417D01*
X022398Y012409D01*
X022422Y012397D01*
X022445Y012381D01*
X022466Y012363D01*
X022483Y012342D01*
X022498Y012318D01*
X022509Y012293D01*
X022517Y012267D01*
X022521Y012240D01*
X022521Y012212D01*
X022517Y012185D01*
X022509Y012159D01*
X022498Y012134D01*
X022483Y012110D01*
X022466Y012089D01*
X022445Y012071D01*
X022423Y012055D01*
X022398Y012043D01*
X022372Y012035D01*
X022345Y012030D01*
X022317Y012029D01*
X022290Y012032D01*
X022263Y012039D01*
X022238Y012049D01*
X022214Y012063D01*
X022192Y012080D01*
X022173Y012099D01*
X022157Y012122D01*
X022144Y012146D01*
X022135Y012172D01*
X022129Y012199D01*
X022127Y012226D01*
X022127Y012265D02*
X022129Y012292D01*
X022135Y012319D01*
X022144Y012345D01*
X022157Y012369D01*
X022173Y012392D01*
X022192Y012411D01*
X022214Y012428D01*
X022238Y012442D01*
X022263Y012452D01*
X022290Y012459D01*
X022317Y012462D01*
X022345Y012461D01*
X022372Y012456D01*
X022398Y012448D01*
X022422Y012436D01*
X022445Y012420D01*
X022466Y012402D01*
X022483Y012381D01*
X022498Y012357D01*
X022509Y012332D01*
X022517Y012306D01*
X022521Y012279D01*
X022521Y012251D01*
X022517Y012224D01*
X022509Y012198D01*
X022498Y012173D01*
X022483Y012149D01*
X022466Y012128D01*
X022445Y012110D01*
X022423Y012094D01*
X022398Y012082D01*
X022372Y012074D01*
X022345Y012069D01*
X022317Y012068D01*
X022290Y012071D01*
X022263Y012078D01*
X022238Y012088D01*
X022214Y012102D01*
X022192Y012119D01*
X022173Y012138D01*
X022157Y012161D01*
X022144Y012185D01*
X022135Y012211D01*
X022129Y012238D01*
X022127Y012265D01*
X022127Y012305D02*
X022129Y012332D01*
X022135Y012359D01*
X022144Y012385D01*
X022157Y012409D01*
X022173Y012432D01*
X022192Y012451D01*
X022214Y012468D01*
X022238Y012482D01*
X022263Y012492D01*
X022290Y012499D01*
X022317Y012502D01*
X022345Y012501D01*
X022372Y012496D01*
X022398Y012488D01*
X022422Y012476D01*
X022445Y012460D01*
X022466Y012442D01*
X022483Y012421D01*
X022498Y012397D01*
X022509Y012372D01*
X022517Y012346D01*
X022521Y012319D01*
X022521Y012291D01*
X022517Y012264D01*
X022509Y012238D01*
X022498Y012213D01*
X022483Y012189D01*
X022466Y012168D01*
X022445Y012150D01*
X022423Y012134D01*
X022398Y012122D01*
X022372Y012114D01*
X022345Y012109D01*
X022317Y012108D01*
X022290Y012111D01*
X022263Y012118D01*
X022238Y012128D01*
X022214Y012142D01*
X022192Y012159D01*
X022173Y012178D01*
X022157Y012201D01*
X022144Y012225D01*
X022135Y012251D01*
X022129Y012278D01*
X022127Y012305D01*
X022127Y012344D02*
X022129Y012371D01*
X022135Y012398D01*
X022144Y012424D01*
X022157Y012448D01*
X022173Y012471D01*
X022192Y012490D01*
X022214Y012507D01*
X022238Y012521D01*
X022263Y012531D01*
X022290Y012538D01*
X022317Y012541D01*
X022345Y012540D01*
X022372Y012535D01*
X022398Y012527D01*
X022422Y012515D01*
X022445Y012499D01*
X022466Y012481D01*
X022483Y012460D01*
X022498Y012436D01*
X022509Y012411D01*
X022517Y012385D01*
X022521Y012358D01*
X022521Y012330D01*
X022517Y012303D01*
X022509Y012277D01*
X022498Y012252D01*
X022483Y012228D01*
X022466Y012207D01*
X022445Y012189D01*
X022423Y012173D01*
X022398Y012161D01*
X022372Y012153D01*
X022345Y012148D01*
X022317Y012147D01*
X022290Y012150D01*
X022263Y012157D01*
X022238Y012167D01*
X022214Y012181D01*
X022192Y012198D01*
X022173Y012217D01*
X022157Y012240D01*
X022144Y012264D01*
X022135Y012290D01*
X022129Y012317D01*
X022127Y012344D01*
X022127Y012383D02*
X022129Y012410D01*
X022135Y012437D01*
X022144Y012463D01*
X022157Y012487D01*
X022173Y012510D01*
X022192Y012529D01*
X022214Y012546D01*
X022238Y012560D01*
X022263Y012570D01*
X022290Y012577D01*
X022317Y012580D01*
X022345Y012579D01*
X022372Y012574D01*
X022398Y012566D01*
X022422Y012554D01*
X022445Y012538D01*
X022466Y012520D01*
X022483Y012499D01*
X022498Y012475D01*
X022509Y012450D01*
X022517Y012424D01*
X022521Y012397D01*
X022521Y012369D01*
X022517Y012342D01*
X022509Y012316D01*
X022498Y012291D01*
X022483Y012267D01*
X022466Y012246D01*
X022445Y012228D01*
X022423Y012212D01*
X022398Y012200D01*
X022372Y012192D01*
X022345Y012187D01*
X022317Y012186D01*
X022290Y012189D01*
X022263Y012196D01*
X022238Y012206D01*
X022214Y012220D01*
X022192Y012237D01*
X022173Y012256D01*
X022157Y012279D01*
X022144Y012303D01*
X022135Y012329D01*
X022129Y012356D01*
X022127Y012383D01*
X022127Y012423D02*
X022129Y012450D01*
X022135Y012477D01*
X022144Y012503D01*
X022157Y012527D01*
X022173Y012550D01*
X022192Y012569D01*
X022214Y012586D01*
X022238Y012600D01*
X022263Y012610D01*
X022290Y012617D01*
X022317Y012620D01*
X022345Y012619D01*
X022372Y012614D01*
X022398Y012606D01*
X022422Y012594D01*
X022445Y012578D01*
X022466Y012560D01*
X022483Y012539D01*
X022498Y012515D01*
X022509Y012490D01*
X022517Y012464D01*
X022521Y012437D01*
X022521Y012409D01*
X022517Y012382D01*
X022509Y012356D01*
X022498Y012331D01*
X022483Y012307D01*
X022466Y012286D01*
X022445Y012268D01*
X022423Y012252D01*
X022398Y012240D01*
X022372Y012232D01*
X022345Y012227D01*
X022317Y012226D01*
X022290Y012229D01*
X022263Y012236D01*
X022238Y012246D01*
X022214Y012260D01*
X022192Y012277D01*
X022173Y012296D01*
X022157Y012319D01*
X022144Y012343D01*
X022135Y012369D01*
X022129Y012396D01*
X022127Y012423D01*
X022127Y012462D02*
X022129Y012489D01*
X022135Y012516D01*
X022144Y012542D01*
X022157Y012566D01*
X022173Y012589D01*
X022192Y012608D01*
X022214Y012625D01*
X022238Y012639D01*
X022263Y012649D01*
X022290Y012656D01*
X022317Y012659D01*
X022345Y012658D01*
X022372Y012653D01*
X022398Y012645D01*
X022422Y012633D01*
X022445Y012617D01*
X022466Y012599D01*
X022483Y012578D01*
X022498Y012554D01*
X022509Y012529D01*
X022517Y012503D01*
X022521Y012476D01*
X022521Y012448D01*
X022517Y012421D01*
X022509Y012395D01*
X022498Y012370D01*
X022483Y012346D01*
X022466Y012325D01*
X022445Y012307D01*
X022423Y012291D01*
X022398Y012279D01*
X022372Y012271D01*
X022345Y012266D01*
X022317Y012265D01*
X022290Y012268D01*
X022263Y012275D01*
X022238Y012285D01*
X022214Y012299D01*
X022192Y012316D01*
X022173Y012335D01*
X022157Y012358D01*
X022144Y012382D01*
X022135Y012408D01*
X022129Y012435D01*
X022127Y012462D01*
X022127Y012502D02*
X022129Y012529D01*
X022135Y012556D01*
X022144Y012582D01*
X022157Y012606D01*
X022173Y012629D01*
X022192Y012648D01*
X022214Y012665D01*
X022238Y012679D01*
X022263Y012689D01*
X022290Y012696D01*
X022317Y012699D01*
X022345Y012698D01*
X022372Y012693D01*
X022398Y012685D01*
X022422Y012673D01*
X022445Y012657D01*
X022466Y012639D01*
X022483Y012618D01*
X022498Y012594D01*
X022509Y012569D01*
X022517Y012543D01*
X022521Y012516D01*
X022521Y012488D01*
X022517Y012461D01*
X022509Y012435D01*
X022498Y012410D01*
X022483Y012386D01*
X022466Y012365D01*
X022445Y012347D01*
X022423Y012331D01*
X022398Y012319D01*
X022372Y012311D01*
X022345Y012306D01*
X022317Y012305D01*
X022290Y012308D01*
X022263Y012315D01*
X022238Y012325D01*
X022214Y012339D01*
X022192Y012356D01*
X022173Y012375D01*
X022157Y012398D01*
X022144Y012422D01*
X022135Y012448D01*
X022129Y012475D01*
X022127Y012502D01*
X022127Y012541D02*
X022129Y012568D01*
X022135Y012595D01*
X022144Y012621D01*
X022157Y012645D01*
X022173Y012668D01*
X022192Y012687D01*
X022214Y012704D01*
X022238Y012718D01*
X022263Y012728D01*
X022290Y012735D01*
X022317Y012738D01*
X022345Y012737D01*
X022372Y012732D01*
X022398Y012724D01*
X022422Y012712D01*
X022445Y012696D01*
X022466Y012678D01*
X022483Y012657D01*
X022498Y012633D01*
X022509Y012608D01*
X022517Y012582D01*
X022521Y012555D01*
X022521Y012527D01*
X022517Y012500D01*
X022509Y012474D01*
X022498Y012449D01*
X022483Y012425D01*
X022466Y012404D01*
X022445Y012386D01*
X022423Y012370D01*
X022398Y012358D01*
X022372Y012350D01*
X022345Y012345D01*
X022317Y012344D01*
X022290Y012347D01*
X022263Y012354D01*
X022238Y012364D01*
X022214Y012378D01*
X022192Y012395D01*
X022173Y012414D01*
X022157Y012437D01*
X022144Y012461D01*
X022135Y012487D01*
X022129Y012514D01*
X022127Y012541D01*
X022127Y012580D02*
X022129Y012607D01*
X022135Y012634D01*
X022144Y012660D01*
X022157Y012684D01*
X022173Y012707D01*
X022192Y012726D01*
X022214Y012743D01*
X022238Y012757D01*
X022263Y012767D01*
X022290Y012774D01*
X022317Y012777D01*
X022345Y012776D01*
X022372Y012771D01*
X022398Y012763D01*
X022422Y012751D01*
X022445Y012735D01*
X022466Y012717D01*
X022483Y012696D01*
X022498Y012672D01*
X022509Y012647D01*
X022517Y012621D01*
X022521Y012594D01*
X022521Y012566D01*
X022517Y012539D01*
X022509Y012513D01*
X022498Y012488D01*
X022483Y012464D01*
X022466Y012443D01*
X022445Y012425D01*
X022423Y012409D01*
X022398Y012397D01*
X022372Y012389D01*
X022345Y012384D01*
X022317Y012383D01*
X022290Y012386D01*
X022263Y012393D01*
X022238Y012403D01*
X022214Y012417D01*
X022192Y012434D01*
X022173Y012453D01*
X022157Y012476D01*
X022144Y012500D01*
X022135Y012526D01*
X022129Y012553D01*
X022127Y012580D01*
X022127Y012620D02*
X022129Y012647D01*
X022135Y012674D01*
X022144Y012700D01*
X022157Y012724D01*
X022173Y012747D01*
X022192Y012766D01*
X022214Y012783D01*
X022238Y012797D01*
X022263Y012807D01*
X022290Y012814D01*
X022317Y012817D01*
X022345Y012816D01*
X022372Y012811D01*
X022398Y012803D01*
X022422Y012791D01*
X022445Y012775D01*
X022466Y012757D01*
X022483Y012736D01*
X022498Y012712D01*
X022509Y012687D01*
X022517Y012661D01*
X022521Y012634D01*
X022521Y012606D01*
X022517Y012579D01*
X022509Y012553D01*
X022498Y012528D01*
X022483Y012504D01*
X022466Y012483D01*
X022445Y012465D01*
X022423Y012449D01*
X022398Y012437D01*
X022372Y012429D01*
X022345Y012424D01*
X022317Y012423D01*
X022290Y012426D01*
X022263Y012433D01*
X022238Y012443D01*
X022214Y012457D01*
X022192Y012474D01*
X022173Y012493D01*
X022157Y012516D01*
X022144Y012540D01*
X022135Y012566D01*
X022129Y012593D01*
X022127Y012620D01*
X022127Y012659D02*
X022129Y012686D01*
X022135Y012713D01*
X022144Y012739D01*
X022157Y012763D01*
X022173Y012786D01*
X022192Y012805D01*
X022214Y012822D01*
X022238Y012836D01*
X022263Y012846D01*
X022290Y012853D01*
X022317Y012856D01*
X022345Y012855D01*
X022372Y012850D01*
X022398Y012842D01*
X022422Y012830D01*
X022445Y012814D01*
X022466Y012796D01*
X022483Y012775D01*
X022498Y012751D01*
X022509Y012726D01*
X022517Y012700D01*
X022521Y012673D01*
X022521Y012645D01*
X022517Y012618D01*
X022509Y012592D01*
X022498Y012567D01*
X022483Y012543D01*
X022466Y012522D01*
X022445Y012504D01*
X022423Y012488D01*
X022398Y012476D01*
X022372Y012468D01*
X022345Y012463D01*
X022317Y012462D01*
X022290Y012465D01*
X022263Y012472D01*
X022238Y012482D01*
X022214Y012496D01*
X022192Y012513D01*
X022173Y012532D01*
X022157Y012555D01*
X022144Y012579D01*
X022135Y012605D01*
X022129Y012632D01*
X022127Y012659D01*
X022758Y013880D02*
X022760Y013905D01*
X022766Y013929D01*
X022775Y013951D01*
X022788Y013972D01*
X022804Y013991D01*
X022823Y014007D01*
X022844Y014020D01*
X022866Y014029D01*
X022890Y014035D01*
X022915Y014037D01*
X022940Y014035D01*
X022964Y014029D01*
X022986Y014020D01*
X023007Y014007D01*
X023026Y013991D01*
X023042Y013972D01*
X023055Y013951D01*
X023064Y013929D01*
X023070Y013905D01*
X023072Y013880D01*
X023070Y013855D01*
X023064Y013831D01*
X023055Y013809D01*
X023042Y013788D01*
X023026Y013769D01*
X023007Y013753D01*
X022986Y013740D01*
X022964Y013731D01*
X022940Y013725D01*
X022915Y013723D01*
X022890Y013725D01*
X022866Y013731D01*
X022844Y013740D01*
X022823Y013753D01*
X022804Y013769D01*
X022788Y013788D01*
X022775Y013809D01*
X022766Y013831D01*
X022760Y013855D01*
X022758Y013880D01*
X022797Y013880D02*
X022799Y013905D01*
X022805Y013929D01*
X022814Y013951D01*
X022827Y013972D01*
X022843Y013991D01*
X022862Y014007D01*
X022883Y014020D01*
X022905Y014029D01*
X022929Y014035D01*
X022954Y014037D01*
X022979Y014035D01*
X023003Y014029D01*
X023025Y014020D01*
X023046Y014007D01*
X023065Y013991D01*
X023081Y013972D01*
X023094Y013951D01*
X023103Y013929D01*
X023109Y013905D01*
X023111Y013880D01*
X023109Y013855D01*
X023103Y013831D01*
X023094Y013809D01*
X023081Y013788D01*
X023065Y013769D01*
X023046Y013753D01*
X023025Y013740D01*
X023003Y013731D01*
X022979Y013725D01*
X022954Y013723D01*
X022929Y013725D01*
X022905Y013731D01*
X022883Y013740D01*
X022862Y013753D01*
X022843Y013769D01*
X022827Y013788D01*
X022814Y013809D01*
X022805Y013831D01*
X022799Y013855D01*
X022797Y013880D01*
X022837Y013880D02*
X022839Y013905D01*
X022845Y013929D01*
X022854Y013951D01*
X022867Y013972D01*
X022883Y013991D01*
X022902Y014007D01*
X022923Y014020D01*
X022945Y014029D01*
X022969Y014035D01*
X022994Y014037D01*
X023019Y014035D01*
X023043Y014029D01*
X023065Y014020D01*
X023086Y014007D01*
X023105Y013991D01*
X023121Y013972D01*
X023134Y013951D01*
X023143Y013929D01*
X023149Y013905D01*
X023151Y013880D01*
X023149Y013855D01*
X023143Y013831D01*
X023134Y013809D01*
X023121Y013788D01*
X023105Y013769D01*
X023086Y013753D01*
X023065Y013740D01*
X023043Y013731D01*
X023019Y013725D01*
X022994Y013723D01*
X022969Y013725D01*
X022945Y013731D01*
X022923Y013740D01*
X022902Y013753D01*
X022883Y013769D01*
X022867Y013788D01*
X022854Y013809D01*
X022845Y013831D01*
X022839Y013855D01*
X022837Y013880D01*
X022876Y013880D02*
X022878Y013905D01*
X022884Y013929D01*
X022893Y013951D01*
X022906Y013972D01*
X022922Y013991D01*
X022941Y014007D01*
X022962Y014020D01*
X022984Y014029D01*
X023008Y014035D01*
X023033Y014037D01*
X023058Y014035D01*
X023082Y014029D01*
X023104Y014020D01*
X023125Y014007D01*
X023144Y013991D01*
X023160Y013972D01*
X023173Y013951D01*
X023182Y013929D01*
X023188Y013905D01*
X023190Y013880D01*
X023188Y013855D01*
X023182Y013831D01*
X023173Y013809D01*
X023160Y013788D01*
X023144Y013769D01*
X023125Y013753D01*
X023104Y013740D01*
X023082Y013731D01*
X023058Y013725D01*
X023033Y013723D01*
X023008Y013725D01*
X022984Y013731D01*
X022962Y013740D01*
X022941Y013753D01*
X022922Y013769D01*
X022906Y013788D01*
X022893Y013809D01*
X022884Y013831D01*
X022878Y013855D01*
X022876Y013880D01*
X022915Y013880D02*
X022917Y013905D01*
X022923Y013929D01*
X022932Y013951D01*
X022945Y013972D01*
X022961Y013991D01*
X022980Y014007D01*
X023001Y014020D01*
X023023Y014029D01*
X023047Y014035D01*
X023072Y014037D01*
X023097Y014035D01*
X023121Y014029D01*
X023143Y014020D01*
X023164Y014007D01*
X023183Y013991D01*
X023199Y013972D01*
X023212Y013951D01*
X023221Y013929D01*
X023227Y013905D01*
X023229Y013880D01*
X023227Y013855D01*
X023221Y013831D01*
X023212Y013809D01*
X023199Y013788D01*
X023183Y013769D01*
X023164Y013753D01*
X023143Y013740D01*
X023121Y013731D01*
X023097Y013725D01*
X023072Y013723D01*
X023047Y013725D01*
X023023Y013731D01*
X023001Y013740D01*
X022980Y013753D01*
X022961Y013769D01*
X022945Y013788D01*
X022932Y013809D01*
X022923Y013831D01*
X022917Y013855D01*
X022915Y013880D01*
X022955Y013880D02*
X022957Y013905D01*
X022963Y013929D01*
X022972Y013951D01*
X022985Y013972D01*
X023001Y013991D01*
X023020Y014007D01*
X023041Y014020D01*
X023063Y014029D01*
X023087Y014035D01*
X023112Y014037D01*
X023137Y014035D01*
X023161Y014029D01*
X023183Y014020D01*
X023204Y014007D01*
X023223Y013991D01*
X023239Y013972D01*
X023252Y013951D01*
X023261Y013929D01*
X023267Y013905D01*
X023269Y013880D01*
X023267Y013855D01*
X023261Y013831D01*
X023252Y013809D01*
X023239Y013788D01*
X023223Y013769D01*
X023204Y013753D01*
X023183Y013740D01*
X023161Y013731D01*
X023137Y013725D01*
X023112Y013723D01*
X023087Y013725D01*
X023063Y013731D01*
X023041Y013740D01*
X023020Y013753D01*
X023001Y013769D01*
X022985Y013788D01*
X022972Y013809D01*
X022963Y013831D01*
X022957Y013855D01*
X022955Y013880D01*
X022994Y013880D02*
X022996Y013905D01*
X023002Y013929D01*
X023011Y013951D01*
X023024Y013972D01*
X023040Y013991D01*
X023059Y014007D01*
X023080Y014020D01*
X023102Y014029D01*
X023126Y014035D01*
X023151Y014037D01*
X023176Y014035D01*
X023200Y014029D01*
X023222Y014020D01*
X023243Y014007D01*
X023262Y013991D01*
X023278Y013972D01*
X023291Y013951D01*
X023300Y013929D01*
X023306Y013905D01*
X023308Y013880D01*
X023306Y013855D01*
X023300Y013831D01*
X023291Y013809D01*
X023278Y013788D01*
X023262Y013769D01*
X023243Y013753D01*
X023222Y013740D01*
X023200Y013731D01*
X023176Y013725D01*
X023151Y013723D01*
X023126Y013725D01*
X023102Y013731D01*
X023080Y013740D01*
X023059Y013753D01*
X023040Y013769D01*
X023024Y013788D01*
X023011Y013809D01*
X023002Y013831D01*
X022996Y013855D01*
X022994Y013880D01*
X023034Y013880D02*
X023036Y013905D01*
X023042Y013929D01*
X023051Y013951D01*
X023064Y013972D01*
X023080Y013991D01*
X023099Y014007D01*
X023120Y014020D01*
X023142Y014029D01*
X023166Y014035D01*
X023191Y014037D01*
X023216Y014035D01*
X023240Y014029D01*
X023262Y014020D01*
X023283Y014007D01*
X023302Y013991D01*
X023318Y013972D01*
X023331Y013951D01*
X023340Y013929D01*
X023346Y013905D01*
X023348Y013880D01*
X023346Y013855D01*
X023340Y013831D01*
X023331Y013809D01*
X023318Y013788D01*
X023302Y013769D01*
X023283Y013753D01*
X023262Y013740D01*
X023240Y013731D01*
X023216Y013725D01*
X023191Y013723D01*
X023166Y013725D01*
X023142Y013731D01*
X023120Y013740D01*
X023099Y013753D01*
X023080Y013769D01*
X023064Y013788D01*
X023051Y013809D01*
X023042Y013831D01*
X023036Y013855D01*
X023034Y013880D01*
X023073Y013880D02*
X023075Y013905D01*
X023081Y013929D01*
X023090Y013951D01*
X023103Y013972D01*
X023119Y013991D01*
X023138Y014007D01*
X023159Y014020D01*
X023181Y014029D01*
X023205Y014035D01*
X023230Y014037D01*
X023255Y014035D01*
X023279Y014029D01*
X023301Y014020D01*
X023322Y014007D01*
X023341Y013991D01*
X023357Y013972D01*
X023370Y013951D01*
X023379Y013929D01*
X023385Y013905D01*
X023387Y013880D01*
X023385Y013855D01*
X023379Y013831D01*
X023370Y013809D01*
X023357Y013788D01*
X023341Y013769D01*
X023322Y013753D01*
X023301Y013740D01*
X023279Y013731D01*
X023255Y013725D01*
X023230Y013723D01*
X023205Y013725D01*
X023181Y013731D01*
X023159Y013740D01*
X023138Y013753D01*
X023119Y013769D01*
X023103Y013788D01*
X023090Y013809D01*
X023081Y013831D01*
X023075Y013855D01*
X023073Y013880D01*
X023112Y013880D02*
X023114Y013905D01*
X023120Y013929D01*
X023129Y013951D01*
X023142Y013972D01*
X023158Y013991D01*
X023177Y014007D01*
X023198Y014020D01*
X023220Y014029D01*
X023244Y014035D01*
X023269Y014037D01*
X023294Y014035D01*
X023318Y014029D01*
X023340Y014020D01*
X023361Y014007D01*
X023380Y013991D01*
X023396Y013972D01*
X023409Y013951D01*
X023418Y013929D01*
X023424Y013905D01*
X023426Y013880D01*
X023424Y013855D01*
X023418Y013831D01*
X023409Y013809D01*
X023396Y013788D01*
X023380Y013769D01*
X023361Y013753D01*
X023340Y013740D01*
X023318Y013731D01*
X023294Y013725D01*
X023269Y013723D01*
X023244Y013725D01*
X023220Y013731D01*
X023198Y013740D01*
X023177Y013753D01*
X023158Y013769D01*
X023142Y013788D01*
X023129Y013809D01*
X023120Y013831D01*
X023114Y013855D01*
X023112Y013880D01*
X023152Y013880D02*
X023154Y013905D01*
X023160Y013929D01*
X023169Y013951D01*
X023182Y013972D01*
X023198Y013991D01*
X023217Y014007D01*
X023238Y014020D01*
X023260Y014029D01*
X023284Y014035D01*
X023309Y014037D01*
X023334Y014035D01*
X023358Y014029D01*
X023380Y014020D01*
X023401Y014007D01*
X023420Y013991D01*
X023436Y013972D01*
X023449Y013951D01*
X023458Y013929D01*
X023464Y013905D01*
X023466Y013880D01*
X023464Y013855D01*
X023458Y013831D01*
X023449Y013809D01*
X023436Y013788D01*
X023420Y013769D01*
X023401Y013753D01*
X023380Y013740D01*
X023358Y013731D01*
X023334Y013725D01*
X023309Y013723D01*
X023284Y013725D01*
X023260Y013731D01*
X023238Y013740D01*
X023217Y013753D01*
X023198Y013769D01*
X023182Y013788D01*
X023169Y013809D01*
X023160Y013831D01*
X023154Y013855D01*
X023152Y013880D01*
X023191Y013880D02*
X023193Y013905D01*
X023199Y013929D01*
X023208Y013951D01*
X023221Y013972D01*
X023237Y013991D01*
X023256Y014007D01*
X023277Y014020D01*
X023299Y014029D01*
X023323Y014035D01*
X023348Y014037D01*
X023373Y014035D01*
X023397Y014029D01*
X023419Y014020D01*
X023440Y014007D01*
X023459Y013991D01*
X023475Y013972D01*
X023488Y013951D01*
X023497Y013929D01*
X023503Y013905D01*
X023505Y013880D01*
X023503Y013855D01*
X023497Y013831D01*
X023488Y013809D01*
X023475Y013788D01*
X023459Y013769D01*
X023440Y013753D01*
X023419Y013740D01*
X023397Y013731D01*
X023373Y013725D01*
X023348Y013723D01*
X023323Y013725D01*
X023299Y013731D01*
X023277Y013740D01*
X023256Y013753D01*
X023237Y013769D01*
X023221Y013788D01*
X023208Y013809D01*
X023199Y013831D01*
X023193Y013855D01*
X023191Y013880D01*
X023230Y013880D02*
X023232Y013905D01*
X023238Y013929D01*
X023247Y013951D01*
X023260Y013972D01*
X023276Y013991D01*
X023295Y014007D01*
X023316Y014020D01*
X023338Y014029D01*
X023362Y014035D01*
X023387Y014037D01*
X023412Y014035D01*
X023436Y014029D01*
X023458Y014020D01*
X023479Y014007D01*
X023498Y013991D01*
X023514Y013972D01*
X023527Y013951D01*
X023536Y013929D01*
X023542Y013905D01*
X023544Y013880D01*
X023542Y013855D01*
X023536Y013831D01*
X023527Y013809D01*
X023514Y013788D01*
X023498Y013769D01*
X023479Y013753D01*
X023458Y013740D01*
X023436Y013731D01*
X023412Y013725D01*
X023387Y013723D01*
X023362Y013725D01*
X023338Y013731D01*
X023316Y013740D01*
X023295Y013753D01*
X023276Y013769D01*
X023260Y013788D01*
X023247Y013809D01*
X023238Y013831D01*
X023232Y013855D01*
X023230Y013880D01*
X023270Y013880D02*
X023272Y013905D01*
X023278Y013929D01*
X023287Y013951D01*
X023300Y013972D01*
X023316Y013991D01*
X023335Y014007D01*
X023356Y014020D01*
X023378Y014029D01*
X023402Y014035D01*
X023427Y014037D01*
X023452Y014035D01*
X023476Y014029D01*
X023498Y014020D01*
X023519Y014007D01*
X023538Y013991D01*
X023554Y013972D01*
X023567Y013951D01*
X023576Y013929D01*
X023582Y013905D01*
X023584Y013880D01*
X023582Y013855D01*
X023576Y013831D01*
X023567Y013809D01*
X023554Y013788D01*
X023538Y013769D01*
X023519Y013753D01*
X023498Y013740D01*
X023476Y013731D01*
X023452Y013725D01*
X023427Y013723D01*
X023402Y013725D01*
X023378Y013731D01*
X023356Y013740D01*
X023335Y013753D01*
X023316Y013769D01*
X023300Y013788D01*
X023287Y013809D01*
X023278Y013831D01*
X023272Y013855D01*
X023270Y013880D01*
X023309Y013880D02*
X023311Y013905D01*
X023317Y013929D01*
X023326Y013951D01*
X023339Y013972D01*
X023355Y013991D01*
X023374Y014007D01*
X023395Y014020D01*
X023417Y014029D01*
X023441Y014035D01*
X023466Y014037D01*
X023491Y014035D01*
X023515Y014029D01*
X023537Y014020D01*
X023558Y014007D01*
X023577Y013991D01*
X023593Y013972D01*
X023606Y013951D01*
X023615Y013929D01*
X023621Y013905D01*
X023623Y013880D01*
X023621Y013855D01*
X023615Y013831D01*
X023606Y013809D01*
X023593Y013788D01*
X023577Y013769D01*
X023558Y013753D01*
X023537Y013740D01*
X023515Y013731D01*
X023491Y013725D01*
X023466Y013723D01*
X023441Y013725D01*
X023417Y013731D01*
X023395Y013740D01*
X023374Y013753D01*
X023355Y013769D01*
X023339Y013788D01*
X023326Y013809D01*
X023317Y013831D01*
X023311Y013855D01*
X023309Y013880D01*
X023349Y013880D02*
X023351Y013905D01*
X023357Y013929D01*
X023366Y013951D01*
X023379Y013972D01*
X023395Y013991D01*
X023414Y014007D01*
X023435Y014020D01*
X023457Y014029D01*
X023481Y014035D01*
X023506Y014037D01*
X023531Y014035D01*
X023555Y014029D01*
X023577Y014020D01*
X023598Y014007D01*
X023617Y013991D01*
X023633Y013972D01*
X023646Y013951D01*
X023655Y013929D01*
X023661Y013905D01*
X023663Y013880D01*
X023661Y013855D01*
X023655Y013831D01*
X023646Y013809D01*
X023633Y013788D01*
X023617Y013769D01*
X023598Y013753D01*
X023577Y013740D01*
X023555Y013731D01*
X023531Y013725D01*
X023506Y013723D01*
X023481Y013725D01*
X023457Y013731D01*
X023435Y013740D01*
X023414Y013753D01*
X023395Y013769D01*
X023379Y013788D01*
X023366Y013809D01*
X023357Y013831D01*
X023351Y013855D01*
X023349Y013880D01*
X023388Y013880D02*
X023390Y013905D01*
X023396Y013929D01*
X023405Y013951D01*
X023418Y013972D01*
X023434Y013991D01*
X023453Y014007D01*
X023474Y014020D01*
X023496Y014029D01*
X023520Y014035D01*
X023545Y014037D01*
X023570Y014035D01*
X023594Y014029D01*
X023616Y014020D01*
X023637Y014007D01*
X023656Y013991D01*
X023672Y013972D01*
X023685Y013951D01*
X023694Y013929D01*
X023700Y013905D01*
X023702Y013880D01*
X023700Y013855D01*
X023694Y013831D01*
X023685Y013809D01*
X023672Y013788D01*
X023656Y013769D01*
X023637Y013753D01*
X023616Y013740D01*
X023594Y013731D01*
X023570Y013725D01*
X023545Y013723D01*
X023520Y013725D01*
X023496Y013731D01*
X023474Y013740D01*
X023453Y013753D01*
X023434Y013769D01*
X023418Y013788D01*
X023405Y013809D01*
X023396Y013831D01*
X023390Y013855D01*
X023388Y013880D01*
X023427Y013880D02*
X023429Y013905D01*
X023435Y013929D01*
X023444Y013951D01*
X023457Y013972D01*
X023473Y013991D01*
X023492Y014007D01*
X023513Y014020D01*
X023535Y014029D01*
X023559Y014035D01*
X023584Y014037D01*
X023609Y014035D01*
X023633Y014029D01*
X023655Y014020D01*
X023676Y014007D01*
X023695Y013991D01*
X023711Y013972D01*
X023724Y013951D01*
X023733Y013929D01*
X023739Y013905D01*
X023741Y013880D01*
X023739Y013855D01*
X023733Y013831D01*
X023724Y013809D01*
X023711Y013788D01*
X023695Y013769D01*
X023676Y013753D01*
X023655Y013740D01*
X023633Y013731D01*
X023609Y013725D01*
X023584Y013723D01*
X023559Y013725D01*
X023535Y013731D01*
X023513Y013740D01*
X023492Y013753D01*
X023473Y013769D01*
X023457Y013788D01*
X023444Y013809D01*
X023435Y013831D01*
X023429Y013855D01*
X023427Y013880D01*
X023467Y013880D02*
X023469Y013905D01*
X023475Y013929D01*
X023484Y013951D01*
X023497Y013972D01*
X023513Y013991D01*
X023532Y014007D01*
X023553Y014020D01*
X023575Y014029D01*
X023599Y014035D01*
X023624Y014037D01*
X023649Y014035D01*
X023673Y014029D01*
X023695Y014020D01*
X023716Y014007D01*
X023735Y013991D01*
X023751Y013972D01*
X023764Y013951D01*
X023773Y013929D01*
X023779Y013905D01*
X023781Y013880D01*
X023779Y013855D01*
X023773Y013831D01*
X023764Y013809D01*
X023751Y013788D01*
X023735Y013769D01*
X023716Y013753D01*
X023695Y013740D01*
X023673Y013731D01*
X023649Y013725D01*
X023624Y013723D01*
X023599Y013725D01*
X023575Y013731D01*
X023553Y013740D01*
X023532Y013753D01*
X023513Y013769D01*
X023497Y013788D01*
X023484Y013809D01*
X023475Y013831D01*
X023469Y013855D01*
X023467Y013880D01*
X023506Y013880D02*
X023508Y013905D01*
X023514Y013929D01*
X023523Y013951D01*
X023536Y013972D01*
X023552Y013991D01*
X023571Y014007D01*
X023592Y014020D01*
X023614Y014029D01*
X023638Y014035D01*
X023663Y014037D01*
X023688Y014035D01*
X023712Y014029D01*
X023734Y014020D01*
X023755Y014007D01*
X023774Y013991D01*
X023790Y013972D01*
X023803Y013951D01*
X023812Y013929D01*
X023818Y013905D01*
X023820Y013880D01*
X023818Y013855D01*
X023812Y013831D01*
X023803Y013809D01*
X023790Y013788D01*
X023774Y013769D01*
X023755Y013753D01*
X023734Y013740D01*
X023712Y013731D01*
X023688Y013725D01*
X023663Y013723D01*
X023638Y013725D01*
X023614Y013731D01*
X023592Y013740D01*
X023571Y013753D01*
X023552Y013769D01*
X023536Y013788D01*
X023523Y013809D01*
X023514Y013831D01*
X023508Y013855D01*
X023506Y013880D01*
X023545Y013880D02*
X023547Y013905D01*
X023553Y013929D01*
X023562Y013951D01*
X023575Y013972D01*
X023591Y013991D01*
X023610Y014007D01*
X023631Y014020D01*
X023653Y014029D01*
X023677Y014035D01*
X023702Y014037D01*
X023727Y014035D01*
X023751Y014029D01*
X023773Y014020D01*
X023794Y014007D01*
X023813Y013991D01*
X023829Y013972D01*
X023842Y013951D01*
X023851Y013929D01*
X023857Y013905D01*
X023859Y013880D01*
X023857Y013855D01*
X023851Y013831D01*
X023842Y013809D01*
X023829Y013788D01*
X023813Y013769D01*
X023794Y013753D01*
X023773Y013740D01*
X023751Y013731D01*
X023727Y013725D01*
X023702Y013723D01*
X023677Y013725D01*
X023653Y013731D01*
X023631Y013740D01*
X023610Y013753D01*
X023591Y013769D01*
X023575Y013788D01*
X023562Y013809D01*
X023553Y013831D01*
X023547Y013855D01*
X023545Y013880D01*
X023585Y013880D02*
X023587Y013905D01*
X023593Y013929D01*
X023602Y013951D01*
X023615Y013972D01*
X023631Y013991D01*
X023650Y014007D01*
X023671Y014020D01*
X023693Y014029D01*
X023717Y014035D01*
X023742Y014037D01*
X023767Y014035D01*
X023791Y014029D01*
X023813Y014020D01*
X023834Y014007D01*
X023853Y013991D01*
X023869Y013972D01*
X023882Y013951D01*
X023891Y013929D01*
X023897Y013905D01*
X023899Y013880D01*
X023897Y013855D01*
X023891Y013831D01*
X023882Y013809D01*
X023869Y013788D01*
X023853Y013769D01*
X023834Y013753D01*
X023813Y013740D01*
X023791Y013731D01*
X023767Y013725D01*
X023742Y013723D01*
X023717Y013725D01*
X023693Y013731D01*
X023671Y013740D01*
X023650Y013753D01*
X023631Y013769D01*
X023615Y013788D01*
X023602Y013809D01*
X023593Y013831D01*
X023587Y013855D01*
X023585Y013880D01*
X023624Y013880D02*
X023626Y013905D01*
X023632Y013929D01*
X023641Y013951D01*
X023654Y013972D01*
X023670Y013991D01*
X023689Y014007D01*
X023710Y014020D01*
X023732Y014029D01*
X023756Y014035D01*
X023781Y014037D01*
X023806Y014035D01*
X023830Y014029D01*
X023852Y014020D01*
X023873Y014007D01*
X023892Y013991D01*
X023908Y013972D01*
X023921Y013951D01*
X023930Y013929D01*
X023936Y013905D01*
X023938Y013880D01*
X023936Y013855D01*
X023930Y013831D01*
X023921Y013809D01*
X023908Y013788D01*
X023892Y013769D01*
X023873Y013753D01*
X023852Y013740D01*
X023830Y013731D01*
X023806Y013725D01*
X023781Y013723D01*
X023756Y013725D01*
X023732Y013731D01*
X023710Y013740D01*
X023689Y013753D01*
X023670Y013769D01*
X023654Y013788D01*
X023641Y013809D01*
X023632Y013831D01*
X023626Y013855D01*
X023624Y013880D01*
X023663Y013880D02*
X023665Y013905D01*
X023671Y013929D01*
X023680Y013951D01*
X023693Y013972D01*
X023709Y013991D01*
X023728Y014007D01*
X023749Y014020D01*
X023771Y014029D01*
X023795Y014035D01*
X023820Y014037D01*
X023845Y014035D01*
X023869Y014029D01*
X023891Y014020D01*
X023912Y014007D01*
X023931Y013991D01*
X023947Y013972D01*
X023960Y013951D01*
X023969Y013929D01*
X023975Y013905D01*
X023977Y013880D01*
X023975Y013855D01*
X023969Y013831D01*
X023960Y013809D01*
X023947Y013788D01*
X023931Y013769D01*
X023912Y013753D01*
X023891Y013740D01*
X023869Y013731D01*
X023845Y013725D01*
X023820Y013723D01*
X023795Y013725D01*
X023771Y013731D01*
X023749Y013740D01*
X023728Y013753D01*
X023709Y013769D01*
X023693Y013788D01*
X023680Y013809D01*
X023671Y013831D01*
X023665Y013855D01*
X023663Y013880D01*
X023703Y013880D02*
X023705Y013905D01*
X023711Y013929D01*
X023720Y013951D01*
X023733Y013972D01*
X023749Y013991D01*
X023768Y014007D01*
X023789Y014020D01*
X023811Y014029D01*
X023835Y014035D01*
X023860Y014037D01*
X023885Y014035D01*
X023909Y014029D01*
X023931Y014020D01*
X023952Y014007D01*
X023971Y013991D01*
X023987Y013972D01*
X024000Y013951D01*
X024009Y013929D01*
X024015Y013905D01*
X024017Y013880D01*
X024015Y013855D01*
X024009Y013831D01*
X024000Y013809D01*
X023987Y013788D01*
X023971Y013769D01*
X023952Y013753D01*
X023931Y013740D01*
X023909Y013731D01*
X023885Y013725D01*
X023860Y013723D01*
X023835Y013725D01*
X023811Y013731D01*
X023789Y013740D01*
X023768Y013753D01*
X023749Y013769D01*
X023733Y013788D01*
X023720Y013809D01*
X023711Y013831D01*
X023705Y013855D01*
X023703Y013880D01*
X023742Y013880D02*
X023744Y013905D01*
X023750Y013929D01*
X023759Y013951D01*
X023772Y013972D01*
X023788Y013991D01*
X023807Y014007D01*
X023828Y014020D01*
X023850Y014029D01*
X023874Y014035D01*
X023899Y014037D01*
X023924Y014035D01*
X023948Y014029D01*
X023970Y014020D01*
X023991Y014007D01*
X024010Y013991D01*
X024026Y013972D01*
X024039Y013951D01*
X024048Y013929D01*
X024054Y013905D01*
X024056Y013880D01*
X024054Y013855D01*
X024048Y013831D01*
X024039Y013809D01*
X024026Y013788D01*
X024010Y013769D01*
X023991Y013753D01*
X023970Y013740D01*
X023948Y013731D01*
X023924Y013725D01*
X023899Y013723D01*
X023874Y013725D01*
X023850Y013731D01*
X023828Y013740D01*
X023807Y013753D01*
X023788Y013769D01*
X023772Y013788D01*
X023759Y013809D01*
X023750Y013831D01*
X023744Y013855D01*
X023742Y013880D01*
X023782Y013880D02*
X023784Y013905D01*
X023790Y013929D01*
X023799Y013951D01*
X023812Y013972D01*
X023828Y013991D01*
X023847Y014007D01*
X023868Y014020D01*
X023890Y014029D01*
X023914Y014035D01*
X023939Y014037D01*
X023964Y014035D01*
X023988Y014029D01*
X024010Y014020D01*
X024031Y014007D01*
X024050Y013991D01*
X024066Y013972D01*
X024079Y013951D01*
X024088Y013929D01*
X024094Y013905D01*
X024096Y013880D01*
X024094Y013855D01*
X024088Y013831D01*
X024079Y013809D01*
X024066Y013788D01*
X024050Y013769D01*
X024031Y013753D01*
X024010Y013740D01*
X023988Y013731D01*
X023964Y013725D01*
X023939Y013723D01*
X023914Y013725D01*
X023890Y013731D01*
X023868Y013740D01*
X023847Y013753D01*
X023828Y013769D01*
X023812Y013788D01*
X023799Y013809D01*
X023790Y013831D01*
X023784Y013855D01*
X023782Y013880D01*
X023821Y013880D02*
X023823Y013905D01*
X023829Y013929D01*
X023838Y013951D01*
X023851Y013972D01*
X023867Y013991D01*
X023886Y014007D01*
X023907Y014020D01*
X023929Y014029D01*
X023953Y014035D01*
X023978Y014037D01*
X024003Y014035D01*
X024027Y014029D01*
X024049Y014020D01*
X024070Y014007D01*
X024089Y013991D01*
X024105Y013972D01*
X024118Y013951D01*
X024127Y013929D01*
X024133Y013905D01*
X024135Y013880D01*
X024133Y013855D01*
X024127Y013831D01*
X024118Y013809D01*
X024105Y013788D01*
X024089Y013769D01*
X024070Y013753D01*
X024049Y013740D01*
X024027Y013731D01*
X024003Y013725D01*
X023978Y013723D01*
X023953Y013725D01*
X023929Y013731D01*
X023907Y013740D01*
X023886Y013753D01*
X023867Y013769D01*
X023851Y013788D01*
X023838Y013809D01*
X023829Y013831D01*
X023823Y013855D01*
X023821Y013880D01*
X023860Y013880D02*
X023862Y013905D01*
X023868Y013929D01*
X023877Y013951D01*
X023890Y013972D01*
X023906Y013991D01*
X023925Y014007D01*
X023946Y014020D01*
X023968Y014029D01*
X023992Y014035D01*
X024017Y014037D01*
X024042Y014035D01*
X024066Y014029D01*
X024088Y014020D01*
X024109Y014007D01*
X024128Y013991D01*
X024144Y013972D01*
X024157Y013951D01*
X024166Y013929D01*
X024172Y013905D01*
X024174Y013880D01*
X024172Y013855D01*
X024166Y013831D01*
X024157Y013809D01*
X024144Y013788D01*
X024128Y013769D01*
X024109Y013753D01*
X024088Y013740D01*
X024066Y013731D01*
X024042Y013725D01*
X024017Y013723D01*
X023992Y013725D01*
X023968Y013731D01*
X023946Y013740D01*
X023925Y013753D01*
X023906Y013769D01*
X023890Y013788D01*
X023877Y013809D01*
X023868Y013831D01*
X023862Y013855D01*
X023860Y013880D01*
X023900Y013880D02*
X023902Y013905D01*
X023908Y013929D01*
X023917Y013951D01*
X023930Y013972D01*
X023946Y013991D01*
X023965Y014007D01*
X023986Y014020D01*
X024008Y014029D01*
X024032Y014035D01*
X024057Y014037D01*
X024082Y014035D01*
X024106Y014029D01*
X024128Y014020D01*
X024149Y014007D01*
X024168Y013991D01*
X024184Y013972D01*
X024197Y013951D01*
X024206Y013929D01*
X024212Y013905D01*
X024214Y013880D01*
X024212Y013855D01*
X024206Y013831D01*
X024197Y013809D01*
X024184Y013788D01*
X024168Y013769D01*
X024149Y013753D01*
X024128Y013740D01*
X024106Y013731D01*
X024082Y013725D01*
X024057Y013723D01*
X024032Y013725D01*
X024008Y013731D01*
X023986Y013740D01*
X023965Y013753D01*
X023946Y013769D01*
X023930Y013788D01*
X023917Y013809D01*
X023908Y013831D01*
X023902Y013855D01*
X023900Y013880D01*
X023939Y013880D02*
X023941Y013905D01*
X023947Y013929D01*
X023956Y013951D01*
X023969Y013972D01*
X023985Y013991D01*
X024004Y014007D01*
X024025Y014020D01*
X024047Y014029D01*
X024071Y014035D01*
X024096Y014037D01*
X024121Y014035D01*
X024145Y014029D01*
X024167Y014020D01*
X024188Y014007D01*
X024207Y013991D01*
X024223Y013972D01*
X024236Y013951D01*
X024245Y013929D01*
X024251Y013905D01*
X024253Y013880D01*
X024251Y013855D01*
X024245Y013831D01*
X024236Y013809D01*
X024223Y013788D01*
X024207Y013769D01*
X024188Y013753D01*
X024167Y013740D01*
X024145Y013731D01*
X024121Y013725D01*
X024096Y013723D01*
X024071Y013725D01*
X024047Y013731D01*
X024025Y013740D01*
X024004Y013753D01*
X023985Y013769D01*
X023969Y013788D01*
X023956Y013809D01*
X023947Y013831D01*
X023941Y013855D01*
X023939Y013880D01*
X024628Y012580D02*
X024630Y012605D01*
X024636Y012629D01*
X024645Y012651D01*
X024658Y012672D01*
X024674Y012691D01*
X024693Y012707D01*
X024714Y012720D01*
X024736Y012729D01*
X024760Y012735D01*
X024785Y012737D01*
X024810Y012735D01*
X024834Y012729D01*
X024856Y012720D01*
X024877Y012707D01*
X024896Y012691D01*
X024912Y012672D01*
X024925Y012651D01*
X024934Y012629D01*
X024940Y012605D01*
X024942Y012580D01*
X024940Y012555D01*
X024934Y012531D01*
X024925Y012509D01*
X024912Y012488D01*
X024896Y012469D01*
X024877Y012453D01*
X024856Y012440D01*
X024834Y012431D01*
X024810Y012425D01*
X024785Y012423D01*
X024760Y012425D01*
X024736Y012431D01*
X024714Y012440D01*
X024693Y012453D01*
X024674Y012469D01*
X024658Y012488D01*
X024645Y012509D01*
X024636Y012531D01*
X024630Y012555D01*
X024628Y012580D01*
X024628Y012541D02*
X024630Y012566D01*
X024636Y012590D01*
X024645Y012612D01*
X024658Y012633D01*
X024674Y012652D01*
X024693Y012668D01*
X024714Y012681D01*
X024736Y012690D01*
X024760Y012696D01*
X024785Y012698D01*
X024810Y012696D01*
X024834Y012690D01*
X024856Y012681D01*
X024877Y012668D01*
X024896Y012652D01*
X024912Y012633D01*
X024925Y012612D01*
X024934Y012590D01*
X024940Y012566D01*
X024942Y012541D01*
X024940Y012516D01*
X024934Y012492D01*
X024925Y012470D01*
X024912Y012449D01*
X024896Y012430D01*
X024877Y012414D01*
X024856Y012401D01*
X024834Y012392D01*
X024810Y012386D01*
X024785Y012384D01*
X024760Y012386D01*
X024736Y012392D01*
X024714Y012401D01*
X024693Y012414D01*
X024674Y012430D01*
X024658Y012449D01*
X024645Y012470D01*
X024636Y012492D01*
X024630Y012516D01*
X024628Y012541D01*
X024628Y012502D02*
X024630Y012527D01*
X024636Y012551D01*
X024645Y012573D01*
X024658Y012594D01*
X024674Y012613D01*
X024693Y012629D01*
X024714Y012642D01*
X024736Y012651D01*
X024760Y012657D01*
X024785Y012659D01*
X024810Y012657D01*
X024834Y012651D01*
X024856Y012642D01*
X024877Y012629D01*
X024896Y012613D01*
X024912Y012594D01*
X024925Y012573D01*
X024934Y012551D01*
X024940Y012527D01*
X024942Y012502D01*
X024940Y012477D01*
X024934Y012453D01*
X024925Y012431D01*
X024912Y012410D01*
X024896Y012391D01*
X024877Y012375D01*
X024856Y012362D01*
X024834Y012353D01*
X024810Y012347D01*
X024785Y012345D01*
X024760Y012347D01*
X024736Y012353D01*
X024714Y012362D01*
X024693Y012375D01*
X024674Y012391D01*
X024658Y012410D01*
X024645Y012431D01*
X024636Y012453D01*
X024630Y012477D01*
X024628Y012502D01*
X024628Y012462D02*
X024630Y012487D01*
X024636Y012511D01*
X024645Y012533D01*
X024658Y012554D01*
X024674Y012573D01*
X024693Y012589D01*
X024714Y012602D01*
X024736Y012611D01*
X024760Y012617D01*
X024785Y012619D01*
X024810Y012617D01*
X024834Y012611D01*
X024856Y012602D01*
X024877Y012589D01*
X024896Y012573D01*
X024912Y012554D01*
X024925Y012533D01*
X024934Y012511D01*
X024940Y012487D01*
X024942Y012462D01*
X024940Y012437D01*
X024934Y012413D01*
X024925Y012391D01*
X024912Y012370D01*
X024896Y012351D01*
X024877Y012335D01*
X024856Y012322D01*
X024834Y012313D01*
X024810Y012307D01*
X024785Y012305D01*
X024760Y012307D01*
X024736Y012313D01*
X024714Y012322D01*
X024693Y012335D01*
X024674Y012351D01*
X024658Y012370D01*
X024645Y012391D01*
X024636Y012413D01*
X024630Y012437D01*
X024628Y012462D01*
X024628Y012423D02*
X024630Y012448D01*
X024636Y012472D01*
X024645Y012494D01*
X024658Y012515D01*
X024674Y012534D01*
X024693Y012550D01*
X024714Y012563D01*
X024736Y012572D01*
X024760Y012578D01*
X024785Y012580D01*
X024810Y012578D01*
X024834Y012572D01*
X024856Y012563D01*
X024877Y012550D01*
X024896Y012534D01*
X024912Y012515D01*
X024925Y012494D01*
X024934Y012472D01*
X024940Y012448D01*
X024942Y012423D01*
X024940Y012398D01*
X024934Y012374D01*
X024925Y012352D01*
X024912Y012331D01*
X024896Y012312D01*
X024877Y012296D01*
X024856Y012283D01*
X024834Y012274D01*
X024810Y012268D01*
X024785Y012266D01*
X024760Y012268D01*
X024736Y012274D01*
X024714Y012283D01*
X024693Y012296D01*
X024674Y012312D01*
X024658Y012331D01*
X024645Y012352D01*
X024636Y012374D01*
X024630Y012398D01*
X024628Y012423D01*
X024628Y012383D02*
X024630Y012408D01*
X024636Y012432D01*
X024645Y012454D01*
X024658Y012475D01*
X024674Y012494D01*
X024693Y012510D01*
X024714Y012523D01*
X024736Y012532D01*
X024760Y012538D01*
X024785Y012540D01*
X024810Y012538D01*
X024834Y012532D01*
X024856Y012523D01*
X024877Y012510D01*
X024896Y012494D01*
X024912Y012475D01*
X024925Y012454D01*
X024934Y012432D01*
X024940Y012408D01*
X024942Y012383D01*
X024940Y012358D01*
X024934Y012334D01*
X024925Y012312D01*
X024912Y012291D01*
X024896Y012272D01*
X024877Y012256D01*
X024856Y012243D01*
X024834Y012234D01*
X024810Y012228D01*
X024785Y012226D01*
X024760Y012228D01*
X024736Y012234D01*
X024714Y012243D01*
X024693Y012256D01*
X024674Y012272D01*
X024658Y012291D01*
X024645Y012312D01*
X024636Y012334D01*
X024630Y012358D01*
X024628Y012383D01*
X024628Y012344D02*
X024630Y012369D01*
X024636Y012393D01*
X024645Y012415D01*
X024658Y012436D01*
X024674Y012455D01*
X024693Y012471D01*
X024714Y012484D01*
X024736Y012493D01*
X024760Y012499D01*
X024785Y012501D01*
X024810Y012499D01*
X024834Y012493D01*
X024856Y012484D01*
X024877Y012471D01*
X024896Y012455D01*
X024912Y012436D01*
X024925Y012415D01*
X024934Y012393D01*
X024940Y012369D01*
X024942Y012344D01*
X024940Y012319D01*
X024934Y012295D01*
X024925Y012273D01*
X024912Y012252D01*
X024896Y012233D01*
X024877Y012217D01*
X024856Y012204D01*
X024834Y012195D01*
X024810Y012189D01*
X024785Y012187D01*
X024760Y012189D01*
X024736Y012195D01*
X024714Y012204D01*
X024693Y012217D01*
X024674Y012233D01*
X024658Y012252D01*
X024645Y012273D01*
X024636Y012295D01*
X024630Y012319D01*
X024628Y012344D01*
X024628Y012305D02*
X024630Y012330D01*
X024636Y012354D01*
X024645Y012376D01*
X024658Y012397D01*
X024674Y012416D01*
X024693Y012432D01*
X024714Y012445D01*
X024736Y012454D01*
X024760Y012460D01*
X024785Y012462D01*
X024810Y012460D01*
X024834Y012454D01*
X024856Y012445D01*
X024877Y012432D01*
X024896Y012416D01*
X024912Y012397D01*
X024925Y012376D01*
X024934Y012354D01*
X024940Y012330D01*
X024942Y012305D01*
X024940Y012280D01*
X024934Y012256D01*
X024925Y012234D01*
X024912Y012213D01*
X024896Y012194D01*
X024877Y012178D01*
X024856Y012165D01*
X024834Y012156D01*
X024810Y012150D01*
X024785Y012148D01*
X024760Y012150D01*
X024736Y012156D01*
X024714Y012165D01*
X024693Y012178D01*
X024674Y012194D01*
X024658Y012213D01*
X024645Y012234D01*
X024636Y012256D01*
X024630Y012280D01*
X024628Y012305D01*
X024628Y012265D02*
X024630Y012290D01*
X024636Y012314D01*
X024645Y012336D01*
X024658Y012357D01*
X024674Y012376D01*
X024693Y012392D01*
X024714Y012405D01*
X024736Y012414D01*
X024760Y012420D01*
X024785Y012422D01*
X024810Y012420D01*
X024834Y012414D01*
X024856Y012405D01*
X024877Y012392D01*
X024896Y012376D01*
X024912Y012357D01*
X024925Y012336D01*
X024934Y012314D01*
X024940Y012290D01*
X024942Y012265D01*
X024940Y012240D01*
X024934Y012216D01*
X024925Y012194D01*
X024912Y012173D01*
X024896Y012154D01*
X024877Y012138D01*
X024856Y012125D01*
X024834Y012116D01*
X024810Y012110D01*
X024785Y012108D01*
X024760Y012110D01*
X024736Y012116D01*
X024714Y012125D01*
X024693Y012138D01*
X024674Y012154D01*
X024658Y012173D01*
X024645Y012194D01*
X024636Y012216D01*
X024630Y012240D01*
X024628Y012265D01*
X024628Y012226D02*
X024630Y012251D01*
X024636Y012275D01*
X024645Y012297D01*
X024658Y012318D01*
X024674Y012337D01*
X024693Y012353D01*
X024714Y012366D01*
X024736Y012375D01*
X024760Y012381D01*
X024785Y012383D01*
X024810Y012381D01*
X024834Y012375D01*
X024856Y012366D01*
X024877Y012353D01*
X024896Y012337D01*
X024912Y012318D01*
X024925Y012297D01*
X024934Y012275D01*
X024940Y012251D01*
X024942Y012226D01*
X024940Y012201D01*
X024934Y012177D01*
X024925Y012155D01*
X024912Y012134D01*
X024896Y012115D01*
X024877Y012099D01*
X024856Y012086D01*
X024834Y012077D01*
X024810Y012071D01*
X024785Y012069D01*
X024760Y012071D01*
X024736Y012077D01*
X024714Y012086D01*
X024693Y012099D01*
X024674Y012115D01*
X024658Y012134D01*
X024645Y012155D01*
X024636Y012177D01*
X024630Y012201D01*
X024628Y012226D01*
X024628Y012187D02*
X024630Y012212D01*
X024636Y012236D01*
X024645Y012258D01*
X024658Y012279D01*
X024674Y012298D01*
X024693Y012314D01*
X024714Y012327D01*
X024736Y012336D01*
X024760Y012342D01*
X024785Y012344D01*
X024810Y012342D01*
X024834Y012336D01*
X024856Y012327D01*
X024877Y012314D01*
X024896Y012298D01*
X024912Y012279D01*
X024925Y012258D01*
X024934Y012236D01*
X024940Y012212D01*
X024942Y012187D01*
X024940Y012162D01*
X024934Y012138D01*
X024925Y012116D01*
X024912Y012095D01*
X024896Y012076D01*
X024877Y012060D01*
X024856Y012047D01*
X024834Y012038D01*
X024810Y012032D01*
X024785Y012030D01*
X024760Y012032D01*
X024736Y012038D01*
X024714Y012047D01*
X024693Y012060D01*
X024674Y012076D01*
X024658Y012095D01*
X024645Y012116D01*
X024636Y012138D01*
X024630Y012162D01*
X024628Y012187D01*
X024628Y012147D02*
X024630Y012172D01*
X024636Y012196D01*
X024645Y012218D01*
X024658Y012239D01*
X024674Y012258D01*
X024693Y012274D01*
X024714Y012287D01*
X024736Y012296D01*
X024760Y012302D01*
X024785Y012304D01*
X024810Y012302D01*
X024834Y012296D01*
X024856Y012287D01*
X024877Y012274D01*
X024896Y012258D01*
X024912Y012239D01*
X024925Y012218D01*
X024934Y012196D01*
X024940Y012172D01*
X024942Y012147D01*
X024940Y012122D01*
X024934Y012098D01*
X024925Y012076D01*
X024912Y012055D01*
X024896Y012036D01*
X024877Y012020D01*
X024856Y012007D01*
X024834Y011998D01*
X024810Y011992D01*
X024785Y011990D01*
X024760Y011992D01*
X024736Y011998D01*
X024714Y012007D01*
X024693Y012020D01*
X024674Y012036D01*
X024658Y012055D01*
X024645Y012076D01*
X024636Y012098D01*
X024630Y012122D01*
X024628Y012147D01*
X024628Y012108D02*
X024630Y012133D01*
X024636Y012157D01*
X024645Y012179D01*
X024658Y012200D01*
X024674Y012219D01*
X024693Y012235D01*
X024714Y012248D01*
X024736Y012257D01*
X024760Y012263D01*
X024785Y012265D01*
X024810Y012263D01*
X024834Y012257D01*
X024856Y012248D01*
X024877Y012235D01*
X024896Y012219D01*
X024912Y012200D01*
X024925Y012179D01*
X024934Y012157D01*
X024940Y012133D01*
X024942Y012108D01*
X024940Y012083D01*
X024934Y012059D01*
X024925Y012037D01*
X024912Y012016D01*
X024896Y011997D01*
X024877Y011981D01*
X024856Y011968D01*
X024834Y011959D01*
X024810Y011953D01*
X024785Y011951D01*
X024760Y011953D01*
X024736Y011959D01*
X024714Y011968D01*
X024693Y011981D01*
X024674Y011997D01*
X024658Y012016D01*
X024645Y012037D01*
X024636Y012059D01*
X024630Y012083D01*
X024628Y012108D01*
X024628Y012069D02*
X024630Y012094D01*
X024636Y012118D01*
X024645Y012140D01*
X024658Y012161D01*
X024674Y012180D01*
X024693Y012196D01*
X024714Y012209D01*
X024736Y012218D01*
X024760Y012224D01*
X024785Y012226D01*
X024810Y012224D01*
X024834Y012218D01*
X024856Y012209D01*
X024877Y012196D01*
X024896Y012180D01*
X024912Y012161D01*
X024925Y012140D01*
X024934Y012118D01*
X024940Y012094D01*
X024942Y012069D01*
X024940Y012044D01*
X024934Y012020D01*
X024925Y011998D01*
X024912Y011977D01*
X024896Y011958D01*
X024877Y011942D01*
X024856Y011929D01*
X024834Y011920D01*
X024810Y011914D01*
X024785Y011912D01*
X024760Y011914D01*
X024736Y011920D01*
X024714Y011929D01*
X024693Y011942D01*
X024674Y011958D01*
X024658Y011977D01*
X024645Y011998D01*
X024636Y012020D01*
X024630Y012044D01*
X024628Y012069D01*
X024628Y012029D02*
X024630Y012054D01*
X024636Y012078D01*
X024645Y012100D01*
X024658Y012121D01*
X024674Y012140D01*
X024693Y012156D01*
X024714Y012169D01*
X024736Y012178D01*
X024760Y012184D01*
X024785Y012186D01*
X024810Y012184D01*
X024834Y012178D01*
X024856Y012169D01*
X024877Y012156D01*
X024896Y012140D01*
X024912Y012121D01*
X024925Y012100D01*
X024934Y012078D01*
X024940Y012054D01*
X024942Y012029D01*
X024940Y012004D01*
X024934Y011980D01*
X024925Y011958D01*
X024912Y011937D01*
X024896Y011918D01*
X024877Y011902D01*
X024856Y011889D01*
X024834Y011880D01*
X024810Y011874D01*
X024785Y011872D01*
X024760Y011874D01*
X024736Y011880D01*
X024714Y011889D01*
X024693Y011902D01*
X024674Y011918D01*
X024658Y011937D01*
X024645Y011958D01*
X024636Y011980D01*
X024630Y012004D01*
X024628Y012029D01*
X024628Y011950D02*
X024630Y011975D01*
X024636Y011999D01*
X024645Y012021D01*
X024658Y012042D01*
X024674Y012061D01*
X024693Y012077D01*
X024714Y012090D01*
X024736Y012099D01*
X024760Y012105D01*
X024785Y012107D01*
X024810Y012105D01*
X024834Y012099D01*
X024856Y012090D01*
X024877Y012077D01*
X024896Y012061D01*
X024912Y012042D01*
X024925Y012021D01*
X024934Y011999D01*
X024940Y011975D01*
X024942Y011950D01*
X024940Y011925D01*
X024934Y011901D01*
X024925Y011879D01*
X024912Y011858D01*
X024896Y011839D01*
X024877Y011823D01*
X024856Y011810D01*
X024834Y011801D01*
X024810Y011795D01*
X024785Y011793D01*
X024760Y011795D01*
X024736Y011801D01*
X024714Y011810D01*
X024693Y011823D01*
X024674Y011839D01*
X024658Y011858D01*
X024645Y011879D01*
X024636Y011901D01*
X024630Y011925D01*
X024628Y011950D01*
X024628Y011911D02*
X024630Y011936D01*
X024636Y011960D01*
X024645Y011982D01*
X024658Y012003D01*
X024674Y012022D01*
X024693Y012038D01*
X024714Y012051D01*
X024736Y012060D01*
X024760Y012066D01*
X024785Y012068D01*
X024810Y012066D01*
X024834Y012060D01*
X024856Y012051D01*
X024877Y012038D01*
X024896Y012022D01*
X024912Y012003D01*
X024925Y011982D01*
X024934Y011960D01*
X024940Y011936D01*
X024942Y011911D01*
X024940Y011886D01*
X024934Y011862D01*
X024925Y011840D01*
X024912Y011819D01*
X024896Y011800D01*
X024877Y011784D01*
X024856Y011771D01*
X024834Y011762D01*
X024810Y011756D01*
X024785Y011754D01*
X024760Y011756D01*
X024736Y011762D01*
X024714Y011771D01*
X024693Y011784D01*
X024674Y011800D01*
X024658Y011819D01*
X024645Y011840D01*
X024636Y011862D01*
X024630Y011886D01*
X024628Y011911D01*
X024628Y011872D02*
X024630Y011897D01*
X024636Y011921D01*
X024645Y011943D01*
X024658Y011964D01*
X024674Y011983D01*
X024693Y011999D01*
X024714Y012012D01*
X024736Y012021D01*
X024760Y012027D01*
X024785Y012029D01*
X024810Y012027D01*
X024834Y012021D01*
X024856Y012012D01*
X024877Y011999D01*
X024896Y011983D01*
X024912Y011964D01*
X024925Y011943D01*
X024934Y011921D01*
X024940Y011897D01*
X024942Y011872D01*
X024940Y011847D01*
X024934Y011823D01*
X024925Y011801D01*
X024912Y011780D01*
X024896Y011761D01*
X024877Y011745D01*
X024856Y011732D01*
X024834Y011723D01*
X024810Y011717D01*
X024785Y011715D01*
X024760Y011717D01*
X024736Y011723D01*
X024714Y011732D01*
X024693Y011745D01*
X024674Y011761D01*
X024658Y011780D01*
X024645Y011801D01*
X024636Y011823D01*
X024630Y011847D01*
X024628Y011872D01*
X024628Y011832D02*
X024630Y011857D01*
X024636Y011881D01*
X024645Y011903D01*
X024658Y011924D01*
X024674Y011943D01*
X024693Y011959D01*
X024714Y011972D01*
X024736Y011981D01*
X024760Y011987D01*
X024785Y011989D01*
X024810Y011987D01*
X024834Y011981D01*
X024856Y011972D01*
X024877Y011959D01*
X024896Y011943D01*
X024912Y011924D01*
X024925Y011903D01*
X024934Y011881D01*
X024940Y011857D01*
X024942Y011832D01*
X024940Y011807D01*
X024934Y011783D01*
X024925Y011761D01*
X024912Y011740D01*
X024896Y011721D01*
X024877Y011705D01*
X024856Y011692D01*
X024834Y011683D01*
X024810Y011677D01*
X024785Y011675D01*
X024760Y011677D01*
X024736Y011683D01*
X024714Y011692D01*
X024693Y011705D01*
X024674Y011721D01*
X024658Y011740D01*
X024645Y011761D01*
X024636Y011783D01*
X024630Y011807D01*
X024628Y011832D01*
X024628Y011793D02*
X024630Y011818D01*
X024636Y011842D01*
X024645Y011864D01*
X024658Y011885D01*
X024674Y011904D01*
X024693Y011920D01*
X024714Y011933D01*
X024736Y011942D01*
X024760Y011948D01*
X024785Y011950D01*
X024810Y011948D01*
X024834Y011942D01*
X024856Y011933D01*
X024877Y011920D01*
X024896Y011904D01*
X024912Y011885D01*
X024925Y011864D01*
X024934Y011842D01*
X024940Y011818D01*
X024942Y011793D01*
X024940Y011768D01*
X024934Y011744D01*
X024925Y011722D01*
X024912Y011701D01*
X024896Y011682D01*
X024877Y011666D01*
X024856Y011653D01*
X024834Y011644D01*
X024810Y011638D01*
X024785Y011636D01*
X024760Y011638D01*
X024736Y011644D01*
X024714Y011653D01*
X024693Y011666D01*
X024674Y011682D01*
X024658Y011701D01*
X024645Y011722D01*
X024636Y011744D01*
X024630Y011768D01*
X024628Y011793D01*
X024628Y011754D02*
X024630Y011779D01*
X024636Y011803D01*
X024645Y011825D01*
X024658Y011846D01*
X024674Y011865D01*
X024693Y011881D01*
X024714Y011894D01*
X024736Y011903D01*
X024760Y011909D01*
X024785Y011911D01*
X024810Y011909D01*
X024834Y011903D01*
X024856Y011894D01*
X024877Y011881D01*
X024896Y011865D01*
X024912Y011846D01*
X024925Y011825D01*
X024934Y011803D01*
X024940Y011779D01*
X024942Y011754D01*
X024940Y011729D01*
X024934Y011705D01*
X024925Y011683D01*
X024912Y011662D01*
X024896Y011643D01*
X024877Y011627D01*
X024856Y011614D01*
X024834Y011605D01*
X024810Y011599D01*
X024785Y011597D01*
X024760Y011599D01*
X024736Y011605D01*
X024714Y011614D01*
X024693Y011627D01*
X024674Y011643D01*
X024658Y011662D01*
X024645Y011683D01*
X024636Y011705D01*
X024630Y011729D01*
X024628Y011754D01*
X024628Y011714D02*
X024630Y011739D01*
X024636Y011763D01*
X024645Y011785D01*
X024658Y011806D01*
X024674Y011825D01*
X024693Y011841D01*
X024714Y011854D01*
X024736Y011863D01*
X024760Y011869D01*
X024785Y011871D01*
X024810Y011869D01*
X024834Y011863D01*
X024856Y011854D01*
X024877Y011841D01*
X024896Y011825D01*
X024912Y011806D01*
X024925Y011785D01*
X024934Y011763D01*
X024940Y011739D01*
X024942Y011714D01*
X024940Y011689D01*
X024934Y011665D01*
X024925Y011643D01*
X024912Y011622D01*
X024896Y011603D01*
X024877Y011587D01*
X024856Y011574D01*
X024834Y011565D01*
X024810Y011559D01*
X024785Y011557D01*
X024760Y011559D01*
X024736Y011565D01*
X024714Y011574D01*
X024693Y011587D01*
X024674Y011603D01*
X024658Y011622D01*
X024645Y011643D01*
X024636Y011665D01*
X024630Y011689D01*
X024628Y011714D01*
X024628Y011675D02*
X024630Y011700D01*
X024636Y011724D01*
X024645Y011746D01*
X024658Y011767D01*
X024674Y011786D01*
X024693Y011802D01*
X024714Y011815D01*
X024736Y011824D01*
X024760Y011830D01*
X024785Y011832D01*
X024810Y011830D01*
X024834Y011824D01*
X024856Y011815D01*
X024877Y011802D01*
X024896Y011786D01*
X024912Y011767D01*
X024925Y011746D01*
X024934Y011724D01*
X024940Y011700D01*
X024942Y011675D01*
X024940Y011650D01*
X024934Y011626D01*
X024925Y011604D01*
X024912Y011583D01*
X024896Y011564D01*
X024877Y011548D01*
X024856Y011535D01*
X024834Y011526D01*
X024810Y011520D01*
X024785Y011518D01*
X024760Y011520D01*
X024736Y011526D01*
X024714Y011535D01*
X024693Y011548D01*
X024674Y011564D01*
X024658Y011583D01*
X024645Y011604D01*
X024636Y011626D01*
X024630Y011650D01*
X024628Y011675D01*
X024628Y011635D02*
X024630Y011660D01*
X024636Y011684D01*
X024645Y011706D01*
X024658Y011727D01*
X024674Y011746D01*
X024693Y011762D01*
X024714Y011775D01*
X024736Y011784D01*
X024760Y011790D01*
X024785Y011792D01*
X024810Y011790D01*
X024834Y011784D01*
X024856Y011775D01*
X024877Y011762D01*
X024896Y011746D01*
X024912Y011727D01*
X024925Y011706D01*
X024934Y011684D01*
X024940Y011660D01*
X024942Y011635D01*
X024940Y011610D01*
X024934Y011586D01*
X024925Y011564D01*
X024912Y011543D01*
X024896Y011524D01*
X024877Y011508D01*
X024856Y011495D01*
X024834Y011486D01*
X024810Y011480D01*
X024785Y011478D01*
X024760Y011480D01*
X024736Y011486D01*
X024714Y011495D01*
X024693Y011508D01*
X024674Y011524D01*
X024658Y011543D01*
X024645Y011564D01*
X024636Y011586D01*
X024630Y011610D01*
X024628Y011635D01*
X024628Y011596D02*
X024630Y011621D01*
X024636Y011645D01*
X024645Y011667D01*
X024658Y011688D01*
X024674Y011707D01*
X024693Y011723D01*
X024714Y011736D01*
X024736Y011745D01*
X024760Y011751D01*
X024785Y011753D01*
X024810Y011751D01*
X024834Y011745D01*
X024856Y011736D01*
X024877Y011723D01*
X024896Y011707D01*
X024912Y011688D01*
X024925Y011667D01*
X024934Y011645D01*
X024940Y011621D01*
X024942Y011596D01*
X024940Y011571D01*
X024934Y011547D01*
X024925Y011525D01*
X024912Y011504D01*
X024896Y011485D01*
X024877Y011469D01*
X024856Y011456D01*
X024834Y011447D01*
X024810Y011441D01*
X024785Y011439D01*
X024760Y011441D01*
X024736Y011447D01*
X024714Y011456D01*
X024693Y011469D01*
X024674Y011485D01*
X024658Y011504D01*
X024645Y011525D01*
X024636Y011547D01*
X024630Y011571D01*
X024628Y011596D01*
X024628Y011557D02*
X024630Y011582D01*
X024636Y011606D01*
X024645Y011628D01*
X024658Y011649D01*
X024674Y011668D01*
X024693Y011684D01*
X024714Y011697D01*
X024736Y011706D01*
X024760Y011712D01*
X024785Y011714D01*
X024810Y011712D01*
X024834Y011706D01*
X024856Y011697D01*
X024877Y011684D01*
X024896Y011668D01*
X024912Y011649D01*
X024925Y011628D01*
X024934Y011606D01*
X024940Y011582D01*
X024942Y011557D01*
X024940Y011532D01*
X024934Y011508D01*
X024925Y011486D01*
X024912Y011465D01*
X024896Y011446D01*
X024877Y011430D01*
X024856Y011417D01*
X024834Y011408D01*
X024810Y011402D01*
X024785Y011400D01*
X024760Y011402D01*
X024736Y011408D01*
X024714Y011417D01*
X024693Y011430D01*
X024674Y011446D01*
X024658Y011465D01*
X024645Y011486D01*
X024636Y011508D01*
X024630Y011532D01*
X024628Y011557D01*
X024628Y011517D02*
X024630Y011542D01*
X024636Y011566D01*
X024645Y011588D01*
X024658Y011609D01*
X024674Y011628D01*
X024693Y011644D01*
X024714Y011657D01*
X024736Y011666D01*
X024760Y011672D01*
X024785Y011674D01*
X024810Y011672D01*
X024834Y011666D01*
X024856Y011657D01*
X024877Y011644D01*
X024896Y011628D01*
X024912Y011609D01*
X024925Y011588D01*
X024934Y011566D01*
X024940Y011542D01*
X024942Y011517D01*
X024940Y011492D01*
X024934Y011468D01*
X024925Y011446D01*
X024912Y011425D01*
X024896Y011406D01*
X024877Y011390D01*
X024856Y011377D01*
X024834Y011368D01*
X024810Y011362D01*
X024785Y011360D01*
X024760Y011362D01*
X024736Y011368D01*
X024714Y011377D01*
X024693Y011390D01*
X024674Y011406D01*
X024658Y011425D01*
X024645Y011446D01*
X024636Y011468D01*
X024630Y011492D01*
X024628Y011517D01*
X024628Y011478D02*
X024630Y011503D01*
X024636Y011527D01*
X024645Y011549D01*
X024658Y011570D01*
X024674Y011589D01*
X024693Y011605D01*
X024714Y011618D01*
X024736Y011627D01*
X024760Y011633D01*
X024785Y011635D01*
X024810Y011633D01*
X024834Y011627D01*
X024856Y011618D01*
X024877Y011605D01*
X024896Y011589D01*
X024912Y011570D01*
X024925Y011549D01*
X024934Y011527D01*
X024940Y011503D01*
X024942Y011478D01*
X024940Y011453D01*
X024934Y011429D01*
X024925Y011407D01*
X024912Y011386D01*
X024896Y011367D01*
X024877Y011351D01*
X024856Y011338D01*
X024834Y011329D01*
X024810Y011323D01*
X024785Y011321D01*
X024760Y011323D01*
X024736Y011329D01*
X024714Y011338D01*
X024693Y011351D01*
X024674Y011367D01*
X024658Y011386D01*
X024645Y011407D01*
X024636Y011429D01*
X024630Y011453D01*
X024628Y011478D01*
X024628Y011439D02*
X024630Y011464D01*
X024636Y011488D01*
X024645Y011510D01*
X024658Y011531D01*
X024674Y011550D01*
X024693Y011566D01*
X024714Y011579D01*
X024736Y011588D01*
X024760Y011594D01*
X024785Y011596D01*
X024810Y011594D01*
X024834Y011588D01*
X024856Y011579D01*
X024877Y011566D01*
X024896Y011550D01*
X024912Y011531D01*
X024925Y011510D01*
X024934Y011488D01*
X024940Y011464D01*
X024942Y011439D01*
X024940Y011414D01*
X024934Y011390D01*
X024925Y011368D01*
X024912Y011347D01*
X024896Y011328D01*
X024877Y011312D01*
X024856Y011299D01*
X024834Y011290D01*
X024810Y011284D01*
X024785Y011282D01*
X024760Y011284D01*
X024736Y011290D01*
X024714Y011299D01*
X024693Y011312D01*
X024674Y011328D01*
X024658Y011347D01*
X024645Y011368D01*
X024636Y011390D01*
X024630Y011414D01*
X024628Y011439D01*
X024628Y011399D02*
X024630Y011424D01*
X024636Y011448D01*
X024645Y011470D01*
X024658Y011491D01*
X024674Y011510D01*
X024693Y011526D01*
X024714Y011539D01*
X024736Y011548D01*
X024760Y011554D01*
X024785Y011556D01*
X024810Y011554D01*
X024834Y011548D01*
X024856Y011539D01*
X024877Y011526D01*
X024896Y011510D01*
X024912Y011491D01*
X024925Y011470D01*
X024934Y011448D01*
X024940Y011424D01*
X024942Y011399D01*
X024940Y011374D01*
X024934Y011350D01*
X024925Y011328D01*
X024912Y011307D01*
X024896Y011288D01*
X024877Y011272D01*
X024856Y011259D01*
X024834Y011250D01*
X024810Y011244D01*
X024785Y011242D01*
X024760Y011244D01*
X024736Y011250D01*
X024714Y011259D01*
X024693Y011272D01*
X024674Y011288D01*
X024658Y011307D01*
X024645Y011328D01*
X024636Y011350D01*
X024630Y011374D01*
X024628Y011399D01*
X025927Y018683D02*
X025929Y018733D01*
X025935Y018783D01*
X025945Y018832D01*
X025959Y018880D01*
X025976Y018927D01*
X025997Y018972D01*
X026022Y019016D01*
X026050Y019057D01*
X026082Y019096D01*
X026116Y019133D01*
X026153Y019167D01*
X026193Y019197D01*
X026235Y019224D01*
X026279Y019248D01*
X026325Y019269D01*
X026372Y019285D01*
X026420Y019298D01*
X026470Y019307D01*
X026519Y019312D01*
X026570Y019313D01*
X026620Y019310D01*
X026669Y019303D01*
X026718Y019292D01*
X026766Y019277D01*
X026812Y019259D01*
X026857Y019237D01*
X026900Y019211D01*
X026941Y019182D01*
X026980Y019150D01*
X027016Y019115D01*
X027048Y019077D01*
X027078Y019037D01*
X027105Y018994D01*
X027128Y018950D01*
X027147Y018904D01*
X027163Y018856D01*
X027175Y018807D01*
X027183Y018758D01*
X027187Y018708D01*
X027187Y018658D01*
X027183Y018608D01*
X027175Y018559D01*
X027163Y018510D01*
X027147Y018462D01*
X027128Y018416D01*
X027105Y018372D01*
X027078Y018329D01*
X027048Y018289D01*
X027016Y018251D01*
X026980Y018216D01*
X026941Y018184D01*
X026900Y018155D01*
X026857Y018129D01*
X026812Y018107D01*
X026766Y018089D01*
X026718Y018074D01*
X026669Y018063D01*
X026620Y018056D01*
X026570Y018053D01*
X026519Y018054D01*
X026470Y018059D01*
X026420Y018068D01*
X026372Y018081D01*
X026325Y018097D01*
X026279Y018118D01*
X026235Y018142D01*
X026193Y018169D01*
X026153Y018199D01*
X026116Y018233D01*
X026082Y018270D01*
X026050Y018309D01*
X026022Y018350D01*
X025997Y018394D01*
X025976Y018439D01*
X025959Y018486D01*
X025945Y018534D01*
X025935Y018583D01*
X025929Y018633D01*
X025927Y018683D01*
X025927Y001360D02*
X025929Y001410D01*
X025935Y001460D01*
X025945Y001509D01*
X025959Y001557D01*
X025976Y001604D01*
X025997Y001649D01*
X026022Y001693D01*
X026050Y001734D01*
X026082Y001773D01*
X026116Y001810D01*
X026153Y001844D01*
X026193Y001874D01*
X026235Y001901D01*
X026279Y001925D01*
X026325Y001946D01*
X026372Y001962D01*
X026420Y001975D01*
X026470Y001984D01*
X026519Y001989D01*
X026570Y001990D01*
X026620Y001987D01*
X026669Y001980D01*
X026718Y001969D01*
X026766Y001954D01*
X026812Y001936D01*
X026857Y001914D01*
X026900Y001888D01*
X026941Y001859D01*
X026980Y001827D01*
X027016Y001792D01*
X027048Y001754D01*
X027078Y001714D01*
X027105Y001671D01*
X027128Y001627D01*
X027147Y001581D01*
X027163Y001533D01*
X027175Y001484D01*
X027183Y001435D01*
X027187Y001385D01*
X027187Y001335D01*
X027183Y001285D01*
X027175Y001236D01*
X027163Y001187D01*
X027147Y001139D01*
X027128Y001093D01*
X027105Y001049D01*
X027078Y001006D01*
X027048Y000966D01*
X027016Y000928D01*
X026980Y000893D01*
X026941Y000861D01*
X026900Y000832D01*
X026857Y000806D01*
X026812Y000784D01*
X026766Y000766D01*
X026718Y000751D01*
X026669Y000740D01*
X026620Y000733D01*
X026570Y000730D01*
X026519Y000731D01*
X026470Y000736D01*
X026420Y000745D01*
X026372Y000758D01*
X026325Y000774D01*
X026279Y000795D01*
X026235Y000819D01*
X026193Y000846D01*
X026153Y000876D01*
X026116Y000910D01*
X026082Y000947D01*
X026050Y000986D01*
X026022Y001027D01*
X025997Y001071D01*
X025976Y001116D01*
X025959Y001163D01*
X025945Y001211D01*
X025935Y001260D01*
X025929Y001310D01*
X025927Y001360D01*
X000730Y018683D02*
X000732Y018733D01*
X000738Y018783D01*
X000748Y018832D01*
X000762Y018880D01*
X000779Y018927D01*
X000800Y018972D01*
X000825Y019016D01*
X000853Y019057D01*
X000885Y019096D01*
X000919Y019133D01*
X000956Y019167D01*
X000996Y019197D01*
X001038Y019224D01*
X001082Y019248D01*
X001128Y019269D01*
X001175Y019285D01*
X001223Y019298D01*
X001273Y019307D01*
X001322Y019312D01*
X001373Y019313D01*
X001423Y019310D01*
X001472Y019303D01*
X001521Y019292D01*
X001569Y019277D01*
X001615Y019259D01*
X001660Y019237D01*
X001703Y019211D01*
X001744Y019182D01*
X001783Y019150D01*
X001819Y019115D01*
X001851Y019077D01*
X001881Y019037D01*
X001908Y018994D01*
X001931Y018950D01*
X001950Y018904D01*
X001966Y018856D01*
X001978Y018807D01*
X001986Y018758D01*
X001990Y018708D01*
X001990Y018658D01*
X001986Y018608D01*
X001978Y018559D01*
X001966Y018510D01*
X001950Y018462D01*
X001931Y018416D01*
X001908Y018372D01*
X001881Y018329D01*
X001851Y018289D01*
X001819Y018251D01*
X001783Y018216D01*
X001744Y018184D01*
X001703Y018155D01*
X001660Y018129D01*
X001615Y018107D01*
X001569Y018089D01*
X001521Y018074D01*
X001472Y018063D01*
X001423Y018056D01*
X001373Y018053D01*
X001322Y018054D01*
X001273Y018059D01*
X001223Y018068D01*
X001175Y018081D01*
X001128Y018097D01*
X001082Y018118D01*
X001038Y018142D01*
X000996Y018169D01*
X000956Y018199D01*
X000919Y018233D01*
X000885Y018270D01*
X000853Y018309D01*
X000825Y018350D01*
X000800Y018394D01*
X000779Y018439D01*
X000762Y018486D01*
X000748Y018534D01*
X000738Y018583D01*
X000732Y018633D01*
X000730Y018683D01*
M02*
