G75*
%MOIN*%
%OFA0B0*%
%FSLAX24Y24*%
%IPPOS*%
%LPD*%
%AMOC8*
5,1,8,0,0,1.08239X$1,22.5*
%
%ADD10R,0.0236X0.0748*%
%ADD11R,0.0394X0.0315*%
%ADD12R,0.0315X0.0394*%
%ADD13R,0.0394X0.0551*%
%ADD14R,0.2756X0.2756*%
%ADD15R,0.0394X0.0630*%
%ADD16R,0.0630X0.0866*%
%ADD17R,0.0276X0.0709*%
D10*
X003616Y007147D03*
X004616Y007147D03*
X004616Y009746D03*
X003616Y009746D03*
X008340Y009746D03*
X009340Y009746D03*
X009340Y007147D03*
X008340Y007147D03*
X013065Y007147D03*
X014065Y007147D03*
X014065Y009746D03*
X013065Y009746D03*
D11*
X018683Y008722D03*
X018683Y008171D03*
X020257Y008171D03*
X020257Y008722D03*
X008053Y015238D03*
X008053Y015828D03*
X006084Y015828D03*
X006084Y015238D03*
X004116Y015238D03*
X004116Y015828D03*
X004509Y005986D03*
X004509Y005395D03*
D12*
X009332Y005691D03*
X009923Y005691D03*
X011301Y005691D03*
X011891Y005691D03*
X010317Y011596D03*
X009726Y011596D03*
X008348Y013565D03*
X007757Y013565D03*
X005592Y011596D03*
X005002Y011596D03*
X003624Y013565D03*
X003033Y013565D03*
X012482Y013565D03*
X013072Y013565D03*
X014450Y011596D03*
X015041Y011596D03*
D13*
X013151Y012423D03*
X012403Y012423D03*
X012777Y011557D03*
X008427Y012423D03*
X007679Y012423D03*
X008053Y011557D03*
X003702Y012423D03*
X002954Y012423D03*
X003328Y011557D03*
D14*
X019376Y012415D03*
D15*
X020273Y009541D03*
X018478Y009541D03*
D16*
X003053Y002935D03*
X010691Y002935D03*
X010691Y017108D03*
X003053Y017108D03*
X020257Y017187D03*
X024982Y017187D03*
D17*
X023850Y018250D03*
X023358Y018250D03*
X022866Y018250D03*
X022374Y018250D03*
X021881Y018250D03*
X021389Y018250D03*
X009578Y018171D03*
X009086Y018171D03*
X008594Y018171D03*
X008102Y018171D03*
X007610Y018171D03*
X007118Y018171D03*
X006626Y018171D03*
X006133Y018171D03*
X005641Y018171D03*
X005149Y018171D03*
X004657Y018171D03*
X004165Y018171D03*
X004165Y003998D03*
X004657Y003998D03*
X005149Y003998D03*
X005641Y003998D03*
X006133Y003998D03*
X006626Y003998D03*
X007118Y003998D03*
X007610Y003998D03*
X008102Y003998D03*
X008594Y003998D03*
X009086Y003998D03*
X009578Y003998D03*
M02*
