G75*
%MOIN*%
%OFA0B0*%
%FSLAX24Y24*%
%IPPOS*%
%LPD*%
%AMOC8*
5,1,8,0,0,1.08239X$1,22.5*
%
%ADD10C,0.0000*%
%ADD11C,0.0320*%
D10*
X000179Y000179D02*
X000179Y019864D01*
X027738Y019864D01*
X027738Y000179D01*
X000179Y000179D01*
X000730Y001360D02*
X000732Y001410D01*
X000738Y001460D01*
X000748Y001509D01*
X000762Y001557D01*
X000779Y001604D01*
X000800Y001649D01*
X000825Y001693D01*
X000853Y001734D01*
X000885Y001773D01*
X000919Y001810D01*
X000956Y001844D01*
X000996Y001874D01*
X001038Y001901D01*
X001082Y001925D01*
X001128Y001946D01*
X001175Y001962D01*
X001223Y001975D01*
X001273Y001984D01*
X001322Y001989D01*
X001373Y001990D01*
X001423Y001987D01*
X001472Y001980D01*
X001521Y001969D01*
X001569Y001954D01*
X001615Y001936D01*
X001660Y001914D01*
X001703Y001888D01*
X001744Y001859D01*
X001783Y001827D01*
X001819Y001792D01*
X001851Y001754D01*
X001881Y001714D01*
X001908Y001671D01*
X001931Y001627D01*
X001950Y001581D01*
X001966Y001533D01*
X001978Y001484D01*
X001986Y001435D01*
X001990Y001385D01*
X001990Y001335D01*
X001986Y001285D01*
X001978Y001236D01*
X001966Y001187D01*
X001950Y001139D01*
X001931Y001093D01*
X001908Y001049D01*
X001881Y001006D01*
X001851Y000966D01*
X001819Y000928D01*
X001783Y000893D01*
X001744Y000861D01*
X001703Y000832D01*
X001660Y000806D01*
X001615Y000784D01*
X001569Y000766D01*
X001521Y000751D01*
X001472Y000740D01*
X001423Y000733D01*
X001373Y000730D01*
X001322Y000731D01*
X001273Y000736D01*
X001223Y000745D01*
X001175Y000758D01*
X001128Y000774D01*
X001082Y000795D01*
X001038Y000819D01*
X000996Y000846D01*
X000956Y000876D01*
X000919Y000910D01*
X000885Y000947D01*
X000853Y000986D01*
X000825Y001027D01*
X000800Y001071D01*
X000779Y001116D01*
X000762Y001163D01*
X000748Y001211D01*
X000738Y001260D01*
X000732Y001310D01*
X000730Y001360D01*
X000730Y018683D02*
X000732Y018733D01*
X000738Y018783D01*
X000748Y018832D01*
X000762Y018880D01*
X000779Y018927D01*
X000800Y018972D01*
X000825Y019016D01*
X000853Y019057D01*
X000885Y019096D01*
X000919Y019133D01*
X000956Y019167D01*
X000996Y019197D01*
X001038Y019224D01*
X001082Y019248D01*
X001128Y019269D01*
X001175Y019285D01*
X001223Y019298D01*
X001273Y019307D01*
X001322Y019312D01*
X001373Y019313D01*
X001423Y019310D01*
X001472Y019303D01*
X001521Y019292D01*
X001569Y019277D01*
X001615Y019259D01*
X001660Y019237D01*
X001703Y019211D01*
X001744Y019182D01*
X001783Y019150D01*
X001819Y019115D01*
X001851Y019077D01*
X001881Y019037D01*
X001908Y018994D01*
X001931Y018950D01*
X001950Y018904D01*
X001966Y018856D01*
X001978Y018807D01*
X001986Y018758D01*
X001990Y018708D01*
X001990Y018658D01*
X001986Y018608D01*
X001978Y018559D01*
X001966Y018510D01*
X001950Y018462D01*
X001931Y018416D01*
X001908Y018372D01*
X001881Y018329D01*
X001851Y018289D01*
X001819Y018251D01*
X001783Y018216D01*
X001744Y018184D01*
X001703Y018155D01*
X001660Y018129D01*
X001615Y018107D01*
X001569Y018089D01*
X001521Y018074D01*
X001472Y018063D01*
X001423Y018056D01*
X001373Y018053D01*
X001322Y018054D01*
X001273Y018059D01*
X001223Y018068D01*
X001175Y018081D01*
X001128Y018097D01*
X001082Y018118D01*
X001038Y018142D01*
X000996Y018169D01*
X000956Y018199D01*
X000919Y018233D01*
X000885Y018270D01*
X000853Y018309D01*
X000825Y018350D01*
X000800Y018394D01*
X000779Y018439D01*
X000762Y018486D01*
X000748Y018534D01*
X000738Y018583D01*
X000732Y018633D01*
X000730Y018683D01*
X025927Y018683D02*
X025929Y018733D01*
X025935Y018783D01*
X025945Y018832D01*
X025959Y018880D01*
X025976Y018927D01*
X025997Y018972D01*
X026022Y019016D01*
X026050Y019057D01*
X026082Y019096D01*
X026116Y019133D01*
X026153Y019167D01*
X026193Y019197D01*
X026235Y019224D01*
X026279Y019248D01*
X026325Y019269D01*
X026372Y019285D01*
X026420Y019298D01*
X026470Y019307D01*
X026519Y019312D01*
X026570Y019313D01*
X026620Y019310D01*
X026669Y019303D01*
X026718Y019292D01*
X026766Y019277D01*
X026812Y019259D01*
X026857Y019237D01*
X026900Y019211D01*
X026941Y019182D01*
X026980Y019150D01*
X027016Y019115D01*
X027048Y019077D01*
X027078Y019037D01*
X027105Y018994D01*
X027128Y018950D01*
X027147Y018904D01*
X027163Y018856D01*
X027175Y018807D01*
X027183Y018758D01*
X027187Y018708D01*
X027187Y018658D01*
X027183Y018608D01*
X027175Y018559D01*
X027163Y018510D01*
X027147Y018462D01*
X027128Y018416D01*
X027105Y018372D01*
X027078Y018329D01*
X027048Y018289D01*
X027016Y018251D01*
X026980Y018216D01*
X026941Y018184D01*
X026900Y018155D01*
X026857Y018129D01*
X026812Y018107D01*
X026766Y018089D01*
X026718Y018074D01*
X026669Y018063D01*
X026620Y018056D01*
X026570Y018053D01*
X026519Y018054D01*
X026470Y018059D01*
X026420Y018068D01*
X026372Y018081D01*
X026325Y018097D01*
X026279Y018118D01*
X026235Y018142D01*
X026193Y018169D01*
X026153Y018199D01*
X026116Y018233D01*
X026082Y018270D01*
X026050Y018309D01*
X026022Y018350D01*
X025997Y018394D01*
X025976Y018439D01*
X025959Y018486D01*
X025945Y018534D01*
X025935Y018583D01*
X025929Y018633D01*
X025927Y018683D01*
X025927Y001360D02*
X025929Y001410D01*
X025935Y001460D01*
X025945Y001509D01*
X025959Y001557D01*
X025976Y001604D01*
X025997Y001649D01*
X026022Y001693D01*
X026050Y001734D01*
X026082Y001773D01*
X026116Y001810D01*
X026153Y001844D01*
X026193Y001874D01*
X026235Y001901D01*
X026279Y001925D01*
X026325Y001946D01*
X026372Y001962D01*
X026420Y001975D01*
X026470Y001984D01*
X026519Y001989D01*
X026570Y001990D01*
X026620Y001987D01*
X026669Y001980D01*
X026718Y001969D01*
X026766Y001954D01*
X026812Y001936D01*
X026857Y001914D01*
X026900Y001888D01*
X026941Y001859D01*
X026980Y001827D01*
X027016Y001792D01*
X027048Y001754D01*
X027078Y001714D01*
X027105Y001671D01*
X027128Y001627D01*
X027147Y001581D01*
X027163Y001533D01*
X027175Y001484D01*
X027183Y001435D01*
X027187Y001385D01*
X027187Y001335D01*
X027183Y001285D01*
X027175Y001236D01*
X027163Y001187D01*
X027147Y001139D01*
X027128Y001093D01*
X027105Y001049D01*
X027078Y001006D01*
X027048Y000966D01*
X027016Y000928D01*
X026980Y000893D01*
X026941Y000861D01*
X026900Y000832D01*
X026857Y000806D01*
X026812Y000784D01*
X026766Y000766D01*
X026718Y000751D01*
X026669Y000740D01*
X026620Y000733D01*
X026570Y000730D01*
X026519Y000731D01*
X026470Y000736D01*
X026420Y000745D01*
X026372Y000758D01*
X026325Y000774D01*
X026279Y000795D01*
X026235Y000819D01*
X026193Y000846D01*
X026153Y000876D01*
X026116Y000910D01*
X026082Y000947D01*
X026050Y000986D01*
X026022Y001027D01*
X025997Y001071D01*
X025976Y001116D01*
X025959Y001163D01*
X025945Y001211D01*
X025935Y001260D01*
X025929Y001310D01*
X025927Y001360D01*
D11*
X025376Y011596D02*
X025376Y012383D01*
X024391Y013761D02*
X023604Y013761D01*
X022620Y012383D02*
X022620Y011596D01*
M02*
