%
M48
M72
T01C0.0236
T02C0.0315
T03C0.0354
T04C0.1260
%
T01
X5691Y4903
X11202Y7265
X11596Y9234
X10809Y10809
X11596Y13171
X15533Y10809
X17502Y7659
X6872Y13171
X6872Y15533
X4903Y15533
X2738Y15336
X2147Y13171
X6084Y10415
X14943Y17305
X22817Y16124
X24588Y18683
T02
X23998Y13761
X25376Y11990
X22620Y11990
X23982Y5691
X24982Y5691
X25982Y5691
X20738Y3147
X19738Y3147
X18738Y3147
X16738Y3147
X15738Y3147
T03
X9992Y2423
X3752Y2423
X3752Y16596
X9992Y16596
X20976Y16517
X24263Y16517
T04
X1360Y1360
X1360Y18683
X26557Y18683
X26557Y1360
M30
