G75*
%MOIN*%
%OFA0B0*%
%FSLAX25Y25*%
%IPPOS*%
%LPD*%
%AMOC8*
5,1,8,0,0,1.08239X$1,22.5*
%
%ADD10C,0.00500*%
%ADD11C,0.00400*%
D10*
X0019466Y0029609D02*
X0018564Y0030511D01*
X0018564Y0034117D01*
X0019466Y0035019D01*
X0022171Y0035019D01*
X0022171Y0029609D01*
X0019466Y0029609D01*
X0024002Y0029609D02*
X0024002Y0035019D01*
X0027608Y0035019D02*
X0024002Y0029609D01*
X0027608Y0029609D02*
X0027608Y0035019D01*
X0029439Y0034117D02*
X0030341Y0035019D01*
X0032144Y0035019D01*
X0033046Y0034117D01*
X0033046Y0030511D01*
X0032144Y0029609D01*
X0030341Y0029609D01*
X0029439Y0030511D01*
X0029439Y0032314D01*
X0031243Y0032314D01*
X0057950Y0032721D02*
X0057950Y0023272D01*
X0062674Y0023272D01*
X0062674Y0032721D01*
X0057950Y0032721D01*
X0061509Y0040887D02*
X0066233Y0040887D01*
X0066233Y0050335D01*
X0061509Y0050335D01*
X0061509Y0040887D01*
X0130894Y0020123D02*
X0130894Y0015398D01*
X0140343Y0015398D01*
X0140343Y0020123D01*
X0130894Y0020123D01*
X0150800Y0026800D02*
X0180800Y0026800D01*
X0180800Y0074800D01*
X0150800Y0074800D01*
X0150800Y0026800D01*
X0141957Y0040383D02*
X0137233Y0040383D01*
X0137233Y0049831D01*
X0141957Y0049831D01*
X0141957Y0040383D01*
X0188414Y0036446D02*
X0193139Y0036446D01*
X0193139Y0045894D01*
X0188414Y0045894D01*
X0188414Y0036446D01*
X0228454Y0030068D02*
X0228454Y0025343D01*
X0237902Y0025343D01*
X0237902Y0030068D01*
X0228454Y0030068D01*
X0228162Y0017036D02*
X0228162Y0012312D01*
X0237611Y0012312D01*
X0237611Y0017036D01*
X0228162Y0017036D01*
X0025172Y0140747D02*
X0024270Y0139845D01*
X0022467Y0139845D01*
X0021565Y0140747D01*
X0021565Y0142550D01*
X0023369Y0142550D01*
X0025172Y0140747D02*
X0025172Y0144354D01*
X0024270Y0145255D01*
X0022467Y0145255D01*
X0021565Y0144354D01*
X0019734Y0145255D02*
X0016128Y0139845D01*
X0016128Y0145255D01*
X0014297Y0145255D02*
X0011592Y0145255D01*
X0010690Y0144354D01*
X0010690Y0140747D01*
X0011592Y0139845D01*
X0014297Y0139845D01*
X0014297Y0145255D01*
X0019734Y0145255D02*
X0019734Y0139845D01*
D11*
X0067516Y0048828D02*
X0067516Y0045811D01*
X0067516Y0047319D02*
X0072041Y0047319D01*
X0070532Y0045811D01*
X0071287Y0044296D02*
X0072041Y0043542D01*
X0072041Y0042034D01*
X0071287Y0041280D01*
X0068270Y0041280D01*
X0067516Y0042034D01*
X0067516Y0043542D01*
X0068270Y0044296D01*
X0067728Y0031214D02*
X0066973Y0031214D01*
X0063957Y0028197D01*
X0063957Y0031214D01*
X0067728Y0031214D02*
X0068482Y0030459D01*
X0068482Y0028951D01*
X0067728Y0028197D01*
X0067728Y0026682D02*
X0066219Y0026682D01*
X0065465Y0025928D01*
X0065465Y0023665D01*
X0063957Y0023665D02*
X0068482Y0023665D01*
X0068482Y0025928D01*
X0067728Y0026682D01*
X0065465Y0025174D02*
X0063957Y0026682D01*
X0132402Y0009594D02*
X0135419Y0009594D01*
X0133911Y0009594D02*
X0133911Y0014120D01*
X0135419Y0012611D01*
X0136934Y0011857D02*
X0137688Y0011103D01*
X0139950Y0011103D01*
X0138442Y0011103D02*
X0136934Y0009594D01*
X0136934Y0011857D02*
X0136934Y0013365D01*
X0137688Y0014120D01*
X0139950Y0014120D01*
X0139950Y0009594D01*
X0143994Y0040776D02*
X0143240Y0041530D01*
X0143240Y0043038D01*
X0143994Y0043792D01*
X0143994Y0045307D02*
X0143240Y0046061D01*
X0143240Y0047570D01*
X0143994Y0048324D01*
X0145503Y0048324D01*
X0146257Y0047570D01*
X0146257Y0046815D01*
X0145503Y0045307D01*
X0147765Y0045307D01*
X0147765Y0048324D01*
X0147011Y0043792D02*
X0147765Y0043038D01*
X0147765Y0041530D01*
X0147011Y0040776D01*
X0143994Y0040776D01*
X0194421Y0039101D02*
X0194421Y0037593D01*
X0195175Y0036839D01*
X0198192Y0036839D01*
X0198946Y0037593D01*
X0198946Y0039101D01*
X0198192Y0039855D01*
X0196684Y0041370D02*
X0196684Y0044387D01*
X0198946Y0043633D02*
X0194421Y0043633D01*
X0196684Y0041370D02*
X0198946Y0043633D01*
X0195175Y0039855D02*
X0194421Y0039101D01*
X0229961Y0035121D02*
X0230715Y0035876D01*
X0232224Y0035876D01*
X0232978Y0035121D01*
X0234493Y0035121D02*
X0235247Y0035876D01*
X0236755Y0035876D01*
X0237509Y0035121D01*
X0237509Y0032105D01*
X0236755Y0031350D01*
X0235247Y0031350D01*
X0234493Y0032105D01*
X0232978Y0031350D02*
X0229961Y0034367D01*
X0229961Y0035121D01*
X0229961Y0031350D02*
X0232978Y0031350D01*
X0231932Y0022844D02*
X0230424Y0022844D01*
X0229670Y0022090D01*
X0229670Y0021336D01*
X0230424Y0020581D01*
X0229670Y0019827D01*
X0229670Y0019073D01*
X0230424Y0018319D01*
X0231932Y0018319D01*
X0232687Y0019073D01*
X0234201Y0019073D02*
X0234955Y0018319D01*
X0236464Y0018319D01*
X0237218Y0019073D01*
X0237218Y0022090D01*
X0236464Y0022844D01*
X0234955Y0022844D01*
X0234201Y0022090D01*
X0232687Y0022090D02*
X0231932Y0022844D01*
X0231178Y0020581D02*
X0230424Y0020581D01*
X0167669Y0077733D02*
X0167669Y0083871D01*
X0166902Y0083104D02*
X0166135Y0082337D01*
X0166902Y0083104D02*
X0168437Y0083104D01*
X0169204Y0082337D01*
X0169204Y0081569D01*
X0168437Y0080802D01*
X0166902Y0080802D01*
X0166135Y0080035D01*
X0166135Y0079267D01*
X0166902Y0078500D01*
X0168437Y0078500D01*
X0169204Y0079267D01*
X0170739Y0079267D02*
X0170739Y0083104D01*
X0173808Y0083104D02*
X0173808Y0079267D01*
X0173041Y0078500D01*
X0171506Y0078500D01*
X0170739Y0079267D01*
X0164600Y0079267D02*
X0163833Y0078500D01*
X0162298Y0078500D01*
X0161531Y0079267D01*
X0161531Y0080802D01*
X0162298Y0081569D01*
X0163065Y0081569D01*
X0164600Y0080802D01*
X0164600Y0083104D01*
X0161531Y0083104D01*
X0159996Y0082337D02*
X0159229Y0083104D01*
X0157694Y0083104D01*
X0156927Y0082337D01*
X0156927Y0081569D01*
X0159996Y0078500D01*
X0156927Y0078500D01*
M02*
