G75*
%MOIN*%
%OFA0B0*%
%FSLAX25Y25*%
%IPPOS*%
%LPD*%
%AMOC8*
5,1,8,0,0,1.08239X$1,22.5*
%
%ADD10R,0.03937X0.03150*%
%ADD11C,0.05315*%
%ADD12C,0.04800*%
%ADD13R,0.03150X0.03937*%
%ADD14C,0.04724*%
%ADD15OC8,0.05400*%
%ADD16R,0.06000X0.06000*%
%ADD17C,0.06000*%
%ADD18C,0.04134*%
%ADD19R,0.06693X0.06693*%
%ADD20R,0.04724X0.04724*%
%ADD21R,0.27559X0.27559*%
%ADD22R,0.03937X0.06299*%
%ADD23C,0.01575*%
%ADD24R,0.03543X0.03543*%
%ADD25C,0.01181*%
%ADD26C,0.01600*%
%ADD27C,0.02756*%
%ADD28C,0.03543*%
%ADD29C,0.02362*%
%ADD30C,0.03543*%
D10*
X0060312Y0025241D03*
X0060312Y0030753D03*
X0063871Y0042855D03*
X0063871Y0048367D03*
X0139595Y0047863D03*
X0139595Y0042351D03*
X0190776Y0043926D03*
X0190776Y0038414D03*
D11*
X0247863Y0036926D03*
X0257863Y0036926D03*
X0257863Y0046926D03*
X0247863Y0046926D03*
X0247863Y0056926D03*
X0257863Y0056926D03*
X0257863Y0066926D03*
X0247863Y0066926D03*
X0247863Y0076926D03*
X0257863Y0076926D03*
X0257863Y0086926D03*
X0247863Y0086926D03*
X0247863Y0096926D03*
X0257863Y0096926D03*
X0257863Y0106926D03*
X0247863Y0106926D03*
X0247863Y0116926D03*
X0257863Y0116926D03*
X0257863Y0126926D03*
X0247863Y0126926D03*
X0247863Y0136926D03*
X0257863Y0136926D03*
X0257863Y0146926D03*
X0247863Y0146926D03*
X0247863Y0156926D03*
X0257863Y0156926D03*
X0257863Y0166926D03*
X0247863Y0166926D03*
X0247863Y0176926D03*
X0257863Y0176926D03*
X0257863Y0186926D03*
X0247863Y0186926D03*
X0247863Y0196926D03*
X0257863Y0196926D03*
X0257863Y0206926D03*
X0247863Y0206926D03*
X0117863Y0206926D03*
X0107863Y0206926D03*
X0107863Y0196926D03*
X0117863Y0196926D03*
X0117863Y0186926D03*
X0107863Y0186926D03*
X0107863Y0176926D03*
X0117863Y0176926D03*
X0117863Y0166926D03*
X0107863Y0166926D03*
X0107863Y0156926D03*
X0117863Y0156926D03*
X0117863Y0146926D03*
X0107863Y0146926D03*
X0107863Y0136926D03*
X0117863Y0136926D03*
X0117863Y0126926D03*
X0107863Y0126926D03*
X0107863Y0116926D03*
X0117863Y0116926D03*
X0117863Y0106926D03*
X0107863Y0106926D03*
X0107863Y0096926D03*
X0117863Y0096926D03*
X0117863Y0086926D03*
X0107863Y0086926D03*
X0107863Y0076926D03*
X0117863Y0076926D03*
X0117863Y0066926D03*
X0107863Y0066926D03*
X0107863Y0056926D03*
X0117863Y0056926D03*
X0117863Y0046926D03*
X0107863Y0046926D03*
X0107863Y0036926D03*
X0117863Y0036926D03*
X0117863Y0026926D03*
X0107863Y0026926D03*
X0107863Y0016926D03*
X0117863Y0016926D03*
X0247863Y0016926D03*
X0257863Y0016926D03*
X0257863Y0026926D03*
X0247863Y0026926D03*
D12*
X0060383Y0130266D02*
X0060383Y0135066D01*
X0050383Y0135066D02*
X0050383Y0130266D01*
X0040383Y0130266D02*
X0040383Y0135066D01*
X0030383Y0135066D02*
X0030383Y0130266D01*
X0020383Y0130266D02*
X0020383Y0135066D01*
X0020383Y0210266D02*
X0020383Y0215066D01*
X0030383Y0215066D02*
X0030383Y0210266D01*
X0040383Y0210266D02*
X0040383Y0215066D01*
X0050383Y0215066D02*
X0050383Y0210266D01*
X0060383Y0210266D02*
X0060383Y0215066D01*
D13*
X0230422Y0027706D03*
X0235934Y0027706D03*
X0235643Y0014674D03*
X0230131Y0014674D03*
X0138375Y0017761D03*
X0132863Y0017761D03*
D14*
X0038894Y0015769D03*
X0009674Y0033296D03*
X0009674Y0045107D03*
X0009674Y0056918D03*
X0017548Y0151406D03*
X0017548Y0175028D03*
X0017548Y0190776D03*
X0041170Y0238020D03*
X0049044Y0238020D03*
X0056918Y0238020D03*
X0064792Y0238020D03*
X0072666Y0238020D03*
X0080540Y0238020D03*
X0088414Y0238020D03*
X0119910Y0238020D03*
X0127784Y0238020D03*
X0135658Y0238020D03*
X0143532Y0238020D03*
X0151406Y0238020D03*
X0159280Y0238020D03*
X0167154Y0238020D03*
X0198650Y0238020D03*
X0206524Y0238020D03*
X0214398Y0238020D03*
X0222272Y0238020D03*
X0230146Y0238020D03*
X0238020Y0238020D03*
X0245894Y0238020D03*
X0336446Y0241957D03*
X0356131Y0241957D03*
X0371879Y0241957D03*
X0308887Y0015580D03*
X0301013Y0015580D03*
X0293139Y0015580D03*
D15*
X0366800Y0051800D03*
X0376800Y0051800D03*
X0376800Y0061800D03*
X0366800Y0061800D03*
X0366800Y0071800D03*
X0376800Y0071800D03*
X0376800Y0081800D03*
X0366800Y0081800D03*
X0366800Y0091800D03*
X0376800Y0091800D03*
X0376800Y0101800D03*
X0366800Y0101800D03*
X0366800Y0111800D03*
X0376800Y0111800D03*
X0376800Y0121800D03*
X0366800Y0121800D03*
X0366800Y0131800D03*
X0376800Y0131800D03*
X0376800Y0141800D03*
X0366800Y0141800D03*
X0366800Y0151800D03*
X0376800Y0151800D03*
X0376800Y0161800D03*
X0366800Y0161800D03*
X0366800Y0171800D03*
X0376800Y0171800D03*
D16*
X0323572Y0043060D03*
D17*
X0323572Y0052902D03*
X0323572Y0062745D03*
X0323572Y0072587D03*
X0323572Y0082430D03*
X0323572Y0092272D03*
X0323572Y0102115D03*
X0323572Y0111957D03*
X0323572Y0121800D03*
X0323572Y0131643D03*
X0323572Y0141485D03*
X0323572Y0151328D03*
X0323572Y0161170D03*
X0323572Y0171013D03*
D18*
X0303139Y0199713D03*
X0293139Y0199713D03*
X0283139Y0199713D03*
X0325816Y0209556D03*
X0325816Y0215461D03*
X0325816Y0221367D03*
X0325816Y0227272D03*
X0345501Y0227272D03*
X0345501Y0221367D03*
X0345501Y0215461D03*
X0345501Y0209556D03*
X0365186Y0209556D03*
X0365186Y0215461D03*
X0365186Y0221367D03*
X0365186Y0227272D03*
X0384871Y0227272D03*
X0384871Y0221367D03*
X0384871Y0215461D03*
X0384871Y0209556D03*
X0356131Y0016367D03*
X0350225Y0016367D03*
X0344320Y0016367D03*
X0338414Y0016367D03*
X0079753Y0086446D03*
X0079753Y0092351D03*
X0079753Y0098257D03*
X0079753Y0104162D03*
X0058099Y0104162D03*
X0058099Y0098257D03*
X0058099Y0092351D03*
X0058099Y0086446D03*
X0036446Y0086446D03*
X0036446Y0092351D03*
X0036446Y0098257D03*
X0036446Y0104162D03*
X0014792Y0104162D03*
X0014792Y0098257D03*
X0014792Y0092351D03*
X0014792Y0086446D03*
D19*
X0047824Y0066013D03*
X0047824Y0056013D03*
X0047824Y0046013D03*
X0047824Y0036013D03*
X0077824Y0036013D03*
X0077824Y0046013D03*
X0077824Y0056013D03*
X0077824Y0066013D03*
X0282076Y0215146D03*
X0282076Y0225146D03*
X0282076Y0235146D03*
X0282076Y0245146D03*
X0312076Y0245146D03*
X0312076Y0235146D03*
X0312076Y0225146D03*
X0312076Y0215146D03*
D20*
X0190776Y0238020D03*
X0112036Y0238020D03*
X0033296Y0238020D03*
X0046769Y0015769D03*
X0316761Y0015580D03*
D21*
X0165745Y0060052D03*
D22*
X0174721Y0031312D03*
X0156769Y0031312D03*
D23*
X0042090Y0004556D02*
X0004556Y0004556D01*
X0004556Y0068814D01*
X0016303Y0057067D01*
X0013413Y0054178D01*
X0012981Y0054178D01*
X0012676Y0054051D01*
X0013192Y0054568D01*
X0013824Y0056093D01*
X0013824Y0057744D01*
X0013192Y0059269D01*
X0012025Y0060436D01*
X0010499Y0061068D01*
X0008849Y0061068D01*
X0007323Y0060436D01*
X0006156Y0059269D01*
X0005524Y0057744D01*
X0005524Y0056093D01*
X0006156Y0054568D01*
X0007323Y0053400D01*
X0008849Y0052769D01*
X0010499Y0052769D01*
X0011167Y0053045D01*
X0010928Y0052806D01*
X0010446Y0051642D01*
X0010446Y0050383D01*
X0010928Y0049220D01*
X0011167Y0048980D01*
X0010499Y0049257D01*
X0008849Y0049257D01*
X0007323Y0048625D01*
X0006156Y0047458D01*
X0005524Y0045932D01*
X0005524Y0044282D01*
X0006156Y0042757D01*
X0007323Y0041589D01*
X0008849Y0040957D01*
X0010499Y0040957D01*
X0012025Y0041589D01*
X0013192Y0042757D01*
X0013824Y0044282D01*
X0013824Y0045932D01*
X0013192Y0047458D01*
X0012676Y0047974D01*
X0012981Y0047847D01*
X0014241Y0047847D01*
X0015404Y0048329D01*
X0016294Y0049220D01*
X0016776Y0050383D01*
X0016776Y0050815D01*
X0019666Y0053704D01*
X0037357Y0036013D01*
X0036878Y0035534D01*
X0035877Y0034533D01*
X0035335Y0033224D01*
X0035335Y0018020D01*
X0034745Y0016594D01*
X0034745Y0014943D01*
X0035377Y0013418D01*
X0035926Y0012869D01*
X0035926Y0011359D01*
X0036378Y0010268D01*
X0037213Y0009433D01*
X0042090Y0004556D01*
X0041699Y0004947D02*
X0016355Y0004947D01*
X0015412Y0004556D02*
X0018740Y0005934D01*
X0021288Y0008482D01*
X0022666Y0011810D01*
X0022666Y0015412D01*
X0021288Y0018740D01*
X0018740Y0021288D01*
X0015412Y0022666D01*
X0011810Y0022666D01*
X0008482Y0021288D01*
X0005934Y0018740D01*
X0004556Y0015412D01*
X0004556Y0011810D01*
X0005934Y0008482D01*
X0008482Y0005934D01*
X0011810Y0004556D01*
X0015412Y0004556D01*
X0019326Y0006520D02*
X0040126Y0006520D01*
X0038553Y0008093D02*
X0020899Y0008093D01*
X0021778Y0009667D02*
X0036979Y0009667D01*
X0035975Y0011240D02*
X0022430Y0011240D01*
X0022666Y0012813D02*
X0035926Y0012813D01*
X0034975Y0014387D02*
X0022666Y0014387D01*
X0022439Y0015960D02*
X0034745Y0015960D01*
X0035134Y0017533D02*
X0021788Y0017533D01*
X0020921Y0019106D02*
X0035335Y0019106D01*
X0035335Y0020680D02*
X0019348Y0020680D01*
X0016409Y0022253D02*
X0035335Y0022253D01*
X0035335Y0023826D02*
X0004556Y0023826D01*
X0004556Y0022253D02*
X0010813Y0022253D01*
X0007874Y0020680D02*
X0004556Y0020680D01*
X0004556Y0019106D02*
X0006301Y0019106D01*
X0005434Y0017533D02*
X0004556Y0017533D01*
X0004556Y0015960D02*
X0004783Y0015960D01*
X0004556Y0014387D02*
X0004556Y0014387D01*
X0004556Y0012813D02*
X0004556Y0012813D01*
X0004556Y0011240D02*
X0004792Y0011240D01*
X0004556Y0009667D02*
X0005444Y0009667D01*
X0006323Y0008093D02*
X0004556Y0008093D01*
X0004556Y0006520D02*
X0007896Y0006520D01*
X0010867Y0004947D02*
X0004556Y0004947D01*
X0004556Y0025400D02*
X0035335Y0025400D01*
X0035335Y0026973D02*
X0004556Y0026973D01*
X0004556Y0028546D02*
X0035335Y0028546D01*
X0035335Y0030120D02*
X0012362Y0030120D01*
X0012377Y0030131D02*
X0012839Y0030593D01*
X0013223Y0031121D01*
X0013520Y0031703D01*
X0013721Y0032324D01*
X0013824Y0032969D01*
X0013824Y0033296D01*
X0009674Y0033296D01*
X0009674Y0029146D01*
X0010001Y0029146D01*
X0010646Y0029249D01*
X0011267Y0029450D01*
X0011849Y0029747D01*
X0012377Y0030131D01*
X0013514Y0031693D02*
X0035335Y0031693D01*
X0035353Y0033266D02*
X0013824Y0033266D01*
X0013824Y0033296D02*
X0013824Y0033623D01*
X0013721Y0034268D01*
X0013520Y0034889D01*
X0013223Y0035471D01*
X0012839Y0035999D01*
X0012377Y0036461D01*
X0011849Y0036845D01*
X0011267Y0037142D01*
X0010646Y0037343D01*
X0010001Y0037446D01*
X0009674Y0037446D01*
X0009347Y0037446D01*
X0008702Y0037343D01*
X0008081Y0037142D01*
X0007499Y0036845D01*
X0006971Y0036461D01*
X0006509Y0035999D01*
X0006125Y0035471D01*
X0005828Y0034889D01*
X0005627Y0034268D01*
X0005524Y0033623D01*
X0005524Y0033296D01*
X0005524Y0032969D01*
X0005627Y0032324D01*
X0005828Y0031703D01*
X0006125Y0031121D01*
X0006509Y0030593D01*
X0006971Y0030131D01*
X0007499Y0029747D01*
X0008081Y0029450D01*
X0008702Y0029249D01*
X0009347Y0029146D01*
X0009674Y0029146D01*
X0009674Y0033296D01*
X0009674Y0033296D01*
X0005524Y0033296D01*
X0009674Y0033296D01*
X0009674Y0033296D01*
X0009674Y0033296D01*
X0013824Y0033296D01*
X0013536Y0034840D02*
X0036184Y0034840D01*
X0036957Y0036413D02*
X0012426Y0036413D01*
X0009674Y0036413D02*
X0009674Y0036413D01*
X0009674Y0037446D02*
X0009674Y0033296D01*
X0009674Y0033296D01*
X0009674Y0037446D01*
X0009674Y0034840D02*
X0009674Y0034840D01*
X0009674Y0033266D02*
X0009674Y0033266D01*
X0009674Y0031693D02*
X0009674Y0031693D01*
X0009674Y0030120D02*
X0009674Y0030120D01*
X0006986Y0030120D02*
X0004556Y0030120D01*
X0004556Y0031693D02*
X0005834Y0031693D01*
X0005524Y0033266D02*
X0004556Y0033266D01*
X0004556Y0034840D02*
X0005812Y0034840D01*
X0006922Y0036413D02*
X0004556Y0036413D01*
X0004556Y0037986D02*
X0035384Y0037986D01*
X0033810Y0039560D02*
X0004556Y0039560D01*
X0004556Y0041133D02*
X0008425Y0041133D01*
X0010923Y0041133D02*
X0032237Y0041133D01*
X0030664Y0042706D02*
X0013142Y0042706D01*
X0013823Y0044279D02*
X0029090Y0044279D01*
X0027517Y0045853D02*
X0013824Y0045853D01*
X0013205Y0047426D02*
X0025944Y0047426D01*
X0024370Y0048999D02*
X0016074Y0048999D01*
X0016776Y0050573D02*
X0022797Y0050573D01*
X0021224Y0052146D02*
X0018107Y0052146D01*
X0014528Y0055293D02*
X0013492Y0055293D01*
X0013824Y0056866D02*
X0016102Y0056866D01*
X0014931Y0058439D02*
X0013535Y0058439D01*
X0013357Y0060013D02*
X0012448Y0060013D01*
X0011784Y0061586D02*
X0004556Y0061586D01*
X0004556Y0063159D02*
X0010211Y0063159D01*
X0008637Y0064733D02*
X0004556Y0064733D01*
X0004556Y0066306D02*
X0007064Y0066306D01*
X0005491Y0067879D02*
X0004556Y0067879D01*
X0004556Y0060013D02*
X0006900Y0060013D01*
X0005813Y0058439D02*
X0004556Y0058439D01*
X0004556Y0056866D02*
X0005524Y0056866D01*
X0005856Y0055293D02*
X0004556Y0055293D01*
X0004556Y0053719D02*
X0007004Y0053719D01*
X0004556Y0052146D02*
X0010654Y0052146D01*
X0010446Y0050573D02*
X0004556Y0050573D01*
X0004556Y0048999D02*
X0008228Y0048999D01*
X0006143Y0047426D02*
X0004556Y0047426D01*
X0004556Y0045853D02*
X0005524Y0045853D01*
X0005525Y0044279D02*
X0004556Y0044279D01*
X0004556Y0042706D02*
X0006206Y0042706D01*
X0011120Y0048999D02*
X0011148Y0048999D01*
X0031737Y0061840D02*
X0031737Y0089973D01*
X0033373Y0089973D01*
X0033948Y0089398D01*
X0033178Y0088629D01*
X0032591Y0087212D01*
X0032591Y0085679D01*
X0033178Y0084262D01*
X0034262Y0083178D01*
X0035679Y0082591D01*
X0037212Y0082591D01*
X0038629Y0083178D01*
X0039713Y0084262D01*
X0040300Y0085679D01*
X0040300Y0087212D01*
X0039713Y0088629D01*
X0038944Y0089398D01*
X0039519Y0089973D01*
X0055026Y0089973D01*
X0055601Y0089398D01*
X0054832Y0088629D01*
X0054245Y0087212D01*
X0054245Y0085679D01*
X0054832Y0084262D01*
X0055916Y0083178D01*
X0057333Y0082591D01*
X0058866Y0082591D01*
X0060283Y0083178D01*
X0061367Y0084262D01*
X0061954Y0085679D01*
X0061954Y0087212D01*
X0061367Y0088629D01*
X0060597Y0089398D01*
X0061172Y0089973D01*
X0076680Y0089973D01*
X0077255Y0089398D01*
X0076485Y0088629D01*
X0075898Y0087212D01*
X0075898Y0085679D01*
X0076485Y0084262D01*
X0077569Y0083178D01*
X0078986Y0082591D01*
X0080519Y0082591D01*
X0081936Y0083178D01*
X0083020Y0084262D01*
X0083607Y0085679D01*
X0083607Y0087212D01*
X0083020Y0088629D01*
X0082251Y0089398D01*
X0083020Y0090168D01*
X0083607Y0091584D01*
X0083607Y0093118D01*
X0083020Y0094534D01*
X0082251Y0095304D01*
X0083020Y0096073D01*
X0083607Y0097490D01*
X0083607Y0099023D01*
X0083020Y0100440D01*
X0082251Y0101209D01*
X0082747Y0101705D01*
X0083168Y0102336D01*
X0083459Y0103038D01*
X0083607Y0103783D01*
X0083607Y0104162D01*
X0079753Y0104162D01*
X0079753Y0104162D01*
X0083607Y0104162D01*
X0083607Y0104542D01*
X0083459Y0105286D01*
X0083168Y0105988D01*
X0082747Y0106619D01*
X0082210Y0107156D01*
X0081578Y0107578D01*
X0080877Y0107868D01*
X0080132Y0108017D01*
X0079753Y0108017D01*
X0079753Y0104162D01*
X0079753Y0104162D01*
X0075898Y0104162D01*
X0075898Y0103783D01*
X0076047Y0103038D01*
X0076337Y0102336D01*
X0076685Y0101816D01*
X0061167Y0101816D01*
X0061515Y0102336D01*
X0061805Y0103038D01*
X0061954Y0103783D01*
X0061954Y0104162D01*
X0058099Y0104162D01*
X0054245Y0104162D01*
X0054245Y0103783D01*
X0054393Y0103038D01*
X0054684Y0102336D01*
X0055032Y0101816D01*
X0039513Y0101816D01*
X0039861Y0102336D01*
X0040152Y0103038D01*
X0040300Y0103783D01*
X0040300Y0104162D01*
X0036446Y0104162D01*
X0036446Y0104162D01*
X0040300Y0104162D01*
X0040300Y0104542D01*
X0040152Y0105286D01*
X0039861Y0105988D01*
X0039440Y0106619D01*
X0038903Y0107156D01*
X0038271Y0107578D01*
X0037570Y0107868D01*
X0036825Y0108017D01*
X0036446Y0108017D01*
X0036446Y0104162D01*
X0036446Y0104162D01*
X0032591Y0104162D01*
X0032591Y0103783D01*
X0032739Y0103038D01*
X0033030Y0102336D01*
X0033378Y0101816D01*
X0017860Y0101816D01*
X0018208Y0102336D01*
X0018498Y0103038D01*
X0018646Y0103783D01*
X0018646Y0104162D01*
X0014792Y0104162D01*
X0010938Y0104162D01*
X0010938Y0103783D01*
X0011086Y0103038D01*
X0011376Y0102336D01*
X0011724Y0101816D01*
X0009296Y0101816D01*
X0009296Y0220798D01*
X0029158Y0240660D01*
X0029146Y0240618D01*
X0029146Y0238021D01*
X0033296Y0238021D01*
X0033296Y0242170D01*
X0030699Y0242170D01*
X0030657Y0242159D01*
X0030833Y0242335D01*
X0037611Y0242335D01*
X0037611Y0240272D01*
X0037446Y0239872D01*
X0037446Y0240618D01*
X0037324Y0241073D01*
X0037089Y0241480D01*
X0036756Y0241813D01*
X0036348Y0242048D01*
X0035894Y0242170D01*
X0033296Y0242170D01*
X0033296Y0238021D01*
X0033296Y0238021D01*
X0033296Y0238020D01*
X0033296Y0238020D01*
X0033296Y0233871D01*
X0030699Y0233871D01*
X0030244Y0233993D01*
X0029836Y0234228D01*
X0029504Y0234561D01*
X0029268Y0234968D01*
X0029146Y0235423D01*
X0029146Y0238020D01*
X0033296Y0238020D01*
X0033296Y0233871D01*
X0035894Y0233871D01*
X0036348Y0233993D01*
X0036756Y0234228D01*
X0037089Y0234561D01*
X0037324Y0234968D01*
X0037446Y0235423D01*
X0037446Y0236169D01*
X0037652Y0235670D01*
X0038820Y0234503D01*
X0040345Y0233871D01*
X0041995Y0233871D01*
X0043521Y0234503D01*
X0044688Y0235670D01*
X0045107Y0236682D01*
X0045526Y0235670D01*
X0046694Y0234503D01*
X0048219Y0233871D01*
X0049870Y0233871D01*
X0051395Y0234503D01*
X0052562Y0235670D01*
X0052981Y0236682D01*
X0053400Y0235670D01*
X0054568Y0234503D01*
X0056093Y0233871D01*
X0057744Y0233871D01*
X0059269Y0234503D01*
X0060436Y0235670D01*
X0060855Y0236682D01*
X0061274Y0235670D01*
X0062414Y0234530D01*
X0062414Y0233098D01*
X0063807Y0231706D01*
X0089572Y0205941D01*
X0090965Y0204548D01*
X0104037Y0204548D01*
X0104095Y0204408D01*
X0105345Y0203158D01*
X0106979Y0202481D01*
X0108747Y0202481D01*
X0110381Y0203158D01*
X0111631Y0204408D01*
X0112308Y0206042D01*
X0112308Y0207810D01*
X0111631Y0209444D01*
X0110381Y0210694D01*
X0108747Y0211371D01*
X0106979Y0211371D01*
X0105345Y0210694D01*
X0104095Y0209444D01*
X0104037Y0209304D01*
X0092935Y0209304D01*
X0067439Y0234799D01*
X0068310Y0235670D01*
X0068729Y0236682D01*
X0069148Y0235670D01*
X0070288Y0234530D01*
X0070288Y0233098D01*
X0091366Y0212020D01*
X0109406Y0212020D01*
X0113476Y0207950D01*
X0113418Y0207810D01*
X0113418Y0206042D01*
X0114095Y0204408D01*
X0115345Y0203158D01*
X0116979Y0202481D01*
X0118747Y0202481D01*
X0120381Y0203158D01*
X0121631Y0204408D01*
X0122308Y0206042D01*
X0122308Y0207810D01*
X0121631Y0209444D01*
X0120381Y0210694D01*
X0118747Y0211371D01*
X0116979Y0211371D01*
X0116839Y0211313D01*
X0111376Y0216776D01*
X0093336Y0216776D01*
X0075313Y0234799D01*
X0076184Y0235670D01*
X0076603Y0236682D01*
X0077022Y0235670D01*
X0078190Y0234503D01*
X0079715Y0233871D01*
X0081366Y0233871D01*
X0082891Y0234503D01*
X0084058Y0235670D01*
X0084477Y0236682D01*
X0084896Y0235670D01*
X0086064Y0234503D01*
X0087589Y0233871D01*
X0089240Y0233871D01*
X0090765Y0234503D01*
X0091932Y0235670D01*
X0092564Y0237195D01*
X0092564Y0238846D01*
X0091932Y0240371D01*
X0090765Y0241538D01*
X0089240Y0242170D01*
X0087589Y0242170D01*
X0086064Y0241538D01*
X0084896Y0240371D01*
X0084477Y0239359D01*
X0084058Y0240371D01*
X0082891Y0241538D01*
X0081366Y0242170D01*
X0079715Y0242170D01*
X0078190Y0241538D01*
X0077022Y0240371D01*
X0076603Y0239359D01*
X0076184Y0240371D01*
X0075017Y0241538D01*
X0073492Y0242170D01*
X0071841Y0242170D01*
X0070316Y0241538D01*
X0069148Y0240371D01*
X0068729Y0239359D01*
X0068310Y0240371D01*
X0067143Y0241538D01*
X0065618Y0242170D01*
X0063967Y0242170D01*
X0062442Y0241538D01*
X0061274Y0240371D01*
X0060855Y0239359D01*
X0060436Y0240371D01*
X0059269Y0241538D01*
X0057744Y0242170D01*
X0056093Y0242170D01*
X0054568Y0241538D01*
X0053400Y0240371D01*
X0052981Y0239359D01*
X0052562Y0240371D01*
X0051395Y0241538D01*
X0049870Y0242170D01*
X0048219Y0242170D01*
X0046694Y0241538D01*
X0045526Y0240371D01*
X0045107Y0239359D01*
X0044729Y0240272D01*
X0044729Y0242335D01*
X0116351Y0242335D01*
X0116351Y0240272D01*
X0116186Y0239872D01*
X0116186Y0240618D01*
X0116064Y0241073D01*
X0115829Y0241480D01*
X0115496Y0241813D01*
X0115088Y0242048D01*
X0114634Y0242170D01*
X0112036Y0242170D01*
X0109439Y0242170D01*
X0108984Y0242048D01*
X0108577Y0241813D01*
X0108244Y0241480D01*
X0108008Y0241073D01*
X0107887Y0240618D01*
X0107887Y0238021D01*
X0112036Y0238021D01*
X0112036Y0242170D01*
X0112036Y0238021D01*
X0112036Y0238021D01*
X0112036Y0238020D01*
X0112036Y0238020D01*
X0112036Y0233871D01*
X0109439Y0233871D01*
X0108984Y0233993D01*
X0108577Y0234228D01*
X0108244Y0234561D01*
X0108008Y0234968D01*
X0107887Y0235423D01*
X0107887Y0238020D01*
X0112036Y0238020D01*
X0112036Y0233871D01*
X0114634Y0233871D01*
X0115088Y0233993D01*
X0115496Y0234228D01*
X0115829Y0234561D01*
X0116064Y0234968D01*
X0116186Y0235423D01*
X0116186Y0236169D01*
X0116392Y0235670D01*
X0117560Y0234503D01*
X0119085Y0233871D01*
X0120736Y0233871D01*
X0122261Y0234503D01*
X0123428Y0235670D01*
X0123847Y0236682D01*
X0124266Y0235670D01*
X0125434Y0234503D01*
X0126959Y0233871D01*
X0128610Y0233871D01*
X0130135Y0234503D01*
X0131302Y0235670D01*
X0131721Y0236682D01*
X0132140Y0235670D01*
X0133308Y0234503D01*
X0134833Y0233871D01*
X0136484Y0233871D01*
X0138009Y0234503D01*
X0139176Y0235670D01*
X0139595Y0236682D01*
X0140014Y0235670D01*
X0141182Y0234503D01*
X0142707Y0233871D01*
X0144358Y0233871D01*
X0145883Y0234503D01*
X0147050Y0235670D01*
X0147469Y0236682D01*
X0147888Y0235670D01*
X0149056Y0234503D01*
X0150581Y0233871D01*
X0152232Y0233871D01*
X0153757Y0234503D01*
X0154924Y0235670D01*
X0155343Y0236682D01*
X0155762Y0235670D01*
X0156930Y0234503D01*
X0158455Y0233871D01*
X0160106Y0233871D01*
X0161631Y0234503D01*
X0162798Y0235670D01*
X0163217Y0236682D01*
X0163636Y0235670D01*
X0164804Y0234503D01*
X0166329Y0233871D01*
X0167980Y0233871D01*
X0169505Y0234503D01*
X0170672Y0235670D01*
X0171304Y0237195D01*
X0171304Y0238846D01*
X0170672Y0240371D01*
X0169505Y0241538D01*
X0167980Y0242170D01*
X0166329Y0242170D01*
X0164804Y0241538D01*
X0163636Y0240371D01*
X0163217Y0239359D01*
X0162798Y0240371D01*
X0161631Y0241538D01*
X0160106Y0242170D01*
X0158455Y0242170D01*
X0156930Y0241538D01*
X0155762Y0240371D01*
X0155343Y0239359D01*
X0154924Y0240371D01*
X0153757Y0241538D01*
X0152232Y0242170D01*
X0150581Y0242170D01*
X0149056Y0241538D01*
X0147888Y0240371D01*
X0147469Y0239359D01*
X0147050Y0240371D01*
X0145883Y0241538D01*
X0144358Y0242170D01*
X0142707Y0242170D01*
X0141182Y0241538D01*
X0140014Y0240371D01*
X0139595Y0239359D01*
X0139176Y0240371D01*
X0138009Y0241538D01*
X0136484Y0242170D01*
X0134833Y0242170D01*
X0133308Y0241538D01*
X0132140Y0240371D01*
X0131721Y0239359D01*
X0131302Y0240371D01*
X0130135Y0241538D01*
X0128610Y0242170D01*
X0126959Y0242170D01*
X0125434Y0241538D01*
X0124266Y0240371D01*
X0123847Y0239359D01*
X0123469Y0240272D01*
X0123469Y0242335D01*
X0195091Y0242335D01*
X0195091Y0240272D01*
X0194926Y0239872D01*
X0194926Y0240618D01*
X0194804Y0241073D01*
X0194569Y0241480D01*
X0194236Y0241813D01*
X0193828Y0242048D01*
X0193374Y0242170D01*
X0190776Y0242170D01*
X0188179Y0242170D01*
X0187724Y0242048D01*
X0187317Y0241813D01*
X0186984Y0241480D01*
X0186749Y0241073D01*
X0186627Y0240618D01*
X0186627Y0238021D01*
X0190776Y0238021D01*
X0190776Y0242170D01*
X0190776Y0238021D01*
X0190776Y0238021D01*
X0190776Y0238020D01*
X0190776Y0238020D01*
X0190776Y0233871D01*
X0188179Y0233871D01*
X0187724Y0233993D01*
X0187317Y0234228D01*
X0186984Y0234561D01*
X0186749Y0234968D01*
X0186627Y0235423D01*
X0186627Y0238020D01*
X0190776Y0238020D01*
X0190776Y0233871D01*
X0193374Y0233871D01*
X0193828Y0233993D01*
X0194236Y0234228D01*
X0194569Y0234561D01*
X0194804Y0234968D01*
X0194926Y0235423D01*
X0194926Y0236169D01*
X0195133Y0235670D01*
X0196300Y0234503D01*
X0197825Y0233871D01*
X0199476Y0233871D01*
X0201001Y0234503D01*
X0202168Y0235670D01*
X0202587Y0236682D01*
X0203007Y0235670D01*
X0204174Y0234503D01*
X0205699Y0233871D01*
X0207350Y0233871D01*
X0208875Y0234503D01*
X0210042Y0235670D01*
X0210461Y0236682D01*
X0210881Y0235670D01*
X0212048Y0234503D01*
X0213573Y0233871D01*
X0215224Y0233871D01*
X0216749Y0234503D01*
X0217916Y0235670D01*
X0218335Y0236682D01*
X0218755Y0235670D01*
X0219894Y0234530D01*
X0219894Y0177257D01*
X0188965Y0146328D01*
X0188965Y0146430D01*
X0188483Y0147593D01*
X0187593Y0148483D01*
X0186430Y0148965D01*
X0185998Y0148965D01*
X0160785Y0174178D01*
X0121401Y0174178D01*
X0121631Y0174408D01*
X0122308Y0176042D01*
X0122308Y0177810D01*
X0121631Y0179444D01*
X0120381Y0180694D01*
X0118747Y0181371D01*
X0116979Y0181371D01*
X0115345Y0180694D01*
X0114095Y0179444D01*
X0113418Y0177810D01*
X0113418Y0176042D01*
X0114095Y0174408D01*
X0114325Y0174178D01*
X0111401Y0174178D01*
X0111631Y0174408D01*
X0112308Y0176042D01*
X0112308Y0177810D01*
X0111631Y0179444D01*
X0110381Y0180694D01*
X0108747Y0181371D01*
X0106979Y0181371D01*
X0105345Y0180694D01*
X0104095Y0179444D01*
X0103418Y0177810D01*
X0103418Y0176042D01*
X0104095Y0174408D01*
X0105345Y0173158D01*
X0106979Y0172481D01*
X0108747Y0172481D01*
X0109381Y0172743D01*
X0108008Y0171371D01*
X0106979Y0171371D01*
X0105345Y0170694D01*
X0104095Y0169444D01*
X0104037Y0169304D01*
X0065138Y0169304D01*
X0063745Y0167911D01*
X0063745Y0165941D01*
X0065138Y0164548D01*
X0104037Y0164548D01*
X0104095Y0164408D01*
X0105345Y0163158D01*
X0106979Y0162481D01*
X0108747Y0162481D01*
X0110381Y0163158D01*
X0111631Y0164408D01*
X0112308Y0166042D01*
X0112308Y0167810D01*
X0111975Y0168613D01*
X0112785Y0169422D01*
X0114086Y0169422D01*
X0113418Y0167810D01*
X0113418Y0166042D01*
X0114095Y0164408D01*
X0115345Y0163158D01*
X0116979Y0162481D01*
X0118747Y0162481D01*
X0120381Y0163158D01*
X0121631Y0164408D01*
X0121689Y0164548D01*
X0152689Y0164548D01*
X0176635Y0140602D01*
X0176635Y0140170D01*
X0177117Y0139007D01*
X0178007Y0138117D01*
X0179170Y0137635D01*
X0180272Y0137635D01*
X0176815Y0134178D01*
X0162815Y0134178D01*
X0161422Y0132785D01*
X0122815Y0094178D01*
X0121401Y0094178D01*
X0121631Y0094408D01*
X0122308Y0096042D01*
X0122308Y0097810D01*
X0121631Y0099444D01*
X0120381Y0100694D01*
X0118747Y0101371D01*
X0116979Y0101371D01*
X0115345Y0100694D01*
X0114095Y0099444D01*
X0113418Y0097810D01*
X0113418Y0096042D01*
X0114095Y0094408D01*
X0114325Y0094178D01*
X0111752Y0094178D01*
X0110359Y0092785D01*
X0108887Y0091313D01*
X0108747Y0091371D01*
X0106979Y0091371D01*
X0105345Y0090694D01*
X0104095Y0089444D01*
X0103418Y0087810D01*
X0103418Y0086042D01*
X0104095Y0084408D01*
X0105345Y0083158D01*
X0106979Y0082481D01*
X0108747Y0082481D01*
X0110381Y0083158D01*
X0111631Y0084408D01*
X0112308Y0086042D01*
X0112308Y0087810D01*
X0112250Y0087950D01*
X0113722Y0089422D01*
X0114086Y0089422D01*
X0113418Y0087810D01*
X0113418Y0086042D01*
X0114095Y0084408D01*
X0114325Y0084178D01*
X0111752Y0084178D01*
X0110359Y0082785D01*
X0108887Y0081313D01*
X0108747Y0081371D01*
X0106979Y0081371D01*
X0105345Y0080694D01*
X0104095Y0079444D01*
X0103418Y0077810D01*
X0103418Y0076042D01*
X0104095Y0074408D01*
X0105345Y0073158D01*
X0106979Y0072481D01*
X0108747Y0072481D01*
X0110381Y0073158D01*
X0111631Y0074408D01*
X0112308Y0076042D01*
X0112308Y0077810D01*
X0112250Y0077950D01*
X0113722Y0079422D01*
X0114086Y0079422D01*
X0113418Y0077810D01*
X0113418Y0076042D01*
X0114095Y0074408D01*
X0115345Y0073158D01*
X0116979Y0072481D01*
X0118747Y0072481D01*
X0120381Y0073158D01*
X0121631Y0074408D01*
X0122308Y0076042D01*
X0122308Y0077810D01*
X0121640Y0079422D01*
X0126785Y0079422D01*
X0168785Y0121422D01*
X0184785Y0121422D01*
X0240398Y0177035D01*
X0240398Y0234530D01*
X0241538Y0235670D01*
X0241957Y0236682D01*
X0242377Y0235670D01*
X0243544Y0234503D01*
X0245069Y0233871D01*
X0246720Y0233871D01*
X0248245Y0234503D01*
X0249412Y0235670D01*
X0250044Y0237195D01*
X0250044Y0238846D01*
X0249412Y0240371D01*
X0248245Y0241538D01*
X0246720Y0242170D01*
X0245069Y0242170D01*
X0243544Y0241538D01*
X0242377Y0240371D01*
X0241957Y0239359D01*
X0241538Y0240371D01*
X0240371Y0241538D01*
X0238846Y0242170D01*
X0237195Y0242170D01*
X0235670Y0241538D01*
X0234503Y0240371D01*
X0234083Y0239359D01*
X0233664Y0240371D01*
X0232497Y0241538D01*
X0230972Y0242170D01*
X0229321Y0242170D01*
X0227796Y0241538D01*
X0226629Y0240371D01*
X0226209Y0239359D01*
X0225790Y0240371D01*
X0224623Y0241538D01*
X0223098Y0242170D01*
X0221447Y0242170D01*
X0219922Y0241538D01*
X0218755Y0240371D01*
X0218335Y0239359D01*
X0217916Y0240371D01*
X0216749Y0241538D01*
X0215224Y0242170D01*
X0213573Y0242170D01*
X0212048Y0241538D01*
X0210881Y0240371D01*
X0210461Y0239359D01*
X0210042Y0240371D01*
X0208875Y0241538D01*
X0207350Y0242170D01*
X0205699Y0242170D01*
X0204174Y0241538D01*
X0203007Y0240371D01*
X0202587Y0239359D01*
X0202209Y0240272D01*
X0202209Y0246602D01*
X0201668Y0247911D01*
X0200666Y0248912D01*
X0199358Y0249454D01*
X0028651Y0249454D01*
X0027343Y0248912D01*
X0026342Y0247911D01*
X0022666Y0244235D01*
X0022666Y0247696D01*
X0021288Y0251024D01*
X0018740Y0253571D01*
X0015412Y0254950D01*
X0011810Y0254950D01*
X0008482Y0253571D01*
X0005934Y0251024D01*
X0004556Y0247696D01*
X0004556Y0244093D01*
X0005934Y0240765D01*
X0008482Y0238218D01*
X0011810Y0236839D01*
X0015271Y0236839D01*
X0004556Y0226125D01*
X0004556Y0254950D01*
X0392745Y0254950D01*
X0392745Y0004556D01*
X0367461Y0004556D01*
X0367705Y0005147D01*
X0367705Y0005343D01*
X0369178Y0006815D01*
X0369178Y0047832D01*
X0371287Y0049941D01*
X0371287Y0053659D01*
X0368659Y0056287D01*
X0364941Y0056287D01*
X0362313Y0053659D01*
X0362313Y0049941D01*
X0364422Y0047832D01*
X0364422Y0008785D01*
X0364343Y0008705D01*
X0340021Y0008705D01*
X0343828Y0012513D01*
X0345086Y0012513D01*
X0346503Y0013099D01*
X0347272Y0013869D01*
X0348042Y0013099D01*
X0349459Y0012513D01*
X0350992Y0012513D01*
X0352408Y0013099D01*
X0353178Y0013869D01*
X0353674Y0013373D01*
X0354305Y0012951D01*
X0355006Y0012661D01*
X0355751Y0012513D01*
X0356131Y0012513D01*
X0356510Y0012513D01*
X0357255Y0012661D01*
X0357956Y0012951D01*
X0358588Y0013373D01*
X0359125Y0013910D01*
X0359546Y0014541D01*
X0359837Y0015243D01*
X0359985Y0015987D01*
X0359985Y0016367D01*
X0359985Y0016747D01*
X0359837Y0017491D01*
X0359546Y0018193D01*
X0359125Y0018824D01*
X0358588Y0019361D01*
X0357956Y0019783D01*
X0357255Y0020073D01*
X0356510Y0020221D01*
X0356131Y0020221D01*
X0356131Y0016367D01*
X0359985Y0016367D01*
X0356131Y0016367D01*
X0356131Y0016367D01*
X0356131Y0016367D01*
X0356131Y0012513D01*
X0356131Y0016367D01*
X0356131Y0016367D01*
X0356131Y0020221D01*
X0355751Y0020221D01*
X0355006Y0020073D01*
X0354305Y0019783D01*
X0353674Y0019361D01*
X0353178Y0018865D01*
X0352408Y0019634D01*
X0350992Y0020221D01*
X0349459Y0020221D01*
X0348042Y0019634D01*
X0347272Y0018865D01*
X0346503Y0019634D01*
X0345086Y0020221D01*
X0343553Y0020221D01*
X0342136Y0019634D01*
X0341367Y0018865D01*
X0340597Y0019634D01*
X0339181Y0020221D01*
X0337647Y0020221D01*
X0336231Y0019634D01*
X0335147Y0018550D01*
X0334560Y0017134D01*
X0334560Y0015600D01*
X0335147Y0014184D01*
X0336231Y0013099D01*
X0337262Y0012672D01*
X0336768Y0012178D01*
X0320587Y0012178D01*
X0320788Y0012527D01*
X0320910Y0012982D01*
X0320910Y0015579D01*
X0316761Y0015579D01*
X0316761Y0015580D01*
X0316761Y0015580D01*
X0316761Y0019729D01*
X0319358Y0019729D01*
X0319813Y0019607D01*
X0320220Y0019372D01*
X0320553Y0019039D01*
X0320788Y0018632D01*
X0320910Y0018177D01*
X0320910Y0015580D01*
X0316761Y0015580D01*
X0316761Y0019729D01*
X0314163Y0019729D01*
X0313709Y0019607D01*
X0313301Y0019372D01*
X0312968Y0019039D01*
X0312733Y0018632D01*
X0312611Y0018177D01*
X0312611Y0017431D01*
X0312404Y0017930D01*
X0311237Y0019097D01*
X0309712Y0019729D01*
X0308061Y0019729D01*
X0306536Y0019097D01*
X0305369Y0017930D01*
X0304950Y0016918D01*
X0304530Y0017930D01*
X0303363Y0019097D01*
X0301838Y0019729D01*
X0300187Y0019729D01*
X0298662Y0019097D01*
X0297495Y0017930D01*
X0297076Y0016918D01*
X0296656Y0017930D01*
X0295489Y0019097D01*
X0293964Y0019729D01*
X0292313Y0019729D01*
X0290788Y0019097D01*
X0289621Y0017930D01*
X0288989Y0016405D01*
X0288989Y0014754D01*
X0289621Y0013229D01*
X0290788Y0012062D01*
X0292313Y0011430D01*
X0293964Y0011430D01*
X0295489Y0012062D01*
X0296656Y0013229D01*
X0297076Y0014241D01*
X0297495Y0013229D01*
X0298662Y0012062D01*
X0300187Y0011430D01*
X0301799Y0011430D01*
X0304414Y0008815D01*
X0304524Y0008705D01*
X0250831Y0008705D01*
X0250831Y0013608D01*
X0251631Y0014408D01*
X0252308Y0016042D01*
X0252308Y0017810D01*
X0251631Y0019444D01*
X0250381Y0020694D01*
X0248747Y0021371D01*
X0246979Y0021371D01*
X0245345Y0020694D01*
X0244545Y0019894D01*
X0235052Y0019894D01*
X0233961Y0019443D01*
X0233126Y0018608D01*
X0232875Y0018001D01*
X0232803Y0018073D01*
X0232395Y0018308D01*
X0231941Y0018430D01*
X0230131Y0018430D01*
X0230131Y0014674D01*
X0230131Y0010918D01*
X0231941Y0010918D01*
X0232395Y0011040D01*
X0232803Y0011275D01*
X0232887Y0011359D01*
X0233327Y0010918D01*
X0237958Y0010918D01*
X0239005Y0011965D01*
X0239005Y0013957D01*
X0244545Y0013957D01*
X0244894Y0013608D01*
X0244894Y0008705D01*
X0156313Y0008705D01*
X0156730Y0009122D01*
X0173982Y0026375D01*
X0177430Y0026375D01*
X0178477Y0027422D01*
X0178477Y0031409D01*
X0182895Y0035827D01*
X0187293Y0035827D01*
X0188067Y0035052D01*
X0193485Y0035052D01*
X0194532Y0036099D01*
X0194532Y0040729D01*
X0194092Y0041170D01*
X0194175Y0041254D01*
X0194410Y0041661D01*
X0194532Y0042116D01*
X0194532Y0043926D01*
X0194532Y0045736D01*
X0194410Y0046191D01*
X0194175Y0046598D01*
X0193842Y0046931D01*
X0193435Y0047166D01*
X0192980Y0047288D01*
X0190776Y0047288D01*
X0188573Y0047288D01*
X0188118Y0047166D01*
X0187710Y0046931D01*
X0187378Y0046598D01*
X0187142Y0046191D01*
X0187020Y0045736D01*
X0187020Y0043926D01*
X0190776Y0043926D01*
X0190776Y0043926D01*
X0187020Y0043926D01*
X0187020Y0042116D01*
X0187142Y0041661D01*
X0187378Y0041254D01*
X0187461Y0041170D01*
X0187293Y0041002D01*
X0181309Y0041002D01*
X0180358Y0040608D01*
X0175999Y0036249D01*
X0172012Y0036249D01*
X0170965Y0035202D01*
X0170965Y0031754D01*
X0154545Y0015334D01*
X0154424Y0015627D01*
X0153422Y0016628D01*
X0152114Y0017170D01*
X0150698Y0017170D01*
X0149390Y0016628D01*
X0148389Y0015627D01*
X0147847Y0014319D01*
X0147847Y0012903D01*
X0148389Y0011595D01*
X0149390Y0010594D01*
X0149684Y0010472D01*
X0147917Y0008705D01*
X0124068Y0008705D01*
X0129958Y0014595D01*
X0130548Y0014005D01*
X0135178Y0014005D01*
X0135619Y0014445D01*
X0135703Y0014362D01*
X0136110Y0014127D01*
X0136565Y0014005D01*
X0138375Y0014005D01*
X0140185Y0014005D01*
X0140640Y0014127D01*
X0141047Y0014362D01*
X0141380Y0014695D01*
X0141615Y0015102D01*
X0141737Y0015557D01*
X0141737Y0017761D01*
X0141737Y0019964D01*
X0141615Y0020419D01*
X0141380Y0020827D01*
X0141047Y0021159D01*
X0140640Y0021395D01*
X0140185Y0021517D01*
X0138375Y0021517D01*
X0138375Y0017761D01*
X0138375Y0017761D01*
X0141737Y0017761D01*
X0138375Y0017761D01*
X0138375Y0017761D01*
X0138375Y0021517D01*
X0136565Y0021517D01*
X0136110Y0021395D01*
X0135703Y0021159D01*
X0135619Y0021076D01*
X0135178Y0021517D01*
X0130548Y0021517D01*
X0129501Y0020470D01*
X0129501Y0020139D01*
X0128776Y0020139D01*
X0127383Y0018746D01*
X0121815Y0013178D01*
X0120401Y0013178D01*
X0121631Y0014408D01*
X0122308Y0016042D01*
X0122308Y0017810D01*
X0121631Y0019444D01*
X0120381Y0020694D01*
X0118747Y0021371D01*
X0116979Y0021371D01*
X0115345Y0020694D01*
X0114095Y0019444D01*
X0113418Y0017810D01*
X0113418Y0016042D01*
X0114095Y0014408D01*
X0115325Y0013178D01*
X0110266Y0013178D01*
X0110759Y0013536D01*
X0111253Y0014030D01*
X0111665Y0014596D01*
X0111982Y0015220D01*
X0112198Y0015885D01*
X0112308Y0016576D01*
X0112308Y0016828D01*
X0107961Y0016828D01*
X0107961Y0017024D01*
X0107765Y0017024D01*
X0107764Y0017024D02*
X0107764Y0016828D01*
X0103418Y0016828D01*
X0103418Y0016576D01*
X0103528Y0015885D01*
X0103744Y0015220D01*
X0104061Y0014596D01*
X0104473Y0014030D01*
X0104967Y0013536D01*
X0105460Y0013178D01*
X0095899Y0013178D01*
X0095593Y0013483D01*
X0094430Y0013965D01*
X0093170Y0013965D01*
X0092007Y0013483D01*
X0091117Y0012593D01*
X0090635Y0011430D01*
X0090635Y0010170D01*
X0091117Y0009007D01*
X0091418Y0008705D01*
X0074601Y0008705D01*
X0075593Y0009117D01*
X0076483Y0010007D01*
X0076965Y0011170D01*
X0076965Y0012430D01*
X0076483Y0013593D01*
X0075593Y0014483D01*
X0074430Y0014965D01*
X0073170Y0014965D01*
X0072007Y0014483D01*
X0071701Y0014178D01*
X0064785Y0014178D01*
X0062690Y0016273D01*
X0062690Y0021879D01*
X0063021Y0021879D01*
X0064068Y0022926D01*
X0064068Y0027556D01*
X0063627Y0027997D01*
X0063711Y0028080D01*
X0063946Y0028488D01*
X0064068Y0028943D01*
X0064068Y0030753D01*
X0064068Y0032563D01*
X0063946Y0033017D01*
X0063711Y0033425D01*
X0063378Y0033758D01*
X0062970Y0033993D01*
X0062516Y0034115D01*
X0060312Y0034115D01*
X0060312Y0030753D01*
X0060312Y0030753D01*
X0064068Y0030753D01*
X0060312Y0030753D01*
X0060312Y0030753D01*
X0060312Y0034115D01*
X0058108Y0034115D01*
X0057653Y0033993D01*
X0057246Y0033758D01*
X0056913Y0033425D01*
X0056678Y0033017D01*
X0056556Y0032563D01*
X0056556Y0030753D01*
X0060312Y0030753D01*
X0060312Y0030753D01*
X0056556Y0030753D01*
X0056556Y0028943D01*
X0056678Y0028488D01*
X0056913Y0028080D01*
X0056997Y0027997D01*
X0056556Y0027556D01*
X0056556Y0022926D01*
X0057603Y0021879D01*
X0057934Y0021879D01*
X0057934Y0014303D01*
X0062815Y0009422D01*
X0071701Y0009422D01*
X0072007Y0009117D01*
X0072999Y0008705D01*
X0046337Y0008705D01*
X0042018Y0013024D01*
X0042412Y0013418D01*
X0042619Y0013917D01*
X0042619Y0013171D01*
X0042741Y0012716D01*
X0042976Y0012309D01*
X0043309Y0011976D01*
X0043716Y0011741D01*
X0044171Y0011619D01*
X0046768Y0011619D01*
X0046768Y0015768D01*
X0046769Y0015768D01*
X0046769Y0015769D01*
X0046768Y0015769D01*
X0046768Y0019918D01*
X0044171Y0019918D01*
X0043716Y0019796D01*
X0043309Y0019561D01*
X0042976Y0019228D01*
X0042741Y0018821D01*
X0042619Y0018366D01*
X0042619Y0017620D01*
X0042454Y0018020D01*
X0042454Y0031042D01*
X0043013Y0031602D01*
X0043737Y0030879D01*
X0051910Y0030879D01*
X0052957Y0031926D01*
X0052957Y0040099D01*
X0052044Y0041013D01*
X0052957Y0041926D01*
X0052957Y0050099D01*
X0052044Y0051013D01*
X0052957Y0051926D01*
X0052957Y0060099D01*
X0051984Y0061072D01*
X0052268Y0061236D01*
X0052600Y0061569D01*
X0052836Y0061976D01*
X0052957Y0062431D01*
X0052957Y0065816D01*
X0048021Y0065816D01*
X0048021Y0066209D01*
X0052957Y0066209D01*
X0052957Y0069594D01*
X0052836Y0070049D01*
X0052600Y0070457D01*
X0052268Y0070789D01*
X0051860Y0071025D01*
X0051405Y0071146D01*
X0048020Y0071146D01*
X0048020Y0066210D01*
X0047627Y0066210D01*
X0047627Y0071146D01*
X0044242Y0071146D01*
X0043787Y0071025D01*
X0043380Y0070789D01*
X0043047Y0070457D01*
X0042812Y0070049D01*
X0042690Y0069594D01*
X0042690Y0066209D01*
X0047627Y0066209D01*
X0047627Y0065816D01*
X0042690Y0065816D01*
X0042690Y0062431D01*
X0042812Y0061976D01*
X0043047Y0061569D01*
X0043380Y0061236D01*
X0043663Y0061072D01*
X0042690Y0060099D01*
X0042690Y0051926D01*
X0043603Y0051013D01*
X0043084Y0050493D01*
X0031737Y0061840D01*
X0031991Y0061586D02*
X0043037Y0061586D01*
X0042690Y0063159D02*
X0031737Y0063159D01*
X0031737Y0064733D02*
X0042690Y0064733D01*
X0042690Y0066306D02*
X0031737Y0066306D01*
X0031737Y0067879D02*
X0042690Y0067879D01*
X0042690Y0069453D02*
X0031737Y0069453D01*
X0031737Y0071026D02*
X0043792Y0071026D01*
X0047627Y0071026D02*
X0048020Y0071026D01*
X0048020Y0069453D02*
X0047627Y0069453D01*
X0047627Y0067879D02*
X0048020Y0067879D01*
X0048020Y0066306D02*
X0047627Y0066306D01*
X0052957Y0066306D02*
X0072690Y0066306D01*
X0072690Y0067879D02*
X0052957Y0067879D01*
X0052957Y0069453D02*
X0072690Y0069453D01*
X0072690Y0070099D02*
X0072690Y0061926D01*
X0073603Y0061013D01*
X0072690Y0060099D01*
X0072690Y0051926D01*
X0073603Y0051013D01*
X0072690Y0050099D01*
X0072690Y0041926D01*
X0073603Y0041013D01*
X0072690Y0040099D01*
X0072690Y0038391D01*
X0071698Y0038391D01*
X0067627Y0042462D01*
X0067627Y0045170D01*
X0067186Y0045611D01*
X0067270Y0045695D01*
X0067505Y0046102D01*
X0067627Y0046557D01*
X0067627Y0048367D01*
X0067627Y0050177D01*
X0067505Y0050632D01*
X0067270Y0051039D01*
X0066937Y0051372D01*
X0066529Y0051607D01*
X0066075Y0051729D01*
X0063871Y0051729D01*
X0063871Y0048367D01*
X0067627Y0048367D01*
X0063871Y0048367D01*
X0063871Y0048367D01*
X0063871Y0048367D01*
X0063871Y0051729D01*
X0061667Y0051729D01*
X0061212Y0051607D01*
X0060805Y0051372D01*
X0060472Y0051039D01*
X0060237Y0050632D01*
X0060115Y0050177D01*
X0060115Y0048367D01*
X0063871Y0048367D01*
X0063871Y0048367D01*
X0060115Y0048367D01*
X0060115Y0046557D01*
X0060237Y0046102D01*
X0060472Y0045695D01*
X0060556Y0045611D01*
X0060115Y0045170D01*
X0060115Y0040540D01*
X0061162Y0039493D01*
X0063870Y0039493D01*
X0068335Y0035028D01*
X0069728Y0033635D01*
X0072690Y0033635D01*
X0072690Y0031926D01*
X0073737Y0030879D01*
X0081910Y0030879D01*
X0082957Y0031926D01*
X0082957Y0040099D01*
X0082044Y0041013D01*
X0082957Y0041926D01*
X0082957Y0043635D01*
X0097935Y0043635D01*
X0106839Y0052539D01*
X0106979Y0052481D01*
X0108747Y0052481D01*
X0110381Y0053158D01*
X0111631Y0054408D01*
X0112308Y0056042D01*
X0112308Y0057810D01*
X0111640Y0059422D01*
X0112004Y0059422D01*
X0113476Y0057950D01*
X0113418Y0057810D01*
X0113418Y0056042D01*
X0114095Y0054408D01*
X0115345Y0053158D01*
X0116979Y0052481D01*
X0118747Y0052481D01*
X0120381Y0053158D01*
X0121422Y0054199D01*
X0121422Y0049653D01*
X0120381Y0050694D01*
X0118747Y0051371D01*
X0116979Y0051371D01*
X0115345Y0050694D01*
X0114095Y0049444D01*
X0113418Y0047810D01*
X0113418Y0046042D01*
X0114095Y0044408D01*
X0114325Y0044178D01*
X0111401Y0044178D01*
X0111631Y0044408D01*
X0112308Y0046042D01*
X0112308Y0047810D01*
X0111631Y0049444D01*
X0110381Y0050694D01*
X0108747Y0051371D01*
X0106979Y0051371D01*
X0105345Y0050694D01*
X0104095Y0049444D01*
X0103418Y0047810D01*
X0103418Y0046042D01*
X0104095Y0044408D01*
X0104325Y0044178D01*
X0103815Y0044178D01*
X0081815Y0022178D01*
X0069899Y0022178D01*
X0069593Y0022483D01*
X0068430Y0022965D01*
X0067170Y0022965D01*
X0066007Y0022483D01*
X0065117Y0021593D01*
X0064635Y0020430D01*
X0064635Y0019170D01*
X0065117Y0018007D01*
X0066007Y0017117D01*
X0067170Y0016635D01*
X0068430Y0016635D01*
X0069593Y0017117D01*
X0069899Y0017422D01*
X0083785Y0017422D01*
X0085178Y0018815D01*
X0103418Y0037055D01*
X0103418Y0036042D01*
X0104095Y0034408D01*
X0105345Y0033158D01*
X0106979Y0032481D01*
X0108747Y0032481D01*
X0110381Y0033158D01*
X0111631Y0034408D01*
X0112308Y0036042D01*
X0112308Y0037810D01*
X0111640Y0039422D01*
X0114086Y0039422D01*
X0113418Y0037810D01*
X0113418Y0036042D01*
X0114095Y0034408D01*
X0115345Y0033158D01*
X0116979Y0032481D01*
X0118747Y0032481D01*
X0120381Y0033158D01*
X0121631Y0034408D01*
X0122308Y0036042D01*
X0122308Y0037810D01*
X0121631Y0039444D01*
X0121219Y0039856D01*
X0122178Y0040815D01*
X0126178Y0044815D01*
X0126178Y0061974D01*
X0124785Y0063367D01*
X0122250Y0065902D01*
X0122308Y0066042D01*
X0122308Y0067810D01*
X0121631Y0069444D01*
X0120381Y0070694D01*
X0118747Y0071371D01*
X0116979Y0071371D01*
X0115345Y0070694D01*
X0114095Y0069444D01*
X0113418Y0067810D01*
X0113418Y0066042D01*
X0114095Y0064408D01*
X0115345Y0063158D01*
X0116979Y0062481D01*
X0118747Y0062481D01*
X0118887Y0062539D01*
X0121422Y0060004D01*
X0121422Y0059653D01*
X0120381Y0060694D01*
X0118747Y0061371D01*
X0116979Y0061371D01*
X0116839Y0061313D01*
X0115367Y0062785D01*
X0113974Y0064178D01*
X0111401Y0064178D01*
X0111631Y0064408D01*
X0112308Y0066042D01*
X0112308Y0067810D01*
X0111631Y0069444D01*
X0110381Y0070694D01*
X0108747Y0071371D01*
X0106979Y0071371D01*
X0105345Y0070694D01*
X0104095Y0069444D01*
X0103418Y0067810D01*
X0103418Y0066042D01*
X0104095Y0064408D01*
X0104325Y0064178D01*
X0094815Y0064178D01*
X0089028Y0058391D01*
X0082957Y0058391D01*
X0082957Y0060099D01*
X0082044Y0061013D01*
X0082957Y0061926D01*
X0082957Y0070099D01*
X0081910Y0071146D01*
X0073737Y0071146D01*
X0072690Y0070099D01*
X0073616Y0071026D02*
X0051855Y0071026D01*
X0052957Y0064733D02*
X0072690Y0064733D01*
X0072690Y0063159D02*
X0052957Y0063159D01*
X0052610Y0061586D02*
X0073030Y0061586D01*
X0072690Y0060013D02*
X0052957Y0060013D01*
X0052957Y0058439D02*
X0072690Y0058439D01*
X0072690Y0056866D02*
X0052957Y0056866D01*
X0052957Y0055293D02*
X0072690Y0055293D01*
X0072690Y0053719D02*
X0052957Y0053719D01*
X0052957Y0052146D02*
X0072690Y0052146D01*
X0073163Y0050573D02*
X0067521Y0050573D01*
X0067627Y0048999D02*
X0072690Y0048999D01*
X0072690Y0047426D02*
X0067627Y0047426D01*
X0067361Y0045853D02*
X0072690Y0045853D01*
X0072690Y0044279D02*
X0067627Y0044279D01*
X0067627Y0042706D02*
X0072690Y0042706D01*
X0073483Y0041133D02*
X0068956Y0041133D01*
X0070529Y0039560D02*
X0072690Y0039560D01*
X0068523Y0034840D02*
X0052957Y0034840D01*
X0052957Y0036413D02*
X0066950Y0036413D01*
X0065377Y0037986D02*
X0052957Y0037986D01*
X0052957Y0039560D02*
X0061095Y0039560D01*
X0060115Y0041133D02*
X0052165Y0041133D01*
X0052957Y0042706D02*
X0060115Y0042706D01*
X0060115Y0044279D02*
X0052957Y0044279D01*
X0052957Y0045853D02*
X0060381Y0045853D01*
X0060115Y0047426D02*
X0052957Y0047426D01*
X0052957Y0048999D02*
X0060115Y0048999D01*
X0060221Y0050573D02*
X0052484Y0050573D01*
X0043163Y0050573D02*
X0043004Y0050573D01*
X0042690Y0052146D02*
X0041431Y0052146D01*
X0042690Y0053719D02*
X0039858Y0053719D01*
X0038284Y0055293D02*
X0042690Y0055293D01*
X0042690Y0056866D02*
X0036711Y0056866D01*
X0035138Y0058439D02*
X0042690Y0058439D01*
X0042690Y0060013D02*
X0033564Y0060013D01*
X0031737Y0072599D02*
X0106694Y0072599D01*
X0106146Y0071026D02*
X0082031Y0071026D01*
X0082957Y0069453D02*
X0104104Y0069453D01*
X0103447Y0067879D02*
X0082957Y0067879D01*
X0082957Y0066306D02*
X0103418Y0066306D01*
X0103960Y0064733D02*
X0082957Y0064733D01*
X0082957Y0063159D02*
X0093796Y0063159D01*
X0092223Y0061586D02*
X0082618Y0061586D01*
X0082957Y0060013D02*
X0090650Y0060013D01*
X0089076Y0058439D02*
X0082957Y0058439D01*
X0063871Y0050573D02*
X0063871Y0050573D01*
X0063871Y0048999D02*
X0063871Y0048999D01*
X0082165Y0041133D02*
X0100770Y0041133D01*
X0102343Y0042706D02*
X0082957Y0042706D01*
X0082957Y0039560D02*
X0099197Y0039560D01*
X0097623Y0037986D02*
X0082957Y0037986D01*
X0082957Y0036413D02*
X0096050Y0036413D01*
X0094477Y0034840D02*
X0082957Y0034840D01*
X0082957Y0033266D02*
X0092903Y0033266D01*
X0091330Y0031693D02*
X0082725Y0031693D01*
X0086610Y0026973D02*
X0064068Y0026973D01*
X0064068Y0025400D02*
X0085037Y0025400D01*
X0083463Y0023826D02*
X0064068Y0023826D01*
X0063395Y0022253D02*
X0065777Y0022253D01*
X0064738Y0020680D02*
X0062690Y0020680D01*
X0062690Y0019106D02*
X0064661Y0019106D01*
X0065590Y0017533D02*
X0062690Y0017533D01*
X0063003Y0015960D02*
X0103516Y0015960D01*
X0103418Y0017024D02*
X0107764Y0017024D01*
X0107765Y0017024D02*
X0107765Y0021371D01*
X0107513Y0021371D01*
X0106822Y0021261D01*
X0106157Y0021045D01*
X0105533Y0020728D01*
X0104967Y0020316D01*
X0104473Y0019822D01*
X0104061Y0019256D01*
X0103744Y0018632D01*
X0103528Y0017967D01*
X0103418Y0017276D01*
X0103418Y0017024D01*
X0103459Y0017533D02*
X0083896Y0017533D01*
X0085469Y0019106D02*
X0103985Y0019106D01*
X0105468Y0020680D02*
X0087043Y0020680D01*
X0088616Y0022253D02*
X0161464Y0022253D01*
X0159891Y0020680D02*
X0141465Y0020680D01*
X0141737Y0019106D02*
X0158318Y0019106D01*
X0156745Y0017533D02*
X0141737Y0017533D01*
X0141737Y0015960D02*
X0148722Y0015960D01*
X0147875Y0014387D02*
X0141072Y0014387D01*
X0138375Y0014387D02*
X0138375Y0014387D01*
X0138375Y0014005D02*
X0138375Y0017760D01*
X0138375Y0017760D01*
X0138375Y0014005D01*
X0138375Y0015960D02*
X0138375Y0015960D01*
X0138375Y0017533D02*
X0138375Y0017533D01*
X0138375Y0019106D02*
X0138375Y0019106D01*
X0138375Y0020680D02*
X0138375Y0020680D01*
X0135678Y0014387D02*
X0135560Y0014387D01*
X0130166Y0014387D02*
X0129749Y0014387D01*
X0128176Y0012813D02*
X0147884Y0012813D01*
X0148744Y0011240D02*
X0126603Y0011240D01*
X0125029Y0009667D02*
X0148878Y0009667D01*
X0157274Y0009667D02*
X0244894Y0009667D01*
X0244894Y0011240D02*
X0238279Y0011240D01*
X0239005Y0012813D02*
X0244894Y0012813D01*
X0250831Y0012813D02*
X0256144Y0012813D01*
X0256157Y0012807D02*
X0256822Y0012591D01*
X0257513Y0012481D01*
X0257765Y0012481D01*
X0257765Y0016827D01*
X0257961Y0016827D01*
X0257961Y0012481D01*
X0258213Y0012481D01*
X0258904Y0012591D01*
X0259569Y0012807D01*
X0260193Y0013124D01*
X0260759Y0013536D01*
X0261253Y0014030D01*
X0261665Y0014596D01*
X0261982Y0015220D01*
X0262198Y0015885D01*
X0262308Y0016576D01*
X0262308Y0016828D01*
X0257961Y0016828D01*
X0257961Y0017024D01*
X0262308Y0017024D01*
X0262308Y0017276D01*
X0262198Y0017967D01*
X0261982Y0018632D01*
X0261665Y0019256D01*
X0261253Y0019822D01*
X0260759Y0020316D01*
X0260193Y0020728D01*
X0259569Y0021045D01*
X0258904Y0021261D01*
X0258213Y0021371D01*
X0257961Y0021371D01*
X0257961Y0017024D01*
X0257765Y0017024D01*
X0257764Y0017024D02*
X0257764Y0016828D01*
X0253418Y0016828D01*
X0253418Y0016576D01*
X0253528Y0015885D01*
X0253744Y0015220D01*
X0254061Y0014596D01*
X0254473Y0014030D01*
X0254967Y0013536D01*
X0255533Y0013124D01*
X0256157Y0012807D01*
X0257765Y0012813D02*
X0257961Y0012813D01*
X0257961Y0014387D02*
X0257765Y0014387D01*
X0257765Y0015960D02*
X0257961Y0015960D01*
X0257764Y0017024D02*
X0253418Y0017024D01*
X0253418Y0017276D01*
X0253528Y0017967D01*
X0253744Y0018632D01*
X0254061Y0019256D01*
X0254473Y0019822D01*
X0254967Y0020316D01*
X0255533Y0020728D01*
X0256157Y0021045D01*
X0256822Y0021261D01*
X0257513Y0021371D01*
X0257765Y0021371D01*
X0257765Y0017024D01*
X0257765Y0017533D02*
X0257961Y0017533D01*
X0257961Y0019106D02*
X0257765Y0019106D01*
X0257765Y0020680D02*
X0257961Y0020680D01*
X0257961Y0022481D02*
X0258213Y0022481D01*
X0258904Y0022591D01*
X0259569Y0022807D01*
X0260193Y0023124D01*
X0260759Y0023536D01*
X0261253Y0024030D01*
X0261665Y0024596D01*
X0261982Y0025220D01*
X0262198Y0025885D01*
X0262308Y0026576D01*
X0262308Y0026828D01*
X0257961Y0026828D01*
X0257961Y0026827D02*
X0257961Y0022481D01*
X0257765Y0022481D02*
X0257765Y0026827D01*
X0257961Y0026827D01*
X0257961Y0026828D02*
X0257961Y0027024D01*
X0262308Y0027024D01*
X0262308Y0027276D01*
X0262198Y0027967D01*
X0261982Y0028632D01*
X0261665Y0029256D01*
X0261253Y0029822D01*
X0260759Y0030316D01*
X0260193Y0030728D01*
X0259569Y0031045D01*
X0258904Y0031261D01*
X0258213Y0031371D01*
X0257961Y0031371D01*
X0257961Y0027024D01*
X0257765Y0027024D01*
X0257764Y0027024D02*
X0257764Y0026828D01*
X0253418Y0026828D01*
X0253418Y0026576D01*
X0253528Y0025885D01*
X0253744Y0025220D01*
X0254061Y0024596D01*
X0254473Y0024030D01*
X0254967Y0023536D01*
X0255533Y0023124D01*
X0256157Y0022807D01*
X0256822Y0022591D01*
X0257513Y0022481D01*
X0257765Y0022481D01*
X0257765Y0023826D02*
X0257961Y0023826D01*
X0257961Y0025400D02*
X0257765Y0025400D01*
X0257764Y0026973D02*
X0252308Y0026973D01*
X0252308Y0027810D02*
X0251631Y0029444D01*
X0250381Y0030694D01*
X0248747Y0031371D01*
X0246979Y0031371D01*
X0245345Y0030694D01*
X0244152Y0029501D01*
X0239296Y0029501D01*
X0239296Y0030414D01*
X0238249Y0031461D01*
X0233619Y0031461D01*
X0233178Y0031021D01*
X0233094Y0031104D01*
X0232687Y0031340D01*
X0232232Y0031461D01*
X0230422Y0031461D01*
X0228612Y0031461D01*
X0228157Y0031340D01*
X0227750Y0031104D01*
X0227417Y0030771D01*
X0227182Y0030364D01*
X0227060Y0029909D01*
X0227060Y0027706D01*
X0230422Y0027706D01*
X0230422Y0031461D01*
X0230422Y0027706D01*
X0230422Y0027706D01*
X0230422Y0027705D01*
X0230422Y0027705D01*
X0230422Y0023950D01*
X0232232Y0023950D01*
X0232687Y0024071D01*
X0233094Y0024307D01*
X0233178Y0024390D01*
X0233619Y0023950D01*
X0238249Y0023950D01*
X0238651Y0024351D01*
X0244152Y0024351D01*
X0245345Y0023158D01*
X0246979Y0022481D01*
X0248747Y0022481D01*
X0250381Y0023158D01*
X0251631Y0024408D01*
X0252308Y0026042D01*
X0252308Y0027810D01*
X0252003Y0028546D02*
X0253716Y0028546D01*
X0253744Y0028632D02*
X0253528Y0027967D01*
X0253418Y0027276D01*
X0253418Y0027024D01*
X0257764Y0027024D01*
X0257765Y0027024D02*
X0257765Y0031371D01*
X0257513Y0031371D01*
X0256822Y0031261D01*
X0256157Y0031045D01*
X0255533Y0030728D01*
X0254967Y0030316D01*
X0254473Y0029822D01*
X0254061Y0029256D01*
X0253744Y0028632D01*
X0254771Y0030120D02*
X0250955Y0030120D01*
X0250381Y0033158D02*
X0248747Y0032481D01*
X0246979Y0032481D01*
X0245345Y0033158D01*
X0244095Y0034408D01*
X0243418Y0036042D01*
X0243418Y0037810D01*
X0244095Y0039444D01*
X0245345Y0040694D01*
X0246979Y0041371D01*
X0248747Y0041371D01*
X0250381Y0040694D01*
X0251631Y0039444D01*
X0252308Y0037810D01*
X0252308Y0036042D01*
X0251631Y0034408D01*
X0250381Y0033158D01*
X0250489Y0033266D02*
X0255237Y0033266D01*
X0255345Y0033158D02*
X0256979Y0032481D01*
X0258747Y0032481D01*
X0260381Y0033158D01*
X0261631Y0034408D01*
X0262308Y0036042D01*
X0262308Y0037810D01*
X0261631Y0039444D01*
X0260381Y0040694D01*
X0258747Y0041371D01*
X0256979Y0041371D01*
X0255345Y0040694D01*
X0254095Y0039444D01*
X0253418Y0037810D01*
X0253418Y0036042D01*
X0254095Y0034408D01*
X0255345Y0033158D01*
X0253916Y0034840D02*
X0251810Y0034840D01*
X0252308Y0036413D02*
X0253418Y0036413D01*
X0253491Y0037986D02*
X0252235Y0037986D01*
X0251515Y0039560D02*
X0254211Y0039560D01*
X0256404Y0041133D02*
X0249322Y0041133D01*
X0248747Y0042481D02*
X0250381Y0043158D01*
X0251631Y0044408D01*
X0252308Y0046042D01*
X0252308Y0047810D01*
X0251631Y0049444D01*
X0250381Y0050694D01*
X0248747Y0051371D01*
X0246979Y0051371D01*
X0245345Y0050694D01*
X0244095Y0049444D01*
X0243418Y0047810D01*
X0243418Y0046042D01*
X0244095Y0044408D01*
X0245345Y0043158D01*
X0246979Y0042481D01*
X0248747Y0042481D01*
X0249291Y0042706D02*
X0256435Y0042706D01*
X0256979Y0042481D02*
X0258747Y0042481D01*
X0260381Y0043158D01*
X0261631Y0044408D01*
X0262308Y0046042D01*
X0262308Y0047810D01*
X0261631Y0049444D01*
X0260381Y0050694D01*
X0258747Y0051371D01*
X0256979Y0051371D01*
X0255345Y0050694D01*
X0254095Y0049444D01*
X0253418Y0047810D01*
X0253418Y0046042D01*
X0254095Y0044408D01*
X0255345Y0043158D01*
X0256979Y0042481D01*
X0259291Y0042706D02*
X0318784Y0042706D01*
X0318784Y0042847D02*
X0318784Y0039825D01*
X0318906Y0039370D01*
X0319141Y0038962D01*
X0319474Y0038630D01*
X0319882Y0038394D01*
X0320336Y0038272D01*
X0323359Y0038272D01*
X0323359Y0042847D01*
X0323784Y0042847D01*
X0323784Y0038272D01*
X0326807Y0038272D01*
X0327262Y0038394D01*
X0327669Y0038630D01*
X0328002Y0038962D01*
X0328237Y0039370D01*
X0328359Y0039825D01*
X0328359Y0042847D01*
X0323784Y0042847D01*
X0323784Y0043272D01*
X0328359Y0043272D01*
X0328359Y0046295D01*
X0328237Y0046750D01*
X0328002Y0047157D01*
X0327669Y0047490D01*
X0327262Y0047725D01*
X0326807Y0047847D01*
X0323784Y0047847D01*
X0323784Y0043273D01*
X0323359Y0043273D01*
X0323359Y0047847D01*
X0320336Y0047847D01*
X0319882Y0047725D01*
X0319474Y0047490D01*
X0319141Y0047157D01*
X0318906Y0046750D01*
X0318784Y0046295D01*
X0318784Y0043272D01*
X0323359Y0043272D01*
X0323359Y0042847D01*
X0318784Y0042847D01*
X0318784Y0044279D02*
X0261503Y0044279D01*
X0262230Y0045853D02*
X0318784Y0045853D01*
X0319410Y0047426D02*
X0262308Y0047426D01*
X0261815Y0048999D02*
X0320704Y0048999D01*
X0320860Y0048844D02*
X0322619Y0048115D01*
X0324524Y0048115D01*
X0326283Y0048844D01*
X0327630Y0050191D01*
X0328359Y0051950D01*
X0328359Y0053855D01*
X0327630Y0055614D01*
X0326283Y0056961D01*
X0324524Y0057690D01*
X0322619Y0057690D01*
X0320860Y0056961D01*
X0319513Y0055614D01*
X0318784Y0053855D01*
X0318784Y0051950D01*
X0319513Y0050191D01*
X0320860Y0048844D01*
X0319355Y0050573D02*
X0260502Y0050573D01*
X0260381Y0053158D02*
X0261631Y0054408D01*
X0262308Y0056042D01*
X0262308Y0057810D01*
X0261631Y0059444D01*
X0260381Y0060694D01*
X0258747Y0061371D01*
X0256979Y0061371D01*
X0255345Y0060694D01*
X0254095Y0059444D01*
X0253418Y0057810D01*
X0253418Y0056042D01*
X0254095Y0054408D01*
X0255345Y0053158D01*
X0256979Y0052481D01*
X0258747Y0052481D01*
X0260381Y0053158D01*
X0260942Y0053719D02*
X0318784Y0053719D01*
X0318784Y0052146D02*
X0181312Y0052146D01*
X0181312Y0050573D02*
X0245224Y0050573D01*
X0243911Y0048999D02*
X0181312Y0048999D01*
X0181312Y0047426D02*
X0243418Y0047426D01*
X0243496Y0045853D02*
X0194501Y0045853D01*
X0194532Y0044279D02*
X0244223Y0044279D01*
X0246435Y0042706D02*
X0194532Y0042706D01*
X0194532Y0043926D02*
X0190777Y0043926D01*
X0194532Y0043926D01*
X0194129Y0041133D02*
X0246404Y0041133D01*
X0244211Y0039560D02*
X0194532Y0039560D01*
X0194532Y0037986D02*
X0243491Y0037986D01*
X0243418Y0036413D02*
X0194532Y0036413D01*
X0187424Y0041133D02*
X0144473Y0041133D01*
X0143351Y0042254D02*
X0143351Y0044666D01*
X0142910Y0045107D01*
X0142994Y0045191D01*
X0143229Y0045598D01*
X0143351Y0046053D01*
X0143351Y0047863D01*
X0143351Y0049673D01*
X0143229Y0050128D01*
X0142994Y0050535D01*
X0142661Y0050868D01*
X0142254Y0051103D01*
X0141799Y0051225D01*
X0139595Y0051225D01*
X0137391Y0051225D01*
X0136937Y0051103D01*
X0136529Y0050868D01*
X0136196Y0050535D01*
X0135961Y0050128D01*
X0135839Y0049673D01*
X0135839Y0047863D01*
X0139595Y0047863D01*
X0139595Y0047863D01*
X0135839Y0047863D01*
X0135839Y0046053D01*
X0135961Y0045598D01*
X0136196Y0045191D01*
X0136280Y0045107D01*
X0135839Y0044666D01*
X0135839Y0040036D01*
X0136886Y0038989D01*
X0139298Y0038989D01*
X0144598Y0033690D01*
X0121264Y0033690D01*
X0119871Y0032297D01*
X0118887Y0031313D01*
X0118747Y0031371D01*
X0116979Y0031371D01*
X0115345Y0030694D01*
X0114095Y0029444D01*
X0113418Y0027810D01*
X0113418Y0026042D01*
X0114095Y0024408D01*
X0115345Y0023158D01*
X0116979Y0022481D01*
X0118747Y0022481D01*
X0120381Y0023158D01*
X0121631Y0024408D01*
X0122308Y0026042D01*
X0122308Y0027810D01*
X0122250Y0027950D01*
X0123234Y0028934D01*
X0149614Y0028934D01*
X0150120Y0028724D01*
X0153013Y0028724D01*
X0153013Y0027422D01*
X0154060Y0026375D01*
X0159477Y0026375D01*
X0160524Y0027422D01*
X0160524Y0035202D01*
X0159477Y0036249D01*
X0154060Y0036249D01*
X0153013Y0035202D01*
X0153013Y0033899D01*
X0151706Y0033899D01*
X0143351Y0042254D01*
X0143351Y0042706D02*
X0187020Y0042706D01*
X0187020Y0044279D02*
X0143351Y0044279D01*
X0143298Y0045853D02*
X0150227Y0045853D01*
X0150178Y0046037D02*
X0150300Y0045583D01*
X0150535Y0045175D01*
X0150868Y0044842D01*
X0151275Y0044607D01*
X0151730Y0044485D01*
X0164957Y0044485D01*
X0164957Y0059265D01*
X0150178Y0059265D01*
X0150178Y0046037D01*
X0150178Y0047426D02*
X0143351Y0047426D01*
X0143351Y0047863D02*
X0139595Y0047863D01*
X0139595Y0051225D01*
X0139595Y0047863D01*
X0139595Y0047863D01*
X0143351Y0047863D01*
X0143351Y0048999D02*
X0150178Y0048999D01*
X0150178Y0050573D02*
X0142957Y0050573D01*
X0139595Y0050573D02*
X0139595Y0050573D01*
X0139595Y0048999D02*
X0139595Y0048999D01*
X0139595Y0047863D02*
X0139595Y0047863D01*
X0135839Y0047426D02*
X0126178Y0047426D01*
X0126178Y0045853D02*
X0135893Y0045853D01*
X0135839Y0044279D02*
X0125642Y0044279D01*
X0124069Y0042706D02*
X0135839Y0042706D01*
X0135839Y0041133D02*
X0122496Y0041133D01*
X0121515Y0039560D02*
X0136316Y0039560D01*
X0140301Y0037986D02*
X0122235Y0037986D01*
X0122308Y0036413D02*
X0141874Y0036413D01*
X0143448Y0034840D02*
X0121810Y0034840D01*
X0120840Y0033266D02*
X0120489Y0033266D01*
X0119267Y0031693D02*
X0098056Y0031693D01*
X0099629Y0033266D02*
X0105237Y0033266D01*
X0103916Y0034840D02*
X0101203Y0034840D01*
X0102776Y0036413D02*
X0103418Y0036413D01*
X0106157Y0031045D02*
X0106822Y0031261D01*
X0107513Y0031371D01*
X0107765Y0031371D01*
X0107765Y0027024D01*
X0107764Y0027024D02*
X0107764Y0026828D01*
X0103418Y0026828D01*
X0103418Y0026576D01*
X0103528Y0025885D01*
X0103744Y0025220D01*
X0104061Y0024596D01*
X0104473Y0024030D01*
X0104967Y0023536D01*
X0105533Y0023124D01*
X0106157Y0022807D01*
X0106822Y0022591D01*
X0107513Y0022481D01*
X0107765Y0022481D01*
X0107765Y0026827D01*
X0107961Y0026827D01*
X0107961Y0022481D01*
X0108213Y0022481D01*
X0108904Y0022591D01*
X0109569Y0022807D01*
X0110193Y0023124D01*
X0110759Y0023536D01*
X0111253Y0024030D01*
X0111665Y0024596D01*
X0111982Y0025220D01*
X0112198Y0025885D01*
X0112308Y0026576D01*
X0112308Y0026828D01*
X0107961Y0026828D01*
X0107961Y0027024D01*
X0112308Y0027024D01*
X0112308Y0027276D01*
X0112198Y0027967D01*
X0111982Y0028632D01*
X0111665Y0029256D01*
X0111253Y0029822D01*
X0110759Y0030316D01*
X0110193Y0030728D01*
X0109569Y0031045D01*
X0108904Y0031261D01*
X0108213Y0031371D01*
X0107961Y0031371D01*
X0107961Y0027024D01*
X0107765Y0027024D01*
X0107764Y0027024D02*
X0103418Y0027024D01*
X0103418Y0027276D01*
X0103528Y0027967D01*
X0103744Y0028632D01*
X0104061Y0029256D01*
X0104473Y0029822D01*
X0104967Y0030316D01*
X0105533Y0030728D01*
X0106157Y0031045D01*
X0104771Y0030120D02*
X0096483Y0030120D01*
X0094909Y0028546D02*
X0103716Y0028546D01*
X0103685Y0025400D02*
X0091763Y0025400D01*
X0093336Y0026973D02*
X0107764Y0026973D01*
X0107961Y0026973D02*
X0113418Y0026973D01*
X0113684Y0025400D02*
X0112041Y0025400D01*
X0111049Y0023826D02*
X0114677Y0023826D01*
X0113723Y0028546D02*
X0112010Y0028546D01*
X0110955Y0030120D02*
X0114771Y0030120D01*
X0115237Y0033266D02*
X0110489Y0033266D01*
X0111810Y0034840D02*
X0113916Y0034840D01*
X0113418Y0036413D02*
X0112308Y0036413D01*
X0112235Y0037986D02*
X0113491Y0037986D01*
X0114223Y0044279D02*
X0111502Y0044279D01*
X0112230Y0045853D02*
X0113496Y0045853D01*
X0113418Y0047426D02*
X0112308Y0047426D01*
X0111815Y0048999D02*
X0113911Y0048999D01*
X0115224Y0050573D02*
X0110502Y0050573D01*
X0110942Y0053719D02*
X0114784Y0053719D01*
X0113728Y0055293D02*
X0111998Y0055293D01*
X0112308Y0056866D02*
X0113418Y0056866D01*
X0112987Y0058439D02*
X0112047Y0058439D01*
X0116566Y0061586D02*
X0119840Y0061586D01*
X0121062Y0060013D02*
X0121413Y0060013D01*
X0126178Y0060013D02*
X0164957Y0060013D01*
X0164957Y0059265D02*
X0164957Y0060839D01*
X0150178Y0060839D01*
X0150178Y0074067D01*
X0150300Y0074521D01*
X0150535Y0074929D01*
X0150868Y0075262D01*
X0151275Y0075497D01*
X0151730Y0075619D01*
X0164957Y0075619D01*
X0164957Y0060839D01*
X0166532Y0060839D01*
X0181312Y0060839D01*
X0181312Y0074067D01*
X0181190Y0074521D01*
X0180955Y0074929D01*
X0180622Y0075262D01*
X0180214Y0075497D01*
X0179760Y0075619D01*
X0166532Y0075619D01*
X0166532Y0060839D01*
X0166532Y0059265D01*
X0181312Y0059265D01*
X0181312Y0046037D01*
X0181190Y0045583D01*
X0180955Y0045175D01*
X0180622Y0044842D01*
X0180214Y0044607D01*
X0179760Y0044485D01*
X0166532Y0044485D01*
X0166532Y0059265D01*
X0164957Y0059265D01*
X0164957Y0058439D02*
X0166532Y0058439D01*
X0166532Y0056866D02*
X0164957Y0056866D01*
X0164957Y0055293D02*
X0166532Y0055293D01*
X0166532Y0053719D02*
X0164957Y0053719D01*
X0164957Y0052146D02*
X0166532Y0052146D01*
X0166532Y0050573D02*
X0164957Y0050573D01*
X0164957Y0048999D02*
X0166532Y0048999D01*
X0166532Y0047426D02*
X0164957Y0047426D01*
X0164957Y0045853D02*
X0166532Y0045853D01*
X0176163Y0036413D02*
X0149193Y0036413D01*
X0150766Y0034840D02*
X0153013Y0034840D01*
X0147619Y0037986D02*
X0177737Y0037986D01*
X0179310Y0039560D02*
X0146046Y0039560D01*
X0135839Y0048999D02*
X0126178Y0048999D01*
X0126178Y0050573D02*
X0136234Y0050573D01*
X0126178Y0052146D02*
X0150178Y0052146D01*
X0150178Y0053719D02*
X0126178Y0053719D01*
X0126178Y0055293D02*
X0150178Y0055293D01*
X0150178Y0056866D02*
X0126178Y0056866D01*
X0126178Y0058439D02*
X0150178Y0058439D01*
X0150178Y0061586D02*
X0126178Y0061586D01*
X0124993Y0063159D02*
X0150178Y0063159D01*
X0150178Y0064733D02*
X0123419Y0064733D01*
X0122308Y0066306D02*
X0150178Y0066306D01*
X0150178Y0067879D02*
X0122279Y0067879D01*
X0121622Y0069453D02*
X0150178Y0069453D01*
X0150178Y0071026D02*
X0119580Y0071026D01*
X0119032Y0072599D02*
X0150178Y0072599D01*
X0150206Y0074172D02*
X0121395Y0074172D01*
X0122185Y0075746D02*
X0243541Y0075746D01*
X0243418Y0076042D02*
X0244095Y0074408D01*
X0245345Y0073158D01*
X0246979Y0072481D01*
X0248747Y0072481D01*
X0250381Y0073158D01*
X0251631Y0074408D01*
X0252308Y0076042D01*
X0252308Y0077810D01*
X0251631Y0079444D01*
X0250381Y0080694D01*
X0248747Y0081371D01*
X0246979Y0081371D01*
X0245345Y0080694D01*
X0244095Y0079444D01*
X0243418Y0077810D01*
X0243418Y0076042D01*
X0243418Y0077319D02*
X0122308Y0077319D01*
X0121860Y0078892D02*
X0243866Y0078892D01*
X0245117Y0080466D02*
X0127829Y0080466D01*
X0129402Y0082039D02*
X0318784Y0082039D01*
X0318784Y0081478D02*
X0319513Y0079718D01*
X0320860Y0078371D01*
X0322619Y0077643D01*
X0324524Y0077643D01*
X0326283Y0078371D01*
X0327630Y0079718D01*
X0328359Y0081478D01*
X0328359Y0083382D01*
X0327630Y0085142D01*
X0326283Y0086488D01*
X0324524Y0087217D01*
X0322619Y0087217D01*
X0320860Y0086488D01*
X0319513Y0085142D01*
X0318784Y0083382D01*
X0318784Y0081478D01*
X0319203Y0080466D02*
X0260609Y0080466D01*
X0260381Y0080694D02*
X0258747Y0081371D01*
X0256979Y0081371D01*
X0255345Y0080694D01*
X0254095Y0079444D01*
X0253418Y0077810D01*
X0253418Y0076042D01*
X0254095Y0074408D01*
X0255345Y0073158D01*
X0256979Y0072481D01*
X0258747Y0072481D01*
X0260381Y0073158D01*
X0261631Y0074408D01*
X0262308Y0076042D01*
X0262308Y0077810D01*
X0261631Y0079444D01*
X0260381Y0080694D01*
X0261860Y0078892D02*
X0320339Y0078892D01*
X0320860Y0076646D02*
X0319513Y0075299D01*
X0318784Y0073540D01*
X0318784Y0071635D01*
X0319513Y0069876D01*
X0320860Y0068529D01*
X0322619Y0067800D01*
X0324524Y0067800D01*
X0326283Y0068529D01*
X0327630Y0069876D01*
X0328359Y0071635D01*
X0328359Y0073540D01*
X0327630Y0075299D01*
X0326283Y0076646D01*
X0324524Y0077375D01*
X0322619Y0077375D01*
X0320860Y0076646D01*
X0319960Y0075746D02*
X0262185Y0075746D01*
X0262308Y0077319D02*
X0322485Y0077319D01*
X0324658Y0077319D02*
X0364935Y0077319D01*
X0364941Y0077313D02*
X0368659Y0077313D01*
X0371287Y0079941D01*
X0371287Y0083659D01*
X0368659Y0086287D01*
X0364941Y0086287D01*
X0362313Y0083659D01*
X0362313Y0079941D01*
X0364941Y0077313D01*
X0364941Y0076287D02*
X0362313Y0073659D01*
X0362313Y0069941D01*
X0364941Y0067313D01*
X0368659Y0067313D01*
X0371287Y0069941D01*
X0371287Y0073659D01*
X0368659Y0076287D01*
X0364941Y0076287D01*
X0364400Y0075746D02*
X0327184Y0075746D01*
X0328097Y0074172D02*
X0362826Y0074172D01*
X0362313Y0072599D02*
X0328359Y0072599D01*
X0328107Y0071026D02*
X0362313Y0071026D01*
X0362801Y0069453D02*
X0327207Y0069453D01*
X0326283Y0066803D02*
X0324524Y0067532D01*
X0322619Y0067532D01*
X0320860Y0066803D01*
X0319513Y0065457D01*
X0318784Y0063697D01*
X0318784Y0061793D01*
X0319513Y0060033D01*
X0320860Y0058686D01*
X0322619Y0057957D01*
X0324524Y0057957D01*
X0326283Y0058686D01*
X0327630Y0060033D01*
X0328359Y0061793D01*
X0328359Y0063697D01*
X0327630Y0065457D01*
X0326283Y0066803D01*
X0326781Y0066306D02*
X0392745Y0066306D01*
X0392745Y0067879D02*
X0379225Y0067879D01*
X0378659Y0067313D02*
X0381287Y0069941D01*
X0381287Y0073659D01*
X0378659Y0076287D01*
X0374941Y0076287D01*
X0372313Y0073659D01*
X0372313Y0069941D01*
X0374941Y0067313D01*
X0378659Y0067313D01*
X0378659Y0066287D02*
X0374941Y0066287D01*
X0372313Y0063659D01*
X0372313Y0059941D01*
X0374941Y0057313D01*
X0378659Y0057313D01*
X0381287Y0059941D01*
X0381287Y0063659D01*
X0378659Y0066287D01*
X0380214Y0064733D02*
X0392745Y0064733D01*
X0392745Y0063159D02*
X0381287Y0063159D01*
X0381287Y0061586D02*
X0392745Y0061586D01*
X0392745Y0060013D02*
X0381287Y0060013D01*
X0379785Y0058439D02*
X0392745Y0058439D01*
X0392745Y0056866D02*
X0326378Y0056866D01*
X0325687Y0058439D02*
X0363815Y0058439D01*
X0364941Y0057313D02*
X0368659Y0057313D01*
X0371287Y0059941D01*
X0371287Y0063659D01*
X0368659Y0066287D01*
X0364941Y0066287D01*
X0362313Y0063659D01*
X0362313Y0059941D01*
X0364941Y0057313D01*
X0363947Y0055293D02*
X0327763Y0055293D01*
X0328359Y0053719D02*
X0362373Y0053719D01*
X0362313Y0052146D02*
X0328359Y0052146D01*
X0327789Y0050573D02*
X0362313Y0050573D01*
X0363254Y0048999D02*
X0326439Y0048999D01*
X0327733Y0047426D02*
X0364422Y0047426D01*
X0364422Y0045853D02*
X0328359Y0045853D01*
X0328359Y0044279D02*
X0364422Y0044279D01*
X0364422Y0042706D02*
X0328359Y0042706D01*
X0328359Y0041133D02*
X0364422Y0041133D01*
X0364422Y0039560D02*
X0328288Y0039560D01*
X0323784Y0039560D02*
X0323359Y0039560D01*
X0323359Y0041133D02*
X0323784Y0041133D01*
X0323784Y0042706D02*
X0323359Y0042706D01*
X0323359Y0044279D02*
X0323784Y0044279D01*
X0323784Y0045853D02*
X0323359Y0045853D01*
X0323359Y0047426D02*
X0323784Y0047426D01*
X0318784Y0041133D02*
X0259322Y0041133D01*
X0261515Y0039560D02*
X0318855Y0039560D01*
X0319380Y0055293D02*
X0261998Y0055293D01*
X0262308Y0056866D02*
X0320765Y0056866D01*
X0321456Y0058439D02*
X0262047Y0058439D01*
X0261062Y0060013D02*
X0319533Y0060013D01*
X0318870Y0061586D02*
X0181312Y0061586D01*
X0181312Y0063159D02*
X0245344Y0063159D01*
X0245345Y0063158D02*
X0246979Y0062481D01*
X0248747Y0062481D01*
X0250381Y0063158D01*
X0251631Y0064408D01*
X0252308Y0066042D01*
X0252308Y0067810D01*
X0251631Y0069444D01*
X0250381Y0070694D01*
X0248747Y0071371D01*
X0246979Y0071371D01*
X0245345Y0070694D01*
X0244095Y0069444D01*
X0243418Y0067810D01*
X0243418Y0066042D01*
X0244095Y0064408D01*
X0245345Y0063158D01*
X0243960Y0064733D02*
X0181312Y0064733D01*
X0181312Y0066306D02*
X0243418Y0066306D01*
X0243447Y0067879D02*
X0181312Y0067879D01*
X0181312Y0069453D02*
X0244104Y0069453D01*
X0246146Y0071026D02*
X0181312Y0071026D01*
X0181312Y0072599D02*
X0246694Y0072599D01*
X0249032Y0072599D02*
X0256694Y0072599D01*
X0256979Y0071371D02*
X0255345Y0070694D01*
X0254095Y0069444D01*
X0253418Y0067810D01*
X0253418Y0066042D01*
X0254095Y0064408D01*
X0255345Y0063158D01*
X0256979Y0062481D01*
X0258747Y0062481D01*
X0260381Y0063158D01*
X0261631Y0064408D01*
X0262308Y0066042D01*
X0262308Y0067810D01*
X0261631Y0069444D01*
X0260381Y0070694D01*
X0258747Y0071371D01*
X0256979Y0071371D01*
X0256146Y0071026D02*
X0249580Y0071026D01*
X0251622Y0069453D02*
X0254104Y0069453D01*
X0253447Y0067879D02*
X0252279Y0067879D01*
X0252308Y0066306D02*
X0253418Y0066306D01*
X0253960Y0064733D02*
X0251766Y0064733D01*
X0250382Y0063159D02*
X0255344Y0063159D01*
X0254664Y0060013D02*
X0251062Y0060013D01*
X0251631Y0059444D02*
X0250381Y0060694D01*
X0248747Y0061371D01*
X0246979Y0061371D01*
X0245345Y0060694D01*
X0244095Y0059444D01*
X0243418Y0057810D01*
X0243418Y0056042D01*
X0244095Y0054408D01*
X0245345Y0053158D01*
X0246979Y0052481D01*
X0248747Y0052481D01*
X0250381Y0053158D01*
X0251631Y0054408D01*
X0252308Y0056042D01*
X0252308Y0057810D01*
X0251631Y0059444D01*
X0252047Y0058439D02*
X0253679Y0058439D01*
X0253418Y0056866D02*
X0252308Y0056866D01*
X0251998Y0055293D02*
X0253728Y0055293D01*
X0254784Y0053719D02*
X0250942Y0053719D01*
X0250502Y0050573D02*
X0255224Y0050573D01*
X0253911Y0048999D02*
X0251815Y0048999D01*
X0252308Y0047426D02*
X0253418Y0047426D01*
X0253496Y0045853D02*
X0252230Y0045853D01*
X0251503Y0044279D02*
X0254223Y0044279D01*
X0262235Y0037986D02*
X0364422Y0037986D01*
X0364422Y0036413D02*
X0262308Y0036413D01*
X0261810Y0034840D02*
X0364422Y0034840D01*
X0364422Y0033266D02*
X0260489Y0033266D01*
X0260955Y0030120D02*
X0364422Y0030120D01*
X0364422Y0031693D02*
X0178762Y0031693D01*
X0178477Y0030120D02*
X0227116Y0030120D01*
X0227060Y0028546D02*
X0178477Y0028546D01*
X0178028Y0026973D02*
X0227060Y0026973D01*
X0227060Y0027705D02*
X0227060Y0025502D01*
X0227182Y0025047D01*
X0227417Y0024640D01*
X0227750Y0024307D01*
X0228157Y0024071D01*
X0228612Y0023950D01*
X0230422Y0023950D01*
X0230422Y0027705D01*
X0227060Y0027705D01*
X0227087Y0025400D02*
X0173007Y0025400D01*
X0171434Y0023826D02*
X0244677Y0023826D01*
X0247863Y0026926D02*
X0236713Y0026926D01*
X0235934Y0027706D01*
X0239296Y0030120D02*
X0244771Y0030120D01*
X0245237Y0033266D02*
X0180335Y0033266D01*
X0181908Y0034840D02*
X0243916Y0034840D01*
X0257765Y0030120D02*
X0257961Y0030120D01*
X0257961Y0028546D02*
X0257765Y0028546D01*
X0257961Y0026973D02*
X0364422Y0026973D01*
X0364422Y0025400D02*
X0262041Y0025400D01*
X0261049Y0023826D02*
X0364422Y0023826D01*
X0364422Y0022253D02*
X0169861Y0022253D01*
X0168287Y0020680D02*
X0245331Y0020680D01*
X0250395Y0020680D02*
X0255468Y0020680D01*
X0253985Y0019106D02*
X0251771Y0019106D01*
X0252308Y0017533D02*
X0253459Y0017533D01*
X0253516Y0015960D02*
X0252274Y0015960D01*
X0251610Y0014387D02*
X0254214Y0014387D01*
X0250831Y0011240D02*
X0301989Y0011240D01*
X0303563Y0009667D02*
X0250831Y0009667D01*
X0259582Y0012813D02*
X0290036Y0012813D01*
X0289141Y0014387D02*
X0261512Y0014387D01*
X0262210Y0015960D02*
X0288989Y0015960D01*
X0289456Y0017533D02*
X0262267Y0017533D01*
X0261741Y0019106D02*
X0290810Y0019106D01*
X0295467Y0019106D02*
X0298684Y0019106D01*
X0297330Y0017533D02*
X0296821Y0017533D01*
X0296241Y0012813D02*
X0297910Y0012813D01*
X0304695Y0017533D02*
X0305204Y0017533D01*
X0306558Y0019106D02*
X0303341Y0019106D01*
X0311215Y0019106D02*
X0313035Y0019106D01*
X0312611Y0017533D02*
X0312569Y0017533D01*
X0316761Y0017533D02*
X0316761Y0017533D01*
X0316761Y0015960D02*
X0316761Y0015960D01*
X0316761Y0019106D02*
X0316761Y0019106D01*
X0320486Y0019106D02*
X0335703Y0019106D01*
X0334725Y0017533D02*
X0320910Y0017533D01*
X0320910Y0015960D02*
X0334560Y0015960D01*
X0335063Y0014387D02*
X0320910Y0014387D01*
X0320865Y0012813D02*
X0336922Y0012813D01*
X0340982Y0009667D02*
X0364422Y0009667D01*
X0364422Y0011240D02*
X0342556Y0011240D01*
X0345812Y0012813D02*
X0348733Y0012813D01*
X0351718Y0012813D02*
X0354638Y0012813D01*
X0356131Y0012813D02*
X0356131Y0012813D01*
X0357623Y0012813D02*
X0364422Y0012813D01*
X0364422Y0014387D02*
X0359443Y0014387D01*
X0359980Y0015960D02*
X0364422Y0015960D01*
X0364422Y0017533D02*
X0359820Y0017533D01*
X0358842Y0019106D02*
X0364422Y0019106D01*
X0364422Y0020680D02*
X0260258Y0020680D01*
X0254677Y0023826D02*
X0251049Y0023826D01*
X0252042Y0025400D02*
X0253685Y0025400D01*
X0262010Y0028546D02*
X0364422Y0028546D01*
X0369178Y0028546D02*
X0392745Y0028546D01*
X0392745Y0026973D02*
X0369178Y0026973D01*
X0369178Y0025400D02*
X0392745Y0025400D01*
X0392745Y0023826D02*
X0369178Y0023826D01*
X0369178Y0022253D02*
X0380891Y0022253D01*
X0381889Y0022666D02*
X0378560Y0021288D01*
X0376013Y0018740D01*
X0374635Y0015412D01*
X0374635Y0011810D01*
X0376013Y0008482D01*
X0378560Y0005934D01*
X0381889Y0004556D01*
X0385491Y0004556D01*
X0388819Y0005934D01*
X0391366Y0008482D01*
X0392745Y0011810D01*
X0392745Y0015412D01*
X0391366Y0018740D01*
X0388819Y0021288D01*
X0385491Y0022666D01*
X0381889Y0022666D01*
X0377953Y0020680D02*
X0369178Y0020680D01*
X0369178Y0019106D02*
X0376379Y0019106D01*
X0375513Y0017533D02*
X0369178Y0017533D01*
X0369178Y0015960D02*
X0374861Y0015960D01*
X0374635Y0014387D02*
X0369178Y0014387D01*
X0369178Y0012813D02*
X0374635Y0012813D01*
X0374871Y0011240D02*
X0369178Y0011240D01*
X0369178Y0009667D02*
X0375522Y0009667D01*
X0376402Y0008093D02*
X0369178Y0008093D01*
X0368883Y0006520D02*
X0377975Y0006520D01*
X0380945Y0004947D02*
X0367623Y0004947D01*
X0356131Y0014387D02*
X0356131Y0014387D01*
X0356131Y0015960D02*
X0356131Y0015960D01*
X0356131Y0017533D02*
X0356131Y0017533D01*
X0356131Y0019106D02*
X0356131Y0019106D01*
X0353419Y0019106D02*
X0352936Y0019106D01*
X0347514Y0019106D02*
X0347031Y0019106D01*
X0341608Y0019106D02*
X0341125Y0019106D01*
X0369178Y0030120D02*
X0392745Y0030120D01*
X0392745Y0031693D02*
X0369178Y0031693D01*
X0369178Y0033266D02*
X0392745Y0033266D01*
X0392745Y0034840D02*
X0369178Y0034840D01*
X0369178Y0036413D02*
X0392745Y0036413D01*
X0392745Y0037986D02*
X0369178Y0037986D01*
X0369178Y0039560D02*
X0392745Y0039560D01*
X0392745Y0041133D02*
X0369178Y0041133D01*
X0369178Y0042706D02*
X0392745Y0042706D01*
X0392745Y0044279D02*
X0369178Y0044279D01*
X0369178Y0045853D02*
X0392745Y0045853D01*
X0392745Y0047426D02*
X0378772Y0047426D01*
X0378659Y0047313D02*
X0381287Y0049941D01*
X0381287Y0051687D01*
X0376913Y0051687D01*
X0376913Y0051913D01*
X0376687Y0051913D01*
X0376687Y0056287D01*
X0374941Y0056287D01*
X0372313Y0053659D01*
X0372313Y0051913D01*
X0376687Y0051913D01*
X0376687Y0051687D01*
X0372313Y0051687D01*
X0372313Y0049941D01*
X0374941Y0047313D01*
X0376687Y0047313D01*
X0376687Y0051687D01*
X0376913Y0051687D01*
X0376913Y0047313D01*
X0378659Y0047313D01*
X0376913Y0047426D02*
X0376687Y0047426D01*
X0376687Y0048999D02*
X0376913Y0048999D01*
X0376913Y0050573D02*
X0376687Y0050573D01*
X0376913Y0051913D02*
X0381287Y0051913D01*
X0381287Y0053659D01*
X0378659Y0056287D01*
X0376913Y0056287D01*
X0376913Y0051913D01*
X0376913Y0052146D02*
X0376687Y0052146D01*
X0376687Y0053719D02*
X0376913Y0053719D01*
X0376913Y0055293D02*
X0376687Y0055293D01*
X0373947Y0055293D02*
X0369653Y0055293D01*
X0371227Y0053719D02*
X0372373Y0053719D01*
X0372313Y0052146D02*
X0371287Y0052146D01*
X0371287Y0050573D02*
X0372313Y0050573D01*
X0373254Y0048999D02*
X0370346Y0048999D01*
X0369178Y0047426D02*
X0374828Y0047426D01*
X0380346Y0048999D02*
X0392745Y0048999D01*
X0392745Y0050573D02*
X0381287Y0050573D01*
X0381287Y0052146D02*
X0392745Y0052146D01*
X0392745Y0053719D02*
X0381227Y0053719D01*
X0379653Y0055293D02*
X0392745Y0055293D01*
X0373815Y0058439D02*
X0369785Y0058439D01*
X0371287Y0060013D02*
X0372313Y0060013D01*
X0372313Y0061586D02*
X0371287Y0061586D01*
X0371287Y0063159D02*
X0372313Y0063159D01*
X0373386Y0064733D02*
X0370214Y0064733D01*
X0369225Y0067879D02*
X0374375Y0067879D01*
X0372801Y0069453D02*
X0370799Y0069453D01*
X0371287Y0071026D02*
X0372313Y0071026D01*
X0372313Y0072599D02*
X0371287Y0072599D01*
X0370774Y0074172D02*
X0372826Y0074172D01*
X0374400Y0075746D02*
X0369200Y0075746D01*
X0368665Y0077319D02*
X0374935Y0077319D01*
X0374941Y0077313D02*
X0378659Y0077313D01*
X0381287Y0079941D01*
X0381287Y0083659D01*
X0378659Y0086287D01*
X0374941Y0086287D01*
X0372313Y0083659D01*
X0372313Y0079941D01*
X0374941Y0077313D01*
X0373361Y0078892D02*
X0370239Y0078892D01*
X0371287Y0080466D02*
X0372313Y0080466D01*
X0372313Y0082039D02*
X0371287Y0082039D01*
X0371287Y0083612D02*
X0372313Y0083612D01*
X0373840Y0085186D02*
X0369760Y0085186D01*
X0368659Y0087313D02*
X0371287Y0089941D01*
X0371287Y0093659D01*
X0368659Y0096287D01*
X0364941Y0096287D01*
X0362313Y0093659D01*
X0362313Y0089941D01*
X0364941Y0087313D01*
X0368659Y0087313D01*
X0369678Y0088332D02*
X0373922Y0088332D01*
X0374941Y0087313D02*
X0378659Y0087313D01*
X0381287Y0089941D01*
X0381287Y0093659D01*
X0378659Y0096287D01*
X0374941Y0096287D01*
X0372313Y0093659D01*
X0372313Y0089941D01*
X0374941Y0087313D01*
X0372348Y0089906D02*
X0371252Y0089906D01*
X0371287Y0091479D02*
X0372313Y0091479D01*
X0372313Y0093052D02*
X0371287Y0093052D01*
X0370321Y0094626D02*
X0373279Y0094626D01*
X0374853Y0096199D02*
X0368747Y0096199D01*
X0368659Y0097313D02*
X0371287Y0099941D01*
X0371287Y0103659D01*
X0368659Y0106287D01*
X0364941Y0106287D01*
X0362313Y0103659D01*
X0362313Y0099941D01*
X0364941Y0097313D01*
X0368659Y0097313D01*
X0369118Y0097772D02*
X0374482Y0097772D01*
X0374941Y0097313D02*
X0378659Y0097313D01*
X0381287Y0099941D01*
X0381287Y0103659D01*
X0378659Y0106287D01*
X0374941Y0106287D01*
X0372313Y0103659D01*
X0372313Y0099941D01*
X0374941Y0097313D01*
X0372908Y0099345D02*
X0370692Y0099345D01*
X0371287Y0100919D02*
X0372313Y0100919D01*
X0372313Y0102492D02*
X0371287Y0102492D01*
X0370881Y0104065D02*
X0372719Y0104065D01*
X0374293Y0105639D02*
X0369307Y0105639D01*
X0368659Y0107313D02*
X0364941Y0107313D01*
X0362313Y0109941D01*
X0362313Y0113659D01*
X0363076Y0114422D01*
X0360815Y0114422D01*
X0350815Y0124422D01*
X0349422Y0125815D01*
X0349422Y0129701D01*
X0349178Y0129946D01*
X0349178Y0125815D01*
X0347785Y0124422D01*
X0333272Y0109909D01*
X0333272Y0108847D01*
X0331879Y0107454D01*
X0328848Y0104422D01*
X0327798Y0104422D01*
X0328359Y0103067D01*
X0328359Y0101163D01*
X0327630Y0099403D01*
X0326283Y0098056D01*
X0324524Y0097328D01*
X0322619Y0097328D01*
X0320860Y0098056D01*
X0319513Y0099403D01*
X0318784Y0101163D01*
X0318784Y0103067D01*
X0319345Y0104422D01*
X0312785Y0104422D01*
X0292911Y0084548D01*
X0261689Y0084548D01*
X0261631Y0084408D01*
X0260381Y0083158D01*
X0258747Y0082481D01*
X0256979Y0082481D01*
X0255345Y0083158D01*
X0254095Y0084408D01*
X0253418Y0086042D01*
X0253418Y0087810D01*
X0254086Y0089422D01*
X0253722Y0089422D01*
X0252250Y0087950D01*
X0252308Y0087810D01*
X0252308Y0086042D01*
X0251631Y0084408D01*
X0250381Y0083158D01*
X0248747Y0082481D01*
X0246979Y0082481D01*
X0245345Y0083158D01*
X0244095Y0084408D01*
X0243418Y0086042D01*
X0243418Y0087810D01*
X0244095Y0089444D01*
X0245345Y0090694D01*
X0246979Y0091371D01*
X0248747Y0091371D01*
X0248887Y0091313D01*
X0251752Y0094178D01*
X0254325Y0094178D01*
X0254095Y0094408D01*
X0253418Y0096042D01*
X0253418Y0097810D01*
X0254086Y0099422D01*
X0253722Y0099422D01*
X0252250Y0097950D01*
X0252308Y0097810D01*
X0252308Y0096042D01*
X0251631Y0094408D01*
X0250381Y0093158D01*
X0248747Y0092481D01*
X0246979Y0092481D01*
X0245345Y0093158D01*
X0244095Y0094408D01*
X0243418Y0096042D01*
X0243418Y0097810D01*
X0244095Y0099444D01*
X0245345Y0100694D01*
X0246979Y0101371D01*
X0248747Y0101371D01*
X0248887Y0101313D01*
X0250359Y0102785D01*
X0251752Y0104178D01*
X0254325Y0104178D01*
X0254095Y0104408D01*
X0253418Y0106042D01*
X0253418Y0107810D01*
X0254095Y0109444D01*
X0255345Y0110694D01*
X0256979Y0111371D01*
X0258747Y0111371D01*
X0260381Y0110694D01*
X0261631Y0109444D01*
X0262308Y0107810D01*
X0262308Y0106042D01*
X0261631Y0104408D01*
X0261401Y0104178D01*
X0275815Y0104178D01*
X0309422Y0137785D01*
X0310815Y0139178D01*
X0319345Y0139178D01*
X0318784Y0140533D01*
X0318784Y0142437D01*
X0319513Y0144197D01*
X0320860Y0145544D01*
X0322619Y0146272D01*
X0324524Y0146272D01*
X0326283Y0145544D01*
X0327630Y0144197D01*
X0328359Y0142437D01*
X0328359Y0141722D01*
X0329422Y0142785D01*
X0329422Y0157785D01*
X0334422Y0162785D01*
X0334422Y0162785D01*
X0335815Y0164178D01*
X0362832Y0164178D01*
X0364941Y0166287D01*
X0368659Y0166287D01*
X0371287Y0163659D01*
X0371287Y0159941D01*
X0370524Y0159178D01*
X0370815Y0159178D01*
X0372313Y0160676D01*
X0372313Y0163659D01*
X0374941Y0166287D01*
X0378659Y0166287D01*
X0381287Y0163659D01*
X0381287Y0159941D01*
X0378659Y0157313D01*
X0375676Y0157313D01*
X0372785Y0154422D01*
X0370524Y0154422D01*
X0371287Y0153659D01*
X0371287Y0149941D01*
X0370524Y0149178D01*
X0370815Y0149178D01*
X0372313Y0150676D01*
X0372313Y0153659D01*
X0374941Y0156287D01*
X0378659Y0156287D01*
X0381287Y0153659D01*
X0381287Y0149941D01*
X0378659Y0147313D01*
X0375676Y0147313D01*
X0372785Y0144422D01*
X0370524Y0144422D01*
X0371287Y0143659D01*
X0371287Y0139941D01*
X0368659Y0137313D01*
X0364941Y0137313D01*
X0362313Y0139941D01*
X0362313Y0143659D01*
X0363076Y0144422D01*
X0352785Y0144422D01*
X0349178Y0140815D01*
X0349178Y0133654D01*
X0350007Y0134483D01*
X0351170Y0134965D01*
X0352430Y0134965D01*
X0353593Y0134483D01*
X0354483Y0133593D01*
X0354965Y0132430D01*
X0354965Y0131170D01*
X0354483Y0130007D01*
X0354178Y0129701D01*
X0354178Y0127785D01*
X0362785Y0119178D01*
X0363076Y0119178D01*
X0362313Y0119941D01*
X0362313Y0123659D01*
X0364941Y0126287D01*
X0368659Y0126287D01*
X0371287Y0123659D01*
X0371287Y0119941D01*
X0370524Y0119178D01*
X0370815Y0119178D01*
X0372313Y0120676D01*
X0372313Y0123659D01*
X0374941Y0126287D01*
X0378659Y0126287D01*
X0381287Y0123659D01*
X0381287Y0119941D01*
X0378659Y0117313D01*
X0375676Y0117313D01*
X0374178Y0115815D01*
X0372785Y0114422D01*
X0370524Y0114422D01*
X0371287Y0113659D01*
X0371287Y0109941D01*
X0368659Y0107313D01*
X0370132Y0108785D02*
X0373468Y0108785D01*
X0372313Y0109941D02*
X0374941Y0107313D01*
X0378659Y0107313D01*
X0381287Y0109941D01*
X0381287Y0113659D01*
X0378659Y0116287D01*
X0374941Y0116287D01*
X0372313Y0113659D01*
X0372313Y0109941D01*
X0372313Y0110359D02*
X0371287Y0110359D01*
X0371287Y0111932D02*
X0372313Y0111932D01*
X0372313Y0113505D02*
X0371287Y0113505D01*
X0373442Y0115079D02*
X0373733Y0115079D01*
X0375015Y0116652D02*
X0392745Y0116652D01*
X0392745Y0118225D02*
X0379571Y0118225D01*
X0381145Y0119799D02*
X0392745Y0119799D01*
X0392745Y0121372D02*
X0381287Y0121372D01*
X0381287Y0122945D02*
X0392745Y0122945D01*
X0392745Y0124519D02*
X0380428Y0124519D01*
X0378854Y0126092D02*
X0392745Y0126092D01*
X0392745Y0127665D02*
X0379011Y0127665D01*
X0378659Y0127313D02*
X0381287Y0129941D01*
X0381287Y0132924D01*
X0387785Y0139422D01*
X0389178Y0140815D01*
X0389178Y0172785D01*
X0374178Y0187785D01*
X0372785Y0189178D01*
X0315815Y0189178D01*
X0265941Y0139304D01*
X0261689Y0139304D01*
X0261640Y0139422D01*
X0262785Y0139422D01*
X0264178Y0140815D01*
X0284178Y0160815D01*
X0284178Y0164701D01*
X0284483Y0165007D01*
X0284965Y0166170D01*
X0284965Y0167430D01*
X0284483Y0168593D01*
X0283593Y0169483D01*
X0282430Y0169965D01*
X0281170Y0169965D01*
X0280007Y0169483D01*
X0279117Y0168593D01*
X0278635Y0167430D01*
X0278635Y0166170D01*
X0279117Y0165007D01*
X0279422Y0164701D01*
X0279422Y0162785D01*
X0262045Y0145408D01*
X0262308Y0146042D01*
X0262308Y0147810D01*
X0261631Y0149444D01*
X0260381Y0150694D01*
X0258747Y0151371D01*
X0256979Y0151371D01*
X0255345Y0150694D01*
X0254095Y0149444D01*
X0253418Y0147810D01*
X0253418Y0146042D01*
X0254095Y0144408D01*
X0254325Y0144178D01*
X0251752Y0144178D01*
X0248887Y0141313D01*
X0248747Y0141371D01*
X0246979Y0141371D01*
X0245345Y0140694D01*
X0244095Y0139444D01*
X0243418Y0137810D01*
X0243418Y0136042D01*
X0244095Y0134408D01*
X0245345Y0133158D01*
X0246979Y0132481D01*
X0248747Y0132481D01*
X0250381Y0133158D01*
X0251631Y0134408D01*
X0252308Y0136042D01*
X0252308Y0137810D01*
X0252250Y0137950D01*
X0253722Y0139422D01*
X0254086Y0139422D01*
X0253418Y0137810D01*
X0253418Y0136042D01*
X0254095Y0134408D01*
X0255345Y0133158D01*
X0256979Y0132481D01*
X0258747Y0132481D01*
X0260381Y0133158D01*
X0261631Y0134408D01*
X0261689Y0134548D01*
X0267911Y0134548D01*
X0269304Y0135941D01*
X0317785Y0184422D01*
X0370815Y0184422D01*
X0384422Y0170815D01*
X0384422Y0142785D01*
X0377924Y0136287D01*
X0374941Y0136287D01*
X0372313Y0133659D01*
X0372313Y0129941D01*
X0374941Y0127313D01*
X0378659Y0127313D01*
X0380585Y0129238D02*
X0392745Y0129238D01*
X0392745Y0130812D02*
X0381287Y0130812D01*
X0381287Y0132385D02*
X0392745Y0132385D01*
X0392745Y0133958D02*
X0382321Y0133958D01*
X0383895Y0135532D02*
X0392745Y0135532D01*
X0392745Y0137105D02*
X0385468Y0137105D01*
X0387041Y0138678D02*
X0392745Y0138678D01*
X0392745Y0140252D02*
X0388615Y0140252D01*
X0389178Y0141825D02*
X0392745Y0141825D01*
X0392745Y0143398D02*
X0389178Y0143398D01*
X0389178Y0144972D02*
X0392745Y0144972D01*
X0392745Y0146545D02*
X0389178Y0146545D01*
X0389178Y0148118D02*
X0392745Y0148118D01*
X0392745Y0149692D02*
X0389178Y0149692D01*
X0389178Y0151265D02*
X0392745Y0151265D01*
X0392745Y0152838D02*
X0389178Y0152838D01*
X0389178Y0154412D02*
X0392745Y0154412D01*
X0392745Y0155985D02*
X0389178Y0155985D01*
X0389178Y0157558D02*
X0392745Y0157558D01*
X0392745Y0159131D02*
X0389178Y0159131D01*
X0389178Y0160705D02*
X0392745Y0160705D01*
X0392745Y0162278D02*
X0389178Y0162278D01*
X0389178Y0163851D02*
X0392745Y0163851D01*
X0392745Y0165425D02*
X0389178Y0165425D01*
X0389178Y0166998D02*
X0392745Y0166998D01*
X0392745Y0168571D02*
X0389178Y0168571D01*
X0389178Y0170145D02*
X0392745Y0170145D01*
X0392745Y0171718D02*
X0389178Y0171718D01*
X0388672Y0173291D02*
X0392745Y0173291D01*
X0392745Y0174865D02*
X0387098Y0174865D01*
X0385525Y0176438D02*
X0392745Y0176438D01*
X0392745Y0178011D02*
X0383952Y0178011D01*
X0382378Y0179585D02*
X0392745Y0179585D01*
X0392745Y0181158D02*
X0380805Y0181158D01*
X0379232Y0182731D02*
X0392745Y0182731D01*
X0392745Y0184304D02*
X0377658Y0184304D01*
X0376085Y0185878D02*
X0392745Y0185878D01*
X0392745Y0187451D02*
X0374512Y0187451D01*
X0372938Y0189024D02*
X0392745Y0189024D01*
X0392745Y0190598D02*
X0260477Y0190598D01*
X0260381Y0190694D02*
X0258747Y0191371D01*
X0256979Y0191371D01*
X0255345Y0190694D01*
X0254095Y0189444D01*
X0253418Y0187810D01*
X0253418Y0186042D01*
X0254095Y0184408D01*
X0255345Y0183158D01*
X0256979Y0182481D01*
X0258747Y0182481D01*
X0260381Y0183158D01*
X0261631Y0184408D01*
X0262308Y0186042D01*
X0262308Y0187810D01*
X0261631Y0189444D01*
X0260381Y0190694D01*
X0261805Y0189024D02*
X0315661Y0189024D01*
X0314088Y0187451D02*
X0262308Y0187451D01*
X0262240Y0185878D02*
X0312515Y0185878D01*
X0310942Y0184304D02*
X0261527Y0184304D01*
X0259351Y0182731D02*
X0309368Y0182731D01*
X0307795Y0181158D02*
X0259261Y0181158D01*
X0258747Y0181371D02*
X0256979Y0181371D01*
X0255345Y0180694D01*
X0254095Y0179444D01*
X0253418Y0177810D01*
X0253418Y0176042D01*
X0254095Y0174408D01*
X0255345Y0173158D01*
X0256979Y0172481D01*
X0258747Y0172481D01*
X0260381Y0173158D01*
X0261631Y0174408D01*
X0262308Y0176042D01*
X0262308Y0177810D01*
X0261631Y0179444D01*
X0260381Y0180694D01*
X0258747Y0181371D01*
X0256465Y0181158D02*
X0249261Y0181158D01*
X0248747Y0181371D02*
X0246979Y0181371D01*
X0245345Y0180694D01*
X0244095Y0179444D01*
X0243418Y0177810D01*
X0243418Y0176042D01*
X0244095Y0174408D01*
X0245345Y0173158D01*
X0246979Y0172481D01*
X0248747Y0172481D01*
X0250381Y0173158D01*
X0251631Y0174408D01*
X0252308Y0176042D01*
X0252308Y0177810D01*
X0251631Y0179444D01*
X0250381Y0180694D01*
X0248747Y0181371D01*
X0248747Y0182481D02*
X0250381Y0183158D01*
X0251631Y0184408D01*
X0252308Y0186042D01*
X0252308Y0187810D01*
X0252250Y0187950D01*
X0253785Y0189485D01*
X0255178Y0190878D01*
X0255178Y0193325D01*
X0255345Y0193158D01*
X0256979Y0192481D01*
X0258747Y0192481D01*
X0260381Y0193158D01*
X0261631Y0194408D01*
X0262308Y0196042D01*
X0262308Y0197810D01*
X0262250Y0197950D01*
X0276942Y0212642D01*
X0276942Y0211060D01*
X0277989Y0210013D01*
X0286162Y0210013D01*
X0287209Y0211060D01*
X0287209Y0219233D01*
X0286296Y0220146D01*
X0287209Y0221060D01*
X0287209Y0229233D01*
X0286296Y0230146D01*
X0287209Y0231060D01*
X0287209Y0239233D01*
X0286296Y0240146D01*
X0287209Y0241060D01*
X0287209Y0249233D01*
X0286162Y0250280D01*
X0277989Y0250280D01*
X0276942Y0249233D01*
X0276942Y0241060D01*
X0277855Y0240146D01*
X0276942Y0239233D01*
X0276942Y0231060D01*
X0277855Y0230146D01*
X0276942Y0229233D01*
X0276942Y0227524D01*
X0264161Y0227524D01*
X0262769Y0226131D01*
X0250422Y0213785D01*
X0250422Y0210653D01*
X0250381Y0210694D01*
X0248747Y0211371D01*
X0246979Y0211371D01*
X0245345Y0210694D01*
X0244095Y0209444D01*
X0243418Y0207810D01*
X0243418Y0206042D01*
X0244095Y0204408D01*
X0245345Y0203158D01*
X0246979Y0202481D01*
X0248747Y0202481D01*
X0250381Y0203158D01*
X0250422Y0203199D01*
X0250422Y0200653D01*
X0250381Y0200694D01*
X0248747Y0201371D01*
X0246979Y0201371D01*
X0245345Y0200694D01*
X0244095Y0199444D01*
X0243418Y0197810D01*
X0243418Y0196042D01*
X0244095Y0194408D01*
X0245345Y0193158D01*
X0246979Y0192481D01*
X0248747Y0192481D01*
X0250381Y0193158D01*
X0250422Y0193199D01*
X0250422Y0192848D01*
X0248887Y0191313D01*
X0248747Y0191371D01*
X0246979Y0191371D01*
X0245345Y0190694D01*
X0244095Y0189444D01*
X0243418Y0187810D01*
X0243418Y0186042D01*
X0244095Y0184408D01*
X0245345Y0183158D01*
X0246979Y0182481D01*
X0248747Y0182481D01*
X0249351Y0182731D02*
X0256375Y0182731D01*
X0254198Y0184304D02*
X0251527Y0184304D01*
X0252240Y0185878D02*
X0253486Y0185878D01*
X0253418Y0187451D02*
X0252308Y0187451D01*
X0253324Y0189024D02*
X0253921Y0189024D01*
X0254898Y0190598D02*
X0255249Y0190598D01*
X0255178Y0192171D02*
X0392745Y0192171D01*
X0392745Y0193744D02*
X0260967Y0193744D01*
X0262008Y0195318D02*
X0392745Y0195318D01*
X0392745Y0196891D02*
X0305767Y0196891D01*
X0305322Y0196446D02*
X0306406Y0197530D01*
X0306993Y0198947D01*
X0306993Y0200480D01*
X0306406Y0201897D01*
X0305322Y0202981D01*
X0303905Y0203568D01*
X0302372Y0203568D01*
X0300955Y0202981D01*
X0299871Y0201897D01*
X0299284Y0200480D01*
X0299284Y0198947D01*
X0299871Y0197530D01*
X0300955Y0196446D01*
X0302372Y0195859D01*
X0303905Y0195859D01*
X0305322Y0196446D01*
X0306793Y0198464D02*
X0392745Y0198464D01*
X0392745Y0200038D02*
X0306993Y0200038D01*
X0306524Y0201611D02*
X0392745Y0201611D01*
X0392745Y0203184D02*
X0304831Y0203184D01*
X0301446Y0203184D02*
X0299375Y0203184D01*
X0299375Y0202863D02*
X0299375Y0232733D01*
X0307321Y0240680D01*
X0307855Y0240146D01*
X0306942Y0239233D01*
X0306942Y0231060D01*
X0307855Y0230146D01*
X0306942Y0229233D01*
X0306942Y0221060D01*
X0307915Y0220087D01*
X0307632Y0219923D01*
X0307299Y0219590D01*
X0307064Y0219183D01*
X0306942Y0218728D01*
X0306942Y0215343D01*
X0311879Y0215343D01*
X0311879Y0214950D01*
X0306942Y0214950D01*
X0306942Y0211565D01*
X0307064Y0211110D01*
X0307299Y0210703D01*
X0307632Y0210370D01*
X0308039Y0210134D01*
X0308494Y0210013D01*
X0311879Y0210013D01*
X0311879Y0214950D01*
X0312272Y0214950D01*
X0312272Y0210013D01*
X0315657Y0210013D01*
X0316112Y0210134D01*
X0316520Y0210370D01*
X0316852Y0210703D01*
X0317088Y0211110D01*
X0317209Y0211565D01*
X0317209Y0214799D01*
X0321961Y0210047D01*
X0321961Y0208789D01*
X0322548Y0207373D01*
X0323632Y0206288D01*
X0325049Y0205702D01*
X0326582Y0205702D01*
X0327999Y0206288D01*
X0329083Y0207373D01*
X0329670Y0208789D01*
X0329670Y0210323D01*
X0329083Y0211739D01*
X0328314Y0212509D01*
X0328889Y0213083D01*
X0342428Y0213083D01*
X0343003Y0212509D01*
X0342233Y0211739D01*
X0341646Y0210323D01*
X0341646Y0208789D01*
X0342233Y0207373D01*
X0343317Y0206288D01*
X0344734Y0205702D01*
X0346267Y0205702D01*
X0347684Y0206288D01*
X0348768Y0207373D01*
X0349355Y0208789D01*
X0349355Y0210323D01*
X0348768Y0211739D01*
X0347999Y0212509D01*
X0348574Y0213083D01*
X0362113Y0213083D01*
X0362688Y0212509D01*
X0361918Y0211739D01*
X0361331Y0210323D01*
X0361331Y0208789D01*
X0361918Y0207373D01*
X0363003Y0206288D01*
X0364419Y0205702D01*
X0365952Y0205702D01*
X0367369Y0206288D01*
X0368453Y0207373D01*
X0369040Y0208789D01*
X0369040Y0210323D01*
X0368453Y0211739D01*
X0367684Y0212509D01*
X0368259Y0213083D01*
X0381798Y0213083D01*
X0382373Y0212509D01*
X0381603Y0211739D01*
X0381017Y0210323D01*
X0381017Y0208789D01*
X0381603Y0207373D01*
X0382688Y0206288D01*
X0384104Y0205702D01*
X0385638Y0205702D01*
X0387054Y0206288D01*
X0388138Y0207373D01*
X0388725Y0208789D01*
X0388725Y0210323D01*
X0388138Y0211739D01*
X0387369Y0212509D01*
X0388138Y0213278D01*
X0388725Y0214695D01*
X0388725Y0216228D01*
X0388138Y0217645D01*
X0387369Y0218414D01*
X0388138Y0219184D01*
X0388725Y0220600D01*
X0388725Y0222134D01*
X0388138Y0223550D01*
X0387369Y0224320D01*
X0387865Y0224815D01*
X0388287Y0225447D01*
X0388577Y0226148D01*
X0388725Y0226893D01*
X0388725Y0227272D01*
X0384871Y0227272D01*
X0384871Y0227272D01*
X0381017Y0227272D01*
X0381017Y0226893D01*
X0381165Y0226148D01*
X0381455Y0225447D01*
X0381877Y0224815D01*
X0382373Y0224320D01*
X0381995Y0223942D01*
X0368062Y0223942D01*
X0367684Y0224320D01*
X0368180Y0224815D01*
X0368601Y0225447D01*
X0368892Y0226148D01*
X0369040Y0226893D01*
X0369040Y0227272D01*
X0365186Y0227272D01*
X0365186Y0227272D01*
X0361331Y0227272D01*
X0361331Y0226893D01*
X0361480Y0226148D01*
X0361770Y0225447D01*
X0362192Y0224815D01*
X0362688Y0224320D01*
X0362310Y0223942D01*
X0348377Y0223942D01*
X0347999Y0224320D01*
X0348495Y0224815D01*
X0348916Y0225447D01*
X0349207Y0226148D01*
X0349355Y0226893D01*
X0349355Y0227272D01*
X0345501Y0227272D01*
X0345501Y0227272D01*
X0349355Y0227272D01*
X0349355Y0227652D01*
X0349207Y0228397D01*
X0348916Y0229098D01*
X0348495Y0229729D01*
X0347958Y0230266D01*
X0347326Y0230688D01*
X0346625Y0230979D01*
X0345880Y0231127D01*
X0345501Y0231127D01*
X0345501Y0227273D01*
X0345501Y0227273D01*
X0345501Y0231127D01*
X0345121Y0231127D01*
X0344377Y0230979D01*
X0343675Y0230688D01*
X0343044Y0230266D01*
X0342507Y0229729D01*
X0342085Y0229098D01*
X0341795Y0228397D01*
X0341646Y0227652D01*
X0341646Y0227272D01*
X0341646Y0226893D01*
X0341795Y0226148D01*
X0342085Y0225447D01*
X0342507Y0224815D01*
X0343003Y0224320D01*
X0342625Y0223942D01*
X0328692Y0223942D01*
X0328314Y0224320D01*
X0328810Y0224815D01*
X0329231Y0225447D01*
X0329522Y0226148D01*
X0329670Y0226893D01*
X0329670Y0227272D01*
X0325816Y0227272D01*
X0325816Y0227272D01*
X0329670Y0227272D01*
X0329670Y0227652D01*
X0329522Y0228397D01*
X0329231Y0229098D01*
X0328810Y0229729D01*
X0328273Y0230266D01*
X0327641Y0230688D01*
X0326940Y0230979D01*
X0326195Y0231127D01*
X0325816Y0231127D01*
X0325816Y0227273D01*
X0325816Y0227273D01*
X0325816Y0231127D01*
X0325436Y0231127D01*
X0324691Y0230979D01*
X0323990Y0230688D01*
X0323359Y0230266D01*
X0322822Y0229729D01*
X0322400Y0229098D01*
X0322375Y0229037D01*
X0322375Y0239312D01*
X0321983Y0240259D01*
X0317209Y0245032D01*
X0317209Y0249233D01*
X0316162Y0250280D01*
X0307989Y0250280D01*
X0306942Y0249233D01*
X0306942Y0247434D01*
X0306688Y0247329D01*
X0305964Y0246605D01*
X0294617Y0235259D01*
X0294225Y0234312D01*
X0294225Y0204441D01*
X0293352Y0203568D01*
X0292372Y0203568D01*
X0290955Y0202981D01*
X0289871Y0201897D01*
X0289284Y0200480D01*
X0289284Y0198947D01*
X0289871Y0197530D01*
X0290955Y0196446D01*
X0292372Y0195859D01*
X0293905Y0195859D01*
X0295322Y0196446D01*
X0296406Y0197530D01*
X0296993Y0198947D01*
X0296993Y0199926D01*
X0298259Y0201192D01*
X0298983Y0201916D01*
X0299375Y0202863D01*
X0299753Y0201611D02*
X0298677Y0201611D01*
X0299284Y0200038D02*
X0297104Y0200038D01*
X0296793Y0198464D02*
X0299484Y0198464D01*
X0300510Y0196891D02*
X0295767Y0196891D01*
X0293139Y0199713D02*
X0296800Y0203375D01*
X0296800Y0233800D01*
X0308146Y0245146D01*
X0312076Y0245146D01*
X0313454Y0245146D01*
X0319800Y0238800D01*
X0319800Y0227383D01*
X0325816Y0221367D01*
X0345501Y0221367D01*
X0365186Y0221367D01*
X0384871Y0221367D01*
X0387872Y0218917D02*
X0392745Y0218917D01*
X0392745Y0217344D02*
X0388263Y0217344D01*
X0388725Y0215771D02*
X0392745Y0215771D01*
X0392745Y0214197D02*
X0388519Y0214197D01*
X0387484Y0212624D02*
X0392745Y0212624D01*
X0392745Y0211051D02*
X0388424Y0211051D01*
X0388725Y0209478D02*
X0392745Y0209478D01*
X0392745Y0207904D02*
X0388359Y0207904D01*
X0387097Y0206331D02*
X0392745Y0206331D01*
X0392745Y0204758D02*
X0299375Y0204758D01*
X0299375Y0206331D02*
X0323590Y0206331D01*
X0322328Y0207904D02*
X0299375Y0207904D01*
X0299375Y0209478D02*
X0321961Y0209478D01*
X0320958Y0211051D02*
X0317053Y0211051D01*
X0317209Y0212624D02*
X0319385Y0212624D01*
X0317811Y0214197D02*
X0317209Y0214197D01*
X0312272Y0214197D02*
X0311879Y0214197D01*
X0311879Y0212624D02*
X0312272Y0212624D01*
X0312272Y0211051D02*
X0311879Y0211051D01*
X0307098Y0211051D02*
X0299375Y0211051D01*
X0299375Y0212624D02*
X0306942Y0212624D01*
X0306942Y0214197D02*
X0299375Y0214197D01*
X0299375Y0215771D02*
X0306942Y0215771D01*
X0306942Y0217344D02*
X0299375Y0217344D01*
X0299375Y0218917D02*
X0306992Y0218917D01*
X0307511Y0220491D02*
X0299375Y0220491D01*
X0299375Y0222064D02*
X0306942Y0222064D01*
X0306942Y0223637D02*
X0299375Y0223637D01*
X0299375Y0225211D02*
X0306942Y0225211D01*
X0306942Y0226784D02*
X0299375Y0226784D01*
X0299375Y0228357D02*
X0306942Y0228357D01*
X0307639Y0229931D02*
X0299375Y0229931D01*
X0299375Y0231504D02*
X0306942Y0231504D01*
X0306942Y0233077D02*
X0299719Y0233077D01*
X0301292Y0234651D02*
X0306942Y0234651D01*
X0306942Y0236224D02*
X0302865Y0236224D01*
X0304438Y0237797D02*
X0306942Y0237797D01*
X0307079Y0239370D02*
X0306012Y0239370D01*
X0301876Y0242517D02*
X0287209Y0242517D01*
X0287209Y0244090D02*
X0303449Y0244090D01*
X0305022Y0245664D02*
X0287209Y0245664D01*
X0287209Y0247237D02*
X0306596Y0247237D01*
X0306942Y0248810D02*
X0287209Y0248810D01*
X0287094Y0240944D02*
X0300302Y0240944D01*
X0298729Y0239370D02*
X0287072Y0239370D01*
X0287209Y0237797D02*
X0297156Y0237797D01*
X0295583Y0236224D02*
X0287209Y0236224D01*
X0287209Y0234651D02*
X0294365Y0234651D01*
X0294225Y0233077D02*
X0287209Y0233077D01*
X0287209Y0231504D02*
X0294225Y0231504D01*
X0294225Y0229931D02*
X0286512Y0229931D01*
X0287209Y0228357D02*
X0294225Y0228357D01*
X0294225Y0226784D02*
X0287209Y0226784D01*
X0287209Y0225211D02*
X0294225Y0225211D01*
X0294225Y0223637D02*
X0287209Y0223637D01*
X0287209Y0222064D02*
X0294225Y0222064D01*
X0294225Y0220491D02*
X0286641Y0220491D01*
X0287209Y0218917D02*
X0294225Y0218917D01*
X0294225Y0217344D02*
X0287209Y0217344D01*
X0287209Y0215771D02*
X0294225Y0215771D01*
X0294225Y0214197D02*
X0287209Y0214197D01*
X0287209Y0212624D02*
X0294225Y0212624D01*
X0294225Y0211051D02*
X0287201Y0211051D01*
X0294225Y0209478D02*
X0273777Y0209478D01*
X0275351Y0211051D02*
X0276951Y0211051D01*
X0276924Y0212624D02*
X0276942Y0212624D01*
X0272204Y0207904D02*
X0294225Y0207904D01*
X0294225Y0206331D02*
X0270631Y0206331D01*
X0269057Y0204758D02*
X0294225Y0204758D01*
X0291446Y0203184D02*
X0284831Y0203184D01*
X0285322Y0202981D02*
X0283905Y0203568D01*
X0282372Y0203568D01*
X0280955Y0202981D01*
X0279871Y0201897D01*
X0279284Y0200480D01*
X0279284Y0198947D01*
X0279871Y0197530D01*
X0280955Y0196446D01*
X0282372Y0195859D01*
X0283905Y0195859D01*
X0285322Y0196446D01*
X0286406Y0197530D01*
X0286993Y0198947D01*
X0286993Y0200480D01*
X0286406Y0201897D01*
X0285322Y0202981D01*
X0286524Y0201611D02*
X0289753Y0201611D01*
X0289284Y0200038D02*
X0286993Y0200038D01*
X0286793Y0198464D02*
X0289484Y0198464D01*
X0290510Y0196891D02*
X0285767Y0196891D01*
X0280510Y0196891D02*
X0262308Y0196891D01*
X0262764Y0198464D02*
X0279484Y0198464D01*
X0279284Y0200038D02*
X0264338Y0200038D01*
X0265911Y0201611D02*
X0279753Y0201611D01*
X0281446Y0203184D02*
X0267484Y0203184D01*
X0250422Y0203184D02*
X0250407Y0203184D01*
X0250422Y0201611D02*
X0240398Y0201611D01*
X0240398Y0203184D02*
X0245319Y0203184D01*
X0243950Y0204758D02*
X0240398Y0204758D01*
X0240398Y0206331D02*
X0243418Y0206331D01*
X0243457Y0207904D02*
X0240398Y0207904D01*
X0240398Y0209478D02*
X0244129Y0209478D01*
X0246206Y0211051D02*
X0240398Y0211051D01*
X0240398Y0212624D02*
X0250422Y0212624D01*
X0250422Y0211051D02*
X0249520Y0211051D01*
X0250835Y0214197D02*
X0240398Y0214197D01*
X0240398Y0215771D02*
X0252408Y0215771D01*
X0253981Y0217344D02*
X0240398Y0217344D01*
X0240398Y0218917D02*
X0255554Y0218917D01*
X0257128Y0220491D02*
X0240398Y0220491D01*
X0240398Y0222064D02*
X0258701Y0222064D01*
X0260274Y0223637D02*
X0240398Y0223637D01*
X0240398Y0225211D02*
X0261848Y0225211D01*
X0263421Y0226784D02*
X0240398Y0226784D01*
X0240398Y0228357D02*
X0276942Y0228357D01*
X0277639Y0229931D02*
X0240398Y0229931D01*
X0240398Y0231504D02*
X0276942Y0231504D01*
X0276942Y0233077D02*
X0240398Y0233077D01*
X0240519Y0234651D02*
X0243396Y0234651D01*
X0242147Y0236224D02*
X0241768Y0236224D01*
X0241953Y0239370D02*
X0241962Y0239370D01*
X0242949Y0240944D02*
X0240966Y0240944D01*
X0235075Y0240944D02*
X0233092Y0240944D01*
X0234079Y0239370D02*
X0234088Y0239370D01*
X0227201Y0240944D02*
X0225218Y0240944D01*
X0226205Y0239370D02*
X0226214Y0239370D01*
X0219327Y0240944D02*
X0217344Y0240944D01*
X0218331Y0239370D02*
X0218340Y0239370D01*
X0218146Y0236224D02*
X0218525Y0236224D01*
X0219774Y0234651D02*
X0216897Y0234651D01*
X0219894Y0233077D02*
X0077035Y0233077D01*
X0078042Y0234651D02*
X0075462Y0234651D01*
X0076413Y0236224D02*
X0076793Y0236224D01*
X0076608Y0239370D02*
X0076598Y0239370D01*
X0075611Y0240944D02*
X0077595Y0240944D01*
X0083485Y0240944D02*
X0085469Y0240944D01*
X0084482Y0239370D02*
X0084472Y0239370D01*
X0084287Y0236224D02*
X0084667Y0236224D01*
X0085916Y0234651D02*
X0083039Y0234651D01*
X0078609Y0231504D02*
X0219894Y0231504D01*
X0219894Y0229931D02*
X0080182Y0229931D01*
X0081755Y0228357D02*
X0219894Y0228357D01*
X0219894Y0226784D02*
X0083329Y0226784D01*
X0084902Y0225211D02*
X0219894Y0225211D01*
X0219894Y0223637D02*
X0086475Y0223637D01*
X0088048Y0222064D02*
X0219894Y0222064D01*
X0219894Y0220491D02*
X0089622Y0220491D01*
X0091195Y0218917D02*
X0219894Y0218917D01*
X0219894Y0217344D02*
X0092768Y0217344D01*
X0089189Y0214197D02*
X0088041Y0214197D01*
X0087616Y0215771D02*
X0086468Y0215771D01*
X0086043Y0217344D02*
X0084894Y0217344D01*
X0084469Y0218917D02*
X0083321Y0218917D01*
X0082896Y0220491D02*
X0081748Y0220491D01*
X0081323Y0222064D02*
X0080174Y0222064D01*
X0079749Y0223637D02*
X0078601Y0223637D01*
X0078176Y0225211D02*
X0077028Y0225211D01*
X0076603Y0226784D02*
X0075455Y0226784D01*
X0075029Y0228357D02*
X0073881Y0228357D01*
X0073456Y0229931D02*
X0072308Y0229931D01*
X0071883Y0231504D02*
X0070735Y0231504D01*
X0070309Y0233077D02*
X0069161Y0233077D01*
X0070168Y0234651D02*
X0067588Y0234651D01*
X0068539Y0236224D02*
X0068919Y0236224D01*
X0068734Y0239370D02*
X0068724Y0239370D01*
X0067737Y0240944D02*
X0069721Y0240944D01*
X0061847Y0240944D02*
X0059863Y0240944D01*
X0060850Y0239370D02*
X0060860Y0239370D01*
X0061045Y0236224D02*
X0060665Y0236224D01*
X0059417Y0234651D02*
X0062294Y0234651D01*
X0062435Y0233077D02*
X0021575Y0233077D01*
X0020002Y0231504D02*
X0064009Y0231504D01*
X0065582Y0229931D02*
X0018428Y0229931D01*
X0016855Y0228357D02*
X0067155Y0228357D01*
X0068729Y0226784D02*
X0015282Y0226784D01*
X0013708Y0225211D02*
X0070302Y0225211D01*
X0071875Y0223637D02*
X0012135Y0223637D01*
X0010562Y0222064D02*
X0073449Y0222064D01*
X0075022Y0220491D02*
X0009296Y0220491D01*
X0009296Y0218917D02*
X0018738Y0218917D01*
X0018011Y0218616D02*
X0016833Y0217438D01*
X0016195Y0215899D01*
X0016195Y0209433D01*
X0016833Y0207894D01*
X0018011Y0206716D01*
X0019550Y0206079D01*
X0021216Y0206079D01*
X0022755Y0206716D01*
X0023933Y0207894D01*
X0024570Y0209433D01*
X0024570Y0215899D01*
X0023933Y0217438D01*
X0022755Y0218616D01*
X0021216Y0219254D01*
X0019550Y0219254D01*
X0018011Y0218616D01*
X0016794Y0217344D02*
X0009296Y0217344D01*
X0009296Y0215771D02*
X0016195Y0215771D01*
X0016195Y0214197D02*
X0009296Y0214197D01*
X0009296Y0212624D02*
X0016195Y0212624D01*
X0016195Y0211051D02*
X0009296Y0211051D01*
X0009296Y0209478D02*
X0016195Y0209478D01*
X0016829Y0207904D02*
X0009296Y0207904D01*
X0009296Y0206331D02*
X0018941Y0206331D01*
X0021824Y0206331D02*
X0028941Y0206331D01*
X0029550Y0206079D02*
X0031216Y0206079D01*
X0032755Y0206716D01*
X0033933Y0207894D01*
X0034570Y0209433D01*
X0034570Y0215899D01*
X0033933Y0217438D01*
X0032755Y0218616D01*
X0031216Y0219254D01*
X0029550Y0219254D01*
X0028011Y0218616D01*
X0026833Y0217438D01*
X0026195Y0215899D01*
X0026195Y0209433D01*
X0026833Y0207894D01*
X0028011Y0206716D01*
X0029550Y0206079D01*
X0031824Y0206331D02*
X0038941Y0206331D01*
X0039550Y0206079D02*
X0041216Y0206079D01*
X0042755Y0206716D01*
X0043933Y0207894D01*
X0044570Y0209433D01*
X0044570Y0215899D01*
X0043933Y0217438D01*
X0042755Y0218616D01*
X0041216Y0219254D01*
X0039550Y0219254D01*
X0038011Y0218616D01*
X0036833Y0217438D01*
X0036195Y0215899D01*
X0036195Y0209433D01*
X0036833Y0207894D01*
X0038011Y0206716D01*
X0039550Y0206079D01*
X0041824Y0206331D02*
X0048941Y0206331D01*
X0049550Y0206079D02*
X0051216Y0206079D01*
X0052755Y0206716D01*
X0053933Y0207894D01*
X0054570Y0209433D01*
X0054570Y0215899D01*
X0053933Y0217438D01*
X0052755Y0218616D01*
X0051216Y0219254D01*
X0049550Y0219254D01*
X0048011Y0218616D01*
X0046833Y0217438D01*
X0046195Y0215899D01*
X0046195Y0209433D01*
X0046833Y0207894D01*
X0048011Y0206716D01*
X0049550Y0206079D01*
X0051824Y0206331D02*
X0058941Y0206331D01*
X0059550Y0206079D02*
X0061216Y0206079D01*
X0062755Y0206716D01*
X0063933Y0207894D01*
X0064570Y0209433D01*
X0064570Y0215899D01*
X0063933Y0217438D01*
X0062755Y0218616D01*
X0061216Y0219254D01*
X0059550Y0219254D01*
X0058011Y0218616D01*
X0056833Y0217438D01*
X0056195Y0215899D01*
X0056195Y0209433D01*
X0056833Y0207894D01*
X0058011Y0206716D01*
X0059550Y0206079D01*
X0061824Y0206331D02*
X0089182Y0206331D01*
X0090755Y0204758D02*
X0009296Y0204758D01*
X0009296Y0203184D02*
X0105319Y0203184D01*
X0106979Y0201371D02*
X0105345Y0200694D01*
X0104095Y0199444D01*
X0103418Y0197810D01*
X0103418Y0196042D01*
X0104095Y0194408D01*
X0105345Y0193158D01*
X0106979Y0192481D01*
X0108747Y0192481D01*
X0110381Y0193158D01*
X0111631Y0194408D01*
X0112308Y0196042D01*
X0112308Y0197810D01*
X0111631Y0199444D01*
X0110381Y0200694D01*
X0108747Y0201371D01*
X0106979Y0201371D01*
X0104689Y0200038D02*
X0009296Y0200038D01*
X0009296Y0201611D02*
X0219894Y0201611D01*
X0219894Y0203184D02*
X0120407Y0203184D01*
X0121776Y0204758D02*
X0219894Y0204758D01*
X0219894Y0206331D02*
X0122308Y0206331D01*
X0122269Y0207904D02*
X0219894Y0207904D01*
X0219894Y0209478D02*
X0121597Y0209478D01*
X0119520Y0211051D02*
X0219894Y0211051D01*
X0219894Y0212624D02*
X0115528Y0212624D01*
X0113954Y0214197D02*
X0219894Y0214197D01*
X0219894Y0215771D02*
X0112381Y0215771D01*
X0110375Y0211051D02*
X0109520Y0211051D01*
X0111597Y0209478D02*
X0111949Y0209478D01*
X0112269Y0207904D02*
X0113457Y0207904D01*
X0113418Y0206331D02*
X0112308Y0206331D01*
X0111776Y0204758D02*
X0113950Y0204758D01*
X0115319Y0203184D02*
X0110407Y0203184D01*
X0111037Y0200038D02*
X0114689Y0200038D01*
X0114095Y0199444D02*
X0113418Y0197810D01*
X0113418Y0196042D01*
X0114095Y0194408D01*
X0115345Y0193158D01*
X0116979Y0192481D01*
X0118747Y0192481D01*
X0120381Y0193158D01*
X0121631Y0194408D01*
X0122308Y0196042D01*
X0122308Y0197810D01*
X0121631Y0199444D01*
X0120381Y0200694D01*
X0118747Y0201371D01*
X0116979Y0201371D01*
X0115345Y0200694D01*
X0114095Y0199444D01*
X0113689Y0198464D02*
X0112037Y0198464D01*
X0112308Y0196891D02*
X0113418Y0196891D01*
X0113718Y0195318D02*
X0112008Y0195318D01*
X0110967Y0193744D02*
X0114759Y0193744D01*
X0115345Y0190694D02*
X0114095Y0189444D01*
X0113418Y0187810D01*
X0113418Y0186042D01*
X0114095Y0184408D01*
X0115345Y0183158D01*
X0116979Y0182481D01*
X0118747Y0182481D01*
X0120381Y0183158D01*
X0121631Y0184408D01*
X0122308Y0186042D01*
X0122308Y0187810D01*
X0121631Y0189444D01*
X0120381Y0190694D01*
X0118747Y0191371D01*
X0116979Y0191371D01*
X0115345Y0190694D01*
X0115249Y0190598D02*
X0110477Y0190598D01*
X0110381Y0190694D02*
X0108747Y0191371D01*
X0106979Y0191371D01*
X0105345Y0190694D01*
X0104095Y0189444D01*
X0103418Y0187810D01*
X0103418Y0186042D01*
X0104095Y0184408D01*
X0105345Y0183158D01*
X0106979Y0182481D01*
X0108747Y0182481D01*
X0110381Y0183158D01*
X0111631Y0184408D01*
X0112308Y0186042D01*
X0112308Y0187810D01*
X0111631Y0189444D01*
X0110381Y0190694D01*
X0111805Y0189024D02*
X0113921Y0189024D01*
X0113418Y0187451D02*
X0112308Y0187451D01*
X0112240Y0185878D02*
X0113486Y0185878D01*
X0114198Y0184304D02*
X0111527Y0184304D01*
X0109351Y0182731D02*
X0116375Y0182731D01*
X0116465Y0181158D02*
X0109261Y0181158D01*
X0111490Y0179585D02*
X0114236Y0179585D01*
X0113501Y0178011D02*
X0112225Y0178011D01*
X0112308Y0176438D02*
X0113418Y0176438D01*
X0113906Y0174865D02*
X0111820Y0174865D01*
X0108355Y0171718D02*
X0022587Y0171718D01*
X0023627Y0170145D02*
X0104796Y0170145D01*
X0105212Y0173291D02*
X0021547Y0173291D01*
X0021407Y0173502D02*
X0021698Y0174203D01*
X0021698Y0175854D01*
X0021066Y0177379D01*
X0019899Y0178546D01*
X0018373Y0179178D01*
X0016723Y0179178D01*
X0015197Y0178546D01*
X0014030Y0177379D01*
X0013398Y0175854D01*
X0013398Y0174203D01*
X0014030Y0172678D01*
X0015197Y0171510D01*
X0016723Y0170879D01*
X0017440Y0170879D01*
X0030524Y0151085D01*
X0030524Y0150815D01*
X0031051Y0150288D01*
X0031462Y0149667D01*
X0031726Y0149613D01*
X0031917Y0149422D01*
X0032662Y0149422D01*
X0033392Y0149273D01*
X0033617Y0149422D01*
X0104086Y0149422D01*
X0103418Y0147810D01*
X0103418Y0146042D01*
X0104095Y0144408D01*
X0105345Y0143158D01*
X0106979Y0142481D01*
X0108747Y0142481D01*
X0110381Y0143158D01*
X0111631Y0144408D01*
X0112308Y0146042D01*
X0112308Y0147810D01*
X0111640Y0149422D01*
X0113722Y0149422D01*
X0116839Y0152539D01*
X0116979Y0152481D01*
X0118747Y0152481D01*
X0120381Y0153158D01*
X0121631Y0154408D01*
X0122308Y0156042D01*
X0122308Y0157810D01*
X0121631Y0159444D01*
X0120381Y0160694D01*
X0118747Y0161371D01*
X0116979Y0161371D01*
X0115345Y0160694D01*
X0114095Y0159444D01*
X0113418Y0157810D01*
X0113418Y0156042D01*
X0113476Y0155902D01*
X0111752Y0154178D01*
X0111401Y0154178D01*
X0111631Y0154408D01*
X0112308Y0156042D01*
X0112308Y0157810D01*
X0111631Y0159444D01*
X0110381Y0160694D01*
X0108747Y0161371D01*
X0106979Y0161371D01*
X0105345Y0160694D01*
X0104095Y0159444D01*
X0103418Y0157810D01*
X0103418Y0156042D01*
X0104095Y0154408D01*
X0104325Y0154178D01*
X0034181Y0154178D01*
X0021407Y0173502D01*
X0021698Y0174865D02*
X0103906Y0174865D01*
X0103418Y0176438D02*
X0021456Y0176438D01*
X0020434Y0178011D02*
X0103501Y0178011D01*
X0104236Y0179585D02*
X0009296Y0179585D01*
X0009296Y0181158D02*
X0106465Y0181158D01*
X0106375Y0182731D02*
X0009296Y0182731D01*
X0009296Y0184304D02*
X0104198Y0184304D01*
X0103486Y0185878D02*
X0009296Y0185878D01*
X0009296Y0187451D02*
X0015005Y0187451D01*
X0015197Y0187259D02*
X0016723Y0186627D01*
X0018373Y0186627D01*
X0019899Y0187259D01*
X0021066Y0188426D01*
X0021698Y0189951D01*
X0021698Y0191602D01*
X0021066Y0193127D01*
X0019899Y0194294D01*
X0018373Y0194926D01*
X0016723Y0194926D01*
X0015197Y0194294D01*
X0014030Y0193127D01*
X0013398Y0191602D01*
X0013398Y0189951D01*
X0014030Y0188426D01*
X0015197Y0187259D01*
X0013782Y0189024D02*
X0009296Y0189024D01*
X0009296Y0190598D02*
X0013398Y0190598D01*
X0013634Y0192171D02*
X0009296Y0192171D01*
X0009296Y0193744D02*
X0014648Y0193744D01*
X0009296Y0195318D02*
X0103718Y0195318D01*
X0103418Y0196891D02*
X0009296Y0196891D01*
X0009296Y0198464D02*
X0103689Y0198464D01*
X0104759Y0193744D02*
X0020448Y0193744D01*
X0021462Y0192171D02*
X0219894Y0192171D01*
X0219894Y0190598D02*
X0120477Y0190598D01*
X0121805Y0189024D02*
X0219894Y0189024D01*
X0219894Y0187451D02*
X0122308Y0187451D01*
X0122240Y0185878D02*
X0219894Y0185878D01*
X0219894Y0184304D02*
X0121527Y0184304D01*
X0119351Y0182731D02*
X0219894Y0182731D01*
X0219894Y0181158D02*
X0119261Y0181158D01*
X0121490Y0179585D02*
X0219894Y0179585D01*
X0219894Y0178011D02*
X0122225Y0178011D01*
X0122308Y0176438D02*
X0219075Y0176438D01*
X0217502Y0174865D02*
X0121820Y0174865D01*
X0113733Y0168571D02*
X0111993Y0168571D01*
X0112308Y0166998D02*
X0113418Y0166998D01*
X0113674Y0165425D02*
X0112052Y0165425D01*
X0111074Y0163851D02*
X0114652Y0163851D01*
X0115371Y0160705D02*
X0110355Y0160705D01*
X0111761Y0159131D02*
X0113965Y0159131D01*
X0113418Y0157558D02*
X0112308Y0157558D01*
X0112284Y0155985D02*
X0113442Y0155985D01*
X0111986Y0154412D02*
X0111633Y0154412D01*
X0115565Y0151265D02*
X0116723Y0151265D01*
X0116979Y0151371D02*
X0115345Y0150694D01*
X0114095Y0149444D01*
X0113418Y0147810D01*
X0113418Y0146042D01*
X0114095Y0144408D01*
X0115345Y0143158D01*
X0116979Y0142481D01*
X0118747Y0142481D01*
X0120381Y0143158D01*
X0121631Y0144408D01*
X0122308Y0146042D01*
X0122308Y0147810D01*
X0121631Y0149444D01*
X0120381Y0150694D01*
X0118747Y0151371D01*
X0116979Y0151371D01*
X0119003Y0151265D02*
X0165972Y0151265D01*
X0164399Y0152838D02*
X0119609Y0152838D01*
X0121633Y0154412D02*
X0162826Y0154412D01*
X0161252Y0155985D02*
X0122284Y0155985D01*
X0122308Y0157558D02*
X0159679Y0157558D01*
X0158106Y0159131D02*
X0121761Y0159131D01*
X0120355Y0160705D02*
X0156532Y0160705D01*
X0154959Y0162278D02*
X0028827Y0162278D01*
X0029867Y0160705D02*
X0105371Y0160705D01*
X0103965Y0159131D02*
X0030907Y0159131D01*
X0031947Y0157558D02*
X0103418Y0157558D01*
X0103442Y0155985D02*
X0032987Y0155985D01*
X0034027Y0154412D02*
X0104093Y0154412D01*
X0103546Y0148118D02*
X0020082Y0148118D01*
X0020251Y0148241D02*
X0020713Y0148703D01*
X0021097Y0149231D01*
X0021394Y0149813D01*
X0021595Y0150435D01*
X0021698Y0151080D01*
X0021698Y0151406D01*
X0017548Y0151406D01*
X0017548Y0151406D01*
X0017548Y0147257D01*
X0017875Y0147257D01*
X0018520Y0147359D01*
X0019141Y0147561D01*
X0019723Y0147857D01*
X0020251Y0148241D01*
X0021332Y0149692D02*
X0031446Y0149692D01*
X0030406Y0151265D02*
X0021698Y0151265D01*
X0021698Y0151406D02*
X0021698Y0151733D01*
X0021595Y0152378D01*
X0021394Y0152999D01*
X0021097Y0153581D01*
X0020713Y0154110D01*
X0020251Y0154571D01*
X0019723Y0154955D01*
X0019141Y0155252D01*
X0018520Y0155454D01*
X0017875Y0155556D01*
X0017548Y0155556D01*
X0017221Y0155556D01*
X0016576Y0155454D01*
X0015955Y0155252D01*
X0015373Y0154955D01*
X0014845Y0154571D01*
X0014383Y0154110D01*
X0013999Y0153581D01*
X0013702Y0152999D01*
X0013501Y0152378D01*
X0013398Y0151733D01*
X0013398Y0151406D01*
X0013398Y0151080D01*
X0013501Y0150435D01*
X0013702Y0149813D01*
X0013999Y0149231D01*
X0014383Y0148703D01*
X0014845Y0148241D01*
X0015373Y0147857D01*
X0015955Y0147561D01*
X0016576Y0147359D01*
X0017221Y0147257D01*
X0017548Y0147257D01*
X0017548Y0151406D01*
X0013398Y0151406D01*
X0017548Y0151406D01*
X0017548Y0151406D01*
X0017548Y0151406D01*
X0021698Y0151406D01*
X0021446Y0152838D02*
X0029366Y0152838D01*
X0028326Y0154412D02*
X0020411Y0154412D01*
X0017548Y0154412D02*
X0017548Y0154412D01*
X0017548Y0155556D02*
X0017548Y0151406D01*
X0017548Y0151406D01*
X0017548Y0155556D01*
X0017548Y0152838D02*
X0017548Y0152838D01*
X0017548Y0151265D02*
X0017548Y0151265D01*
X0017548Y0149692D02*
X0017548Y0149692D01*
X0017548Y0148118D02*
X0017548Y0148118D01*
X0015014Y0148118D02*
X0009296Y0148118D01*
X0009296Y0146545D02*
X0103418Y0146545D01*
X0103861Y0144972D02*
X0009296Y0144972D01*
X0009296Y0143398D02*
X0105105Y0143398D01*
X0105345Y0140694D02*
X0104095Y0139444D01*
X0103418Y0137810D01*
X0103418Y0136042D01*
X0104095Y0134408D01*
X0105345Y0133158D01*
X0106979Y0132481D01*
X0108747Y0132481D01*
X0110381Y0133158D01*
X0111631Y0134408D01*
X0112308Y0136042D01*
X0112308Y0137810D01*
X0111631Y0139444D01*
X0110381Y0140694D01*
X0108747Y0141371D01*
X0106979Y0141371D01*
X0105345Y0140694D01*
X0104903Y0140252D02*
X0009296Y0140252D01*
X0009296Y0141825D02*
X0175412Y0141825D01*
X0176635Y0140252D02*
X0120823Y0140252D01*
X0120381Y0140694D02*
X0118747Y0141371D01*
X0116979Y0141371D01*
X0115345Y0140694D01*
X0114095Y0139444D01*
X0113418Y0137810D01*
X0113418Y0136042D01*
X0114095Y0134408D01*
X0115345Y0133158D01*
X0116979Y0132481D01*
X0118747Y0132481D01*
X0120381Y0133158D01*
X0121631Y0134408D01*
X0122308Y0136042D01*
X0122308Y0137810D01*
X0121631Y0139444D01*
X0120381Y0140694D01*
X0121948Y0138678D02*
X0177445Y0138678D01*
X0179742Y0137105D02*
X0122308Y0137105D01*
X0122097Y0135532D02*
X0178169Y0135532D01*
X0173839Y0143398D02*
X0120621Y0143398D01*
X0121865Y0144972D02*
X0172265Y0144972D01*
X0170692Y0146545D02*
X0122308Y0146545D01*
X0122180Y0148118D02*
X0169119Y0148118D01*
X0167545Y0149692D02*
X0121383Y0149692D01*
X0114343Y0149692D02*
X0113991Y0149692D01*
X0113546Y0148118D02*
X0112180Y0148118D01*
X0112308Y0146545D02*
X0113418Y0146545D01*
X0113861Y0144972D02*
X0111865Y0144972D01*
X0110621Y0143398D02*
X0115105Y0143398D01*
X0114903Y0140252D02*
X0110823Y0140252D01*
X0111948Y0138678D02*
X0113778Y0138678D01*
X0113418Y0137105D02*
X0112308Y0137105D01*
X0112097Y0135532D02*
X0113629Y0135532D01*
X0114545Y0133958D02*
X0111181Y0133958D01*
X0110097Y0130812D02*
X0115629Y0130812D01*
X0115345Y0130694D02*
X0114095Y0129444D01*
X0113418Y0127810D01*
X0113418Y0126042D01*
X0114095Y0124408D01*
X0115345Y0123158D01*
X0116979Y0122481D01*
X0118747Y0122481D01*
X0120381Y0123158D01*
X0121631Y0124408D01*
X0122308Y0126042D01*
X0122308Y0127810D01*
X0121631Y0129444D01*
X0120381Y0130694D01*
X0118747Y0131371D01*
X0116979Y0131371D01*
X0115345Y0130694D01*
X0114010Y0129238D02*
X0111716Y0129238D01*
X0111631Y0129444D02*
X0110381Y0130694D01*
X0108747Y0131371D01*
X0106979Y0131371D01*
X0105345Y0130694D01*
X0104095Y0129444D01*
X0103418Y0127810D01*
X0103418Y0126042D01*
X0104095Y0124408D01*
X0105345Y0123158D01*
X0106979Y0122481D01*
X0108747Y0122481D01*
X0110381Y0123158D01*
X0111631Y0124408D01*
X0112308Y0126042D01*
X0112308Y0127810D01*
X0111631Y0129444D01*
X0112308Y0127665D02*
X0113418Y0127665D01*
X0113418Y0126092D02*
X0112308Y0126092D01*
X0111677Y0124519D02*
X0114049Y0124519D01*
X0115858Y0122945D02*
X0109868Y0122945D01*
X0108747Y0121371D02*
X0106979Y0121371D01*
X0105345Y0120694D01*
X0104095Y0119444D01*
X0103418Y0117810D01*
X0103418Y0116042D01*
X0104095Y0114408D01*
X0105345Y0113158D01*
X0106979Y0112481D01*
X0108747Y0112481D01*
X0110381Y0113158D01*
X0111631Y0114408D01*
X0112308Y0116042D01*
X0112308Y0117810D01*
X0111631Y0119444D01*
X0110381Y0120694D01*
X0108747Y0121371D01*
X0111276Y0119799D02*
X0114450Y0119799D01*
X0114095Y0119444D02*
X0113418Y0117810D01*
X0113418Y0116042D01*
X0114095Y0114408D01*
X0115345Y0113158D01*
X0116979Y0112481D01*
X0118747Y0112481D01*
X0120381Y0113158D01*
X0121631Y0114408D01*
X0122308Y0116042D01*
X0122308Y0117810D01*
X0121631Y0119444D01*
X0120381Y0120694D01*
X0118747Y0121371D01*
X0116979Y0121371D01*
X0115345Y0120694D01*
X0114095Y0119444D01*
X0113590Y0118225D02*
X0112136Y0118225D01*
X0112308Y0116652D02*
X0113418Y0116652D01*
X0113817Y0115079D02*
X0111909Y0115079D01*
X0110728Y0113505D02*
X0114998Y0113505D01*
X0115345Y0110694D02*
X0114095Y0109444D01*
X0113418Y0107810D01*
X0113418Y0106042D01*
X0114095Y0104408D01*
X0115345Y0103158D01*
X0116979Y0102481D01*
X0118747Y0102481D01*
X0120381Y0103158D01*
X0121631Y0104408D01*
X0122308Y0106042D01*
X0122308Y0107810D01*
X0121631Y0109444D01*
X0120381Y0110694D01*
X0118747Y0111371D01*
X0116979Y0111371D01*
X0115345Y0110694D01*
X0115010Y0110359D02*
X0110716Y0110359D01*
X0110381Y0110694D02*
X0108747Y0111371D01*
X0106979Y0111371D01*
X0105345Y0110694D01*
X0104095Y0109444D01*
X0103418Y0107810D01*
X0103418Y0106042D01*
X0104095Y0104408D01*
X0105345Y0103158D01*
X0106979Y0102481D01*
X0108747Y0102481D01*
X0110381Y0103158D01*
X0111631Y0104408D01*
X0112308Y0106042D01*
X0112308Y0107810D01*
X0111631Y0109444D01*
X0110381Y0110694D01*
X0111904Y0108785D02*
X0113822Y0108785D01*
X0113418Y0107212D02*
X0112308Y0107212D01*
X0112141Y0105639D02*
X0113585Y0105639D01*
X0114438Y0104065D02*
X0111288Y0104065D01*
X0108774Y0102492D02*
X0116952Y0102492D01*
X0118774Y0102492D02*
X0131129Y0102492D01*
X0129556Y0100919D02*
X0119838Y0100919D01*
X0121672Y0099345D02*
X0127983Y0099345D01*
X0126409Y0097772D02*
X0122308Y0097772D01*
X0122308Y0096199D02*
X0124836Y0096199D01*
X0123263Y0094626D02*
X0121721Y0094626D01*
X0114005Y0094626D02*
X0111721Y0094626D01*
X0111631Y0094408D02*
X0112308Y0096042D01*
X0112308Y0097810D01*
X0111631Y0099444D01*
X0110381Y0100694D01*
X0108747Y0101371D01*
X0106979Y0101371D01*
X0105345Y0100694D01*
X0104095Y0099444D01*
X0103418Y0097810D01*
X0103418Y0096042D01*
X0104095Y0094408D01*
X0105345Y0093158D01*
X0106979Y0092481D01*
X0108747Y0092481D01*
X0110381Y0093158D01*
X0111631Y0094408D01*
X0110626Y0093052D02*
X0110126Y0093052D01*
X0109053Y0091479D02*
X0083563Y0091479D01*
X0083607Y0093052D02*
X0105600Y0093052D01*
X0104005Y0094626D02*
X0082929Y0094626D01*
X0083072Y0096199D02*
X0103418Y0096199D01*
X0103418Y0097772D02*
X0083607Y0097772D01*
X0083474Y0099345D02*
X0104054Y0099345D01*
X0105888Y0100919D02*
X0082541Y0100919D01*
X0083233Y0102492D02*
X0106952Y0102492D01*
X0104438Y0104065D02*
X0083607Y0104065D01*
X0083313Y0105639D02*
X0103585Y0105639D01*
X0103418Y0107212D02*
X0082126Y0107212D01*
X0079753Y0107212D02*
X0079753Y0107212D01*
X0079753Y0108017D02*
X0079373Y0108017D01*
X0078628Y0107868D01*
X0077927Y0107578D01*
X0077296Y0107156D01*
X0076759Y0106619D01*
X0076337Y0105988D01*
X0076047Y0105286D01*
X0075898Y0104542D01*
X0075898Y0104162D01*
X0079753Y0104162D01*
X0079753Y0104162D01*
X0079753Y0108017D01*
X0079753Y0105639D02*
X0079753Y0105639D01*
X0077380Y0107212D02*
X0060472Y0107212D01*
X0060556Y0107156D02*
X0059925Y0107578D01*
X0059223Y0107868D01*
X0058479Y0108017D01*
X0058099Y0108017D01*
X0057720Y0108017D01*
X0056975Y0107868D01*
X0056273Y0107578D01*
X0055642Y0107156D01*
X0055105Y0106619D01*
X0054684Y0105988D01*
X0054393Y0105286D01*
X0054245Y0104542D01*
X0054245Y0104162D01*
X0058099Y0104162D01*
X0058099Y0104162D01*
X0058099Y0108017D01*
X0058099Y0104162D01*
X0058099Y0104162D01*
X0058099Y0104162D01*
X0061954Y0104162D01*
X0061954Y0104542D01*
X0061805Y0105286D01*
X0061515Y0105988D01*
X0061093Y0106619D01*
X0060556Y0107156D01*
X0061659Y0105639D02*
X0076192Y0105639D01*
X0075898Y0104065D02*
X0061954Y0104065D01*
X0061579Y0102492D02*
X0076273Y0102492D01*
X0076747Y0089906D02*
X0061104Y0089906D01*
X0061490Y0088332D02*
X0076362Y0088332D01*
X0075898Y0086759D02*
X0061954Y0086759D01*
X0061749Y0085186D02*
X0076103Y0085186D01*
X0077135Y0083612D02*
X0060717Y0083612D01*
X0055482Y0083612D02*
X0039063Y0083612D01*
X0040096Y0085186D02*
X0054449Y0085186D01*
X0054245Y0086759D02*
X0040300Y0086759D01*
X0039836Y0088332D02*
X0054709Y0088332D01*
X0055094Y0089906D02*
X0039451Y0089906D01*
X0033440Y0089906D02*
X0031737Y0089906D01*
X0031737Y0088332D02*
X0033055Y0088332D01*
X0032591Y0086759D02*
X0031737Y0086759D01*
X0031737Y0085186D02*
X0032796Y0085186D01*
X0033828Y0083612D02*
X0031737Y0083612D01*
X0031737Y0082039D02*
X0109613Y0082039D01*
X0110835Y0083612D02*
X0111186Y0083612D01*
X0111953Y0085186D02*
X0113773Y0085186D01*
X0113418Y0086759D02*
X0112308Y0086759D01*
X0112632Y0088332D02*
X0113634Y0088332D01*
X0104557Y0089906D02*
X0082758Y0089906D01*
X0083143Y0088332D02*
X0103634Y0088332D01*
X0103418Y0086759D02*
X0083607Y0086759D01*
X0083403Y0085186D02*
X0103773Y0085186D01*
X0104891Y0083612D02*
X0082370Y0083612D01*
X0103418Y0077319D02*
X0031737Y0077319D01*
X0031737Y0075746D02*
X0103541Y0075746D01*
X0104330Y0074172D02*
X0031737Y0074172D01*
X0031737Y0078892D02*
X0103866Y0078892D01*
X0105117Y0080466D02*
X0031737Y0080466D01*
X0032966Y0102492D02*
X0018272Y0102492D01*
X0018646Y0104065D02*
X0032591Y0104065D01*
X0032591Y0104162D02*
X0036446Y0104162D01*
X0036446Y0104162D01*
X0036446Y0108017D01*
X0036066Y0108017D01*
X0035321Y0107868D01*
X0034620Y0107578D01*
X0033989Y0107156D01*
X0033452Y0106619D01*
X0033030Y0105988D01*
X0032739Y0105286D01*
X0032591Y0104542D01*
X0032591Y0104162D01*
X0032885Y0105639D02*
X0018352Y0105639D01*
X0018208Y0105988D02*
X0017786Y0106619D01*
X0017249Y0107156D01*
X0016618Y0107578D01*
X0015916Y0107868D01*
X0015172Y0108017D01*
X0014792Y0108017D01*
X0014412Y0108017D01*
X0013668Y0107868D01*
X0012966Y0107578D01*
X0012335Y0107156D01*
X0011798Y0106619D01*
X0011376Y0105988D01*
X0011086Y0105286D01*
X0010938Y0104542D01*
X0010938Y0104162D01*
X0014792Y0104162D01*
X0014792Y0104162D01*
X0014792Y0104162D01*
X0014792Y0108017D01*
X0014792Y0104162D01*
X0014792Y0104162D01*
X0018646Y0104162D01*
X0018646Y0104542D01*
X0018498Y0105286D01*
X0018208Y0105988D01*
X0017165Y0107212D02*
X0034073Y0107212D01*
X0036446Y0107212D02*
X0036446Y0107212D01*
X0036446Y0105639D02*
X0036446Y0105639D01*
X0038819Y0107212D02*
X0055726Y0107212D01*
X0054539Y0105639D02*
X0040006Y0105639D01*
X0040300Y0104065D02*
X0054245Y0104065D01*
X0054619Y0102492D02*
X0039926Y0102492D01*
X0058099Y0105639D02*
X0058099Y0105639D01*
X0058099Y0107212D02*
X0058099Y0107212D01*
X0059550Y0126079D02*
X0061216Y0126079D01*
X0062755Y0126716D01*
X0063933Y0127894D01*
X0064570Y0129433D01*
X0064570Y0135899D01*
X0063933Y0137438D01*
X0062755Y0138616D01*
X0061216Y0139254D01*
X0059550Y0139254D01*
X0058011Y0138616D01*
X0056833Y0137438D01*
X0056195Y0135899D01*
X0056195Y0129433D01*
X0056833Y0127894D01*
X0058011Y0126716D01*
X0059550Y0126079D01*
X0059518Y0126092D02*
X0051247Y0126092D01*
X0051216Y0126079D02*
X0052755Y0126716D01*
X0053933Y0127894D01*
X0054570Y0129433D01*
X0054570Y0135899D01*
X0053933Y0137438D01*
X0052755Y0138616D01*
X0051216Y0139254D01*
X0049550Y0139254D01*
X0048011Y0138616D01*
X0046833Y0137438D01*
X0046195Y0135899D01*
X0046195Y0129433D01*
X0046833Y0127894D01*
X0048011Y0126716D01*
X0049550Y0126079D01*
X0051216Y0126079D01*
X0049518Y0126092D02*
X0040795Y0126092D01*
X0040712Y0126079D02*
X0041363Y0126182D01*
X0041990Y0126386D01*
X0042577Y0126685D01*
X0043111Y0127072D01*
X0043577Y0127538D01*
X0043964Y0128071D01*
X0044263Y0128659D01*
X0044467Y0129286D01*
X0044570Y0129937D01*
X0044570Y0132654D01*
X0040395Y0132654D01*
X0040395Y0132679D01*
X0040370Y0132679D01*
X0040370Y0139254D01*
X0040053Y0139254D01*
X0039402Y0139150D01*
X0038775Y0138947D01*
X0038188Y0138648D01*
X0037655Y0138260D01*
X0037189Y0137794D01*
X0036801Y0137261D01*
X0036502Y0136674D01*
X0036298Y0136047D01*
X0036195Y0135396D01*
X0036195Y0132679D01*
X0040370Y0132679D01*
X0040370Y0132654D01*
X0036195Y0132654D01*
X0036195Y0129937D01*
X0036298Y0129286D01*
X0036502Y0128659D01*
X0036801Y0128071D01*
X0037189Y0127538D01*
X0037655Y0127072D01*
X0038188Y0126685D01*
X0038775Y0126386D01*
X0039402Y0126182D01*
X0040053Y0126079D01*
X0040370Y0126079D01*
X0040370Y0132653D01*
X0040395Y0132653D01*
X0040395Y0126079D01*
X0040712Y0126079D01*
X0040395Y0126092D02*
X0040370Y0126092D01*
X0039970Y0126092D02*
X0031247Y0126092D01*
X0031216Y0126079D02*
X0032755Y0126716D01*
X0033933Y0127894D01*
X0034570Y0129433D01*
X0034570Y0135899D01*
X0033933Y0137438D01*
X0032755Y0138616D01*
X0031216Y0139254D01*
X0029550Y0139254D01*
X0028011Y0138616D01*
X0026833Y0137438D01*
X0026195Y0135899D01*
X0026195Y0129433D01*
X0026833Y0127894D01*
X0028011Y0126716D01*
X0029550Y0126079D01*
X0031216Y0126079D01*
X0029518Y0126092D02*
X0021247Y0126092D01*
X0021216Y0126079D02*
X0022755Y0126716D01*
X0023933Y0127894D01*
X0024570Y0129433D01*
X0024570Y0135899D01*
X0023933Y0137438D01*
X0022755Y0138616D01*
X0021216Y0139254D01*
X0019550Y0139254D01*
X0018011Y0138616D01*
X0016833Y0137438D01*
X0016195Y0135899D01*
X0016195Y0129433D01*
X0016833Y0127894D01*
X0018011Y0126716D01*
X0019550Y0126079D01*
X0021216Y0126079D01*
X0019518Y0126092D02*
X0009296Y0126092D01*
X0009296Y0127665D02*
X0017062Y0127665D01*
X0016276Y0129238D02*
X0009296Y0129238D01*
X0009296Y0130812D02*
X0016195Y0130812D01*
X0016195Y0132385D02*
X0009296Y0132385D01*
X0009296Y0133958D02*
X0016195Y0133958D01*
X0016195Y0135532D02*
X0009296Y0135532D01*
X0009296Y0137105D02*
X0016695Y0137105D01*
X0018161Y0138678D02*
X0009296Y0138678D01*
X0022604Y0138678D02*
X0028161Y0138678D01*
X0026695Y0137105D02*
X0024071Y0137105D01*
X0024570Y0135532D02*
X0026195Y0135532D01*
X0026195Y0133958D02*
X0024570Y0133958D01*
X0024570Y0132385D02*
X0026195Y0132385D01*
X0026195Y0130812D02*
X0024570Y0130812D01*
X0024489Y0129238D02*
X0026276Y0129238D01*
X0027062Y0127665D02*
X0023704Y0127665D01*
X0033704Y0127665D02*
X0037096Y0127665D01*
X0036314Y0129238D02*
X0034489Y0129238D01*
X0034570Y0130812D02*
X0036195Y0130812D01*
X0036195Y0132385D02*
X0034570Y0132385D01*
X0034570Y0133958D02*
X0036195Y0133958D01*
X0036217Y0135532D02*
X0034570Y0135532D01*
X0034071Y0137105D02*
X0036722Y0137105D01*
X0038249Y0138678D02*
X0032604Y0138678D01*
X0040370Y0138678D02*
X0040395Y0138678D01*
X0040395Y0139254D02*
X0040395Y0132679D01*
X0044570Y0132679D01*
X0044570Y0135396D01*
X0044467Y0136047D01*
X0044263Y0136674D01*
X0043964Y0137261D01*
X0043577Y0137794D01*
X0043111Y0138260D01*
X0042577Y0138648D01*
X0041990Y0138947D01*
X0041363Y0139150D01*
X0040712Y0139254D01*
X0040395Y0139254D01*
X0040370Y0137105D02*
X0040395Y0137105D01*
X0040370Y0135532D02*
X0040395Y0135532D01*
X0040370Y0133958D02*
X0040395Y0133958D01*
X0040370Y0132385D02*
X0040395Y0132385D01*
X0040370Y0130812D02*
X0040395Y0130812D01*
X0040370Y0129238D02*
X0040395Y0129238D01*
X0040370Y0127665D02*
X0040395Y0127665D01*
X0043669Y0127665D02*
X0047062Y0127665D01*
X0046276Y0129238D02*
X0044452Y0129238D01*
X0044570Y0130812D02*
X0046195Y0130812D01*
X0046195Y0132385D02*
X0044570Y0132385D01*
X0044570Y0133958D02*
X0046195Y0133958D01*
X0046195Y0135532D02*
X0044549Y0135532D01*
X0044043Y0137105D02*
X0046695Y0137105D01*
X0048161Y0138678D02*
X0042517Y0138678D01*
X0052604Y0138678D02*
X0058161Y0138678D01*
X0056695Y0137105D02*
X0054071Y0137105D01*
X0054570Y0135532D02*
X0056195Y0135532D01*
X0056195Y0133958D02*
X0054570Y0133958D01*
X0054570Y0132385D02*
X0056195Y0132385D01*
X0056195Y0130812D02*
X0054570Y0130812D01*
X0054489Y0129238D02*
X0056276Y0129238D01*
X0057062Y0127665D02*
X0053704Y0127665D01*
X0061247Y0126092D02*
X0103418Y0126092D01*
X0103418Y0127665D02*
X0063704Y0127665D01*
X0064489Y0129238D02*
X0104010Y0129238D01*
X0105629Y0130812D02*
X0064570Y0130812D01*
X0064570Y0132385D02*
X0161022Y0132385D01*
X0159449Y0130812D02*
X0120097Y0130812D01*
X0121716Y0129238D02*
X0157876Y0129238D01*
X0156302Y0127665D02*
X0122308Y0127665D01*
X0122308Y0126092D02*
X0154729Y0126092D01*
X0153156Y0124519D02*
X0121677Y0124519D01*
X0119868Y0122945D02*
X0151582Y0122945D01*
X0150009Y0121372D02*
X0009296Y0121372D01*
X0009296Y0122945D02*
X0105858Y0122945D01*
X0104049Y0124519D02*
X0009296Y0124519D01*
X0009296Y0119799D02*
X0104450Y0119799D01*
X0103590Y0118225D02*
X0009296Y0118225D01*
X0009296Y0116652D02*
X0103418Y0116652D01*
X0103817Y0115079D02*
X0009296Y0115079D01*
X0009296Y0113505D02*
X0104998Y0113505D01*
X0105010Y0110359D02*
X0009296Y0110359D01*
X0009296Y0111932D02*
X0140569Y0111932D01*
X0138996Y0110359D02*
X0120716Y0110359D01*
X0121904Y0108785D02*
X0137422Y0108785D01*
X0135849Y0107212D02*
X0122308Y0107212D01*
X0122141Y0105639D02*
X0134276Y0105639D01*
X0132703Y0104065D02*
X0121288Y0104065D01*
X0115888Y0100919D02*
X0109838Y0100919D01*
X0111672Y0099345D02*
X0114054Y0099345D01*
X0113418Y0097772D02*
X0112308Y0097772D01*
X0112308Y0096199D02*
X0113418Y0096199D01*
X0103822Y0108785D02*
X0009296Y0108785D01*
X0009296Y0107212D02*
X0012419Y0107212D01*
X0011232Y0105639D02*
X0009296Y0105639D01*
X0009296Y0104065D02*
X0010938Y0104065D01*
X0011312Y0102492D02*
X0009296Y0102492D01*
X0014792Y0105639D02*
X0014792Y0105639D01*
X0014792Y0107212D02*
X0014792Y0107212D01*
X0062604Y0138678D02*
X0103778Y0138678D01*
X0103418Y0137105D02*
X0064071Y0137105D01*
X0064570Y0135532D02*
X0103629Y0135532D01*
X0104545Y0133958D02*
X0064570Y0133958D01*
X0027286Y0155985D02*
X0009296Y0155985D01*
X0009296Y0157558D02*
X0026246Y0157558D01*
X0025206Y0159131D02*
X0009296Y0159131D01*
X0009296Y0160705D02*
X0024166Y0160705D01*
X0023126Y0162278D02*
X0009296Y0162278D01*
X0009296Y0163851D02*
X0022086Y0163851D01*
X0021046Y0165425D02*
X0009296Y0165425D01*
X0009296Y0166998D02*
X0020006Y0166998D01*
X0018966Y0168571D02*
X0009296Y0168571D01*
X0009296Y0170145D02*
X0017926Y0170145D01*
X0014990Y0171718D02*
X0009296Y0171718D01*
X0009296Y0173291D02*
X0013776Y0173291D01*
X0013398Y0174865D02*
X0009296Y0174865D01*
X0009296Y0176438D02*
X0013640Y0176438D01*
X0014662Y0178011D02*
X0009296Y0178011D01*
X0020091Y0187451D02*
X0103418Y0187451D01*
X0103921Y0189024D02*
X0021314Y0189024D01*
X0021698Y0190598D02*
X0105249Y0190598D01*
X0120967Y0193744D02*
X0219894Y0193744D01*
X0219894Y0195318D02*
X0122008Y0195318D01*
X0122308Y0196891D02*
X0219894Y0196891D01*
X0219894Y0198464D02*
X0122037Y0198464D01*
X0121037Y0200038D02*
X0219894Y0200038D01*
X0240398Y0200038D02*
X0244689Y0200038D01*
X0243689Y0198464D02*
X0240398Y0198464D01*
X0240398Y0196891D02*
X0243418Y0196891D01*
X0243718Y0195318D02*
X0240398Y0195318D01*
X0240398Y0193744D02*
X0244759Y0193744D01*
X0245249Y0190598D02*
X0240398Y0190598D01*
X0240398Y0192171D02*
X0249745Y0192171D01*
X0243921Y0189024D02*
X0240398Y0189024D01*
X0240398Y0187451D02*
X0243418Y0187451D01*
X0243486Y0185878D02*
X0240398Y0185878D01*
X0240398Y0184304D02*
X0244198Y0184304D01*
X0246375Y0182731D02*
X0240398Y0182731D01*
X0240398Y0181158D02*
X0246465Y0181158D01*
X0244236Y0179585D02*
X0240398Y0179585D01*
X0240398Y0178011D02*
X0243501Y0178011D01*
X0243418Y0176438D02*
X0239801Y0176438D01*
X0238228Y0174865D02*
X0243906Y0174865D01*
X0245212Y0173291D02*
X0236654Y0173291D01*
X0235081Y0171718D02*
X0298355Y0171718D01*
X0299928Y0173291D02*
X0260514Y0173291D01*
X0261820Y0174865D02*
X0301502Y0174865D01*
X0303075Y0176438D02*
X0262308Y0176438D01*
X0262225Y0178011D02*
X0304648Y0178011D01*
X0306222Y0179585D02*
X0261490Y0179585D01*
X0254236Y0179585D02*
X0251490Y0179585D01*
X0252225Y0178011D02*
X0253501Y0178011D01*
X0253418Y0176438D02*
X0252308Y0176438D01*
X0251820Y0174865D02*
X0253906Y0174865D01*
X0255212Y0173291D02*
X0250514Y0173291D01*
X0250381Y0170694D02*
X0248747Y0171371D01*
X0246979Y0171371D01*
X0245345Y0170694D01*
X0244095Y0169444D01*
X0243418Y0167810D01*
X0243418Y0166042D01*
X0244095Y0164408D01*
X0245345Y0163158D01*
X0246979Y0162481D01*
X0248747Y0162481D01*
X0250381Y0163158D01*
X0251631Y0164408D01*
X0252308Y0166042D01*
X0252308Y0167810D01*
X0251631Y0169444D01*
X0250381Y0170694D01*
X0250930Y0170145D02*
X0254796Y0170145D01*
X0255345Y0170694D02*
X0254095Y0169444D01*
X0253418Y0167810D01*
X0253418Y0166042D01*
X0254095Y0164408D01*
X0255345Y0163158D01*
X0256979Y0162481D01*
X0258747Y0162481D01*
X0260381Y0163158D01*
X0261631Y0164408D01*
X0262308Y0166042D01*
X0262308Y0167810D01*
X0261631Y0169444D01*
X0260381Y0170694D01*
X0258747Y0171371D01*
X0256979Y0171371D01*
X0255345Y0170694D01*
X0253733Y0168571D02*
X0251993Y0168571D01*
X0252308Y0166998D02*
X0253418Y0166998D01*
X0253674Y0165425D02*
X0252052Y0165425D01*
X0251074Y0163851D02*
X0254652Y0163851D01*
X0255345Y0160694D02*
X0256979Y0161371D01*
X0258747Y0161371D01*
X0260381Y0160694D01*
X0261631Y0159444D01*
X0262308Y0157810D01*
X0262308Y0156042D01*
X0261631Y0154408D01*
X0260381Y0153158D01*
X0258747Y0152481D01*
X0256979Y0152481D01*
X0255345Y0153158D01*
X0254095Y0154408D01*
X0253418Y0156042D01*
X0253418Y0157810D01*
X0254095Y0159444D01*
X0255345Y0160694D01*
X0255371Y0160705D02*
X0250355Y0160705D01*
X0250381Y0160694D02*
X0248747Y0161371D01*
X0246979Y0161371D01*
X0245345Y0160694D01*
X0244095Y0159444D01*
X0243418Y0157810D01*
X0243418Y0156042D01*
X0244095Y0154408D01*
X0245345Y0153158D01*
X0246979Y0152481D01*
X0248747Y0152481D01*
X0250381Y0153158D01*
X0251631Y0154408D01*
X0252308Y0156042D01*
X0252308Y0157810D01*
X0251631Y0159444D01*
X0250381Y0160694D01*
X0251761Y0159131D02*
X0253965Y0159131D01*
X0253418Y0157558D02*
X0252308Y0157558D01*
X0252284Y0155985D02*
X0253442Y0155985D01*
X0254093Y0154412D02*
X0251633Y0154412D01*
X0249609Y0152838D02*
X0256117Y0152838D01*
X0256723Y0151265D02*
X0249003Y0151265D01*
X0248747Y0151371D02*
X0246979Y0151371D01*
X0245345Y0150694D01*
X0244095Y0149444D01*
X0243418Y0147810D01*
X0243418Y0146042D01*
X0244095Y0144408D01*
X0245345Y0143158D01*
X0246979Y0142481D01*
X0248747Y0142481D01*
X0250381Y0143158D01*
X0251631Y0144408D01*
X0252308Y0146042D01*
X0252308Y0147810D01*
X0251631Y0149444D01*
X0250381Y0150694D01*
X0248747Y0151371D01*
X0246723Y0151265D02*
X0214628Y0151265D01*
X0216201Y0152838D02*
X0246117Y0152838D01*
X0244093Y0154412D02*
X0217774Y0154412D01*
X0219348Y0155985D02*
X0243442Y0155985D01*
X0243418Y0157558D02*
X0220921Y0157558D01*
X0222494Y0159131D02*
X0243965Y0159131D01*
X0245371Y0160705D02*
X0224068Y0160705D01*
X0225641Y0162278D02*
X0278915Y0162278D01*
X0279422Y0163851D02*
X0261074Y0163851D01*
X0262052Y0165425D02*
X0278943Y0165425D01*
X0278635Y0166998D02*
X0262308Y0166998D01*
X0261993Y0168571D02*
X0279108Y0168571D01*
X0284492Y0168571D02*
X0295208Y0168571D01*
X0293635Y0166998D02*
X0284965Y0166998D01*
X0284656Y0165425D02*
X0292062Y0165425D01*
X0290488Y0163851D02*
X0284178Y0163851D01*
X0284178Y0162278D02*
X0288915Y0162278D01*
X0287342Y0160705D02*
X0284068Y0160705D01*
X0282494Y0159131D02*
X0285769Y0159131D01*
X0284195Y0157558D02*
X0280921Y0157558D01*
X0279348Y0155985D02*
X0282622Y0155985D01*
X0281049Y0154412D02*
X0277774Y0154412D01*
X0276201Y0152838D02*
X0279475Y0152838D01*
X0277902Y0151265D02*
X0274628Y0151265D01*
X0273054Y0149692D02*
X0276329Y0149692D01*
X0274755Y0148118D02*
X0271481Y0148118D01*
X0269908Y0146545D02*
X0273182Y0146545D01*
X0271609Y0144972D02*
X0268335Y0144972D01*
X0266761Y0143398D02*
X0270035Y0143398D01*
X0268462Y0141825D02*
X0265188Y0141825D01*
X0263615Y0140252D02*
X0266889Y0140252D01*
X0272041Y0138678D02*
X0310315Y0138678D01*
X0308742Y0137105D02*
X0270468Y0137105D01*
X0268895Y0135532D02*
X0307169Y0135532D01*
X0305595Y0133958D02*
X0261181Y0133958D01*
X0260097Y0130812D02*
X0302449Y0130812D01*
X0304022Y0132385D02*
X0195748Y0132385D01*
X0194175Y0130812D02*
X0245629Y0130812D01*
X0245345Y0130694D02*
X0244095Y0129444D01*
X0243418Y0127810D01*
X0243418Y0126042D01*
X0244095Y0124408D01*
X0245345Y0123158D01*
X0246979Y0122481D01*
X0248747Y0122481D01*
X0250381Y0123158D01*
X0251631Y0124408D01*
X0252308Y0126042D01*
X0252308Y0127810D01*
X0251631Y0129444D01*
X0250381Y0130694D01*
X0248747Y0131371D01*
X0246979Y0131371D01*
X0245345Y0130694D01*
X0244010Y0129238D02*
X0192601Y0129238D01*
X0191028Y0127665D02*
X0243418Y0127665D01*
X0243418Y0126092D02*
X0189455Y0126092D01*
X0187881Y0124519D02*
X0244049Y0124519D01*
X0245858Y0122945D02*
X0186308Y0122945D01*
X0197321Y0133958D02*
X0244545Y0133958D01*
X0243629Y0135532D02*
X0198895Y0135532D01*
X0200468Y0137105D02*
X0243418Y0137105D01*
X0243778Y0138678D02*
X0202041Y0138678D01*
X0203615Y0140252D02*
X0244903Y0140252D01*
X0245105Y0143398D02*
X0206761Y0143398D01*
X0205188Y0141825D02*
X0249399Y0141825D01*
X0250621Y0143398D02*
X0250972Y0143398D01*
X0251865Y0144972D02*
X0253861Y0144972D01*
X0253418Y0146545D02*
X0252308Y0146545D01*
X0252180Y0148118D02*
X0253546Y0148118D01*
X0254343Y0149692D02*
X0251383Y0149692D01*
X0244343Y0149692D02*
X0213054Y0149692D01*
X0211481Y0148118D02*
X0243546Y0148118D01*
X0243418Y0146545D02*
X0209908Y0146545D01*
X0208335Y0144972D02*
X0243861Y0144972D01*
X0252978Y0138678D02*
X0253778Y0138678D01*
X0253418Y0137105D02*
X0252308Y0137105D01*
X0252097Y0135532D02*
X0253629Y0135532D01*
X0254545Y0133958D02*
X0251181Y0133958D01*
X0250097Y0130812D02*
X0255629Y0130812D01*
X0255345Y0130694D02*
X0254095Y0129444D01*
X0253418Y0127810D01*
X0253418Y0126042D01*
X0254095Y0124408D01*
X0255345Y0123158D01*
X0256979Y0122481D01*
X0258747Y0122481D01*
X0260381Y0123158D01*
X0261631Y0124408D01*
X0262308Y0126042D01*
X0262308Y0127810D01*
X0261631Y0129444D01*
X0260381Y0130694D01*
X0258747Y0131371D01*
X0256979Y0131371D01*
X0255345Y0130694D01*
X0254010Y0129238D02*
X0251716Y0129238D01*
X0252308Y0127665D02*
X0253418Y0127665D01*
X0253418Y0126092D02*
X0252308Y0126092D01*
X0251677Y0124519D02*
X0254049Y0124519D01*
X0255858Y0122945D02*
X0249868Y0122945D01*
X0248747Y0121371D02*
X0246979Y0121371D01*
X0245345Y0120694D01*
X0244095Y0119444D01*
X0243418Y0117810D01*
X0243418Y0116042D01*
X0244095Y0114408D01*
X0245345Y0113158D01*
X0246979Y0112481D01*
X0248747Y0112481D01*
X0250381Y0113158D01*
X0251631Y0114408D01*
X0252308Y0116042D01*
X0252308Y0117810D01*
X0251631Y0119444D01*
X0250381Y0120694D01*
X0248747Y0121371D01*
X0251276Y0119799D02*
X0254450Y0119799D01*
X0254095Y0119444D02*
X0255345Y0120694D01*
X0256979Y0121371D01*
X0258747Y0121371D01*
X0260381Y0120694D01*
X0261631Y0119444D01*
X0262308Y0117810D01*
X0262308Y0116042D01*
X0261631Y0114408D01*
X0260381Y0113158D01*
X0258747Y0112481D01*
X0256979Y0112481D01*
X0255345Y0113158D01*
X0254095Y0114408D01*
X0253418Y0116042D01*
X0253418Y0117810D01*
X0254095Y0119444D01*
X0253590Y0118225D02*
X0252136Y0118225D01*
X0252308Y0116652D02*
X0253418Y0116652D01*
X0253817Y0115079D02*
X0251909Y0115079D01*
X0250728Y0113505D02*
X0254998Y0113505D01*
X0255010Y0110359D02*
X0250716Y0110359D01*
X0250381Y0110694D02*
X0248747Y0111371D01*
X0246979Y0111371D01*
X0245345Y0110694D01*
X0244095Y0109444D01*
X0243418Y0107810D01*
X0243418Y0106042D01*
X0244095Y0104408D01*
X0245345Y0103158D01*
X0246979Y0102481D01*
X0248747Y0102481D01*
X0250381Y0103158D01*
X0251631Y0104408D01*
X0252308Y0106042D01*
X0252308Y0107810D01*
X0251631Y0109444D01*
X0250381Y0110694D01*
X0251904Y0108785D02*
X0253822Y0108785D01*
X0253418Y0107212D02*
X0252308Y0107212D01*
X0252141Y0105639D02*
X0253585Y0105639D01*
X0251640Y0104065D02*
X0251288Y0104065D01*
X0250066Y0102492D02*
X0248774Y0102492D01*
X0246952Y0102492D02*
X0149855Y0102492D01*
X0148282Y0100919D02*
X0245888Y0100919D01*
X0244054Y0099345D02*
X0146708Y0099345D01*
X0145135Y0097772D02*
X0243418Y0097772D01*
X0243418Y0096199D02*
X0143562Y0096199D01*
X0141988Y0094626D02*
X0244005Y0094626D01*
X0245600Y0093052D02*
X0140415Y0093052D01*
X0138842Y0091479D02*
X0249053Y0091479D01*
X0250126Y0093052D02*
X0250626Y0093052D01*
X0251721Y0094626D02*
X0254005Y0094626D01*
X0253418Y0096199D02*
X0252308Y0096199D01*
X0252308Y0097772D02*
X0253418Y0097772D01*
X0253645Y0099345D02*
X0254054Y0099345D01*
X0262141Y0105639D02*
X0277276Y0105639D01*
X0278849Y0107212D02*
X0262308Y0107212D01*
X0261904Y0108785D02*
X0280422Y0108785D01*
X0281996Y0110359D02*
X0260716Y0110359D01*
X0260728Y0113505D02*
X0285142Y0113505D01*
X0283569Y0111932D02*
X0159295Y0111932D01*
X0160868Y0113505D02*
X0244998Y0113505D01*
X0243817Y0115079D02*
X0162442Y0115079D01*
X0164015Y0116652D02*
X0243418Y0116652D01*
X0243590Y0118225D02*
X0165588Y0118225D01*
X0167162Y0119799D02*
X0244450Y0119799D01*
X0245010Y0110359D02*
X0157722Y0110359D01*
X0156148Y0108785D02*
X0243822Y0108785D01*
X0243418Y0107212D02*
X0154575Y0107212D01*
X0153002Y0105639D02*
X0243585Y0105639D01*
X0244438Y0104065D02*
X0151428Y0104065D01*
X0142142Y0113505D02*
X0120728Y0113505D01*
X0121909Y0115079D02*
X0143716Y0115079D01*
X0145289Y0116652D02*
X0122308Y0116652D01*
X0122136Y0118225D02*
X0146862Y0118225D01*
X0148436Y0119799D02*
X0121276Y0119799D01*
X0121181Y0133958D02*
X0162595Y0133958D01*
X0168735Y0121372D02*
X0293009Y0121372D01*
X0294582Y0122945D02*
X0259868Y0122945D01*
X0261677Y0124519D02*
X0296156Y0124519D01*
X0297729Y0126092D02*
X0262308Y0126092D01*
X0262308Y0127665D02*
X0299302Y0127665D01*
X0300876Y0129238D02*
X0261716Y0129238D01*
X0261276Y0119799D02*
X0291436Y0119799D01*
X0289862Y0118225D02*
X0262136Y0118225D01*
X0262308Y0116652D02*
X0288289Y0116652D01*
X0286716Y0115079D02*
X0261909Y0115079D01*
X0273615Y0140252D02*
X0318901Y0140252D01*
X0318784Y0141825D02*
X0275188Y0141825D01*
X0276761Y0143398D02*
X0319182Y0143398D01*
X0320288Y0144972D02*
X0278335Y0144972D01*
X0279908Y0146545D02*
X0285579Y0146545D01*
X0286007Y0146117D02*
X0287170Y0145635D01*
X0288430Y0145635D01*
X0289593Y0146117D01*
X0290483Y0147007D01*
X0290965Y0148170D01*
X0290965Y0148602D01*
X0305785Y0163422D01*
X0319323Y0163422D01*
X0318784Y0162122D01*
X0318784Y0160218D01*
X0319513Y0158458D01*
X0320860Y0157112D01*
X0322619Y0156383D01*
X0324524Y0156383D01*
X0326283Y0157112D01*
X0327630Y0158458D01*
X0328359Y0160218D01*
X0328359Y0162122D01*
X0327821Y0163422D01*
X0331785Y0163422D01*
X0333178Y0164815D01*
X0336785Y0168422D01*
X0343701Y0168422D01*
X0344007Y0168117D01*
X0345170Y0167635D01*
X0346430Y0167635D01*
X0347593Y0168117D01*
X0348483Y0169007D01*
X0348965Y0170170D01*
X0348965Y0171430D01*
X0348483Y0172593D01*
X0347593Y0173483D01*
X0346430Y0173965D01*
X0345170Y0173965D01*
X0344007Y0173483D01*
X0343701Y0173178D01*
X0334815Y0173178D01*
X0329815Y0168178D01*
X0327507Y0168178D01*
X0327630Y0168301D01*
X0328359Y0170060D01*
X0328359Y0171965D01*
X0327630Y0173724D01*
X0326283Y0175071D01*
X0324524Y0175800D01*
X0322619Y0175800D01*
X0320860Y0175071D01*
X0319513Y0173724D01*
X0318784Y0171965D01*
X0318784Y0170060D01*
X0319513Y0168301D01*
X0319636Y0168178D01*
X0303815Y0168178D01*
X0287602Y0151965D01*
X0287170Y0151965D01*
X0286007Y0151483D01*
X0285117Y0150593D01*
X0284635Y0149430D01*
X0284635Y0148170D01*
X0285117Y0147007D01*
X0286007Y0146117D01*
X0284656Y0148118D02*
X0281481Y0148118D01*
X0283054Y0149692D02*
X0284743Y0149692D01*
X0284628Y0151265D02*
X0285788Y0151265D01*
X0286201Y0152838D02*
X0288475Y0152838D01*
X0287774Y0154412D02*
X0290049Y0154412D01*
X0289348Y0155985D02*
X0291622Y0155985D01*
X0290921Y0157558D02*
X0293195Y0157558D01*
X0292494Y0159131D02*
X0294769Y0159131D01*
X0294068Y0160705D02*
X0296342Y0160705D01*
X0295641Y0162278D02*
X0297915Y0162278D01*
X0297214Y0163851D02*
X0299488Y0163851D01*
X0298788Y0165425D02*
X0301062Y0165425D01*
X0300361Y0166998D02*
X0302635Y0166998D01*
X0301934Y0168571D02*
X0319401Y0168571D01*
X0318784Y0170145D02*
X0303508Y0170145D01*
X0305081Y0171718D02*
X0318784Y0171718D01*
X0319334Y0173291D02*
X0306654Y0173291D01*
X0308228Y0174865D02*
X0320653Y0174865D01*
X0326490Y0174865D02*
X0363518Y0174865D01*
X0362313Y0173659D02*
X0364941Y0176287D01*
X0368659Y0176287D01*
X0371287Y0173659D01*
X0371287Y0169941D01*
X0368659Y0167313D01*
X0364941Y0167313D01*
X0362313Y0169941D01*
X0362313Y0173659D01*
X0362313Y0173291D02*
X0347785Y0173291D01*
X0348846Y0171718D02*
X0362313Y0171718D01*
X0362313Y0170145D02*
X0348955Y0170145D01*
X0348048Y0168571D02*
X0363683Y0168571D01*
X0364079Y0165425D02*
X0333788Y0165425D01*
X0335361Y0166998D02*
X0384422Y0166998D01*
X0384422Y0165425D02*
X0379521Y0165425D01*
X0378659Y0167313D02*
X0374941Y0167313D01*
X0372313Y0169941D01*
X0372313Y0173659D01*
X0374941Y0176287D01*
X0378659Y0176287D01*
X0381287Y0173659D01*
X0381287Y0169941D01*
X0378659Y0167313D01*
X0379917Y0168571D02*
X0384422Y0168571D01*
X0384422Y0170145D02*
X0381287Y0170145D01*
X0381287Y0171718D02*
X0383519Y0171718D01*
X0381946Y0173291D02*
X0381287Y0173291D01*
X0380372Y0174865D02*
X0380082Y0174865D01*
X0378799Y0176438D02*
X0309801Y0176438D01*
X0311374Y0178011D02*
X0377226Y0178011D01*
X0375653Y0179585D02*
X0312947Y0179585D01*
X0314521Y0181158D02*
X0374079Y0181158D01*
X0372506Y0182731D02*
X0316094Y0182731D01*
X0317667Y0184304D02*
X0370933Y0184304D01*
X0370082Y0174865D02*
X0373518Y0174865D01*
X0372313Y0173291D02*
X0371287Y0173291D01*
X0371287Y0171718D02*
X0372313Y0171718D01*
X0372313Y0170145D02*
X0371287Y0170145D01*
X0369917Y0168571D02*
X0373683Y0168571D01*
X0374079Y0165425D02*
X0369521Y0165425D01*
X0371095Y0163851D02*
X0372505Y0163851D01*
X0372313Y0162278D02*
X0371287Y0162278D01*
X0371287Y0160705D02*
X0372313Y0160705D01*
X0374348Y0155985D02*
X0374639Y0155985D01*
X0373065Y0154412D02*
X0370535Y0154412D01*
X0371287Y0152838D02*
X0372313Y0152838D01*
X0372313Y0151265D02*
X0371287Y0151265D01*
X0371329Y0149692D02*
X0371038Y0149692D01*
X0374908Y0146545D02*
X0384422Y0146545D01*
X0384422Y0148118D02*
X0379464Y0148118D01*
X0378659Y0146287D02*
X0374941Y0146287D01*
X0372313Y0143659D01*
X0372313Y0139941D01*
X0374941Y0137313D01*
X0378659Y0137313D01*
X0381287Y0139941D01*
X0381287Y0143659D01*
X0378659Y0146287D01*
X0379975Y0144972D02*
X0384422Y0144972D01*
X0384422Y0143398D02*
X0381287Y0143398D01*
X0381287Y0141825D02*
X0383462Y0141825D01*
X0381889Y0140252D02*
X0381287Y0140252D01*
X0380315Y0138678D02*
X0380024Y0138678D01*
X0378742Y0137105D02*
X0349178Y0137105D01*
X0349178Y0135532D02*
X0364186Y0135532D01*
X0364941Y0136287D02*
X0362313Y0133659D01*
X0362313Y0129941D01*
X0364941Y0127313D01*
X0368659Y0127313D01*
X0371287Y0129941D01*
X0371287Y0133659D01*
X0368659Y0136287D01*
X0364941Y0136287D01*
X0363575Y0138678D02*
X0349178Y0138678D01*
X0349178Y0140252D02*
X0362313Y0140252D01*
X0362313Y0141825D02*
X0350188Y0141825D01*
X0351761Y0143398D02*
X0362313Y0143398D01*
X0371287Y0143398D02*
X0372313Y0143398D01*
X0372313Y0141825D02*
X0371287Y0141825D01*
X0371287Y0140252D02*
X0372313Y0140252D01*
X0373575Y0138678D02*
X0370024Y0138678D01*
X0369414Y0135532D02*
X0374186Y0135532D01*
X0372612Y0133958D02*
X0370988Y0133958D01*
X0371287Y0132385D02*
X0372313Y0132385D01*
X0372313Y0130812D02*
X0371287Y0130812D01*
X0370585Y0129238D02*
X0373015Y0129238D01*
X0374589Y0127665D02*
X0369011Y0127665D01*
X0368854Y0126092D02*
X0374746Y0126092D01*
X0373172Y0124519D02*
X0370428Y0124519D01*
X0371287Y0122945D02*
X0372313Y0122945D01*
X0372313Y0121372D02*
X0371287Y0121372D01*
X0371145Y0119799D02*
X0371436Y0119799D01*
X0362455Y0119799D02*
X0362164Y0119799D01*
X0362313Y0121372D02*
X0360591Y0121372D01*
X0359018Y0122945D02*
X0362313Y0122945D01*
X0363172Y0124519D02*
X0357444Y0124519D01*
X0355871Y0126092D02*
X0364746Y0126092D01*
X0364589Y0127665D02*
X0354298Y0127665D01*
X0354178Y0129238D02*
X0363015Y0129238D01*
X0362313Y0130812D02*
X0354817Y0130812D01*
X0354965Y0132385D02*
X0362313Y0132385D01*
X0362612Y0133958D02*
X0354118Y0133958D01*
X0349482Y0133958D02*
X0349178Y0133958D01*
X0349178Y0129238D02*
X0349422Y0129238D01*
X0349422Y0127665D02*
X0349178Y0127665D01*
X0349178Y0126092D02*
X0349422Y0126092D01*
X0350719Y0124519D02*
X0347881Y0124519D01*
X0346308Y0122945D02*
X0352292Y0122945D01*
X0353865Y0121372D02*
X0344735Y0121372D01*
X0343162Y0119799D02*
X0355438Y0119799D01*
X0357012Y0118225D02*
X0341588Y0118225D01*
X0340015Y0116652D02*
X0358585Y0116652D01*
X0360158Y0115079D02*
X0338442Y0115079D01*
X0336868Y0113505D02*
X0362313Y0113505D01*
X0362313Y0111932D02*
X0335295Y0111932D01*
X0333722Y0110359D02*
X0362313Y0110359D01*
X0363468Y0108785D02*
X0333211Y0108785D01*
X0331638Y0107212D02*
X0392745Y0107212D01*
X0392745Y0105639D02*
X0379307Y0105639D01*
X0380881Y0104065D02*
X0392745Y0104065D01*
X0392745Y0102492D02*
X0381287Y0102492D01*
X0381287Y0100919D02*
X0392745Y0100919D01*
X0392745Y0099345D02*
X0380692Y0099345D01*
X0379118Y0097772D02*
X0392745Y0097772D01*
X0392745Y0096199D02*
X0378747Y0096199D01*
X0380321Y0094626D02*
X0392745Y0094626D01*
X0392745Y0093052D02*
X0381287Y0093052D01*
X0381287Y0091479D02*
X0392745Y0091479D01*
X0392745Y0089906D02*
X0381252Y0089906D01*
X0379678Y0088332D02*
X0392745Y0088332D01*
X0392745Y0086759D02*
X0325630Y0086759D01*
X0324524Y0087485D02*
X0326283Y0088214D01*
X0327630Y0089561D01*
X0328359Y0091320D01*
X0328359Y0093225D01*
X0327630Y0094984D01*
X0326283Y0096331D01*
X0324524Y0097060D01*
X0322619Y0097060D01*
X0320860Y0096331D01*
X0319513Y0094984D01*
X0318784Y0093225D01*
X0318784Y0091320D01*
X0319513Y0089561D01*
X0320860Y0088214D01*
X0322619Y0087485D01*
X0324524Y0087485D01*
X0326402Y0088332D02*
X0363922Y0088332D01*
X0362348Y0089906D02*
X0327773Y0089906D01*
X0328359Y0091479D02*
X0362313Y0091479D01*
X0362313Y0093052D02*
X0328359Y0093052D01*
X0327779Y0094626D02*
X0363279Y0094626D01*
X0364853Y0096199D02*
X0326416Y0096199D01*
X0325597Y0097772D02*
X0364482Y0097772D01*
X0362908Y0099345D02*
X0327573Y0099345D01*
X0328258Y0100919D02*
X0362313Y0100919D01*
X0362313Y0102492D02*
X0328359Y0102492D01*
X0327946Y0104065D02*
X0362719Y0104065D01*
X0364293Y0105639D02*
X0330065Y0105639D01*
X0319198Y0104065D02*
X0312428Y0104065D01*
X0310855Y0102492D02*
X0318784Y0102492D01*
X0318885Y0100919D02*
X0309282Y0100919D01*
X0307708Y0099345D02*
X0319571Y0099345D01*
X0321546Y0097772D02*
X0306135Y0097772D01*
X0304562Y0096199D02*
X0320728Y0096199D01*
X0319365Y0094626D02*
X0302988Y0094626D01*
X0301415Y0093052D02*
X0318784Y0093052D01*
X0318784Y0091479D02*
X0299842Y0091479D01*
X0298269Y0089906D02*
X0319370Y0089906D01*
X0320741Y0088332D02*
X0296695Y0088332D01*
X0295122Y0086759D02*
X0321513Y0086759D01*
X0319557Y0085186D02*
X0293549Y0085186D01*
X0318880Y0083612D02*
X0260835Y0083612D01*
X0254891Y0083612D02*
X0250835Y0083612D01*
X0251953Y0085186D02*
X0253773Y0085186D01*
X0253418Y0086759D02*
X0252308Y0086759D01*
X0252632Y0088332D02*
X0253634Y0088332D01*
X0244557Y0089906D02*
X0137269Y0089906D01*
X0135695Y0088332D02*
X0243634Y0088332D01*
X0243418Y0086759D02*
X0134122Y0086759D01*
X0132549Y0085186D02*
X0243773Y0085186D01*
X0244891Y0083612D02*
X0130975Y0083612D01*
X0113866Y0078892D02*
X0113192Y0078892D01*
X0113418Y0077319D02*
X0112308Y0077319D01*
X0112185Y0075746D02*
X0113541Y0075746D01*
X0114330Y0074172D02*
X0111395Y0074172D01*
X0109032Y0072599D02*
X0116694Y0072599D01*
X0116146Y0071026D02*
X0109580Y0071026D01*
X0111622Y0069453D02*
X0114104Y0069453D01*
X0113447Y0067879D02*
X0112279Y0067879D01*
X0112308Y0066306D02*
X0113418Y0066306D01*
X0113960Y0064733D02*
X0111766Y0064733D01*
X0114993Y0063159D02*
X0115344Y0063159D01*
X0115367Y0062785D02*
X0115367Y0062785D01*
X0120942Y0053719D02*
X0121422Y0053719D01*
X0121422Y0052146D02*
X0106446Y0052146D01*
X0105224Y0050573D02*
X0104873Y0050573D01*
X0103911Y0048999D02*
X0103299Y0048999D01*
X0103418Y0047426D02*
X0101726Y0047426D01*
X0100153Y0045853D02*
X0103496Y0045853D01*
X0104223Y0044279D02*
X0098579Y0044279D01*
X0089757Y0030120D02*
X0064068Y0030120D01*
X0064068Y0031693D02*
X0072923Y0031693D01*
X0072690Y0033266D02*
X0063802Y0033266D01*
X0060312Y0033266D02*
X0060312Y0033266D01*
X0060312Y0031693D02*
X0060312Y0031693D01*
X0056556Y0031693D02*
X0052725Y0031693D01*
X0052957Y0033266D02*
X0056821Y0033266D01*
X0056556Y0030120D02*
X0042454Y0030120D01*
X0042454Y0028546D02*
X0056662Y0028546D01*
X0056556Y0026973D02*
X0042454Y0026973D01*
X0042454Y0025400D02*
X0056556Y0025400D01*
X0056556Y0023826D02*
X0042454Y0023826D01*
X0042454Y0022253D02*
X0057229Y0022253D01*
X0057934Y0020680D02*
X0042454Y0020680D01*
X0042454Y0019106D02*
X0042906Y0019106D01*
X0046768Y0019106D02*
X0046769Y0019106D01*
X0046769Y0019918D02*
X0046769Y0015769D01*
X0050918Y0015769D01*
X0050918Y0018366D01*
X0050796Y0018821D01*
X0050561Y0019228D01*
X0050228Y0019561D01*
X0049821Y0019796D01*
X0049366Y0019918D01*
X0046769Y0019918D01*
X0046768Y0017533D02*
X0046769Y0017533D01*
X0046768Y0015960D02*
X0046769Y0015960D01*
X0046769Y0015768D02*
X0050918Y0015768D01*
X0050918Y0013171D01*
X0050796Y0012716D01*
X0050561Y0012309D01*
X0050228Y0011976D01*
X0049821Y0011741D01*
X0049366Y0011619D01*
X0046769Y0011619D01*
X0046769Y0015768D01*
X0046768Y0014387D02*
X0046769Y0014387D01*
X0046768Y0012813D02*
X0046769Y0012813D01*
X0043802Y0011240D02*
X0060997Y0011240D01*
X0059424Y0012813D02*
X0050822Y0012813D01*
X0050918Y0014387D02*
X0057934Y0014387D01*
X0057934Y0015960D02*
X0050918Y0015960D01*
X0050918Y0017533D02*
X0057934Y0017533D01*
X0057934Y0019106D02*
X0050631Y0019106D01*
X0042715Y0012813D02*
X0042229Y0012813D01*
X0045376Y0009667D02*
X0062570Y0009667D01*
X0064576Y0014387D02*
X0071910Y0014387D01*
X0075690Y0014387D02*
X0104214Y0014387D01*
X0107961Y0017024D02*
X0107961Y0021371D01*
X0108213Y0021371D01*
X0108904Y0021261D01*
X0109569Y0021045D01*
X0110193Y0020728D01*
X0110759Y0020316D01*
X0111253Y0019822D01*
X0111665Y0019256D01*
X0111982Y0018632D01*
X0112198Y0017967D01*
X0112308Y0017276D01*
X0112308Y0017024D01*
X0107961Y0017024D01*
X0107961Y0017533D02*
X0107765Y0017533D01*
X0107765Y0019106D02*
X0107961Y0019106D01*
X0107961Y0020680D02*
X0107765Y0020680D01*
X0110258Y0020680D02*
X0115331Y0020680D01*
X0113955Y0019106D02*
X0111741Y0019106D01*
X0112267Y0017533D02*
X0113418Y0017533D01*
X0113452Y0015960D02*
X0112210Y0015960D01*
X0111512Y0014387D02*
X0114116Y0014387D01*
X0121610Y0014387D02*
X0123024Y0014387D01*
X0122274Y0015960D02*
X0124597Y0015960D01*
X0126170Y0017533D02*
X0122308Y0017533D01*
X0121771Y0019106D02*
X0127744Y0019106D01*
X0129711Y0020680D02*
X0120395Y0020680D01*
X0121049Y0023826D02*
X0163038Y0023826D01*
X0164611Y0025400D02*
X0122042Y0025400D01*
X0122308Y0026973D02*
X0153461Y0026973D01*
X0153013Y0028546D02*
X0122846Y0028546D01*
X0107961Y0028546D02*
X0107765Y0028546D01*
X0107765Y0030120D02*
X0107961Y0030120D01*
X0107961Y0025400D02*
X0107765Y0025400D01*
X0107765Y0023826D02*
X0107961Y0023826D01*
X0104677Y0023826D02*
X0090189Y0023826D01*
X0088183Y0028546D02*
X0063962Y0028546D01*
X0069823Y0022253D02*
X0081890Y0022253D01*
X0076806Y0012813D02*
X0091337Y0012813D01*
X0090635Y0011240D02*
X0076965Y0011240D01*
X0076143Y0009667D02*
X0090843Y0009667D01*
X0120502Y0050573D02*
X0121422Y0050573D01*
X0160524Y0034840D02*
X0170965Y0034840D01*
X0170965Y0033266D02*
X0160524Y0033266D01*
X0160524Y0031693D02*
X0170904Y0031693D01*
X0169331Y0030120D02*
X0160524Y0030120D01*
X0160524Y0028546D02*
X0167758Y0028546D01*
X0166184Y0026973D02*
X0160076Y0026973D01*
X0166714Y0019106D02*
X0233625Y0019106D01*
X0230131Y0018430D02*
X0228321Y0018430D01*
X0227866Y0018308D01*
X0227458Y0018073D01*
X0227126Y0017740D01*
X0226890Y0017332D01*
X0226769Y0016878D01*
X0226769Y0014674D01*
X0226769Y0012470D01*
X0226890Y0012016D01*
X0227126Y0011608D01*
X0227458Y0011275D01*
X0227866Y0011040D01*
X0228321Y0010918D01*
X0230131Y0010918D01*
X0230131Y0014674D01*
X0230131Y0014674D01*
X0230131Y0014674D01*
X0230131Y0018430D01*
X0230131Y0017533D02*
X0230131Y0017533D01*
X0230131Y0015960D02*
X0230131Y0015960D01*
X0230131Y0014674D02*
X0230131Y0014674D01*
X0226769Y0014674D01*
X0230131Y0014674D01*
X0230131Y0014387D02*
X0230131Y0014387D01*
X0230131Y0012813D02*
X0230131Y0012813D01*
X0230131Y0011240D02*
X0230131Y0011240D01*
X0232742Y0011240D02*
X0233006Y0011240D01*
X0227520Y0011240D02*
X0158847Y0011240D01*
X0160421Y0012813D02*
X0226769Y0012813D01*
X0226769Y0014387D02*
X0161994Y0014387D01*
X0163567Y0015960D02*
X0226769Y0015960D01*
X0227006Y0017533D02*
X0165141Y0017533D01*
X0155171Y0015960D02*
X0154091Y0015960D01*
X0190776Y0043926D02*
X0190776Y0047288D01*
X0190776Y0043926D01*
X0190776Y0043926D01*
X0190777Y0043926D02*
X0190777Y0043926D01*
X0190776Y0044279D02*
X0190776Y0044279D01*
X0190776Y0045853D02*
X0190776Y0045853D01*
X0187052Y0045853D02*
X0181262Y0045853D01*
X0181312Y0053719D02*
X0244784Y0053719D01*
X0243728Y0055293D02*
X0181312Y0055293D01*
X0181312Y0056866D02*
X0243418Y0056866D01*
X0243679Y0058439D02*
X0181312Y0058439D01*
X0166532Y0060013D02*
X0244664Y0060013D01*
X0260382Y0063159D02*
X0318784Y0063159D01*
X0319213Y0064733D02*
X0261766Y0064733D01*
X0262308Y0066306D02*
X0320362Y0066306D01*
X0322428Y0067879D02*
X0262279Y0067879D01*
X0261622Y0069453D02*
X0319936Y0069453D01*
X0319037Y0071026D02*
X0259580Y0071026D01*
X0259032Y0072599D02*
X0318784Y0072599D01*
X0319046Y0074172D02*
X0261395Y0074172D01*
X0254330Y0074172D02*
X0251395Y0074172D01*
X0252185Y0075746D02*
X0253541Y0075746D01*
X0253418Y0077319D02*
X0252308Y0077319D01*
X0251860Y0078892D02*
X0253866Y0078892D01*
X0255117Y0080466D02*
X0250609Y0080466D01*
X0244330Y0074172D02*
X0181283Y0074172D01*
X0166532Y0074172D02*
X0164957Y0074172D01*
X0164957Y0072599D02*
X0166532Y0072599D01*
X0166532Y0071026D02*
X0164957Y0071026D01*
X0164957Y0069453D02*
X0166532Y0069453D01*
X0166532Y0067879D02*
X0164957Y0067879D01*
X0164957Y0066306D02*
X0166532Y0066306D01*
X0166532Y0064733D02*
X0164957Y0064733D01*
X0164957Y0063159D02*
X0166532Y0063159D01*
X0166532Y0061586D02*
X0164957Y0061586D01*
X0230422Y0030120D02*
X0230422Y0030120D01*
X0230422Y0028546D02*
X0230422Y0028546D01*
X0230422Y0026973D02*
X0230422Y0026973D01*
X0230422Y0025400D02*
X0230422Y0025400D01*
X0324715Y0067879D02*
X0364375Y0067879D01*
X0363386Y0064733D02*
X0327930Y0064733D01*
X0328359Y0063159D02*
X0362313Y0063159D01*
X0362313Y0061586D02*
X0328273Y0061586D01*
X0327610Y0060013D02*
X0362313Y0060013D01*
X0380799Y0069453D02*
X0392745Y0069453D01*
X0392745Y0071026D02*
X0381287Y0071026D01*
X0381287Y0072599D02*
X0392745Y0072599D01*
X0392745Y0074172D02*
X0380774Y0074172D01*
X0379200Y0075746D02*
X0392745Y0075746D01*
X0392745Y0077319D02*
X0378665Y0077319D01*
X0380239Y0078892D02*
X0392745Y0078892D01*
X0392745Y0080466D02*
X0381287Y0080466D01*
X0381287Y0082039D02*
X0392745Y0082039D01*
X0392745Y0083612D02*
X0381287Y0083612D01*
X0379760Y0085186D02*
X0392745Y0085186D01*
X0363840Y0085186D02*
X0327586Y0085186D01*
X0328264Y0083612D02*
X0362313Y0083612D01*
X0362313Y0082039D02*
X0328359Y0082039D01*
X0327940Y0080466D02*
X0362313Y0080466D01*
X0363361Y0078892D02*
X0326805Y0078892D01*
X0380132Y0108785D02*
X0392745Y0108785D01*
X0392745Y0110359D02*
X0381287Y0110359D01*
X0381287Y0111932D02*
X0392745Y0111932D01*
X0392745Y0113505D02*
X0381287Y0113505D01*
X0379867Y0115079D02*
X0392745Y0115079D01*
X0373625Y0144972D02*
X0373335Y0144972D01*
X0381038Y0149692D02*
X0384422Y0149692D01*
X0384422Y0151265D02*
X0381287Y0151265D01*
X0381287Y0152838D02*
X0384422Y0152838D01*
X0384422Y0154412D02*
X0380535Y0154412D01*
X0378961Y0155985D02*
X0384422Y0155985D01*
X0384422Y0157558D02*
X0378904Y0157558D01*
X0380478Y0159131D02*
X0384422Y0159131D01*
X0384422Y0160705D02*
X0381287Y0160705D01*
X0381287Y0162278D02*
X0384422Y0162278D01*
X0384422Y0163851D02*
X0381095Y0163851D01*
X0343815Y0173291D02*
X0327810Y0173291D01*
X0328359Y0171718D02*
X0333355Y0171718D01*
X0331782Y0170145D02*
X0328359Y0170145D01*
X0327742Y0168571D02*
X0330208Y0168571D01*
X0332214Y0163851D02*
X0335488Y0163851D01*
X0333915Y0162278D02*
X0328295Y0162278D01*
X0328359Y0160705D02*
X0332342Y0160705D01*
X0330769Y0159131D02*
X0327909Y0159131D01*
X0326730Y0157558D02*
X0329422Y0157558D01*
X0329422Y0155985D02*
X0324838Y0155985D01*
X0324524Y0156115D02*
X0322619Y0156115D01*
X0320860Y0155386D01*
X0319513Y0154039D01*
X0318784Y0152280D01*
X0318784Y0150375D01*
X0319513Y0148616D01*
X0320860Y0147269D01*
X0322619Y0146540D01*
X0324524Y0146540D01*
X0326283Y0147269D01*
X0327630Y0148616D01*
X0328359Y0150375D01*
X0328359Y0152280D01*
X0327630Y0154039D01*
X0326283Y0155386D01*
X0324524Y0156115D01*
X0322305Y0155985D02*
X0298348Y0155985D01*
X0299921Y0157558D02*
X0320413Y0157558D01*
X0319234Y0159131D02*
X0301494Y0159131D01*
X0303068Y0160705D02*
X0318784Y0160705D01*
X0318849Y0162278D02*
X0304641Y0162278D01*
X0296782Y0170145D02*
X0260930Y0170145D01*
X0260355Y0160705D02*
X0277342Y0160705D01*
X0275769Y0159131D02*
X0261761Y0159131D01*
X0262308Y0157558D02*
X0274195Y0157558D01*
X0272622Y0155985D02*
X0262284Y0155985D01*
X0261633Y0154412D02*
X0271049Y0154412D01*
X0269475Y0152838D02*
X0259609Y0152838D01*
X0259003Y0151265D02*
X0267902Y0151265D01*
X0266329Y0149692D02*
X0261383Y0149692D01*
X0262180Y0148118D02*
X0264755Y0148118D01*
X0263182Y0146545D02*
X0262308Y0146545D01*
X0290021Y0146545D02*
X0322608Y0146545D01*
X0324535Y0146545D02*
X0329422Y0146545D01*
X0329422Y0148118D02*
X0327133Y0148118D01*
X0328076Y0149692D02*
X0329422Y0149692D01*
X0329422Y0151265D02*
X0328359Y0151265D01*
X0328128Y0152838D02*
X0329422Y0152838D01*
X0329422Y0154412D02*
X0327258Y0154412D01*
X0319885Y0154412D02*
X0296774Y0154412D01*
X0295201Y0152838D02*
X0319016Y0152838D01*
X0318784Y0151265D02*
X0293628Y0151265D01*
X0292054Y0149692D02*
X0319067Y0149692D01*
X0320011Y0148118D02*
X0290944Y0148118D01*
X0326855Y0144972D02*
X0329422Y0144972D01*
X0329422Y0143398D02*
X0327961Y0143398D01*
X0328359Y0141825D02*
X0328462Y0141825D01*
X0244652Y0163851D02*
X0227214Y0163851D01*
X0228788Y0165425D02*
X0243674Y0165425D01*
X0243418Y0166998D02*
X0230361Y0166998D01*
X0231934Y0168571D02*
X0243733Y0168571D01*
X0244796Y0170145D02*
X0233508Y0170145D01*
X0215928Y0173291D02*
X0161672Y0173291D01*
X0163245Y0171718D02*
X0214355Y0171718D01*
X0212782Y0170145D02*
X0164818Y0170145D01*
X0166392Y0168571D02*
X0211208Y0168571D01*
X0209635Y0166998D02*
X0167965Y0166998D01*
X0169538Y0165425D02*
X0208062Y0165425D01*
X0206488Y0163851D02*
X0171112Y0163851D01*
X0172685Y0162278D02*
X0204915Y0162278D01*
X0203342Y0160705D02*
X0174258Y0160705D01*
X0175831Y0159131D02*
X0201769Y0159131D01*
X0200195Y0157558D02*
X0177405Y0157558D01*
X0178978Y0155985D02*
X0198622Y0155985D01*
X0197049Y0154412D02*
X0180551Y0154412D01*
X0182125Y0152838D02*
X0195475Y0152838D01*
X0193902Y0151265D02*
X0183698Y0151265D01*
X0185271Y0149692D02*
X0192329Y0149692D01*
X0190755Y0148118D02*
X0187958Y0148118D01*
X0188918Y0146545D02*
X0189182Y0146545D01*
X0153386Y0163851D02*
X0121074Y0163851D01*
X0104652Y0163851D02*
X0027787Y0163851D01*
X0026747Y0165425D02*
X0064261Y0165425D01*
X0063745Y0166998D02*
X0025707Y0166998D01*
X0024667Y0168571D02*
X0064405Y0168571D01*
X0014685Y0154412D02*
X0009296Y0154412D01*
X0009296Y0152838D02*
X0013650Y0152838D01*
X0013398Y0151265D02*
X0009296Y0151265D01*
X0009296Y0149692D02*
X0013765Y0149692D01*
X0023937Y0207904D02*
X0026829Y0207904D01*
X0026195Y0209478D02*
X0024570Y0209478D01*
X0024570Y0211051D02*
X0026195Y0211051D01*
X0026195Y0212624D02*
X0024570Y0212624D01*
X0024570Y0214197D02*
X0026195Y0214197D01*
X0026195Y0215771D02*
X0024570Y0215771D01*
X0023972Y0217344D02*
X0026794Y0217344D01*
X0028738Y0218917D02*
X0022027Y0218917D01*
X0032027Y0218917D02*
X0038738Y0218917D01*
X0036794Y0217344D02*
X0033972Y0217344D01*
X0034570Y0215771D02*
X0036195Y0215771D01*
X0036195Y0214197D02*
X0034570Y0214197D01*
X0034570Y0212624D02*
X0036195Y0212624D01*
X0036195Y0211051D02*
X0034570Y0211051D01*
X0034570Y0209478D02*
X0036195Y0209478D01*
X0036829Y0207904D02*
X0033937Y0207904D01*
X0043937Y0207904D02*
X0046829Y0207904D01*
X0046195Y0209478D02*
X0044570Y0209478D01*
X0044570Y0211051D02*
X0046195Y0211051D01*
X0046195Y0212624D02*
X0044570Y0212624D01*
X0044570Y0214197D02*
X0046195Y0214197D01*
X0046195Y0215771D02*
X0044570Y0215771D01*
X0043972Y0217344D02*
X0046794Y0217344D01*
X0048738Y0218917D02*
X0042027Y0218917D01*
X0052027Y0218917D02*
X0058738Y0218917D01*
X0056794Y0217344D02*
X0053972Y0217344D01*
X0054570Y0215771D02*
X0056195Y0215771D01*
X0056195Y0214197D02*
X0054570Y0214197D01*
X0054570Y0212624D02*
X0056195Y0212624D01*
X0056195Y0211051D02*
X0054570Y0211051D01*
X0054570Y0209478D02*
X0056195Y0209478D01*
X0056829Y0207904D02*
X0053937Y0207904D01*
X0063937Y0207904D02*
X0087608Y0207904D01*
X0086035Y0209478D02*
X0064570Y0209478D01*
X0064570Y0211051D02*
X0084462Y0211051D01*
X0082889Y0212624D02*
X0064570Y0212624D01*
X0064570Y0214197D02*
X0081315Y0214197D01*
X0079742Y0215771D02*
X0064570Y0215771D01*
X0063972Y0217344D02*
X0078169Y0217344D01*
X0076595Y0218917D02*
X0062027Y0218917D01*
X0054420Y0234651D02*
X0051543Y0234651D01*
X0052791Y0236224D02*
X0053171Y0236224D01*
X0052986Y0239370D02*
X0052976Y0239370D01*
X0051989Y0240944D02*
X0053973Y0240944D01*
X0046099Y0240944D02*
X0044729Y0240944D01*
X0045102Y0239370D02*
X0045112Y0239370D01*
X0045297Y0236224D02*
X0044917Y0236224D01*
X0043669Y0234651D02*
X0046546Y0234651D01*
X0038672Y0234651D02*
X0037140Y0234651D01*
X0033296Y0234651D02*
X0033296Y0234651D01*
X0033296Y0236224D02*
X0033296Y0236224D01*
X0033296Y0237797D02*
X0033296Y0237797D01*
X0033296Y0239370D02*
X0033296Y0239370D01*
X0033296Y0240944D02*
X0033296Y0240944D01*
X0037358Y0240944D02*
X0037611Y0240944D01*
X0029146Y0239370D02*
X0027868Y0239370D01*
X0029146Y0237797D02*
X0026295Y0237797D01*
X0024722Y0236224D02*
X0029146Y0236224D01*
X0029452Y0234651D02*
X0023148Y0234651D01*
X0014655Y0236224D02*
X0004556Y0236224D01*
X0004556Y0237797D02*
X0009497Y0237797D01*
X0007329Y0239370D02*
X0004556Y0239370D01*
X0004556Y0240944D02*
X0005860Y0240944D01*
X0005209Y0242517D02*
X0004556Y0242517D01*
X0004556Y0244090D02*
X0004557Y0244090D01*
X0004556Y0245664D02*
X0004556Y0245664D01*
X0004556Y0247237D02*
X0004556Y0247237D01*
X0004556Y0248810D02*
X0005018Y0248810D01*
X0004556Y0250384D02*
X0005669Y0250384D01*
X0004556Y0251957D02*
X0006868Y0251957D01*
X0008441Y0253530D02*
X0004556Y0253530D01*
X0018781Y0253530D02*
X0378520Y0253530D01*
X0378560Y0253571D02*
X0376013Y0251024D01*
X0374635Y0247696D01*
X0374635Y0245070D01*
X0374582Y0245123D01*
X0374054Y0245507D01*
X0373472Y0245803D01*
X0372850Y0246005D01*
X0372205Y0246107D01*
X0371879Y0246107D01*
X0371879Y0241958D01*
X0371879Y0241958D01*
X0371879Y0246107D01*
X0371552Y0246107D01*
X0370907Y0246005D01*
X0370286Y0245803D01*
X0369704Y0245507D01*
X0369175Y0245123D01*
X0368714Y0244661D01*
X0368330Y0244132D01*
X0368033Y0243550D01*
X0367831Y0242929D01*
X0367729Y0242284D01*
X0367729Y0241958D01*
X0371879Y0241958D01*
X0371879Y0241957D01*
X0371879Y0237808D01*
X0372205Y0237808D01*
X0372850Y0237910D01*
X0373472Y0238112D01*
X0374054Y0238408D01*
X0374582Y0238792D01*
X0375044Y0239254D01*
X0375428Y0239783D01*
X0375724Y0240365D01*
X0375924Y0240980D01*
X0376013Y0240765D01*
X0378560Y0238218D01*
X0381889Y0236839D01*
X0385491Y0236839D01*
X0388819Y0238218D01*
X0391366Y0240765D01*
X0392745Y0244093D01*
X0392745Y0247696D01*
X0391366Y0251024D01*
X0388819Y0253571D01*
X0385491Y0254950D01*
X0381889Y0254950D01*
X0378560Y0253571D01*
X0376946Y0251957D02*
X0020354Y0251957D01*
X0021553Y0250384D02*
X0375748Y0250384D01*
X0375096Y0248810D02*
X0317209Y0248810D01*
X0317209Y0247237D02*
X0374635Y0247237D01*
X0374635Y0245664D02*
X0373745Y0245664D01*
X0371879Y0245664D02*
X0371879Y0245664D01*
X0371879Y0244090D02*
X0371879Y0244090D01*
X0371879Y0242517D02*
X0371879Y0242517D01*
X0371879Y0241957D02*
X0367729Y0241957D01*
X0367729Y0241631D01*
X0367831Y0240986D01*
X0368033Y0240365D01*
X0368330Y0239783D01*
X0368714Y0239254D01*
X0369175Y0238792D01*
X0369704Y0238408D01*
X0370286Y0238112D01*
X0370907Y0237910D01*
X0371552Y0237808D01*
X0371879Y0237808D01*
X0371879Y0241957D01*
X0371879Y0241957D01*
X0371879Y0240944D02*
X0371879Y0240944D01*
X0371879Y0239370D02*
X0371879Y0239370D01*
X0375128Y0239370D02*
X0377408Y0239370D01*
X0375939Y0240944D02*
X0375913Y0240944D01*
X0379576Y0237797D02*
X0322375Y0237797D01*
X0322375Y0236224D02*
X0392745Y0236224D01*
X0392745Y0237797D02*
X0387803Y0237797D01*
X0389972Y0239370D02*
X0392745Y0239370D01*
X0392745Y0240944D02*
X0391440Y0240944D01*
X0392092Y0242517D02*
X0392745Y0242517D01*
X0392744Y0244090D02*
X0392745Y0244090D01*
X0392745Y0245664D02*
X0392745Y0245664D01*
X0392745Y0247237D02*
X0392745Y0247237D01*
X0392745Y0248810D02*
X0392283Y0248810D01*
X0392745Y0250384D02*
X0391631Y0250384D01*
X0392745Y0251957D02*
X0390433Y0251957D01*
X0388860Y0253530D02*
X0392745Y0253530D01*
X0370012Y0245664D02*
X0358026Y0245664D01*
X0358481Y0245475D02*
X0356956Y0246107D01*
X0355305Y0246107D01*
X0353780Y0245475D01*
X0352613Y0244308D01*
X0351981Y0242783D01*
X0351981Y0241132D01*
X0352613Y0239607D01*
X0353780Y0238440D01*
X0355305Y0237808D01*
X0356956Y0237808D01*
X0358481Y0238440D01*
X0359649Y0239607D01*
X0360280Y0241132D01*
X0360280Y0242783D01*
X0359649Y0244308D01*
X0358481Y0245475D01*
X0359739Y0244090D02*
X0368308Y0244090D01*
X0367766Y0242517D02*
X0360280Y0242517D01*
X0360202Y0240944D02*
X0367845Y0240944D01*
X0368629Y0239370D02*
X0359412Y0239370D01*
X0352849Y0239370D02*
X0339727Y0239370D01*
X0339964Y0239607D02*
X0340595Y0241132D01*
X0340595Y0242783D01*
X0339964Y0244308D01*
X0338796Y0245475D01*
X0337271Y0246107D01*
X0335620Y0246107D01*
X0334095Y0245475D01*
X0332928Y0244308D01*
X0332296Y0242783D01*
X0332296Y0241132D01*
X0332928Y0239607D01*
X0334095Y0238440D01*
X0335620Y0237808D01*
X0337271Y0237808D01*
X0338796Y0238440D01*
X0339964Y0239607D01*
X0340517Y0240944D02*
X0352059Y0240944D01*
X0351981Y0242517D02*
X0340595Y0242517D01*
X0340054Y0244090D02*
X0352523Y0244090D01*
X0354235Y0245664D02*
X0338341Y0245664D01*
X0334550Y0245664D02*
X0317209Y0245664D01*
X0318151Y0244090D02*
X0332838Y0244090D01*
X0332296Y0242517D02*
X0319724Y0242517D01*
X0321298Y0240944D02*
X0332374Y0240944D01*
X0333164Y0239370D02*
X0322351Y0239370D01*
X0322375Y0234651D02*
X0392745Y0234651D01*
X0392745Y0233077D02*
X0322375Y0233077D01*
X0322375Y0231504D02*
X0392745Y0231504D01*
X0392745Y0229931D02*
X0387664Y0229931D01*
X0387865Y0229729D02*
X0387328Y0230266D01*
X0386697Y0230688D01*
X0385995Y0230979D01*
X0385250Y0231127D01*
X0384871Y0231127D01*
X0384871Y0227273D01*
X0384871Y0227273D01*
X0384871Y0231127D01*
X0384491Y0231127D01*
X0383747Y0230979D01*
X0383045Y0230688D01*
X0382414Y0230266D01*
X0381877Y0229729D01*
X0381455Y0229098D01*
X0381165Y0228397D01*
X0381017Y0227652D01*
X0381017Y0227272D01*
X0384871Y0227272D01*
X0384871Y0227272D01*
X0388725Y0227272D01*
X0388725Y0227652D01*
X0388577Y0228397D01*
X0388287Y0229098D01*
X0387865Y0229729D01*
X0388585Y0228357D02*
X0392745Y0228357D01*
X0392745Y0226784D02*
X0388704Y0226784D01*
X0388129Y0225211D02*
X0392745Y0225211D01*
X0392745Y0223637D02*
X0388051Y0223637D01*
X0388725Y0222064D02*
X0392745Y0222064D01*
X0392745Y0220491D02*
X0388680Y0220491D01*
X0381613Y0225211D02*
X0368444Y0225211D01*
X0369018Y0226784D02*
X0381038Y0226784D01*
X0381157Y0228357D02*
X0368900Y0228357D01*
X0368892Y0228397D02*
X0369040Y0227652D01*
X0369040Y0227272D01*
X0365186Y0227272D01*
X0365186Y0227272D01*
X0361331Y0227272D01*
X0361331Y0227652D01*
X0361480Y0228397D01*
X0361770Y0229098D01*
X0362192Y0229729D01*
X0362729Y0230266D01*
X0363360Y0230688D01*
X0364062Y0230979D01*
X0364806Y0231127D01*
X0365186Y0231127D01*
X0365186Y0227273D01*
X0365186Y0227273D01*
X0365186Y0231127D01*
X0365565Y0231127D01*
X0366310Y0230979D01*
X0367012Y0230688D01*
X0367643Y0230266D01*
X0368180Y0229729D01*
X0368601Y0229098D01*
X0368892Y0228397D01*
X0367979Y0229931D02*
X0382078Y0229931D01*
X0384871Y0229931D02*
X0384871Y0229931D01*
X0384871Y0228357D02*
X0384871Y0228357D01*
X0365186Y0228357D02*
X0365186Y0228357D01*
X0365186Y0229931D02*
X0365186Y0229931D01*
X0362393Y0229931D02*
X0348293Y0229931D01*
X0349215Y0228357D02*
X0361472Y0228357D01*
X0361353Y0226784D02*
X0349333Y0226784D01*
X0348759Y0225211D02*
X0361928Y0225211D01*
X0362572Y0212624D02*
X0348114Y0212624D01*
X0349053Y0211051D02*
X0361633Y0211051D01*
X0361331Y0209478D02*
X0349355Y0209478D01*
X0348989Y0207904D02*
X0361698Y0207904D01*
X0362960Y0206331D02*
X0347727Y0206331D01*
X0343275Y0206331D02*
X0328042Y0206331D01*
X0329303Y0207904D02*
X0342013Y0207904D01*
X0341646Y0209478D02*
X0329670Y0209478D01*
X0329368Y0211051D02*
X0341948Y0211051D01*
X0342887Y0212624D02*
X0328429Y0212624D01*
X0329074Y0225211D02*
X0342243Y0225211D01*
X0341668Y0226784D02*
X0329648Y0226784D01*
X0329530Y0228357D02*
X0341787Y0228357D01*
X0341646Y0227272D02*
X0345501Y0227272D01*
X0341646Y0227272D01*
X0342708Y0229931D02*
X0328608Y0229931D01*
X0325816Y0229931D02*
X0325816Y0229931D01*
X0325816Y0228357D02*
X0325816Y0228357D01*
X0323023Y0229931D02*
X0322375Y0229931D01*
X0345501Y0229931D02*
X0345501Y0229931D01*
X0345501Y0228357D02*
X0345501Y0228357D01*
X0345501Y0227272D02*
X0345501Y0227272D01*
X0367799Y0212624D02*
X0382257Y0212624D01*
X0381318Y0211051D02*
X0368738Y0211051D01*
X0369040Y0209478D02*
X0381017Y0209478D01*
X0381383Y0207904D02*
X0368674Y0207904D01*
X0367412Y0206331D02*
X0382645Y0206331D01*
X0276942Y0234651D02*
X0248393Y0234651D01*
X0249642Y0236224D02*
X0276942Y0236224D01*
X0276942Y0237797D02*
X0250044Y0237797D01*
X0249827Y0239370D02*
X0277079Y0239370D01*
X0277058Y0240944D02*
X0248840Y0240944D01*
X0276942Y0242517D02*
X0202209Y0242517D01*
X0202209Y0240944D02*
X0203579Y0240944D01*
X0202592Y0239370D02*
X0202583Y0239370D01*
X0202398Y0236224D02*
X0202777Y0236224D01*
X0204026Y0234651D02*
X0201149Y0234651D01*
X0196152Y0234651D02*
X0194621Y0234651D01*
X0190776Y0234651D02*
X0190776Y0234651D01*
X0190776Y0236224D02*
X0190776Y0236224D01*
X0190776Y0237797D02*
X0190776Y0237797D01*
X0190776Y0239370D02*
X0190776Y0239370D01*
X0190776Y0240944D02*
X0190776Y0240944D01*
X0194839Y0240944D02*
X0195091Y0240944D01*
X0202209Y0244090D02*
X0276942Y0244090D01*
X0276942Y0245664D02*
X0202209Y0245664D01*
X0201947Y0247237D02*
X0276942Y0247237D01*
X0276942Y0248810D02*
X0200768Y0248810D01*
X0209469Y0240944D02*
X0211453Y0240944D01*
X0210466Y0239370D02*
X0210457Y0239370D01*
X0210272Y0236224D02*
X0210651Y0236224D01*
X0211900Y0234651D02*
X0209023Y0234651D01*
X0186932Y0234651D02*
X0169653Y0234651D01*
X0170902Y0236224D02*
X0186627Y0236224D01*
X0186627Y0237797D02*
X0171304Y0237797D01*
X0171087Y0239370D02*
X0186627Y0239370D01*
X0186714Y0240944D02*
X0170099Y0240944D01*
X0164209Y0240944D02*
X0162225Y0240944D01*
X0163213Y0239370D02*
X0163222Y0239370D01*
X0163028Y0236224D02*
X0163407Y0236224D01*
X0164656Y0234651D02*
X0161779Y0234651D01*
X0156782Y0234651D02*
X0153905Y0234651D01*
X0155154Y0236224D02*
X0155533Y0236224D01*
X0155339Y0239370D02*
X0155348Y0239370D01*
X0156335Y0240944D02*
X0154351Y0240944D01*
X0148461Y0240944D02*
X0146477Y0240944D01*
X0147465Y0239370D02*
X0147474Y0239370D01*
X0147280Y0236224D02*
X0147659Y0236224D01*
X0148908Y0234651D02*
X0146031Y0234651D01*
X0141034Y0234651D02*
X0138157Y0234651D01*
X0139406Y0236224D02*
X0139785Y0236224D01*
X0139591Y0239370D02*
X0139600Y0239370D01*
X0140587Y0240944D02*
X0138603Y0240944D01*
X0132713Y0240944D02*
X0130729Y0240944D01*
X0131717Y0239370D02*
X0131726Y0239370D01*
X0131532Y0236224D02*
X0131911Y0236224D01*
X0133160Y0234651D02*
X0130283Y0234651D01*
X0125286Y0234651D02*
X0122409Y0234651D01*
X0123658Y0236224D02*
X0124037Y0236224D01*
X0123843Y0239370D02*
X0123852Y0239370D01*
X0123469Y0240944D02*
X0124839Y0240944D01*
X0116351Y0240944D02*
X0116099Y0240944D01*
X0112036Y0240944D02*
X0112036Y0240944D01*
X0112036Y0239370D02*
X0112036Y0239370D01*
X0112036Y0237797D02*
X0112036Y0237797D01*
X0112036Y0236224D02*
X0112036Y0236224D01*
X0112036Y0234651D02*
X0112036Y0234651D01*
X0108192Y0234651D02*
X0090913Y0234651D01*
X0092161Y0236224D02*
X0107887Y0236224D01*
X0107887Y0237797D02*
X0092564Y0237797D01*
X0092346Y0239370D02*
X0107887Y0239370D01*
X0107974Y0240944D02*
X0091359Y0240944D01*
X0115881Y0234651D02*
X0117412Y0234651D01*
X0106206Y0211051D02*
X0091188Y0211051D01*
X0090763Y0212624D02*
X0089614Y0212624D01*
X0092761Y0209478D02*
X0104129Y0209478D01*
X0027242Y0248810D02*
X0022204Y0248810D01*
X0022666Y0247237D02*
X0025668Y0247237D01*
X0024095Y0245664D02*
X0022666Y0245664D01*
X0013082Y0234651D02*
X0004556Y0234651D01*
X0004556Y0233077D02*
X0011509Y0233077D01*
X0009935Y0231504D02*
X0004556Y0231504D01*
X0004556Y0229931D02*
X0008362Y0229931D01*
X0006789Y0228357D02*
X0004556Y0228357D01*
X0004556Y0226784D02*
X0005215Y0226784D01*
X0386488Y0022253D02*
X0392745Y0022253D01*
X0392745Y0020680D02*
X0389427Y0020680D01*
X0391000Y0019106D02*
X0392745Y0019106D01*
X0392745Y0017533D02*
X0391866Y0017533D01*
X0392518Y0015960D02*
X0392745Y0015960D01*
X0392745Y0014387D02*
X0392745Y0014387D01*
X0392745Y0012813D02*
X0392745Y0012813D01*
X0392745Y0011240D02*
X0392509Y0011240D01*
X0392745Y0009667D02*
X0391857Y0009667D01*
X0390978Y0008093D02*
X0392745Y0008093D01*
X0392745Y0006520D02*
X0389405Y0006520D01*
X0386434Y0004947D02*
X0392745Y0004947D01*
D24*
X0167800Y0104800D03*
D25*
X0169800Y0102800D01*
X0167800Y0123800D02*
X0183800Y0123800D01*
X0238020Y0178020D01*
X0238020Y0238020D01*
X0222272Y0238020D02*
X0222272Y0176272D01*
X0177800Y0131800D01*
X0163800Y0131800D01*
X0123800Y0091800D01*
X0112737Y0091800D01*
X0107863Y0086926D01*
X0112737Y0081800D02*
X0125800Y0081800D01*
X0167800Y0123800D01*
X0179800Y0140800D02*
X0153674Y0166926D01*
X0117863Y0166926D01*
X0117989Y0166800D01*
X0111800Y0171800D02*
X0159800Y0171800D01*
X0185800Y0145800D01*
X0247863Y0136926D02*
X0252737Y0141800D01*
X0261800Y0141800D01*
X0281800Y0161800D01*
X0281800Y0166800D01*
X0287800Y0148800D02*
X0304800Y0165800D01*
X0330800Y0165800D01*
X0335800Y0170800D01*
X0345800Y0170800D01*
X0336800Y0161800D02*
X0331800Y0156800D01*
X0331800Y0141800D01*
X0326800Y0136800D01*
X0311800Y0136800D01*
X0276800Y0101800D01*
X0252737Y0101800D01*
X0247863Y0096926D01*
X0252737Y0091800D02*
X0247863Y0086926D01*
X0252737Y0091800D02*
X0286800Y0091800D01*
X0311800Y0116800D01*
X0326800Y0116800D01*
X0342800Y0132800D01*
X0342800Y0146800D01*
X0347800Y0151800D01*
X0366800Y0151800D01*
X0371800Y0146800D02*
X0376800Y0151800D01*
X0371800Y0146800D02*
X0351800Y0146800D01*
X0346800Y0141800D01*
X0346800Y0126800D01*
X0330894Y0110894D01*
X0330894Y0109831D01*
X0327863Y0106800D01*
X0311800Y0106800D01*
X0291926Y0086926D01*
X0257863Y0086926D01*
X0257863Y0096926D02*
X0281926Y0096926D01*
X0311800Y0126800D01*
X0326800Y0126800D01*
X0336800Y0136800D01*
X0336800Y0151800D01*
X0341800Y0156800D01*
X0371800Y0156800D01*
X0376800Y0161800D01*
X0366800Y0161800D02*
X0336800Y0161800D01*
X0316800Y0186800D02*
X0266926Y0136926D01*
X0257863Y0136926D01*
X0316800Y0186800D02*
X0371800Y0186800D01*
X0386800Y0171800D01*
X0386800Y0141800D01*
X0376800Y0131800D01*
X0376800Y0121800D02*
X0371800Y0116800D01*
X0361800Y0116800D01*
X0351800Y0126800D01*
X0351800Y0131800D01*
X0276083Y0215146D02*
X0257863Y0196926D01*
X0252800Y0191863D02*
X0252800Y0212800D01*
X0265146Y0225146D01*
X0282076Y0225146D01*
X0282076Y0215146D02*
X0276083Y0215146D01*
X0252800Y0191863D02*
X0247863Y0186926D01*
X0312076Y0225146D02*
X0315454Y0225146D01*
X0318800Y0221800D01*
X0318800Y0216572D01*
X0325816Y0209556D01*
X0325816Y0215461D02*
X0345501Y0215461D01*
X0365186Y0215461D01*
X0384871Y0215461D01*
X0366800Y0051800D02*
X0366800Y0007800D01*
X0364737Y0005737D01*
X0344320Y0016367D02*
X0337753Y0009800D01*
X0306792Y0009800D01*
X0301013Y0015580D01*
X0156769Y0031312D02*
X0122249Y0031312D01*
X0117863Y0026926D01*
X0129761Y0017761D02*
X0132863Y0017761D01*
X0129761Y0017761D02*
X0122800Y0010800D01*
X0093800Y0010800D01*
X0082800Y0019800D02*
X0067800Y0019800D01*
X0060312Y0015288D02*
X0060312Y0025241D01*
X0060312Y0015288D02*
X0063800Y0011800D01*
X0073800Y0011800D01*
X0082800Y0019800D02*
X0104800Y0041800D01*
X0119800Y0041800D01*
X0123800Y0045800D01*
X0123800Y0060989D01*
X0117863Y0066926D01*
X0112989Y0061800D02*
X0095800Y0061800D01*
X0090013Y0056013D01*
X0077824Y0056013D01*
X0077824Y0046013D02*
X0096950Y0046013D01*
X0107863Y0056926D01*
X0112989Y0061800D02*
X0117863Y0056926D01*
X0107863Y0076926D02*
X0112737Y0081800D01*
X0079753Y0092351D02*
X0058099Y0092351D01*
X0036446Y0092351D01*
X0014792Y0092351D01*
X0029359Y0092351D02*
X0036446Y0092351D01*
X0029359Y0092351D02*
X0029359Y0060855D01*
X0044202Y0046013D01*
X0047824Y0046013D01*
X0063871Y0042855D02*
X0070713Y0036013D01*
X0077824Y0036013D01*
X0021485Y0056918D02*
X0019517Y0056918D01*
X0013611Y0051013D01*
X0032902Y0151800D02*
X0112737Y0151800D01*
X0117863Y0156926D01*
X0107863Y0166926D02*
X0107863Y0167863D01*
X0111800Y0171800D01*
X0107863Y0166926D02*
X0066123Y0166926D01*
X0032902Y0151800D02*
X0017548Y0175028D01*
X0064792Y0234083D02*
X0091950Y0206926D01*
X0107863Y0206926D01*
X0110391Y0214398D02*
X0117863Y0206926D01*
X0110391Y0214398D02*
X0092351Y0214398D01*
X0072666Y0234083D01*
X0072666Y0238020D01*
X0064792Y0238020D02*
X0064792Y0234083D01*
D26*
X0139595Y0042351D02*
X0150635Y0031312D01*
X0156769Y0031312D01*
X0174721Y0031312D02*
X0181824Y0038414D01*
X0190776Y0038414D01*
D27*
X0093800Y0010800D03*
X0073800Y0011800D03*
X0067800Y0019800D03*
X0013611Y0051013D03*
X0179800Y0140800D03*
X0185800Y0145800D03*
X0281800Y0166800D03*
X0287800Y0148800D03*
X0345800Y0170800D03*
X0351800Y0131800D03*
D28*
X0198650Y0238020D02*
X0198650Y0245894D01*
X0119910Y0245894D01*
X0119910Y0238020D01*
X0119910Y0245894D02*
X0041170Y0245894D01*
X0041170Y0238020D01*
X0041170Y0245894D02*
X0029359Y0245894D01*
X0005737Y0222272D01*
X0005737Y0096288D01*
X0005737Y0072666D01*
X0021485Y0056918D01*
X0042391Y0036013D01*
X0038894Y0032517D01*
X0038894Y0015769D01*
X0042391Y0036013D02*
X0047824Y0036013D01*
X0058099Y0098257D02*
X0036446Y0098257D01*
X0014792Y0098257D01*
X0007706Y0098257D01*
X0005737Y0096288D01*
X0058099Y0098257D02*
X0079753Y0098257D01*
D29*
X0154213Y0010804D02*
X0174721Y0031312D01*
X0154213Y0010804D02*
X0151406Y0013611D01*
X0154213Y0010804D02*
X0149146Y0005737D01*
X0247863Y0005737D01*
X0364737Y0005737D01*
X0247863Y0005737D02*
X0247863Y0016926D01*
X0235643Y0016926D01*
X0235643Y0014674D01*
X0149146Y0005737D02*
X0045107Y0005737D01*
X0038894Y0011950D01*
X0038894Y0015769D01*
D30*
X0151406Y0013611D03*
M02*
