%
M48
M72
T01C0.01575
T02C0.02362
T03C0.02756
T04C0.03150
T05C0.03200
T06C0.03543
T07C0.03600
T08C0.03937
T09C0.04000
T10C0.12598
%
T01
X67800Y19800
X73800Y11800
X93800Y10800
X13611Y51013
X179800Y140800
X185800Y145800
X281800Y166800
X287800Y148800
X345800Y170800
X351800Y131800
T02
X167800Y104800
X151406Y13611
T03
X79753Y86446
X79753Y92351
X79753Y98257
X79753Y104162
X58099Y104162
X58099Y98257
X58099Y92351
X58099Y86446
X36446Y86446
X36446Y92351
X36446Y98257
X36446Y104162
X14792Y104162
X14792Y98257
X14792Y92351
X14792Y86446
X283139Y199713
X293139Y199713
X303139Y199713
X325816Y209556
X325816Y215461
X325816Y221367
X325816Y227272
X345501Y227272
X345501Y221367
X345501Y215461
X345501Y209556
X365186Y209556
X365186Y215461
X365186Y221367
X365186Y227272
X384871Y227272
X384871Y221367
X384871Y215461
X384871Y209556
X356131Y16367
X350225Y16367
X344320Y16367
X338414Y16367
T04
X316761Y15580
X308887Y15580
X301013Y15580
X293139Y15580
X46769Y15769
X38894Y15769
X9674Y33296
X9674Y45107
X9674Y56918
X17548Y151406
X17548Y175028
X17548Y190776
X33296Y238020
X41170Y238020
X49044Y238020
X56918Y238020
X64792Y238020
X72666Y238020
X80540Y238020
X88414Y238020
X112036Y238020
X119910Y238020
X127784Y238020
X135658Y238020
X143532Y238020
X151406Y238020
X159280Y238020
X167154Y238020
X190776Y238020
X198650Y238020
X206524Y238020
X214398Y238020
X222272Y238020
X230146Y238020
X238020Y238020
X245894Y238020
X336446Y241957
X356131Y241957
X371879Y241957
T05
X60383Y212666
X50383Y212666
X40383Y212666
X30383Y212666
X20383Y212666
X20383Y132666
X30383Y132666
X40383Y132666
X50383Y132666
X60383Y132666
T06
X107863Y136926
X117863Y136926
X117863Y146926
X107863Y146926
X107863Y156926
X117863Y156926
X117863Y166926
X107863Y166926
X107863Y176926
X117863Y176926
X117863Y186926
X107863Y186926
X107863Y196926
X117863Y196926
X117863Y206926
X107863Y206926
X107863Y126926
X117863Y126926
X117863Y116926
X107863Y116926
X107863Y106926
X117863Y106926
X117863Y96926
X107863Y96926
X107863Y86926
X117863Y86926
X117863Y76926
X107863Y76926
X107863Y66926
X117863Y66926
X117863Y56926
X107863Y56926
X107863Y46926
X117863Y46926
X117863Y36926
X107863Y36926
X107863Y26926
X117863Y26926
X117863Y16926
X107863Y16926
X247863Y16926
X257863Y16926
X257863Y26926
X247863Y26926
X247863Y36926
X257863Y36926
X257863Y46926
X247863Y46926
X247863Y56926
X257863Y56926
X257863Y66926
X247863Y66926
X247863Y76926
X257863Y76926
X257863Y86926
X247863Y86926
X247863Y96926
X257863Y96926
X257863Y106926
X247863Y106926
X247863Y116926
X257863Y116926
X257863Y126926
X247863Y126926
X247863Y136926
X257863Y136926
X257863Y146926
X247863Y146926
X247863Y156926
X257863Y156926
X257863Y166926
X247863Y166926
X247863Y176926
X257863Y176926
X257863Y186926
X247863Y186926
X247863Y196926
X257863Y196926
X257863Y206926
X247863Y206926
T07
X366800Y171800
X376800Y171800
X376800Y161800
X366800Y161800
X366800Y151800
X376800Y151800
X376800Y141800
X366800Y141800
X366800Y131800
X376800Y131800
X376800Y121800
X366800Y121800
X366800Y111800
X376800Y111800
X376800Y101800
X366800Y101800
X366800Y91800
X376800Y91800
X376800Y81800
X366800Y81800
X366800Y71800
X376800Y71800
X376800Y61800
X366800Y61800
X366800Y51800
X376800Y51800
T08
X312076Y215146
X312076Y225146
X312076Y235146
X312076Y245146
X282076Y245146
X282076Y235146
X282076Y225146
X282076Y215146
X77824Y66013
X77824Y56013
X77824Y46013
X77824Y36013
X47824Y36013
X47824Y46013
X47824Y56013
X47824Y66013
T09
X323572Y62745
X323572Y72587
X323572Y82430
X323572Y92272
X323572Y102115
X323572Y111957
X323572Y121800
X323572Y131643
X323572Y141485
X323572Y151328
X323572Y161170
X323572Y171013
X323572Y52902
X323572Y43060
T10
X13611Y13611
X13611Y245894
X383690Y245894
X383690Y13611
M30
