G75*
%MOIN*%
%OFA0B0*%
%FSLAX25Y25*%
%IPPOS*%
%LPD*%
%AMOC8*
5,1,8,0,0,1.08239X$1,22.5*
%
%ADD10C,0.00000*%
D10*
X0049997Y0096538D02*
X0049997Y0254018D01*
X0168107Y0254018D01*
X0168107Y0096538D01*
X0049997Y0096538D01*
X0055509Y0108349D02*
X0055511Y0108507D01*
X0055517Y0108665D01*
X0055527Y0108823D01*
X0055541Y0108981D01*
X0055559Y0109138D01*
X0055580Y0109295D01*
X0055606Y0109451D01*
X0055636Y0109607D01*
X0055669Y0109762D01*
X0055707Y0109915D01*
X0055748Y0110068D01*
X0055793Y0110220D01*
X0055842Y0110371D01*
X0055895Y0110520D01*
X0055951Y0110668D01*
X0056011Y0110814D01*
X0056075Y0110959D01*
X0056143Y0111102D01*
X0056214Y0111244D01*
X0056288Y0111384D01*
X0056366Y0111521D01*
X0056448Y0111657D01*
X0056532Y0111791D01*
X0056621Y0111922D01*
X0056712Y0112051D01*
X0056807Y0112178D01*
X0056904Y0112303D01*
X0057005Y0112425D01*
X0057109Y0112544D01*
X0057216Y0112661D01*
X0057326Y0112775D01*
X0057439Y0112886D01*
X0057554Y0112995D01*
X0057672Y0113100D01*
X0057793Y0113202D01*
X0057916Y0113302D01*
X0058042Y0113398D01*
X0058170Y0113491D01*
X0058300Y0113581D01*
X0058433Y0113667D01*
X0058568Y0113751D01*
X0058704Y0113830D01*
X0058843Y0113907D01*
X0058984Y0113979D01*
X0059126Y0114049D01*
X0059270Y0114114D01*
X0059416Y0114176D01*
X0059563Y0114234D01*
X0059712Y0114289D01*
X0059862Y0114340D01*
X0060013Y0114387D01*
X0060165Y0114430D01*
X0060318Y0114469D01*
X0060473Y0114505D01*
X0060628Y0114536D01*
X0060784Y0114564D01*
X0060940Y0114588D01*
X0061097Y0114608D01*
X0061255Y0114624D01*
X0061412Y0114636D01*
X0061571Y0114644D01*
X0061729Y0114648D01*
X0061887Y0114648D01*
X0062045Y0114644D01*
X0062204Y0114636D01*
X0062361Y0114624D01*
X0062519Y0114608D01*
X0062676Y0114588D01*
X0062832Y0114564D01*
X0062988Y0114536D01*
X0063143Y0114505D01*
X0063298Y0114469D01*
X0063451Y0114430D01*
X0063603Y0114387D01*
X0063754Y0114340D01*
X0063904Y0114289D01*
X0064053Y0114234D01*
X0064200Y0114176D01*
X0064346Y0114114D01*
X0064490Y0114049D01*
X0064632Y0113979D01*
X0064773Y0113907D01*
X0064912Y0113830D01*
X0065048Y0113751D01*
X0065183Y0113667D01*
X0065316Y0113581D01*
X0065446Y0113491D01*
X0065574Y0113398D01*
X0065700Y0113302D01*
X0065823Y0113202D01*
X0065944Y0113100D01*
X0066062Y0112995D01*
X0066177Y0112886D01*
X0066290Y0112775D01*
X0066400Y0112661D01*
X0066507Y0112544D01*
X0066611Y0112425D01*
X0066712Y0112303D01*
X0066809Y0112178D01*
X0066904Y0112051D01*
X0066995Y0111922D01*
X0067084Y0111791D01*
X0067168Y0111657D01*
X0067250Y0111521D01*
X0067328Y0111384D01*
X0067402Y0111244D01*
X0067473Y0111102D01*
X0067541Y0110959D01*
X0067605Y0110814D01*
X0067665Y0110668D01*
X0067721Y0110520D01*
X0067774Y0110371D01*
X0067823Y0110220D01*
X0067868Y0110068D01*
X0067909Y0109915D01*
X0067947Y0109762D01*
X0067980Y0109607D01*
X0068010Y0109451D01*
X0068036Y0109295D01*
X0068057Y0109138D01*
X0068075Y0108981D01*
X0068089Y0108823D01*
X0068099Y0108665D01*
X0068105Y0108507D01*
X0068107Y0108349D01*
X0068105Y0108191D01*
X0068099Y0108033D01*
X0068089Y0107875D01*
X0068075Y0107717D01*
X0068057Y0107560D01*
X0068036Y0107403D01*
X0068010Y0107247D01*
X0067980Y0107091D01*
X0067947Y0106936D01*
X0067909Y0106783D01*
X0067868Y0106630D01*
X0067823Y0106478D01*
X0067774Y0106327D01*
X0067721Y0106178D01*
X0067665Y0106030D01*
X0067605Y0105884D01*
X0067541Y0105739D01*
X0067473Y0105596D01*
X0067402Y0105454D01*
X0067328Y0105314D01*
X0067250Y0105177D01*
X0067168Y0105041D01*
X0067084Y0104907D01*
X0066995Y0104776D01*
X0066904Y0104647D01*
X0066809Y0104520D01*
X0066712Y0104395D01*
X0066611Y0104273D01*
X0066507Y0104154D01*
X0066400Y0104037D01*
X0066290Y0103923D01*
X0066177Y0103812D01*
X0066062Y0103703D01*
X0065944Y0103598D01*
X0065823Y0103496D01*
X0065700Y0103396D01*
X0065574Y0103300D01*
X0065446Y0103207D01*
X0065316Y0103117D01*
X0065183Y0103031D01*
X0065048Y0102947D01*
X0064912Y0102868D01*
X0064773Y0102791D01*
X0064632Y0102719D01*
X0064490Y0102649D01*
X0064346Y0102584D01*
X0064200Y0102522D01*
X0064053Y0102464D01*
X0063904Y0102409D01*
X0063754Y0102358D01*
X0063603Y0102311D01*
X0063451Y0102268D01*
X0063298Y0102229D01*
X0063143Y0102193D01*
X0062988Y0102162D01*
X0062832Y0102134D01*
X0062676Y0102110D01*
X0062519Y0102090D01*
X0062361Y0102074D01*
X0062204Y0102062D01*
X0062045Y0102054D01*
X0061887Y0102050D01*
X0061729Y0102050D01*
X0061571Y0102054D01*
X0061412Y0102062D01*
X0061255Y0102074D01*
X0061097Y0102090D01*
X0060940Y0102110D01*
X0060784Y0102134D01*
X0060628Y0102162D01*
X0060473Y0102193D01*
X0060318Y0102229D01*
X0060165Y0102268D01*
X0060013Y0102311D01*
X0059862Y0102358D01*
X0059712Y0102409D01*
X0059563Y0102464D01*
X0059416Y0102522D01*
X0059270Y0102584D01*
X0059126Y0102649D01*
X0058984Y0102719D01*
X0058843Y0102791D01*
X0058704Y0102868D01*
X0058568Y0102947D01*
X0058433Y0103031D01*
X0058300Y0103117D01*
X0058170Y0103207D01*
X0058042Y0103300D01*
X0057916Y0103396D01*
X0057793Y0103496D01*
X0057672Y0103598D01*
X0057554Y0103703D01*
X0057439Y0103812D01*
X0057326Y0103923D01*
X0057216Y0104037D01*
X0057109Y0104154D01*
X0057005Y0104273D01*
X0056904Y0104395D01*
X0056807Y0104520D01*
X0056712Y0104647D01*
X0056621Y0104776D01*
X0056532Y0104907D01*
X0056448Y0105041D01*
X0056366Y0105177D01*
X0056288Y0105314D01*
X0056214Y0105454D01*
X0056143Y0105596D01*
X0056075Y0105739D01*
X0056011Y0105884D01*
X0055951Y0106030D01*
X0055895Y0106178D01*
X0055842Y0106327D01*
X0055793Y0106478D01*
X0055748Y0106630D01*
X0055707Y0106783D01*
X0055669Y0106936D01*
X0055636Y0107091D01*
X0055606Y0107247D01*
X0055580Y0107403D01*
X0055559Y0107560D01*
X0055541Y0107717D01*
X0055527Y0107875D01*
X0055517Y0108033D01*
X0055511Y0108191D01*
X0055509Y0108349D01*
X0055509Y0242207D02*
X0055511Y0242365D01*
X0055517Y0242523D01*
X0055527Y0242681D01*
X0055541Y0242839D01*
X0055559Y0242996D01*
X0055580Y0243153D01*
X0055606Y0243309D01*
X0055636Y0243465D01*
X0055669Y0243620D01*
X0055707Y0243773D01*
X0055748Y0243926D01*
X0055793Y0244078D01*
X0055842Y0244229D01*
X0055895Y0244378D01*
X0055951Y0244526D01*
X0056011Y0244672D01*
X0056075Y0244817D01*
X0056143Y0244960D01*
X0056214Y0245102D01*
X0056288Y0245242D01*
X0056366Y0245379D01*
X0056448Y0245515D01*
X0056532Y0245649D01*
X0056621Y0245780D01*
X0056712Y0245909D01*
X0056807Y0246036D01*
X0056904Y0246161D01*
X0057005Y0246283D01*
X0057109Y0246402D01*
X0057216Y0246519D01*
X0057326Y0246633D01*
X0057439Y0246744D01*
X0057554Y0246853D01*
X0057672Y0246958D01*
X0057793Y0247060D01*
X0057916Y0247160D01*
X0058042Y0247256D01*
X0058170Y0247349D01*
X0058300Y0247439D01*
X0058433Y0247525D01*
X0058568Y0247609D01*
X0058704Y0247688D01*
X0058843Y0247765D01*
X0058984Y0247837D01*
X0059126Y0247907D01*
X0059270Y0247972D01*
X0059416Y0248034D01*
X0059563Y0248092D01*
X0059712Y0248147D01*
X0059862Y0248198D01*
X0060013Y0248245D01*
X0060165Y0248288D01*
X0060318Y0248327D01*
X0060473Y0248363D01*
X0060628Y0248394D01*
X0060784Y0248422D01*
X0060940Y0248446D01*
X0061097Y0248466D01*
X0061255Y0248482D01*
X0061412Y0248494D01*
X0061571Y0248502D01*
X0061729Y0248506D01*
X0061887Y0248506D01*
X0062045Y0248502D01*
X0062204Y0248494D01*
X0062361Y0248482D01*
X0062519Y0248466D01*
X0062676Y0248446D01*
X0062832Y0248422D01*
X0062988Y0248394D01*
X0063143Y0248363D01*
X0063298Y0248327D01*
X0063451Y0248288D01*
X0063603Y0248245D01*
X0063754Y0248198D01*
X0063904Y0248147D01*
X0064053Y0248092D01*
X0064200Y0248034D01*
X0064346Y0247972D01*
X0064490Y0247907D01*
X0064632Y0247837D01*
X0064773Y0247765D01*
X0064912Y0247688D01*
X0065048Y0247609D01*
X0065183Y0247525D01*
X0065316Y0247439D01*
X0065446Y0247349D01*
X0065574Y0247256D01*
X0065700Y0247160D01*
X0065823Y0247060D01*
X0065944Y0246958D01*
X0066062Y0246853D01*
X0066177Y0246744D01*
X0066290Y0246633D01*
X0066400Y0246519D01*
X0066507Y0246402D01*
X0066611Y0246283D01*
X0066712Y0246161D01*
X0066809Y0246036D01*
X0066904Y0245909D01*
X0066995Y0245780D01*
X0067084Y0245649D01*
X0067168Y0245515D01*
X0067250Y0245379D01*
X0067328Y0245242D01*
X0067402Y0245102D01*
X0067473Y0244960D01*
X0067541Y0244817D01*
X0067605Y0244672D01*
X0067665Y0244526D01*
X0067721Y0244378D01*
X0067774Y0244229D01*
X0067823Y0244078D01*
X0067868Y0243926D01*
X0067909Y0243773D01*
X0067947Y0243620D01*
X0067980Y0243465D01*
X0068010Y0243309D01*
X0068036Y0243153D01*
X0068057Y0242996D01*
X0068075Y0242839D01*
X0068089Y0242681D01*
X0068099Y0242523D01*
X0068105Y0242365D01*
X0068107Y0242207D01*
X0068105Y0242049D01*
X0068099Y0241891D01*
X0068089Y0241733D01*
X0068075Y0241575D01*
X0068057Y0241418D01*
X0068036Y0241261D01*
X0068010Y0241105D01*
X0067980Y0240949D01*
X0067947Y0240794D01*
X0067909Y0240641D01*
X0067868Y0240488D01*
X0067823Y0240336D01*
X0067774Y0240185D01*
X0067721Y0240036D01*
X0067665Y0239888D01*
X0067605Y0239742D01*
X0067541Y0239597D01*
X0067473Y0239454D01*
X0067402Y0239312D01*
X0067328Y0239172D01*
X0067250Y0239035D01*
X0067168Y0238899D01*
X0067084Y0238765D01*
X0066995Y0238634D01*
X0066904Y0238505D01*
X0066809Y0238378D01*
X0066712Y0238253D01*
X0066611Y0238131D01*
X0066507Y0238012D01*
X0066400Y0237895D01*
X0066290Y0237781D01*
X0066177Y0237670D01*
X0066062Y0237561D01*
X0065944Y0237456D01*
X0065823Y0237354D01*
X0065700Y0237254D01*
X0065574Y0237158D01*
X0065446Y0237065D01*
X0065316Y0236975D01*
X0065183Y0236889D01*
X0065048Y0236805D01*
X0064912Y0236726D01*
X0064773Y0236649D01*
X0064632Y0236577D01*
X0064490Y0236507D01*
X0064346Y0236442D01*
X0064200Y0236380D01*
X0064053Y0236322D01*
X0063904Y0236267D01*
X0063754Y0236216D01*
X0063603Y0236169D01*
X0063451Y0236126D01*
X0063298Y0236087D01*
X0063143Y0236051D01*
X0062988Y0236020D01*
X0062832Y0235992D01*
X0062676Y0235968D01*
X0062519Y0235948D01*
X0062361Y0235932D01*
X0062204Y0235920D01*
X0062045Y0235912D01*
X0061887Y0235908D01*
X0061729Y0235908D01*
X0061571Y0235912D01*
X0061412Y0235920D01*
X0061255Y0235932D01*
X0061097Y0235948D01*
X0060940Y0235968D01*
X0060784Y0235992D01*
X0060628Y0236020D01*
X0060473Y0236051D01*
X0060318Y0236087D01*
X0060165Y0236126D01*
X0060013Y0236169D01*
X0059862Y0236216D01*
X0059712Y0236267D01*
X0059563Y0236322D01*
X0059416Y0236380D01*
X0059270Y0236442D01*
X0059126Y0236507D01*
X0058984Y0236577D01*
X0058843Y0236649D01*
X0058704Y0236726D01*
X0058568Y0236805D01*
X0058433Y0236889D01*
X0058300Y0236975D01*
X0058170Y0237065D01*
X0058042Y0237158D01*
X0057916Y0237254D01*
X0057793Y0237354D01*
X0057672Y0237456D01*
X0057554Y0237561D01*
X0057439Y0237670D01*
X0057326Y0237781D01*
X0057216Y0237895D01*
X0057109Y0238012D01*
X0057005Y0238131D01*
X0056904Y0238253D01*
X0056807Y0238378D01*
X0056712Y0238505D01*
X0056621Y0238634D01*
X0056532Y0238765D01*
X0056448Y0238899D01*
X0056366Y0239035D01*
X0056288Y0239172D01*
X0056214Y0239312D01*
X0056143Y0239454D01*
X0056075Y0239597D01*
X0056011Y0239742D01*
X0055951Y0239888D01*
X0055895Y0240036D01*
X0055842Y0240185D01*
X0055793Y0240336D01*
X0055748Y0240488D01*
X0055707Y0240641D01*
X0055669Y0240794D01*
X0055636Y0240949D01*
X0055606Y0241105D01*
X0055580Y0241261D01*
X0055559Y0241418D01*
X0055541Y0241575D01*
X0055527Y0241733D01*
X0055517Y0241891D01*
X0055511Y0242049D01*
X0055509Y0242207D01*
X0149997Y0242207D02*
X0149999Y0242365D01*
X0150005Y0242523D01*
X0150015Y0242681D01*
X0150029Y0242839D01*
X0150047Y0242996D01*
X0150068Y0243153D01*
X0150094Y0243309D01*
X0150124Y0243465D01*
X0150157Y0243620D01*
X0150195Y0243773D01*
X0150236Y0243926D01*
X0150281Y0244078D01*
X0150330Y0244229D01*
X0150383Y0244378D01*
X0150439Y0244526D01*
X0150499Y0244672D01*
X0150563Y0244817D01*
X0150631Y0244960D01*
X0150702Y0245102D01*
X0150776Y0245242D01*
X0150854Y0245379D01*
X0150936Y0245515D01*
X0151020Y0245649D01*
X0151109Y0245780D01*
X0151200Y0245909D01*
X0151295Y0246036D01*
X0151392Y0246161D01*
X0151493Y0246283D01*
X0151597Y0246402D01*
X0151704Y0246519D01*
X0151814Y0246633D01*
X0151927Y0246744D01*
X0152042Y0246853D01*
X0152160Y0246958D01*
X0152281Y0247060D01*
X0152404Y0247160D01*
X0152530Y0247256D01*
X0152658Y0247349D01*
X0152788Y0247439D01*
X0152921Y0247525D01*
X0153056Y0247609D01*
X0153192Y0247688D01*
X0153331Y0247765D01*
X0153472Y0247837D01*
X0153614Y0247907D01*
X0153758Y0247972D01*
X0153904Y0248034D01*
X0154051Y0248092D01*
X0154200Y0248147D01*
X0154350Y0248198D01*
X0154501Y0248245D01*
X0154653Y0248288D01*
X0154806Y0248327D01*
X0154961Y0248363D01*
X0155116Y0248394D01*
X0155272Y0248422D01*
X0155428Y0248446D01*
X0155585Y0248466D01*
X0155743Y0248482D01*
X0155900Y0248494D01*
X0156059Y0248502D01*
X0156217Y0248506D01*
X0156375Y0248506D01*
X0156533Y0248502D01*
X0156692Y0248494D01*
X0156849Y0248482D01*
X0157007Y0248466D01*
X0157164Y0248446D01*
X0157320Y0248422D01*
X0157476Y0248394D01*
X0157631Y0248363D01*
X0157786Y0248327D01*
X0157939Y0248288D01*
X0158091Y0248245D01*
X0158242Y0248198D01*
X0158392Y0248147D01*
X0158541Y0248092D01*
X0158688Y0248034D01*
X0158834Y0247972D01*
X0158978Y0247907D01*
X0159120Y0247837D01*
X0159261Y0247765D01*
X0159400Y0247688D01*
X0159536Y0247609D01*
X0159671Y0247525D01*
X0159804Y0247439D01*
X0159934Y0247349D01*
X0160062Y0247256D01*
X0160188Y0247160D01*
X0160311Y0247060D01*
X0160432Y0246958D01*
X0160550Y0246853D01*
X0160665Y0246744D01*
X0160778Y0246633D01*
X0160888Y0246519D01*
X0160995Y0246402D01*
X0161099Y0246283D01*
X0161200Y0246161D01*
X0161297Y0246036D01*
X0161392Y0245909D01*
X0161483Y0245780D01*
X0161572Y0245649D01*
X0161656Y0245515D01*
X0161738Y0245379D01*
X0161816Y0245242D01*
X0161890Y0245102D01*
X0161961Y0244960D01*
X0162029Y0244817D01*
X0162093Y0244672D01*
X0162153Y0244526D01*
X0162209Y0244378D01*
X0162262Y0244229D01*
X0162311Y0244078D01*
X0162356Y0243926D01*
X0162397Y0243773D01*
X0162435Y0243620D01*
X0162468Y0243465D01*
X0162498Y0243309D01*
X0162524Y0243153D01*
X0162545Y0242996D01*
X0162563Y0242839D01*
X0162577Y0242681D01*
X0162587Y0242523D01*
X0162593Y0242365D01*
X0162595Y0242207D01*
X0162593Y0242049D01*
X0162587Y0241891D01*
X0162577Y0241733D01*
X0162563Y0241575D01*
X0162545Y0241418D01*
X0162524Y0241261D01*
X0162498Y0241105D01*
X0162468Y0240949D01*
X0162435Y0240794D01*
X0162397Y0240641D01*
X0162356Y0240488D01*
X0162311Y0240336D01*
X0162262Y0240185D01*
X0162209Y0240036D01*
X0162153Y0239888D01*
X0162093Y0239742D01*
X0162029Y0239597D01*
X0161961Y0239454D01*
X0161890Y0239312D01*
X0161816Y0239172D01*
X0161738Y0239035D01*
X0161656Y0238899D01*
X0161572Y0238765D01*
X0161483Y0238634D01*
X0161392Y0238505D01*
X0161297Y0238378D01*
X0161200Y0238253D01*
X0161099Y0238131D01*
X0160995Y0238012D01*
X0160888Y0237895D01*
X0160778Y0237781D01*
X0160665Y0237670D01*
X0160550Y0237561D01*
X0160432Y0237456D01*
X0160311Y0237354D01*
X0160188Y0237254D01*
X0160062Y0237158D01*
X0159934Y0237065D01*
X0159804Y0236975D01*
X0159671Y0236889D01*
X0159536Y0236805D01*
X0159400Y0236726D01*
X0159261Y0236649D01*
X0159120Y0236577D01*
X0158978Y0236507D01*
X0158834Y0236442D01*
X0158688Y0236380D01*
X0158541Y0236322D01*
X0158392Y0236267D01*
X0158242Y0236216D01*
X0158091Y0236169D01*
X0157939Y0236126D01*
X0157786Y0236087D01*
X0157631Y0236051D01*
X0157476Y0236020D01*
X0157320Y0235992D01*
X0157164Y0235968D01*
X0157007Y0235948D01*
X0156849Y0235932D01*
X0156692Y0235920D01*
X0156533Y0235912D01*
X0156375Y0235908D01*
X0156217Y0235908D01*
X0156059Y0235912D01*
X0155900Y0235920D01*
X0155743Y0235932D01*
X0155585Y0235948D01*
X0155428Y0235968D01*
X0155272Y0235992D01*
X0155116Y0236020D01*
X0154961Y0236051D01*
X0154806Y0236087D01*
X0154653Y0236126D01*
X0154501Y0236169D01*
X0154350Y0236216D01*
X0154200Y0236267D01*
X0154051Y0236322D01*
X0153904Y0236380D01*
X0153758Y0236442D01*
X0153614Y0236507D01*
X0153472Y0236577D01*
X0153331Y0236649D01*
X0153192Y0236726D01*
X0153056Y0236805D01*
X0152921Y0236889D01*
X0152788Y0236975D01*
X0152658Y0237065D01*
X0152530Y0237158D01*
X0152404Y0237254D01*
X0152281Y0237354D01*
X0152160Y0237456D01*
X0152042Y0237561D01*
X0151927Y0237670D01*
X0151814Y0237781D01*
X0151704Y0237895D01*
X0151597Y0238012D01*
X0151493Y0238131D01*
X0151392Y0238253D01*
X0151295Y0238378D01*
X0151200Y0238505D01*
X0151109Y0238634D01*
X0151020Y0238765D01*
X0150936Y0238899D01*
X0150854Y0239035D01*
X0150776Y0239172D01*
X0150702Y0239312D01*
X0150631Y0239454D01*
X0150563Y0239597D01*
X0150499Y0239742D01*
X0150439Y0239888D01*
X0150383Y0240036D01*
X0150330Y0240185D01*
X0150281Y0240336D01*
X0150236Y0240488D01*
X0150195Y0240641D01*
X0150157Y0240794D01*
X0150124Y0240949D01*
X0150094Y0241105D01*
X0150068Y0241261D01*
X0150047Y0241418D01*
X0150029Y0241575D01*
X0150015Y0241733D01*
X0150005Y0241891D01*
X0149999Y0242049D01*
X0149997Y0242207D01*
X0149997Y0108349D02*
X0149999Y0108507D01*
X0150005Y0108665D01*
X0150015Y0108823D01*
X0150029Y0108981D01*
X0150047Y0109138D01*
X0150068Y0109295D01*
X0150094Y0109451D01*
X0150124Y0109607D01*
X0150157Y0109762D01*
X0150195Y0109915D01*
X0150236Y0110068D01*
X0150281Y0110220D01*
X0150330Y0110371D01*
X0150383Y0110520D01*
X0150439Y0110668D01*
X0150499Y0110814D01*
X0150563Y0110959D01*
X0150631Y0111102D01*
X0150702Y0111244D01*
X0150776Y0111384D01*
X0150854Y0111521D01*
X0150936Y0111657D01*
X0151020Y0111791D01*
X0151109Y0111922D01*
X0151200Y0112051D01*
X0151295Y0112178D01*
X0151392Y0112303D01*
X0151493Y0112425D01*
X0151597Y0112544D01*
X0151704Y0112661D01*
X0151814Y0112775D01*
X0151927Y0112886D01*
X0152042Y0112995D01*
X0152160Y0113100D01*
X0152281Y0113202D01*
X0152404Y0113302D01*
X0152530Y0113398D01*
X0152658Y0113491D01*
X0152788Y0113581D01*
X0152921Y0113667D01*
X0153056Y0113751D01*
X0153192Y0113830D01*
X0153331Y0113907D01*
X0153472Y0113979D01*
X0153614Y0114049D01*
X0153758Y0114114D01*
X0153904Y0114176D01*
X0154051Y0114234D01*
X0154200Y0114289D01*
X0154350Y0114340D01*
X0154501Y0114387D01*
X0154653Y0114430D01*
X0154806Y0114469D01*
X0154961Y0114505D01*
X0155116Y0114536D01*
X0155272Y0114564D01*
X0155428Y0114588D01*
X0155585Y0114608D01*
X0155743Y0114624D01*
X0155900Y0114636D01*
X0156059Y0114644D01*
X0156217Y0114648D01*
X0156375Y0114648D01*
X0156533Y0114644D01*
X0156692Y0114636D01*
X0156849Y0114624D01*
X0157007Y0114608D01*
X0157164Y0114588D01*
X0157320Y0114564D01*
X0157476Y0114536D01*
X0157631Y0114505D01*
X0157786Y0114469D01*
X0157939Y0114430D01*
X0158091Y0114387D01*
X0158242Y0114340D01*
X0158392Y0114289D01*
X0158541Y0114234D01*
X0158688Y0114176D01*
X0158834Y0114114D01*
X0158978Y0114049D01*
X0159120Y0113979D01*
X0159261Y0113907D01*
X0159400Y0113830D01*
X0159536Y0113751D01*
X0159671Y0113667D01*
X0159804Y0113581D01*
X0159934Y0113491D01*
X0160062Y0113398D01*
X0160188Y0113302D01*
X0160311Y0113202D01*
X0160432Y0113100D01*
X0160550Y0112995D01*
X0160665Y0112886D01*
X0160778Y0112775D01*
X0160888Y0112661D01*
X0160995Y0112544D01*
X0161099Y0112425D01*
X0161200Y0112303D01*
X0161297Y0112178D01*
X0161392Y0112051D01*
X0161483Y0111922D01*
X0161572Y0111791D01*
X0161656Y0111657D01*
X0161738Y0111521D01*
X0161816Y0111384D01*
X0161890Y0111244D01*
X0161961Y0111102D01*
X0162029Y0110959D01*
X0162093Y0110814D01*
X0162153Y0110668D01*
X0162209Y0110520D01*
X0162262Y0110371D01*
X0162311Y0110220D01*
X0162356Y0110068D01*
X0162397Y0109915D01*
X0162435Y0109762D01*
X0162468Y0109607D01*
X0162498Y0109451D01*
X0162524Y0109295D01*
X0162545Y0109138D01*
X0162563Y0108981D01*
X0162577Y0108823D01*
X0162587Y0108665D01*
X0162593Y0108507D01*
X0162595Y0108349D01*
X0162593Y0108191D01*
X0162587Y0108033D01*
X0162577Y0107875D01*
X0162563Y0107717D01*
X0162545Y0107560D01*
X0162524Y0107403D01*
X0162498Y0107247D01*
X0162468Y0107091D01*
X0162435Y0106936D01*
X0162397Y0106783D01*
X0162356Y0106630D01*
X0162311Y0106478D01*
X0162262Y0106327D01*
X0162209Y0106178D01*
X0162153Y0106030D01*
X0162093Y0105884D01*
X0162029Y0105739D01*
X0161961Y0105596D01*
X0161890Y0105454D01*
X0161816Y0105314D01*
X0161738Y0105177D01*
X0161656Y0105041D01*
X0161572Y0104907D01*
X0161483Y0104776D01*
X0161392Y0104647D01*
X0161297Y0104520D01*
X0161200Y0104395D01*
X0161099Y0104273D01*
X0160995Y0104154D01*
X0160888Y0104037D01*
X0160778Y0103923D01*
X0160665Y0103812D01*
X0160550Y0103703D01*
X0160432Y0103598D01*
X0160311Y0103496D01*
X0160188Y0103396D01*
X0160062Y0103300D01*
X0159934Y0103207D01*
X0159804Y0103117D01*
X0159671Y0103031D01*
X0159536Y0102947D01*
X0159400Y0102868D01*
X0159261Y0102791D01*
X0159120Y0102719D01*
X0158978Y0102649D01*
X0158834Y0102584D01*
X0158688Y0102522D01*
X0158541Y0102464D01*
X0158392Y0102409D01*
X0158242Y0102358D01*
X0158091Y0102311D01*
X0157939Y0102268D01*
X0157786Y0102229D01*
X0157631Y0102193D01*
X0157476Y0102162D01*
X0157320Y0102134D01*
X0157164Y0102110D01*
X0157007Y0102090D01*
X0156849Y0102074D01*
X0156692Y0102062D01*
X0156533Y0102054D01*
X0156375Y0102050D01*
X0156217Y0102050D01*
X0156059Y0102054D01*
X0155900Y0102062D01*
X0155743Y0102074D01*
X0155585Y0102090D01*
X0155428Y0102110D01*
X0155272Y0102134D01*
X0155116Y0102162D01*
X0154961Y0102193D01*
X0154806Y0102229D01*
X0154653Y0102268D01*
X0154501Y0102311D01*
X0154350Y0102358D01*
X0154200Y0102409D01*
X0154051Y0102464D01*
X0153904Y0102522D01*
X0153758Y0102584D01*
X0153614Y0102649D01*
X0153472Y0102719D01*
X0153331Y0102791D01*
X0153192Y0102868D01*
X0153056Y0102947D01*
X0152921Y0103031D01*
X0152788Y0103117D01*
X0152658Y0103207D01*
X0152530Y0103300D01*
X0152404Y0103396D01*
X0152281Y0103496D01*
X0152160Y0103598D01*
X0152042Y0103703D01*
X0151927Y0103812D01*
X0151814Y0103923D01*
X0151704Y0104037D01*
X0151597Y0104154D01*
X0151493Y0104273D01*
X0151392Y0104395D01*
X0151295Y0104520D01*
X0151200Y0104647D01*
X0151109Y0104776D01*
X0151020Y0104907D01*
X0150936Y0105041D01*
X0150854Y0105177D01*
X0150776Y0105314D01*
X0150702Y0105454D01*
X0150631Y0105596D01*
X0150563Y0105739D01*
X0150499Y0105884D01*
X0150439Y0106030D01*
X0150383Y0106178D01*
X0150330Y0106327D01*
X0150281Y0106478D01*
X0150236Y0106630D01*
X0150195Y0106783D01*
X0150157Y0106936D01*
X0150124Y0107091D01*
X0150094Y0107247D01*
X0150068Y0107403D01*
X0150047Y0107560D01*
X0150029Y0107717D01*
X0150015Y0107875D01*
X0150005Y0108033D01*
X0149999Y0108191D01*
X0149997Y0108349D01*
M02*
