G75*
%MOIN*%
%OFA0B0*%
%FSLAX25Y25*%
%IPPOS*%
%LPD*%
%AMOC8*
5,1,8,0,0,1.08239X$1,22.5*
%
%ADD10C,0.13398*%
%ADD11R,0.04737X0.06312*%
%ADD12C,0.05543*%
%ADD13C,0.06343*%
%ADD14R,0.03950X0.04737*%
%ADD15OC8,0.05200*%
%ADD16OC8,0.06000*%
%ADD17R,0.05543X0.05543*%
%ADD18R,0.06343X0.06343*%
%ADD19R,0.04737X0.03950*%
%ADD20R,0.06706X0.04737*%
%ADD21R,0.04737X0.06706*%
%ADD22R,0.11036X0.06312*%
%ADD23R,0.07099X0.11036*%
%ADD24R,0.11036X0.07099*%
D10*
X0061808Y0108349D03*
X0061808Y0242207D03*
X0156296Y0242207D03*
X0156296Y0108349D03*
D11*
X0088186Y0169766D03*
X0080705Y0169766D03*
X0084446Y0161105D03*
D12*
X0084052Y0108349D03*
X0094052Y0108349D03*
X0104052Y0108349D03*
X0114052Y0108349D03*
X0124052Y0108349D03*
X0134052Y0108349D03*
X0156296Y0160278D03*
X0156296Y0170278D03*
X0156296Y0180278D03*
X0156296Y0190278D03*
X0156296Y0200278D03*
D13*
X0156296Y0200278D03*
X0156296Y0190278D03*
X0156296Y0180278D03*
X0156296Y0170278D03*
X0156296Y0160278D03*
X0134052Y0108349D03*
X0124052Y0108349D03*
X0114052Y0108349D03*
X0104052Y0108349D03*
X0094052Y0108349D03*
X0084052Y0108349D03*
D14*
X0083264Y0117207D03*
X0077753Y0117207D03*
X0078540Y0138861D03*
X0084446Y0138861D03*
X0086414Y0184136D03*
X0092320Y0184136D03*
X0095272Y0201853D03*
X0101178Y0201853D03*
X0104131Y0226459D03*
X0110036Y0226459D03*
X0110036Y0244176D03*
X0104131Y0244176D03*
X0076572Y0184136D03*
X0070666Y0184136D03*
X0147438Y0131971D03*
X0153343Y0131971D03*
D15*
X0069682Y0148624D03*
X0069682Y0158624D03*
D16*
X0069682Y0158624D03*
X0069682Y0148624D03*
D17*
X0156296Y0150278D03*
D18*
X0156296Y0150278D03*
D19*
X0130705Y0160711D03*
X0130705Y0166223D03*
X0130705Y0172522D03*
X0130705Y0178034D03*
X0130705Y0184333D03*
X0130705Y0189845D03*
X0123816Y0188073D03*
X0123816Y0193979D03*
X0123816Y0179215D03*
X0123816Y0173309D03*
X0123816Y0164451D03*
X0123816Y0158546D03*
D20*
X0116926Y0201853D03*
X0116926Y0211695D03*
D21*
X0138579Y0226459D03*
X0148422Y0226459D03*
D22*
X0109052Y0149097D03*
X0109052Y0126656D03*
D23*
X0115154Y0161498D03*
X0115154Y0176262D03*
X0100981Y0176262D03*
X0100981Y0161498D03*
X0088579Y0197916D03*
X0074406Y0197916D03*
D24*
X0120863Y0222325D03*
X0120863Y0236498D03*
X0137595Y0215829D03*
X0137595Y0201656D03*
M02*
