G75*
%MOIN*%
%OFA0B0*%
%FSLAX25Y25*%
%IPPOS*%
%LPD*%
%AMOC8*
5,1,8,0,0,1.08239X$1,22.5*
%
%ADD10R,0.03937X0.05512*%
%ADD11C,0.05543*%
%ADD12R,0.03150X0.03937*%
%ADD13OC8,0.05200*%
%ADD14R,0.05543X0.05543*%
%ADD15R,0.03937X0.03150*%
%ADD16R,0.05906X0.03937*%
%ADD17R,0.03937X0.05906*%
%ADD18R,0.10236X0.05512*%
%ADD19R,0.06299X0.10236*%
%ADD20R,0.10236X0.06299*%
%ADD21C,0.01181*%
%ADD22C,0.01969*%
%ADD23C,0.03175*%
%ADD24C,0.00787*%
%ADD25R,0.03569X0.03569*%
%ADD26C,0.03569*%
D10*
X0084446Y0161105D03*
X0088186Y0169766D03*
X0080705Y0169766D03*
D11*
X0084052Y0108349D03*
X0094052Y0108349D03*
X0104052Y0108349D03*
X0114052Y0108349D03*
X0124052Y0108349D03*
X0134052Y0108349D03*
X0156296Y0160278D03*
X0156296Y0170278D03*
X0156296Y0180278D03*
X0156296Y0190278D03*
X0156296Y0200278D03*
D12*
X0153343Y0131971D03*
X0147438Y0131971D03*
X0101178Y0201853D03*
X0095272Y0201853D03*
X0092320Y0184136D03*
X0086414Y0184136D03*
X0076572Y0184136D03*
X0070666Y0184136D03*
X0078540Y0138861D03*
X0084446Y0138861D03*
X0083264Y0117207D03*
X0077753Y0117207D03*
X0104131Y0226459D03*
X0110036Y0226459D03*
X0110036Y0244176D03*
X0104131Y0244176D03*
D13*
X0069682Y0158624D03*
X0069682Y0148624D03*
D14*
X0156296Y0150278D03*
D15*
X0130705Y0160711D03*
X0130705Y0166223D03*
X0130705Y0172522D03*
X0130705Y0178034D03*
X0130705Y0184333D03*
X0130705Y0189845D03*
X0123816Y0188073D03*
X0123816Y0193979D03*
X0123816Y0179215D03*
X0123816Y0173309D03*
X0123816Y0164451D03*
X0123816Y0158546D03*
D16*
X0116926Y0201853D03*
X0116926Y0211695D03*
D17*
X0138579Y0226459D03*
X0148422Y0226459D03*
D18*
X0109052Y0149097D03*
X0109052Y0126656D03*
D19*
X0115154Y0161498D03*
X0115154Y0176262D03*
X0100981Y0176262D03*
X0100981Y0161498D03*
X0088579Y0197916D03*
X0074406Y0197916D03*
D20*
X0120863Y0222325D03*
X0120863Y0236498D03*
X0137595Y0215829D03*
X0137595Y0201656D03*
D21*
X0070522Y0101662D02*
X0069988Y0101128D01*
X0079524Y0101128D01*
X0079524Y0113648D01*
X0077949Y0113648D01*
X0077949Y0117010D01*
X0077556Y0117010D01*
X0077556Y0113648D01*
X0075968Y0113648D01*
X0075564Y0113756D01*
X0075201Y0113966D01*
X0074905Y0114262D01*
X0074696Y0114625D01*
X0074587Y0115029D01*
X0074587Y0117010D01*
X0077556Y0117010D01*
X0077556Y0117404D01*
X0077556Y0120766D01*
X0075968Y0120766D01*
X0075564Y0120658D01*
X0075201Y0120448D01*
X0074905Y0120152D01*
X0074696Y0119790D01*
X0074587Y0119385D01*
X0074587Y0117404D01*
X0077556Y0117404D01*
X0077949Y0117404D01*
X0077949Y0120766D01*
X0079524Y0120766D01*
X0079524Y0135502D01*
X0076389Y0135502D01*
X0075575Y0136316D01*
X0075575Y0139930D01*
X0070871Y0144634D01*
X0068029Y0144634D01*
X0065691Y0146972D01*
X0065691Y0150277D01*
X0068029Y0152615D01*
X0071335Y0152615D01*
X0073672Y0150277D01*
X0073672Y0147436D01*
X0078888Y0142220D01*
X0079524Y0142220D01*
X0079524Y0145750D01*
X0091335Y0157561D01*
X0091335Y0166225D01*
X0090730Y0165620D01*
X0085641Y0165620D01*
X0084827Y0166434D01*
X0084827Y0173098D01*
X0085641Y0173913D01*
X0086281Y0173913D01*
X0086392Y0179924D01*
X0085943Y0180777D01*
X0084263Y0180777D01*
X0083449Y0181592D01*
X0083449Y0182155D01*
X0079537Y0182155D01*
X0079537Y0181592D01*
X0078722Y0180777D01*
X0074421Y0180777D01*
X0073694Y0181504D01*
X0073514Y0181191D01*
X0073217Y0180895D01*
X0072855Y0180686D01*
X0072450Y0180577D01*
X0070863Y0180577D01*
X0070863Y0183939D01*
X0070469Y0183939D01*
X0070469Y0180577D01*
X0068882Y0180577D01*
X0068477Y0180686D01*
X0068115Y0180895D01*
X0067818Y0181191D01*
X0067609Y0181554D01*
X0067501Y0181958D01*
X0067501Y0183939D01*
X0070469Y0183939D01*
X0070469Y0184333D01*
X0067501Y0184333D01*
X0067501Y0186314D01*
X0067609Y0186719D01*
X0067818Y0187081D01*
X0068115Y0187378D01*
X0068477Y0187587D01*
X0068882Y0187695D01*
X0070469Y0187695D01*
X0070469Y0184333D01*
X0070863Y0184333D01*
X0070863Y0187695D01*
X0072450Y0187695D01*
X0072855Y0187587D01*
X0073217Y0187378D01*
X0073514Y0187081D01*
X0073694Y0186769D01*
X0074421Y0187495D01*
X0078722Y0187495D01*
X0079537Y0186681D01*
X0079537Y0186117D01*
X0083449Y0186117D01*
X0083449Y0186681D01*
X0084263Y0187495D01*
X0088565Y0187495D01*
X0089367Y0186693D01*
X0090169Y0187495D01*
X0091335Y0187495D01*
X0091335Y0191407D01*
X0084854Y0191407D01*
X0084039Y0192222D01*
X0084039Y0203610D01*
X0084854Y0204424D01*
X0091335Y0204424D01*
X0091335Y0204806D01*
X0082028Y0204806D01*
X0081316Y0204093D01*
X0080153Y0203612D01*
X0079048Y0203612D01*
X0079146Y0203243D01*
X0079146Y0198506D01*
X0074997Y0198506D01*
X0074997Y0197325D01*
X0079146Y0197325D01*
X0079146Y0192588D01*
X0079038Y0192184D01*
X0078829Y0191821D01*
X0078532Y0191525D01*
X0078170Y0191316D01*
X0077765Y0191207D01*
X0074997Y0191207D01*
X0074997Y0197325D01*
X0073816Y0197325D01*
X0073816Y0191207D01*
X0071047Y0191207D01*
X0070643Y0191316D01*
X0070280Y0191525D01*
X0069984Y0191821D01*
X0069774Y0192184D01*
X0069666Y0192588D01*
X0069666Y0197325D01*
X0073816Y0197325D01*
X0073816Y0198506D01*
X0069666Y0198506D01*
X0069666Y0203243D01*
X0069774Y0203648D01*
X0069984Y0204011D01*
X0070280Y0204307D01*
X0070643Y0204516D01*
X0071047Y0204624D01*
X0073816Y0204624D01*
X0073816Y0198506D01*
X0074997Y0198506D01*
X0074997Y0204624D01*
X0077202Y0204624D01*
X0076843Y0204983D01*
X0076362Y0206145D01*
X0076362Y0207403D01*
X0076843Y0208565D01*
X0077733Y0209455D01*
X0078895Y0209936D01*
X0080153Y0209936D01*
X0081316Y0209455D01*
X0082028Y0208743D01*
X0091335Y0208743D01*
X0091335Y0210895D01*
X0084691Y0210895D01*
X0082722Y0212864D01*
X0079983Y0212864D01*
X0079243Y0212123D01*
X0078148Y0211670D01*
X0076963Y0211670D01*
X0075869Y0212123D01*
X0075031Y0212961D01*
X0074578Y0214056D01*
X0074578Y0215240D01*
X0075031Y0216335D01*
X0075869Y0217173D01*
X0076963Y0217626D01*
X0078148Y0217626D01*
X0079243Y0217173D01*
X0079983Y0216432D01*
X0084200Y0216432D01*
X0085246Y0215387D01*
X0086169Y0214464D01*
X0091335Y0214464D01*
X0091335Y0220738D01*
X0079983Y0220738D01*
X0079243Y0219998D01*
X0078148Y0219544D01*
X0076963Y0219544D01*
X0075869Y0219998D01*
X0075031Y0220835D01*
X0074578Y0221930D01*
X0074578Y0223114D01*
X0075031Y0224209D01*
X0075869Y0225047D01*
X0076963Y0225500D01*
X0078148Y0225500D01*
X0079243Y0225047D01*
X0079983Y0224306D01*
X0091335Y0224306D01*
X0091335Y0230122D01*
X0091054Y0229840D01*
X0089959Y0229387D01*
X0088774Y0229387D01*
X0087680Y0229840D01*
X0086842Y0230678D01*
X0086389Y0231772D01*
X0086389Y0232957D01*
X0086842Y0234051D01*
X0087680Y0234889D01*
X0088774Y0235343D01*
X0089959Y0235343D01*
X0091054Y0234889D01*
X0091335Y0234608D01*
X0091335Y0249428D01*
X0069988Y0249428D01*
X0070522Y0248894D01*
X0071955Y0246410D01*
X0072697Y0243641D01*
X0072697Y0240773D01*
X0071955Y0238004D01*
X0070522Y0235521D01*
X0068494Y0233493D01*
X0066011Y0232059D01*
X0063241Y0231317D01*
X0060374Y0231317D01*
X0057604Y0232059D01*
X0055121Y0233493D01*
X0054587Y0234027D01*
X0054587Y0116529D01*
X0055121Y0117063D01*
X0057604Y0118497D01*
X0060374Y0119239D01*
X0063241Y0119239D01*
X0066011Y0118497D01*
X0068494Y0117063D01*
X0070522Y0115035D01*
X0071955Y0112552D01*
X0072697Y0109783D01*
X0072697Y0106915D01*
X0071955Y0104146D01*
X0070522Y0101662D01*
X0070116Y0101256D02*
X0079524Y0101256D01*
X0079524Y0102436D02*
X0070968Y0102436D01*
X0071649Y0103616D02*
X0079524Y0103616D01*
X0079524Y0104795D02*
X0072129Y0104795D01*
X0072445Y0105975D02*
X0079524Y0105975D01*
X0079524Y0107154D02*
X0072697Y0107154D01*
X0072697Y0108334D02*
X0079524Y0108334D01*
X0079524Y0109514D02*
X0072697Y0109514D01*
X0072453Y0110693D02*
X0079524Y0110693D01*
X0079524Y0111873D02*
X0072137Y0111873D01*
X0071667Y0113052D02*
X0079524Y0113052D01*
X0077949Y0114232D02*
X0077556Y0114232D01*
X0077556Y0115412D02*
X0077949Y0115412D01*
X0077949Y0116591D02*
X0077556Y0116591D01*
X0077556Y0117771D02*
X0077949Y0117771D01*
X0077949Y0118951D02*
X0077556Y0118951D01*
X0077556Y0120130D02*
X0077949Y0120130D01*
X0079524Y0121310D02*
X0054587Y0121310D01*
X0054587Y0122489D02*
X0079524Y0122489D01*
X0079524Y0123669D02*
X0054587Y0123669D01*
X0054587Y0124849D02*
X0079524Y0124849D01*
X0079524Y0126028D02*
X0054587Y0126028D01*
X0054587Y0127208D02*
X0079524Y0127208D01*
X0079524Y0128387D02*
X0054587Y0128387D01*
X0054587Y0129567D02*
X0079524Y0129567D01*
X0079524Y0130747D02*
X0054587Y0130747D01*
X0054587Y0131926D02*
X0079524Y0131926D01*
X0079524Y0133106D02*
X0054587Y0133106D01*
X0054587Y0134285D02*
X0079524Y0134285D01*
X0079524Y0135465D02*
X0054587Y0135465D01*
X0054587Y0136645D02*
X0075575Y0136645D01*
X0075575Y0137824D02*
X0054587Y0137824D01*
X0054587Y0139004D02*
X0075575Y0139004D01*
X0075321Y0140184D02*
X0054587Y0140184D01*
X0054587Y0141363D02*
X0074141Y0141363D01*
X0072962Y0142543D02*
X0054587Y0142543D01*
X0054587Y0143722D02*
X0071782Y0143722D01*
X0073847Y0147261D02*
X0081035Y0147261D01*
X0079855Y0146082D02*
X0075026Y0146082D01*
X0076206Y0144902D02*
X0079524Y0144902D01*
X0079524Y0143722D02*
X0077386Y0143722D01*
X0078565Y0142543D02*
X0079524Y0142543D01*
X0078540Y0139766D02*
X0069682Y0148624D01*
X0066581Y0146082D02*
X0054587Y0146082D01*
X0054587Y0147261D02*
X0065691Y0147261D01*
X0065691Y0148441D02*
X0054587Y0148441D01*
X0054587Y0149620D02*
X0065691Y0149620D01*
X0066214Y0150800D02*
X0054587Y0150800D01*
X0054587Y0151980D02*
X0067394Y0151980D01*
X0068029Y0154634D02*
X0071335Y0154634D01*
X0073672Y0156972D01*
X0073672Y0159124D01*
X0081086Y0159124D01*
X0081086Y0157773D01*
X0081901Y0156958D01*
X0086990Y0156958D01*
X0087805Y0157773D01*
X0087805Y0164437D01*
X0086990Y0165251D01*
X0081901Y0165251D01*
X0081086Y0164437D01*
X0081086Y0163086D01*
X0071341Y0163086D01*
X0070871Y0162615D01*
X0068029Y0162615D01*
X0065691Y0160277D01*
X0065691Y0156972D01*
X0068029Y0154634D01*
X0067144Y0155519D02*
X0054587Y0155519D01*
X0054587Y0156698D02*
X0065965Y0156698D01*
X0065691Y0157878D02*
X0054587Y0157878D01*
X0054587Y0159057D02*
X0065691Y0159057D01*
X0065691Y0160237D02*
X0054587Y0160237D01*
X0054587Y0161417D02*
X0066830Y0161417D01*
X0068010Y0162596D02*
X0054587Y0162596D01*
X0054587Y0163776D02*
X0081086Y0163776D01*
X0081605Y0164955D02*
X0054587Y0164955D01*
X0054587Y0166135D02*
X0077406Y0166135D01*
X0077464Y0166034D02*
X0077760Y0165738D01*
X0078123Y0165528D01*
X0078527Y0165420D01*
X0080312Y0165420D01*
X0080312Y0169372D01*
X0081099Y0169372D01*
X0081099Y0165420D01*
X0082883Y0165420D01*
X0083288Y0165528D01*
X0083650Y0165738D01*
X0083947Y0166034D01*
X0084156Y0166396D01*
X0084264Y0166801D01*
X0084264Y0169372D01*
X0081099Y0169372D01*
X0081099Y0170160D01*
X0080312Y0170160D01*
X0080312Y0174113D01*
X0078527Y0174113D01*
X0078123Y0174004D01*
X0077760Y0173795D01*
X0077464Y0173499D01*
X0077255Y0173136D01*
X0077146Y0172731D01*
X0077146Y0170160D01*
X0080312Y0170160D01*
X0080312Y0169372D01*
X0077146Y0169372D01*
X0077146Y0166801D01*
X0077255Y0166396D01*
X0077464Y0166034D01*
X0077146Y0167315D02*
X0054587Y0167315D01*
X0054587Y0168494D02*
X0077146Y0168494D01*
X0077146Y0170854D02*
X0054587Y0170854D01*
X0054587Y0172033D02*
X0077146Y0172033D01*
X0077299Y0173213D02*
X0054587Y0173213D01*
X0054587Y0174392D02*
X0086290Y0174392D01*
X0086312Y0175572D02*
X0054587Y0175572D01*
X0054587Y0176752D02*
X0086334Y0176752D01*
X0086355Y0177931D02*
X0054587Y0177931D01*
X0054587Y0179111D02*
X0086377Y0179111D01*
X0086199Y0180290D02*
X0054587Y0180290D01*
X0054587Y0181470D02*
X0067657Y0181470D01*
X0067501Y0182650D02*
X0054587Y0182650D01*
X0054587Y0183829D02*
X0067501Y0183829D01*
X0067501Y0185009D02*
X0054587Y0185009D01*
X0054587Y0186188D02*
X0067501Y0186188D01*
X0068105Y0187368D02*
X0054587Y0187368D01*
X0054587Y0188548D02*
X0091335Y0188548D01*
X0091335Y0189727D02*
X0054587Y0189727D01*
X0054587Y0190907D02*
X0091335Y0190907D01*
X0090042Y0187368D02*
X0088692Y0187368D01*
X0086414Y0184136D02*
X0076572Y0184136D01*
X0079537Y0186188D02*
X0083449Y0186188D01*
X0084136Y0187368D02*
X0078850Y0187368D01*
X0078982Y0192087D02*
X0084174Y0192087D01*
X0084039Y0193266D02*
X0079146Y0193266D01*
X0079146Y0194446D02*
X0084039Y0194446D01*
X0084039Y0195625D02*
X0079146Y0195625D01*
X0079146Y0196805D02*
X0084039Y0196805D01*
X0084039Y0197985D02*
X0074997Y0197985D01*
X0074997Y0199164D02*
X0073816Y0199164D01*
X0073816Y0197985D02*
X0054587Y0197985D01*
X0054587Y0199164D02*
X0069666Y0199164D01*
X0069666Y0200344D02*
X0054587Y0200344D01*
X0054587Y0201523D02*
X0069666Y0201523D01*
X0069666Y0202703D02*
X0054587Y0202703D01*
X0054587Y0203883D02*
X0069910Y0203883D01*
X0073816Y0203883D02*
X0074997Y0203883D01*
X0074997Y0202703D02*
X0073816Y0202703D01*
X0073816Y0201523D02*
X0074997Y0201523D01*
X0074997Y0200344D02*
X0073816Y0200344D01*
X0073816Y0196805D02*
X0074997Y0196805D01*
X0074997Y0195625D02*
X0073816Y0195625D01*
X0073816Y0194446D02*
X0074997Y0194446D01*
X0074997Y0193266D02*
X0073816Y0193266D01*
X0073816Y0192087D02*
X0074997Y0192087D01*
X0074294Y0187368D02*
X0073227Y0187368D01*
X0070863Y0187368D02*
X0070469Y0187368D01*
X0070469Y0186188D02*
X0070863Y0186188D01*
X0070863Y0185009D02*
X0070469Y0185009D01*
X0070469Y0183829D02*
X0070863Y0183829D01*
X0070863Y0182650D02*
X0070469Y0182650D01*
X0070469Y0181470D02*
X0070863Y0181470D01*
X0073675Y0181470D02*
X0073728Y0181470D01*
X0079415Y0181470D02*
X0083570Y0181470D01*
X0086414Y0184136D02*
X0088383Y0180396D01*
X0088186Y0169766D01*
X0084827Y0169674D02*
X0081099Y0169674D01*
X0081099Y0170160D02*
X0084264Y0170160D01*
X0084264Y0172731D01*
X0084156Y0173136D01*
X0083947Y0173499D01*
X0083650Y0173795D01*
X0083288Y0174004D01*
X0082883Y0174113D01*
X0081099Y0174113D01*
X0081099Y0170160D01*
X0081099Y0170854D02*
X0080312Y0170854D01*
X0080312Y0172033D02*
X0081099Y0172033D01*
X0081099Y0173213D02*
X0080312Y0173213D01*
X0080312Y0169674D02*
X0054587Y0169674D01*
X0054587Y0154339D02*
X0088113Y0154339D01*
X0089292Y0155519D02*
X0072219Y0155519D01*
X0073399Y0156698D02*
X0090472Y0156698D01*
X0091335Y0157878D02*
X0087805Y0157878D01*
X0087805Y0159057D02*
X0091335Y0159057D01*
X0091335Y0160237D02*
X0087805Y0160237D01*
X0087805Y0161417D02*
X0091335Y0161417D01*
X0091335Y0162596D02*
X0087805Y0162596D01*
X0087805Y0163776D02*
X0091335Y0163776D01*
X0091335Y0164955D02*
X0087286Y0164955D01*
X0085126Y0166135D02*
X0084005Y0166135D01*
X0084264Y0167315D02*
X0084827Y0167315D01*
X0084827Y0168494D02*
X0084264Y0168494D01*
X0084264Y0170854D02*
X0084827Y0170854D01*
X0084827Y0172033D02*
X0084264Y0172033D01*
X0084112Y0173213D02*
X0084941Y0173213D01*
X0081099Y0168494D02*
X0080312Y0168494D01*
X0080312Y0167315D02*
X0081099Y0167315D01*
X0081099Y0166135D02*
X0080312Y0166135D01*
X0084446Y0161105D02*
X0072162Y0161105D01*
X0069682Y0158624D01*
X0073672Y0159057D02*
X0081086Y0159057D01*
X0081086Y0157878D02*
X0073672Y0157878D01*
X0071970Y0151980D02*
X0085754Y0151980D01*
X0086933Y0153159D02*
X0054587Y0153159D01*
X0054587Y0144902D02*
X0067761Y0144902D01*
X0073672Y0148441D02*
X0082215Y0148441D01*
X0083394Y0149620D02*
X0073672Y0149620D01*
X0073150Y0150800D02*
X0084574Y0150800D01*
X0078540Y0139766D02*
X0078540Y0138861D01*
X0084446Y0138861D02*
X0094682Y0149097D01*
X0109052Y0149097D01*
X0114170Y0150278D01*
X0156296Y0150278D01*
X0156296Y0160278D02*
X0131138Y0160278D01*
X0130705Y0160711D01*
X0130705Y0166223D02*
X0125587Y0166223D01*
X0123816Y0164451D01*
X0118107Y0164451D01*
X0115154Y0161498D01*
X0115154Y0176262D02*
X0116532Y0177640D01*
X0116532Y0201459D01*
X0116926Y0201853D01*
X0118107Y0179215D02*
X0123816Y0179215D01*
X0124997Y0178034D01*
X0130705Y0178034D01*
X0130705Y0172522D02*
X0131886Y0171341D01*
X0136611Y0171341D01*
X0136611Y0181184D02*
X0133461Y0184333D01*
X0130705Y0184333D01*
X0131886Y0189845D02*
X0137595Y0195554D01*
X0137595Y0201656D01*
X0145469Y0201853D01*
X0148422Y0204806D01*
X0148422Y0226459D01*
X0118107Y0179215D02*
X0116532Y0177640D01*
X0100981Y0176262D02*
X0100981Y0161498D01*
X0101178Y0161695D01*
X0101178Y0185121D01*
X0091335Y0166135D02*
X0091245Y0166135D01*
X0084039Y0199164D02*
X0079146Y0199164D01*
X0079146Y0200344D02*
X0084039Y0200344D01*
X0084039Y0201523D02*
X0079146Y0201523D01*
X0079146Y0202703D02*
X0084039Y0202703D01*
X0084312Y0203883D02*
X0080807Y0203883D01*
X0076811Y0205062D02*
X0054587Y0205062D01*
X0054587Y0206242D02*
X0076362Y0206242D01*
X0076370Y0207422D02*
X0054587Y0207422D01*
X0054587Y0208601D02*
X0076879Y0208601D01*
X0078520Y0209781D02*
X0054587Y0209781D01*
X0054587Y0210960D02*
X0084626Y0210960D01*
X0083446Y0212140D02*
X0079259Y0212140D01*
X0080529Y0209781D02*
X0091335Y0209781D01*
X0091335Y0214499D02*
X0086133Y0214499D01*
X0084954Y0215679D02*
X0091335Y0215679D01*
X0091335Y0216858D02*
X0079557Y0216858D01*
X0079642Y0220397D02*
X0091335Y0220397D01*
X0091335Y0219218D02*
X0054587Y0219218D01*
X0054587Y0220397D02*
X0075469Y0220397D01*
X0074724Y0221577D02*
X0054587Y0221577D01*
X0054587Y0222757D02*
X0074578Y0222757D01*
X0074918Y0223936D02*
X0054587Y0223936D01*
X0054587Y0225116D02*
X0076036Y0225116D01*
X0079076Y0225116D02*
X0091335Y0225116D01*
X0091335Y0226295D02*
X0054587Y0226295D01*
X0054587Y0227475D02*
X0091335Y0227475D01*
X0091335Y0228655D02*
X0054587Y0228655D01*
X0054587Y0229834D02*
X0087694Y0229834D01*
X0086703Y0231014D02*
X0054587Y0231014D01*
X0054587Y0232193D02*
X0057372Y0232193D01*
X0055329Y0233373D02*
X0054587Y0233373D01*
X0054587Y0218038D02*
X0091335Y0218038D01*
X0091335Y0229834D02*
X0091040Y0229834D01*
X0086389Y0232193D02*
X0066243Y0232193D01*
X0068286Y0233373D02*
X0086561Y0233373D01*
X0087343Y0234553D02*
X0069554Y0234553D01*
X0070644Y0235732D02*
X0091335Y0235732D01*
X0091335Y0236912D02*
X0071325Y0236912D01*
X0071979Y0238091D02*
X0091335Y0238091D01*
X0091335Y0239271D02*
X0072295Y0239271D01*
X0072611Y0240451D02*
X0091335Y0240451D01*
X0091335Y0241630D02*
X0072697Y0241630D01*
X0072697Y0242810D02*
X0091335Y0242810D01*
X0091335Y0243990D02*
X0072604Y0243990D01*
X0072288Y0245169D02*
X0091335Y0245169D01*
X0091335Y0246349D02*
X0071972Y0246349D01*
X0071310Y0247528D02*
X0091335Y0247528D01*
X0091335Y0248708D02*
X0070629Y0248708D01*
X0075555Y0216858D02*
X0054587Y0216858D01*
X0054587Y0215679D02*
X0074759Y0215679D01*
X0074578Y0214499D02*
X0054587Y0214499D01*
X0054587Y0213320D02*
X0074883Y0213320D01*
X0075852Y0212140D02*
X0054587Y0212140D01*
X0054587Y0196805D02*
X0069666Y0196805D01*
X0069666Y0195625D02*
X0054587Y0195625D01*
X0054587Y0194446D02*
X0069666Y0194446D01*
X0069666Y0193266D02*
X0054587Y0193266D01*
X0054587Y0192087D02*
X0069831Y0192087D01*
X0109052Y0126656D02*
X0119485Y0126656D01*
X0126768Y0134924D01*
X0130705Y0143782D02*
X0130705Y0122128D01*
X0128737Y0120160D01*
X0105863Y0120160D01*
X0094052Y0108349D01*
X0104052Y0108349D02*
X0111926Y0116223D01*
X0132674Y0116223D01*
X0138579Y0122128D01*
X0138579Y0143782D01*
X0138579Y0142876D01*
X0074892Y0120130D02*
X0054587Y0120130D01*
X0054587Y0118951D02*
X0059299Y0118951D01*
X0056348Y0117771D02*
X0054587Y0117771D01*
X0054587Y0116591D02*
X0054650Y0116591D01*
X0064317Y0118951D02*
X0074587Y0118951D01*
X0074587Y0117771D02*
X0067268Y0117771D01*
X0068966Y0116591D02*
X0074587Y0116591D01*
X0074587Y0115412D02*
X0070145Y0115412D01*
X0070985Y0114232D02*
X0074935Y0114232D01*
D22*
X0082083Y0113254D02*
X0082083Y0112664D01*
X0083109Y0113089D01*
X0084995Y0113089D01*
X0086737Y0112367D01*
X0088070Y0111034D01*
X0088792Y0109292D01*
X0088792Y0107406D01*
X0088070Y0105664D01*
X0086737Y0104330D01*
X0084995Y0103609D01*
X0083109Y0103609D01*
X0082083Y0104034D01*
X0082083Y0101522D01*
X0147208Y0101522D01*
X0145781Y0103994D01*
X0145012Y0106863D01*
X0145012Y0109834D01*
X0145781Y0112704D01*
X0147267Y0115277D01*
X0149368Y0117378D01*
X0151941Y0118863D01*
X0154810Y0119632D01*
X0157781Y0119632D01*
X0160651Y0118863D01*
X0163123Y0117436D01*
X0163123Y0233120D01*
X0160651Y0231693D01*
X0157781Y0230924D01*
X0154810Y0230924D01*
X0151941Y0231693D01*
X0149368Y0233178D01*
X0147267Y0235279D01*
X0145781Y0237852D01*
X0145012Y0240722D01*
X0145012Y0243693D01*
X0145781Y0246562D01*
X0147208Y0249034D01*
X0093894Y0249034D01*
X0093894Y0234727D01*
X0099215Y0234727D01*
X0104711Y0240223D01*
X0104131Y0240223D01*
X0104131Y0244176D01*
X0104130Y0244176D01*
X0104130Y0244176D01*
X0100572Y0244176D01*
X0100572Y0246405D01*
X0100707Y0246910D01*
X0100968Y0247362D01*
X0101337Y0247732D01*
X0101790Y0247993D01*
X0102295Y0248128D01*
X0104130Y0248128D01*
X0104130Y0244176D01*
X0100572Y0244176D01*
X0100572Y0241946D01*
X0100707Y0241441D01*
X0100968Y0240989D01*
X0101337Y0240619D01*
X0101790Y0240358D01*
X0102295Y0240223D01*
X0104130Y0240223D01*
X0104130Y0244176D01*
X0104131Y0244176D02*
X0104131Y0248128D01*
X0105967Y0248128D01*
X0106471Y0247993D01*
X0106924Y0247732D01*
X0107094Y0247561D01*
X0107646Y0248113D01*
X0112426Y0248113D01*
X0113579Y0246960D01*
X0113579Y0246538D01*
X0125737Y0246538D01*
X0126667Y0246575D01*
X0126708Y0246538D01*
X0126763Y0246538D01*
X0127421Y0245879D01*
X0139503Y0234727D01*
X0139558Y0234727D01*
X0140216Y0234068D01*
X0140901Y0233437D01*
X0140903Y0233382D01*
X0140942Y0233343D01*
X0140942Y0232412D01*
X0140979Y0231481D01*
X0140942Y0231441D01*
X0140942Y0231380D01*
X0141363Y0231380D01*
X0142516Y0230227D01*
X0142516Y0222691D01*
X0141363Y0221538D01*
X0135795Y0221538D01*
X0134642Y0222691D01*
X0134642Y0230227D01*
X0135795Y0231380D01*
X0136163Y0231380D01*
X0127949Y0238962D01*
X0127949Y0232947D01*
X0128580Y0233578D01*
X0129959Y0234149D01*
X0131452Y0234149D01*
X0132831Y0233578D01*
X0133887Y0232522D01*
X0134458Y0231143D01*
X0134458Y0229650D01*
X0133887Y0228270D01*
X0132831Y0227215D01*
X0131452Y0226643D01*
X0129959Y0226643D01*
X0128580Y0227215D01*
X0127760Y0228034D01*
X0114952Y0228034D01*
X0113579Y0226662D01*
X0113579Y0223675D01*
X0112426Y0222522D01*
X0107646Y0222522D01*
X0107094Y0223074D01*
X0106924Y0222903D01*
X0106471Y0222642D01*
X0105967Y0222506D01*
X0104131Y0222506D01*
X0104131Y0226459D01*
X0104130Y0226459D01*
X0100572Y0226459D01*
X0100572Y0224229D01*
X0100707Y0223725D01*
X0100968Y0223272D01*
X0101337Y0222903D01*
X0101790Y0222642D01*
X0102295Y0222506D01*
X0104130Y0222506D01*
X0104130Y0226459D01*
X0104130Y0226459D01*
X0100572Y0226459D01*
X0100572Y0228689D01*
X0100707Y0229193D01*
X0100968Y0229646D01*
X0101337Y0230015D01*
X0101790Y0230277D01*
X0102295Y0230412D01*
X0104130Y0230412D01*
X0104130Y0226459D01*
X0104131Y0226459D01*
X0104131Y0230412D01*
X0105967Y0230412D01*
X0106471Y0230277D01*
X0106924Y0230015D01*
X0107094Y0229845D01*
X0107646Y0230396D01*
X0110632Y0230396D01*
X0111611Y0231375D01*
X0112995Y0232758D01*
X0113776Y0232758D01*
X0113776Y0240463D01*
X0114929Y0241617D01*
X0125074Y0241617D01*
X0124861Y0241813D01*
X0113579Y0241813D01*
X0113579Y0241392D01*
X0112426Y0240239D01*
X0111408Y0240239D01*
X0102556Y0231386D01*
X0101172Y0230002D01*
X0093894Y0230002D01*
X0093894Y0224884D01*
X0098219Y0224884D01*
X0099603Y0223501D01*
X0104900Y0218204D01*
X0105822Y0218204D01*
X0107129Y0217663D01*
X0108129Y0216662D01*
X0108671Y0215355D01*
X0108671Y0213941D01*
X0108129Y0212634D01*
X0107129Y0211634D01*
X0105822Y0211092D01*
X0104408Y0211092D01*
X0103101Y0211634D01*
X0102100Y0212634D01*
X0101559Y0213941D01*
X0101559Y0214863D01*
X0096262Y0220160D01*
X0093894Y0220160D01*
X0093894Y0215042D01*
X0094574Y0215042D01*
X0095227Y0215694D01*
X0096533Y0216235D01*
X0097948Y0216235D01*
X0099255Y0215694D01*
X0100255Y0214694D01*
X0100797Y0213387D01*
X0100797Y0211972D01*
X0100255Y0210665D01*
X0099255Y0209665D01*
X0097948Y0209124D01*
X0096533Y0209124D01*
X0095227Y0209665D01*
X0094574Y0210317D01*
X0093894Y0210317D01*
X0093894Y0205806D01*
X0095272Y0205806D01*
X0095272Y0201853D01*
X0095272Y0201853D01*
X0095272Y0205806D01*
X0097108Y0205806D01*
X0097613Y0205670D01*
X0098065Y0205409D01*
X0098236Y0205238D01*
X0098788Y0205790D01*
X0102758Y0205790D01*
X0109642Y0212674D01*
X0109642Y0212674D01*
X0111026Y0214058D01*
X0112005Y0214058D01*
X0112005Y0214479D01*
X0113158Y0215632D01*
X0117422Y0215632D01*
X0117307Y0215909D01*
X0117307Y0217207D01*
X0114929Y0217207D01*
X0113776Y0218360D01*
X0113776Y0226290D01*
X0114929Y0227443D01*
X0126796Y0227443D01*
X0127949Y0226290D01*
X0127949Y0224884D01*
X0128039Y0224884D01*
X0128691Y0225537D01*
X0129998Y0226078D01*
X0131413Y0226078D01*
X0132720Y0225537D01*
X0133720Y0224536D01*
X0134261Y0223229D01*
X0134261Y0221815D01*
X0134256Y0221802D01*
X0135254Y0220947D01*
X0143529Y0220947D01*
X0144682Y0219794D01*
X0144682Y0211864D01*
X0143529Y0210711D01*
X0131662Y0210711D01*
X0130509Y0211864D01*
X0130509Y0218792D01*
X0130306Y0218966D01*
X0129998Y0218966D01*
X0128691Y0219508D01*
X0128039Y0220160D01*
X0127949Y0220160D01*
X0127949Y0218360D01*
X0126796Y0217207D01*
X0124419Y0217207D01*
X0124419Y0215909D01*
X0123877Y0214602D01*
X0122877Y0213602D01*
X0121847Y0213175D01*
X0121847Y0208911D01*
X0120694Y0207758D01*
X0113158Y0207758D01*
X0112283Y0208633D01*
X0104721Y0201071D01*
X0104721Y0199069D01*
X0103568Y0197916D01*
X0101566Y0197916D01*
X0099204Y0195554D01*
X0093894Y0195554D01*
X0093894Y0189052D01*
X0098816Y0193973D01*
X0100199Y0195357D01*
X0106385Y0195357D01*
X0107038Y0196009D01*
X0108345Y0196550D01*
X0109759Y0196550D01*
X0111066Y0196009D01*
X0112066Y0195009D01*
X0112608Y0193702D01*
X0112608Y0192287D01*
X0112066Y0190980D01*
X0111066Y0189980D01*
X0109759Y0189439D01*
X0108345Y0189439D01*
X0107038Y0189980D01*
X0106385Y0190632D01*
X0102156Y0190632D01*
X0100009Y0188485D01*
X0100470Y0188676D01*
X0101885Y0188676D01*
X0103192Y0188135D01*
X0104192Y0187135D01*
X0104734Y0185828D01*
X0104734Y0184413D01*
X0104293Y0183349D01*
X0104946Y0183349D01*
X0106099Y0182196D01*
X0106099Y0170329D01*
X0104946Y0169176D01*
X0103737Y0169176D01*
X0103737Y0168585D01*
X0104946Y0168585D01*
X0106099Y0167432D01*
X0106099Y0155565D01*
X0104946Y0154412D01*
X0097016Y0154412D01*
X0095863Y0155565D01*
X0095863Y0167432D01*
X0097016Y0168585D01*
X0098422Y0168585D01*
X0098422Y0169176D01*
X0097016Y0169176D01*
X0095863Y0170329D01*
X0095863Y0182196D01*
X0097016Y0183349D01*
X0098063Y0183349D01*
X0097622Y0184413D01*
X0097622Y0185828D01*
X0097813Y0186289D01*
X0095863Y0184339D01*
X0095863Y0181352D01*
X0094710Y0180199D01*
X0093894Y0180199D01*
X0093894Y0157052D01*
X0093505Y0156112D01*
X0092785Y0155392D01*
X0092785Y0155392D01*
X0082083Y0144690D01*
X0082083Y0142798D01*
X0084763Y0142798D01*
X0092512Y0150546D01*
X0093232Y0151266D01*
X0094173Y0151656D01*
X0101965Y0151656D01*
X0101965Y0152668D01*
X0103118Y0153821D01*
X0114985Y0153821D01*
X0115970Y0152837D01*
X0151556Y0152837D01*
X0151556Y0153865D01*
X0152709Y0155018D01*
X0159883Y0155018D01*
X0161036Y0153865D01*
X0161036Y0146691D01*
X0159883Y0145538D01*
X0152709Y0145538D01*
X0151556Y0146691D01*
X0151556Y0147719D01*
X0116138Y0147719D01*
X0116138Y0145526D01*
X0114985Y0144372D01*
X0103118Y0144372D01*
X0101965Y0145526D01*
X0101965Y0146538D01*
X0095742Y0146538D01*
X0087989Y0138785D01*
X0087989Y0136077D01*
X0086836Y0134924D01*
X0082083Y0134924D01*
X0082083Y0121160D01*
X0083264Y0121160D01*
X0083264Y0117207D01*
X0083264Y0117207D01*
X0083264Y0113254D01*
X0082083Y0113254D01*
X0083264Y0113254D02*
X0083264Y0117207D01*
X0083264Y0117207D01*
X0083264Y0121160D01*
X0085100Y0121160D01*
X0085605Y0121025D01*
X0086058Y0120763D01*
X0086427Y0120394D01*
X0086688Y0119942D01*
X0086823Y0119437D01*
X0086823Y0117207D01*
X0083265Y0117207D01*
X0083265Y0117207D01*
X0086823Y0117207D01*
X0086823Y0114977D01*
X0086688Y0114473D01*
X0086427Y0114020D01*
X0086058Y0113651D01*
X0085605Y0113390D01*
X0085100Y0113254D01*
X0083264Y0113254D01*
X0083264Y0114241D02*
X0083264Y0114241D01*
X0083264Y0116208D02*
X0083264Y0116208D01*
X0083264Y0118175D02*
X0083264Y0118175D01*
X0083264Y0120142D02*
X0083264Y0120142D01*
X0082083Y0122109D02*
X0102941Y0122109D01*
X0103118Y0121932D02*
X0104015Y0121932D01*
X0103693Y0121609D01*
X0095121Y0113037D01*
X0094995Y0113089D01*
X0093109Y0113089D01*
X0091367Y0112367D01*
X0090033Y0111034D01*
X0089312Y0109292D01*
X0089312Y0107406D01*
X0090033Y0105664D01*
X0091367Y0104330D01*
X0093109Y0103609D01*
X0094995Y0103609D01*
X0096737Y0104330D01*
X0098070Y0105664D01*
X0098792Y0107406D01*
X0098792Y0109292D01*
X0098740Y0109418D01*
X0099805Y0110483D01*
X0099312Y0109292D01*
X0099312Y0107406D01*
X0100033Y0105664D01*
X0101367Y0104330D01*
X0103109Y0103609D01*
X0104995Y0103609D01*
X0106737Y0104330D01*
X0108070Y0105664D01*
X0108792Y0107406D01*
X0108792Y0109292D01*
X0108740Y0109418D01*
X0109805Y0110483D01*
X0109312Y0109292D01*
X0109312Y0107406D01*
X0110033Y0105664D01*
X0111367Y0104330D01*
X0113109Y0103609D01*
X0114995Y0103609D01*
X0116737Y0104330D01*
X0118070Y0105664D01*
X0118792Y0107406D01*
X0118792Y0109292D01*
X0118070Y0111034D01*
X0116737Y0112367D01*
X0114995Y0113089D01*
X0113109Y0113089D01*
X0111917Y0112595D01*
X0112986Y0113664D01*
X0133183Y0113664D01*
X0134123Y0114053D01*
X0140029Y0119959D01*
X0140749Y0120679D01*
X0141138Y0121619D01*
X0141138Y0141034D01*
X0141761Y0141656D01*
X0142332Y0143035D01*
X0142332Y0144528D01*
X0141761Y0145908D01*
X0140705Y0146963D01*
X0139326Y0147535D01*
X0137833Y0147535D01*
X0136454Y0146963D01*
X0135398Y0145908D01*
X0134827Y0144528D01*
X0134827Y0143035D01*
X0135398Y0141656D01*
X0136020Y0141034D01*
X0136020Y0123188D01*
X0131614Y0118782D01*
X0130978Y0118782D01*
X0132155Y0119959D01*
X0132875Y0120679D01*
X0133264Y0121619D01*
X0133264Y0141034D01*
X0133887Y0141656D01*
X0134458Y0143035D01*
X0134458Y0144528D01*
X0133887Y0145908D01*
X0132831Y0146963D01*
X0131452Y0147535D01*
X0129959Y0147535D01*
X0128580Y0146963D01*
X0127524Y0145908D01*
X0126953Y0144528D01*
X0126953Y0143035D01*
X0127524Y0141656D01*
X0128146Y0141034D01*
X0128146Y0138202D01*
X0127476Y0138480D01*
X0126061Y0138480D01*
X0124754Y0137938D01*
X0123754Y0136938D01*
X0123212Y0135631D01*
X0123212Y0134759D01*
X0118329Y0129215D01*
X0116138Y0129215D01*
X0116138Y0130227D01*
X0114985Y0131380D01*
X0103118Y0131380D01*
X0101965Y0130227D01*
X0101965Y0123085D01*
X0103118Y0121932D01*
X0102226Y0120142D02*
X0086573Y0120142D01*
X0086823Y0118175D02*
X0100259Y0118175D01*
X0098292Y0116208D02*
X0086823Y0116208D01*
X0086554Y0114241D02*
X0096325Y0114241D01*
X0099629Y0110307D02*
X0099732Y0110307D01*
X0099312Y0108340D02*
X0098792Y0108340D01*
X0098364Y0106373D02*
X0099740Y0106373D01*
X0101291Y0104406D02*
X0096812Y0104406D01*
X0091291Y0104406D02*
X0086812Y0104406D01*
X0088364Y0106373D02*
X0089740Y0106373D01*
X0089312Y0108340D02*
X0088792Y0108340D01*
X0088371Y0110307D02*
X0089732Y0110307D01*
X0091273Y0112274D02*
X0086830Y0112274D01*
X0082083Y0102439D02*
X0146679Y0102439D01*
X0145671Y0104406D02*
X0136812Y0104406D01*
X0136737Y0104330D02*
X0138070Y0105664D01*
X0138792Y0107406D01*
X0138792Y0109292D01*
X0138658Y0109615D01*
X0148416Y0119372D01*
X0149800Y0120756D01*
X0149800Y0128034D01*
X0149828Y0128034D01*
X0150379Y0128585D01*
X0150550Y0128415D01*
X0151002Y0128153D01*
X0151507Y0128018D01*
X0153343Y0128018D01*
X0153343Y0131971D01*
X0153343Y0135924D01*
X0151507Y0135924D01*
X0151002Y0135788D01*
X0150550Y0135527D01*
X0150379Y0135356D01*
X0149828Y0135908D01*
X0149700Y0135908D01*
X0150206Y0137130D01*
X0150206Y0138623D01*
X0149635Y0140002D01*
X0148579Y0141058D01*
X0147200Y0141629D01*
X0145707Y0141629D01*
X0144328Y0141058D01*
X0143272Y0140002D01*
X0142701Y0138623D01*
X0142701Y0137130D01*
X0143272Y0135751D01*
X0144081Y0134942D01*
X0143894Y0134755D01*
X0143894Y0129187D01*
X0145047Y0128034D01*
X0145075Y0128034D01*
X0145075Y0122713D01*
X0135318Y0112955D01*
X0134995Y0113089D01*
X0133109Y0113089D01*
X0131367Y0112367D01*
X0130033Y0111034D01*
X0129312Y0109292D01*
X0129312Y0107406D01*
X0130033Y0105664D01*
X0131367Y0104330D01*
X0133109Y0103609D01*
X0134995Y0103609D01*
X0136737Y0104330D01*
X0138364Y0106373D02*
X0145144Y0106373D01*
X0145012Y0108340D02*
X0138792Y0108340D01*
X0139351Y0110307D02*
X0145139Y0110307D01*
X0145666Y0112274D02*
X0141318Y0112274D01*
X0143285Y0114241D02*
X0146669Y0114241D01*
X0145252Y0116208D02*
X0148198Y0116208D01*
X0147219Y0118175D02*
X0150748Y0118175D01*
X0149186Y0120142D02*
X0163123Y0120142D01*
X0163123Y0118175D02*
X0161843Y0118175D01*
X0163123Y0122109D02*
X0149800Y0122109D01*
X0149800Y0124076D02*
X0163123Y0124076D01*
X0163123Y0126043D02*
X0149800Y0126043D01*
X0149800Y0128010D02*
X0163123Y0128010D01*
X0163123Y0129977D02*
X0156902Y0129977D01*
X0156902Y0129741D02*
X0156902Y0131971D01*
X0156902Y0134201D01*
X0156767Y0134705D01*
X0156506Y0135158D01*
X0156136Y0135527D01*
X0155684Y0135788D01*
X0155179Y0135924D01*
X0153343Y0135924D01*
X0153343Y0131971D01*
X0153343Y0131971D01*
X0153343Y0131971D01*
X0156902Y0131971D01*
X0153343Y0131971D01*
X0153343Y0131971D01*
X0153343Y0128018D01*
X0155179Y0128018D01*
X0155684Y0128153D01*
X0156136Y0128415D01*
X0156506Y0128784D01*
X0156767Y0129237D01*
X0156902Y0129741D01*
X0156902Y0131944D02*
X0163123Y0131944D01*
X0163123Y0133911D02*
X0156902Y0133911D01*
X0155349Y0135878D02*
X0163123Y0135878D01*
X0163123Y0137845D02*
X0150206Y0137845D01*
X0149858Y0135878D02*
X0151337Y0135878D01*
X0153343Y0135878D02*
X0153343Y0135878D01*
X0153343Y0133911D02*
X0153343Y0133911D01*
X0153343Y0131944D02*
X0153343Y0131944D01*
X0153343Y0129977D02*
X0153343Y0129977D01*
X0149714Y0139812D02*
X0163123Y0139812D01*
X0163123Y0141779D02*
X0141812Y0141779D01*
X0142332Y0143746D02*
X0163123Y0143746D01*
X0163123Y0145713D02*
X0160058Y0145713D01*
X0161036Y0147680D02*
X0163123Y0147680D01*
X0163123Y0149647D02*
X0161036Y0149647D01*
X0161036Y0151614D02*
X0163123Y0151614D01*
X0163123Y0153581D02*
X0161036Y0153581D01*
X0163123Y0155548D02*
X0157264Y0155548D01*
X0157239Y0155538D02*
X0158981Y0156259D01*
X0160314Y0157593D01*
X0161036Y0159335D01*
X0161036Y0161221D01*
X0160314Y0162963D01*
X0158981Y0164297D01*
X0157239Y0165018D01*
X0155353Y0165018D01*
X0153686Y0164328D01*
X0154603Y0165244D01*
X0155030Y0165672D01*
X0155353Y0165538D01*
X0157239Y0165538D01*
X0158981Y0166259D01*
X0160314Y0167593D01*
X0161036Y0169335D01*
X0161036Y0171221D01*
X0160314Y0172963D01*
X0158981Y0174297D01*
X0157239Y0175018D01*
X0155353Y0175018D01*
X0153611Y0174297D01*
X0152277Y0172963D01*
X0151556Y0171221D01*
X0151556Y0169335D01*
X0151690Y0169012D01*
X0151262Y0168585D01*
X0138884Y0168585D01*
X0139625Y0169327D01*
X0140167Y0170634D01*
X0140167Y0172048D01*
X0139625Y0173355D01*
X0138625Y0174356D01*
X0137318Y0174897D01*
X0135904Y0174897D01*
X0134642Y0174374D01*
X0134642Y0174912D01*
X0134277Y0175278D01*
X0134642Y0175644D01*
X0134642Y0175672D01*
X0155030Y0175672D01*
X0155353Y0175538D01*
X0157239Y0175538D01*
X0158981Y0176259D01*
X0160314Y0177593D01*
X0161036Y0179335D01*
X0161036Y0181221D01*
X0160314Y0182963D01*
X0158981Y0184297D01*
X0157239Y0185018D01*
X0155353Y0185018D01*
X0153611Y0184297D01*
X0152277Y0182963D01*
X0151556Y0181221D01*
X0151556Y0180396D01*
X0140134Y0180396D01*
X0140167Y0180476D01*
X0140167Y0181891D01*
X0139625Y0183198D01*
X0138625Y0184198D01*
X0137318Y0184739D01*
X0136674Y0184739D01*
X0134911Y0186503D01*
X0134642Y0186614D01*
X0134642Y0186723D01*
X0134277Y0187089D01*
X0134642Y0187455D01*
X0134642Y0187483D01*
X0152388Y0187483D01*
X0153611Y0186259D01*
X0155353Y0185538D01*
X0157239Y0185538D01*
X0158981Y0186259D01*
X0160314Y0187593D01*
X0161036Y0189335D01*
X0161036Y0191221D01*
X0160314Y0192963D01*
X0158981Y0194297D01*
X0157239Y0195018D01*
X0155353Y0195018D01*
X0153611Y0194297D01*
X0152277Y0192963D01*
X0151964Y0192207D01*
X0137868Y0192207D01*
X0139765Y0194104D01*
X0140154Y0195045D01*
X0140154Y0196538D01*
X0143529Y0196538D01*
X0144682Y0197691D01*
X0144682Y0199273D01*
X0145501Y0199294D01*
X0145978Y0199294D01*
X0146009Y0199306D01*
X0146042Y0199307D01*
X0146478Y0199501D01*
X0146919Y0199683D01*
X0146942Y0199707D01*
X0146973Y0199720D01*
X0147301Y0200066D01*
X0150591Y0203356D01*
X0150981Y0204297D01*
X0150981Y0221538D01*
X0151206Y0221538D01*
X0152359Y0222691D01*
X0152359Y0230227D01*
X0151206Y0231380D01*
X0145638Y0231380D01*
X0144485Y0230227D01*
X0144485Y0222691D01*
X0145638Y0221538D01*
X0145863Y0221538D01*
X0145863Y0205866D01*
X0144682Y0204684D01*
X0144682Y0205621D01*
X0143529Y0206774D01*
X0131662Y0206774D01*
X0130509Y0205621D01*
X0130509Y0197691D01*
X0131662Y0196538D01*
X0134960Y0196538D01*
X0131811Y0193388D01*
X0130150Y0193388D01*
X0127753Y0194616D01*
X0127753Y0196369D01*
X0126599Y0197522D01*
X0121032Y0197522D01*
X0119879Y0196369D01*
X0119879Y0191589D01*
X0120430Y0191037D01*
X0120259Y0190866D01*
X0119998Y0190414D01*
X0119863Y0189909D01*
X0119863Y0188073D01*
X0119863Y0186237D01*
X0119998Y0185733D01*
X0120259Y0185280D01*
X0120629Y0184911D01*
X0121081Y0184649D01*
X0121586Y0184514D01*
X0123816Y0184514D01*
X0126045Y0184514D01*
X0126550Y0184649D01*
X0126768Y0184776D01*
X0126768Y0182589D01*
X0126599Y0182758D01*
X0121032Y0182758D01*
X0120272Y0181999D01*
X0120272Y0182196D01*
X0119119Y0183349D01*
X0119091Y0183349D01*
X0119091Y0197916D01*
X0120694Y0197916D01*
X0121847Y0199069D01*
X0121847Y0204637D01*
X0120694Y0205790D01*
X0113158Y0205790D01*
X0112005Y0204637D01*
X0112005Y0199069D01*
X0113158Y0197916D01*
X0113973Y0197916D01*
X0113973Y0183349D01*
X0111189Y0183349D01*
X0110036Y0182196D01*
X0110036Y0170329D01*
X0111189Y0169176D01*
X0119119Y0169176D01*
X0120272Y0170329D01*
X0120272Y0170503D01*
X0120629Y0170147D01*
X0121081Y0169886D01*
X0121586Y0169750D01*
X0123816Y0169750D01*
X0126045Y0169750D01*
X0126550Y0169886D01*
X0126845Y0170056D01*
X0127528Y0169372D01*
X0126937Y0168782D01*
X0125078Y0168782D01*
X0124138Y0168392D01*
X0123740Y0167995D01*
X0121032Y0167995D01*
X0120272Y0167235D01*
X0120272Y0167432D01*
X0119119Y0168585D01*
X0111189Y0168585D01*
X0110036Y0167432D01*
X0110036Y0155565D01*
X0111189Y0154412D01*
X0119119Y0154412D01*
X0120272Y0155565D01*
X0120272Y0155740D01*
X0120629Y0155383D01*
X0121081Y0155122D01*
X0121586Y0154987D01*
X0123816Y0154987D01*
X0126045Y0154987D01*
X0126550Y0155122D01*
X0127002Y0155383D01*
X0127372Y0155753D01*
X0127633Y0156205D01*
X0127768Y0156710D01*
X0127768Y0157321D01*
X0127921Y0157168D01*
X0133489Y0157168D01*
X0134040Y0157719D01*
X0152225Y0157719D01*
X0152277Y0157593D01*
X0153611Y0156259D01*
X0155353Y0155538D01*
X0157239Y0155538D01*
X0155328Y0155548D02*
X0127168Y0155548D01*
X0123816Y0155548D02*
X0123816Y0155548D01*
X0123816Y0154987D02*
X0123816Y0158546D01*
X0123816Y0158546D01*
X0123816Y0154987D01*
X0123816Y0157515D02*
X0123816Y0157515D01*
X0120464Y0155548D02*
X0120256Y0155548D01*
X0115225Y0153581D02*
X0151556Y0153581D01*
X0152355Y0157515D02*
X0133837Y0157515D01*
X0133967Y0145713D02*
X0135317Y0145713D01*
X0134827Y0143746D02*
X0134458Y0143746D01*
X0133938Y0141779D02*
X0135347Y0141779D01*
X0136020Y0139812D02*
X0133264Y0139812D01*
X0133264Y0137845D02*
X0136020Y0137845D01*
X0136020Y0135878D02*
X0133264Y0135878D01*
X0133264Y0133911D02*
X0136020Y0133911D01*
X0136020Y0131944D02*
X0133264Y0131944D01*
X0133264Y0129977D02*
X0136020Y0129977D01*
X0136020Y0128010D02*
X0133264Y0128010D01*
X0133264Y0126043D02*
X0136020Y0126043D01*
X0136020Y0124076D02*
X0133264Y0124076D01*
X0133264Y0122109D02*
X0134941Y0122109D01*
X0132974Y0120142D02*
X0132338Y0120142D01*
X0136278Y0116208D02*
X0138570Y0116208D01*
X0138245Y0118175D02*
X0140537Y0118175D01*
X0140212Y0120142D02*
X0142504Y0120142D01*
X0141138Y0122109D02*
X0144471Y0122109D01*
X0145075Y0124076D02*
X0141138Y0124076D01*
X0141138Y0126043D02*
X0145075Y0126043D01*
X0145075Y0128010D02*
X0141138Y0128010D01*
X0141138Y0129977D02*
X0143894Y0129977D01*
X0143894Y0131944D02*
X0141138Y0131944D01*
X0141138Y0133911D02*
X0143894Y0133911D01*
X0143219Y0135878D02*
X0141138Y0135878D01*
X0141138Y0137845D02*
X0142701Y0137845D01*
X0143193Y0139812D02*
X0141138Y0139812D01*
X0141841Y0145713D02*
X0152534Y0145713D01*
X0151556Y0147680D02*
X0116138Y0147680D01*
X0116138Y0145713D02*
X0127443Y0145713D01*
X0126953Y0143746D02*
X0092950Y0143746D01*
X0090983Y0141779D02*
X0127473Y0141779D01*
X0128146Y0139812D02*
X0089016Y0139812D01*
X0087989Y0137845D02*
X0124661Y0137845D01*
X0123315Y0135878D02*
X0087790Y0135878D01*
X0082083Y0133911D02*
X0122466Y0133911D01*
X0120733Y0131944D02*
X0082083Y0131944D01*
X0082083Y0129977D02*
X0101965Y0129977D01*
X0101965Y0128010D02*
X0082083Y0128010D01*
X0082083Y0126043D02*
X0101965Y0126043D01*
X0101965Y0124076D02*
X0082083Y0124076D01*
X0082083Y0143746D02*
X0085712Y0143746D01*
X0087679Y0145713D02*
X0083106Y0145713D01*
X0085073Y0147680D02*
X0089646Y0147680D01*
X0091613Y0149647D02*
X0087040Y0149647D01*
X0089007Y0151614D02*
X0094072Y0151614D01*
X0090974Y0153581D02*
X0102878Y0153581D01*
X0106082Y0155548D02*
X0110053Y0155548D01*
X0110036Y0157515D02*
X0106099Y0157515D01*
X0106099Y0159482D02*
X0110036Y0159482D01*
X0110036Y0161449D02*
X0106099Y0161449D01*
X0106099Y0163416D02*
X0110036Y0163416D01*
X0110036Y0165383D02*
X0106099Y0165383D01*
X0106099Y0167350D02*
X0110036Y0167350D01*
X0111047Y0169317D02*
X0105088Y0169317D01*
X0106099Y0171284D02*
X0110036Y0171284D01*
X0110036Y0173251D02*
X0106099Y0173251D01*
X0106099Y0175218D02*
X0110036Y0175218D01*
X0110036Y0177185D02*
X0106099Y0177185D01*
X0106099Y0179152D02*
X0110036Y0179152D01*
X0110036Y0181120D02*
X0106099Y0181120D01*
X0105208Y0183087D02*
X0110927Y0183087D01*
X0113973Y0185054D02*
X0104734Y0185054D01*
X0104240Y0187021D02*
X0113973Y0187021D01*
X0113973Y0188988D02*
X0100511Y0188988D01*
X0097764Y0192922D02*
X0093894Y0192922D01*
X0093894Y0194889D02*
X0099731Y0194889D01*
X0100506Y0196856D02*
X0113973Y0196856D01*
X0113973Y0194889D02*
X0112116Y0194889D01*
X0112608Y0192922D02*
X0113973Y0192922D01*
X0113973Y0190955D02*
X0112041Y0190955D01*
X0112251Y0198823D02*
X0104475Y0198823D01*
X0104721Y0200790D02*
X0112005Y0200790D01*
X0112005Y0202757D02*
X0106407Y0202757D01*
X0108374Y0204724D02*
X0112092Y0204724D01*
X0110341Y0206691D02*
X0131578Y0206691D01*
X0130509Y0204724D02*
X0121760Y0204724D01*
X0121847Y0202757D02*
X0130509Y0202757D01*
X0130509Y0200790D02*
X0121847Y0200790D01*
X0121601Y0198823D02*
X0130509Y0198823D01*
X0131344Y0196856D02*
X0127266Y0196856D01*
X0127753Y0194889D02*
X0133311Y0194889D01*
X0134345Y0187021D02*
X0152850Y0187021D01*
X0152401Y0183087D02*
X0139672Y0183087D01*
X0140167Y0181120D02*
X0151556Y0181120D01*
X0152566Y0173251D02*
X0139668Y0173251D01*
X0140167Y0171284D02*
X0151582Y0171284D01*
X0151563Y0169317D02*
X0139616Y0169317D01*
X0134336Y0175218D02*
X0163123Y0175218D01*
X0163123Y0173251D02*
X0160026Y0173251D01*
X0161010Y0171284D02*
X0163123Y0171284D01*
X0163123Y0169317D02*
X0161029Y0169317D01*
X0160072Y0167350D02*
X0163123Y0167350D01*
X0163123Y0165383D02*
X0154742Y0165383D01*
X0159861Y0163416D02*
X0163123Y0163416D01*
X0163123Y0161449D02*
X0160941Y0161449D01*
X0161036Y0159482D02*
X0163123Y0159482D01*
X0163123Y0157515D02*
X0160237Y0157515D01*
X0159907Y0177185D02*
X0163123Y0177185D01*
X0163123Y0179152D02*
X0160960Y0179152D01*
X0161036Y0181120D02*
X0163123Y0181120D01*
X0163123Y0183087D02*
X0160191Y0183087D01*
X0159742Y0187021D02*
X0163123Y0187021D01*
X0163123Y0188988D02*
X0160892Y0188988D01*
X0161036Y0190955D02*
X0163123Y0190955D01*
X0163123Y0192922D02*
X0160332Y0192922D01*
X0157552Y0194889D02*
X0163123Y0194889D01*
X0163123Y0196856D02*
X0159577Y0196856D01*
X0158981Y0196259D02*
X0160314Y0197593D01*
X0161036Y0199335D01*
X0161036Y0201221D01*
X0160314Y0202963D01*
X0158981Y0204297D01*
X0157239Y0205018D01*
X0155353Y0205018D01*
X0153611Y0204297D01*
X0152277Y0202963D01*
X0151556Y0201221D01*
X0151556Y0199335D01*
X0152277Y0197593D01*
X0153611Y0196259D01*
X0155353Y0195538D01*
X0157239Y0195538D01*
X0158981Y0196259D01*
X0160824Y0198823D02*
X0163123Y0198823D01*
X0163123Y0200790D02*
X0161036Y0200790D01*
X0160400Y0202757D02*
X0163123Y0202757D01*
X0163123Y0204724D02*
X0157950Y0204724D01*
X0154642Y0204724D02*
X0150981Y0204724D01*
X0150981Y0206691D02*
X0163123Y0206691D01*
X0163123Y0208658D02*
X0150981Y0208658D01*
X0150981Y0210625D02*
X0163123Y0210625D01*
X0163123Y0212592D02*
X0150981Y0212592D01*
X0150981Y0214559D02*
X0163123Y0214559D01*
X0163123Y0216526D02*
X0150981Y0216526D01*
X0150981Y0218493D02*
X0163123Y0218493D01*
X0163123Y0220460D02*
X0150981Y0220460D01*
X0152095Y0222427D02*
X0163123Y0222427D01*
X0163123Y0224394D02*
X0152359Y0224394D01*
X0152359Y0226361D02*
X0163123Y0226361D01*
X0163123Y0228328D02*
X0152359Y0228328D01*
X0152291Y0230295D02*
X0163123Y0230295D01*
X0163123Y0232262D02*
X0161637Y0232262D01*
X0150955Y0232262D02*
X0140948Y0232262D01*
X0140056Y0234229D02*
X0148317Y0234229D01*
X0146737Y0236196D02*
X0137911Y0236196D01*
X0135780Y0238163D02*
X0145698Y0238163D01*
X0145171Y0240130D02*
X0133650Y0240130D01*
X0131519Y0242097D02*
X0145012Y0242097D01*
X0145112Y0244064D02*
X0129388Y0244064D01*
X0127269Y0246031D02*
X0145639Y0246031D01*
X0146610Y0247998D02*
X0112541Y0247998D01*
X0113776Y0240130D02*
X0111300Y0240130D01*
X0109333Y0238163D02*
X0113776Y0238163D01*
X0113776Y0236196D02*
X0107366Y0236196D01*
X0105399Y0234229D02*
X0113776Y0234229D01*
X0112498Y0232262D02*
X0103432Y0232262D01*
X0104130Y0230295D02*
X0104131Y0230295D01*
X0104130Y0228328D02*
X0104131Y0228328D01*
X0104130Y0226361D02*
X0104131Y0226361D01*
X0104130Y0224394D02*
X0104131Y0224394D01*
X0100572Y0224394D02*
X0098710Y0224394D01*
X0100572Y0226361D02*
X0093894Y0226361D01*
X0093894Y0228328D02*
X0100572Y0228328D01*
X0101464Y0230295D02*
X0101858Y0230295D01*
X0100684Y0236196D02*
X0093894Y0236196D01*
X0093894Y0238163D02*
X0102651Y0238163D01*
X0104618Y0240130D02*
X0093894Y0240130D01*
X0093894Y0242097D02*
X0100572Y0242097D01*
X0100572Y0244064D02*
X0093894Y0244064D01*
X0093894Y0246031D02*
X0100572Y0246031D01*
X0101808Y0247998D02*
X0093894Y0247998D01*
X0104130Y0247998D02*
X0104131Y0247998D01*
X0104130Y0246031D02*
X0104131Y0246031D01*
X0104130Y0244176D02*
X0104131Y0244176D01*
X0104130Y0244064D02*
X0104131Y0244064D01*
X0104130Y0242097D02*
X0104131Y0242097D01*
X0106453Y0247998D02*
X0107531Y0247998D01*
X0107545Y0230295D02*
X0106403Y0230295D01*
X0113579Y0226361D02*
X0113847Y0226361D01*
X0113776Y0224394D02*
X0113579Y0224394D01*
X0113776Y0222427D02*
X0100677Y0222427D01*
X0102644Y0220460D02*
X0113776Y0220460D01*
X0113776Y0218493D02*
X0104611Y0218493D01*
X0108186Y0216526D02*
X0117307Y0216526D01*
X0121847Y0212592D02*
X0130509Y0212592D01*
X0130509Y0214559D02*
X0123834Y0214559D01*
X0124419Y0216526D02*
X0130509Y0216526D01*
X0130509Y0218493D02*
X0127949Y0218493D01*
X0134261Y0222427D02*
X0134907Y0222427D01*
X0134642Y0224394D02*
X0133779Y0224394D01*
X0134642Y0226361D02*
X0127879Y0226361D01*
X0127949Y0234229D02*
X0133077Y0234229D01*
X0133994Y0232262D02*
X0135208Y0232262D01*
X0134710Y0230295D02*
X0134458Y0230295D01*
X0134642Y0228328D02*
X0133911Y0228328D01*
X0130946Y0236196D02*
X0127949Y0236196D01*
X0127949Y0238163D02*
X0128815Y0238163D01*
X0142449Y0230295D02*
X0144553Y0230295D01*
X0144485Y0228328D02*
X0142516Y0228328D01*
X0142516Y0226361D02*
X0144485Y0226361D01*
X0144485Y0224394D02*
X0142516Y0224394D01*
X0142252Y0222427D02*
X0144749Y0222427D01*
X0144016Y0220460D02*
X0145863Y0220460D01*
X0145863Y0218493D02*
X0144682Y0218493D01*
X0144682Y0216526D02*
X0145863Y0216526D01*
X0145863Y0214559D02*
X0144682Y0214559D01*
X0144682Y0212592D02*
X0145863Y0212592D01*
X0145863Y0210625D02*
X0121847Y0210625D01*
X0121593Y0208658D02*
X0145863Y0208658D01*
X0145863Y0206691D02*
X0143612Y0206691D01*
X0144682Y0204724D02*
X0144721Y0204724D01*
X0148025Y0200790D02*
X0151556Y0200790D01*
X0151768Y0198823D02*
X0144682Y0198823D01*
X0143846Y0196856D02*
X0153015Y0196856D01*
X0155040Y0194889D02*
X0140090Y0194889D01*
X0138582Y0192922D02*
X0152260Y0192922D01*
X0152192Y0202757D02*
X0149992Y0202757D01*
X0163123Y0185054D02*
X0136360Y0185054D01*
X0126768Y0183087D02*
X0119382Y0183087D01*
X0119091Y0185054D02*
X0120486Y0185054D01*
X0119863Y0187021D02*
X0119091Y0187021D01*
X0119863Y0188073D02*
X0123815Y0188073D01*
X0123815Y0188073D01*
X0123816Y0188073D02*
X0123816Y0188073D01*
X0123816Y0184514D01*
X0123816Y0188073D01*
X0123815Y0188073D02*
X0119863Y0188073D01*
X0119863Y0188988D02*
X0119091Y0188988D01*
X0119091Y0190955D02*
X0120347Y0190955D01*
X0119879Y0192922D02*
X0119091Y0192922D01*
X0119091Y0194889D02*
X0119879Y0194889D01*
X0120365Y0196856D02*
X0119091Y0196856D01*
X0123816Y0187021D02*
X0123816Y0187021D01*
X0123816Y0185054D02*
X0123816Y0185054D01*
X0123816Y0173309D02*
X0123816Y0169750D01*
X0123816Y0173309D01*
X0123816Y0173309D01*
X0123816Y0173251D02*
X0123816Y0173251D01*
X0123816Y0171284D02*
X0123816Y0171284D01*
X0127473Y0169317D02*
X0119261Y0169317D01*
X0120272Y0167350D02*
X0120388Y0167350D01*
X0101965Y0145713D02*
X0094917Y0145713D01*
X0095880Y0155548D02*
X0092941Y0155548D01*
X0093894Y0157515D02*
X0095863Y0157515D01*
X0095863Y0159482D02*
X0093894Y0159482D01*
X0093894Y0161449D02*
X0095863Y0161449D01*
X0095863Y0163416D02*
X0093894Y0163416D01*
X0093894Y0165383D02*
X0095863Y0165383D01*
X0095863Y0167350D02*
X0093894Y0167350D01*
X0093894Y0169317D02*
X0096874Y0169317D01*
X0095863Y0171284D02*
X0093894Y0171284D01*
X0093894Y0173251D02*
X0095863Y0173251D01*
X0095863Y0175218D02*
X0093894Y0175218D01*
X0093894Y0177185D02*
X0095863Y0177185D01*
X0095863Y0179152D02*
X0093894Y0179152D01*
X0095630Y0181120D02*
X0095863Y0181120D01*
X0095863Y0183087D02*
X0096754Y0183087D01*
X0096577Y0185054D02*
X0097622Y0185054D01*
X0095797Y0190955D02*
X0093894Y0190955D01*
X0095272Y0202757D02*
X0095272Y0202757D01*
X0095272Y0204724D02*
X0095272Y0204724D01*
X0093894Y0206691D02*
X0103659Y0206691D01*
X0105626Y0208658D02*
X0093894Y0208658D01*
X0100215Y0210625D02*
X0107593Y0210625D01*
X0108087Y0212592D02*
X0109560Y0212592D01*
X0108671Y0214559D02*
X0112084Y0214559D01*
X0102142Y0212592D02*
X0100797Y0212592D01*
X0100311Y0214559D02*
X0101559Y0214559D01*
X0099896Y0216526D02*
X0093894Y0216526D01*
X0093894Y0218493D02*
X0097929Y0218493D01*
X0116138Y0129977D02*
X0119000Y0129977D01*
X0122938Y0112988D02*
X0122226Y0112756D01*
X0121559Y0112416D01*
X0120954Y0111976D01*
X0120424Y0111447D01*
X0119984Y0110841D01*
X0119644Y0110174D01*
X0119413Y0109463D01*
X0119296Y0108723D01*
X0119296Y0108349D01*
X0124052Y0108349D01*
X0128808Y0108349D01*
X0128808Y0108723D01*
X0128691Y0109463D01*
X0128459Y0110174D01*
X0128119Y0110841D01*
X0127679Y0111447D01*
X0127150Y0111976D01*
X0126544Y0112416D01*
X0125877Y0112756D01*
X0125166Y0112988D01*
X0124426Y0113105D01*
X0124052Y0113105D01*
X0124052Y0108349D01*
X0124052Y0108349D01*
X0124052Y0108349D01*
X0128808Y0108349D01*
X0128808Y0107975D01*
X0128691Y0107235D01*
X0128459Y0106523D01*
X0128119Y0105856D01*
X0127679Y0105251D01*
X0127150Y0104721D01*
X0126544Y0104281D01*
X0125877Y0103941D01*
X0125166Y0103710D01*
X0124426Y0103593D01*
X0124052Y0103593D01*
X0124052Y0108349D01*
X0124052Y0113105D01*
X0123678Y0113105D01*
X0122938Y0112988D01*
X0124052Y0112274D02*
X0124052Y0112274D01*
X0124052Y0110307D02*
X0124052Y0110307D01*
X0124052Y0108349D02*
X0124052Y0108349D01*
X0124052Y0108349D01*
X0124052Y0103593D01*
X0123678Y0103593D01*
X0122938Y0103710D01*
X0122226Y0103941D01*
X0121559Y0104281D01*
X0120954Y0104721D01*
X0120424Y0105251D01*
X0119984Y0105856D01*
X0119644Y0106523D01*
X0119413Y0107235D01*
X0119296Y0107975D01*
X0119296Y0108349D01*
X0124052Y0108349D01*
X0124052Y0108340D02*
X0124052Y0108340D01*
X0124052Y0106373D02*
X0124052Y0106373D01*
X0124052Y0104406D02*
X0124052Y0104406D01*
X0121388Y0104406D02*
X0116812Y0104406D01*
X0118364Y0106373D02*
X0119721Y0106373D01*
X0119296Y0108340D02*
X0118792Y0108340D01*
X0118371Y0110307D02*
X0119712Y0110307D01*
X0121363Y0112274D02*
X0116830Y0112274D01*
X0111291Y0104406D02*
X0106812Y0104406D01*
X0108364Y0106373D02*
X0109740Y0106373D01*
X0109312Y0108340D02*
X0108792Y0108340D01*
X0109629Y0110307D02*
X0109732Y0110307D01*
X0126741Y0112274D02*
X0131273Y0112274D01*
X0129732Y0110307D02*
X0128392Y0110307D01*
X0128808Y0108340D02*
X0129312Y0108340D01*
X0129740Y0106373D02*
X0128383Y0106373D01*
X0126716Y0104406D02*
X0131291Y0104406D01*
X0134311Y0114241D02*
X0136603Y0114241D01*
D23*
X0126768Y0134924D03*
X0136611Y0171341D03*
X0136611Y0181184D03*
X0120863Y0216617D03*
X0130705Y0222522D03*
X0109052Y0192995D03*
X0101178Y0185121D03*
X0097241Y0212680D03*
X0105115Y0214648D03*
X0089367Y0232365D03*
X0077556Y0222522D03*
X0077556Y0214648D03*
X0079524Y0206774D03*
D24*
X0095272Y0206774D01*
X0097241Y0212680D02*
X0085430Y0212680D01*
X0083461Y0214648D01*
X0077556Y0214648D01*
X0077556Y0222522D02*
X0097241Y0222522D01*
X0105115Y0214648D01*
X0112005Y0211695D02*
X0116926Y0211695D01*
X0120863Y0215632D01*
X0120863Y0216617D01*
X0120863Y0222325D02*
X0121060Y0222522D01*
X0130705Y0222522D01*
X0130705Y0221735D01*
X0137595Y0215829D01*
X0138579Y0226459D02*
X0138579Y0232365D01*
X0125784Y0244176D01*
X0110036Y0244176D01*
X0110036Y0242207D01*
X0100194Y0232365D01*
X0089367Y0232365D01*
X0110036Y0226459D02*
X0113973Y0230396D01*
X0121847Y0230396D01*
X0121847Y0235514D01*
X0120863Y0236498D01*
X0121847Y0230396D02*
X0130705Y0230396D01*
X0112005Y0211695D02*
X0102162Y0201853D01*
X0101178Y0201853D01*
X0101178Y0200869D01*
X0098225Y0197916D01*
X0088579Y0197916D01*
X0101178Y0192995D02*
X0092320Y0184136D01*
X0101178Y0192995D02*
X0109052Y0192995D01*
X0123816Y0193979D02*
X0131886Y0189845D01*
X0130705Y0189845D01*
X0131886Y0189845D02*
X0155863Y0189845D01*
X0156296Y0190278D01*
X0156296Y0180278D02*
X0154052Y0178034D01*
X0130705Y0178034D01*
X0130705Y0166223D02*
X0152241Y0166223D01*
X0156296Y0170278D01*
X0155863Y0160711D02*
X0156296Y0160278D01*
X0146453Y0137876D02*
X0146453Y0132955D01*
X0147438Y0131971D01*
X0147438Y0121735D01*
X0134052Y0108349D01*
D25*
X0091335Y0135908D03*
X0075587Y0103428D03*
X0069682Y0137876D03*
X0074603Y0173309D03*
X0072635Y0231380D03*
D26*
X0130705Y0230396D03*
X0130705Y0143782D03*
X0138579Y0143782D03*
X0146453Y0137876D03*
M02*
