G75*
%MOIN*%
%OFA0B0*%
%FSLAX25Y25*%
%IPPOS*%
%LPD*%
%AMOC8*
5,1,8,0,0,1.08239X$1,22.5*
%
%ADD10R,0.03150X0.01969*%
%ADD11C,0.05543*%
%ADD12R,0.01969X0.05906*%
%ADD13R,0.05906X0.01969*%
%ADD14R,0.03150X0.03937*%
%ADD15R,0.04724X0.03937*%
%ADD16R,0.03937X0.03150*%
%ADD17OC8,0.05200*%
%ADD18R,0.05906X0.04331*%
%ADD19R,0.05543X0.05543*%
%ADD20R,0.03937X0.05906*%
%ADD21R,0.04331X0.05906*%
%ADD22R,0.10236X0.06299*%
%ADD23C,0.01181*%
%ADD24C,0.00787*%
%ADD25C,0.03175*%
%ADD26R,0.03569X0.03569*%
%ADD27C,0.01969*%
%ADD28C,0.03569*%
D10*
X0095666Y0122325D03*
X0095666Y0129806D03*
X0106690Y0129806D03*
X0106690Y0126065D03*
X0106690Y0122325D03*
D11*
X0104052Y0108349D03*
X0114052Y0108349D03*
X0124052Y0108349D03*
X0134052Y0108349D03*
X0156296Y0160278D03*
X0156296Y0170278D03*
X0156296Y0180278D03*
X0156296Y0190278D03*
X0156296Y0200278D03*
X0094052Y0108349D03*
X0084052Y0108349D03*
D12*
X0093304Y0178034D03*
X0096453Y0178034D03*
X0099603Y0178034D03*
X0102753Y0178034D03*
X0105902Y0178034D03*
X0109052Y0178034D03*
X0112201Y0178034D03*
X0115351Y0178034D03*
X0118501Y0178034D03*
X0121650Y0178034D03*
X0124800Y0178034D03*
X0124800Y0223703D03*
X0121650Y0223703D03*
X0118501Y0223703D03*
X0115351Y0223703D03*
X0112201Y0223703D03*
X0109052Y0223703D03*
X0105902Y0223703D03*
X0102753Y0223703D03*
X0099603Y0223703D03*
X0096453Y0223703D03*
X0093304Y0223703D03*
D13*
X0086217Y0216617D03*
X0086217Y0213467D03*
X0086217Y0210317D03*
X0086217Y0207168D03*
X0086217Y0204018D03*
X0086217Y0200869D03*
X0086217Y0197719D03*
X0086217Y0194569D03*
X0086217Y0191420D03*
X0086217Y0188270D03*
X0086217Y0185121D03*
X0131886Y0185121D03*
X0131886Y0188270D03*
X0131886Y0191420D03*
X0131886Y0194569D03*
X0131886Y0197719D03*
X0131886Y0200869D03*
X0131886Y0204018D03*
X0131886Y0207168D03*
X0131886Y0210317D03*
X0131886Y0213467D03*
X0131886Y0216617D03*
D14*
X0121650Y0169372D03*
X0116138Y0169372D03*
X0101965Y0147719D03*
X0096453Y0147719D03*
X0082280Y0131971D03*
X0076768Y0131971D03*
X0076768Y0122128D03*
X0082280Y0122128D03*
X0068698Y0180199D03*
X0068698Y0187089D03*
X0062792Y0187089D03*
X0062792Y0180199D03*
X0062792Y0197916D03*
X0062792Y0204806D03*
X0068698Y0204806D03*
X0068698Y0197916D03*
X0068698Y0215632D03*
X0062792Y0215632D03*
X0062792Y0222522D03*
X0068698Y0222522D03*
X0124012Y0121144D03*
X0129524Y0121144D03*
X0143698Y0130002D03*
X0149209Y0130002D03*
D15*
X0102753Y0155593D03*
X0102753Y0163467D03*
X0091729Y0163467D03*
X0091729Y0155593D03*
D16*
X0081493Y0170554D03*
X0081493Y0176065D03*
X0075587Y0196144D03*
X0075587Y0201656D03*
X0093304Y0236498D03*
X0093304Y0242010D03*
X0121847Y0242995D03*
X0121847Y0237483D03*
X0135627Y0237483D03*
X0135627Y0242995D03*
D17*
X0069682Y0158624D03*
X0069682Y0148624D03*
D18*
X0112989Y0236105D03*
X0112989Y0244372D03*
D19*
X0156296Y0150278D03*
D20*
X0159249Y0222522D03*
X0149406Y0222522D03*
D21*
X0122044Y0153624D03*
X0113776Y0153624D03*
D22*
X0081493Y0231184D03*
X0081493Y0245357D03*
D23*
X0062792Y0222522D02*
X0062792Y0215632D01*
X0075587Y0201656D02*
X0079131Y0204018D01*
X0086217Y0204018D01*
X0062792Y0187089D02*
X0062792Y0180199D01*
X0091335Y0135908D02*
X0095272Y0135908D01*
X0098520Y0132660D01*
X0095666Y0129806D01*
X0082477Y0129806D01*
X0082280Y0131971D01*
X0082477Y0122325D02*
X0082280Y0122128D01*
X0082477Y0122325D02*
X0095666Y0122325D01*
X0098520Y0132660D02*
X0105705Y0139845D01*
X0118894Y0139845D01*
X0120863Y0141813D01*
X0120863Y0153821D01*
X0122044Y0153624D01*
X0120863Y0153821D02*
X0120863Y0161498D01*
X0116138Y0166223D01*
X0116138Y0169372D01*
X0114957Y0169372D01*
X0109052Y0174294D01*
X0109052Y0178034D01*
X0109052Y0183152D01*
X0126768Y0200869D01*
X0131886Y0200869D01*
X0131886Y0188270D02*
X0137398Y0188270D01*
X0140548Y0185121D01*
X0140548Y0145750D01*
X0138579Y0143782D01*
X0131886Y0144963D02*
X0130705Y0143782D01*
X0131886Y0144963D02*
X0131886Y0185121D01*
X0126768Y0134924D02*
X0126768Y0129806D01*
X0114957Y0129806D01*
X0114957Y0124097D01*
X0113186Y0122325D01*
X0106690Y0122325D01*
X0106690Y0129806D02*
X0114957Y0129806D01*
X0124012Y0121144D02*
X0124052Y0112719D01*
X0124052Y0108349D01*
X0126768Y0129806D02*
X0143501Y0129806D01*
X0143698Y0130002D01*
D24*
X0146453Y0137876D02*
X0148422Y0139845D01*
X0148422Y0185121D01*
X0135823Y0197719D01*
X0131886Y0197719D01*
X0131886Y0207168D02*
X0123225Y0207168D01*
X0109052Y0192995D01*
X0102753Y0178034D02*
X0102753Y0170750D01*
X0102755Y0170655D01*
X0102761Y0170560D01*
X0102770Y0170465D01*
X0102784Y0170371D01*
X0102801Y0170278D01*
X0102822Y0170185D01*
X0102846Y0170093D01*
X0102875Y0170002D01*
X0102906Y0169912D01*
X0102942Y0169824D01*
X0102981Y0169737D01*
X0103024Y0169652D01*
X0103069Y0169569D01*
X0103119Y0169488D01*
X0103171Y0169408D01*
X0103227Y0169331D01*
X0103285Y0169256D01*
X0103347Y0169184D01*
X0103412Y0169114D01*
X0103479Y0169047D01*
X0103549Y0168982D01*
X0103621Y0168920D01*
X0103696Y0168862D01*
X0103773Y0168806D01*
X0103853Y0168754D01*
X0103934Y0168704D01*
X0104017Y0168659D01*
X0104102Y0168616D01*
X0104189Y0168577D01*
X0104277Y0168541D01*
X0104367Y0168510D01*
X0104458Y0168481D01*
X0104550Y0168457D01*
X0104643Y0168436D01*
X0104736Y0168419D01*
X0104830Y0168405D01*
X0104925Y0168396D01*
X0105020Y0168390D01*
X0105115Y0168388D01*
X0105115Y0168389D02*
X0105201Y0168387D01*
X0105287Y0168382D01*
X0105372Y0168372D01*
X0105457Y0168359D01*
X0105541Y0168342D01*
X0105625Y0168322D01*
X0105707Y0168298D01*
X0105788Y0168270D01*
X0105869Y0168239D01*
X0105947Y0168205D01*
X0106024Y0168167D01*
X0106100Y0168125D01*
X0106173Y0168081D01*
X0106244Y0168033D01*
X0106314Y0167982D01*
X0106381Y0167928D01*
X0106445Y0167872D01*
X0106507Y0167812D01*
X0106567Y0167750D01*
X0106623Y0167686D01*
X0106677Y0167619D01*
X0106728Y0167549D01*
X0106776Y0167478D01*
X0106820Y0167405D01*
X0106862Y0167329D01*
X0106900Y0167252D01*
X0106934Y0167174D01*
X0106965Y0167093D01*
X0106993Y0167012D01*
X0107017Y0166930D01*
X0107037Y0166846D01*
X0107054Y0166762D01*
X0107067Y0166677D01*
X0107077Y0166592D01*
X0107082Y0166506D01*
X0107084Y0166420D01*
X0107083Y0166420D02*
X0107083Y0159924D01*
X0107084Y0159924D02*
X0107082Y0159793D01*
X0107076Y0159663D01*
X0107066Y0159532D01*
X0107052Y0159402D01*
X0107035Y0159272D01*
X0107013Y0159143D01*
X0106988Y0159015D01*
X0106958Y0158888D01*
X0106925Y0158761D01*
X0106888Y0158636D01*
X0106847Y0158511D01*
X0106803Y0158388D01*
X0106754Y0158267D01*
X0106702Y0158147D01*
X0106647Y0158028D01*
X0106588Y0157911D01*
X0106525Y0157796D01*
X0106459Y0157683D01*
X0106390Y0157572D01*
X0106317Y0157464D01*
X0106241Y0157357D01*
X0106162Y0157253D01*
X0106080Y0157151D01*
X0105995Y0157052D01*
X0105907Y0156955D01*
X0105815Y0156862D01*
X0105722Y0156770D01*
X0105625Y0156682D01*
X0105526Y0156597D01*
X0105424Y0156515D01*
X0105320Y0156436D01*
X0105213Y0156360D01*
X0105105Y0156287D01*
X0104994Y0156218D01*
X0104881Y0156152D01*
X0104766Y0156089D01*
X0104649Y0156030D01*
X0104530Y0155975D01*
X0104410Y0155923D01*
X0104289Y0155874D01*
X0104166Y0155830D01*
X0104041Y0155789D01*
X0103916Y0155752D01*
X0103789Y0155719D01*
X0103662Y0155689D01*
X0103534Y0155664D01*
X0103405Y0155642D01*
X0103275Y0155625D01*
X0103145Y0155611D01*
X0103014Y0155601D01*
X0102884Y0155595D01*
X0102753Y0155593D01*
X0102753Y0148506D01*
X0101965Y0147719D01*
X0091729Y0163467D02*
X0091731Y0163605D01*
X0091737Y0163743D01*
X0091746Y0163881D01*
X0091760Y0164018D01*
X0091777Y0164155D01*
X0091799Y0164291D01*
X0091824Y0164427D01*
X0091852Y0164562D01*
X0091885Y0164696D01*
X0091921Y0164829D01*
X0091961Y0164961D01*
X0092005Y0165092D01*
X0092053Y0165222D01*
X0092104Y0165350D01*
X0092158Y0165477D01*
X0092216Y0165602D01*
X0092278Y0165726D01*
X0092343Y0165847D01*
X0092411Y0165967D01*
X0092483Y0166085D01*
X0092558Y0166201D01*
X0092637Y0166315D01*
X0092718Y0166426D01*
X0092803Y0166535D01*
X0092890Y0166642D01*
X0092981Y0166746D01*
X0093074Y0166848D01*
X0093170Y0166947D01*
X0093269Y0167043D01*
X0093371Y0167136D01*
X0093475Y0167227D01*
X0093582Y0167314D01*
X0093691Y0167399D01*
X0093802Y0167480D01*
X0093916Y0167559D01*
X0094032Y0167634D01*
X0094150Y0167706D01*
X0094270Y0167774D01*
X0094391Y0167839D01*
X0094515Y0167901D01*
X0094640Y0167959D01*
X0094767Y0168013D01*
X0094895Y0168064D01*
X0095025Y0168112D01*
X0095156Y0168156D01*
X0095288Y0168196D01*
X0095421Y0168232D01*
X0095555Y0168265D01*
X0095690Y0168293D01*
X0095826Y0168318D01*
X0095962Y0168340D01*
X0096099Y0168357D01*
X0096236Y0168371D01*
X0096374Y0168380D01*
X0096512Y0168386D01*
X0096650Y0168388D01*
X0097241Y0168388D01*
X0097336Y0168390D01*
X0097431Y0168396D01*
X0097526Y0168405D01*
X0097620Y0168419D01*
X0097713Y0168436D01*
X0097806Y0168457D01*
X0097898Y0168481D01*
X0097989Y0168510D01*
X0098079Y0168541D01*
X0098167Y0168577D01*
X0098254Y0168616D01*
X0098339Y0168659D01*
X0098422Y0168704D01*
X0098503Y0168754D01*
X0098583Y0168806D01*
X0098660Y0168862D01*
X0098735Y0168920D01*
X0098807Y0168982D01*
X0098877Y0169047D01*
X0098944Y0169114D01*
X0099009Y0169184D01*
X0099071Y0169256D01*
X0099129Y0169331D01*
X0099185Y0169408D01*
X0099237Y0169488D01*
X0099287Y0169569D01*
X0099332Y0169652D01*
X0099375Y0169737D01*
X0099414Y0169824D01*
X0099450Y0169912D01*
X0099481Y0170002D01*
X0099510Y0170093D01*
X0099534Y0170185D01*
X0099555Y0170278D01*
X0099572Y0170371D01*
X0099586Y0170465D01*
X0099595Y0170560D01*
X0099601Y0170655D01*
X0099603Y0170750D01*
X0099603Y0178034D01*
X0091729Y0163467D02*
X0088579Y0163467D01*
X0088408Y0163469D01*
X0088237Y0163475D01*
X0088066Y0163486D01*
X0087895Y0163500D01*
X0087725Y0163519D01*
X0087555Y0163541D01*
X0087386Y0163568D01*
X0087217Y0163599D01*
X0087050Y0163634D01*
X0086883Y0163673D01*
X0086717Y0163716D01*
X0086553Y0163763D01*
X0086389Y0163814D01*
X0086227Y0163869D01*
X0086066Y0163928D01*
X0085907Y0163990D01*
X0085749Y0164057D01*
X0085593Y0164127D01*
X0085438Y0164201D01*
X0085286Y0164279D01*
X0085135Y0164360D01*
X0084986Y0164445D01*
X0084840Y0164534D01*
X0084695Y0164626D01*
X0084553Y0164722D01*
X0084413Y0164820D01*
X0084276Y0164923D01*
X0084141Y0165028D01*
X0084009Y0165137D01*
X0083879Y0165249D01*
X0083753Y0165364D01*
X0083629Y0165483D01*
X0083508Y0165604D01*
X0083389Y0165728D01*
X0083274Y0165854D01*
X0083162Y0165984D01*
X0083053Y0166116D01*
X0082948Y0166251D01*
X0082845Y0166388D01*
X0082747Y0166528D01*
X0082651Y0166670D01*
X0082559Y0166815D01*
X0082470Y0166961D01*
X0082385Y0167110D01*
X0082304Y0167261D01*
X0082226Y0167413D01*
X0082152Y0167568D01*
X0082082Y0167724D01*
X0082015Y0167882D01*
X0081953Y0168041D01*
X0081894Y0168202D01*
X0081839Y0168364D01*
X0081788Y0168528D01*
X0081741Y0168692D01*
X0081698Y0168858D01*
X0081659Y0169025D01*
X0081624Y0169192D01*
X0081593Y0169361D01*
X0081566Y0169530D01*
X0081544Y0169700D01*
X0081525Y0169870D01*
X0081511Y0170041D01*
X0081500Y0170212D01*
X0081494Y0170383D01*
X0081492Y0170554D01*
X0077556Y0187089D02*
X0068698Y0187089D01*
X0062792Y0197916D02*
X0062792Y0204806D01*
X0068698Y0204806D02*
X0077556Y0213664D01*
X0077556Y0214648D01*
X0079524Y0206774D02*
X0079524Y0204412D01*
X0079131Y0204018D01*
X0082280Y0204018D02*
X0086217Y0204018D01*
X0086217Y0191420D02*
X0081886Y0191420D01*
X0077556Y0187089D01*
X0097241Y0212680D02*
X0102753Y0218191D01*
X0102753Y0223703D01*
X0105902Y0223703D02*
X0105902Y0215435D01*
X0105115Y0214648D01*
X0112201Y0223703D02*
X0112201Y0233349D01*
X0112989Y0236105D01*
X0121650Y0236695D02*
X0121650Y0223703D01*
X0121650Y0217404D01*
X0120863Y0216617D01*
X0124800Y0223703D02*
X0124800Y0224491D01*
X0130705Y0230396D01*
X0130705Y0232561D01*
X0135627Y0237483D01*
X0135627Y0236302D01*
X0149406Y0222522D01*
X0159249Y0222522D02*
X0159249Y0217601D01*
X0162201Y0214648D01*
X0162201Y0176184D01*
X0156296Y0170278D01*
X0136611Y0169372D02*
X0136611Y0171341D01*
X0136611Y0181184D01*
X0130705Y0222522D02*
X0131690Y0223506D01*
X0121650Y0236695D02*
X0121847Y0237483D01*
X0093304Y0236498D02*
X0093304Y0223703D01*
X0088973Y0223703D01*
X0081493Y0231184D01*
X0077556Y0222522D02*
X0068698Y0222522D01*
X0089367Y0232365D02*
X0093304Y0228428D01*
X0093304Y0223703D01*
D25*
X0089367Y0232365D03*
X0077556Y0222522D03*
X0077556Y0214648D03*
X0079524Y0206774D03*
X0097241Y0212680D03*
X0105115Y0214648D03*
X0109052Y0192995D03*
X0101178Y0185121D03*
X0120863Y0216617D03*
X0130705Y0222522D03*
X0136611Y0181184D03*
X0136611Y0171341D03*
X0126768Y0134924D03*
D26*
X0091335Y0135908D03*
X0075587Y0103428D03*
X0069682Y0137876D03*
X0074603Y0173309D03*
X0072635Y0231380D03*
D27*
X0072322Y0103994D02*
X0070895Y0101522D01*
X0147208Y0101522D01*
X0145781Y0103994D01*
X0145012Y0106863D01*
X0145012Y0109834D01*
X0145781Y0112704D01*
X0147267Y0115277D01*
X0149368Y0117378D01*
X0151941Y0118863D01*
X0154810Y0119632D01*
X0157781Y0119632D01*
X0160651Y0118863D01*
X0163123Y0117436D01*
X0163123Y0173742D01*
X0160921Y0171540D01*
X0161052Y0171224D01*
X0161052Y0169332D01*
X0160328Y0167584D01*
X0158990Y0166246D01*
X0157242Y0165522D01*
X0155350Y0165522D01*
X0153602Y0166246D01*
X0152264Y0167584D01*
X0151540Y0169332D01*
X0151540Y0171224D01*
X0152264Y0172972D01*
X0153602Y0174310D01*
X0155350Y0175034D01*
X0157242Y0175034D01*
X0157558Y0174903D01*
X0158838Y0176183D01*
X0157242Y0175522D01*
X0155350Y0175522D01*
X0153602Y0176246D01*
X0152264Y0177584D01*
X0151540Y0179332D01*
X0151540Y0181224D01*
X0152264Y0182972D01*
X0153602Y0184310D01*
X0155350Y0185034D01*
X0157242Y0185034D01*
X0158990Y0184310D01*
X0159823Y0183476D01*
X0159823Y0187080D01*
X0158990Y0186246D01*
X0157242Y0185522D01*
X0155350Y0185522D01*
X0153602Y0186246D01*
X0152264Y0187584D01*
X0151540Y0189332D01*
X0151540Y0191224D01*
X0152264Y0192972D01*
X0153602Y0194310D01*
X0155350Y0195034D01*
X0157242Y0195034D01*
X0158990Y0194310D01*
X0159823Y0193476D01*
X0159823Y0197080D01*
X0158990Y0196246D01*
X0157242Y0195522D01*
X0155350Y0195522D01*
X0153602Y0196246D01*
X0152264Y0197584D01*
X0151540Y0199332D01*
X0151540Y0201224D01*
X0152264Y0202972D01*
X0153602Y0204310D01*
X0155350Y0205034D01*
X0157242Y0205034D01*
X0158990Y0204310D01*
X0159823Y0203476D01*
X0159823Y0213663D01*
X0158264Y0215223D01*
X0156871Y0216616D01*
X0156871Y0217585D01*
X0156458Y0217585D01*
X0155296Y0218747D01*
X0155296Y0226297D01*
X0156458Y0227459D01*
X0162039Y0227459D01*
X0163123Y0226375D01*
X0163123Y0233120D01*
X0160651Y0231693D01*
X0157781Y0230924D01*
X0154810Y0230924D01*
X0151941Y0231693D01*
X0149368Y0233178D01*
X0147267Y0235279D01*
X0145781Y0237852D01*
X0145012Y0240722D01*
X0145012Y0243693D01*
X0145781Y0246562D01*
X0147208Y0249034D01*
X0088524Y0249034D01*
X0088595Y0248768D01*
X0088595Y0245947D01*
X0082083Y0245947D01*
X0082083Y0244766D01*
X0082083Y0240223D01*
X0086872Y0240223D01*
X0087377Y0240358D01*
X0087829Y0240619D01*
X0088199Y0240989D01*
X0088460Y0241441D01*
X0088595Y0241946D01*
X0088595Y0244766D01*
X0082083Y0244766D01*
X0080902Y0244766D01*
X0074390Y0244766D01*
X0074390Y0241946D01*
X0074526Y0241441D01*
X0074787Y0240989D01*
X0075156Y0240619D01*
X0075609Y0240358D01*
X0076113Y0240223D01*
X0080902Y0240223D01*
X0080902Y0244766D01*
X0080902Y0245947D01*
X0074390Y0245947D01*
X0074390Y0248768D01*
X0074462Y0249034D01*
X0070895Y0249034D01*
X0072322Y0246562D01*
X0073091Y0243693D01*
X0073091Y0240722D01*
X0072322Y0237852D01*
X0070837Y0235279D01*
X0068736Y0233178D01*
X0066163Y0231693D01*
X0063293Y0230924D01*
X0060322Y0230924D01*
X0057452Y0231693D01*
X0054981Y0233120D01*
X0054981Y0117436D01*
X0057452Y0118863D01*
X0060322Y0119632D01*
X0063293Y0119632D01*
X0066163Y0118863D01*
X0068736Y0117378D01*
X0070837Y0115277D01*
X0072322Y0112704D01*
X0073091Y0109834D01*
X0073091Y0106863D01*
X0072322Y0103994D01*
X0072433Y0104406D02*
X0081269Y0104406D01*
X0081358Y0104317D02*
X0083106Y0103593D01*
X0084998Y0103593D01*
X0086746Y0104317D01*
X0088084Y0105655D01*
X0088808Y0107403D01*
X0088808Y0109295D01*
X0088084Y0111043D01*
X0086746Y0112381D01*
X0084998Y0113105D01*
X0083106Y0113105D01*
X0081358Y0112381D01*
X0080020Y0111043D01*
X0079296Y0109295D01*
X0079296Y0107403D01*
X0080020Y0105655D01*
X0081358Y0104317D01*
X0079723Y0106373D02*
X0072960Y0106373D01*
X0073091Y0108340D02*
X0079296Y0108340D01*
X0079715Y0110307D02*
X0072965Y0110307D01*
X0072438Y0112274D02*
X0081251Y0112274D01*
X0079883Y0118176D02*
X0084677Y0118176D01*
X0085839Y0119338D01*
X0085839Y0119750D01*
X0092876Y0119750D01*
X0093269Y0119357D01*
X0098063Y0119357D01*
X0099225Y0120519D01*
X0099225Y0124131D01*
X0098063Y0125294D01*
X0093269Y0125294D01*
X0092876Y0124900D01*
X0085839Y0124900D01*
X0085839Y0124919D01*
X0084677Y0126081D01*
X0079883Y0126081D01*
X0079514Y0125712D01*
X0079109Y0125946D01*
X0078604Y0126081D01*
X0076768Y0126081D01*
X0074932Y0126081D01*
X0074428Y0125946D01*
X0073975Y0125685D01*
X0073606Y0125315D01*
X0073345Y0124863D01*
X0073209Y0124358D01*
X0073209Y0122128D01*
X0073209Y0119899D01*
X0073345Y0119394D01*
X0073606Y0118942D01*
X0073975Y0118572D01*
X0074428Y0118311D01*
X0074932Y0118176D01*
X0076768Y0118176D01*
X0076768Y0122128D01*
X0076768Y0122128D01*
X0073209Y0122128D01*
X0076768Y0122128D01*
X0076768Y0122128D01*
X0076768Y0118176D01*
X0078604Y0118176D01*
X0079109Y0118311D01*
X0079514Y0118545D01*
X0079883Y0118176D01*
X0076768Y0120142D02*
X0076768Y0120142D01*
X0076768Y0122109D02*
X0076768Y0122109D01*
X0076768Y0122129D02*
X0076768Y0126081D01*
X0076768Y0122129D01*
X0076768Y0122129D01*
X0076768Y0124076D02*
X0076768Y0124076D01*
X0076768Y0126043D02*
X0076768Y0126043D01*
X0076768Y0128018D02*
X0074932Y0128018D01*
X0074428Y0128153D01*
X0073975Y0128415D01*
X0073606Y0128784D01*
X0073345Y0129237D01*
X0073209Y0129741D01*
X0073209Y0131971D01*
X0076768Y0131971D01*
X0076768Y0131971D01*
X0073209Y0131971D01*
X0073209Y0134201D01*
X0073345Y0134705D01*
X0073606Y0135158D01*
X0073975Y0135527D01*
X0074428Y0135788D01*
X0074932Y0135924D01*
X0076768Y0135924D01*
X0076768Y0131971D01*
X0076768Y0131971D01*
X0076768Y0131971D01*
X0076768Y0128018D01*
X0078604Y0128018D01*
X0079109Y0128153D01*
X0079514Y0128387D01*
X0079883Y0128018D01*
X0080600Y0128018D01*
X0080739Y0127902D01*
X0081019Y0127623D01*
X0081130Y0127577D01*
X0081222Y0127500D01*
X0081600Y0127382D01*
X0081965Y0127231D01*
X0082085Y0127231D01*
X0082200Y0127195D01*
X0082594Y0127231D01*
X0092876Y0127231D01*
X0093269Y0126837D01*
X0098063Y0126837D01*
X0099225Y0127999D01*
X0099225Y0129723D01*
X0099979Y0130477D01*
X0100703Y0131201D01*
X0106772Y0137270D01*
X0119407Y0137270D01*
X0120353Y0137662D01*
X0121077Y0138386D01*
X0123046Y0140355D01*
X0123438Y0141301D01*
X0123438Y0148687D01*
X0125031Y0148687D01*
X0126194Y0149850D01*
X0126194Y0157399D01*
X0125031Y0158561D01*
X0123438Y0158561D01*
X0123438Y0162011D01*
X0123046Y0162957D01*
X0122321Y0163681D01*
X0120583Y0165420D01*
X0121650Y0165420D01*
X0121650Y0169372D01*
X0121650Y0169372D01*
X0121650Y0165420D01*
X0123486Y0165420D01*
X0123991Y0165555D01*
X0124443Y0165816D01*
X0124813Y0166186D01*
X0125074Y0166638D01*
X0125209Y0167143D01*
X0125209Y0169372D01*
X0121650Y0169372D01*
X0121650Y0169373D01*
X0125209Y0169373D01*
X0125209Y0171602D01*
X0125074Y0172107D01*
X0124813Y0172559D01*
X0124443Y0172929D01*
X0124152Y0173097D01*
X0126606Y0173097D01*
X0127768Y0174259D01*
X0127768Y0181809D01*
X0126606Y0182971D01*
X0112512Y0182971D01*
X0126949Y0197408D01*
X0126949Y0183314D01*
X0128112Y0182152D01*
X0129312Y0182152D01*
X0129312Y0147284D01*
X0128571Y0146977D01*
X0127511Y0145917D01*
X0126937Y0144532D01*
X0126937Y0143032D01*
X0127511Y0141647D01*
X0128571Y0140587D01*
X0129956Y0140013D01*
X0131455Y0140013D01*
X0132840Y0140587D01*
X0133900Y0141647D01*
X0134474Y0143032D01*
X0134474Y0144532D01*
X0134461Y0144562D01*
X0134461Y0182152D01*
X0135661Y0182152D01*
X0136823Y0183314D01*
X0136823Y0185204D01*
X0137973Y0184054D01*
X0137973Y0147550D01*
X0137830Y0147550D01*
X0136445Y0146977D01*
X0135385Y0145917D01*
X0134811Y0144532D01*
X0134811Y0143032D01*
X0135385Y0141647D01*
X0136445Y0140587D01*
X0137830Y0140013D01*
X0139329Y0140013D01*
X0140714Y0140587D01*
X0141774Y0141647D01*
X0142348Y0143032D01*
X0142348Y0143909D01*
X0142731Y0144292D01*
X0143123Y0145238D01*
X0143123Y0185633D01*
X0142731Y0186579D01*
X0142006Y0187303D01*
X0138857Y0190453D01*
X0137910Y0190845D01*
X0136823Y0190845D01*
X0136823Y0193356D01*
X0146044Y0184136D01*
X0146044Y0141645D01*
X0145704Y0141645D01*
X0144319Y0141071D01*
X0143259Y0140011D01*
X0142685Y0138626D01*
X0142685Y0137127D01*
X0143259Y0135742D01*
X0144319Y0134682D01*
X0145704Y0134108D01*
X0147203Y0134108D01*
X0148588Y0134682D01*
X0149648Y0135742D01*
X0150222Y0137127D01*
X0150222Y0138282D01*
X0150800Y0138860D01*
X0150800Y0186105D01*
X0136823Y0200082D01*
X0136823Y0202675D01*
X0136803Y0202695D01*
X0136823Y0202773D01*
X0136823Y0204018D01*
X0131887Y0204018D01*
X0131887Y0204018D01*
X0136823Y0204018D01*
X0136823Y0205264D01*
X0136803Y0205341D01*
X0136823Y0205362D01*
X0136823Y0218423D01*
X0135661Y0219585D01*
X0128112Y0219585D01*
X0126949Y0218423D01*
X0126949Y0209546D01*
X0122240Y0209546D01*
X0109261Y0196566D01*
X0108341Y0196566D01*
X0107029Y0196022D01*
X0106024Y0195018D01*
X0105480Y0193705D01*
X0105480Y0192284D01*
X0106024Y0190971D01*
X0107029Y0189967D01*
X0108341Y0189423D01*
X0109762Y0189423D01*
X0111075Y0189967D01*
X0112080Y0190971D01*
X0112623Y0192284D01*
X0112623Y0193203D01*
X0124210Y0204790D01*
X0126949Y0204790D01*
X0126949Y0204018D01*
X0126949Y0203443D01*
X0126256Y0203443D01*
X0125310Y0203051D01*
X0107593Y0185335D01*
X0106869Y0184611D01*
X0106477Y0183664D01*
X0106477Y0182971D01*
X0105902Y0182971D01*
X0104657Y0182971D01*
X0104579Y0182950D01*
X0104559Y0182971D01*
X0091498Y0182971D01*
X0090335Y0181809D01*
X0090335Y0174259D01*
X0091498Y0173097D01*
X0097225Y0173097D01*
X0097225Y0170766D01*
X0095198Y0170766D01*
X0092516Y0169655D01*
X0092516Y0169655D01*
X0090462Y0167602D01*
X0090387Y0167420D01*
X0088545Y0167420D01*
X0087383Y0166257D01*
X0087383Y0166052D01*
X0086442Y0166358D01*
X0086442Y0166358D01*
X0085250Y0167224D01*
X0084940Y0167651D01*
X0085446Y0168157D01*
X0085446Y0172950D01*
X0085076Y0173319D01*
X0085310Y0173725D01*
X0085446Y0174229D01*
X0085446Y0176065D01*
X0081493Y0176065D01*
X0081493Y0176065D01*
X0085446Y0176065D01*
X0085446Y0177901D01*
X0085310Y0178406D01*
X0085049Y0178859D01*
X0084680Y0179228D01*
X0084227Y0179489D01*
X0083723Y0179624D01*
X0081493Y0179624D01*
X0081493Y0176066D01*
X0081493Y0176066D01*
X0081493Y0179624D01*
X0079263Y0179624D01*
X0078758Y0179489D01*
X0078306Y0179228D01*
X0077936Y0178859D01*
X0077675Y0178406D01*
X0077540Y0177901D01*
X0077540Y0176065D01*
X0077540Y0174229D01*
X0077675Y0173725D01*
X0077909Y0173319D01*
X0077540Y0172950D01*
X0077540Y0168157D01*
X0078702Y0166995D01*
X0079784Y0166995D01*
X0080041Y0166203D01*
X0081804Y0163778D01*
X0084229Y0162015D01*
X0087080Y0161089D01*
X0087383Y0161089D01*
X0087383Y0160677D01*
X0088545Y0159514D01*
X0088988Y0159514D01*
X0088601Y0159410D01*
X0088148Y0159149D01*
X0087779Y0158780D01*
X0087518Y0158327D01*
X0087383Y0157823D01*
X0087383Y0155593D01*
X0091729Y0155593D01*
X0096075Y0155593D01*
X0096075Y0157823D01*
X0095940Y0158327D01*
X0095679Y0158780D01*
X0095310Y0159149D01*
X0094857Y0159410D01*
X0094470Y0159514D01*
X0094913Y0159514D01*
X0096075Y0160677D01*
X0096075Y0165929D01*
X0096154Y0165961D01*
X0096650Y0166010D01*
X0098226Y0166010D01*
X0098256Y0166040D01*
X0098528Y0166153D01*
X0098406Y0165697D01*
X0098406Y0163467D01*
X0102752Y0163467D01*
X0098406Y0163467D01*
X0098406Y0161237D01*
X0098541Y0160733D01*
X0098803Y0160280D01*
X0099172Y0159911D01*
X0099625Y0159649D01*
X0100012Y0159546D01*
X0099569Y0159546D01*
X0098406Y0158383D01*
X0098406Y0152803D01*
X0099553Y0151656D01*
X0099199Y0151303D01*
X0098794Y0151536D01*
X0098289Y0151672D01*
X0096453Y0151672D01*
X0094617Y0151672D01*
X0094113Y0151536D01*
X0093660Y0151275D01*
X0093291Y0150906D01*
X0093030Y0150453D01*
X0092894Y0149949D01*
X0092894Y0147719D01*
X0096453Y0147719D01*
X0096453Y0147719D01*
X0092894Y0147719D01*
X0092894Y0145489D01*
X0093030Y0144985D01*
X0093291Y0144532D01*
X0093660Y0144163D01*
X0094113Y0143901D01*
X0094617Y0143766D01*
X0096453Y0143766D01*
X0096453Y0147719D01*
X0096453Y0151672D01*
X0096453Y0147719D01*
X0096453Y0147719D01*
X0096453Y0147719D01*
X0096453Y0143766D01*
X0098289Y0143766D01*
X0098794Y0143901D01*
X0099199Y0144135D01*
X0099569Y0143766D01*
X0104362Y0143766D01*
X0105524Y0144929D01*
X0105524Y0150509D01*
X0105131Y0150903D01*
X0105131Y0151640D01*
X0105937Y0151640D01*
X0107099Y0152803D01*
X0107099Y0154783D01*
X0108440Y0156124D01*
X0109461Y0158589D01*
X0109461Y0167584D01*
X0108297Y0169602D01*
X0106279Y0170766D01*
X0105131Y0170766D01*
X0105131Y0173097D01*
X0105902Y0173097D01*
X0105902Y0178034D01*
X0105902Y0182971D01*
X0105902Y0178034D01*
X0105902Y0178034D01*
X0105902Y0178034D01*
X0105902Y0173097D01*
X0106761Y0173097D01*
X0106869Y0172835D01*
X0106954Y0172750D01*
X0107010Y0172644D01*
X0107314Y0172390D01*
X0107593Y0172111D01*
X0107704Y0172065D01*
X0112579Y0168002D01*
X0112579Y0166582D01*
X0113643Y0165518D01*
X0113956Y0164764D01*
X0118288Y0160432D01*
X0118288Y0157793D01*
X0117894Y0157399D01*
X0117894Y0156956D01*
X0117791Y0157343D01*
X0117529Y0157796D01*
X0117160Y0158165D01*
X0116707Y0158426D01*
X0116203Y0158561D01*
X0113875Y0158561D01*
X0113875Y0153723D01*
X0113678Y0153723D01*
X0113678Y0158561D01*
X0111350Y0158561D01*
X0110845Y0158426D01*
X0110393Y0158165D01*
X0110023Y0157796D01*
X0109762Y0157343D01*
X0109627Y0156838D01*
X0109627Y0153723D01*
X0113678Y0153723D01*
X0113678Y0153526D01*
X0113875Y0153526D01*
X0113875Y0148687D01*
X0116203Y0148687D01*
X0116707Y0148823D01*
X0117160Y0149084D01*
X0117529Y0149453D01*
X0117791Y0149906D01*
X0117894Y0150293D01*
X0117894Y0149850D01*
X0118288Y0149456D01*
X0118288Y0142880D01*
X0117828Y0142420D01*
X0105193Y0142420D01*
X0104247Y0142028D01*
X0098520Y0136301D01*
X0096731Y0138091D01*
X0095784Y0138483D01*
X0095104Y0138483D01*
X0095104Y0138514D01*
X0093941Y0139676D01*
X0088729Y0139676D01*
X0087567Y0138514D01*
X0087567Y0133302D01*
X0088488Y0132380D01*
X0085839Y0132380D01*
X0085839Y0134761D01*
X0084677Y0135924D01*
X0079883Y0135924D01*
X0079514Y0135554D01*
X0079109Y0135788D01*
X0078604Y0135924D01*
X0076768Y0135924D01*
X0076768Y0131971D01*
X0076768Y0128018D01*
X0076768Y0129977D02*
X0076768Y0129977D01*
X0076768Y0131944D02*
X0076768Y0131944D01*
X0076768Y0133911D02*
X0076768Y0133911D01*
X0076768Y0135878D02*
X0076768Y0135878D01*
X0074762Y0135878D02*
X0054981Y0135878D01*
X0054981Y0133911D02*
X0073209Y0133911D01*
X0073209Y0131944D02*
X0054981Y0131944D01*
X0054981Y0129977D02*
X0073209Y0129977D01*
X0074790Y0126043D02*
X0054981Y0126043D01*
X0054981Y0124076D02*
X0073209Y0124076D01*
X0073209Y0122109D02*
X0054981Y0122109D01*
X0054981Y0120142D02*
X0073209Y0120142D01*
X0069906Y0116208D02*
X0121461Y0116208D01*
X0121455Y0117352D02*
X0121477Y0112713D01*
X0121477Y0112430D01*
X0121358Y0112381D01*
X0120020Y0111043D01*
X0119296Y0109295D01*
X0119296Y0107403D01*
X0120020Y0105655D01*
X0121358Y0104317D01*
X0123106Y0103593D01*
X0124998Y0103593D01*
X0126746Y0104317D01*
X0128084Y0105655D01*
X0128808Y0107403D01*
X0128808Y0109295D01*
X0128084Y0111043D01*
X0126746Y0112381D01*
X0126628Y0112430D01*
X0126627Y0112724D01*
X0126627Y0113231D01*
X0126624Y0113237D01*
X0126605Y0117387D01*
X0126778Y0117561D01*
X0127184Y0117327D01*
X0127688Y0117191D01*
X0129524Y0117191D01*
X0129524Y0121144D01*
X0129524Y0121144D01*
X0129524Y0117191D01*
X0131360Y0117191D01*
X0131865Y0117327D01*
X0132317Y0117588D01*
X0132687Y0117957D01*
X0132948Y0118410D01*
X0133083Y0118914D01*
X0133083Y0121144D01*
X0129524Y0121144D01*
X0129524Y0125097D01*
X0127688Y0125097D01*
X0127184Y0124962D01*
X0126778Y0124728D01*
X0126409Y0125097D01*
X0121616Y0125097D01*
X0120453Y0123935D01*
X0120453Y0118354D01*
X0121455Y0117352D01*
X0120632Y0118175D02*
X0067355Y0118175D01*
X0071435Y0114241D02*
X0121470Y0114241D01*
X0121251Y0112274D02*
X0116741Y0112274D01*
X0116544Y0112416D02*
X0115877Y0112756D01*
X0115166Y0112988D01*
X0114426Y0113105D01*
X0114052Y0113105D01*
X0114052Y0108349D01*
X0118808Y0108349D01*
X0118808Y0108723D01*
X0118691Y0109463D01*
X0118459Y0110174D01*
X0118119Y0110841D01*
X0117679Y0111447D01*
X0117150Y0111976D01*
X0116544Y0112416D01*
X0118392Y0110307D02*
X0119715Y0110307D01*
X0119296Y0108340D02*
X0118808Y0108340D01*
X0118808Y0108349D02*
X0114052Y0108349D01*
X0114052Y0108349D01*
X0114052Y0108349D01*
X0114052Y0113105D01*
X0113678Y0113105D01*
X0112938Y0112988D01*
X0112226Y0112756D01*
X0111559Y0112416D01*
X0110954Y0111976D01*
X0110424Y0111447D01*
X0109984Y0110841D01*
X0109644Y0110174D01*
X0109413Y0109463D01*
X0109296Y0108723D01*
X0109296Y0108349D01*
X0114052Y0108349D01*
X0114052Y0103593D01*
X0114426Y0103593D01*
X0115166Y0103710D01*
X0115877Y0103941D01*
X0116544Y0104281D01*
X0117150Y0104721D01*
X0117679Y0105251D01*
X0118119Y0105856D01*
X0118459Y0106523D01*
X0118691Y0107235D01*
X0118808Y0107975D01*
X0118808Y0108349D01*
X0118383Y0106373D02*
X0119723Y0106373D01*
X0121269Y0104406D02*
X0116716Y0104406D01*
X0114052Y0104406D02*
X0114052Y0104406D01*
X0114052Y0103593D02*
X0114052Y0108349D01*
X0114052Y0108349D01*
X0114052Y0108349D01*
X0109296Y0108349D01*
X0109296Y0107975D01*
X0109413Y0107235D01*
X0109644Y0106523D01*
X0109984Y0105856D01*
X0110424Y0105251D01*
X0110954Y0104721D01*
X0111559Y0104281D01*
X0112226Y0103941D01*
X0112938Y0103710D01*
X0113678Y0103593D01*
X0114052Y0103593D01*
X0114052Y0106373D02*
X0114052Y0106373D01*
X0114052Y0108340D02*
X0114052Y0108340D01*
X0114052Y0110307D02*
X0114052Y0110307D01*
X0114052Y0112274D02*
X0114052Y0112274D01*
X0111363Y0112274D02*
X0106853Y0112274D01*
X0106746Y0112381D02*
X0104998Y0113105D01*
X0103106Y0113105D01*
X0101358Y0112381D01*
X0100020Y0111043D01*
X0099296Y0109295D01*
X0099296Y0107403D01*
X0100020Y0105655D01*
X0101358Y0104317D01*
X0103106Y0103593D01*
X0104998Y0103593D01*
X0106746Y0104317D01*
X0108084Y0105655D01*
X0108808Y0107403D01*
X0108808Y0109295D01*
X0108084Y0111043D01*
X0106746Y0112381D01*
X0108389Y0110307D02*
X0109712Y0110307D01*
X0109296Y0108340D02*
X0108808Y0108340D01*
X0108381Y0106373D02*
X0109721Y0106373D01*
X0111388Y0104406D02*
X0106835Y0104406D01*
X0101269Y0104406D02*
X0096835Y0104406D01*
X0096746Y0104317D02*
X0098084Y0105655D01*
X0098808Y0107403D01*
X0098808Y0109295D01*
X0098084Y0111043D01*
X0096746Y0112381D01*
X0094998Y0113105D01*
X0093106Y0113105D01*
X0091358Y0112381D01*
X0090020Y0111043D01*
X0089296Y0109295D01*
X0089296Y0107403D01*
X0090020Y0105655D01*
X0091358Y0104317D01*
X0093106Y0103593D01*
X0094998Y0103593D01*
X0096746Y0104317D01*
X0098381Y0106373D02*
X0099723Y0106373D01*
X0099296Y0108340D02*
X0098808Y0108340D01*
X0098389Y0110307D02*
X0099715Y0110307D01*
X0101251Y0112274D02*
X0096853Y0112274D01*
X0091251Y0112274D02*
X0086853Y0112274D01*
X0088389Y0110307D02*
X0089715Y0110307D01*
X0089296Y0108340D02*
X0088808Y0108340D01*
X0088381Y0106373D02*
X0089723Y0106373D01*
X0091269Y0104406D02*
X0086835Y0104406D01*
X0098848Y0120142D02*
X0103508Y0120142D01*
X0103131Y0120519D02*
X0104293Y0119357D01*
X0109086Y0119357D01*
X0109480Y0119750D01*
X0113698Y0119750D01*
X0114644Y0120142D01*
X0116416Y0121914D01*
X0117140Y0122638D01*
X0117532Y0123585D01*
X0117532Y0127231D01*
X0140138Y0127231D01*
X0140138Y0127212D01*
X0141301Y0126050D01*
X0146094Y0126050D01*
X0146463Y0126419D01*
X0146869Y0126185D01*
X0147373Y0126050D01*
X0149209Y0126050D01*
X0149209Y0130002D01*
X0149209Y0130002D01*
X0149209Y0126050D01*
X0151045Y0126050D01*
X0151550Y0126185D01*
X0152002Y0126446D01*
X0152372Y0126816D01*
X0152633Y0127268D01*
X0152768Y0127773D01*
X0152768Y0130002D01*
X0149209Y0130002D01*
X0149209Y0130002D01*
X0149209Y0130003D02*
X0149209Y0133955D01*
X0147373Y0133955D01*
X0146869Y0133820D01*
X0146463Y0133586D01*
X0146094Y0133955D01*
X0141301Y0133955D01*
X0140138Y0132793D01*
X0140138Y0132380D01*
X0129343Y0132380D01*
X0129343Y0132447D01*
X0129796Y0132900D01*
X0130340Y0134213D01*
X0130340Y0135634D01*
X0129796Y0136947D01*
X0128792Y0137952D01*
X0127479Y0138495D01*
X0126058Y0138495D01*
X0124745Y0137952D01*
X0123740Y0136947D01*
X0123197Y0135634D01*
X0123197Y0134213D01*
X0123740Y0132900D01*
X0124194Y0132447D01*
X0124194Y0132380D01*
X0109480Y0132380D01*
X0109086Y0132774D01*
X0104293Y0132774D01*
X0103131Y0131612D01*
X0103131Y0127999D01*
X0103284Y0127846D01*
X0103266Y0127816D01*
X0103131Y0127311D01*
X0103131Y0126065D01*
X0103131Y0124820D01*
X0103266Y0124315D01*
X0103284Y0124284D01*
X0103131Y0124131D01*
X0103131Y0120519D01*
X0103131Y0122109D02*
X0099225Y0122109D01*
X0099225Y0124076D02*
X0103131Y0124076D01*
X0103131Y0126043D02*
X0084715Y0126043D01*
X0080610Y0128010D02*
X0054981Y0128010D01*
X0054981Y0118175D02*
X0056260Y0118175D01*
X0054981Y0137845D02*
X0087567Y0137845D01*
X0087567Y0135878D02*
X0084722Y0135878D01*
X0085839Y0133911D02*
X0087567Y0133911D01*
X0092894Y0145713D02*
X0073254Y0145713D01*
X0074266Y0146726D02*
X0071581Y0144040D01*
X0067783Y0144040D01*
X0065098Y0146726D01*
X0065098Y0150523D01*
X0067783Y0153209D01*
X0071581Y0153209D01*
X0074266Y0150523D01*
X0074266Y0146726D01*
X0074266Y0147680D02*
X0092894Y0147680D01*
X0092894Y0149647D02*
X0074266Y0149647D01*
X0073175Y0151614D02*
X0094403Y0151614D01*
X0094352Y0151640D02*
X0094857Y0151775D01*
X0095310Y0152037D01*
X0095679Y0152406D01*
X0095940Y0152859D01*
X0096075Y0153363D01*
X0096075Y0155593D01*
X0091729Y0155593D01*
X0091729Y0155593D01*
X0091729Y0155593D01*
X0091729Y0151640D01*
X0094352Y0151640D01*
X0096453Y0151614D02*
X0096453Y0151614D01*
X0096453Y0149647D02*
X0096453Y0149647D01*
X0096453Y0147680D02*
X0096453Y0147680D01*
X0096453Y0145713D02*
X0096453Y0145713D01*
X0098504Y0151614D02*
X0099511Y0151614D01*
X0098406Y0153581D02*
X0096075Y0153581D01*
X0096075Y0155548D02*
X0098406Y0155548D01*
X0098406Y0157515D02*
X0096075Y0157515D01*
X0094589Y0159482D02*
X0099505Y0159482D01*
X0098406Y0161449D02*
X0096075Y0161449D01*
X0096075Y0163416D02*
X0098406Y0163416D01*
X0098406Y0165383D02*
X0096075Y0165383D01*
X0092178Y0169317D02*
X0085446Y0169317D01*
X0085446Y0171284D02*
X0097225Y0171284D01*
X0091343Y0173251D02*
X0085144Y0173251D01*
X0085446Y0175218D02*
X0090335Y0175218D01*
X0090335Y0177185D02*
X0085446Y0177185D01*
X0084755Y0179152D02*
X0090335Y0179152D01*
X0090335Y0181120D02*
X0072257Y0181120D01*
X0072257Y0180199D02*
X0072257Y0182429D01*
X0072121Y0182934D01*
X0071860Y0183386D01*
X0071602Y0183644D01*
X0072257Y0184299D01*
X0072257Y0184711D01*
X0078541Y0184711D01*
X0079934Y0186104D01*
X0081280Y0187451D01*
X0081280Y0183314D01*
X0082443Y0182152D01*
X0089992Y0182152D01*
X0091154Y0183314D01*
X0091154Y0199525D01*
X0091133Y0199546D01*
X0091154Y0199623D01*
X0091154Y0200868D01*
X0086217Y0200868D01*
X0081280Y0200868D01*
X0081280Y0199623D01*
X0081301Y0199546D01*
X0081280Y0199525D01*
X0081280Y0193798D01*
X0080901Y0193798D01*
X0076571Y0189467D01*
X0072257Y0189467D01*
X0072257Y0189879D01*
X0071094Y0191042D01*
X0066301Y0191042D01*
X0065745Y0190486D01*
X0065189Y0191042D01*
X0060395Y0191042D01*
X0059233Y0189879D01*
X0059233Y0184299D01*
X0059887Y0183644D01*
X0059233Y0182990D01*
X0059233Y0177409D01*
X0060395Y0176247D01*
X0065189Y0176247D01*
X0065745Y0176803D01*
X0065904Y0176643D01*
X0066357Y0176382D01*
X0066861Y0176247D01*
X0068697Y0176247D01*
X0068697Y0180199D01*
X0068698Y0180199D01*
X0068698Y0180199D01*
X0072257Y0180199D01*
X0072257Y0177970D01*
X0072121Y0177465D01*
X0071860Y0177012D01*
X0071491Y0176643D01*
X0071038Y0176382D01*
X0070534Y0176247D01*
X0068698Y0176247D01*
X0068698Y0180199D01*
X0072257Y0180199D01*
X0072257Y0179152D02*
X0078230Y0179152D01*
X0077540Y0177185D02*
X0071960Y0177185D01*
X0068698Y0177185D02*
X0068697Y0177185D01*
X0068697Y0179152D02*
X0068698Y0179152D01*
X0072033Y0183087D02*
X0081508Y0183087D01*
X0081280Y0185054D02*
X0078883Y0185054D01*
X0080850Y0187021D02*
X0081280Y0187021D01*
X0078058Y0190955D02*
X0071181Y0190955D01*
X0072400Y0192982D02*
X0072031Y0193351D01*
X0071770Y0193803D01*
X0071635Y0194308D01*
X0071635Y0194503D01*
X0071491Y0194359D01*
X0071038Y0194098D01*
X0070534Y0193963D01*
X0068698Y0193963D01*
X0068698Y0197916D01*
X0068697Y0197916D01*
X0068697Y0193963D01*
X0066861Y0193963D01*
X0066357Y0194098D01*
X0065904Y0194359D01*
X0065745Y0194519D01*
X0065189Y0193963D01*
X0060395Y0193963D01*
X0059233Y0195125D01*
X0059233Y0200706D01*
X0059887Y0201361D01*
X0059233Y0202015D01*
X0059233Y0207596D01*
X0060395Y0208758D01*
X0065189Y0208758D01*
X0065745Y0208202D01*
X0066301Y0208758D01*
X0069287Y0208758D01*
X0074125Y0213596D01*
X0073984Y0213938D01*
X0073984Y0215359D01*
X0074528Y0216671D01*
X0075533Y0217676D01*
X0076845Y0218220D01*
X0078266Y0218220D01*
X0079579Y0217676D01*
X0080584Y0216671D01*
X0081127Y0215359D01*
X0081127Y0213938D01*
X0080584Y0212625D01*
X0079579Y0211620D01*
X0078377Y0211122D01*
X0072257Y0205002D01*
X0072257Y0204675D01*
X0072797Y0205215D01*
X0076284Y0205215D01*
X0076300Y0205225D01*
X0075953Y0206064D01*
X0075953Y0207485D01*
X0076496Y0208797D01*
X0077501Y0209802D01*
X0078814Y0210346D01*
X0080235Y0210346D01*
X0081280Y0209913D01*
X0081280Y0218423D01*
X0082443Y0219585D01*
X0089992Y0219585D01*
X0091154Y0218423D01*
X0091154Y0202212D01*
X0091133Y0202191D01*
X0091154Y0202114D01*
X0091154Y0200869D01*
X0086217Y0200869D01*
X0086217Y0200868D01*
X0086217Y0200869D01*
X0081280Y0200869D01*
X0081280Y0201443D01*
X0079910Y0201443D01*
X0079540Y0201197D01*
X0079540Y0199259D01*
X0079171Y0198890D01*
X0079405Y0198485D01*
X0079540Y0197980D01*
X0079540Y0196144D01*
X0075587Y0196144D01*
X0075587Y0196144D01*
X0075587Y0192585D01*
X0073358Y0192585D01*
X0072853Y0192720D01*
X0072400Y0192982D01*
X0072504Y0192922D02*
X0054981Y0192922D01*
X0054981Y0194889D02*
X0059470Y0194889D01*
X0059233Y0196856D02*
X0054981Y0196856D01*
X0054981Y0198823D02*
X0059233Y0198823D01*
X0059316Y0200790D02*
X0054981Y0200790D01*
X0054981Y0202757D02*
X0059233Y0202757D01*
X0059233Y0204724D02*
X0054981Y0204724D01*
X0054981Y0206691D02*
X0059233Y0206691D01*
X0060295Y0208658D02*
X0054981Y0208658D01*
X0054981Y0210625D02*
X0071154Y0210625D01*
X0071038Y0211815D02*
X0071491Y0212076D01*
X0071860Y0212445D01*
X0072121Y0212898D01*
X0072257Y0213403D01*
X0072257Y0215632D01*
X0068698Y0215632D01*
X0068698Y0215632D01*
X0068698Y0211680D01*
X0070534Y0211680D01*
X0071038Y0211815D01*
X0071945Y0212592D02*
X0073121Y0212592D01*
X0073984Y0214559D02*
X0072257Y0214559D01*
X0072257Y0215632D02*
X0072257Y0217862D01*
X0072121Y0218367D01*
X0071860Y0218819D01*
X0071602Y0219077D01*
X0072257Y0219732D01*
X0072257Y0220144D01*
X0074883Y0220144D01*
X0075533Y0219494D01*
X0076845Y0218950D01*
X0078266Y0218950D01*
X0079579Y0219494D01*
X0080584Y0220499D01*
X0081127Y0221812D01*
X0081127Y0223233D01*
X0080584Y0224545D01*
X0079579Y0225550D01*
X0078373Y0226050D01*
X0083264Y0226050D01*
X0086595Y0222718D01*
X0087988Y0221325D01*
X0090335Y0221325D01*
X0090335Y0219929D01*
X0091498Y0218766D01*
X0099965Y0218766D01*
X0097450Y0216251D01*
X0096530Y0216251D01*
X0095218Y0215707D01*
X0094213Y0214703D01*
X0093669Y0213390D01*
X0093669Y0211969D01*
X0094213Y0210656D01*
X0095218Y0209652D01*
X0096530Y0209108D01*
X0097951Y0209108D01*
X0099264Y0209652D01*
X0100269Y0210656D01*
X0100812Y0211969D01*
X0100812Y0212888D01*
X0101636Y0213712D01*
X0102087Y0212625D01*
X0103092Y0211620D01*
X0104404Y0211076D01*
X0105825Y0211076D01*
X0107138Y0211620D01*
X0108143Y0212625D01*
X0108686Y0213938D01*
X0108686Y0215359D01*
X0108280Y0216339D01*
X0108280Y0218766D01*
X0109052Y0218766D01*
X0110297Y0218766D01*
X0110375Y0218787D01*
X0110395Y0218766D01*
X0117961Y0218766D01*
X0117835Y0218640D01*
X0117291Y0217327D01*
X0117291Y0215906D01*
X0117835Y0214593D01*
X0118840Y0213589D01*
X0120152Y0213045D01*
X0121573Y0213045D01*
X0122886Y0213589D01*
X0123891Y0214593D01*
X0124434Y0215906D01*
X0124434Y0217327D01*
X0124028Y0218308D01*
X0124028Y0218766D01*
X0126606Y0218766D01*
X0127768Y0219929D01*
X0127768Y0224096D01*
X0130300Y0226628D01*
X0131455Y0226628D01*
X0132840Y0227201D01*
X0133900Y0228261D01*
X0134474Y0229647D01*
X0134474Y0231146D01*
X0133940Y0232434D01*
X0135036Y0233529D01*
X0145453Y0223112D01*
X0145453Y0218747D01*
X0146616Y0217585D01*
X0152197Y0217585D01*
X0153359Y0218747D01*
X0153359Y0226297D01*
X0152197Y0227459D01*
X0147832Y0227459D01*
X0139579Y0235712D01*
X0139579Y0239879D01*
X0139210Y0240249D01*
X0139444Y0240654D01*
X0139579Y0241158D01*
X0139579Y0242994D01*
X0135627Y0242994D01*
X0135627Y0242995D01*
X0135627Y0242995D01*
X0135627Y0246554D01*
X0137856Y0246554D01*
X0138361Y0246418D01*
X0138813Y0246157D01*
X0139183Y0245788D01*
X0139444Y0245335D01*
X0139579Y0244831D01*
X0139579Y0242995D01*
X0135627Y0242995D01*
X0135627Y0246554D01*
X0133397Y0246554D01*
X0132892Y0246418D01*
X0132440Y0246157D01*
X0132070Y0245788D01*
X0131809Y0245335D01*
X0131674Y0244831D01*
X0131674Y0242995D01*
X0135627Y0242995D01*
X0135627Y0242994D01*
X0131674Y0242994D01*
X0131674Y0241158D01*
X0131809Y0240654D01*
X0132043Y0240249D01*
X0131674Y0239879D01*
X0131674Y0236893D01*
X0128327Y0233546D01*
X0128327Y0233348D01*
X0127511Y0232531D01*
X0126937Y0231146D01*
X0126937Y0229991D01*
X0125587Y0228640D01*
X0124028Y0228640D01*
X0124028Y0233924D01*
X0124638Y0233924D01*
X0125800Y0235086D01*
X0125800Y0239879D01*
X0125431Y0240249D01*
X0125665Y0240654D01*
X0125800Y0241158D01*
X0125800Y0242994D01*
X0121847Y0242994D01*
X0121847Y0242995D01*
X0121847Y0246554D01*
X0119617Y0246554D01*
X0119113Y0246418D01*
X0118660Y0246157D01*
X0118291Y0245788D01*
X0118030Y0245335D01*
X0117926Y0244948D01*
X0117926Y0246799D01*
X0117791Y0247304D01*
X0117529Y0247756D01*
X0117160Y0248126D01*
X0116707Y0248387D01*
X0116203Y0248522D01*
X0113087Y0248522D01*
X0113087Y0244471D01*
X0112890Y0244471D01*
X0112890Y0244274D01*
X0108052Y0244274D01*
X0108052Y0241946D01*
X0108187Y0241441D01*
X0108448Y0240989D01*
X0108818Y0240619D01*
X0109270Y0240358D01*
X0109657Y0240254D01*
X0109214Y0240254D01*
X0108052Y0239092D01*
X0108052Y0233118D01*
X0109214Y0231955D01*
X0109823Y0231955D01*
X0109823Y0228640D01*
X0109052Y0228640D01*
X0109052Y0223703D01*
X0109052Y0218766D01*
X0109052Y0223703D01*
X0109052Y0223703D01*
X0109052Y0223703D01*
X0109052Y0228640D01*
X0107806Y0228640D01*
X0107729Y0228619D01*
X0107708Y0228640D01*
X0095682Y0228640D01*
X0095682Y0232939D01*
X0096094Y0232939D01*
X0097257Y0234102D01*
X0097257Y0238895D01*
X0096887Y0239264D01*
X0097121Y0239670D01*
X0097257Y0240174D01*
X0097257Y0242010D01*
X0093304Y0242010D01*
X0093304Y0242010D01*
X0097257Y0242010D01*
X0097257Y0243846D01*
X0097121Y0244351D01*
X0096860Y0244803D01*
X0096491Y0245173D01*
X0096038Y0245434D01*
X0095534Y0245569D01*
X0093304Y0245569D01*
X0093304Y0242010D01*
X0089351Y0242010D01*
X0089351Y0240174D01*
X0089486Y0239670D01*
X0089720Y0239264D01*
X0089351Y0238895D01*
X0089351Y0235936D01*
X0088656Y0235936D01*
X0088061Y0235690D01*
X0087433Y0236317D01*
X0075553Y0236317D01*
X0074390Y0235155D01*
X0074390Y0227212D01*
X0075553Y0226050D01*
X0076739Y0226050D01*
X0075533Y0225550D01*
X0074883Y0224900D01*
X0072257Y0224900D01*
X0072257Y0225312D01*
X0071094Y0226475D01*
X0066301Y0226475D01*
X0065745Y0225919D01*
X0065189Y0226475D01*
X0060395Y0226475D01*
X0059233Y0225312D01*
X0059233Y0219732D01*
X0059887Y0219077D01*
X0059233Y0218423D01*
X0059233Y0212842D01*
X0060395Y0211680D01*
X0065189Y0211680D01*
X0065745Y0212236D01*
X0065904Y0212076D01*
X0066357Y0211815D01*
X0066861Y0211680D01*
X0068697Y0211680D01*
X0068697Y0215632D01*
X0068698Y0215632D01*
X0072257Y0215632D01*
X0072257Y0216526D02*
X0074468Y0216526D01*
X0072049Y0218493D02*
X0081350Y0218493D01*
X0081280Y0216526D02*
X0080644Y0216526D01*
X0081127Y0214559D02*
X0081280Y0214559D01*
X0081280Y0212592D02*
X0080551Y0212592D01*
X0081280Y0210625D02*
X0077880Y0210625D01*
X0076439Y0208658D02*
X0075913Y0208658D01*
X0075953Y0206691D02*
X0073946Y0206691D01*
X0072306Y0204724D02*
X0072257Y0204724D01*
X0068697Y0196856D02*
X0068698Y0196856D01*
X0068697Y0194889D02*
X0068698Y0194889D01*
X0066214Y0190955D02*
X0065276Y0190955D01*
X0060308Y0190955D02*
X0054981Y0190955D01*
X0054981Y0188988D02*
X0059233Y0188988D01*
X0059233Y0187021D02*
X0054981Y0187021D01*
X0054981Y0185054D02*
X0059233Y0185054D01*
X0059330Y0183087D02*
X0054981Y0183087D01*
X0054981Y0181120D02*
X0059233Y0181120D01*
X0059233Y0179152D02*
X0054981Y0179152D01*
X0054981Y0177185D02*
X0059456Y0177185D01*
X0054981Y0175218D02*
X0077540Y0175218D01*
X0077540Y0176065D02*
X0081493Y0176065D01*
X0081493Y0176065D01*
X0077540Y0176065D01*
X0077841Y0173251D02*
X0054981Y0173251D01*
X0054981Y0171284D02*
X0077540Y0171284D01*
X0077540Y0169317D02*
X0054981Y0169317D01*
X0054981Y0167350D02*
X0078347Y0167350D01*
X0080041Y0166203D02*
X0080041Y0166203D01*
X0080637Y0165383D02*
X0054981Y0165383D01*
X0054981Y0163416D02*
X0082301Y0163416D01*
X0081804Y0163778D02*
X0081804Y0163778D01*
X0081804Y0163778D01*
X0085971Y0161449D02*
X0073340Y0161449D01*
X0074266Y0160523D02*
X0071581Y0163209D01*
X0067783Y0163209D01*
X0065098Y0160523D01*
X0065098Y0156726D01*
X0067783Y0154040D01*
X0071581Y0154040D01*
X0074266Y0156726D01*
X0074266Y0160523D01*
X0074266Y0159482D02*
X0088869Y0159482D01*
X0087383Y0157515D02*
X0074266Y0157515D01*
X0073089Y0155548D02*
X0087383Y0155548D01*
X0087383Y0155593D02*
X0087383Y0153363D01*
X0087518Y0152859D01*
X0087779Y0152406D01*
X0088148Y0152037D01*
X0088601Y0151775D01*
X0089106Y0151640D01*
X0091729Y0151640D01*
X0091729Y0155593D01*
X0091729Y0155593D01*
X0087383Y0155593D01*
X0087383Y0153581D02*
X0054981Y0153581D01*
X0054981Y0151614D02*
X0066188Y0151614D01*
X0065098Y0149647D02*
X0054981Y0149647D01*
X0054981Y0147680D02*
X0065098Y0147680D01*
X0066110Y0145713D02*
X0054981Y0145713D01*
X0054981Y0143746D02*
X0118288Y0143746D01*
X0118288Y0145713D02*
X0105524Y0145713D01*
X0105524Y0147680D02*
X0118288Y0147680D01*
X0118097Y0149647D02*
X0117641Y0149647D01*
X0113875Y0149647D02*
X0113678Y0149647D01*
X0113678Y0148687D02*
X0111350Y0148687D01*
X0110845Y0148823D01*
X0110393Y0149084D01*
X0110023Y0149453D01*
X0109762Y0149906D01*
X0109627Y0150410D01*
X0109627Y0153526D01*
X0113678Y0153526D01*
X0113678Y0148687D01*
X0113678Y0151614D02*
X0113875Y0151614D01*
X0113678Y0153581D02*
X0107099Y0153581D01*
X0107865Y0155548D02*
X0109627Y0155548D01*
X0108440Y0156124D02*
X0108440Y0156124D01*
X0109016Y0157515D02*
X0109861Y0157515D01*
X0109461Y0159482D02*
X0118288Y0159482D01*
X0118011Y0157515D02*
X0117691Y0157515D01*
X0117271Y0161449D02*
X0109461Y0161449D01*
X0109461Y0163416D02*
X0115304Y0163416D01*
X0113699Y0165383D02*
X0109461Y0165383D01*
X0109461Y0167350D02*
X0112579Y0167350D01*
X0111001Y0169317D02*
X0108461Y0169317D01*
X0108297Y0169602D02*
X0108297Y0169602D01*
X0108297Y0169602D01*
X0108641Y0171284D02*
X0105131Y0171284D01*
X0105902Y0173251D02*
X0105902Y0173251D01*
X0105902Y0175218D02*
X0105902Y0175218D01*
X0105902Y0177185D02*
X0105902Y0177185D01*
X0105902Y0179152D02*
X0105902Y0179152D01*
X0105902Y0181120D02*
X0105902Y0181120D01*
X0106477Y0183087D02*
X0090926Y0183087D01*
X0091154Y0185054D02*
X0107312Y0185054D01*
X0109279Y0187021D02*
X0091154Y0187021D01*
X0091154Y0188988D02*
X0111246Y0188988D01*
X0112063Y0190955D02*
X0113213Y0190955D01*
X0112623Y0192922D02*
X0115180Y0192922D01*
X0114309Y0194889D02*
X0117147Y0194889D01*
X0116276Y0196856D02*
X0119114Y0196856D01*
X0118243Y0198823D02*
X0121081Y0198823D01*
X0120210Y0200790D02*
X0123048Y0200790D01*
X0122177Y0202757D02*
X0125015Y0202757D01*
X0124144Y0204724D02*
X0126949Y0204724D01*
X0126949Y0204018D02*
X0131886Y0204018D01*
X0126949Y0204018D01*
X0131886Y0204018D02*
X0131886Y0204018D01*
X0126949Y0210625D02*
X0100237Y0210625D01*
X0100812Y0212592D02*
X0102120Y0212592D01*
X0099691Y0218493D02*
X0091084Y0218493D01*
X0091154Y0216526D02*
X0097724Y0216526D01*
X0094153Y0214559D02*
X0091154Y0214559D01*
X0091154Y0212592D02*
X0093669Y0212592D01*
X0094245Y0210625D02*
X0091154Y0210625D01*
X0091154Y0208658D02*
X0121352Y0208658D01*
X0119385Y0206691D02*
X0091154Y0206691D01*
X0091154Y0204724D02*
X0117418Y0204724D01*
X0115451Y0202757D02*
X0091154Y0202757D01*
X0091154Y0200790D02*
X0113484Y0200790D01*
X0111517Y0198823D02*
X0091154Y0198823D01*
X0091154Y0196856D02*
X0109550Y0196856D01*
X0105970Y0194889D02*
X0091154Y0194889D01*
X0091154Y0192922D02*
X0105480Y0192922D01*
X0106041Y0190955D02*
X0091154Y0190955D01*
X0081280Y0194889D02*
X0079540Y0194889D01*
X0079540Y0194308D02*
X0079540Y0196144D01*
X0075587Y0196144D01*
X0075587Y0192585D01*
X0077817Y0192585D01*
X0078322Y0192720D01*
X0078774Y0192982D01*
X0079144Y0193351D01*
X0079405Y0193803D01*
X0079540Y0194308D01*
X0080025Y0192922D02*
X0078670Y0192922D01*
X0079540Y0196856D02*
X0081280Y0196856D01*
X0081280Y0198823D02*
X0079210Y0198823D01*
X0079540Y0200790D02*
X0081280Y0200790D01*
X0075587Y0196144D02*
X0075587Y0196144D01*
X0075587Y0194889D02*
X0075587Y0194889D01*
X0075587Y0192922D02*
X0075587Y0192922D01*
X0081493Y0179152D02*
X0081493Y0179152D01*
X0081493Y0177185D02*
X0081493Y0177185D01*
X0085158Y0167350D02*
X0088476Y0167350D01*
X0090462Y0167602D02*
X0090462Y0167602D01*
X0091729Y0155548D02*
X0091729Y0155548D01*
X0091729Y0153581D02*
X0091729Y0153581D01*
X0096976Y0137845D02*
X0100064Y0137845D01*
X0102031Y0139812D02*
X0054981Y0139812D01*
X0054981Y0141779D02*
X0103998Y0141779D01*
X0105380Y0135878D02*
X0123298Y0135878D01*
X0123322Y0133911D02*
X0103413Y0133911D01*
X0103463Y0131944D02*
X0101446Y0131944D01*
X0103131Y0129977D02*
X0099479Y0129977D01*
X0099225Y0128010D02*
X0103131Y0128010D01*
X0103131Y0126065D02*
X0106689Y0126065D01*
X0103131Y0126065D01*
X0106689Y0126065D02*
X0106689Y0126065D01*
X0106690Y0126065D02*
X0106690Y0126065D01*
X0110249Y0126065D01*
X0110249Y0124900D01*
X0112119Y0124900D01*
X0112383Y0125163D01*
X0112383Y0127231D01*
X0110249Y0127231D01*
X0110249Y0126065D01*
X0106690Y0126065D01*
X0110249Y0126043D02*
X0112383Y0126043D01*
X0114643Y0120142D02*
X0120453Y0120142D01*
X0120453Y0122109D02*
X0116611Y0122109D01*
X0116416Y0121914D02*
X0116416Y0121914D01*
X0117532Y0124076D02*
X0120595Y0124076D01*
X0117532Y0126043D02*
X0163123Y0126043D01*
X0163123Y0124076D02*
X0132834Y0124076D01*
X0132948Y0123879D02*
X0132687Y0124331D01*
X0132317Y0124700D01*
X0131865Y0124962D01*
X0131360Y0125097D01*
X0129524Y0125097D01*
X0129524Y0121144D01*
X0129524Y0121144D01*
X0129524Y0121144D01*
X0133083Y0121144D01*
X0133083Y0123374D01*
X0132948Y0123879D01*
X0133083Y0122109D02*
X0163123Y0122109D01*
X0163123Y0120142D02*
X0133083Y0120142D01*
X0132813Y0118175D02*
X0150748Y0118175D01*
X0148198Y0116208D02*
X0126610Y0116208D01*
X0126620Y0114241D02*
X0146669Y0114241D01*
X0145666Y0112274D02*
X0136853Y0112274D01*
X0136746Y0112381D02*
X0134998Y0113105D01*
X0133106Y0113105D01*
X0131358Y0112381D01*
X0130020Y0111043D01*
X0129296Y0109295D01*
X0129296Y0107403D01*
X0130020Y0105655D01*
X0131358Y0104317D01*
X0133106Y0103593D01*
X0134998Y0103593D01*
X0136746Y0104317D01*
X0138084Y0105655D01*
X0138808Y0107403D01*
X0138808Y0109295D01*
X0138084Y0111043D01*
X0136746Y0112381D01*
X0138389Y0110307D02*
X0145139Y0110307D01*
X0145012Y0108340D02*
X0138808Y0108340D01*
X0138381Y0106373D02*
X0145144Y0106373D01*
X0145671Y0104406D02*
X0136835Y0104406D01*
X0131269Y0104406D02*
X0126835Y0104406D01*
X0128381Y0106373D02*
X0129723Y0106373D01*
X0129296Y0108340D02*
X0128808Y0108340D01*
X0128389Y0110307D02*
X0129715Y0110307D01*
X0131251Y0112274D02*
X0126853Y0112274D01*
X0129524Y0118175D02*
X0129524Y0118175D01*
X0129524Y0120142D02*
X0129524Y0120142D01*
X0129524Y0122109D02*
X0129524Y0122109D01*
X0129524Y0124076D02*
X0129524Y0124076D01*
X0130215Y0133911D02*
X0141257Y0133911D01*
X0143202Y0135878D02*
X0130239Y0135878D01*
X0128898Y0137845D02*
X0142685Y0137845D01*
X0143176Y0139812D02*
X0122503Y0139812D01*
X0123438Y0141779D02*
X0127456Y0141779D01*
X0126937Y0143746D02*
X0123438Y0143746D01*
X0123438Y0145713D02*
X0127426Y0145713D01*
X0129312Y0147680D02*
X0123438Y0147680D01*
X0125991Y0149647D02*
X0129312Y0149647D01*
X0129312Y0151614D02*
X0126194Y0151614D01*
X0126194Y0153581D02*
X0129312Y0153581D01*
X0129312Y0155548D02*
X0126194Y0155548D01*
X0126077Y0157515D02*
X0129312Y0157515D01*
X0129312Y0159482D02*
X0123438Y0159482D01*
X0123438Y0161449D02*
X0129312Y0161449D01*
X0129312Y0163416D02*
X0122586Y0163416D01*
X0120619Y0165383D02*
X0129312Y0165383D01*
X0129312Y0167350D02*
X0125209Y0167350D01*
X0125209Y0169317D02*
X0129312Y0169317D01*
X0129312Y0171284D02*
X0125209Y0171284D01*
X0126761Y0173251D02*
X0129312Y0173251D01*
X0129312Y0175218D02*
X0127768Y0175218D01*
X0127768Y0177185D02*
X0129312Y0177185D01*
X0129312Y0179152D02*
X0127768Y0179152D01*
X0127768Y0181120D02*
X0129312Y0181120D01*
X0127177Y0183087D02*
X0112628Y0183087D01*
X0114595Y0185054D02*
X0126949Y0185054D01*
X0126949Y0187021D02*
X0116562Y0187021D01*
X0118529Y0188988D02*
X0126949Y0188988D01*
X0126949Y0190955D02*
X0120496Y0190955D01*
X0122463Y0192922D02*
X0126949Y0192922D01*
X0126949Y0194889D02*
X0124430Y0194889D01*
X0126397Y0196856D02*
X0126949Y0196856D01*
X0136823Y0200790D02*
X0151540Y0200790D01*
X0151751Y0198823D02*
X0138083Y0198823D01*
X0140050Y0196856D02*
X0152992Y0196856D01*
X0154999Y0194889D02*
X0142017Y0194889D01*
X0143984Y0192922D02*
X0152243Y0192922D01*
X0151540Y0190955D02*
X0145951Y0190955D01*
X0147918Y0188988D02*
X0151683Y0188988D01*
X0152828Y0187021D02*
X0149885Y0187021D01*
X0150800Y0185054D02*
X0159823Y0185054D01*
X0159764Y0187021D02*
X0159823Y0187021D01*
X0159823Y0194889D02*
X0157593Y0194889D01*
X0159599Y0196856D02*
X0159823Y0196856D01*
X0159823Y0204724D02*
X0157991Y0204724D01*
X0159823Y0206691D02*
X0136823Y0206691D01*
X0136823Y0208658D02*
X0159823Y0208658D01*
X0159823Y0210625D02*
X0136823Y0210625D01*
X0136823Y0212592D02*
X0159823Y0212592D01*
X0158928Y0214559D02*
X0136823Y0214559D01*
X0136823Y0216526D02*
X0156961Y0216526D01*
X0155551Y0218493D02*
X0153104Y0218493D01*
X0153359Y0220460D02*
X0155296Y0220460D01*
X0155296Y0222427D02*
X0153359Y0222427D01*
X0153359Y0224394D02*
X0155296Y0224394D01*
X0155360Y0226361D02*
X0153295Y0226361D01*
X0150955Y0232262D02*
X0143029Y0232262D01*
X0141062Y0234229D02*
X0148317Y0234229D01*
X0146737Y0236196D02*
X0139579Y0236196D01*
X0139579Y0238163D02*
X0145698Y0238163D01*
X0145171Y0240130D02*
X0139329Y0240130D01*
X0139579Y0242097D02*
X0145012Y0242097D01*
X0145112Y0244064D02*
X0139579Y0244064D01*
X0138940Y0246031D02*
X0145639Y0246031D01*
X0146610Y0247998D02*
X0117288Y0247998D01*
X0117926Y0246031D02*
X0118534Y0246031D01*
X0121847Y0246031D02*
X0121847Y0246031D01*
X0121847Y0246554D02*
X0121847Y0242995D01*
X0121847Y0242995D01*
X0125800Y0242995D01*
X0125800Y0244831D01*
X0125665Y0245335D01*
X0125403Y0245788D01*
X0125034Y0246157D01*
X0124581Y0246418D01*
X0124077Y0246554D01*
X0121847Y0246554D01*
X0121847Y0244064D02*
X0121847Y0244064D01*
X0125160Y0246031D02*
X0132314Y0246031D01*
X0131674Y0244064D02*
X0125800Y0244064D01*
X0125800Y0242097D02*
X0131674Y0242097D01*
X0131924Y0240130D02*
X0125549Y0240130D01*
X0125800Y0238163D02*
X0131674Y0238163D01*
X0130977Y0236196D02*
X0125800Y0236196D01*
X0124943Y0234229D02*
X0129010Y0234229D01*
X0127399Y0232262D02*
X0124028Y0232262D01*
X0124028Y0230295D02*
X0126937Y0230295D01*
X0130033Y0226361D02*
X0142204Y0226361D01*
X0140237Y0228328D02*
X0133928Y0228328D01*
X0134474Y0230295D02*
X0138270Y0230295D01*
X0136303Y0232262D02*
X0134012Y0232262D01*
X0128066Y0224394D02*
X0144171Y0224394D01*
X0145453Y0222427D02*
X0127768Y0222427D01*
X0127768Y0220460D02*
X0145453Y0220460D01*
X0145708Y0218493D02*
X0136753Y0218493D01*
X0136823Y0204724D02*
X0154601Y0204724D01*
X0152175Y0202757D02*
X0136819Y0202757D01*
X0136823Y0192922D02*
X0137258Y0192922D01*
X0136823Y0190955D02*
X0139225Y0190955D01*
X0140322Y0188988D02*
X0141192Y0188988D01*
X0142289Y0187021D02*
X0143159Y0187021D01*
X0143123Y0185054D02*
X0145126Y0185054D01*
X0146044Y0183087D02*
X0143123Y0183087D01*
X0143123Y0181120D02*
X0146044Y0181120D01*
X0146044Y0179152D02*
X0143123Y0179152D01*
X0143123Y0177185D02*
X0146044Y0177185D01*
X0146044Y0175218D02*
X0143123Y0175218D01*
X0143123Y0173251D02*
X0146044Y0173251D01*
X0146044Y0171284D02*
X0143123Y0171284D01*
X0143123Y0169317D02*
X0146044Y0169317D01*
X0146044Y0167350D02*
X0143123Y0167350D01*
X0143123Y0165383D02*
X0146044Y0165383D01*
X0146044Y0163416D02*
X0143123Y0163416D01*
X0143123Y0161449D02*
X0146044Y0161449D01*
X0146044Y0159482D02*
X0143123Y0159482D01*
X0143123Y0157515D02*
X0146044Y0157515D01*
X0146044Y0155548D02*
X0143123Y0155548D01*
X0143123Y0153581D02*
X0146044Y0153581D01*
X0146044Y0151614D02*
X0143123Y0151614D01*
X0143123Y0149647D02*
X0146044Y0149647D01*
X0146044Y0147680D02*
X0143123Y0147680D01*
X0143123Y0145713D02*
X0146044Y0145713D01*
X0146044Y0143746D02*
X0142348Y0143746D01*
X0141829Y0141779D02*
X0146044Y0141779D01*
X0150222Y0137845D02*
X0163123Y0137845D01*
X0163123Y0135878D02*
X0149705Y0135878D01*
X0149209Y0133955D02*
X0149209Y0130003D01*
X0149209Y0130003D01*
X0149209Y0130002D02*
X0152768Y0130002D01*
X0152768Y0132232D01*
X0152633Y0132737D01*
X0152372Y0133189D01*
X0152002Y0133559D01*
X0151550Y0133820D01*
X0151045Y0133955D01*
X0149209Y0133955D01*
X0149209Y0133911D02*
X0149209Y0133911D01*
X0149209Y0131944D02*
X0149209Y0131944D01*
X0149209Y0129977D02*
X0149209Y0129977D01*
X0149209Y0128010D02*
X0149209Y0128010D01*
X0152768Y0128010D02*
X0163123Y0128010D01*
X0163123Y0129977D02*
X0152768Y0129977D01*
X0152768Y0131944D02*
X0163123Y0131944D01*
X0163123Y0133911D02*
X0151210Y0133911D01*
X0147209Y0133911D02*
X0146138Y0133911D01*
X0150800Y0139812D02*
X0163123Y0139812D01*
X0163123Y0141779D02*
X0150800Y0141779D01*
X0150800Y0143746D02*
X0163123Y0143746D01*
X0163123Y0145713D02*
X0160081Y0145713D01*
X0159889Y0145522D02*
X0161052Y0146684D01*
X0161052Y0153872D01*
X0159889Y0155034D01*
X0152702Y0155034D01*
X0151540Y0153872D01*
X0151540Y0146684D01*
X0152702Y0145522D01*
X0159889Y0145522D01*
X0161052Y0147680D02*
X0163123Y0147680D01*
X0163123Y0149647D02*
X0161052Y0149647D01*
X0161052Y0151614D02*
X0163123Y0151614D01*
X0163123Y0153581D02*
X0161052Y0153581D01*
X0163123Y0155548D02*
X0156836Y0155548D01*
X0156670Y0155522D02*
X0157410Y0155639D01*
X0158122Y0155871D01*
X0158789Y0156210D01*
X0159394Y0156650D01*
X0159924Y0157180D01*
X0160364Y0157785D01*
X0160703Y0158452D01*
X0160935Y0159164D01*
X0161052Y0159904D01*
X0161052Y0160278D01*
X0161052Y0160652D01*
X0160935Y0161392D01*
X0160703Y0162104D01*
X0160364Y0162771D01*
X0159924Y0163376D01*
X0159394Y0163906D01*
X0158789Y0164346D01*
X0158122Y0164685D01*
X0157410Y0164917D01*
X0156670Y0165034D01*
X0156296Y0165034D01*
X0156296Y0160278D01*
X0161052Y0160278D01*
X0156296Y0160278D01*
X0156296Y0160278D01*
X0156296Y0160278D01*
X0156296Y0155522D01*
X0156670Y0155522D01*
X0156296Y0155522D02*
X0156296Y0160278D01*
X0156296Y0160278D01*
X0156296Y0165034D01*
X0155922Y0165034D01*
X0155182Y0164917D01*
X0154470Y0164685D01*
X0153803Y0164346D01*
X0153198Y0163906D01*
X0152668Y0163376D01*
X0152228Y0162771D01*
X0151888Y0162104D01*
X0151657Y0161392D01*
X0151540Y0160652D01*
X0151540Y0160278D01*
X0156296Y0160278D01*
X0156296Y0160278D01*
X0151540Y0160278D01*
X0151540Y0159904D01*
X0151657Y0159164D01*
X0151888Y0158452D01*
X0152228Y0157785D01*
X0152668Y0157180D01*
X0153198Y0156650D01*
X0153803Y0156210D01*
X0154470Y0155871D01*
X0155182Y0155639D01*
X0155922Y0155522D01*
X0156296Y0155522D01*
X0156296Y0155548D02*
X0156296Y0155548D01*
X0155756Y0155548D02*
X0150800Y0155548D01*
X0150800Y0153581D02*
X0151540Y0153581D01*
X0151540Y0151614D02*
X0150800Y0151614D01*
X0150800Y0149647D02*
X0151540Y0149647D01*
X0151540Y0147680D02*
X0150800Y0147680D01*
X0150800Y0145713D02*
X0152511Y0145713D01*
X0152424Y0157515D02*
X0150800Y0157515D01*
X0150800Y0159482D02*
X0151607Y0159482D01*
X0151676Y0161449D02*
X0150800Y0161449D01*
X0150800Y0163416D02*
X0152708Y0163416D01*
X0150800Y0165383D02*
X0163123Y0165383D01*
X0163123Y0163416D02*
X0159883Y0163416D01*
X0160916Y0161449D02*
X0163123Y0161449D01*
X0163123Y0159482D02*
X0160985Y0159482D01*
X0160167Y0157515D02*
X0163123Y0157515D01*
X0163123Y0167350D02*
X0160094Y0167350D01*
X0161046Y0169317D02*
X0163123Y0169317D01*
X0163123Y0171284D02*
X0161027Y0171284D01*
X0162632Y0173251D02*
X0163123Y0173251D01*
X0157873Y0175218D02*
X0150800Y0175218D01*
X0150800Y0173251D02*
X0152544Y0173251D01*
X0151565Y0171284D02*
X0150800Y0171284D01*
X0150800Y0169317D02*
X0151546Y0169317D01*
X0150800Y0167350D02*
X0152498Y0167350D01*
X0156296Y0163416D02*
X0156296Y0163416D01*
X0156296Y0161449D02*
X0156296Y0161449D01*
X0156296Y0159482D02*
X0156296Y0159482D01*
X0156296Y0157515D02*
X0156296Y0157515D01*
X0152663Y0177185D02*
X0150800Y0177185D01*
X0150800Y0179152D02*
X0151614Y0179152D01*
X0151540Y0181120D02*
X0150800Y0181120D01*
X0150800Y0183087D02*
X0152379Y0183087D01*
X0137973Y0183087D02*
X0136596Y0183087D01*
X0136823Y0185054D02*
X0136974Y0185054D01*
X0137973Y0181120D02*
X0134461Y0181120D01*
X0134461Y0179152D02*
X0137973Y0179152D01*
X0137973Y0177185D02*
X0134461Y0177185D01*
X0134461Y0175218D02*
X0137973Y0175218D01*
X0137973Y0173251D02*
X0134461Y0173251D01*
X0134461Y0171284D02*
X0137973Y0171284D01*
X0137973Y0169317D02*
X0134461Y0169317D01*
X0134461Y0167350D02*
X0137973Y0167350D01*
X0137973Y0165383D02*
X0134461Y0165383D01*
X0134461Y0163416D02*
X0137973Y0163416D01*
X0137973Y0161449D02*
X0134461Y0161449D01*
X0134461Y0159482D02*
X0137973Y0159482D01*
X0137973Y0157515D02*
X0134461Y0157515D01*
X0134461Y0155548D02*
X0137973Y0155548D01*
X0137973Y0153581D02*
X0134461Y0153581D01*
X0134461Y0151614D02*
X0137973Y0151614D01*
X0137973Y0149647D02*
X0134461Y0149647D01*
X0134461Y0147680D02*
X0137973Y0147680D01*
X0135300Y0145713D02*
X0134461Y0145713D01*
X0134474Y0143746D02*
X0134811Y0143746D01*
X0135330Y0141779D02*
X0133955Y0141779D01*
X0124639Y0137845D02*
X0120536Y0137845D01*
X0113875Y0155548D02*
X0113678Y0155548D01*
X0113678Y0157515D02*
X0113875Y0157515D01*
X0109627Y0151614D02*
X0105131Y0151614D01*
X0105524Y0149647D02*
X0109911Y0149647D01*
X0102752Y0163467D02*
X0102752Y0163467D01*
X0121650Y0167350D02*
X0121650Y0167350D01*
X0121650Y0169317D02*
X0121650Y0169317D01*
X0126949Y0212592D02*
X0108110Y0212592D01*
X0108686Y0214559D02*
X0117870Y0214559D01*
X0117291Y0216526D02*
X0108280Y0216526D01*
X0108280Y0218493D02*
X0117774Y0218493D01*
X0124028Y0218493D02*
X0127020Y0218493D01*
X0126949Y0216526D02*
X0124434Y0216526D01*
X0123856Y0214559D02*
X0126949Y0214559D01*
X0109052Y0220460D02*
X0109052Y0220460D01*
X0109052Y0222427D02*
X0109052Y0222427D01*
X0109052Y0224394D02*
X0109052Y0224394D01*
X0109052Y0226361D02*
X0109052Y0226361D01*
X0109052Y0228328D02*
X0109052Y0228328D01*
X0109823Y0230295D02*
X0095682Y0230295D01*
X0095682Y0232262D02*
X0108907Y0232262D01*
X0108052Y0234229D02*
X0097257Y0234229D01*
X0097257Y0236196D02*
X0108052Y0236196D01*
X0108052Y0238163D02*
X0097257Y0238163D01*
X0097245Y0240130D02*
X0109090Y0240130D01*
X0108052Y0242097D02*
X0097257Y0242097D01*
X0097198Y0244064D02*
X0108052Y0244064D01*
X0108052Y0244471D02*
X0112890Y0244471D01*
X0112890Y0248522D01*
X0109775Y0248522D01*
X0109270Y0248387D01*
X0108818Y0248126D01*
X0108448Y0247756D01*
X0108187Y0247304D01*
X0108052Y0246799D01*
X0108052Y0244471D01*
X0108052Y0246031D02*
X0088595Y0246031D01*
X0089748Y0244803D02*
X0089486Y0244351D01*
X0089351Y0243846D01*
X0089351Y0242010D01*
X0093304Y0242010D01*
X0093304Y0242010D01*
X0093304Y0242010D01*
X0093304Y0245569D01*
X0091074Y0245569D01*
X0090569Y0245434D01*
X0090117Y0245173D01*
X0089748Y0244803D01*
X0089409Y0244064D02*
X0088595Y0244064D01*
X0088595Y0242097D02*
X0089351Y0242097D01*
X0089363Y0240130D02*
X0072933Y0240130D01*
X0073091Y0242097D02*
X0074390Y0242097D01*
X0074390Y0244064D02*
X0072992Y0244064D01*
X0072465Y0246031D02*
X0074390Y0246031D01*
X0074390Y0247998D02*
X0071493Y0247998D01*
X0072406Y0238163D02*
X0089351Y0238163D01*
X0089351Y0236196D02*
X0087554Y0236196D01*
X0082083Y0242097D02*
X0080902Y0242097D01*
X0080902Y0244064D02*
X0082083Y0244064D01*
X0075431Y0236196D02*
X0071366Y0236196D01*
X0069787Y0234229D02*
X0074390Y0234229D01*
X0074390Y0232262D02*
X0067149Y0232262D01*
X0066187Y0226361D02*
X0065303Y0226361D01*
X0060281Y0226361D02*
X0054981Y0226361D01*
X0054981Y0228328D02*
X0074390Y0228328D01*
X0074390Y0230295D02*
X0054981Y0230295D01*
X0054981Y0232262D02*
X0056466Y0232262D01*
X0054981Y0224394D02*
X0059233Y0224394D01*
X0059233Y0222427D02*
X0054981Y0222427D01*
X0054981Y0220460D02*
X0059233Y0220460D01*
X0059303Y0218493D02*
X0054981Y0218493D01*
X0054981Y0216526D02*
X0059233Y0216526D01*
X0059233Y0214559D02*
X0054981Y0214559D01*
X0054981Y0212592D02*
X0059483Y0212592D01*
X0065289Y0208658D02*
X0066200Y0208658D01*
X0068697Y0212592D02*
X0068698Y0212592D01*
X0068697Y0214559D02*
X0068698Y0214559D01*
X0071208Y0226361D02*
X0075242Y0226361D01*
X0080646Y0224394D02*
X0084920Y0224394D01*
X0086887Y0222427D02*
X0081127Y0222427D01*
X0080545Y0220460D02*
X0090335Y0220460D01*
X0093304Y0242097D02*
X0093304Y0242097D01*
X0093304Y0244064D02*
X0093304Y0244064D01*
X0088595Y0247998D02*
X0108690Y0247998D01*
X0112890Y0247998D02*
X0113087Y0247998D01*
X0113087Y0246031D02*
X0112890Y0246031D01*
X0135627Y0246031D02*
X0135627Y0246031D01*
X0135627Y0244064D02*
X0135627Y0244064D01*
X0144996Y0230295D02*
X0163123Y0230295D01*
X0163123Y0232262D02*
X0161637Y0232262D01*
X0163123Y0228328D02*
X0146963Y0228328D01*
X0161843Y0118175D02*
X0163123Y0118175D01*
X0146679Y0102439D02*
X0071425Y0102439D01*
X0078746Y0126043D02*
X0079845Y0126043D01*
X0079838Y0135878D02*
X0078774Y0135878D01*
X0066275Y0155548D02*
X0054981Y0155548D01*
X0054981Y0157515D02*
X0065098Y0157515D01*
X0065098Y0159482D02*
X0054981Y0159482D01*
X0054981Y0161449D02*
X0066024Y0161449D01*
D28*
X0130705Y0143782D03*
X0138579Y0143782D03*
X0146453Y0137876D03*
X0130705Y0230396D03*
M02*
