  0
SECTION
  2
HEADER
  9
$ACADVER
  1
AC1009
  9
$INSBASE
 10
0.0
 20
0.0
 30
0.0
  9
$EXTMIN
 10
-112.57775597671051
 20
-34.000000000000021
 30
0.0
  9
$EXTMAX
 10
30.323062196000031
 20
129.12016034456801
 30
0.0
  9
$LIMMIN
 10
0.0
 20
0.0
  9
$LIMMAX
 10
420.0
 20
297.0
  9
$ORTHOMODE
 70
     0
  9
$REGENMODE
 70
     1
  9
$FILLMODE
 70
     1
  9
$QTEXTMODE
 70
     0
  9
$MIRRTEXT
 70
     0
  9
$DRAGMODE
 70
     2
  9
$LTSCALE
 40
1.0
  9
$OSMODE
 70
    37
  9
$ATTMODE
 70
     1
  9
$TEXTSIZE
 40
2.5
  9
$TRACEWID
 40
1.0
  9
$TEXTSTYLE
  7
STANDARD
  9
$CLAYER
  8
0
  9
$CELTYPE
  6
BYLAYER
  9
$CECOLOR
 62
   256
  9
$DIMSCALE
 40
1.0
  9
$DIMASZ
 40
2.5
  9
$DIMEXO
 40
0.625
  9
$DIMDLI
 40
3.75
  9
$DIMRND
 40
0.0
  9
$DIMDLE
 40
0.0
  9
$DIMEXE
 40
1.25
  9
$DIMTP
 40
0.0
  9
$DIMTM
 40
0.0
  9
$DIMTXT
 40
2.5
  9
$DIMCEN
 40
2.5
  9
$DIMTSZ
 40
0.0
  9
$DIMTOL
 70
     0
  9
$DIMLIM
 70
     0
  9
$DIMTIH
 70
     0
  9
$DIMTOH
 70
     0
  9
$DIMSE1
 70
     0
  9
$DIMSE2
 70
     0
  9
$DIMTAD
 70
     1
  9
$DIMZIN
 70
     8
  9
$DIMBLK
  1

  9
$DIMASO
 70
     1
  9
$DIMSHO
 70
     1
  9
$DIMPOST
  1

  9
$DIMAPOST
  1

  9
$DIMALT
 70
     0
  9
$DIMALTD
 70
     3
  9
$DIMALTF
 40
0.03937007874016
  9
$DIMLFAC
 40
1.0
  9
$DIMTOFL
 70
     1
  9
$DIMTVP
 40
0.0
  9
$DIMTIX
 70
     0
  9
$DIMSOXD
 70
     0
  9
$DIMSAH
 70
     0
  9
$DIMBLK1
  1

  9
$DIMBLK2
  1

  9
$DIMSTYLE
  2
ISO-25
  9
$DIMCLRD
 70
     0
  9
$DIMCLRE
 70
     0
  9
$DIMCLRT
 70
     0
  9
$DIMTFAC
 40
1.0
  9
$DIMGAP
 40
0.625
  9
$LUNITS
 70
     2
  9
$LUPREC
 70
     4
  9
$SKETCHINC
 40
1.0
  9
$FILLETRAD
 40
0.0
  9
$AUNITS
 70
     0
  9
$AUPREC
 70
     0
  9
$MENU
  1
.
  9
$ELEVATION
 40
0.0
  9
$PELEVATION
 40
0.0
  9
$THICKNESS
 40
0.0
  9
$LIMCHECK
 70
     0
  9
$BLIPMODE
 70
     0
  9
$CHAMFERA
 40
0.0
  9
$CHAMFERB
 40
0.0
  9
$SKPOLY
 70
     0
  9
$TDCREATE
 40
2457450.7387346178
  9
$TDUPDATE
 40
2457450.7476662621
  9
$TDINDWG
 40
0.0089349769
  9
$TDUSRTIMER
 40
0.0089349653
  9
$USRTIMER
 70
     1
  9
$ANGBASE
 50
0.0
  9
$ANGDIR
 70
     0
  9
$PDMODE
 70
     0
  9
$PDSIZE
 40
0.0
  9
$PLINEWID
 40
0.0
  9
$COORDS
 70
     1
  9
$SPLFRAME
 70
     0
  9
$SPLINETYPE
 70
     6
  9
$SPLINESEGS
 70
     8
  9
$ATTDIA
 70
     1
  9
$ATTREQ
 70
     1
  9
$HANDLING
 70
     1
  9
$HANDSEED
  5
452
  9
$SURFTAB1
 70
     6
  9
$SURFTAB2
 70
     6
  9
$SURFTYPE
 70
     6
  9
$SURFU
 70
     6
  9
$SURFV
 70
     6
  9
$UCSNAME
  2

  9
$UCSORG
 10
0.0
 20
0.0
 30
0.0
  9
$UCSXDIR
 10
1.0
 20
0.0
 30
0.0
  9
$UCSYDIR
 10
0.0
 20
1.0
 30
0.0
  9
$PUCSNAME
  2

  9
$PUCSORG
 10
0.0
 20
0.0
 30
0.0
  9
$PUCSXDIR
 10
1.0
 20
0.0
 30
0.0
  9
$PUCSYDIR
 10
0.0
 20
1.0
 30
0.0
  9
$USERI1
 70
     0
  9
$USERI2
 70
     0
  9
$USERI3
 70
     0
  9
$USERI4
 70
     0
  9
$USERI5
 70
     0
  9
$USERR1
 40
0.0
  9
$USERR2
 40
0.0
  9
$USERR3
 40
0.0
  9
$USERR4
 40
0.0
  9
$USERR5
 40
0.0
  9
$WORLDVIEW
 70
     1
  9
$SHADEDGE
 70
     3
  9
$SHADEDIF
 70
    70
  9
$TILEMODE
 70
     1
  9
$MAXACTVP
 70
    64
  9
$PLIMCHECK
 70
     0
  9
$PEXTMIN
 10
0.0
 20
0.0
 30
0.0
  9
$PEXTMAX
 10
0.0
 20
0.0
 30
0.0
  9
$PLIMMIN
 10
0.0
 20
0.0
  9
$PLIMMAX
 10
12.0
 20
9.0
  9
$UNITMODE
 70
     0
  9
$VISRETAIN
 70
     1
  9
$PLINEGEN
 70
     0
  9
$PSLTSCALE
 70
     1
  0
ENDSEC
  0
SECTION
  2
TABLES
  0
TABLE
  2
VPORT
 70
     1
  0
VPORT
  2
*ACTIVE
 70
     0
 10
0.0
 20
0.0
 11
1.0
 21
1.0
 12
12.088481494307411
 22
6.8336026611611791
 13
0.0
 23
0.0
 14
10.0
 24
10.0
 15
10.0
 25
10.0
 16
0.0
 26
0.0
 36
1.0
 17
0.0
 27
0.0
 37
0.0
 40
121.6700488740457
 41
1.6519558676028081
 42
50.0
 43
0.0
 44
0.0
 50
0.0
 51
0.0
 71
     0
 72
  1000
 73
     1
 74
     3
 75
     0
 76
     1
 77
     0
 78
     0
  0
ENDTAB
  0
TABLE
  2
LTYPE
 70
     2
  0
LTYPE
  2
CONTINUOUS
 70
     0
  3
Solid line
 72
    65
 73
     0
 40
0.0
  0
ENDTAB
  0
TABLE
  2
LAYER
 70
     1
  0
LAYER
  2
0
 70
     0
 62
     7
  6
CONTINUOUS
  0
ENDTAB
  0
TABLE
  2
STYLE
 70
     2
  0
STYLE
  2
STANDARD
 70
     0
 40
0.0
 41
1.0
 50
0.0
 71
     0
 42
2.5
  3
txt
  4

  0
STYLE
  2
ANNOTATIVE
 70
     0
 40
0.0
 41
1.0
 50
0.0
 71
     0
 42
2.5
  3
txt
  4

  0
ENDTAB
  0
TABLE
  2
VIEW
 70
     0
  0
ENDTAB
  0
TABLE
  2
UCS
 70
     0
  0
ENDTAB
  0
TABLE
  2
APPID
 70
     9
  0
APPID
  2
ACAD
 70
     0
  0
APPID
  2
ACAD_PSEXT
 70
     0
  0
APPID
  2
ACADANNOPO
 70
     0
  0
APPID
  2
ACADANNOTATIVE
 70
     0
  0
APPID
  2
ACAD_DSTYLE_DIMJAG
 70
     0
  0
APPID
  2
ACAD_DSTYLE_DIMTALN
 70
     0
  0
APPID
  2
ACAD_MLEADERVER
 70
     0
  0
APPID
  2
ACAD_NAV_VCDISPLAY
 70
     0
  0
APPID
  2
ACAD_EXEMPT_FROM_CAD_STANDARDS
 70
     0
  0
ENDTAB
  0
TABLE
  2
DIMSTYLE
 70
     4
  0
DIMSTYLE
  2
STANDARD
 70
     0
  3

  4

  5

  6

  7

 40
1.0
 41
0.18
 42
0.0625
 43
0.38
 44
0.18
 45
0.0
 46
0.0
 47
0.0
 48
0.0
140
0.18
141
0.09
142
0.0
143
25.399999999999999
144
1.0
145
0.0
146
1.0
147
0.09
 71
     0
 72
     0
 73
     1
 74
     1
 75
     0
 76
     0
 77
     0
 78
     0
170
     0
171
     2
172
     0
173
     0
174
     0
175
     0
176
     0
177
     0
178
     0
  0
DIMSTYLE
  2
ANNOTATIVE
 70
     0
  3

  4

  5

  6

  7

 40
0.0
 41
2.5
 42
0.625
 43
3.75
 44
1.25
 45
0.0
 46
0.0
 47
0.0
 48
0.0
140
2.5
141
2.5
142
0.0
143
0.03937007874016
144
1.0
145
0.0
146
1.0
147
0.625
 71
     0
 72
     0
 73
     0
 74
     0
 75
     0
 76
     0
 77
     1
 78
     8
170
     0
171
     3
172
     1
173
     0
174
     0
175
     0
176
     0
177
     0
178
     0
  0
DIMSTYLE
  2
ISO-25
 70
     0
  3

  4

  5

  6

  7

 40
1.0
 41
2.5
 42
0.625
 43
3.75
 44
1.25
 45
0.0
 46
0.0
 47
0.0
 48
0.0
140
2.5
141
2.5
142
0.0
143
0.03937007874016
144
1.0
145
0.0
146
1.0
147
0.625
 71
     0
 72
     0
 73
     0
 74
     0
 75
     0
 76
     0
 77
     1
 78
     8
170
     0
171
     3
172
     1
173
     0
174
     0
175
     0
176
     0
177
     0
178
     0
  0
ENDTAB
  0
ENDSEC
  0
SECTION
  2
BLOCKS
  0
BLOCK
  8
0
  2
$MODEL_SPACE
 70
     0
 10
0.0
 20
0.0
 30
0.0
  3
$MODEL_SPACE
  1

  0
ENDBLK
  5
21
  8
0
  0
BLOCK
 67
     1
  8
0
  2
$PAPER_SPACE
 70
     0
 10
0.0
 20
0.0
 30
0.0
  3
$PAPER_SPACE
  1

  0
ENDBLK
  5
D5
 67
     1
  8
0
  0
BLOCK
  8
0
  2
SW_CENTERMARKSYMBOL_0
 70
     0
 10
0.0
 20
0.0
 30
0.0
  3
SW_CENTERMARKSYMBOL_0
  1
SW_CENTERMARKSYMBOL_0
  0
LINE
  5
260
  8
0
  6
CONTINUOUS
 62
     0
 10
0.0
 20
0.0
 30
0.0
 11
0.0
 21
2.5
 31
0.0
  0
LINE
  5
261
  8
0
  6
CONTINUOUS
 62
     0
 10
0.0
 20
0.0
 30
0.0
 11
-2.5
 21
0.0
 31
0.0
  0
LINE
  5
262
  8
0
  6
CONTINUOUS
 62
     0
 10
0.0
 20
0.0
 30
0.0
 11
0.0
 21
-2.5
 31
0.0
  0
LINE
  5
263
  8
0
  6
CONTINUOUS
 62
     0
 10
0.0
 20
0.0
 30
0.0
 11
2.5
 21
0.0
 31
0.0
  0
LINE
  5
264
  8
0
  6
CONTINUOUS
 62
     0
 10
0.0
 20
5.0
 30
0.0
 11
0.0
 21
14.75
 31
0.0
  0
LINE
  5
265
  8
0
  6
CONTINUOUS
 62
     0
 10
-5.0
 20
0.0
 30
0.0
 11
-14.75
 21
0.0
 31
0.0
  0
LINE
  5
266
  8
0
  6
CONTINUOUS
 62
     0
 10
0.0
 20
-5.0
 30
0.0
 11
0.0
 21
-14.75
 31
0.0
  0
LINE
  5
267
  8
0
  6
CONTINUOUS
 62
     0
 10
5.0
 20
0.0
 30
0.0
 11
14.75
 21
0.0
 31
0.0
  0
ENDBLK
  5
268
  8
0
  0
BLOCK
  8
0
  2
SW_CENTERMARKSYMBOL_1
 70
     0
 10
0.0
 20
0.0
 30
0.0
  3
SW_CENTERMARKSYMBOL_1
  1
SW_CENTERMARKSYMBOL_1
  0
LINE
  5
26B
  8
0
  6
CONTINUOUS
 62
     0
 10
0.0
 20
0.0
 30
0.0
 11
0.0
 21
2.5
 31
0.0
  0
LINE
  5
26C
  8
0
  6
CONTINUOUS
 62
     0
 10
0.0
 20
0.0
 30
0.0
 11
-2.5
 21
0.0
 31
0.0
  0
LINE
  5
26D
  8
0
  6
CONTINUOUS
 62
     0
 10
0.0
 20
0.0
 30
0.0
 11
0.0
 21
-2.5
 31
0.0
  0
LINE
  5
26E
  8
0
  6
CONTINUOUS
 62
     0
 10
0.0
 20
0.0
 30
0.0
 11
2.5
 21
0.0
 31
0.0
  0
LINE
  5
26F
  8
0
  6
CONTINUOUS
 62
     0
 10
0.0
 20
2.5
 30
0.0
 11
0.0
 21
3.75
 31
0.0
  0
LINE
  5
270
  8
0
  6
CONTINUOUS
 62
     0
 10
-2.5
 20
0.0
 30
0.0
 11
-3.75
 21
0.0
 31
0.0
  0
LINE
  5
271
  8
0
  6
CONTINUOUS
 62
     0
 10
0.0
 20
-2.5
 30
0.0
 11
0.0
 21
-3.75
 31
0.0
  0
LINE
  5
272
  8
0
  6
CONTINUOUS
 62
     0
 10
2.5
 20
0.0
 30
0.0
 11
3.75
 21
0.0
 31
0.0
  0
ENDBLK
  5
273
  8
0
  0
BLOCK
  8
0
  2
SW_CENTERMARKSYMBOL_2
 70
     0
 10
0.0
 20
0.0
 30
0.0
  3
SW_CENTERMARKSYMBOL_2
  1
SW_CENTERMARKSYMBOL_2
  0
LINE
  5
276
  8
0
  6
CONTINUOUS
 62
     0
 10
0.0
 20
0.0
 30
0.0
 11
0.0
 21
2.5
 31
0.0
  0
LINE
  5
277
  8
0
  6
CONTINUOUS
 62
     0
 10
0.0
 20
0.0
 30
0.0
 11
-2.5
 21
0.0
 31
0.0
  0
LINE
  5
278
  8
0
  6
CONTINUOUS
 62
     0
 10
0.0
 20
0.0
 30
0.0
 11
0.0
 21
-2.5
 31
0.0
  0
LINE
  5
279
  8
0
  6
CONTINUOUS
 62
     0
 10
0.0
 20
0.0
 30
0.0
 11
2.5
 21
0.0
 31
0.0
  0
LINE
  5
27A
  8
0
  6
CONTINUOUS
 62
     0
 10
0.0
 20
2.5
 30
0.0
 11
0.0
 21
3.75
 31
0.0
  0
LINE
  5
27B
  8
0
  6
CONTINUOUS
 62
     0
 10
-2.5
 20
0.0
 30
0.0
 11
-3.75
 21
0.0
 31
0.0
  0
LINE
  5
27C
  8
0
  6
CONTINUOUS
 62
     0
 10
0.0
 20
-2.5
 30
0.0
 11
0.0
 21
-3.75
 31
0.0
  0
LINE
  5
27D
  8
0
  6
CONTINUOUS
 62
     0
 10
2.5
 20
0.0
 30
0.0
 11
3.75
 21
0.0
 31
0.0
  0
ENDBLK
  5
27E
  8
0
  0
BLOCK
  8
0
  2
SW_CENTERMARKSYMBOL_3
 70
     0
 10
0.0
 20
0.0
 30
0.0
  3
SW_CENTERMARKSYMBOL_3
  1
SW_CENTERMARKSYMBOL_3
  0
LINE
  5
281
  8
0
  6
CONTINUOUS
 62
     0
 10
0.0
 20
0.0
 30
0.0
 11
0.0
 21
2.5
 31
0.0
  0
LINE
  5
282
  8
0
  6
CONTINUOUS
 62
     0
 10
0.0
 20
0.0
 30
0.0
 11
-2.5
 21
0.0
 31
0.0
  0
LINE
  5
283
  8
0
  6
CONTINUOUS
 62
     0
 10
0.0
 20
0.0
 30
0.0
 11
0.0
 21
-2.5
 31
0.0
  0
LINE
  5
284
  8
0
  6
CONTINUOUS
 62
     0
 10
0.0
 20
0.0
 30
0.0
 11
2.5
 21
0.0
 31
0.0
  0
LINE
  5
285
  8
0
  6
CONTINUOUS
 62
     0
 10
0.0
 20
2.5
 30
0.0
 11
0.0
 21
3.75
 31
0.0
  0
LINE
  5
286
  8
0
  6
CONTINUOUS
 62
     0
 10
-2.5
 20
0.0
 30
0.0
 11
-3.75
 21
0.0
 31
0.0
  0
LINE
  5
287
  8
0
  6
CONTINUOUS
 62
     0
 10
0.0
 20
-2.5
 30
0.0
 11
0.0
 21
-3.75
 31
0.0
  0
LINE
  5
288
  8
0
  6
CONTINUOUS
 62
     0
 10
2.5
 20
0.0
 30
0.0
 11
3.75
 21
0.0
 31
0.0
  0
ENDBLK
  5
289
  8
0
  0
ENDSEC
  0
SECTION
  2
ENTITIES
  0
CIRCLE
  5
2E4
  8
0
  6
CONTINUOUS
 62
     7
 10
-18.5
 20
-23.5
 30
0.0
 40
2.25
  0
CIRCLE
  5
2E5
  8
0
  6
CONTINUOUS
 62
     7
 10
18.500000000000011
 20
-23.5
 30
0.0
 40
2.25
  0
ARC
  5
2E6
  8
0
  6
CONTINUOUS
 62
     7
 10
0.0
 20
0.0
 30
0.0
 40
13.28404169803995
 50
96.7428256865999
 51
127.6879780736998
  0
ARC
  5
2E7
  8
0
  6
CONTINUOUS
 62
     7
 10
-8.4062138938999702
 20
10.881087628099991
 30
0.0
 40
0.4659583019600693
 50
225.0
 51
307.68797807369981
  0
LINE
  5
2E8
  8
0
  6
CONTINUOUS
 62
     7
 10
-8.7356961689999917
 20
10.55160535300001
 30
0.0
 11
-9.0920454079999882
 21
10.90795459200001
 31
0.0
  0
ARC
  5
2E9
  8
0
  6
CONTINUOUS
 62
     7
 10
-9.9999999999999982
 20
10.0
 30
0.0
 40
1.2840416980399449
 50
44.999999999999979
 51
225.0
  0
LINE
  5
2EA
  8
0
  6
CONTINUOUS
 62
     7
 10
-10.90795459199998
 20
9.0920454080000042
 30
0.0
 11
-10.55160535299998
 21
8.7356961689999952
 31
0.0
  0
ARC
  5
2EB
  8
0
  6
CONTINUOUS
 62
     7
 10
-10.881087627999991
 20
8.4062138939000182
 30
0.0
 40
0.4659583019600725
 50
322.31202192630008
 51
44.999999999999979
  0
ARC
  5
2EC
  8
0
  6
CONTINUOUS
 62
     7
 10
0.0
 20
0.0
 30
0.0
 40
13.28404169803993
 50
142.3120219263001
 51
217.6879780736999
  0
ARC
  5
2ED
  8
0
  6
CONTINUOUS
 62
     7
 10
-10.881087627999991
 20
-8.4062138939000004
 30
0.0
 40
0.4659583019600951
 50
315.0
 51
37.687978073699838
  0
LINE
  5
2EE
  8
0
  6
CONTINUOUS
 62
     7
 10
-10.55160535299998
 20
-8.7356961689999917
 30
0.0
 11
-10.90795459199998
 21
-9.0920454079999882
 31
0.0
  0
ARC
  5
2EF
  8
0
  6
CONTINUOUS
 62
     7
 10
-10.0
 20
-9.9999999999999982
 30
0.0
 40
1.284041698039964
 50
134.99999999999989
 51
315.0
  0
LINE
  5
2F0
  8
0
  6
CONTINUOUS
 62
     7
 10
-9.0920454079999917
 20
-10.907954591999991
 30
0.0
 11
-8.7356961689999952
 21
-10.55160535299999
 31
0.0
  0
ARC
  5
2F1
  8
0
  6
CONTINUOUS
 62
     7
 10
-8.4062138938999755
 20
-10.8810876281
 30
0.0
 40
0.4659583019600693
 50
52.312021926300119
 51
134.99999999999989
  0
ARC
  5
2F2
  8
0
  6
CONTINUOUS
 62
     7
 10
0.0
 20
0.0
 30
0.0
 40
13.284041698039941
 50
232.3120219263001
 51
307.68797807369981
  0
ARC
  5
2F3
  8
0
  6
CONTINUOUS
 62
     7
 10
8.4062138939000288
 20
-10.88108762810001
 30
0.0
 40
0.4659583019600592
 50
44.999999999999979
 51
127.6879780736998
  0
LINE
  5
2F4
  8
0
  6
CONTINUOUS
 62
     7
 10
8.7356961690000201
 20
-10.551605352999999
 30
0.0
 11
9.0920454080000166
 21
-10.907954591999991
 31
0.0
  0
ARC
  5
2F5
  8
0
  6
CONTINUOUS
 62
     7
 10
9.9999999999999982
 20
-10.0
 30
0.0
 40
1.2840416980399549
 50
225.0
 51
44.999999999999979
  0
LINE
  5
2F6
  8
0
  6
CONTINUOUS
 62
     7
 10
10.90795459200001
 20
-9.0920454079999917
 30
0.0
 11
10.55160535300001
 21
-8.7356961689999952
 31
0.0
  0
ARC
  5
2F7
  8
0
  6
CONTINUOUS
 62
     7
 10
10.88108762810003
 20
-8.4062138939000022
 30
0.0
 40
0.4659583019600693
 50
142.3120219263001
 51
225.0
  0
ARC
  5
2F8
  8
0
  6
CONTINUOUS
 62
     7
 10
0.0
 20
0.0
 30
0.0
 40
13.284041698039941
 50
322.31202192630008
 51
37.687978073699838
  0
ARC
  5
2F9
  8
0
  6
CONTINUOUS
 62
     7
 10
10.88108762810003
 20
8.4062138939000146
 30
0.0
 40
0.4659583019600865
 50
134.99999999999989
 51
217.6879780736999
  0
LINE
  5
2FA
  8
0
  6
CONTINUOUS
 62
     7
 10
10.55160535300001
 20
8.7356961689999917
 30
0.0
 11
10.90795459200001
 21
9.0920454080000024
 31
0.0
  0
ARC
  5
2FB
  8
0
  6
CONTINUOUS
 62
     7
 10
10.0
 20
9.9999999999999982
 30
0.0
 40
1.284041698039964
 50
315.0
 51
134.99999999999989
  0
LINE
  5
2FC
  8
0
  6
CONTINUOUS
 62
     7
 10
9.0920454080000201
 20
10.90795459200001
 30
0.0
 11
8.7356961690000237
 21
10.55160535300001
 31
0.0
  0
ARC
  5
2FD
  8
0
  6
CONTINUOUS
 62
     7
 10
8.4062138939000324
 20
10.881087628099991
 30
0.0
 40
0.4659583019600701
 50
232.3120219263001
 51
315.0
  0
ARC
  5
2FE
  8
0
  6
CONTINUOUS
 62
     7
 10
0.0
 20
0.0
 30
0.0
 40
13.284041698039941
 50
52.312021926300119
 51
83.257174313400014
  0
ARC
  5
2FF
  8
0
  6
CONTINUOUS
 62
     7
 10
-1.500971883699973
 20
12.694945446
 30
0.0
 40
0.5006713899547016
 50
56.928065124199591
 51
96.738516117700144
  0
ARC
  5
300
  8
0
  6
CONTINUOUS
 62
     7
 10
1.5009718828000309
 20
12.69494544979999
 30
0.0
 40
0.5006713862345074
 50
83.261483728099805
 51
123.0719349669003
  0
ARC
  5
301
  8
0
  6
CONTINUOUS
 62
     7
 10
0.0000000000000018
 20
15.0
 30
0.0
 40
2.249999999999996
 50
303.07052887550009
 51
236.9292152186998
  0
ENDSEC
  0
EOF
