%
M48
M72
T01C0.0157
T02C0.0236
T03C0.0315
T04C0.0354
T05C0.0394
T06C0.0472
T07C0.0551
T08C0.0591
%
T01
X5415Y6803
X3508Y7502
X3407Y8968
X4746Y9441
X7226Y9047
X7856Y9952
X8683Y12354
X10809Y10976
X12620Y8181
X13683Y7866
X14155Y7196
X13525Y6960
X14746Y7630
X15061Y9007
X14943Y9598
X15533Y9480
X17108Y9677
X18053Y9441
X19037Y8614
X20179Y7315
X19509Y6685
X20021Y5661
X19352Y5189
X18565Y5031
X18131Y5425
X17108Y7472
X13565Y5700
X11675Y6685
X10454Y7590
X13880Y3496
X21163Y11488
X23958Y9756
X24409Y7502
X22856Y6448
X6439Y14913
X12305Y24283
X15415Y24952
T02
X8722Y8693
X13840Y4322
T03
X11465Y4733
X9639Y5471
X22206Y16822
X22206Y17413
T04
X5513Y16370
X5513Y15582
T05
X21844Y12173
X22844Y12173
X22844Y11173
X21844Y11173
X21844Y10173
X22844Y10173
T06
X20454Y13653
T07
X10213Y4262
T08
X12177Y5441
X9618Y6475
M30
