  0
SECTION
  2
HEADER
  9
$ACADVER
  1
AC1009
  9
$FILLMODE
 70
1
  9
$EXTMIN
 10
-0.2000
 20
-5.1250
 30
0.0000
  9
$EXTMAX
 10
70.2000
 20
67.1500
 30
0.0000
  0
ENDSEC
  0
SECTION
  2
TABLES
  0
TABLE
  2
LTYPE
 70
1
  0
LTYPE
  2
CONTINUOUS
 70
64
  3
Solid line
 72
65
 73
0
 40
0
  0
ENDTAB
  0
TABLE
  2
LAYER
 70
255
  0
LAYER
  2
20
 70
64
 62
7
  6
CONTINUOUS
  0
LAYER
  2
31
 70
64
 62
253
  6
CONTINUOUS
  0
ENDTAB
  0
ENDSEC
  0
SECTION
  2
BLOCKS
  0
BLOCK
  8
0
  2
RECT
 70
64
 10
0.0000
 20
0.0000
 30
0.0000
  3
RECT
  0
SOLID
  8
0
 10
-0.5000
 20
-0.5000
 30
0.0000
 11
0.5000
 21
-0.5000
 31
0.0000
 12
-0.5000
 22
0.5000
 32
0.0000
 13
0.5000
 23
0.5000
 33
0.0000
  0
ENDBLK
  8
0
  0
BLOCK
  8
0
  2
PIE
 70
64
 10
0.0000
 20
0.0000
 30
0.0000
  3
PIE
  0
POLYLINE
  8
0
 66
1
 10
0.0000
 20
0.0000
 30
0.0000
 40
0.5000
 41
0.5000
 70
0
  0
VERTEX
  8
0
 10
0.0000
 20
-0.2500
 30
0.0000
 42
1.0000
  0
VERTEX
  8
0
 10
0.0000
 20
0.2500
 30
0.0000
 42
1.0000
  0
VERTEX
  8
0
 10
0.0000
 20
-0.2500
 30
0.0000
  0
SEQEND
  8
0
  0
ENDBLK
  8
0
  0
BLOCK
  8
0
  2
OCTAGONP
 70
64
 10
0.0000
 20
0.0000
 30
0.0000
  3
OCTAGONP
  0
POLYLINE
  8
0
 66
1
 10
0.0000
 20
0.0000
 30
0.0000
 40
0.5000
 41
0.5000
 70
0
  0
VERTEX
  8
0
 10
-0.2500
 20
-0.1036
 30
0.0000
  0
VERTEX
  8
0
 10
-0.2500
 20
0.1036
 30
0.0000
  0
VERTEX
  8
0
 10
-0.1036
 20
0.2500
 30
0.0000
  0
VERTEX
  8
0
 10
0.1036
 20
0.2500
 30
0.0000
  0
VERTEX
  8
0
 10
0.2500
 20
0.1036
 30
0.0000
  0
VERTEX
  8
0
 10
0.2500
 20
-0.1036
 30
0.0000
  0
VERTEX
  8
0
 10
0.1036
 20
-0.2500
 30
0.0000
  0
VERTEX
  8
0
 10
-0.1036
 20
-0.2500
 30
0.0000
  0
VERTEX
  8
0
 10
-0.2500
 20
-0.1036
 30
0.0000
  0
VERTEX
  8
0
 10
-0.2500
 20
0.1036
 30
0.0000
  0
SEQEND
  8
0
  0
ENDBLK
  8
0
  0
BLOCK
  8
0
  2
SQUAREP
 70
64
 10
0.0000
 20
0.0000
 30
0.0000
  3
SQUAREP
  0
SOLID
  8
0
 10
-0.5000
 20
-0.5000
 30
0.0000
 11
0.5000
 21
-0.5000
 31
0.0000
 12
-0.5000
 22
0.5000
 32
0.0000
 13
0.5000
 23
0.5000
 33
0.0000
  0
ENDBLK
  8
0
  0
BLOCK
  8
0
  2
ROUNDP
 70
64
 10
0.0000
 20
0.0000
 30
0.0000
  3
ROUNDP
  0
POLYLINE
  8
0
 66
1
 10
0.0000
 20
0.0000
 30
0.0000
 40
0.5000
 41
0.5000
 70
0
  0
VERTEX
  8
0
 10
0.0000
 20
-0.2500
 30
0.0000
 42
1.0000
  0
VERTEX
  8
0
 10
0.0000
 20
0.2500
 30
0.0000
 42
1.0000
  0
VERTEX
  8
0
 10
0.0000
 20
-0.2500
 30
0.0000
  0
SEQEND
  8
0
  0
ENDBLK
  8
0
  0
BLOCK
  8
0
  2
ANNULUSP
 70
64
 10
0.0000
 20
0.0000
 30
0.0000
  3
ANNULUSP
  0
POLYLINE
  8
0
 66
1
 10
0.0000
 20
0.0000
 30
0.0000
 40
0.5000
 41
0.5000
 70
0
  0
VERTEX
  8
0
 10
0.0000
 20
-0.2500
 30
0.0000
 42
1.0000
  0
VERTEX
  8
0
 10
0.0000
 20
0.2500
 30
0.0000
 42
1.0000
  0
VERTEX
  8
0
 10
0.0000
 20
-0.2500
 30
0.0000
  0
SEQEND
  8
0
  0
ENDBLK
  8
0
  0
BLOCK
  8
0
  2
THERMALP
 70
64
 10
0.0000
 20
0.0000
 30
0.0000
  3
THERMALP
  0
POLYLINE
  8
0
 66
1
 10
0.0000
 20
0.0000
 30
0.0000
 40
0.1000
 41
0.1000
 70
0
  0
VERTEX
  8
0
 10
-0.2379
 20
0.4500
 30
0.0000
  0
VERTEX
  8
0
 10
0.2379
 20
0.4500
 30
0.0000
  0
SEQEND
  8
0
  0
POLYLINE
  8
0
 66
1
 10
0.0000
 20
0.0000
 30
0.0000
 40
0.0500
 41
0.0500
 70
0
  0
VERTEX
  8
0
 10
0.2379
 20
0.4250
 30
0.0000
 42
1.0000
  0
VERTEX
  8
0
 10
0.2379
 20
0.4750
 30
0.0000
  0
SEQEND
  8
0
  0
POLYLINE
  8
0
 66
1
 10
0.0000
 20
0.0000
 30
0.0000
 40
0.0500
 41
0.0500
 70
0
  0
VERTEX
  8
0
 10
-0.2379
 20
0.4750
 30
0.0000
 42
1.0000
  0
VERTEX
  8
0
 10
-0.2379
 20
0.4250
 30
0.0000
  0
SEQEND
  8
0
  0
POLYLINE
  8
0
 66
1
 10
0.0000
 20
0.0000
 30
0.0000
 40
0.1000
 41
0.1000
 70
0
  0
VERTEX
  8
0
 10
0.4500
 20
0.2379
 30
0.0000
  0
VERTEX
  8
0
 10
0.4500
 20
-0.2379
 30
0.0000
  0
SEQEND
  8
0
  0
POLYLINE
  8
0
 66
1
 10
0.0000
 20
0.0000
 30
0.0000
 40
0.0500
 41
0.0500
 70
0
  0
VERTEX
  8
0
 10
0.4250
 20
-0.2379
 30
0.0000
 42
1.0000
  0
VERTEX
  8
0
 10
0.4750
 20
-0.2379
 30
0.0000
  0
SEQEND
  8
0
  0
POLYLINE
  8
0
 66
1
 10
0.0000
 20
0.0000
 30
0.0000
 40
0.0500
 41
0.0500
 70
0
  0
VERTEX
  8
0
 10
0.4750
 20
0.2379
 30
0.0000
 42
1.0000
  0
VERTEX
  8
0
 10
0.4250
 20
0.2379
 30
0.0000
  0
SEQEND
  8
0
  0
POLYLINE
  8
0
 66
1
 10
0.0000
 20
0.0000
 30
0.0000
 40
0.1000
 41
0.1000
 70
0
  0
VERTEX
  8
0
 10
0.2379
 20
-0.4500
 30
0.0000
  0
VERTEX
  8
0
 10
-0.2379
 20
-0.4500
 30
0.0000
  0
SEQEND
  8
0
  0
POLYLINE
  8
0
 66
1
 10
0.0000
 20
0.0000
 30
0.0000
 40
0.0500
 41
0.0500
 70
0
  0
VERTEX
  8
0
 10
-0.2379
 20
-0.4250
 30
0.0000
 42
1.0000
  0
VERTEX
  8
0
 10
-0.2379
 20
-0.4750
 30
0.0000
  0
SEQEND
  8
0
  0
POLYLINE
  8
0
 66
1
 10
0.0000
 20
0.0000
 30
0.0000
 40
0.0500
 41
0.0500
 70
0
  0
VERTEX
  8
0
 10
0.2379
 20
-0.4750
 30
0.0000
 42
1.0000
  0
VERTEX
  8
0
 10
0.2379
 20
-0.4250
 30
0.0000
  0
SEQEND
  8
0
  0
POLYLINE
  8
0
 66
1
 10
0.0000
 20
0.0000
 30
0.0000
 40
0.1000
 41
0.1000
 70
0
  0
VERTEX
  8
0
 10
-0.4500
 20
-0.2379
 30
0.0000
  0
VERTEX
  8
0
 10
-0.4500
 20
0.2379
 30
0.0000
  0
SEQEND
  8
0
  0
POLYLINE
  8
0
 66
1
 10
0.0000
 20
0.0000
 30
0.0000
 40
0.0500
 41
0.0500
 70
0
  0
VERTEX
  8
0
 10
-0.4250
 20
0.2379
 30
0.0000
 42
1.0000
  0
VERTEX
  8
0
 10
-0.4750
 20
0.2379
 30
0.0000
  0
SEQEND
  8
0
  0
POLYLINE
  8
0
 66
1
 10
0.0000
 20
0.0000
 30
0.0000
 40
0.0500
 41
0.0500
 70
0
  0
VERTEX
  8
0
 10
-0.4750
 20
-0.2379
 30
0.0000
 42
1.0000
  0
VERTEX
  8
0
 10
-0.4250
 20
-0.2379
 30
0.0000
  0
SEQEND
  8
0
  0
ENDBLK
  8
0
  0
BLOCK
  8
0
  2
OCTAGONV
 70
64
 10
0.0000
 20
0.0000
 30
0.0000
  3
OCTAGONV
  0
POLYLINE
  8
0
 66
1
 10
0.0000
 20
0.0000
 30
0.0000
 40
0.5000
 41
0.5000
 70
0
  0
VERTEX
  8
0
 10
-0.2500
 20
-0.1036
 30
0.0000
  0
VERTEX
  8
0
 10
-0.2500
 20
0.1036
 30
0.0000
  0
VERTEX
  8
0
 10
-0.1036
 20
0.2500
 30
0.0000
  0
VERTEX
  8
0
 10
0.1036
 20
0.2500
 30
0.0000
  0
VERTEX
  8
0
 10
0.2500
 20
0.1036
 30
0.0000
  0
VERTEX
  8
0
 10
0.2500
 20
-0.1036
 30
0.0000
  0
VERTEX
  8
0
 10
0.1036
 20
-0.2500
 30
0.0000
  0
VERTEX
  8
0
 10
-0.1036
 20
-0.2500
 30
0.0000
  0
VERTEX
  8
0
 10
-0.2500
 20
-0.1036
 30
0.0000
  0
VERTEX
  8
0
 10
-0.2500
 20
0.1036
 30
0.0000
  0
SEQEND
  8
0
  0
ENDBLK
  8
0
  0
BLOCK
  8
0
  2
SQUAREV
 70
64
 10
0.0000
 20
0.0000
 30
0.0000
  3
SQUAREV
  0
SOLID
  8
0
 10
-0.5000
 20
-0.5000
 30
0.0000
 11
0.5000
 21
-0.5000
 31
0.0000
 12
-0.5000
 22
0.5000
 32
0.0000
 13
0.5000
 23
0.5000
 33
0.0000
  0
ENDBLK
  8
0
  0
BLOCK
  8
0
  2
ROUNDV
 70
64
 10
0.0000
 20
0.0000
 30
0.0000
  3
ROUNDV
  0
POLYLINE
  8
0
 66
1
 10
0.0000
 20
0.0000
 30
0.0000
 40
0.5000
 41
0.5000
 70
0
  0
VERTEX
  8
0
 10
0.0000
 20
-0.2500
 30
0.0000
 42
1.0000
  0
VERTEX
  8
0
 10
0.0000
 20
0.2500
 30
0.0000
 42
1.0000
  0
VERTEX
  8
0
 10
0.0000
 20
-0.2500
 30
0.0000
  0
SEQEND
  8
0
  0
ENDBLK
  8
0
  0
BLOCK
  8
0
  2
ANNULUSV
 70
64
 10
0.0000
 20
0.0000
 30
0.0000
  3
ANNULUSV
  0
POLYLINE
  8
0
 66
1
 10
0.0000
 20
0.0000
 30
0.0000
 40
0.5000
 41
0.5000
 70
0
  0
VERTEX
  8
0
 10
0.0000
 20
-0.2500
 30
0.0000
 42
1.0000
  0
VERTEX
  8
0
 10
0.0000
 20
0.2500
 30
0.0000
 42
1.0000
  0
VERTEX
  8
0
 10
0.0000
 20
-0.2500
 30
0.0000
  0
SEQEND
  8
0
  0
ENDBLK
  8
0
  0
BLOCK
  8
0
  2
THERMALV
 70
64
 10
0.0000
 20
0.0000
 30
0.0000
  3
THERMALV
  0
POLYLINE
  8
0
 66
1
 10
0.0000
 20
0.0000
 30
0.0000
 40
0.1000
 41
0.1000
 70
0
  0
VERTEX
  8
0
 10
-0.2379
 20
0.4500
 30
0.0000
  0
VERTEX
  8
0
 10
0.2379
 20
0.4500
 30
0.0000
  0
SEQEND
  8
0
  0
POLYLINE
  8
0
 66
1
 10
0.0000
 20
0.0000
 30
0.0000
 40
0.0500
 41
0.0500
 70
0
  0
VERTEX
  8
0
 10
0.2379
 20
0.4250
 30
0.0000
 42
1.0000
  0
VERTEX
  8
0
 10
0.2379
 20
0.4750
 30
0.0000
  0
SEQEND
  8
0
  0
POLYLINE
  8
0
 66
1
 10
0.0000
 20
0.0000
 30
0.0000
 40
0.0500
 41
0.0500
 70
0
  0
VERTEX
  8
0
 10
-0.2379
 20
0.4750
 30
0.0000
 42
1.0000
  0
VERTEX
  8
0
 10
-0.2379
 20
0.4250
 30
0.0000
  0
SEQEND
  8
0
  0
POLYLINE
  8
0
 66
1
 10
0.0000
 20
0.0000
 30
0.0000
 40
0.1000
 41
0.1000
 70
0
  0
VERTEX
  8
0
 10
0.4500
 20
0.2379
 30
0.0000
  0
VERTEX
  8
0
 10
0.4500
 20
-0.2379
 30
0.0000
  0
SEQEND
  8
0
  0
POLYLINE
  8
0
 66
1
 10
0.0000
 20
0.0000
 30
0.0000
 40
0.0500
 41
0.0500
 70
0
  0
VERTEX
  8
0
 10
0.4250
 20
-0.2379
 30
0.0000
 42
1.0000
  0
VERTEX
  8
0
 10
0.4750
 20
-0.2379
 30
0.0000
  0
SEQEND
  8
0
  0
POLYLINE
  8
0
 66
1
 10
0.0000
 20
0.0000
 30
0.0000
 40
0.0500
 41
0.0500
 70
0
  0
VERTEX
  8
0
 10
0.4750
 20
0.2379
 30
0.0000
 42
1.0000
  0
VERTEX
  8
0
 10
0.4250
 20
0.2379
 30
0.0000
  0
SEQEND
  8
0
  0
POLYLINE
  8
0
 66
1
 10
0.0000
 20
0.0000
 30
0.0000
 40
0.1000
 41
0.1000
 70
0
  0
VERTEX
  8
0
 10
0.2379
 20
-0.4500
 30
0.0000
  0
VERTEX
  8
0
 10
-0.2379
 20
-0.4500
 30
0.0000
  0
SEQEND
  8
0
  0
POLYLINE
  8
0
 66
1
 10
0.0000
 20
0.0000
 30
0.0000
 40
0.0500
 41
0.0500
 70
0
  0
VERTEX
  8
0
 10
-0.2379
 20
-0.4250
 30
0.0000
 42
1.0000
  0
VERTEX
  8
0
 10
-0.2379
 20
-0.4750
 30
0.0000
  0
SEQEND
  8
0
  0
POLYLINE
  8
0
 66
1
 10
0.0000
 20
0.0000
 30
0.0000
 40
0.0500
 41
0.0500
 70
0
  0
VERTEX
  8
0
 10
0.2379
 20
-0.4750
 30
0.0000
 42
1.0000
  0
VERTEX
  8
0
 10
0.2379
 20
-0.4250
 30
0.0000
  0
SEQEND
  8
0
  0
POLYLINE
  8
0
 66
1
 10
0.0000
 20
0.0000
 30
0.0000
 40
0.1000
 41
0.1000
 70
0
  0
VERTEX
  8
0
 10
-0.4500
 20
-0.2379
 30
0.0000
  0
VERTEX
  8
0
 10
-0.4500
 20
0.2379
 30
0.0000
  0
SEQEND
  8
0
  0
POLYLINE
  8
0
 66
1
 10
0.0000
 20
0.0000
 30
0.0000
 40
0.0500
 41
0.0500
 70
0
  0
VERTEX
  8
0
 10
-0.4250
 20
0.2379
 30
0.0000
 42
1.0000
  0
VERTEX
  8
0
 10
-0.4750
 20
0.2379
 30
0.0000
  0
SEQEND
  8
0
  0
POLYLINE
  8
0
 66
1
 10
0.0000
 20
0.0000
 30
0.0000
 40
0.0500
 41
0.0500
 70
0
  0
VERTEX
  8
0
 10
-0.4750
 20
-0.2379
 30
0.0000
 42
1.0000
  0
VERTEX
  8
0
 10
-0.4250
 20
-0.2379
 30
0.0000
  0
SEQEND
  8
0
  0
ENDBLK
  8
0
  0
ENDSEC
  0
SECTION
  2
ENTITIES
  0
POLYLINE
  8
20
 66
1
 10
0.0000
 20
0.0000
 30
0.0000
 40
0.4000
 41
0.4000
 70
0
  0
VERTEX
  8
20
 10
5.1769
 20
17.5552
 30
0.0000
 42
0.4142
  0
VERTEX
  8
20
 10
4.8109
 20
16.1891
 30
0.0000
  0
SEQEND
  8
0
  0
POLYLINE
  8
20
 66
1
 10
0.0000
 20
0.0000
 30
0.0000
 40
0.2000
 41
0.2000
 70
0
  0
VERTEX
  8
20
 10
5.2269
 20
17.4685
 30
0.0000
 42
1.0000
  0
VERTEX
  8
20
 10
5.1269
 20
17.6418
 30
0.0000
  0
SEQEND
  8
0
  0
POLYLINE
  8
20
 66
1
 10
0.0000
 20
0.0000
 30
0.0000
 40
0.2000
 41
0.2000
 70
0
  0
VERTEX
  8
20
 10
4.7243
 20
16.1391
 30
0.0000
 42
1.0000
  0
VERTEX
  8
20
 10
4.8975
 20
16.2391
 30
0.0000
  0
SEQEND
  8
0
  0
POLYLINE
  8
20
 66
1
 10
0.0000
 20
0.0000
 30
0.0000
 40
0.4000
 41
0.4000
 70
0
  0
VERTEX
  8
20
 10
5.1769
 20
17.5552
 30
0.0000
  0
VERTEX
  8
20
 10
6.5626
 20
18.3552
 30
0.0000
  0
SEQEND
  8
0
  0
POLYLINE
  8
20
 66
1
 10
0.0000
 20
0.0000
 30
0.0000
 40
0.2000
 41
0.2000
 70
0
  0
VERTEX
  8
20
 10
6.6126
 20
18.2685
 30
0.0000
 42
1.0000
  0
VERTEX
  8
20
 10
6.5126
 20
18.4418
 30
0.0000
  0
SEQEND
  8
0
  0
POLYLINE
  8
20
 66
1
 10
0.0000
 20
0.0000
 30
0.0000
 40
0.2000
 41
0.2000
 70
0
  0
VERTEX
  8
20
 10
5.1269
 20
17.6418
 30
0.0000
 42
1.0000
  0
VERTEX
  8
20
 10
5.2269
 20
17.4685
 30
0.0000
  0
SEQEND
  8
0
  0
POLYLINE
  8
20
 66
1
 10
0.0000
 20
0.0000
 30
0.0000
 40
0.4000
 41
0.4000
 70
0
  0
VERTEX
  8
20
 10
6.5626
 20
18.3552
 30
0.0000
 42
0.3397
  0
VERTEX
  8
20
 10
7.9598
 20
21.7319
 30
0.0000
  0
SEQEND
  8
0
  0
POLYLINE
  8
20
 66
1
 10
0.0000
 20
0.0000
 30
0.0000
 40
0.2000
 41
0.2000
 70
0
  0
VERTEX
  8
20
 10
6.5126
 20
18.4418
 30
0.0000
 42
1.0000
  0
VERTEX
  8
20
 10
6.6126
 20
18.2685
 30
0.0000
  0
SEQEND
  8
0
  0
POLYLINE
  8
20
 66
1
 10
0.0000
 20
0.0000
 30
0.0000
 40
0.2000
 41
0.2000
 70
0
  0
VERTEX
  8
20
 10
8.0563
 20
21.7579
 30
0.0000
 42
1.0000
  0
VERTEX
  8
20
 10
7.8632
 20
21.7060
 30
0.0000
  0
SEQEND
  8
0
  0
POLYLINE
  8
20
 66
1
 10
0.0000
 20
0.0000
 30
0.0000
 40
0.4000
 41
0.4000
 70
0
  0
VERTEX
  8
20
 10
27.7742
 20
56.0516
 30
0.0000
 42
0.4147
  0
VERTEX
  8
20
 10
7.9597
 20
21.7319
 30
0.0000
  0
SEQEND
  8
0
  0
POLYLINE
  8
20
 66
1
 10
0.0000
 20
0.0000
 30
0.0000
 40
0.2000
 41
0.2000
 70
0
  0
VERTEX
  8
20
 10
27.8000
 20
55.9550
 30
0.0000
 42
1.0000
  0
VERTEX
  8
20
 10
27.7484
 20
56.1482
 30
0.0000
  0
SEQEND
  8
0
  0
POLYLINE
  8
20
 66
1
 10
0.0000
 20
0.0000
 30
0.0000
 40
0.2000
 41
0.2000
 70
0
  0
VERTEX
  8
20
 10
7.8632
 20
21.7060
 30
0.0000
 42
1.0000
  0
VERTEX
  8
20
 10
8.0563
 20
21.7579
 30
0.0000
  0
SEQEND
  8
0
  0
POLYLINE
  8
20
 66
1
 10
0.0000
 20
0.0000
 30
0.0000
 40
0.4000
 41
0.4000
 70
0
  0
VERTEX
  8
20
 10
27.7742
 20
56.0516
 30
0.0000
 42
0.3397
  0
VERTEX
  8
20
 10
30.0000
 20
58.9500
 30
0.0000
  0
SEQEND
  8
0
  0
POLYLINE
  8
20
 66
1
 10
0.0000
 20
0.0000
 30
0.0000
 40
0.2000
 41
0.2000
 70
0
  0
VERTEX
  8
20
 10
27.7484
 20
56.1482
 30
0.0000
 42
1.0000
  0
VERTEX
  8
20
 10
27.8000
 20
55.9550
 30
0.0000
  0
SEQEND
  8
0
  0
POLYLINE
  8
20
 66
1
 10
0.0000
 20
0.0000
 30
0.0000
 40
0.2000
 41
0.2000
 70
0
  0
VERTEX
  8
20
 10
30.1000
 20
58.9500
 30
0.0000
 42
1.0000
  0
VERTEX
  8
20
 10
29.9000
 20
58.9500
 30
0.0000
  0
SEQEND
  8
0
  0
POLYLINE
  8
20
 66
1
 10
0.0000
 20
0.0000
 30
0.0000
 40
0.4000
 41
0.4000
 70
0
  0
VERTEX
  8
20
 10
30.0000
 20
58.9500
 30
0.0000
  0
VERTEX
  8
20
 10
30.0000
 20
60.5500
 30
0.0000
  0
SEQEND
  8
0
  0
POLYLINE
  8
20
 66
1
 10
0.0000
 20
0.0000
 30
0.0000
 40
0.2000
 41
0.2000
 70
0
  0
VERTEX
  8
20
 10
30.1000
 20
60.5500
 30
0.0000
 42
1.0000
  0
VERTEX
  8
20
 10
29.9000
 20
60.5500
 30
0.0000
  0
SEQEND
  8
0
  0
POLYLINE
  8
20
 66
1
 10
0.0000
 20
0.0000
 30
0.0000
 40
0.2000
 41
0.2000
 70
0
  0
VERTEX
  8
20
 10
29.9000
 20
58.9500
 30
0.0000
 42
1.0000
  0
VERTEX
  8
20
 10
30.1000
 20
58.9500
 30
0.0000
  0
SEQEND
  8
0
  0
POLYLINE
  8
20
 66
1
 10
0.0000
 20
0.0000
 30
0.0000
 40
0.4000
 41
0.4000
 70
0
  0
VERTEX
  8
20
 10
31.0000
 20
61.5500
 30
0.0000
 42
0.4142
  0
VERTEX
  8
20
 10
30.0000
 20
60.5500
 30
0.0000
  0
SEQEND
  8
0
  0
POLYLINE
  8
20
 66
1
 10
0.0000
 20
0.0000
 30
0.0000
 40
0.2000
 41
0.2000
 70
0
  0
VERTEX
  8
20
 10
31.0000
 20
61.4500
 30
0.0000
 42
1.0000
  0
VERTEX
  8
20
 10
31.0000
 20
61.6500
 30
0.0000
  0
SEQEND
  8
0
  0
POLYLINE
  8
20
 66
1
 10
0.0000
 20
0.0000
 30
0.0000
 40
0.2000
 41
0.2000
 70
0
  0
VERTEX
  8
20
 10
29.9000
 20
60.5500
 30
0.0000
 42
1.0000
  0
VERTEX
  8
20
 10
30.1000
 20
60.5500
 30
0.0000
  0
SEQEND
  8
0
  0
POLYLINE
  8
20
 66
1
 10
0.0000
 20
0.0000
 30
0.0000
 40
0.4000
 41
0.4000
 70
0
  0
VERTEX
  8
20
 10
31.0000
 20
61.5500
 30
0.0000
  0
VERTEX
  8
20
 10
39.0000
 20
61.5500
 30
0.0000
  0
SEQEND
  8
0
  0
POLYLINE
  8
20
 66
1
 10
0.0000
 20
0.0000
 30
0.0000
 40
0.2000
 41
0.2000
 70
0
  0
VERTEX
  8
20
 10
39.0000
 20
61.4500
 30
0.0000
 42
1.0000
  0
VERTEX
  8
20
 10
39.0000
 20
61.6500
 30
0.0000
  0
SEQEND
  8
0
  0
POLYLINE
  8
20
 66
1
 10
0.0000
 20
0.0000
 30
0.0000
 40
0.2000
 41
0.2000
 70
0
  0
VERTEX
  8
20
 10
31.0000
 20
61.6500
 30
0.0000
 42
1.0000
  0
VERTEX
  8
20
 10
31.0000
 20
61.4500
 30
0.0000
  0
SEQEND
  8
0
  0
POLYLINE
  8
20
 66
1
 10
0.0000
 20
0.0000
 30
0.0000
 40
0.4000
 41
0.4000
 70
0
  0
VERTEX
  8
20
 10
40.0000
 20
60.5500
 30
0.0000
 42
0.4142
  0
VERTEX
  8
20
 10
39.0000
 20
61.5500
 30
0.0000
  0
SEQEND
  8
0
  0
POLYLINE
  8
20
 66
1
 10
0.0000
 20
0.0000
 30
0.0000
 40
0.2000
 41
0.2000
 70
0
  0
VERTEX
  8
20
 10
39.9000
 20
60.5500
 30
0.0000
 42
1.0000
  0
VERTEX
  8
20
 10
40.1000
 20
60.5500
 30
0.0000
  0
SEQEND
  8
0
  0
POLYLINE
  8
20
 66
1
 10
0.0000
 20
0.0000
 30
0.0000
 40
0.2000
 41
0.2000
 70
0
  0
VERTEX
  8
20
 10
39.0000
 20
61.6500
 30
0.0000
 42
1.0000
  0
VERTEX
  8
20
 10
39.0000
 20
61.4500
 30
0.0000
  0
SEQEND
  8
0
  0
POLYLINE
  8
20
 66
1
 10
0.0000
 20
0.0000
 30
0.0000
 40
0.4000
 41
0.4000
 70
0
  0
VERTEX
  8
20
 10
40.0000
 20
60.5500
 30
0.0000
  0
VERTEX
  8
20
 10
40.0000
 20
58.9500
 30
0.0000
  0
SEQEND
  8
0
  0
POLYLINE
  8
20
 66
1
 10
0.0000
 20
0.0000
 30
0.0000
 40
0.2000
 41
0.2000
 70
0
  0
VERTEX
  8
20
 10
39.9000
 20
58.9500
 30
0.0000
 42
1.0000
  0
VERTEX
  8
20
 10
40.1000
 20
58.9500
 30
0.0000
  0
SEQEND
  8
0
  0
POLYLINE
  8
20
 66
1
 10
0.0000
 20
0.0000
 30
0.0000
 40
0.2000
 41
0.2000
 70
0
  0
VERTEX
  8
20
 10
40.1000
 20
60.5500
 30
0.0000
 42
1.0000
  0
VERTEX
  8
20
 10
39.9000
 20
60.5500
 30
0.0000
  0
SEQEND
  8
0
  0
POLYLINE
  8
20
 66
1
 10
0.0000
 20
0.0000
 30
0.0000
 40
0.4000
 41
0.4000
 70
0
  0
VERTEX
  8
20
 10
40.0000
 20
58.9500
 30
0.0000
 42
0.3397
  0
VERTEX
  8
20
 10
42.2258
 20
56.0516
 30
0.0000
  0
SEQEND
  8
0
  0
POLYLINE
  8
20
 66
1
 10
0.0000
 20
0.0000
 30
0.0000
 40
0.2000
 41
0.2000
 70
0
  0
VERTEX
  8
20
 10
40.1000
 20
58.9500
 30
0.0000
 42
1.0000
  0
VERTEX
  8
20
 10
39.9000
 20
58.9500
 30
0.0000
  0
SEQEND
  8
0
  0
POLYLINE
  8
20
 66
1
 10
0.0000
 20
0.0000
 30
0.0000
 40
0.2000
 41
0.2000
 70
0
  0
VERTEX
  8
20
 10
42.2000
 20
55.9550
 30
0.0000
 42
1.0000
  0
VERTEX
  8
20
 10
42.2516
 20
56.1482
 30
0.0000
  0
SEQEND
  8
0
  0
POLYLINE
  8
20
 66
1
 10
0.0000
 20
0.0000
 30
0.0000
 40
0.4000
 41
0.4000
 70
0
  0
VERTEX
  8
20
 10
62.0403
 20
21.7319
 30
0.0000
 42
0.4147
  0
VERTEX
  8
20
 10
42.2258
 20
56.0516
 30
0.0000
  0
SEQEND
  8
0
  0
POLYLINE
  8
20
 66
1
 10
0.0000
 20
0.0000
 30
0.0000
 40
0.2000
 41
0.2000
 70
0
  0
VERTEX
  8
20
 10
61.9437
 20
21.7579
 30
0.0000
 42
1.0000
  0
VERTEX
  8
20
 10
62.1368
 20
21.7060
 30
0.0000
  0
SEQEND
  8
0
  0
POLYLINE
  8
20
 66
1
 10
0.0000
 20
0.0000
 30
0.0000
 40
0.2000
 41
0.2000
 70
0
  0
VERTEX
  8
20
 10
42.2516
 20
56.1482
 30
0.0000
 42
1.0000
  0
VERTEX
  8
20
 10
42.2000
 20
55.9550
 30
0.0000
  0
SEQEND
  8
0
  0
POLYLINE
  8
20
 66
1
 10
0.0000
 20
0.0000
 30
0.0000
 40
0.4000
 41
0.4000
 70
0
  0
VERTEX
  8
20
 10
62.0403
 20
21.7319
 30
0.0000
 42
0.3397
  0
VERTEX
  8
20
 10
63.4374
 20
18.3551
 30
0.0000
  0
SEQEND
  8
0
  0
POLYLINE
  8
20
 66
1
 10
0.0000
 20
0.0000
 30
0.0000
 40
0.2000
 41
0.2000
 70
0
  0
VERTEX
  8
20
 10
62.1368
 20
21.7060
 30
0.0000
 42
1.0000
  0
VERTEX
  8
20
 10
61.9437
 20
21.7579
 30
0.0000
  0
SEQEND
  8
0
  0
POLYLINE
  8
20
 66
1
 10
0.0000
 20
0.0000
 30
0.0000
 40
0.2000
 41
0.2000
 70
0
  0
VERTEX
  8
20
 10
63.3874
 20
18.2685
 30
0.0000
 42
1.0000
  0
VERTEX
  8
20
 10
63.4874
 20
18.4417
 30
0.0000
  0
SEQEND
  8
0
  0
POLYLINE
  8
20
 66
1
 10
0.0000
 20
0.0000
 30
0.0000
 40
0.4000
 41
0.4000
 70
0
  0
VERTEX
  8
20
 10
63.4374
 20
18.3552
 30
0.0000
  0
VERTEX
  8
20
 10
64.8231
 20
17.5552
 30
0.0000
  0
SEQEND
  8
0
  0
POLYLINE
  8
20
 66
1
 10
0.0000
 20
0.0000
 30
0.0000
 40
0.2000
 41
0.2000
 70
0
  0
VERTEX
  8
20
 10
64.7731
 20
17.4685
 30
0.0000
 42
1.0000
  0
VERTEX
  8
20
 10
64.8731
 20
17.6418
 30
0.0000
  0
SEQEND
  8
0
  0
POLYLINE
  8
20
 66
1
 10
0.0000
 20
0.0000
 30
0.0000
 40
0.2000
 41
0.2000
 70
0
  0
VERTEX
  8
20
 10
63.4874
 20
18.4418
 30
0.0000
 42
1.0000
  0
VERTEX
  8
20
 10
63.3874
 20
18.2685
 30
0.0000
  0
SEQEND
  8
0
  0
POLYLINE
  8
20
 66
1
 10
0.0000
 20
0.0000
 30
0.0000
 40
0.4000
 41
0.4000
 70
0
  0
VERTEX
  8
20
 10
65.1891
 20
16.1891
 30
0.0000
 42
0.4142
  0
VERTEX
  8
20
 10
64.8231
 20
17.5551
 30
0.0000
  0
SEQEND
  8
0
  0
POLYLINE
  8
20
 66
1
 10
0.0000
 20
0.0000
 30
0.0000
 40
0.2000
 41
0.2000
 70
0
  0
VERTEX
  8
20
 10
65.1025
 20
16.2391
 30
0.0000
 42
1.0000
  0
VERTEX
  8
20
 10
65.2757
 20
16.1391
 30
0.0000
  0
SEQEND
  8
0
  0
POLYLINE
  8
20
 66
1
 10
0.0000
 20
0.0000
 30
0.0000
 40
0.2000
 41
0.2000
 70
0
  0
VERTEX
  8
20
 10
64.8731
 20
17.6417
 30
0.0000
 42
1.0000
  0
VERTEX
  8
20
 10
64.7731
 20
17.4685
 30
0.0000
  0
SEQEND
  8
0
  0
POLYLINE
  8
20
 66
1
 10
0.0000
 20
0.0000
 30
0.0000
 40
0.4000
 41
0.4000
 70
0
  0
VERTEX
  8
20
 10
65.1891
 20
16.1891
 30
0.0000
  0
VERTEX
  8
20
 10
61.1891
 20
9.2609
 30
0.0000
  0
SEQEND
  8
0
  0
POLYLINE
  8
20
 66
1
 10
0.0000
 20
0.0000
 30
0.0000
 40
0.2000
 41
0.2000
 70
0
  0
VERTEX
  8
20
 10
61.1025
 20
9.3109
 30
0.0000
 42
1.0000
  0
VERTEX
  8
20
 10
61.2757
 20
9.2109
 30
0.0000
  0
SEQEND
  8
0
  0
POLYLINE
  8
20
 66
1
 10
0.0000
 20
0.0000
 30
0.0000
 40
0.2000
 41
0.2000
 70
0
  0
VERTEX
  8
20
 10
65.2757
 20
16.1391
 30
0.0000
 42
1.0000
  0
VERTEX
  8
20
 10
65.1025
 20
16.2391
 30
0.0000
  0
SEQEND
  8
0
  0
POLYLINE
  8
20
 66
1
 10
0.0000
 20
0.0000
 30
0.0000
 40
0.4000
 41
0.4000
 70
0
  0
VERTEX
  8
20
 10
59.8231
 20
8.8949
 30
0.0000
 42
0.4142
  0
VERTEX
  8
20
 10
61.1891
 20
9.2609
 30
0.0000
  0
SEQEND
  8
0
  0
POLYLINE
  8
20
 66
1
 10
0.0000
 20
0.0000
 30
0.0000
 40
0.2000
 41
0.2000
 70
0
  0
VERTEX
  8
20
 10
59.8731
 20
8.9815
 30
0.0000
 42
1.0000
  0
VERTEX
  8
20
 10
59.7731
 20
8.8083
 30
0.0000
  0
SEQEND
  8
0
  0
POLYLINE
  8
20
 66
1
 10
0.0000
 20
0.0000
 30
0.0000
 40
0.2000
 41
0.2000
 70
0
  0
VERTEX
  8
20
 10
61.2757
 20
9.2109
 30
0.0000
 42
1.0000
  0
VERTEX
  8
20
 10
61.1025
 20
9.3109
 30
0.0000
  0
SEQEND
  8
0
  0
POLYLINE
  8
20
 66
1
 10
0.0000
 20
0.0000
 30
0.0000
 40
0.4000
 41
0.4000
 70
0
  0
VERTEX
  8
20
 10
59.8231
 20
8.8949
 30
0.0000
  0
VERTEX
  8
20
 10
58.4374
 20
9.6949
 30
0.0000
  0
SEQEND
  8
0
  0
POLYLINE
  8
20
 66
1
 10
0.0000
 20
0.0000
 30
0.0000
 40
0.2000
 41
0.2000
 70
0
  0
VERTEX
  8
20
 10
58.4874
 20
9.7815
 30
0.0000
 42
1.0000
  0
VERTEX
  8
20
 10
58.3874
 20
9.6083
 30
0.0000
  0
SEQEND
  8
0
  0
POLYLINE
  8
20
 66
1
 10
0.0000
 20
0.0000
 30
0.0000
 40
0.2000
 41
0.2000
 70
0
  0
VERTEX
  8
20
 10
59.7731
 20
8.8083
 30
0.0000
 42
1.0000
  0
VERTEX
  8
20
 10
59.8731
 20
8.9815
 30
0.0000
  0
SEQEND
  8
0
  0
POLYLINE
  8
20
 66
1
 10
0.0000
 20
0.0000
 30
0.0000
 40
0.4000
 41
0.4000
 70
0
  0
VERTEX
  8
20
 10
58.4374
 20
9.6949
 30
0.0000
 42
0.3397
  0
VERTEX
  8
20
 10
54.8144
 20
9.2165
 30
0.0000
  0
SEQEND
  8
0
  0
POLYLINE
  8
20
 66
1
 10
0.0000
 20
0.0000
 30
0.0000
 40
0.2000
 41
0.2000
 70
0
  0
VERTEX
  8
20
 10
58.3874
 20
9.6083
 30
0.0000
 42
1.0000
  0
VERTEX
  8
20
 10
58.4874
 20
9.7815
 30
0.0000
  0
SEQEND
  8
0
  0
POLYLINE
  8
20
 66
1
 10
0.0000
 20
0.0000
 30
0.0000
 40
0.2000
 41
0.2000
 70
0
  0
VERTEX
  8
20
 10
54.7437
 20
9.2871
 30
0.0000
 42
1.0000
  0
VERTEX
  8
20
 10
54.8852
 20
9.1458
 30
0.0000
  0
SEQEND
  8
0
  0
POLYLINE
  8
20
 66
1
 10
0.0000
 20
0.0000
 30
0.0000
 40
0.4000
 41
0.4000
 70
0
  0
VERTEX
  8
20
 10
15.1856
 20
9.2165
 30
0.0000
 42
0.4147
  0
VERTEX
  8
20
 10
54.8145
 20
9.2165
 30
0.0000
  0
SEQEND
  8
0
  0
POLYLINE
  8
20
 66
1
 10
0.0000
 20
0.0000
 30
0.0000
 40
0.2000
 41
0.2000
 70
0
  0
VERTEX
  8
20
 10
15.2563
 20
9.2871
 30
0.0000
 42
1.0000
  0
VERTEX
  8
20
 10
15.1148
 20
9.1458
 30
0.0000
  0
SEQEND
  8
0
  0
POLYLINE
  8
20
 66
1
 10
0.0000
 20
0.0000
 30
0.0000
 40
0.2000
 41
0.2000
 70
0
  0
VERTEX
  8
20
 10
54.8852
 20
9.1458
 30
0.0000
 42
1.0000
  0
VERTEX
  8
20
 10
54.7437
 20
9.2871
 30
0.0000
  0
SEQEND
  8
0
  0
POLYLINE
  8
20
 66
1
 10
0.0000
 20
0.0000
 30
0.0000
 40
0.4000
 41
0.4000
 70
0
  0
VERTEX
  8
20
 10
15.1856
 20
9.2165
 30
0.0000
 42
0.3397
  0
VERTEX
  8
20
 10
11.5626
 20
9.6949
 30
0.0000
  0
SEQEND
  8
0
  0
POLYLINE
  8
20
 66
1
 10
0.0000
 20
0.0000
 30
0.0000
 40
0.2000
 41
0.2000
 70
0
  0
VERTEX
  8
20
 10
15.1148
 20
9.1458
 30
0.0000
 42
1.0000
  0
VERTEX
  8
20
 10
15.2563
 20
9.2871
 30
0.0000
  0
SEQEND
  8
0
  0
POLYLINE
  8
20
 66
1
 10
0.0000
 20
0.0000
 30
0.0000
 40
0.2000
 41
0.2000
 70
0
  0
VERTEX
  8
20
 10
11.5126
 20
9.7815
 30
0.0000
 42
1.0000
  0
VERTEX
  8
20
 10
11.6126
 20
9.6083
 30
0.0000
  0
SEQEND
  8
0
  0
POLYLINE
  8
20
 66
1
 10
0.0000
 20
0.0000
 30
0.0000
 40
0.4000
 41
0.4000
 70
0
  0
VERTEX
  8
20
 10
11.5626
 20
9.6949
 30
0.0000
  0
VERTEX
  8
20
 10
10.1769
 20
8.8949
 30
0.0000
  0
SEQEND
  8
0
  0
POLYLINE
  8
20
 66
1
 10
0.0000
 20
0.0000
 30
0.0000
 40
0.2000
 41
0.2000
 70
0
  0
VERTEX
  8
20
 10
10.1269
 20
8.9815
 30
0.0000
 42
1.0000
  0
VERTEX
  8
20
 10
10.2269
 20
8.8083
 30
0.0000
  0
SEQEND
  8
0
  0
POLYLINE
  8
20
 66
1
 10
0.0000
 20
0.0000
 30
0.0000
 40
0.2000
 41
0.2000
 70
0
  0
VERTEX
  8
20
 10
11.6126
 20
9.6083
 30
0.0000
 42
1.0000
  0
VERTEX
  8
20
 10
11.5126
 20
9.7815
 30
0.0000
  0
SEQEND
  8
0
  0
POLYLINE
  8
20
 66
1
 10
0.0000
 20
0.0000
 30
0.0000
 40
0.4000
 41
0.4000
 70
0
  0
VERTEX
  8
20
 10
8.8109
 20
9.2609
 30
0.0000
 42
0.4142
  0
VERTEX
  8
20
 10
10.1769
 20
8.8949
 30
0.0000
  0
SEQEND
  8
0
  0
POLYLINE
  8
20
 66
1
 10
0.0000
 20
0.0000
 30
0.0000
 40
0.2000
 41
0.2000
 70
0
  0
VERTEX
  8
20
 10
8.8975
 20
9.3109
 30
0.0000
 42
1.0000
  0
VERTEX
  8
20
 10
8.7243
 20
9.2109
 30
0.0000
  0
SEQEND
  8
0
  0
POLYLINE
  8
20
 66
1
 10
0.0000
 20
0.0000
 30
0.0000
 40
0.2000
 41
0.2000
 70
0
  0
VERTEX
  8
20
 10
10.2269
 20
8.8083
 30
0.0000
 42
1.0000
  0
VERTEX
  8
20
 10
10.1269
 20
8.9815
 30
0.0000
  0
SEQEND
  8
0
  0
POLYLINE
  8
20
 66
1
 10
0.0000
 20
0.0000
 30
0.0000
 40
0.4000
 41
0.4000
 70
0
  0
VERTEX
  8
20
 10
8.8109
 20
9.2609
 30
0.0000
  0
VERTEX
  8
20
 10
4.8109
 20
16.1891
 30
0.0000
  0
SEQEND
  8
0
  0
POLYLINE
  8
20
 66
1
 10
0.0000
 20
0.0000
 30
0.0000
 40
0.2000
 41
0.2000
 70
0
  0
VERTEX
  8
20
 10
4.8975
 20
16.2391
 30
0.0000
 42
1.0000
  0
VERTEX
  8
20
 10
4.7243
 20
16.1391
 30
0.0000
  0
SEQEND
  8
0
  0
POLYLINE
  8
20
 66
1
 10
0.0000
 20
0.0000
 30
0.0000
 40
0.2000
 41
0.2000
 70
0
  0
VERTEX
  8
20
 10
8.7243
 20
9.2109
 30
0.0000
 42
1.0000
  0
VERTEX
  8
20
 10
8.8975
 20
9.3109
 30
0.0000
  0
SEQEND
  8
0
  0
POLYLINE
  8
20
 66
1
 10
0.0000
 20
0.0000
 30
0.0000
 40
0.4000
 41
0.4000
 70
0
  0
VERTEX
  8
20
 10
35.0000
 20
48.7500
 30
0.0000
 42
1.0000
  0
VERTEX
  8
20
 10
35.0000
 20
51.2500
 30
0.0000
 42
1.0000
  0
VERTEX
  8
20
 10
35.0000
 20
48.7500
 30
0.0000
  0
SEQEND
  8
0
  0
POLYLINE
  8
20
 66
1
 10
0.0000
 20
0.0000
 30
0.0000
 40
0.4000
 41
0.4000
 70
0
  0
VERTEX
  8
20
 10
35.0000
 20
22.7500
 30
0.0000
 42
1.0000
  0
VERTEX
  8
20
 10
35.0000
 20
47.2500
 30
0.0000
 42
1.0000
  0
VERTEX
  8
20
 10
35.0000
 20
22.7500
 30
0.0000
  0
SEQEND
  8
0
  0
POLYLINE
  8
20
 66
1
 10
0.0000
 20
0.0000
 30
0.0000
 40
0.4000
 41
0.4000
 70
0
  0
VERTEX
  8
20
 10
53.5000
 20
10.2500
 30
0.0000
 42
1.0000
  0
VERTEX
  8
20
 10
53.5000
 20
12.7500
 30
0.0000
 42
1.0000
  0
VERTEX
  8
20
 10
53.5000
 20
10.2500
 30
0.0000
  0
SEQEND
  8
0
  0
POLYLINE
  8
20
 66
1
 10
0.0000
 20
0.0000
 30
0.0000
 40
0.4000
 41
0.4000
 70
0
  0
VERTEX
  8
20
 10
16.5000
 20
10.2500
 30
0.0000
 42
1.0000
  0
VERTEX
  8
20
 10
16.5000
 20
12.7500
 30
0.0000
 42
1.0000
  0
VERTEX
  8
20
 10
16.5000
 20
10.2500
 30
0.0000
  0
SEQEND
  8
0
  0
INSERT
  8
31
  2
RECT
 10
20.1000
 20
22.7000
 30
0.0000
 41
0.8000
 42
1.0000
 43
1.0000
 50
270.0000
  0
INSERT
  8
31
  2
RECT
 10
20.1000
 20
21.3000
 30
0.0000
 41
0.8000
 42
1.0000
 43
1.0000
 50
270.0000
  0
INSERT
  8
31
  2
RECT
 10
46.2000
 20
20.2500
 30
0.0000
 41
0.5000
 42
0.4000
 43
1.0000
 50
90.0000
  0
INSERT
  8
31
  2
RECT
 10
46.2000
 20
21.1500
 30
0.0000
 41
0.5000
 42
0.4000
 43
1.0000
 50
90.0000
  0
INSERT
  8
31
  2
RECT
 10
49.1500
 20
22.9000
 30
0.0000
 41
0.5000
 42
0.4000
 43
1.0000
 50
180.0000
  0
INSERT
  8
31
  2
RECT
 10
48.2500
 20
22.9000
 30
0.0000
 41
0.5000
 42
0.4000
 43
1.0000
 50
180.0000
  0
INSERT
  8
31
  2
RECT
 10
13.8000
 20
20.2000
 30
0.0000
 41
0.8000
 42
1.0000
 43
1.0000
 50
90.0000
  0
INSERT
  8
31
  2
RECT
 10
13.8000
 20
21.6000
 30
0.0000
 41
0.8000
 42
1.0000
 43
1.0000
 50
90.0000
  0
INSERT
  8
31
  2
RECT
 10
14.1500
 20
18.8000
 30
0.0000
 41
0.5000
 42
0.4000
 43
1.0000
 50
0.0000
  0
INSERT
  8
31
  2
RECT
 10
15.0500
 20
18.8000
 30
0.0000
 41
0.5000
 42
0.4000
 43
1.0000
 50
0.0000
  0
INSERT
  8
31
  2
RECT
 10
47.8182
 20
8.9818
 30
0.0000
 41
0.5000
 42
0.4000
 43
1.0000
 50
135.0000
  0
INSERT
  8
31
  2
RECT
 10
47.1818
 20
9.6182
 30
0.0000
 41
0.5000
 42
0.4000
 43
1.0000
 50
135.0000
  0
INSERT
  8
31
  2
RECT
 10
38.9182
 20
9.1182
 30
0.0000
 41
0.5000
 42
0.4000
 43
1.0000
 50
225.0000
  0
INSERT
  8
31
  2
RECT
 10
38.2818
 20
8.4818
 30
0.0000
 41
0.5000
 42
0.4000
 43
1.0000
 50
225.0000
  0
INSERT
  8
31
  2
RECT
 10
34.6000
 20
53.8000
 30
0.0000
 41
0.8000
 42
1.0000
 43
1.0000
 50
180.0000
  0
INSERT
  8
31
  2
RECT
 10
33.2000
 20
53.8000
 30
0.0000
 41
0.8000
 42
1.0000
 43
1.0000
 50
180.0000
  0
INSERT
  8
31
  2
RECT
 10
55.4500
 20
14.9938
 30
0.0000
 41
0.8000
 42
1.0000
 43
1.0000
 50
60.0000
  0
INSERT
  8
31
  2
RECT
 10
56.1500
 20
16.2062
 30
0.0000
 41
0.8000
 42
1.0000
 43
1.0000
 50
60.0000
  0
INSERT
  8
31
  2
RECT
 10
39.5818
 20
7.1818
 30
0.0000
 41
0.5000
 42
0.4000
 43
1.0000
 50
45.0000
  0
INSERT
  8
31
  2
RECT
 10
40.2182
 20
7.8182
 30
0.0000
 41
0.5000
 42
0.4000
 43
1.0000
 50
45.0000
  0
INSERT
  8
31
  2
RECT
 10
40.7818
 20
19.0818
 30
0.0000
 41
0.5000
 42
0.4000
 43
1.0000
 50
45.0000
  0
INSERT
  8
31
  2
RECT
 10
41.4182
 20
19.7182
 30
0.0000
 41
0.5000
 42
0.4000
 43
1.0000
 50
45.0000
  0
INSERT
  8
31
  2
RECT
 10
12.1000
 20
24.3000
 30
0.0000
 41
1.2000
 42
1.2000
 43
1.0000
 50
270.0000
  0
INSERT
  8
31
  2
RECT
 10
12.1000
 20
21.5000
 30
0.0000
 41
1.2000
 42
1.2000
 43
1.0000
 50
270.0000
  0
INSERT
  8
31
  2
RECT
 10
28.2500
 20
16.2000
 30
0.0000
 41
0.7000
 42
0.3500
 43
1.0000
 50
270.0000
  0
INSERT
  8
31
  2
RECT
 10
27.6000
 20
16.2000
 30
0.0000
 41
0.7000
 42
0.3500
 43
1.0000
 50
270.0000
  0
INSERT
  8
31
  2
RECT
 10
26.9500
 20
16.2000
 30
0.0000
 41
0.7000
 42
0.3500
 43
1.0000
 50
270.0000
  0
INSERT
  8
31
  2
RECT
 10
26.9500
 20
14.2000
 30
0.0000
 41
0.7000
 42
0.3500
 43
1.0000
 50
270.0000
  0
INSERT
  8
31
  2
RECT
 10
27.6000
 20
14.2000
 30
0.0000
 41
0.7000
 42
0.3500
 43
1.0000
 50
270.0000
  0
INSERT
  8
31
  2
RECT
 10
28.2500
 20
14.2000
 30
0.0000
 41
0.7000
 42
0.3500
 43
1.0000
 50
270.0000
  0
INSERT
  8
31
  2
RECT
 10
19.0500
 20
34.2430
 30
0.0000
 41
0.5080
 42
1.0160
 43
1.0000
 50
180.0000
  0
INSERT
  8
31
  2
RECT
 10
18.1000
 20
34.2430
 30
0.0000
 41
0.5080
 42
1.0160
 43
1.0000
 50
180.0000
  0
INSERT
  8
31
  2
RECT
 10
17.1500
 20
34.2430
 30
0.0000
 41
0.5080
 42
1.0160
 43
1.0000
 50
180.0000
  0
INSERT
  8
31
  2
RECT
 10
17.1500
 20
31.9570
 30
0.0000
 41
0.5080
 42
1.0160
 43
1.0000
 50
180.0000
  0
INSERT
  8
31
  2
RECT
 10
18.1000
 20
31.9570
 30
0.0000
 41
0.5080
 42
1.0160
 43
1.0000
 50
180.0000
  0
INSERT
  8
31
  2
RECT
 10
19.0500
 20
31.9570
 30
0.0000
 41
0.5080
 42
1.0160
 43
1.0000
 50
180.0000
  0
INSERT
  8
31
  2
RECT
 10
43.6718
 20
9.3927
 30
0.0000
 41
0.9000
 42
0.2500
 43
1.0000
 50
135.0000
  0
INSERT
  8
31
  2
RECT
 10
44.0253
 20
9.7463
 30
0.0000
 41
0.9000
 42
0.2500
 43
1.0000
 50
135.0000
  0
INSERT
  8
31
  2
RECT
 10
44.3789
 20
10.0998
 30
0.0000
 41
0.9000
 42
0.2500
 43
1.0000
 50
135.0000
  0
INSERT
  8
31
  2
RECT
 10
44.7324
 20
10.4534
 30
0.0000
 41
0.9000
 42
0.2500
 43
1.0000
 50
135.0000
  0
INSERT
  8
31
  2
RECT
 10
45.0860
 20
10.8069
 30
0.0000
 41
0.9000
 42
0.2500
 43
1.0000
 50
135.0000
  0
INSERT
  8
31
  2
RECT
 10
45.4395
 20
11.1605
 30
0.0000
 41
0.9000
 42
0.2500
 43
1.0000
 50
135.0000
  0
INSERT
  8
31
  2
RECT
 10
45.7931
 20
11.5140
 30
0.0000
 41
0.9000
 42
0.2500
 43
1.0000
 50
135.0000
  0
INSERT
  8
31
  2
RECT
 10
46.1466
 20
11.8676
 30
0.0000
 41
0.9000
 42
0.2500
 43
1.0000
 50
135.0000
  0
INSERT
  8
31
  2
RECT
 10
46.5002
 20
12.2211
 30
0.0000
 41
0.9000
 42
0.2500
 43
1.0000
 50
135.0000
  0
INSERT
  8
31
  2
RECT
 10
46.8537
 20
12.5747
 30
0.0000
 41
0.9000
 42
0.2500
 43
1.0000
 50
135.0000
  0
INSERT
  8
31
  2
RECT
 10
47.2073
 20
12.9282
 30
0.0000
 41
0.9000
 42
0.2500
 43
1.0000
 50
135.0000
  0
INSERT
  8
31
  2
RECT
 10
47.2073
 20
14.2718
 30
0.0000
 41
0.9000
 42
0.2500
 43
1.0000
 50
225.0000
  0
INSERT
  8
31
  2
RECT
 10
46.8537
 20
14.6253
 30
0.0000
 41
0.9000
 42
0.2500
 43
1.0000
 50
225.0000
  0
INSERT
  8
31
  2
RECT
 10
46.5002
 20
14.9789
 30
0.0000
 41
0.9000
 42
0.2500
 43
1.0000
 50
225.0000
  0
INSERT
  8
31
  2
RECT
 10
46.1466
 20
15.3324
 30
0.0000
 41
0.9000
 42
0.2500
 43
1.0000
 50
225.0000
  0
INSERT
  8
31
  2
RECT
 10
45.7931
 20
15.6860
 30
0.0000
 41
0.9000
 42
0.2500
 43
1.0000
 50
225.0000
  0
INSERT
  8
31
  2
RECT
 10
45.4395
 20
16.0395
 30
0.0000
 41
0.9000
 42
0.2500
 43
1.0000
 50
225.0000
  0
INSERT
  8
31
  2
RECT
 10
45.0860
 20
16.3931
 30
0.0000
 41
0.9000
 42
0.2500
 43
1.0000
 50
225.0000
  0
INSERT
  8
31
  2
RECT
 10
44.7324
 20
16.7466
 30
0.0000
 41
0.9000
 42
0.2500
 43
1.0000
 50
225.0000
  0
INSERT
  8
31
  2
RECT
 10
44.3789
 20
17.1002
 30
0.0000
 41
0.9000
 42
0.2500
 43
1.0000
 50
225.0000
  0
INSERT
  8
31
  2
RECT
 10
44.0253
 20
17.4537
 30
0.0000
 41
0.9000
 42
0.2500
 43
1.0000
 50
225.0000
  0
INSERT
  8
31
  2
RECT
 10
43.6718
 20
17.8073
 30
0.0000
 41
0.9000
 42
0.2500
 43
1.0000
 50
225.0000
  0
INSERT
  8
31
  2
RECT
 10
42.3282
 20
17.8073
 30
0.0000
 41
0.9000
 42
0.2500
 43
1.0000
 50
315.0000
  0
INSERT
  8
31
  2
RECT
 10
41.9747
 20
17.4537
 30
0.0000
 41
0.9000
 42
0.2500
 43
1.0000
 50
315.0000
  0
INSERT
  8
31
  2
RECT
 10
41.6211
 20
17.1002
 30
0.0000
 41
0.9000
 42
0.2500
 43
1.0000
 50
315.0000
  0
INSERT
  8
31
  2
RECT
 10
41.2676
 20
16.7466
 30
0.0000
 41
0.9000
 42
0.2500
 43
1.0000
 50
315.0000
  0
INSERT
  8
31
  2
RECT
 10
40.9140
 20
16.3931
 30
0.0000
 41
0.9000
 42
0.2500
 43
1.0000
 50
315.0000
  0
INSERT
  8
31
  2
RECT
 10
40.5605
 20
16.0395
 30
0.0000
 41
0.9000
 42
0.2500
 43
1.0000
 50
315.0000
  0
INSERT
  8
31
  2
RECT
 10
40.2069
 20
15.6860
 30
0.0000
 41
0.9000
 42
0.2500
 43
1.0000
 50
315.0000
  0
INSERT
  8
31
  2
RECT
 10
39.8534
 20
15.3324
 30
0.0000
 41
0.9000
 42
0.2500
 43
1.0000
 50
315.0000
  0
INSERT
  8
31
  2
RECT
 10
39.4998
 20
14.9789
 30
0.0000
 41
0.9000
 42
0.2500
 43
1.0000
 50
315.0000
  0
INSERT
  8
31
  2
RECT
 10
39.1463
 20
14.6253
 30
0.0000
 41
0.9000
 42
0.2500
 43
1.0000
 50
315.0000
  0
INSERT
  8
31
  2
RECT
 10
38.7927
 20
14.2718
 30
0.0000
 41
0.9000
 42
0.2500
 43
1.0000
 50
315.0000
  0
INSERT
  8
31
  2
RECT
 10
38.7927
 20
12.9282
 30
0.0000
 41
0.9000
 42
0.2500
 43
1.0000
 50
45.0000
  0
INSERT
  8
31
  2
RECT
 10
39.1463
 20
12.5747
 30
0.0000
 41
0.9000
 42
0.2500
 43
1.0000
 50
45.0000
  0
INSERT
  8
31
  2
RECT
 10
39.4998
 20
12.2211
 30
0.0000
 41
0.9000
 42
0.2500
 43
1.0000
 50
45.0000
  0
INSERT
  8
31
  2
RECT
 10
39.8534
 20
11.8676
 30
0.0000
 41
0.9000
 42
0.2500
 43
1.0000
 50
45.0000
  0
INSERT
  8
31
  2
RECT
 10
40.2069
 20
11.5140
 30
0.0000
 41
0.9000
 42
0.2500
 43
1.0000
 50
45.0000
  0
INSERT
  8
31
  2
RECT
 10
40.5605
 20
11.1605
 30
0.0000
 41
0.9000
 42
0.2500
 43
1.0000
 50
45.0000
  0
INSERT
  8
31
  2
RECT
 10
40.9140
 20
10.8069
 30
0.0000
 41
0.9000
 42
0.2500
 43
1.0000
 50
45.0000
  0
INSERT
  8
31
  2
RECT
 10
41.2676
 20
10.4534
 30
0.0000
 41
0.9000
 42
0.2500
 43
1.0000
 50
45.0000
  0
INSERT
  8
31
  2
RECT
 10
41.6211
 20
10.0998
 30
0.0000
 41
0.9000
 42
0.2500
 43
1.0000
 50
45.0000
  0
INSERT
  8
31
  2
RECT
 10
41.9747
 20
9.7463
 30
0.0000
 41
0.9000
 42
0.2500
 43
1.0000
 50
45.0000
  0
INSERT
  8
31
  2
RECT
 10
42.3282
 20
9.3927
 30
0.0000
 41
0.9000
 42
0.2500
 43
1.0000
 50
45.0000
  0
INSERT
  8
31
  2
RECT
 10
43.0000
 20
13.6000
 30
0.0000
 41
4.0000
 42
4.0000
 43
1.0000
 50
135.0000
  0
INSERT
  8
31
  2
RECT
 10
15.3000
 20
22.6500
 30
0.0000
 41
0.5500
 42
1.0000
 43
1.0000
 50
270.0000
  0
INSERT
  8
31
  2
RECT
 10
15.3000
 20
21.7000
 30
0.0000
 41
0.5500
 42
1.0000
 43
1.0000
 50
270.0000
  0
INSERT
  8
31
  2
RECT
 10
15.3000
 20
20.7500
 30
0.0000
 41
0.5500
 42
1.0000
 43
1.0000
 50
270.0000
  0
INSERT
  8
31
  2
RECT
 10
17.9000
 20
20.7500
 30
0.0000
 41
0.5500
 42
1.0000
 43
1.0000
 50
270.0000
  0
INSERT
  8
31
  2
RECT
 10
17.9000
 20
22.6500
 30
0.0000
 41
0.5500
 42
1.0000
 43
1.0000
 50
270.0000
  0
INSERT
  8
31
  2
RECT
 10
19.4500
 20
27.3000
 30
0.0000
 41
2.6000
 42
1.4000
 43
1.0000
 50
270.0000
  0
INSERT
  8
31
  2
RECT
 10
13.7500
 20
27.3000
 30
0.0000
 41
2.6000
 42
1.4000
 43
1.0000
 50
270.0000
  0
INSERT
  8
31
  2
RECT
 10
57.5101
 20
13.2898
 30
0.0000
 41
1.3000
 42
0.9000
 43
1.0000
 50
240.0000
  0
INSERT
  8
31
  2
RECT
 10
60.3679
 20
11.6398
 30
0.0000
 41
1.4000
 42
0.9000
 43
1.0000
 50
240.0000
  0
INSERT
  8
31
  2
RECT
 10
62.7179
 20
15.7102
 30
0.0000
 41
1.3000
 42
0.9000
 43
1.0000
 50
240.0000
  0
INSERT
  8
31
  2
RECT
 10
59.8601
 20
17.3602
 30
0.0000
 41
1.3000
 42
0.9000
 43
1.0000
 50
240.0000
  0
INSERT
  8
31
  2
RECT
 10
37.3500
 20
56.3500
 30
0.0000
 41
1.3000
 42
0.9000
 43
1.0000
 50
0.0000
  0
INSERT
  8
31
  2
RECT
 10
37.3500
 20
59.6500
 30
0.0000
 41
1.4000
 42
0.9000
 43
1.0000
 50
0.0000
  0
INSERT
  8
31
  2
RECT
 10
32.6500
 20
59.6500
 30
0.0000
 41
1.3000
 42
0.9000
 43
1.0000
 50
0.0000
  0
INSERT
  8
31
  2
RECT
 10
32.6500
 20
56.3500
 30
0.0000
 41
1.3000
 42
0.9000
 43
1.0000
 50
0.0000
  0
INSERT
  8
31
  2
RECT
 10
10.1389
 20
17.3602
 30
0.0000
 41
1.3000
 42
0.9000
 43
1.0000
 50
120.0000
  0
INSERT
  8
31
  2
RECT
 10
7.2811
 20
15.7102
 30
0.0000
 41
1.4000
 42
0.9000
 43
1.0000
 50
120.0000
  0
INSERT
  8
31
  2
RECT
 10
9.6311
 20
11.6398
 30
0.0000
 41
1.3000
 42
0.9000
 43
1.0000
 50
120.0000
  0
INSERT
  8
31
  2
RECT
 10
12.4889
 20
13.2898
 30
0.0000
 41
1.3000
 42
0.9000
 43
1.0000
 50
120.0000
  0
INSERT
  8
31
  2
RECT
 10
55.7100
 20
30.5400
 30
0.0000
 41
0.8000
 42
1.0000
 43
1.0000
 50
0.0000
  0
INSERT
  8
31
  2
RECT
 10
57.6100
 20
30.5400
 30
0.0000
 41
0.8000
 42
1.0000
 43
1.0000
 50
0.0000
  0
INSERT
  8
31
  2
RECT
 10
56.6600
 20
32.9400
 30
0.0000
 41
0.8000
 42
1.0000
 43
1.0000
 50
0.0000
  0
INSERT
  8
31
  2
RECT
 10
18.6000
 20
18.6000
 30
0.0000
 41
0.4000
 42
0.5000
 43
1.0000
 50
0.0000
  0
INSERT
  8
31
  2
RECT
 10
19.6000
 20
18.6000
 30
0.0000
 41
0.4000
 42
0.5000
 43
1.0000
 50
0.0000
  0
INSERT
  8
31
  2
RECT
 10
27.5000
 20
12.9000
 30
0.0000
 41
0.4000
 42
0.5000
 43
1.0000
 50
180.0000
  0
INSERT
  8
31
  2
RECT
 10
26.5000
 20
12.9000
 30
0.0000
 41
0.4000
 42
0.5000
 43
1.0000
 50
180.0000
  0
INSERT
  8
31
  2
RECT
 10
27.9000
 20
17.3000
 30
0.0000
 41
0.4000
 42
0.5000
 43
1.0000
 50
180.0000
  0
INSERT
  8
31
  2
RECT
 10
26.9000
 20
17.3000
 30
0.0000
 41
0.4000
 42
0.5000
 43
1.0000
 50
180.0000
  0
INSERT
  8
31
  2
RECT
 10
29.5000
 20
13.8000
 30
0.0000
 41
0.4000
 42
0.5000
 43
1.0000
 50
270.0000
  0
INSERT
  8
31
  2
RECT
 10
29.5000
 20
12.8000
 30
0.0000
 41
0.4000
 42
0.5000
 43
1.0000
 50
270.0000
  0
INSERT
  8
31
  2
RECT
 10
37.4536
 20
10.8536
 30
0.0000
 41
0.4000
 42
0.5000
 43
1.0000
 50
225.0000
  0
INSERT
  8
31
  2
RECT
 10
36.7464
 20
10.1464
 30
0.0000
 41
0.4000
 42
0.5000
 43
1.0000
 50
225.0000
  0
INSERT
  8
31
  2
RECT
 10
16.1000
 20
16.7000
 30
0.0000
 41
0.4000
 42
0.5000
 43
1.0000
 50
180.0000
  0
INSERT
  8
31
  2
RECT
 10
15.1000
 20
16.7000
 30
0.0000
 41
0.4000
 42
0.5000
 43
1.0000
 50
180.0000
  0
INSERT
  8
31
  2
RECT
 10
15.1000
 20
17.8000
 30
0.0000
 41
0.4000
 42
0.5000
 43
1.0000
 50
180.0000
  0
INSERT
  8
31
  2
RECT
 10
14.1000
 20
17.8000
 30
0.0000
 41
0.4000
 42
0.5000
 43
1.0000
 50
180.0000
  0
INSERT
  8
31
  2
RECT
 10
49.9000
 20
21.5000
 30
0.0000
 41
1.2000
 42
1.0000
 43
1.0000
 50
180.0000
  0
INSERT
  8
31
  2
RECT
 10
47.5000
 20
21.5000
 30
0.0000
 41
1.2000
 42
1.0000
 43
1.0000
 50
180.0000
  0
INSERT
  8
31
  2
RECT
 10
47.5000
 20
19.9000
 30
0.0000
 41
1.2000
 42
1.0000
 43
1.0000
 50
180.0000
  0
INSERT
  8
31
  2
RECT
 10
49.9000
 20
19.9000
 30
0.0000
 41
1.2000
 42
1.0000
 43
1.0000
 50
180.0000
  0
ENDSEC
  0
EOF
