  0
SECTION
  2
HEADER
  9
$ACADVER
  1
AC1009
  9
$FILLMODE
 70
1
  9
$EXTMIN
 10
-0.2000
 20
-5.1250
 30
0.0000
  9
$EXTMAX
 10
70.2000
 20
67.1500
 30
0.0000
  0
ENDSEC
  0
SECTION
  2
TABLES
  0
TABLE
  2
LTYPE
 70
1
  0
LTYPE
  2
CONTINUOUS
 70
64
  3
Solid line
 72
65
 73
0
 40
0
  0
ENDTAB
  0
TABLE
  2
LAYER
 70
255
  0
LAYER
  2
20
 70
64
 62
7
  6
CONTINUOUS
  0
LAYER
  2
32
 70
64
 62
253
  6
CONTINUOUS
  0
ENDTAB
  0
ENDSEC
  0
SECTION
  2
BLOCKS
  0
BLOCK
  8
0
  2
RECT
 70
64
 10
0.0000
 20
0.0000
 30
0.0000
  3
RECT
  0
SOLID
  8
0
 10
-0.5000
 20
-0.5000
 30
0.0000
 11
0.5000
 21
-0.5000
 31
0.0000
 12
-0.5000
 22
0.5000
 32
0.0000
 13
0.5000
 23
0.5000
 33
0.0000
  0
ENDBLK
  8
0
  0
BLOCK
  8
0
  2
PIE
 70
64
 10
0.0000
 20
0.0000
 30
0.0000
  3
PIE
  0
POLYLINE
  8
0
 66
1
 10
0.0000
 20
0.0000
 30
0.0000
 40
0.5000
 41
0.5000
 70
0
  0
VERTEX
  8
0
 10
0.0000
 20
-0.2500
 30
0.0000
 42
1.0000
  0
VERTEX
  8
0
 10
0.0000
 20
0.2500
 30
0.0000
 42
1.0000
  0
VERTEX
  8
0
 10
0.0000
 20
-0.2500
 30
0.0000
  0
SEQEND
  8
0
  0
ENDBLK
  8
0
  0
BLOCK
  8
0
  2
OCTAGONP
 70
64
 10
0.0000
 20
0.0000
 30
0.0000
  3
OCTAGONP
  0
POLYLINE
  8
0
 66
1
 10
0.0000
 20
0.0000
 30
0.0000
 40
0.5000
 41
0.5000
 70
0
  0
VERTEX
  8
0
 10
-0.2500
 20
-0.1036
 30
0.0000
  0
VERTEX
  8
0
 10
-0.2500
 20
0.1036
 30
0.0000
  0
VERTEX
  8
0
 10
-0.1036
 20
0.2500
 30
0.0000
  0
VERTEX
  8
0
 10
0.1036
 20
0.2500
 30
0.0000
  0
VERTEX
  8
0
 10
0.2500
 20
0.1036
 30
0.0000
  0
VERTEX
  8
0
 10
0.2500
 20
-0.1036
 30
0.0000
  0
VERTEX
  8
0
 10
0.1036
 20
-0.2500
 30
0.0000
  0
VERTEX
  8
0
 10
-0.1036
 20
-0.2500
 30
0.0000
  0
VERTEX
  8
0
 10
-0.2500
 20
-0.1036
 30
0.0000
  0
VERTEX
  8
0
 10
-0.2500
 20
0.1036
 30
0.0000
  0
SEQEND
  8
0
  0
ENDBLK
  8
0
  0
BLOCK
  8
0
  2
SQUAREP
 70
64
 10
0.0000
 20
0.0000
 30
0.0000
  3
SQUAREP
  0
SOLID
  8
0
 10
-0.5000
 20
-0.5000
 30
0.0000
 11
0.5000
 21
-0.5000
 31
0.0000
 12
-0.5000
 22
0.5000
 32
0.0000
 13
0.5000
 23
0.5000
 33
0.0000
  0
ENDBLK
  8
0
  0
BLOCK
  8
0
  2
ROUNDP
 70
64
 10
0.0000
 20
0.0000
 30
0.0000
  3
ROUNDP
  0
POLYLINE
  8
0
 66
1
 10
0.0000
 20
0.0000
 30
0.0000
 40
0.5000
 41
0.5000
 70
0
  0
VERTEX
  8
0
 10
0.0000
 20
-0.2500
 30
0.0000
 42
1.0000
  0
VERTEX
  8
0
 10
0.0000
 20
0.2500
 30
0.0000
 42
1.0000
  0
VERTEX
  8
0
 10
0.0000
 20
-0.2500
 30
0.0000
  0
SEQEND
  8
0
  0
ENDBLK
  8
0
  0
BLOCK
  8
0
  2
ANNULUSP
 70
64
 10
0.0000
 20
0.0000
 30
0.0000
  3
ANNULUSP
  0
POLYLINE
  8
0
 66
1
 10
0.0000
 20
0.0000
 30
0.0000
 40
0.5000
 41
0.5000
 70
0
  0
VERTEX
  8
0
 10
0.0000
 20
-0.2500
 30
0.0000
 42
1.0000
  0
VERTEX
  8
0
 10
0.0000
 20
0.2500
 30
0.0000
 42
1.0000
  0
VERTEX
  8
0
 10
0.0000
 20
-0.2500
 30
0.0000
  0
SEQEND
  8
0
  0
ENDBLK
  8
0
  0
BLOCK
  8
0
  2
THERMALP
 70
64
 10
0.0000
 20
0.0000
 30
0.0000
  3
THERMALP
  0
POLYLINE
  8
0
 66
1
 10
0.0000
 20
0.0000
 30
0.0000
 40
0.1000
 41
0.1000
 70
0
  0
VERTEX
  8
0
 10
-0.2379
 20
0.4500
 30
0.0000
  0
VERTEX
  8
0
 10
0.2379
 20
0.4500
 30
0.0000
  0
SEQEND
  8
0
  0
POLYLINE
  8
0
 66
1
 10
0.0000
 20
0.0000
 30
0.0000
 40
0.0500
 41
0.0500
 70
0
  0
VERTEX
  8
0
 10
0.2379
 20
0.4250
 30
0.0000
 42
1.0000
  0
VERTEX
  8
0
 10
0.2379
 20
0.4750
 30
0.0000
  0
SEQEND
  8
0
  0
POLYLINE
  8
0
 66
1
 10
0.0000
 20
0.0000
 30
0.0000
 40
0.0500
 41
0.0500
 70
0
  0
VERTEX
  8
0
 10
-0.2379
 20
0.4750
 30
0.0000
 42
1.0000
  0
VERTEX
  8
0
 10
-0.2379
 20
0.4250
 30
0.0000
  0
SEQEND
  8
0
  0
POLYLINE
  8
0
 66
1
 10
0.0000
 20
0.0000
 30
0.0000
 40
0.1000
 41
0.1000
 70
0
  0
VERTEX
  8
0
 10
0.4500
 20
0.2379
 30
0.0000
  0
VERTEX
  8
0
 10
0.4500
 20
-0.2379
 30
0.0000
  0
SEQEND
  8
0
  0
POLYLINE
  8
0
 66
1
 10
0.0000
 20
0.0000
 30
0.0000
 40
0.0500
 41
0.0500
 70
0
  0
VERTEX
  8
0
 10
0.4250
 20
-0.2379
 30
0.0000
 42
1.0000
  0
VERTEX
  8
0
 10
0.4750
 20
-0.2379
 30
0.0000
  0
SEQEND
  8
0
  0
POLYLINE
  8
0
 66
1
 10
0.0000
 20
0.0000
 30
0.0000
 40
0.0500
 41
0.0500
 70
0
  0
VERTEX
  8
0
 10
0.4750
 20
0.2379
 30
0.0000
 42
1.0000
  0
VERTEX
  8
0
 10
0.4250
 20
0.2379
 30
0.0000
  0
SEQEND
  8
0
  0
POLYLINE
  8
0
 66
1
 10
0.0000
 20
0.0000
 30
0.0000
 40
0.1000
 41
0.1000
 70
0
  0
VERTEX
  8
0
 10
0.2379
 20
-0.4500
 30
0.0000
  0
VERTEX
  8
0
 10
-0.2379
 20
-0.4500
 30
0.0000
  0
SEQEND
  8
0
  0
POLYLINE
  8
0
 66
1
 10
0.0000
 20
0.0000
 30
0.0000
 40
0.0500
 41
0.0500
 70
0
  0
VERTEX
  8
0
 10
-0.2379
 20
-0.4250
 30
0.0000
 42
1.0000
  0
VERTEX
  8
0
 10
-0.2379
 20
-0.4750
 30
0.0000
  0
SEQEND
  8
0
  0
POLYLINE
  8
0
 66
1
 10
0.0000
 20
0.0000
 30
0.0000
 40
0.0500
 41
0.0500
 70
0
  0
VERTEX
  8
0
 10
0.2379
 20
-0.4750
 30
0.0000
 42
1.0000
  0
VERTEX
  8
0
 10
0.2379
 20
-0.4250
 30
0.0000
  0
SEQEND
  8
0
  0
POLYLINE
  8
0
 66
1
 10
0.0000
 20
0.0000
 30
0.0000
 40
0.1000
 41
0.1000
 70
0
  0
VERTEX
  8
0
 10
-0.4500
 20
-0.2379
 30
0.0000
  0
VERTEX
  8
0
 10
-0.4500
 20
0.2379
 30
0.0000
  0
SEQEND
  8
0
  0
POLYLINE
  8
0
 66
1
 10
0.0000
 20
0.0000
 30
0.0000
 40
0.0500
 41
0.0500
 70
0
  0
VERTEX
  8
0
 10
-0.4250
 20
0.2379
 30
0.0000
 42
1.0000
  0
VERTEX
  8
0
 10
-0.4750
 20
0.2379
 30
0.0000
  0
SEQEND
  8
0
  0
POLYLINE
  8
0
 66
1
 10
0.0000
 20
0.0000
 30
0.0000
 40
0.0500
 41
0.0500
 70
0
  0
VERTEX
  8
0
 10
-0.4750
 20
-0.2379
 30
0.0000
 42
1.0000
  0
VERTEX
  8
0
 10
-0.4250
 20
-0.2379
 30
0.0000
  0
SEQEND
  8
0
  0
ENDBLK
  8
0
  0
BLOCK
  8
0
  2
OCTAGONV
 70
64
 10
0.0000
 20
0.0000
 30
0.0000
  3
OCTAGONV
  0
POLYLINE
  8
0
 66
1
 10
0.0000
 20
0.0000
 30
0.0000
 40
0.5000
 41
0.5000
 70
0
  0
VERTEX
  8
0
 10
-0.2500
 20
-0.1036
 30
0.0000
  0
VERTEX
  8
0
 10
-0.2500
 20
0.1036
 30
0.0000
  0
VERTEX
  8
0
 10
-0.1036
 20
0.2500
 30
0.0000
  0
VERTEX
  8
0
 10
0.1036
 20
0.2500
 30
0.0000
  0
VERTEX
  8
0
 10
0.2500
 20
0.1036
 30
0.0000
  0
VERTEX
  8
0
 10
0.2500
 20
-0.1036
 30
0.0000
  0
VERTEX
  8
0
 10
0.1036
 20
-0.2500
 30
0.0000
  0
VERTEX
  8
0
 10
-0.1036
 20
-0.2500
 30
0.0000
  0
VERTEX
  8
0
 10
-0.2500
 20
-0.1036
 30
0.0000
  0
VERTEX
  8
0
 10
-0.2500
 20
0.1036
 30
0.0000
  0
SEQEND
  8
0
  0
ENDBLK
  8
0
  0
BLOCK
  8
0
  2
SQUAREV
 70
64
 10
0.0000
 20
0.0000
 30
0.0000
  3
SQUAREV
  0
SOLID
  8
0
 10
-0.5000
 20
-0.5000
 30
0.0000
 11
0.5000
 21
-0.5000
 31
0.0000
 12
-0.5000
 22
0.5000
 32
0.0000
 13
0.5000
 23
0.5000
 33
0.0000
  0
ENDBLK
  8
0
  0
BLOCK
  8
0
  2
ROUNDV
 70
64
 10
0.0000
 20
0.0000
 30
0.0000
  3
ROUNDV
  0
POLYLINE
  8
0
 66
1
 10
0.0000
 20
0.0000
 30
0.0000
 40
0.5000
 41
0.5000
 70
0
  0
VERTEX
  8
0
 10
0.0000
 20
-0.2500
 30
0.0000
 42
1.0000
  0
VERTEX
  8
0
 10
0.0000
 20
0.2500
 30
0.0000
 42
1.0000
  0
VERTEX
  8
0
 10
0.0000
 20
-0.2500
 30
0.0000
  0
SEQEND
  8
0
  0
ENDBLK
  8
0
  0
BLOCK
  8
0
  2
ANNULUSV
 70
64
 10
0.0000
 20
0.0000
 30
0.0000
  3
ANNULUSV
  0
POLYLINE
  8
0
 66
1
 10
0.0000
 20
0.0000
 30
0.0000
 40
0.5000
 41
0.5000
 70
0
  0
VERTEX
  8
0
 10
0.0000
 20
-0.2500
 30
0.0000
 42
1.0000
  0
VERTEX
  8
0
 10
0.0000
 20
0.2500
 30
0.0000
 42
1.0000
  0
VERTEX
  8
0
 10
0.0000
 20
-0.2500
 30
0.0000
  0
SEQEND
  8
0
  0
ENDBLK
  8
0
  0
BLOCK
  8
0
  2
THERMALV
 70
64
 10
0.0000
 20
0.0000
 30
0.0000
  3
THERMALV
  0
POLYLINE
  8
0
 66
1
 10
0.0000
 20
0.0000
 30
0.0000
 40
0.1000
 41
0.1000
 70
0
  0
VERTEX
  8
0
 10
-0.2379
 20
0.4500
 30
0.0000
  0
VERTEX
  8
0
 10
0.2379
 20
0.4500
 30
0.0000
  0
SEQEND
  8
0
  0
POLYLINE
  8
0
 66
1
 10
0.0000
 20
0.0000
 30
0.0000
 40
0.0500
 41
0.0500
 70
0
  0
VERTEX
  8
0
 10
0.2379
 20
0.4250
 30
0.0000
 42
1.0000
  0
VERTEX
  8
0
 10
0.2379
 20
0.4750
 30
0.0000
  0
SEQEND
  8
0
  0
POLYLINE
  8
0
 66
1
 10
0.0000
 20
0.0000
 30
0.0000
 40
0.0500
 41
0.0500
 70
0
  0
VERTEX
  8
0
 10
-0.2379
 20
0.4750
 30
0.0000
 42
1.0000
  0
VERTEX
  8
0
 10
-0.2379
 20
0.4250
 30
0.0000
  0
SEQEND
  8
0
  0
POLYLINE
  8
0
 66
1
 10
0.0000
 20
0.0000
 30
0.0000
 40
0.1000
 41
0.1000
 70
0
  0
VERTEX
  8
0
 10
0.4500
 20
0.2379
 30
0.0000
  0
VERTEX
  8
0
 10
0.4500
 20
-0.2379
 30
0.0000
  0
SEQEND
  8
0
  0
POLYLINE
  8
0
 66
1
 10
0.0000
 20
0.0000
 30
0.0000
 40
0.0500
 41
0.0500
 70
0
  0
VERTEX
  8
0
 10
0.4250
 20
-0.2379
 30
0.0000
 42
1.0000
  0
VERTEX
  8
0
 10
0.4750
 20
-0.2379
 30
0.0000
  0
SEQEND
  8
0
  0
POLYLINE
  8
0
 66
1
 10
0.0000
 20
0.0000
 30
0.0000
 40
0.0500
 41
0.0500
 70
0
  0
VERTEX
  8
0
 10
0.4750
 20
0.2379
 30
0.0000
 42
1.0000
  0
VERTEX
  8
0
 10
0.4250
 20
0.2379
 30
0.0000
  0
SEQEND
  8
0
  0
POLYLINE
  8
0
 66
1
 10
0.0000
 20
0.0000
 30
0.0000
 40
0.1000
 41
0.1000
 70
0
  0
VERTEX
  8
0
 10
0.2379
 20
-0.4500
 30
0.0000
  0
VERTEX
  8
0
 10
-0.2379
 20
-0.4500
 30
0.0000
  0
SEQEND
  8
0
  0
POLYLINE
  8
0
 66
1
 10
0.0000
 20
0.0000
 30
0.0000
 40
0.0500
 41
0.0500
 70
0
  0
VERTEX
  8
0
 10
-0.2379
 20
-0.4250
 30
0.0000
 42
1.0000
  0
VERTEX
  8
0
 10
-0.2379
 20
-0.4750
 30
0.0000
  0
SEQEND
  8
0
  0
POLYLINE
  8
0
 66
1
 10
0.0000
 20
0.0000
 30
0.0000
 40
0.0500
 41
0.0500
 70
0
  0
VERTEX
  8
0
 10
0.2379
 20
-0.4750
 30
0.0000
 42
1.0000
  0
VERTEX
  8
0
 10
0.2379
 20
-0.4250
 30
0.0000
  0
SEQEND
  8
0
  0
POLYLINE
  8
0
 66
1
 10
0.0000
 20
0.0000
 30
0.0000
 40
0.1000
 41
0.1000
 70
0
  0
VERTEX
  8
0
 10
-0.4500
 20
-0.2379
 30
0.0000
  0
VERTEX
  8
0
 10
-0.4500
 20
0.2379
 30
0.0000
  0
SEQEND
  8
0
  0
POLYLINE
  8
0
 66
1
 10
0.0000
 20
0.0000
 30
0.0000
 40
0.0500
 41
0.0500
 70
0
  0
VERTEX
  8
0
 10
-0.4250
 20
0.2379
 30
0.0000
 42
1.0000
  0
VERTEX
  8
0
 10
-0.4750
 20
0.2379
 30
0.0000
  0
SEQEND
  8
0
  0
POLYLINE
  8
0
 66
1
 10
0.0000
 20
0.0000
 30
0.0000
 40
0.0500
 41
0.0500
 70
0
  0
VERTEX
  8
0
 10
-0.4750
 20
-0.2379
 30
0.0000
 42
1.0000
  0
VERTEX
  8
0
 10
-0.4250
 20
-0.2379
 30
0.0000
  0
SEQEND
  8
0
  0
ENDBLK
  8
0
  0
ENDSEC
  0
SECTION
  2
ENTITIES
  0
POLYLINE
  8
20
 66
1
 10
0.0000
 20
0.0000
 30
0.0000
 40
0.4000
 41
0.4000
 70
0
  0
VERTEX
  8
20
 10
5.1769
 20
17.5552
 30
0.0000
 42
0.4142
  0
VERTEX
  8
20
 10
4.8109
 20
16.1891
 30
0.0000
  0
SEQEND
  8
0
  0
POLYLINE
  8
20
 66
1
 10
0.0000
 20
0.0000
 30
0.0000
 40
0.2000
 41
0.2000
 70
0
  0
VERTEX
  8
20
 10
5.2269
 20
17.4685
 30
0.0000
 42
1.0000
  0
VERTEX
  8
20
 10
5.1269
 20
17.6418
 30
0.0000
  0
SEQEND
  8
0
  0
POLYLINE
  8
20
 66
1
 10
0.0000
 20
0.0000
 30
0.0000
 40
0.2000
 41
0.2000
 70
0
  0
VERTEX
  8
20
 10
4.7243
 20
16.1391
 30
0.0000
 42
1.0000
  0
VERTEX
  8
20
 10
4.8975
 20
16.2391
 30
0.0000
  0
SEQEND
  8
0
  0
POLYLINE
  8
20
 66
1
 10
0.0000
 20
0.0000
 30
0.0000
 40
0.4000
 41
0.4000
 70
0
  0
VERTEX
  8
20
 10
5.1769
 20
17.5552
 30
0.0000
  0
VERTEX
  8
20
 10
6.5626
 20
18.3552
 30
0.0000
  0
SEQEND
  8
0
  0
POLYLINE
  8
20
 66
1
 10
0.0000
 20
0.0000
 30
0.0000
 40
0.2000
 41
0.2000
 70
0
  0
VERTEX
  8
20
 10
6.6126
 20
18.2685
 30
0.0000
 42
1.0000
  0
VERTEX
  8
20
 10
6.5126
 20
18.4418
 30
0.0000
  0
SEQEND
  8
0
  0
POLYLINE
  8
20
 66
1
 10
0.0000
 20
0.0000
 30
0.0000
 40
0.2000
 41
0.2000
 70
0
  0
VERTEX
  8
20
 10
5.1269
 20
17.6418
 30
0.0000
 42
1.0000
  0
VERTEX
  8
20
 10
5.2269
 20
17.4685
 30
0.0000
  0
SEQEND
  8
0
  0
POLYLINE
  8
20
 66
1
 10
0.0000
 20
0.0000
 30
0.0000
 40
0.4000
 41
0.4000
 70
0
  0
VERTEX
  8
20
 10
6.5626
 20
18.3552
 30
0.0000
 42
0.3397
  0
VERTEX
  8
20
 10
7.9598
 20
21.7319
 30
0.0000
  0
SEQEND
  8
0
  0
POLYLINE
  8
20
 66
1
 10
0.0000
 20
0.0000
 30
0.0000
 40
0.2000
 41
0.2000
 70
0
  0
VERTEX
  8
20
 10
6.5126
 20
18.4418
 30
0.0000
 42
1.0000
  0
VERTEX
  8
20
 10
6.6126
 20
18.2685
 30
0.0000
  0
SEQEND
  8
0
  0
POLYLINE
  8
20
 66
1
 10
0.0000
 20
0.0000
 30
0.0000
 40
0.2000
 41
0.2000
 70
0
  0
VERTEX
  8
20
 10
8.0563
 20
21.7579
 30
0.0000
 42
1.0000
  0
VERTEX
  8
20
 10
7.8632
 20
21.7060
 30
0.0000
  0
SEQEND
  8
0
  0
POLYLINE
  8
20
 66
1
 10
0.0000
 20
0.0000
 30
0.0000
 40
0.4000
 41
0.4000
 70
0
  0
VERTEX
  8
20
 10
27.7742
 20
56.0516
 30
0.0000
 42
0.4147
  0
VERTEX
  8
20
 10
7.9597
 20
21.7319
 30
0.0000
  0
SEQEND
  8
0
  0
POLYLINE
  8
20
 66
1
 10
0.0000
 20
0.0000
 30
0.0000
 40
0.2000
 41
0.2000
 70
0
  0
VERTEX
  8
20
 10
27.8000
 20
55.9550
 30
0.0000
 42
1.0000
  0
VERTEX
  8
20
 10
27.7484
 20
56.1482
 30
0.0000
  0
SEQEND
  8
0
  0
POLYLINE
  8
20
 66
1
 10
0.0000
 20
0.0000
 30
0.0000
 40
0.2000
 41
0.2000
 70
0
  0
VERTEX
  8
20
 10
7.8632
 20
21.7060
 30
0.0000
 42
1.0000
  0
VERTEX
  8
20
 10
8.0563
 20
21.7579
 30
0.0000
  0
SEQEND
  8
0
  0
POLYLINE
  8
20
 66
1
 10
0.0000
 20
0.0000
 30
0.0000
 40
0.4000
 41
0.4000
 70
0
  0
VERTEX
  8
20
 10
27.7742
 20
56.0516
 30
0.0000
 42
0.3397
  0
VERTEX
  8
20
 10
30.0000
 20
58.9500
 30
0.0000
  0
SEQEND
  8
0
  0
POLYLINE
  8
20
 66
1
 10
0.0000
 20
0.0000
 30
0.0000
 40
0.2000
 41
0.2000
 70
0
  0
VERTEX
  8
20
 10
27.7484
 20
56.1482
 30
0.0000
 42
1.0000
  0
VERTEX
  8
20
 10
27.8000
 20
55.9550
 30
0.0000
  0
SEQEND
  8
0
  0
POLYLINE
  8
20
 66
1
 10
0.0000
 20
0.0000
 30
0.0000
 40
0.2000
 41
0.2000
 70
0
  0
VERTEX
  8
20
 10
30.1000
 20
58.9500
 30
0.0000
 42
1.0000
  0
VERTEX
  8
20
 10
29.9000
 20
58.9500
 30
0.0000
  0
SEQEND
  8
0
  0
POLYLINE
  8
20
 66
1
 10
0.0000
 20
0.0000
 30
0.0000
 40
0.4000
 41
0.4000
 70
0
  0
VERTEX
  8
20
 10
30.0000
 20
58.9500
 30
0.0000
  0
VERTEX
  8
20
 10
30.0000
 20
60.5500
 30
0.0000
  0
SEQEND
  8
0
  0
POLYLINE
  8
20
 66
1
 10
0.0000
 20
0.0000
 30
0.0000
 40
0.2000
 41
0.2000
 70
0
  0
VERTEX
  8
20
 10
30.1000
 20
60.5500
 30
0.0000
 42
1.0000
  0
VERTEX
  8
20
 10
29.9000
 20
60.5500
 30
0.0000
  0
SEQEND
  8
0
  0
POLYLINE
  8
20
 66
1
 10
0.0000
 20
0.0000
 30
0.0000
 40
0.2000
 41
0.2000
 70
0
  0
VERTEX
  8
20
 10
29.9000
 20
58.9500
 30
0.0000
 42
1.0000
  0
VERTEX
  8
20
 10
30.1000
 20
58.9500
 30
0.0000
  0
SEQEND
  8
0
  0
POLYLINE
  8
20
 66
1
 10
0.0000
 20
0.0000
 30
0.0000
 40
0.4000
 41
0.4000
 70
0
  0
VERTEX
  8
20
 10
31.0000
 20
61.5500
 30
0.0000
 42
0.4142
  0
VERTEX
  8
20
 10
30.0000
 20
60.5500
 30
0.0000
  0
SEQEND
  8
0
  0
POLYLINE
  8
20
 66
1
 10
0.0000
 20
0.0000
 30
0.0000
 40
0.2000
 41
0.2000
 70
0
  0
VERTEX
  8
20
 10
31.0000
 20
61.4500
 30
0.0000
 42
1.0000
  0
VERTEX
  8
20
 10
31.0000
 20
61.6500
 30
0.0000
  0
SEQEND
  8
0
  0
POLYLINE
  8
20
 66
1
 10
0.0000
 20
0.0000
 30
0.0000
 40
0.2000
 41
0.2000
 70
0
  0
VERTEX
  8
20
 10
29.9000
 20
60.5500
 30
0.0000
 42
1.0000
  0
VERTEX
  8
20
 10
30.1000
 20
60.5500
 30
0.0000
  0
SEQEND
  8
0
  0
POLYLINE
  8
20
 66
1
 10
0.0000
 20
0.0000
 30
0.0000
 40
0.4000
 41
0.4000
 70
0
  0
VERTEX
  8
20
 10
31.0000
 20
61.5500
 30
0.0000
  0
VERTEX
  8
20
 10
39.0000
 20
61.5500
 30
0.0000
  0
SEQEND
  8
0
  0
POLYLINE
  8
20
 66
1
 10
0.0000
 20
0.0000
 30
0.0000
 40
0.2000
 41
0.2000
 70
0
  0
VERTEX
  8
20
 10
39.0000
 20
61.4500
 30
0.0000
 42
1.0000
  0
VERTEX
  8
20
 10
39.0000
 20
61.6500
 30
0.0000
  0
SEQEND
  8
0
  0
POLYLINE
  8
20
 66
1
 10
0.0000
 20
0.0000
 30
0.0000
 40
0.2000
 41
0.2000
 70
0
  0
VERTEX
  8
20
 10
31.0000
 20
61.6500
 30
0.0000
 42
1.0000
  0
VERTEX
  8
20
 10
31.0000
 20
61.4500
 30
0.0000
  0
SEQEND
  8
0
  0
POLYLINE
  8
20
 66
1
 10
0.0000
 20
0.0000
 30
0.0000
 40
0.4000
 41
0.4000
 70
0
  0
VERTEX
  8
20
 10
40.0000
 20
60.5500
 30
0.0000
 42
0.4142
  0
VERTEX
  8
20
 10
39.0000
 20
61.5500
 30
0.0000
  0
SEQEND
  8
0
  0
POLYLINE
  8
20
 66
1
 10
0.0000
 20
0.0000
 30
0.0000
 40
0.2000
 41
0.2000
 70
0
  0
VERTEX
  8
20
 10
39.9000
 20
60.5500
 30
0.0000
 42
1.0000
  0
VERTEX
  8
20
 10
40.1000
 20
60.5500
 30
0.0000
  0
SEQEND
  8
0
  0
POLYLINE
  8
20
 66
1
 10
0.0000
 20
0.0000
 30
0.0000
 40
0.2000
 41
0.2000
 70
0
  0
VERTEX
  8
20
 10
39.0000
 20
61.6500
 30
0.0000
 42
1.0000
  0
VERTEX
  8
20
 10
39.0000
 20
61.4500
 30
0.0000
  0
SEQEND
  8
0
  0
POLYLINE
  8
20
 66
1
 10
0.0000
 20
0.0000
 30
0.0000
 40
0.4000
 41
0.4000
 70
0
  0
VERTEX
  8
20
 10
40.0000
 20
60.5500
 30
0.0000
  0
VERTEX
  8
20
 10
40.0000
 20
58.9500
 30
0.0000
  0
SEQEND
  8
0
  0
POLYLINE
  8
20
 66
1
 10
0.0000
 20
0.0000
 30
0.0000
 40
0.2000
 41
0.2000
 70
0
  0
VERTEX
  8
20
 10
39.9000
 20
58.9500
 30
0.0000
 42
1.0000
  0
VERTEX
  8
20
 10
40.1000
 20
58.9500
 30
0.0000
  0
SEQEND
  8
0
  0
POLYLINE
  8
20
 66
1
 10
0.0000
 20
0.0000
 30
0.0000
 40
0.2000
 41
0.2000
 70
0
  0
VERTEX
  8
20
 10
40.1000
 20
60.5500
 30
0.0000
 42
1.0000
  0
VERTEX
  8
20
 10
39.9000
 20
60.5500
 30
0.0000
  0
SEQEND
  8
0
  0
POLYLINE
  8
20
 66
1
 10
0.0000
 20
0.0000
 30
0.0000
 40
0.4000
 41
0.4000
 70
0
  0
VERTEX
  8
20
 10
40.0000
 20
58.9500
 30
0.0000
 42
0.3397
  0
VERTEX
  8
20
 10
42.2258
 20
56.0516
 30
0.0000
  0
SEQEND
  8
0
  0
POLYLINE
  8
20
 66
1
 10
0.0000
 20
0.0000
 30
0.0000
 40
0.2000
 41
0.2000
 70
0
  0
VERTEX
  8
20
 10
40.1000
 20
58.9500
 30
0.0000
 42
1.0000
  0
VERTEX
  8
20
 10
39.9000
 20
58.9500
 30
0.0000
  0
SEQEND
  8
0
  0
POLYLINE
  8
20
 66
1
 10
0.0000
 20
0.0000
 30
0.0000
 40
0.2000
 41
0.2000
 70
0
  0
VERTEX
  8
20
 10
42.2000
 20
55.9550
 30
0.0000
 42
1.0000
  0
VERTEX
  8
20
 10
42.2516
 20
56.1482
 30
0.0000
  0
SEQEND
  8
0
  0
POLYLINE
  8
20
 66
1
 10
0.0000
 20
0.0000
 30
0.0000
 40
0.4000
 41
0.4000
 70
0
  0
VERTEX
  8
20
 10
62.0403
 20
21.7319
 30
0.0000
 42
0.4147
  0
VERTEX
  8
20
 10
42.2258
 20
56.0516
 30
0.0000
  0
SEQEND
  8
0
  0
POLYLINE
  8
20
 66
1
 10
0.0000
 20
0.0000
 30
0.0000
 40
0.2000
 41
0.2000
 70
0
  0
VERTEX
  8
20
 10
61.9437
 20
21.7579
 30
0.0000
 42
1.0000
  0
VERTEX
  8
20
 10
62.1368
 20
21.7060
 30
0.0000
  0
SEQEND
  8
0
  0
POLYLINE
  8
20
 66
1
 10
0.0000
 20
0.0000
 30
0.0000
 40
0.2000
 41
0.2000
 70
0
  0
VERTEX
  8
20
 10
42.2516
 20
56.1482
 30
0.0000
 42
1.0000
  0
VERTEX
  8
20
 10
42.2000
 20
55.9550
 30
0.0000
  0
SEQEND
  8
0
  0
POLYLINE
  8
20
 66
1
 10
0.0000
 20
0.0000
 30
0.0000
 40
0.4000
 41
0.4000
 70
0
  0
VERTEX
  8
20
 10
62.0403
 20
21.7319
 30
0.0000
 42
0.3397
  0
VERTEX
  8
20
 10
63.4374
 20
18.3551
 30
0.0000
  0
SEQEND
  8
0
  0
POLYLINE
  8
20
 66
1
 10
0.0000
 20
0.0000
 30
0.0000
 40
0.2000
 41
0.2000
 70
0
  0
VERTEX
  8
20
 10
62.1368
 20
21.7060
 30
0.0000
 42
1.0000
  0
VERTEX
  8
20
 10
61.9437
 20
21.7579
 30
0.0000
  0
SEQEND
  8
0
  0
POLYLINE
  8
20
 66
1
 10
0.0000
 20
0.0000
 30
0.0000
 40
0.2000
 41
0.2000
 70
0
  0
VERTEX
  8
20
 10
63.3874
 20
18.2685
 30
0.0000
 42
1.0000
  0
VERTEX
  8
20
 10
63.4874
 20
18.4417
 30
0.0000
  0
SEQEND
  8
0
  0
POLYLINE
  8
20
 66
1
 10
0.0000
 20
0.0000
 30
0.0000
 40
0.4000
 41
0.4000
 70
0
  0
VERTEX
  8
20
 10
63.4374
 20
18.3552
 30
0.0000
  0
VERTEX
  8
20
 10
64.8231
 20
17.5552
 30
0.0000
  0
SEQEND
  8
0
  0
POLYLINE
  8
20
 66
1
 10
0.0000
 20
0.0000
 30
0.0000
 40
0.2000
 41
0.2000
 70
0
  0
VERTEX
  8
20
 10
64.7731
 20
17.4685
 30
0.0000
 42
1.0000
  0
VERTEX
  8
20
 10
64.8731
 20
17.6418
 30
0.0000
  0
SEQEND
  8
0
  0
POLYLINE
  8
20
 66
1
 10
0.0000
 20
0.0000
 30
0.0000
 40
0.2000
 41
0.2000
 70
0
  0
VERTEX
  8
20
 10
63.4874
 20
18.4418
 30
0.0000
 42
1.0000
  0
VERTEX
  8
20
 10
63.3874
 20
18.2685
 30
0.0000
  0
SEQEND
  8
0
  0
POLYLINE
  8
20
 66
1
 10
0.0000
 20
0.0000
 30
0.0000
 40
0.4000
 41
0.4000
 70
0
  0
VERTEX
  8
20
 10
65.1891
 20
16.1891
 30
0.0000
 42
0.4142
  0
VERTEX
  8
20
 10
64.8231
 20
17.5551
 30
0.0000
  0
SEQEND
  8
0
  0
POLYLINE
  8
20
 66
1
 10
0.0000
 20
0.0000
 30
0.0000
 40
0.2000
 41
0.2000
 70
0
  0
VERTEX
  8
20
 10
65.1025
 20
16.2391
 30
0.0000
 42
1.0000
  0
VERTEX
  8
20
 10
65.2757
 20
16.1391
 30
0.0000
  0
SEQEND
  8
0
  0
POLYLINE
  8
20
 66
1
 10
0.0000
 20
0.0000
 30
0.0000
 40
0.2000
 41
0.2000
 70
0
  0
VERTEX
  8
20
 10
64.8731
 20
17.6417
 30
0.0000
 42
1.0000
  0
VERTEX
  8
20
 10
64.7731
 20
17.4685
 30
0.0000
  0
SEQEND
  8
0
  0
POLYLINE
  8
20
 66
1
 10
0.0000
 20
0.0000
 30
0.0000
 40
0.4000
 41
0.4000
 70
0
  0
VERTEX
  8
20
 10
65.1891
 20
16.1891
 30
0.0000
  0
VERTEX
  8
20
 10
61.1891
 20
9.2609
 30
0.0000
  0
SEQEND
  8
0
  0
POLYLINE
  8
20
 66
1
 10
0.0000
 20
0.0000
 30
0.0000
 40
0.2000
 41
0.2000
 70
0
  0
VERTEX
  8
20
 10
61.1025
 20
9.3109
 30
0.0000
 42
1.0000
  0
VERTEX
  8
20
 10
61.2757
 20
9.2109
 30
0.0000
  0
SEQEND
  8
0
  0
POLYLINE
  8
20
 66
1
 10
0.0000
 20
0.0000
 30
0.0000
 40
0.2000
 41
0.2000
 70
0
  0
VERTEX
  8
20
 10
65.2757
 20
16.1391
 30
0.0000
 42
1.0000
  0
VERTEX
  8
20
 10
65.1025
 20
16.2391
 30
0.0000
  0
SEQEND
  8
0
  0
POLYLINE
  8
20
 66
1
 10
0.0000
 20
0.0000
 30
0.0000
 40
0.4000
 41
0.4000
 70
0
  0
VERTEX
  8
20
 10
59.8231
 20
8.8949
 30
0.0000
 42
0.4142
  0
VERTEX
  8
20
 10
61.1891
 20
9.2609
 30
0.0000
  0
SEQEND
  8
0
  0
POLYLINE
  8
20
 66
1
 10
0.0000
 20
0.0000
 30
0.0000
 40
0.2000
 41
0.2000
 70
0
  0
VERTEX
  8
20
 10
59.8731
 20
8.9815
 30
0.0000
 42
1.0000
  0
VERTEX
  8
20
 10
59.7731
 20
8.8083
 30
0.0000
  0
SEQEND
  8
0
  0
POLYLINE
  8
20
 66
1
 10
0.0000
 20
0.0000
 30
0.0000
 40
0.2000
 41
0.2000
 70
0
  0
VERTEX
  8
20
 10
61.2757
 20
9.2109
 30
0.0000
 42
1.0000
  0
VERTEX
  8
20
 10
61.1025
 20
9.3109
 30
0.0000
  0
SEQEND
  8
0
  0
POLYLINE
  8
20
 66
1
 10
0.0000
 20
0.0000
 30
0.0000
 40
0.4000
 41
0.4000
 70
0
  0
VERTEX
  8
20
 10
59.8231
 20
8.8949
 30
0.0000
  0
VERTEX
  8
20
 10
58.4374
 20
9.6949
 30
0.0000
  0
SEQEND
  8
0
  0
POLYLINE
  8
20
 66
1
 10
0.0000
 20
0.0000
 30
0.0000
 40
0.2000
 41
0.2000
 70
0
  0
VERTEX
  8
20
 10
58.4874
 20
9.7815
 30
0.0000
 42
1.0000
  0
VERTEX
  8
20
 10
58.3874
 20
9.6083
 30
0.0000
  0
SEQEND
  8
0
  0
POLYLINE
  8
20
 66
1
 10
0.0000
 20
0.0000
 30
0.0000
 40
0.2000
 41
0.2000
 70
0
  0
VERTEX
  8
20
 10
59.7731
 20
8.8083
 30
0.0000
 42
1.0000
  0
VERTEX
  8
20
 10
59.8731
 20
8.9815
 30
0.0000
  0
SEQEND
  8
0
  0
POLYLINE
  8
20
 66
1
 10
0.0000
 20
0.0000
 30
0.0000
 40
0.4000
 41
0.4000
 70
0
  0
VERTEX
  8
20
 10
58.4374
 20
9.6949
 30
0.0000
 42
0.3397
  0
VERTEX
  8
20
 10
54.8144
 20
9.2165
 30
0.0000
  0
SEQEND
  8
0
  0
POLYLINE
  8
20
 66
1
 10
0.0000
 20
0.0000
 30
0.0000
 40
0.2000
 41
0.2000
 70
0
  0
VERTEX
  8
20
 10
58.3874
 20
9.6083
 30
0.0000
 42
1.0000
  0
VERTEX
  8
20
 10
58.4874
 20
9.7815
 30
0.0000
  0
SEQEND
  8
0
  0
POLYLINE
  8
20
 66
1
 10
0.0000
 20
0.0000
 30
0.0000
 40
0.2000
 41
0.2000
 70
0
  0
VERTEX
  8
20
 10
54.7437
 20
9.2871
 30
0.0000
 42
1.0000
  0
VERTEX
  8
20
 10
54.8852
 20
9.1458
 30
0.0000
  0
SEQEND
  8
0
  0
POLYLINE
  8
20
 66
1
 10
0.0000
 20
0.0000
 30
0.0000
 40
0.4000
 41
0.4000
 70
0
  0
VERTEX
  8
20
 10
15.1856
 20
9.2165
 30
0.0000
 42
0.4147
  0
VERTEX
  8
20
 10
54.8145
 20
9.2165
 30
0.0000
  0
SEQEND
  8
0
  0
POLYLINE
  8
20
 66
1
 10
0.0000
 20
0.0000
 30
0.0000
 40
0.2000
 41
0.2000
 70
0
  0
VERTEX
  8
20
 10
15.2563
 20
9.2871
 30
0.0000
 42
1.0000
  0
VERTEX
  8
20
 10
15.1148
 20
9.1458
 30
0.0000
  0
SEQEND
  8
0
  0
POLYLINE
  8
20
 66
1
 10
0.0000
 20
0.0000
 30
0.0000
 40
0.2000
 41
0.2000
 70
0
  0
VERTEX
  8
20
 10
54.8852
 20
9.1458
 30
0.0000
 42
1.0000
  0
VERTEX
  8
20
 10
54.7437
 20
9.2871
 30
0.0000
  0
SEQEND
  8
0
  0
POLYLINE
  8
20
 66
1
 10
0.0000
 20
0.0000
 30
0.0000
 40
0.4000
 41
0.4000
 70
0
  0
VERTEX
  8
20
 10
15.1856
 20
9.2165
 30
0.0000
 42
0.3397
  0
VERTEX
  8
20
 10
11.5626
 20
9.6949
 30
0.0000
  0
SEQEND
  8
0
  0
POLYLINE
  8
20
 66
1
 10
0.0000
 20
0.0000
 30
0.0000
 40
0.2000
 41
0.2000
 70
0
  0
VERTEX
  8
20
 10
15.1148
 20
9.1458
 30
0.0000
 42
1.0000
  0
VERTEX
  8
20
 10
15.2563
 20
9.2871
 30
0.0000
  0
SEQEND
  8
0
  0
POLYLINE
  8
20
 66
1
 10
0.0000
 20
0.0000
 30
0.0000
 40
0.2000
 41
0.2000
 70
0
  0
VERTEX
  8
20
 10
11.5126
 20
9.7815
 30
0.0000
 42
1.0000
  0
VERTEX
  8
20
 10
11.6126
 20
9.6083
 30
0.0000
  0
SEQEND
  8
0
  0
POLYLINE
  8
20
 66
1
 10
0.0000
 20
0.0000
 30
0.0000
 40
0.4000
 41
0.4000
 70
0
  0
VERTEX
  8
20
 10
11.5626
 20
9.6949
 30
0.0000
  0
VERTEX
  8
20
 10
10.1769
 20
8.8949
 30
0.0000
  0
SEQEND
  8
0
  0
POLYLINE
  8
20
 66
1
 10
0.0000
 20
0.0000
 30
0.0000
 40
0.2000
 41
0.2000
 70
0
  0
VERTEX
  8
20
 10
10.1269
 20
8.9815
 30
0.0000
 42
1.0000
  0
VERTEX
  8
20
 10
10.2269
 20
8.8083
 30
0.0000
  0
SEQEND
  8
0
  0
POLYLINE
  8
20
 66
1
 10
0.0000
 20
0.0000
 30
0.0000
 40
0.2000
 41
0.2000
 70
0
  0
VERTEX
  8
20
 10
11.6126
 20
9.6083
 30
0.0000
 42
1.0000
  0
VERTEX
  8
20
 10
11.5126
 20
9.7815
 30
0.0000
  0
SEQEND
  8
0
  0
POLYLINE
  8
20
 66
1
 10
0.0000
 20
0.0000
 30
0.0000
 40
0.4000
 41
0.4000
 70
0
  0
VERTEX
  8
20
 10
8.8109
 20
9.2609
 30
0.0000
 42
0.4142
  0
VERTEX
  8
20
 10
10.1769
 20
8.8949
 30
0.0000
  0
SEQEND
  8
0
  0
POLYLINE
  8
20
 66
1
 10
0.0000
 20
0.0000
 30
0.0000
 40
0.2000
 41
0.2000
 70
0
  0
VERTEX
  8
20
 10
8.8975
 20
9.3109
 30
0.0000
 42
1.0000
  0
VERTEX
  8
20
 10
8.7243
 20
9.2109
 30
0.0000
  0
SEQEND
  8
0
  0
POLYLINE
  8
20
 66
1
 10
0.0000
 20
0.0000
 30
0.0000
 40
0.2000
 41
0.2000
 70
0
  0
VERTEX
  8
20
 10
10.2269
 20
8.8083
 30
0.0000
 42
1.0000
  0
VERTEX
  8
20
 10
10.1269
 20
8.9815
 30
0.0000
  0
SEQEND
  8
0
  0
POLYLINE
  8
20
 66
1
 10
0.0000
 20
0.0000
 30
0.0000
 40
0.4000
 41
0.4000
 70
0
  0
VERTEX
  8
20
 10
8.8109
 20
9.2609
 30
0.0000
  0
VERTEX
  8
20
 10
4.8109
 20
16.1891
 30
0.0000
  0
SEQEND
  8
0
  0
POLYLINE
  8
20
 66
1
 10
0.0000
 20
0.0000
 30
0.0000
 40
0.2000
 41
0.2000
 70
0
  0
VERTEX
  8
20
 10
4.8975
 20
16.2391
 30
0.0000
 42
1.0000
  0
VERTEX
  8
20
 10
4.7243
 20
16.1391
 30
0.0000
  0
SEQEND
  8
0
  0
POLYLINE
  8
20
 66
1
 10
0.0000
 20
0.0000
 30
0.0000
 40
0.2000
 41
0.2000
 70
0
  0
VERTEX
  8
20
 10
8.7243
 20
9.2109
 30
0.0000
 42
1.0000
  0
VERTEX
  8
20
 10
8.8975
 20
9.3109
 30
0.0000
  0
SEQEND
  8
0
  0
POLYLINE
  8
20
 66
1
 10
0.0000
 20
0.0000
 30
0.0000
 40
0.4000
 41
0.4000
 70
0
  0
VERTEX
  8
20
 10
35.0000
 20
48.7500
 30
0.0000
 42
1.0000
  0
VERTEX
  8
20
 10
35.0000
 20
51.2500
 30
0.0000
 42
1.0000
  0
VERTEX
  8
20
 10
35.0000
 20
48.7500
 30
0.0000
  0
SEQEND
  8
0
  0
POLYLINE
  8
20
 66
1
 10
0.0000
 20
0.0000
 30
0.0000
 40
0.4000
 41
0.4000
 70
0
  0
VERTEX
  8
20
 10
35.0000
 20
22.7500
 30
0.0000
 42
1.0000
  0
VERTEX
  8
20
 10
35.0000
 20
47.2500
 30
0.0000
 42
1.0000
  0
VERTEX
  8
20
 10
35.0000
 20
22.7500
 30
0.0000
  0
SEQEND
  8
0
  0
POLYLINE
  8
20
 66
1
 10
0.0000
 20
0.0000
 30
0.0000
 40
0.4000
 41
0.4000
 70
0
  0
VERTEX
  8
20
 10
53.5000
 20
10.2500
 30
0.0000
 42
1.0000
  0
VERTEX
  8
20
 10
53.5000
 20
12.7500
 30
0.0000
 42
1.0000
  0
VERTEX
  8
20
 10
53.5000
 20
10.2500
 30
0.0000
  0
SEQEND
  8
0
  0
POLYLINE
  8
20
 66
1
 10
0.0000
 20
0.0000
 30
0.0000
 40
0.4000
 41
0.4000
 70
0
  0
VERTEX
  8
20
 10
16.5000
 20
10.2500
 30
0.0000
 42
1.0000
  0
VERTEX
  8
20
 10
16.5000
 20
12.7500
 30
0.0000
 42
1.0000
  0
VERTEX
  8
20
 10
16.5000
 20
10.2500
 30
0.0000
  0
SEQEND
  8
0
  0
INSERT
  8
32
  2
RECT
 10
25.9500
 20
14.7000
 30
0.0000
 41
0.5000
 42
0.4000
 43
1.0000
 50
180.0000
  0
INSERT
  8
32
  2
RECT
 10
25.0500
 20
14.7000
 30
0.0000
 41
0.5000
 42
0.4000
 43
1.0000
 50
180.0000
  0
INSERT
  8
32
  2
RECT
 10
28.3000
 20
18.7500
 30
0.0000
 41
0.5000
 42
0.4000
 43
1.0000
 50
90.0000
  0
INSERT
  8
32
  2
RECT
 10
28.3000
 20
19.6500
 30
0.0000
 41
0.5000
 42
0.4000
 43
1.0000
 50
90.0000
  0
INSERT
  8
32
  2
RECT
 10
13.7500
 20
16.2062
 30
0.0000
 41
0.8000
 42
1.0000
 43
1.0000
 50
300.0000
  0
INSERT
  8
32
  2
RECT
 10
14.4500
 20
14.9938
 30
0.0000
 41
0.8000
 42
1.0000
 43
1.0000
 50
300.0000
  0
INSERT
  8
32
  2
RECT
 10
46.9500
 20
14.8000
 30
0.0000
 41
0.5000
 42
0.4000
 43
1.0000
 50
180.0000
  0
INSERT
  8
32
  2
RECT
 10
46.0500
 20
14.8000
 30
0.0000
 41
0.5000
 42
0.4000
 43
1.0000
 50
180.0000
  0
INSERT
  8
32
  2
RECT
 10
38.6907
 20
5.3719
 30
0.0000
 41
1.3500
 42
0.4000
 43
1.0000
 50
102.0000
  0
INSERT
  8
32
  2
RECT
 10
39.3265
 20
5.5070
 30
0.0000
 41
1.3500
 42
0.4000
 43
1.0000
 50
102.0000
  0
INSERT
  8
32
  2
RECT
 10
39.9623
 20
5.6422
 30
0.0000
 41
1.3500
 42
0.4000
 43
1.0000
 50
102.0000
  0
INSERT
  8
32
  2
RECT
 10
40.5981
 20
5.7773
 30
0.0000
 41
1.3500
 42
0.4000
 43
1.0000
 50
102.0000
  0
INSERT
  8
32
  2
RECT
 10
41.2338
 20
5.9125
 30
0.0000
 41
1.3500
 42
0.4000
 43
1.0000
 50
102.0000
  0
INSERT
  8
32
  2
RECT
 10
36.5392
 20
2.0265
 30
0.0000
 41
1.8000
 42
1.6000
 43
1.0000
 50
102.0000
  0
INSERT
  8
32
  2
RECT
 10
44.5600
 20
3.7313
 30
0.0000
 41
1.8000
 42
1.6000
 43
1.0000
 50
102.0000
  0
INSERT
  8
32
  2
RECT
 10
43.1037
 20
5.7732
 30
0.0000
 41
2.0000
 42
2.1000
 43
1.0000
 50
102.0000
  0
INSERT
  8
32
  2
RECT
 10
37.0391
 20
4.4841
 30
0.0000
 41
2.0000
 42
2.1000
 43
1.0000
 50
102.0000
  0
INSERT
  8
32
  2
RECT
 10
34.5000
 20
7.7000
 30
0.0000
 41
1.2000
 42
1.2000
 43
1.0000
 50
90.0000
  0
INSERT
  8
32
  2
RECT
 10
34.5000
 20
10.5000
 30
0.0000
 41
1.2000
 42
1.2000
 43
1.0000
 50
90.0000
  0
INSERT
  8
32
  2
RECT
 10
30.1500
 20
15.0000
 30
0.0000
 41
0.5500
 42
1.0000
 43
1.0000
 50
180.0000
  0
INSERT
  8
32
  2
RECT
 10
29.2000
 20
15.0000
 30
0.0000
 41
0.5500
 42
1.0000
 43
1.0000
 50
180.0000
  0
INSERT
  8
32
  2
RECT
 10
28.2500
 20
15.0000
 30
0.0000
 41
0.5500
 42
1.0000
 43
1.0000
 50
180.0000
  0
INSERT
  8
32
  2
RECT
 10
28.2500
 20
17.6000
 30
0.0000
 41
0.5500
 42
1.0000
 43
1.0000
 50
180.0000
  0
INSERT
  8
32
  2
RECT
 10
30.1500
 20
17.6000
 30
0.0000
 41
0.5500
 42
1.0000
 43
1.0000
 50
180.0000
  0
INSERT
  8
32
  2
RECT
 10
25.5500
 20
18.2400
 30
0.0000
 41
0.8000
 42
1.0000
 43
1.0000
 50
180.0000
  0
INSERT
  8
32
  2
RECT
 10
23.6500
 20
18.2400
 30
0.0000
 41
0.8000
 42
1.0000
 43
1.0000
 50
180.0000
  0
INSERT
  8
32
  2
RECT
 10
24.6000
 20
20.6400
 30
0.0000
 41
0.8000
 42
1.0000
 43
1.0000
 50
180.0000
  0
INSERT
  8
32
  2
RECT
 10
19.7500
 20
14.3000
 30
0.0000
 41
0.8000
 42
1.0000
 43
1.0000
 50
180.0000
  0
INSERT
  8
32
  2
RECT
 10
17.8500
 20
14.3000
 30
0.0000
 41
0.8000
 42
1.0000
 43
1.0000
 50
180.0000
  0
INSERT
  8
32
  2
RECT
 10
18.8000
 20
16.7000
 30
0.0000
 41
0.8000
 42
1.0000
 43
1.0000
 50
180.0000
  0
INSERT
  8
32
  2
RECT
 10
30.1000
 20
19.7000
 30
0.0000
 41
0.4000
 42
0.5000
 43
1.0000
 50
270.0000
  0
INSERT
  8
32
  2
RECT
 10
30.1000
 20
18.7000
 30
0.0000
 41
0.4000
 42
0.5000
 43
1.0000
 50
270.0000
  0
INSERT
  8
32
  2
RECT
 10
24.5000
 20
21.8000
 30
0.0000
 41
0.4000
 42
0.5000
 43
1.0000
 50
90.0000
  0
INSERT
  8
32
  2
RECT
 10
24.5000
 20
22.8000
 30
0.0000
 41
0.4000
 42
0.5000
 43
1.0000
 50
90.0000
  0
INSERT
  8
32
  2
RECT
 10
19.7000
 20
8.5000
 30
0.0000
 41
0.4000
 42
0.5000
 43
1.0000
 50
90.0000
  0
INSERT
  8
32
  2
RECT
 10
19.7000
 20
9.5000
 30
0.0000
 41
0.4000
 42
0.5000
 43
1.0000
 50
90.0000
  0
INSERT
  8
32
  2
RECT
 10
25.7000
 20
21.8000
 30
0.0000
 41
0.4000
 42
0.5000
 43
1.0000
 50
90.0000
  0
INSERT
  8
32
  2
RECT
 10
25.7000
 20
22.8000
 30
0.0000
 41
0.4000
 42
0.5000
 43
1.0000
 50
90.0000
  0
INSERT
  8
32
  2
RECT
 10
39.2000
 20
9.0000
 30
0.0000
 41
0.4000
 42
0.5000
 43
1.0000
 50
270.0000
  0
INSERT
  8
32
  2
RECT
 10
39.2000
 20
8.0000
 30
0.0000
 41
0.4000
 42
0.5000
 43
1.0000
 50
270.0000
  0
INSERT
  8
32
  2
RECT
 10
40.1000
 20
9.0000
 30
0.0000
 41
0.4000
 42
0.5000
 43
1.0000
 50
270.0000
  0
INSERT
  8
32
  2
RECT
 10
40.1000
 20
8.0000
 30
0.0000
 41
0.4000
 42
0.5000
 43
1.0000
 50
270.0000
  0
INSERT
  8
32
  2
RECT
 10
36.0000
 20
9.4000
 30
0.0000
 41
0.4000
 42
0.5000
 43
1.0000
 50
270.0000
  0
INSERT
  8
32
  2
RECT
 10
36.0000
 20
8.4000
 30
0.0000
 41
0.4000
 42
0.5000
 43
1.0000
 50
270.0000
  0
INSERT
  8
32
  2
RECT
 10
51.5000
 20
27.1000
 30
0.0000
 41
0.4000
 42
0.5000
 43
1.0000
 50
180.0000
  0
INSERT
  8
32
  2
RECT
 10
50.5000
 20
27.1000
 30
0.0000
 41
0.4000
 42
0.5000
 43
1.0000
 50
180.0000
  0
ENDSEC
  0
EOF
