%
M48
M72
T01C0.01969
T02C0.02362
%
T01
X9280Y17843
X9674Y17843
X10068Y17843
X10461Y17843
X10461Y17843
X10855Y17843
X11249Y17843
X11643Y17843
X31328Y17843
X31721Y17843
X32115Y17843
X32509Y17843
X32509Y17843
X32902Y17843
X33296Y17843
X33690Y17843
T02
X19517Y9379
X19910Y9379
X20304Y9379
X20698Y9379
X21091Y9379
X21485Y9379
X21485Y9379
X21879Y9379
X22272Y9379
X22666Y9379
X23060Y9379
X23454Y9379
M30
