%
M48
M72
T01C0.01969
T02C0.02756
T03C0.03150
T04C0.03937
T05C0.08661
%
T01
X80134Y70291
X91551Y64780
X96669Y87614
X90370Y96669
X87614Y101000
X96276Y99819
X113205Y94307
X129740Y90370
X129346Y82890
X138402Y87220
X143913Y89976
X151394Y88402
X163598Y97850
X176984Y84465
X186433Y92339
X191157Y73047
X198244Y67142
X208087Y85252
X209268Y93913
X194701Y115173
X208480Y136433
X228165Y126984
X236827Y134465
X222260Y159268
X218323Y167142
X232102Y193913
X226197Y196669
X145882Y103756
X147063Y67929
X141945Y62811
X136433Y60843
X147850Y58874
X162024Y52969
X172654Y57299
X156512Y34465
X137220Y33283
X122260Y39976
X117535Y34858
X115567Y48638
X67929Y91551
X67142Y101394
X61630Y137614
T02
X84858Y51787
T03
X21472Y132201
X21472Y137122
X21472Y142043
X21472Y146965
X72654Y147457
X72654Y155331
X206512Y155331
X206512Y147457
X257693Y146965
X257693Y142043
X257693Y137122
X257693Y132201
T04
X77654Y129898
X67654Y129898
X67654Y119898
X77654Y119898
X77654Y109898
X67654Y109898
T05
X198638Y80528
X198638Y198638
M30
