%
M48
M72
T01C0.0157
T02C0.0276
T03C0.0866
%
T01
X8418Y13757
X10780Y16513
X9008Y19466
X9599Y20844
X8614Y22812
X8221Y21631
X6843Y19269
X7237Y24190
X6843Y27143
X8221Y28718
X9008Y27734
X9599Y26749
X11961Y29309
X13142Y28915
X13929Y28915
X14717Y28915
X15111Y22025
X12355Y22025
X11764Y20253
T02
X6055Y13364
X6055Y14151
X6055Y14938
X6055Y15726
X6055Y16513
X6055Y17301
X6055Y18088
X6055Y18875
X6055Y19663
X6055Y20450
X14717Y20450
X14717Y19663
X14717Y18875
X14717Y18088
X14717Y17301
X14717Y16513
X14717Y15726
X14717Y14938
X14717Y14151
X14717Y13364
T03
X10386Y13560
X10386Y29309
M30
