G75*
%MOIN*%
%OFA0B0*%
%FSLAX24Y24*%
%IPPOS*%
%LPD*%
%AMOC8*
5,1,8,0,0,1.08239X$1,22.5*
%
%ADD10R,0.0472X0.0315*%
%ADD11R,0.0315X0.0472*%
%ADD12R,0.0315X0.0394*%
%ADD13R,0.0394X0.0315*%
%ADD14R,0.0120X0.0390*%
%ADD15R,0.0217X0.0394*%
%ADD16R,0.1575X0.0630*%
%ADD17C,0.0768*%
%ADD18OC8,0.0354*%
%ADD19C,0.0354*%
%ADD20C,0.0413*%
%ADD21R,0.0591X0.0512*%
%ADD22OC8,0.0660*%
%ADD23C,0.0079*%
%ADD24C,0.0315*%
%ADD25C,0.0357*%
%ADD26C,0.0236*%
%ADD27C,0.1266*%
%ADD28C,0.0317*%
%ADD29C,0.0118*%
%ADD30C,0.0157*%
D10*
X020826Y023328D03*
X020826Y024076D03*
X019960Y023702D03*
D11*
X014586Y023269D03*
X013838Y023269D03*
X014212Y024135D03*
D12*
X015393Y024391D03*
X015945Y024391D03*
X015945Y023702D03*
X015393Y023702D03*
X014488Y022620D03*
X013937Y022620D03*
X012500Y023604D03*
X011948Y023604D03*
X011948Y024194D03*
X012500Y024194D03*
X011200Y023092D03*
X010649Y023092D03*
X011948Y025966D03*
X012500Y025966D03*
X012500Y026557D03*
X011948Y026557D03*
X008760Y027049D03*
X008208Y027049D03*
X015590Y026655D03*
X016141Y026655D03*
X016968Y025572D03*
X017519Y025572D03*
X017519Y024588D03*
X016968Y024588D03*
X016968Y023604D03*
X017519Y023604D03*
X022677Y023604D03*
X023228Y023604D03*
D13*
X021673Y023427D03*
X021673Y023978D03*
X026200Y022797D03*
X026200Y022246D03*
X026988Y023033D03*
X026988Y023584D03*
X009567Y022994D03*
X009567Y022442D03*
X008287Y022344D03*
X008287Y022895D03*
X008878Y025789D03*
X008878Y026340D03*
D14*
X024153Y025737D03*
X024409Y025737D03*
X024665Y025737D03*
X024921Y025737D03*
X025177Y025737D03*
X025433Y025737D03*
X025689Y025737D03*
X025689Y023439D03*
X025433Y023439D03*
X025177Y023439D03*
X024921Y023439D03*
X024665Y023439D03*
X024409Y023439D03*
X024153Y023439D03*
D15*
X008858Y023978D03*
X008484Y023978D03*
X008110Y023978D03*
X008110Y025001D03*
X008858Y025001D03*
D16*
X029842Y026793D03*
X029842Y022383D03*
D17*
X014791Y026557D03*
X013791Y026557D03*
D18*
X017047Y026358D03*
X018769Y022620D03*
D19*
X018277Y022620D03*
X017785Y022620D03*
X017293Y022620D03*
X016801Y022620D03*
X016309Y022620D03*
X015817Y022620D03*
X015324Y022620D03*
X017539Y026362D03*
X018031Y026360D03*
X018523Y026360D03*
X019015Y026360D03*
D20*
X012141Y022423D03*
X011141Y022423D03*
X010141Y022423D03*
D21*
X013996Y025041D03*
X013996Y025710D03*
D22*
X010846Y026360D03*
X010059Y026360D03*
D23*
X010019Y026347D02*
X008917Y026347D01*
X008917Y026379D02*
X009153Y026379D01*
X009153Y026513D01*
X009141Y026542D01*
X009119Y026564D01*
X009090Y026576D01*
X008917Y026576D01*
X008917Y026379D01*
X008917Y026301D01*
X009153Y026301D01*
X009153Y026167D01*
X009141Y026138D01*
X009119Y026116D01*
X009090Y026104D01*
X008917Y026104D01*
X008917Y026301D01*
X008838Y026301D01*
X008602Y026301D01*
X008602Y026167D01*
X008614Y026138D01*
X008636Y026116D01*
X008665Y026104D01*
X008838Y026104D01*
X008838Y026301D01*
X008838Y026379D01*
X008602Y026379D01*
X008602Y026513D01*
X008614Y026542D01*
X008636Y026564D01*
X008665Y026576D01*
X008838Y026576D01*
X008838Y026379D01*
X008917Y026379D01*
X008917Y026424D02*
X008838Y026424D01*
X008838Y026347D02*
X008307Y026347D01*
X008307Y026424D02*
X008602Y026424D01*
X008602Y026501D02*
X008307Y026501D01*
X008307Y026579D02*
X009700Y026579D01*
X009650Y026529D02*
X009650Y026399D01*
X010019Y026399D01*
X010019Y026320D01*
X010098Y026320D01*
X010098Y025951D01*
X010228Y025951D01*
X010411Y026134D01*
X010652Y025892D01*
X011040Y025892D01*
X011279Y026131D01*
X011279Y024300D01*
X010386Y023407D01*
X010314Y023335D01*
X009940Y022961D01*
X009901Y022867D01*
X009901Y022670D01*
X009895Y022663D01*
X009821Y022738D01*
X009313Y022738D01*
X009232Y022657D01*
X009232Y022345D01*
X009110Y022345D01*
X009108Y022344D01*
X009035Y022417D01*
X009035Y023207D01*
X009048Y023256D01*
X009035Y023278D01*
X009035Y023655D01*
X009104Y023724D01*
X009104Y024232D01*
X009023Y024312D01*
X008693Y024312D01*
X008626Y024246D01*
X008608Y024253D01*
X008499Y024253D01*
X008499Y023993D01*
X008469Y023993D01*
X008469Y024253D01*
X008360Y024253D01*
X008342Y024246D01*
X008276Y024311D01*
X008289Y024319D01*
X008306Y024343D01*
X008327Y024364D01*
X008335Y024384D01*
X008348Y024402D01*
X008354Y024431D01*
X008366Y024458D01*
X008366Y024480D01*
X008371Y024501D01*
X008366Y024530D01*
X008366Y025052D01*
X008356Y025076D01*
X008356Y025255D01*
X008307Y025305D01*
X008307Y026714D01*
X008423Y026714D01*
X008504Y026795D01*
X008504Y027303D01*
X008423Y027383D01*
X007994Y027383D01*
X007913Y027303D01*
X007913Y027213D01*
X007866Y027326D01*
X007789Y027403D01*
X017840Y027403D01*
X017466Y027029D01*
X017362Y026925D01*
X017362Y026629D01*
X017361Y026629D01*
X017291Y026559D01*
X017177Y026673D01*
X016916Y026673D01*
X016732Y026488D01*
X016732Y026227D01*
X016850Y026109D01*
X016850Y025907D01*
X016754Y025907D01*
X016673Y025826D01*
X016673Y025318D01*
X016754Y025238D01*
X017183Y025238D01*
X017244Y025299D01*
X017305Y025238D01*
X017734Y025238D01*
X017815Y025318D01*
X017815Y025342D01*
X017852Y025304D01*
X017968Y025256D01*
X018094Y025256D01*
X018210Y025304D01*
X018299Y025393D01*
X018346Y025506D01*
X018346Y025302D01*
X018450Y025198D01*
X018617Y025031D01*
X018543Y024957D01*
X018351Y024765D01*
X017815Y024765D01*
X017815Y024842D01*
X017734Y024923D01*
X017305Y024923D01*
X017244Y024862D01*
X017183Y024923D01*
X016908Y024923D01*
X015965Y025850D01*
X015908Y025907D01*
X015907Y025907D01*
X015906Y025908D01*
X015826Y025907D01*
X014429Y025907D01*
X014429Y026023D01*
X014348Y026104D01*
X014291Y026104D01*
X014291Y026400D01*
X014349Y026261D01*
X014496Y026114D01*
X014687Y026035D01*
X014895Y026035D01*
X015087Y026114D01*
X015233Y026261D01*
X015233Y026261D01*
X015551Y026261D01*
X015659Y026306D01*
X015673Y026320D01*
X015805Y026320D01*
X015885Y026401D01*
X015885Y026909D01*
X015805Y026990D01*
X015376Y026990D01*
X015295Y026909D01*
X015295Y026852D01*
X015233Y026852D01*
X015087Y026999D01*
X014895Y027078D01*
X014687Y027078D01*
X014496Y026999D01*
X014349Y026852D01*
X014291Y026713D01*
X014233Y026852D01*
X014087Y026999D01*
X013895Y027078D01*
X013687Y027078D01*
X013496Y026999D01*
X013349Y026852D01*
X013269Y026660D01*
X013269Y026453D01*
X013349Y026261D01*
X013496Y026114D01*
X013608Y026068D01*
X013563Y026023D01*
X013563Y025397D01*
X013584Y025375D01*
X013563Y025354D01*
X013563Y024728D01*
X013643Y024647D01*
X013700Y024647D01*
X013700Y024293D01*
X013745Y024185D01*
X013828Y024101D01*
X013917Y024013D01*
X013917Y023842D01*
X013998Y023761D01*
X014427Y023761D01*
X014508Y023842D01*
X014508Y024429D01*
X014427Y024509D01*
X014291Y024509D01*
X014291Y024647D01*
X014348Y024647D01*
X014429Y024728D01*
X014429Y025354D01*
X014407Y025375D01*
X014429Y025397D01*
X014429Y025513D01*
X015746Y025513D01*
X016673Y024602D01*
X016673Y024334D01*
X016754Y024253D01*
X016791Y024253D01*
X016791Y023938D01*
X016754Y023938D01*
X016673Y023858D01*
X016673Y023350D01*
X016754Y023269D01*
X017183Y023269D01*
X017244Y023330D01*
X017305Y023269D01*
X017734Y023269D01*
X017815Y023350D01*
X017815Y023427D01*
X019647Y023427D01*
X019667Y023407D01*
X020254Y023407D01*
X020334Y023488D01*
X020334Y023917D01*
X020254Y023997D01*
X019667Y023997D01*
X019586Y023917D01*
X019586Y023781D01*
X017815Y023781D01*
X017815Y023858D01*
X017754Y023919D01*
X018695Y023919D01*
X019187Y024411D01*
X022632Y024411D01*
X023399Y025177D01*
X023504Y025177D01*
X023613Y025222D01*
X023696Y025306D01*
X023741Y025415D01*
X023741Y025533D01*
X023696Y025642D01*
X023647Y025690D01*
X023949Y025690D01*
X023955Y025684D01*
X023955Y025485D01*
X023997Y025443D01*
X023966Y025430D01*
X023882Y025347D01*
X023837Y025238D01*
X023837Y025120D01*
X023882Y025011D01*
X023966Y024927D01*
X024075Y024882D01*
X024177Y024882D01*
X023765Y024470D01*
X023418Y024470D01*
X023417Y024472D01*
X023328Y024561D01*
X023212Y024609D01*
X023086Y024609D01*
X022970Y024561D01*
X022881Y024472D01*
X022833Y024356D01*
X022833Y024230D01*
X022881Y024114D01*
X022970Y024025D01*
X023086Y023977D01*
X023212Y023977D01*
X023328Y024025D01*
X023417Y024114D01*
X023418Y024116D01*
X023912Y024116D01*
X024738Y024942D01*
X024750Y024954D01*
X024768Y024912D01*
X024851Y024829D01*
X024960Y024784D01*
X025078Y024784D01*
X025187Y024829D01*
X025271Y024912D01*
X025316Y025021D01*
X025316Y025124D01*
X025531Y024908D01*
X025635Y024805D01*
X027506Y024805D01*
X027507Y024803D01*
X027545Y024765D01*
X024651Y024765D01*
X024350Y024465D01*
X024350Y023924D01*
X024454Y023820D01*
X024488Y023786D01*
X024488Y023772D01*
X024292Y023772D01*
X024281Y023761D01*
X024270Y023772D01*
X024071Y023772D01*
X024062Y023781D01*
X023523Y023781D01*
X023523Y023858D01*
X023443Y023938D01*
X023013Y023938D01*
X022952Y023877D01*
X022891Y023938D01*
X022462Y023938D01*
X022454Y023930D01*
X022071Y024143D01*
X022030Y024179D01*
X022009Y024178D01*
X022008Y024178D01*
X022008Y024192D01*
X021927Y024273D01*
X021419Y024273D01*
X021399Y024253D01*
X021200Y024253D01*
X021200Y024291D01*
X021120Y024371D01*
X020533Y024371D01*
X020452Y024291D01*
X020452Y023862D01*
X020533Y023781D01*
X021120Y023781D01*
X021200Y023862D01*
X021200Y023899D01*
X021338Y023899D01*
X021338Y023763D01*
X021419Y023683D01*
X021927Y023683D01*
X022008Y023763D01*
X022008Y023773D01*
X022382Y023565D01*
X022382Y023350D01*
X022462Y023269D01*
X022891Y023269D01*
X022952Y023330D01*
X023013Y023269D01*
X023443Y023269D01*
X023523Y023350D01*
X023523Y023427D01*
X023915Y023427D01*
X023955Y023387D01*
X023955Y023187D01*
X024036Y023106D01*
X024075Y023106D01*
X023765Y022797D01*
X020073Y022797D01*
X019679Y023190D01*
X016628Y023190D01*
X016240Y023579D01*
X016240Y023956D01*
X016159Y024037D01*
X015730Y024037D01*
X015669Y023976D01*
X015608Y024037D01*
X015179Y024037D01*
X015098Y023956D01*
X015098Y023657D01*
X014887Y023446D01*
X014882Y023446D01*
X014882Y023562D01*
X014801Y023643D01*
X014372Y023643D01*
X014291Y023562D01*
X014291Y022976D01*
X014311Y022956D01*
X014311Y022954D01*
X014273Y022954D01*
X014193Y022873D01*
X014193Y022366D01*
X014273Y022285D01*
X014702Y022285D01*
X014783Y022366D01*
X014783Y022873D01*
X014761Y022895D01*
X014801Y022895D01*
X014882Y022976D01*
X014882Y023092D01*
X015034Y023092D01*
X015137Y023196D01*
X015309Y023368D01*
X015608Y023368D01*
X015669Y023429D01*
X015730Y023368D01*
X015950Y023368D01*
X016378Y022940D01*
X016391Y022926D01*
X016371Y022934D01*
X016246Y022934D01*
X016130Y022887D01*
X016042Y022798D01*
X016028Y022764D01*
X016015Y022783D01*
X015980Y022818D01*
X015938Y022846D01*
X015891Y022866D01*
X015842Y022875D01*
X015836Y022875D01*
X015836Y022639D01*
X015797Y022639D01*
X015797Y022875D01*
X015791Y022875D01*
X015742Y022866D01*
X015695Y022846D01*
X015653Y022818D01*
X015618Y022783D01*
X015605Y022764D01*
X015591Y022798D01*
X015503Y022887D01*
X015387Y022934D01*
X015262Y022934D01*
X015146Y022887D01*
X015057Y022798D01*
X015010Y022682D01*
X015010Y022557D01*
X015057Y022441D01*
X015146Y022353D01*
X015262Y022305D01*
X015387Y022305D01*
X015503Y022353D01*
X015591Y022441D01*
X015605Y022475D01*
X015618Y022456D01*
X015653Y022421D01*
X015695Y022393D01*
X015742Y022373D01*
X015791Y022364D01*
X015797Y022364D01*
X015797Y022600D01*
X015836Y022600D01*
X015836Y022364D01*
X015842Y022364D01*
X015891Y022373D01*
X015938Y022393D01*
X015980Y022421D01*
X016015Y022456D01*
X016028Y022475D01*
X016042Y022441D01*
X016112Y022371D01*
X016112Y022371D01*
X016227Y022255D01*
X016454Y022029D01*
X011813Y022029D01*
X011486Y022357D01*
X011486Y022491D01*
X011433Y022618D01*
X011428Y022770D01*
X011496Y022838D01*
X011496Y023346D01*
X011415Y023427D01*
X011129Y023427D01*
X011641Y023938D01*
X011655Y023938D01*
X011693Y023901D01*
X011693Y023897D01*
X011653Y023858D01*
X011653Y023350D01*
X011734Y023269D01*
X012163Y023269D01*
X012244Y023350D01*
X012244Y023858D01*
X012204Y023897D01*
X012204Y023901D01*
X012244Y023940D01*
X012244Y024448D01*
X012163Y024529D01*
X011791Y024529D01*
X011791Y025631D01*
X012163Y025631D01*
X012244Y025712D01*
X012244Y026220D01*
X012202Y026261D01*
X012244Y026303D01*
X012244Y026810D01*
X012288Y026810D01*
X012298Y026820D02*
X012275Y026798D01*
X012263Y026769D01*
X012263Y026596D01*
X012460Y026596D01*
X012460Y026517D01*
X012263Y026517D01*
X012263Y026344D01*
X012275Y026315D01*
X012298Y026293D01*
X012327Y026281D01*
X012460Y026281D01*
X012460Y026517D01*
X012539Y026517D01*
X012539Y026281D01*
X012673Y026281D01*
X012702Y026293D01*
X012724Y026315D01*
X012736Y026344D01*
X012736Y026517D01*
X012539Y026517D01*
X012539Y026596D01*
X012460Y026596D01*
X012460Y026832D01*
X012327Y026832D01*
X012298Y026820D01*
X012244Y026810D02*
X012163Y026891D01*
X011734Y026891D01*
X011666Y026823D01*
X011594Y026853D01*
X011476Y026853D01*
X011367Y026808D01*
X011284Y026725D01*
X011242Y026625D01*
X011040Y026827D01*
X010652Y026827D01*
X010411Y026586D01*
X010228Y026768D01*
X010098Y026768D01*
X010098Y026399D01*
X010019Y026399D01*
X010019Y026768D01*
X009889Y026768D01*
X009650Y026529D01*
X009650Y026501D02*
X009153Y026501D01*
X009153Y026424D02*
X009650Y026424D01*
X009650Y026320D02*
X009650Y026190D01*
X009889Y025951D01*
X010019Y025951D01*
X010019Y026320D01*
X009650Y026320D01*
X009650Y026270D02*
X009153Y026270D01*
X009153Y026192D02*
X009650Y026192D01*
X009725Y026115D02*
X009118Y026115D01*
X009132Y026084D02*
X008624Y026084D01*
X008543Y026003D01*
X008543Y025574D01*
X008624Y025494D01*
X008700Y025494D01*
X008700Y025336D01*
X008693Y025336D01*
X008612Y025255D01*
X008612Y024747D01*
X008693Y024667D01*
X009023Y024667D01*
X009104Y024747D01*
X009104Y025255D01*
X009055Y025305D01*
X009055Y025494D01*
X009132Y025494D01*
X009212Y025574D01*
X009212Y026003D01*
X009132Y026084D01*
X009178Y026038D02*
X009802Y026038D01*
X009880Y025961D02*
X009212Y025961D01*
X009212Y025883D02*
X011279Y025883D01*
X011279Y025806D02*
X009212Y025806D01*
X009212Y025729D02*
X011279Y025729D01*
X011279Y025652D02*
X009212Y025652D01*
X009212Y025575D02*
X011279Y025575D01*
X011279Y025497D02*
X009135Y025497D01*
X009055Y025420D02*
X011279Y025420D01*
X011279Y025343D02*
X009055Y025343D01*
X009094Y025266D02*
X011279Y025266D01*
X011279Y025188D02*
X009104Y025188D01*
X009104Y025111D02*
X011279Y025111D01*
X011279Y025034D02*
X009104Y025034D01*
X009104Y024957D02*
X011279Y024957D01*
X011279Y024879D02*
X009104Y024879D01*
X009104Y024802D02*
X011279Y024802D01*
X011279Y024725D02*
X009081Y024725D01*
X008858Y025001D02*
X008878Y025021D01*
X008878Y025789D01*
X008838Y026115D02*
X008917Y026115D01*
X008917Y026192D02*
X008838Y026192D01*
X008838Y026270D02*
X008917Y026270D01*
X008917Y026501D02*
X008838Y026501D01*
X008799Y026773D02*
X008933Y026773D01*
X008962Y026785D01*
X008984Y026807D01*
X008996Y026836D01*
X008996Y027009D01*
X008799Y027009D01*
X008799Y026773D01*
X008799Y026810D02*
X008720Y026810D01*
X008720Y026773D02*
X008720Y027009D01*
X008799Y027009D01*
X008799Y027088D01*
X008996Y027088D01*
X008996Y027261D01*
X008984Y027290D01*
X008962Y027312D01*
X008933Y027324D01*
X008799Y027324D01*
X008799Y027088D01*
X008720Y027088D01*
X008720Y027009D01*
X008523Y027009D01*
X008523Y026836D01*
X008535Y026807D01*
X008557Y026785D01*
X008586Y026773D01*
X008720Y026773D01*
X008720Y026888D02*
X008799Y026888D01*
X008799Y026965D02*
X008720Y026965D01*
X008720Y027042D02*
X008504Y027042D01*
X008523Y027088D02*
X008720Y027088D01*
X008720Y027324D01*
X008586Y027324D01*
X008557Y027312D01*
X008535Y027290D01*
X008523Y027261D01*
X008523Y027088D01*
X008523Y027119D02*
X008504Y027119D01*
X008504Y027197D02*
X008523Y027197D01*
X008529Y027274D02*
X008504Y027274D01*
X008455Y027351D02*
X017788Y027351D01*
X017711Y027274D02*
X008990Y027274D01*
X008996Y027197D02*
X017633Y027197D01*
X017556Y027119D02*
X008996Y027119D01*
X008996Y026965D02*
X013462Y026965D01*
X013384Y026888D02*
X012167Y026888D01*
X012244Y026733D02*
X012263Y026733D01*
X012263Y026656D02*
X012244Y026656D01*
X012244Y026579D02*
X012460Y026579D01*
X012460Y026656D02*
X012539Y026656D01*
X012539Y026596D02*
X012539Y026832D01*
X012673Y026832D01*
X012702Y026820D01*
X012724Y026798D01*
X012736Y026769D01*
X012736Y026596D01*
X012539Y026596D01*
X012539Y026579D02*
X013269Y026579D01*
X013269Y026656D02*
X012736Y026656D01*
X012736Y026733D02*
X013300Y026733D01*
X013332Y026810D02*
X012712Y026810D01*
X012539Y026810D02*
X012460Y026810D01*
X012460Y026733D02*
X012539Y026733D01*
X012539Y026501D02*
X012460Y026501D01*
X012460Y026424D02*
X012539Y026424D01*
X012539Y026347D02*
X012460Y026347D01*
X012460Y026242D02*
X012327Y026242D01*
X012298Y026230D01*
X012275Y026207D01*
X012263Y026178D01*
X012263Y026005D01*
X012460Y026005D01*
X012460Y025927D01*
X012263Y025927D01*
X012263Y025753D01*
X012275Y025725D01*
X012298Y025702D01*
X012327Y025690D01*
X012460Y025690D01*
X012460Y025927D01*
X012539Y025927D01*
X012539Y026005D01*
X012736Y026005D01*
X012736Y026178D01*
X012724Y026207D01*
X012702Y026230D01*
X012673Y026242D01*
X012539Y026242D01*
X012539Y026005D01*
X012460Y026005D01*
X012460Y026242D01*
X012460Y026192D02*
X012539Y026192D01*
X012539Y026115D02*
X012460Y026115D01*
X012460Y026038D02*
X012539Y026038D01*
X012539Y025961D02*
X013563Y025961D01*
X013563Y025883D02*
X012736Y025883D01*
X012736Y025927D02*
X012539Y025927D01*
X012539Y025690D01*
X012673Y025690D01*
X012702Y025702D01*
X012724Y025725D01*
X012736Y025753D01*
X012736Y025927D01*
X012736Y026038D02*
X013578Y026038D01*
X013495Y026115D02*
X012736Y026115D01*
X012730Y026192D02*
X013417Y026192D01*
X013345Y026270D02*
X012211Y026270D01*
X012244Y026347D02*
X012263Y026347D01*
X012263Y026424D02*
X012244Y026424D01*
X012244Y026501D02*
X012263Y026501D01*
X012244Y026192D02*
X012269Y026192D01*
X012263Y026115D02*
X012244Y026115D01*
X012244Y026038D02*
X012263Y026038D01*
X012244Y025961D02*
X012460Y025961D01*
X012460Y025883D02*
X012539Y025883D01*
X012539Y025806D02*
X012460Y025806D01*
X012460Y025729D02*
X012539Y025729D01*
X012726Y025729D02*
X013563Y025729D01*
X013563Y025652D02*
X012183Y025652D01*
X012244Y025729D02*
X012274Y025729D01*
X012263Y025806D02*
X012244Y025806D01*
X012244Y025883D02*
X012263Y025883D01*
X012736Y025806D02*
X013563Y025806D01*
X013563Y025575D02*
X011791Y025575D01*
X011791Y025497D02*
X013563Y025497D01*
X013563Y025420D02*
X011791Y025420D01*
X011791Y025343D02*
X013563Y025343D01*
X013563Y025266D02*
X011791Y025266D01*
X011791Y025188D02*
X013563Y025188D01*
X013563Y025111D02*
X011791Y025111D01*
X011791Y025034D02*
X013563Y025034D01*
X013563Y024957D02*
X011791Y024957D01*
X011791Y024879D02*
X013563Y024879D01*
X013563Y024802D02*
X011791Y024802D01*
X011791Y024725D02*
X013566Y024725D01*
X013643Y024648D02*
X011791Y024648D01*
X011791Y024570D02*
X013700Y024570D01*
X013700Y024493D02*
X012199Y024493D01*
X012244Y024416D02*
X012267Y024416D01*
X012263Y024407D02*
X012263Y024234D01*
X012460Y024234D01*
X012460Y024470D01*
X012327Y024470D01*
X012298Y024458D01*
X012275Y024436D01*
X012263Y024407D01*
X012263Y024339D02*
X012244Y024339D01*
X012244Y024261D02*
X012263Y024261D01*
X012244Y024184D02*
X012460Y024184D01*
X012460Y024155D02*
X012263Y024155D01*
X012263Y023982D01*
X012275Y023953D01*
X012298Y023931D01*
X012327Y023919D01*
X012460Y023919D01*
X012460Y024155D01*
X012460Y024234D01*
X012539Y024234D01*
X012539Y024470D01*
X012673Y024470D01*
X012702Y024458D01*
X012724Y024436D01*
X012736Y024407D01*
X012736Y024234D01*
X012539Y024234D01*
X012539Y024155D01*
X012539Y023919D01*
X012673Y023919D01*
X012702Y023931D01*
X012724Y023953D01*
X012736Y023982D01*
X012736Y024155D01*
X012539Y024155D01*
X012460Y024155D01*
X012460Y024107D02*
X012539Y024107D01*
X012539Y024184D02*
X013746Y024184D01*
X013714Y024261D02*
X012736Y024261D01*
X012736Y024339D02*
X013700Y024339D01*
X013700Y024416D02*
X012732Y024416D01*
X012539Y024416D02*
X012460Y024416D01*
X012460Y024339D02*
X012539Y024339D01*
X012539Y024261D02*
X012460Y024261D01*
X012460Y024030D02*
X012539Y024030D01*
X012539Y023952D02*
X012460Y023952D01*
X012460Y023879D02*
X012327Y023879D01*
X012298Y023867D01*
X012275Y023845D01*
X012263Y023816D01*
X012263Y023643D01*
X012460Y023643D01*
X012460Y023564D01*
X012539Y023564D01*
X012539Y023328D01*
X012673Y023328D01*
X012702Y023340D01*
X012724Y023362D01*
X012736Y023391D01*
X012736Y023564D01*
X012539Y023564D01*
X012539Y023643D01*
X012736Y023643D01*
X012736Y023816D01*
X012724Y023845D01*
X012702Y023867D01*
X012673Y023879D01*
X012539Y023879D01*
X012539Y023643D01*
X012460Y023643D01*
X012460Y023879D01*
X012460Y023875D02*
X012539Y023875D01*
X012539Y023798D02*
X012460Y023798D01*
X012460Y023721D02*
X012539Y023721D01*
X012539Y023644D02*
X012460Y023644D01*
X012460Y023566D02*
X012244Y023566D01*
X012263Y023564D02*
X012263Y023391D01*
X012275Y023362D01*
X012298Y023340D01*
X012327Y023328D01*
X012460Y023328D01*
X012460Y023564D01*
X012263Y023564D01*
X012263Y023489D02*
X012244Y023489D01*
X012244Y023412D02*
X012263Y023412D01*
X012228Y023335D02*
X012311Y023335D01*
X012460Y023335D02*
X012539Y023335D01*
X012539Y023412D02*
X012460Y023412D01*
X012460Y023489D02*
X012539Y023489D01*
X012539Y023566D02*
X013630Y023566D01*
X013636Y023572D02*
X013614Y023550D01*
X013602Y023521D01*
X013602Y023309D01*
X013799Y023309D01*
X013799Y023584D01*
X013665Y023584D01*
X013636Y023572D01*
X013602Y023489D02*
X012736Y023489D01*
X012736Y023412D02*
X013602Y023412D01*
X013602Y023335D02*
X012688Y023335D01*
X012736Y023644D02*
X015084Y023644D01*
X015098Y023721D02*
X012736Y023721D01*
X012736Y023798D02*
X013961Y023798D01*
X013917Y023875D02*
X012683Y023875D01*
X012724Y023952D02*
X013917Y023952D01*
X013900Y024030D02*
X012736Y024030D01*
X012736Y024107D02*
X013823Y024107D01*
X013878Y023584D02*
X013878Y023309D01*
X013799Y023309D01*
X013799Y023230D01*
X013602Y023230D01*
X013602Y023017D01*
X013614Y022988D01*
X013636Y022966D01*
X013665Y022954D01*
X013799Y022954D01*
X013799Y023230D01*
X013878Y023230D01*
X013878Y023309D01*
X014074Y023309D01*
X014074Y023521D01*
X014062Y023550D01*
X014040Y023572D01*
X014011Y023584D01*
X013878Y023584D01*
X013878Y023566D02*
X013799Y023566D01*
X013799Y023489D02*
X013878Y023489D01*
X013878Y023412D02*
X013799Y023412D01*
X013799Y023335D02*
X013878Y023335D01*
X013878Y023257D02*
X014291Y023257D01*
X014291Y023180D02*
X014074Y023180D01*
X014074Y023230D02*
X013878Y023230D01*
X013878Y022954D01*
X014011Y022954D01*
X014040Y022966D01*
X014062Y022988D01*
X014074Y023017D01*
X014074Y023230D01*
X014074Y023335D02*
X014291Y023335D01*
X014291Y023412D02*
X014074Y023412D01*
X014074Y023489D02*
X014291Y023489D01*
X014295Y023566D02*
X014046Y023566D01*
X013799Y023257D02*
X011496Y023257D01*
X011496Y023180D02*
X013602Y023180D01*
X013602Y023103D02*
X011496Y023103D01*
X011496Y023026D02*
X013602Y023026D01*
X013735Y022883D02*
X013712Y022861D01*
X013700Y022832D01*
X013700Y022659D01*
X013897Y022659D01*
X013897Y022580D01*
X013700Y022580D01*
X013700Y022407D01*
X013712Y022378D01*
X013735Y022356D01*
X013764Y022344D01*
X013897Y022344D01*
X013897Y022580D01*
X013976Y022580D01*
X013976Y022344D01*
X014110Y022344D01*
X014139Y022356D01*
X014161Y022378D01*
X014173Y022407D01*
X014173Y022580D01*
X013976Y022580D01*
X013976Y022659D01*
X013897Y022659D01*
X013897Y022895D01*
X013764Y022895D01*
X013735Y022883D01*
X013723Y022871D02*
X011496Y022871D01*
X011496Y022948D02*
X014267Y022948D01*
X014291Y023026D02*
X014074Y023026D01*
X014074Y023103D02*
X014291Y023103D01*
X014488Y023171D02*
X014488Y022620D01*
X014783Y022639D02*
X015010Y022639D01*
X015010Y022562D02*
X014783Y022562D01*
X014783Y022485D02*
X015039Y022485D01*
X015091Y022408D02*
X014783Y022408D01*
X014748Y022330D02*
X015199Y022330D01*
X015450Y022330D02*
X016152Y022330D01*
X016229Y022253D02*
X012371Y022253D01*
X012363Y022241D02*
X012394Y022287D01*
X012416Y022339D01*
X012427Y022393D01*
X012171Y022393D01*
X012171Y022138D01*
X012225Y022148D01*
X012277Y022170D01*
X012323Y022201D01*
X012363Y022241D01*
X012286Y022176D02*
X016307Y022176D01*
X016384Y022099D02*
X011744Y022099D01*
X011667Y022176D02*
X011997Y022176D01*
X012006Y022170D02*
X012058Y022148D01*
X012112Y022138D01*
X012112Y022393D01*
X012171Y022393D01*
X012171Y022452D01*
X012427Y022452D01*
X012416Y022506D01*
X012394Y022558D01*
X012363Y022605D01*
X012323Y022644D01*
X012277Y022676D01*
X012225Y022697D01*
X012171Y022708D01*
X012171Y022452D01*
X012112Y022452D01*
X012112Y022393D01*
X011856Y022393D01*
X011867Y022339D01*
X011888Y022287D01*
X011920Y022241D01*
X011959Y022201D01*
X012006Y022170D01*
X012112Y022176D02*
X012171Y022176D01*
X012171Y022253D02*
X012112Y022253D01*
X012112Y022330D02*
X012171Y022330D01*
X012171Y022408D02*
X013700Y022408D01*
X013700Y022485D02*
X012420Y022485D01*
X012391Y022562D02*
X013700Y022562D01*
X013700Y022717D02*
X011430Y022717D01*
X011432Y022639D02*
X011954Y022639D01*
X011959Y022644D02*
X011920Y022605D01*
X011888Y022558D01*
X011867Y022506D01*
X011856Y022452D01*
X012112Y022452D01*
X012112Y022708D01*
X012058Y022697D01*
X012006Y022676D01*
X011959Y022644D01*
X011891Y022562D02*
X011456Y022562D01*
X011433Y022618D02*
X011433Y022618D01*
X011486Y022485D02*
X011863Y022485D01*
X011871Y022330D02*
X011512Y022330D01*
X011486Y022408D02*
X012112Y022408D01*
X012112Y022485D02*
X012171Y022485D01*
X012171Y022562D02*
X012112Y022562D01*
X012112Y022639D02*
X012171Y022639D01*
X012328Y022639D02*
X013897Y022639D01*
X013897Y022562D02*
X013976Y022562D01*
X013976Y022485D02*
X013897Y022485D01*
X013897Y022408D02*
X013976Y022408D01*
X014173Y022408D02*
X014193Y022408D01*
X014193Y022485D02*
X014173Y022485D01*
X014173Y022562D02*
X014193Y022562D01*
X014193Y022639D02*
X013976Y022639D01*
X013976Y022659D02*
X014173Y022659D01*
X014173Y022832D01*
X014161Y022861D01*
X014139Y022883D01*
X014110Y022895D01*
X013976Y022895D01*
X013976Y022659D01*
X013976Y022717D02*
X013897Y022717D01*
X013897Y022794D02*
X013976Y022794D01*
X013976Y022871D02*
X013897Y022871D01*
X013878Y023026D02*
X013799Y023026D01*
X013799Y023103D02*
X013878Y023103D01*
X013878Y023180D02*
X013799Y023180D01*
X013700Y022794D02*
X011452Y022794D01*
X011496Y023335D02*
X011669Y023335D01*
X011653Y023412D02*
X011430Y023412D01*
X011269Y023566D02*
X011653Y023566D01*
X011653Y023489D02*
X011192Y023489D01*
X011346Y023644D02*
X011653Y023644D01*
X011653Y023721D02*
X011423Y023721D01*
X011501Y023798D02*
X011653Y023798D01*
X011671Y023875D02*
X011578Y023875D01*
X011240Y024261D02*
X009074Y024261D01*
X009104Y024184D02*
X011163Y024184D01*
X011086Y024107D02*
X009104Y024107D01*
X009104Y024030D02*
X011009Y024030D01*
X010931Y023952D02*
X009104Y023952D01*
X009104Y023875D02*
X010854Y023875D01*
X010777Y023798D02*
X009104Y023798D01*
X009101Y023721D02*
X010700Y023721D01*
X010622Y023644D02*
X009035Y023644D01*
X009035Y023566D02*
X010545Y023566D01*
X010468Y023489D02*
X009035Y023489D01*
X009035Y023412D02*
X010391Y023412D01*
X010313Y023335D02*
X009035Y023335D01*
X009047Y023257D02*
X010236Y023257D01*
X010159Y023180D02*
X009837Y023180D01*
X009842Y023167D02*
X009830Y023196D01*
X009808Y023218D01*
X009779Y023230D01*
X009606Y023230D01*
X009606Y023033D01*
X009527Y023033D01*
X009527Y022954D01*
X009291Y022954D01*
X009291Y022820D01*
X009303Y022791D01*
X009325Y022769D01*
X009354Y022757D01*
X009527Y022757D01*
X009527Y022954D01*
X009606Y022954D01*
X009606Y022757D01*
X009779Y022757D01*
X009808Y022769D01*
X009830Y022791D01*
X009842Y022820D01*
X009842Y022954D01*
X009606Y022954D01*
X009606Y023033D01*
X009842Y023033D01*
X009842Y023167D01*
X009842Y023103D02*
X010082Y023103D01*
X010004Y023026D02*
X009606Y023026D01*
X009606Y023103D02*
X009527Y023103D01*
X009527Y023033D02*
X009527Y023230D01*
X009354Y023230D01*
X009325Y023218D01*
X009303Y023196D01*
X009291Y023167D01*
X009291Y023033D01*
X009527Y023033D01*
X009527Y023026D02*
X009035Y023026D01*
X009035Y023103D02*
X009291Y023103D01*
X009297Y023180D02*
X009035Y023180D01*
X008858Y023230D02*
X008858Y023978D01*
X008858Y022344D01*
X009173Y022029D01*
X009232Y022408D02*
X009045Y022408D01*
X009035Y022485D02*
X009232Y022485D01*
X009232Y022562D02*
X009035Y022562D01*
X009035Y022639D02*
X009232Y022639D01*
X009292Y022717D02*
X009035Y022717D01*
X009035Y022794D02*
X009302Y022794D01*
X009291Y022871D02*
X009035Y022871D01*
X009035Y022948D02*
X009291Y022948D01*
X009527Y022948D02*
X009606Y022948D01*
X009606Y022871D02*
X009527Y022871D01*
X009527Y022794D02*
X009606Y022794D01*
X009831Y022794D02*
X009901Y022794D01*
X009903Y022871D02*
X009842Y022871D01*
X009842Y022948D02*
X009935Y022948D01*
X009901Y022717D02*
X009842Y022717D01*
X009567Y022442D02*
X010122Y022442D01*
X010141Y022423D01*
X009606Y023180D02*
X009527Y023180D01*
X008858Y023230D02*
X008287Y022895D01*
X008440Y023190D02*
X008033Y023190D01*
X007952Y023110D01*
X007952Y022681D01*
X008013Y022620D01*
X007952Y022558D01*
X007952Y022508D01*
X007791Y022501D01*
X007722Y022501D01*
X007719Y022499D01*
X007715Y022498D01*
X007667Y022447D01*
X007663Y022443D01*
X007661Y022444D01*
X007535Y022444D01*
X007419Y022395D01*
X007342Y022319D01*
X007342Y026956D01*
X007342Y026956D01*
X007342Y024143D01*
X007381Y024049D01*
X007480Y023951D01*
X007552Y023879D01*
X007646Y023840D01*
X007864Y023840D01*
X007864Y023724D01*
X007945Y023643D01*
X008275Y023643D01*
X008342Y023710D01*
X008360Y023702D01*
X008469Y023702D01*
X008469Y023963D01*
X008499Y023963D01*
X008499Y023702D01*
X008608Y023702D01*
X008626Y023710D01*
X008681Y023655D01*
X008681Y023331D01*
X008440Y023190D01*
X008555Y023257D02*
X007342Y023257D01*
X007342Y023180D02*
X008023Y023180D01*
X007952Y023103D02*
X007342Y023103D01*
X007342Y023026D02*
X007952Y023026D01*
X007952Y022948D02*
X007342Y022948D01*
X007342Y022871D02*
X007952Y022871D01*
X007952Y022794D02*
X007342Y022794D01*
X007342Y022717D02*
X007952Y022717D01*
X007994Y022639D02*
X007342Y022639D01*
X007342Y022562D02*
X007956Y022562D01*
X007702Y022485D02*
X007342Y022485D01*
X007342Y022408D02*
X007448Y022408D01*
X007354Y022330D02*
X007342Y022330D01*
X007598Y022127D02*
X007795Y022324D01*
X008287Y022344D01*
X008681Y023335D02*
X007342Y023335D01*
X007342Y023412D02*
X008681Y023412D01*
X008681Y023489D02*
X007342Y023489D01*
X007342Y023566D02*
X008681Y023566D01*
X008681Y023644D02*
X008276Y023644D01*
X008287Y023505D02*
X008484Y023702D01*
X008484Y023978D01*
X008469Y023952D02*
X008499Y023952D01*
X008499Y023875D02*
X008469Y023875D01*
X008469Y023798D02*
X008499Y023798D01*
X008499Y023721D02*
X008469Y023721D01*
X008287Y023505D02*
X007598Y023505D01*
X007598Y023604D01*
X007342Y023644D02*
X007944Y023644D01*
X007867Y023721D02*
X007342Y023721D01*
X007342Y023798D02*
X007864Y023798D01*
X007561Y023875D02*
X007342Y023875D01*
X007342Y023952D02*
X007478Y023952D01*
X007401Y024030D02*
X007342Y024030D01*
X007342Y024107D02*
X007357Y024107D01*
X007342Y024184D02*
X007342Y024184D01*
X007342Y024261D02*
X007342Y024261D01*
X007342Y024339D02*
X007342Y024339D01*
X007342Y024416D02*
X007342Y024416D01*
X007342Y024493D02*
X007342Y024493D01*
X007342Y024570D02*
X007342Y024570D01*
X007342Y024648D02*
X007342Y024648D01*
X007342Y024725D02*
X007342Y024725D01*
X007342Y024802D02*
X007342Y024802D01*
X007342Y024879D02*
X007342Y024879D01*
X007342Y024957D02*
X007342Y024957D01*
X007342Y025034D02*
X007342Y025034D01*
X007342Y025111D02*
X007342Y025111D01*
X007342Y025188D02*
X007342Y025188D01*
X007342Y025266D02*
X007342Y025266D01*
X007342Y025343D02*
X007342Y025343D01*
X007342Y025420D02*
X007342Y025420D01*
X007342Y025497D02*
X007342Y025497D01*
X007342Y025575D02*
X007342Y025575D01*
X007342Y025652D02*
X007342Y025652D01*
X007342Y025729D02*
X007342Y025729D01*
X007342Y025806D02*
X007342Y025806D01*
X007342Y025883D02*
X007342Y025883D01*
X007342Y025961D02*
X007342Y025961D01*
X007342Y026038D02*
X007342Y026038D01*
X007342Y026115D02*
X007342Y026115D01*
X007342Y026192D02*
X007342Y026192D01*
X007342Y026270D02*
X007342Y026270D01*
X007342Y026347D02*
X007342Y026347D01*
X007342Y026424D02*
X007342Y026424D01*
X007342Y026501D02*
X007342Y026501D01*
X007342Y026579D02*
X007342Y026579D01*
X007342Y026656D02*
X007342Y026656D01*
X007342Y026733D02*
X007342Y026733D01*
X007342Y026810D02*
X007342Y026810D01*
X007342Y026888D02*
X007342Y026888D01*
X007888Y027274D02*
X007913Y027274D01*
X007962Y027351D02*
X007841Y027351D01*
X008504Y026965D02*
X008523Y026965D01*
X008523Y026888D02*
X008504Y026888D01*
X008504Y026810D02*
X008534Y026810D01*
X008442Y026733D02*
X009854Y026733D01*
X009777Y026656D02*
X008307Y026656D01*
X008307Y026270D02*
X008602Y026270D01*
X008602Y026192D02*
X008307Y026192D01*
X008307Y026115D02*
X008637Y026115D01*
X008578Y026038D02*
X008307Y026038D01*
X008307Y025961D02*
X008543Y025961D01*
X008543Y025883D02*
X008307Y025883D01*
X008307Y025806D02*
X008543Y025806D01*
X008543Y025729D02*
X008307Y025729D01*
X008307Y025652D02*
X008543Y025652D01*
X008543Y025575D02*
X008307Y025575D01*
X008307Y025497D02*
X008620Y025497D01*
X008700Y025420D02*
X008307Y025420D01*
X008307Y025343D02*
X008700Y025343D01*
X008622Y025266D02*
X008346Y025266D01*
X008356Y025188D02*
X008612Y025188D01*
X008612Y025111D02*
X008356Y025111D01*
X008366Y025034D02*
X008612Y025034D01*
X008612Y024957D02*
X008366Y024957D01*
X008366Y024879D02*
X008612Y024879D01*
X008612Y024802D02*
X008366Y024802D01*
X008366Y024725D02*
X008634Y024725D01*
X008366Y024648D02*
X011279Y024648D01*
X011279Y024570D02*
X008366Y024570D01*
X008369Y024493D02*
X011279Y024493D01*
X011279Y024416D02*
X008351Y024416D01*
X008303Y024339D02*
X011279Y024339D01*
X012244Y024107D02*
X012263Y024107D01*
X012263Y024030D02*
X012244Y024030D01*
X012244Y023952D02*
X012276Y023952D01*
X012317Y023875D02*
X012226Y023875D01*
X012244Y023798D02*
X012263Y023798D01*
X012263Y023721D02*
X012244Y023721D01*
X012244Y023644D02*
X012263Y023644D01*
X012412Y022330D02*
X014228Y022330D01*
X014193Y022717D02*
X014173Y022717D01*
X014173Y022794D02*
X014193Y022794D01*
X014193Y022871D02*
X014151Y022871D01*
X014488Y023171D02*
X014586Y023269D01*
X014960Y023269D01*
X015393Y023702D01*
X015098Y023798D02*
X014464Y023798D01*
X014508Y023875D02*
X015098Y023875D01*
X015098Y023952D02*
X014508Y023952D01*
X014508Y024030D02*
X015172Y024030D01*
X015179Y024057D02*
X015608Y024057D01*
X015689Y024137D01*
X015689Y024645D01*
X015608Y024726D01*
X015531Y024726D01*
X015572Y024824D01*
X015572Y024942D01*
X015527Y025051D01*
X015443Y025135D01*
X015334Y025180D01*
X015216Y025180D01*
X015107Y025135D01*
X015024Y025051D01*
X014979Y024942D01*
X014979Y024824D01*
X015024Y024715D01*
X015098Y024641D01*
X015098Y024137D01*
X015179Y024057D01*
X015128Y024107D02*
X014508Y024107D01*
X014508Y024184D02*
X015098Y024184D01*
X015098Y024261D02*
X014508Y024261D01*
X014508Y024339D02*
X015098Y024339D01*
X015098Y024416D02*
X014508Y024416D01*
X014443Y024493D02*
X015098Y024493D01*
X015098Y024570D02*
X014291Y024570D01*
X014349Y024648D02*
X015092Y024648D01*
X015020Y024725D02*
X014426Y024725D01*
X014429Y024802D02*
X014988Y024802D01*
X014979Y024879D02*
X014429Y024879D01*
X014429Y024957D02*
X014985Y024957D01*
X015017Y025034D02*
X014429Y025034D01*
X014429Y025111D02*
X015084Y025111D01*
X015275Y024883D02*
X015275Y024391D01*
X015393Y024391D01*
X015689Y024416D02*
X015905Y024416D01*
X015905Y024431D02*
X015905Y024352D01*
X015708Y024352D01*
X015708Y024179D01*
X015720Y024150D01*
X015742Y024128D01*
X015771Y024116D01*
X015905Y024116D01*
X015905Y024352D01*
X015984Y024352D01*
X015984Y024431D01*
X015905Y024431D01*
X015905Y024667D01*
X015771Y024667D01*
X015742Y024655D01*
X015720Y024633D01*
X015708Y024604D01*
X015708Y024431D01*
X015905Y024431D01*
X015905Y024493D02*
X015984Y024493D01*
X015984Y024431D02*
X015984Y024667D01*
X016118Y024667D01*
X016147Y024655D01*
X016169Y024633D01*
X016181Y024604D01*
X016181Y024431D01*
X015984Y024431D01*
X015984Y024416D02*
X016673Y024416D01*
X016673Y024493D02*
X016181Y024493D01*
X016181Y024570D02*
X016673Y024570D01*
X016627Y024648D02*
X016154Y024648D01*
X015984Y024648D02*
X015905Y024648D01*
X015905Y024570D02*
X015984Y024570D01*
X015984Y024352D02*
X016181Y024352D01*
X016181Y024179D01*
X016169Y024150D01*
X016147Y024128D01*
X016118Y024116D01*
X015984Y024116D01*
X015984Y024352D01*
X015984Y024339D02*
X015905Y024339D01*
X015905Y024261D02*
X015984Y024261D01*
X015984Y024184D02*
X015905Y024184D01*
X015708Y024184D02*
X015689Y024184D01*
X015689Y024261D02*
X015708Y024261D01*
X015708Y024339D02*
X015689Y024339D01*
X015689Y024493D02*
X015708Y024493D01*
X015708Y024570D02*
X015689Y024570D01*
X015686Y024648D02*
X015735Y024648D01*
X015609Y024725D02*
X016548Y024725D01*
X016469Y024802D02*
X015563Y024802D01*
X015572Y024879D02*
X016391Y024879D01*
X016312Y024957D02*
X015566Y024957D01*
X015534Y025034D02*
X016234Y025034D01*
X016155Y025111D02*
X015467Y025111D01*
X015841Y025420D02*
X014429Y025420D01*
X014429Y025343D02*
X015919Y025343D01*
X015998Y025266D02*
X014429Y025266D01*
X014429Y025188D02*
X016076Y025188D01*
X016324Y025497D02*
X016673Y025497D01*
X016673Y025420D02*
X016402Y025420D01*
X016481Y025343D02*
X016673Y025343D01*
X016726Y025266D02*
X016560Y025266D01*
X016638Y025188D02*
X018460Y025188D01*
X018537Y025111D02*
X016717Y025111D01*
X016795Y025034D02*
X018614Y025034D01*
X018543Y024957D02*
X016874Y024957D01*
X017226Y024879D02*
X017261Y024879D01*
X017277Y025266D02*
X017211Y025266D01*
X017519Y025572D02*
X018031Y025572D01*
X018249Y025343D02*
X018346Y025343D01*
X018346Y025420D02*
X018310Y025420D01*
X018342Y025497D02*
X018346Y025497D01*
X018346Y025638D02*
X018299Y025751D01*
X018210Y025840D01*
X018094Y025889D01*
X017968Y025889D01*
X017852Y025840D01*
X017815Y025803D01*
X017815Y025826D01*
X017734Y025907D01*
X017725Y025907D01*
X017730Y026107D01*
X017806Y026183D01*
X017820Y026216D01*
X017832Y026197D01*
X017868Y026161D01*
X017910Y026133D01*
X017957Y026114D01*
X018006Y026104D01*
X018011Y026104D01*
X018011Y026340D01*
X018051Y026340D01*
X018051Y026104D01*
X018056Y026104D01*
X018106Y026114D01*
X018152Y026133D01*
X018194Y026161D01*
X018230Y026197D01*
X018242Y026215D01*
X018256Y026181D01*
X018345Y026093D01*
X018346Y026092D01*
X018346Y025638D01*
X018341Y025652D02*
X018346Y025652D01*
X018346Y025729D02*
X018309Y025729D01*
X018346Y025806D02*
X018244Y025806D01*
X018346Y025883D02*
X018106Y025883D01*
X017956Y025883D02*
X017757Y025883D01*
X017726Y025961D02*
X018346Y025961D01*
X018346Y026038D02*
X017728Y026038D01*
X017738Y026115D02*
X017953Y026115D01*
X018011Y026115D02*
X018051Y026115D01*
X018110Y026115D02*
X018322Y026115D01*
X018252Y026192D02*
X018226Y026192D01*
X018051Y026192D02*
X018011Y026192D01*
X018011Y026270D02*
X018051Y026270D01*
X018051Y026379D02*
X018011Y026379D01*
X018011Y026616D01*
X018006Y026616D01*
X017957Y026606D01*
X017910Y026586D01*
X017868Y026558D01*
X017832Y026523D01*
X017821Y026505D01*
X017806Y026540D01*
X017717Y026629D01*
X017716Y026629D01*
X017716Y026778D01*
X018006Y027068D01*
X026914Y027068D01*
X027263Y026720D01*
X027262Y026718D01*
X027262Y026592D01*
X027310Y026476D01*
X027399Y026387D01*
X027516Y026339D01*
X027641Y026339D01*
X027758Y026387D01*
X027846Y026476D01*
X027895Y026592D01*
X027895Y026718D01*
X027846Y026834D01*
X027758Y026923D01*
X027641Y026971D01*
X027516Y026971D01*
X027514Y026970D01*
X027165Y027319D01*
X027081Y027403D01*
X032657Y027403D01*
X032657Y021773D01*
X024432Y021773D01*
X025284Y022625D01*
X025344Y022565D01*
X025452Y022520D01*
X025570Y022520D01*
X025679Y022565D01*
X025763Y022648D01*
X025808Y022757D01*
X025808Y022875D01*
X025763Y022984D01*
X025679Y023068D01*
X025610Y023097D01*
X025610Y023106D01*
X025806Y023106D01*
X025886Y023187D01*
X025886Y023230D01*
X025958Y023230D01*
X026023Y023165D01*
X026023Y023092D01*
X025947Y023092D01*
X025866Y023011D01*
X025866Y022582D01*
X025947Y022501D01*
X026454Y022501D01*
X026535Y022582D01*
X026535Y023011D01*
X026454Y023092D01*
X026378Y023092D01*
X026378Y023165D01*
X026452Y023239D01*
X026497Y023348D01*
X026497Y023407D01*
X026653Y023407D01*
X026653Y023370D01*
X026734Y023289D01*
X027242Y023289D01*
X027323Y023370D01*
X027323Y023799D01*
X027301Y023820D01*
X028745Y023820D01*
X028787Y023720D01*
X028876Y023631D01*
X028992Y023583D01*
X029118Y023583D01*
X029234Y023631D01*
X029323Y023720D01*
X029371Y023836D01*
X029371Y023962D01*
X029323Y024078D01*
X029234Y024167D01*
X029118Y024215D01*
X028992Y024215D01*
X028894Y024175D01*
X025635Y024175D01*
X025531Y024071D01*
X025531Y024071D01*
X025359Y023899D01*
X025256Y023795D01*
X025256Y023772D01*
X025098Y023772D01*
X025098Y023952D01*
X025172Y024026D01*
X025217Y024135D01*
X025217Y024253D01*
X025172Y024362D01*
X025124Y024411D01*
X029187Y024411D01*
X029665Y024013D01*
X029665Y022836D01*
X028998Y022836D01*
X028917Y022755D01*
X028917Y022011D01*
X028998Y021931D01*
X030687Y021931D01*
X030767Y022011D01*
X030767Y022755D01*
X030687Y022836D01*
X030019Y022836D01*
X030019Y024032D01*
X030025Y024039D01*
X030019Y024104D01*
X030019Y024169D01*
X030013Y024176D01*
X030012Y024185D01*
X029962Y024227D01*
X029916Y024273D01*
X029906Y024273D01*
X029371Y024719D01*
X029325Y024765D01*
X029316Y024765D01*
X029309Y024771D01*
X029244Y024765D01*
X028006Y024765D01*
X028043Y024803D01*
X028091Y024919D01*
X028091Y025045D01*
X028043Y025161D01*
X027954Y025250D01*
X027838Y025298D01*
X027712Y025298D01*
X027596Y025250D01*
X027507Y025161D01*
X027506Y025159D01*
X027289Y025159D01*
X027338Y025207D01*
X027383Y025316D01*
X027383Y025434D01*
X027338Y025543D01*
X027254Y025627D01*
X027145Y025672D01*
X027027Y025672D01*
X026918Y025627D01*
X026844Y025553D01*
X025827Y025553D01*
X025827Y025737D01*
X025827Y025947D01*
X025815Y025976D01*
X025793Y025999D01*
X025764Y026011D01*
X025689Y026011D01*
X025689Y025737D01*
X025827Y025737D01*
X025689Y025737D01*
X025689Y025737D01*
X025689Y025737D01*
X025689Y026011D01*
X025613Y026011D01*
X025610Y026009D01*
X025610Y026009D01*
X025610Y026315D01*
X025506Y026419D01*
X024994Y026931D01*
X018844Y026931D01*
X018740Y026827D01*
X018587Y026674D01*
X018586Y026675D01*
X018461Y026675D01*
X018345Y026627D01*
X018256Y026538D01*
X018242Y026504D01*
X018230Y026523D01*
X018194Y026558D01*
X018152Y026586D01*
X018106Y026606D01*
X018056Y026616D01*
X018051Y026616D01*
X018051Y026379D01*
X018051Y026424D02*
X018011Y026424D01*
X018011Y026501D02*
X018051Y026501D01*
X018051Y026579D02*
X018011Y026579D01*
X017898Y026579D02*
X017767Y026579D01*
X017716Y026656D02*
X018415Y026656D01*
X018297Y026579D02*
X018164Y026579D01*
X018523Y026360D02*
X018523Y025375D01*
X018720Y025179D01*
X021181Y025179D01*
X021378Y025375D01*
X021653Y025266D02*
X022297Y025266D01*
X022235Y025321D02*
X022126Y025276D01*
X022008Y025276D01*
X021899Y025321D01*
X021815Y025404D01*
X021770Y025513D01*
X021770Y025618D01*
X021693Y025696D01*
X021693Y026281D01*
X019324Y026281D01*
X019282Y026181D01*
X019194Y026093D01*
X019078Y026045D01*
X018953Y026045D01*
X018837Y026093D01*
X018769Y026160D01*
X018702Y026093D01*
X018700Y026092D01*
X018700Y025449D01*
X018794Y025356D01*
X021081Y025356D01*
X021081Y025434D01*
X021126Y025543D01*
X021210Y025627D01*
X021319Y025672D01*
X021437Y025672D01*
X021546Y025627D01*
X021629Y025543D01*
X021674Y025434D01*
X021674Y025316D01*
X021629Y025207D01*
X021546Y025124D01*
X021437Y025079D01*
X021332Y025079D01*
X021313Y025060D01*
X022092Y025060D01*
X022972Y025941D01*
X023076Y026045D01*
X024011Y026045D01*
X024036Y026070D01*
X024270Y026070D01*
X024281Y026059D01*
X024292Y026070D01*
X024526Y026070D01*
X024537Y026059D01*
X024548Y026070D01*
X024782Y026070D01*
X024793Y026059D01*
X024804Y026070D01*
X024961Y026070D01*
X024749Y026281D01*
X022047Y026281D01*
X022047Y025869D01*
X022126Y025869D01*
X022235Y025824D01*
X022318Y025740D01*
X022363Y025631D01*
X022363Y025513D01*
X022318Y025404D01*
X022235Y025321D01*
X022256Y025343D02*
X022374Y025343D01*
X022325Y025420D02*
X022451Y025420D01*
X022528Y025497D02*
X022357Y025497D01*
X022363Y025575D02*
X022606Y025575D01*
X022683Y025652D02*
X022355Y025652D01*
X022323Y025729D02*
X022760Y025729D01*
X022837Y025806D02*
X022252Y025806D01*
X022047Y025883D02*
X022915Y025883D01*
X022992Y025961D02*
X022047Y025961D01*
X022047Y026038D02*
X023069Y026038D01*
X023149Y025868D02*
X024022Y025868D01*
X024153Y025737D01*
X023955Y025652D02*
X023686Y025652D01*
X023724Y025575D02*
X023955Y025575D01*
X023955Y025497D02*
X023741Y025497D01*
X023741Y025420D02*
X023956Y025420D01*
X023881Y025343D02*
X023711Y025343D01*
X023656Y025266D02*
X023849Y025266D01*
X023837Y025188D02*
X023530Y025188D01*
X023332Y025111D02*
X023841Y025111D01*
X023873Y025034D02*
X023255Y025034D01*
X023178Y024957D02*
X023936Y024957D01*
X024097Y024802D02*
X023023Y024802D01*
X022946Y024725D02*
X024020Y024725D01*
X023943Y024648D02*
X022869Y024648D01*
X022792Y024570D02*
X022993Y024570D01*
X022902Y024493D02*
X022714Y024493D01*
X022637Y024416D02*
X022858Y024416D01*
X022833Y024339D02*
X021153Y024339D01*
X021200Y024261D02*
X021407Y024261D01*
X021653Y024076D02*
X020826Y024076D01*
X020452Y024107D02*
X018883Y024107D01*
X018806Y024030D02*
X020452Y024030D01*
X020452Y023952D02*
X020299Y023952D01*
X020334Y023875D02*
X020452Y023875D01*
X020516Y023798D02*
X020334Y023798D01*
X020334Y023721D02*
X021381Y023721D01*
X021431Y023651D02*
X021409Y023629D01*
X021397Y023600D01*
X021397Y023466D01*
X021634Y023466D01*
X021634Y023663D01*
X021460Y023663D01*
X021431Y023651D01*
X021424Y023644D02*
X020334Y023644D01*
X020334Y023566D02*
X021397Y023566D01*
X021397Y023489D02*
X021141Y023489D01*
X021141Y023501D02*
X021129Y023530D01*
X021107Y023552D01*
X021078Y023564D01*
X020866Y023564D01*
X020866Y023368D01*
X020787Y023368D01*
X020787Y023564D01*
X020575Y023564D01*
X020546Y023552D01*
X020523Y023530D01*
X020511Y023501D01*
X020511Y023368D01*
X020787Y023368D01*
X020787Y023289D01*
X020511Y023289D01*
X020511Y023155D01*
X020523Y023126D01*
X020546Y023104D01*
X020575Y023092D01*
X020787Y023092D01*
X020787Y023289D01*
X020866Y023289D01*
X020866Y023368D01*
X021141Y023368D01*
X021141Y023501D01*
X021141Y023412D02*
X021634Y023412D01*
X021634Y023387D02*
X021397Y023387D01*
X021397Y023253D01*
X021409Y023225D01*
X021431Y023202D01*
X021460Y023190D01*
X021634Y023190D01*
X021634Y023387D01*
X021712Y023387D01*
X021712Y023190D01*
X021885Y023190D01*
X021914Y023202D01*
X021937Y023225D01*
X021948Y023253D01*
X021948Y023387D01*
X021712Y023387D01*
X021712Y023466D01*
X021634Y023466D01*
X021634Y023387D01*
X021634Y023335D02*
X021712Y023335D01*
X021712Y023412D02*
X022382Y023412D01*
X022382Y023489D02*
X021948Y023489D01*
X021948Y023466D02*
X021948Y023600D01*
X021937Y023629D01*
X021914Y023651D01*
X021885Y023663D01*
X021712Y023663D01*
X021712Y023466D01*
X021948Y023466D01*
X021948Y023566D02*
X022380Y023566D01*
X022240Y023644D02*
X021922Y023644D01*
X021965Y023721D02*
X022101Y023721D01*
X021968Y023997D02*
X021673Y023978D01*
X021653Y024076D01*
X021968Y023997D02*
X022677Y023604D01*
X022397Y023335D02*
X021948Y023335D01*
X021948Y023257D02*
X023955Y023257D01*
X023963Y023180D02*
X021141Y023180D01*
X021141Y023155D02*
X021141Y023289D01*
X020866Y023289D01*
X020866Y023092D01*
X021078Y023092D01*
X021107Y023104D01*
X021129Y023126D01*
X021141Y023155D01*
X021105Y023103D02*
X024071Y023103D01*
X023994Y023026D02*
X019844Y023026D01*
X019767Y023103D02*
X020548Y023103D01*
X020511Y023180D02*
X019690Y023180D01*
X019606Y023013D02*
X020000Y022620D01*
X023838Y022620D01*
X024409Y023190D01*
X024409Y023439D01*
X024153Y023439D02*
X023989Y023604D01*
X023228Y023604D01*
X023523Y023412D02*
X023930Y023412D01*
X023955Y023335D02*
X023508Y023335D01*
X023917Y022948D02*
X019921Y022948D01*
X019999Y022871D02*
X023839Y022871D01*
X024109Y022639D02*
X024170Y022639D01*
X024186Y022717D02*
X024248Y022717D01*
X024263Y022794D02*
X024309Y022794D01*
X024309Y022779D02*
X023835Y022305D01*
X016735Y022305D01*
X016582Y022457D01*
X016590Y022475D01*
X016602Y022456D01*
X016638Y022421D01*
X016680Y022393D01*
X016726Y022373D01*
X016776Y022364D01*
X016781Y022364D01*
X016781Y022600D01*
X016821Y022600D01*
X016821Y022364D01*
X016826Y022364D01*
X016875Y022373D01*
X016922Y022393D01*
X016964Y022421D01*
X017000Y022456D01*
X017012Y022475D01*
X017026Y022441D01*
X017115Y022353D01*
X017230Y022305D01*
X017356Y022305D01*
X017471Y022353D01*
X017539Y022420D01*
X017607Y022353D01*
X017722Y022305D01*
X017848Y022305D01*
X017964Y022353D01*
X018031Y022420D01*
X018099Y022353D01*
X018215Y022305D01*
X018340Y022305D01*
X018456Y022353D01*
X018544Y022441D01*
X018556Y022471D01*
X018663Y022364D01*
X018750Y022364D01*
X018750Y022600D01*
X018789Y022600D01*
X018789Y022639D01*
X019025Y022639D01*
X019025Y022726D01*
X018915Y022836D01*
X019533Y022836D01*
X019823Y022546D01*
X019926Y022442D01*
X023912Y022442D01*
X024309Y022840D01*
X024309Y022779D01*
X024093Y022562D02*
X024031Y022562D01*
X024016Y022485D02*
X023954Y022485D01*
X023939Y022408D02*
X018919Y022408D01*
X018875Y022364D02*
X019025Y022514D01*
X019025Y022600D01*
X018789Y022600D01*
X018789Y022364D01*
X018875Y022364D01*
X018789Y022408D02*
X018750Y022408D01*
X018750Y022485D02*
X018789Y022485D01*
X018789Y022562D02*
X018750Y022562D01*
X018619Y022408D02*
X018511Y022408D01*
X018402Y022330D02*
X023861Y022330D01*
X024448Y021790D02*
X032657Y021790D01*
X032657Y021867D02*
X024526Y021867D01*
X024603Y021944D02*
X028984Y021944D01*
X028917Y022021D02*
X026442Y022021D01*
X026464Y022043D01*
X026476Y022072D01*
X026476Y022206D01*
X026240Y022206D01*
X026240Y022285D01*
X026476Y022285D01*
X026476Y022419D01*
X026464Y022448D01*
X026442Y022470D01*
X026413Y022482D01*
X026240Y022482D01*
X026240Y022285D01*
X026161Y022285D01*
X026161Y022482D01*
X025988Y022482D01*
X025959Y022470D01*
X025937Y022448D01*
X025925Y022419D01*
X025925Y022285D01*
X026161Y022285D01*
X026161Y022206D01*
X026240Y022206D01*
X026240Y022009D01*
X026413Y022009D01*
X026442Y022021D01*
X026476Y022099D02*
X028917Y022099D01*
X028917Y022176D02*
X026476Y022176D01*
X026476Y022330D02*
X028917Y022330D01*
X028917Y022253D02*
X026240Y022253D01*
X026240Y022176D02*
X026161Y022176D01*
X026161Y022206D02*
X026161Y022009D01*
X025988Y022009D01*
X025959Y022021D01*
X025937Y022043D01*
X025925Y022072D01*
X025925Y022206D01*
X026161Y022206D01*
X026161Y022253D02*
X024912Y022253D01*
X024989Y022330D02*
X025925Y022330D01*
X025925Y022408D02*
X025066Y022408D01*
X025143Y022485D02*
X028917Y022485D01*
X028917Y022562D02*
X026515Y022562D01*
X026535Y022639D02*
X028917Y022639D01*
X028917Y022717D02*
X026535Y022717D01*
X026535Y022794D02*
X028956Y022794D01*
X028917Y022408D02*
X026476Y022408D01*
X026240Y022408D02*
X026161Y022408D01*
X026161Y022330D02*
X026240Y022330D01*
X026240Y022099D02*
X026161Y022099D01*
X026161Y022021D02*
X026240Y022021D01*
X025959Y022021D02*
X024680Y022021D01*
X024757Y022099D02*
X025925Y022099D01*
X025925Y022176D02*
X024834Y022176D01*
X025221Y022562D02*
X025350Y022562D01*
X025511Y022816D02*
X025433Y022994D01*
X025433Y023439D01*
X025433Y023722D01*
X025708Y023997D01*
X028956Y023997D01*
X029055Y023899D01*
X029343Y024030D02*
X029645Y024030D01*
X029665Y023952D02*
X029371Y023952D01*
X029371Y023875D02*
X029665Y023875D01*
X029665Y023798D02*
X029355Y023798D01*
X029323Y023721D02*
X029665Y023721D01*
X029665Y023644D02*
X029246Y023644D01*
X028863Y023644D02*
X027323Y023644D01*
X027323Y023721D02*
X028786Y023721D01*
X028754Y023798D02*
X027323Y023798D01*
X027323Y023566D02*
X029665Y023566D01*
X029665Y023489D02*
X027323Y023489D01*
X027323Y023412D02*
X029665Y023412D01*
X029665Y023335D02*
X027288Y023335D01*
X027229Y023257D02*
X027200Y023269D01*
X027027Y023269D01*
X027027Y023072D01*
X026948Y023072D01*
X026948Y022994D01*
X026712Y022994D01*
X026712Y022860D01*
X026724Y022831D01*
X026746Y022809D01*
X026775Y022797D01*
X026948Y022797D01*
X026948Y022994D01*
X027027Y022994D01*
X027027Y023072D01*
X027263Y023072D01*
X027263Y023206D01*
X027251Y023235D01*
X027229Y023257D01*
X029665Y023257D01*
X029665Y023180D02*
X027263Y023180D01*
X027263Y023103D02*
X029665Y023103D01*
X029665Y023026D02*
X027027Y023026D01*
X027027Y022994D02*
X027263Y022994D01*
X027263Y022860D01*
X027251Y022831D01*
X027229Y022809D01*
X027200Y022797D01*
X027027Y022797D01*
X027027Y022994D01*
X027027Y022948D02*
X026948Y022948D01*
X026948Y022871D02*
X027027Y022871D01*
X026948Y023026D02*
X026521Y023026D01*
X026535Y022948D02*
X026712Y022948D01*
X026712Y022871D02*
X026535Y022871D01*
X026712Y023072D02*
X026948Y023072D01*
X026948Y023269D01*
X026775Y023269D01*
X026746Y023257D01*
X026724Y023235D01*
X026712Y023206D01*
X026712Y023072D01*
X026712Y023103D02*
X026378Y023103D01*
X026393Y023180D02*
X026712Y023180D01*
X026747Y023257D02*
X026459Y023257D01*
X026491Y023335D02*
X026688Y023335D01*
X026948Y023257D02*
X027027Y023257D01*
X027027Y023180D02*
X026948Y023180D01*
X026948Y023103D02*
X027027Y023103D01*
X027263Y022948D02*
X029665Y022948D01*
X029665Y022871D02*
X027263Y022871D01*
X026988Y023584D02*
X026378Y023584D01*
X026200Y023407D01*
X026200Y022797D01*
X025866Y022794D02*
X025808Y022794D01*
X025808Y022871D02*
X025866Y022871D01*
X025866Y022948D02*
X025778Y022948D01*
X025722Y023026D02*
X025880Y023026D01*
X025879Y023180D02*
X026008Y023180D01*
X026023Y023103D02*
X025610Y023103D01*
X025721Y023407D02*
X025689Y023439D01*
X025689Y023427D01*
X025721Y023407D02*
X026200Y023407D01*
X025567Y024107D02*
X025206Y024107D01*
X025217Y024184D02*
X028917Y024184D01*
X029193Y024184D02*
X029459Y024184D01*
X029367Y024261D02*
X025214Y024261D01*
X025182Y024339D02*
X029274Y024339D01*
X029294Y024107D02*
X029552Y024107D01*
X029842Y024096D02*
X029842Y022383D01*
X030019Y022871D02*
X032657Y022871D01*
X032657Y022794D02*
X030729Y022794D01*
X030767Y022717D02*
X032657Y022717D01*
X032657Y022639D02*
X030767Y022639D01*
X030767Y022562D02*
X032657Y022562D01*
X032657Y022485D02*
X030767Y022485D01*
X030767Y022408D02*
X032657Y022408D01*
X032657Y022330D02*
X030767Y022330D01*
X030767Y022253D02*
X032657Y022253D01*
X032657Y022176D02*
X030767Y022176D01*
X030767Y022099D02*
X032657Y022099D01*
X032657Y022021D02*
X030767Y022021D01*
X030700Y021944D02*
X032657Y021944D01*
X032657Y022948D02*
X030019Y022948D01*
X030019Y023026D02*
X032657Y023026D01*
X032657Y023103D02*
X030019Y023103D01*
X030019Y023180D02*
X032657Y023180D01*
X032657Y023257D02*
X030019Y023257D01*
X030019Y023335D02*
X032657Y023335D01*
X032657Y023412D02*
X030019Y023412D01*
X030019Y023489D02*
X032657Y023489D01*
X032657Y023566D02*
X030019Y023566D01*
X030019Y023644D02*
X032657Y023644D01*
X032657Y023721D02*
X030019Y023721D01*
X030019Y023798D02*
X032657Y023798D01*
X032657Y023875D02*
X030019Y023875D01*
X030019Y023952D02*
X032657Y023952D01*
X032657Y024030D02*
X030019Y024030D01*
X030019Y024107D02*
X032657Y024107D01*
X032657Y024184D02*
X030012Y024184D01*
X029927Y024261D02*
X032657Y024261D01*
X032657Y024339D02*
X029828Y024339D01*
X029735Y024416D02*
X032657Y024416D01*
X032657Y024493D02*
X029642Y024493D01*
X029550Y024570D02*
X032657Y024570D01*
X032657Y024648D02*
X029457Y024648D01*
X029365Y024725D02*
X032657Y024725D01*
X032657Y024802D02*
X028043Y024802D01*
X028075Y024879D02*
X032657Y024879D01*
X032657Y024957D02*
X028091Y024957D01*
X028091Y025034D02*
X032657Y025034D01*
X032657Y025111D02*
X028064Y025111D01*
X028016Y025188D02*
X032657Y025188D01*
X032657Y025266D02*
X027916Y025266D01*
X027634Y025266D02*
X027362Y025266D01*
X027383Y025343D02*
X032657Y025343D01*
X032657Y025420D02*
X027383Y025420D01*
X027357Y025497D02*
X031247Y025497D01*
X031238Y025501D02*
X031354Y025453D01*
X031480Y025453D01*
X031596Y025501D01*
X031685Y025590D01*
X031733Y025706D01*
X031733Y025832D01*
X031685Y025948D01*
X031596Y026037D01*
X031480Y026085D01*
X031354Y026085D01*
X031352Y026085D01*
X030767Y026669D01*
X030767Y027165D01*
X030687Y027246D01*
X028998Y027246D01*
X028917Y027165D01*
X028917Y026421D01*
X028998Y026340D01*
X030596Y026340D01*
X031102Y025834D01*
X031101Y025832D01*
X031101Y025706D01*
X031149Y025590D01*
X031238Y025501D01*
X031164Y025575D02*
X027307Y025575D01*
X027194Y025652D02*
X031123Y025652D01*
X031101Y025729D02*
X025827Y025729D01*
X025827Y025652D02*
X026979Y025652D01*
X026866Y025575D02*
X025827Y025575D01*
X025689Y025737D02*
X025918Y025966D01*
X026397Y025769D01*
X025905Y025953D02*
X025905Y026360D01*
X025610Y026270D02*
X030666Y026270D01*
X030743Y026192D02*
X025610Y026192D01*
X025610Y026115D02*
X030820Y026115D01*
X030898Y026038D02*
X025610Y026038D01*
X025689Y025961D02*
X025689Y025961D01*
X025689Y025883D02*
X025689Y025883D01*
X025689Y025806D02*
X025689Y025806D01*
X025689Y025737D02*
X025905Y025953D01*
X025822Y025961D02*
X030975Y025961D01*
X031052Y025883D02*
X025827Y025883D01*
X025827Y025806D02*
X031101Y025806D01*
X031417Y025769D02*
X030393Y026793D01*
X029842Y026793D01*
X030767Y026810D02*
X032657Y026810D01*
X032657Y026733D02*
X030767Y026733D01*
X030781Y026656D02*
X032657Y026656D01*
X032657Y026579D02*
X030858Y026579D01*
X030935Y026501D02*
X032657Y026501D01*
X032657Y026424D02*
X031012Y026424D01*
X031090Y026347D02*
X032657Y026347D01*
X032657Y026270D02*
X031167Y026270D01*
X031244Y026192D02*
X032657Y026192D01*
X032657Y026115D02*
X031321Y026115D01*
X031594Y026038D02*
X032657Y026038D01*
X032657Y025961D02*
X031673Y025961D01*
X031712Y025883D02*
X032657Y025883D01*
X032657Y025806D02*
X031733Y025806D01*
X031733Y025729D02*
X032657Y025729D01*
X032657Y025652D02*
X031711Y025652D01*
X031670Y025575D02*
X032657Y025575D01*
X032657Y025497D02*
X031587Y025497D01*
X030767Y026888D02*
X032657Y026888D01*
X032657Y026965D02*
X030767Y026965D01*
X030767Y027042D02*
X032657Y027042D01*
X032657Y027119D02*
X030767Y027119D01*
X030736Y027197D02*
X032657Y027197D01*
X032657Y027274D02*
X027210Y027274D01*
X027133Y027351D02*
X032657Y027351D01*
X029842Y024096D02*
X029252Y024588D01*
X024724Y024588D01*
X024527Y024391D01*
X024527Y023997D01*
X024665Y023860D01*
X024665Y023439D01*
X024921Y023439D02*
X024921Y024194D01*
X025098Y023952D02*
X025413Y023952D01*
X025336Y023875D02*
X025098Y023875D01*
X025098Y023798D02*
X025258Y023798D01*
X025174Y024030D02*
X025490Y024030D01*
X025560Y024879D02*
X025238Y024879D01*
X025289Y024957D02*
X025483Y024957D01*
X025406Y025034D02*
X025316Y025034D01*
X025316Y025111D02*
X025328Y025111D01*
X025019Y025080D02*
X024921Y025179D01*
X024921Y025737D01*
X025177Y025737D02*
X025177Y025513D01*
X025708Y024982D01*
X027775Y024982D01*
X027535Y025188D02*
X027319Y025188D01*
X027086Y025375D02*
X025610Y025375D01*
X025433Y025553D01*
X025433Y025737D01*
X025433Y026242D01*
X024921Y026753D01*
X018917Y026753D01*
X018523Y026360D01*
X018724Y026115D02*
X018814Y026115D01*
X018700Y026038D02*
X021693Y026038D01*
X021693Y026115D02*
X019216Y026115D01*
X019287Y026192D02*
X021693Y026192D01*
X021693Y026270D02*
X019319Y026270D01*
X019114Y026458D02*
X021870Y026458D01*
X021870Y025769D01*
X022067Y025572D01*
X021770Y025575D02*
X021598Y025575D01*
X021648Y025497D02*
X021777Y025497D01*
X021809Y025420D02*
X021674Y025420D01*
X021674Y025343D02*
X021877Y025343D01*
X021610Y025188D02*
X022220Y025188D01*
X022142Y025111D02*
X021514Y025111D01*
X021081Y025420D02*
X018729Y025420D01*
X018700Y025497D02*
X021107Y025497D01*
X021157Y025575D02*
X018700Y025575D01*
X018700Y025652D02*
X021270Y025652D01*
X021485Y025652D02*
X021737Y025652D01*
X021693Y025729D02*
X018700Y025729D01*
X018700Y025806D02*
X021693Y025806D01*
X021693Y025883D02*
X018700Y025883D01*
X018700Y025961D02*
X021693Y025961D01*
X022047Y026115D02*
X024915Y026115D01*
X024838Y026192D02*
X022047Y026192D01*
X022047Y026270D02*
X024760Y026270D01*
X024823Y026458D02*
X021870Y026458D01*
X023149Y025868D02*
X022165Y024883D01*
X018720Y024883D01*
X018425Y024588D01*
X017519Y024588D01*
X017815Y024802D02*
X018388Y024802D01*
X018466Y024879D02*
X017777Y024879D01*
X017762Y025266D02*
X017945Y025266D01*
X018117Y025266D02*
X018383Y025266D01*
X017818Y025806D02*
X017815Y025806D01*
X017810Y026192D02*
X017836Y026192D01*
X017539Y026362D02*
X017539Y026852D01*
X017933Y027246D01*
X026988Y027246D01*
X027578Y026655D01*
X027262Y026656D02*
X025269Y026656D01*
X025192Y026733D02*
X027250Y026733D01*
X027172Y026810D02*
X025114Y026810D01*
X025037Y026888D02*
X027095Y026888D01*
X027018Y026965D02*
X017903Y026965D01*
X017980Y027042D02*
X026941Y027042D01*
X027287Y027197D02*
X028949Y027197D01*
X028917Y027119D02*
X027365Y027119D01*
X027442Y027042D02*
X028917Y027042D01*
X028917Y026965D02*
X027657Y026965D01*
X027793Y026888D02*
X028917Y026888D01*
X028917Y026810D02*
X027856Y026810D01*
X027888Y026733D02*
X028917Y026733D01*
X028917Y026656D02*
X027895Y026656D01*
X027889Y026579D02*
X028917Y026579D01*
X028917Y026501D02*
X027857Y026501D01*
X027795Y026424D02*
X028917Y026424D01*
X028991Y026347D02*
X027661Y026347D01*
X027496Y026347D02*
X025578Y026347D01*
X025501Y026424D02*
X027362Y026424D01*
X027300Y026501D02*
X025423Y026501D01*
X025346Y026579D02*
X027268Y026579D01*
X027508Y024802D02*
X025123Y024802D01*
X024916Y024802D02*
X024598Y024802D01*
X024610Y024725D02*
X024521Y024725D01*
X024533Y024648D02*
X024444Y024648D01*
X024456Y024570D02*
X024366Y024570D01*
X024379Y024493D02*
X024289Y024493D01*
X024350Y024416D02*
X024212Y024416D01*
X024135Y024339D02*
X024350Y024339D01*
X024350Y024261D02*
X024057Y024261D01*
X023980Y024184D02*
X024350Y024184D01*
X024350Y024107D02*
X023411Y024107D01*
X023333Y024030D02*
X024350Y024030D01*
X024350Y023952D02*
X022414Y023952D01*
X022275Y024030D02*
X022965Y024030D01*
X022888Y024107D02*
X022136Y024107D01*
X022008Y024184D02*
X022852Y024184D01*
X022833Y024261D02*
X021938Y024261D01*
X021712Y023644D02*
X021634Y023644D01*
X021634Y023566D02*
X021712Y023566D01*
X021712Y023489D02*
X021634Y023489D01*
X021634Y023257D02*
X021712Y023257D01*
X021397Y023257D02*
X021141Y023257D01*
X021397Y023335D02*
X020866Y023335D01*
X020866Y023412D02*
X020787Y023412D01*
X020787Y023489D02*
X020866Y023489D01*
X020787Y023335D02*
X017799Y023335D01*
X017815Y023412D02*
X019662Y023412D01*
X019862Y023604D02*
X017519Y023604D01*
X017815Y023798D02*
X019586Y023798D01*
X019586Y023875D02*
X017797Y023875D01*
X017342Y024096D02*
X018622Y024096D01*
X019114Y024588D01*
X022559Y024588D01*
X023445Y025474D01*
X023101Y024879D02*
X024174Y024879D01*
X024134Y025179D02*
X024409Y025454D01*
X024409Y025737D01*
X024665Y025737D02*
X024665Y025120D01*
X023838Y024293D01*
X023149Y024293D01*
X023396Y024493D02*
X023788Y024493D01*
X023865Y024570D02*
X023305Y024570D01*
X023506Y023875D02*
X024399Y023875D01*
X024476Y023798D02*
X023523Y023798D01*
X024675Y024879D02*
X024801Y024879D01*
X025177Y025737D02*
X025177Y026104D01*
X024823Y026458D01*
X025791Y022717D02*
X025866Y022717D01*
X025866Y022639D02*
X025754Y022639D01*
X025673Y022562D02*
X025886Y022562D01*
X021338Y023798D02*
X021137Y023798D01*
X021200Y023875D02*
X021338Y023875D01*
X020866Y023257D02*
X020787Y023257D01*
X020787Y023180D02*
X020866Y023180D01*
X020866Y023103D02*
X020787Y023103D01*
X020511Y023257D02*
X016561Y023257D01*
X016484Y023335D02*
X016688Y023335D01*
X016673Y023412D02*
X016407Y023412D01*
X016330Y023489D02*
X016673Y023489D01*
X016673Y023566D02*
X016252Y023566D01*
X016240Y023644D02*
X016673Y023644D01*
X016673Y023721D02*
X016240Y023721D01*
X016240Y023798D02*
X016673Y023798D01*
X016690Y023875D02*
X016240Y023875D01*
X016240Y023952D02*
X016791Y023952D01*
X016791Y024030D02*
X016166Y024030D01*
X016181Y024184D02*
X016791Y024184D01*
X016791Y024107D02*
X015658Y024107D01*
X015615Y024030D02*
X015723Y024030D01*
X015945Y023702D02*
X015964Y023604D01*
X016555Y023013D01*
X019606Y023013D01*
X019575Y022794D02*
X018957Y022794D01*
X019025Y022717D02*
X019652Y022717D01*
X019729Y022639D02*
X019025Y022639D01*
X019025Y022562D02*
X019806Y022562D01*
X019884Y022485D02*
X018997Y022485D01*
X018152Y022330D02*
X017910Y022330D01*
X018019Y022408D02*
X018044Y022408D01*
X017660Y022330D02*
X017418Y022330D01*
X017527Y022408D02*
X017552Y022408D01*
X017168Y022330D02*
X016709Y022330D01*
X016657Y022408D02*
X016632Y022408D01*
X016781Y022408D02*
X016821Y022408D01*
X016821Y022485D02*
X016781Y022485D01*
X016781Y022562D02*
X016821Y022562D01*
X016944Y022408D02*
X017059Y022408D01*
X016369Y022948D02*
X014854Y022948D01*
X014882Y023026D02*
X016292Y023026D01*
X016215Y023103D02*
X015045Y023103D01*
X015122Y023180D02*
X016137Y023180D01*
X016060Y023257D02*
X015199Y023257D01*
X015276Y023335D02*
X015983Y023335D01*
X015686Y023412D02*
X015652Y023412D01*
X015770Y022871D02*
X015518Y022871D01*
X015593Y022794D02*
X015629Y022794D01*
X015797Y022794D02*
X015836Y022794D01*
X015836Y022871D02*
X015797Y022871D01*
X015863Y022871D02*
X016115Y022871D01*
X016040Y022794D02*
X016004Y022794D01*
X015836Y022717D02*
X015797Y022717D01*
X015797Y022639D02*
X015836Y022639D01*
X015836Y022562D02*
X015797Y022562D01*
X015797Y022485D02*
X015836Y022485D01*
X015836Y022408D02*
X015797Y022408D01*
X015673Y022408D02*
X015558Y022408D01*
X015960Y022408D02*
X016075Y022408D01*
X015131Y022871D02*
X014783Y022871D01*
X014783Y022794D02*
X015056Y022794D01*
X015024Y022717D02*
X014783Y022717D01*
X014882Y023489D02*
X014930Y023489D01*
X014878Y023566D02*
X015007Y023566D01*
X016181Y024261D02*
X016746Y024261D01*
X016673Y024339D02*
X016181Y024339D01*
X016968Y024588D02*
X016968Y023604D01*
X018729Y023952D02*
X019622Y023952D01*
X019960Y023702D02*
X019862Y023604D01*
X020258Y023412D02*
X020511Y023412D01*
X020511Y023489D02*
X020334Y023489D01*
X020452Y024184D02*
X018961Y024184D01*
X019038Y024261D02*
X020452Y024261D01*
X020500Y024339D02*
X019115Y024339D01*
X019015Y026360D02*
X019114Y026458D01*
X018723Y026810D02*
X017748Y026810D01*
X017716Y026733D02*
X018646Y026733D01*
X018801Y026888D02*
X017825Y026888D01*
X017479Y027042D02*
X014982Y027042D01*
X015120Y026965D02*
X015351Y026965D01*
X015295Y026888D02*
X015198Y026888D01*
X015233Y026852D02*
X015233Y026852D01*
X015830Y026965D02*
X017402Y026965D01*
X017362Y026888D02*
X016369Y026888D01*
X016366Y026896D02*
X016343Y026919D01*
X016315Y026931D01*
X016181Y026931D01*
X016181Y026694D01*
X016378Y026694D01*
X016378Y026867D01*
X016366Y026896D01*
X016378Y026810D02*
X017362Y026810D01*
X017362Y026733D02*
X016378Y026733D01*
X016378Y026616D02*
X016181Y026616D01*
X016181Y026694D01*
X016102Y026694D01*
X016102Y026616D01*
X015905Y026616D01*
X015905Y026442D01*
X015917Y026414D01*
X015939Y026391D01*
X015968Y026379D01*
X016102Y026379D01*
X016102Y026616D01*
X016181Y026616D01*
X016181Y026379D01*
X016315Y026379D01*
X016343Y026391D01*
X016366Y026414D01*
X016378Y026442D01*
X016378Y026616D01*
X016378Y026579D02*
X016822Y026579D01*
X016745Y026501D02*
X016378Y026501D01*
X016370Y026424D02*
X016732Y026424D01*
X016732Y026347D02*
X015831Y026347D01*
X015885Y026424D02*
X015913Y026424D01*
X015905Y026501D02*
X015885Y026501D01*
X015885Y026579D02*
X015905Y026579D01*
X015885Y026656D02*
X016102Y026656D01*
X016102Y026694D02*
X015905Y026694D01*
X015905Y026867D01*
X015917Y026896D01*
X015939Y026919D01*
X015968Y026931D01*
X016102Y026931D01*
X016102Y026694D01*
X016102Y026733D02*
X016181Y026733D01*
X016181Y026656D02*
X016900Y026656D01*
X017194Y026656D02*
X017362Y026656D01*
X017311Y026579D02*
X017271Y026579D01*
X016844Y026115D02*
X015087Y026115D01*
X015165Y026192D02*
X016767Y026192D01*
X016732Y026270D02*
X015571Y026270D01*
X015931Y025883D02*
X016730Y025883D01*
X016673Y025806D02*
X016009Y025806D01*
X016088Y025729D02*
X016673Y025729D01*
X016673Y025652D02*
X016167Y025652D01*
X016245Y025575D02*
X016673Y025575D01*
X016850Y025961D02*
X014429Y025961D01*
X014414Y026038D02*
X014680Y026038D01*
X014495Y026115D02*
X014291Y026115D01*
X014291Y026192D02*
X014417Y026192D01*
X014345Y026270D02*
X014291Y026270D01*
X014291Y026347D02*
X014313Y026347D01*
X014300Y026733D02*
X014282Y026733D01*
X014250Y026810D02*
X014332Y026810D01*
X014384Y026888D02*
X014198Y026888D01*
X014120Y026965D02*
X014462Y026965D01*
X014600Y027042D02*
X013982Y027042D01*
X013600Y027042D02*
X008799Y027042D01*
X008799Y027119D02*
X008720Y027119D01*
X008720Y027197D02*
X008799Y027197D01*
X008799Y027274D02*
X008720Y027274D01*
X008996Y026888D02*
X011730Y026888D01*
X011373Y026810D02*
X011057Y026810D01*
X011134Y026733D02*
X011292Y026733D01*
X011255Y026656D02*
X011211Y026656D01*
X011263Y026115D02*
X011279Y026115D01*
X011279Y026038D02*
X011186Y026038D01*
X011109Y025961D02*
X011279Y025961D01*
X010584Y025961D02*
X010238Y025961D01*
X010315Y026038D02*
X010506Y026038D01*
X010429Y026115D02*
X010392Y026115D01*
X010098Y026115D02*
X010019Y026115D01*
X010019Y026038D02*
X010098Y026038D01*
X010098Y025961D02*
X010019Y025961D01*
X010019Y026192D02*
X010098Y026192D01*
X010098Y026270D02*
X010019Y026270D01*
X010019Y026424D02*
X010098Y026424D01*
X010098Y026501D02*
X010019Y026501D01*
X010019Y026579D02*
X010098Y026579D01*
X010098Y026656D02*
X010019Y026656D01*
X010019Y026733D02*
X010098Y026733D01*
X010263Y026733D02*
X010558Y026733D01*
X010481Y026656D02*
X010341Y026656D01*
X010635Y026810D02*
X008985Y026810D01*
X008110Y025001D02*
X008090Y024982D01*
X008326Y024261D02*
X008642Y024261D01*
X008499Y024184D02*
X008469Y024184D01*
X008469Y024107D02*
X008499Y024107D01*
X008499Y024030D02*
X008469Y024030D01*
X011589Y022253D02*
X011911Y022253D01*
X014429Y025497D02*
X015762Y025497D01*
X016102Y026424D02*
X016181Y026424D01*
X016181Y026501D02*
X016102Y026501D01*
X016102Y026579D02*
X016181Y026579D01*
X016181Y026810D02*
X016102Y026810D01*
X016102Y026888D02*
X016181Y026888D01*
X015914Y026888D02*
X015885Y026888D01*
X015885Y026810D02*
X015905Y026810D01*
X015905Y026733D02*
X015885Y026733D01*
X016850Y026038D02*
X014902Y026038D01*
X013791Y026466D02*
X013791Y026557D01*
X013313Y026347D02*
X012736Y026347D01*
X012736Y026424D02*
X013281Y026424D01*
X013269Y026501D02*
X012736Y026501D01*
D24*
X013791Y026557D02*
X013996Y026352D01*
X013996Y025710D01*
X013996Y025041D02*
X013996Y024352D01*
X014212Y024135D01*
X013996Y025041D02*
X013897Y025041D01*
X014791Y026557D02*
X015492Y026557D01*
X015590Y026655D01*
D25*
X018031Y025572D03*
X020590Y026064D03*
X022460Y024194D03*
X023149Y024293D03*
X024626Y022816D03*
X025315Y022324D03*
X027775Y024982D03*
X029055Y023899D03*
X028071Y023013D03*
X026397Y025769D03*
X025708Y026753D03*
X027578Y026655D03*
X031417Y025769D03*
X021279Y023013D03*
X011338Y027147D03*
X007598Y027147D03*
X007598Y023604D03*
X007598Y022127D03*
X009173Y022029D03*
D26*
X010157Y022438D02*
X010157Y022816D01*
X010531Y023190D01*
X010630Y023190D01*
X010531Y023190D02*
X011535Y024194D01*
X011948Y024194D01*
X011948Y023604D01*
X011948Y023683D01*
X011535Y024194D02*
X011535Y025966D01*
X011948Y025966D01*
X011535Y025966D02*
X011535Y026557D01*
X008110Y025001D02*
X008110Y024509D01*
X007992Y024490D01*
X008110Y024096D02*
X007697Y024096D01*
X007598Y024194D01*
X007598Y027147D01*
X008110Y024096D02*
X008110Y023978D01*
D27*
X010354Y024588D03*
D28*
X011535Y026557D03*
X007992Y024490D03*
X015275Y024883D03*
X017342Y024096D03*
X021378Y025375D03*
X022067Y025572D03*
X023445Y025474D03*
X024134Y025179D03*
X025019Y025080D03*
X024921Y024194D03*
X026200Y023407D03*
X025511Y022816D03*
X027086Y025375D03*
D29*
X011732Y021832D02*
X011141Y022423D01*
X011732Y021832D02*
X024212Y021832D01*
X025177Y022797D01*
X025177Y023439D01*
X024626Y022816D02*
X023917Y022108D01*
X016653Y022108D01*
X016309Y022452D01*
X016309Y022620D01*
X016968Y024588D02*
X015826Y025710D01*
X013996Y025710D01*
X011948Y026557D02*
X011535Y026557D01*
X008208Y027049D02*
X008110Y026950D01*
X008110Y025001D01*
X016968Y025572D02*
X017047Y025474D01*
X017047Y026358D01*
X017539Y026362D02*
X017519Y025572D01*
D30*
X011200Y023092D02*
X011220Y022501D01*
X011141Y022423D01*
X010649Y023092D02*
X010630Y023190D01*
X010157Y022438D02*
X010141Y022423D01*
M02*
