G75*
%MOIN*%
%OFA0B0*%
%FSLAX25Y25*%
%IPPOS*%
%LPD*%
%AMOC8*
5,1,8,0,0,1.08239X$1,22.5*
%
%ADD10R,0.03937X0.04724*%
%ADD11C,0.05150*%
%ADD12R,0.03150X0.03937*%
%ADD13R,0.03937X0.03150*%
%ADD14C,0.01600*%
D10*
X0019989Y0016013D03*
X0027863Y0016013D03*
X0027863Y0027824D03*
X0019989Y0027824D03*
D11*
X0021485Y0037233D03*
X0035265Y0035265D03*
X0007706Y0035265D03*
D12*
X0018729Y0006485D03*
X0024241Y0006485D03*
D13*
X0012115Y0018847D03*
X0012115Y0024359D03*
D14*
X0006600Y0030338D02*
X0006600Y0006600D01*
X0015154Y0006600D01*
X0015154Y0008717D01*
X0015291Y0009226D01*
X0015554Y0009682D01*
X0015926Y0010054D01*
X0016382Y0010317D01*
X0016891Y0010454D01*
X0018729Y0010454D01*
X0018729Y0006600D01*
X0018729Y0006600D01*
X0018729Y0010454D01*
X0020567Y0010454D01*
X0021076Y0010317D01*
X0021114Y0010295D01*
X0021307Y0010488D01*
X0022189Y0010854D01*
X0024084Y0010854D01*
X0024663Y0011433D01*
X0024663Y0011563D01*
X0024535Y0011616D01*
X0023860Y0012291D01*
X0023702Y0012672D01*
X0023558Y0012422D01*
X0023186Y0012050D01*
X0022729Y0011787D01*
X0022221Y0011650D01*
X0020173Y0011650D01*
X0020173Y0015828D01*
X0019805Y0015828D01*
X0019805Y0011650D01*
X0017757Y0011650D01*
X0017248Y0011787D01*
X0016792Y0012050D01*
X0016420Y0012422D01*
X0016157Y0012878D01*
X0016020Y0013387D01*
X0016020Y0015828D01*
X0019805Y0015828D01*
X0019805Y0016197D01*
X0019805Y0020375D01*
X0017757Y0020375D01*
X0017248Y0020238D01*
X0016792Y0019975D01*
X0016420Y0019603D01*
X0016157Y0019147D01*
X0016083Y0018873D01*
X0016083Y0020685D01*
X0015957Y0021159D01*
X0017161Y0021159D01*
X0018337Y0021646D01*
X0019752Y0023061D01*
X0022435Y0023061D01*
X0023317Y0023427D01*
X0023992Y0024102D01*
X0024150Y0024483D01*
X0024294Y0024233D01*
X0024666Y0023861D01*
X0025123Y0023598D01*
X0025631Y0023461D01*
X0027679Y0023461D01*
X0027679Y0027639D01*
X0028047Y0027639D01*
X0028047Y0023461D01*
X0030095Y0023461D01*
X0030603Y0023598D01*
X0031060Y0023861D01*
X0031432Y0024233D01*
X0031695Y0024689D01*
X0031831Y0025198D01*
X0031831Y0027639D01*
X0028047Y0027639D01*
X0028047Y0028008D01*
X0027679Y0028008D01*
X0027679Y0032186D01*
X0025631Y0032186D01*
X0025123Y0032050D01*
X0024666Y0031786D01*
X0024294Y0031414D01*
X0024150Y0031164D01*
X0023992Y0031545D01*
X0023317Y0032220D01*
X0022435Y0032586D01*
X0017543Y0032586D01*
X0016661Y0032220D01*
X0015986Y0031545D01*
X0015620Y0030663D01*
X0015620Y0027981D01*
X0015526Y0027886D01*
X0015443Y0027968D01*
X0015315Y0028021D01*
X0015315Y0031492D01*
X0014828Y0032668D01*
X0012680Y0034815D01*
X0012680Y0036254D01*
X0012632Y0036370D01*
X0016990Y0036370D01*
X0017023Y0036162D01*
X0017245Y0035477D01*
X0017572Y0034835D01*
X0017996Y0034253D01*
X0018505Y0033744D01*
X0019087Y0033320D01*
X0019729Y0032993D01*
X0020414Y0032771D01*
X0021125Y0032658D01*
X0021485Y0032658D01*
X0021485Y0036370D01*
X0021485Y0036370D01*
X0021485Y0032658D01*
X0021845Y0032658D01*
X0022556Y0032771D01*
X0023241Y0032993D01*
X0023883Y0033320D01*
X0024465Y0033744D01*
X0024974Y0034253D01*
X0025398Y0034835D01*
X0025725Y0035477D01*
X0025947Y0036162D01*
X0025980Y0036370D01*
X0030338Y0036370D01*
X0030290Y0036254D01*
X0030290Y0034275D01*
X0031047Y0032447D01*
X0032065Y0031429D01*
X0032065Y0024740D01*
X0028100Y0020775D01*
X0025417Y0020775D01*
X0024535Y0020409D01*
X0023860Y0019734D01*
X0023702Y0019353D01*
X0023558Y0019603D01*
X0023186Y0019975D01*
X0022729Y0020238D01*
X0022221Y0020375D01*
X0020173Y0020375D01*
X0020173Y0016197D01*
X0019805Y0016197D01*
X0016020Y0016197D01*
X0016020Y0016774D01*
X0015947Y0016500D01*
X0015684Y0016044D01*
X0015311Y0015672D01*
X0014855Y0015409D01*
X0014347Y0015272D01*
X0012115Y0015272D01*
X0012115Y0018847D01*
X0012115Y0018847D01*
X0012115Y0015272D01*
X0009883Y0015272D01*
X0009374Y0015409D01*
X0008918Y0015672D01*
X0008546Y0016044D01*
X0008283Y0016500D01*
X0008146Y0017009D01*
X0008146Y0018847D01*
X0012115Y0018847D01*
X0012115Y0018847D01*
X0008146Y0018847D01*
X0008146Y0020685D01*
X0008283Y0021194D01*
X0008305Y0021232D01*
X0008112Y0021425D01*
X0007746Y0022307D01*
X0007746Y0026411D01*
X0008112Y0027293D01*
X0008787Y0027968D01*
X0008915Y0028021D01*
X0008915Y0029530D01*
X0008155Y0030290D01*
X0006716Y0030290D01*
X0006600Y0030338D01*
X0006600Y0028975D02*
X0008915Y0028975D01*
X0008195Y0027376D02*
X0006600Y0027376D01*
X0006600Y0025778D02*
X0007746Y0025778D01*
X0007746Y0024179D02*
X0006600Y0024179D01*
X0006600Y0022581D02*
X0007746Y0022581D01*
X0008226Y0020982D02*
X0006600Y0020982D01*
X0006600Y0019384D02*
X0008146Y0019384D01*
X0008146Y0017785D02*
X0006600Y0017785D01*
X0006600Y0016187D02*
X0008464Y0016187D01*
X0006600Y0014588D02*
X0016020Y0014588D01*
X0016127Y0012990D02*
X0006600Y0012990D01*
X0006600Y0011391D02*
X0024622Y0011391D01*
X0027863Y0010107D02*
X0027863Y0016013D01*
X0035265Y0023414D01*
X0035265Y0035265D01*
X0031432Y0031414D02*
X0031060Y0031786D01*
X0030603Y0032050D01*
X0030095Y0032186D01*
X0028047Y0032186D01*
X0028047Y0028008D01*
X0031831Y0028008D01*
X0031831Y0030449D01*
X0031695Y0030958D01*
X0031432Y0031414D01*
X0031322Y0032172D02*
X0030147Y0032172D01*
X0030499Y0033770D02*
X0024492Y0033770D01*
X0025579Y0032172D02*
X0023366Y0032172D01*
X0021485Y0033770D02*
X0021485Y0033770D01*
X0021485Y0035369D02*
X0021485Y0035369D01*
X0018478Y0033770D02*
X0013725Y0033770D01*
X0012680Y0035369D02*
X0017301Y0035369D01*
X0016612Y0032172D02*
X0015033Y0032172D01*
X0015315Y0030573D02*
X0015620Y0030573D01*
X0015620Y0028975D02*
X0015315Y0028975D01*
X0012115Y0030855D02*
X0007706Y0035265D01*
X0012115Y0030855D02*
X0012115Y0024359D01*
X0016524Y0024359D01*
X0019989Y0027824D01*
X0024024Y0024179D02*
X0024348Y0024179D01*
X0027679Y0024179D02*
X0028047Y0024179D01*
X0028047Y0025778D02*
X0027679Y0025778D01*
X0027679Y0027376D02*
X0028047Y0027376D01*
X0028047Y0028975D02*
X0027679Y0028975D01*
X0027679Y0030573D02*
X0028047Y0030573D01*
X0028047Y0032172D02*
X0027679Y0032172D01*
X0025670Y0035369D02*
X0030290Y0035369D01*
X0031798Y0030573D02*
X0032065Y0030573D01*
X0032065Y0028975D02*
X0031831Y0028975D01*
X0031831Y0027376D02*
X0032065Y0027376D01*
X0032065Y0025778D02*
X0031831Y0025778D01*
X0031504Y0024179D02*
X0031378Y0024179D01*
X0029906Y0022581D02*
X0019271Y0022581D01*
X0019805Y0019384D02*
X0020173Y0019384D01*
X0020173Y0017785D02*
X0019805Y0017785D01*
X0019805Y0016187D02*
X0015766Y0016187D01*
X0016083Y0019384D02*
X0016294Y0019384D01*
X0016004Y0020982D02*
X0028307Y0020982D01*
X0023715Y0019384D02*
X0023684Y0019384D01*
X0020173Y0014588D02*
X0019805Y0014588D01*
X0019805Y0012990D02*
X0020173Y0012990D01*
X0018729Y0009793D02*
X0018729Y0009793D01*
X0018729Y0008194D02*
X0018729Y0008194D01*
X0015665Y0009793D02*
X0006600Y0009793D01*
X0006600Y0008194D02*
X0015154Y0008194D01*
X0012115Y0016187D02*
X0012115Y0016187D01*
X0012115Y0017785D02*
X0012115Y0017785D01*
X0024241Y0006485D02*
X0027863Y0010107D01*
M02*
