G75*
%MOIN*%
%OFA0B0*%
%FSLAX25Y25*%
%IPPOS*%
%LPD*%
%AMOC8*
5,1,8,0,0,1.08239X$1,22.5*
%
%ADD10C,0.00000*%
%ADD11C,0.01575*%
%ADD12R,0.03150X0.03937*%
%ADD13R,0.02165X0.03937*%
%ADD14R,0.04724X0.04724*%
%ADD15R,0.01969X0.01575*%
%ADD16R,0.01575X0.01969*%
%ADD17R,0.04724X0.03937*%
%ADD18R,0.03937X0.03150*%
%ADD19R,0.03543X0.00984*%
%ADD20R,0.15748X0.15748*%
%ADD21R,0.10236X0.05512*%
%ADD22R,0.04000X0.02000*%
D10*
X0076997Y0064792D02*
X0076999Y0064910D01*
X0077005Y0065029D01*
X0077015Y0065147D01*
X0077029Y0065264D01*
X0077046Y0065381D01*
X0077068Y0065498D01*
X0077094Y0065613D01*
X0077123Y0065728D01*
X0077156Y0065842D01*
X0077193Y0065954D01*
X0077234Y0066065D01*
X0077278Y0066175D01*
X0077326Y0066283D01*
X0077378Y0066390D01*
X0077433Y0066495D01*
X0077492Y0066598D01*
X0077554Y0066698D01*
X0077619Y0066797D01*
X0077688Y0066894D01*
X0077759Y0066988D01*
X0077834Y0067079D01*
X0077912Y0067169D01*
X0077993Y0067255D01*
X0078077Y0067339D01*
X0078163Y0067420D01*
X0078253Y0067498D01*
X0078344Y0067573D01*
X0078438Y0067644D01*
X0078535Y0067713D01*
X0078634Y0067778D01*
X0078734Y0067840D01*
X0078837Y0067899D01*
X0078942Y0067954D01*
X0079049Y0068006D01*
X0079157Y0068054D01*
X0079267Y0068098D01*
X0079378Y0068139D01*
X0079490Y0068176D01*
X0079604Y0068209D01*
X0079719Y0068238D01*
X0079834Y0068264D01*
X0079951Y0068286D01*
X0080068Y0068303D01*
X0080185Y0068317D01*
X0080303Y0068327D01*
X0080422Y0068333D01*
X0080540Y0068335D01*
X0080658Y0068333D01*
X0080777Y0068327D01*
X0080895Y0068317D01*
X0081012Y0068303D01*
X0081129Y0068286D01*
X0081246Y0068264D01*
X0081361Y0068238D01*
X0081476Y0068209D01*
X0081590Y0068176D01*
X0081702Y0068139D01*
X0081813Y0068098D01*
X0081923Y0068054D01*
X0082031Y0068006D01*
X0082138Y0067954D01*
X0082243Y0067899D01*
X0082346Y0067840D01*
X0082446Y0067778D01*
X0082545Y0067713D01*
X0082642Y0067644D01*
X0082736Y0067573D01*
X0082827Y0067498D01*
X0082917Y0067420D01*
X0083003Y0067339D01*
X0083087Y0067255D01*
X0083168Y0067169D01*
X0083246Y0067079D01*
X0083321Y0066988D01*
X0083392Y0066894D01*
X0083461Y0066797D01*
X0083526Y0066698D01*
X0083588Y0066598D01*
X0083647Y0066495D01*
X0083702Y0066390D01*
X0083754Y0066283D01*
X0083802Y0066175D01*
X0083846Y0066065D01*
X0083887Y0065954D01*
X0083924Y0065842D01*
X0083957Y0065728D01*
X0083986Y0065613D01*
X0084012Y0065498D01*
X0084034Y0065381D01*
X0084051Y0065264D01*
X0084065Y0065147D01*
X0084075Y0065029D01*
X0084081Y0064910D01*
X0084083Y0064792D01*
X0084081Y0064674D01*
X0084075Y0064555D01*
X0084065Y0064437D01*
X0084051Y0064320D01*
X0084034Y0064203D01*
X0084012Y0064086D01*
X0083986Y0063971D01*
X0083957Y0063856D01*
X0083924Y0063742D01*
X0083887Y0063630D01*
X0083846Y0063519D01*
X0083802Y0063409D01*
X0083754Y0063301D01*
X0083702Y0063194D01*
X0083647Y0063089D01*
X0083588Y0062986D01*
X0083526Y0062886D01*
X0083461Y0062787D01*
X0083392Y0062690D01*
X0083321Y0062596D01*
X0083246Y0062505D01*
X0083168Y0062415D01*
X0083087Y0062329D01*
X0083003Y0062245D01*
X0082917Y0062164D01*
X0082827Y0062086D01*
X0082736Y0062011D01*
X0082642Y0061940D01*
X0082545Y0061871D01*
X0082446Y0061806D01*
X0082346Y0061744D01*
X0082243Y0061685D01*
X0082138Y0061630D01*
X0082031Y0061578D01*
X0081923Y0061530D01*
X0081813Y0061486D01*
X0081702Y0061445D01*
X0081590Y0061408D01*
X0081476Y0061375D01*
X0081361Y0061346D01*
X0081246Y0061320D01*
X0081129Y0061298D01*
X0081012Y0061281D01*
X0080895Y0061267D01*
X0080777Y0061257D01*
X0080658Y0061251D01*
X0080540Y0061249D01*
X0080422Y0061251D01*
X0080303Y0061257D01*
X0080185Y0061267D01*
X0080068Y0061281D01*
X0079951Y0061298D01*
X0079834Y0061320D01*
X0079719Y0061346D01*
X0079604Y0061375D01*
X0079490Y0061408D01*
X0079378Y0061445D01*
X0079267Y0061486D01*
X0079157Y0061530D01*
X0079049Y0061578D01*
X0078942Y0061630D01*
X0078837Y0061685D01*
X0078734Y0061744D01*
X0078634Y0061806D01*
X0078535Y0061871D01*
X0078438Y0061940D01*
X0078344Y0062011D01*
X0078253Y0062086D01*
X0078163Y0062164D01*
X0078077Y0062245D01*
X0077993Y0062329D01*
X0077912Y0062415D01*
X0077834Y0062505D01*
X0077759Y0062596D01*
X0077688Y0062690D01*
X0077619Y0062787D01*
X0077554Y0062886D01*
X0077492Y0062986D01*
X0077433Y0063089D01*
X0077378Y0063194D01*
X0077326Y0063301D01*
X0077278Y0063409D01*
X0077234Y0063519D01*
X0077193Y0063630D01*
X0077156Y0063742D01*
X0077123Y0063856D01*
X0077094Y0063971D01*
X0077068Y0064086D01*
X0077046Y0064203D01*
X0077029Y0064320D01*
X0077015Y0064437D01*
X0077005Y0064555D01*
X0076999Y0064674D01*
X0076997Y0064792D01*
X0234477Y0064792D02*
X0234479Y0064910D01*
X0234485Y0065029D01*
X0234495Y0065147D01*
X0234509Y0065264D01*
X0234526Y0065381D01*
X0234548Y0065498D01*
X0234574Y0065613D01*
X0234603Y0065728D01*
X0234636Y0065842D01*
X0234673Y0065954D01*
X0234714Y0066065D01*
X0234758Y0066175D01*
X0234806Y0066283D01*
X0234858Y0066390D01*
X0234913Y0066495D01*
X0234972Y0066598D01*
X0235034Y0066698D01*
X0235099Y0066797D01*
X0235168Y0066894D01*
X0235239Y0066988D01*
X0235314Y0067079D01*
X0235392Y0067169D01*
X0235473Y0067255D01*
X0235557Y0067339D01*
X0235643Y0067420D01*
X0235733Y0067498D01*
X0235824Y0067573D01*
X0235918Y0067644D01*
X0236015Y0067713D01*
X0236114Y0067778D01*
X0236214Y0067840D01*
X0236317Y0067899D01*
X0236422Y0067954D01*
X0236529Y0068006D01*
X0236637Y0068054D01*
X0236747Y0068098D01*
X0236858Y0068139D01*
X0236970Y0068176D01*
X0237084Y0068209D01*
X0237199Y0068238D01*
X0237314Y0068264D01*
X0237431Y0068286D01*
X0237548Y0068303D01*
X0237665Y0068317D01*
X0237783Y0068327D01*
X0237902Y0068333D01*
X0238020Y0068335D01*
X0238138Y0068333D01*
X0238257Y0068327D01*
X0238375Y0068317D01*
X0238492Y0068303D01*
X0238609Y0068286D01*
X0238726Y0068264D01*
X0238841Y0068238D01*
X0238956Y0068209D01*
X0239070Y0068176D01*
X0239182Y0068139D01*
X0239293Y0068098D01*
X0239403Y0068054D01*
X0239511Y0068006D01*
X0239618Y0067954D01*
X0239723Y0067899D01*
X0239826Y0067840D01*
X0239926Y0067778D01*
X0240025Y0067713D01*
X0240122Y0067644D01*
X0240216Y0067573D01*
X0240307Y0067498D01*
X0240397Y0067420D01*
X0240483Y0067339D01*
X0240567Y0067255D01*
X0240648Y0067169D01*
X0240726Y0067079D01*
X0240801Y0066988D01*
X0240872Y0066894D01*
X0240941Y0066797D01*
X0241006Y0066698D01*
X0241068Y0066598D01*
X0241127Y0066495D01*
X0241182Y0066390D01*
X0241234Y0066283D01*
X0241282Y0066175D01*
X0241326Y0066065D01*
X0241367Y0065954D01*
X0241404Y0065842D01*
X0241437Y0065728D01*
X0241466Y0065613D01*
X0241492Y0065498D01*
X0241514Y0065381D01*
X0241531Y0065264D01*
X0241545Y0065147D01*
X0241555Y0065029D01*
X0241561Y0064910D01*
X0241563Y0064792D01*
X0241561Y0064674D01*
X0241555Y0064555D01*
X0241545Y0064437D01*
X0241531Y0064320D01*
X0241514Y0064203D01*
X0241492Y0064086D01*
X0241466Y0063971D01*
X0241437Y0063856D01*
X0241404Y0063742D01*
X0241367Y0063630D01*
X0241326Y0063519D01*
X0241282Y0063409D01*
X0241234Y0063301D01*
X0241182Y0063194D01*
X0241127Y0063089D01*
X0241068Y0062986D01*
X0241006Y0062886D01*
X0240941Y0062787D01*
X0240872Y0062690D01*
X0240801Y0062596D01*
X0240726Y0062505D01*
X0240648Y0062415D01*
X0240567Y0062329D01*
X0240483Y0062245D01*
X0240397Y0062164D01*
X0240307Y0062086D01*
X0240216Y0062011D01*
X0240122Y0061940D01*
X0240025Y0061871D01*
X0239926Y0061806D01*
X0239826Y0061744D01*
X0239723Y0061685D01*
X0239618Y0061630D01*
X0239511Y0061578D01*
X0239403Y0061530D01*
X0239293Y0061486D01*
X0239182Y0061445D01*
X0239070Y0061408D01*
X0238956Y0061375D01*
X0238841Y0061346D01*
X0238726Y0061320D01*
X0238609Y0061298D01*
X0238492Y0061281D01*
X0238375Y0061267D01*
X0238257Y0061257D01*
X0238138Y0061251D01*
X0238020Y0061249D01*
X0237902Y0061251D01*
X0237783Y0061257D01*
X0237665Y0061267D01*
X0237548Y0061281D01*
X0237431Y0061298D01*
X0237314Y0061320D01*
X0237199Y0061346D01*
X0237084Y0061375D01*
X0236970Y0061408D01*
X0236858Y0061445D01*
X0236747Y0061486D01*
X0236637Y0061530D01*
X0236529Y0061578D01*
X0236422Y0061630D01*
X0236317Y0061685D01*
X0236214Y0061744D01*
X0236114Y0061806D01*
X0236015Y0061871D01*
X0235918Y0061940D01*
X0235824Y0062011D01*
X0235733Y0062086D01*
X0235643Y0062164D01*
X0235557Y0062245D01*
X0235473Y0062329D01*
X0235392Y0062415D01*
X0235314Y0062505D01*
X0235239Y0062596D01*
X0235168Y0062690D01*
X0235099Y0062787D01*
X0235034Y0062886D01*
X0234972Y0062986D01*
X0234913Y0063089D01*
X0234858Y0063194D01*
X0234806Y0063301D01*
X0234758Y0063409D01*
X0234714Y0063519D01*
X0234673Y0063630D01*
X0234636Y0063742D01*
X0234603Y0063856D01*
X0234574Y0063971D01*
X0234548Y0064086D01*
X0234526Y0064203D01*
X0234509Y0064320D01*
X0234495Y0064437D01*
X0234485Y0064555D01*
X0234479Y0064674D01*
X0234477Y0064792D01*
D11*
X0062538Y0031061D02*
X0061736Y0031312D01*
X0060935Y0031569D01*
X0060137Y0031832D01*
X0059340Y0032101D01*
X0058545Y0032375D01*
X0057752Y0032656D01*
X0056961Y0032944D01*
X0056172Y0033239D01*
X0055385Y0033541D01*
X0054601Y0033850D01*
X0053819Y0034167D01*
X0053040Y0034493D01*
X0052263Y0034827D01*
X0051489Y0035170D01*
X0050718Y0035522D01*
X0049949Y0035884D01*
X0049184Y0036257D01*
X0048423Y0036640D01*
X0047668Y0037034D01*
X0046918Y0037439D01*
X0046176Y0037856D01*
X0045441Y0038285D01*
X0044928Y0038595D01*
X0044906Y0038608D01*
X0044884Y0038622D01*
X0044862Y0038635D01*
X0044841Y0038649D01*
X0044819Y0038662D01*
X0044798Y0038676D01*
X0044776Y0038690D01*
X0044754Y0038704D01*
X0044733Y0038718D01*
X0044711Y0038732D01*
X0044690Y0038746D01*
X0044668Y0038761D01*
X0044647Y0038775D01*
X0044626Y0038790D01*
X0044604Y0038804D01*
X0044583Y0038819D01*
X0044562Y0038833D01*
X0044540Y0038848D01*
X0044519Y0038863D01*
X0044498Y0038878D01*
X0044477Y0038893D01*
X0044456Y0038908D01*
X0044435Y0038923D01*
X0044414Y0038938D01*
X0044393Y0038954D01*
X0044372Y0038969D01*
X0044351Y0038985D01*
X0044330Y0039000D01*
X0044309Y0039016D01*
X0044288Y0039032D01*
X0044267Y0039047D01*
X0044247Y0039063D01*
X0044226Y0039079D01*
X0044205Y0039095D01*
X0044185Y0039111D01*
X0044164Y0039128D01*
X0044143Y0039144D01*
X0044123Y0039160D01*
X0044102Y0039177D01*
X0044082Y0039193D01*
X0044062Y0039210D01*
X0044041Y0039227D01*
X0044021Y0039243D01*
X0044001Y0039260D01*
X0043980Y0039277D01*
X0043960Y0039294D01*
X0043940Y0039311D01*
X0043920Y0039328D01*
X0043900Y0039346D01*
X0043880Y0039363D01*
X0043860Y0039380D01*
X0043840Y0039398D01*
X0043820Y0039415D01*
X0043800Y0039433D01*
X0043781Y0039451D01*
X0043761Y0039468D01*
X0043741Y0039486D01*
X0043722Y0039504D01*
X0043702Y0039522D01*
X0043683Y0039540D01*
X0043663Y0039558D01*
X0043644Y0039577D01*
X0043624Y0039595D01*
X0043605Y0039613D01*
X0043586Y0039632D01*
X0043567Y0039650D01*
X0043548Y0039669D01*
X0043529Y0039688D01*
X0043509Y0039706D01*
X0043491Y0039725D01*
X0043472Y0039744D01*
X0043453Y0039763D01*
X0043434Y0039782D01*
X0043415Y0039801D01*
X0043396Y0039820D01*
X0043378Y0039840D01*
X0043359Y0039859D01*
X0043341Y0039878D01*
X0043322Y0039898D01*
X0043304Y0039917D01*
X0043285Y0039937D01*
X0043267Y0039957D01*
X0043249Y0039976D01*
X0043231Y0039996D01*
X0043213Y0040016D01*
X0043195Y0040036D01*
X0043177Y0040056D01*
X0043159Y0040076D01*
X0043141Y0040096D01*
X0043123Y0040117D01*
X0043105Y0040137D01*
X0043088Y0040157D01*
X0043070Y0040178D01*
X0043052Y0040198D01*
X0043035Y0040219D01*
X0043018Y0040239D01*
X0043000Y0040260D01*
X0042983Y0040281D01*
X0042966Y0040302D01*
X0042949Y0040323D01*
X0042931Y0040344D01*
X0042914Y0040365D01*
X0042898Y0040386D01*
X0042881Y0040407D01*
X0042864Y0040428D01*
X0042847Y0040449D01*
X0042830Y0040471D01*
X0042814Y0040492D01*
X0042797Y0040514D01*
X0042781Y0040535D01*
X0042764Y0040557D01*
X0042748Y0040578D01*
X0042732Y0040600D01*
X0042716Y0040622D01*
X0042699Y0040644D01*
X0042683Y0040666D01*
X0042667Y0040688D01*
X0042652Y0040710D01*
X0042636Y0040732D01*
X0042620Y0040754D01*
X0042604Y0040776D01*
X0042589Y0040798D01*
X0042573Y0040821D01*
X0042558Y0040843D01*
X0042542Y0040865D01*
X0042527Y0040888D01*
X0042512Y0040911D01*
X0042497Y0040933D01*
X0042482Y0040956D01*
X0042467Y0040979D01*
X0042452Y0041001D01*
X0042437Y0041024D01*
X0042422Y0041047D01*
X0042407Y0041070D01*
X0042393Y0041093D01*
X0042378Y0041116D01*
X0042364Y0041139D01*
X0042349Y0041162D01*
X0042335Y0041185D01*
X0042321Y0041208D01*
X0042307Y0041232D01*
X0042293Y0041255D01*
X0042279Y0041279D01*
X0042265Y0041302D01*
X0042251Y0041325D01*
X0042237Y0041349D01*
X0042224Y0041373D01*
X0042210Y0041396D01*
X0042196Y0041420D01*
X0042183Y0041444D01*
X0042170Y0041467D01*
X0042156Y0041491D01*
X0042143Y0041515D01*
X0042130Y0041539D01*
X0042117Y0041563D01*
X0042104Y0041587D01*
X0042091Y0041611D01*
X0042079Y0041635D01*
X0042066Y0041659D01*
X0042053Y0041683D01*
X0042041Y0041707D01*
X0042029Y0041732D01*
X0042016Y0041756D01*
X0042004Y0041780D01*
X0041992Y0041805D01*
X0041980Y0041829D01*
X0041968Y0041854D01*
X0041956Y0041878D01*
X0041944Y0041903D01*
X0041932Y0041927D01*
X0041921Y0041952D01*
X0041909Y0041976D01*
X0041898Y0042001D01*
X0041886Y0042026D01*
X0041875Y0042051D01*
X0041864Y0042075D01*
X0041853Y0042100D01*
X0041842Y0042125D01*
X0041831Y0042150D01*
X0041820Y0042175D01*
X0041809Y0042200D01*
X0041798Y0042225D01*
X0041788Y0042250D01*
X0041777Y0042275D01*
X0041767Y0042300D01*
X0041757Y0042325D01*
X0041746Y0042350D01*
X0041736Y0042375D01*
X0041726Y0042401D01*
X0041716Y0042426D01*
X0041706Y0042451D01*
X0041696Y0042476D01*
X0041687Y0042502D01*
X0041677Y0042527D01*
X0041668Y0042552D01*
X0041658Y0042578D01*
X0041649Y0042603D01*
X0041640Y0042629D01*
X0041630Y0042654D01*
X0041621Y0042680D01*
X0041612Y0042705D01*
X0041604Y0042731D01*
X0041595Y0042756D01*
X0041586Y0042782D01*
X0041577Y0042807D01*
X0041569Y0042833D01*
X0041560Y0042859D01*
X0041552Y0042884D01*
X0041544Y0042910D01*
X0041536Y0042936D01*
X0041528Y0042961D01*
X0041520Y0042987D01*
X0041512Y0043013D01*
X0041504Y0043039D01*
X0041496Y0043065D01*
X0041489Y0043090D01*
X0041481Y0043116D01*
X0041474Y0043142D01*
X0041466Y0043168D01*
X0041459Y0043194D01*
X0041452Y0043220D01*
X0041445Y0043245D01*
X0041438Y0043271D01*
X0041431Y0043297D01*
X0041424Y0043323D01*
X0041417Y0043349D01*
X0041411Y0043375D01*
X0041404Y0043401D01*
X0041398Y0043427D01*
X0041391Y0043453D01*
X0041385Y0043479D01*
X0041379Y0043505D01*
X0041373Y0043531D01*
X0041367Y0043557D01*
X0041361Y0043583D01*
X0041355Y0043609D01*
X0041350Y0043635D01*
X0041344Y0043661D01*
X0041338Y0043687D01*
X0041333Y0043714D01*
X0041328Y0043740D01*
X0041322Y0043766D01*
X0041317Y0043792D01*
X0041312Y0043818D01*
X0041307Y0043844D01*
X0041302Y0043870D01*
X0041298Y0043896D01*
X0041293Y0043922D01*
X0041288Y0043948D01*
X0041284Y0043974D01*
X0041279Y0044000D01*
X0041275Y0044027D01*
X0041271Y0044053D01*
X0041266Y0044079D01*
X0041262Y0044105D01*
X0041258Y0044131D01*
X0041255Y0044157D01*
X0041251Y0044183D01*
X0041247Y0044209D01*
X0041243Y0044235D01*
X0041240Y0044261D01*
X0041236Y0044287D01*
X0041233Y0044313D01*
X0041230Y0044339D01*
X0041227Y0044365D01*
X0041223Y0044391D01*
X0041220Y0044418D01*
X0041218Y0044444D01*
X0041215Y0044469D01*
X0041212Y0044495D01*
X0041209Y0044521D01*
X0041207Y0044547D01*
X0041204Y0044573D01*
X0041202Y0044599D01*
X0041200Y0044625D01*
X0041197Y0044651D01*
X0041195Y0044677D01*
X0041193Y0044703D01*
X0041191Y0044729D01*
X0041189Y0044755D01*
X0041188Y0044781D01*
X0041186Y0044807D01*
X0041184Y0044832D01*
X0041183Y0044858D01*
X0041181Y0044884D01*
X0041180Y0044910D01*
X0041179Y0044936D01*
X0041178Y0044962D01*
X0041177Y0044987D01*
X0041176Y0045013D01*
X0041175Y0045039D01*
X0041174Y0045065D01*
X0041173Y0045090D01*
X0041172Y0045116D01*
X0041172Y0045142D01*
X0041171Y0045167D01*
X0041171Y0045193D01*
X0041171Y0045218D01*
X0041170Y0045244D01*
X0041170Y0045269D01*
X0041170Y0045295D01*
X0041170Y0084290D01*
X0041170Y0084315D01*
X0041170Y0084341D01*
X0041170Y0084366D01*
X0041171Y0084392D01*
X0041171Y0084418D01*
X0041172Y0084443D01*
X0041172Y0084469D01*
X0041173Y0084494D01*
X0041174Y0084520D01*
X0041174Y0084546D01*
X0041175Y0084572D01*
X0041176Y0084597D01*
X0041177Y0084623D01*
X0041178Y0084649D01*
X0041180Y0084675D01*
X0041181Y0084701D01*
X0041182Y0084726D01*
X0041184Y0084752D01*
X0041185Y0084778D01*
X0041187Y0084804D01*
X0041189Y0084830D01*
X0041191Y0084856D01*
X0041193Y0084881D01*
X0041195Y0084907D01*
X0041197Y0084933D01*
X0041199Y0084959D01*
X0041201Y0084985D01*
X0041204Y0085011D01*
X0041206Y0085037D01*
X0041209Y0085063D01*
X0041211Y0085089D01*
X0041214Y0085115D01*
X0041217Y0085141D01*
X0041220Y0085167D01*
X0041223Y0085193D01*
X0041226Y0085219D01*
X0041229Y0085245D01*
X0041232Y0085271D01*
X0041235Y0085297D01*
X0041239Y0085323D01*
X0041242Y0085350D01*
X0041246Y0085376D01*
X0041250Y0085402D01*
X0041253Y0085428D01*
X0041257Y0085454D01*
X0041261Y0085480D01*
X0041265Y0085506D01*
X0041269Y0085532D01*
X0041274Y0085558D01*
X0041278Y0085584D01*
X0041282Y0085610D01*
X0041287Y0085636D01*
X0041291Y0085663D01*
X0041296Y0085689D01*
X0041301Y0085715D01*
X0041306Y0085741D01*
X0041311Y0085767D01*
X0041316Y0085793D01*
X0041321Y0085819D01*
X0041326Y0085845D01*
X0041331Y0085871D01*
X0041337Y0085897D01*
X0041342Y0085923D01*
X0041348Y0085949D01*
X0041353Y0085975D01*
X0041359Y0086001D01*
X0041365Y0086027D01*
X0041371Y0086054D01*
X0041377Y0086080D01*
X0041383Y0086106D01*
X0041389Y0086131D01*
X0041396Y0086157D01*
X0041402Y0086183D01*
X0041409Y0086209D01*
X0041415Y0086235D01*
X0041422Y0086261D01*
X0041429Y0086287D01*
X0041436Y0086313D01*
X0041443Y0086339D01*
X0041450Y0086365D01*
X0041457Y0086391D01*
X0041464Y0086417D01*
X0041471Y0086443D01*
X0041479Y0086469D01*
X0041486Y0086494D01*
X0041494Y0086520D01*
X0041501Y0086546D01*
X0041509Y0086572D01*
X0041517Y0086598D01*
X0041525Y0086623D01*
X0041533Y0086649D01*
X0041541Y0086675D01*
X0041549Y0086700D01*
X0041558Y0086726D01*
X0041566Y0086752D01*
X0041575Y0086777D01*
X0041583Y0086803D01*
X0041592Y0086829D01*
X0041601Y0086854D01*
X0041610Y0086880D01*
X0041619Y0086905D01*
X0041628Y0086931D01*
X0041637Y0086956D01*
X0041646Y0086982D01*
X0041655Y0087007D01*
X0041665Y0087032D01*
X0041674Y0087058D01*
X0041684Y0087083D01*
X0041693Y0087108D01*
X0041703Y0087134D01*
X0041713Y0087159D01*
X0041723Y0087184D01*
X0041733Y0087209D01*
X0041743Y0087235D01*
X0041753Y0087260D01*
X0041764Y0087285D01*
X0041774Y0087310D01*
X0041784Y0087335D01*
X0041795Y0087360D01*
X0041806Y0087385D01*
X0041816Y0087410D01*
X0041827Y0087435D01*
X0041838Y0087460D01*
X0041849Y0087485D01*
X0041860Y0087510D01*
X0041871Y0087534D01*
X0041883Y0087559D01*
X0041894Y0087584D01*
X0041906Y0087609D01*
X0041917Y0087633D01*
X0041929Y0087658D01*
X0041940Y0087682D01*
X0041952Y0087707D01*
X0041964Y0087731D01*
X0041976Y0087756D01*
X0041988Y0087781D01*
X0042000Y0087805D01*
X0042012Y0087829D01*
X0042025Y0087854D01*
X0042037Y0087878D01*
X0042050Y0087902D01*
X0042062Y0087926D01*
X0042075Y0087950D01*
X0042087Y0087974D01*
X0042100Y0087998D01*
X0042113Y0088022D01*
X0042126Y0088046D01*
X0042139Y0088070D01*
X0042152Y0088094D01*
X0042166Y0088118D01*
X0042179Y0088142D01*
X0042192Y0088166D01*
X0042206Y0088189D01*
X0042219Y0088213D01*
X0042233Y0088236D01*
X0042247Y0088260D01*
X0042260Y0088283D01*
X0042274Y0088307D01*
X0042288Y0088330D01*
X0042302Y0088354D01*
X0042316Y0088377D01*
X0042331Y0088400D01*
X0042345Y0088423D01*
X0042359Y0088447D01*
X0042374Y0088470D01*
X0042388Y0088493D01*
X0042403Y0088516D01*
X0042417Y0088539D01*
X0042432Y0088562D01*
X0042447Y0088584D01*
X0042462Y0088607D01*
X0042477Y0088630D01*
X0042492Y0088653D01*
X0042507Y0088675D01*
X0042522Y0088698D01*
X0042538Y0088720D01*
X0042553Y0088743D01*
X0042568Y0088765D01*
X0042584Y0088787D01*
X0042599Y0088810D01*
X0042615Y0088832D01*
X0042631Y0088854D01*
X0042647Y0088876D01*
X0042662Y0088898D01*
X0042678Y0088920D01*
X0042694Y0088942D01*
X0042711Y0088964D01*
X0042727Y0088986D01*
X0042743Y0089008D01*
X0042759Y0089029D01*
X0042776Y0089051D01*
X0042792Y0089072D01*
X0042809Y0089094D01*
X0042825Y0089115D01*
X0042842Y0089137D01*
X0042859Y0089158D01*
X0042875Y0089179D01*
X0042892Y0089201D01*
X0042909Y0089222D01*
X0042926Y0089243D01*
X0042943Y0089264D01*
X0042960Y0089285D01*
X0042978Y0089306D01*
X0042995Y0089326D01*
X0043012Y0089347D01*
X0043030Y0089368D01*
X0043047Y0089388D01*
X0043064Y0089409D01*
X0043082Y0089429D01*
X0043100Y0089450D01*
X0043117Y0089470D01*
X0043135Y0089490D01*
X0043153Y0089510D01*
X0043171Y0089531D01*
X0043189Y0089551D01*
X0043207Y0089570D01*
X0043225Y0089591D01*
X0043243Y0089610D01*
X0043261Y0089630D01*
X0043280Y0089650D01*
X0043298Y0089669D01*
X0043316Y0089689D01*
X0043335Y0089708D01*
X0043353Y0089728D01*
X0043372Y0089747D01*
X0043391Y0089767D01*
X0043409Y0089786D01*
X0043428Y0089805D01*
X0043447Y0089824D01*
X0043466Y0089843D01*
X0043485Y0089862D01*
X0043504Y0089881D01*
X0043523Y0089899D01*
X0043542Y0089918D01*
X0043561Y0089937D01*
X0043580Y0089955D01*
X0043599Y0089974D01*
X0043618Y0089992D01*
X0043638Y0090010D01*
X0043657Y0090029D01*
X0043677Y0090047D01*
X0043696Y0090065D01*
X0043716Y0090083D01*
X0043735Y0090101D01*
X0043755Y0090119D01*
X0043775Y0090137D01*
X0043814Y0090172D01*
X0043854Y0090207D01*
X0043874Y0090224D01*
X0043914Y0090259D01*
X0043954Y0090293D01*
X0043974Y0090310D01*
X0043994Y0090327D01*
X0044014Y0090344D01*
X0044035Y0090361D01*
X0044055Y0090378D01*
X0044076Y0090394D01*
X0044096Y0090411D01*
X0044116Y0090427D01*
X0044137Y0090444D01*
X0044157Y0090460D01*
X0044178Y0090476D01*
X0044199Y0090493D01*
X0044219Y0090508D01*
X0044240Y0090524D01*
X0044261Y0090540D01*
X0044282Y0090556D01*
X0044323Y0090588D01*
X0044344Y0090603D01*
X0044365Y0090619D01*
X0044407Y0090650D01*
X0044428Y0090665D01*
X0044449Y0090680D01*
X0044470Y0090695D01*
X0044491Y0090710D01*
X0044513Y0090725D01*
X0044534Y0090740D01*
X0044555Y0090755D01*
X0044576Y0090769D01*
X0044598Y0090784D01*
X0044619Y0090799D01*
X0044640Y0090813D01*
X0044662Y0090828D01*
X0044683Y0090842D01*
X0044705Y0090856D01*
X0044726Y0090870D01*
X0044748Y0090884D01*
X0044769Y0090898D01*
X0044791Y0090912D01*
X0044812Y0090926D01*
X0044834Y0090940D01*
X0044856Y0090953D01*
X0044877Y0090967D01*
X0044899Y0090981D01*
X0044921Y0090994D01*
X0045239Y0091187D01*
X0045979Y0091624D01*
X0046726Y0092047D01*
X0047479Y0092459D01*
X0048239Y0092858D01*
X0049004Y0093246D01*
X0049774Y0093624D01*
X0050549Y0093992D01*
X0051329Y0094350D01*
X0052113Y0094699D01*
X0052902Y0095040D01*
X0053694Y0095373D01*
X0054490Y0095697D01*
X0055289Y0096013D01*
X0056091Y0096322D01*
X0056895Y0096623D01*
X0057702Y0096917D01*
X0058510Y0097204D01*
X0059320Y0097484D01*
X0060132Y0097757D01*
X0060945Y0098025D01*
X0061760Y0098287D01*
X0062578Y0098542D01*
X0063396Y0098792D01*
X0064217Y0099037D01*
X0065038Y0099276D01*
X0065862Y0099510D01*
X0066686Y0099740D01*
X0067513Y0099964D01*
X0068341Y0100184D01*
X0069170Y0100400D01*
X0070000Y0100611D01*
X0070832Y0100818D01*
X0071665Y0101020D01*
X0072500Y0101219D01*
X0073335Y0101413D01*
X0074171Y0101604D01*
X0075008Y0101790D01*
X0075846Y0101973D01*
X0076685Y0102152D01*
X0077524Y0102327D01*
X0078364Y0102499D01*
X0079204Y0102668D01*
X0080045Y0102832D01*
X0080886Y0102994D01*
X0081728Y0103153D01*
X0082570Y0103308D01*
X0083412Y0103460D01*
X0084254Y0103610D01*
X0085096Y0103756D01*
X0085939Y0103899D01*
X0086782Y0104040D01*
X0087625Y0104178D01*
X0088469Y0104313D01*
X0089313Y0104445D01*
X0090156Y0104574D01*
X0091001Y0104701D01*
X0091845Y0104826D01*
X0092690Y0104947D01*
X0093534Y0105067D01*
X0094379Y0105184D01*
X0095224Y0105298D01*
X0096070Y0105411D01*
X0096915Y0105521D01*
X0097761Y0105629D01*
X0098607Y0105734D01*
X0099453Y0105838D01*
X0100299Y0105940D01*
X0101146Y0106039D01*
X0101992Y0106137D01*
X0102839Y0106232D01*
X0103686Y0106326D01*
X0104533Y0106417D01*
X0105380Y0106507D01*
X0106228Y0106595D01*
X0107075Y0106680D01*
X0107923Y0106764D01*
X0108771Y0106846D01*
X0109619Y0106927D01*
X0110467Y0107005D01*
X0111316Y0107082D01*
X0112164Y0107156D01*
X0113013Y0107230D01*
X0113861Y0107301D01*
X0114710Y0107371D01*
X0115559Y0107439D01*
X0116409Y0107505D01*
X0117258Y0107570D01*
X0118107Y0107633D01*
X0118957Y0107695D01*
X0119807Y0107755D01*
X0120657Y0107813D01*
X0121507Y0107870D01*
X0122357Y0107925D01*
X0123207Y0107979D01*
X0124057Y0108032D01*
X0124908Y0108083D01*
X0124974Y0108087D01*
X0125027Y0108090D01*
X0125054Y0108091D01*
X0125107Y0108093D01*
X0125134Y0108094D01*
X0125187Y0108096D01*
X0125214Y0108097D01*
X0125267Y0108098D01*
X0125294Y0108098D01*
X0125320Y0108099D01*
X0125347Y0108099D01*
X0125374Y0108099D01*
X0125400Y0108099D01*
X0193173Y0108099D01*
X0193200Y0108099D01*
X0193227Y0108099D01*
X0193280Y0108098D01*
X0193307Y0108097D01*
X0193333Y0108097D01*
X0193360Y0108096D01*
X0193413Y0108095D01*
X0193440Y0108094D01*
X0193467Y0108093D01*
X0193493Y0108092D01*
X0193520Y0108090D01*
X0193546Y0108089D01*
X0193573Y0108087D01*
X0193600Y0108086D01*
X0194103Y0108056D01*
X0194943Y0108005D01*
X0195782Y0107952D01*
X0196621Y0107897D01*
X0197461Y0107842D01*
X0198300Y0107785D01*
X0199139Y0107726D01*
X0199978Y0107666D01*
X0200817Y0107605D01*
X0201656Y0107541D01*
X0202495Y0107477D01*
X0203333Y0107410D01*
X0204172Y0107342D01*
X0205010Y0107273D01*
X0205848Y0107201D01*
X0206686Y0107129D01*
X0207524Y0107054D01*
X0208362Y0106977D01*
X0209200Y0106899D01*
X0210037Y0106819D01*
X0210875Y0106738D01*
X0211712Y0106654D01*
X0212549Y0106569D01*
X0213386Y0106481D01*
X0214223Y0106393D01*
X0215059Y0106301D01*
X0215896Y0106208D01*
X0216732Y0106114D01*
X0217569Y0106017D01*
X0218405Y0105918D01*
X0219241Y0105817D01*
X0220076Y0105714D01*
X0220912Y0105609D01*
X0221747Y0105502D01*
X0222583Y0105393D01*
X0223418Y0105281D01*
X0224253Y0105168D01*
X0225088Y0105052D01*
X0225923Y0104933D01*
X0226757Y0104813D01*
X0227592Y0104689D01*
X0228426Y0104564D01*
X0229260Y0104435D01*
X0230094Y0104305D01*
X0230927Y0104171D01*
X0231761Y0104035D01*
X0232594Y0103896D01*
X0233426Y0103755D01*
X0234259Y0103610D01*
X0235091Y0103462D01*
X0235923Y0103312D01*
X0236754Y0103159D01*
X0237585Y0103002D01*
X0238416Y0102843D01*
X0239245Y0102680D01*
X0240074Y0102515D01*
X0240900Y0102346D01*
X0241727Y0102173D01*
X0242552Y0101998D01*
X0243377Y0101819D01*
X0244200Y0101636D01*
X0245022Y0101450D01*
X0245843Y0101259D01*
X0246662Y0101065D01*
X0247481Y0100868D01*
X0248298Y0100665D01*
X0249115Y0100459D01*
X0249930Y0100249D01*
X0250743Y0100034D01*
X0251556Y0099815D01*
X0252365Y0099591D01*
X0253174Y0099363D01*
X0253983Y0099130D01*
X0254788Y0098892D01*
X0255593Y0098649D01*
X0256396Y0098401D01*
X0257198Y0098146D01*
X0257997Y0097887D01*
X0258796Y0097621D01*
X0259591Y0097350D01*
X0260385Y0097072D01*
X0261178Y0096788D01*
X0261967Y0096497D01*
X0262755Y0096199D01*
X0263540Y0095893D01*
X0264324Y0095580D01*
X0265105Y0095259D01*
X0265883Y0094930D01*
X0266658Y0094591D01*
X0267430Y0094244D01*
X0268200Y0093887D01*
X0268967Y0093520D01*
X0269731Y0093143D01*
X0270489Y0092754D01*
X0271243Y0092355D01*
X0271989Y0091944D01*
X0272727Y0091522D01*
X0273459Y0091087D01*
X0273644Y0090974D01*
X0273688Y0090947D01*
X0273709Y0090934D01*
X0273774Y0090893D01*
X0273839Y0090851D01*
X0273859Y0090836D01*
X0273881Y0090822D01*
X0273924Y0090794D01*
X0273989Y0090750D01*
X0274009Y0090735D01*
X0274030Y0090720D01*
X0274074Y0090690D01*
X0274095Y0090675D01*
X0274115Y0090660D01*
X0274137Y0090645D01*
X0274158Y0090630D01*
X0274178Y0090614D01*
X0274221Y0090583D01*
X0274241Y0090568D01*
X0274263Y0090552D01*
X0274282Y0090536D01*
X0274304Y0090520D01*
X0274324Y0090504D01*
X0274345Y0090488D01*
X0274365Y0090472D01*
X0274387Y0090456D01*
X0274406Y0090440D01*
X0274428Y0090424D01*
X0274448Y0090407D01*
X0274469Y0090391D01*
X0274489Y0090374D01*
X0274509Y0090357D01*
X0274530Y0090341D01*
X0274550Y0090324D01*
X0274589Y0090290D01*
X0274611Y0090273D01*
X0274650Y0090239D01*
X0274690Y0090204D01*
X0274711Y0090187D01*
X0274731Y0090169D01*
X0274751Y0090152D01*
X0274770Y0090134D01*
X0274790Y0090116D01*
X0274810Y0090098D01*
X0274849Y0090063D01*
X0274889Y0090026D01*
X0274906Y0090008D01*
X0274946Y0089972D01*
X0274965Y0089953D01*
X0274985Y0089935D01*
X0275003Y0089916D01*
X0275022Y0089898D01*
X0275042Y0089879D01*
X0275060Y0089860D01*
X0275099Y0089822D01*
X0275117Y0089803D01*
X0275137Y0089784D01*
X0275154Y0089765D01*
X0275174Y0089746D01*
X0275192Y0089727D01*
X0275211Y0089707D01*
X0275247Y0089668D01*
X0275267Y0089649D01*
X0275284Y0089629D01*
X0275302Y0089609D01*
X0275322Y0089590D01*
X0275357Y0089550D01*
X0275410Y0089490D01*
X0275463Y0089429D01*
X0275517Y0089367D01*
X0275570Y0089305D01*
X0275585Y0089284D01*
X0275621Y0089243D01*
X0275639Y0089222D01*
X0275654Y0089201D01*
X0275672Y0089180D01*
X0275688Y0089158D01*
X0275706Y0089137D01*
X0275721Y0089116D01*
X0275739Y0089094D01*
X0275755Y0089073D01*
X0275772Y0089051D01*
X0275788Y0089030D01*
X0275804Y0089008D01*
X0275822Y0088986D01*
X0275837Y0088965D01*
X0275869Y0088921D01*
X0275885Y0088899D01*
X0275900Y0088877D01*
X0275916Y0088855D01*
X0275932Y0088833D01*
X0275948Y0088811D01*
X0275979Y0088766D01*
X0276042Y0088677D01*
X0276056Y0088654D01*
X0276087Y0088609D01*
X0276101Y0088586D01*
X0276117Y0088563D01*
X0276131Y0088540D01*
X0276146Y0088517D01*
X0276160Y0088494D01*
X0276176Y0088471D01*
X0276190Y0088448D01*
X0276204Y0088425D01*
X0276219Y0088402D01*
X0276247Y0088356D01*
X0276274Y0088309D01*
X0276288Y0088286D01*
X0276302Y0088262D01*
X0276316Y0088239D01*
X0276371Y0088144D01*
X0276398Y0088096D01*
X0276410Y0088073D01*
X0276424Y0088049D01*
X0276438Y0088025D01*
X0276450Y0088001D01*
X0276463Y0087977D01*
X0276475Y0087953D01*
X0276489Y0087929D01*
X0276513Y0087880D01*
X0276526Y0087856D01*
X0276538Y0087832D01*
X0276550Y0087807D01*
X0276562Y0087783D01*
X0276576Y0087759D01*
X0276587Y0087734D01*
X0276599Y0087710D01*
X0276611Y0087685D01*
X0276646Y0087612D01*
X0276656Y0087587D01*
X0276668Y0087562D01*
X0276680Y0087538D01*
X0276692Y0087513D01*
X0276702Y0087488D01*
X0276713Y0087463D01*
X0276725Y0087438D01*
X0276735Y0087413D01*
X0276747Y0087388D01*
X0276757Y0087363D01*
X0276769Y0087338D01*
X0276788Y0087288D01*
X0276798Y0087263D01*
X0276810Y0087238D01*
X0276839Y0087163D01*
X0276849Y0087137D01*
X0276869Y0087087D01*
X0276898Y0087011D01*
X0276906Y0086985D01*
X0276926Y0086934D01*
X0276934Y0086909D01*
X0276944Y0086883D01*
X0276954Y0086858D01*
X0276961Y0086832D01*
X0276971Y0086807D01*
X0276987Y0086756D01*
X0276997Y0086730D01*
X0277005Y0086704D01*
X0277013Y0086679D01*
X0277020Y0086653D01*
X0277028Y0086627D01*
X0277091Y0086421D01*
X0277097Y0086395D01*
X0277105Y0086369D01*
X0277113Y0086343D01*
X0277119Y0086317D01*
X0277127Y0086291D01*
X0277133Y0086265D01*
X0277141Y0086239D01*
X0277146Y0086214D01*
X0277152Y0086188D01*
X0277160Y0086162D01*
X0277178Y0086084D01*
X0277184Y0086057D01*
X0277202Y0085980D01*
X0277207Y0085953D01*
X0277219Y0085901D01*
X0277225Y0085875D01*
X0277231Y0085849D01*
X0277235Y0085823D01*
X0277247Y0085771D01*
X0277251Y0085745D01*
X0277257Y0085719D01*
X0277261Y0085693D01*
X0277265Y0085667D01*
X0277270Y0085641D01*
X0277274Y0085615D01*
X0277278Y0085588D01*
X0277284Y0085562D01*
X0277288Y0085536D01*
X0277292Y0085510D01*
X0277296Y0085484D01*
X0277300Y0085458D01*
X0277304Y0085432D01*
X0277308Y0085406D01*
X0277316Y0085354D01*
X0277320Y0085328D01*
X0277322Y0085302D01*
X0277326Y0085275D01*
X0277330Y0085249D01*
X0277331Y0085223D01*
X0277335Y0085197D01*
X0277339Y0085171D01*
X0277341Y0085145D01*
X0277345Y0085119D01*
X0277349Y0085067D01*
X0277353Y0085041D01*
X0277359Y0084963D01*
X0277363Y0084937D01*
X0277365Y0084911D01*
X0277367Y0084886D01*
X0277369Y0084860D01*
X0277371Y0084834D01*
X0277373Y0084808D01*
X0277373Y0084782D01*
X0277375Y0084756D01*
X0277381Y0084679D01*
X0277381Y0084653D01*
X0277383Y0084627D01*
X0277383Y0084601D01*
X0277385Y0084576D01*
X0277385Y0084550D01*
X0277387Y0084524D01*
X0277387Y0084498D01*
X0277389Y0084473D01*
X0277389Y0084396D01*
X0277391Y0084370D01*
X0277391Y0045188D01*
X0277389Y0045162D01*
X0277389Y0045111D01*
X0277387Y0045085D01*
X0277387Y0045034D01*
X0277385Y0045008D01*
X0277385Y0044982D01*
X0277381Y0044931D01*
X0277381Y0044905D01*
X0277377Y0044854D01*
X0277377Y0044828D01*
X0277375Y0044802D01*
X0277373Y0044776D01*
X0277371Y0044750D01*
X0277369Y0044724D01*
X0277367Y0044698D01*
X0277365Y0044672D01*
X0277359Y0044594D01*
X0277355Y0044569D01*
X0277351Y0044517D01*
X0277347Y0044491D01*
X0277343Y0044439D01*
X0277339Y0044413D01*
X0277337Y0044387D01*
X0277333Y0044360D01*
X0277330Y0044334D01*
X0277328Y0044308D01*
X0277324Y0044282D01*
X0277316Y0044230D01*
X0277314Y0044204D01*
X0277310Y0044178D01*
X0277306Y0044152D01*
X0277302Y0044126D01*
X0277298Y0044100D01*
X0277294Y0044074D01*
X0277290Y0044048D01*
X0277284Y0044022D01*
X0277280Y0043995D01*
X0277276Y0043969D01*
X0277272Y0043943D01*
X0277267Y0043917D01*
X0277263Y0043891D01*
X0277257Y0043865D01*
X0277253Y0043839D01*
X0277247Y0043813D01*
X0277243Y0043787D01*
X0277237Y0043761D01*
X0277231Y0043735D01*
X0277227Y0043709D01*
X0277221Y0043682D01*
X0277209Y0043631D01*
X0277204Y0043604D01*
X0277180Y0043500D01*
X0277174Y0043474D01*
X0277162Y0043422D01*
X0277154Y0043396D01*
X0277148Y0043370D01*
X0277143Y0043344D01*
X0277135Y0043319D01*
X0277129Y0043293D01*
X0277121Y0043267D01*
X0277115Y0043241D01*
X0277107Y0043215D01*
X0277101Y0043189D01*
X0277093Y0043163D01*
X0277078Y0043111D01*
X0277072Y0043085D01*
X0277048Y0043008D01*
X0277040Y0042982D01*
X0277024Y0042931D01*
X0277015Y0042905D01*
X0277007Y0042880D01*
X0276999Y0042854D01*
X0276991Y0042828D01*
X0276981Y0042803D01*
X0276973Y0042777D01*
X0276963Y0042751D01*
X0276956Y0042726D01*
X0276946Y0042700D01*
X0276938Y0042675D01*
X0276928Y0042649D01*
X0276920Y0042624D01*
X0276891Y0042548D01*
X0276883Y0042522D01*
X0276873Y0042497D01*
X0276863Y0042472D01*
X0276853Y0042446D01*
X0276833Y0042396D01*
X0276822Y0042371D01*
X0276802Y0042320D01*
X0276792Y0042295D01*
X0276782Y0042270D01*
X0276770Y0042245D01*
X0276761Y0042220D01*
X0276749Y0042195D01*
X0276739Y0042170D01*
X0276727Y0042145D01*
X0276717Y0042120D01*
X0276706Y0042095D01*
X0276696Y0042071D01*
X0276684Y0042046D01*
X0276672Y0042021D01*
X0276660Y0041996D01*
X0276648Y0041972D01*
X0276639Y0041947D01*
X0276603Y0041873D01*
X0276580Y0041825D01*
X0276566Y0041800D01*
X0276542Y0041751D01*
X0276530Y0041727D01*
X0276517Y0041703D01*
X0276493Y0041655D01*
X0276479Y0041631D01*
X0276467Y0041606D01*
X0276454Y0041582D01*
X0276442Y0041558D01*
X0276428Y0041534D01*
X0276414Y0041511D01*
X0276402Y0041487D01*
X0276389Y0041463D01*
X0276375Y0041439D01*
X0276361Y0041415D01*
X0276347Y0041392D01*
X0276335Y0041368D01*
X0276322Y0041344D01*
X0276308Y0041321D01*
X0276294Y0041297D01*
X0276280Y0041274D01*
X0276265Y0041251D01*
X0276251Y0041227D01*
X0276223Y0041181D01*
X0276209Y0041158D01*
X0276194Y0041135D01*
X0276180Y0041112D01*
X0276166Y0041089D01*
X0276150Y0041066D01*
X0276137Y0041043D01*
X0276121Y0041020D01*
X0276107Y0040997D01*
X0276091Y0040974D01*
X0276076Y0040952D01*
X0276062Y0040929D01*
X0276046Y0040906D01*
X0276030Y0040884D01*
X0276015Y0040861D01*
X0276001Y0040839D01*
X0275985Y0040816D01*
X0275969Y0040794D01*
X0275954Y0040772D01*
X0275938Y0040750D01*
X0275922Y0040728D01*
X0275891Y0040684D01*
X0275875Y0040662D01*
X0275859Y0040640D01*
X0275841Y0040618D01*
X0275826Y0040596D01*
X0275810Y0040574D01*
X0275794Y0040553D01*
X0275776Y0040531D01*
X0275761Y0040510D01*
X0275743Y0040488D01*
X0275727Y0040467D01*
X0275711Y0040445D01*
X0275694Y0040424D01*
X0275676Y0040403D01*
X0275660Y0040382D01*
X0275643Y0040361D01*
X0275627Y0040340D01*
X0275609Y0040319D01*
X0275591Y0040298D01*
X0275574Y0040277D01*
X0275558Y0040256D01*
X0275540Y0040235D01*
X0275522Y0040215D01*
X0275505Y0040194D01*
X0275487Y0040174D01*
X0275469Y0040153D01*
X0275452Y0040133D01*
X0275434Y0040113D01*
X0275398Y0040072D01*
X0275381Y0040052D01*
X0275363Y0040032D01*
X0275345Y0040012D01*
X0275326Y0039992D01*
X0275308Y0039973D01*
X0275290Y0039953D01*
X0275272Y0039933D01*
X0275253Y0039914D01*
X0275235Y0039894D01*
X0275217Y0039875D01*
X0275198Y0039855D01*
X0275180Y0039836D01*
X0275160Y0039817D01*
X0275143Y0039797D01*
X0275123Y0039778D01*
X0275105Y0039759D01*
X0275085Y0039740D01*
X0275066Y0039722D01*
X0275048Y0039703D01*
X0275009Y0039665D01*
X0274991Y0039647D01*
X0274971Y0039628D01*
X0274952Y0039610D01*
X0274932Y0039591D01*
X0274914Y0039573D01*
X0274894Y0039555D01*
X0274875Y0039537D01*
X0274855Y0039519D01*
X0274835Y0039501D01*
X0274816Y0039483D01*
X0274796Y0039465D01*
X0274776Y0039447D01*
X0274757Y0039430D01*
X0274737Y0039412D01*
X0274698Y0039377D01*
X0274678Y0039360D01*
X0274656Y0039342D01*
X0274637Y0039325D01*
X0274617Y0039308D01*
X0274597Y0039291D01*
X0274576Y0039274D01*
X0274556Y0039257D01*
X0274536Y0039240D01*
X0274517Y0039223D01*
X0274495Y0039207D01*
X0274475Y0039190D01*
X0274454Y0039174D01*
X0274434Y0039157D01*
X0274414Y0039141D01*
X0274393Y0039125D01*
X0274373Y0039108D01*
X0274351Y0039092D01*
X0274331Y0039076D01*
X0274310Y0039060D01*
X0274290Y0039044D01*
X0274269Y0039029D01*
X0274249Y0039013D01*
X0274227Y0038997D01*
X0274206Y0038982D01*
X0274186Y0038966D01*
X0274164Y0038951D01*
X0274143Y0038936D01*
X0274123Y0038920D01*
X0274101Y0038905D01*
X0274080Y0038890D01*
X0274058Y0038875D01*
X0274038Y0038860D01*
X0274017Y0038845D01*
X0273995Y0038831D01*
X0273973Y0038816D01*
X0273952Y0038801D01*
X0273932Y0038787D01*
X0273910Y0038772D01*
X0273889Y0038758D01*
X0273867Y0038744D01*
X0273845Y0038730D01*
X0273824Y0038716D01*
X0273802Y0038702D01*
X0273780Y0038688D01*
X0273759Y0038674D01*
X0273737Y0038660D01*
X0273715Y0038646D01*
X0273694Y0038633D01*
X0273672Y0038619D01*
X0273650Y0038606D01*
X0273629Y0038592D01*
X0272928Y0038172D01*
X0272186Y0037742D01*
X0271434Y0037325D01*
X0270678Y0036920D01*
X0269916Y0036526D01*
X0269148Y0036144D01*
X0268375Y0035771D01*
X0267597Y0035409D01*
X0266814Y0035055D01*
X0266028Y0034710D01*
X0265237Y0034374D01*
X0264444Y0034046D01*
X0263646Y0033725D01*
X0262845Y0033413D01*
X0262042Y0033109D01*
X0261237Y0032811D01*
X0260428Y0032521D01*
X0259619Y0032238D01*
X0258810Y0031961D01*
X0257997Y0031690D01*
X0257182Y0031426D01*
X0256365Y0031167D01*
X0255548Y0030915D01*
X0254727Y0030668D01*
X0253906Y0030426D01*
X0253083Y0030189D01*
X0252261Y0029957D01*
X0251434Y0029731D01*
X0250607Y0029508D01*
X0249778Y0029291D01*
X0248948Y0029077D01*
X0248117Y0028868D01*
X0247284Y0028664D01*
X0246452Y0028463D01*
X0245617Y0028267D01*
X0244780Y0028074D01*
X0243944Y0027886D01*
X0243107Y0027701D01*
X0242269Y0027521D01*
X0241428Y0027343D01*
X0240589Y0027170D01*
X0239749Y0027000D01*
X0238908Y0026833D01*
X0238068Y0026670D01*
X0237226Y0026510D01*
X0236384Y0026353D01*
X0235542Y0026199D01*
X0234700Y0026048D01*
X0233858Y0025900D01*
X0233015Y0025756D01*
X0232172Y0025614D01*
X0231329Y0025475D01*
X0230486Y0025338D01*
X0229642Y0025205D01*
X0228798Y0025074D01*
X0227954Y0024946D01*
X0227110Y0024820D01*
X0226265Y0024697D01*
X0225420Y0024576D01*
X0224576Y0024458D01*
X0223731Y0024342D01*
X0222885Y0024229D01*
X0222040Y0024118D01*
X0221194Y0024009D01*
X0220348Y0023902D01*
X0219502Y0023797D01*
X0218656Y0023694D01*
X0217810Y0023594D01*
X0216963Y0023495D01*
X0216116Y0023399D01*
X0215269Y0023304D01*
X0214422Y0023212D01*
X0213575Y0023121D01*
X0212728Y0023032D01*
X0211880Y0022946D01*
X0211033Y0022861D01*
X0210185Y0022778D01*
X0209337Y0022697D01*
X0208489Y0022617D01*
X0207640Y0022540D01*
X0206792Y0022464D01*
X0205943Y0022390D01*
X0205094Y0022318D01*
X0204245Y0022247D01*
X0203396Y0022178D01*
X0202547Y0022111D01*
X0201698Y0022045D01*
X0200849Y0021981D01*
X0199999Y0021919D01*
X0199149Y0021858D01*
X0198299Y0021799D01*
X0197449Y0021741D01*
X0196599Y0021685D01*
X0195749Y0021630D01*
X0194899Y0021577D01*
X0194048Y0021525D01*
X0193597Y0021498D01*
X0193570Y0021497D01*
X0193544Y0021495D01*
X0193517Y0021494D01*
X0193491Y0021493D01*
X0193464Y0021492D01*
X0193437Y0021491D01*
X0193411Y0021490D01*
X0193384Y0021489D01*
X0193357Y0021488D01*
X0193331Y0021487D01*
X0193304Y0021487D01*
X0193278Y0021486D01*
X0193251Y0021486D01*
X0193224Y0021485D01*
X0193197Y0021485D01*
X0193171Y0021485D01*
X0193144Y0021485D01*
X0125402Y0021485D01*
X0125376Y0021485D01*
X0125349Y0021485D01*
X0125322Y0021486D01*
X0125295Y0021486D01*
X0125269Y0021486D01*
X0125242Y0021487D01*
X0125216Y0021488D01*
X0125189Y0021488D01*
X0125162Y0021489D01*
X0125136Y0021490D01*
X0125109Y0021491D01*
X0125082Y0021492D01*
X0125056Y0021493D01*
X0125029Y0021495D01*
X0125003Y0021496D01*
X0124976Y0021498D01*
X0124850Y0021505D01*
X0124010Y0021556D01*
X0123171Y0021608D01*
X0122331Y0021661D01*
X0121492Y0021716D01*
X0120652Y0021772D01*
X0119813Y0021830D01*
X0118974Y0021889D01*
X0118135Y0021950D01*
X0117296Y0022013D01*
X0116457Y0022077D01*
X0115619Y0022142D01*
X0114780Y0022209D01*
X0113942Y0022278D01*
X0113104Y0022348D01*
X0112266Y0022420D01*
X0111428Y0022494D01*
X0110590Y0022570D01*
X0109752Y0022647D01*
X0108914Y0022726D01*
X0108077Y0022807D01*
X0107240Y0022889D01*
X0106402Y0022974D01*
X0105565Y0023060D01*
X0104728Y0023148D01*
X0103892Y0023238D01*
X0103055Y0023330D01*
X0102219Y0023424D01*
X0101382Y0023520D01*
X0100546Y0023618D01*
X0099710Y0023717D01*
X0098874Y0023819D01*
X0098039Y0023923D01*
X0097203Y0024029D01*
X0096368Y0024138D01*
X0095532Y0024248D01*
X0094697Y0024360D01*
X0093862Y0024475D01*
X0093027Y0024592D01*
X0092193Y0024712D01*
X0091358Y0024834D01*
X0090524Y0024958D01*
X0089690Y0025085D01*
X0088856Y0025215D01*
X0088022Y0025347D01*
X0087189Y0025481D01*
X0086356Y0025619D01*
X0085523Y0025759D01*
X0084690Y0025902D01*
X0083858Y0026048D01*
X0083026Y0026197D01*
X0082194Y0026349D01*
X0081363Y0026504D01*
X0080532Y0026662D01*
X0079702Y0026823D01*
X0078873Y0026987D01*
X0078045Y0027155D01*
X0077219Y0027325D01*
X0076393Y0027499D01*
X0075568Y0027677D01*
X0074744Y0027858D01*
X0073921Y0028042D01*
X0073100Y0028230D01*
X0072280Y0028423D01*
X0071460Y0028619D01*
X0070643Y0028819D01*
X0069826Y0029023D01*
X0069010Y0029231D01*
X0068196Y0029444D01*
X0067384Y0029661D01*
X0066572Y0029882D01*
X0065762Y0030108D01*
X0064954Y0030339D01*
X0064147Y0030574D01*
X0063342Y0030815D01*
X0062538Y0031061D01*
D12*
X0105146Y0041957D03*
X0112627Y0041957D03*
X0108887Y0051406D03*
X0144320Y0073060D03*
X0149831Y0073060D03*
X0151013Y0094320D03*
X0156524Y0094320D03*
D13*
X0152784Y0088808D03*
X0149044Y0088808D03*
X0145304Y0088808D03*
X0145304Y0078572D03*
X0152784Y0078572D03*
D14*
X0155343Y0101800D03*
X0144320Y0101800D03*
D15*
X0161446Y0094123D03*
X0164989Y0094123D03*
G36*
X0185448Y0089738D02*
X0186839Y0088347D01*
X0185726Y0087234D01*
X0184335Y0088625D01*
X0185448Y0089738D01*
G37*
G36*
X0187953Y0087232D02*
X0189344Y0085841D01*
X0188231Y0084728D01*
X0186840Y0086119D01*
X0187953Y0087232D01*
G37*
G36*
X0191028Y0085841D02*
X0192419Y0087232D01*
X0193532Y0086119D01*
X0192141Y0084728D01*
X0191028Y0085841D01*
G37*
G36*
X0193533Y0088347D02*
X0194924Y0089738D01*
X0196037Y0088625D01*
X0194646Y0087234D01*
X0193533Y0088347D01*
G37*
G36*
X0181470Y0072877D02*
X0180079Y0071486D01*
X0178966Y0072599D01*
X0180357Y0073990D01*
X0181470Y0072877D01*
G37*
G36*
X0178965Y0070371D02*
X0177574Y0068980D01*
X0176461Y0070093D01*
X0177852Y0071484D01*
X0178965Y0070371D01*
G37*
G36*
X0191237Y0041368D02*
X0189846Y0042759D01*
X0190959Y0043872D01*
X0192350Y0042481D01*
X0191237Y0041368D01*
G37*
G36*
X0193743Y0038862D02*
X0192352Y0040253D01*
X0193465Y0041366D01*
X0194856Y0039975D01*
X0193743Y0038862D01*
G37*
X0092351Y0063611D03*
X0092351Y0067548D03*
D16*
X0155737Y0058493D03*
X0159674Y0058493D03*
G36*
X0176647Y0044460D02*
X0175534Y0045573D01*
X0176925Y0046964D01*
X0178038Y0045851D01*
X0176647Y0044460D01*
G37*
G36*
X0179431Y0041676D02*
X0178318Y0042789D01*
X0179709Y0044180D01*
X0180822Y0043067D01*
X0179431Y0041676D01*
G37*
X0185265Y0034083D03*
X0189202Y0034083D03*
X0213217Y0035068D03*
X0213217Y0038611D03*
X0225422Y0049635D03*
X0225422Y0053178D03*
X0236052Y0038611D03*
X0236052Y0035068D03*
G36*
X0183646Y0082369D02*
X0184759Y0081256D01*
X0183368Y0079865D01*
X0182255Y0080978D01*
X0183646Y0082369D01*
G37*
G36*
X0180862Y0085153D02*
X0181975Y0084040D01*
X0180584Y0082649D01*
X0179471Y0083762D01*
X0180862Y0085153D01*
G37*
X0165186Y0087036D03*
X0161249Y0087036D03*
X0161249Y0090580D03*
X0165186Y0090580D03*
D17*
X0219517Y0042351D03*
X0228965Y0042351D03*
X0228965Y0036052D03*
X0219517Y0036052D03*
D18*
X0261643Y0077784D03*
X0261643Y0083296D03*
X0060855Y0051800D03*
X0060855Y0046288D03*
D19*
G36*
X0185655Y0063051D02*
X0183151Y0060547D01*
X0182455Y0061243D01*
X0184959Y0063747D01*
X0185655Y0063051D01*
G37*
G36*
X0187047Y0061659D02*
X0184543Y0059155D01*
X0183847Y0059851D01*
X0186351Y0062355D01*
X0187047Y0061659D01*
G37*
G36*
X0188439Y0060268D02*
X0185935Y0057764D01*
X0185239Y0058460D01*
X0187743Y0060964D01*
X0188439Y0060268D01*
G37*
G36*
X0189831Y0058876D02*
X0187327Y0056372D01*
X0186631Y0057068D01*
X0189135Y0059572D01*
X0189831Y0058876D01*
G37*
G36*
X0191223Y0057484D02*
X0188719Y0054980D01*
X0188023Y0055676D01*
X0190527Y0058180D01*
X0191223Y0057484D01*
G37*
G36*
X0192615Y0056092D02*
X0190111Y0053588D01*
X0189415Y0054284D01*
X0191919Y0056788D01*
X0192615Y0056092D01*
G37*
G36*
X0194006Y0054700D02*
X0191502Y0052196D01*
X0190806Y0052892D01*
X0193310Y0055396D01*
X0194006Y0054700D01*
G37*
G36*
X0195398Y0053308D02*
X0192894Y0050804D01*
X0192198Y0051500D01*
X0194702Y0054004D01*
X0195398Y0053308D01*
G37*
G36*
X0196790Y0051916D02*
X0194286Y0049412D01*
X0193590Y0050108D01*
X0196094Y0052612D01*
X0196790Y0051916D01*
G37*
G36*
X0198182Y0050524D02*
X0195678Y0048020D01*
X0194982Y0048716D01*
X0197486Y0051220D01*
X0198182Y0050524D01*
G37*
G36*
X0199574Y0049132D02*
X0197070Y0046628D01*
X0196374Y0047324D01*
X0198878Y0049828D01*
X0199574Y0049132D01*
G37*
G36*
X0202360Y0049828D02*
X0204864Y0047324D01*
X0204168Y0046628D01*
X0201664Y0049132D01*
X0202360Y0049828D01*
G37*
G36*
X0203752Y0051220D02*
X0206256Y0048716D01*
X0205560Y0048020D01*
X0203056Y0050524D01*
X0203752Y0051220D01*
G37*
G36*
X0205143Y0052612D02*
X0207647Y0050108D01*
X0206951Y0049412D01*
X0204447Y0051916D01*
X0205143Y0052612D01*
G37*
G36*
X0206535Y0054004D02*
X0209039Y0051500D01*
X0208343Y0050804D01*
X0205839Y0053308D01*
X0206535Y0054004D01*
G37*
G36*
X0207927Y0055396D02*
X0210431Y0052892D01*
X0209735Y0052196D01*
X0207231Y0054700D01*
X0207927Y0055396D01*
G37*
G36*
X0209319Y0056788D02*
X0211823Y0054284D01*
X0211127Y0053588D01*
X0208623Y0056092D01*
X0209319Y0056788D01*
G37*
G36*
X0210711Y0058180D02*
X0213215Y0055676D01*
X0212519Y0054980D01*
X0210015Y0057484D01*
X0210711Y0058180D01*
G37*
G36*
X0212103Y0059572D02*
X0214607Y0057068D01*
X0213911Y0056372D01*
X0211407Y0058876D01*
X0212103Y0059572D01*
G37*
G36*
X0213495Y0060964D02*
X0215999Y0058460D01*
X0215303Y0057764D01*
X0212799Y0060268D01*
X0213495Y0060964D01*
G37*
G36*
X0214887Y0062355D02*
X0217391Y0059851D01*
X0216695Y0059155D01*
X0214191Y0061659D01*
X0214887Y0062355D01*
G37*
G36*
X0216279Y0063747D02*
X0218783Y0061243D01*
X0218087Y0060547D01*
X0215583Y0063051D01*
X0216279Y0063747D01*
G37*
G36*
X0215583Y0066533D02*
X0218087Y0069037D01*
X0218783Y0068341D01*
X0216279Y0065837D01*
X0215583Y0066533D01*
G37*
G36*
X0214191Y0067925D02*
X0216695Y0070429D01*
X0217391Y0069733D01*
X0214887Y0067229D01*
X0214191Y0067925D01*
G37*
G36*
X0212799Y0069317D02*
X0215303Y0071821D01*
X0215999Y0071125D01*
X0213495Y0068621D01*
X0212799Y0069317D01*
G37*
G36*
X0211407Y0070709D02*
X0213911Y0073213D01*
X0214607Y0072517D01*
X0212103Y0070013D01*
X0211407Y0070709D01*
G37*
G36*
X0210015Y0072101D02*
X0212519Y0074605D01*
X0213215Y0073909D01*
X0210711Y0071405D01*
X0210015Y0072101D01*
G37*
G36*
X0208623Y0073493D02*
X0211127Y0075997D01*
X0211823Y0075301D01*
X0209319Y0072797D01*
X0208623Y0073493D01*
G37*
G36*
X0207231Y0074884D02*
X0209735Y0077388D01*
X0210431Y0076692D01*
X0207927Y0074188D01*
X0207231Y0074884D01*
G37*
G36*
X0205839Y0076276D02*
X0208343Y0078780D01*
X0209039Y0078084D01*
X0206535Y0075580D01*
X0205839Y0076276D01*
G37*
G36*
X0204447Y0077668D02*
X0206951Y0080172D01*
X0207647Y0079476D01*
X0205143Y0076972D01*
X0204447Y0077668D01*
G37*
G36*
X0203056Y0079060D02*
X0205560Y0081564D01*
X0206256Y0080868D01*
X0203752Y0078364D01*
X0203056Y0079060D01*
G37*
G36*
X0201664Y0080452D02*
X0204168Y0082956D01*
X0204864Y0082260D01*
X0202360Y0079756D01*
X0201664Y0080452D01*
G37*
G36*
X0198878Y0079756D02*
X0196374Y0082260D01*
X0197070Y0082956D01*
X0199574Y0080452D01*
X0198878Y0079756D01*
G37*
G36*
X0197486Y0078364D02*
X0194982Y0080868D01*
X0195678Y0081564D01*
X0198182Y0079060D01*
X0197486Y0078364D01*
G37*
G36*
X0196094Y0076972D02*
X0193590Y0079476D01*
X0194286Y0080172D01*
X0196790Y0077668D01*
X0196094Y0076972D01*
G37*
G36*
X0194702Y0075580D02*
X0192198Y0078084D01*
X0192894Y0078780D01*
X0195398Y0076276D01*
X0194702Y0075580D01*
G37*
G36*
X0193310Y0074188D02*
X0190806Y0076692D01*
X0191502Y0077388D01*
X0194006Y0074884D01*
X0193310Y0074188D01*
G37*
G36*
X0191919Y0072797D02*
X0189415Y0075301D01*
X0190111Y0075997D01*
X0192615Y0073493D01*
X0191919Y0072797D01*
G37*
G36*
X0190527Y0071405D02*
X0188023Y0073909D01*
X0188719Y0074605D01*
X0191223Y0072101D01*
X0190527Y0071405D01*
G37*
G36*
X0189135Y0070013D02*
X0186631Y0072517D01*
X0187327Y0073213D01*
X0189831Y0070709D01*
X0189135Y0070013D01*
G37*
G36*
X0187743Y0068621D02*
X0185239Y0071125D01*
X0185935Y0071821D01*
X0188439Y0069317D01*
X0187743Y0068621D01*
G37*
G36*
X0186351Y0067229D02*
X0183847Y0069733D01*
X0184543Y0070429D01*
X0187047Y0067925D01*
X0186351Y0067229D01*
G37*
G36*
X0184959Y0065837D02*
X0182455Y0068341D01*
X0183151Y0069037D01*
X0185655Y0066533D01*
X0184959Y0065837D01*
G37*
D20*
G36*
X0189484Y0064792D02*
X0200619Y0075927D01*
X0211754Y0064792D01*
X0200619Y0053657D01*
X0189484Y0064792D01*
G37*
D21*
X0127391Y0077194D03*
X0127391Y0099635D03*
D22*
X0110040Y0084477D03*
X0110040Y0080737D03*
X0110040Y0076997D03*
X0101040Y0076997D03*
X0101040Y0080737D03*
X0101040Y0084477D03*
M02*
