%
M48
M72
T01C0.01575
T02C0.01969
T03C0.03150
T04C0.03200
T05C0.03500
T06C0.03937
T07C0.07087
%
T01
X61446Y56918
X92351Y59871
X100619Y62036
X128178Y63611
X161643Y48650
X165973Y54162
X182902Y52194
X190580Y46485
X205737Y38020
X195501Y34083
X209674Y43139
X214398Y45894
X230934Y52194
X239595Y49044
X226997Y59477
X250816Y66957
X258296Y66761
X251013Y61839
X200619Y64792
X178375Y62430
X167548Y78769
X167548Y82312
X158493Y79950
X140383Y80934
X107706Y95894
X102587Y95894
X92351Y98257
X61446Y87036
X90383Y43926
X132509Y37233
X132509Y31721
X155343Y41957
X212430Y84083
X214989Y90186
X207706Y89989
X197469Y95501
X178965Y88217
X175225Y91564
X262430Y91957
T02
X104950Y69024
X115973Y60560
X126997Y69024
T03
X87627Y81328
X87627Y89202
T04
X142469Y64792
X152469Y64792
T05
X49044Y45107
X49044Y52981
X49044Y60855
X49044Y68729
X269517Y60855
X269517Y68729
X269517Y76603
X269517Y84477
T06
X144280Y30422
X154280Y30422
X164280Y30422
X174280Y30422
X230776Y80265
X240776Y80265
X250776Y80265
X250776Y90265
X240776Y90265
X230776Y90265
T07
X80540Y64792
X238020Y64792
M30
