G75*
%MOIN*%
%OFA0B0*%
%FSLAX25Y25*%
%IPPOS*%
%LPD*%
%AMOC8*
5,1,8,0,0,1.08239X$1,22.5*
%
%ADD10C,0.00000*%
%ADD11C,0.01575*%
%ADD12R,0.03150X0.03937*%
%ADD13R,0.05150X0.05150*%
%ADD14C,0.05150*%
%ADD15R,0.02165X0.03937*%
%ADD16R,0.04724X0.04724*%
%ADD17R,0.01969X0.01575*%
%ADD18R,0.01575X0.01969*%
%ADD19C,0.05937*%
%ADD20R,0.04724X0.03937*%
%ADD21R,0.03937X0.03150*%
%ADD22R,0.15748X0.15748*%
%ADD23R,0.04331X0.01181*%
%ADD24R,0.00886X0.00886*%
%ADD25OC8,0.05200*%
%ADD26R,0.10236X0.05512*%
%ADD27C,0.03969*%
%ADD28R,0.04000X0.02000*%
%ADD29R,0.06500X0.06500*%
%ADD30C,0.06500*%
%ADD31C,0.01600*%
%ADD32C,0.00984*%
%ADD33C,0.02775*%
%ADD34C,0.01969*%
D10*
X0076997Y0064792D02*
X0076999Y0064910D01*
X0077005Y0065029D01*
X0077015Y0065147D01*
X0077029Y0065264D01*
X0077046Y0065381D01*
X0077068Y0065498D01*
X0077094Y0065613D01*
X0077123Y0065728D01*
X0077156Y0065842D01*
X0077193Y0065954D01*
X0077234Y0066065D01*
X0077278Y0066175D01*
X0077326Y0066283D01*
X0077378Y0066390D01*
X0077433Y0066495D01*
X0077492Y0066598D01*
X0077554Y0066698D01*
X0077619Y0066797D01*
X0077688Y0066894D01*
X0077759Y0066988D01*
X0077834Y0067079D01*
X0077912Y0067169D01*
X0077993Y0067255D01*
X0078077Y0067339D01*
X0078163Y0067420D01*
X0078253Y0067498D01*
X0078344Y0067573D01*
X0078438Y0067644D01*
X0078535Y0067713D01*
X0078634Y0067778D01*
X0078734Y0067840D01*
X0078837Y0067899D01*
X0078942Y0067954D01*
X0079049Y0068006D01*
X0079157Y0068054D01*
X0079267Y0068098D01*
X0079378Y0068139D01*
X0079490Y0068176D01*
X0079604Y0068209D01*
X0079719Y0068238D01*
X0079834Y0068264D01*
X0079951Y0068286D01*
X0080068Y0068303D01*
X0080185Y0068317D01*
X0080303Y0068327D01*
X0080422Y0068333D01*
X0080540Y0068335D01*
X0080658Y0068333D01*
X0080777Y0068327D01*
X0080895Y0068317D01*
X0081012Y0068303D01*
X0081129Y0068286D01*
X0081246Y0068264D01*
X0081361Y0068238D01*
X0081476Y0068209D01*
X0081590Y0068176D01*
X0081702Y0068139D01*
X0081813Y0068098D01*
X0081923Y0068054D01*
X0082031Y0068006D01*
X0082138Y0067954D01*
X0082243Y0067899D01*
X0082346Y0067840D01*
X0082446Y0067778D01*
X0082545Y0067713D01*
X0082642Y0067644D01*
X0082736Y0067573D01*
X0082827Y0067498D01*
X0082917Y0067420D01*
X0083003Y0067339D01*
X0083087Y0067255D01*
X0083168Y0067169D01*
X0083246Y0067079D01*
X0083321Y0066988D01*
X0083392Y0066894D01*
X0083461Y0066797D01*
X0083526Y0066698D01*
X0083588Y0066598D01*
X0083647Y0066495D01*
X0083702Y0066390D01*
X0083754Y0066283D01*
X0083802Y0066175D01*
X0083846Y0066065D01*
X0083887Y0065954D01*
X0083924Y0065842D01*
X0083957Y0065728D01*
X0083986Y0065613D01*
X0084012Y0065498D01*
X0084034Y0065381D01*
X0084051Y0065264D01*
X0084065Y0065147D01*
X0084075Y0065029D01*
X0084081Y0064910D01*
X0084083Y0064792D01*
X0084081Y0064674D01*
X0084075Y0064555D01*
X0084065Y0064437D01*
X0084051Y0064320D01*
X0084034Y0064203D01*
X0084012Y0064086D01*
X0083986Y0063971D01*
X0083957Y0063856D01*
X0083924Y0063742D01*
X0083887Y0063630D01*
X0083846Y0063519D01*
X0083802Y0063409D01*
X0083754Y0063301D01*
X0083702Y0063194D01*
X0083647Y0063089D01*
X0083588Y0062986D01*
X0083526Y0062886D01*
X0083461Y0062787D01*
X0083392Y0062690D01*
X0083321Y0062596D01*
X0083246Y0062505D01*
X0083168Y0062415D01*
X0083087Y0062329D01*
X0083003Y0062245D01*
X0082917Y0062164D01*
X0082827Y0062086D01*
X0082736Y0062011D01*
X0082642Y0061940D01*
X0082545Y0061871D01*
X0082446Y0061806D01*
X0082346Y0061744D01*
X0082243Y0061685D01*
X0082138Y0061630D01*
X0082031Y0061578D01*
X0081923Y0061530D01*
X0081813Y0061486D01*
X0081702Y0061445D01*
X0081590Y0061408D01*
X0081476Y0061375D01*
X0081361Y0061346D01*
X0081246Y0061320D01*
X0081129Y0061298D01*
X0081012Y0061281D01*
X0080895Y0061267D01*
X0080777Y0061257D01*
X0080658Y0061251D01*
X0080540Y0061249D01*
X0080422Y0061251D01*
X0080303Y0061257D01*
X0080185Y0061267D01*
X0080068Y0061281D01*
X0079951Y0061298D01*
X0079834Y0061320D01*
X0079719Y0061346D01*
X0079604Y0061375D01*
X0079490Y0061408D01*
X0079378Y0061445D01*
X0079267Y0061486D01*
X0079157Y0061530D01*
X0079049Y0061578D01*
X0078942Y0061630D01*
X0078837Y0061685D01*
X0078734Y0061744D01*
X0078634Y0061806D01*
X0078535Y0061871D01*
X0078438Y0061940D01*
X0078344Y0062011D01*
X0078253Y0062086D01*
X0078163Y0062164D01*
X0078077Y0062245D01*
X0077993Y0062329D01*
X0077912Y0062415D01*
X0077834Y0062505D01*
X0077759Y0062596D01*
X0077688Y0062690D01*
X0077619Y0062787D01*
X0077554Y0062886D01*
X0077492Y0062986D01*
X0077433Y0063089D01*
X0077378Y0063194D01*
X0077326Y0063301D01*
X0077278Y0063409D01*
X0077234Y0063519D01*
X0077193Y0063630D01*
X0077156Y0063742D01*
X0077123Y0063856D01*
X0077094Y0063971D01*
X0077068Y0064086D01*
X0077046Y0064203D01*
X0077029Y0064320D01*
X0077015Y0064437D01*
X0077005Y0064555D01*
X0076999Y0064674D01*
X0076997Y0064792D01*
X0234477Y0064792D02*
X0234479Y0064910D01*
X0234485Y0065029D01*
X0234495Y0065147D01*
X0234509Y0065264D01*
X0234526Y0065381D01*
X0234548Y0065498D01*
X0234574Y0065613D01*
X0234603Y0065728D01*
X0234636Y0065842D01*
X0234673Y0065954D01*
X0234714Y0066065D01*
X0234758Y0066175D01*
X0234806Y0066283D01*
X0234858Y0066390D01*
X0234913Y0066495D01*
X0234972Y0066598D01*
X0235034Y0066698D01*
X0235099Y0066797D01*
X0235168Y0066894D01*
X0235239Y0066988D01*
X0235314Y0067079D01*
X0235392Y0067169D01*
X0235473Y0067255D01*
X0235557Y0067339D01*
X0235643Y0067420D01*
X0235733Y0067498D01*
X0235824Y0067573D01*
X0235918Y0067644D01*
X0236015Y0067713D01*
X0236114Y0067778D01*
X0236214Y0067840D01*
X0236317Y0067899D01*
X0236422Y0067954D01*
X0236529Y0068006D01*
X0236637Y0068054D01*
X0236747Y0068098D01*
X0236858Y0068139D01*
X0236970Y0068176D01*
X0237084Y0068209D01*
X0237199Y0068238D01*
X0237314Y0068264D01*
X0237431Y0068286D01*
X0237548Y0068303D01*
X0237665Y0068317D01*
X0237783Y0068327D01*
X0237902Y0068333D01*
X0238020Y0068335D01*
X0238138Y0068333D01*
X0238257Y0068327D01*
X0238375Y0068317D01*
X0238492Y0068303D01*
X0238609Y0068286D01*
X0238726Y0068264D01*
X0238841Y0068238D01*
X0238956Y0068209D01*
X0239070Y0068176D01*
X0239182Y0068139D01*
X0239293Y0068098D01*
X0239403Y0068054D01*
X0239511Y0068006D01*
X0239618Y0067954D01*
X0239723Y0067899D01*
X0239826Y0067840D01*
X0239926Y0067778D01*
X0240025Y0067713D01*
X0240122Y0067644D01*
X0240216Y0067573D01*
X0240307Y0067498D01*
X0240397Y0067420D01*
X0240483Y0067339D01*
X0240567Y0067255D01*
X0240648Y0067169D01*
X0240726Y0067079D01*
X0240801Y0066988D01*
X0240872Y0066894D01*
X0240941Y0066797D01*
X0241006Y0066698D01*
X0241068Y0066598D01*
X0241127Y0066495D01*
X0241182Y0066390D01*
X0241234Y0066283D01*
X0241282Y0066175D01*
X0241326Y0066065D01*
X0241367Y0065954D01*
X0241404Y0065842D01*
X0241437Y0065728D01*
X0241466Y0065613D01*
X0241492Y0065498D01*
X0241514Y0065381D01*
X0241531Y0065264D01*
X0241545Y0065147D01*
X0241555Y0065029D01*
X0241561Y0064910D01*
X0241563Y0064792D01*
X0241561Y0064674D01*
X0241555Y0064555D01*
X0241545Y0064437D01*
X0241531Y0064320D01*
X0241514Y0064203D01*
X0241492Y0064086D01*
X0241466Y0063971D01*
X0241437Y0063856D01*
X0241404Y0063742D01*
X0241367Y0063630D01*
X0241326Y0063519D01*
X0241282Y0063409D01*
X0241234Y0063301D01*
X0241182Y0063194D01*
X0241127Y0063089D01*
X0241068Y0062986D01*
X0241006Y0062886D01*
X0240941Y0062787D01*
X0240872Y0062690D01*
X0240801Y0062596D01*
X0240726Y0062505D01*
X0240648Y0062415D01*
X0240567Y0062329D01*
X0240483Y0062245D01*
X0240397Y0062164D01*
X0240307Y0062086D01*
X0240216Y0062011D01*
X0240122Y0061940D01*
X0240025Y0061871D01*
X0239926Y0061806D01*
X0239826Y0061744D01*
X0239723Y0061685D01*
X0239618Y0061630D01*
X0239511Y0061578D01*
X0239403Y0061530D01*
X0239293Y0061486D01*
X0239182Y0061445D01*
X0239070Y0061408D01*
X0238956Y0061375D01*
X0238841Y0061346D01*
X0238726Y0061320D01*
X0238609Y0061298D01*
X0238492Y0061281D01*
X0238375Y0061267D01*
X0238257Y0061257D01*
X0238138Y0061251D01*
X0238020Y0061249D01*
X0237902Y0061251D01*
X0237783Y0061257D01*
X0237665Y0061267D01*
X0237548Y0061281D01*
X0237431Y0061298D01*
X0237314Y0061320D01*
X0237199Y0061346D01*
X0237084Y0061375D01*
X0236970Y0061408D01*
X0236858Y0061445D01*
X0236747Y0061486D01*
X0236637Y0061530D01*
X0236529Y0061578D01*
X0236422Y0061630D01*
X0236317Y0061685D01*
X0236214Y0061744D01*
X0236114Y0061806D01*
X0236015Y0061871D01*
X0235918Y0061940D01*
X0235824Y0062011D01*
X0235733Y0062086D01*
X0235643Y0062164D01*
X0235557Y0062245D01*
X0235473Y0062329D01*
X0235392Y0062415D01*
X0235314Y0062505D01*
X0235239Y0062596D01*
X0235168Y0062690D01*
X0235099Y0062787D01*
X0235034Y0062886D01*
X0234972Y0062986D01*
X0234913Y0063089D01*
X0234858Y0063194D01*
X0234806Y0063301D01*
X0234758Y0063409D01*
X0234714Y0063519D01*
X0234673Y0063630D01*
X0234636Y0063742D01*
X0234603Y0063856D01*
X0234574Y0063971D01*
X0234548Y0064086D01*
X0234526Y0064203D01*
X0234509Y0064320D01*
X0234495Y0064437D01*
X0234485Y0064555D01*
X0234479Y0064674D01*
X0234477Y0064792D01*
D11*
X0062538Y0031061D02*
X0061736Y0031312D01*
X0060935Y0031569D01*
X0060137Y0031832D01*
X0059340Y0032101D01*
X0058545Y0032375D01*
X0057752Y0032656D01*
X0056961Y0032944D01*
X0056172Y0033239D01*
X0055385Y0033541D01*
X0054601Y0033850D01*
X0053819Y0034167D01*
X0053040Y0034493D01*
X0052263Y0034827D01*
X0051489Y0035170D01*
X0050718Y0035522D01*
X0049949Y0035884D01*
X0049184Y0036257D01*
X0048423Y0036640D01*
X0047668Y0037034D01*
X0046918Y0037439D01*
X0046176Y0037856D01*
X0045441Y0038285D01*
X0044928Y0038595D01*
X0044906Y0038608D01*
X0044884Y0038622D01*
X0044862Y0038635D01*
X0044841Y0038649D01*
X0044819Y0038662D01*
X0044798Y0038676D01*
X0044776Y0038690D01*
X0044754Y0038704D01*
X0044733Y0038718D01*
X0044711Y0038732D01*
X0044690Y0038746D01*
X0044668Y0038761D01*
X0044647Y0038775D01*
X0044626Y0038790D01*
X0044604Y0038804D01*
X0044583Y0038819D01*
X0044562Y0038833D01*
X0044540Y0038848D01*
X0044519Y0038863D01*
X0044498Y0038878D01*
X0044477Y0038893D01*
X0044456Y0038908D01*
X0044435Y0038923D01*
X0044414Y0038938D01*
X0044393Y0038954D01*
X0044372Y0038969D01*
X0044351Y0038985D01*
X0044330Y0039000D01*
X0044309Y0039016D01*
X0044288Y0039032D01*
X0044267Y0039047D01*
X0044247Y0039063D01*
X0044226Y0039079D01*
X0044205Y0039095D01*
X0044185Y0039111D01*
X0044164Y0039128D01*
X0044143Y0039144D01*
X0044123Y0039160D01*
X0044102Y0039177D01*
X0044082Y0039193D01*
X0044062Y0039210D01*
X0044041Y0039227D01*
X0044021Y0039243D01*
X0044001Y0039260D01*
X0043980Y0039277D01*
X0043960Y0039294D01*
X0043940Y0039311D01*
X0043920Y0039328D01*
X0043900Y0039346D01*
X0043880Y0039363D01*
X0043860Y0039380D01*
X0043840Y0039398D01*
X0043820Y0039415D01*
X0043800Y0039433D01*
X0043781Y0039451D01*
X0043761Y0039468D01*
X0043741Y0039486D01*
X0043722Y0039504D01*
X0043702Y0039522D01*
X0043683Y0039540D01*
X0043663Y0039558D01*
X0043644Y0039577D01*
X0043624Y0039595D01*
X0043605Y0039613D01*
X0043586Y0039632D01*
X0043567Y0039650D01*
X0043548Y0039669D01*
X0043529Y0039688D01*
X0043509Y0039706D01*
X0043491Y0039725D01*
X0043472Y0039744D01*
X0043453Y0039763D01*
X0043434Y0039782D01*
X0043415Y0039801D01*
X0043396Y0039820D01*
X0043378Y0039840D01*
X0043359Y0039859D01*
X0043341Y0039878D01*
X0043322Y0039898D01*
X0043304Y0039917D01*
X0043285Y0039937D01*
X0043267Y0039957D01*
X0043249Y0039976D01*
X0043231Y0039996D01*
X0043213Y0040016D01*
X0043195Y0040036D01*
X0043177Y0040056D01*
X0043159Y0040076D01*
X0043141Y0040096D01*
X0043123Y0040117D01*
X0043105Y0040137D01*
X0043088Y0040157D01*
X0043070Y0040178D01*
X0043052Y0040198D01*
X0043035Y0040219D01*
X0043018Y0040239D01*
X0043000Y0040260D01*
X0042983Y0040281D01*
X0042966Y0040302D01*
X0042949Y0040323D01*
X0042931Y0040344D01*
X0042914Y0040365D01*
X0042898Y0040386D01*
X0042881Y0040407D01*
X0042864Y0040428D01*
X0042847Y0040449D01*
X0042830Y0040471D01*
X0042814Y0040492D01*
X0042797Y0040514D01*
X0042781Y0040535D01*
X0042764Y0040557D01*
X0042748Y0040578D01*
X0042732Y0040600D01*
X0042716Y0040622D01*
X0042699Y0040644D01*
X0042683Y0040666D01*
X0042667Y0040688D01*
X0042652Y0040710D01*
X0042636Y0040732D01*
X0042620Y0040754D01*
X0042604Y0040776D01*
X0042589Y0040798D01*
X0042573Y0040821D01*
X0042558Y0040843D01*
X0042542Y0040865D01*
X0042527Y0040888D01*
X0042512Y0040911D01*
X0042497Y0040933D01*
X0042482Y0040956D01*
X0042467Y0040979D01*
X0042452Y0041001D01*
X0042437Y0041024D01*
X0042422Y0041047D01*
X0042407Y0041070D01*
X0042393Y0041093D01*
X0042378Y0041116D01*
X0042364Y0041139D01*
X0042349Y0041162D01*
X0042335Y0041185D01*
X0042321Y0041208D01*
X0042307Y0041232D01*
X0042293Y0041255D01*
X0042279Y0041279D01*
X0042265Y0041302D01*
X0042251Y0041325D01*
X0042237Y0041349D01*
X0042224Y0041373D01*
X0042210Y0041396D01*
X0042196Y0041420D01*
X0042183Y0041444D01*
X0042170Y0041467D01*
X0042156Y0041491D01*
X0042143Y0041515D01*
X0042130Y0041539D01*
X0042117Y0041563D01*
X0042104Y0041587D01*
X0042091Y0041611D01*
X0042079Y0041635D01*
X0042066Y0041659D01*
X0042053Y0041683D01*
X0042041Y0041707D01*
X0042029Y0041732D01*
X0042016Y0041756D01*
X0042004Y0041780D01*
X0041992Y0041805D01*
X0041980Y0041829D01*
X0041968Y0041854D01*
X0041956Y0041878D01*
X0041944Y0041903D01*
X0041932Y0041927D01*
X0041921Y0041952D01*
X0041909Y0041976D01*
X0041898Y0042001D01*
X0041886Y0042026D01*
X0041875Y0042051D01*
X0041864Y0042075D01*
X0041853Y0042100D01*
X0041842Y0042125D01*
X0041831Y0042150D01*
X0041820Y0042175D01*
X0041809Y0042200D01*
X0041798Y0042225D01*
X0041788Y0042250D01*
X0041777Y0042275D01*
X0041767Y0042300D01*
X0041757Y0042325D01*
X0041746Y0042350D01*
X0041736Y0042375D01*
X0041726Y0042401D01*
X0041716Y0042426D01*
X0041706Y0042451D01*
X0041696Y0042476D01*
X0041687Y0042502D01*
X0041677Y0042527D01*
X0041668Y0042552D01*
X0041658Y0042578D01*
X0041649Y0042603D01*
X0041640Y0042629D01*
X0041630Y0042654D01*
X0041621Y0042680D01*
X0041612Y0042705D01*
X0041604Y0042731D01*
X0041595Y0042756D01*
X0041586Y0042782D01*
X0041577Y0042807D01*
X0041569Y0042833D01*
X0041560Y0042859D01*
X0041552Y0042884D01*
X0041544Y0042910D01*
X0041536Y0042936D01*
X0041528Y0042961D01*
X0041520Y0042987D01*
X0041512Y0043013D01*
X0041504Y0043039D01*
X0041496Y0043065D01*
X0041489Y0043090D01*
X0041481Y0043116D01*
X0041474Y0043142D01*
X0041466Y0043168D01*
X0041459Y0043194D01*
X0041452Y0043220D01*
X0041445Y0043245D01*
X0041438Y0043271D01*
X0041431Y0043297D01*
X0041424Y0043323D01*
X0041417Y0043349D01*
X0041411Y0043375D01*
X0041404Y0043401D01*
X0041398Y0043427D01*
X0041391Y0043453D01*
X0041385Y0043479D01*
X0041379Y0043505D01*
X0041373Y0043531D01*
X0041367Y0043557D01*
X0041361Y0043583D01*
X0041355Y0043609D01*
X0041350Y0043635D01*
X0041344Y0043661D01*
X0041338Y0043687D01*
X0041333Y0043714D01*
X0041328Y0043740D01*
X0041322Y0043766D01*
X0041317Y0043792D01*
X0041312Y0043818D01*
X0041307Y0043844D01*
X0041302Y0043870D01*
X0041298Y0043896D01*
X0041293Y0043922D01*
X0041288Y0043948D01*
X0041284Y0043974D01*
X0041279Y0044000D01*
X0041275Y0044027D01*
X0041271Y0044053D01*
X0041266Y0044079D01*
X0041262Y0044105D01*
X0041258Y0044131D01*
X0041255Y0044157D01*
X0041251Y0044183D01*
X0041247Y0044209D01*
X0041243Y0044235D01*
X0041240Y0044261D01*
X0041236Y0044287D01*
X0041233Y0044313D01*
X0041230Y0044339D01*
X0041227Y0044365D01*
X0041223Y0044391D01*
X0041220Y0044418D01*
X0041218Y0044444D01*
X0041215Y0044469D01*
X0041212Y0044495D01*
X0041209Y0044521D01*
X0041207Y0044547D01*
X0041204Y0044573D01*
X0041202Y0044599D01*
X0041200Y0044625D01*
X0041197Y0044651D01*
X0041195Y0044677D01*
X0041193Y0044703D01*
X0041191Y0044729D01*
X0041189Y0044755D01*
X0041188Y0044781D01*
X0041186Y0044807D01*
X0041184Y0044832D01*
X0041183Y0044858D01*
X0041181Y0044884D01*
X0041180Y0044910D01*
X0041179Y0044936D01*
X0041178Y0044962D01*
X0041177Y0044987D01*
X0041176Y0045013D01*
X0041175Y0045039D01*
X0041174Y0045065D01*
X0041173Y0045090D01*
X0041172Y0045116D01*
X0041172Y0045142D01*
X0041171Y0045167D01*
X0041171Y0045193D01*
X0041171Y0045218D01*
X0041170Y0045244D01*
X0041170Y0045269D01*
X0041170Y0045295D01*
X0041170Y0084290D01*
X0041170Y0084315D01*
X0041170Y0084341D01*
X0041170Y0084366D01*
X0041171Y0084392D01*
X0041171Y0084418D01*
X0041172Y0084443D01*
X0041172Y0084469D01*
X0041173Y0084494D01*
X0041174Y0084520D01*
X0041174Y0084546D01*
X0041175Y0084572D01*
X0041176Y0084597D01*
X0041177Y0084623D01*
X0041178Y0084649D01*
X0041180Y0084675D01*
X0041181Y0084701D01*
X0041182Y0084726D01*
X0041184Y0084752D01*
X0041185Y0084778D01*
X0041187Y0084804D01*
X0041189Y0084830D01*
X0041191Y0084856D01*
X0041193Y0084881D01*
X0041195Y0084907D01*
X0041197Y0084933D01*
X0041199Y0084959D01*
X0041201Y0084985D01*
X0041204Y0085011D01*
X0041206Y0085037D01*
X0041209Y0085063D01*
X0041211Y0085089D01*
X0041214Y0085115D01*
X0041217Y0085141D01*
X0041220Y0085167D01*
X0041223Y0085193D01*
X0041226Y0085219D01*
X0041229Y0085245D01*
X0041232Y0085271D01*
X0041235Y0085297D01*
X0041239Y0085323D01*
X0041242Y0085350D01*
X0041246Y0085376D01*
X0041250Y0085402D01*
X0041253Y0085428D01*
X0041257Y0085454D01*
X0041261Y0085480D01*
X0041265Y0085506D01*
X0041269Y0085532D01*
X0041274Y0085558D01*
X0041278Y0085584D01*
X0041282Y0085610D01*
X0041287Y0085636D01*
X0041291Y0085663D01*
X0041296Y0085689D01*
X0041301Y0085715D01*
X0041306Y0085741D01*
X0041311Y0085767D01*
X0041316Y0085793D01*
X0041321Y0085819D01*
X0041326Y0085845D01*
X0041331Y0085871D01*
X0041337Y0085897D01*
X0041342Y0085923D01*
X0041348Y0085949D01*
X0041353Y0085975D01*
X0041359Y0086001D01*
X0041365Y0086027D01*
X0041371Y0086054D01*
X0041377Y0086080D01*
X0041383Y0086106D01*
X0041389Y0086131D01*
X0041396Y0086157D01*
X0041402Y0086183D01*
X0041409Y0086209D01*
X0041415Y0086235D01*
X0041422Y0086261D01*
X0041429Y0086287D01*
X0041436Y0086313D01*
X0041443Y0086339D01*
X0041450Y0086365D01*
X0041457Y0086391D01*
X0041464Y0086417D01*
X0041471Y0086443D01*
X0041479Y0086469D01*
X0041486Y0086494D01*
X0041494Y0086520D01*
X0041501Y0086546D01*
X0041509Y0086572D01*
X0041517Y0086598D01*
X0041525Y0086623D01*
X0041533Y0086649D01*
X0041541Y0086675D01*
X0041549Y0086700D01*
X0041558Y0086726D01*
X0041566Y0086752D01*
X0041575Y0086777D01*
X0041583Y0086803D01*
X0041592Y0086829D01*
X0041601Y0086854D01*
X0041610Y0086880D01*
X0041619Y0086905D01*
X0041628Y0086931D01*
X0041637Y0086956D01*
X0041646Y0086982D01*
X0041655Y0087007D01*
X0041665Y0087032D01*
X0041674Y0087058D01*
X0041684Y0087083D01*
X0041693Y0087108D01*
X0041703Y0087134D01*
X0041713Y0087159D01*
X0041723Y0087184D01*
X0041733Y0087209D01*
X0041743Y0087235D01*
X0041753Y0087260D01*
X0041764Y0087285D01*
X0041774Y0087310D01*
X0041784Y0087335D01*
X0041795Y0087360D01*
X0041806Y0087385D01*
X0041816Y0087410D01*
X0041827Y0087435D01*
X0041838Y0087460D01*
X0041849Y0087485D01*
X0041860Y0087510D01*
X0041871Y0087534D01*
X0041883Y0087559D01*
X0041894Y0087584D01*
X0041906Y0087609D01*
X0041917Y0087633D01*
X0041929Y0087658D01*
X0041940Y0087682D01*
X0041952Y0087707D01*
X0041964Y0087731D01*
X0041976Y0087756D01*
X0041988Y0087781D01*
X0042000Y0087805D01*
X0042012Y0087829D01*
X0042025Y0087854D01*
X0042037Y0087878D01*
X0042050Y0087902D01*
X0042062Y0087926D01*
X0042075Y0087950D01*
X0042087Y0087974D01*
X0042100Y0087998D01*
X0042113Y0088022D01*
X0042126Y0088046D01*
X0042139Y0088070D01*
X0042152Y0088094D01*
X0042166Y0088118D01*
X0042179Y0088142D01*
X0042192Y0088166D01*
X0042206Y0088189D01*
X0042219Y0088213D01*
X0042233Y0088236D01*
X0042247Y0088260D01*
X0042260Y0088283D01*
X0042274Y0088307D01*
X0042288Y0088330D01*
X0042302Y0088354D01*
X0042316Y0088377D01*
X0042331Y0088400D01*
X0042345Y0088423D01*
X0042359Y0088447D01*
X0042374Y0088470D01*
X0042388Y0088493D01*
X0042403Y0088516D01*
X0042417Y0088539D01*
X0042432Y0088562D01*
X0042447Y0088584D01*
X0042462Y0088607D01*
X0042477Y0088630D01*
X0042492Y0088653D01*
X0042507Y0088675D01*
X0042522Y0088698D01*
X0042538Y0088720D01*
X0042553Y0088743D01*
X0042568Y0088765D01*
X0042584Y0088787D01*
X0042599Y0088810D01*
X0042615Y0088832D01*
X0042631Y0088854D01*
X0042647Y0088876D01*
X0042662Y0088898D01*
X0042678Y0088920D01*
X0042694Y0088942D01*
X0042711Y0088964D01*
X0042727Y0088986D01*
X0042743Y0089008D01*
X0042759Y0089029D01*
X0042776Y0089051D01*
X0042792Y0089072D01*
X0042809Y0089094D01*
X0042825Y0089115D01*
X0042842Y0089137D01*
X0042859Y0089158D01*
X0042875Y0089179D01*
X0042892Y0089201D01*
X0042909Y0089222D01*
X0042926Y0089243D01*
X0042943Y0089264D01*
X0042960Y0089285D01*
X0042978Y0089306D01*
X0042995Y0089326D01*
X0043012Y0089347D01*
X0043030Y0089368D01*
X0043047Y0089388D01*
X0043064Y0089409D01*
X0043082Y0089429D01*
X0043100Y0089450D01*
X0043117Y0089470D01*
X0043135Y0089490D01*
X0043153Y0089510D01*
X0043171Y0089531D01*
X0043189Y0089551D01*
X0043207Y0089570D01*
X0043225Y0089591D01*
X0043243Y0089610D01*
X0043261Y0089630D01*
X0043280Y0089650D01*
X0043298Y0089669D01*
X0043316Y0089689D01*
X0043335Y0089708D01*
X0043353Y0089728D01*
X0043372Y0089747D01*
X0043391Y0089767D01*
X0043409Y0089786D01*
X0043428Y0089805D01*
X0043447Y0089824D01*
X0043466Y0089843D01*
X0043485Y0089862D01*
X0043504Y0089881D01*
X0043523Y0089899D01*
X0043542Y0089918D01*
X0043561Y0089937D01*
X0043580Y0089955D01*
X0043599Y0089974D01*
X0043618Y0089992D01*
X0043638Y0090010D01*
X0043657Y0090029D01*
X0043677Y0090047D01*
X0043696Y0090065D01*
X0043716Y0090083D01*
X0043735Y0090101D01*
X0043755Y0090119D01*
X0043775Y0090137D01*
X0043814Y0090172D01*
X0043854Y0090207D01*
X0043874Y0090224D01*
X0043914Y0090259D01*
X0043954Y0090293D01*
X0043974Y0090310D01*
X0043994Y0090327D01*
X0044014Y0090344D01*
X0044035Y0090361D01*
X0044055Y0090378D01*
X0044076Y0090394D01*
X0044096Y0090411D01*
X0044116Y0090427D01*
X0044137Y0090444D01*
X0044157Y0090460D01*
X0044178Y0090476D01*
X0044199Y0090493D01*
X0044219Y0090508D01*
X0044240Y0090524D01*
X0044261Y0090540D01*
X0044282Y0090556D01*
X0044323Y0090588D01*
X0044344Y0090603D01*
X0044365Y0090619D01*
X0044407Y0090650D01*
X0044428Y0090665D01*
X0044449Y0090680D01*
X0044470Y0090695D01*
X0044491Y0090710D01*
X0044513Y0090725D01*
X0044534Y0090740D01*
X0044555Y0090755D01*
X0044576Y0090769D01*
X0044598Y0090784D01*
X0044619Y0090799D01*
X0044640Y0090813D01*
X0044662Y0090828D01*
X0044683Y0090842D01*
X0044705Y0090856D01*
X0044726Y0090870D01*
X0044748Y0090884D01*
X0044769Y0090898D01*
X0044791Y0090912D01*
X0044812Y0090926D01*
X0044834Y0090940D01*
X0044856Y0090953D01*
X0044877Y0090967D01*
X0044899Y0090981D01*
X0044921Y0090994D01*
X0045239Y0091187D01*
X0045979Y0091624D01*
X0046726Y0092047D01*
X0047479Y0092459D01*
X0048239Y0092858D01*
X0049004Y0093246D01*
X0049774Y0093624D01*
X0050549Y0093992D01*
X0051329Y0094350D01*
X0052113Y0094699D01*
X0052902Y0095040D01*
X0053694Y0095373D01*
X0054490Y0095697D01*
X0055289Y0096013D01*
X0056091Y0096322D01*
X0056895Y0096623D01*
X0057702Y0096917D01*
X0058510Y0097204D01*
X0059320Y0097484D01*
X0060132Y0097757D01*
X0060945Y0098025D01*
X0061760Y0098287D01*
X0062578Y0098542D01*
X0063396Y0098792D01*
X0064217Y0099037D01*
X0065038Y0099276D01*
X0065862Y0099510D01*
X0066686Y0099740D01*
X0067513Y0099964D01*
X0068341Y0100184D01*
X0069170Y0100400D01*
X0070000Y0100611D01*
X0070832Y0100818D01*
X0071665Y0101020D01*
X0072500Y0101219D01*
X0073335Y0101413D01*
X0074171Y0101604D01*
X0075008Y0101790D01*
X0075846Y0101973D01*
X0076685Y0102152D01*
X0077524Y0102327D01*
X0078364Y0102499D01*
X0079204Y0102668D01*
X0080045Y0102832D01*
X0080886Y0102994D01*
X0081728Y0103153D01*
X0082570Y0103308D01*
X0083412Y0103460D01*
X0084254Y0103610D01*
X0085096Y0103756D01*
X0085939Y0103899D01*
X0086782Y0104040D01*
X0087625Y0104178D01*
X0088469Y0104313D01*
X0089313Y0104445D01*
X0090156Y0104574D01*
X0091001Y0104701D01*
X0091845Y0104826D01*
X0092690Y0104947D01*
X0093534Y0105067D01*
X0094379Y0105184D01*
X0095224Y0105298D01*
X0096070Y0105411D01*
X0096915Y0105521D01*
X0097761Y0105629D01*
X0098607Y0105734D01*
X0099453Y0105838D01*
X0100299Y0105940D01*
X0101146Y0106039D01*
X0101992Y0106137D01*
X0102839Y0106232D01*
X0103686Y0106326D01*
X0104533Y0106417D01*
X0105380Y0106507D01*
X0106228Y0106595D01*
X0107075Y0106680D01*
X0107923Y0106764D01*
X0108771Y0106846D01*
X0109619Y0106927D01*
X0110467Y0107005D01*
X0111316Y0107082D01*
X0112164Y0107156D01*
X0113013Y0107230D01*
X0113861Y0107301D01*
X0114710Y0107371D01*
X0115559Y0107439D01*
X0116409Y0107505D01*
X0117258Y0107570D01*
X0118107Y0107633D01*
X0118957Y0107695D01*
X0119807Y0107755D01*
X0120657Y0107813D01*
X0121507Y0107870D01*
X0122357Y0107925D01*
X0123207Y0107979D01*
X0124057Y0108032D01*
X0124908Y0108083D01*
X0124974Y0108087D01*
X0125027Y0108090D01*
X0125054Y0108091D01*
X0125107Y0108093D01*
X0125134Y0108094D01*
X0125187Y0108096D01*
X0125214Y0108097D01*
X0125267Y0108098D01*
X0125294Y0108098D01*
X0125320Y0108099D01*
X0125347Y0108099D01*
X0125374Y0108099D01*
X0125400Y0108099D01*
X0193173Y0108099D01*
X0193200Y0108099D01*
X0193227Y0108099D01*
X0193280Y0108098D01*
X0193307Y0108097D01*
X0193333Y0108097D01*
X0193360Y0108096D01*
X0193413Y0108095D01*
X0193440Y0108094D01*
X0193467Y0108093D01*
X0193493Y0108092D01*
X0193520Y0108090D01*
X0193546Y0108089D01*
X0193573Y0108087D01*
X0193600Y0108086D01*
X0194103Y0108056D01*
X0194943Y0108005D01*
X0195782Y0107952D01*
X0196621Y0107897D01*
X0197461Y0107842D01*
X0198300Y0107785D01*
X0199139Y0107726D01*
X0199978Y0107666D01*
X0200817Y0107605D01*
X0201656Y0107541D01*
X0202495Y0107477D01*
X0203333Y0107410D01*
X0204172Y0107342D01*
X0205010Y0107273D01*
X0205848Y0107201D01*
X0206686Y0107129D01*
X0207524Y0107054D01*
X0208362Y0106977D01*
X0209200Y0106899D01*
X0210037Y0106819D01*
X0210875Y0106738D01*
X0211712Y0106654D01*
X0212549Y0106569D01*
X0213386Y0106481D01*
X0214223Y0106393D01*
X0215059Y0106301D01*
X0215896Y0106208D01*
X0216732Y0106114D01*
X0217569Y0106017D01*
X0218405Y0105918D01*
X0219241Y0105817D01*
X0220076Y0105714D01*
X0220912Y0105609D01*
X0221747Y0105502D01*
X0222583Y0105393D01*
X0223418Y0105281D01*
X0224253Y0105168D01*
X0225088Y0105052D01*
X0225923Y0104933D01*
X0226757Y0104813D01*
X0227592Y0104689D01*
X0228426Y0104564D01*
X0229260Y0104435D01*
X0230094Y0104305D01*
X0230927Y0104171D01*
X0231761Y0104035D01*
X0232594Y0103896D01*
X0233426Y0103755D01*
X0234259Y0103610D01*
X0235091Y0103462D01*
X0235923Y0103312D01*
X0236754Y0103159D01*
X0237585Y0103002D01*
X0238416Y0102843D01*
X0239245Y0102680D01*
X0240074Y0102515D01*
X0240900Y0102346D01*
X0241727Y0102173D01*
X0242552Y0101998D01*
X0243377Y0101819D01*
X0244200Y0101636D01*
X0245022Y0101450D01*
X0245843Y0101259D01*
X0246662Y0101065D01*
X0247481Y0100868D01*
X0248298Y0100665D01*
X0249115Y0100459D01*
X0249930Y0100249D01*
X0250743Y0100034D01*
X0251556Y0099815D01*
X0252365Y0099591D01*
X0253174Y0099363D01*
X0253983Y0099130D01*
X0254788Y0098892D01*
X0255593Y0098649D01*
X0256396Y0098401D01*
X0257198Y0098146D01*
X0257997Y0097887D01*
X0258796Y0097621D01*
X0259591Y0097350D01*
X0260385Y0097072D01*
X0261178Y0096788D01*
X0261967Y0096497D01*
X0262755Y0096199D01*
X0263540Y0095893D01*
X0264324Y0095580D01*
X0265105Y0095259D01*
X0265883Y0094930D01*
X0266658Y0094591D01*
X0267430Y0094244D01*
X0268200Y0093887D01*
X0268967Y0093520D01*
X0269731Y0093143D01*
X0270489Y0092754D01*
X0271243Y0092355D01*
X0271989Y0091944D01*
X0272727Y0091522D01*
X0273459Y0091087D01*
X0273644Y0090974D01*
X0273688Y0090947D01*
X0273709Y0090934D01*
X0273774Y0090893D01*
X0273839Y0090851D01*
X0273859Y0090836D01*
X0273881Y0090822D01*
X0273924Y0090794D01*
X0273989Y0090750D01*
X0274009Y0090735D01*
X0274030Y0090720D01*
X0274074Y0090690D01*
X0274095Y0090675D01*
X0274115Y0090660D01*
X0274137Y0090645D01*
X0274158Y0090630D01*
X0274178Y0090614D01*
X0274221Y0090583D01*
X0274241Y0090568D01*
X0274263Y0090552D01*
X0274282Y0090536D01*
X0274304Y0090520D01*
X0274324Y0090504D01*
X0274345Y0090488D01*
X0274365Y0090472D01*
X0274387Y0090456D01*
X0274406Y0090440D01*
X0274428Y0090424D01*
X0274448Y0090407D01*
X0274469Y0090391D01*
X0274489Y0090374D01*
X0274509Y0090357D01*
X0274530Y0090341D01*
X0274550Y0090324D01*
X0274589Y0090290D01*
X0274611Y0090273D01*
X0274650Y0090239D01*
X0274690Y0090204D01*
X0274711Y0090187D01*
X0274731Y0090169D01*
X0274751Y0090152D01*
X0274770Y0090134D01*
X0274790Y0090116D01*
X0274810Y0090098D01*
X0274849Y0090063D01*
X0274889Y0090026D01*
X0274906Y0090008D01*
X0274946Y0089972D01*
X0274965Y0089953D01*
X0274985Y0089935D01*
X0275003Y0089916D01*
X0275022Y0089898D01*
X0275042Y0089879D01*
X0275060Y0089860D01*
X0275099Y0089822D01*
X0275117Y0089803D01*
X0275137Y0089784D01*
X0275154Y0089765D01*
X0275174Y0089746D01*
X0275192Y0089727D01*
X0275211Y0089707D01*
X0275247Y0089668D01*
X0275267Y0089649D01*
X0275284Y0089629D01*
X0275302Y0089609D01*
X0275322Y0089590D01*
X0275357Y0089550D01*
X0275410Y0089490D01*
X0275463Y0089429D01*
X0275517Y0089367D01*
X0275570Y0089305D01*
X0275585Y0089284D01*
X0275621Y0089243D01*
X0275639Y0089222D01*
X0275654Y0089201D01*
X0275672Y0089180D01*
X0275688Y0089158D01*
X0275706Y0089137D01*
X0275721Y0089116D01*
X0275739Y0089094D01*
X0275755Y0089073D01*
X0275772Y0089051D01*
X0275788Y0089030D01*
X0275804Y0089008D01*
X0275822Y0088986D01*
X0275837Y0088965D01*
X0275869Y0088921D01*
X0275885Y0088899D01*
X0275900Y0088877D01*
X0275916Y0088855D01*
X0275932Y0088833D01*
X0275948Y0088811D01*
X0275979Y0088766D01*
X0276042Y0088677D01*
X0276056Y0088654D01*
X0276087Y0088609D01*
X0276101Y0088586D01*
X0276117Y0088563D01*
X0276131Y0088540D01*
X0276146Y0088517D01*
X0276160Y0088494D01*
X0276176Y0088471D01*
X0276190Y0088448D01*
X0276204Y0088425D01*
X0276219Y0088402D01*
X0276247Y0088356D01*
X0276274Y0088309D01*
X0276288Y0088286D01*
X0276302Y0088262D01*
X0276316Y0088239D01*
X0276371Y0088144D01*
X0276398Y0088096D01*
X0276410Y0088073D01*
X0276424Y0088049D01*
X0276438Y0088025D01*
X0276450Y0088001D01*
X0276463Y0087977D01*
X0276475Y0087953D01*
X0276489Y0087929D01*
X0276513Y0087880D01*
X0276526Y0087856D01*
X0276538Y0087832D01*
X0276550Y0087807D01*
X0276562Y0087783D01*
X0276576Y0087759D01*
X0276587Y0087734D01*
X0276599Y0087710D01*
X0276611Y0087685D01*
X0276646Y0087612D01*
X0276656Y0087587D01*
X0276668Y0087562D01*
X0276680Y0087538D01*
X0276692Y0087513D01*
X0276702Y0087488D01*
X0276713Y0087463D01*
X0276725Y0087438D01*
X0276735Y0087413D01*
X0276747Y0087388D01*
X0276757Y0087363D01*
X0276769Y0087338D01*
X0276788Y0087288D01*
X0276798Y0087263D01*
X0276810Y0087238D01*
X0276839Y0087163D01*
X0276849Y0087137D01*
X0276869Y0087087D01*
X0276898Y0087011D01*
X0276906Y0086985D01*
X0276926Y0086934D01*
X0276934Y0086909D01*
X0276944Y0086883D01*
X0276954Y0086858D01*
X0276961Y0086832D01*
X0276971Y0086807D01*
X0276987Y0086756D01*
X0276997Y0086730D01*
X0277005Y0086704D01*
X0277013Y0086679D01*
X0277020Y0086653D01*
X0277028Y0086627D01*
X0277091Y0086421D01*
X0277097Y0086395D01*
X0277105Y0086369D01*
X0277113Y0086343D01*
X0277119Y0086317D01*
X0277127Y0086291D01*
X0277133Y0086265D01*
X0277141Y0086239D01*
X0277146Y0086214D01*
X0277152Y0086188D01*
X0277160Y0086162D01*
X0277178Y0086084D01*
X0277184Y0086057D01*
X0277202Y0085980D01*
X0277207Y0085953D01*
X0277219Y0085901D01*
X0277225Y0085875D01*
X0277231Y0085849D01*
X0277235Y0085823D01*
X0277247Y0085771D01*
X0277251Y0085745D01*
X0277257Y0085719D01*
X0277261Y0085693D01*
X0277265Y0085667D01*
X0277270Y0085641D01*
X0277274Y0085615D01*
X0277278Y0085588D01*
X0277284Y0085562D01*
X0277288Y0085536D01*
X0277292Y0085510D01*
X0277296Y0085484D01*
X0277300Y0085458D01*
X0277304Y0085432D01*
X0277308Y0085406D01*
X0277316Y0085354D01*
X0277320Y0085328D01*
X0277322Y0085302D01*
X0277326Y0085275D01*
X0277330Y0085249D01*
X0277331Y0085223D01*
X0277335Y0085197D01*
X0277339Y0085171D01*
X0277341Y0085145D01*
X0277345Y0085119D01*
X0277349Y0085067D01*
X0277353Y0085041D01*
X0277359Y0084963D01*
X0277363Y0084937D01*
X0277365Y0084911D01*
X0277367Y0084886D01*
X0277369Y0084860D01*
X0277371Y0084834D01*
X0277373Y0084808D01*
X0277373Y0084782D01*
X0277375Y0084756D01*
X0277381Y0084679D01*
X0277381Y0084653D01*
X0277383Y0084627D01*
X0277383Y0084601D01*
X0277385Y0084576D01*
X0277385Y0084550D01*
X0277387Y0084524D01*
X0277387Y0084498D01*
X0277389Y0084473D01*
X0277389Y0084396D01*
X0277391Y0084370D01*
X0277391Y0045188D01*
X0277389Y0045162D01*
X0277389Y0045111D01*
X0277387Y0045085D01*
X0277387Y0045034D01*
X0277385Y0045008D01*
X0277385Y0044982D01*
X0277381Y0044931D01*
X0277381Y0044905D01*
X0277377Y0044854D01*
X0277377Y0044828D01*
X0277375Y0044802D01*
X0277373Y0044776D01*
X0277371Y0044750D01*
X0277369Y0044724D01*
X0277367Y0044698D01*
X0277365Y0044672D01*
X0277359Y0044594D01*
X0277355Y0044569D01*
X0277351Y0044517D01*
X0277347Y0044491D01*
X0277343Y0044439D01*
X0277339Y0044413D01*
X0277337Y0044387D01*
X0277333Y0044360D01*
X0277330Y0044334D01*
X0277328Y0044308D01*
X0277324Y0044282D01*
X0277316Y0044230D01*
X0277314Y0044204D01*
X0277310Y0044178D01*
X0277306Y0044152D01*
X0277302Y0044126D01*
X0277298Y0044100D01*
X0277294Y0044074D01*
X0277290Y0044048D01*
X0277284Y0044022D01*
X0277280Y0043995D01*
X0277276Y0043969D01*
X0277272Y0043943D01*
X0277267Y0043917D01*
X0277263Y0043891D01*
X0277257Y0043865D01*
X0277253Y0043839D01*
X0277247Y0043813D01*
X0277243Y0043787D01*
X0277237Y0043761D01*
X0277231Y0043735D01*
X0277227Y0043709D01*
X0277221Y0043682D01*
X0277209Y0043631D01*
X0277204Y0043604D01*
X0277180Y0043500D01*
X0277174Y0043474D01*
X0277162Y0043422D01*
X0277154Y0043396D01*
X0277148Y0043370D01*
X0277143Y0043344D01*
X0277135Y0043319D01*
X0277129Y0043293D01*
X0277121Y0043267D01*
X0277115Y0043241D01*
X0277107Y0043215D01*
X0277101Y0043189D01*
X0277093Y0043163D01*
X0277078Y0043111D01*
X0277072Y0043085D01*
X0277048Y0043008D01*
X0277040Y0042982D01*
X0277024Y0042931D01*
X0277015Y0042905D01*
X0277007Y0042880D01*
X0276999Y0042854D01*
X0276991Y0042828D01*
X0276981Y0042803D01*
X0276973Y0042777D01*
X0276963Y0042751D01*
X0276956Y0042726D01*
X0276946Y0042700D01*
X0276938Y0042675D01*
X0276928Y0042649D01*
X0276920Y0042624D01*
X0276891Y0042548D01*
X0276883Y0042522D01*
X0276873Y0042497D01*
X0276863Y0042472D01*
X0276853Y0042446D01*
X0276833Y0042396D01*
X0276822Y0042371D01*
X0276802Y0042320D01*
X0276792Y0042295D01*
X0276782Y0042270D01*
X0276770Y0042245D01*
X0276761Y0042220D01*
X0276749Y0042195D01*
X0276739Y0042170D01*
X0276727Y0042145D01*
X0276717Y0042120D01*
X0276706Y0042095D01*
X0276696Y0042071D01*
X0276684Y0042046D01*
X0276672Y0042021D01*
X0276660Y0041996D01*
X0276648Y0041972D01*
X0276639Y0041947D01*
X0276603Y0041873D01*
X0276580Y0041825D01*
X0276566Y0041800D01*
X0276542Y0041751D01*
X0276530Y0041727D01*
X0276517Y0041703D01*
X0276493Y0041655D01*
X0276479Y0041631D01*
X0276467Y0041606D01*
X0276454Y0041582D01*
X0276442Y0041558D01*
X0276428Y0041534D01*
X0276414Y0041511D01*
X0276402Y0041487D01*
X0276389Y0041463D01*
X0276375Y0041439D01*
X0276361Y0041415D01*
X0276347Y0041392D01*
X0276335Y0041368D01*
X0276322Y0041344D01*
X0276308Y0041321D01*
X0276294Y0041297D01*
X0276280Y0041274D01*
X0276265Y0041251D01*
X0276251Y0041227D01*
X0276223Y0041181D01*
X0276209Y0041158D01*
X0276194Y0041135D01*
X0276180Y0041112D01*
X0276166Y0041089D01*
X0276150Y0041066D01*
X0276137Y0041043D01*
X0276121Y0041020D01*
X0276107Y0040997D01*
X0276091Y0040974D01*
X0276076Y0040952D01*
X0276062Y0040929D01*
X0276046Y0040906D01*
X0276030Y0040884D01*
X0276015Y0040861D01*
X0276001Y0040839D01*
X0275985Y0040816D01*
X0275969Y0040794D01*
X0275954Y0040772D01*
X0275938Y0040750D01*
X0275922Y0040728D01*
X0275891Y0040684D01*
X0275875Y0040662D01*
X0275859Y0040640D01*
X0275841Y0040618D01*
X0275826Y0040596D01*
X0275810Y0040574D01*
X0275794Y0040553D01*
X0275776Y0040531D01*
X0275761Y0040510D01*
X0275743Y0040488D01*
X0275727Y0040467D01*
X0275711Y0040445D01*
X0275694Y0040424D01*
X0275676Y0040403D01*
X0275660Y0040382D01*
X0275643Y0040361D01*
X0275627Y0040340D01*
X0275609Y0040319D01*
X0275591Y0040298D01*
X0275574Y0040277D01*
X0275558Y0040256D01*
X0275540Y0040235D01*
X0275522Y0040215D01*
X0275505Y0040194D01*
X0275487Y0040174D01*
X0275469Y0040153D01*
X0275452Y0040133D01*
X0275434Y0040113D01*
X0275398Y0040072D01*
X0275381Y0040052D01*
X0275363Y0040032D01*
X0275345Y0040012D01*
X0275326Y0039992D01*
X0275308Y0039973D01*
X0275290Y0039953D01*
X0275272Y0039933D01*
X0275253Y0039914D01*
X0275235Y0039894D01*
X0275217Y0039875D01*
X0275198Y0039855D01*
X0275180Y0039836D01*
X0275160Y0039817D01*
X0275143Y0039797D01*
X0275123Y0039778D01*
X0275105Y0039759D01*
X0275085Y0039740D01*
X0275066Y0039722D01*
X0275048Y0039703D01*
X0275009Y0039665D01*
X0274991Y0039647D01*
X0274971Y0039628D01*
X0274952Y0039610D01*
X0274932Y0039591D01*
X0274914Y0039573D01*
X0274894Y0039555D01*
X0274875Y0039537D01*
X0274855Y0039519D01*
X0274835Y0039501D01*
X0274816Y0039483D01*
X0274796Y0039465D01*
X0274776Y0039447D01*
X0274757Y0039430D01*
X0274737Y0039412D01*
X0274698Y0039377D01*
X0274678Y0039360D01*
X0274656Y0039342D01*
X0274637Y0039325D01*
X0274617Y0039308D01*
X0274597Y0039291D01*
X0274576Y0039274D01*
X0274556Y0039257D01*
X0274536Y0039240D01*
X0274517Y0039223D01*
X0274495Y0039207D01*
X0274475Y0039190D01*
X0274454Y0039174D01*
X0274434Y0039157D01*
X0274414Y0039141D01*
X0274393Y0039125D01*
X0274373Y0039108D01*
X0274351Y0039092D01*
X0274331Y0039076D01*
X0274310Y0039060D01*
X0274290Y0039044D01*
X0274269Y0039029D01*
X0274249Y0039013D01*
X0274227Y0038997D01*
X0274206Y0038982D01*
X0274186Y0038966D01*
X0274164Y0038951D01*
X0274143Y0038936D01*
X0274123Y0038920D01*
X0274101Y0038905D01*
X0274080Y0038890D01*
X0274058Y0038875D01*
X0274038Y0038860D01*
X0274017Y0038845D01*
X0273995Y0038831D01*
X0273973Y0038816D01*
X0273952Y0038801D01*
X0273932Y0038787D01*
X0273910Y0038772D01*
X0273889Y0038758D01*
X0273867Y0038744D01*
X0273845Y0038730D01*
X0273824Y0038716D01*
X0273802Y0038702D01*
X0273780Y0038688D01*
X0273759Y0038674D01*
X0273737Y0038660D01*
X0273715Y0038646D01*
X0273694Y0038633D01*
X0273672Y0038619D01*
X0273650Y0038606D01*
X0273629Y0038592D01*
X0272928Y0038172D01*
X0272186Y0037742D01*
X0271434Y0037325D01*
X0270678Y0036920D01*
X0269916Y0036526D01*
X0269148Y0036144D01*
X0268375Y0035771D01*
X0267597Y0035409D01*
X0266814Y0035055D01*
X0266028Y0034710D01*
X0265237Y0034374D01*
X0264444Y0034046D01*
X0263646Y0033725D01*
X0262845Y0033413D01*
X0262042Y0033109D01*
X0261237Y0032811D01*
X0260428Y0032521D01*
X0259619Y0032238D01*
X0258810Y0031961D01*
X0257997Y0031690D01*
X0257182Y0031426D01*
X0256365Y0031167D01*
X0255548Y0030915D01*
X0254727Y0030668D01*
X0253906Y0030426D01*
X0253083Y0030189D01*
X0252261Y0029957D01*
X0251434Y0029731D01*
X0250607Y0029508D01*
X0249778Y0029291D01*
X0248948Y0029077D01*
X0248117Y0028868D01*
X0247284Y0028664D01*
X0246452Y0028463D01*
X0245617Y0028267D01*
X0244780Y0028074D01*
X0243944Y0027886D01*
X0243107Y0027701D01*
X0242269Y0027521D01*
X0241428Y0027343D01*
X0240589Y0027170D01*
X0239749Y0027000D01*
X0238908Y0026833D01*
X0238068Y0026670D01*
X0237226Y0026510D01*
X0236384Y0026353D01*
X0235542Y0026199D01*
X0234700Y0026048D01*
X0233858Y0025900D01*
X0233015Y0025756D01*
X0232172Y0025614D01*
X0231329Y0025475D01*
X0230486Y0025338D01*
X0229642Y0025205D01*
X0228798Y0025074D01*
X0227954Y0024946D01*
X0227110Y0024820D01*
X0226265Y0024697D01*
X0225420Y0024576D01*
X0224576Y0024458D01*
X0223731Y0024342D01*
X0222885Y0024229D01*
X0222040Y0024118D01*
X0221194Y0024009D01*
X0220348Y0023902D01*
X0219502Y0023797D01*
X0218656Y0023694D01*
X0217810Y0023594D01*
X0216963Y0023495D01*
X0216116Y0023399D01*
X0215269Y0023304D01*
X0214422Y0023212D01*
X0213575Y0023121D01*
X0212728Y0023032D01*
X0211880Y0022946D01*
X0211033Y0022861D01*
X0210185Y0022778D01*
X0209337Y0022697D01*
X0208489Y0022617D01*
X0207640Y0022540D01*
X0206792Y0022464D01*
X0205943Y0022390D01*
X0205094Y0022318D01*
X0204245Y0022247D01*
X0203396Y0022178D01*
X0202547Y0022111D01*
X0201698Y0022045D01*
X0200849Y0021981D01*
X0199999Y0021919D01*
X0199149Y0021858D01*
X0198299Y0021799D01*
X0197449Y0021741D01*
X0196599Y0021685D01*
X0195749Y0021630D01*
X0194899Y0021577D01*
X0194048Y0021525D01*
X0193597Y0021498D01*
X0193570Y0021497D01*
X0193544Y0021495D01*
X0193517Y0021494D01*
X0193491Y0021493D01*
X0193464Y0021492D01*
X0193437Y0021491D01*
X0193411Y0021490D01*
X0193384Y0021489D01*
X0193357Y0021488D01*
X0193331Y0021487D01*
X0193304Y0021487D01*
X0193278Y0021486D01*
X0193251Y0021486D01*
X0193224Y0021485D01*
X0193197Y0021485D01*
X0193171Y0021485D01*
X0193144Y0021485D01*
X0125402Y0021485D01*
X0125376Y0021485D01*
X0125349Y0021485D01*
X0125322Y0021486D01*
X0125295Y0021486D01*
X0125269Y0021486D01*
X0125242Y0021487D01*
X0125216Y0021488D01*
X0125189Y0021488D01*
X0125162Y0021489D01*
X0125136Y0021490D01*
X0125109Y0021491D01*
X0125082Y0021492D01*
X0125056Y0021493D01*
X0125029Y0021495D01*
X0125003Y0021496D01*
X0124976Y0021498D01*
X0124850Y0021505D01*
X0124010Y0021556D01*
X0123171Y0021608D01*
X0122331Y0021661D01*
X0121492Y0021716D01*
X0120652Y0021772D01*
X0119813Y0021830D01*
X0118974Y0021889D01*
X0118135Y0021950D01*
X0117296Y0022013D01*
X0116457Y0022077D01*
X0115619Y0022142D01*
X0114780Y0022209D01*
X0113942Y0022278D01*
X0113104Y0022348D01*
X0112266Y0022420D01*
X0111428Y0022494D01*
X0110590Y0022570D01*
X0109752Y0022647D01*
X0108914Y0022726D01*
X0108077Y0022807D01*
X0107240Y0022889D01*
X0106402Y0022974D01*
X0105565Y0023060D01*
X0104728Y0023148D01*
X0103892Y0023238D01*
X0103055Y0023330D01*
X0102219Y0023424D01*
X0101382Y0023520D01*
X0100546Y0023618D01*
X0099710Y0023717D01*
X0098874Y0023819D01*
X0098039Y0023923D01*
X0097203Y0024029D01*
X0096368Y0024138D01*
X0095532Y0024248D01*
X0094697Y0024360D01*
X0093862Y0024475D01*
X0093027Y0024592D01*
X0092193Y0024712D01*
X0091358Y0024834D01*
X0090524Y0024958D01*
X0089690Y0025085D01*
X0088856Y0025215D01*
X0088022Y0025347D01*
X0087189Y0025481D01*
X0086356Y0025619D01*
X0085523Y0025759D01*
X0084690Y0025902D01*
X0083858Y0026048D01*
X0083026Y0026197D01*
X0082194Y0026349D01*
X0081363Y0026504D01*
X0080532Y0026662D01*
X0079702Y0026823D01*
X0078873Y0026987D01*
X0078045Y0027155D01*
X0077219Y0027325D01*
X0076393Y0027499D01*
X0075568Y0027677D01*
X0074744Y0027858D01*
X0073921Y0028042D01*
X0073100Y0028230D01*
X0072280Y0028423D01*
X0071460Y0028619D01*
X0070643Y0028819D01*
X0069826Y0029023D01*
X0069010Y0029231D01*
X0068196Y0029444D01*
X0067384Y0029661D01*
X0066572Y0029882D01*
X0065762Y0030108D01*
X0064954Y0030339D01*
X0064147Y0030574D01*
X0063342Y0030815D01*
X0062538Y0031061D01*
X0060855Y0051800D02*
X0057312Y0051800D01*
X0056131Y0052981D01*
X0056131Y0056524D01*
X0051800Y0060855D01*
X0049044Y0060855D01*
X0155146Y0041761D02*
X0155343Y0041957D01*
X0155343Y0041761D01*
X0157312Y0039792D01*
X0176434Y0039792D01*
X0179570Y0042928D01*
X0178375Y0062430D02*
X0177713Y0063092D01*
X0177713Y0070232D01*
X0171091Y0076854D01*
X0171091Y0095894D01*
X0166367Y0096682D02*
X0166072Y0096977D01*
D12*
X0156524Y0094320D03*
X0151013Y0094320D03*
X0149831Y0073060D03*
X0144320Y0073060D03*
X0108887Y0051406D03*
X0112627Y0041957D03*
X0105146Y0041957D03*
D13*
X0087627Y0081328D03*
D14*
X0087627Y0089202D03*
D15*
X0145304Y0088808D03*
X0149044Y0088808D03*
X0152784Y0088808D03*
X0152784Y0078572D03*
X0145304Y0078572D03*
D16*
X0144320Y0101800D03*
X0155343Y0101800D03*
D17*
X0161446Y0094123D03*
X0164989Y0094123D03*
G36*
X0185448Y0089738D02*
X0186839Y0088347D01*
X0185726Y0087234D01*
X0184335Y0088625D01*
X0185448Y0089738D01*
G37*
G36*
X0187953Y0087232D02*
X0189344Y0085841D01*
X0188231Y0084728D01*
X0186840Y0086119D01*
X0187953Y0087232D01*
G37*
G36*
X0191028Y0085841D02*
X0192419Y0087232D01*
X0193532Y0086119D01*
X0192141Y0084728D01*
X0191028Y0085841D01*
G37*
G36*
X0193533Y0088347D02*
X0194924Y0089738D01*
X0196037Y0088625D01*
X0194646Y0087234D01*
X0193533Y0088347D01*
G37*
G36*
X0181470Y0072877D02*
X0180079Y0071486D01*
X0178966Y0072599D01*
X0180357Y0073990D01*
X0181470Y0072877D01*
G37*
G36*
X0178965Y0070371D02*
X0177574Y0068980D01*
X0176461Y0070093D01*
X0177852Y0071484D01*
X0178965Y0070371D01*
G37*
G36*
X0191237Y0041368D02*
X0189846Y0042759D01*
X0190959Y0043872D01*
X0192350Y0042481D01*
X0191237Y0041368D01*
G37*
G36*
X0193743Y0038862D02*
X0192352Y0040253D01*
X0193465Y0041366D01*
X0194856Y0039975D01*
X0193743Y0038862D01*
G37*
X0092351Y0063611D03*
X0092351Y0067548D03*
D18*
X0155737Y0058493D03*
X0159674Y0058493D03*
G36*
X0176647Y0044460D02*
X0175534Y0045573D01*
X0176925Y0046964D01*
X0178038Y0045851D01*
X0176647Y0044460D01*
G37*
G36*
X0179431Y0041676D02*
X0178318Y0042789D01*
X0179709Y0044180D01*
X0180822Y0043067D01*
X0179431Y0041676D01*
G37*
X0185265Y0034083D03*
X0189202Y0034083D03*
X0213217Y0035068D03*
X0213217Y0038611D03*
X0225422Y0049635D03*
X0225422Y0053178D03*
X0236052Y0038611D03*
X0236052Y0035068D03*
G36*
X0183646Y0082369D02*
X0184759Y0081256D01*
X0183368Y0079865D01*
X0182255Y0080978D01*
X0183646Y0082369D01*
G37*
G36*
X0180862Y0085153D02*
X0181975Y0084040D01*
X0180584Y0082649D01*
X0179471Y0083762D01*
X0180862Y0085153D01*
G37*
X0165186Y0087036D03*
X0161249Y0087036D03*
X0161249Y0090580D03*
X0165186Y0090580D03*
D19*
X0230776Y0090265D03*
X0240776Y0090265D03*
X0250776Y0090265D03*
X0250776Y0080265D03*
X0240776Y0080265D03*
X0230776Y0080265D03*
X0174280Y0030422D03*
X0164280Y0030422D03*
X0154280Y0030422D03*
X0144280Y0030422D03*
D20*
X0219517Y0036052D03*
X0228965Y0036052D03*
X0228965Y0042351D03*
X0219517Y0042351D03*
D21*
X0261643Y0077784D03*
X0261643Y0083296D03*
X0060855Y0051800D03*
X0060855Y0046288D03*
D22*
G36*
X0189484Y0064792D02*
X0200619Y0075927D01*
X0211754Y0064792D01*
X0200619Y0053657D01*
X0189484Y0064792D01*
G37*
D23*
G36*
X0185864Y0063121D02*
X0182803Y0060060D01*
X0181968Y0060895D01*
X0185029Y0063956D01*
X0185864Y0063121D01*
G37*
G36*
X0187256Y0061729D02*
X0184195Y0058668D01*
X0183360Y0059503D01*
X0186421Y0062564D01*
X0187256Y0061729D01*
G37*
G36*
X0188647Y0060337D02*
X0185586Y0057276D01*
X0184751Y0058111D01*
X0187812Y0061172D01*
X0188647Y0060337D01*
G37*
G36*
X0190039Y0058945D02*
X0186978Y0055884D01*
X0186143Y0056719D01*
X0189204Y0059780D01*
X0190039Y0058945D01*
G37*
G36*
X0191431Y0057553D02*
X0188370Y0054492D01*
X0187535Y0055327D01*
X0190596Y0058388D01*
X0191431Y0057553D01*
G37*
G36*
X0192823Y0056162D02*
X0189762Y0053101D01*
X0188927Y0053936D01*
X0191988Y0056997D01*
X0192823Y0056162D01*
G37*
G36*
X0194215Y0054770D02*
X0191154Y0051709D01*
X0190319Y0052544D01*
X0193380Y0055605D01*
X0194215Y0054770D01*
G37*
G36*
X0195607Y0053378D02*
X0192546Y0050317D01*
X0191711Y0051152D01*
X0194772Y0054213D01*
X0195607Y0053378D01*
G37*
G36*
X0196999Y0051986D02*
X0193938Y0048925D01*
X0193103Y0049760D01*
X0196164Y0052821D01*
X0196999Y0051986D01*
G37*
G36*
X0198391Y0050594D02*
X0195330Y0047533D01*
X0194495Y0048368D01*
X0197556Y0051429D01*
X0198391Y0050594D01*
G37*
G36*
X0199783Y0049202D02*
X0196722Y0046141D01*
X0195887Y0046976D01*
X0198948Y0050037D01*
X0199783Y0049202D01*
G37*
G36*
X0202290Y0050037D02*
X0205351Y0046976D01*
X0204516Y0046141D01*
X0201455Y0049202D01*
X0202290Y0050037D01*
G37*
G36*
X0203682Y0051429D02*
X0206743Y0048368D01*
X0205908Y0047533D01*
X0202847Y0050594D01*
X0203682Y0051429D01*
G37*
G36*
X0205074Y0052821D02*
X0208135Y0049760D01*
X0207300Y0048925D01*
X0204239Y0051986D01*
X0205074Y0052821D01*
G37*
G36*
X0206466Y0054213D02*
X0209527Y0051152D01*
X0208692Y0050317D01*
X0205631Y0053378D01*
X0206466Y0054213D01*
G37*
G36*
X0207858Y0055605D02*
X0210919Y0052544D01*
X0210084Y0051709D01*
X0207023Y0054770D01*
X0207858Y0055605D01*
G37*
G36*
X0209249Y0056997D02*
X0212310Y0053936D01*
X0211475Y0053101D01*
X0208414Y0056162D01*
X0209249Y0056997D01*
G37*
G36*
X0210641Y0058388D02*
X0213702Y0055327D01*
X0212867Y0054492D01*
X0209806Y0057553D01*
X0210641Y0058388D01*
G37*
G36*
X0212033Y0059780D02*
X0215094Y0056719D01*
X0214259Y0055884D01*
X0211198Y0058945D01*
X0212033Y0059780D01*
G37*
G36*
X0213425Y0061172D02*
X0216486Y0058111D01*
X0215651Y0057276D01*
X0212590Y0060337D01*
X0213425Y0061172D01*
G37*
G36*
X0214817Y0062564D02*
X0217878Y0059503D01*
X0217043Y0058668D01*
X0213982Y0061729D01*
X0214817Y0062564D01*
G37*
G36*
X0216209Y0063956D02*
X0219270Y0060895D01*
X0218435Y0060060D01*
X0215374Y0063121D01*
X0216209Y0063956D01*
G37*
G36*
X0215374Y0066463D02*
X0218435Y0069524D01*
X0219270Y0068689D01*
X0216209Y0065628D01*
X0215374Y0066463D01*
G37*
G36*
X0213982Y0067855D02*
X0217043Y0070916D01*
X0217878Y0070081D01*
X0214817Y0067020D01*
X0213982Y0067855D01*
G37*
G36*
X0212590Y0069247D02*
X0215651Y0072308D01*
X0216486Y0071473D01*
X0213425Y0068412D01*
X0212590Y0069247D01*
G37*
G36*
X0211198Y0070639D02*
X0214259Y0073700D01*
X0215094Y0072865D01*
X0212033Y0069804D01*
X0211198Y0070639D01*
G37*
G36*
X0209806Y0072031D02*
X0212867Y0075092D01*
X0213702Y0074257D01*
X0210641Y0071196D01*
X0209806Y0072031D01*
G37*
G36*
X0208414Y0073423D02*
X0211475Y0076484D01*
X0212310Y0075649D01*
X0209249Y0072588D01*
X0208414Y0073423D01*
G37*
G36*
X0207023Y0074815D02*
X0210084Y0077876D01*
X0210919Y0077041D01*
X0207858Y0073980D01*
X0207023Y0074815D01*
G37*
G36*
X0205631Y0076207D02*
X0208692Y0079268D01*
X0209527Y0078433D01*
X0206466Y0075372D01*
X0205631Y0076207D01*
G37*
G36*
X0204239Y0077599D02*
X0207300Y0080660D01*
X0208135Y0079825D01*
X0205074Y0076764D01*
X0204239Y0077599D01*
G37*
G36*
X0202847Y0078990D02*
X0205908Y0082051D01*
X0206743Y0081216D01*
X0203682Y0078155D01*
X0202847Y0078990D01*
G37*
G36*
X0201455Y0080382D02*
X0204516Y0083443D01*
X0205351Y0082608D01*
X0202290Y0079547D01*
X0201455Y0080382D01*
G37*
G36*
X0198948Y0079547D02*
X0195887Y0082608D01*
X0196722Y0083443D01*
X0199783Y0080382D01*
X0198948Y0079547D01*
G37*
G36*
X0197556Y0078155D02*
X0194495Y0081216D01*
X0195330Y0082051D01*
X0198391Y0078990D01*
X0197556Y0078155D01*
G37*
G36*
X0196164Y0076764D02*
X0193103Y0079825D01*
X0193938Y0080660D01*
X0196999Y0077599D01*
X0196164Y0076764D01*
G37*
G36*
X0194772Y0075372D02*
X0191711Y0078433D01*
X0192546Y0079268D01*
X0195607Y0076207D01*
X0194772Y0075372D01*
G37*
G36*
X0193380Y0073980D02*
X0190319Y0077041D01*
X0191154Y0077876D01*
X0194215Y0074815D01*
X0193380Y0073980D01*
G37*
G36*
X0191988Y0072588D02*
X0188927Y0075649D01*
X0189762Y0076484D01*
X0192823Y0073423D01*
X0191988Y0072588D01*
G37*
G36*
X0190596Y0071196D02*
X0187535Y0074257D01*
X0188370Y0075092D01*
X0191431Y0072031D01*
X0190596Y0071196D01*
G37*
G36*
X0189204Y0069804D02*
X0186143Y0072865D01*
X0186978Y0073700D01*
X0190039Y0070639D01*
X0189204Y0069804D01*
G37*
G36*
X0187812Y0068412D02*
X0184751Y0071473D01*
X0185586Y0072308D01*
X0188647Y0069247D01*
X0187812Y0068412D01*
G37*
G36*
X0186421Y0067020D02*
X0183360Y0070081D01*
X0184195Y0070916D01*
X0187256Y0067855D01*
X0186421Y0067020D01*
G37*
G36*
X0185029Y0065628D02*
X0181968Y0068689D01*
X0182803Y0069524D01*
X0185864Y0066463D01*
X0185029Y0065628D01*
G37*
D24*
G36*
X0199993Y0082400D02*
X0200619Y0083026D01*
X0201245Y0082400D01*
X0200619Y0081774D01*
X0199993Y0082400D01*
G37*
D25*
X0152469Y0064792D03*
X0142469Y0064792D03*
D26*
X0127391Y0077194D03*
X0127391Y0099635D03*
D27*
X0128981Y0069024D02*
X0125013Y0069024D01*
X0117957Y0060560D02*
X0113989Y0060560D01*
X0106934Y0069024D02*
X0102965Y0069024D01*
D28*
X0101040Y0076997D03*
X0101040Y0080737D03*
X0101040Y0084477D03*
X0110040Y0084477D03*
X0110040Y0080737D03*
X0110040Y0076997D03*
D29*
X0049044Y0068729D03*
X0269517Y0084477D03*
D30*
X0269517Y0076603D03*
X0269517Y0068729D03*
X0269517Y0060855D03*
X0049044Y0060855D03*
X0049044Y0052981D03*
X0049044Y0045107D03*
D31*
X0053694Y0045463D02*
X0057087Y0045463D01*
X0057087Y0046288D02*
X0057087Y0044476D01*
X0057209Y0044019D01*
X0057446Y0043608D01*
X0057781Y0043273D01*
X0058192Y0043036D01*
X0058650Y0042913D01*
X0060855Y0042913D01*
X0060855Y0046288D01*
X0060855Y0046288D01*
X0057087Y0046288D01*
X0060855Y0046288D01*
X0060855Y0046288D01*
X0060855Y0042913D01*
X0063061Y0042913D01*
X0063518Y0043036D01*
X0063929Y0043273D01*
X0064264Y0043608D01*
X0064501Y0044019D01*
X0064624Y0044476D01*
X0064624Y0046288D01*
X0060855Y0046288D01*
X0060855Y0046288D01*
X0064624Y0046288D01*
X0064624Y0047846D01*
X0065534Y0046378D01*
X0067869Y0043406D01*
X0067869Y0043406D01*
X0068502Y0042762D01*
X0068943Y0042313D01*
X0069194Y0042058D01*
X0069379Y0041869D01*
X0071838Y0039368D01*
X0077903Y0034885D01*
X0084597Y0031407D01*
X0091752Y0029022D01*
X0091752Y0029022D01*
X0099193Y0027788D01*
X0099193Y0027788D01*
X0101977Y0027769D01*
X0102965Y0027762D01*
X0105682Y0027743D01*
X0105682Y0027743D01*
X0111067Y0028483D01*
X0112730Y0028960D01*
X0113679Y0029233D01*
X0114079Y0029348D01*
X0114628Y0029505D01*
X0114628Y0029506D01*
X0115295Y0029697D01*
X0118062Y0031608D01*
X0120076Y0034301D01*
X0120601Y0035898D01*
X0120601Y0035898D01*
X0120962Y0036746D01*
X0122086Y0038199D01*
X0123630Y0039192D01*
X0125419Y0039611D01*
X0125582Y0039607D01*
X0125616Y0039573D01*
X0126471Y0039573D01*
X0127321Y0039479D01*
X0127439Y0039573D01*
X0153816Y0039573D01*
X0154789Y0039170D01*
X0154840Y0039170D01*
X0156406Y0037605D01*
X0177340Y0037605D01*
X0178622Y0038886D01*
X0180011Y0040275D01*
X0182223Y0042487D01*
X0182223Y0042905D01*
X0183911Y0044593D01*
X0188530Y0044593D01*
X0188687Y0044435D01*
X0188687Y0043580D01*
X0188446Y0043339D01*
X0188446Y0042179D01*
X0190551Y0040073D01*
X0190551Y0040016D01*
X0190674Y0039559D01*
X0190911Y0039148D01*
X0191774Y0038285D01*
X0193604Y0040114D01*
X0193604Y0040114D01*
X0195573Y0038145D01*
X0194848Y0037421D01*
X0194438Y0037184D01*
X0193980Y0037061D01*
X0193506Y0037061D01*
X0193048Y0037184D01*
X0192638Y0037421D01*
X0191774Y0038285D01*
X0193604Y0040114D01*
X0193604Y0040114D01*
X0195573Y0038145D01*
X0196297Y0038870D01*
X0196534Y0039280D01*
X0196657Y0039738D01*
X0196657Y0040212D01*
X0196534Y0040670D01*
X0196297Y0041080D01*
X0195434Y0041944D01*
X0193604Y0040114D01*
X0193604Y0040114D01*
X0195433Y0041944D01*
X0194570Y0042807D01*
X0194160Y0043044D01*
X0193702Y0043167D01*
X0193645Y0043167D01*
X0192472Y0044340D01*
X0192472Y0044435D01*
X0192629Y0044593D01*
X0194231Y0044593D01*
X0194977Y0045339D01*
X0195031Y0045285D01*
X0195878Y0046132D01*
X0195878Y0046132D01*
X0195031Y0045285D01*
X0195616Y0044700D01*
X0196027Y0044463D01*
X0196484Y0044340D01*
X0196958Y0044340D01*
X0197416Y0044463D01*
X0197827Y0044700D01*
X0199525Y0046398D01*
X0197851Y0048073D01*
X0199525Y0046398D01*
X0200902Y0047775D01*
X0203845Y0044832D01*
X0203845Y0040070D01*
X0203374Y0039599D01*
X0202950Y0038575D01*
X0202950Y0037466D01*
X0203374Y0036442D01*
X0204158Y0035657D01*
X0205183Y0035233D01*
X0206291Y0035233D01*
X0207316Y0035657D01*
X0208100Y0036442D01*
X0208524Y0037466D01*
X0208524Y0038575D01*
X0208100Y0039599D01*
X0207629Y0040070D01*
X0207629Y0041242D01*
X0208095Y0040776D01*
X0209120Y0040351D01*
X0210228Y0040351D01*
X0211253Y0040776D01*
X0212037Y0041560D01*
X0212461Y0042584D01*
X0212461Y0043693D01*
X0212322Y0044029D01*
X0212819Y0043531D01*
X0213592Y0043211D01*
X0212183Y0041801D01*
X0211848Y0040993D01*
X0211030Y0040175D01*
X0211030Y0037198D01*
X0210990Y0037157D01*
X0210753Y0036747D01*
X0210630Y0036289D01*
X0210630Y0035068D01*
X0213217Y0035068D01*
X0213217Y0035068D01*
X0210630Y0035068D01*
X0210630Y0033846D01*
X0210753Y0033389D01*
X0210990Y0032978D01*
X0211325Y0032643D01*
X0211735Y0032406D01*
X0212193Y0032283D01*
X0213217Y0032283D01*
X0213217Y0035068D01*
X0213217Y0035068D01*
X0213217Y0032283D01*
X0214242Y0032283D01*
X0214699Y0032406D01*
X0215110Y0032643D01*
X0215445Y0032978D01*
X0215580Y0033211D01*
X0215714Y0032978D01*
X0216049Y0032643D01*
X0216460Y0032406D01*
X0216917Y0032283D01*
X0219332Y0032283D01*
X0219332Y0035868D01*
X0219701Y0035868D01*
X0219701Y0036236D01*
X0223679Y0036236D01*
X0223679Y0037088D01*
X0225203Y0035564D01*
X0225203Y0033504D01*
X0226023Y0032683D01*
X0231907Y0032683D01*
X0232400Y0033176D01*
X0234193Y0033176D01*
X0234685Y0032683D01*
X0237419Y0032683D01*
X0238239Y0033504D01*
X0238239Y0036481D01*
X0238280Y0036522D01*
X0238517Y0036932D01*
X0238639Y0037390D01*
X0238639Y0038611D01*
X0238639Y0039832D01*
X0238517Y0040290D01*
X0238280Y0040700D01*
X0237945Y0041036D01*
X0237534Y0041273D01*
X0237076Y0041395D01*
X0236052Y0041395D01*
X0236052Y0038611D01*
X0236052Y0038611D01*
X0238639Y0038611D01*
X0236052Y0038611D01*
X0236052Y0038611D01*
X0233465Y0038611D01*
X0233465Y0037390D01*
X0233580Y0036960D01*
X0232728Y0036960D01*
X0232728Y0038600D01*
X0232403Y0038925D01*
X0232433Y0038942D01*
X0232768Y0039277D01*
X0233005Y0039688D01*
X0233128Y0040146D01*
X0233128Y0042167D01*
X0229150Y0042167D01*
X0229150Y0042535D01*
X0233128Y0042535D01*
X0233128Y0044557D01*
X0233005Y0045014D01*
X0232768Y0045425D01*
X0232433Y0045760D01*
X0232022Y0045997D01*
X0231565Y0046120D01*
X0229150Y0046120D01*
X0229150Y0042536D01*
X0228781Y0042536D01*
X0228781Y0046120D01*
X0226366Y0046120D01*
X0225971Y0046014D01*
X0225488Y0046850D01*
X0226446Y0046850D01*
X0226904Y0046973D01*
X0227315Y0047210D01*
X0227650Y0047545D01*
X0227887Y0047956D01*
X0228009Y0048413D01*
X0228009Y0049635D01*
X0228009Y0050856D01*
X0227894Y0051286D01*
X0228293Y0051286D01*
X0228571Y0050615D01*
X0229355Y0049831D01*
X0230379Y0049406D01*
X0231488Y0049406D01*
X0232513Y0049831D01*
X0233297Y0050615D01*
X0233721Y0051639D01*
X0233721Y0052748D01*
X0233297Y0053773D01*
X0232513Y0054557D01*
X0231488Y0054981D01*
X0230822Y0054981D01*
X0230733Y0055070D01*
X0227281Y0055070D01*
X0226789Y0055562D01*
X0224055Y0055562D01*
X0223563Y0055070D01*
X0221368Y0055070D01*
X0220231Y0056207D01*
X0223490Y0056207D01*
X0223888Y0056052D01*
X0224243Y0056207D01*
X0224631Y0056207D01*
X0224933Y0056509D01*
X0225879Y0056923D01*
X0226442Y0056690D01*
X0227551Y0056690D01*
X0228576Y0057114D01*
X0229360Y0057898D01*
X0229784Y0058923D01*
X0229784Y0058935D01*
X0233176Y0055544D01*
X0234284Y0054435D01*
X0256324Y0054435D01*
X0257432Y0055544D01*
X0266779Y0064891D01*
X0266877Y0064792D01*
X0265574Y0063489D01*
X0264867Y0061780D01*
X0264867Y0059930D01*
X0265574Y0058221D01*
X0266883Y0056913D01*
X0268592Y0056205D01*
X0270441Y0056205D01*
X0272151Y0056913D01*
X0273459Y0058221D01*
X0274167Y0059930D01*
X0274167Y0061780D01*
X0273459Y0063489D01*
X0272156Y0064792D01*
X0273459Y0066095D01*
X0274167Y0067804D01*
X0274167Y0069654D01*
X0273459Y0071363D01*
X0272156Y0072666D01*
X0273459Y0073969D01*
X0274167Y0075678D01*
X0274167Y0077528D01*
X0273459Y0079237D01*
X0273213Y0079483D01*
X0273461Y0079550D01*
X0273872Y0079787D01*
X0274207Y0080122D01*
X0274444Y0080532D01*
X0274567Y0080990D01*
X0274567Y0084402D01*
X0269592Y0084402D01*
X0269592Y0084552D01*
X0274567Y0084552D01*
X0274567Y0085795D01*
X0274587Y0085727D01*
X0274589Y0085726D01*
X0274618Y0085631D01*
X0274642Y0085524D01*
X0274641Y0085521D01*
X0274710Y0085217D01*
X0274714Y0085189D01*
X0274714Y0085189D01*
X0274719Y0085154D01*
X0274727Y0085099D01*
X0274724Y0085085D01*
X0274763Y0084827D01*
X0274771Y0084716D01*
X0274769Y0084710D01*
X0274785Y0084501D01*
X0274785Y0084267D01*
X0274793Y0084248D01*
X0274793Y0084138D01*
X0274795Y0084133D01*
X0274795Y0084087D01*
X0274797Y0084082D01*
X0274797Y0084035D01*
X0274799Y0084030D01*
X0274799Y0083984D01*
X0274801Y0083979D01*
X0274801Y0083881D01*
X0274803Y0083876D01*
X0274803Y0045682D01*
X0274801Y0045677D01*
X0274801Y0045605D01*
X0274799Y0045600D01*
X0274799Y0045528D01*
X0274797Y0045523D01*
X0274797Y0045455D01*
X0274793Y0045446D01*
X0274793Y0045378D01*
X0274789Y0045368D01*
X0274789Y0045108D01*
X0274777Y0044942D01*
X0274774Y0044938D01*
X0274755Y0044677D01*
X0274720Y0044447D01*
X0274721Y0044441D01*
X0274711Y0044375D01*
X0274647Y0044093D01*
X0274647Y0044093D01*
X0274603Y0043900D01*
X0274577Y0043811D01*
X0274572Y0043806D01*
X0274501Y0043578D01*
X0274425Y0043379D01*
X0274354Y0043202D01*
X0274264Y0043009D01*
X0274263Y0043009D01*
X0274156Y0042794D01*
X0274060Y0042624D01*
X0274059Y0042622D01*
X0273976Y0042485D01*
X0273834Y0042277D01*
X0273831Y0042262D01*
X0273822Y0042249D01*
X0273670Y0042048D01*
X0273509Y0041850D01*
X0273507Y0041844D01*
X0273506Y0041843D01*
X0273485Y0041817D01*
X0273433Y0041762D01*
X0273239Y0041562D01*
X0273125Y0041447D01*
X0273124Y0041446D01*
X0273094Y0041415D01*
X0273073Y0041396D01*
X0273063Y0041386D01*
X0273009Y0041339D01*
X0272992Y0041325D01*
X0272724Y0041110D01*
X0272461Y0040917D01*
X0272414Y0040885D01*
X0272398Y0040875D01*
X0272384Y0040866D01*
X0272365Y0040854D01*
X0272350Y0040844D01*
X0272337Y0040836D01*
X0272319Y0040825D01*
X0272303Y0040815D01*
X0272288Y0040805D01*
X0272283Y0040802D01*
X0271614Y0040401D01*
X0270910Y0039993D01*
X0270195Y0039597D01*
X0269473Y0039210D01*
X0268745Y0038834D01*
X0268010Y0038467D01*
X0267267Y0038110D01*
X0266517Y0037760D01*
X0265761Y0037419D01*
X0265002Y0037085D01*
X0264237Y0036760D01*
X0263467Y0036441D01*
X0262695Y0036131D01*
X0261916Y0035828D01*
X0261135Y0035532D01*
X0260352Y0035242D01*
X0259563Y0034960D01*
X0258772Y0034683D01*
X0257983Y0034412D01*
X0257190Y0034149D01*
X0256391Y0033889D01*
X0255593Y0033637D01*
X0254793Y0033389D01*
X0253989Y0033147D01*
X0253183Y0032910D01*
X0252375Y0032678D01*
X0251568Y0032450D01*
X0250754Y0032227D01*
X0249943Y0032009D01*
X0249128Y0031795D01*
X0248311Y0031585D01*
X0247491Y0031379D01*
X0246673Y0031178D01*
X0245853Y0030980D01*
X0245031Y0030787D01*
X0244205Y0030597D01*
X0243380Y0030411D01*
X0242557Y0030230D01*
X0241728Y0030051D01*
X0240900Y0029876D01*
X0240070Y0029705D01*
X0239242Y0029537D01*
X0238410Y0029372D01*
X0237578Y0029210D01*
X0236749Y0029053D01*
X0235914Y0028897D01*
X0235083Y0028745D01*
X0234248Y0028596D01*
X0233416Y0028450D01*
X0232582Y0028306D01*
X0231746Y0028166D01*
X0230911Y0028028D01*
X0230077Y0027893D01*
X0229239Y0027761D01*
X0228407Y0027632D01*
X0227570Y0027504D01*
X0226731Y0027380D01*
X0225898Y0027258D01*
X0225058Y0027138D01*
X0224222Y0027021D01*
X0223385Y0026906D01*
X0222544Y0026794D01*
X0221705Y0026683D01*
X0220869Y0026576D01*
X0220029Y0026469D01*
X0219186Y0026365D01*
X0218344Y0026263D01*
X0217509Y0026164D01*
X0216667Y0026066D01*
X0215824Y0025969D01*
X0214986Y0025876D01*
X0214142Y0025784D01*
X0213301Y0025694D01*
X0212463Y0025606D01*
X0211619Y0025520D01*
X0210780Y0025436D01*
X0209938Y0025353D01*
X0209093Y0025272D01*
X0208249Y0025194D01*
X0207407Y0025117D01*
X0206565Y0025041D01*
X0205722Y0024968D01*
X0204879Y0024896D01*
X0204031Y0024826D01*
X0203190Y0024757D01*
X0202346Y0024690D01*
X0201504Y0024625D01*
X0200656Y0024562D01*
X0199812Y0024500D01*
X0198966Y0024439D01*
X0198122Y0024380D01*
X0197273Y0024322D01*
X0196433Y0024267D01*
X0195587Y0024212D01*
X0194741Y0024159D01*
X0193888Y0024107D01*
X0193447Y0024081D01*
X0193432Y0024080D01*
X0193414Y0024079D01*
X0193393Y0024078D01*
X0193378Y0024078D01*
X0193358Y0024077D01*
X0193342Y0024076D01*
X0193324Y0024076D01*
X0193303Y0024075D01*
X0193286Y0024074D01*
X0193268Y0024074D01*
X0193253Y0024074D01*
X0193235Y0024073D01*
X0193213Y0024073D01*
X0193200Y0024073D01*
X0193177Y0024073D01*
X0193162Y0024072D01*
X0193143Y0024072D01*
X0125407Y0024072D01*
X0125393Y0024072D01*
X0125370Y0024073D01*
X0125354Y0024073D01*
X0125335Y0024073D01*
X0125319Y0024073D01*
X0125300Y0024074D01*
X0125283Y0024074D01*
X0125265Y0024075D01*
X0125246Y0024075D01*
X0125230Y0024076D01*
X0125212Y0024077D01*
X0125194Y0024077D01*
X0125175Y0024078D01*
X0125157Y0024079D01*
X0125140Y0024080D01*
X0125123Y0024081D01*
X0125002Y0024088D01*
X0124168Y0024138D01*
X0123333Y0024190D01*
X0122496Y0024243D01*
X0121664Y0024298D01*
X0120826Y0024354D01*
X0119994Y0024411D01*
X0119157Y0024470D01*
X0118323Y0024531D01*
X0117492Y0024593D01*
X0116656Y0024656D01*
X0115825Y0024721D01*
X0114989Y0024788D01*
X0114158Y0024856D01*
X0113325Y0024926D01*
X0112493Y0024998D01*
X0111652Y0025072D01*
X0110826Y0025146D01*
X0109994Y0025223D01*
X0109162Y0025301D01*
X0108324Y0025382D01*
X0107500Y0025463D01*
X0106663Y0025548D01*
X0105836Y0025633D01*
X0104999Y0025721D01*
X0104173Y0025810D01*
X0103337Y0025902D01*
X0102511Y0025995D01*
X0101678Y0026090D01*
X0100851Y0026187D01*
X0100018Y0026286D01*
X0099193Y0026387D01*
X0098363Y0026490D01*
X0097532Y0026596D01*
X0096700Y0026703D01*
X0095874Y0026813D01*
X0095048Y0026924D01*
X0094216Y0027038D01*
X0093391Y0027154D01*
X0092563Y0027273D01*
X0091736Y0027393D01*
X0090908Y0027517D01*
X0090084Y0027642D01*
X0089256Y0027771D01*
X0088431Y0027902D01*
X0087608Y0028035D01*
X0086781Y0028171D01*
X0085956Y0028310D01*
X0085134Y0028451D01*
X0084310Y0028596D01*
X0083488Y0028743D01*
X0082664Y0028894D01*
X0081843Y0029047D01*
X0081020Y0029203D01*
X0080198Y0029363D01*
X0079382Y0029524D01*
X0078563Y0029690D01*
X0077746Y0029858D01*
X0076930Y0030030D01*
X0076118Y0030205D01*
X0075304Y0030384D01*
X0074494Y0030565D01*
X0073684Y0030751D01*
X0072874Y0030941D01*
X0072070Y0031133D01*
X0071263Y0031331D01*
X0070460Y0031531D01*
X0069657Y0031736D01*
X0068859Y0031945D01*
X0068057Y0032159D01*
X0067261Y0032376D01*
X0066465Y0032598D01*
X0065671Y0032825D01*
X0064880Y0033056D01*
X0064090Y0033292D01*
X0063302Y0033533D01*
X0062519Y0033778D01*
X0061735Y0034030D01*
X0060954Y0034287D01*
X0060175Y0034549D01*
X0059400Y0034817D01*
X0058626Y0035092D01*
X0057856Y0035372D01*
X0057088Y0035659D01*
X0056324Y0035952D01*
X0055563Y0036252D01*
X0054804Y0036560D01*
X0054050Y0036875D01*
X0053299Y0037198D01*
X0052550Y0037530D01*
X0051807Y0037869D01*
X0051068Y0038218D01*
X0050332Y0038576D01*
X0049604Y0038943D01*
X0048882Y0039319D01*
X0048167Y0039706D01*
X0047461Y0040102D01*
X0046761Y0040510D01*
X0046276Y0040803D01*
X0046268Y0040808D01*
X0046253Y0040817D01*
X0046237Y0040827D01*
X0046217Y0040840D01*
X0046206Y0040847D01*
X0046195Y0040854D01*
X0046175Y0040867D01*
X0046164Y0040874D01*
X0046150Y0040883D01*
X0046136Y0040892D01*
X0046118Y0040904D01*
X0046108Y0040910D01*
X0046094Y0040920D01*
X0046075Y0040933D01*
X0046062Y0040942D01*
X0046049Y0040950D01*
X0046034Y0040961D01*
X0046021Y0040970D01*
X0046004Y0040982D01*
X0045992Y0040990D01*
X0045978Y0041000D01*
X0045963Y0041011D01*
X0045951Y0041020D01*
X0045935Y0041032D01*
X0045921Y0041042D01*
X0045908Y0041051D01*
X0045893Y0041062D01*
X0045878Y0041073D01*
X0045865Y0041083D01*
X0045852Y0041093D01*
X0045837Y0041104D01*
X0045820Y0041117D01*
X0045809Y0041126D01*
X0045795Y0041136D01*
X0045785Y0041145D01*
X0045768Y0041158D01*
X0045753Y0041170D01*
X0045740Y0041180D01*
X0045727Y0041191D01*
X0045711Y0041203D01*
X0045698Y0041214D01*
X0045686Y0041224D01*
X0045672Y0041235D01*
X0045657Y0041248D01*
X0045644Y0041259D01*
X0045631Y0041270D01*
X0045619Y0041280D01*
X0045602Y0041294D01*
X0045590Y0041305D01*
X0045577Y0041316D01*
X0045564Y0041327D01*
X0045548Y0041341D01*
X0045537Y0041351D01*
X0045524Y0041363D01*
X0045512Y0041374D01*
X0045496Y0041388D01*
X0045483Y0041400D01*
X0045469Y0041412D01*
X0045459Y0041421D01*
X0045442Y0041438D01*
X0045432Y0041447D01*
X0045419Y0041459D01*
X0045404Y0041473D01*
X0045393Y0041483D01*
X0045379Y0041497D01*
X0045367Y0041509D01*
X0045354Y0041522D01*
X0045342Y0041533D01*
X0045328Y0041547D01*
X0045316Y0041559D01*
X0045302Y0041573D01*
X0045291Y0041583D01*
X0045278Y0041597D01*
X0045263Y0041612D01*
X0045252Y0041623D01*
X0045239Y0041637D01*
X0045228Y0041649D01*
X0045217Y0041660D01*
X0045201Y0041676D01*
X0045191Y0041688D01*
X0045178Y0041701D01*
X0045166Y0041714D01*
X0045152Y0041729D01*
X0045140Y0041742D01*
X0045131Y0041753D01*
X0045118Y0041767D01*
X0045104Y0041783D01*
X0045091Y0041796D01*
X0045081Y0041808D01*
X0045069Y0041822D01*
X0045058Y0041834D01*
X0045044Y0041850D01*
X0045032Y0041864D01*
X0045024Y0041874D01*
X0045010Y0041890D01*
X0044998Y0041905D01*
X0044988Y0041916D01*
X0044976Y0041931D01*
X0044962Y0041948D01*
X0044950Y0041962D01*
X0044939Y0041976D01*
X0044930Y0041987D01*
X0044917Y0042003D01*
X0044907Y0042016D01*
X0044894Y0042032D01*
X0044883Y0042046D01*
X0044874Y0042058D01*
X0044861Y0042074D01*
X0044849Y0042090D01*
X0044839Y0042103D01*
X0044827Y0042119D01*
X0044817Y0042133D01*
X0044806Y0042147D01*
X0044794Y0042163D01*
X0044785Y0042175D01*
X0044772Y0042193D01*
X0044763Y0042206D01*
X0044752Y0042220D01*
X0044741Y0042236D01*
X0044731Y0042250D01*
X0044721Y0042264D01*
X0044709Y0042282D01*
X0044699Y0042295D01*
X0044689Y0042310D01*
X0044680Y0042324D01*
X0044667Y0042342D01*
X0044658Y0042356D01*
X0044649Y0042369D01*
X0044638Y0042385D01*
X0044628Y0042401D01*
X0044618Y0042416D01*
X0044607Y0042432D01*
X0044598Y0042447D01*
X0044590Y0042460D01*
X0044577Y0042479D01*
X0044569Y0042493D01*
X0044560Y0042507D01*
X0044548Y0042527D01*
X0044539Y0042540D01*
X0044529Y0042556D01*
X0044521Y0042570D01*
X0044513Y0042583D01*
X0044501Y0042604D01*
X0044491Y0042621D01*
X0044484Y0042633D01*
X0044476Y0042646D01*
X0044467Y0042662D01*
X0044454Y0042683D01*
X0044444Y0042702D01*
X0044437Y0042713D01*
X0044428Y0042730D01*
X0044420Y0042745D01*
X0044401Y0042779D01*
X0044387Y0042806D01*
X0044384Y0042810D01*
X0044377Y0042823D01*
X0044367Y0042842D01*
X0044359Y0042859D01*
X0044350Y0042875D01*
X0044343Y0042889D01*
X0044334Y0042906D01*
X0044326Y0042923D01*
X0044317Y0042939D01*
X0044309Y0042956D01*
X0044300Y0042973D01*
X0044294Y0042987D01*
X0044287Y0043000D01*
X0044276Y0043024D01*
X0044270Y0043036D01*
X0044261Y0043055D01*
X0044255Y0043067D01*
X0044246Y0043088D01*
X0044236Y0043108D01*
X0044231Y0043120D01*
X0044223Y0043137D01*
X0044217Y0043152D01*
X0044209Y0043170D01*
X0044193Y0043207D01*
X0044186Y0043221D01*
X0044180Y0043236D01*
X0044172Y0043256D01*
X0044168Y0043264D01*
X0044161Y0043282D01*
X0044147Y0043314D01*
X0044146Y0043318D01*
X0044137Y0043340D01*
X0044131Y0043356D01*
X0044125Y0043371D01*
X0044123Y0043376D01*
X0044111Y0043406D01*
X0044097Y0043442D01*
X0044091Y0043459D01*
X0044085Y0043474D01*
X0044079Y0043491D01*
X0044075Y0043502D01*
X0044068Y0043521D01*
X0044062Y0043539D01*
X0044053Y0043564D01*
X0044049Y0043576D01*
X0044043Y0043593D01*
X0044037Y0043611D01*
X0044031Y0043629D01*
X0044025Y0043647D01*
X0044020Y0043662D01*
X0044016Y0043676D01*
X0044009Y0043695D01*
X0044003Y0043715D01*
X0043996Y0043737D01*
X0043993Y0043747D01*
X0043987Y0043767D01*
X0043982Y0043782D01*
X0043977Y0043800D01*
X0043968Y0043829D01*
X0043966Y0043835D01*
X0043961Y0043854D01*
X0043956Y0043872D01*
X0043951Y0043889D01*
X0043946Y0043907D01*
X0043942Y0043921D01*
X0043937Y0043941D01*
X0043933Y0043955D01*
X0043923Y0043996D01*
X0043919Y0044011D01*
X0043915Y0044027D01*
X0043911Y0044044D01*
X0043906Y0044062D01*
X0043902Y0044081D01*
X0043899Y0044094D01*
X0043893Y0044118D01*
X0043889Y0044134D01*
X0043885Y0044152D01*
X0043882Y0044166D01*
X0043877Y0044187D01*
X0043874Y0044203D01*
X0043871Y0044217D01*
X0043867Y0044235D01*
X0043863Y0044255D01*
X0043859Y0044274D01*
X0043856Y0044289D01*
X0043853Y0044307D01*
X0043850Y0044324D01*
X0043846Y0044343D01*
X0043843Y0044358D01*
X0043840Y0044377D01*
X0043836Y0044398D01*
X0043834Y0044411D01*
X0043831Y0044428D01*
X0043828Y0044449D01*
X0043825Y0044463D01*
X0043819Y0044501D01*
X0043817Y0044517D01*
X0043814Y0044535D01*
X0043812Y0044553D01*
X0043809Y0044570D01*
X0043807Y0044588D01*
X0043804Y0044605D01*
X0043802Y0044622D01*
X0043800Y0044641D01*
X0043797Y0044659D01*
X0043795Y0044674D01*
X0043793Y0044691D01*
X0043791Y0044712D01*
X0043789Y0044726D01*
X0043788Y0044743D01*
X0043786Y0044761D01*
X0043784Y0044782D01*
X0043782Y0044796D01*
X0043780Y0044816D01*
X0043779Y0044831D01*
X0043778Y0044847D01*
X0043776Y0044868D01*
X0043774Y0044884D01*
X0043773Y0044902D01*
X0043772Y0044917D01*
X0043770Y0044938D01*
X0043770Y0044951D01*
X0043768Y0044973D01*
X0043767Y0044988D01*
X0043766Y0045005D01*
X0043765Y0045022D01*
X0043764Y0045043D01*
X0043763Y0045057D01*
X0043763Y0045070D01*
X0043762Y0045094D01*
X0043761Y0045111D01*
X0043761Y0045126D01*
X0043760Y0045144D01*
X0043760Y0045160D01*
X0043759Y0045180D01*
X0043759Y0045196D01*
X0043758Y0045214D01*
X0043758Y0045229D01*
X0043758Y0045246D01*
X0043758Y0045268D01*
X0043758Y0045280D01*
X0043757Y0045298D01*
X0043757Y0084290D01*
X0043757Y0084306D01*
X0043758Y0084321D01*
X0043758Y0084340D01*
X0043758Y0084356D01*
X0043758Y0084374D01*
X0043759Y0084391D01*
X0043759Y0084411D01*
X0043759Y0084424D01*
X0043760Y0084440D01*
X0043760Y0084461D01*
X0043761Y0084476D01*
X0043762Y0084495D01*
X0043762Y0084511D01*
X0043763Y0084533D01*
X0043764Y0084545D01*
X0043765Y0084566D01*
X0043766Y0084583D01*
X0043767Y0084601D01*
X0043768Y0084616D01*
X0043769Y0084632D01*
X0043770Y0084652D01*
X0043771Y0084669D01*
X0043773Y0084685D01*
X0043774Y0084702D01*
X0043775Y0084717D01*
X0043777Y0084738D01*
X0043778Y0084755D01*
X0043780Y0084774D01*
X0043782Y0084790D01*
X0043783Y0084809D01*
X0043785Y0084823D01*
X0043787Y0084843D01*
X0043789Y0084859D01*
X0043791Y0084880D01*
X0043792Y0084887D01*
X0043795Y0084914D01*
X0043797Y0084930D01*
X0043799Y0084948D01*
X0043801Y0084965D01*
X0043803Y0084981D01*
X0043806Y0085000D01*
X0043809Y0085022D01*
X0043811Y0085036D01*
X0043813Y0085049D01*
X0043816Y0085068D01*
X0043819Y0085087D01*
X0043822Y0085106D01*
X0043824Y0085123D01*
X0043827Y0085139D01*
X0043830Y0085158D01*
X0043833Y0085174D01*
X0043836Y0085195D01*
X0043839Y0085211D01*
X0043843Y0085230D01*
X0043845Y0085244D01*
X0043848Y0085257D01*
X0043852Y0085280D01*
X0043856Y0085301D01*
X0043859Y0085317D01*
X0043862Y0085332D01*
X0043866Y0085350D01*
X0043869Y0085368D01*
X0043873Y0085386D01*
X0043877Y0085403D01*
X0043880Y0085419D01*
X0043884Y0085435D01*
X0043888Y0085455D01*
X0043893Y0085475D01*
X0043896Y0085489D01*
X0043901Y0085508D01*
X0043905Y0085525D01*
X0043909Y0085541D01*
X0043913Y0085561D01*
X0043918Y0085579D01*
X0043923Y0085597D01*
X0043926Y0085610D01*
X0043931Y0085630D01*
X0043936Y0085646D01*
X0043941Y0085665D01*
X0043945Y0085682D01*
X0043949Y0085695D01*
X0043955Y0085718D01*
X0043959Y0085733D01*
X0043964Y0085748D01*
X0043970Y0085769D01*
X0043976Y0085790D01*
X0043980Y0085802D01*
X0043984Y0085817D01*
X0043990Y0085835D01*
X0043995Y0085854D01*
X0044003Y0085877D01*
X0044006Y0085889D01*
X0044009Y0085898D01*
X0044018Y0085925D01*
X0044023Y0085940D01*
X0044029Y0085957D01*
X0044036Y0085979D01*
X0044041Y0085993D01*
X0044046Y0086010D01*
X0044053Y0086029D01*
X0044059Y0086045D01*
X0044064Y0086058D01*
X0044071Y0086080D01*
X0044077Y0086095D01*
X0044083Y0086113D01*
X0044090Y0086131D01*
X0044096Y0086148D01*
X0044101Y0086159D01*
X0044109Y0086182D01*
X0044116Y0086201D01*
X0044122Y0086214D01*
X0044129Y0086231D01*
X0044135Y0086248D01*
X0044143Y0086267D01*
X0044149Y0086283D01*
X0044155Y0086298D01*
X0044171Y0086336D01*
X0044177Y0086350D01*
X0044184Y0086366D01*
X0044190Y0086380D01*
X0044199Y0086400D01*
X0044207Y0086418D01*
X0044215Y0086437D01*
X0044221Y0086451D01*
X0044229Y0086467D01*
X0044235Y0086482D01*
X0044244Y0086501D01*
X0044250Y0086515D01*
X0044259Y0086533D01*
X0044266Y0086549D01*
X0044274Y0086566D01*
X0044280Y0086577D01*
X0044292Y0086603D01*
X0044303Y0086624D01*
X0044307Y0086632D01*
X0044309Y0086638D01*
X0044322Y0086663D01*
X0044336Y0086690D01*
X0044340Y0086698D01*
X0044349Y0086715D01*
X0044352Y0086722D01*
X0044366Y0086748D01*
X0044377Y0086768D01*
X0044381Y0086776D01*
X0044391Y0086796D01*
X0044399Y0086810D01*
X0044411Y0086832D01*
X0044418Y0086844D01*
X0044422Y0086851D01*
X0044433Y0086872D01*
X0044445Y0086893D01*
X0044457Y0086915D01*
X0044463Y0086924D01*
X0044468Y0086933D01*
X0044480Y0086953D01*
X0044499Y0086986D01*
X0044507Y0086999D01*
X0044517Y0087017D01*
X0044536Y0087048D01*
X0044542Y0087057D01*
X0044558Y0087082D01*
X0044565Y0087093D01*
X0044575Y0087109D01*
X0044585Y0087126D01*
X0044596Y0087143D01*
X0044604Y0087156D01*
X0044615Y0087172D01*
X0044624Y0087186D01*
X0044633Y0087200D01*
X0044645Y0087218D01*
X0044655Y0087233D01*
X0044666Y0087249D01*
X0044674Y0087261D01*
X0044687Y0087280D01*
X0044690Y0087284D01*
X0044710Y0087313D01*
X0044727Y0087337D01*
X0044735Y0087349D01*
X0044749Y0087368D01*
X0044760Y0087384D01*
X0044762Y0087386D01*
X0044783Y0087416D01*
X0044789Y0087423D01*
X0044801Y0087440D01*
X0044828Y0087476D01*
X0044833Y0087482D01*
X0044852Y0087506D01*
X0044857Y0087513D01*
X0044868Y0087528D01*
X0044881Y0087544D01*
X0044888Y0087554D01*
X0044904Y0087574D01*
X0044914Y0087586D01*
X0044926Y0087601D01*
X0044936Y0087614D01*
X0044949Y0087629D01*
X0044958Y0087640D01*
X0044967Y0087651D01*
X0044983Y0087670D01*
X0044996Y0087686D01*
X0045018Y0087713D01*
X0045040Y0087738D01*
X0045050Y0087749D01*
X0045063Y0087764D01*
X0045079Y0087783D01*
X0045090Y0087795D01*
X0045091Y0087796D01*
X0045126Y0087835D01*
X0045145Y0087856D01*
X0045147Y0087858D01*
X0045179Y0087893D01*
X0045187Y0087901D01*
X0045195Y0087910D01*
X0045214Y0087930D01*
X0045223Y0087939D01*
X0045235Y0087952D01*
X0045250Y0087967D01*
X0045263Y0087981D01*
X0045273Y0087991D01*
X0045283Y0088001D01*
X0045300Y0088018D01*
X0045312Y0088031D01*
X0045325Y0088043D01*
X0045334Y0088052D01*
X0045355Y0088072D01*
X0045363Y0088080D01*
X0045376Y0088093D01*
X0045386Y0088102D01*
X0045398Y0088114D01*
X0045417Y0088132D01*
X0045427Y0088142D01*
X0045439Y0088153D01*
X0045457Y0088169D01*
X0045467Y0088179D01*
X0045485Y0088195D01*
X0045491Y0088201D01*
X0045503Y0088212D01*
X0045534Y0088239D01*
X0045557Y0088260D01*
X0045575Y0088275D01*
X0045600Y0088296D01*
X0045629Y0088321D01*
X0045633Y0088325D01*
X0045668Y0088354D01*
X0045698Y0088379D01*
X0045700Y0088381D01*
X0045728Y0088403D01*
X0045734Y0088408D01*
X0045781Y0088445D01*
X0045797Y0088458D01*
X0045803Y0088463D01*
X0045814Y0088471D01*
X0045834Y0088486D01*
X0045850Y0088498D01*
X0045876Y0088518D01*
X0045886Y0088525D01*
X0045901Y0088536D01*
X0045926Y0088555D01*
X0045946Y0088569D01*
X0045962Y0088581D01*
X0045973Y0088589D01*
X0045981Y0088594D01*
X0046004Y0088611D01*
X0046044Y0088638D01*
X0046088Y0088669D01*
X0046117Y0088688D01*
X0046129Y0088696D01*
X0046144Y0088706D01*
X0046155Y0088713D01*
X0046170Y0088723D01*
X0046190Y0088736D01*
X0046205Y0088745D01*
X0046216Y0088752D01*
X0046219Y0088754D01*
X0046250Y0088774D01*
X0046265Y0088783D01*
X0046271Y0088787D01*
X0046567Y0088967D01*
X0047274Y0089384D01*
X0047985Y0089787D01*
X0048701Y0090178D01*
X0049426Y0090559D01*
X0050158Y0090931D01*
X0050898Y0091293D01*
X0051644Y0091647D01*
X0052395Y0091992D01*
X0053153Y0092330D01*
X0053916Y0092660D01*
X0054683Y0092982D01*
X0055454Y0093296D01*
X0056230Y0093603D01*
X0057009Y0093903D01*
X0057791Y0094196D01*
X0058577Y0094482D01*
X0059365Y0094762D01*
X0060157Y0095035D01*
X0060949Y0095303D01*
X0061744Y0095564D01*
X0062542Y0095820D01*
X0063341Y0096070D01*
X0064144Y0096315D01*
X0064947Y0096555D01*
X0065754Y0096790D01*
X0066561Y0097019D01*
X0067373Y0097245D01*
X0068184Y0097465D01*
X0068999Y0097682D01*
X0069815Y0097894D01*
X0070632Y0098102D01*
X0071450Y0098305D01*
X0072271Y0098505D01*
X0073092Y0098700D01*
X0073914Y0098892D01*
X0074741Y0099080D01*
X0075566Y0099264D01*
X0076392Y0099444D01*
X0077219Y0099620D01*
X0078047Y0099793D01*
X0078876Y0099963D01*
X0079709Y0100130D01*
X0080537Y0100292D01*
X0081371Y0100453D01*
X0082201Y0100609D01*
X0083036Y0100763D01*
X0083866Y0100913D01*
X0084702Y0101062D01*
X0085533Y0101206D01*
X0086371Y0101348D01*
X0087203Y0101487D01*
X0088040Y0101624D01*
X0088874Y0101757D01*
X0089709Y0101888D01*
X0090544Y0102016D01*
X0091380Y0102142D01*
X0092219Y0102265D01*
X0093055Y0102386D01*
X0093892Y0102504D01*
X0094733Y0102620D01*
X0095569Y0102734D01*
X0096410Y0102846D01*
X0097245Y0102954D01*
X0098085Y0103062D01*
X0098922Y0103166D01*
X0099768Y0103270D01*
X0100603Y0103370D01*
X0101443Y0103469D01*
X0102284Y0103566D01*
X0103126Y0103661D01*
X0103969Y0103754D01*
X0104808Y0103845D01*
X0105648Y0103933D01*
X0106491Y0104021D01*
X0107329Y0104105D01*
X0108176Y0104189D01*
X0109021Y0104271D01*
X0109860Y0104350D01*
X0110700Y0104428D01*
X0111544Y0104504D01*
X0112391Y0104579D01*
X0113236Y0104652D01*
X0114074Y0104722D01*
X0114918Y0104792D01*
X0115764Y0104859D01*
X0116604Y0104925D01*
X0117452Y0104990D01*
X0118297Y0105053D01*
X0118551Y0105071D01*
X0118419Y0085972D01*
X0116881Y0088053D01*
X0116881Y0088214D01*
X0116427Y0088668D01*
X0116045Y0089185D01*
X0115886Y0089209D01*
X0115773Y0089322D01*
X0115130Y0089322D01*
X0114495Y0089417D01*
X0114366Y0089322D01*
X0106331Y0089322D01*
X0105223Y0088214D01*
X0105223Y0083121D01*
X0104440Y0083121D01*
X0104440Y0086057D01*
X0103620Y0086877D01*
X0102863Y0086877D01*
X0096015Y0093725D01*
X0094907Y0094834D01*
X0092544Y0094834D01*
X0091291Y0096088D01*
X0090182Y0097196D01*
X0079166Y0097196D01*
X0078057Y0096088D01*
X0070898Y0088928D01*
X0069790Y0087820D01*
X0069790Y0060451D01*
X0069785Y0060446D01*
X0069790Y0059668D01*
X0069790Y0058890D01*
X0069795Y0058885D01*
X0069804Y0057327D01*
X0071041Y0052823D01*
X0073402Y0048793D01*
X0073402Y0048793D01*
X0076725Y0045510D01*
X0080784Y0043200D01*
X0080784Y0043200D01*
X0085303Y0042019D01*
X0087632Y0042034D01*
X0088333Y0042034D01*
X0088804Y0041563D01*
X0089828Y0041139D01*
X0090937Y0041139D01*
X0091962Y0041563D01*
X0092746Y0042347D01*
X0093170Y0043372D01*
X0093170Y0044480D01*
X0092746Y0045505D01*
X0091962Y0046289D01*
X0090937Y0046713D01*
X0089828Y0046713D01*
X0088804Y0046289D01*
X0088337Y0045823D01*
X0087622Y0045818D01*
X0087614Y0045818D01*
X0085793Y0045926D01*
X0085793Y0045926D01*
X0082268Y0046847D01*
X0079102Y0048649D01*
X0076510Y0051209D01*
X0074669Y0054352D01*
X0073705Y0057865D01*
X0073574Y0059685D01*
X0073574Y0086252D01*
X0080733Y0093412D01*
X0086427Y0093412D01*
X0085947Y0093256D01*
X0085334Y0092943D01*
X0084777Y0092538D01*
X0084290Y0092052D01*
X0083885Y0091494D01*
X0083572Y0090881D01*
X0083360Y0090226D01*
X0083252Y0089546D01*
X0083252Y0089202D01*
X0087627Y0089202D01*
X0092002Y0089202D01*
X0092002Y0089546D01*
X0091894Y0090226D01*
X0091681Y0090881D01*
X0091595Y0091050D01*
X0093339Y0091050D01*
X0097986Y0086403D01*
X0097640Y0086057D01*
X0097640Y0083121D01*
X0091602Y0083121D01*
X0091602Y0084482D01*
X0090781Y0085302D01*
X0089610Y0085302D01*
X0089920Y0085460D01*
X0090477Y0085865D01*
X0090964Y0086352D01*
X0091368Y0086909D01*
X0091681Y0087522D01*
X0091894Y0088177D01*
X0092002Y0088857D01*
X0092002Y0089202D01*
X0087627Y0089202D01*
X0087627Y0089202D01*
X0087627Y0089202D01*
X0083252Y0089202D01*
X0083252Y0088857D01*
X0083360Y0088177D01*
X0083572Y0087522D01*
X0083885Y0086909D01*
X0084290Y0086352D01*
X0084777Y0085865D01*
X0085334Y0085460D01*
X0085643Y0085302D01*
X0084472Y0085302D01*
X0083652Y0084482D01*
X0083652Y0078173D01*
X0084472Y0077353D01*
X0090781Y0077353D01*
X0091602Y0078173D01*
X0091602Y0078353D01*
X0097640Y0078353D01*
X0097640Y0078338D01*
X0093766Y0077680D01*
X0093142Y0077680D01*
X0093015Y0077553D01*
X0092836Y0077522D01*
X0092475Y0077013D01*
X0092034Y0076572D01*
X0092034Y0076391D01*
X0091929Y0076244D01*
X0092034Y0075629D01*
X0092034Y0069735D01*
X0090787Y0069735D01*
X0089967Y0068915D01*
X0089967Y0066181D01*
X0090568Y0065580D01*
X0089967Y0064978D01*
X0089967Y0062244D01*
X0090375Y0061836D01*
X0089988Y0061450D01*
X0089564Y0060425D01*
X0089564Y0059316D01*
X0089988Y0058292D01*
X0090772Y0057508D01*
X0091797Y0057083D01*
X0092906Y0057083D01*
X0093930Y0057508D01*
X0094002Y0057580D01*
X0094002Y0057315D01*
X0101804Y0049514D01*
X0105912Y0049514D01*
X0105912Y0048858D01*
X0106732Y0048038D01*
X0111041Y0048038D01*
X0111861Y0048858D01*
X0111861Y0053451D01*
X0112040Y0053451D01*
X0115262Y0050229D01*
X0116371Y0049120D01*
X0117114Y0049120D01*
X0113319Y0045326D01*
X0110472Y0045326D01*
X0109652Y0044506D01*
X0109652Y0039409D01*
X0110472Y0038589D01*
X0114781Y0038589D01*
X0115602Y0039409D01*
X0115602Y0042256D01*
X0119710Y0046365D01*
X0156134Y0046365D01*
X0160071Y0042428D01*
X0165970Y0042428D01*
X0177387Y0053845D01*
X0180612Y0053845D01*
X0180539Y0053773D01*
X0180115Y0052748D01*
X0180115Y0052082D01*
X0176397Y0048364D01*
X0176345Y0048364D01*
X0174133Y0046152D01*
X0174133Y0044993D01*
X0176067Y0043059D01*
X0176608Y0043059D01*
X0175528Y0041980D01*
X0158218Y0041980D01*
X0158131Y0042067D01*
X0158131Y0042512D01*
X0157706Y0043536D01*
X0156922Y0044321D01*
X0155898Y0044745D01*
X0154789Y0044745D01*
X0153816Y0044342D01*
X0126735Y0044342D01*
X0125124Y0044521D01*
X0121711Y0043720D01*
X0118763Y0041825D01*
X0118763Y0041825D01*
X0118763Y0041825D01*
X0116617Y0039052D01*
X0116379Y0038325D01*
X0116379Y0038325D01*
X0116070Y0037387D01*
X0115724Y0036565D01*
X0114660Y0035141D01*
X0113197Y0034131D01*
X0112362Y0033816D01*
X0110062Y0033243D01*
X0105367Y0032599D01*
X0102998Y0032531D01*
X0102998Y0032531D01*
X0099614Y0032687D01*
X0092936Y0033795D01*
X0086513Y0035935D01*
X0080506Y0039056D01*
X0075063Y0043080D01*
X0072595Y0045401D01*
X0071489Y0046590D01*
X0069484Y0049142D01*
X0068590Y0050497D01*
X0068590Y0050498D01*
X0067747Y0051857D01*
X0071607Y0051857D01*
X0071041Y0052823D02*
X0071041Y0052823D01*
X0070868Y0053455D02*
X0065506Y0053455D01*
X0065142Y0053715D02*
X0065142Y0053715D01*
X0067747Y0051857D01*
X0067747Y0051857D01*
X0067747Y0051857D01*
X0068748Y0050258D02*
X0072543Y0050258D01*
X0073536Y0048660D02*
X0069862Y0048660D01*
X0071118Y0047061D02*
X0075155Y0047061D01*
X0076725Y0045510D02*
X0076725Y0045510D01*
X0076809Y0045463D02*
X0072537Y0045463D01*
X0072595Y0045401D02*
X0072595Y0045401D01*
X0074229Y0043864D02*
X0079617Y0043864D01*
X0076165Y0042266D02*
X0084361Y0042266D01*
X0080490Y0039069D02*
X0102025Y0039069D01*
X0102131Y0038884D02*
X0102466Y0038549D01*
X0102877Y0038312D01*
X0103335Y0038189D01*
X0105146Y0038189D01*
X0105146Y0041957D01*
X0105147Y0041957D01*
X0105147Y0041958D01*
X0108521Y0041958D01*
X0108521Y0044163D01*
X0108399Y0044621D01*
X0108162Y0045031D01*
X0107826Y0045366D01*
X0107416Y0045603D01*
X0106958Y0045726D01*
X0105147Y0045726D01*
X0105147Y0041958D01*
X0105146Y0041958D01*
X0105146Y0045726D01*
X0103335Y0045726D01*
X0102877Y0045603D01*
X0102466Y0045366D01*
X0102131Y0045031D01*
X0101894Y0044621D01*
X0101772Y0044163D01*
X0101772Y0041958D01*
X0105146Y0041958D01*
X0105146Y0041957D01*
X0101772Y0041957D01*
X0101772Y0039752D01*
X0101894Y0039294D01*
X0102131Y0038884D01*
X0101772Y0040667D02*
X0078327Y0040667D01*
X0074406Y0037470D02*
X0052685Y0037470D01*
X0049362Y0039069D02*
X0072243Y0039069D01*
X0071838Y0039368D02*
X0071838Y0039368D01*
X0070561Y0040667D02*
X0050476Y0040667D01*
X0049969Y0040457D02*
X0051678Y0041165D01*
X0052986Y0042473D01*
X0053694Y0044182D01*
X0053694Y0046032D01*
X0052986Y0047741D01*
X0051683Y0049044D01*
X0052986Y0050347D01*
X0053694Y0052056D01*
X0053694Y0053906D01*
X0052986Y0055615D01*
X0051683Y0056918D01*
X0052163Y0057398D01*
X0053943Y0055618D01*
X0053943Y0052075D01*
X0055225Y0050794D01*
X0056406Y0049613D01*
X0057519Y0049613D01*
X0057811Y0049321D01*
X0057781Y0049303D01*
X0057446Y0048968D01*
X0057209Y0048558D01*
X0057087Y0048100D01*
X0057087Y0046288D01*
X0057087Y0047061D02*
X0053268Y0047061D01*
X0052068Y0048660D02*
X0057268Y0048660D01*
X0055760Y0050258D02*
X0052897Y0050258D01*
X0053611Y0051857D02*
X0054162Y0051857D01*
X0053943Y0053455D02*
X0053694Y0053455D01*
X0053943Y0055054D02*
X0053219Y0055054D01*
X0052909Y0056652D02*
X0051949Y0056652D01*
X0055899Y0059849D02*
X0059554Y0059849D01*
X0059554Y0058968D02*
X0059083Y0058497D01*
X0058658Y0057473D01*
X0058658Y0056364D01*
X0059083Y0055339D01*
X0059647Y0054775D01*
X0058318Y0054775D01*
X0058318Y0057430D01*
X0053987Y0061761D01*
X0053500Y0062248D01*
X0052986Y0063489D01*
X0052740Y0063735D01*
X0052989Y0063802D01*
X0053399Y0064039D01*
X0053734Y0064374D01*
X0053971Y0064784D01*
X0054094Y0065242D01*
X0054094Y0068654D01*
X0049119Y0068654D01*
X0049119Y0068804D01*
X0054094Y0068804D01*
X0054094Y0072216D01*
X0053971Y0072674D01*
X0053734Y0073084D01*
X0053399Y0073420D01*
X0052989Y0073656D01*
X0052531Y0073779D01*
X0049119Y0073779D01*
X0049119Y0068804D01*
X0048969Y0068804D01*
X0048969Y0068654D01*
X0043994Y0068654D01*
X0043994Y0065242D01*
X0044117Y0064784D01*
X0044354Y0064374D01*
X0044689Y0064039D01*
X0045099Y0063802D01*
X0045348Y0063735D01*
X0045102Y0063489D01*
X0044394Y0061780D01*
X0044394Y0059930D01*
X0045102Y0058221D01*
X0046405Y0056918D01*
X0045102Y0055615D01*
X0044394Y0053906D01*
X0044394Y0052056D01*
X0045102Y0050347D01*
X0046405Y0049044D01*
X0045102Y0047741D01*
X0044394Y0046032D01*
X0044394Y0044182D01*
X0045102Y0042473D01*
X0046410Y0041165D01*
X0048119Y0040457D01*
X0049969Y0040457D01*
X0047612Y0040667D02*
X0046501Y0040667D01*
X0045309Y0042266D02*
X0044720Y0042266D01*
X0044526Y0043864D02*
X0043958Y0043864D01*
X0043757Y0045463D02*
X0044394Y0045463D01*
X0044820Y0047061D02*
X0043757Y0047061D01*
X0043757Y0048660D02*
X0046021Y0048660D01*
X0045191Y0050258D02*
X0043757Y0050258D01*
X0043757Y0051857D02*
X0044477Y0051857D01*
X0044394Y0053455D02*
X0043757Y0053455D01*
X0043757Y0055054D02*
X0044870Y0055054D01*
X0043757Y0056652D02*
X0046139Y0056652D01*
X0045090Y0058251D02*
X0043757Y0058251D01*
X0043757Y0059849D02*
X0044428Y0059849D01*
X0044394Y0061448D02*
X0043757Y0061448D01*
X0043757Y0063046D02*
X0044919Y0063046D01*
X0044197Y0064645D02*
X0043757Y0064645D01*
X0043757Y0066243D02*
X0043994Y0066243D01*
X0043994Y0067842D02*
X0043757Y0067842D01*
X0043994Y0068804D02*
X0048969Y0068804D01*
X0048969Y0073779D01*
X0045557Y0073779D01*
X0045099Y0073656D01*
X0044689Y0073420D01*
X0044354Y0073084D01*
X0044117Y0072674D01*
X0043994Y0072216D01*
X0043994Y0068804D01*
X0043994Y0069440D02*
X0043757Y0069440D01*
X0043757Y0071039D02*
X0043994Y0071039D01*
X0044107Y0072637D02*
X0043757Y0072637D01*
X0043757Y0074236D02*
X0059554Y0074236D01*
X0059554Y0075834D02*
X0043757Y0075834D01*
X0043757Y0077433D02*
X0059554Y0077433D01*
X0059554Y0079031D02*
X0043757Y0079031D01*
X0043757Y0080630D02*
X0059554Y0080630D01*
X0059554Y0082228D02*
X0043757Y0082228D01*
X0043757Y0083827D02*
X0059554Y0083827D01*
X0059554Y0084986D02*
X0059554Y0058968D01*
X0058981Y0058251D02*
X0057498Y0058251D01*
X0058318Y0056652D02*
X0058658Y0056652D01*
X0063338Y0058968D02*
X0063338Y0084986D01*
X0063809Y0085457D01*
X0064233Y0086482D01*
X0064233Y0087591D01*
X0063809Y0088615D01*
X0063025Y0089399D01*
X0062000Y0089824D01*
X0060891Y0089824D01*
X0059867Y0089399D01*
X0059083Y0088615D01*
X0058658Y0087591D01*
X0058658Y0086482D01*
X0059083Y0085457D01*
X0059554Y0084986D01*
X0059114Y0085425D02*
X0043882Y0085425D01*
X0044522Y0087024D02*
X0058658Y0087024D01*
X0059090Y0088623D02*
X0046021Y0088623D01*
X0048783Y0090221D02*
X0072191Y0090221D01*
X0070898Y0088928D02*
X0070898Y0088928D01*
X0070592Y0088623D02*
X0063801Y0088623D01*
X0064233Y0087024D02*
X0069790Y0087024D01*
X0069790Y0085425D02*
X0063777Y0085425D01*
X0063338Y0083827D02*
X0069790Y0083827D01*
X0069790Y0082228D02*
X0063338Y0082228D01*
X0063338Y0080630D02*
X0069790Y0080630D01*
X0069790Y0079031D02*
X0063338Y0079031D01*
X0063338Y0077433D02*
X0069790Y0077433D01*
X0069790Y0075834D02*
X0063338Y0075834D01*
X0063338Y0074236D02*
X0069790Y0074236D01*
X0069790Y0072637D02*
X0063338Y0072637D01*
X0063338Y0071039D02*
X0069790Y0071039D01*
X0069790Y0069440D02*
X0063338Y0069440D01*
X0059554Y0069440D02*
X0054094Y0069440D01*
X0054094Y0071039D02*
X0059554Y0071039D01*
X0059554Y0072637D02*
X0053981Y0072637D01*
X0049119Y0072637D02*
X0048969Y0072637D01*
X0048969Y0071039D02*
X0049119Y0071039D01*
X0049119Y0069440D02*
X0048969Y0069440D01*
X0054094Y0067842D02*
X0059554Y0067842D01*
X0059554Y0066243D02*
X0054094Y0066243D01*
X0053891Y0064645D02*
X0059554Y0064645D01*
X0059554Y0063046D02*
X0053170Y0063046D01*
X0054301Y0061448D02*
X0059554Y0061448D01*
X0063338Y0061448D02*
X0069790Y0061448D01*
X0069790Y0063046D02*
X0063338Y0063046D01*
X0063338Y0064645D02*
X0069790Y0064645D01*
X0069790Y0066243D02*
X0063338Y0066243D01*
X0063338Y0067842D02*
X0069790Y0067842D01*
X0073574Y0067842D02*
X0076033Y0067842D01*
X0076010Y0067819D02*
X0075197Y0065855D01*
X0075197Y0063729D01*
X0076010Y0061765D01*
X0077513Y0060262D01*
X0079477Y0059449D01*
X0081603Y0059449D01*
X0083567Y0060262D01*
X0085070Y0061765D01*
X0085883Y0063729D01*
X0085883Y0065855D01*
X0085070Y0067819D01*
X0083567Y0069322D01*
X0081603Y0070135D01*
X0079477Y0070135D01*
X0077513Y0069322D01*
X0076010Y0067819D01*
X0075358Y0066243D02*
X0073574Y0066243D01*
X0073574Y0064645D02*
X0075197Y0064645D01*
X0075480Y0063046D02*
X0073574Y0063046D01*
X0073574Y0061448D02*
X0076328Y0061448D01*
X0078510Y0059849D02*
X0073574Y0059849D01*
X0073677Y0058251D02*
X0090029Y0058251D01*
X0089564Y0059849D02*
X0082570Y0059849D01*
X0084752Y0061448D02*
X0089987Y0061448D01*
X0089967Y0063046D02*
X0085601Y0063046D01*
X0085883Y0064645D02*
X0089967Y0064645D01*
X0089967Y0066243D02*
X0085723Y0066243D01*
X0085047Y0067842D02*
X0089967Y0067842D01*
X0090492Y0069440D02*
X0083281Y0069440D01*
X0077799Y0069440D02*
X0073574Y0069440D01*
X0073574Y0071039D02*
X0092034Y0071039D01*
X0092034Y0072637D02*
X0073574Y0072637D01*
X0073574Y0074236D02*
X0092034Y0074236D01*
X0091999Y0075834D02*
X0073574Y0075834D01*
X0073574Y0077433D02*
X0084392Y0077433D01*
X0083652Y0079031D02*
X0073574Y0079031D01*
X0073574Y0080630D02*
X0083652Y0080630D01*
X0083652Y0082228D02*
X0073574Y0082228D01*
X0073574Y0083827D02*
X0083652Y0083827D01*
X0085401Y0085425D02*
X0073574Y0085425D01*
X0074346Y0087024D02*
X0083826Y0087024D01*
X0083289Y0088623D02*
X0075944Y0088623D01*
X0077543Y0090221D02*
X0083359Y0090221D01*
X0084121Y0091820D02*
X0079141Y0091820D01*
X0073789Y0091820D02*
X0052019Y0091820D01*
X0055763Y0093418D02*
X0075388Y0093418D01*
X0076986Y0095017D02*
X0060102Y0095017D01*
X0065155Y0096615D02*
X0078585Y0096615D01*
X0078138Y0099812D02*
X0118515Y0099812D01*
X0118504Y0098214D02*
X0071081Y0098214D01*
X0086745Y0101411D02*
X0118526Y0101411D01*
X0118537Y0103009D02*
X0097673Y0103009D01*
X0090763Y0096615D02*
X0118493Y0096615D01*
X0118482Y0095017D02*
X0092362Y0095017D01*
X0096322Y0093418D02*
X0118471Y0093418D01*
X0118460Y0091820D02*
X0097921Y0091820D01*
X0099519Y0090221D02*
X0118449Y0090221D01*
X0118438Y0088623D02*
X0116472Y0088623D01*
X0117642Y0087024D02*
X0118427Y0087024D01*
X0105632Y0088623D02*
X0101118Y0088623D01*
X0102716Y0087024D02*
X0105223Y0087024D01*
X0105223Y0085425D02*
X0104440Y0085425D01*
X0104440Y0083827D02*
X0105223Y0083827D01*
X0097640Y0083827D02*
X0091602Y0083827D01*
X0089852Y0085425D02*
X0097640Y0085425D01*
X0097365Y0087024D02*
X0091427Y0087024D01*
X0091964Y0088623D02*
X0095766Y0088623D01*
X0094168Y0090221D02*
X0091895Y0090221D01*
X0104440Y0078353D02*
X0105223Y0078353D01*
X0105223Y0074603D01*
X0105115Y0073995D01*
X0105223Y0073841D01*
X0105223Y0073654D01*
X0105660Y0073217D01*
X0105946Y0072809D01*
X0104950Y0072809D01*
X0104950Y0069025D01*
X0104950Y0069025D01*
X0104950Y0069024D02*
X0110718Y0069024D01*
X0104950Y0069024D01*
X0104950Y0069024D01*
X0104950Y0065240D01*
X0107307Y0065240D01*
X0108038Y0065386D01*
X0108726Y0065671D01*
X0109346Y0066085D01*
X0109873Y0066612D01*
X0110287Y0067232D01*
X0110573Y0067921D01*
X0110718Y0068652D01*
X0110718Y0069024D01*
X0110718Y0069397D01*
X0110573Y0070128D01*
X0110287Y0070817D01*
X0109873Y0071437D01*
X0109346Y0071964D01*
X0109023Y0072180D01*
X0116238Y0070906D01*
X0116371Y0070774D01*
X0116989Y0070774D01*
X0117597Y0070667D01*
X0117751Y0070774D01*
X0121641Y0070774D01*
X0121374Y0070128D01*
X0121228Y0069397D01*
X0121228Y0069024D01*
X0121228Y0068652D01*
X0121374Y0067921D01*
X0121659Y0067232D01*
X0122073Y0066612D01*
X0122600Y0066085D01*
X0123220Y0065671D01*
X0123909Y0065386D01*
X0124640Y0065240D01*
X0126997Y0065240D01*
X0129354Y0065240D01*
X0130085Y0065386D01*
X0130774Y0065671D01*
X0131393Y0066085D01*
X0131921Y0066612D01*
X0132335Y0067232D01*
X0132620Y0067921D01*
X0132765Y0068652D01*
X0132765Y0069024D01*
X0126997Y0069024D01*
X0126997Y0065240D01*
X0126997Y0069024D01*
X0126997Y0069024D01*
X0126997Y0069024D01*
X0121228Y0069024D01*
X0126997Y0069024D01*
X0126997Y0069024D01*
X0132765Y0069024D01*
X0132765Y0069397D01*
X0132620Y0070128D01*
X0132352Y0070774D01*
X0141345Y0070774D01*
X0141345Y0070511D01*
X0142165Y0069691D01*
X0146474Y0069691D01*
X0146799Y0070016D01*
X0146816Y0069986D01*
X0147151Y0069651D01*
X0147562Y0069414D01*
X0148020Y0069291D01*
X0149831Y0069291D01*
X0149831Y0073060D01*
X0149831Y0076828D01*
X0148020Y0076828D01*
X0147787Y0076766D01*
X0147787Y0081120D01*
X0146999Y0081907D01*
X0146999Y0083300D01*
X0147228Y0083528D01*
X0147781Y0084074D01*
X0147781Y0084082D01*
X0147787Y0084087D01*
X0147787Y0084864D01*
X0147788Y0085039D01*
X0149044Y0085039D01*
X0149044Y0088808D01*
X0149044Y0088808D01*
X0149044Y0085039D01*
X0150364Y0085039D01*
X0150822Y0085162D01*
X0151232Y0085399D01*
X0151272Y0085439D01*
X0154447Y0085439D01*
X0155267Y0086259D01*
X0155267Y0086916D01*
X0159061Y0086916D01*
X0159061Y0085472D01*
X0159882Y0084652D01*
X0162616Y0084652D01*
X0162941Y0084977D01*
X0162958Y0084947D01*
X0163293Y0084612D01*
X0163704Y0084375D01*
X0164161Y0084252D01*
X0165186Y0084252D01*
X0166210Y0084252D01*
X0166668Y0084375D01*
X0167078Y0084612D01*
X0167414Y0084947D01*
X0167651Y0085357D01*
X0167773Y0085815D01*
X0167773Y0087036D01*
X0165186Y0087036D01*
X0165186Y0087036D01*
X0165186Y0084252D01*
X0165186Y0087036D01*
X0165186Y0087036D01*
X0167773Y0087036D01*
X0167773Y0088257D01*
X0167651Y0088715D01*
X0167414Y0089126D01*
X0167373Y0089166D01*
X0167373Y0092144D01*
X0167078Y0092439D01*
X0167078Y0092460D01*
X0167373Y0092756D01*
X0167373Y0093609D01*
X0168904Y0093609D01*
X0168904Y0075948D01*
X0170185Y0074666D01*
X0175060Y0069792D01*
X0175060Y0069513D01*
X0175525Y0069048D01*
X0175525Y0062186D01*
X0175587Y0062124D01*
X0175587Y0061875D01*
X0176012Y0060851D01*
X0176478Y0060385D01*
X0161533Y0060385D01*
X0161041Y0060877D01*
X0158307Y0060877D01*
X0157705Y0060276D01*
X0157104Y0060877D01*
X0154777Y0060877D01*
X0156869Y0062970D01*
X0156869Y0064792D01*
X0152469Y0064792D01*
X0148069Y0064792D01*
X0148069Y0062970D01*
X0150647Y0060392D01*
X0152469Y0060392D01*
X0152469Y0064792D01*
X0152469Y0064792D01*
X0152469Y0064792D01*
X0148069Y0064792D01*
X0148069Y0066615D01*
X0150647Y0069192D01*
X0152469Y0069192D01*
X0152469Y0064792D01*
X0152469Y0064792D01*
X0152469Y0060392D01*
X0153885Y0060392D01*
X0153878Y0060385D01*
X0149552Y0060385D01*
X0146469Y0063468D01*
X0146469Y0066449D01*
X0144126Y0068792D01*
X0140812Y0068792D01*
X0138469Y0066449D01*
X0138469Y0063135D01*
X0140812Y0060792D01*
X0143793Y0060792D01*
X0146876Y0057709D01*
X0147985Y0056601D01*
X0153878Y0056601D01*
X0154370Y0056109D01*
X0157104Y0056109D01*
X0157705Y0056710D01*
X0158307Y0056109D01*
X0161041Y0056109D01*
X0161533Y0056601D01*
X0174791Y0056601D01*
X0174711Y0056521D01*
X0164402Y0046212D01*
X0163039Y0046212D01*
X0163221Y0046287D01*
X0164006Y0047071D01*
X0164430Y0048096D01*
X0164430Y0049205D01*
X0164006Y0050229D01*
X0163221Y0051013D01*
X0162197Y0051438D01*
X0161531Y0051438D01*
X0161172Y0051796D01*
X0160064Y0052905D01*
X0117938Y0052905D01*
X0114716Y0056127D01*
X0114067Y0056776D01*
X0115973Y0056776D01*
X0115973Y0060560D01*
X0115973Y0060560D01*
X0110205Y0060560D01*
X0110205Y0060933D01*
X0110350Y0061664D01*
X0110635Y0062352D01*
X0111050Y0062972D01*
X0111577Y0063499D01*
X0112196Y0063913D01*
X0112885Y0064199D01*
X0113616Y0064344D01*
X0115973Y0064344D01*
X0115973Y0060560D01*
X0115973Y0060560D01*
X0110205Y0060560D01*
X0110205Y0060187D01*
X0110350Y0059456D01*
X0110635Y0058767D01*
X0111050Y0058148D01*
X0111577Y0057620D01*
X0112153Y0057235D01*
X0108096Y0057235D01*
X0103406Y0061925D01*
X0103406Y0062591D01*
X0102982Y0063615D01*
X0102198Y0064399D01*
X0101173Y0064824D01*
X0100064Y0064824D01*
X0099040Y0064399D01*
X0098256Y0063615D01*
X0097831Y0062591D01*
X0097831Y0061482D01*
X0098256Y0060457D01*
X0099040Y0059673D01*
X0100064Y0059249D01*
X0100730Y0059249D01*
X0105968Y0054011D01*
X0105912Y0053955D01*
X0105912Y0053298D01*
X0103371Y0053298D01*
X0097787Y0058883D01*
X0097787Y0066363D01*
X0095818Y0068332D01*
X0095818Y0074190D01*
X0098424Y0074633D01*
X0098460Y0074597D01*
X0103620Y0074597D01*
X0104440Y0075417D01*
X0104440Y0078353D01*
X0104440Y0077433D02*
X0105223Y0077433D01*
X0105223Y0075834D02*
X0104440Y0075834D01*
X0105158Y0074236D02*
X0096086Y0074236D01*
X0095818Y0072637D02*
X0101799Y0072637D01*
X0101862Y0072663D02*
X0101173Y0072378D01*
X0100553Y0071964D01*
X0100026Y0071437D01*
X0099612Y0070817D01*
X0099327Y0070128D01*
X0099181Y0069397D01*
X0099181Y0069024D01*
X0099181Y0068652D01*
X0099327Y0067921D01*
X0099612Y0067232D01*
X0100026Y0066612D01*
X0100553Y0066085D01*
X0101173Y0065671D01*
X0101862Y0065386D01*
X0102593Y0065240D01*
X0104950Y0065240D01*
X0104950Y0069024D01*
X0104950Y0069024D01*
X0104949Y0069024D02*
X0099181Y0069024D01*
X0104949Y0069024D01*
X0104949Y0069024D01*
X0104950Y0069025D02*
X0104950Y0072809D01*
X0102593Y0072809D01*
X0101862Y0072663D01*
X0099760Y0071039D02*
X0095818Y0071039D01*
X0095818Y0069440D02*
X0099190Y0069440D01*
X0104950Y0069440D02*
X0104950Y0069440D01*
X0104950Y0071039D02*
X0104950Y0071039D01*
X0104950Y0072637D02*
X0104950Y0072637D01*
X0110139Y0071039D02*
X0115488Y0071039D01*
X0110709Y0069440D02*
X0121237Y0069440D01*
X0121406Y0067842D02*
X0110540Y0067842D01*
X0109505Y0066243D02*
X0122442Y0066243D01*
X0120370Y0063499D02*
X0119750Y0063913D01*
X0119061Y0064199D01*
X0118330Y0064344D01*
X0115973Y0064344D01*
X0115973Y0060560D01*
X0115973Y0060560D01*
X0121742Y0060560D01*
X0121742Y0060933D01*
X0121596Y0061664D01*
X0121311Y0062352D01*
X0120897Y0062972D01*
X0120370Y0063499D01*
X0120823Y0063046D02*
X0138558Y0063046D01*
X0138469Y0064645D02*
X0101605Y0064645D01*
X0099633Y0064645D02*
X0097787Y0064645D01*
X0097787Y0066243D02*
X0100395Y0066243D01*
X0099359Y0067842D02*
X0096308Y0067842D01*
X0104950Y0067842D02*
X0104950Y0067842D01*
X0104950Y0066243D02*
X0104950Y0066243D01*
X0103218Y0063046D02*
X0111124Y0063046D01*
X0110307Y0061448D02*
X0103883Y0061448D01*
X0105482Y0059849D02*
X0110272Y0059849D01*
X0110981Y0058251D02*
X0107080Y0058251D01*
X0103327Y0056652D02*
X0100017Y0056652D01*
X0098419Y0058251D02*
X0101728Y0058251D01*
X0098864Y0059849D02*
X0097787Y0059849D01*
X0097787Y0061448D02*
X0097846Y0061448D01*
X0097787Y0063046D02*
X0098020Y0063046D01*
X0094666Y0056652D02*
X0074038Y0056652D01*
X0074477Y0055054D02*
X0096264Y0055054D01*
X0097863Y0053455D02*
X0075195Y0053455D01*
X0076131Y0051857D02*
X0099461Y0051857D01*
X0101060Y0050258D02*
X0077473Y0050258D01*
X0079091Y0048660D02*
X0106110Y0048660D01*
X0105147Y0045463D02*
X0105146Y0045463D01*
X0105146Y0043864D02*
X0105147Y0043864D01*
X0107660Y0045463D02*
X0113456Y0045463D01*
X0115055Y0047061D02*
X0081892Y0047061D01*
X0092763Y0045463D02*
X0102633Y0045463D01*
X0101772Y0043864D02*
X0093170Y0043864D01*
X0092664Y0042266D02*
X0101772Y0042266D01*
X0105146Y0042266D02*
X0105147Y0042266D01*
X0105147Y0041957D02*
X0108521Y0041957D01*
X0108521Y0039752D01*
X0108399Y0039294D01*
X0108162Y0038884D01*
X0107826Y0038549D01*
X0107416Y0038312D01*
X0106958Y0038189D01*
X0105147Y0038189D01*
X0105147Y0041957D01*
X0105146Y0040667D02*
X0105147Y0040667D01*
X0105146Y0039069D02*
X0105147Y0039069D01*
X0108268Y0039069D02*
X0109992Y0039069D01*
X0109652Y0040667D02*
X0108521Y0040667D01*
X0108521Y0042266D02*
X0109652Y0042266D01*
X0109652Y0043864D02*
X0108521Y0043864D01*
X0115611Y0042266D02*
X0119449Y0042266D01*
X0117867Y0040667D02*
X0115602Y0040667D01*
X0115261Y0039069D02*
X0116630Y0039069D01*
X0116098Y0037470D02*
X0083559Y0037470D01*
X0086705Y0035872D02*
X0115206Y0035872D01*
X0113403Y0034273D02*
X0091500Y0034273D01*
X0085591Y0031076D02*
X0072308Y0031076D01*
X0066197Y0032675D02*
X0082158Y0032675D01*
X0079081Y0034273D02*
X0060995Y0034273D01*
X0056533Y0035872D02*
X0076568Y0035872D01*
X0069194Y0042058D02*
X0069194Y0042058D01*
X0068990Y0042266D02*
X0052779Y0042266D01*
X0053562Y0043864D02*
X0057298Y0043864D01*
X0060855Y0043864D02*
X0060855Y0043864D01*
X0060855Y0045463D02*
X0060855Y0045463D01*
X0064624Y0045463D02*
X0066253Y0045463D01*
X0065534Y0046378D02*
X0065534Y0046378D01*
X0065110Y0047061D02*
X0064624Y0047061D01*
X0064412Y0043864D02*
X0067509Y0043864D01*
X0068502Y0042762D02*
X0068502Y0042762D01*
X0065142Y0053715D02*
X0064224Y0053924D01*
X0064224Y0053955D01*
X0063404Y0054775D01*
X0063244Y0054775D01*
X0063809Y0055339D01*
X0064233Y0056364D01*
X0064233Y0057473D01*
X0063809Y0058497D01*
X0063338Y0058968D01*
X0063338Y0059849D02*
X0069789Y0059849D01*
X0069799Y0058251D02*
X0063911Y0058251D01*
X0064233Y0056652D02*
X0069990Y0056652D01*
X0069804Y0057327D02*
X0069804Y0057327D01*
X0070429Y0055054D02*
X0063523Y0055054D01*
X0059368Y0055054D02*
X0058318Y0055054D01*
X0101616Y0055054D02*
X0104925Y0055054D01*
X0105912Y0053455D02*
X0103214Y0053455D01*
X0111861Y0051857D02*
X0113634Y0051857D01*
X0115233Y0050258D02*
X0111861Y0050258D01*
X0111663Y0048660D02*
X0116653Y0048660D01*
X0118808Y0045463D02*
X0157036Y0045463D01*
X0157379Y0043864D02*
X0158635Y0043864D01*
X0158131Y0042266D02*
X0175814Y0042266D01*
X0180011Y0040275D02*
X0180011Y0040275D01*
X0180403Y0040667D02*
X0189957Y0040667D01*
X0190990Y0039069D02*
X0178804Y0039069D01*
X0183782Y0036745D02*
X0184240Y0036868D01*
X0185264Y0036868D01*
X0185264Y0034084D01*
X0185265Y0034084D01*
X0185265Y0036868D01*
X0186289Y0036868D01*
X0186747Y0036745D01*
X0187157Y0036508D01*
X0187492Y0036173D01*
X0187510Y0036143D01*
X0187834Y0036468D01*
X0190569Y0036468D01*
X0191061Y0035976D01*
X0193451Y0035976D01*
X0193922Y0036446D01*
X0194946Y0036871D01*
X0196055Y0036871D01*
X0197080Y0036446D01*
X0197864Y0035662D01*
X0198288Y0034638D01*
X0198288Y0033529D01*
X0197864Y0032505D01*
X0197080Y0031720D01*
X0196055Y0031296D01*
X0195389Y0031296D01*
X0192623Y0028530D01*
X0178225Y0028530D01*
X0177984Y0027947D01*
X0176755Y0026719D01*
X0175149Y0026054D01*
X0173411Y0026054D01*
X0171806Y0026719D01*
X0170577Y0027947D01*
X0169912Y0029553D01*
X0169912Y0031291D01*
X0170577Y0032897D01*
X0171806Y0034125D01*
X0173411Y0034791D01*
X0175149Y0034791D01*
X0176755Y0034125D01*
X0177984Y0032897D01*
X0178225Y0032314D01*
X0182852Y0032314D01*
X0182800Y0032404D01*
X0182677Y0032862D01*
X0182677Y0034083D01*
X0185264Y0034083D01*
X0185264Y0034084D01*
X0182677Y0034084D01*
X0182677Y0035305D01*
X0182800Y0035762D01*
X0183037Y0036173D01*
X0183372Y0036508D01*
X0183782Y0036745D01*
X0182863Y0035872D02*
X0120592Y0035872D01*
X0120962Y0036746D02*
X0120962Y0036746D01*
X0121522Y0037470D02*
X0192589Y0037470D01*
X0192558Y0039069D02*
X0192559Y0039069D01*
X0194649Y0039069D02*
X0194649Y0039069D01*
X0194897Y0037470D02*
X0202950Y0037470D01*
X0203154Y0039069D02*
X0196412Y0039069D01*
X0196535Y0040667D02*
X0203845Y0040667D01*
X0203845Y0042266D02*
X0195112Y0042266D01*
X0194157Y0040667D02*
X0194157Y0040667D01*
X0188446Y0042266D02*
X0182001Y0042266D01*
X0183182Y0043864D02*
X0188687Y0043864D01*
X0192947Y0043864D02*
X0203845Y0043864D01*
X0203214Y0045463D02*
X0198590Y0045463D01*
X0198862Y0047061D02*
X0198863Y0047061D01*
X0200188Y0047061D02*
X0201615Y0047061D01*
X0197851Y0048073D02*
X0197851Y0048073D01*
X0195209Y0045463D02*
X0195209Y0045463D01*
X0199792Y0050045D02*
X0199792Y0050046D01*
X0200639Y0050893D01*
X0200054Y0051478D01*
X0199643Y0051715D01*
X0199186Y0051837D01*
X0199128Y0051837D01*
X0198400Y0052566D01*
X0197008Y0053958D01*
X0195616Y0055350D01*
X0194224Y0056742D01*
X0192832Y0058134D01*
X0191440Y0059526D01*
X0190048Y0060918D01*
X0188656Y0062310D01*
X0187001Y0063965D01*
X0187001Y0063965D01*
X0186174Y0064792D01*
X0186601Y0065219D01*
X0186658Y0065219D01*
X0187116Y0065342D01*
X0187526Y0065579D01*
X0188111Y0066164D01*
X0187264Y0067011D01*
X0187264Y0067011D01*
X0187264Y0067011D01*
X0188111Y0066164D01*
X0188697Y0066749D01*
X0188934Y0067160D01*
X0189056Y0067617D01*
X0189056Y0067674D01*
X0189785Y0068403D01*
X0191177Y0069795D01*
X0192569Y0071187D01*
X0193961Y0072579D01*
X0195353Y0073971D01*
X0197008Y0075626D01*
X0197737Y0076355D01*
X0197794Y0076355D01*
X0198251Y0076477D01*
X0198662Y0076714D01*
X0199247Y0077300D01*
X0199832Y0077885D01*
X0200069Y0078295D01*
X0200192Y0078753D01*
X0200192Y0078810D01*
X0200619Y0079237D01*
X0201446Y0078410D01*
X0202838Y0077018D01*
X0204230Y0075626D01*
X0205222Y0074634D01*
X0205222Y0074577D01*
X0205345Y0074119D01*
X0205581Y0073709D01*
X0206167Y0073124D01*
X0206752Y0072539D01*
X0207162Y0072302D01*
X0207620Y0072179D01*
X0207677Y0072179D01*
X0208406Y0071450D01*
X0209798Y0070058D01*
X0211190Y0068666D01*
X0212582Y0067274D01*
X0214237Y0065619D01*
X0215064Y0064792D01*
X0214237Y0063965D01*
X0214237Y0063965D01*
X0212845Y0062573D01*
X0211853Y0061581D01*
X0211796Y0061581D01*
X0211338Y0061458D01*
X0210928Y0061221D01*
X0210342Y0060636D01*
X0209757Y0060051D01*
X0209520Y0059641D01*
X0209398Y0059183D01*
X0209398Y0059126D01*
X0208669Y0058397D01*
X0207277Y0057005D01*
X0205885Y0055613D01*
X0204493Y0054221D01*
X0203101Y0052829D01*
X0201446Y0051174D01*
X0200902Y0050630D01*
X0200639Y0050893D01*
X0199792Y0050045D01*
X0200004Y0050258D02*
X0200005Y0050258D01*
X0200382Y0051857D02*
X0200856Y0051857D01*
X0201314Y0051979D01*
X0201724Y0052216D01*
X0206894Y0057386D01*
X0200619Y0063661D01*
X0201750Y0064792D01*
X0208025Y0058517D01*
X0213195Y0063687D01*
X0213432Y0064097D01*
X0213554Y0064555D01*
X0213554Y0065029D01*
X0213432Y0065487D01*
X0213195Y0065897D01*
X0208025Y0071067D01*
X0201750Y0064792D01*
X0200619Y0065924D01*
X0206894Y0072198D01*
X0201724Y0077368D01*
X0201314Y0077605D01*
X0200856Y0077728D01*
X0200382Y0077728D01*
X0199924Y0077605D01*
X0199514Y0077368D01*
X0194344Y0072198D01*
X0200619Y0065923D01*
X0199487Y0064792D01*
X0200619Y0063661D01*
X0194344Y0057386D01*
X0199514Y0052216D01*
X0199924Y0051979D01*
X0200382Y0051857D01*
X0200381Y0051857D02*
X0199109Y0051857D01*
X0200856Y0051857D02*
X0202129Y0051857D01*
X0201446Y0051174D02*
X0201446Y0051174D01*
X0202963Y0053455D02*
X0203727Y0053455D01*
X0204562Y0055054D02*
X0205326Y0055054D01*
X0206160Y0056652D02*
X0206924Y0056652D01*
X0206029Y0058251D02*
X0208523Y0058251D01*
X0209357Y0059849D02*
X0209641Y0059849D01*
X0210342Y0060636D02*
X0211190Y0059789D01*
X0211190Y0059789D01*
X0211190Y0059789D01*
X0210342Y0060636D01*
X0210956Y0061448D02*
X0211320Y0061448D01*
X0211129Y0059849D02*
X0211130Y0059849D01*
X0212554Y0063046D02*
X0213318Y0063046D01*
X0213554Y0064645D02*
X0214917Y0064645D01*
X0214237Y0065619D02*
X0214237Y0065619D01*
X0213613Y0066243D02*
X0212849Y0066243D01*
X0212014Y0067842D02*
X0211250Y0067842D01*
X0210416Y0069440D02*
X0209652Y0069440D01*
X0208817Y0071039D02*
X0208053Y0071039D01*
X0207997Y0071039D02*
X0205734Y0071039D01*
X0206398Y0069440D02*
X0204136Y0069440D01*
X0204800Y0067842D02*
X0202537Y0067842D01*
X0203201Y0066243D02*
X0200939Y0066243D01*
X0200299Y0066243D02*
X0198036Y0066243D01*
X0198700Y0067842D02*
X0196438Y0067842D01*
X0197102Y0069440D02*
X0194839Y0069440D01*
X0195503Y0071039D02*
X0193241Y0071039D01*
X0193213Y0071067D02*
X0188043Y0065897D01*
X0187806Y0065487D01*
X0187683Y0065029D01*
X0187683Y0064555D01*
X0187806Y0064097D01*
X0188043Y0063687D01*
X0193213Y0058517D01*
X0199487Y0064792D01*
X0193213Y0071067D01*
X0193185Y0071039D02*
X0192421Y0071039D01*
X0191586Y0069440D02*
X0190822Y0069440D01*
X0189988Y0067842D02*
X0189224Y0067842D01*
X0188389Y0066243D02*
X0188191Y0066243D01*
X0188032Y0066243D02*
X0188032Y0066243D01*
X0187683Y0064645D02*
X0186321Y0064645D01*
X0187920Y0063046D02*
X0188684Y0063046D01*
X0189518Y0061448D02*
X0190282Y0061448D01*
X0191117Y0059849D02*
X0191881Y0059849D01*
X0192715Y0058251D02*
X0195209Y0058251D01*
X0195078Y0056652D02*
X0194314Y0056652D01*
X0195912Y0055054D02*
X0196676Y0055054D01*
X0197511Y0053455D02*
X0198275Y0053455D01*
X0196807Y0059849D02*
X0194545Y0059849D01*
X0196143Y0061448D02*
X0198406Y0061448D01*
X0197742Y0063046D02*
X0200004Y0063046D01*
X0201233Y0063046D02*
X0203496Y0063046D01*
X0202832Y0061448D02*
X0205095Y0061448D01*
X0204430Y0059849D02*
X0206693Y0059849D01*
X0201897Y0064645D02*
X0201603Y0064645D01*
X0199635Y0064645D02*
X0199340Y0064645D01*
X0194783Y0072637D02*
X0194019Y0072637D01*
X0195618Y0074236D02*
X0196382Y0074236D01*
X0197008Y0075626D02*
X0197008Y0075626D01*
X0197216Y0075834D02*
X0197980Y0075834D01*
X0199247Y0077300D02*
X0198400Y0078147D01*
X0199247Y0077300D01*
X0199114Y0077433D02*
X0199114Y0077433D01*
X0199380Y0077433D02*
X0199626Y0077433D01*
X0198400Y0078147D02*
X0198400Y0078147D01*
X0198400Y0078147D01*
X0200413Y0079031D02*
X0200825Y0079031D01*
X0201446Y0078410D02*
X0201446Y0078410D01*
X0201612Y0077433D02*
X0202423Y0077433D01*
X0203258Y0075834D02*
X0204022Y0075834D01*
X0204856Y0074236D02*
X0205313Y0074236D01*
X0206167Y0073124D02*
X0207014Y0073971D01*
X0207014Y0073971D01*
X0207014Y0073971D01*
X0206167Y0073124D01*
X0206455Y0072637D02*
X0206653Y0072637D01*
X0215613Y0074327D02*
X0219513Y0078226D01*
X0220621Y0079335D01*
X0220621Y0093609D01*
X0227377Y0093609D01*
X0227139Y0093371D01*
X0226698Y0092764D01*
X0226357Y0092095D01*
X0226125Y0091381D01*
X0226008Y0090640D01*
X0226008Y0090449D01*
X0230592Y0090449D01*
X0230592Y0090080D01*
X0226008Y0090080D01*
X0226008Y0089889D01*
X0226125Y0089148D01*
X0226357Y0088434D01*
X0226698Y0087765D01*
X0227139Y0087158D01*
X0227141Y0087157D01*
X0226213Y0087157D01*
X0225105Y0086048D01*
X0222546Y0083489D01*
X0222546Y0081922D01*
X0222546Y0081043D01*
X0215721Y0074219D01*
X0215613Y0074327D01*
X0215704Y0074236D02*
X0215738Y0074236D01*
X0217121Y0075834D02*
X0217337Y0075834D01*
X0218719Y0077433D02*
X0218936Y0077433D01*
X0220318Y0079031D02*
X0220534Y0079031D01*
X0220621Y0080630D02*
X0222133Y0080630D01*
X0222546Y0082228D02*
X0220621Y0082228D01*
X0220621Y0083827D02*
X0222883Y0083827D01*
X0224482Y0085425D02*
X0220621Y0085425D01*
X0220621Y0087024D02*
X0226080Y0087024D01*
X0226296Y0088623D02*
X0220621Y0088623D01*
X0220621Y0090221D02*
X0230592Y0090221D01*
X0230961Y0090221D02*
X0236408Y0090221D01*
X0236408Y0089396D02*
X0237073Y0087790D01*
X0238302Y0086561D01*
X0239907Y0085896D01*
X0241645Y0085896D01*
X0242228Y0086137D01*
X0243806Y0084560D01*
X0243806Y0083413D01*
X0243251Y0083968D01*
X0241645Y0084633D01*
X0239907Y0084633D01*
X0239325Y0084392D01*
X0236560Y0087157D01*
X0234412Y0087157D01*
X0234414Y0087158D01*
X0234855Y0087765D01*
X0235196Y0088434D01*
X0235427Y0089148D01*
X0235545Y0089889D01*
X0235545Y0090080D01*
X0230961Y0090080D01*
X0230961Y0090449D01*
X0235545Y0090449D01*
X0235545Y0090640D01*
X0235427Y0091381D01*
X0235196Y0092095D01*
X0234855Y0092764D01*
X0234414Y0093371D01*
X0234176Y0093609D01*
X0237942Y0093609D01*
X0237073Y0092739D01*
X0236408Y0091134D01*
X0236408Y0089396D01*
X0236728Y0088623D02*
X0235257Y0088623D01*
X0236693Y0087024D02*
X0237839Y0087024D01*
X0238291Y0085425D02*
X0242940Y0085425D01*
X0243392Y0083827D02*
X0243806Y0083827D01*
X0253251Y0076561D02*
X0254480Y0077790D01*
X0254632Y0078158D01*
X0254632Y0067749D01*
X0255509Y0066872D01*
X0255509Y0066206D01*
X0255933Y0065182D01*
X0256717Y0064398D01*
X0257742Y0063973D01*
X0258851Y0063973D01*
X0259875Y0064398D01*
X0260659Y0065182D01*
X0261083Y0066206D01*
X0261083Y0067315D01*
X0260659Y0068340D01*
X0259875Y0069124D01*
X0258851Y0069548D01*
X0258417Y0069548D01*
X0258417Y0075487D01*
X0259094Y0074809D01*
X0261245Y0074809D01*
X0261836Y0074219D01*
X0265471Y0074219D01*
X0265574Y0073969D01*
X0266877Y0072666D01*
X0265574Y0071363D01*
X0264867Y0069654D01*
X0264867Y0068330D01*
X0254756Y0058220D01*
X0235851Y0058220D01*
X0227387Y0066684D01*
X0222670Y0066684D01*
X0221561Y0065576D01*
X0219886Y0063900D01*
X0218245Y0063900D01*
X0217353Y0064792D01*
X0219792Y0067231D01*
X0232899Y0067231D01*
X0235655Y0069987D01*
X0236598Y0069987D01*
X0234994Y0069322D01*
X0233491Y0067819D01*
X0232677Y0065855D01*
X0232677Y0063729D01*
X0233491Y0061765D01*
X0234994Y0060262D01*
X0236958Y0059449D01*
X0239083Y0059449D01*
X0241047Y0060262D01*
X0242550Y0061765D01*
X0243364Y0063729D01*
X0243364Y0065855D01*
X0242550Y0067819D01*
X0241047Y0069322D01*
X0239443Y0069987D01*
X0247466Y0069987D01*
X0251560Y0074081D01*
X0252668Y0075189D01*
X0252668Y0076320D01*
X0253251Y0076561D01*
X0252668Y0075834D02*
X0254632Y0075834D01*
X0254632Y0074236D02*
X0251715Y0074236D01*
X0250116Y0072637D02*
X0254632Y0072637D01*
X0254632Y0071039D02*
X0248518Y0071039D01*
X0254632Y0069440D02*
X0240761Y0069440D01*
X0242527Y0067842D02*
X0254632Y0067842D01*
X0255509Y0066243D02*
X0243203Y0066243D01*
X0243364Y0064645D02*
X0256470Y0064645D01*
X0259583Y0063046D02*
X0243081Y0063046D01*
X0242233Y0061448D02*
X0257985Y0061448D01*
X0256386Y0059849D02*
X0240050Y0059849D01*
X0235991Y0059849D02*
X0234222Y0059849D01*
X0233808Y0061448D02*
X0232623Y0061448D01*
X0232960Y0063046D02*
X0231025Y0063046D01*
X0229426Y0064645D02*
X0232677Y0064645D01*
X0232838Y0066243D02*
X0227828Y0066243D01*
X0222229Y0066243D02*
X0218805Y0066243D01*
X0217501Y0064645D02*
X0220630Y0064645D01*
X0229506Y0058251D02*
X0230469Y0058251D01*
X0232067Y0056652D02*
X0225261Y0056652D01*
X0230750Y0055054D02*
X0233666Y0055054D01*
X0233428Y0053455D02*
X0274803Y0053455D01*
X0274803Y0051857D02*
X0233721Y0051857D01*
X0232940Y0050258D02*
X0274803Y0050258D01*
X0274803Y0048660D02*
X0228009Y0048660D01*
X0228009Y0049635D02*
X0225422Y0049635D01*
X0225422Y0049635D01*
X0222835Y0049635D01*
X0222835Y0050856D01*
X0222950Y0051286D01*
X0219801Y0051286D01*
X0216004Y0055083D01*
X0215950Y0055029D01*
X0215103Y0055876D01*
X0215103Y0055876D01*
X0215103Y0055876D01*
X0215950Y0055028D01*
X0215896Y0054974D01*
X0222887Y0047983D01*
X0222950Y0047983D01*
X0222835Y0048413D01*
X0222835Y0049635D01*
X0225422Y0049635D01*
X0228009Y0049635D01*
X0228009Y0050258D02*
X0228927Y0050258D01*
X0225422Y0049635D02*
X0225422Y0049635D01*
X0222835Y0050258D02*
X0220613Y0050258D01*
X0219230Y0051857D02*
X0219014Y0051857D01*
X0217632Y0053455D02*
X0217415Y0053455D01*
X0216033Y0055054D02*
X0215976Y0055054D01*
X0215925Y0055054D02*
X0215925Y0055054D01*
X0222211Y0048660D02*
X0222835Y0048660D01*
X0227057Y0047061D02*
X0274803Y0047061D01*
X0274797Y0045463D02*
X0232730Y0045463D01*
X0233128Y0043864D02*
X0274593Y0043864D01*
X0273832Y0042266D02*
X0229150Y0042266D01*
X0229150Y0043864D02*
X0228781Y0043864D01*
X0228781Y0045463D02*
X0229150Y0045463D01*
X0233824Y0040700D02*
X0234159Y0041036D01*
X0234570Y0041273D01*
X0235028Y0041395D01*
X0236052Y0041395D01*
X0236052Y0038611D01*
X0236052Y0038611D01*
X0233465Y0038611D01*
X0233465Y0039832D01*
X0233587Y0040290D01*
X0233824Y0040700D01*
X0233805Y0040667D02*
X0233128Y0040667D01*
X0233465Y0039069D02*
X0232559Y0039069D01*
X0232728Y0037470D02*
X0233465Y0037470D01*
X0236052Y0039069D02*
X0236052Y0039069D01*
X0236052Y0040667D02*
X0236052Y0040667D01*
X0238299Y0040667D02*
X0272058Y0040667D01*
X0272414Y0040885D02*
X0272414Y0040885D01*
X0273433Y0041762D02*
X0273433Y0041762D01*
X0269200Y0039069D02*
X0238639Y0039069D01*
X0238639Y0037470D02*
X0265875Y0037470D01*
X0262028Y0035872D02*
X0238239Y0035872D01*
X0238239Y0034273D02*
X0257564Y0034273D01*
X0252364Y0032675D02*
X0223015Y0032675D01*
X0222984Y0032643D02*
X0223319Y0032978D01*
X0223556Y0033389D01*
X0223679Y0033846D01*
X0223679Y0035868D01*
X0219701Y0035868D01*
X0219701Y0032283D01*
X0222116Y0032283D01*
X0222574Y0032406D01*
X0222984Y0032643D01*
X0223679Y0034273D02*
X0225203Y0034273D01*
X0224895Y0035872D02*
X0219701Y0035872D01*
X0219701Y0034273D02*
X0219332Y0034273D01*
X0219332Y0032675D02*
X0219701Y0032675D01*
X0216018Y0032675D02*
X0215141Y0032675D01*
X0213217Y0032675D02*
X0213217Y0032675D01*
X0213217Y0034273D02*
X0213217Y0034273D01*
X0211293Y0032675D02*
X0197934Y0032675D01*
X0198288Y0034273D02*
X0210630Y0034273D01*
X0210630Y0035872D02*
X0207530Y0035872D01*
X0208524Y0037470D02*
X0211030Y0037470D01*
X0211030Y0039069D02*
X0208320Y0039069D01*
X0208357Y0040667D02*
X0207629Y0040667D01*
X0210991Y0040667D02*
X0211522Y0040667D01*
X0212183Y0041801D02*
X0212183Y0041801D01*
X0212329Y0042266D02*
X0212647Y0042266D01*
X0212487Y0043864D02*
X0212391Y0043864D01*
X0203944Y0035872D02*
X0197655Y0035872D01*
X0195169Y0031076D02*
X0246251Y0031076D01*
X0238942Y0029478D02*
X0193571Y0029478D01*
X0202238Y0024682D02*
X0116326Y0024682D01*
X0114531Y0029478D02*
X0139943Y0029478D01*
X0139912Y0029553D02*
X0140577Y0027947D01*
X0141806Y0026719D01*
X0143411Y0026054D01*
X0145149Y0026054D01*
X0146755Y0026719D01*
X0147984Y0027947D01*
X0148649Y0029553D01*
X0148649Y0031291D01*
X0147984Y0032897D01*
X0146755Y0034125D01*
X0145149Y0034791D01*
X0143411Y0034791D01*
X0141806Y0034125D01*
X0140577Y0032897D01*
X0139912Y0031291D01*
X0139912Y0029553D01*
X0139912Y0031076D02*
X0117292Y0031076D01*
X0118062Y0031608D02*
X0118062Y0031608D01*
X0118062Y0031608D01*
X0118860Y0032675D02*
X0140485Y0032675D01*
X0142162Y0034273D02*
X0120055Y0034273D01*
X0120076Y0034301D02*
X0120076Y0034301D01*
X0112362Y0033816D02*
X0112362Y0033816D01*
X0115295Y0029697D02*
X0115295Y0029697D01*
X0112730Y0028960D02*
X0112730Y0028960D01*
X0111067Y0028483D02*
X0111067Y0028483D01*
X0106670Y0027879D02*
X0140645Y0027879D01*
X0142863Y0026281D02*
X0100067Y0026281D01*
X0098646Y0027879D02*
X0088573Y0027879D01*
X0090386Y0029478D02*
X0079618Y0029478D01*
X0099889Y0032675D02*
X0105917Y0032675D01*
X0123439Y0039069D02*
X0154942Y0039069D01*
X0154656Y0035191D02*
X0154465Y0035191D01*
X0154465Y0030606D01*
X0159049Y0030606D01*
X0159049Y0030797D01*
X0158931Y0031539D01*
X0158699Y0032253D01*
X0158359Y0032921D01*
X0157918Y0033529D01*
X0157387Y0034059D01*
X0156780Y0034500D01*
X0156111Y0034841D01*
X0155397Y0035073D01*
X0154656Y0035191D01*
X0154096Y0035191D02*
X0153905Y0035191D01*
X0153164Y0035073D01*
X0152450Y0034841D01*
X0151781Y0034500D01*
X0151174Y0034059D01*
X0150643Y0033529D01*
X0150202Y0032921D01*
X0149861Y0032253D01*
X0149629Y0031539D01*
X0149512Y0030797D01*
X0149512Y0030606D01*
X0154096Y0030606D01*
X0154096Y0030238D01*
X0149512Y0030238D01*
X0149512Y0030047D01*
X0149629Y0029305D01*
X0149861Y0028592D01*
X0150202Y0027923D01*
X0150643Y0027316D01*
X0151174Y0026785D01*
X0151781Y0026344D01*
X0152450Y0026003D01*
X0153164Y0025771D01*
X0153905Y0025654D01*
X0154096Y0025654D01*
X0154096Y0030238D01*
X0154465Y0030238D01*
X0154465Y0030606D01*
X0154096Y0030606D01*
X0154096Y0035191D01*
X0154096Y0034273D02*
X0154465Y0034273D01*
X0154465Y0032675D02*
X0154096Y0032675D01*
X0151468Y0034273D02*
X0146398Y0034273D01*
X0148076Y0032675D02*
X0150076Y0032675D01*
X0149556Y0031076D02*
X0148649Y0031076D01*
X0148618Y0029478D02*
X0149602Y0029478D01*
X0150234Y0027879D02*
X0147915Y0027879D01*
X0145697Y0026281D02*
X0151905Y0026281D01*
X0154096Y0026281D02*
X0154465Y0026281D01*
X0154465Y0025654D02*
X0154656Y0025654D01*
X0155397Y0025771D01*
X0156111Y0026003D01*
X0156780Y0026344D01*
X0157387Y0026785D01*
X0157918Y0027316D01*
X0158359Y0027923D01*
X0158699Y0028592D01*
X0158931Y0029305D01*
X0159049Y0030047D01*
X0159049Y0030238D01*
X0154465Y0030238D01*
X0154465Y0025654D01*
X0154465Y0027879D02*
X0154096Y0027879D01*
X0154096Y0029478D02*
X0154465Y0029478D01*
X0154465Y0031076D02*
X0154096Y0031076D01*
X0159005Y0031076D02*
X0159912Y0031076D01*
X0159912Y0031291D02*
X0159912Y0029553D01*
X0160577Y0027947D01*
X0161806Y0026719D01*
X0163411Y0026054D01*
X0165149Y0026054D01*
X0166755Y0026719D01*
X0167984Y0027947D01*
X0168649Y0029553D01*
X0168649Y0031291D01*
X0167984Y0032897D01*
X0166755Y0034125D01*
X0165149Y0034791D01*
X0163411Y0034791D01*
X0161806Y0034125D01*
X0160577Y0032897D01*
X0159912Y0031291D01*
X0160485Y0032675D02*
X0158484Y0032675D01*
X0157092Y0034273D02*
X0162162Y0034273D01*
X0166398Y0034273D02*
X0172162Y0034273D01*
X0170485Y0032675D02*
X0168076Y0032675D01*
X0168649Y0031076D02*
X0169912Y0031076D01*
X0169943Y0029478D02*
X0168618Y0029478D01*
X0167915Y0027879D02*
X0170645Y0027879D01*
X0172863Y0026281D02*
X0165697Y0026281D01*
X0162863Y0026281D02*
X0156656Y0026281D01*
X0158327Y0027879D02*
X0160645Y0027879D01*
X0159943Y0029478D02*
X0158959Y0029478D01*
X0175697Y0026281D02*
X0218490Y0026281D01*
X0229988Y0027879D02*
X0177915Y0027879D01*
X0178076Y0032675D02*
X0182727Y0032675D01*
X0182677Y0034273D02*
X0176398Y0034273D01*
X0185264Y0034273D02*
X0185265Y0034273D01*
X0185264Y0035872D02*
X0185265Y0035872D01*
X0175262Y0043864D02*
X0167406Y0043864D01*
X0169005Y0045463D02*
X0174133Y0045463D01*
X0175042Y0047061D02*
X0170603Y0047061D01*
X0172202Y0048660D02*
X0176693Y0048660D01*
X0178291Y0050258D02*
X0173800Y0050258D01*
X0175399Y0051857D02*
X0179890Y0051857D01*
X0180408Y0053455D02*
X0176997Y0053455D01*
X0173244Y0055054D02*
X0115789Y0055054D01*
X0117388Y0053455D02*
X0171646Y0053455D01*
X0170047Y0051857D02*
X0161112Y0051857D01*
X0163977Y0050258D02*
X0168449Y0050258D01*
X0166850Y0048660D02*
X0164430Y0048660D01*
X0163995Y0047061D02*
X0165252Y0047061D01*
X0157763Y0056652D02*
X0157648Y0056652D01*
X0155348Y0061448D02*
X0175765Y0061448D01*
X0175525Y0063046D02*
X0156869Y0063046D01*
X0156869Y0064645D02*
X0175525Y0064645D01*
X0175525Y0066243D02*
X0156869Y0066243D01*
X0156869Y0066615D02*
X0156869Y0064792D01*
X0152469Y0064792D01*
X0152469Y0069192D01*
X0154292Y0069192D01*
X0156869Y0066615D01*
X0155642Y0067842D02*
X0175525Y0067842D01*
X0175133Y0069440D02*
X0152147Y0069440D01*
X0152101Y0069414D02*
X0152512Y0069651D01*
X0152847Y0069986D01*
X0153084Y0070397D01*
X0153206Y0070854D01*
X0153206Y0073060D01*
X0153206Y0075203D01*
X0154447Y0075203D01*
X0155267Y0076023D01*
X0155267Y0076680D01*
X0155430Y0076680D01*
X0155882Y0076529D01*
X0156184Y0076680D01*
X0156521Y0076680D01*
X0156858Y0077017D01*
X0157507Y0077341D01*
X0157938Y0077162D01*
X0159047Y0077162D01*
X0160072Y0077587D01*
X0160856Y0078371D01*
X0161280Y0079395D01*
X0161280Y0080504D01*
X0160856Y0081529D01*
X0160072Y0082313D01*
X0159047Y0082737D01*
X0157938Y0082737D01*
X0156914Y0082313D01*
X0156130Y0081529D01*
X0155793Y0080715D01*
X0155290Y0080464D01*
X0155267Y0080464D01*
X0155267Y0081120D01*
X0154447Y0081940D01*
X0151122Y0081940D01*
X0150302Y0081120D01*
X0150302Y0076828D01*
X0149832Y0076828D01*
X0149832Y0073060D01*
X0153206Y0073060D01*
X0149832Y0073060D01*
X0149832Y0073060D01*
X0149831Y0073060D01*
X0149832Y0073060D01*
X0149832Y0069291D01*
X0151643Y0069291D01*
X0152101Y0069414D01*
X0153206Y0071039D02*
X0173813Y0071039D01*
X0172214Y0072637D02*
X0153206Y0072637D01*
X0153206Y0074236D02*
X0170616Y0074236D01*
X0169017Y0075834D02*
X0155078Y0075834D01*
X0150302Y0077433D02*
X0147787Y0077433D01*
X0147787Y0079031D02*
X0150302Y0079031D01*
X0150302Y0080630D02*
X0147787Y0080630D01*
X0146999Y0082228D02*
X0156830Y0082228D01*
X0155623Y0080630D02*
X0155267Y0080630D01*
X0160156Y0082228D02*
X0168904Y0082228D01*
X0168904Y0080630D02*
X0161228Y0080630D01*
X0161130Y0079031D02*
X0168904Y0079031D01*
X0168904Y0077433D02*
X0159701Y0077433D01*
X0149832Y0075834D02*
X0149831Y0075834D01*
X0149831Y0074236D02*
X0149832Y0074236D01*
X0149831Y0072637D02*
X0149832Y0072637D01*
X0149831Y0071039D02*
X0149832Y0071039D01*
X0149831Y0069440D02*
X0149832Y0069440D01*
X0147516Y0069440D02*
X0132757Y0069440D01*
X0132587Y0067842D02*
X0139862Y0067842D01*
X0138469Y0066243D02*
X0131552Y0066243D01*
X0126997Y0066243D02*
X0126997Y0066243D01*
X0126997Y0067842D02*
X0126997Y0067842D01*
X0115973Y0063046D02*
X0115973Y0063046D01*
X0115973Y0061448D02*
X0115973Y0061448D01*
X0115973Y0060560D02*
X0115973Y0060560D01*
X0115973Y0056776D01*
X0118330Y0056776D01*
X0119061Y0056921D01*
X0119750Y0057206D01*
X0120370Y0057620D01*
X0120897Y0058148D01*
X0121311Y0058767D01*
X0121596Y0059456D01*
X0121742Y0060187D01*
X0121742Y0060560D01*
X0115973Y0060560D01*
X0115973Y0059849D02*
X0115973Y0059849D01*
X0115973Y0058251D02*
X0115973Y0058251D01*
X0114190Y0056652D02*
X0147933Y0056652D01*
X0146335Y0058251D02*
X0120966Y0058251D01*
X0121675Y0059849D02*
X0144736Y0059849D01*
X0148489Y0061448D02*
X0149591Y0061448D01*
X0148069Y0063046D02*
X0146891Y0063046D01*
X0146469Y0064645D02*
X0148069Y0064645D01*
X0148069Y0066243D02*
X0146469Y0066243D01*
X0145076Y0067842D02*
X0149297Y0067842D01*
X0152469Y0067842D02*
X0152469Y0067842D01*
X0152469Y0066243D02*
X0152469Y0066243D01*
X0152469Y0064792D02*
X0152469Y0064792D01*
X0152469Y0064645D02*
X0152469Y0064645D01*
X0152469Y0063046D02*
X0152469Y0063046D01*
X0152469Y0061448D02*
X0152469Y0061448D01*
X0140157Y0061448D02*
X0121639Y0061448D01*
X0092773Y0077433D02*
X0090862Y0077433D01*
X0147531Y0083827D02*
X0168904Y0083827D01*
X0168904Y0085425D02*
X0167669Y0085425D01*
X0167773Y0087024D02*
X0168904Y0087024D01*
X0168904Y0088623D02*
X0167675Y0088623D01*
X0167373Y0090221D02*
X0168904Y0090221D01*
X0168904Y0091820D02*
X0167373Y0091820D01*
X0167373Y0093418D02*
X0168904Y0093418D01*
X0173279Y0093418D02*
X0191246Y0093418D01*
X0191246Y0093609D02*
X0191246Y0089205D01*
X0191608Y0088844D01*
X0191313Y0088673D01*
X0190450Y0087810D01*
X0192279Y0085980D01*
X0190450Y0087810D01*
X0189903Y0087263D01*
X0188639Y0088527D01*
X0188639Y0088584D01*
X0188517Y0089041D01*
X0188280Y0089452D01*
X0187416Y0090315D01*
X0185587Y0088486D01*
X0185587Y0088486D01*
X0187416Y0090315D01*
X0186553Y0091179D01*
X0186142Y0091416D01*
X0185684Y0091539D01*
X0185210Y0091539D01*
X0184753Y0091416D01*
X0184342Y0091179D01*
X0183618Y0090455D01*
X0185587Y0088486D01*
X0185586Y0088486D01*
X0183618Y0090455D01*
X0182894Y0089730D01*
X0182657Y0089320D01*
X0182534Y0088862D01*
X0182534Y0088388D01*
X0182657Y0087930D01*
X0182894Y0087520D01*
X0183757Y0086656D01*
X0184621Y0085793D01*
X0185031Y0085556D01*
X0185489Y0085433D01*
X0185546Y0085433D01*
X0187651Y0083328D01*
X0187759Y0083328D01*
X0191192Y0079895D01*
X0190310Y0079013D01*
X0188919Y0077621D01*
X0187527Y0076229D01*
X0186369Y0075072D01*
X0186369Y0080930D01*
X0186160Y0081140D01*
X0186160Y0081836D01*
X0184226Y0083769D01*
X0183376Y0083769D01*
X0183376Y0084620D01*
X0181442Y0086553D01*
X0181243Y0086553D01*
X0181328Y0086638D01*
X0181753Y0087663D01*
X0181753Y0088772D01*
X0181328Y0089796D01*
X0180544Y0090580D01*
X0179520Y0091005D01*
X0178411Y0091005D01*
X0177386Y0090580D01*
X0176602Y0089796D01*
X0176178Y0088772D01*
X0176178Y0087663D01*
X0176602Y0086638D01*
X0177073Y0086167D01*
X0177073Y0084875D01*
X0178070Y0083877D01*
X0178070Y0083182D01*
X0180004Y0081248D01*
X0180854Y0081248D01*
X0180854Y0080398D01*
X0182585Y0078667D01*
X0182585Y0074308D01*
X0182187Y0074706D01*
X0180218Y0072738D01*
X0180218Y0072738D01*
X0178389Y0074567D01*
X0179252Y0075431D01*
X0179663Y0075668D01*
X0180120Y0075791D01*
X0180594Y0075791D01*
X0181052Y0075668D01*
X0181463Y0075431D01*
X0182187Y0074707D01*
X0180218Y0072738D01*
X0180218Y0072738D01*
X0178388Y0074567D01*
X0177525Y0073704D01*
X0177455Y0073583D01*
X0173279Y0077760D01*
X0173279Y0093609D01*
X0191246Y0093609D01*
X0191246Y0091820D02*
X0173279Y0091820D01*
X0173279Y0090221D02*
X0177027Y0090221D01*
X0176178Y0088623D02*
X0173279Y0088623D01*
X0173279Y0087024D02*
X0176443Y0087024D01*
X0177073Y0085425D02*
X0173279Y0085425D01*
X0173279Y0083827D02*
X0178070Y0083827D01*
X0179023Y0082228D02*
X0173279Y0082228D01*
X0173279Y0080630D02*
X0180854Y0080630D01*
X0182220Y0079031D02*
X0173279Y0079031D01*
X0173605Y0077433D02*
X0182585Y0077433D01*
X0182585Y0075834D02*
X0175204Y0075834D01*
X0176802Y0074236D02*
X0178057Y0074236D01*
X0178720Y0074236D02*
X0178720Y0074236D01*
X0181716Y0074236D02*
X0181716Y0074236D01*
X0186369Y0075834D02*
X0187132Y0075834D01*
X0186369Y0077433D02*
X0188730Y0077433D01*
X0190329Y0079031D02*
X0186369Y0079031D01*
X0186369Y0080630D02*
X0190457Y0080630D01*
X0188858Y0082228D02*
X0185767Y0082228D01*
X0187152Y0083827D02*
X0183376Y0083827D01*
X0182570Y0085425D02*
X0185553Y0085425D01*
X0184125Y0087024D02*
X0184125Y0087024D01*
X0183757Y0086656D02*
X0185587Y0088486D01*
X0185586Y0088486D01*
X0183757Y0086656D01*
X0183389Y0087024D02*
X0181488Y0087024D01*
X0181753Y0088623D02*
X0182534Y0088623D01*
X0183384Y0090221D02*
X0180904Y0090221D01*
X0183851Y0090221D02*
X0183851Y0090221D01*
X0185450Y0088623D02*
X0185450Y0088623D01*
X0185723Y0088623D02*
X0185723Y0088623D01*
X0187322Y0090221D02*
X0187322Y0090221D01*
X0187511Y0090221D02*
X0191246Y0090221D01*
X0191263Y0088623D02*
X0188629Y0088623D01*
X0191236Y0087024D02*
X0191236Y0087024D01*
X0192279Y0085980D02*
X0192279Y0085980D01*
X0192280Y0085980D02*
X0192280Y0085980D01*
X0194109Y0084151D01*
X0194396Y0084438D01*
X0194396Y0083592D01*
X0194224Y0083493D01*
X0193639Y0082907D01*
X0193585Y0082853D01*
X0193186Y0083253D01*
X0193246Y0083287D01*
X0194109Y0084151D01*
X0192280Y0085980D01*
X0192280Y0085980D01*
X0193099Y0086800D01*
X0192280Y0085980D01*
X0192834Y0085425D02*
X0192834Y0085425D01*
X0193099Y0086800D02*
X0193099Y0086800D01*
X0193785Y0083827D02*
X0194396Y0083827D01*
X0193639Y0082907D02*
X0194486Y0082060D01*
X0193639Y0082907D01*
X0194318Y0082228D02*
X0194318Y0082228D01*
X0194486Y0082060D02*
X0194486Y0082060D01*
X0194486Y0082060D01*
X0220621Y0091820D02*
X0226268Y0091820D01*
X0227186Y0093418D02*
X0220621Y0093418D01*
X0234367Y0093418D02*
X0237752Y0093418D01*
X0236692Y0091820D02*
X0235285Y0091820D01*
X0259819Y0086671D02*
X0262318Y0089170D01*
X0262984Y0089170D01*
X0264009Y0089594D01*
X0264793Y0090379D01*
X0265217Y0091403D01*
X0265217Y0092397D01*
X0265610Y0092226D01*
X0266354Y0091891D01*
X0267097Y0091546D01*
X0267837Y0091193D01*
X0268567Y0090832D01*
X0269293Y0090459D01*
X0270013Y0090078D01*
X0270722Y0089688D01*
X0271003Y0089527D01*
X0269592Y0089527D01*
X0269592Y0084552D01*
X0269442Y0084552D01*
X0269442Y0089527D01*
X0266030Y0089527D01*
X0265572Y0089405D01*
X0265161Y0089168D01*
X0264826Y0088832D01*
X0264589Y0088422D01*
X0264467Y0087964D01*
X0264467Y0086455D01*
X0264306Y0086548D01*
X0263848Y0086671D01*
X0261643Y0086671D01*
X0261643Y0083296D01*
X0261642Y0083296D01*
X0261642Y0086671D01*
X0259819Y0086671D01*
X0260172Y0087024D02*
X0264467Y0087024D01*
X0264705Y0088623D02*
X0261771Y0088623D01*
X0264635Y0090221D02*
X0269744Y0090221D01*
X0269592Y0088623D02*
X0269442Y0088623D01*
X0269442Y0087024D02*
X0269592Y0087024D01*
X0269592Y0085425D02*
X0269442Y0085425D01*
X0274567Y0085425D02*
X0274663Y0085425D01*
X0274567Y0083827D02*
X0274803Y0083827D01*
X0274803Y0082228D02*
X0274567Y0082228D01*
X0274470Y0080630D02*
X0274803Y0080630D01*
X0274803Y0079031D02*
X0273544Y0079031D01*
X0274167Y0077433D02*
X0274803Y0077433D01*
X0274803Y0075834D02*
X0274167Y0075834D01*
X0273569Y0074236D02*
X0274803Y0074236D01*
X0274803Y0072637D02*
X0272184Y0072637D01*
X0273593Y0071039D02*
X0274803Y0071039D01*
X0274803Y0069440D02*
X0274167Y0069440D01*
X0274167Y0067842D02*
X0274803Y0067842D01*
X0274803Y0066243D02*
X0273520Y0066243D01*
X0272303Y0064645D02*
X0274803Y0064645D01*
X0274803Y0063046D02*
X0273642Y0063046D01*
X0274167Y0061448D02*
X0274803Y0061448D01*
X0274803Y0059849D02*
X0274133Y0059849D01*
X0273471Y0058251D02*
X0274803Y0058251D01*
X0274803Y0056652D02*
X0271521Y0056652D01*
X0274803Y0055054D02*
X0256942Y0055054D01*
X0257432Y0055544D02*
X0257432Y0055544D01*
X0258541Y0056652D02*
X0267512Y0056652D01*
X0265562Y0058251D02*
X0260139Y0058251D01*
X0261738Y0059849D02*
X0264900Y0059849D01*
X0264867Y0061448D02*
X0263336Y0061448D01*
X0264935Y0063046D02*
X0265391Y0063046D01*
X0266533Y0064645D02*
X0266730Y0064645D01*
X0262780Y0066243D02*
X0261083Y0066243D01*
X0261182Y0064645D02*
X0260122Y0064645D01*
X0260865Y0067842D02*
X0264379Y0067842D01*
X0264867Y0069440D02*
X0259110Y0069440D01*
X0258417Y0071039D02*
X0265440Y0071039D01*
X0266849Y0072637D02*
X0258417Y0072637D01*
X0258417Y0074236D02*
X0261819Y0074236D01*
X0254632Y0077433D02*
X0254123Y0077433D01*
X0261642Y0083827D02*
X0261643Y0083827D01*
X0261642Y0085425D02*
X0261643Y0085425D01*
X0265217Y0091820D02*
X0266508Y0091820D01*
X0235280Y0069440D02*
X0235108Y0069440D01*
X0233514Y0067842D02*
X0233510Y0067842D01*
X0235820Y0058251D02*
X0254788Y0058251D01*
X0165186Y0085425D02*
X0165186Y0085425D01*
X0165186Y0087024D02*
X0165186Y0087024D01*
X0159108Y0085425D02*
X0151258Y0085425D01*
X0149044Y0085425D02*
X0149044Y0085425D01*
X0149044Y0087024D02*
X0149044Y0087024D01*
X0149044Y0088623D02*
X0149044Y0088623D01*
X0151013Y0094320D02*
X0151013Y0098088D01*
X0151013Y0094320D01*
X0151013Y0094320D01*
X0151013Y0095017D02*
X0151013Y0095017D01*
X0151013Y0096615D02*
X0151013Y0096615D01*
X0151013Y0098088D02*
X0149201Y0098088D01*
X0148743Y0097966D01*
X0148333Y0097729D01*
X0147997Y0097393D01*
X0147872Y0097175D01*
X0147882Y0098658D01*
X0148082Y0098858D01*
X0148082Y0104742D01*
X0147925Y0104899D01*
X0147929Y0105512D01*
X0152351Y0105512D01*
X0151581Y0104742D01*
X0151581Y0098858D01*
X0152351Y0098088D01*
X0151013Y0098088D01*
X0152225Y0098214D02*
X0147879Y0098214D01*
X0148082Y0099812D02*
X0151581Y0099812D01*
X0151581Y0101411D02*
X0148082Y0101411D01*
X0148082Y0103009D02*
X0151581Y0103009D01*
X0151581Y0104608D02*
X0148082Y0104608D01*
X0118548Y0104608D02*
X0112723Y0104608D01*
X0117209Y0043864D02*
X0122325Y0043864D01*
X0121711Y0043720D02*
X0121711Y0043720D01*
X0125124Y0044521D02*
X0125124Y0044521D01*
D32*
X0118926Y0048257D02*
X0112627Y0041957D01*
X0118926Y0048257D02*
X0156918Y0048257D01*
X0160855Y0044320D01*
X0165186Y0044320D01*
X0176603Y0055737D01*
X0183212Y0055737D01*
X0186699Y0059224D01*
X0185308Y0060616D02*
X0183184Y0058493D01*
X0159674Y0058493D01*
X0155737Y0058493D02*
X0148769Y0058493D01*
X0142469Y0064792D01*
X0132115Y0063217D02*
X0131721Y0063611D01*
X0128178Y0063611D01*
X0115973Y0065186D02*
X0115973Y0060560D01*
X0104457Y0069517D01*
X0098650Y0069517D01*
X0095894Y0065580D02*
X0093926Y0067548D01*
X0093926Y0075788D01*
X0101040Y0076997D01*
X0107115Y0074812D02*
X0107124Y0074803D01*
X0107464Y0074606D01*
X0107844Y0074505D01*
X0110032Y0074505D01*
X0110032Y0076989D01*
X0110048Y0076989D01*
X0110048Y0077005D01*
X0113532Y0077005D01*
X0113532Y0078193D01*
X0113431Y0078573D01*
X0113234Y0078913D01*
X0112997Y0079150D01*
X0113132Y0079285D01*
X0113132Y0082189D01*
X0112997Y0082324D01*
X0113234Y0082561D01*
X0113431Y0082901D01*
X0113532Y0083281D01*
X0113532Y0084469D01*
X0110048Y0084469D01*
X0110048Y0084485D01*
X0110032Y0084485D01*
X0110032Y0086969D01*
X0107844Y0086969D01*
X0107464Y0086868D01*
X0107124Y0086671D01*
X0107115Y0086662D01*
X0107115Y0087430D01*
X0114989Y0087430D01*
X0118335Y0082902D01*
X0145107Y0082902D01*
X0145107Y0082032D01*
X0144025Y0082032D01*
X0143645Y0081931D01*
X0143305Y0081734D01*
X0143027Y0081456D01*
X0142831Y0081116D01*
X0142729Y0080737D01*
X0142729Y0078621D01*
X0145107Y0078621D01*
X0145107Y0078522D01*
X0142729Y0078522D01*
X0142729Y0076520D01*
X0142548Y0076520D01*
X0142169Y0076419D01*
X0141829Y0076222D01*
X0141551Y0075945D01*
X0141354Y0075604D01*
X0141253Y0075225D01*
X0141253Y0073355D01*
X0144024Y0073355D01*
X0144024Y0072765D01*
X0141253Y0072765D01*
X0141253Y0072666D01*
X0117154Y0072666D01*
X0107115Y0074438D01*
X0107115Y0074812D01*
X0107115Y0074554D02*
X0107659Y0074554D01*
X0110032Y0074554D02*
X0110048Y0074554D01*
X0110048Y0074505D02*
X0112237Y0074505D01*
X0112616Y0074606D01*
X0112956Y0074803D01*
X0113234Y0075081D01*
X0113431Y0075421D01*
X0113532Y0075800D01*
X0113532Y0076989D01*
X0110048Y0076989D01*
X0110048Y0074505D01*
X0110032Y0075537D02*
X0110048Y0075537D01*
X0110032Y0076520D02*
X0110048Y0076520D01*
X0113532Y0076520D02*
X0120780Y0076520D01*
X0120780Y0076702D02*
X0120780Y0074241D01*
X0120882Y0073862D01*
X0121078Y0073522D01*
X0121356Y0073244D01*
X0121696Y0073047D01*
X0122076Y0072946D01*
X0126898Y0072946D01*
X0126898Y0076702D01*
X0120780Y0076702D01*
X0120780Y0077686D02*
X0126898Y0077686D01*
X0126898Y0076702D01*
X0127883Y0076702D01*
X0127883Y0077686D01*
X0134001Y0077686D01*
X0134001Y0080146D01*
X0133899Y0080526D01*
X0133703Y0080866D01*
X0133425Y0081144D01*
X0133085Y0081340D01*
X0132705Y0081442D01*
X0127883Y0081442D01*
X0127883Y0077686D01*
X0126898Y0077686D01*
X0126898Y0081442D01*
X0122076Y0081442D01*
X0121696Y0081340D01*
X0121356Y0081144D01*
X0121078Y0080866D01*
X0120882Y0080526D01*
X0120780Y0080146D01*
X0120780Y0077686D01*
X0120780Y0078485D02*
X0113454Y0078485D01*
X0113532Y0077503D02*
X0126898Y0077503D01*
X0126898Y0078485D02*
X0127883Y0078485D01*
X0127883Y0077503D02*
X0142729Y0077503D01*
X0142729Y0078485D02*
X0134001Y0078485D01*
X0134001Y0079468D02*
X0142729Y0079468D01*
X0142729Y0080451D02*
X0133919Y0080451D01*
X0132735Y0081434D02*
X0143014Y0081434D01*
X0145107Y0082416D02*
X0113090Y0082416D01*
X0113132Y0081434D02*
X0122046Y0081434D01*
X0120862Y0080451D02*
X0113132Y0080451D01*
X0113132Y0079468D02*
X0120780Y0079468D01*
X0117968Y0083399D02*
X0113532Y0083399D01*
X0113532Y0084382D02*
X0117242Y0084382D01*
X0116515Y0085365D02*
X0113532Y0085365D01*
X0113532Y0085674D02*
X0113431Y0086053D01*
X0113234Y0086393D01*
X0112956Y0086671D01*
X0112616Y0086868D01*
X0112237Y0086969D01*
X0110048Y0086969D01*
X0110048Y0084485D01*
X0113532Y0084485D01*
X0113532Y0085674D01*
X0113261Y0086347D02*
X0115789Y0086347D01*
X0115063Y0087330D02*
X0107115Y0087330D01*
X0110032Y0086347D02*
X0110048Y0086347D01*
X0110032Y0085365D02*
X0110048Y0085365D01*
X0101040Y0086024D02*
X0101040Y0084477D01*
X0101040Y0086024D02*
X0094123Y0092942D01*
X0091761Y0092942D01*
X0089398Y0095304D01*
X0079950Y0095304D01*
X0071682Y0087036D01*
X0071682Y0059674D01*
X0061446Y0056918D02*
X0061446Y0087036D01*
X0092351Y0067548D02*
X0093926Y0067548D01*
X0095894Y0065580D02*
X0095894Y0058099D01*
X0102587Y0051406D01*
X0108887Y0051406D01*
X0112824Y0055343D02*
X0117154Y0051013D01*
X0159280Y0051013D01*
X0161643Y0048650D01*
X0176786Y0046077D02*
X0182902Y0052194D01*
X0182902Y0052643D01*
X0188091Y0057832D01*
X0189483Y0064792D02*
X0200619Y0064792D01*
X0200619Y0050873D01*
X0197835Y0048089D01*
X0196443Y0049481D02*
X0193447Y0046485D01*
X0190580Y0046485D01*
X0190580Y0043139D01*
X0191098Y0042620D01*
X0190580Y0046485D02*
X0183127Y0046485D01*
X0179570Y0042928D01*
X0176786Y0045712D02*
X0176786Y0046077D01*
X0189202Y0034083D02*
X0195501Y0034083D01*
X0191839Y0030422D01*
X0174280Y0030422D01*
X0205737Y0038020D02*
X0205737Y0044713D01*
X0207312Y0046288D01*
X0207312Y0047076D01*
X0204907Y0049481D01*
X0204795Y0049481D01*
X0206187Y0050873D02*
X0209674Y0047385D01*
X0209674Y0043139D01*
X0213808Y0046035D02*
X0207579Y0052265D01*
X0210362Y0055049D02*
X0219517Y0045894D01*
X0219517Y0042351D01*
X0216957Y0042351D01*
X0216837Y0042349D01*
X0216717Y0042343D01*
X0216598Y0042334D01*
X0216479Y0042320D01*
X0216360Y0042303D01*
X0216242Y0042282D01*
X0216125Y0042257D01*
X0216008Y0042229D01*
X0215893Y0042196D01*
X0215778Y0042160D01*
X0215665Y0042121D01*
X0215554Y0042078D01*
X0215443Y0042031D01*
X0215334Y0041981D01*
X0215227Y0041927D01*
X0215122Y0041870D01*
X0215018Y0041809D01*
X0214917Y0041745D01*
X0214817Y0041678D01*
X0214720Y0041608D01*
X0214625Y0041535D01*
X0214533Y0041459D01*
X0214443Y0041380D01*
X0214355Y0041298D01*
X0214270Y0041213D01*
X0214188Y0041125D01*
X0214109Y0041035D01*
X0214033Y0040943D01*
X0213960Y0040848D01*
X0213890Y0040751D01*
X0213823Y0040651D01*
X0213759Y0040550D01*
X0213698Y0040446D01*
X0213641Y0040341D01*
X0213587Y0040234D01*
X0213537Y0040125D01*
X0213490Y0040014D01*
X0213447Y0039903D01*
X0213408Y0039790D01*
X0213372Y0039675D01*
X0213339Y0039560D01*
X0213311Y0039443D01*
X0213286Y0039326D01*
X0213265Y0039208D01*
X0213248Y0039089D01*
X0213234Y0038970D01*
X0213225Y0038851D01*
X0213219Y0038731D01*
X0213217Y0038611D01*
X0224241Y0039202D02*
X0224241Y0044910D01*
X0224239Y0044976D01*
X0224234Y0045042D01*
X0224224Y0045108D01*
X0224211Y0045173D01*
X0224195Y0045237D01*
X0224175Y0045300D01*
X0224151Y0045362D01*
X0224124Y0045422D01*
X0224094Y0045481D01*
X0224060Y0045538D01*
X0224023Y0045593D01*
X0223983Y0045646D01*
X0223941Y0045697D01*
X0223895Y0045745D01*
X0223847Y0045791D01*
X0223796Y0045833D01*
X0223743Y0045873D01*
X0223688Y0045910D01*
X0223631Y0045944D01*
X0223572Y0045974D01*
X0223512Y0046001D01*
X0223450Y0046025D01*
X0223387Y0046045D01*
X0223323Y0046061D01*
X0223258Y0046074D01*
X0223192Y0046084D01*
X0223126Y0046089D01*
X0223060Y0046091D01*
X0222104Y0046091D01*
X0211754Y0056440D01*
X0213146Y0057832D02*
X0221344Y0049635D01*
X0225422Y0049635D01*
X0225422Y0053178D02*
X0220585Y0053178D01*
X0214538Y0059224D01*
X0213146Y0057832D02*
X0206187Y0064792D01*
X0200619Y0064792D01*
X0200619Y0067576D01*
X0208971Y0075928D01*
X0210362Y0074536D02*
X0215973Y0080146D01*
X0215973Y0089202D01*
X0214989Y0090186D01*
X0208887Y0088808D02*
X0207706Y0089989D01*
X0208493Y0089202D01*
X0208887Y0088808D02*
X0208887Y0081411D01*
X0206187Y0078712D01*
X0204795Y0080103D02*
X0206918Y0082227D01*
X0206918Y0084871D01*
X0201406Y0090383D01*
X0201406Y0098650D01*
X0201013Y0098257D01*
X0201406Y0098650D02*
X0201406Y0099831D01*
X0214005Y0099831D01*
X0218729Y0095107D01*
X0218729Y0080118D01*
X0211754Y0073144D01*
X0214538Y0070360D02*
X0224438Y0080259D01*
X0224438Y0082706D01*
X0226997Y0085265D01*
X0235776Y0085265D01*
X0240776Y0080265D01*
X0245698Y0076013D02*
X0245698Y0085343D01*
X0240776Y0090265D01*
X0238414Y0095501D02*
X0199949Y0095501D01*
X0199949Y0095994D01*
X0199571Y0096905D01*
X0198874Y0097603D01*
X0197962Y0097980D01*
X0196976Y0097980D01*
X0196065Y0097603D01*
X0195367Y0096905D01*
X0194990Y0095994D01*
X0194990Y0095501D01*
X0167355Y0095501D01*
X0167167Y0095826D01*
X0166889Y0096104D01*
X0166549Y0096301D01*
X0166170Y0096402D01*
X0164989Y0096402D01*
X0164989Y0095501D01*
X0164989Y0095501D01*
X0164989Y0096402D01*
X0163808Y0096402D01*
X0163429Y0096301D01*
X0163089Y0096104D01*
X0162934Y0095950D01*
X0162882Y0096002D01*
X0160009Y0096002D01*
X0159591Y0095585D01*
X0159591Y0096485D01*
X0159490Y0096864D01*
X0159293Y0097204D01*
X0159015Y0097482D01*
X0158675Y0097679D01*
X0158296Y0097780D01*
X0156820Y0097780D01*
X0156820Y0095501D01*
X0156229Y0095501D01*
X0156229Y0097780D01*
X0154753Y0097780D01*
X0154532Y0097721D01*
X0154529Y0097946D01*
X0154851Y0097946D01*
X0154851Y0101308D01*
X0155835Y0101308D01*
X0155835Y0097946D01*
X0157902Y0097946D01*
X0158281Y0098047D01*
X0158622Y0098244D01*
X0158899Y0098522D01*
X0159096Y0098862D01*
X0159198Y0099241D01*
X0159198Y0101308D01*
X0155835Y0101308D01*
X0155835Y0102292D01*
X0154851Y0102292D01*
X0154851Y0105654D01*
X0154444Y0105654D01*
X0154443Y0105820D01*
X0193165Y0105820D01*
X0193201Y0105819D01*
X0193239Y0105819D01*
X0193270Y0105818D01*
X0193301Y0105817D01*
X0193311Y0105817D01*
X0193374Y0105815D01*
X0193412Y0105813D01*
X0193415Y0105813D01*
X0193446Y0105811D01*
X0193788Y0105791D01*
X0193963Y0105781D01*
X0194806Y0105729D01*
X0195635Y0105677D01*
X0196472Y0105623D01*
X0197311Y0105567D01*
X0198141Y0105511D01*
X0198982Y0105452D01*
X0199814Y0105393D01*
X0200646Y0105331D01*
X0201484Y0105268D01*
X0202317Y0105204D01*
X0203152Y0105138D01*
X0203982Y0105071D01*
X0204818Y0105001D01*
X0205652Y0104930D01*
X0206485Y0104858D01*
X0207322Y0104783D01*
X0208152Y0104708D01*
X0208986Y0104630D01*
X0209819Y0104550D01*
X0210649Y0104469D01*
X0211483Y0104386D01*
X0212312Y0104302D01*
X0213150Y0104214D01*
X0213978Y0104126D01*
X0214811Y0104035D01*
X0215641Y0103943D01*
X0216475Y0103849D01*
X0217304Y0103753D01*
X0218133Y0103655D01*
X0218967Y0103554D01*
X0219792Y0103452D01*
X0220626Y0103347D01*
X0221457Y0103241D01*
X0222285Y0103133D01*
X0223113Y0103022D01*
X0223942Y0102909D01*
X0224771Y0102794D01*
X0225600Y0102677D01*
X0226429Y0102557D01*
X0227255Y0102435D01*
X0228083Y0102310D01*
X0228912Y0102183D01*
X0229737Y0102053D01*
X0230563Y0101921D01*
X0231389Y0101786D01*
X0232215Y0101648D01*
X0233039Y0101508D01*
X0233866Y0101364D01*
X0234689Y0101219D01*
X0235514Y0101069D01*
X0236335Y0100918D01*
X0237159Y0100763D01*
X0237984Y0100605D01*
X0238414Y0100520D01*
X0238414Y0095501D01*
X0238414Y0096175D02*
X0199874Y0096175D01*
X0199319Y0097158D02*
X0238414Y0097158D01*
X0238454Y0096288D02*
X0228965Y0096288D01*
X0235406Y0101089D02*
X0159198Y0101089D01*
X0159198Y0100106D02*
X0238414Y0100106D01*
X0238414Y0099123D02*
X0159166Y0099123D01*
X0158443Y0098141D02*
X0238414Y0098141D01*
X0229620Y0102072D02*
X0155835Y0102072D01*
X0155835Y0102292D02*
X0159198Y0102292D01*
X0159198Y0104359D01*
X0159096Y0104738D01*
X0158899Y0105078D01*
X0158622Y0105356D01*
X0158281Y0105553D01*
X0157902Y0105654D01*
X0155835Y0105654D01*
X0155835Y0102292D01*
X0155343Y0101800D02*
X0156288Y0094556D01*
X0156524Y0094320D01*
X0161249Y0094123D02*
X0161446Y0094123D01*
X0161249Y0094123D02*
X0161249Y0090580D01*
X0161249Y0087036D01*
X0161249Y0088808D01*
X0152784Y0088808D01*
X0149044Y0088808D02*
X0149044Y0092351D01*
X0151013Y0094320D01*
X0145959Y0094210D02*
X0120368Y0094210D01*
X0120375Y0095192D02*
X0145966Y0095192D01*
X0145972Y0096175D02*
X0133825Y0096175D01*
X0133899Y0096303D02*
X0134001Y0096682D01*
X0134001Y0099143D01*
X0127883Y0099143D01*
X0127883Y0100127D01*
X0134001Y0100127D01*
X0134001Y0102587D01*
X0133899Y0102966D01*
X0133703Y0103307D01*
X0133425Y0103585D01*
X0133085Y0103781D01*
X0132705Y0103883D01*
X0127883Y0103883D01*
X0127883Y0100127D01*
X0126898Y0100127D01*
X0126898Y0099143D01*
X0120780Y0099143D01*
X0120780Y0096682D01*
X0120882Y0096303D01*
X0121078Y0095963D01*
X0121356Y0095685D01*
X0121696Y0095488D01*
X0122076Y0095387D01*
X0126898Y0095387D01*
X0126898Y0099142D01*
X0127883Y0099142D01*
X0127883Y0095387D01*
X0132705Y0095387D01*
X0133085Y0095488D01*
X0133425Y0095685D01*
X0133703Y0095963D01*
X0133899Y0096303D01*
X0134001Y0097158D02*
X0145979Y0097158D01*
X0145985Y0097946D02*
X0145945Y0092268D01*
X0145353Y0092268D01*
X0145353Y0088857D01*
X0145255Y0088857D01*
X0145255Y0092268D01*
X0144025Y0092268D01*
X0143645Y0092167D01*
X0143305Y0091970D01*
X0143027Y0091693D01*
X0142831Y0091352D01*
X0142729Y0090973D01*
X0142729Y0088857D01*
X0145255Y0088857D01*
X0145255Y0088759D01*
X0142729Y0088759D01*
X0142729Y0086643D01*
X0142831Y0086263D01*
X0143027Y0085923D01*
X0143305Y0085645D01*
X0143645Y0085449D01*
X0144025Y0085347D01*
X0145255Y0085347D01*
X0145255Y0088759D01*
X0145353Y0088759D01*
X0145353Y0085347D01*
X0145898Y0085347D01*
X0145894Y0084871D01*
X0120304Y0084871D01*
X0120446Y0105514D01*
X0120815Y0105539D01*
X0121657Y0105596D01*
X0122503Y0105651D01*
X0123349Y0105704D01*
X0124195Y0105757D01*
X0125047Y0105808D01*
X0125101Y0105811D01*
X0125135Y0105813D01*
X0125179Y0105815D01*
X0125201Y0105816D01*
X0125209Y0105816D01*
X0125266Y0105818D01*
X0125273Y0105818D01*
X0125308Y0105819D01*
X0125347Y0105819D01*
X0125382Y0105819D01*
X0126318Y0105819D01*
X0126318Y0105820D01*
X0146039Y0105820D01*
X0146038Y0105654D01*
X0144812Y0105654D01*
X0144812Y0102292D01*
X0143828Y0102292D01*
X0143828Y0105654D01*
X0141761Y0105654D01*
X0141382Y0105553D01*
X0141041Y0105356D01*
X0140763Y0105078D01*
X0140567Y0104738D01*
X0140465Y0104359D01*
X0140465Y0102292D01*
X0143828Y0102292D01*
X0143828Y0101308D01*
X0144812Y0101308D01*
X0144812Y0097946D01*
X0145985Y0097946D01*
X0144812Y0098141D02*
X0143828Y0098141D01*
X0143828Y0097946D02*
X0143828Y0101308D01*
X0140465Y0101308D01*
X0140465Y0099241D01*
X0140567Y0098862D01*
X0140763Y0098522D01*
X0141041Y0098244D01*
X0141382Y0098047D01*
X0141761Y0097946D01*
X0143828Y0097946D01*
X0143828Y0099123D02*
X0144812Y0099123D01*
X0144812Y0100106D02*
X0143828Y0100106D01*
X0143828Y0101089D02*
X0144812Y0101089D01*
X0143828Y0102072D02*
X0134001Y0102072D01*
X0134001Y0101089D02*
X0140465Y0101089D01*
X0140465Y0100106D02*
X0127883Y0100106D01*
X0127883Y0099123D02*
X0126898Y0099123D01*
X0126898Y0098141D02*
X0127883Y0098141D01*
X0127883Y0097158D02*
X0126898Y0097158D01*
X0126898Y0096175D02*
X0127883Y0096175D01*
X0126898Y0100106D02*
X0120409Y0100106D01*
X0120780Y0100127D02*
X0126898Y0100127D01*
X0126898Y0103883D01*
X0122076Y0103883D01*
X0121696Y0103781D01*
X0121356Y0103585D01*
X0121078Y0103307D01*
X0120882Y0102966D01*
X0120780Y0102587D01*
X0120780Y0100127D01*
X0120780Y0101089D02*
X0120416Y0101089D01*
X0120423Y0102072D02*
X0120780Y0102072D01*
X0120933Y0103054D02*
X0120429Y0103054D01*
X0120436Y0104037D02*
X0140465Y0104037D01*
X0140465Y0103054D02*
X0133848Y0103054D01*
X0134001Y0099123D02*
X0140497Y0099123D01*
X0141220Y0098141D02*
X0134001Y0098141D01*
X0127883Y0101089D02*
X0126898Y0101089D01*
X0126898Y0102072D02*
X0127883Y0102072D01*
X0127883Y0103054D02*
X0126898Y0103054D01*
X0120443Y0105020D02*
X0140730Y0105020D01*
X0143828Y0105020D02*
X0144812Y0105020D01*
X0144812Y0104037D02*
X0143828Y0104037D01*
X0143828Y0103054D02*
X0144812Y0103054D01*
X0154851Y0103054D02*
X0155835Y0103054D01*
X0155835Y0104037D02*
X0154851Y0104037D01*
X0154851Y0105020D02*
X0155835Y0105020D01*
X0158933Y0105020D02*
X0204593Y0105020D01*
X0214795Y0104037D02*
X0159198Y0104037D01*
X0159198Y0103054D02*
X0222871Y0103054D01*
X0197863Y0095107D02*
X0197863Y0089989D01*
X0204162Y0083690D01*
X0204162Y0082255D01*
X0203403Y0081495D01*
X0197835Y0081495D02*
X0196288Y0083042D01*
X0196288Y0086983D01*
X0196145Y0086983D01*
X0193139Y0089989D01*
X0193139Y0095894D01*
X0171091Y0095894D01*
X0167154Y0095894D01*
X0166072Y0096977D01*
X0165580Y0097469D01*
X0165973Y0097469D02*
X0161249Y0097076D01*
X0159591Y0096175D02*
X0163211Y0096175D01*
X0164989Y0096175D02*
X0164989Y0096175D01*
X0165973Y0097469D02*
X0164989Y0094123D01*
X0165186Y0094123D01*
X0165186Y0090580D01*
X0165186Y0087036D02*
X0167548Y0082312D01*
X0161249Y0082902D01*
X0158493Y0079950D02*
X0155737Y0078572D01*
X0152784Y0078572D01*
X0145304Y0078572D02*
X0141957Y0078572D01*
X0140383Y0080934D01*
X0145304Y0078572D02*
X0145304Y0074044D01*
X0144320Y0073060D01*
X0141253Y0073571D02*
X0133731Y0073571D01*
X0133703Y0073522D02*
X0133899Y0073862D01*
X0134001Y0074241D01*
X0134001Y0076702D01*
X0127883Y0076702D01*
X0127883Y0072946D01*
X0132705Y0072946D01*
X0133085Y0073047D01*
X0133425Y0073244D01*
X0133703Y0073522D01*
X0134001Y0074554D02*
X0141253Y0074554D01*
X0141336Y0075537D02*
X0134001Y0075537D01*
X0134001Y0076520D02*
X0142546Y0076520D01*
X0149044Y0073847D02*
X0149044Y0088808D01*
X0145353Y0089296D02*
X0145255Y0089296D01*
X0145255Y0090278D02*
X0145353Y0090278D01*
X0145353Y0091261D02*
X0145255Y0091261D01*
X0145255Y0092244D02*
X0145353Y0092244D01*
X0145952Y0093227D02*
X0120362Y0093227D01*
X0120355Y0092244D02*
X0143933Y0092244D01*
X0142806Y0091261D02*
X0120348Y0091261D01*
X0120341Y0090278D02*
X0142729Y0090278D01*
X0142729Y0089296D02*
X0120334Y0089296D01*
X0120328Y0088313D02*
X0142729Y0088313D01*
X0142729Y0087330D02*
X0120321Y0087330D01*
X0120314Y0086347D02*
X0142808Y0086347D01*
X0143960Y0085365D02*
X0120307Y0085365D01*
X0126898Y0081434D02*
X0127883Y0081434D01*
X0127883Y0080451D02*
X0126898Y0080451D01*
X0126898Y0079468D02*
X0127883Y0079468D01*
X0127883Y0076520D02*
X0126898Y0076520D01*
X0126898Y0075537D02*
X0127883Y0075537D01*
X0127883Y0074554D02*
X0126898Y0074554D01*
X0126898Y0073571D02*
X0127883Y0073571D01*
X0121050Y0073571D02*
X0112024Y0073571D01*
X0112421Y0074554D02*
X0120780Y0074554D01*
X0120780Y0075537D02*
X0113462Y0075537D01*
X0092351Y0063611D02*
X0092351Y0059871D01*
X0087626Y0043925D02*
X0087237Y0043928D01*
X0086849Y0043940D01*
X0086460Y0043961D01*
X0086073Y0043992D01*
X0085686Y0044032D01*
X0085300Y0044082D01*
X0084916Y0044142D01*
X0084533Y0044211D01*
X0084152Y0044289D01*
X0083773Y0044376D01*
X0083396Y0044473D01*
X0083022Y0044579D01*
X0082651Y0044694D01*
X0082282Y0044818D01*
X0081917Y0044952D01*
X0081555Y0045094D01*
X0081196Y0045245D01*
X0080842Y0045405D01*
X0080491Y0045573D01*
X0080145Y0045750D01*
X0079803Y0045935D01*
X0079466Y0046129D01*
X0079133Y0046331D01*
X0078806Y0046541D01*
X0078484Y0046759D01*
X0078167Y0046985D01*
X0077856Y0047219D01*
X0077551Y0047460D01*
X0077252Y0047708D01*
X0076959Y0047964D01*
X0076672Y0048227D01*
X0076392Y0048497D01*
X0076119Y0048774D01*
X0075852Y0049057D01*
X0075593Y0049347D01*
X0075341Y0049643D01*
X0075096Y0049945D01*
X0074858Y0050253D01*
X0074629Y0050567D01*
X0074407Y0050886D01*
X0074193Y0051211D01*
X0073986Y0051541D01*
X0073789Y0051876D01*
X0073599Y0052215D01*
X0073418Y0052559D01*
X0073245Y0052908D01*
X0073081Y0053260D01*
X0072925Y0053617D01*
X0072779Y0053977D01*
X0072641Y0054341D01*
X0072512Y0054708D01*
X0072392Y0055078D01*
X0072282Y0055451D01*
X0072180Y0055826D01*
X0072088Y0056204D01*
X0072005Y0056584D01*
X0071931Y0056966D01*
X0071867Y0057349D01*
X0071813Y0057735D01*
X0071767Y0058121D01*
X0071731Y0058508D01*
X0071705Y0058896D01*
X0071688Y0059285D01*
X0071681Y0059674D01*
X0100619Y0062036D02*
X0107312Y0055343D01*
X0112824Y0055343D01*
X0090383Y0043926D02*
X0087627Y0043926D01*
X0149044Y0073847D02*
X0149831Y0073060D01*
X0177713Y0070232D02*
X0180369Y0067576D01*
X0183916Y0067576D01*
X0185308Y0068968D02*
X0181538Y0072738D01*
X0180218Y0072738D01*
X0178321Y0074635D01*
X0178178Y0074635D01*
X0184477Y0072582D02*
X0184477Y0080146D01*
X0183507Y0081117D01*
X0180723Y0083901D02*
X0178965Y0085658D01*
X0178965Y0088217D01*
X0188092Y0085980D02*
X0188092Y0085671D01*
X0195051Y0078712D01*
X0196443Y0080103D02*
X0192351Y0084195D01*
X0192351Y0086052D01*
X0192280Y0085980D02*
X0192280Y0086517D01*
X0190383Y0088414D01*
X0194785Y0088486D02*
X0196288Y0086983D01*
X0196443Y0080103D02*
X0200619Y0075928D01*
X0200619Y0064792D01*
X0189483Y0064792D02*
X0185308Y0068968D01*
X0186699Y0070360D02*
X0184477Y0072582D01*
X0207579Y0077320D02*
X0212430Y0082368D01*
X0212430Y0084083D01*
X0225028Y0073454D02*
X0226013Y0074438D01*
X0244123Y0074438D01*
X0245698Y0076013D01*
X0246682Y0071879D02*
X0250776Y0075973D01*
X0250776Y0080265D01*
X0256524Y0086052D02*
X0256524Y0068532D01*
X0258296Y0066761D01*
X0267942Y0068729D02*
X0269517Y0068729D01*
X0267942Y0068729D02*
X0255540Y0056328D01*
X0235068Y0056328D01*
X0226603Y0064792D01*
X0223454Y0064792D01*
X0220670Y0062008D01*
X0217322Y0062008D01*
X0215930Y0060616D02*
X0218447Y0058099D01*
X0223847Y0058099D01*
X0226997Y0059477D01*
X0225422Y0053178D02*
X0229950Y0053178D01*
X0230934Y0052194D01*
X0230737Y0052391D01*
X0214398Y0046035D02*
X0213808Y0046035D01*
X0214398Y0046035D02*
X0214398Y0045894D01*
X0224241Y0039202D02*
X0227391Y0036052D01*
X0228965Y0036052D01*
X0229950Y0035068D01*
X0236052Y0035068D01*
X0217322Y0067576D02*
X0218869Y0069123D01*
X0232115Y0069123D01*
X0234871Y0071879D01*
X0246682Y0071879D01*
X0225028Y0073454D02*
X0220416Y0073454D01*
X0215930Y0068968D01*
X0256524Y0086052D02*
X0262430Y0091957D01*
X0197863Y0095107D02*
X0197469Y0095501D01*
X0195620Y0097158D02*
X0159320Y0097158D01*
X0156820Y0097158D02*
X0156229Y0097158D01*
X0156229Y0096175D02*
X0156820Y0096175D01*
X0155835Y0098141D02*
X0154851Y0098141D01*
X0154851Y0099123D02*
X0155835Y0099123D01*
X0155835Y0100106D02*
X0154851Y0100106D01*
X0154851Y0101089D02*
X0155835Y0101089D01*
X0166767Y0096175D02*
X0195065Y0096175D01*
X0193139Y0095894D02*
X0195501Y0098257D01*
X0145353Y0088313D02*
X0145255Y0088313D01*
X0145255Y0087330D02*
X0145353Y0087330D01*
X0145353Y0086347D02*
X0145255Y0086347D01*
X0145255Y0085365D02*
X0145353Y0085365D01*
X0120956Y0096175D02*
X0120382Y0096175D01*
X0120389Y0097158D02*
X0120780Y0097158D01*
X0120780Y0098141D02*
X0120395Y0098141D01*
X0120402Y0099123D02*
X0120780Y0099123D01*
D33*
X0107706Y0095894D03*
X0102587Y0095894D03*
X0092351Y0098257D03*
X0061446Y0087036D03*
X0100619Y0062036D03*
X0092351Y0059871D03*
X0061446Y0056918D03*
X0090383Y0043926D03*
X0128178Y0063611D03*
X0161643Y0048650D03*
X0165973Y0054162D03*
X0182902Y0052194D03*
X0190580Y0046485D03*
X0205737Y0038020D03*
X0195501Y0034083D03*
X0209674Y0043139D03*
X0214398Y0045894D03*
X0230934Y0052194D03*
X0239595Y0049044D03*
X0226997Y0059477D03*
X0251013Y0061839D03*
X0250816Y0066957D03*
X0258296Y0066761D03*
X0212430Y0084083D03*
X0214989Y0090186D03*
X0207706Y0089989D03*
X0197469Y0095501D03*
X0178965Y0088217D03*
X0175225Y0091564D03*
X0167548Y0082312D03*
X0167548Y0078769D03*
X0158493Y0079950D03*
X0140383Y0080934D03*
X0178375Y0062430D03*
X0200619Y0064792D03*
X0155343Y0041957D03*
X0132509Y0037233D03*
X0132509Y0031721D03*
X0262430Y0091957D03*
D34*
X0250776Y0090265D02*
X0244753Y0096288D01*
X0238454Y0096288D01*
X0261643Y0077784D02*
X0262824Y0076603D01*
X0269517Y0076603D01*
X0155343Y0041957D02*
X0126603Y0041957D01*
X0126414Y0041976D01*
X0126225Y0041990D01*
X0126035Y0041999D01*
X0125845Y0042004D01*
X0125655Y0042005D01*
X0125465Y0042000D01*
X0125276Y0041991D01*
X0125086Y0041977D01*
X0124897Y0041959D01*
X0124709Y0041936D01*
X0124521Y0041909D01*
X0124334Y0041877D01*
X0124147Y0041840D01*
X0123962Y0041799D01*
X0123778Y0041753D01*
X0123595Y0041703D01*
X0123413Y0041649D01*
X0123232Y0041590D01*
X0123053Y0041527D01*
X0122876Y0041459D01*
X0122700Y0041387D01*
X0122526Y0041311D01*
X0122354Y0041230D01*
X0122184Y0041146D01*
X0122016Y0041057D01*
X0121851Y0040964D01*
X0121687Y0040868D01*
X0121526Y0040767D01*
X0121368Y0040662D01*
X0121212Y0040554D01*
X0121059Y0040442D01*
X0120908Y0040326D01*
X0120761Y0040206D01*
X0120616Y0040083D01*
X0120475Y0039956D01*
X0120336Y0039826D01*
X0120201Y0039693D01*
X0120069Y0039557D01*
X0119941Y0039417D01*
X0119815Y0039274D01*
X0119694Y0039128D01*
X0119576Y0038979D01*
X0119462Y0038828D01*
X0119351Y0038673D01*
X0119244Y0038516D01*
X0119141Y0038357D01*
X0119042Y0038195D01*
X0118947Y0038031D01*
X0118856Y0037864D01*
X0118769Y0037695D01*
X0118686Y0037524D01*
X0118607Y0037352D01*
X0118533Y0037177D01*
X0118463Y0037000D01*
X0118397Y0036822D01*
X0118336Y0036643D01*
X0118336Y0036642D02*
X0118274Y0036460D01*
X0118207Y0036280D01*
X0118136Y0036102D01*
X0118061Y0035925D01*
X0117982Y0035751D01*
X0117898Y0035578D01*
X0117810Y0035407D01*
X0117718Y0035239D01*
X0117622Y0035073D01*
X0117522Y0034909D01*
X0117418Y0034747D01*
X0117310Y0034589D01*
X0117198Y0034433D01*
X0117082Y0034279D01*
X0116963Y0034129D01*
X0116840Y0033982D01*
X0116714Y0033837D01*
X0116584Y0033696D01*
X0116450Y0033558D01*
X0116314Y0033423D01*
X0116174Y0033291D01*
X0116031Y0033163D01*
X0115885Y0033039D01*
X0115736Y0032918D01*
X0115584Y0032801D01*
X0115429Y0032687D01*
X0115271Y0032577D01*
X0115111Y0032472D01*
X0114948Y0032370D01*
X0114783Y0032272D01*
X0114616Y0032178D01*
X0114446Y0032088D01*
X0114274Y0032003D01*
X0114101Y0031921D01*
X0113925Y0031844D01*
X0113747Y0031771D01*
X0113568Y0031703D01*
X0113387Y0031639D01*
X0113204Y0031579D01*
X0113021Y0031524D01*
X0066564Y0049241D02*
X0066485Y0049366D01*
X0066402Y0049488D01*
X0066316Y0049608D01*
X0066227Y0049726D01*
X0066135Y0049841D01*
X0066040Y0049954D01*
X0065942Y0050064D01*
X0065841Y0050172D01*
X0065737Y0050277D01*
X0065631Y0050379D01*
X0065522Y0050478D01*
X0065410Y0050575D01*
X0065296Y0050668D01*
X0065179Y0050758D01*
X0065060Y0050846D01*
X0064939Y0050930D01*
X0064815Y0051011D01*
X0064690Y0051088D01*
X0064562Y0051162D01*
X0064433Y0051233D01*
X0064302Y0051301D01*
X0064169Y0051365D01*
X0064034Y0051425D01*
X0063898Y0051482D01*
X0063760Y0051535D01*
X0063621Y0051584D01*
X0063481Y0051630D01*
X0063339Y0051672D01*
X0063197Y0051711D01*
X0063053Y0051745D01*
X0062909Y0051776D01*
X0062764Y0051803D01*
X0062618Y0051826D01*
X0062472Y0051845D01*
X0062325Y0051861D01*
X0062178Y0051872D01*
X0062031Y0051880D01*
X0061883Y0051884D01*
X0061736Y0051883D01*
X0061588Y0051879D01*
X0061441Y0051871D01*
X0061294Y0051860D01*
X0061147Y0051844D01*
X0061001Y0051824D01*
X0060855Y0051801D01*
X0066564Y0049241D02*
X0066941Y0048648D01*
X0067331Y0048064D01*
X0067733Y0047488D01*
X0068149Y0046922D01*
X0068577Y0046365D01*
X0069017Y0045817D01*
X0069469Y0045280D01*
X0069933Y0044752D01*
X0070408Y0044235D01*
X0070895Y0043729D01*
X0102981Y0030146D02*
X0103829Y0030150D01*
X0104676Y0030175D01*
X0105522Y0030219D01*
X0106367Y0030284D01*
X0107210Y0030369D01*
X0108050Y0030474D01*
X0108889Y0030600D01*
X0109723Y0030745D01*
X0110554Y0030910D01*
X0111381Y0031095D01*
X0112204Y0031300D01*
X0113021Y0031524D01*
X0102981Y0030147D02*
X0101898Y0030168D01*
X0100815Y0030214D01*
X0099734Y0030286D01*
X0098655Y0030384D01*
X0097579Y0030507D01*
X0096505Y0030656D01*
X0095436Y0030831D01*
X0094371Y0031031D01*
X0093311Y0031257D01*
X0092257Y0031507D01*
X0091209Y0031783D01*
X0090168Y0032084D01*
X0089135Y0032409D01*
X0088109Y0032759D01*
X0087092Y0033134D01*
X0086085Y0033532D01*
X0085087Y0033955D01*
X0084099Y0034401D01*
X0083123Y0034870D01*
X0082158Y0035363D01*
X0081204Y0035878D01*
X0080264Y0036416D01*
X0079337Y0036977D01*
X0078423Y0037559D01*
X0077523Y0038163D01*
X0076638Y0038788D01*
X0075768Y0039435D01*
X0074914Y0040101D01*
X0074076Y0040788D01*
X0073255Y0041495D01*
X0072450Y0042221D01*
X0071664Y0042966D01*
X0070895Y0043730D01*
X0088217Y0080737D02*
X0087627Y0081328D01*
X0088217Y0080737D02*
X0101040Y0080737D01*
X0110040Y0080737D01*
M02*
