G75*
%MOIN*%
%OFA0B0*%
%FSLAX25Y25*%
%IPPOS*%
%LPD*%
%AMOC8*
5,1,8,0,0,1.08239X$1,22.5*
%
%ADD10C,0.00000*%
%ADD11C,0.01575*%
%ADD12R,0.03937X0.02165*%
%ADD13R,0.05150X0.05150*%
%ADD14C,0.05150*%
%ADD15R,0.01969X0.01575*%
%ADD16R,0.01575X0.01969*%
%ADD17C,0.05937*%
%ADD18R,0.04724X0.04724*%
%ADD19R,0.03150X0.03937*%
%ADD20R,0.03150X0.01969*%
%ADD21R,0.02559X0.04134*%
%ADD22OC8,0.05200*%
%ADD23R,0.01378X0.05906*%
%ADD24C,0.03969*%
%ADD25R,0.02756X0.01378*%
%ADD26R,0.06500X0.06500*%
%ADD27C,0.06500*%
%ADD28C,0.01600*%
%ADD29C,0.00984*%
%ADD30C,0.02775*%
%ADD31C,0.01181*%
%ADD32C,0.01969*%
D10*
X0076997Y0064792D02*
X0076999Y0064910D01*
X0077005Y0065029D01*
X0077015Y0065147D01*
X0077029Y0065264D01*
X0077046Y0065381D01*
X0077068Y0065498D01*
X0077094Y0065613D01*
X0077123Y0065728D01*
X0077156Y0065842D01*
X0077193Y0065954D01*
X0077234Y0066065D01*
X0077278Y0066175D01*
X0077326Y0066283D01*
X0077378Y0066390D01*
X0077433Y0066495D01*
X0077492Y0066598D01*
X0077554Y0066698D01*
X0077619Y0066797D01*
X0077688Y0066894D01*
X0077759Y0066988D01*
X0077834Y0067079D01*
X0077912Y0067169D01*
X0077993Y0067255D01*
X0078077Y0067339D01*
X0078163Y0067420D01*
X0078253Y0067498D01*
X0078344Y0067573D01*
X0078438Y0067644D01*
X0078535Y0067713D01*
X0078634Y0067778D01*
X0078734Y0067840D01*
X0078837Y0067899D01*
X0078942Y0067954D01*
X0079049Y0068006D01*
X0079157Y0068054D01*
X0079267Y0068098D01*
X0079378Y0068139D01*
X0079490Y0068176D01*
X0079604Y0068209D01*
X0079719Y0068238D01*
X0079834Y0068264D01*
X0079951Y0068286D01*
X0080068Y0068303D01*
X0080185Y0068317D01*
X0080303Y0068327D01*
X0080422Y0068333D01*
X0080540Y0068335D01*
X0080658Y0068333D01*
X0080777Y0068327D01*
X0080895Y0068317D01*
X0081012Y0068303D01*
X0081129Y0068286D01*
X0081246Y0068264D01*
X0081361Y0068238D01*
X0081476Y0068209D01*
X0081590Y0068176D01*
X0081702Y0068139D01*
X0081813Y0068098D01*
X0081923Y0068054D01*
X0082031Y0068006D01*
X0082138Y0067954D01*
X0082243Y0067899D01*
X0082346Y0067840D01*
X0082446Y0067778D01*
X0082545Y0067713D01*
X0082642Y0067644D01*
X0082736Y0067573D01*
X0082827Y0067498D01*
X0082917Y0067420D01*
X0083003Y0067339D01*
X0083087Y0067255D01*
X0083168Y0067169D01*
X0083246Y0067079D01*
X0083321Y0066988D01*
X0083392Y0066894D01*
X0083461Y0066797D01*
X0083526Y0066698D01*
X0083588Y0066598D01*
X0083647Y0066495D01*
X0083702Y0066390D01*
X0083754Y0066283D01*
X0083802Y0066175D01*
X0083846Y0066065D01*
X0083887Y0065954D01*
X0083924Y0065842D01*
X0083957Y0065728D01*
X0083986Y0065613D01*
X0084012Y0065498D01*
X0084034Y0065381D01*
X0084051Y0065264D01*
X0084065Y0065147D01*
X0084075Y0065029D01*
X0084081Y0064910D01*
X0084083Y0064792D01*
X0084081Y0064674D01*
X0084075Y0064555D01*
X0084065Y0064437D01*
X0084051Y0064320D01*
X0084034Y0064203D01*
X0084012Y0064086D01*
X0083986Y0063971D01*
X0083957Y0063856D01*
X0083924Y0063742D01*
X0083887Y0063630D01*
X0083846Y0063519D01*
X0083802Y0063409D01*
X0083754Y0063301D01*
X0083702Y0063194D01*
X0083647Y0063089D01*
X0083588Y0062986D01*
X0083526Y0062886D01*
X0083461Y0062787D01*
X0083392Y0062690D01*
X0083321Y0062596D01*
X0083246Y0062505D01*
X0083168Y0062415D01*
X0083087Y0062329D01*
X0083003Y0062245D01*
X0082917Y0062164D01*
X0082827Y0062086D01*
X0082736Y0062011D01*
X0082642Y0061940D01*
X0082545Y0061871D01*
X0082446Y0061806D01*
X0082346Y0061744D01*
X0082243Y0061685D01*
X0082138Y0061630D01*
X0082031Y0061578D01*
X0081923Y0061530D01*
X0081813Y0061486D01*
X0081702Y0061445D01*
X0081590Y0061408D01*
X0081476Y0061375D01*
X0081361Y0061346D01*
X0081246Y0061320D01*
X0081129Y0061298D01*
X0081012Y0061281D01*
X0080895Y0061267D01*
X0080777Y0061257D01*
X0080658Y0061251D01*
X0080540Y0061249D01*
X0080422Y0061251D01*
X0080303Y0061257D01*
X0080185Y0061267D01*
X0080068Y0061281D01*
X0079951Y0061298D01*
X0079834Y0061320D01*
X0079719Y0061346D01*
X0079604Y0061375D01*
X0079490Y0061408D01*
X0079378Y0061445D01*
X0079267Y0061486D01*
X0079157Y0061530D01*
X0079049Y0061578D01*
X0078942Y0061630D01*
X0078837Y0061685D01*
X0078734Y0061744D01*
X0078634Y0061806D01*
X0078535Y0061871D01*
X0078438Y0061940D01*
X0078344Y0062011D01*
X0078253Y0062086D01*
X0078163Y0062164D01*
X0078077Y0062245D01*
X0077993Y0062329D01*
X0077912Y0062415D01*
X0077834Y0062505D01*
X0077759Y0062596D01*
X0077688Y0062690D01*
X0077619Y0062787D01*
X0077554Y0062886D01*
X0077492Y0062986D01*
X0077433Y0063089D01*
X0077378Y0063194D01*
X0077326Y0063301D01*
X0077278Y0063409D01*
X0077234Y0063519D01*
X0077193Y0063630D01*
X0077156Y0063742D01*
X0077123Y0063856D01*
X0077094Y0063971D01*
X0077068Y0064086D01*
X0077046Y0064203D01*
X0077029Y0064320D01*
X0077015Y0064437D01*
X0077005Y0064555D01*
X0076999Y0064674D01*
X0076997Y0064792D01*
X0234477Y0064792D02*
X0234479Y0064910D01*
X0234485Y0065029D01*
X0234495Y0065147D01*
X0234509Y0065264D01*
X0234526Y0065381D01*
X0234548Y0065498D01*
X0234574Y0065613D01*
X0234603Y0065728D01*
X0234636Y0065842D01*
X0234673Y0065954D01*
X0234714Y0066065D01*
X0234758Y0066175D01*
X0234806Y0066283D01*
X0234858Y0066390D01*
X0234913Y0066495D01*
X0234972Y0066598D01*
X0235034Y0066698D01*
X0235099Y0066797D01*
X0235168Y0066894D01*
X0235239Y0066988D01*
X0235314Y0067079D01*
X0235392Y0067169D01*
X0235473Y0067255D01*
X0235557Y0067339D01*
X0235643Y0067420D01*
X0235733Y0067498D01*
X0235824Y0067573D01*
X0235918Y0067644D01*
X0236015Y0067713D01*
X0236114Y0067778D01*
X0236214Y0067840D01*
X0236317Y0067899D01*
X0236422Y0067954D01*
X0236529Y0068006D01*
X0236637Y0068054D01*
X0236747Y0068098D01*
X0236858Y0068139D01*
X0236970Y0068176D01*
X0237084Y0068209D01*
X0237199Y0068238D01*
X0237314Y0068264D01*
X0237431Y0068286D01*
X0237548Y0068303D01*
X0237665Y0068317D01*
X0237783Y0068327D01*
X0237902Y0068333D01*
X0238020Y0068335D01*
X0238138Y0068333D01*
X0238257Y0068327D01*
X0238375Y0068317D01*
X0238492Y0068303D01*
X0238609Y0068286D01*
X0238726Y0068264D01*
X0238841Y0068238D01*
X0238956Y0068209D01*
X0239070Y0068176D01*
X0239182Y0068139D01*
X0239293Y0068098D01*
X0239403Y0068054D01*
X0239511Y0068006D01*
X0239618Y0067954D01*
X0239723Y0067899D01*
X0239826Y0067840D01*
X0239926Y0067778D01*
X0240025Y0067713D01*
X0240122Y0067644D01*
X0240216Y0067573D01*
X0240307Y0067498D01*
X0240397Y0067420D01*
X0240483Y0067339D01*
X0240567Y0067255D01*
X0240648Y0067169D01*
X0240726Y0067079D01*
X0240801Y0066988D01*
X0240872Y0066894D01*
X0240941Y0066797D01*
X0241006Y0066698D01*
X0241068Y0066598D01*
X0241127Y0066495D01*
X0241182Y0066390D01*
X0241234Y0066283D01*
X0241282Y0066175D01*
X0241326Y0066065D01*
X0241367Y0065954D01*
X0241404Y0065842D01*
X0241437Y0065728D01*
X0241466Y0065613D01*
X0241492Y0065498D01*
X0241514Y0065381D01*
X0241531Y0065264D01*
X0241545Y0065147D01*
X0241555Y0065029D01*
X0241561Y0064910D01*
X0241563Y0064792D01*
X0241561Y0064674D01*
X0241555Y0064555D01*
X0241545Y0064437D01*
X0241531Y0064320D01*
X0241514Y0064203D01*
X0241492Y0064086D01*
X0241466Y0063971D01*
X0241437Y0063856D01*
X0241404Y0063742D01*
X0241367Y0063630D01*
X0241326Y0063519D01*
X0241282Y0063409D01*
X0241234Y0063301D01*
X0241182Y0063194D01*
X0241127Y0063089D01*
X0241068Y0062986D01*
X0241006Y0062886D01*
X0240941Y0062787D01*
X0240872Y0062690D01*
X0240801Y0062596D01*
X0240726Y0062505D01*
X0240648Y0062415D01*
X0240567Y0062329D01*
X0240483Y0062245D01*
X0240397Y0062164D01*
X0240307Y0062086D01*
X0240216Y0062011D01*
X0240122Y0061940D01*
X0240025Y0061871D01*
X0239926Y0061806D01*
X0239826Y0061744D01*
X0239723Y0061685D01*
X0239618Y0061630D01*
X0239511Y0061578D01*
X0239403Y0061530D01*
X0239293Y0061486D01*
X0239182Y0061445D01*
X0239070Y0061408D01*
X0238956Y0061375D01*
X0238841Y0061346D01*
X0238726Y0061320D01*
X0238609Y0061298D01*
X0238492Y0061281D01*
X0238375Y0061267D01*
X0238257Y0061257D01*
X0238138Y0061251D01*
X0238020Y0061249D01*
X0237902Y0061251D01*
X0237783Y0061257D01*
X0237665Y0061267D01*
X0237548Y0061281D01*
X0237431Y0061298D01*
X0237314Y0061320D01*
X0237199Y0061346D01*
X0237084Y0061375D01*
X0236970Y0061408D01*
X0236858Y0061445D01*
X0236747Y0061486D01*
X0236637Y0061530D01*
X0236529Y0061578D01*
X0236422Y0061630D01*
X0236317Y0061685D01*
X0236214Y0061744D01*
X0236114Y0061806D01*
X0236015Y0061871D01*
X0235918Y0061940D01*
X0235824Y0062011D01*
X0235733Y0062086D01*
X0235643Y0062164D01*
X0235557Y0062245D01*
X0235473Y0062329D01*
X0235392Y0062415D01*
X0235314Y0062505D01*
X0235239Y0062596D01*
X0235168Y0062690D01*
X0235099Y0062787D01*
X0235034Y0062886D01*
X0234972Y0062986D01*
X0234913Y0063089D01*
X0234858Y0063194D01*
X0234806Y0063301D01*
X0234758Y0063409D01*
X0234714Y0063519D01*
X0234673Y0063630D01*
X0234636Y0063742D01*
X0234603Y0063856D01*
X0234574Y0063971D01*
X0234548Y0064086D01*
X0234526Y0064203D01*
X0234509Y0064320D01*
X0234495Y0064437D01*
X0234485Y0064555D01*
X0234479Y0064674D01*
X0234477Y0064792D01*
D11*
X0062538Y0031061D02*
X0061736Y0031312D01*
X0060935Y0031569D01*
X0060137Y0031832D01*
X0059340Y0032101D01*
X0058545Y0032375D01*
X0057752Y0032656D01*
X0056961Y0032944D01*
X0056172Y0033239D01*
X0055385Y0033541D01*
X0054601Y0033850D01*
X0053819Y0034167D01*
X0053040Y0034493D01*
X0052263Y0034827D01*
X0051489Y0035170D01*
X0050718Y0035522D01*
X0049949Y0035884D01*
X0049184Y0036257D01*
X0048423Y0036640D01*
X0047668Y0037034D01*
X0046918Y0037439D01*
X0046176Y0037856D01*
X0045441Y0038285D01*
X0044928Y0038595D01*
X0044906Y0038608D01*
X0044884Y0038622D01*
X0044862Y0038635D01*
X0044841Y0038649D01*
X0044819Y0038662D01*
X0044798Y0038676D01*
X0044776Y0038690D01*
X0044754Y0038704D01*
X0044733Y0038718D01*
X0044711Y0038732D01*
X0044690Y0038746D01*
X0044668Y0038761D01*
X0044647Y0038775D01*
X0044626Y0038790D01*
X0044604Y0038804D01*
X0044583Y0038819D01*
X0044562Y0038833D01*
X0044540Y0038848D01*
X0044519Y0038863D01*
X0044498Y0038878D01*
X0044477Y0038893D01*
X0044456Y0038908D01*
X0044435Y0038923D01*
X0044414Y0038938D01*
X0044393Y0038954D01*
X0044372Y0038969D01*
X0044351Y0038985D01*
X0044330Y0039000D01*
X0044309Y0039016D01*
X0044288Y0039032D01*
X0044267Y0039047D01*
X0044247Y0039063D01*
X0044226Y0039079D01*
X0044205Y0039095D01*
X0044185Y0039111D01*
X0044164Y0039128D01*
X0044143Y0039144D01*
X0044123Y0039160D01*
X0044102Y0039177D01*
X0044082Y0039193D01*
X0044062Y0039210D01*
X0044041Y0039227D01*
X0044021Y0039243D01*
X0044001Y0039260D01*
X0043980Y0039277D01*
X0043960Y0039294D01*
X0043940Y0039311D01*
X0043920Y0039328D01*
X0043900Y0039346D01*
X0043880Y0039363D01*
X0043860Y0039380D01*
X0043840Y0039398D01*
X0043820Y0039415D01*
X0043800Y0039433D01*
X0043781Y0039451D01*
X0043761Y0039468D01*
X0043741Y0039486D01*
X0043722Y0039504D01*
X0043702Y0039522D01*
X0043683Y0039540D01*
X0043663Y0039558D01*
X0043644Y0039577D01*
X0043624Y0039595D01*
X0043605Y0039613D01*
X0043586Y0039632D01*
X0043567Y0039650D01*
X0043548Y0039669D01*
X0043529Y0039688D01*
X0043509Y0039706D01*
X0043491Y0039725D01*
X0043472Y0039744D01*
X0043453Y0039763D01*
X0043434Y0039782D01*
X0043415Y0039801D01*
X0043396Y0039820D01*
X0043378Y0039840D01*
X0043359Y0039859D01*
X0043341Y0039878D01*
X0043322Y0039898D01*
X0043304Y0039917D01*
X0043285Y0039937D01*
X0043267Y0039957D01*
X0043249Y0039976D01*
X0043231Y0039996D01*
X0043213Y0040016D01*
X0043195Y0040036D01*
X0043177Y0040056D01*
X0043159Y0040076D01*
X0043141Y0040096D01*
X0043123Y0040117D01*
X0043105Y0040137D01*
X0043088Y0040157D01*
X0043070Y0040178D01*
X0043052Y0040198D01*
X0043035Y0040219D01*
X0043018Y0040239D01*
X0043000Y0040260D01*
X0042983Y0040281D01*
X0042966Y0040302D01*
X0042949Y0040323D01*
X0042931Y0040344D01*
X0042914Y0040365D01*
X0042898Y0040386D01*
X0042881Y0040407D01*
X0042864Y0040428D01*
X0042847Y0040449D01*
X0042830Y0040471D01*
X0042814Y0040492D01*
X0042797Y0040514D01*
X0042781Y0040535D01*
X0042764Y0040557D01*
X0042748Y0040578D01*
X0042732Y0040600D01*
X0042716Y0040622D01*
X0042699Y0040644D01*
X0042683Y0040666D01*
X0042667Y0040688D01*
X0042652Y0040710D01*
X0042636Y0040732D01*
X0042620Y0040754D01*
X0042604Y0040776D01*
X0042589Y0040798D01*
X0042573Y0040821D01*
X0042558Y0040843D01*
X0042542Y0040865D01*
X0042527Y0040888D01*
X0042512Y0040911D01*
X0042497Y0040933D01*
X0042482Y0040956D01*
X0042467Y0040979D01*
X0042452Y0041001D01*
X0042437Y0041024D01*
X0042422Y0041047D01*
X0042407Y0041070D01*
X0042393Y0041093D01*
X0042378Y0041116D01*
X0042364Y0041139D01*
X0042349Y0041162D01*
X0042335Y0041185D01*
X0042321Y0041208D01*
X0042307Y0041232D01*
X0042293Y0041255D01*
X0042279Y0041279D01*
X0042265Y0041302D01*
X0042251Y0041325D01*
X0042237Y0041349D01*
X0042224Y0041373D01*
X0042210Y0041396D01*
X0042196Y0041420D01*
X0042183Y0041444D01*
X0042170Y0041467D01*
X0042156Y0041491D01*
X0042143Y0041515D01*
X0042130Y0041539D01*
X0042117Y0041563D01*
X0042104Y0041587D01*
X0042091Y0041611D01*
X0042079Y0041635D01*
X0042066Y0041659D01*
X0042053Y0041683D01*
X0042041Y0041707D01*
X0042029Y0041732D01*
X0042016Y0041756D01*
X0042004Y0041780D01*
X0041992Y0041805D01*
X0041980Y0041829D01*
X0041968Y0041854D01*
X0041956Y0041878D01*
X0041944Y0041903D01*
X0041932Y0041927D01*
X0041921Y0041952D01*
X0041909Y0041976D01*
X0041898Y0042001D01*
X0041886Y0042026D01*
X0041875Y0042051D01*
X0041864Y0042075D01*
X0041853Y0042100D01*
X0041842Y0042125D01*
X0041831Y0042150D01*
X0041820Y0042175D01*
X0041809Y0042200D01*
X0041798Y0042225D01*
X0041788Y0042250D01*
X0041777Y0042275D01*
X0041767Y0042300D01*
X0041757Y0042325D01*
X0041746Y0042350D01*
X0041736Y0042375D01*
X0041726Y0042401D01*
X0041716Y0042426D01*
X0041706Y0042451D01*
X0041696Y0042476D01*
X0041687Y0042502D01*
X0041677Y0042527D01*
X0041668Y0042552D01*
X0041658Y0042578D01*
X0041649Y0042603D01*
X0041640Y0042629D01*
X0041630Y0042654D01*
X0041621Y0042680D01*
X0041612Y0042705D01*
X0041604Y0042731D01*
X0041595Y0042756D01*
X0041586Y0042782D01*
X0041577Y0042807D01*
X0041569Y0042833D01*
X0041560Y0042859D01*
X0041552Y0042884D01*
X0041544Y0042910D01*
X0041536Y0042936D01*
X0041528Y0042961D01*
X0041520Y0042987D01*
X0041512Y0043013D01*
X0041504Y0043039D01*
X0041496Y0043065D01*
X0041489Y0043090D01*
X0041481Y0043116D01*
X0041474Y0043142D01*
X0041466Y0043168D01*
X0041459Y0043194D01*
X0041452Y0043220D01*
X0041445Y0043245D01*
X0041438Y0043271D01*
X0041431Y0043297D01*
X0041424Y0043323D01*
X0041417Y0043349D01*
X0041411Y0043375D01*
X0041404Y0043401D01*
X0041398Y0043427D01*
X0041391Y0043453D01*
X0041385Y0043479D01*
X0041379Y0043505D01*
X0041373Y0043531D01*
X0041367Y0043557D01*
X0041361Y0043583D01*
X0041355Y0043609D01*
X0041350Y0043635D01*
X0041344Y0043661D01*
X0041338Y0043687D01*
X0041333Y0043714D01*
X0041328Y0043740D01*
X0041322Y0043766D01*
X0041317Y0043792D01*
X0041312Y0043818D01*
X0041307Y0043844D01*
X0041302Y0043870D01*
X0041298Y0043896D01*
X0041293Y0043922D01*
X0041288Y0043948D01*
X0041284Y0043974D01*
X0041279Y0044000D01*
X0041275Y0044027D01*
X0041271Y0044053D01*
X0041266Y0044079D01*
X0041262Y0044105D01*
X0041258Y0044131D01*
X0041255Y0044157D01*
X0041251Y0044183D01*
X0041247Y0044209D01*
X0041243Y0044235D01*
X0041240Y0044261D01*
X0041236Y0044287D01*
X0041233Y0044313D01*
X0041230Y0044339D01*
X0041227Y0044365D01*
X0041223Y0044391D01*
X0041220Y0044418D01*
X0041218Y0044444D01*
X0041215Y0044469D01*
X0041212Y0044495D01*
X0041209Y0044521D01*
X0041207Y0044547D01*
X0041204Y0044573D01*
X0041202Y0044599D01*
X0041200Y0044625D01*
X0041197Y0044651D01*
X0041195Y0044677D01*
X0041193Y0044703D01*
X0041191Y0044729D01*
X0041189Y0044755D01*
X0041188Y0044781D01*
X0041186Y0044807D01*
X0041184Y0044832D01*
X0041183Y0044858D01*
X0041181Y0044884D01*
X0041180Y0044910D01*
X0041179Y0044936D01*
X0041178Y0044962D01*
X0041177Y0044987D01*
X0041176Y0045013D01*
X0041175Y0045039D01*
X0041174Y0045065D01*
X0041173Y0045090D01*
X0041172Y0045116D01*
X0041172Y0045142D01*
X0041171Y0045167D01*
X0041171Y0045193D01*
X0041171Y0045218D01*
X0041170Y0045244D01*
X0041170Y0045269D01*
X0041170Y0045295D01*
X0041170Y0084290D01*
X0041170Y0084315D01*
X0041170Y0084341D01*
X0041170Y0084366D01*
X0041171Y0084392D01*
X0041171Y0084418D01*
X0041172Y0084443D01*
X0041172Y0084469D01*
X0041173Y0084494D01*
X0041174Y0084520D01*
X0041174Y0084546D01*
X0041175Y0084572D01*
X0041176Y0084597D01*
X0041177Y0084623D01*
X0041178Y0084649D01*
X0041180Y0084675D01*
X0041181Y0084701D01*
X0041182Y0084726D01*
X0041184Y0084752D01*
X0041185Y0084778D01*
X0041187Y0084804D01*
X0041189Y0084830D01*
X0041191Y0084856D01*
X0041193Y0084881D01*
X0041195Y0084907D01*
X0041197Y0084933D01*
X0041199Y0084959D01*
X0041201Y0084985D01*
X0041204Y0085011D01*
X0041206Y0085037D01*
X0041209Y0085063D01*
X0041211Y0085089D01*
X0041214Y0085115D01*
X0041217Y0085141D01*
X0041220Y0085167D01*
X0041223Y0085193D01*
X0041226Y0085219D01*
X0041229Y0085245D01*
X0041232Y0085271D01*
X0041235Y0085297D01*
X0041239Y0085323D01*
X0041242Y0085350D01*
X0041246Y0085376D01*
X0041250Y0085402D01*
X0041253Y0085428D01*
X0041257Y0085454D01*
X0041261Y0085480D01*
X0041265Y0085506D01*
X0041269Y0085532D01*
X0041274Y0085558D01*
X0041278Y0085584D01*
X0041282Y0085610D01*
X0041287Y0085636D01*
X0041291Y0085663D01*
X0041296Y0085689D01*
X0041301Y0085715D01*
X0041306Y0085741D01*
X0041311Y0085767D01*
X0041316Y0085793D01*
X0041321Y0085819D01*
X0041326Y0085845D01*
X0041331Y0085871D01*
X0041337Y0085897D01*
X0041342Y0085923D01*
X0041348Y0085949D01*
X0041353Y0085975D01*
X0041359Y0086001D01*
X0041365Y0086027D01*
X0041371Y0086054D01*
X0041377Y0086080D01*
X0041383Y0086106D01*
X0041389Y0086131D01*
X0041396Y0086157D01*
X0041402Y0086183D01*
X0041409Y0086209D01*
X0041415Y0086235D01*
X0041422Y0086261D01*
X0041429Y0086287D01*
X0041436Y0086313D01*
X0041443Y0086339D01*
X0041450Y0086365D01*
X0041457Y0086391D01*
X0041464Y0086417D01*
X0041471Y0086443D01*
X0041479Y0086469D01*
X0041486Y0086494D01*
X0041494Y0086520D01*
X0041501Y0086546D01*
X0041509Y0086572D01*
X0041517Y0086598D01*
X0041525Y0086623D01*
X0041533Y0086649D01*
X0041541Y0086675D01*
X0041549Y0086700D01*
X0041558Y0086726D01*
X0041566Y0086752D01*
X0041575Y0086777D01*
X0041583Y0086803D01*
X0041592Y0086829D01*
X0041601Y0086854D01*
X0041610Y0086880D01*
X0041619Y0086905D01*
X0041628Y0086931D01*
X0041637Y0086956D01*
X0041646Y0086982D01*
X0041655Y0087007D01*
X0041665Y0087032D01*
X0041674Y0087058D01*
X0041684Y0087083D01*
X0041693Y0087108D01*
X0041703Y0087134D01*
X0041713Y0087159D01*
X0041723Y0087184D01*
X0041733Y0087209D01*
X0041743Y0087235D01*
X0041753Y0087260D01*
X0041764Y0087285D01*
X0041774Y0087310D01*
X0041784Y0087335D01*
X0041795Y0087360D01*
X0041806Y0087385D01*
X0041816Y0087410D01*
X0041827Y0087435D01*
X0041838Y0087460D01*
X0041849Y0087485D01*
X0041860Y0087510D01*
X0041871Y0087534D01*
X0041883Y0087559D01*
X0041894Y0087584D01*
X0041906Y0087609D01*
X0041917Y0087633D01*
X0041929Y0087658D01*
X0041940Y0087682D01*
X0041952Y0087707D01*
X0041964Y0087731D01*
X0041976Y0087756D01*
X0041988Y0087781D01*
X0042000Y0087805D01*
X0042012Y0087829D01*
X0042025Y0087854D01*
X0042037Y0087878D01*
X0042050Y0087902D01*
X0042062Y0087926D01*
X0042075Y0087950D01*
X0042087Y0087974D01*
X0042100Y0087998D01*
X0042113Y0088022D01*
X0042126Y0088046D01*
X0042139Y0088070D01*
X0042152Y0088094D01*
X0042166Y0088118D01*
X0042179Y0088142D01*
X0042192Y0088166D01*
X0042206Y0088189D01*
X0042219Y0088213D01*
X0042233Y0088236D01*
X0042247Y0088260D01*
X0042260Y0088283D01*
X0042274Y0088307D01*
X0042288Y0088330D01*
X0042302Y0088354D01*
X0042316Y0088377D01*
X0042331Y0088400D01*
X0042345Y0088423D01*
X0042359Y0088447D01*
X0042374Y0088470D01*
X0042388Y0088493D01*
X0042403Y0088516D01*
X0042417Y0088539D01*
X0042432Y0088562D01*
X0042447Y0088584D01*
X0042462Y0088607D01*
X0042477Y0088630D01*
X0042492Y0088653D01*
X0042507Y0088675D01*
X0042522Y0088698D01*
X0042538Y0088720D01*
X0042553Y0088743D01*
X0042568Y0088765D01*
X0042584Y0088787D01*
X0042599Y0088810D01*
X0042615Y0088832D01*
X0042631Y0088854D01*
X0042647Y0088876D01*
X0042662Y0088898D01*
X0042678Y0088920D01*
X0042694Y0088942D01*
X0042711Y0088964D01*
X0042727Y0088986D01*
X0042743Y0089008D01*
X0042759Y0089029D01*
X0042776Y0089051D01*
X0042792Y0089072D01*
X0042809Y0089094D01*
X0042825Y0089115D01*
X0042842Y0089137D01*
X0042859Y0089158D01*
X0042875Y0089179D01*
X0042892Y0089201D01*
X0042909Y0089222D01*
X0042926Y0089243D01*
X0042943Y0089264D01*
X0042960Y0089285D01*
X0042978Y0089306D01*
X0042995Y0089326D01*
X0043012Y0089347D01*
X0043030Y0089368D01*
X0043047Y0089388D01*
X0043064Y0089409D01*
X0043082Y0089429D01*
X0043100Y0089450D01*
X0043117Y0089470D01*
X0043135Y0089490D01*
X0043153Y0089510D01*
X0043171Y0089531D01*
X0043189Y0089551D01*
X0043207Y0089570D01*
X0043225Y0089591D01*
X0043243Y0089610D01*
X0043261Y0089630D01*
X0043280Y0089650D01*
X0043298Y0089669D01*
X0043316Y0089689D01*
X0043335Y0089708D01*
X0043353Y0089728D01*
X0043372Y0089747D01*
X0043391Y0089767D01*
X0043409Y0089786D01*
X0043428Y0089805D01*
X0043447Y0089824D01*
X0043466Y0089843D01*
X0043485Y0089862D01*
X0043504Y0089881D01*
X0043523Y0089899D01*
X0043542Y0089918D01*
X0043561Y0089937D01*
X0043580Y0089955D01*
X0043599Y0089974D01*
X0043618Y0089992D01*
X0043638Y0090010D01*
X0043657Y0090029D01*
X0043677Y0090047D01*
X0043696Y0090065D01*
X0043716Y0090083D01*
X0043735Y0090101D01*
X0043755Y0090119D01*
X0043775Y0090137D01*
X0043814Y0090172D01*
X0043854Y0090207D01*
X0043874Y0090224D01*
X0043914Y0090259D01*
X0043954Y0090293D01*
X0043974Y0090310D01*
X0043994Y0090327D01*
X0044014Y0090344D01*
X0044035Y0090361D01*
X0044055Y0090378D01*
X0044076Y0090394D01*
X0044096Y0090411D01*
X0044116Y0090427D01*
X0044137Y0090444D01*
X0044157Y0090460D01*
X0044178Y0090476D01*
X0044199Y0090493D01*
X0044219Y0090508D01*
X0044240Y0090524D01*
X0044261Y0090540D01*
X0044282Y0090556D01*
X0044323Y0090588D01*
X0044344Y0090603D01*
X0044365Y0090619D01*
X0044407Y0090650D01*
X0044428Y0090665D01*
X0044449Y0090680D01*
X0044470Y0090695D01*
X0044491Y0090710D01*
X0044513Y0090725D01*
X0044534Y0090740D01*
X0044555Y0090755D01*
X0044576Y0090769D01*
X0044598Y0090784D01*
X0044619Y0090799D01*
X0044640Y0090813D01*
X0044662Y0090828D01*
X0044683Y0090842D01*
X0044705Y0090856D01*
X0044726Y0090870D01*
X0044748Y0090884D01*
X0044769Y0090898D01*
X0044791Y0090912D01*
X0044812Y0090926D01*
X0044834Y0090940D01*
X0044856Y0090953D01*
X0044877Y0090967D01*
X0044899Y0090981D01*
X0044921Y0090994D01*
X0045239Y0091187D01*
X0045979Y0091624D01*
X0046726Y0092047D01*
X0047479Y0092459D01*
X0048239Y0092858D01*
X0049004Y0093246D01*
X0049774Y0093624D01*
X0050549Y0093992D01*
X0051329Y0094350D01*
X0052113Y0094699D01*
X0052902Y0095040D01*
X0053694Y0095373D01*
X0054490Y0095697D01*
X0055289Y0096013D01*
X0056091Y0096322D01*
X0056895Y0096623D01*
X0057702Y0096917D01*
X0058510Y0097204D01*
X0059320Y0097484D01*
X0060132Y0097757D01*
X0060945Y0098025D01*
X0061760Y0098287D01*
X0062578Y0098542D01*
X0063396Y0098792D01*
X0064217Y0099037D01*
X0065038Y0099276D01*
X0065862Y0099510D01*
X0066686Y0099740D01*
X0067513Y0099964D01*
X0068341Y0100184D01*
X0069170Y0100400D01*
X0070000Y0100611D01*
X0070832Y0100818D01*
X0071665Y0101020D01*
X0072500Y0101219D01*
X0073335Y0101413D01*
X0074171Y0101604D01*
X0075008Y0101790D01*
X0075846Y0101973D01*
X0076685Y0102152D01*
X0077524Y0102327D01*
X0078364Y0102499D01*
X0079204Y0102668D01*
X0080045Y0102832D01*
X0080886Y0102994D01*
X0081728Y0103153D01*
X0082570Y0103308D01*
X0083412Y0103460D01*
X0084254Y0103610D01*
X0085096Y0103756D01*
X0085939Y0103899D01*
X0086782Y0104040D01*
X0087625Y0104178D01*
X0088469Y0104313D01*
X0089313Y0104445D01*
X0090156Y0104574D01*
X0091001Y0104701D01*
X0091845Y0104826D01*
X0092690Y0104947D01*
X0093534Y0105067D01*
X0094379Y0105184D01*
X0095224Y0105298D01*
X0096070Y0105411D01*
X0096915Y0105521D01*
X0097761Y0105629D01*
X0098607Y0105734D01*
X0099453Y0105838D01*
X0100299Y0105940D01*
X0101146Y0106039D01*
X0101992Y0106137D01*
X0102839Y0106232D01*
X0103686Y0106326D01*
X0104533Y0106417D01*
X0105380Y0106507D01*
X0106228Y0106595D01*
X0107075Y0106680D01*
X0107923Y0106764D01*
X0108771Y0106846D01*
X0109619Y0106927D01*
X0110467Y0107005D01*
X0111316Y0107082D01*
X0112164Y0107156D01*
X0113013Y0107230D01*
X0113861Y0107301D01*
X0114710Y0107371D01*
X0115559Y0107439D01*
X0116409Y0107505D01*
X0117258Y0107570D01*
X0118107Y0107633D01*
X0118957Y0107695D01*
X0119807Y0107755D01*
X0120657Y0107813D01*
X0121507Y0107870D01*
X0122357Y0107925D01*
X0123207Y0107979D01*
X0124057Y0108032D01*
X0124908Y0108083D01*
X0124974Y0108087D01*
X0125027Y0108090D01*
X0125054Y0108091D01*
X0125107Y0108093D01*
X0125134Y0108094D01*
X0125187Y0108096D01*
X0125214Y0108097D01*
X0125267Y0108098D01*
X0125294Y0108098D01*
X0125320Y0108099D01*
X0125347Y0108099D01*
X0125374Y0108099D01*
X0125400Y0108099D01*
X0193173Y0108099D01*
X0193200Y0108099D01*
X0193227Y0108099D01*
X0193280Y0108098D01*
X0193307Y0108097D01*
X0193333Y0108097D01*
X0193360Y0108096D01*
X0193413Y0108095D01*
X0193440Y0108094D01*
X0193467Y0108093D01*
X0193493Y0108092D01*
X0193520Y0108090D01*
X0193546Y0108089D01*
X0193573Y0108087D01*
X0193600Y0108086D01*
X0194103Y0108056D01*
X0194943Y0108005D01*
X0195782Y0107952D01*
X0196621Y0107897D01*
X0197461Y0107842D01*
X0198300Y0107785D01*
X0199139Y0107726D01*
X0199978Y0107666D01*
X0200817Y0107605D01*
X0201656Y0107541D01*
X0202495Y0107477D01*
X0203333Y0107410D01*
X0204172Y0107342D01*
X0205010Y0107273D01*
X0205848Y0107201D01*
X0206686Y0107129D01*
X0207524Y0107054D01*
X0208362Y0106977D01*
X0209200Y0106899D01*
X0210037Y0106819D01*
X0210875Y0106738D01*
X0211712Y0106654D01*
X0212549Y0106569D01*
X0213386Y0106481D01*
X0214223Y0106393D01*
X0215059Y0106301D01*
X0215896Y0106208D01*
X0216732Y0106114D01*
X0217569Y0106017D01*
X0218405Y0105918D01*
X0219241Y0105817D01*
X0220076Y0105714D01*
X0220912Y0105609D01*
X0221747Y0105502D01*
X0222583Y0105393D01*
X0223418Y0105281D01*
X0224253Y0105168D01*
X0225088Y0105052D01*
X0225923Y0104933D01*
X0226757Y0104813D01*
X0227592Y0104689D01*
X0228426Y0104564D01*
X0229260Y0104435D01*
X0230094Y0104305D01*
X0230927Y0104171D01*
X0231761Y0104035D01*
X0232594Y0103896D01*
X0233426Y0103755D01*
X0234259Y0103610D01*
X0235091Y0103462D01*
X0235923Y0103312D01*
X0236754Y0103159D01*
X0237585Y0103002D01*
X0238416Y0102843D01*
X0239245Y0102680D01*
X0240074Y0102515D01*
X0240900Y0102346D01*
X0241727Y0102173D01*
X0242552Y0101998D01*
X0243377Y0101819D01*
X0244200Y0101636D01*
X0245022Y0101450D01*
X0245843Y0101259D01*
X0246662Y0101065D01*
X0247481Y0100868D01*
X0248298Y0100665D01*
X0249115Y0100459D01*
X0249930Y0100249D01*
X0250743Y0100034D01*
X0251556Y0099815D01*
X0252365Y0099591D01*
X0253174Y0099363D01*
X0253983Y0099130D01*
X0254788Y0098892D01*
X0255593Y0098649D01*
X0256396Y0098401D01*
X0257198Y0098146D01*
X0257997Y0097887D01*
X0258796Y0097621D01*
X0259591Y0097350D01*
X0260385Y0097072D01*
X0261178Y0096788D01*
X0261967Y0096497D01*
X0262755Y0096199D01*
X0263540Y0095893D01*
X0264324Y0095580D01*
X0265105Y0095259D01*
X0265883Y0094930D01*
X0266658Y0094591D01*
X0267430Y0094244D01*
X0268200Y0093887D01*
X0268967Y0093520D01*
X0269731Y0093143D01*
X0270489Y0092754D01*
X0271243Y0092355D01*
X0271989Y0091944D01*
X0272727Y0091522D01*
X0273459Y0091087D01*
X0273644Y0090974D01*
X0273688Y0090947D01*
X0273709Y0090934D01*
X0273774Y0090893D01*
X0273839Y0090851D01*
X0273859Y0090836D01*
X0273881Y0090822D01*
X0273924Y0090794D01*
X0273989Y0090750D01*
X0274009Y0090735D01*
X0274030Y0090720D01*
X0274074Y0090690D01*
X0274095Y0090675D01*
X0274115Y0090660D01*
X0274137Y0090645D01*
X0274158Y0090630D01*
X0274178Y0090614D01*
X0274221Y0090583D01*
X0274241Y0090568D01*
X0274263Y0090552D01*
X0274282Y0090536D01*
X0274304Y0090520D01*
X0274324Y0090504D01*
X0274345Y0090488D01*
X0274365Y0090472D01*
X0274387Y0090456D01*
X0274406Y0090440D01*
X0274428Y0090424D01*
X0274448Y0090407D01*
X0274469Y0090391D01*
X0274489Y0090374D01*
X0274509Y0090357D01*
X0274530Y0090341D01*
X0274550Y0090324D01*
X0274589Y0090290D01*
X0274611Y0090273D01*
X0274650Y0090239D01*
X0274690Y0090204D01*
X0274711Y0090187D01*
X0274731Y0090169D01*
X0274751Y0090152D01*
X0274770Y0090134D01*
X0274790Y0090116D01*
X0274810Y0090098D01*
X0274849Y0090063D01*
X0274889Y0090026D01*
X0274906Y0090008D01*
X0274946Y0089972D01*
X0274965Y0089953D01*
X0274985Y0089935D01*
X0275003Y0089916D01*
X0275022Y0089898D01*
X0275042Y0089879D01*
X0275060Y0089860D01*
X0275099Y0089822D01*
X0275117Y0089803D01*
X0275137Y0089784D01*
X0275154Y0089765D01*
X0275174Y0089746D01*
X0275192Y0089727D01*
X0275211Y0089707D01*
X0275247Y0089668D01*
X0275267Y0089649D01*
X0275284Y0089629D01*
X0275302Y0089609D01*
X0275322Y0089590D01*
X0275357Y0089550D01*
X0275410Y0089490D01*
X0275463Y0089429D01*
X0275517Y0089367D01*
X0275570Y0089305D01*
X0275585Y0089284D01*
X0275621Y0089243D01*
X0275639Y0089222D01*
X0275654Y0089201D01*
X0275672Y0089180D01*
X0275688Y0089158D01*
X0275706Y0089137D01*
X0275721Y0089116D01*
X0275739Y0089094D01*
X0275755Y0089073D01*
X0275772Y0089051D01*
X0275788Y0089030D01*
X0275804Y0089008D01*
X0275822Y0088986D01*
X0275837Y0088965D01*
X0275869Y0088921D01*
X0275885Y0088899D01*
X0275900Y0088877D01*
X0275916Y0088855D01*
X0275932Y0088833D01*
X0275948Y0088811D01*
X0275979Y0088766D01*
X0276042Y0088677D01*
X0276056Y0088654D01*
X0276087Y0088609D01*
X0276101Y0088586D01*
X0276117Y0088563D01*
X0276131Y0088540D01*
X0276146Y0088517D01*
X0276160Y0088494D01*
X0276176Y0088471D01*
X0276190Y0088448D01*
X0276204Y0088425D01*
X0276219Y0088402D01*
X0276247Y0088356D01*
X0276274Y0088309D01*
X0276288Y0088286D01*
X0276302Y0088262D01*
X0276316Y0088239D01*
X0276371Y0088144D01*
X0276398Y0088096D01*
X0276410Y0088073D01*
X0276424Y0088049D01*
X0276438Y0088025D01*
X0276450Y0088001D01*
X0276463Y0087977D01*
X0276475Y0087953D01*
X0276489Y0087929D01*
X0276513Y0087880D01*
X0276526Y0087856D01*
X0276538Y0087832D01*
X0276550Y0087807D01*
X0276562Y0087783D01*
X0276576Y0087759D01*
X0276587Y0087734D01*
X0276599Y0087710D01*
X0276611Y0087685D01*
X0276646Y0087612D01*
X0276656Y0087587D01*
X0276668Y0087562D01*
X0276680Y0087538D01*
X0276692Y0087513D01*
X0276702Y0087488D01*
X0276713Y0087463D01*
X0276725Y0087438D01*
X0276735Y0087413D01*
X0276747Y0087388D01*
X0276757Y0087363D01*
X0276769Y0087338D01*
X0276788Y0087288D01*
X0276798Y0087263D01*
X0276810Y0087238D01*
X0276839Y0087163D01*
X0276849Y0087137D01*
X0276869Y0087087D01*
X0276898Y0087011D01*
X0276906Y0086985D01*
X0276926Y0086934D01*
X0276934Y0086909D01*
X0276944Y0086883D01*
X0276954Y0086858D01*
X0276961Y0086832D01*
X0276971Y0086807D01*
X0276987Y0086756D01*
X0276997Y0086730D01*
X0277005Y0086704D01*
X0277013Y0086679D01*
X0277020Y0086653D01*
X0277028Y0086627D01*
X0277091Y0086421D01*
X0277097Y0086395D01*
X0277105Y0086369D01*
X0277113Y0086343D01*
X0277119Y0086317D01*
X0277127Y0086291D01*
X0277133Y0086265D01*
X0277141Y0086239D01*
X0277146Y0086214D01*
X0277152Y0086188D01*
X0277160Y0086162D01*
X0277178Y0086084D01*
X0277184Y0086057D01*
X0277202Y0085980D01*
X0277207Y0085953D01*
X0277219Y0085901D01*
X0277225Y0085875D01*
X0277231Y0085849D01*
X0277235Y0085823D01*
X0277247Y0085771D01*
X0277251Y0085745D01*
X0277257Y0085719D01*
X0277261Y0085693D01*
X0277265Y0085667D01*
X0277270Y0085641D01*
X0277274Y0085615D01*
X0277278Y0085588D01*
X0277284Y0085562D01*
X0277288Y0085536D01*
X0277292Y0085510D01*
X0277296Y0085484D01*
X0277300Y0085458D01*
X0277304Y0085432D01*
X0277308Y0085406D01*
X0277316Y0085354D01*
X0277320Y0085328D01*
X0277322Y0085302D01*
X0277326Y0085275D01*
X0277330Y0085249D01*
X0277331Y0085223D01*
X0277335Y0085197D01*
X0277339Y0085171D01*
X0277341Y0085145D01*
X0277345Y0085119D01*
X0277349Y0085067D01*
X0277353Y0085041D01*
X0277359Y0084963D01*
X0277363Y0084937D01*
X0277365Y0084911D01*
X0277367Y0084886D01*
X0277369Y0084860D01*
X0277371Y0084834D01*
X0277373Y0084808D01*
X0277373Y0084782D01*
X0277375Y0084756D01*
X0277381Y0084679D01*
X0277381Y0084653D01*
X0277383Y0084627D01*
X0277383Y0084601D01*
X0277385Y0084576D01*
X0277385Y0084550D01*
X0277387Y0084524D01*
X0277387Y0084498D01*
X0277389Y0084473D01*
X0277389Y0084396D01*
X0277391Y0084370D01*
X0277391Y0045188D01*
X0277389Y0045162D01*
X0277389Y0045111D01*
X0277387Y0045085D01*
X0277387Y0045034D01*
X0277385Y0045008D01*
X0277385Y0044982D01*
X0277381Y0044931D01*
X0277381Y0044905D01*
X0277377Y0044854D01*
X0277377Y0044828D01*
X0277375Y0044802D01*
X0277373Y0044776D01*
X0277371Y0044750D01*
X0277369Y0044724D01*
X0277367Y0044698D01*
X0277365Y0044672D01*
X0277359Y0044594D01*
X0277355Y0044569D01*
X0277351Y0044517D01*
X0277347Y0044491D01*
X0277343Y0044439D01*
X0277339Y0044413D01*
X0277337Y0044387D01*
X0277333Y0044360D01*
X0277330Y0044334D01*
X0277328Y0044308D01*
X0277324Y0044282D01*
X0277316Y0044230D01*
X0277314Y0044204D01*
X0277310Y0044178D01*
X0277306Y0044152D01*
X0277302Y0044126D01*
X0277298Y0044100D01*
X0277294Y0044074D01*
X0277290Y0044048D01*
X0277284Y0044022D01*
X0277280Y0043995D01*
X0277276Y0043969D01*
X0277272Y0043943D01*
X0277267Y0043917D01*
X0277263Y0043891D01*
X0277257Y0043865D01*
X0277253Y0043839D01*
X0277247Y0043813D01*
X0277243Y0043787D01*
X0277237Y0043761D01*
X0277231Y0043735D01*
X0277227Y0043709D01*
X0277221Y0043682D01*
X0277209Y0043631D01*
X0277204Y0043604D01*
X0277180Y0043500D01*
X0277174Y0043474D01*
X0277162Y0043422D01*
X0277154Y0043396D01*
X0277148Y0043370D01*
X0277143Y0043344D01*
X0277135Y0043319D01*
X0277129Y0043293D01*
X0277121Y0043267D01*
X0277115Y0043241D01*
X0277107Y0043215D01*
X0277101Y0043189D01*
X0277093Y0043163D01*
X0277078Y0043111D01*
X0277072Y0043085D01*
X0277048Y0043008D01*
X0277040Y0042982D01*
X0277024Y0042931D01*
X0277015Y0042905D01*
X0277007Y0042880D01*
X0276999Y0042854D01*
X0276991Y0042828D01*
X0276981Y0042803D01*
X0276973Y0042777D01*
X0276963Y0042751D01*
X0276956Y0042726D01*
X0276946Y0042700D01*
X0276938Y0042675D01*
X0276928Y0042649D01*
X0276920Y0042624D01*
X0276891Y0042548D01*
X0276883Y0042522D01*
X0276873Y0042497D01*
X0276863Y0042472D01*
X0276853Y0042446D01*
X0276833Y0042396D01*
X0276822Y0042371D01*
X0276802Y0042320D01*
X0276792Y0042295D01*
X0276782Y0042270D01*
X0276770Y0042245D01*
X0276761Y0042220D01*
X0276749Y0042195D01*
X0276739Y0042170D01*
X0276727Y0042145D01*
X0276717Y0042120D01*
X0276706Y0042095D01*
X0276696Y0042071D01*
X0276684Y0042046D01*
X0276672Y0042021D01*
X0276660Y0041996D01*
X0276648Y0041972D01*
X0276639Y0041947D01*
X0276603Y0041873D01*
X0276580Y0041825D01*
X0276566Y0041800D01*
X0276542Y0041751D01*
X0276530Y0041727D01*
X0276517Y0041703D01*
X0276493Y0041655D01*
X0276479Y0041631D01*
X0276467Y0041606D01*
X0276454Y0041582D01*
X0276442Y0041558D01*
X0276428Y0041534D01*
X0276414Y0041511D01*
X0276402Y0041487D01*
X0276389Y0041463D01*
X0276375Y0041439D01*
X0276361Y0041415D01*
X0276347Y0041392D01*
X0276335Y0041368D01*
X0276322Y0041344D01*
X0276308Y0041321D01*
X0276294Y0041297D01*
X0276280Y0041274D01*
X0276265Y0041251D01*
X0276251Y0041227D01*
X0276223Y0041181D01*
X0276209Y0041158D01*
X0276194Y0041135D01*
X0276180Y0041112D01*
X0276166Y0041089D01*
X0276150Y0041066D01*
X0276137Y0041043D01*
X0276121Y0041020D01*
X0276107Y0040997D01*
X0276091Y0040974D01*
X0276076Y0040952D01*
X0276062Y0040929D01*
X0276046Y0040906D01*
X0276030Y0040884D01*
X0276015Y0040861D01*
X0276001Y0040839D01*
X0275985Y0040816D01*
X0275969Y0040794D01*
X0275954Y0040772D01*
X0275938Y0040750D01*
X0275922Y0040728D01*
X0275891Y0040684D01*
X0275875Y0040662D01*
X0275859Y0040640D01*
X0275841Y0040618D01*
X0275826Y0040596D01*
X0275810Y0040574D01*
X0275794Y0040553D01*
X0275776Y0040531D01*
X0275761Y0040510D01*
X0275743Y0040488D01*
X0275727Y0040467D01*
X0275711Y0040445D01*
X0275694Y0040424D01*
X0275676Y0040403D01*
X0275660Y0040382D01*
X0275643Y0040361D01*
X0275627Y0040340D01*
X0275609Y0040319D01*
X0275591Y0040298D01*
X0275574Y0040277D01*
X0275558Y0040256D01*
X0275540Y0040235D01*
X0275522Y0040215D01*
X0275505Y0040194D01*
X0275487Y0040174D01*
X0275469Y0040153D01*
X0275452Y0040133D01*
X0275434Y0040113D01*
X0275398Y0040072D01*
X0275381Y0040052D01*
X0275363Y0040032D01*
X0275345Y0040012D01*
X0275326Y0039992D01*
X0275308Y0039973D01*
X0275290Y0039953D01*
X0275272Y0039933D01*
X0275253Y0039914D01*
X0275235Y0039894D01*
X0275217Y0039875D01*
X0275198Y0039855D01*
X0275180Y0039836D01*
X0275160Y0039817D01*
X0275143Y0039797D01*
X0275123Y0039778D01*
X0275105Y0039759D01*
X0275085Y0039740D01*
X0275066Y0039722D01*
X0275048Y0039703D01*
X0275009Y0039665D01*
X0274991Y0039647D01*
X0274971Y0039628D01*
X0274952Y0039610D01*
X0274932Y0039591D01*
X0274914Y0039573D01*
X0274894Y0039555D01*
X0274875Y0039537D01*
X0274855Y0039519D01*
X0274835Y0039501D01*
X0274816Y0039483D01*
X0274796Y0039465D01*
X0274776Y0039447D01*
X0274757Y0039430D01*
X0274737Y0039412D01*
X0274698Y0039377D01*
X0274678Y0039360D01*
X0274656Y0039342D01*
X0274637Y0039325D01*
X0274617Y0039308D01*
X0274597Y0039291D01*
X0274576Y0039274D01*
X0274556Y0039257D01*
X0274536Y0039240D01*
X0274517Y0039223D01*
X0274495Y0039207D01*
X0274475Y0039190D01*
X0274454Y0039174D01*
X0274434Y0039157D01*
X0274414Y0039141D01*
X0274393Y0039125D01*
X0274373Y0039108D01*
X0274351Y0039092D01*
X0274331Y0039076D01*
X0274310Y0039060D01*
X0274290Y0039044D01*
X0274269Y0039029D01*
X0274249Y0039013D01*
X0274227Y0038997D01*
X0274206Y0038982D01*
X0274186Y0038966D01*
X0274164Y0038951D01*
X0274143Y0038936D01*
X0274123Y0038920D01*
X0274101Y0038905D01*
X0274080Y0038890D01*
X0274058Y0038875D01*
X0274038Y0038860D01*
X0274017Y0038845D01*
X0273995Y0038831D01*
X0273973Y0038816D01*
X0273952Y0038801D01*
X0273932Y0038787D01*
X0273910Y0038772D01*
X0273889Y0038758D01*
X0273867Y0038744D01*
X0273845Y0038730D01*
X0273824Y0038716D01*
X0273802Y0038702D01*
X0273780Y0038688D01*
X0273759Y0038674D01*
X0273737Y0038660D01*
X0273715Y0038646D01*
X0273694Y0038633D01*
X0273672Y0038619D01*
X0273650Y0038606D01*
X0273629Y0038592D01*
X0272928Y0038172D01*
X0272186Y0037742D01*
X0271434Y0037325D01*
X0270678Y0036920D01*
X0269916Y0036526D01*
X0269148Y0036144D01*
X0268375Y0035771D01*
X0267597Y0035409D01*
X0266814Y0035055D01*
X0266028Y0034710D01*
X0265237Y0034374D01*
X0264444Y0034046D01*
X0263646Y0033725D01*
X0262845Y0033413D01*
X0262042Y0033109D01*
X0261237Y0032811D01*
X0260428Y0032521D01*
X0259619Y0032238D01*
X0258810Y0031961D01*
X0257997Y0031690D01*
X0257182Y0031426D01*
X0256365Y0031167D01*
X0255548Y0030915D01*
X0254727Y0030668D01*
X0253906Y0030426D01*
X0253083Y0030189D01*
X0252261Y0029957D01*
X0251434Y0029731D01*
X0250607Y0029508D01*
X0249778Y0029291D01*
X0248948Y0029077D01*
X0248117Y0028868D01*
X0247284Y0028664D01*
X0246452Y0028463D01*
X0245617Y0028267D01*
X0244780Y0028074D01*
X0243944Y0027886D01*
X0243107Y0027701D01*
X0242269Y0027521D01*
X0241428Y0027343D01*
X0240589Y0027170D01*
X0239749Y0027000D01*
X0238908Y0026833D01*
X0238068Y0026670D01*
X0237226Y0026510D01*
X0236384Y0026353D01*
X0235542Y0026199D01*
X0234700Y0026048D01*
X0233858Y0025900D01*
X0233015Y0025756D01*
X0232172Y0025614D01*
X0231329Y0025475D01*
X0230486Y0025338D01*
X0229642Y0025205D01*
X0228798Y0025074D01*
X0227954Y0024946D01*
X0227110Y0024820D01*
X0226265Y0024697D01*
X0225420Y0024576D01*
X0224576Y0024458D01*
X0223731Y0024342D01*
X0222885Y0024229D01*
X0222040Y0024118D01*
X0221194Y0024009D01*
X0220348Y0023902D01*
X0219502Y0023797D01*
X0218656Y0023694D01*
X0217810Y0023594D01*
X0216963Y0023495D01*
X0216116Y0023399D01*
X0215269Y0023304D01*
X0214422Y0023212D01*
X0213575Y0023121D01*
X0212728Y0023032D01*
X0211880Y0022946D01*
X0211033Y0022861D01*
X0210185Y0022778D01*
X0209337Y0022697D01*
X0208489Y0022617D01*
X0207640Y0022540D01*
X0206792Y0022464D01*
X0205943Y0022390D01*
X0205094Y0022318D01*
X0204245Y0022247D01*
X0203396Y0022178D01*
X0202547Y0022111D01*
X0201698Y0022045D01*
X0200849Y0021981D01*
X0199999Y0021919D01*
X0199149Y0021858D01*
X0198299Y0021799D01*
X0197449Y0021741D01*
X0196599Y0021685D01*
X0195749Y0021630D01*
X0194899Y0021577D01*
X0194048Y0021525D01*
X0193597Y0021498D01*
X0193570Y0021497D01*
X0193544Y0021495D01*
X0193517Y0021494D01*
X0193491Y0021493D01*
X0193464Y0021492D01*
X0193437Y0021491D01*
X0193411Y0021490D01*
X0193384Y0021489D01*
X0193357Y0021488D01*
X0193331Y0021487D01*
X0193304Y0021487D01*
X0193278Y0021486D01*
X0193251Y0021486D01*
X0193224Y0021485D01*
X0193197Y0021485D01*
X0193171Y0021485D01*
X0193144Y0021485D01*
X0125402Y0021485D01*
X0125376Y0021485D01*
X0125349Y0021485D01*
X0125322Y0021486D01*
X0125295Y0021486D01*
X0125269Y0021486D01*
X0125242Y0021487D01*
X0125216Y0021488D01*
X0125189Y0021488D01*
X0125162Y0021489D01*
X0125136Y0021490D01*
X0125109Y0021491D01*
X0125082Y0021492D01*
X0125056Y0021493D01*
X0125029Y0021495D01*
X0125003Y0021496D01*
X0124976Y0021498D01*
X0124850Y0021505D01*
X0124010Y0021556D01*
X0123171Y0021608D01*
X0122331Y0021661D01*
X0121492Y0021716D01*
X0120652Y0021772D01*
X0119813Y0021830D01*
X0118974Y0021889D01*
X0118135Y0021950D01*
X0117296Y0022013D01*
X0116457Y0022077D01*
X0115619Y0022142D01*
X0114780Y0022209D01*
X0113942Y0022278D01*
X0113104Y0022348D01*
X0112266Y0022420D01*
X0111428Y0022494D01*
X0110590Y0022570D01*
X0109752Y0022647D01*
X0108914Y0022726D01*
X0108077Y0022807D01*
X0107240Y0022889D01*
X0106402Y0022974D01*
X0105565Y0023060D01*
X0104728Y0023148D01*
X0103892Y0023238D01*
X0103055Y0023330D01*
X0102219Y0023424D01*
X0101382Y0023520D01*
X0100546Y0023618D01*
X0099710Y0023717D01*
X0098874Y0023819D01*
X0098039Y0023923D01*
X0097203Y0024029D01*
X0096368Y0024138D01*
X0095532Y0024248D01*
X0094697Y0024360D01*
X0093862Y0024475D01*
X0093027Y0024592D01*
X0092193Y0024712D01*
X0091358Y0024834D01*
X0090524Y0024958D01*
X0089690Y0025085D01*
X0088856Y0025215D01*
X0088022Y0025347D01*
X0087189Y0025481D01*
X0086356Y0025619D01*
X0085523Y0025759D01*
X0084690Y0025902D01*
X0083858Y0026048D01*
X0083026Y0026197D01*
X0082194Y0026349D01*
X0081363Y0026504D01*
X0080532Y0026662D01*
X0079702Y0026823D01*
X0078873Y0026987D01*
X0078045Y0027155D01*
X0077219Y0027325D01*
X0076393Y0027499D01*
X0075568Y0027677D01*
X0074744Y0027858D01*
X0073921Y0028042D01*
X0073100Y0028230D01*
X0072280Y0028423D01*
X0071460Y0028619D01*
X0070643Y0028819D01*
X0069826Y0029023D01*
X0069010Y0029231D01*
X0068196Y0029444D01*
X0067384Y0029661D01*
X0066572Y0029882D01*
X0065762Y0030108D01*
X0064954Y0030339D01*
X0064147Y0030574D01*
X0063342Y0030815D01*
X0062538Y0031061D01*
X0178375Y0062430D02*
X0181524Y0059280D01*
X0186249Y0059280D01*
X0190580Y0054950D01*
X0190580Y0046485D01*
X0193447Y0046485D01*
X0196400Y0049438D01*
X0202784Y0049438D01*
X0209477Y0056131D01*
X0209477Y0059674D01*
X0210855Y0061052D01*
X0217351Y0061052D01*
X0218335Y0060068D01*
X0218335Y0052981D01*
X0221485Y0049831D01*
X0228572Y0049831D01*
X0230934Y0052194D01*
X0193251Y0046288D02*
X0190580Y0046485D01*
D12*
X0105737Y0082706D03*
X0095501Y0082706D03*
X0095501Y0086446D03*
X0095501Y0090186D03*
X0105737Y0090186D03*
D13*
X0087627Y0081328D03*
D14*
X0087627Y0089202D03*
D15*
X0110461Y0090383D03*
X0110461Y0086446D03*
X0102784Y0076603D03*
X0099241Y0076603D03*
X0142351Y0082902D03*
X0142351Y0086839D03*
X0210461Y0095894D03*
X0214005Y0095894D03*
X0166367Y0050225D03*
X0166367Y0046288D03*
X0182509Y0048060D03*
X0182509Y0044123D03*
X0121879Y0036839D03*
X0121879Y0032902D03*
D16*
X0153769Y0048060D03*
X0153769Y0051603D03*
X0199438Y0034083D03*
X0203375Y0034083D03*
X0091170Y0072863D03*
X0091170Y0076406D03*
X0199438Y0085265D03*
X0203375Y0085265D03*
X0203375Y0088808D03*
X0199438Y0088808D03*
D17*
X0230776Y0090265D03*
X0240776Y0090265D03*
X0250776Y0090265D03*
X0250776Y0080265D03*
X0240776Y0080265D03*
X0230776Y0080265D03*
X0174280Y0030422D03*
X0164280Y0030422D03*
X0154280Y0030422D03*
X0144280Y0030422D03*
D18*
X0077784Y0051800D03*
X0066761Y0051800D03*
D19*
X0127587Y0051013D03*
X0133099Y0051013D03*
X0133296Y0044713D03*
X0127784Y0044713D03*
X0129950Y0082509D03*
X0122469Y0082509D03*
X0126209Y0091957D03*
D20*
X0138808Y0051997D03*
X0149831Y0051997D03*
X0149831Y0048257D03*
X0149831Y0044517D03*
X0138808Y0044517D03*
D21*
X0214103Y0056623D03*
X0222568Y0056623D03*
X0222568Y0072961D03*
X0214103Y0072961D03*
D22*
X0152469Y0064792D03*
X0142469Y0064792D03*
D23*
X0121091Y0068040D03*
X0118532Y0068040D03*
X0115973Y0068040D03*
X0113414Y0068040D03*
X0110855Y0068040D03*
D24*
X0106934Y0069024D02*
X0102965Y0069024D01*
X0113989Y0060560D02*
X0117957Y0060560D01*
X0125013Y0069024D02*
X0128981Y0069024D01*
D25*
X0170304Y0051603D03*
X0170304Y0049044D03*
X0170304Y0046485D03*
X0178178Y0046485D03*
X0178178Y0049044D03*
X0178178Y0051603D03*
D26*
X0269517Y0084477D03*
X0049044Y0068729D03*
D27*
X0049044Y0060855D03*
X0049044Y0052981D03*
X0049044Y0045107D03*
X0269517Y0060855D03*
X0269517Y0068729D03*
X0269517Y0076603D03*
D28*
X0265471Y0078987D02*
X0262040Y0078987D01*
X0261271Y0079756D01*
X0261271Y0088418D01*
X0259874Y0089814D01*
X0258445Y0091243D01*
X0259901Y0090778D01*
X0260067Y0090379D01*
X0260851Y0089594D01*
X0261875Y0089170D01*
X0262984Y0089170D01*
X0264009Y0089594D01*
X0264793Y0090379D01*
X0265217Y0091403D01*
X0265217Y0092397D01*
X0265610Y0092226D01*
X0266354Y0091891D01*
X0267097Y0091546D01*
X0267837Y0091193D01*
X0268567Y0090832D01*
X0269293Y0090459D01*
X0270013Y0090078D01*
X0270722Y0089688D01*
X0271003Y0089527D01*
X0269592Y0089527D01*
X0269592Y0084552D01*
X0274567Y0084552D01*
X0274567Y0085795D01*
X0274587Y0085727D01*
X0274589Y0085726D01*
X0274618Y0085631D01*
X0274642Y0085524D01*
X0274641Y0085521D01*
X0274710Y0085217D01*
X0274714Y0085189D01*
X0274714Y0085189D01*
X0274719Y0085154D01*
X0274727Y0085099D01*
X0274724Y0085085D01*
X0274763Y0084827D01*
X0274771Y0084716D01*
X0274769Y0084710D01*
X0274785Y0084501D01*
X0274785Y0084267D01*
X0274793Y0084248D01*
X0274793Y0084138D01*
X0274795Y0084133D01*
X0274795Y0084087D01*
X0274797Y0084082D01*
X0274797Y0084035D01*
X0274799Y0084030D01*
X0274799Y0083984D01*
X0274801Y0083979D01*
X0274801Y0083881D01*
X0274803Y0083876D01*
X0274803Y0045682D01*
X0274801Y0045677D01*
X0274801Y0045605D01*
X0274799Y0045600D01*
X0274799Y0045528D01*
X0274797Y0045523D01*
X0274797Y0045455D01*
X0274793Y0045446D01*
X0274793Y0045378D01*
X0274789Y0045368D01*
X0274789Y0045108D01*
X0274777Y0044942D01*
X0274774Y0044938D01*
X0274755Y0044677D01*
X0274720Y0044447D01*
X0274721Y0044441D01*
X0274711Y0044375D01*
X0274647Y0044093D01*
X0274647Y0044093D01*
X0274603Y0043900D01*
X0274577Y0043811D01*
X0274572Y0043806D01*
X0274501Y0043578D01*
X0274425Y0043379D01*
X0274354Y0043202D01*
X0274264Y0043009D01*
X0274263Y0043009D01*
X0274156Y0042794D01*
X0274060Y0042624D01*
X0274059Y0042622D01*
X0273976Y0042485D01*
X0273834Y0042277D01*
X0273831Y0042262D01*
X0273822Y0042249D01*
X0273670Y0042048D01*
X0273509Y0041850D01*
X0273507Y0041844D01*
X0273506Y0041843D01*
X0273485Y0041817D01*
X0273433Y0041762D01*
X0273239Y0041562D01*
X0273125Y0041447D01*
X0273124Y0041446D01*
X0273094Y0041415D01*
X0273073Y0041396D01*
X0273063Y0041386D01*
X0273009Y0041339D01*
X0272992Y0041325D01*
X0272724Y0041110D01*
X0272461Y0040917D01*
X0272414Y0040885D01*
X0272398Y0040875D01*
X0272384Y0040866D01*
X0272365Y0040854D01*
X0272350Y0040844D01*
X0272337Y0040836D01*
X0272319Y0040825D01*
X0272303Y0040815D01*
X0272288Y0040805D01*
X0272283Y0040802D01*
X0271614Y0040401D01*
X0270910Y0039993D01*
X0270195Y0039597D01*
X0269473Y0039210D01*
X0268745Y0038834D01*
X0268010Y0038467D01*
X0267267Y0038110D01*
X0266517Y0037760D01*
X0265761Y0037419D01*
X0265002Y0037085D01*
X0264237Y0036760D01*
X0263467Y0036441D01*
X0262695Y0036131D01*
X0261916Y0035828D01*
X0261135Y0035532D01*
X0260352Y0035242D01*
X0259563Y0034960D01*
X0258772Y0034683D01*
X0257983Y0034412D01*
X0257190Y0034149D01*
X0256391Y0033889D01*
X0255593Y0033637D01*
X0254793Y0033389D01*
X0253989Y0033147D01*
X0253183Y0032910D01*
X0252375Y0032678D01*
X0251568Y0032450D01*
X0250754Y0032227D01*
X0249943Y0032009D01*
X0249128Y0031795D01*
X0248311Y0031585D01*
X0247491Y0031379D01*
X0246673Y0031178D01*
X0245853Y0030980D01*
X0245031Y0030787D01*
X0244205Y0030597D01*
X0243380Y0030411D01*
X0242557Y0030230D01*
X0241728Y0030051D01*
X0240900Y0029876D01*
X0240070Y0029705D01*
X0239242Y0029537D01*
X0238410Y0029372D01*
X0237578Y0029210D01*
X0236749Y0029053D01*
X0235914Y0028897D01*
X0235083Y0028745D01*
X0234248Y0028596D01*
X0233416Y0028450D01*
X0232582Y0028306D01*
X0231746Y0028166D01*
X0230911Y0028028D01*
X0230077Y0027893D01*
X0229239Y0027761D01*
X0228407Y0027632D01*
X0227570Y0027504D01*
X0226731Y0027380D01*
X0225898Y0027258D01*
X0225058Y0027138D01*
X0224222Y0027021D01*
X0223385Y0026906D01*
X0222544Y0026794D01*
X0221705Y0026683D01*
X0220869Y0026576D01*
X0220029Y0026469D01*
X0219186Y0026365D01*
X0218344Y0026263D01*
X0217509Y0026164D01*
X0216667Y0026066D01*
X0215824Y0025969D01*
X0214986Y0025876D01*
X0214142Y0025784D01*
X0213301Y0025694D01*
X0212463Y0025606D01*
X0211619Y0025520D01*
X0210780Y0025436D01*
X0209938Y0025353D01*
X0209093Y0025272D01*
X0208249Y0025194D01*
X0207407Y0025117D01*
X0206565Y0025041D01*
X0205722Y0024968D01*
X0204879Y0024896D01*
X0204031Y0024826D01*
X0203190Y0024757D01*
X0202346Y0024690D01*
X0201504Y0024625D01*
X0200656Y0024562D01*
X0199812Y0024500D01*
X0198966Y0024439D01*
X0198122Y0024380D01*
X0197273Y0024322D01*
X0196433Y0024267D01*
X0195587Y0024212D01*
X0194741Y0024159D01*
X0193888Y0024107D01*
X0193447Y0024081D01*
X0193432Y0024080D01*
X0193414Y0024079D01*
X0193393Y0024078D01*
X0193378Y0024078D01*
X0193358Y0024077D01*
X0193342Y0024076D01*
X0193324Y0024076D01*
X0193303Y0024075D01*
X0193286Y0024074D01*
X0193268Y0024074D01*
X0193253Y0024074D01*
X0193235Y0024073D01*
X0193213Y0024073D01*
X0193200Y0024073D01*
X0193177Y0024073D01*
X0193162Y0024072D01*
X0193143Y0024072D01*
X0179518Y0024072D01*
X0179583Y0024151D01*
X0180070Y0024638D01*
X0180070Y0024747D01*
X0182618Y0027861D01*
X0207620Y0027861D01*
X0208315Y0027797D01*
X0208391Y0027861D01*
X0208489Y0027861D01*
X0208983Y0028354D01*
X0215477Y0033766D01*
X0215576Y0033766D01*
X0216069Y0034260D01*
X0216606Y0034706D01*
X0216614Y0034805D01*
X0216684Y0034875D01*
X0216684Y0035572D01*
X0216747Y0036267D01*
X0216684Y0036343D01*
X0216684Y0044238D01*
X0216761Y0044316D01*
X0217186Y0045340D01*
X0217186Y0046449D01*
X0216761Y0047473D01*
X0215977Y0048258D01*
X0214953Y0048682D01*
X0213844Y0048682D01*
X0212819Y0048258D01*
X0212035Y0047473D01*
X0211611Y0046449D01*
X0211611Y0045340D01*
X0211750Y0045005D01*
X0211253Y0045502D01*
X0210228Y0045926D01*
X0209120Y0045926D01*
X0208095Y0045502D01*
X0207311Y0044718D01*
X0207115Y0044243D01*
X0203378Y0044243D01*
X0199048Y0039913D01*
X0190780Y0039913D01*
X0188418Y0037550D01*
X0170701Y0037550D01*
X0167016Y0033865D01*
X0166755Y0034125D01*
X0165149Y0034791D01*
X0163411Y0034791D01*
X0161806Y0034125D01*
X0160577Y0032897D01*
X0159912Y0031291D01*
X0159912Y0029553D01*
X0160577Y0027947D01*
X0161210Y0027314D01*
X0157916Y0027314D01*
X0157918Y0027316D01*
X0158359Y0027923D01*
X0158699Y0028592D01*
X0158931Y0029305D01*
X0159049Y0030047D01*
X0159049Y0030238D01*
X0154465Y0030238D01*
X0154465Y0030606D01*
X0159049Y0030606D01*
X0159049Y0030797D01*
X0158931Y0031539D01*
X0158699Y0032253D01*
X0158359Y0032921D01*
X0157918Y0033529D01*
X0157387Y0034059D01*
X0156780Y0034500D01*
X0156111Y0034841D01*
X0155397Y0035073D01*
X0154656Y0035191D01*
X0154465Y0035191D01*
X0154465Y0030606D01*
X0154096Y0030606D01*
X0154096Y0030238D01*
X0149512Y0030238D01*
X0149512Y0030047D01*
X0149629Y0029305D01*
X0149861Y0028592D01*
X0150202Y0027923D01*
X0150643Y0027316D01*
X0150645Y0027314D01*
X0147350Y0027314D01*
X0147984Y0027947D01*
X0148649Y0029553D01*
X0148649Y0031291D01*
X0147984Y0032897D01*
X0146755Y0034125D01*
X0145149Y0034791D01*
X0143411Y0034791D01*
X0141806Y0034125D01*
X0141445Y0033764D01*
X0141303Y0033905D01*
X0140769Y0035196D01*
X0140700Y0035894D01*
X0140700Y0042132D01*
X0140963Y0042132D01*
X0141783Y0042952D01*
X0141783Y0046081D01*
X0140963Y0046901D01*
X0136653Y0046901D01*
X0136271Y0046518D01*
X0136271Y0047262D01*
X0135571Y0047961D01*
X0136074Y0048464D01*
X0136074Y0050105D01*
X0136161Y0050105D01*
X0136653Y0049613D01*
X0140963Y0049613D01*
X0141783Y0050433D01*
X0141783Y0053561D01*
X0140963Y0054381D01*
X0136653Y0054381D01*
X0136161Y0053889D01*
X0135746Y0053889D01*
X0135254Y0054381D01*
X0130945Y0054381D01*
X0130620Y0054056D01*
X0130603Y0054086D01*
X0130267Y0054421D01*
X0129902Y0054632D01*
X0162033Y0054632D01*
X0163141Y0055741D01*
X0164001Y0056601D01*
X0167945Y0056601D01*
X0168806Y0055741D01*
X0168806Y0055741D01*
X0169914Y0054632D01*
X0181506Y0054632D01*
X0181323Y0054557D01*
X0180539Y0053773D01*
X0180424Y0053495D01*
X0180333Y0053495D01*
X0180136Y0053692D01*
X0176220Y0053692D01*
X0175400Y0052872D01*
X0175400Y0050334D01*
X0175411Y0050324D01*
X0175400Y0050313D01*
X0175400Y0047775D01*
X0175411Y0047765D01*
X0175400Y0047754D01*
X0175400Y0046500D01*
X0172519Y0043850D01*
X0165905Y0043850D01*
X0165623Y0044101D01*
X0167931Y0044101D01*
X0168226Y0044396D01*
X0172262Y0044396D01*
X0173082Y0045216D01*
X0173082Y0047754D01*
X0173071Y0047765D01*
X0173082Y0047775D01*
X0173082Y0049769D01*
X0173122Y0049809D01*
X0173359Y0050219D01*
X0173482Y0050677D01*
X0173482Y0051603D01*
X0170304Y0051603D01*
X0170304Y0051603D01*
X0173482Y0051603D01*
X0173482Y0052529D01*
X0173359Y0052987D01*
X0173122Y0053397D01*
X0172787Y0053732D01*
X0172377Y0053969D01*
X0171919Y0054092D01*
X0170304Y0054092D01*
X0170304Y0051603D01*
X0170304Y0051603D01*
X0170304Y0054092D01*
X0168689Y0054092D01*
X0168231Y0053969D01*
X0167821Y0053732D01*
X0167486Y0053397D01*
X0167249Y0052987D01*
X0167202Y0052813D01*
X0166367Y0052813D01*
X0166367Y0050225D01*
X0166367Y0050225D01*
X0166367Y0052813D01*
X0165146Y0052813D01*
X0164688Y0052690D01*
X0164277Y0052453D01*
X0163942Y0052118D01*
X0163705Y0051707D01*
X0163583Y0051250D01*
X0163583Y0050652D01*
X0163221Y0051013D01*
X0162197Y0051438D01*
X0161088Y0051438D01*
X0160064Y0051013D01*
X0159279Y0050229D01*
X0159204Y0050047D01*
X0159204Y0051495D01*
X0158328Y0053013D01*
X0158328Y0053013D01*
X0158328Y0053013D01*
X0156810Y0053889D01*
X0155234Y0053889D01*
X0155136Y0053987D01*
X0152401Y0053987D01*
X0152391Y0053977D01*
X0151986Y0054381D01*
X0147677Y0054381D01*
X0146857Y0053561D01*
X0146857Y0050433D01*
X0146880Y0050410D01*
X0146816Y0050346D01*
X0146579Y0049936D01*
X0146457Y0049478D01*
X0146457Y0048257D01*
X0149831Y0048257D01*
X0149831Y0048257D01*
X0146457Y0048257D01*
X0146457Y0047035D01*
X0146579Y0046578D01*
X0146816Y0046167D01*
X0146880Y0046104D01*
X0146857Y0046081D01*
X0146857Y0042952D01*
X0147677Y0042132D01*
X0148627Y0042132D01*
X0149132Y0041258D01*
X0151198Y0040065D01*
X0153293Y0040065D01*
X0153764Y0039594D01*
X0154789Y0039170D01*
X0155898Y0039170D01*
X0156922Y0039594D01*
X0157706Y0040379D01*
X0157953Y0040975D01*
X0158169Y0041100D01*
X0159204Y0042892D01*
X0159204Y0047254D01*
X0159279Y0047071D01*
X0159750Y0046601D01*
X0159750Y0045826D01*
X0159708Y0045778D01*
X0159750Y0045052D01*
X0159750Y0044323D01*
X0159796Y0044278D01*
X0159800Y0044214D01*
X0160344Y0043730D01*
X0160859Y0043215D01*
X0160923Y0043215D01*
X0163887Y0040580D01*
X0164402Y0040065D01*
X0164466Y0040065D01*
X0164515Y0040023D01*
X0165241Y0040065D01*
X0173217Y0040065D01*
X0173961Y0040034D01*
X0173995Y0040065D01*
X0174040Y0040065D01*
X0174567Y0040592D01*
X0178123Y0043864D01*
X0178648Y0043339D01*
X0179756Y0042231D01*
X0180649Y0042231D01*
X0180945Y0041935D01*
X0184073Y0041935D01*
X0184893Y0042756D01*
X0184893Y0045362D01*
X0188615Y0041640D01*
X0194513Y0041640D01*
X0195621Y0042749D01*
X0198253Y0045380D01*
X0205536Y0045380D01*
X0206645Y0046489D01*
X0213312Y0053156D01*
X0215963Y0053156D01*
X0216148Y0053341D01*
X0216148Y0052075D01*
X0217429Y0050794D01*
X0220579Y0047644D01*
X0229478Y0047644D01*
X0230759Y0048925D01*
X0230759Y0048925D01*
X0231240Y0049406D01*
X0231488Y0049406D01*
X0232513Y0049831D01*
X0233297Y0050615D01*
X0233721Y0051639D01*
X0233721Y0052748D01*
X0233297Y0053773D01*
X0232513Y0054557D01*
X0231488Y0054981D01*
X0230379Y0054981D01*
X0229355Y0054557D01*
X0228571Y0053773D01*
X0228146Y0052748D01*
X0228146Y0052500D01*
X0227666Y0052019D01*
X0222391Y0052019D01*
X0221654Y0052756D01*
X0222568Y0052756D01*
X0224084Y0052756D01*
X0224542Y0052879D01*
X0224952Y0053116D01*
X0225288Y0053451D01*
X0225525Y0053861D01*
X0225647Y0054319D01*
X0225647Y0056623D01*
X0225647Y0057019D01*
X0226442Y0056690D01*
X0227551Y0056690D01*
X0228576Y0057114D01*
X0229360Y0057898D01*
X0229784Y0058923D01*
X0229784Y0059589D01*
X0232668Y0062473D01*
X0232668Y0076320D01*
X0233251Y0076561D01*
X0234480Y0077790D01*
X0235145Y0079396D01*
X0235145Y0081134D01*
X0234480Y0082739D01*
X0233251Y0083968D01*
X0231645Y0084633D01*
X0229907Y0084633D01*
X0228302Y0083968D01*
X0227073Y0082739D01*
X0226408Y0081134D01*
X0226408Y0079396D01*
X0227073Y0077790D01*
X0228302Y0076561D01*
X0228884Y0076320D01*
X0228884Y0064040D01*
X0227108Y0062265D01*
X0226442Y0062265D01*
X0225418Y0061840D01*
X0224634Y0061056D01*
X0224368Y0060414D01*
X0224084Y0060490D01*
X0222568Y0060490D01*
X0222568Y0056623D01*
X0225647Y0056623D01*
X0222568Y0056623D01*
X0222568Y0056623D01*
X0222568Y0056623D01*
X0222568Y0060490D01*
X0221051Y0060490D01*
X0220593Y0060367D01*
X0220523Y0060326D01*
X0220523Y0060974D01*
X0219539Y0061958D01*
X0218257Y0063239D01*
X0209949Y0063239D01*
X0208571Y0061861D01*
X0207290Y0060580D01*
X0207290Y0057037D01*
X0201878Y0051625D01*
X0195494Y0051625D01*
X0194213Y0050344D01*
X0192767Y0048898D01*
X0192767Y0055856D01*
X0191486Y0057137D01*
X0187155Y0061468D01*
X0182430Y0061468D01*
X0181162Y0062736D01*
X0181162Y0062984D01*
X0180738Y0064009D01*
X0179954Y0064793D01*
X0178929Y0065217D01*
X0177820Y0065217D01*
X0176796Y0064793D01*
X0176012Y0064009D01*
X0175587Y0062984D01*
X0175587Y0061875D01*
X0176012Y0060851D01*
X0176796Y0060067D01*
X0177820Y0059643D01*
X0178069Y0059643D01*
X0179295Y0058417D01*
X0171481Y0058417D01*
X0170621Y0059277D01*
X0169513Y0060385D01*
X0162434Y0060385D01*
X0160465Y0058417D01*
X0124992Y0058417D01*
X0123566Y0057593D01*
X0122743Y0056167D01*
X0122743Y0055661D01*
X0120404Y0055661D01*
X0118406Y0054833D01*
X0116877Y0053304D01*
X0116050Y0051306D01*
X0116050Y0049831D01*
X0115972Y0049049D01*
X0115373Y0047602D01*
X0114266Y0046494D01*
X0112819Y0045895D01*
X0112036Y0045818D01*
X0092433Y0045818D01*
X0091962Y0046289D01*
X0090937Y0046713D01*
X0089828Y0046713D01*
X0088804Y0046289D01*
X0088020Y0045505D01*
X0087595Y0044480D01*
X0087595Y0043372D01*
X0088020Y0042347D01*
X0088804Y0041563D01*
X0089828Y0041139D01*
X0090937Y0041139D01*
X0091962Y0041563D01*
X0092433Y0042034D01*
X0113587Y0042034D01*
X0116453Y0043221D01*
X0116453Y0043221D01*
X0118647Y0045414D01*
X0118647Y0045414D01*
X0118647Y0045414D01*
X0119834Y0048280D01*
X0119834Y0050225D01*
X0119866Y0050547D01*
X0120112Y0051143D01*
X0120568Y0051598D01*
X0121163Y0051845D01*
X0121485Y0051876D01*
X0123989Y0051876D01*
X0124213Y0052006D01*
X0124213Y0051013D01*
X0127587Y0051013D01*
X0127587Y0051013D01*
X0124213Y0051013D01*
X0124213Y0048807D01*
X0124335Y0048349D01*
X0124572Y0047939D01*
X0124753Y0047759D01*
X0124532Y0047377D01*
X0124409Y0046919D01*
X0124409Y0044713D01*
X0124409Y0042508D01*
X0124532Y0042050D01*
X0124769Y0041640D01*
X0125104Y0041305D01*
X0125515Y0041068D01*
X0125972Y0040945D01*
X0127784Y0040945D01*
X0127784Y0044713D01*
X0127784Y0044713D01*
X0124409Y0044713D01*
X0127784Y0044713D01*
X0127784Y0044713D01*
X0127784Y0040945D01*
X0129596Y0040945D01*
X0130054Y0041068D01*
X0130464Y0041305D01*
X0130799Y0041640D01*
X0130817Y0041670D01*
X0131141Y0041345D01*
X0135451Y0041345D01*
X0136271Y0042165D01*
X0136271Y0042515D01*
X0136653Y0042132D01*
X0136916Y0042132D01*
X0136916Y0035111D01*
X0136916Y0034430D01*
X0136916Y0034430D01*
X0138037Y0031723D01*
X0138037Y0031723D01*
X0139912Y0029848D01*
X0139912Y0029553D01*
X0140577Y0027947D01*
X0141210Y0027314D01*
X0130143Y0027314D01*
X0124263Y0033194D01*
X0124263Y0034270D01*
X0123938Y0034594D01*
X0123968Y0034612D01*
X0124303Y0034947D01*
X0124540Y0035357D01*
X0124663Y0035815D01*
X0124663Y0036839D01*
X0121879Y0036839D01*
X0121879Y0036839D01*
X0124663Y0036839D01*
X0124663Y0037864D01*
X0124540Y0038322D01*
X0124303Y0038732D01*
X0123968Y0039067D01*
X0123558Y0039304D01*
X0123100Y0039427D01*
X0121879Y0039427D01*
X0121879Y0036839D01*
X0119094Y0036839D01*
X0119094Y0035815D01*
X0119217Y0035357D01*
X0119454Y0034947D01*
X0119606Y0034794D01*
X0100301Y0034794D01*
X0100242Y0034846D01*
X0099528Y0034794D01*
X0098812Y0034794D01*
X0098797Y0034779D01*
X0097384Y0034758D01*
X0093287Y0035389D01*
X0089433Y0036917D01*
X0086015Y0039264D01*
X0083205Y0042313D01*
X0081144Y0045910D01*
X0080496Y0048038D01*
X0080726Y0048038D01*
X0081458Y0048769D01*
X0081555Y0048741D01*
X0081815Y0048884D01*
X0103793Y0048884D01*
X0106456Y0049987D01*
X0108494Y0052026D01*
X0109598Y0054689D01*
X0109598Y0061719D01*
X0109921Y0061719D01*
X0110515Y0062062D01*
X0110350Y0061664D01*
X0110205Y0060933D01*
X0110205Y0060560D01*
X0115973Y0060560D01*
X0115973Y0060560D01*
X0110205Y0060560D01*
X0110205Y0060187D01*
X0110350Y0059456D01*
X0110635Y0058767D01*
X0111050Y0058148D01*
X0111577Y0057620D01*
X0112196Y0057206D01*
X0112885Y0056921D01*
X0113616Y0056776D01*
X0115973Y0056776D01*
X0115973Y0060560D01*
X0115973Y0060560D01*
X0121742Y0060560D01*
X0121742Y0060933D01*
X0121596Y0061664D01*
X0121311Y0062352D01*
X0120897Y0062972D01*
X0120582Y0063287D01*
X0121091Y0063287D01*
X0121091Y0068040D01*
X0121091Y0068040D01*
X0121091Y0063287D01*
X0122017Y0063287D01*
X0122475Y0063410D01*
X0122886Y0063647D01*
X0123221Y0063982D01*
X0123458Y0064393D01*
X0123580Y0064850D01*
X0123580Y0065522D01*
X0123909Y0065386D01*
X0124640Y0065240D01*
X0126997Y0065240D01*
X0129354Y0065240D01*
X0130085Y0065386D01*
X0130774Y0065671D01*
X0131393Y0066085D01*
X0131921Y0066612D01*
X0132335Y0067232D01*
X0132620Y0067921D01*
X0132765Y0068652D01*
X0132765Y0069024D01*
X0126997Y0069024D01*
X0126997Y0065240D01*
X0126997Y0069024D01*
X0126997Y0069024D01*
X0126997Y0069024D01*
X0132765Y0069024D01*
X0132765Y0069340D01*
X0134087Y0068018D01*
X0140038Y0068018D01*
X0138469Y0066449D01*
X0138469Y0063135D01*
X0140812Y0060792D01*
X0144126Y0060792D01*
X0146469Y0063135D01*
X0146469Y0066449D01*
X0144900Y0068018D01*
X0149473Y0068018D01*
X0148069Y0066615D01*
X0148069Y0064792D01*
X0148069Y0062970D01*
X0150647Y0060392D01*
X0152469Y0060392D01*
X0152469Y0064792D01*
X0148069Y0064792D01*
X0152469Y0064792D01*
X0152469Y0064792D01*
X0152469Y0064792D01*
X0152469Y0060392D01*
X0154292Y0060392D01*
X0156869Y0062970D01*
X0156869Y0064792D01*
X0152469Y0064792D01*
X0152469Y0064792D01*
X0156869Y0064792D01*
X0156869Y0066615D01*
X0155466Y0068018D01*
X0178962Y0068018D01*
X0180070Y0069126D01*
X0194316Y0083372D01*
X0197578Y0083372D01*
X0198070Y0082880D01*
X0200805Y0082880D01*
X0201406Y0083482D01*
X0202007Y0082880D01*
X0204742Y0082880D01*
X0205234Y0083372D01*
X0209621Y0083372D01*
X0209730Y0083318D01*
X0210067Y0082505D01*
X0210851Y0081720D01*
X0211875Y0081296D01*
X0212984Y0081296D01*
X0214009Y0081720D01*
X0214793Y0082505D01*
X0215217Y0083529D01*
X0215217Y0084638D01*
X0214793Y0085662D01*
X0214009Y0086446D01*
X0212984Y0086871D01*
X0211875Y0086871D01*
X0211444Y0086692D01*
X0211189Y0086820D01*
X0210851Y0087157D01*
X0210514Y0087157D01*
X0210213Y0087307D01*
X0209761Y0087157D01*
X0207549Y0087157D01*
X0207594Y0087202D01*
X0208260Y0087202D01*
X0209284Y0087626D01*
X0210069Y0088410D01*
X0210493Y0089435D01*
X0210493Y0090543D01*
X0210069Y0091568D01*
X0209284Y0092352D01*
X0208260Y0092776D01*
X0207151Y0092776D01*
X0206127Y0092352D01*
X0205342Y0091568D01*
X0205057Y0090878D01*
X0204742Y0091192D01*
X0202007Y0091192D01*
X0201406Y0090591D01*
X0200805Y0091192D01*
X0198070Y0091192D01*
X0197250Y0090372D01*
X0197250Y0090306D01*
X0191961Y0090306D01*
X0176213Y0074558D01*
X0171329Y0074558D01*
X0179749Y0082979D01*
X0180857Y0084087D01*
X0180857Y0086167D01*
X0181328Y0086638D01*
X0181753Y0087663D01*
X0181753Y0088772D01*
X0181328Y0089796D01*
X0180544Y0090580D01*
X0179520Y0091005D01*
X0178411Y0091005D01*
X0177386Y0090580D01*
X0176602Y0089796D01*
X0176178Y0088772D01*
X0176178Y0087663D01*
X0176602Y0086638D01*
X0177073Y0086167D01*
X0177073Y0085655D01*
X0168536Y0077117D01*
X0142408Y0077117D01*
X0142344Y0078953D01*
X0142746Y0079355D01*
X0143170Y0080379D01*
X0143170Y0080715D01*
X0143915Y0080715D01*
X0144735Y0081535D01*
X0144735Y0084270D01*
X0144134Y0084871D01*
X0144211Y0084947D01*
X0152985Y0084947D01*
X0156267Y0081665D01*
X0156130Y0081529D01*
X0155706Y0080504D01*
X0155706Y0079395D01*
X0156130Y0078371D01*
X0156914Y0077587D01*
X0157938Y0077162D01*
X0159047Y0077162D01*
X0160072Y0077587D01*
X0160856Y0078371D01*
X0161280Y0079395D01*
X0161280Y0080504D01*
X0160856Y0081529D01*
X0160385Y0081999D01*
X0160385Y0082899D01*
X0155661Y0087623D01*
X0154552Y0088731D01*
X0144211Y0088731D01*
X0143915Y0089027D01*
X0142840Y0089027D01*
X0139519Y0092348D01*
X0138411Y0093456D01*
X0129184Y0093456D01*
X0129184Y0094506D01*
X0128364Y0095326D01*
X0124055Y0095326D01*
X0123235Y0094506D01*
X0123235Y0089409D01*
X0124055Y0088589D01*
X0128364Y0088589D01*
X0129184Y0089409D01*
X0129184Y0089672D01*
X0136843Y0089672D01*
X0139967Y0086548D01*
X0139967Y0085472D01*
X0140568Y0084871D01*
X0139967Y0084270D01*
X0139967Y0083721D01*
X0139828Y0083721D01*
X0138804Y0083297D01*
X0138020Y0082513D01*
X0137595Y0081488D01*
X0137595Y0080379D01*
X0138020Y0079355D01*
X0138563Y0078812D01*
X0138687Y0075193D01*
X0138687Y0074558D01*
X0137623Y0074558D01*
X0133686Y0078495D01*
X0116210Y0078495D01*
X0116757Y0079042D01*
X0120396Y0079042D01*
X0121071Y0078967D01*
X0121164Y0079042D01*
X0121285Y0079042D01*
X0121383Y0079140D01*
X0124624Y0079140D01*
X0125444Y0079960D01*
X0125444Y0085057D01*
X0124624Y0085877D01*
X0120315Y0085877D01*
X0119494Y0085057D01*
X0119494Y0082826D01*
X0115189Y0082826D01*
X0114081Y0081718D01*
X0109477Y0077114D01*
X0107629Y0078962D01*
X0107629Y0080223D01*
X0108285Y0080223D01*
X0109105Y0081043D01*
X0109105Y0083894D01*
X0109240Y0083858D01*
X0110461Y0083858D01*
X0110461Y0086446D01*
X0110461Y0086446D01*
X0107677Y0086446D01*
X0107677Y0087470D01*
X0107740Y0087703D01*
X0103189Y0087703D01*
X0102369Y0088523D01*
X0102369Y0091848D01*
X0103189Y0092668D01*
X0108285Y0092668D01*
X0108641Y0092313D01*
X0108897Y0092570D01*
X0112026Y0092570D01*
X0112846Y0091750D01*
X0112846Y0089015D01*
X0112521Y0088691D01*
X0112551Y0088673D01*
X0112886Y0088338D01*
X0113123Y0087928D01*
X0113246Y0087470D01*
X0113246Y0086446D01*
X0110462Y0086446D01*
X0110462Y0086446D01*
X0113246Y0086446D01*
X0113246Y0085421D01*
X0113123Y0084963D01*
X0112886Y0084553D01*
X0112551Y0084218D01*
X0112140Y0083981D01*
X0111683Y0083858D01*
X0110461Y0083858D01*
X0110461Y0086446D01*
X0107677Y0086446D01*
X0107677Y0085421D01*
X0107740Y0085188D01*
X0103189Y0085188D01*
X0102369Y0084368D01*
X0102369Y0081043D01*
X0103189Y0080223D01*
X0103845Y0080223D01*
X0103845Y0080070D01*
X0103575Y0080070D01*
X0102467Y0078962D01*
X0102296Y0078791D01*
X0101371Y0078791D01*
X0101330Y0078831D01*
X0100920Y0079068D01*
X0100462Y0079191D01*
X0099241Y0079191D01*
X0099241Y0076603D01*
X0099241Y0074016D01*
X0100462Y0074016D01*
X0100920Y0074138D01*
X0101330Y0074375D01*
X0101371Y0074416D01*
X0104348Y0074416D01*
X0105168Y0075236D01*
X0105168Y0076071D01*
X0108963Y0072276D01*
X0108963Y0072220D01*
X0108726Y0072378D01*
X0108038Y0072663D01*
X0107307Y0072809D01*
X0104950Y0072809D01*
X0104950Y0069025D01*
X0104950Y0069025D01*
X0104950Y0072809D01*
X0102593Y0072809D01*
X0101862Y0072663D01*
X0101173Y0072378D01*
X0100553Y0071964D01*
X0100026Y0071437D01*
X0099612Y0070817D01*
X0099327Y0070128D01*
X0099181Y0069397D01*
X0099181Y0069024D01*
X0099181Y0068652D01*
X0099327Y0067921D01*
X0099612Y0067232D01*
X0100026Y0066612D01*
X0100553Y0066085D01*
X0101173Y0065671D01*
X0101862Y0065386D01*
X0102593Y0065240D01*
X0104950Y0065240D01*
X0107307Y0065240D01*
X0107766Y0065332D01*
X0106637Y0064680D01*
X0106637Y0064680D01*
X0106637Y0064680D01*
X0105813Y0063253D01*
X0105813Y0056131D01*
X0105747Y0055455D01*
X0105230Y0054207D01*
X0104275Y0053252D01*
X0103027Y0052735D01*
X0102351Y0052668D01*
X0081595Y0052668D01*
X0081546Y0052683D01*
X0081546Y0054742D01*
X0080726Y0055562D01*
X0074842Y0055562D01*
X0074022Y0054742D01*
X0074022Y0048858D01*
X0074842Y0048038D01*
X0076418Y0048038D01*
X0077541Y0044352D01*
X0080039Y0039992D01*
X0083445Y0036297D01*
X0087587Y0033453D01*
X0092258Y0031601D01*
X0097224Y0030836D01*
X0099663Y0031010D01*
X0120019Y0031010D01*
X0120315Y0030715D01*
X0121390Y0030715D01*
X0127467Y0024638D01*
X0128033Y0024072D01*
X0125407Y0024072D01*
X0125393Y0024072D01*
X0125370Y0024073D01*
X0125354Y0024073D01*
X0125335Y0024073D01*
X0125319Y0024073D01*
X0125300Y0024074D01*
X0125283Y0024074D01*
X0125265Y0024075D01*
X0125246Y0024075D01*
X0125230Y0024076D01*
X0125212Y0024077D01*
X0125194Y0024077D01*
X0125175Y0024078D01*
X0125157Y0024079D01*
X0125140Y0024080D01*
X0125123Y0024081D01*
X0125002Y0024088D01*
X0124168Y0024138D01*
X0123333Y0024190D01*
X0122496Y0024243D01*
X0121664Y0024298D01*
X0120826Y0024354D01*
X0119994Y0024411D01*
X0119157Y0024470D01*
X0118323Y0024531D01*
X0117492Y0024593D01*
X0116656Y0024656D01*
X0115825Y0024721D01*
X0114989Y0024788D01*
X0114158Y0024856D01*
X0113325Y0024926D01*
X0112493Y0024998D01*
X0111652Y0025072D01*
X0110826Y0025146D01*
X0109994Y0025223D01*
X0109162Y0025301D01*
X0108324Y0025382D01*
X0107500Y0025463D01*
X0106663Y0025548D01*
X0105836Y0025633D01*
X0104999Y0025721D01*
X0104173Y0025810D01*
X0103337Y0025902D01*
X0102511Y0025995D01*
X0101678Y0026090D01*
X0100851Y0026187D01*
X0100018Y0026286D01*
X0099193Y0026387D01*
X0098363Y0026490D01*
X0097532Y0026596D01*
X0096700Y0026703D01*
X0095874Y0026813D01*
X0095048Y0026924D01*
X0094216Y0027038D01*
X0093391Y0027154D01*
X0092563Y0027273D01*
X0091736Y0027393D01*
X0090908Y0027517D01*
X0090084Y0027642D01*
X0089256Y0027771D01*
X0088431Y0027902D01*
X0087608Y0028035D01*
X0086781Y0028171D01*
X0085956Y0028310D01*
X0085134Y0028451D01*
X0084310Y0028596D01*
X0083488Y0028743D01*
X0082664Y0028894D01*
X0081843Y0029047D01*
X0081020Y0029203D01*
X0080198Y0029363D01*
X0079382Y0029524D01*
X0078563Y0029690D01*
X0077746Y0029858D01*
X0076930Y0030030D01*
X0076118Y0030205D01*
X0075304Y0030384D01*
X0074494Y0030565D01*
X0073684Y0030751D01*
X0072874Y0030941D01*
X0072070Y0031133D01*
X0071263Y0031331D01*
X0070460Y0031531D01*
X0069657Y0031736D01*
X0068859Y0031945D01*
X0068057Y0032159D01*
X0067261Y0032376D01*
X0066465Y0032598D01*
X0065671Y0032825D01*
X0064880Y0033056D01*
X0064090Y0033292D01*
X0063302Y0033533D01*
X0062519Y0033778D01*
X0061735Y0034030D01*
X0060954Y0034287D01*
X0060175Y0034549D01*
X0059400Y0034817D01*
X0058626Y0035092D01*
X0057856Y0035372D01*
X0057088Y0035659D01*
X0056324Y0035952D01*
X0055563Y0036252D01*
X0054804Y0036560D01*
X0054050Y0036875D01*
X0053299Y0037198D01*
X0052550Y0037530D01*
X0051807Y0037869D01*
X0051068Y0038218D01*
X0050332Y0038576D01*
X0049604Y0038943D01*
X0048882Y0039319D01*
X0048167Y0039706D01*
X0047461Y0040102D01*
X0046761Y0040510D01*
X0046276Y0040803D01*
X0046268Y0040808D01*
X0046253Y0040817D01*
X0046237Y0040827D01*
X0046217Y0040840D01*
X0046206Y0040847D01*
X0046195Y0040854D01*
X0046175Y0040867D01*
X0046164Y0040874D01*
X0046150Y0040883D01*
X0046136Y0040892D01*
X0046118Y0040904D01*
X0046108Y0040910D01*
X0046094Y0040920D01*
X0046075Y0040933D01*
X0046062Y0040942D01*
X0046049Y0040950D01*
X0046034Y0040961D01*
X0046021Y0040970D01*
X0046004Y0040982D01*
X0045992Y0040990D01*
X0045978Y0041000D01*
X0045963Y0041011D01*
X0045951Y0041020D01*
X0045935Y0041032D01*
X0045921Y0041042D01*
X0045908Y0041051D01*
X0045893Y0041062D01*
X0045878Y0041073D01*
X0045865Y0041083D01*
X0045852Y0041093D01*
X0045837Y0041104D01*
X0045820Y0041117D01*
X0045809Y0041126D01*
X0045795Y0041136D01*
X0045785Y0041145D01*
X0045768Y0041158D01*
X0045753Y0041170D01*
X0045740Y0041180D01*
X0045727Y0041191D01*
X0045711Y0041203D01*
X0045698Y0041214D01*
X0045686Y0041224D01*
X0045672Y0041235D01*
X0045657Y0041248D01*
X0045644Y0041259D01*
X0045631Y0041270D01*
X0045619Y0041280D01*
X0045602Y0041294D01*
X0045590Y0041305D01*
X0045577Y0041316D01*
X0045564Y0041327D01*
X0045548Y0041341D01*
X0045537Y0041351D01*
X0045524Y0041363D01*
X0045512Y0041374D01*
X0045496Y0041388D01*
X0045483Y0041400D01*
X0045469Y0041412D01*
X0045459Y0041421D01*
X0045442Y0041438D01*
X0045432Y0041447D01*
X0045419Y0041459D01*
X0045404Y0041473D01*
X0045393Y0041483D01*
X0045379Y0041497D01*
X0045367Y0041509D01*
X0045354Y0041522D01*
X0045342Y0041533D01*
X0045328Y0041547D01*
X0045316Y0041559D01*
X0045302Y0041573D01*
X0045291Y0041583D01*
X0045278Y0041597D01*
X0045263Y0041612D01*
X0045252Y0041623D01*
X0045239Y0041637D01*
X0045228Y0041649D01*
X0045217Y0041660D01*
X0045201Y0041676D01*
X0045191Y0041688D01*
X0045178Y0041701D01*
X0045166Y0041714D01*
X0045152Y0041729D01*
X0045140Y0041742D01*
X0045131Y0041753D01*
X0045118Y0041767D01*
X0045104Y0041783D01*
X0045091Y0041796D01*
X0045081Y0041808D01*
X0045069Y0041822D01*
X0045058Y0041834D01*
X0045044Y0041850D01*
X0045032Y0041864D01*
X0045024Y0041874D01*
X0045010Y0041890D01*
X0044998Y0041905D01*
X0044988Y0041916D01*
X0044976Y0041931D01*
X0044962Y0041948D01*
X0044950Y0041962D01*
X0044939Y0041976D01*
X0044930Y0041987D01*
X0044917Y0042003D01*
X0044907Y0042016D01*
X0044894Y0042032D01*
X0044883Y0042046D01*
X0044874Y0042058D01*
X0044861Y0042074D01*
X0044849Y0042090D01*
X0044839Y0042103D01*
X0044827Y0042119D01*
X0044817Y0042133D01*
X0044806Y0042147D01*
X0044794Y0042163D01*
X0044785Y0042175D01*
X0044772Y0042193D01*
X0044763Y0042206D01*
X0044752Y0042220D01*
X0044741Y0042236D01*
X0044731Y0042250D01*
X0044721Y0042264D01*
X0044709Y0042282D01*
X0044699Y0042295D01*
X0044689Y0042310D01*
X0044680Y0042324D01*
X0044667Y0042342D01*
X0044658Y0042356D01*
X0044649Y0042369D01*
X0044638Y0042385D01*
X0044628Y0042401D01*
X0044618Y0042416D01*
X0044607Y0042432D01*
X0044598Y0042447D01*
X0044590Y0042460D01*
X0044577Y0042479D01*
X0044569Y0042493D01*
X0044560Y0042507D01*
X0044548Y0042527D01*
X0044539Y0042540D01*
X0044529Y0042556D01*
X0044521Y0042570D01*
X0044513Y0042583D01*
X0044501Y0042604D01*
X0044491Y0042621D01*
X0044484Y0042633D01*
X0044476Y0042646D01*
X0044467Y0042662D01*
X0044454Y0042683D01*
X0044444Y0042702D01*
X0044437Y0042713D01*
X0044428Y0042730D01*
X0044420Y0042745D01*
X0044401Y0042779D01*
X0044387Y0042806D01*
X0044384Y0042810D01*
X0044377Y0042823D01*
X0044367Y0042842D01*
X0044359Y0042859D01*
X0044350Y0042875D01*
X0044343Y0042889D01*
X0044334Y0042906D01*
X0044326Y0042923D01*
X0044317Y0042939D01*
X0044309Y0042956D01*
X0044300Y0042973D01*
X0044294Y0042987D01*
X0044287Y0043000D01*
X0044276Y0043024D01*
X0044270Y0043036D01*
X0044261Y0043055D01*
X0044255Y0043067D01*
X0044246Y0043088D01*
X0044236Y0043108D01*
X0044231Y0043120D01*
X0044223Y0043137D01*
X0044217Y0043152D01*
X0044209Y0043170D01*
X0044193Y0043207D01*
X0044186Y0043221D01*
X0044180Y0043236D01*
X0044172Y0043256D01*
X0044168Y0043264D01*
X0044161Y0043282D01*
X0044147Y0043314D01*
X0044146Y0043318D01*
X0044137Y0043340D01*
X0044131Y0043356D01*
X0044125Y0043371D01*
X0044123Y0043376D01*
X0044111Y0043406D01*
X0044097Y0043442D01*
X0044091Y0043459D01*
X0044085Y0043474D01*
X0044079Y0043491D01*
X0044075Y0043502D01*
X0044068Y0043521D01*
X0044062Y0043539D01*
X0044053Y0043564D01*
X0044049Y0043576D01*
X0044043Y0043593D01*
X0044037Y0043611D01*
X0044031Y0043629D01*
X0044025Y0043647D01*
X0044020Y0043662D01*
X0044016Y0043676D01*
X0044009Y0043695D01*
X0044003Y0043715D01*
X0043996Y0043737D01*
X0043993Y0043747D01*
X0043987Y0043767D01*
X0043982Y0043782D01*
X0043977Y0043800D01*
X0043968Y0043829D01*
X0043966Y0043835D01*
X0043961Y0043854D01*
X0043956Y0043872D01*
X0043951Y0043889D01*
X0043946Y0043907D01*
X0043942Y0043921D01*
X0043937Y0043941D01*
X0043933Y0043955D01*
X0043923Y0043996D01*
X0043919Y0044011D01*
X0043915Y0044027D01*
X0043911Y0044044D01*
X0043906Y0044062D01*
X0043902Y0044081D01*
X0043899Y0044094D01*
X0043893Y0044118D01*
X0043889Y0044134D01*
X0043885Y0044152D01*
X0043882Y0044166D01*
X0043877Y0044187D01*
X0043874Y0044203D01*
X0043871Y0044217D01*
X0043867Y0044235D01*
X0043863Y0044255D01*
X0043859Y0044274D01*
X0043856Y0044289D01*
X0043853Y0044307D01*
X0043850Y0044324D01*
X0043846Y0044343D01*
X0043843Y0044358D01*
X0043840Y0044377D01*
X0043836Y0044398D01*
X0043834Y0044411D01*
X0043831Y0044428D01*
X0043828Y0044449D01*
X0043825Y0044463D01*
X0043819Y0044501D01*
X0043817Y0044517D01*
X0043814Y0044535D01*
X0043812Y0044553D01*
X0043809Y0044570D01*
X0043807Y0044588D01*
X0043804Y0044605D01*
X0043802Y0044622D01*
X0043800Y0044641D01*
X0043797Y0044659D01*
X0043795Y0044674D01*
X0043793Y0044691D01*
X0043791Y0044712D01*
X0043789Y0044726D01*
X0043788Y0044743D01*
X0043786Y0044761D01*
X0043784Y0044782D01*
X0043782Y0044796D01*
X0043780Y0044816D01*
X0043779Y0044831D01*
X0043778Y0044847D01*
X0043776Y0044868D01*
X0043774Y0044884D01*
X0043773Y0044902D01*
X0043772Y0044917D01*
X0043770Y0044938D01*
X0043770Y0044951D01*
X0043768Y0044973D01*
X0043767Y0044988D01*
X0043766Y0045005D01*
X0043765Y0045022D01*
X0043764Y0045043D01*
X0043763Y0045057D01*
X0043763Y0045070D01*
X0043762Y0045094D01*
X0043761Y0045111D01*
X0043761Y0045126D01*
X0043760Y0045144D01*
X0043760Y0045160D01*
X0043759Y0045180D01*
X0043759Y0045196D01*
X0043758Y0045214D01*
X0043758Y0045229D01*
X0043758Y0045246D01*
X0043758Y0045268D01*
X0043758Y0045280D01*
X0043757Y0045298D01*
X0043757Y0084290D01*
X0043757Y0084306D01*
X0043758Y0084321D01*
X0043758Y0084340D01*
X0043758Y0084356D01*
X0043758Y0084374D01*
X0043759Y0084391D01*
X0043759Y0084411D01*
X0043759Y0084424D01*
X0043760Y0084440D01*
X0043760Y0084461D01*
X0043761Y0084476D01*
X0043762Y0084495D01*
X0043762Y0084511D01*
X0043763Y0084533D01*
X0043764Y0084545D01*
X0043765Y0084566D01*
X0043766Y0084583D01*
X0043767Y0084601D01*
X0043768Y0084616D01*
X0043769Y0084632D01*
X0043770Y0084652D01*
X0043771Y0084669D01*
X0043773Y0084685D01*
X0043774Y0084702D01*
X0043775Y0084717D01*
X0043777Y0084738D01*
X0043778Y0084755D01*
X0043780Y0084774D01*
X0043782Y0084790D01*
X0043783Y0084809D01*
X0043785Y0084823D01*
X0043787Y0084843D01*
X0043789Y0084859D01*
X0043791Y0084880D01*
X0043792Y0084887D01*
X0043795Y0084914D01*
X0043797Y0084930D01*
X0043799Y0084948D01*
X0043801Y0084965D01*
X0043803Y0084981D01*
X0043806Y0085000D01*
X0043809Y0085022D01*
X0043811Y0085036D01*
X0043813Y0085049D01*
X0043816Y0085068D01*
X0043819Y0085087D01*
X0043822Y0085106D01*
X0043824Y0085123D01*
X0043827Y0085139D01*
X0043830Y0085158D01*
X0043833Y0085174D01*
X0043836Y0085195D01*
X0043839Y0085211D01*
X0043843Y0085230D01*
X0043845Y0085244D01*
X0043848Y0085257D01*
X0043852Y0085280D01*
X0043856Y0085301D01*
X0043859Y0085317D01*
X0043862Y0085332D01*
X0043866Y0085350D01*
X0043869Y0085368D01*
X0043873Y0085386D01*
X0043877Y0085403D01*
X0043880Y0085419D01*
X0043884Y0085435D01*
X0043888Y0085455D01*
X0043893Y0085475D01*
X0043896Y0085489D01*
X0043901Y0085508D01*
X0043905Y0085525D01*
X0043909Y0085541D01*
X0043913Y0085561D01*
X0043918Y0085579D01*
X0043923Y0085597D01*
X0043926Y0085610D01*
X0043931Y0085630D01*
X0043936Y0085646D01*
X0043941Y0085665D01*
X0043945Y0085682D01*
X0043949Y0085695D01*
X0043955Y0085718D01*
X0043959Y0085733D01*
X0043964Y0085748D01*
X0043970Y0085769D01*
X0043976Y0085790D01*
X0043980Y0085802D01*
X0043984Y0085817D01*
X0043990Y0085835D01*
X0043995Y0085854D01*
X0044003Y0085877D01*
X0044006Y0085889D01*
X0044009Y0085898D01*
X0044018Y0085925D01*
X0044023Y0085940D01*
X0044029Y0085957D01*
X0044036Y0085979D01*
X0044041Y0085993D01*
X0044046Y0086010D01*
X0044053Y0086029D01*
X0044059Y0086045D01*
X0044064Y0086058D01*
X0044071Y0086080D01*
X0044077Y0086095D01*
X0044083Y0086113D01*
X0044090Y0086131D01*
X0044096Y0086148D01*
X0044101Y0086159D01*
X0044109Y0086182D01*
X0044116Y0086201D01*
X0044122Y0086214D01*
X0044129Y0086231D01*
X0044135Y0086248D01*
X0044143Y0086267D01*
X0044149Y0086283D01*
X0044155Y0086298D01*
X0044171Y0086336D01*
X0044177Y0086350D01*
X0044184Y0086366D01*
X0044190Y0086380D01*
X0044199Y0086400D01*
X0044207Y0086418D01*
X0044215Y0086437D01*
X0044221Y0086451D01*
X0044229Y0086467D01*
X0044235Y0086482D01*
X0044244Y0086501D01*
X0044250Y0086515D01*
X0044259Y0086533D01*
X0044266Y0086549D01*
X0044274Y0086566D01*
X0044280Y0086577D01*
X0044292Y0086603D01*
X0044303Y0086624D01*
X0044307Y0086632D01*
X0044309Y0086638D01*
X0044322Y0086663D01*
X0044336Y0086690D01*
X0044340Y0086698D01*
X0044349Y0086715D01*
X0044352Y0086722D01*
X0044366Y0086748D01*
X0044377Y0086768D01*
X0044381Y0086776D01*
X0044391Y0086796D01*
X0044399Y0086810D01*
X0044411Y0086832D01*
X0044418Y0086844D01*
X0044422Y0086851D01*
X0044433Y0086872D01*
X0044445Y0086893D01*
X0044457Y0086915D01*
X0044463Y0086924D01*
X0044468Y0086933D01*
X0044480Y0086953D01*
X0044499Y0086986D01*
X0044507Y0086999D01*
X0044517Y0087017D01*
X0044536Y0087048D01*
X0044542Y0087057D01*
X0044558Y0087082D01*
X0044565Y0087093D01*
X0044575Y0087109D01*
X0044585Y0087126D01*
X0044596Y0087143D01*
X0044604Y0087156D01*
X0044615Y0087172D01*
X0044624Y0087186D01*
X0044633Y0087200D01*
X0044645Y0087218D01*
X0044655Y0087233D01*
X0044666Y0087249D01*
X0044674Y0087261D01*
X0044687Y0087280D01*
X0044690Y0087284D01*
X0044710Y0087313D01*
X0044727Y0087337D01*
X0044735Y0087349D01*
X0044749Y0087368D01*
X0044760Y0087384D01*
X0044762Y0087386D01*
X0044783Y0087416D01*
X0044789Y0087423D01*
X0044801Y0087440D01*
X0044828Y0087476D01*
X0044833Y0087482D01*
X0044852Y0087506D01*
X0044857Y0087513D01*
X0044868Y0087528D01*
X0044881Y0087544D01*
X0044888Y0087554D01*
X0044904Y0087574D01*
X0044914Y0087586D01*
X0044926Y0087601D01*
X0044936Y0087614D01*
X0044949Y0087629D01*
X0044958Y0087640D01*
X0044967Y0087651D01*
X0044983Y0087670D01*
X0044996Y0087686D01*
X0045018Y0087713D01*
X0045040Y0087738D01*
X0045050Y0087749D01*
X0045063Y0087764D01*
X0045079Y0087783D01*
X0045090Y0087795D01*
X0045091Y0087796D01*
X0045126Y0087835D01*
X0045145Y0087856D01*
X0045147Y0087858D01*
X0045179Y0087893D01*
X0045187Y0087901D01*
X0045195Y0087910D01*
X0045214Y0087930D01*
X0045223Y0087939D01*
X0045235Y0087952D01*
X0045250Y0087967D01*
X0045263Y0087981D01*
X0045273Y0087991D01*
X0045283Y0088001D01*
X0045300Y0088018D01*
X0045312Y0088031D01*
X0045325Y0088043D01*
X0045334Y0088052D01*
X0045355Y0088072D01*
X0045363Y0088080D01*
X0045376Y0088093D01*
X0045386Y0088102D01*
X0045398Y0088114D01*
X0045417Y0088132D01*
X0045427Y0088142D01*
X0045439Y0088153D01*
X0045457Y0088169D01*
X0045467Y0088179D01*
X0045485Y0088195D01*
X0045491Y0088201D01*
X0045503Y0088212D01*
X0045534Y0088239D01*
X0045557Y0088260D01*
X0045575Y0088275D01*
X0045600Y0088296D01*
X0045629Y0088321D01*
X0045633Y0088325D01*
X0045668Y0088354D01*
X0045698Y0088379D01*
X0045700Y0088381D01*
X0045728Y0088403D01*
X0045734Y0088408D01*
X0045781Y0088445D01*
X0045797Y0088458D01*
X0045803Y0088463D01*
X0045814Y0088471D01*
X0045834Y0088486D01*
X0045850Y0088498D01*
X0045876Y0088518D01*
X0045886Y0088525D01*
X0045901Y0088536D01*
X0045926Y0088555D01*
X0045946Y0088569D01*
X0045962Y0088581D01*
X0045973Y0088589D01*
X0045981Y0088594D01*
X0046004Y0088611D01*
X0046044Y0088638D01*
X0046088Y0088669D01*
X0046117Y0088688D01*
X0046129Y0088696D01*
X0046144Y0088706D01*
X0046155Y0088713D01*
X0046170Y0088723D01*
X0046190Y0088736D01*
X0046205Y0088745D01*
X0046216Y0088752D01*
X0046219Y0088754D01*
X0046250Y0088774D01*
X0046265Y0088783D01*
X0046271Y0088787D01*
X0046567Y0088967D01*
X0047274Y0089384D01*
X0047985Y0089787D01*
X0048701Y0090178D01*
X0049426Y0090559D01*
X0050158Y0090931D01*
X0050898Y0091293D01*
X0051644Y0091647D01*
X0052395Y0091992D01*
X0053153Y0092330D01*
X0053916Y0092660D01*
X0054683Y0092982D01*
X0055454Y0093296D01*
X0056230Y0093603D01*
X0057009Y0093903D01*
X0057791Y0094196D01*
X0058577Y0094482D01*
X0059365Y0094762D01*
X0060157Y0095035D01*
X0060949Y0095303D01*
X0061744Y0095564D01*
X0062542Y0095820D01*
X0063341Y0096070D01*
X0064144Y0096315D01*
X0064947Y0096555D01*
X0065754Y0096790D01*
X0066561Y0097019D01*
X0066986Y0097137D01*
X0066321Y0096731D01*
X0063459Y0093883D01*
X0062396Y0092166D01*
X0061983Y0091500D01*
X0061983Y0091500D01*
X0060946Y0089824D01*
X0060891Y0089824D01*
X0059867Y0089399D01*
X0059083Y0088615D01*
X0058658Y0087591D01*
X0058658Y0086482D01*
X0059083Y0085457D01*
X0059867Y0084673D01*
X0060891Y0084249D01*
X0062000Y0084249D01*
X0063025Y0084673D01*
X0063809Y0085457D01*
X0064233Y0086482D01*
X0064233Y0087591D01*
X0064145Y0087802D01*
X0065442Y0089896D01*
X0065614Y0090174D01*
X0066515Y0091456D01*
X0068732Y0093662D01*
X0071401Y0095295D01*
X0072859Y0095867D01*
X0072859Y0095867D01*
X0076549Y0096941D01*
X0080301Y0097775D01*
X0085475Y0098703D01*
X0090665Y0099535D01*
X0090665Y0099535D01*
X0097720Y0100512D01*
X0095947Y0099510D01*
X0095265Y0099124D01*
X0094863Y0098897D01*
X0093609Y0096746D01*
X0093609Y0092668D01*
X0092952Y0092668D01*
X0092132Y0091848D01*
X0092132Y0088674D01*
X0092092Y0088634D01*
X0091919Y0088333D01*
X0092002Y0088857D01*
X0092002Y0089202D01*
X0092002Y0089546D01*
X0091894Y0090226D01*
X0091681Y0090881D01*
X0091368Y0091494D01*
X0090964Y0092052D01*
X0090477Y0092538D01*
X0089920Y0092943D01*
X0089306Y0093256D01*
X0088651Y0093469D01*
X0087971Y0093576D01*
X0087627Y0093576D01*
X0087627Y0089202D01*
X0087627Y0089202D01*
X0092002Y0089202D01*
X0087627Y0089202D01*
X0087627Y0089202D01*
X0087627Y0093576D01*
X0087282Y0093576D01*
X0086602Y0093469D01*
X0085947Y0093256D01*
X0085334Y0092943D01*
X0084777Y0092538D01*
X0084290Y0092052D01*
X0083885Y0091494D01*
X0083572Y0090881D01*
X0083360Y0090226D01*
X0083252Y0089546D01*
X0083252Y0089202D01*
X0087627Y0089202D01*
X0087627Y0089202D01*
X0083252Y0089202D01*
X0083252Y0088857D01*
X0083360Y0088177D01*
X0083572Y0087522D01*
X0083885Y0086909D01*
X0084290Y0086352D01*
X0084777Y0085865D01*
X0085334Y0085460D01*
X0085643Y0085302D01*
X0084472Y0085302D01*
X0083652Y0084482D01*
X0083652Y0080029D01*
X0081994Y0078371D01*
X0081994Y0073457D01*
X0083103Y0072349D01*
X0089796Y0065656D01*
X0094323Y0065656D01*
X0097831Y0062148D01*
X0097831Y0061925D01*
X0097670Y0061763D01*
X0094401Y0061763D01*
X0093930Y0062234D01*
X0092906Y0062658D01*
X0091797Y0062658D01*
X0090772Y0062234D01*
X0089988Y0061450D01*
X0089564Y0060425D01*
X0089564Y0059316D01*
X0089988Y0058292D01*
X0090772Y0057508D01*
X0091797Y0057083D01*
X0092906Y0057083D01*
X0093930Y0057508D01*
X0094401Y0057979D01*
X0099237Y0057979D01*
X0100507Y0059249D01*
X0101173Y0059249D01*
X0102198Y0059673D01*
X0102982Y0060457D01*
X0103406Y0061482D01*
X0103406Y0062591D01*
X0102982Y0063615D01*
X0102198Y0064399D01*
X0101173Y0064824D01*
X0100507Y0064824D01*
X0095891Y0069440D01*
X0091363Y0069440D01*
X0090725Y0070079D01*
X0091170Y0070079D01*
X0091170Y0072863D01*
X0091170Y0072863D01*
X0088583Y0072863D01*
X0088583Y0072221D01*
X0085779Y0075025D01*
X0085779Y0076804D01*
X0086328Y0077353D01*
X0088926Y0077353D01*
X0088983Y0077296D01*
X0088983Y0074993D01*
X0088942Y0074952D01*
X0088705Y0074542D01*
X0088583Y0074084D01*
X0088583Y0072863D01*
X0091170Y0072863D01*
X0091170Y0072863D01*
X0091170Y0070079D01*
X0092194Y0070079D01*
X0092652Y0070201D01*
X0093063Y0070438D01*
X0093398Y0070774D01*
X0093635Y0071184D01*
X0093757Y0071642D01*
X0093757Y0072863D01*
X0093757Y0074084D01*
X0093635Y0074542D01*
X0093398Y0074952D01*
X0093357Y0074993D01*
X0093357Y0077970D01*
X0093062Y0078266D01*
X0093062Y0078568D01*
X0092687Y0078943D01*
X0094323Y0078943D01*
X0095603Y0080223D01*
X0098049Y0080223D01*
X0098869Y0081043D01*
X0098869Y0084217D01*
X0098910Y0084258D01*
X0099147Y0084668D01*
X0099269Y0085126D01*
X0099269Y0086446D01*
X0099269Y0087765D01*
X0099147Y0088223D01*
X0098910Y0088634D01*
X0098869Y0088674D01*
X0098869Y0091848D01*
X0098049Y0092668D01*
X0097393Y0092668D01*
X0097393Y0095501D01*
X0097421Y0095715D01*
X0097637Y0096086D01*
X0097810Y0096216D01*
X0097810Y0096216D01*
X0099845Y0097245D01*
X0104158Y0098713D01*
X0106398Y0099139D01*
X0114272Y0100089D01*
X0122143Y0100695D01*
X0189599Y0100695D01*
X0194682Y0095612D01*
X0194682Y0094946D01*
X0195106Y0093922D01*
X0195890Y0093138D01*
X0196915Y0092713D01*
X0198024Y0092713D01*
X0199048Y0093138D01*
X0199832Y0093922D01*
X0200257Y0094946D01*
X0200257Y0096055D01*
X0199832Y0097080D01*
X0199048Y0097864D01*
X0198024Y0098288D01*
X0197358Y0098288D01*
X0192588Y0103057D01*
X0193099Y0103057D01*
X0199137Y0102779D01*
X0199137Y0102779D01*
X0211218Y0101695D01*
X0223215Y0099915D01*
X0228455Y0098904D01*
X0228471Y0098882D01*
X0229207Y0098759D01*
X0229938Y0098607D01*
X0229958Y0098620D01*
X0235156Y0097657D01*
X0246843Y0094833D01*
X0248901Y0094216D01*
X0248302Y0093968D01*
X0247073Y0092739D01*
X0246408Y0091134D01*
X0246408Y0089396D01*
X0247073Y0087790D01*
X0248302Y0086561D01*
X0249907Y0085896D01*
X0251645Y0085896D01*
X0253251Y0086561D01*
X0254480Y0087790D01*
X0254517Y0087880D01*
X0255064Y0087880D01*
X0256502Y0086442D01*
X0256502Y0077781D01*
X0258668Y0075616D01*
X0260064Y0074219D01*
X0265471Y0074219D01*
X0265574Y0073969D01*
X0266877Y0072666D01*
X0265574Y0071363D01*
X0264867Y0069654D01*
X0264867Y0067804D01*
X0265574Y0066095D01*
X0266877Y0064792D01*
X0265574Y0063489D01*
X0265267Y0062747D01*
X0264985Y0062747D01*
X0261083Y0066649D01*
X0261083Y0067315D01*
X0260659Y0068340D01*
X0259875Y0069124D01*
X0258851Y0069548D01*
X0257742Y0069548D01*
X0256717Y0069124D01*
X0255933Y0068340D01*
X0255509Y0067315D01*
X0255509Y0066206D01*
X0255933Y0065182D01*
X0256717Y0064398D01*
X0257742Y0063973D01*
X0258408Y0063973D01*
X0262309Y0060071D01*
X0263418Y0058963D01*
X0265267Y0058963D01*
X0265574Y0058221D01*
X0266883Y0056913D01*
X0268592Y0056205D01*
X0270441Y0056205D01*
X0272151Y0056913D01*
X0273459Y0058221D01*
X0274167Y0059930D01*
X0274167Y0061780D01*
X0273459Y0063489D01*
X0272156Y0064792D01*
X0273459Y0066095D01*
X0274167Y0067804D01*
X0274167Y0069654D01*
X0273459Y0071363D01*
X0272156Y0072666D01*
X0273459Y0073969D01*
X0274167Y0075678D01*
X0274167Y0077528D01*
X0273459Y0079237D01*
X0273213Y0079483D01*
X0273461Y0079550D01*
X0273872Y0079787D01*
X0274207Y0080122D01*
X0274444Y0080532D01*
X0274567Y0080990D01*
X0274567Y0084402D01*
X0269592Y0084402D01*
X0269592Y0084552D01*
X0269442Y0084552D01*
X0269442Y0089527D01*
X0266030Y0089527D01*
X0265572Y0089405D01*
X0265161Y0089168D01*
X0264826Y0088832D01*
X0264589Y0088422D01*
X0264467Y0087964D01*
X0264467Y0084552D01*
X0269441Y0084552D01*
X0269441Y0084402D01*
X0264467Y0084402D01*
X0264467Y0080990D01*
X0264589Y0080532D01*
X0264826Y0080122D01*
X0265161Y0079787D01*
X0265572Y0079550D01*
X0265821Y0079483D01*
X0265574Y0079237D01*
X0265471Y0078987D01*
X0265489Y0079031D02*
X0261995Y0079031D01*
X0261271Y0080630D02*
X0264563Y0080630D01*
X0264467Y0082228D02*
X0261271Y0082228D01*
X0261271Y0083827D02*
X0264467Y0083827D01*
X0264467Y0085425D02*
X0261271Y0085425D01*
X0261271Y0087024D02*
X0264467Y0087024D01*
X0264705Y0088623D02*
X0261066Y0088623D01*
X0260224Y0090221D02*
X0259467Y0090221D01*
X0255921Y0087024D02*
X0253714Y0087024D01*
X0256502Y0085425D02*
X0214891Y0085425D01*
X0215217Y0083827D02*
X0228161Y0083827D01*
X0226861Y0082228D02*
X0214517Y0082228D01*
X0210343Y0082228D02*
X0193172Y0082228D01*
X0191574Y0080630D02*
X0226408Y0080630D01*
X0226559Y0079031D02*
X0189975Y0079031D01*
X0188377Y0077433D02*
X0227430Y0077433D01*
X0228884Y0075834D02*
X0225021Y0075834D01*
X0225247Y0075608D02*
X0224427Y0076428D01*
X0220708Y0076428D01*
X0219888Y0075608D01*
X0219888Y0070315D01*
X0220708Y0069494D01*
X0224427Y0069494D01*
X0225247Y0070315D01*
X0225247Y0075608D01*
X0225247Y0074236D02*
X0228884Y0074236D01*
X0228884Y0072637D02*
X0225247Y0072637D01*
X0225247Y0071039D02*
X0228884Y0071039D01*
X0228884Y0069440D02*
X0180384Y0069440D01*
X0181982Y0071039D02*
X0211424Y0071039D01*
X0211424Y0070315D02*
X0212244Y0069494D01*
X0215963Y0069494D01*
X0216783Y0070315D01*
X0216783Y0075608D01*
X0215963Y0076428D01*
X0212244Y0076428D01*
X0211424Y0075608D01*
X0211424Y0070315D01*
X0211424Y0072637D02*
X0183581Y0072637D01*
X0185179Y0074236D02*
X0211424Y0074236D01*
X0211650Y0075834D02*
X0186778Y0075834D01*
X0180686Y0079031D02*
X0175802Y0079031D01*
X0174203Y0077433D02*
X0179088Y0077433D01*
X0177489Y0075834D02*
X0172605Y0075834D01*
X0168852Y0077433D02*
X0159701Y0077433D01*
X0161130Y0079031D02*
X0170450Y0079031D01*
X0172049Y0080630D02*
X0161228Y0080630D01*
X0160385Y0082228D02*
X0173647Y0082228D01*
X0175246Y0083827D02*
X0159457Y0083827D01*
X0157858Y0085425D02*
X0176844Y0085425D01*
X0176443Y0087024D02*
X0156260Y0087024D01*
X0154661Y0088623D02*
X0176178Y0088623D01*
X0177027Y0090221D02*
X0141645Y0090221D01*
X0140047Y0091820D02*
X0205594Y0091820D01*
X0208782Y0093430D02*
X0209240Y0093307D01*
X0210461Y0093307D01*
X0210461Y0095894D01*
X0210461Y0095894D01*
X0207677Y0095894D01*
X0207677Y0094870D01*
X0207800Y0094412D01*
X0208037Y0094002D01*
X0208372Y0093667D01*
X0208782Y0093430D01*
X0208826Y0093418D02*
X0199329Y0093418D01*
X0200257Y0095017D02*
X0207677Y0095017D01*
X0207677Y0095895D02*
X0210461Y0095895D01*
X0210461Y0098482D01*
X0209240Y0098482D01*
X0208782Y0098359D01*
X0208372Y0098122D01*
X0208037Y0097787D01*
X0207800Y0097377D01*
X0207677Y0096919D01*
X0207677Y0095895D01*
X0207677Y0096615D02*
X0200025Y0096615D01*
X0198204Y0098214D02*
X0208530Y0098214D01*
X0210461Y0098214D02*
X0210461Y0098214D01*
X0210461Y0098482D02*
X0210461Y0095895D01*
X0210461Y0095895D01*
X0210461Y0095894D01*
X0210461Y0093307D01*
X0211683Y0093307D01*
X0212140Y0093430D01*
X0212551Y0093667D01*
X0212591Y0093707D01*
X0213097Y0093707D01*
X0213097Y0092236D01*
X0212626Y0091765D01*
X0212202Y0090740D01*
X0212202Y0089631D01*
X0212626Y0088607D01*
X0213410Y0087823D01*
X0214435Y0087398D01*
X0215543Y0087398D01*
X0216568Y0087823D01*
X0217352Y0088607D01*
X0217776Y0089631D01*
X0217776Y0090740D01*
X0217352Y0091765D01*
X0216881Y0092236D01*
X0216881Y0094628D01*
X0216944Y0095323D01*
X0216881Y0095398D01*
X0216881Y0095497D01*
X0216389Y0095989D01*
X0216389Y0097262D01*
X0215569Y0098082D01*
X0212591Y0098082D01*
X0212551Y0098122D01*
X0212140Y0098359D01*
X0211683Y0098482D01*
X0210461Y0098482D01*
X0210461Y0096615D02*
X0210461Y0096615D01*
X0210461Y0095017D02*
X0210461Y0095017D01*
X0210461Y0093418D02*
X0210461Y0093418D01*
X0212097Y0093418D02*
X0213097Y0093418D01*
X0212681Y0091820D02*
X0209817Y0091820D01*
X0210493Y0090221D02*
X0212202Y0090221D01*
X0212619Y0088623D02*
X0210157Y0088623D01*
X0210984Y0087024D02*
X0227273Y0087024D01*
X0227139Y0087158D02*
X0227670Y0086627D01*
X0228277Y0086186D01*
X0228946Y0085845D01*
X0229660Y0085613D01*
X0230401Y0085496D01*
X0230592Y0085496D01*
X0230592Y0090080D01*
X0230961Y0090080D01*
X0230961Y0090449D01*
X0235545Y0090449D01*
X0235545Y0090640D01*
X0235427Y0091381D01*
X0235196Y0092095D01*
X0234855Y0092764D01*
X0234414Y0093371D01*
X0233883Y0093902D01*
X0233276Y0094343D01*
X0232607Y0094684D01*
X0231893Y0094916D01*
X0231152Y0095033D01*
X0230961Y0095033D01*
X0230961Y0090449D01*
X0230592Y0090449D01*
X0230592Y0095033D01*
X0230401Y0095033D01*
X0229660Y0094916D01*
X0228946Y0094684D01*
X0228277Y0094343D01*
X0227670Y0093902D01*
X0227139Y0093371D01*
X0226698Y0092764D01*
X0226357Y0092095D01*
X0226125Y0091381D01*
X0226008Y0090640D01*
X0226008Y0090449D01*
X0230592Y0090449D01*
X0230592Y0090080D01*
X0226008Y0090080D01*
X0226008Y0089889D01*
X0226125Y0089148D01*
X0226357Y0088434D01*
X0226698Y0087765D01*
X0227139Y0087158D01*
X0226296Y0088623D02*
X0217358Y0088623D01*
X0217776Y0090221D02*
X0230592Y0090221D01*
X0230961Y0090221D02*
X0236408Y0090221D01*
X0236408Y0089396D02*
X0237073Y0087790D01*
X0238302Y0086561D01*
X0239907Y0085896D01*
X0241645Y0085896D01*
X0243251Y0086561D01*
X0244480Y0087790D01*
X0245145Y0089396D01*
X0245145Y0091134D01*
X0244480Y0092739D01*
X0243251Y0093968D01*
X0241645Y0094633D01*
X0239907Y0094633D01*
X0238302Y0093968D01*
X0237073Y0092739D01*
X0236408Y0091134D01*
X0236408Y0089396D01*
X0236728Y0088623D02*
X0235257Y0088623D01*
X0235196Y0088434D02*
X0235427Y0089148D01*
X0235545Y0089889D01*
X0235545Y0090080D01*
X0230961Y0090080D01*
X0230961Y0085496D01*
X0231152Y0085496D01*
X0231893Y0085613D01*
X0232607Y0085845D01*
X0233276Y0086186D01*
X0233883Y0086627D01*
X0234414Y0087158D01*
X0234855Y0087765D01*
X0235196Y0088434D01*
X0234279Y0087024D02*
X0237839Y0087024D01*
X0238302Y0083968D02*
X0237073Y0082739D01*
X0236408Y0081134D01*
X0236408Y0079396D01*
X0237073Y0077790D01*
X0238302Y0076561D01*
X0239907Y0075896D01*
X0241645Y0075896D01*
X0243251Y0076561D01*
X0244480Y0077790D01*
X0245145Y0079396D01*
X0245145Y0081134D01*
X0244480Y0082739D01*
X0243251Y0083968D01*
X0241645Y0084633D01*
X0239907Y0084633D01*
X0238302Y0083968D01*
X0238161Y0083827D02*
X0233392Y0083827D01*
X0234691Y0082228D02*
X0236861Y0082228D01*
X0236408Y0080630D02*
X0235145Y0080630D01*
X0234994Y0079031D02*
X0236559Y0079031D01*
X0237430Y0077433D02*
X0234123Y0077433D01*
X0232668Y0075834D02*
X0258449Y0075834D01*
X0260047Y0074236D02*
X0232668Y0074236D01*
X0232668Y0072637D02*
X0266849Y0072637D01*
X0265440Y0071039D02*
X0232668Y0071039D01*
X0232668Y0069440D02*
X0235280Y0069440D01*
X0234994Y0069322D02*
X0233491Y0067819D01*
X0232677Y0065855D01*
X0232677Y0063729D01*
X0233491Y0061765D01*
X0234994Y0060262D01*
X0236958Y0059449D01*
X0239083Y0059449D01*
X0241047Y0060262D01*
X0242550Y0061765D01*
X0243364Y0063729D01*
X0243364Y0065855D01*
X0242550Y0067819D01*
X0241047Y0069322D01*
X0239083Y0070135D01*
X0236958Y0070135D01*
X0234994Y0069322D01*
X0233514Y0067842D02*
X0232668Y0067842D01*
X0232668Y0066243D02*
X0232838Y0066243D01*
X0232677Y0064645D02*
X0232668Y0064645D01*
X0232668Y0063046D02*
X0232960Y0063046D01*
X0233808Y0061448D02*
X0231643Y0061448D01*
X0230045Y0059849D02*
X0235991Y0059849D01*
X0240050Y0059849D02*
X0262532Y0059849D01*
X0260933Y0061448D02*
X0242233Y0061448D01*
X0243081Y0063046D02*
X0259334Y0063046D01*
X0256470Y0064645D02*
X0243364Y0064645D01*
X0243203Y0066243D02*
X0255509Y0066243D01*
X0255727Y0067842D02*
X0242527Y0067842D01*
X0240761Y0069440D02*
X0257482Y0069440D01*
X0259110Y0069440D02*
X0264867Y0069440D01*
X0264867Y0067842D02*
X0260865Y0067842D01*
X0261489Y0066243D02*
X0265513Y0066243D01*
X0266730Y0064645D02*
X0263088Y0064645D01*
X0264686Y0063046D02*
X0265391Y0063046D01*
X0272303Y0064645D02*
X0274803Y0064645D01*
X0274803Y0066243D02*
X0273520Y0066243D01*
X0274167Y0067842D02*
X0274803Y0067842D01*
X0274803Y0069440D02*
X0274167Y0069440D01*
X0273593Y0071039D02*
X0274803Y0071039D01*
X0274803Y0072637D02*
X0272184Y0072637D01*
X0273569Y0074236D02*
X0274803Y0074236D01*
X0274803Y0075834D02*
X0274167Y0075834D01*
X0274167Y0077433D02*
X0274803Y0077433D01*
X0274803Y0079031D02*
X0273544Y0079031D01*
X0274470Y0080630D02*
X0274803Y0080630D01*
X0274803Y0082228D02*
X0274567Y0082228D01*
X0274567Y0083827D02*
X0274803Y0083827D01*
X0274663Y0085425D02*
X0274567Y0085425D01*
X0269592Y0085425D02*
X0269442Y0085425D01*
X0269442Y0087024D02*
X0269592Y0087024D01*
X0269592Y0088623D02*
X0269442Y0088623D01*
X0269744Y0090221D02*
X0264635Y0090221D01*
X0265217Y0091820D02*
X0266508Y0091820D01*
X0256502Y0083827D02*
X0253392Y0083827D01*
X0253251Y0083968D02*
X0251645Y0084633D01*
X0249907Y0084633D01*
X0248302Y0083968D01*
X0247073Y0082739D01*
X0246408Y0081134D01*
X0246408Y0079396D01*
X0247073Y0077790D01*
X0248302Y0076561D01*
X0249907Y0075896D01*
X0251645Y0075896D01*
X0253251Y0076561D01*
X0254480Y0077790D01*
X0255145Y0079396D01*
X0255145Y0081134D01*
X0254480Y0082739D01*
X0253251Y0083968D01*
X0254691Y0082228D02*
X0256502Y0082228D01*
X0256502Y0080630D02*
X0255145Y0080630D01*
X0254994Y0079031D02*
X0256502Y0079031D01*
X0256850Y0077433D02*
X0254123Y0077433D01*
X0247430Y0077433D02*
X0244123Y0077433D01*
X0244994Y0079031D02*
X0246559Y0079031D01*
X0246408Y0080630D02*
X0245145Y0080630D01*
X0244691Y0082228D02*
X0246861Y0082228D01*
X0248161Y0083827D02*
X0243392Y0083827D01*
X0243714Y0087024D02*
X0247839Y0087024D01*
X0246728Y0088623D02*
X0244825Y0088623D01*
X0245145Y0090221D02*
X0246408Y0090221D01*
X0246692Y0091820D02*
X0244861Y0091820D01*
X0243801Y0093418D02*
X0247752Y0093418D01*
X0246082Y0095017D02*
X0231256Y0095017D01*
X0230961Y0095017D02*
X0230592Y0095017D01*
X0230297Y0095017D02*
X0216916Y0095017D01*
X0216881Y0093418D02*
X0227186Y0093418D01*
X0230592Y0093418D02*
X0230961Y0093418D01*
X0234367Y0093418D02*
X0237752Y0093418D01*
X0236692Y0091820D02*
X0235285Y0091820D01*
X0230961Y0091820D02*
X0230592Y0091820D01*
X0226268Y0091820D02*
X0217297Y0091820D01*
X0216389Y0096615D02*
X0239467Y0096615D01*
X0232153Y0098214D02*
X0212393Y0098214D01*
X0213133Y0101411D02*
X0194235Y0101411D01*
X0194146Y0103009D02*
X0192637Y0103009D01*
X0190482Y0099812D02*
X0111976Y0099812D01*
X0106398Y0099139D02*
X0106398Y0099139D01*
X0102691Y0098214D02*
X0192081Y0098214D01*
X0193679Y0096615D02*
X0098600Y0096615D01*
X0097393Y0095017D02*
X0123745Y0095017D01*
X0123235Y0093418D02*
X0097393Y0093418D01*
X0093609Y0093418D02*
X0088807Y0093418D01*
X0087627Y0093418D02*
X0087627Y0093418D01*
X0086447Y0093418D02*
X0068487Y0093418D01*
X0070946Y0095017D02*
X0093609Y0095017D01*
X0093609Y0096615D02*
X0075428Y0096615D01*
X0080301Y0097775D02*
X0080301Y0097775D01*
X0082745Y0098214D02*
X0094465Y0098214D01*
X0094863Y0098897D02*
X0094863Y0098897D01*
X0094863Y0098897D01*
X0095265Y0099124D02*
X0095265Y0099124D01*
X0096482Y0099812D02*
X0092664Y0099812D01*
X0092132Y0091820D02*
X0091132Y0091820D01*
X0091895Y0090221D02*
X0092132Y0090221D01*
X0092086Y0088623D02*
X0091964Y0088623D01*
X0091732Y0087680D02*
X0091732Y0086446D01*
X0095501Y0086446D01*
X0099269Y0086446D01*
X0095501Y0086446D01*
X0095501Y0086446D01*
X0095501Y0086446D01*
X0091732Y0086446D01*
X0091732Y0085126D01*
X0091855Y0084668D01*
X0092092Y0084258D01*
X0092132Y0084217D01*
X0092132Y0083712D01*
X0091602Y0083712D01*
X0091602Y0084482D01*
X0090781Y0085302D01*
X0089610Y0085302D01*
X0089920Y0085460D01*
X0090477Y0085865D01*
X0090964Y0086352D01*
X0091368Y0086909D01*
X0091681Y0087522D01*
X0091732Y0087680D01*
X0091732Y0087024D02*
X0091427Y0087024D01*
X0091732Y0085425D02*
X0089852Y0085425D01*
X0091602Y0083827D02*
X0092132Y0083827D01*
X0085401Y0085425D02*
X0063777Y0085425D01*
X0064233Y0087024D02*
X0083826Y0087024D01*
X0083289Y0088623D02*
X0064653Y0088623D01*
X0065646Y0090221D02*
X0083359Y0090221D01*
X0084121Y0091820D02*
X0066880Y0091820D01*
X0062181Y0091820D02*
X0052019Y0091820D01*
X0048783Y0090221D02*
X0061192Y0090221D01*
X0059090Y0088623D02*
X0046021Y0088623D01*
X0044522Y0087024D02*
X0058658Y0087024D01*
X0059114Y0085425D02*
X0043882Y0085425D01*
X0043757Y0083827D02*
X0083652Y0083827D01*
X0083652Y0082228D02*
X0043757Y0082228D01*
X0043757Y0080630D02*
X0083652Y0080630D01*
X0082655Y0079031D02*
X0043757Y0079031D01*
X0043757Y0077433D02*
X0081994Y0077433D01*
X0081994Y0075834D02*
X0043757Y0075834D01*
X0043757Y0074236D02*
X0081994Y0074236D01*
X0082814Y0072637D02*
X0053981Y0072637D01*
X0053971Y0072674D02*
X0053734Y0073084D01*
X0053399Y0073420D01*
X0052989Y0073656D01*
X0052531Y0073779D01*
X0049119Y0073779D01*
X0049119Y0068804D01*
X0054094Y0068804D01*
X0054094Y0072216D01*
X0053971Y0072674D01*
X0054094Y0071039D02*
X0084413Y0071039D01*
X0083103Y0072349D02*
X0083103Y0072349D01*
X0086567Y0074236D02*
X0088623Y0074236D01*
X0088583Y0072637D02*
X0088166Y0072637D01*
X0091170Y0072637D02*
X0091170Y0072637D01*
X0091170Y0072863D02*
X0091170Y0072863D01*
X0093757Y0072863D01*
X0091170Y0072863D01*
X0091170Y0071039D02*
X0091170Y0071039D01*
X0091363Y0069440D02*
X0099190Y0069440D01*
X0099181Y0069024D02*
X0104949Y0069024D01*
X0099181Y0069024D01*
X0099359Y0067842D02*
X0097489Y0067842D01*
X0099088Y0066243D02*
X0100395Y0066243D01*
X0101605Y0064645D02*
X0106617Y0064645D01*
X0104950Y0065240D02*
X0104950Y0069024D01*
X0104950Y0069024D01*
X0104950Y0065240D01*
X0104950Y0066243D02*
X0104950Y0066243D01*
X0104950Y0067842D02*
X0104950Y0067842D01*
X0104949Y0069024D02*
X0104949Y0069024D01*
X0104950Y0069440D02*
X0104950Y0069440D01*
X0104950Y0071039D02*
X0104950Y0071039D01*
X0104950Y0072637D02*
X0104950Y0072637D01*
X0107003Y0074236D02*
X0101089Y0074236D01*
X0101799Y0072637D02*
X0093757Y0072637D01*
X0093717Y0074236D02*
X0097393Y0074236D01*
X0097562Y0074138D02*
X0098020Y0074016D01*
X0099241Y0074016D01*
X0099241Y0076603D01*
X0099241Y0076603D01*
X0096457Y0076603D01*
X0096457Y0075579D01*
X0096579Y0075121D01*
X0096816Y0074711D01*
X0097151Y0074375D01*
X0097562Y0074138D01*
X0099241Y0074236D02*
X0099241Y0074236D01*
X0099241Y0075834D02*
X0099241Y0075834D01*
X0099241Y0076603D02*
X0099241Y0076603D01*
X0096457Y0076603D01*
X0096457Y0077628D01*
X0096579Y0078085D01*
X0096816Y0078496D01*
X0097151Y0078831D01*
X0097562Y0079068D01*
X0098020Y0079191D01*
X0099241Y0079191D01*
X0099241Y0076603D01*
X0099241Y0076603D01*
X0099241Y0077433D02*
X0099241Y0077433D01*
X0099241Y0079031D02*
X0099241Y0079031D01*
X0100983Y0079031D02*
X0102537Y0079031D01*
X0107629Y0079031D02*
X0111395Y0079031D01*
X0109796Y0077433D02*
X0109158Y0077433D01*
X0105405Y0075834D02*
X0105168Y0075834D01*
X0108100Y0072637D02*
X0108602Y0072637D01*
X0099760Y0071039D02*
X0093551Y0071039D01*
X0093357Y0075834D02*
X0096457Y0075834D01*
X0096457Y0077433D02*
X0093357Y0077433D01*
X0094411Y0079031D02*
X0097499Y0079031D01*
X0098456Y0080630D02*
X0102781Y0080630D01*
X0102369Y0082228D02*
X0098869Y0082228D01*
X0098869Y0083827D02*
X0102369Y0083827D01*
X0099269Y0085425D02*
X0107677Y0085425D01*
X0107677Y0087024D02*
X0099269Y0087024D01*
X0098916Y0088623D02*
X0102369Y0088623D01*
X0102369Y0090221D02*
X0098869Y0090221D01*
X0098869Y0091820D02*
X0102369Y0091820D01*
X0110461Y0086446D02*
X0110461Y0086446D01*
X0110461Y0085425D02*
X0110461Y0085425D01*
X0109105Y0083827D02*
X0119494Y0083827D01*
X0119863Y0085425D02*
X0113246Y0085425D01*
X0113246Y0087024D02*
X0139491Y0087024D01*
X0140013Y0085425D02*
X0133055Y0085425D01*
X0132965Y0085582D02*
X0132630Y0085918D01*
X0132219Y0086154D01*
X0131761Y0086277D01*
X0129950Y0086277D01*
X0129950Y0082509D01*
X0133324Y0082509D01*
X0133324Y0084714D01*
X0133202Y0085172D01*
X0132965Y0085582D01*
X0133324Y0083827D02*
X0139967Y0083827D01*
X0137902Y0082228D02*
X0133324Y0082228D01*
X0133324Y0082509D02*
X0129950Y0082509D01*
X0129950Y0082509D01*
X0129950Y0082509D01*
X0129950Y0086277D01*
X0128138Y0086277D01*
X0127680Y0086154D01*
X0127270Y0085918D01*
X0126934Y0085582D01*
X0126697Y0085172D01*
X0126575Y0084714D01*
X0126575Y0082509D01*
X0129949Y0082509D01*
X0129949Y0082509D01*
X0126575Y0082509D01*
X0126575Y0080303D01*
X0126697Y0079845D01*
X0126934Y0079435D01*
X0127270Y0079100D01*
X0127680Y0078863D01*
X0128138Y0078740D01*
X0129950Y0078740D01*
X0131761Y0078740D01*
X0132219Y0078863D01*
X0132630Y0079100D01*
X0132965Y0079435D01*
X0133202Y0079845D01*
X0133324Y0080303D01*
X0133324Y0082509D01*
X0133324Y0080630D02*
X0137595Y0080630D01*
X0143170Y0080630D02*
X0155758Y0080630D01*
X0155704Y0082228D02*
X0144735Y0082228D01*
X0144735Y0083827D02*
X0154105Y0083827D01*
X0155856Y0079031D02*
X0142422Y0079031D01*
X0142397Y0077433D02*
X0157285Y0077433D01*
X0138610Y0077433D02*
X0134748Y0077433D01*
X0136347Y0075834D02*
X0138665Y0075834D01*
X0138343Y0079031D02*
X0132511Y0079031D01*
X0129950Y0079031D02*
X0129950Y0079031D01*
X0129950Y0078740D02*
X0129950Y0082509D01*
X0129950Y0082509D01*
X0129950Y0078740D01*
X0127388Y0079031D02*
X0121152Y0079031D01*
X0120489Y0079031D02*
X0116747Y0079031D01*
X0112993Y0080630D02*
X0108693Y0080630D01*
X0109105Y0082228D02*
X0114592Y0082228D01*
X0112602Y0088623D02*
X0124021Y0088623D01*
X0123235Y0090221D02*
X0112846Y0090221D01*
X0112776Y0091820D02*
X0123235Y0091820D01*
X0128398Y0088623D02*
X0137892Y0088623D01*
X0129950Y0085425D02*
X0129950Y0085425D01*
X0129950Y0083827D02*
X0129950Y0083827D01*
X0129950Y0082228D02*
X0129950Y0082228D01*
X0129950Y0080630D02*
X0129950Y0080630D01*
X0126575Y0080630D02*
X0125444Y0080630D01*
X0125444Y0082228D02*
X0126575Y0082228D01*
X0126575Y0083827D02*
X0125444Y0083827D01*
X0125076Y0085425D02*
X0126844Y0085425D01*
X0138448Y0093418D02*
X0195610Y0093418D01*
X0194682Y0095017D02*
X0128674Y0095017D01*
X0087627Y0091820D02*
X0087627Y0091820D01*
X0087627Y0090221D02*
X0087627Y0090221D01*
X0066321Y0096731D02*
X0066321Y0096731D01*
X0066205Y0096615D02*
X0065155Y0096615D01*
X0064598Y0095017D02*
X0060102Y0095017D01*
X0063171Y0093418D02*
X0055763Y0093418D01*
X0063459Y0093883D02*
X0063459Y0093883D01*
X0085779Y0075834D02*
X0088983Y0075834D01*
X0086011Y0069440D02*
X0083281Y0069440D01*
X0083567Y0069322D02*
X0081603Y0070135D01*
X0079477Y0070135D01*
X0077513Y0069322D01*
X0076010Y0067819D01*
X0075197Y0065855D01*
X0075197Y0063729D01*
X0076010Y0061765D01*
X0077513Y0060262D01*
X0079477Y0059449D01*
X0081603Y0059449D01*
X0083567Y0060262D01*
X0085070Y0061765D01*
X0085883Y0063729D01*
X0085883Y0065855D01*
X0085070Y0067819D01*
X0083567Y0069322D01*
X0085047Y0067842D02*
X0087610Y0067842D01*
X0089208Y0066243D02*
X0085723Y0066243D01*
X0085883Y0064645D02*
X0095334Y0064645D01*
X0096933Y0063046D02*
X0085601Y0063046D01*
X0084752Y0061448D02*
X0089987Y0061448D01*
X0089564Y0059849D02*
X0082570Y0059849D01*
X0078510Y0059849D02*
X0069145Y0059849D01*
X0069145Y0060268D02*
X0067748Y0061665D01*
X0066173Y0063239D01*
X0053090Y0063239D01*
X0052986Y0063489D01*
X0052740Y0063735D01*
X0052989Y0063802D01*
X0053399Y0064039D01*
X0053734Y0064374D01*
X0053971Y0064784D01*
X0054094Y0065242D01*
X0054094Y0068654D01*
X0049119Y0068654D01*
X0049119Y0068804D01*
X0048969Y0068804D01*
X0048969Y0068654D01*
X0043994Y0068654D01*
X0043994Y0065242D01*
X0044117Y0064784D01*
X0044354Y0064374D01*
X0044689Y0064039D01*
X0045099Y0063802D01*
X0045348Y0063735D01*
X0045102Y0063489D01*
X0044394Y0061780D01*
X0044394Y0059930D01*
X0045102Y0058221D01*
X0046405Y0056918D01*
X0045102Y0055615D01*
X0044394Y0053906D01*
X0044394Y0052056D01*
X0045102Y0050347D01*
X0046405Y0049044D01*
X0045102Y0047741D01*
X0044394Y0046032D01*
X0044394Y0044182D01*
X0045102Y0042473D01*
X0046410Y0041165D01*
X0048119Y0040457D01*
X0049969Y0040457D01*
X0051678Y0041165D01*
X0052986Y0042473D01*
X0053694Y0044182D01*
X0053694Y0046032D01*
X0052986Y0047741D01*
X0051683Y0049044D01*
X0052986Y0050347D01*
X0053293Y0051089D01*
X0058292Y0051089D01*
X0061334Y0054131D01*
X0062000Y0054131D01*
X0062998Y0054544D01*
X0062998Y0048858D01*
X0063819Y0048038D01*
X0069703Y0048038D01*
X0070523Y0048858D01*
X0070523Y0054742D01*
X0069703Y0055562D01*
X0069145Y0055562D01*
X0069145Y0060268D01*
X0067965Y0061448D02*
X0076328Y0061448D01*
X0075480Y0063046D02*
X0066366Y0063046D01*
X0069145Y0058251D02*
X0090029Y0058251D01*
X0081235Y0055054D02*
X0105581Y0055054D01*
X0104478Y0053455D02*
X0081546Y0053455D01*
X0074334Y0055054D02*
X0070211Y0055054D01*
X0070523Y0053455D02*
X0074022Y0053455D01*
X0074022Y0051857D02*
X0070523Y0051857D01*
X0070523Y0050258D02*
X0074022Y0050258D01*
X0074220Y0048660D02*
X0070325Y0048660D01*
X0076716Y0047061D02*
X0053268Y0047061D01*
X0053694Y0045463D02*
X0077203Y0045463D01*
X0077541Y0044352D02*
X0077541Y0044352D01*
X0077821Y0043864D02*
X0053562Y0043864D01*
X0052779Y0042266D02*
X0078737Y0042266D01*
X0079652Y0040667D02*
X0050476Y0040667D01*
X0049362Y0039069D02*
X0080890Y0039069D01*
X0080039Y0039992D02*
X0080039Y0039992D01*
X0083248Y0042266D02*
X0088101Y0042266D01*
X0084722Y0040667D02*
X0136916Y0040667D01*
X0136916Y0039069D02*
X0123966Y0039069D01*
X0124663Y0037470D02*
X0136916Y0037470D01*
X0136916Y0035872D02*
X0124663Y0035872D01*
X0124260Y0034273D02*
X0136981Y0034273D01*
X0137643Y0032675D02*
X0124782Y0032675D01*
X0126381Y0031076D02*
X0138684Y0031076D01*
X0139943Y0029478D02*
X0127979Y0029478D01*
X0129578Y0027879D02*
X0140645Y0027879D01*
X0147915Y0027879D02*
X0150234Y0027879D01*
X0149602Y0029478D02*
X0148618Y0029478D01*
X0149512Y0030606D02*
X0154096Y0030606D01*
X0154096Y0035191D01*
X0153905Y0035191D01*
X0153164Y0035073D01*
X0152450Y0034841D01*
X0151781Y0034500D01*
X0151174Y0034059D01*
X0150643Y0033529D01*
X0150202Y0032921D01*
X0149861Y0032253D01*
X0149629Y0031539D01*
X0149512Y0030797D01*
X0149512Y0030606D01*
X0149556Y0031076D02*
X0148649Y0031076D01*
X0148076Y0032675D02*
X0150076Y0032675D01*
X0151468Y0034273D02*
X0146398Y0034273D01*
X0142162Y0034273D02*
X0141151Y0034273D01*
X0140702Y0035872D02*
X0169023Y0035872D01*
X0170621Y0037470D02*
X0140700Y0037470D01*
X0140700Y0039069D02*
X0189936Y0039069D01*
X0187989Y0042266D02*
X0184403Y0042266D01*
X0179721Y0042266D02*
X0176386Y0042266D01*
X0174649Y0040667D02*
X0199802Y0040667D01*
X0201401Y0042266D02*
X0195138Y0042266D01*
X0196737Y0043864D02*
X0202999Y0043864D01*
X0205619Y0045463D02*
X0208056Y0045463D01*
X0207217Y0047061D02*
X0211865Y0047061D01*
X0211611Y0045463D02*
X0211292Y0045463D01*
X0208816Y0048660D02*
X0213791Y0048660D01*
X0215006Y0048660D02*
X0219563Y0048660D01*
X0217965Y0050258D02*
X0210414Y0050258D01*
X0212013Y0051857D02*
X0216366Y0051857D01*
X0222568Y0052756D02*
X0222568Y0056623D01*
X0222568Y0052756D01*
X0222568Y0053455D02*
X0222568Y0053455D01*
X0222568Y0055054D02*
X0222568Y0055054D01*
X0225647Y0055054D02*
X0274803Y0055054D01*
X0274803Y0053455D02*
X0233428Y0053455D01*
X0233721Y0051857D02*
X0274803Y0051857D01*
X0274803Y0050258D02*
X0232940Y0050258D01*
X0230493Y0048660D02*
X0274803Y0048660D01*
X0274803Y0047061D02*
X0216932Y0047061D01*
X0217186Y0045463D02*
X0274797Y0045463D01*
X0274593Y0043864D02*
X0216684Y0043864D01*
X0216684Y0042266D02*
X0273832Y0042266D01*
X0273433Y0041762D02*
X0273433Y0041762D01*
X0272414Y0040885D02*
X0272414Y0040885D01*
X0272058Y0040667D02*
X0216684Y0040667D01*
X0216684Y0039069D02*
X0269200Y0039069D01*
X0265875Y0037470D02*
X0216684Y0037470D01*
X0216711Y0035872D02*
X0262028Y0035872D01*
X0257564Y0034273D02*
X0216086Y0034273D01*
X0214167Y0032675D02*
X0252364Y0032675D01*
X0246251Y0031076D02*
X0212249Y0031076D01*
X0210331Y0029478D02*
X0238942Y0029478D01*
X0229988Y0027879D02*
X0208508Y0027879D01*
X0202238Y0024682D02*
X0180070Y0024682D01*
X0181325Y0026281D02*
X0218490Y0026281D01*
X0178648Y0043339D02*
X0178648Y0043339D01*
X0174272Y0045463D02*
X0173082Y0045463D01*
X0173082Y0047061D02*
X0175400Y0047061D01*
X0175400Y0048660D02*
X0173082Y0048660D01*
X0173370Y0050258D02*
X0175400Y0050258D01*
X0175400Y0051857D02*
X0173482Y0051857D01*
X0173064Y0053455D02*
X0175983Y0053455D01*
X0170304Y0053455D02*
X0170304Y0053455D01*
X0170304Y0051857D02*
X0170304Y0051857D01*
X0167544Y0053455D02*
X0157561Y0053455D01*
X0158995Y0051857D02*
X0163792Y0051857D01*
X0166367Y0051857D02*
X0166367Y0051857D01*
X0166367Y0050258D02*
X0166367Y0050258D01*
X0159308Y0050258D02*
X0159204Y0050258D01*
X0159204Y0047061D02*
X0159290Y0047061D01*
X0159204Y0045463D02*
X0159726Y0045463D01*
X0160193Y0043864D02*
X0159204Y0043864D01*
X0155420Y0044745D02*
X0155420Y0045496D01*
X0155251Y0045398D01*
X0154793Y0045276D01*
X0153769Y0045276D01*
X0153769Y0048060D01*
X0153768Y0048060D01*
X0153768Y0045276D01*
X0152806Y0045276D01*
X0152806Y0043850D01*
X0153293Y0043850D01*
X0153764Y0044321D01*
X0154789Y0044745D01*
X0155420Y0044745D01*
X0155420Y0045463D02*
X0155362Y0045463D01*
X0153769Y0045463D02*
X0153768Y0045463D01*
X0153768Y0047061D02*
X0153769Y0047061D01*
X0153308Y0043864D02*
X0152806Y0043864D01*
X0146857Y0043864D02*
X0141783Y0043864D01*
X0141783Y0045463D02*
X0146857Y0045463D01*
X0146457Y0047061D02*
X0136271Y0047061D01*
X0136074Y0048660D02*
X0146457Y0048660D01*
X0146766Y0050258D02*
X0141608Y0050258D01*
X0141783Y0051857D02*
X0146857Y0051857D01*
X0146857Y0053455D02*
X0141783Y0053455D01*
X0124705Y0058251D02*
X0120966Y0058251D01*
X0120897Y0058148D02*
X0121311Y0058767D01*
X0121596Y0059456D01*
X0121742Y0060187D01*
X0121742Y0060560D01*
X0115973Y0060560D01*
X0115973Y0060560D01*
X0115973Y0056776D01*
X0118330Y0056776D01*
X0119061Y0056921D01*
X0119750Y0057206D01*
X0120370Y0057620D01*
X0120897Y0058148D01*
X0121675Y0059849D02*
X0161898Y0059849D01*
X0156869Y0063046D02*
X0175613Y0063046D01*
X0175765Y0061448D02*
X0155348Y0061448D01*
X0152469Y0061448D02*
X0152469Y0061448D01*
X0152469Y0063046D02*
X0152469Y0063046D01*
X0152469Y0064645D02*
X0152469Y0064645D01*
X0148069Y0064645D02*
X0146469Y0064645D01*
X0146469Y0066243D02*
X0148069Y0066243D01*
X0149297Y0067842D02*
X0145076Y0067842D01*
X0139862Y0067842D02*
X0132587Y0067842D01*
X0131552Y0066243D02*
X0138469Y0066243D01*
X0138469Y0064645D02*
X0123525Y0064645D01*
X0121091Y0064645D02*
X0121091Y0064645D01*
X0121091Y0066243D02*
X0121091Y0066243D01*
X0121091Y0067842D02*
X0121091Y0067842D01*
X0126997Y0067842D02*
X0126997Y0067842D01*
X0126997Y0066243D02*
X0126997Y0066243D01*
X0120823Y0063046D02*
X0138558Y0063046D01*
X0140157Y0061448D02*
X0121639Y0061448D01*
X0115973Y0059849D02*
X0115973Y0059849D01*
X0115973Y0058251D02*
X0115973Y0058251D01*
X0110981Y0058251D02*
X0109598Y0058251D01*
X0109598Y0059849D02*
X0110272Y0059849D01*
X0110307Y0061448D02*
X0109598Y0061448D01*
X0105813Y0061448D02*
X0103392Y0061448D01*
X0103218Y0063046D02*
X0105813Y0063046D01*
X0105813Y0059849D02*
X0102374Y0059849D01*
X0099509Y0058251D02*
X0105813Y0058251D01*
X0105813Y0056652D02*
X0069145Y0056652D01*
X0062998Y0053455D02*
X0060659Y0053455D01*
X0059060Y0051857D02*
X0062998Y0051857D01*
X0062998Y0050258D02*
X0052897Y0050258D01*
X0052068Y0048660D02*
X0063197Y0048660D01*
X0046021Y0048660D02*
X0043757Y0048660D01*
X0043757Y0050258D02*
X0045191Y0050258D01*
X0044477Y0051857D02*
X0043757Y0051857D01*
X0043757Y0053455D02*
X0044394Y0053455D01*
X0044870Y0055054D02*
X0043757Y0055054D01*
X0043757Y0056652D02*
X0046139Y0056652D01*
X0045090Y0058251D02*
X0043757Y0058251D01*
X0043757Y0059849D02*
X0044428Y0059849D01*
X0044394Y0061448D02*
X0043757Y0061448D01*
X0043757Y0063046D02*
X0044919Y0063046D01*
X0044197Y0064645D02*
X0043757Y0064645D01*
X0043757Y0066243D02*
X0043994Y0066243D01*
X0043994Y0067842D02*
X0043757Y0067842D01*
X0043994Y0068804D02*
X0048969Y0068804D01*
X0048969Y0073779D01*
X0045557Y0073779D01*
X0045099Y0073656D01*
X0044689Y0073420D01*
X0044354Y0073084D01*
X0044117Y0072674D01*
X0043994Y0072216D01*
X0043994Y0068804D01*
X0043994Y0069440D02*
X0043757Y0069440D01*
X0043757Y0071039D02*
X0043994Y0071039D01*
X0044107Y0072637D02*
X0043757Y0072637D01*
X0048969Y0072637D02*
X0049119Y0072637D01*
X0049119Y0071039D02*
X0048969Y0071039D01*
X0048969Y0069440D02*
X0049119Y0069440D01*
X0054094Y0069440D02*
X0077799Y0069440D01*
X0076033Y0067842D02*
X0054094Y0067842D01*
X0054094Y0066243D02*
X0075358Y0066243D01*
X0075197Y0064645D02*
X0053891Y0064645D01*
X0081348Y0048660D02*
X0115811Y0048660D01*
X0116050Y0050258D02*
X0106727Y0050258D01*
X0106456Y0049987D02*
X0106456Y0049987D01*
X0108325Y0051857D02*
X0116278Y0051857D01*
X0116877Y0053304D02*
X0116877Y0053304D01*
X0117028Y0053455D02*
X0109086Y0053455D01*
X0108494Y0052026D02*
X0108494Y0052026D01*
X0109598Y0055054D02*
X0118939Y0055054D01*
X0118406Y0054833D02*
X0118406Y0054833D01*
X0121286Y0051857D02*
X0124213Y0051857D01*
X0124213Y0050258D02*
X0119837Y0050258D01*
X0119834Y0048660D02*
X0124252Y0048660D01*
X0124448Y0047061D02*
X0119329Y0047061D01*
X0118667Y0045463D02*
X0124409Y0045463D01*
X0124409Y0043864D02*
X0117096Y0043864D01*
X0114147Y0042266D02*
X0124474Y0042266D01*
X0127784Y0042266D02*
X0127784Y0042266D01*
X0127784Y0043864D02*
X0127784Y0043864D01*
X0136271Y0042266D02*
X0136520Y0042266D01*
X0140700Y0040667D02*
X0150155Y0040667D01*
X0149132Y0041258D02*
X0149132Y0041258D01*
X0147543Y0042266D02*
X0141096Y0042266D01*
X0154096Y0034273D02*
X0154465Y0034273D01*
X0154465Y0032675D02*
X0154096Y0032675D01*
X0157092Y0034273D02*
X0162162Y0034273D01*
X0160485Y0032675D02*
X0158484Y0032675D01*
X0159005Y0031076D02*
X0159912Y0031076D01*
X0159943Y0029478D02*
X0158959Y0029478D01*
X0158327Y0027879D02*
X0160645Y0027879D01*
X0154465Y0031076D02*
X0154096Y0031076D01*
X0166398Y0034273D02*
X0167424Y0034273D01*
X0163789Y0040667D02*
X0157826Y0040667D01*
X0158169Y0041100D02*
X0158169Y0041100D01*
X0158169Y0041100D01*
X0158843Y0042266D02*
X0161991Y0042266D01*
X0165889Y0043864D02*
X0172535Y0043864D01*
X0184893Y0043864D02*
X0186391Y0043864D01*
X0192767Y0050258D02*
X0194127Y0050258D01*
X0194213Y0050344D02*
X0194213Y0050344D01*
X0192767Y0051857D02*
X0202110Y0051857D01*
X0203708Y0053455D02*
X0192767Y0053455D01*
X0192767Y0055054D02*
X0205307Y0055054D01*
X0206905Y0056652D02*
X0191970Y0056652D01*
X0190372Y0058251D02*
X0207290Y0058251D01*
X0207290Y0059849D02*
X0188773Y0059849D01*
X0187175Y0061448D02*
X0208158Y0061448D01*
X0209756Y0063046D02*
X0181137Y0063046D01*
X0180102Y0064645D02*
X0228884Y0064645D01*
X0228884Y0066243D02*
X0156869Y0066243D01*
X0156869Y0064645D02*
X0176648Y0064645D01*
X0177321Y0059849D02*
X0170049Y0059849D01*
X0169492Y0055054D02*
X0162454Y0055054D01*
X0149591Y0061448D02*
X0144782Y0061448D01*
X0146380Y0063046D02*
X0148069Y0063046D01*
X0155642Y0067842D02*
X0228884Y0067842D01*
X0227890Y0063046D02*
X0218450Y0063046D01*
X0220049Y0061448D02*
X0225026Y0061448D01*
X0222568Y0059849D02*
X0222568Y0059849D01*
X0222568Y0058251D02*
X0222568Y0058251D01*
X0222568Y0056652D02*
X0222568Y0056652D01*
X0222568Y0056623D02*
X0222568Y0056623D01*
X0225647Y0056652D02*
X0267512Y0056652D01*
X0265562Y0058251D02*
X0229506Y0058251D01*
X0228439Y0053455D02*
X0225290Y0053455D01*
X0219888Y0071039D02*
X0216783Y0071039D01*
X0216783Y0072637D02*
X0219888Y0072637D01*
X0219888Y0074236D02*
X0216783Y0074236D01*
X0216556Y0075834D02*
X0220114Y0075834D01*
X0230592Y0087024D02*
X0230961Y0087024D01*
X0230961Y0088623D02*
X0230592Y0088623D01*
X0223750Y0099812D02*
X0195834Y0099812D01*
X0191876Y0090221D02*
X0180904Y0090221D01*
X0181753Y0088623D02*
X0190277Y0088623D01*
X0188679Y0087024D02*
X0181488Y0087024D01*
X0180857Y0085425D02*
X0187080Y0085425D01*
X0185482Y0083827D02*
X0180597Y0083827D01*
X0178999Y0082228D02*
X0183883Y0082228D01*
X0182285Y0080630D02*
X0177400Y0080630D01*
X0123566Y0057593D02*
X0123566Y0057593D01*
X0123566Y0057593D01*
X0123023Y0056652D02*
X0109598Y0056652D01*
X0114833Y0047061D02*
X0080793Y0047061D01*
X0081401Y0045463D02*
X0088002Y0045463D01*
X0087595Y0043864D02*
X0082316Y0043864D01*
X0086299Y0039069D02*
X0119792Y0039069D01*
X0119789Y0039067D02*
X0119454Y0038732D01*
X0119217Y0038322D01*
X0119094Y0037864D01*
X0119094Y0036839D01*
X0121879Y0036839D01*
X0121879Y0036839D01*
X0121879Y0036839D01*
X0121879Y0039427D01*
X0120658Y0039427D01*
X0120200Y0039304D01*
X0119789Y0039067D01*
X0119094Y0037470D02*
X0088627Y0037470D01*
X0092070Y0035872D02*
X0119094Y0035872D01*
X0121879Y0037470D02*
X0121879Y0037470D01*
X0121879Y0039069D02*
X0121879Y0039069D01*
X0122628Y0029478D02*
X0079618Y0029478D01*
X0072308Y0031076D02*
X0095665Y0031076D01*
X0097224Y0030836D02*
X0097224Y0030836D01*
X0092258Y0031601D02*
X0092258Y0031601D01*
X0089550Y0032675D02*
X0066197Y0032675D01*
X0060995Y0034273D02*
X0086392Y0034273D01*
X0087587Y0033453D02*
X0087587Y0033453D01*
X0084064Y0035872D02*
X0056533Y0035872D01*
X0052685Y0037470D02*
X0082364Y0037470D01*
X0083445Y0036297D02*
X0083445Y0036297D01*
X0083445Y0036297D01*
X0088573Y0027879D02*
X0124226Y0027879D01*
X0125825Y0026281D02*
X0100067Y0026281D01*
X0116326Y0024682D02*
X0127423Y0024682D01*
X0127467Y0024638D02*
X0127467Y0024638D01*
X0047612Y0040667D02*
X0046501Y0040667D01*
X0045309Y0042266D02*
X0044720Y0042266D01*
X0044526Y0043864D02*
X0043958Y0043864D01*
X0043757Y0045463D02*
X0044394Y0045463D01*
X0044820Y0047061D02*
X0043757Y0047061D01*
X0271521Y0056652D02*
X0274803Y0056652D01*
X0274803Y0058251D02*
X0273471Y0058251D01*
X0274133Y0059849D02*
X0274803Y0059849D01*
X0274803Y0061448D02*
X0274167Y0061448D01*
X0273642Y0063046D02*
X0274803Y0063046D01*
D29*
X0269517Y0060855D02*
X0264202Y0060855D01*
X0258296Y0066761D01*
X0230776Y0063257D02*
X0230776Y0080265D01*
X0212430Y0084083D02*
X0210068Y0085265D01*
X0203375Y0085265D01*
X0199438Y0085265D02*
X0193532Y0085265D01*
X0178178Y0069910D01*
X0134871Y0069910D01*
X0130934Y0073847D01*
X0117548Y0073847D01*
X0115973Y0072272D01*
X0115973Y0068040D01*
X0113414Y0068040D02*
X0113414Y0074044D01*
X0115973Y0076603D01*
X0132902Y0076603D01*
X0136839Y0072666D01*
X0176997Y0072666D01*
X0192745Y0088414D01*
X0199044Y0088414D01*
X0199438Y0088808D01*
X0203375Y0088808D02*
X0206524Y0088808D01*
X0207706Y0089989D01*
X0214989Y0090186D02*
X0214989Y0094713D01*
X0214005Y0095894D01*
X0197469Y0095501D02*
X0190383Y0102587D01*
X0122076Y0102587D01*
X0125422Y0104950D02*
X0193139Y0104950D01*
X0178965Y0088217D02*
X0178965Y0084871D01*
X0169320Y0075225D01*
X0140580Y0075225D01*
X0140383Y0080934D01*
X0142351Y0082902D01*
X0142351Y0086839D02*
X0153769Y0086839D01*
X0158493Y0082115D01*
X0158493Y0079950D01*
X0142351Y0086839D02*
X0137627Y0091564D01*
X0126209Y0091564D01*
X0126209Y0091957D01*
X0120698Y0087233D02*
X0119517Y0088414D01*
X0120698Y0087233D02*
X0126209Y0087233D01*
X0129950Y0083493D01*
X0129950Y0082509D01*
X0122469Y0082509D02*
X0120501Y0080934D01*
X0115973Y0080934D01*
X0110855Y0075816D01*
X0110855Y0073060D01*
X0110855Y0068040D01*
X0110855Y0065580D01*
X0110855Y0064792D01*
X0110856Y0065580D02*
X0110854Y0065494D01*
X0110849Y0065408D01*
X0110839Y0065323D01*
X0110826Y0065238D01*
X0110809Y0065154D01*
X0110789Y0065070D01*
X0110765Y0064988D01*
X0110737Y0064907D01*
X0110706Y0064826D01*
X0110672Y0064748D01*
X0110634Y0064671D01*
X0110592Y0064596D01*
X0110548Y0064522D01*
X0110500Y0064451D01*
X0110449Y0064381D01*
X0110395Y0064314D01*
X0110339Y0064250D01*
X0110279Y0064188D01*
X0110217Y0064128D01*
X0110153Y0064072D01*
X0110086Y0064018D01*
X0110016Y0063967D01*
X0109945Y0063919D01*
X0109872Y0063875D01*
X0109796Y0063833D01*
X0109719Y0063795D01*
X0109641Y0063761D01*
X0109560Y0063730D01*
X0109479Y0063702D01*
X0109397Y0063678D01*
X0109313Y0063658D01*
X0109229Y0063641D01*
X0109144Y0063628D01*
X0109059Y0063618D01*
X0108973Y0063613D01*
X0108887Y0063611D01*
X0108821Y0063609D01*
X0108755Y0063604D01*
X0108689Y0063594D01*
X0108624Y0063581D01*
X0108560Y0063565D01*
X0108497Y0063545D01*
X0108435Y0063521D01*
X0108375Y0063494D01*
X0108316Y0063464D01*
X0108259Y0063430D01*
X0108204Y0063393D01*
X0108151Y0063353D01*
X0108100Y0063311D01*
X0108052Y0063265D01*
X0108006Y0063217D01*
X0107964Y0063166D01*
X0107924Y0063113D01*
X0107887Y0063058D01*
X0107853Y0063001D01*
X0107823Y0062942D01*
X0107796Y0062882D01*
X0107772Y0062820D01*
X0107752Y0062757D01*
X0107736Y0062693D01*
X0107723Y0062628D01*
X0107713Y0062562D01*
X0107708Y0062496D01*
X0107706Y0062430D01*
X0107706Y0056131D01*
X0107705Y0056131D02*
X0107703Y0055986D01*
X0107697Y0055841D01*
X0107687Y0055696D01*
X0107674Y0055552D01*
X0107656Y0055408D01*
X0107634Y0055265D01*
X0107609Y0055122D01*
X0107580Y0054980D01*
X0107547Y0054839D01*
X0107510Y0054699D01*
X0107469Y0054559D01*
X0107425Y0054421D01*
X0107377Y0054285D01*
X0107325Y0054149D01*
X0107269Y0054015D01*
X0107210Y0053883D01*
X0107148Y0053752D01*
X0107081Y0053623D01*
X0107012Y0053496D01*
X0106939Y0053371D01*
X0106862Y0053248D01*
X0106782Y0053126D01*
X0106699Y0053008D01*
X0106613Y0052891D01*
X0106524Y0052777D01*
X0106432Y0052665D01*
X0106336Y0052556D01*
X0106238Y0052449D01*
X0106137Y0052345D01*
X0106033Y0052244D01*
X0105926Y0052146D01*
X0105817Y0052050D01*
X0105705Y0051958D01*
X0105591Y0051869D01*
X0105474Y0051783D01*
X0105356Y0051700D01*
X0105234Y0051620D01*
X0105111Y0051543D01*
X0104986Y0051470D01*
X0104859Y0051401D01*
X0104730Y0051334D01*
X0104599Y0051272D01*
X0104467Y0051213D01*
X0104333Y0051157D01*
X0104197Y0051105D01*
X0104061Y0051057D01*
X0103923Y0051013D01*
X0103783Y0050972D01*
X0103643Y0050935D01*
X0103502Y0050902D01*
X0103360Y0050873D01*
X0103217Y0050848D01*
X0103074Y0050826D01*
X0102930Y0050808D01*
X0102786Y0050795D01*
X0102641Y0050785D01*
X0102496Y0050779D01*
X0102351Y0050777D01*
X0102351Y0050776D02*
X0081328Y0050776D01*
X0077784Y0051800D01*
X0090383Y0043926D02*
X0112036Y0043926D01*
X0112036Y0043925D02*
X0112188Y0043927D01*
X0112340Y0043933D01*
X0112492Y0043943D01*
X0112643Y0043956D01*
X0112794Y0043974D01*
X0112945Y0043995D01*
X0113095Y0044021D01*
X0113244Y0044050D01*
X0113393Y0044083D01*
X0113540Y0044120D01*
X0113687Y0044160D01*
X0113832Y0044205D01*
X0113976Y0044253D01*
X0114119Y0044305D01*
X0114261Y0044360D01*
X0114401Y0044419D01*
X0114540Y0044482D01*
X0114677Y0044548D01*
X0114812Y0044618D01*
X0114945Y0044691D01*
X0115076Y0044768D01*
X0115206Y0044848D01*
X0115333Y0044931D01*
X0115458Y0045017D01*
X0115581Y0045107D01*
X0115701Y0045200D01*
X0115819Y0045296D01*
X0115935Y0045395D01*
X0116048Y0045497D01*
X0116158Y0045601D01*
X0116266Y0045709D01*
X0116370Y0045819D01*
X0116472Y0045932D01*
X0116571Y0046048D01*
X0116667Y0046166D01*
X0116760Y0046286D01*
X0116850Y0046409D01*
X0116936Y0046534D01*
X0117019Y0046661D01*
X0117099Y0046791D01*
X0117176Y0046922D01*
X0117249Y0047055D01*
X0117319Y0047190D01*
X0117385Y0047327D01*
X0117448Y0047466D01*
X0117507Y0047606D01*
X0117562Y0047748D01*
X0117614Y0047891D01*
X0117662Y0048035D01*
X0117707Y0048180D01*
X0117747Y0048327D01*
X0117784Y0048474D01*
X0117817Y0048623D01*
X0117846Y0048772D01*
X0117872Y0048922D01*
X0117893Y0049073D01*
X0117911Y0049224D01*
X0117924Y0049375D01*
X0117934Y0049527D01*
X0117940Y0049679D01*
X0117942Y0049831D01*
X0117942Y0050225D01*
X0117944Y0050341D01*
X0117950Y0050457D01*
X0117959Y0050572D01*
X0117972Y0050687D01*
X0117989Y0050802D01*
X0118010Y0050916D01*
X0118035Y0051030D01*
X0118063Y0051142D01*
X0118095Y0051253D01*
X0118130Y0051364D01*
X0118169Y0051473D01*
X0118212Y0051581D01*
X0118258Y0051687D01*
X0118307Y0051792D01*
X0118360Y0051895D01*
X0118417Y0051996D01*
X0118476Y0052096D01*
X0118539Y0052193D01*
X0118605Y0052289D01*
X0118674Y0052382D01*
X0118746Y0052473D01*
X0118821Y0052561D01*
X0118899Y0052647D01*
X0118980Y0052730D01*
X0119063Y0052811D01*
X0119149Y0052889D01*
X0119237Y0052964D01*
X0119328Y0053036D01*
X0119421Y0053105D01*
X0119517Y0053171D01*
X0119614Y0053234D01*
X0119714Y0053293D01*
X0119815Y0053350D01*
X0119918Y0053403D01*
X0120023Y0053452D01*
X0120129Y0053498D01*
X0120237Y0053541D01*
X0120346Y0053580D01*
X0120457Y0053615D01*
X0120568Y0053647D01*
X0120680Y0053675D01*
X0120794Y0053700D01*
X0120908Y0053721D01*
X0121023Y0053738D01*
X0121138Y0053751D01*
X0121253Y0053760D01*
X0121369Y0053766D01*
X0121485Y0053768D01*
X0121485Y0053769D02*
X0123060Y0053769D01*
X0123060Y0053768D02*
X0123137Y0053770D01*
X0123214Y0053776D01*
X0123291Y0053785D01*
X0123367Y0053798D01*
X0123443Y0053815D01*
X0123517Y0053836D01*
X0123591Y0053860D01*
X0123663Y0053888D01*
X0123733Y0053919D01*
X0123802Y0053954D01*
X0123870Y0053992D01*
X0123935Y0054033D01*
X0123998Y0054078D01*
X0124059Y0054126D01*
X0124118Y0054176D01*
X0124174Y0054229D01*
X0124227Y0054285D01*
X0124277Y0054344D01*
X0124325Y0054405D01*
X0124370Y0054468D01*
X0124411Y0054533D01*
X0124449Y0054601D01*
X0124484Y0054670D01*
X0124515Y0054740D01*
X0124543Y0054812D01*
X0124567Y0054886D01*
X0124588Y0054960D01*
X0124605Y0055036D01*
X0124618Y0055112D01*
X0124627Y0055189D01*
X0124633Y0055266D01*
X0124635Y0055343D01*
X0124637Y0055409D01*
X0124642Y0055475D01*
X0124652Y0055541D01*
X0124665Y0055606D01*
X0124681Y0055670D01*
X0124701Y0055733D01*
X0124725Y0055795D01*
X0124752Y0055855D01*
X0124782Y0055914D01*
X0124816Y0055971D01*
X0124853Y0056026D01*
X0124893Y0056079D01*
X0124935Y0056130D01*
X0124981Y0056178D01*
X0125029Y0056224D01*
X0125080Y0056266D01*
X0125133Y0056306D01*
X0125188Y0056343D01*
X0125245Y0056377D01*
X0125304Y0056407D01*
X0125364Y0056434D01*
X0125426Y0056458D01*
X0125489Y0056478D01*
X0125553Y0056494D01*
X0125618Y0056507D01*
X0125684Y0056517D01*
X0125750Y0056522D01*
X0125816Y0056524D01*
X0161249Y0056524D01*
X0163217Y0058493D01*
X0168729Y0058493D01*
X0170698Y0056524D01*
X0185265Y0056524D01*
X0187233Y0054556D01*
X0187233Y0050225D01*
X0185068Y0048060D01*
X0185068Y0047863D01*
X0189398Y0043532D01*
X0193729Y0043532D01*
X0197469Y0047272D01*
X0204753Y0047272D01*
X0214103Y0056623D01*
X0226997Y0059477D02*
X0230776Y0063257D01*
X0214398Y0045894D02*
X0214792Y0045304D01*
X0214792Y0035658D01*
X0207706Y0029753D01*
X0181721Y0029753D01*
X0178178Y0025422D01*
X0129359Y0025422D01*
X0121879Y0032902D01*
X0099595Y0032902D01*
X0079949Y0099634D02*
X0078653Y0099375D01*
X0077363Y0099088D01*
X0076079Y0098774D01*
X0074802Y0098432D01*
X0073533Y0098062D01*
X0072272Y0097666D01*
X0064005Y0091170D02*
X0061446Y0087036D01*
X0064004Y0091170D02*
X0064203Y0091483D01*
X0064409Y0091790D01*
X0064623Y0092093D01*
X0064843Y0092390D01*
X0065071Y0092681D01*
X0065306Y0092967D01*
X0065547Y0093248D01*
X0065796Y0093522D01*
X0066051Y0093790D01*
X0066312Y0094052D01*
X0066580Y0094308D01*
X0066853Y0094557D01*
X0067133Y0094800D01*
X0067418Y0095035D01*
X0067709Y0095264D01*
X0068006Y0095486D01*
X0068308Y0095700D01*
X0068614Y0095907D01*
X0068926Y0096106D01*
X0069243Y0096298D01*
X0069564Y0096482D01*
X0069889Y0096659D01*
X0070218Y0096827D01*
X0070552Y0096988D01*
X0070889Y0097140D01*
X0071230Y0097284D01*
X0071574Y0097420D01*
X0071922Y0097547D01*
X0072272Y0097667D01*
X0095501Y0095501D02*
X0095501Y0090186D01*
X0095501Y0086446D02*
X0091564Y0086446D01*
X0094713Y0082706D02*
X0095501Y0082706D01*
X0090383Y0081328D02*
X0089989Y0081328D01*
X0087627Y0081328D02*
X0091170Y0077784D01*
X0091170Y0076406D01*
X0087627Y0081328D02*
X0083887Y0077587D01*
X0083887Y0074241D01*
X0090580Y0067548D01*
X0095107Y0067548D01*
X0100619Y0062036D01*
X0098454Y0059871D01*
X0092351Y0059871D01*
X0077785Y0051800D02*
X0077826Y0051309D01*
X0077879Y0050819D01*
X0077944Y0050330D01*
X0078021Y0049843D01*
X0078109Y0049358D01*
X0078209Y0048875D01*
X0078321Y0048394D01*
X0078444Y0047917D01*
X0078579Y0047443D01*
X0078725Y0046972D01*
X0078883Y0046504D01*
X0079051Y0046041D01*
X0079231Y0045582D01*
X0079422Y0045127D01*
X0079624Y0044677D01*
X0079837Y0044233D01*
X0080060Y0043793D01*
X0080294Y0043359D01*
X0080539Y0042931D01*
X0080793Y0042508D01*
X0081058Y0042092D01*
X0081333Y0041683D01*
X0081618Y0041280D01*
X0081912Y0040884D01*
X0082216Y0040496D01*
X0082529Y0040115D01*
X0082851Y0039741D01*
X0083182Y0039376D01*
X0083521Y0039019D01*
X0083870Y0038670D01*
X0084226Y0038329D01*
X0084591Y0037997D01*
X0084964Y0037674D01*
X0085344Y0037360D01*
X0085732Y0037056D01*
X0086127Y0036761D01*
X0086529Y0036475D01*
X0086938Y0036200D01*
X0087354Y0035934D01*
X0087775Y0035679D01*
X0088203Y0035433D01*
X0088637Y0035198D01*
X0089076Y0034974D01*
X0089520Y0034760D01*
X0089970Y0034558D01*
X0090424Y0034366D01*
X0090883Y0034185D01*
X0091346Y0034015D01*
X0091813Y0033856D01*
X0092283Y0033709D01*
X0092757Y0033573D01*
X0093235Y0033449D01*
X0093715Y0033336D01*
X0094197Y0033235D01*
X0094682Y0033146D01*
X0095169Y0033068D01*
X0095658Y0033002D01*
X0096148Y0032948D01*
X0096639Y0032906D01*
X0097132Y0032876D01*
X0097624Y0032857D01*
X0098118Y0032851D01*
X0098611Y0032856D01*
X0099103Y0032874D01*
X0099596Y0032903D01*
X0127784Y0044713D02*
X0128572Y0052194D01*
X0127587Y0051013D01*
X0133099Y0051013D02*
X0134083Y0051997D01*
X0138808Y0051997D01*
X0148650Y0048650D02*
X0149831Y0048257D01*
X0149833Y0048231D01*
X0149838Y0048206D01*
X0149846Y0048182D01*
X0149857Y0048159D01*
X0149872Y0048137D01*
X0149889Y0048118D01*
X0149908Y0048101D01*
X0149930Y0048086D01*
X0149953Y0048075D01*
X0149977Y0048067D01*
X0150002Y0048062D01*
X0150028Y0048060D01*
X0153769Y0048060D01*
X0157312Y0050619D02*
X0157310Y0050691D01*
X0157304Y0050763D01*
X0157295Y0050835D01*
X0157282Y0050906D01*
X0157265Y0050976D01*
X0157245Y0051045D01*
X0157220Y0051113D01*
X0157193Y0051179D01*
X0157162Y0051245D01*
X0157127Y0051308D01*
X0157090Y0051370D01*
X0157049Y0051429D01*
X0157005Y0051486D01*
X0156958Y0051541D01*
X0156908Y0051593D01*
X0156856Y0051643D01*
X0156801Y0051690D01*
X0156744Y0051734D01*
X0156685Y0051775D01*
X0156623Y0051812D01*
X0156560Y0051847D01*
X0156494Y0051878D01*
X0156428Y0051905D01*
X0156360Y0051930D01*
X0156291Y0051950D01*
X0156221Y0051967D01*
X0156150Y0051980D01*
X0156078Y0051989D01*
X0156006Y0051995D01*
X0155934Y0051997D01*
X0149831Y0051997D01*
X0149833Y0051958D01*
X0149839Y0051920D01*
X0149848Y0051883D01*
X0149861Y0051846D01*
X0149878Y0051811D01*
X0149897Y0051778D01*
X0149920Y0051747D01*
X0149946Y0051718D01*
X0149975Y0051692D01*
X0150006Y0051669D01*
X0150039Y0051650D01*
X0150074Y0051633D01*
X0150111Y0051620D01*
X0150148Y0051611D01*
X0150186Y0051605D01*
X0150225Y0051603D01*
X0153769Y0051603D01*
X0157312Y0050619D02*
X0157312Y0043926D01*
X0157310Y0043840D01*
X0157305Y0043754D01*
X0157295Y0043669D01*
X0157282Y0043584D01*
X0157265Y0043500D01*
X0157245Y0043416D01*
X0157221Y0043334D01*
X0157193Y0043253D01*
X0157162Y0043172D01*
X0157128Y0043094D01*
X0157090Y0043017D01*
X0157048Y0042942D01*
X0157004Y0042868D01*
X0156956Y0042797D01*
X0156905Y0042727D01*
X0156851Y0042660D01*
X0156795Y0042596D01*
X0156735Y0042534D01*
X0156673Y0042474D01*
X0156609Y0042418D01*
X0156542Y0042364D01*
X0156472Y0042313D01*
X0156401Y0042265D01*
X0156328Y0042221D01*
X0156252Y0042179D01*
X0156175Y0042141D01*
X0156097Y0042107D01*
X0156016Y0042076D01*
X0155935Y0042048D01*
X0155853Y0042024D01*
X0155769Y0042004D01*
X0155685Y0041987D01*
X0155600Y0041974D01*
X0155515Y0041964D01*
X0155429Y0041959D01*
X0155343Y0041957D01*
X0152391Y0041957D01*
X0152391Y0041958D02*
X0152291Y0041960D01*
X0152190Y0041966D01*
X0152090Y0041976D01*
X0151991Y0041990D01*
X0151892Y0042007D01*
X0151794Y0042029D01*
X0151696Y0042054D01*
X0151600Y0042083D01*
X0151505Y0042116D01*
X0151412Y0042153D01*
X0151320Y0042193D01*
X0151229Y0042237D01*
X0151141Y0042284D01*
X0151054Y0042335D01*
X0150969Y0042389D01*
X0150887Y0042447D01*
X0150807Y0042507D01*
X0150729Y0042571D01*
X0150654Y0042638D01*
X0150582Y0042708D01*
X0150512Y0042780D01*
X0150445Y0042855D01*
X0150381Y0042933D01*
X0150321Y0043013D01*
X0150263Y0043095D01*
X0150209Y0043180D01*
X0150158Y0043267D01*
X0150111Y0043355D01*
X0150067Y0043446D01*
X0150027Y0043538D01*
X0149990Y0043631D01*
X0149957Y0043726D01*
X0149928Y0043822D01*
X0149903Y0043920D01*
X0149881Y0044018D01*
X0149864Y0044117D01*
X0149850Y0044216D01*
X0149840Y0044316D01*
X0149834Y0044417D01*
X0149832Y0044517D01*
X0161643Y0045107D02*
X0161643Y0048650D01*
X0166367Y0050225D02*
X0166761Y0051406D01*
X0166957Y0051603D01*
X0170304Y0051603D01*
X0166761Y0051406D02*
X0165973Y0054162D01*
X0178178Y0051603D02*
X0181524Y0051603D01*
X0182902Y0052194D01*
X0180934Y0049044D02*
X0178178Y0049044D01*
X0180934Y0049044D02*
X0181918Y0048060D01*
X0182509Y0048060D01*
X0185068Y0048060D01*
X0182509Y0044123D02*
X0180540Y0044123D01*
X0178178Y0046485D01*
X0173257Y0041957D01*
X0165186Y0041957D01*
X0161643Y0045107D01*
X0166367Y0046288D02*
X0169517Y0046288D01*
X0169713Y0046485D01*
X0170304Y0046485D01*
X0170304Y0049044D01*
X0189202Y0035658D02*
X0191564Y0038020D01*
X0199831Y0038020D01*
X0204162Y0042351D01*
X0208887Y0042351D01*
X0209674Y0043139D01*
X0205737Y0038020D02*
X0205737Y0036446D01*
X0203375Y0034083D01*
X0199438Y0034083D02*
X0195501Y0034083D01*
X0189202Y0035658D02*
X0171485Y0035658D01*
X0166249Y0030422D01*
X0164280Y0030422D01*
X0144280Y0030422D02*
X0144134Y0030424D01*
X0143989Y0030430D01*
X0143843Y0030439D01*
X0143698Y0030453D01*
X0143554Y0030470D01*
X0143410Y0030492D01*
X0143266Y0030517D01*
X0143123Y0030546D01*
X0142981Y0030578D01*
X0142840Y0030615D01*
X0142700Y0030655D01*
X0142561Y0030699D01*
X0142424Y0030746D01*
X0142287Y0030798D01*
X0142152Y0030853D01*
X0142019Y0030911D01*
X0141887Y0030973D01*
X0141757Y0031038D01*
X0141629Y0031107D01*
X0141502Y0031180D01*
X0141378Y0031255D01*
X0141255Y0031334D01*
X0141135Y0031416D01*
X0141017Y0031502D01*
X0140901Y0031590D01*
X0140788Y0031681D01*
X0140677Y0031776D01*
X0140568Y0031873D01*
X0140463Y0031974D01*
X0140360Y0032077D01*
X0140259Y0032182D01*
X0140162Y0032291D01*
X0140067Y0032402D01*
X0139976Y0032515D01*
X0139888Y0032631D01*
X0139802Y0032749D01*
X0139720Y0032869D01*
X0139641Y0032992D01*
X0139566Y0033116D01*
X0139493Y0033243D01*
X0139424Y0033371D01*
X0139359Y0033501D01*
X0139297Y0033633D01*
X0139239Y0033766D01*
X0139184Y0033901D01*
X0139132Y0034038D01*
X0139085Y0034175D01*
X0139041Y0034314D01*
X0139001Y0034454D01*
X0138964Y0034595D01*
X0138932Y0034737D01*
X0138903Y0034880D01*
X0138878Y0035024D01*
X0138856Y0035168D01*
X0138839Y0035312D01*
X0138825Y0035457D01*
X0138816Y0035603D01*
X0138810Y0035748D01*
X0138808Y0035894D01*
X0138808Y0044517D01*
X0133493Y0044517D01*
X0133296Y0044713D01*
X0128178Y0063611D02*
X0126997Y0064792D01*
X0126997Y0069024D01*
X0110855Y0073060D02*
X0105737Y0078178D01*
X0104359Y0078178D01*
X0102784Y0076603D01*
X0105737Y0078178D02*
X0105737Y0082706D01*
X0099241Y0076603D02*
X0099241Y0074733D01*
X0096878Y0097864D02*
X0097417Y0098160D01*
X0097962Y0098443D01*
X0098513Y0098714D01*
X0099071Y0098972D01*
X0099634Y0099217D01*
X0100203Y0099448D01*
X0100778Y0099666D01*
X0101357Y0099871D01*
X0101941Y0100062D01*
X0102529Y0100240D01*
X0103121Y0100404D01*
X0103717Y0100554D01*
X0104316Y0100690D01*
X0104918Y0100812D01*
X0105523Y0100920D01*
X0106130Y0101013D01*
X0096879Y0097863D02*
X0096791Y0097811D01*
X0096705Y0097756D01*
X0096621Y0097697D01*
X0096539Y0097636D01*
X0096460Y0097571D01*
X0096383Y0097503D01*
X0096309Y0097433D01*
X0096237Y0097360D01*
X0096169Y0097284D01*
X0096103Y0097205D01*
X0096040Y0097124D01*
X0095980Y0097041D01*
X0095924Y0096956D01*
X0095871Y0096869D01*
X0095821Y0096779D01*
X0095774Y0096688D01*
X0095731Y0096595D01*
X0095692Y0096501D01*
X0095656Y0096405D01*
X0095624Y0096308D01*
X0095595Y0096209D01*
X0095570Y0096110D01*
X0095549Y0096010D01*
X0095532Y0095909D01*
X0095518Y0095807D01*
X0095509Y0095706D01*
X0095503Y0095603D01*
X0095501Y0095501D01*
X0105737Y0090186D02*
X0110265Y0090186D01*
X0110461Y0090383D01*
X0061446Y0056918D02*
X0057509Y0052981D01*
X0049044Y0052981D01*
X0106131Y0101012D02*
X0110103Y0101535D01*
X0114086Y0101972D01*
X0118078Y0102322D01*
X0122076Y0102587D01*
X0253178Y0094910D02*
X0262430Y0091957D01*
X0253178Y0094910D02*
X0249301Y0096096D01*
X0245398Y0097189D01*
X0241469Y0098188D01*
X0237518Y0099093D01*
X0233546Y0099903D01*
X0229556Y0100618D01*
X0229556Y0100620D02*
X0225052Y0101505D01*
X0220530Y0102293D01*
X0215993Y0102983D01*
X0211441Y0103574D01*
X0206877Y0104067D01*
X0202304Y0104461D01*
X0197724Y0104755D01*
X0193138Y0104950D01*
X0090383Y0101406D02*
X0085158Y0100568D01*
X0079950Y0099634D01*
X0090382Y0101407D02*
X0099107Y0102615D01*
X0107858Y0103609D01*
X0116632Y0104387D01*
X0125422Y0104950D01*
D30*
X0107706Y0095894D03*
X0102587Y0095894D03*
X0092351Y0098257D03*
X0061446Y0087036D03*
X0100619Y0062036D03*
X0092351Y0059871D03*
X0061446Y0056918D03*
X0090383Y0043926D03*
X0128178Y0063611D03*
X0161643Y0048650D03*
X0165973Y0054162D03*
X0182902Y0052194D03*
X0190580Y0046485D03*
X0205737Y0038020D03*
X0195501Y0034083D03*
X0209674Y0043139D03*
X0214398Y0045894D03*
X0230934Y0052194D03*
X0239595Y0049044D03*
X0226997Y0059477D03*
X0251013Y0061839D03*
X0250816Y0066957D03*
X0258296Y0066761D03*
X0212430Y0084083D03*
X0214989Y0090186D03*
X0207706Y0089989D03*
X0197469Y0095501D03*
X0178965Y0088217D03*
X0175225Y0091564D03*
X0167548Y0082312D03*
X0167548Y0078769D03*
X0158493Y0079950D03*
X0140383Y0080934D03*
X0178375Y0062430D03*
X0200619Y0064792D03*
X0155343Y0041957D03*
X0132509Y0037233D03*
X0132509Y0031721D03*
X0262430Y0091957D03*
D31*
X0123060Y0063020D02*
X0121091Y0064989D01*
X0121091Y0068040D01*
D32*
X0094713Y0082706D02*
X0093335Y0081328D01*
X0090383Y0081328D01*
X0087627Y0081328D01*
X0066761Y0059280D02*
X0065186Y0060855D01*
X0049044Y0060855D01*
X0066761Y0059280D02*
X0066761Y0051800D01*
X0250776Y0090265D02*
X0256052Y0090265D01*
X0258887Y0087430D01*
X0258887Y0078769D01*
X0261052Y0076603D01*
X0269517Y0076603D01*
M02*
