%
M48
M72
T01C0.01575
T02C0.01969
T03C0.02362
T04C0.03150
T05C0.03200
T06C0.03543
T07C0.03937
T08C0.07087
%
T01
X63611Y44320
X90383Y43926
X100619Y62036
X128178Y63611
X161643Y48650
X165973Y54162
X182902Y52194
X189202Y46288
X205737Y38020
X195501Y34083
X209674Y43139
X214398Y45894
X230934Y52194
X239595Y49044
X225422Y59674
X200619Y66367
X218729Y75225
X212430Y84083
X214989Y90186
X207706Y89989
X197469Y95501
X174438Y83493
X162824Y78965
X161249Y83296
X152587Y79359
X134871Y80934
X107706Y95894
X102587Y95894
X89989Y95501
X85265Y100225
X171485Y90776
X178375Y62430
X155343Y41957
X132509Y37233
X132509Y31721
X272272Y87233
T02
X126997Y69024
X104950Y69024
T03
X104950Y69024
X105343Y69024
X105737Y69024
X106131Y69024
X106524Y69024
X104556Y69024
X104162Y69024
X103769Y69024
X103375Y69024
X114005Y60560
X114398Y60560
X114792Y60560
X115186Y60560
X115580Y60560
X115973Y60560
X115973Y60560
X116367Y60560
X116761Y60560
X117154Y60560
X117548Y60560
X117942Y60560
X125422Y69024
X125816Y69024
X126209Y69024
X126603Y69024
X126997Y69024
X127391Y69024
X127784Y69024
X128178Y69024
X128572Y69024
T04
X62824Y84477
X54950Y84477
X47076Y84477
X255737Y45107
X263611Y45107
X271485Y45107
T05
X152469Y64792
X142469Y64792
T06
X80540Y81328
X80540Y89202
T07
X144280Y30422
X154280Y30422
X164280Y30422
X174280Y30422
X225265Y79477
X235265Y79477
X245265Y79477
X245265Y89477
X235265Y89477
X225265Y89477
T08
X238020Y64792
X80540Y64792
M30
