G75*
%MOIN*%
%OFA0B0*%
%FSLAX24Y24*%
%IPPOS*%
%LPD*%
%AMOC8*
5,1,8,0,0,1.08239X$1,22.5*
%
%ADD10R,0.6299X0.0787*%
%ADD11C,0.0050*%
%ADD12C,0.0020*%
%ADD13C,0.0059*%
%ADD14C,0.0030*%
%ADD15C,0.0079*%
D10*
X003350Y000533D03*
X003350Y014706D03*
D11*
X001657Y001478D02*
X000712Y001478D01*
X000712Y001950D01*
X001657Y001950D01*
X001657Y001478D01*
X002090Y001478D02*
X002090Y001950D01*
X003035Y001950D01*
X003035Y001478D01*
X002090Y001478D01*
X001440Y004332D02*
X001440Y004805D01*
X000495Y004805D01*
X000495Y004332D01*
X001440Y004332D01*
X001303Y005454D02*
X001303Y005848D01*
X000515Y005848D01*
X000515Y005454D01*
X001303Y005454D01*
X001303Y006478D02*
X001303Y006872D01*
X000515Y006872D01*
X000515Y006478D01*
X001303Y006478D01*
X001263Y007108D02*
X001263Y007580D01*
X002208Y007580D01*
X002208Y007108D01*
X001263Y007108D01*
X001066Y007777D02*
X001066Y008250D01*
X002090Y008250D01*
X002090Y007777D01*
X001066Y007777D01*
X001066Y008958D02*
X002090Y008958D01*
X002090Y009431D01*
X001066Y009431D01*
X001066Y008958D01*
X001834Y009667D02*
X002306Y009667D01*
X002306Y010691D01*
X001834Y010691D01*
X001834Y009667D01*
X002641Y010336D02*
X002641Y011124D01*
X004058Y011124D01*
X004058Y010336D01*
X002641Y010336D01*
X002387Y011498D02*
X002389Y011508D01*
X002394Y011517D01*
X002403Y011523D01*
X002412Y011526D01*
X002423Y011525D01*
X002432Y011520D01*
X002439Y011513D01*
X002443Y011503D01*
X002443Y011493D01*
X002439Y011483D01*
X002432Y011476D01*
X002423Y011471D01*
X002412Y011470D01*
X002403Y011473D01*
X002394Y011479D01*
X002389Y011488D01*
X002387Y011498D01*
X002877Y011517D02*
X002877Y011990D01*
X003822Y011990D01*
X003822Y011517D01*
X002877Y011517D01*
X004393Y010691D02*
X004393Y009667D01*
X004865Y009667D01*
X004865Y010691D01*
X004393Y010691D01*
X004610Y009431D02*
X004610Y008958D01*
X005633Y008958D01*
X005633Y009431D01*
X004610Y009431D01*
X004610Y008250D02*
X004610Y007777D01*
X005633Y007777D01*
X005633Y008250D01*
X004610Y008250D01*
X005653Y007482D02*
X005653Y006537D01*
X006125Y006537D01*
X006125Y007482D01*
X005653Y007482D01*
X005673Y006360D02*
X005673Y005336D01*
X006145Y005336D01*
X006145Y006360D01*
X005673Y006360D01*
X006106Y004805D02*
X005161Y004805D01*
X005161Y004332D01*
X006106Y004332D01*
X006106Y004805D01*
X005850Y004017D02*
X004865Y004017D01*
X004865Y002797D01*
X005850Y002797D01*
X005850Y004017D01*
X004855Y005257D02*
X004857Y005270D01*
X004862Y005283D01*
X004871Y005294D01*
X004882Y005301D01*
X004895Y005306D01*
X004908Y005307D01*
X004922Y005304D01*
X004934Y005298D01*
X004944Y005289D01*
X004951Y005277D01*
X004955Y005264D01*
X004955Y005250D01*
X004951Y005237D01*
X004944Y005225D01*
X004934Y005216D01*
X004922Y005210D01*
X004908Y005207D01*
X004895Y005208D01*
X004882Y005213D01*
X004871Y005220D01*
X004862Y005231D01*
X004857Y005244D01*
X004855Y005257D01*
X004511Y003427D02*
X004511Y002954D01*
X003566Y002954D01*
X003566Y003427D01*
X004511Y003427D01*
X004610Y001950D02*
X004610Y001478D01*
X003665Y001478D01*
X003665Y001950D01*
X004610Y001950D01*
X004984Y001950D02*
X004984Y001478D01*
X006007Y001478D01*
X006007Y001950D01*
X004984Y001950D01*
X005143Y011498D02*
X005145Y011508D01*
X005150Y011517D01*
X005159Y011523D01*
X005168Y011526D01*
X005179Y011525D01*
X005188Y011520D01*
X005195Y011513D01*
X005199Y011503D01*
X005199Y011493D01*
X005195Y011483D01*
X005188Y011476D01*
X005179Y011471D01*
X005168Y011470D01*
X005159Y011473D01*
X005150Y011479D01*
X005145Y011488D01*
X005143Y011498D01*
D12*
X005261Y012482D02*
X005261Y012758D01*
X005078Y012758D01*
X004990Y012758D02*
X004990Y012482D01*
X004806Y012482D01*
X004898Y012620D02*
X004990Y012620D01*
X004990Y012758D02*
X004806Y012758D01*
X004718Y012758D02*
X004534Y012758D01*
X004626Y012758D02*
X004626Y012482D01*
X004446Y012482D02*
X004262Y012666D01*
X004262Y012712D01*
X004308Y012758D01*
X004400Y012758D01*
X004446Y012712D01*
X004446Y012482D02*
X004262Y012482D01*
X005170Y012620D02*
X005261Y012620D01*
X005715Y012600D02*
X005899Y012600D01*
X005715Y012784D01*
X005715Y012830D01*
X005761Y012876D01*
X005853Y012876D01*
X005899Y012830D01*
X005987Y012830D02*
X005987Y012646D01*
X006033Y012600D01*
X006171Y012600D01*
X006171Y012876D01*
X006033Y012876D01*
X005987Y012830D01*
X003311Y005491D02*
X003116Y005296D01*
X003181Y005231D02*
X003051Y005361D01*
X003311Y005361D02*
X003311Y005491D01*
X003406Y005331D02*
X003471Y005331D01*
X003536Y005266D01*
X003536Y005201D01*
X003406Y005072D01*
X003341Y005072D01*
X003276Y005136D01*
X003276Y005201D01*
X003437Y004976D02*
X003502Y004911D01*
X003469Y004943D02*
X003664Y005138D01*
X003697Y005106D02*
X003632Y005171D01*
X002506Y012482D02*
X002506Y012758D01*
X002322Y012758D01*
X002234Y012758D02*
X002234Y012482D01*
X002050Y012482D01*
X002142Y012620D02*
X002234Y012620D01*
X002234Y012758D02*
X002050Y012758D01*
X001962Y012758D02*
X001778Y012758D01*
X001870Y012758D02*
X001870Y012482D01*
X001690Y012482D02*
X001506Y012482D01*
X001598Y012482D02*
X001598Y012758D01*
X001690Y012666D01*
X001053Y012600D02*
X000915Y012600D01*
X000869Y012646D01*
X000869Y012830D01*
X000915Y012876D01*
X001053Y012876D01*
X001053Y012600D01*
X000781Y012600D02*
X000597Y012600D01*
X000689Y012600D02*
X000689Y012876D01*
X000781Y012784D01*
X002414Y012620D02*
X002506Y012620D01*
D13*
X002513Y012226D02*
X002553Y012226D01*
X002553Y011281D01*
X002513Y011281D01*
X001430Y011281D02*
X001391Y011281D01*
X001391Y012226D01*
X001430Y012226D01*
X000988Y011517D02*
X000594Y011517D01*
X004147Y011281D02*
X004147Y012226D01*
X004186Y012226D01*
X004186Y011281D02*
X004147Y011281D01*
X005269Y011281D02*
X005308Y011281D01*
X005308Y012226D01*
X005269Y012226D01*
X005712Y011990D02*
X006106Y011990D01*
D14*
X005666Y010085D02*
X005484Y010085D01*
X005423Y010025D01*
X005423Y009903D01*
X005484Y009843D01*
X005666Y009843D01*
X005544Y009843D02*
X005423Y009721D01*
X005303Y009721D02*
X005061Y009964D01*
X005061Y010025D01*
X005121Y010085D01*
X005243Y010085D01*
X005303Y010025D01*
X005303Y009721D02*
X005061Y009721D01*
X004864Y008865D02*
X004985Y008804D01*
X005106Y008683D01*
X004924Y008683D01*
X004864Y008622D01*
X004864Y008561D01*
X004924Y008501D01*
X005046Y008501D01*
X005106Y008561D01*
X005106Y008683D01*
X005226Y008683D02*
X005287Y008622D01*
X005469Y008622D01*
X005469Y008501D02*
X005469Y008865D01*
X005287Y008865D01*
X005226Y008804D01*
X005226Y008683D01*
X005348Y008622D02*
X005226Y008501D01*
X005727Y008431D02*
X005727Y008310D01*
X005788Y008249D01*
X006030Y008492D01*
X005788Y008492D01*
X005727Y008431D01*
X005788Y008249D02*
X006030Y008249D01*
X006091Y008310D01*
X006091Y008431D01*
X006030Y008492D01*
X006091Y008008D02*
X005727Y008008D01*
X005727Y008129D02*
X005727Y007886D01*
X005727Y007767D02*
X005848Y007645D01*
X005848Y007706D02*
X005848Y007524D01*
X005848Y007706D02*
X005909Y007767D01*
X006030Y007767D01*
X006091Y007706D01*
X006091Y007524D01*
X005727Y007524D01*
X005559Y007267D02*
X005499Y007146D01*
X005377Y007024D01*
X005377Y007206D01*
X005317Y007267D01*
X005256Y007267D01*
X005195Y007206D01*
X005195Y007085D01*
X005256Y007024D01*
X005377Y007024D01*
X005256Y006905D02*
X005195Y006844D01*
X005195Y006723D01*
X005256Y006662D01*
X005499Y006662D01*
X005559Y006723D01*
X005559Y006844D01*
X005499Y006905D01*
X005579Y006287D02*
X005579Y006044D01*
X005397Y006044D01*
X005458Y006166D01*
X005458Y006226D01*
X005397Y006287D01*
X005276Y006287D01*
X005215Y006226D01*
X005215Y006105D01*
X005276Y006044D01*
X005215Y005924D02*
X005215Y005682D01*
X005215Y005562D02*
X005336Y005441D01*
X005336Y005501D02*
X005336Y005319D01*
X005215Y005319D02*
X005579Y005319D01*
X005579Y005501D01*
X005518Y005562D01*
X005397Y005562D01*
X005336Y005501D01*
X005458Y005682D02*
X005579Y005803D01*
X005215Y005803D01*
X005970Y007886D02*
X006091Y008008D01*
X005666Y009721D02*
X005666Y010085D01*
X003818Y008786D02*
X003697Y008786D01*
X003757Y008786D02*
X003757Y008422D01*
X003697Y008422D02*
X003818Y008422D01*
X003576Y008483D02*
X003516Y008422D01*
X003394Y008422D01*
X003334Y008483D01*
X003214Y008483D02*
X003153Y008422D01*
X003032Y008422D01*
X002971Y008483D01*
X002971Y008543D01*
X003032Y008604D01*
X003093Y008604D01*
X003032Y008604D02*
X002971Y008665D01*
X002971Y008725D01*
X003032Y008786D01*
X003153Y008786D01*
X003214Y008725D01*
X003334Y008725D02*
X003394Y008786D01*
X003516Y008786D01*
X003576Y008725D01*
X003576Y008483D01*
X001926Y008501D02*
X001926Y008865D01*
X001744Y008865D01*
X001683Y008804D01*
X001683Y008683D01*
X001744Y008622D01*
X001926Y008622D01*
X001804Y008622D02*
X001683Y008501D01*
X001563Y008561D02*
X001502Y008501D01*
X001381Y008501D01*
X001320Y008561D01*
X001320Y008683D01*
X001381Y008744D01*
X001442Y008744D01*
X001563Y008683D01*
X001563Y008865D01*
X001320Y008865D01*
X000981Y008196D02*
X000799Y008196D01*
X000738Y008135D01*
X000738Y008014D01*
X000799Y007953D01*
X000981Y007953D01*
X000981Y007832D02*
X000981Y008196D01*
X000859Y007953D02*
X000738Y007832D01*
X000618Y007892D02*
X000558Y007832D01*
X000436Y007832D01*
X000376Y007892D01*
X000376Y008135D01*
X000436Y008196D01*
X000558Y008196D01*
X000618Y008135D01*
X000618Y008074D01*
X000558Y008014D01*
X000376Y008014D01*
X000373Y007526D02*
X000312Y007466D01*
X000312Y007405D01*
X000555Y007162D01*
X000312Y007162D01*
X000373Y007526D02*
X000494Y007526D01*
X000555Y007466D01*
X000675Y007162D02*
X000918Y007162D01*
X001037Y007223D02*
X001098Y007162D01*
X001219Y007162D01*
X001280Y007223D01*
X001280Y007466D01*
X001219Y007526D01*
X001098Y007526D01*
X001037Y007466D01*
X000918Y007405D02*
X000796Y007526D01*
X000796Y007162D01*
X000713Y006424D02*
X000470Y006424D01*
X000470Y006363D01*
X000713Y006121D01*
X000713Y006060D01*
X000832Y006060D02*
X001075Y006060D01*
X001195Y006060D02*
X001316Y006181D01*
X001256Y006181D02*
X001438Y006181D01*
X001438Y006060D02*
X001438Y006424D01*
X001256Y006424D01*
X001195Y006363D01*
X001195Y006242D01*
X001256Y006181D01*
X001075Y006303D02*
X000954Y006424D01*
X000954Y006060D01*
X000954Y005400D02*
X000954Y005036D01*
X001075Y005036D02*
X000832Y005036D01*
X000713Y005097D02*
X000713Y005158D01*
X000652Y005218D01*
X000531Y005218D01*
X000470Y005158D01*
X000470Y005097D01*
X000531Y005036D01*
X000652Y005036D01*
X000713Y005097D01*
X000652Y005218D02*
X000713Y005279D01*
X000713Y005340D01*
X000652Y005400D01*
X000531Y005400D01*
X000470Y005340D01*
X000470Y005279D01*
X000531Y005218D01*
X000954Y005400D02*
X001075Y005279D01*
X001195Y005340D02*
X001195Y005218D01*
X001256Y005158D01*
X001438Y005158D01*
X001438Y005036D02*
X001438Y005400D01*
X001256Y005400D01*
X001195Y005340D01*
X001316Y005158D02*
X001195Y005036D01*
X001637Y004593D02*
X001576Y004533D01*
X001576Y004472D01*
X001637Y004411D01*
X001758Y004411D01*
X001819Y004472D01*
X001819Y004533D01*
X001758Y004593D01*
X001637Y004593D01*
X001637Y004411D02*
X001576Y004351D01*
X001576Y004290D01*
X001637Y004229D01*
X001758Y004229D01*
X001819Y004290D01*
X001819Y004351D01*
X001758Y004411D01*
X001939Y004290D02*
X002000Y004229D01*
X002121Y004229D01*
X002182Y004290D01*
X002182Y004533D01*
X002121Y004593D01*
X002000Y004593D01*
X001939Y004533D01*
X001829Y003864D02*
X001829Y003622D01*
X002072Y003864D01*
X002133Y003864D01*
X002193Y003804D01*
X002193Y003682D01*
X002133Y003622D01*
X002133Y003502D02*
X002193Y003441D01*
X002193Y003320D01*
X002133Y003259D01*
X001890Y003259D01*
X001829Y003320D01*
X001829Y003441D01*
X001890Y003502D01*
X001829Y003139D02*
X001829Y003017D01*
X001829Y003078D02*
X002193Y003078D01*
X002193Y003017D02*
X002193Y003139D01*
X002305Y001385D02*
X002547Y001385D01*
X002547Y001203D01*
X002426Y001263D01*
X002365Y001263D01*
X002305Y001203D01*
X002305Y001081D01*
X002365Y001021D01*
X002487Y001021D01*
X002547Y001081D01*
X002667Y001081D02*
X002728Y001021D01*
X002849Y001021D01*
X002910Y001081D01*
X002910Y001324D01*
X002849Y001385D01*
X002728Y001385D01*
X002667Y001324D01*
X001532Y001324D02*
X001532Y001081D01*
X001471Y001021D01*
X001350Y001021D01*
X001289Y001081D01*
X001289Y001324D02*
X001350Y001385D01*
X001471Y001385D01*
X001532Y001324D01*
X001169Y001324D02*
X001169Y001263D01*
X001109Y001203D01*
X000927Y001203D01*
X000927Y001324D02*
X000927Y001081D01*
X000987Y001021D01*
X001109Y001021D01*
X001169Y001081D01*
X001169Y001324D02*
X001109Y001385D01*
X000987Y001385D01*
X000927Y001324D01*
X003879Y001324D02*
X004122Y001081D01*
X004122Y001021D01*
X004242Y001081D02*
X004303Y001021D01*
X004424Y001021D01*
X004485Y001081D01*
X004485Y001324D01*
X004424Y001385D01*
X004303Y001385D01*
X004242Y001324D01*
X004122Y001385D02*
X003879Y001385D01*
X003879Y001324D01*
X005056Y001324D02*
X005056Y001081D01*
X005117Y001021D01*
X005238Y001021D01*
X005299Y001081D01*
X005238Y001203D02*
X005299Y001263D01*
X005299Y001324D01*
X005238Y001385D01*
X005117Y001385D01*
X005056Y001324D01*
X005056Y001203D02*
X005238Y001203D01*
X005419Y001021D02*
X005662Y001021D01*
X005782Y001021D02*
X005903Y001142D01*
X005842Y001142D02*
X006024Y001142D01*
X006024Y001021D02*
X006024Y001385D01*
X005842Y001385D01*
X005782Y001324D01*
X005782Y001203D01*
X005842Y001142D01*
X005662Y001263D02*
X005540Y001385D01*
X005540Y001021D01*
X001729Y009721D02*
X001729Y010085D01*
X001547Y010085D01*
X001486Y010025D01*
X001486Y009903D01*
X001547Y009843D01*
X001729Y009843D01*
X001607Y009843D02*
X001486Y009721D01*
X001366Y009721D02*
X001124Y009721D01*
X001245Y009721D02*
X001245Y010085D01*
X001366Y009964D01*
X003092Y012162D02*
X003335Y012162D01*
X003092Y012405D01*
X003092Y012466D01*
X003153Y012526D01*
X003274Y012526D01*
X003335Y012466D01*
X003455Y012466D02*
X003515Y012526D01*
X003637Y012526D01*
X003697Y012466D01*
X003697Y012223D01*
X003637Y012162D01*
X003515Y012162D01*
X003455Y012223D01*
D15*
X004314Y009352D02*
X004314Y007856D01*
X003963Y008171D02*
X003965Y008185D01*
X003971Y008199D01*
X003979Y008211D01*
X003991Y008219D01*
X004005Y008225D01*
X004019Y008227D01*
X004033Y008225D01*
X004047Y008219D01*
X004059Y008211D01*
X004067Y008199D01*
X004073Y008185D01*
X004075Y008171D01*
X004073Y008157D01*
X004067Y008143D01*
X004059Y008131D01*
X004047Y008123D01*
X004033Y008117D01*
X004019Y008115D01*
X004005Y008117D01*
X003991Y008123D01*
X003979Y008131D01*
X003971Y008143D01*
X003965Y008157D01*
X003963Y008171D01*
X002385Y007856D02*
X002385Y009352D01*
X001696Y003791D02*
X000515Y003791D01*
X000515Y003181D01*
X001696Y003181D01*
X001696Y003791D01*
X001443Y003368D02*
X001445Y003382D01*
X001451Y003396D01*
X001459Y003408D01*
X001471Y003416D01*
X001485Y003422D01*
X001499Y003424D01*
X001513Y003422D01*
X001527Y003416D01*
X001539Y003408D01*
X001547Y003396D01*
X001553Y003382D01*
X001555Y003368D01*
X001553Y003354D01*
X001547Y003340D01*
X001539Y003328D01*
X001527Y003320D01*
X001513Y003314D01*
X001499Y003312D01*
X001485Y003314D01*
X001471Y003320D01*
X001459Y003328D01*
X001451Y003340D01*
X001445Y003354D01*
X001443Y003368D01*
M02*
