G75*
%MOIN*%
%OFA0B0*%
%FSLAX24Y24*%
%IPPOS*%
%LPD*%
%AMOC8*
5,1,8,0,0,1.08239X$1,22.5*
%
%ADD10R,0.0237X0.0316*%
%ADD11R,0.0316X0.0710*%
%ADD12R,0.0250X0.0400*%
%ADD13R,0.1556X0.1556*%
%ADD14R,0.0395X0.0474*%
%ADD15R,0.0277X0.0395*%
%ADD16R,0.0434X0.0513*%
%ADD17R,0.0474X0.0395*%
%ADD18R,0.0552X0.0552*%
%ADD19R,0.0513X0.0671*%
%ADD20C,0.0476*%
%ADD21C,0.0556*%
%ADD22OC8,0.0515*%
%ADD23OC8,0.0595*%
%ADD24R,0.0515X0.0515*%
%ADD25R,0.0595X0.0595*%
%ADD26R,0.0316X0.0395*%
%ADD27OC8,0.0278*%
%ADD28R,0.0591X0.0591*%
%ADD29R,0.0671X0.0671*%
%ADD30OC8,0.0475*%
%ADD31OC8,0.0555*%
D10*
X001588Y011202D03*
X001844Y011202D03*
X002100Y011202D03*
X002356Y011202D03*
X002356Y012305D03*
X002100Y012305D03*
X001844Y012305D03*
X001588Y012305D03*
X004344Y012305D03*
X004600Y012305D03*
X004856Y012305D03*
X005112Y012305D03*
X005112Y011202D03*
X004856Y011202D03*
X004600Y011202D03*
X004344Y011202D03*
D11*
X004100Y009628D03*
X003600Y009628D03*
X003100Y009628D03*
X002600Y009628D03*
X002600Y007580D03*
X003100Y007580D03*
X003600Y007580D03*
X004100Y007580D03*
D12*
G36*
X003558Y006379D02*
X003382Y006555D01*
X003664Y006837D01*
X003840Y006661D01*
X003558Y006379D01*
G37*
G36*
X003742Y006195D02*
X003566Y006371D01*
X003848Y006653D01*
X004024Y006477D01*
X003742Y006195D01*
G37*
G36*
X003919Y006018D02*
X003743Y006194D01*
X004025Y006476D01*
X004201Y006300D01*
X003919Y006018D01*
G37*
G36*
X004103Y005835D02*
X003927Y006011D01*
X004209Y006293D01*
X004385Y006117D01*
X004103Y005835D01*
G37*
G36*
X004287Y005651D02*
X004111Y005827D01*
X004393Y006109D01*
X004569Y005933D01*
X004287Y005651D01*
G37*
G36*
X004463Y005474D02*
X004287Y005650D01*
X004569Y005932D01*
X004745Y005756D01*
X004463Y005474D01*
G37*
G36*
X004647Y005290D02*
X004471Y005466D01*
X004753Y005748D01*
X004929Y005572D01*
X004647Y005290D01*
G37*
G36*
X004471Y005049D02*
X004647Y005225D01*
X004929Y004943D01*
X004753Y004767D01*
X004471Y005049D01*
G37*
G36*
X004287Y004865D02*
X004463Y005041D01*
X004745Y004759D01*
X004569Y004583D01*
X004287Y004865D01*
G37*
G36*
X004111Y004688D02*
X004287Y004864D01*
X004569Y004582D01*
X004393Y004406D01*
X004111Y004688D01*
G37*
G36*
X003927Y004504D02*
X004103Y004680D01*
X004385Y004398D01*
X004209Y004222D01*
X003927Y004504D01*
G37*
G36*
X003743Y004321D02*
X003919Y004497D01*
X004201Y004215D01*
X004025Y004039D01*
X003743Y004321D01*
G37*
G36*
X003566Y004144D02*
X003742Y004320D01*
X004024Y004038D01*
X003848Y003862D01*
X003566Y004144D01*
G37*
G36*
X003382Y003960D02*
X003558Y004136D01*
X003840Y003854D01*
X003664Y003678D01*
X003382Y003960D01*
G37*
G36*
X003035Y003678D02*
X002859Y003854D01*
X003141Y004136D01*
X003317Y003960D01*
X003035Y003678D01*
G37*
G36*
X002851Y003862D02*
X002675Y004038D01*
X002957Y004320D01*
X003133Y004144D01*
X002851Y003862D01*
G37*
G36*
X002674Y004039D02*
X002498Y004215D01*
X002780Y004497D01*
X002956Y004321D01*
X002674Y004039D01*
G37*
G36*
X002491Y004222D02*
X002315Y004398D01*
X002597Y004680D01*
X002773Y004504D01*
X002491Y004222D01*
G37*
G36*
X002307Y004406D02*
X002131Y004582D01*
X002413Y004864D01*
X002589Y004688D01*
X002307Y004406D01*
G37*
G36*
X002130Y004583D02*
X001954Y004759D01*
X002236Y005041D01*
X002412Y004865D01*
X002130Y004583D01*
G37*
G36*
X001946Y004767D02*
X001770Y004943D01*
X002052Y005225D01*
X002228Y005049D01*
X001946Y004767D01*
G37*
G36*
X001770Y005572D02*
X001946Y005748D01*
X002228Y005466D01*
X002052Y005290D01*
X001770Y005572D01*
G37*
G36*
X001954Y005756D02*
X002130Y005932D01*
X002412Y005650D01*
X002236Y005474D01*
X001954Y005756D01*
G37*
G36*
X002131Y005933D02*
X002307Y006109D01*
X002589Y005827D01*
X002413Y005651D01*
X002131Y005933D01*
G37*
G36*
X002315Y006117D02*
X002491Y006293D01*
X002773Y006011D01*
X002597Y005835D01*
X002315Y006117D01*
G37*
G36*
X002498Y006300D02*
X002674Y006476D01*
X002956Y006194D01*
X002780Y006018D01*
X002498Y006300D01*
G37*
G36*
X002675Y006477D02*
X002851Y006653D01*
X003133Y006371D01*
X002957Y006195D01*
X002675Y006477D01*
G37*
G36*
X002859Y006661D02*
X003035Y006837D01*
X003317Y006555D01*
X003141Y006379D01*
X002859Y006661D01*
G37*
D13*
G36*
X003350Y006357D02*
X004450Y005257D01*
X003350Y004157D01*
X002250Y005257D01*
X003350Y006357D01*
G37*
D14*
X000909Y001714D03*
X001460Y001714D03*
X002287Y001714D03*
X002838Y001714D03*
X003763Y003191D03*
X004314Y003191D03*
X004413Y001714D03*
X003862Y001714D03*
X005200Y001714D03*
X005791Y001714D03*
X005909Y004569D03*
X005358Y004569D03*
X005417Y008013D03*
X005417Y009194D03*
X004826Y009194D03*
X004826Y008013D03*
X003625Y011754D03*
X003074Y011754D03*
X001873Y009194D03*
X001873Y008013D03*
X002011Y007344D03*
X001460Y007344D03*
X001283Y008013D03*
X001283Y009194D03*
X001243Y004569D03*
X000692Y004569D03*
D15*
X000732Y004037D03*
X000732Y002935D03*
X001106Y002935D03*
X001480Y002935D03*
X001480Y004037D03*
D16*
X005082Y003761D03*
X005082Y003053D03*
X005633Y003053D03*
X005633Y003761D03*
D17*
X005909Y005553D03*
X005909Y006143D03*
X005889Y006734D03*
X005889Y007285D03*
X004629Y009883D03*
X004629Y010474D03*
X002070Y010474D03*
X002070Y009883D03*
D18*
X000791Y011202D03*
X000791Y012305D03*
X005909Y012305D03*
X005909Y011202D03*
D19*
X003763Y010730D03*
X002936Y010730D03*
D20*
X003054Y013525D03*
X003645Y013525D03*
D21*
X003645Y013525D03*
X003054Y013525D03*
D22*
X002956Y002305D03*
X002169Y002305D03*
X001381Y002305D03*
X003743Y002305D03*
X004531Y002305D03*
D23*
X004531Y002305D03*
X003743Y002305D03*
X002956Y002305D03*
X002169Y002305D03*
X001381Y002305D03*
D24*
X005318Y002305D03*
D25*
X005318Y002305D03*
D26*
X001145Y005651D03*
X001145Y006675D03*
X000673Y006675D03*
X000673Y005651D03*
D27*
X001775Y005257D03*
X001972Y006340D03*
X002346Y006970D03*
X002365Y006537D03*
X001381Y008486D03*
X003054Y011320D03*
X003645Y011320D03*
X005318Y008486D03*
X005121Y007029D03*
X004629Y006242D03*
X004531Y007226D03*
X003842Y006931D03*
X005318Y005159D03*
X003350Y003584D03*
X002759Y003092D03*
X001775Y003486D03*
D28*
X001578Y013525D03*
X002365Y013525D03*
X004334Y013525D03*
X005121Y013525D03*
D29*
X005121Y013525D03*
X004334Y013525D03*
X002365Y013525D03*
X001578Y013525D03*
D30*
X000653Y010572D03*
X000653Y010100D03*
X006047Y010100D03*
X006047Y010572D03*
D31*
X006047Y010572D03*
X006047Y010100D03*
X000653Y010100D03*
X000653Y010572D03*
M02*
