G75*
%MOIN*%
%OFA0B0*%
%FSLAX24Y24*%
%IPPOS*%
%LPD*%
%AMOC8*
5,1,8,0,0,1.08239X$1,22.5*
%
%ADD10R,0.0237X0.0316*%
%ADD11R,0.0395X0.0474*%
%ADD12R,0.0513X0.0671*%
%ADD13R,0.0474X0.0395*%
%ADD14R,0.0552X0.0552*%
%ADD15C,0.0476*%
%ADD16C,0.0556*%
%ADD17OC8,0.0515*%
%ADD18OC8,0.0595*%
%ADD19R,0.0515X0.0515*%
%ADD20R,0.0595X0.0595*%
%ADD21R,0.0749X0.1064*%
%ADD22R,0.0395X0.1064*%
%ADD23R,0.0316X0.0710*%
%ADD24OC8,0.0278*%
%ADD25R,0.0591X0.0591*%
%ADD26R,0.0671X0.0671*%
%ADD27OC8,0.0475*%
%ADD28OC8,0.0555*%
D10*
X001588Y011202D03*
X001844Y011202D03*
X002100Y011202D03*
X002356Y011202D03*
X002356Y012305D03*
X002100Y012305D03*
X001844Y012305D03*
X001588Y012305D03*
X004344Y012305D03*
X004600Y012305D03*
X004856Y012305D03*
X005112Y012305D03*
X005112Y011202D03*
X004856Y011202D03*
X004600Y011202D03*
X004344Y011202D03*
D11*
X003625Y011754D03*
X003074Y011754D03*
X001873Y009194D03*
X001283Y009194D03*
X002267Y003683D03*
X002858Y003683D03*
X004826Y009194D03*
X005417Y009194D03*
D12*
X003763Y010730D03*
X002936Y010730D03*
D13*
X002070Y010474D03*
X002070Y009883D03*
X001972Y008309D03*
X001972Y007718D03*
X000889Y007718D03*
X000889Y008309D03*
X001381Y004372D03*
X001381Y003781D03*
X004629Y009883D03*
X004629Y010474D03*
X004728Y008309D03*
X004728Y007718D03*
X005810Y007718D03*
X005810Y008309D03*
X005318Y004372D03*
X005318Y003781D03*
D14*
X005909Y011202D03*
X005909Y012305D03*
X000791Y012305D03*
X000791Y011202D03*
D15*
X003054Y013525D03*
X003645Y013525D03*
D16*
X003645Y013525D03*
X003054Y013525D03*
D17*
X002956Y002305D03*
X002169Y002305D03*
X001381Y002305D03*
X003743Y002305D03*
X004531Y002305D03*
D18*
X001381Y002305D03*
X002169Y002305D03*
X002956Y002305D03*
X003743Y002305D03*
X004531Y002305D03*
D19*
X005318Y002305D03*
D20*
X005318Y002305D03*
D21*
X005318Y006124D03*
X001381Y006124D03*
D22*
X002169Y004844D03*
X002759Y004844D03*
X003350Y004844D03*
X003940Y004844D03*
X004531Y004844D03*
D23*
X004100Y007580D03*
X003600Y007580D03*
X003100Y007580D03*
X002600Y007580D03*
X002600Y009628D03*
X003100Y009628D03*
X003600Y009628D03*
X004100Y009628D03*
D24*
X003645Y011320D03*
X003054Y011320D03*
X001381Y008486D03*
X002346Y006970D03*
X002365Y006537D03*
X001972Y006340D03*
X001775Y005257D03*
X001775Y003486D03*
X002759Y003092D03*
X003350Y003584D03*
X004629Y006242D03*
X004531Y007226D03*
X005121Y007029D03*
X005318Y008486D03*
X003842Y006931D03*
X005318Y005159D03*
D25*
X005121Y013525D03*
X004334Y013525D03*
X002365Y013525D03*
X001578Y013525D03*
D26*
X001578Y013525D03*
X002365Y013525D03*
X004334Y013525D03*
X005121Y013525D03*
D27*
X006047Y010572D03*
X006047Y010100D03*
X000653Y010100D03*
X000653Y010572D03*
D28*
X000653Y010572D03*
X000653Y010100D03*
X006047Y010100D03*
X006047Y010572D03*
M02*
