G75*
%MOIN*%
%OFA0B0*%
%FSLAX25Y25*%
%IPPOS*%
%LPD*%
%AMOC8*
5,1,8,0,0,1.08239X$1,22.5*
%
%ADD10R,0.03150X0.04724*%
%ADD11OC8,0.06600*%
%ADD12R,0.08268X0.07874*%
%ADD13R,0.06299X0.07087*%
%ADD14R,0.01575X0.05315*%
%ADD15R,0.10236X0.05512*%
%ADD16R,0.04803X0.03602*%
%ADD17OC8,0.05937*%
%ADD18C,0.08858*%
%ADD19R,0.03937X0.03150*%
%ADD20R,0.03150X0.03937*%
%ADD21OC8,0.05150*%
%ADD22R,0.05906X0.01969*%
%ADD23R,0.01969X0.05906*%
%ADD24R,0.05906X0.05906*%
%ADD25R,0.21654X0.07874*%
%ADD26R,0.05150X0.05150*%
%ADD27C,0.05150*%
%ADD28C,0.01600*%
%ADD29C,0.01969*%
%ADD30R,0.03569X0.03569*%
%ADD31C,0.01575*%
%ADD32C,0.01181*%
D10*
X0142784Y0120461D03*
X0150265Y0120461D03*
X0146524Y0129123D03*
D11*
X0021485Y0104162D03*
X0021485Y0096288D03*
D12*
X0111643Y0026800D03*
X0136052Y0026800D03*
D13*
X0139989Y0017745D03*
X0107706Y0017745D03*
D14*
X0118729Y0028867D03*
X0121288Y0028867D03*
X0123847Y0028867D03*
X0126406Y0028867D03*
X0128965Y0028867D03*
D15*
X0157312Y0057509D03*
X0157312Y0079950D03*
D16*
X0157312Y0087863D03*
X0157312Y0100776D03*
D17*
X0085503Y0024459D03*
X0067703Y0024459D03*
D18*
X0062803Y0034259D03*
X0090403Y0034259D03*
D19*
X0072666Y0054162D03*
X0072666Y0059674D03*
X0127784Y0059674D03*
X0127784Y0054162D03*
X0137627Y0101406D03*
X0137627Y0106918D03*
X0091564Y0147076D03*
X0091564Y0152587D03*
D20*
X0111249Y0155343D03*
X0116761Y0155343D03*
X0116761Y0147469D03*
X0111249Y0147469D03*
X0053769Y0121879D03*
X0048257Y0121879D03*
X0180146Y0076603D03*
X0185658Y0076603D03*
D21*
X0171091Y0124753D03*
X0171091Y0134753D03*
D22*
X0123060Y0123847D03*
X0123060Y0120698D03*
X0123060Y0117548D03*
X0123060Y0114398D03*
X0123060Y0111249D03*
X0123060Y0108099D03*
X0123060Y0104950D03*
X0123060Y0101800D03*
X0123060Y0098650D03*
X0123060Y0095501D03*
X0123060Y0092351D03*
X0077391Y0092351D03*
X0077391Y0095501D03*
X0077391Y0098650D03*
X0077391Y0101800D03*
X0077391Y0104950D03*
X0077391Y0108099D03*
X0077391Y0111249D03*
X0077391Y0114398D03*
X0077391Y0117548D03*
X0077391Y0120698D03*
X0077391Y0123847D03*
D23*
X0084477Y0130934D03*
X0087627Y0130934D03*
X0090776Y0130934D03*
X0093926Y0130934D03*
X0097076Y0130934D03*
X0100225Y0130934D03*
X0103375Y0130934D03*
X0106524Y0130934D03*
X0109674Y0130934D03*
X0112824Y0130934D03*
X0115973Y0130934D03*
X0115973Y0085265D03*
X0112824Y0085265D03*
X0109674Y0085265D03*
X0106524Y0085265D03*
X0103375Y0085265D03*
X0100225Y0085265D03*
X0097076Y0085265D03*
X0093926Y0085265D03*
X0090776Y0085265D03*
X0087627Y0085265D03*
X0084477Y0085265D03*
D24*
X0057981Y0088257D03*
X0057981Y0098257D03*
X0057981Y0108257D03*
X0047981Y0108257D03*
X0047981Y0098257D03*
X0047981Y0088257D03*
D25*
X0081524Y0068729D03*
X0118926Y0068729D03*
D26*
X0186839Y0104162D03*
X0092351Y0182902D03*
D27*
X0100225Y0182902D03*
X0108099Y0182902D03*
X0186839Y0096288D03*
D28*
X0034059Y0035369D02*
X0034046Y0035369D01*
X0033429Y0035998D02*
X0035998Y0033429D01*
X0039354Y0032039D01*
X0042986Y0032039D01*
X0046342Y0033429D01*
X0048911Y0035998D01*
X0050301Y0039354D01*
X0050301Y0042986D01*
X0048911Y0046342D01*
X0046342Y0048911D01*
X0042986Y0050301D01*
X0039354Y0050301D01*
X0035998Y0048911D01*
X0033429Y0046342D01*
X0032039Y0042986D01*
X0032039Y0039354D01*
X0033429Y0035998D01*
X0033028Y0036967D02*
X0032448Y0036967D01*
X0032366Y0038566D02*
X0030849Y0038566D01*
X0030745Y0038671D02*
X0023832Y0047494D01*
X0018033Y0057087D01*
X0013432Y0067309D01*
X0010097Y0078011D01*
X0008077Y0089036D01*
X0007400Y0100225D01*
X0008077Y0111414D01*
X0010097Y0122440D01*
X0013432Y0133141D01*
X0018033Y0143363D01*
X0023832Y0152956D01*
X0030745Y0161780D01*
X0038671Y0169706D01*
X0047494Y0176619D01*
X0057087Y0182418D01*
X0067309Y0187018D01*
X0078011Y0190353D01*
X0089036Y0192374D01*
X0100225Y0193050D01*
X0111414Y0192374D01*
X0122440Y0190353D01*
X0133141Y0187018D01*
X0143363Y0182418D01*
X0152956Y0176619D01*
X0161780Y0169706D01*
X0169706Y0161780D01*
X0176619Y0152956D01*
X0182418Y0143363D01*
X0187018Y0133141D01*
X0190353Y0122440D01*
X0192374Y0111414D01*
X0193050Y0100225D01*
X0192374Y0089036D01*
X0190353Y0078011D01*
X0187018Y0067309D01*
X0182418Y0057087D01*
X0176619Y0047494D01*
X0169706Y0038671D01*
X0161780Y0030745D01*
X0152956Y0023832D01*
X0144939Y0018985D01*
X0144939Y0021525D01*
X0144816Y0021983D01*
X0144579Y0022393D01*
X0144244Y0022729D01*
X0143833Y0022966D01*
X0143376Y0023088D01*
X0141986Y0023088D01*
X0141986Y0026000D01*
X0136852Y0026000D01*
X0136852Y0027600D01*
X0141986Y0027600D01*
X0141986Y0030974D01*
X0141863Y0031432D01*
X0141626Y0031842D01*
X0141291Y0032177D01*
X0140881Y0032414D01*
X0140423Y0032537D01*
X0136852Y0032537D01*
X0136852Y0027600D01*
X0135252Y0027600D01*
X0135252Y0032537D01*
X0131681Y0032537D01*
X0131571Y0032508D01*
X0131537Y0032542D01*
X0131537Y0033018D01*
X0132380Y0033861D01*
X0135114Y0033861D01*
X0136274Y0035022D01*
X0136274Y0040232D01*
X0135114Y0041392D01*
X0129904Y0041392D01*
X0129187Y0040676D01*
X0129187Y0043101D01*
X0128764Y0044123D01*
X0123676Y0049212D01*
X0123676Y0051649D01*
X0122515Y0052809D01*
X0117305Y0052809D01*
X0116145Y0051649D01*
X0116145Y0046439D01*
X0117305Y0045279D01*
X0119743Y0045279D01*
X0120086Y0044935D01*
X0117305Y0044935D01*
X0116145Y0043775D01*
X0116145Y0038565D01*
X0117305Y0037405D01*
X0119743Y0037405D01*
X0121066Y0036081D01*
X0121066Y0033505D01*
X0119680Y0033505D01*
X0119499Y0033324D01*
X0118729Y0033324D01*
X0117705Y0033324D01*
X0117247Y0033202D01*
X0116837Y0032965D01*
X0116501Y0032630D01*
X0116390Y0032436D01*
X0116013Y0032537D01*
X0112442Y0032537D01*
X0112442Y0027600D01*
X0110843Y0027600D01*
X0110843Y0032537D01*
X0107272Y0032537D01*
X0106814Y0032414D01*
X0106403Y0032177D01*
X0106068Y0031842D01*
X0105831Y0031432D01*
X0105709Y0030974D01*
X0105709Y0027600D01*
X0110842Y0027600D01*
X0110842Y0026000D01*
X0105709Y0026000D01*
X0105709Y0023088D01*
X0104319Y0023088D01*
X0103861Y0022966D01*
X0103451Y0022729D01*
X0103116Y0022393D01*
X0102879Y0021983D01*
X0102756Y0021525D01*
X0102756Y0018520D01*
X0106931Y0018520D01*
X0106931Y0016970D01*
X0108480Y0016970D01*
X0108480Y0012402D01*
X0111092Y0012402D01*
X0111550Y0012524D01*
X0111960Y0012761D01*
X0112295Y0013096D01*
X0112532Y0013507D01*
X0112655Y0013965D01*
X0112655Y0016970D01*
X0108480Y0016970D01*
X0108480Y0018520D01*
X0112655Y0018520D01*
X0112655Y0021063D01*
X0116013Y0021063D01*
X0116471Y0021186D01*
X0116882Y0021423D01*
X0117217Y0021758D01*
X0117454Y0022168D01*
X0117576Y0022626D01*
X0117576Y0024444D01*
X0117705Y0024409D01*
X0118729Y0024409D01*
X0118729Y0025179D01*
X0118729Y0024409D01*
X0119499Y0024409D01*
X0119680Y0024228D01*
X0130118Y0024228D01*
X0130118Y0022626D01*
X0130241Y0022168D01*
X0130478Y0021758D01*
X0130813Y0021423D01*
X0131223Y0021186D01*
X0131681Y0021063D01*
X0135039Y0021063D01*
X0135039Y0018520D01*
X0139214Y0018520D01*
X0139214Y0016970D01*
X0135039Y0016970D01*
X0135039Y0014286D01*
X0133141Y0013432D01*
X0122440Y0010097D01*
X0111414Y0008077D01*
X0100225Y0007400D01*
X0089036Y0008077D01*
X0078011Y0010097D01*
X0067309Y0013432D01*
X0057087Y0018033D01*
X0047494Y0023832D01*
X0038671Y0030745D01*
X0030745Y0038671D01*
X0029574Y0040164D02*
X0032039Y0040164D01*
X0032039Y0041763D02*
X0028322Y0041763D01*
X0027070Y0043361D02*
X0032195Y0043361D01*
X0032857Y0044960D02*
X0025817Y0044960D01*
X0024565Y0046558D02*
X0033646Y0046558D01*
X0035244Y0048157D02*
X0023431Y0048157D01*
X0022465Y0049755D02*
X0038037Y0049755D01*
X0040534Y0055121D02*
X0044679Y0055121D01*
X0057090Y0042710D01*
X0057090Y0040534D01*
X0058250Y0039373D01*
X0058852Y0039373D01*
X0057369Y0037890D01*
X0056393Y0035534D01*
X0056393Y0032984D01*
X0057369Y0030628D01*
X0059172Y0028825D01*
X0061528Y0027849D01*
X0064078Y0027849D01*
X0064541Y0028040D01*
X0062935Y0026434D01*
X0062935Y0024643D01*
X0067519Y0024643D01*
X0067519Y0024275D01*
X0062935Y0024275D01*
X0062935Y0022484D01*
X0065728Y0019691D01*
X0067519Y0019691D01*
X0067519Y0024275D01*
X0067887Y0024275D01*
X0067887Y0019691D01*
X0069678Y0019691D01*
X0072472Y0022484D01*
X0072472Y0024275D01*
X0067887Y0024275D01*
X0067887Y0024643D01*
X0067519Y0024643D01*
X0067519Y0029228D01*
X0066837Y0029228D01*
X0068237Y0030628D01*
X0069213Y0032984D01*
X0069213Y0035534D01*
X0068237Y0037890D01*
X0066434Y0039693D01*
X0064557Y0040471D01*
X0064620Y0040534D01*
X0064620Y0045743D01*
X0063460Y0046904D01*
X0061283Y0046904D01*
X0047621Y0060566D01*
X0047621Y0060566D01*
X0046904Y0061283D01*
X0046904Y0061491D01*
X0045743Y0062652D01*
X0040534Y0062652D01*
X0039373Y0061491D01*
X0039373Y0056282D01*
X0040534Y0055121D01*
X0039506Y0056149D02*
X0018599Y0056149D01*
X0017735Y0057748D02*
X0039373Y0057748D01*
X0039373Y0059346D02*
X0017016Y0059346D01*
X0016296Y0060945D02*
X0039373Y0060945D01*
X0040425Y0062543D02*
X0015577Y0062543D01*
X0014857Y0064142D02*
X0047469Y0064142D01*
X0045871Y0065740D02*
X0014138Y0065740D01*
X0013423Y0067339D02*
X0044272Y0067339D01*
X0042674Y0068937D02*
X0012925Y0068937D01*
X0012427Y0070536D02*
X0041075Y0070536D01*
X0039477Y0072134D02*
X0011928Y0072134D01*
X0011430Y0073733D02*
X0037878Y0073733D01*
X0036280Y0075332D02*
X0010932Y0075332D01*
X0010434Y0076930D02*
X0034681Y0076930D01*
X0033083Y0078529D02*
X0010002Y0078529D01*
X0009709Y0080127D02*
X0031484Y0080127D01*
X0029886Y0081726D02*
X0009417Y0081726D01*
X0009124Y0083324D02*
X0028287Y0083324D01*
X0026688Y0084923D02*
X0008831Y0084923D01*
X0008538Y0086521D02*
X0025090Y0086521D01*
X0023491Y0088120D02*
X0008245Y0088120D01*
X0008036Y0089718D02*
X0021893Y0089718D01*
X0020604Y0091007D02*
X0019298Y0091007D01*
X0016204Y0094101D01*
X0016204Y0098476D01*
X0018082Y0100353D01*
X0016385Y0102050D01*
X0016385Y0104162D01*
X0021485Y0104162D01*
X0021485Y0104162D01*
X0021485Y0104162D01*
X0026585Y0104162D01*
X0026585Y0102050D01*
X0024889Y0100353D01*
X0026766Y0098476D01*
X0026766Y0094101D01*
X0026332Y0093666D01*
X0073894Y0046104D01*
X0077343Y0046104D01*
X0080829Y0049589D01*
X0081919Y0050041D01*
X0094910Y0050041D01*
X0095999Y0049589D01*
X0096834Y0048755D01*
X0104590Y0040998D01*
X0106767Y0040998D01*
X0107928Y0039838D01*
X0107928Y0034628D01*
X0106767Y0033468D01*
X0101557Y0033468D01*
X0100397Y0034628D01*
X0100397Y0036805D01*
X0093091Y0044110D01*
X0083737Y0044110D01*
X0081086Y0041459D01*
X0080251Y0040625D01*
X0079161Y0040173D01*
X0072076Y0040173D01*
X0070986Y0040625D01*
X0020604Y0091007D01*
X0018988Y0091317D02*
X0007939Y0091317D01*
X0007842Y0092915D02*
X0017389Y0092915D01*
X0016204Y0094514D02*
X0007745Y0094514D01*
X0007649Y0096112D02*
X0016204Y0096112D01*
X0016204Y0097711D02*
X0007552Y0097711D01*
X0007455Y0099309D02*
X0017037Y0099309D01*
X0017527Y0100908D02*
X0007441Y0100908D01*
X0007538Y0102506D02*
X0016385Y0102506D01*
X0016385Y0104105D02*
X0007635Y0104105D01*
X0007731Y0105703D02*
X0016385Y0105703D01*
X0016385Y0106275D02*
X0016385Y0104162D01*
X0021485Y0104162D01*
X0026585Y0104162D01*
X0026585Y0106275D01*
X0023598Y0109262D01*
X0021485Y0109262D01*
X0019373Y0109262D01*
X0016385Y0106275D01*
X0017412Y0107302D02*
X0007828Y0107302D01*
X0007925Y0108900D02*
X0019011Y0108900D01*
X0021485Y0108900D02*
X0021485Y0108900D01*
X0021485Y0109262D02*
X0021485Y0104162D01*
X0021485Y0104162D01*
X0021485Y0109262D01*
X0021485Y0107302D02*
X0021485Y0107302D01*
X0021485Y0105703D02*
X0021485Y0105703D01*
X0023959Y0108900D02*
X0043228Y0108900D01*
X0043228Y0108343D02*
X0047895Y0108343D01*
X0047895Y0113009D01*
X0044791Y0113009D01*
X0044334Y0112887D01*
X0043923Y0112650D01*
X0043588Y0112315D01*
X0043351Y0111904D01*
X0043228Y0111446D01*
X0043228Y0108343D01*
X0043228Y0108171D02*
X0043228Y0105946D01*
X0042233Y0105946D01*
X0041288Y0105555D01*
X0040565Y0104832D01*
X0040171Y0104438D01*
X0039780Y0103493D01*
X0039780Y0093375D01*
X0040171Y0092430D01*
X0040894Y0091706D01*
X0043047Y0089554D01*
X0043047Y0084483D01*
X0044208Y0083323D01*
X0051754Y0083323D01*
X0052915Y0084483D01*
X0052915Y0090567D01*
X0053047Y0090567D01*
X0053047Y0084483D01*
X0054208Y0083323D01*
X0061754Y0083323D01*
X0062915Y0084483D01*
X0062915Y0085685D01*
X0066327Y0085685D01*
X0067272Y0086077D01*
X0070975Y0089780D01*
X0073223Y0089780D01*
X0073617Y0089386D01*
X0081164Y0089386D01*
X0082324Y0090546D01*
X0082324Y0102378D01*
X0086562Y0102378D01*
X0088205Y0100735D01*
X0088205Y0097691D01*
X0084628Y0097691D01*
X0083468Y0096531D01*
X0083468Y0091321D01*
X0084590Y0090198D01*
X0082672Y0090198D01*
X0081512Y0089038D01*
X0081512Y0081491D01*
X0082672Y0080331D01*
X0092581Y0080331D01*
X0092762Y0080512D01*
X0093926Y0080512D01*
X0094294Y0080512D01*
X0094294Y0078543D01*
X0090399Y0074647D01*
X0069877Y0074647D01*
X0068717Y0073487D01*
X0068717Y0063972D01*
X0069668Y0063020D01*
X0068717Y0062069D01*
X0068717Y0057279D01*
X0069219Y0056776D01*
X0069020Y0056432D01*
X0068898Y0055974D01*
X0068898Y0054162D01*
X0068898Y0052350D01*
X0069020Y0051893D01*
X0069257Y0051482D01*
X0069592Y0051147D01*
X0070003Y0050910D01*
X0070461Y0050787D01*
X0072666Y0050787D01*
X0072666Y0054162D01*
X0072666Y0054162D01*
X0068898Y0054162D01*
X0072666Y0054162D01*
X0072666Y0054162D01*
X0072666Y0050787D01*
X0074872Y0050787D01*
X0075329Y0050910D01*
X0075740Y0051147D01*
X0076075Y0051482D01*
X0076312Y0051893D01*
X0076435Y0052350D01*
X0076435Y0054162D01*
X0072666Y0054162D01*
X0072666Y0054162D01*
X0076435Y0054162D01*
X0076435Y0055974D01*
X0076312Y0056432D01*
X0076113Y0056776D01*
X0076616Y0057279D01*
X0076616Y0062069D01*
X0075874Y0062811D01*
X0093172Y0062811D01*
X0094332Y0063972D01*
X0094332Y0070714D01*
X0098257Y0074639D01*
X0098650Y0074245D01*
X0106118Y0066777D01*
X0106118Y0063972D01*
X0107279Y0062811D01*
X0124576Y0062811D01*
X0123835Y0062069D01*
X0123835Y0057279D01*
X0124337Y0056776D01*
X0124138Y0056432D01*
X0124016Y0055974D01*
X0124016Y0054162D01*
X0124016Y0052350D01*
X0124138Y0051893D01*
X0124375Y0051482D01*
X0124711Y0051147D01*
X0125121Y0050910D01*
X0125579Y0050787D01*
X0127784Y0050787D01*
X0127784Y0054162D01*
X0124016Y0054162D01*
X0127784Y0054162D01*
X0127784Y0054162D01*
X0127784Y0054162D01*
X0127784Y0050787D01*
X0129990Y0050787D01*
X0130448Y0050910D01*
X0130858Y0051147D01*
X0131193Y0051482D01*
X0131430Y0051893D01*
X0131553Y0052350D01*
X0131553Y0054162D01*
X0127784Y0054162D01*
X0127784Y0054162D01*
X0131553Y0054162D01*
X0131553Y0055974D01*
X0131430Y0056432D01*
X0131231Y0056776D01*
X0131734Y0057279D01*
X0131734Y0062069D01*
X0130783Y0063020D01*
X0131734Y0063972D01*
X0131734Y0073487D01*
X0130573Y0074647D01*
X0107279Y0074647D01*
X0106696Y0074065D01*
X0103006Y0077755D01*
X0103006Y0080331D01*
X0117778Y0080331D01*
X0118939Y0081491D01*
X0118939Y0089038D01*
X0117778Y0090198D01*
X0095271Y0090198D01*
X0095090Y0090017D01*
X0093926Y0090017D01*
X0093348Y0090017D01*
X0093348Y0102312D01*
X0093320Y0102378D01*
X0102310Y0102378D01*
X0102705Y0101982D01*
X0102705Y0101982D01*
X0111367Y0093321D01*
X0112312Y0092929D01*
X0118307Y0092929D01*
X0118307Y0092351D01*
X0118307Y0091130D01*
X0118430Y0090672D01*
X0118667Y0090262D01*
X0119002Y0089927D01*
X0119412Y0089690D01*
X0119870Y0089567D01*
X0123060Y0089567D01*
X0126250Y0089567D01*
X0126707Y0089690D01*
X0127118Y0089927D01*
X0127453Y0090262D01*
X0127690Y0090672D01*
X0127813Y0091130D01*
X0127813Y0092351D01*
X0123060Y0092351D01*
X0123060Y0092351D01*
X0123060Y0089567D01*
X0123060Y0092351D01*
X0123060Y0092351D01*
X0127813Y0092351D01*
X0127813Y0092929D01*
X0135382Y0092929D01*
X0136328Y0093321D01*
X0137051Y0094044D01*
X0139807Y0096800D01*
X0140198Y0097745D01*
X0140198Y0097850D01*
X0140416Y0097850D01*
X0141400Y0098835D01*
X0152929Y0098835D01*
X0152929Y0098155D01*
X0154090Y0096994D01*
X0160534Y0096994D01*
X0160800Y0097260D01*
X0161989Y0097260D01*
X0163389Y0095860D01*
X0163389Y0093683D01*
X0164549Y0092523D01*
X0166726Y0092523D01*
X0177181Y0082068D01*
X0177181Y0079983D01*
X0176591Y0079392D01*
X0176591Y0073814D01*
X0177751Y0072654D01*
X0182542Y0072654D01*
X0183044Y0073156D01*
X0183389Y0072957D01*
X0183846Y0072835D01*
X0185658Y0072835D01*
X0185658Y0076603D01*
X0185658Y0076603D01*
X0185658Y0072835D01*
X0187470Y0072835D01*
X0187928Y0072957D01*
X0188338Y0073194D01*
X0188673Y0073529D01*
X0188910Y0073940D01*
X0189033Y0074398D01*
X0189033Y0076603D01*
X0185658Y0076603D01*
X0185658Y0080372D01*
X0183846Y0080372D01*
X0183389Y0080249D01*
X0183112Y0080089D01*
X0183112Y0083886D01*
X0182660Y0084976D01*
X0170920Y0096716D01*
X0170920Y0098893D01*
X0169759Y0100054D01*
X0167583Y0100054D01*
X0164897Y0102739D01*
X0163807Y0103191D01*
X0161694Y0103191D01*
X0161694Y0103398D01*
X0160534Y0104559D01*
X0159109Y0104559D01*
X0159109Y0108736D01*
X0157948Y0109896D01*
X0155215Y0109896D01*
X0151618Y0113493D01*
X0150895Y0114216D01*
X0149949Y0114608D01*
X0142629Y0114608D01*
X0141119Y0116118D01*
X0145180Y0116118D01*
X0146340Y0117279D01*
X0146340Y0123644D01*
X0145205Y0124780D01*
X0148920Y0124780D01*
X0150080Y0125940D01*
X0150080Y0126551D01*
X0165656Y0126551D01*
X0166535Y0125672D01*
X0166535Y0122866D01*
X0168520Y0120881D01*
X0168520Y0107588D01*
X0168911Y0106642D01*
X0180722Y0094831D01*
X0181446Y0094108D01*
X0182391Y0093717D01*
X0182973Y0093717D01*
X0182977Y0093707D01*
X0184259Y0092426D01*
X0185933Y0091732D01*
X0187746Y0091732D01*
X0189420Y0092426D01*
X0190702Y0093707D01*
X0191395Y0095382D01*
X0191395Y0097194D01*
X0190702Y0098869D01*
X0189964Y0099606D01*
X0190235Y0099606D01*
X0191395Y0100767D01*
X0191395Y0107558D01*
X0190235Y0108718D01*
X0183444Y0108718D01*
X0182283Y0107558D01*
X0182283Y0100767D01*
X0183444Y0099606D01*
X0183714Y0099606D01*
X0183468Y0099360D01*
X0173663Y0109164D01*
X0173663Y0120881D01*
X0175647Y0122866D01*
X0175647Y0126640D01*
X0172978Y0129309D01*
X0170172Y0129309D01*
X0169284Y0130197D01*
X0172978Y0130197D01*
X0175647Y0132866D01*
X0175647Y0136640D01*
X0172978Y0139309D01*
X0169204Y0139309D01*
X0166535Y0136640D01*
X0166535Y0132866D01*
X0168042Y0131359D01*
X0167233Y0131694D01*
X0150080Y0131694D01*
X0150080Y0132306D01*
X0148920Y0133466D01*
X0144129Y0133466D01*
X0142969Y0132306D01*
X0142969Y0125940D01*
X0144104Y0124805D01*
X0140389Y0124805D01*
X0139228Y0123644D01*
X0139228Y0123269D01*
X0127994Y0123269D01*
X0127994Y0125652D01*
X0126833Y0126813D01*
X0119286Y0126813D01*
X0118545Y0126071D01*
X0118545Y0126767D01*
X0118939Y0127160D01*
X0118939Y0134707D01*
X0117778Y0135868D01*
X0114168Y0135868D01*
X0113987Y0135687D01*
X0112824Y0135687D01*
X0112824Y0130934D01*
X0112824Y0130934D01*
X0112824Y0135687D01*
X0112246Y0135687D01*
X0112246Y0143520D01*
X0113644Y0143520D01*
X0114005Y0143880D01*
X0114365Y0143520D01*
X0119156Y0143520D01*
X0120317Y0144680D01*
X0120317Y0144898D01*
X0122390Y0144898D01*
X0123335Y0145289D01*
X0123719Y0145672D01*
X0126452Y0145672D01*
X0127613Y0146833D01*
X0127613Y0152043D01*
X0126452Y0153203D01*
X0121242Y0153203D01*
X0120082Y0152043D01*
X0120082Y0150493D01*
X0119156Y0151419D01*
X0114365Y0151419D01*
X0114005Y0151058D01*
X0113820Y0151243D01*
X0113820Y0151570D01*
X0114147Y0151896D01*
X0114491Y0151697D01*
X0114949Y0151575D01*
X0116761Y0151575D01*
X0118572Y0151575D01*
X0119030Y0151697D01*
X0119441Y0151934D01*
X0119776Y0152270D01*
X0120013Y0152680D01*
X0120135Y0153138D01*
X0120135Y0155343D01*
X0116761Y0155343D01*
X0116761Y0155343D01*
X0116761Y0151575D01*
X0116761Y0155343D01*
X0116761Y0155343D01*
X0120135Y0155343D01*
X0120135Y0157549D01*
X0120013Y0158007D01*
X0119776Y0158417D01*
X0119441Y0158752D01*
X0119030Y0158989D01*
X0118572Y0159112D01*
X0116761Y0159112D01*
X0116761Y0155343D01*
X0116761Y0155343D01*
X0116761Y0159112D01*
X0114949Y0159112D01*
X0114491Y0158989D01*
X0114147Y0158790D01*
X0113644Y0159293D01*
X0108853Y0159293D01*
X0107693Y0158132D01*
X0107693Y0152554D01*
X0108677Y0151570D01*
X0108677Y0151243D01*
X0107693Y0150258D01*
X0107693Y0147550D01*
X0107494Y0147351D01*
X0107102Y0146406D01*
X0107102Y0135868D01*
X0102797Y0135868D01*
X0102797Y0160184D01*
X0110279Y0167666D01*
X0110671Y0168611D01*
X0110671Y0179036D01*
X0110680Y0179040D01*
X0111962Y0180322D01*
X0112655Y0181996D01*
X0112655Y0183809D01*
X0111962Y0185483D01*
X0110680Y0186765D01*
X0109005Y0187458D01*
X0107193Y0187458D01*
X0105518Y0186765D01*
X0104237Y0185483D01*
X0104050Y0185032D01*
X0103967Y0185195D01*
X0103562Y0185752D01*
X0103075Y0186239D01*
X0102518Y0186644D01*
X0101905Y0186957D01*
X0101250Y0187169D01*
X0100570Y0187277D01*
X0100225Y0187277D01*
X0099881Y0187277D01*
X0099201Y0187169D01*
X0098546Y0186957D01*
X0097932Y0186644D01*
X0097375Y0186239D01*
X0096907Y0185771D01*
X0096907Y0186298D01*
X0095747Y0187458D01*
X0088956Y0187458D01*
X0087795Y0186298D01*
X0087795Y0181983D01*
X0082297Y0176485D01*
X0081906Y0175540D01*
X0081906Y0135101D01*
X0081512Y0134707D01*
X0081512Y0127160D01*
X0081906Y0126767D01*
X0081906Y0126071D01*
X0081164Y0126813D01*
X0073617Y0126813D01*
X0072457Y0125652D01*
X0072457Y0112594D01*
X0072638Y0112412D01*
X0072638Y0111249D01*
X0077390Y0111249D01*
X0077390Y0111249D01*
X0072638Y0111249D01*
X0072638Y0110671D01*
X0067826Y0110671D01*
X0067364Y0111133D01*
X0067364Y0112548D01*
X0066972Y0113493D01*
X0057324Y0123141D01*
X0057324Y0124668D01*
X0056164Y0125828D01*
X0051373Y0125828D01*
X0050871Y0125326D01*
X0050526Y0125525D01*
X0050068Y0125647D01*
X0048257Y0125647D01*
X0048257Y0121879D01*
X0048257Y0121879D01*
X0048257Y0125647D01*
X0046445Y0125647D01*
X0045987Y0125525D01*
X0045577Y0125288D01*
X0045242Y0124952D01*
X0045005Y0124542D01*
X0044882Y0124084D01*
X0044882Y0121879D01*
X0048257Y0121879D01*
X0048257Y0118110D01*
X0050068Y0118110D01*
X0050526Y0118233D01*
X0050871Y0118432D01*
X0051373Y0117929D01*
X0055262Y0117929D01*
X0060001Y0113191D01*
X0054208Y0113191D01*
X0053047Y0112030D01*
X0053047Y0105946D01*
X0052734Y0105946D01*
X0052734Y0108171D01*
X0048067Y0108171D01*
X0048067Y0108343D01*
X0047895Y0108343D01*
X0047895Y0108171D01*
X0043228Y0108171D01*
X0043228Y0107302D02*
X0025558Y0107302D01*
X0026585Y0105703D02*
X0041646Y0105703D01*
X0040033Y0104105D02*
X0026585Y0104105D01*
X0026585Y0102506D02*
X0039780Y0102506D01*
X0039780Y0100908D02*
X0025443Y0100908D01*
X0025933Y0099309D02*
X0039780Y0099309D01*
X0039780Y0097711D02*
X0026766Y0097711D01*
X0026766Y0096112D02*
X0039780Y0096112D01*
X0039780Y0094514D02*
X0026766Y0094514D01*
X0027083Y0092915D02*
X0039970Y0092915D01*
X0041284Y0091317D02*
X0028682Y0091317D01*
X0030280Y0089718D02*
X0042883Y0089718D01*
X0043047Y0088120D02*
X0031879Y0088120D01*
X0033477Y0086521D02*
X0043047Y0086521D01*
X0043047Y0084923D02*
X0035076Y0084923D01*
X0036674Y0083324D02*
X0044206Y0083324D01*
X0039871Y0080127D02*
X0094294Y0080127D01*
X0093926Y0080512D02*
X0093926Y0085264D01*
X0093926Y0085264D01*
X0093926Y0080512D01*
X0093926Y0081726D02*
X0093926Y0081726D01*
X0093926Y0083324D02*
X0093926Y0083324D01*
X0093926Y0084923D02*
X0093926Y0084923D01*
X0093926Y0085265D02*
X0093926Y0090017D01*
X0093926Y0085265D01*
X0093926Y0085265D01*
X0093926Y0086521D02*
X0093926Y0086521D01*
X0093926Y0088120D02*
X0093926Y0088120D01*
X0093926Y0089718D02*
X0093926Y0089718D01*
X0093348Y0091317D02*
X0118307Y0091317D01*
X0118307Y0092351D02*
X0123060Y0092351D01*
X0123060Y0092351D01*
X0118307Y0092351D01*
X0118307Y0092915D02*
X0093348Y0092915D01*
X0093348Y0094514D02*
X0110174Y0094514D01*
X0108575Y0096112D02*
X0093348Y0096112D01*
X0093348Y0097711D02*
X0106977Y0097711D01*
X0105378Y0099309D02*
X0093348Y0099309D01*
X0093348Y0100908D02*
X0103780Y0100908D01*
X0103884Y0107521D02*
X0082324Y0107521D01*
X0082324Y0109904D01*
X0082143Y0110085D01*
X0082143Y0111249D01*
X0082143Y0111827D01*
X0084649Y0111827D01*
X0084649Y0109431D01*
X0085809Y0108271D01*
X0091019Y0108271D01*
X0092180Y0109431D01*
X0092180Y0114641D01*
X0091844Y0114976D01*
X0093648Y0114976D01*
X0096460Y0112165D01*
X0096460Y0109431D01*
X0097620Y0108271D01*
X0102830Y0108271D01*
X0103991Y0109431D01*
X0103991Y0114641D01*
X0102830Y0115802D01*
X0100097Y0115802D01*
X0096894Y0119005D01*
X0096170Y0119728D01*
X0095225Y0120120D01*
X0084386Y0120120D01*
X0085542Y0121276D01*
X0113402Y0121276D01*
X0113402Y0117038D01*
X0103884Y0107521D01*
X0103459Y0108900D02*
X0105263Y0108900D01*
X0103991Y0110499D02*
X0106862Y0110499D01*
X0108460Y0112097D02*
X0103991Y0112097D01*
X0103991Y0113696D02*
X0110059Y0113696D01*
X0111657Y0115294D02*
X0103337Y0115294D01*
X0099005Y0116893D02*
X0113256Y0116893D01*
X0113402Y0118491D02*
X0097407Y0118491D01*
X0095297Y0120090D02*
X0113402Y0120090D01*
X0118545Y0126484D02*
X0118958Y0126484D01*
X0118939Y0128082D02*
X0142969Y0128082D01*
X0142969Y0126484D02*
X0127162Y0126484D01*
X0127994Y0124885D02*
X0144023Y0124885D01*
X0146340Y0123287D02*
X0146950Y0123287D01*
X0146890Y0123061D02*
X0146890Y0120461D01*
X0146890Y0117862D01*
X0147012Y0117404D01*
X0147249Y0116994D01*
X0147585Y0116659D01*
X0147995Y0116422D01*
X0148453Y0116299D01*
X0150264Y0116299D01*
X0150264Y0120461D01*
X0146890Y0120461D01*
X0150264Y0120461D01*
X0150264Y0120461D01*
X0150265Y0120461D01*
X0150265Y0120461D01*
X0153639Y0120461D01*
X0153639Y0117862D01*
X0153517Y0117404D01*
X0153280Y0116994D01*
X0152945Y0116659D01*
X0152534Y0116422D01*
X0152076Y0116299D01*
X0150265Y0116299D01*
X0150265Y0120461D01*
X0153639Y0120461D01*
X0153639Y0123061D01*
X0153517Y0123518D01*
X0153280Y0123929D01*
X0152945Y0124264D01*
X0152534Y0124501D01*
X0152076Y0124624D01*
X0150265Y0124624D01*
X0150265Y0120462D01*
X0150264Y0120462D01*
X0150264Y0124624D01*
X0148453Y0124624D01*
X0147995Y0124501D01*
X0147585Y0124264D01*
X0147249Y0123929D01*
X0147012Y0123518D01*
X0146890Y0123061D01*
X0146890Y0121688D02*
X0146340Y0121688D01*
X0146340Y0120090D02*
X0146890Y0120090D01*
X0146890Y0118491D02*
X0146340Y0118491D01*
X0145954Y0116893D02*
X0147351Y0116893D01*
X0150264Y0116893D02*
X0150265Y0116893D01*
X0150264Y0118491D02*
X0150265Y0118491D01*
X0150264Y0120090D02*
X0150265Y0120090D01*
X0150264Y0121688D02*
X0150265Y0121688D01*
X0150264Y0123287D02*
X0150265Y0123287D01*
X0149026Y0124885D02*
X0166535Y0124885D01*
X0166535Y0123287D02*
X0153579Y0123287D01*
X0153639Y0121688D02*
X0167713Y0121688D01*
X0168520Y0120090D02*
X0153639Y0120090D01*
X0153639Y0118491D02*
X0168520Y0118491D01*
X0168520Y0116893D02*
X0153179Y0116893D01*
X0151415Y0113696D02*
X0168520Y0113696D01*
X0168520Y0115294D02*
X0141943Y0115294D01*
X0139228Y0123287D02*
X0127994Y0123287D01*
X0118939Y0129681D02*
X0142969Y0129681D01*
X0142969Y0131279D02*
X0118939Y0131279D01*
X0118939Y0132878D02*
X0143541Y0132878D01*
X0149508Y0132878D02*
X0166535Y0132878D01*
X0166535Y0134476D02*
X0118939Y0134476D01*
X0112824Y0134476D02*
X0112824Y0134476D01*
X0112824Y0132878D02*
X0112824Y0132878D01*
X0112824Y0131279D02*
X0112824Y0131279D01*
X0112246Y0136075D02*
X0166535Y0136075D01*
X0167569Y0137673D02*
X0112246Y0137673D01*
X0112246Y0139272D02*
X0169168Y0139272D01*
X0173015Y0139272D02*
X0184259Y0139272D01*
X0183540Y0140870D02*
X0112246Y0140870D01*
X0112246Y0142469D02*
X0182820Y0142469D01*
X0181992Y0144068D02*
X0119704Y0144068D01*
X0123712Y0145666D02*
X0181026Y0145666D01*
X0180059Y0147265D02*
X0127613Y0147265D01*
X0127613Y0148863D02*
X0179093Y0148863D01*
X0178127Y0150462D02*
X0161850Y0150462D01*
X0161097Y0150150D02*
X0164452Y0151540D01*
X0167021Y0154108D01*
X0168411Y0157464D01*
X0168411Y0161097D01*
X0167021Y0164452D01*
X0164452Y0167021D01*
X0161097Y0168411D01*
X0157464Y0168411D01*
X0154108Y0167021D01*
X0151540Y0164452D01*
X0150150Y0161097D01*
X0150150Y0157464D01*
X0151540Y0154108D01*
X0154108Y0151540D01*
X0157464Y0150150D01*
X0161097Y0150150D01*
X0164973Y0152060D02*
X0177160Y0152060D01*
X0176068Y0153659D02*
X0166571Y0153659D01*
X0167497Y0155257D02*
X0174816Y0155257D01*
X0173564Y0156856D02*
X0168159Y0156856D01*
X0168411Y0158454D02*
X0172311Y0158454D01*
X0171059Y0160053D02*
X0168411Y0160053D01*
X0168181Y0161651D02*
X0169807Y0161651D01*
X0168236Y0163250D02*
X0167519Y0163250D01*
X0166637Y0164848D02*
X0166625Y0164848D01*
X0165039Y0166447D02*
X0165027Y0166447D01*
X0163440Y0168045D02*
X0161980Y0168045D01*
X0161842Y0169644D02*
X0110671Y0169644D01*
X0110671Y0171242D02*
X0159819Y0171242D01*
X0157778Y0172841D02*
X0110671Y0172841D01*
X0110671Y0174439D02*
X0155738Y0174439D01*
X0153698Y0176038D02*
X0110671Y0176038D01*
X0110671Y0177636D02*
X0151273Y0177636D01*
X0148629Y0179235D02*
X0110875Y0179235D01*
X0112173Y0180833D02*
X0145984Y0180833D01*
X0143332Y0182432D02*
X0112655Y0182432D01*
X0112563Y0184030D02*
X0139780Y0184030D01*
X0136229Y0185629D02*
X0111816Y0185629D01*
X0109563Y0187227D02*
X0132471Y0187227D01*
X0127341Y0188826D02*
X0073110Y0188826D01*
X0067980Y0187227D02*
X0088725Y0187227D01*
X0087795Y0185629D02*
X0064222Y0185629D01*
X0060670Y0184030D02*
X0087795Y0184030D01*
X0087795Y0182432D02*
X0057118Y0182432D01*
X0054466Y0180833D02*
X0086645Y0180833D01*
X0085047Y0179235D02*
X0051822Y0179235D01*
X0049177Y0177636D02*
X0083448Y0177636D01*
X0082112Y0176038D02*
X0046753Y0176038D01*
X0044712Y0174439D02*
X0081906Y0174439D01*
X0081906Y0172841D02*
X0042672Y0172841D01*
X0040632Y0171242D02*
X0081906Y0171242D01*
X0081906Y0169644D02*
X0038609Y0169644D01*
X0039354Y0168411D02*
X0035998Y0167021D01*
X0033429Y0164452D01*
X0032039Y0161097D01*
X0032039Y0157464D01*
X0033429Y0154108D01*
X0035998Y0151540D01*
X0039354Y0150150D01*
X0042986Y0150150D01*
X0046342Y0151540D01*
X0048911Y0154108D01*
X0050301Y0157464D01*
X0050301Y0161097D01*
X0048911Y0164452D01*
X0046342Y0167021D01*
X0042986Y0168411D01*
X0039354Y0168411D01*
X0038471Y0168045D02*
X0037010Y0168045D01*
X0035424Y0166447D02*
X0035412Y0166447D01*
X0033825Y0164848D02*
X0033813Y0164848D01*
X0032931Y0163250D02*
X0032214Y0163250D01*
X0032269Y0161651D02*
X0030644Y0161651D01*
X0029391Y0160053D02*
X0032039Y0160053D01*
X0032039Y0158454D02*
X0028139Y0158454D01*
X0026887Y0156856D02*
X0032291Y0156856D01*
X0032954Y0155257D02*
X0025634Y0155257D01*
X0024382Y0153659D02*
X0033879Y0153659D01*
X0035478Y0152060D02*
X0023290Y0152060D01*
X0022324Y0150462D02*
X0038601Y0150462D01*
X0043739Y0150462D02*
X0081906Y0150462D01*
X0081906Y0152060D02*
X0046863Y0152060D01*
X0048461Y0153659D02*
X0081906Y0153659D01*
X0081906Y0155257D02*
X0049387Y0155257D01*
X0050049Y0156856D02*
X0081906Y0156856D01*
X0081906Y0158454D02*
X0050301Y0158454D01*
X0050301Y0160053D02*
X0081906Y0160053D01*
X0081906Y0161651D02*
X0050071Y0161651D01*
X0049409Y0163250D02*
X0081906Y0163250D01*
X0081906Y0164848D02*
X0048515Y0164848D01*
X0046916Y0166447D02*
X0081906Y0166447D01*
X0081906Y0168045D02*
X0043869Y0168045D01*
X0021357Y0148863D02*
X0081906Y0148863D01*
X0081906Y0147265D02*
X0020391Y0147265D01*
X0019425Y0145666D02*
X0081906Y0145666D01*
X0081906Y0144068D02*
X0018458Y0144068D01*
X0017630Y0142469D02*
X0081906Y0142469D01*
X0081906Y0140870D02*
X0035322Y0140870D01*
X0034773Y0141049D02*
X0023945Y0141049D01*
X0021135Y0140136D01*
X0021135Y0140136D01*
X0018744Y0138399D01*
X0017008Y0136009D01*
X0016094Y0133199D01*
X0016094Y0132794D01*
X0016094Y0118433D01*
X0017008Y0115623D01*
X0018744Y0113232D01*
X0018744Y0113232D01*
X0018744Y0113232D01*
X0021135Y0111496D01*
X0023945Y0110583D01*
X0034773Y0110583D01*
X0037583Y0111496D01*
X0037583Y0111496D01*
X0039974Y0113232D01*
X0039974Y0113232D01*
X0039974Y0113232D01*
X0041711Y0115623D01*
X0042624Y0118433D01*
X0042624Y0133199D01*
X0041711Y0136009D01*
X0039974Y0138399D01*
X0037583Y0140136D01*
X0034773Y0141049D01*
X0037583Y0140136D02*
X0037583Y0140136D01*
X0038772Y0139272D02*
X0081906Y0139272D01*
X0081906Y0137673D02*
X0040501Y0137673D01*
X0039974Y0138399D02*
X0039974Y0138399D01*
X0041662Y0136075D02*
X0081906Y0136075D01*
X0081512Y0134476D02*
X0042208Y0134476D01*
X0041711Y0136009D02*
X0041711Y0136009D01*
X0042624Y0132878D02*
X0081512Y0132878D01*
X0081512Y0131279D02*
X0042624Y0131279D01*
X0042624Y0129681D02*
X0081512Y0129681D01*
X0081512Y0128082D02*
X0042624Y0128082D01*
X0042624Y0126484D02*
X0073288Y0126484D01*
X0072457Y0124885D02*
X0057107Y0124885D01*
X0057324Y0123287D02*
X0072457Y0123287D01*
X0072457Y0121688D02*
X0058777Y0121688D01*
X0060375Y0120090D02*
X0072457Y0120090D01*
X0072457Y0118491D02*
X0061974Y0118491D01*
X0063572Y0116893D02*
X0072457Y0116893D01*
X0072457Y0115294D02*
X0065171Y0115294D01*
X0066769Y0113696D02*
X0072457Y0113696D01*
X0072638Y0112097D02*
X0067364Y0112097D01*
X0059496Y0113696D02*
X0040310Y0113696D01*
X0041472Y0115294D02*
X0057897Y0115294D01*
X0056299Y0116893D02*
X0042123Y0116893D01*
X0041711Y0115623D02*
X0041711Y0115623D01*
X0042624Y0118491D02*
X0045555Y0118491D01*
X0045577Y0118470D02*
X0045987Y0118233D01*
X0046445Y0118110D01*
X0048257Y0118110D01*
X0048257Y0121879D01*
X0048257Y0121879D01*
X0048257Y0121879D01*
X0044882Y0121879D01*
X0044882Y0119673D01*
X0045005Y0119215D01*
X0045242Y0118805D01*
X0045577Y0118470D01*
X0044882Y0120090D02*
X0042624Y0120090D01*
X0042624Y0121688D02*
X0044882Y0121688D01*
X0044882Y0123287D02*
X0042624Y0123287D01*
X0042624Y0124885D02*
X0045203Y0124885D01*
X0048257Y0124885D02*
X0048257Y0124885D01*
X0048257Y0123287D02*
X0048257Y0123287D01*
X0048257Y0121688D02*
X0048257Y0121688D01*
X0048257Y0120090D02*
X0048257Y0120090D01*
X0048257Y0118491D02*
X0048257Y0118491D01*
X0048067Y0113009D02*
X0048067Y0108343D01*
X0052734Y0108343D01*
X0052734Y0111446D01*
X0052611Y0111904D01*
X0052374Y0112315D01*
X0052039Y0112650D01*
X0051629Y0112887D01*
X0051171Y0113009D01*
X0048067Y0113009D01*
X0048067Y0112097D02*
X0047895Y0112097D01*
X0047895Y0110499D02*
X0048067Y0110499D01*
X0048067Y0108900D02*
X0047895Y0108900D01*
X0052734Y0108900D02*
X0053047Y0108900D01*
X0053047Y0107302D02*
X0052734Y0107302D01*
X0052734Y0110499D02*
X0053047Y0110499D01*
X0053114Y0112097D02*
X0052500Y0112097D01*
X0043462Y0112097D02*
X0038411Y0112097D01*
X0043228Y0110499D02*
X0008021Y0110499D01*
X0008202Y0112097D02*
X0020307Y0112097D01*
X0021135Y0111496D02*
X0021135Y0111496D01*
X0018408Y0113696D02*
X0008495Y0113696D01*
X0008788Y0115294D02*
X0017246Y0115294D01*
X0017008Y0115623D02*
X0017008Y0115623D01*
X0016595Y0116893D02*
X0009081Y0116893D01*
X0009374Y0118491D02*
X0016094Y0118491D01*
X0016094Y0120090D02*
X0009667Y0120090D01*
X0009960Y0121688D02*
X0016094Y0121688D01*
X0016094Y0123287D02*
X0010361Y0123287D01*
X0010859Y0124885D02*
X0016094Y0124885D01*
X0016094Y0126484D02*
X0011358Y0126484D01*
X0011856Y0128082D02*
X0016094Y0128082D01*
X0016094Y0129681D02*
X0012354Y0129681D01*
X0012852Y0131279D02*
X0016094Y0131279D01*
X0016094Y0132878D02*
X0013350Y0132878D01*
X0014033Y0134476D02*
X0016510Y0134476D01*
X0017008Y0136009D02*
X0017008Y0136009D01*
X0017056Y0136075D02*
X0014752Y0136075D01*
X0015472Y0137673D02*
X0018217Y0137673D01*
X0018744Y0138399D02*
X0018744Y0138399D01*
X0018744Y0138399D01*
X0019946Y0139272D02*
X0016191Y0139272D01*
X0016911Y0140870D02*
X0023396Y0140870D01*
X0052915Y0089718D02*
X0053047Y0089718D01*
X0053047Y0088120D02*
X0052915Y0088120D01*
X0052915Y0086521D02*
X0053047Y0086521D01*
X0053047Y0084923D02*
X0052915Y0084923D01*
X0051756Y0083324D02*
X0054206Y0083324D01*
X0061756Y0083324D02*
X0081512Y0083324D01*
X0081512Y0081726D02*
X0038273Y0081726D01*
X0041470Y0078529D02*
X0094281Y0078529D01*
X0092682Y0076930D02*
X0043068Y0076930D01*
X0044667Y0075332D02*
X0091084Y0075332D01*
X0095753Y0072134D02*
X0100761Y0072134D01*
X0102359Y0070536D02*
X0094332Y0070536D01*
X0094332Y0068937D02*
X0103958Y0068937D01*
X0105556Y0067339D02*
X0094332Y0067339D01*
X0094332Y0065740D02*
X0106118Y0065740D01*
X0106118Y0064142D02*
X0094332Y0064142D01*
X0088414Y0068729D02*
X0097076Y0077391D01*
X0097076Y0085265D01*
X0100225Y0085265D02*
X0100225Y0076603D01*
X0108099Y0068729D01*
X0118926Y0068729D01*
X0127784Y0068729D01*
X0127784Y0059674D01*
X0123835Y0059346D02*
X0076616Y0059346D01*
X0076616Y0057748D02*
X0123835Y0057748D01*
X0124063Y0056149D02*
X0076388Y0056149D01*
X0076435Y0054551D02*
X0124016Y0054551D01*
X0124016Y0052952D02*
X0076435Y0052952D01*
X0075947Y0051354D02*
X0116145Y0051354D01*
X0116145Y0049755D02*
X0095599Y0049755D01*
X0097432Y0048157D02*
X0116145Y0048157D01*
X0116145Y0046558D02*
X0099031Y0046558D01*
X0100629Y0044960D02*
X0120061Y0044960D01*
X0119910Y0041170D02*
X0123847Y0037233D01*
X0123847Y0028867D01*
X0126406Y0028867D02*
X0126406Y0042548D01*
X0119910Y0049044D01*
X0123676Y0049755D02*
X0142586Y0049755D01*
X0142535Y0049634D02*
X0142535Y0032706D01*
X0142987Y0031616D01*
X0143704Y0030899D01*
X0143704Y0028723D01*
X0144864Y0027562D01*
X0150074Y0027562D01*
X0151235Y0028723D01*
X0151235Y0033932D01*
X0150074Y0035093D01*
X0148466Y0035093D01*
X0148466Y0047816D01*
X0153422Y0052772D01*
X0163251Y0052772D01*
X0164411Y0053932D01*
X0164411Y0061085D01*
X0163251Y0062246D01*
X0156768Y0062246D01*
X0150435Y0068579D01*
X0150435Y0076151D01*
X0151373Y0075213D01*
X0163251Y0075213D01*
X0164411Y0076373D01*
X0164411Y0076913D01*
X0164549Y0076775D01*
X0169759Y0076775D01*
X0170920Y0077935D01*
X0170920Y0083145D01*
X0169759Y0084305D01*
X0164549Y0084305D01*
X0164091Y0083847D01*
X0163251Y0084687D01*
X0161140Y0084687D01*
X0161694Y0085241D01*
X0161694Y0090485D01*
X0160534Y0091645D01*
X0154090Y0091645D01*
X0152929Y0090485D01*
X0152929Y0085241D01*
X0153484Y0084687D01*
X0151373Y0084687D01*
X0150533Y0083847D01*
X0150074Y0084305D01*
X0144864Y0084305D01*
X0143704Y0083145D01*
X0143704Y0077935D01*
X0144504Y0077135D01*
X0144504Y0066761D01*
X0144955Y0065671D01*
X0145790Y0064837D01*
X0150213Y0060414D01*
X0150213Y0057950D01*
X0143821Y0051558D01*
X0142987Y0050724D01*
X0142535Y0049634D01*
X0142535Y0048157D02*
X0124731Y0048157D01*
X0126329Y0046558D02*
X0142535Y0046558D01*
X0142535Y0044960D02*
X0127928Y0044960D01*
X0129080Y0043361D02*
X0142535Y0043361D01*
X0142535Y0041763D02*
X0129187Y0041763D01*
X0136274Y0040164D02*
X0142535Y0040164D01*
X0142535Y0038566D02*
X0136274Y0038566D01*
X0136274Y0036967D02*
X0142535Y0036967D01*
X0142535Y0035369D02*
X0136274Y0035369D01*
X0136852Y0032172D02*
X0135252Y0032172D01*
X0135252Y0030573D02*
X0136852Y0030573D01*
X0136852Y0028975D02*
X0135252Y0028975D01*
X0136852Y0027376D02*
X0157480Y0027376D01*
X0155440Y0025778D02*
X0141986Y0025778D01*
X0141986Y0024179D02*
X0153400Y0024179D01*
X0150887Y0022581D02*
X0144392Y0022581D01*
X0144939Y0020982D02*
X0148242Y0020982D01*
X0145598Y0019384D02*
X0144939Y0019384D01*
X0139214Y0017785D02*
X0108480Y0017785D01*
X0106931Y0017785D02*
X0057637Y0017785D01*
X0061189Y0016187D02*
X0102756Y0016187D01*
X0102756Y0016970D02*
X0102756Y0013965D01*
X0102879Y0013507D01*
X0103116Y0013096D01*
X0103451Y0012761D01*
X0103861Y0012524D01*
X0104319Y0012402D01*
X0106931Y0012402D01*
X0106931Y0016970D01*
X0102756Y0016970D01*
X0102756Y0014588D02*
X0064740Y0014588D01*
X0068729Y0012990D02*
X0103222Y0012990D01*
X0106931Y0012990D02*
X0108480Y0012990D01*
X0108480Y0014588D02*
X0106931Y0014588D01*
X0106931Y0016187D02*
X0108480Y0016187D01*
X0112655Y0016187D02*
X0135039Y0016187D01*
X0135039Y0014588D02*
X0112655Y0014588D01*
X0112189Y0012990D02*
X0131721Y0012990D01*
X0126592Y0011391D02*
X0073859Y0011391D01*
X0079674Y0009793D02*
X0120777Y0009793D01*
X0112054Y0008194D02*
X0088396Y0008194D01*
X0087553Y0019509D02*
X0083453Y0019509D01*
X0080554Y0022409D01*
X0080554Y0026509D01*
X0083453Y0029409D01*
X0086188Y0029409D01*
X0084969Y0030628D01*
X0083993Y0032984D01*
X0083993Y0035534D01*
X0084969Y0037890D01*
X0086772Y0039693D01*
X0089128Y0040669D01*
X0091678Y0040669D01*
X0094034Y0039693D01*
X0095837Y0037890D01*
X0096813Y0035534D01*
X0096813Y0032984D01*
X0095837Y0030628D01*
X0094034Y0028825D01*
X0091678Y0027849D01*
X0089128Y0027849D01*
X0089103Y0027859D01*
X0090453Y0026509D01*
X0090453Y0022409D01*
X0087553Y0019509D01*
X0089026Y0020982D02*
X0102756Y0020982D01*
X0102756Y0019384D02*
X0054852Y0019384D01*
X0052208Y0020982D02*
X0064436Y0020982D01*
X0062935Y0022581D02*
X0049564Y0022581D01*
X0047051Y0024179D02*
X0062935Y0024179D01*
X0062935Y0025778D02*
X0045010Y0025778D01*
X0042970Y0027376D02*
X0063877Y0027376D01*
X0067519Y0027376D02*
X0067887Y0027376D01*
X0067887Y0025778D02*
X0067519Y0025778D01*
X0067887Y0024643D02*
X0067887Y0029228D01*
X0069678Y0029228D01*
X0072472Y0026434D01*
X0072472Y0024643D01*
X0067887Y0024643D01*
X0067887Y0024179D02*
X0067519Y0024179D01*
X0067519Y0022581D02*
X0067887Y0022581D01*
X0067887Y0020982D02*
X0067519Y0020982D01*
X0070970Y0020982D02*
X0081980Y0020982D01*
X0080554Y0022581D02*
X0072472Y0022581D01*
X0072472Y0024179D02*
X0080554Y0024179D01*
X0080554Y0025778D02*
X0072472Y0025778D01*
X0071530Y0027376D02*
X0081420Y0027376D01*
X0083019Y0028975D02*
X0069931Y0028975D01*
X0067887Y0028975D02*
X0067519Y0028975D01*
X0068183Y0030573D02*
X0085024Y0030573D01*
X0084329Y0032172D02*
X0068877Y0032172D01*
X0069213Y0033770D02*
X0083993Y0033770D01*
X0083993Y0035369D02*
X0069213Y0035369D01*
X0068620Y0036967D02*
X0084587Y0036967D01*
X0085644Y0038566D02*
X0067562Y0038566D01*
X0069848Y0041763D02*
X0064620Y0041763D01*
X0064620Y0043361D02*
X0068250Y0043361D01*
X0066651Y0044960D02*
X0064620Y0044960D01*
X0065053Y0046558D02*
X0063806Y0046558D01*
X0063454Y0048157D02*
X0060030Y0048157D01*
X0058432Y0049755D02*
X0061856Y0049755D01*
X0060257Y0051354D02*
X0056833Y0051354D01*
X0055235Y0052952D02*
X0058659Y0052952D01*
X0057060Y0054551D02*
X0053636Y0054551D01*
X0052038Y0056149D02*
X0055462Y0056149D01*
X0053863Y0057748D02*
X0050439Y0057748D01*
X0048841Y0059346D02*
X0052265Y0059346D01*
X0050666Y0060945D02*
X0047242Y0060945D01*
X0045852Y0062543D02*
X0049068Y0062543D01*
X0052659Y0067339D02*
X0068717Y0067339D01*
X0068717Y0068937D02*
X0051061Y0068937D01*
X0049462Y0070536D02*
X0068717Y0070536D01*
X0068717Y0072134D02*
X0047864Y0072134D01*
X0046265Y0073733D02*
X0068963Y0073733D01*
X0072666Y0068729D02*
X0081524Y0068729D01*
X0084477Y0068729D01*
X0088414Y0068729D01*
X0097351Y0073733D02*
X0099162Y0073733D01*
X0103831Y0076930D02*
X0144504Y0076930D01*
X0144504Y0075332D02*
X0105430Y0075332D01*
X0103006Y0078529D02*
X0143704Y0078529D01*
X0143704Y0080127D02*
X0103006Y0080127D01*
X0118258Y0089718D02*
X0119363Y0089718D01*
X0118939Y0088120D02*
X0152929Y0088120D01*
X0152929Y0089718D02*
X0126757Y0089718D01*
X0127813Y0091317D02*
X0153761Y0091317D01*
X0152929Y0086521D02*
X0118939Y0086521D01*
X0118939Y0084923D02*
X0153248Y0084923D01*
X0161376Y0084923D02*
X0174326Y0084923D01*
X0172728Y0086521D02*
X0161694Y0086521D01*
X0161694Y0088120D02*
X0171129Y0088120D01*
X0169531Y0089718D02*
X0161694Y0089718D01*
X0160863Y0091317D02*
X0167932Y0091317D01*
X0164157Y0092915D02*
X0127813Y0092915D01*
X0123060Y0091317D02*
X0123060Y0091317D01*
X0123060Y0089718D02*
X0123060Y0089718D01*
X0118939Y0083324D02*
X0143883Y0083324D01*
X0143704Y0081726D02*
X0118939Y0081726D01*
X0131488Y0073733D02*
X0144504Y0073733D01*
X0144504Y0072134D02*
X0131734Y0072134D01*
X0131734Y0070536D02*
X0144504Y0070536D01*
X0144504Y0068937D02*
X0131734Y0068937D01*
X0131734Y0067339D02*
X0144504Y0067339D01*
X0144927Y0065740D02*
X0131734Y0065740D01*
X0131734Y0064142D02*
X0146485Y0064142D01*
X0148083Y0062543D02*
X0131260Y0062543D01*
X0131734Y0060945D02*
X0149682Y0060945D01*
X0150213Y0059346D02*
X0131734Y0059346D01*
X0131734Y0057748D02*
X0150011Y0057748D01*
X0148412Y0056149D02*
X0131506Y0056149D01*
X0131553Y0054551D02*
X0146814Y0054551D01*
X0145215Y0052952D02*
X0131553Y0052952D01*
X0131065Y0051354D02*
X0143617Y0051354D01*
X0143821Y0051558D02*
X0143821Y0051558D01*
X0148807Y0048157D02*
X0153354Y0048157D01*
X0154108Y0048911D02*
X0151540Y0046342D01*
X0150150Y0042986D01*
X0150150Y0039354D01*
X0151540Y0035998D01*
X0154108Y0033429D01*
X0157464Y0032039D01*
X0161097Y0032039D01*
X0164452Y0033429D01*
X0167021Y0035998D01*
X0168411Y0039354D01*
X0168411Y0042986D01*
X0167021Y0046342D01*
X0164452Y0048911D01*
X0161097Y0050301D01*
X0157464Y0050301D01*
X0154108Y0048911D01*
X0156147Y0049755D02*
X0150406Y0049755D01*
X0152004Y0051354D02*
X0178952Y0051354D01*
X0179918Y0052952D02*
X0163431Y0052952D01*
X0164411Y0054551D02*
X0180885Y0054551D01*
X0181851Y0056149D02*
X0164411Y0056149D01*
X0164411Y0057748D02*
X0182715Y0057748D01*
X0183435Y0059346D02*
X0164411Y0059346D01*
X0164411Y0060945D02*
X0184154Y0060945D01*
X0184873Y0062543D02*
X0156471Y0062543D01*
X0154872Y0064142D02*
X0185593Y0064142D01*
X0186312Y0065740D02*
X0153274Y0065740D01*
X0151675Y0067339D02*
X0187028Y0067339D01*
X0187526Y0068937D02*
X0150435Y0068937D01*
X0150435Y0070536D02*
X0188024Y0070536D01*
X0188522Y0072134D02*
X0150435Y0072134D01*
X0150435Y0073733D02*
X0176672Y0073733D01*
X0176591Y0075332D02*
X0163369Y0075332D01*
X0169914Y0076930D02*
X0176591Y0076930D01*
X0176591Y0078529D02*
X0170920Y0078529D01*
X0170920Y0080127D02*
X0177181Y0080127D01*
X0177181Y0081726D02*
X0170920Y0081726D01*
X0170741Y0083324D02*
X0175925Y0083324D01*
X0179517Y0088120D02*
X0192206Y0088120D01*
X0192374Y0089036D02*
X0192374Y0089036D01*
X0192415Y0089718D02*
X0177918Y0089718D01*
X0176320Y0091317D02*
X0192512Y0091317D01*
X0192608Y0092915D02*
X0189909Y0092915D01*
X0191036Y0094514D02*
X0192705Y0094514D01*
X0192802Y0096112D02*
X0191395Y0096112D01*
X0191181Y0097711D02*
X0192898Y0097711D01*
X0192995Y0099309D02*
X0190261Y0099309D01*
X0191395Y0100908D02*
X0193009Y0100908D01*
X0192912Y0102506D02*
X0191395Y0102506D01*
X0191395Y0104105D02*
X0192816Y0104105D01*
X0192719Y0105703D02*
X0191395Y0105703D01*
X0191395Y0107302D02*
X0192622Y0107302D01*
X0192526Y0108900D02*
X0173927Y0108900D01*
X0173663Y0110499D02*
X0192429Y0110499D01*
X0192248Y0112097D02*
X0173663Y0112097D01*
X0173663Y0113696D02*
X0191955Y0113696D01*
X0191662Y0115294D02*
X0173663Y0115294D01*
X0173663Y0116893D02*
X0191370Y0116893D01*
X0191077Y0118491D02*
X0173663Y0118491D01*
X0173663Y0120090D02*
X0190784Y0120090D01*
X0190491Y0121688D02*
X0174470Y0121688D01*
X0175647Y0123287D02*
X0190089Y0123287D01*
X0189591Y0124885D02*
X0175647Y0124885D01*
X0175647Y0126484D02*
X0189093Y0126484D01*
X0188595Y0128082D02*
X0174205Y0128082D01*
X0174061Y0131279D02*
X0187598Y0131279D01*
X0188097Y0129681D02*
X0169800Y0129681D01*
X0165723Y0126484D02*
X0150080Y0126484D01*
X0153014Y0112097D02*
X0168520Y0112097D01*
X0168520Y0110499D02*
X0154612Y0110499D01*
X0158944Y0108900D02*
X0168520Y0108900D01*
X0168638Y0107302D02*
X0159109Y0107302D01*
X0159109Y0105703D02*
X0169850Y0105703D01*
X0171449Y0104105D02*
X0160988Y0104105D01*
X0165130Y0102506D02*
X0173047Y0102506D01*
X0174646Y0100908D02*
X0166728Y0100908D01*
X0170504Y0099309D02*
X0176244Y0099309D01*
X0177843Y0097711D02*
X0170920Y0097711D01*
X0171524Y0096112D02*
X0179442Y0096112D01*
X0181040Y0094514D02*
X0173122Y0094514D01*
X0174721Y0092915D02*
X0183769Y0092915D01*
X0181115Y0086521D02*
X0191913Y0086521D01*
X0191620Y0084923D02*
X0182682Y0084923D01*
X0183112Y0083324D02*
X0191327Y0083324D01*
X0191034Y0081726D02*
X0183112Y0081726D01*
X0183112Y0080127D02*
X0183178Y0080127D01*
X0185658Y0080127D02*
X0185658Y0080127D01*
X0185658Y0080372D02*
X0185658Y0076603D01*
X0185658Y0076603D01*
X0185658Y0076603D01*
X0189033Y0076603D01*
X0189033Y0078809D01*
X0188910Y0079266D01*
X0188673Y0079677D01*
X0188338Y0080012D01*
X0187928Y0080249D01*
X0187470Y0080372D01*
X0185658Y0080372D01*
X0185658Y0078529D02*
X0185658Y0078529D01*
X0185658Y0076930D02*
X0185658Y0076930D01*
X0185658Y0075332D02*
X0185658Y0075332D01*
X0185658Y0073733D02*
X0185658Y0073733D01*
X0188791Y0073733D02*
X0189020Y0073733D01*
X0189033Y0075332D02*
X0189518Y0075332D01*
X0189033Y0076930D02*
X0190016Y0076930D01*
X0190448Y0078529D02*
X0189033Y0078529D01*
X0188139Y0080127D02*
X0190741Y0080127D01*
X0182283Y0100908D02*
X0181920Y0100908D01*
X0182283Y0102506D02*
X0180321Y0102506D01*
X0178723Y0104105D02*
X0182283Y0104105D01*
X0182283Y0105703D02*
X0177124Y0105703D01*
X0175526Y0107302D02*
X0182283Y0107302D01*
X0163137Y0096112D02*
X0139119Y0096112D01*
X0140184Y0097711D02*
X0153373Y0097711D01*
X0163389Y0094514D02*
X0137521Y0094514D01*
X0150435Y0075332D02*
X0151254Y0075332D01*
X0127784Y0052952D02*
X0127784Y0052952D01*
X0127784Y0051354D02*
X0127784Y0051354D01*
X0124504Y0051354D02*
X0123676Y0051354D01*
X0116145Y0043361D02*
X0102228Y0043361D01*
X0103826Y0041763D02*
X0116145Y0041763D01*
X0116145Y0040164D02*
X0107601Y0040164D01*
X0107928Y0038566D02*
X0116145Y0038566D01*
X0120180Y0036967D02*
X0107928Y0036967D01*
X0107928Y0035369D02*
X0121066Y0035369D01*
X0121066Y0033770D02*
X0107070Y0033770D01*
X0106398Y0032172D02*
X0096477Y0032172D01*
X0096813Y0033770D02*
X0101255Y0033770D01*
X0100397Y0035369D02*
X0096813Y0035369D01*
X0096220Y0036967D02*
X0100234Y0036967D01*
X0098636Y0038566D02*
X0095162Y0038566D01*
X0097037Y0040164D02*
X0092897Y0040164D01*
X0095439Y0041763D02*
X0081389Y0041763D01*
X0082988Y0043361D02*
X0093840Y0043361D01*
X0087909Y0040164D02*
X0065297Y0040164D01*
X0058044Y0038566D02*
X0049974Y0038566D01*
X0050301Y0040164D02*
X0057459Y0040164D01*
X0057090Y0041763D02*
X0050301Y0041763D01*
X0050145Y0043361D02*
X0056439Y0043361D01*
X0054840Y0044960D02*
X0049483Y0044960D01*
X0048695Y0046558D02*
X0053242Y0046558D01*
X0051643Y0048157D02*
X0047096Y0048157D01*
X0044303Y0049755D02*
X0050045Y0049755D01*
X0048446Y0051354D02*
X0021498Y0051354D01*
X0020532Y0052952D02*
X0046848Y0052952D01*
X0045249Y0054551D02*
X0019566Y0054551D01*
X0035645Y0033770D02*
X0035657Y0033770D01*
X0037244Y0032172D02*
X0039034Y0032172D01*
X0038889Y0030573D02*
X0057424Y0030573D01*
X0056729Y0032172D02*
X0043306Y0032172D01*
X0046683Y0033770D02*
X0056393Y0033770D01*
X0056393Y0035369D02*
X0048281Y0035369D01*
X0049312Y0036967D02*
X0056987Y0036967D01*
X0059022Y0028975D02*
X0040930Y0028975D01*
X0067046Y0052952D02*
X0068898Y0052952D01*
X0068898Y0054551D02*
X0065447Y0054551D01*
X0063849Y0056149D02*
X0068945Y0056149D01*
X0068717Y0057748D02*
X0062250Y0057748D01*
X0060652Y0059346D02*
X0068717Y0059346D01*
X0068717Y0060945D02*
X0059053Y0060945D01*
X0057455Y0062543D02*
X0069191Y0062543D01*
X0068717Y0064142D02*
X0055856Y0064142D01*
X0054258Y0065740D02*
X0068717Y0065740D01*
X0072666Y0068729D02*
X0072666Y0059674D01*
X0076616Y0060945D02*
X0123835Y0060945D01*
X0124309Y0062543D02*
X0076142Y0062543D01*
X0072666Y0052952D02*
X0072666Y0052952D01*
X0072666Y0051354D02*
X0072666Y0051354D01*
X0070243Y0049755D02*
X0081229Y0049755D01*
X0079396Y0048157D02*
X0071842Y0048157D01*
X0073440Y0046558D02*
X0077798Y0046558D01*
X0069386Y0051354D02*
X0068645Y0051354D01*
X0089586Y0027376D02*
X0110842Y0027376D01*
X0110843Y0028975D02*
X0112442Y0028975D01*
X0112443Y0027600D02*
X0116142Y0027600D01*
X0116142Y0026000D01*
X0112443Y0026000D01*
X0112443Y0027600D01*
X0112443Y0027376D02*
X0116142Y0027376D01*
X0117576Y0028867D02*
X0118520Y0028867D01*
X0118520Y0028867D01*
X0117576Y0028867D01*
X0117576Y0028867D01*
X0118729Y0032554D02*
X0118729Y0033324D01*
X0118729Y0032555D01*
X0118729Y0032554D01*
X0112442Y0032172D02*
X0110843Y0032172D01*
X0110843Y0030573D02*
X0112442Y0030573D01*
X0117576Y0024179D02*
X0130118Y0024179D01*
X0130130Y0022581D02*
X0117564Y0022581D01*
X0118729Y0025179D02*
X0118729Y0025179D01*
X0112655Y0020982D02*
X0135039Y0020982D01*
X0135039Y0019384D02*
X0112655Y0019384D01*
X0105709Y0024179D02*
X0090453Y0024179D01*
X0090453Y0022581D02*
X0103303Y0022581D01*
X0105709Y0025778D02*
X0090453Y0025778D01*
X0094184Y0028975D02*
X0105709Y0028975D01*
X0105709Y0030573D02*
X0095783Y0030573D01*
X0132289Y0033770D02*
X0142535Y0033770D01*
X0142757Y0032172D02*
X0141297Y0032172D01*
X0141986Y0030573D02*
X0143704Y0030573D01*
X0143704Y0028975D02*
X0141986Y0028975D01*
X0148466Y0035369D02*
X0152169Y0035369D01*
X0151235Y0033770D02*
X0153767Y0033770D01*
X0151235Y0032172D02*
X0157145Y0032172D01*
X0159521Y0028975D02*
X0151235Y0028975D01*
X0151235Y0030573D02*
X0161561Y0030573D01*
X0161416Y0032172D02*
X0163207Y0032172D01*
X0164793Y0033770D02*
X0164805Y0033770D01*
X0166392Y0035369D02*
X0166404Y0035369D01*
X0167422Y0036967D02*
X0168002Y0036967D01*
X0168085Y0038566D02*
X0169601Y0038566D01*
X0168411Y0040164D02*
X0170876Y0040164D01*
X0172128Y0041763D02*
X0168411Y0041763D01*
X0168256Y0043361D02*
X0173381Y0043361D01*
X0174633Y0044960D02*
X0167594Y0044960D01*
X0166805Y0046558D02*
X0175885Y0046558D01*
X0177019Y0048157D02*
X0165206Y0048157D01*
X0162413Y0049755D02*
X0177986Y0049755D01*
X0151756Y0046558D02*
X0148466Y0046558D01*
X0148466Y0044960D02*
X0150967Y0044960D01*
X0150305Y0043361D02*
X0148466Y0043361D01*
X0148466Y0041763D02*
X0150150Y0041763D01*
X0150150Y0040164D02*
X0148466Y0040164D01*
X0148466Y0038566D02*
X0150476Y0038566D01*
X0151138Y0036967D02*
X0148466Y0036967D01*
X0088205Y0097711D02*
X0082324Y0097711D01*
X0082324Y0099309D02*
X0088205Y0099309D01*
X0088032Y0100908D02*
X0082324Y0100908D01*
X0082324Y0096112D02*
X0083468Y0096112D01*
X0083468Y0094514D02*
X0082324Y0094514D01*
X0082324Y0092915D02*
X0083468Y0092915D01*
X0083472Y0091317D02*
X0082324Y0091317D01*
X0082192Y0089718D02*
X0081496Y0089718D01*
X0081512Y0088120D02*
X0069316Y0088120D01*
X0070914Y0089718D02*
X0073285Y0089718D01*
X0067717Y0086521D02*
X0081512Y0086521D01*
X0081512Y0084923D02*
X0062915Y0084923D01*
X0082324Y0108900D02*
X0085180Y0108900D01*
X0084649Y0110499D02*
X0082143Y0110499D01*
X0082143Y0111249D02*
X0077391Y0111249D01*
X0082143Y0111249D01*
X0077391Y0111249D02*
X0077391Y0111249D01*
X0091648Y0108900D02*
X0096991Y0108900D01*
X0096460Y0110499D02*
X0092180Y0110499D01*
X0092180Y0112097D02*
X0096460Y0112097D01*
X0094929Y0113696D02*
X0092180Y0113696D01*
X0081906Y0126484D02*
X0081493Y0126484D01*
X0087627Y0130934D02*
X0087627Y0135687D01*
X0087627Y0130934D01*
X0087627Y0130934D01*
X0087627Y0131279D02*
X0087627Y0131279D01*
X0087627Y0132878D02*
X0087627Y0132878D01*
X0087627Y0134476D02*
X0087627Y0134476D01*
X0087627Y0135687D02*
X0087049Y0135687D01*
X0087049Y0173963D01*
X0091432Y0178346D01*
X0095747Y0178346D01*
X0096907Y0179507D01*
X0096907Y0180034D01*
X0097375Y0179565D01*
X0097932Y0179161D01*
X0098546Y0178848D01*
X0099201Y0178635D01*
X0099881Y0178528D01*
X0100225Y0178528D01*
X0100225Y0182902D01*
X0100225Y0182902D01*
X0100225Y0178528D01*
X0100570Y0178528D01*
X0101250Y0178635D01*
X0101905Y0178848D01*
X0102518Y0179161D01*
X0103075Y0179565D01*
X0103562Y0180052D01*
X0103967Y0180609D01*
X0104050Y0180773D01*
X0104237Y0180322D01*
X0105518Y0179040D01*
X0105528Y0179036D01*
X0105528Y0170188D01*
X0098768Y0163429D01*
X0098045Y0162706D01*
X0097654Y0161760D01*
X0097654Y0135868D01*
X0093348Y0135868D01*
X0093348Y0143520D01*
X0094353Y0143520D01*
X0095513Y0144680D01*
X0095513Y0149471D01*
X0095011Y0149974D01*
X0095210Y0150318D01*
X0095332Y0150776D01*
X0095332Y0152587D01*
X0091564Y0152587D01*
X0091564Y0152587D01*
X0095332Y0152587D01*
X0095332Y0154399D01*
X0095210Y0154857D01*
X0094973Y0155267D01*
X0094637Y0155603D01*
X0094227Y0155840D01*
X0093769Y0155962D01*
X0091564Y0155962D01*
X0091564Y0152588D01*
X0091564Y0152588D01*
X0091564Y0155962D01*
X0089358Y0155962D01*
X0088900Y0155840D01*
X0088490Y0155603D01*
X0088155Y0155267D01*
X0087918Y0154857D01*
X0087795Y0154399D01*
X0087795Y0152587D01*
X0087795Y0150776D01*
X0087918Y0150318D01*
X0088117Y0149974D01*
X0087614Y0149471D01*
X0087614Y0144680D01*
X0088205Y0144090D01*
X0088205Y0135687D01*
X0087627Y0135687D01*
X0087049Y0136075D02*
X0088205Y0136075D01*
X0088205Y0137673D02*
X0087049Y0137673D01*
X0087049Y0139272D02*
X0088205Y0139272D01*
X0088205Y0140870D02*
X0087049Y0140870D01*
X0087049Y0142469D02*
X0088205Y0142469D01*
X0088205Y0144068D02*
X0087049Y0144068D01*
X0087049Y0145666D02*
X0087614Y0145666D01*
X0087614Y0147265D02*
X0087049Y0147265D01*
X0087049Y0148863D02*
X0087614Y0148863D01*
X0087879Y0150462D02*
X0087049Y0150462D01*
X0087049Y0152060D02*
X0087795Y0152060D01*
X0087795Y0152587D02*
X0091564Y0152587D01*
X0091564Y0152587D01*
X0087795Y0152587D01*
X0087795Y0153659D02*
X0087049Y0153659D01*
X0087049Y0155257D02*
X0088149Y0155257D01*
X0087049Y0156856D02*
X0097654Y0156856D01*
X0097654Y0158454D02*
X0087049Y0158454D01*
X0087049Y0160053D02*
X0097654Y0160053D01*
X0097654Y0161651D02*
X0087049Y0161651D01*
X0087049Y0163250D02*
X0098589Y0163250D01*
X0100188Y0164848D02*
X0087049Y0164848D01*
X0087049Y0166447D02*
X0101786Y0166447D01*
X0103385Y0168045D02*
X0087049Y0168045D01*
X0087049Y0169644D02*
X0104983Y0169644D01*
X0105528Y0171242D02*
X0087049Y0171242D01*
X0087049Y0172841D02*
X0105528Y0172841D01*
X0105528Y0174439D02*
X0087525Y0174439D01*
X0089123Y0176038D02*
X0105528Y0176038D01*
X0105528Y0177636D02*
X0090722Y0177636D01*
X0096635Y0179235D02*
X0097830Y0179235D01*
X0100225Y0179235D02*
X0100225Y0179235D01*
X0100225Y0180833D02*
X0100225Y0180833D01*
X0100225Y0182432D02*
X0100225Y0182432D01*
X0100225Y0182902D02*
X0100225Y0187277D01*
X0100225Y0182902D01*
X0100225Y0182902D01*
X0100225Y0184030D02*
X0100225Y0184030D01*
X0100225Y0185629D02*
X0100225Y0185629D01*
X0100225Y0187227D02*
X0100225Y0187227D01*
X0099566Y0187227D02*
X0095978Y0187227D01*
X0100884Y0187227D02*
X0106635Y0187227D01*
X0104383Y0185629D02*
X0103652Y0185629D01*
X0102620Y0179235D02*
X0105324Y0179235D01*
X0110436Y0168045D02*
X0156581Y0168045D01*
X0153534Y0166447D02*
X0109060Y0166447D01*
X0107461Y0164848D02*
X0151935Y0164848D01*
X0151041Y0163250D02*
X0105863Y0163250D01*
X0104264Y0161651D02*
X0150379Y0161651D01*
X0150150Y0160053D02*
X0102797Y0160053D01*
X0102797Y0158454D02*
X0108015Y0158454D01*
X0107693Y0156856D02*
X0102797Y0156856D01*
X0102797Y0155257D02*
X0107693Y0155257D01*
X0107693Y0153659D02*
X0102797Y0153659D01*
X0102797Y0152060D02*
X0108187Y0152060D01*
X0107896Y0150462D02*
X0102797Y0150462D01*
X0102797Y0148863D02*
X0107693Y0148863D01*
X0107458Y0147265D02*
X0102797Y0147265D01*
X0102797Y0145666D02*
X0107102Y0145666D01*
X0107102Y0144068D02*
X0102797Y0144068D01*
X0102797Y0142469D02*
X0107102Y0142469D01*
X0107102Y0140870D02*
X0102797Y0140870D01*
X0102797Y0139272D02*
X0107102Y0139272D01*
X0107102Y0137673D02*
X0102797Y0137673D01*
X0102797Y0136075D02*
X0107102Y0136075D01*
X0097654Y0136075D02*
X0093348Y0136075D01*
X0093348Y0137673D02*
X0097654Y0137673D01*
X0097654Y0139272D02*
X0093348Y0139272D01*
X0093348Y0140870D02*
X0097654Y0140870D01*
X0097654Y0142469D02*
X0093348Y0142469D01*
X0094901Y0144068D02*
X0097654Y0144068D01*
X0097654Y0145666D02*
X0095513Y0145666D01*
X0095513Y0147265D02*
X0097654Y0147265D01*
X0097654Y0148863D02*
X0095513Y0148863D01*
X0095248Y0150462D02*
X0097654Y0150462D01*
X0097654Y0152060D02*
X0095332Y0152060D01*
X0095332Y0153659D02*
X0097654Y0153659D01*
X0097654Y0155257D02*
X0094979Y0155257D01*
X0091564Y0155257D02*
X0091564Y0155257D01*
X0091564Y0153659D02*
X0091564Y0153659D01*
X0116761Y0153659D02*
X0116761Y0153659D01*
X0116761Y0155257D02*
X0116761Y0155257D01*
X0116761Y0156856D02*
X0116761Y0156856D01*
X0116761Y0158454D02*
X0116761Y0158454D01*
X0119739Y0158454D02*
X0150150Y0158454D01*
X0150402Y0156856D02*
X0120135Y0156856D01*
X0120135Y0155257D02*
X0151064Y0155257D01*
X0151989Y0153659D02*
X0120135Y0153659D01*
X0120099Y0152060D02*
X0119566Y0152060D01*
X0116761Y0152060D02*
X0116761Y0152060D01*
X0127595Y0152060D02*
X0153588Y0152060D01*
X0156711Y0150462D02*
X0127613Y0150462D01*
X0122051Y0190424D02*
X0078400Y0190424D01*
X0078011Y0190353D02*
X0078011Y0190353D01*
X0087122Y0192023D02*
X0113328Y0192023D01*
X0174614Y0137673D02*
X0184979Y0137673D01*
X0185698Y0136075D02*
X0175647Y0136075D01*
X0175647Y0134476D02*
X0186417Y0134476D01*
X0187100Y0132878D02*
X0175647Y0132878D01*
D29*
X0163217Y0100225D02*
X0157312Y0100225D01*
X0163217Y0100225D02*
X0167154Y0096288D01*
X0180146Y0083296D01*
X0180146Y0076603D01*
X0157312Y0079950D02*
X0157312Y0087863D01*
X0147469Y0080540D02*
X0147469Y0067351D01*
X0157312Y0057509D01*
X0153965Y0057509D01*
X0145501Y0049044D01*
X0145501Y0033296D01*
X0147469Y0031328D01*
X0116662Y0026800D02*
X0115973Y0026800D01*
X0111643Y0026800D01*
X0104162Y0037233D02*
X0094320Y0047076D01*
X0082509Y0047076D01*
X0078572Y0043139D01*
X0072666Y0043139D01*
X0021485Y0094320D01*
X0021485Y0096288D01*
X0043139Y0058887D02*
X0045107Y0058887D01*
X0060855Y0043139D01*
X0091564Y0152587D02*
X0092351Y0153375D01*
X0092351Y0159280D01*
D30*
X0092351Y0159280D03*
X0123847Y0149438D03*
X0100225Y0112036D03*
X0088414Y0112036D03*
X0087233Y0093926D03*
X0129753Y0100225D03*
X0147469Y0080540D03*
X0167154Y0080540D03*
X0167154Y0096288D03*
X0155343Y0106131D03*
X0119910Y0049044D03*
X0119910Y0041170D03*
X0132509Y0037627D03*
X0147469Y0031328D03*
X0104162Y0037233D03*
X0060855Y0043139D03*
X0043139Y0058887D03*
D31*
X0114005Y0035265D02*
X0117942Y0035265D01*
X0118729Y0034477D01*
X0118729Y0028867D01*
X0118040Y0028867D01*
X0115973Y0026800D01*
X0118729Y0028867D02*
X0118729Y0024635D01*
X0119910Y0023454D01*
D32*
X0128965Y0028867D02*
X0128965Y0034083D01*
X0132509Y0037627D01*
X0155343Y0056918D02*
X0157902Y0056918D01*
X0159280Y0055540D01*
X0157902Y0056918D02*
X0157312Y0057509D01*
X0157312Y0079950D02*
X0157902Y0080540D01*
X0167154Y0080540D01*
X0182902Y0096288D02*
X0186839Y0096288D01*
X0182902Y0096288D02*
X0171091Y0108099D01*
X0171091Y0124753D01*
X0166721Y0129123D01*
X0146524Y0129123D01*
X0142548Y0120698D02*
X0123060Y0120698D01*
X0123296Y0120461D01*
X0123060Y0117548D02*
X0136052Y0117548D01*
X0141564Y0112036D01*
X0149438Y0112036D01*
X0155343Y0106131D01*
X0156131Y0101406D02*
X0137627Y0101406D01*
X0137627Y0098257D01*
X0134871Y0095501D01*
X0123060Y0095501D01*
X0112824Y0095501D01*
X0104162Y0104162D01*
X0115973Y0115973D01*
X0115973Y0123847D01*
X0084477Y0123847D01*
X0081328Y0120698D01*
X0077391Y0120698D01*
X0077391Y0117548D02*
X0094713Y0117548D01*
X0100225Y0112036D01*
X0103375Y0104950D02*
X0104162Y0104162D01*
X0103375Y0104950D02*
X0077391Y0104950D01*
X0087627Y0104950D01*
X0090776Y0101800D01*
X0090776Y0085265D01*
X0087627Y0085265D02*
X0087627Y0093532D01*
X0087233Y0093926D01*
X0077391Y0092351D02*
X0069910Y0092351D01*
X0065816Y0088257D01*
X0057981Y0088257D01*
X0053099Y0093139D02*
X0064792Y0093139D01*
X0067154Y0095501D01*
X0077391Y0095501D01*
X0077391Y0098650D02*
X0058375Y0098650D01*
X0057981Y0098257D01*
X0063217Y0103375D02*
X0064792Y0104950D01*
X0077391Y0104950D01*
X0077391Y0108099D02*
X0066761Y0108099D01*
X0064792Y0110068D01*
X0064792Y0112036D01*
X0054950Y0121879D01*
X0053769Y0121879D01*
X0063217Y0103375D02*
X0042745Y0103375D01*
X0042351Y0102981D01*
X0042351Y0093887D01*
X0047981Y0088257D01*
X0053099Y0093139D02*
X0047981Y0098257D01*
X0077391Y0114398D02*
X0086052Y0114398D01*
X0088414Y0112036D01*
X0084477Y0123847D02*
X0084477Y0130934D01*
X0084477Y0175028D01*
X0092351Y0182902D01*
X0108099Y0182902D02*
X0108099Y0169123D01*
X0100225Y0161249D01*
X0100225Y0130934D01*
X0109674Y0130934D02*
X0109674Y0145894D01*
X0111249Y0147469D01*
X0111249Y0155343D01*
X0116761Y0147469D02*
X0121879Y0147469D01*
X0123847Y0149438D01*
X0115973Y0130934D02*
X0115973Y0123847D01*
X0123060Y0114398D02*
X0129753Y0114398D01*
X0130146Y0114398D01*
X0137627Y0106918D01*
X0129753Y0100225D02*
X0129753Y0114398D01*
X0142548Y0120698D02*
X0142784Y0120461D01*
X0156131Y0101406D02*
X0157312Y0100225D01*
X0157312Y0100776D01*
X0090776Y0130934D02*
X0090776Y0146288D01*
X0091564Y0147076D01*
M02*
