%
M48
M72
T01C0.01969
T02C0.03150
T03C0.03543
T04C0.03937
T05C0.05906
T06C0.08661
%
T01
X43139Y58887
X60855Y43139
X104162Y37233
X119910Y41170
X119910Y49044
X132509Y37627
X147469Y31328
X147469Y80540
X167154Y80540
X167154Y96288
X155343Y106131
X129753Y100225
X100225Y112036
X88414Y112036
X87233Y93926
X123847Y149438
X92351Y159280
T02
X92351Y182902
X100225Y182902
X108099Y182902
X171091Y134753
X171091Y124753
X186839Y104162
X186839Y96288
X21485Y96288
X21485Y104162
T03
X47981Y108257
X57981Y108257
X57981Y98257
X47981Y98257
X47981Y88257
X57981Y88257
T04
X67703Y24459
X85503Y24459
T05
X90403Y34259
X62803Y34259
T06
X41170Y41170
X159280Y41170
X159280Y159280
X41170Y159280
M30
