G75*
%MOIN*%
%OFA0B0*%
%FSLAX25Y25*%
%IPPOS*%
%LPD*%
%AMOC8*
5,1,8,0,0,1.08239X$1,22.5*
%
%ADD10C,0.00600*%
%ADD11C,0.00400*%
%ADD12C,0.00630*%
%ADD13C,0.00591*%
%ADD14C,0.00500*%
%ADD15C,0.00300*%
%ADD16C,0.00787*%
%ADD17C,0.01000*%
%ADD18C,0.00800*%
%ADD19C,0.00040*%
%ADD20C,0.00394*%
D10*
X0139148Y0015359D02*
X0163648Y0015359D01*
X0163648Y0014359D01*
X0158648Y0014359D01*
X0158648Y0012859D01*
X0148648Y0012859D01*
X0148648Y0014359D01*
X0158648Y0014359D01*
X0156148Y0016359D02*
X0167148Y0016359D01*
X0167148Y0021359D01*
X0167148Y0027359D02*
X0167148Y0029359D01*
X0164148Y0029359D01*
X0164148Y0030359D01*
X0160648Y0030359D01*
X0160648Y0029359D01*
X0156648Y0029359D01*
X0156648Y0028359D01*
X0150648Y0028359D01*
X0150648Y0029359D01*
X0146148Y0029359D01*
X0146148Y0030359D01*
X0143148Y0030359D01*
X0143148Y0029359D01*
X0140148Y0029359D01*
X0140148Y0027359D01*
X0139148Y0029359D02*
X0139148Y0015359D01*
X0140148Y0016359D02*
X0140148Y0021359D01*
X0140148Y0016359D02*
X0151148Y0016359D01*
X0156148Y0016359D01*
X0156148Y0020359D01*
X0151148Y0020359D01*
X0151148Y0016359D01*
X0148648Y0014359D02*
X0143648Y0014359D01*
X0143648Y0015359D01*
X0163648Y0015359D02*
X0168148Y0015359D01*
X0168148Y0029359D01*
X0176630Y0104377D02*
X0176630Y0107707D01*
X0179248Y0107707D01*
X0185115Y0107707D02*
X0187830Y0107707D01*
X0187830Y0104377D01*
X0194829Y0123847D02*
X0194832Y0124092D01*
X0194841Y0124338D01*
X0194856Y0124583D01*
X0194877Y0124827D01*
X0194904Y0125071D01*
X0194937Y0125314D01*
X0194976Y0125557D01*
X0195021Y0125798D01*
X0195072Y0126038D01*
X0195129Y0126277D01*
X0195191Y0126514D01*
X0195260Y0126750D01*
X0195334Y0126984D01*
X0195414Y0127216D01*
X0195499Y0127446D01*
X0195590Y0127674D01*
X0195687Y0127899D01*
X0195789Y0128123D01*
X0195897Y0128343D01*
X0196010Y0128561D01*
X0196128Y0128776D01*
X0196252Y0128988D01*
X0196380Y0129197D01*
X0196514Y0129403D01*
X0196653Y0129605D01*
X0196797Y0129804D01*
X0196946Y0129999D01*
X0197099Y0130191D01*
X0197257Y0130379D01*
X0197419Y0130563D01*
X0197587Y0130742D01*
X0197758Y0130918D01*
X0197934Y0131089D01*
X0198113Y0131257D01*
X0198297Y0131419D01*
X0198485Y0131577D01*
X0198677Y0131730D01*
X0198872Y0131879D01*
X0199071Y0132023D01*
X0199273Y0132162D01*
X0199479Y0132296D01*
X0199688Y0132424D01*
X0199900Y0132548D01*
X0200115Y0132666D01*
X0200333Y0132779D01*
X0200553Y0132887D01*
X0200777Y0132989D01*
X0201002Y0133086D01*
X0201230Y0133177D01*
X0201460Y0133262D01*
X0201692Y0133342D01*
X0201926Y0133416D01*
X0202162Y0133485D01*
X0202399Y0133547D01*
X0202638Y0133604D01*
X0202878Y0133655D01*
X0203119Y0133700D01*
X0203362Y0133739D01*
X0203605Y0133772D01*
X0203849Y0133799D01*
X0204093Y0133820D01*
X0204338Y0133835D01*
X0204584Y0133844D01*
X0204829Y0133847D01*
X0205074Y0133844D01*
X0205320Y0133835D01*
X0205565Y0133820D01*
X0205809Y0133799D01*
X0206053Y0133772D01*
X0206296Y0133739D01*
X0206539Y0133700D01*
X0206780Y0133655D01*
X0207020Y0133604D01*
X0207259Y0133547D01*
X0207496Y0133485D01*
X0207732Y0133416D01*
X0207966Y0133342D01*
X0208198Y0133262D01*
X0208428Y0133177D01*
X0208656Y0133086D01*
X0208881Y0132989D01*
X0209105Y0132887D01*
X0209325Y0132779D01*
X0209543Y0132666D01*
X0209758Y0132548D01*
X0209970Y0132424D01*
X0210179Y0132296D01*
X0210385Y0132162D01*
X0210587Y0132023D01*
X0210786Y0131879D01*
X0210981Y0131730D01*
X0211173Y0131577D01*
X0211361Y0131419D01*
X0211545Y0131257D01*
X0211724Y0131089D01*
X0211900Y0130918D01*
X0212071Y0130742D01*
X0212239Y0130563D01*
X0212401Y0130379D01*
X0212559Y0130191D01*
X0212712Y0129999D01*
X0212861Y0129804D01*
X0213005Y0129605D01*
X0213144Y0129403D01*
X0213278Y0129197D01*
X0213406Y0128988D01*
X0213530Y0128776D01*
X0213648Y0128561D01*
X0213761Y0128343D01*
X0213869Y0128123D01*
X0213971Y0127899D01*
X0214068Y0127674D01*
X0214159Y0127446D01*
X0214244Y0127216D01*
X0214324Y0126984D01*
X0214398Y0126750D01*
X0214467Y0126514D01*
X0214529Y0126277D01*
X0214586Y0126038D01*
X0214637Y0125798D01*
X0214682Y0125557D01*
X0214721Y0125314D01*
X0214754Y0125071D01*
X0214781Y0124827D01*
X0214802Y0124583D01*
X0214817Y0124338D01*
X0214826Y0124092D01*
X0214829Y0123847D01*
X0214826Y0123602D01*
X0214817Y0123356D01*
X0214802Y0123111D01*
X0214781Y0122867D01*
X0214754Y0122623D01*
X0214721Y0122380D01*
X0214682Y0122137D01*
X0214637Y0121896D01*
X0214586Y0121656D01*
X0214529Y0121417D01*
X0214467Y0121180D01*
X0214398Y0120944D01*
X0214324Y0120710D01*
X0214244Y0120478D01*
X0214159Y0120248D01*
X0214068Y0120020D01*
X0213971Y0119795D01*
X0213869Y0119571D01*
X0213761Y0119351D01*
X0213648Y0119133D01*
X0213530Y0118918D01*
X0213406Y0118706D01*
X0213278Y0118497D01*
X0213144Y0118291D01*
X0213005Y0118089D01*
X0212861Y0117890D01*
X0212712Y0117695D01*
X0212559Y0117503D01*
X0212401Y0117315D01*
X0212239Y0117131D01*
X0212071Y0116952D01*
X0211900Y0116776D01*
X0211724Y0116605D01*
X0211545Y0116437D01*
X0211361Y0116275D01*
X0211173Y0116117D01*
X0210981Y0115964D01*
X0210786Y0115815D01*
X0210587Y0115671D01*
X0210385Y0115532D01*
X0210179Y0115398D01*
X0209970Y0115270D01*
X0209758Y0115146D01*
X0209543Y0115028D01*
X0209325Y0114915D01*
X0209105Y0114807D01*
X0208881Y0114705D01*
X0208656Y0114608D01*
X0208428Y0114517D01*
X0208198Y0114432D01*
X0207966Y0114352D01*
X0207732Y0114278D01*
X0207496Y0114209D01*
X0207259Y0114147D01*
X0207020Y0114090D01*
X0206780Y0114039D01*
X0206539Y0113994D01*
X0206296Y0113955D01*
X0206053Y0113922D01*
X0205809Y0113895D01*
X0205565Y0113874D01*
X0205320Y0113859D01*
X0205074Y0113850D01*
X0204829Y0113847D01*
X0204584Y0113850D01*
X0204338Y0113859D01*
X0204093Y0113874D01*
X0203849Y0113895D01*
X0203605Y0113922D01*
X0203362Y0113955D01*
X0203119Y0113994D01*
X0202878Y0114039D01*
X0202638Y0114090D01*
X0202399Y0114147D01*
X0202162Y0114209D01*
X0201926Y0114278D01*
X0201692Y0114352D01*
X0201460Y0114432D01*
X0201230Y0114517D01*
X0201002Y0114608D01*
X0200777Y0114705D01*
X0200553Y0114807D01*
X0200333Y0114915D01*
X0200115Y0115028D01*
X0199900Y0115146D01*
X0199688Y0115270D01*
X0199479Y0115398D01*
X0199273Y0115532D01*
X0199071Y0115671D01*
X0198872Y0115815D01*
X0198677Y0115964D01*
X0198485Y0116117D01*
X0198297Y0116275D01*
X0198113Y0116437D01*
X0197934Y0116605D01*
X0197758Y0116776D01*
X0197587Y0116952D01*
X0197419Y0117131D01*
X0197257Y0117315D01*
X0197099Y0117503D01*
X0196946Y0117695D01*
X0196797Y0117890D01*
X0196653Y0118089D01*
X0196514Y0118291D01*
X0196380Y0118497D01*
X0196252Y0118706D01*
X0196128Y0118918D01*
X0196010Y0119133D01*
X0195897Y0119351D01*
X0195789Y0119571D01*
X0195687Y0119795D01*
X0195590Y0120020D01*
X0195499Y0120248D01*
X0195414Y0120478D01*
X0195334Y0120710D01*
X0195260Y0120944D01*
X0195191Y0121180D01*
X0195129Y0121417D01*
X0195072Y0121656D01*
X0195021Y0121896D01*
X0194976Y0122137D01*
X0194937Y0122380D01*
X0194904Y0122623D01*
X0194877Y0122867D01*
X0194856Y0123111D01*
X0194841Y0123356D01*
X0194832Y0123602D01*
X0194829Y0123847D01*
X0188884Y0158493D02*
X0179238Y0158493D01*
X0179238Y0160560D01*
X0188884Y0160560D01*
X0188884Y0164202D01*
X0186817Y0164202D01*
X0186817Y0174143D01*
X0159848Y0174143D01*
X0159848Y0164202D01*
X0157782Y0164202D01*
X0157782Y0176209D01*
X0188884Y0176209D01*
X0188884Y0164202D01*
X0188884Y0160560D02*
X0188884Y0158493D01*
X0179238Y0158493D02*
X0167427Y0158493D01*
X0167427Y0160560D01*
X0157782Y0160560D01*
X0157782Y0164202D01*
X0157782Y0160560D02*
X0157782Y0158493D01*
X0167427Y0158493D01*
X0132140Y0134431D02*
X0132140Y0128025D01*
X0130005Y0128025D02*
X0134275Y0128025D01*
X0130005Y0132296D02*
X0132140Y0134431D01*
X0127830Y0133363D02*
X0126762Y0134431D01*
X0124627Y0134431D01*
X0123560Y0133363D01*
X0123560Y0129093D01*
X0124627Y0128025D01*
X0126762Y0128025D01*
X0127830Y0129093D01*
X0121398Y0128025D02*
X0119263Y0128025D01*
X0120330Y0128025D02*
X0120330Y0134431D01*
X0119263Y0134431D02*
X0121398Y0134431D01*
D11*
X0038607Y0059420D02*
X0038607Y0057118D01*
X0043211Y0057118D01*
X0041676Y0057118D02*
X0041676Y0059420D01*
X0040909Y0060187D01*
X0039374Y0060187D01*
X0038607Y0059420D01*
X0040142Y0061722D02*
X0038607Y0063257D01*
X0043211Y0063257D01*
X0043211Y0064791D02*
X0043211Y0061722D01*
X0056324Y0063791D02*
X0057091Y0063024D01*
X0060160Y0063024D01*
X0060928Y0063791D01*
X0060928Y0065326D01*
X0060160Y0066093D01*
X0060928Y0067628D02*
X0056324Y0067628D01*
X0060928Y0070697D01*
X0056324Y0070697D01*
X0057858Y0072231D02*
X0056324Y0073766D01*
X0060928Y0073766D01*
X0060928Y0072231D02*
X0060928Y0075301D01*
X0066166Y0074007D02*
X0070770Y0074007D01*
X0070770Y0072473D02*
X0070770Y0075542D01*
X0067701Y0072473D02*
X0066166Y0074007D01*
X0057091Y0066093D02*
X0056324Y0065326D01*
X0056324Y0063791D01*
X0067701Y0098063D02*
X0066166Y0099598D01*
X0070770Y0099598D01*
X0070770Y0098063D02*
X0070770Y0101133D01*
X0088391Y0114067D02*
X0088391Y0115576D01*
X0089145Y0116330D01*
X0089899Y0117845D02*
X0088391Y0119353D01*
X0092916Y0119353D01*
X0092916Y0117845D02*
X0092916Y0120861D01*
X0092916Y0122376D02*
X0089899Y0125393D01*
X0089145Y0125393D01*
X0088391Y0124638D01*
X0088391Y0123130D01*
X0089145Y0122376D01*
X0092916Y0122376D02*
X0092916Y0125393D01*
X0087967Y0131429D02*
X0084950Y0131429D01*
X0087967Y0134446D01*
X0087967Y0135200D01*
X0087213Y0135954D01*
X0085704Y0135954D01*
X0084950Y0135200D01*
X0083435Y0135200D02*
X0083435Y0133692D01*
X0082681Y0132938D01*
X0080419Y0132938D01*
X0081927Y0132938D02*
X0083435Y0131429D01*
X0080419Y0131429D02*
X0080419Y0135954D01*
X0082681Y0135954D01*
X0083435Y0135200D01*
X0083861Y0137690D02*
X0083861Y0139199D01*
X0083861Y0138445D02*
X0079336Y0138445D01*
X0079336Y0139199D02*
X0079336Y0137690D01*
X0080090Y0140711D02*
X0079336Y0141466D01*
X0079336Y0142974D01*
X0080090Y0143728D01*
X0080090Y0145243D02*
X0079336Y0145997D01*
X0079336Y0147505D01*
X0080090Y0148259D01*
X0080844Y0148259D01*
X0081599Y0147505D01*
X0082353Y0148259D01*
X0083107Y0148259D01*
X0083861Y0147505D01*
X0083861Y0145997D01*
X0083107Y0145243D01*
X0083107Y0143728D02*
X0083861Y0142974D01*
X0083861Y0141466D01*
X0083107Y0140711D01*
X0080090Y0140711D01*
X0081599Y0146751D02*
X0081599Y0147505D01*
X0102131Y0150939D02*
X0106735Y0150939D01*
X0106735Y0154009D01*
X0106735Y0155543D02*
X0106735Y0158613D01*
X0106735Y0157078D02*
X0102131Y0157078D01*
X0103666Y0155543D01*
X0117919Y0146292D02*
X0118673Y0147046D01*
X0119427Y0147046D01*
X0120181Y0146292D01*
X0120935Y0147046D01*
X0121690Y0147046D01*
X0122444Y0146292D01*
X0122444Y0144784D01*
X0121690Y0144029D01*
X0122444Y0142515D02*
X0122444Y0139498D01*
X0122444Y0141006D02*
X0117919Y0141006D01*
X0119427Y0139498D01*
X0118673Y0137983D02*
X0117919Y0137229D01*
X0117919Y0135721D01*
X0118673Y0134967D01*
X0121690Y0134967D01*
X0122444Y0135721D01*
X0122444Y0137229D01*
X0121690Y0137983D01*
X0118673Y0144029D02*
X0117919Y0144784D01*
X0117919Y0146292D01*
X0120181Y0146292D02*
X0120181Y0145538D01*
X0129334Y0135954D02*
X0131597Y0135954D01*
X0132351Y0135200D01*
X0132351Y0133692D01*
X0131597Y0132938D01*
X0129334Y0132938D01*
X0130842Y0132938D02*
X0132351Y0131429D01*
X0133865Y0131429D02*
X0136882Y0131429D01*
X0135374Y0131429D02*
X0135374Y0135954D01*
X0133865Y0134446D01*
X0138397Y0135200D02*
X0138397Y0132183D01*
X0141414Y0135200D01*
X0141414Y0132183D01*
X0140659Y0131429D01*
X0139151Y0131429D01*
X0138397Y0132183D01*
X0141145Y0131429D02*
X0141145Y0135954D01*
X0143408Y0135954D01*
X0144162Y0135200D01*
X0144162Y0133692D01*
X0143408Y0132938D01*
X0141145Y0132938D01*
X0142653Y0132938D02*
X0144162Y0131429D01*
X0145676Y0131429D02*
X0148693Y0131429D01*
X0147185Y0131429D02*
X0147185Y0135954D01*
X0145676Y0134446D01*
X0141414Y0135200D02*
X0140659Y0135954D01*
X0139151Y0135954D01*
X0138397Y0135200D01*
X0129334Y0135954D02*
X0129334Y0131429D01*
X0150208Y0131429D02*
X0153225Y0131429D01*
X0151716Y0131429D02*
X0151716Y0135954D01*
X0150208Y0134446D01*
X0173223Y0117647D02*
X0176292Y0113043D01*
X0176292Y0117647D01*
X0177826Y0116880D02*
X0177826Y0113811D01*
X0178594Y0113043D01*
X0180128Y0113043D01*
X0180896Y0113811D01*
X0182430Y0113043D02*
X0182430Y0117647D01*
X0180896Y0116880D02*
X0180128Y0117647D01*
X0178594Y0117647D01*
X0177826Y0116880D01*
X0173223Y0117647D02*
X0173223Y0113043D01*
X0182430Y0115345D02*
X0185500Y0115345D01*
X0187034Y0116880D02*
X0187802Y0117647D01*
X0189336Y0117647D01*
X0190104Y0116880D01*
X0190104Y0116113D01*
X0187034Y0113043D01*
X0190104Y0113043D01*
X0185500Y0113043D02*
X0185500Y0117647D01*
X0148843Y0097880D02*
X0148843Y0097213D01*
X0148510Y0096879D01*
X0147509Y0096879D01*
X0146129Y0097194D02*
X0146131Y0097282D01*
X0146137Y0097370D01*
X0146147Y0097458D01*
X0146161Y0097545D01*
X0146178Y0097632D01*
X0146200Y0097718D01*
X0146225Y0097802D01*
X0146254Y0097886D01*
X0146287Y0097967D01*
X0146324Y0098048D01*
X0146364Y0098127D01*
X0146408Y0098203D01*
X0146455Y0098278D01*
X0146505Y0098351D01*
X0146558Y0098421D01*
X0146615Y0098489D01*
X0146675Y0098554D01*
X0146737Y0098616D01*
X0146802Y0098676D01*
X0146870Y0098733D01*
X0146940Y0098786D01*
X0147013Y0098836D01*
X0147088Y0098883D01*
X0147164Y0098927D01*
X0147243Y0098967D01*
X0147324Y0099004D01*
X0147405Y0099037D01*
X0147489Y0099066D01*
X0147573Y0099091D01*
X0147659Y0099113D01*
X0147746Y0099130D01*
X0147833Y0099144D01*
X0147921Y0099154D01*
X0148009Y0099160D01*
X0148097Y0099162D01*
X0148185Y0099160D01*
X0148273Y0099154D01*
X0148361Y0099144D01*
X0148448Y0099130D01*
X0148535Y0099113D01*
X0148621Y0099091D01*
X0148705Y0099066D01*
X0148789Y0099037D01*
X0148870Y0099004D01*
X0148951Y0098967D01*
X0149030Y0098927D01*
X0149106Y0098883D01*
X0149181Y0098836D01*
X0149254Y0098786D01*
X0149324Y0098733D01*
X0149392Y0098676D01*
X0149457Y0098616D01*
X0149519Y0098554D01*
X0149579Y0098489D01*
X0149636Y0098421D01*
X0149689Y0098351D01*
X0149739Y0098278D01*
X0149786Y0098203D01*
X0149830Y0098127D01*
X0149870Y0098048D01*
X0149907Y0097967D01*
X0149940Y0097886D01*
X0149969Y0097802D01*
X0149994Y0097718D01*
X0150016Y0097632D01*
X0150033Y0097545D01*
X0150047Y0097458D01*
X0150057Y0097370D01*
X0150063Y0097282D01*
X0150065Y0097194D01*
X0150063Y0097106D01*
X0150057Y0097018D01*
X0150047Y0096930D01*
X0150033Y0096843D01*
X0150016Y0096756D01*
X0149994Y0096670D01*
X0149969Y0096586D01*
X0149940Y0096502D01*
X0149907Y0096421D01*
X0149870Y0096340D01*
X0149830Y0096261D01*
X0149786Y0096185D01*
X0149739Y0096110D01*
X0149689Y0096037D01*
X0149636Y0095967D01*
X0149579Y0095899D01*
X0149519Y0095834D01*
X0149457Y0095772D01*
X0149392Y0095712D01*
X0149324Y0095655D01*
X0149254Y0095602D01*
X0149181Y0095552D01*
X0149106Y0095505D01*
X0149030Y0095461D01*
X0148951Y0095421D01*
X0148870Y0095384D01*
X0148789Y0095351D01*
X0148705Y0095322D01*
X0148621Y0095297D01*
X0148535Y0095275D01*
X0148448Y0095258D01*
X0148361Y0095244D01*
X0148273Y0095234D01*
X0148185Y0095228D01*
X0148097Y0095226D01*
X0148009Y0095228D01*
X0147921Y0095234D01*
X0147833Y0095244D01*
X0147746Y0095258D01*
X0147659Y0095275D01*
X0147573Y0095297D01*
X0147489Y0095322D01*
X0147405Y0095351D01*
X0147324Y0095384D01*
X0147243Y0095421D01*
X0147164Y0095461D01*
X0147088Y0095505D01*
X0147013Y0095552D01*
X0146940Y0095602D01*
X0146870Y0095655D01*
X0146802Y0095712D01*
X0146737Y0095772D01*
X0146675Y0095834D01*
X0146615Y0095899D01*
X0146558Y0095967D01*
X0146505Y0096037D01*
X0146455Y0096110D01*
X0146408Y0096185D01*
X0146364Y0096261D01*
X0146324Y0096340D01*
X0146287Y0096421D01*
X0146254Y0096502D01*
X0146225Y0096586D01*
X0146200Y0096670D01*
X0146178Y0096756D01*
X0146161Y0096843D01*
X0146147Y0096930D01*
X0146137Y0097018D01*
X0146131Y0097106D01*
X0146129Y0097194D01*
X0147509Y0096212D02*
X0147509Y0098214D01*
X0148510Y0098214D01*
X0148843Y0097880D01*
X0148176Y0096879D02*
X0148843Y0096212D01*
X0143343Y0066338D02*
X0140326Y0066338D01*
X0143343Y0063321D01*
X0144097Y0064075D01*
X0144097Y0065583D01*
X0143343Y0066338D01*
X0140326Y0066338D02*
X0139572Y0065583D01*
X0139572Y0064075D01*
X0140326Y0063321D01*
X0143343Y0063321D01*
X0144097Y0061806D02*
X0144097Y0058789D01*
X0144097Y0060298D02*
X0139572Y0060298D01*
X0141081Y0058789D01*
X0140326Y0057275D02*
X0139572Y0056521D01*
X0139572Y0055012D01*
X0140326Y0054258D01*
X0143343Y0054258D01*
X0144097Y0055012D01*
X0144097Y0056521D01*
X0143343Y0057275D01*
X0134000Y0045403D02*
X0134000Y0040878D01*
X0135508Y0040878D02*
X0132491Y0040878D01*
X0130977Y0040878D02*
X0127960Y0040878D01*
X0129468Y0040878D02*
X0129468Y0045403D01*
X0127960Y0043895D01*
X0126445Y0044649D02*
X0125691Y0045403D01*
X0124183Y0045403D01*
X0123429Y0044649D01*
X0123429Y0041632D01*
X0124183Y0040878D01*
X0125691Y0040878D01*
X0126445Y0041632D01*
X0121802Y0037352D02*
X0119500Y0035050D01*
X0122569Y0035050D01*
X0121802Y0032748D02*
X0121802Y0037352D01*
X0117965Y0037352D02*
X0117965Y0032748D01*
X0114896Y0037352D01*
X0114896Y0032748D01*
X0113361Y0033515D02*
X0112594Y0032748D01*
X0111059Y0032748D01*
X0110292Y0033515D01*
X0110292Y0036585D01*
X0111059Y0037352D01*
X0112594Y0037352D01*
X0113361Y0036585D01*
X0108664Y0044415D02*
X0104139Y0044415D01*
X0104139Y0046678D01*
X0104893Y0047432D01*
X0106402Y0047432D01*
X0107156Y0046678D01*
X0107156Y0044415D01*
X0107156Y0045924D02*
X0108664Y0047432D01*
X0108664Y0048947D02*
X0108664Y0051964D01*
X0108664Y0050455D02*
X0104139Y0050455D01*
X0105647Y0048947D01*
X0104893Y0053478D02*
X0104139Y0054232D01*
X0104139Y0055741D01*
X0104893Y0056495D01*
X0105647Y0056495D01*
X0106402Y0055741D01*
X0107156Y0056495D01*
X0107910Y0056495D01*
X0108664Y0055741D01*
X0108664Y0054232D01*
X0107910Y0053478D01*
X0106402Y0054987D02*
X0106402Y0055741D01*
X0100790Y0055741D02*
X0096265Y0055741D01*
X0098528Y0053478D01*
X0098528Y0056495D01*
X0100790Y0051964D02*
X0100790Y0048947D01*
X0100790Y0050455D02*
X0096265Y0050455D01*
X0097773Y0048947D01*
X0097019Y0047432D02*
X0098528Y0047432D01*
X0099282Y0046678D01*
X0099282Y0044415D01*
X0100790Y0044415D02*
X0096265Y0044415D01*
X0096265Y0046678D01*
X0097019Y0047432D01*
X0099282Y0045924D02*
X0100790Y0047432D01*
X0132491Y0043895D02*
X0134000Y0045403D01*
X0188213Y0055150D02*
X0188213Y0057452D01*
X0188981Y0058219D01*
X0190515Y0058219D01*
X0191283Y0057452D01*
X0191283Y0055150D01*
X0192817Y0055150D02*
X0188213Y0055150D01*
X0188981Y0059754D02*
X0188213Y0060521D01*
X0188213Y0062055D01*
X0188981Y0062823D01*
X0189748Y0062823D01*
X0192817Y0059754D01*
X0192817Y0062823D01*
X0215773Y0072039D02*
X0220376Y0072039D01*
X0220376Y0070504D02*
X0220376Y0073574D01*
X0217307Y0070504D02*
X0215773Y0072039D01*
X0092916Y0114067D02*
X0092916Y0115576D01*
X0092162Y0116330D01*
X0092916Y0114067D02*
X0092162Y0113313D01*
X0089145Y0113313D01*
X0088391Y0114067D01*
X0064345Y0123555D02*
X0061328Y0123555D01*
X0062836Y0123555D02*
X0062836Y0128080D01*
X0061328Y0126572D01*
X0059813Y0127326D02*
X0059059Y0128080D01*
X0057551Y0128080D01*
X0056797Y0127326D01*
X0056797Y0124309D01*
X0057551Y0123555D01*
X0059059Y0123555D01*
X0059813Y0124309D01*
X0104041Y0184579D02*
X0106303Y0184579D01*
X0107057Y0185333D01*
X0107057Y0188350D01*
X0106303Y0189104D01*
X0104041Y0189104D01*
X0104041Y0184579D01*
X0108572Y0184579D02*
X0111589Y0184579D01*
X0110080Y0184579D02*
X0110080Y0189104D01*
X0108572Y0187595D01*
D12*
X0181443Y0102507D02*
X0183018Y0102507D01*
X0138293Y0061446D02*
X0138293Y0060265D01*
X0133372Y0055934D02*
X0130616Y0055934D01*
X0125695Y0060265D02*
X0125695Y0061446D01*
X0130616Y0065776D02*
X0133372Y0065776D01*
D13*
X0176325Y0098020D02*
X0176325Y0112194D01*
X0188136Y0112194D01*
X0188136Y0098020D01*
X0176325Y0098020D01*
D14*
X0195871Y0106597D02*
X0198873Y0106597D01*
X0200475Y0106597D02*
X0203477Y0106597D01*
X0205079Y0106597D02*
X0207331Y0106597D01*
X0208081Y0107348D01*
X0208081Y0110350D01*
X0207331Y0111101D01*
X0205079Y0111101D01*
X0205079Y0106597D01*
X0201976Y0108849D02*
X0200475Y0108849D01*
X0200475Y0111101D02*
X0200475Y0106597D01*
X0200475Y0111101D02*
X0203477Y0111101D01*
X0209683Y0110350D02*
X0210433Y0111101D01*
X0211935Y0111101D01*
X0212685Y0110350D01*
X0212685Y0109600D01*
X0209683Y0106597D01*
X0212685Y0106597D01*
X0215852Y0109083D02*
X0215852Y0091367D01*
X0213490Y0078375D02*
X0207978Y0078375D01*
X0207978Y0076013D01*
X0211128Y0076013D01*
X0211128Y0068335D01*
X0213490Y0068335D01*
X0213490Y0078375D01*
X0207978Y0078375D02*
X0204435Y0078375D01*
X0204435Y0076013D01*
X0207978Y0076013D01*
X0204435Y0076013D02*
X0198136Y0076013D01*
X0198136Y0057509D01*
X0204435Y0057509D01*
X0204435Y0055146D01*
X0207978Y0055146D01*
X0207978Y0057509D01*
X0211128Y0057509D01*
X0211128Y0065186D01*
X0213490Y0065186D01*
X0213490Y0068335D01*
X0213490Y0065186D02*
X0213490Y0055146D01*
X0207978Y0055146D01*
X0207978Y0057509D02*
X0204435Y0057509D01*
X0204435Y0055146D02*
X0195774Y0055146D01*
X0195774Y0078375D01*
X0204435Y0078375D01*
X0229632Y0091367D02*
X0229632Y0109083D01*
X0195871Y0111101D02*
X0195871Y0106597D01*
X0152467Y0137233D02*
X0143018Y0137233D01*
X0143018Y0141957D01*
X0152467Y0141957D01*
X0152467Y0137233D01*
X0140656Y0137233D02*
X0131207Y0137233D01*
X0131207Y0141957D01*
X0140656Y0141957D01*
X0140656Y0137233D01*
X0128451Y0136839D02*
X0123726Y0136839D01*
X0123726Y0146288D01*
X0128451Y0146288D01*
X0128451Y0136839D01*
X0119002Y0140776D02*
X0119002Y0169910D01*
X0089868Y0169910D01*
X0089868Y0140776D01*
X0119002Y0140776D01*
X0089474Y0141957D02*
X0089474Y0137233D01*
X0080026Y0137233D01*
X0080026Y0141957D01*
X0089474Y0141957D01*
X0078451Y0137233D02*
X0063490Y0137233D01*
X0063490Y0149831D01*
X0078451Y0149831D01*
X0078451Y0137233D01*
X0065852Y0134083D02*
X0065852Y0129359D01*
X0056404Y0129359D01*
X0056404Y0134083D01*
X0065852Y0134083D01*
X0082388Y0124635D02*
X0087112Y0124635D01*
X0087112Y0115186D01*
X0082388Y0115186D01*
X0082388Y0124635D01*
X0063884Y0105934D02*
X0058372Y0105934D01*
X0058372Y0103572D01*
X0061522Y0103572D01*
X0061522Y0095894D01*
X0063884Y0095894D01*
X0063884Y0105934D01*
X0058372Y0105934D02*
X0054829Y0105934D01*
X0054829Y0103572D01*
X0058372Y0103572D01*
X0054829Y0103572D02*
X0048530Y0103572D01*
X0048530Y0085068D01*
X0054829Y0085068D01*
X0054829Y0082706D01*
X0058372Y0082706D01*
X0058372Y0085068D01*
X0061522Y0085068D01*
X0061522Y0092745D01*
X0063884Y0092745D01*
X0063884Y0095894D01*
X0063884Y0092745D02*
X0063884Y0082706D01*
X0058372Y0082706D01*
X0058372Y0085068D02*
X0054829Y0085068D01*
X0054829Y0082706D02*
X0046167Y0082706D01*
X0046167Y0105934D01*
X0054829Y0105934D01*
X0076719Y0101446D02*
X0096719Y0101446D01*
X0096719Y0071446D01*
X0076719Y0071446D01*
X0076719Y0101446D01*
X0063884Y0080343D02*
X0058372Y0080343D01*
X0058372Y0077981D01*
X0061522Y0077981D01*
X0061522Y0070304D01*
X0063884Y0070304D01*
X0063884Y0080343D01*
X0058372Y0080343D02*
X0054829Y0080343D01*
X0054829Y0077981D01*
X0058372Y0077981D01*
X0054829Y0077981D02*
X0048530Y0077981D01*
X0048530Y0059477D01*
X0054829Y0059477D01*
X0054829Y0057115D01*
X0058372Y0057115D01*
X0058372Y0059477D01*
X0061522Y0059477D01*
X0061522Y0067154D01*
X0063884Y0067154D01*
X0063884Y0070304D01*
X0063884Y0067154D02*
X0063884Y0057115D01*
X0058372Y0057115D01*
X0058372Y0059477D02*
X0054829Y0059477D01*
X0054829Y0057115D02*
X0046167Y0057115D01*
X0046167Y0080343D01*
X0054829Y0080343D01*
X0102073Y0055737D02*
X0102073Y0046288D01*
X0106797Y0046288D01*
X0106797Y0055737D01*
X0102073Y0055737D01*
X0109947Y0055737D02*
X0114671Y0055737D01*
X0114671Y0046288D01*
X0109947Y0046288D01*
X0109947Y0055737D01*
X0123726Y0054556D02*
X0123726Y0067154D01*
X0140262Y0067154D01*
X0140262Y0054556D01*
X0123726Y0054556D01*
X0125301Y0051406D02*
X0134750Y0051406D01*
X0134750Y0046682D01*
X0125301Y0046682D01*
X0125301Y0051406D01*
X0143898Y0043362D02*
X0143898Y0042612D01*
X0144648Y0041861D01*
X0146150Y0041861D01*
X0146900Y0041110D01*
X0146900Y0040360D01*
X0146150Y0039609D01*
X0144648Y0039609D01*
X0143898Y0040360D01*
X0143898Y0043362D02*
X0144648Y0044113D01*
X0146150Y0044113D01*
X0146900Y0043362D01*
X0148502Y0042612D02*
X0150003Y0044113D01*
X0150003Y0039609D01*
X0148502Y0039609D02*
X0151504Y0039609D01*
X0150104Y0056131D02*
X0145380Y0056131D01*
X0145380Y0065580D01*
X0150104Y0065580D01*
X0150104Y0056131D01*
X0114474Y0030737D02*
X0112309Y0030737D01*
X0121167Y0022863D02*
X0121167Y0021288D01*
X0100498Y0030737D02*
X0098333Y0030737D01*
X0091640Y0022863D02*
X0091640Y0021288D01*
X0071758Y0149044D02*
X0071756Y0148989D01*
X0071750Y0148934D01*
X0071741Y0148880D01*
X0071728Y0148827D01*
X0071711Y0148775D01*
X0071690Y0148724D01*
X0071666Y0148675D01*
X0071638Y0148627D01*
X0071608Y0148581D01*
X0071574Y0148538D01*
X0071537Y0148497D01*
X0071498Y0148459D01*
X0071456Y0148424D01*
X0071411Y0148392D01*
X0071365Y0148362D01*
X0071316Y0148337D01*
X0071266Y0148314D01*
X0071214Y0148296D01*
X0071161Y0148280D01*
X0071108Y0148269D01*
X0071053Y0148261D01*
X0070998Y0148257D01*
X0070944Y0148257D01*
X0070889Y0148261D01*
X0070834Y0148269D01*
X0070781Y0148280D01*
X0070728Y0148296D01*
X0070676Y0148314D01*
X0070626Y0148337D01*
X0070578Y0148362D01*
X0070531Y0148392D01*
X0070486Y0148424D01*
X0070444Y0148459D01*
X0070405Y0148497D01*
X0070368Y0148538D01*
X0070334Y0148581D01*
X0070304Y0148627D01*
X0070276Y0148675D01*
X0070252Y0148724D01*
X0070231Y0148775D01*
X0070214Y0148827D01*
X0070201Y0148880D01*
X0070192Y0148934D01*
X0070186Y0148989D01*
X0070184Y0149044D01*
X0099711Y0177784D02*
X0099711Y0184083D01*
X0117034Y0184083D01*
X0117034Y0177784D01*
X0099711Y0177784D01*
X0175519Y0154347D02*
X0175519Y0151344D01*
X0176270Y0150593D01*
X0177771Y0150593D01*
X0178522Y0151344D01*
X0180123Y0150593D02*
X0180123Y0155097D01*
X0183125Y0150593D01*
X0183125Y0155097D01*
X0184727Y0154347D02*
X0185477Y0155097D01*
X0186979Y0155097D01*
X0187729Y0154347D01*
X0187729Y0153596D01*
X0186979Y0152845D01*
X0187729Y0152095D01*
X0187729Y0151344D01*
X0186979Y0150593D01*
X0185477Y0150593D01*
X0184727Y0151344D01*
X0186228Y0152845D02*
X0186979Y0152845D01*
X0178522Y0154347D02*
X0177771Y0155097D01*
X0176270Y0155097D01*
X0175519Y0154347D01*
D15*
X0217393Y0104614D02*
X0216787Y0104008D01*
X0216787Y0102794D01*
X0217393Y0102188D01*
X0216787Y0100989D02*
X0220427Y0100989D01*
X0216787Y0098563D01*
X0220427Y0098563D01*
X0219820Y0097364D02*
X0220427Y0096758D01*
X0220427Y0095544D01*
X0219820Y0094937D01*
X0217393Y0094937D01*
X0216787Y0095544D01*
X0216787Y0096758D01*
X0217393Y0097364D01*
X0220427Y0102188D02*
X0218000Y0104614D01*
X0217393Y0104614D01*
X0220427Y0104614D02*
X0220427Y0102188D01*
X0142664Y0092062D02*
X0140729Y0092062D01*
X0142180Y0093513D01*
X0142180Y0090611D01*
X0139717Y0092062D02*
X0137782Y0092062D01*
X0139233Y0093513D01*
X0139233Y0090611D01*
X0133824Y0092062D02*
X0133340Y0091579D01*
X0131889Y0091579D01*
X0131889Y0090611D02*
X0131889Y0093513D01*
X0133340Y0093513D01*
X0133824Y0093030D01*
X0133824Y0092062D01*
X0130878Y0093513D02*
X0128943Y0093513D01*
X0128943Y0090611D01*
X0127931Y0090611D02*
X0126964Y0091579D01*
X0127931Y0091095D02*
X0127447Y0090611D01*
X0126480Y0090611D01*
X0125996Y0091095D01*
X0125996Y0093030D01*
X0126480Y0093513D01*
X0127447Y0093513D01*
X0127931Y0093030D01*
X0127931Y0091095D01*
X0128943Y0092062D02*
X0129910Y0092062D01*
X0124985Y0093513D02*
X0123050Y0093513D01*
X0124017Y0093513D02*
X0124017Y0090611D01*
D16*
X0072939Y0138020D02*
X0069002Y0138020D01*
X0074120Y0141957D02*
X0074120Y0145107D01*
X0072939Y0149044D02*
X0071758Y0149044D01*
X0070183Y0149044D01*
X0069002Y0149044D01*
D17*
X0112309Y0178178D02*
X0112309Y0183690D01*
X0117102Y0115973D02*
X0117104Y0116040D01*
X0117110Y0116106D01*
X0117120Y0116172D01*
X0117134Y0116237D01*
X0117151Y0116301D01*
X0117173Y0116364D01*
X0117198Y0116426D01*
X0117227Y0116486D01*
X0117260Y0116544D01*
X0117295Y0116600D01*
X0117335Y0116654D01*
X0117377Y0116705D01*
X0117422Y0116754D01*
X0117470Y0116800D01*
X0117521Y0116843D01*
X0117574Y0116883D01*
X0117630Y0116920D01*
X0117688Y0116953D01*
X0117747Y0116983D01*
X0117808Y0117009D01*
X0117871Y0117032D01*
X0117935Y0117050D01*
X0118000Y0117065D01*
X0118066Y0117076D01*
X0118132Y0117083D01*
X0118198Y0117086D01*
X0118265Y0117085D01*
X0118331Y0117080D01*
X0118397Y0117071D01*
X0118463Y0117058D01*
X0118527Y0117041D01*
X0118590Y0117021D01*
X0118652Y0116996D01*
X0118713Y0116968D01*
X0118772Y0116937D01*
X0118828Y0116902D01*
X0118883Y0116864D01*
X0118935Y0116822D01*
X0118984Y0116777D01*
X0119031Y0116730D01*
X0119075Y0116680D01*
X0119115Y0116627D01*
X0119153Y0116572D01*
X0119187Y0116515D01*
X0119218Y0116456D01*
X0119245Y0116395D01*
X0119268Y0116333D01*
X0119288Y0116269D01*
X0119304Y0116204D01*
X0119316Y0116139D01*
X0119324Y0116073D01*
X0119328Y0116006D01*
X0119328Y0115940D01*
X0119324Y0115873D01*
X0119316Y0115807D01*
X0119304Y0115742D01*
X0119288Y0115677D01*
X0119268Y0115613D01*
X0119245Y0115551D01*
X0119218Y0115490D01*
X0119187Y0115431D01*
X0119153Y0115374D01*
X0119115Y0115319D01*
X0119075Y0115266D01*
X0119031Y0115216D01*
X0118984Y0115169D01*
X0118935Y0115124D01*
X0118883Y0115082D01*
X0118828Y0115044D01*
X0118771Y0115009D01*
X0118713Y0114978D01*
X0118652Y0114950D01*
X0118590Y0114925D01*
X0118527Y0114905D01*
X0118463Y0114888D01*
X0118397Y0114875D01*
X0118331Y0114866D01*
X0118265Y0114861D01*
X0118198Y0114860D01*
X0118132Y0114863D01*
X0118066Y0114870D01*
X0118000Y0114881D01*
X0117935Y0114896D01*
X0117871Y0114914D01*
X0117808Y0114937D01*
X0117747Y0114963D01*
X0117688Y0114993D01*
X0117630Y0115026D01*
X0117574Y0115063D01*
X0117521Y0115103D01*
X0117470Y0115146D01*
X0117422Y0115192D01*
X0117377Y0115241D01*
X0117335Y0115292D01*
X0117295Y0115346D01*
X0117260Y0115402D01*
X0117227Y0115460D01*
X0117198Y0115520D01*
X0117173Y0115582D01*
X0117151Y0115645D01*
X0117134Y0115709D01*
X0117120Y0115774D01*
X0117110Y0115840D01*
X0117104Y0115906D01*
X0117102Y0115973D01*
X0197329Y0113847D02*
X0197086Y0114034D01*
X0196848Y0114226D01*
X0196615Y0114425D01*
X0196387Y0114629D01*
X0196164Y0114838D01*
X0195946Y0115053D01*
X0195733Y0115273D01*
X0195526Y0115498D01*
X0195324Y0115729D01*
X0195128Y0115964D01*
X0194938Y0116204D01*
X0194754Y0116448D01*
X0194576Y0116697D01*
X0194404Y0116951D01*
X0194238Y0117208D01*
X0194078Y0117469D01*
X0193925Y0117734D01*
X0193779Y0118003D01*
X0193639Y0118276D01*
X0193506Y0118551D01*
X0193380Y0118830D01*
X0193260Y0119112D01*
X0193148Y0119397D01*
X0193043Y0119684D01*
X0192944Y0119974D01*
X0192853Y0120266D01*
X0192769Y0120561D01*
X0192692Y0120857D01*
X0192622Y0121155D01*
X0192560Y0121455D01*
X0192505Y0121756D01*
X0192458Y0122058D01*
X0192418Y0122362D01*
X0192385Y0122666D01*
X0192360Y0122971D01*
X0192342Y0123277D01*
X0192332Y0123583D01*
X0192329Y0123889D01*
X0192334Y0124195D01*
X0192346Y0124501D01*
X0192366Y0124807D01*
X0192393Y0125111D01*
X0192428Y0125416D01*
X0192470Y0125719D01*
X0192519Y0126021D01*
X0192576Y0126322D01*
X0192641Y0126621D01*
X0192712Y0126919D01*
X0192791Y0127214D01*
X0192877Y0127508D01*
X0192970Y0127800D01*
X0193071Y0128089D01*
X0193178Y0128376D01*
X0193293Y0128660D01*
X0193414Y0128941D01*
X0193542Y0129219D01*
X0193677Y0129494D01*
X0193819Y0129765D01*
X0193967Y0130033D01*
X0194122Y0130297D01*
X0194283Y0130557D01*
X0194450Y0130813D01*
X0194624Y0131066D01*
X0194804Y0131313D01*
X0194990Y0131557D01*
X0195181Y0131795D01*
X0195379Y0132029D01*
X0195582Y0132258D01*
X0195791Y0132482D01*
X0196005Y0132701D01*
X0196225Y0132914D01*
X0196449Y0133122D01*
X0196679Y0133325D01*
X0196913Y0133521D01*
X0197153Y0133712D01*
X0197396Y0133897D01*
X0197645Y0134076D01*
X0197897Y0134249D01*
X0198154Y0134416D01*
X0198415Y0134576D01*
X0198680Y0134730D01*
X0198948Y0134877D01*
X0199220Y0135018D01*
X0199495Y0135152D01*
X0199774Y0135279D01*
X0200055Y0135400D01*
X0200340Y0135513D01*
X0200627Y0135619D01*
X0200916Y0135719D01*
X0201208Y0135811D01*
X0201502Y0135896D01*
X0201798Y0135974D01*
X0202096Y0136045D01*
X0202396Y0136108D01*
X0202697Y0136164D01*
X0202999Y0136212D01*
X0203302Y0136253D01*
X0203606Y0136287D01*
X0203911Y0136313D01*
X0204217Y0136332D01*
X0204523Y0136343D01*
X0204829Y0136347D01*
X0205135Y0136343D01*
X0205441Y0136332D01*
X0205747Y0136313D01*
X0206052Y0136287D01*
X0206356Y0136253D01*
X0206659Y0136212D01*
X0206961Y0136164D01*
X0207262Y0136108D01*
X0207562Y0136045D01*
X0207860Y0135974D01*
X0208156Y0135896D01*
X0208450Y0135811D01*
X0208742Y0135719D01*
X0209031Y0135619D01*
X0209318Y0135513D01*
X0209603Y0135400D01*
X0209884Y0135279D01*
X0210163Y0135152D01*
X0210438Y0135018D01*
X0210710Y0134877D01*
X0210978Y0134730D01*
X0211243Y0134576D01*
X0211504Y0134416D01*
X0211761Y0134249D01*
X0212013Y0134076D01*
X0212262Y0133897D01*
X0212505Y0133712D01*
X0212745Y0133521D01*
X0212979Y0133325D01*
X0213209Y0133122D01*
X0213433Y0132914D01*
X0213653Y0132701D01*
X0213867Y0132482D01*
X0214076Y0132258D01*
X0214279Y0132029D01*
X0214477Y0131795D01*
X0214668Y0131557D01*
X0214854Y0131313D01*
X0215034Y0131066D01*
X0215208Y0130813D01*
X0215375Y0130557D01*
X0215536Y0130297D01*
X0215691Y0130033D01*
X0215839Y0129765D01*
X0215981Y0129494D01*
X0216116Y0129219D01*
X0216244Y0128941D01*
X0216365Y0128660D01*
X0216480Y0128376D01*
X0216587Y0128089D01*
X0216688Y0127800D01*
X0216781Y0127508D01*
X0216867Y0127214D01*
X0216946Y0126919D01*
X0217017Y0126621D01*
X0217082Y0126322D01*
X0217139Y0126021D01*
X0217188Y0125719D01*
X0217230Y0125416D01*
X0217265Y0125111D01*
X0217292Y0124807D01*
X0217312Y0124501D01*
X0217324Y0124195D01*
X0217329Y0123889D01*
X0217326Y0123583D01*
X0217316Y0123277D01*
X0217298Y0122971D01*
X0217273Y0122666D01*
X0217240Y0122362D01*
X0217200Y0122058D01*
X0217153Y0121756D01*
X0217098Y0121455D01*
X0217036Y0121155D01*
X0216966Y0120857D01*
X0216889Y0120561D01*
X0216805Y0120266D01*
X0216714Y0119974D01*
X0216615Y0119684D01*
X0216510Y0119397D01*
X0216398Y0119112D01*
X0216278Y0118830D01*
X0216152Y0118551D01*
X0216019Y0118276D01*
X0215879Y0118003D01*
X0215733Y0117734D01*
X0215580Y0117469D01*
X0215420Y0117208D01*
X0215254Y0116951D01*
X0215082Y0116697D01*
X0214904Y0116448D01*
X0214720Y0116204D01*
X0214530Y0115964D01*
X0214334Y0115729D01*
X0214132Y0115498D01*
X0213925Y0115273D01*
X0213712Y0115053D01*
X0213494Y0114838D01*
X0213271Y0114629D01*
X0213043Y0114425D01*
X0212810Y0114226D01*
X0212572Y0114034D01*
X0212329Y0113847D01*
D18*
X0197329Y0113847D01*
X0152860Y0117548D02*
X0152860Y0082902D01*
X0151285Y0081328D01*
X0116640Y0081328D01*
X0115065Y0082902D01*
X0115065Y0117548D01*
X0116640Y0119123D01*
X0151285Y0119123D01*
X0152860Y0117548D01*
D19*
X0135677Y0103905D02*
X0135317Y0103905D01*
X0135318Y0103906D02*
X0135315Y0103980D01*
X0135308Y0104054D01*
X0135297Y0104127D01*
X0135282Y0104200D01*
X0135264Y0104272D01*
X0135241Y0104342D01*
X0135215Y0104412D01*
X0135185Y0104480D01*
X0135152Y0104546D01*
X0135115Y0104610D01*
X0135075Y0104673D01*
X0135032Y0104733D01*
X0134985Y0104791D01*
X0134935Y0104846D01*
X0134883Y0104898D01*
X0134828Y0104948D01*
X0134770Y0104994D01*
X0134710Y0105038D01*
X0134648Y0105078D01*
X0134583Y0105115D01*
X0134517Y0105148D01*
X0134449Y0105178D01*
X0134380Y0105204D01*
X0134309Y0105227D01*
X0134237Y0105245D01*
X0134165Y0105260D01*
X0134091Y0105271D01*
X0134017Y0105278D01*
X0133943Y0105281D01*
X0133943Y0105640D01*
X0133943Y0105641D01*
X0134026Y0105638D01*
X0134108Y0105631D01*
X0134189Y0105621D01*
X0134270Y0105606D01*
X0134351Y0105588D01*
X0134430Y0105566D01*
X0134508Y0105541D01*
X0134585Y0105511D01*
X0134661Y0105478D01*
X0134734Y0105442D01*
X0134807Y0105402D01*
X0134877Y0105359D01*
X0134945Y0105313D01*
X0135010Y0105263D01*
X0135074Y0105211D01*
X0135135Y0105156D01*
X0135193Y0105097D01*
X0135248Y0105037D01*
X0135301Y0104973D01*
X0135350Y0104907D01*
X0135397Y0104839D01*
X0135440Y0104769D01*
X0135479Y0104697D01*
X0135516Y0104623D01*
X0135548Y0104548D01*
X0135578Y0104471D01*
X0135603Y0104393D01*
X0135625Y0104313D01*
X0135643Y0104233D01*
X0135658Y0104152D01*
X0135668Y0104070D01*
X0135675Y0103988D01*
X0135678Y0103906D01*
X0135641Y0103906D01*
X0135638Y0103986D01*
X0135631Y0104067D01*
X0135621Y0104147D01*
X0135607Y0104226D01*
X0135589Y0104305D01*
X0135568Y0104382D01*
X0135543Y0104459D01*
X0135514Y0104534D01*
X0135482Y0104608D01*
X0135446Y0104680D01*
X0135408Y0104751D01*
X0135365Y0104819D01*
X0135320Y0104886D01*
X0135272Y0104950D01*
X0135220Y0105012D01*
X0135166Y0105072D01*
X0135109Y0105129D01*
X0135050Y0105183D01*
X0134988Y0105234D01*
X0134923Y0105283D01*
X0134857Y0105328D01*
X0134788Y0105370D01*
X0134717Y0105409D01*
X0134645Y0105445D01*
X0134571Y0105477D01*
X0134496Y0105506D01*
X0134420Y0105531D01*
X0134342Y0105552D01*
X0134263Y0105570D01*
X0134184Y0105584D01*
X0134104Y0105594D01*
X0134024Y0105601D01*
X0133943Y0105604D01*
X0133943Y0105567D01*
X0134025Y0105564D01*
X0134106Y0105557D01*
X0134186Y0105546D01*
X0134266Y0105532D01*
X0134345Y0105513D01*
X0134423Y0105491D01*
X0134500Y0105465D01*
X0134576Y0105435D01*
X0134650Y0105402D01*
X0134722Y0105365D01*
X0134793Y0105324D01*
X0134861Y0105281D01*
X0134928Y0105234D01*
X0134992Y0105184D01*
X0135053Y0105131D01*
X0135112Y0105074D01*
X0135168Y0105016D01*
X0135221Y0104954D01*
X0135271Y0104890D01*
X0135318Y0104824D01*
X0135362Y0104755D01*
X0135402Y0104685D01*
X0135439Y0104613D01*
X0135472Y0104538D01*
X0135502Y0104463D01*
X0135528Y0104386D01*
X0135550Y0104308D01*
X0135569Y0104229D01*
X0135583Y0104149D01*
X0135594Y0104068D01*
X0135601Y0103987D01*
X0135604Y0103906D01*
X0135567Y0103906D01*
X0135564Y0103985D01*
X0135557Y0104065D01*
X0135547Y0104143D01*
X0135532Y0104221D01*
X0135514Y0104299D01*
X0135493Y0104375D01*
X0135467Y0104450D01*
X0135438Y0104524D01*
X0135405Y0104597D01*
X0135369Y0104667D01*
X0135330Y0104736D01*
X0135287Y0104803D01*
X0135241Y0104868D01*
X0135192Y0104931D01*
X0135140Y0104991D01*
X0135086Y0105048D01*
X0135028Y0105103D01*
X0134968Y0105155D01*
X0134906Y0105204D01*
X0134841Y0105250D01*
X0134774Y0105293D01*
X0134705Y0105332D01*
X0134634Y0105368D01*
X0134562Y0105401D01*
X0134488Y0105430D01*
X0134412Y0105455D01*
X0134336Y0105477D01*
X0134259Y0105495D01*
X0134181Y0105510D01*
X0134102Y0105520D01*
X0134023Y0105527D01*
X0133943Y0105530D01*
X0133943Y0105493D01*
X0134023Y0105490D01*
X0134103Y0105483D01*
X0134183Y0105472D01*
X0134261Y0105457D01*
X0134339Y0105438D01*
X0134416Y0105415D01*
X0134492Y0105389D01*
X0134566Y0105359D01*
X0134638Y0105325D01*
X0134709Y0105287D01*
X0134778Y0105247D01*
X0134845Y0105202D01*
X0134909Y0105155D01*
X0134971Y0105104D01*
X0135031Y0105050D01*
X0135087Y0104993D01*
X0135141Y0104934D01*
X0135192Y0104872D01*
X0135239Y0104808D01*
X0135284Y0104741D01*
X0135325Y0104672D01*
X0135362Y0104601D01*
X0135396Y0104529D01*
X0135426Y0104454D01*
X0135453Y0104379D01*
X0135475Y0104302D01*
X0135494Y0104224D01*
X0135509Y0104145D01*
X0135520Y0104066D01*
X0135527Y0103986D01*
X0135530Y0103906D01*
X0135493Y0103906D01*
X0135490Y0103984D01*
X0135483Y0104062D01*
X0135472Y0104140D01*
X0135458Y0104217D01*
X0135439Y0104293D01*
X0135417Y0104368D01*
X0135391Y0104441D01*
X0135362Y0104514D01*
X0135329Y0104585D01*
X0135292Y0104654D01*
X0135252Y0104721D01*
X0135209Y0104786D01*
X0135163Y0104849D01*
X0135113Y0104910D01*
X0135061Y0104968D01*
X0135005Y0105023D01*
X0134947Y0105076D01*
X0134887Y0105125D01*
X0134824Y0105172D01*
X0134759Y0105215D01*
X0134691Y0105255D01*
X0134622Y0105292D01*
X0134551Y0105325D01*
X0134479Y0105354D01*
X0134405Y0105380D01*
X0134330Y0105402D01*
X0134254Y0105421D01*
X0134177Y0105435D01*
X0134100Y0105446D01*
X0134022Y0105453D01*
X0133943Y0105456D01*
X0133943Y0105419D01*
X0134020Y0105416D01*
X0134096Y0105409D01*
X0134171Y0105399D01*
X0134246Y0105384D01*
X0134321Y0105367D01*
X0134394Y0105345D01*
X0134466Y0105320D01*
X0134537Y0105291D01*
X0134606Y0105258D01*
X0134673Y0105223D01*
X0134739Y0105184D01*
X0134803Y0105142D01*
X0134864Y0105096D01*
X0134923Y0105048D01*
X0134980Y0104997D01*
X0135034Y0104943D01*
X0135085Y0104886D01*
X0135133Y0104827D01*
X0135179Y0104765D01*
X0135221Y0104702D01*
X0135260Y0104636D01*
X0135296Y0104569D01*
X0135328Y0104499D01*
X0135357Y0104429D01*
X0135382Y0104357D01*
X0135404Y0104283D01*
X0135422Y0104209D01*
X0135436Y0104134D01*
X0135446Y0104058D01*
X0135453Y0103982D01*
X0135456Y0103906D01*
X0135419Y0103906D01*
X0135416Y0103983D01*
X0135409Y0104060D01*
X0135398Y0104136D01*
X0135383Y0104211D01*
X0135365Y0104286D01*
X0135342Y0104360D01*
X0135316Y0104432D01*
X0135286Y0104503D01*
X0135252Y0104572D01*
X0135215Y0104640D01*
X0135175Y0104705D01*
X0135131Y0104768D01*
X0135084Y0104829D01*
X0135034Y0104888D01*
X0134981Y0104944D01*
X0134925Y0104997D01*
X0134867Y0105047D01*
X0134806Y0105094D01*
X0134742Y0105138D01*
X0134677Y0105178D01*
X0134610Y0105215D01*
X0134540Y0105249D01*
X0134469Y0105279D01*
X0134397Y0105305D01*
X0134323Y0105327D01*
X0134249Y0105346D01*
X0134173Y0105361D01*
X0134097Y0105372D01*
X0134020Y0105379D01*
X0133943Y0105382D01*
X0133943Y0105345D01*
X0134018Y0105342D01*
X0134093Y0105335D01*
X0134167Y0105324D01*
X0134241Y0105310D01*
X0134314Y0105292D01*
X0134386Y0105270D01*
X0134456Y0105244D01*
X0134525Y0105215D01*
X0134593Y0105182D01*
X0134658Y0105146D01*
X0134722Y0105107D01*
X0134784Y0105064D01*
X0134843Y0105018D01*
X0134900Y0104969D01*
X0134955Y0104918D01*
X0135006Y0104863D01*
X0135055Y0104806D01*
X0135101Y0104747D01*
X0135144Y0104685D01*
X0135183Y0104621D01*
X0135219Y0104555D01*
X0135252Y0104488D01*
X0135281Y0104419D01*
X0135307Y0104348D01*
X0135329Y0104276D01*
X0135347Y0104204D01*
X0135361Y0104130D01*
X0135372Y0104056D01*
X0135379Y0103981D01*
X0135382Y0103906D01*
X0135345Y0103906D01*
X0135342Y0103979D01*
X0135335Y0104052D01*
X0135325Y0104124D01*
X0135311Y0104196D01*
X0135293Y0104267D01*
X0135272Y0104337D01*
X0135247Y0104405D01*
X0135218Y0104473D01*
X0135186Y0104539D01*
X0135151Y0104603D01*
X0135113Y0104665D01*
X0135071Y0104725D01*
X0135027Y0104783D01*
X0134979Y0104838D01*
X0134929Y0104891D01*
X0134876Y0104942D01*
X0134820Y0104989D01*
X0134762Y0105034D01*
X0134702Y0105076D01*
X0134640Y0105114D01*
X0134576Y0105149D01*
X0134510Y0105181D01*
X0134443Y0105210D01*
X0134374Y0105235D01*
X0134304Y0105256D01*
X0134233Y0105274D01*
X0134162Y0105288D01*
X0134089Y0105298D01*
X0134016Y0105305D01*
X0133943Y0105308D01*
D20*
X0133924Y0105461D02*
X0129198Y0105461D01*
X0129198Y0097587D01*
X0130774Y0097587D01*
X0130774Y0104674D01*
X0131561Y0104674D01*
X0131561Y0097587D01*
X0133135Y0097587D01*
X0133135Y0104674D01*
X0133924Y0104674D01*
X0133924Y0097587D01*
X0135498Y0097587D01*
X0135498Y0103886D01*
X0135105Y0104674D01*
X0134711Y0105068D01*
X0133924Y0105461D01*
X0134158Y0105344D02*
X0129198Y0105344D01*
X0129198Y0104952D02*
X0134827Y0104952D01*
X0135162Y0104560D02*
X0133924Y0104560D01*
X0133924Y0104167D02*
X0135357Y0104167D01*
X0135498Y0103775D02*
X0133924Y0103775D01*
X0133924Y0103383D02*
X0135498Y0103383D01*
X0135498Y0102991D02*
X0133924Y0102991D01*
X0133924Y0102599D02*
X0135498Y0102599D01*
X0135498Y0102206D02*
X0133924Y0102206D01*
X0133924Y0101814D02*
X0135498Y0101814D01*
X0135498Y0101422D02*
X0133924Y0101422D01*
X0133924Y0101030D02*
X0135498Y0101030D01*
X0135498Y0100637D02*
X0133924Y0100637D01*
X0133924Y0100245D02*
X0135498Y0100245D01*
X0135498Y0099853D02*
X0133924Y0099853D01*
X0133924Y0099461D02*
X0135498Y0099461D01*
X0135498Y0099069D02*
X0133924Y0099069D01*
X0133924Y0098676D02*
X0135498Y0098676D01*
X0135498Y0098284D02*
X0133924Y0098284D01*
X0133924Y0097892D02*
X0135498Y0097892D01*
X0136680Y0097892D02*
X0141404Y0097892D01*
X0141404Y0097587D02*
X0141404Y0099949D01*
X0137467Y0099949D01*
X0137467Y0100737D01*
X0141404Y0100737D01*
X0141404Y0102312D01*
X0137467Y0102312D01*
X0137467Y0103099D01*
X0141404Y0103099D01*
X0141404Y0105461D01*
X0136680Y0105461D01*
X0136680Y0097587D01*
X0141404Y0097587D01*
X0141404Y0098284D02*
X0136680Y0098284D01*
X0136680Y0098676D02*
X0141404Y0098676D01*
X0141404Y0099069D02*
X0136680Y0099069D01*
X0136680Y0099461D02*
X0141404Y0099461D01*
X0141404Y0099853D02*
X0136680Y0099853D01*
X0136680Y0100245D02*
X0137467Y0100245D01*
X0137467Y0100637D02*
X0136680Y0100637D01*
X0136680Y0101030D02*
X0141404Y0101030D01*
X0141404Y0101422D02*
X0136680Y0101422D01*
X0136680Y0101814D02*
X0141404Y0101814D01*
X0141404Y0102206D02*
X0136680Y0102206D01*
X0136680Y0102599D02*
X0137467Y0102599D01*
X0137467Y0102991D02*
X0136680Y0102991D01*
X0136680Y0103383D02*
X0141404Y0103383D01*
X0141404Y0103775D02*
X0136680Y0103775D01*
X0136680Y0104167D02*
X0141404Y0104167D01*
X0141404Y0104560D02*
X0136680Y0104560D01*
X0136680Y0104952D02*
X0141404Y0104952D01*
X0141404Y0105344D02*
X0136680Y0105344D01*
X0133135Y0104560D02*
X0131561Y0104560D01*
X0131561Y0104167D02*
X0133135Y0104167D01*
X0133135Y0103775D02*
X0131561Y0103775D01*
X0131561Y0103383D02*
X0133135Y0103383D01*
X0133135Y0102991D02*
X0131561Y0102991D01*
X0131561Y0102599D02*
X0133135Y0102599D01*
X0133135Y0102206D02*
X0131561Y0102206D01*
X0131561Y0101814D02*
X0133135Y0101814D01*
X0133135Y0101422D02*
X0131561Y0101422D01*
X0131561Y0101030D02*
X0133135Y0101030D01*
X0133135Y0100637D02*
X0131561Y0100637D01*
X0131561Y0100245D02*
X0133135Y0100245D01*
X0133135Y0099853D02*
X0131561Y0099853D01*
X0131561Y0099461D02*
X0133135Y0099461D01*
X0133135Y0099069D02*
X0131561Y0099069D01*
X0131561Y0098676D02*
X0133135Y0098676D01*
X0133135Y0098284D02*
X0131561Y0098284D01*
X0131561Y0097892D02*
X0133135Y0097892D01*
X0130774Y0097892D02*
X0129198Y0097892D01*
X0129198Y0098284D02*
X0130774Y0098284D01*
X0130774Y0098676D02*
X0129198Y0098676D01*
X0129198Y0099069D02*
X0130774Y0099069D01*
X0130774Y0099461D02*
X0129198Y0099461D01*
X0129198Y0099853D02*
X0130774Y0099853D01*
X0130774Y0100245D02*
X0129198Y0100245D01*
X0129198Y0100637D02*
X0130774Y0100637D01*
X0130774Y0101030D02*
X0129198Y0101030D01*
X0129198Y0101422D02*
X0130774Y0101422D01*
X0130774Y0101814D02*
X0129198Y0101814D01*
X0129198Y0102206D02*
X0130774Y0102206D01*
X0130774Y0102599D02*
X0129198Y0102599D01*
X0129198Y0102991D02*
X0130774Y0102991D01*
X0130774Y0103383D02*
X0129198Y0103383D01*
X0129198Y0103775D02*
X0130774Y0103775D01*
X0130774Y0104167D02*
X0129198Y0104167D01*
X0129198Y0104560D02*
X0130774Y0104560D01*
X0128018Y0104560D02*
X0126443Y0104560D01*
X0126443Y0104952D02*
X0128018Y0104952D01*
X0128018Y0105344D02*
X0126443Y0105344D01*
X0126443Y0105736D02*
X0128018Y0105736D01*
X0128018Y0106128D02*
X0126443Y0106128D01*
X0126443Y0106521D02*
X0128018Y0106521D01*
X0128018Y0106642D02*
X0128018Y0097587D01*
X0126443Y0097587D01*
X0126443Y0106642D01*
X0123294Y0106642D01*
X0124081Y0108217D01*
X0146128Y0108217D01*
X0146128Y0106642D01*
X0128018Y0106642D01*
X0125261Y0105461D02*
X0125261Y0097587D01*
X0123687Y0097587D01*
X0123687Y0103099D01*
X0121324Y0098375D01*
X0122113Y0098375D01*
X0122113Y0097587D01*
X0118963Y0097587D01*
X0122900Y0105461D01*
X0125261Y0105461D01*
X0125261Y0105344D02*
X0122841Y0105344D01*
X0122645Y0104952D02*
X0125261Y0104952D01*
X0125261Y0104560D02*
X0122449Y0104560D01*
X0122253Y0104167D02*
X0125261Y0104167D01*
X0125261Y0103775D02*
X0122057Y0103775D01*
X0121861Y0103383D02*
X0125261Y0103383D01*
X0125261Y0102991D02*
X0123687Y0102991D01*
X0123632Y0102991D02*
X0121665Y0102991D01*
X0121468Y0102599D02*
X0123436Y0102599D01*
X0123687Y0102599D02*
X0125261Y0102599D01*
X0125261Y0102206D02*
X0123687Y0102206D01*
X0123687Y0101814D02*
X0125261Y0101814D01*
X0125261Y0101422D02*
X0123687Y0101422D01*
X0123687Y0101030D02*
X0125261Y0101030D01*
X0125261Y0100637D02*
X0123687Y0100637D01*
X0123687Y0100245D02*
X0125261Y0100245D01*
X0125261Y0099853D02*
X0123687Y0099853D01*
X0123687Y0099461D02*
X0125261Y0099461D01*
X0125261Y0099069D02*
X0123687Y0099069D01*
X0123687Y0098676D02*
X0125261Y0098676D01*
X0125261Y0098284D02*
X0123687Y0098284D01*
X0123687Y0097892D02*
X0125261Y0097892D01*
X0126443Y0097892D02*
X0128018Y0097892D01*
X0128018Y0098284D02*
X0126443Y0098284D01*
X0126443Y0098676D02*
X0128018Y0098676D01*
X0128018Y0099069D02*
X0126443Y0099069D01*
X0126443Y0099461D02*
X0128018Y0099461D01*
X0128018Y0099853D02*
X0126443Y0099853D01*
X0126443Y0100245D02*
X0128018Y0100245D01*
X0128018Y0100637D02*
X0126443Y0100637D01*
X0126443Y0101030D02*
X0128018Y0101030D01*
X0128018Y0101422D02*
X0126443Y0101422D01*
X0126443Y0101814D02*
X0128018Y0101814D01*
X0128018Y0102206D02*
X0126443Y0102206D01*
X0126443Y0102599D02*
X0128018Y0102599D01*
X0128018Y0102991D02*
X0126443Y0102991D01*
X0126443Y0103383D02*
X0128018Y0103383D01*
X0128018Y0103775D02*
X0126443Y0103775D01*
X0126443Y0104167D02*
X0128018Y0104167D01*
X0123240Y0102206D02*
X0121272Y0102206D01*
X0121076Y0101814D02*
X0123044Y0101814D01*
X0122848Y0101422D02*
X0120880Y0101422D01*
X0120684Y0101030D02*
X0122652Y0101030D01*
X0122456Y0100637D02*
X0120488Y0100637D01*
X0120292Y0100245D02*
X0122260Y0100245D01*
X0122063Y0099853D02*
X0120096Y0099853D01*
X0119900Y0099461D02*
X0121867Y0099461D01*
X0121671Y0099069D02*
X0119703Y0099069D01*
X0119507Y0098676D02*
X0121475Y0098676D01*
X0122113Y0098284D02*
X0119311Y0098284D01*
X0119115Y0097892D02*
X0122113Y0097892D01*
X0118963Y0096800D02*
X0118963Y0095225D01*
X0143766Y0095225D01*
X0144554Y0096800D01*
X0118963Y0096800D01*
X0118963Y0096715D02*
X0144511Y0096715D01*
X0144315Y0096323D02*
X0118963Y0096323D01*
X0118963Y0095931D02*
X0144119Y0095931D01*
X0143923Y0095539D02*
X0118963Y0095539D01*
X0123429Y0106913D02*
X0146128Y0106913D01*
X0146128Y0107305D02*
X0123625Y0107305D01*
X0123821Y0107697D02*
X0146128Y0107697D01*
X0146128Y0108089D02*
X0124017Y0108089D01*
X0142585Y0105461D02*
X0142585Y0097587D01*
X0144947Y0097587D01*
X0145735Y0099162D01*
X0144160Y0099162D01*
X0144160Y0105461D01*
X0142585Y0105461D01*
X0142585Y0105344D02*
X0144160Y0105344D01*
X0144160Y0104952D02*
X0142585Y0104952D01*
X0142585Y0104560D02*
X0144160Y0104560D01*
X0144160Y0104167D02*
X0142585Y0104167D01*
X0142585Y0103775D02*
X0144160Y0103775D01*
X0144160Y0103383D02*
X0142585Y0103383D01*
X0142585Y0102991D02*
X0144160Y0102991D01*
X0144160Y0102599D02*
X0142585Y0102599D01*
X0142585Y0102206D02*
X0144160Y0102206D01*
X0144160Y0101814D02*
X0142585Y0101814D01*
X0142585Y0101422D02*
X0144160Y0101422D01*
X0144160Y0101030D02*
X0142585Y0101030D01*
X0142585Y0100637D02*
X0144160Y0100637D01*
X0144160Y0100245D02*
X0142585Y0100245D01*
X0142585Y0099853D02*
X0144160Y0099853D01*
X0144160Y0099461D02*
X0142585Y0099461D01*
X0142585Y0099069D02*
X0145688Y0099069D01*
X0145492Y0098676D02*
X0142585Y0098676D01*
X0142585Y0098284D02*
X0145295Y0098284D01*
X0145099Y0097892D02*
X0142585Y0097892D01*
M02*
