G75*
%MOIN*%
%OFA0B0*%
%FSLAX25Y25*%
%IPPOS*%
%LPD*%
%AMOC8*
5,1,8,0,0,1.08239X$1,22.5*
%
%ADD10R,0.03150X0.04724*%
%ADD11OC8,0.06600*%
%ADD12C,0.04756*%
%ADD13R,0.08268X0.07874*%
%ADD14R,0.06299X0.07087*%
%ADD15R,0.01575X0.05315*%
%ADD16R,0.03937X0.02165*%
%ADD17R,0.03150X0.03937*%
%ADD18R,0.10236X0.05512*%
%ADD19R,0.03602X0.04803*%
%ADD20OC8,0.06000*%
%ADD21C,0.08850*%
%ADD22OC8,0.05200*%
%ADD23R,0.05906X0.01969*%
%ADD24R,0.01969X0.05906*%
%ADD25R,0.03937X0.03150*%
%ADD26R,0.04724X0.03937*%
%ADD27R,0.05906X0.05906*%
%ADD28R,0.05150X0.05150*%
%ADD29C,0.05150*%
%ADD30C,0.01600*%
%ADD31R,0.03962X0.03962*%
%ADD32C,0.01575*%
D10*
X0165945Y0100776D03*
X0173425Y0100776D03*
X0169685Y0109438D03*
D11*
X0194252Y0070698D03*
X0194252Y0062824D03*
X0044646Y0064792D03*
X0044646Y0072666D03*
X0044646Y0090383D03*
X0044646Y0098257D03*
D12*
X0211969Y0097272D03*
X0211969Y0103178D03*
D13*
X0106063Y0026800D03*
X0081654Y0026800D03*
D14*
X0077717Y0017745D03*
X0110000Y0017745D03*
D15*
X0098977Y0028867D03*
X0096418Y0028867D03*
X0093859Y0028867D03*
X0091299Y0028867D03*
X0088740Y0028867D03*
D16*
X0063544Y0139792D03*
X0063544Y0147272D03*
X0053307Y0147272D03*
X0053307Y0143532D03*
X0053307Y0139792D03*
D17*
X0051339Y0131721D03*
X0045827Y0131721D03*
X0069449Y0139595D03*
X0074961Y0139595D03*
X0120630Y0139595D03*
X0126142Y0139595D03*
X0132441Y0139595D03*
X0137953Y0139595D03*
X0120236Y0049044D03*
X0114725Y0049044D03*
D18*
X0091890Y0144123D03*
X0091890Y0166564D03*
D19*
X0089370Y0180934D03*
X0102284Y0180934D03*
D20*
X0132203Y0024459D03*
X0150003Y0024459D03*
D21*
X0154903Y0034259D03*
X0127303Y0034259D03*
D22*
X0192284Y0118847D03*
X0192284Y0128847D03*
D23*
X0144252Y0115973D03*
X0144252Y0112824D03*
X0144252Y0109674D03*
X0144252Y0106524D03*
X0144252Y0103375D03*
X0144252Y0100225D03*
X0144252Y0097076D03*
X0144252Y0093926D03*
X0144252Y0090776D03*
X0144252Y0087627D03*
X0144252Y0084477D03*
X0098583Y0084477D03*
X0098583Y0087627D03*
X0098583Y0090776D03*
X0098583Y0093926D03*
X0098583Y0097076D03*
X0098583Y0100225D03*
X0098583Y0103375D03*
X0098583Y0106524D03*
X0098583Y0109674D03*
X0098583Y0112824D03*
X0098583Y0115973D03*
D24*
X0105670Y0123060D03*
X0108819Y0123060D03*
X0111969Y0123060D03*
X0115118Y0123060D03*
X0118268Y0123060D03*
X0121418Y0123060D03*
X0124567Y0123060D03*
X0127717Y0123060D03*
X0130866Y0123060D03*
X0134016Y0123060D03*
X0137166Y0123060D03*
X0137166Y0077391D03*
X0134016Y0077391D03*
X0130866Y0077391D03*
X0127717Y0077391D03*
X0124567Y0077391D03*
X0121418Y0077391D03*
X0118268Y0077391D03*
X0115118Y0077391D03*
X0111969Y0077391D03*
X0108819Y0077391D03*
X0105670Y0077391D03*
D25*
X0099764Y0053769D03*
X0099764Y0048257D03*
X0091890Y0048257D03*
X0091890Y0053769D03*
X0135197Y0058099D03*
X0135197Y0063611D03*
X0072205Y0117154D03*
X0072205Y0122666D03*
X0113544Y0138808D03*
X0113544Y0144320D03*
D26*
X0113544Y0064792D03*
X0113544Y0056918D03*
X0125355Y0056918D03*
X0125355Y0064792D03*
D27*
X0079173Y0076446D03*
X0069173Y0076446D03*
X0069173Y0086446D03*
X0079173Y0086446D03*
X0079173Y0096446D03*
X0069173Y0096446D03*
D28*
X0168662Y0165186D03*
D29*
X0160788Y0165186D03*
X0152914Y0165186D03*
D30*
X0052876Y0043361D02*
X0048262Y0043361D01*
X0049514Y0041763D02*
X0052876Y0041763D01*
X0052876Y0040495D02*
X0053813Y0039557D01*
X0059101Y0039557D01*
X0060038Y0040495D01*
X0060038Y0045782D01*
X0059101Y0046720D01*
X0058844Y0046720D01*
X0058844Y0101205D01*
X0065320Y0107680D01*
X0071216Y0107680D01*
X0077692Y0101205D01*
X0077898Y0100998D01*
X0075558Y0100998D01*
X0074621Y0100061D01*
X0074621Y0092830D01*
X0075558Y0091893D01*
X0081227Y0091893D01*
X0080332Y0090998D01*
X0075558Y0090998D01*
X0074621Y0090061D01*
X0074621Y0084393D01*
X0073726Y0085287D01*
X0073726Y0090061D01*
X0072789Y0090998D01*
X0065558Y0090998D01*
X0064621Y0090061D01*
X0064621Y0082830D01*
X0065558Y0081893D01*
X0070332Y0081893D01*
X0071227Y0080998D01*
X0065558Y0080998D01*
X0064621Y0080061D01*
X0064621Y0072830D01*
X0065558Y0071893D01*
X0067616Y0071893D01*
X0074107Y0065401D01*
X0074782Y0064726D01*
X0075665Y0064361D01*
X0108115Y0064361D01*
X0108998Y0064726D01*
X0109381Y0065110D01*
X0109381Y0064976D01*
X0113359Y0064976D01*
X0113359Y0064608D01*
X0109381Y0064608D01*
X0109381Y0062587D01*
X0109504Y0062129D01*
X0109741Y0061718D01*
X0110076Y0061383D01*
X0110487Y0061146D01*
X0110944Y0061024D01*
X0113359Y0061024D01*
X0113359Y0064608D01*
X0113728Y0064608D01*
X0113728Y0061024D01*
X0114471Y0061024D01*
X0113885Y0060487D01*
X0110519Y0060487D01*
X0109581Y0059549D01*
X0109581Y0054287D01*
X0110519Y0053350D01*
X0112325Y0053350D01*
X0112325Y0052450D01*
X0111550Y0051675D01*
X0111550Y0046413D01*
X0112487Y0045476D01*
X0116962Y0045476D01*
X0117339Y0045853D01*
X0117556Y0045635D01*
X0117967Y0045398D01*
X0118425Y0045276D01*
X0120236Y0045276D01*
X0120236Y0049044D01*
X0120237Y0049044D01*
X0120237Y0049044D01*
X0123611Y0049044D01*
X0123611Y0046839D01*
X0123489Y0046381D01*
X0123252Y0045970D01*
X0122916Y0045635D01*
X0122506Y0045398D01*
X0122048Y0045276D01*
X0120237Y0045276D01*
X0120237Y0049044D01*
X0123611Y0049044D01*
X0123611Y0051250D01*
X0123489Y0051707D01*
X0123252Y0052118D01*
X0122916Y0052453D01*
X0122506Y0052690D01*
X0122048Y0052813D01*
X0120237Y0052813D01*
X0120237Y0049044D01*
X0120236Y0049044D01*
X0120236Y0052813D01*
X0118425Y0052813D01*
X0117967Y0052690D01*
X0117556Y0052453D01*
X0117339Y0052236D01*
X0117125Y0052450D01*
X0117125Y0053906D01*
X0117506Y0054287D01*
X0117506Y0057294D01*
X0119578Y0059194D01*
X0119627Y0059214D01*
X0119928Y0059515D01*
X0120242Y0059802D01*
X0120264Y0059851D01*
X0120303Y0059889D01*
X0120465Y0060282D01*
X0120645Y0060668D01*
X0120647Y0060722D01*
X0120668Y0060771D01*
X0120668Y0061197D01*
X0120686Y0061622D01*
X0120668Y0061672D01*
X0120668Y0065781D01*
X0121392Y0065129D01*
X0121392Y0062161D01*
X0122330Y0061224D01*
X0125634Y0061224D01*
X0125665Y0061211D01*
X0125904Y0061211D01*
X0126139Y0061164D01*
X0126377Y0061211D01*
X0131791Y0061211D01*
X0132006Y0060997D01*
X0131788Y0060779D01*
X0131551Y0060369D01*
X0131429Y0059911D01*
X0131429Y0058099D01*
X0131429Y0056287D01*
X0131551Y0055830D01*
X0131788Y0055419D01*
X0132123Y0055084D01*
X0132534Y0054847D01*
X0132992Y0054724D01*
X0135197Y0054724D01*
X0135197Y0058099D01*
X0135197Y0058099D01*
X0131429Y0058099D01*
X0135197Y0058099D01*
X0135197Y0058099D01*
X0135197Y0054724D01*
X0137403Y0054724D01*
X0137860Y0054847D01*
X0138271Y0055084D01*
X0138606Y0055419D01*
X0138843Y0055830D01*
X0138966Y0056287D01*
X0138966Y0058099D01*
X0135197Y0058099D01*
X0135197Y0058099D01*
X0138966Y0058099D01*
X0138966Y0059911D01*
X0138843Y0060369D01*
X0138606Y0060779D01*
X0138389Y0060997D01*
X0138766Y0061373D01*
X0138766Y0065849D01*
X0137828Y0066786D01*
X0132566Y0066786D01*
X0131791Y0066011D01*
X0129317Y0066011D01*
X0129317Y0067423D01*
X0128380Y0068361D01*
X0124977Y0068361D01*
X0123818Y0069404D01*
X0123818Y0072838D01*
X0138813Y0072838D01*
X0139750Y0073775D01*
X0139750Y0081006D01*
X0138813Y0081943D01*
X0116931Y0081943D01*
X0116797Y0082021D01*
X0116340Y0082143D01*
X0115118Y0082143D01*
X0114586Y0082143D01*
X0117682Y0085239D01*
X0139499Y0085239D01*
X0139499Y0084477D01*
X0139499Y0083256D01*
X0139622Y0082798D01*
X0139859Y0082388D01*
X0140194Y0082053D01*
X0140605Y0081816D01*
X0141062Y0081693D01*
X0144252Y0081693D01*
X0144252Y0084477D01*
X0139499Y0084477D01*
X0144252Y0084477D01*
X0144252Y0084477D01*
X0144252Y0084477D01*
X0144252Y0081693D01*
X0147442Y0081693D01*
X0147900Y0081816D01*
X0148310Y0082053D01*
X0148645Y0082388D01*
X0148882Y0082798D01*
X0149005Y0083256D01*
X0149005Y0084477D01*
X0144252Y0084477D01*
X0144252Y0084477D01*
X0149005Y0084477D01*
X0149005Y0085227D01*
X0150738Y0085227D01*
X0153523Y0082443D01*
X0154405Y0082077D01*
X0177013Y0082077D01*
X0177895Y0082443D01*
X0178570Y0083118D01*
X0185404Y0089951D01*
X0188703Y0089951D01*
X0188703Y0089707D01*
X0189640Y0088770D01*
X0194928Y0088770D01*
X0195865Y0089707D01*
X0195865Y0094995D01*
X0194928Y0095932D01*
X0189640Y0095932D01*
X0188703Y0094995D01*
X0188703Y0094751D01*
X0183932Y0094751D01*
X0183050Y0094386D01*
X0175542Y0086877D01*
X0155876Y0086877D01*
X0153786Y0088967D01*
X0154526Y0089707D01*
X0154526Y0094995D01*
X0153589Y0095932D01*
X0148805Y0095932D01*
X0148805Y0110424D01*
X0153101Y0110424D01*
X0162770Y0100754D01*
X0162770Y0097751D01*
X0163708Y0096814D01*
X0168183Y0096814D01*
X0169120Y0097751D01*
X0169120Y0103801D01*
X0168183Y0104739D01*
X0165574Y0104739D01*
X0155454Y0114858D01*
X0154572Y0115224D01*
X0148805Y0115224D01*
X0148805Y0117620D01*
X0147868Y0118557D01*
X0140637Y0118557D01*
X0139699Y0117620D01*
X0139699Y0108924D01*
X0139050Y0108924D01*
X0138168Y0108559D01*
X0137493Y0107884D01*
X0137493Y0107884D01*
X0135384Y0105775D01*
X0132553Y0105775D01*
X0131616Y0104838D01*
X0131616Y0099550D01*
X0132553Y0098613D01*
X0137841Y0098613D01*
X0138778Y0099550D01*
X0138778Y0102381D01*
X0139699Y0103302D01*
X0139699Y0090014D01*
X0117682Y0090014D01*
X0115931Y0091765D01*
X0115931Y0105712D01*
X0130280Y0105712D01*
X0138154Y0113586D01*
X0139553Y0114984D01*
X0139553Y0119247D01*
X0139750Y0119444D01*
X0139750Y0122250D01*
X0142884Y0125384D01*
X0151423Y0125384D01*
X0152305Y0125750D01*
X0162147Y0135592D01*
X0162822Y0136267D01*
X0163188Y0137149D01*
X0163188Y0161682D01*
X0164287Y0162781D01*
X0164287Y0162374D01*
X0164410Y0161916D01*
X0164646Y0161506D01*
X0164982Y0161171D01*
X0165392Y0160934D01*
X0165850Y0160811D01*
X0168662Y0160811D01*
X0171473Y0160811D01*
X0171931Y0160934D01*
X0172342Y0161171D01*
X0172677Y0161506D01*
X0172914Y0161916D01*
X0173036Y0162374D01*
X0173036Y0165186D01*
X0173036Y0167998D01*
X0172914Y0168455D01*
X0172677Y0168866D01*
X0172342Y0169201D01*
X0171931Y0169438D01*
X0171473Y0169561D01*
X0168662Y0169561D01*
X0168662Y0165186D01*
X0173036Y0165186D01*
X0168662Y0165186D01*
X0168662Y0165186D01*
X0168662Y0165186D01*
X0168662Y0169561D01*
X0165850Y0169561D01*
X0165392Y0169438D01*
X0164982Y0169201D01*
X0164646Y0168866D01*
X0164410Y0168455D01*
X0164287Y0167998D01*
X0164287Y0167591D01*
X0163152Y0168725D01*
X0161618Y0169361D01*
X0159957Y0169361D01*
X0158423Y0168725D01*
X0157248Y0167551D01*
X0156851Y0166590D01*
X0156453Y0167551D01*
X0155278Y0168725D01*
X0153744Y0169361D01*
X0152083Y0169361D01*
X0150549Y0168725D01*
X0149374Y0167551D01*
X0148739Y0166016D01*
X0148739Y0164355D01*
X0149374Y0162821D01*
X0150549Y0161647D01*
X0152083Y0161011D01*
X0153744Y0161011D01*
X0155278Y0161647D01*
X0156453Y0162821D01*
X0156851Y0163781D01*
X0157248Y0162821D01*
X0158388Y0161682D01*
X0158388Y0138621D01*
X0149951Y0130184D01*
X0141413Y0130184D01*
X0140531Y0129819D01*
X0139855Y0129144D01*
X0138324Y0127613D01*
X0135829Y0127613D01*
X0135695Y0127690D01*
X0135237Y0127813D01*
X0134016Y0127813D01*
X0133266Y0127813D01*
X0133266Y0136027D01*
X0134679Y0136027D01*
X0135197Y0136545D01*
X0135715Y0136027D01*
X0138145Y0136027D01*
X0140901Y0133271D01*
X0143427Y0133271D01*
X0143427Y0133014D01*
X0144364Y0132077D01*
X0149652Y0132077D01*
X0150589Y0133014D01*
X0150589Y0138302D01*
X0149652Y0139239D01*
X0144364Y0139239D01*
X0143427Y0138302D01*
X0143427Y0138046D01*
X0142879Y0138046D01*
X0141128Y0139797D01*
X0141128Y0142227D01*
X0140191Y0143164D01*
X0135715Y0143164D01*
X0135197Y0142645D01*
X0134679Y0143164D01*
X0130204Y0143164D01*
X0129292Y0142252D01*
X0128380Y0143164D01*
X0123904Y0143164D01*
X0123527Y0142787D01*
X0123310Y0143004D01*
X0122900Y0143241D01*
X0122442Y0143364D01*
X0120630Y0143364D01*
X0118818Y0143364D01*
X0118361Y0143241D01*
X0117950Y0143004D01*
X0117615Y0142669D01*
X0117378Y0142259D01*
X0117255Y0141801D01*
X0117255Y0139595D01*
X0117255Y0137390D01*
X0117378Y0136932D01*
X0117615Y0136522D01*
X0117950Y0136186D01*
X0118361Y0135949D01*
X0118818Y0135827D01*
X0120630Y0135827D01*
X0120630Y0139595D01*
X0120630Y0139595D01*
X0117255Y0139595D01*
X0120630Y0139595D01*
X0120630Y0139595D01*
X0120630Y0135827D01*
X0122442Y0135827D01*
X0122900Y0135949D01*
X0123310Y0136186D01*
X0123527Y0136404D01*
X0123904Y0136027D01*
X0128380Y0136027D01*
X0128466Y0136114D01*
X0128466Y0127613D01*
X0114356Y0127613D01*
X0114356Y0135633D01*
X0116175Y0135633D01*
X0117112Y0136570D01*
X0117112Y0141045D01*
X0116735Y0141422D01*
X0116952Y0141640D01*
X0117189Y0142050D01*
X0117312Y0142508D01*
X0117312Y0144320D01*
X0117312Y0146131D01*
X0117189Y0146589D01*
X0116952Y0147000D01*
X0116617Y0147335D01*
X0116207Y0147572D01*
X0115749Y0147694D01*
X0113544Y0147694D01*
X0113544Y0144320D01*
X0117312Y0144320D01*
X0113544Y0144320D01*
X0113544Y0144320D01*
X0113543Y0144320D01*
X0113543Y0144320D01*
X0109775Y0144320D01*
X0109775Y0146131D01*
X0109898Y0146589D01*
X0110135Y0147000D01*
X0110470Y0147335D01*
X0110880Y0147572D01*
X0111338Y0147694D01*
X0113543Y0147694D01*
X0113543Y0144320D01*
X0109775Y0144320D01*
X0109775Y0142508D01*
X0109898Y0142050D01*
X0110135Y0141640D01*
X0110352Y0141422D01*
X0109975Y0141045D01*
X0109975Y0139797D01*
X0109581Y0139403D01*
X0109581Y0139075D01*
X0109413Y0138795D01*
X0109581Y0138120D01*
X0109581Y0127813D01*
X0108819Y0127813D01*
X0108057Y0127813D01*
X0108057Y0178537D01*
X0106658Y0179935D01*
X0105685Y0180909D01*
X0105685Y0183998D01*
X0104748Y0184935D01*
X0099820Y0184935D01*
X0098883Y0183998D01*
X0098883Y0177870D01*
X0099820Y0176932D01*
X0102909Y0176932D01*
X0103282Y0176559D01*
X0103282Y0126872D01*
X0103085Y0126675D01*
X0103085Y0119444D01*
X0103282Y0119248D01*
X0103282Y0115211D01*
X0103136Y0115211D01*
X0103136Y0117620D01*
X0102198Y0118557D01*
X0094967Y0118557D01*
X0094030Y0117620D01*
X0094030Y0113290D01*
X0090353Y0116967D01*
X0090353Y0122235D01*
X0090597Y0122235D01*
X0091534Y0123172D01*
X0091534Y0128460D01*
X0090597Y0129397D01*
X0085309Y0129397D01*
X0084372Y0128460D01*
X0084372Y0123491D01*
X0079404Y0123491D01*
X0078466Y0122554D01*
X0078466Y0117266D01*
X0079404Y0116329D01*
X0080266Y0116329D01*
X0080688Y0115907D01*
X0092105Y0104490D01*
X0092987Y0104124D01*
X0093830Y0104124D01*
X0093830Y0103375D01*
X0098583Y0103375D01*
X0103336Y0103375D01*
X0103336Y0104596D01*
X0103213Y0105054D01*
X0103136Y0105188D01*
X0103136Y0110436D01*
X0107830Y0110436D01*
X0111156Y0107110D01*
X0111156Y0089787D01*
X0112555Y0088389D01*
X0113317Y0087627D01*
X0110980Y0085290D01*
X0109581Y0083891D01*
X0109581Y0081943D01*
X0104023Y0081943D01*
X0103085Y0081006D01*
X0103085Y0073775D01*
X0103763Y0073098D01*
X0089566Y0073098D01*
X0089566Y0073341D01*
X0088861Y0074046D01*
X0091029Y0074046D01*
X0091911Y0074411D01*
X0099393Y0081893D01*
X0102198Y0081893D01*
X0103136Y0082830D01*
X0103136Y0101562D01*
X0103213Y0101696D01*
X0103336Y0102154D01*
X0103336Y0103375D01*
X0098583Y0103375D01*
X0098583Y0103375D01*
X0098583Y0103375D01*
X0093830Y0103375D01*
X0093830Y0102613D01*
X0090910Y0102613D01*
X0075773Y0117750D01*
X0075773Y0119392D01*
X0075397Y0119769D01*
X0075614Y0119986D01*
X0075851Y0120397D01*
X0075973Y0120854D01*
X0075973Y0122666D01*
X0072205Y0122666D01*
X0072205Y0122666D01*
X0068436Y0122666D01*
X0068436Y0120854D01*
X0068559Y0120397D01*
X0068796Y0119986D01*
X0069013Y0119769D01*
X0068636Y0119392D01*
X0068636Y0114917D01*
X0069574Y0113980D01*
X0072791Y0113980D01*
X0082189Y0104581D01*
X0081068Y0104581D01*
X0073194Y0112455D01*
X0066718Y0112455D01*
X0066718Y0116329D01*
X0066975Y0116329D01*
X0067912Y0117266D01*
X0067912Y0122554D01*
X0066975Y0123491D01*
X0061687Y0123491D01*
X0060750Y0122554D01*
X0060750Y0117266D01*
X0061687Y0116329D01*
X0061944Y0116329D01*
X0061944Y0111057D01*
X0054070Y0103183D01*
X0054070Y0046720D01*
X0053813Y0046720D01*
X0052876Y0045782D01*
X0052876Y0040495D01*
X0053206Y0040164D02*
X0050767Y0040164D01*
X0051937Y0038671D02*
X0045024Y0047494D01*
X0039225Y0057087D01*
X0034624Y0067309D01*
X0031290Y0078011D01*
X0029269Y0089036D01*
X0028592Y0100225D01*
X0029269Y0111414D01*
X0031290Y0122440D01*
X0034624Y0133141D01*
X0039225Y0143363D01*
X0045024Y0152956D01*
X0051937Y0161780D01*
X0059863Y0169706D01*
X0068687Y0176619D01*
X0078280Y0182418D01*
X0088501Y0187018D01*
X0099203Y0190353D01*
X0099203Y0190353D01*
X0110229Y0192374D01*
X0121418Y0193050D01*
X0132606Y0192374D01*
X0143632Y0190353D01*
X0154334Y0187018D01*
X0164556Y0182418D01*
X0174148Y0176619D01*
X0182972Y0169706D01*
X0190898Y0161780D01*
X0197811Y0152956D01*
X0203610Y0143363D01*
X0208211Y0133141D01*
X0211545Y0122440D01*
X0213566Y0111414D01*
X0213851Y0106704D01*
X0212760Y0107156D01*
X0211177Y0107156D01*
X0209715Y0106550D01*
X0208596Y0105431D01*
X0207991Y0103969D01*
X0207991Y0102387D01*
X0208596Y0100925D01*
X0209296Y0100225D01*
X0208596Y0099526D01*
X0208249Y0098688D01*
X0205089Y0098688D01*
X0194684Y0109093D01*
X0194684Y0115308D01*
X0196484Y0117108D01*
X0196484Y0120587D01*
X0194023Y0123047D01*
X0190544Y0123047D01*
X0188744Y0121247D01*
X0178617Y0121247D01*
X0177735Y0120882D01*
X0170253Y0113400D01*
X0167448Y0113400D01*
X0166510Y0112463D01*
X0166510Y0106413D01*
X0167448Y0105476D01*
X0171923Y0105476D01*
X0172860Y0106413D01*
X0172860Y0109218D01*
X0180089Y0116447D01*
X0188744Y0116447D01*
X0189884Y0115308D01*
X0189884Y0107622D01*
X0190249Y0106740D01*
X0202060Y0094929D01*
X0202060Y0094929D01*
X0202735Y0094254D01*
X0203617Y0093888D01*
X0209744Y0093888D01*
X0211177Y0093294D01*
X0212760Y0093294D01*
X0213851Y0093746D01*
X0213566Y0089036D01*
X0211545Y0078011D01*
X0208211Y0067309D01*
X0203610Y0057087D01*
X0197811Y0047494D01*
X0190898Y0038671D01*
X0182972Y0030745D01*
X0174148Y0023832D01*
X0164556Y0018033D01*
X0154334Y0013432D01*
X0143632Y0010097D01*
X0132606Y0008077D01*
X0121418Y0007400D01*
X0110229Y0008077D01*
X0099203Y0010097D01*
X0088501Y0013432D01*
X0082466Y0016148D01*
X0082466Y0021263D01*
X0086450Y0021263D01*
X0087388Y0022200D01*
X0087388Y0024497D01*
X0087716Y0024409D01*
X0088740Y0024409D01*
X0088740Y0028867D01*
X0088740Y0033324D01*
X0087716Y0033324D01*
X0087258Y0033202D01*
X0086848Y0032965D01*
X0086513Y0032630D01*
X0086344Y0032337D01*
X0076857Y0032337D01*
X0075920Y0031400D01*
X0075920Y0022888D01*
X0073904Y0022888D01*
X0072967Y0021951D01*
X0072967Y0021244D01*
X0068687Y0023832D01*
X0059863Y0030745D01*
X0051937Y0038671D01*
X0052042Y0038566D02*
X0091459Y0038566D01*
X0091459Y0040164D02*
X0059708Y0040164D01*
X0060038Y0041763D02*
X0091459Y0041763D01*
X0091459Y0043361D02*
X0060038Y0043361D01*
X0060038Y0044960D02*
X0091459Y0044960D01*
X0091459Y0045082D02*
X0091459Y0033124D01*
X0090357Y0033124D01*
X0090223Y0033202D01*
X0089765Y0033324D01*
X0088740Y0033324D01*
X0088740Y0028867D01*
X0088740Y0028867D01*
X0088740Y0028867D01*
X0088740Y0024409D01*
X0089765Y0024409D01*
X0090223Y0024532D01*
X0090357Y0024609D01*
X0100329Y0024609D01*
X0100329Y0022200D01*
X0101267Y0021263D01*
X0105251Y0021263D01*
X0105251Y0013539D01*
X0106188Y0012602D01*
X0113813Y0012602D01*
X0114750Y0013539D01*
X0114750Y0021951D01*
X0113813Y0022888D01*
X0111797Y0022888D01*
X0111797Y0031400D01*
X0110860Y0032337D01*
X0105030Y0032337D01*
X0105314Y0032621D01*
X0105314Y0037908D01*
X0104376Y0038846D01*
X0099089Y0038846D01*
X0098818Y0038575D01*
X0098818Y0043916D01*
X0099983Y0045082D01*
X0102395Y0045082D01*
X0103333Y0046019D01*
X0103333Y0050494D01*
X0102814Y0051013D01*
X0103333Y0051531D01*
X0103333Y0056006D01*
X0103220Y0056118D01*
X0103345Y0056243D01*
X0103345Y0061530D01*
X0102408Y0062468D01*
X0097120Y0062468D01*
X0096183Y0061530D01*
X0096183Y0056243D01*
X0096308Y0056118D01*
X0096196Y0056006D01*
X0096196Y0051531D01*
X0096714Y0051013D01*
X0096196Y0050494D01*
X0096196Y0048082D01*
X0095827Y0047714D01*
X0095459Y0048082D01*
X0095459Y0050494D01*
X0094940Y0051013D01*
X0095459Y0051531D01*
X0095459Y0056006D01*
X0095346Y0056118D01*
X0095471Y0056243D01*
X0095471Y0061530D01*
X0094534Y0062468D01*
X0089246Y0062468D01*
X0088309Y0061530D01*
X0088309Y0056243D01*
X0088434Y0056118D01*
X0088322Y0056006D01*
X0088322Y0051531D01*
X0088840Y0051013D01*
X0088322Y0050494D01*
X0088322Y0046019D01*
X0089259Y0045082D01*
X0091459Y0045082D01*
X0093859Y0046288D02*
X0091890Y0048257D01*
X0093859Y0046288D02*
X0093859Y0028867D01*
X0096418Y0028867D02*
X0096418Y0044910D01*
X0099764Y0048257D01*
X0103333Y0048157D02*
X0111550Y0048157D01*
X0111550Y0049755D02*
X0103333Y0049755D01*
X0103155Y0051354D02*
X0111550Y0051354D01*
X0112325Y0052952D02*
X0103333Y0052952D01*
X0103333Y0054551D02*
X0109581Y0054551D01*
X0109581Y0056149D02*
X0103252Y0056149D01*
X0103345Y0057748D02*
X0109581Y0057748D01*
X0109581Y0059346D02*
X0103345Y0059346D01*
X0103345Y0060945D02*
X0114385Y0060945D01*
X0113728Y0062543D02*
X0113359Y0062543D01*
X0113359Y0064142D02*
X0113728Y0064142D01*
X0113728Y0064976D02*
X0113359Y0064976D01*
X0113359Y0068561D01*
X0112832Y0068561D01*
X0113328Y0069057D01*
X0114003Y0069732D01*
X0114369Y0070614D01*
X0114369Y0072638D01*
X0115118Y0072638D01*
X0115118Y0077390D01*
X0115118Y0077390D01*
X0115118Y0072638D01*
X0115868Y0072638D01*
X0115868Y0068561D01*
X0113728Y0068561D01*
X0113728Y0064976D01*
X0113728Y0065740D02*
X0113359Y0065740D01*
X0113359Y0067339D02*
X0113728Y0067339D01*
X0113209Y0068937D02*
X0115868Y0068937D01*
X0115868Y0070536D02*
X0114336Y0070536D01*
X0114369Y0072134D02*
X0115868Y0072134D01*
X0115118Y0073733D02*
X0115118Y0073733D01*
X0115118Y0075332D02*
X0115118Y0075332D01*
X0115118Y0076930D02*
X0115118Y0076930D01*
X0115118Y0077391D02*
X0115118Y0082143D01*
X0115118Y0077391D01*
X0115118Y0077391D01*
X0115118Y0078529D02*
X0115118Y0078529D01*
X0115118Y0080127D02*
X0115118Y0080127D01*
X0115118Y0081726D02*
X0115118Y0081726D01*
X0115767Y0083324D02*
X0139499Y0083324D01*
X0139499Y0084923D02*
X0117365Y0084923D01*
X0112211Y0086521D02*
X0103136Y0086521D01*
X0103136Y0084923D02*
X0110613Y0084923D01*
X0109581Y0083324D02*
X0103136Y0083324D01*
X0103805Y0081726D02*
X0099225Y0081726D01*
X0097627Y0080127D02*
X0103085Y0080127D01*
X0103085Y0078529D02*
X0096028Y0078529D01*
X0094430Y0076930D02*
X0103085Y0076930D01*
X0103085Y0075332D02*
X0092831Y0075332D01*
X0090551Y0076446D02*
X0098583Y0084477D01*
X0098583Y0087627D02*
X0090512Y0087627D01*
X0084410Y0081524D01*
X0074095Y0081524D01*
X0069173Y0086446D01*
X0064621Y0086521D02*
X0058844Y0086521D01*
X0058844Y0084923D02*
X0064621Y0084923D01*
X0064621Y0083324D02*
X0058844Y0083324D01*
X0058844Y0081726D02*
X0070499Y0081726D01*
X0074091Y0084923D02*
X0074621Y0084923D01*
X0074621Y0086521D02*
X0073726Y0086521D01*
X0073726Y0088120D02*
X0074621Y0088120D01*
X0074621Y0089718D02*
X0073726Y0089718D01*
X0072821Y0091816D02*
X0073231Y0092053D01*
X0073567Y0092388D01*
X0073804Y0092798D01*
X0073926Y0093256D01*
X0073926Y0096360D01*
X0069259Y0096360D01*
X0069259Y0091693D01*
X0072363Y0091693D01*
X0072821Y0091816D01*
X0073835Y0092915D02*
X0074621Y0092915D01*
X0074621Y0094514D02*
X0073926Y0094514D01*
X0073926Y0096112D02*
X0074621Y0096112D01*
X0073926Y0096531D02*
X0073926Y0099635D01*
X0073804Y0100093D01*
X0073567Y0100504D01*
X0073231Y0100839D01*
X0072821Y0101076D01*
X0072363Y0101198D01*
X0069259Y0101198D01*
X0069259Y0096532D01*
X0069088Y0096532D01*
X0069088Y0101198D01*
X0065984Y0101198D01*
X0065526Y0101076D01*
X0065115Y0100839D01*
X0064780Y0100504D01*
X0064543Y0100093D01*
X0064421Y0099635D01*
X0064421Y0096531D01*
X0069088Y0096531D01*
X0069088Y0096360D01*
X0069259Y0096360D01*
X0069259Y0096531D01*
X0073926Y0096531D01*
X0073926Y0097711D02*
X0074621Y0097711D01*
X0074621Y0099309D02*
X0073926Y0099309D01*
X0073112Y0100908D02*
X0075467Y0100908D01*
X0076390Y0102506D02*
X0060146Y0102506D01*
X0058844Y0100908D02*
X0065235Y0100908D01*
X0064421Y0099309D02*
X0058844Y0099309D01*
X0058844Y0097711D02*
X0064421Y0097711D01*
X0064421Y0096360D02*
X0064421Y0093256D01*
X0064543Y0092798D01*
X0064780Y0092388D01*
X0065115Y0092053D01*
X0065526Y0091816D01*
X0065984Y0091693D01*
X0069088Y0091693D01*
X0069088Y0096360D01*
X0064421Y0096360D01*
X0064421Y0096112D02*
X0058844Y0096112D01*
X0058844Y0094514D02*
X0064421Y0094514D01*
X0064512Y0092915D02*
X0058844Y0092915D01*
X0058844Y0091317D02*
X0080650Y0091317D01*
X0083504Y0090776D02*
X0098583Y0090776D01*
X0103136Y0091317D02*
X0111156Y0091317D01*
X0111156Y0092915D02*
X0103136Y0092915D01*
X0103136Y0094514D02*
X0111156Y0094514D01*
X0111156Y0096112D02*
X0103136Y0096112D01*
X0103136Y0097711D02*
X0111156Y0097711D01*
X0111156Y0099309D02*
X0103136Y0099309D01*
X0103136Y0100908D02*
X0111156Y0100908D01*
X0111156Y0102506D02*
X0103336Y0102506D01*
X0103336Y0104105D02*
X0111156Y0104105D01*
X0111156Y0105703D02*
X0103136Y0105703D01*
X0103136Y0107302D02*
X0110965Y0107302D01*
X0109366Y0108900D02*
X0103136Y0108900D01*
X0098583Y0109674D02*
X0094252Y0109674D01*
X0087953Y0115973D01*
X0087953Y0125816D01*
X0084372Y0126484D02*
X0054133Y0126484D01*
X0054133Y0128082D02*
X0084372Y0128082D01*
X0084372Y0124885D02*
X0075864Y0124885D01*
X0075851Y0124936D02*
X0075614Y0125346D01*
X0075279Y0125681D01*
X0074868Y0125918D01*
X0074410Y0126041D01*
X0072205Y0126041D01*
X0072205Y0122666D01*
X0072205Y0122666D01*
X0075973Y0122666D01*
X0075973Y0124478D01*
X0075851Y0124936D01*
X0075973Y0123287D02*
X0079199Y0123287D01*
X0078466Y0121688D02*
X0075973Y0121688D01*
X0075674Y0120090D02*
X0078466Y0120090D01*
X0078466Y0118491D02*
X0075773Y0118491D01*
X0076630Y0116893D02*
X0078840Y0116893D01*
X0078229Y0115294D02*
X0081301Y0115294D01*
X0079827Y0113696D02*
X0082899Y0113696D01*
X0081426Y0112097D02*
X0084498Y0112097D01*
X0083024Y0110499D02*
X0086096Y0110499D01*
X0084623Y0108900D02*
X0087695Y0108900D01*
X0086221Y0107302D02*
X0089293Y0107302D01*
X0087820Y0105703D02*
X0090892Y0105703D01*
X0089418Y0104105D02*
X0093830Y0104105D01*
X0093465Y0106524D02*
X0082047Y0117942D01*
X0082047Y0119910D01*
X0090353Y0120090D02*
X0103085Y0120090D01*
X0103085Y0121688D02*
X0090353Y0121688D01*
X0091534Y0123287D02*
X0103085Y0123287D01*
X0103085Y0124885D02*
X0091534Y0124885D01*
X0091534Y0126484D02*
X0103085Y0126484D01*
X0103282Y0128082D02*
X0091534Y0128082D01*
X0095152Y0132077D02*
X0100439Y0132077D01*
X0101377Y0133014D01*
X0101377Y0138302D01*
X0100439Y0139239D01*
X0097591Y0139239D01*
X0097063Y0139767D01*
X0097671Y0139767D01*
X0098608Y0140704D01*
X0098608Y0147541D01*
X0097671Y0148479D01*
X0090910Y0148479D01*
X0089729Y0149660D01*
X0066470Y0149660D01*
X0066175Y0149955D01*
X0060912Y0149955D01*
X0059975Y0149018D01*
X0059975Y0145527D01*
X0060912Y0144590D01*
X0066175Y0144590D01*
X0066470Y0144885D01*
X0075723Y0144885D01*
X0075723Y0143734D01*
X0075153Y0143164D01*
X0072723Y0143164D01*
X0072205Y0142645D01*
X0071687Y0143164D01*
X0067212Y0143164D01*
X0066349Y0142301D01*
X0066175Y0142475D01*
X0060912Y0142475D01*
X0059975Y0141538D01*
X0059975Y0138047D01*
X0060912Y0137109D01*
X0066175Y0137109D01*
X0066273Y0137208D01*
X0066274Y0137208D01*
X0066274Y0136964D01*
X0067212Y0136027D01*
X0071687Y0136027D01*
X0071786Y0136126D01*
X0071786Y0134679D01*
X0071216Y0134109D01*
X0054514Y0134109D01*
X0054514Y0134352D01*
X0053576Y0135290D01*
X0049101Y0135290D01*
X0048724Y0134913D01*
X0048507Y0135130D01*
X0048097Y0135367D01*
X0047639Y0135490D01*
X0045827Y0135490D01*
X0044015Y0135490D01*
X0043557Y0135367D01*
X0043147Y0135130D01*
X0042812Y0134795D01*
X0042575Y0134385D01*
X0042452Y0133927D01*
X0042452Y0131721D01*
X0042452Y0129516D01*
X0042575Y0129058D01*
X0042812Y0128648D01*
X0043147Y0128312D01*
X0043557Y0128075D01*
X0044015Y0127953D01*
X0045827Y0127953D01*
X0046970Y0127953D01*
X0046970Y0123172D01*
X0047908Y0122235D01*
X0053195Y0122235D01*
X0054133Y0123172D01*
X0054133Y0128460D01*
X0054008Y0128584D01*
X0054514Y0129090D01*
X0054514Y0129334D01*
X0073194Y0129334D01*
X0075162Y0131302D01*
X0076561Y0132701D01*
X0076561Y0136027D01*
X0077198Y0136027D01*
X0078136Y0136964D01*
X0078136Y0139394D01*
X0079099Y0140357D01*
X0079099Y0140357D01*
X0080498Y0141756D01*
X0080498Y0144885D01*
X0085172Y0144885D01*
X0085172Y0140704D01*
X0086109Y0139767D01*
X0090311Y0139767D01*
X0094214Y0135863D01*
X0094214Y0133014D01*
X0095152Y0132077D01*
X0094351Y0132878D02*
X0076561Y0132878D01*
X0076561Y0134476D02*
X0094214Y0134476D01*
X0094003Y0136075D02*
X0077247Y0136075D01*
X0078136Y0137673D02*
X0092404Y0137673D01*
X0090806Y0139272D02*
X0078136Y0139272D01*
X0079612Y0140870D02*
X0085172Y0140870D01*
X0085172Y0142469D02*
X0080498Y0142469D01*
X0080498Y0144068D02*
X0085172Y0144068D01*
X0090526Y0148863D02*
X0103282Y0148863D01*
X0103282Y0147265D02*
X0098608Y0147265D01*
X0098608Y0145666D02*
X0103282Y0145666D01*
X0103282Y0144068D02*
X0098608Y0144068D01*
X0098608Y0142469D02*
X0103282Y0142469D01*
X0103282Y0140870D02*
X0098608Y0140870D01*
X0097558Y0139272D02*
X0103282Y0139272D01*
X0103282Y0137673D02*
X0101377Y0137673D01*
X0101377Y0136075D02*
X0103282Y0136075D01*
X0103282Y0134476D02*
X0101377Y0134476D01*
X0101240Y0132878D02*
X0103282Y0132878D01*
X0103282Y0131279D02*
X0075139Y0131279D01*
X0073541Y0129681D02*
X0103282Y0129681D01*
X0108057Y0129681D02*
X0109581Y0129681D01*
X0109581Y0131279D02*
X0108057Y0131279D01*
X0108057Y0132878D02*
X0109581Y0132878D01*
X0109581Y0134476D02*
X0108057Y0134476D01*
X0108057Y0136075D02*
X0109581Y0136075D01*
X0109581Y0137673D02*
X0108057Y0137673D01*
X0108057Y0139272D02*
X0109581Y0139272D01*
X0109975Y0140870D02*
X0108057Y0140870D01*
X0108057Y0142469D02*
X0109785Y0142469D01*
X0109775Y0144068D02*
X0108057Y0144068D01*
X0108057Y0145666D02*
X0109775Y0145666D01*
X0110400Y0147265D02*
X0108057Y0147265D01*
X0108057Y0148863D02*
X0158388Y0148863D01*
X0158388Y0147265D02*
X0116688Y0147265D01*
X0117312Y0145666D02*
X0158388Y0145666D01*
X0158388Y0144068D02*
X0117312Y0144068D01*
X0117302Y0142469D02*
X0117500Y0142469D01*
X0117255Y0140870D02*
X0117112Y0140870D01*
X0117112Y0139272D02*
X0117255Y0139272D01*
X0117255Y0137673D02*
X0117112Y0137673D01*
X0116617Y0136075D02*
X0118143Y0136075D01*
X0120630Y0136075D02*
X0120630Y0136075D01*
X0120630Y0137673D02*
X0120630Y0137673D01*
X0120630Y0139272D02*
X0120630Y0139272D01*
X0120630Y0139595D02*
X0120630Y0143364D01*
X0120630Y0139595D01*
X0120630Y0139595D01*
X0120630Y0140870D02*
X0120630Y0140870D01*
X0120630Y0142469D02*
X0120630Y0142469D01*
X0126142Y0139595D02*
X0132441Y0139595D01*
X0130866Y0138020D01*
X0130866Y0123060D01*
X0134016Y0123060D02*
X0134016Y0127813D01*
X0134016Y0123060D01*
X0134016Y0123060D01*
X0134016Y0118307D01*
X0134778Y0118307D01*
X0134778Y0116962D01*
X0128303Y0110487D01*
X0114532Y0110487D01*
X0111207Y0113813D01*
X0108057Y0116962D01*
X0108057Y0118307D01*
X0108819Y0118307D01*
X0108819Y0123060D01*
X0108819Y0127813D01*
X0108819Y0123060D01*
X0108819Y0123060D01*
X0108819Y0123060D01*
X0108819Y0118307D01*
X0110040Y0118307D01*
X0110498Y0118430D01*
X0110632Y0118507D01*
X0132203Y0118507D01*
X0132337Y0118430D01*
X0132795Y0118307D01*
X0134016Y0118307D01*
X0134016Y0123060D01*
X0134016Y0123060D01*
X0134016Y0123287D02*
X0134016Y0123287D01*
X0134016Y0124885D02*
X0134016Y0124885D01*
X0134016Y0126484D02*
X0134016Y0126484D01*
X0133266Y0128082D02*
X0138794Y0128082D01*
X0140393Y0129681D02*
X0133266Y0129681D01*
X0133266Y0131279D02*
X0151046Y0131279D01*
X0150453Y0132878D02*
X0152645Y0132878D01*
X0154243Y0134476D02*
X0150589Y0134476D01*
X0150589Y0136075D02*
X0155842Y0136075D01*
X0157440Y0137673D02*
X0150589Y0137673D01*
X0143564Y0132878D02*
X0133266Y0132878D01*
X0133266Y0134476D02*
X0139696Y0134476D01*
X0135667Y0136075D02*
X0134727Y0136075D01*
X0128466Y0136075D02*
X0128428Y0136075D01*
X0128466Y0134476D02*
X0114356Y0134476D01*
X0114356Y0132878D02*
X0128466Y0132878D01*
X0128466Y0131279D02*
X0114356Y0131279D01*
X0114356Y0129681D02*
X0128466Y0129681D01*
X0128466Y0128082D02*
X0114356Y0128082D01*
X0109581Y0128082D02*
X0108057Y0128082D01*
X0108819Y0126484D02*
X0108819Y0126484D01*
X0108819Y0124885D02*
X0108819Y0124885D01*
X0108819Y0123287D02*
X0108819Y0123287D01*
X0108819Y0121688D02*
X0108819Y0121688D01*
X0108819Y0120090D02*
X0108819Y0120090D01*
X0108819Y0118491D02*
X0108819Y0118491D01*
X0108126Y0116893D02*
X0134709Y0116893D01*
X0134016Y0118491D02*
X0134016Y0118491D01*
X0134016Y0120090D02*
X0134016Y0120090D01*
X0134016Y0121688D02*
X0134016Y0121688D01*
X0137166Y0123060D02*
X0141890Y0127784D01*
X0150945Y0127784D01*
X0160788Y0137627D01*
X0160788Y0165186D01*
X0163832Y0168045D02*
X0164300Y0168045D01*
X0168662Y0168045D02*
X0168662Y0168045D01*
X0168662Y0166447D02*
X0168662Y0166447D01*
X0168662Y0165186D02*
X0168662Y0160811D01*
X0168662Y0165186D01*
X0168662Y0165186D01*
X0168662Y0164848D02*
X0168662Y0164848D01*
X0168662Y0163250D02*
X0168662Y0163250D01*
X0168662Y0161651D02*
X0168662Y0161651D01*
X0172761Y0161651D02*
X0190999Y0161651D01*
X0192251Y0160053D02*
X0163188Y0160053D01*
X0163188Y0161651D02*
X0164563Y0161651D01*
X0163188Y0158454D02*
X0193504Y0158454D01*
X0194756Y0156856D02*
X0163188Y0156856D01*
X0163188Y0155257D02*
X0196008Y0155257D01*
X0197261Y0153659D02*
X0163188Y0153659D01*
X0163188Y0152060D02*
X0198353Y0152060D01*
X0199319Y0150462D02*
X0163188Y0150462D01*
X0163188Y0148863D02*
X0200285Y0148863D01*
X0201252Y0147265D02*
X0163188Y0147265D01*
X0163188Y0145666D02*
X0202218Y0145666D01*
X0203184Y0144068D02*
X0163188Y0144068D01*
X0163188Y0142469D02*
X0204013Y0142469D01*
X0204732Y0140870D02*
X0163188Y0140870D01*
X0163188Y0139272D02*
X0205452Y0139272D01*
X0206171Y0137673D02*
X0163188Y0137673D01*
X0162630Y0136075D02*
X0206890Y0136075D01*
X0207610Y0134476D02*
X0161031Y0134476D01*
X0159433Y0132878D02*
X0190375Y0132878D01*
X0190544Y0133047D02*
X0188084Y0130587D01*
X0188084Y0127108D01*
X0190544Y0124647D01*
X0194023Y0124647D01*
X0196484Y0127108D01*
X0196484Y0130587D01*
X0194023Y0133047D01*
X0190544Y0133047D01*
X0188776Y0131279D02*
X0157834Y0131279D01*
X0156236Y0129681D02*
X0188084Y0129681D01*
X0188084Y0128082D02*
X0154637Y0128082D01*
X0153039Y0126484D02*
X0188707Y0126484D01*
X0190306Y0124885D02*
X0142385Y0124885D01*
X0140787Y0123287D02*
X0211281Y0123287D01*
X0211683Y0121688D02*
X0195382Y0121688D01*
X0196484Y0120090D02*
X0211976Y0120090D01*
X0212269Y0118491D02*
X0196484Y0118491D01*
X0196269Y0116893D02*
X0212562Y0116893D01*
X0212855Y0115294D02*
X0194684Y0115294D01*
X0194684Y0113696D02*
X0213148Y0113696D01*
X0213441Y0112097D02*
X0194684Y0112097D01*
X0194684Y0110499D02*
X0213621Y0110499D01*
X0213718Y0108900D02*
X0194877Y0108900D01*
X0196475Y0107302D02*
X0213815Y0107302D01*
X0208868Y0105703D02*
X0198074Y0105703D01*
X0199672Y0104105D02*
X0208047Y0104105D01*
X0207991Y0102506D02*
X0201271Y0102506D01*
X0202869Y0100908D02*
X0208613Y0100908D01*
X0208507Y0099309D02*
X0204468Y0099309D01*
X0204095Y0096288D02*
X0210984Y0096288D01*
X0211969Y0097272D01*
X0213801Y0092915D02*
X0195865Y0092915D01*
X0195865Y0091317D02*
X0213704Y0091317D01*
X0213607Y0089718D02*
X0195865Y0089718D01*
X0192284Y0092351D02*
X0184410Y0092351D01*
X0176536Y0084477D01*
X0154882Y0084477D01*
X0151733Y0087627D01*
X0144252Y0087627D01*
X0144252Y0090776D02*
X0149370Y0090776D01*
X0150945Y0092351D01*
X0154526Y0092915D02*
X0181580Y0092915D01*
X0179981Y0091317D02*
X0154526Y0091317D01*
X0154526Y0089718D02*
X0178383Y0089718D01*
X0176784Y0088120D02*
X0154634Y0088120D01*
X0151043Y0084923D02*
X0149005Y0084923D01*
X0149005Y0083324D02*
X0152641Y0083324D01*
X0147564Y0081726D02*
X0212226Y0081726D01*
X0212519Y0083324D02*
X0178777Y0083324D01*
X0180375Y0084923D02*
X0212812Y0084923D01*
X0213105Y0086521D02*
X0181974Y0086521D01*
X0183572Y0088120D02*
X0213398Y0088120D01*
X0213566Y0089036D02*
X0213566Y0089036D01*
X0204095Y0096288D02*
X0192284Y0108099D01*
X0192284Y0118847D01*
X0179095Y0118847D01*
X0169685Y0109438D01*
X0166510Y0108900D02*
X0161412Y0108900D01*
X0163011Y0107302D02*
X0166510Y0107302D01*
X0167220Y0105703D02*
X0164609Y0105703D01*
X0168817Y0104105D02*
X0170330Y0104105D01*
X0170410Y0104244D02*
X0170173Y0103833D01*
X0170051Y0103376D01*
X0170051Y0100776D01*
X0170051Y0098177D01*
X0170173Y0097719D01*
X0170410Y0097309D01*
X0170745Y0096974D01*
X0171156Y0096737D01*
X0171614Y0096614D01*
X0173425Y0096614D01*
X0173425Y0100776D01*
X0170051Y0100776D01*
X0173425Y0100776D01*
X0173425Y0100776D01*
X0173425Y0100776D01*
X0173425Y0096614D01*
X0175237Y0096614D01*
X0175695Y0096737D01*
X0176105Y0096974D01*
X0176441Y0097309D01*
X0176678Y0097719D01*
X0176800Y0098177D01*
X0176800Y0100776D01*
X0173426Y0100776D01*
X0173426Y0100776D01*
X0176800Y0100776D01*
X0176800Y0103376D01*
X0176678Y0103833D01*
X0176441Y0104244D01*
X0176105Y0104579D01*
X0175695Y0104816D01*
X0175237Y0104939D01*
X0173425Y0104939D01*
X0171614Y0104939D01*
X0171156Y0104816D01*
X0170745Y0104579D01*
X0170410Y0104244D01*
X0170051Y0102506D02*
X0169120Y0102506D01*
X0169120Y0100908D02*
X0170051Y0100908D01*
X0170051Y0099309D02*
X0169120Y0099309D01*
X0169079Y0097711D02*
X0170178Y0097711D01*
X0173425Y0097711D02*
X0173425Y0097711D01*
X0173425Y0099309D02*
X0173425Y0099309D01*
X0173425Y0100777D02*
X0173425Y0104939D01*
X0173425Y0100777D01*
X0173425Y0100777D01*
X0173425Y0100908D02*
X0173425Y0100908D01*
X0173425Y0102506D02*
X0173425Y0102506D01*
X0173425Y0104105D02*
X0173425Y0104105D01*
X0172150Y0105703D02*
X0191286Y0105703D01*
X0190016Y0107302D02*
X0172860Y0107302D01*
X0172860Y0108900D02*
X0189884Y0108900D01*
X0189884Y0110499D02*
X0174140Y0110499D01*
X0175739Y0112097D02*
X0189884Y0112097D01*
X0189884Y0113696D02*
X0177337Y0113696D01*
X0178936Y0115294D02*
X0189884Y0115294D01*
X0189185Y0121688D02*
X0139750Y0121688D01*
X0139750Y0120090D02*
X0176943Y0120090D01*
X0175345Y0118491D02*
X0147934Y0118491D01*
X0148805Y0116893D02*
X0173746Y0116893D01*
X0172148Y0115294D02*
X0148805Y0115294D01*
X0144252Y0112824D02*
X0154095Y0112824D01*
X0165945Y0100973D01*
X0165945Y0100776D01*
X0162617Y0100908D02*
X0148805Y0100908D01*
X0148805Y0102506D02*
X0161018Y0102506D01*
X0159420Y0104105D02*
X0148805Y0104105D01*
X0148805Y0105703D02*
X0157821Y0105703D01*
X0156222Y0107302D02*
X0148805Y0107302D01*
X0148805Y0108900D02*
X0154624Y0108900D01*
X0158215Y0112097D02*
X0166510Y0112097D01*
X0166510Y0110499D02*
X0159814Y0110499D01*
X0156617Y0113696D02*
X0170549Y0113696D01*
X0176521Y0104105D02*
X0192884Y0104105D01*
X0194483Y0102506D02*
X0176800Y0102506D01*
X0176800Y0100908D02*
X0196081Y0100908D01*
X0197680Y0099309D02*
X0176800Y0099309D01*
X0176673Y0097711D02*
X0199278Y0097711D01*
X0200877Y0096112D02*
X0148805Y0096112D01*
X0148805Y0097711D02*
X0162811Y0097711D01*
X0162770Y0099309D02*
X0148805Y0099309D01*
X0154526Y0094514D02*
X0183359Y0094514D01*
X0185171Y0089718D02*
X0188703Y0089718D01*
X0195865Y0094514D02*
X0202475Y0094514D01*
X0211933Y0080127D02*
X0139750Y0080127D01*
X0139750Y0078529D02*
X0211640Y0078529D01*
X0211209Y0076930D02*
X0139750Y0076930D01*
X0139750Y0075332D02*
X0191956Y0075332D01*
X0192223Y0075598D02*
X0189352Y0072727D01*
X0189352Y0068668D01*
X0191118Y0066902D01*
X0189152Y0064936D01*
X0189152Y0062824D01*
X0194252Y0062824D01*
X0194252Y0062824D01*
X0189152Y0062824D01*
X0189152Y0060711D01*
X0192140Y0057724D01*
X0194252Y0057724D01*
X0194252Y0062823D01*
X0194252Y0062823D01*
X0194252Y0057724D01*
X0196365Y0057724D01*
X0199352Y0060711D01*
X0199352Y0062824D01*
X0199352Y0064936D01*
X0197386Y0066902D01*
X0199152Y0068668D01*
X0199152Y0072727D01*
X0196282Y0075598D01*
X0192223Y0075598D01*
X0190358Y0073733D02*
X0139708Y0073733D01*
X0139030Y0081726D02*
X0140941Y0081726D01*
X0144252Y0081726D02*
X0144252Y0081726D01*
X0144252Y0083324D02*
X0144252Y0083324D01*
X0139699Y0091317D02*
X0116380Y0091317D01*
X0115931Y0092915D02*
X0139699Y0092915D01*
X0139699Y0094514D02*
X0115931Y0094514D01*
X0115931Y0096112D02*
X0139699Y0096112D01*
X0139699Y0097711D02*
X0115931Y0097711D01*
X0115931Y0099309D02*
X0131857Y0099309D01*
X0131616Y0100908D02*
X0115931Y0100908D01*
X0115931Y0102506D02*
X0131616Y0102506D01*
X0131616Y0104105D02*
X0115931Y0104105D01*
X0115931Y0105703D02*
X0132482Y0105703D01*
X0131870Y0107302D02*
X0136911Y0107302D01*
X0138992Y0108900D02*
X0133469Y0108900D01*
X0135067Y0110499D02*
X0139699Y0110499D01*
X0139699Y0112097D02*
X0136666Y0112097D01*
X0138264Y0113696D02*
X0139699Y0113696D01*
X0139699Y0115294D02*
X0139553Y0115294D01*
X0139553Y0116893D02*
X0139699Y0116893D01*
X0139553Y0118491D02*
X0140571Y0118491D01*
X0133110Y0115294D02*
X0109725Y0115294D01*
X0111323Y0113696D02*
X0131512Y0113696D01*
X0129913Y0112097D02*
X0112922Y0112097D01*
X0114520Y0110499D02*
X0128315Y0110499D01*
X0132230Y0118491D02*
X0110605Y0118491D01*
X0103282Y0118491D02*
X0102265Y0118491D01*
X0103136Y0116893D02*
X0103282Y0116893D01*
X0103282Y0115294D02*
X0103136Y0115294D01*
X0094901Y0118491D02*
X0090353Y0118491D01*
X0090428Y0116893D02*
X0094030Y0116893D01*
X0094030Y0115294D02*
X0092026Y0115294D01*
X0093625Y0113696D02*
X0094030Y0113696D01*
X0093465Y0106524D02*
X0098583Y0106524D01*
X0081067Y0105703D02*
X0079946Y0105703D01*
X0079469Y0107302D02*
X0078347Y0107302D01*
X0077870Y0108900D02*
X0076749Y0108900D01*
X0076272Y0110499D02*
X0075150Y0110499D01*
X0074673Y0112097D02*
X0073552Y0112097D01*
X0073075Y0113696D02*
X0066718Y0113696D01*
X0066718Y0115294D02*
X0068636Y0115294D01*
X0068636Y0116893D02*
X0067538Y0116893D01*
X0067912Y0118491D02*
X0068636Y0118491D01*
X0068736Y0120090D02*
X0067912Y0120090D01*
X0067912Y0121688D02*
X0068436Y0121688D01*
X0068436Y0122666D02*
X0072205Y0122666D01*
X0072205Y0122666D01*
X0072205Y0126041D01*
X0069999Y0126041D01*
X0069542Y0125918D01*
X0069131Y0125681D01*
X0068796Y0125346D01*
X0068559Y0124936D01*
X0068436Y0124478D01*
X0068436Y0122666D01*
X0068436Y0123287D02*
X0067179Y0123287D01*
X0068546Y0124885D02*
X0054133Y0124885D01*
X0054133Y0123287D02*
X0061483Y0123287D01*
X0060750Y0121688D02*
X0031152Y0121688D01*
X0030859Y0120090D02*
X0060750Y0120090D01*
X0060750Y0118491D02*
X0030566Y0118491D01*
X0030273Y0116893D02*
X0061123Y0116893D01*
X0061944Y0115294D02*
X0029980Y0115294D01*
X0029687Y0113696D02*
X0061944Y0113696D01*
X0061944Y0112097D02*
X0029394Y0112097D01*
X0029214Y0110499D02*
X0061386Y0110499D01*
X0059787Y0108900D02*
X0029117Y0108900D01*
X0029020Y0107302D02*
X0058189Y0107302D01*
X0056590Y0105703D02*
X0028924Y0105703D01*
X0028827Y0104105D02*
X0054992Y0104105D01*
X0054070Y0102506D02*
X0047609Y0102506D01*
X0046758Y0103357D02*
X0049746Y0100369D01*
X0049746Y0098257D01*
X0044646Y0098257D01*
X0044646Y0098257D01*
X0044646Y0103357D01*
X0046758Y0103357D01*
X0044646Y0103357D02*
X0042533Y0103357D01*
X0039546Y0100369D01*
X0039546Y0098257D01*
X0044646Y0098257D01*
X0044646Y0103357D01*
X0044646Y0102506D02*
X0044646Y0102506D01*
X0044646Y0100908D02*
X0044646Y0100908D01*
X0044646Y0099309D02*
X0044646Y0099309D01*
X0044646Y0098257D02*
X0044646Y0098257D01*
X0044646Y0098257D01*
X0049746Y0098257D01*
X0049746Y0096144D01*
X0047780Y0094178D01*
X0049546Y0092412D01*
X0049546Y0088353D01*
X0046676Y0085483D01*
X0042616Y0085483D01*
X0039746Y0088353D01*
X0039746Y0092412D01*
X0041512Y0094178D01*
X0039546Y0096144D01*
X0039546Y0098257D01*
X0044646Y0098257D01*
X0048115Y0094514D02*
X0054070Y0094514D01*
X0054070Y0096112D02*
X0049714Y0096112D01*
X0049746Y0097711D02*
X0054070Y0097711D01*
X0054070Y0099309D02*
X0049746Y0099309D01*
X0049207Y0100908D02*
X0054070Y0100908D01*
X0061744Y0104105D02*
X0074792Y0104105D01*
X0073193Y0105703D02*
X0063343Y0105703D01*
X0064941Y0107302D02*
X0071595Y0107302D01*
X0069259Y0100908D02*
X0069088Y0100908D01*
X0069088Y0099309D02*
X0069259Y0099309D01*
X0069259Y0097711D02*
X0069088Y0097711D01*
X0069088Y0096112D02*
X0069259Y0096112D01*
X0069259Y0094514D02*
X0069088Y0094514D01*
X0069088Y0092915D02*
X0069259Y0092915D01*
X0064621Y0089718D02*
X0058844Y0089718D01*
X0058844Y0088120D02*
X0064621Y0088120D01*
X0064687Y0080127D02*
X0058844Y0080127D01*
X0058844Y0078529D02*
X0064621Y0078529D01*
X0064621Y0076930D02*
X0058844Y0076930D01*
X0058844Y0075332D02*
X0064621Y0075332D01*
X0064621Y0073733D02*
X0058844Y0073733D01*
X0058844Y0072134D02*
X0065316Y0072134D01*
X0068973Y0070536D02*
X0058844Y0070536D01*
X0058844Y0068937D02*
X0070571Y0068937D01*
X0072170Y0067339D02*
X0058844Y0067339D01*
X0058844Y0065740D02*
X0073768Y0065740D01*
X0076142Y0066761D02*
X0107638Y0066761D01*
X0111969Y0071091D01*
X0111969Y0077391D01*
X0108819Y0077391D02*
X0108819Y0071879D01*
X0107638Y0070698D01*
X0085984Y0070698D01*
X0089174Y0073733D02*
X0103127Y0073733D01*
X0109381Y0064142D02*
X0058844Y0064142D01*
X0058844Y0062543D02*
X0109393Y0062543D01*
X0113544Y0056918D02*
X0114725Y0056131D01*
X0114725Y0049044D01*
X0111550Y0046558D02*
X0103333Y0046558D01*
X0099861Y0044960D02*
X0195825Y0044960D01*
X0194573Y0043361D02*
X0098818Y0043361D01*
X0098818Y0041763D02*
X0193321Y0041763D01*
X0192068Y0040164D02*
X0156390Y0040164D01*
X0156101Y0040284D02*
X0153704Y0040284D01*
X0151490Y0039367D01*
X0149795Y0037672D01*
X0148878Y0035458D01*
X0148878Y0033061D01*
X0149795Y0030846D01*
X0151490Y0029151D01*
X0151712Y0029059D01*
X0148097Y0029059D01*
X0145403Y0026364D01*
X0145403Y0022554D01*
X0148097Y0019859D01*
X0151908Y0019859D01*
X0154603Y0022554D01*
X0154603Y0026364D01*
X0152046Y0028921D01*
X0153704Y0028234D01*
X0156101Y0028234D01*
X0158315Y0029151D01*
X0160010Y0030846D01*
X0160928Y0033061D01*
X0160928Y0035458D01*
X0160010Y0037672D01*
X0158315Y0039367D01*
X0156101Y0040284D01*
X0153415Y0040164D02*
X0128790Y0040164D01*
X0128501Y0040284D02*
X0130715Y0039367D01*
X0132410Y0037672D01*
X0133328Y0035458D01*
X0133328Y0033061D01*
X0132410Y0030846D01*
X0130823Y0029259D01*
X0132003Y0029259D01*
X0132003Y0024659D01*
X0132403Y0024659D01*
X0137003Y0024659D01*
X0137003Y0026447D01*
X0134191Y0029259D01*
X0132403Y0029259D01*
X0132403Y0024659D01*
X0132403Y0024259D01*
X0137003Y0024259D01*
X0137003Y0022471D01*
X0134191Y0019659D01*
X0132403Y0019659D01*
X0132403Y0024259D01*
X0132003Y0024259D01*
X0132003Y0019659D01*
X0130214Y0019659D01*
X0127403Y0022471D01*
X0127403Y0024259D01*
X0132003Y0024259D01*
X0132003Y0024659D01*
X0127403Y0024659D01*
X0127403Y0026447D01*
X0129676Y0028721D01*
X0128501Y0028234D01*
X0126104Y0028234D01*
X0123890Y0029151D01*
X0122195Y0030846D01*
X0121278Y0033061D01*
X0121278Y0035458D01*
X0122195Y0037672D01*
X0123890Y0039367D01*
X0126104Y0040284D01*
X0128501Y0040284D01*
X0125815Y0040164D02*
X0098818Y0040164D01*
X0104656Y0038566D02*
X0123089Y0038566D01*
X0121903Y0036967D02*
X0105314Y0036967D01*
X0105314Y0035369D02*
X0121278Y0035369D01*
X0121278Y0033770D02*
X0105314Y0033770D01*
X0111025Y0032172D02*
X0121646Y0032172D01*
X0122468Y0030573D02*
X0111797Y0030573D01*
X0111797Y0028975D02*
X0124316Y0028975D01*
X0128332Y0027376D02*
X0111797Y0027376D01*
X0111797Y0025778D02*
X0127403Y0025778D01*
X0127403Y0024179D02*
X0111797Y0024179D01*
X0114120Y0022581D02*
X0127403Y0022581D01*
X0128891Y0020982D02*
X0114750Y0020982D01*
X0114750Y0019384D02*
X0166791Y0019384D01*
X0169435Y0020982D02*
X0153031Y0020982D01*
X0154603Y0022581D02*
X0172079Y0022581D01*
X0174592Y0024179D02*
X0154603Y0024179D01*
X0154603Y0025778D02*
X0176632Y0025778D01*
X0178673Y0027376D02*
X0153591Y0027376D01*
X0157889Y0028975D02*
X0180713Y0028975D01*
X0182753Y0030573D02*
X0159737Y0030573D01*
X0160559Y0032172D02*
X0184399Y0032172D01*
X0185998Y0033770D02*
X0160928Y0033770D01*
X0160928Y0035369D02*
X0187596Y0035369D01*
X0189195Y0036967D02*
X0160302Y0036967D01*
X0159117Y0038566D02*
X0190793Y0038566D01*
X0197078Y0046558D02*
X0123536Y0046558D01*
X0123611Y0048157D02*
X0198212Y0048157D01*
X0199178Y0049755D02*
X0123611Y0049755D01*
X0123583Y0051354D02*
X0200144Y0051354D01*
X0201111Y0052952D02*
X0117125Y0052952D01*
X0117506Y0054551D02*
X0121236Y0054551D01*
X0121192Y0054713D02*
X0121315Y0054255D01*
X0121552Y0053844D01*
X0121887Y0053509D01*
X0122298Y0053272D01*
X0122755Y0053150D01*
X0125170Y0053150D01*
X0125170Y0056734D01*
X0121192Y0056734D01*
X0121192Y0054713D01*
X0121192Y0056149D02*
X0117506Y0056149D01*
X0118001Y0057748D02*
X0121192Y0057748D01*
X0121192Y0057102D02*
X0125170Y0057102D01*
X0125170Y0056734D01*
X0125539Y0056734D01*
X0125539Y0057102D01*
X0129517Y0057102D01*
X0129517Y0059124D01*
X0129394Y0059581D01*
X0129157Y0059992D01*
X0128822Y0060327D01*
X0128412Y0060564D01*
X0127954Y0060687D01*
X0125539Y0060687D01*
X0125539Y0057102D01*
X0125170Y0057102D01*
X0125170Y0060687D01*
X0122755Y0060687D01*
X0122298Y0060564D01*
X0121887Y0060327D01*
X0121552Y0059992D01*
X0121315Y0059581D01*
X0121192Y0059124D01*
X0121192Y0057102D01*
X0121252Y0059346D02*
X0119760Y0059346D01*
X0120668Y0060945D02*
X0131954Y0060945D01*
X0131429Y0059346D02*
X0129457Y0059346D01*
X0129517Y0057748D02*
X0131429Y0057748D01*
X0131466Y0056149D02*
X0129517Y0056149D01*
X0129517Y0056734D02*
X0125539Y0056734D01*
X0125539Y0053150D01*
X0127954Y0053150D01*
X0128412Y0053272D01*
X0128822Y0053509D01*
X0129157Y0053844D01*
X0129394Y0054255D01*
X0129517Y0054713D01*
X0129517Y0056734D01*
X0129292Y0056918D02*
X0131260Y0054950D01*
X0129473Y0054551D02*
X0202077Y0054551D01*
X0203043Y0056149D02*
X0138929Y0056149D01*
X0138966Y0057748D02*
X0192115Y0057748D01*
X0194252Y0057748D02*
X0194252Y0057748D01*
X0194252Y0059346D02*
X0194252Y0059346D01*
X0194252Y0060945D02*
X0194252Y0060945D01*
X0194252Y0062543D02*
X0194252Y0062543D01*
X0194252Y0062824D02*
X0194252Y0062824D01*
X0199352Y0062824D01*
X0194252Y0062824D01*
X0190517Y0059346D02*
X0138966Y0059346D01*
X0138440Y0060945D02*
X0189152Y0060945D01*
X0189152Y0062543D02*
X0138766Y0062543D01*
X0138766Y0064142D02*
X0189152Y0064142D01*
X0189957Y0065740D02*
X0138766Y0065740D01*
X0135197Y0063611D02*
X0126142Y0063611D01*
X0125355Y0064792D01*
X0121418Y0068335D01*
X0121418Y0077391D01*
X0118268Y0077391D02*
X0118268Y0061249D01*
X0113544Y0056918D01*
X0120236Y0051354D02*
X0120237Y0051354D01*
X0120236Y0049755D02*
X0120237Y0049755D01*
X0120236Y0048157D02*
X0120237Y0048157D01*
X0120236Y0046558D02*
X0120237Y0046558D01*
X0125170Y0054551D02*
X0125539Y0054551D01*
X0125539Y0056149D02*
X0125170Y0056149D01*
X0125355Y0056918D02*
X0129292Y0056918D01*
X0125539Y0057748D02*
X0125170Y0057748D01*
X0125170Y0059346D02*
X0125539Y0059346D01*
X0121392Y0062543D02*
X0120668Y0062543D01*
X0120668Y0064142D02*
X0121392Y0064142D01*
X0120713Y0065740D02*
X0120668Y0065740D01*
X0124336Y0068937D02*
X0189352Y0068937D01*
X0189352Y0070536D02*
X0123818Y0070536D01*
X0123818Y0072134D02*
X0189352Y0072134D01*
X0190681Y0067339D02*
X0129317Y0067339D01*
X0135197Y0057748D02*
X0135197Y0057748D01*
X0135197Y0056149D02*
X0135197Y0056149D01*
X0131517Y0038566D02*
X0150689Y0038566D01*
X0149503Y0036967D02*
X0132702Y0036967D01*
X0133328Y0035369D02*
X0148878Y0035369D01*
X0148878Y0033770D02*
X0133328Y0033770D01*
X0132959Y0032172D02*
X0149246Y0032172D01*
X0150068Y0030573D02*
X0132137Y0030573D01*
X0132003Y0028975D02*
X0132403Y0028975D01*
X0132403Y0027376D02*
X0132003Y0027376D01*
X0132003Y0025778D02*
X0132403Y0025778D01*
X0132403Y0024179D02*
X0132003Y0024179D01*
X0132003Y0022581D02*
X0132403Y0022581D01*
X0132403Y0020982D02*
X0132003Y0020982D01*
X0135514Y0020982D02*
X0146974Y0020982D01*
X0145403Y0022581D02*
X0137003Y0022581D01*
X0137003Y0024179D02*
X0145403Y0024179D01*
X0145403Y0025778D02*
X0137003Y0025778D01*
X0136074Y0027376D02*
X0146414Y0027376D01*
X0148013Y0028975D02*
X0134475Y0028975D01*
X0152914Y0012990D02*
X0114201Y0012990D01*
X0114750Y0014588D02*
X0156902Y0014588D01*
X0160454Y0016187D02*
X0114750Y0016187D01*
X0114750Y0017785D02*
X0164006Y0017785D01*
X0147784Y0011391D02*
X0095051Y0011391D01*
X0089921Y0012990D02*
X0105800Y0012990D01*
X0105251Y0014588D02*
X0085933Y0014588D01*
X0082466Y0016187D02*
X0105251Y0016187D01*
X0105251Y0017785D02*
X0082466Y0017785D01*
X0082466Y0019384D02*
X0105251Y0019384D01*
X0105251Y0020982D02*
X0082466Y0020982D01*
X0087388Y0022581D02*
X0100329Y0022581D01*
X0100329Y0024179D02*
X0087388Y0024179D01*
X0088740Y0025778D02*
X0088740Y0025778D01*
X0088740Y0027376D02*
X0088740Y0027376D01*
X0088740Y0028975D02*
X0088740Y0028975D01*
X0088740Y0030573D02*
X0088740Y0030573D01*
X0088740Y0032172D02*
X0088740Y0032172D01*
X0091459Y0033770D02*
X0056837Y0033770D01*
X0055239Y0035369D02*
X0091459Y0035369D01*
X0091459Y0036967D02*
X0053640Y0036967D01*
X0058436Y0032172D02*
X0076692Y0032172D01*
X0075920Y0030573D02*
X0060082Y0030573D01*
X0062122Y0028975D02*
X0075920Y0028975D01*
X0075920Y0027376D02*
X0064162Y0027376D01*
X0066203Y0025778D02*
X0075920Y0025778D01*
X0075920Y0024179D02*
X0068243Y0024179D01*
X0070756Y0022581D02*
X0073597Y0022581D01*
X0052876Y0044960D02*
X0047010Y0044960D01*
X0045757Y0046558D02*
X0053652Y0046558D01*
X0054070Y0048157D02*
X0044624Y0048157D01*
X0043657Y0049755D02*
X0054070Y0049755D01*
X0054070Y0051354D02*
X0042691Y0051354D01*
X0041725Y0052952D02*
X0054070Y0052952D01*
X0054070Y0054551D02*
X0040758Y0054551D01*
X0039792Y0056149D02*
X0054070Y0056149D01*
X0054070Y0057748D02*
X0038928Y0057748D01*
X0038208Y0059346D02*
X0054070Y0059346D01*
X0054070Y0060945D02*
X0047728Y0060945D01*
X0046676Y0059892D02*
X0049546Y0062762D01*
X0049546Y0066822D01*
X0047780Y0068588D01*
X0049746Y0070554D01*
X0049746Y0072666D01*
X0044646Y0072666D01*
X0044646Y0072666D01*
X0049746Y0072666D01*
X0049746Y0074779D01*
X0046758Y0077766D01*
X0044646Y0077766D01*
X0044646Y0072666D01*
X0039546Y0072666D01*
X0039546Y0070554D01*
X0041512Y0068588D01*
X0039746Y0066822D01*
X0039746Y0062762D01*
X0042616Y0059892D01*
X0046676Y0059892D01*
X0049327Y0062543D02*
X0054070Y0062543D01*
X0054070Y0064142D02*
X0049546Y0064142D01*
X0049546Y0065740D02*
X0054070Y0065740D01*
X0054070Y0067339D02*
X0049029Y0067339D01*
X0048130Y0068937D02*
X0054070Y0068937D01*
X0054070Y0070536D02*
X0049728Y0070536D01*
X0049746Y0072134D02*
X0054070Y0072134D01*
X0054070Y0073733D02*
X0049746Y0073733D01*
X0049193Y0075332D02*
X0054070Y0075332D01*
X0054070Y0076930D02*
X0047594Y0076930D01*
X0044646Y0076930D02*
X0044646Y0076930D01*
X0044646Y0077766D02*
X0042533Y0077766D01*
X0039546Y0074779D01*
X0039546Y0072666D01*
X0044646Y0072666D01*
X0044646Y0072666D01*
X0044646Y0072666D01*
X0044646Y0077766D01*
X0044646Y0075332D02*
X0044646Y0075332D01*
X0044646Y0073733D02*
X0044646Y0073733D01*
X0041697Y0076930D02*
X0031626Y0076930D01*
X0031195Y0078529D02*
X0054070Y0078529D01*
X0054070Y0080127D02*
X0030902Y0080127D01*
X0030609Y0081726D02*
X0054070Y0081726D01*
X0054070Y0083324D02*
X0030316Y0083324D01*
X0030023Y0084923D02*
X0054070Y0084923D01*
X0054070Y0086521D02*
X0047714Y0086521D01*
X0049312Y0088120D02*
X0054070Y0088120D01*
X0054070Y0089718D02*
X0049546Y0089718D01*
X0049546Y0091317D02*
X0054070Y0091317D01*
X0054070Y0092915D02*
X0049043Y0092915D01*
X0041176Y0094514D02*
X0028938Y0094514D01*
X0028841Y0096112D02*
X0039578Y0096112D01*
X0039546Y0097711D02*
X0028744Y0097711D01*
X0028648Y0099309D02*
X0039546Y0099309D01*
X0040084Y0100908D02*
X0028634Y0100908D01*
X0028730Y0102506D02*
X0041683Y0102506D01*
X0040249Y0092915D02*
X0029035Y0092915D01*
X0029131Y0091317D02*
X0039746Y0091317D01*
X0039746Y0089718D02*
X0029228Y0089718D01*
X0029437Y0088120D02*
X0039979Y0088120D01*
X0041578Y0086521D02*
X0029730Y0086521D01*
X0032125Y0075332D02*
X0040099Y0075332D01*
X0039546Y0073733D02*
X0032623Y0073733D01*
X0033121Y0072134D02*
X0039546Y0072134D01*
X0039564Y0070536D02*
X0033619Y0070536D01*
X0034117Y0068937D02*
X0041162Y0068937D01*
X0040263Y0067339D02*
X0034615Y0067339D01*
X0035330Y0065740D02*
X0039746Y0065740D01*
X0039746Y0064142D02*
X0036050Y0064142D01*
X0036769Y0062543D02*
X0039965Y0062543D01*
X0041563Y0060945D02*
X0037489Y0060945D01*
X0058844Y0060945D02*
X0088309Y0060945D01*
X0088309Y0059346D02*
X0058844Y0059346D01*
X0058844Y0057748D02*
X0088309Y0057748D01*
X0088402Y0056149D02*
X0058844Y0056149D01*
X0058844Y0054551D02*
X0088322Y0054551D01*
X0088322Y0052952D02*
X0058844Y0052952D01*
X0058844Y0051354D02*
X0088499Y0051354D01*
X0088322Y0049755D02*
X0058844Y0049755D01*
X0058844Y0048157D02*
X0088322Y0048157D01*
X0088322Y0046558D02*
X0059262Y0046558D01*
X0076142Y0066761D02*
X0069173Y0073729D01*
X0069173Y0076446D01*
X0079173Y0076446D02*
X0090551Y0076446D01*
X0079173Y0086446D02*
X0083504Y0090776D01*
X0103136Y0089718D02*
X0111226Y0089718D01*
X0112824Y0088120D02*
X0103136Y0088120D01*
X0096183Y0060945D02*
X0095471Y0060945D01*
X0095471Y0059346D02*
X0096183Y0059346D01*
X0096183Y0057748D02*
X0095471Y0057748D01*
X0095378Y0056149D02*
X0096276Y0056149D01*
X0096196Y0054551D02*
X0095459Y0054551D01*
X0095459Y0052952D02*
X0096196Y0052952D01*
X0096373Y0051354D02*
X0095281Y0051354D01*
X0095459Y0049755D02*
X0096196Y0049755D01*
X0096196Y0048157D02*
X0095459Y0048157D01*
X0091890Y0053769D02*
X0091890Y0058887D01*
X0099764Y0058887D02*
X0099764Y0053769D01*
X0100866Y0009793D02*
X0141969Y0009793D01*
X0133246Y0008194D02*
X0109589Y0008194D01*
X0196389Y0057748D02*
X0203908Y0057748D01*
X0204627Y0059346D02*
X0197987Y0059346D01*
X0199352Y0060945D02*
X0205346Y0060945D01*
X0206066Y0062543D02*
X0199352Y0062543D01*
X0199352Y0064142D02*
X0206785Y0064142D01*
X0207505Y0065740D02*
X0198548Y0065740D01*
X0197823Y0067339D02*
X0208220Y0067339D01*
X0208718Y0068937D02*
X0199152Y0068937D01*
X0199152Y0070536D02*
X0209216Y0070536D01*
X0209714Y0072134D02*
X0199152Y0072134D01*
X0198146Y0073733D02*
X0210212Y0073733D01*
X0210711Y0075332D02*
X0196548Y0075332D01*
X0144252Y0106524D02*
X0139528Y0106524D01*
X0135197Y0102194D01*
X0138904Y0102506D02*
X0139699Y0102506D01*
X0139699Y0100908D02*
X0138778Y0100908D01*
X0138538Y0099309D02*
X0139699Y0099309D01*
X0123856Y0136075D02*
X0123117Y0136075D01*
X0129074Y0142469D02*
X0129509Y0142469D01*
X0140885Y0142469D02*
X0158388Y0142469D01*
X0158388Y0140870D02*
X0141128Y0140870D01*
X0141653Y0139272D02*
X0158388Y0139272D01*
X0158388Y0150462D02*
X0108057Y0150462D01*
X0108057Y0152060D02*
X0158388Y0152060D01*
X0158388Y0153659D02*
X0108057Y0153659D01*
X0108057Y0155257D02*
X0158388Y0155257D01*
X0158388Y0156856D02*
X0108057Y0156856D01*
X0108057Y0158454D02*
X0158388Y0158454D01*
X0158388Y0160053D02*
X0108057Y0160053D01*
X0108057Y0161651D02*
X0150544Y0161651D01*
X0149197Y0163250D02*
X0108057Y0163250D01*
X0108057Y0164848D02*
X0148739Y0164848D01*
X0148917Y0166447D02*
X0108057Y0166447D01*
X0108057Y0168045D02*
X0149869Y0168045D01*
X0155958Y0168045D02*
X0157743Y0168045D01*
X0157071Y0163250D02*
X0156630Y0163250D01*
X0155283Y0161651D02*
X0158388Y0161651D01*
X0173036Y0163250D02*
X0189428Y0163250D01*
X0187830Y0164848D02*
X0173036Y0164848D01*
X0173036Y0166447D02*
X0186231Y0166447D01*
X0184633Y0168045D02*
X0173024Y0168045D01*
X0178971Y0172841D02*
X0108057Y0172841D01*
X0108057Y0174439D02*
X0176930Y0174439D01*
X0174890Y0176038D02*
X0108057Y0176038D01*
X0108057Y0177636D02*
X0172465Y0177636D01*
X0169821Y0179235D02*
X0107359Y0179235D01*
X0105761Y0180833D02*
X0167177Y0180833D01*
X0164525Y0182432D02*
X0105685Y0182432D01*
X0105653Y0184030D02*
X0160973Y0184030D01*
X0157421Y0185629D02*
X0085414Y0185629D01*
X0086906Y0184935D02*
X0085969Y0183998D01*
X0085969Y0177870D01*
X0086906Y0176932D01*
X0086983Y0176932D01*
X0086983Y0170920D01*
X0086109Y0170920D01*
X0085172Y0169982D01*
X0085172Y0168951D01*
X0071610Y0168951D01*
X0070211Y0167553D01*
X0052614Y0149955D01*
X0050676Y0149955D01*
X0049739Y0149018D01*
X0049739Y0145527D01*
X0049769Y0145497D01*
X0049661Y0145310D01*
X0049539Y0144852D01*
X0049539Y0143532D01*
X0049539Y0142213D01*
X0049661Y0141755D01*
X0049769Y0141568D01*
X0049739Y0141538D01*
X0049739Y0138047D01*
X0050676Y0137109D01*
X0055939Y0137109D01*
X0056876Y0138047D01*
X0056876Y0141538D01*
X0056845Y0141568D01*
X0056953Y0141755D01*
X0057076Y0142213D01*
X0057076Y0143532D01*
X0053307Y0143532D01*
X0049539Y0143532D01*
X0053307Y0143532D01*
X0053307Y0143532D01*
X0053307Y0143532D01*
X0057076Y0143532D01*
X0057076Y0144852D01*
X0056953Y0145310D01*
X0056845Y0145497D01*
X0056876Y0145527D01*
X0056876Y0147465D01*
X0073588Y0164176D01*
X0085172Y0164176D01*
X0085172Y0163145D01*
X0086109Y0162208D01*
X0097671Y0162208D01*
X0098608Y0163145D01*
X0098608Y0169982D01*
X0097671Y0170920D01*
X0091758Y0170920D01*
X0091758Y0176932D01*
X0091834Y0176932D01*
X0092771Y0177870D01*
X0092771Y0183998D01*
X0091834Y0184935D01*
X0086906Y0184935D01*
X0086001Y0184030D02*
X0081862Y0184030D01*
X0078311Y0182432D02*
X0085969Y0182432D01*
X0085969Y0180833D02*
X0075658Y0180833D01*
X0073014Y0179235D02*
X0085969Y0179235D01*
X0086202Y0177636D02*
X0070370Y0177636D01*
X0067945Y0176038D02*
X0086983Y0176038D01*
X0086983Y0174439D02*
X0065905Y0174439D01*
X0063864Y0172841D02*
X0086983Y0172841D01*
X0086983Y0171242D02*
X0061824Y0171242D01*
X0059801Y0169644D02*
X0085172Y0169644D01*
X0085172Y0163250D02*
X0072661Y0163250D01*
X0071062Y0161651D02*
X0103282Y0161651D01*
X0103282Y0160053D02*
X0069464Y0160053D01*
X0067865Y0158454D02*
X0103282Y0158454D01*
X0103282Y0156856D02*
X0066267Y0156856D01*
X0064668Y0155257D02*
X0103282Y0155257D01*
X0103282Y0153659D02*
X0063070Y0153659D01*
X0061471Y0152060D02*
X0103282Y0152060D01*
X0103282Y0150462D02*
X0059873Y0150462D01*
X0059975Y0148863D02*
X0058274Y0148863D01*
X0056876Y0147265D02*
X0059975Y0147265D01*
X0059975Y0145666D02*
X0056876Y0145666D01*
X0057076Y0144068D02*
X0075723Y0144068D01*
X0071786Y0136075D02*
X0071735Y0136075D01*
X0071584Y0134476D02*
X0054390Y0134476D01*
X0056503Y0137673D02*
X0060348Y0137673D01*
X0059975Y0139272D02*
X0056876Y0139272D01*
X0056876Y0140870D02*
X0059975Y0140870D01*
X0060907Y0142469D02*
X0057076Y0142469D01*
X0049739Y0140870D02*
X0038103Y0140870D01*
X0037384Y0139272D02*
X0049739Y0139272D01*
X0050112Y0137673D02*
X0036664Y0137673D01*
X0035945Y0136075D02*
X0067163Y0136075D01*
X0066517Y0142469D02*
X0066181Y0142469D01*
X0056317Y0153659D02*
X0045574Y0153659D01*
X0044482Y0152060D02*
X0054719Y0152060D01*
X0053120Y0150462D02*
X0043516Y0150462D01*
X0042550Y0148863D02*
X0049739Y0148863D01*
X0049739Y0147265D02*
X0041583Y0147265D01*
X0040617Y0145666D02*
X0049739Y0145666D01*
X0049539Y0144068D02*
X0039651Y0144068D01*
X0038822Y0142469D02*
X0049539Y0142469D01*
X0045827Y0135490D02*
X0045827Y0131721D01*
X0045827Y0127953D01*
X0045827Y0131721D01*
X0045827Y0131721D01*
X0042452Y0131721D01*
X0045827Y0131721D01*
X0045827Y0131721D01*
X0045827Y0135490D01*
X0045827Y0134476D02*
X0045827Y0134476D01*
X0045827Y0132878D02*
X0045827Y0132878D01*
X0045827Y0131721D02*
X0045827Y0131721D01*
X0045827Y0131279D02*
X0045827Y0131279D01*
X0045827Y0129681D02*
X0045827Y0129681D01*
X0045827Y0128082D02*
X0045827Y0128082D01*
X0046970Y0126484D02*
X0032550Y0126484D01*
X0033048Y0128082D02*
X0043545Y0128082D01*
X0042452Y0129681D02*
X0033546Y0129681D01*
X0034044Y0131279D02*
X0042452Y0131279D01*
X0042452Y0132878D02*
X0034542Y0132878D01*
X0035225Y0134476D02*
X0042628Y0134476D01*
X0046970Y0124885D02*
X0032052Y0124885D01*
X0031554Y0123287D02*
X0046970Y0123287D01*
X0072205Y0123287D02*
X0072205Y0123287D01*
X0072205Y0124885D02*
X0072205Y0124885D01*
X0057916Y0155257D02*
X0046827Y0155257D01*
X0048079Y0156856D02*
X0059514Y0156856D01*
X0061113Y0158454D02*
X0049331Y0158454D01*
X0050584Y0160053D02*
X0062711Y0160053D01*
X0064310Y0161651D02*
X0051836Y0161651D01*
X0053407Y0163250D02*
X0065908Y0163250D01*
X0067507Y0164848D02*
X0055005Y0164848D01*
X0056604Y0166447D02*
X0069105Y0166447D01*
X0070704Y0168045D02*
X0058202Y0168045D01*
X0089172Y0187227D02*
X0153663Y0187227D01*
X0148533Y0188826D02*
X0094302Y0188826D01*
X0099592Y0190424D02*
X0143243Y0190424D01*
X0134520Y0192023D02*
X0108315Y0192023D01*
X0098915Y0184030D02*
X0092739Y0184030D01*
X0092771Y0182432D02*
X0098883Y0182432D01*
X0098883Y0180833D02*
X0092771Y0180833D01*
X0092771Y0179235D02*
X0098883Y0179235D01*
X0099116Y0177636D02*
X0092538Y0177636D01*
X0091758Y0176038D02*
X0103282Y0176038D01*
X0103282Y0174439D02*
X0091758Y0174439D01*
X0091758Y0172841D02*
X0103282Y0172841D01*
X0103282Y0171242D02*
X0091758Y0171242D01*
X0098608Y0169644D02*
X0103282Y0169644D01*
X0103282Y0168045D02*
X0098608Y0168045D01*
X0098608Y0166447D02*
X0103282Y0166447D01*
X0103282Y0164848D02*
X0098608Y0164848D01*
X0098608Y0163250D02*
X0103282Y0163250D01*
X0108057Y0169644D02*
X0183034Y0169644D01*
X0181011Y0171242D02*
X0108057Y0171242D01*
X0113543Y0147265D02*
X0113544Y0147265D01*
X0113543Y0145666D02*
X0113544Y0145666D01*
X0194193Y0132878D02*
X0208293Y0132878D01*
X0208791Y0131279D02*
X0195791Y0131279D01*
X0196484Y0129681D02*
X0209289Y0129681D01*
X0209787Y0128082D02*
X0196484Y0128082D01*
X0195860Y0126484D02*
X0210285Y0126484D01*
X0210783Y0124885D02*
X0194262Y0124885D01*
D31*
X0192284Y0092351D03*
X0150945Y0092351D03*
X0135197Y0102194D03*
X0147008Y0135658D03*
X0097796Y0135658D03*
X0087953Y0125816D03*
X0082047Y0119910D03*
X0064331Y0119910D03*
X0050551Y0125816D03*
X0085984Y0070698D03*
X0091890Y0058887D03*
X0099764Y0058887D03*
X0101733Y0035265D03*
X0056457Y0043139D03*
D32*
X0056457Y0102194D01*
X0064331Y0110068D01*
X0064331Y0119910D01*
X0072205Y0117154D02*
X0072992Y0117154D01*
X0089922Y0100225D01*
X0098583Y0100225D01*
X0098583Y0097076D02*
X0089134Y0097076D01*
X0084016Y0102194D01*
X0080079Y0102194D01*
X0072205Y0110068D01*
X0064331Y0110068D01*
X0050551Y0125816D02*
X0050551Y0130934D01*
X0051339Y0131721D01*
X0072205Y0131721D01*
X0074173Y0133690D01*
X0074173Y0138808D01*
X0074961Y0139595D01*
X0078110Y0142745D01*
X0078110Y0147272D01*
X0088740Y0147272D01*
X0091890Y0144123D01*
X0091890Y0141564D01*
X0097796Y0135658D01*
X0111969Y0138414D02*
X0111969Y0123060D01*
X0105670Y0123060D02*
X0105670Y0177548D01*
X0102284Y0180934D01*
X0089370Y0180934D02*
X0089370Y0169083D01*
X0091890Y0166564D01*
X0072599Y0166564D01*
X0053307Y0147272D01*
X0063544Y0147272D02*
X0078110Y0147272D01*
X0069449Y0139595D02*
X0063740Y0139595D01*
X0063544Y0139792D01*
X0098583Y0112824D02*
X0108819Y0112824D01*
X0105670Y0115973D01*
X0105670Y0123060D01*
X0108819Y0112824D02*
X0113544Y0108099D01*
X0129292Y0108099D01*
X0137166Y0115973D01*
X0137166Y0123060D01*
X0141890Y0135658D02*
X0137953Y0139595D01*
X0141890Y0135658D02*
X0147008Y0135658D01*
X0113544Y0138808D02*
X0111969Y0138414D01*
X0113544Y0108099D02*
X0113544Y0090776D01*
X0116693Y0087627D01*
X0111969Y0082902D01*
X0111969Y0077391D01*
X0116693Y0087627D02*
X0144252Y0087627D01*
X0101733Y0035265D02*
X0098977Y0032509D01*
X0098977Y0028867D01*
M02*
