%
M48
M72
T01C0.01969
T02C0.03150
T03C0.03200
T04C0.03543
T05C0.03937
T06C0.05906
%
T01
X69002Y43139
X98530Y70698
X104435Y58887
X112309Y58887
X114278Y35265
X163490Y92351
X147742Y102194
X159553Y135658
X110341Y135658
X100498Y125816
X94593Y119910
X76876Y119910
X63097Y125816
X204829Y92351
T02
X224514Y97272
X224514Y103178
X204829Y118847
X204829Y128847
X181207Y165186
X173333Y165186
X165459Y165186
X57191Y72666
X57191Y64792
X206797Y62824
X206797Y70698
T03
X57191Y90383
X57191Y98257
T04
X81719Y96446
X91719Y96446
X91719Y86446
X91719Y76446
X81719Y76446
X81719Y86446
T05
X144748Y24459
X162548Y24459
T06
X167448Y34259
X139848Y34259
M30
