G75*
%MOIN*%
%OFA0B0*%
%FSLAX25Y25*%
%IPPOS*%
%LPD*%
%AMOC8*
5,1,8,0,0,1.08239X$1,22.5*
%
%ADD10R,0.03950X0.05524*%
%ADD11OC8,0.06600*%
%ADD12OC8,0.07400*%
%ADD13C,0.04756*%
%ADD14C,0.05556*%
%ADD15R,0.09068X0.08674*%
%ADD16R,0.07099X0.07887*%
%ADD17R,0.02375X0.06115*%
%ADD18R,0.04737X0.02965*%
%ADD19R,0.03950X0.04737*%
%ADD20R,0.11036X0.06312*%
%ADD21R,0.04402X0.05603*%
%ADD22OC8,0.06000*%
%ADD23OC8,0.06800*%
%ADD24C,0.08850*%
%ADD25C,0.09650*%
%ADD26OC8,0.05200*%
%ADD27R,0.06706X0.02769*%
%ADD28R,0.02769X0.06706*%
%ADD29R,0.04737X0.03950*%
%ADD30R,0.05524X0.04737*%
%ADD31R,0.05906X0.05906*%
%ADD32R,0.06706X0.06706*%
%ADD33R,0.05150X0.05150*%
%ADD34R,0.05950X0.05950*%
%ADD35C,0.05150*%
%ADD36C,0.05950*%
%ADD37R,0.04762X0.04762*%
D10*
X0165945Y0100776D03*
X0173425Y0100776D03*
X0169685Y0109438D03*
D11*
X0194252Y0070698D03*
X0194252Y0062824D03*
X0044646Y0064792D03*
X0044646Y0072666D03*
X0044646Y0090383D03*
X0044646Y0098257D03*
D12*
X0044646Y0098257D03*
X0044646Y0090383D03*
X0044646Y0072666D03*
X0044646Y0064792D03*
X0194252Y0062824D03*
X0194252Y0070698D03*
D13*
X0211969Y0097272D03*
X0211969Y0103178D03*
D14*
X0211969Y0103178D03*
X0211969Y0097272D03*
D15*
X0106063Y0026800D03*
X0081654Y0026800D03*
D16*
X0077717Y0017745D03*
X0110000Y0017745D03*
D17*
X0098977Y0028867D03*
X0096418Y0028867D03*
X0093859Y0028867D03*
X0091299Y0028867D03*
X0088740Y0028867D03*
D18*
X0063544Y0139792D03*
X0063544Y0147272D03*
X0053307Y0147272D03*
X0053307Y0143532D03*
X0053307Y0139792D03*
D19*
X0051339Y0131721D03*
X0045827Y0131721D03*
X0069449Y0139595D03*
X0074961Y0139595D03*
X0120630Y0139595D03*
X0126142Y0139595D03*
X0132441Y0139595D03*
X0137953Y0139595D03*
X0120236Y0049044D03*
X0114725Y0049044D03*
D20*
X0091890Y0144123D03*
X0091890Y0166564D03*
D21*
X0089370Y0180934D03*
X0102284Y0180934D03*
D22*
X0192284Y0128847D03*
X0192284Y0118847D03*
X0150003Y0024459D03*
X0132203Y0024459D03*
D23*
X0132203Y0024459D03*
X0150003Y0024459D03*
D24*
X0154903Y0034259D03*
X0127303Y0034259D03*
D25*
X0127303Y0034259D03*
X0154903Y0034259D03*
D26*
X0192284Y0118847D03*
X0192284Y0128847D03*
D27*
X0144252Y0115973D03*
X0144252Y0112824D03*
X0144252Y0109674D03*
X0144252Y0106524D03*
X0144252Y0103375D03*
X0144252Y0100225D03*
X0144252Y0097076D03*
X0144252Y0093926D03*
X0144252Y0090776D03*
X0144252Y0087627D03*
X0144252Y0084477D03*
X0098583Y0084477D03*
X0098583Y0087627D03*
X0098583Y0090776D03*
X0098583Y0093926D03*
X0098583Y0097076D03*
X0098583Y0100225D03*
X0098583Y0103375D03*
X0098583Y0106524D03*
X0098583Y0109674D03*
X0098583Y0112824D03*
X0098583Y0115973D03*
D28*
X0105670Y0123060D03*
X0108819Y0123060D03*
X0111969Y0123060D03*
X0115118Y0123060D03*
X0118268Y0123060D03*
X0121418Y0123060D03*
X0124567Y0123060D03*
X0127717Y0123060D03*
X0130866Y0123060D03*
X0134016Y0123060D03*
X0137166Y0123060D03*
X0137166Y0077391D03*
X0134016Y0077391D03*
X0130866Y0077391D03*
X0127717Y0077391D03*
X0124567Y0077391D03*
X0121418Y0077391D03*
X0118268Y0077391D03*
X0115118Y0077391D03*
X0111969Y0077391D03*
X0108819Y0077391D03*
X0105670Y0077391D03*
D29*
X0099764Y0053769D03*
X0099764Y0048257D03*
X0091890Y0048257D03*
X0091890Y0053769D03*
X0135197Y0058099D03*
X0135197Y0063611D03*
X0072205Y0117154D03*
X0072205Y0122666D03*
X0113544Y0138808D03*
X0113544Y0144320D03*
D30*
X0113544Y0064792D03*
X0113544Y0056918D03*
X0125355Y0056918D03*
X0125355Y0064792D03*
D31*
X0079173Y0076446D03*
X0069173Y0076446D03*
X0069173Y0086446D03*
X0079173Y0086446D03*
X0079173Y0096446D03*
X0069173Y0096446D03*
D32*
X0069173Y0096446D03*
X0079173Y0096446D03*
X0079173Y0086446D03*
X0069173Y0086446D03*
X0069173Y0076446D03*
X0079173Y0076446D03*
D33*
X0168662Y0165186D03*
D34*
X0168662Y0165186D03*
D35*
X0160788Y0165186D03*
X0152914Y0165186D03*
D36*
X0152914Y0165186D03*
X0160788Y0165186D03*
D37*
X0056457Y0043139D03*
X0085984Y0070698D03*
X0091890Y0058887D03*
X0099764Y0058887D03*
X0101733Y0035265D03*
X0150945Y0092351D03*
X0135197Y0102194D03*
X0147008Y0135658D03*
X0192284Y0092351D03*
X0097796Y0135658D03*
X0087953Y0125816D03*
X0082047Y0119910D03*
X0064331Y0119910D03*
X0050551Y0125816D03*
M02*
