G75*
%MOIN*%
%OFA0B0*%
%FSLAX25Y25*%
%IPPOS*%
%LPD*%
%AMOC8*
5,1,8,0,0,1.08239X$1,22.5*
%
%ADD10R,0.03150X0.04724*%
%ADD11OC8,0.06600*%
%ADD12C,0.04756*%
%ADD13R,0.08268X0.07874*%
%ADD14R,0.06299X0.07087*%
%ADD15R,0.01575X0.05315*%
%ADD16R,0.03937X0.02165*%
%ADD17R,0.03150X0.03937*%
%ADD18R,0.10236X0.05512*%
%ADD19R,0.03602X0.04803*%
%ADD20OC8,0.06000*%
%ADD21C,0.08850*%
%ADD22OC8,0.05200*%
%ADD23R,0.05906X0.01969*%
%ADD24R,0.01969X0.05906*%
%ADD25R,0.03937X0.03150*%
%ADD26R,0.04724X0.03937*%
%ADD27R,0.05906X0.05906*%
%ADD28R,0.05150X0.05150*%
%ADD29C,0.05150*%
%ADD30C,0.01600*%
%ADD31R,0.03962X0.03962*%
%ADD32C,0.01575*%
D10*
X0178490Y0100776D03*
X0185971Y0100776D03*
X0182230Y0109438D03*
D11*
X0206797Y0070698D03*
X0206797Y0062824D03*
X0057191Y0064792D03*
X0057191Y0072666D03*
X0057191Y0090383D03*
X0057191Y0098257D03*
D12*
X0224514Y0097272D03*
X0224514Y0103178D03*
D13*
X0118608Y0026800D03*
X0094199Y0026800D03*
D14*
X0090262Y0017745D03*
X0122545Y0017745D03*
D15*
X0111522Y0028867D03*
X0108963Y0028867D03*
X0106404Y0028867D03*
X0103845Y0028867D03*
X0101285Y0028867D03*
D16*
X0076089Y0139792D03*
X0076089Y0147272D03*
X0065852Y0147272D03*
X0065852Y0143532D03*
X0065852Y0139792D03*
D17*
X0063884Y0131721D03*
X0058372Y0131721D03*
X0081994Y0139595D03*
X0087506Y0139595D03*
X0133175Y0139595D03*
X0138687Y0139595D03*
X0144986Y0139595D03*
X0150498Y0139595D03*
X0132782Y0049044D03*
X0127270Y0049044D03*
D18*
X0104435Y0144123D03*
X0104435Y0166564D03*
D19*
X0101915Y0180934D03*
X0114829Y0180934D03*
D20*
X0144748Y0024459D03*
X0162548Y0024459D03*
D21*
X0167448Y0034259D03*
X0139848Y0034259D03*
D22*
X0204829Y0118847D03*
X0204829Y0128847D03*
D23*
X0156797Y0115973D03*
X0156797Y0112824D03*
X0156797Y0109674D03*
X0156797Y0106524D03*
X0156797Y0103375D03*
X0156797Y0100225D03*
X0156797Y0097076D03*
X0156797Y0093926D03*
X0156797Y0090776D03*
X0156797Y0087627D03*
X0156797Y0084477D03*
X0111128Y0084477D03*
X0111128Y0087627D03*
X0111128Y0090776D03*
X0111128Y0093926D03*
X0111128Y0097076D03*
X0111128Y0100225D03*
X0111128Y0103375D03*
X0111128Y0106524D03*
X0111128Y0109674D03*
X0111128Y0112824D03*
X0111128Y0115973D03*
D24*
X0118215Y0123060D03*
X0121364Y0123060D03*
X0124514Y0123060D03*
X0127663Y0123060D03*
X0130813Y0123060D03*
X0133963Y0123060D03*
X0137112Y0123060D03*
X0140262Y0123060D03*
X0143411Y0123060D03*
X0146561Y0123060D03*
X0149711Y0123060D03*
X0149711Y0077391D03*
X0146561Y0077391D03*
X0143411Y0077391D03*
X0140262Y0077391D03*
X0137112Y0077391D03*
X0133963Y0077391D03*
X0130813Y0077391D03*
X0127663Y0077391D03*
X0124514Y0077391D03*
X0121364Y0077391D03*
X0118215Y0077391D03*
D25*
X0112309Y0053769D03*
X0112309Y0048257D03*
X0104435Y0048257D03*
X0104435Y0053769D03*
X0147742Y0058099D03*
X0147742Y0063611D03*
X0084750Y0117154D03*
X0084750Y0122666D03*
X0126089Y0138808D03*
X0126089Y0144320D03*
D26*
X0126089Y0064792D03*
X0126089Y0056918D03*
X0137900Y0056918D03*
X0137900Y0064792D03*
D27*
X0091719Y0076446D03*
X0091719Y0086446D03*
X0091719Y0096446D03*
X0081719Y0096446D03*
X0081719Y0086446D03*
X0081719Y0076446D03*
D28*
X0181207Y0165186D03*
D29*
X0173333Y0165186D03*
X0165459Y0165186D03*
D30*
X0066197Y0046558D02*
X0058302Y0046558D01*
X0057569Y0047494D02*
X0051770Y0057087D01*
X0047170Y0067309D01*
X0043835Y0078011D01*
X0041814Y0089036D01*
X0041137Y0100225D01*
X0041814Y0111414D01*
X0043835Y0122440D01*
X0047170Y0133141D01*
X0051770Y0143363D01*
X0057569Y0152956D01*
X0064482Y0161780D01*
X0072408Y0169706D01*
X0081232Y0176619D01*
X0090825Y0182418D01*
X0101046Y0187018D01*
X0111748Y0190353D01*
X0122774Y0192374D01*
X0133963Y0193050D01*
X0145151Y0192374D01*
X0156177Y0190353D01*
X0166879Y0187018D01*
X0177101Y0182418D01*
X0186693Y0176619D01*
X0195517Y0169706D01*
X0203443Y0161780D01*
X0210356Y0152956D01*
X0216155Y0143363D01*
X0220756Y0133141D01*
X0224091Y0122440D01*
X0226111Y0111414D01*
X0226396Y0106704D01*
X0225305Y0107156D01*
X0223723Y0107156D01*
X0222261Y0106550D01*
X0221141Y0105431D01*
X0220536Y0103969D01*
X0220536Y0102387D01*
X0221141Y0100925D01*
X0221841Y0100225D01*
X0221141Y0099526D01*
X0220795Y0098688D01*
X0217634Y0098688D01*
X0207229Y0109093D01*
X0207229Y0115308D01*
X0209029Y0117108D01*
X0209029Y0120587D01*
X0206568Y0123047D01*
X0203089Y0123047D01*
X0201289Y0121247D01*
X0191162Y0121247D01*
X0190280Y0120882D01*
X0182798Y0113400D01*
X0179993Y0113400D01*
X0179056Y0112463D01*
X0179056Y0106413D01*
X0179993Y0105476D01*
X0184468Y0105476D01*
X0185405Y0106413D01*
X0185405Y0109218D01*
X0192634Y0116447D01*
X0201289Y0116447D01*
X0202429Y0115308D01*
X0202429Y0107622D01*
X0202794Y0106740D01*
X0214605Y0094929D01*
X0214605Y0094929D01*
X0215280Y0094254D01*
X0216162Y0093888D01*
X0222289Y0093888D01*
X0223723Y0093294D01*
X0225305Y0093294D01*
X0226396Y0093746D01*
X0226111Y0089036D01*
X0224091Y0078011D01*
X0220756Y0067309D01*
X0216155Y0057087D01*
X0210356Y0047494D01*
X0203443Y0038671D01*
X0195517Y0030745D01*
X0186693Y0023832D01*
X0177101Y0018033D01*
X0166879Y0013432D01*
X0156177Y0010097D01*
X0145152Y0008077D01*
X0133963Y0007400D01*
X0122774Y0008077D01*
X0111748Y0010097D01*
X0101046Y0013432D01*
X0095011Y0016148D01*
X0095011Y0021263D01*
X0098995Y0021263D01*
X0099933Y0022200D01*
X0099933Y0024497D01*
X0100261Y0024409D01*
X0101285Y0024409D01*
X0101285Y0028867D01*
X0101285Y0033324D01*
X0100261Y0033324D01*
X0099803Y0033202D01*
X0099393Y0032965D01*
X0099058Y0032630D01*
X0098889Y0032337D01*
X0089402Y0032337D01*
X0088465Y0031400D01*
X0088465Y0022888D01*
X0086450Y0022888D01*
X0085512Y0021951D01*
X0085512Y0021244D01*
X0081232Y0023832D01*
X0072408Y0030745D01*
X0064482Y0038671D01*
X0057569Y0047494D01*
X0057169Y0048157D02*
X0066615Y0048157D01*
X0066615Y0046720D02*
X0066358Y0046720D01*
X0065421Y0045782D01*
X0065421Y0040495D01*
X0066358Y0039557D01*
X0071646Y0039557D01*
X0072583Y0040495D01*
X0072583Y0045782D01*
X0071646Y0046720D01*
X0071389Y0046720D01*
X0071389Y0101205D01*
X0077865Y0107680D01*
X0083761Y0107680D01*
X0090237Y0101205D01*
X0090443Y0100998D01*
X0088103Y0100998D01*
X0087166Y0100061D01*
X0087166Y0092830D01*
X0088103Y0091893D01*
X0093772Y0091893D01*
X0092877Y0090998D01*
X0088103Y0090998D01*
X0087166Y0090061D01*
X0087166Y0084393D01*
X0086271Y0085287D01*
X0086271Y0090061D01*
X0085334Y0090998D01*
X0078103Y0090998D01*
X0077166Y0090061D01*
X0077166Y0082830D01*
X0078103Y0081893D01*
X0082877Y0081893D01*
X0083772Y0080998D01*
X0078103Y0080998D01*
X0077166Y0080061D01*
X0077166Y0072830D01*
X0078103Y0071893D01*
X0080161Y0071893D01*
X0086652Y0065401D01*
X0087328Y0064726D01*
X0088210Y0064361D01*
X0120661Y0064361D01*
X0121543Y0064726D01*
X0121926Y0065110D01*
X0121926Y0064976D01*
X0125904Y0064976D01*
X0125904Y0064608D01*
X0121926Y0064608D01*
X0121926Y0062587D01*
X0122049Y0062129D01*
X0122286Y0061718D01*
X0122621Y0061383D01*
X0123032Y0061146D01*
X0123489Y0061024D01*
X0125904Y0061024D01*
X0125904Y0064608D01*
X0126273Y0064608D01*
X0126273Y0061024D01*
X0127016Y0061024D01*
X0126430Y0060487D01*
X0123064Y0060487D01*
X0122126Y0059549D01*
X0122126Y0054287D01*
X0123064Y0053350D01*
X0124870Y0053350D01*
X0124870Y0052450D01*
X0124095Y0051675D01*
X0124095Y0046413D01*
X0125032Y0045476D01*
X0129507Y0045476D01*
X0129884Y0045853D01*
X0130102Y0045635D01*
X0130512Y0045398D01*
X0130970Y0045276D01*
X0132781Y0045276D01*
X0132781Y0049044D01*
X0132782Y0049044D01*
X0132782Y0049044D01*
X0136156Y0049044D01*
X0136156Y0046839D01*
X0136034Y0046381D01*
X0135797Y0045970D01*
X0135462Y0045635D01*
X0135051Y0045398D01*
X0134593Y0045276D01*
X0132782Y0045276D01*
X0132782Y0049044D01*
X0136156Y0049044D01*
X0136156Y0051250D01*
X0136034Y0051707D01*
X0135797Y0052118D01*
X0135462Y0052453D01*
X0135051Y0052690D01*
X0134593Y0052813D01*
X0132782Y0052813D01*
X0132782Y0049044D01*
X0132781Y0049044D01*
X0132781Y0052813D01*
X0130970Y0052813D01*
X0130512Y0052690D01*
X0130102Y0052453D01*
X0129884Y0052236D01*
X0129670Y0052450D01*
X0129670Y0053906D01*
X0130051Y0054287D01*
X0130051Y0057294D01*
X0132123Y0059194D01*
X0132173Y0059214D01*
X0132473Y0059515D01*
X0132787Y0059802D01*
X0132809Y0059851D01*
X0132848Y0059889D01*
X0133010Y0060282D01*
X0133190Y0060668D01*
X0133192Y0060722D01*
X0133213Y0060771D01*
X0133213Y0061197D01*
X0133232Y0061622D01*
X0133213Y0061672D01*
X0133213Y0065781D01*
X0133937Y0065129D01*
X0133937Y0062161D01*
X0134875Y0061224D01*
X0138179Y0061224D01*
X0138210Y0061211D01*
X0138449Y0061211D01*
X0138684Y0061164D01*
X0138922Y0061211D01*
X0144336Y0061211D01*
X0144551Y0060997D01*
X0144333Y0060779D01*
X0144096Y0060369D01*
X0143974Y0059911D01*
X0143974Y0058099D01*
X0143974Y0056287D01*
X0144096Y0055830D01*
X0144333Y0055419D01*
X0144668Y0055084D01*
X0145079Y0054847D01*
X0145537Y0054724D01*
X0147742Y0054724D01*
X0147742Y0058099D01*
X0147742Y0058099D01*
X0143974Y0058099D01*
X0147742Y0058099D01*
X0147742Y0058099D01*
X0147742Y0054724D01*
X0149948Y0054724D01*
X0150405Y0054847D01*
X0150816Y0055084D01*
X0151151Y0055419D01*
X0151388Y0055830D01*
X0151511Y0056287D01*
X0151511Y0058099D01*
X0147742Y0058099D01*
X0147742Y0058099D01*
X0151511Y0058099D01*
X0151511Y0059911D01*
X0151388Y0060369D01*
X0151151Y0060779D01*
X0150934Y0060997D01*
X0151311Y0061373D01*
X0151311Y0065849D01*
X0150373Y0066786D01*
X0145111Y0066786D01*
X0144336Y0066011D01*
X0141862Y0066011D01*
X0141862Y0067423D01*
X0140925Y0068361D01*
X0137522Y0068361D01*
X0136363Y0069404D01*
X0136363Y0072838D01*
X0151358Y0072838D01*
X0152295Y0073775D01*
X0152295Y0081006D01*
X0151358Y0081943D01*
X0129476Y0081943D01*
X0129342Y0082021D01*
X0128885Y0082143D01*
X0127663Y0082143D01*
X0127131Y0082143D01*
X0130227Y0085239D01*
X0152045Y0085239D01*
X0152045Y0084477D01*
X0152045Y0083256D01*
X0152167Y0082798D01*
X0152404Y0082388D01*
X0152739Y0082053D01*
X0153150Y0081816D01*
X0153608Y0081693D01*
X0156797Y0081693D01*
X0156797Y0084477D01*
X0152045Y0084477D01*
X0156797Y0084477D01*
X0156797Y0084477D01*
X0156797Y0084477D01*
X0156797Y0081693D01*
X0159987Y0081693D01*
X0160445Y0081816D01*
X0160855Y0082053D01*
X0161190Y0082388D01*
X0161427Y0082798D01*
X0161550Y0083256D01*
X0161550Y0084477D01*
X0156797Y0084477D01*
X0156797Y0084477D01*
X0161550Y0084477D01*
X0161550Y0085227D01*
X0163284Y0085227D01*
X0166068Y0082443D01*
X0166950Y0082077D01*
X0189558Y0082077D01*
X0190440Y0082443D01*
X0191115Y0083118D01*
X0197949Y0089951D01*
X0201248Y0089951D01*
X0201248Y0089707D01*
X0202185Y0088770D01*
X0207473Y0088770D01*
X0208410Y0089707D01*
X0208410Y0094995D01*
X0207473Y0095932D01*
X0202185Y0095932D01*
X0201248Y0094995D01*
X0201248Y0094751D01*
X0196477Y0094751D01*
X0195595Y0094386D01*
X0188087Y0086877D01*
X0168421Y0086877D01*
X0166331Y0088967D01*
X0167071Y0089707D01*
X0167071Y0094995D01*
X0166134Y0095932D01*
X0161350Y0095932D01*
X0161350Y0110424D01*
X0165646Y0110424D01*
X0175315Y0100754D01*
X0175315Y0097751D01*
X0176253Y0096814D01*
X0180728Y0096814D01*
X0181665Y0097751D01*
X0181665Y0103801D01*
X0180728Y0104739D01*
X0178119Y0104739D01*
X0167999Y0114858D01*
X0167117Y0115224D01*
X0161350Y0115224D01*
X0161350Y0117620D01*
X0160413Y0118557D01*
X0153182Y0118557D01*
X0152245Y0117620D01*
X0152245Y0108924D01*
X0151595Y0108924D01*
X0150713Y0108559D01*
X0150038Y0107884D01*
X0150038Y0107884D01*
X0147929Y0105775D01*
X0145098Y0105775D01*
X0144161Y0104838D01*
X0144161Y0099550D01*
X0145098Y0098613D01*
X0150386Y0098613D01*
X0151323Y0099550D01*
X0151323Y0102381D01*
X0152245Y0103302D01*
X0152245Y0090014D01*
X0130227Y0090014D01*
X0128476Y0091765D01*
X0128476Y0105712D01*
X0142826Y0105712D01*
X0150700Y0113586D01*
X0152098Y0114984D01*
X0152098Y0119247D01*
X0152295Y0119444D01*
X0152295Y0122250D01*
X0155429Y0125384D01*
X0163968Y0125384D01*
X0164850Y0125750D01*
X0174692Y0135592D01*
X0175367Y0136267D01*
X0175733Y0137149D01*
X0175733Y0161682D01*
X0176832Y0162781D01*
X0176832Y0162374D01*
X0176955Y0161916D01*
X0177192Y0161506D01*
X0177527Y0161171D01*
X0177937Y0160934D01*
X0178395Y0160811D01*
X0181207Y0160811D01*
X0184019Y0160811D01*
X0184476Y0160934D01*
X0184887Y0161171D01*
X0185222Y0161506D01*
X0185459Y0161916D01*
X0185582Y0162374D01*
X0185582Y0165186D01*
X0185582Y0167998D01*
X0185459Y0168455D01*
X0185222Y0168866D01*
X0184887Y0169201D01*
X0184476Y0169438D01*
X0184019Y0169561D01*
X0181207Y0169561D01*
X0181207Y0165186D01*
X0185582Y0165186D01*
X0181207Y0165186D01*
X0181207Y0165186D01*
X0181207Y0165186D01*
X0181207Y0169561D01*
X0178395Y0169561D01*
X0177937Y0169438D01*
X0177527Y0169201D01*
X0177192Y0168866D01*
X0176955Y0168455D01*
X0176832Y0167998D01*
X0176832Y0167591D01*
X0175698Y0168725D01*
X0174163Y0169361D01*
X0172502Y0169361D01*
X0170968Y0168725D01*
X0169794Y0167551D01*
X0169396Y0166590D01*
X0168998Y0167551D01*
X0167824Y0168725D01*
X0166289Y0169361D01*
X0164628Y0169361D01*
X0163094Y0168725D01*
X0161919Y0167551D01*
X0161284Y0166016D01*
X0161284Y0164355D01*
X0161919Y0162821D01*
X0163094Y0161647D01*
X0164628Y0161011D01*
X0166289Y0161011D01*
X0167824Y0161647D01*
X0168998Y0162821D01*
X0169396Y0163781D01*
X0169794Y0162821D01*
X0170933Y0161682D01*
X0170933Y0138621D01*
X0162496Y0130184D01*
X0153958Y0130184D01*
X0153076Y0129819D01*
X0152400Y0129144D01*
X0150869Y0127613D01*
X0148374Y0127613D01*
X0148240Y0127690D01*
X0147782Y0127813D01*
X0146561Y0127813D01*
X0145811Y0127813D01*
X0145811Y0136027D01*
X0147224Y0136027D01*
X0147742Y0136545D01*
X0148261Y0136027D01*
X0150690Y0136027D01*
X0153446Y0133271D01*
X0155972Y0133271D01*
X0155972Y0133014D01*
X0156909Y0132077D01*
X0162197Y0132077D01*
X0163134Y0133014D01*
X0163134Y0138302D01*
X0162197Y0139239D01*
X0156909Y0139239D01*
X0155972Y0138302D01*
X0155972Y0138046D01*
X0155424Y0138046D01*
X0153673Y0139797D01*
X0153673Y0142227D01*
X0152736Y0143164D01*
X0148261Y0143164D01*
X0147742Y0142645D01*
X0147224Y0143164D01*
X0142749Y0143164D01*
X0141837Y0142252D01*
X0140925Y0143164D01*
X0136450Y0143164D01*
X0136073Y0142787D01*
X0135855Y0143004D01*
X0135445Y0143241D01*
X0134987Y0143364D01*
X0133175Y0143364D01*
X0131363Y0143364D01*
X0130906Y0143241D01*
X0130495Y0143004D01*
X0130160Y0142669D01*
X0129923Y0142259D01*
X0129800Y0141801D01*
X0129800Y0139595D01*
X0129800Y0137390D01*
X0129923Y0136932D01*
X0130160Y0136522D01*
X0130495Y0136186D01*
X0130906Y0135949D01*
X0131363Y0135827D01*
X0133175Y0135827D01*
X0133175Y0139595D01*
X0133175Y0139595D01*
X0129800Y0139595D01*
X0133175Y0139595D01*
X0133175Y0139595D01*
X0133175Y0135827D01*
X0134987Y0135827D01*
X0135445Y0135949D01*
X0135855Y0136186D01*
X0136073Y0136404D01*
X0136450Y0136027D01*
X0140925Y0136027D01*
X0141011Y0136114D01*
X0141011Y0127613D01*
X0126901Y0127613D01*
X0126901Y0135633D01*
X0128720Y0135633D01*
X0129657Y0136570D01*
X0129657Y0141045D01*
X0129280Y0141422D01*
X0129498Y0141640D01*
X0129734Y0142050D01*
X0129857Y0142508D01*
X0129857Y0144320D01*
X0129857Y0146131D01*
X0129734Y0146589D01*
X0129498Y0147000D01*
X0129162Y0147335D01*
X0128752Y0147572D01*
X0128294Y0147694D01*
X0126089Y0147694D01*
X0126089Y0144320D01*
X0126089Y0144320D01*
X0129857Y0144320D01*
X0126089Y0144320D01*
X0126089Y0144320D01*
X0126089Y0147694D01*
X0123883Y0147694D01*
X0123425Y0147572D01*
X0123015Y0147335D01*
X0122680Y0147000D01*
X0122443Y0146589D01*
X0122320Y0146131D01*
X0122320Y0144320D01*
X0126089Y0144320D01*
X0126089Y0144320D01*
X0122320Y0144320D01*
X0122320Y0142508D01*
X0122443Y0142050D01*
X0122680Y0141640D01*
X0122897Y0141422D01*
X0122520Y0141045D01*
X0122520Y0139797D01*
X0122126Y0139403D01*
X0122126Y0139075D01*
X0121958Y0138795D01*
X0122126Y0138120D01*
X0122126Y0127813D01*
X0121364Y0127813D01*
X0120602Y0127813D01*
X0120602Y0178537D01*
X0119204Y0179935D01*
X0118230Y0180909D01*
X0118230Y0183998D01*
X0117293Y0184935D01*
X0112365Y0184935D01*
X0111428Y0183998D01*
X0111428Y0177870D01*
X0112365Y0176932D01*
X0115454Y0176932D01*
X0115827Y0176559D01*
X0115827Y0126872D01*
X0115630Y0126675D01*
X0115630Y0119444D01*
X0115827Y0119248D01*
X0115827Y0115211D01*
X0115681Y0115211D01*
X0115681Y0117620D01*
X0114744Y0118557D01*
X0107513Y0118557D01*
X0106575Y0117620D01*
X0106575Y0113290D01*
X0102898Y0116967D01*
X0102898Y0122235D01*
X0103142Y0122235D01*
X0104079Y0123172D01*
X0104079Y0128460D01*
X0103142Y0129397D01*
X0097854Y0129397D01*
X0096917Y0128460D01*
X0096917Y0123491D01*
X0091949Y0123491D01*
X0091011Y0122554D01*
X0091011Y0117266D01*
X0091949Y0116329D01*
X0092811Y0116329D01*
X0093233Y0115907D01*
X0104650Y0104490D01*
X0105533Y0104124D01*
X0106375Y0104124D01*
X0106375Y0103375D01*
X0111128Y0103375D01*
X0111128Y0103375D01*
X0115881Y0103375D01*
X0115881Y0104596D01*
X0115758Y0105054D01*
X0115681Y0105188D01*
X0115681Y0110436D01*
X0120375Y0110436D01*
X0123701Y0107110D01*
X0123701Y0089787D01*
X0125100Y0088389D01*
X0125862Y0087627D01*
X0123525Y0085290D01*
X0122126Y0083891D01*
X0122126Y0081943D01*
X0116568Y0081943D01*
X0115630Y0081006D01*
X0115630Y0073775D01*
X0116308Y0073098D01*
X0102111Y0073098D01*
X0102111Y0073341D01*
X0101406Y0074046D01*
X0103574Y0074046D01*
X0104456Y0074411D01*
X0111938Y0081893D01*
X0114744Y0081893D01*
X0115681Y0082830D01*
X0115681Y0101562D01*
X0115758Y0101696D01*
X0115881Y0102154D01*
X0115881Y0103375D01*
X0111128Y0103375D01*
X0111128Y0103375D01*
X0106375Y0103375D01*
X0106375Y0102613D01*
X0103455Y0102613D01*
X0088319Y0117750D01*
X0088319Y0119392D01*
X0087942Y0119769D01*
X0088159Y0119986D01*
X0088396Y0120397D01*
X0088519Y0120854D01*
X0088519Y0122666D01*
X0084750Y0122666D01*
X0080982Y0122666D01*
X0080982Y0120854D01*
X0081104Y0120397D01*
X0081341Y0119986D01*
X0081559Y0119769D01*
X0081182Y0119392D01*
X0081182Y0114917D01*
X0082119Y0113980D01*
X0085336Y0113980D01*
X0094734Y0104581D01*
X0093613Y0104581D01*
X0085739Y0112455D01*
X0079263Y0112455D01*
X0079263Y0116329D01*
X0079520Y0116329D01*
X0080457Y0117266D01*
X0080457Y0122554D01*
X0079520Y0123491D01*
X0074232Y0123491D01*
X0073295Y0122554D01*
X0073295Y0117266D01*
X0074232Y0116329D01*
X0074489Y0116329D01*
X0074489Y0111057D01*
X0066615Y0103183D01*
X0066615Y0046720D01*
X0065421Y0044960D02*
X0059555Y0044960D01*
X0060807Y0043361D02*
X0065421Y0043361D01*
X0065421Y0041763D02*
X0062059Y0041763D01*
X0063312Y0040164D02*
X0065751Y0040164D01*
X0064587Y0038566D02*
X0104004Y0038566D01*
X0104004Y0040164D02*
X0072253Y0040164D01*
X0072583Y0041763D02*
X0104004Y0041763D01*
X0104004Y0043361D02*
X0072583Y0043361D01*
X0072583Y0044960D02*
X0104004Y0044960D01*
X0104004Y0045082D02*
X0104004Y0033124D01*
X0102902Y0033124D01*
X0102768Y0033202D01*
X0102310Y0033324D01*
X0101286Y0033324D01*
X0101286Y0028867D01*
X0101285Y0028867D01*
X0101286Y0028867D01*
X0101286Y0024409D01*
X0102310Y0024409D01*
X0102768Y0024532D01*
X0102902Y0024609D01*
X0112874Y0024609D01*
X0112874Y0022200D01*
X0113812Y0021263D01*
X0117796Y0021263D01*
X0117796Y0013539D01*
X0118733Y0012602D01*
X0126358Y0012602D01*
X0127295Y0013539D01*
X0127295Y0021951D01*
X0126358Y0022888D01*
X0124342Y0022888D01*
X0124342Y0031400D01*
X0123405Y0032337D01*
X0117575Y0032337D01*
X0117859Y0032621D01*
X0117859Y0037908D01*
X0116921Y0038846D01*
X0111634Y0038846D01*
X0111363Y0038575D01*
X0111363Y0043916D01*
X0112528Y0045082D01*
X0114940Y0045082D01*
X0115878Y0046019D01*
X0115878Y0050494D01*
X0115359Y0051013D01*
X0115878Y0051531D01*
X0115878Y0056006D01*
X0115766Y0056118D01*
X0115890Y0056243D01*
X0115890Y0061530D01*
X0114953Y0062468D01*
X0109665Y0062468D01*
X0108728Y0061530D01*
X0108728Y0056243D01*
X0108853Y0056118D01*
X0108741Y0056006D01*
X0108741Y0051531D01*
X0109259Y0051013D01*
X0108741Y0050494D01*
X0108741Y0048082D01*
X0108372Y0047714D01*
X0108004Y0048082D01*
X0108004Y0050494D01*
X0107485Y0051013D01*
X0108004Y0051531D01*
X0108004Y0056006D01*
X0107892Y0056118D01*
X0108016Y0056243D01*
X0108016Y0061530D01*
X0107079Y0062468D01*
X0101791Y0062468D01*
X0100854Y0061530D01*
X0100854Y0056243D01*
X0100979Y0056118D01*
X0100867Y0056006D01*
X0100867Y0051531D01*
X0101385Y0051013D01*
X0100867Y0050494D01*
X0100867Y0046019D01*
X0101804Y0045082D01*
X0104004Y0045082D01*
X0106404Y0046288D02*
X0104435Y0048257D01*
X0106404Y0046288D02*
X0106404Y0028867D01*
X0108963Y0028867D02*
X0108963Y0044910D01*
X0112309Y0048257D01*
X0108741Y0048157D02*
X0108004Y0048157D01*
X0108004Y0049755D02*
X0108741Y0049755D01*
X0108918Y0051354D02*
X0107826Y0051354D01*
X0108004Y0052952D02*
X0108741Y0052952D01*
X0108741Y0054551D02*
X0108004Y0054551D01*
X0107923Y0056149D02*
X0108821Y0056149D01*
X0108728Y0057748D02*
X0108016Y0057748D01*
X0108016Y0059346D02*
X0108728Y0059346D01*
X0108728Y0060945D02*
X0108016Y0060945D01*
X0112309Y0058887D02*
X0112309Y0053769D01*
X0115878Y0054551D02*
X0122126Y0054551D01*
X0122126Y0056149D02*
X0115797Y0056149D01*
X0115890Y0057748D02*
X0122126Y0057748D01*
X0122126Y0059346D02*
X0115890Y0059346D01*
X0115890Y0060945D02*
X0126930Y0060945D01*
X0126273Y0062543D02*
X0125904Y0062543D01*
X0125904Y0064142D02*
X0126273Y0064142D01*
X0126273Y0064976D02*
X0125904Y0064976D01*
X0125904Y0068561D01*
X0125377Y0068561D01*
X0125873Y0069057D01*
X0126548Y0069732D01*
X0126914Y0070614D01*
X0126914Y0072638D01*
X0127663Y0072638D01*
X0127663Y0077390D01*
X0127663Y0077390D01*
X0127663Y0072638D01*
X0128413Y0072638D01*
X0128413Y0068561D01*
X0126273Y0068561D01*
X0126273Y0064976D01*
X0126273Y0065740D02*
X0125904Y0065740D01*
X0125904Y0067339D02*
X0126273Y0067339D01*
X0125754Y0068937D02*
X0128413Y0068937D01*
X0128413Y0070536D02*
X0126882Y0070536D01*
X0126914Y0072134D02*
X0128413Y0072134D01*
X0127663Y0073733D02*
X0127663Y0073733D01*
X0127663Y0075332D02*
X0127663Y0075332D01*
X0127663Y0076930D02*
X0127663Y0076930D01*
X0127663Y0077391D02*
X0127663Y0082143D01*
X0127663Y0077391D01*
X0127663Y0077391D01*
X0127663Y0078529D02*
X0127663Y0078529D01*
X0127663Y0080127D02*
X0127663Y0080127D01*
X0127663Y0081726D02*
X0127663Y0081726D01*
X0128312Y0083324D02*
X0152045Y0083324D01*
X0152045Y0084923D02*
X0129910Y0084923D01*
X0124756Y0086521D02*
X0115681Y0086521D01*
X0115681Y0084923D02*
X0123158Y0084923D01*
X0122126Y0083324D02*
X0115681Y0083324D01*
X0116350Y0081726D02*
X0111771Y0081726D01*
X0110172Y0080127D02*
X0115630Y0080127D01*
X0115630Y0078529D02*
X0108573Y0078529D01*
X0106975Y0076930D02*
X0115630Y0076930D01*
X0115630Y0075332D02*
X0105376Y0075332D01*
X0103097Y0076446D02*
X0111128Y0084477D01*
X0111128Y0087627D02*
X0103057Y0087627D01*
X0096955Y0081524D01*
X0086640Y0081524D01*
X0081719Y0086446D01*
X0086271Y0086521D02*
X0087166Y0086521D01*
X0087166Y0084923D02*
X0086636Y0084923D01*
X0086271Y0088120D02*
X0087166Y0088120D01*
X0087166Y0089718D02*
X0086271Y0089718D01*
X0085366Y0091816D02*
X0085777Y0092053D01*
X0086112Y0092388D01*
X0086349Y0092798D01*
X0086471Y0093256D01*
X0086471Y0096360D01*
X0081804Y0096360D01*
X0081804Y0091693D01*
X0084908Y0091693D01*
X0085366Y0091816D01*
X0086380Y0092915D02*
X0087166Y0092915D01*
X0087166Y0094514D02*
X0086471Y0094514D01*
X0086471Y0096112D02*
X0087166Y0096112D01*
X0086471Y0096531D02*
X0086471Y0099635D01*
X0086349Y0100093D01*
X0086112Y0100504D01*
X0085777Y0100839D01*
X0085366Y0101076D01*
X0084908Y0101198D01*
X0081804Y0101198D01*
X0081804Y0096532D01*
X0081633Y0096532D01*
X0081633Y0101198D01*
X0078529Y0101198D01*
X0078071Y0101076D01*
X0077661Y0100839D01*
X0077325Y0100504D01*
X0077088Y0100093D01*
X0076966Y0099635D01*
X0076966Y0096531D01*
X0081633Y0096531D01*
X0081633Y0096360D01*
X0081804Y0096360D01*
X0081804Y0096531D01*
X0086471Y0096531D01*
X0086471Y0097711D02*
X0087166Y0097711D01*
X0087166Y0099309D02*
X0086471Y0099309D01*
X0085657Y0100908D02*
X0088012Y0100908D01*
X0088935Y0102506D02*
X0072691Y0102506D01*
X0071389Y0100908D02*
X0077780Y0100908D01*
X0076966Y0099309D02*
X0071389Y0099309D01*
X0071389Y0097711D02*
X0076966Y0097711D01*
X0076966Y0096360D02*
X0076966Y0093256D01*
X0077088Y0092798D01*
X0077325Y0092388D01*
X0077661Y0092053D01*
X0078071Y0091816D01*
X0078529Y0091693D01*
X0081633Y0091693D01*
X0081633Y0096360D01*
X0076966Y0096360D01*
X0076966Y0096112D02*
X0071389Y0096112D01*
X0071389Y0094514D02*
X0076966Y0094514D01*
X0077057Y0092915D02*
X0071389Y0092915D01*
X0071389Y0091317D02*
X0093195Y0091317D01*
X0096049Y0090776D02*
X0091719Y0086446D01*
X0096049Y0090776D02*
X0111128Y0090776D01*
X0115681Y0091317D02*
X0123701Y0091317D01*
X0123701Y0092915D02*
X0115681Y0092915D01*
X0115681Y0094514D02*
X0123701Y0094514D01*
X0123701Y0096112D02*
X0115681Y0096112D01*
X0115681Y0097711D02*
X0123701Y0097711D01*
X0123701Y0099309D02*
X0115681Y0099309D01*
X0115681Y0100908D02*
X0123701Y0100908D01*
X0123701Y0102506D02*
X0115881Y0102506D01*
X0115881Y0104105D02*
X0123701Y0104105D01*
X0123701Y0105703D02*
X0115681Y0105703D01*
X0115681Y0107302D02*
X0123510Y0107302D01*
X0121911Y0108900D02*
X0115681Y0108900D01*
X0111128Y0109674D02*
X0106797Y0109674D01*
X0100498Y0115973D01*
X0100498Y0125816D01*
X0096917Y0126484D02*
X0066678Y0126484D01*
X0066678Y0128082D02*
X0096917Y0128082D01*
X0096917Y0124885D02*
X0088409Y0124885D01*
X0088396Y0124936D02*
X0088159Y0125346D01*
X0087824Y0125681D01*
X0087413Y0125918D01*
X0086956Y0126041D01*
X0084750Y0126041D01*
X0082545Y0126041D01*
X0082087Y0125918D01*
X0081676Y0125681D01*
X0081341Y0125346D01*
X0081104Y0124936D01*
X0080982Y0124478D01*
X0080982Y0122666D01*
X0084750Y0122666D01*
X0084750Y0122666D01*
X0084750Y0122666D01*
X0088519Y0122666D01*
X0088519Y0124478D01*
X0088396Y0124936D01*
X0088519Y0123287D02*
X0091744Y0123287D01*
X0091011Y0121688D02*
X0088519Y0121688D01*
X0088219Y0120090D02*
X0091011Y0120090D01*
X0091011Y0118491D02*
X0088319Y0118491D01*
X0089175Y0116893D02*
X0091385Y0116893D01*
X0090774Y0115294D02*
X0093846Y0115294D01*
X0092372Y0113696D02*
X0095444Y0113696D01*
X0093971Y0112097D02*
X0097043Y0112097D01*
X0095569Y0110499D02*
X0098641Y0110499D01*
X0097168Y0108900D02*
X0100240Y0108900D01*
X0098766Y0107302D02*
X0101838Y0107302D01*
X0100365Y0105703D02*
X0103437Y0105703D01*
X0101963Y0104105D02*
X0106375Y0104105D01*
X0106010Y0106524D02*
X0094593Y0117942D01*
X0094593Y0119910D01*
X0102898Y0120090D02*
X0115630Y0120090D01*
X0115630Y0121688D02*
X0102898Y0121688D01*
X0104079Y0123287D02*
X0115630Y0123287D01*
X0115630Y0124885D02*
X0104079Y0124885D01*
X0104079Y0126484D02*
X0115630Y0126484D01*
X0115827Y0128082D02*
X0104079Y0128082D01*
X0107697Y0132077D02*
X0112984Y0132077D01*
X0113922Y0133014D01*
X0113922Y0138302D01*
X0112984Y0139239D01*
X0110136Y0139239D01*
X0109608Y0139767D01*
X0110216Y0139767D01*
X0111153Y0140704D01*
X0111153Y0147541D01*
X0110216Y0148479D01*
X0103455Y0148479D01*
X0102274Y0149660D01*
X0079015Y0149660D01*
X0078720Y0149955D01*
X0073457Y0149955D01*
X0072520Y0149018D01*
X0072520Y0145527D01*
X0073457Y0144590D01*
X0078720Y0144590D01*
X0079015Y0144885D01*
X0088268Y0144885D01*
X0088268Y0143734D01*
X0087698Y0143164D01*
X0085268Y0143164D01*
X0084750Y0142645D01*
X0084232Y0143164D01*
X0079757Y0143164D01*
X0078894Y0142301D01*
X0078720Y0142475D01*
X0073457Y0142475D01*
X0072520Y0141538D01*
X0072520Y0138047D01*
X0073457Y0137109D01*
X0078720Y0137109D01*
X0078818Y0137208D01*
X0078819Y0137208D01*
X0078819Y0136964D01*
X0079757Y0136027D01*
X0084232Y0136027D01*
X0084331Y0136126D01*
X0084331Y0134679D01*
X0083761Y0134109D01*
X0067059Y0134109D01*
X0067059Y0134352D01*
X0066121Y0135290D01*
X0061646Y0135290D01*
X0061269Y0134913D01*
X0061052Y0135130D01*
X0060642Y0135367D01*
X0060184Y0135490D01*
X0058372Y0135490D01*
X0056560Y0135490D01*
X0056103Y0135367D01*
X0055692Y0135130D01*
X0055357Y0134795D01*
X0055120Y0134385D01*
X0054997Y0133927D01*
X0054997Y0131721D01*
X0054997Y0129516D01*
X0055120Y0129058D01*
X0055357Y0128648D01*
X0055692Y0128312D01*
X0056103Y0128075D01*
X0056560Y0127953D01*
X0058372Y0127953D01*
X0058372Y0131721D01*
X0058372Y0131721D01*
X0054997Y0131721D01*
X0058372Y0131721D01*
X0058372Y0131721D01*
X0058372Y0127953D01*
X0059515Y0127953D01*
X0059515Y0123172D01*
X0060453Y0122235D01*
X0065740Y0122235D01*
X0066678Y0123172D01*
X0066678Y0128460D01*
X0066553Y0128584D01*
X0067059Y0129090D01*
X0067059Y0129334D01*
X0085739Y0129334D01*
X0087707Y0131302D01*
X0089106Y0132701D01*
X0089106Y0136027D01*
X0089744Y0136027D01*
X0090681Y0136964D01*
X0090681Y0139394D01*
X0091644Y0140357D01*
X0091644Y0140357D01*
X0093043Y0141756D01*
X0093043Y0144885D01*
X0097717Y0144885D01*
X0097717Y0140704D01*
X0098654Y0139767D01*
X0102856Y0139767D01*
X0106760Y0135863D01*
X0106760Y0133014D01*
X0107697Y0132077D01*
X0106896Y0132878D02*
X0089106Y0132878D01*
X0089106Y0134476D02*
X0106760Y0134476D01*
X0106548Y0136075D02*
X0089792Y0136075D01*
X0090681Y0137673D02*
X0104949Y0137673D01*
X0103351Y0139272D02*
X0090681Y0139272D01*
X0092157Y0140870D02*
X0097717Y0140870D01*
X0097717Y0142469D02*
X0093043Y0142469D01*
X0093043Y0144068D02*
X0097717Y0144068D01*
X0103071Y0148863D02*
X0115827Y0148863D01*
X0115827Y0147265D02*
X0111153Y0147265D01*
X0111153Y0145666D02*
X0115827Y0145666D01*
X0115827Y0144068D02*
X0111153Y0144068D01*
X0111153Y0142469D02*
X0115827Y0142469D01*
X0115827Y0140870D02*
X0111153Y0140870D01*
X0110103Y0139272D02*
X0115827Y0139272D01*
X0115827Y0137673D02*
X0113922Y0137673D01*
X0113922Y0136075D02*
X0115827Y0136075D01*
X0115827Y0134476D02*
X0113922Y0134476D01*
X0113785Y0132878D02*
X0115827Y0132878D01*
X0115827Y0131279D02*
X0087685Y0131279D01*
X0086086Y0129681D02*
X0115827Y0129681D01*
X0120602Y0129681D02*
X0122126Y0129681D01*
X0122126Y0131279D02*
X0120602Y0131279D01*
X0120602Y0132878D02*
X0122126Y0132878D01*
X0122126Y0134476D02*
X0120602Y0134476D01*
X0120602Y0136075D02*
X0122126Y0136075D01*
X0122126Y0137673D02*
X0120602Y0137673D01*
X0120602Y0139272D02*
X0122126Y0139272D01*
X0122520Y0140870D02*
X0120602Y0140870D01*
X0120602Y0142469D02*
X0122331Y0142469D01*
X0122320Y0144068D02*
X0120602Y0144068D01*
X0120602Y0145666D02*
X0122320Y0145666D01*
X0122945Y0147265D02*
X0120602Y0147265D01*
X0120602Y0148863D02*
X0170933Y0148863D01*
X0170933Y0147265D02*
X0129233Y0147265D01*
X0129857Y0145666D02*
X0170933Y0145666D01*
X0170933Y0144068D02*
X0129857Y0144068D01*
X0129847Y0142469D02*
X0130045Y0142469D01*
X0129800Y0140870D02*
X0129657Y0140870D01*
X0129657Y0139272D02*
X0129800Y0139272D01*
X0129800Y0137673D02*
X0129657Y0137673D01*
X0129162Y0136075D02*
X0130688Y0136075D01*
X0133175Y0136075D02*
X0133175Y0136075D01*
X0133175Y0137673D02*
X0133175Y0137673D01*
X0133175Y0139272D02*
X0133175Y0139272D01*
X0133175Y0139595D02*
X0133175Y0143364D01*
X0133175Y0139595D01*
X0133175Y0139595D01*
X0133175Y0140870D02*
X0133175Y0140870D01*
X0133175Y0142469D02*
X0133175Y0142469D01*
X0138687Y0139595D02*
X0144986Y0139595D01*
X0143411Y0138020D01*
X0143411Y0123060D01*
X0146561Y0123060D02*
X0146561Y0127813D01*
X0146561Y0123060D01*
X0146561Y0123060D01*
X0146561Y0123060D01*
X0146561Y0118307D01*
X0145340Y0118307D01*
X0144882Y0118430D01*
X0144748Y0118507D01*
X0123177Y0118507D01*
X0123043Y0118430D01*
X0122585Y0118307D01*
X0121364Y0118307D01*
X0120602Y0118307D01*
X0120602Y0116962D01*
X0123752Y0113813D01*
X0127078Y0110487D01*
X0140848Y0110487D01*
X0147323Y0116962D01*
X0147323Y0118307D01*
X0146561Y0118307D01*
X0146561Y0123060D01*
X0146561Y0123287D02*
X0146561Y0123287D01*
X0146561Y0124885D02*
X0146561Y0124885D01*
X0146561Y0126484D02*
X0146561Y0126484D01*
X0145811Y0128082D02*
X0151339Y0128082D01*
X0152938Y0129681D02*
X0145811Y0129681D01*
X0145811Y0131279D02*
X0163591Y0131279D01*
X0162998Y0132878D02*
X0165190Y0132878D01*
X0166788Y0134476D02*
X0163134Y0134476D01*
X0163134Y0136075D02*
X0168387Y0136075D01*
X0169985Y0137673D02*
X0163134Y0137673D01*
X0170933Y0139272D02*
X0154198Y0139272D01*
X0153673Y0140870D02*
X0170933Y0140870D01*
X0170933Y0142469D02*
X0153430Y0142469D01*
X0152241Y0134476D02*
X0145811Y0134476D01*
X0145811Y0132878D02*
X0156109Y0132878D01*
X0154435Y0127784D02*
X0163490Y0127784D01*
X0173333Y0137627D01*
X0173333Y0165186D01*
X0176377Y0168045D02*
X0176845Y0168045D01*
X0181207Y0168045D02*
X0181207Y0168045D01*
X0181207Y0166447D02*
X0181207Y0166447D01*
X0181207Y0165186D02*
X0181207Y0160811D01*
X0181207Y0165186D01*
X0181207Y0165186D01*
X0181207Y0164848D02*
X0181207Y0164848D01*
X0181207Y0163250D02*
X0181207Y0163250D01*
X0181207Y0161651D02*
X0181207Y0161651D01*
X0185306Y0161651D02*
X0203544Y0161651D01*
X0204796Y0160053D02*
X0175733Y0160053D01*
X0175733Y0161651D02*
X0177108Y0161651D01*
X0175733Y0158454D02*
X0206049Y0158454D01*
X0207301Y0156856D02*
X0175733Y0156856D01*
X0175733Y0155257D02*
X0208553Y0155257D01*
X0209806Y0153659D02*
X0175733Y0153659D01*
X0175733Y0152060D02*
X0210898Y0152060D01*
X0211864Y0150462D02*
X0175733Y0150462D01*
X0175733Y0148863D02*
X0212831Y0148863D01*
X0213797Y0147265D02*
X0175733Y0147265D01*
X0175733Y0145666D02*
X0214763Y0145666D01*
X0215730Y0144068D02*
X0175733Y0144068D01*
X0175733Y0142469D02*
X0216558Y0142469D01*
X0217277Y0140870D02*
X0175733Y0140870D01*
X0175733Y0139272D02*
X0217997Y0139272D01*
X0218716Y0137673D02*
X0175733Y0137673D01*
X0175175Y0136075D02*
X0219435Y0136075D01*
X0220155Y0134476D02*
X0173577Y0134476D01*
X0171978Y0132878D02*
X0202920Y0132878D01*
X0203089Y0133047D02*
X0200629Y0130587D01*
X0200629Y0127108D01*
X0203089Y0124647D01*
X0206568Y0124647D01*
X0209029Y0127108D01*
X0209029Y0130587D01*
X0206568Y0133047D01*
X0203089Y0133047D01*
X0201321Y0131279D02*
X0170379Y0131279D01*
X0168781Y0129681D02*
X0200629Y0129681D01*
X0200629Y0128082D02*
X0167182Y0128082D01*
X0165584Y0126484D02*
X0201252Y0126484D01*
X0202851Y0124885D02*
X0154930Y0124885D01*
X0153332Y0123287D02*
X0223827Y0123287D01*
X0224228Y0121688D02*
X0207927Y0121688D01*
X0209029Y0120090D02*
X0224521Y0120090D01*
X0224814Y0118491D02*
X0209029Y0118491D01*
X0208814Y0116893D02*
X0225107Y0116893D01*
X0225400Y0115294D02*
X0207229Y0115294D01*
X0207229Y0113696D02*
X0225693Y0113696D01*
X0225986Y0112097D02*
X0207229Y0112097D01*
X0207229Y0110499D02*
X0226166Y0110499D01*
X0226263Y0108900D02*
X0207422Y0108900D01*
X0209020Y0107302D02*
X0226360Y0107302D01*
X0221413Y0105703D02*
X0210619Y0105703D01*
X0212217Y0104105D02*
X0220592Y0104105D01*
X0220536Y0102506D02*
X0213816Y0102506D01*
X0215414Y0100908D02*
X0221158Y0100908D01*
X0221052Y0099309D02*
X0217013Y0099309D01*
X0216640Y0096288D02*
X0223530Y0096288D01*
X0224514Y0097272D01*
X0226346Y0092915D02*
X0208410Y0092915D01*
X0208410Y0091317D02*
X0226249Y0091317D01*
X0226152Y0089718D02*
X0208410Y0089718D01*
X0204829Y0092351D02*
X0196955Y0092351D01*
X0189081Y0084477D01*
X0167427Y0084477D01*
X0164278Y0087627D01*
X0156797Y0087627D01*
X0156797Y0090776D02*
X0161915Y0090776D01*
X0163490Y0092351D01*
X0161350Y0096112D02*
X0213422Y0096112D01*
X0215020Y0094514D02*
X0208410Y0094514D01*
X0211823Y0097711D02*
X0189218Y0097711D01*
X0189223Y0097719D02*
X0189345Y0098177D01*
X0189345Y0100776D01*
X0185971Y0100776D01*
X0185971Y0100776D01*
X0185971Y0096614D01*
X0187782Y0096614D01*
X0188240Y0096737D01*
X0188651Y0096974D01*
X0188986Y0097309D01*
X0189223Y0097719D01*
X0189345Y0099309D02*
X0210225Y0099309D01*
X0208626Y0100908D02*
X0189345Y0100908D01*
X0189345Y0100776D02*
X0189345Y0103376D01*
X0189223Y0103833D01*
X0188986Y0104244D01*
X0188651Y0104579D01*
X0188240Y0104816D01*
X0187782Y0104939D01*
X0185971Y0104939D01*
X0185971Y0100777D01*
X0185970Y0100777D01*
X0185970Y0104939D01*
X0184159Y0104939D01*
X0183701Y0104816D01*
X0183291Y0104579D01*
X0182955Y0104244D01*
X0182718Y0103833D01*
X0182596Y0103376D01*
X0182596Y0100776D01*
X0182596Y0098177D01*
X0182718Y0097719D01*
X0182955Y0097309D01*
X0183291Y0096974D01*
X0183701Y0096737D01*
X0184159Y0096614D01*
X0185970Y0096614D01*
X0185970Y0100776D01*
X0182596Y0100776D01*
X0185970Y0100776D01*
X0185970Y0100776D01*
X0185971Y0100776D01*
X0189345Y0100776D01*
X0189345Y0102506D02*
X0207028Y0102506D01*
X0205429Y0104105D02*
X0189066Y0104105D01*
X0185971Y0104105D02*
X0185970Y0104105D01*
X0185970Y0102506D02*
X0185971Y0102506D01*
X0185970Y0100908D02*
X0185971Y0100908D01*
X0185970Y0099309D02*
X0185971Y0099309D01*
X0185970Y0097711D02*
X0185971Y0097711D01*
X0182723Y0097711D02*
X0181624Y0097711D01*
X0181665Y0099309D02*
X0182596Y0099309D01*
X0182596Y0100908D02*
X0181665Y0100908D01*
X0181665Y0102506D02*
X0182596Y0102506D01*
X0182875Y0104105D02*
X0181362Y0104105D01*
X0179765Y0105703D02*
X0177154Y0105703D01*
X0175556Y0107302D02*
X0179056Y0107302D01*
X0179056Y0108900D02*
X0173957Y0108900D01*
X0172359Y0110499D02*
X0179056Y0110499D01*
X0179056Y0112097D02*
X0170760Y0112097D01*
X0169162Y0113696D02*
X0183094Y0113696D01*
X0184693Y0115294D02*
X0161350Y0115294D01*
X0161350Y0116893D02*
X0186291Y0116893D01*
X0187890Y0118491D02*
X0160479Y0118491D01*
X0156797Y0112824D02*
X0166640Y0112824D01*
X0178490Y0100973D01*
X0178490Y0100776D01*
X0175162Y0100908D02*
X0161350Y0100908D01*
X0161350Y0102506D02*
X0173563Y0102506D01*
X0171965Y0104105D02*
X0161350Y0104105D01*
X0161350Y0105703D02*
X0170366Y0105703D01*
X0168768Y0107302D02*
X0161350Y0107302D01*
X0161350Y0108900D02*
X0167169Y0108900D01*
X0156797Y0106524D02*
X0152073Y0106524D01*
X0147742Y0102194D01*
X0151449Y0102506D02*
X0152245Y0102506D01*
X0152245Y0100908D02*
X0151323Y0100908D01*
X0151083Y0099309D02*
X0152245Y0099309D01*
X0152245Y0097711D02*
X0128476Y0097711D01*
X0128476Y0099309D02*
X0144402Y0099309D01*
X0144161Y0100908D02*
X0128476Y0100908D01*
X0128476Y0102506D02*
X0144161Y0102506D01*
X0144161Y0104105D02*
X0128476Y0104105D01*
X0128476Y0105703D02*
X0145027Y0105703D01*
X0144416Y0107302D02*
X0149456Y0107302D01*
X0151537Y0108900D02*
X0146014Y0108900D01*
X0147613Y0110499D02*
X0152245Y0110499D01*
X0152245Y0112097D02*
X0149211Y0112097D01*
X0150810Y0113696D02*
X0152245Y0113696D01*
X0152245Y0115294D02*
X0152098Y0115294D01*
X0152098Y0116893D02*
X0152245Y0116893D01*
X0152098Y0118491D02*
X0153116Y0118491D01*
X0152295Y0120090D02*
X0189488Y0120090D01*
X0191640Y0118847D02*
X0204829Y0118847D01*
X0204829Y0108099D01*
X0216640Y0096288D01*
X0226111Y0089036D02*
X0226111Y0089036D01*
X0225943Y0088120D02*
X0196117Y0088120D01*
X0197716Y0089718D02*
X0201248Y0089718D01*
X0194519Y0086521D02*
X0225650Y0086521D01*
X0225357Y0084923D02*
X0192920Y0084923D01*
X0191322Y0083324D02*
X0225064Y0083324D01*
X0224771Y0081726D02*
X0160109Y0081726D01*
X0161550Y0083324D02*
X0165186Y0083324D01*
X0163588Y0084923D02*
X0161550Y0084923D01*
X0156797Y0083324D02*
X0156797Y0083324D01*
X0156797Y0081726D02*
X0156797Y0081726D01*
X0153486Y0081726D02*
X0151575Y0081726D01*
X0152295Y0080127D02*
X0224478Y0080127D01*
X0224185Y0078529D02*
X0152295Y0078529D01*
X0152295Y0076930D02*
X0223754Y0076930D01*
X0223256Y0075332D02*
X0209093Y0075332D01*
X0208827Y0075598D02*
X0204768Y0075598D01*
X0201897Y0072727D01*
X0201897Y0068668D01*
X0203663Y0066902D01*
X0201697Y0064936D01*
X0201697Y0062824D01*
X0206797Y0062824D01*
X0206797Y0062824D01*
X0201697Y0062824D01*
X0201697Y0060711D01*
X0204685Y0057724D01*
X0206797Y0057724D01*
X0206797Y0062823D01*
X0206797Y0062823D01*
X0206797Y0057724D01*
X0208910Y0057724D01*
X0211897Y0060711D01*
X0211897Y0062824D01*
X0211897Y0064936D01*
X0209931Y0066902D01*
X0211697Y0068668D01*
X0211697Y0072727D01*
X0208827Y0075598D01*
X0210692Y0073733D02*
X0222758Y0073733D01*
X0222259Y0072134D02*
X0211697Y0072134D01*
X0211697Y0070536D02*
X0221761Y0070536D01*
X0221263Y0068937D02*
X0211697Y0068937D01*
X0210368Y0067339D02*
X0220765Y0067339D01*
X0220050Y0065740D02*
X0211093Y0065740D01*
X0211897Y0064142D02*
X0219330Y0064142D01*
X0218611Y0062543D02*
X0211897Y0062543D01*
X0211897Y0062824D02*
X0206797Y0062824D01*
X0211897Y0062824D01*
X0211897Y0060945D02*
X0217892Y0060945D01*
X0217172Y0059346D02*
X0210533Y0059346D01*
X0208934Y0057748D02*
X0216453Y0057748D01*
X0215588Y0056149D02*
X0151474Y0056149D01*
X0151511Y0057748D02*
X0204661Y0057748D01*
X0206797Y0057748D02*
X0206797Y0057748D01*
X0206797Y0059346D02*
X0206797Y0059346D01*
X0206797Y0060945D02*
X0206797Y0060945D01*
X0206797Y0062543D02*
X0206797Y0062543D01*
X0206797Y0062824D02*
X0206797Y0062824D01*
X0203062Y0059346D02*
X0151511Y0059346D01*
X0150985Y0060945D02*
X0201697Y0060945D01*
X0201697Y0062543D02*
X0151311Y0062543D01*
X0151311Y0064142D02*
X0201697Y0064142D01*
X0202502Y0065740D02*
X0151311Y0065740D01*
X0147742Y0063611D02*
X0138687Y0063611D01*
X0137900Y0064792D01*
X0133963Y0068335D01*
X0133963Y0077391D01*
X0130813Y0077391D02*
X0130813Y0061249D01*
X0126089Y0056918D01*
X0127270Y0056131D01*
X0127270Y0049044D01*
X0124095Y0049755D02*
X0115878Y0049755D01*
X0115878Y0048157D02*
X0124095Y0048157D01*
X0124095Y0046558D02*
X0115878Y0046558D01*
X0112406Y0044960D02*
X0208371Y0044960D01*
X0209623Y0046558D02*
X0136081Y0046558D01*
X0136156Y0048157D02*
X0210757Y0048157D01*
X0211723Y0049755D02*
X0136156Y0049755D01*
X0136128Y0051354D02*
X0212689Y0051354D01*
X0213656Y0052952D02*
X0129670Y0052952D01*
X0130051Y0054551D02*
X0133781Y0054551D01*
X0133737Y0054713D02*
X0133860Y0054255D01*
X0134097Y0053844D01*
X0134432Y0053509D01*
X0134843Y0053272D01*
X0135300Y0053150D01*
X0137715Y0053150D01*
X0137715Y0056734D01*
X0133737Y0056734D01*
X0133737Y0054713D01*
X0133737Y0056149D02*
X0130051Y0056149D01*
X0130546Y0057748D02*
X0133737Y0057748D01*
X0133737Y0057102D02*
X0137715Y0057102D01*
X0137715Y0056734D01*
X0138084Y0056734D01*
X0138084Y0057102D01*
X0142062Y0057102D01*
X0142062Y0059124D01*
X0141939Y0059581D01*
X0141702Y0059992D01*
X0141367Y0060327D01*
X0140957Y0060564D01*
X0140499Y0060687D01*
X0138084Y0060687D01*
X0138084Y0057102D01*
X0137715Y0057102D01*
X0137715Y0060687D01*
X0135300Y0060687D01*
X0134843Y0060564D01*
X0134432Y0060327D01*
X0134097Y0059992D01*
X0133860Y0059581D01*
X0133737Y0059124D01*
X0133737Y0057102D01*
X0133797Y0059346D02*
X0132305Y0059346D01*
X0133213Y0060945D02*
X0144499Y0060945D01*
X0143974Y0059346D02*
X0142002Y0059346D01*
X0142062Y0057748D02*
X0143974Y0057748D01*
X0144011Y0056149D02*
X0142062Y0056149D01*
X0142062Y0056734D02*
X0138084Y0056734D01*
X0138084Y0053150D01*
X0140499Y0053150D01*
X0140957Y0053272D01*
X0141367Y0053509D01*
X0141702Y0053844D01*
X0141939Y0054255D01*
X0142062Y0054713D01*
X0142062Y0056734D01*
X0141837Y0056918D02*
X0143805Y0054950D01*
X0142019Y0054551D02*
X0214622Y0054551D01*
X0207118Y0043361D02*
X0111363Y0043361D01*
X0111363Y0041763D02*
X0205866Y0041763D01*
X0204613Y0040164D02*
X0168935Y0040164D01*
X0168646Y0040284D02*
X0166249Y0040284D01*
X0164035Y0039367D01*
X0162340Y0037672D01*
X0161423Y0035458D01*
X0161423Y0033061D01*
X0162340Y0030846D01*
X0164035Y0029151D01*
X0164258Y0029059D01*
X0160642Y0029059D01*
X0157948Y0026364D01*
X0157948Y0022554D01*
X0160642Y0019859D01*
X0164453Y0019859D01*
X0167148Y0022554D01*
X0167148Y0026364D01*
X0164591Y0028921D01*
X0166249Y0028234D01*
X0168646Y0028234D01*
X0170861Y0029151D01*
X0172555Y0030846D01*
X0173473Y0033061D01*
X0173473Y0035458D01*
X0172555Y0037672D01*
X0170861Y0039367D01*
X0168646Y0040284D01*
X0171662Y0038566D02*
X0203338Y0038566D01*
X0201740Y0036967D02*
X0172847Y0036967D01*
X0173473Y0035369D02*
X0200141Y0035369D01*
X0198543Y0033770D02*
X0173473Y0033770D01*
X0173104Y0032172D02*
X0196944Y0032172D01*
X0195298Y0030573D02*
X0172282Y0030573D01*
X0170434Y0028975D02*
X0193258Y0028975D01*
X0191218Y0027376D02*
X0166136Y0027376D01*
X0167148Y0025778D02*
X0189177Y0025778D01*
X0187137Y0024179D02*
X0167148Y0024179D01*
X0167148Y0022581D02*
X0184624Y0022581D01*
X0181980Y0020982D02*
X0165576Y0020982D01*
X0159519Y0020982D02*
X0148059Y0020982D01*
X0146736Y0019659D02*
X0149548Y0022471D01*
X0149548Y0024259D01*
X0144948Y0024259D01*
X0144948Y0024659D01*
X0149548Y0024659D01*
X0149548Y0026447D01*
X0146736Y0029259D01*
X0144948Y0029259D01*
X0144948Y0024659D01*
X0144548Y0024659D01*
X0144548Y0029259D01*
X0143368Y0029259D01*
X0144955Y0030846D01*
X0145873Y0033061D01*
X0145873Y0035458D01*
X0144955Y0037672D01*
X0143261Y0039367D01*
X0141046Y0040284D01*
X0138649Y0040284D01*
X0136435Y0039367D01*
X0134740Y0037672D01*
X0133823Y0035458D01*
X0133823Y0033061D01*
X0134740Y0030846D01*
X0136435Y0029151D01*
X0138649Y0028234D01*
X0141046Y0028234D01*
X0142221Y0028721D01*
X0139948Y0026447D01*
X0139948Y0024659D01*
X0144548Y0024659D01*
X0144548Y0024259D01*
X0144948Y0024259D01*
X0144948Y0019659D01*
X0146736Y0019659D01*
X0144548Y0019659D02*
X0144548Y0024259D01*
X0139948Y0024259D01*
X0139948Y0022471D01*
X0142759Y0019659D01*
X0144548Y0019659D01*
X0144548Y0020982D02*
X0144948Y0020982D01*
X0144948Y0022581D02*
X0144548Y0022581D01*
X0144548Y0024179D02*
X0144948Y0024179D01*
X0144948Y0025778D02*
X0144548Y0025778D01*
X0144548Y0027376D02*
X0144948Y0027376D01*
X0144948Y0028975D02*
X0144548Y0028975D01*
X0144682Y0030573D02*
X0162613Y0030573D01*
X0161791Y0032172D02*
X0145504Y0032172D01*
X0145873Y0033770D02*
X0161423Y0033770D01*
X0161423Y0035369D02*
X0145873Y0035369D01*
X0145247Y0036967D02*
X0162048Y0036967D01*
X0163234Y0038566D02*
X0144062Y0038566D01*
X0141335Y0040164D02*
X0165960Y0040164D01*
X0160558Y0028975D02*
X0147020Y0028975D01*
X0148619Y0027376D02*
X0158959Y0027376D01*
X0157948Y0025778D02*
X0149548Y0025778D01*
X0149548Y0024179D02*
X0157948Y0024179D01*
X0157948Y0022581D02*
X0149548Y0022581D01*
X0141436Y0020982D02*
X0127295Y0020982D01*
X0127295Y0019384D02*
X0179336Y0019384D01*
X0176551Y0017785D02*
X0127295Y0017785D01*
X0127295Y0016187D02*
X0172999Y0016187D01*
X0169447Y0014588D02*
X0127295Y0014588D01*
X0126746Y0012990D02*
X0165459Y0012990D01*
X0160329Y0011391D02*
X0107596Y0011391D01*
X0102467Y0012990D02*
X0118345Y0012990D01*
X0117796Y0014588D02*
X0098478Y0014588D01*
X0095011Y0016187D02*
X0117796Y0016187D01*
X0117796Y0017785D02*
X0095011Y0017785D01*
X0095011Y0019384D02*
X0117796Y0019384D01*
X0117796Y0020982D02*
X0095011Y0020982D01*
X0099933Y0022581D02*
X0112874Y0022581D01*
X0112874Y0024179D02*
X0099933Y0024179D01*
X0101285Y0025778D02*
X0101286Y0025778D01*
X0101285Y0027376D02*
X0101286Y0027376D01*
X0101285Y0028975D02*
X0101286Y0028975D01*
X0101285Y0030573D02*
X0101286Y0030573D01*
X0101285Y0032172D02*
X0101286Y0032172D01*
X0104004Y0033770D02*
X0069382Y0033770D01*
X0067784Y0035369D02*
X0104004Y0035369D01*
X0104004Y0036967D02*
X0066185Y0036967D01*
X0070981Y0032172D02*
X0089237Y0032172D01*
X0088465Y0030573D02*
X0072627Y0030573D01*
X0074667Y0028975D02*
X0088465Y0028975D01*
X0088465Y0027376D02*
X0076708Y0027376D01*
X0078748Y0025778D02*
X0088465Y0025778D01*
X0088465Y0024179D02*
X0080788Y0024179D01*
X0083301Y0022581D02*
X0086142Y0022581D01*
X0111363Y0040164D02*
X0138360Y0040164D01*
X0135634Y0038566D02*
X0117201Y0038566D01*
X0117859Y0036967D02*
X0134448Y0036967D01*
X0133823Y0035369D02*
X0117859Y0035369D01*
X0117859Y0033770D02*
X0133823Y0033770D01*
X0134191Y0032172D02*
X0123570Y0032172D01*
X0124342Y0030573D02*
X0135013Y0030573D01*
X0136861Y0028975D02*
X0124342Y0028975D01*
X0124342Y0027376D02*
X0140877Y0027376D01*
X0139948Y0025778D02*
X0124342Y0025778D01*
X0124342Y0024179D02*
X0139948Y0024179D01*
X0139948Y0022581D02*
X0126665Y0022581D01*
X0122134Y0008194D02*
X0145791Y0008194D01*
X0154514Y0009793D02*
X0113411Y0009793D01*
X0100867Y0046558D02*
X0071807Y0046558D01*
X0071389Y0048157D02*
X0100867Y0048157D01*
X0100867Y0049755D02*
X0071389Y0049755D01*
X0071389Y0051354D02*
X0101044Y0051354D01*
X0100867Y0052952D02*
X0071389Y0052952D01*
X0071389Y0054551D02*
X0100867Y0054551D01*
X0100947Y0056149D02*
X0071389Y0056149D01*
X0071389Y0057748D02*
X0100854Y0057748D01*
X0100854Y0059346D02*
X0071389Y0059346D01*
X0071389Y0060945D02*
X0100854Y0060945D01*
X0104435Y0058887D02*
X0104435Y0053769D01*
X0115878Y0052952D02*
X0124870Y0052952D01*
X0124095Y0051354D02*
X0115700Y0051354D01*
X0121938Y0062543D02*
X0071389Y0062543D01*
X0071389Y0064142D02*
X0121926Y0064142D01*
X0120183Y0066761D02*
X0124514Y0071091D01*
X0124514Y0077391D01*
X0121364Y0077391D02*
X0121364Y0071879D01*
X0120183Y0070698D01*
X0098530Y0070698D01*
X0101719Y0073733D02*
X0115672Y0073733D01*
X0120183Y0066761D02*
X0088687Y0066761D01*
X0081719Y0073729D01*
X0081719Y0076446D01*
X0077166Y0076930D02*
X0071389Y0076930D01*
X0071389Y0075332D02*
X0077166Y0075332D01*
X0077166Y0073733D02*
X0071389Y0073733D01*
X0071389Y0072134D02*
X0077861Y0072134D01*
X0081518Y0070536D02*
X0071389Y0070536D01*
X0071389Y0068937D02*
X0083116Y0068937D01*
X0084715Y0067339D02*
X0071389Y0067339D01*
X0071389Y0065740D02*
X0086313Y0065740D01*
X0091719Y0076446D02*
X0103097Y0076446D01*
X0115681Y0088120D02*
X0125369Y0088120D01*
X0123771Y0089718D02*
X0115681Y0089718D01*
X0128476Y0092915D02*
X0152245Y0092915D01*
X0152245Y0091317D02*
X0128925Y0091317D01*
X0128476Y0094514D02*
X0152245Y0094514D01*
X0152245Y0096112D02*
X0128476Y0096112D01*
X0111128Y0106524D02*
X0106010Y0106524D01*
X0106170Y0113696D02*
X0106575Y0113696D01*
X0106575Y0115294D02*
X0104571Y0115294D01*
X0102973Y0116893D02*
X0106575Y0116893D01*
X0107446Y0118491D02*
X0102898Y0118491D01*
X0090415Y0108900D02*
X0089294Y0108900D01*
X0088817Y0110499D02*
X0087695Y0110499D01*
X0087218Y0112097D02*
X0086097Y0112097D01*
X0085620Y0113696D02*
X0079263Y0113696D01*
X0079263Y0115294D02*
X0081182Y0115294D01*
X0081182Y0116893D02*
X0080084Y0116893D01*
X0080457Y0118491D02*
X0081182Y0118491D01*
X0081281Y0120090D02*
X0080457Y0120090D01*
X0080457Y0121688D02*
X0080982Y0121688D01*
X0080982Y0123287D02*
X0079724Y0123287D01*
X0081091Y0124885D02*
X0066678Y0124885D01*
X0066678Y0123287D02*
X0074028Y0123287D01*
X0073295Y0121688D02*
X0043697Y0121688D01*
X0043404Y0120090D02*
X0073295Y0120090D01*
X0073295Y0118491D02*
X0043111Y0118491D01*
X0042818Y0116893D02*
X0073669Y0116893D01*
X0074489Y0115294D02*
X0042525Y0115294D01*
X0042232Y0113696D02*
X0074489Y0113696D01*
X0074489Y0112097D02*
X0041939Y0112097D01*
X0041759Y0110499D02*
X0073931Y0110499D01*
X0072332Y0108900D02*
X0041662Y0108900D01*
X0041565Y0107302D02*
X0070734Y0107302D01*
X0069135Y0105703D02*
X0041469Y0105703D01*
X0041372Y0104105D02*
X0067537Y0104105D01*
X0066615Y0102506D02*
X0060154Y0102506D01*
X0059303Y0103357D02*
X0062291Y0100369D01*
X0062291Y0098257D01*
X0057191Y0098257D01*
X0057191Y0103357D01*
X0055079Y0103357D01*
X0052091Y0100369D01*
X0052091Y0098257D01*
X0057191Y0098257D01*
X0057191Y0098257D01*
X0057191Y0103357D01*
X0059303Y0103357D01*
X0057191Y0102506D02*
X0057191Y0102506D01*
X0057191Y0100908D02*
X0057191Y0100908D01*
X0057191Y0099309D02*
X0057191Y0099309D01*
X0057191Y0098257D02*
X0057191Y0098257D01*
X0057191Y0098257D01*
X0062291Y0098257D01*
X0062291Y0096144D01*
X0060325Y0094178D01*
X0062091Y0092412D01*
X0062091Y0088353D01*
X0059221Y0085483D01*
X0055161Y0085483D01*
X0052291Y0088353D01*
X0052291Y0092412D01*
X0054057Y0094178D01*
X0052091Y0096144D01*
X0052091Y0098257D01*
X0057191Y0098257D01*
X0053722Y0094514D02*
X0041483Y0094514D01*
X0041386Y0096112D02*
X0052123Y0096112D01*
X0052091Y0097711D02*
X0041290Y0097711D01*
X0041193Y0099309D02*
X0052091Y0099309D01*
X0052630Y0100908D02*
X0041179Y0100908D01*
X0041275Y0102506D02*
X0054228Y0102506D01*
X0061752Y0100908D02*
X0066615Y0100908D01*
X0066615Y0099309D02*
X0062291Y0099309D01*
X0062291Y0097711D02*
X0066615Y0097711D01*
X0066615Y0096112D02*
X0062259Y0096112D01*
X0060660Y0094514D02*
X0066615Y0094514D01*
X0066615Y0092915D02*
X0061588Y0092915D01*
X0062091Y0091317D02*
X0066615Y0091317D01*
X0066615Y0089718D02*
X0062091Y0089718D01*
X0061858Y0088120D02*
X0066615Y0088120D01*
X0066615Y0086521D02*
X0060259Y0086521D01*
X0054123Y0086521D02*
X0042275Y0086521D01*
X0042568Y0084923D02*
X0066615Y0084923D01*
X0066615Y0083324D02*
X0042861Y0083324D01*
X0043154Y0081726D02*
X0066615Y0081726D01*
X0066615Y0080127D02*
X0043447Y0080127D01*
X0043740Y0078529D02*
X0066615Y0078529D01*
X0066615Y0076930D02*
X0060140Y0076930D01*
X0059303Y0077766D02*
X0062291Y0074779D01*
X0062291Y0072666D01*
X0057191Y0072666D01*
X0052091Y0072666D01*
X0052091Y0070554D01*
X0054057Y0068588D01*
X0052291Y0066822D01*
X0052291Y0062762D01*
X0055161Y0059892D01*
X0059221Y0059892D01*
X0062091Y0062762D01*
X0062091Y0066822D01*
X0060325Y0068588D01*
X0062291Y0070554D01*
X0062291Y0072666D01*
X0057191Y0072666D01*
X0057191Y0072666D01*
X0057191Y0072666D01*
X0052091Y0072666D01*
X0052091Y0074779D01*
X0055079Y0077766D01*
X0057191Y0077766D01*
X0057191Y0072666D01*
X0057191Y0072666D01*
X0057191Y0077766D01*
X0059303Y0077766D01*
X0057191Y0076930D02*
X0057191Y0076930D01*
X0057191Y0075332D02*
X0057191Y0075332D01*
X0057191Y0073733D02*
X0057191Y0073733D01*
X0054242Y0076930D02*
X0044172Y0076930D01*
X0044670Y0075332D02*
X0052644Y0075332D01*
X0052091Y0073733D02*
X0045168Y0073733D01*
X0045666Y0072134D02*
X0052091Y0072134D01*
X0052109Y0070536D02*
X0046164Y0070536D01*
X0046662Y0068937D02*
X0053707Y0068937D01*
X0052808Y0067339D02*
X0047160Y0067339D01*
X0047876Y0065740D02*
X0052291Y0065740D01*
X0052291Y0064142D02*
X0048595Y0064142D01*
X0049314Y0062543D02*
X0052510Y0062543D01*
X0054109Y0060945D02*
X0050034Y0060945D01*
X0050753Y0059346D02*
X0066615Y0059346D01*
X0066615Y0057748D02*
X0051473Y0057748D01*
X0052337Y0056149D02*
X0066615Y0056149D01*
X0066615Y0054551D02*
X0053303Y0054551D01*
X0054270Y0052952D02*
X0066615Y0052952D01*
X0066615Y0051354D02*
X0055236Y0051354D01*
X0056202Y0049755D02*
X0066615Y0049755D01*
X0066615Y0060945D02*
X0060273Y0060945D01*
X0061872Y0062543D02*
X0066615Y0062543D01*
X0066615Y0064142D02*
X0062091Y0064142D01*
X0062091Y0065740D02*
X0066615Y0065740D01*
X0066615Y0067339D02*
X0061574Y0067339D01*
X0060675Y0068937D02*
X0066615Y0068937D01*
X0066615Y0070536D02*
X0062273Y0070536D01*
X0062291Y0072134D02*
X0066615Y0072134D01*
X0066615Y0073733D02*
X0062291Y0073733D01*
X0061738Y0075332D02*
X0066615Y0075332D01*
X0071389Y0078529D02*
X0077166Y0078529D01*
X0077232Y0080127D02*
X0071389Y0080127D01*
X0071389Y0081726D02*
X0083045Y0081726D01*
X0077166Y0083324D02*
X0071389Y0083324D01*
X0071389Y0084923D02*
X0077166Y0084923D01*
X0077166Y0086521D02*
X0071389Y0086521D01*
X0071389Y0088120D02*
X0077166Y0088120D01*
X0077166Y0089718D02*
X0071389Y0089718D01*
X0081633Y0092915D02*
X0081804Y0092915D01*
X0081804Y0094514D02*
X0081633Y0094514D01*
X0081633Y0096112D02*
X0081804Y0096112D01*
X0081804Y0097711D02*
X0081633Y0097711D01*
X0081633Y0099309D02*
X0081804Y0099309D01*
X0081804Y0100908D02*
X0081633Y0100908D01*
X0085738Y0105703D02*
X0075888Y0105703D01*
X0074289Y0104105D02*
X0087337Y0104105D01*
X0084140Y0107302D02*
X0077486Y0107302D01*
X0090892Y0107302D02*
X0092014Y0107302D01*
X0092491Y0105703D02*
X0093612Y0105703D01*
X0084750Y0122666D02*
X0084750Y0122666D01*
X0084750Y0126041D01*
X0084750Y0122666D01*
X0084750Y0123287D02*
X0084750Y0123287D01*
X0084750Y0124885D02*
X0084750Y0124885D01*
X0084129Y0134476D02*
X0066935Y0134476D01*
X0068484Y0137109D02*
X0069421Y0138047D01*
X0069421Y0141538D01*
X0069390Y0141568D01*
X0069498Y0141755D01*
X0069621Y0142213D01*
X0069621Y0143532D01*
X0065853Y0143532D01*
X0065853Y0143532D01*
X0069621Y0143532D01*
X0069621Y0144852D01*
X0069498Y0145310D01*
X0069390Y0145497D01*
X0069421Y0145527D01*
X0069421Y0147465D01*
X0086133Y0164176D01*
X0097717Y0164176D01*
X0097717Y0163145D01*
X0098654Y0162208D01*
X0110216Y0162208D01*
X0111153Y0163145D01*
X0111153Y0169982D01*
X0110216Y0170920D01*
X0104303Y0170920D01*
X0104303Y0176932D01*
X0104379Y0176932D01*
X0105317Y0177870D01*
X0105317Y0183998D01*
X0104379Y0184935D01*
X0099451Y0184935D01*
X0098514Y0183998D01*
X0098514Y0177870D01*
X0099451Y0176932D01*
X0099528Y0176932D01*
X0099528Y0170920D01*
X0098654Y0170920D01*
X0097717Y0169982D01*
X0097717Y0168951D01*
X0084155Y0168951D01*
X0082756Y0167553D01*
X0065159Y0149955D01*
X0063221Y0149955D01*
X0062284Y0149018D01*
X0062284Y0145527D01*
X0062314Y0145497D01*
X0062207Y0145310D01*
X0062084Y0144852D01*
X0062084Y0143532D01*
X0062084Y0142213D01*
X0062207Y0141755D01*
X0062314Y0141568D01*
X0062284Y0141538D01*
X0062284Y0138047D01*
X0063221Y0137109D01*
X0068484Y0137109D01*
X0069048Y0137673D02*
X0072893Y0137673D01*
X0072520Y0139272D02*
X0069421Y0139272D01*
X0069421Y0140870D02*
X0072520Y0140870D01*
X0073452Y0142469D02*
X0069621Y0142469D01*
X0069621Y0144068D02*
X0088268Y0144068D01*
X0084331Y0136075D02*
X0084280Y0136075D01*
X0079708Y0136075D02*
X0048490Y0136075D01*
X0049209Y0137673D02*
X0062657Y0137673D01*
X0062284Y0139272D02*
X0049929Y0139272D01*
X0050648Y0140870D02*
X0062284Y0140870D01*
X0062084Y0142469D02*
X0051368Y0142469D01*
X0052196Y0144068D02*
X0062084Y0144068D01*
X0062084Y0143532D02*
X0065852Y0143532D01*
X0062084Y0143532D01*
X0062284Y0145666D02*
X0053162Y0145666D01*
X0054128Y0147265D02*
X0062284Y0147265D01*
X0062284Y0148863D02*
X0055095Y0148863D01*
X0056061Y0150462D02*
X0065665Y0150462D01*
X0067264Y0152060D02*
X0057027Y0152060D01*
X0058120Y0153659D02*
X0068862Y0153659D01*
X0070461Y0155257D02*
X0059372Y0155257D01*
X0060624Y0156856D02*
X0072059Y0156856D01*
X0073658Y0158454D02*
X0061877Y0158454D01*
X0063129Y0160053D02*
X0075256Y0160053D01*
X0076855Y0161651D02*
X0064381Y0161651D01*
X0065952Y0163250D02*
X0078453Y0163250D01*
X0080052Y0164848D02*
X0067550Y0164848D01*
X0069149Y0166447D02*
X0081650Y0166447D01*
X0083249Y0168045D02*
X0070747Y0168045D01*
X0072346Y0169644D02*
X0097717Y0169644D01*
X0099528Y0171242D02*
X0074369Y0171242D01*
X0076409Y0172841D02*
X0099528Y0172841D01*
X0099528Y0174439D02*
X0078450Y0174439D01*
X0080490Y0176038D02*
X0099528Y0176038D01*
X0098748Y0177636D02*
X0082915Y0177636D01*
X0085559Y0179235D02*
X0098514Y0179235D01*
X0098514Y0180833D02*
X0088203Y0180833D01*
X0090856Y0182432D02*
X0098514Y0182432D01*
X0098546Y0184030D02*
X0094407Y0184030D01*
X0097959Y0185629D02*
X0169966Y0185629D01*
X0173518Y0184030D02*
X0118198Y0184030D01*
X0118230Y0182432D02*
X0177070Y0182432D01*
X0179722Y0180833D02*
X0118306Y0180833D01*
X0119904Y0179235D02*
X0182366Y0179235D01*
X0185010Y0177636D02*
X0120602Y0177636D01*
X0120602Y0176038D02*
X0187435Y0176038D01*
X0189475Y0174439D02*
X0120602Y0174439D01*
X0120602Y0172841D02*
X0191516Y0172841D01*
X0193556Y0171242D02*
X0120602Y0171242D01*
X0120602Y0169644D02*
X0195579Y0169644D01*
X0197178Y0168045D02*
X0185569Y0168045D01*
X0185582Y0166447D02*
X0198776Y0166447D01*
X0200375Y0164848D02*
X0185582Y0164848D01*
X0185582Y0163250D02*
X0201973Y0163250D01*
X0170933Y0161651D02*
X0167828Y0161651D01*
X0169175Y0163250D02*
X0169616Y0163250D01*
X0170933Y0160053D02*
X0120602Y0160053D01*
X0120602Y0161651D02*
X0163089Y0161651D01*
X0161742Y0163250D02*
X0120602Y0163250D01*
X0120602Y0164848D02*
X0161284Y0164848D01*
X0161462Y0166447D02*
X0120602Y0166447D01*
X0120602Y0168045D02*
X0162414Y0168045D01*
X0168503Y0168045D02*
X0170288Y0168045D01*
X0170933Y0158454D02*
X0120602Y0158454D01*
X0120602Y0156856D02*
X0170933Y0156856D01*
X0170933Y0155257D02*
X0120602Y0155257D01*
X0120602Y0153659D02*
X0170933Y0153659D01*
X0170933Y0152060D02*
X0120602Y0152060D01*
X0120602Y0150462D02*
X0170933Y0150462D01*
X0148212Y0136075D02*
X0147272Y0136075D01*
X0141011Y0136075D02*
X0140973Y0136075D01*
X0141011Y0134476D02*
X0126901Y0134476D01*
X0126901Y0132878D02*
X0141011Y0132878D01*
X0141011Y0131279D02*
X0126901Y0131279D01*
X0126901Y0129681D02*
X0141011Y0129681D01*
X0141011Y0128082D02*
X0126901Y0128082D01*
X0122126Y0128082D02*
X0120602Y0128082D01*
X0121364Y0127813D02*
X0121364Y0123060D01*
X0121364Y0123060D01*
X0121364Y0127813D01*
X0121364Y0126484D02*
X0121364Y0126484D01*
X0121364Y0124885D02*
X0121364Y0124885D01*
X0121364Y0123287D02*
X0121364Y0123287D01*
X0121364Y0123060D02*
X0121364Y0118307D01*
X0121364Y0123060D01*
X0121364Y0123060D01*
X0121364Y0121688D02*
X0121364Y0121688D01*
X0121364Y0120090D02*
X0121364Y0120090D01*
X0121364Y0118491D02*
X0121364Y0118491D01*
X0120671Y0116893D02*
X0147254Y0116893D01*
X0146561Y0118491D02*
X0146561Y0118491D01*
X0146561Y0120090D02*
X0146561Y0120090D01*
X0146561Y0121688D02*
X0146561Y0121688D01*
X0149711Y0123060D02*
X0154435Y0127784D01*
X0152295Y0121688D02*
X0201730Y0121688D01*
X0206807Y0124885D02*
X0223328Y0124885D01*
X0222830Y0126484D02*
X0208405Y0126484D01*
X0209029Y0128082D02*
X0222332Y0128082D01*
X0221834Y0129681D02*
X0209029Y0129681D01*
X0208336Y0131279D02*
X0221336Y0131279D01*
X0220838Y0132878D02*
X0206738Y0132878D01*
X0191640Y0118847D02*
X0182230Y0109438D01*
X0185405Y0108900D02*
X0202429Y0108900D01*
X0202429Y0110499D02*
X0186685Y0110499D01*
X0188284Y0112097D02*
X0202429Y0112097D01*
X0202429Y0113696D02*
X0189882Y0113696D01*
X0191481Y0115294D02*
X0202429Y0115294D01*
X0202561Y0107302D02*
X0185405Y0107302D01*
X0184696Y0105703D02*
X0203831Y0105703D01*
X0195904Y0094514D02*
X0167071Y0094514D01*
X0167071Y0092915D02*
X0194125Y0092915D01*
X0192526Y0091317D02*
X0167071Y0091317D01*
X0167071Y0089718D02*
X0190928Y0089718D01*
X0189329Y0088120D02*
X0167179Y0088120D01*
X0161350Y0097711D02*
X0175356Y0097711D01*
X0175315Y0099309D02*
X0161350Y0099309D01*
X0144057Y0113696D02*
X0123868Y0113696D01*
X0122270Y0115294D02*
X0145655Y0115294D01*
X0144775Y0118491D02*
X0123150Y0118491D01*
X0115827Y0118491D02*
X0114810Y0118491D01*
X0115681Y0116893D02*
X0115827Y0116893D01*
X0115827Y0115294D02*
X0115681Y0115294D01*
X0125467Y0112097D02*
X0142458Y0112097D01*
X0140860Y0110499D02*
X0127065Y0110499D01*
X0135662Y0136075D02*
X0136401Y0136075D01*
X0141619Y0142469D02*
X0142054Y0142469D01*
X0126089Y0145666D02*
X0126089Y0145666D01*
X0126089Y0147265D02*
X0126089Y0147265D01*
X0115827Y0150462D02*
X0072418Y0150462D01*
X0072520Y0148863D02*
X0070819Y0148863D01*
X0069421Y0147265D02*
X0072520Y0147265D01*
X0072520Y0145666D02*
X0069421Y0145666D01*
X0065852Y0143532D02*
X0065852Y0143532D01*
X0058372Y0135490D02*
X0058372Y0131721D01*
X0058372Y0135490D01*
X0058372Y0134476D02*
X0058372Y0134476D01*
X0058372Y0132878D02*
X0058372Y0132878D01*
X0058372Y0131721D02*
X0058372Y0131721D01*
X0058372Y0131279D02*
X0058372Y0131279D01*
X0058372Y0129681D02*
X0058372Y0129681D01*
X0058372Y0128082D02*
X0058372Y0128082D01*
X0059515Y0126484D02*
X0045095Y0126484D01*
X0045593Y0128082D02*
X0056090Y0128082D01*
X0054997Y0129681D02*
X0046091Y0129681D01*
X0046589Y0131279D02*
X0054997Y0131279D01*
X0054997Y0132878D02*
X0047087Y0132878D01*
X0047770Y0134476D02*
X0055173Y0134476D01*
X0059515Y0124885D02*
X0044597Y0124885D01*
X0044099Y0123287D02*
X0059515Y0123287D01*
X0078726Y0142469D02*
X0079062Y0142469D01*
X0074016Y0152060D02*
X0115827Y0152060D01*
X0115827Y0153659D02*
X0075615Y0153659D01*
X0077213Y0155257D02*
X0115827Y0155257D01*
X0115827Y0156856D02*
X0078812Y0156856D01*
X0080410Y0158454D02*
X0115827Y0158454D01*
X0115827Y0160053D02*
X0082009Y0160053D01*
X0083607Y0161651D02*
X0115827Y0161651D01*
X0115827Y0163250D02*
X0111153Y0163250D01*
X0111153Y0164848D02*
X0115827Y0164848D01*
X0115827Y0166447D02*
X0111153Y0166447D01*
X0111153Y0168045D02*
X0115827Y0168045D01*
X0115827Y0169644D02*
X0111153Y0169644D01*
X0115827Y0171242D02*
X0104303Y0171242D01*
X0104303Y0172841D02*
X0115827Y0172841D01*
X0115827Y0174439D02*
X0104303Y0174439D01*
X0104303Y0176038D02*
X0115827Y0176038D01*
X0111661Y0177636D02*
X0105083Y0177636D01*
X0105317Y0179235D02*
X0111428Y0179235D01*
X0111428Y0180833D02*
X0105317Y0180833D01*
X0105317Y0182432D02*
X0111428Y0182432D01*
X0111460Y0184030D02*
X0105284Y0184030D01*
X0101717Y0187227D02*
X0166208Y0187227D01*
X0161078Y0188826D02*
X0106847Y0188826D01*
X0111748Y0190353D02*
X0111748Y0190353D01*
X0112137Y0190424D02*
X0155788Y0190424D01*
X0147065Y0192023D02*
X0120860Y0192023D01*
X0097717Y0163250D02*
X0085206Y0163250D01*
X0052794Y0092915D02*
X0041580Y0092915D01*
X0041676Y0091317D02*
X0052291Y0091317D01*
X0052291Y0089718D02*
X0041773Y0089718D01*
X0041982Y0088120D02*
X0052524Y0088120D01*
X0133213Y0065740D02*
X0133258Y0065740D01*
X0133213Y0064142D02*
X0133937Y0064142D01*
X0133937Y0062543D02*
X0133213Y0062543D01*
X0137715Y0059346D02*
X0138084Y0059346D01*
X0138084Y0057748D02*
X0137715Y0057748D01*
X0137900Y0056918D02*
X0141837Y0056918D01*
X0138084Y0056149D02*
X0137715Y0056149D01*
X0137715Y0054551D02*
X0138084Y0054551D01*
X0132782Y0051354D02*
X0132781Y0051354D01*
X0132781Y0049755D02*
X0132782Y0049755D01*
X0132781Y0048157D02*
X0132782Y0048157D01*
X0132781Y0046558D02*
X0132782Y0046558D01*
X0147742Y0056149D02*
X0147742Y0056149D01*
X0147742Y0057748D02*
X0147742Y0057748D01*
X0141862Y0067339D02*
X0203226Y0067339D01*
X0201897Y0068937D02*
X0136881Y0068937D01*
X0136363Y0070536D02*
X0201897Y0070536D01*
X0201897Y0072134D02*
X0136363Y0072134D01*
X0152253Y0073733D02*
X0202903Y0073733D01*
X0204502Y0075332D02*
X0152295Y0075332D01*
D31*
X0163490Y0092351D03*
X0147742Y0102194D03*
X0159553Y0135658D03*
X0110341Y0135658D03*
X0100498Y0125816D03*
X0094593Y0119910D03*
X0076876Y0119910D03*
X0063097Y0125816D03*
X0098530Y0070698D03*
X0104435Y0058887D03*
X0112309Y0058887D03*
X0114278Y0035265D03*
X0069002Y0043139D03*
X0204829Y0092351D03*
D32*
X0156797Y0087627D02*
X0129238Y0087627D01*
X0126089Y0090776D01*
X0126089Y0108099D01*
X0141837Y0108099D01*
X0149711Y0115973D01*
X0149711Y0123060D01*
X0154435Y0135658D02*
X0150498Y0139595D01*
X0154435Y0135658D02*
X0159553Y0135658D01*
X0126089Y0138808D02*
X0124514Y0138414D01*
X0124514Y0123060D01*
X0118215Y0123060D02*
X0118215Y0177548D01*
X0114829Y0180934D01*
X0101915Y0180934D02*
X0101915Y0169083D01*
X0104435Y0166564D01*
X0085144Y0166564D01*
X0065852Y0147272D01*
X0076089Y0147272D02*
X0090656Y0147272D01*
X0090656Y0142745D01*
X0087506Y0139595D01*
X0086719Y0138808D01*
X0086719Y0133690D01*
X0084750Y0131721D01*
X0063884Y0131721D01*
X0063097Y0130934D01*
X0063097Y0125816D01*
X0076876Y0119910D02*
X0076876Y0110068D01*
X0084750Y0110068D01*
X0092624Y0102194D01*
X0096561Y0102194D01*
X0101679Y0097076D01*
X0111128Y0097076D01*
X0111128Y0100225D02*
X0102467Y0100225D01*
X0085537Y0117154D01*
X0084750Y0117154D01*
X0076876Y0110068D02*
X0069002Y0102194D01*
X0069002Y0043139D01*
X0111522Y0032509D02*
X0111522Y0028867D01*
X0111522Y0032509D02*
X0114278Y0035265D01*
X0124514Y0077391D02*
X0124514Y0082902D01*
X0129238Y0087627D01*
X0126089Y0108099D02*
X0121364Y0112824D01*
X0118215Y0115973D01*
X0118215Y0123060D01*
X0121364Y0112824D02*
X0111128Y0112824D01*
X0110341Y0135658D02*
X0104435Y0141564D01*
X0104435Y0144123D01*
X0101285Y0147272D01*
X0090656Y0147272D01*
X0081994Y0139595D02*
X0076285Y0139595D01*
X0076089Y0139792D01*
M02*
