%
M48
M72
T01C0.02362
T02C0.02756
T03C0.03150
T04C0.03200
T05C0.03543
T06C0.04000
T07C0.05900
%
T01
X56457Y43139
X85984Y70698
X91890Y58887
X99764Y58887
X101733Y35265
X150945Y92351
X135197Y102194
X147008Y135658
X192284Y92351
X97796Y135658
X87953Y125816
X82047Y119910
X64331Y119910
X50551Y125816
T02
X211969Y103178
X211969Y97272
T03
X168662Y165186
X160788Y165186
X152914Y165186
T04
X192284Y128847
X192284Y118847
X194252Y70698
X194252Y62824
X44646Y64792
X44646Y72666
X44646Y90383
X44646Y98257
T05
X69173Y96446
X79173Y96446
X79173Y86446
X69173Y86446
X69173Y76446
X79173Y76446
T06
X132203Y24459
X150003Y24459
T07
X154903Y34259
X127303Y34259
M30
