G75*
%MOIN*%
%OFA0B0*%
%FSLAX25Y25*%
%IPPOS*%
%LPD*%
%AMOC8*
5,1,8,0,0,1.08239X$1,22.5*
%
%ADD10R,0.04737X0.02965*%
%ADD11OC8,0.06600*%
%ADD12OC8,0.07400*%
%ADD13C,0.04756*%
%ADD14C,0.05556*%
%ADD15R,0.03950X0.04737*%
%ADD16OC8,0.06000*%
%ADD17OC8,0.06800*%
%ADD18C,0.08850*%
%ADD19C,0.09650*%
%ADD20OC8,0.05200*%
%ADD21R,0.04737X0.03950*%
%ADD22R,0.05906X0.05906*%
%ADD23R,0.06706X0.06706*%
%ADD24R,0.05150X0.05150*%
%ADD25R,0.05950X0.05950*%
%ADD26C,0.05150*%
%ADD27C,0.05950*%
%ADD28R,0.04762X0.04762*%
D10*
X0059947Y0112233D03*
X0059947Y0115973D03*
X0059947Y0119713D03*
X0070183Y0119713D03*
X0070183Y0112233D03*
D11*
X0057191Y0098257D03*
X0057191Y0090383D03*
X0057191Y0072666D03*
X0057191Y0064792D03*
X0206797Y0062824D03*
X0206797Y0070698D03*
D12*
X0206797Y0070698D03*
X0206797Y0062824D03*
X0057191Y0064792D03*
X0057191Y0072666D03*
X0057191Y0090383D03*
X0057191Y0098257D03*
D13*
X0224514Y0097272D03*
X0224514Y0103178D03*
D14*
X0224514Y0103178D03*
X0224514Y0097272D03*
D15*
X0071758Y0102194D03*
X0066246Y0102194D03*
D16*
X0144748Y0024459D03*
X0162548Y0024459D03*
X0204829Y0118847D03*
X0204829Y0128847D03*
D17*
X0162548Y0024459D03*
X0144748Y0024459D03*
D18*
X0139848Y0034259D03*
X0167448Y0034259D03*
D19*
X0167448Y0034259D03*
X0139848Y0034259D03*
D20*
X0204829Y0118847D03*
X0204829Y0128847D03*
D21*
X0216640Y0126603D03*
X0216640Y0121091D03*
D22*
X0091719Y0096446D03*
X0091719Y0086446D03*
X0091719Y0076446D03*
X0081719Y0076446D03*
X0081719Y0086446D03*
X0081719Y0096446D03*
D23*
X0081719Y0096446D03*
X0091719Y0096446D03*
X0091719Y0086446D03*
X0091719Y0076446D03*
X0081719Y0076446D03*
X0081719Y0086446D03*
D24*
X0181207Y0165186D03*
D25*
X0181207Y0165186D03*
D26*
X0173333Y0165186D03*
X0165459Y0165186D03*
D27*
X0165459Y0165186D03*
X0173333Y0165186D03*
D28*
X0069002Y0043139D03*
X0098530Y0070698D03*
X0104435Y0058887D03*
X0112309Y0058887D03*
X0114278Y0035265D03*
X0163490Y0092351D03*
X0147742Y0102194D03*
X0159553Y0135658D03*
X0110341Y0135658D03*
X0100498Y0125816D03*
X0094593Y0119910D03*
X0076876Y0119910D03*
X0063097Y0125816D03*
X0204829Y0092351D03*
M02*
