G75*
%MOIN*%
%OFA0B0*%
%FSLAX25Y25*%
%IPPOS*%
%LPD*%
%AMOC8*
5,1,8,0,0,1.08239X$1,22.5*
%
%ADD10R,0.04737X0.02965*%
%ADD11OC8,0.06600*%
%ADD12OC8,0.07400*%
%ADD13C,0.04756*%
%ADD14C,0.05556*%
%ADD15R,0.03950X0.04737*%
%ADD16OC8,0.06000*%
%ADD17OC8,0.06800*%
%ADD18C,0.08850*%
%ADD19C,0.09650*%
%ADD20OC8,0.05200*%
%ADD21R,0.04737X0.03950*%
%ADD22R,0.05906X0.05906*%
%ADD23R,0.06706X0.06706*%
%ADD24R,0.05150X0.05150*%
%ADD25R,0.05950X0.05950*%
%ADD26C,0.05150*%
%ADD27C,0.05950*%
%ADD28R,0.04762X0.04762*%
D10*
X0047402Y0112233D03*
X0047402Y0115973D03*
X0047402Y0119713D03*
X0057638Y0119713D03*
X0057638Y0112233D03*
D11*
X0044646Y0098257D03*
X0044646Y0090383D03*
X0044646Y0072666D03*
X0044646Y0064792D03*
X0194252Y0062824D03*
X0194252Y0070698D03*
D12*
X0194252Y0070698D03*
X0194252Y0062824D03*
X0044646Y0064792D03*
X0044646Y0072666D03*
X0044646Y0090383D03*
X0044646Y0098257D03*
D13*
X0211969Y0097272D03*
X0211969Y0103178D03*
D14*
X0211969Y0103178D03*
X0211969Y0097272D03*
D15*
X0059213Y0102194D03*
X0053701Y0102194D03*
D16*
X0132203Y0024459D03*
X0150003Y0024459D03*
X0192284Y0118847D03*
X0192284Y0128847D03*
D17*
X0150003Y0024459D03*
X0132203Y0024459D03*
D18*
X0127303Y0034259D03*
X0154903Y0034259D03*
D19*
X0154903Y0034259D03*
X0127303Y0034259D03*
D20*
X0192284Y0118847D03*
X0192284Y0128847D03*
D21*
X0204095Y0126603D03*
X0204095Y0121091D03*
D22*
X0079173Y0096446D03*
X0069173Y0096446D03*
X0069173Y0086446D03*
X0079173Y0086446D03*
X0079173Y0076446D03*
X0069173Y0076446D03*
D23*
X0069173Y0076446D03*
X0079173Y0076446D03*
X0079173Y0086446D03*
X0069173Y0086446D03*
X0069173Y0096446D03*
X0079173Y0096446D03*
D24*
X0168662Y0165186D03*
D25*
X0168662Y0165186D03*
D26*
X0160788Y0165186D03*
X0152914Y0165186D03*
D27*
X0152914Y0165186D03*
X0160788Y0165186D03*
D28*
X0056457Y0043139D03*
X0085984Y0070698D03*
X0091890Y0058887D03*
X0099764Y0058887D03*
X0101733Y0035265D03*
X0150945Y0092351D03*
X0135197Y0102194D03*
X0147008Y0135658D03*
X0192284Y0092351D03*
X0097796Y0135658D03*
X0087953Y0125816D03*
X0082047Y0119910D03*
X0064331Y0119910D03*
X0050551Y0125816D03*
M02*
