G75*
%MOIN*%
%OFA0B0*%
%FSLAX25Y25*%
%IPPOS*%
%LPD*%
%AMOC8*
5,1,8,0,0,1.08239X$1,22.5*
%
%ADD10R,0.03937X0.02165*%
%ADD11OC8,0.06600*%
%ADD12C,0.05150*%
%ADD13R,0.03150X0.03937*%
%ADD14OC8,0.05937*%
%ADD15C,0.08858*%
%ADD16OC8,0.05150*%
%ADD17R,0.03937X0.03150*%
%ADD18R,0.05906X0.05906*%
%ADD19R,0.05150X0.05150*%
%ADD20C,0.01600*%
%ADD21R,0.03569X0.03569*%
%ADD22C,0.01575*%
D10*
X0059947Y0112233D03*
X0059947Y0115973D03*
X0059947Y0119713D03*
X0070183Y0119713D03*
X0070183Y0112233D03*
D11*
X0057191Y0098257D03*
X0057191Y0090383D03*
X0057191Y0072666D03*
X0057191Y0064792D03*
X0206797Y0062824D03*
X0206797Y0070698D03*
D12*
X0224514Y0097272D03*
X0224514Y0103178D03*
X0173333Y0165186D03*
X0165459Y0165186D03*
D13*
X0071758Y0102194D03*
X0066246Y0102194D03*
D14*
X0144748Y0024459D03*
X0162548Y0024459D03*
D15*
X0167448Y0034259D03*
X0139848Y0034259D03*
D16*
X0204829Y0118847D03*
X0204829Y0128847D03*
D17*
X0216640Y0126603D03*
X0216640Y0121091D03*
D18*
X0091719Y0096446D03*
X0091719Y0086446D03*
X0091719Y0076446D03*
X0081719Y0076446D03*
X0081719Y0086446D03*
X0081719Y0096446D03*
D19*
X0181207Y0165186D03*
D20*
X0153216Y0046558D02*
X0058302Y0046558D01*
X0057569Y0047494D02*
X0051770Y0057087D01*
X0047170Y0067309D01*
X0043835Y0078011D01*
X0041814Y0089036D01*
X0041137Y0100225D01*
X0041814Y0111414D01*
X0043835Y0122440D01*
X0047170Y0133141D01*
X0051770Y0143363D01*
X0057569Y0152956D01*
X0064482Y0161780D01*
X0072408Y0169706D01*
X0081232Y0176619D01*
X0090825Y0182418D01*
X0101046Y0187018D01*
X0111748Y0190353D01*
X0122774Y0192374D01*
X0133963Y0193050D01*
X0145151Y0192374D01*
X0156177Y0190353D01*
X0166879Y0187018D01*
X0177101Y0182418D01*
X0186693Y0176619D01*
X0195517Y0169706D01*
X0203443Y0161780D01*
X0210356Y0152956D01*
X0216155Y0143363D01*
X0220756Y0133141D01*
X0224091Y0122440D01*
X0225303Y0115822D01*
X0220208Y0120917D01*
X0220208Y0123329D01*
X0219690Y0123847D01*
X0220208Y0124366D01*
X0220208Y0128841D01*
X0219271Y0129778D01*
X0214009Y0129778D01*
X0213234Y0129003D01*
X0209004Y0129003D01*
X0209004Y0130576D01*
X0206558Y0133022D01*
X0203100Y0133022D01*
X0200654Y0130576D01*
X0200654Y0127118D01*
X0203100Y0124672D01*
X0205609Y0124672D01*
X0205713Y0124569D01*
X0206595Y0124203D01*
X0213234Y0124203D01*
X0213590Y0123847D01*
X0213071Y0123329D01*
X0213071Y0118854D01*
X0214009Y0117917D01*
X0216421Y0117917D01*
X0222114Y0112223D01*
X0222114Y0106682D01*
X0221010Y0105578D01*
X0215178Y0105578D01*
X0214296Y0105213D01*
X0213621Y0104537D01*
X0204819Y0095735D01*
X0202382Y0095735D01*
X0201445Y0094798D01*
X0201445Y0089904D01*
X0202382Y0088967D01*
X0202429Y0088967D01*
X0202429Y0073259D01*
X0201897Y0072727D01*
X0201897Y0068668D01*
X0203663Y0066902D01*
X0201697Y0064936D01*
X0201697Y0062824D01*
X0206797Y0062824D01*
X0206797Y0062824D01*
X0201697Y0062824D01*
X0201697Y0060711D01*
X0204685Y0057724D01*
X0206797Y0057724D01*
X0206797Y0062823D01*
X0206797Y0062823D01*
X0206797Y0057724D01*
X0208910Y0057724D01*
X0211897Y0060711D01*
X0211897Y0062824D01*
X0211897Y0064936D01*
X0209931Y0066902D01*
X0211697Y0068668D01*
X0211697Y0072727D01*
X0208827Y0075598D01*
X0207229Y0075598D01*
X0207229Y0088967D01*
X0207276Y0088967D01*
X0208213Y0089904D01*
X0208213Y0092341D01*
X0216650Y0100778D01*
X0221010Y0100778D01*
X0221563Y0100225D01*
X0220975Y0099637D01*
X0220339Y0098103D01*
X0220339Y0096442D01*
X0220975Y0094908D01*
X0222149Y0093733D01*
X0223683Y0093098D01*
X0225344Y0093098D01*
X0226383Y0093528D01*
X0226111Y0089036D01*
X0224091Y0078011D01*
X0220756Y0067309D01*
X0216155Y0057087D01*
X0210356Y0047494D01*
X0203443Y0038671D01*
X0195517Y0030745D01*
X0186693Y0023832D01*
X0177101Y0018033D01*
X0166879Y0013432D01*
X0156177Y0010097D01*
X0145152Y0008077D01*
X0133963Y0007400D01*
X0122774Y0008077D01*
X0111748Y0010097D01*
X0101046Y0013432D01*
X0090825Y0018033D01*
X0081232Y0023832D01*
X0072408Y0030745D01*
X0064482Y0038671D01*
X0057569Y0047494D01*
X0057169Y0048157D02*
X0153216Y0048157D01*
X0153216Y0049755D02*
X0056202Y0049755D01*
X0055236Y0051354D02*
X0153216Y0051354D01*
X0153216Y0052952D02*
X0054270Y0052952D01*
X0053303Y0054551D02*
X0153216Y0054551D01*
X0153216Y0056149D02*
X0115403Y0056149D01*
X0115693Y0056440D02*
X0114756Y0055502D01*
X0109862Y0055502D01*
X0108925Y0056440D01*
X0108925Y0061334D01*
X0109862Y0062271D01*
X0109909Y0062271D01*
X0109909Y0113011D01*
X0100488Y0122431D01*
X0098051Y0122431D01*
X0097114Y0123369D01*
X0097114Y0128263D01*
X0098051Y0129200D01*
X0102945Y0129200D01*
X0103882Y0128263D01*
X0103882Y0125826D01*
X0114344Y0115364D01*
X0114709Y0114482D01*
X0114709Y0062271D01*
X0114756Y0062271D01*
X0115693Y0061334D01*
X0115693Y0056440D01*
X0115693Y0057748D02*
X0153216Y0057748D01*
X0153216Y0059346D02*
X0115693Y0059346D01*
X0115693Y0060945D02*
X0153216Y0060945D01*
X0153216Y0062543D02*
X0114709Y0062543D01*
X0114709Y0064142D02*
X0152872Y0064142D01*
X0153216Y0063798D02*
X0153216Y0030913D01*
X0153582Y0030031D01*
X0154257Y0029356D01*
X0157979Y0025633D01*
X0157979Y0022567D01*
X0160655Y0019891D01*
X0164440Y0019891D01*
X0167116Y0022567D01*
X0167116Y0026351D01*
X0164523Y0028945D01*
X0166248Y0028230D01*
X0168647Y0028230D01*
X0170863Y0029148D01*
X0172559Y0030844D01*
X0173477Y0033060D01*
X0173477Y0035458D01*
X0172559Y0037674D01*
X0170863Y0039370D01*
X0168647Y0040288D01*
X0166248Y0040288D01*
X0164032Y0039370D01*
X0162336Y0037674D01*
X0161419Y0035458D01*
X0161419Y0033060D01*
X0162336Y0030844D01*
X0164032Y0029148D01*
X0164323Y0029028D01*
X0161373Y0029028D01*
X0158016Y0032385D01*
X0158016Y0065270D01*
X0157651Y0066152D01*
X0150142Y0073660D01*
X0150142Y0098809D01*
X0150189Y0098809D01*
X0151126Y0099747D01*
X0151126Y0104641D01*
X0150189Y0105578D01*
X0145295Y0105578D01*
X0144358Y0104641D01*
X0144358Y0099747D01*
X0145295Y0098809D01*
X0145342Y0098809D01*
X0145342Y0072189D01*
X0145708Y0071307D01*
X0146383Y0070632D01*
X0153216Y0063798D01*
X0155616Y0064792D02*
X0147742Y0072666D01*
X0147742Y0102194D01*
X0151126Y0102506D02*
X0161090Y0102506D01*
X0161090Y0100908D02*
X0151126Y0100908D01*
X0150689Y0099309D02*
X0161090Y0099309D01*
X0161090Y0097711D02*
X0150142Y0097711D01*
X0150142Y0096112D02*
X0161090Y0096112D01*
X0161090Y0095735D02*
X0161043Y0095735D01*
X0160106Y0094798D01*
X0160106Y0089904D01*
X0161043Y0088967D01*
X0165937Y0088967D01*
X0166874Y0089904D01*
X0166874Y0094798D01*
X0165937Y0095735D01*
X0165890Y0095735D01*
X0165890Y0122356D01*
X0165525Y0123238D01*
X0156048Y0132715D01*
X0156048Y0133271D01*
X0156169Y0133271D01*
X0156169Y0133211D01*
X0157106Y0132274D01*
X0162000Y0132274D01*
X0162937Y0133211D01*
X0162937Y0138105D01*
X0162000Y0139043D01*
X0157106Y0139043D01*
X0156169Y0138105D01*
X0156169Y0138046D01*
X0156048Y0138046D01*
X0156048Y0152381D01*
X0164678Y0161011D01*
X0166289Y0161011D01*
X0167824Y0161647D01*
X0168998Y0162821D01*
X0169396Y0163781D01*
X0169794Y0162821D01*
X0170968Y0161647D01*
X0172502Y0161011D01*
X0174163Y0161011D01*
X0175698Y0161647D01*
X0176832Y0162781D01*
X0176832Y0162374D01*
X0176955Y0161916D01*
X0177192Y0161506D01*
X0177527Y0161171D01*
X0177937Y0160934D01*
X0178395Y0160811D01*
X0181207Y0160811D01*
X0184019Y0160811D01*
X0184476Y0160934D01*
X0184887Y0161171D01*
X0185222Y0161506D01*
X0185459Y0161916D01*
X0185582Y0162374D01*
X0185582Y0165186D01*
X0185582Y0167998D01*
X0185459Y0168455D01*
X0185222Y0168866D01*
X0184887Y0169201D01*
X0184476Y0169438D01*
X0184019Y0169561D01*
X0181207Y0169561D01*
X0181207Y0165186D01*
X0185582Y0165186D01*
X0181207Y0165186D01*
X0181207Y0165186D01*
X0181207Y0165186D01*
X0181207Y0169561D01*
X0178395Y0169561D01*
X0177937Y0169438D01*
X0177527Y0169201D01*
X0177192Y0168866D01*
X0176955Y0168455D01*
X0176832Y0167998D01*
X0176832Y0167591D01*
X0175698Y0168725D01*
X0174163Y0169361D01*
X0172502Y0169361D01*
X0170968Y0168725D01*
X0169794Y0167551D01*
X0169396Y0166590D01*
X0168998Y0167551D01*
X0167824Y0168725D01*
X0166289Y0169361D01*
X0164628Y0169361D01*
X0163094Y0168725D01*
X0161919Y0167551D01*
X0161284Y0166016D01*
X0161284Y0164405D01*
X0151613Y0154734D01*
X0151248Y0153852D01*
X0151248Y0138046D01*
X0113725Y0138046D01*
X0113725Y0138105D01*
X0112788Y0139043D01*
X0107894Y0139043D01*
X0106956Y0138105D01*
X0106956Y0133211D01*
X0107894Y0132274D01*
X0112788Y0132274D01*
X0113725Y0133211D01*
X0113725Y0133271D01*
X0151248Y0133271D01*
X0151248Y0131244D01*
X0151613Y0130362D01*
X0152288Y0129687D01*
X0161090Y0120885D01*
X0161090Y0095735D01*
X0160106Y0094514D02*
X0150142Y0094514D01*
X0150142Y0092915D02*
X0160106Y0092915D01*
X0160106Y0091317D02*
X0150142Y0091317D01*
X0150142Y0089718D02*
X0160292Y0089718D01*
X0163490Y0092351D02*
X0163490Y0121879D01*
X0153648Y0131721D01*
X0153648Y0153375D01*
X0165459Y0165186D01*
X0168503Y0168045D02*
X0170288Y0168045D01*
X0169616Y0163250D02*
X0169175Y0163250D01*
X0167828Y0161651D02*
X0170963Y0161651D01*
X0175702Y0161651D02*
X0177108Y0161651D01*
X0181207Y0161651D02*
X0181207Y0161651D01*
X0181207Y0160811D02*
X0181207Y0165186D01*
X0181207Y0165186D01*
X0181207Y0160811D01*
X0181207Y0163250D02*
X0181207Y0163250D01*
X0181207Y0164848D02*
X0181207Y0164848D01*
X0181207Y0166447D02*
X0181207Y0166447D01*
X0181207Y0168045D02*
X0181207Y0168045D01*
X0185569Y0168045D02*
X0197178Y0168045D01*
X0198776Y0166447D02*
X0185582Y0166447D01*
X0185582Y0164848D02*
X0200375Y0164848D01*
X0201973Y0163250D02*
X0185582Y0163250D01*
X0185306Y0161651D02*
X0203544Y0161651D01*
X0204796Y0160053D02*
X0163720Y0160053D01*
X0162121Y0158454D02*
X0206049Y0158454D01*
X0207301Y0156856D02*
X0160523Y0156856D01*
X0158924Y0155257D02*
X0208553Y0155257D01*
X0209806Y0153659D02*
X0157326Y0153659D01*
X0156048Y0152060D02*
X0210898Y0152060D01*
X0211864Y0150462D02*
X0156048Y0150462D01*
X0156048Y0148863D02*
X0212831Y0148863D01*
X0213797Y0147265D02*
X0156048Y0147265D01*
X0156048Y0145666D02*
X0214763Y0145666D01*
X0215730Y0144068D02*
X0156048Y0144068D01*
X0156048Y0142469D02*
X0216558Y0142469D01*
X0217277Y0140870D02*
X0156048Y0140870D01*
X0156048Y0139272D02*
X0217997Y0139272D01*
X0218716Y0137673D02*
X0162937Y0137673D01*
X0162937Y0136075D02*
X0219435Y0136075D01*
X0220155Y0134476D02*
X0162937Y0134476D01*
X0162604Y0132878D02*
X0202955Y0132878D01*
X0201357Y0131279D02*
X0157484Y0131279D01*
X0156502Y0132878D02*
X0156048Y0132878D01*
X0159082Y0129681D02*
X0200654Y0129681D01*
X0200654Y0128082D02*
X0160681Y0128082D01*
X0162279Y0126484D02*
X0201288Y0126484D01*
X0202887Y0124885D02*
X0163878Y0124885D01*
X0165476Y0123287D02*
X0213071Y0123287D01*
X0213071Y0121688D02*
X0207892Y0121688D01*
X0209004Y0120576D02*
X0206558Y0123022D01*
X0203100Y0123022D01*
X0200654Y0120576D01*
X0200654Y0117118D01*
X0203100Y0114672D01*
X0206558Y0114672D01*
X0209004Y0117118D01*
X0209004Y0120576D01*
X0209004Y0120090D02*
X0213071Y0120090D01*
X0213434Y0118491D02*
X0209004Y0118491D01*
X0208778Y0116893D02*
X0217444Y0116893D01*
X0219043Y0115294D02*
X0207180Y0115294D01*
X0202478Y0115294D02*
X0165890Y0115294D01*
X0165890Y0113696D02*
X0220641Y0113696D01*
X0222114Y0112097D02*
X0165890Y0112097D01*
X0165890Y0110499D02*
X0222114Y0110499D01*
X0222114Y0108900D02*
X0165890Y0108900D01*
X0165890Y0107302D02*
X0222114Y0107302D01*
X0221135Y0105703D02*
X0165890Y0105703D01*
X0165890Y0104105D02*
X0213188Y0104105D01*
X0211590Y0102506D02*
X0165890Y0102506D01*
X0165890Y0100908D02*
X0209991Y0100908D01*
X0208393Y0099309D02*
X0165890Y0099309D01*
X0165890Y0097711D02*
X0206794Y0097711D01*
X0205196Y0096112D02*
X0165890Y0096112D01*
X0166874Y0094514D02*
X0201445Y0094514D01*
X0201445Y0092915D02*
X0166874Y0092915D01*
X0166874Y0091317D02*
X0201445Y0091317D01*
X0201631Y0089718D02*
X0166688Y0089718D01*
X0161090Y0104105D02*
X0151126Y0104105D01*
X0144358Y0104105D02*
X0114709Y0104105D01*
X0114709Y0105703D02*
X0161090Y0105703D01*
X0161090Y0107302D02*
X0114709Y0107302D01*
X0114709Y0108900D02*
X0161090Y0108900D01*
X0161090Y0110499D02*
X0114709Y0110499D01*
X0114709Y0112097D02*
X0161090Y0112097D01*
X0161090Y0113696D02*
X0114709Y0113696D01*
X0114373Y0115294D02*
X0161090Y0115294D01*
X0161090Y0116893D02*
X0112815Y0116893D01*
X0111217Y0118491D02*
X0161090Y0118491D01*
X0161090Y0120090D02*
X0109618Y0120090D01*
X0108020Y0121688D02*
X0160286Y0121688D01*
X0158688Y0123287D02*
X0106421Y0123287D01*
X0104823Y0124885D02*
X0157089Y0124885D01*
X0155491Y0126484D02*
X0103882Y0126484D01*
X0103882Y0128082D02*
X0153892Y0128082D01*
X0152294Y0129681D02*
X0046091Y0129681D01*
X0046589Y0131279D02*
X0151248Y0131279D01*
X0151248Y0132878D02*
X0113392Y0132878D01*
X0107290Y0132878D02*
X0047087Y0132878D01*
X0047770Y0134476D02*
X0106956Y0134476D01*
X0106956Y0136075D02*
X0048490Y0136075D01*
X0049209Y0137673D02*
X0106956Y0137673D01*
X0097114Y0128082D02*
X0066481Y0128082D01*
X0066481Y0128263D02*
X0065544Y0129200D01*
X0060650Y0129200D01*
X0059712Y0128263D01*
X0059712Y0125808D01*
X0057560Y0123655D01*
X0057560Y0122396D01*
X0057316Y0122396D01*
X0057033Y0122113D01*
X0054548Y0122113D01*
X0053666Y0121748D01*
X0052991Y0121073D01*
X0049251Y0117333D01*
X0048885Y0116451D01*
X0048885Y0095811D01*
X0049251Y0094929D01*
X0049926Y0094254D01*
X0052291Y0091889D01*
X0052291Y0088877D01*
X0049251Y0085837D01*
X0048885Y0084955D01*
X0048885Y0070220D01*
X0049251Y0069338D01*
X0049926Y0068663D01*
X0052291Y0066298D01*
X0052291Y0062762D01*
X0055161Y0059892D01*
X0059221Y0059892D01*
X0062091Y0062762D01*
X0062091Y0066822D01*
X0060325Y0068588D01*
X0062291Y0070554D01*
X0062291Y0072666D01*
X0057191Y0072666D01*
X0057191Y0072666D01*
X0062291Y0072666D01*
X0062291Y0074779D01*
X0059303Y0077766D01*
X0057191Y0077766D01*
X0055079Y0077766D01*
X0053685Y0076373D01*
X0053685Y0083483D01*
X0055685Y0085483D01*
X0059221Y0085483D01*
X0062091Y0088353D01*
X0062091Y0092412D01*
X0060325Y0094178D01*
X0062291Y0096144D01*
X0062291Y0098257D01*
X0062291Y0100369D01*
X0059303Y0103357D01*
X0057191Y0103357D01*
X0055079Y0103357D01*
X0053685Y0101964D01*
X0053685Y0114979D01*
X0056020Y0117313D01*
X0056184Y0117313D01*
X0056178Y0117293D01*
X0056178Y0115973D01*
X0056178Y0114654D01*
X0056301Y0114196D01*
X0056409Y0114009D01*
X0056378Y0113978D01*
X0056378Y0110488D01*
X0057316Y0109550D01*
X0062578Y0109550D01*
X0063515Y0110488D01*
X0063515Y0113978D01*
X0063485Y0114009D01*
X0063593Y0114196D01*
X0063715Y0114654D01*
X0063715Y0115973D01*
X0059947Y0115973D01*
X0059947Y0115973D01*
X0056178Y0115973D01*
X0059947Y0115973D01*
X0059947Y0115973D01*
X0063715Y0115973D01*
X0063715Y0117293D01*
X0063593Y0117751D01*
X0063485Y0117937D01*
X0063515Y0117968D01*
X0063515Y0121459D01*
X0062816Y0122159D01*
X0063089Y0122431D01*
X0065544Y0122431D01*
X0066481Y0123369D01*
X0066481Y0128263D01*
X0066481Y0126484D02*
X0097114Y0126484D01*
X0097114Y0124885D02*
X0066481Y0124885D01*
X0066399Y0123287D02*
X0074421Y0123287D01*
X0074429Y0123294D02*
X0073492Y0122357D01*
X0073492Y0122123D01*
X0073108Y0122103D01*
X0072814Y0122396D01*
X0067552Y0122396D01*
X0066615Y0121459D01*
X0066615Y0117968D01*
X0067552Y0117031D01*
X0072814Y0117031D01*
X0073105Y0117321D01*
X0073199Y0117326D01*
X0073629Y0117326D01*
X0074429Y0116526D01*
X0079323Y0116526D01*
X0080260Y0117463D01*
X0080260Y0122357D01*
X0079323Y0123294D01*
X0074429Y0123294D01*
X0079331Y0123287D02*
X0092138Y0123287D01*
X0092146Y0123294D02*
X0091208Y0122357D01*
X0091208Y0117463D01*
X0092146Y0116526D01*
X0092614Y0116526D01*
X0093233Y0115907D01*
X0102035Y0107105D01*
X0102035Y0062271D01*
X0101988Y0062271D01*
X0101051Y0061334D01*
X0101051Y0056440D01*
X0101988Y0055502D01*
X0106882Y0055502D01*
X0107819Y0056440D01*
X0107819Y0061334D01*
X0106882Y0062271D01*
X0106835Y0062271D01*
X0106835Y0108577D01*
X0106470Y0109459D01*
X0097977Y0117952D01*
X0097977Y0122357D01*
X0097040Y0123294D01*
X0092146Y0123294D01*
X0091208Y0121688D02*
X0080260Y0121688D01*
X0080260Y0120090D02*
X0091208Y0120090D01*
X0091208Y0118491D02*
X0080260Y0118491D01*
X0079690Y0116893D02*
X0091779Y0116893D01*
X0093846Y0115294D02*
X0063715Y0115294D01*
X0063715Y0116893D02*
X0074062Y0116893D01*
X0072747Y0115014D02*
X0072419Y0115014D01*
X0072138Y0115183D01*
X0071464Y0115014D01*
X0070769Y0115014D01*
X0070671Y0114916D01*
X0067552Y0114916D01*
X0066615Y0113978D01*
X0066615Y0110488D01*
X0067552Y0109550D01*
X0069371Y0109550D01*
X0069371Y0105612D01*
X0069143Y0105385D01*
X0068926Y0105603D01*
X0068516Y0105840D01*
X0068058Y0105962D01*
X0066246Y0105962D01*
X0064434Y0105962D01*
X0063977Y0105840D01*
X0063566Y0105603D01*
X0063231Y0105267D01*
X0062994Y0104857D01*
X0062871Y0104399D01*
X0062871Y0102194D01*
X0066246Y0102194D01*
X0066246Y0105962D01*
X0066246Y0102194D01*
X0066246Y0102194D01*
X0066246Y0102194D01*
X0062871Y0102194D01*
X0062871Y0099988D01*
X0062994Y0099530D01*
X0063231Y0099120D01*
X0063566Y0098785D01*
X0063977Y0098548D01*
X0064434Y0098425D01*
X0066246Y0098425D01*
X0066246Y0102194D01*
X0066246Y0102194D01*
X0066246Y0098425D01*
X0068058Y0098425D01*
X0068516Y0098548D01*
X0068926Y0098785D01*
X0069143Y0099002D01*
X0069520Y0098625D01*
X0073995Y0098625D01*
X0074933Y0099562D01*
X0074933Y0104825D01*
X0074145Y0105612D01*
X0074145Y0111965D01*
X0074314Y0112246D01*
X0074145Y0112921D01*
X0074145Y0113616D01*
X0073914Y0113847D01*
X0073834Y0114165D01*
X0073238Y0114523D01*
X0072747Y0115014D01*
X0074065Y0113696D02*
X0095444Y0113696D01*
X0097043Y0112097D02*
X0074224Y0112097D01*
X0074145Y0110499D02*
X0098641Y0110499D01*
X0100240Y0108900D02*
X0074145Y0108900D01*
X0074145Y0107302D02*
X0101838Y0107302D01*
X0102035Y0105703D02*
X0074145Y0105703D01*
X0074933Y0104105D02*
X0102035Y0104105D01*
X0102035Y0102506D02*
X0074933Y0102506D01*
X0074933Y0100908D02*
X0077780Y0100908D01*
X0077661Y0100839D02*
X0077325Y0100504D01*
X0077088Y0100093D01*
X0076966Y0099635D01*
X0076966Y0096531D01*
X0081633Y0096531D01*
X0081633Y0096360D01*
X0081804Y0096360D01*
X0081804Y0091693D01*
X0084908Y0091693D01*
X0085366Y0091816D01*
X0085777Y0092053D01*
X0086112Y0092388D01*
X0086349Y0092798D01*
X0086471Y0093256D01*
X0086471Y0096360D01*
X0081804Y0096360D01*
X0081804Y0096531D01*
X0086471Y0096531D01*
X0086471Y0099635D01*
X0086349Y0100093D01*
X0086112Y0100504D01*
X0085777Y0100839D01*
X0085366Y0101076D01*
X0084908Y0101198D01*
X0081804Y0101198D01*
X0081804Y0096532D01*
X0081633Y0096532D01*
X0081633Y0101198D01*
X0078529Y0101198D01*
X0078071Y0101076D01*
X0077661Y0100839D01*
X0076966Y0099309D02*
X0074679Y0099309D01*
X0076966Y0097711D02*
X0062291Y0097711D01*
X0062291Y0098257D02*
X0057191Y0098257D01*
X0057191Y0103357D01*
X0057191Y0098257D01*
X0057191Y0098257D01*
X0062291Y0098257D01*
X0062291Y0099309D02*
X0063122Y0099309D01*
X0062871Y0100908D02*
X0061752Y0100908D01*
X0062871Y0102506D02*
X0060154Y0102506D01*
X0057191Y0102506D02*
X0057191Y0102506D01*
X0057191Y0100908D02*
X0057191Y0100908D01*
X0057191Y0099309D02*
X0057191Y0099309D01*
X0057191Y0098257D02*
X0057191Y0098257D01*
X0060660Y0094514D02*
X0076966Y0094514D01*
X0076966Y0093256D02*
X0077088Y0092798D01*
X0077325Y0092388D01*
X0077661Y0092053D01*
X0078071Y0091816D01*
X0078529Y0091693D01*
X0081633Y0091693D01*
X0081633Y0096360D01*
X0076966Y0096360D01*
X0076966Y0093256D01*
X0077057Y0092915D02*
X0061588Y0092915D01*
X0062091Y0091317D02*
X0093453Y0091317D01*
X0093772Y0090998D02*
X0092877Y0091893D01*
X0088103Y0091893D01*
X0087166Y0092830D01*
X0087166Y0100061D01*
X0088103Y0100998D01*
X0095334Y0100998D01*
X0096271Y0100061D01*
X0096271Y0095287D01*
X0100564Y0090994D01*
X0100930Y0090112D01*
X0100930Y0074082D01*
X0100977Y0074082D01*
X0101914Y0073145D01*
X0101914Y0068251D01*
X0100977Y0067313D01*
X0096083Y0067313D01*
X0095145Y0068251D01*
X0095145Y0071893D01*
X0088103Y0071893D01*
X0087166Y0072830D01*
X0087166Y0080061D01*
X0088103Y0080998D01*
X0095334Y0080998D01*
X0096130Y0080203D01*
X0096130Y0082688D01*
X0095334Y0081893D01*
X0088103Y0081893D01*
X0087166Y0082830D01*
X0087166Y0090061D01*
X0088103Y0090998D01*
X0093772Y0090998D01*
X0097045Y0094514D02*
X0102035Y0094514D01*
X0102035Y0096112D02*
X0096271Y0096112D01*
X0096271Y0097711D02*
X0102035Y0097711D01*
X0102035Y0099309D02*
X0096271Y0099309D01*
X0095425Y0100908D02*
X0102035Y0100908D01*
X0106835Y0100908D02*
X0109909Y0100908D01*
X0109909Y0102506D02*
X0106835Y0102506D01*
X0106835Y0104105D02*
X0109909Y0104105D01*
X0109909Y0105703D02*
X0106835Y0105703D01*
X0106835Y0107302D02*
X0109909Y0107302D01*
X0109909Y0108900D02*
X0106701Y0108900D01*
X0105430Y0110499D02*
X0109909Y0110499D01*
X0109909Y0112097D02*
X0103831Y0112097D01*
X0102233Y0113696D02*
X0109224Y0113696D01*
X0107625Y0115294D02*
X0100634Y0115294D01*
X0099036Y0116893D02*
X0106027Y0116893D01*
X0104428Y0118491D02*
X0097977Y0118491D01*
X0097977Y0120090D02*
X0102830Y0120090D01*
X0101231Y0121688D02*
X0097977Y0121688D01*
X0097196Y0123287D02*
X0097047Y0123287D01*
X0100498Y0125816D02*
X0112309Y0114005D01*
X0112309Y0058887D01*
X0108925Y0059346D02*
X0107819Y0059346D01*
X0107819Y0057748D02*
X0108925Y0057748D01*
X0109215Y0056149D02*
X0107529Y0056149D01*
X0104435Y0058887D02*
X0104435Y0108099D01*
X0094593Y0117942D01*
X0094593Y0119910D01*
X0114709Y0102506D02*
X0144358Y0102506D01*
X0144358Y0100908D02*
X0114709Y0100908D01*
X0114709Y0099309D02*
X0144795Y0099309D01*
X0145342Y0097711D02*
X0114709Y0097711D01*
X0114709Y0096112D02*
X0145342Y0096112D01*
X0145342Y0094514D02*
X0114709Y0094514D01*
X0114709Y0092915D02*
X0145342Y0092915D01*
X0145342Y0091317D02*
X0114709Y0091317D01*
X0114709Y0089718D02*
X0145342Y0089718D01*
X0145342Y0088120D02*
X0114709Y0088120D01*
X0114709Y0086521D02*
X0145342Y0086521D01*
X0145342Y0084923D02*
X0114709Y0084923D01*
X0114709Y0083324D02*
X0145342Y0083324D01*
X0145342Y0081726D02*
X0114709Y0081726D01*
X0114709Y0080127D02*
X0145342Y0080127D01*
X0145342Y0078529D02*
X0114709Y0078529D01*
X0114709Y0076930D02*
X0145342Y0076930D01*
X0145342Y0075332D02*
X0114709Y0075332D01*
X0114709Y0073733D02*
X0145342Y0073733D01*
X0145365Y0072134D02*
X0114709Y0072134D01*
X0114709Y0070536D02*
X0146478Y0070536D01*
X0146383Y0070632D02*
X0146383Y0070632D01*
X0148077Y0068937D02*
X0114709Y0068937D01*
X0114709Y0067339D02*
X0149675Y0067339D01*
X0151274Y0065740D02*
X0114709Y0065740D01*
X0109909Y0065740D02*
X0106835Y0065740D01*
X0106835Y0064142D02*
X0109909Y0064142D01*
X0109909Y0062543D02*
X0106835Y0062543D01*
X0107819Y0060945D02*
X0108925Y0060945D01*
X0109909Y0067339D02*
X0106835Y0067339D01*
X0106835Y0068937D02*
X0109909Y0068937D01*
X0109909Y0070536D02*
X0106835Y0070536D01*
X0106835Y0072134D02*
X0109909Y0072134D01*
X0109909Y0073733D02*
X0106835Y0073733D01*
X0106835Y0075332D02*
X0109909Y0075332D01*
X0109909Y0076930D02*
X0106835Y0076930D01*
X0106835Y0078529D02*
X0109909Y0078529D01*
X0109909Y0080127D02*
X0106835Y0080127D01*
X0106835Y0081726D02*
X0109909Y0081726D01*
X0109909Y0083324D02*
X0106835Y0083324D01*
X0106835Y0084923D02*
X0109909Y0084923D01*
X0109909Y0086521D02*
X0106835Y0086521D01*
X0106835Y0088120D02*
X0109909Y0088120D01*
X0109909Y0089718D02*
X0106835Y0089718D01*
X0106835Y0091317D02*
X0109909Y0091317D01*
X0109909Y0092915D02*
X0106835Y0092915D01*
X0106835Y0094514D02*
X0109909Y0094514D01*
X0109909Y0096112D02*
X0106835Y0096112D01*
X0106835Y0097711D02*
X0109909Y0097711D01*
X0109909Y0099309D02*
X0106835Y0099309D01*
X0102035Y0092915D02*
X0098643Y0092915D01*
X0100242Y0091317D02*
X0102035Y0091317D01*
X0102035Y0089718D02*
X0100930Y0089718D01*
X0100930Y0088120D02*
X0102035Y0088120D01*
X0102035Y0086521D02*
X0100930Y0086521D01*
X0100930Y0084923D02*
X0102035Y0084923D01*
X0102035Y0083324D02*
X0100930Y0083324D01*
X0100930Y0081726D02*
X0102035Y0081726D01*
X0102035Y0080127D02*
X0100930Y0080127D01*
X0100930Y0078529D02*
X0102035Y0078529D01*
X0102035Y0076930D02*
X0100930Y0076930D01*
X0100930Y0075332D02*
X0102035Y0075332D01*
X0102035Y0073733D02*
X0101325Y0073733D01*
X0101914Y0072134D02*
X0102035Y0072134D01*
X0102035Y0070536D02*
X0101914Y0070536D01*
X0101914Y0068937D02*
X0102035Y0068937D01*
X0102035Y0067339D02*
X0101002Y0067339D01*
X0102035Y0065740D02*
X0062091Y0065740D01*
X0062091Y0064142D02*
X0102035Y0064142D01*
X0102035Y0062543D02*
X0061872Y0062543D01*
X0060273Y0060945D02*
X0101051Y0060945D01*
X0101051Y0059346D02*
X0050753Y0059346D01*
X0051473Y0057748D02*
X0101051Y0057748D01*
X0101341Y0056149D02*
X0052337Y0056149D01*
X0054109Y0060945D02*
X0050034Y0060945D01*
X0049314Y0062543D02*
X0052510Y0062543D01*
X0052291Y0064142D02*
X0048595Y0064142D01*
X0047876Y0065740D02*
X0052291Y0065740D01*
X0051250Y0067339D02*
X0047160Y0067339D01*
X0046662Y0068937D02*
X0049652Y0068937D01*
X0048885Y0070536D02*
X0046164Y0070536D01*
X0045666Y0072134D02*
X0048885Y0072134D01*
X0048885Y0073733D02*
X0045168Y0073733D01*
X0044670Y0075332D02*
X0048885Y0075332D01*
X0048885Y0076930D02*
X0044172Y0076930D01*
X0043740Y0078529D02*
X0048885Y0078529D01*
X0048885Y0080127D02*
X0043447Y0080127D01*
X0043154Y0081726D02*
X0048885Y0081726D01*
X0048885Y0083324D02*
X0042861Y0083324D01*
X0042568Y0084923D02*
X0048885Y0084923D01*
X0049935Y0086521D02*
X0042275Y0086521D01*
X0041982Y0088120D02*
X0051534Y0088120D01*
X0052291Y0089718D02*
X0041773Y0089718D01*
X0041676Y0091317D02*
X0052291Y0091317D01*
X0051264Y0092915D02*
X0041580Y0092915D01*
X0041483Y0094514D02*
X0049666Y0094514D01*
X0048885Y0096112D02*
X0041386Y0096112D01*
X0041290Y0097711D02*
X0048885Y0097711D01*
X0048885Y0099309D02*
X0041193Y0099309D01*
X0041179Y0100908D02*
X0048885Y0100908D01*
X0048885Y0102506D02*
X0041275Y0102506D01*
X0041372Y0104105D02*
X0048885Y0104105D01*
X0048885Y0105703D02*
X0041469Y0105703D01*
X0041565Y0107302D02*
X0048885Y0107302D01*
X0048885Y0108900D02*
X0041662Y0108900D01*
X0041759Y0110499D02*
X0048885Y0110499D01*
X0048885Y0112097D02*
X0041939Y0112097D01*
X0042232Y0113696D02*
X0048885Y0113696D01*
X0048885Y0115294D02*
X0042525Y0115294D01*
X0042818Y0116893D02*
X0049069Y0116893D01*
X0050409Y0118491D02*
X0043111Y0118491D01*
X0043404Y0120090D02*
X0052008Y0120090D01*
X0053607Y0121688D02*
X0043697Y0121688D01*
X0044099Y0123287D02*
X0057560Y0123287D01*
X0058790Y0124885D02*
X0044597Y0124885D01*
X0045095Y0126484D02*
X0059712Y0126484D01*
X0059712Y0128082D02*
X0045593Y0128082D01*
X0055026Y0119713D02*
X0059947Y0119713D01*
X0063515Y0120090D02*
X0066615Y0120090D01*
X0066615Y0118491D02*
X0063515Y0118491D01*
X0063286Y0121688D02*
X0066844Y0121688D01*
X0066615Y0113696D02*
X0063515Y0113696D01*
X0063515Y0112097D02*
X0066615Y0112097D01*
X0066615Y0110499D02*
X0063515Y0110499D01*
X0069371Y0108900D02*
X0053685Y0108900D01*
X0053685Y0107302D02*
X0069371Y0107302D01*
X0069371Y0105703D02*
X0068752Y0105703D01*
X0066246Y0105703D02*
X0066246Y0105703D01*
X0066246Y0104105D02*
X0066246Y0104105D01*
X0066246Y0102506D02*
X0066246Y0102506D01*
X0066246Y0100908D02*
X0066246Y0100908D01*
X0066246Y0099309D02*
X0066246Y0099309D01*
X0062259Y0096112D02*
X0076966Y0096112D01*
X0081633Y0096112D02*
X0081804Y0096112D01*
X0081804Y0094514D02*
X0081633Y0094514D01*
X0081633Y0092915D02*
X0081804Y0092915D01*
X0085334Y0090998D02*
X0078103Y0090998D01*
X0077166Y0090061D01*
X0077166Y0082830D01*
X0078103Y0081893D01*
X0085334Y0081893D01*
X0086271Y0082830D01*
X0086271Y0090061D01*
X0085334Y0090998D01*
X0086271Y0089718D02*
X0087166Y0089718D01*
X0087166Y0088120D02*
X0086271Y0088120D01*
X0086271Y0086521D02*
X0087166Y0086521D01*
X0087166Y0084923D02*
X0086271Y0084923D01*
X0086271Y0083324D02*
X0087166Y0083324D01*
X0085334Y0080998D02*
X0078103Y0080998D01*
X0077166Y0080061D01*
X0077166Y0072830D01*
X0078103Y0071893D01*
X0085334Y0071893D01*
X0086271Y0072830D01*
X0086271Y0080061D01*
X0085334Y0080998D01*
X0086205Y0080127D02*
X0087232Y0080127D01*
X0087166Y0078529D02*
X0086271Y0078529D01*
X0086271Y0076930D02*
X0087166Y0076930D01*
X0087166Y0075332D02*
X0086271Y0075332D01*
X0086271Y0073733D02*
X0087166Y0073733D01*
X0087861Y0072134D02*
X0085576Y0072134D01*
X0077861Y0072134D02*
X0062291Y0072134D01*
X0062273Y0070536D02*
X0095145Y0070536D01*
X0095145Y0068937D02*
X0060675Y0068937D01*
X0061574Y0067339D02*
X0096057Y0067339D01*
X0098530Y0070698D02*
X0098530Y0089635D01*
X0091719Y0096446D01*
X0087166Y0096112D02*
X0086471Y0096112D01*
X0086471Y0094514D02*
X0087166Y0094514D01*
X0087166Y0092915D02*
X0086380Y0092915D01*
X0086471Y0097711D02*
X0087166Y0097711D01*
X0087166Y0099309D02*
X0086471Y0099309D01*
X0085657Y0100908D02*
X0088012Y0100908D01*
X0081804Y0100908D02*
X0081633Y0100908D01*
X0081633Y0099309D02*
X0081804Y0099309D01*
X0081804Y0097711D02*
X0081633Y0097711D01*
X0077166Y0089718D02*
X0062091Y0089718D01*
X0061858Y0088120D02*
X0077166Y0088120D01*
X0077166Y0086521D02*
X0060259Y0086521D01*
X0057191Y0090383D02*
X0051285Y0096288D01*
X0051285Y0115973D01*
X0055026Y0119713D01*
X0055599Y0116893D02*
X0056178Y0116893D01*
X0056178Y0115294D02*
X0054001Y0115294D01*
X0053685Y0113696D02*
X0056378Y0113696D01*
X0056378Y0112097D02*
X0053685Y0112097D01*
X0053685Y0110499D02*
X0056378Y0110499D01*
X0053685Y0105703D02*
X0063740Y0105703D01*
X0062871Y0104105D02*
X0053685Y0104105D01*
X0053685Y0102506D02*
X0054228Y0102506D01*
X0057191Y0090383D02*
X0051285Y0084477D01*
X0051285Y0070698D01*
X0057191Y0064792D01*
X0057191Y0072666D02*
X0057191Y0077766D01*
X0057191Y0072666D01*
X0057191Y0072666D01*
X0057191Y0073733D02*
X0057191Y0073733D01*
X0057191Y0075332D02*
X0057191Y0075332D01*
X0057191Y0076930D02*
X0057191Y0076930D01*
X0054242Y0076930D02*
X0053685Y0076930D01*
X0053685Y0078529D02*
X0077166Y0078529D01*
X0077166Y0076930D02*
X0060140Y0076930D01*
X0061738Y0075332D02*
X0077166Y0075332D01*
X0077166Y0073733D02*
X0062291Y0073733D01*
X0053685Y0080127D02*
X0077232Y0080127D01*
X0077166Y0083324D02*
X0053685Y0083324D01*
X0053685Y0081726D02*
X0096130Y0081726D01*
X0077166Y0084923D02*
X0055125Y0084923D01*
X0066555Y0046523D02*
X0065618Y0045586D01*
X0065618Y0040692D01*
X0066555Y0039754D01*
X0069010Y0039754D01*
X0075887Y0032877D01*
X0110893Y0032877D01*
X0110893Y0032818D01*
X0111831Y0031880D01*
X0116725Y0031880D01*
X0117662Y0032818D01*
X0117662Y0037712D01*
X0116725Y0038649D01*
X0111831Y0038649D01*
X0110893Y0037712D01*
X0110893Y0037652D01*
X0077865Y0037652D01*
X0072386Y0043131D01*
X0072386Y0045586D01*
X0071449Y0046523D01*
X0066555Y0046523D01*
X0065618Y0044960D02*
X0059555Y0044960D01*
X0060807Y0043361D02*
X0065618Y0043361D01*
X0065618Y0041763D02*
X0062059Y0041763D01*
X0063312Y0040164D02*
X0066145Y0040164D01*
X0064587Y0038566D02*
X0070199Y0038566D01*
X0071797Y0036967D02*
X0066185Y0036967D01*
X0067784Y0035369D02*
X0073396Y0035369D01*
X0074994Y0033770D02*
X0069382Y0033770D01*
X0070981Y0032172D02*
X0111539Y0032172D01*
X0117016Y0032172D02*
X0134186Y0032172D01*
X0133819Y0033060D02*
X0134736Y0030844D01*
X0136432Y0029148D01*
X0138648Y0028230D01*
X0141047Y0028230D01*
X0142290Y0028745D01*
X0139979Y0026434D01*
X0139979Y0024643D01*
X0144563Y0024643D01*
X0144563Y0024275D01*
X0139979Y0024275D01*
X0139979Y0022484D01*
X0142773Y0019691D01*
X0144563Y0019691D01*
X0144563Y0024275D01*
X0144932Y0024275D01*
X0144932Y0024643D01*
X0149516Y0024643D01*
X0149516Y0026434D01*
X0146723Y0029228D01*
X0144932Y0029228D01*
X0144932Y0024643D01*
X0144563Y0024643D01*
X0144563Y0029228D01*
X0143343Y0029228D01*
X0144959Y0030844D01*
X0145877Y0033060D01*
X0145877Y0035458D01*
X0144959Y0037674D01*
X0143263Y0039370D01*
X0141047Y0040288D01*
X0138648Y0040288D01*
X0136432Y0039370D01*
X0134736Y0037674D01*
X0133819Y0035458D01*
X0133819Y0033060D01*
X0133819Y0033770D02*
X0117662Y0033770D01*
X0117662Y0035369D02*
X0133819Y0035369D01*
X0134444Y0036967D02*
X0117662Y0036967D01*
X0116808Y0038566D02*
X0135628Y0038566D01*
X0138349Y0040164D02*
X0075353Y0040164D01*
X0076951Y0038566D02*
X0111748Y0038566D01*
X0135007Y0030573D02*
X0072627Y0030573D01*
X0074667Y0028975D02*
X0136850Y0028975D01*
X0140921Y0027376D02*
X0076708Y0027376D01*
X0078748Y0025778D02*
X0139979Y0025778D01*
X0139979Y0024179D02*
X0080788Y0024179D01*
X0083301Y0022581D02*
X0139979Y0022581D01*
X0141481Y0020982D02*
X0085945Y0020982D01*
X0088590Y0019384D02*
X0179336Y0019384D01*
X0181980Y0020982D02*
X0165532Y0020982D01*
X0167116Y0022581D02*
X0184624Y0022581D01*
X0187137Y0024179D02*
X0167116Y0024179D01*
X0167116Y0025778D02*
X0189177Y0025778D01*
X0191218Y0027376D02*
X0166091Y0027376D01*
X0162548Y0024459D02*
X0155616Y0031391D01*
X0155616Y0064792D01*
X0157821Y0065740D02*
X0202502Y0065740D01*
X0203226Y0067339D02*
X0156463Y0067339D01*
X0154865Y0068937D02*
X0201897Y0068937D01*
X0201897Y0070536D02*
X0153266Y0070536D01*
X0151668Y0072134D02*
X0201897Y0072134D01*
X0202429Y0073733D02*
X0150142Y0073733D01*
X0150142Y0075332D02*
X0202429Y0075332D01*
X0202429Y0076930D02*
X0150142Y0076930D01*
X0150142Y0078529D02*
X0202429Y0078529D01*
X0202429Y0080127D02*
X0150142Y0080127D01*
X0150142Y0081726D02*
X0202429Y0081726D01*
X0202429Y0083324D02*
X0150142Y0083324D01*
X0150142Y0084923D02*
X0202429Y0084923D01*
X0202429Y0086521D02*
X0150142Y0086521D01*
X0150142Y0088120D02*
X0202429Y0088120D01*
X0207229Y0088120D02*
X0225943Y0088120D01*
X0226111Y0089036D02*
X0226111Y0089036D01*
X0226152Y0089718D02*
X0208027Y0089718D01*
X0208213Y0091317D02*
X0226249Y0091317D01*
X0226346Y0092915D02*
X0208787Y0092915D01*
X0210385Y0094514D02*
X0221369Y0094514D01*
X0220476Y0096112D02*
X0211984Y0096112D01*
X0213582Y0097711D02*
X0220339Y0097711D01*
X0220839Y0099309D02*
X0215181Y0099309D01*
X0215656Y0103178D02*
X0224514Y0103178D01*
X0224514Y0113217D01*
X0216640Y0121091D01*
X0220208Y0121688D02*
X0224228Y0121688D01*
X0224521Y0120090D02*
X0221035Y0120090D01*
X0222634Y0118491D02*
X0224814Y0118491D01*
X0225107Y0116893D02*
X0224232Y0116893D01*
X0223827Y0123287D02*
X0220208Y0123287D01*
X0220208Y0124885D02*
X0223328Y0124885D01*
X0222830Y0126484D02*
X0220208Y0126484D01*
X0220208Y0128082D02*
X0222332Y0128082D01*
X0221834Y0129681D02*
X0219368Y0129681D01*
X0221336Y0131279D02*
X0208301Y0131279D01*
X0209004Y0129681D02*
X0213912Y0129681D01*
X0216640Y0126603D02*
X0207073Y0126603D01*
X0204829Y0128847D01*
X0206702Y0132878D02*
X0220838Y0132878D01*
X0201766Y0121688D02*
X0165890Y0121688D01*
X0165890Y0120090D02*
X0200654Y0120090D01*
X0200654Y0118491D02*
X0165890Y0118491D01*
X0165890Y0116893D02*
X0200879Y0116893D01*
X0215656Y0103178D02*
X0204829Y0092351D01*
X0204829Y0072666D01*
X0206797Y0070698D01*
X0210692Y0073733D02*
X0222758Y0073733D01*
X0223256Y0075332D02*
X0209093Y0075332D01*
X0207229Y0076930D02*
X0223754Y0076930D01*
X0224185Y0078529D02*
X0207229Y0078529D01*
X0207229Y0080127D02*
X0224478Y0080127D01*
X0224771Y0081726D02*
X0207229Y0081726D01*
X0207229Y0083324D02*
X0225064Y0083324D01*
X0225357Y0084923D02*
X0207229Y0084923D01*
X0207229Y0086521D02*
X0225650Y0086521D01*
X0222259Y0072134D02*
X0211697Y0072134D01*
X0211697Y0070536D02*
X0221761Y0070536D01*
X0221263Y0068937D02*
X0211697Y0068937D01*
X0210368Y0067339D02*
X0220765Y0067339D01*
X0220050Y0065740D02*
X0211093Y0065740D01*
X0211897Y0064142D02*
X0219330Y0064142D01*
X0218611Y0062543D02*
X0211897Y0062543D01*
X0211897Y0062824D02*
X0206797Y0062824D01*
X0211897Y0062824D01*
X0211897Y0060945D02*
X0217892Y0060945D01*
X0217172Y0059346D02*
X0210533Y0059346D01*
X0208934Y0057748D02*
X0216453Y0057748D01*
X0215588Y0056149D02*
X0158016Y0056149D01*
X0158016Y0054551D02*
X0214622Y0054551D01*
X0213656Y0052952D02*
X0158016Y0052952D01*
X0158016Y0051354D02*
X0212689Y0051354D01*
X0211723Y0049755D02*
X0158016Y0049755D01*
X0158016Y0048157D02*
X0210757Y0048157D01*
X0209623Y0046558D02*
X0158016Y0046558D01*
X0158016Y0044960D02*
X0208371Y0044960D01*
X0207118Y0043361D02*
X0158016Y0043361D01*
X0158016Y0041763D02*
X0205866Y0041763D01*
X0204613Y0040164D02*
X0168946Y0040164D01*
X0171667Y0038566D02*
X0203338Y0038566D01*
X0201740Y0036967D02*
X0172852Y0036967D01*
X0173477Y0035369D02*
X0200141Y0035369D01*
X0198543Y0033770D02*
X0173477Y0033770D01*
X0173109Y0032172D02*
X0196944Y0032172D01*
X0195298Y0030573D02*
X0172288Y0030573D01*
X0170445Y0028975D02*
X0193258Y0028975D01*
X0176551Y0017785D02*
X0091374Y0017785D01*
X0094926Y0016187D02*
X0172999Y0016187D01*
X0169447Y0014588D02*
X0098478Y0014588D01*
X0102467Y0012990D02*
X0165459Y0012990D01*
X0160329Y0011391D02*
X0107596Y0011391D01*
X0113411Y0009793D02*
X0154514Y0009793D01*
X0145791Y0008194D02*
X0122134Y0008194D01*
X0144932Y0019691D02*
X0146723Y0019691D01*
X0149516Y0022484D01*
X0149516Y0024275D01*
X0144932Y0024275D01*
X0144932Y0019691D01*
X0144932Y0020982D02*
X0144563Y0020982D01*
X0144563Y0022581D02*
X0144932Y0022581D01*
X0144932Y0024179D02*
X0144563Y0024179D01*
X0144563Y0025778D02*
X0144932Y0025778D01*
X0144932Y0027376D02*
X0144563Y0027376D01*
X0144563Y0028975D02*
X0144932Y0028975D01*
X0144688Y0030573D02*
X0153357Y0030573D01*
X0154257Y0029356D02*
X0154257Y0029356D01*
X0154638Y0028975D02*
X0146976Y0028975D01*
X0148574Y0027376D02*
X0156236Y0027376D01*
X0157835Y0025778D02*
X0149516Y0025778D01*
X0149516Y0024179D02*
X0157979Y0024179D01*
X0157979Y0022581D02*
X0149516Y0022581D01*
X0148014Y0020982D02*
X0159564Y0020982D01*
X0159828Y0030573D02*
X0162607Y0030573D01*
X0161786Y0032172D02*
X0158229Y0032172D01*
X0158016Y0033770D02*
X0161419Y0033770D01*
X0161419Y0035369D02*
X0158016Y0035369D01*
X0158016Y0036967D02*
X0162044Y0036967D01*
X0163228Y0038566D02*
X0158016Y0038566D01*
X0158016Y0040164D02*
X0165949Y0040164D01*
X0153216Y0040164D02*
X0141346Y0040164D01*
X0144067Y0038566D02*
X0153216Y0038566D01*
X0153216Y0036967D02*
X0145252Y0036967D01*
X0145877Y0035369D02*
X0153216Y0035369D01*
X0153216Y0033770D02*
X0145877Y0033770D01*
X0145509Y0032172D02*
X0153216Y0032172D01*
X0153216Y0041763D02*
X0073754Y0041763D01*
X0072386Y0043361D02*
X0153216Y0043361D01*
X0153216Y0044960D02*
X0072386Y0044960D01*
X0158016Y0057748D02*
X0204661Y0057748D01*
X0206797Y0057748D02*
X0206797Y0057748D01*
X0206797Y0059346D02*
X0206797Y0059346D01*
X0206797Y0060945D02*
X0206797Y0060945D01*
X0206797Y0062543D02*
X0206797Y0062543D01*
X0206797Y0062824D02*
X0206797Y0062824D01*
X0203062Y0059346D02*
X0158016Y0059346D01*
X0158016Y0060945D02*
X0201697Y0060945D01*
X0201697Y0062543D02*
X0158016Y0062543D01*
X0158016Y0064142D02*
X0201697Y0064142D01*
X0151248Y0139272D02*
X0049929Y0139272D01*
X0050648Y0140870D02*
X0151248Y0140870D01*
X0151248Y0142469D02*
X0051368Y0142469D01*
X0052196Y0144068D02*
X0151248Y0144068D01*
X0151248Y0145666D02*
X0053162Y0145666D01*
X0054128Y0147265D02*
X0151248Y0147265D01*
X0151248Y0148863D02*
X0055095Y0148863D01*
X0056061Y0150462D02*
X0151248Y0150462D01*
X0151248Y0152060D02*
X0057027Y0152060D01*
X0058120Y0153659D02*
X0151248Y0153659D01*
X0152136Y0155257D02*
X0059372Y0155257D01*
X0060624Y0156856D02*
X0153734Y0156856D01*
X0155333Y0158454D02*
X0061877Y0158454D01*
X0063129Y0160053D02*
X0156931Y0160053D01*
X0158530Y0161651D02*
X0064381Y0161651D01*
X0065952Y0163250D02*
X0160128Y0163250D01*
X0161284Y0164848D02*
X0067550Y0164848D01*
X0069149Y0166447D02*
X0161462Y0166447D01*
X0162414Y0168045D02*
X0070747Y0168045D01*
X0072346Y0169644D02*
X0195579Y0169644D01*
X0193556Y0171242D02*
X0074369Y0171242D01*
X0076409Y0172841D02*
X0191516Y0172841D01*
X0189475Y0174439D02*
X0078450Y0174439D01*
X0080490Y0176038D02*
X0187435Y0176038D01*
X0185010Y0177636D02*
X0082915Y0177636D01*
X0085559Y0179235D02*
X0182366Y0179235D01*
X0179722Y0180833D02*
X0088203Y0180833D01*
X0090856Y0182432D02*
X0177070Y0182432D01*
X0173518Y0184030D02*
X0094407Y0184030D01*
X0097959Y0185629D02*
X0169966Y0185629D01*
X0166208Y0187227D02*
X0101717Y0187227D01*
X0106847Y0188826D02*
X0161078Y0188826D01*
X0155788Y0190424D02*
X0112137Y0190424D01*
X0111748Y0190353D02*
X0111748Y0190353D01*
X0120860Y0192023D02*
X0147065Y0192023D01*
X0176377Y0168045D02*
X0176845Y0168045D01*
D21*
X0159553Y0135658D03*
X0147742Y0102194D03*
X0163490Y0092351D03*
X0204829Y0092351D03*
X0114278Y0035265D03*
X0112309Y0058887D03*
X0104435Y0058887D03*
X0098530Y0070698D03*
X0069002Y0043139D03*
X0076876Y0119910D03*
X0063097Y0125816D03*
X0094593Y0119910D03*
X0100498Y0125816D03*
X0110341Y0135658D03*
D22*
X0159553Y0135658D01*
X0076876Y0119910D02*
X0073136Y0119713D01*
X0070183Y0119713D01*
X0071758Y0112627D02*
X0070183Y0112233D01*
X0071758Y0112627D02*
X0071758Y0102194D01*
X0059947Y0119713D02*
X0059947Y0122666D01*
X0063097Y0125816D01*
X0069002Y0043139D02*
X0076876Y0035265D01*
X0114278Y0035265D01*
M02*
