G75*
%MOIN*%
%OFA0B0*%
%FSLAX25Y25*%
%IPPOS*%
%LPD*%
%AMOC8*
5,1,8,0,0,1.08239X$1,22.5*
%
%ADD10C,0.00800*%
%ADD11C,0.00500*%
%ADD12C,0.00600*%
%ADD13C,0.01575*%
%ADD14C,0.01181*%
%ADD15C,0.00400*%
%ADD16C,0.00200*%
%ADD17C,0.00700*%
D10*
X0067784Y0141170D02*
X0065816Y0147076D01*
X0075658Y0147076D01*
X0073690Y0141170D01*
X0067784Y0141170D01*
X0065816Y0147076D02*
X0031564Y0147076D01*
X0031564Y0148257D01*
X0031564Y0148256D02*
X0031562Y0148325D01*
X0031556Y0148393D01*
X0031546Y0148461D01*
X0031532Y0148529D01*
X0031514Y0148595D01*
X0031493Y0148660D01*
X0031467Y0148724D01*
X0031438Y0148786D01*
X0031406Y0148847D01*
X0031370Y0148905D01*
X0031330Y0148961D01*
X0031288Y0149015D01*
X0031242Y0149067D01*
X0031193Y0149115D01*
X0031142Y0149161D01*
X0031088Y0149203D01*
X0031032Y0149243D01*
X0030973Y0149279D01*
X0030913Y0149311D01*
X0030851Y0149340D01*
X0030787Y0149366D01*
X0030722Y0149387D01*
X0030655Y0149405D01*
X0030588Y0149419D01*
X0030520Y0149429D01*
X0030452Y0149435D01*
X0030383Y0149437D01*
X0030383Y0149438D02*
X0030383Y0195894D01*
X0030383Y0195895D02*
X0030449Y0195897D01*
X0030515Y0195902D01*
X0030581Y0195912D01*
X0030646Y0195925D01*
X0030710Y0195941D01*
X0030773Y0195961D01*
X0030835Y0195985D01*
X0030895Y0196012D01*
X0030954Y0196042D01*
X0031011Y0196076D01*
X0031066Y0196113D01*
X0031119Y0196153D01*
X0031170Y0196195D01*
X0031218Y0196241D01*
X0031264Y0196289D01*
X0031306Y0196340D01*
X0031346Y0196393D01*
X0031383Y0196448D01*
X0031417Y0196505D01*
X0031447Y0196564D01*
X0031474Y0196624D01*
X0031498Y0196686D01*
X0031518Y0196749D01*
X0031534Y0196813D01*
X0031547Y0196878D01*
X0031557Y0196944D01*
X0031562Y0197010D01*
X0031564Y0197076D01*
X0031564Y0198256D01*
X0031564Y0198257D01*
X0065816Y0198257D01*
X0067784Y0204162D01*
X0073690Y0204162D01*
X0075658Y0198257D01*
X0065816Y0198257D01*
X0061879Y0192351D02*
X0038257Y0188414D01*
X0038257Y0184477D01*
X0061879Y0180540D01*
X0061879Y0164792D02*
X0038257Y0160855D01*
X0038257Y0156918D01*
X0061879Y0152981D01*
X0075658Y0147076D02*
X0085107Y0147076D01*
X0085107Y0198257D01*
X0075658Y0198257D01*
X0031564Y0198256D02*
X0031498Y0198258D01*
X0031432Y0198263D01*
X0031366Y0198273D01*
X0031301Y0198286D01*
X0031237Y0198302D01*
X0031174Y0198322D01*
X0031112Y0198346D01*
X0031052Y0198373D01*
X0030993Y0198403D01*
X0030936Y0198437D01*
X0030881Y0198474D01*
X0030828Y0198514D01*
X0030777Y0198556D01*
X0030729Y0198602D01*
X0030683Y0198650D01*
X0030641Y0198701D01*
X0030601Y0198754D01*
X0030564Y0198809D01*
X0030530Y0198866D01*
X0030500Y0198925D01*
X0030473Y0198985D01*
X0030449Y0199047D01*
X0030429Y0199110D01*
X0030413Y0199174D01*
X0030400Y0199239D01*
X0030390Y0199305D01*
X0030385Y0199371D01*
X0030383Y0199437D01*
X0030383Y0199438D02*
X0030383Y0200225D01*
X0030383Y0145894D02*
X0030383Y0145107D01*
X0030383Y0145894D02*
X0030385Y0145960D01*
X0030390Y0146026D01*
X0030400Y0146092D01*
X0030413Y0146157D01*
X0030429Y0146221D01*
X0030449Y0146284D01*
X0030473Y0146346D01*
X0030500Y0146406D01*
X0030530Y0146465D01*
X0030564Y0146522D01*
X0030601Y0146577D01*
X0030641Y0146630D01*
X0030683Y0146681D01*
X0030729Y0146729D01*
X0030777Y0146775D01*
X0030828Y0146817D01*
X0030881Y0146857D01*
X0030936Y0146894D01*
X0030993Y0146928D01*
X0031052Y0146958D01*
X0031112Y0146985D01*
X0031174Y0147009D01*
X0031237Y0147029D01*
X0031301Y0147045D01*
X0031366Y0147058D01*
X0031432Y0147068D01*
X0031498Y0147073D01*
X0031564Y0147075D01*
X0277759Y0141084D02*
X0277759Y0136559D01*
X0286809Y0136559D01*
X0283793Y0136559D02*
X0283793Y0141084D01*
X0282284Y0142593D01*
X0279268Y0142593D01*
X0277759Y0141084D01*
X0279268Y0133530D02*
X0277759Y0132022D01*
X0277759Y0129005D01*
X0279268Y0127496D01*
X0285301Y0127496D01*
X0286809Y0129005D01*
X0286809Y0132022D01*
X0285301Y0133530D01*
X0279268Y0133530D01*
X0277759Y0124467D02*
X0277759Y0118434D01*
X0277759Y0121450D02*
X0286809Y0121450D01*
X0286809Y0115404D02*
X0286809Y0109371D01*
X0277759Y0109371D01*
X0286809Y0106341D02*
X0286809Y0100308D01*
X0277759Y0100308D01*
X0277759Y0097283D02*
X0277759Y0094266D01*
X0277759Y0095774D02*
X0286809Y0095774D01*
X0286809Y0094266D02*
X0286809Y0097283D01*
X0286809Y0091237D02*
X0277759Y0091237D01*
X0282284Y0091237D02*
X0282284Y0085203D01*
X0286809Y0085203D02*
X0277759Y0085203D01*
D11*
X0303070Y0044373D02*
X0307574Y0044373D01*
X0307574Y0042872D02*
X0307574Y0045875D01*
X0304571Y0042872D02*
X0303070Y0044373D01*
X0303070Y0041271D02*
X0307574Y0041271D01*
X0303070Y0038268D01*
X0307574Y0038268D01*
X0306823Y0036667D02*
X0307574Y0035916D01*
X0307574Y0034415D01*
X0306823Y0033664D01*
X0303820Y0033664D01*
X0303070Y0034415D01*
X0303070Y0035916D01*
X0303820Y0036667D01*
X0295283Y0031740D02*
X0294533Y0032491D01*
X0293031Y0032491D01*
X0292281Y0031740D01*
X0290679Y0032491D02*
X0290679Y0027987D01*
X0287677Y0032491D01*
X0287677Y0027987D01*
X0286075Y0028738D02*
X0285325Y0027987D01*
X0283823Y0027987D01*
X0283073Y0028738D01*
X0283073Y0031740D01*
X0283823Y0032491D01*
X0285325Y0032491D01*
X0286075Y0031740D01*
X0292281Y0027987D02*
X0295283Y0030990D01*
X0295283Y0031740D01*
X0295283Y0027987D02*
X0292281Y0027987D01*
X0271446Y0003658D02*
X0271446Y0220194D01*
X0094280Y0220194D01*
X0094280Y0003658D01*
X0271446Y0003658D01*
X0227863Y0001926D02*
X0227863Y0026926D01*
X0207863Y0026926D01*
X0207863Y0001926D01*
X0227863Y0001926D01*
X0157863Y0001926D02*
X0137863Y0001926D01*
X0137863Y0026926D01*
X0157863Y0026926D01*
X0157863Y0001926D01*
X0090146Y0008532D02*
X0090146Y0013257D01*
X0089359Y0013257D01*
X0089359Y0008532D01*
X0090146Y0008532D01*
X0089753Y0008729D02*
X0089753Y0013060D01*
X0089359Y0013257D02*
X0079517Y0013257D01*
X0079517Y0008532D01*
X0089359Y0008532D01*
X0072272Y0008690D02*
X0072272Y0013414D01*
X0071485Y0013414D01*
X0071485Y0008690D01*
X0072272Y0008690D01*
X0071879Y0008887D02*
X0071879Y0013217D01*
X0071485Y0013414D02*
X0061643Y0013414D01*
X0061643Y0008690D01*
X0071485Y0008690D01*
X0071471Y0025263D02*
X0071471Y0029766D01*
X0069970Y0028265D01*
X0068368Y0029016D02*
X0067618Y0029766D01*
X0066116Y0029766D01*
X0065366Y0029016D01*
X0065366Y0026013D01*
X0066116Y0025263D01*
X0067618Y0025263D01*
X0068368Y0026013D01*
X0069970Y0025263D02*
X0072972Y0025263D01*
X0063798Y0025263D02*
X0062296Y0025263D01*
X0063047Y0025263D02*
X0063047Y0029766D01*
X0062296Y0029766D02*
X0063798Y0029766D01*
X0027291Y0026680D02*
X0027291Y0025929D01*
X0024289Y0022927D01*
X0024289Y0022176D01*
X0022687Y0022176D02*
X0022687Y0026680D01*
X0024289Y0026680D02*
X0027291Y0026680D01*
X0022687Y0022176D02*
X0019685Y0026680D01*
X0019685Y0022176D01*
X0018083Y0022927D02*
X0017333Y0022176D01*
X0015831Y0022176D01*
X0015081Y0022927D01*
X0015081Y0025929D01*
X0015831Y0026680D01*
X0017333Y0026680D01*
X0018083Y0025929D01*
X0016761Y0042745D02*
X0016761Y0047469D01*
X0026209Y0047469D01*
X0026209Y0042745D01*
X0016761Y0042745D01*
X0016761Y0054556D02*
X0016761Y0059280D01*
X0026209Y0059280D01*
X0026209Y0054556D01*
X0016761Y0054556D01*
X0023178Y0080540D02*
X0009398Y0080540D01*
X0009398Y0110068D01*
X0023178Y0110068D01*
X0023178Y0080540D01*
X0031052Y0080540D02*
X0044831Y0080540D01*
X0044831Y0110068D01*
X0031052Y0110068D01*
X0031052Y0080540D01*
X0052706Y0080540D02*
X0066485Y0080540D01*
X0066485Y0110068D01*
X0052706Y0110068D01*
X0052706Y0080540D01*
X0074359Y0080540D02*
X0088139Y0080540D01*
X0088139Y0110068D01*
X0074359Y0110068D01*
X0074359Y0080540D01*
X0166367Y0117548D02*
X0166367Y0122272D01*
X0175816Y0122272D01*
X0175816Y0117548D01*
X0166367Y0117548D01*
X0167244Y0193081D02*
X0167244Y0198492D01*
X0169949Y0198492D01*
X0170851Y0197590D01*
X0170851Y0195787D01*
X0169949Y0194885D01*
X0167244Y0194885D01*
X0172682Y0193983D02*
X0173583Y0193081D01*
X0175387Y0193081D01*
X0176288Y0193983D01*
X0176288Y0194885D01*
X0175387Y0195787D01*
X0173583Y0195787D01*
X0172682Y0196688D01*
X0172682Y0197590D01*
X0173583Y0198492D01*
X0175387Y0198492D01*
X0176288Y0197590D01*
X0178119Y0195787D02*
X0178119Y0193983D01*
X0179021Y0193081D01*
X0180824Y0193081D01*
X0181726Y0193983D01*
X0181726Y0195787D01*
X0180824Y0196688D01*
X0179021Y0196688D01*
X0178119Y0195787D01*
X0183557Y0197590D02*
X0183557Y0193983D01*
X0184459Y0193081D01*
X0186262Y0193081D01*
X0187164Y0193983D01*
X0194433Y0193983D02*
X0195334Y0193081D01*
X0197138Y0193081D01*
X0198039Y0193983D01*
X0198039Y0195787D01*
X0197138Y0196688D01*
X0196236Y0196688D01*
X0194433Y0195787D01*
X0194433Y0198492D01*
X0198039Y0198492D01*
X0199870Y0198492D02*
X0199870Y0193081D01*
X0203477Y0193081D01*
X0205308Y0193081D02*
X0205308Y0198492D01*
X0208013Y0198492D01*
X0208915Y0197590D01*
X0208915Y0195787D01*
X0208013Y0194885D01*
X0205308Y0194885D01*
X0187164Y0197590D02*
X0186262Y0198492D01*
X0184459Y0198492D01*
X0183557Y0197590D01*
X0183903Y0248113D02*
X0185404Y0248113D01*
X0186155Y0248864D01*
X0187756Y0248113D02*
X0187756Y0252617D01*
X0190759Y0248113D01*
X0190759Y0252617D01*
X0192360Y0252617D02*
X0192360Y0250365D01*
X0193861Y0251116D01*
X0194612Y0251116D01*
X0195363Y0250365D01*
X0195363Y0248864D01*
X0194612Y0248113D01*
X0193111Y0248113D01*
X0192360Y0248864D01*
X0192360Y0252617D02*
X0195363Y0252617D01*
X0186155Y0251866D02*
X0185404Y0252617D01*
X0183903Y0252617D01*
X0183152Y0251866D01*
X0183152Y0248864D01*
X0183903Y0248113D01*
X0116623Y0250365D02*
X0113620Y0250365D01*
X0115872Y0252617D01*
X0115872Y0248113D01*
X0112019Y0248113D02*
X0112019Y0252617D01*
X0109016Y0252617D02*
X0112019Y0248113D01*
X0109016Y0248113D02*
X0109016Y0252617D01*
X0107415Y0251866D02*
X0106664Y0252617D01*
X0105163Y0252617D01*
X0104412Y0251866D01*
X0104412Y0248864D01*
X0105163Y0248113D01*
X0106664Y0248113D01*
X0107415Y0248864D01*
X0037882Y0248864D02*
X0037132Y0248113D01*
X0035631Y0248113D01*
X0034880Y0248864D01*
X0033279Y0248113D02*
X0033279Y0252617D01*
X0034880Y0251866D02*
X0035631Y0252617D01*
X0037132Y0252617D01*
X0037882Y0251866D01*
X0037882Y0251116D01*
X0037132Y0250365D01*
X0037882Y0249614D01*
X0037882Y0248864D01*
X0037132Y0250365D02*
X0036381Y0250365D01*
X0033279Y0248113D02*
X0030276Y0252617D01*
X0030276Y0248113D01*
X0028675Y0248864D02*
X0027924Y0248113D01*
X0026423Y0248113D01*
X0025672Y0248864D01*
X0025672Y0251866D01*
X0026423Y0252617D01*
X0027924Y0252617D01*
X0028675Y0251866D01*
X0025507Y0175919D02*
X0025507Y0172916D01*
X0025507Y0174417D02*
X0021003Y0174417D01*
X0022504Y0172916D01*
X0021003Y0171315D02*
X0025507Y0171315D01*
X0022504Y0169813D02*
X0021003Y0171315D01*
X0022504Y0169813D02*
X0021003Y0168312D01*
X0025507Y0168312D01*
X0271322Y0238581D02*
X0271322Y0240083D01*
X0271322Y0239332D02*
X0275826Y0239332D01*
X0275826Y0238581D02*
X0275826Y0240083D01*
X0275075Y0241651D02*
X0272072Y0241651D01*
X0271322Y0242401D01*
X0271322Y0243903D01*
X0272072Y0244653D01*
X0272072Y0246255D02*
X0271322Y0247005D01*
X0271322Y0248507D01*
X0272072Y0249257D01*
X0272823Y0249257D01*
X0275826Y0246255D01*
X0275826Y0249257D01*
X0275075Y0244653D02*
X0275826Y0243903D01*
X0275826Y0242401D01*
X0275075Y0241651D01*
X0320422Y0233178D02*
X0334202Y0233178D01*
X0334202Y0203650D01*
X0320422Y0203650D01*
X0320422Y0233178D01*
X0322981Y0246146D02*
X0322981Y0250871D01*
X0332430Y0250871D01*
X0332430Y0246146D01*
X0322981Y0246146D01*
X0343044Y0245769D02*
X0343044Y0250493D01*
X0352493Y0250493D01*
X0352493Y0245769D01*
X0343044Y0245769D01*
X0360318Y0250983D02*
X0360318Y0254590D01*
X0361219Y0255492D01*
X0363023Y0255492D01*
X0363924Y0254590D01*
X0363924Y0252787D02*
X0362121Y0252787D01*
X0363924Y0252787D02*
X0363924Y0250983D01*
X0363023Y0250081D01*
X0361219Y0250081D01*
X0360318Y0250983D01*
X0365755Y0250081D02*
X0365755Y0255492D01*
X0369362Y0250081D01*
X0369362Y0255492D01*
X0371193Y0255492D02*
X0373898Y0255492D01*
X0374800Y0254590D01*
X0374800Y0250983D01*
X0373898Y0250081D01*
X0371193Y0250081D01*
X0371193Y0255492D01*
X0373572Y0233178D02*
X0359792Y0233178D01*
X0359792Y0203650D01*
X0373572Y0203650D01*
X0373572Y0233178D01*
X0379477Y0233178D02*
X0393257Y0233178D01*
X0393257Y0203650D01*
X0379477Y0203650D01*
X0379477Y0233178D01*
X0353887Y0233178D02*
X0353887Y0203650D01*
X0340107Y0203650D01*
X0340107Y0233178D01*
X0353887Y0233178D01*
X0354300Y0191800D02*
X0354300Y0186800D01*
X0353300Y0186800D01*
X0353300Y0181800D01*
X0354300Y0181800D01*
X0354300Y0114300D01*
X0353300Y0114300D01*
X0353300Y0109300D01*
X0354300Y0109300D01*
X0354300Y0041800D01*
X0353300Y0041800D01*
X0353300Y0036800D01*
X0354300Y0036800D01*
X0354300Y0031800D01*
X0389300Y0031800D01*
X0389300Y0048800D01*
X0388800Y0048800D01*
X0388800Y0054800D01*
X0389300Y0054800D01*
X0389300Y0060300D01*
X0387300Y0061800D01*
X0387300Y0063800D01*
X0387300Y0069800D01*
X0387300Y0071800D01*
X0389300Y0073300D01*
X0389300Y0103800D01*
X0385300Y0103800D01*
X0384300Y0103800D01*
X0384300Y0069800D01*
X0384300Y0063800D01*
X0384300Y0036800D01*
X0359300Y0036800D01*
X0359300Y0186800D01*
X0384300Y0186800D01*
X0384300Y0169800D01*
X0384300Y0163800D01*
X0384300Y0119800D01*
X0385300Y0119800D01*
X0389300Y0119800D01*
X0389300Y0103800D01*
X0384300Y0103800D02*
X0381300Y0103800D01*
X0381300Y0119800D01*
X0384300Y0119800D01*
X0389300Y0119800D02*
X0389300Y0160300D01*
X0387300Y0161800D01*
X0387300Y0163800D01*
X0387300Y0169800D01*
X0385300Y0169800D01*
X0384300Y0169800D01*
X0387300Y0169800D02*
X0387300Y0171800D01*
X0389300Y0173300D01*
X0389300Y0191800D01*
X0354300Y0191800D01*
X0384300Y0163800D02*
X0385300Y0163800D01*
X0387300Y0163800D01*
X0386799Y0115656D02*
X0386049Y0115656D01*
X0385298Y0114906D01*
X0385298Y0112654D01*
X0386799Y0112654D01*
X0387550Y0113405D01*
X0387550Y0114906D01*
X0386799Y0115656D01*
X0383797Y0114155D02*
X0385298Y0112654D01*
X0384547Y0111053D02*
X0383797Y0111053D01*
X0383046Y0110302D01*
X0383046Y0108801D01*
X0383797Y0108050D01*
X0384547Y0111053D02*
X0387550Y0108050D01*
X0387550Y0111053D01*
X0383797Y0114155D02*
X0383046Y0115656D01*
X0384300Y0069800D02*
X0385300Y0069800D01*
X0387300Y0069800D01*
X0387300Y0063800D02*
X0385300Y0063800D01*
X0384300Y0063800D01*
X0379050Y0045053D02*
X0379050Y0042050D01*
X0379050Y0043551D02*
X0374546Y0043551D01*
X0376047Y0042050D01*
X0369050Y0042050D02*
X0366047Y0045053D01*
X0365297Y0045053D01*
X0364546Y0044302D01*
X0364546Y0042801D01*
X0365297Y0042050D01*
X0369050Y0042050D02*
X0369050Y0045053D01*
X0362036Y0021761D02*
X0332509Y0021761D01*
X0332509Y0007981D01*
X0362036Y0007981D01*
X0362036Y0021761D01*
D12*
X0031217Y0011143D02*
X0031217Y0009076D01*
X0040863Y0009076D01*
X0040863Y0011143D01*
X0031217Y0011143D01*
X0031217Y0014784D01*
X0033284Y0014784D01*
X0033284Y0024725D01*
X0052379Y0024725D01*
X0052379Y0014784D01*
X0054446Y0014784D01*
X0054446Y0026792D01*
X0031217Y0026792D01*
X0031217Y0014784D01*
X0040863Y0009076D02*
X0044800Y0009076D01*
X0044800Y0011143D01*
X0054446Y0011143D01*
X0054446Y0014784D01*
X0054446Y0011143D02*
X0054446Y0009076D01*
X0044800Y0009076D01*
X0051324Y0031013D02*
X0058824Y0031013D01*
X0058826Y0031139D01*
X0058832Y0031264D01*
X0058842Y0031389D01*
X0058856Y0031514D01*
X0058873Y0031639D01*
X0058895Y0031763D01*
X0058920Y0031886D01*
X0058950Y0032008D01*
X0058983Y0032129D01*
X0059020Y0032249D01*
X0059060Y0032368D01*
X0059105Y0032485D01*
X0059153Y0032602D01*
X0059205Y0032716D01*
X0059260Y0032829D01*
X0059319Y0032940D01*
X0059381Y0033049D01*
X0059447Y0033156D01*
X0059516Y0033261D01*
X0059588Y0033364D01*
X0059663Y0033465D01*
X0059742Y0033563D01*
X0059824Y0033658D01*
X0059908Y0033751D01*
X0059996Y0033841D01*
X0060086Y0033929D01*
X0060179Y0034013D01*
X0060274Y0034095D01*
X0060372Y0034174D01*
X0060473Y0034249D01*
X0060576Y0034321D01*
X0060681Y0034390D01*
X0060788Y0034456D01*
X0060897Y0034518D01*
X0061008Y0034577D01*
X0061121Y0034632D01*
X0061235Y0034684D01*
X0061352Y0034732D01*
X0061469Y0034777D01*
X0061588Y0034817D01*
X0061708Y0034854D01*
X0061829Y0034887D01*
X0061951Y0034917D01*
X0062074Y0034942D01*
X0062198Y0034964D01*
X0062323Y0034981D01*
X0062448Y0034995D01*
X0062573Y0035005D01*
X0062698Y0035011D01*
X0062824Y0035013D01*
X0062950Y0035011D01*
X0063075Y0035005D01*
X0063200Y0034995D01*
X0063325Y0034981D01*
X0063450Y0034964D01*
X0063574Y0034942D01*
X0063697Y0034917D01*
X0063819Y0034887D01*
X0063940Y0034854D01*
X0064060Y0034817D01*
X0064179Y0034777D01*
X0064296Y0034732D01*
X0064413Y0034684D01*
X0064527Y0034632D01*
X0064640Y0034577D01*
X0064751Y0034518D01*
X0064860Y0034456D01*
X0064967Y0034390D01*
X0065072Y0034321D01*
X0065175Y0034249D01*
X0065276Y0034174D01*
X0065374Y0034095D01*
X0065469Y0034013D01*
X0065562Y0033929D01*
X0065652Y0033841D01*
X0065740Y0033751D01*
X0065824Y0033658D01*
X0065906Y0033563D01*
X0065985Y0033465D01*
X0066060Y0033364D01*
X0066132Y0033261D01*
X0066201Y0033156D01*
X0066267Y0033049D01*
X0066329Y0032940D01*
X0066388Y0032829D01*
X0066443Y0032716D01*
X0066495Y0032602D01*
X0066543Y0032485D01*
X0066588Y0032368D01*
X0066628Y0032249D01*
X0066665Y0032129D01*
X0066698Y0032008D01*
X0066728Y0031886D01*
X0066753Y0031763D01*
X0066775Y0031639D01*
X0066792Y0031514D01*
X0066806Y0031389D01*
X0066816Y0031264D01*
X0066822Y0031139D01*
X0066824Y0031013D01*
X0074324Y0031013D01*
X0074324Y0071013D01*
X0051324Y0071013D01*
X0051324Y0031013D01*
X0031432Y0112336D02*
X0027162Y0112336D01*
X0031432Y0116607D01*
X0031432Y0117674D01*
X0030365Y0118742D01*
X0028230Y0118742D01*
X0027162Y0117674D01*
X0024987Y0117674D02*
X0023919Y0118742D01*
X0021784Y0118742D01*
X0020717Y0117674D01*
X0020717Y0113404D01*
X0021784Y0112336D01*
X0023919Y0112336D01*
X0024987Y0113404D01*
X0018541Y0112336D02*
X0014271Y0112336D01*
X0018541Y0116607D01*
X0018541Y0117674D01*
X0017474Y0118742D01*
X0015339Y0118742D01*
X0014271Y0117674D01*
X0012109Y0118742D02*
X0009974Y0118742D01*
X0011042Y0118742D02*
X0011042Y0112336D01*
X0012109Y0112336D02*
X0009974Y0112336D01*
X0005383Y0122666D02*
X0005383Y0212666D01*
X0005383Y0222666D01*
X0085383Y0222666D01*
X0085383Y0176666D01*
X0085257Y0176664D01*
X0085132Y0176658D01*
X0085007Y0176648D01*
X0084882Y0176634D01*
X0084757Y0176617D01*
X0084633Y0176595D01*
X0084510Y0176570D01*
X0084388Y0176540D01*
X0084267Y0176507D01*
X0084147Y0176470D01*
X0084028Y0176430D01*
X0083911Y0176385D01*
X0083794Y0176337D01*
X0083680Y0176285D01*
X0083567Y0176230D01*
X0083456Y0176171D01*
X0083347Y0176109D01*
X0083240Y0176043D01*
X0083135Y0175974D01*
X0083032Y0175902D01*
X0082931Y0175827D01*
X0082833Y0175748D01*
X0082738Y0175666D01*
X0082645Y0175582D01*
X0082555Y0175494D01*
X0082467Y0175404D01*
X0082383Y0175311D01*
X0082301Y0175216D01*
X0082222Y0175118D01*
X0082147Y0175017D01*
X0082075Y0174914D01*
X0082006Y0174809D01*
X0081940Y0174702D01*
X0081878Y0174593D01*
X0081819Y0174482D01*
X0081764Y0174369D01*
X0081712Y0174255D01*
X0081664Y0174138D01*
X0081619Y0174021D01*
X0081579Y0173902D01*
X0081542Y0173782D01*
X0081509Y0173661D01*
X0081479Y0173539D01*
X0081454Y0173416D01*
X0081432Y0173292D01*
X0081415Y0173167D01*
X0081401Y0173042D01*
X0081391Y0172917D01*
X0081385Y0172792D01*
X0081383Y0172666D01*
X0081385Y0172540D01*
X0081391Y0172415D01*
X0081401Y0172290D01*
X0081415Y0172165D01*
X0081432Y0172040D01*
X0081454Y0171916D01*
X0081479Y0171793D01*
X0081509Y0171671D01*
X0081542Y0171550D01*
X0081579Y0171430D01*
X0081619Y0171311D01*
X0081664Y0171194D01*
X0081712Y0171077D01*
X0081764Y0170963D01*
X0081819Y0170850D01*
X0081878Y0170739D01*
X0081940Y0170630D01*
X0082006Y0170523D01*
X0082075Y0170418D01*
X0082147Y0170315D01*
X0082222Y0170214D01*
X0082301Y0170116D01*
X0082383Y0170021D01*
X0082467Y0169928D01*
X0082555Y0169838D01*
X0082645Y0169750D01*
X0082738Y0169666D01*
X0082833Y0169584D01*
X0082931Y0169505D01*
X0083032Y0169430D01*
X0083135Y0169358D01*
X0083240Y0169289D01*
X0083347Y0169223D01*
X0083456Y0169161D01*
X0083567Y0169102D01*
X0083680Y0169047D01*
X0083794Y0168995D01*
X0083911Y0168947D01*
X0084028Y0168902D01*
X0084147Y0168862D01*
X0084267Y0168825D01*
X0084388Y0168792D01*
X0084510Y0168762D01*
X0084633Y0168737D01*
X0084757Y0168715D01*
X0084882Y0168698D01*
X0085007Y0168684D01*
X0085132Y0168674D01*
X0085257Y0168668D01*
X0085383Y0168666D01*
X0085383Y0122666D01*
X0005383Y0122666D01*
X0025619Y0226997D02*
X0096091Y0226997D01*
X0096091Y0239005D01*
X0094024Y0239005D01*
X0094024Y0229064D01*
X0027686Y0229064D01*
X0027686Y0239005D01*
X0025619Y0239005D01*
X0025619Y0226997D01*
X0025619Y0239005D02*
X0025619Y0242646D01*
X0035265Y0242646D01*
X0035265Y0244713D01*
X0086446Y0244713D01*
X0086446Y0242646D01*
X0096091Y0242646D01*
X0096091Y0239005D01*
X0096091Y0242646D02*
X0096091Y0244713D01*
X0086446Y0244713D01*
X0104359Y0244713D02*
X0104359Y0242646D01*
X0114005Y0242646D01*
X0114005Y0244713D01*
X0165186Y0244713D01*
X0165186Y0242646D01*
X0174831Y0242646D01*
X0174831Y0239005D01*
X0172765Y0239005D01*
X0172765Y0229064D01*
X0106426Y0229064D01*
X0106426Y0239005D01*
X0104359Y0239005D01*
X0104359Y0226997D01*
X0174831Y0226997D01*
X0174831Y0239005D01*
X0174831Y0242646D02*
X0174831Y0244713D01*
X0165186Y0244713D01*
X0183099Y0244713D02*
X0183099Y0242646D01*
X0192745Y0242646D01*
X0192745Y0244713D01*
X0243926Y0244713D01*
X0243926Y0242646D01*
X0253572Y0242646D01*
X0253572Y0239005D01*
X0251505Y0239005D01*
X0251505Y0229064D01*
X0185166Y0229064D01*
X0185166Y0239005D01*
X0183099Y0239005D01*
X0183099Y0226997D01*
X0253572Y0226997D01*
X0253572Y0239005D01*
X0253572Y0242646D02*
X0253572Y0244713D01*
X0243926Y0244713D01*
X0285576Y0250146D02*
X0293076Y0250146D01*
X0293078Y0250020D01*
X0293084Y0249895D01*
X0293094Y0249770D01*
X0293108Y0249645D01*
X0293125Y0249520D01*
X0293147Y0249396D01*
X0293172Y0249273D01*
X0293202Y0249151D01*
X0293235Y0249030D01*
X0293272Y0248910D01*
X0293312Y0248791D01*
X0293357Y0248674D01*
X0293405Y0248557D01*
X0293457Y0248443D01*
X0293512Y0248330D01*
X0293571Y0248219D01*
X0293633Y0248110D01*
X0293699Y0248003D01*
X0293768Y0247898D01*
X0293840Y0247795D01*
X0293915Y0247694D01*
X0293994Y0247596D01*
X0294076Y0247501D01*
X0294160Y0247408D01*
X0294248Y0247318D01*
X0294338Y0247230D01*
X0294431Y0247146D01*
X0294526Y0247064D01*
X0294624Y0246985D01*
X0294725Y0246910D01*
X0294828Y0246838D01*
X0294933Y0246769D01*
X0295040Y0246703D01*
X0295149Y0246641D01*
X0295260Y0246582D01*
X0295373Y0246527D01*
X0295487Y0246475D01*
X0295604Y0246427D01*
X0295721Y0246382D01*
X0295840Y0246342D01*
X0295960Y0246305D01*
X0296081Y0246272D01*
X0296203Y0246242D01*
X0296326Y0246217D01*
X0296450Y0246195D01*
X0296575Y0246178D01*
X0296700Y0246164D01*
X0296825Y0246154D01*
X0296950Y0246148D01*
X0297076Y0246146D01*
X0297202Y0246148D01*
X0297327Y0246154D01*
X0297452Y0246164D01*
X0297577Y0246178D01*
X0297702Y0246195D01*
X0297826Y0246217D01*
X0297949Y0246242D01*
X0298071Y0246272D01*
X0298192Y0246305D01*
X0298312Y0246342D01*
X0298431Y0246382D01*
X0298548Y0246427D01*
X0298665Y0246475D01*
X0298779Y0246527D01*
X0298892Y0246582D01*
X0299003Y0246641D01*
X0299112Y0246703D01*
X0299219Y0246769D01*
X0299324Y0246838D01*
X0299427Y0246910D01*
X0299528Y0246985D01*
X0299626Y0247064D01*
X0299721Y0247146D01*
X0299814Y0247230D01*
X0299904Y0247318D01*
X0299992Y0247408D01*
X0300076Y0247501D01*
X0300158Y0247596D01*
X0300237Y0247694D01*
X0300312Y0247795D01*
X0300384Y0247898D01*
X0300453Y0248003D01*
X0300519Y0248110D01*
X0300581Y0248219D01*
X0300640Y0248330D01*
X0300695Y0248443D01*
X0300747Y0248557D01*
X0300795Y0248674D01*
X0300840Y0248791D01*
X0300880Y0248910D01*
X0300917Y0249030D01*
X0300950Y0249151D01*
X0300980Y0249273D01*
X0301005Y0249396D01*
X0301027Y0249520D01*
X0301044Y0249645D01*
X0301058Y0249770D01*
X0301068Y0249895D01*
X0301074Y0250020D01*
X0301076Y0250146D01*
X0308576Y0250146D01*
X0308576Y0210146D01*
X0285576Y0210146D01*
X0285576Y0250146D01*
X0192745Y0244713D02*
X0183099Y0244713D01*
X0183099Y0242646D02*
X0183099Y0239005D01*
X0114005Y0244713D02*
X0104359Y0244713D01*
X0104359Y0242646D02*
X0104359Y0239005D01*
X0035265Y0244713D02*
X0025619Y0244713D01*
X0025619Y0242646D01*
X0295984Y0164142D02*
X0295984Y0161716D01*
X0297197Y0160502D01*
X0302050Y0160502D01*
X0297197Y0165356D01*
X0302050Y0165356D01*
X0303264Y0164142D01*
X0303264Y0161716D01*
X0302050Y0160502D01*
X0302050Y0158091D02*
X0303264Y0158091D01*
X0303264Y0156877D01*
X0302050Y0156877D01*
X0302050Y0158091D01*
X0303264Y0154480D02*
X0303264Y0149627D01*
X0303264Y0152054D02*
X0295984Y0152054D01*
X0298410Y0149627D01*
X0298410Y0139980D02*
X0298410Y0136340D01*
X0299624Y0135126D01*
X0302050Y0135126D01*
X0303264Y0136340D01*
X0303264Y0139980D01*
X0295984Y0139980D01*
X0298410Y0132725D02*
X0298410Y0131511D01*
X0300837Y0129084D01*
X0300837Y0126688D02*
X0300837Y0123048D01*
X0302050Y0121834D01*
X0303264Y0123048D01*
X0303264Y0126688D01*
X0299624Y0126688D01*
X0298410Y0125474D01*
X0298410Y0123048D01*
X0299624Y0119437D02*
X0298410Y0118224D01*
X0298410Y0115797D01*
X0299624Y0114584D01*
X0302050Y0114584D01*
X0303264Y0115797D01*
X0303264Y0118224D01*
X0302050Y0119437D01*
X0299624Y0119437D01*
X0300837Y0112187D02*
X0302050Y0112187D01*
X0303264Y0110974D01*
X0303264Y0107334D01*
X0295984Y0107334D01*
X0295984Y0110974D01*
X0297197Y0112187D01*
X0298410Y0112187D01*
X0299624Y0110974D01*
X0299624Y0107334D01*
X0299624Y0104937D02*
X0303264Y0104937D01*
X0299624Y0104937D02*
X0298410Y0103723D01*
X0298410Y0100083D01*
X0303264Y0100083D01*
X0303264Y0097677D02*
X0303264Y0095250D01*
X0303264Y0096463D02*
X0298410Y0096463D01*
X0298410Y0095250D01*
X0299624Y0092853D02*
X0303264Y0092853D01*
X0303264Y0089213D01*
X0302050Y0088000D01*
X0300837Y0089213D01*
X0300837Y0092853D01*
X0299624Y0092853D02*
X0298410Y0091640D01*
X0298410Y0089213D01*
X0295984Y0085603D02*
X0303264Y0085603D01*
X0303264Y0080749D02*
X0295984Y0080749D01*
X0298410Y0083176D01*
X0295984Y0085603D01*
X0310973Y0087351D02*
X0310973Y0096406D01*
X0314320Y0096406D01*
X0314320Y0117666D01*
X0310973Y0117666D01*
X0310973Y0126721D01*
X0314320Y0126721D01*
X0314320Y0171879D01*
X0310973Y0171879D01*
X0310973Y0180658D01*
X0314320Y0180658D01*
X0336957Y0180658D01*
X0336957Y0033414D01*
X0314320Y0033414D01*
X0314320Y0035481D01*
X0334891Y0035481D01*
X0334891Y0178591D01*
X0314320Y0178591D01*
X0314320Y0180658D01*
X0314320Y0178591D02*
X0314320Y0171879D01*
X0303264Y0170179D02*
X0298410Y0172606D01*
X0298410Y0167753D02*
X0303264Y0170179D01*
X0297197Y0165356D02*
X0295984Y0164142D01*
X0298410Y0129084D02*
X0303264Y0129084D01*
X0314320Y0126721D02*
X0314320Y0117666D01*
X0300837Y0112187D02*
X0299624Y0110974D01*
X0295984Y0096463D02*
X0294770Y0096463D01*
X0310973Y0087351D02*
X0314320Y0087351D01*
X0314320Y0096406D01*
X0314320Y0087351D02*
X0314320Y0042194D01*
X0310973Y0042194D01*
X0310973Y0033414D01*
X0314320Y0033414D01*
X0314320Y0035481D02*
X0314320Y0042194D01*
X0303264Y0052961D02*
X0302050Y0051748D01*
X0303264Y0052961D02*
X0303264Y0055388D01*
X0302050Y0056602D01*
X0300837Y0056602D01*
X0299624Y0055388D01*
X0299624Y0052961D01*
X0298410Y0051748D01*
X0297197Y0051748D01*
X0295984Y0052961D01*
X0295984Y0055388D01*
X0297197Y0056602D01*
X0295984Y0058998D02*
X0295984Y0063852D01*
X0295984Y0066249D02*
X0295984Y0071102D01*
X0295984Y0068675D02*
X0303264Y0068675D01*
X0299624Y0061425D02*
X0299624Y0058998D01*
X0303264Y0058998D02*
X0295984Y0058998D01*
X0285461Y0026603D02*
X0285461Y0014595D01*
X0287528Y0014595D01*
X0287528Y0024536D01*
X0322371Y0024536D01*
X0322371Y0014595D01*
X0324438Y0014595D01*
X0324438Y0026603D01*
X0285461Y0026603D01*
X0285461Y0014595D02*
X0285461Y0010954D01*
X0295107Y0010954D01*
X0295107Y0008887D01*
X0285461Y0008887D01*
X0285461Y0010954D01*
X0295107Y0008887D02*
X0314792Y0008887D01*
X0314792Y0010954D01*
X0324438Y0010954D01*
X0324438Y0014595D01*
X0324438Y0010954D02*
X0324438Y0008887D01*
X0314792Y0008887D01*
D13*
X0021485Y0147469D02*
X0013611Y0147469D01*
X0013611Y0155343D01*
X0021485Y0155343D01*
X0021485Y0147469D01*
X0013611Y0037233D02*
X0005737Y0037233D01*
X0005737Y0029359D01*
X0013611Y0029359D01*
X0013611Y0037233D01*
X0367942Y0238020D02*
X0367942Y0245894D01*
X0375816Y0245894D01*
X0375816Y0238020D01*
X0367942Y0238020D01*
D14*
X0310068Y0206800D02*
X0310068Y0192627D01*
X0276209Y0192627D01*
X0276209Y0206800D01*
X0310068Y0206800D01*
X0230146Y0143532D02*
X0230146Y0129753D01*
X0230146Y0143532D02*
X0182902Y0143532D01*
X0182902Y0129753D01*
X0182902Y0110068D02*
X0182902Y0096288D01*
X0230146Y0096288D01*
X0230146Y0110068D01*
D15*
X0201328Y0145110D02*
X0201328Y0149714D01*
X0203630Y0149714D01*
X0204398Y0148947D01*
X0204398Y0147412D01*
X0203630Y0146645D01*
X0201328Y0146645D01*
X0199794Y0146645D02*
X0199794Y0145878D01*
X0199026Y0145110D01*
X0197492Y0145110D01*
X0196724Y0145878D01*
X0197492Y0147412D02*
X0199026Y0147412D01*
X0199794Y0146645D01*
X0199794Y0148947D02*
X0199026Y0149714D01*
X0197492Y0149714D01*
X0196724Y0148947D01*
X0196724Y0148180D01*
X0197492Y0147412D01*
X0173554Y0116269D02*
X0174308Y0115515D01*
X0171291Y0112498D01*
X0172046Y0111744D01*
X0173554Y0111744D01*
X0174308Y0112498D01*
X0174308Y0115515D01*
X0173554Y0116269D02*
X0172046Y0116269D01*
X0171291Y0115515D01*
X0171291Y0112498D01*
X0169777Y0111744D02*
X0168268Y0113252D01*
X0169022Y0113252D02*
X0166760Y0113252D01*
X0166760Y0111744D02*
X0166760Y0116269D01*
X0169022Y0116269D01*
X0169777Y0115515D01*
X0169777Y0114007D01*
X0169022Y0113252D01*
X0073372Y0093901D02*
X0073372Y0092366D01*
X0072604Y0091599D01*
X0071837Y0091599D01*
X0071070Y0092366D01*
X0071070Y0093901D01*
X0071837Y0094668D01*
X0072604Y0094668D01*
X0073372Y0093901D01*
X0071070Y0093901D02*
X0070302Y0094668D01*
X0069535Y0094668D01*
X0068768Y0093901D01*
X0068768Y0092366D01*
X0069535Y0091599D01*
X0070302Y0091599D01*
X0071070Y0092366D01*
X0073372Y0090065D02*
X0068768Y0090065D01*
X0068768Y0086995D02*
X0073372Y0090065D01*
X0073372Y0086995D02*
X0068768Y0086995D01*
X0069535Y0085461D02*
X0068768Y0084693D01*
X0068768Y0083159D01*
X0069535Y0082391D01*
X0072604Y0082391D01*
X0073372Y0083159D01*
X0073372Y0084693D01*
X0072604Y0085461D01*
X0069535Y0085461D01*
X0069535Y0080857D02*
X0068768Y0080089D01*
X0068768Y0078555D01*
X0069535Y0077787D01*
X0072604Y0077787D01*
X0073372Y0078555D01*
X0073372Y0080089D01*
X0072604Y0080857D01*
X0051718Y0080089D02*
X0050951Y0080857D01*
X0051718Y0080089D02*
X0051718Y0078555D01*
X0050951Y0077787D01*
X0047882Y0077787D01*
X0047114Y0078555D01*
X0047114Y0080089D01*
X0047882Y0080857D01*
X0047882Y0082391D02*
X0050951Y0082391D01*
X0051718Y0083159D01*
X0051718Y0084693D01*
X0050951Y0085461D01*
X0047882Y0085461D01*
X0047114Y0084693D01*
X0047114Y0083159D01*
X0047882Y0082391D01*
X0047114Y0086995D02*
X0051718Y0090065D01*
X0047114Y0090065D01*
X0047114Y0091599D02*
X0047114Y0094668D01*
X0047882Y0094668D01*
X0050951Y0091599D01*
X0051718Y0091599D01*
X0051718Y0086995D02*
X0047114Y0086995D01*
X0030065Y0086995D02*
X0025461Y0086995D01*
X0030065Y0090065D01*
X0025461Y0090065D01*
X0027763Y0091599D02*
X0027763Y0093901D01*
X0028530Y0094668D01*
X0029297Y0094668D01*
X0030065Y0093901D01*
X0030065Y0092366D01*
X0029297Y0091599D01*
X0027763Y0091599D01*
X0026228Y0093134D01*
X0025461Y0094668D01*
X0026228Y0085461D02*
X0025461Y0084693D01*
X0025461Y0083159D01*
X0026228Y0082391D01*
X0029297Y0082391D01*
X0030065Y0083159D01*
X0030065Y0084693D01*
X0029297Y0085461D01*
X0026228Y0085461D01*
X0026228Y0080857D02*
X0025461Y0080089D01*
X0025461Y0078555D01*
X0026228Y0077787D01*
X0029297Y0077787D01*
X0030065Y0078555D01*
X0030065Y0080089D01*
X0029297Y0080857D01*
X0008411Y0080089D02*
X0007644Y0080857D01*
X0008411Y0080089D02*
X0008411Y0078555D01*
X0007644Y0077787D01*
X0004574Y0077787D01*
X0003807Y0078555D01*
X0003807Y0080089D01*
X0004574Y0080857D01*
X0004574Y0082391D02*
X0007644Y0082391D01*
X0008411Y0083159D01*
X0008411Y0084693D01*
X0007644Y0085461D01*
X0004574Y0085461D01*
X0003807Y0084693D01*
X0003807Y0083159D01*
X0004574Y0082391D01*
X0003807Y0086995D02*
X0008411Y0090065D01*
X0003807Y0090065D01*
X0003807Y0091599D02*
X0006109Y0091599D01*
X0005342Y0093134D01*
X0005342Y0093901D01*
X0006109Y0094668D01*
X0007644Y0094668D01*
X0008411Y0093901D01*
X0008411Y0092366D01*
X0007644Y0091599D01*
X0003807Y0091599D02*
X0003807Y0094668D01*
X0003807Y0086995D02*
X0008411Y0086995D01*
X0014888Y0053277D02*
X0017150Y0053277D01*
X0017905Y0052523D01*
X0017905Y0051015D01*
X0017150Y0050260D01*
X0014888Y0050260D01*
X0014888Y0048752D02*
X0014888Y0053277D01*
X0016396Y0050260D02*
X0017905Y0048752D01*
X0019419Y0048752D02*
X0022436Y0048752D01*
X0020928Y0048752D02*
X0020928Y0053277D01*
X0019419Y0051769D01*
X0023951Y0052523D02*
X0023951Y0049506D01*
X0026967Y0052523D01*
X0026967Y0049506D01*
X0026213Y0048752D01*
X0024705Y0048752D01*
X0023951Y0049506D01*
X0023951Y0052523D02*
X0024705Y0053277D01*
X0026213Y0053277D01*
X0026967Y0052523D01*
X0023948Y0041466D02*
X0022439Y0041466D01*
X0021685Y0040712D01*
X0021685Y0039958D01*
X0022439Y0039204D01*
X0024702Y0039204D01*
X0024702Y0040712D02*
X0023948Y0041466D01*
X0024702Y0040712D02*
X0024702Y0037695D01*
X0023948Y0036941D01*
X0022439Y0036941D01*
X0021685Y0037695D01*
X0020170Y0036941D02*
X0018662Y0038449D01*
X0019416Y0038449D02*
X0017154Y0038449D01*
X0017154Y0036941D02*
X0017154Y0041466D01*
X0019416Y0041466D01*
X0020170Y0040712D01*
X0020170Y0039204D01*
X0019416Y0038449D01*
X0057701Y0019222D02*
X0057701Y0014697D01*
X0059963Y0014697D01*
X0060718Y0015451D01*
X0060718Y0016205D01*
X0059963Y0016959D01*
X0057701Y0016959D01*
X0059963Y0016959D02*
X0060718Y0017714D01*
X0060718Y0018468D01*
X0059963Y0019222D01*
X0057701Y0019222D01*
X0062232Y0019222D02*
X0062232Y0014697D01*
X0065249Y0014697D01*
X0066764Y0015451D02*
X0067518Y0014697D01*
X0069026Y0014697D01*
X0069781Y0015451D01*
X0069781Y0019222D01*
X0071295Y0019222D02*
X0071295Y0014697D01*
X0074312Y0014697D01*
X0072804Y0016959D02*
X0071295Y0016959D01*
X0071295Y0019222D02*
X0074312Y0019222D01*
X0077841Y0019064D02*
X0080103Y0019064D01*
X0080857Y0018310D01*
X0080857Y0016802D01*
X0080103Y0016048D01*
X0077841Y0016048D01*
X0079349Y0016048D02*
X0080857Y0014539D01*
X0082372Y0014539D02*
X0085389Y0014539D01*
X0086903Y0014539D02*
X0089166Y0014539D01*
X0089920Y0015294D01*
X0089920Y0018310D01*
X0089166Y0019064D01*
X0086903Y0019064D01*
X0086903Y0014539D01*
X0083880Y0016802D02*
X0082372Y0016802D01*
X0082372Y0019064D02*
X0082372Y0014539D01*
X0077841Y0014539D02*
X0077841Y0019064D01*
X0082372Y0019064D02*
X0085389Y0019064D01*
X0066764Y0019222D02*
X0066764Y0015451D01*
X0329756Y0023515D02*
X0330523Y0022748D01*
X0332058Y0022748D01*
X0332825Y0023515D01*
X0334360Y0023515D02*
X0335127Y0022748D01*
X0336662Y0022748D01*
X0337429Y0023515D01*
X0337429Y0026585D01*
X0336662Y0027352D01*
X0335127Y0027352D01*
X0334360Y0026585D01*
X0334360Y0023515D01*
X0332825Y0026585D02*
X0332058Y0027352D01*
X0330523Y0027352D01*
X0329756Y0026585D01*
X0329756Y0023515D01*
X0338964Y0022748D02*
X0338964Y0027352D01*
X0342033Y0022748D01*
X0342033Y0027352D01*
X0343568Y0026585D02*
X0343568Y0025817D01*
X0344335Y0025050D01*
X0346637Y0025050D01*
X0346637Y0023515D02*
X0346637Y0026585D01*
X0345870Y0027352D01*
X0344335Y0027352D01*
X0343568Y0026585D01*
X0343568Y0023515D02*
X0344335Y0022748D01*
X0345870Y0022748D01*
X0346637Y0023515D01*
X0346454Y0251776D02*
X0344945Y0253284D01*
X0345700Y0253284D02*
X0343437Y0253284D01*
X0343437Y0251776D02*
X0343437Y0256301D01*
X0345700Y0256301D01*
X0346454Y0255547D01*
X0346454Y0254038D01*
X0345700Y0253284D01*
X0347968Y0252530D02*
X0347968Y0251776D01*
X0347968Y0252530D02*
X0350985Y0255547D01*
X0350985Y0256301D01*
X0347968Y0256301D01*
X0330922Y0255924D02*
X0330922Y0255170D01*
X0330168Y0254416D01*
X0328660Y0254416D01*
X0327905Y0255170D01*
X0327905Y0255924D01*
X0328660Y0256679D01*
X0330168Y0256679D01*
X0330922Y0255924D01*
X0330168Y0254416D02*
X0330922Y0253662D01*
X0330922Y0252908D01*
X0330168Y0252154D01*
X0328660Y0252154D01*
X0327905Y0252908D01*
X0327905Y0253662D01*
X0328660Y0254416D01*
X0326391Y0254416D02*
X0325637Y0253662D01*
X0323374Y0253662D01*
X0324882Y0253662D02*
X0326391Y0252154D01*
X0326391Y0254416D02*
X0326391Y0255924D01*
X0325637Y0256679D01*
X0323374Y0256679D01*
X0323374Y0252154D01*
D16*
X0358300Y0187800D02*
X0358300Y0035800D01*
X0385300Y0035800D01*
X0385300Y0063800D01*
X0385300Y0069800D02*
X0385300Y0103800D01*
X0385300Y0119800D02*
X0385300Y0163800D01*
X0385300Y0169800D02*
X0385300Y0187800D01*
X0358300Y0187800D01*
D17*
X0351450Y0049245D02*
X0351450Y0045041D01*
X0351450Y0047143D02*
X0345145Y0047143D01*
X0347246Y0045041D01*
X0345145Y0042799D02*
X0349348Y0042799D01*
X0351450Y0040697D01*
X0349348Y0038595D01*
X0345145Y0038595D01*
X0346196Y0036354D02*
X0345145Y0035303D01*
X0345145Y0033201D01*
X0346196Y0032150D01*
X0347246Y0032150D01*
X0348297Y0033201D01*
X0348297Y0035303D01*
X0349348Y0036354D01*
X0350399Y0036354D01*
X0351450Y0035303D01*
X0351450Y0033201D01*
X0350399Y0032150D01*
M02*
