  0
SECTION
  2
HEADER
  9
$ACADVER
  1
AC1009
  9
$FILLMODE
 70
1
  9
$EXTMIN
 10
-0.2032
 20
-9.7288
 30
0.0000
  9
$EXTMAX
 10
100.2032
 20
65.2057
 30
0.0000
  0
ENDSEC
  0
SECTION
  2
TABLES
  0
TABLE
  2
LTYPE
 70
1
  0
LTYPE
  2
CONTINUOUS
 70
64
  3
Solid line
 72
65
 73
0
 40
0
  0
ENDTAB
  0
TABLE
  2
LAYER
 70
255
  0
LAYER
  2
17
 70
64
 62
82
  6
CONTINUOUS
  0
LAYER
  2
18
 70
64
 62
82
  6
CONTINUOUS
  0
LAYER
  2
20
 70
64
 62
7
  6
CONTINUOUS
  0
ENDTAB
  0
ENDSEC
  0
SECTION
  2
BLOCKS
  0
BLOCK
  8
0
  2
RECT
 70
64
 10
0.0000
 20
0.0000
 30
0.0000
  3
RECT
  0
SOLID
  8
0
 10
-0.5000
 20
-0.5000
 30
0.0000
 11
0.5000
 21
-0.5000
 31
0.0000
 12
-0.5000
 22
0.5000
 32
0.0000
 13
0.5000
 23
0.5000
 33
0.0000
  0
ENDBLK
  8
0
  0
BLOCK
  8
0
  2
PIE
 70
64
 10
0.0000
 20
0.0000
 30
0.0000
  3
PIE
  0
POLYLINE
  8
0
 66
1
 10
0.0000
 20
0.0000
 30
0.0000
 40
0.5000
 41
0.5000
 70
0
  0
VERTEX
  8
0
 10
0.0000
 20
-0.2500
 30
0.0000
 42
1.0000
  0
VERTEX
  8
0
 10
0.0000
 20
0.2500
 30
0.0000
 42
1.0000
  0
VERTEX
  8
0
 10
0.0000
 20
-0.2500
 30
0.0000
  0
SEQEND
  8
0
  0
ENDBLK
  8
0
  0
BLOCK
  8
0
  2
OCTAGONP
 70
64
 10
0.0000
 20
0.0000
 30
0.0000
  3
OCTAGONP
  0
POLYLINE
  8
0
 66
1
 10
0.0000
 20
0.0000
 30
0.0000
 40
0.5000
 41
0.5000
 70
0
  0
VERTEX
  8
0
 10
-0.2500
 20
-0.1036
 30
0.0000
  0
VERTEX
  8
0
 10
-0.2500
 20
0.1036
 30
0.0000
  0
VERTEX
  8
0
 10
-0.1036
 20
0.2500
 30
0.0000
  0
VERTEX
  8
0
 10
0.1036
 20
0.2500
 30
0.0000
  0
VERTEX
  8
0
 10
0.2500
 20
0.1036
 30
0.0000
  0
VERTEX
  8
0
 10
0.2500
 20
-0.1036
 30
0.0000
  0
VERTEX
  8
0
 10
0.1036
 20
-0.2500
 30
0.0000
  0
VERTEX
  8
0
 10
-0.1036
 20
-0.2500
 30
0.0000
  0
VERTEX
  8
0
 10
-0.2500
 20
-0.1036
 30
0.0000
  0
VERTEX
  8
0
 10
-0.2500
 20
0.1036
 30
0.0000
  0
SEQEND
  8
0
  0
ENDBLK
  8
0
  0
BLOCK
  8
0
  2
SQUAREP
 70
64
 10
0.0000
 20
0.0000
 30
0.0000
  3
SQUAREP
  0
SOLID
  8
0
 10
-0.5000
 20
-0.5000
 30
0.0000
 11
0.5000
 21
-0.5000
 31
0.0000
 12
-0.5000
 22
0.5000
 32
0.0000
 13
0.5000
 23
0.5000
 33
0.0000
  0
ENDBLK
  8
0
  0
BLOCK
  8
0
  2
ROUNDP
 70
64
 10
0.0000
 20
0.0000
 30
0.0000
  3
ROUNDP
  0
POLYLINE
  8
0
 66
1
 10
0.0000
 20
0.0000
 30
0.0000
 40
0.5000
 41
0.5000
 70
0
  0
VERTEX
  8
0
 10
0.0000
 20
-0.2500
 30
0.0000
 42
1.0000
  0
VERTEX
  8
0
 10
0.0000
 20
0.2500
 30
0.0000
 42
1.0000
  0
VERTEX
  8
0
 10
0.0000
 20
-0.2500
 30
0.0000
  0
SEQEND
  8
0
  0
ENDBLK
  8
0
  0
BLOCK
  8
0
  2
ANNULUSP
 70
64
 10
0.0000
 20
0.0000
 30
0.0000
  3
ANNULUSP
  0
POLYLINE
  8
0
 66
1
 10
0.0000
 20
0.0000
 30
0.0000
 40
0.5000
 41
0.5000
 70
0
  0
VERTEX
  8
0
 10
0.0000
 20
-0.2500
 30
0.0000
 42
1.0000
  0
VERTEX
  8
0
 10
0.0000
 20
0.2500
 30
0.0000
 42
1.0000
  0
VERTEX
  8
0
 10
0.0000
 20
-0.2500
 30
0.0000
  0
SEQEND
  8
0
  0
ENDBLK
  8
0
  0
BLOCK
  8
0
  2
THERMALP
 70
64
 10
0.0000
 20
0.0000
 30
0.0000
  3
THERMALP
  0
POLYLINE
  8
0
 66
1
 10
0.0000
 20
0.0000
 30
0.0000
 40
0.1000
 41
0.1000
 70
0
  0
VERTEX
  8
0
 10
-0.2379
 20
0.4500
 30
0.0000
  0
VERTEX
  8
0
 10
0.2379
 20
0.4500
 30
0.0000
  0
SEQEND
  8
0
  0
POLYLINE
  8
0
 66
1
 10
0.0000
 20
0.0000
 30
0.0000
 40
0.0500
 41
0.0500
 70
0
  0
VERTEX
  8
0
 10
0.2379
 20
0.4250
 30
0.0000
 42
1.0000
  0
VERTEX
  8
0
 10
0.2379
 20
0.4750
 30
0.0000
  0
SEQEND
  8
0
  0
POLYLINE
  8
0
 66
1
 10
0.0000
 20
0.0000
 30
0.0000
 40
0.0500
 41
0.0500
 70
0
  0
VERTEX
  8
0
 10
-0.2379
 20
0.4750
 30
0.0000
 42
1.0000
  0
VERTEX
  8
0
 10
-0.2379
 20
0.4250
 30
0.0000
  0
SEQEND
  8
0
  0
POLYLINE
  8
0
 66
1
 10
0.0000
 20
0.0000
 30
0.0000
 40
0.1000
 41
0.1000
 70
0
  0
VERTEX
  8
0
 10
0.4500
 20
0.2379
 30
0.0000
  0
VERTEX
  8
0
 10
0.4500
 20
-0.2379
 30
0.0000
  0
SEQEND
  8
0
  0
POLYLINE
  8
0
 66
1
 10
0.0000
 20
0.0000
 30
0.0000
 40
0.0500
 41
0.0500
 70
0
  0
VERTEX
  8
0
 10
0.4250
 20
-0.2379
 30
0.0000
 42
1.0000
  0
VERTEX
  8
0
 10
0.4750
 20
-0.2379
 30
0.0000
  0
SEQEND
  8
0
  0
POLYLINE
  8
0
 66
1
 10
0.0000
 20
0.0000
 30
0.0000
 40
0.0500
 41
0.0500
 70
0
  0
VERTEX
  8
0
 10
0.4750
 20
0.2379
 30
0.0000
 42
1.0000
  0
VERTEX
  8
0
 10
0.4250
 20
0.2379
 30
0.0000
  0
SEQEND
  8
0
  0
POLYLINE
  8
0
 66
1
 10
0.0000
 20
0.0000
 30
0.0000
 40
0.1000
 41
0.1000
 70
0
  0
VERTEX
  8
0
 10
0.2379
 20
-0.4500
 30
0.0000
  0
VERTEX
  8
0
 10
-0.2379
 20
-0.4500
 30
0.0000
  0
SEQEND
  8
0
  0
POLYLINE
  8
0
 66
1
 10
0.0000
 20
0.0000
 30
0.0000
 40
0.0500
 41
0.0500
 70
0
  0
VERTEX
  8
0
 10
-0.2379
 20
-0.4250
 30
0.0000
 42
1.0000
  0
VERTEX
  8
0
 10
-0.2379
 20
-0.4750
 30
0.0000
  0
SEQEND
  8
0
  0
POLYLINE
  8
0
 66
1
 10
0.0000
 20
0.0000
 30
0.0000
 40
0.0500
 41
0.0500
 70
0
  0
VERTEX
  8
0
 10
0.2379
 20
-0.4750
 30
0.0000
 42
1.0000
  0
VERTEX
  8
0
 10
0.2379
 20
-0.4250
 30
0.0000
  0
SEQEND
  8
0
  0
POLYLINE
  8
0
 66
1
 10
0.0000
 20
0.0000
 30
0.0000
 40
0.1000
 41
0.1000
 70
0
  0
VERTEX
  8
0
 10
-0.4500
 20
-0.2379
 30
0.0000
  0
VERTEX
  8
0
 10
-0.4500
 20
0.2379
 30
0.0000
  0
SEQEND
  8
0
  0
POLYLINE
  8
0
 66
1
 10
0.0000
 20
0.0000
 30
0.0000
 40
0.0500
 41
0.0500
 70
0
  0
VERTEX
  8
0
 10
-0.4250
 20
0.2379
 30
0.0000
 42
1.0000
  0
VERTEX
  8
0
 10
-0.4750
 20
0.2379
 30
0.0000
  0
SEQEND
  8
0
  0
POLYLINE
  8
0
 66
1
 10
0.0000
 20
0.0000
 30
0.0000
 40
0.0500
 41
0.0500
 70
0
  0
VERTEX
  8
0
 10
-0.4750
 20
-0.2379
 30
0.0000
 42
1.0000
  0
VERTEX
  8
0
 10
-0.4250
 20
-0.2379
 30
0.0000
  0
SEQEND
  8
0
  0
ENDBLK
  8
0
  0
BLOCK
  8
0
  2
OCTAGONV
 70
64
 10
0.0000
 20
0.0000
 30
0.0000
  3
OCTAGONV
  0
POLYLINE
  8
0
 66
1
 10
0.0000
 20
0.0000
 30
0.0000
 40
0.5000
 41
0.5000
 70
0
  0
VERTEX
  8
0
 10
-0.2500
 20
-0.1036
 30
0.0000
  0
VERTEX
  8
0
 10
-0.2500
 20
0.1036
 30
0.0000
  0
VERTEX
  8
0
 10
-0.1036
 20
0.2500
 30
0.0000
  0
VERTEX
  8
0
 10
0.1036
 20
0.2500
 30
0.0000
  0
VERTEX
  8
0
 10
0.2500
 20
0.1036
 30
0.0000
  0
VERTEX
  8
0
 10
0.2500
 20
-0.1036
 30
0.0000
  0
VERTEX
  8
0
 10
0.1036
 20
-0.2500
 30
0.0000
  0
VERTEX
  8
0
 10
-0.1036
 20
-0.2500
 30
0.0000
  0
VERTEX
  8
0
 10
-0.2500
 20
-0.1036
 30
0.0000
  0
VERTEX
  8
0
 10
-0.2500
 20
0.1036
 30
0.0000
  0
SEQEND
  8
0
  0
ENDBLK
  8
0
  0
BLOCK
  8
0
  2
SQUAREV
 70
64
 10
0.0000
 20
0.0000
 30
0.0000
  3
SQUAREV
  0
SOLID
  8
0
 10
-0.5000
 20
-0.5000
 30
0.0000
 11
0.5000
 21
-0.5000
 31
0.0000
 12
-0.5000
 22
0.5000
 32
0.0000
 13
0.5000
 23
0.5000
 33
0.0000
  0
ENDBLK
  8
0
  0
BLOCK
  8
0
  2
ROUNDV
 70
64
 10
0.0000
 20
0.0000
 30
0.0000
  3
ROUNDV
  0
POLYLINE
  8
0
 66
1
 10
0.0000
 20
0.0000
 30
0.0000
 40
0.5000
 41
0.5000
 70
0
  0
VERTEX
  8
0
 10
0.0000
 20
-0.2500
 30
0.0000
 42
1.0000
  0
VERTEX
  8
0
 10
0.0000
 20
0.2500
 30
0.0000
 42
1.0000
  0
VERTEX
  8
0
 10
0.0000
 20
-0.2500
 30
0.0000
  0
SEQEND
  8
0
  0
ENDBLK
  8
0
  0
BLOCK
  8
0
  2
ANNULUSV
 70
64
 10
0.0000
 20
0.0000
 30
0.0000
  3
ANNULUSV
  0
POLYLINE
  8
0
 66
1
 10
0.0000
 20
0.0000
 30
0.0000
 40
0.5000
 41
0.5000
 70
0
  0
VERTEX
  8
0
 10
0.0000
 20
-0.2500
 30
0.0000
 42
1.0000
  0
VERTEX
  8
0
 10
0.0000
 20
0.2500
 30
0.0000
 42
1.0000
  0
VERTEX
  8
0
 10
0.0000
 20
-0.2500
 30
0.0000
  0
SEQEND
  8
0
  0
ENDBLK
  8
0
  0
BLOCK
  8
0
  2
THERMALV
 70
64
 10
0.0000
 20
0.0000
 30
0.0000
  3
THERMALV
  0
POLYLINE
  8
0
 66
1
 10
0.0000
 20
0.0000
 30
0.0000
 40
0.1000
 41
0.1000
 70
0
  0
VERTEX
  8
0
 10
-0.2379
 20
0.4500
 30
0.0000
  0
VERTEX
  8
0
 10
0.2379
 20
0.4500
 30
0.0000
  0
SEQEND
  8
0
  0
POLYLINE
  8
0
 66
1
 10
0.0000
 20
0.0000
 30
0.0000
 40
0.0500
 41
0.0500
 70
0
  0
VERTEX
  8
0
 10
0.2379
 20
0.4250
 30
0.0000
 42
1.0000
  0
VERTEX
  8
0
 10
0.2379
 20
0.4750
 30
0.0000
  0
SEQEND
  8
0
  0
POLYLINE
  8
0
 66
1
 10
0.0000
 20
0.0000
 30
0.0000
 40
0.0500
 41
0.0500
 70
0
  0
VERTEX
  8
0
 10
-0.2379
 20
0.4750
 30
0.0000
 42
1.0000
  0
VERTEX
  8
0
 10
-0.2379
 20
0.4250
 30
0.0000
  0
SEQEND
  8
0
  0
POLYLINE
  8
0
 66
1
 10
0.0000
 20
0.0000
 30
0.0000
 40
0.1000
 41
0.1000
 70
0
  0
VERTEX
  8
0
 10
0.4500
 20
0.2379
 30
0.0000
  0
VERTEX
  8
0
 10
0.4500
 20
-0.2379
 30
0.0000
  0
SEQEND
  8
0
  0
POLYLINE
  8
0
 66
1
 10
0.0000
 20
0.0000
 30
0.0000
 40
0.0500
 41
0.0500
 70
0
  0
VERTEX
  8
0
 10
0.4250
 20
-0.2379
 30
0.0000
 42
1.0000
  0
VERTEX
  8
0
 10
0.4750
 20
-0.2379
 30
0.0000
  0
SEQEND
  8
0
  0
POLYLINE
  8
0
 66
1
 10
0.0000
 20
0.0000
 30
0.0000
 40
0.0500
 41
0.0500
 70
0
  0
VERTEX
  8
0
 10
0.4750
 20
0.2379
 30
0.0000
 42
1.0000
  0
VERTEX
  8
0
 10
0.4250
 20
0.2379
 30
0.0000
  0
SEQEND
  8
0
  0
POLYLINE
  8
0
 66
1
 10
0.0000
 20
0.0000
 30
0.0000
 40
0.1000
 41
0.1000
 70
0
  0
VERTEX
  8
0
 10
0.2379
 20
-0.4500
 30
0.0000
  0
VERTEX
  8
0
 10
-0.2379
 20
-0.4500
 30
0.0000
  0
SEQEND
  8
0
  0
POLYLINE
  8
0
 66
1
 10
0.0000
 20
0.0000
 30
0.0000
 40
0.0500
 41
0.0500
 70
0
  0
VERTEX
  8
0
 10
-0.2379
 20
-0.4250
 30
0.0000
 42
1.0000
  0
VERTEX
  8
0
 10
-0.2379
 20
-0.4750
 30
0.0000
  0
SEQEND
  8
0
  0
POLYLINE
  8
0
 66
1
 10
0.0000
 20
0.0000
 30
0.0000
 40
0.0500
 41
0.0500
 70
0
  0
VERTEX
  8
0
 10
0.2379
 20
-0.4750
 30
0.0000
 42
1.0000
  0
VERTEX
  8
0
 10
0.2379
 20
-0.4250
 30
0.0000
  0
SEQEND
  8
0
  0
POLYLINE
  8
0
 66
1
 10
0.0000
 20
0.0000
 30
0.0000
 40
0.1000
 41
0.1000
 70
0
  0
VERTEX
  8
0
 10
-0.4500
 20
-0.2379
 30
0.0000
  0
VERTEX
  8
0
 10
-0.4500
 20
0.2379
 30
0.0000
  0
SEQEND
  8
0
  0
POLYLINE
  8
0
 66
1
 10
0.0000
 20
0.0000
 30
0.0000
 40
0.0500
 41
0.0500
 70
0
  0
VERTEX
  8
0
 10
-0.4250
 20
0.2379
 30
0.0000
 42
1.0000
  0
VERTEX
  8
0
 10
-0.4750
 20
0.2379
 30
0.0000
  0
SEQEND
  8
0
  0
POLYLINE
  8
0
 66
1
 10
0.0000
 20
0.0000
 30
0.0000
 40
0.0500
 41
0.0500
 70
0
  0
VERTEX
  8
0
 10
-0.4750
 20
-0.2379
 30
0.0000
 42
1.0000
  0
VERTEX
  8
0
 10
-0.4250
 20
-0.2379
 30
0.0000
  0
SEQEND
  8
0
  0
ENDBLK
  8
0
  0
BLOCK
  8
0
  2
LONGP100
 70
64
 10
0.0000
 20
0.0000
 30
0.0000
  3
LONGP100
  0
POLYLINE
  8
0
 66
1
 10
0.0000
 20
0.0000
 30
0.0000
 40
1.0000
 41
1.0000
 70
0
  0
VERTEX
  8
0
 10
-0.5000
 20
0.0000
 30
0.0000
  0
VERTEX
  8
0
 10
0.5000
 20
0.0000
 30
0.0000
  0
SEQEND
  8
0
  0
POLYLINE
  8
0
 66
1
 10
0.0000
 20
0.0000
 30
0.0000
 40
0.5000
 41
0.5000
 70
0
  0
VERTEX
  8
0
 10
0.5000
 20
-0.2500
 30
0.0000
 42
1.0000
  0
VERTEX
  8
0
 10
0.5000
 20
0.2500
 30
0.0000
  0
SEQEND
  8
0
  0
POLYLINE
  8
0
 66
1
 10
0.0000
 20
0.0000
 30
0.0000
 40
0.5000
 41
0.5000
 70
0
  0
VERTEX
  8
0
 10
-0.5000
 20
0.2500
 30
0.0000
 42
1.0000
  0
VERTEX
  8
0
 10
-0.5000
 20
-0.2500
 30
0.0000
  0
SEQEND
  8
0
  0
ENDBLK
  8
0
  0
ENDSEC
  0
SECTION
  2
ENTITIES
  0
LINE
  8
20
 10
0.0000
 20
0.0000
 30
0.0000
 11
100.0000
 21
0.0000
 31
0.0000
  0
LINE
  8
20
 10
100.0000
 20
0.0000
 30
0.0000
 11
100.0000
 21
65.0000
 31
0.0000
  0
LINE
  8
20
 10
100.0000
 20
65.0000
 30
0.0000
 11
0.0000
 21
65.0000
 31
0.0000
  0
LINE
  8
20
 10
0.0000
 20
65.0000
 30
0.0000
 11
0.0000
 21
0.0000
 31
0.0000
  0
CIRCLE
  8
20
 10
3.0000
 20
3.0000
 30
0.0000
 40
1.6000
  0
CIRCLE
  8
20
 10
3.0000
 20
62.0000
 30
0.0000
 40
1.6000
  0
CIRCLE
  8
20
 10
97.0000
 20
3.0000
 30
0.0000
 40
1.6000
  0
CIRCLE
  8
20
 10
97.0000
 20
62.0000
 30
0.0000
 40
1.6000
  0
INSERT
  8
17
  2
SQUAREP
 10
81.7300
 20
10.4800
 30
0.0000
 41
1.5240
 42
1.5240
 43
1.0000
 50
180.0000
  0
INSERT
  8
17
  2
SQUAREP
 10
81.7300
 20
10.4800
 30
0.0000
 41
1.5240
 42
1.5240
 43
1.0000
 50
180.0000
  0
INSERT
  8
17
  2
ROUNDP
 10
81.7300
 20
12.9800
 30
0.0000
 41
1.5240
 42
1.5240
 43
1.0000
 50
180.0000
  0
INSERT
  8
17
  2
ROUNDP
 10
81.7300
 20
12.9800
 30
0.0000
 41
1.5240
 42
1.5240
 43
1.0000
 50
180.0000
  0
INSERT
  8
17
  2
ROUNDP
 10
81.7300
 20
15.4800
 30
0.0000
 41
1.5240
 42
1.5240
 43
1.0000
 50
180.0000
  0
INSERT
  8
17
  2
ROUNDP
 10
81.7300
 20
15.4800
 30
0.0000
 41
1.5240
 42
1.5240
 43
1.0000
 50
180.0000
  0
INSERT
  8
17
  2
ROUNDP
 10
81.7300
 20
17.9800
 30
0.0000
 41
1.5240
 42
1.5240
 43
1.0000
 50
180.0000
  0
INSERT
  8
17
  2
ROUNDP
 10
81.7300
 20
17.9800
 30
0.0000
 41
1.5240
 42
1.5240
 43
1.0000
 50
180.0000
  0
INSERT
  8
17
  2
ROUNDP
 10
81.7300
 20
20.4800
 30
0.0000
 41
1.5240
 42
1.5240
 43
1.0000
 50
180.0000
  0
INSERT
  8
17
  2
ROUNDP
 10
81.7300
 20
20.4800
 30
0.0000
 41
1.5240
 42
1.5240
 43
1.0000
 50
180.0000
  0
INSERT
  8
17
  2
ROUNDP
 10
81.7300
 20
22.9800
 30
0.0000
 41
1.5240
 42
1.5240
 43
1.0000
 50
180.0000
  0
INSERT
  8
17
  2
ROUNDP
 10
81.7300
 20
22.9800
 30
0.0000
 41
1.5240
 42
1.5240
 43
1.0000
 50
180.0000
  0
INSERT
  8
17
  2
ROUNDP
 10
81.7300
 20
25.4800
 30
0.0000
 41
1.5240
 42
1.5240
 43
1.0000
 50
180.0000
  0
INSERT
  8
17
  2
ROUNDP
 10
81.7300
 20
25.4800
 30
0.0000
 41
1.5240
 42
1.5240
 43
1.0000
 50
180.0000
  0
INSERT
  8
17
  2
ROUNDP
 10
81.7300
 20
27.9800
 30
0.0000
 41
1.5240
 42
1.5240
 43
1.0000
 50
180.0000
  0
INSERT
  8
17
  2
ROUNDP
 10
81.7300
 20
27.9800
 30
0.0000
 41
1.5240
 42
1.5240
 43
1.0000
 50
180.0000
  0
INSERT
  8
17
  2
ROUNDP
 10
81.7300
 20
30.4800
 30
0.0000
 41
1.5240
 42
1.5240
 43
1.0000
 50
180.0000
  0
INSERT
  8
17
  2
ROUNDP
 10
81.7300
 20
30.4800
 30
0.0000
 41
1.5240
 42
1.5240
 43
1.0000
 50
180.0000
  0
INSERT
  8
17
  2
ROUNDP
 10
81.7300
 20
32.9800
 30
0.0000
 41
1.5240
 42
1.5240
 43
1.0000
 50
180.0000
  0
INSERT
  8
17
  2
ROUNDP
 10
81.7300
 20
32.9800
 30
0.0000
 41
1.5240
 42
1.5240
 43
1.0000
 50
180.0000
  0
INSERT
  8
17
  2
ROUNDP
 10
81.7300
 20
35.4800
 30
0.0000
 41
1.5240
 42
1.5240
 43
1.0000
 50
180.0000
  0
INSERT
  8
17
  2
ROUNDP
 10
81.7300
 20
35.4800
 30
0.0000
 41
1.5240
 42
1.5240
 43
1.0000
 50
180.0000
  0
INSERT
  8
17
  2
ROUNDP
 10
81.7300
 20
37.9800
 30
0.0000
 41
1.5240
 42
1.5240
 43
1.0000
 50
180.0000
  0
INSERT
  8
17
  2
ROUNDP
 10
81.7300
 20
37.9800
 30
0.0000
 41
1.5240
 42
1.5240
 43
1.0000
 50
180.0000
  0
INSERT
  8
17
  2
ROUNDP
 10
81.7300
 20
40.4800
 30
0.0000
 41
1.5240
 42
1.5240
 43
1.0000
 50
180.0000
  0
INSERT
  8
17
  2
ROUNDP
 10
81.7300
 20
40.4800
 30
0.0000
 41
1.5240
 42
1.5240
 43
1.0000
 50
180.0000
  0
INSERT
  8
17
  2
ROUNDP
 10
81.7300
 20
42.9800
 30
0.0000
 41
1.5240
 42
1.5240
 43
1.0000
 50
180.0000
  0
INSERT
  8
17
  2
ROUNDP
 10
81.7300
 20
42.9800
 30
0.0000
 41
1.5240
 42
1.5240
 43
1.0000
 50
180.0000
  0
INSERT
  8
17
  2
SQUAREP
 10
80.0000
 20
3.5000
 30
0.0000
 41
1.3080
 42
1.3080
 43
1.0000
 50
270.0000
  0
INSERT
  8
17
  2
SQUAREP
 10
80.0000
 20
3.5000
 30
0.0000
 41
1.3080
 42
1.3080
 43
1.0000
 50
270.0000
  0
INSERT
  8
17
  2
ROUNDP
 10
78.0000
 20
3.5000
 30
0.0000
 41
1.3080
 42
1.3080
 43
1.0000
 50
270.0000
  0
INSERT
  8
17
  2
ROUNDP
 10
78.0000
 20
3.5000
 30
0.0000
 41
1.3080
 42
1.3080
 43
1.0000
 50
270.0000
  0
INSERT
  8
17
  2
ROUNDP
 10
76.0000
 20
3.5000
 30
0.0000
 41
1.3080
 42
1.3080
 43
1.0000
 50
270.0000
  0
INSERT
  8
17
  2
ROUNDP
 10
76.0000
 20
3.5000
 30
0.0000
 41
1.3080
 42
1.3080
 43
1.0000
 50
270.0000
  0
INSERT
  8
17
  2
ROUNDP
 10
74.0000
 20
3.5000
 30
0.0000
 41
1.3080
 42
1.3080
 43
1.0000
 50
270.0000
  0
INSERT
  8
17
  2
ROUNDP
 10
74.0000
 20
3.5000
 30
0.0000
 41
1.3080
 42
1.3080
 43
1.0000
 50
270.0000
  0
INSERT
  8
17
  2
SQUAREP
 10
8.0000
 20
60.0000
 30
0.0000
 41
1.3080
 42
1.3080
 43
1.0000
 50
90.0000
  0
INSERT
  8
17
  2
SQUAREP
 10
8.0000
 20
60.0000
 30
0.0000
 41
1.3080
 42
1.3080
 43
1.0000
 50
90.0000
  0
INSERT
  8
17
  2
ROUNDP
 10
10.0000
 20
60.0000
 30
0.0000
 41
1.3080
 42
1.3080
 43
1.0000
 50
90.0000
  0
INSERT
  8
17
  2
ROUNDP
 10
10.0000
 20
60.0000
 30
0.0000
 41
1.3080
 42
1.3080
 43
1.0000
 50
90.0000
  0
INSERT
  8
17
  2
ROUNDP
 10
12.0000
 20
60.0000
 30
0.0000
 41
1.3080
 42
1.3080
 43
1.0000
 50
90.0000
  0
INSERT
  8
17
  2
ROUNDP
 10
12.0000
 20
60.0000
 30
0.0000
 41
1.3080
 42
1.3080
 43
1.0000
 50
90.0000
  0
INSERT
  8
17
  2
ROUNDP
 10
14.0000
 20
60.0000
 30
0.0000
 41
1.3080
 42
1.3080
 43
1.0000
 50
90.0000
  0
INSERT
  8
17
  2
ROUNDP
 10
14.0000
 20
60.0000
 30
0.0000
 41
1.3080
 42
1.3080
 43
1.0000
 50
90.0000
  0
INSERT
  8
17
  2
ROUNDP
 10
16.0000
 20
60.0000
 30
0.0000
 41
1.3080
 42
1.3080
 43
1.0000
 50
90.0000
  0
INSERT
  8
17
  2
ROUNDP
 10
16.0000
 20
60.0000
 30
0.0000
 41
1.3080
 42
1.3080
 43
1.0000
 50
90.0000
  0
INSERT
  8
17
  2
ROUNDP
 10
18.0000
 20
60.0000
 30
0.0000
 41
1.3080
 42
1.3080
 43
1.0000
 50
90.0000
  0
INSERT
  8
17
  2
ROUNDP
 10
18.0000
 20
60.0000
 30
0.0000
 41
1.3080
 42
1.3080
 43
1.0000
 50
90.0000
  0
INSERT
  8
17
  2
ROUNDP
 10
20.0000
 20
60.0000
 30
0.0000
 41
1.3080
 42
1.3080
 43
1.0000
 50
90.0000
  0
INSERT
  8
17
  2
ROUNDP
 10
20.0000
 20
60.0000
 30
0.0000
 41
1.3080
 42
1.3080
 43
1.0000
 50
90.0000
  0
INSERT
  8
17
  2
ROUNDP
 10
22.0000
 20
60.0000
 30
0.0000
 41
1.3080
 42
1.3080
 43
1.0000
 50
90.0000
  0
INSERT
  8
17
  2
ROUNDP
 10
22.0000
 20
60.0000
 30
0.0000
 41
1.3080
 42
1.3080
 43
1.0000
 50
90.0000
  0
INSERT
  8
17
  2
SQUAREP
 10
28.0000
 20
60.0000
 30
0.0000
 41
1.3080
 42
1.3080
 43
1.0000
 50
90.0000
  0
INSERT
  8
17
  2
SQUAREP
 10
28.0000
 20
60.0000
 30
0.0000
 41
1.3080
 42
1.3080
 43
1.0000
 50
90.0000
  0
INSERT
  8
17
  2
ROUNDP
 10
30.0000
 20
60.0000
 30
0.0000
 41
1.3080
 42
1.3080
 43
1.0000
 50
90.0000
  0
INSERT
  8
17
  2
ROUNDP
 10
30.0000
 20
60.0000
 30
0.0000
 41
1.3080
 42
1.3080
 43
1.0000
 50
90.0000
  0
INSERT
  8
17
  2
ROUNDP
 10
32.0000
 20
60.0000
 30
0.0000
 41
1.3080
 42
1.3080
 43
1.0000
 50
90.0000
  0
INSERT
  8
17
  2
ROUNDP
 10
32.0000
 20
60.0000
 30
0.0000
 41
1.3080
 42
1.3080
 43
1.0000
 50
90.0000
  0
INSERT
  8
17
  2
ROUNDP
 10
34.0000
 20
60.0000
 30
0.0000
 41
1.3080
 42
1.3080
 43
1.0000
 50
90.0000
  0
INSERT
  8
17
  2
ROUNDP
 10
34.0000
 20
60.0000
 30
0.0000
 41
1.3080
 42
1.3080
 43
1.0000
 50
90.0000
  0
INSERT
  8
17
  2
ROUNDP
 10
36.0000
 20
60.0000
 30
0.0000
 41
1.3080
 42
1.3080
 43
1.0000
 50
90.0000
  0
INSERT
  8
17
  2
ROUNDP
 10
36.0000
 20
60.0000
 30
0.0000
 41
1.3080
 42
1.3080
 43
1.0000
 50
90.0000
  0
INSERT
  8
17
  2
ROUNDP
 10
38.0000
 20
60.0000
 30
0.0000
 41
1.3080
 42
1.3080
 43
1.0000
 50
90.0000
  0
INSERT
  8
17
  2
ROUNDP
 10
38.0000
 20
60.0000
 30
0.0000
 41
1.3080
 42
1.3080
 43
1.0000
 50
90.0000
  0
INSERT
  8
17
  2
ROUNDP
 10
40.0000
 20
60.0000
 30
0.0000
 41
1.3080
 42
1.3080
 43
1.0000
 50
90.0000
  0
INSERT
  8
17
  2
ROUNDP
 10
40.0000
 20
60.0000
 30
0.0000
 41
1.3080
 42
1.3080
 43
1.0000
 50
90.0000
  0
INSERT
  8
17
  2
ROUNDP
 10
42.0000
 20
60.0000
 30
0.0000
 41
1.3080
 42
1.3080
 43
1.0000
 50
90.0000
  0
INSERT
  8
17
  2
ROUNDP
 10
42.0000
 20
60.0000
 30
0.0000
 41
1.3080
 42
1.3080
 43
1.0000
 50
90.0000
  0
INSERT
  8
17
  2
SQUAREP
 10
48.0000
 20
60.0000
 30
0.0000
 41
1.3080
 42
1.3080
 43
1.0000
 50
90.0000
  0
INSERT
  8
17
  2
SQUAREP
 10
48.0000
 20
60.0000
 30
0.0000
 41
1.3080
 42
1.3080
 43
1.0000
 50
90.0000
  0
INSERT
  8
17
  2
ROUNDP
 10
50.0000
 20
60.0000
 30
0.0000
 41
1.3080
 42
1.3080
 43
1.0000
 50
90.0000
  0
INSERT
  8
17
  2
ROUNDP
 10
50.0000
 20
60.0000
 30
0.0000
 41
1.3080
 42
1.3080
 43
1.0000
 50
90.0000
  0
INSERT
  8
17
  2
ROUNDP
 10
52.0000
 20
60.0000
 30
0.0000
 41
1.3080
 42
1.3080
 43
1.0000
 50
90.0000
  0
INSERT
  8
17
  2
ROUNDP
 10
52.0000
 20
60.0000
 30
0.0000
 41
1.3080
 42
1.3080
 43
1.0000
 50
90.0000
  0
INSERT
  8
17
  2
ROUNDP
 10
54.0000
 20
60.0000
 30
0.0000
 41
1.3080
 42
1.3080
 43
1.0000
 50
90.0000
  0
INSERT
  8
17
  2
ROUNDP
 10
54.0000
 20
60.0000
 30
0.0000
 41
1.3080
 42
1.3080
 43
1.0000
 50
90.0000
  0
INSERT
  8
17
  2
ROUNDP
 10
56.0000
 20
60.0000
 30
0.0000
 41
1.3080
 42
1.3080
 43
1.0000
 50
90.0000
  0
INSERT
  8
17
  2
ROUNDP
 10
56.0000
 20
60.0000
 30
0.0000
 41
1.3080
 42
1.3080
 43
1.0000
 50
90.0000
  0
INSERT
  8
17
  2
ROUNDP
 10
58.0000
 20
60.0000
 30
0.0000
 41
1.3080
 42
1.3080
 43
1.0000
 50
90.0000
  0
INSERT
  8
17
  2
ROUNDP
 10
58.0000
 20
60.0000
 30
0.0000
 41
1.3080
 42
1.3080
 43
1.0000
 50
90.0000
  0
INSERT
  8
17
  2
ROUNDP
 10
60.0000
 20
60.0000
 30
0.0000
 41
1.3080
 42
1.3080
 43
1.0000
 50
90.0000
  0
INSERT
  8
17
  2
ROUNDP
 10
60.0000
 20
60.0000
 30
0.0000
 41
1.3080
 42
1.3080
 43
1.0000
 50
90.0000
  0
INSERT
  8
17
  2
ROUNDP
 10
62.0000
 20
60.0000
 30
0.0000
 41
1.3080
 42
1.3080
 43
1.0000
 50
90.0000
  0
INSERT
  8
17
  2
ROUNDP
 10
62.0000
 20
60.0000
 30
0.0000
 41
1.3080
 42
1.3080
 43
1.0000
 50
90.0000
  0
INSERT
  8
17
  2
SQUAREP
 10
11.4220
 20
3.5480
 30
0.0000
 41
1.3080
 42
1.3080
 43
1.0000
 50
270.0000
  0
INSERT
  8
17
  2
SQUAREP
 10
11.4220
 20
3.5480
 30
0.0000
 41
1.3080
 42
1.3080
 43
1.0000
 50
270.0000
  0
INSERT
  8
17
  2
ROUNDP
 10
9.4220
 20
3.5480
 30
0.0000
 41
1.3080
 42
1.3080
 43
1.0000
 50
270.0000
  0
INSERT
  8
17
  2
ROUNDP
 10
9.4220
 20
3.5480
 30
0.0000
 41
1.3080
 42
1.3080
 43
1.0000
 50
270.0000
  0
INSERT
  8
17
  2
ROUNDP
 10
97.3000
 20
57.2700
 30
0.0000
 41
1.2080
 42
1.2080
 43
1.0000
 50
90.0000
  0
INSERT
  8
17
  2
ROUNDP
 10
97.3000
 20
57.2700
 30
0.0000
 41
1.2080
 42
1.2080
 43
1.0000
 50
90.0000
  0
INSERT
  8
17
  2
ROUNDP
 10
97.3000
 20
55.7700
 30
0.0000
 41
1.2080
 42
1.2080
 43
1.0000
 50
90.0000
  0
INSERT
  8
17
  2
ROUNDP
 10
97.3000
 20
55.7700
 30
0.0000
 41
1.2080
 42
1.2080
 43
1.0000
 50
90.0000
  0
INSERT
  8
17
  2
ROUNDP
 10
97.3000
 20
54.2700
 30
0.0000
 41
1.2080
 42
1.2080
 43
1.0000
 50
90.0000
  0
INSERT
  8
17
  2
ROUNDP
 10
97.3000
 20
54.2700
 30
0.0000
 41
1.2080
 42
1.2080
 43
1.0000
 50
90.0000
  0
INSERT
  8
17
  2
ROUNDP
 10
97.3000
 20
52.7700
 30
0.0000
 41
1.2080
 42
1.2080
 43
1.0000
 50
90.0000
  0
INSERT
  8
17
  2
ROUNDP
 10
97.3000
 20
52.7700
 30
0.0000
 41
1.2080
 42
1.2080
 43
1.0000
 50
90.0000
  0
INSERT
  8
17
  2
ROUNDP
 10
92.3000
 20
57.2700
 30
0.0000
 41
1.2080
 42
1.2080
 43
1.0000
 50
90.0000
  0
INSERT
  8
17
  2
ROUNDP
 10
92.3000
 20
57.2700
 30
0.0000
 41
1.2080
 42
1.2080
 43
1.0000
 50
90.0000
  0
INSERT
  8
17
  2
ROUNDP
 10
92.3000
 20
55.7700
 30
0.0000
 41
1.2080
 42
1.2080
 43
1.0000
 50
90.0000
  0
INSERT
  8
17
  2
ROUNDP
 10
92.3000
 20
55.7700
 30
0.0000
 41
1.2080
 42
1.2080
 43
1.0000
 50
90.0000
  0
INSERT
  8
17
  2
ROUNDP
 10
92.3000
 20
54.2700
 30
0.0000
 41
1.2080
 42
1.2080
 43
1.0000
 50
90.0000
  0
INSERT
  8
17
  2
ROUNDP
 10
92.3000
 20
54.2700
 30
0.0000
 41
1.2080
 42
1.2080
 43
1.0000
 50
90.0000
  0
INSERT
  8
17
  2
ROUNDP
 10
92.3000
 20
52.7700
 30
0.0000
 41
1.2080
 42
1.2080
 43
1.0000
 50
90.0000
  0
INSERT
  8
17
  2
ROUNDP
 10
92.3000
 20
52.7700
 30
0.0000
 41
1.2080
 42
1.2080
 43
1.0000
 50
90.0000
  0
INSERT
  8
17
  2
ROUNDP
 10
87.3000
 20
57.2700
 30
0.0000
 41
1.2080
 42
1.2080
 43
1.0000
 50
90.0000
  0
INSERT
  8
17
  2
ROUNDP
 10
87.3000
 20
57.2700
 30
0.0000
 41
1.2080
 42
1.2080
 43
1.0000
 50
90.0000
  0
INSERT
  8
17
  2
ROUNDP
 10
87.3000
 20
55.7700
 30
0.0000
 41
1.2080
 42
1.2080
 43
1.0000
 50
90.0000
  0
INSERT
  8
17
  2
ROUNDP
 10
87.3000
 20
55.7700
 30
0.0000
 41
1.2080
 42
1.2080
 43
1.0000
 50
90.0000
  0
INSERT
  8
17
  2
ROUNDP
 10
87.3000
 20
54.2700
 30
0.0000
 41
1.2080
 42
1.2080
 43
1.0000
 50
90.0000
  0
INSERT
  8
17
  2
ROUNDP
 10
87.3000
 20
54.2700
 30
0.0000
 41
1.2080
 42
1.2080
 43
1.0000
 50
90.0000
  0
INSERT
  8
17
  2
ROUNDP
 10
87.3000
 20
52.7700
 30
0.0000
 41
1.2080
 42
1.2080
 43
1.0000
 50
90.0000
  0
INSERT
  8
17
  2
ROUNDP
 10
87.3000
 20
52.7700
 30
0.0000
 41
1.2080
 42
1.2080
 43
1.0000
 50
90.0000
  0
INSERT
  8
17
  2
ROUNDP
 10
82.3000
 20
57.2700
 30
0.0000
 41
1.2080
 42
1.2080
 43
1.0000
 50
90.0000
  0
INSERT
  8
17
  2
ROUNDP
 10
82.3000
 20
57.2700
 30
0.0000
 41
1.2080
 42
1.2080
 43
1.0000
 50
90.0000
  0
INSERT
  8
17
  2
ROUNDP
 10
82.3000
 20
55.7700
 30
0.0000
 41
1.2080
 42
1.2080
 43
1.0000
 50
90.0000
  0
INSERT
  8
17
  2
ROUNDP
 10
82.3000
 20
55.7700
 30
0.0000
 41
1.2080
 42
1.2080
 43
1.0000
 50
90.0000
  0
INSERT
  8
17
  2
ROUNDP
 10
82.3000
 20
54.2700
 30
0.0000
 41
1.2080
 42
1.2080
 43
1.0000
 50
90.0000
  0
INSERT
  8
17
  2
ROUNDP
 10
82.3000
 20
54.2700
 30
0.0000
 41
1.2080
 42
1.2080
 43
1.0000
 50
90.0000
  0
INSERT
  8
17
  2
ROUNDP
 10
82.3000
 20
52.7700
 30
0.0000
 41
1.2080
 42
1.2080
 43
1.0000
 50
90.0000
  0
INSERT
  8
17
  2
ROUNDP
 10
82.3000
 20
52.7700
 30
0.0000
 41
1.2080
 42
1.2080
 43
1.0000
 50
90.0000
  0
INSERT
  8
17
  2
ROUNDP
 10
3.3000
 20
26.0000
 30
0.0000
 41
1.2080
 42
1.2080
 43
1.0000
 50
90.0000
  0
INSERT
  8
17
  2
ROUNDP
 10
3.3000
 20
26.0000
 30
0.0000
 41
1.2080
 42
1.2080
 43
1.0000
 50
90.0000
  0
INSERT
  8
17
  2
ROUNDP
 10
3.3000
 20
24.5000
 30
0.0000
 41
1.2080
 42
1.2080
 43
1.0000
 50
90.0000
  0
INSERT
  8
17
  2
ROUNDP
 10
3.3000
 20
24.5000
 30
0.0000
 41
1.2080
 42
1.2080
 43
1.0000
 50
90.0000
  0
INSERT
  8
17
  2
ROUNDP
 10
3.3000
 20
23.0000
 30
0.0000
 41
1.2080
 42
1.2080
 43
1.0000
 50
90.0000
  0
INSERT
  8
17
  2
ROUNDP
 10
3.3000
 20
23.0000
 30
0.0000
 41
1.2080
 42
1.2080
 43
1.0000
 50
90.0000
  0
INSERT
  8
17
  2
ROUNDP
 10
3.3000
 20
21.5000
 30
0.0000
 41
1.2080
 42
1.2080
 43
1.0000
 50
90.0000
  0
INSERT
  8
17
  2
ROUNDP
 10
3.3000
 20
21.5000
 30
0.0000
 41
1.2080
 42
1.2080
 43
1.0000
 50
90.0000
  0
INSERT
  8
17
  2
ROUNDP
 10
8.8000
 20
26.0000
 30
0.0000
 41
1.2080
 42
1.2080
 43
1.0000
 50
90.0000
  0
INSERT
  8
17
  2
ROUNDP
 10
8.8000
 20
26.0000
 30
0.0000
 41
1.2080
 42
1.2080
 43
1.0000
 50
90.0000
  0
INSERT
  8
17
  2
ROUNDP
 10
8.8000
 20
24.5000
 30
0.0000
 41
1.2080
 42
1.2080
 43
1.0000
 50
90.0000
  0
INSERT
  8
17
  2
ROUNDP
 10
8.8000
 20
24.5000
 30
0.0000
 41
1.2080
 42
1.2080
 43
1.0000
 50
90.0000
  0
INSERT
  8
17
  2
ROUNDP
 10
8.8000
 20
23.0000
 30
0.0000
 41
1.2080
 42
1.2080
 43
1.0000
 50
90.0000
  0
INSERT
  8
17
  2
ROUNDP
 10
8.8000
 20
23.0000
 30
0.0000
 41
1.2080
 42
1.2080
 43
1.0000
 50
90.0000
  0
INSERT
  8
17
  2
ROUNDP
 10
8.8000
 20
21.5000
 30
0.0000
 41
1.2080
 42
1.2080
 43
1.0000
 50
90.0000
  0
INSERT
  8
17
  2
ROUNDP
 10
8.8000
 20
21.5000
 30
0.0000
 41
1.2080
 42
1.2080
 43
1.0000
 50
90.0000
  0
INSERT
  8
17
  2
ROUNDP
 10
14.3000
 20
26.0000
 30
0.0000
 41
1.2080
 42
1.2080
 43
1.0000
 50
90.0000
  0
INSERT
  8
17
  2
ROUNDP
 10
14.3000
 20
26.0000
 30
0.0000
 41
1.2080
 42
1.2080
 43
1.0000
 50
90.0000
  0
INSERT
  8
17
  2
ROUNDP
 10
14.3000
 20
24.5000
 30
0.0000
 41
1.2080
 42
1.2080
 43
1.0000
 50
90.0000
  0
INSERT
  8
17
  2
ROUNDP
 10
14.3000
 20
24.5000
 30
0.0000
 41
1.2080
 42
1.2080
 43
1.0000
 50
90.0000
  0
INSERT
  8
17
  2
ROUNDP
 10
14.3000
 20
23.0000
 30
0.0000
 41
1.2080
 42
1.2080
 43
1.0000
 50
90.0000
  0
INSERT
  8
17
  2
ROUNDP
 10
14.3000
 20
23.0000
 30
0.0000
 41
1.2080
 42
1.2080
 43
1.0000
 50
90.0000
  0
INSERT
  8
17
  2
ROUNDP
 10
14.3000
 20
21.5000
 30
0.0000
 41
1.2080
 42
1.2080
 43
1.0000
 50
90.0000
  0
INSERT
  8
17
  2
ROUNDP
 10
14.3000
 20
21.5000
 30
0.0000
 41
1.2080
 42
1.2080
 43
1.0000
 50
90.0000
  0
INSERT
  8
17
  2
ROUNDP
 10
19.8000
 20
26.0000
 30
0.0000
 41
1.2080
 42
1.2080
 43
1.0000
 50
90.0000
  0
INSERT
  8
17
  2
ROUNDP
 10
19.8000
 20
26.0000
 30
0.0000
 41
1.2080
 42
1.2080
 43
1.0000
 50
90.0000
  0
INSERT
  8
17
  2
ROUNDP
 10
19.8000
 20
24.5000
 30
0.0000
 41
1.2080
 42
1.2080
 43
1.0000
 50
90.0000
  0
INSERT
  8
17
  2
ROUNDP
 10
19.8000
 20
24.5000
 30
0.0000
 41
1.2080
 42
1.2080
 43
1.0000
 50
90.0000
  0
INSERT
  8
17
  2
ROUNDP
 10
19.8000
 20
23.0000
 30
0.0000
 41
1.2080
 42
1.2080
 43
1.0000
 50
90.0000
  0
INSERT
  8
17
  2
ROUNDP
 10
19.8000
 20
23.0000
 30
0.0000
 41
1.2080
 42
1.2080
 43
1.0000
 50
90.0000
  0
INSERT
  8
17
  2
ROUNDP
 10
19.8000
 20
21.5000
 30
0.0000
 41
1.2080
 42
1.2080
 43
1.0000
 50
90.0000
  0
INSERT
  8
17
  2
ROUNDP
 10
19.8000
 20
21.5000
 30
0.0000
 41
1.2080
 42
1.2080
 43
1.0000
 50
90.0000
  0
INSERT
  8
17
  2
ROUNDP
 10
90.0000
 20
3.7000
 30
0.0000
 41
1.2080
 42
1.2080
 43
1.0000
 50
0.0000
  0
INSERT
  8
17
  2
ROUNDP
 10
90.0000
 20
3.7000
 30
0.0000
 41
1.2080
 42
1.2080
 43
1.0000
 50
0.0000
  0
INSERT
  8
17
  2
ROUNDP
 10
88.5000
 20
3.7000
 30
0.0000
 41
1.2080
 42
1.2080
 43
1.0000
 50
0.0000
  0
INSERT
  8
17
  2
ROUNDP
 10
88.5000
 20
3.7000
 30
0.0000
 41
1.2080
 42
1.2080
 43
1.0000
 50
0.0000
  0
INSERT
  8
17
  2
ROUNDP
 10
87.0000
 20
3.7000
 30
0.0000
 41
1.2080
 42
1.2080
 43
1.0000
 50
0.0000
  0
INSERT
  8
17
  2
ROUNDP
 10
87.0000
 20
3.7000
 30
0.0000
 41
1.2080
 42
1.2080
 43
1.0000
 50
0.0000
  0
INSERT
  8
17
  2
ROUNDP
 10
85.5000
 20
3.7000
 30
0.0000
 41
1.2080
 42
1.2080
 43
1.0000
 50
0.0000
  0
INSERT
  8
17
  2
ROUNDP
 10
85.5000
 20
3.7000
 30
0.0000
 41
1.2080
 42
1.2080
 43
1.0000
 50
0.0000
  0
INSERT
  8
17
  2
LONGP100
 10
14.8800
 20
33.2400
 30
0.0000
 41
1.3208
 42
1.3208
 43
1.0000
 50
270.0000
  0
INSERT
  8
17
  2
LONGP100
 10
14.8800
 20
33.2400
 30
0.0000
 41
1.3208
 42
1.3208
 43
1.0000
 50
270.0000
  0
INSERT
  8
17
  2
LONGP100
 10
12.3400
 20
33.2400
 30
0.0000
 41
1.3208
 42
1.3208
 43
1.0000
 50
270.0000
  0
INSERT
  8
17
  2
LONGP100
 10
12.3400
 20
33.2400
 30
0.0000
 41
1.3208
 42
1.3208
 43
1.0000
 50
270.0000
  0
INSERT
  8
17
  2
LONGP100
 10
9.8000
 20
33.2400
 30
0.0000
 41
1.3208
 42
1.3208
 43
1.0000
 50
270.0000
  0
INSERT
  8
17
  2
LONGP100
 10
9.8000
 20
33.2400
 30
0.0000
 41
1.3208
 42
1.3208
 43
1.0000
 50
270.0000
  0
INSERT
  8
17
  2
LONGP100
 10
7.2600
 20
33.2400
 30
0.0000
 41
1.3208
 42
1.3208
 43
1.0000
 50
270.0000
  0
INSERT
  8
17
  2
LONGP100
 10
7.2600
 20
33.2400
 30
0.0000
 41
1.3208
 42
1.3208
 43
1.0000
 50
270.0000
  0
INSERT
  8
17
  2
LONGP100
 10
4.7200
 20
33.2400
 30
0.0000
 41
1.3208
 42
1.3208
 43
1.0000
 50
270.0000
  0
INSERT
  8
17
  2
LONGP100
 10
4.7200
 20
33.2400
 30
0.0000
 41
1.3208
 42
1.3208
 43
1.0000
 50
270.0000
  0
INSERT
  8
17
  2
LONGP100
 10
14.8800
 20
53.5600
 30
0.0000
 41
1.3208
 42
1.3208
 43
1.0000
 50
270.0000
  0
INSERT
  8
17
  2
LONGP100
 10
14.8800
 20
53.5600
 30
0.0000
 41
1.3208
 42
1.3208
 43
1.0000
 50
270.0000
  0
INSERT
  8
17
  2
LONGP100
 10
12.3400
 20
53.5600
 30
0.0000
 41
1.3208
 42
1.3208
 43
1.0000
 50
270.0000
  0
INSERT
  8
17
  2
LONGP100
 10
12.3400
 20
53.5600
 30
0.0000
 41
1.3208
 42
1.3208
 43
1.0000
 50
270.0000
  0
INSERT
  8
17
  2
LONGP100
 10
9.8000
 20
53.5600
 30
0.0000
 41
1.3208
 42
1.3208
 43
1.0000
 50
270.0000
  0
INSERT
  8
17
  2
LONGP100
 10
9.8000
 20
53.5600
 30
0.0000
 41
1.3208
 42
1.3208
 43
1.0000
 50
270.0000
  0
INSERT
  8
17
  2
LONGP100
 10
7.2600
 20
53.5600
 30
0.0000
 41
1.3208
 42
1.3208
 43
1.0000
 50
270.0000
  0
INSERT
  8
17
  2
LONGP100
 10
7.2600
 20
53.5600
 30
0.0000
 41
1.3208
 42
1.3208
 43
1.0000
 50
270.0000
  0
INSERT
  8
17
  2
LONGP100
 10
4.7200
 20
53.5600
 30
0.0000
 41
1.3208
 42
1.3208
 43
1.0000
 50
270.0000
  0
INSERT
  8
17
  2
LONGP100
 10
4.7200
 20
53.5600
 30
0.0000
 41
1.3208
 42
1.3208
 43
1.0000
 50
270.0000
  0
INSERT
  8
17
  2
OCTAGONP
 10
95.2500
 20
12.7000
 30
0.0000
 41
1.4224
 42
1.4224
 43
1.0000
 50
90.0000
  0
INSERT
  8
17
  2
OCTAGONP
 10
95.2500
 20
12.7000
 30
0.0000
 41
1.4224
 42
1.4224
 43
1.0000
 50
90.0000
  0
INSERT
  8
17
  2
OCTAGONP
 10
92.7100
 20
12.7000
 30
0.0000
 41
1.4224
 42
1.4224
 43
1.0000
 50
90.0000
  0
INSERT
  8
17
  2
OCTAGONP
 10
92.7100
 20
12.7000
 30
0.0000
 41
1.4224
 42
1.4224
 43
1.0000
 50
90.0000
  0
INSERT
  8
17
  2
OCTAGONP
 10
95.2500
 20
15.2400
 30
0.0000
 41
1.4224
 42
1.4224
 43
1.0000
 50
90.0000
  0
INSERT
  8
17
  2
OCTAGONP
 10
95.2500
 20
15.2400
 30
0.0000
 41
1.4224
 42
1.4224
 43
1.0000
 50
90.0000
  0
INSERT
  8
17
  2
OCTAGONP
 10
92.7100
 20
15.2400
 30
0.0000
 41
1.4224
 42
1.4224
 43
1.0000
 50
90.0000
  0
INSERT
  8
17
  2
OCTAGONP
 10
92.7100
 20
15.2400
 30
0.0000
 41
1.4224
 42
1.4224
 43
1.0000
 50
90.0000
  0
INSERT
  8
17
  2
OCTAGONP
 10
95.2500
 20
17.7800
 30
0.0000
 41
1.4224
 42
1.4224
 43
1.0000
 50
90.0000
  0
INSERT
  8
17
  2
OCTAGONP
 10
95.2500
 20
17.7800
 30
0.0000
 41
1.4224
 42
1.4224
 43
1.0000
 50
90.0000
  0
INSERT
  8
17
  2
OCTAGONP
 10
92.7100
 20
17.7800
 30
0.0000
 41
1.4224
 42
1.4224
 43
1.0000
 50
90.0000
  0
INSERT
  8
17
  2
OCTAGONP
 10
92.7100
 20
17.7800
 30
0.0000
 41
1.4224
 42
1.4224
 43
1.0000
 50
90.0000
  0
INSERT
  8
17
  2
OCTAGONP
 10
95.2500
 20
20.3200
 30
0.0000
 41
1.4224
 42
1.4224
 43
1.0000
 50
90.0000
  0
INSERT
  8
17
  2
OCTAGONP
 10
95.2500
 20
20.3200
 30
0.0000
 41
1.4224
 42
1.4224
 43
1.0000
 50
90.0000
  0
INSERT
  8
17
  2
OCTAGONP
 10
92.7100
 20
20.3200
 30
0.0000
 41
1.4224
 42
1.4224
 43
1.0000
 50
90.0000
  0
INSERT
  8
17
  2
OCTAGONP
 10
92.7100
 20
20.3200
 30
0.0000
 41
1.4224
 42
1.4224
 43
1.0000
 50
90.0000
  0
INSERT
  8
17
  2
OCTAGONP
 10
95.2500
 20
22.8600
 30
0.0000
 41
1.4224
 42
1.4224
 43
1.0000
 50
90.0000
  0
INSERT
  8
17
  2
OCTAGONP
 10
95.2500
 20
22.8600
 30
0.0000
 41
1.4224
 42
1.4224
 43
1.0000
 50
90.0000
  0
INSERT
  8
17
  2
OCTAGONP
 10
92.7100
 20
22.8600
 30
0.0000
 41
1.4224
 42
1.4224
 43
1.0000
 50
90.0000
  0
INSERT
  8
17
  2
OCTAGONP
 10
92.7100
 20
22.8600
 30
0.0000
 41
1.4224
 42
1.4224
 43
1.0000
 50
90.0000
  0
INSERT
  8
17
  2
OCTAGONP
 10
95.2500
 20
25.4000
 30
0.0000
 41
1.4224
 42
1.4224
 43
1.0000
 50
90.0000
  0
INSERT
  8
17
  2
OCTAGONP
 10
95.2500
 20
25.4000
 30
0.0000
 41
1.4224
 42
1.4224
 43
1.0000
 50
90.0000
  0
INSERT
  8
17
  2
OCTAGONP
 10
92.7100
 20
25.4000
 30
0.0000
 41
1.4224
 42
1.4224
 43
1.0000
 50
90.0000
  0
INSERT
  8
17
  2
OCTAGONP
 10
92.7100
 20
25.4000
 30
0.0000
 41
1.4224
 42
1.4224
 43
1.0000
 50
90.0000
  0
INSERT
  8
17
  2
OCTAGONP
 10
95.2500
 20
27.9400
 30
0.0000
 41
1.4224
 42
1.4224
 43
1.0000
 50
90.0000
  0
INSERT
  8
17
  2
OCTAGONP
 10
95.2500
 20
27.9400
 30
0.0000
 41
1.4224
 42
1.4224
 43
1.0000
 50
90.0000
  0
INSERT
  8
17
  2
OCTAGONP
 10
92.7100
 20
27.9400
 30
0.0000
 41
1.4224
 42
1.4224
 43
1.0000
 50
90.0000
  0
INSERT
  8
17
  2
OCTAGONP
 10
92.7100
 20
27.9400
 30
0.0000
 41
1.4224
 42
1.4224
 43
1.0000
 50
90.0000
  0
INSERT
  8
17
  2
OCTAGONP
 10
95.2500
 20
30.4800
 30
0.0000
 41
1.4224
 42
1.4224
 43
1.0000
 50
90.0000
  0
INSERT
  8
17
  2
OCTAGONP
 10
95.2500
 20
30.4800
 30
0.0000
 41
1.4224
 42
1.4224
 43
1.0000
 50
90.0000
  0
INSERT
  8
17
  2
OCTAGONP
 10
92.7100
 20
30.4800
 30
0.0000
 41
1.4224
 42
1.4224
 43
1.0000
 50
90.0000
  0
INSERT
  8
17
  2
OCTAGONP
 10
92.7100
 20
30.4800
 30
0.0000
 41
1.4224
 42
1.4224
 43
1.0000
 50
90.0000
  0
INSERT
  8
17
  2
OCTAGONP
 10
95.2500
 20
33.0200
 30
0.0000
 41
1.4224
 42
1.4224
 43
1.0000
 50
90.0000
  0
INSERT
  8
17
  2
OCTAGONP
 10
95.2500
 20
33.0200
 30
0.0000
 41
1.4224
 42
1.4224
 43
1.0000
 50
90.0000
  0
INSERT
  8
17
  2
OCTAGONP
 10
92.7100
 20
33.0200
 30
0.0000
 41
1.4224
 42
1.4224
 43
1.0000
 50
90.0000
  0
INSERT
  8
17
  2
OCTAGONP
 10
92.7100
 20
33.0200
 30
0.0000
 41
1.4224
 42
1.4224
 43
1.0000
 50
90.0000
  0
INSERT
  8
17
  2
OCTAGONP
 10
95.2500
 20
35.5600
 30
0.0000
 41
1.4224
 42
1.4224
 43
1.0000
 50
90.0000
  0
INSERT
  8
17
  2
OCTAGONP
 10
95.2500
 20
35.5600
 30
0.0000
 41
1.4224
 42
1.4224
 43
1.0000
 50
90.0000
  0
INSERT
  8
17
  2
OCTAGONP
 10
92.7100
 20
35.5600
 30
0.0000
 41
1.4224
 42
1.4224
 43
1.0000
 50
90.0000
  0
INSERT
  8
17
  2
OCTAGONP
 10
92.7100
 20
35.5600
 30
0.0000
 41
1.4224
 42
1.4224
 43
1.0000
 50
90.0000
  0
INSERT
  8
17
  2
OCTAGONP
 10
95.2500
 20
38.1000
 30
0.0000
 41
1.4224
 42
1.4224
 43
1.0000
 50
90.0000
  0
INSERT
  8
17
  2
OCTAGONP
 10
95.2500
 20
38.1000
 30
0.0000
 41
1.4224
 42
1.4224
 43
1.0000
 50
90.0000
  0
INSERT
  8
17
  2
OCTAGONP
 10
92.7100
 20
38.1000
 30
0.0000
 41
1.4224
 42
1.4224
 43
1.0000
 50
90.0000
  0
INSERT
  8
17
  2
OCTAGONP
 10
92.7100
 20
38.1000
 30
0.0000
 41
1.4224
 42
1.4224
 43
1.0000
 50
90.0000
  0
INSERT
  8
17
  2
OCTAGONP
 10
95.2500
 20
40.6400
 30
0.0000
 41
1.4224
 42
1.4224
 43
1.0000
 50
90.0000
  0
INSERT
  8
17
  2
OCTAGONP
 10
95.2500
 20
40.6400
 30
0.0000
 41
1.4224
 42
1.4224
 43
1.0000
 50
90.0000
  0
INSERT
  8
17
  2
OCTAGONP
 10
92.7100
 20
40.6400
 30
0.0000
 41
1.4224
 42
1.4224
 43
1.0000
 50
90.0000
  0
INSERT
  8
17
  2
OCTAGONP
 10
92.7100
 20
40.6400
 30
0.0000
 41
1.4224
 42
1.4224
 43
1.0000
 50
90.0000
  0
INSERT
  8
17
  2
OCTAGONP
 10
95.2500
 20
43.1800
 30
0.0000
 41
1.4224
 42
1.4224
 43
1.0000
 50
90.0000
  0
INSERT
  8
17
  2
OCTAGONP
 10
95.2500
 20
43.1800
 30
0.0000
 41
1.4224
 42
1.4224
 43
1.0000
 50
90.0000
  0
INSERT
  8
17
  2
OCTAGONP
 10
92.7100
 20
43.1800
 30
0.0000
 41
1.4224
 42
1.4224
 43
1.0000
 50
90.0000
  0
INSERT
  8
17
  2
OCTAGONP
 10
92.7100
 20
43.1800
 30
0.0000
 41
1.4224
 42
1.4224
 43
1.0000
 50
90.0000
  0
INSERT
  8
17
  2
ROUNDP
 10
65.0400
 20
3.8420
 30
0.0000
 41
1.4080
 42
1.4080
 43
1.0000
 50
180.0000
  0
INSERT
  8
17
  2
ROUNDP
 10
65.0400
 20
3.8420
 30
0.0000
 41
1.4080
 42
1.4080
 43
1.0000
 50
180.0000
  0
INSERT
  8
17
  2
ROUNDP
 10
62.5000
 20
3.8420
 30
0.0000
 41
1.4080
 42
1.4080
 43
1.0000
 50
180.0000
  0
INSERT
  8
17
  2
ROUNDP
 10
62.5000
 20
3.8420
 30
0.0000
 41
1.4080
 42
1.4080
 43
1.0000
 50
180.0000
  0
INSERT
  8
17
  2
ROUNDP
 10
65.0400
 20
6.3820
 30
0.0000
 41
1.4080
 42
1.4080
 43
1.0000
 50
180.0000
  0
INSERT
  8
17
  2
ROUNDP
 10
65.0400
 20
6.3820
 30
0.0000
 41
1.4080
 42
1.4080
 43
1.0000
 50
180.0000
  0
INSERT
  8
17
  2
ROUNDP
 10
62.5000
 20
6.3820
 30
0.0000
 41
1.4080
 42
1.4080
 43
1.0000
 50
180.0000
  0
INSERT
  8
17
  2
ROUNDP
 10
62.5000
 20
6.3820
 30
0.0000
 41
1.4080
 42
1.4080
 43
1.0000
 50
180.0000
  0
INSERT
  8
17
  2
ROUNDP
 10
65.0400
 20
8.9220
 30
0.0000
 41
1.4080
 42
1.4080
 43
1.0000
 50
180.0000
  0
INSERT
  8
17
  2
ROUNDP
 10
65.0400
 20
8.9220
 30
0.0000
 41
1.4080
 42
1.4080
 43
1.0000
 50
180.0000
  0
INSERT
  8
17
  2
ROUNDP
 10
62.5000
 20
8.9220
 30
0.0000
 41
1.4080
 42
1.4080
 43
1.0000
 50
180.0000
  0
INSERT
  8
17
  2
ROUNDP
 10
62.5000
 20
8.9220
 30
0.0000
 41
1.4080
 42
1.4080
 43
1.0000
 50
180.0000
  0
INSERT
  8
17
  2
ROUNDP
 10
65.0400
 20
11.4620
 30
0.0000
 41
1.4080
 42
1.4080
 43
1.0000
 50
180.0000
  0
INSERT
  8
17
  2
ROUNDP
 10
65.0400
 20
11.4620
 30
0.0000
 41
1.4080
 42
1.4080
 43
1.0000
 50
180.0000
  0
INSERT
  8
17
  2
ROUNDP
 10
62.5000
 20
11.4620
 30
0.0000
 41
1.4080
 42
1.4080
 43
1.0000
 50
180.0000
  0
INSERT
  8
17
  2
ROUNDP
 10
62.5000
 20
11.4620
 30
0.0000
 41
1.4080
 42
1.4080
 43
1.0000
 50
180.0000
  0
INSERT
  8
17
  2
ROUNDP
 10
65.0400
 20
14.0020
 30
0.0000
 41
1.4080
 42
1.4080
 43
1.0000
 50
180.0000
  0
INSERT
  8
17
  2
ROUNDP
 10
65.0400
 20
14.0020
 30
0.0000
 41
1.4080
 42
1.4080
 43
1.0000
 50
180.0000
  0
INSERT
  8
17
  2
ROUNDP
 10
62.5000
 20
14.0020
 30
0.0000
 41
1.4080
 42
1.4080
 43
1.0000
 50
180.0000
  0
INSERT
  8
17
  2
ROUNDP
 10
62.5000
 20
14.0020
 30
0.0000
 41
1.4080
 42
1.4080
 43
1.0000
 50
180.0000
  0
INSERT
  8
17
  2
ROUNDP
 10
65.0400
 20
16.5420
 30
0.0000
 41
1.4080
 42
1.4080
 43
1.0000
 50
180.0000
  0
INSERT
  8
17
  2
ROUNDP
 10
65.0400
 20
16.5420
 30
0.0000
 41
1.4080
 42
1.4080
 43
1.0000
 50
180.0000
  0
INSERT
  8
17
  2
ROUNDP
 10
62.5000
 20
16.5420
 30
0.0000
 41
1.4080
 42
1.4080
 43
1.0000
 50
180.0000
  0
INSERT
  8
17
  2
ROUNDP
 10
62.5000
 20
16.5420
 30
0.0000
 41
1.4080
 42
1.4080
 43
1.0000
 50
180.0000
  0
INSERT
  8
17
  2
ROUNDP
 10
65.0400
 20
19.0820
 30
0.0000
 41
1.4080
 42
1.4080
 43
1.0000
 50
180.0000
  0
INSERT
  8
17
  2
ROUNDP
 10
65.0400
 20
19.0820
 30
0.0000
 41
1.4080
 42
1.4080
 43
1.0000
 50
180.0000
  0
INSERT
  8
17
  2
ROUNDP
 10
62.5000
 20
19.0820
 30
0.0000
 41
1.4080
 42
1.4080
 43
1.0000
 50
180.0000
  0
INSERT
  8
17
  2
ROUNDP
 10
62.5000
 20
19.0820
 30
0.0000
 41
1.4080
 42
1.4080
 43
1.0000
 50
180.0000
  0
INSERT
  8
17
  2
ROUNDP
 10
65.0400
 20
21.6220
 30
0.0000
 41
1.4080
 42
1.4080
 43
1.0000
 50
180.0000
  0
INSERT
  8
17
  2
ROUNDP
 10
65.0400
 20
21.6220
 30
0.0000
 41
1.4080
 42
1.4080
 43
1.0000
 50
180.0000
  0
INSERT
  8
17
  2
ROUNDP
 10
62.5000
 20
21.6220
 30
0.0000
 41
1.4080
 42
1.4080
 43
1.0000
 50
180.0000
  0
INSERT
  8
17
  2
ROUNDP
 10
62.5000
 20
21.6220
 30
0.0000
 41
1.4080
 42
1.4080
 43
1.0000
 50
180.0000
  0
INSERT
  8
17
  2
ROUNDP
 10
65.0400
 20
24.1620
 30
0.0000
 41
1.4080
 42
1.4080
 43
1.0000
 50
180.0000
  0
INSERT
  8
17
  2
ROUNDP
 10
65.0400
 20
24.1620
 30
0.0000
 41
1.4080
 42
1.4080
 43
1.0000
 50
180.0000
  0
INSERT
  8
17
  2
ROUNDP
 10
62.5000
 20
24.1620
 30
0.0000
 41
1.4080
 42
1.4080
 43
1.0000
 50
180.0000
  0
INSERT
  8
17
  2
ROUNDP
 10
62.5000
 20
24.1620
 30
0.0000
 41
1.4080
 42
1.4080
 43
1.0000
 50
180.0000
  0
INSERT
  8
17
  2
ROUNDP
 10
65.0400
 20
26.7020
 30
0.0000
 41
1.4080
 42
1.4080
 43
1.0000
 50
180.0000
  0
INSERT
  8
17
  2
ROUNDP
 10
65.0400
 20
26.7020
 30
0.0000
 41
1.4080
 42
1.4080
 43
1.0000
 50
180.0000
  0
INSERT
  8
17
  2
ROUNDP
 10
62.5000
 20
26.7020
 30
0.0000
 41
1.4080
 42
1.4080
 43
1.0000
 50
180.0000
  0
INSERT
  8
17
  2
ROUNDP
 10
62.5000
 20
26.7020
 30
0.0000
 41
1.4080
 42
1.4080
 43
1.0000
 50
180.0000
  0
INSERT
  8
17
  2
ROUNDP
 10
65.0400
 20
29.2420
 30
0.0000
 41
1.4080
 42
1.4080
 43
1.0000
 50
180.0000
  0
INSERT
  8
17
  2
ROUNDP
 10
65.0400
 20
29.2420
 30
0.0000
 41
1.4080
 42
1.4080
 43
1.0000
 50
180.0000
  0
INSERT
  8
17
  2
ROUNDP
 10
62.5000
 20
29.2420
 30
0.0000
 41
1.4080
 42
1.4080
 43
1.0000
 50
180.0000
  0
INSERT
  8
17
  2
ROUNDP
 10
62.5000
 20
29.2420
 30
0.0000
 41
1.4080
 42
1.4080
 43
1.0000
 50
180.0000
  0
INSERT
  8
17
  2
ROUNDP
 10
65.0400
 20
31.7820
 30
0.0000
 41
1.4080
 42
1.4080
 43
1.0000
 50
180.0000
  0
INSERT
  8
17
  2
ROUNDP
 10
65.0400
 20
31.7820
 30
0.0000
 41
1.4080
 42
1.4080
 43
1.0000
 50
180.0000
  0
INSERT
  8
17
  2
ROUNDP
 10
62.5000
 20
31.7820
 30
0.0000
 41
1.4080
 42
1.4080
 43
1.0000
 50
180.0000
  0
INSERT
  8
17
  2
ROUNDP
 10
62.5000
 20
31.7820
 30
0.0000
 41
1.4080
 42
1.4080
 43
1.0000
 50
180.0000
  0
INSERT
  8
17
  2
ROUNDP
 10
65.0400
 20
34.3220
 30
0.0000
 41
1.4080
 42
1.4080
 43
1.0000
 50
180.0000
  0
INSERT
  8
17
  2
ROUNDP
 10
65.0400
 20
34.3220
 30
0.0000
 41
1.4080
 42
1.4080
 43
1.0000
 50
180.0000
  0
INSERT
  8
17
  2
ROUNDP
 10
62.5000
 20
34.3220
 30
0.0000
 41
1.4080
 42
1.4080
 43
1.0000
 50
180.0000
  0
INSERT
  8
17
  2
ROUNDP
 10
62.5000
 20
34.3220
 30
0.0000
 41
1.4080
 42
1.4080
 43
1.0000
 50
180.0000
  0
INSERT
  8
17
  2
ROUNDP
 10
65.0400
 20
36.8620
 30
0.0000
 41
1.4080
 42
1.4080
 43
1.0000
 50
180.0000
  0
INSERT
  8
17
  2
ROUNDP
 10
65.0400
 20
36.8620
 30
0.0000
 41
1.4080
 42
1.4080
 43
1.0000
 50
180.0000
  0
INSERT
  8
17
  2
ROUNDP
 10
62.5000
 20
36.8620
 30
0.0000
 41
1.4080
 42
1.4080
 43
1.0000
 50
180.0000
  0
INSERT
  8
17
  2
ROUNDP
 10
62.5000
 20
36.8620
 30
0.0000
 41
1.4080
 42
1.4080
 43
1.0000
 50
180.0000
  0
INSERT
  8
17
  2
ROUNDP
 10
65.0400
 20
39.4020
 30
0.0000
 41
1.4080
 42
1.4080
 43
1.0000
 50
180.0000
  0
INSERT
  8
17
  2
ROUNDP
 10
65.0400
 20
39.4020
 30
0.0000
 41
1.4080
 42
1.4080
 43
1.0000
 50
180.0000
  0
INSERT
  8
17
  2
ROUNDP
 10
62.5000
 20
39.4020
 30
0.0000
 41
1.4080
 42
1.4080
 43
1.0000
 50
180.0000
  0
INSERT
  8
17
  2
ROUNDP
 10
62.5000
 20
39.4020
 30
0.0000
 41
1.4080
 42
1.4080
 43
1.0000
 50
180.0000
  0
INSERT
  8
17
  2
ROUNDP
 10
65.0400
 20
41.9420
 30
0.0000
 41
1.4080
 42
1.4080
 43
1.0000
 50
180.0000
  0
INSERT
  8
17
  2
ROUNDP
 10
65.0400
 20
41.9420
 30
0.0000
 41
1.4080
 42
1.4080
 43
1.0000
 50
180.0000
  0
INSERT
  8
17
  2
ROUNDP
 10
62.5000
 20
41.9420
 30
0.0000
 41
1.4080
 42
1.4080
 43
1.0000
 50
180.0000
  0
INSERT
  8
17
  2
ROUNDP
 10
62.5000
 20
41.9420
 30
0.0000
 41
1.4080
 42
1.4080
 43
1.0000
 50
180.0000
  0
INSERT
  8
17
  2
ROUNDP
 10
65.0400
 20
44.4820
 30
0.0000
 41
1.4080
 42
1.4080
 43
1.0000
 50
180.0000
  0
INSERT
  8
17
  2
ROUNDP
 10
65.0400
 20
44.4820
 30
0.0000
 41
1.4080
 42
1.4080
 43
1.0000
 50
180.0000
  0
INSERT
  8
17
  2
ROUNDP
 10
62.5000
 20
44.4820
 30
0.0000
 41
1.4080
 42
1.4080
 43
1.0000
 50
180.0000
  0
INSERT
  8
17
  2
ROUNDP
 10
62.5000
 20
44.4820
 30
0.0000
 41
1.4080
 42
1.4080
 43
1.0000
 50
180.0000
  0
INSERT
  8
17
  2
ROUNDP
 10
65.0400
 20
47.0220
 30
0.0000
 41
1.4080
 42
1.4080
 43
1.0000
 50
180.0000
  0
INSERT
  8
17
  2
ROUNDP
 10
65.0400
 20
47.0220
 30
0.0000
 41
1.4080
 42
1.4080
 43
1.0000
 50
180.0000
  0
INSERT
  8
17
  2
ROUNDP
 10
62.5000
 20
47.0220
 30
0.0000
 41
1.4080
 42
1.4080
 43
1.0000
 50
180.0000
  0
INSERT
  8
17
  2
ROUNDP
 10
62.5000
 20
47.0220
 30
0.0000
 41
1.4080
 42
1.4080
 43
1.0000
 50
180.0000
  0
INSERT
  8
17
  2
ROUNDP
 10
65.0400
 20
49.5620
 30
0.0000
 41
1.4080
 42
1.4080
 43
1.0000
 50
180.0000
  0
INSERT
  8
17
  2
ROUNDP
 10
65.0400
 20
49.5620
 30
0.0000
 41
1.4080
 42
1.4080
 43
1.0000
 50
180.0000
  0
INSERT
  8
17
  2
ROUNDP
 10
62.5000
 20
49.5620
 30
0.0000
 41
1.4080
 42
1.4080
 43
1.0000
 50
180.0000
  0
INSERT
  8
17
  2
ROUNDP
 10
62.5000
 20
49.5620
 30
0.0000
 41
1.4080
 42
1.4080
 43
1.0000
 50
180.0000
  0
INSERT
  8
17
  2
ROUNDP
 10
65.0400
 20
52.1020
 30
0.0000
 41
1.4080
 42
1.4080
 43
1.0000
 50
180.0000
  0
INSERT
  8
17
  2
ROUNDP
 10
65.0400
 20
52.1020
 30
0.0000
 41
1.4080
 42
1.4080
 43
1.0000
 50
180.0000
  0
INSERT
  8
17
  2
ROUNDP
 10
62.5000
 20
52.1020
 30
0.0000
 41
1.4080
 42
1.4080
 43
1.0000
 50
180.0000
  0
INSERT
  8
17
  2
ROUNDP
 10
62.5000
 20
52.1020
 30
0.0000
 41
1.4080
 42
1.4080
 43
1.0000
 50
180.0000
  0
INSERT
  8
17
  2
ROUNDP
 10
29.4800
 20
3.8420
 30
0.0000
 41
1.4080
 42
1.4080
 43
1.0000
 50
180.0000
  0
INSERT
  8
17
  2
ROUNDP
 10
29.4800
 20
3.8420
 30
0.0000
 41
1.4080
 42
1.4080
 43
1.0000
 50
180.0000
  0
INSERT
  8
17
  2
ROUNDP
 10
26.9400
 20
3.8420
 30
0.0000
 41
1.4080
 42
1.4080
 43
1.0000
 50
180.0000
  0
INSERT
  8
17
  2
ROUNDP
 10
26.9400
 20
3.8420
 30
0.0000
 41
1.4080
 42
1.4080
 43
1.0000
 50
180.0000
  0
INSERT
  8
17
  2
ROUNDP
 10
29.4800
 20
6.3820
 30
0.0000
 41
1.4080
 42
1.4080
 43
1.0000
 50
180.0000
  0
INSERT
  8
17
  2
ROUNDP
 10
29.4800
 20
6.3820
 30
0.0000
 41
1.4080
 42
1.4080
 43
1.0000
 50
180.0000
  0
INSERT
  8
17
  2
ROUNDP
 10
26.9400
 20
6.3820
 30
0.0000
 41
1.4080
 42
1.4080
 43
1.0000
 50
180.0000
  0
INSERT
  8
17
  2
ROUNDP
 10
26.9400
 20
6.3820
 30
0.0000
 41
1.4080
 42
1.4080
 43
1.0000
 50
180.0000
  0
INSERT
  8
17
  2
ROUNDP
 10
29.4800
 20
8.9220
 30
0.0000
 41
1.4080
 42
1.4080
 43
1.0000
 50
180.0000
  0
INSERT
  8
17
  2
ROUNDP
 10
29.4800
 20
8.9220
 30
0.0000
 41
1.4080
 42
1.4080
 43
1.0000
 50
180.0000
  0
INSERT
  8
17
  2
ROUNDP
 10
26.9400
 20
8.9220
 30
0.0000
 41
1.4080
 42
1.4080
 43
1.0000
 50
180.0000
  0
INSERT
  8
17
  2
ROUNDP
 10
26.9400
 20
8.9220
 30
0.0000
 41
1.4080
 42
1.4080
 43
1.0000
 50
180.0000
  0
INSERT
  8
17
  2
ROUNDP
 10
29.4800
 20
11.4620
 30
0.0000
 41
1.4080
 42
1.4080
 43
1.0000
 50
180.0000
  0
INSERT
  8
17
  2
ROUNDP
 10
29.4800
 20
11.4620
 30
0.0000
 41
1.4080
 42
1.4080
 43
1.0000
 50
180.0000
  0
INSERT
  8
17
  2
ROUNDP
 10
26.9400
 20
11.4620
 30
0.0000
 41
1.4080
 42
1.4080
 43
1.0000
 50
180.0000
  0
INSERT
  8
17
  2
ROUNDP
 10
26.9400
 20
11.4620
 30
0.0000
 41
1.4080
 42
1.4080
 43
1.0000
 50
180.0000
  0
INSERT
  8
17
  2
ROUNDP
 10
29.4800
 20
14.0020
 30
0.0000
 41
1.4080
 42
1.4080
 43
1.0000
 50
180.0000
  0
INSERT
  8
17
  2
ROUNDP
 10
29.4800
 20
14.0020
 30
0.0000
 41
1.4080
 42
1.4080
 43
1.0000
 50
180.0000
  0
INSERT
  8
17
  2
ROUNDP
 10
26.9400
 20
14.0020
 30
0.0000
 41
1.4080
 42
1.4080
 43
1.0000
 50
180.0000
  0
INSERT
  8
17
  2
ROUNDP
 10
26.9400
 20
14.0020
 30
0.0000
 41
1.4080
 42
1.4080
 43
1.0000
 50
180.0000
  0
INSERT
  8
17
  2
ROUNDP
 10
29.4800
 20
16.5420
 30
0.0000
 41
1.4080
 42
1.4080
 43
1.0000
 50
180.0000
  0
INSERT
  8
17
  2
ROUNDP
 10
29.4800
 20
16.5420
 30
0.0000
 41
1.4080
 42
1.4080
 43
1.0000
 50
180.0000
  0
INSERT
  8
17
  2
ROUNDP
 10
26.9400
 20
16.5420
 30
0.0000
 41
1.4080
 42
1.4080
 43
1.0000
 50
180.0000
  0
INSERT
  8
17
  2
ROUNDP
 10
26.9400
 20
16.5420
 30
0.0000
 41
1.4080
 42
1.4080
 43
1.0000
 50
180.0000
  0
INSERT
  8
17
  2
ROUNDP
 10
29.4800
 20
19.0820
 30
0.0000
 41
1.4080
 42
1.4080
 43
1.0000
 50
180.0000
  0
INSERT
  8
17
  2
ROUNDP
 10
29.4800
 20
19.0820
 30
0.0000
 41
1.4080
 42
1.4080
 43
1.0000
 50
180.0000
  0
INSERT
  8
17
  2
ROUNDP
 10
26.9400
 20
19.0820
 30
0.0000
 41
1.4080
 42
1.4080
 43
1.0000
 50
180.0000
  0
INSERT
  8
17
  2
ROUNDP
 10
26.9400
 20
19.0820
 30
0.0000
 41
1.4080
 42
1.4080
 43
1.0000
 50
180.0000
  0
INSERT
  8
17
  2
ROUNDP
 10
29.4800
 20
21.6220
 30
0.0000
 41
1.4080
 42
1.4080
 43
1.0000
 50
180.0000
  0
INSERT
  8
17
  2
ROUNDP
 10
29.4800
 20
21.6220
 30
0.0000
 41
1.4080
 42
1.4080
 43
1.0000
 50
180.0000
  0
INSERT
  8
17
  2
ROUNDP
 10
26.9400
 20
21.6220
 30
0.0000
 41
1.4080
 42
1.4080
 43
1.0000
 50
180.0000
  0
INSERT
  8
17
  2
ROUNDP
 10
26.9400
 20
21.6220
 30
0.0000
 41
1.4080
 42
1.4080
 43
1.0000
 50
180.0000
  0
INSERT
  8
17
  2
ROUNDP
 10
29.4800
 20
24.1620
 30
0.0000
 41
1.4080
 42
1.4080
 43
1.0000
 50
180.0000
  0
INSERT
  8
17
  2
ROUNDP
 10
29.4800
 20
24.1620
 30
0.0000
 41
1.4080
 42
1.4080
 43
1.0000
 50
180.0000
  0
INSERT
  8
17
  2
ROUNDP
 10
26.9400
 20
24.1620
 30
0.0000
 41
1.4080
 42
1.4080
 43
1.0000
 50
180.0000
  0
INSERT
  8
17
  2
ROUNDP
 10
26.9400
 20
24.1620
 30
0.0000
 41
1.4080
 42
1.4080
 43
1.0000
 50
180.0000
  0
INSERT
  8
17
  2
ROUNDP
 10
29.4800
 20
26.7020
 30
0.0000
 41
1.4080
 42
1.4080
 43
1.0000
 50
180.0000
  0
INSERT
  8
17
  2
ROUNDP
 10
29.4800
 20
26.7020
 30
0.0000
 41
1.4080
 42
1.4080
 43
1.0000
 50
180.0000
  0
INSERT
  8
17
  2
ROUNDP
 10
26.9400
 20
26.7020
 30
0.0000
 41
1.4080
 42
1.4080
 43
1.0000
 50
180.0000
  0
INSERT
  8
17
  2
ROUNDP
 10
26.9400
 20
26.7020
 30
0.0000
 41
1.4080
 42
1.4080
 43
1.0000
 50
180.0000
  0
INSERT
  8
17
  2
ROUNDP
 10
29.4800
 20
29.2420
 30
0.0000
 41
1.4080
 42
1.4080
 43
1.0000
 50
180.0000
  0
INSERT
  8
17
  2
ROUNDP
 10
29.4800
 20
29.2420
 30
0.0000
 41
1.4080
 42
1.4080
 43
1.0000
 50
180.0000
  0
INSERT
  8
17
  2
ROUNDP
 10
26.9400
 20
29.2420
 30
0.0000
 41
1.4080
 42
1.4080
 43
1.0000
 50
180.0000
  0
INSERT
  8
17
  2
ROUNDP
 10
26.9400
 20
29.2420
 30
0.0000
 41
1.4080
 42
1.4080
 43
1.0000
 50
180.0000
  0
INSERT
  8
17
  2
ROUNDP
 10
29.4800
 20
31.7820
 30
0.0000
 41
1.4080
 42
1.4080
 43
1.0000
 50
180.0000
  0
INSERT
  8
17
  2
ROUNDP
 10
29.4800
 20
31.7820
 30
0.0000
 41
1.4080
 42
1.4080
 43
1.0000
 50
180.0000
  0
INSERT
  8
17
  2
ROUNDP
 10
26.9400
 20
31.7820
 30
0.0000
 41
1.4080
 42
1.4080
 43
1.0000
 50
180.0000
  0
INSERT
  8
17
  2
ROUNDP
 10
26.9400
 20
31.7820
 30
0.0000
 41
1.4080
 42
1.4080
 43
1.0000
 50
180.0000
  0
INSERT
  8
17
  2
ROUNDP
 10
29.4800
 20
34.3220
 30
0.0000
 41
1.4080
 42
1.4080
 43
1.0000
 50
180.0000
  0
INSERT
  8
17
  2
ROUNDP
 10
29.4800
 20
34.3220
 30
0.0000
 41
1.4080
 42
1.4080
 43
1.0000
 50
180.0000
  0
INSERT
  8
17
  2
ROUNDP
 10
26.9400
 20
34.3220
 30
0.0000
 41
1.4080
 42
1.4080
 43
1.0000
 50
180.0000
  0
INSERT
  8
17
  2
ROUNDP
 10
26.9400
 20
34.3220
 30
0.0000
 41
1.4080
 42
1.4080
 43
1.0000
 50
180.0000
  0
INSERT
  8
17
  2
ROUNDP
 10
29.4800
 20
36.8620
 30
0.0000
 41
1.4080
 42
1.4080
 43
1.0000
 50
180.0000
  0
INSERT
  8
17
  2
ROUNDP
 10
29.4800
 20
36.8620
 30
0.0000
 41
1.4080
 42
1.4080
 43
1.0000
 50
180.0000
  0
INSERT
  8
17
  2
ROUNDP
 10
26.9400
 20
36.8620
 30
0.0000
 41
1.4080
 42
1.4080
 43
1.0000
 50
180.0000
  0
INSERT
  8
17
  2
ROUNDP
 10
26.9400
 20
36.8620
 30
0.0000
 41
1.4080
 42
1.4080
 43
1.0000
 50
180.0000
  0
INSERT
  8
17
  2
ROUNDP
 10
29.4800
 20
39.4020
 30
0.0000
 41
1.4080
 42
1.4080
 43
1.0000
 50
180.0000
  0
INSERT
  8
17
  2
ROUNDP
 10
29.4800
 20
39.4020
 30
0.0000
 41
1.4080
 42
1.4080
 43
1.0000
 50
180.0000
  0
INSERT
  8
17
  2
ROUNDP
 10
26.9400
 20
39.4020
 30
0.0000
 41
1.4080
 42
1.4080
 43
1.0000
 50
180.0000
  0
INSERT
  8
17
  2
ROUNDP
 10
26.9400
 20
39.4020
 30
0.0000
 41
1.4080
 42
1.4080
 43
1.0000
 50
180.0000
  0
INSERT
  8
17
  2
ROUNDP
 10
29.4800
 20
41.9420
 30
0.0000
 41
1.4080
 42
1.4080
 43
1.0000
 50
180.0000
  0
INSERT
  8
17
  2
ROUNDP
 10
29.4800
 20
41.9420
 30
0.0000
 41
1.4080
 42
1.4080
 43
1.0000
 50
180.0000
  0
INSERT
  8
17
  2
ROUNDP
 10
26.9400
 20
41.9420
 30
0.0000
 41
1.4080
 42
1.4080
 43
1.0000
 50
180.0000
  0
INSERT
  8
17
  2
ROUNDP
 10
26.9400
 20
41.9420
 30
0.0000
 41
1.4080
 42
1.4080
 43
1.0000
 50
180.0000
  0
INSERT
  8
17
  2
ROUNDP
 10
29.4800
 20
44.4820
 30
0.0000
 41
1.4080
 42
1.4080
 43
1.0000
 50
180.0000
  0
INSERT
  8
17
  2
ROUNDP
 10
29.4800
 20
44.4820
 30
0.0000
 41
1.4080
 42
1.4080
 43
1.0000
 50
180.0000
  0
INSERT
  8
17
  2
ROUNDP
 10
26.9400
 20
44.4820
 30
0.0000
 41
1.4080
 42
1.4080
 43
1.0000
 50
180.0000
  0
INSERT
  8
17
  2
ROUNDP
 10
26.9400
 20
44.4820
 30
0.0000
 41
1.4080
 42
1.4080
 43
1.0000
 50
180.0000
  0
INSERT
  8
17
  2
ROUNDP
 10
29.4800
 20
47.0220
 30
0.0000
 41
1.4080
 42
1.4080
 43
1.0000
 50
180.0000
  0
INSERT
  8
17
  2
ROUNDP
 10
29.4800
 20
47.0220
 30
0.0000
 41
1.4080
 42
1.4080
 43
1.0000
 50
180.0000
  0
INSERT
  8
17
  2
ROUNDP
 10
26.9400
 20
47.0220
 30
0.0000
 41
1.4080
 42
1.4080
 43
1.0000
 50
180.0000
  0
INSERT
  8
17
  2
ROUNDP
 10
26.9400
 20
47.0220
 30
0.0000
 41
1.4080
 42
1.4080
 43
1.0000
 50
180.0000
  0
INSERT
  8
17
  2
ROUNDP
 10
29.4800
 20
49.5620
 30
0.0000
 41
1.4080
 42
1.4080
 43
1.0000
 50
180.0000
  0
INSERT
  8
17
  2
ROUNDP
 10
29.4800
 20
49.5620
 30
0.0000
 41
1.4080
 42
1.4080
 43
1.0000
 50
180.0000
  0
INSERT
  8
17
  2
ROUNDP
 10
26.9400
 20
49.5620
 30
0.0000
 41
1.4080
 42
1.4080
 43
1.0000
 50
180.0000
  0
INSERT
  8
17
  2
ROUNDP
 10
26.9400
 20
49.5620
 30
0.0000
 41
1.4080
 42
1.4080
 43
1.0000
 50
180.0000
  0
INSERT
  8
17
  2
ROUNDP
 10
29.4800
 20
52.1020
 30
0.0000
 41
1.4080
 42
1.4080
 43
1.0000
 50
180.0000
  0
INSERT
  8
17
  2
ROUNDP
 10
29.4800
 20
52.1020
 30
0.0000
 41
1.4080
 42
1.4080
 43
1.0000
 50
180.0000
  0
INSERT
  8
17
  2
ROUNDP
 10
26.9400
 20
52.1020
 30
0.0000
 41
1.4080
 42
1.4080
 43
1.0000
 50
180.0000
  0
INSERT
  8
17
  2
ROUNDP
 10
26.9400
 20
52.1020
 30
0.0000
 41
1.4080
 42
1.4080
 43
1.0000
 50
180.0000
  0
INSERT
  8
17
  2
ROUNDP
 10
2.0000
 20
14.0000
 30
0.0000
 41
1.3080
 42
1.3080
 43
1.0000
 50
0.0000
  0
INSERT
  8
17
  2
ROUNDP
 10
2.0000
 20
14.0000
 30
0.0000
 41
1.3080
 42
1.3080
 43
1.0000
 50
0.0000
  0
INSERT
  8
17
  2
SQUAREP
 10
71.1900
 20
61.8100
 30
0.0000
 41
1.7000
 42
1.7000
 43
1.0000
 50
0.0000
  0
INSERT
  8
17
  2
SQUAREP
 10
71.1900
 20
61.8100
 30
0.0000
 41
1.7000
 42
1.7000
 43
1.0000
 50
0.0000
  0
INSERT
  8
17
  2
SQUAREP
 10
71.1900
 20
59.2700
 30
0.0000
 41
1.7000
 42
1.7000
 43
1.0000
 50
180.0000
  0
INSERT
  8
17
  2
SQUAREP
 10
71.1900
 20
59.2700
 30
0.0000
 41
1.7000
 42
1.7000
 43
1.0000
 50
180.0000
  0
INSERT
  8
17
  2
SQUAREP
 10
71.1900
 20
56.7300
 30
0.0000
 41
1.7000
 42
1.7000
 43
1.0000
 50
0.0000
  0
INSERT
  8
17
  2
SQUAREP
 10
71.1900
 20
56.7300
 30
0.0000
 41
1.7000
 42
1.7000
 43
1.0000
 50
0.0000
  0
INSERT
  8
17
  2
SQUAREP
 10
71.1900
 20
54.1900
 30
0.0000
 41
1.7000
 42
1.7000
 43
1.0000
 50
0.0000
  0
INSERT
  8
17
  2
SQUAREP
 10
71.1900
 20
54.1900
 30
0.0000
 41
1.7000
 42
1.7000
 43
1.0000
 50
0.0000
  0
INSERT
  8
17
  2
SQUAREP
 10
78.8100
 20
54.1900
 30
0.0000
 41
1.7000
 42
1.7000
 43
1.0000
 50
0.0000
  0
INSERT
  8
17
  2
SQUAREP
 10
78.8100
 20
54.1900
 30
0.0000
 41
1.7000
 42
1.7000
 43
1.0000
 50
0.0000
  0
INSERT
  8
17
  2
SQUAREP
 10
78.8100
 20
56.7300
 30
0.0000
 41
1.7000
 42
1.7000
 43
1.0000
 50
0.0000
  0
INSERT
  8
17
  2
SQUAREP
 10
78.8100
 20
56.7300
 30
0.0000
 41
1.7000
 42
1.7000
 43
1.0000
 50
0.0000
  0
INSERT
  8
17
  2
SQUAREP
 10
78.8100
 20
59.2700
 30
0.0000
 41
1.7000
 42
1.7000
 43
1.0000
 50
0.0000
  0
INSERT
  8
17
  2
SQUAREP
 10
78.8100
 20
59.2700
 30
0.0000
 41
1.7000
 42
1.7000
 43
1.0000
 50
0.0000
  0
INSERT
  8
17
  2
SQUAREP
 10
78.8100
 20
61.8100
 30
0.0000
 41
1.7000
 42
1.7000
 43
1.0000
 50
0.0000
  0
INSERT
  8
17
  2
SQUAREP
 10
78.8100
 20
61.8100
 30
0.0000
 41
1.7000
 42
1.7000
 43
1.0000
 50
0.0000
  0
INSERT
  8
17
  2
SQUAREP
 10
19.3100
 20
8.6900
 30
0.0000
 41
1.7000
 42
1.7000
 43
1.0000
 50
180.0000
  0
INSERT
  8
17
  2
SQUAREP
 10
19.3100
 20
8.6900
 30
0.0000
 41
1.7000
 42
1.7000
 43
1.0000
 50
180.0000
  0
INSERT
  8
17
  2
SQUAREP
 10
19.3100
 20
11.2300
 30
0.0000
 41
1.7000
 42
1.7000
 43
1.0000
 50
0.0000
  0
INSERT
  8
17
  2
SQUAREP
 10
19.3100
 20
11.2300
 30
0.0000
 41
1.7000
 42
1.7000
 43
1.0000
 50
0.0000
  0
INSERT
  8
17
  2
SQUAREP
 10
19.3100
 20
13.7700
 30
0.0000
 41
1.7000
 42
1.7000
 43
1.0000
 50
180.0000
  0
INSERT
  8
17
  2
SQUAREP
 10
19.3100
 20
13.7700
 30
0.0000
 41
1.7000
 42
1.7000
 43
1.0000
 50
180.0000
  0
INSERT
  8
17
  2
SQUAREP
 10
19.3100
 20
16.3100
 30
0.0000
 41
1.7000
 42
1.7000
 43
1.0000
 50
180.0000
  0
INSERT
  8
17
  2
SQUAREP
 10
19.3100
 20
16.3100
 30
0.0000
 41
1.7000
 42
1.7000
 43
1.0000
 50
180.0000
  0
INSERT
  8
17
  2
SQUAREP
 10
11.6900
 20
16.3100
 30
0.0000
 41
1.7000
 42
1.7000
 43
1.0000
 50
180.0000
  0
INSERT
  8
17
  2
SQUAREP
 10
11.6900
 20
16.3100
 30
0.0000
 41
1.7000
 42
1.7000
 43
1.0000
 50
180.0000
  0
INSERT
  8
17
  2
SQUAREP
 10
11.6900
 20
13.7700
 30
0.0000
 41
1.7000
 42
1.7000
 43
1.0000
 50
180.0000
  0
INSERT
  8
17
  2
SQUAREP
 10
11.6900
 20
13.7700
 30
0.0000
 41
1.7000
 42
1.7000
 43
1.0000
 50
180.0000
  0
INSERT
  8
17
  2
SQUAREP
 10
11.6900
 20
11.2300
 30
0.0000
 41
1.7000
 42
1.7000
 43
1.0000
 50
180.0000
  0
INSERT
  8
17
  2
SQUAREP
 10
11.6900
 20
11.2300
 30
0.0000
 41
1.7000
 42
1.7000
 43
1.0000
 50
180.0000
  0
INSERT
  8
17
  2
SQUAREP
 10
11.6900
 20
8.6900
 30
0.0000
 41
1.7000
 42
1.7000
 43
1.0000
 50
180.0000
  0
INSERT
  8
17
  2
SQUAREP
 10
11.6900
 20
8.6900
 30
0.0000
 41
1.7000
 42
1.7000
 43
1.0000
 50
180.0000
  0
INSERT
  8
17
  2
ROUNDP
 10
2.0000
 20
11.0000
 30
0.0000
 41
1.3080
 42
1.3080
 43
1.0000
 50
0.0000
  0
INSERT
  8
17
  2
ROUNDP
 10
2.0000
 20
11.0000
 30
0.0000
 41
1.3080
 42
1.3080
 43
1.0000
 50
0.0000
  0
INSERT
  8
17
  2
ROUNDP
 10
71.4600
 20
50.2700
 30
0.0000
 41
1.2080
 42
1.2080
 43
1.0000
 50
0.0000
  0
INSERT
  8
17
  2
ROUNDP
 10
71.4600
 20
50.2700
 30
0.0000
 41
1.2080
 42
1.2080
 43
1.0000
 50
0.0000
  0
INSERT
  8
17
  2
ROUNDP
 10
74.0000
 20
50.2700
 30
0.0000
 41
1.2080
 42
1.2080
 43
1.0000
 50
0.0000
  0
INSERT
  8
17
  2
ROUNDP
 10
74.0000
 20
50.2700
 30
0.0000
 41
1.2080
 42
1.2080
 43
1.0000
 50
0.0000
  0
INSERT
  8
17
  2
ROUNDP
 10
76.5400
 20
50.2700
 30
0.0000
 41
1.2080
 42
1.2080
 43
1.0000
 50
0.0000
  0
INSERT
  8
17
  2
ROUNDP
 10
76.5400
 20
50.2700
 30
0.0000
 41
1.2080
 42
1.2080
 43
1.0000
 50
0.0000
  0
INSERT
  8
17
  2
ROUNDP
 10
2.0000
 20
8.0000
 30
0.0000
 41
1.3080
 42
1.3080
 43
1.0000
 50
0.0000
  0
INSERT
  8
17
  2
ROUNDP
 10
2.0000
 20
8.0000
 30
0.0000
 41
1.3080
 42
1.3080
 43
1.0000
 50
0.0000
  0
INSERT
  8
17
  2
ROUNDP
 10
3.0000
 20
38.0000
 30
0.0000
 41
1.3080
 42
1.3080
 43
1.0000
 50
0.0000
  0
INSERT
  8
17
  2
ROUNDP
 10
3.0000
 20
38.0000
 30
0.0000
 41
1.3080
 42
1.3080
 43
1.0000
 50
0.0000
  0
INSERT
  8
17
  2
ROUNDP
 10
94.0000
 20
61.0000
 30
0.0000
 41
1.3080
 42
1.3080
 43
1.0000
 50
0.0000
  0
INSERT
  8
17
  2
ROUNDP
 10
94.0000
 20
61.0000
 30
0.0000
 41
1.3080
 42
1.3080
 43
1.0000
 50
0.0000
  0
INSERT
  8
17
  2
ROUNDP
 10
90.0000
 20
61.0000
 30
0.0000
 41
1.3080
 42
1.3080
 43
1.0000
 50
0.0000
  0
INSERT
  8
17
  2
ROUNDP
 10
90.0000
 20
61.0000
 30
0.0000
 41
1.3080
 42
1.3080
 43
1.0000
 50
0.0000
  0
INSERT
  8
17
  2
ROUNDP
 10
85.0000
 20
61.0000
 30
0.0000
 41
1.3080
 42
1.3080
 43
1.0000
 50
0.0000
  0
INSERT
  8
17
  2
ROUNDP
 10
85.0000
 20
61.0000
 30
0.0000
 41
1.3080
 42
1.3080
 43
1.0000
 50
0.0000
  0
INSERT
  8
17
  2
ROUNDP
 10
3.0000
 20
44.0000
 30
0.0000
 41
1.3080
 42
1.3080
 43
1.0000
 50
0.0000
  0
INSERT
  8
17
  2
ROUNDP
 10
3.0000
 20
44.0000
 30
0.0000
 41
1.3080
 42
1.3080
 43
1.0000
 50
0.0000
  0
INSERT
  8
17
  2
ROUNDP
 10
3.0000
 20
48.0000
 30
0.0000
 41
1.3080
 42
1.3080
 43
1.0000
 50
0.0000
  0
INSERT
  8
17
  2
ROUNDP
 10
3.0000
 20
48.0000
 30
0.0000
 41
1.3080
 42
1.3080
 43
1.0000
 50
0.0000
  0
INSERT
  8
18
  2
ROUNDV
 10
3.0000
 20
12.5000
 30
0.0000
 41
0.7048
 42
0.7048
 43
1.0000
 50
0.0000
  0
INSERT
  8
18
  2
SQUAREV
 10
42.1640
 20
26.1620
 30
0.0000
 41
0.9048
 42
0.9048
 43
1.0000
 50
0.0000
  0
INSERT
  8
18
  2
ROUNDV
 10
23.3680
 20
2.2860
 30
0.0000
 41
0.7048
 42
0.7048
 43
1.0000
 50
0.0000
  0
INSERT
  8
18
  2
ROUNDV
 10
18.2880
 20
2.5400
 30
0.0000
 41
0.7048
 42
0.7048
 43
1.0000
 50
0.0000
  0
INSERT
  8
18
  2
ROUNDV
 10
88.9000
 20
33.0200
 30
0.0000
 41
0.7048
 42
0.7048
 43
1.0000
 50
0.0000
  0
INSERT
  8
18
  2
ROUNDV
 10
71.1200
 20
41.9100
 30
0.0000
 41
0.7048
 42
0.7048
 43
1.0000
 50
0.0000
  0
INSERT
  8
18
  2
ROUNDV
 10
87.3760
 20
42.9260
 30
0.0000
 41
0.7048
 42
0.7048
 43
1.0000
 50
0.0000
  0
INSERT
  8
18
  2
ROUNDV
 10
72.6440
 20
37.3380
 30
0.0000
 41
0.7048
 42
0.7048
 43
1.0000
 50
0.0000
  0
INSERT
  8
18
  2
ROUNDV
 10
46.7360
 20
36.5760
 30
0.0000
 41
0.8048
 42
0.8048
 43
1.0000
 50
0.0000
  0
INSERT
  8
18
  2
ROUNDV
 10
48.0060
 20
38.3540
 30
0.0000
 41
0.8048
 42
0.8048
 43
1.0000
 50
0.0000
  0
INSERT
  8
18
  2
ROUNDV
 10
16.7640
 20
4.5720
 30
0.0000
 41
0.7048
 42
0.7048
 43
1.0000
 50
0.0000
  0
ENDSEC
  0
EOF
