G75*
G70*
%OFA0B0*%
%FSLAX24Y24*%
%IPPOS*%
%LPD*%
%AMOC8*
5,1,8,0,0,1.08239X$1,22.5*
%
%ADD10C,0.0000*%
%ADD11R,0.0472X0.0197*%
%ADD12R,0.0394X0.0315*%
%ADD13R,0.0515X0.0515*%
%ADD14R,0.0315X0.0197*%
%ADD15R,0.0591X0.0197*%
%ADD16R,0.0197X0.0591*%
%ADD17C,0.0709*%
%ADD18C,0.0660*%
%ADD19R,0.0236X0.0866*%
%ADD20OC8,0.0515*%
%ADD21R,0.0315X0.0394*%
%ADD22R,0.0433X0.0591*%
%ADD23R,0.1024X0.0787*%
%ADD24R,0.0591X0.0433*%
%ADD25R,0.0472X0.0394*%
%ADD26R,0.0669X0.0709*%
%ADD27C,0.0079*%
%ADD28R,0.1266X0.1266*%
%ADD29OC8,0.0472*%
%ADD30R,0.0650X0.0650*%
%ADD31C,0.0160*%
%ADD32R,0.0472X0.0472*%
%ADD33C,0.0236*%
%ADD34C,0.0157*%
%ADD35OC8,0.0277*%
%ADD36C,0.0315*%
%ADD37C,0.0277*%
D10*
X000139Y000927D02*
X000139Y030454D01*
X012738Y030454D01*
X012738Y000927D01*
X000139Y000927D01*
X000690Y002108D02*
X000692Y002158D01*
X000698Y002208D01*
X000708Y002257D01*
X000722Y002305D01*
X000739Y002352D01*
X000760Y002397D01*
X000785Y002441D01*
X000813Y002482D01*
X000845Y002521D01*
X000879Y002558D01*
X000916Y002592D01*
X000956Y002622D01*
X000998Y002649D01*
X001042Y002673D01*
X001088Y002694D01*
X001135Y002710D01*
X001183Y002723D01*
X001233Y002732D01*
X001282Y002737D01*
X001333Y002738D01*
X001383Y002735D01*
X001432Y002728D01*
X001481Y002717D01*
X001529Y002702D01*
X001575Y002684D01*
X001620Y002662D01*
X001663Y002636D01*
X001704Y002607D01*
X001743Y002575D01*
X001779Y002540D01*
X001811Y002502D01*
X001841Y002462D01*
X001868Y002419D01*
X001891Y002375D01*
X001910Y002329D01*
X001926Y002281D01*
X001938Y002232D01*
X001946Y002183D01*
X001950Y002133D01*
X001950Y002083D01*
X001946Y002033D01*
X001938Y001984D01*
X001926Y001935D01*
X001910Y001887D01*
X001891Y001841D01*
X001868Y001797D01*
X001841Y001754D01*
X001811Y001714D01*
X001779Y001676D01*
X001743Y001641D01*
X001704Y001609D01*
X001663Y001580D01*
X001620Y001554D01*
X001575Y001532D01*
X001529Y001514D01*
X001481Y001499D01*
X001432Y001488D01*
X001383Y001481D01*
X001333Y001478D01*
X001282Y001479D01*
X001233Y001484D01*
X001183Y001493D01*
X001135Y001506D01*
X001088Y001522D01*
X001042Y001543D01*
X000998Y001567D01*
X000956Y001594D01*
X000916Y001624D01*
X000879Y001658D01*
X000845Y001695D01*
X000813Y001734D01*
X000785Y001775D01*
X000760Y001819D01*
X000739Y001864D01*
X000722Y001911D01*
X000708Y001959D01*
X000698Y002008D01*
X000692Y002058D01*
X000690Y002108D01*
X009017Y001517D02*
X009019Y001543D01*
X009025Y001569D01*
X009035Y001594D01*
X009048Y001617D01*
X009064Y001637D01*
X009084Y001655D01*
X009106Y001670D01*
X009129Y001682D01*
X009155Y001690D01*
X009181Y001694D01*
X009207Y001694D01*
X009233Y001690D01*
X009259Y001682D01*
X009283Y001670D01*
X009304Y001655D01*
X009324Y001637D01*
X009340Y001617D01*
X009353Y001594D01*
X009363Y001569D01*
X009369Y001543D01*
X009371Y001517D01*
X009369Y001491D01*
X009363Y001465D01*
X009353Y001440D01*
X009340Y001417D01*
X009324Y001397D01*
X009304Y001379D01*
X009282Y001364D01*
X009259Y001352D01*
X009233Y001344D01*
X009207Y001340D01*
X009181Y001340D01*
X009155Y001344D01*
X009129Y001352D01*
X009105Y001364D01*
X009084Y001379D01*
X009064Y001397D01*
X009048Y001417D01*
X009035Y001440D01*
X009025Y001465D01*
X009019Y001491D01*
X009017Y001517D01*
X009017Y004273D02*
X009019Y004299D01*
X009025Y004325D01*
X009035Y004350D01*
X009048Y004373D01*
X009064Y004393D01*
X009084Y004411D01*
X009106Y004426D01*
X009129Y004438D01*
X009155Y004446D01*
X009181Y004450D01*
X009207Y004450D01*
X009233Y004446D01*
X009259Y004438D01*
X009283Y004426D01*
X009304Y004411D01*
X009324Y004393D01*
X009340Y004373D01*
X009353Y004350D01*
X009363Y004325D01*
X009369Y004299D01*
X009371Y004273D01*
X009369Y004247D01*
X009363Y004221D01*
X009353Y004196D01*
X009340Y004173D01*
X009324Y004153D01*
X009304Y004135D01*
X009282Y004120D01*
X009259Y004108D01*
X009233Y004100D01*
X009207Y004096D01*
X009181Y004096D01*
X009155Y004100D01*
X009129Y004108D01*
X009105Y004120D01*
X009084Y004135D01*
X009064Y004153D01*
X009048Y004173D01*
X009035Y004196D01*
X009025Y004221D01*
X009019Y004247D01*
X009017Y004273D01*
X010927Y002108D02*
X010929Y002158D01*
X010935Y002208D01*
X010945Y002257D01*
X010959Y002305D01*
X010976Y002352D01*
X010997Y002397D01*
X011022Y002441D01*
X011050Y002482D01*
X011082Y002521D01*
X011116Y002558D01*
X011153Y002592D01*
X011193Y002622D01*
X011235Y002649D01*
X011279Y002673D01*
X011325Y002694D01*
X011372Y002710D01*
X011420Y002723D01*
X011470Y002732D01*
X011519Y002737D01*
X011570Y002738D01*
X011620Y002735D01*
X011669Y002728D01*
X011718Y002717D01*
X011766Y002702D01*
X011812Y002684D01*
X011857Y002662D01*
X011900Y002636D01*
X011941Y002607D01*
X011980Y002575D01*
X012016Y002540D01*
X012048Y002502D01*
X012078Y002462D01*
X012105Y002419D01*
X012128Y002375D01*
X012147Y002329D01*
X012163Y002281D01*
X012175Y002232D01*
X012183Y002183D01*
X012187Y002133D01*
X012187Y002083D01*
X012183Y002033D01*
X012175Y001984D01*
X012163Y001935D01*
X012147Y001887D01*
X012128Y001841D01*
X012105Y001797D01*
X012078Y001754D01*
X012048Y001714D01*
X012016Y001676D01*
X011980Y001641D01*
X011941Y001609D01*
X011900Y001580D01*
X011857Y001554D01*
X011812Y001532D01*
X011766Y001514D01*
X011718Y001499D01*
X011669Y001488D01*
X011620Y001481D01*
X011570Y001478D01*
X011519Y001479D01*
X011470Y001484D01*
X011420Y001493D01*
X011372Y001506D01*
X011325Y001522D01*
X011279Y001543D01*
X011235Y001567D01*
X011193Y001594D01*
X011153Y001624D01*
X011116Y001658D01*
X011082Y001695D01*
X011050Y001734D01*
X011022Y001775D01*
X010997Y001819D01*
X010976Y001864D01*
X010959Y001911D01*
X010945Y001959D01*
X010935Y002008D01*
X010929Y002058D01*
X010927Y002108D01*
X010927Y029273D02*
X010929Y029323D01*
X010935Y029373D01*
X010945Y029422D01*
X010959Y029470D01*
X010976Y029517D01*
X010997Y029562D01*
X011022Y029606D01*
X011050Y029647D01*
X011082Y029686D01*
X011116Y029723D01*
X011153Y029757D01*
X011193Y029787D01*
X011235Y029814D01*
X011279Y029838D01*
X011325Y029859D01*
X011372Y029875D01*
X011420Y029888D01*
X011470Y029897D01*
X011519Y029902D01*
X011570Y029903D01*
X011620Y029900D01*
X011669Y029893D01*
X011718Y029882D01*
X011766Y029867D01*
X011812Y029849D01*
X011857Y029827D01*
X011900Y029801D01*
X011941Y029772D01*
X011980Y029740D01*
X012016Y029705D01*
X012048Y029667D01*
X012078Y029627D01*
X012105Y029584D01*
X012128Y029540D01*
X012147Y029494D01*
X012163Y029446D01*
X012175Y029397D01*
X012183Y029348D01*
X012187Y029298D01*
X012187Y029248D01*
X012183Y029198D01*
X012175Y029149D01*
X012163Y029100D01*
X012147Y029052D01*
X012128Y029006D01*
X012105Y028962D01*
X012078Y028919D01*
X012048Y028879D01*
X012016Y028841D01*
X011980Y028806D01*
X011941Y028774D01*
X011900Y028745D01*
X011857Y028719D01*
X011812Y028697D01*
X011766Y028679D01*
X011718Y028664D01*
X011669Y028653D01*
X011620Y028646D01*
X011570Y028643D01*
X011519Y028644D01*
X011470Y028649D01*
X011420Y028658D01*
X011372Y028671D01*
X011325Y028687D01*
X011279Y028708D01*
X011235Y028732D01*
X011193Y028759D01*
X011153Y028789D01*
X011116Y028823D01*
X011082Y028860D01*
X011050Y028899D01*
X011022Y028940D01*
X010997Y028984D01*
X010976Y029029D01*
X010959Y029076D01*
X010945Y029124D01*
X010935Y029173D01*
X010929Y029223D01*
X010927Y029273D01*
X000690Y029273D02*
X000692Y029323D01*
X000698Y029373D01*
X000708Y029422D01*
X000722Y029470D01*
X000739Y029517D01*
X000760Y029562D01*
X000785Y029606D01*
X000813Y029647D01*
X000845Y029686D01*
X000879Y029723D01*
X000916Y029757D01*
X000956Y029787D01*
X000998Y029814D01*
X001042Y029838D01*
X001088Y029859D01*
X001135Y029875D01*
X001183Y029888D01*
X001233Y029897D01*
X001282Y029902D01*
X001333Y029903D01*
X001383Y029900D01*
X001432Y029893D01*
X001481Y029882D01*
X001529Y029867D01*
X001575Y029849D01*
X001620Y029827D01*
X001663Y029801D01*
X001704Y029772D01*
X001743Y029740D01*
X001779Y029705D01*
X001811Y029667D01*
X001841Y029627D01*
X001868Y029584D01*
X001891Y029540D01*
X001910Y029494D01*
X001926Y029446D01*
X001938Y029397D01*
X001946Y029348D01*
X001950Y029298D01*
X001950Y029248D01*
X001946Y029198D01*
X001938Y029149D01*
X001926Y029100D01*
X001910Y029052D01*
X001891Y029006D01*
X001868Y028962D01*
X001841Y028919D01*
X001811Y028879D01*
X001779Y028841D01*
X001743Y028806D01*
X001704Y028774D01*
X001663Y028745D01*
X001620Y028719D01*
X001575Y028697D01*
X001529Y028679D01*
X001481Y028664D01*
X001432Y028653D01*
X001383Y028646D01*
X001333Y028643D01*
X001282Y028644D01*
X001233Y028649D01*
X001183Y028658D01*
X001135Y028671D01*
X001088Y028687D01*
X001042Y028708D01*
X000998Y028732D01*
X000956Y028759D01*
X000916Y028789D01*
X000879Y028823D01*
X000845Y028860D01*
X000813Y028899D01*
X000785Y028940D01*
X000760Y028984D01*
X000739Y029029D01*
X000722Y029076D01*
X000708Y029124D01*
X000698Y029173D01*
X000692Y029223D01*
X000690Y029273D01*
D11*
X002139Y025543D03*
X002139Y025143D03*
X002139Y024743D03*
X002139Y024343D03*
X002139Y022787D03*
X002139Y022387D03*
X002139Y021987D03*
X002139Y021587D03*
X004439Y021587D03*
X004439Y021987D03*
X004439Y022387D03*
X004439Y022787D03*
X004439Y024343D03*
X004439Y024743D03*
X004439Y025143D03*
X004439Y025543D03*
X008438Y025543D03*
X008438Y025143D03*
X008438Y024743D03*
X008438Y024343D03*
X008438Y022787D03*
X008438Y022387D03*
X008438Y021987D03*
X008438Y021587D03*
X010738Y021587D03*
X010738Y021987D03*
X010738Y022387D03*
X010738Y022787D03*
X010738Y024343D03*
X010738Y024743D03*
X010738Y025143D03*
X010738Y025543D03*
D12*
X007817Y023840D03*
X007817Y023289D03*
X005061Y023289D03*
X005061Y023840D03*
X005454Y016675D03*
X005454Y016124D03*
X002698Y015986D03*
X002698Y015395D03*
X001222Y015395D03*
X001222Y015986D03*
X001419Y009076D03*
X001419Y008525D03*
X002895Y004057D03*
X002895Y003506D03*
X003880Y003506D03*
X003880Y004057D03*
X003584Y007147D03*
X003584Y007698D03*
X009883Y012757D03*
X009883Y013309D03*
X010376Y012836D03*
X010376Y012246D03*
X010966Y012246D03*
X010966Y012836D03*
X011557Y012836D03*
X011557Y012246D03*
X012147Y012246D03*
X012147Y012836D03*
X011655Y015395D03*
X011655Y015986D03*
X010179Y015986D03*
X010179Y015395D03*
D13*
X008439Y014813D03*
X008439Y013813D03*
X007439Y013813D03*
X007439Y014813D03*
X006439Y014813D03*
X006439Y013813D03*
X005439Y013813D03*
X005439Y014813D03*
X004439Y014813D03*
X004439Y013813D03*
X005439Y017265D03*
X006439Y017265D03*
X007439Y017265D03*
X000828Y010391D03*
X000828Y009391D03*
X000828Y008391D03*
D14*
X002836Y005336D03*
X002836Y004588D03*
X003939Y004588D03*
X003939Y004962D03*
X003939Y005336D03*
D15*
G36*
X003849Y010600D02*
X003433Y011016D01*
X003571Y011154D01*
X003987Y010738D01*
X003849Y010600D01*
G37*
G36*
X004072Y010822D02*
X003656Y011238D01*
X003794Y011376D01*
X004210Y010960D01*
X004072Y010822D01*
G37*
G36*
X004295Y011045D02*
X003879Y011461D01*
X004017Y011599D01*
X004433Y011183D01*
X004295Y011045D01*
G37*
G36*
X004518Y011268D02*
X004102Y011684D01*
X004240Y011822D01*
X004656Y011406D01*
X004518Y011268D01*
G37*
G36*
X004740Y011491D02*
X004324Y011907D01*
X004462Y012045D01*
X004878Y011629D01*
X004740Y011491D01*
G37*
G36*
X004963Y011713D02*
X004547Y012129D01*
X004685Y012267D01*
X005101Y011851D01*
X004963Y011713D01*
G37*
G36*
X005186Y011936D02*
X004770Y012352D01*
X004908Y012490D01*
X005324Y012074D01*
X005186Y011936D01*
G37*
G36*
X005408Y012159D02*
X004992Y012575D01*
X005130Y012713D01*
X005546Y012297D01*
X005408Y012159D01*
G37*
G36*
X005631Y012381D02*
X005215Y012797D01*
X005353Y012935D01*
X005769Y012519D01*
X005631Y012381D01*
G37*
G36*
X005854Y012604D02*
X005438Y013020D01*
X005576Y013158D01*
X005992Y012742D01*
X005854Y012604D01*
G37*
G36*
X006076Y012827D02*
X005660Y013243D01*
X005798Y013381D01*
X006214Y012965D01*
X006076Y012827D01*
G37*
G36*
X007970Y008261D02*
X007554Y008677D01*
X007692Y008815D01*
X008108Y008399D01*
X007970Y008261D01*
G37*
G36*
X008192Y008484D02*
X007776Y008900D01*
X007914Y009038D01*
X008330Y008622D01*
X008192Y008484D01*
G37*
G36*
X008415Y008707D02*
X007999Y009123D01*
X008137Y009261D01*
X008553Y008845D01*
X008415Y008707D01*
G37*
G36*
X008638Y008929D02*
X008222Y009345D01*
X008360Y009483D01*
X008776Y009067D01*
X008638Y008929D01*
G37*
G36*
X008860Y009152D02*
X008444Y009568D01*
X008582Y009706D01*
X008998Y009290D01*
X008860Y009152D01*
G37*
G36*
X009083Y009375D02*
X008667Y009791D01*
X008805Y009929D01*
X009221Y009513D01*
X009083Y009375D01*
G37*
G36*
X009306Y009597D02*
X008890Y010013D01*
X009028Y010151D01*
X009444Y009735D01*
X009306Y009597D01*
G37*
G36*
X007747Y008039D02*
X007331Y008455D01*
X007469Y008593D01*
X007885Y008177D01*
X007747Y008039D01*
G37*
G36*
X007524Y007816D02*
X007108Y008232D01*
X007246Y008370D01*
X007662Y007954D01*
X007524Y007816D01*
G37*
G36*
X007301Y007593D02*
X006885Y008009D01*
X007023Y008147D01*
X007439Y007731D01*
X007301Y007593D01*
G37*
G36*
X007079Y007370D02*
X006663Y007786D01*
X006801Y007924D01*
X007217Y007508D01*
X007079Y007370D01*
G37*
D16*
G36*
X005798Y007370D02*
X005660Y007508D01*
X006076Y007924D01*
X006214Y007786D01*
X005798Y007370D01*
G37*
G36*
X005576Y007593D02*
X005438Y007731D01*
X005854Y008147D01*
X005992Y008009D01*
X005576Y007593D01*
G37*
G36*
X005353Y007816D02*
X005215Y007954D01*
X005631Y008370D01*
X005769Y008232D01*
X005353Y007816D01*
G37*
G36*
X005130Y008039D02*
X004992Y008177D01*
X005408Y008593D01*
X005546Y008455D01*
X005130Y008039D01*
G37*
G36*
X004908Y008261D02*
X004770Y008399D01*
X005186Y008815D01*
X005324Y008677D01*
X004908Y008261D01*
G37*
G36*
X004685Y008484D02*
X004547Y008622D01*
X004963Y009038D01*
X005101Y008900D01*
X004685Y008484D01*
G37*
G36*
X004462Y008707D02*
X004324Y008845D01*
X004740Y009261D01*
X004878Y009123D01*
X004462Y008707D01*
G37*
G36*
X004240Y008929D02*
X004102Y009067D01*
X004518Y009483D01*
X004656Y009345D01*
X004240Y008929D01*
G37*
G36*
X004017Y009152D02*
X003879Y009290D01*
X004295Y009706D01*
X004433Y009568D01*
X004017Y009152D01*
G37*
G36*
X003794Y009375D02*
X003656Y009513D01*
X004072Y009929D01*
X004210Y009791D01*
X003794Y009375D01*
G37*
G36*
X003571Y009597D02*
X003433Y009735D01*
X003849Y010151D01*
X003987Y010013D01*
X003571Y009597D01*
G37*
G36*
X006801Y012827D02*
X006663Y012965D01*
X007079Y013381D01*
X007217Y013243D01*
X006801Y012827D01*
G37*
G36*
X007023Y012604D02*
X006885Y012742D01*
X007301Y013158D01*
X007439Y013020D01*
X007023Y012604D01*
G37*
G36*
X007246Y012381D02*
X007108Y012519D01*
X007524Y012935D01*
X007662Y012797D01*
X007246Y012381D01*
G37*
G36*
X007469Y012159D02*
X007331Y012297D01*
X007747Y012713D01*
X007885Y012575D01*
X007469Y012159D01*
G37*
G36*
X007692Y011936D02*
X007554Y012074D01*
X007970Y012490D01*
X008108Y012352D01*
X007692Y011936D01*
G37*
G36*
X007914Y011713D02*
X007776Y011851D01*
X008192Y012267D01*
X008330Y012129D01*
X007914Y011713D01*
G37*
G36*
X008137Y011491D02*
X007999Y011629D01*
X008415Y012045D01*
X008553Y011907D01*
X008137Y011491D01*
G37*
G36*
X008360Y011268D02*
X008222Y011406D01*
X008638Y011822D01*
X008776Y011684D01*
X008360Y011268D01*
G37*
G36*
X008582Y011045D02*
X008444Y011183D01*
X008860Y011599D01*
X008998Y011461D01*
X008582Y011045D01*
G37*
G36*
X008805Y010822D02*
X008667Y010960D01*
X009083Y011376D01*
X009221Y011238D01*
X008805Y010822D01*
G37*
G36*
X009028Y010600D02*
X008890Y010738D01*
X009306Y011154D01*
X009444Y011016D01*
X009028Y010600D01*
G37*
D17*
X010021Y005572D03*
X008368Y004982D03*
X008368Y003407D03*
X008368Y002226D03*
D18*
X010474Y008112D03*
X010474Y010671D03*
X012246Y010671D03*
X012246Y008112D03*
D19*
X006696Y005002D03*
X006196Y005002D03*
X005696Y005002D03*
X005196Y005002D03*
X005196Y002954D03*
X005696Y002954D03*
X006196Y002954D03*
X006696Y002954D03*
D20*
X010769Y005553D03*
X010769Y006340D03*
X011557Y006340D03*
X011557Y005553D03*
X012344Y005553D03*
X012344Y006340D03*
X011655Y020120D03*
X010179Y020120D03*
X002698Y020120D03*
X001222Y020120D03*
X001320Y006340D03*
X001320Y005553D03*
X000533Y005553D03*
X000533Y006340D03*
X002108Y006340D03*
X002108Y005553D03*
D21*
G36*
X007037Y005976D02*
X007259Y006198D01*
X007537Y005920D01*
X007315Y005698D01*
X007037Y005976D01*
G37*
G36*
X007427Y006366D02*
X007649Y006588D01*
X007927Y006310D01*
X007705Y006088D01*
X007427Y006366D01*
G37*
G36*
X009250Y007889D02*
X009028Y007667D01*
X008750Y007945D01*
X008972Y008167D01*
X009250Y007889D01*
G37*
G36*
X009168Y007131D02*
X008946Y007353D01*
X009224Y007631D01*
X009446Y007409D01*
X009168Y007131D01*
G37*
G36*
X009558Y006742D02*
X009336Y006964D01*
X009614Y007242D01*
X009836Y007020D01*
X009558Y006742D01*
G37*
G36*
X009639Y008279D02*
X009417Y008057D01*
X009139Y008335D01*
X009361Y008557D01*
X009639Y008279D01*
G37*
X009883Y010376D03*
X009332Y010376D03*
X008604Y017265D03*
X008053Y017265D03*
D22*
X004805Y017265D03*
X003978Y017265D03*
G36*
X002953Y014474D02*
X003259Y014168D01*
X002843Y013752D01*
X002537Y014058D01*
X002953Y014474D01*
G37*
G36*
X003538Y013889D02*
X003844Y013583D01*
X003428Y013167D01*
X003122Y013473D01*
X003538Y013889D01*
G37*
X003683Y006439D03*
X002856Y006439D03*
D23*
X005848Y022935D03*
X005848Y024194D03*
X007029Y024194D03*
X007029Y022935D03*
D24*
X006439Y019254D03*
X006439Y018427D03*
D25*
G36*
X008429Y007111D02*
X008096Y007444D01*
X008375Y007723D01*
X008708Y007390D01*
X008429Y007111D01*
G37*
G36*
X008596Y005942D02*
X008263Y006275D01*
X008542Y006554D01*
X008875Y006221D01*
X008596Y005942D01*
G37*
G36*
X009097Y006443D02*
X008764Y006776D01*
X009043Y007055D01*
X009376Y006722D01*
X009097Y006443D01*
G37*
G36*
X007928Y006610D02*
X007595Y006943D01*
X007874Y007222D01*
X008207Y006889D01*
X007928Y006610D01*
G37*
D26*
X007502Y016320D03*
X006399Y016320D03*
D27*
X005848Y016436D02*
X005848Y016881D01*
X005893Y016926D01*
X005893Y017604D01*
X005778Y017720D01*
X005141Y017720D01*
X005103Y017757D01*
X004507Y017757D01*
X004391Y017642D01*
X004286Y017748D01*
X004313Y017775D01*
X004313Y018134D01*
X004059Y018387D01*
X003700Y018387D01*
X003446Y018134D01*
X003446Y017775D01*
X003572Y017650D01*
X003565Y017642D01*
X003565Y016889D01*
X003680Y016773D01*
X004276Y016773D01*
X004391Y016889D01*
X004391Y017642D01*
X004391Y016889D01*
X004507Y016773D01*
X005061Y016773D01*
X005061Y016436D01*
X005176Y016320D01*
X005733Y016320D01*
X005848Y016436D01*
X005848Y016452D02*
X006970Y016452D01*
X006970Y016375D02*
X005787Y016375D01*
X005848Y016529D02*
X006970Y016529D01*
X006970Y016607D02*
X005848Y016607D01*
X005848Y016684D02*
X006970Y016684D01*
X006970Y016756D02*
X006970Y015885D01*
X007085Y015769D01*
X007918Y015769D01*
X008033Y015885D01*
X008033Y016756D01*
X007918Y016872D01*
X007838Y016872D01*
X008292Y016872D01*
X008407Y016987D01*
X008407Y017544D01*
X008292Y017659D01*
X007838Y017659D01*
X007778Y017720D01*
X007100Y017720D01*
X006984Y017604D01*
X006984Y016926D01*
X007062Y016848D01*
X006970Y016756D01*
X006975Y016761D02*
X005848Y016761D01*
X005848Y016838D02*
X007052Y016838D01*
X006995Y016916D02*
X005882Y016916D01*
X005893Y016993D02*
X006984Y016993D01*
X006984Y017070D02*
X005893Y017070D01*
X005893Y017147D02*
X006984Y017147D01*
X006984Y017224D02*
X005893Y017224D01*
X005893Y017302D02*
X006984Y017302D01*
X006984Y017379D02*
X005893Y017379D01*
X005893Y017456D02*
X006984Y017456D01*
X006984Y017533D02*
X005893Y017533D01*
X005887Y017611D02*
X006991Y017611D01*
X007068Y017688D02*
X005809Y017688D01*
X005061Y016761D02*
X003131Y016761D01*
X003131Y016684D02*
X005061Y016684D01*
X005061Y016607D02*
X003131Y016607D01*
X003131Y016529D02*
X005061Y016529D01*
X005061Y016452D02*
X003088Y016452D01*
X003131Y016495D02*
X002976Y016340D01*
X002977Y016340D01*
X003092Y016225D01*
X003092Y015747D01*
X003036Y015691D01*
X003092Y015634D01*
X003092Y015156D01*
X002977Y015041D01*
X002439Y015041D01*
X002088Y014691D01*
X002088Y013779D01*
X003218Y012649D01*
X003347Y012778D01*
X003625Y012778D01*
X003781Y012622D01*
X003788Y012629D01*
X003911Y012680D01*
X004045Y012680D01*
X004168Y012629D01*
X004262Y012534D01*
X004299Y012446D01*
X004313Y012435D01*
X004331Y012428D01*
X004357Y012402D01*
X004386Y012380D01*
X004395Y012363D01*
X004516Y012243D01*
X004544Y012243D01*
X005076Y011710D01*
X005076Y011547D01*
X004822Y011292D01*
X004599Y011070D01*
X004599Y011070D01*
X004408Y010879D01*
X004408Y010879D01*
X004154Y010624D01*
X003931Y010401D01*
X003768Y010401D01*
X003235Y010934D01*
X003235Y010962D01*
X002976Y011221D01*
X002756Y011221D01*
X002560Y011418D01*
X002560Y011696D01*
X002756Y011892D01*
X002785Y011892D01*
X001025Y013716D01*
X000988Y013753D01*
X000987Y013755D01*
X000986Y013757D01*
X000966Y013806D01*
X000946Y013854D01*
X000946Y013857D01*
X000946Y013859D01*
X000946Y013911D01*
X000946Y015041D01*
X000944Y015041D01*
X000828Y015156D01*
X000828Y015634D01*
X000885Y015691D01*
X000828Y015747D01*
X000828Y016225D01*
X000944Y016340D01*
X000944Y016340D01*
X000789Y016495D01*
X000789Y016854D01*
X001043Y017108D01*
X001401Y017108D01*
X001655Y016854D01*
X001655Y016495D01*
X001500Y016340D01*
X001500Y016340D01*
X001616Y016225D01*
X001616Y015747D01*
X001559Y015691D01*
X001616Y015634D01*
X001616Y015156D01*
X001500Y015041D01*
X001498Y015041D01*
X001498Y014020D01*
X001537Y013979D01*
X001537Y014860D01*
X001579Y014961D01*
X002170Y015551D01*
X002247Y015629D01*
X002336Y015666D01*
X002361Y015691D01*
X002305Y015747D01*
X002305Y016225D01*
X002420Y016340D01*
X002421Y016340D01*
X002265Y016495D01*
X002265Y016854D01*
X002519Y017108D01*
X002878Y017108D01*
X003131Y016854D01*
X003131Y016495D01*
X003011Y016375D02*
X005122Y016375D01*
X005100Y015267D02*
X004984Y015152D01*
X004984Y014744D01*
X004893Y014653D01*
X004893Y015152D01*
X004778Y015267D01*
X004100Y015267D01*
X003984Y015152D01*
X003984Y014474D01*
X004100Y014358D01*
X004667Y014358D01*
X004667Y014267D01*
X004100Y014267D01*
X003984Y014152D01*
X003984Y013723D01*
X003620Y014087D01*
X003457Y014087D01*
X002924Y013554D01*
X002924Y013391D01*
X003346Y012969D01*
X003509Y012969D01*
X003705Y013165D01*
X004571Y012298D01*
X004571Y012271D01*
X005104Y011738D01*
X005267Y011738D01*
X005490Y011960D01*
X005745Y012215D01*
X005936Y012406D01*
X006190Y012660D01*
X006190Y012660D01*
X006413Y012883D01*
X006413Y013046D01*
X006384Y013075D01*
X006459Y013150D01*
X006459Y013428D01*
X006263Y013625D01*
X005985Y013625D01*
X005909Y013549D01*
X005893Y013566D01*
X005893Y014152D01*
X005778Y014267D01*
X005287Y014267D01*
X005378Y014358D01*
X005778Y014358D01*
X005893Y014474D01*
X005893Y015152D01*
X005778Y015267D01*
X005100Y015267D01*
X005049Y015216D02*
X004828Y015216D01*
X004893Y015139D02*
X004984Y015139D01*
X004984Y015062D02*
X004893Y015062D01*
X004893Y014985D02*
X004984Y014985D01*
X004984Y014907D02*
X004893Y014907D01*
X004893Y014830D02*
X004984Y014830D01*
X004984Y014753D02*
X004893Y014753D01*
X004893Y014676D02*
X004916Y014676D01*
X004667Y014289D02*
X002088Y014289D01*
X002088Y014212D02*
X004045Y014212D01*
X003984Y014135D02*
X002088Y014135D01*
X002088Y014058D02*
X003428Y014058D01*
X003350Y013980D02*
X002088Y013980D01*
X002088Y013903D02*
X003273Y013903D01*
X003196Y013826D02*
X002088Y013826D01*
X002119Y013749D02*
X003119Y013749D01*
X003042Y013671D02*
X002196Y013671D01*
X002273Y013594D02*
X002964Y013594D01*
X002924Y013517D02*
X002351Y013517D01*
X002428Y013440D02*
X002924Y013440D01*
X002953Y013362D02*
X002505Y013362D01*
X002582Y013285D02*
X003030Y013285D01*
X003107Y013208D02*
X002660Y013208D01*
X002737Y013131D02*
X003184Y013131D01*
X003262Y013054D02*
X002814Y013054D01*
X002891Y012976D02*
X003339Y012976D01*
X003313Y012745D02*
X003123Y012745D01*
X003046Y012822D02*
X004048Y012822D01*
X003971Y012899D02*
X002969Y012899D01*
X003200Y012667D02*
X003236Y012667D01*
X003516Y012976D02*
X003894Y012976D01*
X003816Y013054D02*
X003593Y013054D01*
X003670Y013131D02*
X003739Y013131D01*
X003658Y012745D02*
X004125Y012745D01*
X004075Y012667D02*
X004203Y012667D01*
X004207Y012590D02*
X004280Y012590D01*
X004271Y012513D02*
X004357Y012513D01*
X004312Y012436D02*
X004434Y012436D01*
X004400Y012358D02*
X004511Y012358D01*
X004477Y012281D02*
X004571Y012281D01*
X004582Y012204D02*
X004638Y012204D01*
X004660Y012127D02*
X004715Y012127D01*
X004737Y012049D02*
X004793Y012049D01*
X004814Y011972D02*
X004870Y011972D01*
X004891Y011895D02*
X004947Y011895D01*
X004969Y011818D02*
X005024Y011818D01*
X005046Y011740D02*
X005102Y011740D01*
X005076Y011663D02*
X007313Y011663D01*
X007236Y011586D02*
X005076Y011586D01*
X005038Y011509D02*
X007159Y011509D01*
X007082Y011431D02*
X004961Y011431D01*
X004884Y011354D02*
X007004Y011354D01*
X006927Y011277D02*
X004807Y011277D01*
X004729Y011200D02*
X006850Y011200D01*
X006773Y011123D02*
X004652Y011123D01*
X004575Y011045D02*
X006695Y011045D01*
X006618Y010968D02*
X004498Y010968D01*
X004420Y010891D02*
X006541Y010891D01*
X006464Y010814D02*
X004343Y010814D01*
X004266Y010736D02*
X006386Y010736D01*
X006309Y010659D02*
X004189Y010659D01*
X004111Y010582D02*
X005810Y010582D01*
X005837Y010609D02*
X004754Y009527D01*
X004599Y009682D01*
X004408Y009873D01*
X004186Y010095D01*
X003931Y010350D01*
X003768Y010350D01*
X003282Y009864D01*
X002714Y009864D01*
X002285Y010293D01*
X002285Y011358D01*
X002345Y011418D01*
X002345Y011696D01*
X002148Y011892D01*
X001870Y011892D01*
X001674Y011696D01*
X001674Y011418D01*
X001734Y011358D01*
X001734Y010124D01*
X001776Y010023D01*
X001853Y009945D01*
X002328Y009470D01*
X002222Y009470D01*
X001283Y010409D01*
X001283Y010730D01*
X001167Y010846D01*
X000489Y010846D01*
X000374Y010730D01*
X000374Y010052D01*
X000489Y009937D01*
X000976Y009937D01*
X001952Y008961D01*
X002053Y008919D01*
X002427Y008919D01*
X001813Y008305D01*
X001813Y008764D01*
X001697Y008880D01*
X001141Y008880D01*
X001107Y008846D01*
X000489Y008846D01*
X000374Y008730D01*
X000374Y008052D01*
X000489Y007937D01*
X001167Y007937D01*
X001283Y008052D01*
X001283Y008171D01*
X001679Y008171D01*
X001677Y008169D01*
X001635Y008068D01*
X001635Y007681D01*
X001558Y007758D01*
X001280Y007758D01*
X001220Y007698D01*
X000872Y007698D01*
X000771Y007656D01*
X000693Y007579D01*
X000336Y007222D01*
X000336Y018525D01*
X012541Y018525D01*
X012541Y001124D01*
X000336Y001124D01*
X000336Y005107D01*
X000345Y005098D01*
X000721Y005098D01*
X000927Y005304D01*
X001132Y005098D01*
X001385Y005098D01*
X001656Y004827D01*
X001758Y004785D01*
X001832Y004785D01*
X001832Y003529D01*
X001874Y003428D01*
X001952Y003351D01*
X002641Y002662D01*
X002742Y002620D01*
X004033Y002620D01*
X004134Y002662D01*
X004212Y002739D01*
X004802Y003330D01*
X004844Y003431D01*
X004844Y003569D01*
X004978Y003702D01*
X006001Y003702D01*
X006103Y003744D01*
X006180Y003822D01*
X006430Y004072D01*
X006472Y004173D01*
X006472Y004396D01*
X006497Y004372D01*
X006896Y004372D01*
X007011Y004487D01*
X007011Y005220D01*
X007147Y005072D01*
X007147Y004748D01*
X007087Y004688D01*
X007087Y004410D01*
X007284Y004213D01*
X007562Y004213D01*
X007758Y004410D01*
X007758Y004688D01*
X007698Y004748D01*
X007698Y005173D01*
X007701Y005221D01*
X007698Y005227D01*
X007698Y005234D01*
X007680Y005279D01*
X007663Y005324D01*
X007659Y005329D01*
X007656Y005335D01*
X007622Y005369D01*
X006596Y006490D01*
X006593Y006496D01*
X006559Y006531D01*
X006526Y006567D01*
X006520Y006569D01*
X006516Y006574D01*
X006471Y006592D01*
X006427Y006613D01*
X006420Y006613D01*
X006415Y006616D01*
X006366Y006616D01*
X006317Y006618D01*
X006311Y006616D01*
X006061Y006616D01*
X005631Y007045D01*
X005631Y007066D01*
X005807Y006890D01*
X006085Y006890D01*
X006282Y007087D01*
X006282Y007365D01*
X006222Y007425D01*
X006222Y007514D01*
X006413Y007705D01*
X006413Y007868D01*
X006190Y008091D01*
X005936Y008345D01*
X005936Y008345D01*
X005745Y008536D01*
X005522Y008759D01*
X005267Y009013D01*
X005104Y009013D01*
X004571Y008481D01*
X004571Y008317D01*
X004726Y008162D01*
X004532Y007968D01*
X004490Y007866D01*
X004490Y006679D01*
X004532Y006578D01*
X004609Y006500D01*
X004921Y006189D01*
X004921Y005556D01*
X004881Y005516D01*
X004881Y004487D01*
X004997Y004372D01*
X005396Y004372D01*
X005511Y004487D01*
X005511Y005516D01*
X005472Y005556D01*
X005472Y006031D01*
X005692Y005811D01*
X005793Y005769D01*
X006049Y005769D01*
X006187Y005631D01*
X005997Y005631D01*
X005881Y005516D01*
X005881Y004487D01*
X005921Y004448D01*
X005921Y004342D01*
X005832Y004254D01*
X004809Y004254D01*
X004708Y004212D01*
X004412Y003916D01*
X004335Y003839D01*
X004293Y003737D01*
X004293Y003600D01*
X003864Y003171D01*
X002911Y003171D01*
X002383Y003698D01*
X002383Y004795D01*
X002461Y004827D01*
X002538Y004905D01*
X002675Y005041D01*
X003075Y005041D01*
X003191Y005156D01*
X003191Y005516D01*
X003112Y005595D01*
X003112Y005946D01*
X003154Y005946D01*
X003269Y006062D01*
X003269Y006815D01*
X003154Y006931D01*
X003131Y006931D01*
X003131Y007663D01*
X003191Y007722D01*
X003191Y007459D01*
X003306Y007344D01*
X003863Y007344D01*
X003978Y007459D01*
X003978Y007937D01*
X003961Y007954D01*
X004516Y008508D01*
X004544Y008508D01*
X005076Y009041D01*
X005076Y009069D01*
X005143Y009135D01*
X005178Y009135D01*
X005218Y009175D01*
X005632Y009175D01*
X005710Y009097D01*
X005849Y008958D01*
X007466Y008958D01*
X007578Y008846D01*
X007578Y008819D01*
X008111Y008286D01*
X008139Y008286D01*
X008153Y008272D01*
X008254Y008230D01*
X008965Y008230D01*
X009336Y007859D01*
X009499Y007859D01*
X009573Y007934D01*
X009608Y007899D01*
X009608Y007762D01*
X009650Y007660D01*
X010023Y007288D01*
X010124Y007246D01*
X010198Y007246D01*
X010198Y006848D01*
X010044Y006693D01*
X010002Y006592D01*
X010002Y006124D01*
X009912Y006124D01*
X009709Y006040D01*
X009554Y005885D01*
X009470Y005682D01*
X009470Y005463D01*
X009554Y005260D01*
X009709Y005105D01*
X009912Y005021D01*
X010131Y005021D01*
X010333Y005105D01*
X010454Y005226D01*
X010581Y005098D01*
X010957Y005098D01*
X011163Y005304D01*
X011369Y005098D01*
X011745Y005098D01*
X012011Y005365D01*
X012011Y005741D01*
X011806Y005946D01*
X012011Y006152D01*
X012011Y006528D01*
X011745Y006794D01*
X011369Y006794D01*
X011163Y006589D01*
X011045Y006707D01*
X011045Y007407D01*
X011298Y007660D01*
X011340Y007762D01*
X011340Y008363D01*
X011298Y008465D01*
X011221Y008542D01*
X010750Y009013D01*
X010750Y009280D01*
X010753Y009323D01*
X010750Y009335D01*
X010750Y009348D01*
X010733Y009387D01*
X010721Y009427D01*
X010713Y009437D01*
X010708Y009449D01*
X010678Y009479D01*
X010220Y010028D01*
X010216Y010040D01*
X010186Y010069D01*
X010159Y010102D01*
X010147Y010108D01*
X010138Y010117D01*
X010099Y010133D01*
X010061Y010153D01*
X010049Y010154D01*
X010037Y010159D01*
X009994Y010159D01*
X009952Y010163D01*
X009940Y010159D01*
X009687Y010159D01*
X009687Y010654D01*
X009571Y010769D01*
X009477Y010769D01*
X009642Y010934D01*
X009642Y010962D01*
X009666Y010986D01*
X010044Y010986D01*
X010027Y010969D01*
X009947Y010776D01*
X009947Y010566D01*
X010027Y010372D01*
X010176Y010224D01*
X010369Y010144D01*
X010579Y010144D01*
X010772Y010224D01*
X010921Y010372D01*
X011001Y010566D01*
X011001Y010776D01*
X010921Y010969D01*
X010904Y010986D01*
X011316Y010986D01*
X011418Y011028D01*
X012281Y011891D01*
X012426Y011891D01*
X012541Y012007D01*
X012541Y012485D01*
X012485Y012541D01*
X012541Y012597D01*
X012541Y013075D01*
X012483Y013133D01*
X012483Y013349D01*
X012286Y013546D01*
X012008Y013546D01*
X011852Y013390D01*
X011696Y013546D01*
X011418Y013546D01*
X011261Y013390D01*
X011105Y013546D01*
X010827Y013546D01*
X010631Y013349D01*
X010631Y013191D01*
X010097Y013191D01*
X010018Y013112D01*
X009605Y013112D01*
X009490Y012996D01*
X009490Y012718D01*
X008451Y012718D01*
X008349Y012676D01*
X008272Y012599D01*
X008139Y012465D01*
X008111Y012465D01*
X007578Y011933D01*
X007578Y011905D01*
X007506Y011832D01*
X007482Y011832D01*
X006301Y010651D01*
X005938Y010651D01*
X005837Y010609D01*
X005732Y010505D02*
X004034Y010505D01*
X003957Y010427D02*
X005655Y010427D01*
X005578Y010350D02*
X002285Y010350D01*
X002285Y010427D02*
X003742Y010427D01*
X003665Y010505D02*
X002285Y010505D01*
X002285Y010582D02*
X003588Y010582D01*
X003510Y010659D02*
X002285Y010659D01*
X002285Y010736D02*
X003433Y010736D01*
X003356Y010814D02*
X002285Y010814D01*
X002285Y010891D02*
X003279Y010891D01*
X003229Y010968D02*
X002285Y010968D01*
X002285Y011045D02*
X003152Y011045D01*
X003075Y011123D02*
X002285Y011123D01*
X002285Y011200D02*
X002998Y011200D01*
X002782Y011895D02*
X000336Y011895D01*
X000336Y011972D02*
X002708Y011972D01*
X002633Y012049D02*
X000336Y012049D01*
X000336Y012127D02*
X002559Y012127D01*
X002484Y012204D02*
X000336Y012204D01*
X000336Y012281D02*
X002410Y012281D01*
X002335Y012358D02*
X000336Y012358D01*
X000336Y012436D02*
X002261Y012436D01*
X002186Y012513D02*
X000336Y012513D01*
X000336Y012590D02*
X002112Y012590D01*
X002037Y012667D02*
X000336Y012667D01*
X000336Y012745D02*
X001963Y012745D01*
X001888Y012822D02*
X000336Y012822D01*
X000336Y012899D02*
X001814Y012899D01*
X001739Y012976D02*
X000336Y012976D01*
X000336Y013054D02*
X001664Y013054D01*
X001590Y013131D02*
X000336Y013131D01*
X000336Y013208D02*
X001515Y013208D01*
X001441Y013285D02*
X000336Y013285D01*
X000336Y013362D02*
X001366Y013362D01*
X001292Y013440D02*
X000336Y013440D01*
X000336Y013517D02*
X001217Y013517D01*
X001143Y013594D02*
X000336Y013594D01*
X000336Y013671D02*
X001068Y013671D01*
X000992Y013749D02*
X000336Y013749D01*
X000336Y013826D02*
X000958Y013826D01*
X000946Y013903D02*
X000336Y013903D01*
X000336Y013980D02*
X000946Y013980D01*
X000946Y014058D02*
X000336Y014058D01*
X000336Y014135D02*
X000946Y014135D01*
X000946Y014212D02*
X000336Y014212D01*
X000336Y014289D02*
X000946Y014289D01*
X000946Y014367D02*
X000336Y014367D01*
X000336Y014444D02*
X000946Y014444D01*
X000946Y014521D02*
X000336Y014521D01*
X000336Y014598D02*
X000946Y014598D01*
X000946Y014676D02*
X000336Y014676D01*
X000336Y014753D02*
X000946Y014753D01*
X000946Y014830D02*
X000336Y014830D01*
X000336Y014907D02*
X000946Y014907D01*
X000946Y014985D02*
X000336Y014985D01*
X000336Y015062D02*
X000923Y015062D01*
X000846Y015139D02*
X000336Y015139D01*
X000336Y015216D02*
X000828Y015216D01*
X000828Y015293D02*
X000336Y015293D01*
X000336Y015371D02*
X000828Y015371D01*
X000828Y015448D02*
X000336Y015448D01*
X000336Y015525D02*
X000828Y015525D01*
X000828Y015602D02*
X000336Y015602D01*
X000336Y015680D02*
X000874Y015680D01*
X000828Y015757D02*
X000336Y015757D01*
X000336Y015834D02*
X000828Y015834D01*
X000828Y015911D02*
X000336Y015911D01*
X000336Y015989D02*
X000828Y015989D01*
X000828Y016066D02*
X000336Y016066D01*
X000336Y016143D02*
X000828Y016143D01*
X000828Y016220D02*
X000336Y016220D01*
X000336Y016298D02*
X000901Y016298D01*
X000910Y016375D02*
X000336Y016375D01*
X000336Y016452D02*
X000832Y016452D01*
X000789Y016529D02*
X000336Y016529D01*
X000336Y016607D02*
X000789Y016607D01*
X000789Y016684D02*
X000336Y016684D01*
X000336Y016761D02*
X000789Y016761D01*
X000789Y016838D02*
X000336Y016838D01*
X000336Y016916D02*
X000850Y016916D01*
X000928Y016993D02*
X000336Y016993D01*
X000336Y017070D02*
X001005Y017070D01*
X001439Y017070D02*
X002481Y017070D01*
X002404Y016993D02*
X001517Y016993D01*
X001594Y016916D02*
X002327Y016916D01*
X002265Y016838D02*
X001655Y016838D01*
X001655Y016761D02*
X002265Y016761D01*
X002265Y016684D02*
X001655Y016684D01*
X001655Y016607D02*
X002265Y016607D01*
X002265Y016529D02*
X001655Y016529D01*
X001612Y016452D02*
X002309Y016452D01*
X002386Y016375D02*
X001535Y016375D01*
X001543Y016298D02*
X002377Y016298D01*
X002305Y016220D02*
X001616Y016220D01*
X001616Y016143D02*
X002305Y016143D01*
X002305Y016066D02*
X001616Y016066D01*
X001616Y015989D02*
X002305Y015989D01*
X002305Y015911D02*
X001616Y015911D01*
X001616Y015834D02*
X002305Y015834D01*
X002305Y015757D02*
X001616Y015757D01*
X001570Y015680D02*
X002350Y015680D01*
X002221Y015602D02*
X001616Y015602D01*
X001616Y015525D02*
X002143Y015525D01*
X002066Y015448D02*
X001616Y015448D01*
X001616Y015371D02*
X001989Y015371D01*
X001912Y015293D02*
X001616Y015293D01*
X001616Y015216D02*
X001834Y015216D01*
X001757Y015139D02*
X001598Y015139D01*
X001521Y015062D02*
X001680Y015062D01*
X001603Y014985D02*
X001498Y014985D01*
X001498Y014907D02*
X001557Y014907D01*
X001537Y014830D02*
X001498Y014830D01*
X001498Y014753D02*
X001537Y014753D01*
X001537Y014676D02*
X001498Y014676D01*
X001498Y014598D02*
X001537Y014598D01*
X001537Y014521D02*
X001498Y014521D01*
X001498Y014444D02*
X001537Y014444D01*
X001537Y014367D02*
X001498Y014367D01*
X001498Y014289D02*
X001537Y014289D01*
X001537Y014212D02*
X001498Y014212D01*
X001498Y014135D02*
X001537Y014135D01*
X001537Y014058D02*
X001498Y014058D01*
X001536Y013980D02*
X001537Y013980D01*
X002088Y014367D02*
X004091Y014367D01*
X004014Y014444D02*
X002088Y014444D01*
X002088Y014521D02*
X003984Y014521D01*
X003984Y014598D02*
X002088Y014598D01*
X002088Y014676D02*
X003984Y014676D01*
X003984Y014753D02*
X002150Y014753D01*
X002228Y014830D02*
X003984Y014830D01*
X003984Y014907D02*
X002305Y014907D01*
X002382Y014985D02*
X003984Y014985D01*
X003984Y015062D02*
X002998Y015062D01*
X003075Y015139D02*
X003984Y015139D01*
X004049Y015216D02*
X003092Y015216D01*
X003092Y015293D02*
X009411Y015293D01*
X009411Y015216D02*
X008828Y015216D01*
X008778Y015267D02*
X008100Y015267D01*
X007984Y015152D01*
X007984Y014474D01*
X008100Y014358D01*
X008778Y014358D01*
X008893Y014474D01*
X008893Y015152D01*
X008778Y015267D01*
X008893Y015139D02*
X009411Y015139D01*
X009411Y015062D02*
X008893Y015062D01*
X008893Y014985D02*
X009411Y014985D01*
X009411Y014919D02*
X008759Y014267D01*
X008100Y014267D01*
X007984Y014152D01*
X007984Y013620D01*
X007938Y013601D01*
X007893Y013556D01*
X007893Y014152D01*
X007778Y014267D01*
X007100Y014267D01*
X006984Y014152D01*
X006984Y013566D01*
X006464Y013046D01*
X006464Y012883D01*
X006687Y012660D01*
X006942Y012406D01*
X007133Y012215D01*
X007387Y011960D01*
X007550Y011960D01*
X008083Y012493D01*
X008083Y012521D01*
X008378Y012817D01*
X009171Y012817D01*
X009272Y012858D01*
X009351Y012937D01*
X009428Y013015D01*
X009470Y013116D01*
X009470Y013706D01*
X010335Y014571D01*
X010412Y014649D01*
X010454Y014750D01*
X010454Y015041D01*
X010457Y015041D01*
X010572Y015156D01*
X010572Y015634D01*
X010516Y015691D01*
X010572Y015747D01*
X010572Y015891D01*
X011225Y015239D01*
X011261Y015202D01*
X011261Y015156D01*
X011377Y015041D01*
X011934Y015041D01*
X012049Y015156D01*
X012049Y015634D01*
X011993Y015691D01*
X012049Y015747D01*
X012049Y016225D01*
X011934Y016340D01*
X011933Y016340D01*
X012088Y016495D01*
X012088Y016854D01*
X011835Y017108D01*
X011476Y017108D01*
X011222Y016854D01*
X011222Y016495D01*
X011377Y016340D01*
X011261Y016225D01*
X011261Y015982D01*
X010946Y016297D01*
X010946Y016887D01*
X010904Y016988D01*
X010827Y017066D01*
X010492Y017401D01*
X010391Y017443D01*
X009966Y017443D01*
X009865Y017401D01*
X009788Y017323D01*
X009531Y017066D01*
X009531Y017066D01*
X009453Y016988D01*
X009411Y016887D01*
X009411Y014919D01*
X009399Y014907D02*
X008893Y014907D01*
X008893Y014830D02*
X009322Y014830D01*
X009245Y014753D02*
X008893Y014753D01*
X008893Y014676D02*
X009168Y014676D01*
X009090Y014598D02*
X008893Y014598D01*
X008893Y014521D02*
X009013Y014521D01*
X008936Y014444D02*
X008863Y014444D01*
X008859Y014367D02*
X008786Y014367D01*
X008782Y014289D02*
X005309Y014289D01*
X005786Y014367D02*
X007091Y014367D01*
X007100Y014358D02*
X007778Y014358D01*
X007893Y014474D01*
X007893Y015152D01*
X007778Y015267D01*
X007100Y015267D01*
X006984Y015152D01*
X006984Y014474D01*
X007100Y014358D01*
X007014Y014444D02*
X005863Y014444D01*
X005893Y014521D02*
X006984Y014521D01*
X006984Y014598D02*
X005893Y014598D01*
X005893Y014676D02*
X006984Y014676D01*
X006984Y014753D02*
X005893Y014753D01*
X005893Y014830D02*
X006984Y014830D01*
X006984Y014907D02*
X005893Y014907D01*
X005893Y014985D02*
X006984Y014985D01*
X006984Y015062D02*
X005893Y015062D01*
X005893Y015139D02*
X006984Y015139D01*
X007049Y015216D02*
X005828Y015216D01*
X005832Y014212D02*
X007045Y014212D01*
X006984Y014135D02*
X005893Y014135D01*
X005893Y014058D02*
X006984Y014058D01*
X006984Y013980D02*
X005893Y013980D01*
X005893Y013903D02*
X006984Y013903D01*
X006984Y013826D02*
X005893Y013826D01*
X005893Y013749D02*
X006984Y013749D01*
X006984Y013671D02*
X005893Y013671D01*
X005893Y013594D02*
X005954Y013594D01*
X006293Y013594D02*
X006984Y013594D01*
X006935Y013517D02*
X006370Y013517D01*
X006447Y013440D02*
X006858Y013440D01*
X006781Y013362D02*
X006459Y013362D01*
X006459Y013285D02*
X006704Y013285D01*
X006626Y013208D02*
X006459Y013208D01*
X006440Y013131D02*
X006549Y013131D01*
X006472Y013054D02*
X006405Y013054D01*
X006413Y012976D02*
X006464Y012976D01*
X006464Y012899D02*
X006413Y012899D01*
X006351Y012822D02*
X006526Y012822D01*
X006603Y012745D02*
X006274Y012745D01*
X006197Y012667D02*
X006680Y012667D01*
X006687Y012660D02*
X006687Y012660D01*
X006757Y012590D02*
X006120Y012590D01*
X006042Y012513D02*
X006835Y012513D01*
X006912Y012436D02*
X005965Y012436D01*
X005936Y012406D02*
X005936Y012406D01*
X005888Y012358D02*
X006989Y012358D01*
X006942Y012406D02*
X006942Y012406D01*
X007066Y012281D02*
X005811Y012281D01*
X005745Y012215D02*
X005745Y012215D01*
X005734Y012204D02*
X007144Y012204D01*
X007133Y012215D02*
X007133Y012215D01*
X007221Y012127D02*
X005656Y012127D01*
X005579Y012049D02*
X007298Y012049D01*
X007375Y011972D02*
X005502Y011972D01*
X005425Y011895D02*
X007568Y011895D01*
X007562Y011972D02*
X007618Y011972D01*
X007639Y012049D02*
X007695Y012049D01*
X007716Y012127D02*
X007772Y012127D01*
X007794Y012204D02*
X007849Y012204D01*
X007871Y012281D02*
X007927Y012281D01*
X007948Y012358D02*
X008004Y012358D01*
X008025Y012436D02*
X008081Y012436D01*
X008083Y012513D02*
X008186Y012513D01*
X008152Y012590D02*
X008263Y012590D01*
X008229Y012667D02*
X008341Y012667D01*
X008306Y012745D02*
X009490Y012745D01*
X009490Y012822D02*
X009183Y012822D01*
X009312Y012899D02*
X009490Y012899D01*
X009490Y012976D02*
X009390Y012976D01*
X009351Y012937D02*
X009351Y012937D01*
X009444Y013054D02*
X009547Y013054D01*
X009470Y013131D02*
X010037Y013131D01*
X009590Y013826D02*
X012541Y013826D01*
X012541Y013903D02*
X009667Y013903D01*
X009744Y013980D02*
X012541Y013980D01*
X012541Y014058D02*
X009821Y014058D01*
X009899Y014135D02*
X012541Y014135D01*
X012541Y014212D02*
X009976Y014212D01*
X010053Y014289D02*
X012541Y014289D01*
X012541Y014367D02*
X010130Y014367D01*
X010208Y014444D02*
X012541Y014444D01*
X012541Y014521D02*
X010285Y014521D01*
X010362Y014598D02*
X012541Y014598D01*
X012541Y014676D02*
X010424Y014676D01*
X010454Y014753D02*
X012541Y014753D01*
X012541Y014830D02*
X010454Y014830D01*
X010454Y014907D02*
X012541Y014907D01*
X012541Y014985D02*
X010454Y014985D01*
X010478Y015062D02*
X011356Y015062D01*
X011279Y015139D02*
X010555Y015139D01*
X010572Y015216D02*
X011248Y015216D01*
X011170Y015293D02*
X010572Y015293D01*
X010572Y015371D02*
X011093Y015371D01*
X011016Y015448D02*
X010572Y015448D01*
X010572Y015525D02*
X010939Y015525D01*
X010861Y015602D02*
X010572Y015602D01*
X010527Y015680D02*
X010784Y015680D01*
X010707Y015757D02*
X010572Y015757D01*
X010572Y015834D02*
X010630Y015834D01*
X011023Y016220D02*
X011261Y016220D01*
X011261Y016143D02*
X011100Y016143D01*
X011177Y016066D02*
X011261Y016066D01*
X011255Y015989D02*
X011261Y015989D01*
X011334Y016298D02*
X010946Y016298D01*
X010946Y016375D02*
X011343Y016375D01*
X011377Y016340D02*
X011377Y016340D01*
X011265Y016452D02*
X010946Y016452D01*
X010946Y016529D02*
X011222Y016529D01*
X011222Y016607D02*
X010946Y016607D01*
X010946Y016684D02*
X011222Y016684D01*
X011222Y016761D02*
X010946Y016761D01*
X010946Y016838D02*
X011222Y016838D01*
X011283Y016916D02*
X010935Y016916D01*
X010900Y016993D02*
X011361Y016993D01*
X011438Y017070D02*
X010823Y017070D01*
X010746Y017147D02*
X012541Y017147D01*
X012541Y017070D02*
X011872Y017070D01*
X011950Y016993D02*
X012541Y016993D01*
X012541Y016916D02*
X012027Y016916D01*
X012088Y016838D02*
X012541Y016838D01*
X012541Y016761D02*
X012088Y016761D01*
X012088Y016684D02*
X012541Y016684D01*
X012541Y016607D02*
X012088Y016607D01*
X012088Y016529D02*
X012541Y016529D01*
X012541Y016452D02*
X012045Y016452D01*
X011968Y016375D02*
X012541Y016375D01*
X012541Y016298D02*
X011976Y016298D01*
X012049Y016220D02*
X012541Y016220D01*
X012541Y016143D02*
X012049Y016143D01*
X012049Y016066D02*
X012541Y016066D01*
X012541Y015989D02*
X012049Y015989D01*
X012049Y015911D02*
X012541Y015911D01*
X012541Y015834D02*
X012049Y015834D01*
X012049Y015757D02*
X012541Y015757D01*
X012541Y015680D02*
X012003Y015680D01*
X012049Y015602D02*
X012541Y015602D01*
X012541Y015525D02*
X012049Y015525D01*
X012049Y015448D02*
X012541Y015448D01*
X012541Y015371D02*
X012049Y015371D01*
X012049Y015293D02*
X012541Y015293D01*
X012541Y015216D02*
X012049Y015216D01*
X012032Y015139D02*
X012541Y015139D01*
X012541Y015062D02*
X011954Y015062D01*
X012541Y013749D02*
X009512Y013749D01*
X009470Y013671D02*
X012541Y013671D01*
X012541Y013594D02*
X009470Y013594D01*
X009470Y013517D02*
X010798Y013517D01*
X010721Y013440D02*
X009470Y013440D01*
X009470Y013362D02*
X010644Y013362D01*
X010631Y013285D02*
X009470Y013285D01*
X009470Y013208D02*
X010631Y013208D01*
X011134Y013517D02*
X011389Y013517D01*
X011312Y013440D02*
X011211Y013440D01*
X011725Y013517D02*
X011979Y013517D01*
X011902Y013440D02*
X011802Y013440D01*
X012315Y013517D02*
X012541Y013517D01*
X012541Y013440D02*
X012392Y013440D01*
X012470Y013362D02*
X012541Y013362D01*
X012541Y013285D02*
X012483Y013285D01*
X012483Y013208D02*
X012541Y013208D01*
X012541Y013131D02*
X012485Y013131D01*
X012541Y013054D02*
X012541Y013054D01*
X012541Y012976D02*
X012541Y012976D01*
X012541Y012899D02*
X012541Y012899D01*
X012541Y012822D02*
X012541Y012822D01*
X012541Y012745D02*
X012541Y012745D01*
X012541Y012667D02*
X012541Y012667D01*
X012534Y012590D02*
X012541Y012590D01*
X012541Y012513D02*
X012513Y012513D01*
X012541Y012436D02*
X012541Y012436D01*
X012541Y012358D02*
X012541Y012358D01*
X012541Y012281D02*
X012541Y012281D01*
X012541Y012204D02*
X012541Y012204D01*
X012541Y012127D02*
X012541Y012127D01*
X012541Y012049D02*
X012541Y012049D01*
X012541Y011972D02*
X012506Y011972D01*
X012541Y011895D02*
X012429Y011895D01*
X012541Y011818D02*
X012207Y011818D01*
X012130Y011740D02*
X012541Y011740D01*
X012541Y011663D02*
X012053Y011663D01*
X011976Y011586D02*
X012541Y011586D01*
X012541Y011509D02*
X011898Y011509D01*
X011821Y011431D02*
X012541Y011431D01*
X012541Y011354D02*
X011744Y011354D01*
X011667Y011277D02*
X012541Y011277D01*
X012541Y011200D02*
X011589Y011200D01*
X011512Y011123D02*
X012541Y011123D01*
X012541Y011045D02*
X011435Y011045D01*
X010985Y010814D02*
X012541Y010814D01*
X012541Y010891D02*
X010953Y010891D01*
X010921Y010968D02*
X012541Y010968D01*
X012541Y010736D02*
X011001Y010736D01*
X011001Y010659D02*
X012541Y010659D01*
X012541Y010582D02*
X011001Y010582D01*
X010975Y010505D02*
X012541Y010505D01*
X012541Y010427D02*
X010943Y010427D01*
X010898Y010350D02*
X012541Y010350D01*
X012541Y010273D02*
X010821Y010273D01*
X010703Y010196D02*
X012541Y010196D01*
X012541Y010118D02*
X010135Y010118D01*
X010214Y010041D02*
X012541Y010041D01*
X012541Y009964D02*
X010274Y009964D01*
X010338Y009887D02*
X012541Y009887D01*
X012541Y009809D02*
X010402Y009809D01*
X010467Y009732D02*
X012541Y009732D01*
X012541Y009655D02*
X010531Y009655D01*
X010595Y009578D02*
X012541Y009578D01*
X012541Y009500D02*
X010660Y009500D01*
X010722Y009423D02*
X012541Y009423D01*
X012541Y009346D02*
X010750Y009346D01*
X010750Y009269D02*
X012541Y009269D01*
X012541Y009191D02*
X010750Y009191D01*
X010750Y009114D02*
X012541Y009114D01*
X012541Y009037D02*
X010750Y009037D01*
X010803Y008960D02*
X012541Y008960D01*
X012541Y008883D02*
X010880Y008883D01*
X010958Y008805D02*
X012541Y008805D01*
X012541Y008728D02*
X011035Y008728D01*
X011112Y008651D02*
X012541Y008651D01*
X012541Y008574D02*
X011189Y008574D01*
X011221Y008542D02*
X011221Y008542D01*
X011267Y008496D02*
X012541Y008496D01*
X012541Y008419D02*
X011317Y008419D01*
X011340Y008342D02*
X012541Y008342D01*
X012541Y008265D02*
X011340Y008265D01*
X011340Y008187D02*
X012541Y008187D01*
X012541Y008110D02*
X011340Y008110D01*
X011340Y008033D02*
X012541Y008033D01*
X012541Y007956D02*
X011340Y007956D01*
X011340Y007878D02*
X012541Y007878D01*
X012541Y007801D02*
X011340Y007801D01*
X011325Y007724D02*
X012541Y007724D01*
X012541Y007647D02*
X011284Y007647D01*
X011207Y007569D02*
X012541Y007569D01*
X012541Y007492D02*
X011130Y007492D01*
X011053Y007415D02*
X012541Y007415D01*
X012541Y007338D02*
X011045Y007338D01*
X011045Y007260D02*
X012541Y007260D01*
X012541Y007183D02*
X011045Y007183D01*
X011045Y007106D02*
X012541Y007106D01*
X012541Y007029D02*
X011045Y007029D01*
X011045Y006952D02*
X012541Y006952D01*
X012541Y006874D02*
X011045Y006874D01*
X011045Y006797D02*
X012541Y006797D01*
X012541Y006720D02*
X011820Y006720D01*
X011897Y006643D02*
X012541Y006643D01*
X012541Y006565D02*
X011974Y006565D01*
X012011Y006488D02*
X012541Y006488D01*
X012541Y006411D02*
X012011Y006411D01*
X012011Y006334D02*
X012541Y006334D01*
X012541Y006256D02*
X012011Y006256D01*
X012011Y006179D02*
X012541Y006179D01*
X012541Y006102D02*
X011961Y006102D01*
X011884Y006025D02*
X012541Y006025D01*
X012541Y005947D02*
X011806Y005947D01*
X011882Y005870D02*
X012541Y005870D01*
X012541Y005793D02*
X011959Y005793D01*
X012011Y005716D02*
X012541Y005716D01*
X012541Y005638D02*
X012011Y005638D01*
X012011Y005561D02*
X012541Y005561D01*
X012541Y005484D02*
X012011Y005484D01*
X012011Y005407D02*
X012541Y005407D01*
X012541Y005329D02*
X011976Y005329D01*
X011899Y005252D02*
X012541Y005252D01*
X012541Y005175D02*
X011821Y005175D01*
X011292Y005175D02*
X011034Y005175D01*
X011111Y005252D02*
X011215Y005252D01*
X011163Y005946D02*
X010474Y005946D01*
X010505Y005175D02*
X010403Y005175D01*
X010316Y005098D02*
X012541Y005098D01*
X012541Y005021D02*
X008919Y005021D01*
X008919Y005092D02*
X008835Y005294D01*
X008680Y005449D01*
X008477Y005533D01*
X008258Y005533D01*
X008055Y005449D01*
X007900Y005294D01*
X007817Y005092D01*
X007817Y004872D01*
X007900Y004670D01*
X008055Y004515D01*
X008258Y004431D01*
X008477Y004431D01*
X008680Y004515D01*
X008835Y004670D01*
X008919Y004872D01*
X008919Y005092D01*
X008916Y005098D02*
X009727Y005098D01*
X009639Y005175D02*
X008884Y005175D01*
X008852Y005252D02*
X009562Y005252D01*
X009525Y005329D02*
X008800Y005329D01*
X008722Y005407D02*
X009493Y005407D01*
X009470Y005484D02*
X008596Y005484D01*
X008516Y005745D02*
X008679Y005745D01*
X009072Y006138D01*
X009072Y006301D01*
X008623Y006751D01*
X008460Y006751D01*
X008232Y006523D01*
X008023Y006523D01*
X007828Y006718D01*
X007805Y006748D01*
X007790Y006757D01*
X007778Y006769D01*
X007778Y006769D01*
X007600Y006946D01*
X007600Y007013D01*
X007873Y007286D01*
X007903Y007359D01*
X008349Y006914D01*
X008512Y006914D01*
X008725Y007127D01*
X008902Y007119D01*
X009087Y006934D01*
X009250Y006934D01*
X009644Y007328D01*
X009644Y007491D01*
X009306Y007829D01*
X009143Y007829D01*
X008981Y007667D01*
X008696Y007680D01*
X008456Y007920D01*
X008393Y007920D01*
X008083Y008230D01*
X008083Y008258D01*
X007550Y008791D01*
X007387Y008791D01*
X007133Y008536D01*
X006942Y008345D01*
X006942Y008345D01*
X006719Y008123D01*
X006464Y007868D01*
X006464Y007705D01*
X006655Y007514D01*
X006655Y007425D01*
X006595Y007365D01*
X006595Y007087D01*
X006792Y006890D01*
X007049Y006890D01*
X007049Y006777D01*
X007091Y006676D01*
X007168Y006599D01*
X007274Y006493D01*
X007229Y006448D01*
X007229Y006284D01*
X007623Y005891D01*
X007786Y005891D01*
X007867Y005972D01*
X008288Y005972D01*
X008516Y005745D01*
X008467Y005793D02*
X007234Y005793D01*
X007164Y005870D02*
X008390Y005870D01*
X008313Y005947D02*
X007843Y005947D01*
X007566Y005947D02*
X007093Y005947D01*
X007022Y006025D02*
X007489Y006025D01*
X007412Y006102D02*
X006952Y006102D01*
X006881Y006179D02*
X007335Y006179D01*
X007257Y006256D02*
X006810Y006256D01*
X006739Y006334D02*
X007229Y006334D01*
X007229Y006411D02*
X006669Y006411D01*
X006598Y006488D02*
X007270Y006488D01*
X007202Y006565D02*
X006527Y006565D01*
X006731Y006952D02*
X006147Y006952D01*
X006224Y007029D02*
X006653Y007029D01*
X006595Y007106D02*
X006282Y007106D01*
X006282Y007183D02*
X006595Y007183D01*
X006595Y007260D02*
X006282Y007260D01*
X006282Y007338D02*
X006595Y007338D01*
X006645Y007415D02*
X006232Y007415D01*
X006222Y007492D02*
X006655Y007492D01*
X006600Y007569D02*
X006277Y007569D01*
X006354Y007647D02*
X006523Y007647D01*
X006464Y007724D02*
X006413Y007724D01*
X006413Y007801D02*
X006464Y007801D01*
X006475Y007878D02*
X006402Y007878D01*
X006325Y007956D02*
X006552Y007956D01*
X006629Y008033D02*
X006248Y008033D01*
X006171Y008110D02*
X006706Y008110D01*
X006784Y008187D02*
X006093Y008187D01*
X006016Y008265D02*
X006861Y008265D01*
X006938Y008342D02*
X005939Y008342D01*
X005862Y008419D02*
X007015Y008419D01*
X007093Y008496D02*
X005785Y008496D01*
X005745Y008536D02*
X005745Y008536D01*
X005707Y008574D02*
X007170Y008574D01*
X007133Y008536D02*
X007133Y008536D01*
X007247Y008651D02*
X005630Y008651D01*
X005553Y008728D02*
X007324Y008728D01*
X007542Y008883D02*
X005398Y008883D01*
X005321Y008960D02*
X005847Y008960D01*
X005770Y009037D02*
X005072Y009037D01*
X005051Y008960D02*
X004995Y008960D01*
X004973Y008883D02*
X004918Y008883D01*
X004896Y008805D02*
X004840Y008805D01*
X004819Y008728D02*
X004763Y008728D01*
X004742Y008651D02*
X004686Y008651D01*
X004664Y008574D02*
X004609Y008574D01*
X004587Y008496D02*
X004504Y008496D01*
X004571Y008419D02*
X004426Y008419D01*
X004349Y008342D02*
X004571Y008342D01*
X004624Y008265D02*
X004272Y008265D01*
X004195Y008187D02*
X004702Y008187D01*
X004674Y008110D02*
X004117Y008110D01*
X004040Y008033D02*
X004597Y008033D01*
X004527Y007956D02*
X003963Y007956D01*
X003978Y007878D02*
X004495Y007878D01*
X004490Y007801D02*
X003978Y007801D01*
X003978Y007724D02*
X004490Y007724D01*
X004490Y007647D02*
X003978Y007647D01*
X003978Y007569D02*
X004490Y007569D01*
X004490Y007492D02*
X003978Y007492D01*
X003934Y007415D02*
X004490Y007415D01*
X004490Y007338D02*
X003131Y007338D01*
X003131Y007415D02*
X003235Y007415D01*
X003191Y007492D02*
X003131Y007492D01*
X003131Y007569D02*
X003191Y007569D01*
X003191Y007647D02*
X003131Y007647D01*
X003131Y007260D02*
X004490Y007260D01*
X004490Y007183D02*
X003131Y007183D01*
X003131Y007106D02*
X004490Y007106D01*
X004490Y007029D02*
X003131Y007029D01*
X003131Y006952D02*
X004490Y006952D01*
X004490Y006874D02*
X003210Y006874D01*
X003269Y006797D02*
X004490Y006797D01*
X004490Y006720D02*
X003269Y006720D01*
X003269Y006643D02*
X004505Y006643D01*
X004544Y006565D02*
X003269Y006565D01*
X003269Y006488D02*
X004621Y006488D01*
X004699Y006411D02*
X003269Y006411D01*
X003269Y006334D02*
X004776Y006334D01*
X004853Y006256D02*
X003269Y006256D01*
X003269Y006179D02*
X003736Y006179D01*
X003741Y006184D02*
X003544Y005987D01*
X003544Y005709D01*
X003661Y005592D01*
X003584Y005516D01*
X003584Y005156D01*
X003700Y005041D01*
X004096Y005041D01*
X004096Y004883D01*
X003700Y004883D01*
X003584Y004768D01*
X003584Y004408D01*
X003591Y004401D01*
X003486Y004296D01*
X003486Y003818D01*
X003601Y003702D01*
X004158Y003702D01*
X004273Y003818D01*
X004273Y004296D01*
X004256Y004313D01*
X004426Y004313D01*
X004528Y004355D01*
X004605Y004432D01*
X004647Y004533D01*
X004647Y005391D01*
X004605Y005492D01*
X004528Y005570D01*
X004426Y005612D01*
X004214Y005612D01*
X004214Y005708D01*
X004215Y005709D01*
X004215Y005987D01*
X004019Y006184D01*
X003741Y006184D01*
X003659Y006102D02*
X003269Y006102D01*
X003232Y006025D02*
X003582Y006025D01*
X003544Y005947D02*
X003155Y005947D01*
X003112Y005870D02*
X003544Y005870D01*
X003544Y005793D02*
X003112Y005793D01*
X003112Y005716D02*
X003544Y005716D01*
X003615Y005638D02*
X003112Y005638D01*
X003146Y005561D02*
X003629Y005561D01*
X003584Y005484D02*
X003191Y005484D01*
X003191Y005407D02*
X003584Y005407D01*
X003584Y005329D02*
X003191Y005329D01*
X003191Y005252D02*
X003584Y005252D01*
X003584Y005175D02*
X003191Y005175D01*
X003132Y005098D02*
X003643Y005098D01*
X003682Y004866D02*
X003093Y004866D01*
X003075Y004883D02*
X003191Y004768D01*
X003191Y004408D01*
X003184Y004401D01*
X003289Y004296D01*
X003289Y003818D01*
X003174Y003702D01*
X002617Y003702D01*
X002502Y003818D01*
X002502Y004296D01*
X002548Y004342D01*
X002482Y004408D01*
X002482Y004768D01*
X002597Y004883D01*
X003075Y004883D01*
X003170Y004789D02*
X003605Y004789D01*
X003584Y004712D02*
X003191Y004712D01*
X003191Y004634D02*
X003584Y004634D01*
X003584Y004557D02*
X003191Y004557D01*
X003191Y004480D02*
X003584Y004480D01*
X003590Y004403D02*
X003185Y004403D01*
X003259Y004325D02*
X003515Y004325D01*
X003486Y004248D02*
X003289Y004248D01*
X003289Y004171D02*
X003486Y004171D01*
X003486Y004094D02*
X003289Y004094D01*
X003289Y004016D02*
X003486Y004016D01*
X003486Y003939D02*
X003289Y003939D01*
X003289Y003862D02*
X003486Y003862D01*
X003519Y003785D02*
X003256Y003785D01*
X003179Y003707D02*
X003596Y003707D01*
X003937Y003244D02*
X002838Y003244D01*
X002761Y003321D02*
X004014Y003321D01*
X004091Y003398D02*
X002683Y003398D01*
X002606Y003476D02*
X004169Y003476D01*
X004246Y003553D02*
X002529Y003553D01*
X002452Y003630D02*
X004293Y003630D01*
X004293Y003707D02*
X004163Y003707D01*
X004240Y003785D02*
X004312Y003785D01*
X004273Y003862D02*
X004358Y003862D01*
X004435Y003939D02*
X004273Y003939D01*
X004273Y004016D02*
X004512Y004016D01*
X004590Y004094D02*
X004273Y004094D01*
X004273Y004171D02*
X004667Y004171D01*
X004796Y004248D02*
X004273Y004248D01*
X004457Y004325D02*
X005904Y004325D01*
X005921Y004403D02*
X005427Y004403D01*
X005504Y004480D02*
X005889Y004480D01*
X005881Y004557D02*
X005511Y004557D01*
X005511Y004634D02*
X005881Y004634D01*
X005881Y004712D02*
X005511Y004712D01*
X005511Y004789D02*
X005881Y004789D01*
X005881Y004866D02*
X005511Y004866D01*
X005511Y004943D02*
X005881Y004943D01*
X005881Y005021D02*
X005511Y005021D01*
X005511Y005098D02*
X005881Y005098D01*
X005881Y005175D02*
X005511Y005175D01*
X005511Y005252D02*
X005881Y005252D01*
X005881Y005329D02*
X005511Y005329D01*
X005511Y005407D02*
X005881Y005407D01*
X005881Y005484D02*
X005511Y005484D01*
X005472Y005561D02*
X005927Y005561D01*
X006102Y005716D02*
X005472Y005716D01*
X005472Y005793D02*
X005736Y005793D01*
X005633Y005870D02*
X005472Y005870D01*
X005472Y005947D02*
X005556Y005947D01*
X005479Y006025D02*
X005472Y006025D01*
X005472Y005638D02*
X006180Y005638D01*
X006034Y006643D02*
X007124Y006643D01*
X007168Y006599D02*
X007168Y006599D01*
X007073Y006720D02*
X005957Y006720D01*
X005879Y006797D02*
X007049Y006797D01*
X007049Y006874D02*
X005802Y006874D01*
X005746Y006952D02*
X005725Y006952D01*
X005669Y007029D02*
X005648Y007029D01*
X004921Y006179D02*
X004023Y006179D01*
X004100Y006102D02*
X004921Y006102D01*
X004921Y006025D02*
X004178Y006025D01*
X004215Y005947D02*
X004921Y005947D01*
X004921Y005870D02*
X004215Y005870D01*
X004215Y005793D02*
X004921Y005793D01*
X004921Y005716D02*
X004215Y005716D01*
X004214Y005638D02*
X004921Y005638D01*
X004921Y005561D02*
X004536Y005561D01*
X004609Y005484D02*
X004881Y005484D01*
X004881Y005407D02*
X004641Y005407D01*
X004647Y005329D02*
X004881Y005329D01*
X004881Y005252D02*
X004647Y005252D01*
X004647Y005175D02*
X004881Y005175D01*
X004881Y005098D02*
X004647Y005098D01*
X004647Y005021D02*
X004881Y005021D01*
X004881Y004943D02*
X004647Y004943D01*
X004647Y004866D02*
X004881Y004866D01*
X004881Y004789D02*
X004647Y004789D01*
X004647Y004712D02*
X004881Y004712D01*
X004881Y004634D02*
X004647Y004634D01*
X004647Y004557D02*
X004881Y004557D01*
X004889Y004480D02*
X004625Y004480D01*
X004576Y004403D02*
X004966Y004403D01*
X004906Y003630D02*
X007864Y003630D01*
X007896Y003707D02*
X006013Y003707D01*
X005997Y003584D02*
X005946Y003534D01*
X005896Y003584D01*
X005497Y003584D01*
X005446Y003534D01*
X005396Y003584D01*
X004997Y003584D01*
X004881Y003469D01*
X004881Y002440D01*
X004926Y002396D01*
X004943Y002356D01*
X004963Y002308D01*
X004965Y002306D01*
X004966Y002303D01*
X005004Y002267D01*
X005040Y002231D01*
X005043Y002229D01*
X006009Y001301D01*
X006046Y001264D01*
X006049Y001263D01*
X006051Y001261D01*
X006099Y001242D01*
X006148Y001222D01*
X006150Y001222D01*
X006153Y001221D01*
X006205Y001222D01*
X007224Y001222D01*
X007284Y001162D01*
X007562Y001162D01*
X007758Y001359D01*
X007758Y001576D01*
X008049Y001576D01*
X008150Y001618D01*
X008221Y001690D01*
X008258Y001675D01*
X008477Y001675D01*
X008680Y001759D01*
X008835Y001914D01*
X008919Y002116D01*
X008919Y002336D01*
X008835Y002538D01*
X008680Y002693D01*
X008477Y002777D01*
X008258Y002777D01*
X008064Y002697D01*
X008229Y002868D01*
X008258Y002856D01*
X008477Y002856D01*
X008680Y002940D01*
X008835Y003095D01*
X008919Y003297D01*
X008919Y003517D01*
X008835Y003719D01*
X008680Y003874D01*
X008477Y003958D01*
X008258Y003958D01*
X008055Y003874D01*
X007900Y003719D01*
X007817Y003517D01*
X007817Y003297D01*
X007835Y003253D01*
X007089Y002482D01*
X007011Y002482D01*
X007011Y003469D01*
X006896Y003584D01*
X006497Y003584D01*
X006446Y003534D01*
X006396Y003584D01*
X005997Y003584D01*
X005966Y003553D02*
X005927Y003553D01*
X006143Y003785D02*
X007966Y003785D01*
X008043Y003862D02*
X006220Y003862D01*
X006297Y003939D02*
X008212Y003939D01*
X008139Y004480D02*
X007758Y004480D01*
X007758Y004557D02*
X008013Y004557D01*
X007936Y004634D02*
X007758Y004634D01*
X007735Y004712D02*
X007883Y004712D01*
X007851Y004789D02*
X007698Y004789D01*
X007698Y004866D02*
X007819Y004866D01*
X007817Y004943D02*
X007698Y004943D01*
X007698Y005021D02*
X007817Y005021D01*
X007819Y005098D02*
X007698Y005098D01*
X007699Y005175D02*
X007851Y005175D01*
X007883Y005252D02*
X007691Y005252D01*
X007659Y005329D02*
X007936Y005329D01*
X008013Y005407D02*
X007588Y005407D01*
X007517Y005484D02*
X008140Y005484D01*
X008596Y004480D02*
X008875Y004480D01*
X008877Y004485D02*
X008820Y004348D01*
X008820Y004199D01*
X008877Y004061D01*
X008983Y003956D01*
X009120Y003899D01*
X009269Y003899D01*
X009406Y003956D01*
X009512Y004061D01*
X009569Y004199D01*
X009569Y004348D01*
X009512Y004485D01*
X009406Y004590D01*
X009269Y004647D01*
X009120Y004647D01*
X008983Y004590D01*
X008877Y004485D01*
X008843Y004403D02*
X007751Y004403D01*
X007674Y004325D02*
X008820Y004325D01*
X008820Y004248D02*
X007597Y004248D01*
X007249Y004248D02*
X006472Y004248D01*
X006471Y004171D02*
X008832Y004171D01*
X008864Y004094D02*
X006439Y004094D01*
X006375Y004016D02*
X008922Y004016D01*
X009024Y003939D02*
X008524Y003939D01*
X008692Y003862D02*
X012541Y003862D01*
X012541Y003939D02*
X009365Y003939D01*
X009467Y004016D02*
X012541Y004016D01*
X012541Y004094D02*
X009525Y004094D01*
X009557Y004171D02*
X012541Y004171D01*
X012541Y004248D02*
X009569Y004248D01*
X009569Y004325D02*
X012541Y004325D01*
X012541Y004403D02*
X009546Y004403D01*
X009514Y004480D02*
X012541Y004480D01*
X012541Y004557D02*
X009440Y004557D01*
X009300Y004634D02*
X012541Y004634D01*
X012541Y004712D02*
X008852Y004712D01*
X008884Y004789D02*
X012541Y004789D01*
X012541Y004866D02*
X008916Y004866D01*
X008919Y004943D02*
X012541Y004943D01*
X012541Y003785D02*
X008770Y003785D01*
X008840Y003707D02*
X012541Y003707D01*
X012541Y003630D02*
X008872Y003630D01*
X008904Y003553D02*
X012541Y003553D01*
X012541Y003476D02*
X008919Y003476D01*
X008919Y003398D02*
X012541Y003398D01*
X012541Y003321D02*
X008919Y003321D01*
X008897Y003244D02*
X012541Y003244D01*
X012541Y003167D02*
X008865Y003167D01*
X008830Y003090D02*
X012541Y003090D01*
X012541Y003012D02*
X008752Y003012D01*
X008668Y002935D02*
X012541Y002935D01*
X012541Y002858D02*
X011907Y002858D01*
X012025Y002809D02*
X011721Y002935D01*
X011392Y002935D01*
X011088Y002809D01*
X010856Y002576D01*
X010730Y002272D01*
X010730Y001943D01*
X010856Y001640D01*
X011088Y001407D01*
X011392Y001281D01*
X011721Y001281D01*
X012025Y001407D01*
X012258Y001640D01*
X012383Y001943D01*
X012383Y002272D01*
X012258Y002576D01*
X012025Y002809D01*
X012053Y002781D02*
X012541Y002781D01*
X012541Y002703D02*
X012130Y002703D01*
X012208Y002626D02*
X012541Y002626D01*
X012541Y002549D02*
X012269Y002549D01*
X012301Y002472D02*
X012541Y002472D01*
X012541Y002394D02*
X012333Y002394D01*
X012365Y002317D02*
X012541Y002317D01*
X012541Y002240D02*
X012383Y002240D01*
X012383Y002163D02*
X012541Y002163D01*
X012541Y002085D02*
X012383Y002085D01*
X012383Y002008D02*
X012541Y002008D01*
X012541Y001931D02*
X012378Y001931D01*
X012346Y001854D02*
X012541Y001854D01*
X012541Y001776D02*
X012314Y001776D01*
X012282Y001699D02*
X012541Y001699D01*
X012541Y001622D02*
X012240Y001622D01*
X012163Y001545D02*
X012541Y001545D01*
X012541Y001467D02*
X012086Y001467D01*
X011985Y001390D02*
X012541Y001390D01*
X012541Y001313D02*
X011798Y001313D01*
X011315Y001313D02*
X009515Y001313D01*
X009512Y001305D02*
X009569Y001443D01*
X009569Y001592D01*
X009512Y001729D01*
X009406Y001834D01*
X009269Y001891D01*
X009120Y001891D01*
X008983Y001834D01*
X008877Y001729D01*
X008820Y001592D01*
X008820Y001443D01*
X008877Y001305D01*
X008983Y001200D01*
X009120Y001143D01*
X009269Y001143D01*
X009406Y001200D01*
X009512Y001305D01*
X009547Y001390D02*
X011129Y001390D01*
X011028Y001467D02*
X009569Y001467D01*
X009569Y001545D02*
X010951Y001545D01*
X010873Y001622D02*
X009556Y001622D01*
X009524Y001699D02*
X010831Y001699D01*
X010799Y001776D02*
X009464Y001776D01*
X009360Y001854D02*
X010767Y001854D01*
X010735Y001931D02*
X008842Y001931D01*
X008874Y002008D02*
X010730Y002008D01*
X010730Y002085D02*
X008906Y002085D01*
X008919Y002163D02*
X010730Y002163D01*
X010730Y002240D02*
X008919Y002240D01*
X008919Y002317D02*
X010748Y002317D01*
X010780Y002394D02*
X008895Y002394D01*
X008863Y002472D02*
X010812Y002472D01*
X010844Y002549D02*
X008824Y002549D01*
X008747Y002626D02*
X010906Y002626D01*
X010983Y002703D02*
X008656Y002703D01*
X008482Y002858D02*
X011207Y002858D01*
X011060Y002781D02*
X008145Y002781D01*
X008080Y002703D02*
X008070Y002703D01*
X008220Y002858D02*
X008254Y002858D01*
X007827Y003244D02*
X007011Y003244D01*
X007011Y003321D02*
X007817Y003321D01*
X007817Y003398D02*
X007011Y003398D01*
X007005Y003476D02*
X007817Y003476D01*
X007832Y003553D02*
X006927Y003553D01*
X007011Y003167D02*
X007752Y003167D01*
X007677Y003090D02*
X007011Y003090D01*
X007011Y003012D02*
X007602Y003012D01*
X007528Y002935D02*
X007011Y002935D01*
X007011Y002858D02*
X007453Y002858D01*
X007378Y002781D02*
X007011Y002781D01*
X007011Y002703D02*
X007304Y002703D01*
X007229Y002626D02*
X007011Y002626D01*
X007011Y002549D02*
X007154Y002549D01*
X007713Y001313D02*
X008874Y001313D01*
X008842Y001390D02*
X007758Y001390D01*
X007758Y001467D02*
X008820Y001467D01*
X008820Y001545D02*
X007758Y001545D01*
X007636Y001236D02*
X008947Y001236D01*
X009083Y001158D02*
X000336Y001158D01*
X000336Y001236D02*
X006115Y001236D01*
X005997Y001313D02*
X001562Y001313D01*
X001485Y001281D02*
X001789Y001407D01*
X002021Y001640D01*
X002147Y001943D01*
X002147Y002272D01*
X002021Y002576D01*
X001789Y002809D01*
X001485Y002935D01*
X001156Y002935D01*
X000852Y002809D01*
X000620Y002576D01*
X000494Y002272D01*
X000494Y001943D01*
X000620Y001640D01*
X000852Y001407D01*
X001156Y001281D01*
X001485Y001281D01*
X001748Y001390D02*
X005916Y001390D01*
X005836Y001467D02*
X001849Y001467D01*
X001927Y001545D02*
X005756Y001545D01*
X005675Y001622D02*
X002004Y001622D01*
X002046Y001699D02*
X005595Y001699D01*
X005514Y001776D02*
X002078Y001776D01*
X002110Y001854D02*
X005434Y001854D01*
X005354Y001931D02*
X002142Y001931D01*
X002147Y002008D02*
X005273Y002008D01*
X005193Y002085D02*
X002147Y002085D01*
X002147Y002163D02*
X005113Y002163D01*
X005031Y002240D02*
X002147Y002240D01*
X002129Y002317D02*
X004959Y002317D01*
X004926Y002394D02*
X002097Y002394D01*
X002065Y002472D02*
X004881Y002472D01*
X004881Y002549D02*
X002033Y002549D01*
X001972Y002626D02*
X002727Y002626D01*
X002599Y002703D02*
X001894Y002703D01*
X001817Y002781D02*
X002522Y002781D01*
X002445Y002858D02*
X001670Y002858D01*
X001904Y003398D02*
X000336Y003398D01*
X000336Y003321D02*
X001981Y003321D01*
X002058Y003244D02*
X000336Y003244D01*
X000336Y003167D02*
X002136Y003167D01*
X002213Y003090D02*
X000336Y003090D01*
X000336Y003012D02*
X002290Y003012D01*
X002367Y002935D02*
X000336Y002935D01*
X000336Y002858D02*
X000970Y002858D01*
X000824Y002781D02*
X000336Y002781D01*
X000336Y002703D02*
X000747Y002703D01*
X000669Y002626D02*
X000336Y002626D01*
X000336Y002549D02*
X000608Y002549D01*
X000576Y002472D02*
X000336Y002472D01*
X000336Y002394D02*
X000544Y002394D01*
X000512Y002317D02*
X000336Y002317D01*
X000336Y002240D02*
X000494Y002240D01*
X000494Y002163D02*
X000336Y002163D01*
X000336Y002085D02*
X000494Y002085D01*
X000494Y002008D02*
X000336Y002008D01*
X000336Y001931D02*
X000499Y001931D01*
X000531Y001854D02*
X000336Y001854D01*
X000336Y001776D02*
X000563Y001776D01*
X000595Y001699D02*
X000336Y001699D01*
X000336Y001622D02*
X000637Y001622D01*
X000714Y001545D02*
X000336Y001545D01*
X000336Y001467D02*
X000792Y001467D01*
X000893Y001390D02*
X000336Y001390D01*
X000336Y001313D02*
X001079Y001313D01*
X000336Y003476D02*
X001855Y003476D01*
X001832Y003553D02*
X000336Y003553D01*
X000336Y003630D02*
X001832Y003630D01*
X001832Y003707D02*
X000336Y003707D01*
X000336Y003785D02*
X001832Y003785D01*
X001832Y003862D02*
X000336Y003862D01*
X000336Y003939D02*
X001832Y003939D01*
X001832Y004016D02*
X000336Y004016D01*
X000336Y004094D02*
X001832Y004094D01*
X001832Y004171D02*
X000336Y004171D01*
X000336Y004248D02*
X001832Y004248D01*
X001832Y004325D02*
X000336Y004325D01*
X000336Y004403D02*
X001832Y004403D01*
X001832Y004480D02*
X000336Y004480D01*
X000336Y004557D02*
X001832Y004557D01*
X001832Y004634D02*
X000336Y004634D01*
X000336Y004712D02*
X001832Y004712D01*
X001749Y004789D02*
X000336Y004789D01*
X000336Y004866D02*
X001617Y004866D01*
X001540Y004943D02*
X000336Y004943D01*
X000336Y005021D02*
X001463Y005021D01*
X001386Y005098D02*
X000336Y005098D01*
X000798Y005175D02*
X001056Y005175D01*
X000978Y005252D02*
X000875Y005252D01*
X000927Y006589D02*
X000809Y006707D01*
X000809Y006915D01*
X001041Y007147D01*
X001220Y007147D01*
X001280Y007087D01*
X001558Y007087D01*
X001665Y007194D01*
X001772Y007087D01*
X002050Y007087D01*
X002157Y007194D01*
X002264Y007087D01*
X002542Y007087D01*
X002580Y007125D01*
X002580Y006931D01*
X002558Y006931D01*
X002443Y006815D01*
X002443Y006062D01*
X002558Y005946D01*
X002561Y005946D01*
X002561Y005612D01*
X002525Y005612D01*
X002424Y005570D01*
X002191Y005336D01*
X001927Y005336D01*
X001775Y005488D01*
X001775Y005741D01*
X001569Y005946D01*
X001775Y006152D01*
X001775Y006528D01*
X001509Y006794D01*
X001132Y006794D01*
X000927Y006589D01*
X000980Y006643D02*
X000873Y006643D01*
X000809Y006720D02*
X001058Y006720D01*
X000809Y006797D02*
X002443Y006797D01*
X002443Y006720D02*
X001583Y006720D01*
X001661Y006643D02*
X002443Y006643D01*
X002443Y006565D02*
X001738Y006565D01*
X001775Y006488D02*
X002443Y006488D01*
X002443Y006411D02*
X001775Y006411D01*
X001775Y006334D02*
X002443Y006334D01*
X002443Y006256D02*
X001775Y006256D01*
X001775Y006179D02*
X002443Y006179D01*
X002443Y006102D02*
X001725Y006102D01*
X001647Y006025D02*
X002480Y006025D01*
X002557Y005947D02*
X001570Y005947D01*
X001646Y005870D02*
X002561Y005870D01*
X002561Y005793D02*
X001723Y005793D01*
X001775Y005716D02*
X002561Y005716D01*
X002561Y005638D02*
X001775Y005638D01*
X001775Y005561D02*
X002416Y005561D01*
X002338Y005484D02*
X001779Y005484D01*
X001856Y005407D02*
X002261Y005407D01*
X002500Y004866D02*
X002580Y004866D01*
X002577Y004943D02*
X004096Y004943D01*
X004096Y005021D02*
X002654Y005021D01*
X002503Y004789D02*
X002383Y004789D01*
X002383Y004712D02*
X002482Y004712D01*
X002482Y004634D02*
X002383Y004634D01*
X002383Y004557D02*
X002482Y004557D01*
X002482Y004480D02*
X002383Y004480D01*
X002383Y004403D02*
X002488Y004403D01*
X002531Y004325D02*
X002383Y004325D01*
X002383Y004248D02*
X002502Y004248D01*
X002502Y004171D02*
X002383Y004171D01*
X002383Y004094D02*
X002502Y004094D01*
X002502Y004016D02*
X002383Y004016D01*
X002383Y003939D02*
X002502Y003939D01*
X002502Y003862D02*
X002383Y003862D01*
X002383Y003785D02*
X002535Y003785D01*
X002612Y003707D02*
X002383Y003707D01*
X002501Y006874D02*
X000809Y006874D01*
X000845Y006952D02*
X002580Y006952D01*
X002580Y007029D02*
X000922Y007029D01*
X001000Y007106D02*
X001261Y007106D01*
X001245Y007724D02*
X000336Y007724D01*
X000336Y007801D02*
X001635Y007801D01*
X001635Y007724D02*
X001592Y007724D01*
X001635Y007878D02*
X000336Y007878D01*
X000336Y007956D02*
X000471Y007956D01*
X000393Y008033D02*
X000336Y008033D01*
X000336Y008110D02*
X000374Y008110D01*
X000374Y008187D02*
X000336Y008187D01*
X000336Y008265D02*
X000374Y008265D01*
X000374Y008342D02*
X000336Y008342D01*
X000336Y008419D02*
X000374Y008419D01*
X000374Y008496D02*
X000336Y008496D01*
X000336Y008574D02*
X000374Y008574D01*
X000374Y008651D02*
X000336Y008651D01*
X000336Y008728D02*
X000374Y008728D01*
X000336Y008805D02*
X000449Y008805D01*
X000336Y008883D02*
X002390Y008883D01*
X002313Y008805D02*
X001772Y008805D01*
X001813Y008728D02*
X002236Y008728D01*
X002159Y008651D02*
X001813Y008651D01*
X001813Y008574D02*
X002081Y008574D01*
X002004Y008496D02*
X001813Y008496D01*
X001813Y008419D02*
X001927Y008419D01*
X001850Y008342D02*
X001813Y008342D01*
X001653Y008110D02*
X001283Y008110D01*
X001263Y008033D02*
X001635Y008033D01*
X001635Y007956D02*
X001186Y007956D01*
X001654Y007183D02*
X001676Y007183D01*
X001753Y007106D02*
X001577Y007106D01*
X002069Y007106D02*
X002245Y007106D01*
X002168Y007183D02*
X002146Y007183D01*
X002561Y007106D02*
X002580Y007106D01*
X001954Y008960D02*
X000336Y008960D01*
X000336Y009037D02*
X001876Y009037D01*
X001798Y009114D02*
X000336Y009114D01*
X000336Y009191D02*
X001721Y009191D01*
X001644Y009269D02*
X000336Y009269D01*
X000336Y009346D02*
X001567Y009346D01*
X001489Y009423D02*
X000336Y009423D01*
X000336Y009500D02*
X001412Y009500D01*
X001335Y009578D02*
X000336Y009578D01*
X000336Y009655D02*
X001258Y009655D01*
X001180Y009732D02*
X000336Y009732D01*
X000336Y009809D02*
X001103Y009809D01*
X001026Y009887D02*
X000336Y009887D01*
X000336Y009964D02*
X000462Y009964D01*
X000385Y010041D02*
X000336Y010041D01*
X000336Y010118D02*
X000374Y010118D01*
X000374Y010196D02*
X000336Y010196D01*
X000336Y010273D02*
X000374Y010273D01*
X000374Y010350D02*
X000336Y010350D01*
X000336Y010427D02*
X000374Y010427D01*
X000374Y010505D02*
X000336Y010505D01*
X000336Y010582D02*
X000374Y010582D01*
X000374Y010659D02*
X000336Y010659D01*
X000336Y010736D02*
X000380Y010736D01*
X000336Y010814D02*
X000457Y010814D01*
X000336Y010891D02*
X001734Y010891D01*
X001734Y010968D02*
X000336Y010968D01*
X000336Y011045D02*
X001734Y011045D01*
X001734Y011123D02*
X000336Y011123D01*
X000336Y011200D02*
X001734Y011200D01*
X001734Y011277D02*
X000336Y011277D01*
X000336Y011354D02*
X001734Y011354D01*
X001674Y011431D02*
X000336Y011431D01*
X000336Y011509D02*
X001674Y011509D01*
X001674Y011586D02*
X000336Y011586D01*
X000336Y011663D02*
X001674Y011663D01*
X001719Y011740D02*
X000336Y011740D01*
X000336Y011818D02*
X001796Y011818D01*
X001734Y010814D02*
X001199Y010814D01*
X001277Y010736D02*
X001734Y010736D01*
X001734Y010659D02*
X001283Y010659D01*
X001283Y010582D02*
X001734Y010582D01*
X001734Y010505D02*
X001283Y010505D01*
X001283Y010427D02*
X001734Y010427D01*
X001734Y010350D02*
X001342Y010350D01*
X001419Y010273D02*
X001734Y010273D01*
X001734Y010196D02*
X001496Y010196D01*
X001574Y010118D02*
X001736Y010118D01*
X001768Y010041D02*
X001651Y010041D01*
X001728Y009964D02*
X001835Y009964D01*
X001805Y009887D02*
X001912Y009887D01*
X001883Y009809D02*
X001989Y009809D01*
X001960Y009732D02*
X002066Y009732D01*
X002037Y009655D02*
X002144Y009655D01*
X002114Y009578D02*
X002221Y009578D01*
X002192Y009500D02*
X002298Y009500D01*
X002537Y010041D02*
X003459Y010041D01*
X003382Y009964D02*
X002614Y009964D01*
X002691Y009887D02*
X003305Y009887D01*
X003537Y010118D02*
X002460Y010118D01*
X002382Y010196D02*
X003614Y010196D01*
X003691Y010273D02*
X002305Y010273D01*
X002285Y011277D02*
X002700Y011277D01*
X002623Y011354D02*
X002285Y011354D01*
X002345Y011431D02*
X002560Y011431D01*
X002560Y011509D02*
X002345Y011509D01*
X002345Y011586D02*
X002560Y011586D01*
X002560Y011663D02*
X002345Y011663D01*
X002300Y011740D02*
X002604Y011740D01*
X002682Y011818D02*
X002223Y011818D01*
X003727Y013980D02*
X003984Y013980D01*
X003984Y013903D02*
X003804Y013903D01*
X003881Y013826D02*
X003984Y013826D01*
X003984Y013749D02*
X003958Y013749D01*
X003984Y014058D02*
X003649Y014058D01*
X003092Y015371D02*
X009411Y015371D01*
X009411Y015448D02*
X003092Y015448D01*
X003092Y015525D02*
X009411Y015525D01*
X009411Y015602D02*
X003092Y015602D01*
X003047Y015680D02*
X009411Y015680D01*
X009411Y015757D02*
X003092Y015757D01*
X003092Y015834D02*
X007021Y015834D01*
X006970Y015911D02*
X003092Y015911D01*
X003092Y015989D02*
X006970Y015989D01*
X006970Y016066D02*
X003092Y016066D01*
X003092Y016143D02*
X006970Y016143D01*
X006970Y016220D02*
X003092Y016220D01*
X003019Y016298D02*
X006970Y016298D01*
X007838Y016872D02*
X007838Y016872D01*
X007951Y016838D02*
X009411Y016838D01*
X009411Y016761D02*
X008028Y016761D01*
X008033Y016684D02*
X009411Y016684D01*
X009411Y016607D02*
X008033Y016607D01*
X008033Y016529D02*
X009411Y016529D01*
X009411Y016452D02*
X008033Y016452D01*
X008033Y016375D02*
X009411Y016375D01*
X009411Y016298D02*
X008033Y016298D01*
X008033Y016220D02*
X009411Y016220D01*
X009411Y016143D02*
X008033Y016143D01*
X008033Y016066D02*
X009411Y016066D01*
X009411Y015989D02*
X008033Y015989D01*
X008033Y015911D02*
X009411Y015911D01*
X009411Y015834D02*
X007983Y015834D01*
X008049Y015216D02*
X007828Y015216D01*
X007893Y015139D02*
X007984Y015139D01*
X007984Y015062D02*
X007893Y015062D01*
X007893Y014985D02*
X007984Y014985D01*
X007984Y014907D02*
X007893Y014907D01*
X007893Y014830D02*
X007984Y014830D01*
X007984Y014753D02*
X007893Y014753D01*
X007893Y014676D02*
X007984Y014676D01*
X007984Y014598D02*
X007893Y014598D01*
X007893Y014521D02*
X007984Y014521D01*
X008014Y014444D02*
X007863Y014444D01*
X007786Y014367D02*
X008091Y014367D01*
X008045Y014212D02*
X007832Y014212D01*
X007893Y014135D02*
X007984Y014135D01*
X007984Y014058D02*
X007893Y014058D01*
X007893Y013980D02*
X007984Y013980D01*
X007984Y013903D02*
X007893Y013903D01*
X007893Y013826D02*
X007984Y013826D01*
X007984Y013749D02*
X007893Y013749D01*
X007893Y013671D02*
X007984Y013671D01*
X007931Y013594D02*
X007893Y013594D01*
X007468Y011818D02*
X005347Y011818D01*
X005270Y011740D02*
X007391Y011740D01*
X007570Y011586D02*
X007590Y011586D01*
X007580Y011596D02*
X006320Y010336D01*
X006006Y010336D01*
X005061Y009391D01*
X005080Y009372D01*
X005120Y009411D01*
X005730Y009411D01*
X005946Y009194D01*
X007620Y009194D01*
X008801Y010376D01*
X007580Y011596D01*
X007493Y011509D02*
X007668Y011509D01*
X007745Y011431D02*
X007416Y011431D01*
X007338Y011354D02*
X007822Y011354D01*
X007899Y011277D02*
X007261Y011277D01*
X007184Y011200D02*
X007977Y011200D01*
X008054Y011123D02*
X007107Y011123D01*
X007030Y011045D02*
X008131Y011045D01*
X008208Y010968D02*
X006952Y010968D01*
X006875Y010891D02*
X008286Y010891D01*
X008363Y010814D02*
X006798Y010814D01*
X006721Y010736D02*
X008440Y010736D01*
X008517Y010659D02*
X006643Y010659D01*
X006566Y010582D02*
X008595Y010582D01*
X008672Y010505D02*
X006489Y010505D01*
X006412Y010427D02*
X008749Y010427D01*
X008775Y010350D02*
X006334Y010350D01*
X005942Y010273D02*
X008698Y010273D01*
X008621Y010196D02*
X005865Y010196D01*
X005788Y010118D02*
X008544Y010118D01*
X008466Y010041D02*
X005710Y010041D01*
X005633Y009964D02*
X008389Y009964D01*
X008312Y009887D02*
X005556Y009887D01*
X005479Y009809D02*
X008235Y009809D01*
X008157Y009732D02*
X005401Y009732D01*
X005324Y009655D02*
X008080Y009655D01*
X008003Y009578D02*
X005247Y009578D01*
X005170Y009500D02*
X007926Y009500D01*
X007848Y009423D02*
X005093Y009423D01*
X005122Y009114D02*
X005693Y009114D01*
X005872Y009269D02*
X007694Y009269D01*
X007771Y009346D02*
X005795Y009346D01*
X005476Y008805D02*
X007591Y008805D01*
X007613Y008728D02*
X007669Y008728D01*
X007690Y008651D02*
X007746Y008651D01*
X007767Y008574D02*
X007823Y008574D01*
X007845Y008496D02*
X007900Y008496D01*
X007922Y008419D02*
X007977Y008419D01*
X007999Y008342D02*
X008055Y008342D01*
X008076Y008265D02*
X008170Y008265D01*
X008126Y008187D02*
X009008Y008187D01*
X009085Y008110D02*
X008203Y008110D01*
X008280Y008033D02*
X009162Y008033D01*
X009239Y007956D02*
X008357Y007956D01*
X008498Y007878D02*
X009317Y007878D01*
X009334Y007801D02*
X009608Y007801D01*
X009608Y007878D02*
X009518Y007878D01*
X009624Y007724D02*
X009411Y007724D01*
X009488Y007647D02*
X009664Y007647D01*
X009741Y007569D02*
X009565Y007569D01*
X009643Y007492D02*
X009818Y007492D01*
X009895Y007415D02*
X009644Y007415D01*
X009644Y007338D02*
X009973Y007338D01*
X010088Y007260D02*
X009577Y007260D01*
X009499Y007183D02*
X010198Y007183D01*
X010198Y007106D02*
X009422Y007106D01*
X009345Y007029D02*
X010198Y007029D01*
X010198Y006952D02*
X009268Y006952D01*
X009070Y006952D02*
X008549Y006952D01*
X008627Y007029D02*
X008992Y007029D01*
X008915Y007106D02*
X008704Y007106D01*
X008654Y006720D02*
X010070Y006720D01*
X010023Y006643D02*
X008731Y006643D01*
X008808Y006565D02*
X010002Y006565D01*
X010002Y006488D02*
X008886Y006488D01*
X008963Y006411D02*
X010002Y006411D01*
X010002Y006334D02*
X009040Y006334D01*
X009072Y006256D02*
X010002Y006256D01*
X010002Y006179D02*
X009072Y006179D01*
X009036Y006102D02*
X009859Y006102D01*
X009694Y006025D02*
X008959Y006025D01*
X008882Y005947D02*
X009617Y005947D01*
X009548Y005870D02*
X008804Y005870D01*
X008727Y005793D02*
X009516Y005793D01*
X009484Y005716D02*
X007305Y005716D01*
X007376Y005638D02*
X009470Y005638D01*
X009470Y005561D02*
X007446Y005561D01*
X007123Y005098D02*
X007011Y005098D01*
X007011Y005175D02*
X007053Y005175D01*
X007011Y005021D02*
X007147Y005021D01*
X007147Y004943D02*
X007011Y004943D01*
X007011Y004866D02*
X007147Y004866D01*
X007147Y004789D02*
X007011Y004789D01*
X007011Y004712D02*
X007111Y004712D01*
X007087Y004634D02*
X007011Y004634D01*
X007011Y004557D02*
X007087Y004557D01*
X007087Y004480D02*
X007004Y004480D01*
X006927Y004403D02*
X007094Y004403D01*
X007172Y004325D02*
X006472Y004325D01*
X006466Y003553D02*
X006427Y003553D01*
X005466Y003553D02*
X005427Y003553D01*
X004966Y003553D02*
X004844Y003553D01*
X004844Y003476D02*
X004888Y003476D01*
X004881Y003398D02*
X004831Y003398D01*
X004794Y003321D02*
X004881Y003321D01*
X004881Y003244D02*
X004716Y003244D01*
X004639Y003167D02*
X004881Y003167D01*
X004881Y003090D02*
X004562Y003090D01*
X004485Y003012D02*
X004881Y003012D01*
X004881Y002935D02*
X004407Y002935D01*
X004330Y002858D02*
X004881Y002858D01*
X004881Y002781D02*
X004253Y002781D01*
X004176Y002703D02*
X004881Y002703D01*
X004881Y002626D02*
X004048Y002626D01*
X004703Y009578D02*
X004806Y009578D01*
X004883Y009655D02*
X004626Y009655D01*
X004599Y009682D02*
X004599Y009682D01*
X004549Y009732D02*
X004960Y009732D01*
X005037Y009809D02*
X004471Y009809D01*
X004408Y009873D02*
X004408Y009873D01*
X004394Y009887D02*
X005114Y009887D01*
X005192Y009964D02*
X004317Y009964D01*
X004240Y010041D02*
X005269Y010041D01*
X005346Y010118D02*
X004162Y010118D01*
X004085Y010196D02*
X005423Y010196D01*
X005501Y010273D02*
X004008Y010273D01*
X003881Y012667D02*
X003736Y012667D01*
X003615Y016838D02*
X003131Y016838D01*
X003070Y016916D02*
X003565Y016916D01*
X003565Y016993D02*
X002993Y016993D01*
X002916Y017070D02*
X003565Y017070D01*
X003565Y017147D02*
X000336Y017147D01*
X000336Y017224D02*
X003565Y017224D01*
X003565Y017302D02*
X000336Y017302D01*
X000336Y017379D02*
X003565Y017379D01*
X003565Y017456D02*
X000336Y017456D01*
X000336Y017533D02*
X003565Y017533D01*
X003565Y017611D02*
X000336Y017611D01*
X000336Y017688D02*
X003533Y017688D01*
X003456Y017765D02*
X000336Y017765D01*
X000336Y017842D02*
X003446Y017842D01*
X003446Y017920D02*
X000336Y017920D01*
X000336Y017997D02*
X003446Y017997D01*
X003446Y018074D02*
X000336Y018074D01*
X000336Y018151D02*
X003464Y018151D01*
X003541Y018229D02*
X000336Y018229D01*
X000336Y018306D02*
X003619Y018306D01*
X003696Y018383D02*
X000336Y018383D01*
X000336Y018460D02*
X012541Y018460D01*
X012541Y018383D02*
X004063Y018383D01*
X004140Y018306D02*
X012541Y018306D01*
X012541Y018229D02*
X004218Y018229D01*
X004295Y018151D02*
X012541Y018151D01*
X012541Y018074D02*
X004313Y018074D01*
X004313Y017997D02*
X012541Y017997D01*
X012541Y017920D02*
X004313Y017920D01*
X004313Y017842D02*
X012541Y017842D01*
X012541Y017765D02*
X004303Y017765D01*
X004346Y017688D02*
X004437Y017688D01*
X004391Y017611D02*
X004391Y017611D01*
X004391Y017533D02*
X004391Y017533D01*
X004391Y017456D02*
X004391Y017456D01*
X004391Y017379D02*
X004391Y017379D01*
X004391Y017302D02*
X004391Y017302D01*
X004391Y017224D02*
X004391Y017224D01*
X004391Y017147D02*
X004391Y017147D01*
X004391Y017070D02*
X004391Y017070D01*
X004391Y016993D02*
X004391Y016993D01*
X004391Y016916D02*
X004391Y016916D01*
X004341Y016838D02*
X004442Y016838D01*
X002887Y019665D02*
X003153Y019931D01*
X003153Y020308D01*
X003046Y020415D01*
X004273Y020415D01*
X004273Y020769D01*
X004788Y020769D01*
X004903Y020885D01*
X004903Y021520D01*
X004872Y021551D01*
X004872Y021767D01*
X004757Y021882D01*
X004273Y021882D01*
X004273Y023269D01*
X007974Y023269D01*
X007974Y022853D01*
X008005Y022822D01*
X008005Y022607D01*
X008120Y022491D01*
X008604Y022491D01*
X008604Y020415D01*
X009831Y020415D01*
X009724Y020308D01*
X009724Y019931D01*
X009991Y019665D01*
X010367Y019665D01*
X010633Y019931D01*
X010633Y020308D01*
X010526Y020415D01*
X011308Y020415D01*
X011201Y020308D01*
X011201Y019931D01*
X011467Y019665D01*
X011843Y019665D01*
X012109Y019931D01*
X012109Y020308D01*
X012002Y020415D01*
X012541Y020415D01*
X012541Y019135D01*
X000336Y019135D01*
X000336Y020415D01*
X000875Y020415D01*
X000768Y020308D01*
X000768Y019931D01*
X001034Y019665D01*
X001410Y019665D01*
X001676Y019931D01*
X001676Y020308D01*
X001569Y020415D01*
X002351Y020415D01*
X002244Y020308D01*
X002244Y019931D01*
X002510Y019665D01*
X002887Y019665D01*
X002917Y019696D02*
X009960Y019696D01*
X009882Y019773D02*
X002995Y019773D01*
X003072Y019851D02*
X009805Y019851D01*
X009728Y019928D02*
X003149Y019928D01*
X003153Y020005D02*
X009724Y020005D01*
X009724Y020082D02*
X003153Y020082D01*
X003153Y020160D02*
X009724Y020160D01*
X009724Y020237D02*
X003153Y020237D01*
X003147Y020314D02*
X009731Y020314D01*
X009808Y020391D02*
X003069Y020391D01*
X002479Y019696D02*
X001441Y019696D01*
X001518Y019773D02*
X002402Y019773D01*
X002325Y019851D02*
X001596Y019851D01*
X001673Y019928D02*
X002248Y019928D01*
X002244Y020005D02*
X001676Y020005D01*
X001676Y020082D02*
X002244Y020082D01*
X002244Y020160D02*
X001676Y020160D01*
X001676Y020237D02*
X002244Y020237D01*
X002250Y020314D02*
X001670Y020314D01*
X001593Y020391D02*
X002328Y020391D01*
X001003Y019696D02*
X000336Y019696D01*
X000336Y019619D02*
X012541Y019619D01*
X012541Y019696D02*
X011874Y019696D01*
X011951Y019773D02*
X012541Y019773D01*
X012541Y019851D02*
X012029Y019851D01*
X012106Y019928D02*
X012541Y019928D01*
X012541Y020005D02*
X012109Y020005D01*
X012109Y020082D02*
X012541Y020082D01*
X012541Y020160D02*
X012109Y020160D01*
X012109Y020237D02*
X012541Y020237D01*
X012541Y020314D02*
X012103Y020314D01*
X012026Y020391D02*
X012541Y020391D01*
X012462Y021006D02*
X009096Y021006D01*
X009096Y027009D01*
X007915Y028191D01*
X006734Y028191D01*
X006734Y030179D01*
X012462Y030179D01*
X012462Y021006D01*
X012462Y021009D02*
X009096Y021009D01*
X009096Y021087D02*
X012462Y021087D01*
X012462Y021164D02*
X009096Y021164D01*
X009096Y021241D02*
X012462Y021241D01*
X012462Y021318D02*
X009096Y021318D01*
X009096Y021395D02*
X012462Y021395D01*
X012462Y021473D02*
X009096Y021473D01*
X009096Y021550D02*
X012462Y021550D01*
X012462Y021627D02*
X009096Y021627D01*
X009096Y021704D02*
X012462Y021704D01*
X012462Y021782D02*
X009096Y021782D01*
X009096Y021859D02*
X012462Y021859D01*
X012462Y021936D02*
X009096Y021936D01*
X009096Y022013D02*
X012462Y022013D01*
X012462Y022091D02*
X009096Y022091D01*
X009096Y022168D02*
X012462Y022168D01*
X012462Y022245D02*
X009096Y022245D01*
X009096Y022322D02*
X012462Y022322D01*
X012462Y022400D02*
X009096Y022400D01*
X009096Y022477D02*
X012462Y022477D01*
X012462Y022554D02*
X009096Y022554D01*
X009096Y022631D02*
X012462Y022631D01*
X012462Y022709D02*
X009096Y022709D01*
X009096Y022786D02*
X012462Y022786D01*
X012462Y022863D02*
X009096Y022863D01*
X009096Y022940D02*
X012462Y022940D01*
X012462Y023018D02*
X009096Y023018D01*
X009096Y023095D02*
X012462Y023095D01*
X012462Y023172D02*
X009096Y023172D01*
X009096Y023249D02*
X012462Y023249D01*
X012462Y023326D02*
X009096Y023326D01*
X009096Y023404D02*
X012462Y023404D01*
X012462Y023481D02*
X009096Y023481D01*
X009096Y023558D02*
X012462Y023558D01*
X012462Y023635D02*
X009096Y023635D01*
X009096Y023713D02*
X012462Y023713D01*
X012462Y023790D02*
X009096Y023790D01*
X009096Y023867D02*
X012462Y023867D01*
X012462Y023944D02*
X009096Y023944D01*
X009096Y024022D02*
X012462Y024022D01*
X012462Y024099D02*
X009096Y024099D01*
X009096Y024176D02*
X012462Y024176D01*
X012462Y024253D02*
X009096Y024253D01*
X009096Y024331D02*
X012462Y024331D01*
X012462Y024408D02*
X009096Y024408D01*
X009096Y024485D02*
X012462Y024485D01*
X012462Y024562D02*
X009096Y024562D01*
X009096Y024640D02*
X012462Y024640D01*
X012462Y024717D02*
X009096Y024717D01*
X009096Y024794D02*
X012462Y024794D01*
X012462Y024871D02*
X009096Y024871D01*
X009096Y024949D02*
X012462Y024949D01*
X012462Y025026D02*
X009096Y025026D01*
X009096Y025103D02*
X012462Y025103D01*
X012462Y025180D02*
X009096Y025180D01*
X009096Y025257D02*
X012462Y025257D01*
X012462Y025335D02*
X009096Y025335D01*
X009096Y025412D02*
X012462Y025412D01*
X012462Y025489D02*
X009096Y025489D01*
X009096Y025566D02*
X012462Y025566D01*
X012462Y025644D02*
X009096Y025644D01*
X009096Y025721D02*
X012462Y025721D01*
X012462Y025798D02*
X009096Y025798D01*
X009096Y025875D02*
X012462Y025875D01*
X012462Y025953D02*
X009096Y025953D01*
X009096Y026030D02*
X012462Y026030D01*
X012462Y026107D02*
X009096Y026107D01*
X009096Y026184D02*
X012462Y026184D01*
X012462Y026262D02*
X009096Y026262D01*
X009096Y026339D02*
X012462Y026339D01*
X012462Y026416D02*
X009096Y026416D01*
X009096Y026493D02*
X012462Y026493D01*
X012462Y026571D02*
X009096Y026571D01*
X009096Y026648D02*
X012462Y026648D01*
X012462Y026725D02*
X009096Y026725D01*
X009096Y026802D02*
X012462Y026802D01*
X012462Y026880D02*
X009096Y026880D01*
X009096Y026957D02*
X012462Y026957D01*
X012462Y027034D02*
X009071Y027034D01*
X008994Y027111D02*
X012462Y027111D01*
X012462Y027189D02*
X008917Y027189D01*
X008840Y027266D02*
X012462Y027266D01*
X012462Y027343D02*
X008763Y027343D01*
X008685Y027420D02*
X012462Y027420D01*
X012462Y027497D02*
X008608Y027497D01*
X008531Y027575D02*
X012462Y027575D01*
X012462Y027652D02*
X008454Y027652D01*
X008376Y027729D02*
X012462Y027729D01*
X012462Y027806D02*
X008299Y027806D01*
X008222Y027884D02*
X012462Y027884D01*
X012462Y027961D02*
X008145Y027961D01*
X008067Y028038D02*
X012462Y028038D01*
X012462Y028115D02*
X007990Y028115D01*
X007743Y027575D02*
X005134Y027575D01*
X005159Y027600D02*
X007718Y027600D01*
X008604Y026714D01*
X008604Y026360D01*
X008089Y026360D01*
X007974Y026245D01*
X007974Y025609D01*
X008005Y025578D01*
X008005Y025363D01*
X008120Y025247D01*
X008604Y025247D01*
X008604Y023860D01*
X004903Y023860D01*
X004903Y024276D01*
X004872Y024307D01*
X004872Y024522D01*
X004757Y024638D01*
X004273Y024638D01*
X004273Y026714D01*
X005159Y027600D01*
X005057Y027497D02*
X007821Y027497D01*
X007898Y027420D02*
X004979Y027420D01*
X004902Y027343D02*
X007975Y027343D01*
X008052Y027266D02*
X004825Y027266D01*
X004748Y027189D02*
X008130Y027189D01*
X008207Y027111D02*
X004670Y027111D01*
X004593Y027034D02*
X008284Y027034D01*
X008361Y026957D02*
X004516Y026957D01*
X004439Y026880D02*
X008439Y026880D01*
X008516Y026802D02*
X004361Y026802D01*
X004284Y026725D02*
X008593Y026725D01*
X008604Y026648D02*
X004273Y026648D01*
X004273Y026571D02*
X008604Y026571D01*
X008604Y026493D02*
X004273Y026493D01*
X004273Y026416D02*
X008604Y026416D01*
X008068Y026339D02*
X004273Y026339D01*
X004273Y026262D02*
X007991Y026262D01*
X007974Y026184D02*
X004273Y026184D01*
X004273Y026107D02*
X007974Y026107D01*
X007974Y026030D02*
X004273Y026030D01*
X004273Y025953D02*
X007974Y025953D01*
X007974Y025875D02*
X004273Y025875D01*
X004273Y025798D02*
X007974Y025798D01*
X007974Y025721D02*
X004273Y025721D01*
X004273Y025644D02*
X007974Y025644D01*
X008005Y025566D02*
X004273Y025566D01*
X004273Y025489D02*
X008005Y025489D01*
X008005Y025412D02*
X004273Y025412D01*
X004273Y025335D02*
X008033Y025335D01*
X008110Y025257D02*
X004273Y025257D01*
X004273Y025180D02*
X008604Y025180D01*
X008604Y025103D02*
X004273Y025103D01*
X004273Y025026D02*
X008604Y025026D01*
X008604Y024949D02*
X004273Y024949D01*
X004273Y024871D02*
X008604Y024871D01*
X008604Y024794D02*
X004273Y024794D01*
X004273Y024717D02*
X008604Y024717D01*
X008604Y024640D02*
X004273Y024640D01*
X003781Y024640D02*
X000415Y024640D01*
X000415Y024717D02*
X003781Y024717D01*
X003781Y024794D02*
X000415Y024794D01*
X000415Y024871D02*
X003781Y024871D01*
X003781Y024949D02*
X000415Y024949D01*
X000415Y025026D02*
X003781Y025026D01*
X003781Y025103D02*
X000415Y025103D01*
X000415Y025180D02*
X003781Y025180D01*
X003781Y025257D02*
X000415Y025257D01*
X000415Y025335D02*
X003781Y025335D01*
X003781Y025412D02*
X000415Y025412D01*
X000415Y025489D02*
X003781Y025489D01*
X003781Y025566D02*
X000415Y025566D01*
X000415Y025644D02*
X003781Y025644D01*
X003781Y025721D02*
X000415Y025721D01*
X000415Y025798D02*
X003781Y025798D01*
X003781Y025875D02*
X000415Y025875D01*
X000415Y025953D02*
X003781Y025953D01*
X003781Y026030D02*
X000415Y026030D01*
X000415Y026107D02*
X003781Y026107D01*
X003781Y026184D02*
X000415Y026184D01*
X000415Y026262D02*
X003781Y026262D01*
X003781Y026339D02*
X000415Y026339D01*
X000415Y026416D02*
X003781Y026416D01*
X003781Y026493D02*
X000415Y026493D01*
X000415Y026571D02*
X003781Y026571D01*
X003781Y026648D02*
X000415Y026648D01*
X000415Y026725D02*
X003781Y026725D01*
X003781Y026802D02*
X000415Y026802D01*
X000415Y026880D02*
X003781Y026880D01*
X003781Y026957D02*
X000415Y026957D01*
X000415Y027034D02*
X003806Y027034D01*
X003781Y027009D02*
X003781Y021006D01*
X000415Y021006D01*
X000415Y030179D01*
X006143Y030179D01*
X006143Y028191D01*
X004962Y028191D01*
X003781Y027009D01*
X003883Y027111D02*
X000415Y027111D01*
X000415Y027189D02*
X003960Y027189D01*
X004037Y027266D02*
X000415Y027266D01*
X000415Y027343D02*
X004115Y027343D01*
X004192Y027420D02*
X000415Y027420D01*
X000415Y027497D02*
X004269Y027497D01*
X004346Y027575D02*
X000415Y027575D01*
X000415Y027652D02*
X004424Y027652D01*
X004501Y027729D02*
X000415Y027729D01*
X000415Y027806D02*
X004578Y027806D01*
X004655Y027884D02*
X000415Y027884D01*
X000415Y027961D02*
X004733Y027961D01*
X004810Y028038D02*
X000415Y028038D01*
X000415Y028115D02*
X004887Y028115D01*
X006143Y028193D02*
X000415Y028193D01*
X000415Y028270D02*
X006143Y028270D01*
X006143Y028347D02*
X000415Y028347D01*
X000415Y028424D02*
X001004Y028424D01*
X001140Y028368D02*
X001501Y028368D01*
X001833Y028506D01*
X002088Y028760D01*
X002226Y029093D01*
X002226Y029453D01*
X002088Y029786D01*
X001833Y030041D01*
X001501Y030179D01*
X001140Y030179D01*
X000808Y030041D01*
X000553Y029786D01*
X000415Y029453D01*
X000415Y029093D01*
X000553Y028760D01*
X000808Y028506D01*
X001140Y028368D01*
X000817Y028502D02*
X000415Y028502D01*
X000415Y028579D02*
X000734Y028579D01*
X000657Y028656D02*
X000415Y028656D01*
X000415Y028733D02*
X000580Y028733D01*
X000532Y028811D02*
X000415Y028811D01*
X000415Y028888D02*
X000500Y028888D01*
X000468Y028965D02*
X000415Y028965D01*
X000415Y029042D02*
X000436Y029042D01*
X000415Y029120D02*
X000415Y029120D01*
X000415Y029197D02*
X000415Y029197D01*
X000415Y029274D02*
X000415Y029274D01*
X000415Y029351D02*
X000415Y029351D01*
X000415Y029428D02*
X000415Y029428D01*
X000415Y029506D02*
X000437Y029506D01*
X000415Y029583D02*
X000469Y029583D01*
X000501Y029660D02*
X000415Y029660D01*
X000415Y029737D02*
X000533Y029737D01*
X000581Y029815D02*
X000415Y029815D01*
X000415Y029892D02*
X000659Y029892D01*
X000736Y029969D02*
X000415Y029969D01*
X000415Y030046D02*
X000821Y030046D01*
X001007Y030124D02*
X000415Y030124D01*
X001634Y030124D02*
X006143Y030124D01*
X006143Y030046D02*
X001820Y030046D01*
X001905Y029969D02*
X006143Y029969D01*
X006143Y029892D02*
X001982Y029892D01*
X002060Y029815D02*
X006143Y029815D01*
X006143Y029737D02*
X002108Y029737D01*
X002140Y029660D02*
X006143Y029660D01*
X006143Y029583D02*
X002172Y029583D01*
X002204Y029506D02*
X006143Y029506D01*
X006143Y029428D02*
X002226Y029428D01*
X002226Y029351D02*
X006143Y029351D01*
X006143Y029274D02*
X002226Y029274D01*
X002226Y029197D02*
X006143Y029197D01*
X006143Y029120D02*
X002226Y029120D01*
X002205Y029042D02*
X006143Y029042D01*
X006143Y028965D02*
X002173Y028965D01*
X002141Y028888D02*
X006143Y028888D01*
X006143Y028811D02*
X002109Y028811D01*
X002061Y028733D02*
X006143Y028733D01*
X006143Y028656D02*
X001984Y028656D01*
X001907Y028579D02*
X006143Y028579D01*
X006143Y028502D02*
X001824Y028502D01*
X001637Y028424D02*
X006143Y028424D01*
X006734Y028424D02*
X011240Y028424D01*
X011377Y028368D02*
X011737Y028368D01*
X012070Y028506D01*
X012324Y028760D01*
X012462Y029093D01*
X012462Y029453D01*
X012324Y029786D01*
X012070Y030041D01*
X011737Y030179D01*
X011377Y030179D01*
X011044Y030041D01*
X010789Y029786D01*
X010651Y029453D01*
X010651Y029093D01*
X010789Y028760D01*
X011044Y028506D01*
X011377Y028368D01*
X011053Y028502D02*
X006734Y028502D01*
X006734Y028579D02*
X010970Y028579D01*
X010893Y028656D02*
X006734Y028656D01*
X006734Y028733D02*
X010816Y028733D01*
X010768Y028811D02*
X006734Y028811D01*
X006734Y028888D02*
X010736Y028888D01*
X010704Y028965D02*
X006734Y028965D01*
X006734Y029042D02*
X010672Y029042D01*
X010651Y029120D02*
X006734Y029120D01*
X006734Y029197D02*
X010651Y029197D01*
X010651Y029274D02*
X006734Y029274D01*
X006734Y029351D02*
X010651Y029351D01*
X010651Y029428D02*
X006734Y029428D01*
X006734Y029506D02*
X010673Y029506D01*
X010705Y029583D02*
X006734Y029583D01*
X006734Y029660D02*
X010737Y029660D01*
X010769Y029737D02*
X006734Y029737D01*
X006734Y029815D02*
X010818Y029815D01*
X010895Y029892D02*
X006734Y029892D01*
X006734Y029969D02*
X010972Y029969D01*
X011057Y030046D02*
X006734Y030046D01*
X006734Y030124D02*
X011244Y030124D01*
X011870Y030124D02*
X012462Y030124D01*
X012462Y030046D02*
X012056Y030046D01*
X012141Y029969D02*
X012462Y029969D01*
X012462Y029892D02*
X012219Y029892D01*
X012296Y029815D02*
X012462Y029815D01*
X012462Y029737D02*
X012345Y029737D01*
X012377Y029660D02*
X012462Y029660D01*
X012462Y029583D02*
X012409Y029583D01*
X012441Y029506D02*
X012462Y029506D01*
X012462Y029428D02*
X012462Y029428D01*
X012462Y029351D02*
X012462Y029351D01*
X012462Y029274D02*
X012462Y029274D01*
X012462Y029197D02*
X012462Y029197D01*
X012462Y029120D02*
X012462Y029120D01*
X012462Y029042D02*
X012441Y029042D01*
X012462Y028965D02*
X012409Y028965D01*
X012377Y028888D02*
X012462Y028888D01*
X012462Y028811D02*
X012345Y028811D01*
X012297Y028733D02*
X012462Y028733D01*
X012462Y028656D02*
X012220Y028656D01*
X012143Y028579D02*
X012462Y028579D01*
X012462Y028502D02*
X012060Y028502D01*
X011874Y028424D02*
X012462Y028424D01*
X012462Y028347D02*
X006734Y028347D01*
X006734Y028270D02*
X012462Y028270D01*
X012462Y028193D02*
X006734Y028193D01*
X008604Y024562D02*
X004832Y024562D01*
X004872Y024485D02*
X008604Y024485D01*
X008604Y024408D02*
X004872Y024408D01*
X004872Y024331D02*
X008604Y024331D01*
X008604Y024253D02*
X004903Y024253D01*
X004903Y024176D02*
X008604Y024176D01*
X008604Y024099D02*
X004903Y024099D01*
X004903Y024022D02*
X008604Y024022D01*
X008604Y023944D02*
X004903Y023944D01*
X004903Y023867D02*
X008604Y023867D01*
X008005Y022786D02*
X004273Y022786D01*
X004273Y022863D02*
X007974Y022863D01*
X007974Y022940D02*
X004273Y022940D01*
X004273Y023018D02*
X007974Y023018D01*
X007974Y023095D02*
X004273Y023095D01*
X004273Y023172D02*
X007974Y023172D01*
X007974Y023249D02*
X004273Y023249D01*
X004273Y022709D02*
X008005Y022709D01*
X008005Y022631D02*
X004273Y022631D01*
X004273Y022554D02*
X008058Y022554D01*
X008604Y022477D02*
X004273Y022477D01*
X004273Y022400D02*
X008604Y022400D01*
X008604Y022322D02*
X004273Y022322D01*
X004273Y022245D02*
X008604Y022245D01*
X008604Y022168D02*
X004273Y022168D01*
X004273Y022091D02*
X008604Y022091D01*
X008604Y022013D02*
X004273Y022013D01*
X004273Y021936D02*
X008604Y021936D01*
X008604Y021859D02*
X004780Y021859D01*
X004857Y021782D02*
X008604Y021782D01*
X008604Y021704D02*
X004872Y021704D01*
X004872Y021627D02*
X008604Y021627D01*
X008604Y021550D02*
X004873Y021550D01*
X004903Y021473D02*
X008604Y021473D01*
X008604Y021395D02*
X004903Y021395D01*
X004903Y021318D02*
X008604Y021318D01*
X008604Y021241D02*
X004903Y021241D01*
X004903Y021164D02*
X008604Y021164D01*
X008604Y021087D02*
X004903Y021087D01*
X004903Y021009D02*
X008604Y021009D01*
X008604Y020932D02*
X004903Y020932D01*
X004873Y020855D02*
X008604Y020855D01*
X008604Y020778D02*
X004796Y020778D01*
X004273Y020700D02*
X008604Y020700D01*
X008604Y020623D02*
X004273Y020623D01*
X004273Y020546D02*
X008604Y020546D01*
X008604Y020469D02*
X004273Y020469D01*
X003781Y021009D02*
X000415Y021009D01*
X000415Y021087D02*
X003781Y021087D01*
X003781Y021164D02*
X000415Y021164D01*
X000415Y021241D02*
X003781Y021241D01*
X003781Y021318D02*
X000415Y021318D01*
X000415Y021395D02*
X003781Y021395D01*
X003781Y021473D02*
X000415Y021473D01*
X000415Y021550D02*
X003781Y021550D01*
X003781Y021627D02*
X000415Y021627D01*
X000415Y021704D02*
X003781Y021704D01*
X003781Y021782D02*
X000415Y021782D01*
X000415Y021859D02*
X003781Y021859D01*
X003781Y021936D02*
X000415Y021936D01*
X000415Y022013D02*
X003781Y022013D01*
X003781Y022091D02*
X000415Y022091D01*
X000415Y022168D02*
X003781Y022168D01*
X003781Y022245D02*
X000415Y022245D01*
X000415Y022322D02*
X003781Y022322D01*
X003781Y022400D02*
X000415Y022400D01*
X000415Y022477D02*
X003781Y022477D01*
X003781Y022554D02*
X000415Y022554D01*
X000415Y022631D02*
X003781Y022631D01*
X003781Y022709D02*
X000415Y022709D01*
X000415Y022786D02*
X003781Y022786D01*
X003781Y022863D02*
X000415Y022863D01*
X000415Y022940D02*
X003781Y022940D01*
X003781Y023018D02*
X000415Y023018D01*
X000415Y023095D02*
X003781Y023095D01*
X003781Y023172D02*
X000415Y023172D01*
X000415Y023249D02*
X003781Y023249D01*
X003781Y023326D02*
X000415Y023326D01*
X000415Y023404D02*
X003781Y023404D01*
X003781Y023481D02*
X000415Y023481D01*
X000415Y023558D02*
X003781Y023558D01*
X003781Y023635D02*
X000415Y023635D01*
X000415Y023713D02*
X003781Y023713D01*
X003781Y023790D02*
X000415Y023790D01*
X000415Y023867D02*
X003781Y023867D01*
X003781Y023944D02*
X000415Y023944D01*
X000415Y024022D02*
X003781Y024022D01*
X003781Y024099D02*
X000415Y024099D01*
X000415Y024176D02*
X003781Y024176D01*
X003781Y024253D02*
X000415Y024253D01*
X000415Y024331D02*
X003781Y024331D01*
X003781Y024408D02*
X000415Y024408D01*
X000415Y024485D02*
X003781Y024485D01*
X003781Y024562D02*
X000415Y024562D01*
X000336Y020391D02*
X000851Y020391D01*
X000774Y020314D02*
X000336Y020314D01*
X000336Y020237D02*
X000768Y020237D01*
X000768Y020160D02*
X000336Y020160D01*
X000336Y020082D02*
X000768Y020082D01*
X000768Y020005D02*
X000336Y020005D01*
X000336Y019928D02*
X000771Y019928D01*
X000849Y019851D02*
X000336Y019851D01*
X000336Y019773D02*
X000926Y019773D01*
X000336Y019542D02*
X012541Y019542D01*
X012541Y019464D02*
X000336Y019464D01*
X000336Y019387D02*
X012541Y019387D01*
X012541Y019310D02*
X000336Y019310D01*
X000336Y019233D02*
X012541Y019233D01*
X012541Y019156D02*
X000336Y019156D01*
X000336Y007647D02*
X000761Y007647D01*
X000684Y007569D02*
X000336Y007569D01*
X000336Y007492D02*
X000606Y007492D01*
X000529Y007415D02*
X000336Y007415D01*
X000336Y007338D02*
X000452Y007338D01*
X000375Y007260D02*
X000336Y007260D01*
X007600Y006952D02*
X008311Y006952D01*
X008234Y007029D02*
X007615Y007029D01*
X007693Y007106D02*
X008156Y007106D01*
X008079Y007183D02*
X007770Y007183D01*
X007847Y007260D02*
X008002Y007260D01*
X007925Y007338D02*
X007894Y007338D01*
X007672Y006874D02*
X010198Y006874D01*
X010147Y006797D02*
X007749Y006797D01*
X007827Y006720D02*
X008429Y006720D01*
X008352Y006643D02*
X007904Y006643D01*
X007981Y006565D02*
X008275Y006565D01*
X008402Y007417D02*
X008404Y007417D01*
X008404Y007519D01*
X008575Y007801D02*
X009115Y007801D01*
X009038Y007724D02*
X008652Y007724D01*
X009687Y010196D02*
X010245Y010196D01*
X010127Y010273D02*
X009687Y010273D01*
X009687Y010350D02*
X010050Y010350D01*
X010005Y010427D02*
X009687Y010427D01*
X009687Y010505D02*
X009973Y010505D01*
X009947Y010582D02*
X009687Y010582D01*
X009682Y010659D02*
X009947Y010659D01*
X009947Y010736D02*
X009604Y010736D01*
X009521Y010814D02*
X009963Y010814D01*
X009995Y010891D02*
X009598Y010891D01*
X009648Y010968D02*
X010027Y010968D01*
X011045Y006720D02*
X011294Y006720D01*
X011217Y006643D02*
X011109Y006643D01*
X009089Y004634D02*
X008800Y004634D01*
X008722Y004557D02*
X008949Y004557D01*
X009029Y001854D02*
X008775Y001854D01*
X008698Y001776D02*
X008925Y001776D01*
X008865Y001699D02*
X008536Y001699D01*
X008833Y001622D02*
X008153Y001622D01*
X009306Y001158D02*
X012541Y001158D01*
X012541Y001236D02*
X009442Y001236D01*
X009423Y016916D02*
X008336Y016916D01*
X008407Y016993D02*
X009457Y016993D01*
X009535Y017070D02*
X008407Y017070D01*
X008407Y017147D02*
X009612Y017147D01*
X009689Y017224D02*
X008407Y017224D01*
X008407Y017302D02*
X009766Y017302D01*
X009844Y017379D02*
X008407Y017379D01*
X008407Y017456D02*
X012541Y017456D01*
X012541Y017379D02*
X010514Y017379D01*
X010591Y017302D02*
X012541Y017302D01*
X012541Y017224D02*
X010668Y017224D01*
X010398Y019696D02*
X011436Y019696D01*
X011359Y019773D02*
X010475Y019773D01*
X010552Y019851D02*
X011282Y019851D01*
X011204Y019928D02*
X010629Y019928D01*
X010633Y020005D02*
X011201Y020005D01*
X011201Y020082D02*
X010633Y020082D01*
X010633Y020160D02*
X011201Y020160D01*
X011201Y020237D02*
X010633Y020237D01*
X010627Y020314D02*
X011207Y020314D01*
X011284Y020391D02*
X010550Y020391D01*
X012541Y017688D02*
X007809Y017688D01*
X008340Y017611D02*
X012541Y017611D01*
X012541Y017533D02*
X008407Y017533D01*
D28*
X007226Y020612D03*
X005651Y020612D03*
X005651Y026517D03*
X007226Y026517D03*
D29*
X006439Y024903D03*
X003880Y017954D03*
X002698Y016675D03*
X001222Y016675D03*
X010179Y016675D03*
X011655Y016675D03*
D30*
X007423Y029273D03*
X005454Y029273D03*
D31*
X004470Y024343D02*
X004439Y024343D01*
X004439Y024026D01*
X004470Y023958D01*
X004439Y021587D02*
X004439Y021233D01*
X004470Y021202D01*
X002698Y016675D02*
X002698Y015986D01*
X008438Y022787D02*
X008438Y023140D01*
X008407Y023171D01*
X008438Y025543D02*
X008407Y025574D01*
X008407Y025927D01*
X010179Y016675D02*
X010179Y015986D01*
X011655Y015986D02*
X011655Y016675D01*
D32*
X008407Y023171D03*
X008407Y025927D03*
X004470Y023958D03*
X004470Y021202D03*
D33*
X006439Y017265D02*
X006439Y014813D01*
X006439Y013813D01*
D34*
X006123Y013289D02*
X006124Y013289D01*
X006123Y013289D02*
X005937Y013104D01*
X005715Y012881D02*
X005439Y013157D01*
X005439Y013813D01*
X004943Y014313D02*
X005439Y014809D01*
X005439Y014813D01*
X004943Y014313D02*
X004943Y013208D01*
X005492Y012658D01*
X005269Y012436D02*
X004439Y013266D01*
X004439Y013813D01*
X003978Y012344D02*
X004175Y012194D01*
X004601Y011768D01*
X004379Y011545D02*
X003973Y011950D01*
X003880Y011950D01*
X003486Y012344D01*
X003486Y012443D01*
X003030Y011557D02*
X002895Y011557D01*
X003030Y011557D02*
X003710Y010877D01*
X003933Y011099D02*
X001222Y013909D01*
X001222Y015395D01*
X001222Y015986D02*
X001222Y016675D01*
X002403Y015395D02*
X001813Y014805D01*
X001813Y013665D01*
X004156Y011322D01*
X003710Y009874D02*
X003424Y009588D01*
X002600Y009588D01*
X002009Y010179D01*
X002009Y011557D01*
X000911Y010391D02*
X002108Y009194D01*
X003476Y009194D01*
X003933Y009652D01*
X004156Y009429D02*
X003528Y008801D01*
X002698Y008801D01*
X001911Y008013D01*
X001911Y007423D01*
X001419Y007423D02*
X000927Y007423D01*
X000533Y007029D01*
X000533Y006340D01*
X000533Y005553D01*
X001320Y005553D02*
X001813Y005061D01*
X002108Y005061D01*
X002108Y003584D01*
X002797Y002895D01*
X003978Y002895D01*
X004569Y003486D01*
X004569Y003683D01*
X004864Y003978D01*
X005946Y003978D01*
X006196Y004228D01*
X006196Y005002D01*
X006696Y005511D02*
X006163Y006045D01*
X005848Y006045D01*
X005061Y006832D01*
X005061Y007661D01*
X005492Y008093D01*
X005269Y008316D02*
X004765Y007812D01*
X004765Y006734D01*
X005196Y006303D01*
X005196Y005002D01*
X005946Y006340D02*
X005356Y006931D01*
X005356Y007511D01*
X005715Y007870D01*
X005937Y007647D02*
X005946Y007647D01*
X005946Y007226D01*
X005946Y006340D02*
X006360Y006340D01*
X007423Y005179D01*
X007423Y004549D01*
X006696Y005002D02*
X006696Y005511D01*
X007622Y006535D02*
X007324Y006832D01*
X007324Y007128D01*
X007639Y007443D01*
X007639Y007839D01*
X007385Y008093D01*
X007608Y008316D02*
X008404Y007519D01*
X008402Y007417D02*
X009196Y007381D01*
X009586Y006992D02*
X009205Y006749D01*
X008569Y006248D02*
X007909Y006248D01*
X007622Y006535D01*
X007677Y006338D01*
X006931Y007226D02*
X006931Y007647D01*
X006940Y007647D01*
X008053Y008761D02*
X006439Y010376D01*
X005993Y010376D01*
X004601Y008984D01*
X003631Y008013D01*
X003584Y008013D01*
X003584Y007698D01*
X003584Y008013D02*
X003092Y008013D01*
X002856Y007777D01*
X002856Y006439D01*
X002836Y006320D01*
X002836Y005336D01*
X002580Y005336D01*
X002305Y005061D01*
X002108Y005061D01*
X002836Y004588D02*
X002895Y004529D01*
X002895Y004057D01*
X003880Y004057D02*
X003880Y004529D01*
X003939Y004588D01*
X004372Y004588D01*
X004372Y005336D01*
X003939Y005336D01*
X003939Y005789D01*
X003880Y005848D01*
X003579Y008407D02*
X004379Y009206D01*
X003579Y008407D02*
X002797Y008407D01*
X002403Y008013D01*
X002403Y007423D01*
X001419Y008525D02*
X000864Y008525D01*
X000828Y008391D01*
X000828Y010391D02*
X000911Y010391D01*
X002403Y015395D02*
X002698Y015395D01*
X003483Y013528D02*
X003731Y013528D01*
X005047Y012213D01*
X006439Y010376D02*
X008053Y011990D01*
X008053Y011990D01*
X008506Y012443D01*
X009687Y012443D01*
X009883Y012639D01*
X009883Y012757D01*
X010376Y012836D01*
X010376Y012246D02*
X010277Y012147D01*
X008899Y012147D01*
X008899Y011950D01*
X008899Y012147D02*
X008656Y012147D01*
X008276Y011768D01*
X008721Y011322D02*
X009251Y011852D01*
X010671Y011852D01*
X010966Y012147D01*
X010966Y012246D01*
X010966Y012836D02*
X010966Y013210D01*
X011557Y013210D02*
X011557Y012836D01*
X011557Y012246D02*
X011557Y012147D01*
X010966Y011557D01*
X009401Y011557D01*
X008944Y011099D01*
X009167Y010877D02*
X009552Y011261D01*
X011261Y011261D01*
X012147Y012147D01*
X012147Y012246D01*
X012147Y012836D02*
X012147Y013210D01*
X011655Y015395D02*
X011458Y015395D01*
X010671Y016183D01*
X010671Y016832D01*
X010336Y017167D01*
X010021Y017167D01*
X009687Y016832D01*
X009687Y014805D01*
X008880Y013998D01*
X008880Y013407D01*
X008840Y013368D01*
X008094Y013368D01*
X007385Y012658D01*
X007608Y012436D02*
X008264Y013092D01*
X009116Y013092D01*
X009194Y013171D01*
X009194Y013820D01*
X010179Y014805D01*
X010179Y015395D01*
X011616Y015395D02*
X011655Y015395D01*
X009332Y010376D02*
X008407Y010376D01*
X008721Y009429D02*
X009054Y009096D01*
X010080Y009096D01*
X009785Y008801D02*
X010474Y008112D01*
X010376Y007521D02*
X010179Y007521D01*
X009883Y007817D01*
X009883Y008013D01*
X009492Y008405D01*
X009389Y008307D01*
X009295Y008405D01*
X009194Y008506D01*
X008309Y008506D01*
X008053Y008761D01*
X008499Y009206D02*
X008904Y008801D01*
X009785Y008801D01*
X009785Y009391D02*
X009785Y009490D01*
X009785Y009391D02*
X009205Y009391D01*
X008944Y009652D01*
X009167Y009874D02*
X009256Y009883D01*
X009982Y009883D01*
X010474Y009293D01*
X010474Y008899D01*
X011065Y008309D01*
X011065Y007817D01*
X010769Y007521D01*
X010769Y006340D01*
X010474Y005946D02*
X010277Y006143D01*
X010277Y006537D01*
X010474Y006734D01*
X010474Y007423D01*
X010376Y007521D01*
X011163Y005946D02*
X011557Y005553D01*
X008368Y003407D02*
X007206Y002206D01*
X006399Y002206D01*
X006196Y002448D01*
X006196Y002954D01*
X005696Y002456D02*
X006301Y001852D01*
X007994Y001852D01*
X008368Y002226D01*
X007423Y001498D02*
X006202Y001498D01*
X005196Y002464D01*
X005196Y002954D01*
X005696Y002954D02*
X005696Y002456D01*
X005439Y017265D02*
X004805Y017265D01*
X003978Y017265D02*
X003978Y017856D01*
X003880Y017954D01*
D35*
X006124Y013289D03*
X003486Y012443D03*
X002895Y011557D03*
X002009Y011557D03*
X001911Y007423D03*
X001419Y007423D03*
X002403Y007423D03*
X003880Y005848D03*
X005946Y007226D03*
X006931Y007226D03*
X007423Y004549D03*
X007423Y001498D03*
X010080Y009096D03*
X009785Y009490D03*
X008899Y011950D03*
X010966Y013210D03*
X011557Y013210D03*
X012147Y013210D03*
D36*
X008053Y017265D02*
X007439Y017265D01*
X007439Y016320D01*
X007502Y016320D01*
X005454Y016675D02*
X005439Y016675D01*
X005439Y017265D01*
D37*
X003978Y012344D03*
M02*
