G75*
G70*
%OFA0B0*%
%FSLAX24Y24*%
%IPPOS*%
%LPD*%
%AMOC8*
5,1,8,0,0,1.08239X$1,22.5*
%
%ADD10C,0.0000*%
%ADD11C,0.0050*%
%ADD12C,0.0090*%
%ADD13C,0.0080*%
%ADD14C,0.0060*%
%ADD15C,0.0160*%
%ADD16C,0.0079*%
%ADD17C,0.0063*%
%ADD18C,0.0197*%
%ADD19C,0.0315*%
%ADD20C,0.0030*%
%ADD21R,0.0008X0.0004*%
%ADD22R,0.0016X0.0004*%
%ADD23R,0.0020X0.0004*%
%ADD24R,0.0035X0.0004*%
%ADD25R,0.0039X0.0004*%
%ADD26R,0.0051X0.0004*%
%ADD27R,0.0059X0.0004*%
%ADD28R,0.0031X0.0004*%
%ADD29R,0.0028X0.0004*%
%ADD30R,0.0012X0.0004*%
%ADD31R,0.0024X0.0004*%
%ADD32R,0.0004X0.0004*%
%ADD33R,0.0047X0.0004*%
%ADD34R,0.0055X0.0004*%
%ADD35R,0.0063X0.0004*%
%ADD36R,0.0071X0.0004*%
%ADD37R,0.0043X0.0004*%
D10*
X000139Y000927D02*
X000139Y030454D01*
X012738Y030454D01*
X012738Y000927D01*
X000139Y000927D01*
X000690Y002108D02*
X000692Y002158D01*
X000698Y002208D01*
X000708Y002257D01*
X000722Y002305D01*
X000739Y002352D01*
X000760Y002397D01*
X000785Y002441D01*
X000813Y002482D01*
X000845Y002521D01*
X000879Y002558D01*
X000916Y002592D01*
X000956Y002622D01*
X000998Y002649D01*
X001042Y002673D01*
X001088Y002694D01*
X001135Y002710D01*
X001183Y002723D01*
X001233Y002732D01*
X001282Y002737D01*
X001333Y002738D01*
X001383Y002735D01*
X001432Y002728D01*
X001481Y002717D01*
X001529Y002702D01*
X001575Y002684D01*
X001620Y002662D01*
X001663Y002636D01*
X001704Y002607D01*
X001743Y002575D01*
X001779Y002540D01*
X001811Y002502D01*
X001841Y002462D01*
X001868Y002419D01*
X001891Y002375D01*
X001910Y002329D01*
X001926Y002281D01*
X001938Y002232D01*
X001946Y002183D01*
X001950Y002133D01*
X001950Y002083D01*
X001946Y002033D01*
X001938Y001984D01*
X001926Y001935D01*
X001910Y001887D01*
X001891Y001841D01*
X001868Y001797D01*
X001841Y001754D01*
X001811Y001714D01*
X001779Y001676D01*
X001743Y001641D01*
X001704Y001609D01*
X001663Y001580D01*
X001620Y001554D01*
X001575Y001532D01*
X001529Y001514D01*
X001481Y001499D01*
X001432Y001488D01*
X001383Y001481D01*
X001333Y001478D01*
X001282Y001479D01*
X001233Y001484D01*
X001183Y001493D01*
X001135Y001506D01*
X001088Y001522D01*
X001042Y001543D01*
X000998Y001567D01*
X000956Y001594D01*
X000916Y001624D01*
X000879Y001658D01*
X000845Y001695D01*
X000813Y001734D01*
X000785Y001775D01*
X000760Y001819D01*
X000739Y001864D01*
X000722Y001911D01*
X000708Y001959D01*
X000698Y002008D01*
X000692Y002058D01*
X000690Y002108D01*
X009017Y001517D02*
X009019Y001543D01*
X009025Y001569D01*
X009035Y001594D01*
X009048Y001617D01*
X009064Y001637D01*
X009084Y001655D01*
X009106Y001670D01*
X009129Y001682D01*
X009155Y001690D01*
X009181Y001694D01*
X009207Y001694D01*
X009233Y001690D01*
X009259Y001682D01*
X009283Y001670D01*
X009304Y001655D01*
X009324Y001637D01*
X009340Y001617D01*
X009353Y001594D01*
X009363Y001569D01*
X009369Y001543D01*
X009371Y001517D01*
X009369Y001491D01*
X009363Y001465D01*
X009353Y001440D01*
X009340Y001417D01*
X009324Y001397D01*
X009304Y001379D01*
X009282Y001364D01*
X009259Y001352D01*
X009233Y001344D01*
X009207Y001340D01*
X009181Y001340D01*
X009155Y001344D01*
X009129Y001352D01*
X009105Y001364D01*
X009084Y001379D01*
X009064Y001397D01*
X009048Y001417D01*
X009035Y001440D01*
X009025Y001465D01*
X009019Y001491D01*
X009017Y001517D01*
X009017Y004273D02*
X009019Y004299D01*
X009025Y004325D01*
X009035Y004350D01*
X009048Y004373D01*
X009064Y004393D01*
X009084Y004411D01*
X009106Y004426D01*
X009129Y004438D01*
X009155Y004446D01*
X009181Y004450D01*
X009207Y004450D01*
X009233Y004446D01*
X009259Y004438D01*
X009283Y004426D01*
X009304Y004411D01*
X009324Y004393D01*
X009340Y004373D01*
X009353Y004350D01*
X009363Y004325D01*
X009369Y004299D01*
X009371Y004273D01*
X009369Y004247D01*
X009363Y004221D01*
X009353Y004196D01*
X009340Y004173D01*
X009324Y004153D01*
X009304Y004135D01*
X009282Y004120D01*
X009259Y004108D01*
X009233Y004100D01*
X009207Y004096D01*
X009181Y004096D01*
X009155Y004100D01*
X009129Y004108D01*
X009105Y004120D01*
X009084Y004135D01*
X009064Y004153D01*
X009048Y004173D01*
X009035Y004196D01*
X009025Y004221D01*
X009019Y004247D01*
X009017Y004273D01*
X010927Y002108D02*
X010929Y002158D01*
X010935Y002208D01*
X010945Y002257D01*
X010959Y002305D01*
X010976Y002352D01*
X010997Y002397D01*
X011022Y002441D01*
X011050Y002482D01*
X011082Y002521D01*
X011116Y002558D01*
X011153Y002592D01*
X011193Y002622D01*
X011235Y002649D01*
X011279Y002673D01*
X011325Y002694D01*
X011372Y002710D01*
X011420Y002723D01*
X011470Y002732D01*
X011519Y002737D01*
X011570Y002738D01*
X011620Y002735D01*
X011669Y002728D01*
X011718Y002717D01*
X011766Y002702D01*
X011812Y002684D01*
X011857Y002662D01*
X011900Y002636D01*
X011941Y002607D01*
X011980Y002575D01*
X012016Y002540D01*
X012048Y002502D01*
X012078Y002462D01*
X012105Y002419D01*
X012128Y002375D01*
X012147Y002329D01*
X012163Y002281D01*
X012175Y002232D01*
X012183Y002183D01*
X012187Y002133D01*
X012187Y002083D01*
X012183Y002033D01*
X012175Y001984D01*
X012163Y001935D01*
X012147Y001887D01*
X012128Y001841D01*
X012105Y001797D01*
X012078Y001754D01*
X012048Y001714D01*
X012016Y001676D01*
X011980Y001641D01*
X011941Y001609D01*
X011900Y001580D01*
X011857Y001554D01*
X011812Y001532D01*
X011766Y001514D01*
X011718Y001499D01*
X011669Y001488D01*
X011620Y001481D01*
X011570Y001478D01*
X011519Y001479D01*
X011470Y001484D01*
X011420Y001493D01*
X011372Y001506D01*
X011325Y001522D01*
X011279Y001543D01*
X011235Y001567D01*
X011193Y001594D01*
X011153Y001624D01*
X011116Y001658D01*
X011082Y001695D01*
X011050Y001734D01*
X011022Y001775D01*
X010997Y001819D01*
X010976Y001864D01*
X010959Y001911D01*
X010945Y001959D01*
X010935Y002008D01*
X010929Y002058D01*
X010927Y002108D01*
X010927Y029273D02*
X010929Y029323D01*
X010935Y029373D01*
X010945Y029422D01*
X010959Y029470D01*
X010976Y029517D01*
X010997Y029562D01*
X011022Y029606D01*
X011050Y029647D01*
X011082Y029686D01*
X011116Y029723D01*
X011153Y029757D01*
X011193Y029787D01*
X011235Y029814D01*
X011279Y029838D01*
X011325Y029859D01*
X011372Y029875D01*
X011420Y029888D01*
X011470Y029897D01*
X011519Y029902D01*
X011570Y029903D01*
X011620Y029900D01*
X011669Y029893D01*
X011718Y029882D01*
X011766Y029867D01*
X011812Y029849D01*
X011857Y029827D01*
X011900Y029801D01*
X011941Y029772D01*
X011980Y029740D01*
X012016Y029705D01*
X012048Y029667D01*
X012078Y029627D01*
X012105Y029584D01*
X012128Y029540D01*
X012147Y029494D01*
X012163Y029446D01*
X012175Y029397D01*
X012183Y029348D01*
X012187Y029298D01*
X012187Y029248D01*
X012183Y029198D01*
X012175Y029149D01*
X012163Y029100D01*
X012147Y029052D01*
X012128Y029006D01*
X012105Y028962D01*
X012078Y028919D01*
X012048Y028879D01*
X012016Y028841D01*
X011980Y028806D01*
X011941Y028774D01*
X011900Y028745D01*
X011857Y028719D01*
X011812Y028697D01*
X011766Y028679D01*
X011718Y028664D01*
X011669Y028653D01*
X011620Y028646D01*
X011570Y028643D01*
X011519Y028644D01*
X011470Y028649D01*
X011420Y028658D01*
X011372Y028671D01*
X011325Y028687D01*
X011279Y028708D01*
X011235Y028732D01*
X011193Y028759D01*
X011153Y028789D01*
X011116Y028823D01*
X011082Y028860D01*
X011050Y028899D01*
X011022Y028940D01*
X010997Y028984D01*
X010976Y029029D01*
X010959Y029076D01*
X010945Y029124D01*
X010935Y029173D01*
X010929Y029223D01*
X010927Y029273D01*
X000690Y029273D02*
X000692Y029323D01*
X000698Y029373D01*
X000708Y029422D01*
X000722Y029470D01*
X000739Y029517D01*
X000760Y029562D01*
X000785Y029606D01*
X000813Y029647D01*
X000845Y029686D01*
X000879Y029723D01*
X000916Y029757D01*
X000956Y029787D01*
X000998Y029814D01*
X001042Y029838D01*
X001088Y029859D01*
X001135Y029875D01*
X001183Y029888D01*
X001233Y029897D01*
X001282Y029902D01*
X001333Y029903D01*
X001383Y029900D01*
X001432Y029893D01*
X001481Y029882D01*
X001529Y029867D01*
X001575Y029849D01*
X001620Y029827D01*
X001663Y029801D01*
X001704Y029772D01*
X001743Y029740D01*
X001779Y029705D01*
X001811Y029667D01*
X001841Y029627D01*
X001868Y029584D01*
X001891Y029540D01*
X001910Y029494D01*
X001926Y029446D01*
X001938Y029397D01*
X001946Y029348D01*
X001950Y029298D01*
X001950Y029248D01*
X001946Y029198D01*
X001938Y029149D01*
X001926Y029100D01*
X001910Y029052D01*
X001891Y029006D01*
X001868Y028962D01*
X001841Y028919D01*
X001811Y028879D01*
X001779Y028841D01*
X001743Y028806D01*
X001704Y028774D01*
X001663Y028745D01*
X001620Y028719D01*
X001575Y028697D01*
X001529Y028679D01*
X001481Y028664D01*
X001432Y028653D01*
X001383Y028646D01*
X001333Y028643D01*
X001282Y028644D01*
X001233Y028649D01*
X001183Y028658D01*
X001135Y028671D01*
X001088Y028687D01*
X001042Y028708D01*
X000998Y028732D01*
X000956Y028759D01*
X000916Y028789D01*
X000879Y028823D01*
X000845Y028860D01*
X000813Y028899D01*
X000785Y028940D01*
X000760Y028984D01*
X000739Y029029D01*
X000722Y029076D01*
X000708Y029124D01*
X000698Y029173D01*
X000692Y029223D01*
X000690Y029273D01*
D11*
X001178Y007165D02*
X001368Y007165D01*
X001463Y007070D01*
X001368Y006975D01*
X001178Y006975D01*
X001178Y006857D02*
X001178Y006667D01*
X001320Y006667D01*
X001273Y006762D01*
X001273Y006810D01*
X001320Y006857D01*
X001415Y006857D01*
X001463Y006810D01*
X001463Y006715D01*
X001415Y006667D01*
X001368Y005015D02*
X001178Y005015D01*
X001368Y005015D02*
X001463Y004920D01*
X001368Y004825D01*
X001178Y004825D01*
X001225Y004706D02*
X001273Y004706D01*
X001320Y004659D01*
X001368Y004706D01*
X001415Y004706D01*
X001463Y004659D01*
X001463Y004564D01*
X001415Y004516D01*
X001415Y004410D02*
X001463Y004410D01*
X001463Y004362D01*
X001415Y004362D01*
X001415Y004410D01*
X001415Y004244D02*
X001463Y004197D01*
X001463Y004102D01*
X001415Y004054D01*
X001320Y004149D02*
X001320Y004197D01*
X001368Y004244D01*
X001415Y004244D01*
X001320Y004197D02*
X001273Y004244D01*
X001225Y004244D01*
X001178Y004197D01*
X001178Y004102D01*
X001225Y004054D01*
X001225Y004516D02*
X001178Y004564D01*
X001178Y004659D01*
X001225Y004706D01*
X001320Y004659D02*
X001320Y004611D01*
X000675Y004582D02*
X000675Y004439D01*
X000391Y004439D01*
X000391Y004582D01*
X000438Y004629D01*
X000485Y004629D01*
X000533Y004582D01*
X000533Y004439D01*
X000533Y004321D02*
X000580Y004274D01*
X000580Y004131D01*
X000580Y004226D02*
X000675Y004321D01*
X000533Y004321D02*
X000438Y004321D01*
X000391Y004274D01*
X000391Y004131D01*
X000675Y004131D01*
X000675Y004582D02*
X000628Y004629D01*
X000580Y004629D01*
X000533Y004582D01*
X000580Y004748D02*
X000533Y004795D01*
X000533Y004890D01*
X000580Y004937D01*
X000628Y004937D01*
X000675Y004890D01*
X000675Y004795D01*
X000628Y004748D01*
X000580Y004748D01*
X000533Y004795D02*
X000485Y004748D01*
X000438Y004748D01*
X000391Y004795D01*
X000391Y004890D01*
X000438Y004937D01*
X000485Y004937D01*
X000533Y004890D01*
X001965Y004890D02*
X001965Y004748D01*
X002250Y004748D01*
X002250Y004890D01*
X002203Y004937D01*
X002013Y004937D01*
X001965Y004890D01*
X001965Y004629D02*
X002250Y004629D01*
X001965Y004439D01*
X002250Y004439D01*
X002203Y004321D02*
X002108Y004321D01*
X002108Y004226D01*
X002013Y004131D02*
X002203Y004131D01*
X002250Y004179D01*
X002250Y004274D01*
X002203Y004321D01*
X002013Y004321D02*
X001965Y004274D01*
X001965Y004179D01*
X002013Y004131D01*
X007836Y006395D02*
X008026Y006395D01*
X008121Y006490D01*
X008026Y006585D01*
X007836Y006585D01*
X007836Y006703D02*
X007836Y006846D01*
X007884Y006893D01*
X007979Y006893D01*
X008026Y006846D01*
X008026Y006703D01*
X008121Y006703D02*
X007836Y006703D01*
X007836Y007011D02*
X007836Y007154D01*
X007884Y007201D01*
X007979Y007201D01*
X008026Y007154D01*
X008026Y007011D01*
X008121Y007011D02*
X007836Y007011D01*
X008336Y007011D02*
X008336Y007154D01*
X008384Y007201D01*
X008574Y007201D01*
X008621Y007154D01*
X008621Y007011D01*
X008336Y007011D01*
X008384Y006893D02*
X008336Y006846D01*
X008336Y006703D01*
X008621Y006703D01*
X008621Y006846D01*
X008574Y006893D01*
X008384Y006893D01*
X008336Y006585D02*
X008526Y006585D01*
X008621Y006490D01*
X008526Y006395D01*
X008336Y006395D01*
X008836Y006443D02*
X008884Y006395D01*
X009074Y006395D01*
X009121Y006443D01*
X009121Y006538D01*
X009074Y006585D01*
X008979Y006585D01*
X008979Y006490D01*
X008884Y006585D02*
X008836Y006538D01*
X008836Y006443D01*
X008836Y006703D02*
X009121Y006893D01*
X008836Y006893D01*
X008836Y007011D02*
X008836Y007154D01*
X008884Y007201D01*
X009074Y007201D01*
X009121Y007154D01*
X009121Y007011D01*
X008836Y007011D01*
X008836Y006703D02*
X009121Y006703D01*
X010627Y004890D02*
X010769Y004748D01*
X010769Y004937D01*
X010627Y004890D02*
X010912Y004890D01*
X010912Y004629D02*
X010627Y004629D01*
X010627Y004439D02*
X010912Y004629D01*
X010912Y004439D02*
X010627Y004439D01*
X010722Y004321D02*
X010627Y004226D01*
X010722Y004131D01*
X010912Y004131D01*
X010769Y004131D02*
X010769Y004321D01*
X010722Y004321D02*
X010912Y004321D01*
X011414Y004197D02*
X011462Y004244D01*
X011509Y004244D01*
X011557Y004197D01*
X011604Y004244D01*
X011652Y004244D01*
X011699Y004197D01*
X011699Y004102D01*
X011652Y004054D01*
X011557Y004149D02*
X011557Y004197D01*
X011414Y004197D02*
X011414Y004102D01*
X011462Y004054D01*
X011652Y004362D02*
X011652Y004410D01*
X011699Y004410D01*
X011699Y004362D01*
X011652Y004362D01*
X011652Y004516D02*
X011699Y004564D01*
X011699Y004659D01*
X011652Y004706D01*
X011604Y004706D01*
X011557Y004659D01*
X011557Y004611D01*
X011557Y004659D02*
X011509Y004706D01*
X011462Y004706D01*
X011414Y004659D01*
X011414Y004564D01*
X011462Y004516D01*
X011414Y004825D02*
X011604Y004825D01*
X011699Y004920D01*
X011604Y005015D01*
X011414Y005015D01*
X011414Y006667D02*
X011557Y006667D01*
X011509Y006762D01*
X011509Y006810D01*
X011557Y006857D01*
X011652Y006857D01*
X011699Y006810D01*
X011699Y006715D01*
X011652Y006667D01*
X011604Y006975D02*
X011699Y007070D01*
X011604Y007165D01*
X011414Y007165D01*
X011414Y006975D02*
X011604Y006975D01*
X011414Y006857D02*
X011414Y006667D01*
X012249Y004937D02*
X012202Y004890D01*
X012202Y004748D01*
X012486Y004748D01*
X012486Y004890D01*
X012439Y004937D01*
X012249Y004937D01*
X012202Y004629D02*
X012486Y004629D01*
X012202Y004439D01*
X012486Y004439D01*
X012439Y004321D02*
X012344Y004321D01*
X012344Y004226D01*
X012249Y004131D02*
X012439Y004131D01*
X012486Y004179D01*
X012486Y004274D01*
X012439Y004321D01*
X012249Y004321D02*
X012202Y004274D01*
X012202Y004179D01*
X012249Y004131D01*
D12*
X009770Y029023D02*
X009436Y029023D01*
X009770Y029357D01*
X009770Y029440D01*
X009687Y029524D01*
X009520Y029524D01*
X009436Y029440D01*
X009227Y029524D02*
X009227Y029023D01*
X008893Y029023D02*
X008893Y029524D01*
X009060Y029357D01*
X009227Y029524D01*
X003865Y029023D02*
X003531Y029023D01*
X003698Y029023D02*
X003698Y029524D01*
X003531Y029357D01*
X003321Y029524D02*
X003321Y029023D01*
X002987Y029023D02*
X002987Y029524D01*
X003154Y029357D01*
X003321Y029524D01*
D13*
X001153Y016053D02*
X001428Y015916D01*
X001153Y015778D01*
X001084Y015600D02*
X001359Y015325D01*
X001428Y015394D01*
X001428Y015531D01*
X001359Y015600D01*
X001084Y015600D01*
X001016Y015531D01*
X001016Y015394D01*
X001084Y015325D01*
X001359Y015325D01*
X001359Y015167D02*
X001428Y015167D01*
X001428Y015099D01*
X001359Y015099D01*
X001359Y015167D01*
X001428Y014920D02*
X001428Y014645D01*
X001428Y014783D02*
X001016Y014783D01*
X001153Y014645D01*
X001153Y014014D02*
X001153Y013808D01*
X001222Y013739D01*
X001359Y013739D01*
X001428Y013808D01*
X001428Y014014D01*
X001016Y014014D01*
X001222Y013561D02*
X001153Y013492D01*
X001222Y013423D01*
X001428Y013423D01*
X001428Y013286D02*
X001153Y013286D01*
X001153Y013355D01*
X001222Y013423D01*
X001222Y013561D02*
X001428Y013561D01*
X001428Y012655D02*
X001428Y012448D01*
X001359Y012380D01*
X001153Y012380D01*
X001153Y012208D02*
X001291Y012002D01*
X001428Y012208D01*
X001428Y012002D02*
X001016Y012002D01*
X001153Y011824D02*
X001153Y011618D01*
X001222Y011549D01*
X001291Y011618D01*
X001291Y011755D01*
X001359Y011824D01*
X001428Y011755D01*
X001428Y011549D01*
X001428Y011371D02*
X001428Y011165D01*
X001359Y011096D01*
X001222Y011096D01*
X001153Y011165D01*
X001153Y011371D01*
X001016Y011371D02*
X001428Y011371D01*
X001566Y012517D02*
X001566Y012586D01*
X001497Y012655D01*
X001153Y012655D01*
X010218Y010283D02*
X010218Y008500D01*
X010968Y008250D02*
X011752Y008250D01*
X010710Y009391D02*
X010712Y009441D01*
X010718Y009491D01*
X010728Y009541D01*
X010741Y009589D01*
X010758Y009637D01*
X010779Y009683D01*
X010803Y009727D01*
X010831Y009769D01*
X010862Y009809D01*
X010896Y009846D01*
X010933Y009881D01*
X010972Y009912D01*
X011013Y009941D01*
X011057Y009966D01*
X011103Y009988D01*
X011150Y010006D01*
X011198Y010020D01*
X011247Y010031D01*
X011297Y010038D01*
X011347Y010041D01*
X011398Y010040D01*
X011448Y010035D01*
X011498Y010026D01*
X011546Y010014D01*
X011594Y009997D01*
X011640Y009977D01*
X011685Y009954D01*
X011728Y009927D01*
X011768Y009897D01*
X011806Y009864D01*
X011841Y009828D01*
X011874Y009789D01*
X011903Y009748D01*
X011929Y009705D01*
X011952Y009660D01*
X011971Y009613D01*
X011986Y009565D01*
X011998Y009516D01*
X012006Y009466D01*
X012010Y009416D01*
X012010Y009366D01*
X012006Y009316D01*
X011998Y009266D01*
X011986Y009217D01*
X011971Y009169D01*
X011952Y009122D01*
X011929Y009077D01*
X011903Y009034D01*
X011874Y008993D01*
X011841Y008954D01*
X011806Y008918D01*
X011768Y008885D01*
X011728Y008855D01*
X011685Y008828D01*
X011640Y008805D01*
X011594Y008785D01*
X011546Y008768D01*
X011498Y008756D01*
X011448Y008747D01*
X011398Y008742D01*
X011347Y008741D01*
X011297Y008744D01*
X011247Y008751D01*
X011198Y008762D01*
X011150Y008776D01*
X011103Y008794D01*
X011057Y008816D01*
X011013Y008841D01*
X010972Y008870D01*
X010933Y008901D01*
X010896Y008936D01*
X010862Y008973D01*
X010831Y009013D01*
X010803Y009055D01*
X010779Y009099D01*
X010758Y009145D01*
X010741Y009193D01*
X010728Y009241D01*
X010718Y009291D01*
X010712Y009341D01*
X010710Y009391D01*
X010968Y010533D02*
X011752Y010533D01*
X012502Y010283D02*
X012502Y008500D01*
D14*
X007960Y011600D02*
X007960Y011822D01*
X007960Y011980D02*
X007960Y012203D01*
X007849Y012314D01*
X007737Y012203D01*
X007737Y011980D01*
X007737Y011822D02*
X007737Y011600D01*
X007849Y011488D01*
X007960Y011600D01*
X007960Y012147D02*
X007737Y012147D01*
X007235Y012259D02*
X007012Y012036D01*
X007012Y011980D01*
X007235Y011980D01*
X007179Y011822D02*
X007235Y011767D01*
X007235Y011711D01*
X007179Y011655D01*
X007012Y011655D01*
X007012Y011488D02*
X007012Y011822D01*
X007179Y011822D01*
X007179Y011655D02*
X007235Y011600D01*
X007235Y011544D01*
X007179Y011488D01*
X007012Y011488D01*
X007235Y012259D02*
X007235Y012314D01*
X007012Y012314D01*
X006510Y012259D02*
X006454Y012314D01*
X006343Y012314D01*
X006287Y012259D01*
X006287Y012036D01*
X006343Y011980D01*
X006454Y011980D01*
X006510Y012036D01*
X006510Y012147D01*
X006399Y012147D01*
X006454Y011822D02*
X006343Y011822D01*
X006287Y011767D01*
X006287Y011544D01*
X006343Y011488D01*
X006454Y011488D01*
X006510Y011544D01*
X006510Y011655D01*
X006399Y011655D01*
X006510Y011767D02*
X006454Y011822D01*
X005785Y011822D02*
X005785Y011767D01*
X005562Y011544D01*
X005562Y011488D01*
X005785Y011488D01*
X005785Y011822D02*
X005562Y011822D01*
X005562Y011980D02*
X005729Y011980D01*
X005785Y012036D01*
X005785Y012092D01*
X005729Y012147D01*
X005562Y012147D01*
X005562Y011980D02*
X005562Y012314D01*
X005729Y012314D01*
X005785Y012259D01*
X005785Y012203D01*
X005729Y012147D01*
X005060Y012092D02*
X005060Y012314D01*
X005060Y012092D02*
X004949Y011980D01*
X004837Y012092D01*
X004837Y012314D01*
X004949Y011822D02*
X004837Y011711D01*
X004837Y011488D01*
X004837Y011655D02*
X005060Y011655D01*
X005060Y011711D02*
X005060Y011488D01*
X005060Y011711D02*
X004949Y011822D01*
D15*
X006164Y021596D02*
X006714Y021596D01*
X006439Y025258D02*
X006439Y025808D01*
X006164Y025533D02*
X006714Y025533D01*
D16*
X008604Y027502D02*
X004273Y027502D01*
X004273Y030376D01*
X008604Y030376D01*
X008604Y027502D01*
X009962Y025100D02*
X009962Y024785D01*
X010080Y024391D02*
X010474Y024391D01*
X010474Y025494D02*
X010080Y025494D01*
X010080Y022738D02*
X010474Y022738D01*
X009962Y022344D02*
X009962Y022029D01*
X010080Y021635D02*
X010474Y021635D01*
X010887Y019667D02*
X010887Y018013D01*
X009470Y018013D01*
X009470Y019667D01*
X010887Y019667D01*
X010946Y019667D02*
X010946Y018013D01*
X012364Y018013D01*
X012364Y019667D01*
X010946Y019667D01*
X011095Y018250D02*
X011097Y018268D01*
X011103Y018286D01*
X011112Y018302D01*
X011124Y018315D01*
X011139Y018326D01*
X011156Y018334D01*
X011174Y018338D01*
X011192Y018338D01*
X011210Y018334D01*
X011227Y018326D01*
X011242Y018315D01*
X011254Y018302D01*
X011263Y018286D01*
X011269Y018268D01*
X011271Y018250D01*
X011269Y018232D01*
X011263Y018214D01*
X011254Y018198D01*
X011242Y018185D01*
X011227Y018174D01*
X011210Y018166D01*
X011192Y018162D01*
X011174Y018162D01*
X011156Y018166D01*
X011139Y018174D01*
X011124Y018185D01*
X011112Y018198D01*
X011103Y018214D01*
X011097Y018232D01*
X011095Y018250D01*
X010376Y016084D02*
X010376Y012541D01*
X002502Y012541D01*
X002502Y016084D01*
X010376Y016084D01*
X009618Y018250D02*
X009620Y018268D01*
X009626Y018286D01*
X009635Y018302D01*
X009647Y018315D01*
X009662Y018326D01*
X009679Y018334D01*
X009697Y018338D01*
X009715Y018338D01*
X009733Y018334D01*
X009750Y018326D01*
X009765Y018315D01*
X009777Y018302D01*
X009786Y018286D01*
X009792Y018268D01*
X009794Y018250D01*
X009792Y018232D01*
X009786Y018214D01*
X009777Y018198D01*
X009765Y018185D01*
X009750Y018174D01*
X009733Y018166D01*
X009715Y018162D01*
X009697Y018162D01*
X009679Y018166D01*
X009662Y018174D01*
X009647Y018185D01*
X009635Y018198D01*
X009626Y018214D01*
X009620Y018232D01*
X009618Y018250D01*
X008722Y019824D02*
X008722Y016478D01*
X004234Y016478D01*
X004234Y019824D01*
X008722Y019824D01*
X007226Y012817D02*
X005651Y012817D01*
X004667Y012443D02*
X004667Y011360D01*
X008210Y011360D01*
X008210Y012443D01*
X004667Y012443D01*
X004328Y010891D02*
X001238Y010891D01*
X001238Y010391D01*
X001238Y009391D01*
X001238Y008391D01*
X001238Y007891D01*
X004328Y007891D01*
X004328Y010891D01*
X004864Y010691D02*
X004864Y008092D01*
X005218Y008092D01*
X005218Y010691D02*
X004864Y010691D01*
X003368Y012817D02*
X003643Y013210D01*
X003092Y013210D01*
X003368Y012817D01*
X002621Y009391D02*
X002623Y009444D01*
X002629Y009496D01*
X002639Y009548D01*
X002652Y009599D01*
X002670Y009649D01*
X002691Y009698D01*
X002716Y009745D01*
X002744Y009789D01*
X002775Y009832D01*
X002810Y009872D01*
X002847Y009909D01*
X002887Y009944D01*
X002930Y009975D01*
X002975Y010003D01*
X003021Y010028D01*
X003070Y010049D01*
X003120Y010067D01*
X003171Y010080D01*
X003223Y010090D01*
X003275Y010096D01*
X003328Y010098D01*
X003381Y010096D01*
X003433Y010090D01*
X003485Y010080D01*
X003536Y010067D01*
X003586Y010049D01*
X003635Y010028D01*
X003682Y010003D01*
X003726Y009975D01*
X003769Y009944D01*
X003809Y009909D01*
X003846Y009872D01*
X003881Y009832D01*
X003912Y009789D01*
X003940Y009744D01*
X003965Y009698D01*
X003986Y009649D01*
X004004Y009599D01*
X004017Y009548D01*
X004027Y009496D01*
X004033Y009444D01*
X004035Y009391D01*
X004033Y009338D01*
X004027Y009286D01*
X004017Y009234D01*
X004004Y009183D01*
X003986Y009133D01*
X003965Y009084D01*
X003940Y009037D01*
X003912Y008993D01*
X003881Y008950D01*
X003846Y008910D01*
X003809Y008873D01*
X003769Y008838D01*
X003726Y008807D01*
X003681Y008779D01*
X003635Y008754D01*
X003586Y008733D01*
X003536Y008715D01*
X003485Y008702D01*
X003433Y008692D01*
X003381Y008686D01*
X003328Y008684D01*
X003275Y008686D01*
X003223Y008692D01*
X003171Y008702D01*
X003120Y008715D01*
X003070Y008733D01*
X003021Y008754D01*
X002974Y008779D01*
X002930Y008807D01*
X002887Y008838D01*
X002847Y008873D01*
X002810Y008910D01*
X002775Y008950D01*
X002744Y008993D01*
X002716Y009038D01*
X002691Y009084D01*
X002670Y009133D01*
X002652Y009183D01*
X002639Y009234D01*
X002629Y009286D01*
X002623Y009338D01*
X002621Y009391D01*
X001990Y018013D02*
X001990Y019667D01*
X003407Y019667D01*
X003407Y018013D01*
X001990Y018013D01*
X001931Y018013D02*
X000513Y018013D01*
X000513Y019667D01*
X001931Y019667D01*
X001931Y018013D01*
X002138Y018250D02*
X002140Y018268D01*
X002146Y018286D01*
X002155Y018302D01*
X002167Y018315D01*
X002182Y018326D01*
X002199Y018334D01*
X002217Y018338D01*
X002235Y018338D01*
X002253Y018334D01*
X002270Y018326D01*
X002285Y018315D01*
X002297Y018302D01*
X002306Y018286D01*
X002312Y018268D01*
X002314Y018250D01*
X002312Y018232D01*
X002306Y018214D01*
X002297Y018198D01*
X002285Y018185D01*
X002270Y018174D01*
X002253Y018166D01*
X002235Y018162D01*
X002217Y018162D01*
X002199Y018166D01*
X002182Y018174D01*
X002167Y018185D01*
X002155Y018198D01*
X002146Y018214D01*
X002140Y018232D01*
X002138Y018250D01*
X000662Y018250D02*
X000664Y018268D01*
X000670Y018286D01*
X000679Y018302D01*
X000691Y018315D01*
X000706Y018326D01*
X000723Y018334D01*
X000741Y018338D01*
X000759Y018338D01*
X000777Y018334D01*
X000794Y018326D01*
X000809Y018315D01*
X000821Y018302D01*
X000830Y018286D01*
X000836Y018268D01*
X000838Y018250D01*
X000836Y018232D01*
X000830Y018214D01*
X000821Y018198D01*
X000809Y018185D01*
X000794Y018174D01*
X000777Y018166D01*
X000759Y018162D01*
X000741Y018162D01*
X000723Y018166D01*
X000706Y018174D01*
X000691Y018185D01*
X000679Y018198D01*
X000670Y018214D01*
X000664Y018232D01*
X000662Y018250D01*
X002403Y021635D02*
X002797Y021635D01*
X002915Y022029D02*
X002915Y022344D01*
X002797Y022738D02*
X002403Y022738D01*
X002403Y024391D02*
X002797Y024391D01*
X002915Y024785D02*
X002915Y025100D01*
X002797Y025494D02*
X002403Y025494D01*
X009234Y010691D02*
X009588Y010691D01*
X009588Y008092D01*
X009234Y008092D01*
X009229Y007377D02*
X009229Y006237D01*
X008729Y006237D01*
X008229Y006237D01*
X008229Y007377D01*
X008729Y007377D01*
X009229Y007377D01*
X008729Y007377D02*
X008729Y006237D01*
X008229Y006237D02*
X007729Y006237D01*
X007729Y007377D01*
X008229Y007377D01*
D17*
X010454Y006675D02*
X010454Y003880D01*
X011084Y003880D01*
X011084Y006675D01*
X010454Y006675D01*
X011242Y007305D02*
X011242Y006006D01*
X011872Y006006D01*
X011872Y007305D01*
X011242Y007305D01*
X011242Y005887D02*
X011242Y003880D01*
X011872Y003880D01*
X011872Y005887D01*
X011242Y005887D01*
X012029Y006675D02*
X012659Y006675D01*
X012659Y003880D01*
X012029Y003880D01*
X012029Y006675D01*
X002423Y006675D02*
X002423Y003880D01*
X001793Y003880D01*
X001793Y006675D01*
X002423Y006675D01*
X001635Y007305D02*
X001635Y006006D01*
X001006Y006006D01*
X001006Y007305D01*
X001635Y007305D01*
X001635Y005887D02*
X001006Y005887D01*
X001006Y003880D01*
X001635Y003880D01*
X001635Y005887D01*
X000848Y006675D02*
X000218Y006675D01*
X000218Y003880D01*
X000848Y003880D01*
X000848Y006675D01*
D18*
X000730Y011163D02*
X000730Y015887D01*
X001813Y015887D02*
X001813Y011163D01*
D19*
X000454Y002108D02*
X000456Y002166D01*
X000462Y002225D01*
X000472Y002282D01*
X000485Y002339D01*
X000503Y002395D01*
X000524Y002450D01*
X000549Y002502D01*
X000577Y002554D01*
X000609Y002603D01*
X000644Y002650D01*
X000682Y002694D01*
X000723Y002736D01*
X000767Y002775D01*
X000813Y002810D01*
X000862Y002843D01*
X000913Y002872D01*
X000965Y002898D01*
X001019Y002920D01*
X001075Y002939D01*
X001131Y002953D01*
X001189Y002964D01*
X001247Y002971D01*
X001305Y002974D01*
X001364Y002973D01*
X001422Y002968D01*
X001480Y002959D01*
X001537Y002946D01*
X001593Y002930D01*
X001648Y002909D01*
X001701Y002885D01*
X001753Y002858D01*
X001803Y002827D01*
X001850Y002793D01*
X001895Y002755D01*
X001938Y002715D01*
X001977Y002672D01*
X002014Y002626D01*
X002047Y002578D01*
X002077Y002528D01*
X002104Y002476D01*
X002127Y002422D01*
X002146Y002367D01*
X002162Y002311D01*
X002174Y002254D01*
X002182Y002196D01*
X002186Y002137D01*
X002186Y002079D01*
X002182Y002020D01*
X002174Y001962D01*
X002162Y001905D01*
X002146Y001849D01*
X002127Y001794D01*
X002104Y001740D01*
X002077Y001688D01*
X002047Y001638D01*
X002014Y001590D01*
X001977Y001544D01*
X001938Y001501D01*
X001895Y001461D01*
X001850Y001423D01*
X001803Y001389D01*
X001753Y001358D01*
X001701Y001331D01*
X001648Y001307D01*
X001593Y001286D01*
X001537Y001270D01*
X001480Y001257D01*
X001422Y001248D01*
X001364Y001243D01*
X001305Y001242D01*
X001247Y001245D01*
X001189Y001252D01*
X001131Y001263D01*
X001075Y001277D01*
X001019Y001296D01*
X000965Y001318D01*
X000913Y001344D01*
X000862Y001373D01*
X000813Y001406D01*
X000767Y001441D01*
X000723Y001480D01*
X000682Y001522D01*
X000644Y001566D01*
X000609Y001613D01*
X000577Y001662D01*
X000549Y001714D01*
X000524Y001766D01*
X000503Y001821D01*
X000485Y001877D01*
X000472Y001934D01*
X000462Y001991D01*
X000456Y002050D01*
X000454Y002108D01*
X010691Y002108D02*
X010693Y002166D01*
X010699Y002225D01*
X010709Y002282D01*
X010722Y002339D01*
X010740Y002395D01*
X010761Y002450D01*
X010786Y002502D01*
X010814Y002554D01*
X010846Y002603D01*
X010881Y002650D01*
X010919Y002694D01*
X010960Y002736D01*
X011004Y002775D01*
X011050Y002810D01*
X011099Y002843D01*
X011150Y002872D01*
X011202Y002898D01*
X011256Y002920D01*
X011312Y002939D01*
X011368Y002953D01*
X011426Y002964D01*
X011484Y002971D01*
X011542Y002974D01*
X011601Y002973D01*
X011659Y002968D01*
X011717Y002959D01*
X011774Y002946D01*
X011830Y002930D01*
X011885Y002909D01*
X011938Y002885D01*
X011990Y002858D01*
X012040Y002827D01*
X012087Y002793D01*
X012132Y002755D01*
X012175Y002715D01*
X012214Y002672D01*
X012251Y002626D01*
X012284Y002578D01*
X012314Y002528D01*
X012341Y002476D01*
X012364Y002422D01*
X012383Y002367D01*
X012399Y002311D01*
X012411Y002254D01*
X012419Y002196D01*
X012423Y002137D01*
X012423Y002079D01*
X012419Y002020D01*
X012411Y001962D01*
X012399Y001905D01*
X012383Y001849D01*
X012364Y001794D01*
X012341Y001740D01*
X012314Y001688D01*
X012284Y001638D01*
X012251Y001590D01*
X012214Y001544D01*
X012175Y001501D01*
X012132Y001461D01*
X012087Y001423D01*
X012040Y001389D01*
X011990Y001358D01*
X011938Y001331D01*
X011885Y001307D01*
X011830Y001286D01*
X011774Y001270D01*
X011717Y001257D01*
X011659Y001248D01*
X011601Y001243D01*
X011542Y001242D01*
X011484Y001245D01*
X011426Y001252D01*
X011368Y001263D01*
X011312Y001277D01*
X011256Y001296D01*
X011202Y001318D01*
X011150Y001344D01*
X011099Y001373D01*
X011050Y001406D01*
X011004Y001441D01*
X010960Y001480D01*
X010919Y001522D01*
X010881Y001566D01*
X010846Y001613D01*
X010814Y001662D01*
X010786Y001714D01*
X010761Y001766D01*
X010740Y001821D01*
X010722Y001877D01*
X010709Y001934D01*
X010699Y001991D01*
X010693Y002050D01*
X010691Y002108D01*
X010691Y029273D02*
X010693Y029331D01*
X010699Y029390D01*
X010709Y029447D01*
X010722Y029504D01*
X010740Y029560D01*
X010761Y029615D01*
X010786Y029667D01*
X010814Y029719D01*
X010846Y029768D01*
X010881Y029815D01*
X010919Y029859D01*
X010960Y029901D01*
X011004Y029940D01*
X011050Y029975D01*
X011099Y030008D01*
X011150Y030037D01*
X011202Y030063D01*
X011256Y030085D01*
X011312Y030104D01*
X011368Y030118D01*
X011426Y030129D01*
X011484Y030136D01*
X011542Y030139D01*
X011601Y030138D01*
X011659Y030133D01*
X011717Y030124D01*
X011774Y030111D01*
X011830Y030095D01*
X011885Y030074D01*
X011938Y030050D01*
X011990Y030023D01*
X012040Y029992D01*
X012087Y029958D01*
X012132Y029920D01*
X012175Y029880D01*
X012214Y029837D01*
X012251Y029791D01*
X012284Y029743D01*
X012314Y029693D01*
X012341Y029641D01*
X012364Y029587D01*
X012383Y029532D01*
X012399Y029476D01*
X012411Y029419D01*
X012419Y029361D01*
X012423Y029302D01*
X012423Y029244D01*
X012419Y029185D01*
X012411Y029127D01*
X012399Y029070D01*
X012383Y029014D01*
X012364Y028959D01*
X012341Y028905D01*
X012314Y028853D01*
X012284Y028803D01*
X012251Y028755D01*
X012214Y028709D01*
X012175Y028666D01*
X012132Y028626D01*
X012087Y028588D01*
X012040Y028554D01*
X011990Y028523D01*
X011938Y028496D01*
X011885Y028472D01*
X011830Y028451D01*
X011774Y028435D01*
X011717Y028422D01*
X011659Y028413D01*
X011601Y028408D01*
X011542Y028407D01*
X011484Y028410D01*
X011426Y028417D01*
X011368Y028428D01*
X011312Y028442D01*
X011256Y028461D01*
X011202Y028483D01*
X011150Y028509D01*
X011099Y028538D01*
X011050Y028571D01*
X011004Y028606D01*
X010960Y028645D01*
X010919Y028687D01*
X010881Y028731D01*
X010846Y028778D01*
X010814Y028827D01*
X010786Y028879D01*
X010761Y028931D01*
X010740Y028986D01*
X010722Y029042D01*
X010709Y029099D01*
X010699Y029156D01*
X010693Y029215D01*
X010691Y029273D01*
X000453Y029273D02*
X000455Y029332D01*
X000461Y029390D01*
X000471Y029448D01*
X000484Y029504D01*
X000502Y029560D01*
X000523Y029615D01*
X000548Y029668D01*
X000577Y029719D01*
X000608Y029768D01*
X000643Y029815D01*
X000682Y029860D01*
X000723Y029901D01*
X000766Y029940D01*
X000813Y029976D01*
X000861Y030009D01*
X000912Y030038D01*
X000965Y030064D01*
X001019Y030086D01*
X001074Y030105D01*
X001131Y030119D01*
X001189Y030130D01*
X001247Y030137D01*
X001305Y030140D01*
X001364Y030139D01*
X001422Y030134D01*
X001480Y030125D01*
X001537Y030112D01*
X001593Y030096D01*
X001648Y030075D01*
X001702Y030051D01*
X001753Y030024D01*
X001803Y029993D01*
X001851Y029959D01*
X001896Y029921D01*
X001938Y029881D01*
X001978Y029838D01*
X002014Y029792D01*
X002048Y029744D01*
X002078Y029694D01*
X002105Y029642D01*
X002128Y029588D01*
X002147Y029533D01*
X002163Y029476D01*
X002175Y029419D01*
X002183Y029361D01*
X002187Y029302D01*
X002187Y029244D01*
X002183Y029185D01*
X002175Y029127D01*
X002163Y029070D01*
X002147Y029013D01*
X002128Y028958D01*
X002105Y028904D01*
X002078Y028852D01*
X002048Y028802D01*
X002014Y028754D01*
X001978Y028708D01*
X001938Y028665D01*
X001896Y028625D01*
X001851Y028587D01*
X001803Y028553D01*
X001754Y028522D01*
X001702Y028495D01*
X001648Y028471D01*
X001593Y028450D01*
X001537Y028434D01*
X001480Y028421D01*
X001422Y028412D01*
X001364Y028407D01*
X001305Y028406D01*
X001247Y028409D01*
X001189Y028416D01*
X001131Y028427D01*
X001074Y028441D01*
X001019Y028460D01*
X000965Y028482D01*
X000912Y028508D01*
X000861Y028537D01*
X000813Y028570D01*
X000766Y028606D01*
X000723Y028645D01*
X000682Y028686D01*
X000643Y028731D01*
X000608Y028778D01*
X000577Y028827D01*
X000548Y028878D01*
X000523Y028931D01*
X000502Y028986D01*
X000484Y029042D01*
X000471Y029098D01*
X000461Y029156D01*
X000455Y029214D01*
X000453Y029273D01*
D20*
X002360Y023937D02*
X002310Y023886D01*
X002310Y023784D01*
X002360Y023734D01*
X002462Y023734D01*
X002513Y023784D01*
X002615Y023784D01*
X002615Y023734D01*
X002615Y023629D02*
X002462Y023476D01*
X002513Y023425D02*
X002310Y023629D01*
X002310Y023425D02*
X002615Y023425D01*
X002615Y023321D02*
X002615Y023117D01*
X002615Y023219D02*
X002310Y023219D01*
X002411Y023117D01*
X002513Y023886D02*
X002615Y023886D01*
X002615Y023937D01*
X002513Y023886D02*
X002462Y023937D01*
X002360Y023937D01*
X003081Y023458D02*
X003183Y023560D01*
X003183Y023255D01*
X003081Y023255D02*
X003285Y023255D01*
X003390Y023306D02*
X003593Y023509D01*
X003593Y023306D01*
X003542Y023255D01*
X003440Y023255D01*
X003390Y023306D01*
X003390Y023509D01*
X003440Y023560D01*
X003542Y023560D01*
X003593Y023509D01*
X003698Y023560D02*
X003698Y023255D01*
X003698Y023356D02*
X003901Y023560D01*
X004006Y023509D02*
X004057Y023560D01*
X004158Y023560D01*
X004209Y023509D01*
X004209Y023407D01*
X004158Y023356D01*
X004158Y023255D01*
X004209Y023255D01*
X004057Y023255D02*
X004057Y023356D01*
X004006Y023407D01*
X004006Y023509D01*
X004006Y023255D02*
X004057Y023255D01*
X003901Y023255D02*
X003748Y023407D01*
X003817Y022713D02*
X003919Y022713D01*
X003970Y022662D01*
X004071Y022662D01*
X004071Y022713D01*
X004071Y022561D02*
X003970Y022561D01*
X003919Y022510D01*
X003817Y022510D01*
X003766Y022561D01*
X003766Y022662D01*
X003817Y022713D01*
X003817Y022405D02*
X004020Y022202D01*
X004071Y022252D01*
X004071Y022354D01*
X004020Y022405D01*
X003817Y022405D01*
X003766Y022354D01*
X003766Y022252D01*
X003817Y022202D01*
X004020Y022202D01*
X004020Y022097D02*
X004071Y022046D01*
X004071Y021944D01*
X004020Y021893D01*
X003817Y022097D01*
X004020Y022097D01*
X004020Y021893D02*
X003817Y021893D01*
X003766Y021944D01*
X003766Y022046D01*
X003817Y022097D01*
X004071Y021789D02*
X004071Y021585D01*
X004071Y021687D02*
X003766Y021687D01*
X003868Y021585D01*
X003873Y020725D02*
X003823Y020674D01*
X003823Y020471D01*
X004026Y020674D01*
X004026Y020471D01*
X003975Y020420D01*
X003873Y020420D01*
X003823Y020471D01*
X003718Y020420D02*
X003514Y020420D01*
X003616Y020420D02*
X003616Y020725D01*
X003514Y020623D01*
X003873Y020725D02*
X003975Y020725D01*
X004026Y020674D01*
X004131Y020725D02*
X004131Y020420D01*
X004131Y020522D02*
X004334Y020725D01*
X004439Y020674D02*
X004490Y020725D01*
X004591Y020725D01*
X004642Y020674D01*
X004642Y020573D01*
X004591Y020522D01*
X004591Y020420D01*
X004642Y020420D01*
X004490Y020420D02*
X004490Y020522D01*
X004439Y020573D01*
X004439Y020674D01*
X004439Y020420D02*
X004490Y020420D01*
X004334Y020420D02*
X004182Y020573D01*
X004071Y022510D02*
X004071Y022561D01*
X004071Y024341D02*
X004071Y024545D01*
X004071Y024443D02*
X003766Y024443D01*
X003868Y024341D01*
X003817Y024649D02*
X003766Y024700D01*
X003766Y024802D01*
X003817Y024853D01*
X004020Y024649D01*
X004071Y024700D01*
X004071Y024802D01*
X004020Y024853D01*
X003817Y024853D01*
X003817Y024958D02*
X003766Y025008D01*
X003766Y025110D01*
X003817Y025161D01*
X004020Y024958D01*
X004071Y025008D01*
X004071Y025110D01*
X004020Y025161D01*
X003817Y025161D01*
X003817Y025266D02*
X003766Y025316D01*
X003766Y025418D01*
X003817Y025469D01*
X003919Y025469D01*
X003970Y025418D01*
X004071Y025418D01*
X004071Y025469D01*
X004071Y025316D02*
X003970Y025316D01*
X003919Y025266D01*
X003817Y025266D01*
X003817Y024958D02*
X004020Y024958D01*
X004020Y024649D02*
X003817Y024649D01*
X004071Y025266D02*
X004071Y025316D01*
X001473Y022874D02*
X001473Y022823D01*
X001371Y022823D01*
X001320Y022874D01*
X001219Y022874D01*
X001168Y022823D01*
X001168Y022721D01*
X001219Y022671D01*
X001320Y022671D01*
X001371Y022721D01*
X001473Y022721D01*
X001473Y022671D01*
X001473Y022566D02*
X001320Y022413D01*
X001371Y022363D02*
X001168Y022566D01*
X001168Y022363D02*
X001473Y022363D01*
X001473Y022258D02*
X001473Y022054D01*
X001473Y022156D02*
X001168Y022156D01*
X001270Y022054D01*
X006043Y018008D02*
X006144Y018008D01*
X006094Y018008D02*
X006094Y017704D01*
X006144Y017704D02*
X006043Y017704D01*
X006248Y017754D02*
X006299Y017704D01*
X006401Y017704D01*
X006451Y017754D01*
X006556Y017754D02*
X006607Y017704D01*
X006709Y017704D01*
X006760Y017754D01*
X006760Y017856D01*
X006709Y017907D01*
X006658Y017907D01*
X006556Y017856D01*
X006556Y018008D01*
X006760Y018008D01*
X006451Y017958D02*
X006401Y018008D01*
X006299Y018008D01*
X006248Y017958D01*
X006248Y017754D01*
X007805Y021585D02*
X007703Y021687D01*
X008008Y021687D01*
X008008Y021585D02*
X008008Y021789D01*
X007957Y021893D02*
X008008Y021944D01*
X008008Y022046D01*
X007957Y022097D01*
X007754Y022097D01*
X007957Y021893D01*
X007754Y021893D01*
X007703Y021944D01*
X007703Y022046D01*
X007754Y022097D01*
X007754Y022202D02*
X007703Y022252D01*
X007703Y022354D01*
X007754Y022405D01*
X007957Y022202D01*
X008008Y022252D01*
X008008Y022354D01*
X007957Y022405D01*
X007754Y022405D01*
X007754Y022510D02*
X007703Y022561D01*
X007703Y022662D01*
X007754Y022713D01*
X007856Y022713D01*
X007907Y022662D01*
X008008Y022662D01*
X008008Y022713D01*
X008008Y022561D02*
X007907Y022561D01*
X007856Y022510D01*
X007754Y022510D01*
X007754Y022202D02*
X007957Y022202D01*
X008008Y022510D02*
X008008Y022561D01*
X008593Y023570D02*
X008796Y023570D01*
X008695Y023570D02*
X008695Y023875D01*
X008593Y023773D01*
X008901Y023824D02*
X008952Y023875D01*
X009054Y023875D01*
X009105Y023824D01*
X008901Y023621D01*
X008952Y023570D01*
X009054Y023570D01*
X009105Y023621D01*
X009105Y023824D01*
X009209Y023875D02*
X009209Y023570D01*
X009209Y023671D02*
X009413Y023875D01*
X009518Y023824D02*
X009568Y023875D01*
X009670Y023875D01*
X009721Y023824D01*
X009721Y023722D01*
X009670Y023671D01*
X009670Y023570D01*
X009721Y023570D01*
X009568Y023570D02*
X009568Y023671D01*
X009518Y023722D01*
X009518Y023824D01*
X009518Y023570D02*
X009568Y023570D01*
X009413Y023570D02*
X009260Y023722D01*
X008901Y023621D02*
X008901Y023824D01*
X008008Y024341D02*
X008008Y024545D01*
X008008Y024443D02*
X007703Y024443D01*
X007805Y024341D01*
X007754Y024649D02*
X007703Y024700D01*
X007703Y024802D01*
X007754Y024853D01*
X007957Y024649D01*
X008008Y024700D01*
X008008Y024802D01*
X007957Y024853D01*
X007754Y024853D01*
X007754Y024958D02*
X007703Y025008D01*
X007703Y025110D01*
X007754Y025161D01*
X007957Y024958D01*
X008008Y025008D01*
X008008Y025110D01*
X007957Y025161D01*
X007754Y025161D01*
X007754Y025266D02*
X007703Y025316D01*
X007703Y025418D01*
X007754Y025469D01*
X007856Y025469D01*
X007907Y025418D01*
X008008Y025418D01*
X008008Y025469D01*
X008008Y025316D02*
X007907Y025316D01*
X007856Y025266D01*
X007754Y025266D01*
X007754Y024958D02*
X007957Y024958D01*
X007957Y024649D02*
X007754Y024649D01*
X008008Y025266D02*
X008008Y025316D01*
X008593Y026326D02*
X008796Y026326D01*
X008695Y026326D02*
X008695Y026631D01*
X008593Y026529D01*
X008901Y026580D02*
X008952Y026631D01*
X009054Y026631D01*
X009105Y026580D01*
X008901Y026376D01*
X008952Y026326D01*
X009054Y026326D01*
X009105Y026376D01*
X009105Y026580D01*
X009209Y026631D02*
X009209Y026326D01*
X009209Y026427D02*
X009413Y026631D01*
X009518Y026580D02*
X009568Y026631D01*
X009670Y026631D01*
X009721Y026580D01*
X009721Y026478D01*
X009670Y026427D01*
X009670Y026326D01*
X009721Y026326D01*
X009568Y026326D02*
X009568Y026427D01*
X009518Y026478D01*
X009518Y026580D01*
X009518Y026326D02*
X009568Y026326D01*
X009413Y026326D02*
X009260Y026478D01*
X008901Y026376D02*
X008901Y026580D01*
X010313Y023937D02*
X010262Y023886D01*
X010262Y023784D01*
X010313Y023734D01*
X010415Y023734D01*
X010466Y023784D01*
X010567Y023784D01*
X010567Y023734D01*
X010567Y023629D02*
X010415Y023476D01*
X010466Y023425D02*
X010262Y023629D01*
X010262Y023425D02*
X010567Y023425D01*
X010567Y023321D02*
X010567Y023117D01*
X010567Y023219D02*
X010262Y023219D01*
X010364Y023117D01*
X010466Y023886D02*
X010415Y023937D01*
X010313Y023937D01*
X010466Y023886D02*
X010567Y023886D01*
X010567Y023937D01*
X011455Y022874D02*
X011557Y022874D01*
X011607Y022823D01*
X011709Y022823D01*
X011709Y022874D01*
X011709Y022721D02*
X011607Y022721D01*
X011557Y022671D01*
X011455Y022671D01*
X011404Y022721D01*
X011404Y022823D01*
X011455Y022874D01*
X011404Y022566D02*
X011607Y022363D01*
X011557Y022413D02*
X011709Y022566D01*
X011709Y022671D02*
X011709Y022721D01*
X011709Y022363D02*
X011404Y022363D01*
X011404Y022156D02*
X011709Y022156D01*
X011709Y022054D02*
X011709Y022258D01*
X011506Y022054D02*
X011404Y022156D01*
X011468Y015026D02*
X011418Y014975D01*
X011418Y014772D01*
X011468Y014721D01*
X011570Y014721D01*
X011621Y014772D01*
X011621Y014874D01*
X011519Y014874D01*
X011621Y014975D02*
X011570Y015026D01*
X011468Y015026D01*
X011030Y014975D02*
X011030Y014874D01*
X010980Y014823D01*
X010827Y014823D01*
X010827Y014721D02*
X010827Y015026D01*
X010980Y015026D01*
X011030Y014975D01*
X010929Y014823D02*
X011030Y014721D01*
X012008Y014721D02*
X012161Y014721D01*
X012211Y014772D01*
X012211Y014823D01*
X012161Y014874D01*
X012008Y014874D01*
X012008Y015026D02*
X012008Y014721D01*
X012161Y014874D02*
X012211Y014925D01*
X012211Y014975D01*
X012161Y015026D01*
X012008Y015026D01*
X010703Y011670D02*
X010500Y011670D01*
X010500Y011365D01*
X010395Y011365D02*
X010395Y011568D01*
X010500Y011517D02*
X010602Y011517D01*
X010395Y011365D02*
X010243Y011365D01*
X010192Y011416D01*
X010192Y011568D01*
X010087Y011365D02*
X009884Y011365D01*
X009986Y011365D02*
X009986Y011670D01*
X009884Y011568D01*
X009781Y011416D02*
X009781Y011365D01*
X009730Y011365D01*
X009730Y011416D01*
X009781Y011416D01*
X009625Y011416D02*
X009625Y011619D01*
X009422Y011416D01*
X009473Y011365D01*
X009574Y011365D01*
X009625Y011416D01*
X009625Y011619D02*
X009574Y011670D01*
X009473Y011670D01*
X009422Y011619D01*
X009422Y011416D01*
X010963Y009544D02*
X010913Y009493D01*
X010913Y009442D01*
X010963Y009391D01*
X011065Y009391D01*
X011116Y009341D01*
X011116Y009290D01*
X011065Y009239D01*
X010963Y009239D01*
X010913Y009290D01*
X010963Y009544D02*
X011065Y009544D01*
X011116Y009493D01*
X011221Y009544D02*
X011221Y009239D01*
X011322Y009341D01*
X011424Y009239D01*
X011424Y009544D01*
X011529Y009442D02*
X011631Y009544D01*
X011631Y009239D01*
X011732Y009239D02*
X011529Y009239D01*
X008322Y006119D02*
X008118Y006119D01*
X008118Y005814D01*
X008013Y005814D02*
X008013Y006017D01*
X008118Y005966D02*
X008220Y005966D01*
X008013Y005814D02*
X007861Y005814D01*
X007810Y005865D01*
X007810Y006017D01*
X007705Y005814D02*
X007502Y005814D01*
X007604Y005814D02*
X007604Y006119D01*
X007502Y006017D01*
X007399Y005865D02*
X007399Y005814D01*
X007348Y005814D01*
X007348Y005865D01*
X007399Y005865D01*
X007243Y005865D02*
X007192Y005814D01*
X007091Y005814D01*
X007040Y005865D01*
X007243Y006068D01*
X007243Y005865D01*
X007243Y006068D02*
X007192Y006119D01*
X007091Y006119D01*
X007040Y006068D01*
X007040Y005865D01*
X007085Y008648D02*
X006933Y008648D01*
X006933Y008953D01*
X007085Y008953D01*
X007136Y008903D01*
X007136Y008699D01*
X007085Y008648D01*
X007241Y008801D02*
X007444Y008801D01*
X007549Y008903D02*
X007600Y008953D01*
X007702Y008953D01*
X007752Y008903D01*
X007549Y008699D01*
X007600Y008648D01*
X007702Y008648D01*
X007752Y008699D01*
X007752Y008903D01*
X007857Y008903D02*
X007857Y008852D01*
X007908Y008801D01*
X008010Y008801D01*
X008061Y008750D01*
X008061Y008699D01*
X008010Y008648D01*
X007908Y008648D01*
X007857Y008699D01*
X007857Y008750D01*
X007908Y008801D01*
X008010Y008801D02*
X008061Y008852D01*
X008061Y008903D01*
X008010Y008953D01*
X007908Y008953D01*
X007857Y008903D01*
X007598Y009731D02*
X007395Y009731D01*
X007598Y009934D01*
X007598Y009985D01*
X007548Y010036D01*
X007446Y010036D01*
X007395Y009985D01*
X007290Y010036D02*
X007290Y009731D01*
X007189Y009833D01*
X007087Y009731D01*
X007087Y010036D01*
X006982Y009985D02*
X006931Y010036D01*
X006830Y010036D01*
X006779Y009985D01*
X006779Y009934D01*
X006830Y009884D01*
X006931Y009884D01*
X006982Y009833D01*
X006982Y009782D01*
X006931Y009731D01*
X006830Y009731D01*
X006779Y009782D01*
X006828Y008953D02*
X006625Y008953D01*
X006520Y008953D02*
X006317Y008953D01*
X006317Y008801D01*
X006418Y008852D01*
X006469Y008852D01*
X006520Y008801D01*
X006520Y008699D01*
X006469Y008648D01*
X006367Y008648D01*
X006317Y008699D01*
X006625Y008699D02*
X006625Y008648D01*
X006625Y008699D02*
X006828Y008903D01*
X006828Y008953D01*
X007549Y008903D02*
X007549Y008699D01*
X005788Y010066D02*
X005788Y010371D01*
X005585Y010371D02*
X005585Y010066D01*
X005480Y010117D02*
X005480Y010320D01*
X005429Y010371D01*
X005327Y010371D01*
X005276Y010320D01*
X005276Y010117D01*
X005327Y010066D01*
X005429Y010066D01*
X005480Y010117D01*
X005585Y010371D02*
X005788Y010066D01*
X002044Y009662D02*
X001739Y009662D01*
X001891Y009509D01*
X001891Y009712D01*
X001790Y009404D02*
X001739Y009353D01*
X001739Y009252D01*
X001790Y009201D01*
X001993Y009201D01*
X002044Y009252D01*
X002044Y009353D01*
X001993Y009404D01*
X002044Y009097D02*
X002044Y008995D01*
X002044Y009046D02*
X001739Y009046D01*
X001739Y008995D02*
X001739Y009097D01*
D21*
X005504Y018718D03*
X005504Y019061D03*
X006500Y018777D03*
X006507Y018789D03*
X006515Y018773D03*
X006515Y018769D03*
X006519Y018765D03*
X006570Y018911D03*
X007212Y019029D03*
X007326Y019061D03*
X007326Y018718D03*
D22*
X007334Y018730D03*
X007338Y018734D03*
X007342Y018738D03*
X007346Y018742D03*
X007350Y018746D03*
X007358Y018757D03*
X007358Y019021D03*
X007346Y019037D03*
X007342Y019041D03*
X007338Y019045D03*
X007334Y019049D03*
X007330Y019053D03*
X007326Y019057D03*
X007208Y019033D03*
X006586Y018899D03*
X006582Y018903D03*
X006574Y018907D03*
X006519Y018876D03*
X006476Y018907D03*
X006468Y018903D03*
X006460Y018899D03*
X006444Y018887D03*
X006441Y018883D03*
X006511Y018805D03*
X006511Y018801D03*
X006507Y018785D03*
X006507Y018781D03*
X006480Y018757D03*
X005504Y018722D03*
X005500Y018726D03*
X005496Y018730D03*
X005492Y018734D03*
X005484Y018746D03*
X005480Y018750D03*
X005468Y018765D03*
X005480Y019029D03*
X005484Y019033D03*
X005496Y019049D03*
X005500Y019053D03*
X005504Y019057D03*
D23*
X005494Y019045D03*
X005490Y019041D03*
X005486Y019037D03*
X005478Y019025D03*
X005474Y019021D03*
X005470Y019017D03*
X005470Y019013D03*
X005466Y019009D03*
X005462Y019006D03*
X005462Y019002D03*
X005458Y018998D03*
X005458Y018994D03*
X005454Y018990D03*
X005454Y018986D03*
X005450Y018982D03*
X005450Y018978D03*
X005446Y018974D03*
X005446Y018970D03*
X005443Y018962D03*
X005439Y018950D03*
X005439Y018946D03*
X005435Y018935D03*
X005435Y018931D03*
X005431Y018907D03*
X005431Y018903D03*
X005431Y018899D03*
X005431Y018895D03*
X005431Y018891D03*
X005431Y018887D03*
X005431Y018883D03*
X005431Y018880D03*
X005431Y018876D03*
X005431Y018872D03*
X005435Y018848D03*
X005435Y018844D03*
X005439Y018828D03*
X005443Y018817D03*
X005446Y018809D03*
X005446Y018805D03*
X005450Y018797D03*
X005454Y018789D03*
X005458Y018785D03*
X005458Y018781D03*
X005462Y018777D03*
X005462Y018773D03*
X005466Y018769D03*
X005470Y018761D03*
X005474Y018757D03*
X005478Y018754D03*
X005486Y018742D03*
X005490Y018738D03*
X005675Y019021D03*
X006419Y018852D03*
X006423Y018860D03*
X006427Y018868D03*
X006431Y018872D03*
X006435Y018876D03*
X006450Y018891D03*
X006454Y018895D03*
X006509Y018809D03*
X006533Y018754D03*
X006612Y018860D03*
X006612Y018864D03*
X006608Y018872D03*
X006608Y018876D03*
X006604Y018880D03*
X006600Y018883D03*
X006600Y018887D03*
X006596Y018891D03*
X006592Y018895D03*
X007202Y019037D03*
X007332Y018726D03*
X007328Y018722D03*
X007352Y018750D03*
X007356Y018754D03*
X007360Y018761D03*
X007364Y018765D03*
X007368Y018769D03*
X007368Y018773D03*
X007372Y018777D03*
X007376Y018785D03*
X007380Y018793D03*
X007383Y018801D03*
X007387Y018809D03*
X007387Y018813D03*
X007391Y018820D03*
X007395Y018832D03*
X007395Y018836D03*
X007399Y018852D03*
X007399Y018856D03*
X007399Y018923D03*
X007395Y018943D03*
X007391Y018954D03*
X007391Y018958D03*
X007387Y018966D03*
X007387Y018970D03*
X007383Y018978D03*
X007380Y018986D03*
X007376Y018994D03*
X007372Y018998D03*
X007372Y019002D03*
X007368Y019006D03*
X007368Y019009D03*
X007364Y019013D03*
X007360Y019017D03*
X007356Y019025D03*
X007352Y019029D03*
X007348Y019033D03*
D24*
X007183Y019049D03*
X006454Y018746D03*
X005694Y019033D03*
D25*
X005700Y019037D03*
X006122Y018919D03*
X006122Y018860D03*
X006551Y018746D03*
X006909Y018860D03*
X006909Y018919D03*
X007177Y019053D03*
D26*
X006553Y018750D03*
X006454Y018750D03*
X005757Y019069D03*
X005734Y019053D03*
X005726Y019049D03*
D27*
X005742Y019057D03*
X005750Y019061D03*
X006454Y018754D03*
D28*
X006515Y018836D03*
X006515Y018840D03*
X006515Y018844D03*
X006515Y018848D03*
X006515Y018852D03*
X006570Y018754D03*
X007189Y019045D03*
X005685Y019029D03*
D29*
X005679Y019025D03*
X006415Y018789D03*
X006423Y018769D03*
X006427Y018765D03*
X006431Y018761D03*
X006435Y018757D03*
X006513Y018820D03*
X006513Y018824D03*
X006513Y018828D03*
X006513Y018832D03*
X006517Y018856D03*
X006517Y018860D03*
X006517Y018864D03*
X006517Y018868D03*
X006616Y018828D03*
X006612Y018813D03*
X006612Y018809D03*
X006612Y018805D03*
X006608Y018797D03*
X006604Y018789D03*
X006600Y018781D03*
X006596Y018777D03*
X006576Y018757D03*
X007194Y019041D03*
D30*
X006482Y018911D03*
X006509Y018797D03*
X006509Y018793D03*
X006498Y018773D03*
X006494Y018769D03*
X006490Y018765D03*
X006486Y018761D03*
X006521Y018761D03*
X006525Y018757D03*
D31*
X006511Y018813D03*
X006511Y018817D03*
X006519Y018872D03*
X006437Y018880D03*
X006425Y018864D03*
X006421Y018856D03*
X006417Y018848D03*
X006417Y018844D03*
X006417Y018840D03*
X006413Y018836D03*
X006413Y018832D03*
X006413Y018828D03*
X006413Y018824D03*
X006413Y018820D03*
X006413Y018817D03*
X006413Y018813D03*
X006413Y018809D03*
X006413Y018805D03*
X006413Y018801D03*
X006413Y018797D03*
X006413Y018793D03*
X006417Y018785D03*
X006417Y018781D03*
X006417Y018777D03*
X006421Y018773D03*
X006582Y018761D03*
X006586Y018765D03*
X006590Y018769D03*
X006594Y018773D03*
X006602Y018785D03*
X006606Y018793D03*
X006610Y018801D03*
X006614Y018817D03*
X006614Y018820D03*
X006614Y018824D03*
X006614Y018832D03*
X006614Y018836D03*
X006614Y018840D03*
X006614Y018844D03*
X006614Y018848D03*
X006614Y018852D03*
X006614Y018856D03*
X006610Y018868D03*
X006909Y018856D03*
X006909Y018923D03*
X007378Y018990D03*
X007381Y018982D03*
X007385Y018974D03*
X007389Y018962D03*
X007393Y018950D03*
X007393Y018946D03*
X007397Y018939D03*
X007397Y018935D03*
X007397Y018931D03*
X007397Y018927D03*
X007401Y018919D03*
X007401Y018915D03*
X007401Y018911D03*
X007401Y018907D03*
X007401Y018903D03*
X007401Y018899D03*
X007401Y018895D03*
X007401Y018891D03*
X007401Y018887D03*
X007401Y018883D03*
X007401Y018880D03*
X007401Y018876D03*
X007401Y018872D03*
X007401Y018868D03*
X007401Y018864D03*
X007401Y018860D03*
X007397Y018848D03*
X007397Y018844D03*
X007397Y018840D03*
X007393Y018828D03*
X007393Y018824D03*
X007389Y018817D03*
X007385Y018805D03*
X007381Y018797D03*
X007378Y018789D03*
X007374Y018781D03*
X006122Y018856D03*
X006122Y018923D03*
X005444Y018966D03*
X005441Y018958D03*
X005441Y018954D03*
X005437Y018943D03*
X005437Y018939D03*
X005433Y018927D03*
X005433Y018923D03*
X005433Y018919D03*
X005433Y018915D03*
X005433Y018911D03*
X005433Y018868D03*
X005433Y018864D03*
X005433Y018860D03*
X005433Y018856D03*
X005433Y018852D03*
X005437Y018840D03*
X005437Y018836D03*
X005437Y018832D03*
X005441Y018824D03*
X005441Y018820D03*
X005444Y018813D03*
X005448Y018801D03*
X005452Y018793D03*
D32*
X005671Y019017D03*
X006521Y018880D03*
X006513Y018777D03*
D33*
X006122Y018864D03*
X006122Y018915D03*
X005716Y019045D03*
X006909Y018915D03*
X006909Y018864D03*
X007165Y019061D03*
D34*
X006909Y018911D03*
X006909Y018868D03*
X006122Y018868D03*
X006122Y018911D03*
X005756Y019065D03*
D35*
X006122Y018907D03*
X006122Y018903D03*
X006122Y018876D03*
X006122Y018872D03*
X006909Y018872D03*
X006909Y018876D03*
X006909Y018903D03*
X006909Y018907D03*
D36*
X006909Y018899D03*
X006909Y018895D03*
X006909Y018891D03*
X006909Y018887D03*
X006909Y018883D03*
X006909Y018880D03*
X006122Y018880D03*
X006122Y018883D03*
X006122Y018887D03*
X006122Y018891D03*
X006122Y018895D03*
X006122Y018899D03*
D37*
X005761Y019072D03*
X005710Y019041D03*
X007163Y019065D03*
X007171Y019057D03*
M02*
