G75*
G70*
%OFA0B0*%
%FSLAX24Y24*%
%IPPOS*%
%LPD*%
%AMOC8*
5,1,8,0,0,1.08239X$1,22.5*
%
%ADD10C,0.0000*%
%ADD11R,0.0236X0.0748*%
%ADD12R,0.0472X0.0217*%
%ADD13R,0.0394X0.0315*%
%ADD14R,0.0315X0.0394*%
%ADD15R,0.0984X0.0866*%
%ADD16R,0.0197X0.0787*%
%ADD17R,0.1024X0.0787*%
%ADD18R,0.0299X0.0622*%
D10*
X000139Y000927D02*
X000139Y030454D01*
X012738Y030454D01*
X012738Y000927D01*
X000139Y000927D01*
X000690Y002108D02*
X000692Y002158D01*
X000698Y002208D01*
X000708Y002257D01*
X000722Y002305D01*
X000739Y002352D01*
X000760Y002397D01*
X000785Y002441D01*
X000813Y002482D01*
X000845Y002521D01*
X000879Y002558D01*
X000916Y002592D01*
X000956Y002622D01*
X000998Y002649D01*
X001042Y002673D01*
X001088Y002694D01*
X001135Y002710D01*
X001183Y002723D01*
X001233Y002732D01*
X001282Y002737D01*
X001333Y002738D01*
X001383Y002735D01*
X001432Y002728D01*
X001481Y002717D01*
X001529Y002702D01*
X001575Y002684D01*
X001620Y002662D01*
X001663Y002636D01*
X001704Y002607D01*
X001743Y002575D01*
X001779Y002540D01*
X001811Y002502D01*
X001841Y002462D01*
X001868Y002419D01*
X001891Y002375D01*
X001910Y002329D01*
X001926Y002281D01*
X001938Y002232D01*
X001946Y002183D01*
X001950Y002133D01*
X001950Y002083D01*
X001946Y002033D01*
X001938Y001984D01*
X001926Y001935D01*
X001910Y001887D01*
X001891Y001841D01*
X001868Y001797D01*
X001841Y001754D01*
X001811Y001714D01*
X001779Y001676D01*
X001743Y001641D01*
X001704Y001609D01*
X001663Y001580D01*
X001620Y001554D01*
X001575Y001532D01*
X001529Y001514D01*
X001481Y001499D01*
X001432Y001488D01*
X001383Y001481D01*
X001333Y001478D01*
X001282Y001479D01*
X001233Y001484D01*
X001183Y001493D01*
X001135Y001506D01*
X001088Y001522D01*
X001042Y001543D01*
X000998Y001567D01*
X000956Y001594D01*
X000916Y001624D01*
X000879Y001658D01*
X000845Y001695D01*
X000813Y001734D01*
X000785Y001775D01*
X000760Y001819D01*
X000739Y001864D01*
X000722Y001911D01*
X000708Y001959D01*
X000698Y002008D01*
X000692Y002058D01*
X000690Y002108D01*
X009017Y001517D02*
X009019Y001543D01*
X009025Y001569D01*
X009035Y001594D01*
X009048Y001617D01*
X009064Y001637D01*
X009084Y001655D01*
X009106Y001670D01*
X009129Y001682D01*
X009155Y001690D01*
X009181Y001694D01*
X009207Y001694D01*
X009233Y001690D01*
X009259Y001682D01*
X009283Y001670D01*
X009304Y001655D01*
X009324Y001637D01*
X009340Y001617D01*
X009353Y001594D01*
X009363Y001569D01*
X009369Y001543D01*
X009371Y001517D01*
X009369Y001491D01*
X009363Y001465D01*
X009353Y001440D01*
X009340Y001417D01*
X009324Y001397D01*
X009304Y001379D01*
X009282Y001364D01*
X009259Y001352D01*
X009233Y001344D01*
X009207Y001340D01*
X009181Y001340D01*
X009155Y001344D01*
X009129Y001352D01*
X009105Y001364D01*
X009084Y001379D01*
X009064Y001397D01*
X009048Y001417D01*
X009035Y001440D01*
X009025Y001465D01*
X009019Y001491D01*
X009017Y001517D01*
X009017Y004273D02*
X009019Y004299D01*
X009025Y004325D01*
X009035Y004350D01*
X009048Y004373D01*
X009064Y004393D01*
X009084Y004411D01*
X009106Y004426D01*
X009129Y004438D01*
X009155Y004446D01*
X009181Y004450D01*
X009207Y004450D01*
X009233Y004446D01*
X009259Y004438D01*
X009283Y004426D01*
X009304Y004411D01*
X009324Y004393D01*
X009340Y004373D01*
X009353Y004350D01*
X009363Y004325D01*
X009369Y004299D01*
X009371Y004273D01*
X009369Y004247D01*
X009363Y004221D01*
X009353Y004196D01*
X009340Y004173D01*
X009324Y004153D01*
X009304Y004135D01*
X009282Y004120D01*
X009259Y004108D01*
X009233Y004100D01*
X009207Y004096D01*
X009181Y004096D01*
X009155Y004100D01*
X009129Y004108D01*
X009105Y004120D01*
X009084Y004135D01*
X009064Y004153D01*
X009048Y004173D01*
X009035Y004196D01*
X009025Y004221D01*
X009019Y004247D01*
X009017Y004273D01*
X010927Y002108D02*
X010929Y002158D01*
X010935Y002208D01*
X010945Y002257D01*
X010959Y002305D01*
X010976Y002352D01*
X010997Y002397D01*
X011022Y002441D01*
X011050Y002482D01*
X011082Y002521D01*
X011116Y002558D01*
X011153Y002592D01*
X011193Y002622D01*
X011235Y002649D01*
X011279Y002673D01*
X011325Y002694D01*
X011372Y002710D01*
X011420Y002723D01*
X011470Y002732D01*
X011519Y002737D01*
X011570Y002738D01*
X011620Y002735D01*
X011669Y002728D01*
X011718Y002717D01*
X011766Y002702D01*
X011812Y002684D01*
X011857Y002662D01*
X011900Y002636D01*
X011941Y002607D01*
X011980Y002575D01*
X012016Y002540D01*
X012048Y002502D01*
X012078Y002462D01*
X012105Y002419D01*
X012128Y002375D01*
X012147Y002329D01*
X012163Y002281D01*
X012175Y002232D01*
X012183Y002183D01*
X012187Y002133D01*
X012187Y002083D01*
X012183Y002033D01*
X012175Y001984D01*
X012163Y001935D01*
X012147Y001887D01*
X012128Y001841D01*
X012105Y001797D01*
X012078Y001754D01*
X012048Y001714D01*
X012016Y001676D01*
X011980Y001641D01*
X011941Y001609D01*
X011900Y001580D01*
X011857Y001554D01*
X011812Y001532D01*
X011766Y001514D01*
X011718Y001499D01*
X011669Y001488D01*
X011620Y001481D01*
X011570Y001478D01*
X011519Y001479D01*
X011470Y001484D01*
X011420Y001493D01*
X011372Y001506D01*
X011325Y001522D01*
X011279Y001543D01*
X011235Y001567D01*
X011193Y001594D01*
X011153Y001624D01*
X011116Y001658D01*
X011082Y001695D01*
X011050Y001734D01*
X011022Y001775D01*
X010997Y001819D01*
X010976Y001864D01*
X010959Y001911D01*
X010945Y001959D01*
X010935Y002008D01*
X010929Y002058D01*
X010927Y002108D01*
X010927Y029273D02*
X010929Y029323D01*
X010935Y029373D01*
X010945Y029422D01*
X010959Y029470D01*
X010976Y029517D01*
X010997Y029562D01*
X011022Y029606D01*
X011050Y029647D01*
X011082Y029686D01*
X011116Y029723D01*
X011153Y029757D01*
X011193Y029787D01*
X011235Y029814D01*
X011279Y029838D01*
X011325Y029859D01*
X011372Y029875D01*
X011420Y029888D01*
X011470Y029897D01*
X011519Y029902D01*
X011570Y029903D01*
X011620Y029900D01*
X011669Y029893D01*
X011718Y029882D01*
X011766Y029867D01*
X011812Y029849D01*
X011857Y029827D01*
X011900Y029801D01*
X011941Y029772D01*
X011980Y029740D01*
X012016Y029705D01*
X012048Y029667D01*
X012078Y029627D01*
X012105Y029584D01*
X012128Y029540D01*
X012147Y029494D01*
X012163Y029446D01*
X012175Y029397D01*
X012183Y029348D01*
X012187Y029298D01*
X012187Y029248D01*
X012183Y029198D01*
X012175Y029149D01*
X012163Y029100D01*
X012147Y029052D01*
X012128Y029006D01*
X012105Y028962D01*
X012078Y028919D01*
X012048Y028879D01*
X012016Y028841D01*
X011980Y028806D01*
X011941Y028774D01*
X011900Y028745D01*
X011857Y028719D01*
X011812Y028697D01*
X011766Y028679D01*
X011718Y028664D01*
X011669Y028653D01*
X011620Y028646D01*
X011570Y028643D01*
X011519Y028644D01*
X011470Y028649D01*
X011420Y028658D01*
X011372Y028671D01*
X011325Y028687D01*
X011279Y028708D01*
X011235Y028732D01*
X011193Y028759D01*
X011153Y028789D01*
X011116Y028823D01*
X011082Y028860D01*
X011050Y028899D01*
X011022Y028940D01*
X010997Y028984D01*
X010976Y029029D01*
X010959Y029076D01*
X010945Y029124D01*
X010935Y029173D01*
X010929Y029223D01*
X010927Y029273D01*
X000690Y029273D02*
X000692Y029323D01*
X000698Y029373D01*
X000708Y029422D01*
X000722Y029470D01*
X000739Y029517D01*
X000760Y029562D01*
X000785Y029606D01*
X000813Y029647D01*
X000845Y029686D01*
X000879Y029723D01*
X000916Y029757D01*
X000956Y029787D01*
X000998Y029814D01*
X001042Y029838D01*
X001088Y029859D01*
X001135Y029875D01*
X001183Y029888D01*
X001233Y029897D01*
X001282Y029902D01*
X001333Y029903D01*
X001383Y029900D01*
X001432Y029893D01*
X001481Y029882D01*
X001529Y029867D01*
X001575Y029849D01*
X001620Y029827D01*
X001663Y029801D01*
X001704Y029772D01*
X001743Y029740D01*
X001779Y029705D01*
X001811Y029667D01*
X001841Y029627D01*
X001868Y029584D01*
X001891Y029540D01*
X001910Y029494D01*
X001926Y029446D01*
X001938Y029397D01*
X001946Y029348D01*
X001950Y029298D01*
X001950Y029248D01*
X001946Y029198D01*
X001938Y029149D01*
X001926Y029100D01*
X001910Y029052D01*
X001891Y029006D01*
X001868Y028962D01*
X001841Y028919D01*
X001811Y028879D01*
X001779Y028841D01*
X001743Y028806D01*
X001704Y028774D01*
X001663Y028745D01*
X001620Y028719D01*
X001575Y028697D01*
X001529Y028679D01*
X001481Y028664D01*
X001432Y028653D01*
X001383Y028646D01*
X001333Y028643D01*
X001282Y028644D01*
X001233Y028649D01*
X001183Y028658D01*
X001135Y028671D01*
X001088Y028687D01*
X001042Y028708D01*
X000998Y028732D01*
X000956Y028759D01*
X000916Y028789D01*
X000879Y028823D01*
X000845Y028860D01*
X000813Y028899D01*
X000785Y028940D01*
X000760Y028984D01*
X000739Y029029D01*
X000722Y029076D01*
X000708Y029124D01*
X000698Y029173D01*
X000692Y029223D01*
X000690Y029273D01*
D11*
X000722Y020139D03*
X001722Y020139D03*
X002198Y020139D03*
X003198Y020139D03*
X003198Y017541D03*
X002198Y017541D03*
X001722Y017541D03*
X000722Y017541D03*
X009679Y017541D03*
X010679Y017541D03*
X011155Y017541D03*
X012155Y017541D03*
X012155Y020139D03*
X011155Y020139D03*
X010679Y020139D03*
X009679Y020139D03*
D12*
X009765Y021813D03*
X009765Y022561D03*
X009765Y024569D03*
X009765Y025317D03*
X010789Y025317D03*
X010789Y024943D03*
X010789Y024569D03*
X010789Y022561D03*
X010789Y022187D03*
X010789Y021813D03*
X003112Y021813D03*
X003112Y022561D03*
X003112Y024569D03*
X003112Y025317D03*
X002088Y025317D03*
X002088Y024943D03*
X002088Y024569D03*
X002088Y022561D03*
X002088Y022187D03*
X002088Y021813D03*
D13*
X001911Y023269D03*
X001911Y023860D03*
X001320Y023860D03*
X001320Y023269D03*
X000533Y023289D03*
X000533Y023840D03*
X004470Y024647D03*
X004470Y025238D03*
X005061Y023840D03*
X005061Y023289D03*
X004470Y022482D03*
X004470Y021891D03*
X007817Y023289D03*
X007817Y023840D03*
X008407Y024647D03*
X008407Y025238D03*
X008407Y022482D03*
X008407Y021891D03*
X010966Y023269D03*
X010966Y023860D03*
X011557Y023860D03*
X011557Y023269D03*
X012344Y023289D03*
X012344Y023840D03*
X012147Y014214D03*
X012147Y013624D03*
X011557Y013624D03*
X011557Y014214D03*
X010966Y014214D03*
X010966Y013624D03*
D14*
X010257Y012049D03*
X009706Y012049D03*
X009175Y005966D03*
X008624Y005966D03*
X003860Y005061D03*
X003309Y005061D03*
X003387Y021202D03*
X003978Y021202D03*
X003978Y023958D03*
X003387Y023958D03*
X008899Y023171D03*
X009490Y023171D03*
X009490Y025927D03*
X008899Y025927D03*
D15*
X006419Y003986D03*
X006419Y001899D03*
X003112Y001899D03*
X003112Y003986D03*
D16*
X004135Y004084D03*
X004450Y004084D03*
X004765Y004084D03*
X005080Y004084D03*
X005395Y004084D03*
D17*
X005848Y022935D03*
X005848Y024194D03*
X007029Y024194D03*
X007029Y022935D03*
D18*
X006976Y010984D03*
X007476Y010984D03*
X007976Y010984D03*
X008476Y010984D03*
X008976Y010984D03*
X008976Y007799D03*
X008476Y007799D03*
X007976Y007799D03*
X007476Y007799D03*
X006976Y007799D03*
X006476Y007799D03*
X005976Y007799D03*
X005476Y007799D03*
X005476Y010984D03*
X005976Y010984D03*
X006476Y010984D03*
M02*
