G75*
G70*
%OFA0B0*%
%FSLAX24Y24*%
%IPPOS*%
%LPD*%
%AMOC8*
5,1,8,0,0,1.08239X$1,22.5*
%
%ADD10C,0.0000*%
%ADD11R,0.0236X0.0748*%
%ADD12R,0.0472X0.0217*%
%ADD13R,0.0394X0.0315*%
%ADD14R,0.0515X0.0515*%
%ADD15C,0.0709*%
%ADD16C,0.0660*%
%ADD17R,0.0315X0.0394*%
%ADD18OC8,0.0515*%
%ADD19R,0.0984X0.0866*%
%ADD20R,0.0197X0.0787*%
%ADD21R,0.1024X0.0787*%
%ADD22R,0.0299X0.0622*%
%ADD23C,0.0079*%
%ADD24R,0.1266X0.1266*%
%ADD25C,0.0157*%
%ADD26C,0.0197*%
%ADD27OC8,0.0472*%
%ADD28R,0.0650X0.0650*%
%ADD29C,0.0160*%
%ADD30R,0.0472X0.0472*%
%ADD31OC8,0.0277*%
%ADD32C,0.0236*%
%ADD33C,0.0277*%
D10*
X000139Y000927D02*
X000139Y030454D01*
X012738Y030454D01*
X012738Y000927D01*
X000139Y000927D01*
X000690Y002108D02*
X000692Y002158D01*
X000698Y002208D01*
X000708Y002257D01*
X000722Y002305D01*
X000739Y002352D01*
X000760Y002397D01*
X000785Y002441D01*
X000813Y002482D01*
X000845Y002521D01*
X000879Y002558D01*
X000916Y002592D01*
X000956Y002622D01*
X000998Y002649D01*
X001042Y002673D01*
X001088Y002694D01*
X001135Y002710D01*
X001183Y002723D01*
X001233Y002732D01*
X001282Y002737D01*
X001333Y002738D01*
X001383Y002735D01*
X001432Y002728D01*
X001481Y002717D01*
X001529Y002702D01*
X001575Y002684D01*
X001620Y002662D01*
X001663Y002636D01*
X001704Y002607D01*
X001743Y002575D01*
X001779Y002540D01*
X001811Y002502D01*
X001841Y002462D01*
X001868Y002419D01*
X001891Y002375D01*
X001910Y002329D01*
X001926Y002281D01*
X001938Y002232D01*
X001946Y002183D01*
X001950Y002133D01*
X001950Y002083D01*
X001946Y002033D01*
X001938Y001984D01*
X001926Y001935D01*
X001910Y001887D01*
X001891Y001841D01*
X001868Y001797D01*
X001841Y001754D01*
X001811Y001714D01*
X001779Y001676D01*
X001743Y001641D01*
X001704Y001609D01*
X001663Y001580D01*
X001620Y001554D01*
X001575Y001532D01*
X001529Y001514D01*
X001481Y001499D01*
X001432Y001488D01*
X001383Y001481D01*
X001333Y001478D01*
X001282Y001479D01*
X001233Y001484D01*
X001183Y001493D01*
X001135Y001506D01*
X001088Y001522D01*
X001042Y001543D01*
X000998Y001567D01*
X000956Y001594D01*
X000916Y001624D01*
X000879Y001658D01*
X000845Y001695D01*
X000813Y001734D01*
X000785Y001775D01*
X000760Y001819D01*
X000739Y001864D01*
X000722Y001911D01*
X000708Y001959D01*
X000698Y002008D01*
X000692Y002058D01*
X000690Y002108D01*
X009017Y001517D02*
X009019Y001543D01*
X009025Y001569D01*
X009035Y001594D01*
X009048Y001617D01*
X009064Y001637D01*
X009084Y001655D01*
X009106Y001670D01*
X009129Y001682D01*
X009155Y001690D01*
X009181Y001694D01*
X009207Y001694D01*
X009233Y001690D01*
X009259Y001682D01*
X009283Y001670D01*
X009304Y001655D01*
X009324Y001637D01*
X009340Y001617D01*
X009353Y001594D01*
X009363Y001569D01*
X009369Y001543D01*
X009371Y001517D01*
X009369Y001491D01*
X009363Y001465D01*
X009353Y001440D01*
X009340Y001417D01*
X009324Y001397D01*
X009304Y001379D01*
X009282Y001364D01*
X009259Y001352D01*
X009233Y001344D01*
X009207Y001340D01*
X009181Y001340D01*
X009155Y001344D01*
X009129Y001352D01*
X009105Y001364D01*
X009084Y001379D01*
X009064Y001397D01*
X009048Y001417D01*
X009035Y001440D01*
X009025Y001465D01*
X009019Y001491D01*
X009017Y001517D01*
X009017Y004273D02*
X009019Y004299D01*
X009025Y004325D01*
X009035Y004350D01*
X009048Y004373D01*
X009064Y004393D01*
X009084Y004411D01*
X009106Y004426D01*
X009129Y004438D01*
X009155Y004446D01*
X009181Y004450D01*
X009207Y004450D01*
X009233Y004446D01*
X009259Y004438D01*
X009283Y004426D01*
X009304Y004411D01*
X009324Y004393D01*
X009340Y004373D01*
X009353Y004350D01*
X009363Y004325D01*
X009369Y004299D01*
X009371Y004273D01*
X009369Y004247D01*
X009363Y004221D01*
X009353Y004196D01*
X009340Y004173D01*
X009324Y004153D01*
X009304Y004135D01*
X009282Y004120D01*
X009259Y004108D01*
X009233Y004100D01*
X009207Y004096D01*
X009181Y004096D01*
X009155Y004100D01*
X009129Y004108D01*
X009105Y004120D01*
X009084Y004135D01*
X009064Y004153D01*
X009048Y004173D01*
X009035Y004196D01*
X009025Y004221D01*
X009019Y004247D01*
X009017Y004273D01*
X010927Y002108D02*
X010929Y002158D01*
X010935Y002208D01*
X010945Y002257D01*
X010959Y002305D01*
X010976Y002352D01*
X010997Y002397D01*
X011022Y002441D01*
X011050Y002482D01*
X011082Y002521D01*
X011116Y002558D01*
X011153Y002592D01*
X011193Y002622D01*
X011235Y002649D01*
X011279Y002673D01*
X011325Y002694D01*
X011372Y002710D01*
X011420Y002723D01*
X011470Y002732D01*
X011519Y002737D01*
X011570Y002738D01*
X011620Y002735D01*
X011669Y002728D01*
X011718Y002717D01*
X011766Y002702D01*
X011812Y002684D01*
X011857Y002662D01*
X011900Y002636D01*
X011941Y002607D01*
X011980Y002575D01*
X012016Y002540D01*
X012048Y002502D01*
X012078Y002462D01*
X012105Y002419D01*
X012128Y002375D01*
X012147Y002329D01*
X012163Y002281D01*
X012175Y002232D01*
X012183Y002183D01*
X012187Y002133D01*
X012187Y002083D01*
X012183Y002033D01*
X012175Y001984D01*
X012163Y001935D01*
X012147Y001887D01*
X012128Y001841D01*
X012105Y001797D01*
X012078Y001754D01*
X012048Y001714D01*
X012016Y001676D01*
X011980Y001641D01*
X011941Y001609D01*
X011900Y001580D01*
X011857Y001554D01*
X011812Y001532D01*
X011766Y001514D01*
X011718Y001499D01*
X011669Y001488D01*
X011620Y001481D01*
X011570Y001478D01*
X011519Y001479D01*
X011470Y001484D01*
X011420Y001493D01*
X011372Y001506D01*
X011325Y001522D01*
X011279Y001543D01*
X011235Y001567D01*
X011193Y001594D01*
X011153Y001624D01*
X011116Y001658D01*
X011082Y001695D01*
X011050Y001734D01*
X011022Y001775D01*
X010997Y001819D01*
X010976Y001864D01*
X010959Y001911D01*
X010945Y001959D01*
X010935Y002008D01*
X010929Y002058D01*
X010927Y002108D01*
X010927Y029273D02*
X010929Y029323D01*
X010935Y029373D01*
X010945Y029422D01*
X010959Y029470D01*
X010976Y029517D01*
X010997Y029562D01*
X011022Y029606D01*
X011050Y029647D01*
X011082Y029686D01*
X011116Y029723D01*
X011153Y029757D01*
X011193Y029787D01*
X011235Y029814D01*
X011279Y029838D01*
X011325Y029859D01*
X011372Y029875D01*
X011420Y029888D01*
X011470Y029897D01*
X011519Y029902D01*
X011570Y029903D01*
X011620Y029900D01*
X011669Y029893D01*
X011718Y029882D01*
X011766Y029867D01*
X011812Y029849D01*
X011857Y029827D01*
X011900Y029801D01*
X011941Y029772D01*
X011980Y029740D01*
X012016Y029705D01*
X012048Y029667D01*
X012078Y029627D01*
X012105Y029584D01*
X012128Y029540D01*
X012147Y029494D01*
X012163Y029446D01*
X012175Y029397D01*
X012183Y029348D01*
X012187Y029298D01*
X012187Y029248D01*
X012183Y029198D01*
X012175Y029149D01*
X012163Y029100D01*
X012147Y029052D01*
X012128Y029006D01*
X012105Y028962D01*
X012078Y028919D01*
X012048Y028879D01*
X012016Y028841D01*
X011980Y028806D01*
X011941Y028774D01*
X011900Y028745D01*
X011857Y028719D01*
X011812Y028697D01*
X011766Y028679D01*
X011718Y028664D01*
X011669Y028653D01*
X011620Y028646D01*
X011570Y028643D01*
X011519Y028644D01*
X011470Y028649D01*
X011420Y028658D01*
X011372Y028671D01*
X011325Y028687D01*
X011279Y028708D01*
X011235Y028732D01*
X011193Y028759D01*
X011153Y028789D01*
X011116Y028823D01*
X011082Y028860D01*
X011050Y028899D01*
X011022Y028940D01*
X010997Y028984D01*
X010976Y029029D01*
X010959Y029076D01*
X010945Y029124D01*
X010935Y029173D01*
X010929Y029223D01*
X010927Y029273D01*
X000690Y029273D02*
X000692Y029323D01*
X000698Y029373D01*
X000708Y029422D01*
X000722Y029470D01*
X000739Y029517D01*
X000760Y029562D01*
X000785Y029606D01*
X000813Y029647D01*
X000845Y029686D01*
X000879Y029723D01*
X000916Y029757D01*
X000956Y029787D01*
X000998Y029814D01*
X001042Y029838D01*
X001088Y029859D01*
X001135Y029875D01*
X001183Y029888D01*
X001233Y029897D01*
X001282Y029902D01*
X001333Y029903D01*
X001383Y029900D01*
X001432Y029893D01*
X001481Y029882D01*
X001529Y029867D01*
X001575Y029849D01*
X001620Y029827D01*
X001663Y029801D01*
X001704Y029772D01*
X001743Y029740D01*
X001779Y029705D01*
X001811Y029667D01*
X001841Y029627D01*
X001868Y029584D01*
X001891Y029540D01*
X001910Y029494D01*
X001926Y029446D01*
X001938Y029397D01*
X001946Y029348D01*
X001950Y029298D01*
X001950Y029248D01*
X001946Y029198D01*
X001938Y029149D01*
X001926Y029100D01*
X001910Y029052D01*
X001891Y029006D01*
X001868Y028962D01*
X001841Y028919D01*
X001811Y028879D01*
X001779Y028841D01*
X001743Y028806D01*
X001704Y028774D01*
X001663Y028745D01*
X001620Y028719D01*
X001575Y028697D01*
X001529Y028679D01*
X001481Y028664D01*
X001432Y028653D01*
X001383Y028646D01*
X001333Y028643D01*
X001282Y028644D01*
X001233Y028649D01*
X001183Y028658D01*
X001135Y028671D01*
X001088Y028687D01*
X001042Y028708D01*
X000998Y028732D01*
X000956Y028759D01*
X000916Y028789D01*
X000879Y028823D01*
X000845Y028860D01*
X000813Y028899D01*
X000785Y028940D01*
X000760Y028984D01*
X000739Y029029D01*
X000722Y029076D01*
X000708Y029124D01*
X000698Y029173D01*
X000692Y029223D01*
X000690Y029273D01*
D11*
X000722Y020139D03*
X001722Y020139D03*
X002198Y020139D03*
X003198Y020139D03*
X003198Y017541D03*
X002198Y017541D03*
X001722Y017541D03*
X000722Y017541D03*
X009679Y017541D03*
X010679Y017541D03*
X011155Y017541D03*
X012155Y017541D03*
X012155Y020139D03*
X011155Y020139D03*
X010679Y020139D03*
X009679Y020139D03*
D12*
X009765Y021813D03*
X009765Y022561D03*
X009765Y024569D03*
X009765Y025317D03*
X010789Y025317D03*
X010789Y024943D03*
X010789Y024569D03*
X010789Y022561D03*
X010789Y022187D03*
X010789Y021813D03*
X003112Y021813D03*
X003112Y022561D03*
X003112Y024569D03*
X003112Y025317D03*
X002088Y025317D03*
X002088Y024943D03*
X002088Y024569D03*
X002088Y022561D03*
X002088Y022187D03*
X002088Y021813D03*
D13*
X001911Y023269D03*
X001911Y023860D03*
X001320Y023860D03*
X001320Y023269D03*
X000533Y023289D03*
X000533Y023840D03*
X004470Y024647D03*
X004470Y025238D03*
X005061Y023840D03*
X005061Y023289D03*
X004470Y022482D03*
X004470Y021891D03*
X007817Y023289D03*
X007817Y023840D03*
X008407Y024647D03*
X008407Y025238D03*
X008407Y022482D03*
X008407Y021891D03*
X010966Y023269D03*
X010966Y023860D03*
X011557Y023860D03*
X011557Y023269D03*
X012344Y023289D03*
X012344Y023840D03*
X012147Y014214D03*
X012147Y013624D03*
X011557Y013624D03*
X011557Y014214D03*
X010966Y014214D03*
X010966Y013624D03*
D14*
X008439Y013813D03*
X008439Y014813D03*
X007439Y014813D03*
X007439Y013813D03*
X006439Y013813D03*
X006439Y014813D03*
X005439Y014813D03*
X005439Y013813D03*
X004439Y013813D03*
X004439Y014813D03*
X005439Y017265D03*
X006439Y017265D03*
X007439Y017265D03*
X000828Y010391D03*
X000828Y009391D03*
X000828Y008391D03*
D15*
X008368Y004982D03*
X008368Y003407D03*
X008368Y002226D03*
X010021Y005572D03*
D16*
X010474Y008112D03*
X010474Y010671D03*
X012246Y010671D03*
X012246Y008112D03*
D17*
X010257Y012049D03*
X009706Y012049D03*
X009175Y005966D03*
X008624Y005966D03*
X003860Y005061D03*
X003309Y005061D03*
X003387Y021202D03*
X003978Y021202D03*
X003978Y023958D03*
X003387Y023958D03*
X008899Y023171D03*
X009490Y023171D03*
X009490Y025927D03*
X008899Y025927D03*
D18*
X010179Y020120D03*
X011655Y020120D03*
X011557Y006340D03*
X011557Y005553D03*
X012344Y005553D03*
X012344Y006340D03*
X010769Y006340D03*
X010769Y005553D03*
X002698Y020120D03*
X001222Y020120D03*
X001320Y006340D03*
X001320Y005553D03*
X000533Y005553D03*
X000533Y006340D03*
X002108Y006340D03*
X002108Y005553D03*
D19*
X003112Y003986D03*
X003112Y001899D03*
X006419Y001899D03*
X006419Y003986D03*
D20*
X005395Y004084D03*
X005080Y004084D03*
X004765Y004084D03*
X004450Y004084D03*
X004135Y004084D03*
D21*
X005848Y022935D03*
X005848Y024194D03*
X007029Y024194D03*
X007029Y022935D03*
D22*
X006976Y010984D03*
X007476Y010984D03*
X007976Y010984D03*
X008476Y010984D03*
X008976Y010984D03*
X008976Y007799D03*
X008476Y007799D03*
X007976Y007799D03*
X007476Y007799D03*
X006976Y007799D03*
X006476Y007799D03*
X005976Y007799D03*
X005476Y007799D03*
X005476Y010984D03*
X005976Y010984D03*
X006476Y010984D03*
D23*
X006511Y010968D02*
X006941Y010968D01*
X006941Y010948D02*
X006511Y010948D01*
X006511Y010533D01*
X006644Y010533D01*
X006679Y010543D01*
X006711Y010561D01*
X006726Y010576D01*
X006741Y010561D01*
X006773Y010543D01*
X006808Y010533D01*
X006941Y010533D01*
X006941Y010948D01*
X007011Y010948D01*
X007011Y010533D01*
X007144Y010533D01*
X007179Y010543D01*
X007211Y010561D01*
X007226Y010576D01*
X007241Y010561D01*
X007273Y010543D01*
X007308Y010533D01*
X007441Y010533D01*
X007441Y010948D01*
X007511Y010948D01*
X007511Y010533D01*
X007644Y010533D01*
X007678Y010543D01*
X007745Y010476D01*
X008200Y010476D01*
X008200Y010350D01*
X002285Y010350D01*
X002285Y010273D02*
X008232Y010273D01*
X008242Y010249D02*
X008200Y010350D01*
X008200Y010427D02*
X002285Y010427D01*
X002285Y010505D02*
X005216Y010505D01*
X005245Y010476D02*
X005707Y010476D01*
X005774Y010543D01*
X005808Y010533D01*
X005941Y010533D01*
X005941Y010948D01*
X006011Y010948D01*
X006011Y010533D01*
X006144Y010533D01*
X006179Y010543D01*
X006211Y010561D01*
X006226Y010576D01*
X006241Y010561D01*
X006273Y010543D01*
X006308Y010533D01*
X006441Y010533D01*
X006441Y010948D01*
X006511Y010948D01*
X006511Y011019D01*
X006441Y011019D01*
X006441Y011434D01*
X006308Y011434D01*
X006273Y011425D01*
X006241Y011406D01*
X006226Y011392D01*
X006211Y011406D01*
X006179Y011425D01*
X006144Y011434D01*
X006011Y011434D01*
X006011Y011019D01*
X005941Y011019D01*
X005941Y011434D01*
X005808Y011434D01*
X005774Y011425D01*
X005707Y011492D01*
X005245Y011492D01*
X005130Y011376D01*
X005130Y011259D01*
X003582Y011259D01*
X003231Y011611D01*
X003231Y011696D01*
X003034Y011892D01*
X002756Y011892D01*
X002560Y011696D01*
X002560Y011418D01*
X002756Y011221D01*
X002841Y011221D01*
X003312Y010750D01*
X003413Y010708D01*
X005130Y010708D01*
X005130Y010591D01*
X005245Y010476D01*
X005139Y010582D02*
X002285Y010582D01*
X002285Y010659D02*
X005130Y010659D01*
X005130Y011277D02*
X003565Y011277D01*
X003487Y011354D02*
X005130Y011354D01*
X005185Y011431D02*
X003410Y011431D01*
X003333Y011509D02*
X007714Y011509D01*
X007700Y011476D02*
X007700Y011447D01*
X007678Y011425D01*
X007644Y011434D01*
X007511Y011434D01*
X007511Y011019D01*
X007441Y011019D01*
X007441Y011434D01*
X007308Y011434D01*
X007273Y011425D01*
X007241Y011406D01*
X007226Y011392D01*
X007211Y011406D01*
X007179Y011425D01*
X007144Y011434D01*
X007011Y011434D01*
X007011Y011019D01*
X006941Y011019D01*
X006941Y011434D01*
X006808Y011434D01*
X006773Y011425D01*
X006741Y011406D01*
X006726Y011392D01*
X006711Y011406D01*
X006679Y011425D01*
X006644Y011434D01*
X006511Y011434D01*
X006511Y011019D01*
X006765Y011019D01*
X006941Y011019D01*
X006941Y010948D01*
X006941Y010891D02*
X007011Y010891D01*
X007011Y010948D02*
X007011Y011019D01*
X007441Y011019D01*
X007441Y010948D01*
X007265Y010948D01*
X007011Y010948D01*
X007011Y010968D02*
X007441Y010968D01*
X007441Y010891D02*
X007511Y010891D01*
X007511Y010814D02*
X007441Y010814D01*
X007441Y010736D02*
X007511Y010736D01*
X007511Y010659D02*
X007441Y010659D01*
X007441Y010582D02*
X007511Y010582D01*
X007716Y010505D02*
X005736Y010505D01*
X005941Y010582D02*
X006011Y010582D01*
X006011Y010659D02*
X005941Y010659D01*
X005941Y010736D02*
X006011Y010736D01*
X006011Y010814D02*
X005941Y010814D01*
X005941Y010891D02*
X006011Y010891D01*
X006011Y010948D02*
X006011Y011019D01*
X006265Y011019D01*
X006441Y011019D01*
X006441Y010948D01*
X006011Y010948D01*
X006011Y010968D02*
X006441Y010968D01*
X006441Y010891D02*
X006511Y010891D01*
X006511Y010814D02*
X006441Y010814D01*
X006441Y010736D02*
X006511Y010736D01*
X006511Y010659D02*
X006441Y010659D01*
X006441Y010582D02*
X006511Y010582D01*
X006511Y011045D02*
X006441Y011045D01*
X006441Y011123D02*
X006511Y011123D01*
X006511Y011200D02*
X006441Y011200D01*
X006441Y011277D02*
X006511Y011277D01*
X006511Y011354D02*
X006441Y011354D01*
X006441Y011431D02*
X006511Y011431D01*
X006654Y011431D02*
X006798Y011431D01*
X006941Y011431D02*
X007011Y011431D01*
X007011Y011354D02*
X006941Y011354D01*
X006941Y011277D02*
X007011Y011277D01*
X007011Y011200D02*
X006941Y011200D01*
X006941Y011123D02*
X007011Y011123D01*
X007011Y011045D02*
X006941Y011045D01*
X006941Y010814D02*
X007011Y010814D01*
X007011Y010736D02*
X006941Y010736D01*
X006941Y010659D02*
X007011Y010659D01*
X007011Y010582D02*
X006941Y010582D01*
X007154Y011431D02*
X007298Y011431D01*
X007441Y011431D02*
X007511Y011431D01*
X007511Y011354D02*
X007441Y011354D01*
X007441Y011277D02*
X007511Y011277D01*
X007511Y011200D02*
X007441Y011200D01*
X007441Y011123D02*
X007511Y011123D01*
X007511Y011045D02*
X007441Y011045D01*
X007654Y011431D02*
X007685Y011431D01*
X007700Y011476D02*
X007742Y011577D01*
X007820Y011654D01*
X008251Y012086D01*
X008352Y012128D01*
X008602Y012128D01*
X008760Y012286D01*
X009038Y012286D01*
X009235Y012089D01*
X009235Y011811D01*
X009038Y011615D01*
X008948Y011615D01*
X008856Y011576D01*
X008521Y011576D01*
X008437Y011492D01*
X008707Y011492D01*
X008774Y011425D01*
X008808Y011434D01*
X008941Y011434D01*
X008941Y011019D01*
X009011Y011019D01*
X009011Y011434D01*
X009144Y011434D01*
X009179Y011425D01*
X009211Y011406D01*
X009237Y011380D01*
X009255Y011349D01*
X009265Y011313D01*
X009265Y011019D01*
X009011Y011019D01*
X009011Y010948D01*
X009011Y010533D01*
X009144Y010533D01*
X009179Y010543D01*
X009211Y010561D01*
X009237Y010587D01*
X009255Y010619D01*
X009265Y010654D01*
X009265Y010948D01*
X009011Y010948D01*
X008941Y010948D01*
X008941Y010533D01*
X008808Y010533D01*
X008774Y010543D01*
X008752Y010520D01*
X008752Y010519D01*
X008915Y010356D01*
X009080Y010356D01*
X009313Y010588D01*
X009313Y010921D01*
X009310Y010930D01*
X009313Y010975D01*
X009313Y011021D01*
X009316Y011030D01*
X009317Y011039D01*
X009337Y011080D01*
X009355Y011122D01*
X009361Y011129D01*
X009365Y011137D01*
X009400Y011168D01*
X009432Y011200D01*
X009441Y011203D01*
X009990Y011684D01*
X009939Y011735D01*
X009918Y011722D01*
X009882Y011713D01*
X009746Y011713D01*
X009746Y012009D01*
X009667Y012009D01*
X009667Y011713D01*
X009530Y011713D01*
X009495Y011722D01*
X009463Y011740D01*
X009164Y011740D01*
X009235Y011818D02*
X009414Y011818D01*
X009409Y011834D02*
X009419Y011798D01*
X009437Y011766D01*
X009463Y011740D01*
X009409Y011834D02*
X009409Y012009D01*
X009667Y012009D01*
X009667Y012088D01*
X009409Y012088D01*
X009409Y012264D01*
X009419Y012299D01*
X009437Y012331D01*
X009463Y012357D01*
X009495Y012376D01*
X009530Y012385D01*
X009667Y012385D01*
X009667Y012088D01*
X009746Y012088D01*
X009746Y012385D01*
X009882Y012385D01*
X009918Y012376D01*
X009939Y012363D01*
X010018Y012443D01*
X010100Y012443D01*
X010100Y013537D01*
X008893Y013537D01*
X008893Y013474D01*
X008778Y013358D01*
X008214Y013358D01*
X008214Y013186D01*
X008214Y013185D01*
X008214Y013131D01*
X008214Y013077D01*
X008214Y013076D01*
X008214Y013076D01*
X008193Y013026D01*
X008172Y012975D01*
X008172Y012975D01*
X008172Y012975D01*
X008133Y012936D01*
X008095Y012898D01*
X008094Y012898D01*
X007578Y012385D01*
X007540Y012347D01*
X007539Y012346D01*
X007539Y012346D01*
X007488Y012325D01*
X007438Y012305D01*
X007438Y012305D01*
X007437Y012305D01*
X007383Y012305D01*
X004328Y012305D01*
X004314Y012290D01*
X004314Y012277D01*
X004262Y012154D01*
X004168Y012060D01*
X004045Y012009D01*
X003911Y012009D01*
X003788Y012060D01*
X003693Y012154D01*
X003687Y012169D01*
X003625Y012107D01*
X003347Y012107D01*
X003150Y012304D01*
X003150Y012582D01*
X003347Y012778D01*
X003432Y012778D01*
X003744Y013091D01*
X003822Y013168D01*
X003923Y013210D01*
X005788Y013210D01*
X005788Y013369D01*
X005778Y013358D01*
X005100Y013358D01*
X004984Y013474D01*
X004984Y014152D01*
X005100Y014267D01*
X005778Y014267D01*
X005893Y014152D01*
X005893Y013533D01*
X005985Y013625D01*
X006042Y013625D01*
X006042Y013773D01*
X006399Y013773D01*
X006399Y013852D01*
X006042Y013852D01*
X006042Y014088D01*
X006051Y014124D01*
X006070Y014156D01*
X006096Y014182D01*
X006127Y014200D01*
X006163Y014209D01*
X006399Y014209D01*
X006399Y013852D01*
X006478Y013852D01*
X006478Y014209D01*
X006663Y014209D01*
X006663Y014367D01*
X005786Y014367D01*
X005778Y014358D02*
X005893Y014474D01*
X005893Y015152D01*
X005778Y015267D01*
X005100Y015267D01*
X004984Y015152D01*
X004984Y014474D01*
X005100Y014358D01*
X005778Y014358D01*
X005863Y014444D02*
X006095Y014444D01*
X006096Y014444D02*
X006127Y014425D01*
X006163Y014416D01*
X006399Y014416D01*
X006399Y014773D01*
X006478Y014773D01*
X006478Y014416D01*
X006683Y014416D01*
X006663Y014367D01*
X006663Y014289D02*
X002573Y014289D01*
X002496Y014212D02*
X004045Y014212D01*
X004100Y014267D02*
X003984Y014152D01*
X003984Y013474D01*
X004100Y013358D01*
X004778Y013358D01*
X004893Y013474D01*
X004893Y014152D01*
X004778Y014267D01*
X004100Y014267D01*
X004100Y014358D02*
X004778Y014358D01*
X004893Y014474D01*
X004893Y015152D01*
X004778Y015267D01*
X004714Y015267D01*
X004714Y015691D01*
X007407Y015691D01*
X007445Y015686D01*
X007461Y015691D01*
X008608Y015691D01*
X010100Y014198D01*
X010100Y014088D01*
X008893Y014088D01*
X008893Y014152D01*
X008778Y014267D01*
X008283Y014267D01*
X008374Y014358D01*
X008778Y014358D01*
X008893Y014474D01*
X008893Y015152D01*
X008778Y015267D01*
X008100Y015267D01*
X007984Y015152D01*
X007984Y014748D01*
X007893Y014657D01*
X007893Y015152D01*
X007778Y015267D01*
X007100Y015267D01*
X006984Y015152D01*
X006984Y014748D01*
X006835Y014599D01*
X006835Y014773D01*
X006478Y014773D01*
X006478Y014852D01*
X006835Y014852D01*
X006835Y015088D01*
X006826Y015124D01*
X006808Y015156D01*
X006782Y015182D01*
X006750Y015200D01*
X006714Y015209D01*
X006478Y015209D01*
X006478Y014852D01*
X006399Y014852D01*
X006399Y014773D01*
X006042Y014773D01*
X006042Y014537D01*
X006051Y014501D01*
X006070Y014470D01*
X006096Y014444D01*
X006046Y014521D02*
X005893Y014521D01*
X005893Y014598D02*
X006042Y014598D01*
X006042Y014676D02*
X005893Y014676D01*
X005893Y014753D02*
X006042Y014753D01*
X006042Y014852D02*
X006399Y014852D01*
X006399Y015209D01*
X006163Y015209D01*
X006127Y015200D01*
X006096Y015182D01*
X006070Y015156D01*
X006051Y015124D01*
X006042Y015088D01*
X006042Y014852D01*
X006042Y014907D02*
X005893Y014907D01*
X005893Y014830D02*
X006399Y014830D01*
X006399Y014753D02*
X006478Y014753D01*
X006478Y014830D02*
X006984Y014830D01*
X006984Y014753D02*
X006835Y014753D01*
X006835Y014676D02*
X006912Y014676D01*
X006984Y014907D02*
X006835Y014907D01*
X006835Y014985D02*
X006984Y014985D01*
X006984Y015062D02*
X006835Y015062D01*
X006817Y015139D02*
X006984Y015139D01*
X007049Y015216D02*
X005828Y015216D01*
X005893Y015139D02*
X006060Y015139D01*
X006042Y015062D02*
X005893Y015062D01*
X005893Y014985D02*
X006042Y014985D01*
X006399Y014985D02*
X006478Y014985D01*
X006478Y015062D02*
X006399Y015062D01*
X006399Y015139D02*
X006478Y015139D01*
X006478Y014907D02*
X006399Y014907D01*
X006399Y014676D02*
X006478Y014676D01*
X006478Y014598D02*
X006399Y014598D01*
X006399Y014521D02*
X006478Y014521D01*
X006478Y014444D02*
X006399Y014444D01*
X006399Y014135D02*
X006478Y014135D01*
X006478Y014058D02*
X006399Y014058D01*
X006399Y013980D02*
X006478Y013980D01*
X006478Y013903D02*
X006399Y013903D01*
X006399Y013826D02*
X005893Y013826D01*
X005893Y013903D02*
X006042Y013903D01*
X006042Y013980D02*
X005893Y013980D01*
X005893Y014058D02*
X006042Y014058D01*
X006058Y014135D02*
X005893Y014135D01*
X005832Y014212D02*
X006663Y014212D01*
X006042Y013749D02*
X005893Y013749D01*
X005893Y013671D02*
X006042Y013671D01*
X005954Y013594D02*
X005893Y013594D01*
X005788Y013362D02*
X005782Y013362D01*
X005788Y013285D02*
X001931Y013285D01*
X001931Y013208D02*
X003918Y013208D01*
X003784Y013131D02*
X001931Y013131D01*
X001931Y013054D02*
X003707Y013054D01*
X003630Y012976D02*
X001931Y012976D01*
X001931Y012899D02*
X003553Y012899D01*
X003475Y012822D02*
X001931Y012822D01*
X001931Y012745D02*
X003313Y012745D01*
X003236Y012667D02*
X001931Y012667D01*
X001931Y012590D02*
X003159Y012590D01*
X003150Y012513D02*
X001931Y012513D01*
X001931Y012436D02*
X003150Y012436D01*
X003150Y012358D02*
X001931Y012358D01*
X001931Y012281D02*
X003173Y012281D01*
X003250Y012204D02*
X001931Y012204D01*
X001931Y012127D02*
X003327Y012127D01*
X003109Y011818D02*
X007983Y011818D01*
X008060Y011895D02*
X001931Y011895D01*
X001931Y011892D02*
X001931Y013647D01*
X003974Y015691D01*
X004163Y015691D01*
X004163Y015267D01*
X004100Y015267D01*
X003984Y015152D01*
X003984Y014474D01*
X004100Y014358D01*
X004091Y014367D02*
X002650Y014367D01*
X002727Y014444D02*
X004014Y014444D01*
X003984Y014521D02*
X002805Y014521D01*
X002882Y014598D02*
X003984Y014598D01*
X003984Y014676D02*
X002959Y014676D01*
X003036Y014753D02*
X003984Y014753D01*
X003984Y014830D02*
X003113Y014830D01*
X003191Y014907D02*
X003984Y014907D01*
X003984Y014985D02*
X003268Y014985D01*
X003345Y015062D02*
X003984Y015062D01*
X003984Y015139D02*
X003422Y015139D01*
X003500Y015216D02*
X004049Y015216D01*
X004163Y015293D02*
X003577Y015293D01*
X003654Y015371D02*
X004163Y015371D01*
X004163Y015448D02*
X003731Y015448D01*
X003809Y015525D02*
X004163Y015525D01*
X004163Y015602D02*
X003886Y015602D01*
X003963Y015680D02*
X004163Y015680D01*
X003805Y016242D02*
X003704Y016200D01*
X003626Y016122D01*
X001421Y013918D01*
X001380Y013816D01*
X001380Y009348D01*
X001225Y009194D01*
X001225Y009352D01*
X000868Y009352D01*
X000868Y009431D01*
X000789Y009431D01*
X000789Y009788D01*
X000553Y009788D01*
X000517Y009779D01*
X000485Y009760D01*
X000459Y009734D01*
X000441Y009703D01*
X000431Y009667D01*
X000431Y009431D01*
X000789Y009431D01*
X000789Y009352D01*
X000431Y009352D01*
X000431Y009116D01*
X000441Y009080D01*
X000459Y009048D01*
X000485Y009022D01*
X000517Y009004D01*
X000553Y008994D01*
X000789Y008994D01*
X000789Y009352D01*
X000868Y009352D01*
X000868Y008994D01*
X001026Y008994D01*
X000877Y008846D01*
X000489Y008846D01*
X000374Y008730D01*
X000374Y008052D01*
X000489Y007937D01*
X000553Y007937D01*
X000553Y007432D01*
X000551Y007426D01*
X000553Y007377D01*
X000553Y007329D01*
X000555Y007323D01*
X000556Y007316D01*
X000576Y007272D01*
X000595Y007227D01*
X000599Y007223D01*
X000602Y007217D01*
X000638Y007184D01*
X000672Y007150D01*
X000678Y007147D01*
X001045Y006813D01*
X001045Y006707D01*
X000927Y006589D01*
X000721Y006794D01*
X000345Y006794D01*
X000336Y006786D01*
X000336Y018525D01*
X012541Y018525D01*
X012541Y011037D01*
X012492Y011072D01*
X012426Y011106D01*
X012356Y011129D01*
X012285Y011140D01*
X012285Y010710D01*
X012206Y010710D01*
X012206Y011140D01*
X012136Y011129D01*
X012065Y011106D01*
X012000Y011072D01*
X011940Y011029D01*
X011888Y010977D01*
X011844Y010917D01*
X011816Y010862D01*
X011790Y010925D01*
X010904Y011811D01*
X010827Y011889D01*
X010726Y011931D01*
X010651Y011931D01*
X010651Y013051D01*
X010827Y012875D01*
X011105Y012875D01*
X011261Y013031D01*
X011418Y012875D01*
X011696Y012875D01*
X011852Y013031D01*
X012008Y012875D01*
X012286Y012875D01*
X012483Y013071D01*
X012483Y013326D01*
X012541Y013385D01*
X012541Y013863D01*
X012444Y013960D01*
X012456Y013971D01*
X012474Y014003D01*
X012483Y014038D01*
X012483Y014175D01*
X012187Y014175D01*
X012187Y014254D01*
X012108Y014254D01*
X012108Y014511D01*
X011932Y014511D01*
X011897Y014502D01*
X011865Y014483D01*
X011852Y014470D01*
X011839Y014483D01*
X011807Y014502D01*
X011772Y014511D01*
X011596Y014511D01*
X011596Y014254D01*
X011517Y014254D01*
X011517Y014511D01*
X011341Y014511D01*
X011306Y014502D01*
X011274Y014483D01*
X011261Y014470D01*
X011249Y014483D01*
X011217Y014502D01*
X011181Y014511D01*
X011006Y014511D01*
X011006Y014254D01*
X010927Y014254D01*
X010927Y014511D01*
X010751Y014511D01*
X010715Y014502D01*
X010684Y014483D01*
X010658Y014457D01*
X010639Y014425D01*
X010635Y014407D01*
X010609Y014469D01*
X010532Y014546D01*
X010532Y014546D01*
X008956Y016122D01*
X008878Y016200D01*
X008777Y016242D01*
X007754Y016242D01*
X007754Y016811D01*
X007778Y016811D01*
X007893Y016926D01*
X007893Y017604D01*
X007778Y017720D01*
X007100Y017720D01*
X006984Y017604D01*
X006984Y016926D01*
X007100Y016811D01*
X007124Y016811D01*
X007124Y016242D01*
X003805Y016242D01*
X003753Y016220D02*
X000336Y016220D01*
X000336Y016143D02*
X003647Y016143D01*
X003570Y016066D02*
X000336Y016066D01*
X000336Y015989D02*
X003493Y015989D01*
X003415Y015911D02*
X000336Y015911D01*
X000336Y015834D02*
X003338Y015834D01*
X003261Y015757D02*
X000336Y015757D01*
X000336Y015680D02*
X003184Y015680D01*
X003106Y015602D02*
X000336Y015602D01*
X000336Y015525D02*
X003029Y015525D01*
X002952Y015448D02*
X000336Y015448D01*
X000336Y015371D02*
X002875Y015371D01*
X002797Y015293D02*
X000336Y015293D01*
X000336Y015216D02*
X002720Y015216D01*
X002643Y015139D02*
X000336Y015139D01*
X000336Y015062D02*
X002566Y015062D01*
X002488Y014985D02*
X000336Y014985D01*
X000336Y014907D02*
X002411Y014907D01*
X002334Y014830D02*
X000336Y014830D01*
X000336Y014753D02*
X002257Y014753D01*
X002180Y014676D02*
X000336Y014676D01*
X000336Y014598D02*
X002102Y014598D01*
X002025Y014521D02*
X000336Y014521D01*
X000336Y014444D02*
X001948Y014444D01*
X001871Y014367D02*
X000336Y014367D01*
X000336Y014289D02*
X001793Y014289D01*
X001716Y014212D02*
X000336Y014212D01*
X000336Y014135D02*
X001639Y014135D01*
X001562Y014058D02*
X000336Y014058D01*
X000336Y013980D02*
X001484Y013980D01*
X001416Y013903D02*
X000336Y013903D01*
X000336Y013826D02*
X001384Y013826D01*
X001380Y013749D02*
X000336Y013749D01*
X000336Y013671D02*
X001380Y013671D01*
X001380Y013594D02*
X000336Y013594D01*
X000336Y013517D02*
X001380Y013517D01*
X001380Y013440D02*
X000336Y013440D01*
X000336Y013362D02*
X001380Y013362D01*
X001380Y013285D02*
X000336Y013285D01*
X000336Y013208D02*
X001380Y013208D01*
X001380Y013131D02*
X000336Y013131D01*
X000336Y013054D02*
X001380Y013054D01*
X001380Y012976D02*
X000336Y012976D01*
X000336Y012899D02*
X001380Y012899D01*
X001380Y012822D02*
X000336Y012822D01*
X000336Y012745D02*
X001380Y012745D01*
X001380Y012667D02*
X000336Y012667D01*
X000336Y012590D02*
X001380Y012590D01*
X001380Y012513D02*
X000336Y012513D01*
X000336Y012436D02*
X001380Y012436D01*
X001380Y012358D02*
X000336Y012358D01*
X000336Y012281D02*
X001380Y012281D01*
X001380Y012204D02*
X000336Y012204D01*
X000336Y012127D02*
X001380Y012127D01*
X001380Y012049D02*
X000336Y012049D01*
X000336Y011972D02*
X001380Y011972D01*
X001380Y011895D02*
X000336Y011895D01*
X000336Y011818D02*
X001380Y011818D01*
X001380Y011740D02*
X000336Y011740D01*
X000336Y011663D02*
X001380Y011663D01*
X001380Y011586D02*
X000336Y011586D01*
X000336Y011509D02*
X001380Y011509D01*
X001380Y011431D02*
X000336Y011431D01*
X000336Y011354D02*
X001380Y011354D01*
X001380Y011277D02*
X000336Y011277D01*
X000336Y011200D02*
X001380Y011200D01*
X001380Y011123D02*
X000336Y011123D01*
X000336Y011045D02*
X001380Y011045D01*
X001380Y010968D02*
X000336Y010968D01*
X000336Y010891D02*
X001380Y010891D01*
X001380Y010814D02*
X001199Y010814D01*
X001167Y010846D02*
X000489Y010846D01*
X000374Y010730D01*
X000374Y010052D01*
X000489Y009937D01*
X001167Y009937D01*
X001283Y010052D01*
X001283Y010730D01*
X001167Y010846D01*
X001277Y010736D02*
X001380Y010736D01*
X001380Y010659D02*
X001283Y010659D01*
X001283Y010582D02*
X001380Y010582D01*
X001380Y010505D02*
X001283Y010505D01*
X001283Y010427D02*
X001380Y010427D01*
X001380Y010350D02*
X001283Y010350D01*
X001283Y010273D02*
X001380Y010273D01*
X001380Y010196D02*
X001283Y010196D01*
X001283Y010118D02*
X001380Y010118D01*
X001380Y010041D02*
X001271Y010041D01*
X001194Y009964D02*
X001380Y009964D01*
X001380Y009887D02*
X000336Y009887D01*
X000336Y009964D02*
X000462Y009964D01*
X000385Y010041D02*
X000336Y010041D01*
X000336Y010118D02*
X000374Y010118D01*
X000374Y010196D02*
X000336Y010196D01*
X000336Y010273D02*
X000374Y010273D01*
X000374Y010350D02*
X000336Y010350D01*
X000336Y010427D02*
X000374Y010427D01*
X000374Y010505D02*
X000336Y010505D01*
X000336Y010582D02*
X000374Y010582D01*
X000374Y010659D02*
X000336Y010659D01*
X000336Y010736D02*
X000380Y010736D01*
X000336Y010814D02*
X000457Y010814D01*
X000336Y009809D02*
X001380Y009809D01*
X001380Y009732D02*
X001199Y009732D01*
X001197Y009734D02*
X001171Y009760D01*
X001140Y009779D01*
X001104Y009788D01*
X000868Y009788D01*
X000868Y009431D01*
X001225Y009431D01*
X001225Y009667D01*
X001216Y009703D01*
X001197Y009734D01*
X001225Y009655D02*
X001380Y009655D01*
X001380Y009578D02*
X001225Y009578D01*
X001225Y009500D02*
X001380Y009500D01*
X001380Y009423D02*
X000868Y009423D01*
X000868Y009346D02*
X000789Y009346D01*
X000789Y009423D02*
X000336Y009423D01*
X000336Y009346D02*
X000431Y009346D01*
X000431Y009269D02*
X000336Y009269D01*
X000336Y009191D02*
X000431Y009191D01*
X000432Y009114D02*
X000336Y009114D01*
X000336Y009037D02*
X000471Y009037D01*
X000336Y008960D02*
X000991Y008960D01*
X000914Y008883D02*
X000336Y008883D01*
X000336Y008805D02*
X000449Y008805D01*
X000374Y008728D02*
X000336Y008728D01*
X000336Y008651D02*
X000374Y008651D01*
X000374Y008574D02*
X000336Y008574D01*
X000336Y008496D02*
X000374Y008496D01*
X000374Y008419D02*
X000336Y008419D01*
X000336Y008342D02*
X000374Y008342D01*
X000374Y008265D02*
X000336Y008265D01*
X000336Y008187D02*
X000374Y008187D01*
X000374Y008110D02*
X000336Y008110D01*
X000336Y008033D02*
X000393Y008033D01*
X000336Y007956D02*
X000471Y007956D01*
X000553Y007878D02*
X000336Y007878D01*
X000336Y007801D02*
X000553Y007801D01*
X000553Y007724D02*
X000336Y007724D01*
X000336Y007647D02*
X000553Y007647D01*
X000553Y007569D02*
X000336Y007569D01*
X000336Y007492D02*
X000553Y007492D01*
X000551Y007415D02*
X000336Y007415D01*
X000336Y007338D02*
X000553Y007338D01*
X000581Y007260D02*
X000336Y007260D01*
X000336Y007183D02*
X000639Y007183D01*
X000724Y007106D02*
X000336Y007106D01*
X000336Y007029D02*
X000808Y007029D01*
X000893Y006952D02*
X000336Y006952D01*
X000336Y006874D02*
X000977Y006874D01*
X001045Y006797D02*
X000336Y006797D01*
X000796Y006720D02*
X001045Y006720D01*
X000980Y006643D02*
X000873Y006643D01*
X000927Y005304D02*
X001132Y005098D01*
X001509Y005098D01*
X001755Y005345D01*
X001943Y005156D01*
X002069Y005156D01*
X002069Y005513D01*
X002147Y005513D01*
X002147Y005156D01*
X002272Y005156D01*
X002505Y005388D01*
X002505Y005513D01*
X002147Y005513D01*
X002147Y005592D01*
X002069Y005592D01*
X002069Y006301D01*
X002147Y006301D01*
X002147Y005943D01*
X002147Y005592D01*
X002505Y005592D01*
X002505Y005717D01*
X002275Y005946D01*
X002505Y006176D01*
X002505Y006301D01*
X002147Y006301D01*
X002147Y006380D01*
X002505Y006380D01*
X002505Y006505D01*
X002315Y006694D01*
X002939Y006694D01*
X003595Y006038D01*
X003544Y005987D01*
X003544Y005709D01*
X003741Y005512D01*
X003860Y005512D01*
X003860Y005454D01*
X003621Y005454D01*
X003541Y005375D01*
X003520Y005387D01*
X003484Y005397D01*
X003348Y005397D01*
X003348Y005100D01*
X003269Y005100D01*
X003269Y005021D01*
X003348Y005021D01*
X003348Y004724D01*
X003484Y004724D01*
X003520Y004734D01*
X003541Y004746D01*
X003621Y004667D01*
X003860Y004667D01*
X003860Y004579D01*
X003840Y004559D01*
X003840Y003609D01*
X003955Y003494D01*
X005260Y003494D01*
X005318Y003551D01*
X005385Y003551D01*
X005385Y004074D01*
X005405Y004074D01*
X005405Y003551D01*
X005512Y003551D01*
X005547Y003561D01*
X005579Y003579D01*
X005605Y003605D01*
X005624Y003637D01*
X005633Y003672D01*
X005633Y004074D01*
X005405Y004074D01*
X005405Y004094D01*
X005385Y004094D01*
X005385Y004617D01*
X005356Y004617D01*
X005356Y004809D01*
X005765Y005218D01*
X007301Y005218D01*
X007351Y005217D01*
X007355Y005218D01*
X007360Y005218D01*
X007406Y005237D01*
X007454Y005255D01*
X007457Y005258D01*
X007461Y005260D01*
X007497Y005296D01*
X008128Y005890D01*
X008132Y005892D01*
X008168Y005928D01*
X008200Y005958D01*
X008200Y005509D01*
X008055Y005449D01*
X007900Y005294D01*
X007817Y005092D01*
X007817Y004872D01*
X007900Y004670D01*
X008055Y004515D01*
X008258Y004431D01*
X008477Y004431D01*
X008680Y004515D01*
X008835Y004670D01*
X008919Y004872D01*
X008919Y005092D01*
X008835Y005294D01*
X008752Y005378D01*
X008752Y005572D01*
X008863Y005572D01*
X008899Y005609D01*
X008936Y005572D01*
X009414Y005572D01*
X009470Y005629D01*
X009470Y005463D01*
X009554Y005260D01*
X009709Y005105D01*
X009912Y005021D01*
X010131Y005021D01*
X010333Y005105D01*
X010454Y005226D01*
X010581Y005098D01*
X010957Y005098D01*
X011163Y005304D01*
X011369Y005098D01*
X011745Y005098D01*
X011991Y005345D01*
X012180Y005156D01*
X012305Y005156D01*
X012305Y005513D01*
X012383Y005513D01*
X012383Y005156D01*
X012508Y005156D01*
X012541Y005188D01*
X012541Y001124D01*
X000336Y001124D01*
X000336Y005107D01*
X000345Y005098D01*
X000721Y005098D01*
X000927Y005304D01*
X000978Y005252D02*
X000875Y005252D01*
X000798Y005175D02*
X001056Y005175D01*
X001585Y005175D02*
X001924Y005175D01*
X001847Y005252D02*
X001662Y005252D01*
X001740Y005329D02*
X001770Y005329D01*
X002069Y005329D02*
X002147Y005329D01*
X002147Y005252D02*
X002069Y005252D01*
X002069Y005175D02*
X002147Y005175D01*
X002291Y005175D02*
X003012Y005175D01*
X003012Y005100D02*
X003269Y005100D01*
X003269Y005397D01*
X003133Y005397D01*
X003097Y005387D01*
X003066Y005369D01*
X003040Y005343D01*
X003021Y005311D01*
X003012Y005276D01*
X003012Y005100D01*
X003012Y005021D02*
X003012Y004845D01*
X003021Y004810D01*
X003040Y004778D01*
X003066Y004752D01*
X003097Y004734D01*
X003133Y004724D01*
X003269Y004724D01*
X003269Y005021D01*
X003012Y005021D01*
X000336Y005021D01*
X000336Y005098D02*
X003269Y005098D01*
X003269Y005175D02*
X003348Y005175D01*
X003348Y005252D02*
X003269Y005252D01*
X003269Y005329D02*
X003348Y005329D01*
X003348Y005021D02*
X003269Y005021D01*
X003269Y004943D02*
X003348Y004943D01*
X003348Y004866D02*
X003269Y004866D01*
X003269Y004789D02*
X003348Y004789D01*
X003151Y004558D02*
X003151Y004025D01*
X003072Y004025D01*
X003072Y003946D01*
X003151Y003946D01*
X003151Y003413D01*
X003622Y003413D01*
X003658Y003423D01*
X003690Y003441D01*
X003715Y003467D01*
X003734Y003499D01*
X003743Y003534D01*
X003743Y003946D01*
X003151Y003946D01*
X003151Y004025D01*
X003743Y004025D01*
X003743Y004437D01*
X003734Y004473D01*
X003715Y004504D01*
X003690Y004530D01*
X003658Y004549D01*
X003622Y004558D01*
X003151Y004558D01*
X003151Y004557D02*
X003072Y004557D01*
X003072Y004558D02*
X002601Y004558D01*
X002566Y004549D01*
X002534Y004530D01*
X002508Y004504D01*
X002490Y004473D01*
X002480Y004437D01*
X002480Y004025D01*
X003072Y004025D01*
X003072Y004558D01*
X003072Y004480D02*
X003151Y004480D01*
X003151Y004403D02*
X003072Y004403D01*
X003072Y004325D02*
X003151Y004325D01*
X003151Y004248D02*
X003072Y004248D01*
X003072Y004171D02*
X003151Y004171D01*
X003151Y004094D02*
X003072Y004094D01*
X003072Y004016D02*
X000336Y004016D01*
X000336Y003939D02*
X002480Y003939D01*
X002480Y003946D02*
X002480Y003534D01*
X002490Y003499D01*
X002508Y003467D01*
X002534Y003441D01*
X002566Y003423D01*
X002601Y003413D01*
X003072Y003413D01*
X003072Y003946D01*
X002480Y003946D01*
X002480Y003862D02*
X000336Y003862D01*
X000336Y003785D02*
X002480Y003785D01*
X002480Y003707D02*
X000336Y003707D01*
X000336Y003630D02*
X002480Y003630D01*
X002480Y003553D02*
X000336Y003553D01*
X000336Y003476D02*
X002503Y003476D01*
X002480Y004094D02*
X000336Y004094D01*
X000336Y004171D02*
X002480Y004171D01*
X002480Y004248D02*
X000336Y004248D01*
X000336Y004325D02*
X002480Y004325D01*
X002480Y004403D02*
X000336Y004403D01*
X000336Y004480D02*
X002494Y004480D01*
X002597Y004557D02*
X000336Y004557D01*
X000336Y004634D02*
X003860Y004634D01*
X003840Y004557D02*
X003627Y004557D01*
X003730Y004480D02*
X003840Y004480D01*
X003840Y004403D02*
X003743Y004403D01*
X003743Y004325D02*
X003840Y004325D01*
X003840Y004248D02*
X003743Y004248D01*
X003743Y004171D02*
X003840Y004171D01*
X003840Y004094D02*
X003743Y004094D01*
X003840Y004016D02*
X003151Y004016D01*
X003151Y003939D02*
X003072Y003939D01*
X003072Y003862D02*
X003151Y003862D01*
X003151Y003785D02*
X003072Y003785D01*
X003072Y003707D02*
X003151Y003707D01*
X003151Y003630D02*
X003072Y003630D01*
X003072Y003553D02*
X003151Y003553D01*
X003151Y003476D02*
X003072Y003476D01*
X003072Y002472D02*
X002601Y002472D01*
X002065Y002472D01*
X002033Y002549D02*
X007147Y002549D01*
X007147Y002626D02*
X001972Y002626D01*
X002021Y002576D02*
X001789Y002809D01*
X001485Y002935D01*
X001156Y002935D01*
X000852Y002809D01*
X000620Y002576D01*
X000494Y002272D01*
X000494Y001943D01*
X000620Y001640D01*
X000852Y001407D01*
X001156Y001281D01*
X001485Y001281D01*
X001789Y001407D01*
X002021Y001640D01*
X002147Y001943D01*
X002147Y002272D01*
X002021Y002576D01*
X001894Y002703D02*
X007147Y002703D01*
X007147Y002781D02*
X001817Y002781D01*
X001670Y002858D02*
X007147Y002858D01*
X007147Y002935D02*
X000336Y002935D01*
X000336Y002858D02*
X000970Y002858D01*
X000824Y002781D02*
X000336Y002781D01*
X000336Y002703D02*
X000747Y002703D01*
X000669Y002626D02*
X000336Y002626D01*
X000336Y002549D02*
X000608Y002549D01*
X000576Y002472D02*
X000336Y002472D01*
X000336Y002394D02*
X000544Y002394D01*
X000512Y002317D02*
X000336Y002317D01*
X000336Y002240D02*
X000494Y002240D01*
X000494Y002163D02*
X000336Y002163D01*
X000336Y002085D02*
X000494Y002085D01*
X000494Y002008D02*
X000336Y002008D01*
X000336Y001931D02*
X000499Y001931D01*
X000531Y001854D02*
X000336Y001854D01*
X000336Y001776D02*
X000563Y001776D01*
X000595Y001699D02*
X000336Y001699D01*
X000336Y001622D02*
X000637Y001622D01*
X000714Y001545D02*
X000336Y001545D01*
X000336Y001467D02*
X000792Y001467D01*
X000893Y001390D02*
X000336Y001390D01*
X000336Y001313D02*
X001079Y001313D01*
X001562Y001313D02*
X007133Y001313D01*
X007087Y001359D02*
X007284Y001162D01*
X007562Y001162D01*
X007758Y001359D01*
X007758Y001637D01*
X007698Y001697D01*
X007698Y004350D01*
X007758Y004410D01*
X007758Y004688D01*
X007562Y004884D01*
X007284Y004884D01*
X007087Y004688D01*
X007087Y004410D01*
X007147Y004350D01*
X007147Y001697D01*
X007087Y001637D01*
X007087Y001359D01*
X007087Y001390D02*
X007028Y001390D01*
X007023Y001381D02*
X007041Y001412D01*
X007050Y001448D01*
X007050Y001860D01*
X006458Y001860D01*
X006458Y001327D01*
X006929Y001327D01*
X006965Y001336D01*
X006997Y001355D01*
X007023Y001381D01*
X007050Y001467D02*
X007087Y001467D01*
X007087Y001545D02*
X007050Y001545D01*
X007050Y001622D02*
X007087Y001622D01*
X007050Y001699D02*
X007147Y001699D01*
X007147Y001776D02*
X007050Y001776D01*
X007050Y001854D02*
X007147Y001854D01*
X007147Y001931D02*
X006458Y001931D01*
X006458Y001939D02*
X007050Y001939D01*
X007050Y002351D01*
X007041Y002386D01*
X007023Y002418D01*
X006997Y002444D01*
X006965Y002462D01*
X006929Y002472D01*
X006458Y002472D01*
X006458Y001939D01*
X006380Y001939D01*
X006380Y002472D01*
X005908Y002472D01*
X003623Y002472D01*
X003622Y002472D02*
X003151Y002472D01*
X003151Y001939D01*
X003072Y001939D01*
X003072Y002472D01*
X003151Y002472D01*
X003151Y002394D02*
X003072Y002394D01*
X003072Y002317D02*
X003151Y002317D01*
X003151Y002240D02*
X003072Y002240D01*
X003072Y002163D02*
X003151Y002163D01*
X003151Y002085D02*
X003072Y002085D01*
X003072Y002008D02*
X003151Y002008D01*
X003151Y001939D02*
X003743Y001939D01*
X003743Y002351D01*
X003734Y002386D01*
X003715Y002418D01*
X003690Y002444D01*
X003658Y002462D01*
X003622Y002472D01*
X003729Y002394D02*
X005802Y002394D01*
X005797Y002386D02*
X005787Y002351D01*
X005787Y001939D01*
X006380Y001939D01*
X006380Y001860D01*
X006458Y001860D01*
X006458Y001939D01*
X006458Y002008D02*
X006380Y002008D01*
X006380Y001931D02*
X003151Y001931D01*
X003151Y001939D02*
X003151Y001860D01*
X003151Y001327D01*
X003622Y001327D01*
X003658Y001336D01*
X003690Y001355D01*
X003715Y001381D01*
X003734Y001412D01*
X003743Y001448D01*
X003743Y001860D01*
X003151Y001860D01*
X003072Y001860D01*
X002480Y001860D01*
X002480Y001448D01*
X002490Y001412D01*
X002508Y001381D01*
X002534Y001355D01*
X002566Y001336D01*
X002601Y001327D01*
X003072Y001327D01*
X003072Y001860D01*
X003072Y001939D01*
X002480Y001939D01*
X002480Y002351D01*
X002490Y002386D01*
X002508Y002418D01*
X002534Y002444D01*
X002566Y002462D01*
X002601Y002472D01*
X002495Y002394D02*
X002097Y002394D01*
X002129Y002317D02*
X002480Y002317D01*
X002480Y002240D02*
X002147Y002240D01*
X002147Y002163D02*
X002480Y002163D01*
X002480Y002085D02*
X002147Y002085D01*
X002147Y002008D02*
X002480Y002008D01*
X002480Y001854D02*
X002110Y001854D01*
X002142Y001931D02*
X003072Y001931D01*
X003072Y001854D02*
X003151Y001854D01*
X003151Y001776D02*
X003072Y001776D01*
X003072Y001699D02*
X003151Y001699D01*
X003151Y001622D02*
X003072Y001622D01*
X003072Y001545D02*
X003151Y001545D01*
X003151Y001467D02*
X003072Y001467D01*
X003072Y001390D02*
X003151Y001390D01*
X003721Y001390D02*
X005810Y001390D01*
X005815Y001381D02*
X005841Y001355D01*
X005873Y001336D01*
X005908Y001327D01*
X006380Y001327D01*
X006380Y001860D01*
X005787Y001860D01*
X005787Y001448D01*
X005797Y001412D01*
X005815Y001381D01*
X005787Y001467D02*
X003743Y001467D01*
X003743Y001545D02*
X005787Y001545D01*
X005787Y001622D02*
X003743Y001622D01*
X003743Y001699D02*
X005787Y001699D01*
X005787Y001776D02*
X003743Y001776D01*
X003743Y001854D02*
X005787Y001854D01*
X005787Y002008D02*
X003743Y002008D01*
X003743Y002085D02*
X005787Y002085D01*
X005787Y002163D02*
X003743Y002163D01*
X003743Y002240D02*
X005787Y002240D01*
X005787Y002317D02*
X003743Y002317D01*
X003720Y003476D02*
X005810Y003476D01*
X005815Y003467D02*
X005841Y003441D01*
X005873Y003423D01*
X005908Y003413D01*
X006380Y003413D01*
X006380Y003946D01*
X006458Y003946D01*
X006458Y003413D01*
X006929Y003413D01*
X006965Y003423D01*
X006997Y003441D01*
X007023Y003467D01*
X007041Y003499D01*
X007050Y003534D01*
X007050Y003946D01*
X006458Y003946D01*
X006458Y004025D01*
X006380Y004025D01*
X006380Y004558D01*
X005908Y004558D01*
X005873Y004549D01*
X005841Y004530D01*
X005815Y004504D01*
X005797Y004473D01*
X005787Y004437D01*
X005787Y004025D01*
X006380Y004025D01*
X006380Y003946D01*
X005787Y003946D01*
X005787Y003534D01*
X005797Y003499D01*
X005815Y003467D01*
X005787Y003553D02*
X005519Y003553D01*
X005405Y003553D02*
X005385Y003553D01*
X005385Y003630D02*
X005405Y003630D01*
X005405Y003707D02*
X005385Y003707D01*
X005385Y003785D02*
X005405Y003785D01*
X005405Y003862D02*
X005385Y003862D01*
X005385Y003939D02*
X005405Y003939D01*
X005405Y004016D02*
X005385Y004016D01*
X005405Y004094D02*
X005787Y004094D01*
X005787Y004171D02*
X005633Y004171D01*
X005633Y004094D02*
X005633Y004496D01*
X005624Y004532D01*
X005605Y004564D01*
X005579Y004589D01*
X005547Y004608D01*
X005512Y004617D01*
X005405Y004617D01*
X005405Y004094D01*
X005633Y004094D01*
X005633Y004016D02*
X006380Y004016D01*
X006380Y003939D02*
X006458Y003939D01*
X006458Y003862D02*
X006380Y003862D01*
X006380Y003785D02*
X006458Y003785D01*
X006458Y003707D02*
X006380Y003707D01*
X006380Y003630D02*
X006458Y003630D01*
X006458Y003553D02*
X006380Y003553D01*
X006380Y003476D02*
X006458Y003476D01*
X006458Y004016D02*
X007147Y004016D01*
X007147Y003939D02*
X007050Y003939D01*
X007050Y003862D02*
X007147Y003862D01*
X007147Y003785D02*
X007050Y003785D01*
X007050Y003707D02*
X007147Y003707D01*
X007147Y003630D02*
X007050Y003630D01*
X007050Y003553D02*
X007147Y003553D01*
X007147Y003476D02*
X007027Y003476D01*
X007147Y003398D02*
X000336Y003398D01*
X000336Y003321D02*
X007147Y003321D01*
X007147Y003244D02*
X000336Y003244D01*
X000336Y003167D02*
X007147Y003167D01*
X007147Y003090D02*
X000336Y003090D01*
X000336Y003012D02*
X007147Y003012D01*
X007147Y002472D02*
X006930Y002472D01*
X007036Y002394D02*
X007147Y002394D01*
X007147Y002317D02*
X007050Y002317D01*
X007050Y002240D02*
X007147Y002240D01*
X007147Y002163D02*
X007050Y002163D01*
X007050Y002085D02*
X007147Y002085D01*
X007147Y002008D02*
X007050Y002008D01*
X007210Y001236D02*
X000336Y001236D01*
X000336Y001158D02*
X009083Y001158D01*
X009120Y001143D02*
X009269Y001143D01*
X009406Y001200D01*
X009512Y001305D01*
X009569Y001443D01*
X009569Y001592D01*
X009512Y001729D01*
X009406Y001834D01*
X009269Y001891D01*
X009120Y001891D01*
X008983Y001834D01*
X008877Y001729D01*
X008820Y001592D01*
X008820Y001443D01*
X008877Y001305D01*
X008983Y001200D01*
X009120Y001143D01*
X008947Y001236D02*
X007636Y001236D01*
X007713Y001313D02*
X008874Y001313D01*
X008842Y001390D02*
X007758Y001390D01*
X007758Y001467D02*
X008820Y001467D01*
X008820Y001545D02*
X007758Y001545D01*
X007758Y001622D02*
X008833Y001622D01*
X008865Y001699D02*
X008536Y001699D01*
X008477Y001675D02*
X008680Y001759D01*
X008835Y001914D01*
X008919Y002116D01*
X008919Y002336D01*
X008835Y002538D01*
X008680Y002693D01*
X008477Y002777D01*
X008258Y002777D01*
X008055Y002693D01*
X007900Y002538D01*
X007817Y002336D01*
X007817Y002116D01*
X007900Y001914D01*
X008055Y001759D01*
X008258Y001675D01*
X008477Y001675D01*
X008698Y001776D02*
X008925Y001776D01*
X009029Y001854D02*
X008775Y001854D01*
X008842Y001931D02*
X010735Y001931D01*
X010730Y001943D02*
X010856Y001640D01*
X011088Y001407D01*
X011392Y001281D01*
X011721Y001281D01*
X012025Y001407D01*
X012258Y001640D01*
X012383Y001943D01*
X012383Y002272D01*
X012258Y002576D01*
X012025Y002809D01*
X011721Y002935D01*
X011392Y002935D01*
X011088Y002809D01*
X010856Y002576D01*
X010730Y002272D01*
X010730Y001943D01*
X010730Y002008D02*
X008874Y002008D01*
X008906Y002085D02*
X010730Y002085D01*
X010730Y002163D02*
X008919Y002163D01*
X008919Y002240D02*
X010730Y002240D01*
X010748Y002317D02*
X008919Y002317D01*
X008895Y002394D02*
X010780Y002394D01*
X010812Y002472D02*
X008863Y002472D01*
X008824Y002549D02*
X010844Y002549D01*
X010906Y002626D02*
X008747Y002626D01*
X008656Y002703D02*
X010983Y002703D01*
X011060Y002781D02*
X007698Y002781D01*
X007698Y002858D02*
X008254Y002858D01*
X008258Y002856D02*
X008477Y002856D01*
X008680Y002940D01*
X008835Y003095D01*
X008919Y003297D01*
X008919Y003517D01*
X008835Y003719D01*
X008680Y003874D01*
X008477Y003958D01*
X008258Y003958D01*
X008055Y003874D01*
X007900Y003719D01*
X007817Y003517D01*
X007817Y003297D01*
X007900Y003095D01*
X008055Y002940D01*
X008258Y002856D01*
X008482Y002858D02*
X011207Y002858D01*
X010767Y001854D02*
X009360Y001854D01*
X009464Y001776D02*
X010799Y001776D01*
X010831Y001699D02*
X009524Y001699D01*
X009556Y001622D02*
X010873Y001622D01*
X010951Y001545D02*
X009569Y001545D01*
X009569Y001467D02*
X011028Y001467D01*
X011129Y001390D02*
X009547Y001390D01*
X009515Y001313D02*
X011315Y001313D01*
X011798Y001313D02*
X012541Y001313D01*
X012541Y001390D02*
X011985Y001390D01*
X012086Y001467D02*
X012541Y001467D01*
X012541Y001545D02*
X012163Y001545D01*
X012240Y001622D02*
X012541Y001622D01*
X012541Y001699D02*
X012282Y001699D01*
X012314Y001776D02*
X012541Y001776D01*
X012541Y001854D02*
X012346Y001854D01*
X012378Y001931D02*
X012541Y001931D01*
X012541Y002008D02*
X012383Y002008D01*
X012383Y002085D02*
X012541Y002085D01*
X012541Y002163D02*
X012383Y002163D01*
X012383Y002240D02*
X012541Y002240D01*
X012541Y002317D02*
X012365Y002317D01*
X012333Y002394D02*
X012541Y002394D01*
X012541Y002472D02*
X012301Y002472D01*
X012269Y002549D02*
X012541Y002549D01*
X012541Y002626D02*
X012208Y002626D01*
X012130Y002703D02*
X012541Y002703D01*
X012541Y002781D02*
X012053Y002781D01*
X011907Y002858D02*
X012541Y002858D01*
X012541Y002935D02*
X008668Y002935D01*
X008752Y003012D02*
X012541Y003012D01*
X012541Y003090D02*
X008830Y003090D01*
X008865Y003167D02*
X012541Y003167D01*
X012541Y003244D02*
X008897Y003244D01*
X008919Y003321D02*
X012541Y003321D01*
X012541Y003398D02*
X008919Y003398D01*
X008919Y003476D02*
X012541Y003476D01*
X012541Y003553D02*
X008904Y003553D01*
X008872Y003630D02*
X012541Y003630D01*
X012541Y003707D02*
X008840Y003707D01*
X008770Y003785D02*
X012541Y003785D01*
X012541Y003862D02*
X008692Y003862D01*
X008524Y003939D02*
X009024Y003939D01*
X008983Y003956D02*
X009120Y003899D01*
X009269Y003899D01*
X009406Y003956D01*
X009512Y004061D01*
X009569Y004199D01*
X009569Y004348D01*
X009512Y004485D01*
X009406Y004590D01*
X009269Y004647D01*
X009120Y004647D01*
X008983Y004590D01*
X008877Y004485D01*
X008820Y004348D01*
X008820Y004199D01*
X008877Y004061D01*
X008983Y003956D01*
X008922Y004016D02*
X007698Y004016D01*
X007698Y003939D02*
X008212Y003939D01*
X008043Y003862D02*
X007698Y003862D01*
X007698Y003785D02*
X007966Y003785D01*
X007896Y003707D02*
X007698Y003707D01*
X007698Y003630D02*
X007864Y003630D01*
X007832Y003553D02*
X007698Y003553D01*
X007698Y003476D02*
X007817Y003476D01*
X007817Y003398D02*
X007698Y003398D01*
X007698Y003321D02*
X007817Y003321D01*
X007839Y003244D02*
X007698Y003244D01*
X007698Y003167D02*
X007871Y003167D01*
X007906Y003090D02*
X007698Y003090D01*
X007698Y003012D02*
X007983Y003012D01*
X008067Y002935D02*
X007698Y002935D01*
X007698Y002703D02*
X008080Y002703D01*
X007988Y002626D02*
X007698Y002626D01*
X007698Y002549D02*
X007911Y002549D01*
X007873Y002472D02*
X007698Y002472D01*
X007698Y002394D02*
X007841Y002394D01*
X007817Y002317D02*
X007698Y002317D01*
X007698Y002240D02*
X007817Y002240D01*
X007817Y002163D02*
X007698Y002163D01*
X007698Y002085D02*
X007829Y002085D01*
X007861Y002008D02*
X007698Y002008D01*
X007698Y001931D02*
X007893Y001931D01*
X007961Y001854D02*
X007698Y001854D01*
X007698Y001776D02*
X008038Y001776D01*
X008199Y001699D02*
X007698Y001699D01*
X007698Y004094D02*
X008864Y004094D01*
X008832Y004171D02*
X007698Y004171D01*
X007698Y004248D02*
X008820Y004248D01*
X008820Y004325D02*
X007698Y004325D01*
X007751Y004403D02*
X008843Y004403D01*
X008875Y004480D02*
X008596Y004480D01*
X008722Y004557D02*
X008949Y004557D01*
X009089Y004634D02*
X008800Y004634D01*
X008852Y004712D02*
X012541Y004712D01*
X012541Y004789D02*
X008884Y004789D01*
X008916Y004866D02*
X012541Y004866D01*
X012541Y004943D02*
X008919Y004943D01*
X008919Y005021D02*
X012541Y005021D01*
X012541Y005098D02*
X010316Y005098D01*
X010403Y005175D02*
X010505Y005175D01*
X010474Y005900D02*
X010333Y006040D01*
X010131Y006124D01*
X009912Y006124D01*
X009875Y006108D01*
X009724Y006260D01*
X009698Y006291D01*
X009685Y006298D01*
X009675Y006308D01*
X009252Y006732D01*
X009252Y007335D01*
X009322Y007406D01*
X009322Y008191D01*
X009207Y008307D01*
X008745Y008307D01*
X008726Y008288D01*
X008707Y008307D01*
X008245Y008307D01*
X008226Y008288D01*
X008207Y008307D01*
X007752Y008307D01*
X007752Y008326D01*
X007754Y008328D01*
X009647Y008328D01*
X009663Y008324D01*
X009702Y008328D01*
X009741Y008328D01*
X009756Y008334D01*
X009772Y008336D01*
X009806Y008355D01*
X009843Y008370D01*
X009854Y008381D01*
X009868Y008389D01*
X009892Y008420D01*
X009920Y008448D01*
X009926Y008462D01*
X010165Y008760D01*
X010219Y008760D01*
X010416Y008957D01*
X010416Y009235D01*
X010219Y009432D01*
X010121Y009432D01*
X010121Y009629D01*
X009924Y009825D01*
X009646Y009825D01*
X009449Y009629D01*
X009449Y009517D01*
X009183Y009194D01*
X007211Y009194D01*
X007109Y009153D01*
X006320Y008363D01*
X006263Y008307D01*
X006245Y008307D01*
X006226Y008288D01*
X006207Y008307D01*
X005745Y008307D01*
X005678Y008240D01*
X005644Y008249D01*
X005511Y008249D01*
X005511Y007834D01*
X005441Y007834D01*
X005441Y008249D01*
X005308Y008249D01*
X005273Y008240D01*
X005241Y008221D01*
X005215Y008195D01*
X005197Y008164D01*
X005187Y008128D01*
X005187Y007834D01*
X005441Y007834D01*
X005441Y007763D01*
X005511Y007763D01*
X005511Y007348D01*
X005611Y007348D01*
X005611Y007087D01*
X005807Y006890D01*
X006085Y006890D01*
X006282Y007087D01*
X006282Y007291D01*
X006595Y007291D01*
X006595Y007087D01*
X006792Y006890D01*
X007070Y006890D01*
X007266Y007087D01*
X007266Y007291D01*
X007700Y007291D01*
X007700Y006245D01*
X007195Y005769D01*
X005596Y005769D01*
X005495Y005727D01*
X005418Y005650D01*
X005041Y005273D01*
X005041Y006336D01*
X004999Y006437D01*
X003464Y007973D01*
X003386Y008050D01*
X003285Y008092D01*
X001955Y008092D01*
X001853Y008050D01*
X001755Y007952D01*
X001694Y007891D01*
X001694Y008293D01*
X002166Y008764D01*
X002243Y008842D01*
X002285Y008943D01*
X002285Y011358D01*
X002345Y011418D01*
X002345Y011696D01*
X002148Y011892D01*
X001931Y011892D01*
X001931Y011972D02*
X008138Y011972D01*
X008215Y012049D02*
X004143Y012049D01*
X004235Y012127D02*
X008350Y012127D01*
X008454Y011509D02*
X009790Y011509D01*
X009878Y011586D02*
X008879Y011586D01*
X008941Y011431D02*
X009011Y011431D01*
X009011Y011354D02*
X008941Y011354D01*
X008941Y011277D02*
X009011Y011277D01*
X009011Y011200D02*
X008941Y011200D01*
X008941Y011123D02*
X009011Y011123D01*
X009011Y011045D02*
X008941Y011045D01*
X009011Y010968D02*
X009312Y010968D01*
X009313Y010891D02*
X009265Y010891D01*
X009265Y010814D02*
X009313Y010814D01*
X009313Y010736D02*
X009265Y010736D01*
X009265Y010659D02*
X009313Y010659D01*
X009306Y010582D02*
X009232Y010582D01*
X009229Y010505D02*
X008766Y010505D01*
X008844Y010427D02*
X009152Y010427D01*
X009011Y010582D02*
X008941Y010582D01*
X008941Y010659D02*
X009011Y010659D01*
X009011Y010736D02*
X008941Y010736D01*
X008941Y010814D02*
X009011Y010814D01*
X009011Y010891D02*
X008941Y010891D01*
X009265Y011045D02*
X009320Y011045D01*
X009355Y011123D02*
X009265Y011123D01*
X009265Y011200D02*
X009432Y011200D01*
X009525Y011277D02*
X009265Y011277D01*
X009252Y011354D02*
X009613Y011354D01*
X009701Y011431D02*
X009154Y011431D01*
X009087Y011663D02*
X009966Y011663D01*
X009746Y011740D02*
X009667Y011740D01*
X009667Y011818D02*
X009746Y011818D01*
X009746Y011895D02*
X009667Y011895D01*
X009667Y011972D02*
X009746Y011972D01*
X009667Y012049D02*
X009235Y012049D01*
X009235Y011972D02*
X009409Y011972D01*
X009409Y011895D02*
X009235Y011895D01*
X009198Y012127D02*
X009409Y012127D01*
X009409Y012204D02*
X009120Y012204D01*
X009043Y012281D02*
X009414Y012281D01*
X009465Y012358D02*
X007551Y012358D01*
X007629Y012436D02*
X010012Y012436D01*
X010100Y012513D02*
X007707Y012513D01*
X007784Y012590D02*
X010100Y012590D01*
X010100Y012667D02*
X007862Y012667D01*
X007940Y012745D02*
X010100Y012745D01*
X010100Y012822D02*
X008018Y012822D01*
X008096Y012899D02*
X010100Y012899D01*
X010100Y012976D02*
X008173Y012976D01*
X008205Y013054D02*
X010100Y013054D01*
X010100Y013131D02*
X008214Y013131D01*
X008214Y013208D02*
X010100Y013208D01*
X010100Y013285D02*
X008214Y013285D01*
X008305Y014289D02*
X010009Y014289D01*
X010086Y014212D02*
X008832Y014212D01*
X008893Y014135D02*
X010100Y014135D01*
X009932Y014367D02*
X008786Y014367D01*
X008863Y014444D02*
X009855Y014444D01*
X009777Y014521D02*
X008893Y014521D01*
X008893Y014598D02*
X009700Y014598D01*
X009623Y014676D02*
X008893Y014676D01*
X008893Y014753D02*
X009546Y014753D01*
X009468Y014830D02*
X008893Y014830D01*
X008893Y014907D02*
X009391Y014907D01*
X009314Y014985D02*
X008893Y014985D01*
X008893Y015062D02*
X009237Y015062D01*
X009159Y015139D02*
X008893Y015139D01*
X008828Y015216D02*
X009082Y015216D01*
X009005Y015293D02*
X004714Y015293D01*
X004714Y015371D02*
X008928Y015371D01*
X008850Y015448D02*
X004714Y015448D01*
X004714Y015525D02*
X008773Y015525D01*
X008696Y015602D02*
X004714Y015602D01*
X004714Y015680D02*
X008619Y015680D01*
X008828Y016220D02*
X012541Y016220D01*
X012541Y016143D02*
X008935Y016143D01*
X008956Y016122D02*
X008956Y016122D01*
X009012Y016066D02*
X012541Y016066D01*
X012541Y015989D02*
X009089Y015989D01*
X009167Y015911D02*
X012541Y015911D01*
X012541Y015834D02*
X009244Y015834D01*
X009321Y015757D02*
X012541Y015757D01*
X012541Y015680D02*
X009398Y015680D01*
X009475Y015602D02*
X012541Y015602D01*
X012541Y015525D02*
X009553Y015525D01*
X009630Y015448D02*
X012541Y015448D01*
X012541Y015371D02*
X009707Y015371D01*
X009784Y015293D02*
X012541Y015293D01*
X012541Y015216D02*
X009862Y015216D01*
X009939Y015139D02*
X012541Y015139D01*
X012541Y015062D02*
X010016Y015062D01*
X010093Y014985D02*
X012541Y014985D01*
X012541Y014907D02*
X010171Y014907D01*
X010248Y014830D02*
X012541Y014830D01*
X012541Y014753D02*
X010325Y014753D01*
X010402Y014676D02*
X012541Y014676D01*
X012541Y014598D02*
X010480Y014598D01*
X010557Y014521D02*
X012541Y014521D01*
X012541Y014444D02*
X012463Y014444D01*
X012456Y014457D02*
X012430Y014483D01*
X012398Y014502D01*
X012362Y014511D01*
X012187Y014511D01*
X012187Y014254D01*
X012483Y014254D01*
X012483Y014390D01*
X012474Y014425D01*
X012456Y014457D01*
X012483Y014367D02*
X012541Y014367D01*
X012541Y014289D02*
X012483Y014289D01*
X012541Y014212D02*
X012187Y014212D01*
X012187Y014289D02*
X012108Y014289D01*
X012108Y014254D02*
X012108Y014175D01*
X011596Y014175D01*
X011596Y014254D01*
X011893Y014254D01*
X012108Y014254D01*
X012108Y014212D02*
X011596Y014212D01*
X011596Y014289D02*
X011517Y014289D01*
X011517Y014254D02*
X011517Y014175D01*
X011006Y014175D01*
X011006Y014254D01*
X011302Y014254D01*
X011517Y014254D01*
X011517Y014212D02*
X011006Y014212D01*
X011006Y014289D02*
X010927Y014289D01*
X010927Y014367D02*
X011006Y014367D01*
X011006Y014444D02*
X010927Y014444D01*
X010650Y014444D02*
X010620Y014444D01*
X010100Y013517D02*
X008893Y013517D01*
X008859Y013440D02*
X010100Y013440D01*
X010100Y013362D02*
X008782Y013362D01*
X008755Y012281D02*
X004314Y012281D01*
X004283Y012204D02*
X008678Y012204D01*
X008767Y011431D02*
X008798Y011431D01*
X008242Y010249D02*
X008320Y010171D01*
X008567Y009924D01*
X008645Y009847D01*
X008746Y009805D01*
X009249Y009805D01*
X009351Y009847D01*
X009744Y010240D01*
X009822Y010318D01*
X009864Y010419D01*
X009864Y010841D01*
X010147Y011089D01*
X010027Y010969D01*
X009947Y010776D01*
X009947Y010566D01*
X010027Y010372D01*
X010176Y010224D01*
X010369Y010144D01*
X010579Y010144D01*
X010772Y010224D01*
X010921Y010372D01*
X011001Y010566D01*
X011001Y010776D01*
X010921Y010969D01*
X010772Y011118D01*
X010579Y011198D01*
X010369Y011198D01*
X010183Y011121D01*
X010479Y011380D01*
X010557Y011380D01*
X011281Y010655D01*
X011281Y006707D01*
X011163Y006589D01*
X010957Y006794D01*
X010581Y006794D01*
X010315Y006528D01*
X010315Y006152D01*
X010494Y005973D01*
X010494Y005920D01*
X010474Y005900D01*
X010494Y005947D02*
X010426Y005947D01*
X010442Y006025D02*
X010349Y006025D01*
X010365Y006102D02*
X010183Y006102D01*
X010315Y006179D02*
X009804Y006179D01*
X009727Y006256D02*
X010315Y006256D01*
X010315Y006334D02*
X009650Y006334D01*
X009573Y006411D02*
X010315Y006411D01*
X010315Y006488D02*
X009495Y006488D01*
X009418Y006565D02*
X010352Y006565D01*
X010429Y006643D02*
X009341Y006643D01*
X009264Y006720D02*
X010506Y006720D01*
X010579Y007585D02*
X010369Y007585D01*
X010176Y007665D01*
X010027Y007813D01*
X009947Y008007D01*
X009947Y008217D01*
X010027Y008410D01*
X010176Y008558D01*
X010369Y008639D01*
X010579Y008639D01*
X010772Y008558D01*
X010921Y008410D01*
X011001Y008217D01*
X011001Y008007D01*
X010921Y007813D01*
X010772Y007665D01*
X010579Y007585D01*
X010728Y007647D02*
X011281Y007647D01*
X011281Y007724D02*
X010831Y007724D01*
X010908Y007801D02*
X011281Y007801D01*
X011281Y007878D02*
X010948Y007878D01*
X010980Y007956D02*
X011281Y007956D01*
X011281Y008033D02*
X011001Y008033D01*
X011001Y008110D02*
X011281Y008110D01*
X011281Y008187D02*
X011001Y008187D01*
X010981Y008265D02*
X011281Y008265D01*
X011281Y008342D02*
X010949Y008342D01*
X010912Y008419D02*
X011281Y008419D01*
X011281Y008496D02*
X010835Y008496D01*
X010736Y008574D02*
X011281Y008574D01*
X011281Y008651D02*
X010077Y008651D01*
X010139Y008728D02*
X011281Y008728D01*
X011281Y008805D02*
X010264Y008805D01*
X010341Y008883D02*
X011281Y008883D01*
X011281Y008960D02*
X010416Y008960D01*
X010416Y009037D02*
X011281Y009037D01*
X011281Y009114D02*
X010416Y009114D01*
X010416Y009191D02*
X011281Y009191D01*
X011281Y009269D02*
X010382Y009269D01*
X010305Y009346D02*
X011281Y009346D01*
X011281Y009423D02*
X010228Y009423D01*
X010121Y009500D02*
X011281Y009500D01*
X011281Y009578D02*
X010121Y009578D01*
X010094Y009655D02*
X011281Y009655D01*
X011281Y009732D02*
X010017Y009732D01*
X009940Y009809D02*
X011281Y009809D01*
X011281Y009887D02*
X009391Y009887D01*
X009468Y009964D02*
X011281Y009964D01*
X011281Y010041D02*
X009545Y010041D01*
X009622Y010118D02*
X011281Y010118D01*
X011281Y010196D02*
X010703Y010196D01*
X010821Y010273D02*
X011281Y010273D01*
X011281Y010350D02*
X010898Y010350D01*
X010943Y010427D02*
X011281Y010427D01*
X011281Y010505D02*
X010975Y010505D01*
X011001Y010582D02*
X011281Y010582D01*
X011277Y010659D02*
X011001Y010659D01*
X011001Y010736D02*
X011200Y010736D01*
X011123Y010814D02*
X010985Y010814D01*
X010953Y010891D02*
X011045Y010891D01*
X010968Y010968D02*
X010921Y010968D01*
X010891Y011045D02*
X010845Y011045D01*
X010814Y011123D02*
X010760Y011123D01*
X010736Y011200D02*
X010274Y011200D01*
X010188Y011123D02*
X010185Y011123D01*
X010103Y011045D02*
X010097Y011045D01*
X010027Y010968D02*
X010009Y010968D01*
X009995Y010891D02*
X009921Y010891D01*
X009963Y010814D02*
X009864Y010814D01*
X009864Y010736D02*
X009947Y010736D01*
X009947Y010659D02*
X009864Y010659D01*
X009864Y010582D02*
X009947Y010582D01*
X009973Y010505D02*
X009864Y010505D01*
X009864Y010427D02*
X010005Y010427D01*
X010050Y010350D02*
X009835Y010350D01*
X009777Y010273D02*
X010127Y010273D01*
X010245Y010196D02*
X009700Y010196D01*
X009630Y009809D02*
X009261Y009809D01*
X009476Y009655D02*
X002285Y009655D01*
X002285Y009732D02*
X009553Y009732D01*
X009449Y009578D02*
X002285Y009578D01*
X002285Y009500D02*
X009436Y009500D01*
X009372Y009423D02*
X002285Y009423D01*
X002285Y009346D02*
X009308Y009346D01*
X009244Y009269D02*
X002285Y009269D01*
X002285Y009191D02*
X007203Y009191D01*
X007071Y009114D02*
X002285Y009114D01*
X002285Y009037D02*
X006994Y009037D01*
X006916Y008960D02*
X002285Y008960D01*
X002260Y008883D02*
X006839Y008883D01*
X006762Y008805D02*
X002207Y008805D01*
X002130Y008728D02*
X006685Y008728D01*
X006608Y008651D02*
X002052Y008651D01*
X001975Y008574D02*
X006530Y008574D01*
X006453Y008496D02*
X001898Y008496D01*
X001821Y008419D02*
X006376Y008419D01*
X006299Y008342D02*
X001743Y008342D01*
X001694Y008265D02*
X005703Y008265D01*
X005511Y008187D02*
X005441Y008187D01*
X005441Y008110D02*
X005511Y008110D01*
X005511Y008033D02*
X005441Y008033D01*
X005441Y007956D02*
X005511Y007956D01*
X005511Y007878D02*
X005441Y007878D01*
X005441Y007801D02*
X003635Y007801D01*
X003712Y007724D02*
X005187Y007724D01*
X005187Y007763D02*
X005187Y007469D01*
X005197Y007434D01*
X005215Y007402D01*
X005241Y007376D01*
X005273Y007358D01*
X005308Y007348D01*
X005441Y007348D01*
X005441Y007763D01*
X005187Y007763D01*
X005187Y007878D02*
X003558Y007878D01*
X003481Y007956D02*
X005187Y007956D01*
X005187Y008033D02*
X003403Y008033D01*
X003790Y007647D02*
X005187Y007647D01*
X005187Y007569D02*
X003867Y007569D01*
X003944Y007492D02*
X005187Y007492D01*
X005207Y007415D02*
X004021Y007415D01*
X004098Y007338D02*
X005611Y007338D01*
X005611Y007260D02*
X004176Y007260D01*
X004253Y007183D02*
X005611Y007183D01*
X005611Y007106D02*
X004330Y007106D01*
X004407Y007029D02*
X005669Y007029D01*
X005746Y006952D02*
X004485Y006952D01*
X004562Y006874D02*
X007700Y006874D01*
X007700Y006797D02*
X004639Y006797D01*
X004716Y006720D02*
X007700Y006720D01*
X007700Y006643D02*
X004794Y006643D01*
X004871Y006565D02*
X007700Y006565D01*
X007700Y006488D02*
X004948Y006488D01*
X005010Y006411D02*
X007700Y006411D01*
X007700Y006334D02*
X005041Y006334D01*
X005041Y006256D02*
X007700Y006256D01*
X007631Y006179D02*
X005041Y006179D01*
X005041Y006102D02*
X007549Y006102D01*
X007467Y006025D02*
X005041Y006025D01*
X005041Y005947D02*
X007385Y005947D01*
X007303Y005870D02*
X005041Y005870D01*
X005041Y005793D02*
X007221Y005793D01*
X007445Y005252D02*
X007883Y005252D01*
X007851Y005175D02*
X005722Y005175D01*
X005645Y005098D02*
X007819Y005098D01*
X007817Y005021D02*
X005568Y005021D01*
X005490Y004943D02*
X007817Y004943D01*
X007819Y004866D02*
X007580Y004866D01*
X007657Y004789D02*
X007851Y004789D01*
X007883Y004712D02*
X007735Y004712D01*
X007758Y004634D02*
X007936Y004634D01*
X008013Y004557D02*
X007758Y004557D01*
X007758Y004480D02*
X008139Y004480D01*
X007936Y005329D02*
X007532Y005329D01*
X007614Y005407D02*
X008013Y005407D01*
X008140Y005484D02*
X007696Y005484D01*
X007778Y005561D02*
X008200Y005561D01*
X008200Y005638D02*
X007861Y005638D01*
X007943Y005716D02*
X008200Y005716D01*
X008200Y005793D02*
X008025Y005793D01*
X008107Y005870D02*
X008200Y005870D01*
X008189Y005947D02*
X008200Y005947D01*
X008752Y005561D02*
X009470Y005561D01*
X009470Y005484D02*
X008752Y005484D01*
X008752Y005407D02*
X009493Y005407D01*
X009525Y005329D02*
X008800Y005329D01*
X008852Y005252D02*
X009562Y005252D01*
X009639Y005175D02*
X008884Y005175D01*
X008916Y005098D02*
X009727Y005098D01*
X009440Y004557D02*
X012541Y004557D01*
X012541Y004480D02*
X009514Y004480D01*
X009546Y004403D02*
X012541Y004403D01*
X012541Y004325D02*
X009569Y004325D01*
X009569Y004248D02*
X012541Y004248D01*
X012541Y004171D02*
X009557Y004171D01*
X009525Y004094D02*
X012541Y004094D01*
X012541Y004016D02*
X009467Y004016D01*
X009365Y003939D02*
X012541Y003939D01*
X012541Y004634D02*
X009300Y004634D01*
X009252Y006797D02*
X011281Y006797D01*
X011281Y006720D02*
X011032Y006720D01*
X011109Y006643D02*
X011217Y006643D01*
X011281Y006874D02*
X009252Y006874D01*
X009252Y006952D02*
X011281Y006952D01*
X011281Y007029D02*
X009252Y007029D01*
X009252Y007106D02*
X011281Y007106D01*
X011281Y007183D02*
X009252Y007183D01*
X009252Y007260D02*
X011281Y007260D01*
X011281Y007338D02*
X009254Y007338D01*
X009322Y007415D02*
X011281Y007415D01*
X011281Y007492D02*
X009322Y007492D01*
X009322Y007569D02*
X011281Y007569D01*
X011832Y007569D02*
X012541Y007569D01*
X012541Y007492D02*
X011832Y007492D01*
X011832Y007415D02*
X012541Y007415D01*
X012541Y007338D02*
X011832Y007338D01*
X011832Y007260D02*
X012541Y007260D01*
X012541Y007183D02*
X011832Y007183D01*
X011832Y007106D02*
X012541Y007106D01*
X012541Y007029D02*
X011832Y007029D01*
X011832Y006952D02*
X012541Y006952D01*
X012541Y006874D02*
X011832Y006874D01*
X011832Y006797D02*
X012541Y006797D01*
X012508Y006737D02*
X012383Y006737D01*
X012383Y006380D01*
X012305Y006380D01*
X012305Y006737D01*
X012180Y006737D01*
X011991Y006548D01*
X011832Y006707D01*
X011832Y007889D01*
X011844Y007866D01*
X011888Y007806D01*
X011940Y007754D01*
X012000Y007710D01*
X012065Y007677D01*
X012136Y007654D01*
X012206Y007643D01*
X012206Y008072D01*
X012285Y008072D01*
X012285Y007643D01*
X012356Y007654D01*
X012426Y007677D01*
X012492Y007710D01*
X012541Y007746D01*
X012541Y006705D01*
X012508Y006737D01*
X012526Y006720D02*
X012541Y006720D01*
X012383Y006720D02*
X012305Y006720D01*
X012305Y006643D02*
X012383Y006643D01*
X012383Y006565D02*
X012305Y006565D01*
X012305Y006488D02*
X012383Y006488D01*
X012383Y006411D02*
X012305Y006411D01*
X012305Y006301D02*
X012383Y006301D01*
X012383Y005950D01*
X012383Y005592D01*
X012305Y005592D01*
X012305Y006301D01*
X012305Y006256D02*
X012383Y006256D01*
X012383Y006179D02*
X012305Y006179D01*
X012305Y006102D02*
X012383Y006102D01*
X012383Y006025D02*
X012305Y006025D01*
X012305Y005947D02*
X012383Y005947D01*
X012383Y005870D02*
X012305Y005870D01*
X012305Y005793D02*
X012383Y005793D01*
X012383Y005716D02*
X012305Y005716D01*
X012305Y005638D02*
X012383Y005638D01*
X012383Y005484D02*
X012305Y005484D01*
X012305Y005407D02*
X012383Y005407D01*
X012383Y005329D02*
X012305Y005329D01*
X012305Y005252D02*
X012383Y005252D01*
X012383Y005175D02*
X012305Y005175D01*
X012161Y005175D02*
X011821Y005175D01*
X011899Y005252D02*
X012083Y005252D01*
X012006Y005329D02*
X011976Y005329D01*
X012528Y005175D02*
X012541Y005175D01*
X012008Y006565D02*
X011974Y006565D01*
X011897Y006643D02*
X012085Y006643D01*
X012163Y006720D02*
X011832Y006720D01*
X011832Y007647D02*
X012182Y007647D01*
X012206Y007647D02*
X012285Y007647D01*
X012309Y007647D02*
X012541Y007647D01*
X012541Y007724D02*
X012510Y007724D01*
X012285Y007724D02*
X012206Y007724D01*
X012206Y007801D02*
X012285Y007801D01*
X012285Y007878D02*
X012206Y007878D01*
X012206Y007956D02*
X012285Y007956D01*
X012285Y008033D02*
X012206Y008033D01*
X012206Y008151D02*
X012206Y008581D01*
X012136Y008570D01*
X012065Y008547D01*
X012000Y008513D01*
X011940Y008470D01*
X011888Y008418D01*
X011844Y008358D01*
X011832Y008334D01*
X011832Y010448D01*
X011844Y010425D01*
X011888Y010365D01*
X011940Y010313D01*
X012000Y010269D01*
X012065Y010236D01*
X012136Y010213D01*
X012206Y010202D01*
X012206Y010631D01*
X012285Y010631D01*
X012285Y010202D01*
X012356Y010213D01*
X012426Y010236D01*
X012492Y010269D01*
X012541Y010305D01*
X012541Y008477D01*
X012492Y008513D01*
X012426Y008547D01*
X012356Y008570D01*
X012285Y008581D01*
X012285Y008151D01*
X012206Y008151D01*
X012206Y008187D02*
X012285Y008187D01*
X012285Y008265D02*
X012206Y008265D01*
X012206Y008342D02*
X012285Y008342D01*
X012285Y008419D02*
X012206Y008419D01*
X012206Y008496D02*
X012285Y008496D01*
X012285Y008574D02*
X012206Y008574D01*
X012161Y008574D02*
X011832Y008574D01*
X011832Y008651D02*
X012541Y008651D01*
X012541Y008728D02*
X011832Y008728D01*
X011832Y008805D02*
X012541Y008805D01*
X012541Y008883D02*
X011832Y008883D01*
X011832Y008960D02*
X012541Y008960D01*
X012541Y009037D02*
X011832Y009037D01*
X011832Y009114D02*
X012541Y009114D01*
X012541Y009191D02*
X011832Y009191D01*
X011832Y009269D02*
X012541Y009269D01*
X012541Y009346D02*
X011832Y009346D01*
X011832Y009423D02*
X012541Y009423D01*
X012541Y009500D02*
X011832Y009500D01*
X011832Y009578D02*
X012541Y009578D01*
X012541Y009655D02*
X011832Y009655D01*
X011832Y009732D02*
X012541Y009732D01*
X012541Y009809D02*
X011832Y009809D01*
X011832Y009887D02*
X012541Y009887D01*
X012541Y009964D02*
X011832Y009964D01*
X011832Y010041D02*
X012541Y010041D01*
X012541Y010118D02*
X011832Y010118D01*
X011832Y010196D02*
X012541Y010196D01*
X012541Y010273D02*
X012496Y010273D01*
X012285Y010273D02*
X012206Y010273D01*
X012206Y010350D02*
X012285Y010350D01*
X012285Y010427D02*
X012206Y010427D01*
X012206Y010505D02*
X012285Y010505D01*
X012285Y010582D02*
X012206Y010582D01*
X012206Y010736D02*
X012285Y010736D01*
X012285Y010814D02*
X012206Y010814D01*
X012206Y010891D02*
X012285Y010891D01*
X012285Y010968D02*
X012206Y010968D01*
X012206Y011045D02*
X012285Y011045D01*
X012285Y011123D02*
X012206Y011123D01*
X012117Y011123D02*
X011593Y011123D01*
X011516Y011200D02*
X012541Y011200D01*
X012541Y011277D02*
X011439Y011277D01*
X011361Y011354D02*
X012541Y011354D01*
X012541Y011431D02*
X011284Y011431D01*
X011207Y011509D02*
X012541Y011509D01*
X012541Y011586D02*
X011130Y011586D01*
X011053Y011663D02*
X012541Y011663D01*
X012541Y011740D02*
X010975Y011740D01*
X010898Y011818D02*
X012541Y011818D01*
X012541Y011895D02*
X010812Y011895D01*
X010651Y011972D02*
X012541Y011972D01*
X012541Y012049D02*
X010651Y012049D01*
X010651Y012127D02*
X012541Y012127D01*
X012541Y012204D02*
X010651Y012204D01*
X010651Y012281D02*
X012541Y012281D01*
X012541Y012358D02*
X010651Y012358D01*
X010651Y012436D02*
X012541Y012436D01*
X012541Y012513D02*
X010651Y012513D01*
X010651Y012590D02*
X012541Y012590D01*
X012541Y012667D02*
X010651Y012667D01*
X010651Y012745D02*
X012541Y012745D01*
X012541Y012822D02*
X010651Y012822D01*
X010651Y012899D02*
X010803Y012899D01*
X010726Y012976D02*
X010651Y012976D01*
X011130Y012899D02*
X011393Y012899D01*
X011316Y012976D02*
X011207Y012976D01*
X011720Y012899D02*
X011984Y012899D01*
X011907Y012976D02*
X011797Y012976D01*
X012311Y012899D02*
X012541Y012899D01*
X012541Y012976D02*
X012388Y012976D01*
X012465Y013054D02*
X012541Y013054D01*
X012541Y013131D02*
X012483Y013131D01*
X012483Y013208D02*
X012541Y013208D01*
X012541Y013285D02*
X012483Y013285D01*
X012519Y013362D02*
X012541Y013362D01*
X012541Y013440D02*
X012541Y013440D01*
X012541Y013517D02*
X012541Y013517D01*
X012541Y013594D02*
X012541Y013594D01*
X012541Y013671D02*
X012541Y013671D01*
X012541Y013749D02*
X012541Y013749D01*
X012541Y013826D02*
X012541Y013826D01*
X012541Y013903D02*
X012500Y013903D01*
X012461Y013980D02*
X012541Y013980D01*
X012541Y014058D02*
X012483Y014058D01*
X012483Y014135D02*
X012541Y014135D01*
X012187Y014367D02*
X012108Y014367D01*
X012108Y014444D02*
X012187Y014444D01*
X011596Y014444D02*
X011517Y014444D01*
X011517Y014367D02*
X011596Y014367D01*
X011476Y016242D02*
X011222Y016495D01*
X011222Y016772D01*
X011070Y016961D01*
X011068Y016962D01*
X011062Y016970D01*
X010955Y016970D01*
X010875Y017051D01*
X010851Y017037D01*
X010815Y017028D01*
X010698Y017028D01*
X010698Y017521D01*
X010659Y017521D01*
X010659Y017028D01*
X010542Y017028D01*
X010507Y017037D01*
X010475Y017055D01*
X010449Y017081D01*
X010431Y017113D01*
X010421Y017149D01*
X010421Y017521D01*
X010659Y017521D01*
X010659Y017561D01*
X010659Y018054D01*
X010542Y018054D01*
X010507Y018045D01*
X010475Y018026D01*
X010449Y018001D01*
X010431Y017969D01*
X010421Y017933D01*
X010421Y017561D01*
X010659Y017561D01*
X010698Y017561D01*
X010698Y018054D01*
X010815Y018054D01*
X010851Y018045D01*
X010875Y018031D01*
X010955Y018112D01*
X011355Y018112D01*
X011470Y017996D01*
X011470Y017436D01*
X011506Y017303D01*
X011662Y017108D01*
X011835Y017108D01*
X012088Y016854D01*
X012088Y016495D01*
X011835Y016242D01*
X011476Y016242D01*
X011420Y016298D02*
X010414Y016298D01*
X010358Y016242D02*
X010612Y016495D01*
X010612Y016854D01*
X010358Y017108D01*
X010137Y017108D01*
X009994Y017251D01*
X009994Y017996D01*
X009878Y018112D01*
X009479Y018112D01*
X009364Y017996D01*
X009364Y017085D01*
X009479Y016970D01*
X009492Y016970D01*
X009522Y016940D01*
X009746Y016716D01*
X009746Y016495D01*
X009999Y016242D01*
X010358Y016242D01*
X010491Y016375D02*
X011343Y016375D01*
X011265Y016452D02*
X010568Y016452D01*
X010612Y016529D02*
X011222Y016529D01*
X011222Y016607D02*
X010612Y016607D01*
X010612Y016684D02*
X011222Y016684D01*
X011222Y016761D02*
X010612Y016761D01*
X010612Y016838D02*
X011169Y016838D01*
X011107Y016916D02*
X010550Y016916D01*
X010473Y016993D02*
X010933Y016993D01*
X010698Y017070D02*
X010659Y017070D01*
X010659Y017147D02*
X010698Y017147D01*
X010698Y017224D02*
X010659Y017224D01*
X010659Y017302D02*
X010698Y017302D01*
X010698Y017379D02*
X010659Y017379D01*
X010659Y017456D02*
X010698Y017456D01*
X010659Y017533D02*
X009994Y017533D01*
X009994Y017456D02*
X010421Y017456D01*
X010421Y017379D02*
X009994Y017379D01*
X009994Y017302D02*
X010421Y017302D01*
X010421Y017224D02*
X010021Y017224D01*
X010098Y017147D02*
X010422Y017147D01*
X010396Y017070D02*
X010460Y017070D01*
X010421Y017611D02*
X009994Y017611D01*
X009994Y017688D02*
X010421Y017688D01*
X010421Y017765D02*
X009994Y017765D01*
X009994Y017842D02*
X010421Y017842D01*
X010421Y017920D02*
X009994Y017920D01*
X009993Y017997D02*
X010447Y017997D01*
X010659Y017997D02*
X010698Y017997D01*
X010698Y017920D02*
X010659Y017920D01*
X010659Y017842D02*
X010698Y017842D01*
X010698Y017765D02*
X010659Y017765D01*
X010659Y017688D02*
X010698Y017688D01*
X010698Y017611D02*
X010659Y017611D01*
X010918Y018074D02*
X009916Y018074D01*
X009441Y018074D02*
X004313Y018074D01*
X004313Y018134D02*
X004059Y018387D01*
X003700Y018387D01*
X003446Y018134D01*
X003446Y017969D01*
X003428Y018001D01*
X003402Y018026D01*
X003370Y018045D01*
X003335Y018054D01*
X003218Y018054D01*
X003218Y017561D01*
X003179Y017561D01*
X003179Y018054D01*
X003062Y018054D01*
X003027Y018045D01*
X002995Y018026D01*
X002969Y018001D01*
X002950Y017969D01*
X002941Y017933D01*
X002941Y017561D01*
X003179Y017561D01*
X003179Y017521D01*
X003218Y017521D01*
X003218Y017028D01*
X003335Y017028D01*
X003370Y017037D01*
X003402Y017055D01*
X003428Y017081D01*
X003446Y017113D01*
X003456Y017149D01*
X003456Y017521D01*
X003218Y017521D01*
X003218Y017561D01*
X003456Y017561D01*
X003456Y017766D01*
X003700Y017521D01*
X004059Y017521D01*
X004313Y017775D01*
X004313Y018134D01*
X004295Y018151D02*
X012541Y018151D01*
X012541Y018074D02*
X011392Y018074D01*
X011470Y017997D02*
X011923Y017997D01*
X011925Y018001D02*
X011907Y017969D01*
X011898Y017933D01*
X011898Y017561D01*
X012135Y017561D01*
X012135Y018054D01*
X012019Y018054D01*
X011983Y018045D01*
X011951Y018026D01*
X011925Y018001D01*
X011898Y017920D02*
X011470Y017920D01*
X011470Y017842D02*
X011898Y017842D01*
X011898Y017765D02*
X011470Y017765D01*
X011470Y017688D02*
X011898Y017688D01*
X011898Y017611D02*
X011470Y017611D01*
X011470Y017533D02*
X012135Y017533D01*
X012135Y017521D02*
X011898Y017521D01*
X011898Y017149D01*
X011907Y017113D01*
X011925Y017081D01*
X011951Y017055D01*
X011983Y017037D01*
X012019Y017028D01*
X012135Y017028D01*
X012135Y017521D01*
X012135Y017561D01*
X012175Y017561D01*
X012175Y018054D01*
X012292Y018054D01*
X012327Y018045D01*
X012359Y018026D01*
X012385Y018001D01*
X012403Y017969D01*
X012413Y017933D01*
X012413Y017561D01*
X012175Y017561D01*
X012175Y017521D01*
X012413Y017521D01*
X012413Y017149D01*
X012403Y017113D01*
X012385Y017081D01*
X012359Y017055D01*
X012327Y017037D01*
X012292Y017028D01*
X012175Y017028D01*
X012175Y017521D01*
X012135Y017521D01*
X012175Y017533D02*
X012541Y017533D01*
X012541Y017456D02*
X012413Y017456D01*
X012413Y017379D02*
X012541Y017379D01*
X012541Y017302D02*
X012413Y017302D01*
X012413Y017224D02*
X012541Y017224D01*
X012541Y017147D02*
X012412Y017147D01*
X012373Y017070D02*
X012541Y017070D01*
X012541Y016993D02*
X011950Y016993D01*
X011937Y017070D02*
X011872Y017070D01*
X011898Y017147D02*
X011631Y017147D01*
X011569Y017224D02*
X011898Y017224D01*
X011898Y017302D02*
X011507Y017302D01*
X011485Y017379D02*
X011898Y017379D01*
X011898Y017456D02*
X011470Y017456D01*
X012027Y016916D02*
X012541Y016916D01*
X012541Y016838D02*
X012088Y016838D01*
X012088Y016761D02*
X012541Y016761D01*
X012541Y016684D02*
X012088Y016684D01*
X012088Y016607D02*
X012541Y016607D01*
X012541Y016529D02*
X012088Y016529D01*
X012045Y016452D02*
X012541Y016452D01*
X012541Y016375D02*
X011968Y016375D01*
X011890Y016298D02*
X012541Y016298D01*
X012175Y017070D02*
X012135Y017070D01*
X012135Y017147D02*
X012175Y017147D01*
X012175Y017224D02*
X012135Y017224D01*
X012135Y017302D02*
X012175Y017302D01*
X012175Y017379D02*
X012135Y017379D01*
X012135Y017456D02*
X012175Y017456D01*
X012175Y017611D02*
X012135Y017611D01*
X012135Y017688D02*
X012175Y017688D01*
X012175Y017765D02*
X012135Y017765D01*
X012135Y017842D02*
X012175Y017842D01*
X012175Y017920D02*
X012135Y017920D01*
X012135Y017997D02*
X012175Y017997D01*
X012387Y017997D02*
X012541Y017997D01*
X012541Y017920D02*
X012413Y017920D01*
X012413Y017842D02*
X012541Y017842D01*
X012541Y017765D02*
X012413Y017765D01*
X012413Y017688D02*
X012541Y017688D01*
X012541Y017611D02*
X012413Y017611D01*
X012541Y018229D02*
X004218Y018229D01*
X004140Y018306D02*
X012541Y018306D01*
X012541Y018383D02*
X004063Y018383D01*
X004313Y017997D02*
X009364Y017997D01*
X009364Y017920D02*
X004313Y017920D01*
X004313Y017842D02*
X009364Y017842D01*
X009364Y017765D02*
X004303Y017765D01*
X004226Y017688D02*
X005068Y017688D01*
X005100Y017720D02*
X004984Y017604D01*
X004984Y016926D01*
X005100Y016811D01*
X005778Y016811D01*
X005893Y016926D01*
X005893Y017604D01*
X005778Y017720D01*
X005100Y017720D01*
X004991Y017611D02*
X004148Y017611D01*
X004071Y017533D02*
X004984Y017533D01*
X004984Y017456D02*
X003456Y017456D01*
X003456Y017379D02*
X004984Y017379D01*
X004984Y017302D02*
X003456Y017302D01*
X003456Y017224D02*
X004984Y017224D01*
X004984Y017147D02*
X003456Y017147D01*
X003417Y017070D02*
X004984Y017070D01*
X004984Y016993D02*
X002993Y016993D01*
X003027Y017037D02*
X003062Y017028D01*
X003179Y017028D01*
X003179Y017521D01*
X002941Y017521D01*
X002941Y017149D01*
X002950Y017113D01*
X002969Y017081D01*
X002995Y017055D01*
X003027Y017037D01*
X002980Y017070D02*
X002916Y017070D01*
X002878Y017108D02*
X002657Y017108D01*
X002513Y017251D01*
X002513Y017996D01*
X002398Y018112D01*
X001999Y018112D01*
X001918Y018031D01*
X001894Y018045D01*
X001859Y018054D01*
X001742Y018054D01*
X001742Y017561D01*
X001702Y017561D01*
X001702Y018054D01*
X001586Y018054D01*
X001550Y018045D01*
X001518Y018026D01*
X001492Y018001D01*
X001474Y017969D01*
X001465Y017933D01*
X001465Y017561D01*
X001702Y017561D01*
X001702Y017521D01*
X001465Y017521D01*
X001465Y017149D01*
X001474Y017113D01*
X001492Y017081D01*
X001518Y017055D01*
X001550Y017037D01*
X001586Y017028D01*
X001702Y017028D01*
X001702Y017521D01*
X001742Y017521D01*
X001742Y017028D01*
X001859Y017028D01*
X001894Y017037D01*
X001918Y017051D01*
X001999Y016970D01*
X002012Y016970D01*
X002042Y016940D01*
X002265Y016716D01*
X002265Y016495D01*
X002519Y016242D01*
X002878Y016242D01*
X003131Y016495D01*
X003131Y016854D01*
X002878Y017108D01*
X002941Y017147D02*
X002617Y017147D01*
X002540Y017224D02*
X002941Y017224D01*
X002941Y017302D02*
X002513Y017302D01*
X002513Y017379D02*
X002941Y017379D01*
X002941Y017456D02*
X002513Y017456D01*
X002513Y017533D02*
X003179Y017533D01*
X003218Y017533D02*
X003688Y017533D01*
X003611Y017611D02*
X003456Y017611D01*
X003456Y017688D02*
X003533Y017688D01*
X003456Y017765D02*
X003456Y017765D01*
X003446Y017969D02*
X003446Y017969D01*
X003446Y017997D02*
X003430Y017997D01*
X003446Y018074D02*
X002436Y018074D01*
X002513Y017997D02*
X002967Y017997D01*
X002941Y017920D02*
X002513Y017920D01*
X002513Y017842D02*
X002941Y017842D01*
X002941Y017765D02*
X002513Y017765D01*
X002513Y017688D02*
X002941Y017688D01*
X002941Y017611D02*
X002513Y017611D01*
X002066Y016916D02*
X001594Y016916D01*
X001655Y016854D02*
X001401Y017108D01*
X001179Y017108D01*
X001037Y017250D01*
X001037Y017996D01*
X000922Y018112D01*
X000522Y018112D01*
X000407Y017996D01*
X000407Y017085D01*
X000522Y016970D01*
X000537Y016970D01*
X000566Y016941D01*
X000789Y016718D01*
X000789Y016495D01*
X001043Y016242D01*
X001401Y016242D01*
X001655Y016495D01*
X001655Y016854D01*
X001655Y016838D02*
X002143Y016838D01*
X002221Y016761D02*
X001655Y016761D01*
X001655Y016684D02*
X002265Y016684D01*
X002265Y016607D02*
X001655Y016607D01*
X001655Y016529D02*
X002265Y016529D01*
X002309Y016452D02*
X001612Y016452D01*
X001535Y016375D02*
X002386Y016375D01*
X002463Y016298D02*
X001457Y016298D01*
X001517Y016993D02*
X001976Y016993D01*
X001742Y017070D02*
X001702Y017070D01*
X001702Y017147D02*
X001742Y017147D01*
X001742Y017224D02*
X001702Y017224D01*
X001702Y017302D02*
X001742Y017302D01*
X001742Y017379D02*
X001702Y017379D01*
X001702Y017456D02*
X001742Y017456D01*
X001702Y017533D02*
X001037Y017533D01*
X001037Y017456D02*
X001465Y017456D01*
X001465Y017379D02*
X001037Y017379D01*
X001037Y017302D02*
X001465Y017302D01*
X001465Y017224D02*
X001062Y017224D01*
X001139Y017147D02*
X001465Y017147D01*
X001439Y017070D02*
X001504Y017070D01*
X001465Y017611D02*
X001037Y017611D01*
X001037Y017688D02*
X001465Y017688D01*
X001465Y017765D02*
X001037Y017765D01*
X001037Y017842D02*
X001465Y017842D01*
X001465Y017920D02*
X001037Y017920D01*
X001037Y017997D02*
X001490Y017997D01*
X001702Y017997D02*
X001742Y017997D01*
X001742Y017920D02*
X001702Y017920D01*
X001702Y017842D02*
X001742Y017842D01*
X001742Y017765D02*
X001702Y017765D01*
X001702Y017688D02*
X001742Y017688D01*
X001742Y017611D02*
X001702Y017611D01*
X001961Y018074D02*
X000959Y018074D01*
X000485Y018074D02*
X000336Y018074D01*
X000336Y017997D02*
X000407Y017997D01*
X000407Y017920D02*
X000336Y017920D01*
X000336Y017842D02*
X000407Y017842D01*
X000407Y017765D02*
X000336Y017765D01*
X000336Y017688D02*
X000407Y017688D01*
X000407Y017611D02*
X000336Y017611D01*
X000336Y017533D02*
X000407Y017533D01*
X000407Y017456D02*
X000336Y017456D01*
X000336Y017379D02*
X000407Y017379D01*
X000407Y017302D02*
X000336Y017302D01*
X000336Y017224D02*
X000407Y017224D01*
X000407Y017147D02*
X000336Y017147D01*
X000336Y017070D02*
X000422Y017070D01*
X000500Y016993D02*
X000336Y016993D01*
X000336Y016916D02*
X000592Y016916D01*
X000669Y016838D02*
X000336Y016838D01*
X000336Y016761D02*
X000746Y016761D01*
X000789Y016684D02*
X000336Y016684D01*
X000336Y016607D02*
X000789Y016607D01*
X000789Y016529D02*
X000336Y016529D01*
X000336Y016452D02*
X000832Y016452D01*
X000910Y016375D02*
X000336Y016375D01*
X000336Y016298D02*
X000987Y016298D01*
X000336Y018151D02*
X003464Y018151D01*
X003541Y018229D02*
X000336Y018229D01*
X000336Y018306D02*
X003619Y018306D01*
X003696Y018383D02*
X000336Y018383D01*
X000336Y018460D02*
X012541Y018460D01*
X012541Y019135D02*
X000336Y019135D01*
X000336Y023269D01*
X000651Y023269D01*
X000651Y021423D01*
X000574Y021345D01*
X000574Y021345D01*
X000496Y021268D01*
X000454Y021167D01*
X000454Y020693D01*
X000454Y020641D01*
X000407Y020595D01*
X000407Y019684D01*
X000522Y019569D01*
X000922Y019569D01*
X001026Y019673D01*
X001034Y019665D01*
X001410Y019665D01*
X001676Y019931D01*
X001676Y020308D01*
X001410Y020574D01*
X001037Y020574D01*
X001037Y020595D01*
X001005Y020627D01*
X001005Y020634D01*
X001006Y020636D01*
X001006Y020689D01*
X001006Y020741D01*
X001006Y020743D01*
X001006Y020998D01*
X001083Y021075D01*
X001160Y021153D01*
X001202Y021254D01*
X001202Y022915D01*
X001276Y022915D01*
X001270Y022901D01*
X001252Y022870D01*
X001249Y022851D01*
X001242Y022832D01*
X001242Y022797D01*
X001237Y022762D01*
X001242Y022742D01*
X001242Y021246D01*
X001284Y021145D01*
X001883Y020545D01*
X001883Y019684D01*
X001999Y019569D01*
X002398Y019569D01*
X002503Y019673D01*
X002510Y019665D01*
X002887Y019665D01*
X003153Y019931D01*
X003153Y020308D01*
X002887Y020574D01*
X002513Y020574D01*
X002513Y020595D01*
X002474Y020634D01*
X002474Y020675D01*
X002432Y020776D01*
X002355Y020853D01*
X001793Y021415D01*
X001793Y021507D01*
X002406Y021507D01*
X002521Y021623D01*
X002521Y021911D01*
X002655Y021911D01*
X002756Y021953D01*
X002834Y022031D01*
X002876Y022132D01*
X002876Y022256D01*
X003430Y022256D01*
X003459Y022285D01*
X004076Y022285D01*
X004076Y022243D01*
X004133Y022187D01*
X004076Y022130D01*
X004076Y021652D01*
X004123Y021606D01*
X004113Y021596D01*
X003739Y021596D01*
X003624Y021481D01*
X003624Y020924D01*
X003739Y020809D01*
X004113Y020809D01*
X004152Y020769D01*
X004788Y020769D01*
X004903Y020885D01*
X004903Y021520D01*
X004817Y021606D01*
X004864Y021652D01*
X004864Y022130D01*
X004808Y022187D01*
X004864Y022243D01*
X004864Y022721D01*
X004748Y022836D01*
X003459Y022836D01*
X003430Y022866D01*
X002935Y022866D01*
X002935Y023269D01*
X007974Y023269D01*
X007974Y022853D01*
X008060Y022767D01*
X008013Y022721D01*
X008013Y022243D01*
X008070Y022187D01*
X008013Y022130D01*
X008013Y021652D01*
X008129Y021537D01*
X008349Y021537D01*
X008352Y021536D01*
X009419Y021536D01*
X009448Y021507D01*
X010083Y021507D01*
X010198Y021623D01*
X010198Y022002D01*
X010083Y022118D01*
X009448Y022118D01*
X009419Y022089D01*
X008801Y022089D01*
X008801Y022130D01*
X008745Y022187D01*
X008801Y022243D01*
X008801Y022721D01*
X008754Y022767D01*
X008764Y022777D01*
X009138Y022777D01*
X009254Y022892D01*
X009254Y023269D01*
X009746Y023269D01*
X009746Y022581D01*
X009884Y022443D01*
X010002Y022443D01*
X010002Y022410D01*
X009996Y022383D01*
X010002Y022356D01*
X010002Y022329D01*
X010012Y022303D01*
X010018Y022276D01*
X010033Y022253D01*
X010044Y022227D01*
X010063Y022208D01*
X010079Y022185D01*
X010102Y022169D01*
X010121Y022150D01*
X010147Y022139D01*
X010356Y022000D01*
X010356Y021623D01*
X010471Y021507D01*
X010783Y021507D01*
X010754Y021478D01*
X010124Y021478D01*
X010023Y021436D01*
X009531Y020944D01*
X009453Y020866D01*
X009411Y020765D01*
X009411Y020642D01*
X009364Y020595D01*
X009364Y019684D01*
X009479Y019569D01*
X009878Y019569D01*
X009983Y019673D01*
X009991Y019665D01*
X010367Y019665D01*
X010633Y019931D01*
X010633Y020308D01*
X010367Y020574D01*
X009994Y020574D01*
X009994Y020595D01*
X009977Y020611D01*
X010293Y020927D01*
X010923Y020927D01*
X011024Y020969D01*
X011101Y021046D01*
X011495Y021440D01*
X011537Y021541D01*
X011537Y022553D01*
X011542Y022581D01*
X011537Y022608D01*
X011537Y022635D01*
X011526Y022661D01*
X011521Y022688D01*
X011506Y022711D01*
X011495Y022736D01*
X011475Y022756D01*
X011460Y022779D01*
X011437Y022794D01*
X011418Y022814D01*
X011399Y022822D01*
X011399Y022915D01*
X011675Y022915D01*
X011675Y021513D01*
X011007Y020845D01*
X010929Y020768D01*
X010887Y020667D01*
X010887Y020642D01*
X010840Y020595D01*
X010840Y019684D01*
X010955Y019569D01*
X011355Y019569D01*
X011459Y019673D01*
X011467Y019665D01*
X011843Y019665D01*
X012109Y019931D01*
X012109Y020308D01*
X011843Y020574D01*
X011515Y020574D01*
X012184Y021243D01*
X012226Y021344D01*
X012226Y023269D01*
X012541Y023269D01*
X012541Y019135D01*
X012541Y019156D02*
X000336Y019156D01*
X000336Y019233D02*
X012541Y019233D01*
X012541Y019310D02*
X000336Y019310D01*
X000336Y019387D02*
X012541Y019387D01*
X012541Y019464D02*
X000336Y019464D01*
X000336Y019542D02*
X012541Y019542D01*
X012541Y019619D02*
X011405Y019619D01*
X011564Y020623D02*
X012541Y020623D01*
X012541Y020546D02*
X011871Y020546D01*
X011949Y020469D02*
X012541Y020469D01*
X012541Y020391D02*
X012026Y020391D01*
X012103Y020314D02*
X012541Y020314D01*
X012541Y020237D02*
X012109Y020237D01*
X012109Y020160D02*
X012541Y020160D01*
X012541Y020082D02*
X012109Y020082D01*
X012109Y020005D02*
X012541Y020005D01*
X012541Y019928D02*
X012106Y019928D01*
X012029Y019851D02*
X012541Y019851D01*
X012541Y019773D02*
X011951Y019773D01*
X011874Y019696D02*
X012541Y019696D01*
X012541Y020700D02*
X011641Y020700D01*
X011718Y020778D02*
X012541Y020778D01*
X012541Y020855D02*
X011796Y020855D01*
X011873Y020932D02*
X012541Y020932D01*
X012541Y021009D02*
X011950Y021009D01*
X012027Y021087D02*
X012541Y021087D01*
X012541Y021164D02*
X012105Y021164D01*
X012182Y021241D02*
X012541Y021241D01*
X012541Y021318D02*
X012215Y021318D01*
X012226Y021395D02*
X012541Y021395D01*
X012541Y021473D02*
X012226Y021473D01*
X012226Y021550D02*
X012541Y021550D01*
X012541Y021627D02*
X012226Y021627D01*
X012226Y021704D02*
X012541Y021704D01*
X012541Y021782D02*
X012226Y021782D01*
X012226Y021859D02*
X012541Y021859D01*
X012541Y021936D02*
X012226Y021936D01*
X012226Y022013D02*
X012541Y022013D01*
X012541Y022091D02*
X012226Y022091D01*
X012226Y022168D02*
X012541Y022168D01*
X012541Y022245D02*
X012226Y022245D01*
X012226Y022322D02*
X012541Y022322D01*
X012541Y022400D02*
X012226Y022400D01*
X012226Y022477D02*
X012541Y022477D01*
X012541Y022554D02*
X012226Y022554D01*
X012226Y022631D02*
X012541Y022631D01*
X012541Y022709D02*
X012226Y022709D01*
X012226Y022786D02*
X012541Y022786D01*
X012541Y022863D02*
X012226Y022863D01*
X012226Y022940D02*
X012541Y022940D01*
X012541Y023018D02*
X012226Y023018D01*
X012226Y023095D02*
X012541Y023095D01*
X012541Y023172D02*
X012226Y023172D01*
X012226Y023249D02*
X012541Y023249D01*
X012541Y023860D02*
X012226Y023860D01*
X012226Y024997D01*
X012184Y025099D01*
X012107Y025176D01*
X012107Y025176D01*
X011732Y025550D01*
X011631Y025592D01*
X011136Y025592D01*
X011107Y025622D01*
X010471Y025622D01*
X010356Y025506D01*
X010356Y025127D01*
X010471Y025011D01*
X011107Y025011D01*
X011136Y025041D01*
X011462Y025041D01*
X011675Y024828D01*
X011675Y023860D01*
X010175Y023860D01*
X010927Y023860D01*
X010927Y023820D01*
X010630Y023820D01*
X010630Y023684D01*
X010639Y023649D01*
X010658Y023617D01*
X010669Y023605D01*
X010572Y023508D01*
X010572Y023030D01*
X010688Y022915D01*
X010691Y022915D01*
X010691Y022866D01*
X010471Y022866D01*
X010356Y022750D01*
X010356Y022679D01*
X010198Y022679D01*
X010198Y022750D01*
X010083Y022866D01*
X009982Y022866D01*
X009982Y023069D01*
X010002Y023116D01*
X010002Y023687D01*
X010175Y023860D01*
X010511Y024196D01*
X010539Y024263D01*
X011107Y024263D01*
X011222Y024379D01*
X011222Y024758D01*
X011107Y024874D01*
X010522Y024874D01*
X010511Y024902D01*
X010433Y024979D01*
X010236Y025176D01*
X010198Y025192D01*
X010198Y025506D01*
X010083Y025622D01*
X009448Y025622D01*
X009332Y025506D01*
X009332Y025127D01*
X009448Y025011D01*
X009509Y025011D01*
X009509Y024986D01*
X009551Y024885D01*
X009563Y024874D01*
X009448Y024874D01*
X009419Y024845D01*
X008801Y024845D01*
X008801Y024886D01*
X008745Y024943D01*
X008801Y024999D01*
X008801Y025477D01*
X008754Y025523D01*
X008764Y025533D01*
X009138Y025533D01*
X009254Y025648D01*
X009254Y026205D01*
X009138Y026320D01*
X008764Y026320D01*
X008725Y026360D01*
X008089Y026360D01*
X007974Y026245D01*
X007974Y025609D01*
X008060Y025523D01*
X008013Y025477D01*
X008013Y024999D01*
X008070Y024943D01*
X008013Y024886D01*
X008013Y024408D01*
X008129Y024293D01*
X008388Y024293D01*
X008391Y024292D01*
X008402Y024292D01*
X008411Y024288D01*
X008456Y024292D01*
X009419Y024292D01*
X009448Y024263D01*
X009799Y024263D01*
X009570Y024034D01*
X009492Y023957D01*
X009452Y023860D01*
X004903Y023860D01*
X004903Y024276D01*
X004817Y024362D01*
X004864Y024408D01*
X004864Y024886D01*
X004808Y024943D01*
X004864Y024999D01*
X004864Y025477D01*
X004748Y025592D01*
X003459Y025592D01*
X003430Y025622D01*
X002794Y025622D01*
X002679Y025506D01*
X002679Y025127D01*
X002794Y025011D01*
X003430Y025011D01*
X003459Y025041D01*
X004076Y025041D01*
X004076Y024999D01*
X004133Y024943D01*
X004076Y024886D01*
X004076Y024408D01*
X004123Y024362D01*
X004113Y024352D01*
X003739Y024352D01*
X003624Y024237D01*
X003624Y023860D01*
X003171Y023860D01*
X003171Y024238D01*
X003196Y024263D01*
X003430Y024263D01*
X003545Y024379D01*
X003545Y024758D01*
X003430Y024874D01*
X002794Y024874D01*
X002679Y024758D01*
X002679Y024525D01*
X002662Y024508D01*
X002620Y024407D01*
X002620Y023860D01*
X002620Y023313D01*
X002662Y023212D01*
X002698Y023175D01*
X002698Y022876D01*
X002108Y022876D01*
X002120Y022885D01*
X002130Y022902D01*
X002143Y022915D01*
X002189Y022915D01*
X002305Y023030D01*
X002305Y023508D01*
X002208Y023605D01*
X002219Y023617D01*
X002238Y023649D01*
X002247Y023684D01*
X002247Y023820D01*
X001950Y023820D01*
X001950Y023860D01*
X002620Y023860D01*
X001202Y023860D01*
X001202Y024041D01*
X001454Y024293D01*
X001741Y024293D01*
X001770Y024263D01*
X002406Y024263D01*
X002521Y024379D01*
X002521Y024758D01*
X002406Y024874D01*
X001770Y024874D01*
X001741Y024844D01*
X001285Y024844D01*
X001184Y024802D01*
X000771Y024389D01*
X000693Y024311D01*
X000651Y024210D01*
X000651Y023860D01*
X000336Y023860D01*
X000336Y026419D01*
X002305Y026419D01*
X003880Y027600D01*
X008998Y027600D01*
X010572Y026419D01*
X012541Y026419D01*
X012541Y023860D01*
X012541Y023867D02*
X012226Y023867D01*
X012226Y023944D02*
X012541Y023944D01*
X012541Y024022D02*
X012226Y024022D01*
X012226Y024099D02*
X012541Y024099D01*
X012541Y024176D02*
X012226Y024176D01*
X012226Y024253D02*
X012541Y024253D01*
X012541Y024331D02*
X012226Y024331D01*
X012226Y024408D02*
X012541Y024408D01*
X012541Y024485D02*
X012226Y024485D01*
X012226Y024562D02*
X012541Y024562D01*
X012541Y024640D02*
X012226Y024640D01*
X012226Y024717D02*
X012541Y024717D01*
X012541Y024794D02*
X012226Y024794D01*
X012226Y024871D02*
X012541Y024871D01*
X012541Y024949D02*
X012226Y024949D01*
X012214Y025026D02*
X012541Y025026D01*
X012541Y025103D02*
X012180Y025103D01*
X012102Y025180D02*
X012541Y025180D01*
X012541Y025257D02*
X012025Y025257D01*
X011948Y025335D02*
X012541Y025335D01*
X012541Y025412D02*
X011871Y025412D01*
X011793Y025489D02*
X012541Y025489D01*
X012541Y025566D02*
X011693Y025566D01*
X011477Y025026D02*
X011121Y025026D01*
X011109Y024871D02*
X011632Y024871D01*
X011675Y024794D02*
X011186Y024794D01*
X011222Y024717D02*
X011675Y024717D01*
X011675Y024640D02*
X011222Y024640D01*
X011222Y024562D02*
X011675Y024562D01*
X011675Y024485D02*
X011222Y024485D01*
X011222Y024408D02*
X011675Y024408D01*
X011675Y024331D02*
X011174Y024331D01*
X011555Y024949D02*
X010464Y024949D01*
X010457Y025026D02*
X010387Y025026D01*
X010380Y025103D02*
X010310Y025103D01*
X010356Y025180D02*
X010227Y025180D01*
X010198Y025257D02*
X010356Y025257D01*
X010356Y025335D02*
X010198Y025335D01*
X010198Y025412D02*
X010356Y025412D01*
X010356Y025489D02*
X010198Y025489D01*
X010138Y025566D02*
X010416Y025566D01*
X010473Y026493D02*
X002404Y026493D01*
X002507Y026571D02*
X010370Y026571D01*
X010267Y026648D02*
X002610Y026648D01*
X002713Y026725D02*
X010164Y026725D01*
X010061Y026802D02*
X002816Y026802D01*
X002919Y026880D02*
X009958Y026880D01*
X009855Y026957D02*
X003022Y026957D01*
X003125Y027034D02*
X009752Y027034D01*
X009649Y027111D02*
X003228Y027111D01*
X003331Y027189D02*
X009546Y027189D01*
X009443Y027266D02*
X003434Y027266D01*
X003537Y027343D02*
X009340Y027343D01*
X009237Y027420D02*
X003640Y027420D01*
X003743Y027497D02*
X009134Y027497D01*
X009031Y027575D02*
X003846Y027575D01*
X003479Y028038D02*
X000415Y028038D01*
X000415Y027961D02*
X003376Y027961D01*
X003274Y027884D02*
X000415Y027884D01*
X000415Y027806D02*
X003171Y027806D01*
X003068Y027729D02*
X000415Y027729D01*
X000415Y027652D02*
X002965Y027652D01*
X002862Y027575D02*
X000415Y027575D01*
X000415Y027497D02*
X002759Y027497D01*
X002656Y027420D02*
X000415Y027420D01*
X000415Y027343D02*
X002553Y027343D01*
X002450Y027266D02*
X000415Y027266D01*
X000415Y027189D02*
X002347Y027189D01*
X002244Y027111D02*
X000415Y027111D01*
X000415Y027034D02*
X002141Y027034D01*
X002108Y027009D02*
X000415Y027009D01*
X000415Y030179D01*
X006143Y030179D01*
X006143Y028191D01*
X003683Y028191D01*
X002108Y027009D01*
X002406Y025622D02*
X001770Y025622D01*
X001655Y025506D01*
X001655Y025127D01*
X001770Y025011D01*
X002406Y025011D01*
X002521Y025127D01*
X002521Y025506D01*
X002406Y025622D01*
X002461Y025566D02*
X002739Y025566D01*
X002679Y025489D02*
X002521Y025489D01*
X002521Y025412D02*
X002679Y025412D01*
X002679Y025335D02*
X002521Y025335D01*
X002521Y025257D02*
X002679Y025257D01*
X002679Y025180D02*
X002521Y025180D01*
X002498Y025103D02*
X002702Y025103D01*
X002780Y025026D02*
X002420Y025026D01*
X002408Y024871D02*
X002792Y024871D01*
X002714Y024794D02*
X002486Y024794D01*
X002521Y024717D02*
X002679Y024717D01*
X002679Y024640D02*
X002521Y024640D01*
X002521Y024562D02*
X002679Y024562D01*
X002652Y024485D02*
X002521Y024485D01*
X002521Y024408D02*
X002620Y024408D01*
X002620Y024331D02*
X002473Y024331D01*
X002620Y024253D02*
X001415Y024253D01*
X001338Y024176D02*
X002620Y024176D01*
X002620Y024099D02*
X001260Y024099D01*
X001202Y024022D02*
X002620Y024022D01*
X002620Y023944D02*
X001202Y023944D01*
X001202Y023867D02*
X002620Y023867D01*
X002620Y023790D02*
X002247Y023790D01*
X002247Y023713D02*
X002620Y023713D01*
X002620Y023635D02*
X002230Y023635D01*
X002255Y023558D02*
X002620Y023558D01*
X002620Y023481D02*
X002305Y023481D01*
X002305Y023404D02*
X002620Y023404D01*
X002620Y023326D02*
X002305Y023326D01*
X002305Y023249D02*
X002646Y023249D01*
X002698Y023172D02*
X002305Y023172D01*
X002305Y023095D02*
X002698Y023095D01*
X002698Y023018D02*
X002292Y023018D01*
X002215Y022940D02*
X002698Y022940D01*
X002935Y022940D02*
X007974Y022940D01*
X007974Y022863D02*
X003432Y022863D01*
X002935Y023018D02*
X007974Y023018D01*
X007974Y023095D02*
X002935Y023095D01*
X002935Y023172D02*
X007974Y023172D01*
X007974Y023249D02*
X002935Y023249D01*
X003171Y023867D02*
X003624Y023867D01*
X003624Y023944D02*
X003171Y023944D01*
X003171Y024022D02*
X003624Y024022D01*
X003624Y024099D02*
X003171Y024099D01*
X003171Y024176D02*
X003624Y024176D01*
X003640Y024253D02*
X003186Y024253D01*
X003432Y024871D02*
X004076Y024871D01*
X004076Y024794D02*
X003509Y024794D01*
X003545Y024717D02*
X004076Y024717D01*
X004076Y024640D02*
X003545Y024640D01*
X003545Y024562D02*
X004076Y024562D01*
X004076Y024485D02*
X003545Y024485D01*
X003545Y024408D02*
X004077Y024408D01*
X004127Y024949D02*
X000336Y024949D01*
X000336Y025026D02*
X001756Y025026D01*
X001679Y025103D02*
X000336Y025103D01*
X000336Y025180D02*
X001655Y025180D01*
X001655Y025257D02*
X000336Y025257D01*
X000336Y025335D02*
X001655Y025335D01*
X001655Y025412D02*
X000336Y025412D01*
X000336Y025489D02*
X001655Y025489D01*
X001715Y025566D02*
X000336Y025566D01*
X000336Y025644D02*
X007974Y025644D01*
X007974Y025721D02*
X000336Y025721D01*
X000336Y025798D02*
X007974Y025798D01*
X007974Y025875D02*
X000336Y025875D01*
X000336Y025953D02*
X007974Y025953D01*
X007974Y026030D02*
X000336Y026030D01*
X000336Y026107D02*
X007974Y026107D01*
X007974Y026184D02*
X000336Y026184D01*
X000336Y026262D02*
X007991Y026262D01*
X008068Y026339D02*
X000336Y026339D01*
X000336Y026416D02*
X012541Y026416D01*
X012541Y026339D02*
X008746Y026339D01*
X008788Y025489D02*
X009332Y025489D01*
X009332Y025412D02*
X008801Y025412D01*
X008801Y025335D02*
X009332Y025335D01*
X009332Y025257D02*
X008801Y025257D01*
X008801Y025180D02*
X009332Y025180D01*
X009356Y025103D02*
X008801Y025103D01*
X008801Y025026D02*
X009433Y025026D01*
X009525Y024949D02*
X008751Y024949D01*
X008801Y024871D02*
X009445Y024871D01*
X009392Y025566D02*
X009172Y025566D01*
X009249Y025644D02*
X012541Y025644D01*
X012541Y025721D02*
X009254Y025721D01*
X009254Y025798D02*
X012541Y025798D01*
X012541Y025875D02*
X009254Y025875D01*
X009254Y025953D02*
X012541Y025953D01*
X012541Y026030D02*
X009254Y026030D01*
X009254Y026107D02*
X012541Y026107D01*
X012541Y026184D02*
X009254Y026184D01*
X009197Y026262D02*
X012541Y026262D01*
X012462Y027009D02*
X010769Y027009D01*
X009194Y028191D01*
X006734Y028191D01*
X006734Y030179D01*
X012462Y030179D01*
X012462Y027009D01*
X012462Y027034D02*
X010737Y027034D01*
X010634Y027111D02*
X012462Y027111D01*
X012462Y027189D02*
X010531Y027189D01*
X010428Y027266D02*
X012462Y027266D01*
X012462Y027343D02*
X010325Y027343D01*
X010222Y027420D02*
X012462Y027420D01*
X012462Y027497D02*
X010119Y027497D01*
X010016Y027575D02*
X012462Y027575D01*
X012462Y027652D02*
X009913Y027652D01*
X009810Y027729D02*
X012462Y027729D01*
X012462Y027806D02*
X009707Y027806D01*
X009604Y027884D02*
X012462Y027884D01*
X012462Y027961D02*
X009501Y027961D01*
X009398Y028038D02*
X012462Y028038D01*
X012462Y028115D02*
X009295Y028115D01*
X010789Y028760D02*
X010651Y029093D01*
X010651Y029453D01*
X010789Y029786D01*
X011044Y030041D01*
X011377Y030179D01*
X011737Y030179D01*
X012070Y030041D01*
X012324Y029786D01*
X012462Y029453D01*
X012462Y029093D01*
X012324Y028760D01*
X012070Y028506D01*
X011737Y028368D01*
X011377Y028368D01*
X011044Y028506D01*
X010789Y028760D01*
X010816Y028733D02*
X006734Y028733D01*
X006734Y028656D02*
X010893Y028656D01*
X010970Y028579D02*
X006734Y028579D01*
X006734Y028502D02*
X011053Y028502D01*
X011240Y028424D02*
X006734Y028424D01*
X006734Y028347D02*
X012462Y028347D01*
X012462Y028270D02*
X006734Y028270D01*
X006734Y028193D02*
X012462Y028193D01*
X012462Y028424D02*
X011874Y028424D01*
X012060Y028502D02*
X012462Y028502D01*
X012462Y028579D02*
X012143Y028579D01*
X012220Y028656D02*
X012462Y028656D01*
X012462Y028733D02*
X012297Y028733D01*
X012345Y028811D02*
X012462Y028811D01*
X012462Y028888D02*
X012377Y028888D01*
X012409Y028965D02*
X012462Y028965D01*
X012462Y029042D02*
X012441Y029042D01*
X012462Y029120D02*
X012462Y029120D01*
X012462Y029197D02*
X012462Y029197D01*
X012462Y029274D02*
X012462Y029274D01*
X012462Y029351D02*
X012462Y029351D01*
X012462Y029428D02*
X012462Y029428D01*
X012462Y029506D02*
X012441Y029506D01*
X012462Y029583D02*
X012409Y029583D01*
X012377Y029660D02*
X012462Y029660D01*
X012462Y029737D02*
X012345Y029737D01*
X012296Y029815D02*
X012462Y029815D01*
X012462Y029892D02*
X012219Y029892D01*
X012141Y029969D02*
X012462Y029969D01*
X012462Y030046D02*
X012056Y030046D01*
X011870Y030124D02*
X012462Y030124D01*
X011244Y030124D02*
X006734Y030124D01*
X006734Y030046D02*
X011057Y030046D01*
X010972Y029969D02*
X006734Y029969D01*
X006734Y029892D02*
X010895Y029892D01*
X010818Y029815D02*
X006734Y029815D01*
X006734Y029737D02*
X010769Y029737D01*
X010737Y029660D02*
X006734Y029660D01*
X006734Y029583D02*
X010705Y029583D01*
X010673Y029506D02*
X006734Y029506D01*
X006734Y029428D02*
X010651Y029428D01*
X010651Y029351D02*
X006734Y029351D01*
X006734Y029274D02*
X010651Y029274D01*
X010651Y029197D02*
X006734Y029197D01*
X006734Y029120D02*
X010651Y029120D01*
X010672Y029042D02*
X006734Y029042D01*
X006734Y028965D02*
X010704Y028965D01*
X010736Y028888D02*
X006734Y028888D01*
X006734Y028811D02*
X010768Y028811D01*
X010535Y024253D02*
X011675Y024253D01*
X011675Y024176D02*
X010491Y024176D01*
X010414Y024099D02*
X011675Y024099D01*
X011675Y024022D02*
X010337Y024022D01*
X010259Y023944D02*
X011675Y023944D01*
X011675Y023867D02*
X010182Y023867D01*
X010105Y023790D02*
X010630Y023790D01*
X010630Y023713D02*
X010028Y023713D01*
X010002Y023635D02*
X010647Y023635D01*
X010622Y023558D02*
X010002Y023558D01*
X010002Y023481D02*
X010572Y023481D01*
X010572Y023404D02*
X010002Y023404D01*
X010002Y023326D02*
X010572Y023326D01*
X010572Y023249D02*
X010002Y023249D01*
X010002Y023172D02*
X010572Y023172D01*
X010572Y023095D02*
X009993Y023095D01*
X009982Y023018D02*
X010585Y023018D01*
X010662Y022940D02*
X009982Y022940D01*
X010086Y022863D02*
X010469Y022863D01*
X010391Y022786D02*
X010163Y022786D01*
X010198Y022709D02*
X010356Y022709D01*
X010103Y022168D02*
X008763Y022168D01*
X008801Y022245D02*
X010036Y022245D01*
X010004Y022322D02*
X008801Y022322D01*
X008801Y022400D02*
X009999Y022400D01*
X009850Y022477D02*
X008801Y022477D01*
X008801Y022554D02*
X009772Y022554D01*
X009746Y022631D02*
X008801Y022631D01*
X008801Y022709D02*
X009746Y022709D01*
X009746Y022786D02*
X009147Y022786D01*
X009224Y022863D02*
X009746Y022863D01*
X009746Y022940D02*
X009254Y022940D01*
X009254Y023018D02*
X009746Y023018D01*
X009746Y023095D02*
X009254Y023095D01*
X009254Y023172D02*
X009746Y023172D01*
X009746Y023249D02*
X009254Y023249D01*
X009455Y023867D02*
X004903Y023867D01*
X004903Y023944D02*
X009487Y023944D01*
X009557Y024022D02*
X004903Y024022D01*
X004903Y024099D02*
X009634Y024099D01*
X009712Y024176D02*
X004903Y024176D01*
X004903Y024253D02*
X009789Y024253D01*
X010110Y022091D02*
X010220Y022091D01*
X010187Y022013D02*
X010335Y022013D01*
X010356Y021936D02*
X010198Y021936D01*
X010198Y021859D02*
X010356Y021859D01*
X010356Y021782D02*
X010198Y021782D01*
X010198Y021704D02*
X010356Y021704D01*
X010356Y021627D02*
X010198Y021627D01*
X010126Y021550D02*
X010429Y021550D01*
X010111Y021473D02*
X004903Y021473D01*
X004903Y021395D02*
X009982Y021395D01*
X009905Y021318D02*
X004903Y021318D01*
X004903Y021241D02*
X009828Y021241D01*
X009750Y021164D02*
X004903Y021164D01*
X004903Y021087D02*
X009673Y021087D01*
X009596Y021009D02*
X004903Y021009D01*
X004903Y020932D02*
X009519Y020932D01*
X009448Y020855D02*
X004873Y020855D01*
X004796Y020778D02*
X009416Y020778D01*
X009411Y020700D02*
X002463Y020700D01*
X002485Y020623D02*
X009392Y020623D01*
X009364Y020546D02*
X002915Y020546D01*
X002992Y020469D02*
X009364Y020469D01*
X009364Y020391D02*
X003069Y020391D01*
X003147Y020314D02*
X009364Y020314D01*
X009364Y020237D02*
X003153Y020237D01*
X003153Y020160D02*
X009364Y020160D01*
X009364Y020082D02*
X003153Y020082D01*
X003153Y020005D02*
X009364Y020005D01*
X009364Y019928D02*
X003149Y019928D01*
X003072Y019851D02*
X009364Y019851D01*
X009364Y019773D02*
X002995Y019773D01*
X002917Y019696D02*
X009364Y019696D01*
X009429Y019619D02*
X002449Y019619D01*
X001948Y019619D02*
X000972Y019619D01*
X001009Y020623D02*
X001805Y020623D01*
X001728Y020700D02*
X001006Y020700D01*
X001006Y020778D02*
X001651Y020778D01*
X001574Y020855D02*
X001006Y020855D01*
X001006Y020932D02*
X001496Y020932D01*
X001419Y021009D02*
X001017Y021009D01*
X001083Y021075D02*
X001083Y021075D01*
X001094Y021087D02*
X001342Y021087D01*
X001276Y021164D02*
X001165Y021164D01*
X001197Y021241D02*
X001244Y021241D01*
X001242Y021318D02*
X001202Y021318D01*
X001202Y021395D02*
X001242Y021395D01*
X001242Y021473D02*
X001202Y021473D01*
X001202Y021550D02*
X001242Y021550D01*
X001242Y021627D02*
X001202Y021627D01*
X001202Y021704D02*
X001242Y021704D01*
X001242Y021782D02*
X001202Y021782D01*
X001202Y021859D02*
X001242Y021859D01*
X001242Y021936D02*
X001202Y021936D01*
X001202Y022013D02*
X001242Y022013D01*
X001242Y022091D02*
X001202Y022091D01*
X001202Y022168D02*
X001242Y022168D01*
X001242Y022245D02*
X001202Y022245D01*
X001202Y022322D02*
X001242Y022322D01*
X001242Y022400D02*
X001202Y022400D01*
X001202Y022477D02*
X001242Y022477D01*
X001242Y022554D02*
X001202Y022554D01*
X001202Y022631D02*
X001242Y022631D01*
X001242Y022709D02*
X001202Y022709D01*
X001202Y022786D02*
X001240Y022786D01*
X001251Y022863D02*
X001202Y022863D01*
X000651Y022863D02*
X000336Y022863D01*
X000336Y022786D02*
X000651Y022786D01*
X000651Y022709D02*
X000336Y022709D01*
X000336Y022631D02*
X000651Y022631D01*
X000651Y022554D02*
X000336Y022554D01*
X000336Y022477D02*
X000651Y022477D01*
X000651Y022400D02*
X000336Y022400D01*
X000336Y022322D02*
X000651Y022322D01*
X000651Y022245D02*
X000336Y022245D01*
X000336Y022168D02*
X000651Y022168D01*
X000651Y022091D02*
X000336Y022091D01*
X000336Y022013D02*
X000651Y022013D01*
X000651Y021936D02*
X000336Y021936D01*
X000336Y021859D02*
X000651Y021859D01*
X000651Y021782D02*
X000336Y021782D01*
X000336Y021704D02*
X000651Y021704D01*
X000651Y021627D02*
X000336Y021627D01*
X000336Y021550D02*
X000651Y021550D01*
X000651Y021473D02*
X000336Y021473D01*
X000336Y021395D02*
X000624Y021395D01*
X000547Y021318D02*
X000336Y021318D01*
X000336Y021241D02*
X000485Y021241D01*
X000454Y021164D02*
X000336Y021164D01*
X000336Y021087D02*
X000454Y021087D01*
X000454Y021009D02*
X000336Y021009D01*
X000336Y020932D02*
X000454Y020932D01*
X000454Y020855D02*
X000336Y020855D01*
X000336Y020778D02*
X000454Y020778D01*
X000454Y020700D02*
X000336Y020700D01*
X000336Y020623D02*
X000435Y020623D01*
X000407Y020546D02*
X000336Y020546D01*
X000336Y020469D02*
X000407Y020469D01*
X000407Y020391D02*
X000336Y020391D01*
X000336Y020314D02*
X000407Y020314D01*
X000407Y020237D02*
X000336Y020237D01*
X000336Y020160D02*
X000407Y020160D01*
X000407Y020082D02*
X000336Y020082D01*
X000336Y020005D02*
X000407Y020005D01*
X000407Y019928D02*
X000336Y019928D01*
X000336Y019851D02*
X000407Y019851D01*
X000407Y019773D02*
X000336Y019773D01*
X000336Y019696D02*
X000407Y019696D01*
X000472Y019619D02*
X000336Y019619D01*
X001441Y019696D02*
X001883Y019696D01*
X001883Y019773D02*
X001518Y019773D01*
X001596Y019851D02*
X001883Y019851D01*
X001883Y019928D02*
X001673Y019928D01*
X001676Y020005D02*
X001883Y020005D01*
X001883Y020082D02*
X001676Y020082D01*
X001676Y020160D02*
X001883Y020160D01*
X001883Y020237D02*
X001676Y020237D01*
X001670Y020314D02*
X001883Y020314D01*
X001883Y020391D02*
X001593Y020391D01*
X001516Y020469D02*
X001883Y020469D01*
X001883Y020546D02*
X001438Y020546D01*
X001890Y021318D02*
X003624Y021318D01*
X003624Y021241D02*
X001967Y021241D01*
X002044Y021164D02*
X003624Y021164D01*
X003624Y021087D02*
X002121Y021087D01*
X002199Y021009D02*
X003624Y021009D01*
X003624Y020932D02*
X002276Y020932D01*
X002353Y020855D02*
X003693Y020855D01*
X003624Y021395D02*
X001812Y021395D01*
X001793Y021473D02*
X003624Y021473D01*
X003693Y021550D02*
X002448Y021550D01*
X002521Y021627D02*
X004101Y021627D01*
X004076Y021704D02*
X002521Y021704D01*
X002521Y021782D02*
X004076Y021782D01*
X004076Y021859D02*
X002521Y021859D01*
X002716Y021936D02*
X004076Y021936D01*
X004076Y022013D02*
X002817Y022013D01*
X002859Y022091D02*
X004076Y022091D01*
X004114Y022168D02*
X002876Y022168D01*
X002876Y022245D02*
X004076Y022245D01*
X004144Y020778D02*
X002430Y020778D01*
X003179Y017997D02*
X003218Y017997D01*
X003218Y017920D02*
X003179Y017920D01*
X003179Y017842D02*
X003218Y017842D01*
X003218Y017765D02*
X003179Y017765D01*
X003179Y017688D02*
X003218Y017688D01*
X003218Y017611D02*
X003179Y017611D01*
X003179Y017456D02*
X003218Y017456D01*
X003218Y017379D02*
X003179Y017379D01*
X003179Y017302D02*
X003218Y017302D01*
X003218Y017224D02*
X003179Y017224D01*
X003179Y017147D02*
X003218Y017147D01*
X003218Y017070D02*
X003179Y017070D01*
X003070Y016916D02*
X004995Y016916D01*
X005072Y016838D02*
X003131Y016838D01*
X003131Y016761D02*
X007124Y016761D01*
X007124Y016684D02*
X003131Y016684D01*
X003131Y016607D02*
X007124Y016607D01*
X007124Y016529D02*
X003131Y016529D01*
X003088Y016452D02*
X007124Y016452D01*
X007124Y016375D02*
X003011Y016375D01*
X002934Y016298D02*
X007124Y016298D01*
X007072Y016838D02*
X005805Y016838D01*
X005882Y016916D02*
X006076Y016916D01*
X006070Y016922D02*
X006096Y016896D01*
X006127Y016878D01*
X006163Y016869D01*
X006399Y016869D01*
X006399Y017226D01*
X006042Y017226D01*
X006042Y016990D01*
X006051Y016954D01*
X006070Y016922D01*
X006042Y016993D02*
X005893Y016993D01*
X005893Y017070D02*
X006042Y017070D01*
X006042Y017147D02*
X005893Y017147D01*
X005893Y017224D02*
X006042Y017224D01*
X006042Y017305D02*
X006399Y017305D01*
X006399Y017662D01*
X006163Y017662D01*
X006127Y017653D01*
X006096Y017634D01*
X006070Y017608D01*
X006051Y017577D01*
X006042Y017541D01*
X006042Y017305D01*
X006042Y017379D02*
X005893Y017379D01*
X005893Y017456D02*
X006042Y017456D01*
X006042Y017533D02*
X005893Y017533D01*
X005887Y017611D02*
X006072Y017611D01*
X005809Y017688D02*
X007068Y017688D01*
X006991Y017611D02*
X006805Y017611D01*
X006808Y017608D02*
X006782Y017634D01*
X006750Y017653D01*
X006714Y017662D01*
X006478Y017662D01*
X006478Y017305D01*
X006399Y017305D01*
X006399Y017226D01*
X006478Y017226D01*
X006478Y017305D01*
X006835Y017305D01*
X006835Y017541D01*
X006826Y017577D01*
X006808Y017608D01*
X006835Y017533D02*
X006984Y017533D01*
X006984Y017456D02*
X006835Y017456D01*
X006835Y017379D02*
X006984Y017379D01*
X006984Y017302D02*
X006478Y017302D01*
X006478Y017226D02*
X006835Y017226D01*
X006835Y016990D01*
X006826Y016954D01*
X006808Y016922D01*
X006782Y016896D01*
X006750Y016878D01*
X006714Y016869D01*
X006478Y016869D01*
X006478Y017226D01*
X006478Y017224D02*
X006399Y017224D01*
X006399Y017147D02*
X006478Y017147D01*
X006478Y017070D02*
X006399Y017070D01*
X006399Y016993D02*
X006478Y016993D01*
X006478Y016916D02*
X006399Y016916D01*
X006399Y017302D02*
X005893Y017302D01*
X006399Y017379D02*
X006478Y017379D01*
X006478Y017456D02*
X006399Y017456D01*
X006399Y017533D02*
X006478Y017533D01*
X006478Y017611D02*
X006399Y017611D01*
X006801Y016916D02*
X006995Y016916D01*
X006984Y016993D02*
X006835Y016993D01*
X006835Y017070D02*
X006984Y017070D01*
X006984Y017147D02*
X006835Y017147D01*
X006835Y017224D02*
X006984Y017224D01*
X007754Y016761D02*
X009701Y016761D01*
X009746Y016684D02*
X007754Y016684D01*
X007754Y016607D02*
X009746Y016607D01*
X009746Y016529D02*
X007754Y016529D01*
X007754Y016452D02*
X009789Y016452D01*
X009866Y016375D02*
X007754Y016375D01*
X007754Y016298D02*
X009943Y016298D01*
X009624Y016838D02*
X007805Y016838D01*
X007882Y016916D02*
X009546Y016916D01*
X009456Y016993D02*
X007893Y016993D01*
X007893Y017070D02*
X009379Y017070D01*
X009364Y017147D02*
X007893Y017147D01*
X007893Y017224D02*
X009364Y017224D01*
X009364Y017302D02*
X007893Y017302D01*
X007893Y017379D02*
X009364Y017379D01*
X009364Y017456D02*
X007893Y017456D01*
X007893Y017533D02*
X009364Y017533D01*
X009364Y017611D02*
X007887Y017611D01*
X007809Y017688D02*
X009364Y017688D01*
X009929Y019619D02*
X010905Y019619D01*
X010840Y019696D02*
X010398Y019696D01*
X010475Y019773D02*
X010840Y019773D01*
X010840Y019851D02*
X010552Y019851D01*
X010629Y019928D02*
X010840Y019928D01*
X010840Y020005D02*
X010633Y020005D01*
X010633Y020082D02*
X010840Y020082D01*
X010840Y020160D02*
X010633Y020160D01*
X010633Y020237D02*
X010840Y020237D01*
X010840Y020314D02*
X010627Y020314D01*
X010550Y020391D02*
X010840Y020391D01*
X010840Y020469D02*
X010472Y020469D01*
X010395Y020546D02*
X010840Y020546D01*
X010868Y020623D02*
X009989Y020623D01*
X010066Y020700D02*
X010901Y020700D01*
X010939Y020778D02*
X010144Y020778D01*
X010221Y020855D02*
X011016Y020855D01*
X011093Y020932D02*
X010935Y020932D01*
X011064Y021009D02*
X011171Y021009D01*
X011142Y021087D02*
X011248Y021087D01*
X011219Y021164D02*
X011325Y021164D01*
X011296Y021241D02*
X011402Y021241D01*
X011373Y021318D02*
X011480Y021318D01*
X011451Y021395D02*
X011557Y021395D01*
X011509Y021473D02*
X011634Y021473D01*
X011675Y021550D02*
X011537Y021550D01*
X011537Y021627D02*
X011675Y021627D01*
X011675Y021704D02*
X011537Y021704D01*
X011537Y021782D02*
X011675Y021782D01*
X011675Y021859D02*
X011537Y021859D01*
X011537Y021936D02*
X011675Y021936D01*
X011675Y022013D02*
X011537Y022013D01*
X011537Y022091D02*
X011675Y022091D01*
X011675Y022168D02*
X011537Y022168D01*
X011537Y022245D02*
X011675Y022245D01*
X011675Y022322D02*
X011537Y022322D01*
X011537Y022400D02*
X011675Y022400D01*
X011675Y022477D02*
X011537Y022477D01*
X011537Y022554D02*
X011675Y022554D01*
X011675Y022631D02*
X011537Y022631D01*
X011507Y022709D02*
X011675Y022709D01*
X011675Y022786D02*
X011450Y022786D01*
X011399Y022863D02*
X011675Y022863D01*
X009421Y022091D02*
X008801Y022091D01*
X008116Y021550D02*
X004873Y021550D01*
X004839Y021627D02*
X008039Y021627D01*
X008013Y021704D02*
X004864Y021704D01*
X004864Y021782D02*
X008013Y021782D01*
X008013Y021859D02*
X004864Y021859D01*
X004864Y021936D02*
X008013Y021936D01*
X008013Y022013D02*
X004864Y022013D01*
X004864Y022091D02*
X008013Y022091D01*
X008051Y022168D02*
X004826Y022168D01*
X004864Y022245D02*
X008013Y022245D01*
X008013Y022322D02*
X004864Y022322D01*
X004864Y022400D02*
X008013Y022400D01*
X008013Y022477D02*
X004864Y022477D01*
X004864Y022554D02*
X008013Y022554D01*
X008013Y022631D02*
X004864Y022631D01*
X004864Y022709D02*
X008013Y022709D01*
X008041Y022786D02*
X004799Y022786D01*
X004849Y024331D02*
X008091Y024331D01*
X008014Y024408D02*
X004863Y024408D01*
X004864Y024485D02*
X008013Y024485D01*
X008013Y024562D02*
X004864Y024562D01*
X004864Y024640D02*
X008013Y024640D01*
X008013Y024717D02*
X004864Y024717D01*
X004864Y024794D02*
X008013Y024794D01*
X008013Y024871D02*
X004864Y024871D01*
X004814Y024949D02*
X008064Y024949D01*
X008013Y025026D02*
X004864Y025026D01*
X004864Y025103D02*
X008013Y025103D01*
X008013Y025180D02*
X004864Y025180D01*
X004864Y025257D02*
X008013Y025257D01*
X008013Y025335D02*
X004864Y025335D01*
X004864Y025412D02*
X008013Y025412D01*
X008026Y025489D02*
X004851Y025489D01*
X004774Y025566D02*
X008017Y025566D01*
X006143Y028193D02*
X000415Y028193D01*
X000415Y028270D02*
X006143Y028270D01*
X006143Y028347D02*
X000415Y028347D01*
X000415Y028424D02*
X001004Y028424D01*
X001140Y028368D02*
X001501Y028368D01*
X001833Y028506D01*
X002088Y028760D01*
X002226Y029093D01*
X002226Y029453D01*
X002088Y029786D01*
X001833Y030041D01*
X001501Y030179D01*
X001140Y030179D01*
X000808Y030041D01*
X000553Y029786D01*
X000415Y029453D01*
X000415Y029093D01*
X000553Y028760D01*
X000808Y028506D01*
X001140Y028368D01*
X000817Y028502D02*
X000415Y028502D01*
X000415Y028579D02*
X000734Y028579D01*
X000657Y028656D02*
X000415Y028656D01*
X000415Y028733D02*
X000580Y028733D01*
X000532Y028811D02*
X000415Y028811D01*
X000415Y028888D02*
X000500Y028888D01*
X000468Y028965D02*
X000415Y028965D01*
X000415Y029042D02*
X000436Y029042D01*
X000415Y029120D02*
X000415Y029120D01*
X000415Y029197D02*
X000415Y029197D01*
X000415Y029274D02*
X000415Y029274D01*
X000415Y029351D02*
X000415Y029351D01*
X000415Y029428D02*
X000415Y029428D01*
X000415Y029506D02*
X000437Y029506D01*
X000415Y029583D02*
X000469Y029583D01*
X000501Y029660D02*
X000415Y029660D01*
X000415Y029737D02*
X000533Y029737D01*
X000581Y029815D02*
X000415Y029815D01*
X000415Y029892D02*
X000659Y029892D01*
X000736Y029969D02*
X000415Y029969D01*
X000415Y030046D02*
X000821Y030046D01*
X001007Y030124D02*
X000415Y030124D01*
X000415Y028115D02*
X003582Y028115D01*
X002205Y029042D02*
X006143Y029042D01*
X006143Y028965D02*
X002173Y028965D01*
X002141Y028888D02*
X006143Y028888D01*
X006143Y028811D02*
X002109Y028811D01*
X002061Y028733D02*
X006143Y028733D01*
X006143Y028656D02*
X001984Y028656D01*
X001907Y028579D02*
X006143Y028579D01*
X006143Y028502D02*
X001824Y028502D01*
X001637Y028424D02*
X006143Y028424D01*
X006143Y029120D02*
X002226Y029120D01*
X002226Y029197D02*
X006143Y029197D01*
X006143Y029274D02*
X002226Y029274D01*
X002226Y029351D02*
X006143Y029351D01*
X006143Y029428D02*
X002226Y029428D01*
X002204Y029506D02*
X006143Y029506D01*
X006143Y029583D02*
X002172Y029583D01*
X002140Y029660D02*
X006143Y029660D01*
X006143Y029737D02*
X002108Y029737D01*
X002060Y029815D02*
X006143Y029815D01*
X006143Y029892D02*
X001982Y029892D01*
X001905Y029969D02*
X006143Y029969D01*
X006143Y030046D02*
X001820Y030046D01*
X001634Y030124D02*
X006143Y030124D01*
X004076Y025026D02*
X003444Y025026D01*
X003497Y024331D02*
X003718Y024331D01*
X001768Y024871D02*
X000336Y024871D01*
X000336Y024794D02*
X001176Y024794D01*
X001099Y024717D02*
X000336Y024717D01*
X000336Y024640D02*
X001021Y024640D01*
X000944Y024562D02*
X000336Y024562D01*
X000336Y024485D02*
X000867Y024485D01*
X000790Y024408D02*
X000336Y024408D01*
X000336Y024331D02*
X000713Y024331D01*
X000669Y024253D02*
X000336Y024253D01*
X000336Y024176D02*
X000651Y024176D01*
X000651Y024099D02*
X000336Y024099D01*
X000336Y024022D02*
X000651Y024022D01*
X000651Y023944D02*
X000336Y023944D01*
X000336Y023867D02*
X000651Y023867D01*
X000651Y023249D02*
X000336Y023249D01*
X000336Y023172D02*
X000651Y023172D01*
X000651Y023095D02*
X000336Y023095D01*
X000336Y023018D02*
X000651Y023018D01*
X000651Y022940D02*
X000336Y022940D01*
X002418Y014135D02*
X003984Y014135D01*
X003984Y014058D02*
X002341Y014058D01*
X002264Y013980D02*
X003984Y013980D01*
X003984Y013903D02*
X002187Y013903D01*
X002109Y013826D02*
X003984Y013826D01*
X003984Y013749D02*
X002032Y013749D01*
X001955Y013671D02*
X003984Y013671D01*
X003984Y013594D02*
X001931Y013594D01*
X001931Y013517D02*
X003984Y013517D01*
X004018Y013440D02*
X001931Y013440D01*
X001931Y013362D02*
X004095Y013362D01*
X003721Y012127D02*
X003645Y012127D01*
X003812Y012049D02*
X001931Y012049D01*
X002223Y011818D02*
X002682Y011818D01*
X002604Y011740D02*
X002300Y011740D01*
X002345Y011663D02*
X002560Y011663D01*
X002560Y011586D02*
X002345Y011586D01*
X002345Y011509D02*
X002560Y011509D01*
X002560Y011431D02*
X002345Y011431D01*
X002285Y011354D02*
X002623Y011354D01*
X002700Y011277D02*
X002285Y011277D01*
X002285Y011200D02*
X002862Y011200D01*
X002940Y011123D02*
X002285Y011123D01*
X002285Y011045D02*
X003017Y011045D01*
X003094Y010968D02*
X002285Y010968D01*
X002285Y010891D02*
X003171Y010891D01*
X003249Y010814D02*
X002285Y010814D01*
X002285Y010736D02*
X003346Y010736D01*
X003256Y011586D02*
X007751Y011586D01*
X007829Y011663D02*
X003231Y011663D01*
X003186Y011740D02*
X007906Y011740D01*
X008296Y010196D02*
X002285Y010196D01*
X002285Y010118D02*
X008373Y010118D01*
X008320Y010171D02*
X008320Y010171D01*
X008450Y010041D02*
X002285Y010041D01*
X002285Y009964D02*
X008527Y009964D01*
X008567Y009924D02*
X008567Y009924D01*
X008605Y009887D02*
X002285Y009887D01*
X002285Y009809D02*
X008735Y009809D01*
X009249Y008265D02*
X009967Y008265D01*
X009947Y008187D02*
X009322Y008187D01*
X009322Y008110D02*
X009947Y008110D01*
X009947Y008033D02*
X009322Y008033D01*
X009322Y007956D02*
X009968Y007956D01*
X010000Y007878D02*
X009322Y007878D01*
X009322Y007801D02*
X010040Y007801D01*
X010117Y007724D02*
X009322Y007724D01*
X009322Y007647D02*
X010220Y007647D01*
X009999Y008342D02*
X009782Y008342D01*
X009892Y008419D02*
X010036Y008419D01*
X010113Y008496D02*
X009953Y008496D01*
X010015Y008574D02*
X010212Y008574D01*
X010362Y011277D02*
X010659Y011277D01*
X010582Y011354D02*
X010450Y011354D01*
X009746Y012127D02*
X009667Y012127D01*
X009667Y012204D02*
X009746Y012204D01*
X009746Y012281D02*
X009667Y012281D01*
X009667Y012358D02*
X009746Y012358D01*
X007984Y014753D02*
X007893Y014753D01*
X007893Y014830D02*
X007984Y014830D01*
X007984Y014907D02*
X007893Y014907D01*
X007893Y014985D02*
X007984Y014985D01*
X007984Y015062D02*
X007893Y015062D01*
X007893Y015139D02*
X007984Y015139D01*
X008049Y015216D02*
X007828Y015216D01*
X007893Y014676D02*
X007912Y014676D01*
X006298Y011431D02*
X006154Y011431D01*
X006011Y011431D02*
X005941Y011431D01*
X005941Y011354D02*
X006011Y011354D01*
X006011Y011277D02*
X005941Y011277D01*
X005941Y011200D02*
X006011Y011200D01*
X006011Y011123D02*
X005941Y011123D01*
X005941Y011045D02*
X006011Y011045D01*
X005798Y011431D02*
X005767Y011431D01*
X005095Y013362D02*
X004782Y013362D01*
X004859Y013440D02*
X005018Y013440D01*
X004984Y013517D02*
X004893Y013517D01*
X004893Y013594D02*
X004984Y013594D01*
X004984Y013671D02*
X004893Y013671D01*
X004893Y013749D02*
X004984Y013749D01*
X004984Y013826D02*
X004893Y013826D01*
X004893Y013903D02*
X004984Y013903D01*
X004984Y013980D02*
X004893Y013980D01*
X004893Y014058D02*
X004984Y014058D01*
X004984Y014135D02*
X004893Y014135D01*
X004832Y014212D02*
X005045Y014212D01*
X005091Y014367D02*
X004786Y014367D01*
X004863Y014444D02*
X005014Y014444D01*
X004984Y014521D02*
X004893Y014521D01*
X004893Y014598D02*
X004984Y014598D01*
X004984Y014676D02*
X004893Y014676D01*
X004893Y014753D02*
X004984Y014753D01*
X004984Y014830D02*
X004893Y014830D01*
X004893Y014907D02*
X004984Y014907D01*
X004984Y014985D02*
X004893Y014985D01*
X004893Y015062D02*
X004984Y015062D01*
X004984Y015139D02*
X004893Y015139D01*
X004828Y015216D02*
X005049Y015216D01*
X005210Y008187D02*
X001694Y008187D01*
X001694Y008110D02*
X005187Y008110D01*
X005441Y007724D02*
X005511Y007724D01*
X005511Y007647D02*
X005441Y007647D01*
X005441Y007569D02*
X005511Y007569D01*
X005511Y007492D02*
X005441Y007492D01*
X005441Y007415D02*
X005511Y007415D01*
X006147Y006952D02*
X006731Y006952D01*
X006653Y007029D02*
X006224Y007029D01*
X006282Y007106D02*
X006595Y007106D01*
X006595Y007183D02*
X006282Y007183D01*
X006282Y007260D02*
X006595Y007260D01*
X007131Y006952D02*
X007700Y006952D01*
X007700Y007029D02*
X007208Y007029D01*
X007266Y007106D02*
X007700Y007106D01*
X007700Y007183D02*
X007266Y007183D01*
X007266Y007260D02*
X007700Y007260D01*
X007265Y004866D02*
X005413Y004866D01*
X005356Y004789D02*
X007188Y004789D01*
X007111Y004712D02*
X005356Y004712D01*
X005356Y004634D02*
X007087Y004634D01*
X007087Y004557D02*
X006934Y004557D01*
X006929Y004558D02*
X006458Y004558D01*
X006458Y004025D01*
X007050Y004025D01*
X007050Y004437D01*
X007041Y004473D01*
X007023Y004504D01*
X006997Y004530D01*
X006965Y004549D01*
X006929Y004558D01*
X007037Y004480D02*
X007087Y004480D01*
X007094Y004403D02*
X007050Y004403D01*
X007050Y004325D02*
X007147Y004325D01*
X007147Y004248D02*
X007050Y004248D01*
X007050Y004171D02*
X007147Y004171D01*
X007147Y004094D02*
X007050Y004094D01*
X006458Y004094D02*
X006380Y004094D01*
X006380Y004171D02*
X006458Y004171D01*
X006458Y004248D02*
X006380Y004248D01*
X006380Y004325D02*
X006458Y004325D01*
X006458Y004403D02*
X006380Y004403D01*
X006380Y004480D02*
X006458Y004480D01*
X006458Y004557D02*
X006380Y004557D01*
X005904Y004557D02*
X005609Y004557D01*
X005633Y004480D02*
X005801Y004480D01*
X005787Y004403D02*
X005633Y004403D01*
X005633Y004325D02*
X005787Y004325D01*
X005787Y004248D02*
X005633Y004248D01*
X005633Y003939D02*
X005787Y003939D01*
X005787Y003862D02*
X005633Y003862D01*
X005633Y003785D02*
X005787Y003785D01*
X005787Y003707D02*
X005633Y003707D01*
X005620Y003630D02*
X005787Y003630D01*
X005405Y004171D02*
X005385Y004171D01*
X005385Y004248D02*
X005405Y004248D01*
X005405Y004325D02*
X005385Y004325D01*
X005385Y004403D02*
X005405Y004403D01*
X005405Y004480D02*
X005385Y004480D01*
X005385Y004557D02*
X005405Y004557D01*
X005097Y005329D02*
X005041Y005329D01*
X005041Y005407D02*
X005174Y005407D01*
X005252Y005484D02*
X005041Y005484D01*
X005041Y005561D02*
X005329Y005561D01*
X005406Y005638D02*
X005041Y005638D01*
X005041Y005716D02*
X005483Y005716D01*
X005908Y002472D02*
X005873Y002462D01*
X005841Y002444D01*
X005815Y002418D01*
X005797Y002386D01*
X006380Y002394D02*
X006458Y002394D01*
X006458Y002317D02*
X006380Y002317D01*
X006380Y002240D02*
X006458Y002240D01*
X006458Y002163D02*
X006380Y002163D01*
X006380Y002085D02*
X006458Y002085D01*
X006458Y001854D02*
X006380Y001854D01*
X006380Y001776D02*
X006458Y001776D01*
X006458Y001699D02*
X006380Y001699D01*
X006380Y001622D02*
X006458Y001622D01*
X006458Y001545D02*
X006380Y001545D01*
X006380Y001467D02*
X006458Y001467D01*
X006458Y001390D02*
X006380Y001390D01*
X006380Y002472D02*
X006458Y002472D01*
X003896Y003553D02*
X003743Y003553D01*
X003743Y003630D02*
X003840Y003630D01*
X003840Y003707D02*
X003743Y003707D01*
X003743Y003785D02*
X003840Y003785D01*
X003840Y003862D02*
X003743Y003862D01*
X003743Y003939D02*
X003840Y003939D01*
X003576Y004712D02*
X000336Y004712D01*
X000336Y004789D02*
X003034Y004789D01*
X003012Y004866D02*
X000336Y004866D01*
X000336Y004943D02*
X003012Y004943D01*
X003012Y005252D02*
X002369Y005252D01*
X002446Y005329D02*
X003032Y005329D01*
X003454Y006179D02*
X002505Y006179D01*
X002505Y006256D02*
X003377Y006256D01*
X003299Y006334D02*
X002147Y006334D01*
X002147Y006256D02*
X002069Y006256D01*
X002069Y006179D02*
X002147Y006179D01*
X002147Y006102D02*
X002069Y006102D01*
X002069Y006025D02*
X002147Y006025D01*
X002147Y005947D02*
X002069Y005947D01*
X002069Y005870D02*
X002147Y005870D01*
X002147Y005793D02*
X002069Y005793D01*
X002069Y005716D02*
X002147Y005716D01*
X002147Y005638D02*
X002069Y005638D01*
X002147Y005561D02*
X003692Y005561D01*
X003615Y005638D02*
X002505Y005638D01*
X002505Y005716D02*
X003544Y005716D01*
X003544Y005793D02*
X002429Y005793D01*
X002352Y005870D02*
X003544Y005870D01*
X003544Y005947D02*
X002276Y005947D01*
X002354Y006025D02*
X003582Y006025D01*
X003531Y006102D02*
X002431Y006102D01*
X002505Y006411D02*
X003222Y006411D01*
X003145Y006488D02*
X002505Y006488D01*
X002444Y006565D02*
X003068Y006565D01*
X002991Y006643D02*
X002367Y006643D01*
X002505Y005484D02*
X003860Y005484D01*
X003573Y005407D02*
X002505Y005407D01*
X002147Y005407D02*
X002069Y005407D01*
X002069Y005484D02*
X002147Y005484D01*
X001759Y007956D02*
X001694Y007956D01*
X001694Y008033D02*
X001836Y008033D01*
X001300Y009269D02*
X001225Y009269D01*
X001225Y009346D02*
X001377Y009346D01*
X000868Y009269D02*
X000789Y009269D01*
X000789Y009191D02*
X000868Y009191D01*
X000868Y009114D02*
X000789Y009114D01*
X000789Y009037D02*
X000868Y009037D01*
X000868Y009500D02*
X000789Y009500D01*
X000789Y009578D02*
X000868Y009578D01*
X000868Y009655D02*
X000789Y009655D01*
X000789Y009732D02*
X000868Y009732D01*
X000458Y009732D02*
X000336Y009732D01*
X000336Y009655D02*
X000431Y009655D01*
X000431Y009578D02*
X000336Y009578D01*
X000336Y009500D02*
X000431Y009500D01*
X002078Y001776D02*
X002480Y001776D01*
X002480Y001699D02*
X002046Y001699D01*
X002004Y001622D02*
X002480Y001622D01*
X002480Y001545D02*
X001927Y001545D01*
X001849Y001467D02*
X002480Y001467D01*
X002503Y001390D02*
X001748Y001390D01*
X009306Y001158D02*
X012541Y001158D01*
X012541Y001236D02*
X009442Y001236D01*
X011034Y005175D02*
X011292Y005175D01*
X011215Y005252D02*
X011111Y005252D01*
X011832Y007724D02*
X011981Y007724D01*
X011893Y007801D02*
X011832Y007801D01*
X011832Y007878D02*
X011838Y007878D01*
X011832Y008342D02*
X011836Y008342D01*
X011832Y008419D02*
X011889Y008419D01*
X011832Y008496D02*
X011976Y008496D01*
X012331Y008574D02*
X012541Y008574D01*
X012541Y008496D02*
X012515Y008496D01*
X011995Y010273D02*
X011832Y010273D01*
X011832Y010350D02*
X011903Y010350D01*
X011843Y010427D02*
X011832Y010427D01*
X011805Y010891D02*
X011831Y010891D01*
X011881Y010968D02*
X011748Y010968D01*
X011670Y011045D02*
X011962Y011045D01*
X012375Y011123D02*
X012541Y011123D01*
X012529Y011045D02*
X012541Y011045D01*
D24*
X007226Y020612D03*
X005651Y020612D03*
X005651Y026517D03*
X007226Y026517D03*
D25*
X008407Y023171D02*
X008899Y023171D01*
X009726Y023171D02*
X009726Y023801D01*
X010277Y024352D01*
X010277Y024746D01*
X010080Y024943D01*
X009883Y024943D01*
X009785Y025041D01*
X009785Y025297D01*
X010769Y023958D02*
X010277Y023466D01*
X010277Y022383D01*
X010572Y022187D01*
X010789Y022187D01*
X010789Y022561D02*
X011242Y022561D01*
X011261Y022580D01*
X011261Y021596D01*
X010868Y021202D01*
X010179Y021202D01*
X009687Y020710D01*
X009687Y020147D01*
X009679Y020139D01*
X009698Y020120D01*
X010179Y020120D01*
X011155Y020139D02*
X011163Y020147D01*
X011163Y020612D01*
X011950Y021399D01*
X011950Y023269D01*
X011557Y023269D01*
X011950Y023269D02*
X011950Y024943D01*
X011576Y025317D01*
X010789Y025317D01*
X010966Y023269D02*
X010966Y022777D01*
X011261Y022580D01*
X011155Y020139D02*
X011273Y020120D01*
X011655Y020120D01*
X008722Y015966D02*
X010376Y014313D01*
X010376Y013820D01*
X010368Y013813D01*
X008439Y013813D01*
X007939Y014313D02*
X008439Y014813D01*
X007939Y014313D02*
X007939Y013131D01*
X007383Y012580D01*
X004214Y012580D01*
X003978Y012344D01*
X003486Y012443D02*
X003978Y012935D01*
X007226Y012935D01*
X007439Y013147D01*
X007439Y013813D01*
X006939Y014313D02*
X007439Y014813D01*
X006939Y014313D02*
X006939Y013289D01*
X006124Y013289D01*
X005476Y010984D02*
X003468Y010984D01*
X002895Y011557D01*
X002009Y011557D02*
X002009Y008998D01*
X001419Y008407D01*
X001419Y007423D01*
X001320Y006970D02*
X001281Y006970D01*
X000828Y007383D01*
X000828Y008391D01*
X000828Y008407D01*
X001655Y009234D01*
X001655Y013761D01*
X003860Y015966D01*
X004470Y015966D01*
X004439Y015935D01*
X004439Y014813D01*
X004470Y015966D02*
X007423Y015966D01*
X007439Y016100D01*
X007423Y015966D02*
X008722Y015966D01*
X010376Y013820D02*
X010376Y012049D01*
X010257Y012049D01*
X010376Y012049D02*
X010376Y011655D01*
X010671Y011655D01*
X011557Y010769D01*
X011557Y006340D01*
X010769Y006340D02*
X010769Y005553D01*
X010021Y005572D02*
X009519Y006074D01*
X009608Y005966D01*
X009175Y005966D01*
X009519Y006074D02*
X008976Y006618D01*
X008976Y007799D01*
X008476Y007799D02*
X008476Y006045D01*
X008624Y005966D01*
X008476Y006045D02*
X008476Y005090D01*
X008368Y004982D01*
X007305Y005494D02*
X007976Y006126D01*
X007976Y007799D01*
X007476Y007799D02*
X007476Y008441D01*
X007639Y008604D01*
X009687Y008604D01*
X010080Y009096D01*
X009785Y009490D02*
X009313Y008919D01*
X007265Y008919D01*
X006476Y008130D01*
X006476Y007799D01*
X006976Y007271D02*
X006931Y007226D01*
X006976Y007226D01*
X006976Y007271D02*
X006976Y007799D01*
X005976Y007799D02*
X005976Y007256D01*
X005946Y007226D01*
X005976Y007226D01*
X005651Y005494D02*
X007305Y005494D01*
X007423Y004549D02*
X007423Y001498D01*
X005080Y004923D02*
X005651Y005494D01*
X005080Y004923D02*
X005080Y004084D01*
X004765Y004084D02*
X004765Y006281D01*
X003230Y007817D01*
X002009Y007817D01*
X001911Y007718D01*
X001911Y007423D01*
X002403Y007423D02*
X003112Y007423D01*
X004450Y006084D01*
X004450Y004084D01*
X004135Y004084D02*
X004135Y005061D01*
X003860Y005061D01*
X004135Y005061D02*
X004135Y005887D01*
X004076Y005946D01*
X003053Y006970D01*
X001320Y006970D01*
X001320Y006340D01*
X003880Y005848D02*
X004076Y005946D01*
X007976Y010984D02*
X007976Y011421D01*
X008407Y011852D01*
X008801Y011852D01*
X008899Y011950D01*
X008476Y010984D02*
X008476Y010405D01*
X008801Y010080D01*
X009194Y010080D01*
X009588Y010474D01*
X009588Y010966D01*
X010376Y011655D01*
X010966Y013210D02*
X010966Y013624D01*
X011557Y013624D02*
X011557Y013210D01*
X004470Y021202D02*
X004470Y021891D01*
X004470Y022482D02*
X004391Y022561D01*
X003112Y022561D01*
X003289Y022974D02*
X003289Y023171D01*
X003289Y022974D02*
X002895Y023368D01*
X002895Y024352D01*
X003112Y024569D01*
X003112Y025317D02*
X004431Y025317D01*
X004431Y025277D01*
X004470Y025238D01*
X004470Y024647D02*
X004470Y023958D01*
X002600Y023565D02*
X002600Y022187D01*
X002088Y022187D01*
X002088Y021813D02*
X002069Y021793D01*
X001517Y021793D01*
X001517Y021301D01*
X002198Y020620D01*
X002198Y020139D01*
X002218Y020120D01*
X002698Y020120D01*
X001517Y021793D02*
X001517Y022777D01*
X001911Y023072D01*
X001911Y023269D01*
X001911Y023860D02*
X002305Y023860D01*
X002600Y023565D01*
X002088Y024569D02*
X001340Y024569D01*
X000927Y024155D01*
X000927Y023269D01*
X001320Y023269D01*
X000927Y023269D02*
X000927Y021309D01*
X000730Y021112D01*
X000730Y020691D01*
X000722Y020139D01*
X000742Y020120D01*
X001222Y020120D01*
X000722Y017541D02*
X000722Y017175D01*
X001222Y016675D01*
D26*
X009765Y025317D02*
X009785Y025297D01*
D27*
X006439Y024903D03*
X003880Y017954D03*
X002698Y016675D03*
X001222Y016675D03*
X010179Y016675D03*
X011655Y016675D03*
D28*
X007423Y029273D03*
X005454Y029273D03*
D29*
X004470Y023958D02*
X003978Y023958D01*
X003978Y021202D02*
X004470Y021202D01*
X002198Y017175D02*
X002698Y016675D01*
X002198Y017175D02*
X002198Y017541D01*
X008407Y021813D02*
X008407Y021891D01*
X008407Y021813D02*
X009765Y021813D01*
X009765Y024569D02*
X008446Y024569D01*
X008407Y024647D01*
X008407Y025238D02*
X008407Y025927D01*
X008899Y025927D01*
X008407Y023171D02*
X008407Y022482D01*
X009679Y017541D02*
X009679Y017175D01*
X010179Y016675D01*
X011254Y017175D02*
X011155Y017541D01*
X011254Y017175D02*
X011655Y016675D01*
X012147Y013624D02*
X012147Y013210D01*
D30*
X008407Y023171D03*
X008407Y025927D03*
X004470Y023958D03*
X004470Y021202D03*
D31*
X006124Y013289D03*
X003486Y012443D03*
X002895Y011557D03*
X002009Y011557D03*
X001911Y007423D03*
X001419Y007423D03*
X002403Y007423D03*
X003880Y005848D03*
X005946Y007226D03*
X006931Y007226D03*
X007423Y004549D03*
X007423Y001498D03*
X010080Y009096D03*
X009785Y009490D03*
X008899Y011950D03*
X010966Y013210D03*
X011557Y013210D03*
X012147Y013210D03*
D32*
X007439Y016100D02*
X007439Y017265D01*
D33*
X003978Y012344D03*
M02*
