%
M48
M72
T01C0.0157
T02C0.0315
T03C0.0354
T04C0.0394
T05C0.0433
T06C0.0472
T07C0.0866
T08C0.1260
%
T01
X1419Y7423
X1911Y7423
X2403Y7423
X3880Y5848
X5946Y7226
X6931Y7226
X7423Y4549
X7423Y1498
X10080Y9096
X9785Y9490
X8899Y11950
X10966Y13210
X11557Y13210
X12147Y13210
X6124Y13289
X3978Y12344
X3486Y12443
X2895Y11557
X2009Y11557
T02
X828Y10391
X828Y9391
X828Y8391
X533Y6340
X533Y5553
X1320Y5553
X1320Y6340
X2108Y6340
X2108Y5553
X4439Y13813
X4439Y14813
X5439Y14813
X5439Y13813
X6439Y13813
X6439Y14813
X7439Y14813
X7439Y13813
X8439Y13813
X8439Y14813
X7439Y17265
X6439Y17265
X5439Y17265
X3880Y17954
X2698Y16675
X1222Y16675
X1222Y20120
X2698Y20120
X4470Y21202
X4470Y23958
X6439Y24903
X8407Y25927
X8407Y23171
X10179Y20120
X11655Y20120
X11655Y16675
X10179Y16675
X10769Y6340
X10769Y5553
X11557Y5553
X11557Y6340
X12344Y6340
X12344Y5553
T03
X9194Y4273
X9194Y1517
T04
X10474Y8112
X10474Y10671
X12246Y10671
X12246Y8112
T05
X7423Y29273
X5454Y29273
T06
X10021Y5572
X8368Y4982
X8368Y3407
X8368Y2226
T07
X7226Y20612
X5651Y20612
X5651Y26517
X7226Y26517
T08
X1320Y2108
X11557Y2108
X11557Y29273
X1320Y29273
M30
