G75*
%MOIN*%
%OFA0B0*%
%FSLAX24Y24*%
%IPPOS*%
%LPD*%
%AMOC8*
5,1,8,0,0,1.08239X$1,22.5*
%
%ADD10C,0.0000*%
D10*
X004481Y012576D02*
X004481Y030293D01*
X016292Y030293D01*
X016292Y012576D01*
X004481Y012576D01*
X009953Y013560D02*
X009955Y013601D01*
X009961Y013642D01*
X009971Y013682D01*
X009984Y013721D01*
X010001Y013758D01*
X010022Y013794D01*
X010046Y013828D01*
X010073Y013859D01*
X010102Y013887D01*
X010135Y013913D01*
X010169Y013935D01*
X010206Y013954D01*
X010244Y013969D01*
X010284Y013981D01*
X010324Y013989D01*
X010365Y013993D01*
X010407Y013993D01*
X010448Y013989D01*
X010488Y013981D01*
X010528Y013969D01*
X010566Y013954D01*
X010602Y013935D01*
X010637Y013913D01*
X010670Y013887D01*
X010699Y013859D01*
X010726Y013828D01*
X010750Y013794D01*
X010771Y013758D01*
X010788Y013721D01*
X010801Y013682D01*
X010811Y013642D01*
X010817Y013601D01*
X010819Y013560D01*
X010817Y013519D01*
X010811Y013478D01*
X010801Y013438D01*
X010788Y013399D01*
X010771Y013362D01*
X010750Y013326D01*
X010726Y013292D01*
X010699Y013261D01*
X010670Y013233D01*
X010637Y013207D01*
X010603Y013185D01*
X010566Y013166D01*
X010528Y013151D01*
X010488Y013139D01*
X010448Y013131D01*
X010407Y013127D01*
X010365Y013127D01*
X010324Y013131D01*
X010284Y013139D01*
X010244Y013151D01*
X010206Y013166D01*
X010170Y013185D01*
X010135Y013207D01*
X010102Y013233D01*
X010073Y013261D01*
X010046Y013292D01*
X010022Y013326D01*
X010001Y013362D01*
X009984Y013399D01*
X009971Y013438D01*
X009961Y013478D01*
X009955Y013519D01*
X009953Y013560D01*
X009953Y029309D02*
X009955Y029350D01*
X009961Y029391D01*
X009971Y029431D01*
X009984Y029470D01*
X010001Y029507D01*
X010022Y029543D01*
X010046Y029577D01*
X010073Y029608D01*
X010102Y029636D01*
X010135Y029662D01*
X010169Y029684D01*
X010206Y029703D01*
X010244Y029718D01*
X010284Y029730D01*
X010324Y029738D01*
X010365Y029742D01*
X010407Y029742D01*
X010448Y029738D01*
X010488Y029730D01*
X010528Y029718D01*
X010566Y029703D01*
X010602Y029684D01*
X010637Y029662D01*
X010670Y029636D01*
X010699Y029608D01*
X010726Y029577D01*
X010750Y029543D01*
X010771Y029507D01*
X010788Y029470D01*
X010801Y029431D01*
X010811Y029391D01*
X010817Y029350D01*
X010819Y029309D01*
X010817Y029268D01*
X010811Y029227D01*
X010801Y029187D01*
X010788Y029148D01*
X010771Y029111D01*
X010750Y029075D01*
X010726Y029041D01*
X010699Y029010D01*
X010670Y028982D01*
X010637Y028956D01*
X010603Y028934D01*
X010566Y028915D01*
X010528Y028900D01*
X010488Y028888D01*
X010448Y028880D01*
X010407Y028876D01*
X010365Y028876D01*
X010324Y028880D01*
X010284Y028888D01*
X010244Y028900D01*
X010206Y028915D01*
X010170Y028934D01*
X010135Y028956D01*
X010102Y028982D01*
X010073Y029010D01*
X010046Y029041D01*
X010022Y029075D01*
X010001Y029111D01*
X009984Y029148D01*
X009971Y029187D01*
X009961Y029227D01*
X009955Y029268D01*
X009953Y029309D01*
M02*
