G75*
%MOIN*%
%OFA0B0*%
%FSLAX24Y24*%
%IPPOS*%
%LPD*%
%AMOC8*
5,1,8,0,0,1.08239X$1,22.5*
%
%ADD10C,0.0946*%
%ADD11C,0.0560*%
%ADD12C,0.0640*%
%ADD13R,0.0560X0.0560*%
%ADD14R,0.0640X0.0640*%
%ADD15R,0.0336X0.0552*%
%ADD16R,0.0474X0.0395*%
%ADD17R,0.1104X0.0710*%
%ADD18R,0.0474X0.1261*%
%ADD19R,0.0317X0.0317*%
%ADD20OC8,0.0317*%
D10*
X010386Y013560D03*
X010386Y029309D03*
D11*
X006055Y020450D03*
X006055Y019663D03*
X006055Y018875D03*
X006055Y018088D03*
X006055Y017301D03*
X006055Y016513D03*
X006055Y015726D03*
X006055Y014938D03*
X006055Y014151D03*
X006055Y013364D03*
X014717Y014151D03*
X014717Y014938D03*
X014717Y015726D03*
X014717Y016513D03*
X014717Y017301D03*
X014717Y018088D03*
X014717Y018875D03*
X014717Y019663D03*
X014717Y020450D03*
D12*
X006055Y013364D03*
X006055Y014151D03*
X006055Y014938D03*
X006055Y015726D03*
X006055Y016513D03*
X006055Y017301D03*
X006055Y018088D03*
X006055Y018875D03*
X006055Y019663D03*
X006055Y020450D03*
X014717Y020450D03*
X014717Y019663D03*
X014717Y018875D03*
X014717Y018088D03*
X014717Y017301D03*
X014717Y016513D03*
X014717Y015726D03*
X014717Y014938D03*
X014717Y014151D03*
D13*
X014717Y013364D03*
D14*
X014717Y013364D03*
D15*
X006282Y023964D03*
X005435Y023964D03*
X005435Y025992D03*
X006282Y025992D03*
X006282Y027310D03*
X005435Y027310D03*
X005435Y029338D03*
X006282Y029338D03*
D16*
X006252Y023108D03*
X006252Y022517D03*
X007827Y014820D03*
X007827Y014269D03*
D17*
X008221Y024860D03*
X008221Y026277D03*
D18*
X010386Y027675D03*
X011174Y027675D03*
X011961Y027675D03*
X012748Y027675D03*
X013536Y027675D03*
X014323Y027675D03*
X014323Y024249D03*
X013536Y024249D03*
X012748Y024249D03*
X011961Y024249D03*
X011174Y024249D03*
X010386Y024249D03*
D19*
X009599Y026749D03*
X009008Y027734D03*
X008221Y028718D03*
X006843Y027143D03*
X007237Y024190D03*
X008614Y022812D03*
X008221Y021631D03*
X009599Y020844D03*
X009008Y019466D03*
X010780Y016513D03*
X008418Y013757D03*
X006843Y019269D03*
X011764Y020253D03*
X012355Y022025D03*
X015111Y022025D03*
X011961Y029309D03*
D20*
X013142Y028915D03*
X013929Y028915D03*
X014717Y028915D03*
M02*
