G75*
%MOIN*%
%OFA0B0*%
%FSLAX25Y25*%
%IPPOS*%
%LPD*%
%AMOC8*
5,1,8,0,0,1.08239X$1,22.5*
%
%ADD10OC8,0.05906*%
%ADD11R,0.01575X0.01969*%
%ADD12C,0.05906*%
%ADD13R,0.01969X0.01575*%
%ADD14R,0.04803X0.03602*%
%ADD15R,0.04724X0.03150*%
%ADD16R,0.03150X0.01969*%
%ADD17R,0.03150X0.03937*%
%ADD18R,0.03937X0.03150*%
%ADD19R,0.02559X0.04724*%
%ADD20OC8,0.04775*%
%ADD21R,0.01772X0.05906*%
%ADD22C,0.03937*%
%ADD23C,0.03543*%
%ADD24C,0.03937*%
%ADD25C,0.05512*%
%ADD26C,0.01600*%
%ADD27C,0.04331*%
%ADD28C,0.01181*%
%ADD29C,0.01969*%
%ADD30C,0.00787*%
D10*
X0133296Y0076997D03*
X0141170Y0076997D03*
D11*
X0169517Y0082312D03*
X0169517Y0085855D03*
X0177784Y0075028D03*
X0177784Y0071485D03*
X0181721Y0071485D03*
X0181721Y0075028D03*
X0215973Y0063611D03*
X0219910Y0063611D03*
X0246288Y0054753D03*
X0246288Y0051209D03*
X0217942Y0042351D03*
X0214005Y0042351D03*
X0243139Y0026209D03*
X0247076Y0026209D03*
D12*
X0281170Y0073572D03*
X0291170Y0073572D03*
X0301170Y0073572D03*
X0301170Y0083572D03*
X0291170Y0083572D03*
X0281170Y0083572D03*
D13*
X0322076Y0046288D03*
X0325619Y0046288D03*
X0238808Y0031328D03*
X0238808Y0027391D03*
X0191564Y0030540D03*
X0191564Y0034477D03*
X0160855Y0077784D03*
X0160855Y0081721D03*
X0165186Y0082115D03*
X0165186Y0086052D03*
D14*
X0180540Y0036603D03*
X0180540Y0023690D03*
D15*
X0151800Y0043335D03*
X0160461Y0047076D03*
X0151800Y0050816D03*
D16*
X0313611Y0057115D03*
X0313611Y0064595D03*
X0324635Y0064595D03*
X0324635Y0060855D03*
X0324635Y0057115D03*
D17*
X0310461Y0045501D03*
X0304950Y0045501D03*
D18*
X0287627Y0042745D03*
X0287627Y0037233D03*
X0314398Y0072666D03*
X0314398Y0078178D03*
X0111249Y0063611D03*
X0111249Y0058099D03*
D19*
X0257410Y0067056D03*
X0265875Y0067056D03*
X0265875Y0046780D03*
X0257410Y0046780D03*
D20*
X0211524Y0056918D03*
X0201524Y0056918D03*
D21*
X0180146Y0060166D03*
X0177587Y0060166D03*
X0175028Y0060166D03*
X0172469Y0060166D03*
X0169910Y0060166D03*
D22*
X0165973Y0061150D02*
X0162036Y0061150D01*
X0173060Y0052686D02*
X0176997Y0052686D01*
X0184083Y0061150D02*
X0188020Y0061150D01*
D23*
X0186052Y0061150D03*
X0164005Y0061150D03*
D24*
X0164398Y0061150D03*
X0164792Y0061150D03*
X0165186Y0061150D03*
X0165580Y0061150D03*
X0163611Y0061150D03*
X0163217Y0061150D03*
X0162824Y0061150D03*
X0162430Y0061150D03*
X0158887Y0056524D03*
X0167154Y0052194D03*
X0173060Y0052686D03*
X0173454Y0052686D03*
X0173847Y0052686D03*
X0174241Y0052686D03*
X0174635Y0052686D03*
X0175028Y0052686D03*
X0175422Y0052686D03*
X0175816Y0052686D03*
X0176209Y0052686D03*
X0176603Y0052686D03*
X0176997Y0052686D03*
X0184477Y0061150D03*
X0184871Y0061150D03*
X0185265Y0061150D03*
X0185658Y0061150D03*
X0186446Y0061150D03*
X0186839Y0061150D03*
X0187233Y0061150D03*
X0187627Y0061150D03*
X0188808Y0052194D03*
X0184871Y0043926D03*
X0195894Y0024635D03*
X0228572Y0026997D03*
X0237627Y0037627D03*
X0243532Y0036052D03*
X0247076Y0031328D03*
X0255343Y0033690D03*
X0243926Y0042351D03*
X0234083Y0052587D03*
X0216761Y0068729D03*
X0221091Y0079359D03*
X0215580Y0081721D03*
X0210461Y0079359D03*
X0201013Y0086052D03*
X0210855Y0091564D03*
X0205737Y0093926D03*
X0217154Y0093139D03*
X0231721Y0080540D03*
X0264005Y0082115D03*
X0268335Y0076209D03*
X0270698Y0035658D03*
X0195894Y0092351D03*
X0155737Y0038414D03*
X0143139Y0024241D03*
D25*
X0121879Y0037233D03*
X0114005Y0037233D03*
X0106131Y0037233D03*
X0203335Y0022548D03*
X0213335Y0022548D03*
X0223335Y0022548D03*
X0233335Y0022548D03*
D26*
X0105110Y0032102D02*
X0104715Y0032266D01*
X0104873Y0032150D01*
X0105011Y0032066D01*
X0105143Y0031986D01*
X0105279Y0031905D01*
X0105416Y0031823D01*
X0105550Y0031744D01*
X0105687Y0031663D01*
X0105824Y0031584D01*
X0105961Y0031505D01*
X0106101Y0031425D01*
X0106234Y0031349D01*
X0106376Y0031269D01*
X0106510Y0031194D01*
X0106653Y0031114D01*
X0106788Y0031040D01*
X0106926Y0030963D01*
X0107066Y0030888D01*
X0107205Y0030812D01*
X0107345Y0030737D01*
X0107487Y0030662D01*
X0107623Y0030589D01*
X0107764Y0030515D01*
X0107902Y0030443D01*
X0108045Y0030369D01*
X0108184Y0030297D01*
X0108328Y0030223D01*
X0108467Y0030153D01*
X0108607Y0030082D01*
X0108748Y0030011D01*
X0108890Y0029940D01*
X0109033Y0029869D01*
X0109172Y0029801D01*
X0109315Y0029731D01*
X0109457Y0029662D01*
X0109600Y0029593D01*
X0109742Y0029524D01*
X0109885Y0029456D01*
X0110028Y0029388D01*
X0110171Y0029321D01*
X0110313Y0029254D01*
X0110456Y0029188D01*
X0110604Y0029119D01*
X0110745Y0029054D01*
X0110889Y0028988D01*
X0111031Y0028924D01*
X0111175Y0028858D01*
X0111319Y0028794D01*
X0111466Y0028728D01*
X0111611Y0028663D01*
X0111752Y0028601D01*
X0111898Y0028537D01*
X0112039Y0028475D01*
X0112194Y0028408D01*
X0112334Y0028347D01*
X0112475Y0028287D01*
X0112623Y0028223D01*
X0112769Y0028161D01*
X0112916Y0028099D01*
X0113061Y0028038D01*
X0113205Y0027978D01*
X0113353Y0027917D01*
X0113498Y0027857D01*
X0113645Y0027796D01*
X0113790Y0027737D01*
X0113938Y0027677D01*
X0114083Y0027618D01*
X0114231Y0027559D01*
X0114378Y0027500D01*
X0114525Y0027442D01*
X0114672Y0027383D01*
X0114818Y0027326D01*
X0114967Y0027267D01*
X0115114Y0027210D01*
X0115261Y0027154D01*
X0115406Y0027098D01*
X0115559Y0027039D01*
X0115701Y0026985D01*
X0115856Y0026926D01*
X0115998Y0026872D01*
X0116150Y0026816D01*
X0116298Y0026760D01*
X0116445Y0026706D01*
X0116607Y0026646D01*
X0116741Y0026597D01*
X0116898Y0026539D01*
X0117040Y0026487D01*
X0117191Y0026433D01*
X0117340Y0026380D01*
X0117487Y0026327D01*
X0117635Y0026274D01*
X0117791Y0026219D01*
X0117935Y0026168D01*
X0118091Y0026113D01*
X0118235Y0026063D01*
X0118386Y0026010D01*
X0118535Y0025959D01*
X0118686Y0025907D01*
X0118837Y0025855D01*
X0118985Y0025804D01*
X0119141Y0025752D01*
X0119284Y0025703D01*
X0119435Y0025652D01*
X0119589Y0025601D01*
X0119741Y0025550D01*
X0119892Y0025500D01*
X0120037Y0025452D01*
X0120193Y0025401D01*
X0120345Y0025351D01*
X0120493Y0025303D01*
X0120644Y0025254D01*
X0120800Y0025204D01*
X0120949Y0025156D01*
X0121102Y0025107D01*
X0121252Y0025059D01*
X0121404Y0025011D01*
X0121555Y0024963D01*
X0121704Y0024917D01*
X0121860Y0024868D01*
X0122011Y0024820D01*
X0122179Y0024769D01*
X0122314Y0024727D01*
X0122467Y0024680D01*
X0122620Y0024633D01*
X0122767Y0024589D01*
X0122934Y0024538D01*
X0123078Y0024495D01*
X0123228Y0024449D01*
X0123385Y0024403D01*
X0123536Y0024358D01*
X0123685Y0024314D01*
X0123858Y0024263D01*
X0123992Y0024223D01*
X0124153Y0024176D01*
X0124197Y0024164D01*
X0123935Y0024425D01*
X0123244Y0026094D01*
X0123244Y0027900D01*
X0123935Y0029569D01*
X0125212Y0030846D01*
X0126881Y0031537D01*
X0128687Y0031537D01*
X0130356Y0030846D01*
X0131633Y0029569D01*
X0132250Y0028079D01*
X0141293Y0023558D01*
X0150846Y0022088D01*
X0161202Y0022088D01*
X0163008Y0023894D01*
X0163008Y0028499D01*
X0159385Y0024877D01*
X0158295Y0024425D01*
X0151998Y0024425D01*
X0150908Y0024877D01*
X0150073Y0025711D01*
X0147422Y0028362D01*
X0137824Y0028362D01*
X0136734Y0028814D01*
X0135900Y0029648D01*
X0131280Y0034268D01*
X0126169Y0034268D01*
X0124785Y0032883D01*
X0122899Y0032102D01*
X0120858Y0032102D01*
X0118972Y0032883D01*
X0117529Y0034327D01*
X0116748Y0036213D01*
X0116748Y0037613D01*
X0114700Y0039661D01*
X0114189Y0040896D01*
X0114189Y0054150D01*
X0108297Y0054150D01*
X0106906Y0055541D01*
X0106906Y0060658D01*
X0107600Y0061352D01*
X0107480Y0061799D01*
X0107480Y0063611D01*
X0111249Y0063611D01*
X0111249Y0063611D01*
X0111249Y0066986D01*
X0113454Y0066986D01*
X0113912Y0066863D01*
X0114189Y0066703D01*
X0114189Y0072834D01*
X0114130Y0073272D01*
X0114189Y0073496D01*
X0114189Y0073728D01*
X0114358Y0074137D01*
X0114471Y0074564D01*
X0114612Y0074748D01*
X0114700Y0074963D01*
X0115013Y0075275D01*
X0120923Y0083033D01*
X0121023Y0083265D01*
X0121325Y0083559D01*
X0121580Y0083895D01*
X0121799Y0084022D01*
X0121979Y0084198D01*
X0122371Y0084355D01*
X0122735Y0084567D01*
X0122986Y0084601D01*
X0125113Y0085452D01*
X0124723Y0085842D01*
X0124031Y0087511D01*
X0124031Y0089317D01*
X0124176Y0089667D01*
X0124103Y0089645D01*
X0123951Y0089601D01*
X0123816Y0089561D01*
X0123739Y0089538D01*
X0123542Y0089480D01*
X0123411Y0089441D01*
X0123257Y0089395D01*
X0123137Y0089360D01*
X0123001Y0089318D01*
X0122868Y0089278D01*
X0122724Y0089235D01*
X0122603Y0089198D01*
X0122456Y0089153D01*
X0122328Y0089114D01*
X0122192Y0089072D01*
X0122046Y0089027D01*
X0121915Y0088986D01*
X0121781Y0088944D01*
X0121639Y0088899D01*
X0121514Y0088860D01*
X0121375Y0088816D01*
X0121244Y0088775D01*
X0121108Y0088731D01*
X0120971Y0088688D01*
X0120849Y0088649D01*
X0120701Y0088601D01*
X0120572Y0088559D01*
X0120425Y0088511D01*
X0120298Y0088470D01*
X0120163Y0088426D01*
X0120022Y0088379D01*
X0119896Y0088337D01*
X0119767Y0088295D01*
X0119625Y0088247D01*
X0119487Y0088201D01*
X0119359Y0088158D01*
X0119223Y0088112D01*
X0119088Y0088067D01*
X0118949Y0088019D01*
X0118822Y0087976D01*
X0118692Y0087931D01*
X0118552Y0087883D01*
X0118420Y0087837D01*
X0118275Y0087787D01*
X0118153Y0087744D01*
X0118016Y0087696D01*
X0117888Y0087651D01*
X0117745Y0087601D01*
X0117627Y0087558D01*
X0117484Y0087507D01*
X0117350Y0087459D01*
X0117227Y0087415D01*
X0117084Y0087363D01*
X0116955Y0087316D01*
X0116822Y0087268D01*
X0116687Y0087218D01*
X0116553Y0087169D01*
X0116427Y0087122D01*
X0116289Y0087071D01*
X0116162Y0087024D01*
X0116025Y0086972D01*
X0115887Y0086920D01*
X0115762Y0086873D01*
X0115628Y0086822D01*
X0115492Y0086770D01*
X0115365Y0086721D01*
X0115236Y0086671D01*
X0115099Y0086618D01*
X0114967Y0086567D01*
X0114837Y0086516D01*
X0114704Y0086464D01*
X0114583Y0086416D01*
X0114440Y0086359D01*
X0114312Y0086308D01*
X0114174Y0086253D01*
X0114050Y0086203D01*
X0113890Y0086138D01*
X0113785Y0086096D01*
X0113656Y0086043D01*
X0113525Y0085989D01*
X0113392Y0085935D01*
X0113263Y0085881D01*
X0113127Y0085824D01*
X0113004Y0085773D01*
X0112871Y0085717D01*
X0112743Y0085663D01*
X0112612Y0085607D01*
X0112477Y0085549D01*
X0112353Y0085497D01*
X0112225Y0085441D01*
X0112092Y0085384D01*
X0111965Y0085328D01*
X0111835Y0085271D01*
X0111707Y0085215D01*
X0111576Y0085157D01*
X0111473Y0085111D01*
X0111319Y0085043D01*
X0111190Y0084984D01*
X0111062Y0084926D01*
X0110938Y0084870D01*
X0110806Y0084810D01*
X0110681Y0084752D01*
X0110554Y0084694D01*
X0110423Y0084633D01*
X0110296Y0084574D01*
X0110171Y0084516D01*
X0110037Y0084452D01*
X0109915Y0084394D01*
X0109788Y0084334D01*
X0109665Y0084275D01*
X0109536Y0084213D01*
X0109410Y0084152D01*
X0109286Y0084091D01*
X0109159Y0084029D01*
X0109031Y0083966D01*
X0108906Y0083904D01*
X0108782Y0083842D01*
X0108655Y0083779D01*
X0108534Y0083717D01*
X0108405Y0083652D01*
X0108282Y0083590D01*
X0108157Y0083526D01*
X0108033Y0083461D01*
X0107910Y0083397D01*
X0107786Y0083333D01*
X0107660Y0083267D01*
X0107540Y0083203D01*
X0107414Y0083136D01*
X0107292Y0083071D01*
X0107169Y0083005D01*
X0107048Y0082939D01*
X0106927Y0082873D01*
X0106800Y0082803D01*
X0106679Y0082737D01*
X0106558Y0082669D01*
X0106434Y0082600D01*
X0106316Y0082533D01*
X0106193Y0082464D01*
X0106071Y0082394D01*
X0105953Y0082327D01*
X0105829Y0082255D01*
X0105710Y0082186D01*
X0105589Y0082115D01*
X0105468Y0082044D01*
X0105350Y0081974D01*
X0105231Y0081903D01*
X0105110Y0081830D01*
X0104991Y0081758D01*
X0104873Y0081686D01*
X0104024Y0081063D01*
X0102703Y0079433D01*
X0102002Y0077456D01*
X0101913Y0076408D01*
X0101913Y0040271D01*
X0103224Y0041583D01*
X0105110Y0042364D01*
X0107151Y0042364D01*
X0109037Y0041583D01*
X0110480Y0040139D01*
X0111261Y0038254D01*
X0111261Y0036213D01*
X0110480Y0034327D01*
X0109037Y0032883D01*
X0107151Y0032102D01*
X0105110Y0032102D01*
X0106508Y0031195D02*
X0126055Y0031195D01*
X0124567Y0032793D02*
X0132755Y0032793D01*
X0134353Y0031195D02*
X0129514Y0031195D01*
X0131606Y0029596D02*
X0135952Y0029596D01*
X0135610Y0026399D02*
X0149385Y0026399D01*
X0147787Y0027998D02*
X0132413Y0027998D01*
X0138807Y0024801D02*
X0151091Y0024801D01*
X0153816Y0030356D02*
X0150330Y0033841D01*
X0149240Y0034293D01*
X0139642Y0034293D01*
X0135023Y0038913D01*
X0134188Y0039747D01*
X0133098Y0040198D01*
X0126169Y0040198D01*
X0124785Y0041583D01*
X0122899Y0042364D01*
X0121498Y0042364D01*
X0120907Y0042955D01*
X0120907Y0071926D01*
X0125957Y0078553D01*
X0128226Y0079461D01*
X0127969Y0079204D01*
X0127969Y0074790D01*
X0131089Y0071669D01*
X0135503Y0071669D01*
X0137640Y0073806D01*
X0139201Y0072244D01*
X0141084Y0072244D01*
X0141084Y0076911D01*
X0141256Y0076911D01*
X0141256Y0077083D01*
X0141084Y0077083D01*
X0141084Y0081750D01*
X0139201Y0081750D01*
X0137640Y0080188D01*
X0135699Y0082128D01*
X0155564Y0087851D01*
X0162445Y0088441D01*
X0161827Y0087823D01*
X0161827Y0085080D01*
X0160659Y0085080D01*
X0160184Y0084883D01*
X0158887Y0084883D01*
X0157496Y0083492D01*
X0157496Y0079950D01*
X0158191Y0079256D01*
X0158071Y0078809D01*
X0158071Y0077784D01*
X0158071Y0076760D01*
X0158194Y0076302D01*
X0158430Y0075892D01*
X0158766Y0075556D01*
X0159176Y0075320D01*
X0159634Y0075197D01*
X0160855Y0075197D01*
X0160855Y0077784D01*
X0160855Y0077784D01*
X0158071Y0077784D01*
X0160855Y0077784D01*
X0160855Y0077784D01*
X0160855Y0075197D01*
X0162076Y0075197D01*
X0162534Y0075320D01*
X0162945Y0075556D01*
X0163280Y0075892D01*
X0163517Y0076302D01*
X0163639Y0076760D01*
X0163639Y0077784D01*
X0160855Y0077784D01*
X0160855Y0077784D01*
X0163639Y0077784D01*
X0163639Y0078809D01*
X0163601Y0078953D01*
X0167154Y0078953D01*
X0167419Y0079218D01*
X0167477Y0079221D01*
X0167745Y0078953D01*
X0171288Y0078953D01*
X0171681Y0079346D01*
X0195890Y0079346D01*
X0196275Y0079294D01*
X0196475Y0079346D01*
X0196681Y0079346D01*
X0197040Y0079495D01*
X0197416Y0079594D01*
X0197580Y0079719D01*
X0197771Y0079798D01*
X0198046Y0080073D01*
X0200198Y0081709D01*
X0201877Y0081709D01*
X0203473Y0082370D01*
X0204695Y0083592D01*
X0205356Y0085188D01*
X0205356Y0086916D01*
X0204695Y0088512D01*
X0203473Y0089734D01*
X0201877Y0090395D01*
X0200149Y0090395D01*
X0199710Y0090214D01*
X0200238Y0091487D01*
X0200238Y0093215D01*
X0199577Y0094811D01*
X0199490Y0094898D01*
X0208047Y0094898D01*
X0207173Y0094024D01*
X0206512Y0092428D01*
X0206512Y0090700D01*
X0207144Y0089175D01*
X0207385Y0082425D01*
X0206779Y0081819D01*
X0206118Y0080223D01*
X0206118Y0078495D01*
X0206407Y0077797D01*
X0184083Y0077797D01*
X0183492Y0078387D01*
X0179950Y0078387D01*
X0179753Y0078190D01*
X0179555Y0078387D01*
X0176013Y0078387D01*
X0175619Y0077994D01*
X0174438Y0077994D01*
X0173349Y0077542D01*
X0172514Y0076708D01*
X0169955Y0074149D01*
X0169504Y0073059D01*
X0169504Y0065494D01*
X0168041Y0065494D01*
X0167573Y0065026D01*
X0166443Y0065494D01*
X0161566Y0065494D01*
X0159970Y0064832D01*
X0158748Y0063611D01*
X0158087Y0062014D01*
X0158087Y0060286D01*
X0158748Y0058690D01*
X0159970Y0057468D01*
X0161291Y0056921D01*
X0158150Y0053781D01*
X0156130Y0053781D01*
X0155146Y0054765D01*
X0148454Y0054765D01*
X0147063Y0053374D01*
X0147063Y0052831D01*
X0146727Y0052495D01*
X0142199Y0047968D01*
X0141748Y0046878D01*
X0141748Y0040580D01*
X0142199Y0039490D01*
X0143034Y0038656D01*
X0145790Y0035900D01*
X0146879Y0035449D01*
X0152560Y0035449D01*
X0153277Y0034732D01*
X0154873Y0034071D01*
X0156601Y0034071D01*
X0158197Y0034732D01*
X0159419Y0035954D01*
X0160080Y0037550D01*
X0160080Y0039278D01*
X0159419Y0040874D01*
X0158197Y0042096D01*
X0156601Y0042757D01*
X0155962Y0042757D01*
X0155962Y0043335D01*
X0151800Y0043335D01*
X0151800Y0043335D01*
X0155962Y0043335D01*
X0155962Y0044279D01*
X0157116Y0043126D01*
X0163807Y0043126D01*
X0165198Y0044517D01*
X0165198Y0044679D01*
X0166945Y0044898D01*
X0180572Y0044898D01*
X0180528Y0044790D01*
X0180528Y0043062D01*
X0181189Y0041466D01*
X0181875Y0040779D01*
X0179444Y0040779D01*
X0178223Y0041539D01*
X0178047Y0041715D01*
X0177727Y0041848D01*
X0177434Y0042031D01*
X0177187Y0042071D01*
X0176957Y0042167D01*
X0176611Y0042167D01*
X0176270Y0042223D01*
X0176027Y0042167D01*
X0168927Y0042167D01*
X0167837Y0041715D01*
X0167003Y0040881D01*
X0156477Y0030356D01*
X0153816Y0030356D01*
X0152977Y0031195D02*
X0157316Y0031195D01*
X0158914Y0032793D02*
X0151378Y0032793D01*
X0154099Y0034392D02*
X0139544Y0034392D01*
X0137945Y0035990D02*
X0145700Y0035990D01*
X0144101Y0037589D02*
X0136347Y0037589D01*
X0134748Y0039187D02*
X0142503Y0039187D01*
X0141748Y0040786D02*
X0125582Y0040786D01*
X0121478Y0042384D02*
X0141748Y0042384D01*
X0141748Y0043983D02*
X0120907Y0043983D01*
X0120907Y0045581D02*
X0141748Y0045581D01*
X0141873Y0047180D02*
X0120907Y0047180D01*
X0120907Y0048778D02*
X0143010Y0048778D01*
X0144608Y0050377D02*
X0120907Y0050377D01*
X0120907Y0051975D02*
X0146207Y0051975D01*
X0147263Y0053574D02*
X0141978Y0053574D01*
X0141889Y0053485D02*
X0143028Y0054624D01*
X0143645Y0056113D01*
X0143645Y0057724D01*
X0143028Y0059212D01*
X0141889Y0060351D01*
X0140401Y0060968D01*
X0138790Y0060968D01*
X0137301Y0060351D01*
X0136162Y0059212D01*
X0135546Y0057724D01*
X0135546Y0056113D01*
X0136162Y0054624D01*
X0137301Y0053485D01*
X0138790Y0052869D01*
X0140401Y0052869D01*
X0141889Y0053485D01*
X0143255Y0055172D02*
X0159542Y0055172D01*
X0161140Y0056771D02*
X0143645Y0056771D01*
X0143377Y0058369D02*
X0159069Y0058369D01*
X0158219Y0059968D02*
X0142273Y0059968D01*
X0136918Y0059968D02*
X0120907Y0059968D01*
X0120907Y0061566D02*
X0158087Y0061566D01*
X0158563Y0063165D02*
X0120907Y0063165D01*
X0120907Y0064763D02*
X0159901Y0064763D01*
X0169504Y0066362D02*
X0120907Y0066362D01*
X0120907Y0067960D02*
X0169504Y0067960D01*
X0169504Y0069559D02*
X0120907Y0069559D01*
X0120907Y0071157D02*
X0169504Y0071157D01*
X0169504Y0072756D02*
X0143651Y0072756D01*
X0143139Y0072244D02*
X0145923Y0075028D01*
X0145923Y0076911D01*
X0141256Y0076911D01*
X0141256Y0072244D01*
X0143139Y0072244D01*
X0141256Y0072756D02*
X0141084Y0072756D01*
X0141084Y0074354D02*
X0141256Y0074354D01*
X0141256Y0075953D02*
X0141084Y0075953D01*
X0141256Y0077083D02*
X0145923Y0077083D01*
X0145923Y0078965D01*
X0143139Y0081750D01*
X0141256Y0081750D01*
X0141256Y0077083D01*
X0141256Y0077551D02*
X0141084Y0077551D01*
X0141084Y0079150D02*
X0141256Y0079150D01*
X0141256Y0080748D02*
X0141084Y0080748D01*
X0138200Y0080748D02*
X0137079Y0080748D01*
X0136461Y0082347D02*
X0157496Y0082347D01*
X0157496Y0080748D02*
X0144140Y0080748D01*
X0145738Y0079150D02*
X0158162Y0079150D01*
X0158071Y0077551D02*
X0145923Y0077551D01*
X0145923Y0075953D02*
X0158395Y0075953D01*
X0160855Y0075953D02*
X0160855Y0075953D01*
X0160855Y0077551D02*
X0160855Y0077551D01*
X0163639Y0077551D02*
X0173371Y0077551D01*
X0171759Y0075953D02*
X0163315Y0075953D01*
X0170161Y0074354D02*
X0145249Y0074354D01*
X0138690Y0072756D02*
X0136589Y0072756D01*
X0130003Y0072756D02*
X0121539Y0072756D01*
X0122757Y0074354D02*
X0128404Y0074354D01*
X0127969Y0075953D02*
X0123975Y0075953D01*
X0125193Y0077551D02*
X0127969Y0077551D01*
X0127969Y0079150D02*
X0127448Y0079150D01*
X0125021Y0085544D02*
X0112464Y0085544D01*
X0108990Y0083946D02*
X0121668Y0083946D01*
X0120401Y0082347D02*
X0105988Y0082347D01*
X0103770Y0080748D02*
X0119183Y0080748D01*
X0117965Y0079150D02*
X0102603Y0079150D01*
X0102036Y0077551D02*
X0116747Y0077551D01*
X0115529Y0075953D02*
X0101913Y0075953D01*
X0101913Y0074354D02*
X0114416Y0074354D01*
X0114189Y0072756D02*
X0101913Y0072756D01*
X0101913Y0071157D02*
X0114189Y0071157D01*
X0114189Y0069559D02*
X0101913Y0069559D01*
X0101913Y0067960D02*
X0114189Y0067960D01*
X0111249Y0066986D02*
X0109043Y0066986D01*
X0108586Y0066863D01*
X0108175Y0066626D01*
X0107840Y0066291D01*
X0107603Y0065881D01*
X0107480Y0065423D01*
X0107480Y0063611D01*
X0111249Y0063611D01*
X0111249Y0066986D01*
X0111249Y0066362D02*
X0111249Y0066362D01*
X0111249Y0064763D02*
X0111249Y0064763D01*
X0111249Y0063611D02*
X0111249Y0063611D01*
X0107480Y0063165D02*
X0101913Y0063165D01*
X0101913Y0064763D02*
X0107480Y0064763D01*
X0107911Y0066362D02*
X0101913Y0066362D01*
X0101913Y0061566D02*
X0107543Y0061566D01*
X0106906Y0059968D02*
X0101913Y0059968D01*
X0101913Y0058369D02*
X0106906Y0058369D01*
X0106906Y0056771D02*
X0101913Y0056771D01*
X0101913Y0055172D02*
X0107274Y0055172D01*
X0101913Y0053574D02*
X0114189Y0053574D01*
X0114189Y0051975D02*
X0101913Y0051975D01*
X0101913Y0050377D02*
X0114189Y0050377D01*
X0114189Y0048778D02*
X0101913Y0048778D01*
X0101913Y0047180D02*
X0114189Y0047180D01*
X0114189Y0045581D02*
X0101913Y0045581D01*
X0101913Y0043983D02*
X0114189Y0043983D01*
X0114189Y0042384D02*
X0101913Y0042384D01*
X0101913Y0040786D02*
X0102427Y0040786D01*
X0109834Y0040786D02*
X0114234Y0040786D01*
X0115174Y0039187D02*
X0110875Y0039187D01*
X0111261Y0037589D02*
X0116748Y0037589D01*
X0116840Y0035990D02*
X0111169Y0035990D01*
X0110507Y0034392D02*
X0117502Y0034392D01*
X0119190Y0032793D02*
X0108819Y0032793D01*
X0109592Y0029596D02*
X0123963Y0029596D01*
X0123285Y0027998D02*
X0113158Y0027998D01*
X0117285Y0026399D02*
X0123244Y0026399D01*
X0123780Y0024801D02*
X0122076Y0024801D01*
X0143605Y0023202D02*
X0162316Y0023202D01*
X0163008Y0024801D02*
X0159202Y0024801D01*
X0160908Y0026399D02*
X0163008Y0026399D01*
X0163008Y0027998D02*
X0162506Y0027998D01*
X0160513Y0034392D02*
X0157375Y0034392D01*
X0159434Y0035990D02*
X0162112Y0035990D01*
X0163710Y0037589D02*
X0160080Y0037589D01*
X0160080Y0039187D02*
X0165309Y0039187D01*
X0166907Y0040786D02*
X0159456Y0040786D01*
X0157502Y0042384D02*
X0180808Y0042384D01*
X0180528Y0043983D02*
X0164664Y0043983D01*
X0164290Y0050543D02*
X0163807Y0051025D01*
X0163782Y0051025D01*
X0166709Y0053953D01*
X0168883Y0053953D01*
X0168717Y0053550D01*
X0168717Y0051822D01*
X0169128Y0050828D01*
X0167161Y0050828D01*
X0166978Y0050879D01*
X0166576Y0050828D01*
X0166171Y0050828D01*
X0165996Y0050756D01*
X0164290Y0050543D01*
X0164732Y0051975D02*
X0168717Y0051975D01*
X0168727Y0053574D02*
X0166330Y0053574D01*
X0155724Y0047445D02*
X0155724Y0045804D01*
X0155603Y0046015D01*
X0155267Y0046351D01*
X0154857Y0046588D01*
X0154399Y0046710D01*
X0151800Y0046710D01*
X0149329Y0046710D01*
X0149485Y0046866D01*
X0155146Y0046866D01*
X0155724Y0047445D01*
X0155724Y0047180D02*
X0155459Y0047180D01*
X0155962Y0043983D02*
X0156259Y0043983D01*
X0151800Y0043983D02*
X0151800Y0043983D01*
X0151800Y0043336D02*
X0151800Y0046710D01*
X0151800Y0043336D01*
X0151800Y0043336D01*
X0151800Y0045581D02*
X0151800Y0045581D01*
X0137213Y0053574D02*
X0120907Y0053574D01*
X0120907Y0055172D02*
X0135935Y0055172D01*
X0135546Y0056771D02*
X0120907Y0056771D01*
X0120907Y0058369D02*
X0135813Y0058369D01*
X0167351Y0079150D02*
X0167548Y0079150D01*
X0171485Y0079150D02*
X0206118Y0079150D01*
X0206336Y0080748D02*
X0198935Y0080748D01*
X0203418Y0082347D02*
X0207307Y0082347D01*
X0207330Y0083946D02*
X0204841Y0083946D01*
X0205356Y0085544D02*
X0207273Y0085544D01*
X0207216Y0087143D02*
X0205262Y0087143D01*
X0204466Y0088741D02*
X0207159Y0088741D01*
X0206661Y0090340D02*
X0202011Y0090340D01*
X0200014Y0090340D02*
X0199762Y0090340D01*
X0200238Y0091938D02*
X0206512Y0091938D01*
X0206971Y0093537D02*
X0200105Y0093537D01*
X0225413Y0080275D02*
X0230194Y0085055D01*
X0247816Y0085055D01*
X0249622Y0083249D01*
X0249622Y0081999D01*
X0250313Y0080331D01*
X0251590Y0079053D01*
X0253259Y0078362D01*
X0255065Y0078362D01*
X0256734Y0079053D01*
X0258011Y0080331D01*
X0258702Y0081999D01*
X0258702Y0083249D01*
X0263265Y0087811D01*
X0273256Y0087811D01*
X0274346Y0088262D01*
X0275180Y0089097D01*
X0276257Y0090173D01*
X0291910Y0090173D01*
X0293859Y0088224D01*
X0292230Y0088899D01*
X0290110Y0088899D01*
X0288152Y0088088D01*
X0286654Y0086589D01*
X0285843Y0084631D01*
X0285843Y0084453D01*
X0285806Y0084685D01*
X0285575Y0085396D01*
X0285235Y0086063D01*
X0284795Y0086668D01*
X0284266Y0087197D01*
X0283661Y0087637D01*
X0282995Y0087976D01*
X0282283Y0088207D01*
X0281544Y0088324D01*
X0281354Y0088324D01*
X0281354Y0083756D01*
X0280986Y0083756D01*
X0280986Y0088324D01*
X0280796Y0088324D01*
X0280057Y0088207D01*
X0279346Y0087976D01*
X0278679Y0087637D01*
X0278074Y0087197D01*
X0277545Y0086668D01*
X0277105Y0086063D01*
X0276766Y0085396D01*
X0276534Y0084685D01*
X0276417Y0083946D01*
X0276417Y0083756D01*
X0280986Y0083756D01*
X0280986Y0083387D01*
X0276417Y0083387D01*
X0276417Y0083198D01*
X0276534Y0082459D01*
X0276766Y0081747D01*
X0277105Y0081081D01*
X0277545Y0080475D01*
X0278074Y0079946D01*
X0278679Y0079507D01*
X0279346Y0079167D01*
X0280057Y0078936D01*
X0280289Y0078899D01*
X0280110Y0078899D01*
X0278152Y0078088D01*
X0276654Y0076589D01*
X0275843Y0074631D01*
X0275843Y0074555D01*
X0275144Y0074844D01*
X0273338Y0074844D01*
X0272291Y0074411D01*
X0272679Y0075345D01*
X0272679Y0077073D01*
X0272017Y0078670D01*
X0270796Y0079892D01*
X0269199Y0080553D01*
X0268059Y0080553D01*
X0268348Y0081251D01*
X0268348Y0082979D01*
X0267687Y0084575D01*
X0266465Y0085797D01*
X0264869Y0086458D01*
X0263141Y0086458D01*
X0261544Y0085797D01*
X0260323Y0084575D01*
X0259661Y0082979D01*
X0259661Y0081687D01*
X0255771Y0077797D01*
X0225145Y0077797D01*
X0225435Y0078495D01*
X0225435Y0080223D01*
X0225413Y0080275D01*
X0225887Y0080748D02*
X0250140Y0080748D01*
X0249622Y0082347D02*
X0227486Y0082347D01*
X0229084Y0083946D02*
X0248925Y0083946D01*
X0251494Y0079150D02*
X0225435Y0079150D01*
X0218657Y0060252D02*
X0218184Y0059779D01*
X0217732Y0058689D01*
X0217732Y0054360D01*
X0218184Y0053270D01*
X0219018Y0052436D01*
X0221774Y0049680D01*
X0222249Y0049483D01*
X0225183Y0046549D01*
X0224357Y0046891D01*
X0222550Y0046891D01*
X0220882Y0046200D01*
X0220052Y0045371D01*
X0219713Y0045710D01*
X0217098Y0045710D01*
X0217108Y0045979D01*
X0217062Y0046103D01*
X0217056Y0046236D01*
X0216858Y0046653D01*
X0216698Y0047085D01*
X0216608Y0047182D01*
X0216551Y0047302D01*
X0216209Y0047612D01*
X0215896Y0047950D01*
X0215775Y0048005D01*
X0210561Y0052731D01*
X0211524Y0052731D01*
X0211524Y0056918D01*
X0207337Y0056918D01*
X0207337Y0055652D01*
X0206287Y0056604D01*
X0206287Y0058891D01*
X0203977Y0061200D01*
X0205017Y0062241D01*
X0205527Y0061731D01*
X0207196Y0061039D01*
X0208527Y0061039D01*
X0209373Y0060689D01*
X0207337Y0058653D01*
X0207337Y0056918D01*
X0211524Y0056918D01*
X0211524Y0056918D01*
X0211524Y0056918D01*
X0211524Y0052731D01*
X0213259Y0052731D01*
X0215712Y0055184D01*
X0215712Y0056918D01*
X0211525Y0056918D01*
X0211525Y0056918D01*
X0215712Y0056918D01*
X0215712Y0058653D01*
X0213719Y0060646D01*
X0213808Y0060646D01*
X0214202Y0060252D01*
X0217744Y0060252D01*
X0217942Y0060449D01*
X0218139Y0060252D01*
X0218657Y0060252D01*
X0218373Y0059968D02*
X0214397Y0059968D01*
X0215712Y0058369D02*
X0217732Y0058369D01*
X0217732Y0056771D02*
X0215712Y0056771D01*
X0215700Y0055172D02*
X0217732Y0055172D01*
X0218058Y0053574D02*
X0214102Y0053574D01*
X0211524Y0053574D02*
X0211524Y0053574D01*
X0211524Y0055172D02*
X0211524Y0055172D01*
X0211524Y0056771D02*
X0211524Y0056771D01*
X0207337Y0056771D02*
X0206287Y0056771D01*
X0206287Y0058369D02*
X0207337Y0058369D01*
X0208652Y0059968D02*
X0205209Y0059968D01*
X0205924Y0061566D02*
X0204343Y0061566D01*
X0202363Y0052156D02*
X0199552Y0052156D01*
X0198072Y0053635D01*
X0198072Y0042155D01*
X0197621Y0041065D01*
X0196787Y0040231D01*
X0195697Y0039780D01*
X0193579Y0039780D01*
X0190864Y0037065D01*
X0191564Y0037065D01*
X0191564Y0034477D01*
X0191564Y0034477D01*
X0194348Y0034477D01*
X0194348Y0033453D01*
X0194228Y0033006D01*
X0194923Y0032311D01*
X0194923Y0028769D01*
X0194529Y0028375D01*
X0194529Y0024547D01*
X0194625Y0024451D01*
X0195317Y0022782D01*
X0195317Y0020976D01*
X0194799Y0019726D01*
X0198951Y0019726D01*
X0198205Y0021527D01*
X0198205Y0023569D01*
X0198986Y0025454D01*
X0200429Y0026898D01*
X0202315Y0027679D01*
X0204194Y0027679D01*
X0207554Y0031039D01*
X0208388Y0031873D01*
X0209478Y0032324D01*
X0226799Y0032324D01*
X0227889Y0031873D01*
X0228422Y0031340D01*
X0229436Y0031340D01*
X0231032Y0030679D01*
X0232254Y0029457D01*
X0232915Y0027861D01*
X0232915Y0027679D01*
X0234272Y0027679D01*
X0234483Y0027889D01*
X0235317Y0028723D01*
X0235449Y0028778D01*
X0235449Y0029162D01*
X0236143Y0029856D01*
X0236024Y0030303D01*
X0236024Y0031327D01*
X0238808Y0031327D01*
X0238808Y0031328D01*
X0241592Y0031328D01*
X0241592Y0032154D01*
X0242668Y0031709D01*
X0244396Y0031709D01*
X0245993Y0032370D01*
X0247214Y0033592D01*
X0247876Y0035188D01*
X0247876Y0036916D01*
X0247214Y0038512D01*
X0246734Y0038992D01*
X0267889Y0038992D01*
X0267521Y0038624D01*
X0263021Y0038624D01*
X0261931Y0038172D01*
X0259284Y0035525D01*
X0259025Y0036150D01*
X0257804Y0037372D01*
X0256207Y0038033D01*
X0254479Y0038033D01*
X0252883Y0037372D01*
X0251661Y0036150D01*
X0251000Y0034554D01*
X0251000Y0033540D01*
X0249032Y0031572D01*
X0246528Y0029568D01*
X0245305Y0029568D01*
X0245107Y0029371D01*
X0244910Y0029568D01*
X0241760Y0029568D01*
X0241472Y0029856D01*
X0241592Y0030303D01*
X0241592Y0031327D01*
X0238808Y0031327D01*
X0238808Y0031328D01*
X0236024Y0031328D01*
X0236024Y0032352D01*
X0236146Y0032810D01*
X0236383Y0033220D01*
X0236539Y0033376D01*
X0235166Y0033945D01*
X0233945Y0035166D01*
X0233283Y0036763D01*
X0233283Y0038449D01*
X0227651Y0044081D01*
X0227994Y0043254D01*
X0227994Y0041448D01*
X0227302Y0039779D01*
X0226025Y0038502D01*
X0224357Y0037811D01*
X0222550Y0037811D01*
X0220882Y0038502D01*
X0220052Y0039332D01*
X0219713Y0038992D01*
X0216171Y0038992D01*
X0215973Y0039190D01*
X0215776Y0038992D01*
X0212234Y0038992D01*
X0210843Y0040383D01*
X0210843Y0044319D01*
X0210923Y0044399D01*
X0202363Y0052156D01*
X0202563Y0051975D02*
X0198072Y0051975D01*
X0198072Y0050377D02*
X0204327Y0050377D01*
X0206090Y0048778D02*
X0198072Y0048778D01*
X0198072Y0047180D02*
X0207854Y0047180D01*
X0209618Y0045581D02*
X0198072Y0045581D01*
X0198072Y0043983D02*
X0210843Y0043983D01*
X0210843Y0042384D02*
X0198072Y0042384D01*
X0197342Y0040786D02*
X0210843Y0040786D01*
X0212039Y0039187D02*
X0192987Y0039187D01*
X0192785Y0037065D02*
X0191564Y0037065D01*
X0191564Y0034477D01*
X0194348Y0034477D01*
X0194348Y0035502D01*
X0194225Y0035959D01*
X0193988Y0036370D01*
X0193653Y0036705D01*
X0193243Y0036942D01*
X0192785Y0037065D01*
X0191389Y0037589D02*
X0233283Y0037589D01*
X0233603Y0035990D02*
X0194208Y0035990D01*
X0194348Y0034392D02*
X0234720Y0034392D01*
X0236142Y0032793D02*
X0194441Y0032793D01*
X0194923Y0031195D02*
X0207710Y0031195D01*
X0206111Y0029596D02*
X0194923Y0029596D01*
X0194529Y0027998D02*
X0204513Y0027998D01*
X0199931Y0026399D02*
X0194529Y0026399D01*
X0194529Y0024801D02*
X0198715Y0024801D01*
X0198205Y0023202D02*
X0195142Y0023202D01*
X0195317Y0021604D02*
X0198205Y0021604D01*
X0198835Y0020005D02*
X0194914Y0020005D01*
X0207720Y0019726D02*
X0208466Y0021527D01*
X0208466Y0023564D01*
X0209072Y0024170D01*
X0208892Y0023615D01*
X0208780Y0022907D01*
X0208780Y0022732D01*
X0213151Y0022732D01*
X0213151Y0022364D01*
X0208780Y0022364D01*
X0208780Y0022189D01*
X0208892Y0021481D01*
X0209113Y0020799D01*
X0209439Y0020160D01*
X0209754Y0019726D01*
X0207720Y0019726D01*
X0207836Y0020005D02*
X0209552Y0020005D01*
X0208872Y0021604D02*
X0208466Y0021604D01*
X0208466Y0023202D02*
X0208826Y0023202D01*
X0213520Y0022732D02*
X0217891Y0022732D01*
X0217891Y0022907D01*
X0217779Y0023615D01*
X0217558Y0024297D01*
X0217232Y0024936D01*
X0216810Y0025516D01*
X0216303Y0026023D01*
X0215793Y0026394D01*
X0219925Y0026394D01*
X0218986Y0025454D01*
X0218205Y0023569D01*
X0218205Y0021527D01*
X0218951Y0019726D01*
X0216916Y0019726D01*
X0217232Y0020160D01*
X0217558Y0020799D01*
X0217779Y0021481D01*
X0217891Y0022189D01*
X0217891Y0022364D01*
X0213520Y0022364D01*
X0213520Y0022732D01*
X0217301Y0024801D02*
X0218715Y0024801D01*
X0218205Y0023202D02*
X0217845Y0023202D01*
X0217799Y0021604D02*
X0218205Y0021604D01*
X0218835Y0020005D02*
X0217119Y0020005D01*
X0229787Y0031195D02*
X0236024Y0031195D01*
X0235883Y0029596D02*
X0232115Y0029596D01*
X0232858Y0027998D02*
X0234591Y0027998D01*
X0241732Y0029596D02*
X0246562Y0029596D01*
X0248560Y0031195D02*
X0241592Y0031195D01*
X0246416Y0032793D02*
X0250253Y0032793D01*
X0251000Y0034392D02*
X0247546Y0034392D01*
X0247876Y0035990D02*
X0251595Y0035990D01*
X0253407Y0037589D02*
X0247597Y0037589D01*
X0257280Y0037589D02*
X0261348Y0037589D01*
X0259749Y0035990D02*
X0259092Y0035990D01*
X0261065Y0044923D02*
X0261065Y0050126D01*
X0259673Y0051517D01*
X0255147Y0051517D01*
X0253756Y0050126D01*
X0253756Y0049746D01*
X0248811Y0049746D01*
X0248876Y0049988D01*
X0248876Y0051209D01*
X0246288Y0051209D01*
X0243701Y0051209D01*
X0243701Y0049988D01*
X0243766Y0049746D01*
X0243481Y0049746D01*
X0241322Y0051905D01*
X0240488Y0052739D01*
X0239398Y0053191D01*
X0238427Y0053191D01*
X0238427Y0053451D01*
X0238219Y0053953D01*
X0243126Y0053953D01*
X0243126Y0052785D01*
X0243701Y0052210D01*
X0243701Y0051209D01*
X0246288Y0051209D01*
X0246288Y0051209D01*
X0246288Y0051209D01*
X0248876Y0051209D01*
X0248876Y0052210D01*
X0249450Y0052785D01*
X0249450Y0054366D01*
X0249543Y0054404D01*
X0250377Y0055238D01*
X0250377Y0055238D01*
X0254209Y0059071D01*
X0260021Y0059071D01*
X0260356Y0058735D01*
X0261446Y0058283D01*
X0269319Y0058283D01*
X0270409Y0058735D01*
X0271243Y0059569D01*
X0273605Y0061931D01*
X0274057Y0063021D01*
X0274057Y0065764D01*
X0275144Y0065764D01*
X0276813Y0066455D01*
X0278090Y0067732D01*
X0278205Y0068009D01*
X0278205Y0054426D01*
X0278194Y0053863D01*
X0278205Y0053837D01*
X0278205Y0053809D01*
X0278420Y0053289D01*
X0278626Y0052765D01*
X0278645Y0052745D01*
X0278656Y0052719D01*
X0278756Y0052619D01*
X0278756Y0051291D01*
X0279447Y0049622D01*
X0280724Y0048345D01*
X0282393Y0047654D01*
X0284199Y0047654D01*
X0285868Y0048345D01*
X0287145Y0049622D01*
X0287836Y0051291D01*
X0287836Y0053097D01*
X0287145Y0054765D01*
X0285868Y0056043D01*
X0284199Y0056734D01*
X0284135Y0056734D01*
X0284135Y0069033D01*
X0284188Y0069055D01*
X0285687Y0070554D01*
X0286170Y0071721D01*
X0286654Y0070554D01*
X0288152Y0069055D01*
X0290110Y0068244D01*
X0292230Y0068244D01*
X0294188Y0069055D01*
X0295687Y0070554D01*
X0296170Y0071721D01*
X0296654Y0070554D01*
X0298152Y0069055D01*
X0300110Y0068244D01*
X0302230Y0068244D01*
X0304188Y0069055D01*
X0305687Y0070554D01*
X0306498Y0072512D01*
X0306498Y0074631D01*
X0305687Y0076589D01*
X0304188Y0078088D01*
X0303021Y0078572D01*
X0304188Y0079055D01*
X0305687Y0080554D01*
X0306498Y0082512D01*
X0306498Y0084631D01*
X0305687Y0086589D01*
X0304188Y0088088D01*
X0302230Y0088899D01*
X0301572Y0088899D01*
X0297152Y0093318D01*
X0297247Y0093300D01*
X0297402Y0093270D01*
X0297553Y0093240D01*
X0297638Y0093224D01*
X0297880Y0093176D01*
X0298023Y0093148D01*
X0298185Y0093115D01*
X0298354Y0093082D01*
X0298503Y0093052D01*
X0298658Y0093021D01*
X0298814Y0092989D01*
X0298976Y0092957D01*
X0299139Y0092923D01*
X0299289Y0092893D01*
X0299438Y0092862D01*
X0299605Y0092828D01*
X0299761Y0092796D01*
X0299922Y0092762D01*
X0300073Y0092731D01*
X0300236Y0092697D01*
X0300391Y0092664D01*
X0300533Y0092634D01*
X0300708Y0092597D01*
X0300861Y0092565D01*
X0301041Y0092526D01*
X0301173Y0092498D01*
X0301344Y0092461D01*
X0301494Y0092429D01*
X0301634Y0092399D01*
X0301800Y0092362D01*
X0301924Y0092335D01*
X0302124Y0092291D01*
X0302281Y0092257D01*
X0302433Y0092223D01*
X0302585Y0092189D01*
X0302755Y0092152D01*
X0302896Y0092120D01*
X0303070Y0092081D01*
X0303217Y0092048D01*
X0303378Y0092011D01*
X0303534Y0091976D01*
X0303683Y0091942D01*
X0303844Y0091905D01*
X0303985Y0091872D01*
X0304157Y0091832D01*
X0304319Y0091795D01*
X0304467Y0091760D01*
X0304622Y0091724D01*
X0304785Y0091686D01*
X0304947Y0091647D01*
X0305096Y0091612D01*
X0305250Y0091575D01*
X0305410Y0091537D01*
X0305562Y0091501D01*
X0305718Y0091463D01*
X0305874Y0091425D01*
X0306029Y0091388D01*
X0306187Y0091349D01*
X0306344Y0091311D01*
X0306495Y0091273D01*
X0306659Y0091233D01*
X0306804Y0091197D01*
X0306973Y0091155D01*
X0307122Y0091118D01*
X0307267Y0091081D01*
X0307434Y0091039D01*
X0307622Y0090992D01*
X0307746Y0090960D01*
X0307898Y0090921D01*
X0308049Y0090882D01*
X0308204Y0090843D01*
X0308366Y0090801D01*
X0308519Y0090761D01*
X0308675Y0090720D01*
X0308827Y0090681D01*
X0308979Y0090640D01*
X0309137Y0090599D01*
X0309295Y0090557D01*
X0309444Y0090517D01*
X0309600Y0090475D01*
X0309766Y0090431D01*
X0309910Y0090392D01*
X0310069Y0090349D01*
X0310214Y0090309D01*
X0310379Y0090264D01*
X0310529Y0090223D01*
X0310679Y0090182D01*
X0310835Y0090138D01*
X0310998Y0090093D01*
X0311140Y0090054D01*
X0311300Y0090009D01*
X0311447Y0089967D01*
X0311605Y0089922D01*
X0311736Y0089885D01*
X0311912Y0089835D01*
X0312055Y0089794D01*
X0312218Y0089747D01*
X0312375Y0089702D01*
X0312517Y0089660D01*
X0312679Y0089613D01*
X0312813Y0089574D01*
X0312986Y0089523D01*
X0313135Y0089478D01*
X0313286Y0089433D01*
X0313443Y0089387D01*
X0313593Y0089342D01*
X0313737Y0089298D01*
X0313902Y0089248D01*
X0314051Y0089203D01*
X0314204Y0089156D01*
X0314357Y0089109D01*
X0314492Y0089068D01*
X0314659Y0089016D01*
X0314810Y0088969D01*
X0314967Y0088920D01*
X0315116Y0088873D01*
X0315267Y0088825D01*
X0315419Y0088777D01*
X0315569Y0088729D01*
X0315722Y0088681D01*
X0315874Y0088632D01*
X0316026Y0088583D01*
X0316177Y0088533D01*
X0316326Y0088485D01*
X0316478Y0088435D01*
X0316634Y0088384D01*
X0316779Y0088336D01*
X0316929Y0088286D01*
X0317082Y0088235D01*
X0317236Y0088184D01*
X0317387Y0088133D01*
X0317530Y0088085D01*
X0317685Y0088032D01*
X0317834Y0087981D01*
X0317985Y0087930D01*
X0318136Y0087878D01*
X0318285Y0087826D01*
X0318436Y0087773D01*
X0318579Y0087723D01*
X0318736Y0087669D01*
X0318880Y0087618D01*
X0319036Y0087562D01*
X0319184Y0087510D01*
X0319328Y0087458D01*
X0319480Y0087403D01*
X0319630Y0087349D01*
X0319773Y0087297D01*
X0319930Y0087240D01*
X0320064Y0087190D01*
X0320226Y0087130D01*
X0320373Y0087076D01*
X0320521Y0087021D01*
X0320672Y0086964D01*
X0320814Y0086910D01*
X0320970Y0086851D01*
X0321111Y0086798D01*
X0321268Y0086737D01*
X0321410Y0086683D01*
X0321557Y0086626D01*
X0321704Y0086569D01*
X0321853Y0086510D01*
X0321998Y0086453D01*
X0322146Y0086395D01*
X0322293Y0086337D01*
X0322440Y0086277D01*
X0322588Y0086218D01*
X0322733Y0086159D01*
X0322881Y0086099D01*
X0323026Y0086040D01*
X0323173Y0085980D01*
X0323318Y0085920D01*
X0323466Y0085858D01*
X0323610Y0085798D01*
X0323754Y0085737D01*
X0323901Y0085675D01*
X0324048Y0085613D01*
X0324196Y0085550D01*
X0324337Y0085489D01*
X0324477Y0085428D01*
X0324630Y0085362D01*
X0324773Y0085300D01*
X0324919Y0085235D01*
X0325060Y0085173D01*
X0325205Y0085108D01*
X0325352Y0085043D01*
X0325496Y0084978D01*
X0325640Y0084913D01*
X0325782Y0084848D01*
X0325926Y0084782D01*
X0326067Y0084717D01*
X0326215Y0084648D01*
X0326358Y0084582D01*
X0326501Y0084515D01*
X0326642Y0084448D01*
X0326786Y0084380D01*
X0326928Y0084312D01*
X0327071Y0084244D01*
X0327214Y0084175D01*
X0327356Y0084106D01*
X0327499Y0084035D01*
X0327638Y0083967D01*
X0327781Y0083896D01*
X0327923Y0083825D01*
X0328064Y0083754D01*
X0328204Y0083684D01*
X0328343Y0083613D01*
X0328487Y0083539D01*
X0328626Y0083468D01*
X0328769Y0083393D01*
X0328907Y0083321D01*
X0329048Y0083247D01*
X0329184Y0083175D01*
X0329326Y0083099D01*
X0329466Y0083024D01*
X0329605Y0082948D01*
X0329743Y0082873D01*
X0329883Y0082797D01*
X0330018Y0082722D01*
X0330161Y0082643D01*
X0330295Y0082567D01*
X0330437Y0082487D01*
X0330570Y0082411D01*
X0330710Y0082331D01*
X0330847Y0082252D01*
X0330984Y0082173D01*
X0331121Y0082092D01*
X0331255Y0082013D01*
X0331392Y0081932D01*
X0331529Y0081850D01*
X0331660Y0081770D01*
X0331798Y0081687D01*
X0332646Y0081063D01*
X0333968Y0079434D01*
X0334669Y0077457D01*
X0334758Y0076408D01*
X0334758Y0037429D01*
X0334669Y0036380D01*
X0333968Y0034403D01*
X0332646Y0032774D01*
X0331798Y0032150D01*
X0331680Y0032078D01*
X0331561Y0032006D01*
X0331440Y0031934D01*
X0331321Y0031862D01*
X0331203Y0031792D01*
X0331082Y0031721D01*
X0330961Y0031650D01*
X0330842Y0031581D01*
X0330718Y0031509D01*
X0330600Y0031442D01*
X0330478Y0031373D01*
X0330355Y0031303D01*
X0330237Y0031236D01*
X0330113Y0031167D01*
X0329991Y0031100D01*
X0329871Y0031033D01*
X0329746Y0030965D01*
X0329623Y0030897D01*
X0329502Y0030832D01*
X0329379Y0030765D01*
X0329257Y0030700D01*
X0329130Y0030633D01*
X0329011Y0030570D01*
X0328885Y0030503D01*
X0328761Y0030439D01*
X0328638Y0030375D01*
X0328513Y0030311D01*
X0328389Y0030246D01*
X0328266Y0030184D01*
X0328137Y0030119D01*
X0328015Y0030057D01*
X0327888Y0029994D01*
X0327765Y0029932D01*
X0327637Y0029869D01*
X0327512Y0029807D01*
X0327385Y0029745D01*
X0327261Y0029684D01*
X0327135Y0029623D01*
X0327006Y0029561D01*
X0326883Y0029502D01*
X0326756Y0029442D01*
X0326634Y0029384D01*
X0326500Y0029321D01*
X0326375Y0029262D01*
X0326248Y0029203D01*
X0326117Y0029142D01*
X0325990Y0029084D01*
X0325865Y0029026D01*
X0325733Y0028966D01*
X0325609Y0028910D01*
X0325481Y0028852D01*
X0325351Y0028794D01*
X0325209Y0028730D01*
X0325095Y0028679D01*
X0324964Y0028622D01*
X0324836Y0028565D01*
X0324706Y0028508D01*
X0324579Y0028453D01*
X0324446Y0028395D01*
X0324318Y0028340D01*
X0324194Y0028287D01*
X0324059Y0028229D01*
X0323928Y0028173D01*
X0323800Y0028119D01*
X0323666Y0028063D01*
X0323544Y0028012D01*
X0323408Y0027955D01*
X0323279Y0027902D01*
X0323146Y0027847D01*
X0323012Y0027792D01*
X0322886Y0027740D01*
X0322781Y0027698D01*
X0322621Y0027633D01*
X0322497Y0027583D01*
X0322359Y0027528D01*
X0322231Y0027477D01*
X0322088Y0027420D01*
X0321967Y0027372D01*
X0321833Y0027320D01*
X0321704Y0027269D01*
X0321572Y0027218D01*
X0321435Y0027165D01*
X0321306Y0027115D01*
X0321179Y0027066D01*
X0321043Y0027014D01*
X0320909Y0026963D01*
X0320784Y0026916D01*
X0320646Y0026864D01*
X0320516Y0026815D01*
X0320382Y0026765D01*
X0320244Y0026714D01*
X0320118Y0026667D01*
X0319984Y0026618D01*
X0319849Y0026568D01*
X0319716Y0026520D01*
X0319587Y0026473D01*
X0319444Y0026421D01*
X0319320Y0026377D01*
X0319187Y0026329D01*
X0319044Y0026278D01*
X0318926Y0026236D01*
X0318783Y0026185D01*
X0318655Y0026140D01*
X0318518Y0026092D01*
X0318396Y0026049D01*
X0318250Y0025999D01*
X0318119Y0025953D01*
X0317978Y0025905D01*
X0317849Y0025860D01*
X0317722Y0025817D01*
X0317583Y0025770D01*
X0317448Y0025724D01*
X0317312Y0025678D01*
X0317184Y0025635D01*
X0317046Y0025589D01*
X0316904Y0025542D01*
X0316775Y0025499D01*
X0316649Y0025457D01*
X0316507Y0025411D01*
X0316373Y0025366D01*
X0316246Y0025325D01*
X0316098Y0025277D01*
X0315970Y0025235D01*
X0315821Y0025188D01*
X0315702Y0025149D01*
X0315563Y0025105D01*
X0315427Y0025062D01*
X0315296Y0025020D01*
X0315157Y0024976D01*
X0315032Y0024937D01*
X0314890Y0024892D01*
X0314756Y0024850D01*
X0314624Y0024810D01*
X0314479Y0024765D01*
X0314342Y0024723D01*
X0314215Y0024683D01*
X0314067Y0024638D01*
X0313947Y0024602D01*
X0313803Y0024558D01*
X0313670Y0024518D01*
X0313533Y0024477D01*
X0313393Y0024435D01*
X0313259Y0024395D01*
X0313225Y0024385D01*
X0313227Y0024387D01*
X0313369Y0024530D01*
X0313520Y0024893D01*
X0313717Y0025234D01*
X0313743Y0025434D01*
X0313820Y0025620D01*
X0313820Y0026013D01*
X0313872Y0026404D01*
X0313820Y0026598D01*
X0313820Y0041958D01*
X0314411Y0042549D01*
X0314411Y0048453D01*
X0313427Y0049437D01*
X0313427Y0052737D01*
X0314446Y0053756D01*
X0316170Y0053756D01*
X0317561Y0055147D01*
X0317561Y0059083D01*
X0316170Y0060474D01*
X0311053Y0060474D01*
X0309661Y0059083D01*
X0309661Y0057359D01*
X0307948Y0055645D01*
X0307496Y0054555D01*
X0307496Y0049437D01*
X0307208Y0049150D01*
X0306761Y0049269D01*
X0304950Y0049269D01*
X0304950Y0045501D01*
X0304950Y0045501D01*
X0304950Y0049269D01*
X0303138Y0049269D01*
X0302680Y0049147D01*
X0302270Y0048910D01*
X0301934Y0048575D01*
X0301697Y0048164D01*
X0301575Y0047706D01*
X0301575Y0045501D01*
X0304949Y0045501D01*
X0304949Y0045501D01*
X0301575Y0045501D01*
X0301575Y0043295D01*
X0301697Y0042838D01*
X0301934Y0042427D01*
X0302270Y0042092D01*
X0302680Y0041855D01*
X0303138Y0041732D01*
X0304950Y0041732D01*
X0306761Y0041732D01*
X0307208Y0041852D01*
X0307890Y0041171D01*
X0307890Y0031898D01*
X0307224Y0033506D01*
X0305947Y0034783D01*
X0304278Y0035474D01*
X0302472Y0035474D01*
X0300803Y0034783D01*
X0299919Y0033899D01*
X0291195Y0033899D01*
X0291702Y0034407D01*
X0292456Y0034719D01*
X0293290Y0035553D01*
X0295548Y0037811D01*
X0296798Y0037811D01*
X0298466Y0038502D01*
X0299743Y0039779D01*
X0300435Y0041448D01*
X0300435Y0043254D01*
X0299743Y0044923D01*
X0298466Y0046200D01*
X0296798Y0046891D01*
X0294991Y0046891D01*
X0293323Y0046200D01*
X0292046Y0044923D01*
X0291395Y0043353D01*
X0291395Y0044557D01*
X0291273Y0045014D01*
X0291036Y0045425D01*
X0290700Y0045760D01*
X0290290Y0045997D01*
X0289832Y0046120D01*
X0287627Y0046120D01*
X0287627Y0042745D01*
X0287627Y0042745D01*
X0287627Y0046120D01*
X0285421Y0046120D01*
X0284963Y0045997D01*
X0284553Y0045760D01*
X0284218Y0045425D01*
X0283981Y0045014D01*
X0283858Y0044557D01*
X0283858Y0042745D01*
X0287627Y0042745D01*
X0287627Y0042745D01*
X0283858Y0042745D01*
X0283858Y0040933D01*
X0283978Y0040486D01*
X0283283Y0039792D01*
X0283283Y0034675D01*
X0284059Y0033899D01*
X0283737Y0033899D01*
X0282324Y0035312D01*
X0282324Y0039398D01*
X0281873Y0040488D01*
X0281039Y0041322D01*
X0277889Y0044471D01*
X0276799Y0044923D01*
X0268954Y0044923D01*
X0268954Y0046780D01*
X0265875Y0046780D01*
X0265875Y0046780D01*
X0268954Y0046780D01*
X0268954Y0049379D01*
X0268832Y0049837D01*
X0268595Y0050248D01*
X0268260Y0050583D01*
X0267849Y0050820D01*
X0267391Y0050943D01*
X0265875Y0050943D01*
X0265875Y0046780D01*
X0262795Y0046780D01*
X0262795Y0044923D01*
X0261065Y0044923D01*
X0261065Y0045581D02*
X0262795Y0045581D01*
X0262795Y0046780D02*
X0265875Y0046780D01*
X0265875Y0046780D01*
X0265875Y0046780D01*
X0265875Y0050943D01*
X0264358Y0050943D01*
X0263900Y0050820D01*
X0263490Y0050583D01*
X0263155Y0050248D01*
X0262918Y0049837D01*
X0262795Y0049379D01*
X0262795Y0046780D01*
X0262795Y0047180D02*
X0261065Y0047180D01*
X0261065Y0048778D02*
X0262795Y0048778D01*
X0263284Y0050377D02*
X0260814Y0050377D01*
X0265875Y0050377D02*
X0265875Y0050377D01*
X0265875Y0048778D02*
X0265875Y0048778D01*
X0265875Y0047180D02*
X0265875Y0047180D01*
X0268954Y0047180D02*
X0301575Y0047180D01*
X0301575Y0045581D02*
X0299085Y0045581D01*
X0300133Y0043983D02*
X0301575Y0043983D01*
X0301977Y0042384D02*
X0300435Y0042384D01*
X0300160Y0040786D02*
X0307890Y0040786D01*
X0307890Y0039187D02*
X0299151Y0039187D01*
X0295326Y0037589D02*
X0307890Y0037589D01*
X0307890Y0035990D02*
X0293727Y0035990D01*
X0291687Y0034392D02*
X0300412Y0034392D01*
X0306338Y0034392D02*
X0307890Y0034392D01*
X0307890Y0032793D02*
X0307519Y0032793D01*
X0313820Y0032793D02*
X0332662Y0032793D01*
X0333959Y0034392D02*
X0313820Y0034392D01*
X0313820Y0035990D02*
X0334531Y0035990D01*
X0334758Y0037589D02*
X0313820Y0037589D01*
X0313820Y0039187D02*
X0334758Y0039187D01*
X0334758Y0040786D02*
X0313820Y0040786D01*
X0314247Y0042384D02*
X0334758Y0042384D01*
X0334758Y0043983D02*
X0328444Y0043983D01*
X0328978Y0044517D02*
X0328978Y0048059D01*
X0328584Y0048453D01*
X0328584Y0054481D01*
X0328873Y0054601D01*
X0329708Y0055435D01*
X0331479Y0057207D01*
X0331931Y0058297D01*
X0331931Y0063413D01*
X0331479Y0064503D01*
X0330645Y0065338D01*
X0328873Y0067109D01*
X0327784Y0067561D01*
X0327587Y0067561D01*
X0327193Y0067954D01*
X0326933Y0067954D01*
X0327206Y0068613D01*
X0327206Y0070420D01*
X0326515Y0072088D01*
X0325238Y0073365D01*
X0323569Y0074057D01*
X0321763Y0074057D01*
X0320094Y0073365D01*
X0318817Y0072088D01*
X0318742Y0071906D01*
X0318742Y0075225D01*
X0318047Y0075919D01*
X0318167Y0076366D01*
X0318167Y0078178D01*
X0318167Y0079990D01*
X0318044Y0080448D01*
X0317807Y0080858D01*
X0317472Y0081193D01*
X0317062Y0081430D01*
X0316604Y0081553D01*
X0314398Y0081553D01*
X0312193Y0081553D01*
X0311735Y0081430D01*
X0311325Y0081193D01*
X0310990Y0080858D01*
X0310753Y0080448D01*
X0310630Y0079990D01*
X0310630Y0078178D01*
X0314398Y0078178D01*
X0314398Y0078178D01*
X0310630Y0078178D01*
X0310630Y0076366D01*
X0310750Y0075919D01*
X0310055Y0075225D01*
X0310055Y0070108D01*
X0311433Y0068730D01*
X0311433Y0067954D01*
X0311053Y0067954D01*
X0309661Y0066563D01*
X0309661Y0062627D01*
X0311053Y0061236D01*
X0316170Y0061236D01*
X0317561Y0062627D01*
X0317561Y0066563D01*
X0317364Y0066760D01*
X0317364Y0068730D01*
X0318126Y0069492D01*
X0318126Y0068613D01*
X0318817Y0066945D01*
X0320094Y0065668D01*
X0320685Y0065423D01*
X0320685Y0062627D01*
X0321260Y0062053D01*
X0321260Y0060855D01*
X0321260Y0059658D01*
X0320685Y0059083D01*
X0320685Y0055147D01*
X0322076Y0053756D01*
X0322654Y0053756D01*
X0322654Y0048876D01*
X0322076Y0048876D01*
X0322076Y0046288D01*
X0322076Y0043701D01*
X0323076Y0043701D01*
X0323651Y0043126D01*
X0327587Y0043126D01*
X0328978Y0044517D01*
X0328978Y0045581D02*
X0334758Y0045581D01*
X0334758Y0047180D02*
X0328978Y0047180D01*
X0328584Y0048778D02*
X0334758Y0048778D01*
X0334758Y0050377D02*
X0328584Y0050377D01*
X0328584Y0051975D02*
X0334758Y0051975D01*
X0334758Y0053574D02*
X0328584Y0053574D01*
X0329445Y0055172D02*
X0334758Y0055172D01*
X0334758Y0056771D02*
X0331043Y0056771D01*
X0331931Y0058369D02*
X0334758Y0058369D01*
X0334758Y0059968D02*
X0331931Y0059968D01*
X0331931Y0061566D02*
X0334758Y0061566D01*
X0334758Y0063165D02*
X0331931Y0063165D01*
X0331219Y0064763D02*
X0334758Y0064763D01*
X0334758Y0066362D02*
X0329621Y0066362D01*
X0326936Y0067960D02*
X0334758Y0067960D01*
X0334758Y0069559D02*
X0327206Y0069559D01*
X0326901Y0071157D02*
X0334758Y0071157D01*
X0334758Y0072756D02*
X0325847Y0072756D01*
X0319485Y0072756D02*
X0318742Y0072756D01*
X0318742Y0074354D02*
X0334758Y0074354D01*
X0334758Y0075953D02*
X0318056Y0075953D01*
X0318167Y0077551D02*
X0334635Y0077551D01*
X0334068Y0079150D02*
X0318167Y0079150D01*
X0318167Y0078178D02*
X0314399Y0078178D01*
X0314399Y0078178D01*
X0318167Y0078178D01*
X0317870Y0080748D02*
X0332901Y0080748D01*
X0330682Y0082347D02*
X0306429Y0082347D01*
X0306498Y0083946D02*
X0327681Y0083946D01*
X0324209Y0085544D02*
X0306120Y0085544D01*
X0305133Y0087143D02*
X0320193Y0087143D01*
X0315532Y0088741D02*
X0302612Y0088741D01*
X0300131Y0090340D02*
X0310103Y0090340D01*
X0303698Y0091938D02*
X0298533Y0091938D01*
X0293342Y0088741D02*
X0292612Y0088741D01*
X0289729Y0088741D02*
X0274824Y0088741D01*
X0278020Y0087143D02*
X0262596Y0087143D01*
X0261291Y0085544D02*
X0260998Y0085544D01*
X0260062Y0083946D02*
X0259399Y0083946D01*
X0259661Y0082347D02*
X0258702Y0082347D01*
X0258723Y0080748D02*
X0258184Y0080748D01*
X0257125Y0079150D02*
X0256831Y0079150D01*
X0268140Y0080748D02*
X0277346Y0080748D01*
X0276571Y0082347D02*
X0268348Y0082347D01*
X0267948Y0083946D02*
X0276417Y0083946D01*
X0276841Y0085544D02*
X0266718Y0085544D01*
X0271537Y0079150D02*
X0279398Y0079150D01*
X0277616Y0077551D02*
X0272481Y0077551D01*
X0272679Y0075953D02*
X0276390Y0075953D01*
X0278184Y0067960D02*
X0278205Y0067960D01*
X0278205Y0066362D02*
X0276588Y0066362D01*
X0278205Y0064763D02*
X0274057Y0064763D01*
X0274057Y0063165D02*
X0278205Y0063165D01*
X0278205Y0061566D02*
X0273240Y0061566D01*
X0271642Y0059968D02*
X0278205Y0059968D01*
X0278205Y0058369D02*
X0269526Y0058369D01*
X0261239Y0058369D02*
X0253508Y0058369D01*
X0251909Y0056771D02*
X0278205Y0056771D01*
X0278205Y0055172D02*
X0250311Y0055172D01*
X0249450Y0053574D02*
X0278302Y0053574D01*
X0278756Y0051975D02*
X0248876Y0051975D01*
X0248876Y0050377D02*
X0254006Y0050377D01*
X0243701Y0050377D02*
X0242850Y0050377D01*
X0243701Y0051975D02*
X0241251Y0051975D01*
X0243126Y0053574D02*
X0238376Y0053574D01*
X0227749Y0043983D02*
X0227692Y0043983D01*
X0227994Y0042384D02*
X0229348Y0042384D01*
X0230946Y0040786D02*
X0227719Y0040786D01*
X0226710Y0039187D02*
X0232545Y0039187D01*
X0224552Y0047180D02*
X0216610Y0047180D01*
X0214922Y0048778D02*
X0222954Y0048778D01*
X0221077Y0050377D02*
X0213158Y0050377D01*
X0211394Y0051975D02*
X0219478Y0051975D01*
X0219842Y0045581D02*
X0220263Y0045581D01*
X0220197Y0039187D02*
X0219908Y0039187D01*
X0215976Y0039187D02*
X0215971Y0039187D01*
X0198134Y0053574D02*
X0198072Y0053574D01*
X0181869Y0040786D02*
X0179433Y0040786D01*
X0191564Y0035990D02*
X0191564Y0035990D01*
X0191564Y0034477D02*
X0191564Y0034477D01*
X0157949Y0083946D02*
X0142008Y0083946D01*
X0147556Y0085544D02*
X0161827Y0085544D01*
X0161827Y0087143D02*
X0153104Y0087143D01*
X0124184Y0087143D02*
X0116482Y0087143D01*
X0121139Y0088741D02*
X0124031Y0088741D01*
X0268466Y0050377D02*
X0279134Y0050377D01*
X0280291Y0048778D02*
X0268954Y0048778D01*
X0268954Y0045581D02*
X0284374Y0045581D01*
X0283858Y0043983D02*
X0278378Y0043983D01*
X0279976Y0042384D02*
X0283858Y0042384D01*
X0283898Y0040786D02*
X0281575Y0040786D01*
X0282324Y0039187D02*
X0283283Y0039187D01*
X0283283Y0037589D02*
X0282324Y0037589D01*
X0282324Y0035990D02*
X0283283Y0035990D01*
X0283244Y0034392D02*
X0283566Y0034392D01*
X0287627Y0043983D02*
X0287627Y0043983D01*
X0287627Y0045581D02*
X0287627Y0045581D01*
X0290879Y0045581D02*
X0292704Y0045581D01*
X0291656Y0043983D02*
X0291395Y0043983D01*
X0286301Y0048778D02*
X0302138Y0048778D01*
X0304950Y0048778D02*
X0304950Y0048778D01*
X0304950Y0047180D02*
X0304950Y0047180D01*
X0304950Y0045581D02*
X0304950Y0045581D01*
X0304950Y0045501D02*
X0304950Y0041732D01*
X0304950Y0045501D01*
X0304950Y0045501D01*
X0304950Y0043983D02*
X0304950Y0043983D01*
X0304950Y0042384D02*
X0304950Y0042384D01*
X0314086Y0048778D02*
X0320491Y0048778D01*
X0320397Y0048753D02*
X0319986Y0048516D01*
X0319651Y0048181D01*
X0319414Y0047770D01*
X0319291Y0047313D01*
X0319291Y0046288D01*
X0319291Y0045264D01*
X0319414Y0044806D01*
X0319651Y0044396D01*
X0319986Y0044060D01*
X0320397Y0043823D01*
X0320854Y0043701D01*
X0322076Y0043701D01*
X0322076Y0046288D01*
X0322076Y0046288D01*
X0322076Y0046288D01*
X0322075Y0046288D02*
X0319291Y0046288D01*
X0322075Y0046288D01*
X0322075Y0046288D01*
X0322076Y0046288D02*
X0322076Y0048876D01*
X0320854Y0048876D01*
X0320397Y0048753D01*
X0322076Y0048778D02*
X0322076Y0048778D01*
X0322076Y0047180D02*
X0322076Y0047180D01*
X0322076Y0045581D02*
X0322076Y0045581D01*
X0322076Y0043983D02*
X0322076Y0043983D01*
X0320121Y0043983D02*
X0314411Y0043983D01*
X0314411Y0045581D02*
X0319291Y0045581D01*
X0319291Y0047180D02*
X0314411Y0047180D01*
X0313427Y0050377D02*
X0322654Y0050377D01*
X0322654Y0051975D02*
X0313427Y0051975D01*
X0314263Y0053574D02*
X0322654Y0053574D01*
X0320685Y0055172D02*
X0317561Y0055172D01*
X0317561Y0056771D02*
X0320685Y0056771D01*
X0320685Y0058369D02*
X0317561Y0058369D01*
X0316676Y0059968D02*
X0321260Y0059968D01*
X0321260Y0060855D02*
X0324635Y0060855D01*
X0324635Y0060855D01*
X0321260Y0060855D01*
X0321260Y0061566D02*
X0316500Y0061566D01*
X0317561Y0063165D02*
X0320685Y0063165D01*
X0320685Y0064763D02*
X0317561Y0064763D01*
X0317561Y0066362D02*
X0319400Y0066362D01*
X0318396Y0067960D02*
X0317364Y0067960D01*
X0311433Y0067960D02*
X0284135Y0067960D01*
X0284135Y0066362D02*
X0309661Y0066362D01*
X0309661Y0064763D02*
X0284135Y0064763D01*
X0284135Y0063165D02*
X0309661Y0063165D01*
X0310722Y0061566D02*
X0284135Y0061566D01*
X0284135Y0059968D02*
X0294398Y0059968D01*
X0294782Y0060351D02*
X0293642Y0059212D01*
X0293026Y0057724D01*
X0293026Y0056113D01*
X0293642Y0054624D01*
X0294782Y0053485D01*
X0296270Y0052869D01*
X0297881Y0052869D01*
X0299370Y0053485D01*
X0300509Y0054624D01*
X0301125Y0056113D01*
X0301125Y0057724D01*
X0300509Y0059212D01*
X0299370Y0060351D01*
X0297881Y0060968D01*
X0296270Y0060968D01*
X0294782Y0060351D01*
X0293293Y0058369D02*
X0284135Y0058369D01*
X0284135Y0056771D02*
X0293026Y0056771D01*
X0293415Y0055172D02*
X0286738Y0055172D01*
X0287639Y0053574D02*
X0294693Y0053574D01*
X0299458Y0053574D02*
X0307496Y0053574D01*
X0307496Y0051975D02*
X0287836Y0051975D01*
X0287458Y0050377D02*
X0307496Y0050377D01*
X0307752Y0055172D02*
X0300736Y0055172D01*
X0301125Y0056771D02*
X0309073Y0056771D01*
X0309661Y0058369D02*
X0300858Y0058369D01*
X0299753Y0059968D02*
X0310546Y0059968D01*
X0310604Y0069559D02*
X0304692Y0069559D01*
X0305937Y0071157D02*
X0310055Y0071157D01*
X0310055Y0072756D02*
X0306498Y0072756D01*
X0306498Y0074354D02*
X0310055Y0074354D01*
X0310741Y0075953D02*
X0305950Y0075953D01*
X0304725Y0077551D02*
X0310630Y0077551D01*
X0310630Y0079150D02*
X0304283Y0079150D01*
X0305767Y0080748D02*
X0310926Y0080748D01*
X0314398Y0080748D02*
X0314398Y0080748D01*
X0314398Y0081553D02*
X0314398Y0078178D01*
X0314398Y0078178D01*
X0314398Y0081553D01*
X0314398Y0079150D02*
X0314398Y0079150D01*
X0297648Y0069559D02*
X0294692Y0069559D01*
X0295937Y0071157D02*
X0296404Y0071157D01*
X0287648Y0069559D02*
X0284692Y0069559D01*
X0285937Y0071157D02*
X0286404Y0071157D01*
X0281354Y0083946D02*
X0280986Y0083946D01*
X0280986Y0085544D02*
X0281354Y0085544D01*
X0281354Y0087143D02*
X0280986Y0087143D01*
X0284321Y0087143D02*
X0287207Y0087143D01*
X0286221Y0085544D02*
X0285499Y0085544D01*
X0313820Y0031195D02*
X0330162Y0031195D01*
X0327078Y0029596D02*
X0313820Y0029596D01*
X0313820Y0027998D02*
X0323510Y0027998D01*
X0319383Y0026399D02*
X0313872Y0026399D01*
X0313481Y0024801D02*
X0314595Y0024801D01*
D27*
X0320304Y0032902D03*
X0303375Y0030934D03*
X0299044Y0037233D03*
X0295894Y0042351D03*
X0283296Y0052194D03*
X0274241Y0070304D03*
X0255737Y0056918D03*
X0235265Y0066367D03*
X0228965Y0064005D03*
X0228572Y0056918D03*
X0220304Y0047863D03*
X0223454Y0042351D03*
X0203375Y0039989D03*
X0204556Y0030146D03*
X0190776Y0021879D03*
X0182115Y0017548D03*
X0171879Y0022272D03*
X0171879Y0028965D03*
X0171485Y0043532D03*
X0201800Y0049438D03*
X0208099Y0065580D03*
X0196288Y0067154D03*
X0149831Y0068335D03*
X0122272Y0056131D03*
X0127784Y0026997D03*
X0128572Y0088414D03*
X0245501Y0080540D03*
X0254162Y0082902D03*
X0267942Y0086446D03*
X0269910Y0094713D03*
X0309280Y0083690D03*
X0322666Y0069517D03*
X0307312Y0066761D03*
X0258887Y0022666D03*
D28*
X0259280Y0023060D01*
X0299044Y0023060D01*
X0310855Y0026209D01*
X0310855Y0045107D01*
X0310461Y0045501D01*
X0310461Y0053965D01*
X0313611Y0057115D01*
X0313611Y0064595D02*
X0314398Y0065383D01*
X0314398Y0072666D01*
X0322666Y0069517D02*
X0324635Y0064595D01*
X0327194Y0064595D01*
X0328965Y0062824D01*
X0328965Y0058887D01*
X0327194Y0057115D01*
X0324635Y0057115D01*
X0325619Y0056131D01*
X0325619Y0046288D01*
X0303375Y0030934D02*
X0282509Y0030934D01*
X0279359Y0034083D01*
X0279359Y0038808D01*
X0276209Y0041957D01*
X0245894Y0041957D01*
X0243926Y0042351D01*
X0242253Y0046780D02*
X0238808Y0050225D01*
X0236446Y0050225D01*
X0234083Y0052587D01*
X0229753Y0051013D02*
X0229753Y0055737D01*
X0228572Y0056918D01*
X0246682Y0056918D01*
X0246288Y0056524D01*
X0246288Y0054753D01*
X0246682Y0056918D02*
X0247863Y0056918D01*
X0252981Y0062036D01*
X0261249Y0062036D01*
X0262036Y0061249D01*
X0268729Y0061249D01*
X0271091Y0063611D01*
X0271091Y0067154D01*
X0274241Y0070304D01*
X0281170Y0073572D02*
X0281170Y0054398D01*
X0283296Y0052194D01*
X0295894Y0042351D02*
X0290776Y0037233D01*
X0287627Y0037233D01*
X0270698Y0035658D02*
X0263611Y0035658D01*
X0244713Y0016761D01*
X0184871Y0016761D01*
X0184083Y0017548D01*
X0182115Y0017548D01*
X0180540Y0023690D02*
X0176603Y0026839D01*
X0174635Y0027784D01*
X0174241Y0028572D01*
X0171879Y0028965D01*
X0165973Y0030934D02*
X0165973Y0022666D01*
X0162430Y0019123D01*
X0150619Y0019123D01*
X0140383Y0020698D01*
X0127784Y0026997D01*
X0132509Y0037233D02*
X0138414Y0031328D01*
X0148650Y0031328D01*
X0152587Y0027391D01*
X0157706Y0027391D01*
X0169517Y0039202D01*
X0176367Y0039202D01*
X0180540Y0036603D01*
X0186839Y0037233D02*
X0186839Y0033296D01*
X0184083Y0030540D01*
X0178572Y0030540D01*
X0173060Y0036052D01*
X0171091Y0036052D01*
X0165973Y0030934D01*
X0165973Y0022666D02*
X0171485Y0022666D01*
X0171879Y0022272D01*
X0180540Y0023690D02*
X0188965Y0023690D01*
X0190776Y0021879D01*
X0191564Y0022666D01*
X0191564Y0030540D01*
X0186839Y0037233D02*
X0192351Y0042745D01*
X0195107Y0042745D01*
X0195107Y0056524D01*
X0202587Y0064005D01*
X0202587Y0067942D01*
X0204556Y0069910D01*
X0215580Y0069910D01*
X0216761Y0068729D01*
X0219910Y0063611D02*
X0222666Y0065973D01*
X0225816Y0069123D01*
X0232509Y0069123D01*
X0235265Y0066367D01*
X0228965Y0064005D02*
X0225028Y0062430D01*
X0220698Y0058099D01*
X0220698Y0054950D01*
X0223454Y0052194D01*
X0229753Y0051013D02*
X0243532Y0037233D01*
X0243532Y0036052D01*
X0238808Y0027391D02*
X0238414Y0026997D01*
X0238414Y0026209D01*
X0243139Y0026209D01*
X0247076Y0026209D02*
X0251013Y0029359D01*
X0255343Y0033690D01*
X0238414Y0026209D02*
X0236997Y0026209D01*
X0233335Y0022548D01*
X0228572Y0026997D02*
X0226209Y0029359D01*
X0210068Y0029359D01*
X0203335Y0022627D01*
X0203335Y0022548D01*
X0214005Y0042351D02*
X0214123Y0045501D01*
X0201524Y0056918D01*
X0196288Y0062430D02*
X0190383Y0056524D01*
X0187233Y0056524D01*
X0183296Y0052587D01*
X0183296Y0051013D01*
X0180146Y0047863D01*
X0166761Y0047863D01*
X0160461Y0047076D01*
X0159379Y0050816D02*
X0165481Y0056918D01*
X0168729Y0056918D01*
X0169910Y0058099D01*
X0169910Y0060166D01*
X0172469Y0060166D02*
X0172469Y0072469D01*
X0175028Y0075028D01*
X0177784Y0075028D01*
X0177784Y0071485D02*
X0175028Y0068729D01*
X0175028Y0060166D01*
X0180146Y0060166D02*
X0180146Y0054162D01*
X0178670Y0052686D01*
X0175028Y0052686D01*
X0168040Y0052686D01*
X0167154Y0052194D01*
X0168335Y0052587D02*
X0168434Y0052686D01*
X0159379Y0050816D02*
X0151800Y0050816D01*
X0149241Y0050816D01*
X0144713Y0046288D01*
X0144713Y0041170D01*
X0147469Y0038414D01*
X0155737Y0038414D01*
X0132509Y0037233D02*
X0121879Y0037233D01*
X0180146Y0060166D02*
X0181131Y0061150D01*
X0186052Y0061150D01*
X0196288Y0062430D02*
X0196288Y0067154D01*
X0208099Y0065580D02*
X0208887Y0064792D01*
X0208099Y0065580D02*
X0210068Y0063611D01*
X0215973Y0063611D01*
X0228572Y0056918D02*
X0232312Y0056918D01*
X0242253Y0046780D02*
X0257410Y0046780D01*
X0223454Y0042351D02*
X0217942Y0042351D01*
X0188808Y0047863D02*
X0188808Y0052194D01*
X0188808Y0047863D02*
X0184871Y0043926D01*
X0210461Y0079359D02*
X0210068Y0090383D01*
X0210855Y0091564D01*
X0215186Y0091170D02*
X0217154Y0093139D01*
X0215186Y0091170D02*
X0215580Y0081721D01*
X0221091Y0080146D02*
X0221091Y0079359D01*
X0221091Y0080146D02*
X0228965Y0088020D01*
X0249044Y0088020D01*
X0254162Y0082902D01*
X0262036Y0090776D01*
X0272666Y0090776D01*
X0275028Y0093139D01*
X0293139Y0093139D01*
X0301170Y0085107D01*
X0301170Y0083572D01*
X0269910Y0094713D02*
X0248650Y0097863D01*
X0188020Y0097863D01*
X0154162Y0094713D01*
X0128572Y0088414D01*
X0160855Y0081721D02*
X0161249Y0082115D01*
X0165186Y0082115D01*
X0166170Y0082115D01*
X0169517Y0082312D01*
X0196091Y0082312D01*
X0201013Y0086052D01*
X0169517Y0085855D02*
X0169517Y0092351D01*
X0169517Y0085855D02*
X0165383Y0085855D01*
X0165186Y0086052D01*
X0244713Y0080540D02*
X0245501Y0080540D01*
D29*
X0195894Y0092351D02*
X0169517Y0092351D01*
X0168729Y0092351D01*
X0154950Y0091170D01*
X0131721Y0084477D01*
X0123847Y0081328D01*
X0117548Y0073060D01*
X0117548Y0056918D01*
X0116367Y0058099D01*
X0111249Y0058099D01*
X0117548Y0056918D02*
X0117548Y0041564D01*
X0121879Y0037233D01*
D30*
X0181721Y0071485D02*
X0182902Y0071485D01*
X0184083Y0072666D01*
X0264792Y0072666D01*
X0268335Y0076209D01*
X0264005Y0082115D02*
X0256918Y0075028D01*
X0181721Y0075028D01*
X0223454Y0052194D02*
X0237627Y0038020D01*
X0237627Y0037627D01*
M02*
