G75*
%MOIN*%
%OFA0B0*%
%FSLAX25Y25*%
%IPPOS*%
%LPD*%
%AMOC8*
5,1,8,0,0,1.08239X$1,22.5*
%
%ADD10R,0.03150X0.04724*%
%ADD11R,0.03937X0.02165*%
%ADD12OC8,0.05906*%
%ADD13R,0.01575X0.01969*%
%ADD14R,0.02165X0.03937*%
%ADD15R,0.01969X0.01575*%
%ADD16R,0.03937X0.03150*%
%ADD17R,0.03602X0.04803*%
%ADD18C,0.05906*%
%ADD19R,0.03543X0.05906*%
%ADD20R,0.04724X0.03937*%
%ADD21R,0.15748X0.15748*%
%ADD22R,0.04331X0.01181*%
%ADD23R,0.00886X0.00886*%
%ADD24OC8,0.04775*%
%ADD25R,0.10236X0.05512*%
%ADD26C,0.03937*%
%ADD27C,0.03543*%
%ADD28C,0.03937*%
%ADD29C,0.05512*%
%ADD30C,0.01600*%
%ADD31C,0.04331*%
%ADD32C,0.01181*%
%ADD33C,0.01969*%
%ADD34C,0.00787*%
D10*
X0131918Y0034871D03*
X0139398Y0034871D03*
X0135658Y0043532D03*
X0177981Y0030934D03*
X0185461Y0030934D03*
X0190580Y0030934D03*
X0198060Y0030934D03*
X0194320Y0039595D03*
X0181721Y0039595D03*
X0226603Y0081328D03*
X0238808Y0081328D03*
X0242548Y0089989D03*
X0235068Y0089989D03*
X0230343Y0089989D03*
X0222863Y0089989D03*
D11*
X0158887Y0031524D03*
X0148650Y0031524D03*
X0148650Y0027784D03*
X0148650Y0024044D03*
X0158887Y0024044D03*
D12*
X0141170Y0076997D03*
X0133296Y0076997D03*
D13*
X0133690Y0029359D03*
X0137627Y0029359D03*
X0162824Y0022666D03*
X0166761Y0022666D03*
X0177784Y0023060D03*
X0181721Y0023060D03*
G36*
X0232159Y0035405D02*
X0231046Y0036518D01*
X0232437Y0037909D01*
X0233550Y0036796D01*
X0232159Y0035405D01*
G37*
G36*
X0234943Y0032621D02*
X0233830Y0033734D01*
X0235221Y0035125D01*
X0236334Y0034012D01*
X0234943Y0032621D01*
G37*
X0272272Y0030737D03*
X0272272Y0027194D03*
X0295107Y0027587D03*
X0295107Y0031131D03*
X0238414Y0070894D03*
X0238414Y0074438D03*
X0252194Y0087036D03*
X0252194Y0090580D03*
X0240383Y0095107D03*
X0236446Y0095107D03*
X0273060Y0085855D03*
X0273060Y0082312D03*
D14*
X0196485Y0083690D03*
X0192745Y0083690D03*
X0189005Y0083690D03*
X0189005Y0073454D03*
X0196485Y0073454D03*
D15*
X0201406Y0070698D03*
X0201406Y0066761D03*
X0221288Y0072272D03*
X0224831Y0072272D03*
X0163808Y0039595D03*
X0160265Y0039595D03*
X0126800Y0031721D03*
X0123257Y0031721D03*
D16*
X0194320Y0055737D03*
X0194320Y0061249D03*
X0204950Y0075422D03*
X0204950Y0080934D03*
X0288808Y0047863D03*
X0288808Y0042351D03*
D17*
X0199989Y0092351D03*
X0187076Y0092351D03*
D18*
X0281170Y0083572D03*
X0291170Y0083572D03*
X0301170Y0083572D03*
X0301170Y0073572D03*
X0291170Y0073572D03*
X0281170Y0073572D03*
D19*
X0316170Y0066564D03*
X0329162Y0066564D03*
X0329162Y0047272D03*
X0316170Y0047272D03*
X0120501Y0047272D03*
X0107509Y0047272D03*
X0107509Y0066564D03*
X0120501Y0066564D03*
D20*
X0277391Y0033296D03*
X0277391Y0025422D03*
X0289202Y0025422D03*
X0289202Y0033296D03*
D21*
G36*
X0244602Y0056918D02*
X0255737Y0068053D01*
X0266872Y0056918D01*
X0255737Y0045783D01*
X0244602Y0056918D01*
G37*
D22*
G36*
X0242374Y0053855D02*
X0239313Y0050794D01*
X0238478Y0051629D01*
X0241539Y0054690D01*
X0242374Y0053855D01*
G37*
G36*
X0243766Y0052463D02*
X0240705Y0049402D01*
X0239870Y0050237D01*
X0242931Y0053298D01*
X0243766Y0052463D01*
G37*
G36*
X0245158Y0051071D02*
X0242097Y0048010D01*
X0241262Y0048845D01*
X0244323Y0051906D01*
X0245158Y0051071D01*
G37*
G36*
X0246549Y0049679D02*
X0243488Y0046618D01*
X0242653Y0047453D01*
X0245714Y0050514D01*
X0246549Y0049679D01*
G37*
G36*
X0247941Y0048288D02*
X0244880Y0045227D01*
X0244045Y0046062D01*
X0247106Y0049123D01*
X0247941Y0048288D01*
G37*
G36*
X0249333Y0046896D02*
X0246272Y0043835D01*
X0245437Y0044670D01*
X0248498Y0047731D01*
X0249333Y0046896D01*
G37*
G36*
X0250725Y0045504D02*
X0247664Y0042443D01*
X0246829Y0043278D01*
X0249890Y0046339D01*
X0250725Y0045504D01*
G37*
G36*
X0252117Y0044112D02*
X0249056Y0041051D01*
X0248221Y0041886D01*
X0251282Y0044947D01*
X0252117Y0044112D01*
G37*
G36*
X0253509Y0042720D02*
X0250448Y0039659D01*
X0249613Y0040494D01*
X0252674Y0043555D01*
X0253509Y0042720D01*
G37*
G36*
X0254901Y0041328D02*
X0251840Y0038267D01*
X0251005Y0039102D01*
X0254066Y0042163D01*
X0254901Y0041328D01*
G37*
G36*
X0257408Y0042163D02*
X0260469Y0039102D01*
X0259634Y0038267D01*
X0256573Y0041328D01*
X0257408Y0042163D01*
G37*
G36*
X0258800Y0043555D02*
X0261861Y0040494D01*
X0261026Y0039659D01*
X0257965Y0042720D01*
X0258800Y0043555D01*
G37*
G36*
X0260192Y0044947D02*
X0263253Y0041886D01*
X0262418Y0041051D01*
X0259357Y0044112D01*
X0260192Y0044947D01*
G37*
G36*
X0261584Y0046339D02*
X0264645Y0043278D01*
X0263810Y0042443D01*
X0260749Y0045504D01*
X0261584Y0046339D01*
G37*
G36*
X0262976Y0047731D02*
X0266037Y0044670D01*
X0265202Y0043835D01*
X0262141Y0046896D01*
X0262976Y0047731D01*
G37*
G36*
X0264368Y0049123D02*
X0267429Y0046062D01*
X0266594Y0045227D01*
X0263533Y0048288D01*
X0264368Y0049123D01*
G37*
G36*
X0265760Y0050514D02*
X0268821Y0047453D01*
X0267986Y0046618D01*
X0264925Y0049679D01*
X0265760Y0050514D01*
G37*
G36*
X0267151Y0051906D02*
X0270212Y0048845D01*
X0269377Y0048010D01*
X0266316Y0051071D01*
X0267151Y0051906D01*
G37*
G36*
X0268543Y0053298D02*
X0271604Y0050237D01*
X0270769Y0049402D01*
X0267708Y0052463D01*
X0268543Y0053298D01*
G37*
G36*
X0269935Y0054690D02*
X0272996Y0051629D01*
X0272161Y0050794D01*
X0269100Y0053855D01*
X0269935Y0054690D01*
G37*
G36*
X0271327Y0056082D02*
X0274388Y0053021D01*
X0273553Y0052186D01*
X0270492Y0055247D01*
X0271327Y0056082D01*
G37*
G36*
X0270492Y0058589D02*
X0273553Y0061650D01*
X0274388Y0060815D01*
X0271327Y0057754D01*
X0270492Y0058589D01*
G37*
G36*
X0269100Y0059981D02*
X0272161Y0063042D01*
X0272996Y0062207D01*
X0269935Y0059146D01*
X0269100Y0059981D01*
G37*
G36*
X0267708Y0061373D02*
X0270769Y0064434D01*
X0271604Y0063599D01*
X0268543Y0060538D01*
X0267708Y0061373D01*
G37*
G36*
X0266316Y0062765D02*
X0269377Y0065826D01*
X0270212Y0064991D01*
X0267151Y0061930D01*
X0266316Y0062765D01*
G37*
G36*
X0264925Y0064157D02*
X0267986Y0067218D01*
X0268821Y0066383D01*
X0265760Y0063322D01*
X0264925Y0064157D01*
G37*
G36*
X0263533Y0065549D02*
X0266594Y0068610D01*
X0267429Y0067775D01*
X0264368Y0064714D01*
X0263533Y0065549D01*
G37*
G36*
X0262141Y0066941D02*
X0265202Y0070002D01*
X0266037Y0069167D01*
X0262976Y0066106D01*
X0262141Y0066941D01*
G37*
G36*
X0260749Y0068333D02*
X0263810Y0071394D01*
X0264645Y0070559D01*
X0261584Y0067498D01*
X0260749Y0068333D01*
G37*
G36*
X0259357Y0069725D02*
X0262418Y0072786D01*
X0263253Y0071951D01*
X0260192Y0068890D01*
X0259357Y0069725D01*
G37*
G36*
X0257965Y0071116D02*
X0261026Y0074177D01*
X0261861Y0073342D01*
X0258800Y0070281D01*
X0257965Y0071116D01*
G37*
G36*
X0256573Y0072508D02*
X0259634Y0075569D01*
X0260469Y0074734D01*
X0257408Y0071673D01*
X0256573Y0072508D01*
G37*
G36*
X0254066Y0071673D02*
X0251005Y0074734D01*
X0251840Y0075569D01*
X0254901Y0072508D01*
X0254066Y0071673D01*
G37*
G36*
X0252674Y0070281D02*
X0249613Y0073342D01*
X0250448Y0074177D01*
X0253509Y0071116D01*
X0252674Y0070281D01*
G37*
G36*
X0251282Y0068890D02*
X0248221Y0071951D01*
X0249056Y0072786D01*
X0252117Y0069725D01*
X0251282Y0068890D01*
G37*
G36*
X0249890Y0067498D02*
X0246829Y0070559D01*
X0247664Y0071394D01*
X0250725Y0068333D01*
X0249890Y0067498D01*
G37*
G36*
X0248498Y0066106D02*
X0245437Y0069167D01*
X0246272Y0070002D01*
X0249333Y0066941D01*
X0248498Y0066106D01*
G37*
G36*
X0247106Y0064714D02*
X0244045Y0067775D01*
X0244880Y0068610D01*
X0247941Y0065549D01*
X0247106Y0064714D01*
G37*
G36*
X0245714Y0063322D02*
X0242653Y0066383D01*
X0243488Y0067218D01*
X0246549Y0064157D01*
X0245714Y0063322D01*
G37*
G36*
X0244323Y0061930D02*
X0241262Y0064991D01*
X0242097Y0065826D01*
X0245158Y0062765D01*
X0244323Y0061930D01*
G37*
G36*
X0242931Y0060538D02*
X0239870Y0063599D01*
X0240705Y0064434D01*
X0243766Y0061373D01*
X0242931Y0060538D01*
G37*
G36*
X0241539Y0059146D02*
X0238478Y0062207D01*
X0239313Y0063042D01*
X0242374Y0059981D01*
X0241539Y0059146D01*
G37*
G36*
X0240147Y0057754D02*
X0237086Y0060815D01*
X0237921Y0061650D01*
X0240982Y0058589D01*
X0240147Y0057754D01*
G37*
G36*
X0240982Y0055247D02*
X0237921Y0052186D01*
X0237086Y0053021D01*
X0240147Y0056082D01*
X0240982Y0055247D01*
G37*
D23*
G36*
X0255111Y0074526D02*
X0255737Y0075152D01*
X0256363Y0074526D01*
X0255737Y0073900D01*
X0255111Y0074526D01*
G37*
D24*
X0211524Y0056918D03*
X0201524Y0056918D03*
D25*
X0169123Y0069320D03*
X0169123Y0091761D03*
D26*
X0165973Y0061150D02*
X0162036Y0061150D01*
X0173060Y0052686D02*
X0176997Y0052686D01*
X0184083Y0061150D02*
X0188020Y0061150D01*
D27*
X0186052Y0061150D03*
X0164005Y0061150D03*
D28*
X0164398Y0061150D03*
X0164792Y0061150D03*
X0165186Y0061150D03*
X0165580Y0061150D03*
X0163611Y0061150D03*
X0163217Y0061150D03*
X0162824Y0061150D03*
X0162430Y0061150D03*
X0158887Y0056524D03*
X0167154Y0052194D03*
X0173060Y0052686D03*
X0173454Y0052686D03*
X0173847Y0052686D03*
X0174241Y0052686D03*
X0174635Y0052686D03*
X0175028Y0052686D03*
X0175422Y0052686D03*
X0175816Y0052686D03*
X0176209Y0052686D03*
X0176603Y0052686D03*
X0176997Y0052686D03*
X0184477Y0061150D03*
X0184871Y0061150D03*
X0185265Y0061150D03*
X0185658Y0061150D03*
X0186446Y0061150D03*
X0186839Y0061150D03*
X0187233Y0061150D03*
X0187627Y0061150D03*
X0188808Y0052194D03*
X0184871Y0043926D03*
X0195894Y0024635D03*
X0228572Y0026997D03*
X0237627Y0037627D03*
X0243532Y0036052D03*
X0247076Y0031328D03*
X0255343Y0033690D03*
X0243926Y0042351D03*
X0234083Y0052587D03*
X0216761Y0068729D03*
X0221091Y0079359D03*
X0215580Y0081721D03*
X0210461Y0079359D03*
X0201013Y0086052D03*
X0210855Y0091564D03*
X0205737Y0093926D03*
X0217154Y0093139D03*
X0231721Y0080540D03*
X0264005Y0082115D03*
X0268335Y0076209D03*
X0270698Y0035658D03*
X0195894Y0092351D03*
X0155737Y0038414D03*
X0143139Y0024241D03*
D29*
X0121879Y0037233D03*
X0114005Y0037233D03*
X0106131Y0037233D03*
X0203335Y0022548D03*
X0213335Y0022548D03*
X0223335Y0022548D03*
X0233335Y0022548D03*
D30*
X0105110Y0032102D02*
X0104715Y0032266D01*
X0104873Y0032150D01*
X0105011Y0032066D01*
X0105143Y0031986D01*
X0105279Y0031905D01*
X0105416Y0031823D01*
X0105550Y0031744D01*
X0105687Y0031663D01*
X0105824Y0031584D01*
X0105961Y0031505D01*
X0106101Y0031425D01*
X0106234Y0031349D01*
X0106376Y0031269D01*
X0106510Y0031194D01*
X0106653Y0031114D01*
X0106788Y0031040D01*
X0106926Y0030963D01*
X0107066Y0030888D01*
X0107205Y0030812D01*
X0107345Y0030737D01*
X0107487Y0030662D01*
X0107623Y0030589D01*
X0107764Y0030515D01*
X0107902Y0030443D01*
X0108045Y0030369D01*
X0108184Y0030297D01*
X0108328Y0030223D01*
X0108467Y0030153D01*
X0108607Y0030082D01*
X0108748Y0030011D01*
X0108890Y0029940D01*
X0109033Y0029869D01*
X0109172Y0029801D01*
X0109315Y0029731D01*
X0109457Y0029662D01*
X0109600Y0029593D01*
X0109742Y0029524D01*
X0109885Y0029456D01*
X0110028Y0029388D01*
X0110171Y0029321D01*
X0110313Y0029254D01*
X0110456Y0029188D01*
X0110604Y0029119D01*
X0110745Y0029054D01*
X0110889Y0028988D01*
X0111031Y0028924D01*
X0111175Y0028858D01*
X0111319Y0028794D01*
X0111466Y0028728D01*
X0111611Y0028663D01*
X0111752Y0028601D01*
X0111898Y0028537D01*
X0112039Y0028475D01*
X0112194Y0028408D01*
X0112334Y0028347D01*
X0112475Y0028287D01*
X0112623Y0028223D01*
X0112769Y0028161D01*
X0112916Y0028099D01*
X0113061Y0028038D01*
X0113205Y0027978D01*
X0113353Y0027917D01*
X0113498Y0027857D01*
X0113645Y0027796D01*
X0113790Y0027737D01*
X0113938Y0027677D01*
X0114083Y0027618D01*
X0114231Y0027559D01*
X0114378Y0027500D01*
X0114525Y0027442D01*
X0114672Y0027383D01*
X0114818Y0027326D01*
X0114967Y0027267D01*
X0115114Y0027210D01*
X0115261Y0027154D01*
X0115406Y0027098D01*
X0115559Y0027039D01*
X0115701Y0026985D01*
X0115856Y0026926D01*
X0115998Y0026872D01*
X0116150Y0026816D01*
X0116298Y0026760D01*
X0116445Y0026706D01*
X0116607Y0026646D01*
X0116741Y0026597D01*
X0116898Y0026539D01*
X0117040Y0026487D01*
X0117191Y0026433D01*
X0117340Y0026380D01*
X0117487Y0026327D01*
X0117635Y0026274D01*
X0117791Y0026219D01*
X0117935Y0026168D01*
X0118091Y0026113D01*
X0118235Y0026063D01*
X0118386Y0026010D01*
X0118535Y0025959D01*
X0118686Y0025907D01*
X0118837Y0025855D01*
X0118985Y0025804D01*
X0119141Y0025752D01*
X0119284Y0025703D01*
X0119435Y0025652D01*
X0119589Y0025601D01*
X0119741Y0025550D01*
X0119892Y0025500D01*
X0120037Y0025452D01*
X0120193Y0025401D01*
X0120345Y0025351D01*
X0120493Y0025303D01*
X0120644Y0025254D01*
X0120800Y0025204D01*
X0120949Y0025156D01*
X0121102Y0025107D01*
X0121252Y0025059D01*
X0121404Y0025011D01*
X0121555Y0024963D01*
X0121704Y0024917D01*
X0121860Y0024868D01*
X0122011Y0024820D01*
X0122179Y0024769D01*
X0122314Y0024727D01*
X0122467Y0024680D01*
X0122620Y0024633D01*
X0122767Y0024589D01*
X0122934Y0024538D01*
X0123078Y0024495D01*
X0123228Y0024449D01*
X0123385Y0024403D01*
X0123536Y0024358D01*
X0123685Y0024314D01*
X0123858Y0024263D01*
X0123992Y0024223D01*
X0124153Y0024176D01*
X0124197Y0024164D01*
X0123935Y0024425D01*
X0123244Y0026094D01*
X0123244Y0027900D01*
X0123755Y0029134D01*
X0123257Y0029134D01*
X0123257Y0031721D01*
X0123257Y0031721D01*
X0123257Y0029134D01*
X0122035Y0029134D01*
X0121578Y0029257D01*
X0121167Y0029493D01*
X0120832Y0029829D01*
X0120595Y0030239D01*
X0120472Y0030697D01*
X0120472Y0031721D01*
X0123257Y0031721D01*
X0123257Y0031721D01*
X0120472Y0031721D01*
X0120472Y0032262D01*
X0118972Y0032883D01*
X0117529Y0034327D01*
X0116748Y0036213D01*
X0116748Y0038254D01*
X0117529Y0040139D01*
X0117535Y0040146D01*
X0117535Y0042155D01*
X0116354Y0043336D01*
X0116354Y0051209D01*
X0117745Y0052600D01*
X0123256Y0052600D01*
X0124647Y0051209D01*
X0124647Y0043336D01*
X0123466Y0042155D01*
X0123466Y0042129D01*
X0124785Y0041583D01*
X0125606Y0040761D01*
X0125606Y0072862D01*
X0126058Y0073952D01*
X0126892Y0074786D01*
X0126892Y0074786D01*
X0127969Y0075863D01*
X0127969Y0079204D01*
X0131089Y0082324D01*
X0135503Y0082324D01*
X0137640Y0080188D01*
X0139201Y0081750D01*
X0141084Y0081750D01*
X0141084Y0077083D01*
X0141256Y0077083D01*
X0141256Y0081750D01*
X0143139Y0081750D01*
X0145923Y0078965D01*
X0145923Y0077083D01*
X0141256Y0077083D01*
X0141256Y0076911D01*
X0145923Y0076911D01*
X0145923Y0075028D01*
X0143139Y0072244D01*
X0141256Y0072244D01*
X0141256Y0076911D01*
X0141084Y0076911D01*
X0141084Y0072244D01*
X0139201Y0072244D01*
X0137640Y0073806D01*
X0135503Y0071669D01*
X0132162Y0071669D01*
X0131537Y0071044D01*
X0131537Y0039608D01*
X0132287Y0039608D01*
X0131709Y0040186D01*
X0131709Y0046878D01*
X0133100Y0048269D01*
X0138217Y0048269D01*
X0138414Y0048072D01*
X0146241Y0048072D01*
X0151591Y0053422D01*
X0151591Y0066563D01*
X0152042Y0067653D01*
X0155388Y0070999D01*
X0156223Y0071834D01*
X0157313Y0072285D01*
X0161630Y0072285D01*
X0161630Y0073059D01*
X0163021Y0074450D01*
X0175225Y0074450D01*
X0176616Y0073059D01*
X0176616Y0072679D01*
X0183479Y0072679D01*
X0184248Y0073447D01*
X0184248Y0073447D01*
X0185547Y0074746D01*
X0185547Y0076406D01*
X0186938Y0077797D01*
X0191071Y0077797D01*
X0192462Y0076406D01*
X0192462Y0070501D01*
X0191730Y0069770D01*
X0192244Y0069256D01*
X0192439Y0069726D01*
X0193121Y0070408D01*
X0193028Y0070501D01*
X0193028Y0076406D01*
X0194419Y0077797D01*
X0198551Y0077797D01*
X0199943Y0076406D01*
X0199943Y0076128D01*
X0200330Y0075967D01*
X0201181Y0075116D01*
X0201181Y0075422D01*
X0204949Y0075422D01*
X0204949Y0075422D01*
X0201181Y0075422D01*
X0201181Y0077234D01*
X0201301Y0077681D01*
X0200606Y0078375D01*
X0200606Y0081709D01*
X0200149Y0081709D01*
X0199943Y0081794D01*
X0199943Y0080738D01*
X0198551Y0079346D01*
X0194419Y0079346D01*
X0193844Y0079921D01*
X0192745Y0079921D01*
X0192745Y0083690D01*
X0192745Y0083690D01*
X0192745Y0087458D01*
X0193844Y0087458D01*
X0194419Y0088033D01*
X0194970Y0088033D01*
X0193434Y0088669D01*
X0192212Y0089891D01*
X0191551Y0091487D01*
X0191551Y0093215D01*
X0192212Y0094811D01*
X0193434Y0096033D01*
X0195031Y0096694D01*
X0196758Y0096694D01*
X0196767Y0096691D01*
X0197204Y0097128D01*
X0202774Y0097128D01*
X0204165Y0095736D01*
X0204165Y0094200D01*
X0206512Y0092010D01*
X0206512Y0092428D01*
X0207173Y0094024D01*
X0208395Y0095246D01*
X0209991Y0095907D01*
X0211719Y0095907D01*
X0213315Y0095246D01*
X0213323Y0095238D01*
X0213472Y0095599D01*
X0214694Y0096821D01*
X0216290Y0097482D01*
X0217664Y0097482D01*
X0218139Y0097679D01*
X0227193Y0097679D01*
X0228283Y0097227D01*
X0229117Y0096393D01*
X0230784Y0094726D01*
X0233283Y0094726D01*
X0233283Y0097075D01*
X0234675Y0098466D01*
X0238217Y0098466D01*
X0238911Y0097772D01*
X0239358Y0097891D01*
X0240383Y0097891D01*
X0240383Y0095107D01*
X0240383Y0095107D01*
X0242970Y0095107D01*
X0242970Y0094151D01*
X0244360Y0094151D01*
X0244818Y0094029D01*
X0245228Y0093792D01*
X0245563Y0093456D01*
X0245800Y0093046D01*
X0245923Y0092588D01*
X0245923Y0089989D01*
X0242548Y0089989D01*
X0242548Y0089989D01*
X0239173Y0089989D01*
X0239173Y0092372D01*
X0239076Y0092398D01*
X0239017Y0091958D01*
X0239017Y0086643D01*
X0238439Y0086065D01*
X0240079Y0086065D01*
X0239868Y0086186D01*
X0239533Y0086522D01*
X0239296Y0086932D01*
X0239173Y0087390D01*
X0239173Y0089989D01*
X0242548Y0089989D01*
X0242548Y0089989D01*
X0242548Y0089989D01*
X0242548Y0085827D01*
X0241604Y0085827D01*
X0242757Y0084673D01*
X0242757Y0077982D01*
X0241366Y0076591D01*
X0240579Y0076591D01*
X0240642Y0076527D01*
X0240879Y0076117D01*
X0241002Y0075659D01*
X0241002Y0074438D01*
X0238414Y0074438D01*
X0238414Y0074438D01*
X0241002Y0074438D01*
X0241002Y0073860D01*
X0241204Y0073860D01*
X0242751Y0075407D01*
X0243769Y0075828D01*
X0248498Y0075828D01*
X0248669Y0075758D01*
X0249228Y0076317D01*
X0249228Y0081524D01*
X0249622Y0082474D01*
X0249622Y0083331D01*
X0249228Y0084281D01*
X0249228Y0084871D01*
X0249031Y0085068D01*
X0249031Y0089004D01*
X0249606Y0089579D01*
X0249606Y0090579D01*
X0252194Y0090579D01*
X0252194Y0090580D01*
X0252194Y0090580D01*
X0252194Y0093364D01*
X0253218Y0093364D01*
X0253676Y0093241D01*
X0254086Y0093004D01*
X0254421Y0092669D01*
X0254658Y0092259D01*
X0254781Y0091801D01*
X0254781Y0090580D01*
X0252194Y0090580D01*
X0252194Y0093364D01*
X0251169Y0093364D01*
X0250712Y0093241D01*
X0250301Y0093004D01*
X0249966Y0092669D01*
X0249729Y0092259D01*
X0249606Y0091801D01*
X0249606Y0090580D01*
X0252194Y0090580D01*
X0252194Y0090579D02*
X0254781Y0090579D01*
X0254781Y0089579D01*
X0255356Y0089004D01*
X0255356Y0087322D01*
X0256734Y0086751D01*
X0258011Y0085474D01*
X0258702Y0083805D01*
X0258702Y0083065D01*
X0259661Y0082106D01*
X0259661Y0082979D01*
X0260323Y0084575D01*
X0261544Y0085797D01*
X0263141Y0086458D01*
X0264869Y0086458D01*
X0266465Y0085797D01*
X0267687Y0084575D01*
X0268348Y0082979D01*
X0268348Y0081251D01*
X0268059Y0080553D01*
X0269199Y0080553D01*
X0270035Y0080207D01*
X0269898Y0080344D01*
X0269898Y0084280D01*
X0270472Y0084855D01*
X0270472Y0085855D01*
X0273060Y0085855D01*
X0273060Y0085855D01*
X0275647Y0085855D01*
X0275647Y0084855D01*
X0276222Y0084280D01*
X0276222Y0080344D01*
X0275828Y0079950D01*
X0275828Y0074561D01*
X0275843Y0074555D01*
X0275843Y0074631D01*
X0276654Y0076589D01*
X0278152Y0078088D01*
X0280110Y0078899D01*
X0280289Y0078899D01*
X0280057Y0078936D01*
X0279346Y0079167D01*
X0278679Y0079507D01*
X0278074Y0079946D01*
X0277545Y0080475D01*
X0277105Y0081081D01*
X0276766Y0081747D01*
X0276534Y0082459D01*
X0276417Y0083198D01*
X0276417Y0083387D01*
X0280986Y0083387D01*
X0280986Y0083756D01*
X0280986Y0088324D01*
X0280796Y0088324D01*
X0280057Y0088207D01*
X0279346Y0087976D01*
X0278679Y0087637D01*
X0278074Y0087197D01*
X0277545Y0086668D01*
X0277105Y0086063D01*
X0276766Y0085396D01*
X0276534Y0084685D01*
X0276417Y0083946D01*
X0276417Y0083756D01*
X0280986Y0083756D01*
X0281354Y0083756D01*
X0281354Y0088324D01*
X0281544Y0088324D01*
X0282283Y0088207D01*
X0282995Y0087976D01*
X0283661Y0087637D01*
X0284266Y0087197D01*
X0284795Y0086668D01*
X0285235Y0086063D01*
X0285575Y0085396D01*
X0285806Y0084685D01*
X0285843Y0084453D01*
X0285843Y0084631D01*
X0286654Y0086589D01*
X0288152Y0088088D01*
X0290110Y0088899D01*
X0292230Y0088899D01*
X0294188Y0088088D01*
X0295687Y0086589D01*
X0296170Y0085422D01*
X0296654Y0086589D01*
X0298152Y0088088D01*
X0299616Y0088694D01*
X0273031Y0091413D01*
X0272482Y0090864D01*
X0270813Y0090173D01*
X0269007Y0090173D01*
X0267338Y0090864D01*
X0266061Y0092142D01*
X0265370Y0093810D01*
X0265370Y0095616D01*
X0266061Y0097285D01*
X0266287Y0097511D01*
X0265881Y0097547D01*
X0265881Y0097547D01*
X0265186Y0097608D01*
X0265084Y0097617D01*
X0265084Y0097617D01*
X0264763Y0097645D01*
X0264763Y0097644D01*
X0264217Y0097691D01*
X0263695Y0097735D01*
X0263695Y0097735D01*
X0263376Y0097762D01*
X0262737Y0097814D01*
X0262737Y0097814D01*
X0262151Y0097861D01*
X0261459Y0097916D01*
X0261459Y0097916D01*
X0261034Y0097949D01*
X0260611Y0097981D01*
X0260611Y0097981D01*
X0259920Y0098034D01*
X0259333Y0098077D01*
X0259333Y0098077D01*
X0258799Y0098116D01*
X0258263Y0098154D01*
X0258263Y0098155D01*
X0258214Y0098158D01*
X0258213Y0098158D01*
X0257672Y0098196D01*
X0257144Y0098233D01*
X0257144Y0098233D01*
X0257095Y0098236D01*
X0257094Y0098236D01*
X0256557Y0098273D01*
X0256025Y0098308D01*
X0256024Y0098309D01*
X0255815Y0098322D01*
X0255814Y0098322D01*
X0255282Y0098357D01*
X0254745Y0098392D01*
X0254744Y0098392D01*
X0254695Y0098395D01*
X0254695Y0098395D01*
X0254158Y0098429D01*
X0253625Y0098462D01*
X0253624Y0098462D01*
X0253415Y0098475D01*
X0253414Y0098475D01*
X0252877Y0098508D01*
X0252509Y0098529D01*
X0252376Y0098535D01*
X0252193Y0098538D01*
X0185178Y0098538D01*
X0185178Y0098538D01*
X0184479Y0098538D01*
X0184295Y0098535D01*
X0184165Y0098529D01*
X0183826Y0098510D01*
X0183796Y0098508D01*
X0183670Y0098500D01*
X0183598Y0098496D01*
X0183385Y0098483D01*
X0183385Y0098482D01*
X0182832Y0098449D01*
X0182280Y0098414D01*
X0182279Y0098414D01*
X0181994Y0098396D01*
X0181994Y0098396D01*
X0181410Y0098359D01*
X0180827Y0098320D01*
X0180827Y0098320D01*
X0180542Y0098302D01*
X0180541Y0098301D01*
X0179987Y0098264D01*
X0179436Y0098226D01*
X0179436Y0098227D01*
X0179406Y0098225D01*
X0179405Y0098224D01*
X0178848Y0098186D01*
X0178300Y0098146D01*
X0178300Y0098147D01*
X0178015Y0098126D01*
X0178015Y0098126D01*
X0177432Y0098084D01*
X0176992Y0098052D01*
X0176991Y0098052D01*
X0176565Y0098020D01*
X0176564Y0098019D01*
X0176012Y0097978D01*
X0175602Y0097946D01*
X0175602Y0097946D01*
X0175429Y0097933D01*
X0175429Y0097932D01*
X0175007Y0097900D01*
X0174609Y0097868D01*
X0174609Y0097868D01*
X0174183Y0097834D01*
X0174182Y0097834D01*
X0174028Y0097822D01*
X0174010Y0097820D01*
X0174009Y0097819D01*
X0173624Y0097788D01*
X0173333Y0097764D01*
X0173332Y0097765D01*
X0173328Y0097765D01*
X0173313Y0097763D01*
X0173301Y0097762D01*
X0173301Y0097762D01*
X0172905Y0097729D01*
X0172875Y0097727D01*
X0172874Y0097726D01*
X0172620Y0097705D01*
X0172340Y0097681D01*
X0172339Y0097681D01*
X0172322Y0097680D01*
X0171913Y0097645D01*
X0171912Y0097645D01*
X0171882Y0097643D01*
X0171882Y0097642D01*
X0171446Y0097605D01*
X0171063Y0097571D01*
X0171062Y0097571D01*
X0170890Y0097556D01*
X0170890Y0097555D01*
X0170324Y0097505D01*
X0169787Y0097457D01*
X0169786Y0097457D01*
X0169639Y0097443D01*
X0169502Y0097431D01*
X0169502Y0097431D01*
X0169206Y0097404D01*
X0168511Y0097338D01*
X0168511Y0097339D01*
X0168508Y0097338D01*
X0168480Y0097336D01*
X0168480Y0097335D01*
X0167787Y0097270D01*
X0167192Y0097212D01*
X0166528Y0097146D01*
X0166528Y0097147D01*
X0166498Y0097144D01*
X0166498Y0097143D01*
X0165806Y0097074D01*
X0165365Y0097029D01*
X0165365Y0097029D01*
X0164814Y0096972D01*
X0164263Y0096914D01*
X0164263Y0096914D01*
X0164043Y0096891D01*
X0175225Y0096891D01*
X0176406Y0095710D01*
X0182900Y0095710D01*
X0182900Y0095736D01*
X0184291Y0097128D01*
X0189860Y0097128D01*
X0191252Y0095736D01*
X0191252Y0088966D01*
X0190909Y0088624D01*
X0191122Y0087982D01*
X0191646Y0087458D01*
X0192745Y0087458D01*
X0192745Y0083690D01*
X0192745Y0083690D01*
X0192745Y0079921D01*
X0191646Y0079921D01*
X0191071Y0079346D01*
X0186938Y0079346D01*
X0185547Y0080738D01*
X0185547Y0083445D01*
X0184125Y0087741D01*
X0182900Y0088966D01*
X0182900Y0088992D01*
X0176616Y0088992D01*
X0176616Y0088021D01*
X0175225Y0086630D01*
X0163021Y0086630D01*
X0161630Y0088021D01*
X0161630Y0095500D01*
X0162898Y0096768D01*
X0162690Y0096746D01*
X0162141Y0096685D01*
X0162140Y0096685D01*
X0161986Y0096668D01*
X0161293Y0096589D01*
X0161292Y0096590D01*
X0160868Y0096542D01*
X0160710Y0096524D01*
X0160414Y0096489D01*
X0160414Y0096489D01*
X0159722Y0096408D01*
X0159283Y0096356D01*
X0159282Y0096356D01*
X0158625Y0096277D01*
X0158435Y0096254D01*
X0158435Y0096254D01*
X0157920Y0096191D01*
X0157337Y0096118D01*
X0157336Y0096119D01*
X0157038Y0096081D01*
X0156592Y0096025D01*
X0156053Y0095956D01*
X0155753Y0095917D01*
X0155752Y0095916D01*
X0155083Y0095829D01*
X0154906Y0095805D01*
X0154906Y0095805D01*
X0154335Y0095729D01*
X0153808Y0095657D01*
X0153808Y0095657D01*
X0153793Y0095655D01*
X0153105Y0095560D01*
X0153104Y0095560D01*
X0152667Y0095499D01*
X0152651Y0095497D01*
X0151960Y0095399D01*
X0151805Y0095377D01*
X0151805Y0095377D01*
X0151115Y0095277D01*
X0151101Y0095275D01*
X0151101Y0095275D01*
X0150411Y0095173D01*
X0150114Y0095129D01*
X0150114Y0095128D01*
X0149447Y0095028D01*
X0149423Y0095025D01*
X0149104Y0094976D01*
X0148459Y0094875D01*
X0148458Y0094876D01*
X0148072Y0094815D01*
X0148004Y0094805D01*
X0148003Y0094804D01*
X0147458Y0094718D01*
X0146911Y0094629D01*
X0146911Y0094630D01*
X0146628Y0094584D01*
X0146628Y0094584D01*
X0146610Y0094581D01*
X0146452Y0094555D01*
X0146334Y0094536D01*
X0146174Y0094510D01*
X0146051Y0094489D01*
X0145942Y0094471D01*
X0145766Y0094442D01*
X0145630Y0094419D01*
X0145485Y0094395D01*
X0145362Y0094374D01*
X0145218Y0094350D01*
X0145054Y0094322D01*
X0144933Y0094302D01*
X0144792Y0094278D01*
X0144618Y0094248D01*
X0144508Y0094229D01*
X0144361Y0094204D01*
X0144230Y0094181D01*
X0144084Y0094156D01*
X0143942Y0094131D01*
X0143803Y0094107D01*
X0143665Y0094083D01*
X0143524Y0094058D01*
X0143392Y0094035D01*
X0143231Y0094007D01*
X0143106Y0093984D01*
X0142952Y0093957D01*
X0142817Y0093933D01*
X0142688Y0093910D01*
X0142547Y0093884D01*
X0142393Y0093857D01*
X0142270Y0093834D01*
X0142113Y0093806D01*
X0141990Y0093783D01*
X0141795Y0093748D01*
X0141674Y0093726D01*
X0141564Y0093705D01*
X0141281Y0093653D01*
X0141133Y0093625D01*
X0141015Y0093603D01*
X0140862Y0093575D01*
X0140720Y0093548D01*
X0140582Y0093522D01*
X0140433Y0093494D01*
X0140295Y0093468D01*
X0140167Y0093443D01*
X0140018Y0093415D01*
X0139732Y0093360D01*
X0139574Y0093329D01*
X0139462Y0093307D01*
X0139317Y0093279D01*
X0139181Y0093253D01*
X0139028Y0093223D01*
X0138897Y0093197D01*
X0138760Y0093170D01*
X0138617Y0093142D01*
X0138471Y0093113D01*
X0138330Y0093084D01*
X0138200Y0093058D01*
X0138056Y0093030D01*
X0137914Y0093001D01*
X0137777Y0092973D01*
X0137641Y0092946D01*
X0137494Y0092916D01*
X0137365Y0092889D01*
X0137216Y0092859D01*
X0137072Y0092829D01*
X0136937Y0092801D01*
X0136803Y0092774D01*
X0136675Y0092747D01*
X0136510Y0092712D01*
X0136360Y0092681D01*
X0136235Y0092655D01*
X0136098Y0092626D01*
X0135967Y0092598D01*
X0135829Y0092569D01*
X0135662Y0092533D01*
X0135542Y0092507D01*
X0135265Y0092448D01*
X0135115Y0092415D01*
X0134989Y0092388D01*
X0134846Y0092357D01*
X0134697Y0092324D01*
X0134567Y0092296D01*
X0134419Y0092263D01*
X0134291Y0092235D01*
X0134156Y0092205D01*
X0134007Y0092172D01*
X0133844Y0092135D01*
X0133743Y0092113D01*
X0133590Y0092078D01*
X0133447Y0092046D01*
X0133315Y0092016D01*
X0133180Y0091985D01*
X0133021Y0091949D01*
X0132894Y0091920D01*
X0132760Y0091889D01*
X0132621Y0091857D01*
X0132481Y0091825D01*
X0132337Y0091791D01*
X0132199Y0091759D01*
X0132065Y0091728D01*
X0132023Y0091718D01*
X0131783Y0091661D01*
X0131752Y0091654D01*
X0132421Y0090986D01*
X0133112Y0089317D01*
X0133112Y0087511D01*
X0132421Y0085842D01*
X0131143Y0084565D01*
X0129475Y0083874D01*
X0127669Y0083874D01*
X0127549Y0083923D01*
X0123466Y0080836D01*
X0123466Y0071681D01*
X0124647Y0070500D01*
X0124647Y0062627D01*
X0123256Y0061236D01*
X0117745Y0061236D01*
X0116354Y0062627D01*
X0116354Y0070500D01*
X0117535Y0071681D01*
X0117535Y0081932D01*
X0117482Y0082136D01*
X0117535Y0082517D01*
X0117535Y0082902D01*
X0117616Y0083096D01*
X0117645Y0083304D01*
X0117840Y0083636D01*
X0117987Y0083992D01*
X0118135Y0084140D01*
X0118242Y0084321D01*
X0118549Y0084554D01*
X0118821Y0084826D01*
X0119015Y0084906D01*
X0124031Y0088699D01*
X0124031Y0089317D01*
X0124176Y0089667D01*
X0124103Y0089645D01*
X0123951Y0089601D01*
X0123816Y0089561D01*
X0123739Y0089538D01*
X0123542Y0089480D01*
X0123411Y0089441D01*
X0123257Y0089395D01*
X0123137Y0089360D01*
X0123001Y0089318D01*
X0122868Y0089278D01*
X0122724Y0089235D01*
X0122603Y0089198D01*
X0122456Y0089153D01*
X0122328Y0089114D01*
X0122192Y0089072D01*
X0122046Y0089027D01*
X0121915Y0088986D01*
X0121781Y0088944D01*
X0121639Y0088899D01*
X0121514Y0088860D01*
X0121375Y0088816D01*
X0121244Y0088775D01*
X0121108Y0088731D01*
X0120971Y0088688D01*
X0120849Y0088649D01*
X0120701Y0088601D01*
X0120572Y0088559D01*
X0120425Y0088511D01*
X0120298Y0088470D01*
X0120163Y0088426D01*
X0120022Y0088379D01*
X0119896Y0088337D01*
X0119767Y0088295D01*
X0119625Y0088247D01*
X0119487Y0088201D01*
X0119359Y0088158D01*
X0119223Y0088112D01*
X0119088Y0088067D01*
X0118949Y0088019D01*
X0118822Y0087976D01*
X0118692Y0087931D01*
X0118552Y0087883D01*
X0118420Y0087837D01*
X0118275Y0087787D01*
X0118153Y0087744D01*
X0118016Y0087696D01*
X0117888Y0087651D01*
X0117745Y0087601D01*
X0117627Y0087558D01*
X0117484Y0087507D01*
X0117350Y0087459D01*
X0117227Y0087415D01*
X0117084Y0087363D01*
X0116955Y0087316D01*
X0116822Y0087268D01*
X0116687Y0087218D01*
X0116553Y0087169D01*
X0116427Y0087122D01*
X0116289Y0087071D01*
X0116162Y0087024D01*
X0116025Y0086972D01*
X0115887Y0086920D01*
X0115762Y0086873D01*
X0115628Y0086822D01*
X0115492Y0086770D01*
X0115365Y0086721D01*
X0115236Y0086671D01*
X0115099Y0086618D01*
X0114967Y0086567D01*
X0114837Y0086516D01*
X0114704Y0086464D01*
X0114583Y0086416D01*
X0114440Y0086359D01*
X0114312Y0086308D01*
X0114174Y0086253D01*
X0114050Y0086203D01*
X0113890Y0086138D01*
X0113785Y0086096D01*
X0113656Y0086043D01*
X0113525Y0085989D01*
X0113392Y0085935D01*
X0113263Y0085881D01*
X0113127Y0085824D01*
X0113004Y0085773D01*
X0112871Y0085717D01*
X0112743Y0085663D01*
X0112612Y0085607D01*
X0112477Y0085549D01*
X0112353Y0085497D01*
X0112225Y0085441D01*
X0112092Y0085384D01*
X0111965Y0085328D01*
X0111835Y0085271D01*
X0111707Y0085215D01*
X0111576Y0085157D01*
X0111473Y0085111D01*
X0111319Y0085043D01*
X0111190Y0084984D01*
X0111062Y0084926D01*
X0110938Y0084870D01*
X0110806Y0084810D01*
X0110681Y0084752D01*
X0110554Y0084694D01*
X0110423Y0084633D01*
X0110296Y0084574D01*
X0110171Y0084516D01*
X0110037Y0084452D01*
X0109915Y0084394D01*
X0109788Y0084334D01*
X0109665Y0084275D01*
X0109536Y0084213D01*
X0109410Y0084152D01*
X0109286Y0084091D01*
X0109159Y0084029D01*
X0109031Y0083966D01*
X0108906Y0083904D01*
X0108782Y0083842D01*
X0108655Y0083779D01*
X0108534Y0083717D01*
X0108405Y0083652D01*
X0108282Y0083590D01*
X0108157Y0083526D01*
X0108033Y0083461D01*
X0107910Y0083397D01*
X0107786Y0083333D01*
X0107660Y0083267D01*
X0107540Y0083203D01*
X0107414Y0083136D01*
X0107292Y0083071D01*
X0107169Y0083005D01*
X0107048Y0082939D01*
X0106927Y0082873D01*
X0106800Y0082803D01*
X0106679Y0082737D01*
X0106558Y0082669D01*
X0106434Y0082600D01*
X0106316Y0082533D01*
X0106193Y0082464D01*
X0106071Y0082394D01*
X0105953Y0082327D01*
X0105829Y0082255D01*
X0105710Y0082186D01*
X0105589Y0082115D01*
X0105468Y0082044D01*
X0105350Y0081974D01*
X0105231Y0081903D01*
X0105110Y0081830D01*
X0104991Y0081758D01*
X0104873Y0081686D01*
X0104024Y0081063D01*
X0102703Y0079433D01*
X0102002Y0077456D01*
X0101913Y0076408D01*
X0101913Y0040271D01*
X0103224Y0041583D01*
X0104543Y0042129D01*
X0104543Y0042155D01*
X0103362Y0043336D01*
X0103362Y0051209D01*
X0104753Y0052600D01*
X0110264Y0052600D01*
X0111655Y0051209D01*
X0111655Y0043336D01*
X0110474Y0042155D01*
X0110474Y0040146D01*
X0110480Y0040139D01*
X0111261Y0038254D01*
X0111261Y0036213D01*
X0110480Y0034327D01*
X0109037Y0032883D01*
X0107151Y0032102D01*
X0105110Y0032102D01*
X0106508Y0031195D02*
X0120472Y0031195D01*
X0121065Y0029596D02*
X0109592Y0029596D01*
X0113158Y0027998D02*
X0123285Y0027998D01*
X0123257Y0029596D02*
X0123257Y0029596D01*
X0123257Y0031195D02*
X0123257Y0031195D01*
X0119190Y0032793D02*
X0108819Y0032793D01*
X0110507Y0034392D02*
X0117502Y0034392D01*
X0116840Y0035990D02*
X0111169Y0035990D01*
X0111261Y0037589D02*
X0116748Y0037589D01*
X0117135Y0039187D02*
X0110875Y0039187D01*
X0110474Y0040786D02*
X0117535Y0040786D01*
X0117306Y0042384D02*
X0110703Y0042384D01*
X0111655Y0043983D02*
X0116354Y0043983D01*
X0116354Y0045581D02*
X0111655Y0045581D01*
X0111655Y0047180D02*
X0116354Y0047180D01*
X0116354Y0048778D02*
X0111655Y0048778D01*
X0111655Y0050377D02*
X0116354Y0050377D01*
X0117121Y0051975D02*
X0110889Y0051975D01*
X0104129Y0051975D02*
X0101913Y0051975D01*
X0101913Y0050377D02*
X0103362Y0050377D01*
X0103362Y0048778D02*
X0101913Y0048778D01*
X0101913Y0047180D02*
X0103362Y0047180D01*
X0103362Y0045581D02*
X0101913Y0045581D01*
X0101913Y0043983D02*
X0103362Y0043983D01*
X0104314Y0042384D02*
X0101913Y0042384D01*
X0101913Y0040786D02*
X0102427Y0040786D01*
X0101913Y0053574D02*
X0125606Y0053574D01*
X0125606Y0055172D02*
X0101913Y0055172D01*
X0101913Y0056771D02*
X0125606Y0056771D01*
X0125606Y0058369D02*
X0101913Y0058369D01*
X0101913Y0059968D02*
X0125606Y0059968D01*
X0125606Y0061566D02*
X0123586Y0061566D01*
X0124647Y0063165D02*
X0125606Y0063165D01*
X0125606Y0064763D02*
X0124647Y0064763D01*
X0124647Y0066362D02*
X0125606Y0066362D01*
X0125606Y0067960D02*
X0124647Y0067960D01*
X0124647Y0069559D02*
X0125606Y0069559D01*
X0125606Y0071157D02*
X0123990Y0071157D01*
X0123466Y0072756D02*
X0125606Y0072756D01*
X0126460Y0074354D02*
X0123466Y0074354D01*
X0123466Y0075953D02*
X0127969Y0075953D01*
X0127969Y0077551D02*
X0123466Y0077551D01*
X0123466Y0079150D02*
X0127969Y0079150D01*
X0129513Y0080748D02*
X0123466Y0080748D01*
X0125464Y0082347D02*
X0185547Y0082347D01*
X0185547Y0080748D02*
X0144140Y0080748D01*
X0145738Y0079150D02*
X0200606Y0079150D01*
X0200606Y0080748D02*
X0199943Y0080748D01*
X0198797Y0077551D02*
X0201266Y0077551D01*
X0201181Y0075953D02*
X0200345Y0075953D01*
X0204950Y0075422D02*
X0204950Y0072047D01*
X0207155Y0072047D01*
X0207613Y0072170D01*
X0208023Y0072407D01*
X0208358Y0072742D01*
X0208595Y0073152D01*
X0208718Y0073610D01*
X0208718Y0075380D01*
X0209071Y0075234D01*
X0209071Y0070091D01*
X0209002Y0070120D01*
X0207196Y0070120D01*
X0206246Y0069726D01*
X0204765Y0069726D01*
X0204765Y0072047D01*
X0204950Y0072047D01*
X0204950Y0075422D01*
X0204950Y0075422D01*
X0204950Y0074354D02*
X0204950Y0074354D01*
X0204950Y0072756D02*
X0204950Y0072756D01*
X0204765Y0071157D02*
X0209071Y0071157D01*
X0209071Y0072756D02*
X0208366Y0072756D01*
X0208718Y0074354D02*
X0209071Y0074354D01*
X0194173Y0077551D02*
X0191316Y0077551D01*
X0192462Y0075953D02*
X0193028Y0075953D01*
X0193028Y0074354D02*
X0192462Y0074354D01*
X0192462Y0072756D02*
X0193028Y0072756D01*
X0193028Y0071157D02*
X0192462Y0071157D01*
X0192370Y0069559D02*
X0191941Y0069559D01*
X0186505Y0065494D02*
X0183613Y0065494D01*
X0182017Y0064832D01*
X0180795Y0063611D01*
X0180134Y0062014D01*
X0180134Y0060286D01*
X0180795Y0058690D01*
X0182017Y0057468D01*
X0183613Y0056807D01*
X0185843Y0056807D01*
X0185843Y0055371D01*
X0185126Y0054654D01*
X0184465Y0053058D01*
X0184465Y0051330D01*
X0184672Y0050828D01*
X0180929Y0050828D01*
X0181340Y0051822D01*
X0181340Y0053550D01*
X0180679Y0055146D01*
X0179457Y0056368D01*
X0177861Y0057029D01*
X0175739Y0057029D01*
X0175345Y0057029D01*
X0172196Y0057029D01*
X0170600Y0056368D01*
X0169378Y0055146D01*
X0168717Y0053550D01*
X0168717Y0051822D01*
X0169128Y0050828D01*
X0158297Y0050828D01*
X0157207Y0050377D01*
X0144666Y0037836D01*
X0143348Y0037836D01*
X0143348Y0038217D01*
X0141957Y0039608D01*
X0139029Y0039608D01*
X0139608Y0040186D01*
X0139608Y0042142D01*
X0148059Y0042142D01*
X0149149Y0042593D01*
X0156236Y0049680D01*
X0157070Y0050514D01*
X0157521Y0051604D01*
X0157521Y0064745D01*
X0159131Y0066354D01*
X0161630Y0066354D01*
X0161630Y0065580D01*
X0161716Y0065494D01*
X0161566Y0065494D01*
X0159970Y0064832D01*
X0158748Y0063611D01*
X0158087Y0062014D01*
X0158087Y0060286D01*
X0158748Y0058690D01*
X0159970Y0057468D01*
X0161566Y0056807D01*
X0166443Y0056807D01*
X0168040Y0057468D01*
X0169262Y0058690D01*
X0169923Y0060286D01*
X0169923Y0062014D01*
X0169262Y0063611D01*
X0168683Y0064189D01*
X0175225Y0064189D01*
X0176616Y0065580D01*
X0176616Y0065961D01*
X0185539Y0065961D01*
X0185892Y0066107D01*
X0186505Y0065494D01*
X0181948Y0064763D02*
X0175799Y0064763D01*
X0180610Y0063165D02*
X0169446Y0063165D01*
X0169923Y0061566D02*
X0180134Y0061566D01*
X0180266Y0059968D02*
X0169791Y0059968D01*
X0168941Y0058369D02*
X0181116Y0058369D01*
X0178484Y0056771D02*
X0185843Y0056771D01*
X0185644Y0055172D02*
X0180653Y0055172D01*
X0181330Y0053574D02*
X0184678Y0053574D01*
X0184465Y0051975D02*
X0181340Y0051975D01*
X0171572Y0056771D02*
X0157521Y0056771D01*
X0157521Y0058369D02*
X0159069Y0058369D01*
X0158219Y0059968D02*
X0157521Y0059968D01*
X0157521Y0061566D02*
X0158087Y0061566D01*
X0158563Y0063165D02*
X0157521Y0063165D01*
X0157540Y0064763D02*
X0159901Y0064763D01*
X0153948Y0069559D02*
X0131537Y0069559D01*
X0131537Y0067960D02*
X0152349Y0067960D01*
X0151591Y0066362D02*
X0131537Y0066362D01*
X0131537Y0064763D02*
X0151591Y0064763D01*
X0151591Y0063165D02*
X0131537Y0063165D01*
X0131537Y0061566D02*
X0151591Y0061566D01*
X0151591Y0059968D02*
X0142273Y0059968D01*
X0141889Y0060351D02*
X0140401Y0060968D01*
X0138790Y0060968D01*
X0137301Y0060351D01*
X0136162Y0059212D01*
X0135546Y0057724D01*
X0135546Y0056113D01*
X0136162Y0054624D01*
X0137301Y0053485D01*
X0138790Y0052869D01*
X0140401Y0052869D01*
X0141889Y0053485D01*
X0143028Y0054624D01*
X0143645Y0056113D01*
X0143645Y0057724D01*
X0143028Y0059212D01*
X0141889Y0060351D01*
X0143377Y0058369D02*
X0151591Y0058369D01*
X0151591Y0056771D02*
X0143645Y0056771D01*
X0143255Y0055172D02*
X0151591Y0055172D01*
X0151591Y0053574D02*
X0141978Y0053574D01*
X0137213Y0053574D02*
X0131537Y0053574D01*
X0131537Y0055172D02*
X0135935Y0055172D01*
X0135546Y0056771D02*
X0131537Y0056771D01*
X0131537Y0058369D02*
X0135813Y0058369D01*
X0136918Y0059968D02*
X0131537Y0059968D01*
X0131537Y0051975D02*
X0150144Y0051975D01*
X0148545Y0050377D02*
X0131537Y0050377D01*
X0131537Y0048778D02*
X0146947Y0048778D01*
X0150539Y0043983D02*
X0150813Y0043983D01*
X0152137Y0045581D02*
X0152411Y0045581D01*
X0153736Y0047180D02*
X0154010Y0047180D01*
X0155334Y0048778D02*
X0155608Y0048778D01*
X0156933Y0050377D02*
X0157207Y0050377D01*
X0157521Y0051975D02*
X0168717Y0051975D01*
X0168727Y0053574D02*
X0157521Y0053574D01*
X0157521Y0055172D02*
X0169404Y0055172D01*
X0160115Y0044898D02*
X0180489Y0044898D01*
X0180331Y0044516D01*
X0180331Y0044448D01*
X0180288Y0044332D01*
X0179163Y0044332D01*
X0177772Y0042941D01*
X0177772Y0036249D01*
X0178350Y0035671D01*
X0175423Y0035671D01*
X0174031Y0034280D01*
X0174031Y0032988D01*
X0172782Y0033505D01*
X0170976Y0033505D01*
X0169307Y0032814D01*
X0169150Y0032657D01*
X0162620Y0034201D01*
X0162476Y0034345D01*
X0162875Y0037008D01*
X0163808Y0037008D01*
X0165029Y0037008D01*
X0165487Y0037131D01*
X0165897Y0037368D01*
X0166232Y0037703D01*
X0166469Y0038113D01*
X0166592Y0038571D01*
X0166592Y0039595D01*
X0163808Y0039595D01*
X0163808Y0037008D01*
X0163808Y0039595D01*
X0163808Y0039595D01*
X0163808Y0039595D01*
X0166592Y0039595D01*
X0166592Y0040620D01*
X0166469Y0041077D01*
X0166232Y0041488D01*
X0165897Y0041823D01*
X0165487Y0042060D01*
X0165029Y0042183D01*
X0163808Y0042183D01*
X0163808Y0039595D01*
X0163808Y0039595D01*
X0163808Y0042183D01*
X0162807Y0042183D01*
X0162232Y0042757D01*
X0158297Y0042757D01*
X0157800Y0042261D01*
X0157572Y0042355D01*
X0160115Y0044898D01*
X0159200Y0043983D02*
X0178813Y0043983D01*
X0177772Y0042384D02*
X0162606Y0042384D01*
X0163808Y0040786D02*
X0163808Y0040786D01*
X0163808Y0039187D02*
X0163808Y0039187D01*
X0163808Y0037589D02*
X0163808Y0037589D01*
X0162722Y0035990D02*
X0178031Y0035990D01*
X0177772Y0037589D02*
X0166119Y0037589D01*
X0166592Y0039187D02*
X0177772Y0039187D01*
X0177772Y0040786D02*
X0166548Y0040786D01*
X0157923Y0042384D02*
X0157601Y0042384D01*
X0151796Y0036579D02*
X0152055Y0035954D01*
X0153277Y0034732D01*
X0154873Y0034071D01*
X0155023Y0034071D01*
X0154543Y0033591D01*
X0154543Y0029458D01*
X0155934Y0028067D01*
X0161839Y0028067D01*
X0162020Y0028248D01*
X0167830Y0026875D01*
X0168030Y0026394D01*
X0168804Y0025619D01*
X0168414Y0025229D01*
X0168243Y0025328D01*
X0167785Y0025450D01*
X0166761Y0025450D01*
X0166761Y0022666D01*
X0166761Y0022666D01*
X0166761Y0025450D01*
X0165736Y0025450D01*
X0165289Y0025331D01*
X0164595Y0026025D01*
X0163230Y0026025D01*
X0163230Y0026110D01*
X0161839Y0027502D01*
X0155934Y0027502D01*
X0154543Y0026110D01*
X0154543Y0022672D01*
X0152994Y0022923D01*
X0152994Y0026110D01*
X0152419Y0026685D01*
X0152419Y0027784D01*
X0148651Y0027784D01*
X0148651Y0027784D01*
X0152419Y0027784D01*
X0152419Y0028883D01*
X0152994Y0029458D01*
X0152994Y0033591D01*
X0151603Y0034982D01*
X0150199Y0034982D01*
X0151796Y0036579D01*
X0152040Y0035990D02*
X0151207Y0035990D01*
X0152193Y0034392D02*
X0154099Y0034392D01*
X0154543Y0032793D02*
X0152994Y0032793D01*
X0152994Y0031195D02*
X0154543Y0031195D01*
X0154543Y0029596D02*
X0152994Y0029596D01*
X0152419Y0027998D02*
X0163082Y0027998D01*
X0162941Y0026399D02*
X0168027Y0026399D01*
X0166761Y0024801D02*
X0166761Y0024801D01*
X0166761Y0023202D02*
X0166761Y0023202D01*
X0154543Y0023202D02*
X0152994Y0023202D01*
X0152994Y0024801D02*
X0154543Y0024801D01*
X0154832Y0026399D02*
X0152705Y0026399D01*
X0148650Y0027784D02*
X0144970Y0027784D01*
X0144970Y0027784D01*
X0148650Y0027784D01*
X0148650Y0027784D01*
X0144882Y0027696D02*
X0144882Y0026685D01*
X0144307Y0026110D01*
X0144307Y0021978D01*
X0145698Y0020587D01*
X0147119Y0020587D01*
X0147819Y0019256D01*
X0147867Y0019053D01*
X0147800Y0019064D01*
X0147481Y0019114D01*
X0147163Y0019165D01*
X0146965Y0019197D01*
X0146832Y0019219D01*
X0146700Y0019240D01*
X0146525Y0019269D01*
X0146380Y0019293D01*
X0146218Y0019319D01*
X0146049Y0019347D01*
X0145898Y0019372D01*
X0145648Y0019414D01*
X0145587Y0019424D01*
X0145425Y0019451D01*
X0145265Y0019478D01*
X0145105Y0019505D01*
X0144952Y0019531D01*
X0144795Y0019558D01*
X0144633Y0019585D01*
X0144473Y0019613D01*
X0144324Y0019639D01*
X0144162Y0019667D01*
X0144017Y0019692D01*
X0143841Y0019722D01*
X0143700Y0019747D01*
X0143521Y0019779D01*
X0143370Y0019805D01*
X0143219Y0019832D01*
X0143047Y0019862D01*
X0142902Y0019888D01*
X0142738Y0019918D01*
X0142575Y0019947D01*
X0142432Y0019973D01*
X0142298Y0019997D01*
X0142064Y0020039D01*
X0141930Y0020064D01*
X0141783Y0020091D01*
X0141635Y0020118D01*
X0141465Y0020149D01*
X0141324Y0020175D01*
X0141082Y0020220D01*
X0141007Y0020234D01*
X0140853Y0020263D01*
X0140686Y0020295D01*
X0140537Y0020323D01*
X0140368Y0020355D01*
X0140238Y0020379D01*
X0140057Y0020414D01*
X0139894Y0020445D01*
X0139749Y0020473D01*
X0139584Y0020505D01*
X0139423Y0020536D01*
X0139269Y0020566D01*
X0139118Y0020596D01*
X0139032Y0020613D01*
X0138791Y0020660D01*
X0138647Y0020689D01*
X0138485Y0020721D01*
X0138317Y0020754D01*
X0138167Y0020784D01*
X0138013Y0020815D01*
X0137856Y0020847D01*
X0137695Y0020880D01*
X0137538Y0020912D01*
X0137382Y0020943D01*
X0137233Y0020974D01*
X0137065Y0021008D01*
X0136910Y0021041D01*
X0136748Y0021074D01*
X0136597Y0021105D01*
X0136435Y0021139D01*
X0136280Y0021172D01*
X0136138Y0021202D01*
X0135963Y0021239D01*
X0135810Y0021271D01*
X0135630Y0021310D01*
X0135498Y0021338D01*
X0135327Y0021375D01*
X0135177Y0021407D01*
X0135037Y0021438D01*
X0134871Y0021474D01*
X0134747Y0021501D01*
X0134547Y0021545D01*
X0134389Y0021579D01*
X0134238Y0021613D01*
X0134086Y0021647D01*
X0133911Y0021686D01*
X0133775Y0021716D01*
X0133601Y0021755D01*
X0133454Y0021789D01*
X0133293Y0021825D01*
X0133137Y0021861D01*
X0132988Y0021895D01*
X0132827Y0021932D01*
X0132686Y0021964D01*
X0132514Y0022004D01*
X0132352Y0022041D01*
X0132204Y0022076D01*
X0132049Y0022112D01*
X0131890Y0022150D01*
X0131724Y0022189D01*
X0131575Y0022224D01*
X0131421Y0022261D01*
X0131261Y0022299D01*
X0131109Y0022336D01*
X0130953Y0022373D01*
X0130797Y0022411D01*
X0130642Y0022449D01*
X0130484Y0022487D01*
X0130327Y0022526D01*
X0130176Y0022563D01*
X0130012Y0022603D01*
X0129867Y0022639D01*
X0129698Y0022681D01*
X0129549Y0022719D01*
X0129406Y0022754D01*
X0130356Y0023148D01*
X0131633Y0024425D01*
X0132286Y0026000D01*
X0132855Y0026000D01*
X0134325Y0024530D01*
X0135160Y0023696D01*
X0136250Y0023244D01*
X0139791Y0023244D01*
X0140881Y0023696D01*
X0144882Y0027696D01*
X0144596Y0026399D02*
X0143585Y0026399D01*
X0144307Y0024801D02*
X0141986Y0024801D01*
X0144307Y0023202D02*
X0130410Y0023202D01*
X0131789Y0024801D02*
X0134055Y0024801D01*
X0134280Y0021604D02*
X0144681Y0021604D01*
X0142253Y0020005D02*
X0147425Y0020005D01*
X0162483Y0034392D02*
X0174143Y0034392D01*
X0169286Y0032793D02*
X0168576Y0032793D01*
X0149214Y0042384D02*
X0148645Y0042384D01*
X0147616Y0040786D02*
X0139608Y0040786D01*
X0142378Y0039187D02*
X0146017Y0039187D01*
X0131709Y0040786D02*
X0131537Y0040786D01*
X0131537Y0042384D02*
X0131709Y0042384D01*
X0131709Y0043983D02*
X0131537Y0043983D01*
X0131537Y0045581D02*
X0131709Y0045581D01*
X0131537Y0047180D02*
X0132010Y0047180D01*
X0125606Y0047180D02*
X0124647Y0047180D01*
X0124647Y0048778D02*
X0125606Y0048778D01*
X0125606Y0050377D02*
X0124647Y0050377D01*
X0123881Y0051975D02*
X0125606Y0051975D01*
X0125606Y0045581D02*
X0124647Y0045581D01*
X0124647Y0043983D02*
X0125606Y0043983D01*
X0125606Y0042384D02*
X0123695Y0042384D01*
X0125582Y0040786D02*
X0125606Y0040786D01*
X0123244Y0026399D02*
X0117285Y0026399D01*
X0122076Y0024801D02*
X0123780Y0024801D01*
X0117415Y0061566D02*
X0101913Y0061566D01*
X0101913Y0063165D02*
X0103993Y0063165D01*
X0103937Y0063374D02*
X0104060Y0062916D01*
X0104297Y0062506D01*
X0104632Y0062171D01*
X0105042Y0061934D01*
X0105500Y0061811D01*
X0107423Y0061811D01*
X0107423Y0066478D01*
X0107594Y0066478D01*
X0107594Y0061811D01*
X0109517Y0061811D01*
X0109975Y0061934D01*
X0110386Y0062171D01*
X0110721Y0062506D01*
X0110958Y0062916D01*
X0111080Y0063374D01*
X0111080Y0066478D01*
X0107595Y0066478D01*
X0107595Y0066650D01*
X0111080Y0066650D01*
X0111080Y0069754D01*
X0110958Y0070211D01*
X0110721Y0070622D01*
X0110386Y0070957D01*
X0109975Y0071194D01*
X0109517Y0071317D01*
X0107594Y0071317D01*
X0107594Y0066650D01*
X0107423Y0066650D01*
X0107423Y0071317D01*
X0105500Y0071317D01*
X0105042Y0071194D01*
X0104632Y0070957D01*
X0104297Y0070622D01*
X0104060Y0070211D01*
X0103937Y0069754D01*
X0103937Y0066650D01*
X0107423Y0066650D01*
X0107423Y0066478D01*
X0103937Y0066478D01*
X0103937Y0063374D01*
X0103937Y0064763D02*
X0101913Y0064763D01*
X0101913Y0066362D02*
X0103937Y0066362D01*
X0103937Y0067960D02*
X0101913Y0067960D01*
X0101913Y0069559D02*
X0103937Y0069559D01*
X0104979Y0071157D02*
X0101913Y0071157D01*
X0101913Y0072756D02*
X0117535Y0072756D01*
X0117535Y0074354D02*
X0101913Y0074354D01*
X0101913Y0075953D02*
X0117535Y0075953D01*
X0117535Y0077551D02*
X0102036Y0077551D01*
X0102603Y0079150D02*
X0117535Y0079150D01*
X0117535Y0080748D02*
X0103770Y0080748D01*
X0105988Y0082347D02*
X0117512Y0082347D01*
X0117968Y0083946D02*
X0108990Y0083946D01*
X0112464Y0085544D02*
X0119859Y0085544D01*
X0121973Y0087143D02*
X0116482Y0087143D01*
X0121139Y0088741D02*
X0124031Y0088741D01*
X0129647Y0083946D02*
X0185382Y0083946D01*
X0184852Y0085544D02*
X0132122Y0085544D01*
X0132959Y0087143D02*
X0162508Y0087143D01*
X0161630Y0088741D02*
X0133112Y0088741D01*
X0132688Y0090340D02*
X0161630Y0090340D01*
X0161630Y0091938D02*
X0132973Y0091938D01*
X0140660Y0093537D02*
X0161630Y0093537D01*
X0161630Y0095135D02*
X0150156Y0095135D01*
X0162581Y0096734D02*
X0162863Y0096734D01*
X0175382Y0096734D02*
X0183897Y0096734D01*
X0181004Y0098332D02*
X0234541Y0098332D01*
X0233283Y0096734D02*
X0228777Y0096734D01*
X0230375Y0095135D02*
X0233283Y0095135D01*
X0238351Y0098332D02*
X0255663Y0098332D01*
X0265370Y0095135D02*
X0242970Y0095135D01*
X0242970Y0095107D02*
X0242970Y0096328D01*
X0242847Y0096786D01*
X0242610Y0097197D01*
X0242275Y0097532D01*
X0241865Y0097769D01*
X0241407Y0097891D01*
X0240383Y0097891D01*
X0240383Y0095107D01*
X0242970Y0095107D01*
X0242861Y0096734D02*
X0265833Y0096734D01*
X0265483Y0093537D02*
X0245483Y0093537D01*
X0245923Y0091938D02*
X0249643Y0091938D01*
X0249606Y0090340D02*
X0245923Y0090340D01*
X0245923Y0089989D02*
X0242548Y0089989D01*
X0242548Y0085827D01*
X0244360Y0085827D01*
X0244818Y0085949D01*
X0245228Y0086186D01*
X0245563Y0086522D01*
X0245800Y0086932D01*
X0245923Y0087390D01*
X0245923Y0089989D01*
X0245923Y0088741D02*
X0249031Y0088741D01*
X0249031Y0087143D02*
X0245857Y0087143D01*
X0242548Y0087143D02*
X0242548Y0087143D01*
X0242548Y0088741D02*
X0242548Y0088741D01*
X0241887Y0085544D02*
X0249031Y0085544D01*
X0249367Y0083946D02*
X0242757Y0083946D01*
X0242757Y0082347D02*
X0249569Y0082347D01*
X0249228Y0080748D02*
X0242757Y0080748D01*
X0242757Y0079150D02*
X0249228Y0079150D01*
X0249228Y0077551D02*
X0242327Y0077551D01*
X0240923Y0075953D02*
X0248864Y0075953D01*
X0241699Y0074354D02*
X0241002Y0074354D01*
X0234035Y0080748D02*
X0230553Y0080748D01*
X0230553Y0081084D02*
X0231768Y0082299D01*
X0232705Y0082299D01*
X0233180Y0082496D01*
X0233847Y0082496D01*
X0234858Y0082915D01*
X0234858Y0081572D01*
X0227328Y0074041D01*
X0227256Y0074165D01*
X0226921Y0074500D01*
X0226511Y0074737D01*
X0226053Y0074860D01*
X0224832Y0074860D01*
X0224832Y0072273D01*
X0224831Y0072273D01*
X0224831Y0074860D01*
X0224057Y0074860D01*
X0224057Y0076182D01*
X0224465Y0076591D01*
X0229162Y0076591D01*
X0230553Y0077982D01*
X0230553Y0081084D01*
X0230553Y0079150D02*
X0232437Y0079150D01*
X0230838Y0077551D02*
X0230123Y0077551D01*
X0229240Y0075953D02*
X0224057Y0075953D01*
X0224831Y0074354D02*
X0224832Y0074354D01*
X0224831Y0072756D02*
X0224832Y0072756D01*
X0224832Y0072272D02*
X0224832Y0069685D01*
X0225606Y0069685D01*
X0225606Y0067066D01*
X0225116Y0066577D01*
X0224425Y0064908D01*
X0224425Y0064471D01*
X0224254Y0064642D01*
X0224254Y0069685D01*
X0224831Y0069685D01*
X0224831Y0072272D01*
X0224832Y0072272D01*
X0224831Y0071157D02*
X0224832Y0071157D01*
X0224254Y0069559D02*
X0225606Y0069559D01*
X0225606Y0067960D02*
X0224254Y0067960D01*
X0224254Y0066362D02*
X0225027Y0066362D01*
X0224425Y0064763D02*
X0224254Y0064763D01*
X0216157Y0058446D02*
X0214351Y0060252D01*
X0214202Y0060252D01*
X0214049Y0060316D01*
X0215712Y0058653D01*
X0215712Y0056918D01*
X0211525Y0056918D01*
X0211525Y0056918D01*
X0215712Y0056918D01*
X0215712Y0055338D01*
X0216157Y0055784D01*
X0216157Y0058446D01*
X0216157Y0058369D02*
X0215712Y0058369D01*
X0215712Y0056771D02*
X0216157Y0056771D01*
X0211524Y0056771D02*
X0211524Y0056771D01*
X0211524Y0056918D02*
X0211524Y0052731D01*
X0211524Y0056918D01*
X0207337Y0056918D01*
X0207337Y0055184D01*
X0209790Y0052731D01*
X0211524Y0052731D01*
X0213104Y0052731D01*
X0208446Y0048072D01*
X0197910Y0048072D01*
X0195999Y0049983D01*
X0195327Y0050262D01*
X0195212Y0050377D01*
X0194122Y0050828D01*
X0192943Y0050828D01*
X0193151Y0051330D01*
X0193151Y0052362D01*
X0194320Y0052362D01*
X0196525Y0052362D01*
X0196983Y0052485D01*
X0197393Y0052722D01*
X0197729Y0053057D01*
X0197966Y0053467D01*
X0198024Y0053684D01*
X0199552Y0052156D01*
X0203497Y0052156D01*
X0206287Y0054946D01*
X0206287Y0058891D01*
X0203497Y0061680D01*
X0200913Y0061680D01*
X0202831Y0063598D01*
X0203374Y0063598D01*
X0203571Y0063795D01*
X0203924Y0063795D01*
X0204250Y0063008D01*
X0205527Y0061731D01*
X0207196Y0061039D01*
X0209002Y0061039D01*
X0210671Y0061731D01*
X0211378Y0062438D01*
X0212710Y0061105D01*
X0211524Y0061105D01*
X0209790Y0061105D01*
X0207337Y0058653D01*
X0207337Y0056918D01*
X0211524Y0056918D01*
X0211524Y0056918D01*
X0211524Y0056918D01*
X0211524Y0061105D01*
X0211524Y0056918D01*
X0211524Y0056918D01*
X0211524Y0058369D02*
X0211524Y0058369D01*
X0211524Y0059968D02*
X0211524Y0059968D01*
X0212249Y0061566D02*
X0210275Y0061566D01*
X0208652Y0059968D02*
X0205209Y0059968D01*
X0205924Y0061566D02*
X0203611Y0061566D01*
X0204185Y0063165D02*
X0202398Y0063165D01*
X0206287Y0058369D02*
X0207337Y0058369D01*
X0207337Y0056771D02*
X0206287Y0056771D01*
X0206287Y0055172D02*
X0207348Y0055172D01*
X0208947Y0053574D02*
X0204915Y0053574D01*
X0198134Y0053574D02*
X0197994Y0053574D01*
X0194320Y0053574D02*
X0194320Y0053574D01*
X0194320Y0052362D02*
X0194320Y0055737D01*
X0194320Y0055737D01*
X0194320Y0052362D01*
X0193151Y0051975D02*
X0212349Y0051975D01*
X0211524Y0053574D02*
X0211524Y0053574D01*
X0211524Y0055172D02*
X0211524Y0055172D01*
X0210750Y0050377D02*
X0195212Y0050377D01*
X0197204Y0048778D02*
X0209152Y0048778D01*
X0212743Y0043983D02*
X0219215Y0043983D01*
X0218913Y0043254D02*
X0219605Y0044923D01*
X0220882Y0046200D01*
X0222550Y0046891D01*
X0224357Y0046891D01*
X0226025Y0046200D01*
X0226906Y0045319D01*
X0229218Y0045449D01*
X0232366Y0048598D01*
X0231623Y0048905D01*
X0230906Y0049622D01*
X0220501Y0049622D01*
X0219412Y0050073D01*
X0219123Y0050362D01*
X0211354Y0042593D01*
X0210264Y0042142D01*
X0198269Y0042142D01*
X0198269Y0036249D01*
X0197691Y0035671D01*
X0198603Y0035671D01*
X0199089Y0036157D01*
X0199923Y0036991D01*
X0201013Y0037443D01*
X0223995Y0037443D01*
X0224368Y0037816D01*
X0224357Y0037811D01*
X0222550Y0037811D01*
X0220882Y0038502D01*
X0219605Y0039779D01*
X0218913Y0041448D01*
X0218913Y0043254D01*
X0218913Y0042384D02*
X0210849Y0042384D01*
X0214342Y0045581D02*
X0220263Y0045581D01*
X0217539Y0048778D02*
X0231930Y0048778D01*
X0230948Y0047180D02*
X0215940Y0047180D01*
X0219188Y0040786D02*
X0198269Y0040786D01*
X0198269Y0039187D02*
X0220197Y0039187D01*
X0224141Y0037589D02*
X0198269Y0037589D01*
X0198010Y0035990D02*
X0198923Y0035990D01*
X0194689Y0034858D02*
X0194110Y0034280D01*
X0194110Y0027588D01*
X0195501Y0026197D01*
X0199728Y0026197D01*
X0198986Y0025454D01*
X0198205Y0023569D01*
X0198205Y0021527D01*
X0198951Y0019726D01*
X0194799Y0019726D01*
X0195317Y0020976D01*
X0195317Y0022782D01*
X0194625Y0024451D01*
X0193348Y0025728D01*
X0191679Y0026419D01*
X0189873Y0026419D01*
X0188232Y0025739D01*
X0188427Y0026210D01*
X0188427Y0026604D01*
X0188631Y0026808D01*
X0188768Y0026772D01*
X0190579Y0026772D01*
X0190579Y0030934D01*
X0190579Y0035096D01*
X0188768Y0035096D01*
X0188631Y0035059D01*
X0188427Y0035264D01*
X0188427Y0035414D01*
X0189642Y0036630D01*
X0190370Y0036630D01*
X0190370Y0036249D01*
X0191523Y0035096D01*
X0190580Y0035096D01*
X0190580Y0030934D01*
X0193954Y0030934D01*
X0193954Y0033533D01*
X0193832Y0033991D01*
X0193595Y0034401D01*
X0193260Y0034736D01*
X0193048Y0034858D01*
X0194689Y0034858D01*
X0194222Y0034392D02*
X0193600Y0034392D01*
X0193954Y0032793D02*
X0194110Y0032793D01*
X0194110Y0031195D02*
X0193954Y0031195D01*
X0193954Y0030934D02*
X0190580Y0030934D01*
X0190580Y0030934D01*
X0190579Y0030934D01*
X0190580Y0030934D01*
X0190580Y0026772D01*
X0192391Y0026772D01*
X0192849Y0026894D01*
X0193260Y0027131D01*
X0193595Y0027466D01*
X0193832Y0027877D01*
X0193954Y0028335D01*
X0193954Y0030934D01*
X0193954Y0029596D02*
X0194110Y0029596D01*
X0194110Y0027998D02*
X0193864Y0027998D01*
X0195299Y0026399D02*
X0191727Y0026399D01*
X0189826Y0026399D02*
X0188427Y0026399D01*
X0190579Y0027998D02*
X0190580Y0027998D01*
X0190579Y0029596D02*
X0190580Y0029596D01*
X0190579Y0031195D02*
X0190580Y0031195D01*
X0190579Y0032793D02*
X0190580Y0032793D01*
X0190579Y0034392D02*
X0190580Y0034392D01*
X0190629Y0035990D02*
X0189003Y0035990D01*
X0202009Y0030690D02*
X0202009Y0027588D01*
X0201948Y0027527D01*
X0202315Y0027679D01*
X0204356Y0027679D01*
X0206242Y0026898D01*
X0207685Y0025454D01*
X0208466Y0023569D01*
X0208466Y0021527D01*
X0207720Y0019726D01*
X0209754Y0019726D01*
X0209439Y0020160D01*
X0209113Y0020799D01*
X0208892Y0021481D01*
X0208780Y0022189D01*
X0208780Y0022364D01*
X0213151Y0022364D01*
X0213151Y0022732D01*
X0208780Y0022732D01*
X0208780Y0022907D01*
X0208892Y0023615D01*
X0209113Y0024297D01*
X0209439Y0024936D01*
X0209860Y0025516D01*
X0210367Y0026023D01*
X0210948Y0026445D01*
X0211587Y0026770D01*
X0212269Y0026992D01*
X0212977Y0027104D01*
X0213151Y0027104D01*
X0213151Y0022732D01*
X0213520Y0022732D01*
X0217891Y0022732D01*
X0217891Y0022907D01*
X0217779Y0023615D01*
X0217558Y0024297D01*
X0217232Y0024936D01*
X0216810Y0025516D01*
X0216303Y0026023D01*
X0215723Y0026445D01*
X0215084Y0026770D01*
X0214402Y0026992D01*
X0213694Y0027104D01*
X0213520Y0027104D01*
X0213520Y0022732D01*
X0213520Y0022364D01*
X0217891Y0022364D01*
X0217891Y0022189D01*
X0217779Y0021481D01*
X0217558Y0020799D01*
X0217232Y0020160D01*
X0216916Y0019726D01*
X0218951Y0019726D01*
X0218205Y0021527D01*
X0218205Y0023569D01*
X0218986Y0025454D01*
X0220094Y0026563D01*
X0220094Y0029949D01*
X0220546Y0031039D01*
X0221019Y0031512D01*
X0202831Y0031512D01*
X0202009Y0030690D01*
X0202514Y0031195D02*
X0220702Y0031195D01*
X0220094Y0029596D02*
X0202009Y0029596D01*
X0202009Y0027998D02*
X0220094Y0027998D01*
X0219931Y0026399D02*
X0215786Y0026399D01*
X0217301Y0024801D02*
X0218715Y0024801D01*
X0218205Y0023202D02*
X0217845Y0023202D01*
X0217799Y0021604D02*
X0218205Y0021604D01*
X0218835Y0020005D02*
X0217119Y0020005D01*
X0213520Y0023202D02*
X0213151Y0023202D01*
X0213151Y0024801D02*
X0213520Y0024801D01*
X0213520Y0026399D02*
X0213151Y0026399D01*
X0210885Y0026399D02*
X0206740Y0026399D01*
X0207956Y0024801D02*
X0209370Y0024801D01*
X0208826Y0023202D02*
X0208466Y0023202D01*
X0208466Y0021604D02*
X0208872Y0021604D01*
X0209552Y0020005D02*
X0207836Y0020005D01*
X0198835Y0020005D02*
X0194914Y0020005D01*
X0195317Y0021604D02*
X0198205Y0021604D01*
X0198205Y0023202D02*
X0195142Y0023202D01*
X0194275Y0024801D02*
X0198715Y0024801D01*
X0226644Y0045581D02*
X0229349Y0045581D01*
X0245993Y0032370D02*
X0247153Y0033530D01*
X0247575Y0033705D01*
X0248353Y0034484D01*
X0250715Y0036845D01*
X0250734Y0036826D01*
X0251145Y0036589D01*
X0251603Y0036466D01*
X0251977Y0036466D01*
X0251661Y0036150D01*
X0251000Y0034554D01*
X0251000Y0032826D01*
X0251661Y0031229D01*
X0252535Y0030356D01*
X0245548Y0030356D01*
X0244195Y0031709D01*
X0244396Y0031709D01*
X0245993Y0032370D01*
X0246416Y0032793D02*
X0251014Y0032793D01*
X0251000Y0034392D02*
X0248261Y0034392D01*
X0249860Y0035990D02*
X0251595Y0035990D01*
X0251696Y0031195D02*
X0244709Y0031195D01*
X0263593Y0016093D02*
X0269275Y0021774D01*
X0269726Y0022864D01*
X0269726Y0024043D01*
X0269529Y0024519D01*
X0269529Y0028350D01*
X0269685Y0028194D01*
X0269685Y0027194D01*
X0272272Y0027194D01*
X0272272Y0027194D01*
X0269685Y0027194D01*
X0269685Y0025972D01*
X0269808Y0025515D01*
X0270045Y0025104D01*
X0270380Y0024769D01*
X0270790Y0024532D01*
X0271248Y0024409D01*
X0272272Y0024409D01*
X0272272Y0027194D01*
X0272272Y0027194D01*
X0272272Y0024409D01*
X0273228Y0024409D01*
X0273228Y0023217D01*
X0273351Y0022759D01*
X0273588Y0022348D01*
X0273923Y0022013D01*
X0274334Y0021776D01*
X0274791Y0021654D01*
X0277206Y0021654D01*
X0277206Y0025238D01*
X0277575Y0025238D01*
X0277575Y0025606D01*
X0281553Y0025606D01*
X0281553Y0027628D01*
X0281430Y0028085D01*
X0281193Y0028496D01*
X0280858Y0028831D01*
X0280647Y0028953D01*
X0280736Y0028953D01*
X0281107Y0029323D01*
X0284465Y0025965D01*
X0284465Y0022470D01*
X0285856Y0021079D01*
X0292547Y0021079D01*
X0293939Y0022470D01*
X0293939Y0022625D01*
X0294621Y0022908D01*
X0295456Y0023742D01*
X0295942Y0024228D01*
X0296878Y0024228D01*
X0298269Y0025619D01*
X0298269Y0029555D01*
X0297694Y0030130D01*
X0297694Y0031131D01*
X0297694Y0032352D01*
X0297572Y0032810D01*
X0297335Y0033220D01*
X0297000Y0033555D01*
X0296589Y0033792D01*
X0296131Y0033915D01*
X0295107Y0033915D01*
X0294083Y0033915D01*
X0293625Y0033792D01*
X0293364Y0033642D01*
X0293364Y0035502D01*
X0293241Y0035959D01*
X0293004Y0036370D01*
X0292669Y0036705D01*
X0292259Y0036942D01*
X0291801Y0037065D01*
X0289386Y0037065D01*
X0289386Y0033480D01*
X0289017Y0033480D01*
X0289017Y0037065D01*
X0286602Y0037065D01*
X0286261Y0036973D01*
X0286261Y0037429D01*
X0285859Y0038402D01*
X0291760Y0038402D01*
X0292592Y0039233D01*
X0293323Y0038502D01*
X0294991Y0037811D01*
X0296798Y0037811D01*
X0298466Y0038502D01*
X0299350Y0039386D01*
X0302784Y0039386D01*
X0303873Y0039837D01*
X0310566Y0046530D01*
X0311401Y0047364D01*
X0311852Y0048454D01*
X0311852Y0058052D01*
X0315036Y0061236D01*
X0318925Y0061236D01*
X0320317Y0062627D01*
X0320317Y0063604D01*
X0321393Y0064050D01*
X0322227Y0064884D01*
X0322320Y0064976D01*
X0323569Y0064976D01*
X0325016Y0065576D01*
X0325016Y0062627D01*
X0326407Y0061236D01*
X0331918Y0061236D01*
X0333309Y0062627D01*
X0333309Y0070500D01*
X0332128Y0071681D01*
X0332128Y0072665D01*
X0331676Y0073755D01*
X0317751Y0087681D01*
X0317433Y0088047D01*
X0317336Y0088095D01*
X0317259Y0088172D01*
X0317209Y0088193D01*
X0317236Y0088184D01*
X0317387Y0088133D01*
X0317530Y0088085D01*
X0317685Y0088032D01*
X0317834Y0087981D01*
X0317985Y0087930D01*
X0318136Y0087878D01*
X0318285Y0087826D01*
X0318436Y0087773D01*
X0318579Y0087723D01*
X0318736Y0087669D01*
X0318880Y0087618D01*
X0319036Y0087562D01*
X0319184Y0087510D01*
X0319328Y0087458D01*
X0319480Y0087403D01*
X0319630Y0087349D01*
X0319773Y0087297D01*
X0319930Y0087240D01*
X0320064Y0087190D01*
X0320226Y0087130D01*
X0320373Y0087076D01*
X0320521Y0087021D01*
X0320672Y0086964D01*
X0320814Y0086910D01*
X0320970Y0086851D01*
X0321111Y0086798D01*
X0321268Y0086737D01*
X0321410Y0086683D01*
X0321557Y0086626D01*
X0321704Y0086569D01*
X0321853Y0086510D01*
X0321998Y0086453D01*
X0322146Y0086395D01*
X0322293Y0086337D01*
X0322440Y0086277D01*
X0322588Y0086218D01*
X0322733Y0086159D01*
X0322881Y0086099D01*
X0323026Y0086040D01*
X0323173Y0085980D01*
X0323318Y0085920D01*
X0323466Y0085858D01*
X0323610Y0085798D01*
X0323754Y0085737D01*
X0323901Y0085675D01*
X0324048Y0085613D01*
X0324196Y0085550D01*
X0324337Y0085489D01*
X0324477Y0085428D01*
X0324630Y0085362D01*
X0324773Y0085300D01*
X0324919Y0085235D01*
X0325060Y0085173D01*
X0325205Y0085108D01*
X0325352Y0085043D01*
X0325496Y0084978D01*
X0325640Y0084913D01*
X0325782Y0084848D01*
X0325926Y0084782D01*
X0326067Y0084717D01*
X0326215Y0084648D01*
X0326358Y0084582D01*
X0326501Y0084515D01*
X0326642Y0084448D01*
X0326786Y0084380D01*
X0326928Y0084312D01*
X0327071Y0084244D01*
X0327214Y0084175D01*
X0327356Y0084106D01*
X0327499Y0084035D01*
X0327638Y0083967D01*
X0327781Y0083896D01*
X0327923Y0083825D01*
X0328064Y0083754D01*
X0328204Y0083684D01*
X0328343Y0083613D01*
X0328487Y0083539D01*
X0328626Y0083468D01*
X0328769Y0083393D01*
X0328907Y0083321D01*
X0329048Y0083247D01*
X0329184Y0083175D01*
X0329326Y0083099D01*
X0329466Y0083024D01*
X0329605Y0082948D01*
X0329743Y0082873D01*
X0329883Y0082797D01*
X0330018Y0082722D01*
X0330161Y0082643D01*
X0330295Y0082567D01*
X0330437Y0082487D01*
X0330570Y0082411D01*
X0330710Y0082331D01*
X0330847Y0082252D01*
X0330984Y0082173D01*
X0331121Y0082092D01*
X0331255Y0082013D01*
X0331392Y0081932D01*
X0331529Y0081850D01*
X0331660Y0081770D01*
X0331798Y0081687D01*
X0332646Y0081063D01*
X0333968Y0079434D01*
X0334669Y0077457D01*
X0334758Y0076408D01*
X0334758Y0037429D01*
X0334669Y0036380D01*
X0333968Y0034403D01*
X0332646Y0032774D01*
X0331798Y0032150D01*
X0331680Y0032078D01*
X0331561Y0032006D01*
X0331440Y0031934D01*
X0331321Y0031862D01*
X0331203Y0031792D01*
X0331082Y0031721D01*
X0330961Y0031650D01*
X0330842Y0031581D01*
X0330718Y0031509D01*
X0330600Y0031442D01*
X0330478Y0031373D01*
X0330355Y0031303D01*
X0330237Y0031236D01*
X0330113Y0031167D01*
X0329991Y0031100D01*
X0329871Y0031033D01*
X0329746Y0030965D01*
X0329623Y0030897D01*
X0329502Y0030832D01*
X0329379Y0030765D01*
X0329257Y0030700D01*
X0329130Y0030633D01*
X0329011Y0030570D01*
X0328885Y0030503D01*
X0328761Y0030439D01*
X0328638Y0030375D01*
X0328513Y0030311D01*
X0328389Y0030246D01*
X0328266Y0030184D01*
X0328137Y0030119D01*
X0328015Y0030057D01*
X0327888Y0029994D01*
X0327765Y0029932D01*
X0327637Y0029869D01*
X0327512Y0029807D01*
X0327385Y0029745D01*
X0327261Y0029684D01*
X0327135Y0029623D01*
X0327006Y0029561D01*
X0326883Y0029502D01*
X0326756Y0029442D01*
X0326634Y0029384D01*
X0326500Y0029321D01*
X0326375Y0029262D01*
X0326248Y0029203D01*
X0326117Y0029142D01*
X0325990Y0029084D01*
X0325865Y0029026D01*
X0325733Y0028966D01*
X0325609Y0028910D01*
X0325481Y0028852D01*
X0325351Y0028794D01*
X0325209Y0028730D01*
X0325095Y0028679D01*
X0324964Y0028622D01*
X0324836Y0028565D01*
X0324706Y0028508D01*
X0324579Y0028453D01*
X0324446Y0028395D01*
X0324318Y0028340D01*
X0324194Y0028287D01*
X0324059Y0028229D01*
X0323928Y0028173D01*
X0323800Y0028119D01*
X0323666Y0028063D01*
X0323544Y0028012D01*
X0323408Y0027955D01*
X0323279Y0027902D01*
X0323146Y0027847D01*
X0323012Y0027792D01*
X0322886Y0027740D01*
X0322781Y0027698D01*
X0322621Y0027633D01*
X0322497Y0027583D01*
X0322359Y0027528D01*
X0322231Y0027477D01*
X0322088Y0027420D01*
X0321967Y0027372D01*
X0321833Y0027320D01*
X0321704Y0027269D01*
X0321572Y0027218D01*
X0321435Y0027165D01*
X0321306Y0027115D01*
X0321179Y0027066D01*
X0321043Y0027014D01*
X0320909Y0026963D01*
X0320784Y0026916D01*
X0320646Y0026864D01*
X0320516Y0026815D01*
X0320382Y0026765D01*
X0320244Y0026714D01*
X0320118Y0026667D01*
X0319984Y0026618D01*
X0319849Y0026568D01*
X0319716Y0026520D01*
X0319587Y0026473D01*
X0319444Y0026421D01*
X0319320Y0026377D01*
X0319187Y0026329D01*
X0319044Y0026278D01*
X0318926Y0026236D01*
X0318783Y0026185D01*
X0318655Y0026140D01*
X0318518Y0026092D01*
X0318396Y0026049D01*
X0318250Y0025999D01*
X0318119Y0025953D01*
X0317978Y0025905D01*
X0317849Y0025860D01*
X0317722Y0025817D01*
X0317583Y0025770D01*
X0317448Y0025724D01*
X0317312Y0025678D01*
X0317184Y0025635D01*
X0317046Y0025589D01*
X0316904Y0025542D01*
X0316775Y0025499D01*
X0316649Y0025457D01*
X0316507Y0025411D01*
X0316373Y0025366D01*
X0316246Y0025325D01*
X0316098Y0025277D01*
X0315970Y0025235D01*
X0315821Y0025188D01*
X0315702Y0025149D01*
X0315563Y0025105D01*
X0315427Y0025062D01*
X0315296Y0025020D01*
X0315157Y0024976D01*
X0315032Y0024937D01*
X0314890Y0024892D01*
X0314756Y0024850D01*
X0314624Y0024810D01*
X0314479Y0024765D01*
X0314342Y0024723D01*
X0314215Y0024683D01*
X0314067Y0024638D01*
X0313947Y0024602D01*
X0313803Y0024558D01*
X0313670Y0024518D01*
X0313533Y0024477D01*
X0313393Y0024435D01*
X0313259Y0024395D01*
X0313129Y0024356D01*
X0312932Y0024298D01*
X0312855Y0024275D01*
X0312719Y0024235D01*
X0312567Y0024191D01*
X0312446Y0024155D01*
X0312311Y0024116D01*
X0312170Y0024075D01*
X0312039Y0024038D01*
X0311863Y0023987D01*
X0311766Y0023960D01*
X0311629Y0023921D01*
X0311488Y0023881D01*
X0311354Y0023843D01*
X0311222Y0023806D01*
X0311079Y0023766D01*
X0310943Y0023728D01*
X0310813Y0023692D01*
X0310672Y0023652D01*
X0310535Y0023615D01*
X0310398Y0023577D01*
X0310258Y0023539D01*
X0310126Y0023503D01*
X0309985Y0023465D01*
X0309851Y0023428D01*
X0309714Y0023391D01*
X0309564Y0023351D01*
X0309440Y0023318D01*
X0309324Y0023287D01*
X0309159Y0023243D01*
X0309031Y0023209D01*
X0308884Y0023171D01*
X0308755Y0023137D01*
X0308611Y0023099D01*
X0308472Y0023063D01*
X0308341Y0023029D01*
X0308169Y0022985D01*
X0308066Y0022958D01*
X0307914Y0022919D01*
X0307788Y0022887D01*
X0307653Y0022853D01*
X0307509Y0022816D01*
X0307378Y0022783D01*
X0307237Y0022747D01*
X0307100Y0022713D01*
X0306955Y0022677D01*
X0306823Y0022644D01*
X0306672Y0022607D01*
X0306561Y0022579D01*
X0306336Y0022524D01*
X0306260Y0022505D01*
X0306134Y0022474D01*
X0305999Y0022441D01*
X0305852Y0022406D01*
X0305712Y0022372D01*
X0305582Y0022341D01*
X0305432Y0022304D01*
X0305310Y0022275D01*
X0305170Y0022242D01*
X0304888Y0022175D01*
X0304648Y0022118D01*
X0304605Y0022108D01*
X0304472Y0022077D01*
X0304334Y0022045D01*
X0304190Y0022011D01*
X0304050Y0021979D01*
X0303911Y0021947D01*
X0303777Y0021916D01*
X0303650Y0021887D01*
X0303483Y0021849D01*
X0303356Y0021820D01*
X0303224Y0021790D01*
X0303081Y0021758D01*
X0302928Y0021724D01*
X0302827Y0021701D01*
X0302664Y0021664D01*
X0302515Y0021631D01*
X0302380Y0021601D01*
X0302252Y0021573D01*
X0302104Y0021540D01*
X0301974Y0021512D01*
X0301825Y0021479D01*
X0301682Y0021448D01*
X0301556Y0021421D01*
X0301406Y0021388D01*
X0301129Y0021329D01*
X0301009Y0021303D01*
X0300846Y0021268D01*
X0300704Y0021238D01*
X0300573Y0021210D01*
X0300436Y0021181D01*
X0300310Y0021155D01*
X0300160Y0021124D01*
X0299996Y0021089D01*
X0299867Y0021063D01*
X0299734Y0021035D01*
X0299599Y0021007D01*
X0299455Y0020977D01*
X0299306Y0020947D01*
X0299176Y0020920D01*
X0299030Y0020891D01*
X0298893Y0020863D01*
X0298756Y0020835D01*
X0298615Y0020807D01*
X0298467Y0020777D01*
X0298341Y0020752D01*
X0298199Y0020724D01*
X0298054Y0020695D01*
X0297911Y0020666D01*
X0297774Y0020639D01*
X0297642Y0020613D01*
X0297490Y0020584D01*
X0297354Y0020557D01*
X0297209Y0020529D01*
X0297097Y0020507D01*
X0296938Y0020476D01*
X0296653Y0020422D01*
X0296504Y0020393D01*
X0296376Y0020369D01*
X0296238Y0020343D01*
X0296089Y0020314D01*
X0295951Y0020288D01*
X0295817Y0020263D01*
X0295656Y0020233D01*
X0295538Y0020211D01*
X0295389Y0020183D01*
X0295107Y0020131D01*
X0294996Y0020111D01*
X0294876Y0020089D01*
X0294681Y0020053D01*
X0294558Y0020031D01*
X0294401Y0020002D01*
X0294278Y0019980D01*
X0294124Y0019952D01*
X0293982Y0019926D01*
X0293854Y0019903D01*
X0293719Y0019879D01*
X0293565Y0019852D01*
X0293431Y0019828D01*
X0293279Y0019801D01*
X0293147Y0019778D01*
X0293006Y0019753D01*
X0292868Y0019729D01*
X0292729Y0019705D01*
X0292587Y0019680D01*
X0292441Y0019655D01*
X0292310Y0019632D01*
X0292162Y0019607D01*
X0292053Y0019588D01*
X0291879Y0019558D01*
X0291738Y0019534D01*
X0291617Y0019514D01*
X0291453Y0019486D01*
X0291309Y0019462D01*
X0291186Y0019441D01*
X0291041Y0019417D01*
X0290905Y0019394D01*
X0290743Y0019367D01*
X0290620Y0019347D01*
X0290497Y0019327D01*
X0290336Y0019300D01*
X0290219Y0019281D01*
X0290061Y0019255D01*
X0290043Y0019252D01*
X0290043Y0019252D01*
X0289760Y0019206D01*
X0289759Y0019207D01*
X0289213Y0019118D01*
X0288667Y0019032D01*
X0288599Y0019021D01*
X0288213Y0018961D01*
X0288212Y0018961D01*
X0287567Y0018861D01*
X0287248Y0018812D01*
X0287224Y0018808D01*
X0286557Y0018708D01*
X0286556Y0018707D01*
X0286260Y0018663D01*
X0285570Y0018561D01*
X0285556Y0018559D01*
X0284866Y0018460D01*
X0284866Y0018459D01*
X0284710Y0018437D01*
X0284020Y0018339D01*
X0284004Y0018337D01*
X0283567Y0018276D01*
X0283566Y0018277D01*
X0282877Y0018181D01*
X0282863Y0018179D01*
X0282863Y0018179D01*
X0282336Y0018108D01*
X0281765Y0018031D01*
X0281590Y0018008D01*
X0280918Y0017920D01*
X0280618Y0017881D01*
X0280079Y0017812D01*
X0279633Y0017755D01*
X0279335Y0017718D01*
X0279334Y0017718D01*
X0278750Y0017645D01*
X0278236Y0017582D01*
X0278236Y0017582D01*
X0278048Y0017559D01*
X0277389Y0017481D01*
X0277388Y0017480D01*
X0276949Y0017428D01*
X0276257Y0017347D01*
X0275961Y0017312D01*
X0275803Y0017294D01*
X0275379Y0017246D01*
X0275378Y0017247D01*
X0274685Y0017168D01*
X0274531Y0017151D01*
X0274530Y0017151D01*
X0273981Y0017090D01*
X0273429Y0017031D01*
X0273429Y0017030D01*
X0273398Y0017027D01*
X0273398Y0017027D01*
X0272848Y0016968D01*
X0272408Y0016922D01*
X0271857Y0016864D01*
X0271306Y0016807D01*
X0270865Y0016762D01*
X0270173Y0016693D01*
X0270173Y0016692D01*
X0270143Y0016690D01*
X0269479Y0016624D01*
X0268884Y0016566D01*
X0268191Y0016501D01*
X0268190Y0016500D01*
X0268180Y0016499D01*
X0268160Y0016497D01*
X0268160Y0016498D01*
X0267464Y0016432D01*
X0267168Y0016405D01*
X0267032Y0016393D01*
X0266884Y0016380D01*
X0266347Y0016331D01*
X0265781Y0016281D01*
X0265781Y0016280D01*
X0265609Y0016265D01*
X0265608Y0016266D01*
X0265223Y0016232D01*
X0264789Y0016194D01*
X0264788Y0016194D01*
X0264759Y0016191D01*
X0264758Y0016191D01*
X0264349Y0016156D01*
X0264332Y0016155D01*
X0264331Y0016155D01*
X0264051Y0016131D01*
X0263797Y0016110D01*
X0263796Y0016110D01*
X0263766Y0016107D01*
X0263593Y0016093D01*
X0264309Y0016808D02*
X0271313Y0016808D01*
X0271306Y0016807D02*
X0271306Y0016807D01*
X0272408Y0016922D02*
X0272408Y0016922D01*
X0270143Y0016690D02*
X0270143Y0016690D01*
X0267168Y0016405D02*
X0267168Y0016405D01*
X0266884Y0016380D02*
X0266884Y0016380D01*
X0265907Y0018407D02*
X0284496Y0018407D01*
X0285570Y0018561D02*
X0285570Y0018561D01*
X0285331Y0021604D02*
X0269104Y0021604D01*
X0269726Y0023202D02*
X0273232Y0023202D01*
X0272272Y0024801D02*
X0272272Y0024801D01*
X0272272Y0026399D02*
X0272272Y0026399D01*
X0270348Y0024801D02*
X0269529Y0024801D01*
X0269529Y0026399D02*
X0269685Y0026399D01*
X0269685Y0027998D02*
X0269529Y0027998D01*
X0277206Y0024801D02*
X0277575Y0024801D01*
X0277575Y0025238D02*
X0277575Y0021654D01*
X0279990Y0021654D01*
X0280448Y0021776D01*
X0280858Y0022013D01*
X0281193Y0022348D01*
X0281430Y0022759D01*
X0281553Y0023217D01*
X0281553Y0025238D01*
X0277575Y0025238D01*
X0277575Y0023202D02*
X0277206Y0023202D01*
X0281549Y0023202D02*
X0284465Y0023202D01*
X0284465Y0024801D02*
X0281553Y0024801D01*
X0281553Y0026399D02*
X0284031Y0026399D01*
X0282432Y0027998D02*
X0281454Y0027998D01*
X0289017Y0034392D02*
X0289386Y0034392D01*
X0289386Y0035990D02*
X0289017Y0035990D01*
X0286195Y0037589D02*
X0307778Y0037589D01*
X0310087Y0039187D02*
X0299151Y0039187D01*
X0300803Y0034783D02*
X0302472Y0035474D01*
X0304278Y0035474D01*
X0304557Y0035359D01*
X0313205Y0041346D01*
X0313205Y0042155D01*
X0312024Y0043336D01*
X0312024Y0051209D01*
X0313415Y0052600D01*
X0318925Y0052600D01*
X0320317Y0051209D01*
X0320317Y0043336D01*
X0319135Y0042155D01*
X0319135Y0040109D01*
X0319193Y0039842D01*
X0319135Y0039525D01*
X0319135Y0039202D01*
X0319031Y0038950D01*
X0318982Y0038681D01*
X0318807Y0038410D01*
X0318684Y0038112D01*
X0318491Y0037919D01*
X0318343Y0037690D01*
X0318078Y0037506D01*
X0317850Y0037278D01*
X0317598Y0037174D01*
X0307915Y0030470D01*
X0307915Y0030031D01*
X0307224Y0028362D01*
X0305947Y0027085D01*
X0304278Y0026394D01*
X0302472Y0026394D01*
X0300803Y0027085D01*
X0299526Y0028362D01*
X0298835Y0030031D01*
X0298835Y0031837D01*
X0299526Y0033506D01*
X0300803Y0034783D01*
X0300412Y0034392D02*
X0293364Y0034392D01*
X0293223Y0035990D02*
X0305469Y0035990D01*
X0299231Y0032793D02*
X0297576Y0032793D01*
X0297694Y0031195D02*
X0298835Y0031195D01*
X0297694Y0031131D02*
X0295107Y0031131D01*
X0295107Y0033915D01*
X0295107Y0031131D01*
X0295107Y0031131D01*
X0295107Y0031131D01*
X0297694Y0031131D01*
X0298228Y0029596D02*
X0299015Y0029596D01*
X0298269Y0027998D02*
X0299890Y0027998D01*
X0298269Y0026399D02*
X0302459Y0026399D01*
X0304291Y0026399D02*
X0319383Y0026399D01*
X0323510Y0027998D02*
X0306859Y0027998D01*
X0307735Y0029596D02*
X0327078Y0029596D01*
X0330162Y0031195D02*
X0308961Y0031195D01*
X0311270Y0032793D02*
X0332662Y0032793D01*
X0333959Y0034392D02*
X0313579Y0034392D01*
X0315888Y0035990D02*
X0334531Y0035990D01*
X0334758Y0037589D02*
X0318197Y0037589D01*
X0319129Y0039187D02*
X0334758Y0039187D01*
X0334758Y0040786D02*
X0319135Y0040786D01*
X0319365Y0042384D02*
X0334758Y0042384D01*
X0334758Y0043983D02*
X0332707Y0043983D01*
X0332734Y0044083D02*
X0332734Y0047187D01*
X0329248Y0047187D01*
X0329248Y0047358D01*
X0332734Y0047358D01*
X0332734Y0050462D01*
X0332611Y0050920D01*
X0332374Y0051330D01*
X0332039Y0051666D01*
X0331629Y0051903D01*
X0331171Y0052025D01*
X0329248Y0052025D01*
X0329248Y0047358D01*
X0329076Y0047358D01*
X0329076Y0047187D01*
X0325591Y0047187D01*
X0325591Y0044083D01*
X0325713Y0043625D01*
X0325950Y0043214D01*
X0326285Y0042879D01*
X0326696Y0042642D01*
X0327154Y0042520D01*
X0329076Y0042520D01*
X0329076Y0047187D01*
X0329248Y0047187D01*
X0329248Y0042520D01*
X0331171Y0042520D01*
X0331629Y0042642D01*
X0332039Y0042879D01*
X0332374Y0043214D01*
X0332611Y0043625D01*
X0332734Y0044083D01*
X0332734Y0045581D02*
X0334758Y0045581D01*
X0334758Y0047180D02*
X0332734Y0047180D01*
X0332734Y0048778D02*
X0334758Y0048778D01*
X0334758Y0050377D02*
X0332734Y0050377D01*
X0331357Y0051975D02*
X0334758Y0051975D01*
X0334758Y0053574D02*
X0311852Y0053574D01*
X0311852Y0055172D02*
X0334758Y0055172D01*
X0334758Y0056771D02*
X0311852Y0056771D01*
X0312169Y0058369D02*
X0334758Y0058369D01*
X0334758Y0059968D02*
X0313768Y0059968D01*
X0310176Y0064763D02*
X0297812Y0064763D01*
X0296214Y0063165D02*
X0308578Y0063165D01*
X0306979Y0061566D02*
X0294615Y0061566D01*
X0294782Y0060351D02*
X0293642Y0059212D01*
X0293026Y0057724D01*
X0293026Y0056113D01*
X0293642Y0054624D01*
X0294782Y0053485D01*
X0296270Y0052869D01*
X0297881Y0052869D01*
X0299370Y0053485D01*
X0300509Y0054624D01*
X0301125Y0056113D01*
X0301125Y0057724D01*
X0300509Y0059212D01*
X0299370Y0060351D01*
X0297881Y0060968D01*
X0296270Y0060968D01*
X0294782Y0060351D01*
X0294398Y0059968D02*
X0293017Y0059968D01*
X0293293Y0058369D02*
X0291418Y0058369D01*
X0291163Y0058114D02*
X0301293Y0068244D01*
X0302230Y0068244D01*
X0304188Y0069055D01*
X0305687Y0070554D01*
X0306360Y0072180D01*
X0311976Y0066564D01*
X0306373Y0060960D01*
X0305921Y0059870D01*
X0305921Y0050272D01*
X0300965Y0045317D01*
X0299350Y0045317D01*
X0298466Y0046200D01*
X0296798Y0046891D01*
X0294991Y0046891D01*
X0293323Y0046200D01*
X0292592Y0045469D01*
X0292457Y0045604D01*
X0292576Y0046051D01*
X0292576Y0047863D01*
X0292576Y0049675D01*
X0292454Y0050133D01*
X0292217Y0050543D01*
X0291882Y0050878D01*
X0291471Y0051115D01*
X0291013Y0051238D01*
X0288808Y0051238D01*
X0288808Y0047863D01*
X0292576Y0047863D01*
X0288808Y0047863D01*
X0288808Y0047863D01*
X0288808Y0047863D01*
X0288808Y0051238D01*
X0287814Y0051238D01*
X0287836Y0051291D01*
X0287836Y0053097D01*
X0287145Y0054765D01*
X0285868Y0056043D01*
X0284199Y0056734D01*
X0282393Y0056734D01*
X0280724Y0056043D01*
X0279447Y0054765D01*
X0278756Y0053097D01*
X0278756Y0052994D01*
X0276764Y0052994D01*
X0276764Y0054004D01*
X0273850Y0056918D01*
X0274625Y0057693D01*
X0290146Y0057693D01*
X0291163Y0058114D01*
X0293026Y0056771D02*
X0273997Y0056771D01*
X0275596Y0055172D02*
X0279854Y0055172D01*
X0278953Y0053574D02*
X0276764Y0053574D01*
X0277465Y0047457D02*
X0280262Y0047457D01*
X0280738Y0047260D01*
X0281917Y0047260D01*
X0282868Y0047654D01*
X0284199Y0047654D01*
X0285039Y0048002D01*
X0285039Y0047863D01*
X0288808Y0047863D01*
X0288808Y0047863D01*
X0285039Y0047863D01*
X0285039Y0046051D01*
X0285159Y0045604D01*
X0284871Y0045317D01*
X0279605Y0045317D01*
X0277465Y0047457D01*
X0277742Y0047180D02*
X0285039Y0047180D01*
X0285136Y0045581D02*
X0279341Y0045581D01*
X0288808Y0048778D02*
X0288808Y0048778D01*
X0288808Y0050377D02*
X0288808Y0050377D01*
X0287836Y0051975D02*
X0305921Y0051975D01*
X0305921Y0050377D02*
X0292313Y0050377D01*
X0292576Y0048778D02*
X0304427Y0048778D01*
X0302829Y0047180D02*
X0292576Y0047180D01*
X0292480Y0045581D02*
X0292704Y0045581D01*
X0299085Y0045581D02*
X0301230Y0045581D01*
X0304822Y0040786D02*
X0312396Y0040786D01*
X0312975Y0042384D02*
X0306420Y0042384D01*
X0308019Y0043983D02*
X0312024Y0043983D01*
X0312024Y0045581D02*
X0309617Y0045581D01*
X0311216Y0047180D02*
X0312024Y0047180D01*
X0312024Y0048778D02*
X0311852Y0048778D01*
X0311852Y0050377D02*
X0312024Y0050377D01*
X0311852Y0051975D02*
X0312790Y0051975D01*
X0305921Y0053574D02*
X0299458Y0053574D01*
X0300736Y0055172D02*
X0305921Y0055172D01*
X0305921Y0056771D02*
X0301125Y0056771D01*
X0300858Y0058369D02*
X0305921Y0058369D01*
X0305962Y0059968D02*
X0299753Y0059968D01*
X0299411Y0066362D02*
X0311775Y0066362D01*
X0310580Y0067960D02*
X0301009Y0067960D01*
X0304692Y0069559D02*
X0308981Y0069559D01*
X0307383Y0071157D02*
X0305937Y0071157D01*
X0310975Y0075953D02*
X0321091Y0075953D01*
X0321763Y0074057D02*
X0320094Y0073365D01*
X0318817Y0072088D01*
X0318736Y0071891D01*
X0315036Y0071891D01*
X0305888Y0081040D01*
X0306498Y0082512D01*
X0306498Y0084631D01*
X0305687Y0086589D01*
X0304287Y0087989D01*
X0313823Y0083221D01*
X0322987Y0074057D01*
X0321763Y0074057D01*
X0322690Y0074354D02*
X0312573Y0074354D01*
X0314172Y0072756D02*
X0319485Y0072756D01*
X0319493Y0077551D02*
X0309376Y0077551D01*
X0307777Y0079150D02*
X0317894Y0079150D01*
X0316296Y0080748D02*
X0306179Y0080748D01*
X0306429Y0082347D02*
X0314697Y0082347D01*
X0312374Y0083946D02*
X0306498Y0083946D01*
X0306120Y0085544D02*
X0309177Y0085544D01*
X0305980Y0087143D02*
X0305133Y0087143D01*
X0299161Y0088741D02*
X0292612Y0088741D01*
X0289729Y0088741D02*
X0255356Y0088741D01*
X0255789Y0087143D02*
X0270490Y0087143D01*
X0270472Y0087076D02*
X0270472Y0085855D01*
X0273060Y0085855D01*
X0275647Y0085855D01*
X0275647Y0087076D01*
X0275525Y0087534D01*
X0275288Y0087945D01*
X0274952Y0088280D01*
X0274542Y0088517D01*
X0274084Y0088639D01*
X0273060Y0088639D01*
X0273060Y0085855D01*
X0273060Y0085855D01*
X0273060Y0085855D01*
X0273060Y0088639D01*
X0272035Y0088639D01*
X0271578Y0088517D01*
X0271167Y0088280D01*
X0270832Y0087945D01*
X0270595Y0087534D01*
X0270472Y0087076D01*
X0270472Y0085544D02*
X0266718Y0085544D01*
X0267948Y0083946D02*
X0269898Y0083946D01*
X0269898Y0082347D02*
X0268348Y0082347D01*
X0268140Y0080748D02*
X0269898Y0080748D01*
X0275828Y0079150D02*
X0279398Y0079150D01*
X0277616Y0077551D02*
X0275828Y0077551D01*
X0275828Y0075953D02*
X0276390Y0075953D01*
X0276222Y0080748D02*
X0277346Y0080748D01*
X0276571Y0082347D02*
X0276222Y0082347D01*
X0276222Y0083946D02*
X0276417Y0083946D01*
X0276841Y0085544D02*
X0275647Y0085544D01*
X0275630Y0087143D02*
X0278020Y0087143D01*
X0280986Y0087143D02*
X0281354Y0087143D01*
X0281354Y0085544D02*
X0280986Y0085544D01*
X0280986Y0083946D02*
X0281354Y0083946D01*
X0285499Y0085544D02*
X0286221Y0085544D01*
X0287207Y0087143D02*
X0284321Y0087143D01*
X0283531Y0090340D02*
X0271215Y0090340D01*
X0268606Y0090340D02*
X0254781Y0090340D01*
X0254744Y0091938D02*
X0266265Y0091938D01*
X0261291Y0085544D02*
X0257941Y0085544D01*
X0258644Y0083946D02*
X0260062Y0083946D01*
X0259661Y0082347D02*
X0259420Y0082347D01*
X0252194Y0090579D02*
X0252194Y0090580D01*
X0252194Y0091938D02*
X0252194Y0091938D01*
X0240383Y0095107D02*
X0240383Y0095107D01*
X0240383Y0095135D02*
X0240383Y0095135D01*
X0240383Y0096734D02*
X0240383Y0096734D01*
X0239173Y0091938D02*
X0239017Y0091938D01*
X0239017Y0090340D02*
X0239173Y0090340D01*
X0239173Y0088741D02*
X0239017Y0088741D01*
X0239017Y0087143D02*
X0239239Y0087143D01*
X0234858Y0082347D02*
X0232820Y0082347D01*
X0227641Y0074354D02*
X0227067Y0074354D01*
X0214635Y0059968D02*
X0214397Y0059968D01*
X0194320Y0055172D02*
X0194320Y0055172D01*
X0183557Y0072756D02*
X0176616Y0072756D01*
X0175321Y0074354D02*
X0185155Y0074354D01*
X0185547Y0075953D02*
X0145923Y0075953D01*
X0145923Y0077551D02*
X0186693Y0077551D01*
X0192745Y0080748D02*
X0192745Y0080748D01*
X0192745Y0082347D02*
X0192745Y0082347D01*
X0192745Y0083946D02*
X0192745Y0083946D01*
X0192745Y0085544D02*
X0192745Y0085544D01*
X0192745Y0087143D02*
X0192745Y0087143D01*
X0193362Y0088741D02*
X0191027Y0088741D01*
X0191252Y0090340D02*
X0192027Y0090340D01*
X0191551Y0091938D02*
X0191252Y0091938D01*
X0191252Y0093537D02*
X0191684Y0093537D01*
X0191252Y0095135D02*
X0192536Y0095135D01*
X0190254Y0096734D02*
X0196810Y0096734D01*
X0203168Y0096734D02*
X0214607Y0096734D01*
X0208284Y0095135D02*
X0204165Y0095135D01*
X0204876Y0093537D02*
X0206971Y0093537D01*
X0184323Y0087143D02*
X0175737Y0087143D01*
X0176616Y0088741D02*
X0183124Y0088741D01*
X0162925Y0074354D02*
X0145249Y0074354D01*
X0143651Y0072756D02*
X0161630Y0072756D01*
X0155546Y0071157D02*
X0131650Y0071157D01*
X0136589Y0072756D02*
X0138690Y0072756D01*
X0141084Y0072756D02*
X0141256Y0072756D01*
X0141256Y0074354D02*
X0141084Y0074354D01*
X0141084Y0075953D02*
X0141256Y0075953D01*
X0141256Y0077551D02*
X0141084Y0077551D01*
X0141084Y0079150D02*
X0141256Y0079150D01*
X0141256Y0080748D02*
X0141084Y0080748D01*
X0138200Y0080748D02*
X0137079Y0080748D01*
X0117012Y0071157D02*
X0110038Y0071157D01*
X0111080Y0069559D02*
X0116354Y0069559D01*
X0116354Y0067960D02*
X0111080Y0067960D01*
X0111080Y0066362D02*
X0116354Y0066362D01*
X0116354Y0064763D02*
X0111080Y0064763D01*
X0111024Y0063165D02*
X0116354Y0063165D01*
X0107594Y0063165D02*
X0107423Y0063165D01*
X0107423Y0064763D02*
X0107594Y0064763D01*
X0107594Y0066362D02*
X0107423Y0066362D01*
X0107423Y0067960D02*
X0107594Y0067960D01*
X0107594Y0069559D02*
X0107423Y0069559D01*
X0107423Y0071157D02*
X0107594Y0071157D01*
X0267506Y0020005D02*
X0294418Y0020005D01*
X0293072Y0021604D02*
X0302390Y0021604D01*
X0309003Y0023202D02*
X0294915Y0023202D01*
X0297450Y0024801D02*
X0314595Y0024801D01*
X0295107Y0031195D02*
X0295107Y0031195D01*
X0295107Y0032793D02*
X0295107Y0032793D01*
X0292638Y0039187D02*
X0292546Y0039187D01*
X0294693Y0053574D02*
X0287639Y0053574D01*
X0286738Y0055172D02*
X0293415Y0055172D01*
X0319550Y0051975D02*
X0326967Y0051975D01*
X0327154Y0052025D02*
X0326696Y0051903D01*
X0326285Y0051666D01*
X0325950Y0051330D01*
X0325713Y0050920D01*
X0325591Y0050462D01*
X0325591Y0047358D01*
X0329076Y0047358D01*
X0329076Y0052025D01*
X0327154Y0052025D01*
X0329076Y0051975D02*
X0329248Y0051975D01*
X0329248Y0050377D02*
X0329076Y0050377D01*
X0329076Y0048778D02*
X0329248Y0048778D01*
X0329248Y0047180D02*
X0329076Y0047180D01*
X0329076Y0045581D02*
X0329248Y0045581D01*
X0329248Y0043983D02*
X0329076Y0043983D01*
X0325617Y0043983D02*
X0320317Y0043983D01*
X0320317Y0045581D02*
X0325591Y0045581D01*
X0325591Y0047180D02*
X0320317Y0047180D01*
X0320317Y0048778D02*
X0325591Y0048778D01*
X0325591Y0050377D02*
X0320317Y0050377D01*
X0319256Y0061566D02*
X0326077Y0061566D01*
X0325016Y0063165D02*
X0320317Y0063165D01*
X0322107Y0064763D02*
X0325016Y0064763D01*
X0332248Y0061566D02*
X0334758Y0061566D01*
X0334758Y0063165D02*
X0333309Y0063165D01*
X0333309Y0064763D02*
X0334758Y0064763D01*
X0334758Y0066362D02*
X0333309Y0066362D01*
X0333309Y0067960D02*
X0334758Y0067960D01*
X0334758Y0069559D02*
X0333309Y0069559D01*
X0332651Y0071157D02*
X0334758Y0071157D01*
X0334758Y0072756D02*
X0332090Y0072756D01*
X0331077Y0074354D02*
X0334758Y0074354D01*
X0334758Y0075953D02*
X0329478Y0075953D01*
X0327880Y0077551D02*
X0334635Y0077551D01*
X0334068Y0079150D02*
X0326281Y0079150D01*
X0324683Y0080748D02*
X0332901Y0080748D01*
X0330682Y0082347D02*
X0323084Y0082347D01*
X0321486Y0083946D02*
X0327681Y0083946D01*
X0324209Y0085544D02*
X0319887Y0085544D01*
X0320193Y0087143D02*
X0318289Y0087143D01*
X0297207Y0087143D02*
X0295133Y0087143D01*
X0296120Y0085544D02*
X0296221Y0085544D01*
X0273060Y0087143D02*
X0273060Y0087143D01*
X0288667Y0019032D02*
X0288667Y0019032D01*
X0281765Y0018031D02*
X0281765Y0018031D01*
X0280918Y0017920D02*
X0280918Y0017920D01*
X0276257Y0017347D02*
X0276257Y0017347D01*
D31*
X0258887Y0022666D03*
X0223454Y0042351D03*
X0220304Y0047863D03*
X0228572Y0056918D03*
X0228965Y0064005D03*
X0235265Y0066367D03*
X0245501Y0080540D03*
X0254162Y0082902D03*
X0267942Y0086446D03*
X0269910Y0094713D03*
X0274241Y0070304D03*
X0255737Y0056918D03*
X0283296Y0052194D03*
X0295894Y0042351D03*
X0299044Y0037233D03*
X0303375Y0030934D03*
X0320304Y0032902D03*
X0307312Y0066761D03*
X0322666Y0069517D03*
X0309280Y0083690D03*
X0208099Y0065580D03*
X0196288Y0067154D03*
X0201800Y0049438D03*
X0203375Y0039989D03*
X0204556Y0030146D03*
X0190776Y0021879D03*
X0182115Y0017548D03*
X0171879Y0022272D03*
X0171879Y0028965D03*
X0171485Y0043532D03*
X0149831Y0068335D03*
X0122272Y0056131D03*
X0127784Y0026997D03*
X0128572Y0088414D03*
D32*
X0120501Y0082312D01*
X0120501Y0066564D01*
X0128572Y0072272D02*
X0133296Y0076997D01*
X0128572Y0072272D02*
X0128572Y0034871D01*
X0131918Y0034871D01*
X0131918Y0031131D01*
X0133690Y0029359D01*
X0136839Y0026209D01*
X0139202Y0026209D01*
X0144517Y0031524D01*
X0148650Y0031524D01*
X0148650Y0027784D02*
X0145107Y0027784D01*
X0143139Y0024241D01*
X0148650Y0024044D02*
X0150619Y0020304D01*
X0165186Y0017942D01*
X0181721Y0017942D01*
X0182115Y0017548D01*
X0181721Y0023060D02*
X0185461Y0026800D01*
X0185461Y0030934D01*
X0185461Y0036643D01*
X0188414Y0039595D01*
X0194320Y0039595D01*
X0196682Y0045107D02*
X0209674Y0045107D01*
X0219123Y0054556D01*
X0221091Y0052587D01*
X0234083Y0052587D01*
X0228572Y0056918D02*
X0226013Y0056918D01*
X0222272Y0060658D01*
X0222272Y0062430D01*
X0221288Y0063414D01*
X0221288Y0072272D01*
X0221091Y0072469D01*
X0221091Y0079359D01*
X0221091Y0082509D01*
X0219123Y0085658D01*
X0207706Y0085658D01*
X0207706Y0086839D01*
X0201800Y0092351D01*
X0199989Y0092351D01*
X0195894Y0092351D01*
X0198847Y0086052D02*
X0201013Y0086052D01*
X0198847Y0086052D02*
X0196485Y0083690D01*
X0204950Y0080934D02*
X0207706Y0084871D01*
X0207706Y0085658D01*
X0210855Y0091564D02*
X0211643Y0091564D01*
X0214398Y0088808D01*
X0221682Y0088808D01*
X0222863Y0089989D01*
X0226603Y0094713D02*
X0218729Y0094713D01*
X0217154Y0093139D01*
X0226603Y0094713D02*
X0230343Y0090973D01*
X0230343Y0089989D01*
X0235068Y0089989D02*
X0235068Y0088217D01*
X0235068Y0089989D02*
X0236052Y0092154D01*
X0236446Y0095107D01*
X0252194Y0087036D02*
X0252194Y0084871D01*
X0254162Y0082902D01*
X0252194Y0080934D01*
X0252194Y0074381D01*
X0252953Y0073621D01*
X0251561Y0072229D02*
X0245501Y0078290D01*
X0245501Y0080540D01*
X0238808Y0081328D02*
X0228572Y0071091D01*
X0228572Y0064792D01*
X0228965Y0064005D01*
X0235265Y0066367D02*
X0238330Y0065973D01*
X0241818Y0062486D01*
X0239034Y0059702D02*
X0237261Y0059702D01*
X0228572Y0056918D01*
X0219123Y0054556D02*
X0219123Y0059674D01*
X0215580Y0063217D01*
X0214792Y0063217D01*
X0212036Y0065973D01*
X0212036Y0076209D01*
X0210461Y0079359D01*
X0215580Y0081721D02*
X0216761Y0068729D01*
X0208099Y0065580D02*
X0206918Y0066761D01*
X0201406Y0066761D01*
X0201406Y0066367D01*
X0196288Y0061249D01*
X0194320Y0061249D01*
X0193532Y0061249D01*
X0188808Y0056524D01*
X0188808Y0052194D01*
X0193532Y0047863D02*
X0193926Y0047469D01*
X0194320Y0047469D01*
X0196682Y0045107D01*
X0193532Y0047863D02*
X0158887Y0047863D01*
X0145894Y0034871D01*
X0139398Y0034871D01*
X0139398Y0031131D01*
X0137627Y0029359D01*
X0127784Y0026997D02*
X0126800Y0031721D01*
X0127194Y0034871D01*
X0128572Y0034871D01*
X0121879Y0037233D02*
X0120501Y0038611D01*
X0120501Y0047272D01*
X0107509Y0047272D02*
X0107509Y0038611D01*
X0106131Y0037233D01*
X0135658Y0043532D02*
X0137233Y0045107D01*
X0147469Y0045107D01*
X0154556Y0052194D01*
X0154556Y0065973D01*
X0157902Y0069320D01*
X0169123Y0069320D01*
X0163906Y0061249D02*
X0158493Y0061249D01*
X0163906Y0061249D02*
X0164005Y0061150D01*
X0164005Y0056918D01*
X0180540Y0061249D02*
X0186150Y0061249D01*
X0186446Y0061544D01*
X0183198Y0064792D01*
X0181721Y0064792D01*
X0186052Y0061150D02*
X0186150Y0061249D01*
X0196288Y0067154D02*
X0196485Y0067351D01*
X0196485Y0073454D01*
X0198650Y0073454D01*
X0201406Y0070698D01*
X0220894Y0079556D02*
X0221091Y0079359D01*
X0226603Y0081328D02*
X0230540Y0085265D01*
X0232115Y0085265D01*
X0255737Y0068054D02*
X0255737Y0056918D01*
X0244601Y0056918D01*
X0255737Y0056918D02*
X0255737Y0059702D01*
X0255737Y0056918D02*
X0261305Y0056918D01*
X0272440Y0059702D02*
X0273200Y0060461D01*
X0283296Y0052194D02*
X0281328Y0050225D01*
X0278656Y0042351D02*
X0288808Y0042351D01*
X0295894Y0042351D01*
X0302194Y0042351D01*
X0308887Y0049044D01*
X0308887Y0059280D01*
X0316170Y0066564D01*
X0301170Y0081564D01*
X0301170Y0083572D01*
X0304556Y0091170D02*
X0315580Y0085658D01*
X0329162Y0072076D01*
X0329162Y0066564D01*
X0322666Y0069517D02*
X0319713Y0066564D01*
X0316170Y0066564D01*
X0316170Y0047272D02*
X0316170Y0039792D01*
X0303375Y0030934D01*
X0295107Y0027587D02*
X0292942Y0025422D01*
X0289202Y0025422D01*
X0283296Y0031328D01*
X0283296Y0036839D01*
X0281328Y0038808D01*
X0276631Y0038808D01*
X0277391Y0035265D02*
X0277391Y0033296D01*
X0274831Y0033296D01*
X0272272Y0030737D01*
X0264398Y0032115D02*
X0259674Y0027391D01*
X0244320Y0027391D01*
X0241170Y0030540D01*
X0231721Y0030540D01*
X0230146Y0031328D01*
X0225028Y0031328D01*
X0223060Y0029359D01*
X0223060Y0022824D01*
X0223335Y0022548D01*
X0228572Y0026997D02*
X0229359Y0026997D01*
X0230146Y0027784D01*
X0236446Y0027784D01*
X0241564Y0022666D01*
X0258887Y0022666D01*
X0260068Y0016761D02*
X0266761Y0023454D01*
X0260068Y0016761D02*
X0193532Y0016761D01*
X0190776Y0019517D01*
X0190776Y0021879D01*
X0198060Y0030934D02*
X0201603Y0034477D01*
X0223454Y0034477D01*
X0224944Y0034477D01*
X0235082Y0033873D02*
X0236052Y0033296D01*
X0240776Y0033296D01*
X0243532Y0036052D01*
X0243926Y0042351D02*
X0244741Y0043139D01*
X0247385Y0045783D01*
X0252953Y0040215D02*
X0250619Y0037881D01*
X0250619Y0035658D01*
X0255343Y0033690D02*
X0260068Y0033690D01*
X0262036Y0035658D01*
X0268279Y0075028D02*
X0268335Y0076209D01*
X0269910Y0094713D02*
X0304556Y0091170D01*
X0184871Y0043926D02*
X0183296Y0043926D01*
X0181721Y0039595D01*
X0177981Y0030934D02*
X0177784Y0030737D01*
X0177784Y0023060D01*
X0171879Y0022272D01*
X0171879Y0028965D02*
X0161052Y0031524D01*
X0158887Y0031524D01*
X0159083Y0031721D01*
X0160265Y0039595D01*
X0159083Y0038414D01*
X0155737Y0038414D01*
X0158887Y0024044D02*
X0162824Y0022666D01*
X0169123Y0091761D02*
X0169713Y0092351D01*
D33*
X0187076Y0092351D01*
X0187036Y0089635D01*
X0189005Y0083690D01*
X0189005Y0073454D02*
X0186150Y0070599D01*
X0193532Y0063217D01*
X0193532Y0061249D01*
X0186446Y0061544D02*
X0164398Y0061544D01*
X0164005Y0061150D01*
X0169123Y0069320D02*
X0184871Y0069320D01*
X0186150Y0070599D01*
D34*
X0223454Y0042351D02*
X0230428Y0042745D01*
X0240426Y0052742D01*
X0241818Y0051350D02*
X0224944Y0034477D01*
X0232298Y0036657D02*
X0232298Y0039047D01*
X0235209Y0041957D01*
X0235658Y0041957D01*
X0237627Y0039989D01*
X0237627Y0037627D01*
X0243532Y0036052D02*
X0246006Y0036052D01*
X0251561Y0041607D01*
X0252953Y0040215D02*
X0255737Y0042999D01*
X0255737Y0056918D01*
X0261305Y0056918D02*
X0268264Y0049958D01*
X0266873Y0048566D02*
X0276631Y0038808D01*
X0278656Y0042351D02*
X0269656Y0051350D01*
X0271048Y0052742D02*
X0273565Y0050225D01*
X0281328Y0050225D01*
X0273200Y0060461D02*
X0289595Y0060461D01*
X0301170Y0072036D01*
X0301170Y0073572D01*
X0296288Y0071091D02*
X0296288Y0078572D01*
X0291288Y0083572D01*
X0291170Y0083572D01*
X0291170Y0073572D02*
X0291170Y0073454D01*
X0283690Y0065973D01*
X0273144Y0065973D01*
X0269656Y0062486D01*
X0271048Y0061094D02*
X0273172Y0063217D01*
X0288414Y0063217D01*
X0296288Y0071091D01*
X0274241Y0070304D02*
X0271907Y0070304D01*
X0266873Y0065270D01*
X0265481Y0066662D02*
X0273060Y0074241D01*
X0273060Y0082312D01*
X0268335Y0076209D02*
X0268335Y0075084D01*
X0262697Y0069446D01*
X0261305Y0070838D02*
X0264005Y0073537D01*
X0264005Y0082115D01*
X0261643Y0076209D02*
X0254950Y0082902D01*
X0254162Y0082902D01*
X0261643Y0076209D02*
X0261643Y0073959D01*
X0259913Y0072229D01*
X0264089Y0068054D02*
X0255737Y0059702D01*
X0244601Y0056918D02*
X0240426Y0061094D01*
X0251561Y0072229D02*
X0255737Y0068054D01*
X0250169Y0070838D02*
X0247947Y0073060D01*
X0244320Y0073060D01*
X0242351Y0071091D01*
X0238611Y0071091D01*
X0238414Y0070894D01*
X0233296Y0085265D02*
X0235068Y0087036D01*
X0235068Y0089989D01*
X0233296Y0085265D02*
X0232115Y0085265D01*
X0243210Y0049958D02*
X0235209Y0041957D01*
X0259913Y0041607D02*
X0262036Y0039483D01*
X0262036Y0035658D01*
X0264398Y0032115D02*
X0264398Y0039905D01*
X0261305Y0042999D01*
X0262697Y0044391D02*
X0266761Y0040327D01*
X0266761Y0023454D01*
X0277391Y0035265D02*
X0265481Y0047175D01*
X0264089Y0045783D02*
X0270698Y0039174D01*
X0270698Y0035658D01*
M02*
