  0
SECTION
  2
HEADER
  9
$ACADVER
  1
AC1009
  9
$FILLMODE
 70
1
  9
$EXTMIN
 10
-25.2032
 20
-3.2032
 30
0.0000
  9
$EXTMAX
 10
85.2032
 20
65.2000
 30
0.0000
  0
ENDSEC
  0
SECTION
  2
TABLES
  0
TABLE
  2
LTYPE
 70
1
  0
LTYPE
  2
CONTINUOUS
 70
64
  3
Solid line
 72
65
 73
0
 40
0
  0
ENDTAB
  0
TABLE
  2
LAYER
 70
255
  0
LAYER
  2
32
 70
64
 62
253
  6
CONTINUOUS
  0
ENDTAB
  0
ENDSEC
  0
SECTION
  2
BLOCKS
  0
BLOCK
  8
0
  2
RECT
 70
64
 10
0.0000
 20
0.0000
 30
0.0000
  3
RECT
  0
SOLID
  8
0
 10
-0.5000
 20
-0.5000
 30
0.0000
 11
0.5000
 21
-0.5000
 31
0.0000
 12
-0.5000
 22
0.5000
 32
0.0000
 13
0.5000
 23
0.5000
 33
0.0000
  0
ENDBLK
  8
0
  0
BLOCK
  8
0
  2
PIE
 70
64
 10
0.0000
 20
0.0000
 30
0.0000
  3
PIE
  0
POLYLINE
  8
0
 66
1
 10
0.0000
 20
0.0000
 30
0.0000
 40
0.5000
 41
0.5000
 70
0
  0
VERTEX
  8
0
 10
0.0000
 20
-0.2500
 30
0.0000
 42
1.0000
  0
VERTEX
  8
0
 10
0.0000
 20
0.2500
 30
0.0000
 42
1.0000
  0
VERTEX
  8
0
 10
0.0000
 20
-0.2500
 30
0.0000
  0
SEQEND
  8
0
  0
ENDBLK
  8
0
  0
BLOCK
  8
0
  2
OCTAGONP
 70
64
 10
0.0000
 20
0.0000
 30
0.0000
  3
OCTAGONP
  0
POLYLINE
  8
0
 66
1
 10
0.0000
 20
0.0000
 30
0.0000
 40
0.5000
 41
0.5000
 70
0
  0
VERTEX
  8
0
 10
-0.2500
 20
-0.1036
 30
0.0000
  0
VERTEX
  8
0
 10
-0.2500
 20
0.1036
 30
0.0000
  0
VERTEX
  8
0
 10
-0.1036
 20
0.2500
 30
0.0000
  0
VERTEX
  8
0
 10
0.1036
 20
0.2500
 30
0.0000
  0
VERTEX
  8
0
 10
0.2500
 20
0.1036
 30
0.0000
  0
VERTEX
  8
0
 10
0.2500
 20
-0.1036
 30
0.0000
  0
VERTEX
  8
0
 10
0.1036
 20
-0.2500
 30
0.0000
  0
VERTEX
  8
0
 10
-0.1036
 20
-0.2500
 30
0.0000
  0
VERTEX
  8
0
 10
-0.2500
 20
-0.1036
 30
0.0000
  0
VERTEX
  8
0
 10
-0.2500
 20
0.1036
 30
0.0000
  0
SEQEND
  8
0
  0
ENDBLK
  8
0
  0
BLOCK
  8
0
  2
SQUAREP
 70
64
 10
0.0000
 20
0.0000
 30
0.0000
  3
SQUAREP
  0
SOLID
  8
0
 10
-0.5000
 20
-0.5000
 30
0.0000
 11
0.5000
 21
-0.5000
 31
0.0000
 12
-0.5000
 22
0.5000
 32
0.0000
 13
0.5000
 23
0.5000
 33
0.0000
  0
ENDBLK
  8
0
  0
BLOCK
  8
0
  2
ROUNDP
 70
64
 10
0.0000
 20
0.0000
 30
0.0000
  3
ROUNDP
  0
POLYLINE
  8
0
 66
1
 10
0.0000
 20
0.0000
 30
0.0000
 40
0.5000
 41
0.5000
 70
0
  0
VERTEX
  8
0
 10
0.0000
 20
-0.2500
 30
0.0000
 42
1.0000
  0
VERTEX
  8
0
 10
0.0000
 20
0.2500
 30
0.0000
 42
1.0000
  0
VERTEX
  8
0
 10
0.0000
 20
-0.2500
 30
0.0000
  0
SEQEND
  8
0
  0
ENDBLK
  8
0
  0
BLOCK
  8
0
  2
ANNULUSP
 70
64
 10
0.0000
 20
0.0000
 30
0.0000
  3
ANNULUSP
  0
POLYLINE
  8
0
 66
1
 10
0.0000
 20
0.0000
 30
0.0000
 40
0.5000
 41
0.5000
 70
0
  0
VERTEX
  8
0
 10
0.0000
 20
-0.2500
 30
0.0000
 42
1.0000
  0
VERTEX
  8
0
 10
0.0000
 20
0.2500
 30
0.0000
 42
1.0000
  0
VERTEX
  8
0
 10
0.0000
 20
-0.2500
 30
0.0000
  0
SEQEND
  8
0
  0
ENDBLK
  8
0
  0
BLOCK
  8
0
  2
THERMALP
 70
64
 10
0.0000
 20
0.0000
 30
0.0000
  3
THERMALP
  0
POLYLINE
  8
0
 66
1
 10
0.0000
 20
0.0000
 30
0.0000
 40
0.1000
 41
0.1000
 70
0
  0
VERTEX
  8
0
 10
-0.2379
 20
0.4500
 30
0.0000
  0
VERTEX
  8
0
 10
0.2379
 20
0.4500
 30
0.0000
  0
SEQEND
  8
0
  0
POLYLINE
  8
0
 66
1
 10
0.0000
 20
0.0000
 30
0.0000
 40
0.0500
 41
0.0500
 70
0
  0
VERTEX
  8
0
 10
0.2379
 20
0.4250
 30
0.0000
 42
1.0000
  0
VERTEX
  8
0
 10
0.2379
 20
0.4750
 30
0.0000
  0
SEQEND
  8
0
  0
POLYLINE
  8
0
 66
1
 10
0.0000
 20
0.0000
 30
0.0000
 40
0.0500
 41
0.0500
 70
0
  0
VERTEX
  8
0
 10
-0.2379
 20
0.4750
 30
0.0000
 42
1.0000
  0
VERTEX
  8
0
 10
-0.2379
 20
0.4250
 30
0.0000
  0
SEQEND
  8
0
  0
POLYLINE
  8
0
 66
1
 10
0.0000
 20
0.0000
 30
0.0000
 40
0.1000
 41
0.1000
 70
0
  0
VERTEX
  8
0
 10
0.4500
 20
0.2379
 30
0.0000
  0
VERTEX
  8
0
 10
0.4500
 20
-0.2379
 30
0.0000
  0
SEQEND
  8
0
  0
POLYLINE
  8
0
 66
1
 10
0.0000
 20
0.0000
 30
0.0000
 40
0.0500
 41
0.0500
 70
0
  0
VERTEX
  8
0
 10
0.4250
 20
-0.2379
 30
0.0000
 42
1.0000
  0
VERTEX
  8
0
 10
0.4750
 20
-0.2379
 30
0.0000
  0
SEQEND
  8
0
  0
POLYLINE
  8
0
 66
1
 10
0.0000
 20
0.0000
 30
0.0000
 40
0.0500
 41
0.0500
 70
0
  0
VERTEX
  8
0
 10
0.4750
 20
0.2379
 30
0.0000
 42
1.0000
  0
VERTEX
  8
0
 10
0.4250
 20
0.2379
 30
0.0000
  0
SEQEND
  8
0
  0
POLYLINE
  8
0
 66
1
 10
0.0000
 20
0.0000
 30
0.0000
 40
0.1000
 41
0.1000
 70
0
  0
VERTEX
  8
0
 10
0.2379
 20
-0.4500
 30
0.0000
  0
VERTEX
  8
0
 10
-0.2379
 20
-0.4500
 30
0.0000
  0
SEQEND
  8
0
  0
POLYLINE
  8
0
 66
1
 10
0.0000
 20
0.0000
 30
0.0000
 40
0.0500
 41
0.0500
 70
0
  0
VERTEX
  8
0
 10
-0.2379
 20
-0.4250
 30
0.0000
 42
1.0000
  0
VERTEX
  8
0
 10
-0.2379
 20
-0.4750
 30
0.0000
  0
SEQEND
  8
0
  0
POLYLINE
  8
0
 66
1
 10
0.0000
 20
0.0000
 30
0.0000
 40
0.0500
 41
0.0500
 70
0
  0
VERTEX
  8
0
 10
0.2379
 20
-0.4750
 30
0.0000
 42
1.0000
  0
VERTEX
  8
0
 10
0.2379
 20
-0.4250
 30
0.0000
  0
SEQEND
  8
0
  0
POLYLINE
  8
0
 66
1
 10
0.0000
 20
0.0000
 30
0.0000
 40
0.1000
 41
0.1000
 70
0
  0
VERTEX
  8
0
 10
-0.4500
 20
-0.2379
 30
0.0000
  0
VERTEX
  8
0
 10
-0.4500
 20
0.2379
 30
0.0000
  0
SEQEND
  8
0
  0
POLYLINE
  8
0
 66
1
 10
0.0000
 20
0.0000
 30
0.0000
 40
0.0500
 41
0.0500
 70
0
  0
VERTEX
  8
0
 10
-0.4250
 20
0.2379
 30
0.0000
 42
1.0000
  0
VERTEX
  8
0
 10
-0.4750
 20
0.2379
 30
0.0000
  0
SEQEND
  8
0
  0
POLYLINE
  8
0
 66
1
 10
0.0000
 20
0.0000
 30
0.0000
 40
0.0500
 41
0.0500
 70
0
  0
VERTEX
  8
0
 10
-0.4750
 20
-0.2379
 30
0.0000
 42
1.0000
  0
VERTEX
  8
0
 10
-0.4250
 20
-0.2379
 30
0.0000
  0
SEQEND
  8
0
  0
ENDBLK
  8
0
  0
BLOCK
  8
0
  2
OCTAGONV
 70
64
 10
0.0000
 20
0.0000
 30
0.0000
  3
OCTAGONV
  0
POLYLINE
  8
0
 66
1
 10
0.0000
 20
0.0000
 30
0.0000
 40
0.5000
 41
0.5000
 70
0
  0
VERTEX
  8
0
 10
-0.2500
 20
-0.1036
 30
0.0000
  0
VERTEX
  8
0
 10
-0.2500
 20
0.1036
 30
0.0000
  0
VERTEX
  8
0
 10
-0.1036
 20
0.2500
 30
0.0000
  0
VERTEX
  8
0
 10
0.1036
 20
0.2500
 30
0.0000
  0
VERTEX
  8
0
 10
0.2500
 20
0.1036
 30
0.0000
  0
VERTEX
  8
0
 10
0.2500
 20
-0.1036
 30
0.0000
  0
VERTEX
  8
0
 10
0.1036
 20
-0.2500
 30
0.0000
  0
VERTEX
  8
0
 10
-0.1036
 20
-0.2500
 30
0.0000
  0
VERTEX
  8
0
 10
-0.2500
 20
-0.1036
 30
0.0000
  0
VERTEX
  8
0
 10
-0.2500
 20
0.1036
 30
0.0000
  0
SEQEND
  8
0
  0
ENDBLK
  8
0
  0
BLOCK
  8
0
  2
SQUAREV
 70
64
 10
0.0000
 20
0.0000
 30
0.0000
  3
SQUAREV
  0
SOLID
  8
0
 10
-0.5000
 20
-0.5000
 30
0.0000
 11
0.5000
 21
-0.5000
 31
0.0000
 12
-0.5000
 22
0.5000
 32
0.0000
 13
0.5000
 23
0.5000
 33
0.0000
  0
ENDBLK
  8
0
  0
BLOCK
  8
0
  2
ROUNDV
 70
64
 10
0.0000
 20
0.0000
 30
0.0000
  3
ROUNDV
  0
POLYLINE
  8
0
 66
1
 10
0.0000
 20
0.0000
 30
0.0000
 40
0.5000
 41
0.5000
 70
0
  0
VERTEX
  8
0
 10
0.0000
 20
-0.2500
 30
0.0000
 42
1.0000
  0
VERTEX
  8
0
 10
0.0000
 20
0.2500
 30
0.0000
 42
1.0000
  0
VERTEX
  8
0
 10
0.0000
 20
-0.2500
 30
0.0000
  0
SEQEND
  8
0
  0
ENDBLK
  8
0
  0
BLOCK
  8
0
  2
ANNULUSV
 70
64
 10
0.0000
 20
0.0000
 30
0.0000
  3
ANNULUSV
  0
POLYLINE
  8
0
 66
1
 10
0.0000
 20
0.0000
 30
0.0000
 40
0.5000
 41
0.5000
 70
0
  0
VERTEX
  8
0
 10
0.0000
 20
-0.2500
 30
0.0000
 42
1.0000
  0
VERTEX
  8
0
 10
0.0000
 20
0.2500
 30
0.0000
 42
1.0000
  0
VERTEX
  8
0
 10
0.0000
 20
-0.2500
 30
0.0000
  0
SEQEND
  8
0
  0
ENDBLK
  8
0
  0
BLOCK
  8
0
  2
THERMALV
 70
64
 10
0.0000
 20
0.0000
 30
0.0000
  3
THERMALV
  0
POLYLINE
  8
0
 66
1
 10
0.0000
 20
0.0000
 30
0.0000
 40
0.1000
 41
0.1000
 70
0
  0
VERTEX
  8
0
 10
-0.2379
 20
0.4500
 30
0.0000
  0
VERTEX
  8
0
 10
0.2379
 20
0.4500
 30
0.0000
  0
SEQEND
  8
0
  0
POLYLINE
  8
0
 66
1
 10
0.0000
 20
0.0000
 30
0.0000
 40
0.0500
 41
0.0500
 70
0
  0
VERTEX
  8
0
 10
0.2379
 20
0.4250
 30
0.0000
 42
1.0000
  0
VERTEX
  8
0
 10
0.2379
 20
0.4750
 30
0.0000
  0
SEQEND
  8
0
  0
POLYLINE
  8
0
 66
1
 10
0.0000
 20
0.0000
 30
0.0000
 40
0.0500
 41
0.0500
 70
0
  0
VERTEX
  8
0
 10
-0.2379
 20
0.4750
 30
0.0000
 42
1.0000
  0
VERTEX
  8
0
 10
-0.2379
 20
0.4250
 30
0.0000
  0
SEQEND
  8
0
  0
POLYLINE
  8
0
 66
1
 10
0.0000
 20
0.0000
 30
0.0000
 40
0.1000
 41
0.1000
 70
0
  0
VERTEX
  8
0
 10
0.4500
 20
0.2379
 30
0.0000
  0
VERTEX
  8
0
 10
0.4500
 20
-0.2379
 30
0.0000
  0
SEQEND
  8
0
  0
POLYLINE
  8
0
 66
1
 10
0.0000
 20
0.0000
 30
0.0000
 40
0.0500
 41
0.0500
 70
0
  0
VERTEX
  8
0
 10
0.4250
 20
-0.2379
 30
0.0000
 42
1.0000
  0
VERTEX
  8
0
 10
0.4750
 20
-0.2379
 30
0.0000
  0
SEQEND
  8
0
  0
POLYLINE
  8
0
 66
1
 10
0.0000
 20
0.0000
 30
0.0000
 40
0.0500
 41
0.0500
 70
0
  0
VERTEX
  8
0
 10
0.4750
 20
0.2379
 30
0.0000
 42
1.0000
  0
VERTEX
  8
0
 10
0.4250
 20
0.2379
 30
0.0000
  0
SEQEND
  8
0
  0
POLYLINE
  8
0
 66
1
 10
0.0000
 20
0.0000
 30
0.0000
 40
0.1000
 41
0.1000
 70
0
  0
VERTEX
  8
0
 10
0.2379
 20
-0.4500
 30
0.0000
  0
VERTEX
  8
0
 10
-0.2379
 20
-0.4500
 30
0.0000
  0
SEQEND
  8
0
  0
POLYLINE
  8
0
 66
1
 10
0.0000
 20
0.0000
 30
0.0000
 40
0.0500
 41
0.0500
 70
0
  0
VERTEX
  8
0
 10
-0.2379
 20
-0.4250
 30
0.0000
 42
1.0000
  0
VERTEX
  8
0
 10
-0.2379
 20
-0.4750
 30
0.0000
  0
SEQEND
  8
0
  0
POLYLINE
  8
0
 66
1
 10
0.0000
 20
0.0000
 30
0.0000
 40
0.0500
 41
0.0500
 70
0
  0
VERTEX
  8
0
 10
0.2379
 20
-0.4750
 30
0.0000
 42
1.0000
  0
VERTEX
  8
0
 10
0.2379
 20
-0.4250
 30
0.0000
  0
SEQEND
  8
0
  0
POLYLINE
  8
0
 66
1
 10
0.0000
 20
0.0000
 30
0.0000
 40
0.1000
 41
0.1000
 70
0
  0
VERTEX
  8
0
 10
-0.4500
 20
-0.2379
 30
0.0000
  0
VERTEX
  8
0
 10
-0.4500
 20
0.2379
 30
0.0000
  0
SEQEND
  8
0
  0
POLYLINE
  8
0
 66
1
 10
0.0000
 20
0.0000
 30
0.0000
 40
0.0500
 41
0.0500
 70
0
  0
VERTEX
  8
0
 10
-0.4250
 20
0.2379
 30
0.0000
 42
1.0000
  0
VERTEX
  8
0
 10
-0.4750
 20
0.2379
 30
0.0000
  0
SEQEND
  8
0
  0
POLYLINE
  8
0
 66
1
 10
0.0000
 20
0.0000
 30
0.0000
 40
0.0500
 41
0.0500
 70
0
  0
VERTEX
  8
0
 10
-0.4750
 20
-0.2379
 30
0.0000
 42
1.0000
  0
VERTEX
  8
0
 10
-0.4250
 20
-0.2379
 30
0.0000
  0
SEQEND
  8
0
  0
ENDBLK
  8
0
  0
BLOCK
  8
0
  2
LONGP100
 70
64
 10
0.0000
 20
0.0000
 30
0.0000
  3
LONGP100
  0
POLYLINE
  8
0
 66
1
 10
0.0000
 20
0.0000
 30
0.0000
 40
1.0000
 41
1.0000
 70
0
  0
VERTEX
  8
0
 10
-0.5000
 20
0.0000
 30
0.0000
  0
VERTEX
  8
0
 10
0.5000
 20
0.0000
 30
0.0000
  0
SEQEND
  8
0
  0
POLYLINE
  8
0
 66
1
 10
0.0000
 20
0.0000
 30
0.0000
 40
0.5000
 41
0.5000
 70
0
  0
VERTEX
  8
0
 10
0.5000
 20
-0.2500
 30
0.0000
 42
1.0000
  0
VERTEX
  8
0
 10
0.5000
 20
0.2500
 30
0.0000
  0
SEQEND
  8
0
  0
POLYLINE
  8
0
 66
1
 10
0.0000
 20
0.0000
 30
0.0000
 40
0.5000
 41
0.5000
 70
0
  0
VERTEX
  8
0
 10
-0.5000
 20
0.2500
 30
0.0000
 42
1.0000
  0
VERTEX
  8
0
 10
-0.5000
 20
-0.2500
 30
0.0000
  0
SEQEND
  8
0
  0
ENDBLK
  8
0
  0
ENDSEC
  0
SECTION
  2
ENTITIES
  0
INSERT
  8
32
  2
RECT
 10
23.9000
 20
12.1000
 30
0.0000
 41
0.8000
 42
1.0000
 43
1.0000
 50
270.0000
  0
INSERT
  8
32
  2
RECT
 10
23.9000
 20
10.7000
 30
0.0000
 41
0.8000
 42
1.0000
 43
1.0000
 50
270.0000
  0
INSERT
  8
32
  2
RECT
 10
43.7000
 20
4.3500
 30
0.0000
 41
0.5000
 42
0.4000
 43
1.0000
 50
270.0000
  0
INSERT
  8
32
  2
RECT
 10
43.7000
 20
3.4500
 30
0.0000
 41
0.5000
 42
0.4000
 43
1.0000
 50
270.0000
  0
INSERT
  8
32
  2
RECT
 10
49.5000
 20
3.5500
 30
0.0000
 41
0.5000
 42
0.4000
 43
1.0000
 50
90.0000
  0
INSERT
  8
32
  2
RECT
 10
49.5000
 20
4.4500
 30
0.0000
 41
0.5000
 42
0.4000
 43
1.0000
 50
90.0000
  0
INSERT
  8
32
  2
RECT
 10
26.6000
 20
17.1000
 30
0.0000
 41
0.8000
 42
1.0000
 43
1.0000
 50
270.0000
  0
INSERT
  8
32
  2
RECT
 10
26.6000
 20
15.7000
 30
0.0000
 41
0.8000
 42
1.0000
 43
1.0000
 50
270.0000
  0
INSERT
  8
32
  2
RECT
 10
6.7500
 20
4.6000
 30
0.0000
 41
0.5000
 42
0.4000
 43
1.0000
 50
180.0000
  0
INSERT
  8
32
  2
RECT
 10
5.8500
 20
4.6000
 30
0.0000
 41
0.5000
 42
0.4000
 43
1.0000
 50
180.0000
  0
INSERT
  8
32
  2
RECT
 10
15.2500
 20
6.6000
 30
0.0000
 41
0.5000
 42
0.4000
 43
1.0000
 50
0.0000
  0
INSERT
  8
32
  2
RECT
 10
16.1500
 20
6.6000
 30
0.0000
 41
0.5000
 42
0.4000
 43
1.0000
 50
0.0000
  0
INSERT
  8
32
  2
RECT
 10
43.9000
 20
18.3500
 30
0.0000
 41
0.5000
 42
0.4000
 43
1.0000
 50
270.0000
  0
INSERT
  8
32
  2
RECT
 10
43.9000
 20
17.4500
 30
0.0000
 41
0.5000
 42
0.4000
 43
1.0000
 50
270.0000
  0
INSERT
  8
32
  2
RECT
 10
35.1000
 20
14.5500
 30
0.0000
 41
0.5000
 42
0.4000
 43
1.0000
 50
90.0000
  0
INSERT
  8
32
  2
RECT
 10
35.1000
 20
15.4500
 30
0.0000
 41
0.5000
 42
0.4000
 43
1.0000
 50
90.0000
  0
INSERT
  8
32
  2
RECT
 10
38.6000
 20
18.6500
 30
0.0000
 41
0.5000
 42
0.4000
 43
1.0000
 50
90.0000
  0
INSERT
  8
32
  2
RECT
 10
38.6000
 20
19.5500
 30
0.0000
 41
0.5000
 42
0.4000
 43
1.0000
 50
90.0000
  0
INSERT
  8
32
  2
RECT
 10
30.7500
 20
14.9000
 30
0.0000
 41
0.5000
 42
0.4000
 43
1.0000
 50
0.0000
  0
INSERT
  8
32
  2
RECT
 10
31.6500
 20
14.9000
 30
0.0000
 41
0.5000
 42
0.4000
 43
1.0000
 50
0.0000
  0
INSERT
  8
32
  2
RECT
 10
47.9000
 20
7.3000
 30
0.0000
 41
0.8000
 42
1.0000
 43
1.0000
 50
90.0000
  0
INSERT
  8
32
  2
RECT
 10
47.9000
 20
8.7000
 30
0.0000
 41
0.8000
 42
1.0000
 43
1.0000
 50
90.0000
  0
INSERT
  8
32
  2
RECT
 10
22.3600
 20
20.0000
 30
0.0000
 41
0.9150
 42
1.2200
 43
1.0000
 50
0.0000
  0
INSERT
  8
32
  2
RECT
 10
25.6400
 20
20.0000
 30
0.0000
 41
0.9150
 42
1.2200
 43
1.0000
 50
0.0000
  0
INSERT
  8
32
  2
RECT
 10
24.8500
 20
4.4000
 30
0.0000
 41
0.8000
 42
1.2000
 43
1.0000
 50
180.0000
  0
INSERT
  8
32
  2
RECT
 10
22.9500
 20
4.4000
 30
0.0000
 41
0.8000
 42
1.2000
 43
1.0000
 50
180.0000
  0
INSERT
  8
32
  2
RECT
 10
23.9000
 20
6.6000
 30
0.0000
 41
0.8000
 42
1.2000
 43
1.0000
 50
180.0000
  0
INSERT
  8
32
  2
RECT
 10
34.2500
 20
19.4000
 30
0.0000
 41
0.8000
 42
1.2000
 43
1.0000
 50
0.0000
  0
INSERT
  8
32
  2
RECT
 10
36.1500
 20
19.4000
 30
0.0000
 41
0.8000
 42
1.2000
 43
1.0000
 50
0.0000
  0
INSERT
  8
32
  2
RECT
 10
35.2000
 20
17.2000
 30
0.0000
 41
0.8000
 42
1.2000
 43
1.0000
 50
0.0000
  0
INSERT
  8
32
  2
RECT
 10
9.9500
 20
5.4000
 30
0.0000
 41
0.8000
 42
1.2000
 43
1.0000
 50
180.0000
  0
INSERT
  8
32
  2
RECT
 10
8.0500
 20
5.4000
 30
0.0000
 41
0.8000
 42
1.2000
 43
1.0000
 50
180.0000
  0
INSERT
  8
32
  2
RECT
 10
9.0000
 20
7.6000
 30
0.0000
 41
0.8000
 42
1.2000
 43
1.0000
 50
180.0000
  0
INSERT
  8
32
  2
RECT
 10
21.6500
 20
4.4000
 30
0.0000
 41
0.8000
 42
1.2000
 43
1.0000
 50
180.0000
  0
INSERT
  8
32
  2
RECT
 10
19.7500
 20
4.4000
 30
0.0000
 41
0.8000
 42
1.2000
 43
1.0000
 50
180.0000
  0
INSERT
  8
32
  2
RECT
 10
20.7000
 20
6.6000
 30
0.0000
 41
0.8000
 42
1.2000
 43
1.0000
 50
180.0000
  0
INSERT
  8
32
  2
RECT
 10
31.1500
 20
19.4000
 30
0.0000
 41
0.8000
 42
1.2000
 43
1.0000
 50
0.0000
  0
INSERT
  8
32
  2
RECT
 10
33.0500
 20
19.4000
 30
0.0000
 41
0.8000
 42
1.2000
 43
1.0000
 50
0.0000
  0
INSERT
  8
32
  2
RECT
 10
32.1000
 20
17.2000
 30
0.0000
 41
0.8000
 42
1.2000
 43
1.0000
 50
0.0000
  0
INSERT
  8
32
  2
RECT
 10
40.1718
 20
15.2073
 30
0.0000
 41
0.9000
 42
0.2500
 43
1.0000
 50
225.0000
  0
INSERT
  8
32
  2
RECT
 10
40.5253
 20
14.8537
 30
0.0000
 41
0.9000
 42
0.2500
 43
1.0000
 50
225.0000
  0
INSERT
  8
32
  2
RECT
 10
40.8789
 20
14.5002
 30
0.0000
 41
0.9000
 42
0.2500
 43
1.0000
 50
225.0000
  0
INSERT
  8
32
  2
RECT
 10
41.2324
 20
14.1466
 30
0.0000
 41
0.9000
 42
0.2500
 43
1.0000
 50
225.0000
  0
INSERT
  8
32
  2
RECT
 10
41.5860
 20
13.7931
 30
0.0000
 41
0.9000
 42
0.2500
 43
1.0000
 50
225.0000
  0
INSERT
  8
32
  2
RECT
 10
41.9395
 20
13.4395
 30
0.0000
 41
0.9000
 42
0.2500
 43
1.0000
 50
225.0000
  0
INSERT
  8
32
  2
RECT
 10
42.2931
 20
13.0860
 30
0.0000
 41
0.9000
 42
0.2500
 43
1.0000
 50
225.0000
  0
INSERT
  8
32
  2
RECT
 10
42.6466
 20
12.7324
 30
0.0000
 41
0.9000
 42
0.2500
 43
1.0000
 50
225.0000
  0
INSERT
  8
32
  2
RECT
 10
43.0002
 20
12.3789
 30
0.0000
 41
0.9000
 42
0.2500
 43
1.0000
 50
225.0000
  0
INSERT
  8
32
  2
RECT
 10
43.3537
 20
12.0253
 30
0.0000
 41
0.9000
 42
0.2500
 43
1.0000
 50
225.0000
  0
INSERT
  8
32
  2
RECT
 10
43.7073
 20
11.6718
 30
0.0000
 41
0.9000
 42
0.2500
 43
1.0000
 50
225.0000
  0
INSERT
  8
32
  2
RECT
 10
43.7073
 20
10.3282
 30
0.0000
 41
0.9000
 42
0.2500
 43
1.0000
 50
135.0000
  0
INSERT
  8
32
  2
RECT
 10
43.3537
 20
9.9747
 30
0.0000
 41
0.9000
 42
0.2500
 43
1.0000
 50
135.0000
  0
INSERT
  8
32
  2
RECT
 10
43.0002
 20
9.6211
 30
0.0000
 41
0.9000
 42
0.2500
 43
1.0000
 50
135.0000
  0
INSERT
  8
32
  2
RECT
 10
42.6466
 20
9.2676
 30
0.0000
 41
0.9000
 42
0.2500
 43
1.0000
 50
135.0000
  0
INSERT
  8
32
  2
RECT
 10
42.2931
 20
8.9140
 30
0.0000
 41
0.9000
 42
0.2500
 43
1.0000
 50
135.0000
  0
INSERT
  8
32
  2
RECT
 10
41.9395
 20
8.5605
 30
0.0000
 41
0.9000
 42
0.2500
 43
1.0000
 50
135.0000
  0
INSERT
  8
32
  2
RECT
 10
41.5860
 20
8.2069
 30
0.0000
 41
0.9000
 42
0.2500
 43
1.0000
 50
135.0000
  0
INSERT
  8
32
  2
RECT
 10
41.2324
 20
7.8534
 30
0.0000
 41
0.9000
 42
0.2500
 43
1.0000
 50
135.0000
  0
INSERT
  8
32
  2
RECT
 10
40.8789
 20
7.4998
 30
0.0000
 41
0.9000
 42
0.2500
 43
1.0000
 50
135.0000
  0
INSERT
  8
32
  2
RECT
 10
40.5253
 20
7.1463
 30
0.0000
 41
0.9000
 42
0.2500
 43
1.0000
 50
135.0000
  0
INSERT
  8
32
  2
RECT
 10
40.1718
 20
6.7927
 30
0.0000
 41
0.9000
 42
0.2500
 43
1.0000
 50
135.0000
  0
INSERT
  8
32
  2
RECT
 10
38.8283
 20
6.7927
 30
0.0000
 41
0.9000
 42
0.2500
 43
1.0000
 50
45.0000
  0
INSERT
  8
32
  2
RECT
 10
38.4747
 20
7.1463
 30
0.0000
 41
0.9000
 42
0.2500
 43
1.0000
 50
45.0000
  0
INSERT
  8
32
  2
RECT
 10
38.1211
 20
7.4998
 30
0.0000
 41
0.9000
 42
0.2500
 43
1.0000
 50
45.0000
  0
INSERT
  8
32
  2
RECT
 10
37.7676
 20
7.8534
 30
0.0000
 41
0.9000
 42
0.2500
 43
1.0000
 50
45.0000
  0
INSERT
  8
32
  2
RECT
 10
37.4140
 20
8.2069
 30
0.0000
 41
0.9000
 42
0.2500
 43
1.0000
 50
45.0000
  0
INSERT
  8
32
  2
RECT
 10
37.0605
 20
8.5605
 30
0.0000
 41
0.9000
 42
0.2500
 43
1.0000
 50
45.0000
  0
INSERT
  8
32
  2
RECT
 10
36.7069
 20
8.9140
 30
0.0000
 41
0.9000
 42
0.2500
 43
1.0000
 50
45.0000
  0
INSERT
  8
32
  2
RECT
 10
36.3534
 20
9.2676
 30
0.0000
 41
0.9000
 42
0.2500
 43
1.0000
 50
45.0000
  0
INSERT
  8
32
  2
RECT
 10
35.9998
 20
9.6211
 30
0.0000
 41
0.9000
 42
0.2500
 43
1.0000
 50
45.0000
  0
INSERT
  8
32
  2
RECT
 10
35.6463
 20
9.9747
 30
0.0000
 41
0.9000
 42
0.2500
 43
1.0000
 50
45.0000
  0
INSERT
  8
32
  2
RECT
 10
35.2927
 20
10.3282
 30
0.0000
 41
0.9000
 42
0.2500
 43
1.0000
 50
45.0000
  0
INSERT
  8
32
  2
RECT
 10
35.2927
 20
11.6718
 30
0.0000
 41
0.9000
 42
0.2500
 43
1.0000
 50
315.0000
  0
INSERT
  8
32
  2
RECT
 10
35.6463
 20
12.0253
 30
0.0000
 41
0.9000
 42
0.2500
 43
1.0000
 50
315.0000
  0
INSERT
  8
32
  2
RECT
 10
35.9998
 20
12.3789
 30
0.0000
 41
0.9000
 42
0.2500
 43
1.0000
 50
315.0000
  0
INSERT
  8
32
  2
RECT
 10
36.3534
 20
12.7324
 30
0.0000
 41
0.9000
 42
0.2500
 43
1.0000
 50
315.0000
  0
INSERT
  8
32
  2
RECT
 10
36.7069
 20
13.0860
 30
0.0000
 41
0.9000
 42
0.2500
 43
1.0000
 50
315.0000
  0
INSERT
  8
32
  2
RECT
 10
37.0605
 20
13.4395
 30
0.0000
 41
0.9000
 42
0.2500
 43
1.0000
 50
315.0000
  0
INSERT
  8
32
  2
RECT
 10
37.4140
 20
13.7931
 30
0.0000
 41
0.9000
 42
0.2500
 43
1.0000
 50
315.0000
  0
INSERT
  8
32
  2
RECT
 10
37.7676
 20
14.1466
 30
0.0000
 41
0.9000
 42
0.2500
 43
1.0000
 50
315.0000
  0
INSERT
  8
32
  2
RECT
 10
38.1211
 20
14.5002
 30
0.0000
 41
0.9000
 42
0.2500
 43
1.0000
 50
315.0000
  0
INSERT
  8
32
  2
RECT
 10
38.4747
 20
14.8537
 30
0.0000
 41
0.9000
 42
0.2500
 43
1.0000
 50
315.0000
  0
INSERT
  8
32
  2
RECT
 10
38.8283
 20
15.2073
 30
0.0000
 41
0.9000
 42
0.2500
 43
1.0000
 50
315.0000
  0
INSERT
  8
32
  2
RECT
 10
39.5000
 20
11.0000
 30
0.0000
 41
4.0000
 42
4.0000
 43
1.0000
 50
225.0000
  0
INSERT
  8
32
  2
RECT
 10
12.3000
 20
2.6500
 30
0.0000
 41
0.5500
 42
1.0000
 43
1.0000
 50
90.0000
  0
INSERT
  8
32
  2
RECT
 10
12.3000
 20
3.6000
 30
0.0000
 41
0.5500
 42
1.0000
 43
1.0000
 50
90.0000
  0
INSERT
  8
32
  2
RECT
 10
12.3000
 20
4.5500
 30
0.0000
 41
0.5500
 42
1.0000
 43
1.0000
 50
90.0000
  0
INSERT
  8
32
  2
RECT
 10
14.9000
 20
4.5500
 30
0.0000
 41
0.5500
 42
1.0000
 43
1.0000
 50
90.0000
  0
INSERT
  8
32
  2
RECT
 10
14.9000
 20
2.6500
 30
0.0000
 41
0.5500
 42
1.0000
 43
1.0000
 50
90.0000
  0
INSERT
  8
32
  2
RECT
 10
22.5500
 20
17.8000
 30
0.0000
 41
0.5500
 42
1.0000
 43
1.0000
 50
0.0000
  0
INSERT
  8
32
  2
RECT
 10
23.5000
 20
17.8000
 30
0.0000
 41
0.5500
 42
1.0000
 43
1.0000
 50
0.0000
  0
INSERT
  8
32
  2
RECT
 10
24.4500
 20
17.8000
 30
0.0000
 41
0.5500
 42
1.0000
 43
1.0000
 50
0.0000
  0
INSERT
  8
32
  2
RECT
 10
24.4500
 20
15.2000
 30
0.0000
 41
0.5500
 42
1.0000
 43
1.0000
 50
0.0000
  0
INSERT
  8
32
  2
RECT
 10
22.5500
 20
15.2000
 30
0.0000
 41
0.5500
 42
1.0000
 43
1.0000
 50
0.0000
  0
INSERT
  8
32
  2
RECT
 10
17.5000
 20
14.1500
 30
0.0000
 41
2.6000
 42
1.4000
 43
1.0000
 50
0.0000
  0
INSERT
  8
32
  2
RECT
 10
17.5000
 20
19.8500
 30
0.0000
 41
2.6000
 42
1.4000
 43
1.0000
 50
0.0000
  0
INSERT
  8
32
  2
RECT
 10
54.8500
 20
13.4500
 30
0.0000
 41
1.5000
 42
0.9000
 43
1.0000
 50
90.0000
  0
INSERT
  8
32
  2
RECT
 10
58.1500
 20
13.4500
 30
0.0000
 41
1.5000
 42
0.9000
 43
1.0000
 50
90.0000
  0
INSERT
  8
32
  2
RECT
 10
58.1500
 20
8.5500
 30
0.0000
 41
1.5000
 42
0.9000
 43
1.0000
 50
90.0000
  0
INSERT
  8
32
  2
RECT
 10
54.8500
 20
8.5500
 30
0.0000
 41
1.5000
 42
0.9000
 43
1.0000
 50
90.0000
  0
INSERT
  8
32
  2
RECT
 10
5.1500
 20
8.5500
 30
0.0000
 41
1.5000
 42
0.9000
 43
1.0000
 50
270.0000
  0
INSERT
  8
32
  2
RECT
 10
1.8500
 20
8.5500
 30
0.0000
 41
1.5000
 42
0.9000
 43
1.0000
 50
270.0000
  0
INSERT
  8
32
  2
RECT
 10
1.8500
 20
13.4500
 30
0.0000
 41
1.5000
 42
0.9000
 43
1.0000
 50
270.0000
  0
INSERT
  8
32
  2
RECT
 10
5.1500
 20
13.4500
 30
0.0000
 41
1.5000
 42
0.9000
 43
1.0000
 50
270.0000
  0
INSERT
  8
32
  2
RECT
 10
16.9000
 20
2.3000
 30
0.0000
 41
0.4000
 42
0.5000
 43
1.0000
 50
180.0000
  0
INSERT
  8
32
  2
RECT
 10
15.9000
 20
2.3000
 30
0.0000
 41
0.4000
 42
0.5000
 43
1.0000
 50
180.0000
  0
INSERT
  8
32
  2
RECT
 10
25.7000
 20
14.5000
 30
0.0000
 41
0.4000
 42
0.5000
 43
1.0000
 50
270.0000
  0
INSERT
  8
32
  2
RECT
 10
25.7000
 20
13.5000
 30
0.0000
 41
0.4000
 42
0.5000
 43
1.0000
 50
270.0000
  0
INSERT
  8
32
  2
RECT
 10
20.7000
 20
2.4000
 30
0.0000
 41
0.4000
 42
0.5000
 43
1.0000
 50
180.0000
  0
INSERT
  8
32
  2
RECT
 10
19.7000
 20
2.4000
 30
0.0000
 41
0.4000
 42
0.5000
 43
1.0000
 50
180.0000
  0
INSERT
  8
32
  2
RECT
 10
9.5000
 20
4.0000
 30
0.0000
 41
0.4000
 42
0.5000
 43
1.0000
 50
180.0000
  0
INSERT
  8
32
  2
RECT
 10
8.5000
 20
4.0000
 30
0.0000
 41
0.4000
 42
0.5000
 43
1.0000
 50
180.0000
  0
INSERT
  8
32
  2
RECT
 10
35.6000
 20
20.7000
 30
0.0000
 41
0.4000
 42
0.5000
 43
1.0000
 50
180.0000
  0
INSERT
  8
32
  2
RECT
 10
34.6000
 20
20.7000
 30
0.0000
 41
0.4000
 42
0.5000
 43
1.0000
 50
180.0000
  0
INSERT
  8
32
  2
RECT
 10
33.5464
 20
5.8536
 30
0.0000
 41
0.4000
 42
0.5000
 43
1.0000
 50
315.0000
  0
INSERT
  8
32
  2
RECT
 10
34.2536
 20
5.1464
 30
0.0000
 41
0.4000
 42
0.5000
 43
1.0000
 50
315.0000
  0
INSERT
  8
32
  2
RECT
 10
48.0000
 20
3.0000
 30
0.0000
 41
1.2000
 42
1.0000
 43
1.0000
 50
180.0000
  0
INSERT
  8
32
  2
RECT
 10
45.0000
 20
3.0000
 30
0.0000
 41
1.2000
 42
1.0000
 43
1.0000
 50
180.0000
  0
INSERT
  8
32
  2
RECT
 10
45.0000
 20
5.0000
 30
0.0000
 41
1.2000
 42
1.0000
 43
1.0000
 50
180.0000
  0
INSERT
  8
32
  2
RECT
 10
48.0000
 20
5.0000
 30
0.0000
 41
1.2000
 42
1.0000
 43
1.0000
 50
180.0000
  0
ENDSEC
  0
EOF
