%
M48
M72
T01C0.01575
T02C0.01969
T03C0.02362
T04C0.03150
T05C0.03200
T06C0.03543
T07C0.03937
T08C0.06299
%
T01
X143139Y24241
X155737Y38414
X167154Y52194
X158887Y56524
X184871Y43926
X188808Y52194
X216761Y68729
X221091Y79359
X215580Y81721
X210461Y79359
X201013Y86052
X210855Y91564
X205737Y93926
X217154Y93139
X231721Y80540
X264005Y82115
X268335Y76209
X234083Y52587
X243926Y42351
X243532Y36052
X237627Y37627
X247076Y31328
X255343Y33690
X270698Y35658
X228572Y26997
X195894Y24635
X195894Y92351
T02
X196288Y67154
X186052Y61150
X201800Y49438
X203375Y39989
X204556Y30146
X190776Y21879
X182115Y17548
X171879Y22272
X171879Y28965
X171485Y43532
X164005Y61150
X149831Y68335
X122272Y56131
X127784Y26997
X208099Y65580
X228965Y64005
X235265Y66367
X228572Y56918
X220304Y47863
X223454Y42351
X255737Y56918
X274241Y70304
X254162Y82902
X245501Y80540
X267942Y86446
X269910Y94713
X309280Y83690
X322666Y69517
X307312Y66761
X283296Y52194
X295894Y42351
X299044Y37233
X303375Y30934
X320304Y32902
X258887Y22666
X128572Y88414
T03
X162430Y61150
X162824Y61150
X163217Y61150
X163611Y61150
X164005Y61150
X164398Y61150
X164792Y61150
X165186Y61150
X165580Y61150
X173060Y52686
X173454Y52686
X173847Y52686
X174241Y52686
X174635Y52686
X175028Y52686
X175028Y52686
X175422Y52686
X175816Y52686
X176209Y52686
X176603Y52686
X176997Y52686
X184477Y61150
X184871Y61150
X185265Y61150
X185658Y61150
X186052Y61150
X186446Y61150
X186839Y61150
X187233Y61150
X187627Y61150
T04
X106131Y37233
X114005Y37233
X121879Y37233
T05
X201524Y56918
X211524Y56918
T06
X141170Y76997
X133296Y76997
T07
X203335Y22548
X213335Y22548
X223335Y22548
X233335Y22548
X281170Y73572
X291170Y73572
X301170Y73572
X301170Y83572
X291170Y83572
X281170Y83572
T08
X297076Y56918
X139595Y56918
M30
