G75*
%MOIN*%
%OFA0B0*%
%FSLAX25Y25*%
%IPPOS*%
%LPD*%
%AMOC8*
5,1,8,0,0,1.08239X$1,22.5*
%
%ADD10C,0.13398*%
%ADD11R,0.06800X0.06800*%
%ADD12C,0.06800*%
%ADD13R,0.05524X0.03950*%
%ADD14R,0.04737X0.03950*%
%ADD15R,0.03950X0.04737*%
%ADD16R,0.04737X0.02769*%
%ADD17OC8,0.05600*%
%ADD18OC8,0.06200*%
%ADD19C,0.04343*%
D10*
X0013598Y0013598D03*
X0013598Y0245882D03*
X0383677Y0245882D03*
X0383677Y0013598D03*
D11*
X0308874Y0211433D03*
X0057890Y0218323D03*
X0057890Y0159268D03*
X0057890Y0100213D03*
X0057890Y0041157D03*
D12*
X0067732Y0041157D03*
X0077575Y0041157D03*
X0087417Y0041157D03*
X0097260Y0041157D03*
X0107102Y0041157D03*
X0116945Y0041157D03*
X0126787Y0041157D03*
X0136630Y0041157D03*
X0146472Y0041157D03*
X0156315Y0041157D03*
X0166157Y0041157D03*
X0166157Y0100213D03*
X0156315Y0100213D03*
X0146472Y0100213D03*
X0136630Y0100213D03*
X0126787Y0100213D03*
X0116945Y0100213D03*
X0107102Y0100213D03*
X0097260Y0100213D03*
X0087417Y0100213D03*
X0077575Y0100213D03*
X0067732Y0100213D03*
X0067732Y0159268D03*
X0077575Y0159268D03*
X0087417Y0159268D03*
X0097260Y0159268D03*
X0107102Y0159268D03*
X0116945Y0159268D03*
X0126787Y0159268D03*
X0136630Y0159268D03*
X0146472Y0159268D03*
X0156315Y0159268D03*
X0166157Y0159268D03*
X0166157Y0218323D03*
X0156315Y0218323D03*
X0146472Y0218323D03*
X0136630Y0218323D03*
X0126787Y0218323D03*
X0116945Y0218323D03*
X0107102Y0218323D03*
X0097260Y0218323D03*
X0087417Y0218323D03*
X0077575Y0218323D03*
X0067732Y0218323D03*
X0308874Y0201591D03*
X0308874Y0191748D03*
X0308874Y0181906D03*
X0308874Y0172063D03*
X0308874Y0162220D03*
X0308874Y0152378D03*
X0308874Y0142535D03*
X0308874Y0132693D03*
X0308874Y0122850D03*
X0308874Y0113008D03*
X0308874Y0103165D03*
X0308874Y0093323D03*
X0308874Y0083480D03*
D13*
X0187220Y0084268D03*
X0187220Y0076787D03*
X0178559Y0080528D03*
X0147850Y0084268D03*
X0139189Y0080528D03*
X0147850Y0076787D03*
X0147850Y0025213D03*
X0139189Y0021472D03*
X0147850Y0017732D03*
X0178559Y0021472D03*
X0187220Y0017732D03*
X0187220Y0025213D03*
X0187220Y0135843D03*
X0187220Y0143323D03*
X0178559Y0139583D03*
X0147850Y0143323D03*
X0139189Y0139583D03*
X0147850Y0135843D03*
X0147850Y0194898D03*
X0147850Y0202378D03*
X0139189Y0198638D03*
X0178559Y0198638D03*
X0187220Y0202378D03*
X0187220Y0194898D03*
D14*
X0194701Y0195882D03*
X0194701Y0201394D03*
X0194701Y0211630D03*
X0194701Y0217142D03*
X0155331Y0201394D03*
X0155331Y0195882D03*
X0107283Y0194850D03*
X0107283Y0200362D03*
X0029346Y0201394D03*
X0029346Y0195882D03*
X0029346Y0142339D03*
X0029346Y0136827D03*
X0029346Y0083283D03*
X0029346Y0077772D03*
X0029346Y0024228D03*
X0029346Y0018717D03*
X0155331Y0018717D03*
X0155331Y0024228D03*
X0194701Y0024228D03*
X0194701Y0018717D03*
X0194701Y0034465D03*
X0194701Y0039976D03*
X0238008Y0065961D03*
X0238008Y0071472D03*
X0245882Y0071472D03*
X0245882Y0065961D03*
X0194701Y0077772D03*
X0194701Y0083283D03*
X0194701Y0093520D03*
X0194701Y0099031D03*
X0155331Y0083283D03*
X0155331Y0077772D03*
X0238008Y0128953D03*
X0238008Y0134465D03*
X0245882Y0134465D03*
X0245882Y0128953D03*
X0194701Y0136827D03*
X0194701Y0142339D03*
X0194701Y0152575D03*
X0194701Y0158087D03*
X0155331Y0142339D03*
X0155331Y0136827D03*
D15*
X0164386Y0127772D03*
X0169898Y0127772D03*
X0169898Y0072654D03*
X0164386Y0072654D03*
X0164386Y0009661D03*
X0169898Y0009661D03*
X0169898Y0186827D03*
X0164386Y0186827D03*
D16*
X0233126Y0117713D03*
X0233126Y0112713D03*
X0233126Y0107713D03*
X0233126Y0102713D03*
X0233126Y0097713D03*
X0233126Y0092713D03*
X0233126Y0087713D03*
X0233126Y0082713D03*
X0258638Y0082713D03*
X0258638Y0087713D03*
X0258638Y0092713D03*
X0258638Y0097713D03*
X0258638Y0102713D03*
X0258638Y0107713D03*
X0258638Y0112713D03*
X0258638Y0117713D03*
D17*
X0034346Y0100213D03*
X0024346Y0100213D03*
X0024346Y0159268D03*
X0034346Y0159268D03*
X0034346Y0218323D03*
X0024346Y0218323D03*
X0024346Y0041157D03*
X0034346Y0041157D03*
D18*
X0355055Y0087457D03*
X0365055Y0087457D03*
X0365055Y0097457D03*
X0355055Y0097457D03*
X0355055Y0107457D03*
X0365055Y0107457D03*
X0365055Y0117457D03*
X0355055Y0117457D03*
X0355055Y0127457D03*
X0365055Y0127457D03*
X0365055Y0137457D03*
X0355055Y0137457D03*
X0355055Y0147457D03*
X0365055Y0147457D03*
X0365055Y0157457D03*
X0355055Y0157457D03*
X0355055Y0167457D03*
X0365055Y0167457D03*
X0365055Y0177457D03*
X0355055Y0177457D03*
X0355055Y0187457D03*
X0365055Y0187457D03*
X0365055Y0197457D03*
X0355055Y0197457D03*
X0355055Y0207457D03*
X0365055Y0207457D03*
D19*
X0278787Y0155787D03*
X0255787Y0151787D03*
X0238843Y0158787D03*
X0220787Y0172787D03*
X0218323Y0147457D03*
X0204543Y0145488D03*
X0184858Y0125016D03*
X0189189Y0112024D03*
X0206512Y0100213D03*
X0210449Y0088402D03*
X0210449Y0072654D03*
X0287614Y0073441D03*
X0139583Y0182890D03*
X0232787Y0204787D03*
M02*
