%
M48
M72
T01C0.02362
T02C0.03200
T03C0.03600
T04C0.04000
T05C0.12598
%
T01
X189189Y112024
X184858Y125016
X204543Y145488
X218323Y147457
X238843Y158787
X255787Y151787
X278787Y155787
X220787Y172787
X232787Y204787
X139583Y182890
X206512Y100213
X210449Y88402
X210449Y72654
X287614Y73441
T02
X34346Y100213
X24346Y100213
X24346Y159268
X34346Y159268
X34346Y218323
X24346Y218323
X24346Y41157
X34346Y41157
T03
X355055Y87457
X365055Y87457
X365055Y97457
X355055Y97457
X355055Y107457
X365055Y107457
X365055Y117457
X355055Y117457
X355055Y127457
X365055Y127457
X365055Y137457
X355055Y137457
X355055Y147457
X365055Y147457
X365055Y157457
X355055Y157457
X355055Y167457
X365055Y167457
X365055Y177457
X355055Y177457
X355055Y187457
X365055Y187457
X365055Y197457
X355055Y197457
X355055Y207457
X365055Y207457
T04
X308874Y211433
X308874Y201591
X308874Y191748
X308874Y181906
X308874Y172063
X308874Y162220
X308874Y152378
X308874Y142535
X308874Y132693
X308874Y122850
X308874Y113008
X308874Y103165
X308874Y93323
X308874Y83480
X166157Y100213
X156315Y100213
X146472Y100213
X136630Y100213
X126787Y100213
X116945Y100213
X107102Y100213
X97260Y100213
X87417Y100213
X77575Y100213
X67732Y100213
X57890Y100213
X57890Y159268
X67732Y159268
X77575Y159268
X87417Y159268
X97260Y159268
X107102Y159268
X116945Y159268
X126787Y159268
X136630Y159268
X146472Y159268
X156315Y159268
X166157Y159268
X166157Y218323
X156315Y218323
X146472Y218323
X136630Y218323
X126787Y218323
X116945Y218323
X107102Y218323
X97260Y218323
X87417Y218323
X77575Y218323
X67732Y218323
X57890Y218323
X57890Y41157
X67732Y41157
X77575Y41157
X87417Y41157
X97260Y41157
X107102Y41157
X116945Y41157
X126787Y41157
X136630Y41157
X146472Y41157
X156315Y41157
X166157Y41157
T05
X13598Y13598
X13598Y245882
X383677Y245882
X383677Y13598
M30
