G75*
%MOIN*%
%OFA0B0*%
%FSLAX25Y25*%
%IPPOS*%
%LPD*%
%AMOC8*
5,1,8,0,0,1.08239X$1,22.5*
%
%ADD10R,0.06000X0.06000*%
%ADD11C,0.06000*%
%ADD12OC8,0.04800*%
%ADD13OC8,0.05400*%
%ADD14C,0.01181*%
%ADD15C,0.03543*%
D10*
X0057890Y0041157D03*
X0057890Y0100213D03*
X0057890Y0159268D03*
X0057890Y0218323D03*
X0308874Y0211433D03*
D11*
X0308874Y0201591D03*
X0308874Y0191748D03*
X0308874Y0181906D03*
X0308874Y0172063D03*
X0308874Y0162220D03*
X0308874Y0152378D03*
X0308874Y0142535D03*
X0308874Y0132693D03*
X0308874Y0122850D03*
X0308874Y0113008D03*
X0308874Y0103165D03*
X0308874Y0093323D03*
X0308874Y0083480D03*
X0166157Y0100213D03*
X0156315Y0100213D03*
X0146472Y0100213D03*
X0136630Y0100213D03*
X0126787Y0100213D03*
X0116945Y0100213D03*
X0107102Y0100213D03*
X0097260Y0100213D03*
X0087417Y0100213D03*
X0077575Y0100213D03*
X0067732Y0100213D03*
X0067732Y0159268D03*
X0077575Y0159268D03*
X0087417Y0159268D03*
X0097260Y0159268D03*
X0107102Y0159268D03*
X0116945Y0159268D03*
X0126787Y0159268D03*
X0136630Y0159268D03*
X0146472Y0159268D03*
X0156315Y0159268D03*
X0166157Y0159268D03*
X0166157Y0218323D03*
X0156315Y0218323D03*
X0146472Y0218323D03*
X0136630Y0218323D03*
X0126787Y0218323D03*
X0116945Y0218323D03*
X0107102Y0218323D03*
X0097260Y0218323D03*
X0087417Y0218323D03*
X0077575Y0218323D03*
X0067732Y0218323D03*
X0067732Y0041157D03*
X0077575Y0041157D03*
X0087417Y0041157D03*
X0097260Y0041157D03*
X0107102Y0041157D03*
X0116945Y0041157D03*
X0126787Y0041157D03*
X0136630Y0041157D03*
X0146472Y0041157D03*
X0156315Y0041157D03*
X0166157Y0041157D03*
D12*
X0034346Y0041157D03*
X0024346Y0041157D03*
X0024346Y0100213D03*
X0034346Y0100213D03*
X0034346Y0159268D03*
X0024346Y0159268D03*
X0024346Y0218323D03*
X0034346Y0218323D03*
D13*
X0355055Y0207457D03*
X0365055Y0207457D03*
X0365055Y0197457D03*
X0355055Y0197457D03*
X0355055Y0187457D03*
X0365055Y0187457D03*
X0365055Y0177457D03*
X0355055Y0177457D03*
X0355055Y0167457D03*
X0365055Y0167457D03*
X0365055Y0157457D03*
X0355055Y0157457D03*
X0355055Y0147457D03*
X0365055Y0147457D03*
X0365055Y0137457D03*
X0355055Y0137457D03*
X0355055Y0127457D03*
X0365055Y0127457D03*
X0365055Y0117457D03*
X0355055Y0117457D03*
X0355055Y0107457D03*
X0365055Y0107457D03*
X0365055Y0097457D03*
X0355055Y0097457D03*
X0355055Y0087457D03*
X0365055Y0087457D03*
D14*
X0004346Y0004346D02*
X0004346Y0255134D01*
X0392929Y0255134D01*
X0392929Y0004346D01*
X0004346Y0004346D01*
X0004346Y0005326D02*
X0010421Y0005326D01*
X0011836Y0004740D02*
X0008581Y0006089D01*
X0006089Y0008581D01*
X0004740Y0011836D01*
X0004740Y0015360D01*
X0006089Y0018616D01*
X0008581Y0021108D01*
X0011836Y0022457D01*
X0015360Y0022457D01*
X0018616Y0021108D01*
X0021108Y0018616D01*
X0022457Y0015360D01*
X0022457Y0011836D01*
X0021108Y0008581D01*
X0018616Y0006089D01*
X0015360Y0004740D01*
X0011836Y0004740D01*
X0008163Y0006506D02*
X0004346Y0006506D01*
X0004346Y0007685D02*
X0006984Y0007685D01*
X0005971Y0008865D02*
X0004346Y0008865D01*
X0004346Y0010045D02*
X0005482Y0010045D01*
X0004994Y0011224D02*
X0004346Y0011224D01*
X0004346Y0012404D02*
X0004740Y0012404D01*
X0004740Y0013584D02*
X0004346Y0013584D01*
X0004346Y0014763D02*
X0004740Y0014763D01*
X0004981Y0015943D02*
X0004346Y0015943D01*
X0004346Y0017122D02*
X0005470Y0017122D01*
X0005959Y0018302D02*
X0004346Y0018302D01*
X0004346Y0019482D02*
X0006954Y0019482D01*
X0008134Y0020661D02*
X0004346Y0020661D01*
X0004346Y0021841D02*
X0010350Y0021841D01*
X0004346Y0023020D02*
X0392929Y0023020D01*
X0392929Y0021841D02*
X0386926Y0021841D01*
X0385439Y0022457D02*
X0381915Y0022457D01*
X0378659Y0021108D01*
X0376167Y0018616D01*
X0374819Y0015360D01*
X0374819Y0011836D01*
X0376167Y0008581D01*
X0378659Y0006089D01*
X0381915Y0004740D01*
X0385439Y0004740D01*
X0388695Y0006089D01*
X0391187Y0008581D01*
X0392535Y0011836D01*
X0392535Y0015360D01*
X0391187Y0018616D01*
X0388695Y0021108D01*
X0385439Y0022457D01*
X0389142Y0020661D02*
X0392929Y0020661D01*
X0392929Y0019482D02*
X0390321Y0019482D01*
X0391317Y0018302D02*
X0392929Y0018302D01*
X0392929Y0017122D02*
X0391806Y0017122D01*
X0392294Y0015943D02*
X0392929Y0015943D01*
X0392929Y0014763D02*
X0392535Y0014763D01*
X0392535Y0013584D02*
X0392929Y0013584D01*
X0392929Y0012404D02*
X0392535Y0012404D01*
X0392282Y0011224D02*
X0392929Y0011224D01*
X0392929Y0010045D02*
X0391793Y0010045D01*
X0391305Y0008865D02*
X0392929Y0008865D01*
X0392929Y0007685D02*
X0390292Y0007685D01*
X0389112Y0006506D02*
X0392929Y0006506D01*
X0392929Y0005326D02*
X0386854Y0005326D01*
X0380500Y0005326D02*
X0016775Y0005326D01*
X0019033Y0006506D02*
X0378242Y0006506D01*
X0377063Y0007685D02*
X0020213Y0007685D01*
X0021226Y0008865D02*
X0376050Y0008865D01*
X0375561Y0010045D02*
X0021715Y0010045D01*
X0022203Y0011224D02*
X0375072Y0011224D01*
X0374819Y0012404D02*
X0022457Y0012404D01*
X0022457Y0013584D02*
X0374819Y0013584D01*
X0374819Y0014763D02*
X0022457Y0014763D01*
X0022215Y0015943D02*
X0375060Y0015943D01*
X0375549Y0017122D02*
X0021727Y0017122D01*
X0021238Y0018302D02*
X0376037Y0018302D01*
X0377033Y0019482D02*
X0020243Y0019482D01*
X0019063Y0020661D02*
X0378212Y0020661D01*
X0380428Y0021841D02*
X0016847Y0021841D01*
X0004346Y0024200D02*
X0392929Y0024200D01*
X0392929Y0025380D02*
X0004346Y0025380D01*
X0004346Y0026559D02*
X0392929Y0026559D01*
X0392929Y0027739D02*
X0004346Y0027739D01*
X0004346Y0028919D02*
X0392929Y0028919D01*
X0392929Y0030098D02*
X0004346Y0030098D01*
X0004346Y0031278D02*
X0392929Y0031278D01*
X0392929Y0032457D02*
X0004346Y0032457D01*
X0004346Y0033637D02*
X0392929Y0033637D01*
X0392929Y0034817D02*
X0004346Y0034817D01*
X0004346Y0035996D02*
X0392929Y0035996D01*
X0392929Y0037176D02*
X0168283Y0037176D01*
X0168702Y0037349D02*
X0169966Y0038613D01*
X0170650Y0040264D01*
X0170650Y0042051D01*
X0169966Y0043702D01*
X0168702Y0044966D01*
X0167051Y0045650D01*
X0165264Y0045650D01*
X0163613Y0044966D01*
X0162349Y0043702D01*
X0161665Y0042051D01*
X0161665Y0040264D01*
X0162349Y0038613D01*
X0163613Y0037349D01*
X0165264Y0036665D01*
X0167051Y0036665D01*
X0168702Y0037349D01*
X0169708Y0038355D02*
X0392929Y0038355D01*
X0392929Y0039535D02*
X0170348Y0039535D01*
X0170650Y0040715D02*
X0392929Y0040715D01*
X0392929Y0041894D02*
X0170650Y0041894D01*
X0170226Y0043074D02*
X0392929Y0043074D01*
X0392929Y0044253D02*
X0169414Y0044253D01*
X0167574Y0045433D02*
X0392929Y0045433D01*
X0392929Y0046613D02*
X0105093Y0046613D01*
X0105436Y0046957D02*
X0101394Y0042914D01*
X0101752Y0042051D01*
X0101752Y0040264D01*
X0101068Y0038613D01*
X0099804Y0037349D01*
X0098153Y0036665D01*
X0096366Y0036665D01*
X0094715Y0037349D01*
X0093452Y0038613D01*
X0092768Y0040264D01*
X0092768Y0042051D01*
X0093452Y0043702D01*
X0094715Y0044966D01*
X0096366Y0045650D01*
X0098153Y0045650D01*
X0099017Y0045292D01*
X0104044Y0050319D01*
X0354634Y0050319D01*
X0379634Y0075318D01*
X0379634Y0162115D01*
X0367638Y0174111D01*
X0366792Y0173265D01*
X0363319Y0173265D01*
X0362984Y0173599D01*
X0360259Y0170874D01*
X0357566Y0170874D01*
X0359247Y0169193D01*
X0359247Y0165720D01*
X0357429Y0163902D01*
X0359359Y0163902D01*
X0361020Y0165563D01*
X0360863Y0165720D01*
X0360863Y0169193D01*
X0363319Y0171649D01*
X0366792Y0171649D01*
X0369247Y0169193D01*
X0369247Y0165720D01*
X0366792Y0163265D01*
X0363477Y0163265D01*
X0360751Y0160539D01*
X0357901Y0160539D01*
X0359247Y0159193D01*
X0359247Y0155720D01*
X0357586Y0154059D01*
X0359359Y0154059D01*
X0360941Y0155642D01*
X0360863Y0155720D01*
X0360863Y0159193D01*
X0363319Y0161649D01*
X0366792Y0161649D01*
X0369247Y0159193D01*
X0369247Y0155720D01*
X0366792Y0153265D01*
X0363319Y0153265D01*
X0360751Y0150697D01*
X0357743Y0150697D01*
X0359247Y0149193D01*
X0359247Y0145720D01*
X0357995Y0144468D01*
X0359689Y0144468D01*
X0360902Y0145681D01*
X0360863Y0145720D01*
X0360863Y0149193D01*
X0363319Y0151649D01*
X0366792Y0151649D01*
X0369247Y0149193D01*
X0369247Y0145720D01*
X0366792Y0143265D01*
X0363319Y0143265D01*
X0363280Y0143304D01*
X0362067Y0142091D01*
X0361082Y0141106D01*
X0357334Y0141106D01*
X0359247Y0139193D01*
X0359247Y0135720D01*
X0357995Y0134468D01*
X0359689Y0134468D01*
X0360902Y0135681D01*
X0360863Y0135720D01*
X0360863Y0139193D01*
X0363319Y0141649D01*
X0366792Y0141649D01*
X0369247Y0139193D01*
X0369247Y0135720D01*
X0366792Y0133265D01*
X0363319Y0133265D01*
X0363280Y0133304D01*
X0362067Y0132091D01*
X0361082Y0131106D01*
X0357334Y0131106D01*
X0359247Y0129193D01*
X0359247Y0125720D01*
X0356792Y0123265D01*
X0353319Y0123265D01*
X0350863Y0125720D01*
X0350863Y0129193D01*
X0352776Y0131106D01*
X0350484Y0131106D01*
X0331468Y0112091D01*
X0331468Y0101091D01*
X0313366Y0082989D01*
X0313366Y0082587D01*
X0312682Y0080936D01*
X0311419Y0079672D01*
X0309768Y0078988D01*
X0307980Y0078988D01*
X0306329Y0079672D01*
X0305066Y0080936D01*
X0304382Y0082587D01*
X0304382Y0084374D01*
X0305066Y0086025D01*
X0306329Y0087289D01*
X0307980Y0087972D01*
X0309768Y0087972D01*
X0311419Y0087289D01*
X0312165Y0086542D01*
X0328106Y0102484D01*
X0328106Y0113484D01*
X0329091Y0114468D01*
X0349091Y0134468D01*
X0352115Y0134468D01*
X0350863Y0135720D01*
X0350863Y0135776D01*
X0346153Y0135776D01*
X0326468Y0116091D01*
X0326468Y0108540D01*
X0313008Y0095080D01*
X0313366Y0094216D01*
X0313366Y0092429D01*
X0312682Y0090778D01*
X0311419Y0089515D01*
X0309768Y0088831D01*
X0307980Y0088831D01*
X0306329Y0089515D01*
X0305066Y0090778D01*
X0304382Y0092429D01*
X0304382Y0094216D01*
X0305066Y0095867D01*
X0306329Y0097131D01*
X0307980Y0097815D01*
X0309768Y0097815D01*
X0310631Y0097457D01*
X0323106Y0109933D01*
X0323106Y0117484D01*
X0324091Y0118468D01*
X0344760Y0139138D01*
X0350863Y0139138D01*
X0350863Y0139193D01*
X0352776Y0141106D01*
X0339484Y0141106D01*
X0318468Y0120091D01*
X0318468Y0108091D01*
X0313366Y0102989D01*
X0313366Y0102272D01*
X0312682Y0100621D01*
X0311419Y0099357D01*
X0309768Y0098673D01*
X0307980Y0098673D01*
X0306329Y0099357D01*
X0305066Y0100621D01*
X0304382Y0102272D01*
X0304382Y0104059D01*
X0305066Y0105710D01*
X0306329Y0106974D01*
X0307980Y0107657D01*
X0309768Y0107657D01*
X0311419Y0106974D01*
X0312007Y0106385D01*
X0315106Y0109484D01*
X0315106Y0121484D01*
X0316091Y0122468D01*
X0338091Y0144468D01*
X0352115Y0144468D01*
X0350863Y0145720D01*
X0350863Y0149193D01*
X0352367Y0150697D01*
X0339098Y0150697D01*
X0313008Y0124607D01*
X0313366Y0123744D01*
X0313366Y0121957D01*
X0312682Y0120306D01*
X0311419Y0119042D01*
X0309768Y0118358D01*
X0307980Y0118358D01*
X0306329Y0119042D01*
X0305066Y0120306D01*
X0304382Y0121957D01*
X0304382Y0123744D01*
X0305066Y0125395D01*
X0306329Y0126659D01*
X0307980Y0127343D01*
X0309768Y0127343D01*
X0310631Y0126985D01*
X0336720Y0153074D01*
X0337705Y0154059D01*
X0352524Y0154059D01*
X0350863Y0155720D01*
X0350863Y0155776D01*
X0334334Y0155776D01*
X0313008Y0134450D01*
X0313366Y0133586D01*
X0313366Y0131799D01*
X0312682Y0130148D01*
X0311419Y0128885D01*
X0309768Y0128201D01*
X0307980Y0128201D01*
X0306329Y0128885D01*
X0305066Y0130148D01*
X0304921Y0130497D01*
X0292445Y0118020D01*
X0292445Y0075894D01*
X0291460Y0074909D01*
X0290808Y0074258D01*
X0290878Y0074090D01*
X0290878Y0072792D01*
X0290381Y0071592D01*
X0289463Y0070674D01*
X0288263Y0070177D01*
X0286965Y0070177D01*
X0285765Y0070674D01*
X0284847Y0071592D01*
X0284350Y0072792D01*
X0284350Y0074090D01*
X0284847Y0075290D01*
X0285765Y0076208D01*
X0286965Y0076705D01*
X0288263Y0076705D01*
X0288431Y0076635D01*
X0289083Y0077287D01*
X0289083Y0119413D01*
X0290067Y0120398D01*
X0290067Y0120398D01*
X0303059Y0133389D01*
X0303059Y0133389D01*
X0304044Y0134374D01*
X0304708Y0134374D01*
X0305066Y0135237D01*
X0306329Y0136501D01*
X0307980Y0137185D01*
X0309768Y0137185D01*
X0310631Y0136827D01*
X0331957Y0158153D01*
X0332941Y0159138D01*
X0350863Y0159138D01*
X0350863Y0159193D01*
X0352209Y0160539D01*
X0329255Y0160539D01*
X0313008Y0144292D01*
X0313366Y0143429D01*
X0313366Y0141642D01*
X0312682Y0139991D01*
X0311419Y0138727D01*
X0309768Y0138043D01*
X0307980Y0138043D01*
X0306329Y0138727D01*
X0305066Y0139991D01*
X0304708Y0140854D01*
X0258980Y0140854D01*
X0221775Y0103650D01*
X0195186Y0103650D01*
X0194201Y0104634D01*
X0190006Y0108829D01*
X0189838Y0108760D01*
X0188540Y0108760D01*
X0187340Y0109257D01*
X0186422Y0110175D01*
X0185925Y0111374D01*
X0185925Y0112673D01*
X0186422Y0113872D01*
X0187340Y0114791D01*
X0188540Y0115287D01*
X0189838Y0115287D01*
X0191038Y0114791D01*
X0191956Y0113872D01*
X0192453Y0112673D01*
X0192453Y0111374D01*
X0192383Y0111207D01*
X0196578Y0107012D01*
X0220382Y0107012D01*
X0256602Y0143232D01*
X0257587Y0144217D01*
X0304708Y0144217D01*
X0305066Y0145080D01*
X0306329Y0146344D01*
X0307980Y0147028D01*
X0309768Y0147028D01*
X0310631Y0146670D01*
X0326878Y0162917D01*
X0327863Y0163902D01*
X0352682Y0163902D01*
X0350863Y0165720D01*
X0350863Y0165776D01*
X0324649Y0165776D01*
X0313008Y0154135D01*
X0313366Y0153271D01*
X0313366Y0151484D01*
X0312682Y0149833D01*
X0311419Y0148570D01*
X0309768Y0147886D01*
X0307980Y0147886D01*
X0306329Y0148570D01*
X0305138Y0149761D01*
X0302484Y0147106D01*
X0258091Y0147106D01*
X0257106Y0148091D01*
X0256604Y0148593D01*
X0256437Y0148524D01*
X0255138Y0148524D01*
X0253939Y0149020D01*
X0253020Y0149939D01*
X0252524Y0151138D01*
X0252524Y0152437D01*
X0253020Y0153636D01*
X0253939Y0154554D01*
X0255138Y0155051D01*
X0256437Y0155051D01*
X0257636Y0154554D01*
X0258554Y0153636D01*
X0259051Y0152437D01*
X0259051Y0151138D01*
X0258982Y0150971D01*
X0259484Y0150468D01*
X0301091Y0150468D01*
X0303697Y0153074D01*
X0304682Y0154059D01*
X0304708Y0154059D01*
X0305066Y0154923D01*
X0306329Y0156186D01*
X0307980Y0156870D01*
X0309768Y0156870D01*
X0310631Y0156512D01*
X0322272Y0168153D01*
X0323256Y0169138D01*
X0350863Y0169138D01*
X0350863Y0169193D01*
X0352544Y0170874D01*
X0319905Y0170874D01*
X0313008Y0163977D01*
X0313366Y0163114D01*
X0313366Y0161327D01*
X0312682Y0159676D01*
X0311419Y0158412D01*
X0309768Y0157728D01*
X0307980Y0157728D01*
X0306329Y0158412D01*
X0305066Y0159676D01*
X0304382Y0161327D01*
X0304382Y0163114D01*
X0305066Y0164765D01*
X0306329Y0166029D01*
X0307980Y0166713D01*
X0309768Y0166713D01*
X0310631Y0166355D01*
X0317528Y0173251D01*
X0318512Y0174236D01*
X0352347Y0174236D01*
X0350863Y0175720D01*
X0350863Y0175776D01*
X0314964Y0175776D01*
X0313008Y0173820D01*
X0313366Y0172957D01*
X0313366Y0171169D01*
X0312682Y0169518D01*
X0311419Y0168255D01*
X0309768Y0167571D01*
X0307980Y0167571D01*
X0306329Y0168255D01*
X0305066Y0169518D01*
X0304708Y0170382D01*
X0233783Y0170382D01*
X0227484Y0164083D01*
X0227484Y0156421D01*
X0232602Y0151303D01*
X0232602Y0142036D01*
X0231618Y0141051D01*
X0207602Y0117035D01*
X0116460Y0117035D01*
X0101394Y0101970D01*
X0101752Y0101106D01*
X0101752Y0099319D01*
X0101068Y0097668D01*
X0099804Y0096404D01*
X0098153Y0095720D01*
X0096366Y0095720D01*
X0094715Y0096404D01*
X0093452Y0097668D01*
X0092768Y0099319D01*
X0092768Y0101106D01*
X0093452Y0102757D01*
X0094715Y0104021D01*
X0096366Y0104705D01*
X0098153Y0104705D01*
X0099017Y0104347D01*
X0114083Y0119413D01*
X0114083Y0119413D01*
X0115067Y0120398D01*
X0206209Y0120398D01*
X0229240Y0143429D01*
X0229240Y0149910D01*
X0225107Y0154043D01*
X0224122Y0155028D01*
X0224122Y0165476D01*
X0231406Y0172759D01*
X0232390Y0173744D01*
X0304708Y0173744D01*
X0305066Y0174608D01*
X0306329Y0175871D01*
X0307980Y0176555D01*
X0309768Y0176555D01*
X0310631Y0176197D01*
X0313571Y0179138D01*
X0350863Y0179138D01*
X0350863Y0179193D01*
X0352386Y0180717D01*
X0313244Y0180717D01*
X0312682Y0179361D01*
X0311419Y0178097D01*
X0309768Y0177413D01*
X0307980Y0177413D01*
X0306329Y0178097D01*
X0305066Y0179361D01*
X0304504Y0180717D01*
X0231094Y0180717D01*
X0223982Y0173604D01*
X0224051Y0173437D01*
X0224051Y0172138D01*
X0223554Y0170939D01*
X0222636Y0170020D01*
X0221437Y0169524D01*
X0220138Y0169524D01*
X0218939Y0170020D01*
X0218020Y0170939D01*
X0217524Y0172138D01*
X0217524Y0173437D01*
X0218020Y0174636D01*
X0218939Y0175554D01*
X0220138Y0176051D01*
X0221437Y0176051D01*
X0221604Y0175982D01*
X0228717Y0183094D01*
X0229701Y0184079D01*
X0304912Y0184079D01*
X0305066Y0184450D01*
X0306329Y0185714D01*
X0307980Y0186398D01*
X0309768Y0186398D01*
X0311419Y0185714D01*
X0312682Y0184450D01*
X0312836Y0184079D01*
X0352505Y0184079D01*
X0350863Y0185720D01*
X0350863Y0185776D01*
X0312469Y0185776D01*
X0311484Y0186760D01*
X0310631Y0187614D01*
X0309768Y0187256D01*
X0307980Y0187256D01*
X0306329Y0187940D01*
X0305066Y0189203D01*
X0304708Y0190067D01*
X0260130Y0190067D01*
X0259146Y0191052D01*
X0221091Y0229106D01*
X0110421Y0229106D01*
X0101394Y0220080D01*
X0101752Y0219216D01*
X0101752Y0217429D01*
X0101068Y0215778D01*
X0099804Y0214515D01*
X0098153Y0213831D01*
X0096366Y0213831D01*
X0094715Y0214515D01*
X0093452Y0215778D01*
X0092768Y0217429D01*
X0092768Y0219216D01*
X0093452Y0220867D01*
X0094715Y0222131D01*
X0096366Y0222815D01*
X0098153Y0222815D01*
X0099017Y0222457D01*
X0108043Y0231484D01*
X0109028Y0232468D01*
X0222484Y0232468D01*
X0261523Y0193429D01*
X0304708Y0193429D01*
X0305066Y0194293D01*
X0306329Y0195556D01*
X0307980Y0196240D01*
X0309768Y0196240D01*
X0311419Y0195556D01*
X0312682Y0194293D01*
X0313366Y0192642D01*
X0313366Y0190854D01*
X0313008Y0189991D01*
X0313862Y0189138D01*
X0350863Y0189138D01*
X0350863Y0189193D01*
X0353319Y0191649D01*
X0356792Y0191649D01*
X0359247Y0189193D01*
X0359247Y0185720D01*
X0357606Y0184079D01*
X0359359Y0184079D01*
X0360932Y0185652D01*
X0360863Y0185720D01*
X0360863Y0189193D01*
X0363319Y0191649D01*
X0366792Y0191649D01*
X0369247Y0189193D01*
X0369247Y0185720D01*
X0366792Y0183265D01*
X0363319Y0183265D01*
X0363309Y0183274D01*
X0360751Y0180717D01*
X0357724Y0180717D01*
X0359247Y0179193D01*
X0359247Y0175720D01*
X0357763Y0174236D01*
X0358867Y0174236D01*
X0360863Y0176233D01*
X0360863Y0179193D01*
X0363319Y0181649D01*
X0366792Y0181649D01*
X0369247Y0179193D01*
X0369247Y0177256D01*
X0382996Y0163507D01*
X0382996Y0073926D01*
X0382011Y0072941D01*
X0382011Y0072941D01*
X0356027Y0046957D01*
X0105436Y0046957D01*
X0106209Y0045650D02*
X0104558Y0044966D01*
X0103294Y0043702D01*
X0102610Y0042051D01*
X0102610Y0040264D01*
X0103294Y0038613D01*
X0104558Y0037349D01*
X0106209Y0036665D01*
X0107996Y0036665D01*
X0109647Y0037349D01*
X0110911Y0038613D01*
X0111594Y0040264D01*
X0111594Y0042051D01*
X0110911Y0043702D01*
X0109647Y0044966D01*
X0107996Y0045650D01*
X0106209Y0045650D01*
X0105686Y0045433D02*
X0103913Y0045433D01*
X0103846Y0044253D02*
X0102733Y0044253D01*
X0103034Y0043074D02*
X0101554Y0043074D01*
X0101752Y0041894D02*
X0102610Y0041894D01*
X0102610Y0040715D02*
X0101752Y0040715D01*
X0101450Y0039535D02*
X0102912Y0039535D01*
X0103552Y0038355D02*
X0100811Y0038355D01*
X0099386Y0037176D02*
X0104976Y0037176D01*
X0109228Y0037176D02*
X0114819Y0037176D01*
X0114400Y0037349D02*
X0116051Y0036665D01*
X0117838Y0036665D01*
X0119489Y0037349D01*
X0120753Y0038613D01*
X0121437Y0040264D01*
X0121437Y0042051D01*
X0120753Y0043702D01*
X0119489Y0044966D01*
X0117838Y0045650D01*
X0116051Y0045650D01*
X0114400Y0044966D01*
X0113137Y0043702D01*
X0112453Y0042051D01*
X0112453Y0040264D01*
X0113137Y0038613D01*
X0114400Y0037349D01*
X0113394Y0038355D02*
X0110653Y0038355D01*
X0111293Y0039535D02*
X0112755Y0039535D01*
X0112453Y0040715D02*
X0111594Y0040715D01*
X0111594Y0041894D02*
X0112453Y0041894D01*
X0112876Y0043074D02*
X0111171Y0043074D01*
X0110359Y0044253D02*
X0113688Y0044253D01*
X0115529Y0045433D02*
X0108519Y0045433D01*
X0104740Y0048638D02*
X0355331Y0048638D01*
X0381315Y0074622D01*
X0381315Y0162811D01*
X0366669Y0177457D01*
X0365055Y0177457D01*
X0364465Y0177457D01*
X0359563Y0172555D01*
X0319209Y0172555D01*
X0308874Y0162220D01*
X0304382Y0162215D02*
X0227484Y0162215D01*
X0227484Y0163394D02*
X0304498Y0163394D01*
X0304987Y0164574D02*
X0227975Y0164574D01*
X0229155Y0165754D02*
X0306054Y0165754D01*
X0306672Y0168113D02*
X0231514Y0168113D01*
X0232694Y0169293D02*
X0305292Y0169293D01*
X0308874Y0172063D02*
X0233087Y0172063D01*
X0225803Y0164780D01*
X0225803Y0155724D01*
X0230921Y0150606D01*
X0230921Y0142732D01*
X0206906Y0118717D01*
X0115764Y0118717D01*
X0097260Y0100213D01*
X0101419Y0098516D02*
X0102943Y0098516D01*
X0102610Y0099319D02*
X0103294Y0097668D01*
X0104558Y0096404D01*
X0106209Y0095720D01*
X0107996Y0095720D01*
X0109647Y0096404D01*
X0110911Y0097668D01*
X0111594Y0099319D01*
X0111594Y0101106D01*
X0110911Y0102757D01*
X0109647Y0104021D01*
X0107996Y0104705D01*
X0106209Y0104705D01*
X0104558Y0104021D01*
X0103294Y0102757D01*
X0102610Y0101106D01*
X0102610Y0099319D01*
X0102610Y0099695D02*
X0101752Y0099695D01*
X0101752Y0100875D02*
X0102610Y0100875D01*
X0103003Y0102055D02*
X0101479Y0102055D01*
X0102659Y0103234D02*
X0103771Y0103234D01*
X0103838Y0104414D02*
X0105506Y0104414D01*
X0105018Y0105593D02*
X0193242Y0105593D01*
X0194421Y0104414D02*
X0167753Y0104414D01*
X0167051Y0104705D02*
X0165264Y0104705D01*
X0163613Y0104021D01*
X0162349Y0102757D01*
X0161665Y0101106D01*
X0161665Y0099319D01*
X0162349Y0097668D01*
X0163613Y0096404D01*
X0165264Y0095720D01*
X0167051Y0095720D01*
X0168702Y0096404D01*
X0169966Y0097668D01*
X0170650Y0099319D01*
X0170650Y0101106D01*
X0169966Y0102757D01*
X0168702Y0104021D01*
X0167051Y0104705D01*
X0164562Y0104414D02*
X0158181Y0104414D01*
X0158077Y0104467D02*
X0157390Y0104690D01*
X0156724Y0104795D01*
X0156724Y0100622D01*
X0155905Y0100622D01*
X0155905Y0099803D01*
X0151732Y0099803D01*
X0151837Y0099138D01*
X0152061Y0098450D01*
X0152389Y0097807D01*
X0152813Y0097222D01*
X0153324Y0096711D01*
X0153909Y0096286D01*
X0154553Y0095958D01*
X0155240Y0095735D01*
X0155905Y0095630D01*
X0155905Y0099803D01*
X0156724Y0099803D01*
X0156724Y0095630D01*
X0157390Y0095735D01*
X0158077Y0095958D01*
X0158721Y0096286D01*
X0159305Y0096711D01*
X0159816Y0097222D01*
X0160241Y0097807D01*
X0160569Y0098450D01*
X0160792Y0099138D01*
X0160898Y0099803D01*
X0156724Y0099803D01*
X0156724Y0100622D01*
X0160898Y0100622D01*
X0160792Y0101288D01*
X0160569Y0101975D01*
X0160241Y0102619D01*
X0159816Y0103203D01*
X0159305Y0103714D01*
X0158721Y0104139D01*
X0158077Y0104467D01*
X0156724Y0104414D02*
X0155905Y0104414D01*
X0155905Y0104795D02*
X0155240Y0104690D01*
X0154553Y0104467D01*
X0153909Y0104139D01*
X0153324Y0103714D01*
X0152813Y0103203D01*
X0152389Y0102619D01*
X0152061Y0101975D01*
X0151837Y0101288D01*
X0151732Y0100622D01*
X0155905Y0100622D01*
X0155905Y0104795D01*
X0154449Y0104414D02*
X0148068Y0104414D01*
X0147366Y0104705D02*
X0145579Y0104705D01*
X0143928Y0104021D01*
X0142664Y0102757D01*
X0141980Y0101106D01*
X0141980Y0099319D01*
X0142664Y0097668D01*
X0143928Y0096404D01*
X0145579Y0095720D01*
X0147366Y0095720D01*
X0149017Y0096404D01*
X0150281Y0097668D01*
X0150965Y0099319D01*
X0150965Y0101106D01*
X0150281Y0102757D01*
X0149017Y0104021D01*
X0147366Y0104705D01*
X0144877Y0104414D02*
X0138226Y0104414D01*
X0137523Y0104705D02*
X0135736Y0104705D01*
X0134085Y0104021D01*
X0132822Y0102757D01*
X0132138Y0101106D01*
X0132138Y0099319D01*
X0132822Y0097668D01*
X0134085Y0096404D01*
X0135736Y0095720D01*
X0137523Y0095720D01*
X0139174Y0096404D01*
X0140438Y0097668D01*
X0141122Y0099319D01*
X0141122Y0101106D01*
X0140438Y0102757D01*
X0139174Y0104021D01*
X0137523Y0104705D01*
X0135034Y0104414D02*
X0128383Y0104414D01*
X0127681Y0104705D02*
X0125894Y0104705D01*
X0124243Y0104021D01*
X0122979Y0102757D01*
X0122295Y0101106D01*
X0122295Y0099319D01*
X0122979Y0097668D01*
X0124243Y0096404D01*
X0125894Y0095720D01*
X0127681Y0095720D01*
X0129332Y0096404D01*
X0130596Y0097668D01*
X0131280Y0099319D01*
X0131280Y0101106D01*
X0130596Y0102757D01*
X0129332Y0104021D01*
X0127681Y0104705D01*
X0125192Y0104414D02*
X0118541Y0104414D01*
X0117838Y0104705D02*
X0116051Y0104705D01*
X0114400Y0104021D01*
X0113137Y0102757D01*
X0112453Y0101106D01*
X0112453Y0099319D01*
X0113137Y0097668D01*
X0114400Y0096404D01*
X0116051Y0095720D01*
X0117838Y0095720D01*
X0119489Y0096404D01*
X0120753Y0097668D01*
X0121437Y0099319D01*
X0121437Y0101106D01*
X0120753Y0102757D01*
X0119489Y0104021D01*
X0117838Y0104705D01*
X0115349Y0104414D02*
X0108698Y0104414D01*
X0110434Y0103234D02*
X0113614Y0103234D01*
X0112846Y0102055D02*
X0111202Y0102055D01*
X0111594Y0100875D02*
X0112453Y0100875D01*
X0112453Y0099695D02*
X0111594Y0099695D01*
X0111262Y0098516D02*
X0112785Y0098516D01*
X0113469Y0097336D02*
X0110579Y0097336D01*
X0109049Y0096156D02*
X0114999Y0096156D01*
X0118891Y0096156D02*
X0124841Y0096156D01*
X0123311Y0097336D02*
X0120421Y0097336D01*
X0121104Y0098516D02*
X0122628Y0098516D01*
X0122295Y0099695D02*
X0121437Y0099695D01*
X0121437Y0100875D02*
X0122295Y0100875D01*
X0122688Y0102055D02*
X0121044Y0102055D01*
X0120276Y0103234D02*
X0123456Y0103234D01*
X0130119Y0103234D02*
X0133299Y0103234D01*
X0132531Y0102055D02*
X0130887Y0102055D01*
X0131280Y0100875D02*
X0132138Y0100875D01*
X0132138Y0099695D02*
X0131280Y0099695D01*
X0130947Y0098516D02*
X0132471Y0098516D01*
X0133154Y0097336D02*
X0130264Y0097336D01*
X0128734Y0096156D02*
X0134684Y0096156D01*
X0138576Y0096156D02*
X0144526Y0096156D01*
X0142996Y0097336D02*
X0140106Y0097336D01*
X0140789Y0098516D02*
X0142313Y0098516D01*
X0141980Y0099695D02*
X0141122Y0099695D01*
X0141122Y0100875D02*
X0141980Y0100875D01*
X0142373Y0102055D02*
X0140729Y0102055D01*
X0139961Y0103234D02*
X0143141Y0103234D01*
X0149804Y0103234D02*
X0152845Y0103234D01*
X0152101Y0102055D02*
X0150572Y0102055D01*
X0150965Y0100875D02*
X0151772Y0100875D01*
X0151749Y0099695D02*
X0150965Y0099695D01*
X0150632Y0098516D02*
X0152040Y0098516D01*
X0152731Y0097336D02*
X0149949Y0097336D01*
X0148419Y0096156D02*
X0154164Y0096156D01*
X0155905Y0096156D02*
X0156724Y0096156D01*
X0156724Y0097336D02*
X0155905Y0097336D01*
X0155905Y0098516D02*
X0156724Y0098516D01*
X0156724Y0099695D02*
X0155905Y0099695D01*
X0155905Y0100875D02*
X0156724Y0100875D01*
X0156724Y0102055D02*
X0155905Y0102055D01*
X0155905Y0103234D02*
X0156724Y0103234D01*
X0159785Y0103234D02*
X0162826Y0103234D01*
X0162058Y0102055D02*
X0160529Y0102055D01*
X0160858Y0100875D02*
X0161665Y0100875D01*
X0161665Y0099695D02*
X0160881Y0099695D01*
X0160590Y0098516D02*
X0161998Y0098516D01*
X0162681Y0097336D02*
X0159899Y0097336D01*
X0158466Y0096156D02*
X0164211Y0096156D01*
X0168104Y0096156D02*
X0208190Y0096156D01*
X0207329Y0097018D02*
X0212705Y0091642D01*
X0213689Y0090657D01*
X0256997Y0090657D01*
X0283571Y0064083D01*
X0284556Y0063098D01*
X0317444Y0063098D01*
X0338114Y0083768D01*
X0338114Y0098138D01*
X0353280Y0113304D01*
X0353319Y0113265D01*
X0356792Y0113265D01*
X0359247Y0115720D01*
X0359247Y0119193D01*
X0356792Y0121649D01*
X0353319Y0121649D01*
X0350863Y0119193D01*
X0350863Y0115720D01*
X0350902Y0115681D01*
X0334752Y0099531D01*
X0334752Y0085161D01*
X0316052Y0066461D01*
X0285948Y0066461D01*
X0258389Y0094020D01*
X0215082Y0094020D01*
X0209706Y0099396D01*
X0209776Y0099563D01*
X0209776Y0100862D01*
X0209279Y0102061D01*
X0208361Y0102979D01*
X0207161Y0103476D01*
X0205863Y0103476D01*
X0204663Y0102979D01*
X0203745Y0102061D01*
X0203248Y0100862D01*
X0203248Y0099563D01*
X0203745Y0098364D01*
X0204663Y0097446D01*
X0205863Y0096949D01*
X0207161Y0096949D01*
X0207329Y0097018D01*
X0204928Y0097336D02*
X0169634Y0097336D01*
X0170317Y0098516D02*
X0203682Y0098516D01*
X0203248Y0099695D02*
X0170650Y0099695D01*
X0170650Y0100875D02*
X0203253Y0100875D01*
X0203742Y0102055D02*
X0170257Y0102055D01*
X0169489Y0103234D02*
X0205278Y0103234D01*
X0207746Y0103234D02*
X0289083Y0103234D01*
X0289083Y0102055D02*
X0209282Y0102055D01*
X0209770Y0100875D02*
X0289083Y0100875D01*
X0289083Y0099695D02*
X0209776Y0099695D01*
X0210586Y0098516D02*
X0289083Y0098516D01*
X0289083Y0097336D02*
X0211766Y0097336D01*
X0212945Y0096156D02*
X0289083Y0096156D01*
X0289083Y0094977D02*
X0214125Y0094977D01*
X0214386Y0092339D02*
X0257693Y0092339D01*
X0285252Y0064780D01*
X0316748Y0064780D01*
X0336433Y0084465D01*
X0336433Y0098835D01*
X0355055Y0117457D01*
X0350863Y0117390D02*
X0336767Y0117390D01*
X0337947Y0118569D02*
X0350863Y0118569D01*
X0351419Y0119749D02*
X0339126Y0119749D01*
X0340306Y0120928D02*
X0352598Y0120928D01*
X0353296Y0123288D02*
X0342665Y0123288D01*
X0343845Y0124467D02*
X0352116Y0124467D01*
X0350936Y0125647D02*
X0345024Y0125647D01*
X0346204Y0126826D02*
X0350863Y0126826D01*
X0350863Y0128006D02*
X0347384Y0128006D01*
X0348563Y0129186D02*
X0350863Y0129186D01*
X0349743Y0130365D02*
X0352035Y0130365D01*
X0349787Y0132787D02*
X0329787Y0112787D01*
X0329787Y0101787D01*
X0311480Y0083480D01*
X0308874Y0083480D01*
X0305760Y0086720D02*
X0292445Y0086720D01*
X0292445Y0087899D02*
X0307804Y0087899D01*
X0307381Y0089079D02*
X0292445Y0089079D01*
X0292445Y0090258D02*
X0305586Y0090258D01*
X0304792Y0091438D02*
X0292445Y0091438D01*
X0292445Y0092618D02*
X0304382Y0092618D01*
X0304382Y0093797D02*
X0292445Y0093797D01*
X0292445Y0094977D02*
X0304697Y0094977D01*
X0305355Y0096156D02*
X0292445Y0096156D01*
X0292445Y0097336D02*
X0306824Y0097336D01*
X0305991Y0099695D02*
X0292445Y0099695D01*
X0292445Y0098516D02*
X0311689Y0098516D01*
X0311757Y0099695D02*
X0312869Y0099695D01*
X0312788Y0100875D02*
X0314049Y0100875D01*
X0313276Y0102055D02*
X0315228Y0102055D01*
X0316408Y0103234D02*
X0313612Y0103234D01*
X0314791Y0104414D02*
X0317588Y0104414D01*
X0318767Y0105593D02*
X0315971Y0105593D01*
X0317150Y0106773D02*
X0319947Y0106773D01*
X0321126Y0107953D02*
X0318330Y0107953D01*
X0318468Y0109132D02*
X0322306Y0109132D01*
X0323106Y0110312D02*
X0318468Y0110312D01*
X0318468Y0111491D02*
X0323106Y0111491D01*
X0323106Y0112671D02*
X0318468Y0112671D01*
X0318468Y0113851D02*
X0323106Y0113851D01*
X0323106Y0115030D02*
X0318468Y0115030D01*
X0318468Y0116210D02*
X0323106Y0116210D01*
X0323106Y0117390D02*
X0318468Y0117390D01*
X0318468Y0118569D02*
X0324192Y0118569D01*
X0325371Y0119749D02*
X0318468Y0119749D01*
X0319306Y0120928D02*
X0326551Y0120928D01*
X0327731Y0122108D02*
X0320485Y0122108D01*
X0321665Y0123288D02*
X0328910Y0123288D01*
X0330090Y0124467D02*
X0322845Y0124467D01*
X0324024Y0125647D02*
X0331269Y0125647D01*
X0332449Y0126826D02*
X0325204Y0126826D01*
X0326384Y0128006D02*
X0333629Y0128006D01*
X0334808Y0129186D02*
X0327563Y0129186D01*
X0328743Y0130365D02*
X0335988Y0130365D01*
X0337167Y0131545D02*
X0329922Y0131545D01*
X0331102Y0132725D02*
X0338347Y0132725D01*
X0339527Y0133904D02*
X0332282Y0133904D01*
X0333461Y0135084D02*
X0340706Y0135084D01*
X0341886Y0136263D02*
X0334641Y0136263D01*
X0335820Y0137443D02*
X0343066Y0137443D01*
X0344245Y0138623D02*
X0337000Y0138623D01*
X0338180Y0139802D02*
X0351472Y0139802D01*
X0352652Y0140982D02*
X0339359Y0140982D01*
X0338787Y0142787D02*
X0316787Y0120787D01*
X0316787Y0108787D01*
X0311165Y0103165D01*
X0308874Y0103165D01*
X0304382Y0103234D02*
X0292445Y0103234D01*
X0292445Y0102055D02*
X0304472Y0102055D01*
X0304960Y0100875D02*
X0292445Y0100875D01*
X0292445Y0104414D02*
X0304529Y0104414D01*
X0305018Y0105593D02*
X0292445Y0105593D01*
X0292445Y0106773D02*
X0306129Y0106773D01*
X0306492Y0109132D02*
X0292445Y0109132D01*
X0292445Y0107953D02*
X0313575Y0107953D01*
X0314755Y0109132D02*
X0311256Y0109132D01*
X0311419Y0109200D02*
X0312682Y0110463D01*
X0313366Y0112114D01*
X0313366Y0113901D01*
X0312682Y0115552D01*
X0311419Y0116816D01*
X0309768Y0117500D01*
X0307980Y0117500D01*
X0306329Y0116816D01*
X0305066Y0115552D01*
X0304382Y0113901D01*
X0304382Y0112114D01*
X0305066Y0110463D01*
X0306329Y0109200D01*
X0307980Y0108516D01*
X0309768Y0108516D01*
X0311419Y0109200D01*
X0312531Y0110312D02*
X0315106Y0110312D01*
X0315106Y0111491D02*
X0313108Y0111491D01*
X0313366Y0112671D02*
X0315106Y0112671D01*
X0315106Y0113851D02*
X0313366Y0113851D01*
X0312899Y0115030D02*
X0315106Y0115030D01*
X0315106Y0116210D02*
X0312025Y0116210D01*
X0310034Y0117390D02*
X0315106Y0117390D01*
X0315106Y0118569D02*
X0310277Y0118569D01*
X0312125Y0119749D02*
X0315106Y0119749D01*
X0315106Y0120928D02*
X0312940Y0120928D01*
X0313366Y0122108D02*
X0315731Y0122108D01*
X0316910Y0123288D02*
X0313366Y0123288D01*
X0313067Y0124467D02*
X0318090Y0124467D01*
X0319269Y0125647D02*
X0314048Y0125647D01*
X0315227Y0126826D02*
X0320449Y0126826D01*
X0321629Y0128006D02*
X0316407Y0128006D01*
X0317587Y0129186D02*
X0322808Y0129186D01*
X0323988Y0130365D02*
X0318766Y0130365D01*
X0319946Y0131545D02*
X0325167Y0131545D01*
X0326347Y0132725D02*
X0321126Y0132725D01*
X0322305Y0133904D02*
X0327527Y0133904D01*
X0328706Y0135084D02*
X0323485Y0135084D01*
X0324664Y0136263D02*
X0329886Y0136263D01*
X0331066Y0137443D02*
X0325844Y0137443D01*
X0327024Y0138623D02*
X0332245Y0138623D01*
X0333425Y0139802D02*
X0328203Y0139802D01*
X0329383Y0140982D02*
X0334604Y0140982D01*
X0335784Y0142161D02*
X0330562Y0142161D01*
X0331742Y0143341D02*
X0336964Y0143341D01*
X0338787Y0142787D02*
X0360386Y0142787D01*
X0365055Y0147457D01*
X0362089Y0150419D02*
X0358022Y0150419D01*
X0359201Y0149239D02*
X0360909Y0149239D01*
X0360863Y0148059D02*
X0359247Y0148059D01*
X0359247Y0146880D02*
X0360863Y0146880D01*
X0360883Y0145700D02*
X0359227Y0145700D01*
X0359742Y0144521D02*
X0358048Y0144521D01*
X0357459Y0140982D02*
X0362652Y0140982D01*
X0362137Y0142161D02*
X0379634Y0142161D01*
X0379634Y0140982D02*
X0367459Y0140982D01*
X0368638Y0139802D02*
X0379634Y0139802D01*
X0379634Y0138623D02*
X0369247Y0138623D01*
X0369247Y0137443D02*
X0379634Y0137443D01*
X0379634Y0136263D02*
X0369247Y0136263D01*
X0368611Y0135084D02*
X0379634Y0135084D01*
X0379634Y0133904D02*
X0367431Y0133904D01*
X0366792Y0131649D02*
X0363319Y0131649D01*
X0360863Y0129193D01*
X0360863Y0125720D01*
X0363319Y0123265D01*
X0366792Y0123265D01*
X0369247Y0125720D01*
X0369247Y0129193D01*
X0366792Y0131649D01*
X0366895Y0131545D02*
X0379634Y0131545D01*
X0379634Y0132725D02*
X0362700Y0132725D01*
X0363215Y0131545D02*
X0361521Y0131545D01*
X0362035Y0130365D02*
X0358075Y0130365D01*
X0359247Y0129186D02*
X0360863Y0129186D01*
X0360863Y0128006D02*
X0359247Y0128006D01*
X0359247Y0126826D02*
X0360863Y0126826D01*
X0360936Y0125647D02*
X0359174Y0125647D01*
X0357994Y0124467D02*
X0362116Y0124467D01*
X0363296Y0123288D02*
X0356815Y0123288D01*
X0357512Y0120928D02*
X0362598Y0120928D01*
X0363319Y0121649D02*
X0360863Y0119193D01*
X0360863Y0115720D01*
X0363319Y0113265D01*
X0366792Y0113265D01*
X0369247Y0115720D01*
X0369247Y0119193D01*
X0366792Y0121649D01*
X0363319Y0121649D01*
X0361419Y0119749D02*
X0358692Y0119749D01*
X0359247Y0118569D02*
X0360863Y0118569D01*
X0360863Y0117390D02*
X0359247Y0117390D01*
X0359247Y0116210D02*
X0360863Y0116210D01*
X0361553Y0115030D02*
X0358557Y0115030D01*
X0357378Y0113851D02*
X0362733Y0113851D01*
X0363319Y0111649D02*
X0360863Y0109193D01*
X0360863Y0105720D01*
X0363319Y0103265D01*
X0366792Y0103265D01*
X0369247Y0105720D01*
X0369247Y0109193D01*
X0366792Y0111649D01*
X0363319Y0111649D01*
X0363161Y0111491D02*
X0356949Y0111491D01*
X0356792Y0111649D02*
X0353319Y0111649D01*
X0350863Y0109193D01*
X0350863Y0105720D01*
X0353319Y0103265D01*
X0356792Y0103265D01*
X0359247Y0105720D01*
X0359247Y0109193D01*
X0356792Y0111649D01*
X0358128Y0110312D02*
X0361982Y0110312D01*
X0360863Y0109132D02*
X0359247Y0109132D01*
X0359247Y0107953D02*
X0360863Y0107953D01*
X0360863Y0106773D02*
X0359247Y0106773D01*
X0359120Y0105593D02*
X0360990Y0105593D01*
X0362169Y0104414D02*
X0357941Y0104414D01*
X0356792Y0101649D02*
X0353319Y0101649D01*
X0350863Y0099193D01*
X0350863Y0095720D01*
X0353319Y0093265D01*
X0356792Y0093265D01*
X0359247Y0095720D01*
X0359247Y0099193D01*
X0356792Y0101649D01*
X0357565Y0100875D02*
X0362545Y0100875D01*
X0363319Y0101649D02*
X0360863Y0099193D01*
X0360863Y0095720D01*
X0363319Y0093265D01*
X0366792Y0093265D01*
X0369247Y0095720D01*
X0369247Y0099193D01*
X0366792Y0101649D01*
X0363319Y0101649D01*
X0361365Y0099695D02*
X0358745Y0099695D01*
X0359247Y0098516D02*
X0360863Y0098516D01*
X0360863Y0097336D02*
X0359247Y0097336D01*
X0359247Y0096156D02*
X0360863Y0096156D01*
X0361606Y0094977D02*
X0358504Y0094977D01*
X0357324Y0093797D02*
X0362786Y0093797D01*
X0363319Y0091649D02*
X0360863Y0089193D01*
X0360863Y0085720D01*
X0363319Y0083265D01*
X0366792Y0083265D01*
X0369247Y0085720D01*
X0369247Y0089193D01*
X0366792Y0091649D01*
X0363319Y0091649D01*
X0363108Y0091438D02*
X0357002Y0091438D01*
X0356792Y0091649D02*
X0353319Y0091649D01*
X0350863Y0089193D01*
X0350863Y0085720D01*
X0353319Y0083265D01*
X0356792Y0083265D01*
X0359247Y0085720D01*
X0359247Y0089193D01*
X0356792Y0091649D01*
X0358182Y0090258D02*
X0361928Y0090258D01*
X0360863Y0089079D02*
X0359247Y0089079D01*
X0359247Y0087899D02*
X0360863Y0087899D01*
X0360863Y0086720D02*
X0359247Y0086720D01*
X0359067Y0085540D02*
X0361043Y0085540D01*
X0362223Y0084360D02*
X0357887Y0084360D01*
X0352223Y0084360D02*
X0338114Y0084360D01*
X0338114Y0085540D02*
X0351043Y0085540D01*
X0350863Y0086720D02*
X0338114Y0086720D01*
X0338114Y0087899D02*
X0350863Y0087899D01*
X0350863Y0089079D02*
X0338114Y0089079D01*
X0338114Y0090258D02*
X0351928Y0090258D01*
X0353108Y0091438D02*
X0338114Y0091438D01*
X0338114Y0092618D02*
X0379634Y0092618D01*
X0379634Y0093797D02*
X0367324Y0093797D01*
X0368504Y0094977D02*
X0379634Y0094977D01*
X0379634Y0096156D02*
X0369247Y0096156D01*
X0369247Y0097336D02*
X0379634Y0097336D01*
X0379634Y0098516D02*
X0369247Y0098516D01*
X0368745Y0099695D02*
X0379634Y0099695D01*
X0379634Y0100875D02*
X0367565Y0100875D01*
X0367941Y0104414D02*
X0379634Y0104414D01*
X0379634Y0105593D02*
X0369120Y0105593D01*
X0369247Y0106773D02*
X0379634Y0106773D01*
X0379634Y0107953D02*
X0369247Y0107953D01*
X0369247Y0109132D02*
X0379634Y0109132D01*
X0379634Y0110312D02*
X0368128Y0110312D01*
X0366949Y0111491D02*
X0379634Y0111491D01*
X0379634Y0112671D02*
X0352647Y0112671D01*
X0353161Y0111491D02*
X0351467Y0111491D01*
X0351982Y0110312D02*
X0350288Y0110312D01*
X0350863Y0109132D02*
X0349108Y0109132D01*
X0347928Y0107953D02*
X0350863Y0107953D01*
X0350863Y0106773D02*
X0346749Y0106773D01*
X0345569Y0105593D02*
X0350990Y0105593D01*
X0352169Y0104414D02*
X0344390Y0104414D01*
X0343210Y0103234D02*
X0379634Y0103234D01*
X0379634Y0102055D02*
X0342030Y0102055D01*
X0340851Y0100875D02*
X0352545Y0100875D01*
X0351365Y0099695D02*
X0339671Y0099695D01*
X0338492Y0098516D02*
X0350863Y0098516D01*
X0350863Y0097336D02*
X0338114Y0097336D01*
X0338114Y0096156D02*
X0350863Y0096156D01*
X0351606Y0094977D02*
X0338114Y0094977D01*
X0338114Y0093797D02*
X0352786Y0093797D01*
X0338455Y0103234D02*
X0331468Y0103234D01*
X0331468Y0102055D02*
X0337276Y0102055D01*
X0336096Y0100875D02*
X0331252Y0100875D01*
X0330073Y0099695D02*
X0334916Y0099695D01*
X0334752Y0098516D02*
X0328893Y0098516D01*
X0327714Y0097336D02*
X0334752Y0097336D01*
X0334752Y0096156D02*
X0326534Y0096156D01*
X0325354Y0094977D02*
X0334752Y0094977D01*
X0334752Y0093797D02*
X0324175Y0093797D01*
X0322995Y0092618D02*
X0334752Y0092618D01*
X0334752Y0091438D02*
X0321815Y0091438D01*
X0320636Y0090258D02*
X0334752Y0090258D01*
X0334752Y0089079D02*
X0319456Y0089079D01*
X0318277Y0087899D02*
X0334752Y0087899D01*
X0334752Y0086720D02*
X0317097Y0086720D01*
X0315917Y0085540D02*
X0334752Y0085540D01*
X0333951Y0084360D02*
X0314738Y0084360D01*
X0313558Y0083181D02*
X0332772Y0083181D01*
X0331592Y0082001D02*
X0313124Y0082001D01*
X0312568Y0080822D02*
X0330413Y0080822D01*
X0329233Y0079642D02*
X0311346Y0079642D01*
X0306402Y0079642D02*
X0292445Y0079642D01*
X0292445Y0080822D02*
X0305180Y0080822D01*
X0304624Y0082001D02*
X0292445Y0082001D01*
X0292445Y0083181D02*
X0304382Y0083181D01*
X0304382Y0084360D02*
X0292445Y0084360D01*
X0292445Y0085540D02*
X0304865Y0085540D01*
X0309944Y0087899D02*
X0313522Y0087899D01*
X0314701Y0089079D02*
X0310367Y0089079D01*
X0312162Y0090258D02*
X0315881Y0090258D01*
X0317061Y0091438D02*
X0312956Y0091438D01*
X0313366Y0092618D02*
X0318240Y0092618D01*
X0319420Y0093797D02*
X0313366Y0093797D01*
X0313051Y0094977D02*
X0320599Y0094977D01*
X0321779Y0096156D02*
X0314085Y0096156D01*
X0315265Y0097336D02*
X0322959Y0097336D01*
X0324138Y0098516D02*
X0316444Y0098516D01*
X0317624Y0099695D02*
X0325318Y0099695D01*
X0326498Y0100875D02*
X0318804Y0100875D01*
X0319983Y0102055D02*
X0327677Y0102055D01*
X0328106Y0103234D02*
X0321163Y0103234D01*
X0322342Y0104414D02*
X0328106Y0104414D01*
X0328106Y0105593D02*
X0323522Y0105593D01*
X0324702Y0106773D02*
X0328106Y0106773D01*
X0328106Y0107953D02*
X0325881Y0107953D01*
X0326468Y0109132D02*
X0328106Y0109132D01*
X0328106Y0110312D02*
X0326468Y0110312D01*
X0326468Y0111491D02*
X0328106Y0111491D01*
X0328106Y0112671D02*
X0326468Y0112671D01*
X0326468Y0113851D02*
X0328473Y0113851D01*
X0329653Y0115030D02*
X0326468Y0115030D01*
X0326587Y0116210D02*
X0330832Y0116210D01*
X0332012Y0117390D02*
X0327767Y0117390D01*
X0328947Y0118569D02*
X0333192Y0118569D01*
X0334371Y0119749D02*
X0330126Y0119749D01*
X0331306Y0120928D02*
X0335551Y0120928D01*
X0336731Y0122108D02*
X0332485Y0122108D01*
X0333665Y0123288D02*
X0337910Y0123288D01*
X0339090Y0124467D02*
X0334845Y0124467D01*
X0336024Y0125647D02*
X0340269Y0125647D01*
X0341449Y0126826D02*
X0337204Y0126826D01*
X0338384Y0128006D02*
X0342629Y0128006D01*
X0343808Y0129186D02*
X0339563Y0129186D01*
X0340743Y0130365D02*
X0344988Y0130365D01*
X0346167Y0131545D02*
X0341922Y0131545D01*
X0343102Y0132725D02*
X0347347Y0132725D01*
X0348527Y0133904D02*
X0344282Y0133904D01*
X0345461Y0135084D02*
X0351499Y0135084D01*
X0349787Y0132787D02*
X0360386Y0132787D01*
X0365055Y0137457D01*
X0360863Y0137443D02*
X0359247Y0137443D01*
X0359247Y0138623D02*
X0360863Y0138623D01*
X0361472Y0139802D02*
X0358638Y0139802D01*
X0359247Y0136263D02*
X0360863Y0136263D01*
X0360305Y0135084D02*
X0358611Y0135084D01*
X0355055Y0137457D02*
X0345457Y0137457D01*
X0324787Y0116787D01*
X0324787Y0109236D01*
X0308874Y0093323D01*
X0311988Y0086720D02*
X0312342Y0086720D01*
X0325694Y0076103D02*
X0292445Y0076103D01*
X0292445Y0077283D02*
X0326874Y0077283D01*
X0328053Y0078462D02*
X0292445Y0078462D01*
X0290764Y0076591D02*
X0290764Y0118717D01*
X0304740Y0132693D01*
X0308874Y0132693D01*
X0333638Y0157457D01*
X0355055Y0157457D01*
X0359247Y0157496D02*
X0360863Y0157496D01*
X0360863Y0156317D02*
X0359247Y0156317D01*
X0358664Y0155137D02*
X0360437Y0155137D01*
X0360055Y0152378D02*
X0365055Y0157378D01*
X0365055Y0157457D01*
X0369247Y0157496D02*
X0379634Y0157496D01*
X0379634Y0156317D02*
X0369247Y0156317D01*
X0368664Y0155137D02*
X0379634Y0155137D01*
X0379634Y0153958D02*
X0367485Y0153958D01*
X0366842Y0151598D02*
X0379634Y0151598D01*
X0379634Y0150419D02*
X0368022Y0150419D01*
X0369201Y0149239D02*
X0379634Y0149239D01*
X0379634Y0148059D02*
X0369247Y0148059D01*
X0369247Y0146880D02*
X0379634Y0146880D01*
X0379634Y0145700D02*
X0369227Y0145700D01*
X0368048Y0144521D02*
X0379634Y0144521D01*
X0379634Y0143341D02*
X0366868Y0143341D01*
X0363268Y0151598D02*
X0361653Y0151598D01*
X0362833Y0152778D02*
X0379634Y0152778D01*
X0382996Y0152778D02*
X0392929Y0152778D01*
X0392929Y0153958D02*
X0382996Y0153958D01*
X0382996Y0155137D02*
X0392929Y0155137D01*
X0392929Y0156317D02*
X0382996Y0156317D01*
X0382996Y0157496D02*
X0392929Y0157496D01*
X0392929Y0158676D02*
X0382996Y0158676D01*
X0382996Y0159856D02*
X0392929Y0159856D01*
X0392929Y0161035D02*
X0382996Y0161035D01*
X0382996Y0162215D02*
X0392929Y0162215D01*
X0392929Y0163394D02*
X0382996Y0163394D01*
X0381929Y0164574D02*
X0392929Y0164574D01*
X0392929Y0165754D02*
X0380750Y0165754D01*
X0379570Y0166933D02*
X0392929Y0166933D01*
X0392929Y0168113D02*
X0378390Y0168113D01*
X0377211Y0169293D02*
X0392929Y0169293D01*
X0392929Y0170472D02*
X0376031Y0170472D01*
X0374852Y0171652D02*
X0392929Y0171652D01*
X0392929Y0172831D02*
X0373672Y0172831D01*
X0372492Y0174011D02*
X0392929Y0174011D01*
X0392929Y0175191D02*
X0371313Y0175191D01*
X0370133Y0176370D02*
X0392929Y0176370D01*
X0392929Y0177550D02*
X0369247Y0177550D01*
X0369247Y0178729D02*
X0392929Y0178729D01*
X0392929Y0179909D02*
X0368531Y0179909D01*
X0367352Y0181089D02*
X0392929Y0181089D01*
X0392929Y0182268D02*
X0362303Y0182268D01*
X0362759Y0181089D02*
X0361124Y0181089D01*
X0361579Y0179909D02*
X0358531Y0179909D01*
X0359247Y0178729D02*
X0360863Y0178729D01*
X0360863Y0177550D02*
X0359247Y0177550D01*
X0359247Y0176370D02*
X0360863Y0176370D01*
X0359821Y0175191D02*
X0358718Y0175191D01*
X0362217Y0172831D02*
X0368917Y0172831D01*
X0370097Y0171652D02*
X0361037Y0171652D01*
X0362142Y0170472D02*
X0357968Y0170472D01*
X0359148Y0169293D02*
X0360962Y0169293D01*
X0360863Y0168113D02*
X0359247Y0168113D01*
X0359247Y0166933D02*
X0360863Y0166933D01*
X0360863Y0165754D02*
X0359247Y0165754D01*
X0360031Y0164574D02*
X0358101Y0164574D01*
X0360055Y0162220D02*
X0365055Y0167220D01*
X0365055Y0167457D01*
X0367968Y0170472D02*
X0371276Y0170472D01*
X0372456Y0169293D02*
X0369148Y0169293D01*
X0369247Y0168113D02*
X0373636Y0168113D01*
X0374815Y0166933D02*
X0369247Y0166933D01*
X0369247Y0165754D02*
X0375995Y0165754D01*
X0377174Y0164574D02*
X0368101Y0164574D01*
X0366921Y0163394D02*
X0378354Y0163394D01*
X0379534Y0162215D02*
X0362427Y0162215D01*
X0362705Y0161035D02*
X0361247Y0161035D01*
X0361526Y0159856D02*
X0358585Y0159856D01*
X0359247Y0158676D02*
X0360863Y0158676D01*
X0360055Y0162220D02*
X0328559Y0162220D01*
X0308874Y0142535D01*
X0258283Y0142535D01*
X0221079Y0105331D01*
X0195882Y0105331D01*
X0189189Y0112024D01*
X0190459Y0115030D02*
X0228401Y0115030D01*
X0227221Y0113851D02*
X0191965Y0113851D01*
X0192453Y0112671D02*
X0226042Y0112671D01*
X0224862Y0111491D02*
X0192453Y0111491D01*
X0193278Y0110312D02*
X0223682Y0110312D01*
X0222503Y0109132D02*
X0194458Y0109132D01*
X0195637Y0107953D02*
X0221323Y0107953D01*
X0223719Y0105593D02*
X0289083Y0105593D01*
X0289083Y0104414D02*
X0222539Y0104414D01*
X0224898Y0106773D02*
X0289083Y0106773D01*
X0289083Y0107953D02*
X0226078Y0107953D01*
X0227258Y0109132D02*
X0289083Y0109132D01*
X0289083Y0110312D02*
X0228437Y0110312D01*
X0229617Y0111491D02*
X0289083Y0111491D01*
X0289083Y0112671D02*
X0230797Y0112671D01*
X0231976Y0113851D02*
X0289083Y0113851D01*
X0289083Y0115030D02*
X0233156Y0115030D01*
X0234335Y0116210D02*
X0289083Y0116210D01*
X0289083Y0117390D02*
X0235515Y0117390D01*
X0236695Y0118569D02*
X0289083Y0118569D01*
X0289419Y0119749D02*
X0237874Y0119749D01*
X0239054Y0120928D02*
X0290598Y0120928D01*
X0291778Y0122108D02*
X0240233Y0122108D01*
X0241413Y0123288D02*
X0292957Y0123288D01*
X0294137Y0124467D02*
X0242593Y0124467D01*
X0243772Y0125647D02*
X0295317Y0125647D01*
X0296496Y0126826D02*
X0244952Y0126826D01*
X0246132Y0128006D02*
X0297676Y0128006D01*
X0298855Y0129186D02*
X0247311Y0129186D01*
X0248491Y0130365D02*
X0300035Y0130365D01*
X0301215Y0131545D02*
X0249670Y0131545D01*
X0250850Y0132725D02*
X0302394Y0132725D01*
X0303574Y0133904D02*
X0252030Y0133904D01*
X0253209Y0135084D02*
X0305002Y0135084D01*
X0306092Y0136263D02*
X0254389Y0136263D01*
X0255568Y0137443D02*
X0311247Y0137443D01*
X0311166Y0138623D02*
X0312426Y0138623D01*
X0312494Y0139802D02*
X0313606Y0139802D01*
X0313093Y0140982D02*
X0314785Y0140982D01*
X0315965Y0142161D02*
X0313366Y0142161D01*
X0313366Y0143341D02*
X0317145Y0143341D01*
X0318324Y0144521D02*
X0313237Y0144521D01*
X0314416Y0145700D02*
X0319504Y0145700D01*
X0320684Y0146880D02*
X0315596Y0146880D01*
X0316776Y0148059D02*
X0321863Y0148059D01*
X0323043Y0149239D02*
X0317955Y0149239D01*
X0319135Y0150419D02*
X0324222Y0150419D01*
X0325402Y0151598D02*
X0320314Y0151598D01*
X0321494Y0152778D02*
X0326582Y0152778D01*
X0327761Y0153958D02*
X0322674Y0153958D01*
X0323853Y0155137D02*
X0328941Y0155137D01*
X0330120Y0156317D02*
X0325033Y0156317D01*
X0326212Y0157496D02*
X0331300Y0157496D01*
X0332480Y0158676D02*
X0327392Y0158676D01*
X0328572Y0159856D02*
X0351526Y0159856D01*
X0351446Y0155137D02*
X0333696Y0155137D01*
X0332516Y0153958D02*
X0337604Y0153958D01*
X0336424Y0152778D02*
X0331336Y0152778D01*
X0330157Y0151598D02*
X0335245Y0151598D01*
X0334065Y0150419D02*
X0328977Y0150419D01*
X0327798Y0149239D02*
X0332885Y0149239D01*
X0331706Y0148059D02*
X0326618Y0148059D01*
X0325438Y0146880D02*
X0330526Y0146880D01*
X0329346Y0145700D02*
X0324259Y0145700D01*
X0323079Y0144521D02*
X0328167Y0144521D01*
X0326987Y0143341D02*
X0321900Y0143341D01*
X0320720Y0142161D02*
X0325808Y0142161D01*
X0324628Y0140982D02*
X0319540Y0140982D01*
X0318361Y0139802D02*
X0323448Y0139802D01*
X0322269Y0138623D02*
X0317181Y0138623D01*
X0316002Y0137443D02*
X0321089Y0137443D01*
X0319910Y0136263D02*
X0314822Y0136263D01*
X0313642Y0135084D02*
X0318730Y0135084D01*
X0317550Y0133904D02*
X0313235Y0133904D01*
X0313366Y0132725D02*
X0316371Y0132725D01*
X0315191Y0131545D02*
X0313261Y0131545D01*
X0312772Y0130365D02*
X0314011Y0130365D01*
X0312832Y0129186D02*
X0311720Y0129186D01*
X0311652Y0128006D02*
X0302431Y0128006D01*
X0303610Y0129186D02*
X0306028Y0129186D01*
X0304976Y0130365D02*
X0304790Y0130365D01*
X0306735Y0126826D02*
X0301251Y0126826D01*
X0300072Y0125647D02*
X0305318Y0125647D01*
X0304681Y0124467D02*
X0298892Y0124467D01*
X0297712Y0123288D02*
X0304382Y0123288D01*
X0304382Y0122108D02*
X0296533Y0122108D01*
X0295353Y0120928D02*
X0304808Y0120928D01*
X0305623Y0119749D02*
X0294173Y0119749D01*
X0292994Y0118569D02*
X0307471Y0118569D01*
X0307714Y0117390D02*
X0292445Y0117390D01*
X0292445Y0116210D02*
X0305723Y0116210D01*
X0304850Y0115030D02*
X0292445Y0115030D01*
X0292445Y0113851D02*
X0304382Y0113851D01*
X0304382Y0112671D02*
X0292445Y0112671D01*
X0292445Y0111491D02*
X0304640Y0111491D01*
X0305217Y0110312D02*
X0292445Y0110312D01*
X0311619Y0106773D02*
X0312396Y0106773D01*
X0331468Y0106773D02*
X0341994Y0106773D01*
X0340814Y0105593D02*
X0331468Y0105593D01*
X0331468Y0104414D02*
X0339635Y0104414D01*
X0343174Y0107953D02*
X0331468Y0107953D01*
X0331468Y0109132D02*
X0344353Y0109132D01*
X0345533Y0110312D02*
X0331468Y0110312D01*
X0331468Y0111491D02*
X0346712Y0111491D01*
X0347892Y0112671D02*
X0332049Y0112671D01*
X0333228Y0113851D02*
X0349072Y0113851D01*
X0350251Y0115030D02*
X0334408Y0115030D01*
X0335587Y0116210D02*
X0350863Y0116210D01*
X0341485Y0122108D02*
X0379634Y0122108D01*
X0379634Y0123288D02*
X0366815Y0123288D01*
X0367994Y0124467D02*
X0379634Y0124467D01*
X0379634Y0125647D02*
X0369174Y0125647D01*
X0369247Y0126826D02*
X0379634Y0126826D01*
X0379634Y0128006D02*
X0369247Y0128006D01*
X0369247Y0129186D02*
X0379634Y0129186D01*
X0379634Y0130365D02*
X0368075Y0130365D01*
X0367512Y0120928D02*
X0379634Y0120928D01*
X0379634Y0119749D02*
X0368692Y0119749D01*
X0369247Y0118569D02*
X0379634Y0118569D01*
X0379634Y0117390D02*
X0369247Y0117390D01*
X0369247Y0116210D02*
X0379634Y0116210D01*
X0379634Y0115030D02*
X0368557Y0115030D01*
X0367378Y0113851D02*
X0379634Y0113851D01*
X0382996Y0113851D02*
X0392929Y0113851D01*
X0392929Y0115030D02*
X0382996Y0115030D01*
X0382996Y0116210D02*
X0392929Y0116210D01*
X0392929Y0117390D02*
X0382996Y0117390D01*
X0382996Y0118569D02*
X0392929Y0118569D01*
X0392929Y0119749D02*
X0382996Y0119749D01*
X0382996Y0120928D02*
X0392929Y0120928D01*
X0392929Y0122108D02*
X0382996Y0122108D01*
X0382996Y0123288D02*
X0392929Y0123288D01*
X0392929Y0124467D02*
X0382996Y0124467D01*
X0382996Y0125647D02*
X0392929Y0125647D01*
X0392929Y0126826D02*
X0382996Y0126826D01*
X0382996Y0128006D02*
X0392929Y0128006D01*
X0392929Y0129186D02*
X0382996Y0129186D01*
X0382996Y0130365D02*
X0392929Y0130365D01*
X0392929Y0131545D02*
X0382996Y0131545D01*
X0382996Y0132725D02*
X0392929Y0132725D01*
X0392929Y0133904D02*
X0382996Y0133904D01*
X0382996Y0135084D02*
X0392929Y0135084D01*
X0392929Y0136263D02*
X0382996Y0136263D01*
X0382996Y0137443D02*
X0392929Y0137443D01*
X0392929Y0138623D02*
X0382996Y0138623D01*
X0382996Y0139802D02*
X0392929Y0139802D01*
X0392929Y0140982D02*
X0382996Y0140982D01*
X0382996Y0142161D02*
X0392929Y0142161D01*
X0392929Y0143341D02*
X0382996Y0143341D01*
X0382996Y0144521D02*
X0392929Y0144521D01*
X0392929Y0145700D02*
X0382996Y0145700D01*
X0382996Y0146880D02*
X0392929Y0146880D01*
X0392929Y0148059D02*
X0382996Y0148059D01*
X0382996Y0149239D02*
X0392929Y0149239D01*
X0392929Y0150419D02*
X0382996Y0150419D01*
X0382996Y0151598D02*
X0392929Y0151598D01*
X0379634Y0158676D02*
X0369247Y0158676D01*
X0368585Y0159856D02*
X0379634Y0159856D01*
X0379634Y0161035D02*
X0367405Y0161035D01*
X0355055Y0167457D02*
X0323953Y0167457D01*
X0308874Y0152378D01*
X0305378Y0152378D01*
X0301787Y0148787D01*
X0258787Y0148787D01*
X0255787Y0151787D01*
X0252822Y0150419D02*
X0232602Y0150419D01*
X0232602Y0149239D02*
X0253720Y0149239D01*
X0252524Y0151598D02*
X0232307Y0151598D01*
X0231127Y0152778D02*
X0252665Y0152778D01*
X0253342Y0153958D02*
X0229947Y0153958D01*
X0228768Y0155137D02*
X0275524Y0155137D01*
X0275524Y0155138D02*
X0276020Y0153939D01*
X0276939Y0153020D01*
X0278138Y0152524D01*
X0279437Y0152524D01*
X0280636Y0153020D01*
X0281554Y0153939D01*
X0282051Y0155138D01*
X0282051Y0156437D01*
X0281554Y0157636D01*
X0280636Y0158554D01*
X0279437Y0159051D01*
X0278138Y0159051D01*
X0277971Y0158982D01*
X0277468Y0159484D01*
X0276484Y0160468D01*
X0241679Y0160468D01*
X0241609Y0160636D01*
X0240691Y0161554D01*
X0239492Y0162051D01*
X0238193Y0162051D01*
X0236994Y0161554D01*
X0236076Y0160636D01*
X0235579Y0159437D01*
X0235579Y0158138D01*
X0236076Y0156939D01*
X0236994Y0156020D01*
X0238193Y0155524D01*
X0239492Y0155524D01*
X0240691Y0156020D01*
X0241609Y0156939D01*
X0241679Y0157106D01*
X0275091Y0157106D01*
X0275593Y0156604D01*
X0275524Y0156437D01*
X0275524Y0155138D01*
X0275524Y0156317D02*
X0240988Y0156317D01*
X0238843Y0158787D02*
X0275787Y0158787D01*
X0278787Y0155787D01*
X0280342Y0158676D02*
X0306066Y0158676D01*
X0304991Y0159856D02*
X0277097Y0159856D01*
X0281612Y0157496D02*
X0311615Y0157496D01*
X0311682Y0158676D02*
X0312795Y0158676D01*
X0312757Y0159856D02*
X0313974Y0159856D01*
X0313245Y0161035D02*
X0315154Y0161035D01*
X0316333Y0162215D02*
X0313366Y0162215D01*
X0313250Y0163394D02*
X0317513Y0163394D01*
X0318693Y0164574D02*
X0313605Y0164574D01*
X0314785Y0165754D02*
X0319872Y0165754D01*
X0321052Y0166933D02*
X0315964Y0166933D01*
X0317144Y0168113D02*
X0322232Y0168113D01*
X0324627Y0165754D02*
X0350863Y0165754D01*
X0352009Y0164574D02*
X0323448Y0164574D01*
X0322268Y0163394D02*
X0327356Y0163394D01*
X0326176Y0162215D02*
X0321088Y0162215D01*
X0319909Y0161035D02*
X0324996Y0161035D01*
X0323817Y0159856D02*
X0318729Y0159856D01*
X0317550Y0158676D02*
X0322637Y0158676D01*
X0321458Y0157496D02*
X0316370Y0157496D01*
X0315190Y0156317D02*
X0320278Y0156317D01*
X0319098Y0155137D02*
X0314011Y0155137D01*
X0313082Y0153958D02*
X0317919Y0153958D01*
X0316739Y0152778D02*
X0313366Y0152778D01*
X0313366Y0151598D02*
X0315559Y0151598D01*
X0314380Y0150419D02*
X0312925Y0150419D01*
X0313200Y0149239D02*
X0312088Y0149239D01*
X0312021Y0148059D02*
X0310187Y0148059D01*
X0310124Y0146880D02*
X0310841Y0146880D01*
X0307624Y0146880D02*
X0232602Y0146880D01*
X0232602Y0148059D02*
X0257138Y0148059D01*
X0259051Y0151598D02*
X0302221Y0151598D01*
X0303401Y0152778D02*
X0280051Y0152778D01*
X0281562Y0153958D02*
X0304580Y0153958D01*
X0305280Y0155137D02*
X0282051Y0155137D01*
X0282051Y0156317D02*
X0306645Y0156317D01*
X0304503Y0161035D02*
X0241210Y0161035D01*
X0236475Y0161035D02*
X0227484Y0161035D01*
X0227484Y0159856D02*
X0235752Y0159856D01*
X0235579Y0158676D02*
X0227484Y0158676D01*
X0227484Y0157496D02*
X0235845Y0157496D01*
X0236697Y0156317D02*
X0227588Y0156317D01*
X0225193Y0153958D02*
X0214199Y0153958D01*
X0213020Y0155137D02*
X0224122Y0155137D01*
X0224122Y0156317D02*
X0211840Y0156317D01*
X0210661Y0157496D02*
X0224122Y0157496D01*
X0224122Y0158676D02*
X0209481Y0158676D01*
X0208301Y0159856D02*
X0224122Y0159856D01*
X0224122Y0161035D02*
X0207122Y0161035D01*
X0205942Y0162215D02*
X0224122Y0162215D01*
X0224122Y0163394D02*
X0204762Y0163394D01*
X0203583Y0164574D02*
X0224122Y0164574D01*
X0224400Y0165754D02*
X0202403Y0165754D01*
X0201224Y0166933D02*
X0225580Y0166933D01*
X0226759Y0168113D02*
X0200044Y0168113D01*
X0198864Y0169293D02*
X0227939Y0169293D01*
X0229118Y0170472D02*
X0223088Y0170472D01*
X0223850Y0171652D02*
X0230298Y0171652D01*
X0231478Y0172831D02*
X0224051Y0172831D01*
X0224388Y0174011D02*
X0304819Y0174011D01*
X0305649Y0175191D02*
X0225568Y0175191D01*
X0226748Y0176370D02*
X0307534Y0176370D01*
X0307651Y0177550D02*
X0227927Y0177550D01*
X0229107Y0178729D02*
X0305697Y0178729D01*
X0304839Y0179909D02*
X0230286Y0179909D01*
X0230398Y0182398D02*
X0309366Y0182398D01*
X0360055Y0182398D01*
X0365055Y0187398D01*
X0365055Y0187457D01*
X0362195Y0190526D02*
X0357915Y0190526D01*
X0359094Y0189346D02*
X0361016Y0189346D01*
X0360863Y0188166D02*
X0359247Y0188166D01*
X0359247Y0186987D02*
X0360863Y0186987D01*
X0360863Y0185807D02*
X0359247Y0185807D01*
X0359908Y0184628D02*
X0358154Y0184628D01*
X0355055Y0187457D02*
X0313165Y0187457D01*
X0308874Y0191748D01*
X0260827Y0191748D01*
X0221787Y0230787D01*
X0109724Y0230787D01*
X0097260Y0218323D01*
X0101421Y0220016D02*
X0102941Y0220016D01*
X0102610Y0219216D02*
X0102610Y0217429D01*
X0103294Y0215778D01*
X0104558Y0214515D01*
X0106209Y0213831D01*
X0107996Y0213831D01*
X0109647Y0214515D01*
X0110911Y0215778D01*
X0111594Y0217429D01*
X0111594Y0219216D01*
X0110911Y0220867D01*
X0109647Y0222131D01*
X0107996Y0222815D01*
X0106209Y0222815D01*
X0104558Y0222131D01*
X0103294Y0220867D01*
X0102610Y0219216D01*
X0102610Y0218836D02*
X0101752Y0218836D01*
X0101752Y0217657D02*
X0102610Y0217657D01*
X0103005Y0216477D02*
X0101358Y0216477D01*
X0100587Y0215297D02*
X0103775Y0215297D01*
X0105516Y0214118D02*
X0098847Y0214118D01*
X0095673Y0214118D02*
X0089004Y0214118D01*
X0088311Y0213831D02*
X0089962Y0214515D01*
X0091226Y0215778D01*
X0091909Y0217429D01*
X0091909Y0219216D01*
X0091226Y0220867D01*
X0089962Y0222131D01*
X0088311Y0222815D01*
X0086524Y0222815D01*
X0084873Y0222131D01*
X0083609Y0220867D01*
X0082925Y0219216D01*
X0082925Y0217429D01*
X0083609Y0215778D01*
X0084873Y0214515D01*
X0086524Y0213831D01*
X0088311Y0213831D01*
X0085831Y0214118D02*
X0079434Y0214118D01*
X0079337Y0214069D02*
X0079981Y0214397D01*
X0080565Y0214821D01*
X0081076Y0215332D01*
X0081501Y0215917D01*
X0081829Y0216561D01*
X0082052Y0217248D01*
X0082158Y0217913D01*
X0077984Y0217913D01*
X0077984Y0213740D01*
X0078650Y0213845D01*
X0079337Y0214069D01*
X0077984Y0214118D02*
X0077165Y0214118D01*
X0077165Y0213740D02*
X0077165Y0217913D01*
X0072992Y0217913D01*
X0073097Y0217248D01*
X0073321Y0216561D01*
X0073649Y0215917D01*
X0074073Y0215332D01*
X0074584Y0214821D01*
X0075169Y0214397D01*
X0075813Y0214069D01*
X0076500Y0213845D01*
X0077165Y0213740D01*
X0075716Y0214118D02*
X0074315Y0214118D01*
X0074108Y0215297D02*
X0073135Y0215297D01*
X0073363Y0216477D02*
X0071955Y0216477D01*
X0071867Y0216566D02*
X0072224Y0217429D01*
X0072224Y0219216D01*
X0071541Y0220867D01*
X0070277Y0222131D01*
X0068626Y0222815D01*
X0066839Y0222815D01*
X0065188Y0222131D01*
X0063924Y0220867D01*
X0063240Y0219216D01*
X0063240Y0217429D01*
X0063924Y0215778D01*
X0065188Y0214515D01*
X0066839Y0213831D01*
X0068626Y0213831D01*
X0069489Y0214188D01*
X0111130Y0172547D01*
X0174713Y0172547D01*
X0201280Y0145981D01*
X0201280Y0144839D01*
X0201776Y0143639D01*
X0202695Y0142721D01*
X0203894Y0142224D01*
X0205193Y0142224D01*
X0206392Y0142721D01*
X0207310Y0143639D01*
X0207807Y0144839D01*
X0207807Y0146137D01*
X0207310Y0147337D01*
X0206392Y0148255D01*
X0205193Y0148752D01*
X0203894Y0148752D01*
X0203448Y0148567D01*
X0177091Y0174925D01*
X0176106Y0175909D01*
X0112523Y0175909D01*
X0071867Y0216566D01*
X0072224Y0217657D02*
X0073033Y0217657D01*
X0072992Y0218732D02*
X0077165Y0218732D01*
X0077165Y0217913D01*
X0077984Y0217913D01*
X0077984Y0218732D01*
X0082158Y0218732D01*
X0082052Y0219398D01*
X0081829Y0220085D01*
X0081501Y0220729D01*
X0081076Y0221313D01*
X0080565Y0221824D01*
X0079981Y0222249D01*
X0079337Y0222577D01*
X0078650Y0222800D01*
X0077984Y0222906D01*
X0077984Y0218732D01*
X0077165Y0218732D01*
X0077165Y0222906D01*
X0076500Y0222800D01*
X0075813Y0222577D01*
X0075169Y0222249D01*
X0074584Y0221824D01*
X0074073Y0221313D01*
X0073649Y0220729D01*
X0073321Y0220085D01*
X0073097Y0219398D01*
X0072992Y0218732D01*
X0073008Y0218836D02*
X0072224Y0218836D01*
X0071893Y0220016D02*
X0073298Y0220016D01*
X0073988Y0221196D02*
X0071212Y0221196D01*
X0069688Y0222375D02*
X0075416Y0222375D01*
X0077165Y0222375D02*
X0077984Y0222375D01*
X0077984Y0221196D02*
X0077165Y0221196D01*
X0077165Y0220016D02*
X0077984Y0220016D01*
X0077984Y0218836D02*
X0077165Y0218836D01*
X0077165Y0217657D02*
X0077984Y0217657D01*
X0077984Y0216477D02*
X0077165Y0216477D01*
X0077165Y0215297D02*
X0077984Y0215297D01*
X0081041Y0215297D02*
X0084090Y0215297D01*
X0083320Y0216477D02*
X0081786Y0216477D01*
X0082117Y0217657D02*
X0082925Y0217657D01*
X0082925Y0218836D02*
X0082141Y0218836D01*
X0081851Y0220016D02*
X0083256Y0220016D01*
X0083937Y0221196D02*
X0081162Y0221196D01*
X0079733Y0222375D02*
X0085462Y0222375D01*
X0089373Y0222375D02*
X0095305Y0222375D01*
X0093780Y0221196D02*
X0090897Y0221196D01*
X0091578Y0220016D02*
X0093099Y0220016D01*
X0092768Y0218836D02*
X0091909Y0218836D01*
X0091909Y0217657D02*
X0092768Y0217657D01*
X0093162Y0216477D02*
X0091515Y0216477D01*
X0090745Y0215297D02*
X0093932Y0215297D01*
X0102510Y0221196D02*
X0103622Y0221196D01*
X0103690Y0222375D02*
X0105147Y0222375D01*
X0104869Y0223555D02*
X0226643Y0223555D01*
X0227822Y0222375D02*
X0168113Y0222375D01*
X0168702Y0222131D02*
X0167051Y0222815D01*
X0165264Y0222815D01*
X0163613Y0222131D01*
X0162349Y0220867D01*
X0161665Y0219216D01*
X0161665Y0217429D01*
X0162349Y0215778D01*
X0163613Y0214515D01*
X0165264Y0213831D01*
X0167051Y0213831D01*
X0168702Y0214515D01*
X0169966Y0215778D01*
X0170650Y0217429D01*
X0170650Y0219216D01*
X0169966Y0220867D01*
X0168702Y0222131D01*
X0169638Y0221196D02*
X0229002Y0221196D01*
X0230181Y0220016D02*
X0170318Y0220016D01*
X0170650Y0218836D02*
X0231361Y0218836D01*
X0232541Y0217657D02*
X0170650Y0217657D01*
X0170255Y0216477D02*
X0233720Y0216477D01*
X0234900Y0215297D02*
X0169485Y0215297D01*
X0167744Y0214118D02*
X0236079Y0214118D01*
X0237259Y0212938D02*
X0075494Y0212938D01*
X0076674Y0211759D02*
X0238439Y0211759D01*
X0239618Y0210579D02*
X0077854Y0210579D01*
X0079033Y0209399D02*
X0240798Y0209399D01*
X0241978Y0208220D02*
X0080213Y0208220D01*
X0081392Y0207040D02*
X0230425Y0207040D01*
X0230020Y0206636D02*
X0230939Y0207554D01*
X0232138Y0208051D01*
X0233437Y0208051D01*
X0234636Y0207554D01*
X0235554Y0206636D01*
X0236051Y0205437D01*
X0236051Y0204138D01*
X0235554Y0202939D01*
X0234636Y0202020D01*
X0233437Y0201524D01*
X0232138Y0201524D01*
X0231971Y0201593D01*
X0212571Y0182193D01*
X0211586Y0181209D01*
X0186948Y0181209D01*
X0217506Y0150651D01*
X0217674Y0150720D01*
X0218972Y0150720D01*
X0220172Y0150224D01*
X0221090Y0149305D01*
X0221587Y0148106D01*
X0221587Y0146807D01*
X0221090Y0145608D01*
X0220172Y0144690D01*
X0218972Y0144193D01*
X0217674Y0144193D01*
X0216474Y0144690D01*
X0215556Y0145608D01*
X0215059Y0146807D01*
X0215059Y0148106D01*
X0215129Y0148274D01*
X0182193Y0181209D01*
X0142419Y0181209D01*
X0142350Y0181041D01*
X0141431Y0180123D01*
X0140232Y0179626D01*
X0138933Y0179626D01*
X0137734Y0180123D01*
X0136816Y0181041D01*
X0136319Y0182241D01*
X0136319Y0183539D01*
X0136816Y0184739D01*
X0137734Y0185657D01*
X0138933Y0186154D01*
X0140232Y0186154D01*
X0141431Y0185657D01*
X0142350Y0184739D01*
X0142419Y0184571D01*
X0210193Y0184571D01*
X0229593Y0203971D01*
X0229524Y0204138D01*
X0229524Y0205437D01*
X0230020Y0206636D01*
X0229699Y0205861D02*
X0082572Y0205861D01*
X0083752Y0204681D02*
X0229524Y0204681D01*
X0229124Y0203501D02*
X0084931Y0203501D01*
X0086111Y0202322D02*
X0227944Y0202322D01*
X0226765Y0201142D02*
X0087290Y0201142D01*
X0088470Y0199962D02*
X0225585Y0199962D01*
X0224405Y0198783D02*
X0089650Y0198783D01*
X0090829Y0197603D02*
X0223226Y0197603D01*
X0222046Y0196424D02*
X0092009Y0196424D01*
X0093188Y0195244D02*
X0220867Y0195244D01*
X0219687Y0194064D02*
X0094368Y0194064D01*
X0095548Y0192885D02*
X0218507Y0192885D01*
X0217328Y0191705D02*
X0096727Y0191705D01*
X0097907Y0190526D02*
X0216148Y0190526D01*
X0214969Y0189346D02*
X0099087Y0189346D01*
X0100266Y0188166D02*
X0213789Y0188166D01*
X0212609Y0186987D02*
X0101446Y0186987D01*
X0102625Y0185807D02*
X0138097Y0185807D01*
X0136770Y0184628D02*
X0103805Y0184628D01*
X0104985Y0183448D02*
X0136319Y0183448D01*
X0136319Y0182268D02*
X0106164Y0182268D01*
X0107344Y0181089D02*
X0136796Y0181089D01*
X0138250Y0179909D02*
X0108523Y0179909D01*
X0109703Y0178729D02*
X0184673Y0178729D01*
X0185852Y0177550D02*
X0110883Y0177550D01*
X0112062Y0176370D02*
X0187032Y0176370D01*
X0188211Y0175191D02*
X0176825Y0175191D01*
X0178004Y0174011D02*
X0189391Y0174011D01*
X0190571Y0172831D02*
X0179184Y0172831D01*
X0180363Y0171652D02*
X0191750Y0171652D01*
X0192930Y0170472D02*
X0181543Y0170472D01*
X0182723Y0169293D02*
X0194110Y0169293D01*
X0195289Y0168113D02*
X0183902Y0168113D01*
X0185082Y0166933D02*
X0196469Y0166933D01*
X0197648Y0165754D02*
X0186262Y0165754D01*
X0187441Y0164574D02*
X0198828Y0164574D01*
X0200008Y0163394D02*
X0188621Y0163394D01*
X0189800Y0162215D02*
X0201187Y0162215D01*
X0202367Y0161035D02*
X0190980Y0161035D01*
X0192160Y0159856D02*
X0203546Y0159856D01*
X0204726Y0158676D02*
X0193339Y0158676D01*
X0194519Y0157496D02*
X0205906Y0157496D01*
X0207085Y0156317D02*
X0195698Y0156317D01*
X0196878Y0155137D02*
X0208265Y0155137D01*
X0209445Y0153958D02*
X0198058Y0153958D01*
X0199237Y0152778D02*
X0210624Y0152778D01*
X0211804Y0151598D02*
X0200417Y0151598D01*
X0201596Y0150419D02*
X0212983Y0150419D01*
X0214163Y0149239D02*
X0202776Y0149239D01*
X0200380Y0146880D02*
X0069413Y0146880D01*
X0069413Y0148059D02*
X0199201Y0148059D01*
X0198021Y0149239D02*
X0069413Y0149239D01*
X0069413Y0150419D02*
X0196842Y0150419D01*
X0195662Y0151598D02*
X0069413Y0151598D01*
X0069413Y0152778D02*
X0194482Y0152778D01*
X0193303Y0153958D02*
X0069413Y0153958D01*
X0069413Y0155102D02*
X0070277Y0155459D01*
X0071541Y0156723D01*
X0072224Y0158374D01*
X0072224Y0160161D01*
X0071541Y0161812D01*
X0070277Y0163076D01*
X0068626Y0163760D01*
X0066839Y0163760D01*
X0065188Y0163076D01*
X0063924Y0161812D01*
X0063240Y0160161D01*
X0063240Y0158374D01*
X0063924Y0156723D01*
X0065188Y0155459D01*
X0066051Y0155102D01*
X0066051Y0141839D01*
X0083571Y0124319D01*
X0084556Y0123335D01*
X0182022Y0123335D01*
X0182091Y0123167D01*
X0183009Y0122249D01*
X0184209Y0121752D01*
X0185507Y0121752D01*
X0186707Y0122249D01*
X0187625Y0123167D01*
X0188122Y0124367D01*
X0188122Y0125665D01*
X0187625Y0126865D01*
X0186707Y0127783D01*
X0185507Y0128280D01*
X0184209Y0128280D01*
X0183009Y0127783D01*
X0182091Y0126865D01*
X0182022Y0126697D01*
X0085948Y0126697D01*
X0069413Y0143232D01*
X0069413Y0155102D01*
X0069499Y0155137D02*
X0075570Y0155137D01*
X0075813Y0155013D02*
X0076500Y0154790D01*
X0077165Y0154685D01*
X0077165Y0158858D01*
X0072992Y0158858D01*
X0073097Y0158193D01*
X0073321Y0157506D01*
X0073649Y0156862D01*
X0074073Y0156277D01*
X0074584Y0155766D01*
X0075169Y0155342D01*
X0075813Y0155013D01*
X0077165Y0155137D02*
X0077984Y0155137D01*
X0077984Y0154685D02*
X0078650Y0154790D01*
X0079337Y0155013D01*
X0079981Y0155342D01*
X0080565Y0155766D01*
X0081076Y0156277D01*
X0081501Y0156862D01*
X0081829Y0157506D01*
X0082052Y0158193D01*
X0082158Y0158858D01*
X0077984Y0158858D01*
X0077984Y0154685D01*
X0077984Y0156317D02*
X0077165Y0156317D01*
X0077165Y0157496D02*
X0077984Y0157496D01*
X0077984Y0158676D02*
X0077165Y0158676D01*
X0077165Y0158858D02*
X0077984Y0158858D01*
X0077984Y0159677D01*
X0077165Y0159677D01*
X0077165Y0158858D01*
X0077165Y0159677D02*
X0072992Y0159677D01*
X0073097Y0160343D01*
X0073321Y0161030D01*
X0073649Y0161674D01*
X0074073Y0162258D01*
X0074584Y0162769D01*
X0075169Y0163194D01*
X0075813Y0163522D01*
X0076500Y0163745D01*
X0077165Y0163851D01*
X0077165Y0159677D01*
X0077165Y0159856D02*
X0077984Y0159856D01*
X0077984Y0159677D02*
X0077984Y0163851D01*
X0078650Y0163745D01*
X0079337Y0163522D01*
X0079981Y0163194D01*
X0080565Y0162769D01*
X0081076Y0162258D01*
X0081501Y0161674D01*
X0081829Y0161030D01*
X0082052Y0160343D01*
X0082158Y0159677D01*
X0077984Y0159677D01*
X0077984Y0161035D02*
X0077165Y0161035D01*
X0077165Y0162215D02*
X0077984Y0162215D01*
X0077984Y0163394D02*
X0077165Y0163394D01*
X0075562Y0163394D02*
X0069508Y0163394D01*
X0071138Y0162215D02*
X0074042Y0162215D01*
X0073323Y0161035D02*
X0071862Y0161035D01*
X0072224Y0159856D02*
X0073020Y0159856D01*
X0073021Y0158676D02*
X0072224Y0158676D01*
X0071861Y0157496D02*
X0073325Y0157496D01*
X0074045Y0156317D02*
X0071134Y0156317D01*
X0067732Y0159268D02*
X0067732Y0142535D01*
X0085252Y0125016D01*
X0184858Y0125016D01*
X0183549Y0128006D02*
X0084639Y0128006D01*
X0083459Y0129186D02*
X0214997Y0129186D01*
X0216177Y0130365D02*
X0082280Y0130365D01*
X0081100Y0131545D02*
X0217356Y0131545D01*
X0218536Y0132725D02*
X0079921Y0132725D01*
X0078741Y0133904D02*
X0219716Y0133904D01*
X0220895Y0135084D02*
X0077561Y0135084D01*
X0076382Y0136263D02*
X0222075Y0136263D01*
X0223255Y0137443D02*
X0075202Y0137443D01*
X0074023Y0138623D02*
X0224434Y0138623D01*
X0225614Y0139802D02*
X0072843Y0139802D01*
X0071663Y0140982D02*
X0226793Y0140982D01*
X0227973Y0142161D02*
X0070484Y0142161D01*
X0069413Y0143341D02*
X0202075Y0143341D01*
X0201411Y0144521D02*
X0069413Y0144521D01*
X0069413Y0145700D02*
X0201280Y0145700D01*
X0204150Y0145488D02*
X0175409Y0174228D01*
X0111827Y0174228D01*
X0067732Y0218323D01*
X0063571Y0220016D02*
X0062382Y0220016D01*
X0062382Y0221196D02*
X0064252Y0221196D01*
X0065777Y0222375D02*
X0061948Y0222375D01*
X0062382Y0221941D02*
X0061508Y0222815D01*
X0054272Y0222815D01*
X0053398Y0221941D01*
X0053398Y0220004D01*
X0038170Y0220004D01*
X0035959Y0222215D01*
X0032734Y0222215D01*
X0030454Y0219935D01*
X0030454Y0216711D01*
X0032734Y0214431D01*
X0035959Y0214431D01*
X0038170Y0216642D01*
X0053398Y0216642D01*
X0053398Y0214705D01*
X0054272Y0213831D01*
X0061508Y0213831D01*
X0062382Y0214705D01*
X0062382Y0221941D01*
X0062382Y0218836D02*
X0063240Y0218836D01*
X0063240Y0217657D02*
X0062382Y0217657D01*
X0062382Y0216477D02*
X0063635Y0216477D01*
X0064405Y0215297D02*
X0062382Y0215297D01*
X0061795Y0214118D02*
X0066145Y0214118D01*
X0069319Y0214118D02*
X0069560Y0214118D01*
X0070739Y0212938D02*
X0004346Y0212938D01*
X0004346Y0211759D02*
X0071919Y0211759D01*
X0073099Y0210579D02*
X0004346Y0210579D01*
X0004346Y0209399D02*
X0074278Y0209399D01*
X0075458Y0208220D02*
X0004346Y0208220D01*
X0004346Y0207040D02*
X0076637Y0207040D01*
X0077817Y0205861D02*
X0004346Y0205861D01*
X0004346Y0204681D02*
X0078997Y0204681D01*
X0080176Y0203501D02*
X0004346Y0203501D01*
X0004346Y0202322D02*
X0081356Y0202322D01*
X0082536Y0201142D02*
X0004346Y0201142D01*
X0004346Y0199962D02*
X0083715Y0199962D01*
X0084895Y0198783D02*
X0004346Y0198783D01*
X0004346Y0197603D02*
X0086074Y0197603D01*
X0087254Y0196424D02*
X0004346Y0196424D01*
X0004346Y0195244D02*
X0088434Y0195244D01*
X0089613Y0194064D02*
X0004346Y0194064D01*
X0004346Y0192885D02*
X0090793Y0192885D01*
X0091972Y0191705D02*
X0004346Y0191705D01*
X0004346Y0190526D02*
X0093152Y0190526D01*
X0094332Y0189346D02*
X0004346Y0189346D01*
X0004346Y0188166D02*
X0095511Y0188166D01*
X0096691Y0186987D02*
X0004346Y0186987D01*
X0004346Y0185807D02*
X0097871Y0185807D01*
X0099050Y0184628D02*
X0004346Y0184628D01*
X0004346Y0183448D02*
X0100230Y0183448D01*
X0101409Y0182268D02*
X0004346Y0182268D01*
X0004346Y0181089D02*
X0102589Y0181089D01*
X0103769Y0179909D02*
X0004346Y0179909D01*
X0004346Y0178729D02*
X0104948Y0178729D01*
X0106128Y0177550D02*
X0004346Y0177550D01*
X0004346Y0176370D02*
X0107307Y0176370D01*
X0108487Y0175191D02*
X0004346Y0175191D01*
X0004346Y0174011D02*
X0109667Y0174011D01*
X0110846Y0172831D02*
X0004346Y0172831D01*
X0004346Y0171652D02*
X0175609Y0171652D01*
X0176788Y0170472D02*
X0004346Y0170472D01*
X0004346Y0169293D02*
X0177968Y0169293D01*
X0179147Y0168113D02*
X0004346Y0168113D01*
X0004346Y0166933D02*
X0180327Y0166933D01*
X0181507Y0165754D02*
X0004346Y0165754D01*
X0004346Y0164574D02*
X0182686Y0164574D01*
X0183866Y0163394D02*
X0167933Y0163394D01*
X0168702Y0163076D02*
X0167051Y0163760D01*
X0165264Y0163760D01*
X0163613Y0163076D01*
X0162349Y0161812D01*
X0161665Y0160161D01*
X0161665Y0158374D01*
X0162349Y0156723D01*
X0163613Y0155459D01*
X0165264Y0154776D01*
X0167051Y0154776D01*
X0168702Y0155459D01*
X0169966Y0156723D01*
X0170650Y0158374D01*
X0170650Y0160161D01*
X0169966Y0161812D01*
X0168702Y0163076D01*
X0169563Y0162215D02*
X0185045Y0162215D01*
X0186225Y0161035D02*
X0170288Y0161035D01*
X0170650Y0159856D02*
X0187405Y0159856D01*
X0188584Y0158676D02*
X0170650Y0158676D01*
X0170286Y0157496D02*
X0189764Y0157496D01*
X0190944Y0156317D02*
X0169559Y0156317D01*
X0167924Y0155137D02*
X0192123Y0155137D01*
X0204150Y0145488D02*
X0204543Y0145488D01*
X0207500Y0146880D02*
X0215059Y0146880D01*
X0215059Y0148059D02*
X0206588Y0148059D01*
X0207807Y0145700D02*
X0215518Y0145700D01*
X0216882Y0144521D02*
X0207675Y0144521D01*
X0207012Y0143341D02*
X0229153Y0143341D01*
X0229240Y0144521D02*
X0219763Y0144521D01*
X0221128Y0145700D02*
X0229240Y0145700D01*
X0229240Y0146880D02*
X0221587Y0146880D01*
X0221587Y0148059D02*
X0229240Y0148059D01*
X0229240Y0149239D02*
X0221117Y0149239D01*
X0219700Y0150419D02*
X0228731Y0150419D01*
X0227552Y0151598D02*
X0216559Y0151598D01*
X0215379Y0152778D02*
X0226372Y0152778D01*
X0232602Y0145700D02*
X0305686Y0145700D01*
X0304834Y0144521D02*
X0232602Y0144521D01*
X0232602Y0143341D02*
X0256712Y0143341D01*
X0255532Y0142161D02*
X0232602Y0142161D01*
X0231548Y0140982D02*
X0254352Y0140982D01*
X0253173Y0139802D02*
X0230369Y0139802D01*
X0229189Y0138623D02*
X0251993Y0138623D01*
X0250814Y0137443D02*
X0228009Y0137443D01*
X0226830Y0136263D02*
X0249634Y0136263D01*
X0248454Y0135084D02*
X0225650Y0135084D01*
X0224471Y0133904D02*
X0247275Y0133904D01*
X0246095Y0132725D02*
X0223291Y0132725D01*
X0222111Y0131545D02*
X0244916Y0131545D01*
X0243736Y0130365D02*
X0220932Y0130365D01*
X0219752Y0129186D02*
X0242556Y0129186D01*
X0241377Y0128006D02*
X0218572Y0128006D01*
X0217393Y0126826D02*
X0240197Y0126826D01*
X0239017Y0125647D02*
X0216213Y0125647D01*
X0215034Y0124467D02*
X0237838Y0124467D01*
X0236658Y0123288D02*
X0213854Y0123288D01*
X0212674Y0122108D02*
X0235479Y0122108D01*
X0234299Y0120928D02*
X0211495Y0120928D01*
X0210315Y0119749D02*
X0233119Y0119749D01*
X0231940Y0118569D02*
X0209136Y0118569D01*
X0207956Y0117390D02*
X0230760Y0117390D01*
X0229581Y0116210D02*
X0115635Y0116210D01*
X0114455Y0115030D02*
X0187919Y0115030D01*
X0186413Y0113851D02*
X0113275Y0113851D01*
X0112096Y0112671D02*
X0185925Y0112671D01*
X0185925Y0111491D02*
X0110916Y0111491D01*
X0109737Y0110312D02*
X0186365Y0110312D01*
X0187641Y0109132D02*
X0108557Y0109132D01*
X0107377Y0107953D02*
X0190883Y0107953D01*
X0192062Y0106773D02*
X0106198Y0106773D01*
X0103802Y0109132D02*
X0004346Y0109132D01*
X0004346Y0107953D02*
X0102622Y0107953D01*
X0101443Y0106773D02*
X0004346Y0106773D01*
X0004346Y0105593D02*
X0100263Y0105593D01*
X0099084Y0104414D02*
X0098856Y0104414D01*
X0095664Y0104414D02*
X0089013Y0104414D01*
X0088311Y0104705D02*
X0086524Y0104705D01*
X0084873Y0104021D01*
X0083609Y0102757D01*
X0082925Y0101106D01*
X0082925Y0099319D01*
X0083609Y0097668D01*
X0084873Y0096404D01*
X0086524Y0095720D01*
X0088311Y0095720D01*
X0089962Y0096404D01*
X0091226Y0097668D01*
X0091909Y0099319D01*
X0091909Y0101106D01*
X0091226Y0102757D01*
X0089962Y0104021D01*
X0088311Y0104705D01*
X0085821Y0104414D02*
X0079441Y0104414D01*
X0079337Y0104467D02*
X0078650Y0104690D01*
X0077984Y0104795D01*
X0077984Y0100622D01*
X0077165Y0100622D01*
X0077165Y0099803D01*
X0072992Y0099803D01*
X0073097Y0099138D01*
X0073321Y0098450D01*
X0073649Y0097807D01*
X0074073Y0097222D01*
X0074584Y0096711D01*
X0075169Y0096286D01*
X0075813Y0095958D01*
X0076500Y0095735D01*
X0077165Y0095630D01*
X0077165Y0099803D01*
X0077984Y0099803D01*
X0077984Y0095630D01*
X0078650Y0095735D01*
X0079337Y0095958D01*
X0079981Y0096286D01*
X0080565Y0096711D01*
X0081076Y0097222D01*
X0081501Y0097807D01*
X0081829Y0098450D01*
X0082052Y0099138D01*
X0082158Y0099803D01*
X0077984Y0099803D01*
X0077984Y0100622D01*
X0082158Y0100622D01*
X0082052Y0101288D01*
X0081829Y0101975D01*
X0081501Y0102619D01*
X0081076Y0103203D01*
X0080565Y0103714D01*
X0079981Y0104139D01*
X0079337Y0104467D01*
X0077984Y0104414D02*
X0077165Y0104414D01*
X0077165Y0104795D02*
X0076500Y0104690D01*
X0075813Y0104467D01*
X0075169Y0104139D01*
X0074584Y0103714D01*
X0074073Y0103203D01*
X0073649Y0102619D01*
X0073321Y0101975D01*
X0073097Y0101288D01*
X0072992Y0100622D01*
X0077165Y0100622D01*
X0077165Y0104795D01*
X0075709Y0104414D02*
X0069328Y0104414D01*
X0068626Y0104705D02*
X0066839Y0104705D01*
X0065188Y0104021D01*
X0063924Y0102757D01*
X0063240Y0101106D01*
X0063240Y0099319D01*
X0063924Y0097668D01*
X0065188Y0096404D01*
X0066839Y0095720D01*
X0068626Y0095720D01*
X0069489Y0096078D01*
X0083768Y0081800D01*
X0084752Y0080815D01*
X0207208Y0080815D01*
X0211145Y0084752D01*
X0211837Y0085444D01*
X0212298Y0085635D01*
X0213216Y0086553D01*
X0213713Y0087752D01*
X0213713Y0089051D01*
X0213216Y0090250D01*
X0212298Y0091168D01*
X0211098Y0091665D01*
X0209800Y0091665D01*
X0208600Y0091168D01*
X0207682Y0090250D01*
X0207185Y0089051D01*
X0207185Y0087752D01*
X0207682Y0086553D01*
X0207937Y0086298D01*
X0205815Y0084177D01*
X0086145Y0084177D01*
X0071867Y0098456D01*
X0072224Y0099319D01*
X0072224Y0101106D01*
X0071541Y0102757D01*
X0070277Y0104021D01*
X0068626Y0104705D01*
X0066136Y0104414D02*
X0061799Y0104414D01*
X0061508Y0104705D02*
X0054272Y0104705D01*
X0053398Y0103831D01*
X0053398Y0101894D01*
X0038170Y0101894D01*
X0035959Y0104105D01*
X0032734Y0104105D01*
X0030454Y0101825D01*
X0030454Y0098600D01*
X0032734Y0096320D01*
X0035959Y0096320D01*
X0038170Y0098531D01*
X0053398Y0098531D01*
X0053398Y0096595D01*
X0054272Y0095720D01*
X0061508Y0095720D01*
X0062382Y0096595D01*
X0062382Y0103831D01*
X0061508Y0104705D01*
X0062382Y0103234D02*
X0064401Y0103234D01*
X0063633Y0102055D02*
X0062382Y0102055D01*
X0062382Y0100875D02*
X0063240Y0100875D01*
X0063240Y0099695D02*
X0062382Y0099695D01*
X0062382Y0098516D02*
X0063573Y0098516D01*
X0064256Y0097336D02*
X0062382Y0097336D01*
X0061944Y0096156D02*
X0065786Y0096156D01*
X0067732Y0100213D02*
X0085449Y0082496D01*
X0206512Y0082496D01*
X0210449Y0086433D01*
X0210449Y0088402D01*
X0211647Y0091438D02*
X0212909Y0091438D01*
X0213208Y0090258D02*
X0257396Y0090258D01*
X0258575Y0089079D02*
X0213701Y0089079D01*
X0213713Y0087899D02*
X0259755Y0087899D01*
X0260934Y0086720D02*
X0213285Y0086720D01*
X0212069Y0085540D02*
X0262114Y0085540D01*
X0263294Y0084360D02*
X0210754Y0084360D01*
X0209574Y0083181D02*
X0264473Y0083181D01*
X0265653Y0082001D02*
X0208394Y0082001D01*
X0207215Y0080822D02*
X0266833Y0080822D01*
X0268012Y0079642D02*
X0004346Y0079642D01*
X0004346Y0080822D02*
X0084746Y0080822D01*
X0083566Y0082001D02*
X0004346Y0082001D01*
X0004346Y0083181D02*
X0082387Y0083181D01*
X0081207Y0084360D02*
X0004346Y0084360D01*
X0004346Y0085540D02*
X0080027Y0085540D01*
X0078848Y0086720D02*
X0004346Y0086720D01*
X0004346Y0087899D02*
X0077668Y0087899D01*
X0076489Y0089079D02*
X0004346Y0089079D01*
X0004346Y0090258D02*
X0075309Y0090258D01*
X0074129Y0091438D02*
X0004346Y0091438D01*
X0004346Y0092618D02*
X0072950Y0092618D01*
X0071770Y0093797D02*
X0004346Y0093797D01*
X0004346Y0094977D02*
X0070591Y0094977D01*
X0072986Y0097336D02*
X0073990Y0097336D01*
X0074166Y0096156D02*
X0075424Y0096156D01*
X0075345Y0094977D02*
X0209370Y0094977D01*
X0210550Y0093797D02*
X0076525Y0093797D01*
X0077705Y0092618D02*
X0211729Y0092618D01*
X0214386Y0092339D02*
X0206512Y0100213D01*
X0209251Y0091438D02*
X0078884Y0091438D01*
X0080064Y0090258D02*
X0207690Y0090258D01*
X0207197Y0089079D02*
X0081243Y0089079D01*
X0082423Y0087899D02*
X0207185Y0087899D01*
X0207613Y0086720D02*
X0083603Y0086720D01*
X0084782Y0085540D02*
X0207178Y0085540D01*
X0205999Y0084360D02*
X0085962Y0084360D01*
X0085471Y0096156D02*
X0079726Y0096156D01*
X0077984Y0096156D02*
X0077165Y0096156D01*
X0077165Y0097336D02*
X0077984Y0097336D01*
X0077984Y0098516D02*
X0077165Y0098516D01*
X0077165Y0099695D02*
X0077984Y0099695D01*
X0077984Y0100875D02*
X0077165Y0100875D01*
X0077165Y0102055D02*
X0077984Y0102055D01*
X0077984Y0103234D02*
X0077165Y0103234D01*
X0074104Y0103234D02*
X0071064Y0103234D01*
X0071832Y0102055D02*
X0073361Y0102055D01*
X0073032Y0100875D02*
X0072224Y0100875D01*
X0072224Y0099695D02*
X0073009Y0099695D01*
X0073299Y0098516D02*
X0071892Y0098516D01*
X0081159Y0097336D02*
X0083941Y0097336D01*
X0083258Y0098516D02*
X0081850Y0098516D01*
X0082141Y0099695D02*
X0082925Y0099695D01*
X0082925Y0100875D02*
X0082118Y0100875D01*
X0081788Y0102055D02*
X0083318Y0102055D01*
X0084086Y0103234D02*
X0081045Y0103234D01*
X0090749Y0103234D02*
X0093929Y0103234D01*
X0093161Y0102055D02*
X0091517Y0102055D01*
X0091909Y0100875D02*
X0092768Y0100875D01*
X0092768Y0099695D02*
X0091909Y0099695D01*
X0091577Y0098516D02*
X0093100Y0098516D01*
X0093784Y0097336D02*
X0090894Y0097336D01*
X0089364Y0096156D02*
X0095314Y0096156D01*
X0099206Y0096156D02*
X0105156Y0096156D01*
X0103626Y0097336D02*
X0100736Y0097336D01*
X0104982Y0110312D02*
X0004346Y0110312D01*
X0004346Y0111491D02*
X0106161Y0111491D01*
X0107341Y0112671D02*
X0004346Y0112671D01*
X0004346Y0113851D02*
X0108521Y0113851D01*
X0109700Y0115030D02*
X0004346Y0115030D01*
X0004346Y0116210D02*
X0110880Y0116210D01*
X0112059Y0117390D02*
X0004346Y0117390D01*
X0004346Y0118569D02*
X0113239Y0118569D01*
X0114419Y0119749D02*
X0004346Y0119749D01*
X0004346Y0120928D02*
X0206740Y0120928D01*
X0207920Y0122108D02*
X0186367Y0122108D01*
X0187675Y0123288D02*
X0209099Y0123288D01*
X0210279Y0124467D02*
X0188122Y0124467D01*
X0188122Y0125647D02*
X0211458Y0125647D01*
X0212638Y0126826D02*
X0187641Y0126826D01*
X0186168Y0128006D02*
X0213818Y0128006D01*
X0218323Y0147457D02*
X0182890Y0182890D01*
X0210890Y0182890D01*
X0232787Y0204787D01*
X0235787Y0203501D02*
X0246696Y0203501D01*
X0247876Y0202322D02*
X0234937Y0202322D01*
X0236051Y0204681D02*
X0245516Y0204681D01*
X0244337Y0205861D02*
X0235876Y0205861D01*
X0235150Y0207040D02*
X0243157Y0207040D01*
X0245553Y0209399D02*
X0304382Y0209399D01*
X0304382Y0208220D02*
X0246732Y0208220D01*
X0247912Y0207040D02*
X0305157Y0207040D01*
X0305256Y0206941D02*
X0312492Y0206941D01*
X0313366Y0207815D01*
X0313366Y0215051D01*
X0312492Y0215925D01*
X0305256Y0215925D01*
X0304382Y0215051D01*
X0304382Y0207815D01*
X0305256Y0206941D01*
X0306329Y0205399D02*
X0305066Y0204135D01*
X0304382Y0202484D01*
X0304382Y0200697D01*
X0305066Y0199046D01*
X0306329Y0197782D01*
X0307980Y0197098D01*
X0309768Y0197098D01*
X0311419Y0197782D01*
X0312682Y0199046D01*
X0313366Y0200697D01*
X0313366Y0202484D01*
X0312682Y0204135D01*
X0311419Y0205399D01*
X0309768Y0206083D01*
X0307980Y0206083D01*
X0306329Y0205399D01*
X0305612Y0204681D02*
X0250271Y0204681D01*
X0249092Y0205861D02*
X0307444Y0205861D01*
X0310304Y0205861D02*
X0350765Y0205861D01*
X0350765Y0205679D02*
X0353278Y0203166D01*
X0354746Y0203166D01*
X0354746Y0207147D01*
X0355365Y0207147D01*
X0355365Y0207766D01*
X0359346Y0207766D01*
X0359346Y0209234D01*
X0356832Y0211747D01*
X0355365Y0211747D01*
X0355365Y0207766D01*
X0354746Y0207766D01*
X0354746Y0211747D01*
X0353278Y0211747D01*
X0350765Y0209234D01*
X0350765Y0207766D01*
X0354746Y0207766D01*
X0354746Y0207147D01*
X0350765Y0207147D01*
X0350765Y0205679D01*
X0350765Y0207040D02*
X0312591Y0207040D01*
X0313366Y0208220D02*
X0350765Y0208220D01*
X0350930Y0209399D02*
X0313366Y0209399D01*
X0313366Y0210579D02*
X0352110Y0210579D01*
X0354746Y0210579D02*
X0355365Y0210579D01*
X0355365Y0209399D02*
X0354746Y0209399D01*
X0354746Y0208220D02*
X0355365Y0208220D01*
X0355365Y0207147D02*
X0359346Y0207147D01*
X0359346Y0205679D01*
X0356832Y0203166D01*
X0355365Y0203166D01*
X0355365Y0207147D01*
X0355365Y0207040D02*
X0354746Y0207040D01*
X0354746Y0205861D02*
X0355365Y0205861D01*
X0355365Y0204681D02*
X0354746Y0204681D01*
X0354746Y0203501D02*
X0355365Y0203501D01*
X0357168Y0203501D02*
X0363082Y0203501D01*
X0363319Y0203265D02*
X0366792Y0203265D01*
X0369247Y0205720D01*
X0369247Y0209193D01*
X0366792Y0211649D01*
X0363319Y0211649D01*
X0360863Y0209193D01*
X0360863Y0205720D01*
X0363319Y0203265D01*
X0363319Y0201649D02*
X0360863Y0199193D01*
X0360863Y0195720D01*
X0363319Y0193265D01*
X0366792Y0193265D01*
X0369247Y0195720D01*
X0369247Y0199193D01*
X0366792Y0201649D01*
X0363319Y0201649D01*
X0362812Y0201142D02*
X0357298Y0201142D01*
X0356792Y0201649D02*
X0353319Y0201649D01*
X0350863Y0199193D01*
X0350863Y0195720D01*
X0353319Y0193265D01*
X0356792Y0193265D01*
X0359247Y0195720D01*
X0359247Y0199193D01*
X0356792Y0201649D01*
X0358478Y0199962D02*
X0361632Y0199962D01*
X0360863Y0198783D02*
X0359247Y0198783D01*
X0359247Y0197603D02*
X0360863Y0197603D01*
X0360863Y0196424D02*
X0359247Y0196424D01*
X0358771Y0195244D02*
X0361339Y0195244D01*
X0362519Y0194064D02*
X0357591Y0194064D01*
X0352519Y0194064D02*
X0312777Y0194064D01*
X0313265Y0192885D02*
X0392929Y0192885D01*
X0392929Y0194064D02*
X0367591Y0194064D01*
X0368771Y0195244D02*
X0392929Y0195244D01*
X0392929Y0196424D02*
X0369247Y0196424D01*
X0369247Y0197603D02*
X0392929Y0197603D01*
X0392929Y0198783D02*
X0369247Y0198783D01*
X0368478Y0199962D02*
X0392929Y0199962D01*
X0392929Y0201142D02*
X0367298Y0201142D01*
X0367028Y0203501D02*
X0392929Y0203501D01*
X0392929Y0202322D02*
X0313366Y0202322D01*
X0313366Y0201142D02*
X0352812Y0201142D01*
X0351632Y0199962D02*
X0313062Y0199962D01*
X0312419Y0198783D02*
X0350863Y0198783D01*
X0350863Y0197603D02*
X0310986Y0197603D01*
X0311731Y0195244D02*
X0351339Y0195244D01*
X0350863Y0196424D02*
X0258529Y0196424D01*
X0259708Y0195244D02*
X0306017Y0195244D01*
X0304971Y0194064D02*
X0260888Y0194064D01*
X0258492Y0191705D02*
X0222083Y0191705D01*
X0223262Y0192885D02*
X0257313Y0192885D01*
X0256133Y0194064D02*
X0224442Y0194064D01*
X0225621Y0195244D02*
X0254953Y0195244D01*
X0253774Y0196424D02*
X0226801Y0196424D01*
X0227981Y0197603D02*
X0252594Y0197603D01*
X0251414Y0198783D02*
X0229160Y0198783D01*
X0230340Y0199962D02*
X0250235Y0199962D01*
X0249055Y0201142D02*
X0231520Y0201142D01*
X0220903Y0190526D02*
X0259672Y0190526D01*
X0257349Y0197603D02*
X0306762Y0197603D01*
X0305329Y0198783D02*
X0256169Y0198783D01*
X0254990Y0199962D02*
X0304686Y0199962D01*
X0304382Y0201142D02*
X0253810Y0201142D01*
X0252630Y0202322D02*
X0304382Y0202322D01*
X0304803Y0203501D02*
X0251451Y0203501D01*
X0244373Y0210579D02*
X0304382Y0210579D01*
X0304382Y0211759D02*
X0243194Y0211759D01*
X0242014Y0212938D02*
X0304382Y0212938D01*
X0304382Y0214118D02*
X0240834Y0214118D01*
X0239655Y0215297D02*
X0304628Y0215297D01*
X0313120Y0215297D02*
X0392929Y0215297D01*
X0392929Y0214118D02*
X0313366Y0214118D01*
X0313366Y0212938D02*
X0392929Y0212938D01*
X0392929Y0211759D02*
X0313366Y0211759D01*
X0312136Y0204681D02*
X0351763Y0204681D01*
X0352943Y0203501D02*
X0312945Y0203501D01*
X0313366Y0191705D02*
X0392929Y0191705D01*
X0392929Y0190526D02*
X0367915Y0190526D01*
X0369094Y0189346D02*
X0392929Y0189346D01*
X0392929Y0188166D02*
X0369247Y0188166D01*
X0369247Y0186987D02*
X0392929Y0186987D01*
X0392929Y0185807D02*
X0369247Y0185807D01*
X0368155Y0184628D02*
X0392929Y0184628D01*
X0392929Y0183448D02*
X0366975Y0183448D01*
X0367538Y0174011D02*
X0367738Y0174011D01*
X0355055Y0177457D02*
X0314268Y0177457D01*
X0308874Y0172063D01*
X0313077Y0170472D02*
X0314748Y0170472D01*
X0313569Y0169293D02*
X0312456Y0169293D01*
X0312389Y0168113D02*
X0311076Y0168113D01*
X0311209Y0166933D02*
X0230334Y0166933D01*
X0220787Y0172787D02*
X0230398Y0182398D01*
X0229070Y0183448D02*
X0213825Y0183448D01*
X0212646Y0182268D02*
X0227891Y0182268D01*
X0226711Y0181089D02*
X0187068Y0181089D01*
X0188248Y0179909D02*
X0225532Y0179909D01*
X0224352Y0178729D02*
X0189427Y0178729D01*
X0190607Y0177550D02*
X0223172Y0177550D01*
X0221993Y0176370D02*
X0191787Y0176370D01*
X0192966Y0175191D02*
X0218575Y0175191D01*
X0217762Y0174011D02*
X0194146Y0174011D01*
X0195326Y0172831D02*
X0217524Y0172831D01*
X0217725Y0171652D02*
X0196505Y0171652D01*
X0197685Y0170472D02*
X0218487Y0170472D01*
X0215005Y0184628D02*
X0305243Y0184628D01*
X0306555Y0185807D02*
X0216185Y0185807D01*
X0217364Y0186987D02*
X0311258Y0186987D01*
X0311193Y0185807D02*
X0312437Y0185807D01*
X0312505Y0184628D02*
X0351956Y0184628D01*
X0351016Y0189346D02*
X0313653Y0189346D01*
X0313230Y0190526D02*
X0352195Y0190526D01*
X0351579Y0179909D02*
X0312909Y0179909D01*
X0313163Y0178729D02*
X0312051Y0178729D01*
X0311983Y0177550D02*
X0310097Y0177550D01*
X0310214Y0176370D02*
X0310804Y0176370D01*
X0313199Y0174011D02*
X0318287Y0174011D01*
X0317107Y0172831D02*
X0313366Y0172831D01*
X0313366Y0171652D02*
X0315928Y0171652D01*
X0318324Y0169293D02*
X0350962Y0169293D01*
X0352142Y0170472D02*
X0319503Y0170472D01*
X0314379Y0175191D02*
X0351393Y0175191D01*
X0360055Y0152378D02*
X0338402Y0152378D01*
X0308874Y0122850D01*
X0306582Y0138623D02*
X0256748Y0138623D01*
X0257928Y0139802D02*
X0305254Y0139802D01*
X0303437Y0148059D02*
X0307561Y0148059D01*
X0305660Y0149239D02*
X0304617Y0149239D01*
X0277524Y0152778D02*
X0258910Y0152778D01*
X0258233Y0153958D02*
X0276013Y0153958D01*
X0308874Y0181906D02*
X0309366Y0182398D01*
X0306103Y0188166D02*
X0218544Y0188166D01*
X0219723Y0189346D02*
X0305007Y0189346D01*
X0358347Y0204681D02*
X0361902Y0204681D01*
X0360863Y0205861D02*
X0359346Y0205861D01*
X0359346Y0207040D02*
X0360863Y0207040D01*
X0360863Y0208220D02*
X0359346Y0208220D01*
X0359180Y0209399D02*
X0361069Y0209399D01*
X0362249Y0210579D02*
X0358001Y0210579D01*
X0367861Y0210579D02*
X0392929Y0210579D01*
X0392929Y0209399D02*
X0369041Y0209399D01*
X0369247Y0208220D02*
X0392929Y0208220D01*
X0392929Y0207040D02*
X0369247Y0207040D01*
X0369247Y0205861D02*
X0392929Y0205861D01*
X0392929Y0204681D02*
X0368208Y0204681D01*
X0392929Y0216477D02*
X0238475Y0216477D01*
X0237296Y0217657D02*
X0392929Y0217657D01*
X0392929Y0218836D02*
X0236116Y0218836D01*
X0234936Y0220016D02*
X0392929Y0220016D01*
X0392929Y0221196D02*
X0233757Y0221196D01*
X0232577Y0222375D02*
X0392929Y0222375D01*
X0392929Y0223555D02*
X0231397Y0223555D01*
X0230218Y0224734D02*
X0392929Y0224734D01*
X0392929Y0225914D02*
X0229038Y0225914D01*
X0227859Y0227094D02*
X0392929Y0227094D01*
X0392929Y0228273D02*
X0226679Y0228273D01*
X0225499Y0229453D02*
X0392929Y0229453D01*
X0392929Y0230632D02*
X0224320Y0230632D01*
X0223140Y0231812D02*
X0392929Y0231812D01*
X0392929Y0232992D02*
X0004346Y0232992D01*
X0004346Y0234171D02*
X0392929Y0234171D01*
X0392929Y0235351D02*
X0004346Y0235351D01*
X0004346Y0236531D02*
X0392929Y0236531D01*
X0392929Y0237710D02*
X0387097Y0237710D01*
X0388695Y0238372D02*
X0391187Y0240864D01*
X0392535Y0244120D01*
X0392535Y0247644D01*
X0391187Y0250900D01*
X0388695Y0253392D01*
X0385439Y0254740D01*
X0381915Y0254740D01*
X0378659Y0253392D01*
X0376167Y0250900D01*
X0374819Y0247644D01*
X0374819Y0244120D01*
X0376167Y0240864D01*
X0378659Y0238372D01*
X0381915Y0237024D01*
X0385439Y0237024D01*
X0388695Y0238372D01*
X0389213Y0238890D02*
X0392929Y0238890D01*
X0392929Y0240069D02*
X0390392Y0240069D01*
X0391346Y0241249D02*
X0392929Y0241249D01*
X0392929Y0242429D02*
X0391835Y0242429D01*
X0392323Y0243608D02*
X0392929Y0243608D01*
X0392929Y0244788D02*
X0392535Y0244788D01*
X0392535Y0245967D02*
X0392929Y0245967D01*
X0392929Y0247147D02*
X0392535Y0247147D01*
X0392253Y0248327D02*
X0392929Y0248327D01*
X0392929Y0249506D02*
X0391764Y0249506D01*
X0391275Y0250686D02*
X0392929Y0250686D01*
X0392929Y0251866D02*
X0390221Y0251866D01*
X0389041Y0253045D02*
X0392929Y0253045D01*
X0392929Y0254225D02*
X0386684Y0254225D01*
X0380671Y0254225D02*
X0016605Y0254225D01*
X0015360Y0254740D02*
X0018616Y0253392D01*
X0021108Y0250900D01*
X0022457Y0247644D01*
X0022457Y0244120D01*
X0021108Y0240864D01*
X0018616Y0238372D01*
X0015360Y0237024D01*
X0011836Y0237024D01*
X0008581Y0238372D01*
X0006089Y0240864D01*
X0004740Y0244120D01*
X0004740Y0247644D01*
X0006089Y0250900D01*
X0008581Y0253392D01*
X0011836Y0254740D01*
X0015360Y0254740D01*
X0018963Y0253045D02*
X0378313Y0253045D01*
X0377133Y0251866D02*
X0020142Y0251866D01*
X0021197Y0250686D02*
X0376079Y0250686D01*
X0375590Y0249506D02*
X0021685Y0249506D01*
X0022174Y0248327D02*
X0375102Y0248327D01*
X0374819Y0247147D02*
X0022457Y0247147D01*
X0022457Y0245967D02*
X0374819Y0245967D01*
X0374819Y0244788D02*
X0022457Y0244788D01*
X0022245Y0243608D02*
X0375031Y0243608D01*
X0375519Y0242429D02*
X0021756Y0242429D01*
X0021268Y0241249D02*
X0376008Y0241249D01*
X0376962Y0240069D02*
X0020313Y0240069D01*
X0019134Y0238890D02*
X0378142Y0238890D01*
X0380258Y0237710D02*
X0017018Y0237710D01*
X0010179Y0237710D02*
X0004346Y0237710D01*
X0004346Y0238890D02*
X0008063Y0238890D01*
X0006883Y0240069D02*
X0004346Y0240069D01*
X0004346Y0241249D02*
X0005929Y0241249D01*
X0005441Y0242429D02*
X0004346Y0242429D01*
X0004346Y0243608D02*
X0004952Y0243608D01*
X0004740Y0244788D02*
X0004346Y0244788D01*
X0004346Y0245967D02*
X0004740Y0245967D01*
X0004740Y0247147D02*
X0004346Y0247147D01*
X0004346Y0248327D02*
X0005023Y0248327D01*
X0005512Y0249506D02*
X0004346Y0249506D01*
X0004346Y0250686D02*
X0006000Y0250686D01*
X0007055Y0251866D02*
X0004346Y0251866D01*
X0004346Y0253045D02*
X0008234Y0253045D01*
X0010592Y0254225D02*
X0004346Y0254225D01*
X0004346Y0231812D02*
X0108372Y0231812D01*
X0107192Y0230632D02*
X0004346Y0230632D01*
X0004346Y0229453D02*
X0106012Y0229453D01*
X0104833Y0228273D02*
X0004346Y0228273D01*
X0004346Y0227094D02*
X0103653Y0227094D01*
X0102474Y0225914D02*
X0004346Y0225914D01*
X0004346Y0224734D02*
X0101294Y0224734D01*
X0100114Y0223555D02*
X0004346Y0223555D01*
X0004346Y0222375D02*
X0053832Y0222375D01*
X0053398Y0221196D02*
X0036978Y0221196D01*
X0038158Y0220016D02*
X0053398Y0220016D01*
X0053398Y0216477D02*
X0038005Y0216477D01*
X0036825Y0215297D02*
X0053398Y0215297D01*
X0053985Y0214118D02*
X0004346Y0214118D01*
X0004346Y0215297D02*
X0021868Y0215297D01*
X0022734Y0214431D02*
X0025959Y0214431D01*
X0028239Y0216711D01*
X0028239Y0219935D01*
X0025959Y0222215D01*
X0022734Y0222215D01*
X0020454Y0219935D01*
X0020454Y0216711D01*
X0022734Y0214431D01*
X0020688Y0216477D02*
X0004346Y0216477D01*
X0004346Y0217657D02*
X0020454Y0217657D01*
X0020454Y0218836D02*
X0004346Y0218836D01*
X0004346Y0220016D02*
X0020535Y0220016D01*
X0021715Y0221196D02*
X0004346Y0221196D01*
X0026978Y0221196D02*
X0031715Y0221196D01*
X0030535Y0220016D02*
X0028158Y0220016D01*
X0028239Y0218836D02*
X0030454Y0218836D01*
X0030454Y0217657D02*
X0028239Y0217657D01*
X0028005Y0216477D02*
X0030688Y0216477D01*
X0031868Y0215297D02*
X0026825Y0215297D01*
X0034346Y0218323D02*
X0057890Y0218323D01*
X0106049Y0224734D02*
X0225463Y0224734D01*
X0224283Y0225914D02*
X0107228Y0225914D01*
X0108408Y0227094D02*
X0223104Y0227094D01*
X0221924Y0228273D02*
X0109588Y0228273D01*
X0109058Y0222375D02*
X0114990Y0222375D01*
X0114400Y0222131D02*
X0113137Y0220867D01*
X0112453Y0219216D01*
X0112453Y0217429D01*
X0113137Y0215778D01*
X0114400Y0214515D01*
X0116051Y0213831D01*
X0117838Y0213831D01*
X0119489Y0214515D01*
X0120753Y0215778D01*
X0121437Y0217429D01*
X0121437Y0219216D01*
X0120753Y0220867D01*
X0119489Y0222131D01*
X0117838Y0222815D01*
X0116051Y0222815D01*
X0114400Y0222131D01*
X0113465Y0221196D02*
X0110582Y0221196D01*
X0111263Y0220016D02*
X0112784Y0220016D01*
X0112453Y0218836D02*
X0111594Y0218836D01*
X0111594Y0217657D02*
X0112453Y0217657D01*
X0112847Y0216477D02*
X0111200Y0216477D01*
X0110430Y0215297D02*
X0113617Y0215297D01*
X0115358Y0214118D02*
X0108689Y0214118D01*
X0118532Y0214118D02*
X0125201Y0214118D01*
X0125894Y0213831D02*
X0127681Y0213831D01*
X0129332Y0214515D01*
X0130596Y0215778D01*
X0131280Y0217429D01*
X0131280Y0219216D01*
X0130596Y0220867D01*
X0129332Y0222131D01*
X0127681Y0222815D01*
X0125894Y0222815D01*
X0124243Y0222131D01*
X0122979Y0220867D01*
X0122295Y0219216D01*
X0122295Y0217429D01*
X0122979Y0215778D01*
X0124243Y0214515D01*
X0125894Y0213831D01*
X0128374Y0214118D02*
X0135043Y0214118D01*
X0135736Y0213831D02*
X0134085Y0214515D01*
X0132822Y0215778D01*
X0132138Y0217429D01*
X0132138Y0219216D01*
X0132822Y0220867D01*
X0134085Y0222131D01*
X0135736Y0222815D01*
X0137523Y0222815D01*
X0139174Y0222131D01*
X0140438Y0220867D01*
X0141122Y0219216D01*
X0141122Y0217429D01*
X0140438Y0215778D01*
X0139174Y0214515D01*
X0137523Y0213831D01*
X0135736Y0213831D01*
X0138217Y0214118D02*
X0144886Y0214118D01*
X0145579Y0213831D02*
X0147366Y0213831D01*
X0149017Y0214515D01*
X0150281Y0215778D01*
X0150965Y0217429D01*
X0150965Y0219216D01*
X0150281Y0220867D01*
X0149017Y0222131D01*
X0147366Y0222815D01*
X0145579Y0222815D01*
X0143928Y0222131D01*
X0142664Y0220867D01*
X0141980Y0219216D01*
X0141980Y0217429D01*
X0142664Y0215778D01*
X0143928Y0214515D01*
X0145579Y0213831D01*
X0148059Y0214118D02*
X0154456Y0214118D01*
X0154553Y0214069D02*
X0155240Y0213845D01*
X0155905Y0213740D01*
X0155905Y0217913D01*
X0151732Y0217913D01*
X0151837Y0217248D01*
X0152061Y0216561D01*
X0152389Y0215917D01*
X0152813Y0215332D01*
X0153324Y0214821D01*
X0153909Y0214397D01*
X0154553Y0214069D01*
X0155905Y0214118D02*
X0156724Y0214118D01*
X0156724Y0213740D02*
X0157390Y0213845D01*
X0158077Y0214069D01*
X0158721Y0214397D01*
X0159305Y0214821D01*
X0159816Y0215332D01*
X0160241Y0215917D01*
X0160569Y0216561D01*
X0160792Y0217248D01*
X0160898Y0217913D01*
X0156724Y0217913D01*
X0156724Y0213740D01*
X0158174Y0214118D02*
X0164571Y0214118D01*
X0162830Y0215297D02*
X0159782Y0215297D01*
X0160527Y0216477D02*
X0162060Y0216477D01*
X0161665Y0217657D02*
X0160857Y0217657D01*
X0160898Y0218732D02*
X0156724Y0218732D01*
X0155905Y0218732D01*
X0155905Y0217913D01*
X0156724Y0217913D01*
X0156724Y0218732D01*
X0156724Y0222906D01*
X0157390Y0222800D01*
X0158077Y0222577D01*
X0158721Y0222249D01*
X0159305Y0221824D01*
X0159816Y0221313D01*
X0160241Y0220729D01*
X0160569Y0220085D01*
X0160792Y0219398D01*
X0160898Y0218732D01*
X0160881Y0218836D02*
X0161665Y0218836D01*
X0161997Y0220016D02*
X0160592Y0220016D01*
X0159902Y0221196D02*
X0162677Y0221196D01*
X0164202Y0222375D02*
X0158473Y0222375D01*
X0156724Y0222375D02*
X0155905Y0222375D01*
X0155905Y0222906D02*
X0155240Y0222800D01*
X0154553Y0222577D01*
X0153909Y0222249D01*
X0153324Y0221824D01*
X0152813Y0221313D01*
X0152389Y0220729D01*
X0152061Y0220085D01*
X0151837Y0219398D01*
X0151732Y0218732D01*
X0155905Y0218732D01*
X0155905Y0222906D01*
X0155905Y0221196D02*
X0156724Y0221196D01*
X0156724Y0220016D02*
X0155905Y0220016D01*
X0155905Y0218836D02*
X0156724Y0218836D01*
X0156724Y0217657D02*
X0155905Y0217657D01*
X0155905Y0216477D02*
X0156724Y0216477D01*
X0156724Y0215297D02*
X0155905Y0215297D01*
X0152848Y0215297D02*
X0149800Y0215297D01*
X0150570Y0216477D02*
X0152103Y0216477D01*
X0151773Y0217657D02*
X0150965Y0217657D01*
X0150965Y0218836D02*
X0151749Y0218836D01*
X0152038Y0220016D02*
X0150633Y0220016D01*
X0149953Y0221196D02*
X0152728Y0221196D01*
X0154157Y0222375D02*
X0148428Y0222375D01*
X0144517Y0222375D02*
X0138585Y0222375D01*
X0140110Y0221196D02*
X0142992Y0221196D01*
X0142312Y0220016D02*
X0140791Y0220016D01*
X0141122Y0218836D02*
X0141980Y0218836D01*
X0141980Y0217657D02*
X0141122Y0217657D01*
X0140728Y0216477D02*
X0142375Y0216477D01*
X0143145Y0215297D02*
X0139957Y0215297D01*
X0133302Y0215297D02*
X0130115Y0215297D01*
X0130885Y0216477D02*
X0132532Y0216477D01*
X0132138Y0217657D02*
X0131280Y0217657D01*
X0131280Y0218836D02*
X0132138Y0218836D01*
X0132469Y0220016D02*
X0130948Y0220016D01*
X0130267Y0221196D02*
X0133150Y0221196D01*
X0134675Y0222375D02*
X0128743Y0222375D01*
X0124832Y0222375D02*
X0118900Y0222375D01*
X0120425Y0221196D02*
X0123307Y0221196D01*
X0122626Y0220016D02*
X0121106Y0220016D01*
X0121437Y0218836D02*
X0122295Y0218836D01*
X0122295Y0217657D02*
X0121437Y0217657D01*
X0121043Y0216477D02*
X0122690Y0216477D01*
X0123460Y0215297D02*
X0120272Y0215297D01*
X0141068Y0185807D02*
X0211430Y0185807D01*
X0210250Y0184628D02*
X0142396Y0184628D01*
X0139583Y0182890D02*
X0180787Y0182890D01*
X0182890Y0182890D01*
X0182313Y0181089D02*
X0142369Y0181089D01*
X0140915Y0179909D02*
X0183493Y0179909D01*
X0164382Y0163394D02*
X0158327Y0163394D01*
X0158077Y0163522D02*
X0158721Y0163194D01*
X0159305Y0162769D01*
X0159816Y0162258D01*
X0160241Y0161674D01*
X0160569Y0161030D01*
X0160792Y0160343D01*
X0160898Y0159677D01*
X0156724Y0159677D01*
X0155905Y0159677D01*
X0155905Y0158858D01*
X0151732Y0158858D01*
X0151837Y0158193D01*
X0152061Y0157506D01*
X0152389Y0156862D01*
X0152813Y0156277D01*
X0153324Y0155766D01*
X0153909Y0155342D01*
X0154553Y0155013D01*
X0155240Y0154790D01*
X0155905Y0154685D01*
X0155905Y0158858D01*
X0156724Y0158858D01*
X0156724Y0154685D01*
X0157390Y0154790D01*
X0158077Y0155013D01*
X0158721Y0155342D01*
X0159305Y0155766D01*
X0159816Y0156277D01*
X0160241Y0156862D01*
X0160569Y0157506D01*
X0160792Y0158193D01*
X0160898Y0158858D01*
X0156724Y0158858D01*
X0156724Y0159677D01*
X0156724Y0163851D01*
X0157390Y0163745D01*
X0158077Y0163522D01*
X0156724Y0163394D02*
X0155905Y0163394D01*
X0155905Y0163851D02*
X0155905Y0159677D01*
X0151732Y0159677D01*
X0151837Y0160343D01*
X0152061Y0161030D01*
X0152389Y0161674D01*
X0152813Y0162258D01*
X0153324Y0162769D01*
X0153909Y0163194D01*
X0154553Y0163522D01*
X0155240Y0163745D01*
X0155905Y0163851D01*
X0155905Y0162215D02*
X0156724Y0162215D01*
X0156724Y0161035D02*
X0155905Y0161035D01*
X0155905Y0159856D02*
X0156724Y0159856D01*
X0156724Y0158676D02*
X0155905Y0158676D01*
X0155905Y0157496D02*
X0156724Y0157496D01*
X0156724Y0156317D02*
X0155905Y0156317D01*
X0155905Y0155137D02*
X0156724Y0155137D01*
X0158320Y0155137D02*
X0164391Y0155137D01*
X0162756Y0156317D02*
X0159845Y0156317D01*
X0160565Y0157496D02*
X0162029Y0157496D01*
X0161665Y0158676D02*
X0160869Y0158676D01*
X0160870Y0159856D02*
X0161665Y0159856D01*
X0162027Y0161035D02*
X0160566Y0161035D01*
X0159848Y0162215D02*
X0162752Y0162215D01*
X0154303Y0163394D02*
X0148248Y0163394D01*
X0149017Y0163076D02*
X0147366Y0163760D01*
X0145579Y0163760D01*
X0143928Y0163076D01*
X0142664Y0161812D01*
X0141980Y0160161D01*
X0141980Y0158374D01*
X0142664Y0156723D01*
X0143928Y0155459D01*
X0145579Y0154776D01*
X0147366Y0154776D01*
X0149017Y0155459D01*
X0150281Y0156723D01*
X0150965Y0158374D01*
X0150965Y0160161D01*
X0150281Y0161812D01*
X0149017Y0163076D01*
X0149878Y0162215D02*
X0152782Y0162215D01*
X0152063Y0161035D02*
X0150603Y0161035D01*
X0150965Y0159856D02*
X0151760Y0159856D01*
X0151761Y0158676D02*
X0150965Y0158676D01*
X0150601Y0157496D02*
X0152065Y0157496D01*
X0152785Y0156317D02*
X0149874Y0156317D01*
X0148239Y0155137D02*
X0154310Y0155137D01*
X0144706Y0155137D02*
X0138396Y0155137D01*
X0139174Y0155459D02*
X0137523Y0154776D01*
X0135736Y0154776D01*
X0134085Y0155459D01*
X0132822Y0156723D01*
X0132138Y0158374D01*
X0132138Y0160161D01*
X0132822Y0161812D01*
X0134085Y0163076D01*
X0135736Y0163760D01*
X0137523Y0163760D01*
X0139174Y0163076D01*
X0140438Y0161812D01*
X0141122Y0160161D01*
X0141122Y0158374D01*
X0140438Y0156723D01*
X0139174Y0155459D01*
X0140032Y0156317D02*
X0143071Y0156317D01*
X0142344Y0157496D02*
X0140758Y0157496D01*
X0141122Y0158676D02*
X0141980Y0158676D01*
X0141980Y0159856D02*
X0141122Y0159856D01*
X0140760Y0161035D02*
X0142342Y0161035D01*
X0143067Y0162215D02*
X0140036Y0162215D01*
X0138406Y0163394D02*
X0144697Y0163394D01*
X0134854Y0163394D02*
X0128563Y0163394D01*
X0129332Y0163076D02*
X0127681Y0163760D01*
X0125894Y0163760D01*
X0124243Y0163076D01*
X0122979Y0161812D01*
X0122295Y0160161D01*
X0122295Y0158374D01*
X0122979Y0156723D01*
X0124243Y0155459D01*
X0125894Y0154776D01*
X0127681Y0154776D01*
X0129332Y0155459D01*
X0130596Y0156723D01*
X0131280Y0158374D01*
X0131280Y0160161D01*
X0130596Y0161812D01*
X0129332Y0163076D01*
X0130193Y0162215D02*
X0133224Y0162215D01*
X0132500Y0161035D02*
X0130917Y0161035D01*
X0131280Y0159856D02*
X0132138Y0159856D01*
X0132138Y0158676D02*
X0131280Y0158676D01*
X0130916Y0157496D02*
X0132501Y0157496D01*
X0133228Y0156317D02*
X0130189Y0156317D01*
X0128554Y0155137D02*
X0134863Y0155137D01*
X0125021Y0155137D02*
X0118711Y0155137D01*
X0119489Y0155459D02*
X0117838Y0154776D01*
X0116051Y0154776D01*
X0114400Y0155459D01*
X0113137Y0156723D01*
X0112453Y0158374D01*
X0112453Y0160161D01*
X0113137Y0161812D01*
X0114400Y0163076D01*
X0116051Y0163760D01*
X0117838Y0163760D01*
X0119489Y0163076D01*
X0120753Y0161812D01*
X0121437Y0160161D01*
X0121437Y0158374D01*
X0120753Y0156723D01*
X0119489Y0155459D01*
X0120347Y0156317D02*
X0123385Y0156317D01*
X0122659Y0157496D02*
X0121073Y0157496D01*
X0121437Y0158676D02*
X0122295Y0158676D01*
X0122295Y0159856D02*
X0121437Y0159856D01*
X0121075Y0161035D02*
X0122657Y0161035D01*
X0123382Y0162215D02*
X0120351Y0162215D01*
X0118720Y0163394D02*
X0125012Y0163394D01*
X0115169Y0163394D02*
X0108878Y0163394D01*
X0109647Y0163076D02*
X0107996Y0163760D01*
X0106209Y0163760D01*
X0104558Y0163076D01*
X0103294Y0161812D01*
X0102610Y0160161D01*
X0102610Y0158374D01*
X0103294Y0156723D01*
X0104558Y0155459D01*
X0106209Y0154776D01*
X0107996Y0154776D01*
X0109647Y0155459D01*
X0110911Y0156723D01*
X0111594Y0158374D01*
X0111594Y0160161D01*
X0110911Y0161812D01*
X0109647Y0163076D01*
X0110508Y0162215D02*
X0113539Y0162215D01*
X0112815Y0161035D02*
X0111232Y0161035D01*
X0111594Y0159856D02*
X0112453Y0159856D01*
X0112453Y0158676D02*
X0111594Y0158676D01*
X0111231Y0157496D02*
X0112816Y0157496D01*
X0113543Y0156317D02*
X0110504Y0156317D01*
X0108869Y0155137D02*
X0115178Y0155137D01*
X0105336Y0155137D02*
X0099026Y0155137D01*
X0099804Y0155459D02*
X0098153Y0154776D01*
X0096366Y0154776D01*
X0094715Y0155459D01*
X0093452Y0156723D01*
X0092768Y0158374D01*
X0092768Y0160161D01*
X0093452Y0161812D01*
X0094715Y0163076D01*
X0096366Y0163760D01*
X0098153Y0163760D01*
X0099804Y0163076D01*
X0101068Y0161812D01*
X0101752Y0160161D01*
X0101752Y0158374D01*
X0101068Y0156723D01*
X0099804Y0155459D01*
X0100662Y0156317D02*
X0103700Y0156317D01*
X0102974Y0157496D02*
X0101388Y0157496D01*
X0101752Y0158676D02*
X0102610Y0158676D01*
X0102610Y0159856D02*
X0101752Y0159856D01*
X0101390Y0161035D02*
X0102972Y0161035D01*
X0103697Y0162215D02*
X0100666Y0162215D01*
X0099035Y0163394D02*
X0105327Y0163394D01*
X0095484Y0163394D02*
X0089193Y0163394D01*
X0089962Y0163076D02*
X0088311Y0163760D01*
X0086524Y0163760D01*
X0084873Y0163076D01*
X0083609Y0161812D01*
X0082925Y0160161D01*
X0082925Y0158374D01*
X0083609Y0156723D01*
X0084873Y0155459D01*
X0086524Y0154776D01*
X0088311Y0154776D01*
X0089962Y0155459D01*
X0091226Y0156723D01*
X0091909Y0158374D01*
X0091909Y0160161D01*
X0091226Y0161812D01*
X0089962Y0163076D01*
X0090823Y0162215D02*
X0093854Y0162215D01*
X0093130Y0161035D02*
X0091547Y0161035D01*
X0091909Y0159856D02*
X0092768Y0159856D01*
X0092768Y0158676D02*
X0091909Y0158676D01*
X0091546Y0157496D02*
X0093131Y0157496D01*
X0093858Y0156317D02*
X0090819Y0156317D01*
X0089184Y0155137D02*
X0095493Y0155137D01*
X0085651Y0155137D02*
X0079580Y0155137D01*
X0081105Y0156317D02*
X0084015Y0156317D01*
X0083289Y0157496D02*
X0081824Y0157496D01*
X0082129Y0158676D02*
X0082925Y0158676D01*
X0082925Y0159856D02*
X0082129Y0159856D01*
X0081826Y0161035D02*
X0083287Y0161035D01*
X0084012Y0162215D02*
X0081108Y0162215D01*
X0079587Y0163394D02*
X0085642Y0163394D01*
X0065957Y0163394D02*
X0061873Y0163394D01*
X0061508Y0163760D02*
X0062382Y0162886D01*
X0062382Y0155650D01*
X0061508Y0154776D01*
X0054272Y0154776D01*
X0053398Y0155650D01*
X0053398Y0157587D01*
X0038170Y0157587D01*
X0035959Y0155376D01*
X0032734Y0155376D01*
X0030454Y0157656D01*
X0030454Y0160880D01*
X0032734Y0163160D01*
X0035959Y0163160D01*
X0038170Y0160949D01*
X0053398Y0160949D01*
X0053398Y0162886D01*
X0054272Y0163760D01*
X0061508Y0163760D01*
X0062382Y0162215D02*
X0064327Y0162215D01*
X0063602Y0161035D02*
X0062382Y0161035D01*
X0062382Y0159856D02*
X0063240Y0159856D01*
X0063240Y0158676D02*
X0062382Y0158676D01*
X0062382Y0157496D02*
X0063604Y0157496D01*
X0064330Y0156317D02*
X0062382Y0156317D01*
X0061869Y0155137D02*
X0065966Y0155137D01*
X0066051Y0153958D02*
X0004346Y0153958D01*
X0004346Y0155137D02*
X0053910Y0155137D01*
X0053398Y0156317D02*
X0036900Y0156317D01*
X0038079Y0157496D02*
X0053398Y0157496D01*
X0057890Y0159268D02*
X0034346Y0159268D01*
X0031789Y0162215D02*
X0026904Y0162215D01*
X0025959Y0163160D02*
X0022734Y0163160D01*
X0020454Y0160880D01*
X0020454Y0157656D01*
X0022734Y0155376D01*
X0025959Y0155376D01*
X0028239Y0157656D01*
X0028239Y0160880D01*
X0025959Y0163160D01*
X0028083Y0161035D02*
X0030610Y0161035D01*
X0030454Y0159856D02*
X0028239Y0159856D01*
X0028239Y0158676D02*
X0030454Y0158676D01*
X0030613Y0157496D02*
X0028079Y0157496D01*
X0026900Y0156317D02*
X0031793Y0156317D01*
X0036904Y0162215D02*
X0053398Y0162215D01*
X0053398Y0161035D02*
X0038083Y0161035D01*
X0053906Y0163394D02*
X0004346Y0163394D01*
X0004346Y0162215D02*
X0021789Y0162215D01*
X0020610Y0161035D02*
X0004346Y0161035D01*
X0004346Y0159856D02*
X0020454Y0159856D01*
X0020454Y0158676D02*
X0004346Y0158676D01*
X0004346Y0157496D02*
X0020613Y0157496D01*
X0021793Y0156317D02*
X0004346Y0156317D01*
X0004346Y0152778D02*
X0066051Y0152778D01*
X0066051Y0151598D02*
X0004346Y0151598D01*
X0004346Y0150419D02*
X0066051Y0150419D01*
X0066051Y0149239D02*
X0004346Y0149239D01*
X0004346Y0148059D02*
X0066051Y0148059D01*
X0066051Y0146880D02*
X0004346Y0146880D01*
X0004346Y0145700D02*
X0066051Y0145700D01*
X0066051Y0144521D02*
X0004346Y0144521D01*
X0004346Y0143341D02*
X0066051Y0143341D01*
X0066051Y0142161D02*
X0004346Y0142161D01*
X0004346Y0140982D02*
X0066908Y0140982D01*
X0068088Y0139802D02*
X0004346Y0139802D01*
X0004346Y0138623D02*
X0069268Y0138623D01*
X0070447Y0137443D02*
X0004346Y0137443D01*
X0004346Y0136263D02*
X0071627Y0136263D01*
X0072807Y0135084D02*
X0004346Y0135084D01*
X0004346Y0133904D02*
X0073986Y0133904D01*
X0075166Y0132725D02*
X0004346Y0132725D01*
X0004346Y0131545D02*
X0076345Y0131545D01*
X0077525Y0130365D02*
X0004346Y0130365D01*
X0004346Y0129186D02*
X0078705Y0129186D01*
X0079884Y0128006D02*
X0004346Y0128006D01*
X0004346Y0126826D02*
X0081064Y0126826D01*
X0082243Y0125647D02*
X0004346Y0125647D01*
X0004346Y0124467D02*
X0083423Y0124467D01*
X0085819Y0126826D02*
X0182076Y0126826D01*
X0182041Y0123288D02*
X0004346Y0123288D01*
X0004346Y0122108D02*
X0183350Y0122108D01*
X0208600Y0075420D02*
X0207682Y0074502D01*
X0207491Y0074042D01*
X0206799Y0073350D01*
X0195973Y0062524D01*
X0086721Y0062524D01*
X0085736Y0061539D01*
X0069489Y0045292D01*
X0068626Y0045650D01*
X0066839Y0045650D01*
X0065188Y0044966D01*
X0063924Y0043702D01*
X0063240Y0042051D01*
X0063240Y0040264D01*
X0063924Y0038613D01*
X0065188Y0037349D01*
X0066839Y0036665D01*
X0068626Y0036665D01*
X0070277Y0037349D01*
X0071541Y0038613D01*
X0072224Y0040264D01*
X0072224Y0042051D01*
X0071867Y0042915D01*
X0088114Y0059161D01*
X0197366Y0059161D01*
X0208345Y0070141D01*
X0208600Y0069887D01*
X0209800Y0069390D01*
X0211098Y0069390D01*
X0212298Y0069887D01*
X0213216Y0070805D01*
X0213713Y0072004D01*
X0213713Y0073303D01*
X0213216Y0074502D01*
X0212298Y0075420D01*
X0211098Y0075917D01*
X0209800Y0075917D01*
X0208600Y0075420D01*
X0208103Y0074923D02*
X0004346Y0074923D01*
X0004346Y0073744D02*
X0207193Y0073744D01*
X0206014Y0072564D02*
X0004346Y0072564D01*
X0004346Y0071385D02*
X0204834Y0071385D01*
X0203654Y0070205D02*
X0004346Y0070205D01*
X0004346Y0069025D02*
X0202475Y0069025D01*
X0201295Y0067846D02*
X0004346Y0067846D01*
X0004346Y0066666D02*
X0200115Y0066666D01*
X0198936Y0065487D02*
X0004346Y0065487D01*
X0004346Y0064307D02*
X0197756Y0064307D01*
X0196577Y0063127D02*
X0004346Y0063127D01*
X0004346Y0061948D02*
X0086145Y0061948D01*
X0084965Y0060768D02*
X0004346Y0060768D01*
X0004346Y0059588D02*
X0083786Y0059588D01*
X0082606Y0058409D02*
X0004346Y0058409D01*
X0004346Y0057229D02*
X0081427Y0057229D01*
X0080247Y0056050D02*
X0004346Y0056050D01*
X0004346Y0054870D02*
X0079067Y0054870D01*
X0077888Y0053690D02*
X0004346Y0053690D01*
X0004346Y0052511D02*
X0076708Y0052511D01*
X0075529Y0051331D02*
X0004346Y0051331D01*
X0004346Y0050152D02*
X0074349Y0050152D01*
X0073169Y0048972D02*
X0004346Y0048972D01*
X0004346Y0047792D02*
X0071990Y0047792D01*
X0070810Y0046613D02*
X0004346Y0046613D01*
X0004346Y0045433D02*
X0054055Y0045433D01*
X0054272Y0045650D02*
X0053398Y0044776D01*
X0053398Y0042839D01*
X0038170Y0042839D01*
X0035959Y0045050D01*
X0032734Y0045050D01*
X0030454Y0042770D01*
X0030454Y0039545D01*
X0032734Y0037265D01*
X0035959Y0037265D01*
X0038170Y0039476D01*
X0053398Y0039476D01*
X0053398Y0037539D01*
X0054272Y0036665D01*
X0061508Y0036665D01*
X0062382Y0037539D01*
X0062382Y0044776D01*
X0061508Y0045650D01*
X0054272Y0045650D01*
X0053398Y0044253D02*
X0036755Y0044253D01*
X0037934Y0043074D02*
X0053398Y0043074D01*
X0057890Y0041157D02*
X0034346Y0041157D01*
X0031644Y0038355D02*
X0027049Y0038355D01*
X0025959Y0037265D02*
X0028239Y0039545D01*
X0028239Y0042770D01*
X0025959Y0045050D01*
X0022734Y0045050D01*
X0020454Y0042770D01*
X0020454Y0039545D01*
X0022734Y0037265D01*
X0025959Y0037265D01*
X0028228Y0039535D02*
X0030465Y0039535D01*
X0030454Y0040715D02*
X0028239Y0040715D01*
X0028239Y0041894D02*
X0030454Y0041894D01*
X0030759Y0043074D02*
X0027934Y0043074D01*
X0026755Y0044253D02*
X0031938Y0044253D01*
X0037049Y0038355D02*
X0053398Y0038355D01*
X0053761Y0037176D02*
X0004346Y0037176D01*
X0004346Y0038355D02*
X0021644Y0038355D01*
X0020465Y0039535D02*
X0004346Y0039535D01*
X0004346Y0040715D02*
X0020454Y0040715D01*
X0020454Y0041894D02*
X0004346Y0041894D01*
X0004346Y0043074D02*
X0020759Y0043074D01*
X0021938Y0044253D02*
X0004346Y0044253D01*
X0004346Y0076103D02*
X0271551Y0076103D01*
X0272731Y0074923D02*
X0212795Y0074923D01*
X0213530Y0073744D02*
X0273910Y0073744D01*
X0275090Y0072564D02*
X0213713Y0072564D01*
X0213456Y0071385D02*
X0276269Y0071385D01*
X0277449Y0070205D02*
X0212616Y0070205D01*
X0210449Y0072654D02*
X0208480Y0072654D01*
X0196669Y0060843D01*
X0087417Y0060843D01*
X0067732Y0041157D01*
X0071922Y0039535D02*
X0073275Y0039535D01*
X0073321Y0039395D02*
X0073649Y0038752D01*
X0074073Y0038167D01*
X0074584Y0037656D01*
X0075169Y0037231D01*
X0075813Y0036903D01*
X0076500Y0036680D01*
X0077165Y0036575D01*
X0077165Y0040748D01*
X0072992Y0040748D01*
X0073097Y0040083D01*
X0073321Y0039395D01*
X0073936Y0038355D02*
X0071283Y0038355D01*
X0069858Y0037176D02*
X0075278Y0037176D01*
X0077165Y0037176D02*
X0077984Y0037176D01*
X0077984Y0036575D02*
X0078650Y0036680D01*
X0079337Y0036903D01*
X0079981Y0037231D01*
X0080565Y0037656D01*
X0081076Y0038167D01*
X0081501Y0038752D01*
X0081829Y0039395D01*
X0082052Y0040083D01*
X0082158Y0040748D01*
X0077984Y0040748D01*
X0077984Y0036575D01*
X0077984Y0038355D02*
X0077165Y0038355D01*
X0077165Y0039535D02*
X0077984Y0039535D01*
X0077984Y0040715D02*
X0077165Y0040715D01*
X0077165Y0040748D02*
X0077984Y0040748D01*
X0077984Y0041567D01*
X0077165Y0041567D01*
X0077165Y0040748D01*
X0077165Y0041567D02*
X0072992Y0041567D01*
X0073097Y0042232D01*
X0073321Y0042920D01*
X0073649Y0043563D01*
X0074073Y0044148D01*
X0074584Y0044659D01*
X0075169Y0045084D01*
X0075813Y0045412D01*
X0076500Y0045635D01*
X0077165Y0045740D01*
X0077165Y0041567D01*
X0077165Y0041894D02*
X0077984Y0041894D01*
X0077984Y0041567D02*
X0077984Y0045740D01*
X0078650Y0045635D01*
X0079337Y0045412D01*
X0079981Y0045084D01*
X0080565Y0044659D01*
X0081076Y0044148D01*
X0081501Y0043563D01*
X0081829Y0042920D01*
X0082052Y0042232D01*
X0082158Y0041567D01*
X0077984Y0041567D01*
X0077984Y0043074D02*
X0077165Y0043074D01*
X0077165Y0044253D02*
X0077984Y0044253D01*
X0077984Y0045433D02*
X0077165Y0045433D01*
X0075879Y0045433D02*
X0074385Y0045433D01*
X0074179Y0044253D02*
X0073206Y0044253D01*
X0073399Y0043074D02*
X0072026Y0043074D01*
X0072224Y0041894D02*
X0073044Y0041894D01*
X0072997Y0040715D02*
X0072224Y0040715D01*
X0069630Y0045433D02*
X0069148Y0045433D01*
X0066316Y0045433D02*
X0061724Y0045433D01*
X0062382Y0044253D02*
X0064475Y0044253D01*
X0063664Y0043074D02*
X0062382Y0043074D01*
X0062382Y0041894D02*
X0063240Y0041894D01*
X0063240Y0040715D02*
X0062382Y0040715D01*
X0062382Y0039535D02*
X0063542Y0039535D01*
X0064182Y0038355D02*
X0062382Y0038355D01*
X0062018Y0037176D02*
X0065606Y0037176D01*
X0075565Y0046613D02*
X0100338Y0046613D01*
X0101517Y0047792D02*
X0076745Y0047792D01*
X0077924Y0048972D02*
X0102697Y0048972D01*
X0103877Y0050152D02*
X0079104Y0050152D01*
X0080283Y0051331D02*
X0355647Y0051331D01*
X0356826Y0052511D02*
X0081463Y0052511D01*
X0082643Y0053690D02*
X0358006Y0053690D01*
X0359186Y0054870D02*
X0083822Y0054870D01*
X0085002Y0056050D02*
X0360365Y0056050D01*
X0361545Y0057229D02*
X0086181Y0057229D01*
X0087361Y0058409D02*
X0362724Y0058409D01*
X0363904Y0059588D02*
X0197793Y0059588D01*
X0198972Y0060768D02*
X0365084Y0060768D01*
X0366263Y0061948D02*
X0200152Y0061948D01*
X0201332Y0063127D02*
X0284527Y0063127D01*
X0283347Y0064307D02*
X0202511Y0064307D01*
X0203691Y0065487D02*
X0282168Y0065487D01*
X0280988Y0066666D02*
X0204870Y0066666D01*
X0206050Y0067846D02*
X0279808Y0067846D01*
X0278629Y0069025D02*
X0207230Y0069025D01*
X0164741Y0045433D02*
X0158011Y0045433D01*
X0158077Y0045412D02*
X0157390Y0045635D01*
X0156724Y0045740D01*
X0156724Y0041567D01*
X0155905Y0041567D01*
X0155905Y0040748D01*
X0151732Y0040748D01*
X0151837Y0040083D01*
X0152061Y0039395D01*
X0152389Y0038752D01*
X0152813Y0038167D01*
X0153324Y0037656D01*
X0153909Y0037231D01*
X0154553Y0036903D01*
X0155240Y0036680D01*
X0155905Y0036575D01*
X0155905Y0040748D01*
X0156724Y0040748D01*
X0156724Y0036575D01*
X0157390Y0036680D01*
X0158077Y0036903D01*
X0158721Y0037231D01*
X0159305Y0037656D01*
X0159816Y0038167D01*
X0160241Y0038752D01*
X0160569Y0039395D01*
X0160792Y0040083D01*
X0160898Y0040748D01*
X0156724Y0040748D01*
X0156724Y0041567D01*
X0160898Y0041567D01*
X0160792Y0042232D01*
X0160569Y0042920D01*
X0160241Y0043563D01*
X0159816Y0044148D01*
X0159305Y0044659D01*
X0158721Y0045084D01*
X0158077Y0045412D01*
X0156724Y0045433D02*
X0155905Y0045433D01*
X0155905Y0045740D02*
X0155240Y0045635D01*
X0154553Y0045412D01*
X0153909Y0045084D01*
X0153324Y0044659D01*
X0152813Y0044148D01*
X0152389Y0043563D01*
X0152061Y0042920D01*
X0151837Y0042232D01*
X0151732Y0041567D01*
X0155905Y0041567D01*
X0155905Y0045740D01*
X0154619Y0045433D02*
X0147889Y0045433D01*
X0147366Y0045650D02*
X0145579Y0045650D01*
X0143928Y0044966D01*
X0142664Y0043702D01*
X0141980Y0042051D01*
X0141980Y0040264D01*
X0142664Y0038613D01*
X0143928Y0037349D01*
X0145579Y0036665D01*
X0147366Y0036665D01*
X0149017Y0037349D01*
X0150281Y0038613D01*
X0150965Y0040264D01*
X0150965Y0042051D01*
X0150281Y0043702D01*
X0149017Y0044966D01*
X0147366Y0045650D01*
X0145056Y0045433D02*
X0138046Y0045433D01*
X0137523Y0045650D02*
X0135736Y0045650D01*
X0134085Y0044966D01*
X0132822Y0043702D01*
X0132138Y0042051D01*
X0132138Y0040264D01*
X0132822Y0038613D01*
X0134085Y0037349D01*
X0135736Y0036665D01*
X0137523Y0036665D01*
X0139174Y0037349D01*
X0140438Y0038613D01*
X0141122Y0040264D01*
X0141122Y0042051D01*
X0140438Y0043702D01*
X0139174Y0044966D01*
X0137523Y0045650D01*
X0135214Y0045433D02*
X0128204Y0045433D01*
X0127681Y0045650D02*
X0125894Y0045650D01*
X0124243Y0044966D01*
X0122979Y0043702D01*
X0122295Y0042051D01*
X0122295Y0040264D01*
X0122979Y0038613D01*
X0124243Y0037349D01*
X0125894Y0036665D01*
X0127681Y0036665D01*
X0129332Y0037349D01*
X0130596Y0038613D01*
X0131280Y0040264D01*
X0131280Y0042051D01*
X0130596Y0043702D01*
X0129332Y0044966D01*
X0127681Y0045650D01*
X0125371Y0045433D02*
X0118361Y0045433D01*
X0120202Y0044253D02*
X0123531Y0044253D01*
X0122719Y0043074D02*
X0121013Y0043074D01*
X0121437Y0041894D02*
X0122295Y0041894D01*
X0122295Y0040715D02*
X0121437Y0040715D01*
X0121135Y0039535D02*
X0122597Y0039535D01*
X0123237Y0038355D02*
X0120496Y0038355D01*
X0119071Y0037176D02*
X0124661Y0037176D01*
X0128913Y0037176D02*
X0134504Y0037176D01*
X0133079Y0038355D02*
X0130338Y0038355D01*
X0130978Y0039535D02*
X0132440Y0039535D01*
X0132138Y0040715D02*
X0131280Y0040715D01*
X0131280Y0041894D02*
X0132138Y0041894D01*
X0132561Y0043074D02*
X0130856Y0043074D01*
X0130044Y0044253D02*
X0133373Y0044253D01*
X0139887Y0044253D02*
X0143216Y0044253D01*
X0142404Y0043074D02*
X0140698Y0043074D01*
X0141122Y0041894D02*
X0141980Y0041894D01*
X0141980Y0040715D02*
X0141122Y0040715D01*
X0140820Y0039535D02*
X0142282Y0039535D01*
X0142922Y0038355D02*
X0140181Y0038355D01*
X0138756Y0037176D02*
X0144347Y0037176D01*
X0148598Y0037176D02*
X0154018Y0037176D01*
X0152677Y0038355D02*
X0150023Y0038355D01*
X0150663Y0039535D02*
X0152015Y0039535D01*
X0151737Y0040715D02*
X0150965Y0040715D01*
X0150965Y0041894D02*
X0151784Y0041894D01*
X0152139Y0043074D02*
X0150541Y0043074D01*
X0149729Y0044253D02*
X0152919Y0044253D01*
X0155905Y0044253D02*
X0156724Y0044253D01*
X0156724Y0043074D02*
X0155905Y0043074D01*
X0155905Y0041894D02*
X0156724Y0041894D01*
X0156724Y0040715D02*
X0155905Y0040715D01*
X0155905Y0039535D02*
X0156724Y0039535D01*
X0156724Y0038355D02*
X0155905Y0038355D01*
X0155905Y0037176D02*
X0156724Y0037176D01*
X0158612Y0037176D02*
X0164032Y0037176D01*
X0162607Y0038355D02*
X0159953Y0038355D01*
X0160615Y0039535D02*
X0161967Y0039535D01*
X0161665Y0040715D02*
X0160893Y0040715D01*
X0160846Y0041894D02*
X0161665Y0041894D01*
X0162089Y0043074D02*
X0160491Y0043074D01*
X0159711Y0044253D02*
X0162901Y0044253D01*
X0104740Y0048638D02*
X0097260Y0041157D01*
X0093070Y0039535D02*
X0091608Y0039535D01*
X0091909Y0040264D02*
X0091226Y0038613D01*
X0089962Y0037349D01*
X0088311Y0036665D01*
X0086524Y0036665D01*
X0084873Y0037349D01*
X0083609Y0038613D01*
X0082925Y0040264D01*
X0082925Y0042051D01*
X0083609Y0043702D01*
X0084873Y0044966D01*
X0086524Y0045650D01*
X0088311Y0045650D01*
X0089962Y0044966D01*
X0091226Y0043702D01*
X0091909Y0042051D01*
X0091909Y0040264D01*
X0091909Y0040715D02*
X0092768Y0040715D01*
X0092768Y0041894D02*
X0091909Y0041894D01*
X0091486Y0043074D02*
X0093191Y0043074D01*
X0094003Y0044253D02*
X0090674Y0044253D01*
X0088834Y0045433D02*
X0095844Y0045433D01*
X0098676Y0045433D02*
X0099158Y0045433D01*
X0093709Y0038355D02*
X0090968Y0038355D01*
X0089543Y0037176D02*
X0095134Y0037176D01*
X0085291Y0037176D02*
X0079872Y0037176D01*
X0081213Y0038355D02*
X0083867Y0038355D01*
X0083227Y0039535D02*
X0081874Y0039535D01*
X0082152Y0040715D02*
X0082925Y0040715D01*
X0082925Y0041894D02*
X0082106Y0041894D01*
X0081750Y0043074D02*
X0083349Y0043074D01*
X0084161Y0044253D02*
X0080971Y0044253D01*
X0079271Y0045433D02*
X0086001Y0045433D01*
X0053836Y0096156D02*
X0004346Y0096156D01*
X0004346Y0097336D02*
X0021719Y0097336D01*
X0022734Y0096320D02*
X0025959Y0096320D01*
X0028239Y0098600D01*
X0028239Y0101825D01*
X0025959Y0104105D01*
X0022734Y0104105D01*
X0020454Y0101825D01*
X0020454Y0098600D01*
X0022734Y0096320D01*
X0020539Y0098516D02*
X0004346Y0098516D01*
X0004346Y0099695D02*
X0020454Y0099695D01*
X0020454Y0100875D02*
X0004346Y0100875D01*
X0004346Y0102055D02*
X0020684Y0102055D01*
X0021864Y0103234D02*
X0004346Y0103234D01*
X0004346Y0104414D02*
X0053981Y0104414D01*
X0053398Y0103234D02*
X0036829Y0103234D01*
X0038009Y0102055D02*
X0053398Y0102055D01*
X0057890Y0100213D02*
X0034346Y0100213D01*
X0031719Y0097336D02*
X0026974Y0097336D01*
X0028154Y0098516D02*
X0030539Y0098516D01*
X0030454Y0099695D02*
X0028239Y0099695D01*
X0028239Y0100875D02*
X0030454Y0100875D01*
X0030684Y0102055D02*
X0028009Y0102055D01*
X0026829Y0103234D02*
X0031864Y0103234D01*
X0036974Y0097336D02*
X0053398Y0097336D01*
X0053398Y0098516D02*
X0038154Y0098516D01*
X0004346Y0078462D02*
X0269192Y0078462D01*
X0270371Y0077283D02*
X0004346Y0077283D01*
X0258612Y0093797D02*
X0289083Y0093797D01*
X0289083Y0092618D02*
X0259791Y0092618D01*
X0260971Y0091438D02*
X0289083Y0091438D01*
X0289083Y0090258D02*
X0262150Y0090258D01*
X0263330Y0089079D02*
X0289083Y0089079D01*
X0289083Y0087899D02*
X0264510Y0087899D01*
X0265689Y0086720D02*
X0289083Y0086720D01*
X0289083Y0085540D02*
X0266869Y0085540D01*
X0268049Y0084360D02*
X0289083Y0084360D01*
X0289083Y0083181D02*
X0269228Y0083181D01*
X0270408Y0082001D02*
X0289083Y0082001D01*
X0289083Y0080822D02*
X0271587Y0080822D01*
X0272767Y0079642D02*
X0289083Y0079642D01*
X0289083Y0078462D02*
X0273947Y0078462D01*
X0275126Y0077283D02*
X0289078Y0077283D01*
X0290764Y0076591D02*
X0287614Y0073441D01*
X0284696Y0074923D02*
X0277485Y0074923D01*
X0276306Y0076103D02*
X0285661Y0076103D01*
X0284350Y0073744D02*
X0278665Y0073744D01*
X0279845Y0072564D02*
X0284445Y0072564D01*
X0285055Y0071385D02*
X0281024Y0071385D01*
X0282204Y0070205D02*
X0286898Y0070205D01*
X0288331Y0070205D02*
X0319796Y0070205D01*
X0318616Y0069025D02*
X0283384Y0069025D01*
X0284563Y0067846D02*
X0317437Y0067846D01*
X0316257Y0066666D02*
X0285743Y0066666D01*
X0290174Y0071385D02*
X0320976Y0071385D01*
X0322155Y0072564D02*
X0290784Y0072564D01*
X0290878Y0073744D02*
X0323335Y0073744D01*
X0324515Y0074923D02*
X0291474Y0074923D01*
X0317473Y0063127D02*
X0367443Y0063127D01*
X0368622Y0064307D02*
X0318653Y0064307D01*
X0319832Y0065487D02*
X0369802Y0065487D01*
X0370982Y0066666D02*
X0321012Y0066666D01*
X0322192Y0067846D02*
X0372161Y0067846D01*
X0373341Y0069025D02*
X0323371Y0069025D01*
X0324551Y0070205D02*
X0374520Y0070205D01*
X0375700Y0071385D02*
X0325731Y0071385D01*
X0326910Y0072564D02*
X0376880Y0072564D01*
X0378059Y0073744D02*
X0328090Y0073744D01*
X0329269Y0074923D02*
X0379239Y0074923D01*
X0379634Y0076103D02*
X0330449Y0076103D01*
X0331629Y0077283D02*
X0379634Y0077283D01*
X0379634Y0078462D02*
X0332808Y0078462D01*
X0333988Y0079642D02*
X0379634Y0079642D01*
X0379634Y0080822D02*
X0335167Y0080822D01*
X0336347Y0082001D02*
X0379634Y0082001D01*
X0379634Y0083181D02*
X0337527Y0083181D01*
X0367887Y0084360D02*
X0379634Y0084360D01*
X0379634Y0085540D02*
X0369067Y0085540D01*
X0369247Y0086720D02*
X0379634Y0086720D01*
X0379634Y0087899D02*
X0369247Y0087899D01*
X0369247Y0089079D02*
X0379634Y0089079D01*
X0379634Y0090258D02*
X0368182Y0090258D01*
X0367002Y0091438D02*
X0379634Y0091438D01*
X0382996Y0091438D02*
X0392929Y0091438D01*
X0392929Y0090258D02*
X0382996Y0090258D01*
X0382996Y0089079D02*
X0392929Y0089079D01*
X0392929Y0087899D02*
X0382996Y0087899D01*
X0382996Y0086720D02*
X0392929Y0086720D01*
X0392929Y0085540D02*
X0382996Y0085540D01*
X0382996Y0084360D02*
X0392929Y0084360D01*
X0392929Y0083181D02*
X0382996Y0083181D01*
X0382996Y0082001D02*
X0392929Y0082001D01*
X0392929Y0080822D02*
X0382996Y0080822D01*
X0382996Y0079642D02*
X0392929Y0079642D01*
X0392929Y0078462D02*
X0382996Y0078462D01*
X0382996Y0077283D02*
X0392929Y0077283D01*
X0392929Y0076103D02*
X0382996Y0076103D01*
X0382996Y0074923D02*
X0392929Y0074923D01*
X0392929Y0073744D02*
X0382814Y0073744D01*
X0381635Y0072564D02*
X0392929Y0072564D01*
X0392929Y0071385D02*
X0380455Y0071385D01*
X0379275Y0070205D02*
X0392929Y0070205D01*
X0392929Y0069025D02*
X0378096Y0069025D01*
X0376916Y0067846D02*
X0392929Y0067846D01*
X0392929Y0066666D02*
X0375736Y0066666D01*
X0374557Y0065487D02*
X0392929Y0065487D01*
X0392929Y0064307D02*
X0373377Y0064307D01*
X0372198Y0063127D02*
X0392929Y0063127D01*
X0392929Y0061948D02*
X0371018Y0061948D01*
X0369838Y0060768D02*
X0392929Y0060768D01*
X0392929Y0059588D02*
X0368659Y0059588D01*
X0367479Y0058409D02*
X0392929Y0058409D01*
X0392929Y0057229D02*
X0366300Y0057229D01*
X0365120Y0056050D02*
X0392929Y0056050D01*
X0392929Y0054870D02*
X0363940Y0054870D01*
X0362761Y0053690D02*
X0392929Y0053690D01*
X0392929Y0052511D02*
X0361581Y0052511D01*
X0360402Y0051331D02*
X0392929Y0051331D01*
X0392929Y0050152D02*
X0359222Y0050152D01*
X0358042Y0048972D02*
X0392929Y0048972D01*
X0392929Y0047792D02*
X0356863Y0047792D01*
X0382996Y0092618D02*
X0392929Y0092618D01*
X0392929Y0093797D02*
X0382996Y0093797D01*
X0382996Y0094977D02*
X0392929Y0094977D01*
X0392929Y0096156D02*
X0382996Y0096156D01*
X0382996Y0097336D02*
X0392929Y0097336D01*
X0392929Y0098516D02*
X0382996Y0098516D01*
X0382996Y0099695D02*
X0392929Y0099695D01*
X0392929Y0100875D02*
X0382996Y0100875D01*
X0382996Y0102055D02*
X0392929Y0102055D01*
X0392929Y0103234D02*
X0382996Y0103234D01*
X0382996Y0104414D02*
X0392929Y0104414D01*
X0392929Y0105593D02*
X0382996Y0105593D01*
X0382996Y0106773D02*
X0392929Y0106773D01*
X0392929Y0107953D02*
X0382996Y0107953D01*
X0382996Y0109132D02*
X0392929Y0109132D01*
X0392929Y0110312D02*
X0382996Y0110312D01*
X0382996Y0111491D02*
X0392929Y0111491D01*
X0392929Y0112671D02*
X0382996Y0112671D01*
X0352063Y0144521D02*
X0332922Y0144521D01*
X0334101Y0145700D02*
X0350883Y0145700D01*
X0350863Y0146880D02*
X0335281Y0146880D01*
X0336461Y0148059D02*
X0350863Y0148059D01*
X0350909Y0149239D02*
X0337640Y0149239D01*
X0338820Y0150419D02*
X0352089Y0150419D01*
D15*
X0278787Y0155787D03*
X0255787Y0151787D03*
X0238843Y0158787D03*
X0220787Y0172787D03*
X0218323Y0147457D03*
X0204543Y0145488D03*
X0184858Y0125016D03*
X0189189Y0112024D03*
X0206512Y0100213D03*
X0210449Y0088402D03*
X0210449Y0072654D03*
X0287614Y0073441D03*
X0139583Y0182890D03*
X0232787Y0204787D03*
M02*
