G75*
%MOIN*%
%OFA0B0*%
%FSLAX24Y24*%
%IPPOS*%
%LPD*%
%AMOC8*
5,1,8,0,0,1.08239X$1,22.5*
%
%ADD10R,0.0157X0.0236*%
%ADD11R,0.0236X0.0787*%
%ADD12R,0.0170X0.0320*%
%ADD13R,0.1600X0.1600*%
%ADD14R,0.0315X0.0394*%
%ADD15R,0.0354X0.0276*%
%ADD16R,0.0394X0.0315*%
D10*
X001814Y011360D03*
X002070Y011360D03*
X002326Y011360D03*
X002582Y011360D03*
X002582Y012462D03*
X002326Y012462D03*
X002070Y012462D03*
X001814Y012462D03*
X004176Y012462D03*
X004432Y012462D03*
X004688Y012462D03*
X004944Y012462D03*
X004944Y011360D03*
X004688Y011360D03*
X004432Y011360D03*
X004176Y011360D03*
D11*
X004129Y009588D03*
X003629Y009588D03*
X003129Y009588D03*
X002629Y009588D03*
X002629Y007541D03*
X003129Y007541D03*
X003629Y007541D03*
X004129Y007541D03*
D12*
G36*
X001975Y004783D02*
X001855Y004903D01*
X002081Y005129D01*
X002201Y005009D01*
X001975Y004783D01*
G37*
G36*
X002159Y004600D02*
X002039Y004720D01*
X002265Y004946D01*
X002385Y004826D01*
X002159Y004600D01*
G37*
G36*
X002336Y004423D02*
X002216Y004543D01*
X002442Y004769D01*
X002562Y004649D01*
X002336Y004423D01*
G37*
G36*
X002520Y004239D02*
X002400Y004359D01*
X002626Y004585D01*
X002746Y004465D01*
X002520Y004239D01*
G37*
G36*
X002704Y004055D02*
X002584Y004175D01*
X002810Y004401D01*
X002930Y004281D01*
X002704Y004055D01*
G37*
G36*
X002880Y003878D02*
X002760Y003998D01*
X002986Y004224D01*
X003106Y004104D01*
X002880Y003878D01*
G37*
G36*
X003064Y003695D02*
X002944Y003815D01*
X003170Y004041D01*
X003290Y003921D01*
X003064Y003695D01*
G37*
G36*
X003468Y003921D02*
X003588Y004041D01*
X003814Y003815D01*
X003694Y003695D01*
X003468Y003921D01*
G37*
G36*
X003651Y004104D02*
X003771Y004224D01*
X003997Y003998D01*
X003877Y003878D01*
X003651Y004104D01*
G37*
G36*
X003828Y004281D02*
X003948Y004401D01*
X004174Y004175D01*
X004054Y004055D01*
X003828Y004281D01*
G37*
G36*
X004012Y004465D02*
X004132Y004585D01*
X004358Y004359D01*
X004238Y004239D01*
X004012Y004465D01*
G37*
G36*
X004196Y004649D02*
X004316Y004769D01*
X004542Y004543D01*
X004422Y004423D01*
X004196Y004649D01*
G37*
G36*
X004373Y004826D02*
X004493Y004946D01*
X004719Y004720D01*
X004599Y004600D01*
X004373Y004826D01*
G37*
G36*
X004556Y005009D02*
X004676Y005129D01*
X004902Y004903D01*
X004782Y004783D01*
X004556Y005009D01*
G37*
G36*
X004676Y005307D02*
X004556Y005427D01*
X004782Y005653D01*
X004902Y005533D01*
X004676Y005307D01*
G37*
G36*
X004493Y005491D02*
X004373Y005611D01*
X004599Y005837D01*
X004719Y005717D01*
X004493Y005491D01*
G37*
G36*
X004316Y005667D02*
X004196Y005787D01*
X004422Y006013D01*
X004542Y005893D01*
X004316Y005667D01*
G37*
G36*
X004132Y005851D02*
X004012Y005971D01*
X004238Y006197D01*
X004358Y006077D01*
X004132Y005851D01*
G37*
G36*
X003948Y006035D02*
X003828Y006155D01*
X004054Y006381D01*
X004174Y006261D01*
X003948Y006035D01*
G37*
G36*
X003771Y006212D02*
X003651Y006332D01*
X003877Y006558D01*
X003997Y006438D01*
X003771Y006212D01*
G37*
G36*
X003588Y006396D02*
X003468Y006516D01*
X003694Y006742D01*
X003814Y006622D01*
X003588Y006396D01*
G37*
G36*
X002944Y006622D02*
X003064Y006742D01*
X003290Y006516D01*
X003170Y006396D01*
X002944Y006622D01*
G37*
G36*
X002760Y006438D02*
X002880Y006558D01*
X003106Y006332D01*
X002986Y006212D01*
X002760Y006438D01*
G37*
G36*
X002584Y006261D02*
X002704Y006381D01*
X002930Y006155D01*
X002810Y006035D01*
X002584Y006261D01*
G37*
G36*
X002400Y006077D02*
X002520Y006197D01*
X002746Y005971D01*
X002626Y005851D01*
X002400Y006077D01*
G37*
G36*
X002216Y005893D02*
X002336Y006013D01*
X002562Y005787D01*
X002442Y005667D01*
X002216Y005893D01*
G37*
G36*
X002039Y005717D02*
X002159Y005837D01*
X002385Y005611D01*
X002265Y005491D01*
X002039Y005717D01*
G37*
G36*
X001855Y005533D02*
X001975Y005653D01*
X002201Y005427D01*
X002081Y005307D01*
X001855Y005533D01*
G37*
D13*
G36*
X003379Y006349D02*
X004510Y005218D01*
X003379Y004087D01*
X002248Y005218D01*
X003379Y006349D01*
G37*
D14*
X002887Y000887D03*
X002296Y000887D03*
D15*
X001017Y010277D03*
X001017Y010789D03*
X003969Y010789D03*
X003969Y010277D03*
D16*
X001214Y006084D03*
X001214Y005533D03*
M02*
