%
M48
M72
T01C0.0197
T02C0.0315
T03C0.0354
T04C0.0394
%
T01
X1686Y4037
X1804Y3250
X2828Y3407
X3379Y3446
X4757Y6202
X5032Y6714
X5072Y7305
X4954Y8368
X4599Y7502
X1804Y7580
X1804Y6990
X1804Y6399
T02
X1902Y2265
X2493Y2265
X3084Y2265
X3674Y2265
X4265Y2265
X4855Y2265
T03
X3879Y13486
X2879Y13486
T04
X2001Y10533
X2001Y9943
X4757Y9943
X4757Y10533
M30
