G75*
%MOIN*%
%OFA0B0*%
%FSLAX24Y24*%
%IPPOS*%
%LPD*%
%AMOC8*
5,1,8,0,0,1.08239X$1,22.5*
%
%ADD10C,0.0030*%
%ADD11C,0.0050*%
%ADD12C,0.0060*%
%ADD13C,0.0063*%
%ADD14C,0.0059*%
D10*
X010668Y009148D02*
X011032Y009148D01*
X011032Y009330D01*
X010972Y009391D01*
X010850Y009391D01*
X010790Y009330D01*
X010790Y009148D01*
X010790Y009269D02*
X010668Y009391D01*
X010608Y009510D02*
X010608Y009753D01*
X010668Y009873D02*
X010911Y009873D01*
X011032Y009994D01*
X010911Y010116D01*
X010668Y010116D01*
X010850Y010116D02*
X010850Y009873D01*
X010850Y010235D02*
X010850Y010478D01*
X010668Y010417D02*
X011032Y010417D01*
X010850Y010235D01*
X012046Y010055D02*
X012046Y009873D01*
X012410Y009873D01*
X012410Y010055D01*
X012350Y010116D01*
X012289Y010116D01*
X012228Y010055D01*
X012228Y009873D01*
X012228Y010055D02*
X012168Y010116D01*
X012107Y010116D01*
X012046Y010055D01*
X012228Y010235D02*
X012228Y010478D01*
X012046Y010417D02*
X012410Y010417D01*
X012228Y010235D01*
X011985Y009753D02*
X011985Y009510D01*
X012046Y009391D02*
X012168Y009269D01*
X012168Y009330D02*
X012168Y009148D01*
X012046Y009148D02*
X012410Y009148D01*
X012410Y009330D01*
X012350Y009391D01*
X012228Y009391D01*
X012168Y009330D01*
X013363Y009510D02*
X013363Y009753D01*
X013485Y009873D02*
X013424Y009934D01*
X013424Y010055D01*
X013485Y010116D01*
X013606Y010235D02*
X013606Y010478D01*
X013424Y010417D02*
X013788Y010417D01*
X013606Y010235D01*
X013727Y010116D02*
X013788Y010055D01*
X013788Y009934D01*
X013727Y009873D01*
X013485Y009873D01*
X013424Y009391D02*
X013545Y009269D01*
X013545Y009330D02*
X013545Y009148D01*
X013424Y009148D02*
X013788Y009148D01*
X013788Y009330D01*
X013727Y009391D01*
X013606Y009391D01*
X013545Y009330D01*
X014545Y009510D02*
X014545Y009753D01*
X014605Y009873D02*
X014605Y010055D01*
X014666Y010116D01*
X014909Y010116D01*
X014969Y010055D01*
X014969Y009873D01*
X014605Y009873D01*
X014787Y010235D02*
X014787Y010478D01*
X014605Y010417D02*
X014969Y010417D01*
X014787Y010235D01*
X014787Y009391D02*
X014727Y009330D01*
X014727Y009148D01*
X014727Y009269D02*
X014605Y009391D01*
X014787Y009391D02*
X014909Y009391D01*
X014969Y009330D01*
X014969Y009148D01*
X014605Y009148D01*
X013709Y011707D02*
X013345Y011707D01*
X013527Y011707D02*
X013527Y011828D01*
X013709Y011707D02*
X013709Y011950D01*
X013709Y012069D02*
X013345Y012069D01*
X013345Y012312D01*
X013527Y012191D02*
X013527Y012069D01*
X013709Y012069D02*
X013709Y012312D01*
X013709Y012432D02*
X013709Y012675D01*
X013709Y012553D02*
X013345Y012553D01*
X013345Y012794D02*
X013588Y013037D01*
X013649Y013037D01*
X013709Y012976D01*
X013709Y012855D01*
X013649Y012794D01*
X013345Y012794D02*
X013345Y013037D01*
X013214Y013298D02*
X013214Y013662D01*
X013032Y013662D01*
X012971Y013601D01*
X012971Y013480D01*
X013032Y013419D01*
X013214Y013419D01*
X013092Y013419D02*
X012971Y013298D01*
X012851Y013237D02*
X012608Y013237D01*
X012489Y013298D02*
X012307Y013298D01*
X012246Y013359D01*
X012246Y013419D01*
X012307Y013480D01*
X012489Y013480D01*
X012489Y013298D02*
X012489Y013662D01*
X012307Y013662D01*
X012246Y013601D01*
X012246Y013541D01*
X012307Y013480D01*
X012126Y013541D02*
X012005Y013662D01*
X012005Y013298D01*
X012126Y013298D02*
X011883Y013298D01*
X011883Y014479D02*
X012126Y014479D01*
X012005Y014479D02*
X012005Y014843D01*
X012126Y014722D01*
X012246Y014722D02*
X012307Y014661D01*
X012489Y014661D01*
X012489Y014479D02*
X012307Y014479D01*
X012246Y014540D01*
X012246Y014601D01*
X012307Y014661D01*
X012246Y014722D02*
X012246Y014783D01*
X012307Y014843D01*
X012489Y014843D01*
X012489Y014479D01*
X012608Y014419D02*
X012851Y014419D01*
X012971Y014540D02*
X013032Y014479D01*
X013153Y014479D01*
X013214Y014540D01*
X013214Y014783D01*
X013153Y014843D01*
X013032Y014843D01*
X012971Y014783D01*
X012568Y016038D02*
X012204Y016038D01*
X012325Y016038D02*
X012325Y016220D01*
X012386Y016280D01*
X012507Y016280D01*
X012568Y016220D01*
X012568Y016038D01*
X012325Y016159D02*
X012204Y016280D01*
X012143Y016400D02*
X012143Y016643D01*
X012204Y016763D02*
X012204Y016945D01*
X012264Y017005D01*
X012325Y017005D01*
X012386Y016945D01*
X012386Y016763D01*
X012386Y016945D02*
X012446Y017005D01*
X012507Y017005D01*
X012568Y016945D01*
X012568Y016763D01*
X012204Y016763D01*
X012204Y017125D02*
X012446Y017368D01*
X012507Y017368D01*
X012568Y017307D01*
X012568Y017186D01*
X012507Y017125D01*
X012204Y017125D02*
X012204Y017368D01*
X008631Y017307D02*
X008631Y017186D01*
X008570Y017125D01*
X008509Y017005D02*
X008267Y017005D01*
X008267Y017125D02*
X008509Y017368D01*
X008570Y017368D01*
X008631Y017307D01*
X008509Y017005D02*
X008631Y016884D01*
X008509Y016763D01*
X008267Y016763D01*
X008206Y016643D02*
X008206Y016400D01*
X008267Y016280D02*
X008388Y016159D01*
X008388Y016220D02*
X008388Y016038D01*
X008267Y016038D02*
X008631Y016038D01*
X008631Y016220D01*
X008570Y016280D01*
X008449Y016280D01*
X008388Y016220D01*
X008449Y016763D02*
X008449Y017005D01*
X008267Y017125D02*
X008267Y017368D01*
X008430Y014843D02*
X008309Y014722D01*
X008309Y014479D01*
X008189Y014479D02*
X007946Y014479D01*
X008068Y014479D02*
X008068Y014843D01*
X008189Y014722D01*
X008309Y014661D02*
X008552Y014661D01*
X008552Y014722D02*
X008430Y014843D01*
X008552Y014722D02*
X008552Y014479D01*
X008671Y014419D02*
X008914Y014419D01*
X009034Y014540D02*
X009095Y014479D01*
X009216Y014479D01*
X009277Y014540D01*
X009277Y014783D01*
X009216Y014843D01*
X009095Y014843D01*
X009034Y014783D01*
X009095Y013662D02*
X009034Y013601D01*
X009034Y013480D01*
X009095Y013419D01*
X009277Y013419D01*
X009277Y013298D02*
X009277Y013662D01*
X009095Y013662D01*
X009155Y013419D02*
X009034Y013298D01*
X008914Y013237D02*
X008671Y013237D01*
X008552Y013298D02*
X008552Y013541D01*
X008430Y013662D01*
X008309Y013541D01*
X008309Y013298D01*
X008189Y013298D02*
X007946Y013298D01*
X008068Y013298D02*
X008068Y013662D01*
X008189Y013541D01*
X008309Y013480D02*
X008552Y013480D01*
X009408Y013037D02*
X009408Y012794D01*
X009408Y012916D02*
X009772Y012916D01*
X009651Y012794D01*
X009772Y012675D02*
X009772Y012432D01*
X009772Y012312D02*
X009772Y012069D01*
X009408Y012069D01*
X009408Y012312D01*
X009590Y012191D02*
X009590Y012069D01*
X009772Y011950D02*
X009772Y011707D01*
X009408Y011707D01*
X009590Y011707D02*
X009590Y011828D01*
X009408Y012553D02*
X009772Y012553D01*
X015820Y013298D02*
X016063Y013298D01*
X015942Y013298D02*
X015942Y013662D01*
X016063Y013541D01*
X016183Y013601D02*
X016244Y013662D01*
X016365Y013662D01*
X016426Y013601D01*
X016426Y013359D01*
X016365Y013298D01*
X016244Y013298D01*
X016183Y013359D01*
X016545Y013237D02*
X016788Y013237D01*
X016908Y013298D02*
X017029Y013419D01*
X016969Y013419D02*
X017151Y013419D01*
X017151Y013298D02*
X017151Y013662D01*
X016969Y013662D01*
X016908Y013601D01*
X016908Y013480D01*
X016969Y013419D01*
X017343Y013037D02*
X017282Y012976D01*
X017282Y012855D01*
X017343Y012794D01*
X017464Y012916D02*
X017464Y012976D01*
X017404Y013037D01*
X017343Y013037D01*
X017464Y012976D02*
X017525Y013037D01*
X017586Y013037D01*
X017646Y012976D01*
X017646Y012855D01*
X017586Y012794D01*
X017646Y012675D02*
X017646Y012432D01*
X017646Y012312D02*
X017646Y012069D01*
X017282Y012069D01*
X017282Y012312D01*
X017464Y012191D02*
X017464Y012069D01*
X017646Y011950D02*
X017646Y011707D01*
X017282Y011707D01*
X017464Y011707D02*
X017464Y011828D01*
X017282Y012553D02*
X017646Y012553D01*
X019757Y013298D02*
X020000Y013298D01*
X019879Y013298D02*
X019879Y013662D01*
X020000Y013541D01*
X020120Y013601D02*
X020181Y013662D01*
X020363Y013662D01*
X020363Y013298D01*
X020181Y013298D01*
X020120Y013359D01*
X020120Y013601D01*
X020482Y013237D02*
X020725Y013237D01*
X020845Y013298D02*
X020966Y013419D01*
X020906Y013419D02*
X021088Y013419D01*
X021088Y013298D02*
X021088Y013662D01*
X020906Y013662D01*
X020845Y013601D01*
X020845Y013480D01*
X020906Y013419D01*
X021219Y012976D02*
X021583Y012976D01*
X021401Y012794D01*
X021401Y013037D01*
X021583Y012675D02*
X021583Y012432D01*
X021583Y012312D02*
X021583Y012069D01*
X021219Y012069D01*
X021219Y012312D01*
X021401Y012191D02*
X021401Y012069D01*
X021583Y011950D02*
X021583Y011707D01*
X021219Y011707D01*
X021401Y011707D02*
X021401Y011828D01*
X021219Y012553D02*
X021583Y012553D01*
X021027Y014479D02*
X020906Y014479D01*
X020845Y014540D01*
X020725Y014419D02*
X020482Y014419D01*
X020363Y014479D02*
X020181Y014479D01*
X020120Y014540D01*
X020120Y014783D01*
X020181Y014843D01*
X020363Y014843D01*
X020363Y014479D01*
X020000Y014479D02*
X019757Y014479D01*
X019879Y014479D02*
X019879Y014843D01*
X020000Y014722D01*
X020845Y014783D02*
X020906Y014843D01*
X021027Y014843D01*
X021088Y014783D01*
X021088Y014540D01*
X021027Y014479D01*
X020442Y016038D02*
X020078Y016038D01*
X020199Y016038D02*
X020199Y016220D01*
X020260Y016280D01*
X020381Y016280D01*
X020442Y016220D01*
X020442Y016038D01*
X020199Y016159D02*
X020078Y016280D01*
X020017Y016400D02*
X020017Y016643D01*
X020078Y016763D02*
X020078Y016945D01*
X020138Y017005D01*
X020381Y017005D01*
X020442Y016945D01*
X020442Y016763D01*
X020078Y016763D01*
X020078Y017125D02*
X020320Y017368D01*
X020381Y017368D01*
X020442Y017307D01*
X020442Y017186D01*
X020381Y017125D01*
X020078Y017125D02*
X020078Y017368D01*
X016505Y017307D02*
X016505Y017186D01*
X016444Y017125D01*
X016444Y017005D02*
X016505Y016945D01*
X016505Y016823D01*
X016444Y016763D01*
X016201Y016763D01*
X016141Y016823D01*
X016141Y016945D01*
X016201Y017005D01*
X016141Y017125D02*
X016383Y017368D01*
X016444Y017368D01*
X016505Y017307D01*
X016141Y017368D02*
X016141Y017125D01*
X016080Y016643D02*
X016080Y016400D01*
X016141Y016280D02*
X016262Y016159D01*
X016262Y016220D02*
X016262Y016038D01*
X016141Y016038D02*
X016505Y016038D01*
X016505Y016220D01*
X016444Y016280D01*
X016323Y016280D01*
X016262Y016220D01*
X016244Y014843D02*
X016365Y014843D01*
X016426Y014783D01*
X016426Y014540D01*
X016365Y014479D01*
X016244Y014479D01*
X016183Y014540D01*
X016063Y014479D02*
X015820Y014479D01*
X015942Y014479D02*
X015942Y014843D01*
X016063Y014722D01*
X016183Y014783D02*
X016244Y014843D01*
X016545Y014419D02*
X016788Y014419D01*
X016908Y014540D02*
X016969Y014479D01*
X017090Y014479D01*
X017151Y014540D01*
X017151Y014783D01*
X017090Y014843D01*
X016969Y014843D01*
X016908Y014783D01*
X020708Y008843D02*
X021072Y008843D01*
X021072Y008600D02*
X020708Y008600D01*
X020708Y008480D02*
X020708Y008358D01*
X020708Y008419D02*
X021072Y008419D01*
X021072Y008358D02*
X021072Y008480D01*
X021072Y008600D02*
X020708Y008843D01*
X020647Y008239D02*
X020647Y007996D01*
X020768Y007876D02*
X020708Y007815D01*
X020708Y007694D01*
X020768Y007633D01*
X021011Y007633D01*
X021072Y007694D01*
X021072Y007815D01*
X021011Y007876D01*
X022086Y007936D02*
X022450Y007936D01*
X022450Y008118D01*
X022389Y008178D01*
X022268Y008178D01*
X022207Y008118D01*
X022207Y007936D01*
X022207Y008057D02*
X022086Y008178D01*
X022086Y008298D02*
X022086Y008541D01*
X022086Y008419D02*
X022450Y008419D01*
X022328Y008298D01*
X026515Y011766D02*
X026515Y011874D01*
X026569Y011928D01*
X026515Y012038D02*
X026515Y012255D01*
X026515Y012146D02*
X026839Y012146D01*
X026731Y012038D01*
X026785Y011928D02*
X026839Y011874D01*
X026839Y011766D01*
X026785Y011712D01*
X026569Y011712D01*
X026515Y011766D01*
D11*
X025614Y011472D02*
X027740Y011472D01*
X027740Y012574D01*
X025614Y012574D01*
X025614Y011472D01*
X021992Y008795D02*
X021519Y008795D01*
X021519Y007771D01*
X021992Y007771D01*
X021992Y008795D01*
X020614Y008756D02*
X020614Y007811D01*
X020141Y007811D01*
X020141Y008756D01*
X020614Y008756D01*
X014511Y009346D02*
X014511Y010370D01*
X014039Y010370D01*
X014039Y009346D01*
X014511Y009346D01*
X013330Y009346D02*
X013330Y010370D01*
X012858Y010370D01*
X012858Y009346D01*
X013330Y009346D01*
X011952Y009346D02*
X011952Y010370D01*
X011480Y010370D01*
X011480Y009346D01*
X011952Y009346D01*
X010574Y009346D02*
X010574Y010370D01*
X010102Y010370D01*
X010102Y009346D01*
X010574Y009346D01*
X011992Y013756D02*
X013015Y013756D01*
X013015Y014228D01*
X011992Y014228D01*
X011992Y013756D01*
X012031Y014937D02*
X012031Y015409D01*
X012976Y015409D01*
X012976Y014937D01*
X012031Y014937D01*
X012661Y016236D02*
X013134Y016236D01*
X013134Y017259D01*
X012661Y017259D01*
X012661Y016236D01*
X015968Y015409D02*
X015968Y014937D01*
X016913Y014937D01*
X016913Y015409D01*
X015968Y015409D01*
X016598Y016236D02*
X017071Y016236D01*
X017071Y017259D01*
X016598Y017259D01*
X016598Y016236D01*
X016952Y014228D02*
X015929Y014228D01*
X015929Y013756D01*
X016952Y013756D01*
X016952Y014228D01*
X019866Y014228D02*
X019866Y013756D01*
X020889Y013756D01*
X020889Y014228D01*
X019866Y014228D01*
X019905Y014937D02*
X019905Y015409D01*
X020850Y015409D01*
X020850Y014937D01*
X019905Y014937D01*
X020535Y016236D02*
X021008Y016236D01*
X021008Y017259D01*
X020535Y017259D01*
X020535Y016236D01*
X009197Y016236D02*
X008724Y016236D01*
X008724Y017259D01*
X009197Y017259D01*
X009197Y016236D01*
X009039Y015409D02*
X008094Y015409D01*
X008094Y014937D01*
X009039Y014937D01*
X009039Y015409D01*
X009078Y014228D02*
X008055Y014228D01*
X008055Y013756D01*
X009078Y013756D01*
X009078Y014228D01*
D12*
X009127Y012490D02*
X009127Y012157D01*
X008855Y012157D01*
X008268Y012157D02*
X008007Y012157D01*
X008007Y012490D01*
X011944Y012490D02*
X011944Y012157D01*
X012205Y012157D01*
X012792Y012157D02*
X013064Y012157D01*
X013064Y012490D01*
X015881Y012490D02*
X015881Y012157D01*
X016142Y012157D01*
X016729Y012157D02*
X017001Y012157D01*
X017001Y012490D01*
X019818Y012490D02*
X019818Y012157D01*
X020079Y012157D01*
X020666Y012157D02*
X020938Y012157D01*
X020938Y012490D01*
D13*
X020456Y012677D02*
X020299Y012677D01*
X016519Y012677D02*
X016362Y012677D01*
X012582Y012677D02*
X012425Y012677D01*
X008645Y012677D02*
X008488Y012677D01*
D14*
X007937Y013204D02*
X007937Y011669D01*
X009197Y011669D01*
X009197Y013204D01*
X007937Y013204D01*
X011874Y013204D02*
X011874Y011669D01*
X013134Y011669D01*
X013134Y013204D01*
X011874Y013204D01*
X015811Y013204D02*
X015811Y011669D01*
X017071Y011669D01*
X017071Y013204D01*
X015811Y013204D01*
X019748Y013204D02*
X019748Y011669D01*
X021008Y011669D01*
X021008Y013204D01*
X019748Y013204D01*
M02*
