G75*
%MOIN*%
%OFA0B0*%
%FSLAX24Y24*%
%IPPOS*%
%LPD*%
%AMOC8*
5,1,8,0,0,1.08239X$1,22.5*
%
%ADD10R,0.0315X0.0394*%
%ADD11R,0.0515X0.0515*%
%ADD12R,0.0315X0.0472*%
%ADD13C,0.0984*%
%ADD14C,0.1181*%
%ADD15R,0.0630X0.1024*%
%ADD16C,0.0594*%
%ADD17OC8,0.0515*%
%ADD18R,0.0591X0.0394*%
%ADD19C,0.0197*%
%ADD20R,0.0396X0.0396*%
%ADD21C,0.0157*%
%ADD22R,0.0317X0.0317*%
%ADD23C,0.0118*%
%ADD24R,0.0357X0.0357*%
D10*
X008788Y024932D03*
X009339Y024932D03*
X009359Y027688D03*
X008768Y027688D03*
X008768Y028672D03*
X009359Y028672D03*
X012705Y028672D03*
X013296Y028672D03*
X013296Y027688D03*
X012705Y027688D03*
X012725Y024932D03*
X013276Y024932D03*
X016662Y024932D03*
X017213Y024932D03*
X017233Y027688D03*
X016642Y027688D03*
X016642Y028672D03*
X017233Y028672D03*
X020579Y028672D03*
X021170Y028672D03*
X021170Y027688D03*
X020579Y027688D03*
X020599Y024932D03*
X021150Y024932D03*
X022745Y020995D03*
X023335Y020995D03*
X023315Y019617D03*
X022764Y019617D03*
D11*
X026961Y020011D03*
X027961Y020011D03*
X028961Y020011D03*
X016347Y018239D03*
X009064Y018239D03*
X009058Y021979D03*
X008867Y032019D03*
X014575Y032019D03*
D12*
X013375Y023987D03*
X012627Y023987D03*
X013001Y023121D03*
X016564Y023987D03*
X017312Y023987D03*
X016938Y023121D03*
X020501Y023987D03*
X021249Y023987D03*
X020875Y023121D03*
X009438Y023987D03*
X008690Y023987D03*
X009064Y023121D03*
D13*
X026386Y027806D02*
X027371Y027806D01*
X028158Y026408D02*
X028158Y025424D01*
D14*
X025697Y025326D02*
X025697Y026507D01*
D15*
X026465Y023160D03*
X027882Y023160D03*
D16*
X027678Y031231D03*
X026678Y031231D03*
X025678Y031231D03*
X023678Y031231D03*
X022678Y031231D03*
X021678Y031231D03*
X020678Y031231D03*
D17*
X018512Y032019D03*
X017725Y032019D03*
X016938Y032019D03*
X016150Y032019D03*
X015363Y032019D03*
X012804Y032019D03*
X012016Y032019D03*
X011229Y032019D03*
X010441Y032019D03*
X009654Y032019D03*
X009845Y021979D03*
X010632Y021979D03*
X011420Y021979D03*
X012207Y021979D03*
X012995Y021979D03*
X013782Y021979D03*
X014569Y021979D03*
X015363Y021979D03*
X016150Y021979D03*
X016938Y021979D03*
X017725Y021979D03*
X017922Y018239D03*
X018709Y018239D03*
X019497Y018239D03*
X020284Y018239D03*
X017134Y018239D03*
X014575Y018239D03*
X013788Y018239D03*
X013001Y018239D03*
X012213Y018239D03*
X011426Y018239D03*
X010638Y018239D03*
X009851Y018239D03*
D18*
X009064Y025818D03*
X009064Y026802D03*
X013001Y026802D03*
X013001Y025818D03*
X016938Y025818D03*
X016938Y026802D03*
X020678Y026802D03*
X020678Y025818D03*
D19*
X022678Y028641D02*
X022678Y031231D01*
X022678Y028641D02*
X023827Y027393D01*
X023827Y022964D01*
X023827Y020995D01*
X023335Y020995D01*
X023827Y020995D02*
X023827Y019617D01*
X023315Y019617D01*
X023827Y019617D02*
X023827Y019223D01*
X022056Y017452D01*
X017134Y017452D01*
X017134Y018239D01*
X017134Y017452D02*
X010638Y017452D01*
X009851Y018239D01*
X008867Y032019D02*
X010245Y033397D01*
X014575Y033397D01*
X014575Y032019D01*
X014575Y033397D02*
X025512Y033397D01*
X027678Y031231D01*
X028158Y030751D01*
X028158Y025916D01*
X028158Y023436D01*
X027882Y023160D01*
X026465Y023160D02*
X025697Y023928D01*
X025697Y025916D01*
X025697Y026802D01*
X025402Y027097D01*
X025402Y029066D01*
X026678Y030341D01*
X026678Y031231D01*
X024221Y022964D02*
X023827Y022964D01*
D20*
X024221Y022964D03*
X016150Y029460D03*
D21*
X007588Y016968D02*
X007567Y016946D01*
X029064Y016946D01*
X029043Y016968D01*
X028897Y017221D01*
X028821Y017503D01*
X028821Y017795D01*
X028897Y018076D01*
X029043Y018329D01*
X029249Y018536D01*
X029502Y018682D01*
X029784Y018757D01*
X030076Y018757D01*
X030358Y018682D01*
X030610Y018536D01*
X030632Y018514D01*
X030632Y032137D01*
X030610Y032116D01*
X030358Y031970D01*
X030076Y031894D01*
X029784Y031894D01*
X029502Y031970D01*
X029249Y032116D01*
X029043Y032322D01*
X028897Y032575D01*
X028821Y032857D01*
X028821Y033149D01*
X028897Y033431D01*
X029043Y033684D01*
X029064Y033705D01*
X007567Y033705D01*
X007588Y033684D01*
X007734Y033431D01*
X007810Y033149D01*
X007810Y032857D01*
X007734Y032575D01*
X007588Y032322D01*
X007382Y032116D01*
X007129Y031970D01*
X006847Y031894D01*
X006555Y031894D01*
X006273Y031970D01*
X006021Y032116D01*
X005999Y032137D01*
X005999Y018514D01*
X006021Y018536D01*
X006273Y018682D01*
X006555Y018757D01*
X006847Y018757D01*
X007129Y018682D01*
X007382Y018536D01*
X007588Y018329D01*
X007734Y018076D01*
X007810Y017795D01*
X007810Y017503D01*
X007734Y017221D01*
X007588Y016968D01*
X007660Y017091D02*
X028971Y017091D01*
X028889Y017247D02*
X022215Y017247D01*
X022201Y017234D02*
X022274Y017306D01*
X024045Y019078D01*
X024084Y019172D01*
X024084Y022607D01*
X024485Y022607D01*
X024578Y022700D01*
X024578Y023227D01*
X024485Y023320D01*
X024084Y023320D01*
X024084Y027387D01*
X024086Y027433D01*
X024084Y027438D01*
X024084Y027444D01*
X024067Y027486D01*
X024051Y027529D01*
X024047Y027533D01*
X024045Y027538D01*
X024013Y027571D01*
X022935Y028741D01*
X022935Y030845D01*
X022936Y030845D01*
X023064Y030973D01*
X023133Y031141D01*
X023133Y031322D01*
X023064Y031489D01*
X022936Y031617D01*
X022768Y031687D01*
X022587Y031687D01*
X022420Y031617D01*
X022291Y031489D01*
X022222Y031322D01*
X022222Y031141D01*
X022291Y030973D01*
X022420Y030845D01*
X022421Y030845D01*
X022421Y028646D01*
X022419Y028600D01*
X022421Y028595D01*
X022421Y028590D01*
X022438Y028547D01*
X022454Y028504D01*
X022458Y028500D01*
X022460Y028495D01*
X022492Y028463D01*
X023570Y027292D01*
X023570Y021339D01*
X023558Y021351D01*
X023112Y021351D01*
X023052Y021290D01*
X023045Y021302D01*
X023012Y021335D01*
X022971Y021358D01*
X022926Y021371D01*
X022745Y021371D01*
X022745Y020995D01*
X022745Y020619D01*
X022926Y020619D01*
X022971Y020632D01*
X023012Y020655D01*
X023045Y020688D01*
X023052Y020700D01*
X023112Y020639D01*
X023558Y020639D01*
X023570Y020651D01*
X023570Y019941D01*
X023539Y019973D01*
X023092Y019973D01*
X023054Y019934D01*
X023032Y019957D01*
X022991Y019980D01*
X022945Y019993D01*
X022764Y019993D01*
X022583Y019993D01*
X022538Y019980D01*
X022497Y019957D01*
X022464Y019924D01*
X022440Y019883D01*
X022428Y019837D01*
X022428Y019617D01*
X022428Y019397D01*
X022440Y019351D01*
X022464Y019310D01*
X022497Y019277D01*
X022538Y019254D01*
X022583Y019241D01*
X022764Y019241D01*
X022764Y019617D01*
X022428Y019617D01*
X022764Y019617D01*
X022764Y019617D01*
X022764Y019617D01*
X022764Y019993D01*
X022764Y019617D01*
X022764Y019617D01*
X022764Y019241D01*
X022945Y019241D01*
X022991Y019254D01*
X023032Y019277D01*
X023054Y019300D01*
X023092Y019261D01*
X023502Y019261D01*
X021949Y017709D01*
X017392Y017709D01*
X017392Y017908D01*
X017528Y018044D01*
X017749Y017823D01*
X018094Y017823D01*
X018315Y018044D01*
X018537Y017823D01*
X018882Y017823D01*
X019103Y018044D01*
X019324Y017823D01*
X019669Y017823D01*
X019890Y018044D01*
X020112Y017823D01*
X020456Y017823D01*
X020700Y018067D01*
X020700Y018411D01*
X020456Y018655D01*
X020112Y018655D01*
X019890Y018434D01*
X019669Y018655D01*
X019388Y018655D01*
X017943Y020101D01*
X017943Y021608D01*
X018141Y021807D01*
X018141Y022152D01*
X017897Y022395D01*
X017553Y022395D01*
X017331Y022174D01*
X017110Y022395D01*
X016765Y022395D01*
X016544Y022174D01*
X016323Y022395D01*
X016764Y022395D01*
X016608Y022239D02*
X016479Y022239D01*
X016323Y022395D02*
X015978Y022395D01*
X015756Y022174D01*
X015535Y022395D01*
X015190Y022395D01*
X014743Y022395D01*
X014742Y022395D02*
X014397Y022395D01*
X014176Y022174D01*
X013954Y022395D01*
X013610Y022395D01*
X013388Y022174D01*
X013167Y022395D01*
X012822Y022395D01*
X012601Y022174D01*
X012380Y022395D01*
X012821Y022395D01*
X012665Y022239D02*
X012536Y022239D01*
X012380Y022395D02*
X012035Y022395D01*
X011814Y022174D01*
X011592Y022395D01*
X011247Y022395D01*
X010806Y022395D01*
X010805Y022395D02*
X010460Y022395D01*
X010253Y022188D01*
X010026Y022415D01*
X009845Y022415D01*
X009664Y022415D01*
X009474Y022225D01*
X009474Y022302D01*
X009381Y022395D01*
X008734Y022395D01*
X005999Y022395D01*
X005999Y022551D02*
X023570Y022551D01*
X023570Y022707D02*
X005999Y022707D01*
X005999Y022863D02*
X007992Y022863D01*
X008032Y022823D02*
X008520Y022823D01*
X008600Y022903D01*
X008747Y022903D01*
X008747Y022819D01*
X008840Y022726D01*
X009287Y022726D01*
X009380Y022819D01*
X009380Y023423D01*
X009287Y023516D01*
X008840Y023516D01*
X008747Y023423D01*
X008747Y023339D01*
X008613Y023339D01*
X008613Y023405D01*
X008520Y023498D01*
X008032Y023498D01*
X007939Y023405D01*
X007939Y022916D01*
X008032Y022823D01*
X007939Y023019D02*
X005999Y023019D01*
X005999Y023175D02*
X007939Y023175D01*
X007939Y023331D02*
X005999Y023331D01*
X005999Y023487D02*
X008021Y023487D01*
X008373Y023685D02*
X008466Y023592D01*
X008913Y023592D01*
X009006Y023685D01*
X009006Y024289D01*
X008913Y024382D01*
X008907Y024382D01*
X008907Y024576D01*
X009011Y024576D01*
X009064Y024629D01*
X009116Y024576D01*
X009220Y024576D01*
X009220Y024382D01*
X009214Y024382D01*
X009121Y024289D01*
X009121Y023685D01*
X009214Y023592D01*
X009661Y023592D01*
X009754Y023685D01*
X009754Y024289D01*
X009661Y024382D01*
X009655Y024382D01*
X009655Y024940D01*
X010138Y025423D01*
X010266Y025550D01*
X010266Y026683D01*
X010911Y026683D01*
X010911Y026676D01*
X011004Y026583D01*
X011453Y026583D01*
X011546Y026676D01*
X011546Y027125D01*
X011453Y027218D01*
X011004Y027218D01*
X010911Y027125D01*
X010911Y027118D01*
X010236Y027118D01*
X009675Y027680D01*
X009675Y027951D01*
X009582Y028044D01*
X009136Y028044D01*
X009064Y027971D01*
X008991Y028044D01*
X008986Y028044D01*
X008986Y028317D01*
X008991Y028317D01*
X009009Y028334D01*
X009103Y028239D01*
X009614Y028239D01*
X009752Y028377D01*
X009752Y028648D01*
X010609Y029505D01*
X010692Y029588D01*
X010737Y029696D01*
X010737Y031616D01*
X010835Y031714D01*
X010934Y031616D01*
X010934Y030188D01*
X010979Y030080D01*
X011062Y029997D01*
X011849Y029209D01*
X011958Y029164D01*
X012878Y029164D01*
X012989Y029054D01*
X012946Y029011D01*
X012928Y029028D01*
X012482Y029028D01*
X012389Y028935D01*
X012389Y028410D01*
X012482Y028317D01*
X012487Y028317D01*
X012487Y028044D01*
X012482Y028044D01*
X012389Y027951D01*
X012389Y027625D01*
X012372Y027573D01*
X012389Y027538D01*
X012389Y027425D01*
X012482Y027332D01*
X012492Y027332D01*
X012599Y027117D01*
X012547Y027065D01*
X012547Y026539D01*
X012639Y026446D01*
X013362Y026446D01*
X013455Y026539D01*
X013455Y027065D01*
X013362Y027158D01*
X013066Y027158D01*
X012962Y027366D01*
X013001Y027404D01*
X013073Y027332D01*
X013343Y027332D01*
X013767Y026909D01*
X013767Y025613D01*
X013442Y025288D01*
X013053Y025288D01*
X013001Y025235D01*
X012948Y025288D01*
X012943Y025288D01*
X012943Y025462D01*
X013362Y025462D01*
X013455Y025555D01*
X013455Y026080D01*
X013362Y026173D01*
X012639Y026173D01*
X012547Y026080D01*
X012547Y025840D01*
X012539Y025822D01*
X012507Y025790D01*
X012507Y025742D01*
X012489Y025697D01*
X012507Y025655D01*
X012507Y025288D01*
X012502Y025288D01*
X012409Y025195D01*
X012409Y024382D01*
X012403Y024382D01*
X012310Y024289D01*
X012310Y023765D01*
X012037Y024038D01*
X012037Y027548D01*
X012064Y027548D01*
X012157Y027641D01*
X012157Y028129D01*
X012064Y028222D01*
X011575Y028222D01*
X011482Y028129D01*
X011482Y027641D01*
X011575Y027548D01*
X011602Y027548D01*
X011602Y023858D01*
X011729Y023730D01*
X012320Y023139D01*
X012674Y023139D01*
X012684Y023129D01*
X012684Y022819D01*
X012777Y022726D01*
X013224Y022726D01*
X013317Y022819D01*
X013317Y023423D01*
X013224Y023516D01*
X012914Y023516D01*
X012855Y023575D01*
X012500Y023575D01*
X012483Y023592D01*
X012850Y023592D01*
X012943Y023685D01*
X012943Y024289D01*
X012850Y024382D01*
X012844Y024382D01*
X012844Y024576D01*
X012948Y024576D01*
X013001Y024629D01*
X013053Y024576D01*
X013157Y024576D01*
X013157Y024382D01*
X013151Y024382D01*
X013058Y024289D01*
X013058Y023685D01*
X013151Y023592D01*
X013598Y023592D01*
X013691Y023685D01*
X013691Y024289D01*
X013598Y024382D01*
X013592Y024382D01*
X013592Y024822D01*
X014075Y025305D01*
X014203Y025432D01*
X014203Y026683D01*
X014848Y026683D01*
X014848Y026676D01*
X014941Y026583D01*
X015390Y026583D01*
X015483Y026676D01*
X015483Y027125D01*
X015390Y027218D01*
X014941Y027218D01*
X014848Y027125D01*
X014848Y027118D01*
X014173Y027118D01*
X013612Y027680D01*
X013612Y027951D01*
X013519Y028044D01*
X013073Y028044D01*
X013001Y027971D01*
X012928Y028044D01*
X012923Y028044D01*
X012923Y028317D01*
X012928Y028317D01*
X012946Y028334D01*
X013040Y028239D01*
X013551Y028239D01*
X013689Y028377D01*
X013689Y028967D01*
X013591Y029065D01*
X013591Y029223D01*
X013546Y029332D01*
X013251Y029627D01*
X013168Y029710D01*
X013059Y029755D01*
X012139Y029755D01*
X011524Y030369D01*
X011524Y031616D01*
X011623Y031714D01*
X011812Y031525D01*
X011918Y031525D01*
X011918Y030776D01*
X011913Y030755D01*
X011918Y030718D01*
X011918Y030680D01*
X011926Y030660D01*
X011929Y030639D01*
X011948Y030607D01*
X011963Y030572D01*
X011978Y030557D01*
X011989Y030538D01*
X012019Y030515D01*
X012046Y030489D01*
X012066Y030481D01*
X012413Y030220D01*
X012440Y030193D01*
X012459Y030185D01*
X012477Y030172D01*
X012513Y030163D01*
X012548Y030149D01*
X012570Y030149D01*
X012590Y030143D01*
X012628Y030149D01*
X017430Y030149D01*
X017430Y029287D01*
X017248Y029105D01*
X016977Y029105D01*
X016883Y029011D01*
X016865Y029028D01*
X016419Y029028D01*
X016326Y028935D01*
X016326Y028410D01*
X016419Y028317D01*
X016424Y028317D01*
X016424Y028044D01*
X016419Y028044D01*
X016326Y027951D01*
X016326Y027425D01*
X016419Y027332D01*
X016424Y027332D01*
X016424Y027007D01*
X016484Y026948D01*
X016484Y026539D01*
X016577Y026446D01*
X017299Y026446D01*
X017392Y026539D01*
X017392Y027065D01*
X017299Y027158D01*
X016890Y027158D01*
X016860Y027188D01*
X016860Y027332D01*
X016865Y027332D01*
X016938Y027404D01*
X017010Y027332D01*
X017379Y027332D01*
X017704Y027007D01*
X017704Y025731D01*
X017261Y025288D01*
X016990Y025288D01*
X016938Y025235D01*
X016885Y025288D01*
X016880Y025288D01*
X016880Y025452D01*
X016890Y025462D01*
X017299Y025462D01*
X017392Y025555D01*
X017392Y026080D01*
X017299Y026173D01*
X016577Y026173D01*
X016484Y026080D01*
X016484Y025672D01*
X016444Y025632D01*
X016444Y025288D01*
X016439Y025288D01*
X016346Y025195D01*
X016346Y024669D01*
X016439Y024576D01*
X016444Y024576D01*
X016444Y024382D01*
X016340Y024382D01*
X016247Y024289D01*
X016247Y023765D01*
X015974Y024038D01*
X015974Y027548D01*
X016001Y027548D01*
X016094Y027641D01*
X016094Y028129D01*
X016001Y028222D01*
X015512Y028222D01*
X015419Y028129D01*
X015419Y027641D01*
X015512Y027548D01*
X015539Y027548D01*
X015539Y023858D01*
X015666Y023730D01*
X015666Y023730D01*
X016257Y023139D01*
X016611Y023139D01*
X016621Y023129D01*
X016621Y022819D01*
X016714Y022726D01*
X017161Y022726D01*
X017254Y022819D01*
X017254Y023423D01*
X017161Y023516D01*
X016851Y023516D01*
X016792Y023575D01*
X016437Y023575D01*
X016420Y023592D01*
X016787Y023592D01*
X016880Y023685D01*
X016880Y024576D01*
X016885Y024576D01*
X016938Y024629D01*
X016990Y024576D01*
X017015Y024576D01*
X017015Y024309D01*
X016995Y024289D01*
X016995Y023685D01*
X017088Y023592D01*
X017535Y023592D01*
X017628Y023685D01*
X017628Y024289D01*
X017535Y024382D01*
X017451Y024382D01*
X017451Y024591D01*
X017529Y024669D01*
X017529Y024940D01*
X018140Y025550D01*
X018140Y026683D01*
X018785Y026683D01*
X018785Y026676D01*
X018878Y026583D01*
X019327Y026583D01*
X019420Y026676D01*
X019420Y027125D01*
X019327Y027218D01*
X018878Y027218D01*
X018785Y027125D01*
X018785Y027118D01*
X018140Y027118D01*
X018140Y027188D01*
X018012Y027315D01*
X017549Y027778D01*
X017549Y027951D01*
X017456Y028044D01*
X017010Y028044D01*
X016938Y027971D01*
X016865Y028044D01*
X016860Y028044D01*
X016860Y028317D01*
X016865Y028317D01*
X016883Y028334D01*
X016977Y028239D01*
X017488Y028239D01*
X017627Y028377D01*
X017627Y028648D01*
X017892Y028914D01*
X017975Y028997D01*
X018020Y029106D01*
X018020Y031616D01*
X018119Y031714D01*
X018217Y031616D01*
X018217Y030779D01*
X018262Y030670D01*
X018345Y030587D01*
X019723Y029209D01*
X019832Y029164D01*
X020752Y029164D01*
X020863Y029054D01*
X020820Y029011D01*
X020802Y029028D01*
X020356Y029028D01*
X020263Y028935D01*
X020263Y028410D01*
X020356Y028317D01*
X020361Y028317D01*
X020361Y028044D01*
X020356Y028044D01*
X020263Y027951D01*
X020263Y027425D01*
X020356Y027332D01*
X020361Y027332D01*
X020361Y027158D01*
X020317Y027158D01*
X020224Y027065D01*
X020224Y026539D01*
X020317Y026446D01*
X021039Y026446D01*
X021132Y026539D01*
X021132Y027065D01*
X021039Y027158D01*
X020797Y027158D01*
X020797Y027332D01*
X020802Y027332D01*
X020875Y027404D01*
X020947Y027332D01*
X021393Y027332D01*
X021453Y027392D01*
X021641Y027204D01*
X021641Y025731D01*
X021198Y025288D01*
X020927Y025288D01*
X020895Y025256D01*
X020895Y025462D01*
X021039Y025462D01*
X021132Y025555D01*
X021132Y026080D01*
X021039Y026173D01*
X020317Y026173D01*
X020224Y026080D01*
X020224Y025555D01*
X020317Y025462D01*
X020460Y025462D01*
X020460Y025288D01*
X020376Y025288D01*
X020283Y025195D01*
X020283Y024669D01*
X020376Y024576D01*
X020381Y024576D01*
X020381Y024382D01*
X020277Y024382D01*
X020184Y024289D01*
X020184Y023765D01*
X019911Y024038D01*
X019911Y027548D01*
X019938Y027548D01*
X020031Y027641D01*
X020031Y028129D01*
X019938Y028222D01*
X019449Y028222D01*
X019356Y028129D01*
X019356Y027641D01*
X019449Y027548D01*
X019476Y027548D01*
X019476Y023858D01*
X019603Y023730D01*
X020194Y023139D01*
X020548Y023139D01*
X020558Y023129D01*
X020558Y022819D01*
X020651Y022726D01*
X021098Y022726D01*
X021191Y022819D01*
X021191Y023423D01*
X021098Y023516D01*
X020788Y023516D01*
X020729Y023575D01*
X020374Y023575D01*
X020357Y023592D01*
X020724Y023592D01*
X020817Y023685D01*
X020817Y024576D01*
X020822Y024576D01*
X020875Y024629D01*
X020927Y024576D01*
X020932Y024576D01*
X020932Y023685D01*
X021025Y023592D01*
X021472Y023592D01*
X021565Y023685D01*
X021565Y024289D01*
X021472Y024382D01*
X021368Y024382D01*
X021368Y024576D01*
X021373Y024576D01*
X021466Y024669D01*
X021466Y024940D01*
X021949Y025423D01*
X022077Y025550D01*
X022077Y026486D01*
X022722Y026486D01*
X022722Y026479D01*
X022815Y026386D01*
X023264Y026386D01*
X023357Y026479D01*
X023357Y026928D01*
X023264Y027021D01*
X022815Y027021D01*
X022722Y026928D01*
X022722Y026921D01*
X022077Y026921D01*
X022077Y027384D01*
X021949Y027512D01*
X021683Y027778D01*
X021555Y027906D01*
X021486Y027906D01*
X021486Y027951D01*
X021393Y028044D01*
X020947Y028044D01*
X020875Y027971D01*
X020802Y028044D01*
X020797Y028044D01*
X020797Y028317D01*
X020802Y028317D01*
X020820Y028334D01*
X020914Y028239D01*
X021425Y028239D01*
X021564Y028377D01*
X021564Y028967D01*
X021465Y029065D01*
X021465Y029223D01*
X021420Y029332D01*
X021125Y029627D01*
X021042Y029710D01*
X020933Y029755D01*
X020013Y029755D01*
X018808Y030960D01*
X018808Y031616D01*
X019006Y031814D01*
X019006Y032223D01*
X018717Y032512D01*
X018308Y032512D01*
X018119Y032323D01*
X017929Y032512D01*
X017520Y032512D01*
X017331Y032323D01*
X017142Y032512D01*
X016733Y032512D01*
X016544Y032323D01*
X016355Y032512D01*
X015946Y032512D01*
X015702Y032268D01*
X015535Y032435D01*
X015190Y032435D01*
X014992Y032236D01*
X014992Y032342D01*
X014899Y032435D01*
X014832Y032435D01*
X014832Y033139D01*
X025406Y033139D01*
X026922Y031623D01*
X026768Y031687D01*
X026587Y031687D01*
X026420Y031617D01*
X026291Y031489D01*
X026222Y031322D01*
X026222Y031141D01*
X026291Y030973D01*
X026420Y030845D01*
X026421Y030845D01*
X026421Y030448D01*
X025184Y029212D01*
X025145Y029117D01*
X025145Y027046D01*
X025154Y027023D01*
X025062Y026931D01*
X024948Y026656D01*
X024948Y025177D01*
X025062Y024901D01*
X025273Y024690D01*
X025440Y024621D01*
X025440Y023877D01*
X025479Y023782D01*
X025991Y023270D01*
X025991Y022583D01*
X026084Y022490D01*
X026846Y022490D01*
X026939Y022583D01*
X026939Y023738D01*
X026846Y023831D01*
X026158Y023831D01*
X025955Y024035D01*
X025955Y024621D01*
X026122Y024690D01*
X026333Y024901D01*
X026447Y025177D01*
X026447Y026656D01*
X026333Y026931D01*
X026122Y027142D01*
X025846Y027256D01*
X025659Y027256D01*
X025659Y028959D01*
X026823Y030123D01*
X026896Y030196D01*
X026935Y030290D01*
X026935Y030845D01*
X026936Y030845D01*
X027064Y030973D01*
X027133Y031141D01*
X027133Y031322D01*
X027070Y031476D01*
X027222Y031323D01*
X027222Y031322D01*
X027222Y031141D01*
X027291Y030973D01*
X027420Y030845D01*
X027587Y030776D01*
X027768Y030776D01*
X027769Y030776D01*
X027901Y030644D01*
X027901Y028196D01*
X027739Y028358D01*
X027500Y028457D01*
X026257Y028457D01*
X026018Y028358D01*
X025835Y028175D01*
X025735Y027935D01*
X025735Y027677D01*
X025835Y027437D01*
X026018Y027254D01*
X026257Y027155D01*
X027500Y027155D01*
X027739Y027254D01*
X027901Y027416D01*
X027901Y027006D01*
X027789Y026960D01*
X027606Y026777D01*
X027507Y026538D01*
X027507Y025295D01*
X027606Y025055D01*
X027789Y024872D01*
X027901Y024826D01*
X027901Y023831D01*
X027502Y023831D01*
X027409Y023738D01*
X027409Y022583D01*
X027502Y022490D01*
X028263Y022490D01*
X028356Y022583D01*
X028356Y023270D01*
X028376Y023290D01*
X028415Y023385D01*
X028415Y024826D01*
X028527Y024872D01*
X028710Y025055D01*
X028809Y025295D01*
X028809Y026538D01*
X028710Y026777D01*
X028527Y026960D01*
X028415Y027006D01*
X028415Y030802D01*
X028376Y030897D01*
X028304Y030969D01*
X028133Y031140D01*
X028133Y031141D01*
X028133Y031322D01*
X028064Y031489D01*
X027936Y031617D01*
X027768Y031687D01*
X027587Y031687D01*
X027586Y031686D01*
X025730Y033542D01*
X025658Y033615D01*
X025563Y033654D01*
X010193Y033654D01*
X010099Y033615D01*
X010027Y033542D01*
X008919Y032435D01*
X008543Y032435D01*
X008450Y032342D01*
X008450Y031695D01*
X008543Y031602D01*
X009190Y031602D01*
X009283Y031695D01*
X009283Y031801D01*
X009482Y031602D01*
X009826Y031602D01*
X009993Y031769D01*
X010146Y031616D01*
X010146Y029877D01*
X009374Y029105D01*
X009103Y029105D01*
X009009Y029011D01*
X008991Y029028D01*
X008545Y029028D01*
X008452Y028935D01*
X008452Y028410D01*
X008545Y028317D01*
X008550Y028317D01*
X008550Y028044D01*
X008545Y028044D01*
X008452Y027951D01*
X008452Y027425D01*
X008545Y027332D01*
X008550Y027332D01*
X008550Y027007D01*
X008610Y026948D01*
X008610Y026539D01*
X008702Y026446D01*
X009425Y026446D01*
X009518Y026539D01*
X009518Y027065D01*
X009425Y027158D01*
X009016Y027158D01*
X008986Y027188D01*
X008986Y027332D01*
X008991Y027332D01*
X009064Y027404D01*
X009136Y027332D01*
X009406Y027332D01*
X009830Y026909D01*
X009830Y025731D01*
X009387Y025288D01*
X009116Y025288D01*
X009064Y025235D01*
X009011Y025288D01*
X009006Y025288D01*
X009006Y025452D01*
X009016Y025462D01*
X009425Y025462D01*
X009518Y025555D01*
X009518Y026080D01*
X009425Y026173D01*
X008702Y026173D01*
X008610Y026080D01*
X008610Y025672D01*
X008570Y025632D01*
X008570Y025288D01*
X008565Y025288D01*
X008472Y025195D01*
X008472Y024382D01*
X008466Y024382D01*
X008373Y024289D01*
X008373Y023685D01*
X008416Y023643D02*
X005999Y023643D01*
X005999Y023799D02*
X008373Y023799D01*
X008373Y023955D02*
X005999Y023955D01*
X005999Y024110D02*
X008373Y024110D01*
X008373Y024266D02*
X005999Y024266D01*
X005999Y024422D02*
X008472Y024422D01*
X008472Y024578D02*
X005999Y024578D01*
X005999Y024734D02*
X008472Y024734D01*
X008472Y024890D02*
X005999Y024890D01*
X005999Y025046D02*
X008472Y025046D01*
X008479Y025202D02*
X005999Y025202D01*
X005999Y025358D02*
X008570Y025358D01*
X008570Y025514D02*
X005999Y025514D01*
X005999Y025670D02*
X008608Y025670D01*
X008610Y025826D02*
X005999Y025826D01*
X005999Y025982D02*
X008610Y025982D01*
X008667Y026138D02*
X005999Y026138D01*
X005999Y026294D02*
X009830Y026294D01*
X009830Y026138D02*
X009460Y026138D01*
X009518Y025982D02*
X009830Y025982D01*
X009830Y025826D02*
X009518Y025826D01*
X009518Y025670D02*
X009769Y025670D01*
X009613Y025514D02*
X009477Y025514D01*
X009457Y025358D02*
X009006Y025358D01*
X009013Y024578D02*
X009114Y024578D01*
X009220Y024422D02*
X008907Y024422D01*
X009006Y024266D02*
X009121Y024266D01*
X009121Y024110D02*
X009006Y024110D01*
X009006Y023955D02*
X009121Y023955D01*
X009121Y023799D02*
X009006Y023799D01*
X008963Y023643D02*
X009164Y023643D01*
X009316Y023487D02*
X011973Y023487D01*
X011817Y023643D02*
X009711Y023643D01*
X009754Y023799D02*
X011661Y023799D01*
X011602Y023955D02*
X009754Y023955D01*
X009754Y024110D02*
X011602Y024110D01*
X011602Y024266D02*
X009754Y024266D01*
X009655Y024422D02*
X011602Y024422D01*
X011602Y024578D02*
X009655Y024578D01*
X009655Y024734D02*
X011602Y024734D01*
X011602Y024890D02*
X009655Y024890D01*
X009761Y025046D02*
X011602Y025046D01*
X011602Y025202D02*
X009917Y025202D01*
X010073Y025358D02*
X011602Y025358D01*
X011602Y025514D02*
X010229Y025514D01*
X010266Y025670D02*
X011602Y025670D01*
X011602Y025826D02*
X010266Y025826D01*
X010266Y025982D02*
X011602Y025982D01*
X011602Y026138D02*
X010266Y026138D01*
X010266Y026294D02*
X011602Y026294D01*
X011602Y026450D02*
X010266Y026450D01*
X010266Y026606D02*
X010981Y026606D01*
X011477Y026606D02*
X011602Y026606D01*
X011602Y026762D02*
X011546Y026762D01*
X011546Y026918D02*
X011602Y026918D01*
X011602Y027074D02*
X011546Y027074D01*
X011602Y027230D02*
X010125Y027230D01*
X009969Y027386D02*
X011602Y027386D01*
X011602Y027542D02*
X009813Y027542D01*
X009675Y027698D02*
X011482Y027698D01*
X011482Y027854D02*
X009675Y027854D01*
X009616Y028010D02*
X011482Y028010D01*
X011519Y028166D02*
X008986Y028166D01*
X008997Y028322D02*
X009021Y028322D01*
X009025Y028010D02*
X009102Y028010D01*
X008550Y028166D02*
X005999Y028166D01*
X005999Y028322D02*
X008540Y028322D01*
X008452Y028478D02*
X005999Y028478D01*
X005999Y028634D02*
X008452Y028634D01*
X008452Y028790D02*
X005999Y028790D01*
X005999Y028946D02*
X008463Y028946D01*
X009100Y029102D02*
X005999Y029102D01*
X005999Y029258D02*
X009527Y029258D01*
X009683Y029414D02*
X005999Y029414D01*
X005999Y029570D02*
X009839Y029570D01*
X009995Y029726D02*
X005999Y029726D01*
X005999Y029882D02*
X010146Y029882D01*
X010146Y030038D02*
X005999Y030038D01*
X005999Y030194D02*
X010146Y030194D01*
X010146Y030350D02*
X005999Y030350D01*
X005999Y030506D02*
X010146Y030506D01*
X010146Y030662D02*
X005999Y030662D01*
X005999Y030818D02*
X010146Y030818D01*
X010146Y030974D02*
X005999Y030974D01*
X005999Y031130D02*
X010146Y031130D01*
X010146Y031286D02*
X005999Y031286D01*
X005999Y031442D02*
X010146Y031442D01*
X010146Y031598D02*
X005999Y031598D01*
X005999Y031754D02*
X008450Y031754D01*
X008450Y031910D02*
X006904Y031910D01*
X006498Y031910D02*
X005999Y031910D01*
X005999Y032065D02*
X006108Y032065D01*
X007295Y032065D02*
X008450Y032065D01*
X008450Y032221D02*
X007488Y032221D01*
X007620Y032377D02*
X008486Y032377D01*
X009018Y032533D02*
X007710Y032533D01*
X007765Y032689D02*
X009174Y032689D01*
X009330Y032845D02*
X007807Y032845D01*
X007810Y033001D02*
X009486Y033001D01*
X009642Y033157D02*
X007808Y033157D01*
X007766Y033313D02*
X009798Y033313D01*
X009954Y033469D02*
X007712Y033469D01*
X007622Y033625D02*
X010125Y033625D01*
X010008Y031754D02*
X009978Y031754D01*
X009331Y031754D02*
X009283Y031754D01*
X010737Y031598D02*
X010934Y031598D01*
X010934Y031442D02*
X010737Y031442D01*
X010737Y031286D02*
X010934Y031286D01*
X010934Y031130D02*
X010737Y031130D01*
X010737Y030974D02*
X010934Y030974D01*
X010934Y030818D02*
X010737Y030818D01*
X010737Y030662D02*
X010934Y030662D01*
X010934Y030506D02*
X010737Y030506D01*
X010737Y030350D02*
X010934Y030350D01*
X010934Y030194D02*
X010737Y030194D01*
X010737Y030038D02*
X011021Y030038D01*
X011176Y029882D02*
X010737Y029882D01*
X010737Y029726D02*
X011332Y029726D01*
X011488Y029570D02*
X010674Y029570D01*
X010518Y029414D02*
X011644Y029414D01*
X011800Y029258D02*
X010362Y029258D01*
X010206Y029102D02*
X012941Y029102D01*
X013308Y029570D02*
X017430Y029570D01*
X017430Y029726D02*
X013129Y029726D01*
X013464Y029414D02*
X017430Y029414D01*
X017401Y029258D02*
X013577Y029258D01*
X013591Y029102D02*
X016974Y029102D01*
X016895Y028322D02*
X016871Y028322D01*
X016860Y028166D02*
X019393Y028166D01*
X019356Y028010D02*
X017490Y028010D01*
X017549Y027854D02*
X019356Y027854D01*
X019356Y027698D02*
X017629Y027698D01*
X017785Y027542D02*
X019476Y027542D01*
X019476Y027386D02*
X017941Y027386D01*
X018012Y027315D02*
X018012Y027315D01*
X018097Y027230D02*
X019476Y027230D01*
X019476Y027074D02*
X019420Y027074D01*
X019420Y026918D02*
X019476Y026918D01*
X019476Y026762D02*
X019420Y026762D01*
X019476Y026606D02*
X019351Y026606D01*
X019476Y026450D02*
X018140Y026450D01*
X018140Y026294D02*
X019476Y026294D01*
X019476Y026138D02*
X018140Y026138D01*
X018140Y025982D02*
X019476Y025982D01*
X019476Y025826D02*
X018140Y025826D01*
X018140Y025670D02*
X019476Y025670D01*
X019476Y025514D02*
X018103Y025514D01*
X017947Y025358D02*
X019476Y025358D01*
X019476Y025202D02*
X017791Y025202D01*
X017635Y025046D02*
X019476Y025046D01*
X019476Y024890D02*
X017529Y024890D01*
X017529Y024734D02*
X019476Y024734D01*
X019476Y024578D02*
X017451Y024578D01*
X017451Y024422D02*
X019476Y024422D01*
X019476Y024266D02*
X017628Y024266D01*
X017628Y024110D02*
X019476Y024110D01*
X019476Y023955D02*
X017628Y023955D01*
X017628Y023799D02*
X019535Y023799D01*
X019691Y023643D02*
X017585Y023643D01*
X017190Y023487D02*
X019847Y023487D01*
X020003Y023331D02*
X017254Y023331D01*
X017254Y023175D02*
X020159Y023175D01*
X020558Y023019D02*
X017254Y023019D01*
X017254Y022863D02*
X020558Y022863D01*
X020774Y023643D02*
X020975Y023643D01*
X020932Y023799D02*
X020817Y023799D01*
X020817Y023955D02*
X020932Y023955D01*
X020932Y024110D02*
X020817Y024110D01*
X020817Y024266D02*
X020932Y024266D01*
X020932Y024422D02*
X020817Y024422D01*
X020824Y024578D02*
X020925Y024578D01*
X020374Y024578D02*
X019911Y024578D01*
X019911Y024422D02*
X020381Y024422D01*
X020184Y024266D02*
X019911Y024266D01*
X019911Y024110D02*
X020184Y024110D01*
X020184Y023955D02*
X019995Y023955D01*
X020151Y023799D02*
X020184Y023799D01*
X020283Y024734D02*
X019911Y024734D01*
X019911Y024890D02*
X020283Y024890D01*
X020283Y025046D02*
X019911Y025046D01*
X019911Y025202D02*
X020290Y025202D01*
X020460Y025358D02*
X019911Y025358D01*
X019911Y025514D02*
X020265Y025514D01*
X020224Y025670D02*
X019911Y025670D01*
X019911Y025826D02*
X020224Y025826D01*
X020224Y025982D02*
X019911Y025982D01*
X019911Y026138D02*
X020281Y026138D01*
X020313Y026450D02*
X019911Y026450D01*
X019911Y026294D02*
X021641Y026294D01*
X021641Y026138D02*
X021074Y026138D01*
X021132Y025982D02*
X021641Y025982D01*
X021641Y025826D02*
X021132Y025826D01*
X021132Y025670D02*
X021580Y025670D01*
X021424Y025514D02*
X021091Y025514D01*
X021268Y025358D02*
X020895Y025358D01*
X021466Y024890D02*
X023570Y024890D01*
X023570Y024734D02*
X021466Y024734D01*
X021375Y024578D02*
X023570Y024578D01*
X023570Y024422D02*
X021368Y024422D01*
X021565Y024266D02*
X023570Y024266D01*
X023570Y024110D02*
X021565Y024110D01*
X021565Y023955D02*
X023570Y023955D01*
X023570Y023799D02*
X021565Y023799D01*
X021522Y023643D02*
X023570Y023643D01*
X023570Y023487D02*
X021127Y023487D01*
X021191Y023331D02*
X023570Y023331D01*
X023570Y023175D02*
X021191Y023175D01*
X021191Y023019D02*
X023570Y023019D01*
X023570Y022863D02*
X021191Y022863D01*
X022477Y021335D02*
X022444Y021302D01*
X022421Y021261D01*
X022408Y021215D01*
X022408Y020995D01*
X022408Y020775D01*
X022421Y020729D01*
X022444Y020688D01*
X022477Y020655D01*
X022518Y020632D01*
X022564Y020619D01*
X022745Y020619D01*
X022745Y020995D01*
X022745Y020995D01*
X022745Y020995D01*
X022745Y021371D01*
X022564Y021371D01*
X022518Y021358D01*
X022477Y021335D01*
X022445Y021303D02*
X017943Y021303D01*
X017943Y021459D02*
X023570Y021459D01*
X023570Y021615D02*
X017949Y021615D01*
X018105Y021771D02*
X023570Y021771D01*
X023570Y021927D02*
X018141Y021927D01*
X018141Y022083D02*
X023570Y022083D01*
X023570Y022239D02*
X018054Y022239D01*
X017898Y022395D02*
X023570Y022395D01*
X024084Y022395D02*
X025429Y022395D01*
X025559Y022239D02*
X024084Y022239D01*
X024084Y022083D02*
X025689Y022083D01*
X025819Y021927D02*
X024084Y021927D01*
X024084Y021771D02*
X025948Y021771D01*
X026078Y021615D02*
X024084Y021615D01*
X024084Y021459D02*
X026205Y021459D01*
X026225Y021439D02*
X026277Y021377D01*
X026288Y021376D01*
X026296Y021368D01*
X026376Y021368D01*
X026456Y021360D01*
X026465Y021368D01*
X027871Y021368D01*
X028531Y020708D01*
X028531Y020133D01*
X028545Y020119D01*
X028545Y019688D01*
X028638Y019595D01*
X029284Y019595D01*
X029377Y019688D01*
X029377Y020334D01*
X029284Y020427D01*
X028966Y020427D01*
X028966Y020888D01*
X028839Y021016D01*
X028051Y021803D01*
X026488Y021803D01*
X024636Y024027D01*
X024636Y027548D01*
X024662Y027548D01*
X024755Y027641D01*
X024755Y028129D01*
X024662Y028222D01*
X024174Y028222D01*
X024081Y028129D01*
X024081Y027641D01*
X024174Y027548D01*
X024200Y027548D01*
X024200Y023958D01*
X024193Y023878D01*
X024200Y023869D01*
X024200Y023858D01*
X024257Y023801D01*
X026169Y021507D01*
X026169Y021495D01*
X026225Y021439D01*
X026386Y021927D02*
X030632Y021927D01*
X030632Y022083D02*
X026256Y022083D01*
X026126Y022239D02*
X030632Y022239D01*
X030632Y022395D02*
X025996Y022395D01*
X026023Y022551D02*
X025866Y022551D01*
X025991Y022707D02*
X025736Y022707D01*
X025606Y022863D02*
X025991Y022863D01*
X025991Y023019D02*
X025476Y023019D01*
X025346Y023175D02*
X025991Y023175D01*
X025931Y023331D02*
X025216Y023331D01*
X025086Y023487D02*
X025775Y023487D01*
X025619Y023643D02*
X024956Y023643D01*
X024826Y023799D02*
X025473Y023799D01*
X025440Y023955D02*
X024696Y023955D01*
X024636Y024110D02*
X025440Y024110D01*
X025440Y024266D02*
X024636Y024266D01*
X024636Y024422D02*
X025440Y024422D01*
X025440Y024578D02*
X024636Y024578D01*
X024636Y024734D02*
X025229Y024734D01*
X025073Y024890D02*
X024636Y024890D01*
X024636Y025046D02*
X025002Y025046D01*
X024948Y025202D02*
X024636Y025202D01*
X024636Y025358D02*
X024948Y025358D01*
X024948Y025514D02*
X024636Y025514D01*
X024636Y025670D02*
X024948Y025670D01*
X024948Y025826D02*
X024636Y025826D01*
X024636Y025982D02*
X024948Y025982D01*
X024948Y026138D02*
X024636Y026138D01*
X024636Y026294D02*
X024948Y026294D01*
X024948Y026450D02*
X024636Y026450D01*
X024636Y026606D02*
X024948Y026606D01*
X024992Y026762D02*
X024636Y026762D01*
X024636Y026918D02*
X025057Y026918D01*
X025145Y027074D02*
X024636Y027074D01*
X024636Y027230D02*
X025145Y027230D01*
X025145Y027386D02*
X024636Y027386D01*
X024636Y027542D02*
X025145Y027542D01*
X025145Y027698D02*
X024755Y027698D01*
X024755Y027854D02*
X025145Y027854D01*
X025145Y028010D02*
X024755Y028010D01*
X024718Y028166D02*
X025145Y028166D01*
X025145Y028322D02*
X023321Y028322D01*
X023465Y028166D02*
X024118Y028166D01*
X024081Y028010D02*
X023608Y028010D01*
X023752Y027854D02*
X024081Y027854D01*
X024081Y027698D02*
X023896Y027698D01*
X024042Y027542D02*
X024200Y027542D01*
X024200Y027386D02*
X024084Y027386D01*
X024084Y027230D02*
X024200Y027230D01*
X024200Y027074D02*
X024084Y027074D01*
X024084Y026918D02*
X024200Y026918D01*
X024200Y026762D02*
X024084Y026762D01*
X024084Y026606D02*
X024200Y026606D01*
X024200Y026450D02*
X024084Y026450D01*
X024084Y026294D02*
X024200Y026294D01*
X024200Y026138D02*
X024084Y026138D01*
X024084Y025982D02*
X024200Y025982D01*
X024200Y025826D02*
X024084Y025826D01*
X024084Y025670D02*
X024200Y025670D01*
X024200Y025514D02*
X024084Y025514D01*
X024084Y025358D02*
X024200Y025358D01*
X024200Y025202D02*
X024084Y025202D01*
X024084Y025046D02*
X024200Y025046D01*
X024200Y024890D02*
X024084Y024890D01*
X024084Y024734D02*
X024200Y024734D01*
X024200Y024578D02*
X024084Y024578D01*
X024084Y024422D02*
X024200Y024422D01*
X024200Y024266D02*
X024084Y024266D01*
X024084Y024110D02*
X024200Y024110D01*
X024200Y023955D02*
X024084Y023955D01*
X024084Y023799D02*
X024259Y023799D01*
X024389Y023643D02*
X024084Y023643D01*
X024084Y023487D02*
X024519Y023487D01*
X024649Y023331D02*
X024084Y023331D01*
X024578Y023175D02*
X024779Y023175D01*
X024909Y023019D02*
X024578Y023019D01*
X024578Y022863D02*
X025039Y022863D01*
X025169Y022707D02*
X024578Y022707D01*
X024084Y022551D02*
X025299Y022551D01*
X026035Y023955D02*
X027901Y023955D01*
X027901Y024110D02*
X025955Y024110D01*
X025955Y024266D02*
X027901Y024266D01*
X027901Y024422D02*
X025955Y024422D01*
X025955Y024578D02*
X027901Y024578D01*
X027901Y024734D02*
X026166Y024734D01*
X026322Y024890D02*
X027771Y024890D01*
X027615Y025046D02*
X026393Y025046D01*
X026447Y025202D02*
X027545Y025202D01*
X027507Y025358D02*
X026447Y025358D01*
X026447Y025514D02*
X027507Y025514D01*
X027507Y025670D02*
X026447Y025670D01*
X026447Y025826D02*
X027507Y025826D01*
X027507Y025982D02*
X026447Y025982D01*
X026447Y026138D02*
X027507Y026138D01*
X027507Y026294D02*
X026447Y026294D01*
X026447Y026450D02*
X027507Y026450D01*
X027535Y026606D02*
X026447Y026606D01*
X026403Y026762D02*
X027600Y026762D01*
X027747Y026918D02*
X026338Y026918D01*
X026190Y027074D02*
X027901Y027074D01*
X027901Y027230D02*
X027681Y027230D01*
X027871Y027386D02*
X027901Y027386D01*
X028415Y027386D02*
X030632Y027386D01*
X030632Y027230D02*
X028415Y027230D01*
X028415Y027074D02*
X030632Y027074D01*
X030632Y026918D02*
X028569Y026918D01*
X028716Y026762D02*
X030632Y026762D01*
X030632Y026606D02*
X028781Y026606D01*
X028809Y026450D02*
X030632Y026450D01*
X030632Y026294D02*
X028809Y026294D01*
X028809Y026138D02*
X030632Y026138D01*
X030632Y025982D02*
X028809Y025982D01*
X028809Y025826D02*
X030632Y025826D01*
X030632Y025670D02*
X028809Y025670D01*
X028809Y025514D02*
X030632Y025514D01*
X030632Y025358D02*
X028809Y025358D01*
X028771Y025202D02*
X030632Y025202D01*
X030632Y025046D02*
X028701Y025046D01*
X028545Y024890D02*
X030632Y024890D01*
X030632Y024734D02*
X028415Y024734D01*
X028415Y024578D02*
X030632Y024578D01*
X030632Y024422D02*
X028415Y024422D01*
X028415Y024266D02*
X030632Y024266D01*
X030632Y024110D02*
X028415Y024110D01*
X028415Y023955D02*
X030632Y023955D01*
X030632Y023799D02*
X028415Y023799D01*
X028415Y023643D02*
X030632Y023643D01*
X030632Y023487D02*
X028415Y023487D01*
X028393Y023331D02*
X030632Y023331D01*
X030632Y023175D02*
X028356Y023175D01*
X028356Y023019D02*
X030632Y023019D01*
X030632Y022863D02*
X028356Y022863D01*
X028356Y022707D02*
X030632Y022707D01*
X030632Y022551D02*
X028324Y022551D01*
X028084Y021771D02*
X030632Y021771D01*
X030632Y021615D02*
X028240Y021615D01*
X028396Y021459D02*
X030632Y021459D01*
X030632Y021303D02*
X028552Y021303D01*
X028708Y021147D02*
X030632Y021147D01*
X030632Y020991D02*
X028864Y020991D01*
X028966Y020835D02*
X030632Y020835D01*
X030632Y020679D02*
X028966Y020679D01*
X028966Y020523D02*
X030632Y020523D01*
X030632Y020367D02*
X029344Y020367D01*
X029377Y020211D02*
X030632Y020211D01*
X030632Y020055D02*
X029377Y020055D01*
X029377Y019899D02*
X030632Y019899D01*
X030632Y019743D02*
X029377Y019743D01*
X028545Y019743D02*
X028377Y019743D01*
X028377Y019688D02*
X028284Y019595D01*
X027638Y019595D01*
X027545Y019688D01*
X027545Y020334D01*
X027638Y020427D01*
X028284Y020427D01*
X028377Y020334D01*
X028377Y019688D01*
X028377Y019899D02*
X028545Y019899D01*
X028545Y020055D02*
X028377Y020055D01*
X028377Y020211D02*
X028531Y020211D01*
X028531Y020367D02*
X028344Y020367D01*
X028531Y020523D02*
X024084Y020523D01*
X024084Y020679D02*
X028531Y020679D01*
X028404Y020835D02*
X024084Y020835D01*
X024084Y020991D02*
X028248Y020991D01*
X028092Y021147D02*
X024084Y021147D01*
X024084Y021303D02*
X027936Y021303D01*
X027578Y020367D02*
X027344Y020367D01*
X027377Y020334D02*
X027284Y020427D01*
X026638Y020427D01*
X026545Y020334D01*
X026545Y019688D01*
X026638Y019595D01*
X027284Y019595D01*
X027377Y019688D01*
X027377Y020334D01*
X027377Y020211D02*
X027545Y020211D01*
X027545Y020055D02*
X027377Y020055D01*
X027377Y019899D02*
X027545Y019899D01*
X027545Y019743D02*
X027377Y019743D01*
X026545Y019743D02*
X024084Y019743D01*
X024084Y019587D02*
X030632Y019587D01*
X030632Y019431D02*
X024084Y019431D01*
X024084Y019275D02*
X030632Y019275D01*
X030632Y019119D02*
X024062Y019119D01*
X023931Y018963D02*
X030632Y018963D01*
X030632Y018807D02*
X023775Y018807D01*
X023619Y018651D02*
X029449Y018651D01*
X029208Y018495D02*
X023463Y018495D01*
X023307Y018339D02*
X029052Y018339D01*
X028958Y018183D02*
X023151Y018183D01*
X022995Y018027D02*
X028883Y018027D01*
X028842Y017871D02*
X022839Y017871D01*
X022683Y017715D02*
X028821Y017715D01*
X028821Y017559D02*
X022527Y017559D01*
X022371Y017403D02*
X028848Y017403D01*
X030410Y018651D02*
X030632Y018651D01*
X027441Y022551D02*
X026907Y022551D01*
X026939Y022707D02*
X027409Y022707D01*
X027409Y022863D02*
X026939Y022863D01*
X026939Y023019D02*
X027409Y023019D01*
X027409Y023175D02*
X026939Y023175D01*
X026939Y023331D02*
X027409Y023331D01*
X027409Y023487D02*
X026939Y023487D01*
X026939Y023643D02*
X027409Y023643D01*
X027469Y023799D02*
X026878Y023799D01*
X026578Y020367D02*
X024084Y020367D01*
X024084Y020211D02*
X026545Y020211D01*
X026545Y020055D02*
X024084Y020055D01*
X024084Y019899D02*
X026545Y019899D01*
X023570Y020055D02*
X017989Y020055D01*
X017943Y020211D02*
X023570Y020211D01*
X023570Y020367D02*
X017943Y020367D01*
X017943Y020523D02*
X023570Y020523D01*
X023072Y020679D02*
X023036Y020679D01*
X022745Y020679D02*
X022745Y020679D01*
X022745Y020835D02*
X022745Y020835D01*
X022745Y020991D02*
X022745Y020991D01*
X022745Y020995D02*
X022408Y020995D01*
X022745Y020995D01*
X022745Y020995D01*
X022745Y021147D02*
X022745Y021147D01*
X022745Y021303D02*
X022745Y021303D01*
X023044Y021303D02*
X023064Y021303D01*
X022408Y021147D02*
X017943Y021147D01*
X017943Y020991D02*
X022408Y020991D01*
X022408Y020835D02*
X017943Y020835D01*
X017943Y020679D02*
X022454Y020679D01*
X022450Y019899D02*
X018145Y019899D01*
X018301Y019743D02*
X022428Y019743D01*
X022428Y019587D02*
X018457Y019587D01*
X018613Y019431D02*
X022428Y019431D01*
X022501Y019275D02*
X018769Y019275D01*
X018925Y019119D02*
X023359Y019119D01*
X023203Y018963D02*
X019081Y018963D01*
X019237Y018807D02*
X023047Y018807D01*
X022891Y018651D02*
X020461Y018651D01*
X020617Y018495D02*
X022735Y018495D01*
X022579Y018339D02*
X020700Y018339D01*
X020700Y018183D02*
X022423Y018183D01*
X022268Y018027D02*
X020661Y018027D01*
X020505Y017871D02*
X022112Y017871D01*
X021956Y017715D02*
X017392Y017715D01*
X017392Y017871D02*
X017701Y017871D01*
X017545Y018027D02*
X017511Y018027D01*
X017528Y018434D02*
X017307Y018655D01*
X016962Y018655D01*
X016783Y018477D01*
X016783Y018520D01*
X016771Y018566D01*
X016747Y018606D01*
X016714Y018640D01*
X016673Y018663D01*
X016628Y018675D01*
X016347Y018675D01*
X016066Y018675D01*
X016021Y018663D01*
X015980Y018640D01*
X015946Y018606D01*
X015923Y018566D01*
X015911Y018520D01*
X015911Y018239D01*
X015911Y017958D01*
X015923Y017913D01*
X015946Y017872D01*
X015980Y017839D01*
X016021Y017815D01*
X016066Y017803D01*
X016347Y017803D01*
X016628Y017803D01*
X016673Y017815D01*
X016714Y017839D01*
X016747Y017872D01*
X016771Y017913D01*
X016783Y017958D01*
X016783Y018002D01*
X016877Y017908D01*
X016877Y017709D01*
X010745Y017709D01*
X010631Y017823D01*
X010811Y017823D01*
X011032Y018044D01*
X011253Y017823D01*
X011598Y017823D01*
X011819Y018044D01*
X012041Y017823D01*
X012386Y017823D01*
X012607Y018044D01*
X012828Y017823D01*
X013173Y017823D01*
X013394Y018044D01*
X013616Y017823D01*
X013960Y017823D01*
X014182Y018044D01*
X014403Y017823D01*
X014748Y017823D01*
X014992Y018067D01*
X014992Y018411D01*
X014748Y018655D01*
X014403Y018655D01*
X014182Y018434D01*
X013960Y018655D01*
X013616Y018655D01*
X013394Y018434D01*
X013173Y018655D01*
X012828Y018655D01*
X012607Y018434D01*
X012386Y018655D01*
X012041Y018655D01*
X011819Y018434D01*
X011598Y018655D01*
X011253Y018655D01*
X011032Y018434D01*
X010811Y018655D01*
X010466Y018655D01*
X010245Y018434D01*
X010023Y018655D01*
X009679Y018655D01*
X009500Y018477D01*
X009500Y018520D01*
X009488Y018566D01*
X009464Y018606D01*
X009431Y018640D01*
X009390Y018663D01*
X009345Y018675D01*
X009064Y018675D01*
X009064Y018239D01*
X009064Y017803D01*
X009345Y017803D01*
X009390Y017815D01*
X009431Y017839D01*
X009464Y017872D01*
X009488Y017913D01*
X009500Y017958D01*
X009500Y018002D01*
X009679Y017823D01*
X009903Y017823D01*
X010493Y017234D01*
X010587Y017195D01*
X022107Y017195D01*
X022201Y017234D01*
X022764Y019275D02*
X022764Y019275D01*
X022764Y019431D02*
X022764Y019431D01*
X022764Y019587D02*
X022764Y019587D01*
X022764Y019743D02*
X022764Y019743D01*
X022764Y019899D02*
X022764Y019899D01*
X023028Y019275D02*
X023079Y019275D01*
X020107Y018651D02*
X019673Y018651D01*
X019829Y018495D02*
X019951Y018495D01*
X019907Y018027D02*
X019873Y018027D01*
X019717Y017871D02*
X020063Y017871D01*
X019276Y017871D02*
X018930Y017871D01*
X019086Y018027D02*
X019120Y018027D01*
X018488Y017871D02*
X018143Y017871D01*
X018299Y018027D02*
X018332Y018027D01*
X017985Y018655D02*
X017749Y018655D01*
X017528Y018434D01*
X017467Y018495D02*
X017589Y018495D01*
X017745Y018651D02*
X017311Y018651D01*
X016958Y018651D02*
X016694Y018651D01*
X016783Y018495D02*
X016802Y018495D01*
X016747Y017871D02*
X016877Y017871D01*
X016877Y017715D02*
X010738Y017715D01*
X010859Y017871D02*
X011205Y017871D01*
X011049Y018027D02*
X011015Y018027D01*
X010971Y018495D02*
X011093Y018495D01*
X011249Y018651D02*
X010815Y018651D01*
X010462Y018651D02*
X010027Y018651D01*
X010183Y018495D02*
X010306Y018495D01*
X009674Y018651D02*
X009411Y018651D01*
X009500Y018495D02*
X009518Y018495D01*
X009064Y018495D02*
X009064Y018495D01*
X009064Y018339D02*
X009064Y018339D01*
X009064Y018239D02*
X009064Y018675D01*
X008783Y018675D01*
X008737Y018663D01*
X008696Y018640D01*
X008663Y018606D01*
X008639Y018566D01*
X008627Y018520D01*
X008627Y018239D01*
X008627Y017958D01*
X008639Y017913D01*
X008663Y017872D01*
X008696Y017839D01*
X008737Y017815D01*
X008783Y017803D01*
X009064Y017803D01*
X009064Y018239D01*
X009064Y018239D01*
X009064Y018239D01*
X008627Y018239D01*
X009064Y018239D01*
X009064Y018239D01*
X009064Y018183D02*
X009064Y018183D01*
X009064Y018027D02*
X009064Y018027D01*
X009064Y017871D02*
X009064Y017871D01*
X009463Y017871D02*
X009630Y017871D01*
X010011Y017715D02*
X007810Y017715D01*
X007810Y017559D02*
X010167Y017559D01*
X010323Y017403D02*
X007783Y017403D01*
X007742Y017247D02*
X010479Y017247D01*
X011647Y017871D02*
X011992Y017871D01*
X011836Y018027D02*
X011802Y018027D01*
X011758Y018495D02*
X011881Y018495D01*
X012037Y018651D02*
X011602Y018651D01*
X012390Y018651D02*
X012824Y018651D01*
X012668Y018495D02*
X012546Y018495D01*
X012590Y018027D02*
X012624Y018027D01*
X012780Y017871D02*
X012434Y017871D01*
X013221Y017871D02*
X013567Y017871D01*
X013411Y018027D02*
X013377Y018027D01*
X013333Y018495D02*
X013455Y018495D01*
X013611Y018651D02*
X013177Y018651D01*
X013964Y018651D02*
X014399Y018651D01*
X014243Y018495D02*
X014120Y018495D01*
X014165Y018027D02*
X014199Y018027D01*
X014355Y017871D02*
X014009Y017871D01*
X014796Y017871D02*
X015947Y017871D01*
X015911Y018027D02*
X014952Y018027D01*
X014992Y018183D02*
X015911Y018183D01*
X015911Y018239D02*
X016347Y018239D01*
X016347Y017803D01*
X016347Y018239D01*
X016347Y018239D01*
X016347Y018239D01*
X015911Y018239D01*
X015911Y018339D02*
X014992Y018339D01*
X014908Y018495D02*
X015911Y018495D01*
X016000Y018651D02*
X014752Y018651D01*
X016347Y018651D02*
X016347Y018651D01*
X016347Y018675D02*
X016347Y018239D01*
X016347Y018239D01*
X016347Y018675D01*
X016347Y018495D02*
X016347Y018495D01*
X016347Y018339D02*
X016347Y018339D01*
X016347Y018183D02*
X016347Y018183D01*
X016347Y018027D02*
X016347Y018027D01*
X016347Y017871D02*
X016347Y017871D01*
X017365Y019275D02*
X005999Y019275D01*
X005999Y019119D02*
X017521Y019119D01*
X017677Y018963D02*
X005999Y018963D01*
X005999Y018807D02*
X017833Y018807D01*
X017985Y018655D02*
X016847Y019793D01*
X016720Y019921D01*
X016720Y021608D01*
X016544Y021784D01*
X016323Y021563D01*
X015978Y021563D01*
X015756Y021784D01*
X015535Y021563D01*
X015190Y021563D01*
X014966Y021787D01*
X014742Y021563D01*
X014397Y021563D01*
X014176Y021784D01*
X013954Y021563D01*
X013610Y021563D01*
X013388Y021784D01*
X013167Y021563D01*
X012822Y021563D01*
X012601Y021784D01*
X012380Y021563D01*
X012035Y021563D01*
X011814Y021784D01*
X011592Y021563D01*
X011247Y021563D01*
X011026Y021784D01*
X010805Y021563D01*
X010460Y021563D01*
X010253Y021770D01*
X010026Y021543D01*
X009845Y021543D01*
X009845Y021979D01*
X009845Y021543D01*
X009664Y021543D01*
X009474Y021734D01*
X009474Y021656D01*
X009381Y021563D01*
X008734Y021563D01*
X008641Y021656D01*
X008641Y022302D01*
X008734Y022395D01*
X008641Y022239D02*
X005999Y022239D01*
X005999Y022083D02*
X008641Y022083D01*
X008641Y021927D02*
X005999Y021927D01*
X005999Y021771D02*
X008641Y021771D01*
X008683Y021615D02*
X005999Y021615D01*
X005999Y021459D02*
X016720Y021459D01*
X016713Y021615D02*
X016374Y021615D01*
X016530Y021771D02*
X016557Y021771D01*
X016720Y021303D02*
X005999Y021303D01*
X005999Y021147D02*
X016720Y021147D01*
X016720Y020991D02*
X005999Y020991D01*
X005999Y020835D02*
X016720Y020835D01*
X016720Y020679D02*
X005999Y020679D01*
X005999Y020523D02*
X016720Y020523D01*
X016720Y020367D02*
X005999Y020367D01*
X005999Y020211D02*
X016720Y020211D01*
X016720Y020055D02*
X005999Y020055D01*
X005999Y019899D02*
X016741Y019899D01*
X016897Y019743D02*
X005999Y019743D01*
X005999Y019587D02*
X017053Y019587D01*
X017209Y019431D02*
X005999Y019431D01*
X005999Y018651D02*
X006221Y018651D01*
X007182Y018651D02*
X008716Y018651D01*
X008627Y018495D02*
X007423Y018495D01*
X007579Y018339D02*
X008627Y018339D01*
X008627Y018183D02*
X007673Y018183D01*
X007748Y018027D02*
X008627Y018027D01*
X008664Y017871D02*
X007789Y017871D01*
X009064Y018651D02*
X009064Y018651D01*
X009433Y021615D02*
X009593Y021615D01*
X009845Y021615D02*
X009845Y021615D01*
X009845Y021771D02*
X009845Y021771D01*
X009845Y021927D02*
X009845Y021927D01*
X009845Y021979D02*
X009845Y021979D01*
X009845Y022415D01*
X009845Y021979D01*
X009845Y021979D01*
X009845Y022083D02*
X009845Y022083D01*
X009845Y022239D02*
X009845Y022239D01*
X009845Y022395D02*
X009845Y022395D01*
X009644Y022395D02*
X009382Y022395D01*
X009474Y022239D02*
X009488Y022239D01*
X010046Y022395D02*
X010459Y022395D01*
X010303Y022239D02*
X010202Y022239D01*
X010097Y021615D02*
X010408Y021615D01*
X010857Y021615D02*
X011196Y021615D01*
X011040Y021771D02*
X011013Y021771D01*
X011026Y022174D02*
X010805Y022395D01*
X010962Y022239D02*
X011091Y022239D01*
X011026Y022174D02*
X011247Y022395D01*
X011593Y022395D02*
X012034Y022395D01*
X011878Y022239D02*
X011749Y022239D01*
X011800Y021771D02*
X011827Y021771D01*
X011983Y021615D02*
X011644Y021615D01*
X012431Y021615D02*
X012770Y021615D01*
X012614Y021771D02*
X012587Y021771D01*
X013219Y021615D02*
X013558Y021615D01*
X013402Y021771D02*
X013375Y021771D01*
X013324Y022239D02*
X013453Y022239D01*
X013609Y022395D02*
X013168Y022395D01*
X013317Y022863D02*
X016621Y022863D01*
X016621Y023019D02*
X013317Y023019D01*
X013317Y023175D02*
X016222Y023175D01*
X016066Y023331D02*
X013317Y023331D01*
X013253Y023487D02*
X015910Y023487D01*
X015754Y023643D02*
X013648Y023643D01*
X013691Y023799D02*
X015598Y023799D01*
X015539Y023955D02*
X013691Y023955D01*
X013691Y024110D02*
X015539Y024110D01*
X015539Y024266D02*
X013691Y024266D01*
X013592Y024422D02*
X015539Y024422D01*
X015539Y024578D02*
X013592Y024578D01*
X013592Y024734D02*
X015539Y024734D01*
X015539Y024890D02*
X013661Y024890D01*
X013817Y025046D02*
X015539Y025046D01*
X015539Y025202D02*
X013973Y025202D01*
X014129Y025358D02*
X015539Y025358D01*
X015539Y025514D02*
X014203Y025514D01*
X014203Y025670D02*
X015539Y025670D01*
X015539Y025826D02*
X014203Y025826D01*
X014203Y025982D02*
X015539Y025982D01*
X015539Y026138D02*
X014203Y026138D01*
X014203Y026294D02*
X015539Y026294D01*
X015539Y026450D02*
X014203Y026450D01*
X014203Y026606D02*
X014918Y026606D01*
X015414Y026606D02*
X015539Y026606D01*
X015539Y026762D02*
X015483Y026762D01*
X015483Y026918D02*
X015539Y026918D01*
X015539Y027074D02*
X015483Y027074D01*
X015539Y027230D02*
X014062Y027230D01*
X013906Y027386D02*
X015539Y027386D01*
X015539Y027542D02*
X013750Y027542D01*
X013612Y027698D02*
X015419Y027698D01*
X015419Y027854D02*
X013612Y027854D01*
X013553Y028010D02*
X015419Y028010D01*
X015456Y028166D02*
X012923Y028166D01*
X012934Y028322D02*
X012958Y028322D01*
X012962Y028010D02*
X013039Y028010D01*
X012487Y028166D02*
X012120Y028166D01*
X012157Y028010D02*
X012449Y028010D01*
X012389Y027854D02*
X012157Y027854D01*
X012157Y027698D02*
X012389Y027698D01*
X012387Y027542D02*
X012037Y027542D01*
X012037Y027386D02*
X012428Y027386D01*
X012543Y027230D02*
X012037Y027230D01*
X012037Y027074D02*
X012556Y027074D01*
X012547Y026918D02*
X012037Y026918D01*
X012037Y026762D02*
X012547Y026762D01*
X012547Y026606D02*
X012037Y026606D01*
X012037Y026450D02*
X012636Y026450D01*
X012604Y026138D02*
X012037Y026138D01*
X012037Y025982D02*
X012547Y025982D01*
X012541Y025826D02*
X012037Y025826D01*
X012037Y025670D02*
X012501Y025670D01*
X012507Y025514D02*
X012037Y025514D01*
X012037Y025358D02*
X012507Y025358D01*
X012416Y025202D02*
X012037Y025202D01*
X012037Y025046D02*
X012409Y025046D01*
X012409Y024890D02*
X012037Y024890D01*
X012037Y024734D02*
X012409Y024734D01*
X012409Y024578D02*
X012037Y024578D01*
X012037Y024422D02*
X012409Y024422D01*
X012310Y024266D02*
X012037Y024266D01*
X012037Y024110D02*
X012310Y024110D01*
X012310Y023955D02*
X012121Y023955D01*
X012277Y023799D02*
X012310Y023799D01*
X012129Y023331D02*
X009380Y023331D01*
X009380Y023175D02*
X012285Y023175D01*
X012684Y023019D02*
X009380Y023019D01*
X009380Y022863D02*
X012684Y022863D01*
X012900Y023643D02*
X013101Y023643D01*
X013058Y023799D02*
X012943Y023799D01*
X012943Y023955D02*
X013058Y023955D01*
X013058Y024110D02*
X012943Y024110D01*
X012943Y024266D02*
X013058Y024266D01*
X013157Y024422D02*
X012844Y024422D01*
X012950Y024578D02*
X013051Y024578D01*
X012943Y025358D02*
X013513Y025358D01*
X013414Y025514D02*
X013669Y025514D01*
X013767Y025670D02*
X013455Y025670D01*
X013455Y025826D02*
X013767Y025826D01*
X013767Y025982D02*
X013455Y025982D01*
X013397Y026138D02*
X013767Y026138D01*
X013767Y026294D02*
X012037Y026294D01*
X013030Y027230D02*
X013446Y027230D01*
X013445Y027074D02*
X013602Y027074D01*
X013455Y026918D02*
X013758Y026918D01*
X013767Y026762D02*
X013455Y026762D01*
X013455Y026606D02*
X013767Y026606D01*
X013767Y026450D02*
X013365Y026450D01*
X013019Y027386D02*
X012982Y027386D01*
X012477Y028322D02*
X009697Y028322D01*
X009752Y028478D02*
X012389Y028478D01*
X012389Y028634D02*
X009752Y028634D01*
X009894Y028790D02*
X012389Y028790D01*
X012400Y028946D02*
X010050Y028946D01*
X009509Y027230D02*
X008986Y027230D01*
X009045Y027386D02*
X009082Y027386D01*
X009508Y027074D02*
X009665Y027074D01*
X009518Y026918D02*
X009821Y026918D01*
X009830Y026762D02*
X009518Y026762D01*
X009518Y026606D02*
X009830Y026606D01*
X009830Y026450D02*
X009428Y026450D01*
X008699Y026450D02*
X005999Y026450D01*
X005999Y026606D02*
X008610Y026606D01*
X008610Y026762D02*
X005999Y026762D01*
X005999Y026918D02*
X008610Y026918D01*
X008550Y027074D02*
X005999Y027074D01*
X005999Y027230D02*
X008550Y027230D01*
X008491Y027386D02*
X005999Y027386D01*
X005999Y027542D02*
X008452Y027542D01*
X008452Y027698D02*
X005999Y027698D01*
X005999Y027854D02*
X008452Y027854D01*
X008512Y028010D02*
X005999Y028010D01*
X008531Y023487D02*
X008811Y023487D01*
X008747Y022863D02*
X008560Y022863D01*
X013634Y028322D02*
X016414Y028322D01*
X016424Y028166D02*
X016057Y028166D01*
X016094Y028010D02*
X016386Y028010D01*
X016326Y027854D02*
X016094Y027854D01*
X016094Y027698D02*
X016326Y027698D01*
X016326Y027542D02*
X015974Y027542D01*
X015974Y027386D02*
X016365Y027386D01*
X016424Y027230D02*
X015974Y027230D01*
X015974Y027074D02*
X016424Y027074D01*
X016484Y026918D02*
X015974Y026918D01*
X015974Y026762D02*
X016484Y026762D01*
X016484Y026606D02*
X015974Y026606D01*
X015974Y026450D02*
X016573Y026450D01*
X016541Y026138D02*
X015974Y026138D01*
X015974Y025982D02*
X016484Y025982D01*
X016484Y025826D02*
X015974Y025826D01*
X015974Y025670D02*
X016482Y025670D01*
X016444Y025514D02*
X015974Y025514D01*
X015974Y025358D02*
X016444Y025358D01*
X016353Y025202D02*
X015974Y025202D01*
X015974Y025046D02*
X016346Y025046D01*
X016346Y024890D02*
X015974Y024890D01*
X015974Y024734D02*
X016346Y024734D01*
X016437Y024578D02*
X015974Y024578D01*
X015974Y024422D02*
X016444Y024422D01*
X016247Y024266D02*
X015974Y024266D01*
X015974Y024110D02*
X016247Y024110D01*
X016247Y023955D02*
X016058Y023955D01*
X016214Y023799D02*
X016247Y023799D01*
X016837Y023643D02*
X017038Y023643D01*
X016995Y023799D02*
X016880Y023799D01*
X016880Y023955D02*
X016995Y023955D01*
X016995Y024110D02*
X016880Y024110D01*
X016880Y024266D02*
X016995Y024266D01*
X017015Y024422D02*
X016880Y024422D01*
X016887Y024578D02*
X016988Y024578D01*
X016880Y025358D02*
X017331Y025358D01*
X017351Y025514D02*
X017487Y025514D01*
X017392Y025670D02*
X017643Y025670D01*
X017704Y025826D02*
X017392Y025826D01*
X017392Y025982D02*
X017704Y025982D01*
X017704Y026138D02*
X017334Y026138D01*
X017302Y026450D02*
X017704Y026450D01*
X017704Y026294D02*
X015974Y026294D01*
X016860Y027230D02*
X017481Y027230D01*
X017382Y027074D02*
X017637Y027074D01*
X017704Y026918D02*
X017392Y026918D01*
X017392Y026762D02*
X017704Y026762D01*
X017704Y026606D02*
X017392Y026606D01*
X016956Y027386D02*
X016919Y027386D01*
X016899Y028010D02*
X016976Y028010D01*
X017571Y028322D02*
X020351Y028322D01*
X020361Y028166D02*
X019994Y028166D01*
X020031Y028010D02*
X020323Y028010D01*
X020263Y027854D02*
X020031Y027854D01*
X020031Y027698D02*
X020263Y027698D01*
X020263Y027542D02*
X019911Y027542D01*
X019911Y027386D02*
X020302Y027386D01*
X020361Y027230D02*
X019911Y027230D01*
X019911Y027074D02*
X020233Y027074D01*
X020224Y026918D02*
X019911Y026918D01*
X019911Y026762D02*
X020224Y026762D01*
X020224Y026606D02*
X019911Y026606D01*
X020797Y027230D02*
X021615Y027230D01*
X021641Y027074D02*
X021122Y027074D01*
X021132Y026918D02*
X021641Y026918D01*
X021641Y026762D02*
X021132Y026762D01*
X021132Y026606D02*
X021641Y026606D01*
X021641Y026450D02*
X021042Y026450D01*
X020893Y027386D02*
X020856Y027386D01*
X020836Y028010D02*
X020913Y028010D01*
X020797Y028166D02*
X022765Y028166D01*
X022622Y028322D02*
X021508Y028322D01*
X021564Y028478D02*
X022477Y028478D01*
X022420Y028634D02*
X021564Y028634D01*
X021564Y028790D02*
X022421Y028790D01*
X022421Y028946D02*
X021564Y028946D01*
X021465Y029102D02*
X022421Y029102D01*
X022421Y029258D02*
X021451Y029258D01*
X021338Y029414D02*
X022421Y029414D01*
X022421Y029570D02*
X021182Y029570D01*
X021003Y029726D02*
X022421Y029726D01*
X022421Y029882D02*
X019886Y029882D01*
X019730Y030038D02*
X022421Y030038D01*
X022421Y030194D02*
X019574Y030194D01*
X019418Y030350D02*
X022421Y030350D01*
X022421Y030506D02*
X019262Y030506D01*
X019106Y030662D02*
X022421Y030662D01*
X022421Y030818D02*
X021914Y030818D01*
X021927Y030824D02*
X021988Y030868D01*
X022040Y030921D01*
X022084Y030982D01*
X022118Y031049D01*
X022142Y031120D01*
X022153Y031194D01*
X022153Y031212D01*
X021697Y031212D01*
X021697Y031251D01*
X021658Y031251D01*
X021658Y031707D01*
X021640Y031707D01*
X021566Y031695D01*
X021495Y031672D01*
X021428Y031638D01*
X021368Y031594D01*
X021315Y031541D01*
X021271Y031480D01*
X021237Y031414D01*
X021214Y031343D01*
X021202Y031269D01*
X021202Y031251D01*
X021658Y031251D01*
X021658Y031212D01*
X021202Y031212D01*
X021202Y031194D01*
X021214Y031120D01*
X021237Y031049D01*
X021271Y030982D01*
X021315Y030921D01*
X021368Y030868D01*
X021428Y030824D01*
X021495Y030790D01*
X021566Y030767D01*
X021640Y030756D01*
X021658Y030756D01*
X021658Y031212D01*
X021697Y031212D01*
X021697Y030756D01*
X021715Y030756D01*
X021789Y030767D01*
X021860Y030790D01*
X021927Y030824D01*
X022078Y030974D02*
X022291Y030974D01*
X022227Y031130D02*
X022143Y031130D01*
X022153Y031251D02*
X021697Y031251D01*
X021697Y031707D01*
X021715Y031707D01*
X021789Y031695D01*
X021860Y031672D01*
X021927Y031638D01*
X021988Y031594D01*
X022040Y031541D01*
X022084Y031480D01*
X022118Y031414D01*
X022142Y031343D01*
X022153Y031269D01*
X022153Y031251D01*
X022151Y031286D02*
X022222Y031286D01*
X022272Y031442D02*
X022104Y031442D01*
X021983Y031598D02*
X022400Y031598D01*
X022956Y031598D02*
X023400Y031598D01*
X023420Y031617D02*
X023291Y031489D01*
X023222Y031322D01*
X023222Y031141D01*
X023291Y030973D01*
X023420Y030845D01*
X023587Y030776D01*
X023768Y030776D01*
X023936Y030845D01*
X024064Y030973D01*
X024133Y031141D01*
X024133Y031322D01*
X024064Y031489D01*
X023936Y031617D01*
X023768Y031687D01*
X023587Y031687D01*
X023420Y031617D01*
X023272Y031442D02*
X023084Y031442D01*
X023133Y031286D02*
X023222Y031286D01*
X023227Y031130D02*
X023129Y031130D01*
X023064Y030974D02*
X023291Y030974D01*
X023486Y030818D02*
X022935Y030818D01*
X022935Y030662D02*
X026421Y030662D01*
X026421Y030818D02*
X025870Y030818D01*
X025936Y030845D02*
X026064Y030973D01*
X026133Y031141D01*
X026133Y031322D01*
X026064Y031489D01*
X025936Y031617D01*
X025768Y031687D01*
X025587Y031687D01*
X025420Y031617D01*
X025291Y031489D01*
X025222Y031322D01*
X025222Y031141D01*
X025291Y030973D01*
X025420Y030845D01*
X025587Y030776D01*
X025768Y030776D01*
X025936Y030845D01*
X026064Y030974D02*
X026291Y030974D01*
X026227Y031130D02*
X026129Y031130D01*
X026133Y031286D02*
X026222Y031286D01*
X026272Y031442D02*
X026084Y031442D01*
X025956Y031598D02*
X026400Y031598D01*
X026636Y031910D02*
X019006Y031910D01*
X019006Y032065D02*
X026480Y032065D01*
X026324Y032221D02*
X019006Y032221D01*
X018852Y032377D02*
X026168Y032377D01*
X026012Y032533D02*
X014832Y032533D01*
X014832Y032689D02*
X025856Y032689D01*
X025700Y032845D02*
X014832Y032845D01*
X014832Y033001D02*
X025544Y033001D01*
X025803Y033469D02*
X028919Y033469D01*
X028865Y033313D02*
X025959Y033313D01*
X026115Y033157D02*
X028823Y033157D01*
X028821Y033001D02*
X026271Y033001D01*
X026427Y032845D02*
X028824Y032845D01*
X028866Y032689D02*
X026583Y032689D01*
X026739Y032533D02*
X028921Y032533D01*
X029011Y032377D02*
X026895Y032377D01*
X027051Y032221D02*
X029143Y032221D01*
X029336Y032065D02*
X027207Y032065D01*
X027363Y031910D02*
X029727Y031910D01*
X030133Y031910D02*
X030632Y031910D01*
X030632Y032065D02*
X030523Y032065D01*
X030632Y031754D02*
X027519Y031754D01*
X027956Y031598D02*
X030632Y031598D01*
X030632Y031442D02*
X028084Y031442D01*
X028133Y031286D02*
X030632Y031286D01*
X030632Y031130D02*
X028143Y031130D01*
X028299Y030974D02*
X030632Y030974D01*
X030632Y030818D02*
X028409Y030818D01*
X028415Y030662D02*
X030632Y030662D01*
X030632Y030506D02*
X028415Y030506D01*
X028415Y030350D02*
X030632Y030350D01*
X030632Y030194D02*
X028415Y030194D01*
X028415Y030038D02*
X030632Y030038D01*
X030632Y029882D02*
X028415Y029882D01*
X028415Y029726D02*
X030632Y029726D01*
X030632Y029570D02*
X028415Y029570D01*
X028415Y029414D02*
X030632Y029414D01*
X030632Y029258D02*
X028415Y029258D01*
X028415Y029102D02*
X030632Y029102D01*
X030632Y028946D02*
X028415Y028946D01*
X028415Y028790D02*
X030632Y028790D01*
X030632Y028634D02*
X028415Y028634D01*
X028415Y028478D02*
X030632Y028478D01*
X030632Y028322D02*
X028415Y028322D01*
X028415Y028166D02*
X030632Y028166D01*
X030632Y028010D02*
X028415Y028010D01*
X028415Y027854D02*
X030632Y027854D01*
X030632Y027698D02*
X028415Y027698D01*
X028415Y027542D02*
X030632Y027542D01*
X027901Y028322D02*
X027775Y028322D01*
X027901Y028478D02*
X025659Y028478D01*
X025659Y028634D02*
X027901Y028634D01*
X027901Y028790D02*
X025659Y028790D01*
X025659Y028946D02*
X027901Y028946D01*
X027901Y029102D02*
X025802Y029102D01*
X025958Y029258D02*
X027901Y029258D01*
X027901Y029414D02*
X026114Y029414D01*
X026270Y029570D02*
X027901Y029570D01*
X027901Y029726D02*
X026426Y029726D01*
X026582Y029882D02*
X027901Y029882D01*
X027901Y030038D02*
X026738Y030038D01*
X026894Y030194D02*
X027901Y030194D01*
X027901Y030350D02*
X026935Y030350D01*
X026935Y030506D02*
X027901Y030506D01*
X027884Y030662D02*
X026935Y030662D01*
X026935Y030818D02*
X027486Y030818D01*
X027291Y030974D02*
X027064Y030974D01*
X027129Y031130D02*
X027227Y031130D01*
X027222Y031286D02*
X027133Y031286D01*
X027104Y031442D02*
X027084Y031442D01*
X026792Y031754D02*
X018945Y031754D01*
X018808Y031598D02*
X020400Y031598D01*
X020420Y031617D02*
X020291Y031489D01*
X020222Y031322D01*
X020222Y031141D01*
X020291Y030973D01*
X020420Y030845D01*
X020587Y030776D01*
X020768Y030776D01*
X020936Y030845D01*
X021064Y030973D01*
X021133Y031141D01*
X021133Y031322D01*
X021064Y031489D01*
X020936Y031617D01*
X020768Y031687D01*
X020587Y031687D01*
X020420Y031617D01*
X020272Y031442D02*
X018808Y031442D01*
X018808Y031286D02*
X020222Y031286D01*
X020227Y031130D02*
X018808Y031130D01*
X018808Y030974D02*
X020291Y030974D01*
X020486Y030818D02*
X018950Y030818D01*
X018583Y030350D02*
X018020Y030350D01*
X018020Y030506D02*
X018427Y030506D01*
X018271Y030662D02*
X018020Y030662D01*
X018020Y030818D02*
X018217Y030818D01*
X018217Y030974D02*
X018020Y030974D01*
X018020Y031130D02*
X018217Y031130D01*
X018217Y031286D02*
X018020Y031286D01*
X018020Y031442D02*
X018217Y031442D01*
X018217Y031598D02*
X018020Y031598D01*
X018064Y032377D02*
X018173Y032377D01*
X017386Y032377D02*
X017277Y032377D01*
X016598Y032377D02*
X016489Y032377D01*
X015811Y032377D02*
X015593Y032377D01*
X015133Y032377D02*
X014956Y032377D01*
X012439Y030194D02*
X011700Y030194D01*
X011856Y030038D02*
X017430Y030038D01*
X017430Y029882D02*
X012012Y029882D01*
X012240Y030350D02*
X011544Y030350D01*
X011524Y030506D02*
X012029Y030506D01*
X011926Y030662D02*
X011524Y030662D01*
X011524Y030818D02*
X011918Y030818D01*
X011918Y030974D02*
X011524Y030974D01*
X011524Y031130D02*
X011918Y031130D01*
X011918Y031286D02*
X011524Y031286D01*
X011524Y031442D02*
X011918Y031442D01*
X011739Y031598D02*
X011524Y031598D01*
X013689Y028946D02*
X016337Y028946D01*
X016326Y028790D02*
X013689Y028790D01*
X013689Y028634D02*
X016326Y028634D01*
X016326Y028478D02*
X013689Y028478D01*
X017627Y028478D02*
X020263Y028478D01*
X020263Y028634D02*
X017627Y028634D01*
X017768Y028790D02*
X020263Y028790D01*
X020274Y028946D02*
X017924Y028946D01*
X018019Y029102D02*
X020815Y029102D01*
X020808Y028322D02*
X020832Y028322D01*
X021427Y028010D02*
X022909Y028010D01*
X023053Y027854D02*
X021607Y027854D01*
X021763Y027698D02*
X023196Y027698D01*
X023340Y027542D02*
X021919Y027542D01*
X022075Y027386D02*
X023484Y027386D01*
X023570Y027230D02*
X022077Y027230D01*
X022077Y027074D02*
X023570Y027074D01*
X023570Y026918D02*
X023357Y026918D01*
X023357Y026762D02*
X023570Y026762D01*
X023570Y026606D02*
X023357Y026606D01*
X023328Y026450D02*
X023570Y026450D01*
X023570Y026294D02*
X022077Y026294D01*
X022077Y026138D02*
X023570Y026138D01*
X023570Y025982D02*
X022077Y025982D01*
X022077Y025826D02*
X023570Y025826D01*
X023570Y025670D02*
X022077Y025670D01*
X022040Y025514D02*
X023570Y025514D01*
X023570Y025358D02*
X021884Y025358D01*
X021728Y025202D02*
X023570Y025202D01*
X023570Y025046D02*
X021573Y025046D01*
X022077Y026450D02*
X022751Y026450D01*
X021459Y027386D02*
X021447Y027386D01*
X023034Y028634D02*
X025145Y028634D01*
X025145Y028790D02*
X022935Y028790D01*
X022935Y028946D02*
X025145Y028946D01*
X025145Y029102D02*
X022935Y029102D01*
X022935Y029258D02*
X025230Y029258D01*
X025386Y029414D02*
X022935Y029414D01*
X022935Y029570D02*
X025542Y029570D01*
X025698Y029726D02*
X022935Y029726D01*
X022935Y029882D02*
X025854Y029882D01*
X026010Y030038D02*
X022935Y030038D01*
X022935Y030194D02*
X026166Y030194D01*
X026322Y030350D02*
X022935Y030350D01*
X022935Y030506D02*
X026421Y030506D01*
X025486Y030818D02*
X023870Y030818D01*
X024064Y030974D02*
X025291Y030974D01*
X025227Y031130D02*
X024129Y031130D01*
X024133Y031286D02*
X025222Y031286D01*
X025272Y031442D02*
X024084Y031442D01*
X023956Y031598D02*
X025400Y031598D01*
X025632Y033625D02*
X029009Y033625D01*
X025982Y028322D02*
X025659Y028322D01*
X025659Y028166D02*
X025831Y028166D01*
X025766Y028010D02*
X025659Y028010D01*
X025659Y027854D02*
X025735Y027854D01*
X025735Y027698D02*
X025659Y027698D01*
X025659Y027542D02*
X025791Y027542D01*
X025886Y027386D02*
X025659Y027386D01*
X025909Y027230D02*
X026076Y027230D01*
X025145Y028478D02*
X023177Y028478D01*
X021697Y030818D02*
X021658Y030818D01*
X021658Y030974D02*
X021697Y030974D01*
X021697Y031130D02*
X021658Y031130D01*
X021658Y031286D02*
X021697Y031286D01*
X021697Y031442D02*
X021658Y031442D01*
X021658Y031598D02*
X021697Y031598D01*
X021373Y031598D02*
X020956Y031598D01*
X021084Y031442D02*
X021251Y031442D01*
X021205Y031286D02*
X021133Y031286D01*
X021129Y031130D02*
X021212Y031130D01*
X021277Y030974D02*
X021064Y030974D01*
X020870Y030818D02*
X021442Y030818D01*
X019674Y029258D02*
X018020Y029258D01*
X018020Y029414D02*
X019518Y029414D01*
X019362Y029570D02*
X018020Y029570D01*
X018020Y029726D02*
X019206Y029726D01*
X019051Y029882D02*
X018020Y029882D01*
X018020Y030038D02*
X018895Y030038D01*
X018739Y030194D02*
X018020Y030194D01*
X018140Y026606D02*
X018855Y026606D01*
X017552Y022395D02*
X017111Y022395D01*
X017267Y022239D02*
X017396Y022239D01*
X015977Y022395D02*
X015536Y022395D01*
X015692Y022239D02*
X015821Y022239D01*
X015770Y021771D02*
X015743Y021771D01*
X015587Y021615D02*
X015926Y021615D01*
X015139Y021615D02*
X014794Y021615D01*
X014950Y021771D02*
X014983Y021771D01*
X014966Y022171D02*
X014742Y022395D01*
X014899Y022239D02*
X015034Y022239D01*
X014966Y022171D02*
X015190Y022395D01*
X014396Y022395D02*
X013955Y022395D01*
X014111Y022239D02*
X014240Y022239D01*
X014189Y021771D02*
X014162Y021771D01*
X014006Y021615D02*
X014345Y021615D01*
D22*
X016150Y024932D03*
X015166Y026901D03*
X012213Y024932D03*
X011229Y026901D03*
X019103Y026901D03*
X020087Y024932D03*
X023040Y026704D03*
D23*
X021859Y026704D01*
X021859Y027294D01*
X021465Y027688D01*
X021170Y027688D01*
X020579Y026901D02*
X020678Y026802D01*
X020579Y026901D02*
X020579Y027688D01*
X020579Y028672D01*
X021170Y028672D02*
X021170Y029164D01*
X020875Y029460D01*
X019890Y029460D01*
X018512Y030838D01*
X018512Y032019D01*
X017725Y032019D02*
X017725Y030444D01*
X012607Y030444D01*
X012213Y030739D01*
X012213Y031822D01*
X012016Y032019D01*
X011229Y032019D02*
X011229Y032314D01*
X011623Y032708D01*
X013197Y032708D01*
X013690Y032215D01*
X013690Y031526D01*
X013985Y031231D01*
X016150Y031231D01*
X016938Y032019D01*
X017725Y030444D02*
X017725Y029164D01*
X017233Y028672D01*
X016642Y028672D02*
X016642Y027688D01*
X016642Y027097D01*
X016938Y026802D01*
X017233Y027688D02*
X017331Y027688D01*
X017922Y027097D01*
X017922Y026901D01*
X019103Y026901D01*
X019693Y027885D02*
X019693Y023948D01*
X020284Y023357D01*
X020638Y023357D01*
X020875Y023121D01*
X021249Y023987D02*
X021150Y024086D01*
X021150Y024932D01*
X021859Y025641D01*
X021859Y026704D01*
X020678Y025818D02*
X020678Y025011D01*
X020599Y024932D01*
X020599Y024086D01*
X020501Y023987D01*
X017922Y025641D02*
X017922Y026901D01*
X017922Y025641D02*
X017213Y024932D01*
X017233Y024912D01*
X017233Y023987D01*
X017312Y023987D01*
X016662Y024086D02*
X016662Y024932D01*
X016662Y025542D01*
X016938Y025818D01*
X016662Y024086D02*
X016564Y023987D01*
X016701Y023357D02*
X016347Y023357D01*
X015756Y023948D01*
X015756Y027885D01*
X015166Y026901D02*
X013985Y026901D01*
X013985Y026999D01*
X013296Y027688D01*
X012607Y027589D02*
X013001Y026802D01*
X012607Y027589D02*
X012705Y027688D01*
X012705Y028672D01*
X013296Y028672D02*
X013296Y029164D01*
X013001Y029460D01*
X012016Y029460D01*
X011229Y030247D01*
X011229Y032019D01*
X010441Y032019D02*
X010441Y029755D01*
X009359Y028672D01*
X008768Y028672D02*
X008768Y027688D01*
X008768Y027097D01*
X009064Y026802D01*
X009359Y027688D02*
X010048Y026999D01*
X010048Y026901D01*
X011229Y026901D01*
X011819Y027885D02*
X011819Y023948D01*
X012410Y023357D01*
X012764Y023357D01*
X013001Y023121D01*
X013375Y023987D02*
X013375Y024834D01*
X013276Y024932D01*
X013394Y024932D01*
X013985Y025523D01*
X013985Y026901D01*
X013001Y025818D02*
X012725Y025700D01*
X012725Y024932D01*
X012627Y024834D01*
X012627Y023987D01*
X010048Y025641D02*
X010048Y026901D01*
X010048Y025641D02*
X009339Y024932D01*
X009438Y024834D01*
X009438Y023987D01*
X008690Y023987D02*
X008690Y024834D01*
X008788Y024932D01*
X008788Y025542D01*
X009064Y025818D01*
X009064Y023121D02*
X008315Y023121D01*
X008276Y023160D01*
X016701Y023357D02*
X016938Y023121D01*
X016938Y021979D02*
X016938Y020011D01*
X018709Y018239D01*
X019497Y018239D02*
X017725Y020011D01*
X017725Y021979D01*
X024418Y023948D02*
X024418Y027885D01*
X024418Y023948D02*
X026386Y021586D01*
X027961Y021586D01*
X028749Y020798D01*
X028749Y020223D01*
X028961Y020011D01*
D24*
X024418Y027885D03*
X019693Y027885D03*
X015756Y027885D03*
X011819Y027885D03*
X008276Y023160D03*
M02*
