G75*
%MOIN*%
%OFA0B0*%
%FSLAX24Y24*%
%IPPOS*%
%LPD*%
%AMOC8*
5,1,8,0,0,1.08239X$1,22.5*
%
%ADD10C,0.0080*%
%ADD11C,0.0040*%
%ADD12C,0.0050*%
%ADD13C,0.0030*%
%ADD14C,0.0060*%
%ADD15C,0.0063*%
%ADD16C,0.0059*%
D10*
X023106Y017747D02*
X023257Y017597D01*
X023709Y017597D01*
X023709Y017295D02*
X023709Y018200D01*
X023257Y018200D01*
X023106Y018049D01*
X023106Y017747D01*
X024012Y017446D02*
X024163Y017295D01*
X024465Y017295D01*
X024616Y017446D01*
X024616Y018049D01*
X024465Y018200D01*
X024163Y018200D01*
X024012Y018049D01*
X024012Y017446D01*
X024919Y018200D02*
X025522Y018200D01*
X025220Y018200D02*
X025220Y017295D01*
X025825Y017295D02*
X026428Y017295D01*
X026428Y018200D01*
X027334Y018200D02*
X027334Y017295D01*
X026731Y017295D01*
X027637Y017295D02*
X027939Y017295D01*
X027788Y017295D02*
X027788Y018200D01*
X027939Y018200D02*
X027637Y018200D01*
X028242Y018200D02*
X028242Y017295D01*
X028242Y017747D02*
X028845Y017747D01*
X028845Y017295D02*
X028845Y018200D01*
D11*
X008913Y019631D02*
X008837Y019707D01*
X008837Y019858D01*
X008913Y019933D01*
X008988Y019933D01*
X009064Y019858D01*
X009064Y019782D01*
X009064Y019858D02*
X009139Y019933D01*
X009215Y019933D01*
X009290Y019858D01*
X009290Y019707D01*
X009215Y019631D01*
X008913Y020085D02*
X008837Y020085D01*
X008837Y020160D01*
X008913Y020160D01*
X008913Y020085D01*
X008913Y020311D02*
X008837Y020387D01*
X008837Y020537D01*
X008913Y020613D01*
X008988Y020613D01*
X009064Y020537D01*
X009064Y020462D01*
X009064Y020537D02*
X009139Y020613D01*
X009215Y020613D01*
X009290Y020537D01*
X009290Y020387D01*
X009215Y020311D01*
X009139Y020764D02*
X008837Y020915D01*
X009139Y021066D01*
X009625Y020877D02*
X009625Y020651D01*
X010077Y020651D01*
X010077Y020877D01*
X010002Y020953D01*
X009700Y020953D01*
X009625Y020877D01*
X009625Y020500D02*
X010077Y020500D01*
X010077Y020198D02*
X009625Y020198D01*
X009700Y020046D02*
X009851Y020046D01*
X009851Y019896D01*
X009700Y020046D02*
X009625Y019971D01*
X009625Y019820D01*
X009700Y019745D01*
X010002Y019745D01*
X010077Y019820D01*
X010077Y019971D01*
X010002Y020046D01*
X010077Y020198D02*
X009625Y020500D01*
X010412Y020424D02*
X010865Y020726D01*
X010865Y020424D02*
X010412Y020726D01*
X010412Y020122D02*
X010865Y020122D01*
X010865Y019971D02*
X010865Y020273D01*
X011200Y020273D02*
X011350Y020122D01*
X011350Y020198D02*
X011350Y019971D01*
X011200Y019971D02*
X011652Y019971D01*
X011652Y020198D01*
X011577Y020273D01*
X011426Y020273D01*
X011350Y020198D01*
X011200Y020424D02*
X011652Y020726D01*
X011652Y020424D02*
X011200Y020726D01*
X011987Y020726D02*
X012062Y020651D01*
X011987Y020726D02*
X011987Y020877D01*
X012062Y020953D01*
X012138Y020953D01*
X012213Y020877D01*
X012213Y020726D01*
X012289Y020651D01*
X012364Y020651D01*
X012440Y020726D01*
X012440Y020877D01*
X012364Y020953D01*
X012774Y020877D02*
X012774Y020726D01*
X012850Y020651D01*
X013001Y020726D02*
X013001Y020877D01*
X012925Y020953D01*
X012850Y020953D01*
X012774Y020877D01*
X013001Y020726D02*
X013076Y020651D01*
X013152Y020651D01*
X013227Y020726D01*
X013227Y020877D01*
X013152Y020953D01*
X013562Y020953D02*
X014014Y020953D01*
X013864Y020802D01*
X013939Y020651D02*
X013637Y020651D01*
X013562Y020575D01*
X013562Y020424D01*
X013637Y020349D01*
X013939Y020349D01*
X014014Y020424D01*
X014014Y020575D01*
X013939Y020651D01*
X013562Y020802D02*
X013562Y021104D01*
X013227Y020500D02*
X013227Y020198D01*
X013227Y020349D02*
X012774Y020349D01*
X012774Y020046D02*
X012925Y019896D01*
X012925Y019971D02*
X012925Y019745D01*
X012774Y019745D02*
X013227Y019745D01*
X013227Y019971D01*
X013152Y020046D01*
X013001Y020046D01*
X012925Y019971D01*
X012440Y019971D02*
X012440Y019820D01*
X012364Y019745D01*
X012062Y019745D01*
X011987Y019820D01*
X011987Y019971D01*
X012062Y020046D01*
X012364Y020046D02*
X012440Y019971D01*
X012440Y020198D02*
X012440Y020500D01*
X012440Y020349D02*
X011987Y020349D01*
X013562Y020198D02*
X013562Y020047D01*
X013562Y020122D02*
X014014Y020122D01*
X014014Y020047D02*
X014014Y020198D01*
X013939Y019895D02*
X014014Y019820D01*
X014014Y019594D01*
X013562Y019594D01*
X013562Y019820D01*
X013637Y019895D01*
X013939Y019895D01*
X014349Y019820D02*
X014349Y019594D01*
X014802Y019594D01*
X014802Y019820D01*
X014726Y019895D01*
X014425Y019895D01*
X014349Y019820D01*
X014349Y020047D02*
X014349Y020198D01*
X014349Y020122D02*
X014802Y020122D01*
X014802Y020047D02*
X014802Y020198D01*
X014726Y020349D02*
X014425Y020349D01*
X014349Y020424D01*
X014349Y020575D01*
X014425Y020651D01*
X014726Y020651D01*
X014802Y020575D01*
X014802Y020424D01*
X014726Y020349D01*
X015137Y020424D02*
X015137Y020575D01*
X015212Y020651D01*
X015514Y020651D01*
X015589Y020575D01*
X015589Y020424D01*
X015514Y020349D01*
X015212Y020349D01*
X015137Y020424D01*
X015137Y020198D02*
X015137Y020047D01*
X015137Y020122D02*
X015589Y020122D01*
X015589Y020047D02*
X015589Y020198D01*
X015514Y019895D02*
X015589Y019820D01*
X015589Y019594D01*
X015137Y019594D01*
X015137Y019820D01*
X015212Y019895D01*
X015514Y019895D01*
X015924Y019820D02*
X015924Y019594D01*
X016377Y019594D01*
X016377Y019820D01*
X016301Y019895D01*
X015999Y019895D01*
X015924Y019820D01*
X015924Y020047D02*
X015924Y020198D01*
X015924Y020122D02*
X016377Y020122D01*
X016377Y020047D02*
X016377Y020198D01*
X016301Y020349D02*
X015999Y020349D01*
X015924Y020424D01*
X015924Y020575D01*
X015999Y020651D01*
X016301Y020651D01*
X016377Y020575D01*
X016377Y020424D01*
X016301Y020349D01*
X016150Y020802D02*
X016150Y021104D01*
X015924Y021028D02*
X016377Y021028D01*
X016150Y020802D01*
X015589Y020877D02*
X015589Y021028D01*
X015514Y021104D01*
X015438Y021104D01*
X015363Y021028D01*
X015288Y021104D01*
X015212Y021104D01*
X015137Y021028D01*
X015137Y020877D01*
X015212Y020802D01*
X015363Y020953D02*
X015363Y021028D01*
X015514Y020802D02*
X015589Y020877D01*
X014802Y020877D02*
X014726Y020802D01*
X014802Y020877D02*
X014802Y021028D01*
X014726Y021104D01*
X014651Y021104D01*
X014349Y020802D01*
X014349Y021104D01*
X016711Y021029D02*
X016711Y021330D01*
X016711Y021179D02*
X017164Y021179D01*
X017013Y021029D01*
X016711Y020877D02*
X016711Y020575D01*
X016711Y020726D02*
X017164Y020726D01*
X017013Y020575D01*
X017089Y020424D02*
X016787Y020424D01*
X016711Y020349D01*
X016711Y020198D01*
X016787Y020122D01*
X017089Y020122D01*
X017164Y020198D01*
X017164Y020349D01*
X017089Y020424D01*
X017499Y020349D02*
X017499Y020198D01*
X017574Y020122D01*
X017876Y020122D01*
X017951Y020198D01*
X017951Y020349D01*
X017876Y020424D01*
X017574Y020424D01*
X017499Y020349D01*
X017499Y020575D02*
X017499Y020877D01*
X017499Y020726D02*
X017951Y020726D01*
X017801Y020575D01*
X017876Y021029D02*
X017951Y021104D01*
X017951Y021255D01*
X017876Y021330D01*
X017801Y021330D01*
X017499Y021029D01*
X017499Y021330D01*
X017499Y019971D02*
X017499Y019820D01*
X017499Y019896D02*
X017951Y019896D01*
X017951Y019971D02*
X017951Y019820D01*
X017876Y019669D02*
X017574Y019669D01*
X017499Y019593D01*
X017499Y019367D01*
X017951Y019367D01*
X017951Y019593D01*
X017876Y019669D01*
X017164Y019593D02*
X017164Y019367D01*
X016711Y019367D01*
X016711Y019593D01*
X016787Y019669D01*
X017089Y019669D01*
X017164Y019593D01*
X017164Y019820D02*
X017164Y019971D01*
X017164Y019896D02*
X016711Y019896D01*
X016711Y019971D02*
X016711Y019820D01*
X022718Y021359D02*
X023020Y021359D01*
X022869Y021359D02*
X022869Y021812D01*
X023020Y021661D01*
X023171Y021586D02*
X023247Y021510D01*
X023473Y021510D01*
X023473Y021359D02*
X023473Y021812D01*
X023247Y021812D01*
X023171Y021737D01*
X023171Y021586D01*
X023322Y021510D02*
X023171Y021359D01*
X018739Y030253D02*
X018739Y030404D01*
X018739Y030329D02*
X018286Y030329D01*
X018286Y030404D02*
X018286Y030253D01*
X018286Y030555D02*
X018739Y030555D01*
X018286Y030857D01*
X018739Y030857D01*
X018513Y031009D02*
X018513Y031310D01*
X018739Y031235D02*
X018513Y031009D01*
X018739Y031235D02*
X018286Y031235D01*
X017951Y031235D02*
X017951Y031084D01*
X017876Y031009D01*
X017951Y030857D02*
X017499Y030857D01*
X017951Y030555D01*
X017499Y030555D01*
X017499Y030404D02*
X017499Y030253D01*
X017499Y030329D02*
X017951Y030329D01*
X017951Y030404D02*
X017951Y030253D01*
X017574Y031009D02*
X017499Y031084D01*
X017499Y031235D01*
X017574Y031310D01*
X017650Y031310D01*
X017725Y031235D01*
X017725Y031159D01*
X017725Y031235D02*
X017801Y031310D01*
X017876Y031310D01*
X017951Y031235D01*
X017164Y031235D02*
X017164Y031084D01*
X017089Y031009D01*
X017164Y030857D02*
X016711Y030857D01*
X017164Y030555D01*
X016711Y030555D01*
X016711Y030404D02*
X016711Y030253D01*
X016711Y030329D02*
X017164Y030329D01*
X017164Y030404D02*
X017164Y030253D01*
X016711Y031009D02*
X017013Y031310D01*
X017089Y031310D01*
X017164Y031235D01*
X016711Y031310D02*
X016711Y031009D01*
X016377Y031159D02*
X015924Y031159D01*
X015924Y031009D02*
X015924Y031310D01*
X015589Y031386D02*
X015288Y031386D01*
X015137Y031235D01*
X015288Y031084D01*
X015589Y031084D01*
X015589Y030857D02*
X015363Y030631D01*
X015363Y030933D01*
X015137Y030857D02*
X015589Y030857D01*
X015924Y030857D02*
X016377Y030857D01*
X016226Y031009D02*
X016377Y031159D01*
X015924Y030857D02*
X016377Y030555D01*
X015924Y030555D01*
X015924Y030404D02*
X015924Y030253D01*
X015924Y030329D02*
X016377Y030329D01*
X016377Y030404D02*
X016377Y030253D01*
X015589Y030253D02*
X015514Y030178D01*
X015589Y030253D02*
X015589Y030404D01*
X015514Y030479D01*
X015438Y030479D01*
X015137Y030178D01*
X015137Y030479D01*
X014802Y030480D02*
X014802Y030631D01*
X014726Y030706D01*
X014425Y030404D01*
X014349Y030480D01*
X014349Y030631D01*
X014425Y030706D01*
X014726Y030706D01*
X014802Y030858D02*
X014500Y030858D01*
X014349Y031008D01*
X014500Y031159D01*
X014802Y031159D01*
X014802Y030480D02*
X014726Y030404D01*
X014425Y030404D01*
X013030Y030404D02*
X013030Y030253D01*
X013030Y030329D02*
X012578Y030329D01*
X012578Y030404D02*
X012578Y030253D01*
X012578Y030555D02*
X013030Y030555D01*
X012578Y030857D01*
X013030Y030857D01*
X012804Y031009D02*
X012804Y031310D01*
X013030Y031235D02*
X012804Y031009D01*
X012578Y031235D02*
X013030Y031235D01*
X012243Y031235D02*
X012243Y031084D01*
X012167Y031009D01*
X012243Y030857D02*
X011790Y030857D01*
X012243Y030555D01*
X011790Y030555D01*
X011790Y030404D02*
X011790Y030253D01*
X011790Y030329D02*
X012243Y030329D01*
X012243Y030404D02*
X012243Y030253D01*
X011866Y031009D02*
X011790Y031084D01*
X011790Y031235D01*
X011866Y031310D01*
X011941Y031310D01*
X012016Y031235D01*
X012016Y031159D01*
X012016Y031235D02*
X012092Y031310D01*
X012167Y031310D01*
X012243Y031235D01*
X011455Y031235D02*
X011455Y031084D01*
X011380Y031009D01*
X011455Y030857D02*
X011003Y030857D01*
X011455Y030555D01*
X011003Y030555D01*
X011003Y030404D02*
X011003Y030253D01*
X011003Y030329D02*
X011455Y030329D01*
X011455Y030404D02*
X011455Y030253D01*
X010668Y030253D02*
X010668Y030404D01*
X010668Y030329D02*
X010215Y030329D01*
X010215Y030404D02*
X010215Y030253D01*
X010215Y030555D02*
X010668Y030555D01*
X010215Y030857D01*
X010668Y030857D01*
X010517Y031009D02*
X010668Y031159D01*
X010215Y031159D01*
X010215Y031009D02*
X010215Y031310D01*
X009881Y031386D02*
X009579Y031386D01*
X009428Y031235D01*
X009579Y031084D01*
X009881Y031084D01*
X009881Y030857D02*
X009654Y030631D01*
X009654Y030933D01*
X009428Y030857D02*
X009881Y030857D01*
X009805Y030479D02*
X009881Y030404D01*
X009881Y030253D01*
X009805Y030178D01*
X009805Y030479D02*
X009730Y030479D01*
X009428Y030178D01*
X009428Y030479D01*
X009093Y030480D02*
X009093Y030631D01*
X009018Y030706D01*
X008716Y030404D01*
X008641Y030480D01*
X008641Y030631D01*
X008716Y030706D01*
X009018Y030706D01*
X009093Y030858D02*
X008791Y030858D01*
X008641Y031008D01*
X008791Y031159D01*
X009093Y031159D01*
X009093Y030480D02*
X009018Y030404D01*
X008716Y030404D01*
X011003Y031009D02*
X011304Y031310D01*
X011380Y031310D01*
X011455Y031235D01*
X011003Y031310D02*
X011003Y031009D01*
D12*
X009575Y028908D02*
X008552Y028908D01*
X008552Y028436D01*
X009575Y028436D01*
X009575Y028908D01*
X009575Y027924D02*
X008552Y027924D01*
X008552Y027452D01*
X009575Y027452D01*
X009575Y027924D01*
X009457Y027097D02*
X008670Y027097D01*
X008670Y025523D01*
X009457Y025523D01*
X009457Y027097D01*
X009536Y025168D02*
X008591Y025168D01*
X008591Y024696D01*
X009536Y024696D01*
X009536Y025168D01*
X012528Y025168D02*
X012528Y024696D01*
X013473Y024696D01*
X013473Y025168D01*
X012528Y025168D01*
X012607Y025523D02*
X012607Y027097D01*
X013394Y027097D01*
X013394Y025523D01*
X012607Y025523D01*
X012489Y027452D02*
X013512Y027452D01*
X013512Y027924D01*
X012489Y027924D01*
X012489Y027452D01*
X012489Y028436D02*
X012489Y028908D01*
X013512Y028908D01*
X013512Y028436D01*
X012489Y028436D01*
X016426Y028436D02*
X016426Y028908D01*
X017449Y028908D01*
X017449Y028436D01*
X016426Y028436D01*
X016426Y027924D02*
X016426Y027452D01*
X017449Y027452D01*
X017449Y027924D01*
X016426Y027924D01*
X016544Y027097D02*
X016544Y025523D01*
X017331Y025523D01*
X017331Y027097D01*
X016544Y027097D01*
X016465Y025168D02*
X016465Y024696D01*
X017410Y024696D01*
X017410Y025168D01*
X016465Y025168D01*
X020284Y025523D02*
X020284Y027097D01*
X021071Y027097D01*
X021071Y025523D01*
X020284Y025523D01*
X020402Y025168D02*
X020402Y024696D01*
X021347Y024696D01*
X021347Y025168D01*
X020402Y025168D01*
X020363Y027452D02*
X021386Y027452D01*
X021386Y027924D01*
X020363Y027924D01*
X020363Y027452D01*
X020363Y028436D02*
X020363Y028908D01*
X021386Y028908D01*
X021386Y028436D01*
X020363Y028436D01*
X022528Y021231D02*
X022528Y020759D01*
X023552Y020759D01*
X023552Y021231D01*
X022528Y021231D01*
X022567Y019853D02*
X022567Y019381D01*
X023512Y019381D01*
X023512Y019853D01*
X022567Y019853D01*
X026111Y022609D02*
X028237Y022609D01*
X028237Y023712D01*
X026111Y023712D01*
X026111Y022609D01*
D13*
X027012Y022903D02*
X027012Y023011D01*
X027066Y023065D01*
X027012Y023175D02*
X027012Y023392D01*
X027012Y023284D02*
X027336Y023284D01*
X027228Y023175D01*
X027282Y023065D02*
X027336Y023011D01*
X027336Y022903D01*
X027282Y022849D01*
X027066Y022849D01*
X027012Y022903D01*
X023690Y020250D02*
X023690Y020008D01*
X023629Y019947D01*
X023507Y019947D01*
X023447Y020008D01*
X023327Y019886D02*
X023084Y019886D01*
X022964Y019947D02*
X022843Y019947D01*
X022904Y019947D02*
X022904Y020311D01*
X022964Y020311D02*
X022843Y020311D01*
X022723Y020311D02*
X022480Y019947D01*
X022480Y020311D01*
X022723Y020311D02*
X022723Y019947D01*
X023447Y020250D02*
X023507Y020311D01*
X023629Y020311D01*
X023690Y020250D01*
X022080Y022844D02*
X021716Y022844D01*
X021898Y022844D02*
X021898Y022965D01*
X022080Y022844D02*
X022080Y023087D01*
X022080Y023207D02*
X021716Y023207D01*
X021716Y023449D01*
X021898Y023328D02*
X021898Y023207D01*
X022080Y023207D02*
X022080Y023449D01*
X022080Y023569D02*
X022080Y023812D01*
X022080Y023690D02*
X021716Y023690D01*
X021898Y023932D02*
X021898Y024174D01*
X021716Y024114D02*
X022080Y024114D01*
X021898Y023932D01*
X022259Y024670D02*
X022502Y024670D01*
X022621Y024791D02*
X022682Y024730D01*
X022803Y024730D01*
X022864Y024791D01*
X022864Y025034D01*
X022803Y025094D01*
X022682Y025094D01*
X022621Y025034D01*
X022139Y025094D02*
X021957Y025094D01*
X021896Y025034D01*
X021896Y024791D01*
X021957Y024730D01*
X022139Y024730D01*
X022139Y025094D01*
X021777Y024973D02*
X021655Y025094D01*
X021655Y024730D01*
X021534Y024730D02*
X021777Y024730D01*
X021647Y025962D02*
X021283Y025962D01*
X021283Y026205D01*
X021465Y026325D02*
X021465Y026568D01*
X021283Y026507D02*
X021647Y026507D01*
X021465Y026325D01*
X021534Y027486D02*
X021777Y027486D01*
X021655Y027486D02*
X021655Y027850D01*
X021777Y027729D01*
X021896Y027790D02*
X021957Y027850D01*
X022139Y027850D01*
X022139Y027486D01*
X021957Y027486D01*
X021896Y027547D01*
X021896Y027790D01*
X022259Y027426D02*
X022502Y027426D01*
X022621Y027486D02*
X022743Y027608D01*
X022682Y027608D02*
X022864Y027608D01*
X022864Y027486D02*
X022864Y027850D01*
X022682Y027850D01*
X022621Y027790D01*
X022621Y027668D01*
X022682Y027608D01*
X022600Y028449D02*
X022357Y028449D01*
X022237Y028510D02*
X022055Y028510D01*
X021995Y028571D01*
X021995Y028813D01*
X022055Y028874D01*
X022237Y028874D01*
X022237Y028510D01*
X021875Y028510D02*
X021632Y028753D01*
X021632Y028813D01*
X021693Y028874D01*
X021814Y028874D01*
X021875Y028813D01*
X021875Y028510D02*
X021632Y028510D01*
X022720Y028510D02*
X022841Y028631D01*
X022781Y028631D02*
X022963Y028631D01*
X022963Y028510D02*
X022963Y028874D01*
X022781Y028874D01*
X022720Y028813D01*
X022720Y028692D01*
X022781Y028631D01*
X019026Y028631D02*
X018844Y028631D01*
X018783Y028692D01*
X018783Y028813D01*
X018844Y028874D01*
X019026Y028874D01*
X019026Y028510D01*
X018904Y028631D02*
X018783Y028510D01*
X018663Y028449D02*
X018420Y028449D01*
X018300Y028571D02*
X018240Y028510D01*
X018118Y028510D01*
X018058Y028571D01*
X017938Y028510D02*
X017695Y028753D01*
X017695Y028813D01*
X017756Y028874D01*
X017877Y028874D01*
X017938Y028813D01*
X018058Y028813D02*
X018118Y028874D01*
X018240Y028874D01*
X018300Y028813D01*
X018300Y028571D01*
X017938Y028510D02*
X017695Y028510D01*
X017718Y027850D02*
X017718Y027486D01*
X017597Y027486D02*
X017840Y027486D01*
X017959Y027547D02*
X018020Y027486D01*
X018141Y027486D01*
X018202Y027547D01*
X018202Y027790D01*
X018141Y027850D01*
X018020Y027850D01*
X017959Y027790D01*
X017840Y027729D02*
X017718Y027850D01*
X018322Y027426D02*
X018565Y027426D01*
X018684Y027486D02*
X018806Y027608D01*
X018745Y027608D02*
X018927Y027608D01*
X018927Y027486D02*
X018927Y027850D01*
X018745Y027850D01*
X018684Y027790D01*
X018684Y027668D01*
X018745Y027608D01*
X017846Y026568D02*
X017786Y026568D01*
X017725Y026507D01*
X017664Y026568D01*
X017604Y026568D01*
X017543Y026507D01*
X017543Y026386D01*
X017604Y026325D01*
X017543Y026205D02*
X017543Y025962D01*
X017907Y025962D01*
X017846Y026325D02*
X017907Y026386D01*
X017907Y026507D01*
X017846Y026568D01*
X017725Y026507D02*
X017725Y026446D01*
X017718Y025094D02*
X017718Y024730D01*
X017597Y024730D02*
X017840Y024730D01*
X017959Y024791D02*
X018020Y024730D01*
X018141Y024730D01*
X018202Y024791D01*
X018202Y025034D01*
X018141Y025094D01*
X018020Y025094D01*
X017959Y025034D01*
X017840Y024973D02*
X017718Y025094D01*
X018322Y024670D02*
X018565Y024670D01*
X018684Y024791D02*
X018745Y024730D01*
X018866Y024730D01*
X018927Y024791D01*
X018927Y025034D01*
X018866Y025094D01*
X018745Y025094D01*
X018684Y025034D01*
X018083Y024174D02*
X018022Y024174D01*
X017961Y024114D01*
X017901Y024174D01*
X017840Y024174D01*
X017779Y024114D01*
X017779Y023992D01*
X017840Y023932D01*
X017961Y024053D02*
X017961Y024114D01*
X018083Y024174D02*
X018143Y024114D01*
X018143Y023992D01*
X018083Y023932D01*
X018143Y023812D02*
X018143Y023569D01*
X018143Y023449D02*
X018143Y023207D01*
X017779Y023207D01*
X017779Y023449D01*
X017961Y023328D02*
X017961Y023207D01*
X018143Y023087D02*
X018143Y022844D01*
X017779Y022844D01*
X017961Y022844D02*
X017961Y022965D01*
X017779Y023690D02*
X018143Y023690D01*
X015089Y024693D02*
X015028Y024632D01*
X014907Y024632D01*
X014846Y024693D01*
X014726Y024571D02*
X014483Y024571D01*
X014363Y024632D02*
X014181Y024632D01*
X014121Y024693D01*
X014121Y024753D01*
X014181Y024814D01*
X014363Y024814D01*
X014181Y024814D02*
X014121Y024875D01*
X014121Y024935D01*
X014181Y024996D01*
X014363Y024996D01*
X014363Y024632D01*
X014001Y024632D02*
X013758Y024632D01*
X013880Y024632D02*
X013880Y024996D01*
X014001Y024875D01*
X014085Y024174D02*
X013842Y023932D01*
X013842Y024174D01*
X014085Y024174D02*
X014146Y024174D01*
X014206Y024114D01*
X014206Y023992D01*
X014146Y023932D01*
X014206Y023812D02*
X014206Y023569D01*
X014206Y023449D02*
X014206Y023207D01*
X013842Y023207D01*
X013842Y023449D01*
X014024Y023328D02*
X014024Y023207D01*
X014206Y023087D02*
X014206Y022844D01*
X013842Y022844D01*
X014024Y022844D02*
X014024Y022965D01*
X013842Y023690D02*
X014206Y023690D01*
X015089Y024693D02*
X015089Y024935D01*
X015028Y024996D01*
X014907Y024996D01*
X014846Y024935D01*
X013970Y025962D02*
X013606Y025962D01*
X013606Y026205D01*
X013606Y026325D02*
X013849Y026568D01*
X013909Y026568D01*
X013970Y026507D01*
X013970Y026386D01*
X013909Y026325D01*
X013606Y026325D02*
X013606Y026568D01*
X013758Y027388D02*
X014001Y027388D01*
X013880Y027388D02*
X013880Y027752D01*
X014001Y027631D01*
X014121Y027631D02*
X014181Y027570D01*
X014363Y027570D01*
X014181Y027570D02*
X014121Y027509D01*
X014121Y027449D01*
X014181Y027388D01*
X014363Y027388D01*
X014363Y027752D01*
X014181Y027752D01*
X014121Y027691D01*
X014121Y027631D01*
X014483Y027327D02*
X014726Y027327D01*
X014846Y027388D02*
X014967Y027509D01*
X014906Y027509D02*
X015089Y027509D01*
X015089Y027388D02*
X015089Y027752D01*
X014906Y027752D01*
X014846Y027691D01*
X014846Y027570D01*
X014906Y027509D01*
X014726Y028351D02*
X014483Y028351D01*
X014363Y028412D02*
X014181Y028412D01*
X014121Y028472D01*
X014121Y028533D01*
X014181Y028594D01*
X014363Y028594D01*
X014181Y028594D02*
X014121Y028654D01*
X014121Y028715D01*
X014181Y028776D01*
X014363Y028776D01*
X014363Y028412D01*
X014001Y028412D02*
X013758Y028654D01*
X013758Y028715D01*
X013819Y028776D01*
X013940Y028776D01*
X014001Y028715D01*
X014001Y028412D02*
X013758Y028412D01*
X014846Y028412D02*
X014967Y028533D01*
X014907Y028533D02*
X015089Y028533D01*
X015089Y028412D02*
X015089Y028776D01*
X014907Y028776D01*
X014846Y028715D01*
X014846Y028594D01*
X014907Y028533D01*
X011151Y028533D02*
X010969Y028533D01*
X010909Y028594D01*
X010909Y028715D01*
X010969Y028776D01*
X011151Y028776D01*
X011151Y028412D01*
X011030Y028533D02*
X010909Y028412D01*
X010789Y028351D02*
X010546Y028351D01*
X010426Y028412D02*
X010426Y028654D01*
X010305Y028776D01*
X010184Y028654D01*
X010184Y028412D01*
X010064Y028412D02*
X009821Y028654D01*
X009821Y028715D01*
X009882Y028776D01*
X010003Y028776D01*
X010064Y028715D01*
X010184Y028594D02*
X010426Y028594D01*
X010064Y028412D02*
X009821Y028412D01*
X009943Y027752D02*
X009943Y027388D01*
X010064Y027388D02*
X009821Y027388D01*
X010064Y027631D02*
X009943Y027752D01*
X010184Y027631D02*
X010184Y027388D01*
X010184Y027570D02*
X010426Y027570D01*
X010426Y027631D02*
X010305Y027752D01*
X010184Y027631D01*
X010426Y027631D02*
X010426Y027388D01*
X010546Y027327D02*
X010789Y027327D01*
X010909Y027388D02*
X011030Y027509D01*
X010969Y027509D02*
X011151Y027509D01*
X011151Y027388D02*
X011151Y027752D01*
X010969Y027752D01*
X010909Y027691D01*
X010909Y027570D01*
X010969Y027509D01*
X010033Y026446D02*
X009669Y026446D01*
X009669Y026325D02*
X009669Y026568D01*
X009912Y026325D02*
X010033Y026446D01*
X009669Y026205D02*
X009669Y025962D01*
X010033Y025962D01*
X009943Y025193D02*
X009943Y024829D01*
X010064Y024829D02*
X009821Y024829D01*
X010064Y025072D02*
X009943Y025193D01*
X010184Y025072D02*
X010184Y024829D01*
X010184Y025011D02*
X010426Y025011D01*
X010426Y025072D02*
X010305Y025193D01*
X010184Y025072D01*
X010426Y025072D02*
X010426Y024829D01*
X010546Y024768D02*
X010789Y024768D01*
X010909Y024890D02*
X010969Y024829D01*
X011091Y024829D01*
X011151Y024890D01*
X011151Y025132D01*
X011091Y025193D01*
X010969Y025193D01*
X010909Y025132D01*
X010269Y024053D02*
X009905Y024053D01*
X009905Y023932D02*
X009905Y024174D01*
X010148Y023932D02*
X010269Y024053D01*
X010269Y023812D02*
X010269Y023569D01*
X010269Y023449D02*
X010269Y023207D01*
X009905Y023207D01*
X009905Y023449D01*
X010087Y023328D02*
X010087Y023207D01*
X010269Y023087D02*
X010269Y022844D01*
X009905Y022844D01*
X010087Y022844D02*
X010087Y022965D01*
X009905Y023690D02*
X010269Y023690D01*
D14*
X009624Y023627D02*
X009624Y023294D01*
X009352Y023294D01*
X008765Y023294D02*
X008504Y023294D01*
X008504Y023627D01*
X012441Y023627D02*
X012441Y023294D01*
X012702Y023294D01*
X013289Y023294D02*
X013561Y023294D01*
X013561Y023627D01*
X016378Y023627D02*
X016378Y023294D01*
X016639Y023294D01*
X017226Y023294D02*
X017498Y023294D01*
X017498Y023627D01*
X020315Y023627D02*
X020315Y023294D01*
X020576Y023294D01*
X021163Y023294D02*
X021435Y023294D01*
X021435Y023627D01*
D15*
X020953Y023814D02*
X020796Y023814D01*
X017016Y023814D02*
X016859Y023814D01*
X013079Y023814D02*
X012922Y023814D01*
X009142Y023814D02*
X008985Y023814D01*
D16*
X008473Y024263D02*
X008473Y022845D01*
X009654Y022845D01*
X009654Y024263D01*
X008473Y024263D01*
X012410Y024263D02*
X012410Y022845D01*
X013591Y022845D01*
X013591Y024263D01*
X012410Y024263D01*
X016347Y024263D02*
X016347Y022845D01*
X017528Y022845D01*
X017528Y024263D01*
X016347Y024263D01*
X020284Y024263D02*
X020284Y022845D01*
X021465Y022845D01*
X021465Y024263D01*
X020284Y024263D01*
M02*
